<svg xmlns="http://www.w3.org/2000/svg" xmlns:xlink="http://www.w3.org/1999/xlink" version="1.1" viewBox="-10 0 2058 2048">
   <path fill="currentColor"
d="M1482 0q6 0 11 24t7 47l2 24q2 13 5 34.5t15.5 80.5t28 109.5t43.5 105t61 82.5q139 122 200.5 221.5t67 206t-22.5 245.5q-5 30 -12 59q5 -68 2.5 -129t-12 -110.5t-37 -92t-72.5 -72.5q-57 -65 -99 -118.5t-90.5 -131.5t-77 -149.5t-42.5 -160.5t-3 -176
q5 -37 9.5 -59.5t8 -31.5t7.5 -8zM1386 218q8 -2 16 39q2 8 5.5 23.5t16.5 59t29.5 83.5t44.5 90t60 87q44 51 68 79t34.5 40.5t36 45.5t54.5 69q-12 -10 -46 0q-4 -6 -10.5 -15.5t-27.5 -36t-41.5 -49t-49 -46t-54.5 -35.5q-5 -5 -12.5 -13.5t-28 -35.5t-37.5 -54.5
t-33 -66t-21 -73.5q-9 -63 -11.5 -108t0 -64t7.5 -19zM146 355h1q10 1 24 70q47 212 184.5 341t336.5 146q44 -5 148.5 -37.5t161.5 -36.5q26 -1 60 -2.5t73 5.5t73 18t61 35t36 57q-25 20 -40 56t-17 76q0 33 16 67.5t34.5 55.5t48.5 51q-18 10 -31.5 12.5t-30 -4
t-33.5 -21t-44 -41.5q-140 -120 -282 -80q-108 22 -206 8t-179 -47.5t-148 -87t-114 -111t-77 -118.5q-36 -48 -59 -143t-18 -163q5 -53 9.5 -80t11.5 -26zM1365 441q6 0 22 52q10 31 96 128l16 19q-36 -12 -72 -15q-19 -2 -34.5 -23t-23 -47.5t-11 -50.5t-2.5 -35
q3 -28 9 -28zM1403 637q39 2 77.5 18.5t65.5 35t56.5 48.5t42 45.5t30.5 38.5q4 6 6 8q-5 3 -14 7.5t-37.5 11t-57 3.5t-68 -23.5t-75.5 -60.5q-37 -33 -69.5 -50.5t-53.5 -20t-39 3t-25.5 11.5t-13.5 13l-4 5q0 -4 1.5 -10t12.5 -21.5t28 -27.5t53 -22.5t84 -12.5z
M1021 702q100 1 199 29q-1 1 -2.5 3.5t-7 5.5t-11.5 2q-8 -2 22 33q-195 -79 -502 -11q-7 1 -37 8q171 -72 339 -70zM1286 711q7 0 14 2t11 4l3 2q-11 22 -23.5 34.5t-23 14t-19 -0.5t-12.5 -5l-5 -4q22 -47 55 -47zM1346 738q19 0 38.5 13t29.5 25l10 13q1 2 3 5.5t4.5 15
t0.5 23.5t-11.5 29t-28.5 34q-20 19 -38 28t-27 9h-8l7 -5q9 -14 -34 -39q-23 -14 -39 -30.5t-21.5 -30.5t-8 -26t-1.5 -18l1 -7q25 5 40.5 2.5t22.5 -7.5l7 -6q22 -28 53 -28zM1448 808q26 22 52.5 36t49 18.5t43 5.5t38 -3.5t29 -8.5t20.5 -8.5l9 -4.5q-30 26 -51 68.5
t-27 72.5l-6 30q-40 -35 -83.5 -55t-76.5 -24t-60 -3.5t-41 4.5l-15 5q36 -11 62 -29t36.5 -35.5t16 -33.5t4.5 -25v-10zM1730 846q5 0 19 2q32 12 59 43t47 82.5t24 122.5t-11 164q-4 16 -10.5 32.5t-13.5 30.5t-14.5 27.5t-13.5 24.5t-11 18.5t-8.5 12.5l-3.5 5
q6 -19 -4 -159q-22 -273 -80 -311q-40 -27 -95 81q5 -39 25 -87q15 -36 38 -61.5t53 -27.5zM1793 1411v1v-1zM214 915q11 0 31 31q28 43 59 73t48 38l16 9q144 85 277.5 109t253.5 -18q6 -4 16.5 -8.5t45.5 -9.5t72.5 0.5t93.5 33.5t112 79q-9 5 -25 13t-66 28t-99.5 35
t-117.5 26t-128 9q-34 -1 -86 -12.5t-120 -34.5t-141.5 -67t-128.5 -101q-90 -93 -116 -184q-13 -48 3 -49zM1394 947v-1q4 0 13.5 0.5t14.5 0.5q45 1 92 25q23 11 44.5 25t31.5 22l10 9q-140 -35 -133 37q8 73 147 222q91 98 136 124q8 5 11 5q-121 -25 -218 -62.5
t-158.5 -83t-93 -95.5t-27 -102.5t43.5 -100.5q15 -11 31 -17t26.5 -7t28.5 -1zM1685 970q26 -2 46 46.5t30.5 130.5t16 146.5t8.5 133.5q-243 -205 -276 -319q-19 -63 33 -72q30 -5 75 11q37 -76 67 -77zM1886 1252q-26 176 -57 250q-3 -18 -8 -31.5t-10.5 -20.5t-10.5 -11
t-8 -5l-3 -1q21 -18 45 -63t38 -82zM1357 1264q40 34 98 64.5t112.5 49.5t103 32.5t78.5 19.5l29 6q-44 67 -156 133l-4 2q15 -26 -6.5 -47.5t-89.5 -52.5q-51 -22 -76.5 -34.5t-54 -29t-44.5 -33t-32 -39t-32 -54.5q4 1 11.5 2.5t27 -2.5t35.5 -17zM1253 1271
q7 51 -28.5 98t-94 78t-130 47t-134.5 11q-255 -14 -371 -133q-2 -2 -5 -6t-7 -9.5t-7.5 -11t-6 -10.5t-3 -9t2.5 -5.5t9 0t18 7.5t29 16q31 15 64.5 25.5t49.5 14t58 11.5q45 4 87 4.5t81 -4t71 -8.5t67.5 -15t58 -17.5t56 -21t48 -21t46.5 -22t41 -19.5zM1273 1292l5 5
t5.5 6t5.5 7t6 10t5 12t5 16q9 39 -11 77.5t-78 66.5q-64 31 -132 38q-31 3 -28 -6q2 -9 46 -29q49 -23 84.5 -52t51.5 -54.5t25 -48t9 -35.5zM1785 1450q2 7 4 19.5t-2 51.5t-19 78.5t-56 96.5t-104 110q-71 58 -147.5 92t-171.5 53q-5 1 -13.5 2t-34 1.5t-49.5 -1.5
t-55 -10t-56 -21.5t-47 -38.5t-33 -59q5 3 16.5 7.5t56 10t100.5 2.5q127 -9 238.5 -47t187.5 -93.5t124.5 -121t60.5 -132.5zM1802 1458q12 12 19 43.5t4 76.5t-15.5 96.5t-42.5 106t-72.5 102.5t-111 88.5t-153.5 62.5q-7 2 -18.5 5t-46.5 7t-68.5 1.5t-77 -17
t-78.5 -41.5q117 14 272 -46.5t232 -139.5q178 -182 157 -345zM1762 1475q-18 66 -75.5 129.5t-130 108t-152 72t-143.5 28.5q-28 0 -51.5 -7.5t-37.5 -18.5t-24 -22t-14 -18l-4 -8q2 0 7 0.5t23.5 0t41.5 -3t64 -10t89 -18.5q74 -17 143 -47.5t114.5 -61.5t81 -59.5
t52.5 -46.5z" />
</svg>