<svg xmlns="http://www.w3.org/2000/svg" xmlns:xlink="http://www.w3.org/1999/xlink" version="1.1" viewBox="-10 0 2068 2048">
   <path fill="currentColor"
d="M1550 1253q-44 -8 -62 -31.5t-10 -67.5q0 -6 -1 -18t-0.5 -19t2.5 -15.5t9 -12.5t18 -5q37 -6 54 -25t13.5 -45.5t-13.5 -51.5t-26 -51q-5 -30 -20.5 -44.5t-37.5 -12.5t-42 9.5t-42 20.5q-21 -5 -48 -37.5t-40 -41.5q-10 -11 -5.5 -25.5t11 -32.5t12 -34t-2 -30
t-29.5 -21q-26 -14 -49 -24.5t-51.5 -16.5t-49.5 -2t-37 23.5t-21 54.5q-10 15 -31 19t-41.5 1t-41.5 0q-17 1 -27 -12.5t-14 -30.5t-13.5 -33.5t-25.5 -19.5q-21 4 -35 7t-41.5 9.5t-44.5 15.5t-34.5 21.5t-23 29.5t0.5 38q11 18 16.5 31t8 28t-6 27.5t-28.5 21.5
q-45 81 -142 24q-48 24 -75.5 92t-4.5 117q109 23 90 114q5 13 6 23.5t-3.5 18t-10.5 13t-15.5 10t-18.5 8t-20 8t-18 8.5q-28 44 4 113t78 96q12 0 29 -8.5t29.5 -16t28.5 -9.5t27 10q6 12 20 25.5t24.5 24t18.5 23t6.5 27t-15.5 30.5q-11 20 -7.5 36.5t12 29.5t27 23
t36.5 17t40.5 12t40 8t33.5 4q15 -6 24 -25.5t12 -38.5t14.5 -31.5t33.5 -7.5q5 0 50.5 -0.5t51.5 2.5q4 19 10.5 35.5t17.5 32.5t24 24t30.5 6t37.5 -18q3 -2 11 -5q18 -7 28 -11t26.5 -13t25 -16t18 -18t11 -21.5t-2.5 -25t-15 -30.5q-11 -12 -13 -23t4 -21.5t14 -18.5
t19 -18.5t16 -17.5q11 -21 27 -24.5t34 3.5t36 15t36 5t31 -23q0 -17 15 -49t27.5 -58t9 -51t-33.5 -36zM1116 1379q-39 21 -83 23t-84 -13.5t-74 -42.5t-55 -66t-24 -82q-8 -54 14 -107t61.5 -89.5t94.5 -52t108 -0.5q56 12 99 53.5t62.5 93.5t12 111t-45.5 103
q-33 45 -86 69zM898 191l256 256h894v1410h-2048v-1666h898z" />
</svg>