<svg xmlns="http://www.w3.org/2000/svg" xmlns:xlink="http://www.w3.org/1999/xlink" version="1.1" viewBox="-10 0 2068 2048">
   <path fill="currentColor"
d="M1024 4q276 0 512 138q236 139 374 373q138 235 138 513q0 276 -138 512q-138 235 -374 370q-233 134 -512 134t-512 -134q-236 -135 -374 -370q-138 -236 -138 -512q0 -278 138 -513t374 -373q235 -138 512 -138zM1796 634q-76 -152 -202 -261q-125 -109 -276 -160
q99 192 150 421h328zM1888 1103q10 -44 8 -75q-8 -125 -32 -236h-370q8 75 8 152q0 161 -34 319h396q15 -72 24 -160zM1334 1103v-8q10 -75 10 -151q0 -69 -18 -152h-604q-8 75 -8 152q0 158 32 319h564q15 -79 24 -160zM1302 634q-59 -251 -194 -472h-84h-76
q-141 216 -192 472h546zM586 634q42 -226 152 -428q-160 59 -280 167q-122 109 -198 261h326zM194 785q-34 122 -34 239q0 122 34 239h392q-32 -161 -32 -319q0 -68 8 -152h-368v-7zM630 1415h-370q84 186 244 302q160 117 352 159q-150 -208 -226 -454v-7zM1024 1834
q150 -183 236 -412h-462q75 228 226 412zM1426 1415q-75 254 -226 461q194 -42 348 -159q156 -118 248 -302h-370z" />
</svg>