<svg xmlns="http://www.w3.org/2000/svg" xmlns:xlink="http://www.w3.org/1999/xlink" version="1.1" viewBox="-10 0 2068 2048">
   <path fill="currentColor"
d="M693 339q-148 149 -183 355q-34 207 51 394q63 141 179 233q-16 67 -8 141v24l-69 -47l-554 538l-109 -102l553 -538q-179 -196 -199 -464q-19 -269 121 -495q140 -225 394 -322.5t510 -24.5q256 74 417 289q160 214 160 487q0 52 -8 117q-65 -57 -132 -101v-16
q0 -201 -113 -366q-112 -163 -297 -242q-183 -78 -378 -39t-335 179zM1137 979q125 -86 285 -98q162 -12 301 58q140 71 225 199q86 130 98 285q12 156 -59 296q-71 141 -202 230q-133 91 -289 98q-154 8 -296 -59q-140 -65 -226 -198q-85 -131 -93 -289q-7 -156 58 -296
q66 -140 198 -226zM1145 1774q133 133 312 125q142 8 258 -79l-616 -607q-78 110 -78 249q0 188 124 312zM1208 1103l608 617q86 -117 78 -258q8 -179 -121 -308t-316 -129q-139 0 -249 78z" />
</svg>