<svg xmlns="http://www.w3.org/2000/svg" xmlns:xlink="http://www.w3.org/1999/xlink" version="1.1" viewBox="-10 0 2058 2048">
   <path fill="currentColor"
d="M694 532q-58 87 -154 131l-57 15v684q139 29 211 146q59 87 57 189q0 73 -21 139q-43 94 -131 153q-86 58 -192.5 58t-190.5 -58q-82 -57 -123 -153q-40 -94 -22 -197q19 -104 91 -175q75 -73 174 -95v-691q-101 -21 -174 -95q-73 -75 -91 -175q-18 -103 22 -197
q41 -96 123 -153q84 -58 194 -58q139 -7 244 95t97 248q2 110 -57 189zM591 1609q-29 -52 -76 -80t-105 -28q-96 0 -157 76t-40 171q8 60 55 103q49 44 105 54q60 11 116 -11q60 -23 92 -73q33 -51 36 -105q3 -55 -26 -107zM300 510q53 37 109 37q58 0 106 -30
q48 -29 77 -80q28 -48 25 -109q-3 -59 -36 -106q-32 -46 -92 -72t-120 -12q-61 15 -105 59q-43 44 -54 102q-10 60 14 116q26 60 76 95zM1706 1369q103 21 175 95q103 103 101 240q0 104 -58 190q-59 88 -153 128q-94 41 -197 18t-174 -95q-72 -74 -95 -175
q-22 -100 19 -196q41 -95 127 -153q61 -37 124 -52v-757q0 -87 -62 -146q-61 -58 -142 -58h-255l175 175l-102 95l-292 -291v-95l292 -292l102 94l-175 175h255q102 0 189 59q89 60 124 153q28 64 22 131v757zM1786 1851q51 -50 58 -125q8 -72 -29 -131q-35 -57 -95 -80
q-56 -22 -120 -11q-60 11 -105 55q-44 45 -55 106q-11 65 10 113q23 51 62 83q42 34 88 44q49 11 98 -4q54 -16 88 -50z" />
</svg>