<svg xmlns="http://www.w3.org/2000/svg" xmlns:xlink="http://www.w3.org/1999/xlink" version="1.1" viewBox="-10 0 2068 2048">
   <path fill="currentColor"
d="M1687 1220q-36 -15 -82 -20q-42 -4 -81 15q-42 21 -67 39q-26 19 -50 52l-47 47l-40 31q-22 22 -55 19q-30 -3 -46 -27l-320 -305q-96 -96 -172 -180q-29 -36 -55 -70q-23 -31 -28 -51q-4 -20 20 -43l31 -40l55 -47q23 -23 47 -50q23 -25 35 -62q12 -34 12 -82
q0 -94 -63 -165q-24 -24 -82 -86q-43 -47 -90 -90q-42 -40 -98 -74q-50 -31 -113 -31q-93 0 -157 62l-108 110q-36 44 -75 98q-34 49 -47 117q-11 61 -11 145q0 116 39 249q40 135 105 263q68 133 160 254q95 124 204.5 234t233.5 207q130 102 258 165q135 66 262 105
q129 39 254 39q78 0 144 -15q65 -15 117 -47q51 -31 98 -71l110 -109q64 -63 62 -157q0 -38 -12 -77q-12 -42 -35 -71l-54 -62l-63 -63l-117 -109q-29 -29 -79 -47zM1632 1892q-52 16 -116 8q-113 0 -227 -35q-120 -37 -227 -91q-243 -141 -445 -343q-102 -103 -188 -212
q-84 -109 -148 -226q-59 -111 -98 -235q-35 -114 -35 -234q-7 -58 8 -110q18 -58 39 -90q24 -36 62 -74l86 -78q23 -31 55 -31q15 0 47 23l55 47q78 63 133 133l47 55q23 32 23 50q0 21 -16 44l-86 86q-30 22 -51 50q-18 26 -34 66q-16 42 -16 83q0 40 16 82q15 39 54 78
l539 540q70 70 164 70q39 0 79 -15q72 -32 117 -86l47 -47q19 -25 39 -39q24 -16 43 -16q18 0 50 23l55 47l70 63q40 32 63 70l47 63q23 23 23 38q0 31 -31 55l-78 86q-43 35 -78 59q-35 25 -87 43zM2047 101l-680 680h485v149h-735v-735h149v485l680 -680z" />
</svg>