<svg xmlns="http://www.w3.org/2000/svg" xmlns:xlink="http://www.w3.org/1999/xlink" version="1.1" viewBox="-10 0 2067 2048">
   <path fill="currentColor"
d="M274 16q77 31 109 102q16 38 16 85q0 48 -23 90q-24 43 -71 75q-46 31 -110 31q-77 0 -136 -59q-58 -58 -58 -145q0 -55 31 -105t86 -74q79 -31 156 0zM227 274q46 -23 54 -79q0 -23 -19 -46.5t-43 -31t-47 4.5q-25 12 -39 31q-15 19 -15 47t19 47q20 20 43 27q24 7 47 0
zM797 16l-781 782l102 94l773 -774zM1540 1173h140v368h367v140h-367v367h-140v-367h-367v-140h367v-368zM696 1251l101 102l-257 258l257 257l-101 102l-258 -257l-258 257l-101 -102l257 -257l-257 -258l101 -102l258 258zM891 634q-22 -54 -70 -91q-45 -35 -109 -35
t-114 35t-70 87q-20 53 -16 101q5 52 31 90q27 38 71 63q44 24 94 27q52 3 97 -23q48 -28 75 -67q28 -41 31 -90q3 -50 -20 -97zM781 743q-7 31 -39 39q-46 22 -85 -15q-16 -7 -24 -28q-7 -19 -3 -43q5 -25 23 -43.5t43 -22.5q24 -5 43 2.5t27 24.5q38 39 15 86zM1906 289
h-586v149h586v-149z" />
</svg>