<svg xmlns="http://www.w3.org/2000/svg" xmlns:xlink="http://www.w3.org/1999/xlink" version="1.1" viewBox="-10 0 2065 2048">
   <path fill="currentColor"
d="M448 180q233 -165 504 -178q272 -14 518 102q245 114 402 348q158 233 171 504q14 273 -109 518q-123 246 -347 403q-223 156 -497 170q-274 13 -518 -108q-244 -123 -395 -348q-150 -226 -171 -497q-21 -273 102 -518q124 -247 340 -396zM626 1612q164 109 354 123
q190 13 361 -69q172 -83 273 -239q103 -159 116 -347q14 -191 -75 -362q-87 -170 -239 -280q-246 -151 -525 -95q-280 55 -443 293q-164 239 -108.5 525.5t286.5 450.5zM1402 643h-762v260h762v-260zM1402 1147h-762v259h762v-259z" />
</svg>