<svg xmlns="http://www.w3.org/2000/svg" xmlns:xlink="http://www.w3.org/1999/xlink" version="1.1" viewBox="-10 0 2068 2048">
   <path fill="currentColor"
d="M619 108l109 -62l1320 882v125l-843 563v-180l671 -445l-1109 -742v530h-148v-671zM595 897q-196 -8 -351 94q-157 102 -218 297q-32 94 -24 187q7 89 40 188q71 172 238 269q168 98 359 59q190 -39 323 -187q125 -164 125 -345q0 -236 -155 -398v-8q-71 -64 -157 -105
q-91 -44 -180 -51zM314 1100q109 -78 266 -70q142 17 250 117q52 59 85 141q31 77 31 163q7 135 -85 254q-95 121 -234 153q-142 32 -266.5 -43t-186.5 -203q-63 -129 -16 -278q39 -149 156 -234zM540 1365l-171 -179l-94 94l180 187l-180 180l94 94l171 -180l180 180
l94 -94l-180 -180l180 -187l-94 -94z" />
</svg>