<svg xmlns="http://www.w3.org/2000/svg" xmlns:xlink="http://www.w3.org/1999/xlink" version="1.1" viewBox="-10 0 2068 2048">
   <path fill="currentColor"
d="M494 622h148v-150h148v-148h-148v-148h-148v148h-150v148h150v150zM1666 1208h-150v140h-140v148h140v150h150v-150h148v-148h-148v-140zM1906 176v-140h-146v140h-150v148h150v148h146v-148h142v-148h-142zM1470 536q-64 -64 -154 -64q-88 0 -158 64l-1094 1102
q-64 62 -64 152t63 156t157 66t156 -70l1094 -1094q62 -62 62 -152t-62 -160zM266 1842q-16 22 -47 22t-54 -23t-23 -51t22 -50l946 -946l110 102zM1368 746l-48 48l-100 -110l48 -48q16 -16 46 -16t54 20q24 19 24 52q0 30 -24 54z" />
</svg>