<svg xmlns="http://www.w3.org/2000/svg" xmlns:xlink="http://www.w3.org/1999/xlink" version="1.1" viewBox="-10 0 2068 2048">
   <path fill="currentColor"
d="M1790 347q0 123 -84 203t-204 80q-118 0 -203 -80q-84 -80 -84 -199q0 -121 84 -200q85 -80 203 -80q120 0 204 80q84 79 84 196zM582 965q0 124 -87 205q-85 80 -208 80q-120 0 -203 -80q-84 -81 -84 -201q0 -121 84 -200q85 -80 203 -80q121 0 208 80t87 196zM945 1694
q-158 -28 -283 -124t-196 -232q-122 58 -255 28q95 218 273 364q180 147 411 197q106 15 204 14q-80 -103 -80 -232zM1725 1701q0 117 -84 196q-84 80 -203.5 80t-207.5 -80q-87 -79 -87 -199.5t87 -200.5q88 -80 207.5 -80t203.5 80t84 204zM1841 1591q140 -169 182 -378
q44 -184 8 -364q-35 -180 -146 -342q-43 124 -160 190q124 227 65 473q-20 114 -88 218q104 80 139 203zM276 565q-7 0 -6 0q131 -233 378 -360t523 -106q-64 72 -80 168l-7 58q-175 7 -324 84q-147 76 -250 215q-57 -36 -132 -51q-46 -8 -87 -8h-15z" />
</svg>