<svg xmlns="http://www.w3.org/2000/svg" xmlns:xlink="http://www.w3.org/1999/xlink" version="1.1" viewBox="-10 0 2068 2048">
   <path fill="currentColor"
d="M512 382h1024q157 0 270 113q112 112 112 270v512q0 165 -112 277t-270 112h-48q-116 0 -218 -69l-103 -68q-68 -41 -143 -41t-143 41l-103 68q-102 67 -218 69h-48q-157 0 -270 -113q-112 -112 -112 -276v-512q0 -158 112 -270q113 -113 270 -113zM512 512
q-109 0 -184 75t-75 178v512q8 110 79 184q72 75 180 75h48q81 0 143 -41l109 -75q95 -61 212 -61t212 61l109 75q62 41 143 41h48q109 0 184 -75t75 -184v-512q0 -102 -75 -177q-76 -76 -184 -76h-1024zM0 894h130v383h-130v-383zM1918 894h130v383h-130v-383zM833 1024
q27 0 44 17t17 45q0 26 -17 48q-16 20 -44 20h-321q-28 0 -44 -20q-17 -22 -17 -48q0 -28 17 -45t44 -17h321zM1536 1024q27 0 44 17t17 45q0 26 -17 48q-16 20 -44 20h-321q-28 0 -44 -20q-17 -22 -17 -48q0 -28 17 -45t44 -17h321z" />
</svg>