<svg xmlns="http://www.w3.org/2000/svg" xmlns:xlink="http://www.w3.org/1999/xlink" version="1.1" viewBox="-10 0 2058 2048">
   <path fill="currentColor"
d="M1482 242q31 -70 84 -70q56 0 88 54q30 53 30 149t-34 153q-37 59 -90 59q-55 0 -78 -55l-8 47h-86v-579h86zM1474 407q0 32 16 58q17 28 42 28q26 0 42 -32q16 -31 16 -86t-12 -82t-38 -27q-27 0 -46 31q-20 32 -20 71v39zM380 977l-306 -313l94 -93l148 148v-226
q0 -77 60 -141q58 -63 144 -63h344v133h-344q-32 0 -50 23q-20 25 -20 48v226l140 -140l94 93zM1146 571h100v-250q0 -180 -140 -180q-32 0 -66 11q-37 12 -60 28v94q56 -39 114.5 -39t51.5 70l-86 8q-110 23 -110 148q0 53 28 90q26 36 74 36q62 0 94 -71v55zM1152 375v32
q0 32 -18 58q-21 28 -44 28t-34 -16q-12 -17 -12 -31q0 -55 46 -63l56 -8h6zM802 1743h-94v-55q-32 70 -94 71q-48 0 -74 -35q-28 -36 -28 -91q0 -125 110 -147l86 -8q0 -70 -56 -70q-53 0 -108 39v-94q22 -17 58 -24q32 -7 66 -15q134 0 134 180v249zM708 1580v-32l-54 8
q-48 8 -48 63q0 17 12 31q12 16 34 16q24 0 40 -24q16 -26 16 -62zM1138 1759q70 0 108 -24v-108q-38 31 -86 31q-46 0 -74 -32q-26 -31 -26 -86t30 -90q31 -35 74 -35q44 0 76 32v-110q-21 -15 -88 -23q-94 0 -148 62q-54 64 -54 164q0 101 50 160q52 59 138 59zM74 1173
l140 -149h1322l148 149v727l-148 148h-1322l-140 -148v-727zM214 1173v727h1322v-727h-1322zM660 875l142 -148h1030l142 148v736l-142 148v-884h-1172z" />
</svg>