<svg xmlns="http://www.w3.org/2000/svg" xmlns:xlink="http://www.w3.org/1999/xlink" version="1.1" viewBox="-10 0 2068 2048">
   <path fill="currentColor"
d="M990 1440q0 150 -92 263q-92 114 -236 144q-143 30 -274 -37q-129 -66 -188 -199l-134 52q75 171 240 262q167 92 352 66q186 -25 314 -162q130 -137 155.5 -322t-69.5 -348q-94 -160 -270 -232q-174 -71 -356 -23q-180 48 -290 196v-170h-142v370l66 74h326v-140h-178
q73 -125 204 -178q129 -53 266 -15t222 148q84 109 84 251zM696 109l102 -58l1250 835v118l-658 436v-162l496 -332l-1050 -703v502h-140v-636z" />
</svg>