<svg xmlns="http://www.w3.org/2000/svg" xmlns:xlink="http://www.w3.org/1999/xlink" version="1.1" viewBox="-10 0 2058 2048">
   <path fill="currentColor"
d="M1466 1316h-148v296h-289v148h289v288h148v-288h288v-148h-288v-296zM810 176q-32 -23 -69 -27t-74 16q-37 19 -55 50q-20 31 -24 70q-5 40 12 75t55 59q44 30 105 18q58 -12 93.5 -62t23.5 -109t-67 -90zM569 52q68 -47 148 -51q77 -5 148 31q69 34 113 101
q43 66 51 144q7 79 -31.5 148.5t-101.5 109.5q-103 69 -218 43q-117 -27 -183 -125q-67 -99 -43 -214q24 -118 117 -187zM553 660h359q111 0 184 74t73 183v110h-140v-110q0 -46 -35 -78q-34 -31 -82 -31h-359q-47 0 -81 31q-35 32 -35 78v399h147v491q0 8 8 16q7 7 24 7
h117v149h-117q-69 0 -124.5 -51t-47.5 -121v-344q-69 0 -113 -47q-43 -46 -35 -108v-391q0 -110 74 -184q73 -73 183 -73z" />
</svg>