<svg xmlns="http://www.w3.org/2000/svg" xmlns:xlink="http://www.w3.org/1999/xlink" version="1.1" viewBox="-10 0 2068 2048">
   <path fill="currentColor"
d="M700 775l-432 175l-90 -35l-178 -423l120 -49l106 254q56 -133 152 -244q93 -109 222 -180q128 -71 268 -99q140 -29 286 -7q144 20 276 92q130 70 230 176q97 103 154 240q56 131 64 275h-128q-28 -256 -204 -437q-177 -184 -430 -215q-256 -32 -472 105
q-219 137 -304 378l310 -126zM1870 1127l178 431l-120 56l-106 -261q-57 132 -152 244q-94 107 -222 180q-125 69 -272 99q-145 28 -290 3q-147 -27 -272 -95q-128 -71 -225.5 -176t-154.5 -241q-56 -133 -72 -282h136v-63q0 127 42 247q41 118 126 219q84 98 194 162
q113 64 236 85q128 21 252 0q121 -21 236 -85q113 -64 194 -162q82 -101 130 -220l-302 127l-50 -127l430 -176zM890 1022q0 56 38 95q38 38 95 38t96 -39t39 -91q0 -53 -38 -92q-38 -38 -96 -38t-96 38q-38 39 -38 89z" />
</svg>