<svg xmlns="http://www.w3.org/2000/svg" xmlns:xlink="http://www.w3.org/1999/xlink" version="1.1" viewBox="-10 0 2058 2048">
   <path fill="currentColor"
d="M989 2048q-122 -73 -230 -147q-116 -80 -216 -164q-107 -90 -191 -187q-91 -105 -155 -219q-68 -121 -107 -260q-40 -144 -33 -281v-479l72 -71q76 0 143 -8q42 -5 132 -21q67 -12 127 -36q61 -24 116 -63q90 -57 183 -88q144 -39 294 -15q94 7 183 55q53 27 88 48
q66 40 124 63q60 24 127 36q94 17 131 21q69 8 144 8l71 71v479q0 146 -35 282q-35 137 -104 259q-65 116 -159 219q-87 96 -191 187q-98 86 -211 164q-101 70 -231 147h-72zM201 382v408q0 125 32 242q32 116 91 223t144 199q86 93 179 175q91 80 199 148l175 119
q93 -53 183 -119q94 -64 199 -151q88 -73 179 -172q84 -91 139 -199q57 -111 92 -223q36 -115 36 -242v-408h-88q-64 -7 -150 -23q-159 -31 -295 -119l-72 -41q-65 -32 -143 -48q-111 -16 -231 17q-79 27 -139 67q-63 42 -144 76q-75 32 -151 48q-69 15 -155 23h-80z
M1109 1028q72 -32 111 -104t24 -147t-79 -127t-144 -52q-78 0 -139 52q-59 51 -76 127q-16 75 20 147q36 73 115 104l-63 391h294z" />
</svg>