<svg xmlns="http://www.w3.org/2000/svg" xmlns:xlink="http://www.w3.org/1999/xlink" version="1.1" viewBox="-10 0 2068 2048">
   <path fill="currentColor"
d="M512 320h1024q139 0 256 68q120 70 188 188q68 119 68 256v384q0 145 -68 258q-68 115 -188 184q-118 70 -256 70h-1024q-138 0 -256 -70q-120 -69 -188 -184q-68 -113 -68 -252v-390q0 -139 68 -256q69 -118 188 -188q117 -68 256 -68zM512 450q-158 0 -270 112
t-112 270v384q0 164 112 276t270 112h1024q157 0 270 -112q112 -112 112 -276v-384q0 -158 -112 -270t-270 -112h-1024zM703 704q-27 0 -44 20q-17 22 -17 48v190h-191q-26 0 -48 18q-21 16 -21 44t20 48t49 20h191v192q0 26 17 43t44 17q25 0 47 -16q21 -17 21 -44v-192
h192q28 0 44 -20q17 -21 17 -48q0 -28 -17 -45t-44 -17h-192v-190q0 -26 -21 -47t-47 -21zM1666 832q0 54 -38 92t-92 38t-92 -38t-38 -92t38 -92q37 -36 92 -33.5t92 37.5q38 34 38 88zM1536 1216q0 54 -38 92q-37 36 -92 36q-54 0 -92 -38q-37 -37 -34 -88q3 -49 38 -87.5
t88 -38.5q54 0 92 38t38 92v-6z" />
</svg>