<svg xmlns="http://www.w3.org/2000/svg" xmlns:xlink="http://www.w3.org/1999/xlink" version="1.1" viewBox="-10 0 2058 2048">
   <path fill="currentColor"
d="M1357 1q71 -4 136.5 24.5t110 85t51.5 128.5q-1 14 -19.5 16.5t-39.5 -1t-38 1.5q-26 7 -39.5 2t-25.5 -20t-20 -30.5t-23 -30.5t-34 -20q-21 -12 -50 -14t-55.5 6.5t-47.5 25t-25.5 40t8.5 53.5q26 27 66 44t75.5 23.5t81.5 16.5t76 24q40 11 71 39t47 63.5t21.5 77.5
t-5.5 82q-10 45 -36.5 82.5t-62.5 61t-80.5 39t-89.5 17.5t-89 -4q-68 -5 -128 -38.5t-97 -92.5t-33 -127h110q21 -6 36 0t24.5 20.5t19 30t23.5 29t33 17.5q28 15 67.5 15.5t73.5 -11.5t53.5 -41t10.5 -67q-22 -30 -58 -48.5t-69 -25t-77.5 -16t-71.5 -19.5
q-76 -22 -128.5 -80t-46.5 -133q-3 -56 23 -104.5t69 -79.5t96 -48t106 -14zM332 16h231q20 78 60.5 234.5t61.5 234.5q15 -78 45 -234.5t46 -234.5h262v814h-156q-3 -76 -7 -229t-6 -229q-16 76 -47 229t-46 229h-166q-20 -73 -58.5 -219t-57.5 -219v438h-162v-814z
M1031 879q80 -4 175 21q-5 15 -36 46.5t-63.5 69t-41.5 69.5q-95 -11 -179.5 45.5t-119.5 148.5q-16 58 -28.5 170t-15.5 134q-1 44 -19 86t-55 70t-82 26q-61 -124 -68 -269.5t39 -274.5q32 -103 108 -183t177.5 -122t208.5 -37zM1478 887q90 0 154 18q120 25 202.5 121.5
t81.5 217.5h-170q-23 3 -39.5 -9.5t-27 -33.5l-21.5 -43t-30 -38.5t-46 -17.5q-39 -15 -85.5 -17t-89.5 9t-76 41t-42 75q6 18 19.5 55t20.5 59.5t12 55.5t2 62q15 69 -27 67q-28 0 -113 -48q-7 -5 -12 -7q-61 -35 -90 -102t-25 -138.5t33 -134.5q30 -67 92 -112.5
t132 -63.5t145 -16zM471 908q123 0 215 31q-15 28 -70 92t-72 106h-232v657q164 16 236 14q50 8 93.5 -18t69.5 -73q29 -42 41.5 -90.5t17.5 -125t8 -99.5q-2 -83 42.5 -154t119.5 -103q45 80 64 175t12 189t-36 184q-44 136 -162.5 226t-261.5 97q-69 2 -147 -0.5t-173 -8
t-147 -6.5v-1084q63 -2 190.5 -5t191.5 -4zM1465 1123h68q90 154 90 332.5t-84 336.5q-22 14 -55 12t-64 -12t-57 -24q-20 -13 -25.5 -32.5t-2 -36t11 -41.5t9.5 -38q53 -172 1 -302q-21 -35 -23.5 -72t11 -66t45.5 -45.5t75 -11.5zM1654 1386q117 27 177 73
q77 46 109.5 134.5t11 180t-89.5 149.5q-77 66 -182 93t-207.5 18.5t-202.5 -43.5q-102 -34 -165 -130t-45 -200h145q17 -4 28 -5t20.5 5t15 12t11 18t9 22t9 23.5t11.5 24.5q88 104 314 66q37 -3 63 -24t34.5 -51t4.5 -60.5t-26 -56t-58 -34.5q2 -36 6 -107.5t7 -107.5z
M961 1816q12 0 36.5 1t37.5 2q19 18 55 64t71.5 81.5t75.5 53.5q-110 35 -217 28.5t-213 -49.5q9 -10 32.5 -33t36 -36t30 -33t31 -39.5t24.5 -39.5z" />
</svg>