<svg xmlns="http://www.w3.org/2000/svg" xmlns:xlink="http://www.w3.org/1999/xlink" version="1.1" viewBox="-10 0 2068 2048">
   <path fill="currentColor"
d="M1846 1295l150 41q52 -151 52 -315q0 -162 -52 -314l-150 50q42 126 42 264q0 141 -42 274zM1796 632l134 -77q-151 -293 -444 -445l-76 144q253 127 386 378zM1292 204l42 -152q-148 -50 -314.5 -50t-315.5 50l52 152q126 -51 264 -51q139 0 272 51zM630 254l-76 -144
q-294 152 -446 445l144 77q127 -252 378 -378zM0 1026q0 -170 50 -319l152 50q-50 122 -46 264q3 143 46 274l-152 41q-50 -147 -50 -310zM252 1413l-144 75q152 294 446 445l76 -134q-251 -132 -378 -386zM756 1849l-52 150q150 42 316 46q164 5 314 -46l-42 -150
q-133 42 -272 42q-138 0 -264 -42zM1410 1799l76 134q293 -151 444 -445l-134 -75q-133 253 -386 386zM1024 1176q60 0 104 -46q46 -47 46 -109t-46 -108t-109 -46t-109 46t-46 108q0 63 46 109t114 46z" />
</svg>