<svg xmlns="http://www.w3.org/2000/svg" xmlns:xlink="http://www.w3.org/1999/xlink" version="1.1" viewBox="-10 0 2068 2048">
   <path fill="currentColor"
d="M0 1249v-140h756q-16 69 -24 140h-732zM912 812q69 -78 156 -141h-1068v141h912zM819 1694q-38 -68 -63 -149h-756v149h819zM2042 227v148h-2042v-148h2042zM1551 1694q140 0 242 -86q101 -84 125 -219q24 -133 -43 -249q-68 -118 -196 -164t-252.5 0.5t-195.5 163.5h157
v124h-289l-62 -62v-327h125v148q103 -133 264 -176q164 -43 316 24q154 68 238 206q86 140 62 308q-24 169 -140 285q-117 117 -281 144q-162 27 -308 -55q-143 -80 -214 -237l117 -47q46 101 136 160t199 59z" />
</svg>