<svg xmlns="http://www.w3.org/2000/svg" xmlns:xlink="http://www.w3.org/1999/xlink" version="1.1" viewBox="-10 0 2068 2048">
   <path fill="currentColor"
d="M66 66h1777l65 73v750q-61 -53 -137 -80v-605h-1633v1232h678q0 225 138 407h-546v-137h408v-132h-750l-65 -73v-1362zM1195 984q125 -88 269 -95q146 -8 277 54q131 61 215 186q83 123 91 270q7 146 -58 277q-66 130 -186 215q-120 83 -265 91q-148 7 -277 -58
q-134 -68 -212 -186q-81 -122 -91 -266q-11 -146 55 -277q66 -133 182 -211zM1486 1662l328 -430l-110 -88l-283 379l-175 -139l-88 103l234 189z" />
</svg>