<svg xmlns="http://www.w3.org/2000/svg" xmlns:xlink="http://www.w3.org/1999/xlink" version="1.1" viewBox="-10 0 2058 2048">
   <path fill="currentColor"
d="M1845 401q126 149 126 348q0 335 -170 512q-134 127 -371 164q45 74 45 200v341q0 29 -19 48t-44 19q-26 0 -45 -19q-18 -18 -18 -48v-341q7 -59 -11 -108q-17 -45 -56 -92l37 -104q161 -20 260 -67q127 -53 192 -164q82 -135 82 -348q0 -162 -119 -290l-15 -74
q53 -119 8 -252q-126 30 -267 126l-51 15q-305 -81 -609 0l-52 -15q-191 -118 -275 -118q-45 140 8 259l-22 67q-61 61 -93 137q-33 78 -33 152q0 215 81 341q60 111 193 171q95 45 259 67l37 111q-82 74 -74 186v349q7 31 -14 52q-22 22 -49 22q-26 0 -48 -22t-22 -52v-194
q-127 30 -223 0q-83 -21 -148 -81q-34 -27 -96 -111l-8 -8q-33 -39 -63 -66q-25 -21 -48 -30q-16 -8 -26 -30q-11 -24 -4 -44q8 -22 30 -37t45 0q53 8 104 44q18 18 74 82l7 15q73 95 133 126q95 52 253 14v-29q-15 -105 37 -200q-236 -45 -364 -171q-187 -179 -185 -498
q0 -206 126 -355q-37 -190 30 -349l44 -30q32 -16 104 -7q113 20 274 119q305 -73 617 0q151 -97 266 -127q82 -15 112 0l44 37q66 187 14 357z" />
</svg>