<svg xmlns="http://www.w3.org/2000/svg" xmlns:xlink="http://www.w3.org/1999/xlink" version="1.1" viewBox="-10 0 2068 2048">
   <path fill="currentColor"
d="M1978 0h-1908l-70 70v1908l70 70h1908l70 -70v-1908zM1906 1900h-1320v-289h336q30 61 102 105q69 43 148 43q118 0 204 -85q86 -86 86 -208q0 -121 -86 -207t-208 -86t-208 86q-84 85 -84 203h-438v438h-290v-1759h290v344q-64 32 -106 101q-44 70 -44 141q0 125 86 211
t208 86t208 -86t86 -211h296q0 125 86 211t207 86t207 -86t86 -207t-86 -207t-210 -86q-80 0 -146 39q-65 39 -104 110h-376q-38 -70 -106 -110q-66 -39 -144 -39v-297h1320v1759zM1024 1462q0 -64 39 -106t105 -42t109 43t43 109q0 67 -42 106q-44 39 -110 39t-106 -40
q-38 -39 -38 -109zM586 587q65 0 106 38q42 40 42 106t-42 105q-44 39 -110 39t-105 -39t-39 -105t40 -106q38 -38 108 -38zM1462 587q70 0 108 38q40 39 40 106t-38 105q-40 39 -107 39t-106 -39t-39 -105q0 -67 40 -106q38 -38 102 -38z" />
</svg>