<svg xmlns="http://www.w3.org/2000/svg" xmlns:xlink="http://www.w3.org/1999/xlink" version="1.1" viewBox="-10 0 2068 2048">
   <path fill="currentColor"
d="M2047 656q7 173 -70 318q-77 142 -211 238q-133 93 -305 108q0 -75 -23 -148q196 -22 329 -166q131 -144 139 -350q-8 -133 -70 -250q-64 -118 -176 -188q-115 -71 -250 -74q-137 -3 -253 56q-116 57 -191 168q-75 108 -91 242q-72 -24 -148 -24q22 -163 117 -296
q94 -134 238 -212t309 -78q131 0 254 48q121 46 214.5 139.5t140.5 214.5q47 123 47 254zM657 728q-181 0 -332 90q-154 91 -238 242q-86 153 -86 331.5t86 332.5q84 151 238 238q152 86 332 86q178 0 331 -86q152 -87 242 -238q90 -154 90 -333t-90 -331
q-89 -152 -242 -240q-150 -86 -331 -86v-6z" />
</svg>