<svg xmlns="http://www.w3.org/2000/svg" xmlns:xlink="http://www.w3.org/1999/xlink" version="1.1" viewBox="-10 0 2058 2048">
   <path fill="currentColor"
d="M1759 368q0 -102 -98 -188q-99 -87 -269 -133q-173 -47 -368 -47q-194 0 -367 47q-172 47 -270 133t-98 188l8 15h-8v1297l8 55q31 133 238 223t489 90t489 -90t238 -223l8 -55v-1297h-8zM1024 148q166 0 313 40q125 32 199 85t74 94q0 40 -74 90q-76 52 -199 83
q-149 39 -313 39t-312 -39q-125 -32 -199 -82q-75 -51 -75 -91t75 -94q74 -53 199 -85q147 -40 312 -40zM1610 1680l-8 24q-8 40 -81 86t-192 78q-141 39 -305 39q-163 0 -304 -39q-115 -31 -191 -78q-75 -47 -83 -86l-8 -24v-1093q271 156 586 147q315 8 586 -155v1101z
" />
</svg>