<svg xmlns="http://www.w3.org/2000/svg" xmlns:xlink="http://www.w3.org/1999/xlink" version="1.1" viewBox="-10 0 2068 2048">
   <path fill="currentColor"
d="M257.5 1466q-43.5 -74 -128.5 -221t-129 -221q86 -147 257 -442t257 -442h1024q48 82 230.5 396t279.5 486q-76 134 -155.5 273t-197 341t-157.5 272h-1024q-43 -74 -128 -221t-128.5 -221zM1060 1308q42 -5 79 -30.5t56.5 -62t22 -79.5t-23.5 -82q-22 -30 -58.5 -53
t-71 -34.5t-75.5 -31t-67 -41.5q-25 -54 13 -81t96 -21t89 34q21 17 51 -11q29 -27 22 -52q-6 -19 -37 -23q-41 -29 -96 -38.5t-106 0.5t-93 44t-57 86q-18 68 26 123t114 76q58 9 113 54q65 53 37 95q-13 21 -50 35q-28 15 -61.5 8t-59 -22t-55.5 -25.5t-50 -2.5
q-81 55 26 106q36 17 82 28q69 14 134 1zM364 1221q6 -8 9 -29.5t9 -35.5t20 -13q31 1 91 1h91q7 26 22 79t22 79q10 -1 23 -0.5l26 1t25.5 0.5t21.5 -3t13.5 -8.5t1.5 -17t-13 -27.5q-34 -104 -96 -295.5t-78 -242.5h-128q-10 30 -83 252.5t-107 338.5q11 -4 39.5 0.5
t49.5 2t25 -22.5q3 -9 8 -29t8 -30zM414 1053q47 -172 72 -257q2 21 11.5 52.5t20 59t19.5 59t9.5 51.5t-10.5 38q-10 0 -29.5 0.5t-32 0.5t-29 -1t-31.5 -3zM1380 1156q2 -149 -12 -322q63 212 102 310q34 11 55 -2t25 -48q30 -83 86 -269q-6 56 -9 122t-3.5 114
t-1.5 124.5t-2 116.5h100v-593q-18 2 -40 1t-42 -3t-35 7.5t-17 32.5q-52 165 -84 274q-21 -59 -53.5 -171t-42.5 -141h-120v593q10 -1 31 0.5t37.5 1t25.5 -6.5v-141z" />
</svg>