<svg xmlns="http://www.w3.org/2000/svg" xmlns:xlink="http://www.w3.org/1999/xlink" version="1.1" viewBox="-10 0 2064 2048">
   <path fill="currentColor"
d="M684 171v-171h-18q-81 0 -158 31q-76 31 -132 91q-54 58 -80 132q-28 74 -36 144q-9 73 0 145v145q0 52 -20 101q-36 90 -126 135q-48 19 -100 19h-10v162h10q52 0 100 19v9q44 18 72 45v9q36 27 54 72q20 47 20 101v145q-9 73 0 145v9q8 63 36 135q27 74 84 132
q60 60 132 87q74 28 154 35h18v-171h-18q-51 0 -98 -19q-46 -18 -78 -54q-34 -39 -50 -81q-18 -45 -18 -100v-227q0 -55 -10 -109q-9 -56 -26 -100q-46 -101 -126 -163q81 -65 126 -163q17 -44 26 -100q10 -54 10 -109v-227q0 -81 40 -140q41 -58 106 -95q47 -19 98 -19h18z
M1364 1877v163h8q81 0 154 -27t134 -87q57 -58 84 -132q28 -65 36 -144q9 -73 0 -145v-145q0 -52 20 -101q36 -90 126 -135q48 -19 100 -19h18v-162h-18q-52 0 -100 -19v-9q-44 -18 -72 -45v-9q-36 -27 -54 -72q-20 -47 -20 -101v-145q9 -73 0 -145v-9q-8 -62 -36 -135
q-26 -74 -80 -132q-56 -60 -132 -91q-74 -31 -160 -23h-8v163h8q53 0 100 19q46 18 78 54q32 37 50 81q18 48 18 100v227q0 55 10 109q9 56 26 100q45 98 126 163q-80 62 -126 163q-17 44 -26 100q-10 54 -10 109v227q0 109 -72 181q-28 37 -72 54q-50 19 -102 19h-8z" />
</svg>