<svg xmlns="http://www.w3.org/2000/svg" xmlns:xlink="http://www.w3.org/1999/xlink" version="1.1" viewBox="-10 0 2068 2048">
   <path fill="currentColor"
d="M1798 1026q0 267 -170 474q-170 205 -430 264q-259 58 -496 -63q-237 -122 -344 -371l-232 98q89 215 268 362q178 147 402 206q225 58 452 14q229 -46 410 -188q185 -146 286 -354q104 -212 104 -442q0 -322 -188 -586q-187 -264 -492 -367q-302 -104 -611.5 -8.5
t-504.5 344.5v-303h-252v670l126 124h582v-250h-314q127 -225 362 -322q238 -99 482 -31q247 67 404 269q156 201 156 460z" />
</svg>