<svg xmlns="http://www.w3.org/2000/svg" xmlns:xlink="http://www.w3.org/1999/xlink" version="1.1" viewBox="-10 0 2058 2048">
   <path fill="currentColor"
d="M732 1999q0 20 -14.5 34.5t-34.5 14.5h-488q-31 0 -43.5 -24.5t0 -49t43.5 -24.5h488q20 0 34.5 14.5t14.5 34.5zM683 1756q31 0 43.5 24t0 48.5t-43.5 24.5h-98q-31 0 -43.5 -24.5t0 -48.5t43.5 -24h98zM195 1853q-31 0 -43.5 -24.5t0 -48.5t43.5 -24h196q31 0 43.5 24
t0 48.5t-43.5 24.5h-196zM683 1560q31 0 43.5 24.5t0 49t-43.5 24.5h-488q-31 0 -43.5 -24.5t0 -49t43.5 -24.5h488zM1365 1365q31 0 43.5 24.5t0 49t-43.5 24.5h-876q-31 0 -43.5 -24.5t0 -49t43.5 -24.5h876zM195 1463q-31 0 -43.5 -24.5t0 -49t43.5 -24.5h98
q31 0 43.5 24.5t0 49t-43.5 24.5h-98zM1658 1171q31 0 43.5 24t0 48t-43.5 24h-293q-31 0 -43.5 -24t0 -48t43.5 -24h293zM781 1267q-31 0 -43.5 -24t0 -48t43.5 -24h390q31 0 43.5 24t0 48t-43.5 24h-390zM195 1267q-31 0 -43.5 -24t0 -48t43.5 -24h390q31 0 43.5 24t0 48
t-43.5 24h-390zM1755 975q31 0 43.5 24.5t0 49t-43.5 24.5h-780q-31 0 -43.5 -24.5t0 -49t43.5 -24.5h780zM830 1024q0 20 -14.5 34.5t-34.5 14.5h-292q-31 0 -43.5 -24.5t0 -49t43.5 -24.5h292q20 0 34.5 14.5t14.5 34.5zM195 1073q-31 0 -43.5 -24.5t0 -49t43.5 -24.5h98
q31 0 43.5 24.5t0 49t-43.5 24.5h-98zM1853 781q31 0 43.5 24t0 48t-43.5 24h-488q-31 0 -43.5 -24t0 -48t43.5 -24h488zM195 877q-31 0 -43.5 -24t0 -48t43.5 -24h488q31 0 43.5 24t0 48t-43.5 24h-488zM1316 634q0 -20 14.5 -34.5t34.5 -14.5h488q31 0 43.5 24.5t0 49
t-43.5 24.5h-488q-20 0 -34.5 -14.5t-14.5 -34.5zM585 585h98q31 0 43.5 24.5t0 49t-43.5 24.5h-98q-31 0 -43.5 -24.5t0 -49t43.5 -24.5zM195 683q-31 0 -43.5 -24.5t0 -49t43.5 -24.5h196q31 0 43.5 24.5t0 49t-43.5 24.5h-196zM1609 439h1q0 -20 14 -34.5t34 -14.5h97
q31 0 43.5 24.5t0 49t-43.5 24.5h-97q-20 0 -34.5 -14.5t-14.5 -34.5zM1512 439q0 20 -14.5 34.5t-34.5 14.5h-390q-31 0 -43.5 -24.5t0 -49t43.5 -24.5h390q20 0 34.5 14.5t14.5 34.5zM195 488q-31 0 -43.5 -24.5t0 -49t43.5 -24.5h683q31 0 43.5 24.5t0 49t-43.5 24.5
h-683zM634 243q0 -20 14.5 -34t34.5 -14h975q31 0 43.5 24t0 48.5t-43.5 24.5h-975q-20 0 -34.5 -14.5t-14.5 -34.5zM195 292q-31 0 -43.5 -24t0 -48.5t43.5 -24.5h294q31 0 43.5 24t0 48.5t-43.5 24.5h-294zM195 98q-31 0 -43.5 -24.5t0 -49t43.5 -24.5h1170
q31 0 43.5 24.5t0 49t-43.5 24.5h-1170z" />
</svg>