<svg xmlns="http://www.w3.org/2000/svg" xmlns:xlink="http://www.w3.org/1999/xlink" version="1.1" viewBox="-10 0 2058 2048">
   <path fill="currentColor"
d="M1573 1897q-279 160 -613 150q-184 10 -361 -54q-175 -64 -312 -199q-135 -134 -200 -307q-63 -170 -53 -366q0 -216 75 -426t231 -366q155 -155 361 -242t419 -87q388 0 625 206q270 225 270 602q0 322 -168 534q-165 209 -414 209q-226 0 -226 -194q-64 95 -156 145
q-90 49 -199 49q-152 0 -243 -101q-91 -102 -91 -285q0 -184 70 -339q72 -158 194 -254q124 -97 264 -97q97 -11 177 42.5t113 140.5l43 -162h183l-161 647q-32 142 -16 194q16 53 81 53q151 0 264 -167t113 -404q0 -311 -200 -484q-199 -172 -534 -172q-259 0 -457 129
t-311 350t-113 479q-10 161 37 301q48 139 156 248q109 108 253 162q145 53 297 43q302 10 571 -130zM723 1143q0 247 183 247q119 0 204 -97q88 -100 129 -280q96 -388 -172 -388q-152 0 -248 162t-96 356z" />
</svg>