<svg xmlns="http://www.w3.org/2000/svg" xmlns:xlink="http://www.w3.org/1999/xlink" version="1.1" viewBox="-10 0 2058 2048">
   <path fill="currentColor"
d="M222 0h1019v47q0 87 -34 159q-34 71 -113 128v421q74 34 121 74q49 42 81 89q-69 22 -132 63q-68 -77 -163 -109l-47 -15v-600l39 -31q23 -8 39 -24l30 -39q16 -22 24 -47h-708q12 24 23 47q33 41 69 63l47 31v600l-53 15q-88 32 -149 101q-31 31 -58 90q-28 60 -35 105
h732q-41 58 -71 117h-77v467l-70 148l-78 -148v-467h-584v-70q0 -81 23 -144q27 -75 55 -129q78 -124 218 -187v-421q-72 -58 -109 -128q-39 -74 -39 -159v-47zM1312 1230q52 -30 109 -43q54 -12 112 -15q59 -3 121 19q110 23 191 105q82 83 113 199q16 54 16 113
q0 60 -16 121q-32 110 -113 191q-80 80 -191 112q-61 16 -121 16q-61 0 -113 -16q-109 -31 -194 -112t-117 -191q-16 -63 -12 -121q4 -56 12 -113q39 -125 132 -210q33 -33 71 -55z" />
</svg>