<svg xmlns="http://www.w3.org/2000/svg" xmlns:xlink="http://www.w3.org/1999/xlink" version="1.1" viewBox="-10 0 2068 2048">
   <path fill="currentColor"
d="M1964 474h-252q16 -70 16 -193q-32 -91 -58 -135q-51 -75 -116 -100l-42 -18q-68 -24 -106 -24q-42 0 -72 4q-35 5 -58 20q-143 42 -252 211q-110 -169 -252 -211q-100 -24 -142 -24q-75 0 -142 42q-60 24 -110 100q-25 25 -60 117l-8 26q0 117 18 185h-252l-76 75v1419
l76 76h1888l84 -76v-1419zM940 1893h-782v-1259h782v1259zM940 474h-470v-34q-18 -43 -18 -126l10 -25q15 -40 42 -50q16 -33 76 -68q16 -17 80 -17q62 0 96 17q74 33 126 101q32 42 42 68q17 44 16 83v51zM1100 423q0 -40 16 -83q6 -8 52 -68q42 -69 124 -101
q25 -17 88 -17q60 0 98 18q34 16 76 67q8 8 16 33l16 42q0 81 -16 126v16l-16 18h-454v-51zM1888 1893h-788v-1259h788v1259z" />
</svg>