<svg xmlns="http://www.w3.org/2000/svg" xmlns:xlink="http://www.w3.org/1999/xlink" version="1.1" viewBox="-10 0 2068 2048">
   <path fill="currentColor"
d="M1884 615q23 -67 30 -140q8 -143 -46 -282h-32q-33 -8 -78 8q-59 7 -132 47q-96 40 -204 109q-140 -39 -398 -39t-398 39q-197 -125 -338 -156q-67 -16 -108 -8q-54 139 -46 282q6 73 30 140q-164 180 -164 430q0 322 134 509q116 163 358 241q203 63 528 63
q326 0 536 -63q242 -78 358 -241q134 -187 134 -509q0 -250 -164 -430zM1024 1733q-258 0 -384 -24q-189 -32 -280 -116q-102 -95 -102 -290q0 -150 132 -266q64 -63 180 -78q68 0 252 8q142 8 202 8t210 -8q175 -8 244 -8q115 16 178 78q134 116 134 266q0 188 -102 290
q-94 84 -280 116q-126 24 -384 24zM704 1092q-64 0 -110 66q-46 65 -46 161q0 95 46 160q47 67 109.5 67t110.5 -67q46 -67 46 -160q0 -94 -46 -161q-47 -66 -110 -66zM1344 1092q-63 0 -110 66q-46 67 -46 161q0 93 46 160q48 67 110 67t110 -67q46 -67 46 -160
q0 -94 -46 -161q-47 -66 -110 -66z" />
</svg>