<svg xmlns="http://www.w3.org/2000/svg" xmlns:xlink="http://www.w3.org/1999/xlink" version="1.1" viewBox="-10 0 2068 2048">
   <path fill="currentColor"
d="M1024 1173q62 0 105 -43t43 -106t-43 -106t-106 -43t-105 43q-42 42 -42 106t42 106q42 43 106 43zM1610 1024q0 156 -78 293q-79 137 -216 215q-138 79 -292.5 79t-293.5 -79q-135 -77 -214 -215q-78 -138 -78 -293t78 -293q79 -138 214 -215q137 -78 293.5 -78
t292.5 78q137 78 216 215q78 137 78 293zM1024 1462q180 0 309 -129t129 -309t-130 -309q-128 -128 -308 -128t-308 128q-130 129 -130 309t129 309t309 129zM2048 1024q0 281 -138 516q-136 234 -370 371q-235 137 -516 137t-516 -137q-234 -137 -370 -371
q-138 -235 -138 -516t138 -516q136 -234 370 -371q235 -137 516 -137t516 137q234 137 370 371q138 235 138 516zM1024 1900q242 0 442 -117q197 -116 320 -317q120 -199 120 -442t-121 -442t-319.5 -320t-442 -121t-441.5 121q-200 122 -316 320q-118 200 -118 442t118 442
q117 201 316 317q199 117 442 117z" />
</svg>