<svg xmlns="http://www.w3.org/2000/svg" xmlns:xlink="http://www.w3.org/1999/xlink" version="1.1" viewBox="-10 0 2058 2048">
   <path fill="currentColor"
d="M1187 2048l-78 -109q71 -86 59 -196q-12 -108 -98 -179q-140 -115 -171 -290q-111 149 -125 282q-23 111 23 211q22 62 102 172l-86 109q-158 -32 -278.5 -125.5t-187.5 -237.5q-67 -142 -59 -301v-55q7 -68 32 -141q32 -105 101 -203q78 -118 204 -227l62 -63
q71 -79 126 -163q77 -116 100 -211q31 -134 -14 -227l101 -94q243 172 348 450t35 566q46 -56 78 -117l132 -16v8q77 123 126 274q85 289 0 501q-70 156 -215 258q-145 101 -317 124zM899 1032l124 55q-8 103 28 199q36 100 105 168q102 71 141 179q39 111 8 227
q93 -31 164 -97q70 -66 110 -152q38 -131 23 -270q-16 -138 -78 -262q-45 68 -122 105q-76 36 -152 20l-47 -102q94 -211 58 -442t-191 -402q-17 174 -149 376q-73 105 -187 218l-15 15q-182 158 -251 337q-31 93 -31 172q-8 141 55 262q63 122 180 199q-78 -180 -39 -343
q46 -218 266 -462z" />
</svg>