<svg xmlns="http://www.w3.org/2000/svg" xmlns:xlink="http://www.w3.org/1999/xlink" version="1.1" viewBox="-10 0 2068 2048">
   <path fill="currentColor"
d="M689 1475q0 -27 24 -45q23 -17 52 -3l34 27q7 7 17 7t27 -17l38 -38l75 -109l41 -89l-48 -184q-8 -20 -24 -38q-14 -16 -37 -27q-20 -10 -45 -10q-26 0 -44 7v-28l184 -34q42 42 61 96l35 109l34 -55q21 -43 51 -72q26 -25 62 -50q30 -21 61 -24t51 10q21 14 21 41
q0 55 -55 55q-21 0 -38 -10q-19 -11 -38 -11t-40 21q-25 25 -41 47q-32 38 -62 96l55 232q11 40 14 48l13 20q7 7 21 7q13 0 20 -7q34 -27 55 -61l20 -27l21 13q-9 24 -28 48q-24 32 -44 51q-24 24 -51 45q-26 20 -47 20t-38 -14q-19 -15 -28 -34q-8 -16 -17 -41l-27 -136
q-11 -40 -14 -48l-61 102l-41 62q-18 32 -48 55q-21 17 -51 37q-25 17 -51 17t-48 -17q-21 -17 -21 -44zM1475 1536q50 -70 79 -150q30 -82 30 -171q0 -91 -31 -171q-31 -81 -78 -150h88q123 142 123 321q0 97 -30 175q-29 76 -93 146h-88zM485 1536q-61 -61 -92 -146
q-31 -84 -31 -175q0 -177 123 -321h88q-54 66 -82 154q-27 86 -27 167q0 185 109 321h-88zM1987 130h-1926l-61 61v1666l61 61h1926l61 -61v-1666zM1918 1789h-1788v-1147h1788v1147zM1918 512h-1788v-259h1788v259z" />
</svg>