<svg xmlns="http://www.w3.org/2000/svg" xmlns:xlink="http://www.w3.org/1999/xlink" version="1.1" viewBox="-10 0 2068 2048">
   <path fill="currentColor"
d="M984 292h994l70 80v1460l-70 72h-844q55 -64 92 -142h674l6 -1032h-930v8q-65 -49 -132 -78l56 -48l46 -22h954l6 -148h-952l-54 -24l-126 -126h-626v384q-78 39 -148 94v-548l70 -78h736l54 24zM734 1396q0 92 -66 156q-66 62 -156 62t-156 -62q-68 -64 -68 -156
q0 -94 68 -158q64 -62 155 -62t153 62q64 64 64 158h6zM1024 1396q0 141 -70 258q-72 118 -189 184t-253 66q-137 0 -258 -66q-120 -66 -188 -184q-66 -118 -66 -258q0 -143 66 -260q66 -116 188 -186q122 -72 258 -72t254 72q118 71 188 186q70 117 70 260zM508 1762
q157 0 262 -108q106 -111 106 -262q0 -154 -106 -260q-106 -104 -258 -104t-258 104t-106 260q0 152 106 262q104 108 254 108z" />
</svg>