<svg xmlns="http://www.w3.org/2000/svg" xmlns:xlink="http://www.w3.org/1999/xlink" version="1.1" viewBox="-10 0 2068 2048">
   <path fill="currentColor"
d="M70 70h1908l70 78v954h-142v-446h-1758v1032h1024v142h-1102l-70 -72v-1610zM148 516h1758v-298h-1758v298zM876 1540v-164q-38 -7 -70 -32l-134 80l-78 -134l140 -78q-7 -40 0 -78l-140 -78l78 -126l134 78q39 -31 70 -38v-166h148v166q38 7 70 38l140 -78l72 126
l-142 78q8 38 0 78l142 78l-72 134l-140 -86q-32 31 -70 38v164h-148zM844 1172q0 48 32 78q32 32 74 32t77 -31.5t35 -78t-34 -78.5q-34 -30 -78 -30q-43 0 -78 30q-35 31 -28 78zM1626 1978v-156q-40 -18 -70 -40l-142 78l-70 -124l134 -86q-8 -39 0 -80l-134 -76l70 -126
l142 78q32 -23 70 -38v-164h140v164q38 15 70 38l142 -78l70 126l-134 76q8 40 0 80l134 86l-70 124l-142 -78q-32 24 -70 40v156h-140zM1588 1610q0 47 30 82q31 36 78 36q48 0 78 -36q32 -35 32 -78q0 -44 -32 -78q-31 -34 -78 -34q-46 0 -78 34q-30 34 -30 74z" />
</svg>