<svg xmlns="http://www.w3.org/2000/svg" xmlns:xlink="http://www.w3.org/1999/xlink" version="1.1" viewBox="-10 0 2058 2048">
   <path fill="currentColor"
d="M1895 317q0 -126 -84 -214q-85 -89 -209 -101q-128 -12 -223 67q-97 80 -113 197q-17 119 50 223q68 106 185 131v167q0 51 -43 76l-437 218l-437 -218q-41 -24 -41 -76v-167q116 -24 185 -127q66 -101 49.5 -219t-104.5 -193q-90 -76 -206.5 -76t-205.5 76
q-88 74 -104 193q-17 119 50 219q68 102 184 127v167q0 68 34 126q35 60 93 85l428 226v202q-117 32 -185 130q-67 95 -50 215q16 118 105 198q88 79 210 79t210 -79q87 -79 101 -198q13 -118 -55 -215q-69 -97 -176 -130v-202l420 -218q67 -33 101 -92q33 -59 33 -127v-167
q100 -24 164 -109q62 -83 71 -194zM316 317q0 -68 46 -114t113 -46q68 0 110 46t42 113.5t-42 114.5q-42 46 -110 46q-67 0 -113 -46t-46 -114zM1181 1738q0 67 -46 109q-47 42 -113.5 42t-112.5 -42t-46 -110q0 -67 46 -113t113 -46t113 46t46 114zM1576 477
q-68 0 -114 -46t-46 -114t46 -114t114 -46t114 46t46 114t-46 114t-114 46z" />
</svg>