<svg xmlns="http://www.w3.org/2000/svg" xmlns:xlink="http://www.w3.org/1999/xlink" version="1.1" viewBox="-10 0 2058 2048">
   <path fill="currentColor"
d="M942 1639l-175 -175l88 -95l291 292v95l-291 291l-95 -102l175 -174h-255q-138 8 -241 -95q-101 -101 -101 -241v-757q-103 -21 -175 -95q-73 -75 -91 -175q-18 -103 22 -197q41 -95 124 -153t193 -58q66 0 130 21q132 59 190 190q22 68 22 131q0 124 -77 219t-192 117
v750q0 88 58 149q59 62 145 62h255zM301 510q59 36 131 29q73 -8 124.5 -59t58.5 -124q8 -74 -29 -127q-38 -55 -95 -80q-58 -26 -117 -15q-57 10 -105 58q-47 47 -58 106q-11 60 14 117q26 60 76 95zM1707 1369q103 21 175 95q88 87 98 208q11 120 -54 222q-58 87 -154 128
q-94 40 -196 18q-104 -23 -175 -95q-71 -73 -94 -175q-22 -102 18 -196q41 -96 127 -154q58 -36 124 -51v-758q0 -86 -62 -145q-61 -58 -142 -58h-255l175 175l-102 95l-291 -292v-95l291 -291l102 94l-175 175h255q139 0 241 99q102 98 94 243v758zM1664 1908q50 -7 94 -36
q43 -28 69 -80q25 -50 22 -102q-3 -49 -37 -102q-33 -51 -90 -73t-120 -11q-61 10 -105.5 54.5t-55 106t14.5 120.5q25 58 84 94q59 37 124 29z" />
</svg>