<svg xmlns="http://www.w3.org/2000/svg" xmlns:xlink="http://www.w3.org/1999/xlink" version="1.1" viewBox="-10 0 2058 2048">
   <path fill="currentColor"
d="M1466 1172q-179 0 -308 129t-129 309q0 179 129 308t308 129q180 0 309 -129t129 -308q0 -180 -129 -309t-309 -129zM1662 1899l-196 -141l-187 141l71 -220l-173 -124h212l77 -242l78 242h219l-180 124zM1342 1039q-140 22 -254 117q-114 94 -169 235h-273v320
q0 17 12 32t35 15h203q22 76 62 141h-265q-78 8 -137 -51t-59 -137v-234q0 -101 -39 -196q-39 -94 -109 -164q-93 -84 -149 -207q-55 -120 -55 -255q0 -180 94 -328q39 -79 102 -137q59 -55 137 -101q69 -41 156 -66q83 -24 176 -24q179 0 333 86q152 85 242 238t90 332
q0 142 -55 251q-31 69 -78 133z" />
</svg>