<svg xmlns="http://www.w3.org/2000/svg" xmlns:xlink="http://www.w3.org/1999/xlink" version="1.1" viewBox="-10 0 2058 2048">
   <path fill="currentColor"
d="M1952 907l-243 -608h153v-153h-760v-146h-154v146h-761v153h154l-243 608h-57v154h17q41 115 137 186q97 72 219 72q121 0 223 -72q100 -71 141 -186h16v-154h-64l-252 -608h470v1215h-300l-64 33l-300 379l57 122h1368l55 -122l-298 -379l-65 -33h-299v-1215h469
l-251 608h-65v154h16q41 114 138 186t223 72q124 0 222 -72t138 -186h15v-154h-55zM527 1141q-50 25 -109 25q-62 0 -109 -28q-49 -29 -82 -77h381q-31 47 -81 80zM567 907h-307l153 -365zM1369 1668l186 226h-1060l186 -226h688zM1635 551l154 364h-307zM1741 1141
q-50 33 -109 33q-62 0 -109 -32q-50 -34 -82 -81h380q-32 48 -80 80z" />
</svg>