<svg xmlns="http://www.w3.org/2000/svg" xmlns:xlink="http://www.w3.org/1999/xlink" version="1.1" viewBox="-10 0 2068 2048">
   <path fill="currentColor"
d="M664 206q-8 -8 -16 -7q-16 -68 -75 -117q-58 -48 -136 -48v196q-172 72 -288.5 207.5t-148.5 315.5v63q40 79 172 125q61 31 140 47h8q-124 17 -203 70q-61 46 -94 110q-23 48 -23 102v47q0 56 43 94q44 39 101.5 39t112.5 -24h305q-38 70 -55 149h-47q-133 17 -223 121
q-89 104 -89 246q-7 33 8 51q17 19 46 19h978q127 8 234 -35q111 -43 195 -133q87 -91 122 -203q35 -110 27 -238q-7 -170 -110 -305l-16 -24q-53 -61 -74 -106q-19 -42 -7 -78q12 -34 36 -51l14 -8h24q22 0 47 8q44 30 101 47q79 8 149.5 -26.5t109.5 -106.5
q17 -46 15 -102q0 -130 -101 -304q-95 -143 -227 -227q-188 -102 -391 -62q-140 23 -242 133q-77 85 -118 195q-39 -55 -94 -109v-24q0 -86 -58 -148.5t-152 -70.5v172zM1446 1481q17 117 0 187q-22 110 -133 172q-63 23 -133 24h-860q0 -54 39 -98q39 -43 101 -43h188v-79
q-7 -102 62 -179q71 -78 180 -86l-93 -133q-64 23 -86 39h-470q-21 0 -39 8q-38 17 -58 4q-19 -11 -4 -55q15 -41 55 -74q39 -31 93 -31h149q32 0 51 -19q20 -19 27 -44l47 -188q-117 17 -226 -19q-108 -35 -188 -114q32 -164 160 -273q129 -109 293 -117h16q62 0 117 23
q77 39 203 204q62 84 109 163l8 8h24v-8q-7 -55 0 -145q8 -89 15 -136q33 -96 105 -168q75 -73 185 -90q149 -31 273 39q104 64 169 168q67 106 81 199v17q0 54 -20 74q-19 20 -46 27q-27 8 -59 0q-29 -7 -62 -24q-78 -46 -165 -23q-54 17 -89 55q-34 39 -51 93
q-22 87 4 176q27 88 90 153l16 23q77 93 81 211q5 116 -43 220q-7 -103 -62 -196zM476 551q-30 0 -54 19q-24 20 -24 50q0 31 24 55t51 20q25 -2 51 -24q23 -18 23 -51q0 -31 -23 -50t-56 -19h8z" />
</svg>