<svg xmlns="http://www.w3.org/2000/svg" xmlns:xlink="http://www.w3.org/1999/xlink" version="1.1" viewBox="-10 0 2068 2048">
   <path fill="currentColor"
d="M1258 180q-116 -39 -234 -39q-116 0 -234 39q-110 23 -212 86q-196 117 -312 313q-61 98 -94 215q-31 112 -28 234q3 116 28 231q63 218 226 390q86 78 184 137t212 90q112 31 234 28q115 -3 230 -31q107 -27 212 -91q195 -116 312 -312q63 -103 86 -211q38 -117 36 -238
q-3 -117 -36 -232q-23 -108 -86 -210q-55 -93 -142 -172q-79 -87 -170 -141q-104 -64 -212 -86zM1906 1541q-132 235 -366 366q-115 70 -246 106q-125 35 -270 35q-139 0 -270 -35q-127 -34 -246 -101q-117 -66 -212 -161q-94 -94 -160 -211q-66 -119 -100 -246
q-36 -131 -36 -270t36 -270q32 -123 106 -246q133 -236 366 -367q112 -68 246 -105q128 -36 270 -36t274 31q256 78 448.5 270t269.5 449q32 131 32 274q0 141 -36 270q-38 135 -106 247z" />
</svg>