<svg xmlns="http://www.w3.org/2000/svg" xmlns:xlink="http://www.w3.org/1999/xlink" version="1.1" viewBox="-10 0 2058 2048">
   <path fill="currentColor"
d="M1110 7h-48h-14l96 -7zM1636 983q20 -57 20 -96l-14 35q14 -58 14 -164v-69h-8q-7 -130 -98 -259q-94 -131 -202 -177q-88 -40 -208 -48q-118 -7 -180 20q6 -7 28 -10q14 -2 15 -6q0 -2 -3 -4q-55 9 -74 13q-27 6 -48 21q-41 27 -82 41q-8 7 0 7l40 -7l-20 14h-34
q-40 9 -62 17q-27 11 -62 51q0 8 14 0l14 -7l-14 20q-55 -7 -156 96q-90 84 -124 143h22q-12 30 -42 82q-34 61 -34 89l-6 82q-14 120 -14 171q0 88 26 123l-6 47l20 48h-6q13 60 28 75q14 14 29.5 17t34.5 21q16 17 44 78q-27 -8 -40 -34q0 14 16 45q6 11 19 32.5t19 31.5
l-14 14q14 20 34 34l8 7q-16 -8 -16 3q1 7 8 24q14 20 54 75l22 28l14 -14q-8 34 46 96h36q8 21 34 44q26 24 46 24l-20 27q35 8 48 21h8q20 21 60 34l-20 -28l40 35q36 42 80 58q51 19 92 24q45 6 82 20h-28q-141 -8 -184 -20q-193 -56 -362 -208q-170 -152 -266 -372
q-96 -218 -82 -444q-8 -40 0 -123q0 -103 -6 -116v-14q47 -147 94 -246v-7q15 14 34 -20l22 -34q19 -48 26 -75h14q9 -29 42 -69l74 -75q45 -38 62 -54v20q51 -43 130 -89q32 -13 136 -61l54 -21q-6 7 0 7l104 -13l-48 27q34 -7 60 0h62l-34 7l-14 7q33 7 68 -7q40 -7 82 7
l-6 -21l74 27q64 18 138 55q14 0 26 -7q26 -7 62 7v7q8 20 62 48q6 0 -28 -34q104 56 192 157q88 102 122 218q-19 -27 -20 -27v27q7 34 0 34q27 78 40 143v-6q-39 -134 -82 -198q0 15 -20 13q-13 -8 -16 4q-4 11 10 44q7 14 14 7v-7l12 27q6 10 14 55l8 34q-7 0 -14 -13
q-12 -14 -14 -14q6 25 18 47q10 20 10 28q-8 0 -8 20q0 34 8 44q7 11 12 4h8l-14 28q-19 62 -14 109l-20 -55v48q7 34 -6 75q6 -32 6 -71q0 -30 -14 -11q8 48 -26 116q-27 54 -28 75l-20 -27q-28 48 -24 65q2 16 -18 44q8 -13 8 -20.5t6 -20.5q-8 0 -42 34l-46 48
q-112 90 -240 106q-130 17 -266 -31q0 -6 -14 -20q-123 -97 -164 -171q-60 -101 -40 -259q13 -8 26 -48q20 -74 56 -96q26 -48 88 -88q62 -41 136 -44q78 -3 138 30q60 34 94 82q-60 -54 -150 -68q-89 -14 -170 24q-82 38 -130 122q-48 86 -40 181l6 -7q8 0 6 -13
q0 117 72 208t178 129t202 -10v7q36 -8 54 -20l62 -55l-8 14q-16 17 -6 16h4q17 -3 112 -91l20 -21q8 -13 8 -27q-8 -13 6 -34l28 -21zM1048 1290zM1048 1290q0 6 20 20q34 23 42 28q74 27 198 21q-63 28 -154 7q-89 -20 -174 -76q-83 -54 -124 -123q8 0 42 34q56 69 82 76
q-27 -19 -68 -76q63 70 136 103v-14zM1068 27h-14q41 0 48 3q5 3 -6 4zM1438 860q0 -41 -8 -41q-6 0 -14 28l14 20q0 5 6 -4q0 -1 2 -3zM1410 949q-14 48 -42 89q0 -7 -12 -10q-14 -3 -10 -18q2 -12 30 -47q0 14 -14 27q-14 28 -14 30q0 4 28 -10l6 -6q20 -29 28 -55z
M1232 1106q-40 -9 -54 -14q-20 -7 6 -13q48 7 82 0zM1088 34l-6 7zM816 1126l-6 28l20 27q28 43 48 61zM844 1085q14 28 26 41l8 35l-8 -14q-18 -39 -26 -62zM1798 922l-6 13q-13 100 -54 191q47 -97 60 -204zM256 437zM256 444h14q6 0 6 4q0 5 -6 23l-28 21v-7
q14 -22 14 -41zM216 608q0 26 -14 54v-13q0 -26 20 -55z" />
</svg>