<svg xmlns="http://www.w3.org/2000/svg" xmlns:xlink="http://www.w3.org/1999/xlink" version="1.1" viewBox="-10 0 2068 2048">
   <path fill="currentColor"
d="M70 70h1774l64 64v754q-64 -50 -132 -84v-602h-1636v1232h678q0 224 140 404h-544v-132h404v-140h-748l-70 -62v-1370zM1504 888q-147 0 -274 74t-200 198q-72 126 -72 273.5t72 272.5q74 126 200 200q125 72 272.5 72t273.5 -72q125 -74 198 -200q74 -125 74 -272.5
t-74 -273.5q-73 -125 -198 -198q-127 -74 -272 -74zM1504 1838q-112 0 -207.5 -52.5t-150.5 -145.5q-56 -96 -56 -206q0 -112 56 -208q56 -94 150 -150q94 -54 206.5 -54t205.5 54q95 56 148 150q52 94 52 208q0 112 -52 206q-52 93 -147.5 145.5t-204.5 52.5zM1726 1566
l-182 -188l182 -190l62 64l-132 126l132 132zM1264 1392l126 124l-126 134l56 56l190 -190l-190 -188z" />
</svg>