<svg xmlns="http://www.w3.org/2000/svg" xmlns:xlink="http://www.w3.org/1999/xlink" version="1.1" viewBox="-10 0 2058 2048">
   <path fill="currentColor"
d="M1742 1057q-88 -89 -208 -99q-120 -11 -222 55q-89 60 -132 153q-5 22 -13 58q-219 -21 -372 -174q-154 -154 -175 -372q30 0 58 -15q94 -43 153 -128q58 -83 58 -185q0 -72 -29 -139q-50 -131 -182 -182q-65 -29 -139 -29q-103 0 -185 58q-83 60 -124 153
q-39 92 -21 197q19 103 90 175q73 72 175 95v691q-63 15 -124 52q-78 58 -120 157q-39 95 -21 196q18 97 90 171q71 72 175 95q103 23 201 -18q99 -41 152 -124q55 -86 55 -193q8 -66 -25 -139q-33 -74 -98 -127q-67 -55 -146 -70v-327q111 154 269 234q139 72 285 80
q28 130 134 207t237 66t218 -110q88 -100 88 -233q0 -135 -102 -229zM620 1516q61 29 95 83q37 56 29 128q-7 73 -59 124q-50 50 -123 58q-71 7 -128 -29q-53 -35 -80 -95q-25 -58 -15 -116q11 -57 59 -106q48 -48 106 -58q57 -10 116 11zM539 547q-56 0 -109 -37
q-50 -36 -76 -91q-25 -56 -15 -117q11 -62 59 -106q49 -44 106 -54q59 -11 120 15q63 26 98 87q37 63 22 135q-15 73 -70 120q-55 48 -135 48zM1647 1443q-35 36 -88 51q-50 15 -102 4q-48 -10 -90 -44q-38 -32 -62 -84q-22 -52 -8 -113q16 -62 58 -105q45 -45 106 -55
q66 -11 113 10q53 23 84 62q34 42 44 88q11 49 -4 99q-15 51 -51 87z" />
</svg>