<svg xmlns="http://www.w3.org/2000/svg" xmlns:xlink="http://www.w3.org/1999/xlink" version="1.1" viewBox="-10 0 2068 2048">
   <path fill="currentColor"
d="M1396 135q64 8 117 46q54 39 74 106q20 68 -11 136l-141 320h406q56 -7 101 19q48 28 74 70q27 43 31 94q5 50 -19 98q-275 582 -336 756q-22 55 -73 94t-114 39h-1302q-85 -7 -144 -66t-59 -144v-516q0 -77 59 -136q58 -58 144 -58h203l850 -805q64 -46 140 -53z
M1505 1764q39 0 55 -39q84 -239 342 -764q8 -32 -7 -58q-15 -27 -54 -20h-477l-77 -94v-69l156 -359q8 -18 4 -36q-4 -20 -20 -31q-16 -12 -35 -12t-34 16l-890 811l-70 23h-195q-24 0 -43 16t-12 39v516q-7 23 12 42t43 19h1302z" />
</svg>