<svg xmlns="http://www.w3.org/2000/svg" xmlns:xlink="http://www.w3.org/1999/xlink" version="1.1" viewBox="-10 0 2068 2048">
   <path fill="currentColor"
d="M0 191h898q44 43 128.5 128.5t127.5 127.5h894v1410h-2048v-1666zM1010 563l-14 1l-12 4q-22 14 -43.5 34t-45.5 46t-39 39q21 21 61.5 62.5t60.5 61.5q19 2 38.5 6.5t39.5 14.5t32 24t17 33.5t-5 45.5q17 18 52.5 52.5t53.5 52.5q11 8 34 15t42 12.5t37 16t25 30t0 49.5
q-10 57 -63 67q-48 9 -86 -24q-46 -39 -19 -95l-120 -119v261q-5 19 2 38t18.5 34.5t21.5 31.5t9.5 35.5t-15.5 40.5q-37 58 -93 38q-43 -16 -62 -60q-25 -56 19 -91q11 -9 28 -16v-291q-1 -14 -14.5 -32t-26 -31.5t-18 -35t10.5 -43.5q-23 -22 -67 -65.5t-65 -65.5
q-50 50 -149 150t-149 151q-5 6 -18 19t-20.5 21t-16.5 21.5t-11.5 24t-0.5 24.5t13 27q157 156 468 468l18.5 18.5l20.5 20.5t20.5 16.5t24 12t24 0t26.5 -12.5q5 -4 472 -466q19 -15 33 -31.5t23.5 -36t6.5 -41t-21 -39.5q-70 -70 -210.5 -210t-209.5 -210
q-15 -11 -39.5 -39.5t-47.5 -45.5t-51 -19z" />
</svg>