<svg xmlns="http://www.w3.org/2000/svg" xmlns:xlink="http://www.w3.org/1999/xlink" version="1.1" viewBox="-10 0 2068 2048">
   <path fill="currentColor"
d="M2032 532q-17 -70 -52 -136q-36 -71 -88 -114q-78 -78 -180 -118q-105 -40 -208 -40q-102 0 -202 40t-176 110l-102 102l-102 -102q-77 -70 -176 -110q-100 -40 -204 -40q-101 0 -206 40q-101 39 -180 118q-54 53 -90 118q-37 67 -50 132q-16 71 -16 140q0 71 16 142
q13 65 50 132q34 62 90 118l868 860l868 -860q55 -56 88 -118q38 -67 52 -132q16 -76 16 -142q0 -72 -16 -140z" />
</svg>