<svg xmlns="http://www.w3.org/2000/svg" xmlns:xlink="http://www.w3.org/1999/xlink" version="1.1" viewBox="-10 0 2068 2048">
   <path fill="currentColor"
d="M454 179q224 -156 500 -175q275 -19 520 101t401 350q154 227 171 501q16 269 -109 520t-353 401q-232 153 -497 168q-267 15 -513 -102q-245 -117 -401 -349.5t-171 -501t102 -512.5q118 -246 350 -401zM539 1757q195 125 427 144t443 -86.5t342 -298.5
q132 -195 147 -432q15 -239 -89 -447q-105 -211 -303 -338q-199 -128 -427 -143q-231 -15 -439 89q-210 105 -342 299q-133 195 -148 427q-15 236 86 440q103 207 303 346zM803 878q0 62 -43 105t-104 43q-62 0 -106 -43q-43 -42 -43 -104q0 -63 43 -105q44 -43 106 -43
t104 42q43 43 43 105zM1534 878q0 63 -44 105q-45 43 -105 43q-62 0 -105 -43q-42 -42 -42 -104q0 -63 42 -105q43 -43 105 -43q61 0 105 42t44 105zM1020 1461q-122 0 -225 -62q-102 -61 -163 -163l-125 70q80 143 221 222q145 81 308 77q164 -5 299 -89q136 -85 205 -234
l-124 -61q-53 108 -163 175q-106 65 -233 65z" />
</svg>