<svg xmlns="http://www.w3.org/2000/svg" xmlns:xlink="http://www.w3.org/1999/xlink" version="1.1" viewBox="-10 0 2058 2048">
   <path fill="currentColor"
d="M492 67l116 -67l1420 948v135l-906 605v-193l720 -479l-1192 -798v571h-158v-722zM668 1595q-41 40 -68 97q-24 53 -24 113v135q0 24 -10 45q-8 20 -20 34q-12 13 -34 21t-46 8h-134q-24 0 -46 -8t-34 -21q-12 -14 -20 -34q-10 -21 -10 -45v-135q0 -61 -24 -114
q-26 -55 -72 -100q-45 -46 -76 -114q-30 -68 -30 -151q0 -51 14 -96q14 -50 38 -93q23 -43 58 -80q31 -32 76 -59q40 -25 92 -37q56 -13 102 -13t100 13q51 13 92 37q46 28 76 59q35 37 58 80q26 47 42 93q18 48 18 96q0 86 -30 151q-29 66 -88 118zM492 1754h-184v186
q0 8 8 16t16 8h134q10 0 18 -8t8 -16v-186z" />
</svg>