<svg xmlns="http://www.w3.org/2000/svg" xmlns:xlink="http://www.w3.org/1999/xlink" version="1.1" viewBox="-10 0 2068 2048">
   <path fill="currentColor"
d="M66 66h1778l64 72v752q-59 -52 -138 -80v-606h-1632v1232h678q0 225 138 408h-546v-138h408v-132h-750l-66 -74v-1362zM1500 890q-146 0 -272 72q-127 74 -200 200q-74 127 -74 274t74 274q73 126 200 200q126 72 272 72q148 0 274 -72q127 -74 200 -200q74 -127 74 -274
t-74 -274q-73 -126 -200 -200q-126 -72 -274 -72zM1500 1844q-109 0 -204 -54q-93 -54 -148 -150q-54 -95 -54 -204.5t54 -203.5q54 -95 148 -150q97 -54 204 -54q168 0 288 120t120 288t-120 288t-288 120z" />
</svg>