<svg xmlns="http://www.w3.org/2000/svg" xmlns:xlink="http://www.w3.org/1999/xlink" version="1.1" viewBox="-10 0 2068 2048">
   <path fill="currentColor"
d="M1108 1764q-41 7 -88 7v-131h-130v131q-197 -15 -364 -120q-167 -104 -270 -270q-103 -164 -118 -361h132v-138h-132q15 -194 122 -361q102 -162 270 -266q163 -102 360 -117v131h130v-131q196 15 364 117q169 103 270 269q103 168 118 365h-132v131h132l-8 87
q65 15 124 44q22 -94 22 -196q0 -261 -128 -481t-346 -346q-219 -128 -480.5 -128t-481.5 128q-218 127 -346 346q-126 218 -126 481t126 481q128 219 346 346q219 127 482 127q101 0 196 -21q-30 -60 -44 -124zM1218 1290l-402 -197l-276 -554l554 277l196 401
q-44 29 -72 73zM1152 1151l-132 -262l-262 -131l132 262zM1232 1640q0 168 117 288t287 120q172 0 292 -120t120 -292q0 -171 -120 -291t-292 -120q-170 0 -287 120t-117 295z" />
</svg>