<svg xmlns="http://www.w3.org/2000/svg" xmlns:xlink="http://www.w3.org/1999/xlink" version="1.1" viewBox="-10 0 2058 2048">
   <path fill="currentColor"
d="M1396 15l484 486l23 53v1424l-78 70h-1610l-70 -70v-1908l70 -70h1134zM285 141v1759h1470v-1313l-438 -446h-1032zM504 734q0 290 196 290q102 0 156 -78t54 -219q0 -289 -194 -289q-102 0 -157 78q-55 77 -55 218zM630 734q0 -202 78 -202t78 195t-78 195t-78 -188z
M1098 1008h352v-94h-117v-476l-243 47v102l126 -25v352h-118v94zM896 1743h-352v-94h117v-351l-125 23v-101l250 -47v476h110v94zM1051 1462q0 281 204 281q102 0 152 -74q51 -75 51 -222q0 -290 -195 -290q-101 0 -157 78q-55 77 -55 227zM1177 1462q0 -203 78 -203t78 195
t-78 195t-78 -187z" />
</svg>