<svg xmlns="http://www.w3.org/2000/svg" xmlns:xlink="http://www.w3.org/1999/xlink" version="1.1" viewBox="-10 0 2068 2048">
   <path fill="currentColor"
d="M984 292h994l70 80v1460l-70 72h-1908l-70 -72v-1610l70 -78h736l54 24zM1900 1762v-226l6 -806h-930l-124 126l-46 22h-658v884h1752zM946 590h954l6 -148h-952l-54 -24l-126 -126h-626v446h626l126 -126zM1282 1184l-196 -204l110 -102l320 330v102l-336 326l-102 -108
l212 -196h-204q-116 8 -198 90t-74 192h-150q0 -171 118 -298q115 -124 296 -132h204z" />
</svg>