<svg xmlns="http://www.w3.org/2000/svg" xmlns:xlink="http://www.w3.org/1999/xlink" version="1.1" viewBox="-10 0 2068 2048">
   <path fill="currentColor"
d="M1020 8q-203 0 -388 77q-187 78 -332 222q-143 144 -222 332q-78 187 -78 389v62q8 110 82 160q75 50 176 35q98 -15 178 -90q79 -74 186 -70q110 5 187.5 82t82 182.5t-73.5 187.5q-77 80 -90 191q-11 108 44 190q55 83 170 90h86q272 0 510 -140q237 -140 374 -374
q136 -233 136 -510t-136 -510q-136 -232 -374 -374q-236 -140 -510 -140zM1020 1907h-78q-30 -7 -50 -23q-20 -15 -20 -46q-16 -94 46 -157q118 -125 118 -291q0 -169 -120 -292q-122 -125 -292 -125q-172 0 -298 124q-54 63 -132 47q-16 0 -30 -15q-16 -16 -16 -39v-54
q0 -244 120 -441q121 -197 320 -319q198 -121 436 -121q239 0 440 121q203 121 320 319q116 196 116 437q0 239 -116 440q-117 202 -320 319q-200 116 -436 116h-8zM1168 444q0 62 -43 105t-105 43t-106 -43q-42 -42 -42 -105q0 -64 42 -106q44 -43 106 -43t105 43t43 106z
M1604 1464q0 62 -43 105t-105 43t-104 -43q-43 -42 -40 -101q3 -57 42 -101q40 -44 102 -44t105 43t43 98zM584 739q64 0 106 -43q42 -44 38 -105q-2 -60 -42 -105q-38 -42 -102 -42q-62 0 -104 42q-44 43 -44 105t43 105t105 43zM1604 592q0 63 -42 105q-44 42 -106 42
t-104 -43q-43 -42 -40 -105q4 -61 42 -105q38 -42 102 -42t106 42q42 43 42 106zM1752 1028q0 62 -43 105t-105 43t-105 -43t-43 -105q0 -63 43 -106t105 -43t105 43t43 106z" />
</svg>