<svg xmlns="http://www.w3.org/2000/svg" xmlns:xlink="http://www.w3.org/1999/xlink" version="1.1" viewBox="-10 0 2068 2048">
   <path fill="currentColor"
d="M1012 1028l-124 118q-29 -111 -122.5 -185t-211.5 -74q-116 0 -209.5 74t-122.5 185l-126 -118l-96 95l162 164l-20 14v140h-142v141h142v8q7 63 36 132l-178 178l96 96l156 -155q52 74 132 114q82 41 170 41t170 -41q81 -40 134 -114l154 155l96 -96l-176 -178
q29 -69 36 -140v-7h140v-134h-140v-140l-22 -14l162 -164zM554 1028q90 0 149 59t59 148h-414q0 -89 59 -148t147 -59zM836 1582q-15 110 -94 188q-77 78 -188 85q-110 -7 -188 -85q-78 -79 -86 -188v-207h556v207zM696 110l102 -58l1250 835v118l-798 533v-170l636 -421
l-1050 -703v502h-140v-636z" />
</svg>