<svg xmlns="http://www.w3.org/2000/svg" xmlns:xlink="http://www.w3.org/1999/xlink" version="1.1" viewBox="-10 0 2068 2048">
   <path fill="currentColor"
d="M1188 493l-78 -352h-172l-78 352l-102 47l-290 -188l-132 117l188 289l-24 102l-352 78v172l352 78l40 118l-188 289l116 117l290 -187l118 39l62 336h172l78 -352l118 -39l288 187l118 -116l-188 -290l40 -117l342 -63v-172l-350 -78l-48 -118l188 -288l-116 -118
l-290 188zM1226 0l80 352l304 -196l296 298l-210 304l352 63v406l-352 79l210 305l-296 289l-304 -204l-80 352h-404l-80 -352l-304 196l-290 -297l204 -305l-352 -63v-406l352 -79l-196 -304l298 -297l304 211l64 -352h404zM1320 1024q0 116 -90 203t-206 87t-204 -87
q-86 -86 -86 -203q0 -118 86 -207q88 -90 204 -90t206 90t90 207zM1024 1173q62 0 105 -43t43 -106t-43 -106t-106 -43t-105 43q-42 42 -42 106t42 106q42 43 106 43z" />
</svg>