<svg xmlns="http://www.w3.org/2000/svg" xmlns:xlink="http://www.w3.org/1999/xlink" version="1.1" viewBox="-10 0 2058 2048">
   <path fill="currentColor"
d="M1024 0q-179 0 -308 129t-129 309v586q0 180 129 309t308 129q180 0 309 -129t129 -309v-586q0 -180 -129 -309t-309 -129zM1564 1251q46 -108 46 -227h149q0 71 -16 144q-17 75 -39 138q-63 133 -164 234t-234 164q-103 40 -212 47v297h-140v-297q-107 -7 -211 -47
q-133 -63 -234 -164q-103 -103 -165 -234q-22 -63 -39 -138q-16 -73 -16 -144h149q0 118 43 223q43 107 129 192t192 129q105 43 222 43q118 0 223 -43q107 -44 192 -129q86 -86 125 -188z" />
</svg>