<svg xmlns="http://www.w3.org/2000/svg" xmlns:xlink="http://www.w3.org/1999/xlink" version="1.1" viewBox="-10 0 2068 2048">
   <path fill="currentColor"
d="M148 141h876v515l70 71h516v148h148v-321l-24 -53l-484 -486l-46 -15h-1134l-70 70v1908l70 70h516v-148h-438v-1759zM1172 141l438 446h-438v-446zM1978 1024h-1172l-72 70v884l72 70h1172l70 -70v-884zM1906 1173v586l-242 -234h-100l-172 171l-314 -312h-102l-100 94
v-305h1030zM1494 1798l116 -118l226 220h-234zM876 1900v-212l148 -147l368 359h-516zM1680 1392q30 0 54 -24t24 -51q0 -28 -23 -51t-55 -23t-50 23q-20 25 -20 51t20 51q19 24 50 24z" />
</svg>