<svg xmlns="http://www.w3.org/2000/svg" xmlns:xlink="http://www.w3.org/1999/xlink" version="1.1" viewBox="-10 0 2059 2048">
   <path fill="currentColor"
d="M1175 66l131 -66l733 586v124l-733 557l-131 -66v-256h-58q-223 0 -337 22q-163 29 -308 124q-154 110 -322 329l-139 -44q-7 -100 22 -204q29 -185 120 -345t238 -277q150 -119 323 -180q174 -61 365 -55h96v-249zM1335 791v256l520 -396l-512 -409v241h-264
q-177 -8 -343 55q-170 63 -293 187q-153 160 -219 374q147 -140 292 -213q133 -59 293 -80q109 -15 314 -15h212zM641 1332q86 -65 194 -72q107 -8 201 40q96 49 153 135q58 88 66 195q7 106 -40 204q-49 101 -136 151q-138 87 -296 54q-157 -33 -248 -164
q-92 -132 -59 -293q33 -162 165 -250zM729 1853q51 36 113 44q63 8 121 -22q57 -29 91 -85q32 -53 39.5 -116t-21.5 -121q-31 -60 -80 -89q-88 -58 -183 -36q-97 22 -150 103q-55 82 -33 175q23 97 103 147z" />
</svg>