<svg xmlns="http://www.w3.org/2000/svg" xmlns:xlink="http://www.w3.org/1999/xlink" version="1.1" viewBox="-10 0 2058 2048">
   <path fill="currentColor"
d="M1489 192q-86 -86 -210 -139t-253 -53q-185 0 -332 92q-150 94 -236 241q-88 151 -93 332q-4 183 101 341l516 1042h87l517 -1042q105 -158 96 -350q0 -130 -48 -249q-47 -118 -145 -215zM1017 167h9h18q192 9 331 153q140 145 149 345q0 140 -78 254l-420 848l-420 -848
q-79 -115 -79 -254q9 -200 149 -345q140 -144 341 -153zM1113 526q-53 -44 -123 -31q-71 14 -105 70q-34 57 -21 122q14 66 70 105q58 39 122 26q68 -14 106 -70q40 -58 26 -123q-13 -64 -75 -99zM843 386q72 -53 162 -62q91 -9 169 30q80 40 127 114q49 76 53 166
q5 90 -36 172q-38 78 -117 122q-105 71 -236 44t-206 -136q-74 -109 -52 -241q23 -131 136 -209z" />
</svg>