<svg xmlns="http://www.w3.org/2000/svg" xmlns:xlink="http://www.w3.org/1999/xlink" version="1.1" viewBox="-10 0 2058 2048">
   <path fill="currentColor"
d="M1943 694v-586h-219v368q-126 -150 -312 -235q-189 -86 -400 -86q-228 0 -430 106q-205 108 -328 286t-140 398l-8 39h226v-31q17 -158 110 -290q95 -134 246 -211q153 -78 332 -78q181 0 340 86q162 88 246 234h-414v219h610l141 -140v-79zM1028 1899q126 0 211 -82
q86 -83 86 -207q0 -125 -86 -208t-211 -86q-124 -3 -207 83q-82 85 -82 211q0 125 82 210q83 86 207 86v-7z" />
</svg>