<svg xmlns="http://www.w3.org/2000/svg" xmlns:xlink="http://www.w3.org/1999/xlink" version="1.1" viewBox="-10 0 2068 2048">
   <path fill="currentColor"
d="M65 65h1780l65 73v751q-59 -51 -138 -80v-606h-1634v1234h678q0 228 139 408h-547v-138h408v-131h-751l-65 -74v-1364zM1502 889q70 0 142 19t132.5 54.5t112.5 87.5q51 51 87 110q51 95 66 204t-14 219q-14 64 -52 127q-38 66 -87 114q-50 51 -110 87q-94 51 -204 66
q-108 15 -219 -14q-63 -14 -127 -52q-65 -38 -114 -87q-50 -50 -87 -110q-50 -94 -66 -205q-14 -108 14 -219q15 -63 52 -127q37 -62 87 -113q53 -52 110 -88q133 -73 277 -73zM1779 1437l-416 -277v547z" />
</svg>