<svg xmlns="http://www.w3.org/2000/svg" xmlns:xlink="http://www.w3.org/1999/xlink" version="1.1" viewBox="-10 0 2068 2048">
   <path fill="currentColor"
d="M148 215l-148 148v1322l148 148h1758l142 -148v-1322l-142 -148h-1758zM148 1685v-1322h1758v1322h-1758zM634 1231h100v-250q0 -180 -140 -180q-30 0 -66 12q-40 13 -60 27v94q56 -39 114 -39t58 70l-92 8q-110 23 -110 148q0 53 28 90q26 36 74 36q62 0 94 -71v55z
M640 1035v32q0 31 -20 59q-19 27 -42.5 27t-35.5 -16q-10 -15 -10 -31q0 -55 46 -63l56 -8h6zM968 1192h-8v47h-84v-578h84l8 241q32 -70 86.5 -70t87.5 55q30 53 30 148q0 96 -34 153q-37 59 -92 59t-78 -55zM960 1028v39q0 33 16 59q17 27 44 27q26 0 42 -31t16 -86
t-12 -82q-12 -28 -38 -28q-28 0 -48 32t-20 70zM1500 1247q69 0 110 -24v-109q-39 31 -82 31q-44 0 -70 -31q-28 -32 -28 -86t27 -90t75 -36q46 0 78 32v-110q-33 -23 -94 -16q-85 -8 -140.5 54.5t-55.5 165.5q0 102 52 160q51 59 128 59z" />
</svg>