<svg xmlns="http://www.w3.org/2000/svg" xmlns:xlink="http://www.w3.org/1999/xlink" version="1.1" viewBox="-10 0 2058 2048">
   <path fill="currentColor"
d="M954 1173h289v-149h-219v-368h-148v438zM657 391q-175 97 -270 265q-98 173 -98 368t98 368q96 170 270 266v320l78 70h586l71 -70v-320q173 -95 269 -266q98 -173 98 -368t-98 -368q-96 -169 -269 -265v-321l-71 -70h-586l-78 70v321zM1610 1024q0 156 -78 293t-215 215
q-138 79 -293 79t-293 -79q-135 -77 -214 -215t-79 -293t79 -293t214 -215q137 -78 293 -78t293 78t215 215t78 293z" />
</svg>