<svg xmlns="http://www.w3.org/2000/svg" xmlns:xlink="http://www.w3.org/1999/xlink" version="1.1" viewBox="-10 0 2068 2048">
   <path fill="currentColor"
d="M1393 894l259 642h-96l-252 -642h89zM737 969q-57 0 -95 17q-43 19 -76 48q-34 30 -51 82q-17 53 -17 106q0 54 17 99q17 43 48 75t72 48q42 17 103 17q60 0 122 -21l14 62q-28 14 -62 14q-50 14 -102 14q-53 0 -110 -22q-56 -22 -95 -61q-41 -41 -65 -99t-24 -126
t24 -126t65 -99t103 -65q61 -24 122 -24q64 0 96 7q36 8 48 20l-14 62q-27 -14 -58 -21q-29 -7 -65 -7zM1024 1024h130v130h-130v-130zM1024 1277h130v129h-130v-129zM1987 130h-1926l-61 61v1666l61 61h1926l61 -61v-1666zM1918 1789h-1788v-1147h1788v1147zM1918 512
h-1788v-259h1788v259z" />
</svg>