<svg xmlns="http://www.w3.org/2000/svg" xmlns:xlink="http://www.w3.org/1999/xlink" version="1.1" viewBox="-10 0 2068 2048">
   <path fill="currentColor"
d="M296 1126v-6v6zM922 1182l-262 -262l90 -82l274 274l268 -274l90 90l-262 262l262 260l-90 90l-276 -282l-266 274l-90 -88zM1456 454v82h110l248 -248l90 90l-234 234v6q82 206 82 420l-6 96h302v124h-316q-43 214 -144 384l-8 8l296 294l-90 84l-280 -282l-8 14
q-96 102 -220 164t-254 62q-132 0 -254 -62q-126 -62 -220 -172l-8 -12l-280 274l-84 -82l290 -290l-8 -6q-102 -174 -136 -378h-8h-316v-124h302v-96q0 -220 76 -412v-8l-240 -240l88 -90l248 248h124v-82q0 -119 56 -218q56 -100 154 -158t216 -58t216 58q100 59 158 158
t58 218zM722 454v82h610v-82q0 -132 -89 -221t-216 -89t-216 89t-89 221zM1560 666v-6h-1064l-8 6q-60 176 -62 372q0 172 48 326q47 151 134 268q87 114 192 172q106 58 224 58t224 -58q107 -59 192 -172q88 -117 138 -268q50 -154 50 -326q0 -202 -68 -372z" />
</svg>