<svg xmlns="http://www.w3.org/2000/svg" xmlns:xlink="http://www.w3.org/1999/xlink" version="1.1" viewBox="-10 0 2058 2048">
   <path fill="currentColor"
d="M1124 4q171 8 331 86q162 80 284 201q294 319 296 748q0 337 -234 638q-117 141 -264.5 230.5t-318.5 120.5q-374 69 -677 -102q-158 -86 -272 -217q-119 -135 -179 -296q-62 -165 -74 -343q-12 -176 43 -342q115 -358 412 -553q139 -93 308 -140t345 -31zM1202 1888
q293 -68 490 -312q195 -265 179 -553q0 -178 -66 -342q-65 -160 -183 -288q-225 -226 -520 -249q-149 -7 -297.5 27.5t-263.5 119.5q-249 187 -338 491q-90 302 39 584q126 279 392 428q122 77 272 101q148 24 296 -7zM1023 954l351 -366l100 100l-350 366l350 366l-100 102
l-351 -366l-350 366l-101 -102l351 -366l-351 -366l101 -100z" />
</svg>