<svg xmlns="http://www.w3.org/2000/svg" xmlns:xlink="http://www.w3.org/1999/xlink" version="1.1" viewBox="-10 0 2058 2048">
   <path fill="currentColor"
d="M936 0h-2l126 685h6l52 -415l306 29l-16 124l130 -225l244 183l-266 461q129 97 202.5 232.5t73.5 290.5q0 139 -61.5 266t-164.5 218t-245 145t-297.5 54t-297 -54t-244.5 -145t-164.5 -218t-61.5 -266q0 -195 114.5 -358t303.5 -249l-130 -699zM1023.5 746
q-143.5 0 -274.5 49.5t-225 132.5t-149 197.5t-55 239.5t55 239.5t149 197.5t225 132t274.5 49t274 -49t224.5 -132t149 -197.5t55 -239.5t-55 -239.5t-149 -197.5t-224.5 -132.5t-274 -49.5zM682 1110v2q66 0 115 65t55 161l2 27q0 104 -49 178.5t-117 76.5h-6
q-67 0 -116 -70.5t-52 -171.5v-14q0 -100 44.5 -173.5t109.5 -80.5h14zM1362 1110v2q66 0 115 65t55 161l2 27h-2q0 104 -48 178.5t-116 76.5h-6q-67 0 -116 -70.5t-52 -171.5v-14q0 -100 44.5 -173.5t109.5 -80.5h14zM628 1223h-4q-23 2 -37.5 26.5t-14.5 58.5v5
q1 34 17 57.5t39 23.5h2q24 -1 39 -26t15 -60v-9q-2 -32 -18 -54t-38 -22zM1308 1223h-4q-23 2 -37.5 27t-14.5 58v2v3q1 33 17.5 57t38.5 24h2q23 -1 38.5 -26t15.5 -60v-9q-2 -32 -17.5 -54t-38.5 -22z" />
</svg>