<svg xmlns="http://www.w3.org/2000/svg" xmlns:xlink="http://www.w3.org/1999/xlink" version="1.1" viewBox="-10 0 2068 2048">
   <path fill="currentColor"
d="M1118 828l680 -687h-478v-141h728v727h-142v-477l-686 680zM1602 1204q94 0 164 63l118 109l62 63l54 62q24 33 36 70q12 39 12 78q0 94 -62 157l-110 109q-41 41 -94 71q-58 33 -122 47q-66 15 -144 15q-124 0 -258 -39t-262 -109q-130 -71 -254 -165
q-128 -98 -234 -203q-109 -109 -204 -234q-92 -121 -160 -254q-65 -128 -104 -259q-40 -129 -40 -253q0 -91 12 -149q11 -63 42 -113t80 -98l108 -110q63 -63 156 -62q57 0 110 31q58 34 106 74q52 44 90 94t78 82q62 71 62 165q0 40 -12 74q-12 37 -34 66q-27 35 -48 54
l-54 47l-32 40q-16 22 -16 43t24 51q8 12 56 70q76 84 172 180l320 305q16 23 46 27q32 5 54 -19l40 -31l48 -47q22 -31 54 -51q39 -24 66 -40q34 -19 74 -11zM1516 1900q70 0 116 -12q52 -13 88 -35q38 -24 78 -63l78 -86q31 -23 24 -55q7 -16 -16 -38l-48 -63
q-21 -38 -62 -70l-70 -63l-56 -47q-32 -23 -50 -23t-42 15q-21 13 -40 40l-46 47q-20 27 -52 50q-28 21 -66 35q-41 16 -78 16q-94 0 -164 -70l-540 -540q-39 -32 -54 -74q-16 -46 -16 -90t16 -82t34 -63q19 -26 48 -51q44 -40 50 -46l40 -39q16 -22 16 -43q0 -19 -24 -51
l-46 -55l-64 -70l-70 -63l-54 -47q-33 -23 -48 -23q-31 0 -54 31l-86 78q-32 32 -58 74q-28 44 -40 94q-10 47 -18 106q7 104 42 230q36 125 98 239q63 117 148 226q85 110 188 212q203 203 444 336q111 64 228 98q118 35 226 35z" />
</svg>