<svg xmlns="http://www.w3.org/2000/svg" xmlns:xlink="http://www.w3.org/1999/xlink" version="1.1" viewBox="-10 0 2068 2048">
   <path fill="currentColor"
d="M1978 82h-220v140h148v150h142v-220zM1172 82h290v140h-290v-140zM586 82h290v140h-290v-140zM1906 1254v142v148h72l70 -70v-220h-142zM1610 1544v-148h-290v148h290zM1024 1396h-70l-54 24l-314 312v-258l-78 -78h-70v516l124 54l422 -422h40v-148zM2048 958v-290h-142
v290h142zM148 1396v-142h-148v220l70 70h78v-148zM148 958v-290h-148v290h148zM148 222v150h-148v-220l70 -70h218v140h-140z" />
</svg>