<svg xmlns="http://www.w3.org/2000/svg" xmlns:xlink="http://www.w3.org/1999/xlink" version="1.1" viewBox="-10 0 2068 2048">
   <path fill="currentColor"
d="M1578 873q0 38 -8 75h159q24 -269 -109 -508q-134 -241 -382 -358q-249 -118 -516 -67q-269 51 -462 244t-244 462q-51 268 67 517q117 249 357 382q239 133 508 109v-160q-220 24 -411 -75q-194 -101 -294 -298q-101 -198 -75 -416q25 -219 172 -382q147 -164 361 -219
q211 -55 420 26q204 79 331 261q126 182 126 407zM554 788q67 0 113 -46q47 -47 47 -109t-47 -109q-46 -46 -113 -46q-68 0 -114 46t-46 109t46 109t114 46zM873 1183q169 0 286 -117l108 108q-76 76 -180 122q-106 47 -218 47q-115 0 -219 -46q-107 -47 -180 -131l109 -109
q60 60 135 93t159 33zM1183 788q68 0 114 -46t46 -109t-46 -109t-113 -46q-68 0 -114 46q-47 47 -47 109t47 109q46 46 113 46zM1578 1259h160v319h310v160h-310v310h-160v-310h-311v-160h311v-319z" />
</svg>