<svg xmlns="http://www.w3.org/2000/svg" xmlns:xlink="http://www.w3.org/1999/xlink" version="1.1" viewBox="-10 0 2068 2048">
   <path fill="currentColor"
d="M1594 1923h-1148l-72 -79v-977h-210l-70 -55l-94 -390l48 -86l624 -211l94 47q8 39 28 66q15 22 34 43q40 40 86 63q109 39 212 -8q48 -17 86 -55l38 -39l32 -70l94 -47l624 211l48 86l-94 390l-70 55h-212v977zM524 1774h1000v-977l70 -71h226l64 -273l-492 -164l-24 31
q-22 38 -48 63q-62 62 -140 94q-77 31 -160 31q-80 0 -156 -32q-73 -30 -130 -93q-31 -23 -54 -63l-24 -31l-500 164l72 273h218l78 71v977z" />
</svg>