<svg xmlns="http://www.w3.org/2000/svg" xmlns:xlink="http://www.w3.org/1999/xlink" version="1.1" viewBox="-10 0 2068 2048">
   <path fill="currentColor"
d="M1964 80h-1888l-76 84v1728l76 76h1888l84 -76v-1728zM158 238h1730v160h-1730v-160zM1260 868h-472v-310h472v310zM1260 1028v312h-472v-312h472zM158 558h472v310h-472v-310zM158 1028h472v312h-472v-312zM158 1818v-320h472v320h-472zM788 1818v-320h472v320h-472z
M1888 1818h-470v-320h470v320zM1888 1340h-470v-312h470v312zM1418 868v-310h470v310h-470z" />
</svg>