<svg xmlns="http://www.w3.org/2000/svg" xmlns:xlink="http://www.w3.org/1999/xlink" version="1.1" viewBox="-10 0 2058 2048">
   <path fill="currentColor"
d="M1024 146q64 0 109 45t45 109t-45 109t-109 45q-65 0 -110 -45q-44 -44 -44 -109t44 -109q45 -45 110 -45zM1024 0q-129 0 -218 89t-86 215t89 215t215 89t218 -89t89 -215t-89 -215t-218 -89zM1210 680h-372q-114 0 -191 77q-76 76 -76 190v405q-9 66 36 114t117 48v357
q-9 72 48 125q56 52 131 52h242q81 0 133 -52q53 -53 53 -134v-348q63 0 109 -49t37 -113v-405q0 -114 -77 -191q-76 -76 -190 -76zM724 1361v-414q-9 -49 28 -81t86 -32h372q48 0 85 32t29 81v414h-146v510q0 9 -8 16t-25 7h-242q-17 0 -25 -8t-8 -15v-510h-146z" />
</svg>