<svg xmlns="http://www.w3.org/2000/svg" xmlns:xlink="http://www.w3.org/1999/xlink" version="1.1" viewBox="-10 0 2068 2048">
   <path fill="currentColor"
d="M1896 312h-1744q-67 0 -110 46q-42 47 -42 114v1104q0 68 42 114t110 46h1744q58 0 104 -46q48 -46 48 -114v-1104q0 -66 -47 -113t-105 -47zM1896 1576h-1744v-1104h1744v1104zM1416 632h-152v152h152v-152zM1264 944h-160v160h160v-160zM1576 632h160v152h-160v-152z
M1736 1264h-160v152h160v-152zM632 1264h784v152h-784v-152zM1736 944h-320v160h320v-160zM944 632h160v152h-160v-152zM944 944h-160v160h160v-160zM312 1264h160v152h-160v-152zM312 632h160v152h-160v-152zM784 632h-152v152h152v-152zM312 944h320v160h-320v-160z" />
</svg>