<svg xmlns="http://www.w3.org/2000/svg" xmlns:xlink="http://www.w3.org/1999/xlink" version="1.1" viewBox="-10 0 2068 2048">
   <path fill="currentColor"
d="M1384 235q-156 -119 -354 -147q-147 -15 -286 33q-138 47 -246 148q-105 97 -166 232q-60 130 -60 279v302q0 161 -50 317l184 -184q6 -62 6 -133v-302q0 -117 48 -228q48 -110 134 -188q86 -79 198 -114q112 -36 224 -22q148 21 266 111zM832 1606h796l-52 -148
q-58 -181 -58 -376v-162l140 -140v302q0 165 50 325l82 243l-66 96h-486q0 110 -81 191t-195 81t-192 -77q-78 -76 -84 -188zM964 1885q54 0 96 -40q45 -41 38 -99h-274q0 58 42 99q40 40 98 40zM0 1952l1952 -1952l96 96l-1952 1952z" />
</svg>