<svg xmlns="http://www.w3.org/2000/svg" xmlns:xlink="http://www.w3.org/1999/xlink" version="1.1" viewBox="-10 0 2068 2048">
   <path fill="currentColor"
d="M0 1351h130v260h1788v-260h130v383h-2048v-383zM874 1351h-109v-109h-7q-67 130 -212 130q-109 0 -167 -58t-58 -147q0 -198 232 -232l212 -27q0 -177 -151 -178q-124 0 -225 82v-116q100 -60 239 -62q246 0 246 260v457zM765 996l-171 28q-83 8 -120 34q-37 27 -37 102
q0 48 34 82t96 34q89 0 143 -58q55 -60 55 -153v-69zM1195 1249v102h-116v-1037h116v457q83 -137 245 -137q137 0 212 93t75 256q0 177 -85 283t-229 106q-143 0 -218 -123zM1195 969v96q0 87 55 150q54 61 143 61q101 0 160 -79q58 -77 58 -221q0 -115 -55 -181
q-54 -65 -150 -65q-94 0 -153 69q-58 68 -58 170z" />
</svg>