<svg xmlns="http://www.w3.org/2000/svg" xmlns:xlink="http://www.w3.org/1999/xlink" version="1.1" viewBox="-10 0 2068 2048">
   <path fill="currentColor"
d="M706 465l-102 -90q174 -115 386 -126q208 -10 394 86q184 96 293.5 270t116.5 387l158 -150l96 95l-268 267h-102l-268 -274l104 -95l158 157q-8 -166 -96 -308q-90 -143 -240 -226q-150 -82 -320 -79q-166 3 -310 86zM1288 1609l102 89q-177 96 -376 93
q-198 -3 -370 -103q-168 -97 -274 -268q-102 -166 -110 -366l-158 157l-102 -95l268 -268h96l274 274l-104 96l-150 -150q13 158 96 291q81 132 216 212q131 78 290 89q158 10 302 -51zM144 368l90 -88l1526 1425l-88 95z" />
</svg>