<svg xmlns="http://www.w3.org/2000/svg" xmlns:xlink="http://www.w3.org/1999/xlink" version="1.1" viewBox="-10 0 2058 2048">
   <path fill="currentColor"
d="M1033 0q26 1 45 8q120 64 341 192.5t263 152.5q22 15 58.5 34.5t64.5 35t56.5 36.5t47.5 49.5t25 64.5q2 85 1.5 380t-0.5 380q0 13 0.5 44t0.5 48t-3 44t-9.5 45t-19.5 37.5t-33 34.5q-105 64 -311 180.5t-301 173.5q-17 8 -38 20.5t-39 24t-39 23.5t-40.5 20.5
t-41 14.5t-44 5.5t-45.5 -7.5q-124 -69 -351 -199t-315 -179q-9 -5 -39 -21.5t-43 -24.5t-36.5 -25t-35.5 -31.5t-23 -36.5t-15 -46q-1 -150 -1 -429t-1 -343q1 -12 0.5 -42t-0.5 -45.5t3 -41.5t9.5 -42.5t19 -35t30.5 -32.5q120 -72 344 -200t272 -156q28 -12 74.5 -43
t87.5 -50t81 -18zM1057 418q-147 -7 -285 55t-229 178q-90 111 -116.5 257t14.5 288.5t140 245.5q99 111 246 158.5t299.5 22.5t267.5 -118q9 -9 28 -25t35 -30.5t34.5 -33t29 -34.5t15 -32t-5 -29.5t-33.5 -22.5q-21 -5 -52 -25.5t-57 -40t-53 -33.5t-50.5 -7.5t-39.5 39.5
q-58 67 -148 88t-177.5 -10t-139.5 -104q-53 -66 -59 -154t34.5 -166.5t114.5 -118.5q65 -43 145 -44.5t151 36t113 102.5q37 -3 83 -27.5t101 -60.5t86 -51q-75 -131 -208.5 -213.5t-283.5 -89.5zM1373 872v102h-104v102h104v101h100v-101h103v-102h-103v-102h-100z
M1716 872v102h-100v102h100v101h100v-101h100v-102h-100v-102h-100z" />
</svg>