<svg xmlns="http://www.w3.org/2000/svg" xmlns:xlink="http://www.w3.org/1999/xlink" version="1.1" viewBox="-10 0 2067 2048">
   <path fill="currentColor"
d="M628 533q-59 88 -153 131l-58 15v683q139 29 211 146q60 89 58 189q0 73 -21 139q-43 93 -132 153q-86 58 -193 58q-105 0 -189 -58q-82 -57 -123 -153q-40 -94 -22 -197q18 -102 91 -174q75 -73 174 -95v-691q-102 -21 -175 -95q-72 -73 -90 -175q-18 -103 22 -197
q41 -94 123 -152q85 -59 194 -59q138 -7 243.5 95.5t97.5 247.5q2 108 -58 189zM526 1610q-29 -52 -76 -80q-49 -29 -105 -29q-96 0 -157 76t-40 171q8 61 54 103q48 44 106 54q60 11 116 -11q59 -22 91 -73q35 -53 37 -105q3 -54 -26 -106zM235 511q53 37 109 37
q58 0 106 -30q48 -29 77 -80q28 -48 25 -109q-3 -58 -37 -106q-33 -47 -91 -72q-59 -26 -120 -11q-62 15 -105 58q-44 45 -55 102q-10 58 15 116q26 60 76 95zM1640 816h-131v-203q0 -87 -62 -146q-61 -58 -142 -58h-255l175 175l-102 95l-291 -291v-95l291 -292l102 94
l-175 175h255q102 0 189 59q89 60 124 152q29 64 22 132v203zM1640 2047h-139v-407h-407v-139h407v-407h139v407h407v139h-407v407z" />
</svg>