<svg xmlns="http://www.w3.org/2000/svg" xmlns:xlink="http://www.w3.org/1999/xlink" version="1.1" viewBox="-10 0 2067 2048">
   <path fill="currentColor"
d="M1029 0q-310 0 -571.5 173t-378.5 458q-117 287 -59 593q59 308 281 526q225 220 525 278q302 59 589 -59q287 -117 463 -375q176 -256 168 -567q9 -210 -71 -396q-79 -183 -223 -332q-141 -146 -332 -223q-188 -76 -391 -76zM1029 1893q-269 0 -488 -147
q-220 -147 -320 -391q-101 -246 -46 -501q56 -259 239 -442q184 -184 442 -240q254 -54 501 47q245 101 391 319q147 219 147 489q0 168 -68 328t-189 281t-281 189t-328 68zM869 1027q0 61 46 105q47 45 109 45q63 0 109 -46t46 -109t-46 -109t-109 -46t-109 46t-46 114z
" />
</svg>