<svg xmlns="http://www.w3.org/2000/svg" xmlns:xlink="http://www.w3.org/1999/xlink" version="1.1" viewBox="-11 0 2069 2048">
   <path fill="currentColor"
d="M671 1741q428 10 867 -142q29 -12 44 -33.5t13 -43t-13.5 -39.5t-36 -26.5t-55.5 -2.5q-77 -12 -187 -15t-193.5 -2.5t-186 -15.5t-183.5 -54q-27 -33 -27 -67.5t20 -62t53 -52.5t67 -41t65 -26q62 -25 133.5 -44t161 -39.5t135.5 -32.5q-55 -44 -174.5 -96t-157.5 -74
q-8 -3 -26 -10.5t-30.5 -13t-31 -14t-31 -17t-26 -19t-20 -21.5t-10 -24t1.5 -28.5t16 -31.5q45 -19 94 -31t105 -18.5t96 -9t107 -4.5t98 -4q46 -8 77 -42t39.5 -75.5t-7 -84t-54.5 -67.5q-21 -16 -46 -26t-47 -15t-51.5 -4.5t-49.5 2.5t-53.5 9t-50 11.5t-51.5 14.5
t-48 13q-45 6 -94 26q-44 19 5 20q11 1 26 0q24 1 71.5 -3t78 -5t68 10t63.5 36q-6 25 -29.5 39.5t-57.5 19.5t-68.5 7t-73 5t-61.5 9q-31 3 -92.5 6t-99.5 6t-89.5 13.5t-93.5 27.5q-28 30 -31.5 64t11.5 63.5t43.5 59t57 50t58.5 37.5q136 86 331 147q-93 -4 -182 5
t-177.5 33.5t-168 72t-139.5 113.5q-34 55 -20 109.5t57 97.5t97 63q141 72 297.5 100t311.5 9q11 1 34.5 -0.5t45 -3t42 -1.5t31.5 4.5t8 13.5q-46 29 -107.5 46.5t-133.5 32.5t-115 30q-204 46 -250 56zM2047 1023q3 122 -27.5 243.5t-88 228.5t-140.5 201.5t-181.5 165.5
t-216 117.5t-240.5 59.5q-205 27 -409 -31.5t-370 -191.5t-258 -316q-97 -184 -113 -398t53 -418t214 -355q99 -108 229.5 -183.5t272 -112.5t292.5 -32t289 55q186 63 337 193t244 306.5t108 369.5q5 55 5 98z" />
</svg>