<svg xmlns="http://www.w3.org/2000/svg" xmlns:xlink="http://www.w3.org/1999/xlink" version="1.1" viewBox="-10 0 2068 2048">
   <path fill="currentColor"
d="M652 1913q-64 0 -117 -43q-55 -44 -74 -109q-20 -66 12 -137l140 -319h-405q-56 8 -102 -16q-48 -25 -74 -67q-27 -43 -31 -97q-5 -53 19 -101q274 -579 336 -757q21 -53 74 -90q48 -34 114 -42h1302q85 7 144 66q58 58 58 144v514q0 79 -58 137q-59 59 -144 59h-196
l-857 803q-63 55 -141 55zM544 282q-39 0 -55 39q-84 239 -336 764q-16 31 0 59t55 20h483l71 94v70l-157 359q-8 18 -4 35q4 20 20 31q15 11 36 11q19 0 34 -15l890 -811l69 -24h196q22 0 42 -15q19 -15 19 -40v-514q0 -24 -19 -43q-20 -20 -42 -20h-1302z" />
</svg>