<svg xmlns="http://www.w3.org/2000/svg" xmlns:xlink="http://www.w3.org/1999/xlink" version="1.1" viewBox="-10 0 2068 2048">
   <path fill="currentColor"
d="M1108 1764q-41 7 -88 7v-131h-130v131q-197 -15 -364 -120q-167 -104 -270 -270q-103 -164 -118 -361h132v-138h-132q15 -194 122 -361q102 -162 270 -266q163 -102 360 -117v131h130v-131q196 15 364 117q169 103 270 269q103 168 118 365h-132v131h132l-8 87
q65 15 124 44q22 -94 22 -196q0 -261 -128 -481t-346 -346q-219 -128 -480.5 -128t-481.5 128q-218 127 -346 346q-126 218 -126 481t126 481q128 219 346 346q219 127 482 127q101 0 196 -21q-30 -60 -44 -124zM1218 1290l-402 -197l-276 -554l554 277l196 401
q-44 29 -72 73zM1152 1151l-132 -262l-262 -131l132 262zM1406 1297q110 -72 234 -66q168 0 288 117t120 292q0 123 -70 226q-67 100 -182 149q-113 48 -236 26q-125 -23 -210 -113q-88 -92 -113.5 -212t21.5 -237q46 -117 148 -182zM1640 1822l248 -328l-110 -80l-204 270
l-116 -103l-88 109l176 139z" />
</svg>