<svg xmlns="http://www.w3.org/2000/svg" xmlns:xlink="http://www.w3.org/1999/xlink" version="1.1" viewBox="-10 0 2068 2048">
   <path fill="currentColor"
d="M1024 0q281 0 516 137q234 137 370 371q138 235 138 516t-138 516q-136 234 -370 371q-235 137 -516 137t-516 -137q-234 -137 -370 -371q-138 -235 -138 -516t138 -516q136 -234 370 -371q235 -137 516 -137zM148 1024q0 160 50 301q52 147 154 270l1242 -1243
q-198 -164 -454 -200t-488 74t-370 325q-140 217 -140 473h6zM1906 1024q0 -157 -54 -301q-53 -143 -156 -269l-1242 1242q197 164 454 200q256 36 488 -74t370 -325q140 -217 140 -473z" />
</svg>