<svg xmlns="http://www.w3.org/2000/svg" xmlns:xlink="http://www.w3.org/1999/xlink" version="1.1" viewBox="-10 0 2068 2048">
   <path fill="currentColor"
d="M634 7l14 -7h1278l6 7l108 108l8 8v1276l-8 14l-108 109h-6h-664v-15q0 -71 -50 -122h690v-1240h-1238v656q-65 -15 -138 -15v-663v-8zM1492 859l-252 252q-14 -19 -28 -43l-44 -37l202 -202l-324 -332l72 -71l374 367v66zM866 1219l122 -115l94 93l-152 152l14 21v137
h138v130h-138v8q-7 71 -36 136l174 173l-94 94l-152 -151q-51 72 -130 111q-81 40 -164 40q-85 0 -166 -40q-79 -39 -130 -111l-152 151l-94 -94l174 -180q-29 -59 -36 -122v-7h-138v-138h138v-137l20 -21l-158 -152l94 -93l122 115q29 -107 120 -180t206 -73q113 0 204 73
t120 180zM686 1161q-44 -44 -104 -54q-61 -10 -120 11q-58 21 -90 72q-32 50 -32 115h402q2 -86 -56 -144zM728 1824q72 -72 80 -179v-202h-534v202q7 108 84 183q77 76 184 83q106 -7 186 -87z" />
</svg>