<svg xmlns="http://www.w3.org/2000/svg" xmlns:xlink="http://www.w3.org/1999/xlink" version="1.1" viewBox="-10 0 2058 2048">
   <path fill="currentColor"
d="M1454 365l-366 -365h-128l-366 365l119 120l192 -184v174v82v55q0 45 9 92l19 101q6 18 18 54.5t18 55.5q36 100 96 178q63 82 124 150l127 138q62 62 119 142q56 79 87 164q32 88 32 205v156h237v-156q0 -117 -23 -229q-22 -108 -73 -191q-54 -89 -105 -156
q-57 -76 -118 -138l-119 -127q-58 -58 -105 -128q-51 -76 -77 -164q-28 -94 -19 -193l-9 -265l192 184zM859 1243q30 -40 55 -65q-64 -91 -100 -200l-19 -46q-44 63 -100 119l-120 127q-60 60 -118 134t-104 155q-51 90 -73 196q-23 112 -23 229v156h237v-156
q0 -117 32 -205q32 -87 87 -165q58 -81 119 -141z" />
</svg>