<svg xmlns="http://www.w3.org/2000/svg" xmlns:xlink="http://www.w3.org/1999/xlink" version="1.1" viewBox="-10 0 2068 2048">
   <path fill="currentColor"
d="M1704 134h-728l-46 22l-930 931v97l722 730h98l312 -313q136 75 290 75q156 0 294 -75t224 -201q86 -128 100 -282l8 -76q0 -155 -74 -294q-73 -136 -202 -226v-313zM1630 454q-103 -37 -208 -37q-28 0 -48 19q-20 18 -20 48q0 29 20 53q17 22 48 22q111 0 208 45v298
l-544 551q-22 8 -36 29l-276 284l-626 -627l856 -864h626v179zM1772 700q66 74 104 160q38 87 38 182q-8 40 -8 76q-16 111 -78 204q-64 93 -164 149q-101 55 -212 63q-113 8 -216 -37l514 -514l22 -52v-231z" />
</svg>