<svg xmlns="http://www.w3.org/2000/svg" xmlns:xlink="http://www.w3.org/1999/xlink" version="1.1" viewBox="-10 0 2068 2048">
   <path fill="currentColor"
d="M948 1028l-118 110q-27 -104 -114 -172q-88 -70 -196.5 -70t-197.5 70q-86 68 -114 172l-118 -110l-90 88l152 154l-20 12v132h-132v132h132v8q8 64 34 124l-166 166l90 90l146 -146q48 70 124 108q78 38 159.5 38t158.5 -38q76 -37 124 -108l146 146l90 -90l-166 -166
q27 -63 34 -132v-6h132v-126h-132v-132l-20 -12l152 -154zM520 1028q82 0 137 55t55 139h-386q0 -84 55 -139t139 -55zM782 1546q-14 103 -88 176q-71 72 -174 80q-105 -8 -178 -80q-72 -70 -80 -176v-194h520v194zM492 114l-104 56v594h132v-470l980 658l-330 220v160
l490 -326v-110zM1170 1588v-154l726 -482l-990 -658v-160l1142 762v110z" />
</svg>