<svg xmlns="http://www.w3.org/2000/svg" xmlns:xlink="http://www.w3.org/1999/xlink" version="1.1" viewBox="-10 0 2060 2048">
   <path fill="currentColor"
d="M1766 70v219h-149v-148h-1321v1173h1470v515l-79 71h-656v-141h586v-297h-1360q-21 0 -39 8q-37 22 -62 63v39v78v38q23 40 62 63q18 8 39 8h39v141h-39q-48 0 -93 -16q-102 -39 -141 -141q-16 -46 -15 -93v-1392q0 -47 15 -94q39 -103 141 -149q47 -16 93 -15h1430z
M594 289h-149v149h149v-149zM594 587h-149v140h149v-140zM445 875h149v149h-149v-149zM1625 352l-101 102l281 280h-923v149h938l-296 298l101 101l415 -415v-101zM664 1829l-180 219h-39v-437h437v437h-38z" />
</svg>