<svg xmlns="http://www.w3.org/2000/svg" xmlns:xlink="http://www.w3.org/1999/xlink" version="1.1" viewBox="-10 0 2068 2048">
   <path fill="currentColor"
d="M1978 141h-220v-141h-148v141h-1172v-141h-150v141h-218l-70 78v1759l70 70h1908l70 -70v-1759zM1906 1900h-1758v-1313h1758v1313zM1906 438h-1758v-149h1758v149zM438 1024h-150v149h150v-149zM288 1314h150v148h-150v-148zM438 1611h-150v148h150v-148zM734 1024h142
v149h-142v-149zM876 1314h-142v148h142v-148zM734 1611h142v148h-142v-148zM876 727h-142v148h142v-148zM1172 1024h148v149h-148v-149zM1320 1314h-148v148h148v-148zM1172 1611h148v148h-148v-148zM1320 727h-148v148h148v-148zM1610 1024h148v149h-148v-149zM1758 1314
h-148v148h148v-148zM1610 727h148v148h-148v-148z" />
</svg>