<svg xmlns="http://www.w3.org/2000/svg" xmlns:xlink="http://www.w3.org/1999/xlink" version="1.1" viewBox="-10 0 2068 2048">
   <path fill="currentColor"
d="M1042 583l363 364h-982v172h963l-344 346l117 126l500 -508v-118l-500 -509zM1023 2046q-284 9 -513 -131q-231 -141 -368 -373q-137 -231 -141 -514q-5 -281 137 -513q141 -231 372 -372t513 -141t513 141t372 372q140 229 140 513t-140 514q-142 232 -372 368
q-231 136 -513 136zM1023 1883q227 0 427 -114q199 -114 313 -313q114 -200 114 -428t-114 -427t-313 -313q-200 -114 -427.5 -114t-426.5 114q-200 114 -313 313q-114 199 -114 427t114 428q113 199 313 313q199 114 427 114z" />
</svg>