<svg xmlns="http://www.w3.org/2000/svg" xmlns:xlink="http://www.w3.org/1999/xlink" version="1.1" viewBox="-10 0 2068 2048">
   <path fill="currentColor"
d="M24 24q-24 16 -24 45q0 27 16 53l418 418q-145 105 -254 259q-106 151 -146 332q-10 33 6 61q17 28 46 36q30 8 58 -8t36 -49q41 -164 136 -295t234 -221l180 189q-116 115 -116 282t120 291q118 123 286 123t290 -123l606 607q24 24 57 24t55 -21q20 -20 20 -49t-16 -53
l-1048 -1049l-852 -852q-24 -24 -58 -24q-33 0 -50 24zM844 950l360 361q-72 73 -180 73q-107 0 -180 -78q-74 -77 -74 -180q0 -102 74 -176zM1024 360q-153 0 -294 41l122 131q91 -24 172 -24q305 0 538 188q232 188 306 475q8 33 36 49t58 8q29 -8 46 -36q16 -29 8 -61
q-58 -221 -202 -398q-142 -176 -352 -275q-206 -98 -438 -98zM1040 720l394 385q-9 -155 -118 -266q-109 -110 -276 -119z" />
</svg>