<svg xmlns="http://www.w3.org/2000/svg" xmlns:xlink="http://www.w3.org/1999/xlink" version="1.1" viewBox="-10 0 2068 2048">
   <path fill="currentColor"
d="M260 1058l-158 157l-102 -95l268 -268h96l274 274l-104 96l-150 -150q19 212 160 373q141 159 350 205q208 45 404 -44q195 -89 298 -281l102 75q-129 224 -366 329q-237 103 -486 45q-248 -58 -414 -258q-164 -196 -172 -458zM1672 996l-158 -157l-104 95l268 274h102
l268 -267l-96 -95l-158 150q-7 -256 -164 -452q-158 -200 -404 -264q-247 -65 -482 28q-238 94 -374 311l102 75q110 -184 308 -267q196 -82 404 -27q206 54 340 219q134 166 148 377z" />
</svg>