<svg xmlns="http://www.w3.org/2000/svg" xmlns:xlink="http://www.w3.org/1999/xlink" version="1.1" viewBox="-10 0 2068 2048">
   <path fill="currentColor"
d="M918 204h925l65 73v612q-61 -53 -137 -80v-196h-860l-117 116l-43 21h-619v824h699q16 70 43 132h-808l-65 -67v-1500l65 -73h685l51 21zM882 481h889l6 -138h-888l-51 -22l-116 -117h-584v415h584l116 -116zM1195 984q125 -88 269 -95q146 -8 277 54q131 61 215 186
q83 123 91 270q7 146 -58 277q-66 130 -186 215q-120 83 -265 91q-148 7 -277 -58q-134 -68 -212 -186q-81 -122 -91 -266q-11 -146 55 -277q66 -133 182 -211zM1486 1662l328 -430l-110 -88l-283 379l-175 -139l-88 103l234 189z" />
</svg>