<svg xmlns="http://www.w3.org/2000/svg" xmlns:xlink="http://www.w3.org/1999/xlink" version="1.1" viewBox="-10 0 2058 2048">
   <path fill="currentColor"
d="M1094 816l276 554l-554 -277l-276 -554zM1152 1151l-132 -262l-262 -131l132 262zM1772 1020q-15 196 -118 364q-103 171 -268 271q-167 101 -366 116v-131h-130v131q-197 -15 -364 -120q-167 -104 -270 -270q-103 -164 -118 -361h132v-138h-132q15 -194 122 -361
q102 -162 270 -266q163 -102 360 -117v131h130v-131q196 15 364 117q169 103 270 269q103 168 118 365h-132v131h132zM956 1909q262 0 480 -127q218 -126 346 -346t128 -481t-128 -481t-346 -346q-219 -128 -480.5 -128t-481.5 128q-218 127 -346 346q-126 218 -126 481
t126 481q128 219 346 346q219 127 482 127z" />
</svg>