<svg xmlns="http://www.w3.org/2000/svg" xmlns:xlink="http://www.w3.org/1999/xlink" version="1.1" viewBox="-10 0 2068 2048">
   <path fill="currentColor"
d="M500 289h446q140 0 254 66q112 65 180 184q66 119 66 250v32q0 131 -66 247q-66 113 -180 183q-113 70 -254 70h-70v-148h70q149 0 250 -106q102 -105 102 -246v-32q0 -148 -102 -250q-102 -101 -250 -101h-446q-150 0 -254 101q-104 102 -104 250v32q7 126 90 223
q82 97 206 121v149q-188 -22 -313 -164t-125 -329v-32q0 -133 66 -250q67 -118 180 -184q115 -66 254 -66zM1610 883v-149q187 22 312 165q126 142 126 328v32q0 131 -68 250q-67 119 -178 184q-114 66 -246 66h-454q-141 0 -254 -66q-114 -66 -180 -184q-66 -117 -66 -250
v-32q0 -132 66 -246t180 -180q115 -67 254 -67h70v141h-70q-149 0 -250 106q-102 105 -102 246v32q0 148 102 250t250 102h454q140 0 242 -102q101 -101 108 -250v-32q-7 -126 -90 -223q-83 -99 -206 -121z" />
</svg>