<svg xmlns="http://www.w3.org/2000/svg" xmlns:xlink="http://www.w3.org/1999/xlink" version="1.1" viewBox="-10 0 2068 2048">
   <path fill="currentColor"
d="M1540 510q-195 0 -341 125q-145 123 -167 313h-453q-32 -101 -121.5 -164t-202.5 -51q-114 12 -184 94t-70 195t70 195q69 81 184 98q113 16 203 -46q89 -63 121 -172h453q16 134 98 238t202 160q119 55 254 40q133 -15 243 -90q108 -74 167 -192q58 -117 51 -254
q-8 -137 -78 -246q-72 -112 -183 -176q-116 -67 -246 -67zM1540 1386q-158 0 -262 -106q-105 -107 -105 -258q0 -152 105 -257q106 -106 257 -106q150 0 258 106q106 104 106 257t-106 262t-253 109v-7z" />
</svg>