<svg xmlns="http://www.w3.org/2000/svg" xmlns:xlink="http://www.w3.org/1999/xlink" version="1.1" viewBox="-10 0 2068 2048">
   <path fill="currentColor"
d="M70 586h406l570 -562l126 46v1908l-126 46l-570 -562h-406l-70 -70v-734zM562 1338l462 460v-1548l-462 454l-54 22h-360v588h360zM2048 1024q0 180 -60 344q-58 163 -168 304l-108 -100q93 -116 144 -258q51 -140 44 -290q7 -305 -188 -546l108 -102q110 133 168 300
q60 170 60 348zM1758 1024q0 243 -148 438l-102 -102q102 -155 102 -340t-102 -332l102 -102q148 197 148 438zM1462 1024q0 125 -62 226l-110 -108q55 -118 0 -244l110 -100q62 102 62 226z" />
</svg>