<svg xmlns="http://www.w3.org/2000/svg" xmlns:xlink="http://www.w3.org/1999/xlink" version="1.1" viewBox="-10 0 2068 2048">
   <path fill="currentColor"
d="M1978 152h-806l-54 24l-94 94l-94 -94l-54 -24h-806l-70 78v1462l70 78h774l124 126h110l126 -126h774l70 -78v-1462zM954 1670l-32 -26l-46 -22h-728v-1322h696l110 110v1260zM1906 1622h-734l-54 22l-16 16v-1258l102 -102h702v1322zM734 598h-446v140h446v-140z
M734 1184h-446v142h446v-142zM288 886h446v150h-446v-150zM1758 598h-438v140h438v-140zM1320 886h438v150h-438v-150zM1320 1184h438v142h-438v-142z" />
</svg>