<svg xmlns="http://www.w3.org/2000/svg" xmlns:xlink="http://www.w3.org/1999/xlink" version="1.1" viewBox="-10 0 2068 2048">
   <path fill="currentColor"
d="M2048 388q-40 62 -94 116q-53 54 -118 102l8 54q0 125 -26 246q-27 118 -84 240q-72 167 -182 296q-112 131 -254 226t-310 142q-169 46 -344 46q-174 0 -340 -46q-162 -47 -304 -142q166 17 328 -26q165 -43 290 -152q-94 0 -184 -48q-89 -45 -146 -124
q-37 -55 -60 -118l38 8q78 7 148 -16q-69 -16 -132 -50q-62 -34 -110 -98q-94 -109 -94 -266q96 46 196 46q-85 -55 -140 -148q-22 -44 -40 -94q-22 -111 8 -210q7 -54 40 -102q78 95 178 172q196 162 438 226q122 30 250 40l-8 -48v-46q0 -95 32 -164q63 -164 226 -228
q77 -30 164 -30q85 0 164 34q79 35 140 98q142 -31 268 -102q-47 149 -188 228q127 -8 242 -62z" />
</svg>