<svg xmlns="http://www.w3.org/2000/svg" xmlns:xlink="http://www.w3.org/1999/xlink" version="1.1" viewBox="-10 0 2058 2048">
   <path fill="currentColor"
d="M1026 0q13 1 70 3t80.5 4t64.5 9.5t73 19.5q27 6 76 34t71 33q41 -20 87 -21.5t87 20t60 63.5q30 57 1 118t-91 81q22 81 29.5 165t8.5 217t2 168q-2 12 -2.5 22.5t0.5 18.5t6.5 15.5t8.5 12t13.5 10t14 7.5t18 6.5t18 5.5t19.5 5q47 29 30 71q-13 33 -49 41
q-40 10 -69 -25q1 28 4 92.5t4 101t0.5 90t-5 100.5t-13.5 92q-34 172 -125 276q6 7 16.5 18t20 20t20.5 22t16 24.5t7.5 27t-5.5 29.5q-17 29 -36 37.5t-39.5 -2t-38 -25t-39.5 -35.5t-36 -30q-153 69 -360 81q-165 16 -385 -58q-16 6 -37 21.5t-38.5 29.5t-37 24.5
t-40 7.5t-40.5 -23q-16 -16 -18.5 -34t4 -32.5t23.5 -32t29 -27t30 -22.5q-109 -93 -131 -215q-1 -100 -1 -284.5t-1 -227.5q4 -21 -3 -23.5t-20.5 6t-28.5 18t-30 8.5t-24 -20q-25 -28 -21.5 -51.5t28 -41t54 -28t55.5 -12.5q-3 -39 -12.5 -107.5t-15 -125.5t-3.5 -108
q-3 -58 -1.5 -84.5t9 -84t8.5 -84.5q-18 -17 -23.5 -22t-24 -23t-25 -27.5t-17.5 -28.5t-13.5 -33.5t-1.5 -34t9 -38.5q37 -121 250 -80q50 -35 108 -59t123 -37t119 -19t126 -10zM1052 23q-60 1 -122 6q-67 3 -128.5 15.5t-123 37t-112 67t-81.5 98.5q-40 78 -61 166
t-22.5 184t5 175.5t20.5 181.5q2 77 -3.5 219t-6.5 199q1 29 -0.5 82t-0.5 88.5t5.5 80.5t18.5 84.5t37 73.5q15 31 43.5 55t56 37t61 33.5t53.5 43.5q226 91 570 21q38 -6 72 -22.5t79 -46t62 -39.5q44 -37 75.5 -87t49 -108t27 -110.5t14.5 -116.5q1 -96 -6.5 -282.5
t-7.5 -276.5q-2 -46 -2.5 -128.5t-3 -138t-10.5 -125.5t-28 -133t-53 -119q-32 -61 -86 -105.5t-119.5 -68.5t-133 -33.5t-138.5 -7.5zM1224 102q81 -1 145.5 53t61.5 133q7 65 -32.5 119.5t-103.5 66.5q-66 18 -131 -7t-96 -86q-21 -33 -24.5 -72t10 -74.5t37.5 -65.5
t59.5 -48t73.5 -19zM1539 104q-24 2 -37 6.5t-17.5 10t1.5 16.5t12 18.5t21 23.5q2 3 3 4q35 -9 54 5.5t17.5 40t-19.5 47.5q7 54 34.5 60t57.5 -43q24 -33 20 -69t-22.5 -65t-53 -45.5t-71.5 -9.5zM1253 115q-44 -4 -87 14.5t-70.5 51t-40 75.5t4.5 88q15 48 55.5 80.5
t88 41.5t97 -5.5t81.5 -52.5q36 -38 40 -89t-16.5 -94.5t-62 -75t-90.5 -34.5zM759 125q47 -1 92.5 21t70.5 60q45 58 32.5 134t-71.5 120q-39 34 -94.5 39.5t-104 -13.5t-82 -62t-33.5 -97q-9 -53 17 -101.5t73.5 -76t99.5 -24.5zM441 133q-57 0 -97.5 43t-32.5 100
q1 42 40 72q36 28 60 8q16 -13 17 -45q-8 -15 -13 -31t-5.5 -33t12.5 -25.5t40 -3.5q25 -11 37.5 -28.5t11 -32t-19.5 -22.5t-50 -2zM767 138q-59 0 -85 16q-43 16 -70.5 54.5t-33 82.5t11 89t53.5 71q38 32 89.5 38t96.5 -11t78.5 -55.5t36.5 -89.5q14 -77 -42.5 -138
t-134.5 -57zM1142 244q38 1 54 36t-7 64q-39 44 -80 14q-31 -23 -31 -61q-1 -43 45 -52q9 -1 19 -1zM642 259q27 -2 51.5 12.5t26.5 39.5q2 61 -42 68q-36 5 -67 -25q-34 -34 -8 -67q12 -16 39 -28zM1000 421q34 0 50 8q14 16 56 53t59 64q14 23 5.5 37.5t-23.5 20.5t-31 13
t-19 15q15 42 -5 83q-20 43 -56 21q-10 -6 -20 -17q-17 18 -43.5 19.5t-43 -18t-6.5 -54.5q15 -24 7 -36.5t-22.5 -14t-32 -10.5t-22.5 -27q9 -54 51.5 -100.5t95.5 -56.5zM1081 490q-17 22 -45 26t-54.5 -2t-51.5 -9.5t-42.5 10.5t-22.5 52q11 25 31.5 32t45 2t50 -11.5
t51.5 -4t44 20.5q59 13 66 -25q6 -33 -25 -66q-20 -22 -47 -25zM1002 595q-29 5 -53 16q-12 14 -17 45.5t6 56t39 18.5q11 -8 17.5 -19t8.5 -29.5t2.5 -27.5t-1 -33.5t-2.5 -26.5zM1027 600q-20 73 4 122q41 22 55 -18q14 -37 -7 -74q-18 -35 -52 -30zM1662 1004
q-8 0 -11.5 6.5t-3 19.5t-0.5 15q-2 9 -2.5 16.5t2.5 14t6 11.5t10 9.5t12 8t14.5 7t14 5.5t14.5 5q22 0 27 -6.5t-3 -15t-14 -16t-6 -8.5t21 7q27 8 25 -7q-2 -22 -39 -51q-41 -33 -67 -21zM390 1021q-24 5 -39.5 9.5t-35 16t-30.5 26.5q-9 20 -3 25.5t16 4t19.5 -5
t7.5 -0.5t-22 17q5 42 43 27q34 -13 56 -51q28 -49 -12 -69zM1495 1874q-42 -3 -81 51q13 8 31 29t32 37.5t35.5 27t42.5 4.5q-2 -9 -9 -29q-13 -36 -12 -40q1 -3 9 9q6 8 15 24q28 14 26 -13q-1 -34 -33 -72q-29 -34 -56 -28zM567 1882q-20 6 -42 18t-41.5 30t-25 39
t7.5 44q13 -26 41 -51q10 -8 10 -4q-1 5 -21 32q-15 49 20 44q39 -5 98 -54q8 -7 13 -12q46 -7 19 -40q-23 -29 -62 -43q-9 -3 -17 -3z" />
</svg>