<svg xmlns="http://www.w3.org/2000/svg" xmlns:xlink="http://www.w3.org/1999/xlink" version="1.1" viewBox="-10 0 2058 2048">
   <path fill="currentColor"
d="M1880 501l-484 -486l-47 -15h-1134l-70 70v805h140v-734h884v515l70 71h516v148h148v-321zM1317 587v-446l438 446h-438zM215 1024l-70 70v884l70 70h1610l78 -70v-884l-78 -70h-1610zM1755 1759v141h-1470v-727h1470v586zM583 1611h-47v148h-102v-445h157q164 0 164 148
q0 62 -51 106q-50 43 -121 43zM575 1400h-39v133h39q78 0 78 -67q0 -66 -78 -66zM1169 1696q69 -69 62 -163q0 -219 -234 -212h-156v438h156q101 0 172 -63zM942 1674v-274h47q56 -7 98 35q43 43 43 101t-39 101q-40 45 -102 37h-47zM1590 1588h-140v171h-101v-445h257v86
h-156v109h140v79z" />
</svg>