<svg xmlns="http://www.w3.org/2000/svg" xmlns:xlink="http://www.w3.org/1999/xlink" version="1.1" viewBox="-10 0 2067 2048">
   <path fill="currentColor"
d="M1602 655h8q178 8 308 133q129 125 129 308q0 184 -129 313q-128 128 -308 128h-289v-148h289q116 0 199 -86t83 -203t-83 -203t-199 -94h-132l-16 -125q-16 -115 -106 -203q-88 -86 -210 -106q-120 -19 -225.5 44.5t-152.5 170.5l-47 110l-125 -24q-52 -10 -79 -15
q-155 8 -257 109q-76 77 -101 188q-24 111 19 211q44 101 137 163q95 63 202 63h367v148h-367q-111 0 -211 -43q-104 -45 -171 -128q-115 -122 -132 -293q-16 -168 69 -309q56 -94 145 -160q91 -67 199 -86q112 -20 219 11q69 -156 218 -242q148 -85 317 -61q167 24 288 144
q122 120 144 292v-7zM1361 1225l-195 -196v798h-141v-790l-188 188l-101 -110l312 -312h102l312 312z" />
</svg>