<svg xmlns="http://www.w3.org/2000/svg" xmlns:xlink="http://www.w3.org/1999/xlink" version="1.1" viewBox="-10 0 2068 2048">
   <path fill="currentColor"
d="M1452 530v-86q0 -172 -126 -298t-302 -126t-302 126q-124 124 -124 298v86h-126l-244 -244l-86 86l234 236l-6 8q-70 202 -72 416v94h-298v126h314h8q32 211 134 376l6 8l-288 292l86 86l274 -274l16 8q95 111 216 172q122 62 254 62q135 0 256 -58q122 -59 216 -170
l8 -6l282 280l86 -86l-290 -298v-8q111 -172 150 -384h320v-126h-306v-94q8 -213 -70 -416l-8 -8l236 -236l-86 -86l-244 244h-118zM714 530v-86q0 -126 90 -216t216 -90t216 90t90 216v86h-612zM1554 656v6q69 171 70 370q0 181 -50 334q-52 154 -138 264q-84 108 -192 168
q-105 58 -220 58q-112 0 -224 -58q-110 -59 -196 -168q-86 -111 -132 -264q-48 -158 -48 -334q0 -194 64 -370v-6h1066z" />
</svg>