<svg xmlns="http://www.w3.org/2000/svg" xmlns:xlink="http://www.w3.org/1999/xlink" version="1.1" viewBox="-10 0 2058 2048">
   <path fill="currentColor"
d="M1658 1038q-66 15 -140 15v29q0 195 58 376l52 148h-1332l50 -155q66 -185 66 -369v-302q0 -117 48 -228q48 -110 134 -188q86 -79 198 -114q112 -36 224 -22h22q36 -66 88 -118q-47 -16 -96 -22q-147 -15 -286 33q-138 47 -246 148q-105 97 -166 232q-60 130 -60 279
v302q0 162 -50 325l-82 243l60 96h486q0 110 81 191t195 81t195 -81t81 -191h486l66 -96l-82 -243q-52 -159 -50 -325v-44zM964 1885q54 0 96 -40q45 -41 38 -99h-274q0 58 42 99q40 40 98 40zM1518 913q168 0 290 -122t122 -290q0 -169 -122 -291t-290 -122
q-170 0 -292 122q-120 121 -120 291q0 169 120 290q122 122 292 122z" />
</svg>