<svg xmlns="http://www.w3.org/2000/svg" xmlns:xlink="http://www.w3.org/1999/xlink" version="1.1" viewBox="-10 0 2068 2048">
   <path fill="currentColor"
d="M2048 786h-160v394q-109 -76 -234 -76q-168 0 -282 114q-112 114 -112 276q0 164 112 282q113 116 276 114q165 -4 278 -118q114 -112 114 -272v-714h8zM1654 1256q92 0 163 71t71 168t-71 168t-168 71t-167 -70q-71 -71 -68 -168q3 -96 72 -168q66 -72 168 -72zM1964 4
l-1260 76l-74 76v1184q-109 -84 -236 -84q-169 10 -280 122q-114 112 -114 276t113 277t277 113q163 0 278 -112q114 -113 114 -282v-948l1106 -68v152h160v-706zM1888 164v312l-1100 74v-318zM394 1414q92 0 164 72t72 168q0 98 -72 164q-71 68 -168 68q-96 0 -164 -68
t-68 -164q0 -95 68 -168q68 -72 168 -72z" />
</svg>