<svg xmlns="http://www.w3.org/2000/svg" xmlns:xlink="http://www.w3.org/1999/xlink" version="1.1" viewBox="-10 0 2058 2048">
   <path fill="currentColor"
d="M218 2047h735q-87 -64 -149 -141h-586l227 -445h211q0 -71 15 -141h-147l280 -562v-610h298v618l8 23q68 -31 139 -47l-7 -8v-586h148v-148h-874v141h140v586l-571 1109q-17 39 -12 75q4 35 24 70q21 36 51 51q31 15 70 15zM1070 977q141 -102 320 -102q116 0 227 47
q108 46 191 129q80 80 125 188q43 104 43 222q0 181 -97 329q-98 148 -262 215q-165 67 -340 31q-174 -36 -301 -161q-125 -124 -160 -296q-35 -173 35 -336.5t219 -265.5zM1078 1774q132 124 312 132q140 0 259 -86l-618 -609q-78 109 -78 250q0 188 125 313zM1140 1101
l609 619q86 -118 86 -259q0 -180 -129 -309q-128 -128 -316 -128q-142 0 -250 77z" />
</svg>