<svg xmlns="http://www.w3.org/2000/svg" xmlns:xlink="http://www.w3.org/1999/xlink" version="1.1" viewBox="-10 0 2058 2048">
   <path fill="currentColor"
d="M541 663q94 -43 153 -128q58 -83 58 -192q0 -67 -25 -132t-73 -113t-113 -73t-131 -25q-110 0 -193 58t-124 153q-40 94 -22 197q18 104 91 175q74 73 175 95v692q-104 21 -175 94q-73 75 -91 176q-18 103 22 197q41 95 124 153t193 58q64 0 131 -26q65 -25 113 -76
q47 -50 73 -113q25 -60 25 -135q0 -104 -58 -190q-59 -87 -153 -123q-30 -15 -58 -23v-684zM519 1530q42 28 73 80q29 49 26 106q-3 53 -37 106q-33 51 -91 73q-57 22 -116 11q-58 -10 -106 -54q-47 -43 -58 -106t14 -117q25 -55 76 -91q52 -37 110 -37q57 0 109 29z
M410 547q-60 0 -110 -37q-51 -37 -76 -95q-25 -57 -14 -117q10 -58 54 -102q42 -43 106 -58q61 -15 120 11q57 25 91 73t37 106q3 60 -26 109q-30 50 -76.5 80t-105.5 30zM1983 1705q0 147 -98 245t-240 98t-241 -98q-98 -97 -98 -241t98 -245q99 -102 241 -102t240 102
q98 103 98 241zM1641 1909q88 0 149 -58q62 -59 62 -146t-62 -146q-61 -58 -145 -58q-85 0 -146 58q-62 59 -62 146t62 146q61 58 142 58zM1510 918q0 59 40 99t95 40t95 -40t40 -96q0 -54 -40 -94t-95 -40t-95 40t-40 91zM1510 343q0 52 40 91t95 39t95 -40t40 -95
q0 -54 -40 -94t-95 -40t-95 40t-40 99z" />
</svg>