<svg xmlns="http://www.w3.org/2000/svg" xmlns:xlink="http://www.w3.org/1999/xlink" version="1.1" viewBox="-10 0 2067 2048">
   <path fill="currentColor"
d="M1612 750q7 157 -43 303q-52 148 -144 272l622 615l-108 108l-615 -622q-219 179 -497 187q-281 7 -501 -159q-222 -168 -295 -436q-73 -267 35 -524q107 -255 353 -392q244 -137 521 -90t463 252q186 206 209 486zM812 1465q132 0 252 -51t213 -144l-8 8
q95 -95 148 -213q55 -122 55 -252q0 -181 -89 -331q-91 -153 -241 -242t-330 -89t-327 89q-146 88 -237 242q-89 150 -89 327q0 176 89 326q90 152 237 241t327 89zM447 742h722v140h-722v-140z" />
</svg>