<svg xmlns="http://www.w3.org/2000/svg" xmlns:xlink="http://www.w3.org/1999/xlink" version="1.1" viewBox="-10 0 2068 2048">
   <path fill="currentColor"
d="M1004 1472l-363 -364h982v-172h-963l344 -346l-117 -126l-500 508v118l500 509zM1023 0q282 0 513 141t372 372q140 229 140 513q0 285 -140 514q-142 232 -372 368q-230 135 -513 140q-283 4 -513 -136q-232 -142 -368 -372q-137 -231 -141 -514q-5 -281 137 -513
q141 -231 372 -372q230 -141 513 -133v-8zM1023 172q-228 0 -427 114q-200 114 -313 313q-114 199 -114 427t114 428q113 199 313 313q199 114 426.5 114t427.5 -114q199 -114 313 -313q114 -200 114 -428t-114 -427t-313 -313q-200 -114 -427 -114z" />
</svg>