<svg xmlns="http://www.w3.org/2000/svg" xmlns:xlink="http://www.w3.org/1999/xlink" version="1.1" viewBox="-10 0 2058 2048">
   <path fill="currentColor"
d="M694 531q-60 88 -154 132l-57 15v684q30 8 57 22q93 36 153 124q59 88 59 189q0 71 -26 135t-72 113q-48 51 -113 76q-67 26 -131 26q-110 0 -193 -58t-124 -153q-40 -94 -22 -197q18 -104 91 -175q74 -73 175 -95v-691q-103 -21 -175 -95q-74 -75 -91 -175
q-18 -103 22 -197q41 -95 124 -153t193 -58q66 0 131 25q67 26 113 72q45 46 72 114q26 67 26 131q1 108 -58 189zM592 1609q-29 -51 -77 -80q-47 -28 -105 -28q-59 0 -110 36t-76 91q-25 54 -14 117t58 106q48 44 105 54q60 11 117 -11q58 -22 91 -73t36 -105
q3 -57 -25 -107zM300 510q51 36 110 36q58 0 105 -29q47 -30 77 -80q29 -49 26 -110q-3 -57 -37 -105t-91 -73q-59 -26 -120 -11q-64 15 -106 58q-44 43 -54 102q-11 60 14 117q26 60 76 95zM1706 1369q102 21 175 95q103 103 102 240q0 104 -58 190q-59 87 -154 128
q-95 40 -196 18q-105 -23 -175 -95q-72 -73 -94 -175q-23 -102 18 -196q41 -96 127 -154q50 -36 124 -51v-488h131v488zM1786 1851q51 -52 59 -125q7 -71 -30 -131q-36 -57 -94 -80q-57 -22 -120 -11q-62 10 -106.5 54.5t-54.5 106.5q-11 64 11 116q23 56 80 95
q58 40 131 33q73 -8 124 -58zM1524 327l-226 227l95 101l226 -233l232 233l95 -101l-226 -227l226 -233l-95 -94l-232 225l-226 -225l-95 94z" />
</svg>