<svg xmlns="http://www.w3.org/2000/svg" xmlns:xlink="http://www.w3.org/1999/xlink" version="1.1" viewBox="-10 0 2068 2048">
   <path fill="currentColor"
d="M708 1324h162v-1220h-162v534h-532v-534h-176v1220h176v-524h532v524zM1862 1324h186l-262 -534q28 -10 76 -44q90 -67 120 -164q23 -54 22 -114q-2 -64 -18 -114q-16 -54 -42 -92q-28 -40 -72 -70q-66 -55 -140 -78q-46 -10 -76 -10h-502v1220h164v-502h304zM1720 648
q-32 10 -54 10h-348v-392h348q67 0 120 56q54 55 54 140q0 54 -10 88q-32 75 -110 98zM2048 1736h-2048v208h2048v-208z" />
</svg>