<svg xmlns="http://www.w3.org/2000/svg" xmlns:xlink="http://www.w3.org/1999/xlink" version="1.1" viewBox="-10 0 2058 2048">
   <path fill="currentColor"
d="M252 1242l342 -1093q12 -54 40 -99q24 -29 54 -40q36 -10 80 -10q18 0 28 1h450q10 -1 28 -1q44 0 80 10q28 10 52 40q29 45 42 99l346 1091q43 102 46 203q-5 66 -42 119q-68 78 -162 129l-396 261q-76 60 -162 89q-26 7 -58 7t-58 -7q-86 -30 -160 -89l-392 -261
q-90 -48 -160 -129q-37 -56 -42 -118q4 -108 44 -202zM1264 233q-15 -21 -44 -33q-34 -9 -66 -9q-16 0 -24 1h-214q-8 -1 -24 -1q-34 0 -66 9q-29 12 -44 33q-24 37 -34 83l-298 979q170 -88 356 -121l192 -655q1 -8 8 -13q7 -4 15.5 -4t15.5 5t9 12l194 655q187 33 356 121
l-298 -979q-9 -43 -34 -83zM1034 1412q-104 0 -183 -28.5t-103 -72.5q-14 47 -14 92v3v8q0 111 78 195q0 -15 4 -30q13 -30 42 -42q18 -6 30 -6q22 0 36.5 8t22 17.5t11 28.5t4 30.5t0.5 32.5v4q0 59 32.5 107t85.5 69q-16 -32 -16 -69v-1q0 -27 6.5 -47.5t23 -37.5
t28.5 -26.5t38 -25.5q76 -40 118 -112q26 -50 26 -103q0 -36 -10 -65q-110 72 -236 72q-4 0 -12 -0.5t-12 -0.5z" />
</svg>