<svg xmlns="http://www.w3.org/2000/svg" xmlns:xlink="http://www.w3.org/1999/xlink" version="1.1" viewBox="-10 0 2058 2048">
   <path fill="currentColor"
d="M1544 0l86 31l304 727l-32 86l-484 203l-86 -31l-22 -62l-524 219l-78 -32l-24 -54l-376 156l-84 -39l-110 -243l38 -86l368 -156l-24 -63l32 -77l522 -227l-22 -63l38 -86zM262 969l46 125l330 -133l-56 -125zM660 656l164 360l438 -188l-156 -351zM1184 289l274 602
l336 -149l-258 -601l-360 148h8zM1136 1188l448 712h-174l-274 -438v586h-148v-758l-272 610h-166l252 -571z" />
</svg>