<svg xmlns="http://www.w3.org/2000/svg" xmlns:xlink="http://www.w3.org/1999/xlink" version="1.1" viewBox="-10 0 2067 2048">
   <path fill="currentColor"
d="M148 78v69q0 47 27 78t90 87h8q75 60 108 100q63 78 63 171v79h-148v-79q0 -45 -27 -77q-26 -30 -89 -78l-8 -8q-79 -56 -110 -102q-62 -77 -61 -171v-69h147zM591 78v69q-7 46 20 78q27 31 90 87h8q75 60 108 100q63 78 63 171v79h-149v-79q0 -47 -23 -77
q-24 -32 -93 -78v-8q-74 -53 -117 -102q-55 -80 -54 -171v-69h147zM1028 78v69q0 48 23 78q24 31 93 87q78 63 118 100q55 79 53 171v79h-140v-79q0 -45 -27 -77q-29 -34 -89 -78l-8 -8q-77 -55 -109 -102q-62 -77 -62 -171v-69h148zM7 949l141 -147h1533q157 0 262 109
q104 108 104 261t-104 257q-105 105 -262 105h-93q-46 195 -202 316q-154 120 -358 120h-437q-163 0 -295 -78q-134 -79 -214 -210q-81 -132 -81 -289v-444h6zM1464 1386v-437h-1316v437q0 188 128 316t308 128h444q179 0 307 -128q129 -129 129 -316zM1612 949v437h69
q95 8 156 -58q62 -67 62 -157q0 -88 -62 -155t-156 -67h-69z" />
</svg>