<svg xmlns="http://www.w3.org/2000/svg" xmlns:xlink="http://www.w3.org/1999/xlink" version="1.1" viewBox="-10 0 2063 2048">
   <path fill="currentColor"
d="M971 2048h106l259 -260h366l82 -82v-366l259 -259v-114l-259 -260v-374l-74 -74h-374l-259 -259h-106l-252 259h-381l-82 82v366l-251 260v114l251 259v366l82 82h381zM744 1633h-334v-325l-16 -57l-236 -227l229 -228l23 -57v-325h334l48 -24l228 -228l235 228l49 24
h325v325l24 57l235 228l-235 227l-24 57v325h-325l-57 24l-227 229l-228 -229zM963 739q-17 24 -24 49l-9 49h-138v-9q9 -72 33 -129q5 -7 32 -49q15 -24 45 -41q26 -15 65 -28q36 -12 76 -12q65 0 111 20q39 17 77 53q33 31 45 77q11 41 11 93q0 50 -16 86q-14 32 -36 69
q-21 35 -45 65l-49 57l-33 48q-16 23 -16 50v72h-138v-80q0 -40 17 -74q15 -31 40 -57l90 -114q25 -25 36 -56q12 -33 12 -61q0 -32 -8 -53q-12 -22 -20 -33q-10 -14 -29 -24q-25 -17 -48 -17q-26 0 -49 16q-22 15 -32 33zM1092 1479h-129v-130h129v130z" />
</svg>