<svg xmlns="http://www.w3.org/2000/svg" xmlns:xlink="http://www.w3.org/1999/xlink" version="1.1" viewBox="-10 0 2068 2048">
   <path fill="currentColor"
d="M1191 1680h-176l-140 -372h-567l-140 372h-168l512 -1340h158zM819 1168l-204 -578q-10 -31 -19 -84h-10q-7 47 -18 84l-214 578h465zM2047 1680h-158v-150q-102 178 -297 178q-140 0 -224 -74.5t-84 -205.5q0 -269 317 -316l288 -38q0 -242 -195 -242q-168 0 -307 112
v-148q139 -93 326 -94q336 0 334 354v624zM1889 1196l-224 36q-110 9 -167 48q-55 37 -55 140q0 64 51 110q52 48 135 48q112 0 186 -80q74 -78 74 -200v-102z" />
</svg>