<svg xmlns="http://www.w3.org/2000/svg" xmlns:xlink="http://www.w3.org/1999/xlink" version="1.1" viewBox="-10 0 2068 2048">
   <path fill="currentColor"
d="M270 509h-110l-160 -168l110 -110l110 110l218 -227l118 117zM784 273h1264v161h-1264v-161zM784 746h1264v159h-1264v-159zM2048 1226h-1264v152h1264v-152zM784 1698h1264v160h-1264v-160zM160 982h110l286 -279l-118 -109l-218 219l-110 -110l-110 118zM270 1462h-110
l-160 -169l110 -109l110 109l218 -227l118 110zM160 1934h110l286 -278l-118 -110l-218 220l-110 -110l-110 110z" />
</svg>