<svg xmlns="http://www.w3.org/2000/svg" xmlns:xlink="http://www.w3.org/1999/xlink" version="1.1" viewBox="-10 0 2068 2048">
   <path fill="currentColor"
d="M1602 800h8q179 8 309 133q129 125 129 309q0 183 -129 312t-309 129h-1095q-110 0 -211 -43q-100 -42 -171 -129q-96 -103 -122 -238q-27 -137 16 -270t148 -223t239 -113q110 -23 219 7q70 -156 219 -242t317 -62t289 145q121 122 144 285zM586 1534h1024
q125 0 211 -86t86 -207t-86 -207t-211 -86h-133l-16 -125q-17 -119 -105 -204q-90 -86 -211 -106q-121 -19 -227 44.5t-152 171.5l-47 110l-125 -24q-52 -10 -79 -15q-157 0 -257 109q-78 78 -102 188q-24 108 20 211q43 102 137 164q93 62 202 62h71z" />
</svg>