<svg xmlns="http://www.w3.org/2000/svg" xmlns:xlink="http://www.w3.org/1999/xlink" version="1.1" viewBox="-10 0 2058 2048">
   <path fill="currentColor"
d="M206 683q0 -167 64 -317q66 -154 182 -263l-110 -103q-135 134 -210 310q-76 174 -76 369t76 369q75 176 210 310l110 -104q-116 -109 -182 -262q-64 -149 -64 -309zM366 683q0 125 52 250q50 122 146 219l102 -104q-71 -72 -110 -166q-40 -98 -40 -199t40 -199
q39 -94 110 -166l-102 -112q-96 96 -147 219t-51 258zM1508 1159l-112 -111q79 -69 120 -166q40 -97 40 -199q0 -101 -40 -199q-37 -93 -120 -166l112 -104q89 98 140 219q52 125 52 254t-52 254q-50 119 -140 218zM1708 0l-104 103q111 112 174 262q64 152 64 313
q0 164 -64 314q-64 151 -174 262l104 104q134 -134 210 -310q74 -172 74 -369t-74 -369q-76 -176 -210 -310zM1246 659q8 80 -32 143l-40 32l508 1150l-134 64l-112 -261h-824l-120 261l-134 -64l508 -1150q-41 -50 -56 -111q-17 -65 12 -128q28 -62 80 -99q48 -34 110 -39
q60 -4 112 20q50 24 86 71q36 46 36 111zM1008 604q-14 7 -32 24q-15 15 -20 35q-4 19 4 40q7 18 28 31q20 12 44 12t48 -20q24 -19 24 -48q0 -28 -16 -43q-18 -16 -36 -23q-21 -8 -44 -8zM1048 913h-40l-134 286h300zM1374 1644l-136 -295h-428l-126 295h690z" />
</svg>