<svg xmlns="http://www.w3.org/2000/svg" xmlns:xlink="http://www.w3.org/1999/xlink" version="1.1" viewBox="-10 0 2068 2048">
   <path fill="currentColor"
d="M1872 513l-408 -408l-100 -36h-818l-138 131v1640l138 138h730q-65 -59 -110 -131h-620v-1647h818l414 416v423q73 21 132 57v-480zM1108 1431h-284v139h270q0 -74 14 -139zM824 747h270v-270h138v270h270v138h-270v277h-138v-277h-270v-138zM1640 1162q-124 0 -226 69
q-101 69 -150 182q-47 112 -24 237q22 126 108 212q87 86 212 109t236 -25q114 -48 182 -150q70 -102 70 -226q0 -167 -120 -287q-122 -121 -288 -121z" />
</svg>