<svg xmlns="http://www.w3.org/2000/svg" xmlns:xlink="http://www.w3.org/1999/xlink" version="1.1" viewBox="-10 0 2068 2048">
   <path fill="currentColor"
d="M950 29q-168 0 -310 84q-142 83 -224 227q-80 141 -80 304q0 126 44 234q42 107 124 197l-504 505l94 95l512 -512q153 103 344 103q167 0 312 -85q140 -83 222 -226q80 -143 80 -308t-80 -307q-83 -145 -222 -227q-143 -84 -312 -84zM468 644q0 -124 66 -234
q66 -111 174 -176q110 -66 242 -66t242 66q109 66 176 176q66 110 66 237q0 129 -66 238q-66 108 -176 175q-110 66 -242 66t-242 -66q-109 -66 -174 -175q-66 -109 -66 -241zM1090 1726l-292 293h-104l-204 -205l96 -95l160 153l292 -292h96l300 292l292 -292h94l228 227
v191l-272 -272l-298 293h-96z" />
</svg>