<svg xmlns="http://www.w3.org/2000/svg" xmlns:xlink="http://www.w3.org/1999/xlink" version="1.1" viewBox="-10 0 2068 2048">
   <path fill="currentColor"
d="M0 781v-523l68 -75h702l46 22l126 119h806l76 76v344h158l66 90l-374 986l-68 45h-522q55 -62 90 -134h382l336 -846h-808q-44 -53 -104 -96l22 -23l44 -22h636v-277h-770l-52 -22l-120 -121h-598v367q-73 37 -142 90zM702 1379q0 89 -64 150q-61 59 -148.5 59
t-149.5 -59q-64 -61 -64 -150q0 -88 64 -149q64 -60 150 -60t146 60t60 149h6zM980 1379q0 135 -68 247q-67 113 -180 176q-112 63 -242.5 63t-245.5 -63q-116 -63 -180 -176q-64 -114 -64 -247t64 -247q62 -111 180 -179q116 -68 245.5 -68t243 68t179.5 179q68 112 68 247
zM486 1731q150 0 250 -105q102 -106 102 -251q0 -146 -102 -247q-100 -100 -246 -100q-145 0 -246 100q-102 100 -102 247t100 251q101 105 244 105z" />
</svg>