<svg xmlns="http://www.w3.org/2000/svg" xmlns:xlink="http://www.w3.org/1999/xlink" version="1.1" viewBox="-10 0 2068 2048">
   <path fill="currentColor"
d="M908 1549q77 46 154 43q78 -3 150 -35q71 -31 116 -94q102 -132 94 -305q8 -158 -86 -274q-46 -55 -109 -82t-133 -27q-123 0 -218 86v-406h-148v1118h148v-47zM1000 931q40 -22 86 -15q88 -7 134 62q55 78 54 180q7 119 -62 219q-23 32 -58 55q-36 24 -84 16
q-87 8 -144.5 -58.5t-49.5 -153.5v-86q-8 -95 54 -172q29 -29 70 -47zM336 775q-65 7 -136 28q-67 20 -122 58l-16 8v180l64 -55q86 -78 202 -86q54 0 90 47q36 46 36 109l-180 32q-109 8 -192 78q-82 70 -82 172q0 101 74.5 172t183.5 71q85 0 156 -47l46 -39v70h134v-493
q8 -125 -66 -215q-76 -90 -192 -90zM460 1221q0 103 -58 168q-59 67 -144 67q-46 0 -81 -32t-35 -78q0 -47 30 -78q65 -39 140 -47l148 -24v24zM1680 1565q62 32 140 24q111 8 204 -55l24 -8v-172l-70 47q-70 55 -160 55t-154 -79q-62 -78 -62 -187t70 -196q71 -85 172 -78
q78 0 142 39l62 39v-172l-24 -8q-78 -39 -164 -39q-88 0 -160 31q-74 32 -128 86q-118 135 -118 298q0 164 110 289q45 55 116 86z" />
</svg>