<svg xmlns="http://www.w3.org/2000/svg" xmlns:xlink="http://www.w3.org/1999/xlink" version="1.1" viewBox="-10 0 2068 2048">
   <path fill="currentColor"
d="M457 171q228 -153 500 -169q272 -17 522 106q248 122 399 349q151 228 168 500q16 272 -105 521q-122 248 -348 400q-227 151 -500 168q-273 16 -518 -101q-243 -116 -399 -348q-157 -232 -173 -505q-17 -272 101 -517q116 -243 353 -404zM542 1744q216 151 488 151
q235 0 433 -117q197 -117 315 -316.5t118 -432.5q0 -210 -93 -387q-94 -178 -248 -303q-157 -127 -358 -164q-204 -38 -395 13q-196 51 -345 185q-152 135 -231 324q-80 188 -67 386q11 194 114 374q100 177 269 287zM1467 474l108 109l-336 345q33 77 13 160
q-21 84 -93 135t-155 42q-84 -9 -147 -68q-65 -60 -72 -147q-8 -89 43 -160q50 -71 134 -92t168 12zM979 1087q43 25 84 9q42 -17 42 -63q0 -47 -30 -68t-62 -16q-36 5 -51 33q-17 30 -12 59q4 29 29 46zM1660 709l-126 118q41 91 41 202q0 151 -75 277l117 117
q100 -161 114 -352q13 -192 -71 -362zM1223 515q-91 -41 -193 -41q-155 0 -278 75q-129 78 -202 202q-76 128 -76 278q0 148 76 277l-109 117q-134 -203 -122 -441q11 -239 172 -420q158 -180 395 -231q235 -51 454 59z" />
</svg>