<svg xmlns="http://www.w3.org/2000/svg" xmlns:xlink="http://www.w3.org/1999/xlink" version="1.1" viewBox="-10 0 2058 2048">
   <path fill="currentColor"
d="M474 0h1100v51q0 90 -38 171q-38 80 -121 138v454q76 33 134 84q61 53 101 113q42 62 63 139q20 71 20 160v75h-629v504l-75 159l-85 -159v-504h-629v-75q0 -85 25 -156q28 -78 59 -138q85 -135 235 -202v-454q-75 -58 -117 -138q-43 -81 -43 -171v-51zM643 126
q14 28 24 50q34 43 75 68l51 33v647l-58 16q-94 34 -160 109q-30 30 -62 97q-30 63 -39 114h1100q-8 -46 -34 -114q-24 -64 -59 -97q-67 -74 -167 -109l-50 -16v-647l42 -33q24 -9 41 -26l34 -42q15 -22 25 -50h-763z" />
</svg>