<svg xmlns="http://www.w3.org/2000/svg" xmlns:xlink="http://www.w3.org/1999/xlink" version="1.1" viewBox="-10 0 2068 2048">
   <path fill="currentColor"
d="M577 1008l365 -363v982h171v-964l346 345l127 -117l-509 -501h-118l-508 501zM2048 1026q0 285 -140 514q-142 232 -372 368q-230 135 -513 140q-283 4 -513 -136q-232 -142 -368 -372q-137 -231 -141 -514q-5 -281 137 -513q141 -231 372 -372t513 -141t513 141t372 372
q140 229 140 513zM1877 1026q0 -228 -114 -427t-313 -313q-200 -114 -427.5 -114t-426.5 114q-200 114 -313 313q-114 199 -114 427t114 428q113 199 313 313q199 114 426.5 114t427.5 -114q199 -114 313 -313q114 -200 114 -428z" />
</svg>