<svg xmlns="http://www.w3.org/2000/svg" xmlns:xlink="http://www.w3.org/1999/xlink" version="1.1" viewBox="-10 0 2068 2048">
   <path fill="currentColor"
d="M2048 474v1100h-52q-91 0 -170 -42q-81 -43 -138 -118h-454q-34 76 -84 134q-56 63 -114 102q-62 42 -137 63t-161 21h-76v-630h-504l-158 -86l158 -74h504v-630h76q84 0 156 22q74 21 138 62q135 85 202 234h454q58 -74 138 -116q77 -42 170 -42h52zM1922 642
q-24 8 -50 26q-43 24 -68 74l-34 42h-646l-16 -50q-33 -101 -110 -168q-32 -24 -96 -54q-59 -28 -114 -38v1100q55 -10 114 -38q64 -30 96 -64q77 -68 110 -160l16 -56h646l34 50q9 25 26 42l42 32q17 18 50 26v-764z" />
</svg>