<svg xmlns="http://www.w3.org/2000/svg" xmlns:xlink="http://www.w3.org/1999/xlink" version="1.1" viewBox="-10 0 2058 2048">
   <path fill="currentColor"
d="M540 148q220 -149 484 -148q240 0 442 118q199 117 317 320q116 202 124 437q-8 280 -168 509q-158 225 -418 320v-8q69 -69 71 -155v-24q131 -70 222 -196q91 -128 125 -273q34 -149 8 -301q-27 -153 -106 -278q-133 -195 -343 -278q-209 -82 -434 -35q-223 46 -379 215
q-158 170 -192 395q-35 228 67 434q103 209 297 317v24q0 93 71 155v8q-236 -86 -391 -277q-157 -193 -188 -442q-32 -250 75 -477q106 -227 316 -360zM1220 1588q-17 23 -47 23v367q0 32 -19 51t-52 19h-156h-8q-28 -7 -46 -23q-17 -15 -17 -47v-367q-30 0 -50 -20
q-19 -19 -19 -50v-298q0 -63 43 -106t105 -43h140q63 0 106 43t43 106v298q0 30 -23 47zM1415 875q0 118 -70 219q47 71 47 149v16q68 -69 113 -168q42 -95 47 -207q4 -110 -39 -208q-45 -99 -113 -168q-103 -110 -243 -149q-139 -38 -277 1q-139 40 -239 140t-136.5 242
t7.5 278q44 138 145 239v-16q0 -85 47 -156q-70 -101 -67 -223q3 -120 82 -223q76 -100 196 -137q116 -36 235 8q118 44 191 140q74 99 67 223h7zM1173 875q0 63 -43 106t-106 43t-106 -43t-43 -105q0 -63 43 -106t106 -43q61 0 106 43q43 42 43 105z" />
</svg>