<svg xmlns="http://www.w3.org/2000/svg" xmlns:xlink="http://www.w3.org/1999/xlink" version="1.1" viewBox="-10 0 2068 2048">
   <path fill="currentColor"
d="M954 328q-289 181 -424 394q-132 211 -132 510h66q158 0 274 99t116 278q0 177 -108 290q-107 111 -282 111q-224 0 -344 -173q-120 -174 -120 -490q0 -440 196 -763q195 -323 582 -546zM2048 328q-299 181 -432 394q-132 213 -132 510h66q158 0 274 99t116 278
q0 177 -108 290q-107 111 -282 111q-225 0 -344 -173q-120 -174 -120 -490q0 -441 198 -763q200 -322 582 -546z" />
</svg>