<svg xmlns="http://www.w3.org/2000/svg" xmlns:xlink="http://www.w3.org/1999/xlink" version="1.1" viewBox="-10 0 2058 2048">
   <path fill="currentColor"
d="M1021 0q58 0 99 7q42 7 88 21q48 15 86 34q70 36 89 47q66 40 143 75q142 56 294 69q90 0 163 6v506q0 152 -37 279q-38 131 -102 250q-64 120 -150 222q-87 104 -192 194q-114 98 -218 170q-117 81 -229 148l-34 20l-27 -20q-112 -65 -232 -147q-117 -79 -219 -171
t-191 -194q-91 -105 -154 -222q-65 -120 -99 -253q-34 -132 -34 -270v-518q75 7 157 0t157 -24t147 -48q74 -32 140 -72q82 -55 170 -82q89 -27 185 -27zM1854 382q-143 -8 -284 -48q-143 -41 -262 -122q-63 -42 -136 -62q-71 -20 -151 -20q-78 0 -147 20q-70 20 -133 62
q-120 80 -263 122q-139 40 -290 48v389q0 125 34 239q36 122 92 226q60 112 140 201q82 91 171 174q80 75 191 153q109 77 205 134q111 -62 208 -130q103 -72 191 -154q94 -88 170 -177q79 -93 137 -201t93 -226q34 -114 34 -239v-389zM1369 696l-48 -54h-27l-253 259
l-252 -259h-28l-54 54v28l252 252l-252 253v27l54 55h28l252 -260l253 260h27l48 -55v-27l-253 -253l253 -252v-28z" />
</svg>