<svg xmlns="http://www.w3.org/2000/svg" xmlns:xlink="http://www.w3.org/1999/xlink" version="1.1" viewBox="-10 0 2063 2048">
   <path fill="currentColor"
d="M971 2048h106l259 -260h366l82 -82v-366l259 -259v-114l-259 -260v-374l-74 -74h-374l-259 -259h-106l-252 259h-381l-82 82v366l-251 260v114l251 259v366l82 82h381zM744 1633h-334v-325l-16 -57l-236 -227l229 -228l23 -57v-325h334l48 -24l228 -228l235 228l49 24
h325v325l24 57l235 228l-235 227l-24 57v325h-325l-57 24l-227 229l-228 -229zM825 1398h114l569 -570l-106 -113l-520 528l-212 -211l-105 106z" />
</svg>