<svg xmlns="http://www.w3.org/2000/svg" xmlns:xlink="http://www.w3.org/1999/xlink" version="1.1" viewBox="-10 0 2068 2048">
   <path fill="currentColor"
d="M1910 434q-24 -73 -66 -131l204 -210l-90 -89l-210 202q-59 -49 -130 -64q-162 -57 -324 8q-87 31 -154 105l-234 235l656 655l234 -234q72 -65 106 -153q65 -164 8 -324zM1780 709q-23 56 -72 104l-146 146l-470 -469l146 -146q50 -50 106 -73q128 -48 258 0
q55 31 102 77q44 44 76 101q49 131 0 260zM1044 1469l226 -235l-96 -97l-220 235l-282 -284l226 -233l-96 -97l-228 234l-88 -90l-236 235q-72 65 -104 150q-32 83 -32 170q0 83 20 154q18 65 68 133l-202 203l90 97l210 -203q58 42 130 65q73 24 156 24q85 0 170 -36
t150 -101l234 -235zM704 1769q-65 32 -129.5 32t-124.5 -28q-64 -29 -110 -73q-48 -45 -72 -105t-24 -126q0 -137 96 -235l146 -146l468 470l-146 146q-46 41 -104 65z" />
</svg>