<svg xmlns="http://www.w3.org/2000/svg" xmlns:xlink="http://www.w3.org/1999/xlink" version="1.1" viewBox="-10 0 2068 2048">
   <path fill="currentColor"
d="M1054 96q-72 58 -126 132q-66 0 -140 22q-109 36 -194 114q-86 78 -134 188q-48 111 -48 228v302q0 124 -28 251l-206 213l44 -139q52 -162 50 -325v-302q0 -150 60 -280q60 -133 166 -231q108 -101 246 -148q139 -48 286 -33zM1658 1157q-69 22 -140 29q14 137 58 272
l52 148h-898l-132 140h88q0 110 81 191t195 81t195 -81t81 -191h486l66 -96l-82 -243q-43 -121 -50 -250zM1060 1841q-44 44 -98 44q-56 0 -96 -40q-42 -41 -42 -99h274q7 58 -38 95zM1966 177q-35 -42 -96 -104l82 -73l96 96zM1090 855l-1090 1097l96 96l1098 -1099
q-59 -48 -104 -94zM1518 913q168 0 290 -122t122 -290q0 -169 -122 -291t-290 -122q-170 0 -292 122q-120 121 -120 291q0 169 120 290q122 122 292 122z" />
</svg>