<svg xmlns="http://www.w3.org/2000/svg" xmlns:xlink="http://www.w3.org/1999/xlink" version="1.1" viewBox="-10 0 2058 2048">
   <path fill="currentColor"
d="M214 1900h588v140l16 8h-674l-70 -70v-1908l70 -70h1134l48 15l484 486l22 53v376q-62 -84 -148 -141v-62h-516l-70 -71v-515h-884v1759zM1684 587l-438 -446v446h438zM1754 1173v141h150l70 78v586l-70 70h-884l-70 -70v-586l70 -78h148v-141q0 -123 86 -211
q86 -87 207.5 -87t206.5 87q86 88 86 211zM1356 1063q-38 47 -38 110v141h288v-141q0 -47 -24 -82q-23 -35 -62 -55q-39 -19 -86 -12q-46 8 -78 39zM1098 1462v438h734v-438h-734z" />
</svg>