<svg xmlns="http://www.w3.org/2000/svg" xmlns:xlink="http://www.w3.org/1999/xlink" version="1.1" viewBox="-10 0 2068 2048">
   <path fill="currentColor"
d="M0 0h1720q89 0 164.5 44t119.5 119.5t44 164.5v1393q0 89 -44 164.5t-119 119t-165 43.5h-1392q-89 0 -164.5 -43.5t-119.5 -119t-44 -164.5v-1721zM1047.5 919q-57.5 1 -109.5 20.5t-82 54.5q-41 38 -59 109t-10 142t39 115q40 60 132 104q7 4 36.5 17.5t46 22t36 22.5
t27.5 27q23 27 24 86t-18 83q-16 27 -62 27q-46 4 -68.5 -39.5t-17.5 -108.5h-186q-4 144 64 230t204 85q64 3 115.5 -17.5t84.5 -57t53 -85t23 -101t-8.5 -107t-37.5 -101.5q-24 -43 -84 -80.5t-130 -64.5q-46 -21 -65 -47t-19 -74q0 -94 76 -94q45 0 60 30q20 30 18 124
h178q4 -74 -14 -142.5t-56 -106.5q-29 -36 -81 -55t-109.5 -18zM1644 919q-57 1 -109 20.5t-81 54.5q-42 38 -60 109t-9.5 142t39.5 115q39 59 132 104q8 4 37.5 17.5t46 22t36 22.5t28.5 27q22 27 22.5 86.5t-18.5 82.5q-16 27 -60 27q-47 4 -70 -40t-18 -108h-186
q-4 144 64 230t204 85q64 3 115.5 -17.5t84.5 -57t53 -85t23 -101t-8.5 -107t-37.5 -101.5q-24 -43 -83.5 -80.5t-128.5 -64.5q-48 -21 -68 -47t-20 -74q0 -94 78 -94q45 0 60 30q20 30 18 124h178q3 -75 -14 -143.5t-54 -105.5q-30 -36 -82.5 -55t-111.5 -18zM430 920
q-60 1 -114.5 19t-89.5 51q-78 70 -78 205v448q-2 132 71 202.5t203 70.5q140 1 217.5 -86t66.5 -229h-196q3 82 -20 110q-23 30 -60 30q-86 -1 -86 -124v-389q0 -67 18 -97q16 -30 60 -33t66 26q25 25 22 117h196q4 -77 -14.5 -145.5t-59.5 -104.5q-33 -35 -86.5 -53
t-115.5 -18z" />
</svg>