<svg xmlns="http://www.w3.org/2000/svg" xmlns:xlink="http://www.w3.org/1999/xlink" version="1.1" viewBox="-10 0 2067 2048">
   <path fill="currentColor"
d="M200 658q149 -103 328.5 -66.5t280.5 186.5q102 152 66 332q-35 179 -187 280q-151 103 -330.5 66.5t-281 -187t-67.5 -331.5q35 -178 191 -280zM591 776q-68 -39 -148 -44q-76 -4 -148 36q-70 38 -109 108q-39 71 -36 148t44 148zM294 1274q66 37 148 42q79 4 148 -34
q70 -39 109 -110t36 -148t-44 -148zM1907 588v288q0 32 -23 50q-24 20 -55 20h-600l234 -234l-101 -110l-374 376v84l374 368l101 -102l-234 -234h600q94 0 156 -62t62 -156v-288h-140z" />
</svg>