<svg xmlns="http://www.w3.org/2000/svg" xmlns:xlink="http://www.w3.org/1999/xlink" version="1.1" viewBox="-10 0 2068 2048">
   <path fill="currentColor"
d="M574 1046l364 364v-984h172v966l348 -346l126 118l-510 501h-118l-508 -501zM2048 1028q0 -284 -140 -515q-141 -232 -374 -373q-230 -140 -514 -140t-514 140q-232 140 -368 373q-138 233 -138 515q0 281 137.5 514t368.5 369q233 137 514 137t514 -137
q232 -136 374 -369q140 -231 140 -514zM1876 1028q0 228 -114 428q-115 200 -314 314q-200 114 -428 114t-428 -114q-199 -114 -314 -314q-114 -200 -114 -428t114 -428q115 -200 314 -314q200 -114 428 -114t428 114q199 114 314 314q114 200 114 428z" />
</svg>