<svg xmlns="http://www.w3.org/2000/svg" xmlns:xlink="http://www.w3.org/1999/xlink" version="1.1" viewBox="-10 0 2064 2048">
   <path fill="currentColor"
d="M634 159h-16q-49 0 -92 17q-41 16 -72 50q-29 32 -46 75q-18 46 -18 93v210q0 47 -8 101q-6 44 -25 96q-15 43 -46 80q-26 32 -71 67q45 35 71 67q31 37 46 80q18 52 25 97q8 54 8 101v210q0 46 18 92q17 43 46 75q32 35 72 51q43 17 92 17h16v151h-16q-77 0 -143 -25
q-67 -26 -122 -80q-55 -55 -79 -122q-26 -72 -34 -126v-8q-9 -68 0 -134v-134q0 -49 -17 -94q-16 -42 -50 -66v-9q-26 -26 -68 -42q-43 -25 -92 -26h-9v-150h9q50 0 92 -21q39 -19 72 -51q30 -28 46 -70q17 -43 17 -94v-134q-9 -68 0 -134q9 -64 34 -134q24 -67 79 -122
q56 -56 122 -84q69 -29 143 -29h16v159zM1877 1023h16v-150h-16q-51 0 -92 -25q-40 -16 -68 -42v-9q-34 -25 -50 -66q-18 -46 -18 -94v-134q9 -68 0 -134v-9q-9 -59 -33 -125q-24 -67 -79 -122q-56 -56 -122 -84q-69 -29 -143 -29h-9v159h9q49 0 92 17q41 16 72 50
q29 32 46 75t17 93v210q0 47 8 101q6 39 26 96q15 43 46 80q28 34 70 67h-7q125 16 235 75zM1574 1108q-142 0 -260 80q-119 81 -172 209q-54 131 -29 273q26 144 126 244q101 100 243 126q142 25 273 -29q129 -53 210 -173q79 -116 79 -260q0 -193 -138 -331
q-139 -139 -332 -139z" />
</svg>