<svg xmlns="http://www.w3.org/2000/svg" xmlns:xlink="http://www.w3.org/1999/xlink" version="1.1" viewBox="-10 0 2067 2048">
   <path fill="currentColor"
d="M424 376q-31 -38 -70 -54q-70 -23 -156 -8q-53 7 -101 30l-47 24v156l31 -24q33 -23 74 -42q45 -20 86 -20q44 0 63 24q18 22 26 70l-139 16q-51 6 -90 28q-33 17 -59 46q-22 25 -30 58q-22 78 0 148t92 102q38 16 79 16q87 0 141 -70v54h147v-382q0 -54 -12 -98
q-11 -40 -35 -74zM330 650v38q0 28 -6 48q-16 46 -55 66q-40 20 -78 4q-15 -7 -24 -16q-8 -8 -12 -20q-4 -10 -4 -26v-32q0 -8 12 -20q11 -12 27 -20t40 -8zM1064 492q-7 -46 -31 -88q-25 -46 -66 -72q-43 -26 -98 -26q-53 0 -93 32q-25 18 -40 38v-358h-139v904h139v-40
q23 40 71 48q18 8 47 8q56 0 98 -23.5t69 -70.5q26 -44 43 -110q16 -61 16 -124q0 -64 -16 -118zM940 602q0 53 -8 94q-6 35 -24 62q-16 26 -31 32q-48 24 -86 8q-8 -9 -15.5 -17t-15.5 -15q-16 -16 -23 -40q-8 -25 -8 -54v-78q3 -10 8.5 -30.5t7.5 -31.5q8 -32 19 -50.5
t32 -31.5q19 -11 42 -4q47 -7 78 38q10 21 16 52q8 39 8 66zM206 1320q23 -22 47 -34t55 -12q29 0 54 8q25 7 47 22l54 40v-164l-15 -8q-64 -39 -133 -34q-75 4 -125 26q-53 24 -93 71.5t-59 104.5q-20 61 -20 124q0 66 20 122q19 54 55 94q37 39 86 62q49 24 105 24
q55 0 94 -12q38 -12 70 -28l15 -8v-132l-46 16l-79 32q-48 7 -93 -8q-26 -20 -43 -40q-20 -25 -31 -54q-12 -32 -12 -74t15 -78t32 -60zM1907 744h-586v-142h656l70 70v884l-70 70h-968l306 304l-110 100l-422 -420v-102l422 -430l110 110l-298 288h890v-732z" />
</svg>