<svg xmlns="http://www.w3.org/2000/svg" xmlns:xlink="http://www.w3.org/1999/xlink" version="1.1" viewBox="-10 0 2068 2048">
   <path fill="currentColor"
d="M1422 363h556l70 79v1312l-70 79h-1908l-70 -79v-1312l70 -79h556l124 -125l56 -23h436l56 23zM148 1685h1758v-1173h-514l-56 -23l-124 -126h-376l-124 126l-56 23h-508v1173zM368 661q-32 0 -56 19q-24 20 -24 50q0 31 24 55q24 23 56 20q29 -3 50 -24q20 -19 20 -51
q0 -31 -19 -50t-51 -19zM1024 801q124 0 210 86t86 211t-86 211q-85 85 -210 82q-124 -3 -208 -86q-82 -82 -82 -207q0 -126 82 -211q83 -86 208 -86zM1024 661q-180 0 -308 128q-130 129 -130 309t129 309t309 129t309 -129t129 -309t-130 -309q-128 -128 -308 -128z" />
</svg>