<svg xmlns="http://www.w3.org/2000/svg" xmlns:xlink="http://www.w3.org/1999/xlink" version="1.1" viewBox="-10 0 2068 2048">
   <path fill="currentColor"
d="M1693 744l355 75v410l-355 75l205 300l-294 287l-300 -198l-75 355h-410l-75 -355l-300 205l-287 -294l198 -300l-355 -75v-410l355 -75l-198 -300l287 -294l300 205l75 -355h410l75 355l300 -205l294 294zM1563 1181l342 -68v-171l-342 -75l-47 -109l191 -294l-116 -123
l-294 198l-116 -47l-68 -342h-171l-68 342l-109 47l-294 -198l-123 123l198 294l-48 109l-341 75v171l341 68l48 109l-198 294l123 123l294 -198l109 47l68 342h171l68 -342l116 -47l294 198l116 -123l-191 -294zM860 778q75 -48 164 -48q122 0 208 86t86 208q0 103 -68 184
q-67 80 -172 102q-104 21 -194 -26q-93 -49 -130 -147q-37 -99 -10 -199q27 -98 116 -160zM942 1147q42 20 82 20q61 0 102 -41t41 -99q0 -56 -31 -95q-30 -38 -81 -48q-50 -10 -99 14q-47 23 -68 72q-21 47 -4 98t58 79z" />
</svg>