<svg xmlns="http://www.w3.org/2000/svg" xmlns:xlink="http://www.w3.org/1999/xlink" version="1.1" viewBox="-10 0 2068 2048">
   <path fill="currentColor"
d="M1602 655h8q179 8 309 133q129 125 129 309q0 183 -129 312t-309 129v-149q116 0 199 -86t83 -203t-83 -203q-84 -87 -199 -94h-133l-16 -125q-17 -119 -105 -204q-90 -86 -211 -106q-121 -19 -227 44.5t-152 171.5l-47 110l-125 -24q-52 -10 -79 -15q-157 0 -257 109
q-78 78 -102 188q-24 108 20 211q43 102 137 164q93 62 202 62h71v149h-71q-110 0 -211 -43q-100 -42 -171 -129q-96 -103 -122 -238q-27 -137 16 -270t148 -223t239 -113q110 -23 219 7q70 -156 219 -242t317 -62t289 145q121 122 144 285zM836 1413l188 188v-798h149v790
l187 -180l101 102l-312 313h-102l-313 -313z" />
</svg>