<svg xmlns="http://www.w3.org/2000/svg" xmlns:xlink="http://www.w3.org/1999/xlink" version="1.1" viewBox="-10 0 2068 2048">
   <path fill="currentColor"
d="M1978 0q-368 0 -728 180q-288 148 -570 407h-610l-70 69v438l24 55l876 884l54 15h438l70 -70v-610q255 -279 406 -571q180 -360 180 -727zM148 727h384q-182 189 -330 399l-54 -55v-344zM976 1900l-54 -55q213 -151 392 -328v383h-338zM814 1735l-502 -500
q124 -185 290 -368q271 -281 554 -460q375 -235 744 -259q-23 366 -260 743q-179 282 -460 556q-181 165 -366 288zM438 2048v-148h-290v-289h-148v437h438zM1430 922q47 -70 28 -160q-20 -90 -94 -141q-75 -50 -164 -31q-91 20 -142 94q-50 74 -30 164q19 90 94 141
q74 50 164 31q88 -19 144 -98z" />
</svg>