<svg xmlns="http://www.w3.org/2000/svg" xmlns:xlink="http://www.w3.org/1999/xlink" version="1.1" viewBox="-10 0 2064 2048">
   <path fill="currentColor"
d="M1826 1654q140 -177 191 -401q51 -221 4 -444q-47 -224 -187 -401q-148 -202 -381 -311q-235 -110 -487 -95q-251 15 -471 145q-218 129 -344 347v-351h-147v514l70 71h514v-141h-319q149 -266 428 -378q280 -112 568 -31q290 81 468.5 322.5t170.5 542.5
q-7 299 -198 533q-190 233 -483 303.5t-565 -58t-413 -393.5l-124 70q118 227 334 374q218 148 476 172q255 24 498 -82q240 -105 397 -308zM1336 1514l109 -102l-421 -420v-553h-148v584l24 55z" />
</svg>