<svg xmlns="http://www.w3.org/2000/svg" xmlns:xlink="http://www.w3.org/1999/xlink" version="1.1" viewBox="-10 0 2058 2048">
   <path fill="currentColor"
d="M408 1294v546l138 138h1232l132 -138v-1224l-38 -103l-408 -408l-100 -36h-270v131h270l414 416v1224h-1232v-546h-138zM1502 747h-270v-270h-138v270h-270v138h270v277h138v-277h270v-138zM824 1431h678v139h-678v-139zM962 456l-292 291l-94 -95l174 -175h-406
q-88 0 -146 58t-58 146t58 146t146 58h64v139h-64q-146 0 -246 -99q-98 -98 -98 -240t98 -245q98 -102 246 -102h406l-174 -175l94 -94l292 292v95z" />
</svg>