<svg xmlns="http://www.w3.org/2000/svg" xmlns:xlink="http://www.w3.org/1999/xlink" version="1.1" viewBox="-10 0 2058 2048">
   <path fill="currentColor"
d="M215 587l-70 -79v-438l70 -70h1610l78 70v438l-78 79h-1610zM1317 141h-148v148h-149v-148h-148v148h-141v-148h-148v148h-149v-148h-149v297h1470v-297h-297v148h-141v-148zM215 1314l-70 -71v-438l70 -78h1610l78 78v438l-78 71h-1610zM731 875h-148v149h-149v-149
h-149v298h1470v-298h-297v149h-141v-149h-148v149h-149v-149h-148v149h-141v-149zM1825 2048l78 -70v-437l-78 -79h-1610l-70 79v437l70 70h1610zM285 1900v-289h149v148h149v-148h148v148h141v-148h148v148h149v-148h148v148h141v-148h297v289h-1470z" />
</svg>