<svg xmlns="http://www.w3.org/2000/svg" xmlns:xlink="http://www.w3.org/1999/xlink" version="1.1" viewBox="-10 0 2068 2048">
   <path fill="currentColor"
d="M1188 531q-73 48 -148 55q-79 8 -148 -28q-71 -36 -114.5 -102t-51.5 -144q-7 -77 32 -149q40 -70 102 -117q102 -63 218 -39q117 24 188 121q70 98 46 219q-24 122 -124 184zM1102 171q-32 -22 -70 -27q-38 -4 -74 11q-34 14 -60 51q-23 34 -28 74q-4 38 18 75
q20 36 58 59q45 31 106 15q58 -15 90 -62q31 -46 18 -106q-11 -58 -58 -90zM1486 171q71 -39 148 -32q77 8 132 63q41 41 56 90q14 51 2 106q-11 54 -46 98q-33 42 -90 66q-56 24 -122 12q-65 -12 -112 -59q-70 -77 -62 -180q7 -100 94 -164zM1556 406q22 23 53 23t51 -20
q20 -19 20 -51q0 -31 -20 -55q-18 -23 -50 -23t-50 23q-20 25 -20 55q0 32 16 48zM320 1679h266v149h-266q-68 0 -124 -51q-54 -50 -54 -129v-265q-55 0 -98 -47q-44 -46 -44 -110v-320q0 -101 74 -180q75 -79 184 -79h266q-56 63 -78 149h-188q-46 0 -81 35t-35 75v328h146
v414q0 16 8 24q8 7 24 7zM1392 726q-78 -77 -188 -79h-360q-109 0 -184 79q-74 79 -74 187v462q0 64 44 110q43 47 104 47v343q-7 71 48 125q39 40 94 47h296q65 -16 106 -62q42 -47 42 -110v-343q55 0 98 -47q44 -46 44 -110v-469q0 -102 -70 -180zM1320 1383h-148v492
q0 8 -8 16t-24 8h-232q-16 0 -24 -8t-8 -16v-492h-142v-477q-7 -39 28 -74q36 -36 82 -36h360q38 0 66 20q26 20 38 47t12 43v477zM1726 1828h-264v-149h264q9 0 20 -7q12 -7 12 -24v-414h148v-328q0 -37 -34 -74q-35 -36 -82 -36h-188q-24 -88 -78 -149h266q109 0 184 79
q74 79 74 180v320q0 64 -44 110q-43 47 -98 47v265q0 79 -54 129q-56 51 -126 51zM438 132q-70 0 -126 39q-53 38 -78 101q-23 62 -10 129q12 69 58 114q46 47 112 59t130 -12t98 -82q34 -59 34 -121q0 -95 -63 -161t-155 -66zM438 429q-30 0 -50 -20t-20 -51q0 -30 20 -55
q18 -23 50 -23t50 23q20 24 20 55q0 32 -20 51q-20 20 -50 20z" />
</svg>