<svg xmlns="http://www.w3.org/2000/svg" xmlns:xlink="http://www.w3.org/1999/xlink" version="1.1" viewBox="-10 0 2058 2048">
   <path fill="currentColor"
d="M1906 1314v-1244l-78 -70h-1430q-47 0 -94 15q-100 46 -140 149q-14 41 -22 94v1391q0 46 22 94q40 102 140 141q46 16 94 16h40v-141h-40q-21 0 -38 -8q-47 -23 -64 -63q-8 -24 -8 -39v-77q0 -15 8 -39q17 -39 64 -63q17 -8 38 -8h1360v297h-586v141h656l78 -71v-515z
M438 1314v-1173h1320v1173h-1320zM586 289h148v149h-148v-149zM586 587h148v140h-148v-140zM734 875h-148v149h148v-149zM806 1829l-180 219h-40v-437h438v437h-40z" />
</svg>