<svg xmlns="http://www.w3.org/2000/svg" xmlns:xlink="http://www.w3.org/1999/xlink" version="1.1" viewBox="-10 0 2068 2048">
   <path fill="currentColor"
d="M66 70l-66 64v408l66 74h408l72 -74v-408l-72 -64h-408zM138 478v-278h270v278h-270zM66 748l-66 72v408l66 66h408l72 -66v-408l-72 -72h-408zM138 1162v-276h270v276h-270zM0 1506l66 -74h408l72 74v408l-72 64h-408l-66 -64v-408zM138 1570v270h270v-270h-270z
M1566 616l-66 66v824l66 64h416l66 -64v-824l-66 -66h-416zM1908 1024h-268v-276h268v276zM1908 1432h-268v-270h268v270zM1106 1024h-422v138h422l-136 132l94 88l248 -248v-94l-248 -248l-94 94z" />
</svg>