<svg xmlns="http://www.w3.org/2000/svg" xmlns:xlink="http://www.w3.org/1999/xlink" version="1.1" viewBox="-10 0 2068 2048">
   <path fill="currentColor"
d="M1024 4q-276 0 -512 138q-236 139 -374 373q-138 235 -138 513q0 276 138 512q138 235 374 370q233 134 511.5 134t512.5 -134q236 -136 374 -370q138 -235 138 -512q0 -278 -138 -513q-138 -234 -374 -373q-236 -138 -512 -138zM1024 1893q-236 0 -436 -117
q-203 -118 -320 -315q-116 -196 -112 -433q3 -236 116.5 -437t315.5 -318q202 -118 435.5 -118t432.5 118q198 117 315 318t117 437q0 235 -117 433t-315 315t-432 117zM1268 566q-42 -41 -106 -67q-61 -25 -133.5 -25t-134.5 25q-64 26 -104 71q-45 49 -60 101
q-16 49 -26 114h194q0 -41 20 -71q21 -29 52 -43q28 -13 54 -13q27 0 46 4q20 4 38 17q15 11 24 34q10 21 10 55q0 32 -17.5 71t-42.5 71l-116 134q-27 36 -42 72q-17 38 -8 80v101h184v-75q0 -32 16 -68q16 -32 42 -68l60 -66q30 -30 58 -76q25 -43 42 -88q16 -48 16 -101
q0 -52 -16 -105q-17 -50 -50 -84zM916 1389h174v184h-174v-184z" />
</svg>