<svg xmlns="http://www.w3.org/2000/svg" xmlns:xlink="http://www.w3.org/1999/xlink" version="1.1" viewBox="-10 0 2068 2048">
   <path fill="currentColor"
d="M1024 70q-281 0 -515.5 137t-370.5 372q-138 236 -138 515v735l148 149h438l148 -149v-735q0 -118 86 -203q88 -86 204 -86t206 86q90 85 90 203v735l142 149h444l142 -149v-735q0 -281 -138 -516q-136 -234 -370 -371q-235 -137 -516 -137zM586 1829h-438v-437h438v437z
M1906 1829h-444v-437h444v437zM1462 1243v-149q0 -188 -125 -313t-305 -125q-179 0 -308.5 122t-137.5 293v172h-438v-149q0 -236 118 -438q117 -203 320 -320q202 -117 437.5 -117t438 117t324.5 321q120 203 120 437v149h-444z" />
</svg>