<svg xmlns="http://www.w3.org/2000/svg" xmlns:xlink="http://www.w3.org/1999/xlink" version="1.1" viewBox="-10 0 2058 2048">
   <path fill="currentColor"
d="M1794 702q0 -89 -48 -167q-50 -81 -129 -120q-85 -41 -171 -34q-89 8 -164 62t-105 140q-31 87 -17 174q13 90 75 154q60 63 150 92q-36 69 -96.5 106t-135.5 37h-253q-150 0 -259 102v-621q122 -19 195 -119q71 -98 61 -221q-11 -121 -103 -205q-91 -82 -214 -82
q-124 0 -215 82q-92 83 -102 205q-11 123 61 221q72 100 195 119v778q-123 27 -198 123q-76 97 -65 219q10 124 94.5 208.5t209.5 91.5q121 8 218 -68q94 -74 116 -198q21 -122 -41 -225q-62 -102 -185 -137q34 -67 96 -105t136 -38h253q123 0 222 -72t140 -188
q115 -13 197 -105.5t82 -208.5zM389 321q0 -83 54 -137t137 -54q82 0 136 54t54 133q0 78 -54 136t-136 58q-84 0 -137 -58q-54 -58 -54 -132zM770 1719q0 83 -54 137t-136 54q-83 0 -137 -54t-54 -133q0 -78 54 -137q53 -58 137 -58q82 0 136 58q54 59 54 133zM1474 893
q-82 0 -137 -58t-55 -136q0 -79 55 -133q56 -55 133 -55t137 55q58 54 58 133q0 78 -58 136t-133 58z" />
</svg>