<svg xmlns="http://www.w3.org/2000/svg" xmlns:xlink="http://www.w3.org/1999/xlink" version="1.1" viewBox="-10 0 2064 2048">
   <path fill="currentColor"
d="M461 171h-455v-171h591l90 90v591h-171v-337q-234 172 -313 459q-78 288 40 559q119 272 377 413t549 91q290 -49 486 -268q195 -217 217 -513q23 -296 -140 -536q-162 -240 -445 -332l45 -163q228 73 395.5 232t249.5 376q82 215 63 450q-18 233 -136 431
q-118 199 -313 331q-195 133 -426 164q-232 32 -454 -40q-221 -72 -391 -232q-165 -156 -249 -377q-82 -217 -64 -450q19 -234 136 -432q120 -202 318 -336z" />
</svg>