<svg xmlns="http://www.w3.org/2000/svg" xmlns:xlink="http://www.w3.org/1999/xlink" version="1.1" viewBox="-10 0 2068 2048">
   <path fill="currentColor"
d="M1110 1644h-162l-130 -344h-534l-120 344h-164l482 -1240h146zM766 1170l-198 -532q-9 -24 -16 -88q-10 62 -26 88l-190 532h430zM1282 1644v-1240h354q164 0 258 78t94 208q0 102 -60 180q-60 75 -156 112v8q122 9 198 90q78 84 78 210q0 155 -116 254
q-116 100 -288 100h-362zM1428 534v404h148q120 0 189 -60t69 -164q0 -180 -242 -180h-164zM1428 1068v448h198q127 0 198 -62q68 -60 68 -164q0 -222 -300 -222h-164z" />
</svg>