<svg xmlns="http://www.w3.org/2000/svg" xmlns:xlink="http://www.w3.org/1999/xlink" version="1.1" viewBox="-10 0 2058 2048">
   <path fill="currentColor"
d="M215 0h1610l78 70v735l-23 47l-125 133v993l-79 70h-1461l-70 -70v-1908zM731 141h-148v297h148v-297zM731 1900h586v-923l-125 -125l-23 -55v-656h-297v367l-70 79h-71v140h-148v-140h-79l-70 -79v-367h-149v1759h298v-141h148v141zM731 1611v148h141v-148h-141z
M731 1462v149h-148v-149h148zM731 1314h141v148h-141v-148zM731 1173v141h-148v-141h148zM731 1024h141v149h-141v-149zM731 875v149h-148v-149h148zM731 875h141v-148h-141v148zM1629 899l126 -125v-633h-438v633l118 117l23 55v954h148v-946z" />
</svg>