<svg xmlns="http://www.w3.org/2000/svg" xmlns:xlink="http://www.w3.org/1999/xlink" version="1.1" viewBox="-10 0 2058 2048">
   <path fill="currentColor"
d="M396 399l336 335l320 -327l-102 -102l-148 149v-235q0 -32 23 -55t47 -23h226v-141h-218q-94 0 -156 63q-62 62 -62 156v235l-158 -157zM1372 664h8q39 70 122 67q81 -3 132 -74q50 -69 50 -188q0 -120 -42 -184q-43 -66 -128 -66q-87 0 -134 86l-8 -305h-124v719h124
v-55zM1372 508v-54q0 -57 24 -87q23 -31 66 -31t66 35q24 36 24 102q0 67 -24 106q-23 38 -66 38t-66 -35q-24 -34 -24 -74zM1248 1721q-55 38 -166 38q-124 0 -198 -78q-74 -77 -74 -203q-8 -142 78 -223q86 -82 218 -82q94 0 142 23v149q-56 -39 -122 -39t-110 43
q-42 42 -42 117q0 76 38 118q39 43 106 43q66 0 130 -39v133zM512 875l-148 149v876l148 148h1024l148 -148v-876l-148 -149h-1024zM512 1024h1024v876h-1024v-876z" />
</svg>