<svg xmlns="http://www.w3.org/2000/svg" xmlns:xlink="http://www.w3.org/1999/xlink" version="1.1" viewBox="-10 0 2058 2048">
   <path fill="currentColor"
d="M317 2043q-37 -13 -49 -54.5t15 -70.5q66 -81 211 -255t220 -266q46 -73 62 -147q3 -27 4 -54.5t1.5 -72.5t0.5 -55q0 -59 0.5 -176.5t1.5 -175.5q-561 -3 -564 -3t-13 -0.5t-14.5 -0.5t-13 -1t-14 -3.5t-11.5 -6t-10 -9.5q-24 -24 -22 -60t28 -57q8 -7 19.5 -11
t19.5 -4.5t23 -1t21 -0.5q125 -2 383 -4q-30 -22 -159 -117.5t-196 -148.5q-13 -12 -17.5 -32t-0.5 -39q7 -35 42.5 -52.5t66.5 0.5q33 22 71.5 49.5t64 46.5t72 53.5t66.5 48.5q43 32 130.5 96t130.5 96q46 0 137.5 0.5t137.5 0.5q42 -32 161 -120.5t202 -150t163 -118.5
q29 -20 78 -2q29 14 38 47.5t-7 61.5q-5 9 -13 16.5t-20 16t-17 13.5q-103 80 -313 234q271 2 411 5q45 -2 65 27q21 26 15.5 62.5t-34.5 54.5q-10 6 -23.5 8t-24.5 1t-24 0q-237 2 -715 4h-159q0 50 -0.5 159.5t-1 192t-2.5 159.5q0 4 -0.5 9t-1.5 11t-1 9h173
q-4 -28 -5.5 -58t-1 -73t0.5 -59v-45.5t0.5 -45t3.5 -44.5q8 -34 44.5 -48.5t66.5 2.5q19 8 30.5 26.5t10.5 39.5q2 43 3.5 140t5.5 148q10 69 60 153q23 31 49 62t64 76t51 61q31 38 88.5 106.5t104 125.5t87.5 108q22 36 -2 77t-67 40q-31 1 -66 -38q-45 -50 -126 -147.5
t-92 -110.5q-25 -30 -75.5 -90t-75.5 -90q-2 263 -5 394q0 43 -25 63q-29 25 -69 16.5t-55 -43.5q-4 -15 -5 -32t-0.5 -40t0.5 -33q-1 -80 -2 -241t-1 -241h-163q-2 356 -4 536q0 2 -0.5 12.5t-0.5 14t-1.5 12t-3 13.5t-5 11t-8.5 10q-25 26 -65 23t-59 -34
q-7 -11 -9.5 -25.5t-1.5 -27.5t0 -27q-4 -244 -5 -366q-40 48 -111 133.5t-130 156t-112 132.5q-6 5 -16 16.5t-18.5 20t-17.5 14.5q-31 11 -60 2v1zM972 473q-91 -19 -146.5 -101.5t-37.5 -173.5q14 -82 82 -140t151 -58q81 -1 149 53t87 134q18 73 -14.5 146.5
t-97.5 112.5q-79 48 -173 27zM1061 311q32 -15 40.5 -53.5t-14.5 -65.5q-20 -29 -58 -31.5t-62 23.5q-25 22 -21 64q0 35 31.5 57.5t64.5 12.5q7 -1 19 -7z" />
</svg>