<svg xmlns="http://www.w3.org/2000/svg" xmlns:xlink="http://www.w3.org/1999/xlink" version="1.1" viewBox="-10 0 2068 2048">
   <path fill="currentColor"
d="M1265 784h615q-52 -227 -219 -396q-166 -168 -404 -220v616h8zM1265 8q293 51 510 266q214 213 264 510q9 84 9 160h-942v-944q84 0 159 8zM785 1104l160 160h775q-59 268 -274 450t-501 182q-210 0 -396 -106q-184 -104 -290 -290.5t-106 -395.5q0 -286 182 -502
q182 -215 450 -274v776zM945 2048q225 0 429 -102q201 -100 337 -282q134 -180 169 -400q17 -81 16 -160h-951v-952q-77 0 -160 16q-219 33 -400 168t-286 338q-106 204 -98 430q0 260 127 476q126 215 341 342q214 126 476 126z" />
</svg>