<svg xmlns="http://www.w3.org/2000/svg" xmlns:xlink="http://www.w3.org/1999/xlink" version="1.1" viewBox="-10 0 2068 2048">
   <path fill="currentColor"
d="M2037 1804l-551 -1653q-15 -36 -51 -66q-37 -30 -89 -23h-645q-43 0 -81 26q-37 26 -51 63l-559 1653q-15 36 -7 70q7 30 26 62q18 30 51 40q35 11 70 11h404q38 0 73 -25q36 -25 51 -70l89 -243l411 317q36 21 80 21h647q31 0 62 -14q34 -15 52 -41q19 -27 26 -58
q8 -33 -8 -70zM1266 1899q-13 0 -29 -7l-793 -588h418l147 -383l308 920v18q0 11 -7 22q-7 12 -22 15t-22 3zM1905 1899h-507q15 -44 0 -95l-558 -1653h506q5 3 15 7.5t15 6.5q15 8 15 22l558 1654q8 8 4 18q-5 12 -11 18l-15 15q-7 7 -22 7z" />
</svg>