<svg xmlns="http://www.w3.org/2000/svg" xmlns:xlink="http://www.w3.org/1999/xlink" version="1.1" viewBox="-10 0 2058 2048">
   <path fill="currentColor"
d="M1644 2048q-2 -2 -22 -20.5t-44 -39.5t-65.5 -48.5t-87 -51t-108 -43t-128 -27.5t-148 -1.5t-168.5 30.5q-58 18 -112.5 25t-97.5 3.5t-82 -13t-68.5 -25t-55.5 -33.5t-44.5 -36.5t-33.5 -36t-24.5 -31.5t-15.5 -22t-8 -8q-11 -57 9 -113.5t61.5 -107t95.5 -101t113 -105
t111 -109.5t93.5 -123t56.5 -138q-41 -66 -52.5 -132t0 -125.5t43.5 -135.5q23 -67 57 -37q26 24 40 85l108 -19q-9 -59 32 -105q27 -29 42 -20q6 4 6 15q0 61 35 110q32 -69 55 -117t55 -113.5t56 -109.5t49 -85.5t43.5 -62.5t30.5 -21q7 0 9 8t-1 22t-8.5 32t-13 40
t-15 43t-15 44t-12.5 41q-28 75 -60 177t-60 165q18 7 44 13.5t39.5 10.5t28.5 18t23 38q65 37 122.5 52.5t94.5 15t93.5 1t107.5 11.5q31 -22 53.5 -13t24.5 41q2 4 8 11t10.5 12.5t9 16.5t4 23.5t-3.5 33.5l-86 77q39 59 -1.5 94t-102.5 34t-95 -8q-30 -11 -65 -12.5
t-62.5 3t-65.5 4.5t-73 -9q-32 48 -72.5 72t-75 23.5t-64.5 -8t-47 -17.5l-17 -11q-3 11 -14.5 41.5t-21.5 58t-14.5 66t2 71t33.5 67t75 60.5q84 49 160.5 121.5t127.5 143t90.5 139.5t58 115.5t20.5 65.5zM286 1640q-97 -52 -151.5 -185t-42.5 -315q11 -70 51.5 -143
t91 -127t105 -91t96.5 -45q22 -4 66.5 -10.5t63.5 -10t52 -11.5t52.5 -17.5t43.5 -25.5t45 -38q-1 48 -0.5 84.5t15 78t48.5 89.5q-17 62 -60 125t-96 115.5t-113 105.5t-113.5 103.5t-94.5 100.5t-57.5 106t-1.5 111z" />
</svg>