<svg xmlns="http://www.w3.org/2000/svg" xmlns:xlink="http://www.w3.org/1999/xlink" version="1.1" viewBox="-10 0 2058 2048">
   <path fill="currentColor"
d="M1420 1117q-70 70 -113 164q-43 93 -43 196v234q0 54 -32 106q-31 50 -86 74q-30 16 -70 8h-235q-85 7 -140 -51t-55 -137v-234q0 -101 -39 -196q-38 -92 -110 -164q-94 -85 -148 -207q-55 -124 -55 -255q0 -180 94 -328q40 -80 97 -137t133 -101q70 -41 160 -66
q86 -24 180 -24q179 0 333 86q153 85 238 238q86 154 86 332q0 142 -51 259q-52 120 -144 203zM1115 1391h-321v320q0 17 12 32t35 15h235q16 0 28 -12q11 -11 11 -35v-320z" />
</svg>