<svg xmlns="http://www.w3.org/2000/svg" xmlns:xlink="http://www.w3.org/1999/xlink" version="1.1" viewBox="-10 0 2068 2048">
   <path fill="currentColor"
d="M1024 0q-281 0 -516 136q-236 136 -372 372q-136 235 -136 516t136 516q136 236 372 372q235 136 516 136t516 -136q236 -136 372 -372q136 -235 136 -516t-136 -516q-136 -236 -372 -372q-235 -136 -516 -136zM1297 1857h-14q-13 0 -27 -11t-14 -30v-239q0 -46 -14 -93
q-13 -45 -47 -71q91 -8 167 -37q78 -30 134 -86q55 -55 74 -129q26 -87 28 -185q0 -60 -24 -122q-24 -61 -65 -110q8 -30 11 -51q3 -24 3 -55q0 -32 -7 -61t-21 -65h-13q-37 0 -62 7q-32 9 -54 20l-62 34l-48 28q-218 -62 -436 0l-48 -28l-62 -34q-31 -16 -58 -21
q-30 -6 -58 -6h-20q-1 5 -6 29t-8 36q-7 29 -7 61q0 31 3 55q3 21 11 51q-41 49 -65 110q-24 62 -24 122q0 98 28 185q19 74 74 129q57 57 130 86t164 37q-21 21 -34 51q-15 34 -20 65q-49 20 -100 23q-52 3 -88 -23q-38 -28 -65 -75l-27 -27l-28 -34q-26 -10 -40 -17
q-22 -11 -42 -11l-34 7q-7 7 -7 14q0 6 14 20l55 41l14 14t13 14l41 75q19 60 78 95q58 34 127 28h41l48 -7v150q0 19 -14 30t-34 11h-7q-199 -62 -348 -211q-150 -150 -215 -349q-65 -200 -31 -409q35 -212 157 -382q123 -171 310 -267q188 -96 400 -96t400 96
q187 96 310 267q122 170 157 382q34 209 -31 409q-64 197 -215 348t-348 212z" />
</svg>