<svg xmlns="http://www.w3.org/2000/svg" xmlns:xlink="http://www.w3.org/1999/xlink" version="1.1" viewBox="-10 0 2068 2048">
   <path fill="currentColor"
d="M382 62l294 286l-112 96l-168 -162v602h-132v-616l-168 176l-96 -96l286 -286h96zM396 1766v-602h-132v602l-168 -162l-96 96l286 286h96l294 -286l-96 -96zM1152 884h-270l-68 -66v-280l68 -64h270l74 64v280zM946 746h140v-132h-140v132zM1982 884h-410l-74 -66v-410
l74 -74h410l66 74v410zM1636 746h280v-272h-280v272zM1152 1574h-270l-68 -64v-280l68 -66h270l74 66v280zM946 1434h140v-138h-140v138zM1982 1714h-410l-74 -74v-410l74 -66h410l66 66v410zM1636 1574h280v-278h-280v278zM1498 1296h-272v138h272v-138zM1498 614h-272v132
h272v-132z" />
</svg>