<svg xmlns="http://www.w3.org/2000/svg" xmlns:xlink="http://www.w3.org/1999/xlink" version="1.1" viewBox="-10 0 2068 2048">
   <path fill="currentColor"
d="M876 144l-142 148v438h142v-438h1030v360l24 -24l118 118v-454l-142 -148h-1030zM1024 442h296v288h-296v-288zM586 1176h-298v290h298v-290zM148 878l-148 150v734l148 142h1024l148 -142v-734l-148 -150h-1024zM148 1762v-734h1024v734h-1024zM1024 1318h-290v296h290
v-296zM1758 442h-148v562l-172 -172l-102 110l296 296h102l298 -296l-102 -110l-172 172v-562z" />
</svg>