<svg xmlns="http://www.w3.org/2000/svg" xmlns:xlink="http://www.w3.org/1999/xlink" version="1.1" viewBox="-10 0 2058 2048">
   <path fill="currentColor"
d="M1025 0q55 -1 96 41t36 97q123 65 214 230q60 116 97 245.5t50 262.5t8 264t-28 265q-2 5 -18 92q-18 98 -49 99q-13 0 -30 -16q120 -417 40 -838q-18 -84 -38.5 -152t-53 -143t-80.5 -137t-109 -107q-15 9 -22 13t-26 14.5t-31.5 15t-32.5 11t-35 5.5t-32 -4t-31.5 -14
t-26.5 -29q-26 -29 -29.5 -68t12.5 -72t48.5 -55t70.5 -20zM1025 54q-35 -1 -57.5 26t-19 61.5t33.5 53.5q52 35 91 -5q31 -32 25 -77q-6 -50 -57 -58q-7 -1 -16 -1zM553 423q31 0 46 1q9 1 38 3q103 5 118 26q11 16 -12 41q-64 -9 -108.5 -12.5t-103 -3t-110.5 12.5t-99 35
q-80 36 -112 123t-5 172q-1 8 1.5 18t8 22.5t10 21t12.5 24.5q14 25 19.5 37.5t9.5 29.5t-5.5 24t-32.5 7q-27 -42 -46.5 -86.5t-31.5 -92.5t-11 -98t17 -96q21 -57 64.5 -99.5t99 -65.5t114.5 -34t119 -10zM1503 425q245 4 349 137q39 51 51 114.5t-0.5 127t-37 121.5
t-60.5 111q-4 6 -17 26q-55 85 -82 94q-23 7 -35 -30q39 -49 65 -86.5t54.5 -87t44.5 -100.5t19 -103q10 -90 -52.5 -161t-153.5 -90q-13 -6 -93 -14q-73 -7 -74 -27q0 -13 22 -32zM1271 449q19 0 26.5 19.5t-9.5 30.5q-363 85 -665 309q-75 58 -134.5 111.5t-119 121
t-102 143.5t-63.5 157q-16 28 -14 47t13.5 27.5t30.5 17t37 15t34.5 22t21.5 37.5q14 28 11.5 59.5t-18 56t-40 43.5t-54 23t-60.5 -6q-39 -10 -63 -42.5t-28 -70t13 -74t53 -54.5q-3 -63 12.5 -126.5t47 -122.5t66.5 -108.5t80 -102.5q182 -199 421 -337t503 -196z
M1024 982q44 -1 71.5 31t24.5 74.5t-40 66.5q-61 43 -109 -1q-37 -34 -37 -87q1 -60 53 -78q17 -6 37 -6zM383 1138l10 4q226 240 541 387q71 32 135 56.5t140 45.5t145 31t145 8.5t146 -17.5q37 0 53 -13t16.5 -35.5t-2 -46.5t4.5 -50.5t30 -42.5q35 -38 88 -38.5t93.5 33
t43.5 84.5q6 39 -13.5 73.5t-51.5 53.5t-72 19t-71 -25q-126 71 -323 60q-251 -19 -492.5 -128t-452.5 -283q-6 -9 -20.5 -22t-30 -25t-32.5 -26t-28.5 -27t-18.5 -26.5t-3 -26t20 -23.5zM205 1481q-35 -1 -57.5 26t-19 61.5t33.5 53.5q52 35 91 -5q31 -32 25 -77
q-6 -50 -57 -58q-7 -1 -16 -1zM1840 1481q-38 0 -60 28t-15.5 63.5t39.5 52.5q54 30 89 -13q29 -35 19 -79q-11 -50 -67 -52h-5zM641 1597l15 5q7 14 23.5 51t25 54t25 49.5t30 52.5t31.5 45t38 45t43 37q74 63 172.5 54.5t163.5 -79.5q7 -3 14 -9.5t15 -17t13 -18t15 -21.5
q10 -16 15.5 -24t15 -20t15.5 -15.5t14.5 -5t16 5t14.5 19.5q-50 91 -123 156.5t-163 82.5q-62 11 -123 -7t-110 -57.5t-87.5 -88t-68.5 -104.5q-4 -16 -22 -47.5t-30.5 -55.5t-12 -49t24.5 -38z" />
</svg>