<svg xmlns="http://www.w3.org/2000/svg" xmlns:xlink="http://www.w3.org/1999/xlink" version="1.1" viewBox="-10 0 2068 2048">
   <path fill="currentColor"
d="M2016 362l-116 -24l-304 303l-178 -179l304 -311l-24 -117q-98 -30 -206.5 -30t-205.5 42q-103 44 -180 121t-120 183q-44 104 -44 218q0 113 40 214q-465 464 -896 911q-47 64 -42.5 144.5t66.5 136.5q31 31 66 50q36 20 74 20q69 0 124 -54q160 -145 444 -437
q249 -241 466 -467q104 47 212 47q109 0 210 -43q99 -42 178 -125q76 -79 122 -183q42 -97 42 -210q0 -110 -32 -210zM288 1889q-6 7 -22 7h-16q-20 0 -24 -3q-7 -4 -18 -20q-14 -18 -20 -40q-8 -23 0 -38q315 -330 872 -888q22 32 46 58q28 32 54 51q-582 597 -872 873z
M1908 564q7 179 -116 300q-124 121 -296 121q-170 0 -288 -118q-93 -93 -118 -218q-23 -123 24 -240q31 -78 90 -141q56 -61 136 -93q76 -31 156 -31h38l-264 273v100l272 273h100l266 -265v39zM334 829h220l108 109l94 -101l-94 -102l8 -241l-30 -62l-422 -281l-84 16
l-118 116l-16 94l274 421zM196 299l334 226v163h-156l-218 -342zM1230 1319l102 -100l452 466q62 62 62 149q0 86 -62 148q-46 46 -106 58q-57 12 -120 -11q-41 -17 -62 -47l-460 -468l102 -101l452 468q15 15 34 23q20 7 38 0q20 -8 28 -19q7 -12 12 -24q4 -11 4 -27
q0 -17 -4 -28q-5 -11 -12 -19z" />
</svg>