<svg xmlns="http://www.w3.org/2000/svg" xmlns:xlink="http://www.w3.org/1999/xlink" version="1.1" viewBox="-10 0 2068 2048">
   <path fill="currentColor"
d="M612 70l-66 64v212l66 -8l74 8v-146h1230v686h-240l-174 174v-174h-278l8 72l-8 66h146v204l118 52l246 -256h248l66 -66v-824l-66 -64h-1370zM874 1360q102 -65 162 -172q58 -104 58 -232t-66 -238q-66 -109 -176 -174q-109 -66 -236.5 -66t-239.5 66q-113 66 -174 174
q-62 111 -62 238q0 128 58 232q59 108 152 172q-94 43 -174 124q-81 80 -132 196q-29 82 -36 168l-8 130h140v-72q0 -94 36 -178t102 -154q65 -68 152 -106q86 -36 182 -36h8q97 0 182 36q88 38 154 106q66 70 102 154t36 178v72h138l-8 -138q-7 -78 -44 -160
q-43 -117 -122 -196q-81 -81 -184 -124zM612 1294q-139 0 -236 -98q-100 -101 -100 -242q0 -142 100 -240q99 -98 240 -98q142 0 240 98t98 240t-98 242q-97 98 -244 98z" />
</svg>