<svg xmlns="http://www.w3.org/2000/svg" xmlns:xlink="http://www.w3.org/1999/xlink" version="1.1" viewBox="-10 0 2058 2048">
   <path fill="currentColor"
d="M1706 1427q29 14 44 37q17 24 24 58l14 41q8 28 28 62l20 27q14 14 24 34t10 44q0 25 -10 42q-8 15 -32 30q-21 14 -46 21l-48 27q-41 19 -72 44q-39 32 -66 58q-38 38 -74 62q-20 10 -52 24q-22 10 -50 10q-58 0 -94 -20q-37 -21 -64 -76l-20 -20l-28 -7l-198 -7
q-50 0 -88 7l-88 14q-7 0 -14 13l-28 35q-15 11 -48 27q-28 14 -64 14q-39 0 -72 -7q-35 -8 -68 -28q-64 -28 -124 -41l-170 -27q-26 -10 -38 -17q-16 -10 -26 -30t-10 -48q0 -29 10 -55t10 -62l-8 -88q0 -48 24 -72q24 -23 72 -37q22 -8 34 -21l34 -27l48 -62l8 -13l-8 -48
q0 -68 24 -137q25 -70 58 -133q38 -70 76 -127q30 -46 82 -115q54 -66 84 -150q32 -85 32 -178l-8 -75v-82q0 -81 18 -144q15 -57 54 -108q38 -49 98 -72q62 -24 152 -24q94 0 156 41q60 39 92 106q31 61 42 143q10 74 10 161v88q7 71 28 130q21 30 46 68l96 123
q52 66 90 130q42 73 68 143q26 75 26 164q0 67 -20 130zM866 389q15 0 24 7q11 7 18 14l6 27v27l-6 14l-28 34q-5 5 -20 14l-42 34q-14 14 -14 24q0 9 14 17q21 14 28 41l28 41q8 23 26 37q22 17 62 17h8q39 0 74 -20l96 -55l74 -54l8 -28q0 -14 -8 -20l-12 -14l-34 -7
q-25 -9 -46 -21q-17 -10 -44 -20l-6 -6v-14v-48q0 -14 7 -24t16.5 -17t24.5 -7q33 0 46 24q14 25 14 41q0 17 -6 31q-6 16 -6 20q0 6 6 14h14q20 0 30 -10t10 -31l-6 -48q-11 -40 -18 -55q-10 -28 -30 -40q-21 -14 -48 -14q-54 0 -76 24q-19 22 -26 78l6 62l-34 -7
q-13 -7 -26 0h-14q-14 0 -14 -7v-41q-6 -13 -14 -41q-4 -17 -20 -37q-14 -17 -34 -17q-22 0 -32 10q-6 6 -20 24q-10 13 -10 34l-6 34q0 28 12 48l8 34q6 7 14 7q7 0 12 -7q8 -9 8 -14h-6q-7 0 -14 -6l-14 -35q-8 -25 6 -47q14 -21 34 -21zM648 1946q29 0 48 -7
q22 -7 40 -17q20 -10 32 -31q9 -18 12 -44q4 -26 -2 -41q-5 -16 -20 -31l-90 -123l-68 -109q-7 -15 -28 -47q-14 -22 -30 -35q-17 -14 -38 -11q-16 2 -40 18l-68 68q-20 19 -48 30q-29 12 -44 24q-18 14 -18 42l8 81q0 29 -7 51t-7 48q0 23 16 34q17 10 46 18l108 20l54 7
q23 9 56 27zM1016 1823q30 0 62 -7q60 -13 124 -41q22 -11 54 -34v-7l14 -55l34 -211q0 -26 10 -48q12 -24 30 -38t42 -30v-7q0 -8 6 -21l14 -20q5 -5 20 -14l20 -13l-34 -157l-12 -41q-14 -26 -28 -41l-48 -69q-6 -13 -6 -27l-8 -27q-11 -40 -34 -96l-20 -48l-20 -34
q-14 -20 -32 -20q-15 0 -50 20l-138 89q-35 14 -64 14q-30 0 -54 -17q-25 -17 -44 -45l-36 -41q-20 -20 -27 -20t-7 13v48l-54 89q-21 52 -28 102l8 28q0 14 6 27l-34 48q-40 56 -54 120q-14 67 -14 126v68v27q20 0 42 14l46 27q26 18 56 48l40 54q27 19 34 48l14 41
q0 26 -16 45q-16 16 -38 23q13 26 40 48q29 22 54 35q24 12 62 20q33 7 68 7zM1420 1966q21 0 44 -7q24 -7 50 -24q30 -18 48 -44q56 -61 124 -96l68 -34l20 -13q8 -13 8 -28v-13l-34 -55l-22 -34l-34 -102q-19 -26 -60 -28q-22 0 -34 7l-70 41q-18 7 -36 7q-17 0 -34.5 -11
t-23.5 -23l-28 -69l-14 21q-13 13 -20 27q-15 37 -14 68l-14 117q-7 55 -26 109l-8 34l-6 34q0 46 30 82q30 34 86 34z" />
</svg>