<svg xmlns="http://www.w3.org/2000/svg" xmlns:xlink="http://www.w3.org/1999/xlink" version="1.1" viewBox="-10 0 2058 2048">
   <path fill="currentColor"
d="M395 0h1430l78 70v1759l-78 71h-508v-141h438v-297h-438v-148h438v-1173h-1321v1173h438v148h-477q-47 0 -78 35q-32 37 -32 75v77q0 38 32 75q31 35 78 35h477v141h-477q-102 8 -179.5 -70t-70.5 -181v-1391q-7 -111 70 -184q79 -74 180 -74zM630 703l101 102l289 -281
v210l-383 384l102 102l281 -282v1110h149v-1126l297 298l102 -102l-399 -399v-203l289 289l102 -102l-407 -414h-110z" />
</svg>