<svg xmlns="http://www.w3.org/2000/svg" xmlns:xlink="http://www.w3.org/1999/xlink" version="1.1" viewBox="-10 0 2068 2048">
   <path fill="currentColor"
d="M641 1439q40 23 89 23q51 0 90 -27t54 -74l63 -203q31 -75 86 -132q53 -54 132 -86l203 -62q38 -16 62 -39q23 -22 35 -58q12 -34 3 -71q-6 -32 -31 -70q-21 -35 -77 -50l-195 -71q-78 -23 -136 -77q-60 -57 -82 -133l-71 -203q-16 -48 -50 -69q-36 -24 -70 -31
q-36 -8 -70 3q-35 11 -58 39t-39 58l-63 203q-22 77 -81 133q-56 53 -128 77l-203 71q-38 7 -63 35q-21 24 -34 62q-11 35 -4 70q7 31 31 70q23 35 70 51l203 62q95 32 163 117q29 42 54 101l63 203q15 46 54 78zM657 356l77 -203l63 203q40 111 121 191q84 82 190 113
l203 77l-203 71q-111 32 -191 113q-81 83 -120 190l-70 203l-70 -203q-32 -112 -113 -191q-82 -81 -191 -120l-203 -70l203 -70q109 -39 187.5 -117.5t116.5 -186.5zM1537 2023q33 23 69 23q38 0 70 -20q33 -21 40 -58l39 -109q8 -40 34 -66q28 -28 66 -35l109 -39
q40 -8 59 -35q18 -25 23 -55q5 -26 -8 -54q-13 -31 -30 -47q-20 -21 -44 -28l-116 -38q-30 -7 -57.5 -35t-35.5 -66l-39 -109q-16 -39 -40 -58q-24 -20 -54 -24q-30 -5 -55 8q-26 13 -43 30t-34 44l-32 109q-15 37 -39 62q-22 24 -61 39l-110 38q-37 7 -58 40
q-19 30 -19 69.5t19 70.5q20 31 58 39l110 39q38 7 65 35q28 27 35 66l39 109q9 38 40 55zM1405 1618l-24 -8l24 -8q69 -23 120 -74t73 -120l8 -24l8 24q23 68 74.5 119.5t119.5 74.5l24 8l-24 8q-69 22 -120 73t-74 121l-8 24l-8 -24q-23 -72 -73 -121q-50 -51 -120 -73z
" />
</svg>