<svg xmlns="http://www.w3.org/2000/svg" xmlns:xlink="http://www.w3.org/1999/xlink" version="1.1" viewBox="-10 0 2068 2048">
   <path fill="currentColor"
d="M1508 982q-40 108 -101.5 232.5t-102.5 194.5l-40 71h-174q8 -12 20 -32t31 -53.5t39 -72.5t43.5 -85.5t44 -95t40 -99t33.5 -100t22.5 -95t7.5 -87t-11 -73.5q-13 -37 -41 -86t-53 -86t-72 -103l174 3q147 205 261.5 467t220.5 598h-160q-101 -329 -182 -498zM2048 1024
q0 139 -37 272t-103 245.5t-160 207t-206.5 160t-245 102.5t-272 37t-272 -37t-245 -102.5t-207 -160t-160.5 -207t-103 -245.5t-37 -272t37 -272t103 -245.5t160.5 -207t207 -160t245 -102.5t272 -37t272 37t245 102.5t206.5 160t160 207t103 245.5t37 272zM928 583h-178
q-6 10 -17.5 28.5t-43.5 75t-61.5 113t-65 134t-60.5 146.5q-81 -169 -182 -498h-160q107 338 221 601t261 468l172 3q-120 -170 -162 -278q-22 -52 -4.5 -142t53 -187.5t82.5 -195.5t85 -167t60 -101zM1998 1024q0 -132 -35 -258t-98 -233t-153 -197t-196.5 -152.5
t-232.5 -97.5t-259 -35q-240 0 -446 108q101 -8 191.5 12.5t157.5 63.5t118.5 104t80 131.5t37 149.5t-5.5 154.5t-53 148.5t-100 131q-62 59 -101.5 146.5t-47.5 188.5t27 202q25 66 72.5 127.5t113 111t154 75t182.5 15.5q175 -74 308.5 -207t209.5 -312t76 -377z" />
</svg>