<svg xmlns="http://www.w3.org/2000/svg" xmlns:xlink="http://www.w3.org/1999/xlink" version="1.1" viewBox="-10 0 2058 2048">
   <path fill="currentColor"
d="M1825 0h-1430q-101 0 -180 74q-77 73 -70 184v1391q-7 102 70 180q79 78 180 71h477v-141h-477q-47 0 -78 -35q-32 -37 -32 -75v-77q0 -38 32 -75q31 -35 78 -35h477v-148h-438v-1173h1321v1173h-438v148h438v297h-438v141h508l78 -71v-1759zM731 289h-148v149h148v-149z
M637 1118l102 102l281 -282v1110h149v-1126l297 298l102 -102l-415 -415h-102zM583 587h148v140h-148v-140z" />
</svg>