<svg xmlns="http://www.w3.org/2000/svg" xmlns:xlink="http://www.w3.org/1999/xlink" version="1.1" viewBox="-10 0 2068 2048">
   <path fill="currentColor"
d="M684 740l278 -284v-94l-292 -292l-94 94l174 174h-408q-146 0 -244 102q-98 103 -98 246q0 142 98 240q100 98 244 98h66v-138h-66q-88 0 -146 -58q-58 -60 -61.5 -147t59.5 -145q60 -58 148 -58h408l-174 174l94 96zM1362 200h-364l-138 -130h640l96 36l414 408l38 102
v1224l-140 138h-1224l-138 -138v-1020l138 116v904h1224v-1092h-546v-548zM1500 200v416h408z" />
</svg>