<svg xmlns="http://www.w3.org/2000/svg" xmlns:xlink="http://www.w3.org/1999/xlink" version="1.1" viewBox="-10 0 2058 2048">
   <path fill="currentColor"
d="M1708 1407q-52 -152 -50 -325v-279q0 -131 -44 -254q-43 -120 -134 -222q-85 -97 -202 -162q-115 -63 -248 -77q-147 -15 -286 33q-138 47 -246 148q-105 97 -166 232q-60 130 -60 279v302q0 169 -50 325l-82 243l60 96h486q0 110 81 191t195 81t195 -81t81 -191h486
l66 -96zM1060 1841q-44 44 -98 44q-56 0 -96 -40q-42 -41 -42 -99h274q7 58 -38 95zM296 1606l50 -155q66 -177 66 -369v-302q0 -117 48 -228q48 -110 134 -188q86 -79 198 -114q112 -36 224 -22q221 28 360 192q66 80 104 180t38 203v279q0 195 58 376l52 148h-1332z" />
</svg>