<svg xmlns="http://www.w3.org/2000/svg" xmlns:xlink="http://www.w3.org/1999/xlink" version="1.1" viewBox="-10 0 2068 2048">
   <path fill="currentColor"
d="M2048 1024q0 -281 -136 -516q-136 -236 -372 -372q-235 -136 -516 -136t-516 136q-236 136 -372 372q-136 235 -136 516q0 224 96 430q97 207 266 348l89 69q259 177 573 177t573 -177l96 -69q163 -142 259 -348q96 -205 96 -430zM1024 1918q-279 0 -512 -164l7 -47
q19 -66 55 -127q35 -59 82 -106q44 -44 102 -81q50 -32 126 -51q72 -18 140 -18q101 0 201 38t171 109q72 73 113 167q23 65 34 116q-233 164 -519 164zM710 969q-27 -62 -27 -129q0 -68 27 -130q27 -61 72 -106q42 -42 106 -75q61 -31 136 -31q72 0 133 28q58 27 106 75
t75 109t27 133q0 71 -27 130q-26 56 -75 105q-47 48 -109 76q-130 56 -267 0q-53 -26 -103 -76q-47 -47 -74 -109zM1659 1652v-7v-7q-28 -99 -85 -178q-59 -82 -140 -142q-61 -48 -137 -82q32 -18 62 -48q49 -49 81 -103q68 -110 62 -245q7 -96 -30 -184q-38 -90 -106 -158
q-66 -66 -158 -102q-87 -34 -187 -34q-101 0 -188 34q-92 36 -154 102q-66 71 -103 158t-37 184q0 68 21 133q21 66 48 113q25 44 81 102q25 25 62 54q-71 28 -130 76q-82 61 -140 143q-57 80 -92 184v7q-123 -123 -191 -287q-68 -165 -68 -341q0 -246 120 -450t324 -324
t450 -120t450 120t324 324t120 450q0 179 -64 341q-65 164 -195 287z" />
</svg>