<svg xmlns="http://www.w3.org/2000/svg" xmlns:xlink="http://www.w3.org/1999/xlink" version="1.1" viewBox="-10 0 2058 2048">
   <path fill="currentColor"
d="M747 1900h-438v-1313h1172v288h149v-367l-79 -70h-218v-149h-141q0 -117 -86 -203t-211 -86q-124 0 -207 86q-82 85 -82 203h-156v149h-211l-79 70v1470l79 70h508v-148zM747 258q8 -40 43 -75q36 -36 78 -43t82 8q39 15 67 55q27 39 27 78q0 41 -19 79t-59 58
q-41 20 -83 16q-43 -4 -74 -28q-31 -23 -50 -62q-20 -39 -12 -86zM1786 1649l-156 157v-782h-149v782l-156 -157l-109 102l288 282h102l282 -282zM918 1040h102l290 281l-110 102l-156 -156v781h-149v-781l-157 156l-100 -102z" />
</svg>