<svg xmlns="http://www.w3.org/2000/svg" xmlns:xlink="http://www.w3.org/1999/xlink" version="1.1" viewBox="-10 0 2068 2048">
   <path fill="currentColor"
d="M306 189v1l1422 1v310h-88v-221h-1248v221h-86v-312zM1090 512q24 0 38 8v-1l920 505l-920 504v0q-14 8 -38 8q-39 0 -65.5 -27t-26.5 -66q0 -28 16 -50.5t42 -33.5l608 -335l-608 -334q-26 -11 -42 -34t-16 -51q0 -39 26.5 -66t65.5 -27zM102 708h696q42 0 72 30t30 72
t-29.5 71.5t-72.5 29.5h-696q-42 0 -72 -29.5t-30 -71.5t30 -72t72 -30zM102 1138h696q43 0 72.5 29t29.5 71t-30 72t-72 30h-696q-42 0 -72 -30t-30 -72t30 -71t72 -29zM306 1548h86v221h1248v-221h90l-2 309l-1422 2v-311z" />
</svg>