<svg xmlns="http://www.w3.org/2000/svg" xmlns:xlink="http://www.w3.org/1999/xlink" version="1.1" viewBox="-10 0 2068 2048">
   <path fill="currentColor"
d="M1024 786q176 0 298 124q122 122 122 294q0 176 -122 300q-123 128 -298.5 128t-299.5 -128q-122 -124 -122 -300q0 -172 122 -294q124 -124 300 -124zM1024 940q-111 0 -186 80q-76 80 -76 190q0 108 76 184t186 76t186 -76t76 -184q0 -110 -76 -190t-186 -80zM1024 416
q238 0 450 102q219 104 364 282q146 181 206 410q9 32 -7.5 62.5t-46.5 37.5q-30 8 -60 -8q-28 -16 -38 -50q-74 -296 -315.5 -486t-553 -190t-553.5 190q-239 189 -314 486q-10 33 -39.5 49.5t-58.5 8.5q-30 -7 -46.5 -37.5t-7.5 -62.5q59 -228 206 -410q147 -180 362 -282
q213 -102 452 -102z" />
</svg>