<svg xmlns="http://www.w3.org/2000/svg" xmlns:xlink="http://www.w3.org/1999/xlink" version="1.1" viewBox="-10 0 2068 2048">
   <path fill="currentColor"
d="M0 191h898l128 128l128 128h894v1410h-2048v-1666zM562 612q-2 5 -16 44q-41 132 -26 247q-57 57 -80.5 138t-15.5 169q11 176 86 269q53 69 130 111.5t162 47.5q51 6 230 13q19 -1 103 -4.5t129 -8.5q142 -19 228 -95q75 -62 112.5 -157t35.5 -199q4 -37 -2 -77
t-22.5 -80.5t-30.5 -68.5t-37 -66q2 -174 -48 -283q-75 14 -144 48.5t-156 91.5q-165 -34 -338 0q-82 -58 -153.5 -94t-146.5 -46zM812 1109q22 1 87.5 6.5t100.5 5.5q46 3 163 -6t161 1q44 8 80 36.5t54 68t24 85t-8 87.5q-6 44 -31.5 78.5t-63.5 55.5t-78.5 33t-84.5 16
q-76 8 -132.5 10.5t-127 0.5t-135 -15t-123.5 -38q-41 -19 -69 -56.5t-38 -81.5t-6.5 -91.5t21.5 -87.5q26 -55 82.5 -81t123.5 -27zM822 1214q-29 -1 -50 21.5t-32 54.5q-23 49 8 108q28 53 69 56q34 2 61 -35q27 -30 29 -76t-21.5 -84t-63.5 -45zM1246 1214
q-32 0 -54.5 25.5t-29.5 60.5q-18 41 5 90.5t61 61t76 -32.5q23 -32 25.5 -77t-19 -83t-64.5 -45z" />
</svg>