<svg xmlns="http://www.w3.org/2000/svg" xmlns:xlink="http://www.w3.org/1999/xlink" version="1.1" viewBox="-10 0 2066 2048">
   <path fill="currentColor"
d="M1517 9q179 39 316 164q138 125 184 293q48 171 16 340q-46 225 -231 375q-182 148 -418 148q-104 0 -188 -31l-116 141l-55 23h-149v219l-70 79h-218v218l-79 70h-437l-70 -70v-336l15 -54l734 -727q-31 -100 -31 -212q0 -138 67 -277q67 -137 179 -226
q115 -91 258 -125q145 -35 293 -12zM1712 1064q141 -109 180 -289q23 -133 -12 -258q-34 -124 -129 -219t-218 -129q-125 -35 -259 -12q-172 39 -289 180t-117 320q-7 104 32 196l-16 78l-735 743v233h290v-226l70 -70h226v-219l71 -71h180l133 -147l77 -24q92 30 188 32
q180 -2 328 -118zM1588 665q23 -32 27 -70q5 -39 -16 -75q-19 -34 -51 -58q-29 -22 -74 -27q-43 -5 -78 15q-33 19 -51 52q-31 55 -19 113t62 89q52 32 106.5 20t93.5 -59z" />
</svg>