<svg xmlns="http://www.w3.org/2000/svg" xmlns:xlink="http://www.w3.org/1999/xlink" version="1.1" viewBox="-10 0 2058 2048">
   <path fill="currentColor"
d="M141 0h297v141h-219v1759h219v148h-297l-70 -70v-1908zM1024 875h-297l-70 -70v-297l70 -70h297l70 70v297zM805 727h141v-140h-141v140zM1899 875h-437l-71 -70v-437l71 -79h437l78 79v437zM1532 727h297v-289h-297v289zM1024 1611h-297l-70 -70v-298l70 -70h297l70 70
v298zM805 1462h141v-148h-141v148zM1899 1759h-437l-71 -79v-437l71 -70h437l78 70v437zM1532 1611h297v-297h-297v297zM1391 1314h-297v148h297v-148zM1391 587h-297v140h297v-140z" />
</svg>