<svg xmlns="http://www.w3.org/2000/svg" xmlns:xlink="http://www.w3.org/1999/xlink" version="1.1" viewBox="-10 0 2058 2048">
   <path fill="currentColor"
d="M1039 1312q125 0 210 -82t85 -207q0 -124 -85 -209q-86 -86 -210 -86t-210 86q-85 85 -82 209t86 207q82 82 206 82zM1124 4q171 8 331 86q162 80 284 201q294 319 296 748q0 337 -234 638q-117 141 -264.5 230.5t-318.5 120.5q-374 69 -677 -102q-158 -86 -272 -217
q-119 -135 -179 -296q-62 -165 -74 -343q-12 -176 43 -342q115 -358 412 -553q139 -93 308 -140t345 -31zM1202 1888q293 -68 490 -312q195 -265 179 -553q0 -178 -66 -342q-65 -160 -183 -288q-225 -226 -520 -249q-149 -7 -297.5 27.5t-263.5 119.5q-249 187 -338 491
q-90 302 39 584q126 279 392 428q122 77 272 101q148 24 296 -7z" />
</svg>