<svg xmlns="http://www.w3.org/2000/svg" xmlns:xlink="http://www.w3.org/1999/xlink" version="1.1" viewBox="-10 0 2058 2048">
   <path fill="currentColor"
d="M928 0h-73l-811 555v118l811 541h73l842 -541v-118zM205 614l687 -476l710 476l-710 461zM855 1558l-796 -542h241l592 403l615 -403h248l-110 74h-50q-184 0 -326 106q-143 106 -201 267l-140 95h-73zM1046 1660l-154 103l-592 -403h-241l796 541h73l147 -94
q-29 -67 -29 -147zM1360 1295q109 -73 235 -67q168 0 288 117q121 118 121 294q0 122 -70 226q-69 102 -182 150q-114 48 -238 26q-123 -22 -212 -114q-87 -90 -113 -212q-26 -121 21 -238q46 -116 150 -182zM1595 1821l248 -329l-110 -81l-205 272l-117 -103l-87 109
l175 139z" />
</svg>