<svg xmlns="http://www.w3.org/2000/svg" xmlns:xlink="http://www.w3.org/1999/xlink" version="1.1" viewBox="-10 0 2068 2048">
   <path fill="currentColor"
d="M50 213l58 -58h110v479h-110v-353l-58 50v-118zM478 314h1570v160h-1570v-160zM478 944h1570v159h-1570v-159zM2048 1573h-1570v160h1570v-160zM278 1044l8 -8l8 -8q24 -42 24 -75q0 -38 -8 -67q-17 -61 -74 -77q-44 -17 -76 -17t-76 17q-50 16 -68 77q-4 11 -16 49v9
h134v-9q0 -9 10 -25l6 -8h26l8 17v9q10 24 0 50l-16 25l-160 175v94h310v-110h-142zM268 1650q18 0 26 16q24 33 24 84q0 28 -8 51q-16 59 -74 75q-44 17 -76 17q-36 0 -54 -8q-23 -10 -38 -21t-34 -30l-18 -33q-7 -20 -16 -59h134v16l10 17q16 9 24 9l8 -9l8 -17l10 -16
l-10 -26l-8 -16h-8h-34v-101l34 -8h8l8 -9l10 -25l-10 -17q0 -9 -12 -13q-13 -5 -22 4l-6 9q-10 9 -10 25v8h-126v-8q0 -50 26 -93q9 -18 24 -29q18 -13 42 -20q28 -8 55.5 -8t54.5 8q24 7 50.5 21t41.5 42q16 29 16 67t-24 71z" />
</svg>