<svg xmlns="http://www.w3.org/2000/svg" xmlns:xlink="http://www.w3.org/1999/xlink" version="1.1" viewBox="-10 0 2068 2048">
   <path fill="currentColor"
d="M141 4h1619l141 140v782q-67 -29 -148 -46v-736h-727v1596l-165 164h-720l-140 -140v-1620zM141 1764h736v-1620h-736v1620zM1666 1028q-95 0 -172 56h-8q-134 78 -168 229.5t51 284.5l-343 346l100 100l345 -344q71 48 160 60q90 12 172 -20q83 -31 141 -94
q59 -64 86 -144q27 -83 12 -170q-15 -85 -66 -156q-50 -69 -134 -108q-83 -40 -176 -40zM1698 1614q-80 8 -137 -34q-59 -45 -86 -102q-28 -61 -12 -126q16 -66 63 -112q47 -48 109 -60q62 -11 125 12q63 25 98 76q34 51 39 108q4 57 -20 114q-24 54 -70 86q-47 31 -109 38z
" />
</svg>