<svg xmlns="http://www.w3.org/2000/svg" xmlns:xlink="http://www.w3.org/1999/xlink" version="1.1" viewBox="-10 0 2058 2048">
   <path fill="currentColor"
d="M1282 0q-214 0 -388 113q-177 115 -261 306q-87 195 -55 399q31 206 168 357l-686 790l95 83l688 -783q184 143 415 151q229 7 423 -124q193 -132 268 -350q75 -222 7 -444q-69 -223 -258 -361q-188 -137 -416 -137zM1282 1286q-160 0 -292 -76t-212 -210
q-79 -133 -79 -292t79 -292q81 -137 212 -210q133 -75 291.5 -75t289.5 75q127 73 209 210q79 133 79 292t-79 292q-80 134 -209 213q-130 79 -289 79v-6z" />
</svg>