<svg xmlns="http://www.w3.org/2000/svg" xmlns:xlink="http://www.w3.org/1999/xlink" version="1.1" viewBox="-10 0 2066 2048">
   <path fill="currentColor"
d="M268 2048q-111 0 -184 -73t-81 -172q-8 -98 53 -175q278 -301 773 -781q-39 -110 -39 -227q0 -115 47 -226q78 -188 242 -289q135 -87 293 -102q159 -15 300 48l94 39l-422 437l180 179l436 -422l39 94q47 118 47 242t-47 242t-132 203q-46 46 -109 86q-124 85 -269 102
q-144 16 -285 -39q-543 551 -781 773q-69 61 -155 61zM1422 137q-141 0 -265 85q-47 22 -86 62q-109 109 -136 258t34 289l24 47l-32 32q-530 515 -803 803q-23 40 -19 82q4 43 31 70q28 28 50 35q26 8 55 8q31 0 54 -23q234 -210 805 -796l39 -32l39 16q116 55 241 43
q124 -12 234 -82q47 -23 86 -63q69 -69 105 -159q35 -88 35 -192q0 -43 -8 -93l-381 375l-375 -375l375 -382q-50 -8 -102 -8z" />
</svg>