<svg xmlns="http://www.w3.org/2000/svg" xmlns:xlink="http://www.w3.org/1999/xlink" version="1.1" viewBox="-10 0 2068 2048">
   <path fill="currentColor"
d="M437 144h1167v584q77 8 148 40v-764h-1464v1238l149 -258v-840zM748 1312l-163 -288l-584 1020h1167zM250 1896l249 -436l86 -148l334 584h-669zM1246 960q116 -77 252 -84q136 -8 261 50q125 60 203 176q77 116 85 252q7 137 -54 262q-62 125 -179 198.5t-249 81.5
q-130 7 -253 -56q-119 -59 -198 -174q-79 -114 -86 -246q-8 -134 50 -256q58 -126 168 -204zM1331 1694q78 54 175 62q98 7 187 -36q91 -43 145 -124q54 -82 62 -182q7 -100 -40 -188q-48 -86 -124 -140q-126 -86 -272 -54q-149 31 -234.5 155.5t-53.5 272.5q32 149 155 234
z" />
</svg>