<svg xmlns="http://www.w3.org/2000/svg" xmlns:xlink="http://www.w3.org/1999/xlink" version="1.1" viewBox="-10 0 2058 2048">
   <path fill="currentColor"
d="M1124 4q169 23 331 98q164 77 278 198q188 189 257 429q70 244 23.5 492.5t-210.5 452.5q-147 186 -363 284q-212 97 -448 89q-234 -7 -445 -116q-155 -85 -273 -218q-114 -128 -182 -297q-67 -167 -75 -339q-7 -176 43 -348q51 -171 152 -312q99 -137 250 -241
q148 -101 316 -145q168 -43 346 -27zM1195 1884q141 -31 269 -109q129 -78 222 -195q139 -168 183 -386q44 -213 -20 -422q-63 -207 -218 -370q-141 -141 -332 -207q-192 -66 -390 -39q-197 27 -362 136q-195 133 -296 340q-102 210 -90 437q12 231 133 425q122 196 323 304
q132 69 281 93q150 25 289 -7h8zM945 730h187v-141h-187v141zM1132 877v585h-187v-585h187z" />
</svg>