<svg xmlns="http://www.w3.org/2000/svg" xmlns:xlink="http://www.w3.org/1999/xlink" version="1.1" viewBox="-10 0 2058 2048">
   <path fill="currentColor"
d="M478 136q113 0 192.5 79.5t79.5 192.5q0 74 -37 137t-99 99v895q62 36 99 98.5t37 136.5q0 113 -79.5 193.5t-192.5 80.5t-193 -80.5t-80 -193.5q0 -74 37.5 -136.5t99.5 -98.5v-895q-62 -36 -99.5 -99t-37.5 -137q0 -113 80 -192.5t193 -79.5zM478 1911q56 0 96 -40.5
t40 -96.5t-40 -96t-96 -40t-96 40t-40 96t40 96.5t96 40.5zM478 546q56 0 96 -41t40 -97t-40 -96t-96 -40t-96 40t-40 96t40 97t96 41zM1706 1539q62 36 99.5 98.5t37.5 136.5q0 113 -80 193.5t-193 80.5t-193 -80.5t-80 -193.5q0 -74 37.5 -136.5t99.5 -98.5v-857l-2.5 -15
t-11 -32.5t-23 -41.5t-40 -32.5t-60.5 -14.5h-137v272l-410 -410l410 -408v272h137q9 0 23.5 1t57 9t81 22t86 44.5t81 72t57 109.5t23.5 152v857zM1570 1911q56 0 96 -40.5t40 -96.5t-40 -96t-96 -40t-96 40t-40 96t40 96.5t96 40.5z" />
</svg>