<svg xmlns="http://www.w3.org/2000/svg" xmlns:xlink="http://www.w3.org/1999/xlink" version="1.1" viewBox="-10 0 2068 2048">
   <path fill="currentColor"
d="M1319 1259q20 -50 23 -60q18 -58 55 -173.5t56 -173.5q27 -88 57 -128q61 -86 178 -103q42 -6 86 -6q38 -1 81 -1t95.5 0.5t80.5 0.5q2 0 8 0.5t9 0.5q-4 6 -5 11q-76 135 -97 171q-114 196 -173 293q-71 115 -125 180q-58 72 -117 109q-51 32 -102 32h-405
q-59 0 -105 -43q-49 -45 -86 -140q-11 -28 -20 -55t-19 -64t-14 -53t-15.5 -65t-13.5 -56q-13 -53 -37 -139q0 -1 -2 -4.5t-2 -5.5l-8 9q-80 80 -142 170q-5 7 -8.5 16.5t-7 23.5t-4.5 19q-58 182 -70 219q-38 109 -135 157q-60 28 -125 30q-22 0 -61.5 1t-72 1.5t-61.5 0.5
q-11 0 -13.5 -3t0.5 -14q43 -159 109 -302q73 -161 167 -284q77 -101 160 -155q53 -37 104 -42q12 -2 21 -2q368 0 414 -1q105 -2 168 91q34 50 58 118q14 38 25 78t25.5 101.5t19.5 80.5q6 25 19 74t20 74q0 2 1 5.5t2 5.5h4z" />
</svg>