<svg xmlns="http://www.w3.org/2000/svg" xmlns:xlink="http://www.w3.org/1999/xlink" version="1.1" viewBox="-10 0 2068 2048">
   <path fill="currentColor"
d="M1408 1436l-10 38q-5 14 -18 14h-1364q-11 0 -14 -14q-2 -30 -2 -44q0 -127 87 -217t213 -93q-9 -39 -4 -76q7 -78 62 -133t132 -63h22q73 0 132 44q48 -146 174 -239t284 -93q173 0 305.5 108t168.5 272q1 5 0 14l-44 112q-25 66 -88 113t-130 51l-744 10q-13 0 -18 12
q-1 10 2 14q4 6 12 6l738 8q61 2 90 44q33 47 14 112zM1644 964h-22q-8 0 -10 8l-30 100q-19 65 14 112q31 44 92 46l156 8q6 0 10 6q5 7 4 14q-5 12 -18 12l-164 10q-67 4 -130 51t-88 113l-12 30q-2 5 1.5 8.5t8.5 3.5h562q12 0 14 -10q16 -63 16 -110
q0 -110 -54.5 -202.5t-147.5 -146t-202 -53.5z" />
</svg>