<svg xmlns="http://www.w3.org/2000/svg" xmlns:xlink="http://www.w3.org/1999/xlink" version="1.1" viewBox="-10 0 2058 2048">
   <path fill="currentColor"
d="M766 1983l56 -207q72 19 98 22.5t104 3.5q162 0 211.5 -13t180.5 -92q54 -32 75.5 -44.5t52.5 -36t40 -33t32.5 -40.5t36 -52t45.5 -75q31 -52 44.5 -74.5t28.5 -58t18.5 -48.5t8 -53.5t4.5 -65.5v-92q0 -120 -8 -158.5t-54 -144.5q-45 -107 -66 -137.5t-100 -109.5
l152 -153q43 43 58 58.5t39.5 44t31 39t24.5 43t27.5 55.5t33.5 77q16 38 23 55t17.5 42t14 39t9.5 30.5t7 34.5t3.5 33t2.5 42.5t0.5 47t0.5 62.5q0 41 -0.5 62.5t-0.5 47.5t-3 42.5t-3.5 33t-7 34.5t-9.5 30.5t-14 39t-17 41.5t-23 55q-24 56 -33 76.5t-27 54.5
t-24.5 43.5t-30.5 38.5t-40.5 45t-58.5 58q-40 41 -57.5 58.5t-45.5 41t-38.5 30.5t-44 24.5t-54.5 26.5t-76 33q-38 16 -55 23t-41.5 17.5t-39 14t-30.5 9t-34 7t-33 3.5t-42.5 2t-47 0.5t-63.5 0.5q-96 0 -128 -4t-130 -30z" />
</svg>