<svg xmlns="http://www.w3.org/2000/svg" xmlns:xlink="http://www.w3.org/1999/xlink" version="1.1" viewBox="-10 0 2058 2048">
   <path fill="currentColor"
d="M1282 1983l-56 -207q-72 20 -97.5 23t-104.5 3q-161 0 -210.5 -13t-181.5 -92q-53 -32 -74.5 -44.5t-52.5 -36t-40 -33t-32.5 -40.5t-36 -52t-44.5 -75q-79 -132 -92.5 -181t-13.5 -211q0 -120 8 -158.5t54 -144.5q33 -78 50 -108.5t37 -55t79 -83.5l-152 -153
q-41 42 -57.5 58t-40 44.5t-30.5 39t-24.5 43.5t-27 55t-32.5 77q-17 38 -24 55t-17.5 42t-14 39t-9.5 30.5t-7 34.5t-3.5 33t-2.5 42.5v47v62.5v62.5v47.5t2.5 42.5t3.5 32.5t7 34.5t9 31t13.5 39t17.5 41.5t23 55q24 54 33 76.5t27 55t24.5 42.5t31 39t40.5 44.5t58 58.5
l58.5 58.5t45 40.5t39 31t43.5 24.5t54.5 26.5t75.5 33q37 16 55 23t41.5 17.5t38.5 14t31 9t34.5 7t33 3.5t43 2t47.5 0.5t62 0.5q96 0 128.5 -4t129.5 -30z" />
</svg>