<svg xmlns="http://www.w3.org/2000/svg" xmlns:xlink="http://www.w3.org/1999/xlink" version="1.1" viewBox="-10 0 2058 2048">
   <path fill="currentColor"
d="M1024 30q42 0 63 0.5t47.5 0.5t43 2.5t32.5 3.5t34 7t30.5 9t39 14.5t41.5 17.5t55 23q55 24 76 33t54.5 26.5t44 24.5t38.5 30.5t45.5 41t57.5 58.5q42 42 58.5 58t40.5 45t30.5 38.5t24.5 43.5t27 54.5t33 76.5q17 40 23 55t17 41.5t14 39t9.5 30.5t7 34.5t3.5 33
t3 42.5t0.5 47.5t0.5 62.5q0 99 -5 131.5t-31.5 128.5t-38.5 125.5t-59 110.5l-186 -108q37 -66 47 -89t29 -95q21 -74 24.5 -99t3.5 -105v-92t-4.5 -65.5t-8 -53.5t-18.5 -48.5t-28.5 -58t-44.5 -74.5q-33 -54 -45.5 -75t-36 -52t-32.5 -40.5t-40 -33t-52.5 -36
t-75.5 -44.5q-131 -79 -180.5 -92t-211.5 -13v-216z" />
</svg>