<svg xmlns="http://www.w3.org/2000/svg" xmlns:xlink="http://www.w3.org/1999/xlink" version="1.1" viewBox="-10 0 2058 2048">
   <path fill="currentColor"
d="M1726 321l-154 153q-58 -59 -82.5 -79.5t-55 -37.5t-108.5 -50q-106 -46 -144 -53.5t-158 -7.5t-158 7.5t-144 53.5t-137 67t-109 98l-152 -151q41 -42 56.5 -57.5t44 -39.5t39 -31t43 -24.5t55.5 -27.5t76 -33q38 -16 55.5 -23t42 -18t39 -14.5t31 -9t34.5 -6.5
t32.5 -3.5t42.5 -2.5t47 -0.5t62.5 -0.5t62.5 0.5t46.5 0.5t42.5 2.5t32.5 3.5t34.5 7t31 9t39 14t41.5 17.5t55.5 23.5q54 23 76.5 33t55.5 27.5t43.5 24.5t38.5 30.5t44.5 40z" />
</svg>