<svg xmlns="http://www.w3.org/2000/svg" xmlns:xlink="http://www.w3.org/1999/xlink" version="1.1" viewBox="-10 0 2058 2048">
   <path fill="currentColor"
d="M2018 1024q0 41 -0.5 62.5t-0.5 47.5t-3 42.5t-3.5 33t-7 34.5t-9.5 30.5t-14 39t-17 41.5t-23 55q-24 56 -33 76.5t-27 54.5t-24.5 43.5t-30.5 38.5t-40.5 45t-58.5 58q-40 41 -57.5 58.5t-45.5 41t-38.5 30.5t-44 24.5t-54.5 26.5t-76 33q-38 16 -55 23t-41.5 17.5
t-39 14t-30.5 9t-34 7t-33 3.5t-42.5 2t-47 0.5t-63 0.5t-62.5 -0.5t-47.5 -0.5t-43 -2t-33 -3.5t-34.5 -7t-31 -9t-38.5 -14t-41.5 -17.5t-55 -23q-54 -24 -75.5 -33t-54.5 -26.5t-43.5 -24.5t-39 -31t-45 -40.5l-58.5 -58.5q-42 -43 -58 -58.5t-40.5 -44.5t-31 -39
t-24.5 -42.5t-27 -55t-33 -76.5q-16 -38 -23 -55t-17.5 -41.5t-13.5 -39t-9 -31t-7 -34.5t-3.5 -32.5t-2.5 -42.5v-47.5v-62.5h214q0 162 13.5 211t92.5 181q32 54 44.5 75t36 52t32.5 40.5t40 33t52.5 36t74.5 44.5q132 79 181.5 92t211 13t211 -13t180.5 -92
q54 -32 75.5 -44.5t52.5 -36t40 -33t32.5 -40.5t36 -52t45.5 -75q31 -52 44.5 -74.5t28.5 -58t18.5 -48.5t8 -53.5t4.5 -65.5v-92h216z" />
</svg>