<svg xmlns="http://www.w3.org/2000/svg" xmlns:xlink="http://www.w3.org/1999/xlink" version="1.1" viewBox="-10 0 2058 2048">
   <path fill="currentColor"
d="M1024 30q-88 0 -121.5 0.5t-81.5 10.5t-75.5 21.5t-107.5 45.5q-54 24 -75.5 33t-54.5 26.5t-43.5 24.5t-39 31t-45 40.5l-58.5 58.5q-42 43 -58 58.5t-40.5 44.5t-31 39t-24.5 42.5t-27 55t-33 76.5q-16 38 -23 55t-17.5 41.5t-13.5 39t-9 31t-7 34.5t-3.5 32.5
t-2.5 42.5v47.5v62.5q0 100 4 133t30.5 127.5t38.5 124t59 111.5l186 -108q-36 -64 -45.5 -87t-30.5 -97q-20 -76 -24 -101t-4 -103q0 -162 13.5 -211t92.5 -181q32 -54 44.5 -75t36 -52t32.5 -40.5t40 -33t52.5 -36t74.5 -44.5q132 -79 181.5 -92t210.5 -13v-216z" />
</svg>