<svg xmlns="http://www.w3.org/2000/svg" xmlns:xlink="http://www.w3.org/1999/xlink" version="1.1" viewBox="-10 0 2058 2048">
   <path fill="currentColor"
d="M1233 601v4q-102 -297 -284 -605q62 42 114.5 114t87 155.5t55.5 168.5t27 163zM1364 1089q90 -18 168 -68q37 90 50 191t-0.5 206.5t-63 211.5t-131.5 195q-100 109 -238.5 166t-280.5 57.5t-281 -57t-239 -166.5q-80 -86 -129 -189t-65 -206t-3.5 -209t51 -200.5
t103 -177.5t147 -143t190 -95t225.5 -35q135 0 250 42q-43 84 -53 174q-91 -38 -197 -38q-114 0 -216 46.5t-173 124.5t-112 182t-41 216q0 136 56 253.5t157.5 195t231.5 100.5q82 -32 150 -91.5t115 -133t84 -165.5t58.5 -182.5t35.5 -191.5t19 -185t5 -170q0 -95 -4 -142
q76 219 76 447q0 264 -109.5 474.5t-328.5 347.5l-15 1q117 3 220.5 -40.5t175.5 -119t113.5 -179t41.5 -219.5q0 -123 -43 -228zM1801 46q50 72 76 164.5t26.5 184t-23 180t-65.5 156t-106.5 109t-140.5 41.5q-112 0 -220 -103q58 -32 111.5 -66.5t109.5 -78t102.5 -94
t75.5 -101.5q25 -51 29 -77q-57 130 -191.5 229.5t-282.5 133.5q-47 -74 -47 -155q0 -51 22.5 -109t59.5 -93q31 -30 73.5 -51t81 -31t82.5 -27.5t82 -38.5t77 -65.5t68 -107.5z" />
</svg>