<svg xmlns="http://www.w3.org/2000/svg" xmlns:xlink="http://www.w3.org/1999/xlink" version="1.1" viewBox="-10 0 2058 2048">
   <path fill="currentColor"
d="M659 1204q-2 12 -96 606q-1 11 -14 11h-337q-25 0 -41 -19t-13 -44l264 -1679q6 -33 32 -55t59 -22q119 0 256.5 -0.5t198 -1t138.5 0.5t109.5 3.5t76.5 9t73.5 15.5t67.5 24q99 38 159 104t79.5 150.5t9 179t-48.5 200.5q-47 139 -139 230.5t-214.5 133.5t-279.5 44
q-33 1 -78 0t-71 -1.5t-58 1.5t-50.5 8t-37 18t-29 32.5t-16.5 50.5zM1769 555q162 120 107 418q-100 506 -644 506h-19h-18.5t-16 0.5t-16 2.5t-13.5 5t-13.5 7.5t-10.5 11.5t-10.5 15.5t-8 20.5t-7.5 27q-56 352 -66 412q-5 29 -26.5 48t-51.5 19h-286q-24 0 -37 -16.5
t-10 -40.5q22 -134 122 -767q7 -43 49 -43h56q44 -1 92 1t102 -3t108 -11.5t110.5 -23t109 -38.5t103.5 -58.5t95 -82.5t82 -110.5t65 -141.5q26 -75 39 -152q2 -9 5 -10t9 4z" />
</svg>