<svg xmlns="http://www.w3.org/2000/svg" xmlns:xlink="http://www.w3.org/1999/xlink" version="1.1" viewBox="-10 0 2068 2048">
   <path fill="currentColor"
d="M0 342q0 -94 67 -161t160 -67h569v454q0 48 33 81t80 33h456v456h-597q-35 0 -60.5 25t-25.5 60.5t25.5 60t60.5 24.5h597v398q0 94 -67 161t-161 67h-910q-93 0 -160 -67t-67 -161v-1364zM1365 1308v-170h390l-138 -140q-25 -25 -25 -60t25.5 -59.5t60.5 -25t60 24.5
l284 284q26 26 26 61t-26 59l-284 286q-25 25 -60.5 25t-60.5 -25.5t-25 -60.5t25 -59l138 -140h-390zM1365 568h-456v-454z" />
</svg>