<svg xmlns="http://www.w3.org/2000/svg" xmlns:xlink="http://www.w3.org/1999/xlink" version="1.1" viewBox="-10 0 2068 2048">
   <path fill="currentColor"
d="M0 128q0 -52 38 -90t90 -38h1792q52 0 90 38t38 90t-38 90t-90 38v1537q52 0 90 37.5t38 89.5t-38 90t-90 38h-704v-191q0 -80 -56 -136t-135.5 -56t-136 56.5t-56.5 135.5v191h-704q-52 0 -90 -38t-38 -90t38 -89.5t90 -37.5v-1537q-52 0 -90 -38t-38 -90zM384 448v128
q0 26 19 45t45 19h128q27 0 45.5 -19t18.5 -45v-128q0 -26 -18.5 -45t-45.5 -19h-128q-26 0 -45 19t-19 45zM960 384q-26 0 -45 19t-19 45v128q0 26 19 45t45 19h128q26 0 45 -19t19 -45v-128q0 -26 -19 -45t-45 -19h-128zM1408 448v128q0 26 19 45t45 19h128q27 0 45.5 -19
t18.5 -45v-128q0 -26 -18.5 -45t-45.5 -19h-128q-26 0 -45 19t-19 45zM448 769q-26 0 -45 19t-19 45v127q0 26 19 45t45 19h128q27 0 45.5 -19t18.5 -45v-127q0 -26 -18.5 -45t-45.5 -19h-128zM896 833v127q0 26 19 45t45 19h128q26 0 45 -19t19 -45v-127q0 -26 -19 -45
t-45 -19h-128q-26 0 -45 19t-19 45zM1472 769q-26 0 -45 19t-19 45v127q0 26 19 45t45 19h128q27 0 45.5 -19t18.5 -45v-127q0 -26 -18.5 -45t-45.5 -19h-128zM1312 1536q41 0 67.5 -28t16.5 -66q-31 -126 -135 -208t-236.5 -82t-236.5 82t-136 208q-9 38 17 66t67 28h576z
" />
</svg>