<svg xmlns="http://www.w3.org/2000/svg" xmlns:xlink="http://www.w3.org/1999/xlink" version="1.1" viewBox="-10 0 2068 2048">
   <path fill="currentColor"
d="M701 1312q19 -13 38 -6t32 28q34 47 -1 74q-19 12 -38 4.5t-32 -26.5q-12 -16 -15.5 -30.5t1 -23.5t8 -13.5t7.5 -6.5zM1778 1554q1 -2 4 -11t4.5 -15t3 -16.5t1.5 -21.5q0 -83 -90.5 -146t-229 -71.5t-292 47.5t-298.5 188h-3q6 -40 -10 -68l1 -6q146 -116 304.5 -162
t299.5 -30q147 15 239.5 86t84.5 162q-4 42 -16 64q-3 5 -3 4v-4zM1254 974q-2 -24 23 -50q6 -5 18 -13l21 -14l9 -5q-4 85 -7 96q-2 9 -11.5 15t-22.5 5q-25 -1 -30 -34zM1095 490q139 0 272.5 31.5t245 89.5t199.5 135.5t144 174t70 201.5q-12 4 -31 14l0.5 4t1 9.5
t1 12.5t0 14t-1.5 12q-1 7 -3 3q-1 -1 -1 -3q-1 -28 -7 -48q-28 18 -51 38q15 34 15 84q0 88 -53 120l-1 -2q41 -40 41 -102q0 -32 -14 -72t-33 -60q14 27 22 58q-2 2 -7 7.5t-17.5 24.5t-23 40t-22 55.5t-16.5 70.5q-11 -29 -34 -52q5 6 11.5 16.5t17 42.5t10.5 65
q0 43 -25 84t-64 70h-1t-1 -1v-1q71 -59 71 -150q0 -46 -29 -91.5t-81 -82.5t-132 -59.5t-174 -22.5q-112 0 -222.5 32t-206.5 88.5t-178 129t-151 158.5h-4q-37 -112 -96 -211t-124.5 -169.5t-139.5 -126.5t-140 -89.5t-127 -49.5q-6 -2 -2 -6q15 -17 39 -41.5t81 -74
t121 -95t159.5 -97.5t196 -89.5t231.5 -63t264 -25.5zM777 1418q16 -14 23 -29t7 -26.5t-3.5 -22t-6 -15.5t-4.5 -7q-5 -8 -14 -15.5t-22 -13.5t-30 -3.5t-34 14.5q-25 20 -28.5 51t14.5 53q18 23 44 28t54 -14zM784 982l6 26l-12 -14l-45 84l79 92l40 -18l-38 -228z
M844 1358q22 -17 30 -22h-1q-3 0 -6 -0.5t-11.5 -13t-22.5 -38.5q18 -13 38 -18l-6 -18q-8 6 -38 24h-1q-2 -3 -5.5 -9.5t-6.5 -11.5t-6 -9v-4q17 -15 39 -24q11 -4 18 -2v-2q-2 -2 -5.5 -6.5t-5.5 -7.5h-2q-40 21 -80 50l1 2q9 -3 14 8q10 15 19 29.5t15 23t11 16.5l7.5 12
t4 8t1.5 6.5t-2 4.5zM1020 1254v-2q-3 0 -5.5 -2.5t-12 -24t-28.5 -71.5q3 -2 9 -4l9 -3l7.5 -2.5t7.5 -1t6 2.5l1 -2l-11 -16l-2 -2q-73 32 -88 42l-1 2l4 18h1q2 -6 10 -11.5t14.5 -9t7.5 -3.5h1q32 72 36.5 85t1.5 19v2zM1163 1200q-6 -4 -8 -12q-2 -10 -9.5 -43
t-10.5 -41t2 -14l-1 -2q-6 2 -17.5 4.5t-17.5 3.5q6 3 9 14l8 30h-1q-17 5 -41 12h-1l-10 -30l1 -16h-1q-8 2 -19 6t-15 6q6 0 9 10q2 7 15 46l14 42q4 9 -1 16h1q27 -10 32 -12v-2q-6 -2 -9 -10q-1 -6 -14 -44h1q5 -2 14 -5t16.5 -5t11.5 -4l1 2q1 3 5.5 20.5t5.5 23.5
l-2 14h1q15 -6 31 -10zM1266 1178l6 -18h-1q-3 8 -25 12t-27 2h-1q-4 -23 -7 -40l1 -2q20 -2 20.5 -2t12.5 2h1q0 -6 0.5 -10t0.5 -6h-1q-6 3 -7.5 3.5t-4 1t-3.5 0.5t-6.5 0.5t-13.5 2.5l-1 -2q-1 -5 -2.5 -16.5t-2.5 -13.5l1 -2q42 -8 52 2h1q-3 -10 -6 -18q-53 3 -79 8
l-3 2q7 3 8 12q3 13 8.5 42.5t7.5 39.5l-2 14l1 2q50 -12 72 -14v-2zM1301 1036l24 -16q5 11 13 24q14 1 29.5 1.5t35.5 2.5l2 -16q-13 0 -18 -6q-3 -4 -5 -18q0 -52 2 -64q1 -4 4 -36.5t3 -37.5q4 -31 1 -40q-7 -29 -30 -42t-55.5 -12t-74.5 2l-17 52l9 10q37 -38 77 -23
q26 9 23 30q-1 6 -6 11q-8 12 -42.5 27t-48.5 27q-18 19 -25 46.5t7 55.5q18 32 57 32q18 0 35 -10zM1420 1104q0 -3 0.5 -9t0.5 -7l-1 -2q-35 -19 -61 -7.5t-31 39.5q-6 37 24.5 57t56.5 3l2 -2q0 -2 6 -20l-1 -2q-10 15 -27.5 17.5t-30 -11t-8.5 -38.5q5 -31 30 -37t40 19
zM1438 824q16 2 16 12l-16 176q0 22 -24 22l-3 14q59 10 119 24l2 -14q-25 -8 -28.5 -23.5t6.5 -72.5q5 -32 7 -52q4 -3 10 -6t22.5 -5t33.5 9l36 -36q-3 -4 -9 -8.5t-19 -11.5t-20 -4q-7 1 -19 10t-21 17l-9 7l5 -56q-11 -5 -33 -11t-37.5 -9.5t-18.5 -3.5v22zM1474 1190
q44 12 59 -38q6 -18 -3.5 -36t-30.5 -24q-17 -6 -35 2t-25 30q-8 22 3.5 41.5t31.5 24.5zM1608 1222q-4 -6 -3 -14q3 -48 5 -74v-6h-1q-3 -2 -12 -5t-13 -5l-1 2v6q-37 54 -45 64l-8 6v2q3 0 7 1l8 2t5 1l2 -12q2 -2 12 -16q4 0 22 6q1 1 -1 24l-4 6v2q22 8 27 10zM1593 934
q-20 33 -24 72t11 67t44 29q8 1 15.5 -2t11.5 -6t4 -2l-7 20q11 6 22.5 11.5t19 9t16.5 7.5l5 -14q-10 -11 -5 -30t37 -108q28 -77 47 -132q-20 -21 -72 -64l-6 10q22 18 14 38l-24 82q-3 -15 -15.5 -23t-28.5 -8t-34 11t-31 32zM1687 1188l7 -12v-2q-8 -16 -23.5 -17.5
t-22.5 11.5q-5 9 6 30q10 18 6 26q-4 7 -10.5 7t-12 -6.5t-4.5 -14.5h-2q-6 13 -6 14q8 16 25.5 17t23.5 -13q7 -14 -3 -32q-1 -2 -4 -7t-4 -7t-2.5 -6t0.5 -6q4 -3 9.5 -3t11 6t5.5 15zM1755 1230l4 -12v-2q-6 -5 -40 -28h-1l-10 12h5q7 0 10 2l4 4q-4 9 -14 28t-15 28
l-7 4h-1l18 14h1q-1 -4 3 -12q5 -9 14 -27.5t13 -24.5h1q3 1 5.5 3t3 2t2 1.5t2 2.5zM1842 1088l25 -34q-1 -2 -3.5 -6t-10 -14t-15.5 -17.5t-20.5 -12.5t-24.5 -2q-18 3 -26 15.5t-6 29.5t7 32t11.5 29.5t6.5 15.5q8 27 -10 32q-17 4 -28 -16q-7 -13 -4 -32l-10 -8l-15 48
q5 4 11.5 9.5t23.5 15t29 7.5q21 -2 33 -15.5t12 -36.5q0 -15 -12.5 -48.5t-12.5 -39.5q0 -15 16 -14q18 3 20 22q1 3 0 6q-1 13 -6 26zM1956 1056q4 9 5 4q0 -2 -2 -6q-30 -91 -85.5 -167t-122 -126t-143.5 -85.5t-149.5 -51.5t-139.5 -16q-117 -3 -216 25.5t-206 88.5
l66 -194l-108 210l-29 -68l21 -6l-8 -28q-11 3 -24 6l-39 -90l44 196q0 -1 -7.5 -4.5t-10.5 -5t-9 -6t-7.5 -8.5t-2 -10t3.5 -13t12 -15l-8 -36q-1 1 -33.5 10.5t-69.5 21.5l-74 -38l189 136l-15 8l-55 -44q8 16 15 62l-91 42l-97 -116l-55 30l43 136l-35 16l301 -94l-12 32
l-2 -8l-41 10l15 78l-13 40l-83 -98l-127 32l61 190q-34 -36 -88 -91q-87 -89 -104 -112t-6 -41q3 -4 9.5 -9.5t11.5 -8.5l4 -4l-14 -22q-26 18 -41 28t-34.5 24.5t-25.5 19t-37.5 29t-47.5 35.5l16 20q3 -3 8 -6t16.5 -8t18.5 -4h2q13 0 32.5 16t124.5 112q115 105 205 188
l37 -26l-88 -300l114 136l-15 44l135 -284q83 192 89.5 208t15.5 44l-107 -214l-8 14h1q2 1 14 35q27 72 58 155q3 8 4 13.5t-1.5 10t-3.5 6t-7.5 6t-8.5 4.5l7 16q51 -23 125 -46l-3 -16q-20 2 -27 -0.5t-12 -13.5q-10 -25 -65 -188l-33 -16l-8 -26l197 118l-42 138
q85 -22 159 -32l-1 -86l-16 4q-3 68 -63 72l71 -258q-82 2 -213 30l12 52l-80 -62l292 -66l-274 28q103 -59 204.5 -91t220.5 -29q87 1 164.5 20t135 47.5t107.5 67.5t83 76.5t60 79t41 69.5t23 54zM651 692l7 28q20 -6 37 -6l-31 -24zM1111 816l-37 120l-70 -54
q7 -22 19.5 -37.5t26.5 -21t28 -7.5t22.5 -1.5t10.5 1.5zM1019 420q150 0 284 26t236 71t187.5 105t144 126.5t99 137.5t59.5 137t18 125q0 52 -3 62q0 4 -1 4l-2 -4v-32q0 -85 -31.5 -171.5t-90 -166t-145 -148.5t-191.5 -120t-235.5 -80.5t-271.5 -29.5q-195 0 -353 46
l-4 -2q-24 -26 -68 -38v-2q27 -8 67.5 -16.5t128.5 -19t172 -10.5zM1694 962q-13 52 -24.5 78.5t-18 31t-16.5 4.5q-15 0 -19 -18t0 -30q4 -33 19 -71t35 -37q16 3 22 15t2 27zM1497 1100q27 7 16 46q-11 41 -37 34q-12 -3 -18 -16.5t-2 -29.5q7 -24 19 -31t22 -3z
M1571 1168v-2q8 -16 20 -32q-2 25 -2 38q-5 -1 -10 -2.5t-8 -1.5z" />
</svg>