<svg xmlns="http://www.w3.org/2000/svg" xmlns:xlink="http://www.w3.org/1999/xlink" version="1.1" viewBox="-10 0 2058 2048">
   <path fill="currentColor"
d="M1536 0q106 0 181 75t75 181v1537q0 106 -75 180.5t-181 74.5h-1024q-106 0 -181 -74.5t-75 -180.5v-1228q0 -106 75 -181l308 -309q75 -75 182 -75h715zM896 353q0 -40 -28 -68.5t-68 -28.5t-68 28.5t-28 68.5v191q0 40 28 68t68 28t68 -28t28 -68v-191zM1216 353
q0 -40 -28 -68.5t-68 -28.5t-68 28.5t-28 68.5v191q0 40 28 68t68 28t68 -28t28 -68v-191zM1536 353q0 -40 -28 -68.5t-68 -28.5t-68.5 28.5t-28.5 68.5v191q0 40 28.5 68t68.5 28t68 -28t28 -68v-191z" />
</svg>