<svg xmlns="http://www.w3.org/2000/svg" xmlns:xlink="http://www.w3.org/1999/xlink" version="1.1" viewBox="-10 0 2068 2048">
   <path fill="currentColor"
d="M146 2048q-60 0 -103 -43t-43 -103t43 -103t103 -43t103 43t43 103t-43 103t-103 43zM585.5 1756q60.5 0 103.5 43t43 103t-43 103t-103.5 43t-104 -43t-43.5 -103t43.5 -103t104 -43zM585.5 0q60.5 0 103.5 43t43 103t-43 103t-103.5 43t-104 -43t-43.5 -103t43.5 -103
t104 -43zM585.5 1170q-60.5 0 -104 -43t-43.5 -103t43.5 -103t104 -43t103.5 43t43 103t-43 103t-103.5 43zM1463.5 1756q60.5 0 103.5 43t43 103t-43 103t-103.5 43t-104 -43t-43.5 -103t43.5 -103t104 -43zM1463.5 292q-60.5 0 -104 -43t-43.5 -103t43.5 -103t104 -43
t103.5 43t43 103t-43 103t-103.5 43zM1463.5 878q60.5 0 103.5 43t43 103t-43 103t-103.5 43t-104 -43t-43.5 -103t43.5 -103t104 -43zM1024 2048q-60 0 -103 -43t-43 -103t43 -103t103 -43t103 43t43 103t-43 103t-103 43zM1024 0q60 0 103 43t43 103t-43 103t-103 43
t-103 -43t-43 -103t43 -103t103 -43zM1024 1170q-60 0 -103 -43t-43 -103t43 -103t103 -43t103 43t43 103t-43 103t-103 43zM1902 1756q60 0 103 43t43 103t-43 103t-103 43t-103 -43t-43 -103t43 -103t103 -43zM1902 0q60 0 103 43t43 103t-43 103t-103 43t-103 -43
t-43 -103t43 -103t103 -43zM146 292q-60 0 -103 -43t-43 -103t43 -103t103 -43t103 43t43 103t-43 103t-103 43zM1902 878q60 0 103 43t43 103t-43 103t-103 43t-103 -43t-43 -103t43 -103t103 -43zM146 1170q-60 0 -103 -43t-43 -103t43 -103t103 -43t103 43t43 103
t-43 103t-103 43zM1024 1316q60 0 103 43t43 103t-43 103t-103 43t-103 -43t-43 -103t43 -103t103 -43zM1902 1608q-60 0 -103 -43t-43 -103t43 -103t103 -43t103 43t43 103t-43 103t-103 43zM146 1316q60 0 103 43t43 103t-43 103t-103 43t-103 -43t-43 -103t43 -103
t103 -43zM1901.5 732q-59.5 0 -102.5 -44t-43 -104t43 -103t103 -43t103 43t43 103t-43.5 104t-103 44zM146 438q60 0 103 43t43 103t-43 104t-102.5 44t-103 -44t-43.5 -104t43 -103t103 -43zM1024.5 732q-59.5 0 -103 -44t-43.5 -104t43 -103t103 -43t103 43t43 103
t-43 104t-102.5 44z" />
</svg>