<svg xmlns="http://www.w3.org/2000/svg" xmlns:xlink="http://www.w3.org/1999/xlink" version="1.1" viewBox="-10 0 2068 2048">
   <path fill="currentColor"
d="M0 204q0 -56 40.5 -96t97.5 -40h1228q57 0 96.5 40t39.5 96v137h218q89 0 164.5 44t119.5 119.5t44 164.5v436q0 97 -53 178.5t-141 120.5l-352 156v147q0 113 -80 193t-192 80h-956q-113 0 -193.5 -80t-80.5 -193v-1503zM1502 1261l240 -108q34 -15 34 -49v-435
q0 -23 -16.5 -39t-39.5 -16h-218v647zM548 545q0 -28 -20.5 -48t-48 -20t-48.5 20t-21 48v956q0 28 21 48t48.5 20t48 -20t20.5 -48v-956zM820 545q0 -28 -20.5 -48t-48 -20t-47.5 20t-20 48v956q0 28 20 48t47.5 20t48 -20t20.5 -48v-956zM1092 545q0 -28 -20 -48
t-47.5 -20t-48 20t-20.5 48v956q0 28 20.5 48t48 20t47.5 -20t20 -48v-956z" />
</svg>