<svg xmlns="http://www.w3.org/2000/svg" xmlns:xlink="http://www.w3.org/1999/xlink" version="1.1" viewBox="-10 0 2068 2048">
   <path fill="currentColor"
d="M1012 1651q-10 0 -20 -5l-62 -36q-10 -5 0 -9q17 -5 28 -12q0 -1 2 -1t2 1l48 28q2 1 4 0l186 -107q2 -1 2 -5v-213q0 -4 -2 -5l-186 -107q-2 -1 -4 0l-186 107q-2 2 -2 5v213q0 4 2 5l50 29q22 9 34 2.5t12 -20.5v-211q0 -6 4 -6h24q6 0 6 6v211q0 27 -14.5 42t-41.5 15
q-18 0 -42 -11l-48 -28q-20 -12 -20 -34v-213q0 -22 20 -34l184 -107q21 -12 40 0l184 107q20 12 20 34v213q0 22 -20 34l-184 106q-10 6 -20 6zM1162 1441q0 31 -24.5 47t-69.5 16q-98 0 -98 -68q0 -6 6 -6h24q6 0 6 5q2 19 15 27.5t49 8.5q29 0 41.5 -6.5t12.5 -22.5
q0 -7 -3 -11t-18 -8.5t-43 -7.5q-42 -4 -62 -15.5t-20 -40.5q0 -28 22 -44t62 -16q87 0 92 65q0 3 -2 4l-2 2h-26q-3 0 -4 -5q-5 -19 -17.5 -26t-40.5 -7q-48 0 -48 26q0 10 10.5 14t53.5 10q46 7 65 19t19 40zM1336 1281q0 15 -10 25t-25 10t-25 -10t-10 -25t10 -25.5
t24.5 -10.5t25 10.5t10.5 25.5zM1330 1281q0 -12 -9 -21.5t-21 -9.5t-21 9.5t-9 21.5t9 20.5t21 8.5t21 -8.5t9 -20.5zM1316 1300h-8l-2 -13q-2 -3 -4 -3h-8v16h-8v-40h14q14 0 14 11q0 7 -8 10q6 0 8 8q0 7 2 11zM1306 1272q0 -5 -6 -5h-6v11h6q6 0 6 -6zM440 816l-2 304
q0 7 -4 10q-6 6 -12 0l-116 -67q-12 -7 -12 -20v-142q0 -14 -12 -21l-50 -28q-4 -3 -12 -3t-12 3l-50 28q-12 7 -12 21v142q0 13 -12 20l-116 67q-6 6 -12 0t-6 -10v-304q0 -14 12 -21l196 -112q6 -4 10 -4h2q5 0 12 4l196 112q12 7 12 21zM1512 484v564q0 14 -12 21
l-196 114q-12 7 -24 0l-196 -114q-12 -7 -12 -21v-226q0 -14 12 -21l196 -112q12 -7 24 0l48 27q4 2 9 0t5 -7v-300q0 -7 5.5 -10.5t12.5 -0.5l116 65q12 5 12 21zM1364 897q0 -4 -2 -6l-68 -39q-2 -1 -6 0l-66 39q-4 2 -4 6v78q0 4 4 5l66 38q4 2 6 0l68 -38q2 -1 2 -5v-78
zM2036 894l-118 68q-6 3 -12 0t-6 -10v-55q0 -5 -6 -11l-62 -35q-5 -5 -10 0l-62 35q-6 6 -6 11v71q0 4 6 10l198 113q6 3 6 10.5t-6 10.5l-118 65q-12 7 -24 0l-194 -111q-12 -7 -12 -20v-227q0 -13 12 -20l196 -114q12 -7 24 0l194 114q12 7 12 20v55q0 13 -12 20z
M1788 905l38 -21q2 -2 4 0l38 21q2 2 2 5v43q0 1 -2 3l-38 22q-2 2 -4 0l-38 -22l-1 -1t-1 -2v-43q0 -2 2 -5zM976 1045v5q-4 10 -14 15l-194 112q-11 7 -24 0l-196 -112q-12 -5 -12 -20v-226q0 -13 12 -20l196 -113q11 -5 24 0l194 113q14 8 14 20v226zM738 645l-2 2h2v-2z
M982 1061l-2 -1v2z" />
</svg>