<svg xmlns="http://www.w3.org/2000/svg" xmlns:xlink="http://www.w3.org/1999/xlink" version="1.1" viewBox="-10 0 2068 2048">
   <path fill="currentColor"
d="M1120 1q127 0 247 33.5t221.5 93t187 145t145 187.5t92.5 222t33 246q0 40 -27.5 68.5t-67 28.5t-68 -28.5t-28.5 -68.5q0 -150 -58 -286t-156.5 -234.5t-234.5 -156.5t-286 -58q-39 0 -68 -28.5t-29 -68.5t29 -67.5t68 -27.5zM1151.5 769q52.5 0 90.5 38t38 90t-38 90
t-90.5 38t-90.5 -37.5t-38 -90t38 -90.5t90.5 -38zM1023 481q0 -40 29 -68.5t68 -28.5q111 0 211.5 43t173.5 116t115.5 174t42.5 211q0 40 -28 68.5t-67.5 28.5t-67.5 -28.5t-28 -68.5q0 -95 -47 -176.5t-128 -128.5t-177 -47q-39 0 -68 -27.5t-29 -67.5zM470 6
q59 -16 113 10t76 82l161 385q21 49 8 100.5t-55 84.5l-197 162q100 212 265.5 377t376.5 265l161 -197q33 -41 85.5 -53.5t100.5 7.5l383 160q57 23 83.5 77t9.5 112l-96 352q-13 52 -56.5 85t-97.5 33q-243 0 -475 -64.5t-428.5 -180t-362 -281t-281 -362t-180 -428.5
t-64.5 -476q0 -53 33.5 -96t84.5 -58z" />
</svg>