<svg xmlns="http://www.w3.org/2000/svg" xmlns:xlink="http://www.w3.org/1999/xlink" version="1.1" viewBox="-10 0 2068 2048">
   <path fill="currentColor"
d="M1066 193l-136 101q-34 24 -34 69v36q0 20 14 35t34 15q15 0 30 -9l166 -111q14 -9 26 -9h6q18 0 31 13.5t13 32.5q0 18 -14 31l-78 80q-34 33 -84 51l-104 35q-18 6 -29 20.5t-11 33.5q0 23 -16 40l-72 72q-40 40 -40 96v16q0 49 35.5 84t84.5 35q34 0 62 -17.5
t42 -46.5l16 -32q16 -31 52 -31q28 0 46 22l64 87q14 18 38 18q25 0 38 -21.5t2 -44.5l-6 -8q-10 -21 -0.5 -43t32.5 -30l84 -28q22 -8 36 -27t14 -44q0 -31 22.5 -52.5t53.5 -21.5h116q27 0 45.5 19t18.5 45t-18.5 45.5t-45.5 19.5h-84q-46 0 -76 31l-18 18q-14 13 -14 33
q0 19 13 32t31 13h46q38 0 64 26l26 26q12 12 12 28q0 15 -12 27l-28 30q-24 25 -24 55q0 33 24 56l72 72q64 64 154 64h30q40 -125 40 -256q0 -164 -62 -314t-167.5 -260.5t-252 -179.5t-308.5 -77zM1752 1425q-21 -16 -52 -16q-36 0 -62 -27l-54 -54q-48 -48 -116 -48
q-61 0 -106 -39l-106 -91q-73 -62 -168 -62h-82q-78 0 -142 43l-110 73q-53 36 -83.5 93t-30.5 121v13q0 106 76 181l64 64q52 53 128 53h84q40 0 68 28t28 68q0 14 4 29q211 -17 386 -132.5t274 -296.5zM0 1024q0 -139 37 -272t103 -245.5t160.5 -207t207 -160t245 -102.5
t272 -37t272 37t244.5 102.5t206.5 160t160.5 207t103 245.5t37 272t-37 272t-103 245.5t-160.5 207t-206.5 160t-244.5 102.5t-272 37t-272 -37t-245 -102.5t-207 -160t-160.5 -207t-103 -245.5t-37 -272zM749.5 402q-18.5 -19 -45 -19t-44.5 19l-128 129q-19 19 -19 45
t18.5 45t45 19t45.5 -19l128 -128q18 -19 18 -45.5t-18.5 -45.5z" />
</svg>