<svg xmlns="http://www.w3.org/2000/svg" xmlns:xlink="http://www.w3.org/1999/xlink" version="1.1" viewBox="-10 0 2058 2048">
   <path fill="currentColor"
d="M1920 751l18 112v111l-100 177l-160 314l-224 270l-316 152l-70 97l-32 48l-38 16q68 -254 76 -254l82 3l268 -155l-370 105l-224 147l-90 112l-28 5l84 -294l28 -22l82 52l354 -181l226 -206l58 -274l-500 93l60 -72l-694 -214l330 -42l-664 -491l458 72l-404 -432
l1010 506l-126 -151l498 297l-572 -396l74 154l-200 -73l-180 -337l778 488l-172 -223l432 385l48 -35l-84 -65l18 -152l150 -41l116 98l48 17l-28 25l32 48l-52 30l-40 80z" />
</svg>