<svg xmlns="http://www.w3.org/2000/svg" xmlns:xlink="http://www.w3.org/1999/xlink" version="1.1" viewBox="-10 0 2058 2048">
   <path fill="currentColor"
d="M1118 2002q-37 46 -95 46t-95 -46q-52 -65 -102.5 -131.5t-120 -163.5t-129.5 -188t-121 -197t-104 -199.5t-70 -186.5t-27 -166q0 -156 61 -299t164 -246t245.5 -164t299.5 -61t299.5 61t245.5 164t164 246t61 299q0 73 -27.5 166t-70.5 186t-104.5 200t-121 197.5
t-129.5 188t-120.5 163.5t-102.5 131zM1024 513q-106 0 -181 75.5t-75 181.5t75 181.5t181 75.5t181 -75.5t75 -181.5t-75 -181.5t-181 -75.5z" />
</svg>