<svg xmlns="http://www.w3.org/2000/svg" xmlns:xlink="http://www.w3.org/1999/xlink" version="1.1" viewBox="-10 0 2068 2048">
   <path fill="currentColor"
d="M286 270q-58 141 -58 299t58 298q17 45 -1 88t-62.5 61t-87 0t-61.5 -63q-74 -182 -74 -384t74 -384q18 -44 61 -62t87 -1q45 17 63 60.5t1 87.5zM1974 185q74 182 74 384t-74 384q-18 44 -61 62.5t-87 0.5q-45 -17 -63.5 -60.5t-0.5 -88.5q58 -140 58 -298t-58 -299
q-18 -44 0.5 -87t63 -61t87 0.5t61.5 62.5zM1252 569q0 63 -31 115.5t-83 81.5v1055q0 47 -33.5 80t-81 33t-80.5 -33t-33 -80v-1055q-52 -29 -83 -81.5t-31 -115.5q0 -93 67 -160t160.5 -67t161 67t67.5 160zM606 387q-36 87 -36 182.5t36 181.5q19 44 2.5 88t-60 62.5
t-87.5 1.5t-63 -61q-56 -129 -56 -272.5t56 -273.5q19 -43 63 -60t87 2q44 19 60.5 62.5t-2.5 86.5zM1650 296q56 127 56 273t-56 273q-19 44 -63 61t-87.5 -1.5t-60 -62.5t2.5 -88q36 -86 36 -181.5t-36 -182.5q-19 -43 -2.5 -86.5t60.5 -62.5q43 -19 87 -2t63 60z" />
</svg>