<svg xmlns="http://www.w3.org/2000/svg" xmlns:xlink="http://www.w3.org/1999/xlink" version="1.1" viewBox="-10 0 2058 2048">
   <path fill="currentColor"
d="M1600 305q-75 -75 -182 -75t-182 75l-756 756q-85 85 -115.5 199t0 228.5t115.5 199.5t199 115t228.5 0t199.5 -115l624 -624q33 -34 81 -34t82 33.5t34 81t-34 81.5l-625 625q-97 97 -222.5 147t-253 50t-253 -50t-222.5 -147t-147.5 -223t-50.5 -253.5t50.5 -253
t147.5 -222.5l755 -756q93 -94 218.5 -127t251 0t219 126.5t127 219t0 251t-126.5 219.5l-723 723q-89 88 -213 88t-212.5 -88.5t-88.5 -213t89 -212.5l591 -592q33 -34 80.5 -34t81 33.5t33.5 81t-33 81.5l-591 593q-21 21 -21 50t21 50t50.5 21t50.5 -21l723 -724
q75 -75 75 -181.5t-75 -181.5z" />
</svg>