<svg xmlns="http://www.w3.org/2000/svg" xmlns:xlink="http://www.w3.org/1999/xlink" version="1.1" viewBox="-10 0 2068 2048">
   <path fill="currentColor"
d="M0 568q0 -92 45.5 -171t124.5 -124t172 -45h1364q93 0 171.5 45t124.5 124t46 171v910q0 93 -46 172t-125 124.5t-171 45.5h-1364q-93 0 -172 -45.5t-124.5 -124t-45.5 -172.5v-910zM626 738v200q0 36 24.5 61t59.5 25h172q36 0 60 -25t24 -61v-200q0 -70 -49.5 -120
t-120 -50t-120.5 50t-50 120zM1251.5 568q-70.5 0 -121 50t-50.5 120v200q0 36 25 61t61 25h170q36 0 61 -25t25 -61v-200q0 -70 -50 -120t-120.5 -50zM170 854v84q0 36 25.5 61t60.5 25h170q36 0 61 -25t25 -61v-84q0 -71 -50 -121.5t-120.5 -50.5t-121 50.5t-50.5 121.5z
M341.5 1478q70.5 0 120.5 -50t50 -120v-84q0 -36 -25 -61t-61 -25h-170q-35 0 -60.5 25t-25.5 61v84q0 70 50.5 120t121 50zM626 1308q0 70 50 120t120.5 50t120 -50t49.5 -120v-84q0 -36 -24 -61t-60 -25h-172q-35 0 -59.5 25t-24.5 61v84zM1251.5 1478q70.5 0 120.5 -50
t50 -120v-84q0 -36 -25 -61t-61 -25h-170q-36 0 -61 25t-25 61v84q0 70 50.5 120t121 50zM1536 854v84q0 36 25 61t61 25h170q35 0 60.5 -25t25.5 -61v-84q0 -71 -51 -121.5t-121.5 -50.5t-120 50.5t-49.5 121.5zM1705.5 1478q70.5 0 121.5 -50t51 -120v-84q0 -36 -25.5 -61
t-60.5 -25h-170q-36 0 -61 25t-25 61v84q0 70 49.5 120t120 50z" />
</svg>