<svg xmlns="http://www.w3.org/2000/svg" xmlns:xlink="http://www.w3.org/1999/xlink" version="1.1" viewBox="-10 0 2058 2048">
   <path fill="currentColor"
d="M666 767q0 149 105 254t253 105t253 -105t105 -254t-105 -253.5t-253 -104.5t-253 104.5t-105 253.5zM1126 1322v111h103q42 0 72 30.5t30 72.5t-30 72t-72 30h-103v103q0 42 -30 72t-72 30t-72 -30t-30 -72v-103h-102q-42 0 -72.5 -30t-30.5 -72t30.5 -72.5t72.5 -30.5
h102v-111q-198 -36 -329.5 -192.5t-131.5 -362.5q0 -153 75.5 -282.5t205 -204.5t282.5 -75t282.5 75t205 204.5t75.5 282.5q0 206 -131.5 362.5t-329.5 192.5z" />
</svg>