<svg xmlns="http://www.w3.org/2000/svg" xmlns:xlink="http://www.w3.org/1999/xlink" version="1.1" viewBox="-10 0 2058 2048">
   <path fill="currentColor"
d="M375 1011q-107 -127 -107 -347q0 -128 37 -236t103 -186t156.5 -133t199 -82t228.5 -27q83 -1 164 9.5t143.5 26.5t128.5 44t108.5 50.5t94.5 57.5t75.5 53t62.5 49q14 11 21 16l-219 313l-161 -107l117 -167q-119 -78 -256 -118t-278 -37q-83 -1 -168 21t-155.5 62.5
t-115 105.5t-44.5 141q0 39 15.5 58.5t43 20t65.5 -10.5q146 -33 242 60q55 51 72 125.5t-4 147.5t-72 126q-63 63 -155.5 82t-186 -12t-155.5 -106zM1751 1035q44 52 71.5 130.5t32 171t-11.5 185.5t-62.5 182.5t-117.5 153.5q-122 105 -261 147.5t-317 42.5
q-229 1 -442 -79.5t-384 -232.5l-67 -60l263 -311l155 119l-146 170q136 101 295.5 153.5t328.5 51.5q200 0 335.5 -72.5t190.5 -206.5q6 -28 6 -55q0 -39 -16 -58t-43.5 -19t-65.5 10q-146 33 -243 -62q-41 -37 -61.5 -87.5t-17.5 -105.5q-1 -83 40.5 -152t112 -106
t152.5 -33q79 -3 150.5 29.5t122.5 93.5z" />
</svg>