<svg xmlns="http://www.w3.org/2000/svg" xmlns:xlink="http://www.w3.org/1999/xlink" version="1.1" viewBox="-10 0 2068 2048">
   <path fill="currentColor"
d="M1920 256v512q52 0 90 38t38 90.5t-38 90t-90 37.5h-128h-128q-52 0 -90 -37.5t-38 -90t38 -90.5t90 -38v-320q-35 0 -66 -19t-48 -51q-24 -47 -7.5 -98.5t63.5 -74.5l128 -64q31 -15 64 -13.5t62 19.5q28 17 44 46t16 63zM128 384h128q31 0 59.5 14t46.5 40l342 491
l344 -491q17 -26 45 -40t59 -14h128q53 0 90.5 37.5t37.5 90t-37.5 90.5t-90.5 38h-62l-358 512l358 512h62q53 0 90.5 38t37.5 90.5t-37.5 90.5t-90.5 38h-128q-31 0 -59 -14.5t-45 -40.5l-344 -490l-342 490q-19 25 -47 40t-59 15h-128q-52 0 -90 -38t-38 -90.5t38 -90.5
t90 -38h62l358 -512l-358 -512h-62q-52 0 -90 -38t-38 -90.5t38 -90t90 -37.5z" />
</svg>