<svg xmlns="http://www.w3.org/2000/svg" xmlns:xlink="http://www.w3.org/1999/xlink" version="1.1" viewBox="-10 0 2058 2048">
   <path fill="currentColor"
d="M1111 1190h-5q-15 20 -33 38zM1211 673q-96 -75 -173 -71q-77 5 -123 46l-46 42q8 6 43 35q30 25 67 79q39 57 27 94q-21 0 -52 -25q-32 -26 -54 -52q-28 -34 -48 -56l-25 -29q-20 21 -263 300q-135 152 -254 334q66 33 87 133l-108 -104q-301 461 -255 647
q117 17 351 -138l-134 -125q101 -12 150 109q256 -176 551 -522q113 -134 121 -142l-8 13l-130 -126q96 -37 171 75q149 -170 190 -237q44 -71 29 -132q-15 -63 -114 -148zM643 1161q6 0 34 2q18 2 66 42q47 39 63 115zM1282 556q66 -200 37 -384q-4 -38 -39 -50
q-36 -12 -63 4q-27 17 -23 54q29 171 -38 355q85 38 126 79q60 45 108 117q8 -4 25 -21q62 -99 167 -189q107 -91 186 -140q89 -54 219 -125q60 -33 12 -84q-37 -42 -83 -17q-192 103 -305 184q104 -108 255 -225q29 -25 23 -61q-6 -35 -34 -48q-27 -12 -60 4
q-321 251 -513 547z" />
</svg>