<svg xmlns="http://www.w3.org/2000/svg" xmlns:xlink="http://www.w3.org/1999/xlink" version="1.1" viewBox="-10 0 2068 2048">
   <path fill="currentColor"
d="M0 1569q0 55 56 55h1938q54 0 54 -55v-130h-2048v130zM1994 424h-1938q-56 0 -56 54v797h2048v-797q0 -54 -54 -54zM1028.5 1204q-147.5 0 -252.5 -103q-104 -103 -104 -249q0 -147 105 -252t252 -105t252 105t105 252q0 146 -106 249q-104 103 -251.5 103zM1024 1137
q-4 0 -12 -8l-194 -185q-4 -4 -8 -4q0 -4 -16 -21q-17 -25 -22 -30q-9 -27 -16 -37q-4 -15 -4 -42q0 -67 38 -105t108 -38q28 0 38 4q14 5 38 21q21 9 26 21q4 0 12 8q8 9 12 9t12 -9q8 -8 14 -8q4 -12 24 -21q25 -16 38 -21q11 -4 38 -4q72 0 110 38q36 37 36 105
q0 67 -66 138l-194 181q-8 8 -12 8z" />
</svg>