<svg xmlns="http://www.w3.org/2000/svg" xmlns:xlink="http://www.w3.org/1999/xlink" version="1.1" viewBox="-10 0 2058 2048">
   <path fill="currentColor"
d="M1024 2048q-266 0 -488 -147h976q-222 147 -488 147zM616 1165q0 12 2 34h-472v-34v-57h470v57zM710 1425q66 77 150 114h-630q-29 -63 -46 -114h526zM630 1267q14 57 42 102h-502q-13 -65 -18 -102h478zM616 950v79h-470v-79h470zM616 158v23h-470v-23h470zM616 0v11
h-470v-11h470zM616 317v33h-470v-33h470zM616 792v67h-470v-67h470zM616 475v45h-470v-45h470zM616 634v56h-470v-56h470zM1376 1369q25 -41 42 -102h478q-8 62 -18 102h-502zM1432 520v-45h470v45h-470zM1432 690v-56h470v56h-470zM1432 350v-33h470v33h-470zM1432 0h470
v11h-470v-11zM502 1878q-96 -72 -150 -136h1340q-60 70 -148 136h-1042zM1432 181v-23h470v23h-470zM1432 859v-67h470v67h-470zM324 1709q-14 -17 -25.5 -37t-25.5 -47.5t-21 -40.5h1548q-48 85 -80 125h-1396zM1186 1539q94 -42 152 -114h524q-28 90 -38 114h-638z
M1432 1165v-57h470v57q0 5 -1 17t-1 17h-472q4 -33 4 -34zM1432 1029v-79h470v79h-470z" />
</svg>