<svg xmlns="http://www.w3.org/2000/svg" xmlns:xlink="http://www.w3.org/1999/xlink" version="1.1" viewBox="-10 0 2068 2048">
   <path fill="currentColor"
d="M2048 320q0 53 -40 102.5t-114 89.5q-87 48 -213.5 80.5t-274.5 42.5q-9 -4 -24.5 -10t-21.5 -9q-248 -104 -592 -104q-34 0 -98 2l-4 -2q-74 -40 -114 -89.5t-40 -102.5q0 -87 103.5 -160.5t280 -116.5t385 -43t385 43t279.5 116.5t103 160.5zM642 644q55 -4 126 -4
q185 0 344 33t266 92q158 85 158 195q0 20 -8 47q-26 76 -140 142l-2 1v0q-1 0 -2 1t-2 1q-106 60 -267 94t-347 34q-175 0 -330 -31t-262 -86q-4 -1 -7.5 -3t-8 -4.5t-6.5 -3.5q-74 -40 -114 -89.5t-40 -102.5q0 -68 66 -130t182 -106.5t264 -65.5q54 -9 130 -14zM1664 960
q0 -116 -96 -213q171 -26 304 -82q103 -43 176 -102v141q0 57 -45.5 109t-128.5 94q-90 45 -210 75v-11v-11zM1536 1344q0 53 -40 102t-114 90q-4 2 -11 6t-11 6q-107 55 -261.5 86t-330.5 31q-184 0 -345 -34.5t-269 -94.5q-73 -41 -113.5 -90t-40.5 -102v-141
q73 59 176 102q246 103 592 103t592 -103q46 -19 90 -44q30 -17 68 -45q11 -7 18 -13v13v23v105zM1664 1344v-128v-104q116 -26 208 -64q103 -43 176 -102v142q0 64 -60 124q-100 100 -324 154v-10.5v-11.5zM768 1793q344 0 592 -104q105 -43 176 -102v142q0 87 -103 160.5
t-279.5 116t-385 42.5t-385 -42.5t-280 -116t-103.5 -160.5v-142q73 59 176 102q119 50 272 77t320 27z" />
</svg>