<svg xmlns="http://www.w3.org/2000/svg" xmlns:xlink="http://www.w3.org/1999/xlink" version="1.1" viewBox="-10 0 2068 2048">
   <path fill="currentColor"
d="M1288 907h-170q-124 0 -211 87.5t-87 210.5q0 99 70 148q46 31 46 74q0 27 -19 46.5t-45 19.5h-10q-16 0 -26 -5q-20 -9 -41.5 -20t-59.5 -36t-71.5 -53.5t-70.5 -72.5t-63.5 -92t-44 -113t-17.5 -135q0 -107 42 -204.5t112 -168.5t167.5 -112.5t204.5 -41.5h294v-224
q0 -53 36.5 -90t89.5 -37q48 0 84 32l506 455q44 39 44 98t-44 98l-508 457q-32 30 -78 30h-14q-48 0 -82 -34.5t-34 -82.5v-234zM292 439q-24 0 -41 17t-17 41v1171q0 24 17 41t41 17h1170q24 0 41 -17t17 -41v-176q0 -48 35 -82.5t83 -34.5t82 34.5t34 82.5v176
q0 121 -85.5 206.5t-206.5 85.5h-1170q-120 0 -206 -85.5t-86 -206.5v-1171q0 -121 86 -206.5t206 -85.5h176q48 0 83 34.5t35 82.5t-35 82.5t-83 34.5h-176z" />
</svg>