<svg xmlns="http://www.w3.org/2000/svg" xmlns:xlink="http://www.w3.org/1999/xlink" version="1.1" viewBox="-10 0 2068 2048">
   <path fill="currentColor"
d="M232 772l38 66q52 91 150 119l232 66q52 15 84 57.5t32 96.5v159q0 33 17.5 61t47 43t46.5 42.5t17 60.5v156q0 47 37 75.5t83 15.5q48 -14 83.5 -50t46.5 -85l12 -44q13 -51 44 -93t76 -68l34 -18q44 -25 70 -70t26 -97v-34q0 -79 -56 -135l-16 -15q-58 -57 -136 -57
h-172q-68 0 -126 -33l-140 -79q-26 -15 -36 -45q-9 -29 2.5 -57t39.5 -41l24 -12q42 -21 84 -6l92 31q24 8 49.5 -1t38.5 -30q14 -21 13 -46.5t-17 -44.5l-56 -65q-29 -36 -28.5 -82t30.5 -82l62 -74q27 -31 31 -72t-17 -76l-8 -16q-14 -1 -42 -1q-182 0 -344.5 74.5
t-278.5 206t-169 299.5zM1856 1024q0 -218 -106 -406l-102 41q-48 19 -69 65t-5 94l68 203q10 31 34.5 53.5t55.5 30.5l116 29q8 -63 8 -110zM0 1024q0 -139 37 -272t103 -245.5t160.5 -207t207 -160t245 -102.5t272 -37t272 37t244.5 102.5t206.5 160t160.5 207t103 245.5
t37 272t-37 272t-103 245.5t-160.5 207t-206.5 160t-244.5 102.5t-272 37t-272 -37t-245 -102.5t-207 -160t-160.5 -207t-103 -245.5t-37 -272z" />
</svg>