<svg xmlns="http://www.w3.org/2000/svg" xmlns:xlink="http://www.w3.org/1999/xlink" version="1.1" viewBox="-10 0 2068 2048">
   <path fill="currentColor"
d="M1968 911h-256q-38 0 -58 -33l-164 -294q-30 -50 -80 -38q-54 9 -62 59l-42 302q-10 42 -10 80l-32 231q0 8 -4 12q0 6 -3 1q0 -2 -1 -5q-6 -5 -6 -8l-42 -231q0 -16 -4 -40q-5 -34 -8 -40l-96 -655q-10 -63 -72 -63q-58 -9 -80 51l-180 688q-12 31 -20 76l-42 142
q-10 33 -22 0l-38 -134q-3 -9 -10 -44q-6 -31 -6 -36l-50 -285q-12 -50 -72 -59q-55 0 -76 51l-92 243q-16 38 -54 38h-206q-34 0 -57 23t-23 52q0 30 23 53t57 23h286q46 0 66 -42l6 -13q15 -28 28 -59q9 -16 14 -4q0 6 6 28q7 29 10 35l134 516q10 54 68 63q58 0 78 -54
l114 -542q0 -15 8 -42q9 -27 14 -37l70 -265q4 -21 11 -10q1 1 1 2q6 5 6 13l42 251q12 75 12 80l122 806q8 63 74 63q64 0 76 -63l118 -823q0 -10 4 -37q4 -33 4 -38q9 -33 30 -4l54 92q22 30 22 38q25 37 70 37h340q34 0 57 -23t23 -52q0 -30 -23 -53t-57 -23z" />
</svg>