<svg xmlns="http://www.w3.org/2000/svg" xmlns:xlink="http://www.w3.org/1999/xlink" version="1.1" viewBox="-10 0 2068 2048">
   <path fill="currentColor"
d="M2014 308v1l-682 683l124 123q24 24 24 57t-24 56.5t-56 23.5h-104l-386 -386v-103q0 -33 24 -57t58 -24q32 0 56 24l124 124l682 -683q32 -33 80 -33t81 33t33 80.5t-34 80.5zM1212 1370q10 114 -29 222.5t-121 189.5q-73 73 -168.5 112.5t-199.5 39.5h-614
q-33 0 -56.5 -23.5t-23.5 -55.5q0 -33 26 -57l450 -405q11 -10 2 -22.5t-22 -5.5l-182 91q-16 8 -31 -1.5t-15 -27.5q0 -84 32 -162t92 -137l28 -29q81 -81 189 -120.5t223 -29.5z" />
</svg>