<svg xmlns="http://www.w3.org/2000/svg" xmlns:xlink="http://www.w3.org/1999/xlink" version="1.1" viewBox="-10 0 2068 2048">
   <path fill="currentColor"
d="M922 409v205h410l-154 -205h-256zM1342 286l244 328h258q42 0 72 30t30 72v206q42 0 72 30t30 72t-30 72t-72 30q-72 -95 -179.5 -149.5t-231 -54.5t-230.5 54.5t-179 149.5h-204q-72 -95 -179 -149.5t-230.5 -54.5t-231 54.5t-179.5 149.5q-42 0 -72 -30t-30 -72t30 -72
t72 -30v-206q0 -42 30 -72t72 -30h512v-256q0 -64 45.5 -108.5t108.5 -44.5h308q48 0 91 21.5t73 59.5zM486 1024h52q29 0 50.5 19t25.5 47q40 12 70 28q22 -17 50.5 -15t49.5 23l36 36q20 21 22 49.5t-16 50.5q19 34 30 70q27 4 46.5 25.5t19.5 50.5v51q0 29 -19.5 50.5
t-46.5 25.5q-11 36 -30 70q18 22 16 51t-22 49l-36 36q-21 21 -49.5 22.5t-50.5 -15.5q-34 18 -70 29q-4 29 -25.5 47.5t-50.5 18.5h-52q-29 0 -50.5 -19t-25.5 -47q-40 -12 -70 -28q-22 17 -50 15t-48 -22l-38 -37q-20 -21 -22 -49.5t16 -50.5q-19 -34 -30 -70
q-27 -4 -46.5 -25.5t-19.5 -50.5v-51q0 -29 19.5 -50.5t46.5 -25.5q11 -36 30 -70q-18 -22 -16 -51t22 -49l38 -37q20 -21 48 -22.5t50 15.5q30 -16 70 -28q4 -28 26 -47.5t50 -19.5v1zM512.5 1587q63.5 0 108.5 -45t45 -109t-45 -108.5t-108.5 -44.5t-108 44.5t-44.5 108.5
t44.5 109t108 45zM1434 1090q4 -28 25.5 -47t50.5 -19h52q29 0 50.5 19t25.5 47q40 12 70 28q22 -17 50.5 -15t49.5 23l36 36q20 21 22 49.5t-16 50.5q19 34 30 70q27 4 46.5 25.5t19.5 50.5v51q0 29 -19.5 50.5t-46.5 25.5q-11 36 -30 70q18 22 16 51t-22 49l-36 36
q-21 21 -49.5 22.5t-50.5 -15.5q-34 18 -70 29q-4 29 -25.5 47.5t-50.5 18.5h-52q-29 0 -50.5 -19t-25.5 -47q-40 -12 -70 -28q-22 17 -50.5 15t-49.5 -22l-36 -37q-20 -21 -22 -49.5t16 -50.5q-19 -34 -30 -70q-28 -4 -47 -25.5t-19 -50.5v-51q0 -29 19.5 -50.5t46.5 -25.5
q11 -36 30 -70q-18 -22 -16 -51t22 -49l36 -37q21 -21 49.5 -22.5t50.5 15.5q30 -16 70 -28zM1690 1433q0 -64 -45.5 -108.5t-109 -44.5t-108.5 44.5t-45 108.5t45 109t108.5 45t109 -45t45.5 -109z" />
</svg>