<svg xmlns="http://www.w3.org/2000/svg" xmlns:xlink="http://www.w3.org/1999/xlink" version="1.1" viewBox="-10 0 2068 2048">
   <path fill="currentColor"
d="M2047 1022q0 48 -33.5 81.5t-79.5 33.5h-114l2 569q0 94 -66.5 161t-160.5 67h-434l-137 -227l288 -240q21 -17 20 -44t-22 -44l-419 -330q-19 -14 -40.5 -12t-34 16.5t-17 34t11.5 40.5l213 294l-303 253q-17 13 -20.5 34t7.5 39l112 186h-364q-94 0 -160.5 -66.5
t-66.5 -160.5v-570h-114q-48 0 -81 -33t-33 -82t36 -85l911 -795q28 -28 78 -28q44 0 74 24l379 334v-130q0 -47 33 -80.5t81 -33.5h114q47 0 80 33.5t33 80.5v430l188 165q44 39 39 85z" />
</svg>