<svg xmlns="http://www.w3.org/2000/svg" xmlns:xlink="http://www.w3.org/1999/xlink" version="1.1" viewBox="-10 0 2068 2048">
   <path fill="currentColor"
d="M904 1852l-12 -9l-698 -651q-92 -86 -143 -201.5t-51 -240.5v-13q0 -140 61.5 -262.5t170.5 -205t246 -108.5q116 -23 232.5 2.5t213.5 94.5q60 42 100 89q23 -27 54 -53q25 -22 46 -36q98 -69 214 -95t232 -3q137 26 246 109t170.5 205.5t61.5 262.5v13
q0 125 -50.5 240.5t-141.5 201.5l-700 651l-10 9q-51 47 -121.5 47t-120.5 -47zM956 559l-4 -4l-70 -80v0q-69 -78 -168 -111.5t-202 -13.5q-139 27 -229.5 135.5t-90.5 251.5v13q0 85 34.5 163.5t97.5 137.5l700 651l700 -651q63 -59 97.5 -137.5t34.5 -163.5v-13
q0 -143 -90.5 -251.5t-229.5 -135.5q-102 -20 -200 13.5t-168 111.5h-2l-70 80q-1 0 -2 1.5t-2 2.5q-28 28 -68 28t-68 -28z" />
</svg>