<svg xmlns="http://www.w3.org/2000/svg" xmlns:xlink="http://www.w3.org/1999/xlink" version="1.1" viewBox="-10 0 2068 2048">
   <path fill="currentColor"
d="M102 307q42 0 72 30t30 72v820h718v-513q0 -42 30 -72t72 -30h716q128 0 218 90t90 218v716q0 42 -30.5 72.5t-72 30.5t-71.5 -30.5t-30 -72.5v-102h-718h-102h-820v102q0 42 -30 72.5t-71.5 30.5t-72 -30.5t-30.5 -72.5v-1229q0 -42 30 -72t72 -30zM563.5 614
q105.5 0 181 75.5t75.5 181.5t-75.5 180.5t-181 74.5t-180.5 -74.5t-75 -180.5t75 -181.5t180.5 -75.5z" />
</svg>