<svg xmlns="http://www.w3.org/2000/svg" xmlns:xlink="http://www.w3.org/1999/xlink" version="1.1" viewBox="-10 0 2058 2048">
   <path fill="currentColor"
d="M832 128q0 -52 38 -90t90 -38h128q52 0 90 38t38 90v564l488 -282q46 -26 97 -12.5t77 59.5l64 111q27 46 13 97.5t-59 77.5l-488 281l488 282q45 26 59 77.5t-13 97.5l-64 110q-26 46 -77 60.5t-97 -12.5l-488 -282v563q0 52 -38 90t-90 38h-128q-52 0 -90 -38t-38 -90
v-563l-488 282q-45 26 -96.5 12.5t-77.5 -59.5l-64 -110q-27 -46 -13 -98t59 -78l488 -282l-488 -281q-45 -26 -59 -77.5t13 -97.5l64 -111q26 -46 77.5 -59.5t96.5 12.5l488 282v-564z" />
</svg>