<svg xmlns="http://www.w3.org/2000/svg" xmlns:xlink="http://www.w3.org/1999/xlink" version="1.1" viewBox="-10 0 2068 2048">
   <path fill="currentColor"
d="M1332 767q0 115 -53 219t-142.5 180t-212.5 120.5t-258 44.5q-182 0 -336 -76q-32 18 -80 36q-108 40 -198 40q-17 0 -30 -10t-18 -26q-6 -16 -1 -31.5t19 -25.5v0v-1l4 -2q1 -2 14 -12q19 -17 42 -46q33 -46 46 -78q-128 -148 -128 -332q0 -115 53 -219t142 -179
t212 -119.5t258.5 -44.5t258.5 44.5t212.5 119.5t142.5 179t53 219zM742 1430q139 -12 265.5 -67t220.5 -141t150 -204.5t56 -250.5q0 -17 -2 -49q127 8 241 55.5t196 122t130.5 175t48.5 209.5q0 183 -128 331q14 36 46 79q20 25 42 46q13 10 14 12q2 0 2.5 1t1.5 1v0
q14 10 19 25.5t-1 31.5q-5 16 -18 26t-30 10q-91 0 -198 -40q-50 -19 -80 -36q-154 76 -336 76q-226 0 -403.5 -116t-236.5 -297zM730 435q0 -27 -19 -45.5t-46 -18.5t-45 18.5t-18 45.5v45q-37 8 -72 27q-82 50 -82 141q0 84 80 130q41 24 114 45l4 1q64 18 90 34
q18 12 18 26q0 22 -18 34q-27 17 -68 15q-38 -1 -112 -27q-4 -2 -12 -4.5t-12 -3.5q-25 -8 -48.5 4t-32 37t3.5 49t37 32q16 6 20 7v0q43 16 90 26v47q0 27 18 45.5t45 18.5t46 -18.5t19 -45.5v-43q39 -8 74 -30q81 -51 80 -143q-2 -85 -80 -133q-37 -24 -118 -49h-2
q-67 -19 -90 -33q-18 -11 -18 -22q0 -18 20 -29q28 -17 68 -17q39 0 100 17q27 7 49 -6.5t29 -39.5q8 -26 -5 -48t-39 -30q-50 -12 -68 -15v-44z" />
</svg>