<svg xmlns="http://www.w3.org/2000/svg" xmlns:xlink="http://www.w3.org/1999/xlink" version="1.1" viewBox="-10 0 2068 2048">
   <path fill="currentColor"
d="M1502 79l73 394l394 73q24 4 43 19.5t28 37.5q19 47 -10 91l-227 330l227 331q29 42 9 91q-18 46 -70 57l-394 73l-73 394q-9 52 -57 71t-91 -9l-331 -229l-330 228q-43 29 -90.5 10t-57.5 -72l-73 -393l-394 -73q-24 -4 -42.5 -19t-27.5 -38q-19 -49 9 -92l228 -330
l-228 -330q-28 -43 -9 -91q9 -22 28 -37.5t43 -19.5l393 -73l73 -394q10 -53 57 -72q48 -19 92 10l329 227l331 -227q43 -29 91 -9q48 19 57 71zM1077 440q-24 17 -54 17t-54 -17l-262 -180l-57 313q-6 29 -27 50t-51 27l-313 57l181 263q17 25 17 54.5t-17 54.5l-181 262
l313 57q29 6 50.5 27.5t27.5 50.5l57 313l262 -181q24 -17 54 -17t54 17l264 181l57 -313q6 -30 27 -51t50 -27l313 -57l-181 -262q-17 -25 -17 -54.5t17 -54.5l181 -263l-313 -57q-29 -6 -50 -27t-27 -50l-57 -313zM1023 1472q-91 0 -173.5 -35.5t-142.5 -95.5t-95.5 -143
t-35.5 -174t35.5 -174t95.5 -143t142.5 -95.5t173.5 -35.5t174 35.5t143.5 95.5t96 143t35.5 174t-35.5 174t-96 143t-143.5 95.5t-174 35.5zM768 1024q0 106 75 181t180.5 75t181 -75.5t75.5 -181t-75.5 -180t-181.5 -74.5t-180.5 74.5t-74.5 180.5z" />
</svg>