<svg xmlns="http://www.w3.org/2000/svg" xmlns:xlink="http://www.w3.org/1999/xlink" version="1.1" viewBox="-10 0 2058 2048">
   <path fill="currentColor"
d="M958 1646q42 196 13 283q-34 81 -131 106q-6 0 -17 4q-15 6 -32 7q-26 2 -36 2q-127 0 -182 -114q-17 -32 -59 -149q-51 -145 -118 -253q-47 -64 -68 -110q-92 -143 -148 -271q-102 -241 -102 -335q0 -54 30 -84q7 -7 25 -17q0 -47 34 -68l34 -17q0 -44 8 -59
q9 -35 43 -47q1 0 15 -2q9 -1 14 -6q10 -38 17 -51q25 -33 55 -38q30 -9 55 0q9 -35 21 -51q42 -42 93 -42q28 0 47 4q18 4 36 11q15 6 27 21q4 5 22 23q8 8 14 28q5 18 11 25q3 4 8 28l5 17q4 23 4 67q0 53 8 68q0 2 7 13q6 9 10 17q64 90 85 173q8 44 -13 174
q-30 194 -13 258q12 65 85 186q72 128 93 199zM1969 431q-5 -76 -64 -93q0 -42 -38 -63q-18 -13 -38 -13q0 -34 -12 -59q-17 -30 -51 -42q-2 0 -7 -1.5t-8 -1.5q-14 -2 -15 -2q-9 -34 -21 -46q-20 -25 -59 -34q-40 0 -55 4q-9 -26 -25 -42q-35 -38 -89 -38h-9
q-136 9 -152 177q0 49 4 68q9 41 -4 68q0 7 -13 30q-53 118 -63 186q-5 53 29 173q43 175 39 254q-9 68 -60 195q-54 110 -63 203q-25 194 17 283q26 47 72 68t67 21l22 2t33 2q152 0 203 -131q15 -38 43 -156q26 -139 88 -267q25 -55 55 -114q79 -165 115 -284
q68 -273 59 -347z" />
</svg>