<svg xmlns="http://www.w3.org/2000/svg" xmlns:xlink="http://www.w3.org/1999/xlink" version="1.1" viewBox="-10 0 2067 2048">
   <path fill="currentColor"
d="M326 1956v-304h304v304h-304zM72 1397h254v255h-254v-255zM1996 697q40 129 48.5 259.5t-13.5 248.5t-70 228.5t-117.5 203t-160 169.5t-194 130t-223 82.5t-243.5 29.5v-396h1v-1q103 0 200 -33.5t174.5 -91.5t135.5 -139.5t88 -175t27.5 -202.5t-41.5 -217
q-44 -123 -137 -216.5t-216 -137.5q-107 -39 -216 -41t-203 28t-176 88t-140 135t-91.5 174t-33.5 200h-394q0 -124 29.5 -243t82.5 -222.5t130 -194t169.5 -160t202.5 -117.5t228 -69.5t248 -13t259 48.5q230 72 402.5 244.5t243.5 401.5zM1024 1651h-1v1h-393v-395h394
v394z" />
</svg>