<svg xmlns="http://www.w3.org/2000/svg" xmlns:xlink="http://www.w3.org/1999/xlink" version="1.1" viewBox="-10 0 2068 2048">
   <path fill="currentColor"
d="M1334 1049l86 86l-34 82q-1 3 -31.5 3.5t-60.5 -0.5l-31 -1l-37 37q6 131 0 133l-81 31q-3 1 -25.5 -23t-43.5 -49l-22 -24l-53 -1l-87 97l-82 -34q-3 -1 -4 -34t-1 -66v-33l-39 -40q-120 4 -122 -2l-39 -82q-1 -3 21 -25t44 -42l22 -21l-1 -52l-86 -88l34 -81
q1 -3 31.5 -3t60.5 1l30 1l38 -38l-2 -120l83 -34q3 -1 25.5 20.5t44.5 42.5l21 22l53 1l87 -86l82 38q3 1 4 31t1 60v29l39 38q120 -4 122 2l39 83q1 3 -21 24.5t-44 41.5l-22 21zM1148 1013q-2 -53 -41.5 -88.5t-93.5 -33.5t-90 41.5t-34 92.5t41.5 88.5t93.5 33.5
t90 -41.5t34 -92.5zM1979 857q69 69 69 167t-69 167l-172 172l-95.5 95.5l-126.5 126.5q-151 151 -353 205.5t-404.5 2t-355.5 -201.5l-1 2q-78 -78 -126 -126.5t-98 -98.5t-178 -177q-69 -69 -69 -167t69 -167q140 -139 395 -394q151 -151 353 -205.5t404.5 -2t355.5 201.5
l2 -1zM579 1470q185 184 445 184t445 -184q121 -121 164 -283.5t0 -324.5t-164 -283t-283 -164t-324 0t-283 164t-164 283t0 324.5t164 283.5z" />
</svg>