<svg xmlns="http://www.w3.org/2000/svg" xmlns:xlink="http://www.w3.org/1999/xlink" version="1.1" viewBox="-10 0 2068 2048">
   <path fill="currentColor"
d="M422 1018q0 -122 47.5 -234t128.5 -192.5t192.5 -128.5t233.5 -48q121 0 230.5 45.5t195.5 131.5q86 87 134 197t48 229q0 122 -48.5 234t-130 192.5t-194 128.5t-235.5 48q-162 0 -306 -84l-24 -14l-226 59l60 -221l-14 -23q-92 -145 -92 -320zM1256 1362q31 -4 71 -30
t51 -55q10 -29 13 -56.5t-1 -31.5q-4 -5 -26 -16l-10 -5q-4 -2 -34.5 -17t-56 -27t-33.5 -15q-11 -6 -21.5 -5t-18.5 14q-13 17 -58 71q-14 17 -38 5q-92 -46 -145.5 -89.5t-100.5 -126.5q-6 -15 -4 -21t14 -19q27 -29 42 -59q8 -15 0 -31q-1 -2 -6.5 -14t-13.5 -31t-14 -35
q-15 -33 -22 -55q-7 -14 -14.5 -21.5t-12 -8.5t-11.5 -1h-4h-34q-30 0 -48 22l-4 4q-60 60 -60 148q0 31 9.5 64t24.5 60.5t23.5 40t16.5 23.5l1.5 2t2.5 3q144 198 304 268q82 36 127 44t91 1zM2048 292v1464q0 121 -86 206.5t-206 85.5h-1464q-120 0 -206 -85.5
t-86 -206.5v-1464q0 -121 86 -206.5t206 -85.5h1464q120 0 206 85.5t86 206.5zM678 1654q159 88 346 88q148 0 283 -57.5t233.5 -154t157 -231t58.5 -281.5q0 -143 -58 -275.5t-162 -237.5q-102 -103 -234 -158t-278 -55q-147 0 -281.5 57.5t-231.5 154t-155 231t-58 281.5
q0 194 98 363l-104 377z" />
</svg>