<svg xmlns="http://www.w3.org/2000/svg" xmlns:xlink="http://www.w3.org/1999/xlink" version="1.1" viewBox="-10 0 2068 2048">
   <path fill="currentColor"
d="M856 278l454 454q68 69 68 166t-68 166l-454 454q-70 69 -167 69t-167 -69l-452 -454q-70 -69 -70 -166t70 -166l452 -454q70 -69 167 -69t167 69zM610 898q0 32 23.5 55t56 23t55.5 -23t23 -55t-23 -55.5t-55.5 -23.5t-56 23.5t-23.5 55.5zM270.5 819
q-32.5 0 -55.5 23.5t-23 55.5t23 55t55.5 23t56 -23t23.5 -55t-23.5 -55.5t-56 -23.5zM689.5 1394q32.5 0 55.5 -23t23 -55t-23 -55t-55.5 -23t-56 23t-23.5 55t23.5 55t56 23zM1107.5 819q-32.5 0 -56 23.5t-23.5 55.5t23.5 55t56 23t55.5 -23t23 -55t-23 -55.5
t-55.5 -23.5zM689.5 558q32.5 0 55.5 -23.5t23 -55.5t-23 -55t-55.5 -23t-56 23t-23.5 55t23.5 55.5t56 23.5zM1004 1630v-112l378 -380q69 -69 91 -162.5t-7 -181.5h374q86 0 147 61t61 147v628q0 86 -61 147.5t-147 61.5h-628q-87 0 -147.5 -61.5t-60.5 -147.5z
M1525.5 1238q-32.5 0 -55 23t-22.5 55t22.5 55t55 23t55.5 -23t23 -55t-23 -55t-55.5 -23z" />
</svg>