<svg xmlns="http://www.w3.org/2000/svg" xmlns:xlink="http://www.w3.org/1999/xlink" version="1.1" viewBox="-10 0 2068 2048">
   <path fill="currentColor"
d="M1592 1626q-130 -101 -152 -394q-23 -294 18 -535l46 -243h360q30 0 64 -10q36 -10 78 -59q42 -46 42 -127q0 -95 -44 -149q-43 -51 -90 -56h-46h-1316q-247 0 -524 427q-41 67 -20 87q21 22 100 -12q156 -66 274 -92q116 -25 148 -17l38 8q25 73 14 408q-10 334 -72 475
q-8 17 -42 88q-9 18 -19.5 39.5t-17.5 35.5t-11 23q-11 23 -36 90q-20 59 -20 96q0 38 6 86q5 48 40 86q31 36 82 67q155 89 278.5 -66.5t107.5 -444.5l-26 -983h330q-54 810 -8 1105q22 213 140 326q120 114 260 109q140 -4 272 -82q130 -76 176 -207q42 -133 0 -222
q-32 -87 -82 -92q-26 0 -22 30q9 53 -4 87q-11 75 -114 128t-208 -10z" />
</svg>