<svg xmlns="http://www.w3.org/2000/svg" xmlns:xlink="http://www.w3.org/1999/xlink" version="1.1" viewBox="-10 0 2058 2048">
   <path fill="currentColor"
d="M1324 990h-600q-37 0 -57 27q-19 26 -6 65l335 928q12 38 32 38q19 0 31 -38l328 -928q17 -38 -2.5 -65t-60.5 -27zM678 944h671q139 0 172 -59q29 -52 12 -128q-17 -74 -67 -111q-72 -59 -63 -122q9 -108 -71 -176q-67 -46 -67 -130q5 -97 -67 -158q-70 -60 -164 -60
q-53 0 -79 12q-29 9 -28 28q1 18 23 27q26 17 26 42t-17 42q-15 15 -57 37q-37 19 -65 47q-30 42 55 75q15 4 86 38q69 33 111 42q25 0 33 4q-8 2 -16 4.5t-17 4.5q-42 0 -122 -36q-78 -35 -147 -40q-112 0 -138 117q-9 38 17 72q27 34 67 46q25 9 92 40q61 28 113 44
q56 17 114 17q26 0 37 4l-16 4t-17 4q-82 0 -223 -52t-226 -46t-118 128q-29 111 5 176q30 63 151 63z" />
</svg>