<svg xmlns="http://www.w3.org/2000/svg" xmlns:xlink="http://www.w3.org/1999/xlink" version="1.1" viewBox="-10 0 2068 2048">
   <path fill="currentColor"
d="M304 1219l-300 -1077q-4 -13 -4 -29q0 -47 33 -80t81 -33h1816q49 0 83.5 34t34.5 84q0 13 -2 20l-308 1846q-4 28 -25.5 46t-49 18t-49 -18t-26.5 -45l-244 -1345l-116 576q-6 28 -27.5 46t-50.5 18q-27 0 -49 -17t-29 -44l-112 -450l-116 704q-5 28 -26.5 45.5
t-49 17.5t-49 -17.5t-25.5 -45.5l-118 -704l-112 448q-6 28 -29 45.5t-51 17.5t-50.5 -17t-29.5 -44z" />
</svg>