<svg xmlns="http://www.w3.org/2000/svg" xmlns:xlink="http://www.w3.org/1999/xlink" version="1.1" viewBox="-10 0 2068 2048">
   <path fill="currentColor"
d="M2004 967q18 4 31 20t13 36q0 21 -13.5 36t-32.5 19l-206 356q4 9 4 19q0 20 -13.5 35.5t-32.5 19.5l-194 337q4 7 4 16q0 24 -16.5 40.5t-39.5 16.5q-25 0 -42 -18h-400q-16 20 -42.5 20t-43.5 -20h-398q-17 20 -44 20q-23 0 -39.5 -16.5t-16.5 -40.5q0 -8 4 -20
l-194 -335q-19 -4 -31.5 -19.5t-12.5 -35.5q0 -10 2 -19l-206 -356q-19 -5 -31.5 -20t-12.5 -35q0 -21 13 -37t33 -20l200 -344q0 -1 -1 -3t-1 -3q0 -34 36 -50l208 -363q-4 -10 -4 -19q0 -24 16.5 -40t39.5 -16q28 0 44 20h396q16 -20 43.5 -20t42.5 20h398q17 -20 44 -20
q24 0 40 16t16 40q0 7 -4 19l208 358q23 1 39.5 17t16.5 38q0 14 -8 28zM522 1751v-283h-164zM522 1437v-189l-168 177q4 8 4 12h164zM522 1205v-347l-188 -194q-12 8 -28 10l-194 336v13q0 10 -2 15l208 360q3 0 5.5 1t5.5 2.5l5 2.5zM522 823v-269l-164 58v2v2q0 17 -8 30
zM522 521v-222l-164 282zM1740 668v-1l-366 379l238 251l130 -624zM1038 1394l-42 43h84zM1036 1352l296 -307l-310 -328l-296 316zM1056 1374l64 63h462l22 -105l-252 -266zM1480 234l-436 462l310 328l364 -378q-8 -13 -8 -30v-2l-216 -376q-10 -2 -14 -4zM1446 226h-16
l-620 223l212 226zM986 226h-388l190 199l554 -199h-280q-16 15 -39 15t-37 -15zM552 246v264l204 -74l-190 -200q-2 0 -5 1t-5 1zM552 542v312l152 157l298 -315l-224 -235zM552 888v285l136 -143zM552 1217v220h402l62 -65l-308 -321zM578 1822h4l342 -354h-372v335l4 6
q12 4 22 13zM1062 1822h390l-344 -354h-142l-342 354h360q18 -16 39.5 -16t38.5 16zM1510 1778l64 -310h-426l332 343q8 -4 14 -5zM1558 1694l130 -226h-82zM1688 1437q2 -6 6 -11l-64 -67l-18 78h76zM1934 1037q-2 -10 -2 -14q0 -1 4 -16l-170 -297l-130 613l78 82
q4 -3 14 -7z" />
</svg>