<svg xmlns="http://www.w3.org/2000/svg" xmlns:xlink="http://www.w3.org/1999/xlink" version="1.1" viewBox="-10 0 2068 2048">
   <path fill="currentColor"
d="M2048 568v910q0 94 -67.5 161t-160.5 67h-1090q-94 0 -160 -66l-536 -536q-34 -34 -34 -80t34 -80l536 -536q66 -66 160 -66h1090q93 0 160.5 66.5t67.5 159.5zM964 736q-26 25 -26 60t26 60l166 166l-166 168q-26 25 -25.5 60t25 60.5t60 25.5t60.5 -26l166 -166
l168 166q25 26 60 25.5t60.5 -25t25.5 -59.5t-26 -61l-168 -168l168 -166q26 -24 25.5 -59t-25 -60.5t-59.5 -25.5t-61 25l-168 166l-166 -166q-24 -25 -59.5 -25t-60.5 25z" />
</svg>