<svg xmlns="http://www.w3.org/2000/svg" xmlns:xlink="http://www.w3.org/1999/xlink" version="1.1" viewBox="-10 0 2058 2048">
   <path fill="currentColor"
d="M807 304h2q-201 102 -322.5 294.5t-121.5 424.5q0 164 63.5 313t171.5 257t256.5 172t311.5 64q80 0 175 -20q-149 -52 -276 -147.5t-218 -220.5t-142 -280t-51 -321q0 -293 151 -536zM1092 1v2q30 -3 31 -3h46h37l48 3q24 1 42 17.5t23.5 39.5t-4 45t-30.5 34
q-30 18 -44 27q-21 13 -57 41q-3 2 -8 5.5t-7 5.5q-137 112 -214.5 275t-77.5 348q0 164 63.5 313t170.5 256t255.5 171t311.5 64h1h16q38 0 71 -3q9 -1 26.5 -4t24.5 -4q23 -4 44.5 7t33.5 32q11 21 6.5 44.5t-21.5 40.5q-6 6 -18 17.5t-18 16.5q-35 32 -63 52
q-5 3 -13.5 9t-12.5 9q-127 90 -276.5 138t-310.5 48q-139 0 -272 -37t-245 -103t-206 -160.5t-160 -207t-102.5 -245.5t-36.5 -272q0 -133 33.5 -260.5t94 -236.5t147 -202t190.5 -161t227 -110.5t254 -51.5z" />
</svg>