<svg xmlns="http://www.w3.org/2000/svg" xmlns:xlink="http://www.w3.org/1999/xlink" version="1.1" viewBox="-10 0 2058 2048">
   <path fill="currentColor"
d="M1082 863q11 -19 9.5 -41t-17.5 -38q-19 -19 -46 -19t-45 19l-658 658q-18 17 -41.5 12t-29.5 -28q-19 -71 -26.5 -146.5t2 -171.5t39 -189t93 -196.5t156.5 -195.5q104 -105 248 -192t287.5 -143.5t300.5 -98.5t281 -62.5t235 -29.5q61 -5 105.5 39.5t40.5 106.5
q-14 170 -60.5 382.5t-126.5 415.5q-14 30 -40 38l-323 98q-12 3 -19 12.5t-7 21.5q0 15 10 26t26 11h155q36 0 53.5 30.5t-0.5 61.5q-20 32 -49 78q-13 19 -34 25l-391 117q-12 3 -19 13t-7 22q0 15 10.5 26t26.5 11h65q28 0 45 18.5t14.5 43t-25.5 40.5q-98 64 -202.5 102
t-199.5 46.5t-175 2t-152 -26.5q-53 -14 -96 -41l-299 299q-28 28 -67.5 28t-68 -28t-28.5 -67.5t29 -67.5z" />
</svg>