<svg xmlns="http://www.w3.org/2000/svg" xmlns:xlink="http://www.w3.org/1999/xlink" version="1.1" viewBox="-10 0 2058 2048">
   <path fill="currentColor"
d="M767 512q0 216 188 417q35 36 69 66q34 -30 69 -66q187 -200 187 -417q0 -106 -75 -181t-181 -75t-181.5 75t-75.5 181zM1024 0q139 0 257 68.5t186 186.5t68 257q0 275 -186 512h186q53 0 91 38t38 90t-38 90t-91 38h-383v640q0 52 -38 90t-90 38t-90 -38t-38 -90v-640
h-384q-52 0 -90 -38t-38 -90t38 -90t90 -38h187q-187 -241 -187 -512q0 -212 150 -362t362 -150z" />
</svg>