<svg xmlns="http://www.w3.org/2000/svg" xmlns:xlink="http://www.w3.org/1999/xlink" version="1.1" viewBox="-10 0 2068 2048">
   <path fill="currentColor"
d="M512 256q0 -106 75.5 -181t180.5 -75h640v512q0 52 38 90t90 38h512v1153q0 106 -75.5 180.5t-180.5 74.5h-1024q-105 0 -180.5 -74.5t-75.5 -180.5v-449h696l-156 156q-28 28 -28 67.5t28.5 67.5t68.5 28t67 -28l320 -319q29 -28 29 -68t-29 -68l-320 -320
q-28 -28 -68 -28t-67.5 28.5t-28 68t27.5 67.5l156 156h-696v-896zM512 1152v192h-416q-39 0 -67.5 -27.5t-28.5 -67.5t28.5 -68.5t67.5 -28.5h416zM2048 512h-512v-512z" />
</svg>