<svg xmlns="http://www.w3.org/2000/svg" xmlns:xlink="http://www.w3.org/1999/xlink" version="1.1" viewBox="-10 0 2058 2048">
   <path fill="currentColor"
d="M1897 364q36 4 64 25.5t41 51.5t7 65.5t-33 62.5l-1074 1057l-162 370q-25 39 -71.5 49.5t-89.5 -12t-57 -69.5l-480 -1592q-15 -61 15 -109t83 -58l1240 -203q42 -8 81 12.5t55 60.5t-5 95l-65 154zM1397 98l-864 141l811 75l76 -182q8 -16 1.5 -26.5t-24.5 -7.5z
M141 346l721 1117l443 -1055l-1137 -104q-18 -3 -27.5 10.5t0.5 31.5zM658 1939q129 -293 161 -361l-583 -904l379 1259q5 16 19.5 18t23.5 -12zM1904 502q10 -11 6.5 -23.5t-17.5 -16.5l-486 -44l-410 976z" />
</svg>