<svg xmlns="http://www.w3.org/2000/svg" xmlns:xlink="http://www.w3.org/1999/xlink" version="1.1" viewBox="-10 0 2068 2048">
   <path fill="currentColor"
d="M1792 1024q0 -156 -61 -298.5t-164 -245t-245 -163.5t-297.5 -61t-298 61t-245.5 163.5t-164 245t-61 298.5t61 298.5t164 245.5t245.5 164t298 61t297.5 -61t245 -164t164 -245.5t61 -298.5zM0 1024q0 -139 37 -272t103 -245.5t160.5 -207t207 -160t245 -102.5t272 -37
t272 37t244.5 102.5t206.5 160t160.5 207t103 245.5t37 272t-37 272t-103 245.5t-160.5 207t-206.5 160t-244.5 102.5t-272 37t-272 -37t-245 -102.5t-207 -160t-160.5 -207t-103 -245.5t-37 -272zM1024.5 1344q132.5 0 226 -93.5t93.5 -226.5t-93.5 -226.5t-226 -93.5
t-226.5 93.5t-94 226.5t94 226.5t226.5 93.5zM1024.5 448q116.5 0 223.5 46t184 123t122.5 183.5t45.5 223.5t-45.5 223.5t-122.5 184t-184 123.5t-223.5 46t-223.5 -46t-184 -123.5t-123 -184t-46 -223.5t46 -223.5t123 -183.5t184 -123t223.5 -46zM896 1024q0 -52 38 -90
t90.5 -38t90 37.5t37.5 90.5t-37.5 90.5t-90 37.5t-90.5 -38t-38 -90z" />
</svg>