<svg xmlns="http://www.w3.org/2000/svg" xmlns:xlink="http://www.w3.org/1999/xlink" version="1.1" viewBox="-10 0 2068 2048">
   <path fill="currentColor"
d="M1024 1843q-124 0 -238 -48.5t-196 -131t-131 -196.5t-49 -239q0 -122 96 -319l954 753q-85 86 -197.5 133.5t-238.5 47.5zM1616 1391l402 315q25 20 29 52t-15.5 56.5t-51 28.5t-56.5 -16l-1894 -1485q-25 -19 -29 -51t15.5 -57t51.5 -29t56 15l536 420
q133 -208 284 -398q29 -37 78 -37h6q48 0 78 37q32 42 66 86.5t89.5 122t103.5 150.5t100 162.5t89 168t60.5 157.5t23.5 139q0 83 -22 163zM718 1280q0 -21 -16 -36.5t-36.5 -15.5t-36 15.5t-15.5 36.5q0 98 48 180.5t130.5 130t179.5 47.5q22 0 37 -15t15 -36t-15 -36
t-37 -15q-105 0 -179.5 -75t-74.5 -181z" />
</svg>