<svg xmlns="http://www.w3.org/2000/svg" xmlns:xlink="http://www.w3.org/1999/xlink" version="1.1" viewBox="-10 0 2058 2048">
   <path fill="currentColor"
d="M1076 1q141 19 236.5 127.5t95.5 253.5q0 15 -6 66h6q106 0 181 75t75 181q0 75 -36 133q125 21 208.5 119.5t83.5 228.5q0 95 -47.5 176t-128.5 128t-176 47h-42q22 -64 0 -127q-21 -58 -71.5 -93.5t-110.5 -35.5h-74l118 -234q30 -61 15.5 -127t-67 -108t-120 -42.5
t-120.5 41.5l-640 512q-45 37 -63 92.5t-1 110.5q-116 -29 -190 -123.5t-74 -216.5q0 -130 84 -228.5t210 -119.5q-38 -60 -38 -133q0 -106 75.5 -181t180.5 -75h64q146 0 232 -68q88 -68 88 -191q0 -50 -18 -104q-12 -33 12 -62q22 -27 58 -22zM1256 911q18 14 23 36t-5 42
l-210 419h280q21 0 38 12t23.5 31t1 39t-22.5 33l-640 511q-18 14 -40 14t-39.5 -13.5t-22.5 -36.5t6 -43l208 -419h-280q-21 0 -37.5 -11.5t-22.5 -30.5q-7 -19 -2 -39t22 -33l640 -511q18 -13 40 -13t40 13z" />
</svg>