<svg xmlns="http://www.w3.org/2000/svg" xmlns:xlink="http://www.w3.org/1999/xlink" version="1.1" viewBox="-10 0 2068 2048">
   <path fill="currentColor"
d="M480 150q251 -155 540 -150q140 0 268 28.5t229.5 78.5t188.5 118t149 147t106 165t65.5 172.5t21.5 168.5q0 98 -37.5 188.5t-106.5 160.5t-158.5 108.5t-187.5 39.5q-86 0 -153.5 -10t-106.5 -24.5t-64 -32.5t-33.5 -32.5t-8.5 -27.5q0 -19 20 -38l2 -6l2 -6
q64 -70 64 -166q0 -116 -58 -221.5t-156.5 -182t-235 -122t-286.5 -45.5q-231 -1 -430 107q31 -65 77.5 -129.5t87 -108.5t89 -87t70 -59t42.5 -31v-3zM544 1422q-8 183 66 349q87 170 224 277q-176 -34 -328.5 -126t-267.5 -231t-176.5 -308.5t-61.5 -350.5q0 -101 74 -188
t200 -138.5t270 -51.5q110 -1 214.5 32.5t193.5 98.5l-14 4q-102 35 -193 133.5t-146 233t-55 266.5zM1880 1601h-4q-72 114 -168 198q-191 174 -434 199q-120 2 -216 -45q-76 -30 -139.5 -85.5t-108.5 -126.5q-89 -149 -76 -319q-2 -112 62 -233q41 99 110 182.5t160 141.5
q182 119 406 114q190 2 360 -81l8 -5q28 -17 46 0q8 9 8.5 20t-2.5 17.5t-12 19.5v3z" />
</svg>