<svg xmlns="http://www.w3.org/2000/svg" xmlns:xlink="http://www.w3.org/1999/xlink" version="1.1" viewBox="-10 0 2068 2048">
   <path fill="currentColor"
d="M1711 114v-1q13 0 39 2q18 1 32 14t19 32q4 18 -4 34.5t-24 26.5q-73 40 -116.5 112.5t-43.5 158.5q0 128 92 219.5t223 91.5q25 0 54 -5q17 -3 33 5.5t26 25.5q9 16 6 34.5t-16 31.5q-64 60 -146.5 94t-173.5 34q-16 0 -44 -2q-30 -61 -78.5 -109.5t-110.5 -77.5
q-6 -110 -65.5 -200t-154.5 -138q26 -164 154 -273.5t299 -109.5zM1308 1479h-966q-93 0 -171.5 -45.5t-124 -124t-45.5 -171.5q0 -126 80.5 -221.5t203.5 -115.5v-4q0 -93 45.5 -172t124.5 -124.5t172 -45.5q90 0 167.5 44.5t123.5 120.5q71 -51 163 -51q117 0 201 83.5
t84 201.5q0 26 -7 61q100 17 167 96.5t67 183.5q0 118 -84 201t-201 83zM303.5 1607.5q29.5 19.5 36.5 54.5t-12 64l-113 171q-20 29 -55 36t-64.5 -12.5t-36.5 -54.5t13 -64l114 -171q19 -29 53.5 -36t64 12.5zM645.5 1607.5q29.5 19.5 36.5 54.5t-12 64l-115 171
q-20 29 -54.5 36t-64 -12.5t-36 -54.5t13.5 -64l113 -171q19 -29 54 -36t64.5 12.5zM986.5 1607.5q29.5 19.5 36.5 54.5t-12 64l-114 171q-20 29 -54.5 36t-64 -12.5t-36.5 -54.5t13 -64l113 -171q19 -29 54 -36t64.5 12.5zM1327.5 1607.5q29.5 19.5 36 54.5t-12.5 64
l-113 171q-20 29 -55 36t-64.5 -12.5t-36 -54.5t13.5 -64l114 -171q19 -29 53.5 -36t64 12.5z" />
</svg>