<svg xmlns="http://www.w3.org/2000/svg" xmlns:xlink="http://www.w3.org/1999/xlink" version="1.1" viewBox="-10 0 2068 2048">
   <path fill="currentColor"
d="M461.5 205q105.5 0 180 75t74.5 181t-74.5 180.5t-180 74.5t-181.5 -74.5t-76 -180.5t76 -181t181.5 -75zM1637.5 205q105.5 0 181 75t75.5 181t-75.5 180.5t-181 74.5t-180.5 -74.5t-75 -180.5t75 -181t180.5 -75zM0 1161q0 -92 46 -171t124.5 -125t171.5 -46h136
q76 0 142 31q-6 34 -6 72q0 90 37 170t103 137h-2h-684q-27 0 -47.5 -20t-20.5 -48zM1296 1229h-2q66 -57 103 -137t37 -170q0 -26 -6 -72q66 -31 142 -31h136q93 0 171.5 46t124.5 125t46 171q0 28 -20.5 48t-47.5 20h-684zM716 921.5q0 -127.5 90.5 -217.5t218 -90
t217.5 90t90 218t-90 217.5t-217.5 89.5t-218 -90t-90.5 -217.5zM410 1757q0 -116 57 -214t155 -155t214 -57h376q116 0 214 57t155 155t57 214q0 36 -25 61t-61 25h-1056q-36 0 -61 -25t-25 -61z" />
</svg>