<svg xmlns="http://www.w3.org/2000/svg" xmlns:xlink="http://www.w3.org/1999/xlink" version="1.1" viewBox="-10 0 2067 2048">
   <path fill="currentColor"
d="M407 838h12l9 6q115 52 256 212q139 155 211 326q93 235 105 454l4 26q9 76 240 76q223 0 656 -84q105 -320 147 -612h-4q-147 -79 -185 -168q-8 -14 -8 -24q-4 -52 -207 -52h-58q-92 76 -202 76q-123 0 -232 -96q-107 -91 -334 -296q-352 -321 -425 -386
q-187 -169 -204 -186h-13q-38 0 -71 84q-10 26 -30 68q-42 98 -61 154q-19 55 -10 164q9 107 76 200q177 238 122 1112h96q-25 -936 80 -1036q13 -18 30 -18z" />
</svg>