<svg xmlns="http://www.w3.org/2000/svg" xmlns:xlink="http://www.w3.org/1999/xlink" version="1.1" viewBox="-10 0 2058 2048">
   <path fill="currentColor"
d="M1024.5 256q-79.5 0 -136 56t-56.5 136v659q0 89 -60 169q-68 86 -68 196q0 87 43 161t116.5 117t161 43t161 -43t116 -117t42.5 -161q0 -108 -68 -195q-60 -79 -60 -170v-659q0 -80 -56 -136t-135.5 -56zM576 448q0 -91 35.5 -174t95.5 -143t143 -95.5t174.5 -35.5
t174.5 35.5t142.5 95.5t95 143t35.5 174v659v2q3 5 8 11q120 155 120 352q0 118 -45.5 224.5t-122.5 183.5t-183.5 122.5t-224 45.5t-224 -45.5t-183.5 -122.5t-123 -184t-46 -224q0 -197 120 -352q5 -6 8 -11v-2v-659zM1216 1472q0 80 -56 136.5t-135.5 56.5t-136 -56.5
t-56.5 -136.5q0 -62 36 -111.5t92 -69.5v-715q0 -26 19 -45t45.5 -19t45 19t18.5 45v715q57 20 92.5 69.5t35.5 111.5z" />
</svg>