<svg xmlns="http://www.w3.org/2000/svg" xmlns:xlink="http://www.w3.org/1999/xlink" version="1.1" viewBox="-10 0 2068 2048">
   <path fill="currentColor"
d="M1138 228v1593v113h-114h-682h-228q-47 0 -80.5 -33t-33.5 -80t33.5 -80.5t80.5 -33.5h114v-1264q0 -58 36 -105t92 -61l640 -160q51 -13 98 22q44 34 44 89zM910 1024.5q0 -47.5 -24.5 -80.5t-60 -33t-60.5 33t-25 80t25 80.5t60.5 33.5t60 -33t24.5 -80.5zM1252 569
v-227h340q94 0 161 66.5t67 160.5v1138h114q47 0 80.5 33.5t33.5 80.5t-33.5 80t-80.5 33h-228q-48 0 -81 -33t-33 -80v-1252h-340z" />
</svg>