<svg xmlns="http://www.w3.org/2000/svg" xmlns:xlink="http://www.w3.org/1999/xlink" version="1.1" viewBox="-10 0 2068 2048">
   <path fill="currentColor"
d="M0 976q0 -95 37 -181t99 -148t148 -98.5t180 -36.5q93 0 178.5 35.5t151.5 100.5l230 231l230 -231q66 -65 151.5 -100.5t178.5 -35.5q94 0 180 36.5t148 98.5t99 148t37 181v95q0 95 -37 181t-99 148t-148 99t-180 37q-93 0 -178.5 -35.5t-151.5 -100.5l-230 -231
l-230 231q-66 65 -151.5 100.5t-178.5 35.5q-94 0 -180 -36.5t-148 -98.5t-99 -148t-37 -181v-96zM878 1024l-230 -231q-36 -37 -84 -57t-100 -20q-107 0 -183.5 76.5t-76.5 183.5v95q0 107 76.5 183.5t183.5 76.5q108 0 184 -76zM1168 1024l232 231q76 76 184 76
q107 0 182.5 -76t75.5 -183v-96q0 -107 -75.5 -183.5t-182.5 -76.5q-52 0 -100 20t-84 57l-230 231h-2z" />
</svg>