<svg xmlns="http://www.w3.org/2000/svg" xmlns:xlink="http://www.w3.org/1999/xlink" version="1.1" viewBox="-10 0 2068 2048">
   <path fill="currentColor"
d="M0 1022q0 -138 37 -269.5t102.5 -243.5t160 -206t206 -160t244 -102.5t272.5 -36.5t273 36.5t245.5 102.5t207 160t160.5 206t103 243.5t37 269.5q0 140 -37 272.5t-103 244.5t-160.5 206.5t-207 160t-245.5 102t-273 36.5t-272.5 -36.5t-244 -102t-206 -160t-160 -206.5
t-102.5 -244.5t-37 -272.5zM770 596h-174v856h174v-856zM938 596v174h512v-174h-512zM1450 938h-512v172h512v-172zM938 1278v174h512v-174h-512z" />
</svg>