<svg xmlns="http://www.w3.org/2000/svg" xmlns:xlink="http://www.w3.org/1999/xlink" version="1.1" viewBox="-10 0 2058 2048">
   <path fill="currentColor"
d="M1024 0q124 0 223.5 71t138.5 185h150q106 0 181 75t75 181v1281q0 106 -75 180.5t-181 74.5h-1024q-106 0 -181 -74.5t-75 -180.5v-1281q0 -106 75 -181t181 -75h150q39 -114 138.5 -185t223.5 -71zM1024 256q-52 0 -90 38t-38 90t38 90t90 38t90 -38t38 -90t-38 -90
t-90 -38zM544 1088q0 40 27.5 68.5t67.5 28.5t68.5 -28.5t28.5 -68.5t-28.5 -68t-68.5 -28t-67.5 28t-27.5 68zM960 1024q-26 0 -45 19t-19 45t19 45t45 19h511q26 0 45.5 -19t19.5 -45t-19.5 -45t-45.5 -19h-511zM544 1472q0 40 27.5 68t67.5 28t68.5 -28t28.5 -68
t-28.5 -67.5t-68.5 -27.5t-67.5 27.5t-27.5 67.5zM896 1472q0 26 19 45t45 19h511q26 0 45.5 -19t19.5 -45t-19.5 -45t-45.5 -19h-511q-26 0 -45 19t-19 45z" />
</svg>