<svg xmlns="http://www.w3.org/2000/svg" xmlns:xlink="http://www.w3.org/1999/xlink" version="1.1" viewBox="-10 0 2068 2048">
   <path fill="currentColor"
d="M1152 128v971l294 -294q37 -37 90 -37t90.5 37t37.5 90t-38 91l-512 513q-37 37 -90 37t-90 -37l-512 -513q-38 -38 -38 -91t37.5 -90t90.5 -37t90 37l294 294v-971q0 -52 38 -90t90.5 -38t90 37.5t37.5 90.5zM256 1408h406l182 182q74 75 180 75t180 -75l182 -182h406
q105 0 180.5 75.5t75.5 181.5v128q0 106 -75.5 180.5t-180.5 74.5h-1536q-105 0 -180.5 -74.5t-75.5 -180.5v-128q0 -106 75.5 -181.5t180.5 -75.5zM1727.5 1632q-39.5 0 -67.5 28.5t-28 68.5t28 67.5t67.5 27.5t68 -27.5t28.5 -67.5t-28.5 -68.5t-68 -28.5z" />
</svg>