<svg xmlns="http://www.w3.org/2000/svg" xmlns:xlink="http://www.w3.org/1999/xlink" version="1.1" viewBox="-11 0 2069 2048">
   <path fill="currentColor"
d="M495 1564q39 -28 86 -34.5t92 10.5q170 60 351 60q145 0 277 -35.5t231.5 -97.5t173.5 -143t112 -174.5t38 -189t-38 -189t-112 -174.5t-173.5 -143.5t-231.5 -98t-277 -35.5t-277 35.5t-231.5 98t-173 143.5t-111.5 174.5t-38 188.5q0 195 143 356q53 60 47 142
q-7 101 -45 198q79 -36 157 -90v-2zM85 1728q12 -17 21 -34q76 -124 86 -250q-191 -219 -191 -484q0 -113 36.5 -220.5t102.5 -199t160.5 -168t207 -130.5t245 -84t271.5 -30t271.5 30t245 84t207 130.5t160.5 168t103 199t37 221t-37 221t-103 199t-160.5 168t-207 130.5
t-245 83.5t-271.5 29.5q-217 0 -416 -72q-97 71 -217 124q-102 43 -201 62q-2 1 -4.5 2t-3.5 2q-34 5 -53 6h-3q-32 4 -61 4q-20 0 -36.5 -11t-23.5 -29q-8 -18 -4 -37t18 -33q31 -32 45 -52q3 -5 9.5 -14.5t9.5 -13.5q0 -1 0.5 -1.5l0.5 -0.5h1z" />
</svg>