<svg xmlns="http://www.w3.org/2000/svg" xmlns:xlink="http://www.w3.org/1999/xlink" version="1.1" viewBox="-10 0 2058 2048">
   <path fill="currentColor"
d="M512 0h640v512q0 52 38 90t90 38h512v1153q0 106 -75 180.5t-181 74.5h-1024q-106 0 -181 -74.5t-75 -180.5v-1537q0 -106 75 -181t181 -75zM1280 0l512 512h-512v-512zM576 256q-26 0 -45 19t-19 45t19 45t45 19h256q26 0 45 -19t19 -45t-19 -45t-45 -19h-256zM576 512
q-26 0 -45 19t-19 45t19 45t45 19h256q26 0 45 -19t19 -45t-19 -45t-45 -19h-256zM639 896q-52 0 -89.5 37.5t-37.5 90.5v256q0 53 37.5 90.5t89.5 37.5h768q53 0 91 -38t38 -90v-256q0 -52 -38 -90t-91 -38h-768zM639 1024h768v256h-768v-256zM1216 1665q-26 0 -45 19
t-19 45t19 45t45 19h255q26 0 45.5 -19t19.5 -45t-19.5 -45t-45.5 -19h-255z" />
</svg>