<svg xmlns="http://www.w3.org/2000/svg" xmlns:xlink="http://www.w3.org/1999/xlink" version="1.1" viewBox="-10 0 2068 2048">
   <path fill="currentColor"
d="M1248 808q0 89 63.5 152.5t152.5 63.5h136q92 0 175 35.5t142.5 95.5t95 143t35.5 174q0 62 -36 112t-92 70v203q0 79 -56.5 135t-135.5 56h-1408q-79 0 -135.5 -56t-56.5 -135v-203q-56 -20 -92 -70t-36 -112q0 -91 35.5 -174t95.5 -143t143 -95.5t174 -35.5h136
q89 0 152.5 -63.5t63.5 -152.5q0 -88 -80 -189q-80 -102 -80 -235q0 -104 51.5 -192.5t140 -140t193 -51.5t193 51.5t139.5 140t51 192.5q0 132 -80 235q-80 101 -80 189zM1664 1665h-1280v128h1280v-128z" />
</svg>