<svg xmlns="http://www.w3.org/2000/svg" xmlns:xlink="http://www.w3.org/1999/xlink" version="1.1" viewBox="-10 0 2068 2048">
   <path fill="currentColor"
d="M1792 320h-1536q-26 0 -45 19t-19 45v1281v1l18 -25l320 -449q28 -40 78 -40t78 40l122 171l332 -430q27 -37 76 -37t76 37l544 705l20 26v-1280q0 -26 -19 -45t-45 -19zM256 128h1536q105 0 180.5 75t75.5 181v1281q0 106 -75.5 180.5t-180.5 74.5h-1536
q-105 0 -180.5 -74.5t-75.5 -180.5v-1281q0 -106 75.5 -181t180.5 -75zM576.5 896q-79.5 0 -136 -56.5t-56.5 -135.5t56.5 -135.5t136 -56.5t135.5 56t56 136t-56 136t-135.5 56z" />
</svg>