<svg xmlns="http://www.w3.org/2000/svg" xmlns:xlink="http://www.w3.org/1999/xlink" version="1.1" viewBox="-10 0 2068 2048">
   <path fill="currentColor"
d="M570 398q-24 0 -41 16.5t-17 39.5v798q0 23 17 39.5t41 16.5h54l246 -336q24 -34 68 -34q45 0 70 34l44 62l186 -284q24 -40 70.5 -40t71.5 40l364 558h76q23 0 40.5 -16.5t17.5 -39.5v-798q0 -23 -17.5 -39.5t-40.5 -16.5h-1250zM342 454q0 -93 67 -159.5t161 -66.5
h1250q93 0 160.5 66.5t67.5 159.5v798q0 93 -67.5 159.5t-160.5 66.5h-1250q-94 0 -161 -66.5t-67 -159.5v-798zM170 540v796q0 130 92 222t222 92h1138q35 0 59.5 24.5t24.5 60t-24.5 60.5t-59.5 25h-1138q-99 0 -188.5 -38t-154 -103t-103 -154.5t-38.5 -188.5v-796
q0 -35 25.5 -60.5t61 -25.5t59.5 25.5t24 60.5zM910 625.5q0 47.5 -33 80t-80.5 32.5t-81 -32.5t-33.5 -80t33.5 -80.5t81 -33t80.5 33t33 80.5z" />
</svg>