<svg xmlns="http://www.w3.org/2000/svg" xmlns:xlink="http://www.w3.org/1999/xlink" version="1.1" viewBox="-10 0 2068 2048">
   <path fill="currentColor"
d="M546 680h392v696h-158l-135 84l-25 -84h-74v-696zM858 1300v-546h-233v546h39l15 56l89 -56h90zM479 998q11 0 17 19t7 37v20h-196q-4 64 -25 130l46 -38q36 36 117 134q13 19 14.5 51t-3.5 55l-6 22l-173 -208q-11 44 -27 82.5t-30.5 63t-27.5 42.5t-21 26l-8 8
q-26 23 -68.5 33.5t-94.5 -1.5q206 -161 227 -400h-211q1 -4 2 -9t5.5 -18t10 -23t14.5 -18t19 -8h167q2 -15 3.5 -109.5t1.5 -126.5h-92q-4 13 -8 25t-8 21q-5 10 -11.5 19t-12.5 15t-13.5 11.5t-13.5 9t-14 6.5t-13 4.5t-13 3t-10.5 1.5t-9 0.5t-7.5 1.5q25 -50 46 -103
t36.5 -99.5t15.5 -47.5q8 -19 21 -33t27 -21t26.5 -10.5t20.5 -4.5l8 -1q-30 85 -42 130h283q16 0 22.5 18t5.5 36l-1 18h-163q0 114 -7 236h167zM1797 992l-61 -46q99 -128 118 -154q8 -9 20 -11.5t23.5 1.5t21.5 9t16 10l6 5q-77 105 -144 186zM1317 804q13 11 41 47.5
t49 67.5l21 31l-62 44l-132 -184q3 -1 6.5 -3t14.5 -6.5t21 -6t21.5 0t19.5 9.5zM2047 1032q0 1 0.5 8.5t-1 18.5t-4 22t-8.5 19t-15 8h-391v234q3 68 -35.5 107t-108.5 39q-42 0 -83 -22q-40 -23 -62 -70q13 1 60.5 3.5t73.5 2.5q33 3 55.5 -16t22.5 -52v-226h-345
q-20 -1 -36 -9t-24 -18.5t-13.5 -21t-6.5 -17.5l-2 -8h427v-318q-69 0 -181 6q-21 1 -52.5 3t-43.5 2t-28.5 -1.5t-32.5 -5.5q-19 -5 -33 -22.5t-18 -39.5q96 -3 282 -17.5t324 -27.5l138 -13q3 -1 7.5 -2t15.5 -4t20.5 -5t18.5 -3t11 0q19 8 19.5 35t-7.5 49l-9 22
q-154 9 -281 16q-34 4 -73 4v322h21h52.5h72.5t82.5 -0.5t80.5 -0.5t68 -0.5t42 -0.5z" />
</svg>