<svg xmlns="http://www.w3.org/2000/svg" xmlns:xlink="http://www.w3.org/1999/xlink" version="1.1" viewBox="-10 0 2068 2048">
   <path fill="currentColor"
d="M974 11q50 -22 101 0l895 384q41 18 62.5 58t12.5 85t-44.5 73.5t-81.5 28.5v33q0 40 -27.5 68t-67.5 28h-1599q-40 0 -68 -28.5t-28 -67.5v-33q-46 0 -81 -28.5t-44 -73.5t12 -85t63 -58zM513 897v768h159v-768h257v768h191v-768h256v768h160v-768h256v784q1 0 3 2l3 3
l193 128q36 23 49.5 62.5t1.5 80.5q-12 40 -46.5 65.5t-76.5 25.5h-1790q-42 0 -76.5 -25.5t-46.5 -65.5q-12 -41 2 -80.5t49 -62.5l193 -128q1 -1 3.5 -3t3.5 -2v-784h256zM1024 257q-53 0 -90.5 37t-37.5 89.5t37.5 90.5t90 38t90.5 -38t38 -90.5t-37.5 -89.5t-90.5 -37z
" />
</svg>