<svg xmlns="http://www.w3.org/2000/svg" xmlns:xlink="http://www.w3.org/1999/xlink" version="1.1" viewBox="-10 0 2068 2048">
   <path fill="currentColor"
d="M0 398q0 -70 50 -120t120 -50h342q71 0 120.5 50t49.5 120v56h684v-56q0 -70 49.5 -120t120.5 -50h342q70 0 120 50t50 120v340q0 71 -50 121.5t-120 50.5h-342q-71 0 -120.5 -50.5t-49.5 -121.5v-56h-684v56v20l284 380h342q71 0 120.5 49.5t49.5 120.5v342
q0 70 -49.5 120t-120.5 50h-342q-70 0 -120 -50t-50 -120v-342q0 -12 2 -18l-286 -380h-342q-70 0 -120 -50.5t-50 -121.5v-340z" />
</svg>