<svg xmlns="http://www.w3.org/2000/svg" xmlns:xlink="http://www.w3.org/1999/xlink" version="1.1" viewBox="-10 0 2058 2048">
   <path fill="currentColor"
d="M512 1857h1024q26 0 45 -19t19 -45v-1153h-320q-52 0 -90 -38t-38 -90v-320h-640q-26 0 -45 19t-19 45v1537q0 26 19 45t45 19zM512 0h661q106 0 181 75l363 362q75 75 75 181v1175q0 106 -75 180.5t-181 74.5h-1024q-106 0 -181 -74.5t-75 -180.5v-1537q0 -106 75 -181
t181 -75zM800 833h272q126 0 215 88.5t89 214.5t-89 215t-215 89h-176v128q0 40 -28 68.5t-68 28.5t-68 -28.5t-28 -68.5v-224v-416q0 -40 28 -67.5t68 -27.5zM1072 1249q46 0 79 -33t33 -80q0 -46 -33 -79t-79 -33h-176v225h176z" />
</svg>