<svg xmlns="http://www.w3.org/2000/svg" xmlns:xlink="http://www.w3.org/1999/xlink" version="1.1" viewBox="-10 0 2068 2048">
   <path fill="currentColor"
d="M1024 0h986q16 0 27 11t11 27v1969q0 27 -24 37.5t-43 -7.5l-615 -546q-159 116 -353 111q-117 -2 -223.5 -51.5t-183 -130t-120.5 -189t-40 -224.5q3 -119 53.5 -226.5t133 -184t195 -117.5t234.5 -34q142 9 263 82t195 193t84 262q4 76 -9 147q-3 14 -16.5 19t-23.5 -4
l-122 -110q-22 -20 -23 -45q-9 -97 -62 -178t-138.5 -128t-183.5 -47q-83 0 -157 34t-126.5 90t-81 133t-21.5 160q10 143 112 244.5t245 110.5q99 8 188 -34t148 -119q9 -12 24 -13.5t27 8.5l471 419v-1476h-831q-168 0 -320 64.5t-263 174t-177.5 261t-69.5 317.5
q-2 113 26 221t81 200t129 170t166.5 133t198 87t220.5 33q174 2 334 -66q18 -7 37 -4t34 16l96 85q9 9 7.5 21t-11.5 18q-229 125 -493 123q-140 0 -273 -38.5t-245 -106t-206.5 -164t-159.5 -210t-100.5 -247t-33.5 -273.5q2 -137 39.5 -268t104 -241.5t160.5 -203.5
t206 -157.5t243.5 -101t269.5 -36.5z" />
</svg>