<svg xmlns="http://www.w3.org/2000/svg" xmlns:xlink="http://www.w3.org/1999/xlink" version="1.1" viewBox="-10 0 2068 2048">
   <path fill="currentColor"
d="M1592 961h2v7q-3 156 -116 268v585q0 47 -32.5 80t-79.5 33h-114q-48 0 -81 -33t-33 -80v-474q-39 -9 -44 -10l-298 -85v25q0 103 -72 176l-46 45q-27 28 -14 65l72 222q19 55 -15.5 102t-92.5 47h-118q-37 0 -67.5 -21.5t-42.5 -55.5l-60 -187q-29 -85 -19.5 -172
t53.5 -162q22 -36 24 -74t-20 -73l-100 -151q-38 -58 -48 -129q-27 20 -43.5 50t-16.5 65v200q0 35 -24 59.5t-59.5 24.5t-61 -24.5t-25.5 -59.5v-200q0 -119 78 -207t194 -103q40 -66 108 -105.5t148 -39.5h194h74h342q0 -92 36 -176.5t97 -145.5t145 -97t176 -36h114h284
q24 0 41 17t17 40t-17 40t-41 17h-20q36 31 57 76t21 95v268q0 59 -33 107.5t-87 70.5q-69 28 -140.5 1.5t-103.5 -93.5l-34 -70h-58v278zM1762 342q-24 0 -40 16.5t-16 40.5t16 40t40.5 16t41 -16t16.5 -40t-17 -40.5t-41 -16.5z" />
</svg>