<svg xmlns="http://www.w3.org/2000/svg" xmlns:xlink="http://www.w3.org/1999/xlink" version="1.1" viewBox="-10 0 2058 2048">
   <path fill="currentColor"
d="M783 301h-1v964v76q0 30 -17.5 54t-45.5 32q-29 8 -57.5 -1.5t-44.5 -34.5l-145 -220q-13 -21 -38 -25.5t-46 9.5q-21 13 -25.5 38t9.5 46l253 381q58 88 152 138t200 50h3h224h211q112 0 192 -80t80 -192v-390v-60q0 -25 -18 -42.5t-43 -17.5q-22 0 -37 12
q-18 14 -42 17.5t-46 -4.5q-46 -17 -56 -67q-4 -21 -20.5 -35t-38.5 -14q-30 0 -49 24q-17 23 -45 31.5t-56 -0.5t-44.5 -33t-16.5 -53q0 -25 -17.5 -42.5t-42.5 -17.5q-30 0 -49 24q-17 23 -45 31.5t-56 -0.5t-44.5 -33t-16.5 -53v-512q0 -25 -17.5 -42.5t-42.5 -17.5
t-43 17.5t-18 42.5zM844 61q100 0 170 70t70 170v364q30 -3 31 -3q60 0 111 27t85 75q36 -11 75 -11q57 0 107 25.5t84 69.5q21 -4 49 -4q100 0 170.5 70.5t70.5 170.5v60v391q0 92 -36 176t-96.5 144.5t-144 96t-175.5 35.5h-211h-224h-3q-151 0 -284 -71t-217 -197
l-254 -381q-56 -83 -36.5 -181.5t102.5 -153.5q77 -50 166.5 -38t148.5 80v-745q0 -100 70.5 -170t170.5 -70zM1024 1205v362q0 25 -17.5 42.5t-42.5 17.5t-42.5 -17.5t-17.5 -42.5v-362q0 -25 17.5 -42.5t42.5 -17.5t42.5 17.5t17.5 42.5zM1204 1145q25 0 43 17.5t18 42.5
v362q0 25 -18 42.5t-43 17.5t-42.5 -17.5t-17.5 -42.5v-362q0 -25 17.5 -42.5t42.5 -17.5zM1506 1205v362q0 25 -17.5 42.5t-42.5 17.5t-42.5 -17.5t-17.5 -42.5v-362q0 -25 17.5 -42.5t42.5 -17.5t42.5 17.5t17.5 42.5z" />
</svg>