<svg xmlns="http://www.w3.org/2000/svg" xmlns:xlink="http://www.w3.org/1999/xlink" version="1.1" viewBox="-10 0 2068 2048">
   <path fill="currentColor"
d="M1536 1536v-1024h308q84 0 144 59.5t60 144.5v615q0 85 -60 145t-144 60h-308zM1434 512v1024h-820v-1024h820zM204 512h308v1024h-308q-84 0 -144 -60t-60 -145v-615q0 -85 60 -144.5t144 -59.5zM794 870.5q0 31.5 22.5 54t54 22.5t54.5 -22.5t23 -54t-23 -54.5
t-54.5 -23t-54 23t-22.5 54.5zM1177.5 793q-31.5 0 -54.5 23t-23 54.5t23 54t54.5 22.5t54 -22.5t22.5 -54t-22.5 -54.5t-54 -23zM794 1177q0 32 22.5 55t54 23t54.5 -23t23 -54.5t-23 -54.5t-54.5 -23t-54 22.5t-22.5 54.5zM1177.5 1100q-31.5 0 -54.5 23t-23 54.5t23 54.5
t54.5 23t54 -23t22.5 -55t-22.5 -54.5t-54 -22.5z" />
</svg>