<svg xmlns="http://www.w3.org/2000/svg" xmlns:xlink="http://www.w3.org/1999/xlink" version="1.1" viewBox="-10 0 2068 2048">
   <path fill="currentColor"
d="M0 514q0 -63 55.5 -99t118.5 -19q59 16 123 23.5t117.5 9.5t124.5 -5.5t118 -14t125 -23.5t118 -27l124 -31q87 -22 133.5 -33.5t129.5 -29t136 -24t129.5 -12t136 0t129 19t134.5 37.5q44 16 70 57t26 90v1101q0 63 -55.5 99.5t-118.5 19.5q-59 -16 -122.5 -24
t-118 -9.5t-125 5.5t-118.5 14t-124.5 23.5t-118.5 26.5t-123 31q-89 23 -134.5 34t-129 28.5t-136 24t-129 12t-136 0t-129 -19t-134.5 -37.5q-44 -16 -70 -56.5t-26 -89.5v-1102zM1023.5 1365q77.5 0 143 -45.5t103.5 -124t38 -171.5t-38 -171.5t-103.5 -124t-143 -45.5
t-143 45.5t-103 124t-37.5 171.5t37.5 171.5t103 124t143 45.5zM228 1365v228h228q0 -94 -67.5 -161t-160.5 -67zM456 626h-228v228q93 0 160.5 -67t67.5 -161zM1820 1195q-94 0 -161 66.5t-67 160.5h228v-227zM1592 455q0 94 67 161t161 67v-228h-228z" />
</svg>