<svg xmlns="http://www.w3.org/2000/svg" xmlns:xlink="http://www.w3.org/1999/xlink" version="1.1" viewBox="-10 0 2058 2048">
   <path fill="currentColor"
d="M371 38l327 328l213 -214q85 -84 205 -84t204 84l609 608q85 85 85 205.5t-85 204.5l-766 766q-55 55 -127 83.5t-145 28.5t-145 -28.5t-128 -83.5l-472 -474q-55 -55 -83.5 -127t-28.5 -145t28.5 -145t83.5 -127l370 -370l-326 -328q-37 -37 -37 -91t37.5 -91.5
t90.5 -37.5t90 38zM698 730l-370 370q-26 26 -34 58h1283l170 -170q9 -10 9 -23t-9 -23l-609 -608q-9 -10 -22 -10t-22 10l-213 214l198 198q38 37 38 90.5t-37.5 91t-91 37.5t-91.5 -37z" />
</svg>