<svg xmlns="http://www.w3.org/2000/svg" xmlns:xlink="http://www.w3.org/1999/xlink" version="1.1" viewBox="-10 0 2067 2048">
   <path fill="currentColor"
d="M1296 134q-129 0 -245.5 41t-207.5 112t-162.5 168.5t-115.5 208.5t-61 234.5t-4.5 244t60 239.5t127.5 218q117 146 274 230t335 84q219 0 411 -126q-139 123 -314 191.5t-368 68.5q-33 0 -49 -2q-134 -6 -261 -46.5t-234 -107.5t-196.5 -161t-152 -204t-97 -239
t-34.5 -264q0 -140 36.5 -272.5t102.5 -245t160.5 -206.5t207 -160t245 -103t272.5 -37h3q191 1 366 69.5t313 190.5q-187 -126 -411 -126zM1717 1778q-126 77 -272.5 71t-272.5 -97q115 -42 206.5 -147t144 -257t52.5 -324q0 -173 -52 -324.5t-143 -257t-206 -148.5
q127 -89 273 -93.5t274 73.5q107 101 181 225t109.5 255.5t35.5 271.5t-36.5 271.5t-111 256t-182.5 224.5z" />
</svg>