<svg xmlns="http://www.w3.org/2000/svg" xmlns:xlink="http://www.w3.org/1999/xlink" version="1.1" viewBox="-10 0 2068 2048">
   <path fill="currentColor"
d="M2048 292v1464q0 121 -86 206.5t-206 85.5h-1464q-120 0 -206 -85.5t-86 -206.5v-1464q0 -121 86 -206.5t206 -85.5h1464q120 0 206 85.5t86 206.5zM1174 1756q94 0 170 -28t108 -63q11 -12 2 -42l-64 -184q-8 -21 -20 -23q-10 -2 -36 8q-64 25 -107 17.5t-65 -39
t-22 -81.5v-381h236q12 0 21 -8.5t9 -20.5v-233q0 -12 -8.5 -20t-21.5 -8h-236v-329q0 -12 -8.5 -20.5t-19.5 -8.5h-204q-41 0 -44 47q-4 49 -17.5 94.5t-39.5 93t-73 86t-110 61.5q-16 5 -25 17.5t-9 27.5v195q0 12 8 20t20 8h136v411q0 34 5 69t18 75.5t33.5 76.5t53.5 70
t75.5 58.5t102.5 39t132 14.5z" />
</svg>