<svg xmlns="http://www.w3.org/2000/svg" xmlns:xlink="http://www.w3.org/1999/xlink" version="1.1" viewBox="-10 0 2068 2048">
   <path fill="currentColor"
d="M1974 4q12 -4 20 -4q23 0 38.5 15t15.5 38q0 9 -4 20l-298 778l118 -10q38 -3 58 30.5t0 66.5l-408 705q-108 188 -296.5 296.5t-405.5 108.5q-165 0 -315 -64t-259 -172.5t-173.5 -259t-64.5 -315.5q0 -217 109 -406t297 -298l704 -408q33 -19 67 2t31 59l-10 117z
M768.5 769q-104.5 0 -199 40.5t-163 108.5t-109.5 163t-41 199t41 199t109.5 164t163 109.5t199 40.5t199 -40.5t163 -109.5t109 -164t40.5 -199t-40.5 -199t-109 -163t-163 -108.5t-199 -40.5zM768 1152q0 52 -37.5 90t-90 38t-90.5 -38t-38 -90t38 -90t90.5 -38t90 38
t37.5 90zM833 1536q-27 0 -46 -18.5t-19 -45.5t19 -45.5t46 -18.5t45 18.5t18 45.5t-18 45.5t-45 18.5z" />
</svg>