<svg xmlns="http://www.w3.org/2000/svg" xmlns:xlink="http://www.w3.org/1999/xlink" version="1.1" viewBox="-10 0 2068 2048">
   <path fill="currentColor"
d="M292 0h1464q120 0 206 85.5t86 206.5v1464q0 121 -86 206.5t-206 85.5h-1464q-120 0 -206 -85.5t-86 -206.5v-1464q0 -121 86 -206.5t206 -85.5zM1756 584q0 -121 -86 -206.5t-206.5 -85.5t-207 85.5t-86.5 206.5q0 12 2 34l-374 204q-86 -90 -212 -90
q-121 0 -207.5 85.5t-86.5 206.5t86.5 206.5t207.5 85.5q61 0 116 -24t96 -67l374 204q-2 22 -2 33q0 121 86.5 207.5t207 86.5t206.5 -86.5t86 -207.5t-86 -206.5t-206 -85.5q-105 0 -186 67l-390 -213l390 -213q81 67 186 67q120 0 206 -86.5t86 -207.5z" />
</svg>