<svg xmlns="http://www.w3.org/2000/svg" xmlns:xlink="http://www.w3.org/1999/xlink" version="1.1" viewBox="-10 0 2068 2048">
   <path fill="currentColor"
d="M74 1781q-33 -17 -53.5 -48t-20.5 -68v-1281q0 -37 20.5 -68t53.5 -48q35 -16 71.5 -11.5t64.5 28.5l686 572v-473q0 -37 20 -68t54 -48q34 -16 71 -11.5t65 28.5l686 572v-473q0 -52 37.5 -90t90 -38t90.5 38t38 90v1281q0 53 -38 90.5t-90.5 37.5t-90 -37.5
t-37.5 -90.5v-474l-686 571q-28 25 -65.5 30t-70.5 -11q-34 -17 -54 -48t-20 -68v-474l-686 571q-28 25 -65 30t-71 -11z" />
</svg>