<svg xmlns="http://www.w3.org/2000/svg" xmlns:xlink="http://www.w3.org/1999/xlink" version="1.1" viewBox="-10 0 2068 2048">
   <path fill="currentColor"
d="M227 568q0 48 -32.5 81t-80 33t-81 -33t-33.5 -81v-170q0 -71 50 -120.5t120 -49.5h399h397q71 0 121.5 49.5t50.5 120.5v170q0 48 -33.5 81t-81 33t-80.5 -33t-33 -81v-114h-228v1138h114q48 0 81 33.5t33 81t-33 80.5t-81 33h-455q-47 0 -80.5 -33t-33.5 -80.5
t33.5 -81t80.5 -33.5h114v-1138h-228v114zM1786 260l227 228q25 24 32 58t-6 66q-12 31 -41 50.5t-64 19.5h-115v682h114q35 0 64.5 20t42 51.5t5.5 65.5t-32 59l-227 228q-33 32 -80.5 32t-80.5 -32l-227 -228q-24 -25 -31 -59t6 -65q13 -32 42 -52t63 -20h114v-682h-114
q-34 0 -63 -19t-42 -50.5t-6 -65.5t31 -59l227 -228q33 -32 80.5 -32t80.5 32z" />
</svg>