<svg xmlns="http://www.w3.org/2000/svg" xmlns:xlink="http://www.w3.org/1999/xlink" version="1.1" viewBox="-10 0 2058 2048">
   <path fill="currentColor"
d="M1406 1488q148 -96 235 -252.5t87 -339.5q0 -143 -55.5 -273.5t-149.5 -225t-224.5 -150t-274 -55.5t-274 55.5t-224.5 150t-150 225t-56 273.5q0 183 87 339.5t235 252.5q6 87 30 229v4q-160 -69 -282.5 -191.5t-192 -287t-69.5 -346.5q0 -122 32.5 -238t90 -214.5
t140.5 -181t181 -140.5t214.5 -90t238 -32t238 32t214.5 90t180.5 140.5t140 181t90 214.5t32.5 238q0 182 -69.5 347t-191.5 287t-283 191l2 -4q23 -150 28 -229zM1396 1335q-7 -28 -28 -64q-31 -53 -88 -90q60 -54 94 -128t34 -157q0 -104 -51 -192.5t-139.5 -140
t-193 -51.5t-193 51.5t-140 140t-51.5 192.5q0 83 34 157.5t94 127.5q-57 37 -88 90q-21 36 -28 64q-96 -80 -150 -194.5t-54 -244.5q0 -117 46 -224t123 -184t183.5 -122.5t224 -45.5t224 45.5t183.5 122.5t122.5 184t45.5 224q0 130 -54 244.5t-150 194.5zM1024 1249
q256 0 256 174q0 91 -28 261.5t-54 270.5q-26 93 -174 93t-174 -93q-26 -96 -54 -267.5t-28 -263.5q0 -175 256 -175zM1024.5 672q92.5 0 158 65.5t65.5 158.5t-65.5 158.5t-158 65.5t-158.5 -65.5t-66 -158.5t66 -158.5t158.5 -65.5z" />
</svg>