<svg xmlns="http://www.w3.org/2000/svg" xmlns:xlink="http://www.w3.org/1999/xlink" version="1.1" viewBox="-10 0 2068 2048">
   <path fill="currentColor"
d="M320 384q0 -53 38 -90.5t90 -37.5h256q53 0 90.5 37.5t37.5 90.5h384q0 -53 38 -90.5t90 -37.5h256q53 0 90.5 37.5t37.5 90.5h64q105 0 180.5 75t75.5 181v896q0 105 -75.5 180.5t-180.5 75.5h-1536q-105 0 -180.5 -75.5t-75.5 -180.5v-896q0 -106 75.5 -181t180.5 -75
h64zM1536 768q0 -26 -18.5 -45t-45 -19t-45.5 19t-19 45v128h-128q-26 0 -45 18.5t-19 45t19 45.5t45 19h128v128q0 26 19 45t45.5 19t45 -19t18.5 -45v-128h128q27 0 45.5 -19t18.5 -45.5t-18.5 -45t-45.5 -18.5h-128v-128zM320 959.5q0 26.5 18.5 45.5t45.5 19h384
q27 0 45.5 -19t18.5 -45.5t-18.5 -45t-45.5 -18.5h-384q-27 0 -45.5 18.5t-18.5 45z" />
</svg>