<svg xmlns="http://www.w3.org/2000/svg" xmlns:xlink="http://www.w3.org/1999/xlink" version="1.1" viewBox="-10 0 2058 2048">
   <path fill="currentColor"
d="M1024 1595q-80 35 -140 55q30 61 63 96t48.5 41t28.5 6q9 0 19.5 -4t29.5 -16.5t43 -44t47 -78.5q-56 -19 -139 -55zM1784 1024q102 139 127.5 268t-33.5 244q-59 106 -178.5 149t-281.5 24q-68 160 -168.5 249.5t-225.5 89.5t-225.5 -89.5t-168.5 -249.5
q-162 19 -281.5 -24t-178.5 -149q-59 -115 -33.5 -244t127.5 -268q-102 -139 -127.5 -268t33.5 -244q59 -106 178.5 -149t281.5 -24q68 -160 168.5 -249.5t225.5 -89.5t225.5 89.5t168.5 249.5q162 -19 281.5 24t178.5 149q59 115 33.5 244t-127.5 268zM1521 1294
q-8 72 -27 165q135 5 161 -47q33 -63 -48 -193q-36 33 -86 75zM1494 590q19 91 27 165q61 51 86 74q35 -55 47.5 -100t10 -63t-9.5 -30q-26 -51 -161 -46zM1163 399q-23 -47 -47 -78.5t-43 -44t-29.5 -16.5t-19.5 -4q-13 0 -28.5 6t-48.5 41t-63 96q70 23 140 54
q74 -32 139 -54zM527 755q6 -61 28 -165q-136 -5 -162 46q-33 63 48 193q25 -23 86 -74zM441 1219q-81 131 -48 193q26 52 160 47q-17 -81 -26 -165q-50 -42 -86 -75zM1344 1024q0 -133 -93.5 -226.5t-226.5 -93.5t-226.5 93.5t-93.5 226.5t93.5 226.5t226.5 93.5
t226.5 -93.5t93.5 -226.5zM1024 896q52 0 89.5 37.5t37.5 90.5t-37.5 90.5t-89.5 37.5t-90 -38t-38 -90t38 -90t90 -38z" />
</svg>