<svg xmlns="http://www.w3.org/2000/svg" xmlns:xlink="http://www.w3.org/1999/xlink" version="1.1" viewBox="-10 0 2068 2048">
   <path fill="currentColor"
d="M1274 38l64 64q38 37 38 90t-38 90l-15 16l426 428l16 -16q37 -37 90 -37t91 37l64 64q38 38 38 90.5t-38 89.5l-479 480q-37 38 -90 38t-91 -38l-64 -64q-38 -37 -38 -90t38 -90l15 -16l-426 -428l-17 18q-38 37 -90 37t-90 -37l-64 -64q-38 -38 -38 -91.5t38 -90.5
l479 -480q37 -38 90 -38t91 38zM667 1190v-2l5 8l235 -236l181 182l-235 234l5 6q38 37 38 90t-38 90l-447 448q-37 38 -90 38t-91 -38l-192 -190q-38 -38 -38 -91.5t38 -90.5l448 -448q38 -38 91 -38t90 38z" />
</svg>