<svg xmlns="http://www.w3.org/2000/svg" xmlns:xlink="http://www.w3.org/1999/xlink" version="1.1" viewBox="-10 0 2058 2048">
   <path fill="currentColor"
d="M1537 192q0 -80 56 -136t135.5 -56t135.5 56t56 136t-56 136t-135.5 56t-135.5 -56t-56 -136zM641 512q0 -52 37.5 -90t90.5 -38h637q50 0 92 23t65.5 60.5t32 80.5t-6.5 89t-52 80l-297 277l241 241q56 56 56 136v294q0 53 -38 90.5t-90.5 37.5t-90 -37.5t-37.5 -90.5
v-268l-312 -311q-52 -52 -68.5 -122.5t6.5 -139t80 -115.5l81 -68h-299q-53 0 -90.5 -37.5t-37.5 -90.5v-1zM455 1413l347 -346q26 59 78 109l86 88l-330 330q-38 38 -91 38t-90.5 -38t-37.5 -91t38 -90zM1744 1795q26 7 39.5 29t6.5 48l-1 7q-19 75 -79.5 122t-137.5 47
h-356q-26 0 -44.5 -19t-18.5 -45t18.5 -45t44.5 -19h356q33 0 59 -20t34 -52l2 -8q7 -26 29 -39t48 -6zM669 1914l-24 12q-65 32 -136 20.5t-122 -62.5l-240 -239q-19 -19 -19 -45t19 -45t45.5 -19t45.5 19l239 239q21 22 51.5 26.5t58.5 -9.5l25 -12q23 -12 48.5 -3
t37.5 32t3 48.5t-32 37.5z" />
</svg>