<svg xmlns="http://www.w3.org/2000/svg" xmlns:xlink="http://www.w3.org/1999/xlink" version="1.1" viewBox="-10 0 2058 2048">
   <path fill="currentColor"
d="M1376 256h160q106 0 181 75t75 181v1281q0 106 -75 180.5t-181 74.5h-1024q-106 0 -181 -74.5t-75 -180.5v-1281q0 -106 75 -181t181 -75h160h38q22 -110 110.5 -183t203.5 -73t203 73t110 183h39zM512 448q-26 0 -45 19t-19 45v1281q0 26 19 45t45 19h1024q26 0 45 -19
t19 -45v-1281q0 -26 -19 -45t-45 -19h-65v96q0 40 -27.5 68t-67.5 28h-352h-352q-40 0 -68 -28t-28 -68v-96h-64zM1024 416q40 0 68 -28t28 -68t-28 -68t-68 -28t-68 28t-28 68t28 68t68 28z" />
</svg>