<svg xmlns="http://www.w3.org/2000/svg" xmlns:xlink="http://www.w3.org/1999/xlink" version="1.1" viewBox="-10 0 2058 2048">
   <path fill="currentColor"
d="M888 2048l125 -154q97 -2 146 -26q32 -16 57.5 -38t41 -43.5t26.5 -48.5t16 -45t7.5 -40t3 -27.5t0.5 -12.5q0 -13 -9.5 -26t-64.5 -77q-25 -29 -40 -47h316q-1 207 -41 304q-15 38 -47.5 80t-79.5 83.5t-114 72.5t-140 41q-35 4 -203 4zM1689 1378h-476l69 -125l702 1
q-53 59 -120.5 91.5t-174.5 32.5zM1515 482v674h-293l-131 222h-26q-43 0 -79 -13t-59 -32t-41.5 -46t-27.5 -48.5t-16 -46.5t-8.5 -34.5t-1.5 -16.5q-2 -25 -23 -33.5t-40 4t-17 37.5q4 55 30.5 118.5t74.5 110.5h-364q-24 0 -57 -7t-75.5 -23t-84 -39.5t-81.5 -61
t-70 -82.5t-46.5 -108.5t-13.5 -134.5v-854q0 -23 5.5 -37.5t16.5 -20.5t18.5 -7.5t19.5 -1.5h328h2q4 1 16 -0.5t30.5 2.5t39 8.5t41 18t36.5 31t26.5 47.5t10.5 68q0 25 20 35t40.5 0t20.5 -35q0 -109 -63 -175h336q89 -1 164 17.5t126 48t90.5 71.5t63 85t38 91.5
t19.5 88.5t5 79zM985 706l256 117q10 -36 7.5 -65t-13 -54.5t-29.5 -42.5t-41 -28.5t-47 -12.5t-49 6.5t-46 28t-38 51.5z" />
</svg>