<svg xmlns="http://www.w3.org/2000/svg" xmlns:xlink="http://www.w3.org/1999/xlink" version="1.1" viewBox="-10 0 2068 2048">
   <path fill="currentColor"
d="M1080 222l436 290h378q64 0 109 44.5t45 108.5v1025q0 64 -45 108.5t-109 44.5h-666v-307q0 -85 -59.5 -145t-144 -60t-144.5 60t-60 145v307h-666q-64 0 -109 -44.5t-45 -108.5v-1025q0 -64 45 -108.5t109 -44.5h378l436 -290q26 -17 56 -17t56 17zM308 819
q-21 0 -36.5 15.5t-15.5 36.5v204q0 21 15 36t37 15h102q22 0 37 -15t15 -36v-204q0 -21 -15.5 -36.5t-36.5 -15.5h-102zM1586 871v204q0 21 15 36t37 15h102q22 0 37 -15t15 -36v-204q0 -21 -15.5 -36.5t-36.5 -15.5h-102q-21 0 -36.5 15.5t-15.5 36.5zM308 1229
q-22 0 -37 15t-15 36v205q0 21 15 36t37 15h102q22 0 37 -15t15 -36v-205q0 -21 -15 -36t-37 -15h-102zM1586 1280v205q0 21 15 36t37 15h102q22 0 37 -15t15 -36v-205q0 -21 -15 -36t-37 -15h-102q-22 0 -37 15t-15 36zM742 767q0 116 83 199t199.5 83t199 -83t82.5 -199
t-82.5 -198t-199 -82t-199.5 82t-83 198zM1024.5 614q21.5 0 36.5 15t15 36v51h50q22 0 37 15t15 36t-15.5 36.5t-36.5 15.5h-102q-20 0 -36 -15.5t-16 -36.5v-102q0 -21 15.5 -36t37 -15z" />
</svg>