<svg xmlns="http://www.w3.org/2000/svg" xmlns:xlink="http://www.w3.org/1999/xlink" version="1.1" viewBox="-11 0 2069 2048">
   <path fill="currentColor"
d="M1880 75l93 93q75 75 75 181t-75 181l-226 227l-456 -457l225 -225q75 -75 181 -75t181 75h2zM181 1412l1020 -1020l456 455l-1021 1021q-41 41 -96 57l-417 118q-54 16 -94 -24q-41 -40 -25 -94l119 -416q17 -58 57 -98zM999 411l-584 585l-350 -351q-56 -56 -56 -135
t56 -136l312 -312q56 -56 136 -56t136 56l79 79l-3 3l-257 256q-19 19 -19 46t19 45.5t45.5 18.5t45.5 -19l256 -256l1 -1.5t2 -2.5zM1637 1049l180 181q-1 1 -2.5 2l-1.5 1l-257 256q-19 19 -19 46t19 45.5t46 18.5t46 -19l255 -256l4 -4l79 79q56 57 56 136.5t-56 135.5
l-312 313q-56 57 -136.5 57t-136.5 -57l-349 -351z" />
</svg>