<svg xmlns="http://www.w3.org/2000/svg" xmlns:xlink="http://www.w3.org/1999/xlink" version="1.1" viewBox="-10 0 2066 2048">
   <path fill="currentColor"
d="M2046 1024q0 139 -36.5 272t-102.5 245.5t-160.5 207t-206.5 160t-244.5 102.5t-272 37t-272 -37t-244.5 -102.5t-206 -160t-160 -207t-102.5 -245.5t-36.5 -272t36.5 -272t102.5 -245.5t160 -207t206 -160t244.5 -102.5t272 -37t272 37t244.5 102.5t206.5 160t160.5 207
t102.5 245.5t36.5 272zM1462 877q8 -49 -6 -90t-46.5 -72t-74.5 -53.5t-99 -42.5l48 -184l-114 -28l-44 180q-23 -6 -90 -22l46 -181l-112 -28l-48 185q-8 -2 -22.5 -5.5t-26 -6t-21.5 -5.5l-154 -39l-32 120q6 1 14.5 3t27 6.5t30 7.5t10.5 3q56 13 54 66l-54 210q1 0 5 1
t7 2q-2 -1 -6 -1.5t-6 -0.5l-74 294q-16 36 -50 27l-20.5 -5t-41.5 -10l-20 -5l-56 128l146 36q27 7 80 21l-46 187l112 28l46 -185q15 4 45.5 12t42.5 11l-46 184l114 28l46 -187q77 14 135.5 15.5t111.5 -12.5t90.5 -52.5t58.5 -101.5q18 -51 19 -93.5t-14 -75.5
t-41.5 -57.5t-65.5 -45.5q122 -28 142 -166zM1206 1237q-6 23 -18.5 39.5t-31.5 25t-38 14t-46.5 4.5t-47 -2t-49.5 -7.5t-44 -9.5t-40.5 -10t-30.5 -8l62 -247q7 2 28 7q42 9 67.5 15.5t71 24t70 36t40.5 50t7 68.5zM1240 876q-5 20 -15.5 35t-26.5 23t-32 13.5t-39 5
t-39.5 -1.5t-41.5 -6t-37 -7.5t-34 -8.5t-25 -7l56 -224q7 2 24 5q35 8 56.5 13.5t59 20.5t58 32t33 45t3.5 62z" />
</svg>