<svg xmlns="http://www.w3.org/2000/svg" xmlns:xlink="http://www.w3.org/1999/xlink" version="1.1" viewBox="-10 0 2058 2048">
   <path fill="currentColor"
d="M698 460q7 97 -99 97h-132q-147 -1 -183.5 1.5t-64.5 14.5q-2 0 -3 -2l496 -504q1 -1 1.5 -0.5t-0.5 2.5q-3 8 -5.5 14.5t-4.5 16.5t-2.5 18.5t-1.5 26.5t-1 33.5v47v59.5v78.5v96.5zM1059 1866q-18 -52 -18 -102t22 -95t55 -79t81 -54.5t100 -19.5q38 0 59.5 28t15 62.5
t-38.5 52.5q-7 3 -29 8.5t-39 11t-31.5 23t-15.5 45.5q0 36 25 63.5t56.5 39t60.5 11.5q87 0 148 -61.5t61 -147.5v0q0 -19 -4.5 -43.5t-19.5 -57.5t-37.5 -62t-63 -54t-92.5 -35l-22.5 -4t-39.5 -7t-48 -12.5t-54.5 -20t-51 -28.5t-46.5 -39.5t-33 -53t-17 -67.5
q-6 28 -15.5 60.5t-27.5 76.5t-39 79.5t-51.5 63.5t-63.5 36q-17 4 -49.5 6t-91.5 -3t-118.5 -20.5t-129.5 -54t-126 -95.5l-9 -9t-23 -28.5t-32 -50t-33.5 -75.5t-31.5 -102q-2 -10 -9.5 -46t-12 -57.5t-11 -55.5t-10.5 -65t-7 -59q0 -60 32.5 -101t80.5 -46h101.5
t84.5 0.5t67 0.5t55.5 -0.5t42 -1.5t34 -3t25 -4.5t21.5 -6.5t15.5 -9t15.5 -12q27 -25 32 -68.5t4 -221.5q-1 -109 -1 -180q2 -10 4.5 -20t10 -24.5t18.5 -25t29.5 -22.5t43.5 -16.5t59.5 -7t78.5 5.5q147 22 172 139l293 52q8 1 31.5 5t38.5 6.5t41.5 9t45.5 13t44.5 18
t44 24.5t39.5 32t36 41.5t27.5 52t18.5 63.5q29 155 44 323.5t15.5 299.5t-4 239.5t-11 167t-8.5 58.5q-11 84 -36 154.5t-57 119t-70.5 87.5t-78 61.5t-78 39t-72 23t-59.5 10t-41 3.5h-15q-36 -1 -77 -10t-86 -29t-84 -57t-60 -86zM1429 931q-3 5 -4.5 11t0.5 12t8 9
q45 15 115.5 22.5t93.5 2.5q17 -1 11 -31q-4 -29 -25 -50.5t-49.5 -29.5t-58 -6.5t-55 17.5t-36.5 43z" />
</svg>