<svg xmlns="http://www.w3.org/2000/svg" xmlns:xlink="http://www.w3.org/1999/xlink" version="1.1" viewBox="-10 0 2068 2048">
   <path fill="currentColor"
d="M1024 192q-113 0 -220.5 30t-199 83.5t-168 130.5t-130.5 168t-84 199t-30 221t30 221t84 199t130.5 168t168 131t199.5 84t220.5 30t220.5 -30t199 -84t168 -131t130.5 -168t83.5 -199t30 -221t-30 -221t-83.5 -199t-130.5 -168t-168 -130.5t-199 -83.5t-221 -30z
M1024.5 2048q-139.5 0 -272 -37t-245 -102.5t-207 -160t-160.5 -207t-103 -245.5t-37 -272t37 -272t103 -245.5t160.5 -207t207 -160t245 -102.5t272 -37t272 37t244.5 102.5t206.5 160t160.5 207t103 245.5t37 272t-37 272t-103 245.5t-160.5 207t-206.5 160t-244.5 102.5
t-272 37zM732 530l68 139l152 19q19 2 26 23q6 18 -8 33l-112 106l28 152q4 18 -12 31q-17 13 -34 2l-136 -72l-134 73q-20 9 -34 -3q-17 -13 -14 -31l28 -151l-110 -106q-16 -15 -10 -34q7 -19 26 -21l154 -21l66 -139q8 -18 28 -18t28 18zM1372 530l66 139l154 19
q19 2 26 23q6 18 -8 33l-112 106l28 152q4 18 -12 31q-17 14 -36 2l-134 -72l-134 73q-20 9 -35.5 -3t-12.5 -31l28 -151l-112 -106q-14 -15 -7.5 -34t25.5 -21l154 -21l66 -139q8 -18 28 -18t28 18zM1398 1233q27 -6 53 1.5t41.5 24.5t20 40t-12.5 47q-75 117 -201 186
t-274.5 69t-275 -69t-201.5 -186q-17 -24 -12.5 -47t19.5 -40t41 -24.5t54 -1.5q184 43 374 43q189 0 374 -43z" />
</svg>