<svg xmlns="http://www.w3.org/2000/svg" xmlns:xlink="http://www.w3.org/1999/xlink" version="1.1" viewBox="-10 0 2058 2048">
   <path fill="currentColor"
d="M1354 1956v-21q55 -111 51 -188q0 -33 -21 -92q-21 -57 -42 -100l-17 -42q4 -5 9 -6q1 0 12 -15q8 -11 8 -21q-12 -37 -41 -37q-25 -35 -88 -218q-63 -178 -67 -250h71q3 0 13 -5q8 -4 14 -16q7 -14 7 -30t-11 -29q-14 -15 -19 -19q-9 -6 -12 -6h-46l4 -142q33 0 33 -38
q0 -41 -33 -41q46 -42 63 -115q16 -74 -4 -120q-12 -20 -176 -280q33 -12 33 -62q0 -63 -66 -63q-59 0 -59 63q0 50 34 62q-9 9 -40 55q-32 47 -40 62l63 134q9 21 -8 21l-26 -21l-46 -104q-65 96 -83 133q-22 47 -2 120q19 74 65 115q-38 0 -38 41q0 29 33 38l5 142h-34
q-4 0 -12 4t-21 17t-13 29q0 17 9 29q12 17 16 19q10 7 13 7h54q0 66 4 94q4 32 -21 96q-9 21 -21 52.5t-16 41.5q-11 26 -44 90q-29 55 -40 81q-6 3 -16 13q-34 0 -38 37q-5 17 6 29q11 13 19 13q0 9 -4 13q-80 164 -84 213q-5 103 50 200v13h-4q-17 21 -21 38l-8 58h723
q0 -39 -4 -54q-5 -16 -26 -38z" />
</svg>