<svg xmlns="http://www.w3.org/2000/svg" xmlns:xlink="http://www.w3.org/1999/xlink" version="1.1" viewBox="-10 0 2068 2048">
   <path fill="currentColor"
d="M146 0h440q60 0 103 43t43 103t-43 103t-103 43h-294v292q0 60 -43 104t-102.5 44t-103 -44t-43.5 -104v-438q0 -60 43 -103t103 -43zM292 1462v294h294q60 0 103 43t43 103t-43 103t-103 43h-440q-60 0 -103 -43t-43 -103v-440q0 -60 43 -103t103 -43t103 43t43 103z
M1464 0h438q60 0 103 43t43 103v438q0 60 -43.5 104t-103 44t-102.5 -44t-43 -104v-292h-292q-61 0 -104.5 -43t-43.5 -103t43.5 -103t104.5 -43zM2048 1462v440q0 60 -43 103t-103 43h-438q-61 0 -104.5 -43t-43.5 -103t43.5 -103t104.5 -43h292v-294q0 -60 43 -103
t103 -43t103 43t43 103z" />
</svg>