<svg xmlns="http://www.w3.org/2000/svg" xmlns:xlink="http://www.w3.org/1999/xlink" version="1.1" viewBox="-10 0 2068 2048">
   <path fill="currentColor"
d="M1023.5 228q211.5 0 398 31.5t325.5 89t220 144t81 189.5v682q0 104 -81 191t-220 144.5t-325.5 89t-398 31.5t-398 -31.5t-325.5 -89t-219.5 -144.5t-80.5 -191v-682q0 -103 80.5 -189.5t219.5 -144t325.5 -89t398 -31.5zM1878 682.5q0 -15.5 -8 -33.5t-27.5 -41.5
t-61 -50.5t-101.5 -51q-105 -45 -234 -70l-98 156q-40 60 -40 136q0 97 64 168l36 40q152 -25 274 -76q59 -25 100 -52t60.5 -50.5t27.5 -41.5t8 -33.5zM1242 958q-23 -71 -83 -116.5t-135.5 -45.5t-135.5 45.5t-82 116.5q116 10 218 10q119 0 218 -10zM602 436
q-131 25 -236 70q-59 24 -100 51t-60.5 50.5t-27.5 41.5t-8 33.5t8 33.5t27.5 41.5t60.5 50.5t100 52q122 51 274 76l36 -40q64 -70 64 -168q0 -76 -40 -136zM802 408q-6 24 -6 46q0 94 67 161t160.5 67t161 -67t67.5 -161q0 -22 -6 -46q-89 -10 -222 -10q-132 0 -222 10z
" />
</svg>