<svg xmlns="http://www.w3.org/2000/svg" xmlns:xlink="http://www.w3.org/1999/xlink" version="1.1" viewBox="-10 0 2068 2048">
   <path fill="currentColor"
d="M1024.5 460q21.5 0 41 -7.5t28.5 -14.5t28 -24q20 -17 33.5 -27t40.5 -19.5t58 -9.5q38 0 75 36.5t68 99.5t57.5 134.5t49 157.5t37.5 151.5t27 130.5q-251 110 -543.5 110t-544.5 -110q13 -65 28 -130.5t37.5 -151.5t49 -157.5t57.5 -134.5t68 -99.5t74 -36.5
q32 0 58.5 9.5t40 19.5t33.5 27q18 16 28 23.5t29.5 15t41 7.5zM356 1122q303 158 668 158t668 -158q144 -75 226 -152q18 -19 44.5 -22t49 11.5t31.5 40t1 50.5q-59 166 -212 322q-63 64 -138 117.5t-174 100.5t-226 73.5t-269.5 26.5t-269 -26.5t-226 -73.5t-174.5 -100.5
t-139 -117.5q-154 -161 -212 -322q-8 -25 1 -51t31 -41q23 -14 50 -10.5t46 22.5q82 78 224 152z" />
</svg>