<svg xmlns="http://www.w3.org/2000/svg" xmlns:xlink="http://www.w3.org/1999/xlink" version="1.1" viewBox="-10 0 2068 2048">
   <path fill="currentColor"
d="M640 384q0 -104 51.5 -192.5t140 -140t193 -51.5t193 51.5t139.5 140t51 192.5t-51 193t-139.5 140.5t-193 51.5t-193 -51.5t-140 -140.5t-51.5 -193zM960 992v1056l-194 -96q-131 -65 -266 -78l-384 -38q-49 -5 -82.5 -42t-33.5 -86v-812q0 -52 38 -89.5t90 -37.5h122
q191 0 372.5 57t337.5 166zM1088 2048v-1056q156 -109 337.5 -166t372.5 -57h122q52 0 90 37.5t38 89.5v812q0 49 -33.5 86t-82.5 42l-382 38q-140 13 -268 77z" />
</svg>