<svg xmlns="http://www.w3.org/2000/svg" xmlns:xlink="http://www.w3.org/1999/xlink" version="1.1" viewBox="-10 0 2068 2048">
   <path fill="currentColor"
d="M1032 0q138 0 270 37.5t243 104t205 161.5t159.5 207.5t102 244t36.5 268.5t-36.5 268.5t-102 244t-159.5 207.5t-205 162t-243 104.5t-270 37.5l-1032 1v-1043q0 -137 38 -267.5t105 -240.5t163 -203t209.5 -157.5t246 -100.5t270.5 -36zM1024 1608q120 0 228 -46
t186.5 -124.5t125 -186.5t46.5 -227t-46.5 -227.5t-125 -187t-187 -125t-227 -46.5t-227 46.5t-187.5 125t-125.5 187t-46.5 227.5q0 148 72 279l-104 343l370 -92q112 54 248 54z" />
</svg>