<svg xmlns="http://www.w3.org/2000/svg" xmlns:xlink="http://www.w3.org/1999/xlink" version="1.1" viewBox="-10 0 2068 2048">
   <path fill="currentColor"
d="M384 1527v-354q0 -93 66 -159l110 -109l227 228q18 19 45 19t45.5 -19t18.5 -45t-18 -45l-228 -229l165 -165l229 228q18 19 44.5 19t45 -19t18.5 -45.5t-18 -45.5l-228 -227l165 -166l228 227q18 19 44.5 19t45 -18.5t18.5 -45t-18 -45.5l-227 -228l182 -182
q58 -58 133 -89t158 -31q111 0 206.5 55t151 150t55.5 207q0 82 -31.5 158t-88.5 134l-894 894q-66 66 -158 66h-355l-356 355q-29 29 -69 29t-67.5 -28.5t-28 -68t28.5 -67.5l356 -357h-1z" />
</svg>