<svg xmlns="http://www.w3.org/2000/svg" xmlns:xlink="http://www.w3.org/1999/xlink" version="1.1" viewBox="-10 0 2068 2048">
   <path fill="currentColor"
d="M768 420q0 -52 -52 -92q-76 -56 -76 -136q0 -79 75.5 -135.5t181 -56.5t180.5 56t75 136q0 81 -74 136q-54 40 -54 92q0 38 27.5 65t66.5 27h226q80 0 136 56t56 136v227q0 38 27.5 65.5t66.5 27.5q50 0 90 -53q56 -75 136 -75q79 0 135.5 75t56.5 181t-56.5 181
t-135.5 75q-80 0 -136 -75q-40 -53 -90 -53q-39 0 -66.5 27.5t-27.5 65.5v484q0 79 -56 135t-136 56h-226q-39 0 -66.5 -27.5t-27.5 -65.5q0 -51 54 -91q74 -55 74 -135t-75 -136.5t-180.5 -56.5t-181 56.5t-75.5 136.5q0 79 76 135q52 40 52 91q0 38 -27 65.5t-65 27.5
h-484q-79 0 -135.5 -56t-56.5 -135v-484q0 -38 27.5 -65.5t66.5 -27.5q50 0 90 53q56 75 136 75t136 -75t56 -181t-56 -181t-136 -75t-136 75q-40 53 -90 53q-39 0 -66.5 -27.5t-27.5 -65.5v-227q0 -80 56.5 -136t135.5 -56h484q38 0 65 -27t27 -65z" />
</svg>