<svg xmlns="http://www.w3.org/2000/svg" xmlns:xlink="http://www.w3.org/1999/xlink" version="1.1" viewBox="-10 0 2068 2048">
   <path fill="currentColor"
d="M144.5 144q30.5 -31 70 -53.5t76 -38t101 -25.5t110.5 -15.5t140.5 -8t154 -3t187.5 -0.5h80q128 0 187.5 0.5t154 3t140.5 8t110.5 15.5t101 25.5t76 38t70 53.5t53 70t38.5 76t26 101.5t15.5 110t8 140t3 154t0.5 187.5v82q0 128 -0.5 187.5t-3 154t-8 140t-15.5 110
t-26 101.5t-38.5 76t-53 70t-70 53.5t-76 38t-101 25.5t-110.5 15.5t-140.5 8t-154 3t-187.5 0.5h-80q-128 0 -187.5 -0.5t-154 -3t-140.5 -8t-110.5 -15.5t-101 -25.5t-76 -38t-70 -53.5t-53 -70t-38.5 -76t-26 -101.5t-15.5 -110t-8 -140t-3 -154t-0.5 -187.5v-82
q0 -128 0.5 -187.5t3 -154t8 -140t15.5 -110t26 -101.5t38.5 -76t53 -70zM346 623q5 266 92.5 457t253.5 293t398 102h26v-305q124 15 222 99q98 83 132 206h242q-38 -141 -130 -252q-92 -112 -222 -176q117 -71 194 -180q77 -107 106 -244h-220q-37 128 -130.5 227
t-193.5 110v-337h-220v590q-43 -11 -84.5 -37t-83.5 -74t-73.5 -112t-52 -159t-22.5 -208h-234z" />
</svg>