<svg xmlns="http://www.w3.org/2000/svg" xmlns:xlink="http://www.w3.org/1999/xlink" version="1.1" viewBox="-10 0 2058 2048">
   <path fill="currentColor"
d="M1024 2048q197 0 304 -107t107 -271q0 -113 -69 -206q-70 -94 -70 -134q0 -54 17 -97t17 -71q0 -156 -205 -193v227q71 50 71 134q0 71 -51 122q-50 50 -121 50q-72 0 -122 -50t-50 -122q0 -84 71 -134v-227q-205 37 -205 189q0 34 16 75q17 43 17 97q0 41 -69 134
t-69 206q0 164 107 271t304 107zM885 1842h277v67h-277v-67zM923 0h202v306h-202v-306zM957 1175v54h134v-889h-134v835z" />
</svg>