<svg xmlns="http://www.w3.org/2000/svg" xmlns:xlink="http://www.w3.org/1999/xlink" version="1.1" viewBox="-10 0 2068 2048">
   <path fill="currentColor"
d="M292 0h1464q120 0 206 85.5t86 206.5v1464q0 121 -86 206.5t-206 85.5h-1464q-120 0 -206 -85.5t-86 -206.5v-1464q0 -121 86 -206.5t206 -85.5zM996 1096q13 7 28 7t28 -7l702 -455q-6 -55 -47.5 -92.5t-96.5 -37.5h-1172q-55 0 -96.5 37.5t-47.5 92.5zM1130 1218
q-50 33 -106 33t-106 -33l-626 -403v574q0 60 43 103t103 43h1172q60 0 103 -43t43 -103v-574z" />
</svg>