<svg xmlns="http://www.w3.org/2000/svg" xmlns:xlink="http://www.w3.org/1999/xlink" version="1.1" viewBox="-10 0 2068 2048">
   <path fill="currentColor"
d="M252 893q-58 3 -60 3q-93 0 -180 -23q24 -164 100 -312t188 -261t260 -189t312 -100q24 91 24 181q0 19 -2 59q-2 26 15 46.5t43.5 22.5t46.5 -15.5t23 -43.5q2 -35 2 -69q0 -103 -22 -192h22q140 0 272.5 37t244.5 102.5t206.5 160t160.5 207t103 245.5t37 272v23
q-102 -23 -192 -23q-35 0 -70 3q-26 2 -43.5 22.5t-15 46.5t23 43t47.5 15q38 -2 58 -2q89 0 180 24q-24 164 -100 312t-188 260.5t-260 188.5t-312 100q-24 -91 -24 -180q0 -11 1.5 -31.5t2.5 -27.5q2 -26 -15.5 -46.5t-44 -22.5t-46.5 15t-22 43q-4 35 -4 68q0 103 22 192
q-4 0 -11 0.5t-11 0.5q-139 0 -271.5 -37t-245 -102.5t-207 -160t-160.5 -207t-103 -245.5t-37 -272v-22q90 22 192 22q35 0 70 -3q26 -2 43.5 -22.5t15 -46.5t-23 -43.5t-47.5 -15.5h2zM486 833q-25 11 -34 35t2 49q12 25 36.5 33.5t47.5 -2.5q136 -62 242 -167.5
t168 -241.5q12 -25 2.5 -50t-33.5 -36t-48.5 -2t-36.5 34q-52 115 -142 205.5t-204 142.5zM1593.5 1131q-11.5 -25 -36 -34t-47.5 2q-136 62 -242 168.5t-168 242.5q-11 25 -2 49t34 35q23 11 47.5 2.5t36.5 -33.5q52 -115 142 -205t204 -142q25 -11 34 -35.5t-2.5 -49.5z
" />
</svg>