<svg xmlns="http://www.w3.org/2000/svg" xmlns:xlink="http://www.w3.org/1999/xlink" version="1.1" viewBox="-10 0 2058 2048">
   <path fill="currentColor"
d="M1956 1152q9 0 13.5 5.5t4.5 13.5v877h-730v-383q0 -69 -32.5 -120t-81.5 -74t-105.5 -23t-105.5 23t-81 74t-32 120v383h-732v-877q0 -8 4.5 -13.5t13.5 -5.5h108q9 0 14.5 5.5t5.5 13.5v128h146v-714q0 -8 4.5 -13.5t13.5 -5.5h110q9 0 13.5 5.5t4.5 13.5v129h146v-129
q0 -8 5 -13.5t13 -5.5h110q8 0 13 5.5t5 13.5v129h146v-129q0 -7 3 -11.5t10 -6t10.5 -2t13 0l9.5 0.5v-446q-16 -8 -26 -24t-10 -34q0 -29 20 -46t43 -16.5t43 17t20 45.5q0 18 -10 34t-26 24v19q45 -12 94 -12q24 0 68.5 9t63.5 9t52.5 -9t41.5 -9q9 0 13.5 5.5t4.5 13.5
v240q0 17 -40 24.5t-70 7.5q-20 0 -62 -8t-64 -8q-47 0 -102 13v151l9.5 -0.5t13.5 0t11 2t9.5 6t2.5 11.5v129h148v-129q0 -8 5 -13.5t13 -5.5h110q8 0 13 5.5t5 13.5v129h146v-129q0 -8 5 -13.5t13 -5.5h110q8 0 13 5.5t5 13.5v714h146v-128q0 -8 5 -13.5t13 -5.5h110z
M806 1134v-256q0 -8 -5.5 -13t-14.5 -5h-110q-8 0 -13 5t-5 13v256q0 8 5 13t13 5h110q9 0 14.5 -5t5.5 -13zM1390 1134v-256q0 -18 -18 -18h-110q-8 0 -13 5t-5 13v256q0 8 5 13t13 5h110q18 0 18 -18z" />
</svg>