<svg xmlns="http://www.w3.org/2000/svg" xmlns:xlink="http://www.w3.org/1999/xlink" version="1.1" viewBox="-10 0 2068 2048">
   <path fill="currentColor"
d="M1820 398h-1592q-24 0 -41 16.5t-17 39.5v1138q0 24 17 41t41 17h1592q23 0 40.5 -17t17.5 -41v-1138q0 -23 -17.5 -39.5t-40.5 -16.5zM228 228h1592q93 0 160.5 66.5t67.5 159.5v1138q0 94 -67.5 161t-160.5 67h-1592q-94 0 -161 -67t-67 -161v-1138q0 -93 67 -159.5
t161 -66.5zM710 854q-70 0 -120 49.5t-50 120t50 120.5t120 50q79 0 128 -56q24 -27 59.5 -29.5t62.5 21.5q26 24 27.5 59.5t-21.5 62.5q-49 53 -114.5 82.5t-139.5 29.5q-93 0 -172 -45t-124.5 -124t-45.5 -171.5t45.5 -171.5t124.5 -124.5t172 -45.5q73 0 139 30.5
t115 83.5q23 27 21.5 63t-27.5 59q-27 23 -62.5 21t-59.5 -29q-49 -56 -128 -56zM1222 1023.5q0 70.5 50.5 120.5t121.5 50q78 0 128 -56q23 -27 58 -29.5t61.5 21.5t28.5 59.5t-22 62.5q-48 53 -113.5 82.5t-140.5 29.5q-93 0 -171.5 -45t-124.5 -124t-46 -171.5t46 -171.5
t124.5 -124.5t171.5 -45.5q74 0 140 30.5t114 83.5q24 27 22 62.5t-28 59.5q-27 23 -62 21t-58 -29q-50 -56 -128 -56q-71 0 -121.5 49.5t-50.5 120z" />
</svg>