<svg xmlns="http://www.w3.org/2000/svg" xmlns:xlink="http://www.w3.org/1999/xlink" version="1.1" viewBox="-10 0 2068 2048">
   <path fill="currentColor"
d="M2048 630l-2 290q0 156 -67.5 296t-188.5 237v-22v-33q0 -215 -104 -403t-286 -303l-240 -151q-49 -30 -110 -37l-184 -318q-19 -34 -8.5 -72.5t44 -58t72.5 -9t58 43.5l312 540q10 17 29 22.5t36.5 -4.5t23 -28.5t-4.5 -36.5l-248 -430q-19 -33 -9 -72t43.5 -58.5
t72.5 -9t59 43.5l272 470v0l172 300v-197q0 -52 38 -90t90.5 -38t91 38t38.5 90zM848 344l98 170q-88 29 -140 109q-8 15 -10 17l-114 -199q-20 -34 -9.5 -72.5t44 -58t72.5 -9.5t59 43zM662 600l106 185q3 29 18 69h-18h-54h-126l-92 -159q-19 -33 -9 -72t43.5 -58.5t73 -9
t58.5 44.5zM914 691q29 -45 81 -57t97 16l240 150q154 97 242 256.5t88 341.5v33q0 124 -47.5 236.5t-129 193.5t-194 129t-235.5 48h-704q-39 0 -67.5 -28t-28.5 -67.5t28.5 -68t67.5 -28.5h368q20 0 34 -13.5t14 -33t-14 -34.5t-34 -15h-496q-39 0 -67.5 -27.5
t-28.5 -67.5t28.5 -68.5t67.5 -28.5h496q20 0 34 -13.5t14 -33t-14 -34.5t-34 -15h-624q-39 0 -67.5 -27.5t-28.5 -67.5t28.5 -68.5t67.5 -28.5h624q20 0 34 -13.5t14 -33t-14 -34t-34 -14.5h-496q-39 0 -67.5 -28t-28.5 -68t28.5 -68.5t67.5 -28.5h544v0h372l-184 -115
q-45 -28 -57 -79.5t15 -96.5z" />
</svg>