<svg xmlns="http://www.w3.org/2000/svg" xmlns:xlink="http://www.w3.org/1999/xlink" version="1.1" viewBox="-10 0 2058 2048">
   <path fill="currentColor"
d="M1600 511q0 132 -69 244t-188 182v86q0 53 -37.5 90.5t-90.5 37.5h-383q-52 0 -90 -37.5t-38 -90.5v-86q-118 -70 -187.5 -182t-69.5 -244q0 -104 46 -198.5t123 -163t184 -109t224 -40.5t224 40.5t184 109t122.5 163t45.5 198.5zM799.5 703q52.5 0 90 -37.5t37.5 -90
t-37.5 -90.5t-90 -38t-90 38t-37.5 90.5t37.5 90t90 37.5zM1375 575.5q0 -52.5 -37 -90.5t-89.5 -38t-90.5 38t-38 90.5t38 90t90.5 37.5t89.5 -37.5t37 -90zM142 1094q23 -47 73.5 -64t97.5 6l711 356l710 -356q47 -23 98 -6t74 64q24 48 7 98.5t-64 73.5l-540 269l540 270
q47 24 64 74.5t-7 97.5q-23 47 -73.5 64t-97.5 -7l-711 -355l-711 355q-47 24 -97.5 7t-73.5 -64t-7 -98t63 -74l540 -270l-540 -269q-47 -23 -63 -74t7 -98z" />
</svg>