<svg xmlns="http://www.w3.org/2000/svg" xmlns:xlink="http://www.w3.org/1999/xlink" version="1.1" viewBox="-10 0 2058 2048">
   <path fill="currentColor"
d="M510 505v-232q0 -40 23 -73t61 -47l386 -145q45 -17 90 0l384 145q38 14 61 47t23 73v232v33v160q0 105 -40.5 200t-109.5 164t-164.5 109.5t-200 40.5t-199.5 -40.5t-163.5 -109.5t-109.5 -164t-41 -200v-160q0 -22 2 -33h-2zM702 698q0 87 43.5 161.5t117 117.5t161 43
t161 -43t116.5 -117.5t43 -161.5v-65h-642v65zM574 1308q31 -10 63.5 -0.5t54.5 34.5l286 303q18 20 46 20t46 -20l286 -303q22 -25 54 -34.5t64 0.5q198 64 324 234t126 383q0 52 -36.5 87.5t-87.5 35.5h-1552q-51 0 -87.5 -36.5t-36.5 -86.5q0 -214 125.5 -383.5
t324.5 -233.5zM960 184v64h-64q-13 0 -23.5 9.5t-10.5 22.5v65q0 13 10.5 22.5t23.5 9.5h64v64q0 13 10 22.5t22 9.5h64q13 0 22.5 -9.5t9.5 -22.5v-64h64q13 0 22.5 -9.5t9.5 -22.5v-65q0 -13 -9.5 -22.5t-22.5 -9.5h-64v-64q0 -13 -9.5 -23t-22.5 -10h-64q-12 0 -22 10
t-10 23z" />
</svg>