<svg xmlns="http://www.w3.org/2000/svg" xmlns:xlink="http://www.w3.org/1999/xlink" version="1.1" viewBox="-10 0 2068 2048">
   <path fill="currentColor"
d="M1924 220q25 -19 56.5 -15t51 29t15.5 57t-29 51l-1894 1485q-24 20 -56 16t-51.5 -28.5t-15.5 -56.5t29 -52l498 -391q-155 -188 -239.5 -420t-84.5 -486q0 -42 27 -77t69 -47l282 -76q46 -12 89.5 8.5t60.5 65.5l128 307q17 39 6.5 80.5t-42.5 68.5l-158 129
q57 123 144 226zM750 1534l292 -230q69 46 138 78l128 -158q27 -33 69 -42.5t81 6.5l306 127q45 18 66 62t8 90l-76 282q-11 41 -46 67.5t-78 26.5q-246 0 -473.5 -80.5t-414.5 -228.5z" />
</svg>