<svg xmlns="http://www.w3.org/2000/svg" xmlns:xlink="http://www.w3.org/1999/xlink" version="1.1" viewBox="-10 0 2058 2048">
   <path fill="currentColor"
d="M1070 1887l-46 84l-46 -84l-42 63l-21 -49l-21 28v119q-24 -9 -41 -39t-26.5 -78t-15 -90t-10.5 -99.5t-9 -82.5q-2 -16 -5.5 -53t-6.5 -63.5t-12.5 -69t-22 -77t-36.5 -80t-55.5 -85t-79.5 -84t-108 -85.5q61 -159 11 -319q-49 6 -83 15.5t-70.5 31t-61.5 63.5t-39 105
l121 34q-72 150 -51 289l108 -28l25 133l73 -28l36 134l77 -28l-105 85l-36 -113l-98 21l-29 -142l-105 57q0 -13 -3.5 -69.5t-3.5 -92t10 -87t32 -88.5l-105 21q-15 -82 27 -213q3 -9 4 -14l-89 38q2 -78 77.5 -153.5t168.5 -80.5q42 -2 94 -30.5t90 -77.5t33 -99
q-6 -64 -53 -121.5t-120 -77.5q50 41 70.5 83.5t15.5 75.5t-23.5 62t-41 46t-42.5 26q-8 -23 -17 -68.5t-16 -115t1 -160.5t32 -176q357 202 373 592l232 154l14 374l-429 -240l-28 28l70 14l177 155l62 -21l113 197l14 479l-84 63l130 64l130 -64l-84 -63l14 -479l112 -197
l64 21l175 -155l71 -14l-29 -28l-429 240l15 -374l231 -155q17 -390 373 -591q24 85 32 176t1 160.5t-16 115t-17 68.5q-20 -9 -42.5 -26t-41 -46t-23.5 -62t15.5 -75.5t70.5 -83.5q-73 20 -119.5 77.5t-52.5 121.5q-5 50 33 99t90 77.5t94 30.5q93 5 168.5 80.5t77.5 153.5
l-90 -38q32 101 35 148q3 40 -4 79l-105 -21q22 37 32 88.5t10 87t-3.5 92t-3.5 69.5l-105 -57l-28 142l-99 -21l-35 113l-106 -85l78 28l35 -133l73 27l25 -133l110 28q20 -136 -53 -288l121 -34q-11 -51 -30.5 -88t-42 -59.5t-54.5 -37t-59.5 -21t-66.5 -10.5
q-50 162 10 320q-60 41 -108 85.5t-79.5 84t-55.5 84.5t-36.5 80t-21.5 77t-12 69t-6.5 63.5t-5.5 52.5q-4 25 -9 82t-10 99.5t-14.5 90t-26.5 78t-41 39.5v-120l-22 -27l-21 49zM1386 1507l-63 -43q26 -15 77 -48q-4 65 -14 91zM1499 1309q-1 29 -8 127q-65 -17 -84 -28
q44 -42 92 -99zM1598 1330l-96 -24q44 -57 74 -109q22 63 22 133zM1612 1007q103 68 119 225q-102 -37 -147 -42q26 -60 28 -183zM1604 824q131 19 183 113q-14 4 -49 13.5t-63 18.5t-63 24q0 -17 -8 -169zM662 1507q-10 -26 -14 -91q51 33 77 48zM549 1309q53 62 91 99
q-19 11 -84 28q-6 -78 -7 -127zM451 1330q0 -76 20 -133q27 47 75 109zM437 1007q2 115 28 182q-48 5 -149 42q15 -155 121 -224zM443 824q-6 114 -6 169q-35 -15 -63.5 -24.5t-63.5 -18t-50 -13.5q29 -53 75 -78.5t108 -34.5z" />
</svg>