<svg xmlns="http://www.w3.org/2000/svg" xmlns:xlink="http://www.w3.org/1999/xlink" version="1.1" viewBox="-10 0 2068 2048">
   <path fill="currentColor"
d="M428 116q17 48 -6.5 94t-71.5 63l-102 34v469q0 101 50 186.5t135.5 135.5t187 50t187 -50t135 -135.5t49.5 -186.5v-469l-100 -34q-49 -17 -72.5 -63t-7 -94.5t63 -71.5t94.5 -6l102 34q75 25 122.5 90t47.5 145v469q0 147 -65 276t-177.5 215.5t-251.5 116.5
q11 107 71 195t155 139t206 51q118 0 217.5 -58t157 -158.5t57.5 -218.5v-274q-83 -36 -134.5 -113t-51.5 -171q0 -128 91 -219t219.5 -91t220 91t91.5 219q0 94 -52 171t-136 113v274q0 139 -53.5 265.5t-144.5 218t-217.5 145.5t-264.5 54q-133 0 -255 -49.5t-212 -133.5
t-147.5 -201.5t-67.5 -247.5q-140 -28 -253.5 -115t-179 -216.5t-65.5 -277.5v-469q0 -80 47 -145t123 -90l102 -34q48 -17 94 6t62 72zM1737 900q51 0 87 -36.5t36 -87.5t-36.5 -88t-87 -37t-87.5 37t-37 88t37 87.5t88 36.5z" />
</svg>