<svg xmlns="http://www.w3.org/2000/svg" xmlns:xlink="http://www.w3.org/1999/xlink" version="1.1" viewBox="-10 0 2068 2048">
   <path fill="currentColor"
d="M102 205h52q105 0 180.5 75t75.5 181v921q0 21 15 36t37 15h1484q41 0 71.5 30.5t30.5 72.5t-30 72t-72 30h-214q8 26 8 52q0 64 -45 108.5t-108.5 44.5t-108 -44.5t-44.5 -108.5q0 -31 8 -52h-632q10 29 10 52q0 64 -45.5 108.5t-109 44.5t-108.5 -44.5t-45 -108.5
q0 -28 10 -52h-60q-106 0 -182 -75t-76 -181v-921q0 -21 -15 -36.5t-35 -15.5h-52q-42 0 -72 -30t-30 -72t30 -72t72 -30zM614 461q0 -64 45.5 -109t108.5 -45h308v460q0 31 26 46q27 15 54 -2l124 -84l124 84q27 16 53.5 2t26.5 -46v-460h308q63 0 108.5 45t45.5 109v614
q0 64 -45.5 109t-108.5 45h-1024q-63 0 -108.5 -45t-45.5 -109v-614z" />
</svg>