<svg xmlns="http://www.w3.org/2000/svg" xmlns:xlink="http://www.w3.org/1999/xlink" version="1.1" viewBox="-10 0 2058 2048">
   <path fill="currentColor"
d="M1457 1464q-11 -98 -67 -326q-54 -219 -80 -267q-22 -47 -30 -67q-284 33 -512 -5q-4 21 -30 72q-26 48 -80 267q-56 228 -67 326l-76 500q68 5 110 0q15 -2 19 4t-2 21l-9 17q31 17 99 7q69 -10 73 6q21 42 118 21q21 -9 21 -13q-10 -13 21 -25q16 4 21 17q-4 16 7 23
q11 6 23 6h8h13q9 0 19 -6q11 -6 6 -23q-5 -12 8 -17q25 -4 34 17q4 4 0 8t8 9q68 26 118 -4q9 -4 13 -13q12 -16 73 -6q60 10 99 -7l-13 -38q4 -9 21 -4h110q-65 -367 -76 -500zM696 63q4 12 6 32q0 6 3.5 31.5t5.5 46.5q6 59 -6 96q-13 72 6 198q20 135 44 198
q17 48 17 88q242 42 504 4q-4 -32 17 -92q24 -63 44 -198q19 -126 6 -198q-8 -44 -6 -96q2 -47 6 -80l9 -30l-9 -4l-33 -21l-4 -4h-9q-15 -8 -33 -13q-14 0 -34 -10q-22 -11 -34 -11t-29 9q6 6 10 12q7 10 11 34q5 26 -4 50q-9 27 -49 59q-43 35 -111 59q-112 -41 -149 -97
q-36 -54 -15 -84l21 -33q-8 -4 -29 -4q-16 0 -36 8t-32 8q-2 0 -10 2q-5 1 -11 7h-4l-25 12l-25 17z" />
</svg>