<svg xmlns="http://www.w3.org/2000/svg" xmlns:xlink="http://www.w3.org/1999/xlink" version="1.1" viewBox="-10 0 2067 2048">
   <path fill="currentColor"
d="M1025 0q208 0 397.5 81t326 218t217.5 326.5t81 398.5t-81 398.5t-217.5 326.5t-326 218t-397.5 81t-397.5 -81t-327 -218t-218.5 -327t-81 -398t81 -398t218.5 -327t327 -218t397.5 -81zM1731 655q16 -35 -23 -35h-539q-27 0 -37 24q-11 27 -35.5 81t-36.5 81
q-15 34 23 34h311q25 0 27 21q3 22 -22 31q-9 4 -20 4h-328q-31 0 -42 27l-133 302q-6 14 -21.5 18t-24.5 -7t0 -33q18 -39 52 -117.5t51 -117.5q7 -16 0 -26t-24 -10h-188q-19 0 -28 18q-122 278 -123 279q-12 21 -35 12.5t-11 -35.5q11 -27 34.5 -80.5t35.5 -80.5
q28 -63 84.5 -190t84.5 -191q8 -17 -0.5 -30.5t-27.5 -13.5h-176q-25 0 -35 24q-73 169 -160 363q-18 40 -53.5 121.5t-53.5 121.5q-11 23 5 40q97 105 139 152q14 14 31 14h569q24 0 34 -22q21 -48 63.5 -145t63.5 -146q13 -28 42 -28h285q39 0 54 -33q31 -71 93.5 -213.5
t94.5 -213.5z" />
</svg>