<svg xmlns="http://www.w3.org/2000/svg" xmlns:xlink="http://www.w3.org/1999/xlink" version="1.1" viewBox="-10 0 2068 2048">
   <path fill="currentColor"
d="M1904 1064l-380 380q-95 94 -221 127.5t-252 0t-221 -127.5q-83 -84 -119 -195t-18 -225.5t87 -210.5l4 -5q26 -37 69.5 -44.5t80 19t44.5 70.5t-18 81l-4 6q-59 81 -51 180.5t79 170.5q79 79 192.5 79t193.5 -79l380 -381q80 -80 80 -193.5t-80 -192.5
q-70 -71 -170 -79.5t-182 50.5l-6 3q-36 26 -79.5 19t-70 -43.5t-19 -81t44.5 -70.5l4 -3q96 -69 211 -86.5t226 18.5t195 120q70 70 107 162t37 184.5t-37 184t-107 162.5zM144 985l380 -381q71 -71 162.5 -108t184 -37t184 37t161.5 108q84 84 120 194.5t18.5 225.5
t-86.5 211l-4 6q-26 36 -69.5 43t-80 -19.5t-44.5 -70t18 -80.5l4 -5q59 -82 50.5 -182t-78.5 -170q-80 -80 -193.5 -80t-192.5 80l-380 381q-79 79 -79 192t79 194q71 70 170.5 78.5t181.5 -49.5l4 -3q37 -27 81 -20t70.5 43.5t19 81t-44.5 71.5l-6 4q-145 104 -323.5 89
t-306.5 -142q-70 -71 -107 -162.5t-37 -184t37 -184t107 -161.5z" />
</svg>