<svg xmlns="http://www.w3.org/2000/svg" xmlns:xlink="http://www.w3.org/1999/xlink" version="1.1" viewBox="-10 0 2068 2048">
   <path fill="currentColor"
d="M1028 964v-844q0 -26 17.5 -44.5t43.5 -18.5q115 0 224.5 30.5t202.5 85t171 132.5t132.5 171t85 203t30.5 225q0 25 -19 42.5t-45 17.5h-843zM1 1085q0 -169 60 -325t164 -274.5t248.5 -198t308.5 -101.5q26 -4 45.5 14t19.5 45v900l591 592q19 19 17.5 45.5t-22.5 41.5
q-113 80 -247.5 123.5t-278.5 43.5q-123 0 -240.5 -32.5t-217 -91t-183 -142t-142 -183t-91 -217t-32.5 -240.5zM1989 1145q26 0 43.5 19.5t14.5 45.5q-22 156 -94 293.5t-185 243.5q-17 16 -41 15.5t-39 -17.5l-599 -600h900z" />
</svg>