<svg xmlns="http://www.w3.org/2000/svg" xmlns:xlink="http://www.w3.org/1999/xlink" version="1.1" viewBox="-10 0 2058 2048">
   <path fill="currentColor"
d="M312 383q0 -104 51.5 -192t140 -139.5t192.5 -51.5h656q104 0 192.5 51.5t140 139.5t51.5 192q0 99 -47 184t-127 137q80 52 127 136.5t47 183.5q0 104 -51.5 192.5t-140 140t-192.5 51.5h-8q-147 0 -256 -100v353q0 106 -53 195t-143 140.5t-194 51.5t-193 -51
t-141 -139.5t-52 -192.5q0 -99 47 -183.5t127 -136.5q-80 -52 -127 -137t-47 -184t47 -183.5t127 -136.5q-80 -52 -127 -137t-47 -184zM962 766h-266q-107 0 -182.5 75.5t-75.5 182.5t75 182t181 76h2h266v-516zM1088 1024q0 107 75 182.5t181 75.5h8q107 0 182.5 -76
t75.5 -182t-75.5 -182t-182.5 -76h-8q-106 0 -181 75.5t-75 182.5zM696 1408h-2q-106 1 -181 76t-75 181.5t76 182t184 75.5t186 -77t78 -185v-253h-266zM696 125q-107 0 -182.5 75.5t-75.5 182.5t75.5 182.5t182.5 75.5h266v-516h-266zM1088 641h264q107 0 182.5 -75.5
t75.5 -182.5t-75.5 -182.5t-182.5 -75.5h-264v516z" />
</svg>