<svg xmlns="http://www.w3.org/2000/svg" xmlns:xlink="http://www.w3.org/1999/xlink" version="1.1" viewBox="-10 0 2068 2048">
   <path fill="currentColor"
d="M0 256q0 -52 38 -90t90 -38h224h192h224q53 0 90.5 38t37.5 90t-37.5 90t-90.5 38v1217q0 133 -93.5 226t-226 93t-226.5 -93t-94 -226v-1217q-52 0 -90 -38t-38 -90zM544 384h-192v640h192v-640zM1152 256q0 -52 38 -90t90 -38h224h192h224q52 0 90 38t38 90t-38 90
t-90 38v1217q0 133 -93.5 226t-226 93t-226.5 -93t-94 -226v-1217q-52 0 -90 -38t-38 -90zM1696 384h-192v640h192v-640z" />
</svg>