<svg xmlns="http://www.w3.org/2000/svg" xmlns:xlink="http://www.w3.org/1999/xlink" version="1.1" viewBox="-10 0 2058 2048">
   <path fill="currentColor"
d="M1580 0q117 0 156 64.5t13 195.5l-195 973q0 1 -1 5q-5 18 -7.5 27.5t-10 28.5t-15 30t-21.5 25.5t-30 22.5t-40 14t-52 6h-333q-11 0 -14.5 1.5t-12.5 11.5t-524 607q-18 21 -46 29.5t-49.5 7t-36.5 -7.5q-11 -5 -22 -12.5t-23.5 -21t-20 -36.5t-7.5 -51v-1735
q0 -30 10.5 -60t32.5 -59.5t62.5 -47.5t93.5 -18h1093zM1515 295q7 -28 -11 -48.5t-43 -20.5h-876q-28 0 -47 21t-19 45v1355q0 2 2.5 2.5t4.5 -1.5l358 -433q28 -33 47 -41.5t59 -8.5h293q27 0 46.5 -18t22.5 -36q2 -16 20.5 -113t24.5 -122q6 -27 -14 -50.5t-46 -23.5
h-361q-36 0 -59.5 -23t-23.5 -59v-52q0 -36 23.5 -58.5t59.5 -22.5h425q22 0 44 -16.5t25 -35.5z" />
</svg>