<svg xmlns="http://www.w3.org/2000/svg" xmlns:xlink="http://www.w3.org/1999/xlink" version="1.1" viewBox="-10 0 2058 2048">
   <path fill="currentColor"
d="M640 0h768q49 0 86 34t41 83l57 674q11 141 -43 269t-159 215.5t-238 118.5v399h192q52 0 89.5 37.5t37.5 90t-37.5 90t-89.5 37.5h-320h-320q-53 0 -90.5 -38t-37.5 -90t37.5 -89.5t90.5 -37.5h192v-399q-134 -31 -238.5 -118.5t-158.5 -215.5t-42 -269l56 -674
q3 -49 40 -83t87 -34zM711 813q-8 90 32.5 168.5t115.5 124.5t164.5 46t164.5 -46t115.5 -124.5t33.5 -168.5l-46 -557h-533z" />
</svg>