<svg xmlns="http://www.w3.org/2000/svg" xmlns:xlink="http://www.w3.org/1999/xlink" version="1.1" viewBox="-10 0 2068 2048">
   <path fill="currentColor"
d="M1228 139q34 -16 72 -9.5t66 31.5l640 576q42 39 42 96q0 55 -42 94l-640 576q-28 26 -65 32t-72.5 -10t-56 -47.5t-20.5 -69.5v-256h-384q-104 0 -192.5 51.5t-140 140t-51.5 192.5q0 143 88 227q40 38 40 78q0 32 -23 55.5t-55 23.5q-18 0 -32 -7q-23 -12 -47 -27.5
t-65.5 -49t-78 -72t-76.5 -97t-68.5 -122.5t-47.5 -150t-19 -179q0 -143 56 -273.5t150 -224.5t224.5 -150t273.5 -56h448v-256q0 -37 21 -69t55 -48z" />
</svg>