<svg xmlns="http://www.w3.org/2000/svg" xmlns:xlink="http://www.w3.org/1999/xlink" version="1.1" viewBox="-10 0 2068 2048">
   <path fill="currentColor"
d="M100 165h198q41 0 70.5 29t29.5 70v199q0 41 -29.5 69.5t-70.5 28.5h-198q-42 0 -71 -28.5t-29 -69.5v-199q0 -41 29 -70t71 -29zM728 231h1188q54 0 93 38.5t39 93.5t-39 93.5t-93 38.5h-1188q-55 0 -93.5 -38.5t-38.5 -93.5t38.5 -93.5t93.5 -38.5zM728 892h1188
q54 0 93 38.5t39 93.5t-39 93.5t-93 38.5h-1188q-55 0 -93.5 -38.5t-38.5 -93.5t38.5 -93.5t93.5 -38.5zM728 1552h1188q54 0 93 39t39 94t-39 93.5t-93 38.5h-1188q-55 0 -93.5 -38.5t-38.5 -93.5t38.5 -94t93.5 -39zM0 925q0 -41 29 -70t71 -29h198q41 0 70.5 29t29.5 70
v198q0 41 -29.5 70t-70.5 29h-198q-42 0 -71 -29t-29 -70v-198zM100 1486h198q41 0 70.5 29.5t29.5 70.5v198q0 41 -29.5 70t-70.5 29h-198q-42 0 -71 -29t-29 -70v-198q0 -41 29 -70.5t71 -29.5z" />
</svg>