<svg xmlns="http://www.w3.org/2000/svg" xmlns:xlink="http://www.w3.org/1999/xlink" version="1.1" viewBox="-10 0 2068 2048">
   <path fill="currentColor"
d="M27 157q0 -59 42.5 -101.5t101.5 -42.5h1733q59 0 101.5 42.5t42.5 101.5t-42.5 102t-101.5 43h-1733q-59 0 -101.5 -43t-42.5 -102zM893 735q0 -59 42.5 -102t101.5 -43h867q59 0 101.5 43t42.5 102t-42.5 102t-101.5 43h-867q-59 0 -101.5 -43t-42.5 -102zM1037 1168
h867q59 0 101.5 42.5t42.5 101.5t-42.5 102t-101.5 43h-867q-59 0 -101.5 -43t-42.5 -102t42.5 -101.5t101.5 -42.5zM27 1891q0 -59 42.5 -102t101.5 -43h1733q59 0 101.5 43t42.5 102t-42.5 101.5t-101.5 42.5h-1733q-59 0 -101.5 -42.5t-42.5 -101.5zM28 1080
q-28 -22 -28 -57t28 -57l460 -358q36 -28 76 -7.5t40 65.5v716q0 45 -40 64.5t-76 -8.5z" />
</svg>