<svg xmlns="http://www.w3.org/2000/svg" xmlns:xlink="http://www.w3.org/1999/xlink" version="1.1" viewBox="-10 0 2068 2048">
   <path fill="currentColor"
d="M1908 1559h-1768q-26 0 -26 21v135q0 58 42 99q42 40 102 40h1532q60 0 102 -40t42 -99v-135q0 -21 -26 -21zM1912 1189h-1776q-55 0 -96 44q-40 43 -40 103q0 65 40 108q41 44 96 44h1776q55 0 96 -44q40 -43 40 -108q0 -60 -40 -103q-41 -44 -96 -44zM136 969h1776
q22 0 22 -21v-4q0 -367 -270 -565q-244 -185 -640.5 -185t-639.5 185q-270 207 -270 569q0 21 22 21zM46 1142h1954q48 0 48 -46t-48 -46h-1954q-46 0 -46 46t46 46z" />
</svg>