<svg xmlns="http://www.w3.org/2000/svg" xmlns:xlink="http://www.w3.org/1999/xlink" version="1.1" viewBox="-10 0 2068 2048">
   <path fill="currentColor"
d="M1023.5 498q107.5 0 205 41.5t167.5 112t112 167.5t42 204.5t-42 205t-112 167.5t-167.5 112t-205 42t-204.5 -42t-167.5 -112t-112 -167.5t-41.5 -205t41.5 -204.5t112 -167.5t167.5 -112t204.5 -41.5zM1023.5 1366q92.5 0 171 -46t124 -125t45.5 -171.5t-45.5 -171
t-124 -123.5t-171 -45t-171 45t-123.5 123.5t-45 171t45 171.5t123.5 125t171 46zM1692 477.5q0 51.5 -35.5 87t-86 35.5t-86.5 -36t-36 -86.5t35.5 -86t87 -35.5t86.5 35t35 86.5zM2040 602q8 127 8 422t-8 422q-7 136 -44 240.5t-122 189.5t-189 122t-239 42
q-126 8 -422 8t-422 -8q-136 -7 -240.5 -43.5t-189.5 -120.5q-84 -85 -121.5 -190t-42.5 -240q-8 -127 -8 -422t8 -422q7 -136 43.5 -240.5t120.5 -189.5q85 -84 190.5 -121.5t239.5 -42.5q126 -8 422 -8t422 8q136 7 240 44t188 122q86 85 123.5 189.5t42.5 238.5z
M1822 1628q15 -39 24.5 -95.5t13 -139t4.5 -126.5t0.5 -142.5t-0.5 -101t0.5 -101t-0.5 -142t-4.5 -126t-13 -138.5t-24.5 -94q-27 -68 -78 -118.5t-118 -77.5q-38 -16 -95 -25.5t-137 -12.5t-128.5 -4t-140.5 -0.5t-101.5 0.5t-101.5 -0.5t-140 0.5t-128 4t-137 12.5
t-95 25.5q-68 26 -118.5 77t-77.5 119q-16 38 -25.5 95t-12.5 137t-4 128t-0.5 140t0.5 101.5t-0.5 102t0.5 140.5t4 128.5t12.5 137.5t25.5 96q26 67 77 117.5t119 78.5q38 15 95.5 24t135.5 12.5t129 4t139 0t102.5 -0.5t102.5 0.5t139 0t129 -4t136 -12.5t96 -24
q68 -27 118 -78t78 -118z" />
</svg>