<svg xmlns="http://www.w3.org/2000/svg" xmlns:xlink="http://www.w3.org/1999/xlink" version="1.1" viewBox="-10 0 2068 2048">
   <path fill="currentColor"
d="M1023.5 14q42.5 0 76 26t44.5 67l95 352l298 -208q36 -24 78 -22.5t75 28.5t42 68.5t-9 80.5l-154 331l363 31q42 3 73.5 32t39.5 71q9 42 -11.5 80.5t-59.5 56.5l-330 153l258 257q31 30 36.5 73t-16.5 80q-21 38 -60 53.5t-81 4.5l-352 -94l31 363q4 42 -18.5 78
t-62.5 50q-39 15 -80.5 2.5t-66.5 -47.5l-209 -299l-208 299q-24 35 -65 47.5t-81 -2.5q-39 -14 -62 -50t-20 -78l32 -363l-352 94q-41 11 -80.5 -4.5t-61.5 -53.5q-21 -37 -15.5 -80t35.5 -73l259 -257l-331 -153q-38 -18 -58 -56.5t-13 -80.5q8 -42 39.5 -71t73.5 -32
l363 -32l-154 -330q-18 -38 -8.5 -80.5t41.5 -69.5q33 -27 75.5 -28.5t77.5 22.5l298 209l94 -352q12 -41 45.5 -67t76 -26zM1023 627l-18 72q-8 29 -29 52t-49.5 33.5t-59.5 6t-56 -21.5l-59 -43l31 66q13 28 11.5 59.5t-17.5 58.5q-33 57 -98 61l-73 7l66 31
q28 13 47 37.5t24.5 54.5t-4 59.5t-31.5 51.5l-52 51l70 -18q64 -18 114 24q24 20 36 49t9 59l-7 72l42 -59q17 -25 45 -39.5t58.5 -14.5t57.5 14.5t44 39.5l43 59l-7 -72q-5 -66 44 -108q50 -42 114 -24l70 18l-52 -51q-21 -21 -30 -50.5t-3.5 -60t24 -55t45.5 -37.5
l66 -31l-72 -7q-30 -2 -56.5 -18t-42 -42.5t-16.5 -59t12 -59.5l30 -66l-59 43q-25 18 -56 22t-60 -7q-28 -10 -48.5 -32.5t-29.5 -52.5l-19 -72h1z" />
</svg>