<svg xmlns="http://www.w3.org/2000/svg" xmlns:xlink="http://www.w3.org/1999/xlink" version="1.1" viewBox="-10 0 2058 2048">
   <path fill="currentColor"
d="M520 1651l18 -41l124 54l-16 41zM682 1721l16 -39l126 54l-18 40zM1380 1664l124 -54l16 41l-124 54zM842 1792l18 -40l122 55l-18 40zM360 1580l18 -41l124 56l-18 38zM1218 1736l124 -54l18 39l-124 55zM1058 1807l124 -55l20 40l-126 55zM1540 1595l124 -56l18 41
l-124 53zM806 175v41h-136v-41h136zM614 175v41h-138v-41h138zM422 175v41h-136v-41h136zM996 175v41h-134v-41h134zM1380 175v41h-138v-41h138zM1572 175v41h-136v-41h136zM1188 175v41h-136v-41h136zM1762 175v41h-136v-41h136zM330 1410v137h-44v-137h44zM614 534v43
h-138v-43h138zM330 577v93h-44v-136h136v43h-92zM1016 1505q-100 0 -185.5 -50t-136 -135.5t-50.5 -185.5t50.5 -185t136 -135t185.5 -50t185 50t135 135t50 185t-50 185.5t-135 135.5t-185 50zM820 1054q0 42 23 66.5t58 30t76 8t76 2.5t58 11t23 36q0 19 -15 31.5
t-39 17.5t-42 7t-36 2q-47 0 -88 -13.5t-58 -46.5h-4l-36 75q79 49 192 49q33 0 65.5 -5.5t66 -18.5t54 -39.5t20.5 -62.5q0 -46 -23.5 -73t-59 -34.5t-76.5 -10t-76.5 -1t-59 -7t-23.5 -28.5q0 -19 13 -32t34 -18.5t39 -8t34 -2.5q42 0 85 12.5t61 40.5h2l36 -68
q-9 -3 -30 -12t-30 -12.5t-27 -9.5t-30 -8.5t-29 -5t-34 -2.5q-33 0 -65.5 6t-64.5 20t-51 40.5t-19 63.5zM330 709v136h-44v-136h44zM1718 1547v-137h44v137h-44zM330 1234v137h-44v-137h44zM116 0h1816v1648l-916 400l-900 -400v-1648zM1814 1572h2v-1097h-1582v1097
l782 347zM1814 356h2v-237h-1582v237h1580zM330 885v136h-44v-136h44zM330 1060v136h-44v-136h44zM806 534v43h-136v-43h136zM1718 1196v-136h44v136h-44zM1718 1021v-136h44v136h-44zM996 534v43h-134v-43h134zM1718 845v-135h44v135h-44zM1718 1372v-136h44v136h-44z
M1188 534v43h-136v-43h136zM1380 534v43h-138v-43h138zM1718 670l2 -93h-94v-43h136v136h-44zM1572 534v43h-136v-43h136z" />
</svg>