<svg xmlns="http://www.w3.org/2000/svg" xmlns:xlink="http://www.w3.org/1999/xlink" version="1.1" viewBox="-10 0 2068 2048">
   <path fill="currentColor"
d="M0 1024q0 -58 106 -109q116 -55 264 -80q164 -29 340 -34h62q126 0 252 13q148 12 244 42q101 22 160 50q56 25 82 59q34 26 34 59q0 32 -34 58q60 -26 84 -58q22 -34 18 -72q-12 -38 -76 -75q-58 -37 -146 -63q-7 0 -22 -4t-24 -9q-162 -34 -320 -46q-209 -12 -382 4
q180 -33 382 -33t382 33q178 26 272 76q98 47 110 96q8 17 8 21q0 26 -46 72q-50 39 -138 71q-112 35 -184 46q-148 19 -202 25q-126 9 -202 9t-202 -9q121 16 202 21q117 13 244 5q130 0 268 -21q125 -12 210 -42q22 -6 42 -13q123 -47 164 -92q45 -57 -10 -109
q106 51 106 109q0 55 -106 109q-103 53 -264 79q-164 29 -340 34h-62q-125 0 -252 -13q-151 -12 -242 -41q-98 -21 -160 -51q-58 -25 -84 -59q-34 -33 -34 -58q0 -34 34 -59q-58 25 -84 59q-21 32 -16 71q12 39 74 76q56 36 148 62l50 13q158 35 314 46q210 12 382 -4
q-185 34 -381.5 34t-382.5 -34q-178 -26 -272 -76q-98 -47 -110 -96q-8 -15 -8 -21q0 -34 46 -71q54 -41 140 -72q111 -35 184 -46q152 -20 200 -25q112 -8 202 -8t202 8q-122 -17 -202 -21q-110 -13 -242 -4q-132 0 -270 21q-126 12 -210 42l-42 12q-120 46 -162 93
q-43 59 8 109q-106 -51 -106 -109z" />
</svg>