<svg xmlns="http://www.w3.org/2000/svg" xmlns:xlink="http://www.w3.org/1999/xlink" version="1.1" viewBox="-10 0 2068 2048">
   <path fill="currentColor"
d="M1750 898q26 0 45 21t19 61h-130q0 -40 20 -61t46 -21zM1334 908q33 0 54.5 33.5t21.5 84.5t-21 84.5t-55 33.5q-36 0 -60 -24l-2 -188q24 -24 62 -24zM1878 228q70 0 120 50t50 120v1252q0 70 -50 120t-120 50h-1708q-70 0 -120 -50t-50 -120v-1252q0 -70 50 -120
t120 -50h1708zM434 1114q0 -42 -19.5 -71t-48 -42.5t-56.5 -22.5t-48 -19.5t-20 -26.5q0 -26 42 -26q66 0 126 32v-120q-60 -22 -126 -22q-77 0 -123.5 38.5t-46.5 105.5q0 38 20 65t48 40t56.5 22.5t48 21t19.5 27.5q0 32 -48 32q-64 0 -138 -42v122q65 28 138 28
q80 -1 128 -38.5t48 -103.5zM678 912v-108h-94v-110l-124 26v406q0 56 37 93t93 37q61 0 88 -18v-102q-8 4 -21.5 6.5t-31 2t-29.5 -14t-12 -38.5v-180h94zM942 920v-116q-12 -4 -28 -5.5t-40 8t-38 33.5l-6 -36h-110v442h126v-300q13 -17 34 -24.5t36 -6.5t26 5zM1098 1246
v-442h-126v442h126zM1098 738v-102l-126 26v104zM1362 1256q74 0 123 -59.5t49 -174.5q0 -104 -50 -165t-120 -61q-57 0 -100 40l-6 -32h-112v590l126 -28v-142q43 32 90 32zM1932 1074q0 -3 1 -21.5t1 -26.5q0 -100 -48 -165t-134 -65q-88 0 -141 65t-53 165
q0 111 57 170.5t153 59.5q80 0 138 -32v-102q-57 28 -124 28q-89 0 -96 -76h246z" />
</svg>