<svg xmlns="http://www.w3.org/2000/svg" xmlns:xlink="http://www.w3.org/1999/xlink" version="1.1" viewBox="-10 0 2058 2048">
   <path fill="currentColor"
d="M1828 1226q-19 -8 -52 -20v-364q33 -12 52 -20q78 -44 104 -139q25 -92 -20 -171q-45 -77 -138 -103q-94 -26 -172 20q-29 12 -46 38l-314 -186q10 -33 10 -54q0 -94 -70 -161q-67 -66 -158 -66t-158 66q-68 66 -68 161q0 25 8 54l-314 186q-17 -26 -46 -38
q-78 -46 -172 -20q-93 26 -138 103q-45 79 -20 171q26 95 104 139q19 8 52 20v364q-34 12 -52 20q-78 44 -104 139q-25 92 20 171q45 77 138 103q94 26 172 -20q29 -12 46 -38l314 182q-8 37 -8 58q0 95 68 161q67 66 158 66t158 -66q70 -67 70 -161q0 -21 -10 -54l314 -181
q23 22 46 33q78 46 172 20q93 -26 138 -103q45 -79 20 -171q-26 -95 -104 -139zM1180 1660q-66 -66 -156 -66q-82 0 -156 66l-314 -182q20 -93 -26 -169q-44 -82 -136 -103v-364q95 -28 136 -103q46 -76 26 -169l314 -182q66 66 156 66q98 0 156 -66l314 182q-20 93 26 169
q44 82 136 103v364q-92 21 -136 103q-46 76 -26 169z" />
</svg>