<svg xmlns="http://www.w3.org/2000/svg" xmlns:xlink="http://www.w3.org/1999/xlink" version="1.1" viewBox="-10 0 2068 2048">
   <path fill="currentColor"
d="M662 1032q0 32 -22.5 54t-55.5 22q-25 0 -40.5 -14t-15.5 -40q0 -32 22 -55t54 -23q26 0 42 15t16 41zM286 860q36 0 52 10t10 42q-4 31 -23 40.5t-53 9.5l-28 2l14 -96q2 -8 12 -8h16zM1296 860q14 0 23 0.5t20 4t16 12t5 21.5q0 37 -20 50.5t-58 13.5l-28 2l14 -96
q1 -8 12 -8h16zM2048 398v1252q0 70 -50 120t-120 50h-1708q-70 0 -120 -50t-50 -120v-1252q0 -70 50 -120t120 -50h1708q70 0 120 50t50 120zM456 880q0 -53 -34 -76.5t-88 -23.5h-142q-8 0 -13.5 4.5t-6.5 11.5l-58 364q0 5 3 9.5t9 4.5h66q8 0 14 -6.5t6 -13.5l16 -96
q2 -7 7 -11t13.5 -5t15.5 -1t16.5 0.5t13.5 0.5q76 0 119 -43t43 -119zM756 910h-68q-3 0 -5 1.5t-3.5 3.5t-2.5 4t-1.5 5.5t-1 5.5t-0.5 6v4q-24 -36 -86 -36q-64 0 -108 48.5t-44 113.5q0 51 30.5 82.5t81.5 31.5q25 0 51.5 -12t42.5 -30q-4 12 -4 22q0 14 12 14h60
q8 0 13.5 -6.5t6.5 -15.5l36 -228q1 -5 -2 -9.5t-8 -4.5zM900 1258l226 -328q2 -2 2 -6q0 -5 -4 -8.5t-8 -3.5h-68q-10 0 -16 8l-94 138l-40 -132q-5 -14 -18 -14h-68q-4 0 -7 3.5t-3 8.5q0 1 17.5 52t36.5 106t22 62q-15 19 -44.5 62t-29.5 50q0 12 12 12h68q9 0 16 -10z
M1466 880q0 -53 -34.5 -76.5t-89.5 -23.5h-140q-19 0 -20 16l-58 364q0 5 3 9.5t9 4.5h72q10 0 14 -12l16 -104q2 -9 10.5 -13t16.5 -4.5t21.5 0.5t15.5 1q76 0 120 -43t44 -119zM1764 910h-66q-14 0 -16 30q-23 -36 -84 -36q-64 0 -109 48.5t-45 113.5q0 51 30.5 82.5
t81.5 31.5q26 0 52.5 -12t41.5 -30q-2 17 -2 22q0 14 10 14h62q8 0 13 -6.5t7 -15.5l36 -228q1 -5 -2.5 -9.5t-9.5 -4.5zM1934 792q0 -12 -12 -12h-66q-9 0 -10 10l-58 370h-2q0 6 4 10t10 4h58q6 0 12 -7t6 -15l58 -358v-2zM1614 976q25 0 41.5 15t16.5 41q0 31 -23 53.5
t-55 22.5q-25 0 -41.5 -14t-16.5 -40q0 -32 22.5 -55t55.5 -23z" />
</svg>