<svg xmlns="http://www.w3.org/2000/svg" xmlns:xlink="http://www.w3.org/1999/xlink" version="1.1" viewBox="-10 0 2068 2048">
   <path fill="currentColor"
d="M768 0q33 0 61 18t40.5 49t6 64t-29.5 56l-182 183l360 362l362 -362l-184 -183q-23 -23 -29.5 -56t6 -64t40.5 -49t61 -18h658q46 0 78 31.5t32 77.5v659q0 34 -18.5 61t-49 40t-63.5 6.5t-57 -29.5l-182 -184l-360 362l360 361l182 -183q24 -23 57 -29.5t63.5 6.5
t49 40t18.5 61v658q0 46 -32 78t-78 32h-658q-33 0 -61 -18.5t-40.5 -49.5t-6 -63.5t29.5 -55.5l184 -183l-362 -362l-360 362l182 183q23 23 29.5 55.5t-6 63.5t-40.5 49.5t-61 18.5h-658q-45 0 -77.5 -32t-32.5 -78v-658q0 -34 19 -61t49 -40q31 -13 64 -6.5t56 29.5
l182 183l362 -361l-362 -362l-182 184q-23 23 -56 29.5t-64 -6.5q-30 -13 -49 -40t-19 -61v-659q0 -46 32.5 -77.5t77.5 -31.5h658z" />
</svg>