<svg xmlns="http://www.w3.org/2000/svg" xmlns:xlink="http://www.w3.org/1999/xlink" version="1.1" viewBox="-10 0 2058 2048">
   <path fill="currentColor"
d="M1949 1q20 -5 34.5 8t14 32.5t-17.5 30.5q-126 85 -225 174.5t-157.5 163.5t-99.5 150t-57.5 127.5t-25.5 102.5q-24 137 -55 241.5t-67 173t-75.5 117.5t-86 82t-93.5 58t-102 54.5t-108.5 63.5t-116 91.5t-120.5 132.5q182 106 391 106q161 0 308 -63t253 -169
t169 -253t63 -309q0 -148 -53 -283.5t-148 -242.5q30 -62 76 -123q124 128 194 296t70 352v1q0 127 -33.5 247.5t-93.5 223t-146.5 188.5t-188.5 146t-223 93.5t-247.5 33.5t-247 -33.5t-222.5 -93.5t-188 -146t-146 -188.5t-93.5 -223t-33.5 -247t33.5 -247.5t93.5 -223
t146 -188t188 -146t222.5 -93.5t247.5 -33.5q245 0 454 118q147 -124 281.5 -201t231.5 -101zM468 1718q214 -466 423 -784.5t435 -530.5q-162 -80 -344 -80q-161 0 -308 63t-253.5 169t-169 253t-62.5 308q0 177 74 333.5t205 268.5z" />
</svg>