<svg xmlns="http://www.w3.org/2000/svg" xmlns:xlink="http://www.w3.org/1999/xlink" version="1.1" viewBox="-11 0 2069 2048">
   <path fill="currentColor"
d="M681 0q181 13 352 69t316.5 146t269.5 214t214 270t146 317t68 351q5 67 -35 120.5t-104 69.5l-177 47v-5q0 -174 -46 -340t-128.5 -306.5t-201 -259t-259 -201.5t-306.5 -129.5t-340 -46.5h-7l47 -178q18 -63 71 -103t120 -35zM1602 1639l-1521 406q-34 11 -62 -17
q-27 -27 -16 -62l406 -1521q7 0 20.5 -0.5t20.5 -0.5q157 0 306.5 42t276 116.5t233 181t180.5 233t115.5 276.5t41.5 306q0 7 -0.5 20t-0.5 20zM706.5 829q-52.5 0 -90.5 38t-38 91.5t37.5 90.5t90.5 37t90.5 -37t37.5 -90.5t-37.5 -91.5t-90 -38zM962 1342.5
q0 53.5 37.5 90.5t90.5 37t90.5 -37t37.5 -90.5t-37.5 -91t-90.5 -37.5t-90.5 37.5t-37.5 91zM385 1535q0 53 38 90.5t91 37.5t90.5 -37.5t37.5 -91t-37.5 -91t-90.5 -37.5t-91 38t-38 91z" />
</svg>