<svg xmlns="http://www.w3.org/2000/svg" xmlns:xlink="http://www.w3.org/1999/xlink" version="1.1" viewBox="-10 0 2067 2048">
   <path fill="currentColor"
d="M1022 0q215 0 406 80.5t326.5 217.5t214 326.5t78.5 399.5q0 178 -55 339t-152 284.5t-225.5 214.5t-280.5 138.5t-312 47.5q-204 0 -392 -80.5t-326 -216.5t-220.5 -326.5t-82.5 -400.5q0 -163 49 -317t141 -281t216 -223t283 -149.5t332 -53.5zM1026 184
q-178 0 -336 70.5t-268 186.5t-173.5 268.5t-63.5 314.5q0 134 42.5 260.5t120.5 230t181 182t231.5 121.5t265.5 43q106 0 210 -27.5t196.5 -77.5t171.5 -125.5t136.5 -166.5t90 -204t32.5 -236q0 -173 -66 -329t-178 -268t-266.5 -177.5t-326.5 -65.5zM1025 435
q97 0 173 36t122 93t75.5 136.5t40.5 158t11 165.5t-11 165.5t-40.5 158t-75.5 136.5t-122 93t-173 36t-173 -36t-122.5 -93t-76 -136t-41 -158t-11.5 -166t11.5 -166t41 -158t76 -136t122.5 -93t173 -36zM1025 657q-183 0 -183 367q0 81 8 142l225 -414q31 -53 -13 -90
q-18 -5 -37 -5zM1192 847l-251 435q-34 52 -1.5 80t85.5 28q182 0 182 -366q0 -97 -15 -177z" />
</svg>