<svg xmlns="http://www.w3.org/2000/svg" xmlns:xlink="http://www.w3.org/1999/xlink" version="1.1" viewBox="-10 0 2067 2048">
   <path fill="currentColor"
d="M1025 0q208 0 397.5 81t326 218t217.5 326.5t81 398.5t-81 398.5t-217.5 326.5t-326 218t-397.5 81t-397.5 -81t-327 -218t-218.5 -327t-81 -398t81 -398t218.5 -327t327 -218t397.5 -81zM1674 1731l-419 -490q304 -2 306 -2q44 1 79.5 -21.5t52.5 -57t13.5 -76.5
t-31.5 -76l-650 -763q-42 -55 -111.5 -55.5t-114.5 55.5l-607 712h372l348 -410l348 411h-310q-45 0 -80 24.5t-50.5 59.5t-11 75.5t31.5 71.5l463 542h371z" />
</svg>