<svg xmlns="http://www.w3.org/2000/svg" xmlns:xlink="http://www.w3.org/1999/xlink" version="1.1" viewBox="-10 0 2068 2048">
   <path fill="currentColor"
d="M704 96v160h224v-160q0 -40 28.5 -68t68 -28t67.5 28t28 68v160h224v-160q0 -40 28 -68t67.5 -28t68 28t28.5 68v160q106 0 181 75t75 181h160q40 0 68 28t28 68t-28 68t-68 28h-160v224h160q40 0 68 28t28 68t-28 68t-68 28h-160v224h160q40 0 68 28t28 68t-28 68
t-68 28h-160q0 106 -75 181.5t-181 75.5v159q0 40 -28.5 68t-68 28t-67.5 -28t-28 -68v-159h-224v159q0 40 -28 68t-67.5 28t-68 -28t-28.5 -68v-159h-224v159q0 40 -28 68t-67.5 28t-68 -28t-28.5 -68v-159q-105 0 -180.5 -75.5t-75.5 -181.5h-160q-39 0 -67.5 -28
t-28.5 -68t28.5 -68t67.5 -28h160v-224h-160q-39 0 -67.5 -28t-28.5 -68t28.5 -68t67.5 -28h160v-224h-160q-39 0 -67.5 -28t-28.5 -68t28.5 -68t67.5 -28h160q0 -106 75.5 -181t180.5 -75v-160q0 -40 28.5 -68t68 -28t67.5 28t28 68zM640 512q-52 0 -90 38t-38 90v768
q0 52 38 90t90 38h768q53 0 90.5 -38t37.5 -90v-768q0 -52 -37.5 -90t-90.5 -38h-768zM1408 640v768h-768v-768h768z" />
</svg>