<svg xmlns="http://www.w3.org/2000/svg" xmlns:xlink="http://www.w3.org/1999/xlink" version="1.1" viewBox="-10 0 2068 2048">
   <path fill="currentColor"
d="M518 195q10 -11 24 -19q123 -66 257.5 -96t264.5 -25t257.5 44t238.5 107t206 167.5t160 222.5q71 132 101 280t16 297q-75 563 -616 766q-197 74 -455 47q-57 -6 -142 -24l91 4q379 13 644 -198q285 -225 332 -573q19 -135 -3 -267.5t-81.5 -247t-147.5 -209.5
t-205 -161t-251 -94q-219 -47 -434 19q-14 4 -24 12q-184 180 -274 419q147 25 244 138.5t97 264.5q0 111 -54.5 205.5t-149 149t-205 54.5t-205 -54.5t-149.5 -149t-55 -205.5q0 -126 70.5 -228t183.5 -149v-2q79 -274 264 -495zM1110 1698q12 -23 21 -28q59 -32 47 -95
q-4 -19 11 -35q28 -35 13 -68l-13 -51l72 -32q17 -7 39 -24q30 -23 35 -48.5t-11 -57.5l-111 -206l-28 -67q-6 -23 17 -39q65 -58 51 -159q-30 -242 -162 -407l-19 -24q-15 -15 -21 -23q394 25 593 327q252 389 24 788q-53 93 -128.5 165t-158 114.5t-165 64t-161.5 23.5
q19 -17 30.5 -38.5t15.5 -37t9 -42.5zM605 1685l130 8q20 3 44 -4q71 -26 71 -91q0 -41 43 -66q34 -10 8 -40l-15 -16l-19 -16l47 -11q28 -10 15 -40q-6 -10 -8 -16q-11 -38 -3 -54.5t43 -24.5q29 -10 48 -21.5t35 -33.5l-64 -111q-36 -72 -63 -147q-18 -52 27 -79
q36 -24 28 -83q-12 -121 -52 -215.5t-121 -163.5q-17 -17 -65 -45l-22 -14l134 -48q34 -10 64 16q157 144 193 360q11 68 12 115q0 35 -32 62q-45 30 -32 91q12 57 59 141q2 4 6.5 11t6.5 10l63 115q11 21 -4 32q-28 28 -83 47q-38 8 -45 19t1 52q6 21 12 36q7 18 3 28
t-22 16l-51 15l35 32q18 18 15.5 28.5t-24.5 22.5q-40 16 -47 68q-8 68 -54 98.5t-115 16.5q-88 -24 -202 -100z" />
</svg>