<svg xmlns="http://www.w3.org/2000/svg" xmlns:xlink="http://www.w3.org/1999/xlink" version="1.1" viewBox="-10 0 2068 2048">
   <path fill="currentColor"
d="M662 384q-40 0 -74 24t-48 62l-104 299h1176l-104 -299q-14 -38 -47.5 -62t-74.5 -24h-724zM300 385q40 -116 140 -186.5t222 -70.5h724q123 0 222.5 70.5t139.5 186.5l142 402q70 29 114 93.5t44 143.5v320q0 70 -35 129.5t-93 92.5v227q0 52 -38 89.5t-90 37.5h-128
q-52 0 -90 -37.5t-38 -89.5v-192h-1024v192q0 52 -38 89.5t-90 37.5h-128q-52 0 -90 -37.5t-38 -89.5v-227q-58 -33 -93 -92.5t-35 -129.5v-320q0 -79 44 -143.5t114 -93.5zM832 1088q-26 0 -45 19t-19 45v128q0 26 19 45t45 19h384q26 0 45 -19t19 -45v-128q0 -26 -19 -45
t-45 -19h-384zM192 1120q0 40 28.5 68t67.5 28h128q40 0 68 -28t28 -68t-28 -68t-68 -28h-128q-39 0 -67.5 28t-28.5 68zM1632 1024q-40 0 -68 28t-28 68t28 68t68 28h128q40 0 68 -28t28 -68t-28 -68t-68 -28h-128z" />
</svg>