<svg xmlns="http://www.w3.org/2000/svg" xmlns:xlink="http://www.w3.org/1999/xlink" version="1.1" viewBox="-11 0 2069 2048">
   <path fill="currentColor"
d="M1904 883h-527q-32 0 -58.5 -18t-39.5 -48q-13 -29 -6.5 -61t29.5 -55l182 -182q-102 -100 -233.5 -151.5t-264.5 -51t-264 53.5t-232 154q-102 102 -155 234t-53 265.5t53 265t154.5 233.5t234 155t266 53t265.5 -53t234 -155q41 -41 99 -41t99.5 41t41.5 100.5
t-41 100.5q-142 142 -327 216t-372 74t-372 -74t-327 -216t-216.5 -327t-74.5 -372t74.5 -372t216.5 -327t326 -216t370 -74.5t370 72.5t327 213l184 -183q23 -23 54.5 -29.5t61.5 5.5q29 13 47 39.5t18 58.5v565q0 45 -30.5 76t-74.5 31h-39z" />
</svg>