<svg xmlns="http://www.w3.org/2000/svg" xmlns:xlink="http://www.w3.org/1999/xlink" version="1.1" viewBox="-10 0 2068 2048">
   <path fill="currentColor"
d="M1896 163l-1816 714q-7 4 -22.5 10t-36.5 27t-21 46q5 26 24 45q16 16 36 27l20 8l446 147v9l36 117q15 50 76 250q42 136 54 174q30 92 56 92h12v-4l38 -13l298 -268l456 352q64 21 102 9q38 -13 54 -38l16 -29l324 -1633q0 -51 -38 -61q-37 -11 -76 2zM1670 532
l-860 777v4h-4l-12 17l-50 470q-18 -18 -34 -72q-34 -117 -160 -516l-4 -25l1086 -692q64 -38 64 0q7 7 -26 37z" />
</svg>