<svg xmlns="http://www.w3.org/2000/svg" xmlns:xlink="http://www.w3.org/1999/xlink" version="1.1" viewBox="-10 0 2068 2048">
   <path fill="currentColor"
d="M716.5 1024q-111.5 0 -205.5 -55t-148.5 -149.5t-54.5 -205.5t54.5 -205.5t148.5 -149t205.5 -54.5t206 54.5t149 149t54.5 205.5t-54.5 205.5t-149 149.5t-206 55zM570 1177h294q102 0 196 35t170 99q-2 7 -2 20v410q0 53 28 102h-1160q-40 0 -68 -27.5t-28 -67.5
q0 -116 45.5 -221.5t121.5 -182t181.5 -122t221.5 -45.5zM1689.5 973q-42.5 0 -73 30t-30.5 72v154h206v-154q0 -42 -30 -72t-72.5 -30zM1434 1075q0 -106 75 -181t180.5 -75t181 75t75.5 181v154q42 0 72 30t30 72v410q0 42 -30 72t-72 30h-512q-42 0 -72 -30t-30 -72v-410
q0 -42 30 -72t72 -30v-154z" />
</svg>