<svg xmlns="http://www.w3.org/2000/svg" xmlns:xlink="http://www.w3.org/1999/xlink" version="1.1" viewBox="-11 0 2069 2048">
   <path fill="currentColor"
d="M1564 600l-75 -76q-102 -101 -234 -154t-265.5 -53t-266 53t-234 154.5t-154.5 233.5t-53 265.5t53 265.5t154.5 233.5t234 154.5t266 53t265.5 -53t234 -155q41 -41 99 -41t99.5 41.5t41.5 100.5t-41 100q-142 142 -327 216.5t-372 74.5t-372 -74.5t-327 -216.5
t-216.5 -327t-74.5 -372t74.5 -372t216.5 -327t327 -216t372 -74t372 74t327 216l78 77v-226q0 -58 41 -99.5t99.5 -41.5t100 41.5t41.5 99.5v566q0 59 -41.5 100t-99.5 41h-564q-59 0 -100.5 -41t-41.5 -99.5t41.5 -100.5t100.5 -42h221z" />
</svg>