<svg xmlns="http://www.w3.org/2000/svg" xmlns:xlink="http://www.w3.org/1999/xlink" version="1.1" viewBox="-10 0 2068 2048">
   <path fill="currentColor"
d="M124 220l470 369q90 -70 201.5 -90.5t220 13t190.5 115.5q103 103 129 245t-33 271l102 80l308 -307q75 -75 75 -182t-75 -183q-67 -67 -161.5 -74.5t-172.5 47.5l-4 3q-35 25 -77 18.5t-66.5 -41t-17.5 -76.5t41 -67l6 -4q138 -99 306.5 -84.5t289.5 134.5
q66 67 101 153.5t35 174t-35 174t-101 152.5l-290 290l452 355q25 20 29 52t-15.5 56.5t-51 28.5t-56.5 -16l-1894 -1485q-25 -19 -29 -51t15.5 -57t51.5 -29t56 15zM764 723l368 287q13 -64 -5 -127t-65 -111q-60 -60 -143 -72.5t-155 23.5zM374 805l162 128l-198 198
q-75 76 -75 183t75 182q67 67 161 75.5t171 -47.5l6 -3q34 -24 75.5 -17.5t66 41t18 76.5t-41.5 66l-4 4q-139 99 -308 84.5t-290 -134.5q-66 -66 -101 -152.5t-35 -174t35 -174t101 -153.5zM708 1069l594 468q-116 37 -242 6.5t-218 -122.5q-71 -70 -105.5 -162.5
t-28.5 -189.5z" />
</svg>