<svg xmlns="http://www.w3.org/2000/svg" xmlns:xlink="http://www.w3.org/1999/xlink" version="1.1" viewBox="-10 0 2068 2048">
   <path fill="currentColor"
d="M2048 384q0 57 -26.5 130.5t-63 139.5t-86.5 138.5t-87.5 120.5t-74.5 91q-24 26 -58 20h-372q-52 0 -90 38t-38 90t38 90t90 38h384q105 0 193 51.5t139.5 140.5t51.5 193t-51.5 192.5t-139.5 139.5t-193 51h-1106q59 -66 120 -147q47 -64 76 -108h910q53 0 90.5 -37.5
t37.5 -90.5t-37.5 -91t-90.5 -38h-384q-104 0 -192.5 -51.5t-140 -140t-51.5 -192.5t51.5 -192.5t140 -139.5t192.5 -51h158q-158 -237 -158 -385q0 -104 51.5 -192.5t140 -140t193 -51.5t192.5 51.5t139.5 140t51.5 192.5zM468 1957q-33 38 -40 45l-8 8v-1q-17 14 -40 12
t-40 -19q-37 -40 -74.5 -84.5t-87.5 -113t-87.5 -132t-64 -135.5t-26.5 -129q0 -104 51.5 -192.5t139.5 -140t192.5 -51.5t193 51.5t140 140t51.5 192.5q0 152 -174 392q-60 83 -122 154zM512 1408q0 -52 -38 -90t-90.5 -38t-90 37.5t-37.5 90.5t37.5 90.5t90 37.5t90.5 -38
t38 -90zM1664.5 512q52.5 0 90 -37.5t37.5 -90.5t-37.5 -90.5t-90 -37.5t-90.5 38t-38 90t38 90t90.5 38z" />
</svg>