<svg xmlns="http://www.w3.org/2000/svg" xmlns:xlink="http://www.w3.org/1999/xlink" version="1.1" viewBox="-10 0 2058 2048">
   <path fill="currentColor"
d="M1472 192h-1152q-27 0 -45.5 19t-18.5 45v1537q0 26 18.5 45t45.5 19h1152q27 0 45.5 -19t18.5 -45v-1537q0 -26 -18.5 -45t-45.5 -19zM320 0h1152q106 0 181 75t75 181v1537q0 106 -75 180.5t-181 74.5h-1152q-106 0 -181 -74.5t-75 -180.5v-1537q0 -106 75 -181
t181 -75zM896.5 1024q-105.5 0 -181 -74.5t-75.5 -180.5t75.5 -181.5t181 -75.5t180.5 75.5t75 181.5t-75 180.5t-180.5 74.5zM768 1152h256q87 0 160.5 43t116.5 116.5t43 160.5q0 26 -18.5 45t-45.5 19h-768q-26 0 -45 -19t-19 -45q0 -133 94 -226.5t226 -93.5zM1984 320
v256q0 26 -19 45t-45.5 19t-45 -19t-18.5 -45v-256q0 -26 18.5 -45t45 -19t45.5 19t19 45zM1919.5 769q26.5 0 45.5 19t19 45v255q0 26 -19 45t-45.5 19t-45 -19t-18.5 -45v-255q0 -26 18.5 -45t45 -19zM1984 1344v257q0 26 -19 45t-45.5 19t-45 -19t-18.5 -45v-257
q0 -26 18.5 -45t45 -19t45.5 19t19 45z" />
</svg>