<svg xmlns="http://www.w3.org/2000/svg" xmlns:xlink="http://www.w3.org/1999/xlink" version="1.1" viewBox="-10 0 2068 2048">
   <path fill="currentColor"
d="M1558 744q-58 0 -98 40t-40 98v92q0 54 40 94t98 40h322v-364h-322zM1651 995q-67 0 -67 -67q0 -30 18 -50q20 -21 48.5 -21t47.5 21q20 20 20 50q0 67 -67 67zM1780 251h-1546q-95 0 -164 71q-70 70 -70 167v1137q0 72 48 121q49 50 120 50h1546q70 0 118 -50
q48 -49 48 -121v-447h-322q-82 0 -143 -61t-61 -144v-92q0 -83 61 -144t143 -61h322v-121q0 -54 -40 -94t-94 -40h-1546q-32 0 -32 -33q0 -34 32 -34h1546q84 0 143 59t59 142v1028q100 -70 100 -192v-870q0 -113 -79 -192t-189 -79zM1558 744q-58 0 -98 40t-40 98v92
q0 54 40 94t98 40h322v-364h-322zM1651 995q-67 0 -67 -67q0 -30 18 -50q20 -21 48.5 -21t47.5 21q20 20 20 50q0 67 -67 67zM1558 744q-58 0 -98 40t-40 98v92q0 54 40 94t98 40h322v-364h-322zM1651 995q-67 0 -67 -67q0 -30 18 -50q20 -21 48.5 -21t47.5 21q20 20 20 50
q0 67 -67 67z" />
</svg>