<svg xmlns="http://www.w3.org/2000/svg" xmlns:xlink="http://www.w3.org/1999/xlink" version="1.1" viewBox="-10 0 2063 2048">
   <path fill="currentColor"
d="M645 1061v-357q0 -143 56 -273.5t150 -225t224.5 -150t273.5 -55.5q128 0 246 44.5t208.5 121.5t153.5 184t84 229q7 34 -22 56t-66 14q-38 -9 -93 -9q-91 0 -174 35.5t-142.5 95.5t-95 143t-35.5 174q0 114 53 212q19 31 5.5 66t-48.5 38q-33 4 -74 4h-357q-52 0 -90 38
l-107 107q-64 63 -30 197q8 36 8 59q0 99 -70.5 169t-170 70t-169.5 -70t-70 -169q0 -19 -14.5 -34t-33.5 -15q-99 0 -169.5 -70t-70.5 -169t71 -170t169 -71q22 0 58 8q134 34 197 -30l107 -107q38 -38 38 -90z" />
</svg>