<svg xmlns="http://www.w3.org/2000/svg" xmlns:xlink="http://www.w3.org/1999/xlink" version="1.1" viewBox="-10 0 2068 2048">
   <path fill="currentColor"
d="M0 1024q0 -139 37 -272t103 -245.5t160.5 -207t207 -160t245 -102.5t272 -37t272 37t244.5 102.5t206.5 160t160.5 207t103 245.5t37 272t-37 272t-103 245.5t-160.5 207t-206.5 160t-244.5 102.5t-272 37t-272 -37t-245 -102.5t-207 -160t-160.5 -207t-103 -245.5
t-37 -272zM1152 384q0 -53 -37.5 -90.5t-90 -37.5t-90.5 38t-38 90t38 90t90.5 38t90 -37.5t37.5 -90.5zM1024.5 1665q105.5 0 180.5 -75.5t75 -181.5q0 -103 -72 -178l256 -583q16 -37 1.5 -73.5t-51 -53t-73 -2.5t-53.5 51l-256 583h-8q-105 0 -180.5 75t-75.5 181
t75.5 181.5t181 75.5zM704 576q0 -52 -37.5 -90t-90 -38t-90.5 38t-38 90t38 90t90.5 38t90 -38t37.5 -90zM383.5 1152q52.5 0 90.5 -38t38 -90t-38 -90t-90.5 -38t-90 37.5t-37.5 90.5t37.5 90.5t90 37.5zM1792 1024q0 -53 -37.5 -90.5t-90 -37.5t-90.5 38t-38 90t38 90
t90.5 38t90 -37.5t37.5 -90.5z" />
</svg>