<svg xmlns="http://www.w3.org/2000/svg" xmlns:xlink="http://www.w3.org/1999/xlink" version="1.1" viewBox="-10 0 2068 2048">
   <path fill="currentColor"
d="M1864 110q77 0 130.5 54t53.5 132v618q0 140 -37 273t-102.5 245.5t-159.5 207t-206 160t-245 102t-272 36.5q-141 0 -274 -36.5t-245.5 -102t-207 -160t-160 -207t-102.5 -245.5t-37 -273v-618q0 -77 55.5 -131.5t130.5 -54.5h1678zM1124 1336q113 -109 271 -259
q185 -176 219 -216t34 -87q0 -58 -42 -99t-100 -41q-44 0 -78.5 25.5t-180.5 168.5q-128 124 -221 214q-85 -82 -206 -199q-155 -152 -193 -180.5t-83 -28.5q-58 0 -99 41t-41 99q0 48 32.5 87.5t222.5 219.5q158 148 269 255q39 39 95.5 39.5t100.5 -39.5z" />
</svg>