<svg xmlns="http://www.w3.org/2000/svg" xmlns:xlink="http://www.w3.org/1999/xlink" version="1.1" viewBox="-10 0 2068 2048">
   <path fill="currentColor"
d="M1736 375q363 534 303 1166q0 3 -3 4q-236 175 -512 259h-2q-5 0 -6 -3q-54 -75 -104 -170v-3q0 -5 4 -6q77 -29 160 -76q3 -2 3 -5q0 -5 -3 -6q-5 -4 -16 -12.5t-16 -12.5q-1 -1 -4 -1q-1 0 -2 0.5l-1 0.5q-248 115 -512.5 115t-515.5 -115q-1 0 -1.5 -0.5l-0.5 -0.5
q-4 0 -5 1q-5 4 -15.5 12.5t-15.5 12.5q-3 1 -3 6q0 3 3 5q83 47 160 76q4 1 4 6l-0.5 1t-0.5 2q-48 94 -104 170q-2 3 -5 3h-2q-274 -84 -511 -259q-3 -1 -3 -4q-28 -301 42 -591t261 -575l2 -2q203 -92 417 -129h1q4 0 6 3q27 46 53 106q124 -18 231 -18q112 0 236 18
q19 -47 52 -106q1 -3 6 -3h1q212 37 416 129q0 1 1 1t2 1zM685 1308q77 0 130.5 -60.5t53.5 -146.5q1 -85 -52.5 -145.5t-131.5 -60.5q-77 0 -131 60t-54 146q0 85 54.5 146t130.5 61zM1365 1308q78 0 131 -60.5t53 -146.5q1 -85 -52.5 -145.5t-131.5 -60.5q-77 0 -130.5 60
t-53.5 146q0 85 54 146t130 61z" />
</svg>