<svg xmlns="http://www.w3.org/2000/svg" xmlns:xlink="http://www.w3.org/1999/xlink" version="1.1" viewBox="-10 0 2058 2048">
   <path fill="currentColor"
d="M448 1793q0 26 19 45t45 19h1024q26 0 45 -19t19 -45v-1153h-320q-52 0 -90 -38t-38 -90v-320h-640q-26 0 -45 19t-19 45v1537zM512 0h661q106 0 181 75l363 362q75 75 75 181v1175q0 106 -75 180.5t-181 74.5h-1024q-106 0 -181 -74.5t-75 -180.5v-1537q0 -106 75 -181
t181 -75zM876 933l148 191l148 -191q24 -32 63.5 -37t71.5 20q31 25 35.5 64.5t-19.5 70.5l-178 229l179 229q24 31 19 70.5t-36 64.5q-32 25 -71.5 20t-63.5 -37l-148 -190l-148 191q-24 31 -64 36t-71 -20t-36 -64t19 -70l179 -230l-179 -229q-24 -31 -19 -70t36 -64
t71 -20t64 36z" />
</svg>