<svg xmlns="http://www.w3.org/2000/svg" xmlns:xlink="http://www.w3.org/1999/xlink" version="1.1" viewBox="-10 0 2058 2048">
   <path fill="currentColor"
d="M1792 256v1537q0 106 -75 180.5t-181 74.5h-1024q-106 0 -181 -74.5t-75 -180.5v-1537q0 -106 75 -181t181 -75h1024q106 0 181 75t75 181zM768 769q0 106 75 180.5t181 74.5t181 -74.5t75 -180.5t-75 -181.5t-181 -75.5t-181 75.5t-75 181.5zM576 1426q0 46 32 78t78 32
h677q46 0 77.5 -32t31.5 -78q0 -114 -80 -194t-194 -80h-347q-114 0 -194.5 80t-80.5 194z" />
</svg>