<svg xmlns="http://www.w3.org/2000/svg" xmlns:xlink="http://www.w3.org/1999/xlink" version="1.1" viewBox="-10 0 2058 2048">
   <path fill="currentColor"
d="M512 1857h1024q26 0 45 -19t19 -45v-1153h-320q-52 0 -90 -38t-38 -90v-320h-640q-26 0 -45 19t-19 45v1537q0 26 19 45t45 19zM512 0h661q106 0 181 75l363 362q75 75 75 181v1175q0 106 -75 180.5t-181 74.5h-1024q-106 0 -181 -74.5t-75 -180.5v-1537q0 -106 75 -181
t181 -75zM896 1024q0 52 -38 90t-90 38q-53 0 -91 -38t-38 -90t38 -90t91 -38q52 0 90 38t38 90zM1172 1212l288 416q22 32 5 66t-58 34h-287h-160h-128h-193q-38 0 -55 -33q-18 -34 1 -65l161 -256q20 -30 54 -30t54 30l48 76l165 -238q19 -27 53 -27q33 0 52 27z" />
</svg>