<svg xmlns="http://www.w3.org/2000/svg" xmlns:xlink="http://www.w3.org/1999/xlink" version="1.1" viewBox="-10 0 2067 2048">
   <path fill="currentColor"
d="M1763 1000v-26q0 -109 -77.5 -186.5t-186.5 -77.5h-26h-449h-53v52v238q0 55 -38.5 93.5t-93.5 38.5t-93.5 -38.5t-38.5 -93.5v-396h2q10 -89 77.5 -149.5t158.5 -60.5h369q10 0 28 2l132 -134q54 -54 131 -54t131 54l257 258q54 54 54 131t-54 131l-230 230v-12z
M1077 816h396q77 0 130.5 54t53.5 130v2q0 66 -42 117t-106 63q43 47 43 110q0 66 -46.5 112t-112.5 46h-8q8 26 8 52q0 67 -46 113.5t-112 46.5h-528h-9l-124 124q-54 54 -131 54t-131 -54l-257 -258q-54 -54 -54 -131t54 -131l241 -242l54 -190q25 -88 93.5 -149
t158.5 -77v392q0 99 69.5 168.5t167.5 69.5t168 -69.5t70 -168.5v-184z" />
</svg>