<svg xmlns="http://www.w3.org/2000/svg" xmlns:xlink="http://www.w3.org/1999/xlink" version="1.1" viewBox="-10 0 2068 2048">
   <path fill="currentColor"
d="M1036 1494q-59 36 -126 60v180q0 36 -24.5 61t-60 25t-60.5 -25t-25 -61v-144q-20 2 -58 2q-78 0 -170 -22v164q0 36 -25 61t-60.5 25t-60 -25t-24.5 -61v-232q-156 -91 -249 -248t-93 -344q0 -138 54.5 -264.5t145.5 -218t217.5 -145.5t264.5 -54q193 0 354 98
q102 61 186.5 94.5t171.5 33.5h198q93 0 177 36.5t145 97.5t97.5 145.5t36.5 176.5v854q0 18 -11.5 32.5t-28.5 21.5q-18 5 -36 -0.5t-28 -21.5l-304 -434q-16 2 -48 2h-198q-87 0 -170.5 34.5t-187.5 95.5zM1592.5 824q-35.5 0 -60 25.5t-24.5 61t24.5 60.5t60 25t60.5 -25
t25 -60.5t-25 -61t-60.5 -25.5z" />
</svg>