<svg xmlns="http://www.w3.org/2000/svg" xmlns:xlink="http://www.w3.org/1999/xlink" version="1.1" viewBox="-10 0 2058 2048">
   <path fill="currentColor"
d="M1634 1155q-52 -17 -80 -17q-72 0 -126 37q-30 24 -36 30q-10 -17 -10 -34q-6 -17 -16 -92q0 -3 -1 -11.5t-1 -13.5q-2 -17 -6 -29q-8 -67 -8 -117q-9 -128 4 -238q4 -90 24 -192q54 -259 172 -397q33 -33 16 -58q-4 -8 -12 -17q-26 -12 -50 0q-21 10 -76 46
q-360 228 -592 627q-138 255 -192 517q-8 -4 -24 -21q-100 -58 -206 -20q-129 50 -210 169q-82 118 -82 261q0 193 134 327q134 136 330 136q272 0 400 -234q0 -2 -2 -10q-1 -5 -6 -11q-42 -94 -42 -208q0 -96 30 -172q7 -21 20 -58q-16 -32 -38 -54q-71 -93 -182 -84
q-26 0 -34 4q19 -84 42 -162q1 -4 4 -14t6 -16q6 -19 6 -25q16 -45 16 -54q6 -11 26 -56q9 -23 20 -53q50 -108 118 -204q48 -83 112 -159q68 -79 142 -154q58 -58 142 -121q-104 278 -108 567q-9 203 28 385q6 6 8 16q2 16 2 17t2 15q0 3 0.5 6t1 5t0.5 3h-18h-12
q-108 0 -172 84q-50 64 -74 137q-26 69 -26 147q0 84 26 150q46 139 166 225q123 88 272 88q195 0 330 -136q134 -136 134 -327q0 -141 -82 -261t-210 -169z" />
</svg>