<svg xmlns="http://www.w3.org/2000/svg" xmlns:xlink="http://www.w3.org/1999/xlink" version="1.1" viewBox="-10 0 2068 2048">
   <path fill="currentColor"
d="M723 686l491 584q4 -16 34 -25l-626 -1161q-22 -43 -66 -55q-45 -12 -87 9q-44 21 -55 65q-12 45 9 87zM1913 1626h-4l-9 -4h-8q-75 -17 -170 -17h-12q-113 0 -199 17q97 106 21 174l-4 4q-30 25 -64 25q-26 0 -59 -25q-15 -11 -51 -47l-59 -68q-64 25 -106 56l-76 50
q-14 7 -98 60q-9 9 -29 19q-10 5 -15.5 7.5t-9 4t-5.5 3.5q-14 7 -25 14q-15 9 -26 15q-22 11 -45.5 23.5t-26.5 14.5q0 8 13 21q34 34 55 43q22 8 47 8q28 0 59 -4q27 -4 61 -11q36 -8 53 -12q23 -6 38 -11l17 -4l275 -64l347 -29q29 -5 56 -26q46 -37 46 -76
q13 -41 13 -80q4 -27 4 -81h-4zM2036 1580q-42 -77 -98 -140l-17 -17q-12 0 0 29q9 16 9 30l4 26q-4 0 -13 -22q-40 -80 -46 -89q-37 -54 -85 -76q-42 -19 -47 -21q-15 -8 -21 -8q-16 0 5 29q18 27 71 127q9 21 5 21q-5 0 -17 -17q-56 -98 -136 -160q-42 -34 -106 -43h-38
h-4q-43 0 -4 26q98 60 144 165q11 25 4 25q-5 -5 -17 -21q-82 -115 -199 -165q-42 -21 -72 -21q-5 0 -13 4l-25 4l-51 13h-4q-43 12 9 29q5 5 8 5q100 41 182 152l8 21q-4 0 -21 -17q-66 -75 -144 -105l-25 -13l55 63l144 174q77 -16 229 -25h12q80 0 178 21q9 0 17 4
q10 0 80 17q22 8 34 8q17 0 17 -12zM998 1817q13 -10 74 -47q22 -14 54 -33.5t42 -25.5q45 -27 97 -55l-195 -212q-54 -8 -84 -8q-64 0 -102 38q-24 18 -51 46q-38 30 4 30h13q18 -4 55 -4q144 0 254 93l9 4v4h-5l-8 -8q-129 -59 -241 -59q-18 0 -106 12q-50 11 -93 64
q-7 11 -26 42q-22 43 5 43q5 -5 8 -5q22 -8 42 -8q65 -13 110 -13q88 0 144 21l22 13h-5q-13 0 -21 -4q-6 0 -34 -2t-34 -2q-77 0 -177 25q-24 5 -64 21q-45 11 -80 64q-27 38 25 55q106 21 127 21h21q12 0 38 -9q15 -6 38 -19q22 -14 34 -19q43 -27 110 -63zM1036 1351
l13 13l51 55l203 220l9 8l8 9l13 13v4l51 55q59 59 80 59q20 0 42 -17q4 -8 13 -17q30 -38 -42 -110l-9 -13l-4 -4l-8 -13l-17 -16l-9 -13l-216 -254l-17 -26l-21 -21l-317 -377l-665 -792q-35 -38 -80 -38q-47 0 -77 30q-35 30 -36.5 76t28.5 80l991 1072z" />
</svg>