<svg xmlns="http://www.w3.org/2000/svg" xmlns:xlink="http://www.w3.org/1999/xlink" version="1.1" viewBox="-10 0 2068 2048">
   <path fill="currentColor"
d="M228 228h114v1592h-114q-94 0 -161 -67t-67 -161v-1138q0 -93 67 -159.5t161 -66.5zM456 228h1136v1592h-1136v-1592zM1820 1820h-114v-1592h114q93 0 160.5 66.5t67.5 159.5v1138q0 94 -67.5 161t-160.5 67zM910 738v172h-170q-24 0 -41 17t-17 41v112q0 24 17 41t41 17
h170v170q0 23 16.5 39.5t39.5 16.5h114q24 0 41 -16.5t17 -39.5v-170h170q24 0 41 -17t17 -41v-112q0 -24 -17 -41t-41 -17h-170v-172q0 -23 -17 -39.5t-41 -16.5h-114q-23 0 -39.5 16.5t-16.5 39.5z" />
</svg>