<svg xmlns="http://www.w3.org/2000/svg" xmlns:xlink="http://www.w3.org/1999/xlink" version="1.1" viewBox="-10 0 2068 2048">
   <path fill="currentColor"
d="M256 1665l420 -942q93 -212 286 -335l588 -376q18 -12 40 -12q31 0 52.5 21.5t21.5 52.5v7q0 10 -6 30l-238 597q-12 25 -12 58q0 35 14 65l370 834h-828l48 -142l160 -54q20 -7 32 -24t12 -37t-12 -37t-32 -24l-160 -54l-56 -161q-6 -20 -22.5 -32t-37 -12t-37.5 12.5
t-23 31.5l-54 161l-162 54q-19 7 -31.5 24t-12.5 37t12.5 37t31.5 24l162 54l48 142h-574zM1118 566q-2 -10 -11 -16t-19 -6q-24 0 -30 22l-26 81l-82 26q-9 3 -15.5 11.5t-6.5 19.5t6.5 19.5t15.5 11.5l82 26l26 81q6 22 30 22q10 0 19 -6t11 -16l28 -81l80 -26
q10 -3 16 -11.5t6 -19.5t-6 -19.5t-16 -11.5l-80 -26zM128 1793h1792q52 0 90 37.5t38 89.5t-38 90t-90 38h-1792q-52 0 -90 -38t-38 -90t38 -89.5t90 -37.5z" />
</svg>