<svg xmlns="http://www.w3.org/2000/svg" xmlns:xlink="http://www.w3.org/1999/xlink" version="1.1" viewBox="-10 0 2068 2048">
   <path fill="currentColor"
d="M380 796q-18 53 -69.5 77.5t-104 5.5t-77 -69.5t-5.5 -104.5q71 -203 224 -357q138 -137 316.5 -209t359.5 -72t359.5 72t316.5 209l76 75v-150q0 -56 39.5 -96.5t96 -40.5t96.5 40.5t40 96.5v478q0 56 -40 96t-96 40h-2h-476q-56 0 -96 -40t-40 -96t40 -96.5t96 -40.5
h146l-72 -73q-99 -98 -226.5 -149.5t-256.5 -51.5t-256.5 51.5t-226.5 149.5q-112 112 -162 255zM98 1166l20 -5q8 -1 22 -1h476q56 0 96 40.5t40 96.5t-40 96t-96 40h-148l74 73v1q98 98 225.5 149.5t257 51.5t257 -51.5t226.5 -149.5q109 -109 160 -255q18 -53 70 -78
t104.5 -6t77 70t6.5 105q-71 202 -226 357q-138 137 -316.5 209t-359.5 72t-359.5 -72t-316.5 -209l-74 -75v150q0 56 -40.5 96t-97 40t-96.5 -40t-40 -96v-476q0 -8 2 -22q1 -3 2.5 -8.5t1.5 -7.5q11 -37 34 -60q21 -22 58 -35z" />
</svg>