<svg xmlns="http://www.w3.org/2000/svg" xmlns:xlink="http://www.w3.org/1999/xlink" version="1.1" viewBox="-10 0 2058 2048">
   <path fill="currentColor"
d="M1468 1312l356 390q43 46 33.5 107.5t-63.5 92.5l-222 127q-41 23 -86.5 15.5t-75.5 -42.5l-374 -429l-340 -389l-226 -261q-96 -112 -96 -256v-86q0 -126 72 -227l156 -218q45 -64 115 -100t149 -36h308q82 0 154 38.5t118 106.5l162 244q66 98 66 217v120
q0 73 -26.5 141.5t-75.5 122.5l-112 122l-348 -380l228 -249q-18 -12 -41 -24t-65 -29.5t-97.5 -28.5t-113 -11t-113 11t-97.5 28.5t-65 29.5t-42 24l218 235zM948 1670l-310 336q-30 34 -75 40.5t-85 -15.5l-224 -129q-54 -31 -63.5 -92.5t33.5 -107.5l384 -421z" />
</svg>