<svg xmlns="http://www.w3.org/2000/svg" xmlns:xlink="http://www.w3.org/1999/xlink" version="1.1" viewBox="-10 0 2068 2048">
   <path fill="currentColor"
d="M910 114h228q48 0 81 33.5t33 80.5v227q0 47 -33 80.5t-81 33.5h-228q-48 0 -81 -33.5t-33 -80.5v-227q0 -47 33 -80.5t81 -33.5zM228 342h454v170q0 70 50.5 120.5t121.5 50.5h340q71 0 121.5 -50.5t50.5 -120.5v-170h454q93 0 160.5 66.5t67.5 160.5v1138
q0 94 -67.5 160.5t-160.5 66.5h-1592q-94 0 -161 -66.5t-67 -160.5v-1138q0 -94 67 -160.5t161 -66.5zM626 1669q0 16 11 27t27 11h720q15 0 26.5 -11t11.5 -27q0 -79 -55.5 -134.5t-134.5 -55.5h-416q-79 0 -134.5 55.5t-55.5 134.5zM1023.5 1365q93.5 0 161 -66.5
t67.5 -160.5t-67.5 -160.5t-161 -66.5t-160.5 66.5t-67 160.5t67 160.5t160.5 66.5z" />
</svg>