<svg xmlns="http://www.w3.org/2000/svg" xmlns:xlink="http://www.w3.org/1999/xlink" version="1.1" viewBox="-10 0 2067 2048">
   <path fill="currentColor"
d="M1022 0q215 0 406 80.5t326.5 217.5t214 326.5t78.5 399.5q0 178 -55 339t-152 284.5t-225.5 214.5t-280.5 138.5t-312 47.5q-204 0 -392 -80.5t-326 -216.5t-220.5 -326.5t-82.5 -400.5q0 -163 49 -317t141 -281t216 -223t283 -149.5t332 -53.5zM1026 184
q-178 0 -336 70.5t-268 186.5t-173.5 268.5t-63.5 314.5q0 134 42.5 260.5t120.5 230t181 182t231.5 121.5t265.5 43q106 0 210 -27.5t196.5 -77.5t171.5 -125.5t136.5 -166.5t90 -204t32.5 -236q0 -173 -66 -329t-178 -268t-266.5 -177.5t-326.5 -65.5zM1467 1033l241 -1
v96h-209l-73 179q-14 34 -50.5 29t-41.5 -42l-11 -93l-28 344q-2 28 -25 39t-46 -0.5t-25 -39.5l-20 -265l-19 241q-2 28 -25 39t-46 -0.5t-24 -39.5l-19 -296l-20 332q-1 28 -24.5 40t-47 0.5t-24.5 -39.5l-21 -303l-19 291q-1 28 -24 39.5t-46 0t-25 -39.5l-23 -324
l-16 180q-2 27 -24 38.5t-45 2t-27 -36.5l-43 -302q-13 27 -44 27h-211v-96h181l55 -114q15 -32 50 -27t40 40l8 50l31 -371q2 -28 25 -39t46 0.5t25 39.5l17 236l22 -332q2 -28 25 -39.5t46 0t24 39.5l18 274l22 -345q1 -28 24.5 -39.5t47 0t24.5 39.5l23 389l15 -185
q2 -28 25 -39t46 0t25 39l21 284l18 -212q2 -27 24 -38.5t45 -1t26 37.5l46 383l16 -39q12 -30 44 -30zM1145 1055q13 0 22 -9t9 -22t-9 -22.5t-22 -9.5h-90v-90q0 -13 -8.5 -21.5t-21.5 -8.5t-22.5 8.5t-9.5 21.5v90h-90q-13 0 -22.5 9.5t-9.5 22.5t9.5 22t22.5 9h90v89
q0 13 9.5 22.5t22.5 9.5t21.5 -9.5t8.5 -22.5v-89h90z" />
</svg>