<svg xmlns="http://www.w3.org/2000/svg" xmlns:xlink="http://www.w3.org/1999/xlink" version="1.1" viewBox="-10 0 2067 2048">
   <path fill="currentColor"
d="M2047 1024q0 139 -37 272t-103 245.5t-160.5 207t-206.5 160t-245 102.5t-273 37q-230 0 -434.5 -97t-347 -266t-203.5 -383l392 163q20 101 100 167t185 66q123 0 208.5 -89t80.5 -215l349 -248q106 3 197 -48t144.5 -141t53.5 -197q0 -160 -113 -273t-273 -113
t-273.5 113.5t-113.5 272.5v4l-244 355q-101 -5 -180 49l-549 -227q16 -195 102 -369t221.5 -299.5t317 -199t380.5 -73.5q140 0 273 37t245 102.5t206.5 160t160.5 207t103 245.5t37 272zM643 1554q61 25 122 -0.5t87 -87.5t1 -122.5t-87 -86.5l-129 -53q81 -31 161 2
q83 34 117 118q33 82 -1 166q-34 83 -117.5 117.5t-166.5 -0.5q-77 -32 -113 -106zM1361 1017q-107 0 -182.5 -75.5t-75.5 -181.5t75.5 -181.5t182.5 -75.5t182 75.5t75 181.5t-75 181.5t-182 75.5zM1361 952q80 0 136.5 -56t56.5 -136t-56.5 -137t-136.5 -57t-136.5 57
t-56.5 137q0 79 56.5 135.5t136.5 56.5z" />
</svg>