<svg xmlns="http://www.w3.org/2000/svg" xmlns:xlink="http://www.w3.org/1999/xlink" version="1.1" viewBox="-10 0 2068 2048">
   <path fill="currentColor"
d="M603 127v1l370 402q37 41 34.5 97t-43.5 93.5t-96.5 35t-92.5 -43.5l-136 -149v1267q0 56 -39.5 95t-95 39t-95 -39.5t-39.5 -94.5v-1267l-136 148q-38 41 -93.5 44t-96.5 -34.5t-43.5 -93.5t35.5 -97l370 -403q41 -43 99 -43q56 0 98 43zM1176 218q0 -56 39 -95t95 -39
h537q41 0 75.5 23t49.5 60t7 77t-37 69l-308 308h213q55 0 94.5 39.5t39.5 95t-39.5 95t-94.5 39.5h-537q-42 0 -76 -23t-49 -60t-7 -77.5t37 -69.5l308 -308h-213q-56 0 -95 -39t-39 -95zM1578 1024q38 0 70.5 20t50.5 54l268 537l67 135q24 50 6.5 102t-67 77t-102.5 7.5
t-77 -66.5l-30 -60h-371l-31 60q-25 49 -77.5 66.5t-102 -7.5t-67 -77t7.5 -102l67 -135l268 -537q17 -34 49.5 -54t70.5 -20zM1493 1629h171l-86 -171z" />
</svg>