<svg xmlns="http://www.w3.org/2000/svg" xmlns:xlink="http://www.w3.org/1999/xlink" version="1.1" viewBox="-10 0 2068 2048">
   <path fill="currentColor"
d="M1750 293q-292 -293 -726 -293q-428 0 -722 293q-302 311 -302 731q0 419 302 721q304 303 722 303t734 -303q290 -289 290 -721q0 -434 -298 -731zM432 1611q-246 -243 -246 -587q0 -132 38 -248l524 231h-118v159h240l24 51v75h-264v160h264v235h256v-235h264v-147
l336 151q-47 76 -126 155q-256 252 -600 252q-340 0 -592 -252zM1024 184q352 0 596 244t244 596q0 138 -30 243l-420 -185v-75h-158l260 -479h-274l-180 399l-92 -46l-164 -353h-272l112 210l-338 -151q68 -98 130 -159q239 -244 586 -244z" />
</svg>