<svg xmlns="http://www.w3.org/2000/svg" xmlns:xlink="http://www.w3.org/1999/xlink" version="1.1" viewBox="-10 0 2068 2048">
   <path fill="currentColor"
d="M1562 118q29 -8 59 -0.5t52 29.5l169 168l-95 28q-281 81 -461 240q-52 46 -104 106.5t-81 100.5t-81 116l-9 12q-34 49 -52.5 75.5t-53.5 74.5t-60.5 77.5t-66.5 75t-77 78t-87 75t-102.5 77.5t-116 73.5t-135.5 73.5l-124 63l-101 -102q-43 -42 -33 -99q9 -58 62 -84
q68 -34 130.5 -71t112.5 -70.5t99.5 -75t84.5 -72.5t75 -76t64 -73t59.5 -76t52.5 -72.5t52 -74.5l8 -12q72 -106 135.5 -185t141.5 -149q185 -164 483 -251zM220 1745l91 -46q75 -37 143.5 -78t123.5 -78t109 -82t92.5 -80t82 -83t70.5 -79.5t64 -81.5t56 -77t54 -78l7 -12
q72 -106 127 -174.5t122 -128.5q158 -140 417 -215v0l154 -46l81 81q22 22 30 51.5t0 58.5q-9 30 -30 51.5t-49 29.5q-246 71 -395 203q-63 56 -115.5 122.5t-123.5 169.5l-8 11q-36 52 -55 79t-57 79t-65.5 84t-72.5 82t-84.5 85.5t-95.5 82.5t-112.5 85t-127 80.5
t-147.5 80.5q-33 17 -69 11t-62 -33z" />
</svg>