<svg xmlns="http://www.w3.org/2000/svg" xmlns:xlink="http://www.w3.org/1999/xlink" version="1.1" viewBox="-10 0 2068 2048">
   <path fill="currentColor"
d="M1024.5 320q-156.5 0 -300.5 56.5t-253 153.5t-181.5 231.5t-91.5 286.5q61 -24 122 -24q80 0 136 56t56 136v513q0 79 -56 135t-136 56q-132 0 -226 -93t-94 -226v-65v-192v-192q0 -139 37 -272t103 -245.5t160.5 -207t207 -160t245 -102.5t272 -37t272 37t244.5 102.5
t206.5 160t160.5 207t103 245.5t37 272v192v192v65q0 133 -94 226t-226 93q-80 0 -136 -56t-56 -135v-513q0 -80 56 -136t136 -56q61 0 122 24q-19 -152 -91.5 -286.5t-181 -231.5t-252.5 -153.5t-300.5 -56.5z" />
</svg>