<svg xmlns="http://www.w3.org/2000/svg" xmlns:xlink="http://www.w3.org/1999/xlink" version="1.1" viewBox="-10 0 2068 2048">
   <path fill="currentColor"
d="M0 1280v-512q0 -64 45 -109t109 -45h206v258q0 20 15 35t36 15t36 -15t15 -35v-258h204v258q0 20 15 35t36 15t36 -15t15 -35v-258h204v258q0 20 15.5 35t37 15t36.5 -15t15 -35v-258h204v258q0 20 15 35t36 15t36 -15t15 -35v-258h204v258q0 20 15 35t36.5 15t37 -15
t15.5 -35v-258h204q64 0 109 45t45 109v512q0 64 -45 109t-109 45h-1740q-64 0 -109 -45t-45 -109z" />
</svg>