<svg xmlns="http://www.w3.org/2000/svg" xmlns:xlink="http://www.w3.org/1999/xlink" version="1.1" viewBox="-10 0 2068 2048">
   <path fill="currentColor"
d="M1380 156l511 518q77 78 117 178.5t40 203t-40 203t-117 179.5l-448 454q-28 28 -67.5 27.5t-67.5 -27.5q-29 -28 -29 -67.5t28 -68.5l447 -452q49 -51 75 -116.5t26 -131.5t-26 -131.5t-75 -116.5l-510 -516q-28 -29 -28 -68.5t29 -67.5q28 -27 67.5 -27.5t67.5 27.5z
M1 918v-598q0 -79 56 -135.5t136 -56.5h597q106 0 181 76l672 670q75 76 75 182t-75 180l-533 534q-75 76 -181 76t-181 -76l-672 -672q-75 -73 -75 -180zM577 575.5q0 -52.5 -38 -90t-90.5 -37.5t-90.5 37.5t-38 90t38 90.5t90.5 38t90.5 -38t38 -90.5z" />
</svg>