<svg xmlns="http://www.w3.org/2000/svg" xmlns:xlink="http://www.w3.org/1999/xlink" version="1.1" viewBox="-10 0 2067 2048">
   <path fill="currentColor"
d="M1919 129v590q57 26 92.5 92.5t35.5 149.5t-35.5 148.5t-92.5 92.5v589q0 39 -21.5 72.5t-57.5 47.5t-73.5 6t-65.5 -35l-175 -174q-144 -144 -331.5 -222t-391.5 -78h-34v512q0 52 -37.5 90t-90.5 38h-257q-52 0 -90 -38t-38 -90v-512q-106 0 -180.5 -75t-74.5 -181
v-383q0 -106 74.5 -181.5t180.5 -75.5h385h128h34q204 0 391.5 -78t331.5 -222l175 -174q28 -28 65.5 -35.5t73.5 7.5q36 14 57.5 46.5t21.5 72.5zM1664 435q-177 160 -399.5 247t-461.5 87h-34v383h34q239 0 461.5 86.5t399.5 247.5v-525v-526z" />
</svg>