<svg xmlns="http://www.w3.org/2000/svg" xmlns:xlink="http://www.w3.org/1999/xlink" version="1.1" viewBox="-10 0 2068 2048">
   <path fill="currentColor"
d="M1022 186q-423 5 -722 182q-300 179 -300 426v88q4 259 4 422q0 240 302 394q301 154 716 164q415 -10 716 -164q302 -154 302 -394l8 -422v-88q-5 -248 -303.5 -425.5t-722.5 -182.5zM1604 760l108 -74q34 -26 60 8q21 33 -8 62l-110 76q-8 8 -24 8q-18 0 -34 -16
q-22 -34 8 -64zM1274 412l104 -78q37 -22 58 12q34 33 -8 58l-104 76q-10 8 -26 8q-25 0 -38 -16q-20 -38 14 -60zM1026 526q154 4 262 52q106 49 106 115.5t-106 114.5q-107 48 -262 58q-155 -10 -262 -58q-106 -48 -106 -114.5t106 -115.5q108 -48 262 -52zM1290 1042
l-104 74q-15 8 -26 8q-18 0 -34 -16q-24 -29 10 -62l104 -76q32 -22 62 8q22 38 -12 64zM616 412l104 -78q38 -22 60 12q33 33 -10 58l-104 76q-8 8 -24 8q-26 0 -38 -16q-21 -38 12 -60zM508 940l108 -74q34 -34 58 8q22 38 -8 58l-104 80q-17 8 -26 8q-26 0 -38 -20
q-25 -33 10 -60zM290 798l108 -76q33 -25 60 10q20 32 -10 62l-108 76q-8 8 -26 8q-16 0 -32 -18q-21 -32 8 -62zM1898 1322q0 175 -262 290q-260 115 -614 124q-354 -9 -614 -124t-260 -290v-218l24 26q70 62 176 116v72q0 38 25 63t63 25t62 -30v138q0 37 28 64
q27 24 60 24q38 0 63 -25t25 -63v-150q14 0 22 4v38q0 38 25 63t63 25q58 0 80 -56v172q0 38 26 64q27 24 60 24q38 0 63 -25t25 -63v-208q48 0 140 -10v14q0 38 25 63t57 25q38 0 63 -25t25 -63v-38q90 -17 176 -46q0 34 25 59t59 25q38 0 62 -26q26 -26 26 -62v-72
q104 -53 176 -116l26 -26v218z" />
</svg>