<svg xmlns="http://www.w3.org/2000/svg" xmlns:xlink="http://www.w3.org/1999/xlink" version="1.1" viewBox="-10 0 2068 2048">
   <path fill="currentColor"
d="M0 896q0 -130 51 -248.5t136.5 -204.5t204 -136.5t248.5 -50.5h640v-128q0 -39 21.5 -71t57.5 -47t74.5 -8t66.5 35l256 257q37 37 37 90t-37 91l-256 256q-28 28 -66 35.5t-74 -7.5t-58 -47.5t-22 -71.5v-128h-640q-104 0 -192.5 51.5t-140 139.5t-51.5 193
q0 52 -37.5 90t-90 38t-90.5 -38t-38 -90zM2048 1152q0 130 -51 248.5t-136.5 204.5t-204 137t-248.5 51h-640v127q0 39 -21.5 71.5t-57.5 47.5t-74 7t-65 -36l-256 -255q-37 -38 -37 -91t37 -90l256 -257q27 -28 65.5 -35t74.5 8t57 47t21 71v128h640q105 0 193 -51.5
t139.5 -140t51.5 -192.5q0 -53 37.5 -90.5t90 -37.5t90.5 37.5t38 90.5z" />
</svg>