<svg xmlns="http://www.w3.org/2000/svg" xmlns:xlink="http://www.w3.org/1999/xlink" version="1.1" viewBox="-10 0 2068 2048">
   <path fill="currentColor"
d="M1151.5 0q52.5 0 90.5 38t38 90.5t-38 90t-90.5 37.5t-90 -37.5t-37.5 -90t37.5 -90.5t90 -38zM640 223.5q0 -52.5 38 -90t90.5 -37.5t90 37.5t37.5 90t-37.5 90.5t-90 38t-90.5 -38t-38 -90.5zM128 1152q0 -106 75 -181t181 -75h544v-266l-812 168q-39 8 -72 -13.5
t-41.5 -60t13.5 -72t62 -42.5l926 -192l928 -192q38 -9 71.5 13t42 61t-13.5 72.5t-62 41.5l-850 176v306h544q105 0 179.5 75t74.5 181v640q0 106 -74.5 181t-179.5 75h-1280q-106 0 -181 -75t-75 -181v-640zM384 1152q-27 0 -45.5 18.5t-18.5 45.5v256q0 26 18.5 45
t45.5 19h256q27 0 45.5 -19t18.5 -45v-256q0 -27 -18.5 -45.5t-45.5 -18.5h-256zM832 1216v256q0 26 18.5 45t45.5 19h256q26 0 45 -19t19 -45v-256q0 -27 -19 -45.5t-45 -18.5h-256q-27 0 -45.5 18.5t-18.5 45.5zM1408 1152q-27 0 -45.5 18.5t-18.5 45.5v256q0 26 18.5 45
t45.5 19h256q26 0 45 -19t19 -45v-256q0 -27 -19 -45.5t-45 -18.5h-256z" />
</svg>