<svg xmlns="http://www.w3.org/2000/svg" xmlns:xlink="http://www.w3.org/1999/xlink" version="1.1" viewBox="-10 0 2068 2048">
   <path fill="currentColor"
d="M1546 235l130 174h294q32 0 55 23.5t23 55t-23 53.5t-55 22h-332q-37 0 -60 -30l-78 -104l-150 320q-20 41 -64 44q-45 3 -70 -34l-130 -196h-394q-32 0 -55 -22t-23 -53.5t23 -55t55 -23.5h434q41 0 64 34l78 118l148 -312q17 -39 60 -44q44 -5 70 30zM1024 716h40
l66 100q28 41 71.5 62.5t90.5 17.5q49 -4 89 -31.5t61 -71.5l36 -77h262q128 0 218 90.5t90 217.5v717q0 42 -30 72t-72 30t-72 -30t-30 -72v-103h-718h-102h-820v103q0 42 -30 72t-72 30t-72 -30t-30 -72v-1229q0 -42 30.5 -72.5t72 -30.5t71.5 30.5t30 72.5v819h718v-512
q0 -42 30 -72.5t72 -30.5zM563.5 716q105.5 0 181 75.5t75.5 181.5t-75.5 181t-181 75t-180.5 -75t-75 -181t75 -181.5t180.5 -75.5z" />
</svg>