<svg xmlns="http://www.w3.org/2000/svg" xmlns:xlink="http://www.w3.org/1999/xlink" version="1.1" viewBox="-10 0 2068 2048">
   <path fill="currentColor"
d="M228 342h1592q93 0 160.5 66.5t67.5 159.5v28q0 33 -38 58q-35 23 -55.5 60.5t-20.5 82t20.5 82t55.5 61.5q38 24 38 58v254h-2048v-254q0 -35 36 -58q37 -24 57.5 -61.5t20.5 -82t-20.5 -82t-57.5 -60.5q-36 -24 -36 -58v-28q0 -93 67 -159.5t161 -66.5zM2048 1364v228
q0 48 -33.5 81t-80.5 33h-172v-114q0 -23 -16.5 -39.5t-40 -16.5t-39.5 16.5t-16 39.5v114h-342v-114q0 -23 -16.5 -39.5t-40 -16.5t-40.5 16.5t-17 39.5v114h-340v-114q0 -23 -17 -39.5t-40.5 -16.5t-40 16.5t-16.5 39.5v114h-342v-114q0 -23 -16.5 -39.5t-40 -16.5
t-40.5 16.5t-17 39.5v114h-170q-47 0 -80.5 -33t-33.5 -81v-228h2048zM682 682q0 -47 -32.5 -80.5t-80 -33.5t-80.5 33.5t-33 80.5v228q0 48 33 81t80.5 33t80 -33t32.5 -81v-228zM1138 682q0 -47 -33.5 -80.5t-81 -33.5t-80.5 33.5t-33 80.5v228q0 48 33 81t80.5 33t81 -33
t33.5 -81v-228zM1592 682q0 -47 -33 -80.5t-80.5 -33.5t-80 33.5t-32.5 80.5v228q0 48 32.5 81t80 33t80.5 -33t33 -81v-228z" />
</svg>