<svg xmlns="http://www.w3.org/2000/svg" xmlns:xlink="http://www.w3.org/1999/xlink" version="1.1" viewBox="-10 0 2068 2048">
   <path fill="currentColor"
d="M2017 1222q-50 -177 -223.5 -334t-398.5 -218q33 50 33 99q66 24 107 62q33 33 45 78h25q98 0 136 82q49 89 -25 194q50 41 74 86q45 103 33 147q-12 42 -94 129l-5 5q37 45 186 45q58 0 99 -50q73 -99 8 -325zM1720 1304q-41 -90 -136 -90h-4l4 -4q128 -104 91 -186
q-22 -41 -70 -41q-43 0 -115 37l-4 4q0 -4 4 -4q37 -94 -4 -132q-56 -53 -124 -53h-16v-9l4 -8q21 -83 -35 -128t-110 -45q-17 0 -70 8q-16 6 -26 7q-15 1 -25 6q-10 4 -14 4h-9v-4q0 -28 -8 -58l-16 -33q-50 -91 -161 -115q-25 -9 -62 -9q-69 0 -136 38q-66 37 -98 74
l-33 37q-80 -46 -145 -46q-55 0 -105 36q-46 33 -63 72l-17 33q-40 -9 -45 -9q-58 0 -70 50t4 99l16 45q-78 33 -105 72q-27 38 -10 76t33 56q19 21 33 31q198 -379 659 -396h20h29q478 0 816 705l12 25q5 14 21 37l28 4l17 4l16 -17q57 -57 61.5 -82t-32.5 -91zM1556 1502
q-13 -13 -13 -20q-8 -16 -12 -21q-120 -263 -309 -466q-189 -202 -441 -202h-24h-21q-403 16 -589 342q0 5 -4 9l-12 24q-6 6 -7 11q-2 6 -6 12q-4 5 -4 10q-79 178 -95 384h1602l-33 -33q-25 -34 -32 -50zM781 1094q0 -28 21 -49t49 -21q29 0 50 21q20 20 20 49
q0 30 -20 50t-50 20q-29 0 -49 -20q-21 -21 -21 -50zM1016 1379q0 21 -12 33q-21 37 -58 37q-27 0 -49 -19q-21 -18 -21 -47v-9q0 -21 4 -28q12 -21 33 -33q20 -9 33 -9q37 0 58 33q12 12 12 37v5zM1086 1259q-28 0 -49 -21t-21 -49t21 -49t49 -21q70 0 70 70q0 28 -21 49
t-49 21z" />
</svg>