<svg xmlns="http://www.w3.org/2000/svg" xmlns:xlink="http://www.w3.org/1999/xlink" version="1.1" viewBox="-10 0 2068 2048">
   <path fill="currentColor"
d="M890 109q15 51 -10 97.5t-74 61.5q-158 48 -282.5 155t-196 259t-71.5 323q0 157 61 299t164 245t245.5 164t298 61t297.5 -61t245 -164t164 -245t61 -299q0 -171 -71 -323t-195.5 -259t-281.5 -155q-51 -15 -76 -62t-10 -97q16 -50 62.5 -75t97.5 -10q157 47 291.5 142
t231.5 222t152 286.5t55 330.5q0 140 -37 272.5t-103 245t-160.5 207t-206.5 160.5t-244.5 102.5t-272 36.5t-272 -36.5t-245 -102.5t-207 -160.5t-160.5 -207t-103 -245t-37 -272.5q0 -171 55 -330.5t152 -286.5t232 -222t293 -142q50 -15 97 10t61 75z" />
</svg>