<svg xmlns="http://www.w3.org/2000/svg" xmlns:xlink="http://www.w3.org/1999/xlink" version="1.1" viewBox="-10 0 2068 2048">
   <path fill="currentColor"
d="M0 1024q0 -139 37 -272t103 -245.5t160.5 -207t207 -160t245 -102.5t272 -37t272 37t244.5 102.5t206.5 160t160.5 207t103 245.5t37 272t-37 272t-103 245.5t-160.5 207t-206.5 160t-244.5 102.5t-272 37t-272 -37t-245 -102.5t-207 -160t-160.5 -207t-103 -245.5
t-37 -272zM1124 1540l448 -448q29 -28 29 -68t-29 -68l-448 -447q-27 -28 -67 -28t-68.5 28t-28.5 67.5t28 67.5l286 284h-730q-39 0 -67.5 28t-28.5 68t28.5 68t67.5 28l730 1l-286 284q-28 28 -27.5 67t28 67.5t67.5 28.5t68 -28z" />
</svg>