<svg xmlns="http://www.w3.org/2000/svg" xmlns:xlink="http://www.w3.org/1999/xlink" version="1.1" viewBox="-10 0 2058 2048">
   <path fill="currentColor"
d="M291 1645q-134 -149 -197.5 -336.5t-53 -373.5t94 -366t233 -314.5t337 -199t373.5 -55.5t365.5 92t313 232t197.5 336.5t54 373.5t-93.5 366t-232.5 315q-39 35 48 98q20 14 65 42q82 51 93 71q10 18 -14 28q-96 40 -219 63.5t-264 30t-292 -14.5t-293.5 -65t-278 -127
t-236.5 -196zM1266 678l176 -187q-128 -122 -348 -126q-121 -2 -220 40t-160 127t-62 200q-1 22 0 38.5t8 47.5t20 56t40 54.5t66 53.5q41 26 100.5 48.5t107 38t92.5 35t69.5 48.5t24.5 69q-1 34 -20 59t-49 36.5t-57 16t-51 4.5q-10 0 -21.5 -1t-39 -7t-52 -16.5t-54 -33
t-51.5 -53.5l-182 194q152 147 381 151q18 0 39.5 -0.5t67.5 -7.5t87 -20t88.5 -40.5t81.5 -65.5t57.5 -99t25.5 -137q0 -34 -3.5 -61.5t-15.5 -64.5t-40.5 -71.5t-71.5 -61.5q-42 -26 -100.5 -48t-105 -36t-90 -31.5t-67.5 -45.5t-23 -67q0 -30 15.5 -52.5t36.5 -34
t47 -18.5t42.5 -8.5t30.5 -1.5q5 0 14 0.5t32.5 5t45 12t46.5 23.5t42 38z" />
</svg>