<svg xmlns="http://www.w3.org/2000/svg" xmlns:xlink="http://www.w3.org/1999/xlink" version="1.1" viewBox="-10 0 2068 2048">
   <path fill="currentColor"
d="M2048 960.5q0 113.5 -37 221t-103 199t-160.5 168t-207 130.5t-245 83.5t-271.5 29.5q-217 0 -416 -72q-97 71 -217 124q-178 76 -326 76q-20 0 -36.5 -11t-23.5 -29.5t-3.5 -37t17.5 -32.5v0v0h1l2 -2q3 -2 4 -4q1 -1 19 -22q31 -39 61 -88q76 -124 86 -250
q-191 -219 -191 -484q0 -113 36.5 -220.5t102.5 -199t160.5 -168t207 -130.5t245 -84t271.5 -30t271.5 30t245 84t207 130.5t160.5 168t103 199t37 221z" />
</svg>