<svg xmlns="http://www.w3.org/2000/svg" xmlns:xlink="http://www.w3.org/1999/xlink" version="1.1" viewBox="-10 0 2058 2048">
   <path fill="currentColor"
d="M562 0q7 0 19 -0.5t49 1.5t73 7.5t83.5 18.5t88 33t80 53.5t65 76t38 105t4.5 136.5q1 -6 4.5 -17t18.5 -40.5t34.5 -54t54.5 -49.5t76.5 -36t103.5 -5.5t132 34.5q0 4 -2 10.5t-9.5 27.5t-17.5 39t-26.5 44.5t-36.5 44.5t-48 39t-60.5 28t-74 11t-89.5 -12
q2 -4 4.5 -12.5t13 -32t23.5 -45t36 -48.5t49.5 -46.5t65 -33.5t82.5 -16q-4 -1 -10.5 -2t-27 -0.5t-42 5t-53.5 17.5t-63.5 34.5t-69.5 59t-74 87.5q-1 -8 -4.5 -22t-18 -55t-33 -78.5t-50.5 -84t-70 -81t-92.5 -60t-117.5 -30.5q7 2 18 5.5t43.5 19.5t62 36t66 56.5
t63.5 80t46 108t21 138.5q0 -3 -14.5 0.5t-40.5 -2t-58 -10t-68.5 -22.5t-72 -39t-68 -60.5t-57 -87.5t-38 -119t-11.5 -155zM1850 1303q0 327 -132 546q-130 95 -314 147t-380 52t-380 -52t-314 -147q-132 -219 -132 -546q0 -268 166 -543q132 -97 300.5 -149.5
t359.5 -52.5t358.5 52.5t301.5 149.5q166 276 166 543zM694 1734q0 -48 -34 -82t-82 -34t-82 34t-34 82t34 81.5t82 33.5t82 -33.5t34 -81.5zM694 1460q0 -48 -34 -82t-82 -34t-82 34t-34 82t34 82t82 34t82 -34t34 -82zM694 1187q0 -48 -34 -81.5t-82 -33.5t-82 33.5
t-34 81.5t34 81.5t82 33.5t82 -33.5t34 -81.5zM990 1734q0 -48 -33.5 -82t-81 -34t-81.5 34t-34 82t33.5 81.5t82 33.5t81.5 -33.5t33 -81.5zM990 1460q0 -48 -33.5 -82t-81 -34t-81.5 34t-34 82t34 82t81.5 34t81 -34t33.5 -82zM990 1187q0 -48 -33 -81.5t-81.5 -33.5
t-82 33.5t-33.5 81.5t33.5 81.5t82 33.5t81.5 -33.5t33 -81.5zM1288 1734q0 -48 -34 -82t-82 -34t-82 34t-34 82t34 81.5t82 33.5t82 -33.5t34 -81.5zM1288 1460q0 -48 -34 -82t-82 -34t-82 34t-34 82t34 82t82 34t82 -34t34 -82zM1288 1187q0 -48 -34 -81.5t-82 -33.5
t-82 33.5t-34 81.5t34 81.5t82 33.5t82 -33.5t34 -81.5zM1586 1734q0 -48 -34 -82t-82 -34t-82 34t-34 82t34 81.5t82 33.5t82 -33.5t34 -81.5zM1586 1460q0 -48 -34 -82t-82 -34t-82 34t-34 82t34 82t82 34t82 -34t34 -82zM1586 1187q0 -48 -34 -81.5t-82 -33.5t-82 33.5
t-34 81.5t34 81.5t82 33.5t82 -33.5t34 -81.5zM1684 1024q-3 -10 -9.5 -42t-9 -42t-8.5 -35t-11 -39t-12.5 -34.5t-15.5 -39.5q-122 -62 -276.5 -97t-318 -35t-318 35t-275.5 97q-8 17 -14 33t-12 33.5t-9.5 29.5t-8.5 33t-7 30.5t-7.5 36t-7.5 36.5q337 -62 659.5 -62
t660.5 62z" />
</svg>