<svg xmlns="http://www.w3.org/2000/svg" xmlns:xlink="http://www.w3.org/1999/xlink" version="1.1" viewBox="-10 0 2068 2048">
   <path fill="currentColor"
d="M2048 845v172l-1024 641l-1024 -641v-172l1024 640zM1426 1075q-84 -111 -201 -178.5t-241 -83t-253 21t-235 124.5l-24 21q90 -137 236 -216.5t315.5 -79.5t316 80t236.5 217zM722 1135q52 -72 131 -114.5t171 -42.5t171.5 43t130.5 116l-144 91q-52 -72 -124 -112.5
t-154 -40.5q-97 0 -182 60zM332 720q-46 37 -110 105q131 -200 344 -317.5t458 -117.5q246 0 458 117.5t344 317.5l-156 97l-2 -3q-118 -163 -284 -264t-344.5 -127.5t-365 21.5t-342.5 171zM1826 825z" />
</svg>