<svg xmlns="http://www.w3.org/2000/svg" xmlns:xlink="http://www.w3.org/1999/xlink" version="1.1" viewBox="-10 0 2058 2048">
   <path fill="currentColor"
d="M1324 1110.5q0 124.5 -88 212t-212.5 87.5t-212 -87.5t-87.5 -212t87.5 -212t212 -87.5t212.5 87.5t88 212zM1962 1087v961h-962q-124 -3 -243 -38.5t-219 -96.5t-184.5 -147t-143 -188t-91.5 -221.5t-33 -245.5q0 -183 68.5 -350.5t184.5 -292t277.5 -203t341.5 -90.5
v-175l498 287l-498 286v-178q-134 12 -255 73.5t-208 156t-138 221.5t-51 265q0 146 56.5 279t153 229t229.5 153t278.5 57t279 -57t229.5 -153t153 -229t57 -279q0 -186 -89 -345.5t-241 -257.5l208 -121q155 127 245 309.5t95 390.5h2z" />
</svg>