<svg xmlns="http://www.w3.org/2000/svg" xmlns:xlink="http://www.w3.org/1999/xlink" version="1.1" viewBox="-10 0 2068 2048">
   <path fill="currentColor"
d="M1856 1024q0 -113 -30 -221t-83.5 -199t-130.5 -168t-168 -130.5t-199 -83.5t-221 -30t-220.5 30t-199 83.5t-168 130.5t-130.5 168t-84 199t-30 221t30 221t84 199t130.5 168t168 131t199.5 84t220.5 30t220.5 -30t199 -84t168 -131t130.5 -168t83.5 -199t30 -221z
M0 1024q0 -139 37 -272t103 -245.5t160.5 -207t207 -160t245 -102.5t272 -37t272 37t244.5 102.5t206.5 160t160.5 207t103 245.5t37 272t-37 272t-103 245.5t-160.5 207t-206.5 160t-244.5 102.5t-272 37t-272 -37t-245 -102.5t-207 -160t-160.5 -207t-103 -245.5t-37 -272
zM700 1537q-14 37 -50.5 54t-73.5 3q-38 -13 -54.5 -48.5t-3.5 -73.5q52 -144 192.5 -232t314 -88t313.5 88t192 232q14 38 -2.5 73.5t-54 49t-73.5 -3.5t-50 -54q-29 -81 -118 -137t-207.5 -56t-207 56t-117.5 137zM578 832.5q0 -52.5 37.5 -90.5t90 -38t90.5 38t38 90.5
t-38 90t-90.5 37.5t-90 -37.5t-37.5 -90zM1345.5 704q52.5 0 90.5 38t38 90.5t-38 90t-90.5 37.5t-90 -37.5t-37.5 -90t37.5 -90.5t90 -38z" />
</svg>