<svg xmlns="http://www.w3.org/2000/svg" xmlns:xlink="http://www.w3.org/1999/xlink" version="1.1" viewBox="-10 0 2068 2048">
   <path fill="currentColor"
d="M1614 0q118 0 218 58t158 157.5t58 217.5v1182q0 118 -58 217.5t-158 157.5t-218 58h-1180q-118 0 -218 -58t-158 -157.5t-58 -217.5v-1182q0 -118 58 -217.5t158 -157.5t218 -58h1180zM662 771q-1 -43 33.5 -77t76.5 -32h258q93 0 157.5 -65.5t64.5 -158.5h-704
q-45 0 -77.5 31.5t-32.5 77.5v706q94 0 159 -65.5t65 -158.5v-258zM1468 1101q94 0 159 -65t65 -158h-706q-45 0 -76.5 31.5t-31.5 77.5v704q92 0 157 -65t65 -158v-257q-1 -43 33.5 -77.5t76.5 -32.5h258z" />
</svg>