<svg xmlns="http://www.w3.org/2000/svg" xmlns:xlink="http://www.w3.org/1999/xlink" version="1.1" viewBox="-10 0 2068 2048">
   <path fill="currentColor"
d="M832 354q0 -33 19.5 -60.5t50.5 -27.5q32 0 52 28t20 60q0 33 -20 59.5t-52 26.5q-31 0 -50.5 -26.5t-19.5 -59.5zM2048 993q0 78 -15 173.5t-49.5 195t-81.5 150.5q-66 73 -222.5 163t-259.5 120l-6 1v130q0 50 -33.5 86t-82.5 36q-29 0 -55.5 -15.5t-42.5 -41.5
q-16 26 -43 41.5t-56.5 15.5t-56 -15.5t-42.5 -41.5q-16 26 -43 41.5t-57 15.5q-62 0 -98 -57q-15 26 -42 41.5t-56 15.5q-55 0 -86.5 -38.5t-31.5 -92.5q-103 77 -226 77q-138 0 -242 -91q63 -2 122 -23q-61 -17 -115.5 -55t-92.5 -90q63 15 135.5 4t132.5 -48
q-220 -220 -274 -350q-28 -63 -28 -183q0 -45 5.5 -98t17.5 -115.5t30 -122t46 -115t62.5 -97.5t82 -67t102.5 -25q67 0 92 59q24 -34 48 -62q2 -3 14 -14t14 -18q12 -18 27 -44t29 -48t32 -45q99 -127 241 -202t297 -75q41 0 72 4q32 -35 75.5 -54t90.5 -19q44 0 87 17
t73 48q6 5 6 13q0 7 -10 19.5t-25 29t-17 17.5q19 5 41.5 19.5t22.5 28.5q0 5 -3 10t-8.5 10.5t-6.5 7.5q91 80 147 192.5t77 240.5q29 -35 68 -35q53 0 116 56q102 92 102 319zM752 358q0 58 36.5 103t93 45t93.5 -45t37 -103q0 -57 -37 -102t-93.5 -45t-93 45t-36.5 102z
M952 776q0 -95 34 -233q-51 78 -74.5 165.5t-20 168t31 155t74.5 129.5t115.5 87.5t149.5 32.5q126 0 238 -80q16 -54 16 -90q0 -86 -82 -86q-15 0 -54 7q-80 16 -142.5 19t-117.5 -9.5t-91 -43.5t-56.5 -86.5t-20.5 -135.5zM786 1796q0 -33 -23.5 -58.5t-57 -25.5t-56.5 25
t-23 59v130q0 34 23 59t57 25q33 0 56.5 -24.5t23.5 -59.5v-130zM982 1796q0 -34 -23 -59t-56.5 -25t-57 25t-23.5 59v130q0 34 23.5 59t57 25t56.5 -25t23 -59v-130zM1182 1796q0 -33 -24 -58.5t-57.5 -25.5t-57 25.5t-23.5 58.5v130q0 33 23.5 58.5t56.5 25.5
q34 0 58 -24.5t24 -59.5v-130zM1380 1796q0 -33 -23.5 -58.5t-57 -25.5t-57.5 25.5t-24 58.5v130q0 33 24 58.5t57.5 25.5t57 -25.5t23.5 -58.5v-130zM1686 1145q-95 183 -264 296t-368 113q-114 0 -215.5 -38t-179 -105t-134 -155.5t-86 -193t-29.5 -214.5q0 -102 24 -199
q-118 199 -118 446q0 185 74 356t212 287q15 -30 43 -47.5t61 -17.5q29 0 56 16t42 42q37 -58 98 -58q30 0 57 16t43 42q16 -27 42.5 -42.5t56 -15.5t56.5 15.5t43 42.5q16 -27 42.5 -42.5t55.5 -15.5q32 0 60 17.5t42 46.5q128 -107 202.5 -264t83.5 -328zM1730 745
q0 -81 -26 -157t-72.5 -135t-117.5 -95t-156 -36q-87 0 -169 40t-145 108q-165 546 166 546q15 0 38.5 -3t45.5 -7t49 -7.5t50 -5.5t47.5 -1t42.5 7t35 18t24.5 31.5t10.5 48t-7 67.5q87 -77 135.5 -189.5t48.5 -229.5z" />
</svg>