<svg xmlns="http://www.w3.org/2000/svg" xmlns:xlink="http://www.w3.org/1999/xlink" version="1.1" viewBox="-10 0 2058 2048">
   <path fill="currentColor"
d="M2030 1047q0 217 -72 402.5t-200.5 317.5t-313.5 206.5t-402 74.5q-140 0 -272.5 -36.5t-245 -102.5t-207 -160.5t-160.5 -207t-102.5 -245t-36.5 -272.5t36.5 -272.5t102.5 -245t160.5 -207t207 -160.5t245 -102.5t272.5 -36.5q202 0 374.5 69.5t311.5 198.5l-280 267
q-67 -65 -149.5 -103.5t-167.5 -50t-173 2t-167.5 48t-150.5 92t-122.5 131t-81.5 169t-30 200.5q0 131 51 251t136 206.5t202.5 137.5t246.5 51q83 0 158 -16.5t130.5 -44.5t102.5 -65.5t79 -78t56 -84t36.5 -81.5t17.5 -72h-580v-352h972q16 94 16 171z" />
</svg>