<svg xmlns="http://www.w3.org/2000/svg" xmlns:xlink="http://www.w3.org/1999/xlink" version="1.1" viewBox="-10 0 2058 2048">
   <path fill="currentColor"
d="M819 212q0 90 41 241.5t110.5 316.5t151 313t173 244t166.5 96q52 0 84 -10q-171 276 -358.5 455.5t-310.5 179.5q-85 0 -184.5 -81.5t-191 -213t-177.5 -300t-149.5 -338t-101.5 -332t-38 -278.5q0 -111 42 -170q89 -107 320.5 -190t485.5 -113q-33 27 -48 64.5
t-15 115.5zM1379 0q131 0 239 11.5t200.5 38t144 75t51.5 115.5q0 135 -39.5 288.5t-95.5 271t-118.5 195.5t-106.5 78q-78 0 -164.5 -99.5t-151 -240.5t-107 -297.5t-42.5 -269.5q0 -102 41 -134t149 -32z" />
</svg>