<svg xmlns="http://www.w3.org/2000/svg" xmlns:xlink="http://www.w3.org/1999/xlink" version="1.1" viewBox="-10 0 2058 2048">
   <path fill="currentColor"
d="M703.5 384q-79.5 0 -135.5 -56.5t-56 -136t56 -135.5t135.5 -56t136 56t56.5 135.5t-56.5 136t-136 56.5zM670 512h98q90 0 170.5 40.5t135.5 113.5l308 409q31 42 23.5 95t-49.5 84.5t-95 24t-84 -49.5l-281 -376v374l199 200q56 56 56 136v357q0 52 -38 90t-90.5 38
t-89.5 -37.5t-37 -90.5v-330l-309 -309q-75 -75 -75 -182v-172l-142 283q-23 47 -73.5 63.5t-97.5 -6.5t-64 -74t7 -98l185 -371q48 -98 141 -155t202 -57zM513 1387l212 212l-89 352q-13 52 -58 79t-97 14t-79 -58.5t-14 -96.5zM1802 2021l-472 -683q40 -12 65 -32
q22 -17 40 -41l473 683q15 22 10.5 47t-26.5 41t-49 11.5t-41 -26.5z" />
</svg>