<svg xmlns="http://www.w3.org/2000/svg" xmlns:xlink="http://www.w3.org/1999/xlink" version="1.1" viewBox="-10 0 2058 2048">
   <path fill="currentColor"
d="M1897 1969q-166 -196 -523 -285q-21 -7 -66 -12l-9 -4h-8l-13 -4q-1 0 -7 -1t-18.5 -2.5t-26.5 -3.5q-48 -6 -69 -6q-37 -4 -134 -4q-202 0 -392 46q5 -93 19 -174q17 -95 35 -159q21 -72 48 -142q23 -58 57 -123q21 -39 58 -104q30 -52 54 -86q26 -37 46 -61
q14 -17 34 -37l8 -17q63 46 100 130q38 101 -4 200q-4 12 4.5 21t20.5 4q45 -20 71 -54q92 -108 42 -226q-25 -71 -96 -113q69 16 154 80q150 122 159 301q0 16 15 21q14 4 23 -9q59 -76 71 -167q29 -209 -126 -330q-30 -28 -100 -54h9q193 26 288 163q9 12 27 8
q19 -4 19 -21q9 -77 -21 -150q-87 -214 -297 -235q-73 0 -138 17q9 -68 -12 -138q-63 -196 -293 -234q-87 -12 -154 13q-17 9 -17 23t17 23q159 67 221 246q0 4 2 4q3 0 3 5q-41 -61 -80 -88q-154 -121 -347 -46q-91 33 -150 113q-9 9 0 21q10 12 21 8q176 -33 330 88
q79 63 117 134q-58 -67 -134 -72q-128 -21 -213 92q-23 38 -33 80q-4 12 8 21t21 0q84 -63 196 -46q96 12 155 71l-4 4q-285 235 -514 777q-89 211 -155 443q-32 33 -46 51q-20 21 -6 50q15 29 44 29h1671q35 0 46 -29q12 -30 -8 -50z" />
</svg>