<svg xmlns="http://www.w3.org/2000/svg" xmlns:xlink="http://www.w3.org/1999/xlink" version="1.1" viewBox="-10 0 2068 2048">
   <path fill="currentColor"
d="M512 281.5q0 -31.5 22.5 -54t53.5 -22.5h360q31 0 53.5 22.5t22.5 53.5t-22.5 54t-53.5 23h-52l332 461h374q38 0 72 13l326 123q21 8 34.5 27t13.5 42t-13.5 42t-34.5 27l-326 123q-34 13 -72 13h-374l-332 461h52q31 0 53.5 22.5t22.5 54t-22.5 54t-53.5 22.5h-360
q-31 0 -53.5 -22.5t-22.5 -54.5t22.5 -54t53.5 -22h26v-461h-102l-174 175q-30 29 -72 29h-62q-42 0 -72 -30t-30 -72v-205q-42 0 -72 -30t-30 -72t30 -72t72 -30v-206q0 -42 30 -72t72 -30h60q44 0 74 30l174 175h102v-461h-26q-31 0 -53.5 -22.5t-22.5 -54zM256 973
q-21 0 -36.5 15t-15.5 36t15.5 36t36.5 15h206q20 0 35 -15t15 -36t-15 -36t-35 -15h-206z" />
</svg>