<svg xmlns="http://www.w3.org/2000/svg" xmlns:xlink="http://www.w3.org/1999/xlink" version="1.1" viewBox="-10 0 2058 2048">
   <path fill="currentColor"
d="M128 384q0 -104 51.5 -192.5t139.5 -140t193 -51.5h1152h128q53 0 90.5 37.5t37.5 90.5v1280q0 53 -37.5 90.5t-90.5 37.5v257q53 0 90.5 37.5t37.5 90t-37.5 90t-90.5 37.5h-128h-1152q-105 0 -193 -51t-139.5 -139.5t-51.5 -192.5v-1281zM384 1665q0 53 37.5 90.5
t90.5 37.5h1024v-257h-1024q-53 0 -90.5 38t-37.5 91zM1118 1135q-18 17 -30 17t-30 -17q-26 -27 -46 -75q-42 -99 -50 -227h252q-8 135 -48 227q-19 46 -48 75zM1288 1096q47 -119 54 -263h124q-13 83 -60 151.5t-118 111.5zM1288 440q71 42 118 111.5t60 152.5h-124
q-7 -145 -54 -264zM1600 769q0 -104 -40.5 -199t-109 -164t-163 -109.5t-199 -40.5t-199 40.5t-163 109.5t-109.5 164t-41 199t41 199t109.5 163t163 108.5t199 40.5t199 -40.5t163 -108.5t109 -163t40.5 -199zM710 833h124q7 144 54 263q-71 -43 -118 -111.5t-60 -151.5z
M834 704h-124q13 -83 60 -152t118 -112q-47 119 -54 264zM1058 401q16 -17 30 -17q12 0 30 17q26 27 46 75q42 99 50 228h-252q8 -133 48 -228q20 -48 48 -75z" />
</svg>