<svg xmlns="http://www.w3.org/2000/svg" xmlns:xlink="http://www.w3.org/1999/xlink" version="1.1" viewBox="-10 0 2068 2048">
   <path fill="currentColor"
d="M1024.5 2048q-139.5 0 -272 -37t-245 -102.5t-207 -160t-160.5 -207t-103 -245.5t-37 -272t37 -272t103 -245.5t160.5 -207t207 -160t245 -102.5t272 -37t272 37t244.5 102.5t206.5 160t160.5 207t103 245.5t37 272t-37 272t-103 245.5t-160.5 207t-206.5 160
t-244.5 102.5t-272 37zM1024.5 512q-39.5 0 -68 28t-28.5 68v448q0 40 28.5 68t68 28t67.5 -28t28 -68v-448q0 -40 -28 -68t-67.5 -28zM896 1408q0 52 38 90t90.5 38t90 -37.5t37.5 -90.5t-37.5 -90.5t-90 -37.5t-90.5 38t-38 90z" />
</svg>