<svg xmlns="http://www.w3.org/2000/svg" xmlns:xlink="http://www.w3.org/1999/xlink" version="1.1" viewBox="-10 0 2068 2048">
   <path fill="currentColor"
d="M1750 298q-305 -298 -726 -298q-424 0 -722 298q-302 307 -302 726t302 721q308 303 722 303q424 0 730 -307q294 -293 294 -717q0 -429 -298 -726zM1620 1611q-258 248 -596 248q-344 0 -592 -248q-246 -247 -246 -587t252 -592q238 -248 586 -248q353 0 592 248
q248 239 248 592q0 355 -244 587zM1020 486q-180 0 -298 101q-125 109 -150 294h-80l200 201l202 -201h-76q26 -181 232 -181q118 0 172 84q62 80 62 248q0 156 -66 248q-63 92 -172 92q-215 0 -228 -185h-256q26 194 152 294q121 105 298 105q235 0 386 -155
q146 -159 146 -391q0 -250 -142 -398q-143 -156 -382 -156z" />
</svg>