<svg xmlns="http://www.w3.org/2000/svg" xmlns:xlink="http://www.w3.org/1999/xlink" version="1.1" viewBox="-10 0 2068 2048">
   <path fill="currentColor"
d="M762 1169l70 -97h188l-70 97h-188zM0 1110h276l-14 21h-262v-21zM554 1072h218q-10 13 -22.5 26t-35.5 31t-55.5 29t-70.5 11h-320l132 -179h162q25 0 10 19q-4 6 -16.5 22.5t-17.5 22.5q-3 5 -4 7.5t3 6.5t17 4zM1570 1050h-200l126 -171h198zM306 1072l-16 20h-290v-20
h306zM660 987q15 -19 -8 -19h-356l64 -89h378q27 0 48.5 8t33 21t17.5 28t4.5 29.5t-9.5 25.5l-44 59h-146q-12 0 -16 -4t-3 -6.5t5 -7.5q4 -6 16 -22.5t16 -22.5zM0 1169v-21h250l-16 21h-234zM1034 1169l70 -97h188l-70 97h-188zM1744 1169l16 -21h288v21h-304zM1816 1072
h232v20h-248zM1772 1131l14 -21h262v21h-276zM1248 879h186l-126 171h-458l126 -171h188l-72 98h82zM1354 1072h426l-72 97h-300q-37 0 -59 -11t-23.5 -26.5t8.5 -32.5z" />
</svg>