<svg xmlns="http://www.w3.org/2000/svg" xmlns:xlink="http://www.w3.org/1999/xlink" version="1.1" viewBox="-10 0 2068 2048">
   <path fill="currentColor"
d="M384 1280q-105 0 -193 -51.5t-139.5 -140t-51.5 -192.5q0 -126 73.5 -226.5t190.5 -138.5q-8 -48 -8 -83q0 -92 35.5 -175t95.5 -143t143 -95t174 -35q128 0 233.5 65.5t162.5 174.5q45 -52 109 -82t135 -30q133 0 226.5 93.5t93.5 226.5q0 27 -6 64h6q105 0 193 51
t139.5 139.5t51.5 193t-51.5 193t-139.5 140t-193 51.5h-1280zM326.5 1415.5q36.5 15.5 51 52.5t-1.5 74l-192 448q-15 36 -52 51t-73.5 -0.5t-51 -53t0.5 -73.5l192 -448q15 -37 52.5 -51.5t74 1zM806.5 1415.5q36.5 15.5 51.5 52.5t0 74l-194 448q-15 36 -52 51
t-73.5 -0.5t-51.5 -53t1 -73.5l192 -448q16 -37 53 -51.5t73.5 1zM1784 1542l-192 448q-15 36 -52 51t-73.5 -0.5t-51 -53t0.5 -73.5l192 -448q15 -37 52.5 -51.5t74 1t51 52.5t-1.5 74zM1254.5 1415.5q36.5 15.5 51 52.5t-1.5 74l-192 448q-15 36 -51.5 51t-73 -0.5
t-51.5 -53t0 -73.5l192 -448q15 -37 52.5 -51.5t74 1z" />
</svg>