<svg xmlns="http://www.w3.org/2000/svg" xmlns:xlink="http://www.w3.org/1999/xlink" version="1.1" viewBox="-10 0 2068 2048">
   <path fill="currentColor"
d="M1024.5 0q52.5 0 90 37.5t37.5 90.5v139q159 26 293 114t222 222t115 293h138q52 0 90 38t38 90t-38 90t-90 38h-138q-27 159 -115 293.5t-222 222.5t-293 114v138q0 53 -37.5 90.5t-90 37.5t-90.5 -38t-38 -90v-138q-159 -26 -293 -114t-222 -222.5t-115 -293.5h-138
q-52 0 -90 -38t-38 -90t38 -90t90 -38h138q27 -159 115 -293t222 -222t293 -114v-139q0 -52 38 -90t90.5 -38zM512 1024q0 104 41 199t109.5 163.5t163 109t199 40.5t199 -40.5t163 -109t109 -163.5t40.5 -199t-40.5 -199t-109 -163.5t-163 -109t-199 -40.5t-199 40.5
t-163 109t-109.5 163.5t-41 199zM1024.5 704q132.5 0 226 93.5t93.5 226.5t-93.5 226.5t-226 93.5t-226.5 -93.5t-94 -226.5t94 -226.5t226.5 -93.5z" />
</svg>