<svg xmlns="http://www.w3.org/2000/svg" xmlns:xlink="http://www.w3.org/1999/xlink" version="1.1" viewBox="-10 0 2058 2048">
   <path fill="currentColor"
d="M1952 967q18 25 27 53q23 63 36 137l-11 2l-52 -58q-36 57 -42.5 67.5t-11 16t-12.5 17.5q0 122 -32.5 235t-91 205.5t-141 168.5t-181 128t-213 80.5t-234.5 28.5q-368 0 -629 -240q-53 -50 -95.5 -105.5t-69 -102.5t-46 -100.5t-28.5 -91t-14.5 -83t-6 -67.5t-0.5 -53
q-1 -4 -2 -10t-2 -10l-82 90q-8 -49 1 -97.5t25 -83t40 -67.5t38.5 -48t28.5 -27q1 -2 2 -6.5t2 -6.5l-115 -5l-12 -13q2 -1 39 -18.5t66.5 -27t56.5 -11.5q43 -85 110 -161q3 -18 27 -103l-30 18l-8 -7q7 -33 8 -33q63 -155 186 -270l-132 -57h15q39 -10 74.5 -11.5t60.5 1
t62 10.5q-14 -23 -33 -76q-9 -27 -9 -48q0 -26 10 -53q16 13 31 39.5t21.5 42t9.5 26.5l1 -5.5t2 -9.5t3.5 -12t5.5 -15.5t8.5 -18t12 -20t17 -22.5t22 -25t27.5 -26t35 -28l7 1l-48 178q184 -107 392 -48q-12 11 -37 38t-40.5 42t-41.5 31t-51 22q110 34 136 60l-98 -28
q3 3 22 20t29.5 27t25 26t22.5 28q139 6 274 53l-2 -2q18 -9 45 -24t40 -21.5t34.5 -14.5t37 -7.5t38 5t47.5 17t57 33.5q0 21 -0.5 39t-1 27t-0.5 18t-0.5 11.5t1 6.5t2 4.5t4.5 5t7 7.5q47 -41 102 -66q77 -39 122 24q33 0 52.5 33.5t21.5 73.5q27 5 29 36t-7.5 59.5
t-11.5 28.5l-29 72l10 10t11.5 12t12 12.5t14 15t13 16t14 18.5t13.5 20t14 23t12.5 24.5t12.5 27.5zM1591 445q-80 -55 -114 -34q52 47 55 82q6 47 -43 88l-17 14q27 42 34 92h9q-1 -6 -3 -15q-4 -24 -3.5 -29t5.5 -10l5 -5q54 32 63 80q63 -29 101 -43.5t118 -40.5l-72 64
q33 0 51.5 1t57.5 9t77 24q23 -81 22 -83h-12l-19 45q-14 -94 -14 -101q-3 -38 -37 -41v6q0 25 7 55l-7 24q-25 -87 -36 -111q-11 -20 -28 -23t-36 6.5t-37 22t-38.5 25t-33.5 14.5q36 2 53 2q20 0 56 -2l-90 21l13 20h-16.5t-17.5 -3.5t-21 -10t-18 -21t-16 -35.5z
M1432 405l-81 46q62 41 111 126q40 -19 48 -31q8 -9 12 -29q3 -9 -14 -44q-11 -17 -23.5 -30t-21.5 -19t-19 -12t-12 -7zM363 572q-43 134 -53 298l53 21l4 -108q42 73 50 116l5 -4l7.5 -6t8.5 -6.5t12 -7.5t14.5 -7t19 -7.5t23.5 -7.5l5 7l-30 42q59 -21 113 -2l-43 33
q11 4 33.5 12.5t28.5 10.5t20.5 9t19.5 11.5t15.5 14t18 20.5t18.5 27l-47 -5q27 16 81 51t93.5 57.5t99 52t132.5 53t159 40.5q14 -22 23 -35t15.5 -24t9.5 -15.5t5 -8.5t2 -4.5v-2.5v-3l1 -1h-1q-2 -5 -30 -37t-42 -46q7 2 13.5 3.5t8.5 2t5.5 1.5t6.5 3t9 5l-13 -13
q-6 -5 -22 -20q-31 -28 -53 -48q100 41 132 111l7 -122l-89 -72l25 -23q-1 0 -19.5 -0.5t-29 0t-33 3.5t-39 9.5t-38 20t-38.5 32.5l-10 -3q43 -87 64 -184q12 -56 12 -113q0 -116 -53 -227q-39 -81 -120 -141q-35 -27 -84 -54q13 -3 -4 -5h-17q-24 -1 -77 -5v12
q-63 11 -102 61h-4l-22 14q-7 -21 17 -38l42 -44l-14 1l8 -13q-5 -1 -13 -2.5t-11 -1.5l-2 -4l10 -6q4 1 13.5 1.5t14.5 0.5q17 -10 39 -10q7 0 17 2l10 4l1 3q34 -2 93 -12q122 -18 194 -99l-84 -2q-156 -3 -285 76l-10 -10l2 -19q0 -2 1 -5t2.5 -9.5t2.5 -10.5l1 -4
q5 -33 26 -100q-12 6 -38 44q-33 48 -40 78q-6 28 -24 57l-54 -115l33 143l-1 6q-34 0 -64 -10q-24 -5 -84 -5v0l-12 2q20 5 98 34l26 -5q-17 14 -81 78q-53 50 -130 201l17 -6l41 -36l-22 18l52 -49l-10 14q-34 48 -38 61zM1469 1892q10 -47 14.5 -83.5t3.5 -74t-3 -58.5
t-9 -69t-10 -72q-75 25 -101 32q-5 2 -14 6q-7 3 -12 5l42 56l-4 6q-20 -6 -36 -12t-25 -10t-19 -11.5t-12.5 -9t-11 -10l-8.5 -8.5q9 33 19 54t26 35t31 21t42 17q-43 42 -137 -52l9 95l-16 12q-9 -41 -32 -79.5t-43 -58t-27 -19.5q-85 25 -165.5 26.5t-148.5 -16
t-141 -52.5h-2q-11 3 -23.5 5t-47.5 4.5t-67.5 1t-79 -10.5t-88 -25.5t-88.5 -48.5t-86 -75q45 116 110 197t175 134q-28 -60 -83 -106q3 -14 5 -40q116 116 373 240q-227 -93 -276 -116l64 83q-17 7 -41 -5q-71 -41 -141 -100l1 1q9 10 18.5 20.5t37.5 38t57 51.5t75 55.5
t93 55.5t108.5 46t124 33.5t137.5 11.5t151 -15q-49 -25 -87.5 -54.5t-65.5 -63t-44 -60t-37.5 -63t-31.5 -53.5l70 30l-46 -92q37 52 68 89.5t43 49.5t41 39l-119 -66q77 164 254 235q1 -1 18.5 -4.5t73.5 -26t144 -66.5zM1930 1035l36 51l-50 -130h14.5h10t9.5 1t7.5 1
t8.5 2t8.5 2.5t12 3.5t14.5 4q-48 -69 -108 -129l-106 -92l4 -12l95 -10q-58 -14 -132 -17l-71 2l-2 -11l60 -52l-168 81l-49 -76l14 64l-11 5l-23 -17h-41l22 17v8l-54 111q-91 284 -141 439l4 -64l-4 12v2q-39 97 -86 159l38 -88l-187 81q70 -79 140 -76
q-99 -16 -185 -44.5t-138.5 -58t-81 -50t-37.5 -31.5q1 3 13.5 22.5t20.5 34t17.5 43.5t13.5 60l-8 6q-48 -176 -223 -279l94 10q-28 -34 -86.5 -53t-75.5 -11l-10 -11l34 -33l-90 23l21 -54q-62 33 -68 36l-6 -2q1 -1 -4 -15q-4 -12 -8 -22q-1 21 -5 47q-10 4 -14 7
q-26 -13 -49.5 -23t-45.5 -15t-37.5 -9t-35 -2.5t-29 1t-28.5 5t-23 6.5t-23.5 8.5t-20.5 7.5q21 3 42 6.5t32.5 5.5t22 3.5t16 2.5t10 2t8 3t6 3t7.5 4.5t10 6.5q-5 2 -15 7q-28 13 -40.5 20t-32 21.5t-30 30t-26 43.5t-29.5 65.5t-33 93.5l89 -90l11 66q26 114 101.5 197
t181.5 119t221 18l-104 -90l179 90l-4 12q21 8 54 16q120 36 243 36q69 0 129 -10l-129 -84q26 5 50 14t42 17.5t36 22.5t29 23t25 24.5t19 21.5t15 20t11 15l-30 -116l4 -10l76 112l-37 -107l88 54h4l-13 -17l28 19l-57 -64l4 -12l30 28q14 -3 37.5 -11t69.5 -25.5
t104 -50.5t113 -74q181 -134 283 -314q2 -4 3 -5l-12 -37zM1905 750l-72 5l57 47zM886 778q0 1 2 4q7 14 12.5 22.5t21.5 23t38 25.5q-22 31 -32 39t-48 25q-52 52 -72 60l29 -52q-33 12 -69 12q-5 0 -10 -0.5t-11 -1.5t-9 -1l-3 -4q54 -6 105.5 -24.5t81.5 -39.5
q-28 -29 -36 -88zM901 369q36 20 58 55q89 148 45 191q-50 48 -105 -12q-56 -61 -47 -158q4 -48 16.5 -67.5t32.5 -8.5zM883 554q13 42 44.5 59t53 -4.5t9.5 -73.5q-22 -97 -61 -130t-45 -18q-15 18 -12 100q28 -48 50 -19l-2 2q-1 1 -2.5 4t-1.5 4t0.5 4t3 6t7.5 6l5 -1v19
q-4 24 -11.5 35t-17 11t-20.5 -4zM702 532h1q-16 -3 -22 -17q-11 -25 -1 -54.5t33 -29.5q14 3 21 18q-4 1 -7 6t-1 10.5t12 7.5h2q0 16 -3.5 27.5t-8.5 17.5t-10.5 9.5t-9.5 4t-6 0.5zM863 332l-15 -10l-2 -10q49 0 76.5 17.5t37.5 39.5q-45 -24 -95 -24q-2 0 -5.5 0.5
t-4.5 0.5l-3 -12zM575 529l4 4t5.5 6.5t11.5 15.5q-35 6 -58 15t-30.5 16.5t-15.5 13t-16 5.5q32 -64 94 -64l-28 -30q27 -4 47 -1t32 25q0 -51 12 -96q11 -41 21 -53q4 -8 43 -40t73 -50q16 -11 34 -11q5 0 20 5q2 2 2 5v1l-52 30q44 70 35 165q-6 68 -59 114l11 18
q-44 -3 -69 -10t-35 -14t-34.5 -29.5t-47.5 -40.5zM650 454q-6 21 -12 104l22 26l28 13q20 4 29 4q2 0 7.5 -0.5t8.5 -0.5q1 -2 26 -31q31 -39 34 -92v-17q0 -41 -13 -85q-9 -25 -18.5 -33.5t-21.5 -3.5q-32 10 -64 48q-21 30 -26 68zM819 679l-13 26q47 -29 78 -34l28 -2
l48 30h-11q-54 -23 -123 31q-3 24 24 118l37 -1q-129 38 -196 20q-28 -8 -49.5 -20.5t-32.5 -24.5t-17.5 -24.5t-8 -18.5t-1.5 -8q-11 -49 -11 -84q0 -27 3 -51q-35 3 -61 43q-14 -28 -23 -37q59 -30 130 -20l2 10l-24 4v15t3.5 27.5t10.5 32.5t23 21.5t39 3.5
q12 -2 145 -57z" />
</svg>