<svg xmlns="http://www.w3.org/2000/svg" xmlns:xlink="http://www.w3.org/1999/xlink" version="1.1" viewBox="-10 0 2068 2048">
   <path fill="currentColor"
d="M1467 201q65 0 121.5 27.5t96.5 75.5h161q71 0 127 43.5t73 112.5q5 21 -5.5 38.5t-31.5 23.5l-259 65v25v207q0 139 -58.5 262.5t-160.5 209.5t-231 123l136 327q12 29 -1 59t-42 42t-58.5 -1t-41.5 -42l-150 -364h-10h-132l126 306q12 29 -0.5 58.5t-41.5 41.5
t-59 -0.5t-42 -41.5l-150 -364h-427l-241 185q-34 26 -76 20.5t-68 -39t-20.5 -76t39.5 -68.5l1143 -880v-93q0 -117 83 -200t200 -83zM1467 407q-32 0 -54.5 22t-22.5 54.5t22.5 55t54.5 22.5t54.5 -22.5t22.5 -55t-22.5 -54.5t-54.5 -22z" />
</svg>