<svg xmlns="http://www.w3.org/2000/svg" xmlns:xlink="http://www.w3.org/1999/xlink" version="1.1" viewBox="-10 0 2058 2048">
   <path fill="currentColor"
d="M1024 0q40 0 68 28t28 68v184l92 -91q29 -29 68.5 -29t67.5 29t28 68t-28 67l-229 228v307l265 -153l84 -312q11 -38 45 -58t72 -10q38 11 58.5 45.5t9.5 72.5l-34 125l149 -85q34 -20 73 -10t58 44q19 35 9 73t-44 58l-148 86l125 34q38 11 58.5 45.5t10.5 72.5t-45 58
t-73 10l-311 -85l-266 154l266 153l311 -83q38 -11 73 9t45 58t-10.5 72.5t-58.5 45.5l-125 34l148 85q34 20 44.5 58.5t-9.5 73.5q-19 34 -58 44.5t-73 -9.5l-149 -86l34 126q11 38 -9.5 72.5t-58.5 45.5q-38 10 -72 -10t-45 -58l-84 -311l-264 -154v307l228 227
q29 28 29 68.5t-29 68.5t-68.5 28t-67.5 -28l-92 -92v183q0 40 -28 68t-68 28t-68 -28t-28 -68v-184l-92 92q-28 28 -67.5 28t-67.5 -28.5t-28 -68t28 -67.5l227 -227v-307l-264 153l-83 312q-10 38 -45 58t-73 10q-38 -11 -58.5 -45.5t-10.5 -72.5l34 -126l-148 86
q-34 20 -73 9.5t-58 -44.5q-20 -34 -10 -73.5t44 -58.5l149 -85l-126 -34q-38 -11 -58 -45t-10 -72q11 -38 45.5 -58t72.5 -10l311 83l265 -153l-265 -152l-311 83q-38 10 -72.5 -10t-45 -58t9.5 -72.5t58 -45.5l126 -34l-149 -86q-34 -19 -44 -58t10 -73q19 -34 58 -44
t73 10l148 85l-34 -127q-10 -38 10.5 -72t58.5 -45q38 -10 72 10t45 59l83 311l264 152v-305l-227 -228q-28 -28 -28 -67.5t28.5 -67.5t67.5 -28t67 28l92 91v-184q0 -40 28.5 -68t68.5 -28z" />
</svg>