<svg xmlns="http://www.w3.org/2000/svg" xmlns:xlink="http://www.w3.org/1999/xlink" version="1.1" viewBox="-10 0 2068 2048">
   <path fill="currentColor"
d="M0 128h2048v934q0 62 -30 108.5t-74.5 68.5t-97 22.5t-97 -19.5t-74 -67t-29.5 -113v-109q0 -62 -28.5 -108.5t-71 -68t-93 -23.5t-95 16t-77 61t-37.5 103v530q0 64 -33 110.5t-81.5 67t-105.5 20.5t-105.5 -20.5t-81.5 -67t-33 -110.5v-801q0 -62 -27 -108.5
t-68.5 -68.5t-91.5 -25t-94.5 14.5t-78 58.5t-42.5 99v1091q0 48 -17 87t-45.5 62t-64.5 35.5t-73.5 12.5t-73.5 -13.5t-64.5 -37t-46 -61.5t-17.5 -85v-1595z" />
</svg>