<svg xmlns="http://www.w3.org/2000/svg" xmlns:xlink="http://www.w3.org/1999/xlink" version="1.1" viewBox="-10 0 2068 2048">
   <path fill="currentColor"
d="M1610 878q-88 0 -166.5 -32.5t-139.5 -91.5l-430 215q4 25 4 55q0 28 -4 54l430 215q61 -59 139.5 -91t166.5 -32q119 0 220 58.5t159.5 159t58.5 220.5t-58.5 221t-159.5 160t-220 59q-90 0 -171.5 -35t-140 -94t-93.5 -140t-35 -171q0 -27 4 -53l-430 -215
q-60 58 -138.5 90t-167.5 32q-119 0 -220 -58.5t-159.5 -159t-58.5 -220.5t58.5 -221t159.5 -160t220 -59q88 0 166.5 32.5t139.5 91.5l430 -215q-4 -26 -4 -55q0 -120 59 -220.5t160 -159t220.5 -58.5t220.5 58.5t159.5 159t58.5 220.5t-58.5 221t-159.5 160t-220 59z" />
</svg>