<svg xmlns="http://www.w3.org/2000/svg" xmlns:xlink="http://www.w3.org/1999/xlink" version="1.1" viewBox="-10 0 2068 2048">
   <path fill="currentColor"
d="M528 668v124h108v120h-108v202q0 30 14 45t34.5 15t35 -2.5t24.5 -7.5v110q-36 18 -99.5 18t-105 -38t-41.5 -100v-456zM814 832q11 -21 28.5 -33t35.5 -13t31 0.5t23 5.5v130q-13 -4 -29 -5t-40 6.5t-39 28.5v330h-142v-490h122zM1108 602v116l-142 30v-116zM144 936
q0 15 16 26t40 17.5t52 18.5t52 27t40 44.5t16 68.5q0 75 -53.5 114.5t-144.5 39.5q-82 0 -156 -32v-128q85 46 156 46q56 0 56 -36q0 -16 -16.5 -28t-40.5 -19t-52 -19t-52 -26.5t-40.5 -42t-16.5 -65.5q0 -74 52.5 -117t139.5 -43q75 0 142 26v134q-69 -38 -142 -38
q-48 0 -48 32zM2048 1042q0 36 -2 50h-278q7 88 110 88q77 0 140 -32v108q-64 36 -158 36q-108 0 -172 -63.5t-64 -188.5q0 -111 59.5 -184.5t158.5 -73.5q98 0 152 73t54 187zM1766 988h148q0 -44 -21.5 -67t-50.5 -23q-31 0 -53.5 23t-22.5 67zM1406 782q79 0 135.5 68
t56.5 186q0 128 -55.5 192t-138.5 64q-49 0 -100 -36v160l-142 30v-654h124l8 34q50 -44 112 -44zM1372 1174q39 0 63.5 -38t24.5 -96q0 -56 -25 -94t-63 -38q-41 0 -68 28v210q26 28 68 28zM966 1282v-490h142v490h-142z" />
</svg>