<svg xmlns="http://www.w3.org/2000/svg" xmlns:xlink="http://www.w3.org/1999/xlink" version="1.1" viewBox="-10 0 2068 2048">
   <path fill="currentColor"
d="M2048 1207q0 112 -43.5 213.5t-117 175t-175 117t-212.5 43.5h-36q-60 0 -104 -44t-44 -104t43.5 -103t104.5 -43h36q105 0 180.5 -74.5t75.5 -180.5v-37h-292q-121 0 -207.5 -85.5t-86.5 -206.5v-294q0 -121 86.5 -206.5t207.5 -85.5h292q120 0 206 85.5t86 206.5v148
v146v329zM878 1207q0 112 -43.5 213.5t-117 175t-175 117t-212.5 43.5h-38q-59 0 -102.5 -44t-43.5 -104t43 -103t103 -43h38q105 0 180.5 -74.5t75.5 -180.5v-37h-294q-120 0 -206 -85.5t-86 -206.5v-294q0 -121 86 -206.5t206 -85.5h294q120 0 206 85.5t86 206.5v148v146
v329z" />
</svg>