<svg xmlns="http://www.w3.org/2000/svg" xmlns:xlink="http://www.w3.org/1999/xlink" version="1.1" viewBox="-10 0 2067 2048">
   <path fill="currentColor"
d="M518 1794q-35 38 -85 38t-86 -38l-316 -346q-32 -35 -30.5 -83t37 -80.5t83 -30t79.5 37.5l117 128v-1088q0 -48 34.5 -82t82 -34t81 34t33.5 82v1088l116 -128q33 -36 80.5 -38t83 30.5t38 80.5t-30.5 83zM1125 1832q-47 0 -81.5 -34t-34.5 -81.5t34.5 -81t81.5 -33.5
h115q48 0 81.5 33.5t33.5 81t-33.5 81.5t-81.5 34h-115zM1125 1370q-47 0 -81.5 -34t-34.5 -81.5t34.5 -81t81.5 -33.5h345q48 0 81.5 33.5t33.5 81t-33.5 81.5t-81.5 34h-345zM1125 910q-47 0 -81.5 -34.5t-34.5 -82t34.5 -81.5t81.5 -34h576q48 0 81.5 34t33.5 81.5
t-33.5 82t-81.5 34.5h-576zM1125 448q-47 0 -81.5 -34.5t-34.5 -82t34.5 -81.5t81.5 -34h807q48 0 81.5 34t33.5 81.5t-33.5 82t-81.5 34.5h-807z" />
</svg>