<svg xmlns="http://www.w3.org/2000/svg" xmlns:xlink="http://www.w3.org/1999/xlink" version="1.1" viewBox="-10 0 2068 2048">
   <path fill="currentColor"
d="M1139 455q0 -47 -34 -80.5t-81 -33.5t-80 33.5t-33 80.5t33 80.5t80 33.5t81 -33.5t34 -80.5zM1213 739h40q47 0 80 34t33 81t-33 80t-80 33h-114v740h169q93 0 171.5 -46t124 -124.5t45.5 -171.5v-21l-24 25q-25 25 -60.5 25t-61 -25t-25.5 -60t26 -61l199 -199
q24 -25 59.5 -25t61.5 25l199 199q25 25 25 60t-25 60.5t-60.5 25.5t-60.5 -25l-25 -25v21q0 116 -45.5 221t-121.5 181.5t-181.5 121.5t-220.5 45h-284h-284q-116 0 -221.5 -45t-181.5 -121.5t-121 -181.5t-45 -221v-21l-25 25q-25 25 -60 25t-60.5 -25t-25.5 -60t26 -61
l199 -199q24 -25 59.5 -25t61.5 25l199 199q25 25 25 60t-25 60.5t-60.5 25.5t-60.5 -25l-24 -25v21q0 93 45 171.5t123.5 124.5t171.5 46h171v-740h-114q-48 0 -80.5 -33t-32.5 -80t33 -81t80 -34h39q-71 -47 -111.5 -122t-40.5 -162q0 -93 45 -171.5t123.5 -124
t171.5 -45.5t171.5 45.5t124.5 124t46 171.5q0 87 -41.5 162t-111.5 122z" />
</svg>