<svg xmlns="http://www.w3.org/2000/svg" xmlns:xlink="http://www.w3.org/1999/xlink" version="1.1" viewBox="-10 0 2058 2048">
   <path fill="currentColor"
d="M832 191.5q0 -79.5 56 -135.5t136 -56t136 56t56 135.5t-56 136t-136 56.5t-136 -56.5t-56 -136zM992 1408v512q0 52 -38 90t-90 38t-90 -38t-38 -90v-892l-115 190q-28 45 -78.5 58t-96.5 -14.5t-59 -79t15 -96.5l233 -388q51 -87 140 -136.5t190 -49.5h119
q101 0 189 49.5t140 136.5l233 388q28 45 15 96.5t-59 79t-96.5 14.5t-78.5 -58l-115 -190v892q0 52 -38 90t-90.5 38t-90 -38t-37.5 -90v-512h-64z" />
</svg>