<svg xmlns="http://www.w3.org/2000/svg" xmlns:xlink="http://www.w3.org/1999/xlink" version="1.1" viewBox="-10 0 2068 2048">
   <path fill="currentColor"
d="M1180 512h-258v307h504zM716 461q0 -64 45.5 -109t108.5 -45h310q46 0 88 20t72 56l348 436h156q41 0 71.5 30.5t30.5 72.5v204q41 0 71.5 30.5t30.5 72.5t-30 72t-72 30h-106q4 21 4 51q0 97 -48 180t-130.5 131t-180 48t-180 -48t-131 -131t-48.5 -180q0 -30 4 -51
h-212q4 21 4 51q0 97 -48 180t-130.5 131t-180 48t-180 -48t-131 -131t-48.5 -180q0 -30 4 -51h-106q-42 0 -72 -30t-30 -72t30.5 -72.5t71.5 -30.5v-204q0 -42 30.5 -72.5t71.5 -30.5h512v-358zM716 1382q0 -64 -44.5 -108.5t-108 -44.5t-108.5 44.5t-45 108.5t45 109
t108.5 45t108 -45t44.5 -109zM1638 1382q0 -64 -45 -108.5t-108.5 -44.5t-108 44.5t-44.5 108.5t44.5 109t108 45t108.5 -45t45 -109z" />
</svg>