<svg xmlns="http://www.w3.org/2000/svg" xmlns:xlink="http://www.w3.org/1999/xlink" version="1.1" viewBox="-10 0 2067 2048">
   <path fill="currentColor"
d="M643 381q81 -218 193 -349q16 -18 39.5 -24t45.5 1q32 9 52.5 36t20.5 62q7 238 157 443v126q-168 -41 -310 -126q-120 -75 -198 -169zM1280 571q0 -133 94 -226.5t226 -93.5h398q21 0 35 14t14 35q0 15 -7 27l-121 180v640q0 130 -50.5 248.5t-136 204.5t-204 137
t-248.5 51h-298l-302 241q-17 14 -40 14q-94 0 -184 -20t-158 -50.5t-127 -69.5t-96 -74t-62 -67q-19 -28 -10 -60q10 -32 45 -40l553 -152q-37 -22 -74.5 -49t-85.5 -69.5t-90.5 -91t-84 -115t-71.5 -138t-48.5 -162.5t-18.5 -187q0 -173 31 -309.5t72 -222.5
q11 -21 31.5 -32t44.5 -11q34 0 60 21t36 54q29 94 80 176.5t112 143t135 111.5t146.5 84.5t148 58.5t138 37.5t117.5 17.5v-129v-5v-122zM1600 507q-27 0 -45.5 18.5t-18.5 45.5t18.5 45.5t45.5 18.5t45.5 -18.5t18.5 -45.5t-18.5 -45.5t-45.5 -18.5z" />
</svg>