<svg xmlns="http://www.w3.org/2000/svg" xmlns:xlink="http://www.w3.org/1999/xlink" version="1.1" viewBox="-10 0 2068 2048">
   <path fill="currentColor"
d="M2041 1491q12 32 3 68.5t-37 66.5q-30 31 -54 44q-64 35 -131 51q-13 3 -24 11q-8 7 -14.5 25t-12.5 29q-15 27 -43 47q-20 14 -46.5 21.5t-43 9t-51.5 2.5q-97 4 -155 23q-22 7 -78 41q-38 23 -61.5 35.5t-67.5 31t-94 27.5t-107 9t-107 -9t-93.5 -27.5t-67 -30.5
t-60.5 -35q-59 -35 -79 -42q-58 -19 -157 -23q-35 -1 -51.5 -2.5t-42.5 -9t-45 -21.5q-24 -16 -39 -39q-11 -15 -18.5 -35t-14.5 -27q-13 -9 -25 -12q-67 -16 -128 -50q-31 -16 -53 -40q-30 -31 -39 -68t4 -70q5 -14 13.5 -26.5t16 -20.5t21.5 -17t21.5 -13.5t25 -13.5
t24.5 -12q138 -75 217 -188q23 -33 38 -66q6 -17 1 -29q-5 -9 -14 -14q-9 -6 -24 -15.5t-19 -12.5l-27.5 -17.5t-20.5 -13.5q-58 -39 -84 -90q-21 -37 -21 -84q0 -31 13 -65q19 -52 64.5 -81.5t105.5 -29.5q22 0 49 5q2 0 5.5 1t6.5 2q-2 -80 5 -146q10 -117 45.5 -193
t92.5 -141q58 -67 141 -113q143 -83 320 -83t321 83q79 45 140 113q57 65 92.5 141.5t46.5 192.5q5 50 3 146q2 -1 6.5 -2t7.5 -1q32 -6 49 -6q59 0 104.5 30t65.5 82q11 29 11 65q0 48 -20 84q-26 50 -85 90q-3 2 -46 31q-6 4 -22 14l-24 15q-9 5 -13 13q-5 11 1 26
q12 30 39 69q79 116 223 192l14 7t15 7l16 8q26 15 44 32t28 44zM1897 1569q58 -32 5 -59q-65 -31 -120 -70t-91.5 -75t-66 -74.5t-46 -69t-27.5 -58.5t-15 -42t-4 -20q-4 -15 -1 -30t19 -30q13 -13 80.5 -56.5t70.5 -45.5q72 -50 52 -104q-14 -38 -63 -38q-13 0 -25 3
q-29 6 -73 23t-55 20q-3 1 -11 1q-22 0 -20 -25q0 -2 2 -37t2.5 -53t1.5 -51.5t0 -63.5t-3 -59q-8 -95 -36 -155t-75 -114q-11 -13 -26.5 -28t-50 -39t-74 -42.5t-99 -32t-124.5 -13.5t-125 14t-99.5 32.5t-74.5 43t-50 39.5t-26 28q-48 54 -75.5 113.5t-34.5 154.5
q-3 29 -4 59t0 63.5t1.5 51.5t2.5 53t3 37q1 25 -20 25q-4 0 -10 -2q-11 -3 -56 -19.5t-73 -22.5q-16 -4 -25 -4q-49 0 -63 38q-21 54 52 104q8 6 43 29t66 44t42 30q15 14 17.5 29.5t-0.5 29.5q-1 6 -4.5 20t-15 42t-27.5 58t-45.5 69t-66 75t-91.5 75t-119 70q-54 27 5 59
q47 26 108.5 42t82.5 30q16 11 21.5 31t8.5 39t14 27q13 10 51 11t98.5 6.5t116.5 23.5q33 11 76.5 37t78 47.5t92.5 38.5t124.5 17t124.5 -17t92.5 -38.5t78 -47t76.5 -36.5q55 -18 116 -23.5t99 -7t52 -11.5q10 -8 13 -27t8.5 -39t22.5 -31q20 -14 82 -30t109 -42z" />
</svg>