<svg xmlns="http://www.w3.org/2000/svg" xmlns:xlink="http://www.w3.org/1999/xlink" version="1.1" viewBox="-10 0 2068 2048">
   <path fill="currentColor"
d="M1382 497l56 907l-40 -1q-201 -5 -374 103q-167 -103 -374 -103q-117 0 -221.5 25.5t-228.5 76.5l114 -942q159 -66 336 -66q113 0 204 37.5t170 117.5q75 -77 162.5 -115t195.5 -40zM2048 1724q-131 0 -258 -57q-199 -91 -392 -91q-226 0 -374 148q-148 -148 -374 -148
q-194 0 -394 91q-128 57 -250 57h-6l156 -1272q107 -61 232 -94.5t248 -33.5q234 0 388 106q153 -106 386 -106q124 0 249.5 33.5t232.5 94.5zM1890 1561l-124 -1021q-172 -78 -368 -78q-225 0 -374 141q-150 -141 -374 -141q-197 0 -368 78l-124 1021q78 -33 125 -50
t111 -36.5t125.5 -27.5t130.5 -8q203 0 374 107q170 -107 374 -107q129 0 232 28.5t260 93.5z" />
</svg>