<svg xmlns="http://www.w3.org/2000/svg" xmlns:xlink="http://www.w3.org/1999/xlink" version="1.1" viewBox="-10 0 2068 2048">
   <path fill="currentColor"
d="M1024.5 2048q-139.5 0 -272 -37t-245 -102.5t-207 -160t-160.5 -207t-103 -245.5t-37 -272t37 -272t103 -245.5t160.5 -207t207 -160t245 -102.5t272 -37t272 37t244.5 102.5t206.5 160t160.5 207t103 245.5t37 272t-37 272t-103 245.5t-160.5 207t-206.5 160
t-244.5 102.5t-272 37zM768 640q-52 0 -90 38t-38 91v511q0 52 38 90t90 38h512q53 0 90.5 -38t37.5 -90v-511q0 -53 -37.5 -91t-90.5 -38h-512z" />
</svg>