<svg xmlns="http://www.w3.org/2000/svg" xmlns:xlink="http://www.w3.org/1999/xlink" version="1.1" viewBox="-10 0 2058 2048">
   <path fill="currentColor"
d="M1351 1565l-56 99l-18 320q0 26 -74 45t-178.5 19t-178.5 -19t-74 -45l-24 -318l-59 -101q125 51 334 50.5t328 -50.5zM567 551q44 24 177 37.5t279.5 13.5t280 -13.5t176.5 -37.5l-59 547q-37 33 -66 56q-28 19 -33 19q-9 0 -9 -7q0 -2 4 -6.5t9.5 -11t7.5 -8.5
q1 -1 6.5 -7.5t7 -9t7 -9t7.5 -9.5t6.5 -9.5t7 -10.5t5.5 -10t4.5 -10t2.5 -9t1 -9q0 -9 -4.5 -16.5t-14 -12t-22 -4.5t-29 8t-33.5 24q-2 3 -8.5 8t-9.5 9q4 -16 4 -23q0 -17 -16 -17q-5 0 -11 7q-10 10 -21 44q-1 4 -3.5 11.5t-3.5 11.5l-1 0.5t-2 1.5q-11 11 -26 24.5
t-36 28.5t-31 15q-9 0 -4 -23q9 -29 35 -89q39 -96 53 -128l17 -42q6 -17 -4 -25q-6 -5 -12 -5q-17 0 -25 20q-20 51 -49 125q-52 132 -56 148q-13 11 -27 17q-28 11 -28 -4q0 -17 11 -47q5 -13 14.5 -34.5t13.5 -32.5q6 -18 -2 -28q-3 -5 -12 -5q-14 0 -22 20q-1 4 -6 19
q-4 15 -23 49q-20 36 -44 55q-11 9 -26.5 9t-7.5 -37q4 -11 8.5 -22.5t8 -18.5l10.5 -21l10 -20q4 -8 5 -11.5t0 -9t-6 -8.5q-1 -1 -3.5 -2t-3.5 -1q-20 -5 -30 18q-20 43 -28 65q-1 2 -3 8q-24 66 -16 87q8 20 35 20q28 0 52 -17t38 -43q-8 37 2.5 51t31 7.5t45.5 -25.5
l0.5 2t0.5 3q5 18 23.5 21.5t35.5 -5.5q28 -14 57 -42q2 -2 1 1q-1 2 -4 9q-10 22 -25.5 55t-23.5 51t-11 30q-2 6 -2 11q0 12 5 16q12 7 25 1q10 -5 15 -19q12 -27 22 -55q14 -38 36 -88q19 -41 35 -63q19 -26 34 -39q29 -23 44 -15q3 1 3 6t-19 32q-3 3 -14 16.5t-16 20
t-13 17.5t-11.5 19t-3.5 14q0 17 13.5 23.5t28.5 5t28 -6.5q27 -12 78 -59l-43 378q-4 10 -49 25.5t-129 29t-174.5 13.5t-174.5 -13.5t-128.5 -29t-49.5 -25.5l-32 -319q13 10 32 10q37 0 85 -46q18 -18 26 -27q-27 83 -29 100q0 22 3 26q4 5 11 5q8 0 15 -10.5t10 -20.5
q7 -26 30 -103q10 -33 21.5 -62t15.5 -43.5t4 -32.5q0 -12 -7.5 -17t-17.5 -0.5t-16 17.5l-20 61q-14 28 -50 64q-42 42 -63 42q-13 0 -20 -16q-10 -27 3 -79q17 -61 48 -112q35 -60 68 -84q20 -16 38 -13t29 25q16 28 28 28q9 0 14.5 -9.5t2.5 -26.5q-1 -9 -13 -24t-27 -23
q-34 -21 -74 -3q-53 22 -96.5 87t-64.5 134zM1486 517q0 30 -144.5 47t-318 17t-318 -17t-144.5 -47q0 -27 135.5 -45.5t326.5 -18.5q37 0 105 2l51 -195l245 -257q3 -5 16 -1t24 15q30 27 21 36l-230 243l-40 163q123 8 197 23.5t74 34.5zM1208 536q0 -6 -9 -9l-1 3
q0 3 -13 6.5t-31.5 3.5t-31.5 -3.5t-13 -6.5v-1l1 -2q-12 3 -12 9t16 10.5t39 4.5t39 -4.5t16 -10.5z" />
</svg>