<svg xmlns="http://www.w3.org/2000/svg" xmlns:xlink="http://www.w3.org/1999/xlink" version="1.1" viewBox="-10 0 2068 2048">
   <path fill="currentColor"
d="M292 0h1464q120 0 206 85.5t86 206.5v1464q0 121 -86 206.5t-206 85.5h-1464q-120 0 -206 -85.5t-86 -206.5v-1464q0 -121 86 -206.5t206 -85.5zM914 1426q0 46 32.5 77.5t78 31.5t77.5 -31.5t32 -77.5v-293h292q46 0 78 -31.5t32 -77.5t-32 -78t-78 -32h-292v-292
q0 -46 -32 -78.5t-77.5 -32.5t-78 32.5t-32.5 78.5v292h-292q-46 0 -78 32t-32 78t32 77.5t78 31.5h292v293z" />
</svg>