<svg xmlns="http://www.w3.org/2000/svg" xmlns:xlink="http://www.w3.org/1999/xlink" version="1.1" viewBox="-10 0 2058 2048">
   <path fill="currentColor"
d="M1921 1017v243q-125 29 -244 29q-61 128 -148.5 257.5t-170 223.5t-153.5 160.5t-112 89.5q-48 28 -96.5 28t-102.5 -32q-34 -20 -74.5 -53t-105 -103t-126 -158t-132.5 -227t-130 -300.5t-112.5 -387.5t-86.5 -480h348q25 216 67 404.5t91 330t113.5 269.5t126.5 220.5
t138 185.5q207 -208 353 -500q-174 -88 -274 -270t-100 -409q0 -115 32.5 -213.5t93 -170.5t151 -113t201.5 -41q87 0 158 21t119.5 57t84.5 86t55.5 107t28.5 120t6.5 125.5t-12 123t-24.5 113t-35 95.5q-5 1 -12.5 2t-31.5 3t-47.5 1t-54.5 -6.5t-57 -16t-51.5 -31
t-41.5 -48.5q38 -126 38 -227q0 -107 -35.5 -162.5t-97.5 -55.5q-65 0 -104.5 61t-39.5 173q0 91 22 169t62 136t96 101t123.5 63.5t144.5 24t159 -17.5z" />
</svg>