<svg xmlns="http://www.w3.org/2000/svg" xmlns:xlink="http://www.w3.org/1999/xlink" version="1.1" viewBox="-10 0 2058 2048">
   <path fill="currentColor"
d="M448.5 224q-39.5 0 -68 28t-28.5 68t28.5 68t68 28t67.5 -28t28 -68t-28 -68t-67.5 -28zM578 613q13 147 123.5 247t258.5 100h346q38 -86 117.5 -138.5t176.5 -52.5q133 0 226.5 93t93.5 226t-93.5 226.5t-226.5 93.5q-97 0 -176.5 -53t-117.5 -139h-346
q-212 0 -384 -128v347q86 37 139 117t53 177q0 133 -93.5 226t-226 93t-226.5 -93t-94 -226q0 -97 53.5 -177t138.5 -117v-821q-85 -37 -138.5 -117t-53.5 -177q0 -133 94 -226.5t226.5 -93.5t226 93.5t93.5 226.5q0 97 -52.5 176t-137.5 117zM448.5 1632q-39.5 0 -68 28.5
t-28.5 68.5t28.5 67.5t68 27.5t67.5 -27.5t28 -67.5t-28 -68.5t-67.5 -28.5zM1504 1088q0 40 28.5 68.5t68 28.5t67.5 -28.5t28 -68.5t-28 -68t-67.5 -28t-68 28t-28.5 68z" />
</svg>