<svg xmlns="http://www.w3.org/2000/svg" xmlns:xlink="http://www.w3.org/1999/xlink" version="1.1" viewBox="-10 0 2068 2048">
   <path fill="currentColor"
d="M1188 825q0 65 -47.5 99.5t-136.5 34.5h-154v-259h184q75 0 114.5 32t39.5 93zM1858 778q56 181 190 194v104q-135 13 -190 193q-45 142 -36 358q3 85 -55.5 149t-144.5 64h-1196q-86 0 -144.5 -64t-55.5 -149q9 -216 -36 -358q-55 -180 -190 -193v-104q134 -12 190 -194
q45 -142 36 -357q-3 -85 55 -149t145 -64h1196q86 0 145 64t55 149q-8 218 36 357zM1068 1458q141 0 222.5 -65.5t81.5 -180.5q0 -86 -56 -144t-146 -68v-5q66 -10 111 -65t45 -124q0 -98 -70.5 -157t-189.5 -59h-354v868h356zM1032 1062q198 0 198 142q0 70 -48.5 107
t-141.5 37h-190v-286h182z" />
</svg>