<svg xmlns="http://www.w3.org/2000/svg" xmlns:xlink="http://www.w3.org/1999/xlink" version="1.1" viewBox="-10 0 2068 2048">
   <path fill="currentColor"
d="M1856 1024q0 -113 -30 -221t-83.5 -199t-130.5 -168t-168 -130.5t-199 -83.5t-221 -30t-220.5 30t-199 83.5t-168 130.5t-130.5 168t-84 199t-30 221t30 221t84 199t130.5 168t168 131t199.5 84t220.5 30t220.5 -30t199 -84t168 -131t130.5 -168t83.5 -199t30 -221z
M0 1024q0 -139 37 -272t103 -245.5t160.5 -207t207 -160t245 -102.5t272 -37t272 37t244.5 102.5t206.5 160t160.5 207t103 245.5t37 272t-37 272t-103 245.5t-160.5 207t-206.5 160t-244.5 102.5t-272 37t-272 -37t-245 -102.5t-207 -160t-160.5 -207t-103 -245.5t-37 -272
zM730 1530q-39 16 -69.5 -7t-14.5 -59q49 -111 151.5 -179.5t228 -68.5t228 68.5t150.5 179.5q17 36 -14.5 59t-69.5 7q-140 -59 -294 -59q-157 0 -296 59zM578 832.5q0 -52.5 37.5 -90.5t90 -38t90.5 38t38 90.5t-38 90t-90.5 37.5t-90 -37.5t-37.5 -90zM1345.5 704
q52.5 0 90.5 38t38 90.5t-38 90t-90.5 37.5t-90 -37.5t-37.5 -90t37.5 -90.5t90 -38z" />
</svg>