<svg xmlns="http://www.w3.org/2000/svg" xmlns:xlink="http://www.w3.org/1999/xlink" version="1.1" viewBox="-10 0 2058 2048">
   <path fill="currentColor"
d="M1623 1922q-45 50 -151 88t-239 38q-100 0 -184 -20.5t-143.5 -54.5t-106 -81t-75 -97.5t-47 -107t-25.5 -105t-7 -96.5v-577h-190q-16 0 -28 -11.5t-12 -28.5v-272q0 -21 13 -38.5t33 -25.5q72 -25 129.5 -66.5t94 -88t62 -102.5t37 -107t14.5 -104q5 -65 65 -65h282
q17 0 28.5 12t11.5 28v461h333q17 0 28.5 11.5t11.5 27.5v327q0 17 -11.5 28.5t-28.5 11.5h-334v533q0 70 31 114t91.5 54.5t149.5 -25.5q32 -13 51 -8q20 4 29 31l88 257q17 41 -1 59z" />
</svg>