<svg xmlns="http://www.w3.org/2000/svg" xmlns:xlink="http://www.w3.org/1999/xlink" version="1.1" viewBox="-10 0 2068 2048">
   <path fill="currentColor"
d="M1157 1443l-434 -391q1 -85 39 -160.5t106 -125.5l890 -669q53 -40 118.5 -36.5t113.5 48.5t56 110t-28 120l-608 943q-42 66 -108.5 108t-144.5 53zM1083 1539h1q0 4 0.5 13.5t0.5 14.5q0 114 -56.5 211t-153.5 153.5t-212 56.5h-542q-49 0 -85 -35.5t-36 -85t36 -84.5
t85 -35h18q48 0 79.5 -43.5t25.5 -94.5q-3 -42 -3 -43q0 -112 54 -207.5t147.5 -153t203.5 -61.5z" />
</svg>