<svg xmlns="http://www.w3.org/2000/svg" xmlns:xlink="http://www.w3.org/1999/xlink" version="1.1" viewBox="-10 0 2068 2048">
   <path fill="currentColor"
d="M0 841q0 -112 43.5 -213.5t117 -175t175 -117t212.5 -43.5h38q60 0 103 43t43 103t-43 103t-103 43h-38q-105 0 -180.5 75.5t-75.5 181.5v37h294q120 0 206 85.5t86 206.5v292q0 121 -86 207.5t-206 86.5h-294q-120 0 -206 -86.5t-86 -207.5v-146v-146v-329zM1170 841
q0 -112 43.5 -213.5t117 -175t175 -117t212.5 -43.5h38q60 0 103 43t43 103t-43 103t-103 43h-38q-105 0 -179.5 75.5t-74.5 181.5v37h292q120 0 206 85.5t86 206.5v292q0 121 -86 207.5t-206 86.5h-292q-121 0 -207.5 -86.5t-86.5 -207.5v-146v-146v-329z" />
</svg>