<svg xmlns="http://www.w3.org/2000/svg" xmlns:xlink="http://www.w3.org/1999/xlink" version="1.1" viewBox="-10 0 2068 2048">
   <path fill="currentColor"
d="M1100 1016v-4l4 -5q0 -34 -25 -59t-59 -25q-35 0 -58 25q-22 26 -22 59v13q-38 30 -38 67q0 33 22.5 59t57.5 26q24 0 42 -13q22 13 42 13q34 0 57 -26t23 -59q0 -50 -46 -71zM2048 1050q0 -122 -152 -232v-9q0 -35 -26 -57q-26 -23 -58 -23q-30 0 -52 17
q-61 -29 -130 -46q98 -425 -96 -540q-46 -25 -106 -25q-176 0 -404 215q-184 -170 -338 -207q-16 -59 -76 -59q-70 0 -80 72q-2 0 -7.5 2t-8.5 2q-194 115 -96 540q-418 126 -418 350q0 105 112 195q112 91 306 154q-64 289 12 443q-8 23 -8 38q0 33 22 59q23 25 58 25
q19 0 46 -17q32 13 72 13q175 0 404 -215q228 215 404 215q58 0 106 -26q164 -93 118 -425q-7 -22 -26 -110q196 -62 310 -154q112 -91 112 -195zM1428 198q42 0 76 21q147 85 64 464q-133 -35 -304 -55q-87 -119 -194 -232q210 -198 358 -198zM1340 1231q-25 44 -110 177
q-120 8 -206 8t-206 -8q-93 -146 -110 -177q-30 -41 -98 -181q53 -113 98 -186q32 -62 110 -173q60 -8 206 -8t206 8q74 105 110 173q44 73 96 186q-68 136 -96 181zM1470 1125q43 105 80 228q-119 28 -236 46q22 -33 42 -67q31 -50 42 -68q53 -95 72 -139zM1180 1475
q-80 105 -156 181q-108 -116 -156 -181q45 4 155.5 4t156.5 -4zM734 1399q-117 -18 -236 -46q37 -123 80 -228q24 54 70 139q28 43 44 68q20 34 42 67zM578 969q-48 -102 -80 -227q140 -33 236 -42q-23 30 -86 130q-46 85 -70 139zM868 624q79 -105 156 -181q76 76 156 181
q-101 -9 -156.5 -9t-155.5 9zM1398 830q-69 -110 -84 -130q96 9 236 42q-32 121 -80 232q-22 -48 -72 -144zM544 219l4 -4q21 34 62 34q48 0 68 -42q144 42 300 189q-96 95 -194 232q-171 20 -304 55q-84 -380 64 -464zM64 1050q0 -173 370 -287q43 153 106 287
q-64 131 -106 286q-370 -114 -370 -286zM620 1897q-25 0 -38 -5l4 -4v-8q0 -35 -26 -57q-26 -23 -58 -23q-4 0 -12 2t-10 2q-58 -131 0 -388q182 42 304 51q104 147 194 236q-208 194 -358 194zM1588 1517q38 290 -84 363q-31 17 -76 17q-150 0 -358 -194q86 -86 194 -236
q122 -9 304 -51l12 51q8 33 8 50zM1614 1336q-33 -117 -106 -286q72 -169 106 -287q70 21 118 42v4q0 33 22.5 59t57.5 26q28 0 50 -21q122 90 122 177q0 172 -370 286z" />
</svg>