<svg xmlns="http://www.w3.org/2000/svg" xmlns:xlink="http://www.w3.org/1999/xlink" version="1.1" viewBox="-10 0 2068 2048">
   <path fill="currentColor"
d="M1454 557q14 -13 30.5 -7.5t21 21t-7.5 31.5l-344 406q6 61 -38 105q-38 38 -91 38t-91.5 -38t-38.5 -91.5t39 -91.5q43 -44 106 -37l116 -93q-58 -53 -132 -83t-154 -30q-87 0 -166 34t-137 92t-91 141.5t-30 177.5q-8 -45 -8 -88q0 -121 47 -232.5t126.5 -193.5
t189 -131t229.5 -49q104 0 201.5 41.5t180.5 112.5zM1071.5 1067q19.5 -19 19.5 -46t-19.5 -47t-46 -20t-46 20t-19.5 47t20 46q19 19 45.5 19t46 -19zM1024.5 0q138.5 0 271 37t245 103t207 160.5t160.5 206.5t103 245t37 272t-37 272t-103 245t-160.5 206.5t-207 160.5
t-245 103t-271 37t-271.5 -37t-245 -103t-206.5 -160.5t-161 -206.5t-103.5 -245t-37 -272t37 -272t103.5 -245t161 -206.5t206.5 -160.5t245 -103t271.5 -37zM1024.5 1756q148.5 0 284 -58t233.5 -156t156 -233.5t58 -284.5t-58 -284.5t-156 -233.5t-233.5 -156t-284 -58
t-284 58t-233.5 156t-156.5 233.5t-58.5 284.5t58.5 284.5t156.5 233.5t233.5 156t284 58z" />
</svg>