<svg xmlns="http://www.w3.org/2000/svg" xmlns:xlink="http://www.w3.org/1999/xlink" version="1.1" viewBox="-10 0 2058 2048">
   <path fill="currentColor"
d="M896 128q0 -52 38 -90t90 -38t89.5 37.5t37.5 90.5h614q27 0 46 19l192 191q19 19 19 45.5t-19 45.5l-192 192q-19 19 -46 19h-1509q-52 0 -90 -38t-38 -90v-256q0 -52 38 -90t90 -38h640zM1919 1024v256q0 52 -37.5 90t-90.5 38h-1508q-28 0 -46 -18l-192 -192
q-19 -19 -19 -45.5t19 -45.5l192 -192q19 -19 46 -19h613v-127h255v127h640q53 0 90.5 38t37.5 90zM1151 1920q0 53 -37.5 90.5t-89.5 37.5t-90 -38t-38 -90v-384h255v384z" />
</svg>