<svg xmlns="http://www.w3.org/2000/svg" xmlns:xlink="http://www.w3.org/1999/xlink" version="1.1" viewBox="-10 0 2068 2048">
   <path fill="currentColor"
d="M2010 1114v2l-513 510q-37 38 -89.5 38t-90 -37.5t-37.5 -90.5t37 -90l293 -294h-842q-52 0 -90 -37.5t-38 -90t38 -90.5t90 -38h842l-293 -294q-37 -37 -37 -90.5t37.5 -91t90 -37.5t89.5 37l513 514q38 37 38 89.5t-38 90.5zM640 384h-257q-52 0 -89.5 37.5t-37.5 90.5
v1024q0 52 37.5 90t89.5 38h257q53 0 90.5 38t37.5 90.5t-37.5 90t-90.5 37.5h-257q-104 0 -192 -51.5t-139.5 -140t-51.5 -192.5v-1024q0 -105 51.5 -193t139.5 -139.5t192 -51.5h257q53 0 90.5 37.5t37.5 90t-37.5 90.5t-90.5 38z" />
</svg>