<svg xmlns="http://www.w3.org/2000/svg" xmlns:xlink="http://www.w3.org/1999/xlink" version="1.1" viewBox="-10 0 2068 2048">
   <path fill="currentColor"
d="M1024 192q-113 0 -220.5 30t-199 83.5t-168 130.5t-130.5 168t-84 199t-30 221t30 221t84 199t130.5 168t168 131t199.5 84t220.5 30t220.5 -30t199 -84t168 -131t130.5 -168t83.5 -199t30 -221t-30 -221t-83.5 -199t-130.5 -168t-168 -130.5t-199 -83.5t-221 -30z
M1024.5 2048q-139.5 0 -272 -37t-245 -102.5t-207 -160t-160.5 -207t-103 -245.5t-37 -272t37 -272t103 -245.5t160.5 -207t207 -160t245 -102.5t272 -37t272 37t244.5 102.5t206.5 160t160.5 207t103 245.5t37 272t-37 272t-103 245.5t-160.5 207t-206.5 160t-244.5 102.5
t-272 37zM640 608q0 -40 28 -68t68 -28h352q87 0 160.5 43t116.5 117t43 161q0 82 -39 152.5t-105 114.5l136 300q16 37 2.5 74t-50 53.5t-74 2.5t-54.5 -51l-148 -327h-244v288q0 40 -28.5 68t-68 28t-67.5 -28t-28 -68v-384v-448zM832 960h256q52 0 90 -37.5t38 -90
t-38 -90.5t-90 -38h-256v256z" />
</svg>