<svg xmlns="http://www.w3.org/2000/svg" xmlns:xlink="http://www.w3.org/1999/xlink" version="1.1" viewBox="-10 0 2068 2048">
   <path fill="currentColor"
d="M360 205h818q63 0 108.5 44.5t45.5 108.5v154h162q84 0 144 60l248 247q60 60 60 145v60v102v205q42 0 72 30t30 72t-30.5 72.5t-71.5 30.5h-102q0 127 -90.5 217t-218 90t-217.5 -89.5t-90 -217.5h-408q0 128 -90 217.5t-217.5 89.5t-218 -90t-90.5 -217v-410h462
q20 0 35 -15t15 -36t-15 -36t-35 -15h-462h-152q-22 0 -37 -15t-15 -36t15 -36t37 -15h152h564q22 0 37 -15t15 -36t-15.5 -36.5t-36.5 -15.5h-564h-50q-21 0 -36.5 -15.5t-15.5 -36.5t15 -36t37 -15h50h666q22 0 37 -15t15 -36t-15 -36t-37 -15h-666h-152q-22 0 -37 -15
t-15 -36t15 -36t37 -15h152v-154q0 -64 46 -108.5t110 -44.5zM1740 964l-246 -248h-162v308h408v-60zM512.5 1382q-63.5 0 -108 45t-44.5 109t44.5 109t108 45t108.5 -45t45 -109t-45 -109t-108.5 -45zM1382 1536q0 64 45 109t108.5 45t109 -45t45.5 -109t-45.5 -109
t-109 -45t-108.5 45t-45 109z" />
</svg>