<svg xmlns="http://www.w3.org/2000/svg" xmlns:xlink="http://www.w3.org/1999/xlink" version="1.1" viewBox="-10 0 2068 2048">
   <path fill="currentColor"
d="M768 128q0 -52 38 -90t90 -38q157 0 306.5 41.5t275.5 115.5t232.5 180.5t180.5 233t115.5 275.5t41.5 306q0 52 -38 90t-90.5 38t-90 -38t-37.5 -90q0 -122 -32.5 -238t-90 -214.5t-140 -181t-180.5 -140.5t-214.5 -90t-238.5 -32q-52 0 -90 -38t-38 -90zM768 512
q0 -52 38 -90t90 -38q156 0 298.5 61t245.5 163.5t163.5 245t60.5 298.5q0 52 -37.5 90t-90 38t-90.5 -38t-38 -90q0 -104 -40.5 -199t-109 -163.5t-163 -109t-199.5 -40.5q-52 0 -90 -38t-38 -90zM384 576v896q0 80 56.5 136.5t136 56.5t135.5 -56.5t56 -136.5t-56 -136
t-136 -56h-64v-384h64q118 0 224.5 45.5t183.5 122.5t122.5 183.5t45.5 224.5t-45.5 224.5t-122.5 183.5t-183.5 122.5t-224 45.5t-224 -45.5t-183.5 -122.5t-123 -184t-46 -224v-896q0 -80 56.5 -136t136 -56t135.5 56t56 136z" />
</svg>