<svg xmlns="http://www.w3.org/2000/svg" xmlns:xlink="http://www.w3.org/1999/xlink" version="1.1" viewBox="-10 0 2068 2048">
   <path fill="currentColor"
d="M344 1112l-62 -134h-166l-60 134h-56l200 -421l198 421h-54zM200 798l-64 136h126zM560 1125l-200 -420h56l144 308l144 -308h54zM818 1112v-407h50v407h-50zM1486 742v370h-54v-370h-132v-37h318v37h-132zM2048 904q0 46 -16 84q-16 36 -46 67q-29 29 -68 45
q-40 17 -82 17q-43 0 -84 -17q-38 -16 -66.5 -45t-45.5 -67q-16 -40 -16 -84q0 -42 16 -82q17 -40 46 -68q3 -3 7 -6.5t7 -6t8 -5l8 -4l9 -4.5t8.5 -4l10 -4t8.5 -4q36 -15 84 -15q47 0 82 15q4 1 13 5t12.5 5.5t11 5t11.5 6.5t9.5 7t10.5 9q29 30 46 68q16 38 16 82z
M1998 904q0 -35 -12 -64q-16 -35 -34 -53q-20 -19 -52 -34q-29 -13 -64 -13t-64 13q-32 15 -52 34q-18 18 -34 53q-12 29 -12 64q0 36 12 65q16 35 34 53q22 21 52 35q29 13 64 13t64 -13q30 -14 52 -35q18 -18 34 -53q12 -29 12 -65zM1694 1215q15 2 24.5 13t9.5 26
q0 17 -11 28.5t-27.5 11.5t-28 -12t-11.5 -28q0 -15 9.5 -26t24.5 -13v-19l-258 29v17q14 2 23 13.5t9 25.5q0 16 -11 24t-28.5 8t-29 -8t-11.5 -24q0 -14 9.5 -25.5t22.5 -13.5v-15l-90 9v77h18v44h-18v-22h-16v22h-20v-44h20v-75l-122 14q-12 16 -27.5 27t-24.5 13l-10 3
v22l18 1v38h-14v-16h-16l-2 16h-12v-38l16 -1l2 -22q-5 -1 -11.5 -3t-23 -13t-27.5 -27l-122 -14v75h18v44h-18v-22h-16v22h-20v-44h20v-77l-92 -10v16q14 2 23 13.5t9 25.5q0 16 -11 24t-28.5 8t-28 -8t-10.5 -24q0 -14 8.5 -25.5t21.5 -13.5v-18l-256 -28v19q14 2 24 13
t10 26q0 16 -12 27.5t-28.5 11.5t-28 -11.5t-11.5 -27.5q0 -15 9.5 -26t24.5 -13v-21l-286 -32l778 43q-3 -9 -4 -22q-2 -14 -2 -21l-208 -26l208 6v-2v-2q4 -24 25 -43t39 -26l18 -7l4 -84h-76l-60 134h-56l200 -421l198 421h-54l-60 -134h-76l2 84q3 1 8 2.5t18.5 8.5
t23.5 14.5t20 21.5t12 29v3l208 -6l-208 26q0 9 -2 21q-1 15 -4 23l778 -43l-286 32v21zM1052 934h58l6 -129l4 129h58l-62 -136z" />
</svg>