<svg xmlns="http://www.w3.org/2000/svg" xmlns:xlink="http://www.w3.org/1999/xlink" version="1.1" viewBox="-10 0 2067 2048">
   <path fill="currentColor"
d="M1025 0q208 0 397.5 81t326 218t217.5 326.5t81 398.5t-81 398.5t-217.5 326.5t-326 218t-397.5 81t-397.5 -81t-327 -218t-218.5 -327t-81 -398t81 -398t218.5 -327t327 -218t397.5 -81zM1618 1177q7 -22 -6 -44.5t-36 -27.5q-22 -7 -44 6t-27 36q-44 164 -177.5 267.5
t-302.5 103.5t-304 -104t-178 -267q-5 -22 -27 -34.5t-45 -7.5q-22 5 -33.5 27t-6.5 45q51 202 218 331t376 129t375.5 -129t217.5 -331z" />
</svg>