<svg xmlns="http://www.w3.org/2000/svg" xmlns:xlink="http://www.w3.org/1999/xlink" version="1.1" viewBox="-10 0 2068 2048">
   <path fill="currentColor"
d="M314 20l416 320q38 28 38 77v215l435 436q87 -44 187 -29t171 86l449 449q38 37 38 90t-38 91l-257 255q-37 37 -90 37t-91 -37l-447 -447q-71 -71 -86 -172t29 -187l-437 -435h-215q-48 0 -77 -38l-320 -416q-21 -29 -18.5 -65.5t27.5 -61.5l160 -160q27 -26 62.5 -28
t63.5 20zM79 1585l594 -595l247 247q-33 133 14 261l-471 471q-79 79 -191 79q-111 0 -191.5 -80t-80.5 -192t79 -191zM2046 576q0 171 -90.5 311.5t-240.5 210.5l-63 -63q-83 -84 -194 -113t-221 -1l-342 -342v-3q0 -117 46 -223.5t123.5 -183.5t184 -122.5t223.5 -45.5
q69 0 122 12q33 7 41 40t-17 57l-256 256q-18 18 -18 44v231q0 26 19 45t45 19h229q25 0 45 -20l255 -254q24 -24 57.5 -16.5t40.5 40.5q11 48 11 121zM224 1729q0 40 28 67.5t67.5 27.5t68 -28t28.5 -67.5t-28.5 -68t-68 -28.5t-67.5 28.5t-28 68.5z" />
</svg>