<svg xmlns="http://www.w3.org/2000/svg" xmlns:xlink="http://www.w3.org/1999/xlink" version="1.1" viewBox="-10 0 2068 2048">
   <path fill="currentColor"
d="M1434 307v35q0 92 34.5 176.5t99.5 149.5l68 67q104 104 104 253v36q0 42 -30 72t-72 30t-72 -30t-30 -72v-36q0 -63 -46 -108l-66 -67q-94 -94 -145 -216.5t-51 -254.5v-35q0 -42 30.5 -72t73 -30t72.5 30t30 72zM1844 1024v-36q0 -91 -35.5 -175.5t-100.5 -149.5
l-68 -67q-50 -51 -77 -116.5t-27 -137.5v-35q0 -42 30 -72t72 -30t72 30t30 72v35q0 64 46 109l66 67q94 94 145 215.5t51 254.5v36q0 42 -30 72t-72 30t-72 -30t-30 -72zM0 1536q0 -85 60 -145t144 -60h1128q42 0 72 30t30 72v308q0 42 -30 72t-72 30h-1128q-84 0 -144 -60
t-60 -145v-102zM716 1536v102h512v-102h-512zM1638 1331q42 0 72 30t30 72v308q0 42 -30 72t-72 30t-72 -30t-30 -72v-308q0 -42 30 -72t72 -30zM1946 1331q42 0 72 30t30 72v308q0 42 -30 72t-72 30t-72 -30t-30 -72v-308q0 -42 30 -72t72 -30z" />
</svg>