<svg xmlns="http://www.w3.org/2000/svg" xmlns:xlink="http://www.w3.org/1999/xlink" version="1.1" viewBox="-10 0 2068 2048">
   <path fill="currentColor"
d="M1792 384q0 -53 -37.5 -90.5t-90 -37.5t-90.5 38t-38 90t38 90t90.5 38t90 -37.5t37.5 -90.5zM1280 384q0 -104 51.5 -192.5t140 -140t193 -51.5t192.5 51.5t139.5 140t51.5 192.5t-51.5 193t-139.5 140.5t-192.5 51.5t-193 -51.5t-140 -140.5t-51.5 -193zM576.5 256
q-79.5 0 -136 56.5t-56.5 135.5v659q0 90 -60 169q-68 86 -68 196q0 87 43 161t116.5 117t161 43t161 -43t116 -117t42.5 -161q0 -109 -66 -195q-62 -80 -62 -170v-659q0 -80 -56 -136t-135.5 -56zM128 448q0 -91 35.5 -174t95.5 -143t143 -95.5t174.5 -35.5t174.5 35.5
t143 95.5t95 143t35 174v659q2 1 2 2q4 9 6 11q120 155 120 352q0 118 -45.5 224.5t-122.5 183.5t-183.5 122.5t-224 45.5t-224 -45.5t-183.5 -122.5t-123 -184t-46 -224q0 -197 120 -352q5 -6 8 -11v-2v-659zM768 1472q0 80 -56 136.5t-135.5 56.5t-136 -56.5t-56.5 -136.5
q0 -62 36 -111.5t92 -69.5v-203q0 -26 19 -45t45.5 -19t45 19t18.5 45v203q57 20 92.5 69.5t35.5 111.5z" />
</svg>