<svg xmlns="http://www.w3.org/2000/svg" xmlns:xlink="http://www.w3.org/1999/xlink" version="1.1" viewBox="-10 0 2068 2048">
   <path fill="currentColor"
d="M2035 1613q7 23 6 37q2 53 -42 107.5t-105 88t-114 35.5q-47 2 -88.5 -20.5t-63.5 -62.5q-663 23 -1208 0q-22 40 -64 62t-89 21q-52 -2 -113 -35.5t-105 -88t-43 -107.5q2 -20 7 -38q-16 -26 -11.5 -38.5t30.5 -3.5q17 -25 39 -49q-7 -29 3.5 -37t36.5 5q23 -17 56 -33
q0 -26 12 -34t25.5 -2.5t24.5 16.5q56 -9 95 20v-69q-26 0 -58.5 -13t-64 -44t-40.5 -72q-13 -57 9 -101t80 -69q2 -16 18.5 -33.5t34.5 -22.5q19 -5 32 7t18 30q60 0 75 29q10 -1 30 -3.5t29 -3.5q-13 -10 -29 -16q-22 -39 -88 -42q0 -5 1 -9q-59 -2 -113.5 -18t-81.5 -46
q-37 -41 -45 -115.5t16 -146.5t72 -106q23 -16 50.5 -4.5t30.5 39.5q1 6 2 17q3 27 5.5 38t12 21.5t26.5 13t48 1.5q47 -46 94 -71q-23 0 -31.5 -1t-31 1.5t-31 3.5t-31 5t-31.5 5q2 -2 16.5 -16t18.5 -18t17.5 -16.5t21.5 -18.5l24 -18t29.5 -20.5t33 -20t40.5 -22.5
q141 -71 271 -83q-16 -7 -34.5 -13.5t-33 -10.5t-37.5 -10t-34.5 -8.5t-38 -8.5t-34.5 -8q570 -122 868 134q94 81 152 214q21 2 38 3t29.5 1t22.5 -3t16.5 -5.5t11.5 -8.5t7.5 -10.5t4.5 -14t2.5 -15t1.5 -18t2 -19.5q3 -28 31 -39t50 5q71 50 88 172q7 54 -3.5 107.5
t-41.5 87.5q-27 30 -80.5 46.5t-110.5 18.5v9q-68 2 -91 42q-13 5 -29 16q11 1 30.5 3.5t28.5 3.5q5 -14 27 -22t47 -8q5 -17 19 -29t32 -8q19 4 35 22t18 35q75 29 89 92q9 38 1 77q-9 42 -41 73t-64 43.5t-58 12.5q0 47 -1 70q40 -29 95 -20q12 -12 26 -17t25.5 3.5
t11.5 33.5q36 18 56 33q27 -12 37 -3.5t1 35.5q27 29 40 49q26 -10 30.5 3t-11.5 39zM1773 710q80 31 108 127q4 -35 -9 -94.5t-40 -87.5q-19 -18 -34.5 -16t-15.5 19q0 27 -9 52zM1757 733q-13 13 -50 20q34 41 45.5 104.5t-0.5 119.5q64 -14 92 -43q13 -15 18 -27
q-3 -62 -29.5 -110.5t-75.5 -63.5zM1671 758q-16 0 -42 -2q40 108 51 230q20 0 41 -3q16 -65 1.5 -129t-51.5 -96zM169 836q28 -96 108 -127q-9 -25 -9 -52q0 -17 -15.5 -19.5t-34.5 16.5q-27 28 -40 87t-9 95zM204 934q26 29 93 43q-11 -59 1 -121t45 -103q-36 -7 -50 -20
q-49 15 -75.5 63.5t-30.5 110.5q9 18 17 27zM374 986q14 -119 71 -225q-25 6 -53 17l-44 18v-1q-20 38 -25 88t6 100q24 3 45 3zM1028 408q-112 0 -191.5 79t-79.5 190q0 112 79.5 192t191.5 80t191.5 -80t79.5 -192t-79.5 -190.5t-191.5 -78.5zM1438 1027l-140 -3
q5 23 8.5 45.5t6.5 42.5t4 31.5t3 29.5q5 47 10.5 57t26.5 0q39 -20 59.5 -82t21.5 -121zM1247 1022q-101 -2 -203 0v-1q-1 25 2.5 82t12.5 64q28 13 90.5 13.5t91.5 -9.5q9 -3 10.5 -37.5t-0.5 -67t-4 -44.5zM990 1213q7 -4 9 -46.5t0 -84.5t-5 -60v-1q-203 3 -205 3
q-4 19 -6.5 59.5t0.5 79.5t13 44q33 14 97 15t97 -9zM611 1031q-15 57 4.5 114t74.5 82q14 7 22.5 4t11.5 -20q4 -15 9 -86t9 -99q-89 2 -131 5zM486 1142q9 9 2 22.5t-31 22.5q127 136 261.5 231.5t292.5 147.5q87 -25 166 -63.5t152 -91.5t131 -104t130 -122
q-9 -4 -15.5 -8.5t-9 -8t-3.5 -8t-0.5 -7t1.5 -6l1 -3.5q-17 -2 -47.5 -5.5t-45.5 -4.5q-25 87 -79 127q-50 37 -80 -2q-4 -5 -7 -12q-6 -11 -17 -60q-3 6 -6.5 11t-9.5 8t-10.5 5t-13.5 3t-14 1.5t-16.5 1.5t-16.5 1q-100 8 -157 -11q-7 30 -24.5 38t-61.5 12q-6 1 -9 1
q-172 17 -195 -38q-2 61 -55 52q-46 -8 -87 -54q-11 -11 -18 -23q-14 -24 -25 -63q-52 5 -83 10zM409 1755q3 -14 3 -29q-16 -68 -49 -124.5t-70 -66.5q-29 -9 -71.5 4.5t-80 40.5t-62 67.5t-21.5 80.5q34 51 96 89.5t113 40.5q49 2 91 -27t51 -76zM378 1521q54 95 59 184
q187 -108 376 -166q-93 -50 -171 -114.5t-174 -160.5q-8 5 -28 13q-2 7 5 13t13 13t1 18q-13 22 -53 33q-9 12 -28 23h-1q-2 80 1 144zM1577 1750q-117 -68 -213.5 -114t-197.5 -74q-81 36 -149 55q-7 3 -15 0q-61 -19 -125 -47q-201 58 -399 180h-1v1q1 0 1 -1
q530 20 1099 0zM1614 1706q3 -40 19 -91t40 -92l-1 1q3 -74 3 -147q-14 -8 -29 -24q-17 -4 -32.5 -13t-21.5 -19q-9 -18 21 -37q-1 -2 -1 -8q-14 -4 -27 -12q-201 187 -368 274q189 55 397 168zM1991 1728q4 -40 -20.5 -80.5t-62 -67.5t-80 -40.5t-72.5 -4.5q-37 11 -70 67
t-49 124q0 60 44.5 97t98.5 35q52 -2 115 -40.5t96 -89.5zM1326 382q-95 -105 -212 -126.5t-236 43.5q22 -48 63.5 -80.5t89.5 -44t99.5 -4.5t93.5 31.5t70.5 71.5t31.5 109zM267 1562q38 -5 60.5 35.5t5.5 72.5q-12 26 -53.5 57.5t-74.5 40.5q-44 12 -79.5 -5t-35.5 -48
q0 -45 65 -96.5t112 -56.5zM1033 935q-85 0 -141 -62.5t-37 -150.5q23 35 63 41t71 -17t31 -63q0 -27 -16.5 -48t-42.5 -29q33 -14 70 -15t69.5 12t59.5 35t42.5 55t15.5 70q0 71 -54 121.5t-131 50.5zM242 1799q-1 -21 38.5 -52.5t65.5 -36.5q22 -4 33 20.5t2 44.5
q-8 15 -26 33t-36 25q-24 9 -49.5 -3.5t-27.5 -30.5zM1782 1562q47 5 111 56.5t64 96.5q0 31 -35.5 48t-79.5 5q-32 -9 -73.5 -40.5t-54.5 -57.5q-16 -32 7 -72.5t61 -35.5zM1702 1710q27 5 66 36.5t37 52.5q-1 18 -26 30.5t-49 3.5q-18 -7 -36.5 -25t-25.5 -33
q-9 -20 2 -44.5t32 -20.5z" />
</svg>