<svg xmlns="http://www.w3.org/2000/svg" xmlns:xlink="http://www.w3.org/1999/xlink" version="1.1" viewBox="-10 0 2068 2048">
   <path fill="currentColor"
d="M2048 1104q0 101 -104.5 187t-284 135.5t-391.5 49.5q-105 0 -228 -16q48 2 76 2q212 0 391.5 -55t284 -148.5t104.5 -204.5q0 -69 -43 -132.5t-121 -115.5q146 51 231 129.5t85 168.5zM152 994q0 69 44 132.5t122 115.5q-147 -52 -232.5 -130t-85.5 -168
q0 -100 104 -186t283.5 -136t390.5 -50q119 0 228 14h-76q-211 0 -390.5 55t-283.5 148.5t-104 204.5zM346 1120l28 -34q3 4 8.5 9.5t23 14t34 8.5t28.5 -8t12 -24q0 -15 -20.5 -27.5t-44.5 -21.5t-44.5 -29.5t-20.5 -49.5q0 -33 26.5 -54.5t65.5 -21.5q30 0 55 13.5
t25 40.5v24h-44v-12q0 -9 -11 -15.5t-25 -6.5q-18 0 -29 9t-11 21.5t13 22t32 17t37.5 17t32 27.5t13.5 42q0 34 -24.5 58t-65.5 24q-27 0 -50.5 -11t-33.5 -22zM732 886h50v176q0 45 -29.5 73.5t-76.5 28.5q-49 0 -78.5 -28.5t-29.5 -73.5v-176h50v174q0 27 15.5 41.5
t42 14.5t41.5 -14.5t15 -41.5v-174zM842 1158v-230h-24v-42h124q39 0 62.5 24.5t23.5 64t-23.5 64.5t-62.5 25h-50v94h-50zM892 1022h40q22 0 34 -13t12 -35q0 -21 -12 -33.5t-32 -12.5h-42v94zM1074 1158v-230h-24v-42h126q38 0 62 24.5t24 64t-24 64.5t-62 25h-50v94h-52z
M1124 1022h42q21 0 32.5 -12.5t11.5 -35.5q0 -21 -11.5 -33.5t-32.5 -12.5h-42v94zM1308 1132v-194q0 -10 -8 -10h-16v-42h48q26 0 26 26v196q0 8 8 8h60q10 0 10 -8v-16h44v40q0 26 -26 26h-120q-26 0 -26 -26zM1510 1132v-204h-24v-42h164q26 0 26 26v42h-46v-18
q0 -8 -6 -8h-62v72h88v42h-88v66q0 8 8 8h62q10 0 10 -8v-16h46v40q0 26 -28 26h-124q-26 0 -26 -26zM1700 890h-10v-4h22v4h-8v18h-4v-18zM1718 886h8l6 16l6 -16h8v22h-6v-18l-6 18h-4l-8 -18v18h-4v-22z" />
</svg>