<svg xmlns="http://www.w3.org/2000/svg" xmlns:xlink="http://www.w3.org/1999/xlink" version="1.1" viewBox="-10 0 2068 2048">
   <path fill="currentColor"
d="M1366 1820h-1054h-84q-94 0 -161 -67t-67 -161v-1138q0 -93 67 -159.5t161 -66.5h418q94 0 160 66l94 94q66 66 162 66h416q94 0 161 67t67 161v114h-170v-114q0 -24 -17 -40t-41 -16h-416q-80 0 -152.5 -30.5t-129.5 -87.5l-94 -94q-18 -16 -40 -16h-418q-24 0 -41 16.5
t-17 39.5v930l244 -418q15 -26 41.5 -41t56.5 -15h1422q31 0 57.5 15.5t40.5 42.5q16 26 16 56t-16 56l-398 684q-15 26 -41.5 41t-56.5 15h-170z" />
</svg>