<svg xmlns="http://www.w3.org/2000/svg" xmlns:xlink="http://www.w3.org/1999/xlink" version="1.1" viewBox="-10 0 2058 2048">
   <path fill="currentColor"
d="M1428 0q0 109 -20 206t-48.5 167.5t-79 137t-92 108.5t-108.5 89t-106.5 70t-107.5 60q-1 0 -3.5 1t-2.5 2q-60 33 -89.5 50.5t-75 48.5t-67.5 54t-51 59.5t-42 74.5t-23 89.5t-10 112.5h-392q0 -109 19.5 -206t48 -167.5t79 -137t92 -108.5t108.5 -89t106.5 -70
t106.5 -60q59 -32 90 -50t76.5 -48t68.5 -54t51.5 -60.5t42 -75t22.5 -90.5t9 -114h396h2zM1184 1211q60 -32 90.5 -49.5t76.5 -48t69 -54t52 -60.5t42 -75.5t22.5 -90.5t9.5 -114h392q0 109 -20 206t-48 167t-79 137t-91.5 108t-108.5 88.5t-106 70t-107 60.5
q-60 32 -90.5 49.5t-76 48t-69 54.5t-52 60.5t-41.5 75t-23 90.5t-10 114h-392q0 -109 20 -206t48.5 -167.5t79 -137t91.5 -108t108 -88.5t106.5 -70t106.5 -60z" />
</svg>