<svg xmlns="http://www.w3.org/2000/svg" xmlns:xlink="http://www.w3.org/1999/xlink" version="1.1" viewBox="-10 0 2068 2048">
   <path fill="currentColor"
d="M642 308l-26 74l82 -59q26 -19 57 -14.5t49 30.5q19 26 14.5 57.5t-30.5 50.5l-92 66h72q40 0 74 18.5t56 51.5q-57 43 -91 106.5t-39 137.5q-66 17 -110 72t-44 126v717q0 52 28 102h-488q-64 0 -109 -45t-45 -108v-1025q0 -64 45 -108.5t109 -44.5h70l-90 -66
q-26 -19 -30.5 -50.5t14.5 -57.5q18 -26 49 -30.5t57 14.5l88 64l-26 -81q-11 -31 3.5 -59t44.5 -38q31 -11 59 3.5t39 45.5l32 95l34 -96q10 -30 38.5 -44t58.5 -3.5t44 39.5t3 59zM1164 800q-26 -32 -62 -32q-32 0 -55 23t-23 54.5t22.5 54.5t53.5 23h158zM870 846
q0 -96 68 -163.5t164 -67.5q53 0 101.5 23.5t80.5 66.5l98 128l98 -128q34 -43 81.5 -66.5t100.5 -23.5q96 0 164 67.5t68 163.5q0 42 -12 77h12q64 0 109 44.5t45 108.5v256h-614v-307h-102v307h-616v-256q0 -64 45.5 -108.5t108.5 -44.5h14q-14 -35 -14 -77zM716 1691
v-257h616v410h-462q-63 0 -108.5 -45t-45.5 -108zM1434 1844v-410h614v257q0 63 -45 108t-109 45h-460zM1740 845.5q0 -31.5 -23 -54.5t-55 -23q-35 0 -60 32l-96 123h158q31 0 53.5 -23t22.5 -54.5z" />
</svg>