<svg xmlns="http://www.w3.org/2000/svg" xmlns:xlink="http://www.w3.org/1999/xlink" version="1.1" viewBox="-10 0 2058 2048">
   <path fill="currentColor"
d="M1535 1407l-8 8t-7.5 8.5t-6 8.5t-5 11t-1 13t1.5 18t6 23l40 141q-381 -81 -421 -91q-30 -3 -52 10t-22 41l24 450h-120q23 -410 23 -450q0 -28 -22 -41t-51 -10l-421 91q19 -81 40 -141q3 -11 5 -20.5t3 -16t-1 -13.5t-2.5 -10t-5 -9t-5.5 -7t-7.5 -7t-7.5 -7
l-420 -370l70 -30q27 -13 29 -33t-9 -36l-80 -270q191 40 231 50q13 1 19 2.5t13 -6.5t9.5 -11.5t7.5 -14.5l60 -130q211 240 221 250q30 22 54 7t16 -46q0 -18 -27.5 -147.5t-55.5 -250.5l-27 -121q120 69 160 89q22 16 39 12.5t31 -32.5l171 -319q150 289 171 319
q14 29 31 32.5t39 -12.5l160 -89q-110 479 -110 519q-8 31 16 46t54 -7l220 -250q50 110 60 130q5 10 8 15t10 12t14 6t19 -2l230 -50q-71 239 -81 269q-11 16 -8.5 36t29.5 33l70 30q-411 360 -421 370z" />
</svg>