<svg xmlns="http://www.w3.org/2000/svg" xmlns:xlink="http://www.w3.org/1999/xlink" version="1.1" viewBox="-10 0 2067 2048">
   <path fill="currentColor"
d="M1024 31q59 0 84 51l265 549l594 88q27 4 47.5 21t27.5 42q16 55 -23 94l-431 428l102 604q10 56 -37 90q-22 16 -49 18t-50 -11l-530 -284l-530 283q-23 13 -50.5 11.5t-48.5 -17.5q-47 -36 -38 -91l102 -603l-430 -428q-39 -39 -23 -94q7 -25 27.5 -42t46.5 -21
l594 -88l266 -549q25 -51 84 -51zM1024 337l-204 420q-23 45 -70 51l-458 67l333 330q34 34 26 82l-79 464l408 -218q44 -24 88 0l407 218l-78 -464q-8 -47 27 -81l332 -330l-458 -68q-49 -6 -71 -51z" />
</svg>