<svg xmlns="http://www.w3.org/2000/svg" xmlns:xlink="http://www.w3.org/1999/xlink" version="1.1" viewBox="-10 0 2068 2048">
   <path fill="currentColor"
d="M146 0h732q119 0 227 46t187 124.5t125.5 186.5t46.5 227v732q0 60 -43.5 103t-104 43t-103.5 -43t-43 -103v-732q0 -121 -86 -206.5t-206 -85.5h-586v1610q0 60 -43 103t-103 43t-103 -43t-43 -103v-1756q0 -60 43 -103t103 -43zM1464 2048h-732q-60 0 -103 -43
t-43 -103v-1170q0 -60 43 -104t102.5 -44t103 44t43.5 104v1024h586q120 0 206 -86.5t86 -207.5v-1316q0 -60 43 -103t103 -43t103 43t43 103v1316q0 119 -46.5 227.5t-124.5 187t-186.5 125t-226.5 46.5z" />
</svg>