<svg xmlns="http://www.w3.org/2000/svg" xmlns:xlink="http://www.w3.org/1999/xlink" version="1.1" viewBox="-10 0 2066 2048">
   <path fill="currentColor"
d="M1314 869q0 64 -45.5 109.5t-108.5 45.5h-290v-308h290q63 0 108.5 44.5t45.5 108.5zM2046 1024q0 139 -36.5 272t-102.5 245.5t-160.5 207t-206.5 160t-244.5 102.5t-272 37t-272 -37t-244.5 -102.5t-206 -160t-160 -207t-102.5 -245.5t-36.5 -272t36.5 -272
t102.5 -245.5t160 -207t206 -160t244.5 -102.5t272 -37t272 37t244.5 102.5t206.5 160t160.5 207t102.5 245.5t36.5 272zM1518 869q0 -97 -48 -179.5t-130.5 -130t-179.5 -47.5h-494v1024h204v-308h290q97 0 179.5 -48t130.5 -131t48 -180z" />
</svg>