<svg xmlns="http://www.w3.org/2000/svg" xmlns:xlink="http://www.w3.org/1999/xlink" version="1.1" viewBox="-10 0 2068 2048">
   <path fill="currentColor"
d="M1469 958q-76 14 -151.5 -9.5t-132.5 -80.5l-135 -136q-40 -39 -62 -91.5t-22 -108.5v-44l-283 -154q-31 -18 -30 -52q2 -35 34 -50l168 -74q97 -44 208 -44h65q99 0 189 35.5t161 102.5l159 150q64 60 88 142t6 164l56 56l29 -28q26 -25 60.5 -25t59.5 25l86 84
q26 26 26 62t-26 60l-313 312q-25 26 -60.5 26t-60.5 -26l-85 -84q-25 -26 -25 -61t25 -59l28 -30zM97 1454l830 -690q26 33 42 50l136 134q34 34 67 56l-693 832q-39 47 -93.5 72.5t-114.5 25.5q-112 0 -191.5 -80t-79.5 -192q0 -60 25.5 -114.5t71.5 -93.5z" />
</svg>