<svg xmlns="http://www.w3.org/2000/svg" xmlns:xlink="http://www.w3.org/1999/xlink" version="1.1" viewBox="-10 0 2068 2048">
   <path fill="currentColor"
d="M429 1024q0 169 56 325t152.5 275t231.5 200t288 107q-112 27 -219 27q-128 0 -249.5 -33.5t-224 -93.5t-189 -146.5t-147 -189t-94 -223.5t-33.5 -248t33.5 -248t94 -223.5t147 -189t189 -146.5t224 -93.5t249.5 -33.5q112 0 219 26q-153 26 -288 107t-231.5 200
t-152.5 275.5t-56 325.5zM1548 1401q108 -77 182 -184t106.5 -223t24 -239.5t-60.5 -233.5q70 64 115 128q85 122 115.5 267t7 282.5t-100.5 263.5t-197.5 213t-264 118t-279.5 7.5t-261 -101.5t-210 -200q-52 -73 -82 -153q113 116 268.5 165t324 21t312.5 -131zM725 482
q134 -101 292.5 -127t303 27t237.5 175q83 110 101 247.5t-30.5 272t-153.5 239.5q34 -98 36.5 -200.5t-30 -204.5t-98.5 -189q-120 -158 -305 -218.5t-369 -9.5q2 -2 7.5 -6t8.5 -6zM1115 903h151q12 0 20.5 9t8.5 21v180q0 12 -9 21.5t-20 9.5h-151q-12 0 -21.5 9t-9.5 21
v150q0 12 -9 21.5t-20 9.5h-181q-12 0 -21 -9.5t-9 -21.5v-150q0 -12 -9 -21t-21 -9h-151q-12 0 -21 -9.5t-9 -21.5v-180q0 -12 9 -21t21 -9h151q12 0 21 -9t9 -21v-151q0 -12 9 -21t21 -9h181q12 0 20.5 9t8.5 21v151q0 12 9.5 21t21.5 9z" />
</svg>