<svg xmlns="http://www.w3.org/2000/svg" xmlns:xlink="http://www.w3.org/1999/xlink" version="1.1" viewBox="-10 0 2068 2048">
   <path fill="currentColor"
d="M1024 256q-155 0 -297.5 61t-245.5 163.5t-164 245t-61 298.5t61 298.5t164 245.5t245.5 164t297.5 61q-104 0 -192.5 -51.5t-140 -140.5t-51.5 -193t51.5 -192.5t140 -140t193 -51.5t193 -51.5t139.5 -140t51 -192.5t-51 -192.5t-139.5 -140t-193.5 -51.5zM1024.5 2048
q-139.5 0 -272 -37t-245 -102.5t-207 -160t-160.5 -207t-103 -245.5t-37 -272t37 -272t103 -245.5t160.5 -207t207 -160t245 -102.5t272 -37t272 37t244.5 102.5t206.5 160t160.5 207t103 245.5t37 272t-37 272t-103 245.5t-160.5 207t-206.5 160t-244.5 102.5t-272 37z
M1152 640q0 53 -37.5 91t-90 38t-90.5 -38t-38 -90.5t38 -90.5t90.5 -38t90 37.5t37.5 90.5zM896 1408q0 52 38 90t90.5 38t90 -37.5t37.5 -90.5t-37.5 -90.5t-90 -37.5t-90.5 38t-38 90z" />
</svg>