<svg xmlns="http://www.w3.org/2000/svg" xmlns:xlink="http://www.w3.org/1999/xlink" version="1.1" viewBox="-11 0 2070 2048">
   <path fill="currentColor"
d="M1663 1153q-148 0 -271 77t-187 205l-929 -929l3 -2l240 -241q129 -129 296.5 -196.5t337 -67.5t336.5 67.5t296 196.5q132 132 199.5 302.5t63.5 348.5t-76 342q-136 -103 -309 -103zM197 608l963 964q-8 48 -8 93q0 137 67 254q-12 1 -36 1h-11q-101 0 -195.5 -39
t-166.5 -111l-39 -39q-39 -39 -94.5 -37t-92.5 44l-231 266q-36 42 -92 44q-55 1 -95 -38l-128 -128q-39 -40 -38 -95q2 -55 45 -92l266 -231q42 -37 44 -92t-37 -94l-39 -40q-72 -72 -111.5 -166.5t-39.5 -195.5v-10q0 -135 69 -257v-1zM1663.5 1280q104.5 0 193 51.5
t139.5 140t51 193t-51 192.5t-139.5 139.5t-193 51.5t-192.5 -51.5t-139.5 -139.5t-51.5 -192.5t51.5 -193t139.5 -140t192.5 -51.5z" />
</svg>