<svg xmlns="http://www.w3.org/2000/svg" xmlns:xlink="http://www.w3.org/1999/xlink" version="1.1" viewBox="-10 0 2068 2048">
   <path fill="currentColor"
d="M1460 1498q-100 -231 -230 -231q-49 0 -100 38h-4q-41 40 -56 59q-104 104 -172 104q-55 0 -112 -41q-55 -38 -122 -38q-131 0 -286 147q-118 118 -138 176q-9 16 0 25q9 17 26 17h1240q12 0 22 -13q8 -9 8 -25l-8 -29q-14 -36 -30 -88q-15 -52 -38 -101zM1356 873
q0 62 -44 109q-44 46 -111.5 46t-110.5 -46q-44 -47 -44 -109q0 -67 44 -114q43 -46 110.5 -46t111.5 46q44 47 44 114zM1926 21h-1526q-52 0 -86 35q-36 36 -36 86v109h-156q-49 0 -86 38q-36 37 -36 88v1528q0 50 36 86t86 36h1528q50 0 86 -36q34 -35 34 -86v-109h156
q50 0 86 -38q36 -36 36 -88v-1528q0 -51 -35 -86t-87 -35zM1520 1880h-1272q-40 0 -70 -32t-30 -73v-1272q0 -41 30 -71q28 -29 70 -29h1272q42 0 72 29q32 30 32 71v1272q0 11 -4 21q-17 84 -100 84zM1902 1544q0 41 -32 71t-74 30h-26v-1268q0 -52 -34 -88
q-37 -38 -86 -38h-1222q17 -83 102 -83h1270q42 0 72 31t30 73v1272z" />
</svg>