<svg xmlns="http://www.w3.org/2000/svg" xmlns:xlink="http://www.w3.org/1999/xlink" version="1.1" viewBox="-10 0 2067 2048">
   <path fill="currentColor"
d="M1016 854l-138 71q-17 -36 -45 -56t-42.5 -23t-25.5 -3q-137 0 -137 181q0 79 33.5 130t103.5 51q89 0 127 -88l125 64q-13 23 -31 45.5t-50.5 51.5t-81 46.5t-105.5 17.5q-33 0 -68 -6t-79.5 -27t-78 -54t-57 -93t-23.5 -138q0 -70 19.5 -126t50.5 -91t72 -58.5t80 -33
t78 -9.5q190 0 273 148zM1606 854l-136 71q-13 -28 -32 -47t-38 -25.5t-28 -8t-17 -1.5q-137 0 -137 181q0 79 33.5 130t103.5 51q88 0 126 -88l128 64q-7 12 -14 23.5t-32 39.5t-52.5 47t-73 35t-96.5 16q-34 0 -68.5 -6t-79 -26.5t-78 -53.5t-56.5 -93t-23 -139
q0 -70 19.5 -126t50 -91t71 -58.5t80 -33t78.5 -9.5q189 0 271 148zM1022 0q215 0 406 80.5t326.5 217.5t214 326.5t78.5 399.5q0 178 -55 339t-152 284.5t-225.5 214.5t-280.5 138.5t-312 47.5q-204 0 -392 -80.5t-326 -216.5t-220.5 -326.5t-82.5 -400.5q0 -136 35 -266.5
t98.5 -243t156.5 -208t204.5 -163t246.5 -105.5t280 -38zM1026 1861q106 0 210 -27.5t196.5 -77.5t171.5 -125.5t136.5 -166.5t90 -204t32.5 -236q0 -173 -66 -329t-178 -268t-267 -177.5t-326 -65.5q-178 0 -336.5 70.5t-268 186.5t-173 268.5t-63.5 314.5
q0 167 66.5 321.5t179 267.5t268.5 180.5t327 67.5z" />
</svg>