<svg xmlns="http://www.w3.org/2000/svg" xmlns:xlink="http://www.w3.org/1999/xlink" version="1.1" viewBox="-11 0 2070 2048">
   <path fill="currentColor"
d="M610 945q97 104 164 242.5t94.5 281.5t14.5 287t-69 259q-16 33 -54 33h-700q-33 0 -50.5 -28t-3.5 -58l504 -1005q15 -31 46 -34t54 22zM978 33q20 -32 53 -32.5t49 31.5l962 1930q14 30 -3.5 58t-50.5 28h-696q-39 0 -54 -33q-37 -73 -114 -220q-62 -117 -93.5 -177.5
t-85.5 -176t-79 -187t-58 -185t-38.5 -197.5t-5 -196t26 -209.5t71.5 -210.5t116 -223z" />
</svg>