<svg xmlns="http://www.w3.org/2000/svg" xmlns:xlink="http://www.w3.org/1999/xlink" version="1.1" viewBox="-10 0 2067 2048">
   <path fill="currentColor"
d="M1025 2048q-208 0 -397.5 -81t-326.5 -218.5t-218.5 -327t-81.5 -397.5t81.5 -397.5t218.5 -327t326.5 -218.5t397.5 -81t397 81t326 218.5t218 327t81 397.5t-81 397.5t-218 327t-326 218.5t-397 81zM1025 68q-194 0 -371 76t-305 204t-204 305t-76 371t76 371t204 305
t305 204t371 76t370.5 -76t304.5 -204t203.5 -305t75.5 -371t-75.5 -371t-203.5 -305t-304.5 -204t-370.5 -76zM1138 158q230 30 416 173q-5 4 -12 11.5t-23 23t-26 26.5l-10 10q-151 -113 -345 -142v-102zM909 158v102q-191 29 -344 143l-71 -72q186 -143 415 -173z
M960 365h128v342q57 11 114 48l243 -242l90 90l-242 243q35 55 47 114h342v127h-342q-12 59 -47 114l242 242l-90 90l-243 -241q-55 35 -114 47v342h-128q-1 -342 0 -342q-59 -12 -114 -47l-242 241l-90 -90l242 -242q-37 -57 -48 -114h-342v-127h342q11 -57 48 -114
l-242 -243l90 -90l242 241q55 -35 114 -47v-342zM1716 493q143 183 173 417q-101 -1 -101 0q-29 -193 -143 -346zM332 493l71 71q-113 151 -142 346h-101q30 -233 172 -417zM160 1138h101q29 193 142 344l-71 73q-142 -184 -172 -417zM1788 1138h101q-30 234 -173 417
l-71 -72q114 -153 143 -345zM565 1644q153 114 344 143v102q-233 -30 -416 -173zM1483 1644h1l70 72q-186 143 -416 173v-102q192 -29 345 -143z" />
</svg>