<svg xmlns="http://www.w3.org/2000/svg" xmlns:xlink="http://www.w3.org/1999/xlink" version="1.1" viewBox="-10 0 2067 2048">
   <path fill="currentColor"
d="M399 302q0 -43 30.5 -73t72.5 -30h1237q43 0 73 30t30 73t-30 73t-73 30h-516v206h103q105 0 200.5 41t164.5 110t110 164.5t41 200.5v206q0 43 -30 73t-73 30h-516h-206q-48 0 -92 -22t-74 -60l-229 -307q-15 -21 -45 -33l-439 -177q-49 -19 -62 -70l-74 -298
q-6 -24 9.5 -44t40.5 -20h88q53 0 83 41l124 165h670v-206h-515q-42 0 -72.5 -30t-30.5 -73zM1223 1230h412v-103q0 -128 -90 -218.5t-219 -90.5h-103v412zM2017 1570q30 30 30 73t-30 73l-12 12q-58 58 -134 89.5t-158 31.5h-903q-42 0 -72.5 -30t-30.5 -73t30.5 -73
t72.5 -30h903q86 0 146 -60l12 -12q30 -30 73.5 -30t73.5 30z" />
</svg>