<svg xmlns="http://www.w3.org/2000/svg" xmlns:xlink="http://www.w3.org/1999/xlink" version="1.1" viewBox="-11 0 2069 2048">
   <path fill="currentColor"
d="M1024 1792q-217 0 -416 -72q-97 71 -217 124q-178 76 -326 76q-20 0 -36.5 -11t-23.5 -29q-8 -18 -4 -37t18 -33v0v0h1q0 -1 2.5 -2.5t3.5 -3.5q14 -17 19 -22q36 -46 61 -88q76 -124 86 -250q-191 -219 -191 -484q0 -113 36.5 -220.5t102.5 -199t160.5 -168t207 -130.5
t245 -84t271.5 -30t271.5 30t245 84t207 130.5t160.5 168t103 199t37 221t-37 221t-103 199t-160.5 168t-207 130.5t-245 83.5t-271.5 29.5zM1104 544q0 -33 -23.5 -56.5t-56.5 -23.5t-56.5 23.5t-23.5 56.5v56q-45 10 -89 36q-46 27 -74.5 71t-28.5 103q0 105 99 164
q44 26 143 56h6q83 25 112 44q15 9 19.5 16t4.5 16q0 28 -24 42q-31 20 -86 18q-43 0 -139 -32q-3 -1 -13 -5t-16 -5q-32 -11 -61.5 4t-40 46.5t4 61t46.5 40.5q4 1 13 3.5t12 4.5v0q60 22 112 34v58q0 34 23.5 57t56.5 23t56.5 -23t23.5 -57v-54q52 -12 92 -36
q46 -29 73.5 -75t26.5 -105q-1 -105 -98 -166q-42 -27 -149 -62h-2q-90 -27 -114 -42q-10 -6 -15 -11t-5.5 -7.5t-0.5 -7.5q0 -23 25 -38q34 -20 86 -20q57 2 125 20q32 9 60.5 -7t36.5 -49q8 -32 -8 -61t-48 -37q-38 -12 -85 -18v-56z" />
</svg>