<svg xmlns="http://www.w3.org/2000/svg" xmlns:xlink="http://www.w3.org/1999/xlink" version="1.1" viewBox="-10 0 2068 2048">
   <path fill="currentColor"
d="M1346 626v1q-28 -23 -39 -57t1 -68l122 -306q16 -39 54.5 -53t75.5 7q130 81 226 189q28 31 21 71t-41 63l-270 181q-31 20 -68.5 15.5t-65.5 -29.5q-10 -10 -16 -14zM1312 147l-122 303q-13 33 -45 50t-71 14q-32 -2 -50 -2q-16 0 -50 2q-39 3 -71 -14t-45 -50
l-122 -303q-16 -39 2 -76t58 -46q109 -25 228 -25q113 0 228 25q40 9 58 46.5t2 75.5zM262 339q96 -107 228 -189q37 -21 74.5 -7t53.5 53l122 306q13 33 2 67.5t-40 57.5q-2 2 -7 6.5t-7 6.5q-29 25 -66.5 29.5t-69.5 -15.5l-268 -180q-35 -23 -42 -63.5t20 -71.5z
M1518 889v-1q-10 -35 0.5 -69t39.5 -53l274 -183q34 -23 75.5 -12.5t58.5 48.5q63 148 78 309q2 40 -25 68t-67 28h-320q-39 0 -68 -27.5t-36 -67.5q-2 -8 -6 -22.5t-4 -17.5zM216 583l274 183q29 19 39.5 53t0.5 70q-8 37 -8 40q-8 40 -37.5 67.5t-68.5 27.5h-320
q-40 0 -67 -28.5t-25 -67.5q15 -158 80 -309q16 -39 56.5 -49.5t75.5 13.5zM416 1152q40 0 68 28.5t28 68.5v191q0 40 -28 68t-68 28h-320q-39 0 -67.5 -28t-28.5 -68v-191q0 -40 28.5 -68.5t67.5 -28.5h320zM1632 1152h320q40 0 68 28.5t28 68.5v191q0 40 -28 68t-68 28
h-320q-40 0 -68 -28t-28 -68v-191q0 -40 28 -68.5t68 -28.5zM96 1665h320q40 0 68 27.5t28 67.5v192q0 40 -28 68t-68 28h-320q-39 0 -67.5 -28t-28.5 -68v-192q0 -40 28.5 -67.5t67.5 -27.5zM1632 1665h320q40 0 68 27.5t28 67.5v192q0 40 -28 68t-68 28h-320
q-40 0 -68 -28t-28 -68v-192q0 -40 28 -67.5t68 -27.5zM1088 769v1088q0 26 -18.5 44.5t-45 18.5t-45.5 -18.5t-19 -44.5v-1088q0 -26 19 -45.5t45.5 -19.5t45 19.5t18.5 45.5zM832 896v961q0 26 -18.5 44.5t-45 18.5t-45.5 -18.5t-19 -44.5v-961q0 -26 19 -44.5t45.5 -18.5
t45 18.5t18.5 44.5zM1344 896v961q0 26 -18.5 44.5t-45 18.5t-45.5 -18.5t-19 -44.5v-961q0 -26 19 -44.5t45.5 -18.5t45 18.5t18.5 44.5z" />
</svg>