<svg xmlns="http://www.w3.org/2000/svg" xmlns:xlink="http://www.w3.org/1999/xlink" version="1.1" viewBox="-10 0 2068 2048">
   <path fill="currentColor"
d="M1366 568h-684q-92 0 -176 36.5t-145 97.5t-97 145t-36 176.5t36 176.5t97 145t145 97t176 36h684q92 0 176 -36t145 -97t97 -145t36 -176.5t-36 -176.5t-97 -145t-145 -97.5t-176 -36.5zM2048 1023.5q0 138.5 -54.5 265t-145.5 218t-217.5 145.5t-264.5 54h-684
q-138 0 -264.5 -54t-217.5 -145.5t-145.5 -218t-54.5 -265t54.5 -265t145.5 -217.5t217.5 -145t264.5 -54h684q138 0 264.5 54t217.5 145t145.5 217.5t54.5 265zM682.5 1364q-92.5 0 -171.5 -45t-124 -124t-45 -171.5t45 -171.5t124 -124.5t171.5 -45.5t171.5 45.5
t124.5 124.5t45.5 171.5t-45.5 171.5t-124.5 124t-171.5 45z" />
</svg>