<svg xmlns="http://www.w3.org/2000/svg" xmlns:xlink="http://www.w3.org/1999/xlink" version="1.1" viewBox="-10 0 2068 2048">
   <path fill="currentColor"
d="M1022.5 220q159.5 0 304 62t249.5 167.5t166.5 250.5t61.5 304t-61.5 304t-166.5 250t-249.5 167t-304 62t-304 -62t-249.5 -167.5t-167 -250.5t-62 -304t62 -304t167 -250t249.5 -167t304 -62zM1386 1317v-3q3 -13 3.5 -52t0.5 -263v-448q0 -20 -11 -30.5t-31 -9.5
q-5 0 -526 98q-11 0 -30 13q-14 11 -16 29q-1 7 0 307.5t-12 304.5q-11 13 -34 16q-8 1 -29 5t-27.5 5.5t-23.5 5t-24 6t-20 6.5t-20 8.5t-16 10t-16 12.5q-32 31 -34 74t25.5 78t74.5 44q30 5 73.5 -1.5t70.5 -21.5q53 -27 68 -91q6 -25 6 -74v-467q0 -19 7 -26.5t25 -11.5
q400 -74 418 -78q21 -4 30.5 2.5t9.5 25.5v207q1 113 -0.5 133t-9.5 29q-13 14 -36 17q-7 1 -25.5 4.5t-25 5t-21.5 4.5t-21.5 5t-18.5 5t-18 6.5t-15 8t-15.5 9.5t-13.5 11q-36 35 -35 84.5t41 83.5q31 25 69 28.5t77 -6.5q104 -20 126 -109zM1578 0q96 0 183 37
t149.5 99.5t100 149.5t37.5 183v1108q0 96 -37.5 183t-100 150t-149.5 100.5t-183 37.5h-1108q-95 0 -182 -37.5t-150 -100.5t-100.5 -150t-37.5 -183v-1108q0 -96 37.5 -183t100.5 -149.5t150 -99.5t182 -37h1108zM1022.5 1883q119.5 0 233.5 -31.5t210 -88.5t177.5 -138.5
t138 -178t88.5 -210.5t32 -233t-32 -233t-88.5 -210.5t-138 -178t-177.5 -138.5t-210 -88.5t-233.5 -31.5t-233.5 31.5t-210.5 88.5t-178 138.5t-138 178t-88.5 210.5t-32 233t32 233t88.5 210.5t138 178t178 138.5t210.5 88.5t233.5 31.5z" />
</svg>