<svg xmlns="http://www.w3.org/2000/svg" xmlns:xlink="http://www.w3.org/1999/xlink" version="1.1" viewBox="-10 0 2068 2048">
   <path fill="currentColor"
d="M900 239l-290 558h828l-290 -558q-17 -32 -6.5 -65.5t42.5 -49.5q31 -16 64.5 -5.5t49.5 41.5l332 637h304q47 0 80.5 33.5t33.5 80.5t-33.5 80t-80.5 33l-184 738q-19 76 -81 124t-141 48h-1008q-79 0 -141 -48t-81 -124l-184 -738q-47 0 -80.5 -33t-33.5 -80
t33.5 -80.5t80.5 -33.5h304l332 -637q16 -31 50 -42t64 6q31 16 42 49.5t-6 65.5zM682 1195q0 -24 -16 -40.5t-39.5 -16.5t-40 17t-16.5 40v342q0 23 16.5 39.5t40 16.5t39.5 -16.5t16 -39.5v-342zM1023.5 1138q-23.5 0 -40.5 17t-17 40v342q0 23 17 39.5t40.5 16.5
t40 -16.5t16.5 -39.5v-342q0 -23 -16.5 -40t-40 -17zM1478 1195q0 -23 -16.5 -40t-40 -17t-39.5 16.5t-16 40.5v342q0 23 16 39.5t39.5 16.5t40 -16.5t16.5 -39.5v-342z" />
</svg>