<svg xmlns="http://www.w3.org/2000/svg" xmlns:xlink="http://www.w3.org/1999/xlink" version="1.1" viewBox="-10 0 2068 2048">
   <path fill="currentColor"
d="M1024.5 0q-424.5 0 -724.5 300t-300 724q0 423 300 723q302 301 724 301q68 0 119 -51t51 -118q0 -73 -42 -115q-48 -64 -48 -114q0 -67 51 -118t119 -51h202q241 0 406 -167q166 -166 166 -404q0 -377 -300 -644q-299 -266 -723.5 -266zM398 1024q-68 0 -118 -51
q-50 -50 -50 -118q0 -70 50 -121q51 -53 118 -53q68 0 119 51t51 123q0 67 -51 118t-119 51zM740 567q-70 0 -121 -51t-51 -118q0 -68 52 -119q53 -51 120 -51q68 0 119 51t51 119q0 67 -51 118t-119 51zM1308 567q-68 0 -119 -51t-51 -118q0 -68 51 -119t118 -51t118 51
t51 119q0 67 -48 118t-120 51zM1650 1024q-68 0 -120 -51q-54 -51 -54 -118q0 -68 53 -121t121 -53q67 0 118 53q52 52 52 121q0 67 -51 118t-119 51z" />
</svg>