<svg xmlns="http://www.w3.org/2000/svg" xmlns:xlink="http://www.w3.org/1999/xlink" version="1.1" viewBox="-10 0 2067 2048">
   <path fill="currentColor"
d="M512 1980q-58 0 -101 -44l-375 -411q-38 -41 -35.5 -98t43.5 -95q42 -38 98.5 -35t94.5 45l138 150v-1287q0 -56 40.5 -96.5t97 -40.5t96 40.5t39.5 96.5v1287l139 -150q39 -42 94.5 -45t96.5 35q42 39 45 95t-35 98l-376 411q-42 44 -100 44zM1751 1186q57 43 57 111
v410h68q57 0 96.5 40t39.5 96t-39.5 96.5t-96.5 40.5h-205h-204q-56 0 -96 -40.5t-40 -96.5t40 -96t96 -40h68v-221l-24 8q-54 18 -104.5 -6.5t-68.5 -78.5t7.5 -105t78.5 -69l205 -68q64 -21 122 19zM1613 320q-35 17 -56.5 50t-21.5 73q0 56 40 96.5t96 40.5q30 0 59 -14
q36 -17 57 -49.5t21 -72.5q0 -56 -40 -97t-97 -41q-28 0 -58 14zM1557 801q-114 -37 -187 -135t-73 -222q0 -102 50 -188.5t136.5 -137t188 -50.5t188.5 50.5t137 137t50 188.5q0 155 -91 278l-208 281q-33 45 -90 53.5t-102 -25.5t-53 -90t25 -101z" />
</svg>