<svg xmlns="http://www.w3.org/2000/svg" xmlns:xlink="http://www.w3.org/1999/xlink" version="1.1" viewBox="-10 0 2068 2048">
   <path fill="currentColor"
d="M228 114h568v455q0 47 33.5 80t80.5 33h456v155l-338 337q-44 45 -60 106l-54 214q-11 49 6 99h-32l-16 -31q-18 -38 -54 -60.5t-78 -22.5q-54 0 -96 35l-40 -137q-10 -30 -35 -49.5t-56.5 -19.5t-56.5 19.5t-34 49.5l-54 176q-5 18 -20 29t-34 11h-30q-23 0 -39.5 17
t-16.5 40t16.5 40t39.5 17h30q57 0 102 -34t62 -88l34 -117l60 199q6 17 19 28t30.5 12t32.5 -7.5t24 -24.5l30 -62q10 -20 32 -20t32 20l30 62q17 32 52 32h226q2 0 5.5 -0.5t4.5 -0.5q21 -2 32 -5l214 -54l14 -3.5t16 -4.5v68q0 94 -67 160.5t-161 66.5h-910
q-94 0 -161 -66.5t-67 -160.5v-1366q0 -94 67 -160.5t161 -66.5zM910 114l456 455h-456v-455zM1954 610l52 52q42 42 42 100.5t-42 100.5l-104 104l-254 -252l106 -105q42 -42 100 -42t100 42zM1110 1255l458 -460l252 253l-458 460q-23 22 -54 30l-214 53q-30 8 -52 -15
q-24 -24 -16 -54l54 -214q7 -31 30 -53z" />
</svg>