<svg xmlns="http://www.w3.org/2000/svg" xmlns:xlink="http://www.w3.org/1999/xlink" version="1.1" viewBox="-10 0 2058 2048">
   <path fill="currentColor"
d="M1036 192h-438l68 51q38 29 38 77t-38 77l-26 19q-31 23 -47.5 56.5t-16.5 71.5l-2 364q0 66 54 103l8 6q30 21 65.5 20.5t66.5 -21.5l200 -146q32 -23 71 -16.5t62.5 38.5t17.5 72t-39 63l-198 145l-216 156q-47 35 -68 80h-202q35 -141 142 -225q-8 -5 -14 -10l-8 -6
q-62 -45 -97 -114t-35 -146v-364q0 -121 74 -215v-2q-35 -27 -54.5 -65t-19.5 -80q0 -75 53.5 -128t128.5 -53h470q153 0 293.5 60t242 161.5t161 242t59.5 294.5q0 67 -12 133l-92 517h-194l98 -551q8 -49 8 -99q0 -115 -44.5 -219.5t-120 -180.5t-180.5 -121t-219 -45z
M470 1729l-66 128h1240l-66 -128h-1108zM1732 1605l106 205q18 34 18 75q0 67 -48 115t-116 48h-1336q-68 0 -116 -48t-48 -115q0 -41 18 -75l106 -205q17 -32 48 -50.5t66 -18.5h1188q35 0 66 18.5t48 50.5zM817 512q33 0 56 23.5t23 56.5t-23 56.5t-56 23.5t-57 -23.5
t-24 -56.5t24 -56.5t57 -23.5z" />
</svg>