<svg xmlns="http://www.w3.org/2000/svg" xmlns:xlink="http://www.w3.org/1999/xlink" version="1.1" viewBox="-10 0 2068 2048">
   <path fill="currentColor"
d="M1000 138h48v104q41 62 69 303.5t29 558.5q-76 -102 -76 -193v-68q0 -25 -8 -63q-3 -13 -10 -23q-11 -15 -28 -15q-15 0 -26 15q-8 12 -10 23q-10 38 -10 63v68q0 90 -76 193q1 -316 29 -558t69 -304v-104zM894 729q-11 175 -14 288q-71 35 -120 98t-66 141
q-49 14 -160 16q-45 -22 -106 -24q13 -92 46 -170q47 25 88 26.5t54 -21.5q14 -23 -7 -58.5t-65 -64.5q59 -78 122 -125q28 47 64.5 70.5t61 10t22 -57.5t-29.5 -93q52 -22 110 -36zM1154 729q60 14 110 36q-27 49 -29 92.5t22 57.5t60.5 -9.5t64.5 -70.5q65 48 122 125
q-43 29 -64.5 64.5t-7.5 58.5q13 23 54 21.5t88 -26.5q33 78 46 170q-61 2 -106 24q-111 -2 -160 -16q-17 -78 -66 -141t-120 -98q-3 -113 -14 -288zM1024.5 764q9.5 0 16.5 23t7 56v68q0 61 34 129t86.5 123t121 91.5t132.5 36.5h24q70 0 109 0.5t108 3.5t114.5 10.5
t100 20t96.5 33.5t74 49v9q-62 110 -132 193q-41 -69 -156.5 -117t-275.5 -49q-131 3 -228.5 50.5t-135.5 113.5q-43 13 -96 13t-96 -13q-38 -66 -135.5 -113.5t-228.5 -50.5q-159 1 -274.5 49t-155.5 117q-74 -86 -134 -193v-9q32 -28 74 -49t96.5 -33.5t100 -20
t114.5 -10.5t108 -3.5t109 -0.5h24q64 0 133 -36.5t121.5 -91.5t86 -123t33.5 -129v-68q1 -33 8 -56t16.5 -23zM1024.5 1150q-67.5 0 -115 47.5t-47.5 115t47.5 115t115 47.5t114.5 -47.5t47 -115.5t-47 -115t-114.5 -47zM1024.5 1180q54.5 0 93 38.5t38.5 93.5t-38.5 93.5
t-93 38.5t-93.5 -38.5t-39 -93.5t39 -93.5t93.5 -38.5zM1024.5 1205q-45.5 0 -77 31t-31.5 76t32 76.5t76.5 31.5t76 -31.5t31.5 -76.5t-31 -76t-76.5 -31zM564 1472q107 3 196 39q90 116 198 132h2q31 6 64 6t64 -6h2h2q107 -16 198 -132q88 -36 194 -39q78 0 122 6
q-1 1 -2 11.5t-1.5 17.5t-3 20t-5 23.5t-7 23.5t-9.5 23q-56 -15 -112 -15q-120 2 -206 88t-106 210l-2 18q-61 12 -128 12t-128 -12v-18q-21 -124 -107 -210t-207 -88q-55 0 -110 15q-6 -10 -10.5 -23t-7 -23.5t-5 -23.5t-3 -20t-1.5 -17.5t-1 -11.5q43 -6 120 -6z" />
</svg>