<svg xmlns="http://www.w3.org/2000/svg" xmlns:xlink="http://www.w3.org/1999/xlink" version="1.1" viewBox="-10 0 2058 2048">
   <path fill="currentColor"
d="M1664 1344q27 0 45.5 -19t18.5 -45v-816l-272 -272h-560q-26 0 -45 19t-19 45v1024q0 26 19 45t45 19h768zM896 1536q-105 0 -180.5 -75t-75.5 -181v-1024q0 -106 75.5 -181t180.5 -75h562q78 0 134 57l272 271q56 56 56 136v816q0 106 -75 181t-181 75h-768zM384 512
h128v192h-128q-26 0 -45 19.5t-19 45.5v1024q0 26 19 45t45 19h768q27 0 45.5 -19t18.5 -45v-128h192v128q0 106 -75 180.5t-181 74.5h-768q-105 0 -180.5 -74.5t-75.5 -180.5v-1024q0 -106 75.5 -181.5t180.5 -75.5z" />
</svg>