<svg xmlns="http://www.w3.org/2000/svg" xmlns:xlink="http://www.w3.org/1999/xlink" version="1.1" viewBox="-10 0 2068 2048">
   <path fill="currentColor"
d="M461.5 1280q105.5 0 180 -75t74.5 -180.5t-74.5 -181t-180 -75.5t-181.5 75.5t-76 181t76 180.5t181.5 75zM844 1280h360q-78 -116 -78 -256q0 -93 36.5 -178.5t98 -147.5t147 -98t179 -36t179 36t147.5 98t98.5 147.5t36.5 179t-36.5 179t-98.5 147t-147.5 97.5
t-179.5 36h-1124q-94 0 -179.5 -36t-147.5 -97.5t-98.5 -147t-36.5 -179t36.5 -179t98.5 -147.5t147.5 -98t179 -36t179 36t147 98t98 147.5t36.5 178.5q0 140 -78 256zM1586.5 768q-105.5 0 -180 75.5t-74.5 181t74.5 180.5t180 75t181.5 -75t76 -180.5t-76 -181
t-181.5 -75.5z" />
</svg>