<svg xmlns="http://www.w3.org/2000/svg" xmlns:xlink="http://www.w3.org/1999/xlink" version="1.1" viewBox="-10 0 2067 2048">
   <path fill="currentColor"
d="M1023 0q214 0 404.5 80t326 216.5t214.5 326t79 401.5q0 178 -54.5 339t-151.5 284.5t-225 214.5t-280.5 138.5t-312.5 47.5q-207 0 -396 -81.5t-326 -219t-218.5 -327t-81.5 -396.5q0 -161 48.5 -314t140.5 -280.5t216 -224.5t283.5 -151t333.5 -54zM1026 1860
q98 0 190 -21.5t160 -53.5t131 -78t102.5 -84t76 -83.5t50 -65.5t24.5 -39l3 -5l-530 -235h-372q18 77 63.5 125.5t98 65.5t115.5 17q54 0 109 -14t87 -31l41 190q-118 65 -267 65q-90 0 -174 -27t-154 -78t-119.5 -132t-66.5 -181h-111v-121h93q0 -39 1.5 -55.5t1.5 -24.5
h-96v-122h19l-272 -121q-45 129 -45 273q0 168 67 322t179.5 267t268.5 180t326 67zM956 1074l-2 -2l5 2h-3zM1275 994l562 249q26 -98 26 -218q0 -172 -66 -327.5t-178 -268t-267 -178.5t-327 -66h-30t-49 3t-69.5 8.5t-79 18.5t-92 31t-94.5 48t-100.5 67.5t-96 91.5
t-93.5 118l336 149q25 -44 58 -83q155 -174 396 -174q142 0 257 51l-49 194q-95 -40 -189 -40q-136 0 -212 92q-16 17 -35 59l117 53h290v122h-15z" />
</svg>