<svg xmlns="http://www.w3.org/2000/svg" xmlns:xlink="http://www.w3.org/1999/xlink" version="1.1" viewBox="-10 0 2068 2048">
   <path fill="currentColor"
d="M586 475v220q0 76 -54 129.5t-130 53.5h-218q-76 0 -130 -53.5t-54 -129.5v-220q0 -76 54 -129.5t130 -53.5h218q76 0 130 53.5t54 129.5zM586 1353v219q0 76 -54 130t-130 54h-218q-76 0 -130 -54t-54 -130v-219q0 -76 54 -129.5t130 -53.5h218q76 0 130 53.5t54 129.5z
M732 475q0 -76 53 -129.5t129 -53.5h220q76 0 129 53.5t53 129.5v220q0 76 -53 129.5t-129 53.5h-220q-76 0 -129 -53.5t-53 -129.5v-220zM1316 1353v219q0 77 -53 130.5t-129 53.5h-220q-76 0 -129 -53.5t-53 -130.5v-219q0 -76 53 -129.5t129 -53.5h220q76 0 129 53.5
t53 129.5zM1464 475q0 -76 53 -129.5t129 -53.5h218q76 0 130 53.5t54 129.5v220q0 76 -54 129.5t-130 53.5h-218q-76 0 -129 -53.5t-53 -129.5v-220zM2048 1353v219q0 76 -54 130t-130 54h-218q-76 0 -129 -53.5t-53 -130.5v-219q0 -76 53 -129.5t129 -53.5h218
q76 0 130 53.5t54 129.5z" />
</svg>