<svg xmlns="http://www.w3.org/2000/svg" xmlns:xlink="http://www.w3.org/1999/xlink" version="1.1" viewBox="-10 0 2068 2048">
   <path fill="currentColor"
d="M1663 832q0 273 -160 491l507 505q38 38 38 91.5t-37.5 91t-91 37.5t-91.5 -38l-506 -507q-220 161 -490 161q-113 0 -220.5 -30t-199 -83.5t-168.5 -130.5t-130.5 -168t-83.5 -199t-30 -221t30 -220.5t83.5 -199t130.5 -168.5t168.5 -130.5t199 -83.5t220.5 -30t221 30
t199 83.5t167.5 130.5t130.5 168.5t83.5 199t29.5 220.5zM1151 703q0 -87 -42.5 -160.5t-116 -116.5t-160 -43t-160.5 43t-117 116.5t-43 160.5q0 69 29 152t76 161t87.5 135t81.5 107q18 22 45.5 22t45.5 -22q42 -50 82 -107t87 -135t76 -161t29 -152zM704 703.5
q0 -52.5 38 -90.5t90.5 -38t89.5 38t37 90.5t-37 90.5t-89.5 38t-90.5 -38t-38 -90.5z" />
</svg>