<svg xmlns="http://www.w3.org/2000/svg" xmlns:xlink="http://www.w3.org/1999/xlink" version="1.1" viewBox="-10 0 2058 2048">
   <path fill="currentColor"
d="M1024 0q80 0 136 56t56 135.5t-56 136t-136 56.5t-136 -56.5t-56 -136t56 -135.5t136 -56zM736 1536h-71q-32 0 -51.5 -27t-9.5 -57l153 -460l-136 226q-28 45 -78.5 58t-96.5 -14.5t-59 -79t15 -96.5l215 -356q61 -101 163.5 -159.5t219.5 -58.5h47q117 0 220 58.5
t164 159.5l215 356q28 45 14.5 96.5t-59.5 79.5q-46 27 -96.5 14t-78.5 -58l-135 -226l152 460q10 30 -9 57t-51 27h-71v384q0 52 -38 90t-90.5 38t-90 -38t-37.5 -90v-384h-64v384q0 52 -38 90t-90 38t-90 -38t-38 -90v-384z" />
</svg>