<svg xmlns="http://www.w3.org/2000/svg" xmlns:xlink="http://www.w3.org/1999/xlink" version="1.1" viewBox="-10 0 2068 2048">
   <path fill="currentColor"
d="M398.5 454q-70.5 0 -120.5 50.5t-50 121.5v398h342v-398q0 -71 -50.5 -121.5t-121 -50.5zM0 626q0 -109 53.5 -200.5t145 -144.5t200 -53t200 53t144.5 144.5t53 200.5v796q0 108 -53 200t-144.5 145t-200 53t-200 -53t-145 -145t-53.5 -200v-796zM1972 1534
q-18 32 -55.5 35t-64.5 -25l-666 -666q-28 -27 -25 -64.5t35 -55.5q133 -76 282 -76q116 0 221.5 45.5t181.5 121.5t121.5 181.5t45.5 221.5q0 149 -76 282zM1760 1746q-132 74 -282 74q-115 0 -220.5 -45t-181.5 -121t-121 -181.5t-45 -220.5q0 -148 76 -282
q18 -33 55.5 -36t64.5 24l666 666q28 27 24.5 65t-36.5 57z" />
</svg>