<svg xmlns="http://www.w3.org/2000/svg" xmlns:xlink="http://www.w3.org/1999/xlink" version="1.1" viewBox="-10 0 2068 2048">
   <path fill="currentColor"
d="M282 1194q-1 3 -5 9.5t-5 9.5q-7 12 -26 43q80 -22 160 -58q24 -10 40 -19q44 -23 98 -13q60 11 122 11q111 0 208.5 -35.5t163 -93t103 -131t37.5 -149.5t-37.5 -149.5t-103 -131t-163 -93t-209 -35.5t-209 35.5t-163 93t-102.5 131t-37 149.5q0 136 104 247
q35 36 41.5 85.5t-17.5 93.5zM0 768q0 -115 53 -219t142 -179.5t212 -120t258.5 -44.5t258.5 44.5t212 120t141.5 179.5t52.5 219t-52.5 219t-141.5 179.5t-212 120t-258 44.5q-83 0 -152 -14q-5 3 -20.5 10.5t-23.5 11.5q-206 94 -392 94q-24 0 -43.5 -12.5t-28.5 -33.5
q-8 -21 -4 -43.5t20 -39.5q61 -67 116 -166q2 -3 4.5 -8.5t3.5 -8.5q-70 -74 -108 -164.5t-38 -188.5zM1382 1741q-193 0 -354 -87t-244 -229q82 -12 160 -38q68 90 182 144.5t256 54.5q67 0 120 -11q55 -10 100 14q16 9 40 19q76 34 158 57q-18 -31 -24 -43q-2 -3 -6 -9.5
t-6 -9.5q-23 -43 -16 -93t42 -86q104 -109 104 -247q0 -72 -33.5 -141.5t-92 -125.5t-146 -94t-188.5 -46v-2q0 -78 -20 -153q130 5 247 51.5t202 121t135 176.5t50 213q0 98 -39 189t-109 165q1 3 4.5 8t5.5 8q54 98 116 167q16 17 20 39.5t-4 43.5q-9 21 -29 33.5
t-43 12.5q-185 0 -392 -95q-9 -4 -24.5 -11.5t-21.5 -10.5q-73 15 -150 15z" />
</svg>