<svg xmlns="http://www.w3.org/2000/svg" xmlns:xlink="http://www.w3.org/1999/xlink" version="1.1" viewBox="-10 0 2068 2048">
   <path fill="currentColor"
d="M1610 146q0 60 -43 103t-103 43h-878q-61 0 -104.5 -43t-43.5 -103t43.5 -103t104.5 -43h878q60 0 103 43t43 103zM2048 732q0 60 -43 103t-103 43h-1756q-60 0 -103 -43t-43 -103t43.5 -104t102.5 -44h1756q59 0 102.5 44t43.5 104zM0 1902q0 -60 43 -103t103 -43h1756
q60 0 103 43t43 103t-43 103t-103 43h-1756q-60 0 -103 -43t-43 -103zM1610 1316q0 60 -43 103t-103 43h-878q-61 0 -104.5 -43t-43.5 -103t43.5 -103t104.5 -43h878q60 0 103 43t43 103z" />
</svg>