<svg xmlns="http://www.w3.org/2000/svg" xmlns:xlink="http://www.w3.org/1999/xlink" version="1.1" viewBox="-10 0 2068 2048">
   <path fill="currentColor"
d="M0 146q0 -60 43 -103t103 -43h1756q60 0 103 43t43 103t-43 103t-103 43h-1756q-60 0 -103 -43t-43 -103zM878 732q0 -60 43.5 -104t102.5 -44h878q59 0 102.5 44t43.5 104t-43 103t-103 43h-878q-60 0 -103 -43t-43 -103zM1024 1170h878q60 0 103 43t43 103t-43 103
t-103 43h-878q-60 0 -103 -43t-43 -103t43 -103t103 -43zM0 1902q0 -60 43 -103t103 -43h1756q60 0 103 43t43 103t-43 103t-103 43h-1756q-60 0 -103 -43t-43 -103zM584 1081l-466 363q-36 28 -77 8.5t-41 -65.5v-726q0 -46 41 -65.5t77 8.5l466 362q28 22 28 58t-28 58v-1
z" />
</svg>