<svg xmlns="http://www.w3.org/2000/svg" xmlns:xlink="http://www.w3.org/1999/xlink" version="1.1" viewBox="-10 0 2068 2048">
   <path fill="currentColor"
d="M1161 1115l-816 236l-118 -407l776 -223q81 -23 134 -30.5t85 1t47.5 27.5t26.5 54l47 164q12 40 5 70t-50.5 55.5t-136.5 52.5zM1027 0q139 0 272 37t245 103t206 161t160 207t102 244.5t35 270.5q0 139 -37 272t-103 245t-161 207t-207 161t-245 103t-272 37
q-279 0 -520 -144l-95 -331l1183 154l198 -55l-41 -141l-908 -112l381 -110q92 -26 142 -54t112 -83q76 -71 99 -144t-2 -160l-45 -156q-28 -98 -86 -153t-166 -74q-76 -12 -149.5 -5t-178.5 38l-915 264q40 -167 133.5 -311.5t223 -248t295.5 -163t344 -59.5zM159 1570
q-158 -254 -158 -543z" />
</svg>