<svg xmlns="http://www.w3.org/2000/svg" xmlns:xlink="http://www.w3.org/1999/xlink" version="1.1" viewBox="-10 0 2058 2048">
   <path fill="currentColor"
d="M1024.5 1024q-104.5 0 -199.5 -40.5t-163.5 -109t-109 -163.5t-40.5 -199t40.5 -199t109 -163.5t163.5 -109t199.5 -40.5t199 40.5t163 109t109 163.5t40.5 199t-40.5 199t-109 163.5t-163 109t-199 40.5zM842 1216h366q145 0 276.5 56.5t227 152t152 227.5t56.5 277
q0 49 -35 84t-85 35h-1552q-50 0 -85 -35t-35 -84q0 -145 56.5 -277t152 -227.5t227.5 -152t278 -56.5z" />
</svg>