<svg xmlns="http://www.w3.org/2000/svg" xmlns:xlink="http://www.w3.org/1999/xlink" version="1.1" viewBox="-10 0 2068 2048">
   <path fill="currentColor"
d="M1352 823q30 49 46 112l258 -17q-24 -146 -110 -265zM1912 901h4q54 -3 93 33t39 90t-39 90.5t-93 33.5h-4q-32 230 -174 417l4 2q41 36 43 89.5t-36.5 91.5t-92 36.5t-88.5 -41.5l-4 -3q-183 139 -416 172v4q2 54 -34 93t-89.5 39t-90 -39t-34.5 -93l2 -4
q-235 -33 -418 -172l-2 3q-36 40 -89.5 41.5t-92 -36.5t-37 -91.5t42.5 -89.5l4 -2q-141 -185 -174 -417h-4q-53 3 -92.5 -33.5t-39.5 -90.5t39.5 -90t92.5 -33h4q33 -232 174 -417l-4 -4q-41 -36 -42.5 -89t37 -91t91.5 -36.5t90 42.5l2 3q183 -139 418 -172l-2 -6
q-2 -54 34.5 -92.5t90 -38.5t89.5 38.5t34 92.5v6q233 33 416 172l4 -3q36 -41 89 -42.5t91.5 36.5t36.5 91t-43 89l-4 4q142 187 174 417zM654 502l170 194q48 -30 112 -46l-18 -257q-145 24 -264 109zM394 918l258 17q16 -67 46 -112l-194 -170q-87 121 -110 265z
M504 1395l192 -169q-29 -48 -46 -113l-256 18q23 143 110 264zM918 1655l18 -257q-67 -17 -112 -46l-170 194q119 85 264 109zM1396 1546l-170 -194q-49 30 -112 46l18 257q144 -24 264 -109zM1656 1131l-258 -18q-18 71 -46 113l194 169q86 -120 110 -264zM1396 503
q-120 -85 -264 -109l-18 256q64 16 112 47zM1024.5 896q-52.5 0 -90.5 38t-38 90t38 90t90.5 38t90 -37.5t37.5 -90.5t-37.5 -90.5t-90 -37.5z" />
</svg>