<svg xmlns="http://www.w3.org/2000/svg" xmlns:xlink="http://www.w3.org/1999/xlink" version="1.1" viewBox="-10 0 2068 2048">
   <path fill="currentColor"
d="M948 640h152v-153h-152v153zM922 307h204q64 0 109 45t45 109v13h378q26 -52 76 -84t110 -32q84 0 144 60t60 145t-60 144.5t-144 59.5q-61 0 -110.5 -31t-75.5 -83h-214q144 97 233 248t101 328h14q63 0 108.5 44.5t45.5 108.5v205q0 64 -45.5 109t-108.5 45h-206
q-63 0 -107.5 -45t-44.5 -109v-205q0 -64 44.5 -108.5t107.5 -44.5h12q-15 -159 -108 -287t-236 -190q-22 31 -55 49t-73 18h-204q-40 0 -73 -18t-55 -49q-143 62 -236 190t-108 287h12q63 0 107.5 44.5t44.5 108.5v205q0 64 -44.5 109t-107.5 45h-206q-63 0 -108.5 -45
t-45.5 -109v-205q0 -64 45.5 -108.5t108.5 -44.5h14q12 -177 101 -328t233 -248h-214q-26 52 -75.5 83t-110.5 31q-84 0 -144 -59.5t-60 -144.5t60 -145t144 -60q60 0 110 32t76 84h378v-13q0 -64 45 -109t109 -45zM282 1408v153h154v-153h-154zM1612 1561h154v-153h-154
v153z" />
</svg>