<svg xmlns="http://www.w3.org/2000/svg" xmlns:xlink="http://www.w3.org/1999/xlink" version="1.1" viewBox="-10 0 2068 2048">
   <path fill="currentColor"
d="M502 353l-74 147l326 -272q33 -27 74.5 -23t68.5 36t23.5 75t-36.5 70l-260 218l322 -89q42 -11 78.5 10t48 62t-9.5 78t-63 48l-258 71q123 40 186 150q22 37 11 78t-47 62q-37 21 -78.5 10.5t-61.5 -47.5q-18 -29 -47.5 -46.5t-64.5 -17.5q-54 0 -91 37t-37 90t37 91
t91 38q35 0 64.5 -18t47.5 -47q20 -37 61.5 -47.5t78.5 10.5q36 21 47 62t-11 78q-40 71 -109.5 114.5t-152.5 50.5v1h-26h-230q-111 0 -205.5 -54.5t-149.5 -149t-55 -205.5v-29q0 -99 44 -184l274 -550q19 -38 59.5 -51.5t78 5.5t51 59.5t-4.5 78.5zM1546 1695l74 -148
l-326 273q-33 27 -74.5 23t-68.5 -36t-23.5 -75t36.5 -70l260 -218l-322 89q-42 11 -78.5 -10.5t-48 -62.5t9.5 -78t63 -48l258 -70q-122 -40 -186 -151q-22 -37 -11 -77.5t47.5 -61.5t77.5 -10.5t62 47.5q18 29 47.5 46.5t64.5 17.5q54 0 91 -37.5t37 -90.5t-37 -90.5
t-91 -37.5q-35 0 -64.5 17.5t-47.5 46.5q-20 37 -61.5 48t-78 -10t-47.5 -62.5t11 -78.5q40 -71 109.5 -114.5t152.5 -50.5v-1h26h230q111 0 205.5 55t149.5 149.5t55 205.5v30q0 98 -44 183l-274 550q-19 38 -59.5 51.5t-78 -5.5t-51 -60t4.5 -78z" />
</svg>