<svg xmlns="http://www.w3.org/2000/svg" xmlns:xlink="http://www.w3.org/1999/xlink" version="1.1" viewBox="-10 0 2068 2048">
   <path fill="currentColor"
d="M1244 787v325q0 15 -14 15h-52q-9 0 -12 -5l-150 -202v193q0 14 -14 14h-52q-14 0 -14 -14v-325q0 -15 14 -15h52q8 0 12 6l148 202v-193q0 -15 14 -15h52q16 0 16 14zM870 773q14 0 14 14v325q0 15 -14 15h-52q-14 0 -14 -15v-325q0 -14 14 -14h52zM744 1045
q5 0 9.5 4.5t4.5 10.5v52q0 14 -16 14h-208q-6 0 -10 -3t-4 -11v-325q0 -14 14 -14h52q16 0 16 14v258h142zM1518 773q6 0 11 4t5 10v52q0 7 -5 11t-11 4h-142v55h142q6 0 11 4t5 11v53q0 14 -16 14h-142v54h142q6 0 11 4t5 11v52q0 7 -5 11t-11 4h-210q-14 0 -14 -15v-325
q0 -14 14 -14h210zM2048 373v1305q0 101 -50.5 186t-136.5 134.5t-187 49.5h-1304q-100 0 -185.5 -50.5t-135 -136.5t-49.5 -187v-1303q0 -101 50.5 -186.5t137 -135t186.5 -49.5h1304q101 0 186 50t134.5 136t49.5 187zM1766 934q0 -123 -59 -235t-159 -193t-238 -129
t-289.5 -48t-289 48t-237.5 129t-159 193t-59 235q0 147 80.5 275.5t223 213t320.5 108.5q15 3 26.5 6.5t19.5 10t13 11t7.5 15t3.5 17.5t-1 24.5t-3.5 28t-5.5 35.5q-2 13 -4 20l-1.5 15t1 16.5t7.5 16t20.5 4.5t36.5 -10q46 -20 150.5 -85.5t234.5 -166t201 -182.5
q160 -176 160 -372v-1z" />
</svg>