<svg xmlns="http://www.w3.org/2000/svg" xmlns:xlink="http://www.w3.org/1999/xlink" version="1.1" viewBox="-10 0 2068 2048">
   <path fill="currentColor"
d="M1836 209l184 68q12 5 20 16.5t8 25.5q0 28 -28 40l-184 67l-66 183q-4 13 -16.5 22t-26 9t-25 -9t-16.5 -22l-66 -183l-184 -67q-28 -12 -28 -40q0 -14 8 -25.5t20 -16.5l184 -68l66 -183q14 -26 42 -26q12 0 24 7.5t18 18.5zM1306 422v-1l322 321q37 38 37 90t-37 90
l-12 12q48 139 48 282q0 113 -29.5 221t-83.5 199t-130.5 168t-168 130.5t-199 83.5t-221 30t-221 -30t-199 -83.5t-168 -130.5t-130.5 -168t-84 -199t-30 -221t30 -221t84 -199t130.5 -168t168 -130.5t199 -83.5t220.5 -30q151 0 282 49l12 -11q37 -38 90 -38t90 38z
M800 769h32q27 0 45.5 -19.5t18.5 -45.5t-18.5 -45t-45.5 -19h-32q-111 0 -211.5 43.5t-173.5 116.5t-116 173.5t-43 211.5v31q0 26 19 45t45.5 19t45 -19t18.5 -45v-31q0 -113 55.5 -209t151 -151.5t209.5 -55.5z" />
</svg>