<svg xmlns="http://www.w3.org/2000/svg" xmlns:xlink="http://www.w3.org/1999/xlink" version="1.1" viewBox="-10 0 2058 2048">
   <path fill="currentColor"
d="M1332 512q0 -128 -90 -217.5t-217.5 -89.5t-218 90t-90.5 217t90.5 217t218 90t217.5 -89.5t90 -217.5zM1434 1024h-54l46 341h-206l-46 -341h-150h-148l-48 341h-206l46 -341h-54q-42 0 -72 -30t-30 -73t30 -72.5t72 -29.5q-102 -135 -102 -307q0 -104 41 -199
t109.5 -163.5t163 -109t199 -40.5t199 40.5t163 109t109 163.5t40.5 199q0 172 -102 307q42 0 72 29.5t30 72.5t-30 73t-72 30zM566 1843h916l-70 -136h-774zM1452 1501q39 0 72 20t50 54l114 219q18 35 18 80q0 72 -51 123t-123 51h-1016q-72 0 -123 -51t-51 -123
q0 -43 20 -80l112 -219q18 -34 50.5 -54t71.5 -20h856z" />
</svg>