<svg xmlns="http://www.w3.org/2000/svg" xmlns:xlink="http://www.w3.org/1999/xlink" version="1.1" viewBox="-10 0 2067 2048">
   <path fill="currentColor"
d="M1024.5 384q-79.5 0 -136 -56t-56.5 -136t56.5 -136t136 -56t135 56t55.5 136t-55.5 136t-135 56zM643 353q42 0 75.5 21t53.5 55q38 67 105.5 107t146.5 40t146 -40t105 -107q20 -34 54 -55t76 -21q52 0 90.5 31t51.5 76q24 80 91.5 130.5t152.5 50.5q58 0 111 -25
q22 -11 48.5 -10t47.5 14q35 21 45.5 61t-10.5 75l-376 652h-221l330 -577q-120 -7 -218.5 -71t-152.5 -168q-67 82 -164 129.5t-206.5 47.5t-207 -47.5t-165.5 -129.5q-54 103 -153.5 167.5t-219.5 71.5l333 577h-222l-375 -652q-20 -36 -10.5 -75.5t44.5 -60.5
q22 -14 48 -15t48 10q55 26 111 26q85 0 152.5 -50.5t91.5 -130.5q14 -45 52.5 -76t90.5 -31zM533 1729l-66 128h1114l-66 -128h-982zM1667 1605l106 205q18 34 18 75q0 68 -47 115.5t-115 47.5h-1210q-67 0 -115 -48t-48 -115q0 -41 18 -75l106 -205q17 -32 47.5 -50.5
t66.5 -18.5h1059q36 0 67 18.5t47 50.5z" />
</svg>