<svg xmlns="http://www.w3.org/2000/svg" xmlns:xlink="http://www.w3.org/1999/xlink" version="1.1" viewBox="-10 0 2067 2048">
   <path fill="currentColor"
d="M1188 191q-73 -15 -139 -16v-75q238 7 439.5 125.5t322.5 315.5l-66 37q-47 -73 -82 -112l-75 65q-172 -196 -420 -242zM221 1298q25 70 56 128l-65 37q-112 -210 -112 -439q0 -238 112 -440l65 37q-33 60 -56 129l94 31q-40 113 -40 243q0 127 41 242zM880 1758l-20 99
q71 13 139 14v76q-238 -7 -440 -125.5t-323 -314.5l67 -38q31 53 82 113l75 -66q167 190 420 242zM385 466q-41 46 -82 112l-65 -37q121 -197 322.5 -315.5t439.5 -125.5v75q-66 1 -139 16l19 98q-249 46 -420 241zM1663 1582q51 -60 82 -113l67 38q-121 196 -323 314.5
t-440 125.5v-76q68 -1 139 -14l-20 -99q253 -51 420 -242zM2047 1024q0 209 -81 398.5t-217.5 326.5t-326 218t-397.5 81t-397.5 -81t-327 -218t-218.5 -327t-81 -398t81 -398t218.5 -327t327 -218t397.5 -81t397.5 81t326 218t217.5 326.5t81 398.5zM1997 1024
q0 -198 -77 -378t-207.5 -310.5t-310.5 -208t-377 -77.5t-377.5 77.5t-311 207.5t-208 310.5t-77.5 378.5t77.5 378t208 310t311 207t377.5 77t377 -77t310.5 -207t207.5 -310t77 -378zM1836 583q111 202 111 441t-111 439l-65 -38q32 -60 56 -127l-95 -33q41 -115 41 -242
q0 -129 -40 -242l94 -32q-22 -66 -56 -128zM1081 1317l55 276q-57 11 -111 11q-55 0 -112 -11l55 -276q-103 -20 -169 -97l-211 185q-79 -91 -112 -193l265 -91q-16 -48 -16 -97q0 -48 16 -98l-266 -91q38 -106 113 -192l211 184q67 -78 169 -98l-55 -274q50 -11 112 -11
q61 0 111 11l-55 274q101 20 168 98l211 -184q74 85 113 192l-266 91q16 48 16 98q0 47 -16 97l265 91q-32 102 -112 193l-211 -185q-66 77 -168 97z" />
</svg>