<svg xmlns="http://www.w3.org/2000/svg" xmlns:xlink="http://www.w3.org/1999/xlink" version="1.1" viewBox="-10 0 2068 2048">
   <path fill="currentColor"
d="M1682 220q-22 0 -40 6q-189 54 -339 15q-197 -51 -412 19.5t-386 242.5q-173 172 -244 387t-20 411q38 152 -15 341q-6 18 -6 41q0 60 43 103t103 43q23 0 41 -6q188 -54 340 -15q196 51 410.5 -20.5t387.5 -243.5q171 -172 242 -387t20 -411q-39 -151 15 -340
q6 -18 6 -40q0 -60 -43 -103t-103 -43zM1682 0q99 0 183 49t133 133.5t49 183.5q0 55 -13 101q-39 131 -14 224q45 179 17.5 359t-114.5 346.5t-223.5 303.5t-303 224t-346.5 114t-359 -19q-91 -24 -222 14q-54 15 -103 15q-100 0 -184 -49t-132.5 -133t-48.5 -183
q0 -53 14 -103q38 -131 14 -223q-46 -179 -19 -359t114.5 -347t224.5 -303q136 -136 302.5 -223.5t346.5 -114.5t359 18q91 24 223 -14q49 -14 102 -14zM1128 617q-179 52 -319.5 192.5t-191.5 318.5q-13 43 -53 65t-83.5 9t-65 -52.5t-8.5 -83.5q67 -232 247 -412.5
t412 -247.5q43 -13 83 9t52.5 66t-9 83.5t-64.5 52.5z" />
</svg>