<svg xmlns="http://www.w3.org/2000/svg" xmlns:xlink="http://www.w3.org/1999/xlink" version="1.1" viewBox="-10 0 2068 2048">
   <path fill="currentColor"
d="M334 1066v-84h84v84h-84zM502 982h-84v-84q0 -17 -12 -28.5t-29.5 -11.5t-30 11.5t-12.5 28.5v1h-84v-1v-1q0 -52 37.5 -88.5t88.5 -36.5q52 0 89 36.5t37 87.5v2v84zM670 1065v-83h84v83v1q0 102 -50.5 188.5t-137 136.5t-188.5 50h-2q-102 0 -188.5 -50t-137 -136.5
t-50.5 -188.5v-1h84q0 121 86 206.5t206 85.5h2q121 0 206.5 -85.5t85.5 -206.5zM166 1065v-83h-84v-81q0 -122 86 -208t207.5 -86t208 86.5t86.5 207.5v81h-84v-81v-1q0 -86 -62 -148t-148 -62t-147 60.5t-63 146.5v85h84v83q1 51 37.5 87t88 36t88 -36t36.5 -87h84
q0 86 -61 147.5t-147.5 61.5t-147.5 -61.5t-62 -147.5zM1506 837q-28 0 -49.5 11t-28.5 28v27q10 22 40 31q24 6 46 9q48 7 68 14q69 24 92 77v3v82q-17 41 -64 66t-104 25q-61 0 -109.5 -28t-66.5 -74l-2 -4l74 -38l2 6q29 60 102 60q29 0 51.5 -10.5t30.5 -28.5v-32
q-10 -20 -40 -31q-8 -2 -52 -10q-32 -3 -62 -12q-70 -25 -92 -78v-80q17 -41 62.5 -66t101.5 -25q59 0 104.5 26.5t65.5 73.5l2 5l-74 37l-2 -5q-13 -28 -38.5 -43.5t-57.5 -15.5zM920 1201v-219h84v219h-84zM2046 1030l2 3l-2 92q-18 38 -62 61.5t-98.5 23.5t-99.5 -23.5
t-62 -61.5l-2 -2l2 -93q15 -31 48 -53q-24 -17 -40 -49l-2 -2l2 -81q17 -38 59.5 -62t93.5 -24t93.5 24t59.5 62l2 1l-2 82q-16 32 -40 49q33 22 48 53zM1812 868v43q9 15 29 24.5t43.5 9.5t44 -9.5t29.5 -24.5v-43q-9 -15 -29.5 -24.5t-44 -9.5t-43.5 9.5t-29 24.5z
M1964 1099v-52q-18 -33 -78 -33q-27 0 -48.5 9t-31.5 24v52q10 16 31.5 25.5t48.5 9.5t48.5 -9.5t29.5 -25.5zM1204 1056v-288h82v433h-80l-200 -301v-2h-86v-130h94z" />
</svg>