<svg xmlns="http://www.w3.org/2000/svg" xmlns:xlink="http://www.w3.org/1999/xlink" version="1.1" viewBox="-10 0 2068 2048">
   <path fill="currentColor"
d="M820 205h1024q84 0 144 59.5t60 144.5v717q0 85 -60 145t-144 60h-1024q-85 0 -145.5 -60t-60.5 -145v-717q0 -85 60.5 -144.5t145.5 -59.5zM1524 546q-24 -34 -64.5 -34t-63.5 34l-180 269l-56 -69q-24 -30 -59 -30t-61 30l-204 255q-13 18 -16 39.5t6 42.5
q10 20 29 31.5t41 11.5h256h154h460q45 0 68 -40q10 -19 9 -40.5t-13 -38.5zM1076 512q0 -42 -31 -72.5t-72.5 -30.5t-72 30.5t-30.5 72.5t30 72t72.5 30t73 -30t30.5 -72zM204 614h308v819v103q0 42 30 72t72 30h410q42 0 72 -30t30 -72v-103h512v205q0 85 -60 145t-144 60
h-1230q-84 0 -144 -60t-60 -145v-819q0 -85 60 -145t144 -60zM230 819q-20 0 -35 15.5t-15 36.5v51q0 21 15 36t35 15h52q22 0 37 -15t15 -36v-51q0 -21 -15.5 -36.5t-36.5 -15.5h-52zM230 1152q-20 0 -35 15t-15 36v52q0 21 15 36t35 15h52q22 0 37 -15t15 -36v-52
q0 -21 -15 -36t-37 -15h-52zM230 1485q-20 0 -35 15t-15 36v51q0 21 15 36t35 15h52q22 0 37 -15t15 -36v-51q0 -21 -15 -36t-37 -15h-52zM1306 1536v51q0 21 15 36t37 15h50q22 0 37 -15t15 -36v-51q0 -21 -15 -36t-37 -15h-50q-22 0 -37 15t-15 36z" />
</svg>