<svg xmlns="http://www.w3.org/2000/svg" xmlns:xlink="http://www.w3.org/1999/xlink" version="1.1" viewBox="-10 0 2068 2048">
   <path fill="currentColor"
d="M2048 1024q0 139 -37 272t-103 245.5t-160.5 207t-206.5 160t-244.5 102.5t-272 37t-272 -37t-245 -102.5t-207 -160t-160.5 -207t-103 -245.5t-37 -272t37 -272t103 -245.5t160.5 -207t207 -160t245 -102.5t272 -37t272 37t244.5 102.5t206.5 160t160.5 207t103 245.5
t37 272zM924 509l-448 447q-29 28 -29 68t29 69l448 447q28 28 67.5 28t68 -28t28.5 -67t-28 -68l-284 -285h728q39 0 67.5 -28t28.5 -68t-28.5 -68t-67.5 -28h-728l284 -284q28 -28 27.5 -67t-28 -68t-67 -29t-68.5 29z" />
</svg>