<svg xmlns="http://www.w3.org/2000/svg" xmlns:xlink="http://www.w3.org/1999/xlink" version="1.1" viewBox="-10 0 2068 2048">
   <path fill="currentColor"
d="M1838 606v54q0 120 -25 241.5t-76.5 239t-124.5 224t-174 196.5t-219 155.5t-265.5 102.5t-309.5 37q-348 0 -644 -188q34 4 102 4q146 0 279 -46.5t243 -131.5q-137 -3 -245 -84.5t-149 -207.5q46 6 80 6q51 0 110 -14q-146 -30 -241 -145t-95 -267v-6q90 51 190 54
q-87 -58 -137.5 -150.5t-50.5 -199.5q0 -114 58 -212q157 194 382 310t482 130q-10 -52 -10 -96q0 -114 56 -211t153 -153t211 -56q90 0 169 35t137 97q145 -27 268 -100q-23 72 -71.5 131t-114.5 99q122 -14 242 -66q-89 130 -210 218z" />
</svg>