<svg xmlns="http://www.w3.org/2000/svg" xmlns:xlink="http://www.w3.org/1999/xlink" version="1.1" viewBox="-10 0 2058 2048">
   <path fill="currentColor"
d="M1260 1926q41 41 55 51q-138 42 -283 42h-8q-205 0 -391.5 -80t-322 -215t-215.5 -322.5t-80 -392.5q0 -206 80 -392.5t215 -321.5t321.5 -215t392.5 -80t392.5 80t321.5 215t215 321.5t80 392.5q0 213 -84 404q-9 -17 -46 -63q17 -142 -27.5 -276.5t-132 -233.5
t-216 -159.5t-272.5 -60.5q-177 0 -327 87.5t-237.5 238t-87.5 327.5t87.5 327.5t237.5 238t327 87.5h5zM1260 1926h1h-1zM1583 1228q169 0 289 120t120 289q0 170 -120 290.5t-289 120.5t-289 -120.5t-120 -290.5q0 -169 120 -289t289 -120z" />
</svg>