<svg xmlns="http://www.w3.org/2000/svg" xmlns:xlink="http://www.w3.org/1999/xlink" version="1.1" viewBox="-10 0 2068 2048">
   <path fill="currentColor"
d="M0 1762v-1013q0 -63 35 -115t93 -75l858 -343q38 -15 76 0l858 343q58 23 93 75.5t35 114.5v1013q0 32 -23 54.5t-55 22.5h-152q-32 0 -55 -22.5t-23 -54.5v-844q0 -42 -30 -72.5t-72 -30.5h-1228q-42 0 -72 30.5t-30 72.5v844q0 32 -23 54.5t-55 22.5h-152
q-32 0 -55 -22.5t-23 -54.5zM1562 1839h-1076q-31 0 -53.5 -22.5t-22.5 -54.5v-179h1228v179q0 32 -22.5 54.5t-53.5 22.5zM410 1481v-205h1228v205h-1228zM410 1173v-255h1228v255h-1228z" />
</svg>