<svg xmlns="http://www.w3.org/2000/svg" xmlns:xlink="http://www.w3.org/1999/xlink" version="1.1" viewBox="-10 0 2068 2048">
   <path fill="currentColor"
d="M1856 1024q0 -113 -30 -221t-83.5 -199t-130.5 -168t-168 -130.5t-199 -83.5t-221 -30t-220.5 30t-199 83.5t-168 130.5t-130.5 168t-84 199t-30 221t30 221t84 199t130.5 168t168 131t199.5 84t220.5 30t220.5 -30t199 -84t168 -131t130.5 -168t83.5 -199t30 -221z
M1024.5 0q139.5 0 272 37t244.5 102.5t206.5 160t160.5 207t103 245.5t37 272t-37 272t-103 245.5t-160.5 207t-206.5 160t-244.5 102.5t-272 37t-272 -37t-245 -102.5t-207 -160t-160.5 -207t-103 -245.5t-37 -272t37 -272t103 -245.5t160.5 -207t207 -160t245 -102.5
t272 -37zM705.5 960q-52.5 0 -90 -37.5t-37.5 -90t37.5 -90.5t90 -38t90.5 38t38 90.5t-38 90t-90.5 37.5zM1474 832.5q0 52.5 -38 90t-90.5 37.5t-90 -37.5t-37.5 -90t37.5 -90.5t90 -38t90.5 38t38 90.5zM736 1313h576q40 0 68 27.5t28 67.5t-28 68t-68 28h-576
q-40 0 -68 -28t-28 -68t28 -67.5t68 -27.5z" />
</svg>