<svg xmlns="http://www.w3.org/2000/svg" xmlns:xlink="http://www.w3.org/1999/xlink" version="1.1" viewBox="-10 0 2068 2048">
   <path fill="currentColor"
d="M1934 1137v-1h-114l2 570q0 9 -2 29v57q0 59 -41 100.5t-100 41.5h-57h-12h-15h-116h-85q-60 0 -101 -41.5t-41 -100.5v-85v-228q0 -47 -33 -80.5t-80 -33.5h-228q-48 0 -81 33.5t-33 80.5v228v85q0 59 -41.5 100.5t-100.5 41.5h-85h-114q-3 0 -8 -0.5t-8 -0.5
q-2 0 -6.5 0.5t-6.5 0.5h-56q-60 0 -101.5 -41.5t-41.5 -100.5v-398v-10v-247h-113q-48 0 -81 -33.5t-33 -81.5q0 -49 36 -85l911 -795q28 -28 78 -28q45 0 75 24l378 334v-130q0 -47 33 -80.5t81 -33.5h114q47 0 80 33.5t33 80.5v430l188 165q44 39 39 85q0 48 -33.5 81.5
t-79.5 33.5z" />
</svg>