<svg xmlns="http://www.w3.org/2000/svg" xmlns:xlink="http://www.w3.org/1999/xlink" version="1.1" viewBox="-10 0 2068 2048">
   <path fill="currentColor"
d="M256 128h1536q105 0 180.5 75t75.5 181v256q0 106 -75.5 181t-180.5 75h-1536q-105 0 -180.5 -75t-75.5 -181v-256q0 -106 75.5 -181t180.5 -75zM1375.5 416q-39.5 0 -67.5 28t-28 68t28 68t67.5 28t68 -28t28.5 -68t-28.5 -68t-68 -28zM1568 512q0 40 28.5 68t68 28
t67.5 -28t28 -68t-28 -68t-67.5 -28t-68 28t-28.5 68zM256 1152h1536q105 0 180.5 75t75.5 181v257q0 106 -75.5 180.5t-180.5 74.5h-1536q-105 0 -180.5 -74.5t-75.5 -180.5v-257q0 -106 75.5 -181t180.5 -75zM1375.5 1440q-39.5 0 -67.5 28t-28 68t28 68t67.5 28t68 -28
t28.5 -68t-28.5 -68t-68 -28zM1600 1536q0 40 28.5 68t68 28t67.5 -28t28 -68t-28 -68t-67.5 -28t-68 28t-28.5 68z" />
</svg>