<svg xmlns="http://www.w3.org/2000/svg" xmlns:xlink="http://www.w3.org/1999/xlink" version="1.1" viewBox="-10 0 2066 2048">
   <path fill="currentColor"
d="M825 947q16 0 16 15v214q0 14 -16 14h-91q-16 0 -16 -14v-214q0 -15 16 -15h91zM1312 947q16 0 16 15v214q0 14 -16 14h-91q-15 0 -15 -14v-214q0 -15 15 -15h91zM1858 430q188 263 188 594v24q0 2 -0.5 4t-0.5 4q0 3 -0.5 8.5t-0.5 8.5v10v5l-1 -1v-2v10q0 2 -1 7.5
t-1 7.5v10q0 2 -1 7t-1 7t-1 5.5t-1 4.5q-2 12 -2 16q0 1 -0.5 4t-0.5 4l-3 23q0 1 -0.5 3.5t-0.5 3.5q-1 3 -2.5 8.5t-1.5 8.5q0 1 -1 4.5t-1 5.5t-1 6.5t-2 6.5t-2 5t-1 5t-1 7t-1 7t-1 5t-2 5l-3 12q0 2 -1.5 5.5t-2.5 5.5q0 2 -1 6.5t-2 6.5q0 2 -1.5 5.5t-2.5 4.5
q0 1 -0.5 3t-1.5 5t-1 4q-1 4 -3.5 10t-3.5 10q0 1 -1.5 5t-2.5 6t-3 6.5t-2 6.5t-1 5t-2 5l-5 12q0 2 -2 5t-2 4q-1 4 -5 12l-4 9l-6 12q-1 2 -2.5 4.5t-1.5 3.5q-1 2 -2.5 7t-2.5 7q0 1 -1.5 3t-2.5 3q-1 2 -4 7t-4 7v1l-1 1q-13 24 -28 50q-1 0 -1 3t-1 3q-1 2 -4 6.5
t-5 6.5l-3 6q-7 10 -9 13l-3 6q-1 2 -4 6.5t-5 6.5q0 1 -1.5 3t-2.5 2q-1 2 -4 6.5t-5 6.5q-1 1 -1 2t-1 2q-116 169 -286.5 278t-373.5 144q-1 0 -5 0.5t-6 0.5t-6.5 1t-6.5 2q-1 0 -5 1t-6 1t-6 0.5t-6 0.5t-6.5 0.5t-5.5 0.5q-2 0 -6.5 0.5t-6.5 0.5t-6 1t-6 1h-11
q-2 0 -7.5 0.5t-7.5 0.5h-10q-3 0 -7.5 1t-7.5 1h-9q-4 0 -12.5 0.5t-12.5 0.5t-13 -0.5t-13 -0.5h-7q-3 0 -8.5 -1t-8.5 -1h-10q-2 0 -7 -0.5t-7 -0.5h-11q-2 0 -6.5 -1t-6.5 -1t-6.5 -0.5t-6.5 -0.5t-6 -0.5t-5 -0.5q-8 0 -12 -1q-1 0 -5.5 -1t-6.5 -1q-1 0 -13 -3
q-1 0 -5 -0.5t-6 -0.5q-201 -33 -372 -140.5t-288 -269.5v-1q0 -2 -1 -2q-2 -2 -5.5 -7t-4.5 -7l-4 -4q-1 -2 -4 -7t-5 -7q0 -1 -1 -2.5t-2 -2.5q-3 -4 -8 -14q-1 -1 -2 -2.5t-2 -2.5q-1 -2 -4 -7t-4 -7q-1 0 -2 -2t-1 -3q-10 -17 -28 -51l-1 -1l-1 -1q-1 -2 -3 -6.5
t-3 -6.5q-1 -1 -2.5 -3.5t-1.5 -3.5q-1 -2 -3 -6.5t-3 -6.5q0 -2 -2 -4.5t-2 -3.5q-1 -2 -2.5 -6.5t-2.5 -6.5l-4 -8q-1 -2 -3 -6.5t-2 -6.5q0 -1 -2 -4t-3 -5l-4 -12q-1 -1 -2 -5t-1 -5q0 -2 -2 -6l-3 -6q0 -1 -1 -3.5t-2 -4.5t-1 -4q-1 -4 -3.5 -10.5t-3.5 -9.5
q0 -1 -2 -5l-3 -6q-1 -1 -2 -5.5t-1 -5.5q0 -2 -1 -6t-2 -6t-1 -6.5t-1 -5.5q-1 -2 -2 -5.5t-2 -5.5q-1 -1 -2 -5t-1 -6q-1 -2 -2.5 -6t-1.5 -6q0 -1 -1 -5.5t-1 -5.5q0 -2 -1 -7t-1 -7q0 -1 -1 -5t-1 -5q0 -3 -2 -8.5t-2 -8.5q0 -1 -0.5 -3t-0.5 -3l-4 -24q0 -1 -0.5 -4
t-0.5 -4q0 -2 -1.5 -7t-1.5 -8q0 -2 -0.5 -5.5t-0.5 -4.5q0 -2 -0.5 -7.5t-0.5 -7.5t-0.5 -5t-0.5 -5t-0.5 -7t-0.5 -7t-0.5 -5t-0.5 -5t-0.5 -7t-0.5 -8v-10q0 -3 -0.5 -8.5t-0.5 -8.5v-8v-24q0 -330 188 -593q12 -18 30 -39q32 -41 64 -75q11 -12 35 -34l36 -33
q46 -39 57 -47q4 -2 10 -7t10 -7q177 -126 385 -168q107 -21 206 -21t207 21q205 42 385 168q4 2 10 7t10 7q22 16 57 46q78 67 137 142q12 14 29 39zM1815 1500v-294q0 -16 -16 -16h-90q-16 0 -16 16v106h-121v-593q0 -16 -16 -16h-91q-15 0 -15 16v106h-122v-106
q0 -16 -16 -16h-91q-15 0 -15 16v106h-122v-106q0 -5 -2 -8t-5 -5t-8 -2.5t-8 -0.5h-9h-7v-126q52 -13 86 -13q18 0 52 7.5t52 7.5q26 0 59.5 -6t33.5 -21v-200q0 -15 -16 -15q-8 0 -35 7.5t-44 7.5q-15 0 -51.5 -7.5t-56.5 -7.5q-41 0 -80 9v-15q30 -15 30 -48t-26.5 -46
t-52.5 0t-26 46q0 15 9 28.5t23 19.5v372h-7h-9t-8 0.5t-8 2.5t-5 5t-2 8v106h-122v-106q0 -16 -16 -16h-91q-16 0 -16 16v106h-122v-106q0 -16 -14 -16h-92q-15 0 -15 16v593h-123v-106q0 -16 -14 -16h-92q-15 0 -15 16v294q62 102 138 178q127 128 294 198q77 34 178 54
v-313q0 -58 27 -100t67.5 -61t88 -19t88 19t67.5 61t27 100v313q86 -17 177 -54q167 -70 294 -198q76 -76 138 -178z" />
</svg>