<svg xmlns="http://www.w3.org/2000/svg" xmlns:xlink="http://www.w3.org/1999/xlink" version="1.1" viewBox="-10 0 2068 2048">
   <path fill="currentColor"
d="M1834 1074q4 -16 0 -28q-5 -13 -22 -18l-74 -38q-17 -9 -30 0q-16 18 -16 22t-10 16q-4 6 -12 22q-16 20 -50 20q-51 0 -72 -46q-28 -44 -28 -125.5t28 -126.5q26 -50 72 -50q26 0 46 20l26 38q0 8 16 18q13 9 30 0l74 -34q12 -10 22 -22q4 -12 -4 -28
q-72 -148 -210 -148q-113 0 -192 94q-76 97 -76 238.5t76 239.5q74 88 192 88q142 0 214 -152zM1088 1226q104 0 158 -54q64 -54 64 -144q0 -42 -22 -84q-22 -35 -46 -58q17 -12 42 -54q18 -44 18 -72q0 -87 -60 -138q-58 -52 -154 -52q-132 0 -206 106q-12 29 4 46l58 54
q15 8 26 8q18 0 30 -12q32 -50 84 -50q36 0 46 20q8 23 8 30q0 4 -4 12t-4 14q-5 16 -52 16h-42q-20 0 -28 8q-14 14 -14 26v88q0 12 14 26q9 16 28 8h42q47 0 60 16q8 23 8 34q0 50 -58 50q-64 0 -94 -50q-12 -12 -28 -12q-13 -5 -26 8l-58 58q-25 17 -4 46q30 48 88 80
q52 26 122 26zM856 622q5 -18 -8 -30q-9 -12 -26 -12h-100q-25 0 -34 24l-50 252l-50 -252q-8 -24 -34 -24h-74q-34 0 -38 24l-52 252l-50 -252q0 -24 -32 -24h-102q-16 0 -28 12q-10 21 -6 30l126 566q5 30 38 30h96q30 0 34 -30l50 -232l46 232q5 30 34 30h102
q28 0 32 -30zM1976 38q34 0 50 20q22 17 22 52v1468q0 16 -12 38q-12 20 -34 30l-948 360q-4 4 -25 4t-25 -4l-958 -360q-20 -14 -32 -30q-14 -23 -14 -38v-1468q0 -30 22 -52q16 -20 50 -20h1904z" />
</svg>