<svg xmlns="http://www.w3.org/2000/svg" xmlns:xlink="http://www.w3.org/1999/xlink" version="1.1" viewBox="-10 0 2058 2048">
   <path fill="currentColor"
d="M784 0h480q37 0 68 19.5t48 51.5l28 57h384q53 0 90.5 37.5t37.5 90.5t-37.5 90.5t-90.5 37.5h-1536q-52 0 -90 -38t-38 -90t38 -90t90 -38h384l28 -57q17 -32 48 -51.5t68 -19.5zM256 512h1536l-84 1356q-5 76 -61 128t-131 52h-984q-75 0 -131 -52t-61 -128zM1024 769
q-42 0 -68 27l-320 320q-28 28 -28 68t28.5 68t68 28t67.5 -28l156 -156v536q0 40 28.5 68.5t68 28.5t67.5 -28.5t28 -68.5v-536l156 156q28 28 67.5 28t67 -28.5t28 -68t-28.5 -67.5l-318 -320q-28 -27 -68 -27z" />
</svg>