<svg xmlns="http://www.w3.org/2000/svg" xmlns:xlink="http://www.w3.org/1999/xlink" version="1.1" viewBox="-10 0 2068 2048">
   <path fill="currentColor"
d="M1257 208q41 12 62 48.5t9 77.5l-410 1435q-12 41 -49 62t-78 9t-61.5 -49.5t-8.5 -78.5l409 -1434q12 -41 49 -61.5t78 -8.5zM1515 592v1q30 -30 72.5 -30t72.5 30l358 358q30 30 30 73t-30 73l-358 358q-30 30 -72.5 30t-72.5 -30t-30 -72.5t30 -72.5l286 -286
l-286 -286q-30 -30 -30 -73t30 -73zM534 592q30 30 30 73t-30 73l-287 286l287 286q30 30 30 72.5t-30 72.5t-73 30t-73 -30l-358 -359q-30 -30 -30 -72.5t30 -72.5l358 -359q30 -30 73 -30t73 30z" />
</svg>