<svg xmlns="http://www.w3.org/2000/svg" xmlns:xlink="http://www.w3.org/1999/xlink" version="1.1" viewBox="-10 0 2068 2048">
   <path fill="currentColor"
d="M1856 1024q0 -113 -30 -221t-83.5 -199t-130.5 -168t-168 -130.5t-199 -83.5t-221 -30t-220.5 30t-199 83.5t-168 130.5t-130.5 168t-84 199t-30 221t30 221t84 199t130.5 168t168 131t199.5 84t220.5 30t220.5 -30t199 -84t168 -131t130.5 -168t83.5 -199t30 -221z
M0 1024q0 -139 37 -272t103 -245.5t160.5 -207t207 -160t245 -102.5t272 -37t272 37t244.5 102.5t206.5 160t160.5 207t103 245.5t37 272t-37 272t-103 245.5t-160.5 207t-206.5 160t-244.5 102.5t-272 37t-272 -37t-245 -102.5t-207 -160t-160.5 -207t-103 -245.5t-37 -272
zM1024.5 1152q105.5 0 180.5 75t75 181t-75 181.5t-180.5 75.5t-181 -75.5t-75.5 -181.5t75.5 -181t181 -75zM412 540q29 -28 68.5 -28t67.5 28l92 92l92 -92q28 -28 67.5 -28t67 28.5t28 67.5t-28.5 67l-90 93l90 92q29 28 29 67.5t-28.5 67.5t-68 28t-66.5 -28l-92 -92
l-92 92q-29 29 -68.5 29t-67 -29t-28 -68t27.5 -67l92 -92l-92 -93q-28 -29 -28 -68t28 -67zM1180 540q28 -28 68 -28t68 28l92 92l92 -92q28 -28 67.5 -28t67 28.5t28 67.5t-28.5 67l-92 93l92 92q29 28 29 67.5t-28.5 67.5t-68 28t-66.5 -28l-92 -92l-92 92q-29 29 -69 29
t-67.5 -29t-28 -68t28.5 -67l92 -92l-92 -93q-29 -29 -29 -68t29 -67z" />
</svg>