<svg xmlns="http://www.w3.org/2000/svg" xmlns:xlink="http://www.w3.org/1999/xlink" version="1.1" viewBox="-10 0 2068 2048">
   <path fill="currentColor"
d="M1115 38l255 256q28 27 35.5 65t-6.5 73.5t-46.5 57.5t-71.5 22h-129v384h384v-128q0 -39 21.5 -71t57.5 -47q36 -14 74.5 -7t65.5 35l255 256q38 37 38 90.5t-38 91.5l-255 254q-27 28 -65.5 35t-74.5 -7q-36 -15 -57.5 -47t-21.5 -71v-128h-384v384h127q39 0 71.5 21.5
t46.5 58.5q15 35 7.5 73t-34.5 65l-255 256q-37 38 -91 38t-91 -38l-255 -256q-28 -27 -35 -65t7 -73q14 -37 46.5 -58.5t71.5 -21.5h128v-384h-383v128q0 39 -21.5 71t-57.5 47q-36 14 -74.5 7t-65.5 -35l-256 -256q-38 -37 -38 -90t38 -90l256 -256q28 -28 66 -35.5
t74 7.5q36 14 57.5 46.5t21.5 71.5v128h383v-382h-128q-39 0 -71.5 -22.5t-46.5 -59.5q-14 -35 -7 -72.5t35 -65.5l255 -256q37 -38 91 -38t91 38z" />
</svg>