<svg xmlns="http://www.w3.org/2000/svg" xmlns:xlink="http://www.w3.org/1999/xlink" version="1.1" viewBox="-10 0 2068 2048">
   <path fill="currentColor"
d="M1464 2048h-878q-119 0 -227.5 -46.5t-187 -125.5t-125 -187t-46.5 -227v-878q0 -119 46.5 -227t125 -186t187 -124.5t227.5 -46.5h878q118 0 226 46.5t186.5 124.5t125 186t46.5 227v878q0 119 -46.5 227t-125 187t-186.5 125.5t-226 46.5zM884 1102q-43 -14 -74 -14
q-48 0 -86 26t-60 72h-6l-18 -84h-128v635h166v-410q10 -36 40 -60t74 -24q30 0 70 15zM1410 1575q-24 18 -62 32q-43 16 -92 16q-84 0 -122 -41q-39 -42 -42 -120h382q8 -46 10 -63q2 -20 2 -58q0 -73 -22 -123q-22 -49 -56 -78q-34 -28 -82 -42q-45 -13 -94 -13
q-146 0 -226 84q-78 83 -78 251q0 156 70 245q73 91 226 91q73 0 138 -21t104 -52zM1312 1254q26 39 20 105h-236q6 -66 36 -104q31 -38 98 -38q56 0 82 37zM1677 1265q29 26 73 26q46 0 75 -26t29 -71t-29 -71t-75 -26q-44 0 -73 26t-29 71t29 71zM1677 1725q29 26 73 26
q46 0 75 -26t29 -72q0 -45 -29 -71t-75 -26q-44 0 -73 26t-29 71q0 46 29 72z" />
</svg>