<svg xmlns="http://www.w3.org/2000/svg" xmlns:xlink="http://www.w3.org/1999/xlink" version="1.1" viewBox="-10 0 2058 2048">
   <path fill="currentColor"
d="M320 0h1152q106 0 181 75t75 181v1537q0 106 -75 180.5t-181 74.5h-1152q-106 0 -181 -74.5t-75 -180.5v-1537q0 -106 75 -181t181 -75zM768 1152q-132 0 -226 93.5t-94 226.5q0 26 19 45t45 19h768q27 0 45.5 -19t18.5 -45q0 -87 -43 -160.5t-116.5 -116.5t-160.5 -43
h-256zM640 769q0 106 75.5 180.5t181 74.5t180.5 -74.5t75 -180.5t-75 -181.5t-180.5 -75.5t-181 75.5t-75.5 181.5zM1984 320v256q0 26 -19 45t-45.5 19t-45 -19t-18.5 -45v-256q0 -26 18.5 -45t45 -19t45.5 19t19 45zM1919.5 769q26.5 0 45.5 19t19 45v255q0 26 -19 45
t-45.5 19t-45 -19t-18.5 -45v-255q0 -26 18.5 -45t45 -19zM1984 1344v257q0 26 -19 45t-45.5 19t-45 -19t-18.5 -45v-257q0 -26 18.5 -45t45 -19t45.5 19t19 45z" />
</svg>