<svg xmlns="http://www.w3.org/2000/svg" xmlns:xlink="http://www.w3.org/1999/xlink" version="1.1" viewBox="-10 0 2068 2048">
   <path fill="currentColor"
d="M2048 1631l-614 349v-274h-1434q347 -359 688 -746q11 -13 36 -41q55 -62 84 -95.5t73.5 -95t65.5 -105.5t34 -100.5t3 -106.5q-11 -61 -62.5 -106.5t-126.5 -58.5t-165 22q-28 12 -67 47.5t-45 57.5q89 15 146.5 85t57.5 158q0 101 -71.5 173t-172.5 72
q-77 0 -137.5 -42t-88 -108.5t-16.5 -136.5q16 -104 78 -204q26 -42 61.5 -81t88.5 -80t129 -74t165 -52q91 -19 178 -20t153 11t128 34t102.5 44.5t76 48t49.5 38.5t21 21q49 50 82.5 119.5t48 154t-4 184.5t-72.5 196q-152 272 -476 637h390v-277zM1578 1514v232l202 -115
zM574 621q0 -39 -28.5 -67.5t-68 -28.5t-67.5 28t-28 68t28 67t67.5 27t68 -27t28.5 -67zM352 1556h488q46 -50 99 -111t140.5 -166t170.5 -221t138 -214q31 -56 47 -113.5t16 -103.5t-7.5 -89t-21.5 -74.5t-26.5 -55.5t-22.5 -36l-9 -12q-29 -30 -55 -52t-69 -49
t-100.5 -43.5t-125.5 -19.5q63 50 102 153q20 50 24 104.5t-8.5 115t-47 127.5t-88.5 134q-247 304 -644 726z" />
</svg>