<svg xmlns="http://www.w3.org/2000/svg" xmlns:xlink="http://www.w3.org/1999/xlink" version="1.1" viewBox="-10 0 2067 2048">
   <path fill="currentColor"
d="M1820 737q0 -53 -55 -90q-54 -36 -131 -36q-75 0 -128 36q-53 37 -53 90q0 55 53 91t128 36q77 0 131 -36q55 -36 55 -91zM2047 539q0 -51 -21 -95q-21 -45 -42 -61l-17 -21q-50 -62 -122 -92t-122 -30h-46q-84 5 -152 23q-70 19 -101 36l-30 17q-40 18 -75 19
q-41 2 -59 -2l-21 -4q-28 -13 -78 -19q-61 -7 -95 -7h-42q-160 0 -215 26q-70 21 -156 -13q-102 -64 -282 -76q-181 -16 -290 122q-75 67 -80 177q-9 119 84 156q0 22 6 55t55 80q48 46 133 29q-8 -4 -21 -17q-14 -14 -34 -44q-21 -32 -23 -65q-1 -35 33 -76q37 -42 116 -80
q-2 -2 -15 -8q-10 -4 -44 -9q-30 -4 -71 9q-80 0 -89 -72q0 -1 2 -15q1 -6 15 -33q13 -23 34 -40q24 -19 67 -30q51 -13 105 -13q11 0 34 5l27.5 5.5t48.5 10.5q48 11 97 30q42 17 80 53t42 82q10 213 71 295q53 104 127 181q3 6 8 23q2 5 13 53q9 37 -13 59q-1 3 -5 13
t-7 16q-10 25 -22 93q-11 71 5 156q0 242 71 345q38 47 63 0q18 -13 30 -13l29 13q12 21 28 21q17 0 27 -8l9 -13q34 -47 50 -133q17 -89 17 -149l4 -63q9 -87 2 -154q-5 -58 -19 -95l-12 -29q-13 -32 -13 -59t13 -55l8 -21q34 -33 65 -80q36 -52 45 -76l16 -25
q31 -38 47.5 -112t20.5 -128l4 -55q9 -72 90 -118q85 -47 158 -59l80 -9q96 0 154 32q57 31 61 65l9 34q0 34 -24 51q-22 17 -44 21h-21q-43 -12 -71 -11q-30 2 -43 11l-16 8q125 58 145 129q20 69 -28 111l-46 42q86 17 133 -23q49 -40 57 -90l4 -51q42 -16 63 -55
q21 -37 21 -71v-30zM1049 1083q-4 12 -6 33q-1 25 12 49q15 27 62 10q12 511 -59 577l-34 -21q-11 0 -21 5q-9 5 -13 12v4q-33 -30 -48 -174q-15 -149 -11 -276v-127q47 17 63 -6q18 -23 13 -53l-8 -33q0 -209 -59 -371q-57 -157 -118 -215l-55 -55q56 17 118 23q71 7 101 3
h38q135 17 257 -26q-24 16 -62.5 59t-104.5 207q-65 163 -65 375zM594 737q0 -54 -52 -90t-129 -36q-76 0 -130 36q-55 37 -55 90q0 55 55 91q54 36 130 36q77 0 129 -36q52 -35 52 -91z" />
</svg>