<svg xmlns="http://www.w3.org/2000/svg" xmlns:xlink="http://www.w3.org/1999/xlink" version="1.1" viewBox="-10 0 2058 2048">
   <path fill="currentColor"
d="M428 961l400 194q37 18 47.5 55.5t-8 72t-57.5 44.5l-430 107q-12 3 -22 3q-36 0 -62 -23t-30 -58q-4 -48 -4 -91q0 -130 40 -250q10 -27 33.5 -45t52.5 -18q19 0 40 9zM606 1918q-40 -27 -40 -74q0 -36 22 -62l298 -330q20 -23 48.5 -28.5t53 4.5t41.5 34t15 55l-16 444
q-1 37 -27.5 62t-62.5 25q-10 0 -16 -1q-172 -30 -316 -129zM1186 1478q-16 -26 -13.5 -55.5t19.5 -49t42.5 -30.5t57.5 0l422 138q29 9 46.5 32.5t17.5 53.5q0 17 -10 39q-75 158 -210 271q-26 21 -60 21q-23 0 -43.5 -11.5t-32.5 -31.5zM1780 950q6 19 6 36
q0 31 -18.5 55.5t-47.5 32.5l-424 123q-30 9 -57.5 -1.5t-42 -32.5t-18 -50t15.5 -55l248 -367q13 -19 33 -30.5t43 -11.5q33 0 60 23q129 113 202 278zM506 121q216 -102 448 -121h8q38 0 65 26.5t27 63.5v1v834q0 45 -33 71t-74.5 19.5t-64.5 -45.5l-416 -722
q-12 -21 -12 -45q0 -27 14 -48.5t38 -33.5z" />
</svg>