<svg xmlns="http://www.w3.org/2000/svg" xmlns:xlink="http://www.w3.org/1999/xlink" version="1.1" viewBox="-10 0 2067 2048">
   <path fill="currentColor"
d="M638 1533q43 -12 59 -75l-138 46q37 41 79 29zM2042 494q-51 -101 -521 -101h-12q-98 142 -114 354q26 163 -42 340q362 -42 534 -281q13 -24 34 -51q151 -202 121 -261zM1437 398q-139 0 -206 4h-17q98 112 139 210q37 -142 84 -214zM1332 759q0 -4 4 -4
q-37 -185 -202 -349h-21q-96 0 -231 -8q-13 0 -113 -2q-24 0 -61.5 -1.5t-48.5 -1.5q-424 0 -546 190q-97 158 -109 351q-12 195 21 334q2 9 10 70q6 44 6 65q21 252 106 252q83 0 260 -164q5 0 13 -4l42 -13q35 -10 105 -35q119 -42 145 -51q80 -26 166 -63
q135 -58 164 -71q84 -38 143 -76q65 -41 97 -74q80 -185 54 -328v-12z" />
</svg>