<svg xmlns="http://www.w3.org/2000/svg" xmlns:xlink="http://www.w3.org/1999/xlink" version="1.1" viewBox="-10 0 2068 2048">
   <path fill="currentColor"
d="M989 48l1004 1006q-55 225 -165 404q-212 348 -604 492q-75 28 -163 50l-1006 -1006q59 -230 166 -402q212 -349 604 -494q81 -29 164 -50zM2036 810l-801 -802q302 -26 659 34q41 6 70.5 35.5t38.5 70.5q68 330 33 662zM814 2040q-302 26 -658 -34q-42 -6 -72.5 -35
t-38.5 -69q-69 -328 -32 -664zM1044.5 638.5q-19.5 19.5 -19.5 47.5t20 48l270 270q19 20 47 20t47.5 -19.5t19.5 -48t-19 -48.5l-270 -270q-20 -19 -48 -19t-47.5 19.5zM840.5 841.5q-19.5 19.5 -19.5 47.5t20 47l271 272q19 19 47.5 19t48 -19.5t19.5 -48t-19 -47.5
l-271 -270q-20 -20 -48.5 -20t-48 19.5zM637.5 1044.5q-19.5 19.5 -19.5 48t20 47.5l271 270q19 20 47.5 20t48 -19.5t19.5 -47.5t-19 -47l-270 -272q-20 -19 -49 -19t-48.5 19.5z" />
</svg>