<svg xmlns="http://www.w3.org/2000/svg" xmlns:xlink="http://www.w3.org/1999/xlink" version="1.1" viewBox="-10 0 2058 2048">
   <path fill="currentColor"
d="M1024 0q33 0 54 29q54 81 108 195.5t88 239.5q49 174 42 336q64 -50 144 -94q113 -64 231.5 -107t216.5 -63q33 -6 58 18q23 23 16 57q-20 97 -63 216t-107 232q-57 99 -130 185q145 34 270 102q32 17 32 55q0 17 -9 33t-23 24q-124 69 -280 104q-145 32 -260 18l32 134
q10 39 -22 65q-30 26 -68 7l-234 -117v283q0 40 -28 68t-67.5 28t-68 -28t-28.5 -68v-283l-234 116q-37 18 -68 -8q-32 -26 -22 -65l32 -132q-115 14 -260 -18q-153 -34 -280 -105q-32 -17 -32 -56q0 -17 9 -32.5t23 -23.5q121 -66 270 -102q-67 -76 -130 -184
q-64 -113 -107.5 -232.5t-62.5 -215.5q-7 -34 16 -57q25 -25 60 -18q95 19 214.5 62t233.5 108q81 45 142 94q-7 -162 42 -336q34 -125 88 -239.5t108 -195.5q21 -29 54 -29z" />
</svg>