<svg xmlns="http://www.w3.org/2000/svg" xmlns:xlink="http://www.w3.org/1999/xlink" version="1.1" viewBox="-10 0 2058 2048">
   <path fill="currentColor"
d="M1350 377l-112 159q203 70 334 247q130 175 130 398q0 280 -199 479t-479 199t-479 -199t-199 -479q0 -223 130 -398q131 -177 334 -247l-112 -159q-243 100 -392 318q-148 218 -148 486q0 357 252 611q255 256 614 256t614 -256q252 -254 252 -611q0 -269 -148 -486
t-392 -318zM878 519l62 84l84 -4l84 4l62 -84l122 -163l138 -193l-130 -163h-552l-130 163l138 193z" />
</svg>