<svg xmlns="http://www.w3.org/2000/svg" xmlns:xlink="http://www.w3.org/1999/xlink" version="1.1" viewBox="-10 0 2068 2048">
   <path fill="currentColor"
d="M1378 798q0 70 -29 136.5t-73 113t-98 74.5t-104 28q-22 0 -34.5 -4t-16 -8t-4.5 -11q2 -203 11 -438q46 -17 92.5 -26t93 -8t82 14.5t58 46t22.5 82.5zM667 1061q-1 -1 -2 -16q0 -44 38.5 -101.5t84.5 -101.5t91 -75q-22 710 -5 887q3 42 19.5 68t37.5 32.5t41.5 1.5
t34.5 -20q23 -26 20 -70v-1q-10 -134 -10 -366q48 9 98 3.5t100 -30.5t96 -59.5t86 -83t69 -101.5t46 -113.5t17 -120.5q0 -76 -26 -135t-72.5 -94t-108 -51.5t-135 -12t-152.5 28.5q-9 -40 -43.5 -52.5t-64.5 12.5q-20 16 -28 40t-11 63q-159 85 -263.5 216.5t-104.5 246.5
q0 68 38 112.5t97 44.5q70 0 101 -55q24 -43 4 -78q-16 -28 -52 -28q-5 0 -11 1t-11 2t-9.5 2.5t-7 2.5zM1 750q0 -40 14 -68.5t34.5 -41t41 -19.5t34.5 -7h15h106q11 -52 41.5 -95.5t70 -71t85 -48.5t88.5 -31t78 -16.5t56 -8.5l22 -1h103v-70q0 -19 7.5 -33t19 -20t23 -10
t19.5 -4l8 -1h314q18 0 33 7t22.5 17t13 20t6.5 17l2 7v70h102q92 0 167 20t119.5 48t78 68t48 71t24.5 65h110q39 0 68 14t42.5 34t21 40t8.5 34l1 14q0 40 -15 68.5t-35.5 41t-41 19.5t-35.5 8h-14h-110l-81 795q0 33 -9 59.5t-23.5 43t-32 28.5t-35 18t-32 9t-23.5 4h-8
h-1057q-27 0 -49 -5.5t-38 -15t-28.5 -21.5t-20.5 -25.5t-14 -27t-8.5 -25.5t-4 -21.5t-1.5 -14.5v-6l-82 -795h-110q-40 0 -69 -14t-42 -34.5t-20 -40.5t-8 -34v-14z" />
</svg>