<svg xmlns="http://www.w3.org/2000/svg" xmlns:xlink="http://www.w3.org/1999/xlink" version="1.1" viewBox="-10 0 2068 2048">
   <path fill="currentColor"
d="M228 228h1592q93 0 160.5 66.5t67.5 159.5v114h-2048v-114q0 -93 67 -159.5t161 -66.5zM2048 910v682q0 94 -67.5 161t-160.5 67h-1592q-94 0 -161 -67t-67 -161v-682h2048zM398 1364q-23 0 -39.5 17t-16.5 40.5t16.5 40t39.5 16.5h228q24 0 40 -16.5t16 -40t-16 -40.5
t-40 -17h-228zM796 1421.5q0 23.5 17 40t41 16.5h454q24 0 41 -16.5t17 -40t-17 -40.5t-41 -17h-454q-24 0 -41 17t-17 40.5z" />
</svg>