<svg xmlns="http://www.w3.org/2000/svg" xmlns:xlink="http://www.w3.org/1999/xlink" version="1.1" viewBox="-10 0 2068 2048">
   <path fill="currentColor"
d="M1756 0q120 0 206 85.5t86 206.5v1464q0 121 -86 206.5t-206 85.5h-1464q-120 0 -206 -85.5t-86 -206.5v-1464q0 -121 86 -206.5t206 -85.5h1464zM1736 1460q21 -22 27.5 -48.5t-1.5 -49.5q-13 -34 -54 -56l-10 -5l-11 -5.5t-9 -5.5q-107 -57 -162 -139q-22 -32 -30 -49
q-4 -9 0 -19q4 -7 10 -10q6 -4 16.5 -11.5t15.5 -9.5q6 -4 18.5 -12t15.5 -11q46 -33 62 -65q16 -28 16 -60q0 -24 -10 -47q-14 -38 -47.5 -60t-76.5 -22q-14 0 -36 4l-8 2v-18q0 -31 -4 -87q-7 -85 -32.5 -141t-67.5 -102q-44 -48 -102 -81q-103 -60 -232 -60t-232 60
q-58 33 -102 81q-42 46 -67.5 102t-32.5 141q-2 36 -2 105q-2 -1 -5 -1h-5q-22 -4 -36 -4q-43 0 -76.5 22t-47.5 59q-10 23 -10 47q0 32 16 60q16 34 62 66q3 2 15 9.5t19 12.5q5 3 16 10.5t16 10.5q6 3 10 10q2 7 -2 20q-9 20 -28 48q-56 82 -156 137q-4 2 -17.5 9
t-18.5 9.5t-15.5 9.5t-15.5 12.5t-11.5 14.5t-9.5 19q-20 53 26 100q20 21 36 29q38 21 94 37q7 1 18 9q6 5 11.5 20t12.5 25q11 17 28 28q15 10 33.5 15t31.5 6t37 2q68 2 112 17q25 9 58 31q29 17 44.5 25.5t48 22.5t68.5 20.5t77.5 6.5t77 -6t69.5 -21.5t46 -22t45 -26.5
q46 -26 58 -30q41 -14 112 -16q69 -2 102 -24q22 -17 30 -34q4 -6 10 -20t12 -19q7 -6 18 -8q46 -13 94 -38q23 -14 38 -31zM1662 1376q41 18 -4 42q-35 19 -79.5 31.5t-58.5 21.5q-16 9 -20.5 36.5t-13.5 33.5q-9 7 -37 8t-71.5 5t-83.5 17q-24 8 -55.5 26.5t-56.5 34
t-67 28t-90.5 12.5t-91 -12.5t-67 -28t-56.5 -34t-56 -26.5q-40 -13 -83.5 -17t-71.5 -5t-37 -8q-10 -6 -13.5 -33.5t-18 -36.5t-59.5 -21.5t-79 -31.5q-46 -25 -6 -42q65 -31 116 -72.5t78.5 -76.5t45.5 -70t23.5 -52.5t6.5 -24.5q2 -10 0 -21.5t-14 -22.5q-7 -7 -29.5 -22
t-48 -31t-32.5 -21q-52 -38 -36 -76q9 -27 46 -27q12 0 18 1q21 4 53 17.5t39 15.5q2 1 8 1q15 0 14 -19q-7 -127 -2 -192q7 -68 26.5 -111t53.5 -83q12 -14 28.5 -27.5t51 -36t85 -36.5t108 -14t108 13.5t84.5 36t50.5 36t28.5 27.5q34 40 53.5 83t26.5 112q5 65 -2 192
q0 10 2.5 14t11.5 4q4 0 8 -2q7 -2 39 -14.5t53 -16.5q12 -2 18 -2q37 0 46 28q15 37 -36 75q-7 4 -33 21t-48 32t-29 22q-12 11 -14 22.5t0 21.5q1 7 6.5 24.5t23.5 52.5t45.5 70t78.5 76.5t116 72.5z" />
</svg>