<svg xmlns="http://www.w3.org/2000/svg" xmlns:xlink="http://www.w3.org/1999/xlink" version="1.1" viewBox="-10 0 2068 2048">
   <path fill="currentColor"
d="M0 384q0 -106 75.5 -181t180.5 -75h1536q105 0 180.5 75t75.5 181v1281q0 106 -75.5 180.5t-180.5 74.5h-1536q-105 0 -180.5 -74.5t-75.5 -180.5v-1281zM192 1472v129q0 26 19 45t45 19h128q26 0 45 -19t19 -45v-129q0 -26 -19 -45t-45 -19h-128q-26 0 -45 19t-19 45z
M1664 1408q-26 0 -45 19t-19 45v129q0 26 19 45t45 19h128q26 0 45 -19t19 -45v-129q0 -26 -19 -45t-45 -19h-128zM192 960v128q0 26 19 45t45 19h128q26 0 45 -19t19 -45v-128q0 -26 -19 -45t-45 -19h-128q-26 0 -45 19t-19 45zM1664 896q-26 0 -45 19t-19 45v128
q0 26 19 45t45 19h128q26 0 45 -19t19 -45v-128q0 -26 -19 -45t-45 -19h-128zM192 448v128q0 26 19 45t45 19h128q26 0 45 -19t19 -45v-128q0 -26 -19 -45t-45 -19h-128q-26 0 -45 19t-19 45zM1664 384q-26 0 -45 19t-19 45v128q0 26 19 45t45 19h128q26 0 45 -19t19 -45
v-128q0 -26 -19 -45t-45 -19h-128zM640 512v257q0 52 38 89.5t90 37.5h512q53 0 90.5 -37.5t37.5 -89.5v-257q0 -52 -37.5 -90t-90.5 -38h-512q-52 0 -90 38t-38 90zM768 1152q-52 0 -90 38t-38 90v256q0 53 38 91t90 38h512q53 0 90.5 -38t37.5 -91v-256q0 -52 -37.5 -90
t-90.5 -38h-512z" />
</svg>