<svg xmlns="http://www.w3.org/2000/svg" xmlns:xlink="http://www.w3.org/1999/xlink" version="1.1" viewBox="-10 0 2068 2048">
   <path fill="currentColor"
d="M704 353v159h640v-159q0 -13 -9.5 -23t-22.5 -10h-576q-13 0 -22.5 10t-9.5 23zM512 512v-159q0 -93 65.5 -159t158.5 -66h576q93 0 158.5 66t65.5 159v159h112q80 0 136 56l208 208q56 56 56 136v304h-512v-64q0 -52 -37.5 -90t-90 -38t-90.5 38t-38 90v64h-512v-64
q0 -52 -37.5 -90t-90 -38t-90.5 38t-38 90v64h-512v-304q0 -80 56 -136l208 -208q56 -56 136 -56h112zM0 1665v-321h512v64q0 52 38 90t90.5 38t90 -38t37.5 -90v-64h512v64q0 52 38 90t90.5 38t90 -38t37.5 -90v-64h512v321q0 106 -75.5 180.5t-180.5 74.5h-1536
q-105 0 -180.5 -74.5t-75.5 -180.5z" />
</svg>