<svg xmlns="http://www.w3.org/2000/svg" xmlns:xlink="http://www.w3.org/1999/xlink" version="1.1" viewBox="-10 0 2058 2048">
   <path fill="currentColor"
d="M224 0h1600q40 0 68 28t28 68t-28 68t-68 28h-32v596q1 1 22 19q106 89 106 217q0 266 -148 451q-76 95 -194 167l79 238q21 63 -17 115q-39 53 -104 53h-1025q-67 0 -104 -53q-38 -53 -17 -115l80 -238q-116 -71 -194 -168q-148 -185 -148 -450q0 -129 105 -219
q11 -9 23 -17v-596h-32q-40 0 -68 -28t-28 -68t28 -68t68 -28zM1664 1025v-1q0 -11 -15 -24q-36 -30 -117 -53q-176 -51 -508 -51q-334 0 -507 50q-81 22 -118 54q-15 13 -15 23v2q0 9 15 22q37 32 118 54q176 51 507 51q332 0 508 -51q81 -23 117 -53q15 -13 15 -23z
M1441 1536h-1v2zM576 256q-26 0 -45.5 19t-19.5 45t19.5 45t45.5 19h128q26 0 45 -19t19 -45t-19 -45t-45 -19h-128z" />
</svg>