<svg xmlns="http://www.w3.org/2000/svg" xmlns:xlink="http://www.w3.org/1999/xlink" version="1.1" viewBox="-10 0 2068 2048">
   <path fill="currentColor"
d="M2040 166q8 23 8 54v1608q0 91 -65 155.5t-155 64.5h-1608q-34 0 -54 -6q-53 -14 -94 -52l-14 -14q-37 -40 -50 -94q-8 -23 -8 -54v-1608q0 -91 64.5 -155.5t155.5 -64.5h1608q30 0 54 8q13 1 24 8q2 0 11 4t15 6q2 3 8 6.5t10 5.5q2 2 7 5.5t7 4.5q15 13 32 32
q17 22 22 32q7 12 14 32q1 3 4.5 10.5t3.5 11.5zM1900 1828v-804h-876v-878h-804q-30 0 -52 22t-22 52v804h878v878h804q30 0 51 -22t21 -52z" />
</svg>