<svg xmlns="http://www.w3.org/2000/svg" xmlns:xlink="http://www.w3.org/1999/xlink" version="1.1" viewBox="-10 0 2058 2048">
   <path fill="currentColor"
d="M476 1462h218q76 0 130 54t54 130v219q0 76 -54 129.5t-130 53.5h-218q-76 0 -130 -53.5t-54 -129.5v-219q0 -76 54 -130t130 -54zM1354 1462h218q76 0 130 54t54 130v219q0 76 -54 129.5t-130 53.5h-218q-77 0 -130.5 -53.5t-53.5 -129.5v-219q0 -76 54 -130t130 -54z
M476 1316q-76 0 -130 -53.5t-54 -129.5v-219q0 -76 53.5 -129t130.5 -53h218q77 0 130.5 53t53.5 129v219q0 76 -54 129.5t-130 53.5h-218zM1354 732h218q77 0 130.5 53t53.5 129v219q0 76 -54 129.5t-130 53.5h-218q-77 0 -130.5 -53.5t-53.5 -129.5v-219q0 -76 53.5 -129
t130.5 -53zM476 584q-77 0 -130.5 -53t-53.5 -129v-220q0 -76 53.5 -129t130.5 -53h218q77 0 130.5 53t53.5 129v220q0 76 -53.5 129t-130.5 53h-218zM1354 0h218q77 0 130.5 53t53.5 129v220q0 76 -53.5 129t-130.5 53h-218q-77 0 -130.5 -53t-53.5 -129v-220
q0 -76 53.5 -129t130.5 -53z" />
</svg>