<svg xmlns="http://www.w3.org/2000/svg" xmlns:xlink="http://www.w3.org/1999/xlink" version="1.1" viewBox="-10 0 2068 2048">
   <path fill="currentColor"
d="M0 228q0 -47 33.5 -80.5t80.5 -33.5h259q74 0 133 42.5t82 112.5l328 983q80 1 148 36t115 95l718 -239q46 -15 88 5.5t56 65.5q16 45 -5 87t-66 57l-718 240q-1 92 -47 169t-124.5 121.5t-170.5 44.5q-93 0 -171.5 -45.5t-124 -124t-45.5 -171.5q0 -81 35 -151t96 -118
l-327 -983h-259q-47 0 -80.5 -33t-33.5 -80zM870 592q-14 -45 7.5 -87.5t65.5 -56.5l162 -52l70 217l217 -70l-70 -217l162 -53q46 -14 87.5 7t55.5 66l176 541q15 45 -6.5 87t-66.5 56l-541 176q-45 14 -87 -7t-57 -66z" />
</svg>