<svg xmlns="http://www.w3.org/2000/svg" xmlns:xlink="http://www.w3.org/1999/xlink" version="1.1" viewBox="-10 0 2068 2048">
   <path fill="currentColor"
d="M768 0h512q53 0 90.5 38t37.5 90v128v1q117 7 209.5 76.5t130.5 179.5l142 402q70 29 114 93.5t44 143.5v577v191q0 52 -38 90t-90 38h-128q-53 0 -90.5 -37.5t-37.5 -90.5v-191h-1280v191q0 53 -37.5 90.5t-90.5 37.5h-128q-52 0 -90 -38t-38 -90v-191v-577
q0 -79 44 -143.5t114 -93.5l142 -402q38 -110 131 -179.5t209 -76.5v-1v-128q0 -52 38 -90t90 -38zM662 512q-40 0 -74 23.5t-48 61.5l-104 299h1176l-104 -299q-14 -38 -47.5 -61.5t-74.5 -23.5h-724zM383.5 1152q-52.5 0 -90 37.5t-37.5 90.5t37.5 90.5t90 37.5t90.5 -38
t38 -90t-38 -90t-90.5 -38zM1536 1280q0 52 38 90t90.5 38t90 -37.5t37.5 -90.5t-37.5 -90.5t-90 -37.5t-90.5 38t-38 90z" />
</svg>