<svg xmlns="http://www.w3.org/2000/svg" xmlns:xlink="http://www.w3.org/1999/xlink" version="1.1" viewBox="-10 0 2067 2048">
   <path fill="currentColor"
d="M1022 0q215 0 406 80.5t326.5 217.5t214 326.5t78.5 399.5q0 178 -55 339t-152 284.5t-225.5 214.5t-280.5 138.5t-312 47.5q-204 0 -392 -80.5t-326 -216.5t-220.5 -326.5t-82.5 -400.5q0 -163 49 -317t141 -281t216 -223t283 -149.5t332 -53.5zM1026 1861
q106 0 210 -27.5t196.5 -77.5t171.5 -125.5t136.5 -166.5t90 -204t32.5 -236q0 -173 -66 -329t-178 -268t-266.5 -177.5t-326.5 -65.5q-178 0 -336 70.5t-268 186.5t-173.5 268.5t-63.5 314.5q0 134 42.5 260.5t120.5 230t181 182t231.5 121.5t265.5 43zM1307 734q34 0 65 4
t74.5 21t74.5 45.5t53.5 84t22.5 129.5t-22.5 129.5t-53.5 84t-74.5 45t-74.5 20.5t-65 4h-219v-567h219zM1311 1182q143 0 143 -164q0 -35 -8 -63.5t-17.5 -45t-27.5 -29t-28 -17.5t-29.5 -7.5t-22 -2.5h-13.5l-79 1v328h82zM841 734q209 0 209 192q0 17 -2.5 35
t-16.5 48.5t-37 53t-70 39.5t-110 17h-111v182h-143v-567h281zM821 1013q33 0 56 -18t29 -43.5t1 -50.5t-29 -43t-60 -18h-118v173h121z" />
</svg>