<svg xmlns="http://www.w3.org/2000/svg" xmlns:xlink="http://www.w3.org/1999/xlink" version="1.1" viewBox="-11 0 2069 2048">
   <path fill="currentColor"
d="M1396 526l-107 67q-90 56 -193.5 32.5t-160 -113.5t-32.5 -193.5t114 -159.5l107 -67q147 -92 321 -92q123 0 234.5 47.5t192 128.5t128.5 193t48 235v23q0 162 -78.5 304t-215.5 228l-1362 850q-90 56 -193 32.5t-159.5 -113.5t-32.5 -193.5t114 -159.5l1362 -851
q25 -16 39.5 -41.5t14.5 -55.5v-23q0 -38 -27 -65t-65 -27q-26 0 -49 14zM1195 199l82 250l51 -31q39 -22 65 -28l-81 -243q-63 18 -117 52zM1549 410q57 32 90 91l185 -185q-40 -52 -91 -91zM1664 647h1q-5 64 -45 121l248 82q29 -63 42 -120zM1319 978l-120 75l241 151
l121 -76zM891 1245l-121 76l242 151l121 -76zM478 1503l-121 76l242 151l121 -76z" />
</svg>