<svg xmlns="http://www.w3.org/2000/svg" xmlns:xlink="http://www.w3.org/1999/xlink" version="1.1" viewBox="-10 0 2067 2048">
   <path fill="currentColor"
d="M1859 29l159 160q29 27 29 66.5t-29 68.5l-191 193q-16 16 -34 22l-164 61l-310 310q59 90 79.5 187t-1 185.5t-84.5 151.5q-66 64 -158 86q-50 11 -87 52t-40 92q-6 160 -115 269q-88 88 -216 109t-263 -27t-243.5 -156.5t-156.5 -244t-27 -264t109 -216.5
q106 -106 269 -114q51 -3 92 -39.5t52 -86.5q22 -94 86 -158q95 -95 242.5 -96t281.5 89l309 -311l62 -163q6 -19 21 -34l193 -192q28 -29 67.5 -29t67.5 29zM832.5 1025q-79.5 0 -135.5 55.5t-56 135t56 136t135.5 56.5t135.5 -56.5t56 -136t-56 -135t-135.5 -55.5z" />
</svg>