<svg xmlns="http://www.w3.org/2000/svg" xmlns:xlink="http://www.w3.org/1999/xlink" version="1.1" viewBox="-10 0 2068 2048">
   <path fill="currentColor"
d="M1244 932q10 53 10 107q0 136 -44 252t-123.5 198t-194.5 128.5t-252 46.5q-130 0 -248.5 -50.5t-204 -136.5t-136.5 -204.5t-51 -248.5t51 -248.5t136.5 -204.5t204 -136.5t248.5 -50.5q250 0 430 168l-174 166q-103 -98 -256 -98q-107 0 -198 54t-144.5 147t-53.5 203
t53.5 203.5t144.5 147.5t198 54q73 0 134 -20t100.5 -50t68.5 -68.5t43 -72.5t18 -65h-364v-221h604zM1862 954h186v187h-186v186h-186v-186h-186v-187h186v-186h186v186z" />
</svg>