<svg xmlns="http://www.w3.org/2000/svg" xmlns:xlink="http://www.w3.org/1999/xlink" version="1.1" viewBox="-10 0 2058 2048">
   <path fill="currentColor"
d="M1024 1024q-169 0 -303 -100t-185 -257q-8 11 -14 15q-77 78 -214 89q-24 2 -40.5 -14t-13.5 -41q11 -140 86 -215q33 -32 80 -54q-49 -23 -80 -53q-72 -73 -86 -215q-3 -25 13.5 -41t40.5 -14q55 5 113.5 26t100.5 63q31 32 48 64q63 -126 185.5 -201.5t268.5 -75.5
q105 0 199.5 40.5t163 109t109 163.5t40.5 199t-40.5 199t-109 163.5t-163 109t-199.5 40.5zM128 1929q0 -163 69.5 -307t190 -243t272.5 -139q17 -5 34.5 1.5t29.5 21.5l250 333q19 26 50.5 26t51.5 -26l250 -333q11 -15 28.5 -21.5t35.5 -1.5q151 40 271.5 139t189.5 243
t69 307q0 49 -35 84t-85 35h-1552q-50 0 -85 -35t-35 -84zM768 384q-26 0 -45 19t-19 45t19 45t45 19h512q26 0 45 -19t19 -45t-19 -45t-45 -19h-512z" />
</svg>