<svg xmlns="http://www.w3.org/2000/svg" xmlns:xlink="http://www.w3.org/1999/xlink" version="1.1" viewBox="-10 0 2068 2048">
   <path fill="currentColor"
d="M1447 589q-1 -1 -17 -13q-13 -13 -21 -17q-165 -139 -384 -139q-335 0 -511 283q-10 18 -13 21q0 5 -4 10q-1 1 -4 5t-4 6q-244 94 -372 211q-131 119 -114 233q16 113 182 185q167 73 418 85h92q213 0 397 -34q250 -37 469 -122q231 -86 369 -210q132 -119 116 -234
q-17 -114 -181 -186q-166 -72 -418 -84zM1624 969q-232 126 -578 181q-177 30 -363 30q-145 0 -245 -17q-230 -51 -241 -148q-13 -63 65.5 -131t226.5 -131q-3 3 -9 11q-4 5 -4 11q0 5 -4 10q-6 8 -9 11q-42 114 -42 228q0 45 8 105q114 21 254 21q187 0 359 -29
q329 -51 548 -169q24 -12 30 -17q-26 -165 -139 -308q-9 -9 -13 -17q-5 0 -9 -4q-2 -2 -4 -4.5t-4 -4.5q333 30 359 156q12 111 -186 216zM695 1493q-5 0 -15.5 -1.5t-13.5 -1.5q-22 -2 -25 -2q165 140 384 140q333 0 510 -283q-193 67 -439 114q-221 34 -401 34z" />
</svg>