<svg xmlns="http://www.w3.org/2000/svg" xmlns:xlink="http://www.w3.org/1999/xlink" version="1.1" viewBox="-10 0 2068 2048">
   <path fill="currentColor"
d="M2046 1025q0 139 -36.5 271.5t-102.5 245t-160 207t-206 160t-244.5 102.5t-272 37t-272 -37t-245 -103t-207 -160.5t-160.5 -206.5t-103 -245t-37 -272t37 -272t103 -245t160.5 -206.5t207 -160.5t245 -103t272 -37t272 37t244.5 103t206.5 160.5t160.5 206.5t103 245
t37 272zM104 1024v20q0 125 33.5 244t93 220t144.5 186t185.5 144.5t220 92.5t244 33t243.5 -33t220 -92.5t185.5 -144.5t144 -186t92 -220t32.5 -244v-20v-20q0 -125 -32.5 -244t-92 -220t-144 -186t-185.5 -144.5t-220 -92.5t-243.5 -33t-244 33t-220 92.5t-185.5 144.5
t-144.5 186t-93 220t-33.5 244v20zM1742 1293q-79 0 -112 -25q-36 -28 -36 -102v-409q0 -41 -66 -175q45 0 128 -116v628q0 70 30 107q24 31 80 54q2 1 7.5 3t8.5 3q5 1 44 15q-11 17 -84 17zM814 1293q-14 22 -30 40l-78 96q-9 -46 -40 -88q-34 -48 -58 -48h-34h-346
q20 -33 20 -46q0 -15 -10 -41t-10 -53q0 -47 28 -82l84 -109l-30 -75l68 -84l28 71l34 -44q-10 38 -10 75q0 22 36 116l68 173h40h34q18 1 62 60q2 2 13.5 16.5t20.5 25.5q2 3 8.5 12.5t9.5 14.5q10 -13 10 -30t-18 -58l-22 -58q-26 -69 -26 -90q0 -39 26 -76q0 -1 2 -4
t4 -4q30 -41 56 -70q-8 28 -8 51t22 79l34 87q8 20 16 44h74h36l-4 -11q-11 -28 -32 -40l66 -85l52 136h56l-24 -67q-13 -28 -34 -40l66 -85l74 192h58l-50 -125q-12 -28 -32 -39l66 -86l96 250h42h36h32q8 0 20 -14q10 -10 10 -26v-397q0 -40 -60 -175q34 0 112 -116v695
q0 45 8 62q10 22 46 34q-24 37 -60 37h-108h-36h-434h-80v-1zM398 1105q-18 -41 -18 -63q-1 5 -24 32q-8 12 -8 23q0 17 8 40l26 58h50l-36 -88zM454 798q-19 -32 -50 -50q-22 -12 -22 -31t58 -79q2 27 22 49q20 23 20 42q0 12 -28 69zM338 798q-19 -31 -52 -50
q-22 -12 -22 -31q0 -17 60 -79q1 27 20 49q20 22 20 42q0 14 -26 69zM706 916q-20 -34 -50 -51q-22 -12 -22 -32q0 -18 58 -77q2 25 22 47q20 23 20 42q0 14 -28 71z" />
</svg>