<svg xmlns="http://www.w3.org/2000/svg" xmlns:xlink="http://www.w3.org/1999/xlink" version="1.1" viewBox="-10 0 2068 2048">
   <path fill="currentColor"
d="M292 0h1464q120 0 206 85.5t86 206.5v1464q0 121 -86 206.5t-206 85.5h-1464q-120 0 -206 -85.5t-86 -206.5v-1464q0 -121 86 -206.5t206 -85.5zM878 1024v-292h220q60 0 103 43t43 103t-43 103t-103 43h-220zM1098 1316q119 0 220 -58.5t159.5 -159t58.5 -220.5
q0 -90 -34.5 -171t-93 -140t-140 -94t-170.5 -35h-330q-76 0 -129 53.5t-53 130.5v548v292q0 60 43 103t103 43t103 -43t43 -103v-146h220z" />
</svg>