<svg xmlns="http://www.w3.org/2000/svg" xmlns:xlink="http://www.w3.org/1999/xlink" version="1.1" viewBox="-10 0 2068 2048">
   <path fill="currentColor"
d="M490 690q11 -58 51 -101.5t97 -58.5l616 -164q23 -8 52 -8h10q73 0 130 47.5t70 118.5l100 524q33 14 65 30.5t76.5 43.5t82.5 55.5t77.5 67t67 78t45.5 88.5t18 99q0 63 -38.5 111.5t-97.5 62.5l-112 -78l-892 -624q-159 -112 -352 -112h-34q-37 0 -66 4zM0 1484v-4
q0 -100 44 -184l20 -40q65 -130 188.5 -206t269.5 -76h34q162 0 294 92l890 624h-1536q-84 0 -144 -60.5t-60 -145.5z" />
</svg>