<svg xmlns="http://www.w3.org/2000/svg" xmlns:xlink="http://www.w3.org/1999/xlink" version="1.1" viewBox="-10 0 2069 2048">
   <path fill="currentColor"
d="M484 600h223q59 0 100 42t41 100.5t-41 99.5t-100 41h-566q-58 0 -99.5 -41t-41.5 -100v-566q0 -58 41.5 -99.5t100 -41.5t99.5 41.5t41 99.5v226l78 -77q142 -142 327 -216t372 -74t372 74t327 216t216.5 327t74.5 372t-74.5 372t-216.5 327t-327 216.5t-372 74.5
t-372 -74.5t-327 -216.5q-41 -41 -41 -100t41.5 -100.5t100.5 -41.5t100 41q102 102 234 155t265.5 53t265.5 -53t233.5 -154.5t154.5 -233.5t53 -265.5t-53 -265.5t-154.5 -233.5t-233.5 -154.5t-265.5 -53t-265.5 53t-234 154z" />
</svg>