<svg xmlns="http://www.w3.org/2000/svg" xmlns:xlink="http://www.w3.org/1999/xlink" version="1.1" viewBox="-10 0 2068 2048">
   <path fill="currentColor"
d="M946 246q36 -56 94.5 -87t125.5 -31q92 0 163.5 58t92.5 148l28 126q23 108 104 185t190 97l112 22q82 14 137 79t55 149q0 73 -41 132t-109 86l-148 56q-97 39 -155.5 125t-58.5 191v100q0 99 -69.5 168.5t-168.5 69.5q-82 0 -146 -52l-124 -98q-133 -106 -300 -106h-40
q-45 0 -94 10l-250 56q-70 15 -135 -11t-105 -84t-40 -129q0 -98 70 -166l52 -50q72 -71 72 -168q0 -98 -70 -168l-118 -116q-70 -71 -70 -170q0 -72 39 -131.5t104.5 -89t136.5 -17.5l240 40q113 20 218 -26t170 -142zM640.5 768q-52.5 0 -90.5 38t-38 90.5t38 90
t90.5 37.5t90 -37.5t37.5 -90t-37.5 -90.5t-90 -38zM1152 833q0 27 18 45t45.5 18t46 -18.5t18.5 -45t-18.5 -45.5t-46 -19t-45.5 19t-18 46zM1151.5 1152q-52.5 0 -90 37.5t-37.5 90t37.5 90.5t90 38t90.5 -38t38 -90.5t-38 -90t-90.5 -37.5z" />
</svg>