<svg xmlns="http://www.w3.org/2000/svg" xmlns:xlink="http://www.w3.org/1999/xlink" version="1.1" viewBox="-10 0 2058 2048">
   <path fill="currentColor"
d="M1908.5 512q27.5 48 38.5 280t0 464t-38.5 280t-222.5 173.5t-400.5 232t-261 106.5t-261.5 -106.5t-401 -232t-222.5 -173.5t-38.5 -280t0 -464t38 -280t222.5 -173.5t401.5 -232t261.5 -106.5t261 106.5t400.5 232t222.5 173.5zM1263 1657q13 0 86 -73t64 -82
q-5 -5 -70 -7q0 -33 -1.5 -80t-3 -101.5t0 -225t6.5 -434.5q0 -12 -3.5 -17t-13.5 -5h-133q-18 0 -18 21q6 196 6 334h-322q1 -19 2 -121.5t3 -178t6 -121.5v-13q62 -2 67 -7q9 -8 -65.5 -81t-87.5 -73t-87 73t-66 81q6 5 68 7v13q3 123 5 234.5t2.5 183.5t-0.5 152.5
t-1.5 113.5t-2 95.5t-2.5 71.5q0 25 23 25h121q26 0 24 -24q-7 -128 -7 -292h321q0 5 0.5 12.5t0.5 11.5q-3 210 -3 345q-65 1 -71 7q-8 8 65.5 81.5t86.5 73.5z" />
</svg>