<svg xmlns="http://www.w3.org/2000/svg" xmlns:xlink="http://www.w3.org/1999/xlink" version="1.1" viewBox="-10 0 2068 2048">
   <path fill="currentColor"
d="M308 614q0 -111 54.5 -205.5t148.5 -149t205.5 -54.5t206 54.5t149 149t54.5 205.5t-54.5 205.5t-149 149.5t-206 55t-205.5 -55t-148.5 -149.5t-54.5 -205.5zM0 1748q0 -116 45.5 -221.5t121.5 -182t181.5 -122t221.5 -45.5h294q116 0 221.5 45.5t181.5 122t121.5 182
t45.5 221.5q0 40 -28 67.5t-68 27.5h-1242q-40 0 -68 -27.5t-28 -67.5zM1612 1203v-205h-204q-31 0 -53.5 -22.5t-22.5 -54t22.5 -54t53.5 -22.5h204v-205q0 -32 23 -54.5t54.5 -22.5t54 22.5t22.5 54.5v205h204q32 0 55 22.5t23 54t-23 54t-55 22.5h-204v205
q0 32 -22.5 54.5t-54 22.5t-54.5 -23t-23 -54z" />
</svg>