<svg xmlns="http://www.w3.org/2000/svg" xmlns:xlink="http://www.w3.org/1999/xlink" version="1.1" viewBox="-10 0 2067 2048">
   <path fill="currentColor"
d="M1025 0q208 0 397 81t326 218.5t218 327t81 397.5t-81 397.5t-218 327t-326 218.5t-397 81t-397.5 -81t-326.5 -218.5t-218.5 -327t-81.5 -397.5t81.5 -397.5t218.5 -327t326.5 -218.5t397.5 -81zM1440 1506q26 0 44.5 -17.5t18.5 -45.5q0 -27 -9 -41t-31 -27
q-397 -238 -978 -109q-56 13 -56 70q0 26 18 45t47 19q9 0 49 -10q512 -104 852 101q27 15 45 15zM1551 1235q34 0 56.5 -23t22.5 -57q0 -54 -46 -81q-152 -91 -340 -139.5t-390 -48.5q-203 0 -404 56q-64 18 -64 85q0 34 23 57.5t57 23.5q9 0 49 -12q262 -66 523.5 -31
t460.5 153q32 17 52 17zM1678 921q39 0 67.5 -27.5t28.5 -68.5q0 -63 -53 -94q-167 -97 -389.5 -147t-457.5 -50q-268 0 -485 63q-31 9 -51.5 34t-20.5 64q0 41 27.5 69t68.5 28q15 0 53 -10q170 -47 383.5 -50t423.5 42.5t353 130.5q28 16 52 16z" />
</svg>