<svg xmlns="http://www.w3.org/2000/svg" xmlns:xlink="http://www.w3.org/1999/xlink" version="1.1" viewBox="-10 0 2068 2048">
   <path fill="currentColor"
d="M548 512q-32 0 -57 17.5t-37 46.5l-98 243h360v-307h-168zM870 819h556l-216 -269q-32 -38 -80 -38h-260v307zM1690 822q152 20 255 135.5t103 271.5v153q0 42 -30.5 72.5t-71.5 30.5h-108q-18 110 -103.5 183t-199 73t-198.5 -73t-103 -183h-420q-18 110 -103 183
t-198.5 73t-199 -73t-103.5 -183h-108q-41 0 -71.5 -30.5t-30.5 -72.5v-358q0 -64 36.5 -116t93.5 -75l134 -333q35 -87 112 -140t172 -53h582q71 0 134 30t106 85zM1390 1382q-8 24 -8 54q0 64 44.5 108.5t107.5 44.5q51 0 91 -29t55 -75q10 -24 10 -54q0 -64 -45 -108.5
t-109 -44.5q-50 0 -90 29t-56 75zM512.5 1280q-63.5 0 -108 44.5t-44.5 108.5t44.5 109t108 45t108.5 -45t45 -109t-45 -108.5t-108.5 -44.5z" />
</svg>