<svg xmlns="http://www.w3.org/2000/svg" xmlns:xlink="http://www.w3.org/1999/xlink" version="1.1" viewBox="-10 0 2068 2048">
   <path fill="currentColor"
d="M385 1639q3 16 -6 30.5t-26 17.5q-16 3 -29.5 -6.5t-16.5 -25.5t5.5 -30t23.5 -17q17 -3 31.5 6t17.5 25zM939 1916q19 -14 41.5 -9t35.5 24t9 41t-23 36q-19 13 -41 9t-36 -23q-12 -19 -8 -42t22 -36zM605 122q-18 4 -33.5 -7t-19.5 -29q-3 -19 7.5 -35t27.5 -19
q18 -5 34 5.5t19 29.5q4 18 -6.5 34.5t-28.5 20.5zM133 909q30 20 36.5 55.5t-13 65t-55 36t-64.5 -13.5t-35 -55.5t13 -64.5q20 -30 54.5 -36.5t63.5 13.5zM1188 246q-30 18 -63 9.5t-51 -38.5q-18 -31 -10 -65.5t38 -52.5q30 -19 65 -10.5t52 39.5q18 29 9 64.5t-40 53.5z
M448 471q-21 15 -48.5 10t-42.5 -27t-9.5 -49.5t26.5 -42.5t48 -10t42 26.5t10.5 49t-26.5 43.5zM1891 1076q21 -4 40.5 9t23.5 34q5 21 -8 40.5t-34 23.5t-40 -8.5t-23 -32.5q-4 -23 8 -42.5t33 -23.5zM2046 857q4 16 -5 29.5t-25 18.5q-16 3 -30.5 -6.5t-17.5 -24.5
q-3 -17 6.5 -31.5t25.5 -17.5t29.5 6t16.5 26zM1734 570q25 -18 54.5 -12t46 31.5t11.5 54.5t-30 47q-25 16 -54.5 11.5t-46.5 -29.5q-16 -26 -11 -56t30 -47zM1710 1111q51 82 55.5 177.5t-37 182t-120.5 141.5q-100 70 -221 67q-16 66 -63 113.5t-105.5 65t-123.5 5
t-116 -57.5q-12 9 -14 11q-74 51 -162.5 58.5t-169 -30.5t-132.5 -114q-54 -81 -58 -182q-61 -11 -112 -43t-84 -77t-49 -100.5t-13 -111.5t28 -111.5t71 -98.5q-39 -67 -41.5 -142.5t27 -138.5t88 -109t133.5 -56q36 -95 110 -165t162 -101t185.5 -19t176.5 74
q66 -23 130.5 -20.5t122.5 21.5t107 58t84 88.5t52 113t12 132.5q59 17 97.5 62.5t50 99t-6 110.5t-64.5 97zM1438 1400q-3 -22 -20.5 -33t-41 -14.5t-46.5 -7t-39.5 -15.5t-19.5 -36q-4 -42 21.5 -115.5t57.5 -140.5t56.5 -136.5t19.5 -103.5q-16 -113 -129 -115
q-34 -1 -50 3t-33 15l-6.5 3.5t-9 4t-8.5 1.5t-11 -2t-11 -8q-2 -3 -13 -13.5t-14.5 -14t-12.5 -10t-17 -9t-18 -3.5q-32 -5 -52.5 3.5t-50.5 33.5q-2 1 -8 7.5t-11 10.5t-13 10t-14 7.5t-15.5 3.5t-16.5 -3q-5 -3 -39.5 -19.5t-53.5 -24.5q-46 -20 -104 5.5t-85 72.5
q-17 30 -44 107.5t-49 150t-43.5 145.5t-24.5 82q-25 76 20.5 131.5t122.5 51.5q33 -2 56 -17t42 -51q9 -15 89 -221t85 -215q7 -13 24 -21t32 1q30 16 24 57q-2 20 -56.5 155t-56.5 147q-6 42 22 62.5t67.5 7.5t60.5 -54q5 -9 94.5 -189.5t97.5 -192.5q13 -18 23 -24.5
t22 -5.5q32 0 27 42q-2 18 -72 164t-78 177q-13 59 14.5 113.5t81.5 82.5q19 9 57 16.5t79 9t69 -15.5t22 -53zM1461 1757q31 -22 67.5 -14.5t57.5 38.5q21 30 14 68t-38 59q-30 20 -67 13.5t-57 -36.5q-21 -31 -14 -69t37 -59z" />
</svg>