<svg xmlns="http://www.w3.org/2000/svg" xmlns:xlink="http://www.w3.org/1999/xlink" version="1.1" viewBox="-10 0 2068 2048">
   <path fill="currentColor"
d="M1370 728q20 137 -20.5 262.5t-141.5 196.5q-48 34 -110.5 46.5t-117.5 6t-98 -26.5q-61 -29 -105.5 -77.5t-68.5 -108t-33 -124t-5 -133.5q8 -101 40.5 -180t81 -126t105.5 -71t117 -24q155 -1 244 95.5t112 263.5zM2048 256v1536q0 106 -75.5 181t-180.5 75h-1536
q-105 0 -180.5 -75t-75.5 -181v-1536q0 -106 75.5 -181t180.5 -75h1536q105 0 180.5 75t75.5 181zM1508 1285v-993h-132v185q-3 1 -5 -1t-3 -6q-17 -37 -47 -73t-73 -67.5t-102.5 -50.5t-125.5 -19q-174 1 -293 96t-165 259q-27 91 -26 210q6 264 142.5 399.5t371.5 126.5
q100 -4 183 -57.5t133 -149.5q0 -3 3 -6t5 -6h2v158q-2 117 -32 198q-56 149 -204 181q-129 27 -244 -5q-158 -45 -188 -192q0 -6 -7 -5h-3h-122q6 80 38 133q40 67 108.5 112t149 63t165 17.5t163.5 -20.5q84 -20 144.5 -66t95.5 -111t51.5 -141.5t16.5 -168.5z" />
</svg>