<svg xmlns="http://www.w3.org/2000/svg" xmlns:xlink="http://www.w3.org/1999/xlink" version="1.1" viewBox="-10 0 2068 2048">
   <path fill="currentColor"
d="M1074 894.5q0 46.5 -26.5 71t-75.5 24.5h-88v-192h88q48 0 75 25t27 71.5zM1242 1116q0 -46 74 -50l82 -6v28q0 33 -25 55.5t-63 22.5q-31 0 -49.5 -13.5t-18.5 -36.5zM2048 398v1252q0 70 -50 120t-120 50h-1708q-70 0 -120 -50t-50 -120v-1252q0 -70 50 -120t120 -50
h1708q70 0 120 50t50 120zM454 818q43 5 78 -36q33 -42 28 -84q-19 0 -41 11.5t-37 28.5q-33 38 -28 80zM670 1083.5q0 -0.5 -2.5 -1.5t-6.5 -3t-9 -5.5t-10.5 -8.5t-11.5 -11t-11 -14.5t-9 -17.5t-6.5 -21t-3.5 -25q0 -62 56 -100q-32 -48 -96 -52q-24 -1 -59 11.5
t-41 12.5q-9 0 -39 -11.5t-49 -10.5q-33 0 -62 18.5t-46 47.5q-21 38 -21 89.5t15.5 96t39.5 78.5q21 32 40 50t42 18q16 -1 41.5 -11.5t46 -10.5t45 11t41.5 11q17 -1 32.5 -12t24.5 -22t23 -32q7 -11 13 -22t10 -20t7 -16t4.5 -11.5t1.5 -5zM1152 894.5
q0 -70.5 -45.5 -115.5t-114.5 -45h-182v486h74v-166h104q72 0 118 -44.5t46 -115zM1472 978q0 -53 -39.5 -83.5t-104.5 -30.5q-59 0 -98.5 30t-41.5 78h68q4 -23 23 -36.5t47 -13.5q35 0 53.5 15.5t18.5 44.5v28l-94 6q-134 9 -134 102q0 48 33 77t85 29q36 0 66.5 -17
t45.5 -45v58h72v-242zM1834 868h-76l-88 286h-2l-90 -286h-78l128 352l-6 22q-9 27 -24 38.5t-40 11.5q-4 0 -12 -1t-10 -1v60q8 2 28 2q55 0 85.5 -25.5t52.5 -88.5z" />
</svg>