<svg xmlns="http://www.w3.org/2000/svg" xmlns:xlink="http://www.w3.org/1999/xlink" version="1.1" viewBox="-10 0 2068 2048">
   <path fill="currentColor"
d="M1672 401l-405 135q-17 53 -54 94.5t-88 63.5v948h514q43 0 73.5 30t30.5 73t-30.5 72.5t-73.5 29.5h-617q-43 0 -72.5 -29.5t-29.5 -72.5v-1051q-17 -7 -47 -27l-436 145q-41 14 -79 -5t-51.5 -59.5t6 -78.5t59.5 -52l394 -131q-1 -10 -1 -28q0 -106 75.5 -181.5
t181.5 -75.5q70 0 129.5 34t92.5 92l363 -121q41 -13 78.5 5.5t50.5 58.5q14 41 -5 79.5t-59 51.5zM1406 1127h466l-233 -400zM1639 1435q-151 0 -265 -71.5t-140 -180.5q-12 -46 22 -104l305 -525q12 -20 33 -32.5t45 -12.5q51 0 77 45l307 525q33 58 22 103
q-26 109 -140.5 181t-265.5 72zM408 1139l-233 400h466zM3 1594q-11 -45 22 -103l306 -525q12 -21 32.5 -33t44.5 -12t45 12t33 33l306 524q33 57 21 104q-26 109 -140 181t-265 72t-265 -72t-140 -181z" />
</svg>