<svg xmlns="http://www.w3.org/2000/svg" xmlns:xlink="http://www.w3.org/1999/xlink" version="1.1" viewBox="-10 0 2068 2048">
   <path fill="currentColor"
d="M1772 0q12 108 89 188t187 98v1483q-107 12 -185 91.5t-87 187.5h-1488q-19 -109 -97.5 -184.5t-190.5 -90.5v-1487q112 -11 194 -92.5t94 -193.5h1484zM1624 1620q15 0 19.5 -10.5t-1.5 -21.5t-18 -11q-5 -2 -15.5 -5.5t-14 -4.5t-11 -4.5t-11.5 -6.5l-10 -7.5t-12 -11
t-12 -15.5q-22 -36 -27 -135.5t-5 -376.5v-405q0 -61 28.5 -88t85.5 -41q17 -4 19.5 -16t-5.5 -22t-18 -10q-72 0 -114 4t-114 4q-66 0 -98.5 -4t-97.5 -4q-7 0 -14 9t-5.5 19.5t15.5 15.5q1 0 11.5 3t18.5 6.5t21 10.5t22 18t18.5 26.5t14 39.5t4.5 53q0 210 -4 275
q0 5 -3.5 15.5t-16.5 23t-32 12.5h-436q-18 0 -31 -12.5t-17 -23t-4 -15.5q-2 -39 -2 -275q0 -29 4.5 -53t13.5 -39.5t18.5 -26.5t22 -18t20.5 -10.5t18.5 -6.5t12.5 -3q13 -5 14.5 -15.5t-5.5 -19.5t-13 -9q-66 0 -99 4t-99 4q-72 0 -114 -4t-114 -4q-10 0 -17.5 10t-5 22
t18.5 16q58 14 86 41t28 88v405q0 273 -5 374t-27 138q-7 10 -14.5 17.5t-12 11.5t-14 8.5t-12 6t-16.5 6t-17 5.5q-12 0 -18 10.5t-1.5 21.5t19.5 11q72 0 109.5 -4t110.5 -4q71 0 113 4t113 4q17 0 15.5 -17t-15.5 -23q-42 -14 -65 -25t-26.5 -14.5t-8.5 -11.5
q-14 -22 -20.5 -84t-6.5 -117t1.5 -142.5t1.5 -108.5q0 -17 17.5 -33.5t38.5 -16.5h446q20 0 37 16.5t17 33.5q0 23 1.5 109t2 142t-6 117.5t-21.5 83.5q-4 8 -7.5 12t-26 14.5t-64.5 24.5q-15 6 -16.5 23t16.5 17q70 0 111.5 -4t112.5 -4q73 0 110.5 4t109.5 4z" />
</svg>