<svg xmlns="http://www.w3.org/2000/svg" xmlns:xlink="http://www.w3.org/1999/xlink" version="1.1" viewBox="-10 0 2058 2048">
   <path fill="currentColor"
d="M614.5 1126q97.5 0 180 -48t130 -131t47.5 -180t-47.5 -179.5t-130 -130.5t-180 -48t-180 48t-130.5 130.5t-48 179.5t48 180t130.5 131t180 48zM1178 767q0 136 -60.5 255t-166 197.5t-235.5 102.5v111h104q41 0 71.5 30.5t30.5 72.5t-30 72t-72 30h-104v103
q0 42 -30 72t-72 30t-72 -30t-30 -72v-103h-102q-42 0 -72 -30t-30 -72t30 -72.5t72 -30.5h102v-111q-129 -24 -234.5 -102.5t-165.5 -197.5t-60 -255q0 -115 44.5 -219t119.5 -179t179.5 -119.5t219 -44.5t219 44.5t179.5 119.5t120 179t45 219zM1100 1222q72 -76 116 -169
q95 73 218 73q97 0 179.5 -48t130.5 -131t48 -180t-48 -179.5t-130.5 -130.5t-179.5 -48q-120 0 -218 74q-45 -95 -116 -170q148 -108 334 -108q114 0 218.5 44.5t179.5 119.5t119.5 179t44.5 219q0 136 -60 255t-165.5 197.5t-234.5 102.5v111h102q42 0 72 30.5t30 72.5
t-30 72t-72 30h-102v103q0 42 -30 72t-72 30t-72 -30t-30 -72v-103h-104q-42 0 -72 -30t-30 -72t30.5 -72.5t71.5 -30.5h104v-111q-127 -24 -232 -100z" />
</svg>