<svg xmlns="http://www.w3.org/2000/svg" xmlns:xlink="http://www.w3.org/1999/xlink" version="1.1" viewBox="-10 0 2068 2048">
   <path fill="currentColor"
d="M308 922v-208q0 -58 21 -110q-45 32 -71 81.5t-26 106.5v130v102v20q0 76 -54.5 131t-131.5 55q-19 0 -32.5 -13.5t-13.5 -32.5v-58q0 -47 21 -89t56 -71v-174q0 -104 52 -193t141 -141t193 -52h154h206h51h431q113 0 212 51.5t164 142.5l171 238v-46q0 -32 22 -55
t54.5 -23t55 23t22.5 55v262l12 18q40 58 26 120l-65 326q-10 54 -52.5 89t-96.5 35q-37 0 -71 -18.5t-55 -49.5l-135 -202q-26 -39 -26 -86v-160l-103 -102v514q0 43 -30 73.5t-73 30.5h-103q-42 0 -72 -30.5t-30 -73.5v-284q-44 31 -103 52v78q0 20 -15 35t-36.5 15
t-37 -15t-15.5 -35v-54q-25 2 -50.5 2t-51.5 -2v54q0 20 -15 35t-36.5 15t-36.5 -15t-15 -35v-78q-54 -20 -103 -52v284q0 43 -30 73.5t-73 30.5h-102q-42 0 -73 -30.5t-31 -73.5v-514v-102zM1800 1280.5q0 21.5 15.5 36.5t37 15t36 -15t14.5 -36.5t-14.5 -36t-36 -14.5
t-37 14.5t-15.5 36zM535 736h1l75 76q53 53 121.5 81.5t142 28.5t142.5 -29t121 -81l75 -76q21 -20 21 -50.5t-21.5 -52t-51.5 -21.5h-574q-29 0 -51 21.5t-22 52t21 50.5z" />
</svg>