<svg xmlns="http://www.w3.org/2000/svg" xmlns:xlink="http://www.w3.org/1999/xlink" version="1.1" viewBox="-10 0 2068 2048">
   <path fill="currentColor"
d="M664 466q0 38 -14 71t-45.5 63t-90.5 47t-140 17h-280l84 -356h270q60 0 104.5 15.5t67.5 40t33.5 50t10.5 52.5zM1170 308q59 0 103 15t67 40t33.5 50.5t10.5 52.5q0 38 -14 71t-44.5 63t-87.5 47t-134 17h-280l74 -356h272zM356 832q59 0 103.5 15.5t67.5 40.5t34 51
t11 53q0 40 -14.5 73.5t-46.5 62t-90.5 44.5t-138.5 16h-282l84 -356h272zM1076 832q59 0 103.5 15.5t67 40.5t33 51t10.5 53q0 40 -14 74t-44.5 62t-87 44t-134.5 16h-280l76 -356h270zM1834 616q59 0 103 15.5t67 40.5t33.5 51t10.5 53q0 40 -14.5 74t-45 62t-87 44
t-135.5 16h-280l76 -356h272zM1720 1170q60 0 104.5 15t67 39.5t33.5 50.5t11 53q0 196 -280 196h-282l76 -354h270zM964 1384q59 0 103 15t67 40t33.5 51t10.5 52q0 30 -7.5 56.5t-27 53t-50 45.5t-80.5 31t-115 12h-280l74 -356h272z" />
</svg>