<svg xmlns="http://www.w3.org/2000/svg" xmlns:xlink="http://www.w3.org/1999/xlink" version="1.1" viewBox="-10 0 2068 2048">
   <path fill="currentColor"
d="M2048 197v1654q0 83 -57.5 140t-140.5 57h-1652q-82 0 -140 -57t-58 -141v-1653q0 -83 57.5 -140t140.5 -57h1652q83 0 140.5 57t57.5 140zM1876 1850v-1653q0 -11 -7 -18.5t-19 -7.5h-42l-504 340l-280 -228l-280 228l-504 -341h-42q-11 0 -18.5 8t-7.5 19v1653
q0 11 7.5 19t18.5 8h1652q11 0 18.5 -8t7.5 -19zM688 703v170h-338v-170h338zM688 1044v171h-338v-171h338zM738 370l246 -199h-542zM1698 703v170h-896v-170h896zM1698 1044v171h-896v-171h896zM1312 370l294 -199h-542zM1698 1385v170h-454v-170h454z" />
</svg>