<svg xmlns="http://www.w3.org/2000/svg" xmlns:xlink="http://www.w3.org/1999/xlink" version="1.1" viewBox="-10 0 2068 2048">
   <path fill="currentColor"
d="M1820 398h-1592q-24 0 -41 16.5t-17 39.5v114h1708v-114q0 -23 -17.5 -39.5t-40.5 -16.5zM1878 910h-1708v682q0 24 17 41t41 17h1592q23 0 40.5 -17t17.5 -41v-682zM228 228h1592q93 0 160.5 66.5t67.5 159.5v1138q0 94 -67.5 161t-160.5 67h-1592q-94 0 -161 -67
t-67 -161v-1138q0 -93 67 -159.5t161 -66.5zM426 1308h172q35 0 59.5 25t24.5 60.5t-24.5 60t-59.5 24.5h-172q-35 0 -59.5 -24.5t-24.5 -60t24.5 -60.5t59.5 -25zM882 1308h398q35 0 60.5 25t25.5 60.5t-25.5 60t-60.5 24.5h-398q-35 0 -60.5 -24.5t-25.5 -60t25.5 -60.5
t60.5 -25z" />
</svg>