<svg xmlns="http://www.w3.org/2000/svg" xmlns:xlink="http://www.w3.org/1999/xlink" version="1.1" viewBox="-10 0 2058 2048">
   <path fill="currentColor"
d="M512 0h640v512q0 52 38 90t90 38h512v1153q0 106 -75 180.5t-181 74.5h-1024q-106 0 -181 -74.5t-75 -180.5v-1537q0 -106 75 -181t181 -75zM1280 0l512 512h-512v-512zM576 256q-26 0 -45 19t-19 45t19 45t45 19h256q26 0 45 -19t19 -45t-19 -45t-45 -19h-256zM576 512
q-26 0 -45 19t-19 45t19 45t45 19h256q26 0 45 -19t19 -45t-19 -45t-45 -19h-256zM793 1527l39 -131l67 223q6 19 21.5 32t34.5 14q42 3 62 -36l36 -70q10 -23 35 -23q26 0 36 23l34 70q18 36 58 36h255q26 0 45.5 -19t19.5 -45t-19.5 -45.5t-45.5 -19.5h-215l-19 -35
q-21 -42 -61 -67.5t-88 -25.5q-62 0 -107 39l-47 -154q-11 -35 -38.5 -56t-63.5 -21t-64 21t-39 56l-59 197q-6 20 -23 33t-38 13h-33q-26 0 -45 19.5t-19 45.5t19 45t45 19h33q63 0 114 -38.5t70 -99.5z" />
</svg>