<svg xmlns="http://www.w3.org/2000/svg" xmlns:xlink="http://www.w3.org/1999/xlink" version="1.1" viewBox="-10 0 2058 2048">
   <path fill="currentColor"
d="M618 185l406 608l404 -608q29 -44 82 -54.5t96 18.5q44 29 54.5 81t-18.5 96l-379 570h208q53 0 90 37.5t37 90.5t-37 90.5t-90 37.5h-320v127h320q53 0 90 37.5t37 90.5t-37 90.5t-90 37.5h-320v257q0 52 -37 89.5t-89.5 37.5t-90.5 -37.5t-38 -89.5v-257h-320
q-52 0 -90 -37.5t-38 -90.5t38 -90.5t90 -37.5h320v-127h-320q-52 0 -90 -38t-38 -90t38 -90t90 -38h208l-378 -570q-29 -44 -18.5 -95.5t54 -80.5t95.5 -19t81 54z" />
</svg>