<svg xmlns="http://www.w3.org/2000/svg" xmlns:xlink="http://www.w3.org/1999/xlink" version="1.1" viewBox="-10 0 2068 2048">
   <path fill="currentColor"
d="M882 114v285q0 23 16.5 39.5t39.5 16.5h172q23 0 39.5 -16.5t16.5 -39.5v-285h142q71 0 120.5 50t49.5 121v398q0 94 -66.5 161t-159.5 67h-456q-93 0 -159.5 -67t-66.5 -161v-398q0 -71 49.5 -121t120.5 -50h142zM228 1024h142v284q0 23 16.5 40t39.5 17h172
q23 0 39.5 -17t16.5 -40v-284h142q94 0 161 67t67 161v455q0 94 -67 160.5t-161 66.5h-568q-94 0 -161 -66.5t-67 -160.5v-455q0 -94 67 -161t161 -67zM1252 1934q-81 0 -142 -49q28 -61 28 -121v-569q0 -60 -28 -121q62 -50 142 -50h142v284q0 23 16 40t40 17h172
q23 0 39.5 -17t16.5 -40v-284h142q93 0 160.5 67t67.5 161v455q0 94 -67.5 160.5t-160.5 66.5h-568z" />
</svg>