<svg xmlns="http://www.w3.org/2000/svg" xmlns:xlink="http://www.w3.org/1999/xlink" version="1.1" viewBox="-10 0 2068 2048">
   <path fill="currentColor"
d="M904 1469q-6 5 -16 13.5t-46.5 30t-78 37.5t-110 29.5t-141.5 13.5q-248 0 -380 -141t-132 -408q0 -281 136 -435t392 -154q71 0 131.5 9.5t108 22t89 41t70.5 50.5t58.5 68t46.5 76t40.5 91.5t35.5 97t36 109.5q19 58 28 88q23 68 53 119t75 92.5t111.5 63t152.5 21.5
q122 0 183 -29.5t61 -93.5q0 -21 -4.5 -38.5t-15.5 -31.5t-22 -25t-32 -20.5t-37.5 -16t-46 -14t-48.5 -12t-55.5 -12.5t-58.5 -13q-142 -35 -207 -110t-65 -197q0 -74 23.5 -133t63 -96.5t94 -62t113 -34.5t124.5 -10q185 0 287.5 72t116.5 226l-234 29q-7 -75 -52 -109
t-132 -34q-77 0 -120.5 33.5t-43.5 92.5q0 55 29 87t103 49q15 3 45 10q57 12 86.5 19t81 23t80 31.5t65 43t55.5 59.5t33 79t14 103q0 86 -35 149t-100.5 101t-153 56t-199.5 18q-118 0 -212.5 -21.5t-159.5 -56.5t-115 -89.5t-80 -111.5t-55 -131q-11 -36 -31 -103
q-18 -58 -27 -86t-25.5 -76t-28 -71t-30 -58.5t-36 -52t-41.5 -38.5t-50.5 -31.5t-60 -16.5t-72.5 -7q-45 0 -85.5 12.5t-78.5 42.5t-65.5 74t-44 111t-16.5 151q0 167 77.5 266.5t200.5 99.5q37 0 74 -7.5t66 -19.5t55.5 -26.5t46 -28.5t33.5 -26t21 -20l8 -7z" />
</svg>