<svg xmlns="http://www.w3.org/2000/svg" xmlns:xlink="http://www.w3.org/1999/xlink" version="1.1" viewBox="-10 0 2067 2048">
   <path fill="currentColor"
d="M1025 0q208 0 397.5 81t326 218t217.5 326.5t81 398.5t-81 398.5t-217.5 326.5t-326 218t-397.5 81t-397.5 -81t-327 -218t-218.5 -327t-81 -398t81 -398t218.5 -327t327 -218t397.5 -81zM1025 2015q202 0 385.5 -78.5t316 -211t211 -316t78.5 -385.5t-78.5 -385.5
t-211 -316.5t-316 -211.5t-385.5 -78.5t-385.5 78.5t-316.5 211.5t-211.5 316.5t-78.5 385.5t78.5 385.5t211.5 316t316.5 211t385.5 78.5zM1025 117q185 0 352.5 72t289 193.5t193 289t71.5 352.5t-71.5 352.5t-193 289t-289 193t-352.5 71.5t-353 -71.5t-289.5 -193
t-193.5 -289t-72 -352.5t72 -353t193.5 -289t289.5 -193t353 -72zM1025 1897q142 0 275 -44t240.5 -125t188 -188t124.5 -240.5t44 -275.5t-44 -275.5t-124.5 -240.5t-188 -188t-240.5 -125t-275 -44q-178 0 -339.5 69t-278.5 186t-186 278.5t-69 339.5t69 339.5t186 278.5
t278.5 186t339.5 69zM1792 1224q-28 107 -83 201l-306 -149l254 227q-67 86 -153 153l-56 -63q-57 -63 -114 -127l-56 -63l148 306q-89 54 -200 84l-28 -81l-56 -162l-29 -81l19 342q-72 8 -109 8q-36 0 -108 -8l20 -340l-113 322q-110 -30 -200 -83l148 -307l-226 255
q-85 -66 -154 -155l64 -57q63 -57 127 -114l64 -56l-307 149q-55 -94 -83 -201l80 -28q80 -28 161 -56l80 -28l-339 20q-8 -72 -8 -108q0 -38 8 -110l339 20l-320 -113q31 -113 82 -200l307 148l-254 -226q67 -87 154 -154l57 63l112 128l57 63l-148 -306q98 -58 200 -84
l27 79l56 160l28 80l-19 -336q63 -7 108 -7q46 0 109 7l-19 339l112 -322q109 29 200 84l-148 307l226 -254q89 69 154 153l-63 57l-128 112l-63 57l305 -148q55 92 84 201l-80 28l-160 56l-81 28l339 -20q8 72 8 110q0 45 -7 108l-340 -20z" />
</svg>