<svg xmlns="http://www.w3.org/2000/svg" xmlns:xlink="http://www.w3.org/1999/xlink" version="1.1" viewBox="-10 0 2068 2048">
   <path fill="currentColor"
d="M1636 370q-53 0 -94 44q-40 42 -40 106v382h-964v-382q0 -64 -40 -106q-41 -44 -94 -44q-55 0 -92.5 44t-37.5 106v1008q0 62 37.5 106t92.5 44q53 0 94 -44q40 -42 40 -106v-382h964v382q0 64 40 106q41 44 94 44q55 0 96 -44q38 -41 38 -106v-1008q0 -65 -38 -106
q-41 -44 -96 -44zM1948 570h-14q-40 0 -70 30t-30 72v704q0 42 30 72q28 30 70 30h14q42 0 71 -29t29 -73v-704q0 -42 -30 -72t-70 -30zM114 570h-12q-42 0 -72 30t-30 72v704q0 42 30 72t72 30h12q42 0 71 -29t29 -73v-704q0 -42 -28 -72q-30 -30 -72 -30z" />
</svg>