<svg xmlns="http://www.w3.org/2000/svg" xmlns:xlink="http://www.w3.org/1999/xlink" version="1.1" viewBox="-10 0 2058 2048">
   <path fill="currentColor"
d="M1278 2048q34 0 60 -25q26 -26 26 -60v-1036h-680v233h208q56 0 56 55v13q0 55 -56 55h-208v141h208q56 0 56 55v13q0 55 -56 55h-208v416q0 34 26 60q24 25 58 25h510zM842 378q-99 86 -124 200h612q-26 -115 -124 -200l-34 -34q-71 -81 -50 -191v-30q0 -50 -28 -87
q-28 -36 -71 -36t-70 36t-27 87v30q21 110 -50 191zM1368 871q30 0 54 -25q26 -26 26 -55v-73q0 -33 -26 -59q-20 -21 -54 -21h-688q-34 0 -57 23t-23 57v73q0 39 24 55q17 25 56 25h688z" />
</svg>