<svg xmlns="http://www.w3.org/2000/svg" xmlns:xlink="http://www.w3.org/1999/xlink" version="1.1" viewBox="-10 0 2068 2048">
   <path fill="currentColor"
d="M2 739l-2 -317q0 -25 19 -40t43 -10l114 25q26 5 45 22.5t29 41.5l58 153l406 121l-132 -465q-8 -25 8 -45t42 -20h128q27 0 51 14t37 38l350 620l342 101q74 22 140 74l110 88q38 30 46.5 75t-14 85.5t-66.5 57.5q-204 77 -412 22l-954 -248q-56 -15 -94 -54l-266 -267
q-28 -29 -28 -72zM102 1638h1844q41 0 71.5 30.5t30.5 72.5t-30 72t-72 30h-1844q-42 0 -72 -30t-30 -72t30.5 -72.5t71.5 -30.5zM410 1382q0 -42 30 -72t72 -30t72 30t30 72t-30 72.5t-71.5 30.5t-72 -30.5t-30.5 -72.5zM819.5 1331q42.5 0 72.5 30t30 72t-30.5 72.5
t-72 30.5t-72.5 -30.5t-31 -72.5t30.5 -72t73 -30z" />
</svg>