<svg xmlns="http://www.w3.org/2000/svg" xmlns:xlink="http://www.w3.org/1999/xlink" version="1.1" viewBox="-10 0 2068 2048">
   <path fill="currentColor"
d="M2040 1010q-51 -354 -313 -600q-261 -244 -619 -274q0 -38 -26 -66t-58 -28q-33 0 -59 28q-25 27 -25 66q-359 30 -620 274q-262 246 -313 600q-3 16 -4.5 29.5t-1.5 18.5v6q2 0 27 -50q93 -198 311 -198q105 0 191 60q87 59 124 154q21 52 27 52q7 0 23 -52
q68 -159 236 -202v828q0 76 -55 130q-53 52 -130 52h-51q-76 0 -130 -52q-55 -54 -55 -130h-168q0 144 103 247t250 103h51q146 0 250 -102q103 -100 103 -248v-828q167 42 235 202q17 52 23 52t27 -52q37 -95 124 -154q86 -60 191 -60q219 0 311 198q26 50 28 50
q1 0 0.5 -6t-2.5 -18.5t-5 -29.5z" />
</svg>