<svg xmlns="http://www.w3.org/2000/svg" xmlns:xlink="http://www.w3.org/1999/xlink" version="1.1" viewBox="-10 0 2058 2048">
   <path fill="currentColor"
d="M1104 22q-39 27 -102 140q-26 59 -38 114q-63 -160 -160 -212q-146 -89 -412 -55q-26 5 -38 25q-12 22 0 47q107 243 310 293q169 47 266 114v38q-233 -72 -414 13q-171 87 -234 212q-62 128 -62 326q0 540 682 848q32 16 42 85q8 63 54 21q64 -66 136 -102
q694 -317 694 -852q0 -394 -274 -538q-181 -94 -442 -9q0 -177 78 -313q76 -118 34 -174q-17 -26 -56 -32q-37 -6 -64 11z" />
</svg>