<svg xmlns="http://www.w3.org/2000/svg" xmlns:xlink="http://www.w3.org/1999/xlink" version="1.1" viewBox="-10 0 2068 2048">
   <path fill="currentColor"
d="M512 128h128q53 0 90.5 38t37.5 90v128h-384v-128q0 -52 38 -90t90 -38zM768 512v1281q0 52 -37.5 89.5t-90.5 37.5h-512q-52 0 -90 -37.5t-38 -89.5v-237q0 -212 108 -393q85 -139 104 -299l30 -240q7 -48 43 -80t85 -32h398zM1680 512q48 0 84 32t42 80l30 240
q21 162 104 299q108 181 108 393v237q0 52 -38 89.5t-90 37.5h-512q-52 0 -90 -37.5t-38 -89.5v-1281h400zM1280 256q0 -52 38 -90t90 -38h128q53 0 90.5 38t37.5 90v128h-384v-128zM1152 512v640h-256v-640h256z" />
</svg>