<svg xmlns="http://www.w3.org/2000/svg" xmlns:xlink="http://www.w3.org/1999/xlink" version="1.1" viewBox="-10 0 2067 2048">
   <path fill="currentColor"
d="M1024 0q104 0 193 51.5t140.5 139.5t51.5 192v14q0 47 -33.5 80.5t-80.5 33.5h-540q-47 0 -80.5 -33.5t-33.5 -80.5v-14q0 -104 51 -192t139.5 -139.5t192.5 -51.5zM167 421q37 -37 90 -37t90 37l256 256q6 6 8 9q89 -46 190 -46h447q100 0 190 46q4 -6 7 -9l257 -256
q38 -37 91 -37t90 37.5t37 90.5t-37 90l-256 256q-5 5 -8 7q38 73 44 159h257q52 0 89.5 37.5t37.5 90t-37.5 90.5t-89.5 38h-256q0 146 -62 274q9 5 24 20l257 255q37 38 37 91t-37 90.5t-91 37.5t-91 -38l-252 -252q-153 137 -361 158v-956q0 -26 -19 -45t-45 -19t-45 19
t-19 45v956q-208 -21 -361 -158l-252 251q-37 38 -90 38t-91 -37.5t-38 -90.5t38 -91l256 -255q15 -15 24 -20q-62 -130 -62 -274h-255q-53 0 -90.5 -37.5t-37.5 -90t37.5 -90t90.5 -37.5h257q6 -84 45 -159q-6 -4 -9 -7l-256 -256q-38 -37 -38 -90.5t38 -91.5z" />
</svg>