<svg xmlns="http://www.w3.org/2000/svg" xmlns:xlink="http://www.w3.org/1999/xlink" version="1.1" viewBox="-10 0 2058 2048">
   <path fill="currentColor"
d="M1024 2048q-208 0 -385 -103t-280 -280t-103 -385q0 -103 57 -252.5t133.5 -284.5t180.5 -289.5t168.5 -241t126.5 -165.5q38 -47 99 -47h6q61 0 99 47q62 79 126.5 165.5t168.5 241t180.5 289.5t133.5 284.5t57 252.5q0 208 -103 385t-280 280t-385 103zM639 1344
q0 -26 -18.5 -45t-44.5 -19t-45 19t-19 45q0 186 131 317.5t317 131.5q26 0 45 -19t19 -45t-19 -45t-45 -19q-133 0 -227 -94t-94 -227z" />
</svg>