<svg xmlns="http://www.w3.org/2000/svg" xmlns:xlink="http://www.w3.org/1999/xlink" version="1.1" viewBox="-10 0 2058 2048">
   <path fill="currentColor"
d="M128 384q0 -104 51.5 -192.5t139.5 -140t193 -51.5h1152h128q53 0 90.5 37.5t37.5 90.5v1280q0 53 -37.5 90.5t-90.5 37.5v257q53 0 90.5 37.5t37.5 90t-37.5 90t-90.5 37.5h-128h-1152q-105 0 -193 -51t-139.5 -139.5t-51.5 -192.5v-1281zM384 1665q0 53 37.5 90.5
t90.5 37.5h1024v-257h-1024q-53 0 -90.5 38t-37.5 91zM746 726l-84 -84q-22 70 -22 127v2q0 1 1 2l1 1l148 130q15 14 8 36q-9 20 -30 20q-10 0 -20 -8l-96 -83q36 150 157.5 248.5t279 98.5t278.5 -98.5t157 -248.5l-94 83q-10 8 -22 8q-14 0 -24 -12q-8 -12 -8 -20
q0 -11 12 -24l148 -130v-1v-2v-3q0 -57 -20 -127l-84 85q-10 9 -23.5 9t-23 -9t-9.5 -22.5t10 -22.5l106 -105q-49 -106 -144 -171q-8 -6 -15.5 1.5t-4.5 16.5q26 67 12 138.5t-64 123.5q-9 11 -10.5 25.5t6.5 25.5q30 42 38 93t-8 101q-17 58 -62.5 99t-105.5 54l-4 -137
l50 35q4 2 8 2q8 0 14 -9q6 -8 0 -15l-34 -57l72 -14q12 -2 12 -16q0 -6 -4 -11t-8 -6l-72 -14l34 -57q6 -9 0 -16q-6 -9 -14 -9q-2 0 -8 3l-56 38l-20 -449q0 -7 -4.5 -11t-11 -4t-11.5 4t-5 11l-18 444l-48 -33q-11 -7 -20 2q-8 8 -2 20l32 57l-70 15q-12 2 -12 16
q0 6 3.5 10.5t8.5 5.5l70 15l-32 56q-4 6 -4 9q0 7 6 12q6 4 12 4q2 0 8 -3l40 -28l-4 131q-60 -12 -105.5 -53.5t-62.5 -99.5q-16 -50 -8 -101t38 -93q8 -11 7 -26t-11 -25q-49 -52 -63 -123.5t11 -138.5q4 -9 -3.5 -16.5t-16.5 -1.5q-93 66 -142 171l104 106q10 9 10 22
t-9 22t-23 9t-22 -9v-1z" />
</svg>