<svg xmlns="http://www.w3.org/2000/svg" xmlns:xlink="http://www.w3.org/1999/xlink" version="1.1" viewBox="-10 0 2068 2048">
   <path fill="currentColor"
d="M308 409q0 -42 30 -72t72 -30h1024h204q111 0 205.5 54.5t149.5 149t55 205.5t-55 205.5t-149.5 149.5t-205.5 55h-102q0 128 -90 217.5t-218 89.5h-614q-127 0 -216.5 -89.5t-89.5 -217.5v-717zM1536 922h102q84 0 145 -60.5t61 -145.5t-61 -144.5t-145 -59.5h-102v410z
M102 1536h1638q43 0 73.5 30t30.5 72t-31 72.5t-73 30.5h-1638q-41 0 -71.5 -30.5t-30.5 -72.5t30 -72t72 -30z" />
</svg>