<svg xmlns="http://www.w3.org/2000/svg" xmlns:xlink="http://www.w3.org/1999/xlink" version="1.1" viewBox="-10 0 2067 2048">
   <path fill="currentColor"
d="M66 210.5q0 -40.5 28.5 -68.5t68.5 -28h130q41 0 69 28t28 68v488h65q41 0 69.5 29t28.5 69.5t-28.5 69t-69.5 28.5h-324q-40 0 -69 -28.5t-29 -69t29 -69.5t69 -29h65v-390h-33q-40 0 -68.5 -28.5t-28.5 -69zM320 1370q-19 -23 -49.5 -21t-47.5 27l-46 62q-23 33 -63 40
t-73 -16q-33 -24 -39 -64.5t17 -73.5l45 -64q48 -66 122 -92.5t150.5 -7t129.5 79.5q65 75 64 174t-68 172l-142 154h135q41 0 69.5 28t28.5 68.5t-28.5 69t-69.5 28.5h-357q-29 0 -53.5 -15.5t-35.5 -42.5q-11 -26 -6.5 -55t23.5 -51l293 -316q17 -18 17 -42.5t-16 -41.5z
M878 244h1040q54 0 91.5 37.5t37.5 92t-37.5 92.5t-91.5 38h-1040q-54 0 -92 -38t-38 -92t38 -92t92 -38zM878 894h1040q54 0 91.5 38t37.5 92t-37.5 92t-91.5 38h-1040q-54 0 -92 -38t-38 -92t38 -92t92 -38zM878 1544h1040q54 0 91.5 38t37.5 92.5t-37.5 92t-91.5 37.5
h-1040q-54 0 -92 -38t-38 -92t38 -92t92 -38z" />
</svg>