<svg xmlns="http://www.w3.org/2000/svg" xmlns:xlink="http://www.w3.org/1999/xlink" version="1.1" viewBox="-10 0 2068 2048">
   <path fill="currentColor"
d="M154 418q4 18 18 30.5t32 12.5q22 0 37 -15.5t15 -36.5q0 -19 -12 -33.5t-30 -16.5q-1 0 -4.5 -0.5t-5.5 -0.5q-20 0 -35 15t-15 36v1v4v4zM0 409q0 -85 60 -144.5t144 -59.5q64 0 116 35t74 92h646q22 -57 73.5 -92t114.5 -35q85 0 145.5 59.5t60.5 144.5
q0 64 -35.5 115.5t-92.5 74.5v337q57 23 92.5 74.5t35.5 115.5q0 85 -60.5 145t-145.5 60q-63 0 -114.5 -35.5t-73.5 -92.5h-646q-22 57 -74 92.5t-116 35.5q-84 0 -144 -60t-60 -145q0 -64 35.5 -115.5t92.5 -74.5v-337q-57 -23 -92.5 -74.5t-35.5 -115.5zM1178 409
q0 22 14.5 37t36 15t36.5 -15t15 -37t-15 -36.5t-36.5 -14.5t-36 14.5t-14.5 36.5zM1040 487h-646q-32 79 -112 112v337q79 32 112 113h646q33 -81 112 -113v-337q-80 -33 -112 -112zM1228.5 1075q-21.5 0 -36 14.5t-14.5 36.5t14.5 36.5t36 14.5t36.5 -14.5t15 -36.5
t-15 -36.5t-36.5 -14.5zM256 1126q0 -21 -15 -36t-37 -15q-18 0 -32.5 12.5t-17.5 30.5v8q0 21 15 36t37 15h8q18 -3 30 -17.5t12 -33.5zM1508 998q-25 -56 -74 -101v-52h220q22 -57 74 -93t116 -36q84 0 144 60.5t60 145.5q0 64 -35.5 115.5t-92.5 74.5v337q57 23 92.5 74
t35.5 115q0 85 -60 145t-144 60q-64 0 -116 -35.5t-74 -92.5h-646q-22 57 -73.5 92.5t-114.5 35.5q-85 0 -145.5 -60t-60.5 -145q0 -64 35.5 -115t92.5 -74v-118h154v118q80 33 112 112h646q32 -79 112 -112v-337q-38 -16 -67.5 -45.5t-44.5 -68.5h-146zM1792 913q-1 1 -1 3
t0.5 4t0.5 3q0 22 14.5 37t35.5 15q20 0 34.5 -13t17.5 -32v-10q0 -22 -14.5 -36.5t-35.5 -14.5q-20 0 -35 12.5t-17 31.5zM870 1647q2 -3 2 -11q0 -22 -15.5 -36.5t-36.5 -14.5q-20 0 -34.5 12.5t-17.5 31.5v11q0 22 15 36.5t37 14.5q19 0 33.5 -12.5t16.5 -31.5z
M1834 1689h10q20 0 35 -15t15 -36v-5v-4q-4 -18 -18 -30.5t-32 -12.5q-22 0 -37 15.5t-15 36.5q0 19 12 33.5t30 17.5z" />
</svg>