<svg xmlns="http://www.w3.org/2000/svg" xmlns:xlink="http://www.w3.org/1999/xlink" version="1.1" viewBox="-10 0 2068 2048">
   <path fill="currentColor"
d="M1856 1024q0 -113 -30 -221t-83.5 -199t-130.5 -168t-168 -130.5t-199 -83.5t-221 -30t-220.5 30t-199 83.5t-168 130.5t-130.5 168t-84 199t-30 221t30 221t84 199t130.5 168t168 131t199.5 84t220.5 30t220.5 -30t199 -84t168 -131t130.5 -168t83.5 -199t30 -221z
M0 1024q0 -139 37 -272t103 -245.5t160.5 -207t207 -160t245 -102.5t272 -37t272 37t244.5 102.5t206.5 160t160.5 207t103 245.5t37 272t-37 272t-103 245.5t-160.5 207t-206.5 160t-244.5 102.5t-272 37t-272 -37t-245 -102.5t-207 -160t-160.5 -207t-103 -245.5t-37 -272
zM680 661q23 -67 81 -108t129 -41h234q104 0 178 74t74 178q0 68 -34 127t-92 93l-130 74q0 39 -28 66.5t-68 27.5q-39 0 -67.5 -28t-28.5 -68v-53q0 -26 13 -48.5t35 -35.5l178 -102q30 -19 30 -52q0 -25 -17.5 -42.5t-42.5 -17.5h-234q-23 0 -30 20v6q-13 37 -49.5 54
t-74.5 4q-37 -13 -53.5 -48.5t-4.5 -73.5zM896 1408q0 -52 38 -90t90.5 -38t90 37.5t37.5 90.5t-37.5 90.5t-90 37.5t-90.5 -38t-38 -90z" />
</svg>