<svg xmlns="http://www.w3.org/2000/svg" xmlns:xlink="http://www.w3.org/1999/xlink" version="1.1" viewBox="-10 0 2068 2048">
   <path fill="currentColor"
d="M1650 683h-1366q-23 0 -39.5 16.5t-16.5 39.5v569q0 23 16.5 40t39.5 17h1366q23 0 39.5 -17t16.5 -40v-569q0 -23 -16.5 -39.5t-39.5 -16.5zM284 455h1366q117 0 200.5 83t83.5 201v58q47 0 80.5 33.5t33.5 80.5v227q0 47 -33.5 80.5t-80.5 33.5v56q0 118 -83.5 201.5
t-200.5 83.5h-1366q-117 0 -200.5 -83.5t-83.5 -201.5v-569q0 -118 83.5 -201t200.5 -83zM1592 797v455h-1250v-455h1250z" />
</svg>