<svg xmlns="http://www.w3.org/2000/svg" xmlns:xlink="http://www.w3.org/1999/xlink" version="1.1" viewBox="-10 0 2068 2048">
   <path fill="currentColor"
d="M342 398q0 -70 50 -120t120 -50h1024q70 0 120 50t50 120v1080h-1364v-1080zM1454 566q-26 -26 -61 -26t-59 26l-396 394l-166 -168q-25 -25 -60.5 -25t-60 25.5t-25 61t25.5 60.5l228 226q25 26 60 26t60 -26l454 -454q25 -26 25 -61t-25 -59zM0 1308q0 -71 50 -120.5
t120 -49.5h58v454h1592v-454h58q70 0 120 49.5t50 120.5v342q0 70 -50 120t-120 50h-1708q-70 0 -120 -50t-50 -120v-342z" />
</svg>