<svg xmlns="http://www.w3.org/2000/svg" xmlns:xlink="http://www.w3.org/1999/xlink" version="1.1" viewBox="-10 0 2068 2048">
   <path fill="currentColor"
d="M1024 433q-229 0 -326 173q-98 173 -98 418q0 246 98 419q97 172 326 172t326 -172q98 -172 98 -419q0 -246 -98 -418q-97 -173 -326 -173zM840 1024q0 -366 184 -366q27 0 38 4q45 37 12 92l-226 412q-8 -89 -8 -142zM1024 1391q-27 0 -38 -4h-8q-6 -5 -8 -5
q-72 -29 -30 -100l250 -432q16 81 16 174q0 367 -182 367zM1972 629q-75 -183 -220 -329q-300 -300 -732 -300q-421 0 -716 300q-148 139 -224 337q-80 174 -80 387t80 387q76 190 220 334q148 148 332 224q182 79 388 79q196 0 394 -79q198 -85 342 -224q141 -142 216 -325
q76 -188 76 -396t-76 -395zM1344 1794q-153 67 -320 67q-169 0 -316 -62q-162 -75 -272 -184q-128 -129 -186 -274q-66 -157 -66 -317q0 -158 66 -316q63 -155 186 -279q237 -245 588 -245q350 0 594 249q124 124 184 271q62 150 62 320q0 345 -242 587q-128 125 -278 183z
" />
</svg>