<svg xmlns="http://www.w3.org/2000/svg" xmlns:xlink="http://www.w3.org/1999/xlink" version="1.1" viewBox="-10 0 2068 2048">
   <path fill="currentColor"
d="M0 1023q0 -139 37 -271.5t103 -245t160.5 -207t207 -160t245 -102.5t272 -37t272 37t245 102.5t206.5 160t160 207t103 245.5t37 272t-37 272t-103 245.5t-160 207t-206.5 160t-245 102.5t-272.5 37h-790q-97 0 -165.5 -68t-68.5 -165v-792zM1566 734q0 -88 -47.5 -161
t-124 -112.5t-162.5 -39.5q-120 0 -212.5 79t-107.5 195q-1 6 -2.5 18t-1.5 21q0 221 -2 295q6 200 0 349q0 92 -59 150t-147 58q-86 0 -147 -61t-61 -147q1 -92 65 -149.5t157 -60.5l120 -2v-169h-120q-105 0 -194 50t-142 137.5t-56 193.5q0 102 51 189.5t138 138.5
t189 51q97 0 181 -46t136.5 -125.5t60.5 -174.5l2 -243l148 -2q33 0 55.5 -17.5t27.5 -43t0 -51t-27.5 -43t-55.5 -16.5l-148 2v-88v-175q0 -57 46 -99.5t106 -42.5q42 0 77.5 13.5t61 46.5t25.5 82q0 24 -2 29q-6 36 14.5 65.5t56.5 34.5t65 -17.5t32 -58.5q4 -40 4 -53z
" />
</svg>