<svg xmlns="http://www.w3.org/2000/svg" xmlns:xlink="http://www.w3.org/1999/xlink" version="1.1" viewBox="-10 0 2058 2048">
   <path fill="currentColor"
d="M1775 199q133 116 189 366t10 620q-11 90 -37 166.5t-57.5 129.5t-74.5 97t-79.5 70t-82 47.5t-73 30t-61 17.5t-37.5 10q-14 5 -43 11t-89 16.5t-128.5 16t-161.5 8t-187 -6.5q-97 111 -119 134q-10 11 -23 25.5t-21.5 24t-19.5 21.5t-19.5 19t-19.5 14t-21 9.5
t-21.5 2.5t-23.5 -4q-24 -7 -37 -32.5t-14 -46.5l-1 -22v-206q-99 -28 -177 -78.5t-126.5 -112.5t-84 -136t-49.5 -149.5t-24 -152.5t-7.5 -144.5t0.5 -126.5q4 -210 51.5 -366t152.5 -261q54 -49 127 -87.5t147.5 -60t152 -36t144 -19.5t119 -6.5t83.5 -0.5l30 1
q130 1 245 17.5t189.5 39t137 52.5t92 50.5t49.5 38.5zM1832 1147q39 -312 -6.5 -530.5t-156.5 -313.5q-16 -14 -43 -31t-81 -40.5t-119.5 -41.5t-164 -31t-208.5 -14q-9 0 -26 -0.5t-69 0.5t-103 5t-120.5 16t-130 30t-123.5 49.5t-109 72.5q-88 88 -128 219t-43 307v25
q-5 56 -1 126t9.5 141.5t32 144t65 134.5t109 112t164.5 76q-1 315 -1 342q0 30 13.5 35.5t29.5 -12.5q29 -29 97.5 -107.5t121.5 -142.5l54 -65q125 8 253 -2.5t187.5 -23t83.5 -20.5q5 -1 31.5 -7.5t50 -13t60 -23t67 -37t65.5 -56t61 -78.5t47.5 -106.5t30.5 -138.5z
M1275 824q1 17 -12 24.5t-25.5 1.5t-13.5 -23q-6 -130 -131 -136q-16 -1 -22 -14t2 -26t24 -12q83 5 128.5 52t49.5 133zM1356 870q3 -131 -76 -218.5t-226 -98.5q-16 -1 -21.5 -14t2 -26t23.5 -12q113 9 194 60.5t119.5 131.5t36.5 178q0 17 -13 23t-26 -1t-13 -23z
M1545 923q0 17 -13 24t-26 0.5t-13 -23.5q-1 -119 -39.5 -215.5t-104.5 -159t-152.5 -96.5t-186.5 -35q-16 0 -22.5 -13t0 -26t22.5 -13q111 1 207.5 39.5t169 108t115 175.5t43.5 234zM1499 1315v1q-23 42 -53.5 75t-72.5 52t-81 6l-1 -1q-68 -19 -193 -87t-215 -139
q-99 -78 -170 -169q-68 -86 -122 -186q-38 -68 -64 -124t-33 -77l-7 -22q-18 -57 24 -113t109 -94q28 -14 53.5 -10t43.5 25q48 60 70 89q38 55 61 95q17 34 10.5 62.5t-26.5 43.5l-47 38q-11 9 -16.5 23t-5.5 23v10q2 6 5 16t15.5 39t28.5 57t44.5 64t61.5 65t81 55.5
t102 40.5q2 0 10 1t22.5 -4.5t22.5 -16.5l39 -49q15 -20 43.5 -25.5t62.5 11.5q116 68 183 131q45 37 15 94z" />
</svg>