<svg xmlns="http://www.w3.org/2000/svg" xmlns:xlink="http://www.w3.org/1999/xlink" version="1.1" viewBox="-10 0 2067 2048">
   <path fill="currentColor"
d="M308 614q0 -111 55 -205.5t149.5 -149t205.5 -54.5t205.5 54.5t149.5 149t55 205.5t-55 205.5t-149.5 149.5t-205.5 55t-205.5 -55t-149.5 -149.5t-55 -205.5zM1 1748q0 -116 45 -222t121.5 -182.5t182 -121.5t221.5 -45h293q116 0 221.5 45t182 121.5t121.5 182.5
t45 222q0 40 -28 67.5t-67 27.5h-1243q-40 0 -67.5 -27.5t-27.5 -67.5zM1508 662q22 -22 54 -22t54 22l151 150l150 -150q22 -22 54 -22t54 22.5t22 54.5t-22 54l-150 150l150 150q22 23 22 55t-22.5 54t-54 22t-53.5 -22l-150 -151l-151 151q-23 22 -54.5 22t-53.5 -22.5
t-22.5 -54.5t22.5 -54l151 -150l-151 -150q-23 -23 -23 -55t23 -54z" />
</svg>