<svg xmlns="http://www.w3.org/2000/svg" xmlns:xlink="http://www.w3.org/1999/xlink" version="1.1" viewBox="-10 0 2068 2048">
   <path fill="currentColor"
d="M292 0h1464q120 0 206 85.5t86 206.5v1464q0 121 -86 206.5t-206 85.5h-1464q-120 0 -206 -85.5t-86 -206.5v-1464q0 -121 86 -206.5t206 -85.5zM438 475q0 46 32.5 77.5t77.5 31.5q125 0 243.5 33t219 92t185 143.5t143.5 184.5t92 219t33 243q0 46 31.5 77.5t77 31.5
t77.5 -31.5t32 -77.5q0 -154 -40.5 -301.5t-113.5 -271.5t-178 -229t-229 -178t-271 -113.5t-302 -40.5q-45 0 -77.5 32t-32.5 78zM438 914q0 46 32.5 78t77.5 32q97 0 185 37.5t152 101t101.5 151.5t37.5 185q0 46 32.5 77.5t78 31.5t77.5 -31.5t32 -77.5
q0 -141 -55.5 -270t-148.5 -221.5t-221.5 -147.5t-270.5 -55q-45 0 -77.5 31.5t-32.5 77.5zM438 1462q0 60 43.5 103t104 43t103.5 -43t43 -103t-43 -103t-103.5 -43t-104 43t-43.5 103z" />
</svg>