<svg xmlns="http://www.w3.org/2000/svg" xmlns:xlink="http://www.w3.org/1999/xlink" version="1.1" viewBox="-10 0 2068 2048">
   <path fill="currentColor"
d="M124 220l450 352q32 -159 158.5 -263t291.5 -104q94 0 179.5 36.5t147 98t97.5 146.5t36 179q0 136 -71.5 247.5t-190.5 168.5l796 625q25 20 29 52t-15.5 56.5t-51 28.5t-56.5 -16l-1894 -1485q-25 -19 -29 -51t15.5 -57t51.5 -29t56 15zM1746 1843h-2h-1440
q-41 0 -70.5 -28.5t-29.5 -69.5q0 -105 41.5 -200.5t110.5 -165t165 -110.5t201 -41h188l780 615h56z" />
</svg>