<svg xmlns="http://www.w3.org/2000/svg" xmlns:xlink="http://www.w3.org/1999/xlink" version="1.1" viewBox="-10 0 2068 2048">
   <path fill="currentColor"
d="M1878 682h-1708v910q0 24 17 41t41 17h114q0 -118 83.5 -202t200.5 -84h228q117 0 200.5 84t83.5 202h682q23 0 40.5 -17t17.5 -41v-910zM228 228h1592q93 0 160.5 66.5t67.5 159.5v1138q0 94 -67.5 161t-160.5 67h-1592q-94 0 -161 -67t-67 -161v-1138q0 -93 67 -159.5
t161 -66.5zM966 1023.5q0 93.5 -66.5 161t-160 67.5t-160.5 -67.5t-67 -161t67 -160.5t160.5 -67t160 67t66.5 160.5zM1336 854h286q35 0 59.5 24.5t24.5 60t-24.5 60.5t-59.5 25h-286q-35 0 -59.5 -25t-24.5 -60.5t24.5 -60t59.5 -24.5zM1336 1194h286q35 0 59.5 25.5
t24.5 61t-24.5 59.5t-59.5 24h-286q-35 0 -59.5 -24t-24.5 -59.5t24.5 -61t59.5 -25.5z" />
</svg>