<svg xmlns="http://www.w3.org/2000/svg" xmlns:xlink="http://www.w3.org/1999/xlink" version="1.1" viewBox="-10 0 2058 2048">
   <path fill="currentColor"
d="M1514 758v-452q0 -128 -89 -217t-215 -89h-372q-128 0 -216 89q-86 89 -86 217v452h978zM1758 924h-734h-734q-90 12 -90 112q0 50 33 83t79 33h46q58 129 92 189q34 59 110 126q75 65 178 91v179q-144 75 -198 224q-13 30 8 62q20 25 54 25h844q34 0 54 -25
q22 -33 10 -62q-55 -149 -200 -224v-183q78 -16 136 -51q57 -34 104 -98q43 -58 70 -110q34 -63 72 -143h40q50 0 83 -33t33 -83q0 -100 -90 -112z" />
</svg>