<svg xmlns="http://www.w3.org/2000/svg" xmlns:xlink="http://www.w3.org/1999/xlink" version="1.1" viewBox="-10 0 2058 2048">
   <path fill="currentColor"
d="M864 1382q-10 10 -31 21q-22 12 -36 17v628h396v-682q-106 29 -198 29q-63 0 -131 -13zM270 666q0 -48 5 -76q-161 147 -161 354q0 194 137 329t331 135q100 0 202 -47q-228 -67 -370 -259q-144 -194 -144 -436zM1589 363q-83 -164 -243 -264q-158 -99 -351 -99
q-218 0 -396 131q-177 130 -244 337q0 12 -9 38q-4 4 -4 17t-4 21q-13 68 -13 122q0 222 133 400t339 241q7 3 27 8q17 4 28 4q26 9 37 9q11 4 38 4q19 4 68 4q92 0 198 -29q65 -20 122 -51q71 25 152 25q193 0 330 -137t137 -330q0 -161 -97 -285t-248 -166z" />
</svg>