<svg xmlns="http://www.w3.org/2000/svg" xmlns:xlink="http://www.w3.org/1999/xlink" version="1.1" viewBox="-10 0 2068 2048">
   <path fill="currentColor"
d="M1940 243q44 0 75.5 31.5t32.5 75.5v1348q0 44 -31.5 75.5t-76.5 31.5h-1832q-45 0 -76.5 -31.5t-31.5 -75.5v-1348q0 -44 31 -75.5t75 -31.5h432q45 0 76.5 31.5t31.5 75.5v161h754v-161q0 -44 31.5 -75.5t76.5 -31.5h432zM592 1429q112 0 191 -79t79 -191.5t-79 -191.5
t-191.5 -79t-191 79t-78.5 192q0 112 79 191t191 79zM1454 1429q112 0 192 -79.5t80 -191.5t-79.5 -191t-192.5 -79q-112 0 -191 79t-79 191t79 191.5t191 79.5z" />
</svg>