<svg xmlns="http://www.w3.org/2000/svg" xmlns:xlink="http://www.w3.org/1999/xlink" version="1.1" viewBox="-10 0 2068 2048">
   <path fill="currentColor"
d="M1306 1615q-134 50 -282 50q-141 0 -282 -50q-1 0 -2 -0.5t-2 -0.5q-181 -67 -314 -206q-110 -114 -171 -262t-61 -313q0 -113 30 -221t84 -199t130.5 -168t168 -131t199.5 -84t220.5 -30t220.5 30t199 84t168 131t130.5 168t83.5 199t30 221q0 165 -61 313t-171 262
q-2 2 -6 6.5t-6 6.5q-130 131 -304 194h-2zM1024.5 336q-33.5 0 -57 23.5t-23.5 56.5v56q-49 11 -88 34q-104 64 -104 176q0 104 98 162q48 28 144 57l6 2q81 24 112 42q24 15 24 33q0 27 -24 42q-35 21 -86 20q-9 0 -18 -1t-19.5 -3.5t-18 -4t-21 -5.5t-19 -6t-22 -7.5
l-22.5 -7.5q-2 -1 -12.5 -4.5t-15.5 -5.5q-32 -10 -61.5 5t-40.5 46q-10 31 5 60.5t45 40.5q4 1 26 8v0q70 25 112 34v60q0 33 23.5 56t57 23t56.5 -23t23 -56v-56q53 -11 92 -36q46 -29 73 -75t27 -105q-2 -105 -98 -166q-42 -27 -150 -61h-2q-82 -24 -112 -42
q-22 -13 -22 -27q0 -23 24 -37q36 -21 86 -21q48 0 126 21q32 8 60 -8t36.5 -48t-7.5 -60.5t-49 -37.5q-46 -13 -84 -19v-55q0 -33 -23 -56.5t-56.5 -23.5zM192 1408h64q120 160 290 257h-290v128h768h768v-128h-288q167 -96 288 -257h64q79 0 135.5 56.5t56.5 136.5v256
q0 79 -56.5 135t-135.5 56h-1664q-79 0 -135.5 -56t-56.5 -135v-256q0 -80 56.5 -136.5t135.5 -56.5z" />
</svg>