<svg xmlns="http://www.w3.org/2000/svg" xmlns:xlink="http://www.w3.org/1999/xlink" version="1.1" viewBox="-10 0 2068 2048">
   <path fill="currentColor"
d="M292 0h1464q120 0 206 85.5t86 206.5v1464q0 121 -86 206.5t-206 85.5h-1464q-120 0 -206 -85.5t-86 -206.5v-1464q0 -121 86 -206.5t206 -85.5zM1606 764q0 -26 -2 -38q88 -63 152 -155q-84 37 -174 46q47 -28 81.5 -71t50.5 -94q-89 54 -190 72q-42 -44 -98.5 -69
t-121.5 -25q-67 0 -128 29t-102 78t-59 117.5t-3 142.5q-184 -9 -344 -91.5t-272 -221.5q-42 71 -42 151t36 143q36 66 98 107q-70 -1 -136 -38v4q0 108 68.5 190.5t171.5 103.5q-62 16 -134 5q28 90 104.5 148.5t173.5 59.5q-166 129 -370 129q-24 0 -74 -4
q209 134 460 134q134 0 254.5 -35.5t212.5 -97.5t166.5 -145t122 -178t73 -196t25.5 -201z" />
</svg>