<svg xmlns="http://www.w3.org/2000/svg" xmlns:xlink="http://www.w3.org/1999/xlink" version="1.1" viewBox="-10 0 2068 2048">
   <path fill="currentColor"
d="M256 436v127v257v128q0 86 60 145l164 164q20 20 48 23t52 -13q31 -21 34.5 -57.5t-22.5 -63.5l-50 -49l-102 -102q-30 -30 -30 -73t30 -73t73 -30t73 30l102 103l48 49l80 80q51 51 78.5 116.5t27.5 137.5v253q0 64 -45 108.5t-109 44.5h-214q-84 0 -144 -60l-320 -320
q-42 -43 -66 -99.5t-24 -117.5v-324v-206v-178q0 -53 37.5 -91t91 -38t90.5 38t37 91zM1792 436q0 -53 37.5 -91t91 -38t90.5 38t37 91v178v206v324q0 61 -23.5 117.5t-66.5 99.5l-320 320q-60 60 -144 60h-214q-64 0 -109 -44.5t-45 -108.5v-253q0 -72 27.5 -137.5
t78.5 -116.5l80 -80l50 -49l102 -103q30 -30 72 -30t72 30t30 73t-30 73l-102 102l-48 49q-27 26 -23.5 63t35.5 58q23 16 50.5 13t47.5 -23l164 -164q60 -59 60 -145v-128v-257v-127z" />
</svg>