<svg xmlns="http://www.w3.org/2000/svg" xmlns:xlink="http://www.w3.org/1999/xlink" version="1.1" viewBox="-10 0 2068 2048">
   <path fill="currentColor"
d="M1930 147h-406q-331 0 -500 159q-167 -159 -498 -159h-408q-46 0 -82 33t-36 84v1343q0 51 36 84t82 33h408q113 0 226 40t164 91q37 46 104 46h12q64 0 102 -46q51 -51 162 -91q113 -40 228 -40h406q52 0 85 -33t33 -84v-1343q0 -51 -33 -84t-85 -33zM936 1645
q-174 -97 -410 -97h-348v-1225h348q178 0 292 56q118 57 118 120v1146zM1872 1548h-348q-237 0 -412 97v-1150q0 -59 118 -116q114 -56 294 -56h348v1225z" />
</svg>