<svg xmlns="http://www.w3.org/2000/svg" xmlns:xlink="http://www.w3.org/1999/xlink" version="1.1" viewBox="-10 0 2068 2048">
   <path fill="currentColor"
d="M308 1741q0 42 -45.5 72t-109 30t-108.5 -30t-45 -72v-1434q0 -42 45 -72t108.5 -30t109 30t45.5 72v1434zM1638 307v1434h-1228v-1434h1228zM1894.5 205q63.5 0 108.5 30t45 72v1434q0 42 -45 72t-108.5 30t-109 -30t-45.5 -72v-1434q0 -42 45.5 -72t109 -30zM628 1209
q0 24 17 41t41 17h182l100 172q20 33 56 33q18 0 33 -9t23 -24l100 -172h182q25 0 42.5 -17t17.5 -41q0 -16 -8 -30l-92 -155l90 -155q8 -14 8 -30q0 -24 -17 -41.5t-41 -17.5h-182l-100 -172q-19 -32 -56 -32q-38 0 -56 32l-100 172h-182q-24 0 -42 17.5t-18 41.5
q0 14 10 30l90 155l-90 155q-8 14 -8 30zM1024 1384l-68 -117h136zM814 1024l98 -166h226l96 166l-96 166h-226zM1278 1100l52 90h-104zM1330 858l-52 90l-52 -90h104zM1024 664l68 116h-136zM718 858h104l-52 90zM822 1190h-104l52 -90z" />
</svg>