<svg xmlns="http://www.w3.org/2000/svg" xmlns:xlink="http://www.w3.org/1999/xlink" version="1.1" viewBox="-10 0 2068 2048">
   <path fill="currentColor"
d="M698 196q53 -84 139.5 -132t186 -48t186 48t138.5 132l154 247l110 -63q25 -14 54 -12t52 20q22 18 31.5 45t2.5 55l-94 350q-11 39 -45 59t-73 9l-348 -94q-29 -7 -48.5 -29t-23 -50.5t9.5 -55t38 -40.5l114 -66l-150 -240q-18 -27 -46.5 -43t-62 -16t-61.5 16t-46 43
l-70 113q-28 45 -79 56.5t-95 -15.5q-46 -28 -59 -79t15 -97zM1718 1023q44 -27 95 -15t79 57l98 157q56 91 58 200q0 105 -51 193.5t-139.5 140.5t-193.5 52h-384v127q0 29 -16 53.5t-43 36t-56 6t-49 -26.5l-256 -257q-29 -28 -29 -67.5t29 -67.5l256 -256
q20 -20 48.5 -26t56 5.5t43.5 35.5t16 53v128h384q53 0 89.5 -37.5t36.5 -90.5q0 -37 -18 -67l-98 -156q-28 -45 -15.5 -97.5t59.5 -80.5zM260 899l-116 -66q-25 -14 -38 -41t-9.5 -55.5t23 -50.5t48.5 -30l348 -93q39 -10 73.5 10t44.5 58l94 349q7 29 -2.5 56.5
t-31.5 45.5q-23 18 -52 19.5t-54 -13.5l-106 -61l-206 330q-20 32 -20 66q0 53 37.5 90.5t90.5 37.5h128q53 0 90.5 38.5t37.5 91t-37.5 90t-90.5 37.5h-128q-105 0 -193.5 -52t-139.5 -140.5t-51 -193.5q0 -108 58 -201z" />
</svg>