<svg xmlns="http://www.w3.org/2000/svg" xmlns:xlink="http://www.w3.org/1999/xlink" version="1.1" viewBox="-10 0 2067 2048">
   <path fill="currentColor"
d="M1997 292l-1704 1706q-49 49 -121 49t-121.5 -49.5t-49.5 -121t49 -120.5l1706 -1706q50 -50 121 -50t120.5 49.5t49.5 121t-50 121.5zM684 341.5q0 92.5 -46 171.5t-124.5 125t-171 46t-171 -46t-124.5 -125t-46 -171.5t46 -171t124.5 -124t171 -45.5t171 45.5
t124.5 124t46 171zM2047 1705.5q0 92.5 -45.5 171.5t-123.5 125t-170.5 46t-171.5 -46t-125 -125t-46 -171.5t46 -171t125 -124t171.5 -45.5t170.5 45.5t123.5 124t45.5 171z" />
</svg>