<svg xmlns="http://www.w3.org/2000/svg" xmlns:xlink="http://www.w3.org/1999/xlink" version="1.1" viewBox="-10 0 2067 2048">
   <path fill="currentColor"
d="M941 208q27 12 31 39l45 271l271 46q27 5 38 30t-5 49l-123 176h-22q-109 0 -204 54v-3q0 -127 -89.5 -217t-217 -90t-217.5 90t-90 217.5t90 217t217 89.5q39 0 75 -9q-88 44 -148 124.5t-76 178.5l-78 55q-24 16 -49 5t-30 -39l-45 -270l-272 -46q-27 -4 -38 -30
q-10 -24 6 -49l158 -226l-158 -228q-16 -24 -6 -49q11 -25 38 -30l272 -45l45 -272q5 -27 31 -39q25 -10 49 6l226 158l226 -158q26 -16 50 -6zM461 871q0 -85 60 -145.5t144.5 -60.5t144.5 61t60 145.5t-60 144t-144.5 59.5t-144.5 -59.5t-60 -144.5zM2047 1586
q0 106 -75 181.5t-181 75.5h-870q-127 0 -217 -90t-90 -218q0 -114 73 -198.5t183 -103.5v-5q0 -127 90 -216.5t217 -89.5q83 0 152.5 40t110.5 108q67 -46 146 -46q106 0 181.5 75.5t75.5 180.5q0 30 -6 55q91 17 150.5 87.5t59.5 163.5z" />
</svg>