<svg xmlns="http://www.w3.org/2000/svg" xmlns:xlink="http://www.w3.org/1999/xlink" version="1.1" viewBox="-10 0 2066 2048">
   <path fill="currentColor"
d="M1794 903q87 52 146 108t82 104.5t23.5 90t-22.5 72.5q-4 6 -7.5 10.5t-13.5 14.5t-22 17.5t-32 18.5t-43.5 18.5t-58 17.5t-74.5 14.5t-92 10.5t-112.5 5.5t-135.5 -1.5q-126 174 -270 277q76 143 146.5 241t103.5 126q-13 0 -34 -13q-22 -14 -36 -29
q-103 -106 -222 -296q-85 55 -162 77.5t-127 11.5t-65 -51q-24 -54 37 -158q-209 116 -346 85q-67 -15 -93 -73q-33 -69 -1 -189q39 -152 189 -391l-23 -53q-66 -167 -81 -319q-337 0 -445 36l-1 1q5 -9 25 -20.5t47 -18.5q152 -38 371 -45q-7 -151 36.5 -243.5t107.5 -81.5
h1q58 6 114 103q3 -233 99 -336q44 -51 110 -44h1q72 5 162 94q47 46 101.5 124t85 130t56.5 102q205 21 374 95q87 -138 137 -249t56 -151q12 30 -2 81q-43 149 -145 342q133 69 191.5 151t19.5 133q-35 51 -156 50zM1483 1328q81 -5 140.5 -16t93 -23.5t52.5 -30t24 -32
t4 -32.5q-11 -120 -196 -235q5 173 -118 369zM868 1551q-48 76 -5 106q45 31 148 -10q27 -10 56 -26q-42 -74 -82 -152q-68 51 -117 82zM1728 865q89 3 94 -46q6 -51 -73 -117q-26 -23 -60 -43q-22 38 -91 147q84 34 130 59zM1117 1592q90 -57 179 -145t160 -196
q107 -162 102 -318q-111 -63 -284 -126.5t-385 -102.5q0 -21 1 -36.5t2 -23.5t2.5 -13t2 -6.5l0.5 -1.5q81 9 158 24q237 44 461 126q-18 -37 -41.5 -70t-44.5 -53.5t-39.5 -36t-29.5 -22.5l-11 -6q3 -1 14.5 2.5t33 15t45 29.5t52 51.5t51.5 75.5q46 -60 93 -130
q-94 -49 -215 -81.5t-251 -40.5q-193 -12 -325 71q1 128 32.5 309.5t102.5 384.5q-19 10 -33 17t-21.5 10t-12 4t-6.5 1h-2q-124 -294 -178 -611q-23 34 -40 71t-24.5 65.5t-12 52t-4.5 36.5v13q-2 -3 -4.5 -14.5t-3 -36t3.5 -53.5t19 -70t40 -82q-109 -12 -156 -15
q5 106 36.5 227t89.5 236q44 87 101.5 149.5t121.5 96.5q110 -65 250 -182t281 -282q45 27 66 48q-43 58 -100 125q-155 180 -340 335q45 4 83.5 0.5t69.5 -11.5t52.5 -16t32.5 -15l12 -6q-1 3 -10 11.5t-30.5 21.5t-49 24t-71 18.5t-92.5 6.5q31 74 66 145zM1226 444
q-6 -10 -29.5 -41.5t-59.5 -76.5t-75 -75.5t-62 -24.5q-55 -3 -100.5 75.5t-51.5 225.5q144 -91 378 -83zM705 457q-27 -49 -59 -54q-72 -4 -93 136q-5 35 -5 62q53 0 169 6q-9 -77 -12 -150zM592 1105q-34 69 -55 126t-26.5 88.5t-5 54.5t3 29.5t4.5 8.5q15 32 58.5 45.5
t118 -1.5t163.5 -62q-153 -82 -261 -289zM1432 1404z" />
</svg>