<svg xmlns="http://www.w3.org/2000/svg" xmlns:xlink="http://www.w3.org/1999/xlink" version="1.1" viewBox="-10 0 2058 2048">
   <path fill="currentColor"
d="M952 22q33 -22 72.5 -22t72.5 22l72 47q37 23 80 22l85 -6q39 -2 73.5 17.5t52.5 55.5l38 77q18 37 59 58l77 39q35 18 55 52t18 74l-6 86q-2 42 22 80l48 71q21 33 21 72.5t-21 72.5l-48 72q-24 37 -22 81l6 85q2 40 -18 74t-55 52l-77 38q-37 18 -58 59l-39 78
q-18 36 -52 55t-74 17l-85 -5q-43 -2 -80 22l-72 47q-33 22 -72.5 22t-72.5 -22l-71 -47q-38 -24 -80 -22l-86 5q-41 2 -75 -17t-51 -55l-39 -77q-20 -39 -58 -59l-77 -39q-36 -18 -55.5 -51.5t-16.5 -73.5l4 -86q1 -44 -21 -80l-47 -72q-22 -33 -22 -73t22 -73l47 -70
q22 -36 21 -81l-4 -85q-3 -40 16.5 -74.5t55.5 -52.5l76 -38q39 -20 59 -59l38 -77q17 -36 52 -56t75 -17l84 6q44 1 82 -22zM1344 769q0 -87 -43 -161t-116.5 -117t-160 -43t-160.5 43t-116.5 117t-42.5 161t43 160.5t116.5 116t160 42.5t160 -42.5t116.5 -116t43 -160.5z
M262 1768l173 -411q1 0 1 2l39 76q35 70 102.5 109t145.5 35l84 -5q2 0 3 1l72 46q35 22 64 32l-151 356q-15 36 -53 39t-58 -29l-129 -197l-224 33q-40 5 -61 -23q-24 -30 -9 -64h1zM1253 2009l-149 -356q33 -12 64 -32l71 -46l0.5 -0.5t1.5 -0.5l86 5q77 4 144.5 -35
t103.5 -109l38 -76q0 -2 2 -2l172 411q14 35 -8 64q-22 28 -60 23l-224 -33l-129 197q-21 32 -59 29q-19 -2 -33.5 -12.5t-20.5 -26.5z" />
</svg>