<svg xmlns="http://www.w3.org/2000/svg" xmlns:xlink="http://www.w3.org/1999/xlink" version="1.1" viewBox="-10 0 2068 2048">
   <path fill="currentColor"
d="M702 1906l-88 65q-101 77 -230 77q-105 0 -193 -51t-139.5 -139.5t-51.5 -192.5q0 -90 41 -171.5t113 -136.5l256 -192q48 -37 75 -91t27 -114v-576h640v576q0 64 -52 102l-254 193q-97 72 -151.5 180.5t-54.5 229.5q0 128 62 241zM512 256v-64q0 -80 56.5 -136
t135.5 -56h384q60 0 108 33q-44 77 -44 159v64h-640zM1280 384h768v832q0 121 -54.5 229.5t-151.5 180.5l-460 345q-101 77 -230 77q-105 0 -193 -51t-139.5 -139.5t-51.5 -192.5q0 -90 41 -171.5t113 -136.5l256 -192q48 -37 75 -91t27 -114v-576zM2048 256h-768v-64
q0 -80 56.5 -136t135.5 -56h384q79 0 135.5 56t56.5 136v64z" />
</svg>