<svg xmlns="http://www.w3.org/2000/svg" xmlns:xlink="http://www.w3.org/1999/xlink" version="1.1" viewBox="-10 0 2068 2048">
   <path fill="currentColor"
d="M1712 13q36 -20 74 -9.5t58 45.5l18 35q58 103 61 220t-47 220q81 88 126.5 200.5t45.5 236.5q0 110 -36 211q-12 33 -40.5 45t-59 -1t-46.5 -45l-48 -93q-12 -24 -35.5 -39t-50.5 -15h-292q-40 0 -68 -28t-28 -68v-320q0 -40 -28.5 -68t-67.5 -28h-68q-42 0 -67 -25
t-19 -57t42 -49q129 -61 272 -61q165 0 310 82q18 -54 12 -113.5t-34 -110.5l-20 -35q-20 -35 -9.5 -73t45.5 -57zM684 1382l372 -742h160v321q0 79 56.5 135t135.5 56h304l96 191q-243 328 -610 516.5t-784 188.5h-236q-73 0 -125.5 -52t-52.5 -125q0 -62 39.5 -111.5
t100.5 -62.5l198 -44q114 -26 204.5 -97t141.5 -174z" />
</svg>