<svg xmlns="http://www.w3.org/2000/svg" xmlns:xlink="http://www.w3.org/1999/xlink" version="1.1" viewBox="-10 0 2058 2048">
   <path fill="currentColor"
d="M1992 854l-182 -67q8 -144 -87 -186l-1168 -431q-34 -120 -137 -158q-33 -12 -71 -12q-92 0 -176 74q-83 73 -126 191q-54 145 -19 272q34 125 139 163q35 13 70 13q74 0 133 -42l448 162q-13 45 -13 91q0 188 141 303l-327 647q-29 66 33 103q25 9 37 9q45 0 66 -42
l328 -643q4 5 21 9q14 4 20 4v659q0 29 23 52t56 23q29 0 52 -23t23 -52v-659q18 -5 41 -13l327 643q21 42 71 42q7 0 33 -9q70 -37 33 -103l-327 -647q61 -49 99 -125q91 21 174 -87l183 63q73 21 111 -83q41 -108 -29 -141zM397 394q-33 82 -87 130q-53 47 -91 35
q-42 -16 -52 -85q-11 -67 23 -155q26 -77 72 -120q49 -46 85 -46h17q38 17 50 85q11 68 -17 156zM1445 1015q-10 73 -51 116q-46 47 -94 38q-54 -4 -82 -60q-30 -58 -21 -127q9 -72 52 -116q44 -46 97 -37q51 9 79 62q28 55 20 124z" />
</svg>