<svg xmlns="http://www.w3.org/2000/svg" xmlns:xlink="http://www.w3.org/1999/xlink" version="1.1" viewBox="-10 0 2068 2048">
   <path fill="currentColor"
d="M1972 948h-238q-31 -248 -208.5 -426t-425.5 -208v-239q0 -33 -21 -54t-55 -21t-55 21t-21 54v239q-246 30 -424 208t-208 426h-240q-34 0 -55 21t-21 55q0 33 21 54t55 21h240q30 248 208 426t424 208v239q0 34 21 55t55 21t55 -21t21 -55v-239q248 -30 425.5 -208
t208.5 -426h238q34 0 55 -21t21 -54q0 -34 -21 -55t-55 -21zM1100 1578q-46 8 -76 8t-76 -8q-185 -26 -318 -160q-134 -136 -160 -319q-8 -45 -8 -75q0 -31 8 -76q26 -183 160 -319q132 -133 318 -159q51 -9 76 -9q24 0 76 9q187 26 318 159q135 136 160 319q8 45 8 76
q0 30 -8 75q-25 183 -160 319q-132 134 -318 160zM1364 1024q0 142 -99 241t-241 99t-241 -99t-99 -241q0 -143 100 -242q98 -98 241 -98t241 98q98 99 98 242z" />
</svg>