<svg xmlns="http://www.w3.org/2000/svg" xmlns:xlink="http://www.w3.org/1999/xlink" version="1.1" viewBox="-10 0 2068 2048">
   <path fill="currentColor"
d="M850 655q0 168 -45 327t-125.5 290t-193 235t-246.5 169q-114 -137 -177 -305t-63 -354q0 -187 65.5 -359.5t178 -304.5t269.5 -223t337 -121v646zM1020 2039q-265 0 -490 -126q183 -116 313.5 -281.5t176.5 -357.5q46 192 176 358t314 282q-230 125 -490 125zM1806 1676
q-134 -65 -246.5 -169t-193 -235t-125.5 -290t-45 -327v-646q180 30 337 121t270.5 223t179 304.5t65.5 359.5q0 185 -63.5 353t-178.5 306z" />
</svg>