<svg xmlns="http://www.w3.org/2000/svg" xmlns:xlink="http://www.w3.org/1999/xlink" version="1.1" viewBox="-10 0 2068 2048">
   <path fill="currentColor"
d="M124 220l594 466v-175q0 -127 89.5 -216.5t217 -89.5t217.5 89.5t90 216.5v656l56 45q46 -87 46 -188v-128q0 -32 22.5 -54.5t54 -22.5t54.5 22.5t23 54.5v128q0 153 -78 283l508 399q25 20 29 51.5t-15.5 56.5t-51 28.5t-56.5 -15.5l-1894 -1485q-25 -20 -29 -51.5
t15.5 -56.5t51.5 -29t56 15zM1284 1523v1q-85 44 -184 58v108h154q32 0 55 22.5t23 54t-23 54t-55 22.5h-230h-230q-31 0 -53.5 -22.5t-22.5 -54t22.5 -54t53.5 -22.5h154v-108q-137 -18 -248 -96.5t-174.5 -200t-63.5 -261.5v-128q0 -14 2 -20l150 120v28q0 111 55 205.5
t149.5 149t205.5 54.5q64 0 122 -18z" />
</svg>