<svg xmlns="http://www.w3.org/2000/svg" xmlns:xlink="http://www.w3.org/1999/xlink" version="1.1" viewBox="-10 0 2068 2048">
   <path fill="currentColor"
d="M2004 637v2q44 188 44 384q0 193 -46 387q-7 34 -42 40q-1 0 -4 0.5t-4.5 0.5t-4.5 -0.5l-3 -0.5q-4 0 -10 -2l-114 -29l-82 -21q-25 99 -68 203q-101 239 -278 430l-2 1q-16 16 -39 16t-39 -16l-412 -411h-800q-41 0 -70.5 -29t-29.5 -70v-996q0 -41 29.5 -70.5
t70.5 -29.5h800l412 -410q16 -16 38 -16q25 0 40 17q249 269 344 625l2 8l6 -1l88 -23v1l108 -26q12 -3 14 -3q12 0 26 7q21 12 26 32zM1348 99zM908 759q12 -19 12 -43q0 -26 -12 -45q-11 -20 -32 -31.5t-44 -11.5q-26 0 -46.5 12.5t-31.5 33.5l-150 282l-146 -281
q-11 -21 -32 -34t-46 -13h-14q-36 0 -62 25.5t-26 62.5q0 25 12 43l206 368q6 12 6 22v183q0 37 25.5 62.5t62.5 25.5h14q36 0 62 -25.5t26 -62.5v-185q0 -8 6 -22zM1348 99l-328 327h78q41 0 70.5 29.5t29.5 70.5v264l456 -118l-2 -7q-84 -320 -304 -566zM1590 1568
q43 -102 66 -191l-458 -120v265q0 41 -29.5 70t-70.5 29h-78l330 328q150 -169 240 -381v0zM1926 1358q19 -82 28.5 -165t9.5 -168q0 -169 -38 -335l-74 19l-158 41l-16 5l-480 123v290l526 138z" />
</svg>