<svg xmlns="http://www.w3.org/2000/svg" xmlns:xlink="http://www.w3.org/1999/xlink" version="1.1" viewBox="-10 0 2068 2048">
   <path fill="currentColor"
d="M1070 238q30 13 48.5 41.5t18.5 62.5v1364q0 34 -18.5 62.5t-48.5 41.5q-30 14 -63 9t-59 -27l-479 -428h-242q-93 0 -160 -66.5t-67 -159.5v-228q0 -93 67 -160.5t160 -67.5h242l479 -426q26 -22 59 -27t63 9zM1510 708l195 194l195 -194q26 -26 62 -26t60.5 25.5
t25 60.5t-25.5 60l-197 196l197 196q26 25 26 60t-25.5 59.5t-61.5 25t-61 -24.5l-195 -196l-195 196q-25 25 -60 25t-60 -25.5t-25 -60.5t25 -59l195 -196l-195 -196q-25 -26 -25 -61t25.5 -59.5t60 -25t59.5 25.5z" />
</svg>