<svg xmlns="http://www.w3.org/2000/svg" xmlns:xlink="http://www.w3.org/1999/xlink" version="1.1" viewBox="-10 0 2068 2048">
   <path fill="currentColor"
d="M0 454q0 -93 67 -159.5t161 -66.5h1592q93 0 160.5 66.5t67.5 159.5h-2048zM0 568h2048v1024q0 94 -67.5 161t-160.5 67h-1592q-94 0 -161 -67t-67 -161v-1024zM228 1554q0 16 11.5 27t26.5 11h720q15 0 26.5 -11t11.5 -27q0 -78 -55.5 -134t-134.5 -56h-416
q-79 0 -134.5 56t-55.5 134zM626.5 796q-93.5 0 -161 67t-67.5 160.5t67.5 161t161 67.5t160.5 -67.5t67 -161t-67 -160.5t-160.5 -67zM1252 853.5q0 23.5 16.5 40t39.5 16.5h454q24 0 41 -16.5t17 -40t-17 -40.5t-41 -17h-454q-23 0 -39.5 17t-16.5 40.5zM1252 1080.5
q0 23.5 16.5 40.5t39.5 17h454q24 0 41 -17t17 -40.5t-17 -40t-41 -16.5h-454q-23 0 -39.5 16.5t-16.5 40zM1252 1307.5q0 23.5 16.5 40t39.5 16.5h454q24 0 41 -16.5t17 -40t-17 -39.5t-41 -16h-454q-23 0 -39.5 16t-16.5 39.5z" />
</svg>