<svg xmlns="http://www.w3.org/2000/svg" xmlns:xlink="http://www.w3.org/1999/xlink" version="1.1" viewBox="-10 0 2068 2048">
   <path fill="currentColor"
d="M652 950q180 110 304 286q41 59 68 110q23 -46 68 -110q124 -176 304 -286q249 -154 544 -154h36q30 0 51 21t21 51q0 129 -34.5 252.5t-96 228t-149.5 192.5t-192.5 149.5t-227.5 95.5t-252 34h-72h-72q-129 0 -252 -34t-227.5 -95.5t-192.5 -149.5t-149.5 -192.5
t-96 -228t-34.5 -252.5q0 -30 21 -51t51 -21h36q295 0 544 154zM1072 246q28 31 60 73.5t78 116t89 177.5t73 219q-206 117 -348 304q-144 -188 -348 -304q30 -115 73 -219t89 -177.5t78 -116t60 -73.5q20 -18 48 -18t48 18z" />
</svg>