<svg xmlns="http://www.w3.org/2000/svg" xmlns:xlink="http://www.w3.org/1999/xlink" version="1.1" viewBox="-10 0 2068 2048">
   <path fill="currentColor"
d="M896 1782v-488l-376 309q163 143 376 179zM356 1405l540 -441v-697q-134 23 -252.5 91t-203.5 167.5t-134.5 229t-49.5 269.5q0 206 100 381zM1530 1603l-378 -309v488q212 -36 378 -179zM1692 1405q100 -177 100 -381q0 -140 -49 -269.5t-134 -229t-203.5 -167.5
t-253.5 -91v697zM0 1024q0 -139 37 -272t103 -245.5t160.5 -207t207 -160t245 -102.5t272 -37t272 37t244.5 102.5t206.5 160t160.5 207t103 245.5t37 272t-37 272t-103 245.5t-160.5 207t-206.5 160t-244.5 102.5t-272 37t-272 -37t-245 -102.5t-207 -160t-160.5 -207
t-103 -245.5t-37 -272z" />
</svg>