<svg xmlns="http://www.w3.org/2000/svg" xmlns:xlink="http://www.w3.org/1999/xlink" version="1.1" viewBox="-10 0 2068 2048">
   <path fill="currentColor"
d="M50 396l25 30q-58 142 -25 302q33 157 146 270l853 854q155 154 380 154q113 0 193 -32l29 24q59 59 150 48.5t162.5 -82t82 -163t-47.5 -149.5l-46 -46q84 -302 -138 -524l-849 -848q-167 -160 -384 -160q-44 0 -138 18l-46 -42q-59 -59 -150.5 -48.5t-162.5 82
t-81.5 163t47.5 149.5zM1429 1902q-179 0 -305 -126l-848 -852q-130 -123 -130 -306q0 -55 13 -108l1379 1380q-54 12 -109 12zM581 184q184 0 309 124l849 850q125 124 125 310v46l-1329 -1330h46zM150 222q28 -6 67 -6q93 0 151 22q125 46 184 188q8 15 23 84t41 104
q27 38 82 50q106 22 138 46q129 96 150 210q54 258 276 300q165 31 218 88q79 88 121 248q21 86 60 122q38 35 124 44l14 2t19 2q54 0 54 54q0 47 -41 52h-13q-91 -10 -125 -18q-141 -37 -188 -200q-32 -127 -82 -196q-47 -67 -157 -88q-174 -38 -238 -92
q-101 -93 -134 -256q-17 -68 -52 -110q-37 -46 -65 -60q-24 -11 -102 -38q-53 -19 -102 -38q-45 -21 -65 -62q-19 -37 -25 -96q-6 -52 -19 -80q-63 -161 -205 -172q-52 -9 -109 4q-17 0 -25 -4q-34 -13 -25 -56.5t50 -47.5z" />
</svg>