<svg xmlns="http://www.w3.org/2000/svg" xmlns:xlink="http://www.w3.org/1999/xlink" version="1.1" viewBox="-10 0 2068 2048">
   <path fill="currentColor"
d="M128 128h128q31 0 59.5 14.5t46.5 39.5l342 491l344 -491q17 -25 45 -39.5t59 -14.5h128q53 0 90.5 38t37.5 90t-37.5 90t-90.5 38h-62l-358 512l358 512h62q53 0 90.5 38t37.5 91t-37.5 90.5t-90.5 37.5h-128q-31 0 -59 -14.5t-45 -40.5l-344 -490l-342 490
q-19 26 -47 40.5t-59 14.5h-128q-52 0 -90 -37.5t-38 -90.5t38 -91t90 -38h62l358 -512l-358 -512h-62q-52 0 -90 -38t-38 -90t38 -90t90 -38zM1920 1152v513q52 0 90 37.5t38 89.5t-38 90t-90 38h-128h-128q-52 0 -90 -38t-38 -90t38 -89.5t90 -37.5v-321q-35 0 -66 -19
t-48 -52q-24 -47 -7.5 -97.5t63.5 -73.5l128 -64q31 -15 64 -13t62 19q28 17 44 46t16 62z" />
</svg>