<svg xmlns="http://www.w3.org/2000/svg" xmlns:xlink="http://www.w3.org/1999/xlink" version="1.1" viewBox="-10 0 2068 2048">
   <path fill="currentColor"
d="M1408 1024q0 139 -12 256h-742q-14 -117 -14 -256q0 -138 14 -255h742q12 117 12 255zM1524 769h492q32 116 32 255q0 140 -32 256h-492q12 -118 12 -256q0 -137 -12 -255zM1974 640h-466q-30 -191 -87.5 -347t-134.5 -259q234 61 415.5 222t270.5 384h2zM1378 640h-708
q37 -211 110 -379q60 -134 134 -205q58 -56 110.5 -56t111.5 56q73 71 134 205q69 154 108 379zM542 640h-466q90 -224 271.5 -384.5t414.5 -221.5q-76 103 -133 259t-87 347zM32 769h492q-12 109 -12 255q0 147 12 256h-492q-32 -119 -32 -256q0 -136 32 -255zM780 1787
q-71 -156 -110 -379h708q-38 215 -108 379q-61 136 -134 206q-57 55 -112 55q-53 0 -110 -55q-74 -70 -134 -206zM542 1408q30 192 87 348t133 259q-233 -61 -414.5 -222t-271.5 -385h466zM1974 1408q-91 224 -272.5 385t-415.5 222q77 -103 134.5 -259.5t87.5 -347.5h466z
" />
</svg>