<svg xmlns="http://www.w3.org/2000/svg" xmlns:xlink="http://www.w3.org/1999/xlink" version="1.1" viewBox="-10 0 2058 2048">
   <path fill="currentColor"
d="M580 365q-26 -95 23 -182t144 -114q96 -27 183.5 22t114.5 145l114 403l50 -262q18 -98 101 -154t180 -38q88 16 143.5 86t52.5 158q57 -15 118 0q97 25 148.5 110.5t27.5 182.5l-208 834q-31 125 -112 224t-196.5 153.5t-245.5 54.5h-127q-160 0 -312 -52t-279 -151
l-347 -269q-78 -62 -90.5 -161t49 -178t161 -91t177.5 50l63 50l-195 -495q-36 -92 4 -183.5t132 -128.5q62 -23 126 -14zM871 285q-6 -24 -28.5 -36.5t-46 -5.5t-35.5 29t-6 46l206 686q10 35 -6.5 67t-51.5 43q-34 11 -67 -3.5t-46 -48.5l-192 -481q-9 -23 -31.5 -33.5
t-46 -1.5t-33.5 32t-1 47l276 698q12 34 7.5 65.5t-25.5 54.5t-47.5 36t-59.5 9.5t-61 -25.5l-237 -185q-20 -15 -45 -12t-40 23t-12.5 44.5t22.5 39.5l347 270q104 80 227 122.5t253 42.5h127q134 0 240 -83t138 -213l209 -834q6 -25 -6.5 -46t-36.5 -27t-46 6.5t-28 36.5
l-98 392q-8 33 -35 53.5t-61 20.5q-46 0 -75 -35.5t-21 -81.5l107 -564q5 -25 -9 -45.5t-38.5 -25t-45.5 9.5t-26 39l-119 629q-6 33 -32 53.5t-60 20.5q-31 0 -55 -18.5t-33 -48.5z" />
</svg>