<svg xmlns="http://www.w3.org/2000/svg" xmlns:xlink="http://www.w3.org/1999/xlink" version="1.1" viewBox="-10 0 2068 2048">
   <path fill="currentColor"
d="M1856 1024q0 -113 -30 -221t-83.5 -199t-130.5 -168t-168 -130.5t-199 -83.5t-221 -30t-220.5 30t-199 83.5t-168 130.5t-130.5 168t-84 199t-30 221t30 221t84 199t130.5 168t168 131t199.5 84t220.5 30t220.5 -30t199 -84t168 -131t130.5 -168t83.5 -199t30 -221z
M0 1024q0 -139 37 -272t103 -245.5t160.5 -207t207 -160t245 -102.5t272 -37t272 37t244.5 102.5t206.5 160t160.5 207t103 245.5t37 272t-37 272t-103 245.5t-160.5 207t-206.5 160t-244.5 102.5t-272 37t-272 -37t-245 -102.5t-207 -160t-160.5 -207t-103 -245.5t-37 -272
zM1398 1233q27 -6 53 1.5t41.5 24.5t20 40t-12.5 47q-75 117 -201 186t-274.5 69t-275 -69t-201.5 -186q-17 -24 -12.5 -47t19.5 -40t41 -24.5t54 -1.5q184 43 374 43q189 0 374 -43zM862 549q53 15 80.5 62.5t13.5 99.5l-70 260q-6 26 -29.5 39.5t-48.5 6.5l-260 -70
q-54 -15 -81.5 -62.5t-12.5 -100.5q14 -53 62 -81t100 -13l64 17l18 -64q14 -54 62.5 -82t101.5 -13v1zM1352 643l16 64l64 -16q54 -15 101.5 12.5t60.5 81.5q14 54 -13 101.5t-81 60.5l-260 71q-25 7 -48 -6.5t-30 -39.5l-70 -260q-14 -54 14 -101.5t82 -61.5
q53 -14 101 13t63 81z" />
</svg>