<svg xmlns="http://www.w3.org/2000/svg" xmlns:xlink="http://www.w3.org/1999/xlink" version="1.1" viewBox="-10 0 2068 2048">
   <path fill="currentColor"
d="M1742 963q134 33 220 142.5t86 247.5q0 109 -54.5 201.5t-147 146.5t-200.5 54h-1244q-108 0 -200.5 -54t-147 -146.5t-54.5 -201.5q0 -116 63 -214.5t169 -148.5q-10 -34 -10 -73q0 -113 80 -193.5t194 -80.5q102 0 180 67q45 -183 194 -300t338 -117q111 0 212.5 43.5
t175 117t117 175t43.5 212.5q0 66 -14 122zM632 1499v-362q0 -20 -14.5 -35t-35.5 -15h-100q-21 0 -35.5 15t-14.5 35v362q0 20 14.5 35t35.5 15h100q21 0 35.5 -15t14.5 -35zM924 1499v-429q0 -20 -14.5 -35t-35.5 -15h-100q-21 0 -35.5 15t-14.5 35v429q0 20 14.5 35
t35.5 15h100q21 0 35.5 -15t14.5 -35zM1216 1499v-531q0 -20 -14.5 -35t-35.5 -15h-100q-21 0 -35.5 15t-14.5 35v531q0 20 14.5 35t35.5 15h100q21 0 35.5 -15t14.5 -35zM1500 1499v-733q0 -21 -14.5 -36t-35.5 -15h-94q-20 0 -34 15t-14 36v733q0 20 14 35t34 15h94
q21 0 35.5 -15t14.5 -35z" />
</svg>