<svg xmlns="http://www.w3.org/2000/svg" xmlns:xlink="http://www.w3.org/1999/xlink" version="1.1" viewBox="-10 0 2058 2048">
   <path fill="currentColor"
d="M1347 1976v-16q42 -68 38 -139t-72 -172v-8l4 -5q5 0 15 -10q11 -11 6 -23q-9 -25 -33 -25h-9v-9q-10 -28 -46 -109q-39 -87 -50 -122q-10 -32 -31 -126q-19 -85 -28 -193l2 -12t2 -13h72q4 0 12 -4q9 -4 15 -17q6 -12 6 -29q0 -18 -10 -32q-11 -16 -19 -21q-9 -6 -13 -6
h-33l-9 -185q110 -162 130 -193q26 -43 26 -75q0 -42 -32 -74q-31 -31 -77 -31h-59v-29q0 -30 -29 -30h-202q-29 0 -29 30v29h-59q-47 0 -78 31t-31 74q0 34 25 75l130 198l-8 180h-34q-3 0 -12 6q-8 5 -19 21t-11 32q-4 20 13 36q15 14 25 14h67l4 4q0 9 5 9q-5 76 -15 140
q-4 22 -9.5 56.5t-7.5 46.5q-7 43 -25 93q-24 67 -27 73t-7.5 16t-12.5 29t-14 33q-31 72 -33 75v4v5h-5q-29 0 -33 25q-5 13 4 23t17 10v9v4q-76 110 -80 164q-5 84 46 151l-4 4v8q-20 11 -25 30l-9 42h705q-5 -34 -8 -42q-5 -14 -21 -30zM932 176q50 -46 71 -25
q25 25 -25 71l-13 13q30 21 63 21t63 -21l-13 -13q-46 -46 -25 -71q21 -26 72 25q2 2 5.5 7.5t6.5 9.5q17 -31 17 -67q0 -41 -17 -63q-4 0 -4 4l-8 4q-47 54 -72 29q-20 -25 30 -75l8 -9q-20 -16 -63 -16q-34 0 -63 16l9 5q8 4 8 8q50 46 25 71t-71 -25q-9 -9 -13 -17
q-17 31 -17 68q0 40 17 62q0 -3 9 -12z" />
</svg>