<svg xmlns="http://www.w3.org/2000/svg" xmlns:xlink="http://www.w3.org/1999/xlink" version="1.1" viewBox="-10 0 2068 2048">
   <path fill="currentColor"
d="M1366 1140v2q37 0 71.5 -3t73.5 -10.5t70.5 -21.5t58 -33.5t41.5 -50.5t15 -69v-3q0 -14 -5.5 -40.5t-38.5 -171.5q-24 -101 -40 -171q-7 -32 -15 -51t-25.5 -41t-47.5 -41.5t-80 -44.5q-86 -44 -219.5 -92t-180.5 -48q-21 0 -40.5 12t-33 27t-35 28t-47.5 13
q-36 0 -98 -30t-94 -30q-48 0 -81 32.5t-57 101.5q-85 238 -95.5 270t-10.5 44q0 25 32 65.5t88.5 88t141.5 95t182.5 86.5t221.5 63t248 24zM1716 1018v2q18 87 18 108q0 73 -51.5 126.5t-139.5 80.5t-201 27q-121 0 -243.5 -23t-224.5 -60.5t-191.5 -87.5t-151 -104
t-96.5 -109.5t-35 -103.5v-2q0 -43 16 -78q-45 3 -81 6.5t-80.5 11t-79 19t-68.5 30.5t-56.5 43.5t-36.5 59.5t-14 78q0 83 63 174t168.5 173.5t249.5 158t301 130.5t328.5 87.5t327.5 32.5q101 0 186.5 -12.5t147 -34.5t110 -53t79.5 -65.5t50.5 -74t28 -77t8.5 -77.5
q0 -106 -88 -212t-244 -174z" />
</svg>