<svg xmlns="http://www.w3.org/2000/svg" xmlns:xlink="http://www.w3.org/1999/xlink" version="1.1" viewBox="-10 0 2068 2048">
   <path fill="currentColor"
d="M588 358q-10 0 -17 7t-7 18v129h512v-129q0 -10 -8 -17.5t-18 -7.5h-462zM410 383q0 -74 52 -126t126 -52h462q74 0 126 52t52 126v129h206q84 0 144 59.5t60 144.5v105q-18 -2 -52 -2q-128 0 -241.5 54.5t-192.5 150.5h-26h-512h-614v-308q0 -85 60 -144.5t144 -59.5
h206v-129zM1024 1331h2q-2 17 -2 51q0 101 33.5 193t94.5 166h-948q-84 0 -144 -60t-60 -145v-410h614v103q0 42 30 72t72 30h308zM2048 1382q0 94 -37 179t-98.5 147t-147 98.5t-179 36.5t-178.5 -36.5t-147 -98.5t-98.5 -147t-36.5 -179t36.5 -179t98.5 -146.5t147 -98
t178.5 -36.5t179 36.5t147 98t98.5 146.5t37 179zM1587 1126q-21 0 -36 15t-15 36v205q0 21 15 36t35 15h154q22 0 37 -15t15 -36t-15 -36t-37 -15h-102v-154q0 -21 -15 -36t-36 -15z" />
</svg>