<svg xmlns="http://www.w3.org/2000/svg" xmlns:xlink="http://www.w3.org/1999/xlink" version="1.1" viewBox="-10 0 2068 2048">
   <path fill="currentColor"
d="M1672 936q26 133 32 160h-118l56 -154l16 -46q2 -5 2 -8zM2048 398v1252q0 70 -50 120t-120 50h-1708q-70 0 -120 -50t-50 -120v-1252q0 -70 50 -120t120 -50h1708q70 0 120 50t50 120zM542 1292l224 -554h-150l-140 378l-14 -76l-50 -254q-11 -46 -66 -48h-230l-2 12
q84 21 150 62l128 480h150zM878 1292l90 -554h-144l-88 554h142zM1374 1112q2 -94 -118 -152q-44 -21 -63 -35.5t-19 -32.5q1 -19 22 -33.5t60 -14.5q55 -1 108 22l12 6l20 -120q-59 -22 -128 -22q-106 0 -173.5 51t-68.5 131q0 29 11 53t32 42t39.5 30t43.5 25
q41 20 57.5 35t16.5 33q-1 26 -27 40t-59 14q-41 0 -68.5 -6.5t-65.5 -23.5l-20 -8l-20 124q63 28 160 30q113 0 180.5 -51t67.5 -137zM1878 1292l-116 -554h-112q-55 0 -74 48l-212 506h150l30 -84h184l16 84h134z" />
</svg>