<svg xmlns="http://www.w3.org/2000/svg" xmlns:xlink="http://www.w3.org/1999/xlink" version="1.1" viewBox="-10 0 2068 2048">
   <path fill="currentColor"
d="M256 320q-26 0 -45 19t-19 45v648q34 -8 64 -8h1536q30 0 64 8v-648q0 -26 -19 -45t-45 -19h-1536zM192 1280v385q0 26 19 45t45 19h1536q26 0 45 -19t19 -45v-385q0 -26 -19 -45t-45 -19h-1536q-26 0 -45 19t-19 45zM0 1280v-896q0 -106 75.5 -181t180.5 -75h1536
q105 0 180.5 75t75.5 181v896v385q0 106 -75.5 180.5t-180.5 74.5h-1536q-105 0 -180.5 -74.5t-75.5 -180.5v-385zM1120 1472q0 -40 28 -67.5t67.5 -27.5t68 27.5t28.5 67.5t-28.5 68t-68 28t-67.5 -28t-28 -68zM1600.5 1377q39.5 0 67.5 27.5t28 67.5t-28 68t-67.5 28
t-68 -28t-28.5 -68t28.5 -67.5t68 -27.5z" />
</svg>