<svg xmlns="http://www.w3.org/2000/svg" xmlns:xlink="http://www.w3.org/1999/xlink" version="1.1" viewBox="-10 0 2068 2048">
   <path fill="currentColor"
d="M1540 1677h2l-322 -322q-88 53 -194 53q-108 0 -196 -53l-322 322q109 86 241 133t275.5 47t275.5 -47t240 -133zM1812 1678l48 46q29 28 28.5 68t-28 69t-68 29t-68.5 -29l-46 -48q-137 112 -304 173.5t-349.5 61.5t-350.5 -61.5t-304 -173.5l-46 47q-27 28 -67 28
t-68.5 -28t-28.5 -68t28 -68l48 -46q-113 -136 -174.5 -303.5t-61.5 -350.5t61.5 -350t174.5 -303l-48 -48q-28 -28 -27.5 -67t28 -67.5t67.5 -28.5t68 28l46 47q136 -112 304 -173.5t350.5 -61.5t349.5 61.5t304 173.5l46 -46q28 -28 68 -28t68.5 28t28.5 67.5t-29 67.5
l-48 47q113 136 174.5 303t61.5 350t-61.5 350.5t-174.5 303.5zM1676 1541q86 -108 133 -240.5t47 -276.5t-47 -276.5t-133 -240.5l-320 322q52 89 52 195t-52 195zM1540 372q-108 -86 -240 -133t-275.5 -47t-275.5 47t-241 133l322 321q88 -53 194 -53t194 53zM694 1219
q-54 -89 -54 -195t54 -195l-322 -322q-86 108 -133 240.5t-47 276.5t47 276.5t133 240.5zM832 1024.5q0 79.5 56.5 135.5t136 56t135.5 -56t56 -136t-56 -135.5t-135.5 -55.5t-136 56t-56.5 135.5z" />
</svg>