<svg xmlns="http://www.w3.org/2000/svg" xmlns:xlink="http://www.w3.org/1999/xlink" version="1.1" viewBox="-10 0 2058 2048">
   <path fill="currentColor"
d="M1024.5 1024q-104.5 0 -199.5 -40.5t-163.5 -109t-109 -163.5t-40.5 -199t40.5 -199t109 -163.5t163.5 -109t199.5 -40.5t199 40.5t163 109t109 163.5t40.5 199t-40.5 199t-109 163.5t-163 109t-199 40.5zM640 1245v237q-70 21 -115 80t-45 134q0 93 66 158.5t158.5 65.5
t158 -65.5t65.5 -158.5q0 -76 -45 -134.5t-115 -79.5v-263q36 -3 74 -3h366q36 0 72 3v229q-84 21 -138 90t-54 158v161q0 26 19 44.5t45 18.5h64q26 0 45 -18.5t19 -44.5t-19 -45t-45 -19v-97q0 -52 37.5 -90t90 -38t90.5 38t38 90v97q-26 0 -45 19t-19 45t19 44.5t45 18.5
h64q27 0 45.5 -18.5t18.5 -44.5v-161q0 -88 -54 -157.5t-138 -90.5v-203q148 43 264 142.5t182 241t66 300.5q0 49 -35 84t-85 35h-1552q-50 0 -85 -35t-35 -84q0 -159 66.5 -300.5t182.5 -241t263 -142.5zM704.5 1793q-39.5 0 -68 -28.5t-28.5 -68.5t28.5 -67.5t68 -27.5
t67.5 27.5t28 67.5t-28 68.5t-67.5 28.5z" />
</svg>