<svg xmlns="http://www.w3.org/2000/svg" xmlns:xlink="http://www.w3.org/1999/xlink" version="1.1" viewBox="-10 0 2068 2048">
   <path fill="currentColor"
d="M888 1804q-233 -84 -376 -84q-95 0 -212.5 24t-213.5 56q-30 10 -58 -9t-28 -50v-1316q0 -33 17.5 -60t46.5 -38q91 -35 209 -60.5t239 -25.5q143 0 260 38.5t178 87.5q16 13 16 40v1341q0 30 -25 48t-53 8zM1160 1804q-28 10 -54 -8t-26 -48v-1341q0 -25 18 -40
q61 -49 178 -87.5t260 -38.5q121 0 239 25.5t209 60.5q29 11 46.5 38t17.5 60v1316q0 31 -28 50t-58 9q-96 -32 -213.5 -56t-212.5 -24q-143 0 -376 84z" />
</svg>