<svg xmlns="http://www.w3.org/2000/svg" xmlns:xlink="http://www.w3.org/1999/xlink" version="1.1" viewBox="-10 0 2067 2048">
   <path fill="currentColor"
d="M1025 0q208 0 397 81t326 218.5t218 327t81 397.5t-81 397.5t-218 327t-326 218.5t-397 81t-397.5 -81t-326.5 -218.5t-218.5 -327t-81.5 -397.5t81.5 -397.5t218.5 -327t326.5 -218.5t397.5 -81zM1497 934q15 -21 25 -55.5t11 -77.5t-22.5 -88t-70.5 -76
q-53 -35 -110 -34.5t-98.5 24t-72.5 59.5q-48 53 -126 54t-128 -54q-31 -36 -72.5 -59.5t-99 -24t-111.5 34.5q-47 31 -70.5 76t-22.5 88t11 77.5t25 55.5l466 631z" />
</svg>