<svg xmlns="http://www.w3.org/2000/svg" xmlns:xlink="http://www.w3.org/1999/xlink" version="1.1" viewBox="-10 0 2058 2048">
   <path fill="currentColor"
d="M1864 412l-55 -199q-26 -79 -99 -79h-213l-16 -55q-21 -79 -100 -79h-716q-80 0 -100 79l-16 55h-212q-75 0 -100 79l-50 199q-13 35 8 63q20 25 58 25h46l42 424q0 63 54 63h341q37 0 54 -29h4q87 -113 229 -113q133 0 225 104q4 0 4 5q21 33 54 33h341q58 0 58 -50
l42 -437h46q37 0 58 -25q21 -26 13 -63zM1610 1307h-300q-29 0 -54 25q-92 113 -233 113q-142 0 -229 -108h-4q-18 -30 -46 -30h-308q-54 0 -54 55v4l54 557q4 50 44 88q38 37 90 37h907q50 0 89 -37q38 -37 48 -88l50 -561q0 -55 -54 -55z" />
</svg>