<svg xmlns="http://www.w3.org/2000/svg" xmlns:xlink="http://www.w3.org/1999/xlink" version="1.1" viewBox="-10 0 2068 2048">
   <path fill="currentColor"
d="M666 409q0 -22 -15 -36.5t-36.5 -14.5t-36 14.5t-14.5 36.5t14.5 37t36 15t36.5 -15t15 -37zM820 409q0 79 -52 136l50 99q95 -30 206 -30t206 30l50 -99q-52 -57 -52 -136q0 -85 60.5 -144.5t145 -59.5t144.5 59.5t60 144.5t-60 145t-144 60q-3 0 -9 -0.5t-9 -0.5
l-46 97q81 51 162 148q25 28 64 78l4 6q30 40 52 65q40 42 62 42q14 0 24 -10q13 -12 40 -56l2 -2q40 -63 62 -83q56 -53 128 -53q32 0 55 22.5t23 54t-23 54t-55 22.5q-12 0 -22 10q-10 9 -40 57l-2 2q-39 60 -62 83q-57 53 -130 53q-74 0 -140 -59q-3 3 -34 40q1 6 6 19.5
t6 20.5q2 4 4.5 13.5t3.5 14.5q22 66 28 82q17 43 36 60q15 14 40 14q19 0 39.5 -9t68.5 -34q32 -17 55 -28t63.5 -21.5t79.5 -10.5q32 0 55 22.5t23 54.5t-23 54.5t-55 22.5q-49 0 -126 42q-2 1 -5.5 3t-4.5 3q-99 54 -170 54q-88 0 -146 -54q-40 -37 -72 -116
q-13 -34 -30 -91q-94 69 -188 100q16 52 46 116q39 83 82 129q40 45 78 45q31 0 53.5 22.5t22.5 54t-22.5 54t-53.5 22.5q-103 0 -192 -92q-58 -60 -108 -170q-28 -57 -58 -150q-32 2 -52 2t-52 -2q-30 93 -58 150q-49 107 -108 170q-89 92 -192 92q-31 0 -53.5 -22.5
t-22.5 -54t22.5 -54t53.5 -22.5q38 0 78 -45q45 -48 84 -129q23 -52 46 -116q-96 -32 -190 -100q-1 5 -12 39.5t-18 51.5q-32 79 -72 116q-58 54 -146 54q-71 0 -170 -54q-1 -1 -4.5 -2.5t-5.5 -2.5q-40 -22 -68.5 -32.5t-57.5 -10.5q-32 0 -55 -22.5t-23 -54t23 -54
t55 -22.5q90 0 198 59q48 25 68.5 34t39.5 9q25 0 40 -14q19 -17 36 -59q5 -13 28 -83q5 -18 8 -28q2 -7 6.5 -21t5.5 -19l-32 -40q-67 59 -142 59q-73 0 -130 -53q-23 -23 -62 -83l-2 -2q-30 -48 -40 -57q-10 -10 -22 -10q-32 0 -55 -22.5t-23 -54t23 -54t55 -22.5
q72 0 128 53q22 20 62 83l2 2q27 44 40 56q10 10 24 10q22 0 62 -42q22 -25 52 -65l4 -6q39 -50 64 -78q80 -95 164 -148l-48 -97q-3 0 -9 0.5t-9 0.5q-84 0 -144 -60t-60 -145t60 -144.5t144.5 -59.5t145 59.5t60.5 144.5zM1484 409q0 -22 -14.5 -36.5t-36 -14.5
t-36.5 14.5t-15 36.5t15 37t36.5 15t36 -15t14.5 -37z" />
</svg>