<svg xmlns="http://www.w3.org/2000/svg" xmlns:xlink="http://www.w3.org/1999/xlink" version="1.1" viewBox="-10 0 2067 2048">
   <path fill="currentColor"
d="M399 114q35 0 63 18.5t40 50.5l238 570l47 113q19 43 1 87.5t-61.5 62.5t-87 0t-61.5 -62l-19 -43h-322l-18 43q-18 44 -61.5 62t-87 0t-61.5 -62.5t0 -87.5l47 -113l238 -570q13 -31 42 -50t63 -19zM465 682l-66 -159l-68 159h134zM910 228q0 -47 33 -80.5t80 -33.5h228
q118 0 201 83t83 201q0 73 -33 134q90 84 90 207q0 118 -83 201.5t-201 83.5h-285q-47 0 -80 -33t-33 -80v-342v-341zM1251 455q24 0 40.5 -17t16.5 -40t-16.5 -40t-40.5 -17h-113v114h113zM1138 682v115h170q24 0 40.5 -17.5t16.5 -40.5t-16.5 -40t-40.5 -17h-57h-113z
M2014 1218l-683 683q-33 33 -80 33t-80 -33l-342 -341q-33 -33 -33 -80.5t33 -80.5t81 -33t81 33l260 261l602 -603q33 -33 80.5 -33t80.5 33t33 80.5t-33 80.5z" />
</svg>