<svg xmlns="http://www.w3.org/2000/svg" xmlns:xlink="http://www.w3.org/1999/xlink" version="1.1" viewBox="-10 0 2058 2048">
   <path fill="currentColor"
d="M1782 0h-1517q-29 0 -51 22q-23 23 -23 52v1899q0 29 23 52t51 23h1517q29 0 52 -23t23 -52v-1899q0 -29 -23 -52q-22 -22 -52 -22zM1712 1898h-1372v-1749h1372v1749zM1533 539h-505q-31 0 -52 20q-23 21 -23 50q0 33 23 54q22 21 52 21h505q29 0 52 -21t23 -54
q0 -29 -23 -50q-21 -20 -52 -20zM1533 991h-505q-31 0 -52 20q-23 21 -23 54t23 54q22 21 52 21h505q29 0 52 -21t23 -54t-23 -54q-21 -20 -52 -20zM464 555q-54 45 -8 104l108 128q21 25 58 25h4q37 0 58 -33l195 -315q37 -70 -25 -104q-58 -37 -104 25l-141 228l-41 -49
q-45 -59 -104 -9zM643 953q-46 0 -79 33t-33 79t33 79t79 33q45 0 78 -33t33 -79t-33 -79t-78 -33zM1533 1438h-505q-30 0 -52 21q-23 21 -23 54t23 54q22 21 52 21h505q29 0 52 -21t23 -54t-23 -54t-52 -21zM643 1401q-46 0 -79 33t-33 79t33 79t79 33q45 0 78 -33t33 -79
t-33 -79t-78 -33z" />
</svg>