<svg xmlns="http://www.w3.org/2000/svg" xmlns:xlink="http://www.w3.org/1999/xlink" version="1.1" viewBox="-10 0 2068 2048">
   <path fill="currentColor"
d="M1856 1024q0 -113 -30 -221t-83.5 -199t-130.5 -168t-168 -130.5t-199 -83.5t-221 -30t-220.5 30t-199 83.5t-168 130.5t-130.5 168t-84 199t-30 221t30 221t84 199t130.5 168t168 131t199.5 84t220.5 30t220.5 -30t199 -84t168 -131t130.5 -168t83.5 -199t30 -221z
M0 1024q0 -139 37 -272t103 -245.5t160.5 -207t207 -160t245 -102.5t272 -37t272 37t244.5 102.5t206.5 160t160.5 207t103 245.5t37 272t-37 272t-103 245.5t-160.5 207t-206.5 160t-244.5 102.5t-272 37t-272 -37t-245 -102.5t-207 -160t-160.5 -207t-103 -245.5t-37 -272
zM1218 1191q30 37 30 73t-30 73q-23 29 -66 54q-13 8 -34 17q21 9 34 17q43 25 66 54q30 37 30 73q0 37 -30 74q-21 27 -66 53q-92 50 -192 50q-10 0 -19 -7t-11 -17q-6 -25 14 -37v0v0q4 0 6 -2l5 -3.5t7 -5.5q39 -28 42 -30q22 -18 38 -40q14 -20 14 -35t-14 -35
q-14 -19 -38 -40q-3 -2 -42 -30q-2 -2 -7 -5.5l-5 -3.5q-2 -1 -6 -1v-1v0q-16 -8 -16 -28t16 -28v0v0v0q4 0 6 -2l5 -3.5t7 -5.5q39 -28 42 -30q20 -16 38 -41q14 -20 14 -34t-14 -34q-16 -21 -38 -41q-3 -2 -42 -30l-12 -8q-2 -2 -6 -2v-1v0q-20 -12 -14 -36q2 -10 11 -17
t19 -7q102 0 192 49q43 25 66 54zM870 915v0l-4 -4q-2 -3 -10 -13q-22 -25 -42 -42q-63 -56 -109.5 -56t-110.5 56q-19 17 -42 42q-8 10 -10 13l-4 4v0v0q-16 18 -37 12t-21 -31q0 -108 66 -195q32 -42 73 -67.5t85.5 -25.5t85 25.5t72.5 67.5q66 89 66 195q0 10 -6.5 19
t-15.5 12q-22 7 -36 -12v0zM1510 915q-1 -1 -1.5 -2t-0.5 -2q-2 -2 -6 -6.5t-6 -6.5q-26 -29 -40 -42q-64 -56 -111.5 -56t-110.5 56q-15 13 -42 42q-1 2 -5 6.5t-5 6.5q-4 3 -4 4v0v0q-15 18 -36 12q-9 -3 -15.5 -11.5t-6.5 -19.5q0 -108 66 -195q32 -42 73 -67.5
t85.5 -25.5t85 25.5t72.5 67.5q66 87 66 195q0 25 -22 31q-22 7 -36 -12v0z" />
</svg>