<svg xmlns="http://www.w3.org/2000/svg" xmlns:xlink="http://www.w3.org/1999/xlink" version="1.1" viewBox="-10 0 2068 2048">
   <path fill="currentColor"
d="M617 114q14 0 21 11t2 23q-22 63 -26.5 131t8.5 133.5t46.5 124.5t82 104t119 71t154.5 26t155 -26t119.5 -71t82 -104t46.5 -124.5t9 -133.5t-27 -131q-4 -12 3 -23t20 -11q11 0 17 6q82 83 127.5 191.5t45.5 228.5q0 135 -60 260q124 15 228 72q90 50 155.5 126.5
t100.5 167.5q4 10 -2 18q-6 10 -17 11.5t-20 -6.5q-56 -52 -127 -85.5t-148.5 -42.5t-152 6.5t-143 66t-117.5 131.5q-81 143 -57.5 269t115 218t218.5 128q12 3 16.5 14t-1.5 21t-16 11q-98 16 -199 -1.5t-191 -67.5q-109 -61 -180 -156q-71 96 -179 156q-90 51 -190.5 68
t-199.5 1q-9 -1 -16 -11q-6 -10 -1.5 -21t15.5 -14q127 -36 219 -128.5t115.5 -218.5t-57.5 -268q-48 -81 -117 -131.5t-143.5 -65.5t-152 -6t-148.5 42.5t-128 84.5q-9 8 -20 6.5t-17 -11.5q-6 -9 -2 -18q35 -91 101 -167.5t155 -126.5q106 -59 228 -73q-59 -122 -59 -259
q0 -120 46 -228.5t127 -191.5q6 -6 17 -6zM854 1080.5q0 70.5 50 120.5t120.5 50t120.5 -50t50 -120.5t-50 -120.5t-120.5 -50t-120.5 50t-50 120.5zM647 1598q-19 37 -60 78q-119 -88 -196 -216.5t-98 -279.5q43 -10 96 -9q80 3 142 44q40 143 147 242q6 72 -31 141z
M1024 341q150 0 290 59q-9 42 -32 83q-37 69 -107 107q-74 -22 -150 -22t-150 22q-69 -38 -107 -107q-22 -41 -32 -83q138 -59 288 -59zM1518 1215q62 -41 142 -44q54 -1 96 9q-20 151 -97 279.5t-197 216.5q-40 -41 -60 -78q-37 -65 -31 -141q108 -101 147 -242z" />
</svg>