<svg xmlns="http://www.w3.org/2000/svg" xmlns:xlink="http://www.w3.org/1999/xlink" version="1.1" viewBox="-10 0 2068 2048">
   <path fill="currentColor"
d="M292 0h1464q120 0 206 85.5t86 206.5v1464q0 121 -86 206.5t-206 85.5h-1464q-120 0 -206 -85.5t-86 -206.5v-1464q0 -121 86 -206.5t206 -85.5zM1536 548q0 -46 -32 -78t-77.5 -32t-78 32t-32.5 78v366h-584v-366q0 -46 -32.5 -78t-78 -32t-77.5 32t-32 78v951
q0 46 32 77.5t77.5 31.5t78 -31.5t32.5 -77.5v-366h584v366q0 46 32.5 77.5t78 31.5t77.5 -31.5t32 -77.5v-475v-476z" />
</svg>