<svg xmlns="http://www.w3.org/2000/svg" xmlns:xlink="http://www.w3.org/1999/xlink" version="1.1" viewBox="-10 0 2058 2048">
   <path fill="currentColor"
d="M1401 155q-154 -155 -377 -155q-161 0 -298 92q-235 159 -235 441v982q0 220 155 377q154 156 378 156q160 0 298 -93q235 -159 235 -445v-977q0 -220 -156 -378zM965 319q-21 6 -38 18q-19 14 -50 72q-29 55 -29 132v260q0 46 -42 76q-16 12 -51 12q-34 0 -60 -25
q-28 -26 -28 -63v-260q0 -85 25 -157q26 -74 57 -114q30 -39 71 -69q39 -29 59 -38q6 -3 12 -5l12 -4t8 -3q84 -30 109 54q30 84 -55 114zM1380 1510q0 188 -155 298q-97 59 -201 59q-152 0 -252 -105q-105 -96 -105 -247v-391q0 -41 32 -73t73 -32l504 -4q45 0 71 34
q33 26 33 71v390z" />
</svg>