<svg xmlns="http://www.w3.org/2000/svg" xmlns:xlink="http://www.w3.org/1999/xlink" version="1.1" viewBox="-10 0 2058 2048">
   <path fill="currentColor"
d="M512 1857h1024q26 0 45 -19t19 -45v-1153h-320q-52 0 -90 -38t-38 -90v-320h-640q-26 0 -45 19t-19 45v1537q0 26 19 45t45 19zM512 0h661q106 0 181 75l363 362q75 75 75 181v1175q0 106 -75 180.5t-181 74.5h-1024q-106 0 -181 -74.5t-75 -180.5v-1537q0 -106 75 -181
t181 -75zM899 1157l-123 123l123 125q28 28 28 67t-28 68q-28 28 -67.5 28t-67.5 -28l-192 -192q-28 -28 -28 -68t28 -68l192 -191q28 -28 67 -28t68 28t29 67.5t-29 68.5zM1284 1020l192 192q28 28 28 67t-28 68l-192 192q-28 28 -67.5 28t-68.5 -28q-28 -28 -28 -67.5
t28 -67.5l124 -124l-124 -125q-28 -28 -28 -67t28 -68q28 -28 68 -28t68 28z" />
</svg>