<svg xmlns="http://www.w3.org/2000/svg" xmlns:xlink="http://www.w3.org/1999/xlink" version="1.1" viewBox="-10 0 2058 2048">
   <path fill="currentColor"
d="M896 0q52 0 90 38t38 90v448h-256v-448q0 -52 38 -90t90 -38zM384 256q0 -53 37.5 -90.5t89.5 -37.5q53 0 91 38t38 90v320h-256v-320zM1152 256q0 -53 37.5 -90.5t89.5 -37.5q53 0 91 38t38 90v384q0 52 -38 90.5t-91 38.5q-52 0 -89.5 -38t-37.5 -91v-384zM1536 512
q0 -52 38 -90t90 -38t90 38t38 90v257q0 52 -37.5 89.5t-90.5 37.5t-90.5 -37.5t-37.5 -89.5v-257zM1152 864v-2q59 34 127 34q78 0 143 -43q27 76 93 123.5t149 47.5q69 0 128 -34v34q0 154 -68.5 288.5t-187.5 223.5v384q0 52 -38 90t-90 38h-640q-52 0 -90 -38t-38 -90
v-314q-105 -47 -188 -130l-46 -45q-72 -72 -111 -167t-39 -196v-108q0 -106 74.5 -181t180.5 -75h352q67 0 114 46.5t47 113.5t-47 113.5t-114 46.5h-223q-26 0 -45 19t-19 45t19 45t45 19h223q119 0 204 -84.5t85 -203.5z" />
</svg>