<svg xmlns="http://www.w3.org/2000/svg" xmlns:xlink="http://www.w3.org/1999/xlink" version="1.1" viewBox="-10 0 2068 2048">
   <path fill="currentColor"
d="M1086 763q21 -25 0 -46q-20 -16 -46 0q-16 21 0 46q26 16 46 0zM978 784q-22 21 0 42q25 26 42 0q20 -21 0 -42q-17 -26 -42 0zM1166 797q-37 -30 -66 0l-42 42q-34 33 0 67l46 42q30 38 68 0l38 -38q42 -34 0 -67zM1546 649q13 -31 14 -57q2 -28 0 -40q-1 -12 -24 -40
q-24 -28 -28 -29q-2 -1 -34 -32q-140 -122 -248 -4q-59 84 -38 158q21 73 88 124q64 42 148 17q86 -26 122 -97zM1408 611q-14 -18 -6 -42q9 -25 30 -34q20 -8 42 9q30 33 20 59q-11 25 -40 25q-30 0 -46 -17zM1024 0q-420 0 -722 302q-302 301 -302 722q0 422 301 723
t723 301t723 -301t301 -723q0 -421 -302 -722q-302 -302 -722 -302zM1576 1193q-147 -100 -220 -236q-83 160 -264 265q-58 174 -250 405q-188 228 -268 181q-51 -25 -34 -63q4 -28 38 -80q32 -51 66 -85l30 -37q0 29 42 92q-21 -27 -12 -84q4 -34 7.5 -56.5t4.5 -32.5
q5 -31 30 -84q22 -49 36 -76q9 -19 36 -61q24 -40 24 -44q26 -9 42 -32q17 -22 22 -40v-21q0 -152 -102 -253q52 63 52 173v21q0 122 -52 122q-49 -4 -108 17l-86 17q43 0 68 21q-51 81 -152 127q-66 30 -90 -15q-22 -44 20 -86q17 -18 32 -38q-12 -9 -12 -30
q-16 -51 38 -126q17 -26 30 -38l4 -4l8 -9q95 -94 248 -152q49 -72 112 -153q47 -59 66 -78l16 -17q43 -33 56 -38q-51 -87 -70 -202q-20 -112 -2 -161q0 5 -4 9q10 -20 20 -30q17 -21 58 -21q40 0 56 34q18 39 18 89q-28 0 -52 14t-38 28l-16 17q48 -22 100 -22
q18 13 34 38q-71 130 -38 253q17 47 26 55v4q21 34 56 53q34 18 62 23l26 4q-69 -31 -102 -92q-21 -44 -26 -59q-21 -85 34 -182q80 -126 224 -105q93 9 153.5 84t48.5 173q-12 121 -118 177q8 16 8 40q0 25 -4 36l-4 17q38 52 38 105q-20 -4 -46.5 2t-37.5 15l-14 8
q97 -25 152 26q49 57 72 101q5 8 59.5 38t46.5 67q-5 50 -60 49q-54 -1 -138 -57z" />
</svg>