<svg xmlns="http://www.w3.org/2000/svg" xmlns:xlink="http://www.w3.org/1999/xlink" version="1.1" viewBox="-10 0 2068 2048">
   <path fill="currentColor"
d="M980 137q16 -23 44 -23t45 23l235 343q62 92 62 197v6q0 93 -46 171.5t-124.5 124t-171.5 45.5t-171.5 -45.5t-124 -124t-45.5 -171.5v-6q0 -106 61 -197zM2020 1309q34 48 25.5 107t-55.5 93l-450 331q-126 94 -287 94h-570h-568q-48 0 -81 -33t-33 -80v-228
q0 -47 33 -80.5t81 -33.5h130l160 -127q124 -100 284 -100h278h57h228q47 0 80.5 33t33.5 80t-33.5 80.5t-80.5 33.5h-228h-57q-23 0 -39.5 17.5t-16.5 40.5t16 39.5t40 16.5h430l425 -313q47 -35 105 -27t93 56zM689 1479h-3h3z" />
</svg>