<svg xmlns="http://www.w3.org/2000/svg" xmlns:xlink="http://www.w3.org/1999/xlink" version="1.1" viewBox="-10 0 2068 2048">
   <path fill="currentColor"
d="M1327 1076q-12 109 -97.5 178t-194.5 57t-178 -97.5t-57 -194t97.5 -177t194.5 -56.5t178 97t57 193zM972 2046q-149 -7 -287 -55.5t-249.5 -127t-200.5 -186.5t-145 -232t-78 -265.5t-3 -285.5q34 -263 188.5 -472.5t386.5 -320.5q122 -58 252.5 -82.5t253.5 -16t243 47
t224 102t193.5 152.5t153.5 195t101.5 233.5t41.5 263.5q4 149 -33 290.5t-107 259t-171 214.5t-220.5 162.5t-259 98.5t-284.5 25zM1714 1304q24 -100 -2 -200.5t-85.5 -183.5t-150 -164t-185.5 -143t-203 -118.5t-191.5 -92.5t-160.5 -65q-176 174 -213 557.5t73 864.5
q211 49 505.5 -72.5t612.5 -382.5z" />
</svg>