<svg xmlns="http://www.w3.org/2000/svg" xmlns:xlink="http://www.w3.org/1999/xlink" version="1.1" viewBox="-10 0 2068 2048">
   <path fill="currentColor"
d="M228 228h1592q93 0 160.5 66.5t67.5 159.5v1138q0 94 -67.5 161t-160.5 67h-1592q-94 0 -161 -67t-67 -161v-1138q0 -93 67 -159.5t161 -66.5zM816 730q-11 -22 -31.5 -35t-45 -13t-45 13t-30.5 35l-256 512q-16 31 -5 65t42.5 49.5t65 4t49.5 -42.5l18 -38h322l20 38
q15 32 49 43t65.5 -4.5t42 -49.5t-4.5 -65zM740 958l74 150h-150zM1393.5 1024q35.5 0 60 24.5t24.5 60t-24.5 60.5t-60 25t-60.5 -25t-25 -60.5t25 -60t60.5 -24.5zM1478 868q-37 -14 -84 -14q-106 0 -181 74t-75 180.5t75 181t181 74.5q56 0 110 -24q24 24 60 24t61 -24
t25 -60v-172v-340q0 -36 -25 -61t-60.5 -25t-61 25t-25.5 61v100z" />
</svg>