<svg xmlns="http://www.w3.org/2000/svg" xmlns:xlink="http://www.w3.org/1999/xlink" version="1.1" viewBox="-10 0 2068 2048">
   <path fill="currentColor"
d="M1010 913q50 0 86 35.5t36 86.5t-35.5 86.5t-86 35.5t-86.5 -35.5t-36 -86.5q0 -50 35.5 -86t86.5 -36zM614 913v0q52 0 88 35.5t36 86.5t-36 86.5t-87 35.5t-86 -35.5t-35 -86.5q0 -50 35 -86t85 -36zM1404 913q52 0 87 35.5t35 86.5t-35 86.5t-86 35.5t-87 -35.5
t-36 -86.5q0 -50 36 -86t86 -36zM1954 714q94 144 94 311q0 164 -94 308q-81 128 -230 227q-142 94 -323 144t-377 50q-131 0 -258 -23q-83 79 -176 131q-85 42 -171 61.5t-159 16t-126 -13.5t-100 -28q-14 -5 -24 -18.5t-10 -29.5q0 -21 14 -35q34 -34 63.5 -72t60 -88
t43.5 -105.5t3 -104.5q-89 -91 -136.5 -199t-47.5 -224q0 -113 47.5 -220.5t136.5 -198.5q10 -49 -3 -104t-43.5 -105.5t-60 -88t-63.5 -72.5q-14 -14 -14 -35q0 -16 10 -29t24 -19q48 -17 101 -27.5t125.5 -14t158.5 15.5t171 61q91 51 176 132q127 -23 256 -23h2
q196 0 377 50t323 143q149 99 230 227zM1012 1574q136 0 263 -27t229.5 -77t179.5 -116t119.5 -148t42.5 -169.5t-42.5 -170t-119.5 -148.5t-179.5 -115.5t-229.5 -77t-262.5 -27.5t-262.5 27.5t-229 77t-179 115.5t-118.5 148.5t-41.5 169.5q0 96 48.5 183t139.5 158
q49 158 -60 358q-2 4 -4 10t-4 9q101 -9 188 -53q72 -40 132 -99l72 -69q153 41 314 41h4z" />
</svg>