<svg xmlns="http://www.w3.org/2000/svg" xmlns:xlink="http://www.w3.org/1999/xlink" version="1.1" viewBox="-10 0 2058 2048">
   <path fill="currentColor"
d="M1298 684l-171 172l-1 -344zM1126 1564l1 -345l171 173zM1792 1037q0 174 -17.5 314.5t-49.5 245.5t-82 183t-109.5 129t-137 82.5t-160.5 44t-184 12.5q-102 0 -187 -12.5t-168.5 -44t-148.5 -82t-121 -129.5t-93 -183t-57.5 -245.5t-20.5 -314.5t20 -316t56 -249.5
t91 -187.5t119.5 -134.5t146 -87.5t167 -48t186.5 -14q142 0 252.5 28.5t206.5 100t158 188t97.5 297.5t35.5 423zM1158 1037l317 -354l-500 -537v708l-295 -296l-108 108l370 372l-370 372l107 107l296 -294l9 680l510 -510z" />
</svg>