<svg xmlns="http://www.w3.org/2000/svg" xmlns:xlink="http://www.w3.org/1999/xlink" version="1.1" viewBox="-10 0 2068 2048">
   <path fill="currentColor"
d="M1878 279q70 1 120 51.5t50 120.5v873q0 71 -50 120.5t-120 49.5h-320q-135 0 -227.5 16t-151.5 51t-91.5 82t-53.5 118q-2 8 -10.5 8t-11.5 -8q-20 -71 -52.5 -118t-91.5 -82t-151.5 -51t-226.5 -16h-320q-70 0 -120 -49.5t-50 -120.5v-873q0 -70 50 -121t120 -51h498
q128 0 228 80t128 206q29 -126 128.5 -206t227.5 -80h498zM860 1223v-81q0 -5 -3 -9t-9 -4h-570q-5 0 -8.5 4t-3.5 9v81q0 12 12 12h570q12 0 12 -12zM860 1006v-81q0 -12 -12 -12h-570q-12 0 -12 12v81q0 6 3.5 9.5t8.5 3.5h570q6 0 9 -3.5t3 -9.5zM860 790v-81q0 -5 -3 -9
t-9 -4h-570q-5 0 -8.5 4t-3.5 9v81q0 12 12 12h570q12 0 12 -12zM1782 1223v-82q0 -5 -3.5 -9t-8.5 -4h-570q-6 0 -9 4t-3 9v82q0 12 12 12h570q12 0 12 -12zM1782 1006v-82q0 -11 -12 -11h-570q-12 0 -12 11v82q0 6 3 9.5t9 3.5h570q5 0 8.5 -3.5t3.5 -9.5zM1782 789v-80
q0 -5 -3.5 -9t-8.5 -4h-570q-6 0 -9 4t-3 9v80q0 6 3 9.5t9 3.5h570q5 0 8.5 -3.5t3.5 -9.5z" />
</svg>