<svg xmlns="http://www.w3.org/2000/svg" xmlns:xlink="http://www.w3.org/1999/xlink" version="1.1" viewBox="-11 0 2070 2048">
   <path fill="currentColor"
d="M844 30l180 184l180 -184q38 -41 92 -26q26 6 44.5 24t25.5 44l62 250l248 -70q55 -15 94.5 24.5t23.5 93.5l-68 248l250 64q25 6 43.5 24.5t24.5 43.5q15 54 -26 94l-184 180l184 180q19 18 26 43t0.5 50.5t-25 44t-43.5 24.5l-250 64l68 248q16 54 -23.5 93.5
t-94.5 24.5l-248 -72l-62 252q-7 25 -25 43.5t-43 24.5q-54 15 -94 -26l-180 -184l-180 184q-41 41 -94 26q-25 -6 -43 -24.5t-25 -43.5l-64 -252l-248 72q-53 15 -92 -24q-41 -41 -26 -94l72 -248l-250 -64q-26 -6 -45 -24.5t-25.5 -44t0.5 -50.5t26 -43l184 -180
l-184 -180q-41 -38 -26 -92q6 -26 25 -44.5t45 -25.5l250 -64l-72 -248q-15 -53 26 -94q39 -39 92 -24l248 70l64 -250q7 -26 25 -44t43 -24q55 -15 94 26z" />
</svg>