<svg xmlns="http://www.w3.org/2000/svg" xmlns:xlink="http://www.w3.org/1999/xlink" version="1.1" viewBox="-10 0 2068 2048">
   <path fill="currentColor"
d="M1663 832q0 273 -160 491l507 505q38 38 38 91.5t-37.5 91t-91 37.5t-91.5 -38l-506 -507q-220 161 -490 161q-113 0 -220.5 -30t-199 -83.5t-168.5 -130.5t-130.5 -168t-83.5 -199t-30 -221t30 -220.5t83.5 -199t130.5 -168.5t168.5 -130.5t199 -83.5t220.5 -30t221 30
t199 83.5t167.5 130.5t130.5 168.5t83.5 199t29.5 220.5zM912 416q0 -33 -23.5 -56.5t-56.5 -23.5t-57 23.5t-24 56.5v55q-41 8 -88 35q-103 64 -103 175q0 106 98 163q44 26 143 56l7 2q81 24 111 42q24 15 24 33q0 27 -24 42q-34 22 -85 20q-9 0 -18 -1t-20 -3t-18 -4
t-20.5 -6t-19 -6t-22 -7.5l-22.5 -7.5q-2 -1 -12.5 -4.5l-16.5 -5.5q-31 -10 -60.5 5t-40.5 46q-10 31 4.5 61t45.5 40q5 1 13.5 4.5t11.5 4.5v0q63 23 112 33v60q0 33 24 56t57 23t56 -23t23 -56v-55q48 -9 93 -37q46 -29 73 -74.5t26 -105.5q-1 -106 -98 -166
q-41 -27 -149 -61h-3q-80 -23 -112 -42q-22 -12 -22 -27q0 -22 25 -37q34 -20 86 -20t125 20q33 9 60.5 -7.5t36.5 -48.5t-7 -60.5t-49 -37.5q-77 -18 -84 -19v-54z" />
</svg>