<svg xmlns="http://www.w3.org/2000/svg" xmlns:xlink="http://www.w3.org/1999/xlink" version="1.1" viewBox="-10 0 2068 2048">
   <path fill="currentColor"
d="M348 256q202 -177 462 -234q22 83 22 170q0 228 -144 405zM256 346l342 341q-85 69 -189 107.5t-217 38.5q-86 0 -168 -23q57 -264 232 -464zM1024 0q192 0 366 67t312 189l-678 677l-244 -245q86 -103 133 -229.5t47 -266.5q0 -94 -22 -188q57 -4 86 -4zM192 960
q140 0 267 -47.5t229 -134.5l246 246l-678 678q-121 -139 -188.5 -313t-67.5 -365q0 -44 4 -87q93 23 188 23zM2044 1111q-93 -23 -188 -23q-140 0 -267.5 47.5t-228.5 134.5l-246 -246l678 -678q121 139 188.5 313t67.5 365q0 44 -4 87zM2026 1239q-55 260 -234 463
l-342 -342q85 -69 188.5 -106.5t217.5 -37.5q87 0 170 23zM1360 1451l342 342q-200 176 -462 233q-24 -86 -24 -169q0 -113 37.5 -217t106.5 -189zM1270 1360q-87 103 -134.5 230t-47.5 267q0 90 24 188q-44 3 -88 3q-191 0 -364.5 -66.5t-311.5 -188.5l676 -679z" />
</svg>