<svg xmlns="http://www.w3.org/2000/svg" xmlns:xlink="http://www.w3.org/1999/xlink" version="1.1" viewBox="-10 0 2068 2048">
   <path fill="currentColor"
d="M2047 548q-14 299 -417 818q-418 544 -707 544q-179 0 -303 -331q-24 -88 -66 -246q-104 -388 -148 -506q-64 -166 -130 -183q-9 -2 -18 -2q-22 0 -160 96l-97 -123q43 -39 114.5 -103.5t116 -104.5t104.5 -90t102 -78.5t87 -50t79 -24.5q119 -12 192 69.5t101 257.5
q79 506 133 657q44 123 99 124q59 0 160 -148l36 -54q130 -207 139 -309q5 -51 -5.5 -87t-32.5 -55t-51.5 -27.5t-65 -6t-69 11.5t-66.5 23q150 -495 577 -481q314 7 296 409z" />
</svg>