<svg xmlns="http://www.w3.org/2000/svg" xmlns:xlink="http://www.w3.org/1999/xlink" version="1.1" viewBox="-10 0 2058 2048">
   <path fill="currentColor"
d="M256 96q0 -40 28 -68t68 -28h1343q40 0 68.5 28t28.5 68t-28.5 68t-68.5 28h-31v76q0 121 -46.5 232.5t-132.5 197.5l-326 326l326 326q86 85 132.5 197.5t46.5 233.5v76h31q40 0 68.5 27.5t28.5 67.5t-28.5 68t-68.5 28h-1343q-40 0 -68 -28t-28 -68t28 -67.5t68 -27.5
h32v-76q0 -121 46 -233.5t131 -197.5l328 -326l-328 -326q-85 -85 -131 -197t-46 -233v-76h-32q-40 0 -68 -28t-28 -68zM698 1486q-20 20 -43 50h737q-26 -34 -42 -50l-326 -326zM1392 512q79 -108 79 -244v-76h-895v76q0 136 79 244h737z" />
</svg>