<svg xmlns="http://www.w3.org/2000/svg" xmlns:xlink="http://www.w3.org/1999/xlink" version="1.1" viewBox="-10 0 2068 2048">
   <path fill="currentColor"
d="M192 1040v160q0 40 -28 67.5t-67.5 27.5t-68 -27.5t-28.5 -67.5v-160q0 -139 37 -271.5t103 -245t160.5 -207t206.5 -160.5t244.5 -103t272.5 -37q229 0 431 95t345 262q26 31 23 70t-33.5 65.5t-69.5 23.5t-66 -34q-116 -136 -280.5 -213t-349.5 -77q-113 0 -221 30
t-199 84t-168 130.5t-130.5 168t-83.5 199t-30 220.5zM2024 829h2q22 107 22 211v160q0 40 -28.5 68t-68 28t-67.5 -28t-28 -68v-160q0 -90 -18 -173q-9 -38 12.5 -71t61.5 -42q38 -8 71 14t41 61zM1024 336q144 0 274 56t224 150t150 224.5t56 273.5v99q0 165 -20 332
q-4 35 -30.5 57.5t-63.5 22.5q-44 0 -72 -33t-24 -78q18 -141 18 -301v-99q0 -104 -41 -199t-109.5 -163.5t-163 -109.5t-198.5 -41q-70 0 -134 18q-30 10 -63.5 1.5t-54.5 -33.5q-31 -36 -21 -82.5t55 -60.5q100 -34 218 -34zM602 611q24 30 24 67.5t-22 68.5
q-92 131 -92 293v99q0 175 -38 344q-7 31 -32.5 49.5t-57.5 18.5q-47 0 -76 -38.5t-18 -86.5q30 -134 30 -287v-99q0 -119 38.5 -229t109.5 -202q26 -32 66 -31t68 33zM1023.5 655q104.5 0 193 52t140 140.5t51.5 192.5v99q0 236 -46 473q-6 30 -30.5 49t-55.5 19
q-41 0 -67.5 -34t-18.5 -76q42 -215 42 -431v-99q0 -86 -61 -147t-147.5 -61t-147 61t-60.5 147v99q0 245 -64 479q-7 28 -30 45t-52 17q-44 0 -70 -36t-14 -80q54 -206 54 -425v-99q0 -104 51.5 -192.5t139.5 -140.5t192.5 -52zM1120 1040v99q0 395 -144 769l-22 62
q-14 38 -50.5 53.5t-73.5 1.5q-38 -13 -54 -49.5t-2 -74.5l24 -61q130 -337 130 -701v-99q0 -39 28 -68t67.5 -29t68 29t28.5 68z" />
</svg>