<svg xmlns="http://www.w3.org/2000/svg" xmlns:xlink="http://www.w3.org/1999/xlink" version="1.1" viewBox="-10 0 2058 2048">
   <path fill="currentColor"
d="M1745 1027q47 130 47 260q0 155 -61.5 296t-164.5 242.5t-245 162t-297 60.5t-297 -60.5t-245 -162t-164.5 -242.5t-61.5 -296q0 -135 45 -260l4 -8q207 -570 651 -985l13 -12q24 -22 55 -22t55 22l13 12q444 415 651 985zM1382 1224h-1l-7 -17q-96 -216 -261 -381
l-36 -35q-22 -22 -54 -22t-54 22l-36 35q-165 165 -261 381l-8 17q-25 58 -25 118q0 159 113 273t272 114t271 -114t112 -273q0 -60 -25 -118z" />
</svg>