<svg xmlns="http://www.w3.org/2000/svg" xmlns:xlink="http://www.w3.org/1999/xlink" version="1.1" viewBox="-10 0 2068 2048">
   <path fill="currentColor"
d="M1024 1752q426 0 724 -300q300 -303 300 -728h-2048q0 425 300 728q298 300 724 300zM0 1866h2048v174h-2048v-174zM590 434q0 12 4 16v4q4 4 4 10q4 4 8 12t10 12l16 18q4 4 16 12q6 0 6 4l8 4l24 8h10v-8q-4 -4 -4 -20v-14v-16q0 -19 8 -34v-8l4 -4q4 -4 4 -8l4 -6
l4 -4l4 -4q8 -8 14 -8q8 -8 8 -12q4 0 12 -10h4l4 -4q8 -8 14 -8l8 -8l16 -12q36 -28 52 -60q24 -39 28 -76q10 -38 0 -72q-9 -35 -24 -58q-17 -26 -60 -60q-5 0 -10 -4q-8 -6 -10 -8h-4q-6 0 -6 8v22q0 22 -8 68q0 16 -8 32q-4 9 -10 17.5t-6 12.5l-22 22q-10 13 -26 24
l-8 4v6l-4 4h-4l-4 4l-8 8l-10 8l-4 4q-8 9 -24 34q-17 12 -22 34q-4 4 -4 8q-4 10 -4 14l-4 8v8q0 12 -4 20v10v8q0 15 8 38zM918 434q4 0 4 8t4 8l6 4v10q0 2 6 11.5t10 12.5l16 18q10 8 18 12l4 4q4 4 8 4t12 4t14 4h8q0 -4 -4 -8v-20v-14v-16q0 -17 8 -34v-8l4 -4
q0 -4 4 -8q0 -6 4 -6q0 -4 6 -4l4 -4l8 -8l12 -12q4 0 12 -10h6l4 -4q8 -8 12 -8l8 -8l18 -12q17 -15 50 -60q25 -41 30 -76q8 -40 -4 -72q-5 -28 -22 -58q-12 -26 -58 -60l-22 -12h-8v8v22q0 22 -8 68q-9 28 -14 32q-7 20 -12 30l-22 22l-24 24l-8 4v6l-6 4h-4l-4 4
q-8 8 -12 8l-4 8q-4 0 -4 4q-16 12 -30 34l-16 34q-6 4 -6 8q-4 8 -4 14v8q-4 4 -4 8q0 2 -2 10t-2 10v10v8q0 27 4 38z" />
</svg>