<svg xmlns="http://www.w3.org/2000/svg" xmlns:xlink="http://www.w3.org/1999/xlink" version="1.1" viewBox="-10 0 2068 2048">
   <path fill="currentColor"
d="M160 307h290l-82 409h-300q-28 0 -48 -19t-20 -47q0 -10 4 -19l82 -270q8 -24 28 -39t46 -15zM870 716h-398l82 -409h316v409zM972 716v-409h318l46 231q-4 2 -16 12q-87 77 -162 166h-186zM1644 641q-3 2 -8 7.5t-8 8.5q-62 -64 -108 -107q-35 -32 -86 -37l-40 -206h290
q25 0 45.5 15t28.5 39l82 270q0 1 1 2q1 2 1 4q-43 -36 -100 -35t-98 39zM1040 879q-118 192 -118 343q0 117 41.5 224t116.5 192h-670q0 42 -30 72.5t-72 30.5t-73 -30.5t-31 -72.5l-64 -512h-38q-42 0 -72 -30t-30 -72t30 -72t72 -30h14l-14 -103h978q-22 30 -40 60z
M1535.5 1741q-103.5 0 -198.5 -40.5t-163.5 -109t-109 -163.5t-40.5 -199q0 -70 22.5 -143t57 -133.5t81 -118.5t91 -101t90.5 -79q24 -18 54 -18q44 0 72 29l146 148l36 -37q29 -28 68 -29t68 26q67 67 115.5 135t74 126.5t37 106t11.5 88.5q0 104 -41 199t-109.5 163.5
t-163.5 109t-198.5 40.5zM1740 1383q0 -41 -18 -85.5t-48.5 -83t-56 -64.5t-51.5 -50q-13 -11 -30 -11t-30 11q-26 23 -51.5 49.5t-56 65t-48.5 83t-18 85.5q0 85 59.5 144.5t144 59.5t144.5 -59.5t60 -144.5z" />
</svg>