<svg xmlns="http://www.w3.org/2000/svg" xmlns:xlink="http://www.w3.org/1999/xlink" version="1.1" viewBox="-10 0 2068 2048">
   <path fill="currentColor"
d="M910 228h228q48 0 81 33t33 81v6v356q0 14 10 24t26 10q21 0 30 -16l172 -298q199 98 320 287t124 417v236h-1820v-226q0 -233 121.5 -424t322.5 -290l172 298q9 16 30 16q16 0 26 -10t10 -24v-356v-6q0 -48 33 -81t81 -33zM60 1478h1928q24 0 42 18t18 42q0 26 -22 42
q-31 24 -73 48t-132.5 61t-195 64t-264.5 47t-337.5 20t-337.5 -20t-264.5 -47t-195 -64t-132.5 -61t-74 -48q-20 -15 -20 -42q0 -24 17.5 -42t42.5 -18z" />
</svg>