<svg xmlns="http://www.w3.org/2000/svg" xmlns:xlink="http://www.w3.org/1999/xlink" version="1.1" viewBox="-10 0 2058 2048">
   <path fill="currentColor"
d="M1056 2047q-8 -26 -6 -98q1 -38 6 -115q1 -18 6 -51t7 -35q1 -3 0.5 -60t-1.5 -73q-3 -33 -3 -82t-2 -67.5t-9 -32.5q-4 -10 -3 -45v-16q0 -5 -0.5 -11t-1.5 -13t-1 -11q-15 -95 -13 -136q1 -25 9 -39q20 -30 35 -92q3 -13 18 -83q6 -30 18 -61q7 -19 7.5 -40t-6.5 -21
q-3 0 -10 11t-33 29q-46 32 -51 50q-3 10 -3 20.5t3 11.5q3 4 8 19q7 26 7 36q0 8 -4 26q-2 15 -5 32q-1 4 -2.5 12t-2.5 13.5t-1 7.5q-2 10 -6 17q-4 5 -8 -2t-6 -18q-1 -2 -2.5 -9.5t-4.5 -19.5t-5 -19q-18 -57 -4 -84q4 -6 6 -19q0 -15 -29 -40q-23 -20 -30 -27.5
t-11 -16.5q-10 -23 -18 -7q-12 18 -13 88l-1 49l9 9q10 12 29.5 41t24.5 38q11 21 15 40.5t4 54.5q0 84 7 98q2 6 1 7t0 3l3 6t3 7q6 18 8 37q1 16 7 41q11 48 10 80q-3 34 -4 69q-2 69 -4 131.5t-2.5 85.5t-0.5 28q0 9 -2 85q-2 105 -10 115q-1 2 -10 -4t-21 -15.5
t-20 -18.5q-11 -11 -13 -17.5t2 -22.5q5 -21 13 -130q1 -27 4 -51q10 -134 11 -140q3 -49 7 -70q2 -11 4 -77l2 -67l-9 -18q-7 -15 -52 -60q-44 -44 -52 -56l-8 -12l2 -43q3 -47 3 -125.5t-3 -110.5l-3 -35l-13 -18q-18 -23 -21 -39.5t-4 -94.5q0 -43 -2 -47q-4 -10 -35 -12
q-27 -1 -41.5 -10.5t-53.5 -48.5q-10 -9 -23.5 -22.5t-21.5 -21t-10 -9.5q-8 -7 -8.5 -11t6.5 -27l5 -19l-7 -12q-1 -1 -4 -7t-5 -9q-4 -5 -14 -25.5t-11 -28.5v-5q0 -5 4 -11q12 -15 17 -43q8 -34 21 -70t22 -46q10 -10 21.5 -4t16.5 24q7 27 0 74q-4 30 -4 45q0 13 1 17
t8 12q19 26 61 42q11 6 18 11q65 64 92 67q15 3 24.5 15.5t15.5 39.5q3 17 10.5 30.5t11.5 13.5q4 -1 14 -6q6 -3 7.5 -6t1.5 -11q-1 -29 -8 -70q-2 -12 -4 -22l-2.5 -9t-2.5 -14q-14 -62 -16 -64q-5 -6 -11 -26.5t-8 -37.5q-5 -32 -15 -45.5t-37 -23.5q-34 -14 -53 -31
q-5 -5 -25 -21q-4 -3 -9 -6.5t-7.5 -5.5t-2.5 -3q-5 -5 -11 -8q-32 -21 -45 -48l-10 -20l-1 -52v-52l27 -26q29 -27 42 -33q19 -9 46 -9q39 -1 46 6q4 5 3.5 16t-4.5 18q-3 3 -5 10q0 4 -22 36q-7 15 -9 27q21 14 49 27q10 5 14 8t7.5 6t2 11.5t-3.5 16.5t-8 28q-3 12 -5 18
l45 11q32 -94 35 -105q0 -10 -7.5 -15t-17.5 -6t-21.5 -4t-15.5 -9q-3 -5 -2.5 -12.5t1.5 -13t5 -14t6.5 -13t7.5 -13t7 -11.5q4 -7 16 -12.5t19 -4.5q3 1 29 -5q20 -6 30 -7q7 -1 24 -5q18 -5 26 -2q17 5 23 5q9 1 25 9t19 9q9 2 11.5 1t16.5 -9l18 -9l43 -2q30 0 39 -2
t22 -9l18 -8l10 5q11 8 19 24q7 14 8 17.5t-2 11.5q-4 12 0 26q4 16 7 24q0 2 1.5 5t2.5 5.5t2 4.5q1 13 -1 18.5t-9 9.5t-17 18.5t-10 18.5q-3 11 -4 13q-14 33 -24.5 44.5t-33.5 22.5q-46 21 -65 21q-16 0 -18 5q-9 12 -16 16q-13 8 -18 18q-4 10 -9 12q-3 1 -10 8
q-11 10 -28 20q-31 24 -32 25q-3 5 -10 7q-5 2 -8 6q-6 6 -5 18l6 24q8 25 0 42q-9 20 5 38q10 15 4 36q-5 19 -5 34v2q0 23 6 34q5 10 13 8q6 0 8.5 -7.5t10.5 -41.5q7 -30 15.5 -41t38.5 -27q6 -3 20.5 -10.5t19.5 -10.5q3 -1 17.5 -9t20.5 -11q39 -17 61 -47
q21 -26 32 -54t20 -79q1 -12 11 -30t12 -29q6 -33 21 -47q21 -18 21 18q-1 10 -2 25q-5 34 -6 58l-2 29l17 17l19 17v33q0 33 4 43l3 10l-26 25q-46 45 -67 87q-4 6 -7.5 13.5t-6 12.5t-3.5 6q-19 26 -36 80l-8 30l-29 26q-27 26 -36 32q-17 14 -17 40q0 1 -0.5 1.5
l-0.5 0.5q0 14 7 28q5 10 8 19q1 6 7 11q4 5 5 38.5t-2 54.5q-2 14 -8.5 31t-9.5 17q-6 0 -12 24t-9 59q-3 24 -4 35q0 3 -1.5 15.5t-3 25.5t-1.5 23q-4 68 9 93q11 20 1 40.5t-45 50.5l-17 14v21q0 11 6 35q13 48 15.5 68t1.5 81q-3 152 2 176q4 18 5 28q3 28 4 30
q3 14 3 91v76l-7 10q-5 7 -20 20.5t-28.5 23t-13.5 6.5h1zM1174 1866q-2 -2 -2 -58q0 -87 -9 -138q-3 -24 -3 -68q-2 -90 -11 -105q-2 -3 -7 -39.5t-5 -46.5q0 -12 4 -19.5t17 -17.5q12 -9 17 -9.5t6 7.5q0 2 1.5 8.5t3.5 15.5t4 16q12 47 14.5 59t2.5 28t-7 71
q-5 37 -4 113q1 124 -8 166q-4 15 -12 18q-1 1 -2 -1zM889 1716q-5 -21 -6 -42q-1 -17 -7 -44q-2 -10 -4 -26q-2 -26 -5 -38q-15 -75 -15 -84q0 -4 -2 -30q-2 -19 -2.5 -65t1.5 -48q3 -3 17.5 7t28.5 23l20 21l-1 26q-1 8 -2 30.5t-1 28.5q-2 42 -3 47q-3 19 -4 67
q-6 124 -10 128q-2 1 -3 1q-2 0 -2 -2zM542 650q27 17 46.5 30.5t26 19t16 10.5t24.5 10q42 14 61 27t31 41q-148 123 -216.5 185t-89.5 98q-37 62 -48 122t4 107.5t52.5 81.5t99 44t143.5 -6q-20 43 -74 65t-114 20t-119 -29.5t-88 -75.5q-31 -49 -45 -112t-6.5 -141
t38 -158.5t96.5 -169.5t162 -169zM1384 1366q66 8 119.5 -6.5t84.5 -48.5t43 -80t-3.5 -104t-57.5 -119q-108 -117 -257 -272q10 -53 37 -103t85 -111q73 52 132.5 112.5t96.5 111.5t65 109t41.5 95.5t22 82t10 56.5t2.5 30q4 68 -18 124.5t-60 92t-86.5 57.5t-96.5 25
t-91 -10t-69 -42z" />
</svg>