<svg xmlns="http://www.w3.org/2000/svg" xmlns:xlink="http://www.w3.org/1999/xlink" version="1.1" viewBox="-10 0 2068 2048">
   <path fill="currentColor"
d="M872 409l-164 164q-78 22 -134 72l-84 75q-52 45 -118 45h-64v410q102 3 174 75l112 114l24 23l86 86q14 15 35 15t37 -15q6 -7 12 -19q14 -39 56 -48q41 -10 70 21l36 34q27 27 66.5 27t65.5 -27q27 -27 28 -63q1 -22 12.5 -39.5t31.5 -25.5q42 -20 78 6q23 16 51 14
t49 -22q22 -23 22 -55t-22 -53l-244 -243l-114 106q-65 60 -154.5 61t-155.5 -58q-76 -68 -78 -170t72 -171l224 -212q66 -62 150.5 -95.5t173.5 -33.5q87 0 168 30.5t146 88.5l96 86h124h128h128q22 0 37 15t15 36v666q0 42 -30 72t-72 30h-102q-29 0 -53.5 -14.5
t-36.5 -36.5h-272q-16 34 -42 60q-41 40 -94 57t-108 8q-15 32 -46 64q-65 65 -157 72t-165 -46q-60 50 -139.5 46.5t-136.5 -59.5l-84 -87l-24 -22l-114 -114q-25 -26 -64 -29q0 41 -30.5 71t-73.5 30h-102q-42 0 -72 -30t-30 -72v-666q0 -21 15 -36t37 -15h128h128h64
q10 0 16 -6l84 -75q68 -60 151 -92t173 -32h32q16 0 44 2zM1740 1227v-462h-154q-27 0 -50 -19l-118 -104q-91 -81 -212 -81q-124 0 -218 87l-224 212q-25 23 -24.5 56.5t26.5 56.5q21 20 51.5 20t52.5 -20l230 -213q23 -22 55 -20.5t53 25.5q22 23 20.5 55t-24.5 54l-2 2
l236 238q46 45 62 113h240zM204 1277.5q0 -21.5 -14.5 -36t-36 -14.5t-36.5 14.5t-15 36t15 36.5t36.5 15t36 -15t14.5 -36.5zM1894.5 1329q21.5 0 36.5 -15t15 -36.5t-15 -36t-36.5 -14.5t-36 14.5t-14.5 36t14.5 36.5t36 15z" />
</svg>