<svg xmlns="http://www.w3.org/2000/svg" xmlns:xlink="http://www.w3.org/1999/xlink" version="1.1" viewBox="-10 0 2058 2048">
   <path fill="currentColor"
d="M512 192q-26 0 -45 19t-19 45v1537q0 26 19 45t45 19h320v-256q0 -80 56.5 -136.5t135.5 -56.5t135.5 56.5t56.5 136.5v256h320q26 0 45 -19t19 -45v-1537q0 -26 -19 -45t-45 -19h-1024zM256 256q0 -106 75 -181t181 -75h1024q106 0 181 75t75 181v1537q0 106 -75 180.5
t-181 74.5h-1024q-106 0 -181 -74.5t-75 -180.5v-1537zM608 416q0 -26 19 -44.5t45 -18.5h192q26 0 45 18.5t19 44.5v192q0 26 -19 45t-45 19h-192q-26 0 -45 -19t-19 -45v-192zM1184 353h192q26 0 45 18.5t19 44.5v192q0 26 -19 45t-45 19h-192q-26 0 -45 -19t-19 -45v-192
q0 -26 19 -44.5t45 -18.5zM608 928q0 -26 19 -45t45 -19h192q26 0 45 19t19 45v192q0 26 -19 45.5t-45 19.5h-192q-26 0 -45 -19.5t-19 -45.5v-192zM1184 864h192q26 0 45 19t19 45v192q0 26 -19 45.5t-45 19.5h-192q-26 0 -45 -19.5t-19 -45.5v-192q0 -26 19 -45t45 -19z
" />
</svg>