<svg xmlns="http://www.w3.org/2000/svg" xmlns:xlink="http://www.w3.org/1999/xlink" version="1.1" viewBox="-10 0 2068 2048">
   <path fill="currentColor"
d="M364 859q73 9 168.5 38t205.5 77.5t221.5 110.5t219 143.5t195.5 171t153.5 198t90.5 219.5h-1618q76 -6 150 -35t136.5 -74t113.5 -106t85 -129.5t46.5 -147t1 -156t-54 -158t-114.5 -152.5zM496 231q71 11 159 41.5t188.5 81.5t206 118t213 153t208.5 184t194 214.5
t168 240t131 266t84 287.5h-396q-23 -109 -70 -214.5t-109 -195t-139 -173t-158 -151t-167.5 -126t-166.5 -101t-156 -73.5q5 -157 -43.5 -300t-146.5 -252z" />
</svg>