<svg xmlns="http://www.w3.org/2000/svg" xmlns:xlink="http://www.w3.org/1999/xlink" version="1.1" viewBox="-10 0 2058 2048">
   <path fill="currentColor"
d="M1048 1711q53 48 93.5 102.5t39.5 100.5v11q-6 58 -50 90.5t-107 32.5q-73 0 -115.5 -42t-39.5 -101q3 -43 42.5 -95t87.5 -95q12 -12 23 -15q10 0 13.5 1.5t12.5 9.5zM1584 269q69 116 87.5 226t-4.5 224q-18 80 -69 178.5t-116 189.5t-146.5 187t-152 169.5
t-139.5 138.5q-5 6 -14 9l-13 -1q-10 -3 -25 -21q-60 -59 -108 -108t-113 -120.5t-115 -133.5t-103.5 -139t-89.5 -146t-62 -144.5t-32 -143.5q-3 -140 36.5 -248.5t111.5 -183.5t183 -133l20.5 -8.5t31.5 -12.5t36 -12.5t48 -13.5t53.5 -11t65 -8.5t70.5 -2.5
q70 -1 151.5 14.5t154.5 46.5q82 38 144.5 87t108.5 121zM1004 1408v-1304q-67 6 -119 47t-83 100.5t-50 132.5t-24.5 140t-0.5 128q7 109 55 255.5t102.5 264t119.5 236.5zM1572 720q16 -56 16.5 -117t-13 -123t-46.5 -121t-80.5 -108.5t-118.5 -87t-157 -55.5q55 37 95 99
t61 134.5t29.5 145.5t6.5 146q-3 83 -29 187t-67.5 209t-83.5 195t-89 177q70 -71 137 -148t137.5 -168.5t124 -187.5t77.5 -177z" />
</svg>