<svg xmlns="http://www.w3.org/2000/svg" xmlns:xlink="http://www.w3.org/1999/xlink" version="1.1" viewBox="-10 0 2068 2048">
   <path fill="currentColor"
d="M0 256q0 -52 38 -90t90 -38h1792q52 0 90 38t38 90t-38 90t-90 38v1281q52 0 90 37.5t38 90t-38 90t-90 37.5h-1792q-52 0 -90 -37.5t-38 -90t38 -90t90 -37.5v-1281q-52 0 -90 -38t-38 -90zM1024.5 384q-26.5 0 -45.5 19t-19 45v128h-320q-26 0 -45 19t-19 45t19 45
t45 19h320v192h-448q-26 0 -45 19t-19 45t19 45t45 19h448v283l-204 -79q-31 -12 -64 -12h-8q-71 0 -121.5 50t-50.5 121q0 62 36 107l74 92q29 38 71 58.5t89 20.5h484q47 0 89 -20.5t71 -58.5l74 -92q36 -46 36 -107q0 -71 -50 -121t-120 -50h-10q-33 0 -64 12l-204 79
v-283h448q27 0 45.5 -19t18.5 -45t-18.5 -45t-45.5 -19h-448v-192h320q27 0 45.5 -19t18.5 -45t-18.5 -45t-45.5 -19h-320v-128q0 -26 -18.5 -45t-45 -19zM833 1408q27 0 45 18.5t18 45.5t-18 45.5t-45 18.5t-46 -18.5t-19 -45.5t19 -45.5t46 -18.5zM1152 1472
q0 -27 18 -45.5t45.5 -18.5t46 18.5t18.5 45.5t-18.5 45.5t-46 18.5t-45.5 -18.5t-18 -45.5z" />
</svg>