<svg xmlns="http://www.w3.org/2000/svg" xmlns:xlink="http://www.w3.org/1999/xlink" version="1.1" viewBox="-10 0 2068 2048">
   <path fill="currentColor"
d="M2048 1028q0 192 -70 370t-189.5 312t-286 223t-354.5 111v-704h278l58 -312h-336v-112q0 -123 54 -175.5t180 -52.5q70 0 118 4v-284q-34 -9 -103.5 -16.5t-118.5 -7.5q-257 0 -378.5 123.5t-121.5 384.5v136h-212v312h212v682q-166 -42 -309.5 -135.5t-247 -223
t-162.5 -294.5t-59 -341q0 -140 37 -272.5t103 -245t160.5 -207t207 -160.5t245 -102.5t272 -36.5t272 36.5t244.5 102.5t206.5 160.5t160.5 207t103 245t37 272.5z" />
</svg>