<svg xmlns="http://www.w3.org/2000/svg" xmlns:xlink="http://www.w3.org/1999/xlink" version="1.1" viewBox="-10 0 2058 2048">
   <path fill="currentColor"
d="M288 1857h192v191h-192q-105 0 -180.5 -74.5t-75.5 -180.5v-1537q0 -106 75.5 -181t180.5 -75h662q106 0 182 75l362 362q74 75 74 181v598h-192v-576h-320q-52 0 -90 -38t-38 -90v-320h-640q-26 0 -45 19t-19 45v1537q0 26 19 45t45 19zM736 1408h128q93 0 158.5 65.5
t65.5 158.5t-65.5 159t-158.5 66h-64v127q0 26 -18.5 45t-45 19t-45.5 -19t-19 -45v-191v-321q0 -26 19 -45t45 -19zM864 1729q40 0 68 -28.5t28 -68.5t-28 -68t-68 -28h-64v193h64zM1248 1408h128q80 0 136 56.5t56 136.5v256q0 79 -56 135t-136 56h-128q-27 0 -45.5 -19
t-18.5 -45v-512q0 -26 18.5 -45t45.5 -19zM1376 1920q27 0 45.5 -18.5t18.5 -44.5v-256q0 -26 -18.5 -45.5t-45.5 -19.5h-64v384h64zM1696 1472q0 -26 18.5 -45t45.5 -19h192q26 0 45 19t19 45t-19 45t-45 19h-128v129h128q26 0 45 19t19 45t-19 45t-45 19h-128v191
q0 26 -19 45t-45.5 19t-45 -19t-18.5 -45v-255v-257z" />
</svg>