<svg xmlns="http://www.w3.org/2000/svg" xmlns:xlink="http://www.w3.org/1999/xlink" version="1.1" viewBox="-10 0 2068 2048">
   <path fill="currentColor"
d="M2048 589l-132 33l-10 55l94 86l-46 91l-132 -39l-36 37l40 127l-92 56l-96 -99l-54 16l-30 131l-104 -1l-28 -130l-54 -14l-90 93l-90 -52l38 -123l-34 -39l-134 34l-48 -85l90 -91l-10 -55l-132 -34l2 -99l130 -36l14 -47l-94 -97l50 -87l130 34l36 -39l-36 -126
l88 -49l90 95l56 -15l28 -120h102l34 120l48 15l98 -95l88 52l-36 128l34 35l132 -35l48 89l-92 96l10 47l130 39v98zM1502.5 796q107.5 0 183.5 -76t76 -184t-75.5 -183.5t-184 -75.5t-183.5 75.5t-75 183.5t75.5 184t183 76zM1834 872l214 65v182l-252 62l-18 104l176 161
l-88 174l-246 -77l-66 69l76 240l-176 104l-176 -184l-100 30l-58 246l-194 -3l-56 -243l-100 -26l-166 175l-172 -99l70 -231l-62 -73l-254 64l-90 -160l174 -171l-24 -104l-246 -64l2 -187l244 -67l26 -90l-176 -181l94 -163l244 64l70 -72l-70 -238l168 -94l168 180
l104 -27l52 -238h194l52 209l-102 -27l-28 -7l-16 26l-50 87l-16 25l22 21l78 81l-2 3l-108 30l-28 9v28l-2 60q-164 36 -272 168.5t-108 304.5q0 98 38.5 187.5t103 154t153.5 103t187 38.5q172 0 304 -107t168 -271h60l32 1l8 -31l26 -110l8 -2l78 81l20 23l28 -16l94 -55
l24 -16l-8 -30z" />
</svg>