<svg xmlns="http://www.w3.org/2000/svg" xmlns:xlink="http://www.w3.org/1999/xlink" version="1.1" viewBox="-10 0 2068 2048">
   <path fill="currentColor"
d="M700 228q25 26 24 63t-27 63l-520 494l520 495q26 25 27 61.5t-24 63.5q-26 26 -62 27t-62 -24l-521 -495q-55 -53 -55 -128.5t55 -127.5l521 -495q26 -26 62 -25t62 28zM1225 319v235h176q131 0 251 51t206.5 138t138 206.5t51.5 251.5q0 85 -17 164t-43.5 138
t-63 112.5t-70.5 89t-71.5 66t-60 45t-42.5 25.5q-13 7 -30 7q-30 0 -51.5 -21.5t-21.5 -51.5q0 -37 36 -71q82 -75 82 -209q0 -96 -47.5 -177.5t-128.5 -128.5t-177 -47h-117v235q0 35 -19 64t-51 43.5t-66 9t-60 -28.5l-588 -530q-39 -36 -39 -87t39 -87l588 -530
q26 -24 60 -29t66 9t51 43t19 65z" />
</svg>