<svg xmlns="http://www.w3.org/2000/svg" xmlns:xlink="http://www.w3.org/1999/xlink" version="1.1" viewBox="-10 0 2068 2048">
   <path fill="currentColor"
d="M1820 398h-1592q-24 0 -41 16.5t-17 39.5v1138q0 24 17 41t41 17h1592q23 0 40.5 -17t17.5 -41v-1138q0 -23 -17.5 -39.5t-40.5 -16.5zM228 228h1592q93 0 160.5 66.5t67.5 159.5v1138q0 94 -67.5 161t-160.5 67h-1592q-94 0 -161 -67t-67 -161v-1138q0 -93 67 -159.5
t161 -66.5zM739.5 1024q-93.5 0 -160.5 -67t-67 -160.5t67 -161t160.5 -67.5t160 67.5t66.5 161t-66.5 160.5t-160 67zM626 1138h228q117 0 200.5 83t83.5 201q0 23 -17 39.5t-41 16.5h-682q-23 0 -39.5 -16.5t-16.5 -39.5q0 -118 83.5 -201t200.5 -83zM1336 626h286
q35 0 59.5 24.5t24.5 60t-24.5 60.5t-59.5 25h-286q-35 0 -59.5 -25t-24.5 -60.5t24.5 -60t59.5 -24.5zM1336 968h286q35 0 59.5 24t24.5 59.5t-24.5 61t-59.5 25.5h-286q-35 0 -59.5 -25.5t-24.5 -61t24.5 -59.5t59.5 -24z" />
</svg>