<svg xmlns="http://www.w3.org/2000/svg" xmlns:xlink="http://www.w3.org/1999/xlink" version="1.1" viewBox="-10 0 2067 2048">
   <path fill="currentColor"
d="M417 1741h-6v-308h716l-342 205q-171 103 -368 103zM1127 614h-716v-307h6q199 0 368 102zM308 614h26q61 0 114.5 27t89.5 75h922q175 0 322.5 63.5t249.5 198.5q15 20 15 46t-15 46q-102 135 -249 198t-323 63h-922q-36 48 -89.5 75t-114.5 27h-26v308h-51
q-64 0 -109 -45t-45 -109v-154h26q-54 0 -91 -37t-37 -90v-51v-462v-51q0 -53 37 -90.5t91 -37.5h-26v-153q0 -64 45 -109t109 -45h51v307zM1638 984q0 -47 -33.5 -80t-79.5 -33q-14 0 -14 13v280q0 13 14 13q47 0 80 -33t33 -80v-80z" />
</svg>