<svg xmlns="http://www.w3.org/2000/svg" xmlns:xlink="http://www.w3.org/1999/xlink" version="1.1" viewBox="-10 0 2069 2048">
   <path fill="currentColor"
d="M1939 108q71 71 96.5 166.5t0 191t-96.5 166.5l-663 664l-523 -524l465 -466l-52 -52q-28 -28 -68 -28t-68 28l-347 346q-28 28 -69 28t-69.5 -28t-28.5 -68t29 -69l347 -347q84 -85 204.5 -85t205.5 85l54 52l60 -60q53 -53 122 -80.5t139 -27.5t139 27.5t123 80.5z
M1185 1388l-259 258q-145 145 -326.5 242t-381.5 137l-100 21q-50 11 -88 -28q-38 -38 -27 -87l21 -100q39 -201 136 -382.5t242 -326.5l259 -258z" />
</svg>