<svg xmlns="http://www.w3.org/2000/svg" xmlns:xlink="http://www.w3.org/1999/xlink" version="1.1" viewBox="-10 0 2058 2048">
   <path fill="currentColor"
d="M256.5 0q52.5 0 90 38t37.5 90v64l276 -69q115 -28 232 -15.5t222 65.5q139 70 294.5 70t293.5 -70l40 -19q30 -16 62 -12.5t57.5 18.5t42 43t16.5 62v144l-178 65q-129 47 -265.5 42t-262.5 -61l-64 -29q-119 -53 -254 -67v129q112 15 202 55l64 29q148 66 309.5 71.5
t314.5 -49.5l134 -49v249l-178 65q-129 47 -265.5 42t-262.5 -61l-64 -29q-119 -54 -251 -67.5t-261 14.5l-254 55v130l282 -60q225 -48 432 45l64 29q148 66 309.5 71.5t314.5 -49.5l134 -50v248l-178 65q-129 47 -265.5 42.5t-262.5 -60.5l-64 -28q-120 -54 -251 -68.5
t-261 13.5l-254 56v131l282 -61q223 -48 432 46l64 28q148 66 309.5 71.5t314.5 -50.5l134 -48v133q0 40 -23 73.5t-61 46.5l-138 52q-139 52 -286.5 44.5t-279.5 -73.5q-114 -57 -240.5 -71t-249.5 17l-258 65v319q0 52 -37.5 90t-90 38t-90.5 -38t-38 -90v-255v-283v-130
v-254v-131v-253v-130v-228v-128q0 -52 38 -90t90.5 -38zM576 384q0 -27 -18.5 -45.5t-45.5 -18.5t-45.5 18.5t-18.5 45.5t18.5 45.5t45.5 18.5t45.5 -18.5t18.5 -45.5zM705 384q27 0 45 -18.5t18 -45.5t-18 -45.5t-45 -18.5t-46 18.5t-19 45.5t19 45.5t46 18.5zM576 576
q0 -27 -18.5 -45.5t-45.5 -18.5t-45.5 18.5t-18.5 45.5t18.5 45.5t45.5 18.5t45.5 -18.5t18.5 -45.5zM705 576q27 0 45 -18.5t18 -45.5t-18 -45.5t-45 -18.5t-46 18.5t-19 45.5t19 45.5t46 18.5z" />
</svg>