<svg xmlns="http://www.w3.org/2000/svg" xmlns:xlink="http://www.w3.org/1999/xlink" version="1.1" viewBox="-10 0 2068 2048">
   <path fill="currentColor"
d="M578 854q-2 32 6.5 58.5t18 43t10.5 23.5q-2 14 -13 21l-41 28q-10 6 -18 6h-1q-28 2 -65 -82q-36 44 -87 69.5t-109 25.5h-4q-18 1 -40.5 -3t-49.5 -16.5t-49 -32t-35.5 -53t-11.5 -76.5q-3 -59 29.5 -104.5t85 -67.5t112.5 -19q64 0 150 20v-51q7 -65 -33 -106
t-110 -34q-67 0 -147 32q-23 10 -34 10t-13.5 -18t-0.5 -36t5 -24q14 -18 78.5 -38.5t131.5 -19.5q7 -1 23 -1q88 0 156 56q57 63 57 150q0 11 -1 17v222zM302 958q36 -1 66 -11t48 -26t28 -31t15 -30q7 -28 7 -87q-62 -16 -126 -16q-21 -1 -43 3.5t-44 15t-35.5 32.5
t-12.5 52q-3 42 24.5 71t72.5 27zM848 1032q-18 2 -28.5 -8t-12.5 -25l-159 -527q-5 -14 -6 -28v-2q0 -12 13 -14h71q32 -3 40 33l114 450l106 -450q1 -7 4.5 -14t13.5 -13.5t24 -5.5h54q6 -1 13 0t16 9t12 24l106 456l118 -456q10 -36 41 -33h63q5 0 8 0.5t6.5 7t2.5 19.5
q-1 1 -1 2q-19 62 -167 542q-3 15 -13.5 25t-27.5 8h-60q-7 1 -12.5 -0.5t-9 -3.5t-7 -5t-5.5 -6t-3.5 -6.5t-2 -5.5t-1 -4.5l-0.5 -2.5l-105 -439l-105 438l-1 2.5t-1.5 5t-2 6t-3.5 6.5t-5 6t-7 5t-9.5 3.5t-11.5 0.5h-59zM1723 1050q-105 0 -184 -40q-25 -10 -25 -37v-1
v-34q0 -29 29 -19q56 23 92 30q114 23 182 -13q30 -18 34 -54.5t-18 -57.5q-7 -5 -13 -9.5t-11 -7.5t-14 -7t-15 -6.5t-20.5 -7t-24 -7.5t-32.5 -10.5t-40 -12.5q-9 -2 -21 -6.5t-34.5 -18t-40 -31t-31 -47t-13.5 -64.5q-2 -72 59.5 -126t163.5 -53q42 0 99.5 13t77.5 37
q6 11 6 22v32q0 22 -15 22q-7 -1 -29.5 -10.5t-55.5 -17.5t-72 -7q-13 -1 -30 1.5t-40.5 9t-39 24.5t-13.5 45q-2 58 95 87q18 6 51 15.5t44 13t31.5 11.5t29.5 14t21.5 16.5t24.5 23.5q19 25 26.5 54t4.5 54t-7.5 41.5t-9.5 28.5q-17 33 -45.5 56t-54.5 33.5t-56.5 15.5
t-42.5 5h-23zM1851 1385q-163 121 -387 187t-439 66q-2 0 -5.5 0.5t-4.5 0.5q-285 0 -543.5 -101.5t-461.5 -284.5q-16 -14 -6 -28t29 -3q227 130 482.5 199t527.5 69l1.5 0.5t2.5 0.5q408 -3 772 -158q18 -8 33 0t15 22.5t-16 29.5zM1945 1279q-30 -38 -262 -9
q-17 2 -19 -9t13 -21q45 -32 106.5 -47.5t114 -15t92.5 8.5t50 20q7 9 7.5 37t-7.5 67.5t-23 81.5t-42 84.5t-61 71.5q-14 12 -24 7t-4 -21q11 -29 15.5 -41t17 -46t18 -53.5t11.5 -45.5t5 -43t-8 -26z" />
</svg>