<svg xmlns="http://www.w3.org/2000/svg" xmlns:xlink="http://www.w3.org/1999/xlink" version="1.1" viewBox="-10 0 2068 2048">
   <path fill="currentColor"
d="M1664 1011q-70 0 -134 26q-29 -176 -165.5 -293t-314.5 -117q-159 0 -282 92q-126 93 -174 238l-12 -17q-10 -12 -14 -20q-62 -100 -62 -226q0 -90 38 -180q35 -79 108 -150q29 -25 12 -63q-12 -33 -50 -29q-133 10 -242 54q-108 54 -192 138q-88 98 -130 201
q-50 114 -50 242q0 129 50 247q58 123 138 204q2 1 16 13q2 2 5.5 5t5 4.5t3.5 2.5q-88 5 -152 69q-66 65 -66 153q0 171 226 171h1438q159 0 270 -110q114 -111 114 -270t-113 -272t-271 -113zM568 1129h-16q-88 0 -156 52q-69 53 -94 131q-26 -16 -38 -29
q-67 -66 -114 -167q-40 -93 -40 -209q0 -186 104 -318q104 -142 272 -192q-84 143 -84 297q0 150 70 280q44 73 96 121l-4 4v13v8q4 4 4 9z" />
</svg>