<svg xmlns="http://www.w3.org/2000/svg" xmlns:xlink="http://www.w3.org/1999/xlink" version="1.1" viewBox="-10 0 2067 2048">
   <path fill="currentColor"
d="M2047 967l-10 90l-110 8l-7 58l111 -8l-11 90l-110 7l-7 65l110 -8l-10 84l-206 13l40 -362l-151 369l-102 6l-77 -377l97 -6l44 254l101 -263zM1365 1393l41 -384l91 -6l-42 385zM518 1447l-61 -115l-12 119l-91 5l9 -92q-29 46 -77 78t-105 36q-81 4 -134 -47.5
t-46 -138.5q5 -49 30.5 -94t74.5 -78.5t111 -37.5q29 -2 53.5 3t40 13t29.5 21t20 21t13.5 21.5l7.5 13.5l9 -99l125 -8q121 -8 136 76l7 -85l208 -13l-8 89l-117 7l-6 58l117 -8l-9 89l-116 8l-6 63l116 -6l-7 65l176 -374l76 -5l103 353l28 -273l-71 4l9 -89l240 -16
l-9 89l-78 5l-31 295l-186 11l-14 -49l-125 8l-26 52zM377 1222l-85 6q-16 -30 -35.5 -41.5t-48.5 -9.5q-44 2 -75.5 34.5t-35.5 71.5q-3 42 21 72.5t71 27.5q53 -4 93 -60l86 -6zM556 1197q2 -29 -16 -36t-68 -4l-9 91q18 -1 27.5 -2t23.5 -4.5t21.5 -8.5t13.5 -14t7 -22z
M624 1424l18 -192q-21 57 -89 85zM1057 1280l-26 -121l-50 126zM513 1041l-14 -56l-127 9l-25 58l-103 7l182 -390l76 -6l99 326l31 -334l87 -6l121 203l21 -213l91 -6l-13 132q12 -21 18.5 -32.5t26 -36.5t39 -39.5t51.5 -28t69 -15.5q27 -2 50.5 2t40 12.5t30 18.5
t22.5 21.5t15 20.5t9 15.5l3 6.5l11 -103l125 -8q83 -6 116 31l-13 -39l103 -6l41 138l74 -146l99 -7l-140 250l-16 142l-90 7l15 -143l-50 -137q5 115 -102 159l80 124l-117 8l-61 -118l-12 122l-91 6l10 -100q-1 1 -12.5 17.5t-18.5 25t-24 24.5t-34 25.5t-43.5 18
t-57.5 10.5q-133 8 -178 -125l-12 129l-81 5l-120 -202l-20 211zM1397 779q53 -5 70 -14q21 -11 24 -39q3 -25 -11 -33q-17 -11 -73 -7zM1048 890q27 28 69 25q19 -1 42 -13q25 -14 48 -46l-109 7l7 -76l202 -14l4 -38l-100 6q-20 -19 -35 -26q-21 -9 -39 -7q-39 3 -71 29
q-36 32 -41 78q-4 46 23 75zM405 916l76 -6l-27 -120z" />
</svg>