<svg xmlns="http://www.w3.org/2000/svg" xmlns:xlink="http://www.w3.org/1999/xlink" version="1.1" viewBox="-10 0 2068 2048">
   <path fill="currentColor"
d="M198.5 561q-82.5 0 -140.5 -57.5t-58 -140.5t58 -140.5t140.5 -57.5t141 58t58.5 140t-58.5 140t-141 58zM728 231h1188q54 0 93 38.5t39 93.5t-39 93.5t-93 38.5h-1188q-55 0 -93.5 -38.5t-38.5 -93.5t38.5 -93.5t93.5 -38.5zM728 892h1188q54 0 93 38.5t39 93.5
t-39 93.5t-93 38.5h-1188q-55 0 -93.5 -38.5t-38.5 -93.5t38.5 -93.5t93.5 -38.5zM728 1552h1188q54 0 93 39t39 94t-39 93.5t-93 38.5h-1188q-55 0 -93.5 -38.5t-38.5 -93.5t38.5 -94t93.5 -39zM198.5 1883q-82.5 0 -140.5 -57.5t-58 -140.5t58 -141t140.5 -58t141 58
t58.5 140.5t-58.5 140.5t-141 58zM398 1024q0 82 -58.5 140t-141 58t-140.5 -58t-58 -140t58 -140t140.5 -58t141 58t58.5 140z" />
</svg>