<svg xmlns="http://www.w3.org/2000/svg" xmlns:xlink="http://www.w3.org/1999/xlink" version="1.1" viewBox="-10 0 2068 2048">
   <path fill="currentColor"
d="M1716 1569q0 18 -11 30t-29 12q-17 0 -28.5 -12t-11.5 -30t11.5 -30t28.5 -12q18 0 29 12.5t11 29.5zM612 1527q17 0 28.5 12.5t11.5 29.5q0 18 -11.5 30t-28.5 12q-19 0 -29.5 -12t-10.5 -30t10.5 -30t29.5 -12zM1030 1526q29 0 34 31h-68q5 -31 34 -31zM1412.5 1527
q17.5 0 28.5 12t11 30t-11 30t-29 12q-17 0 -27.5 -12t-10.5 -30t10.5 -30t28 -12zM1788 1620l1 1.5t1 2.5l-1 1.5t-1 2.5l-0.5 1t-1.5 2q-2 2 -4 2q0 1 -4 1l-2 -1q-2 0 -4 -2v-3l-2 -4q0 -2 2 -4v-4q1 0 2 -1t2 -1h2h4l4 2zM1780 1625q2 0 3 -1h1v-3v-3q-1 0 -2 -0.5
t-2 -0.5h-6v13h4v-5l4 5h2zM2048 398v1251q0 71 -50 121.5t-120 50.5h-1708q-70 0 -120 -50.5t-50 -121.5v-1251q0 -71 50 -121t120 -50h1708q70 0 120 50t50 121zM228 894q0 100 39 191.5t105 157.5t157.5 105t190.5 39q146 0 272 -83q-95 -77 -145 -187t-49.5 -222.5
t50 -222.5t144.5 -187q-124 -82 -272 -82q-99 0 -190.5 39t-157.5 104.5t-105 156.5t-39 191zM1024 1281q91 -71 139 -175.5t48 -211t-48 -210.5t-139 -176q-92 72 -140 176t-48 210.5t48 211t140 175.5zM518 1553q0 -23 -14 -37.5t-38 -15.5q-30 0 -46 23q-14 -23 -44 -23
q-22 0 -36 19v-15h-30v131h30q0 -9 -0.5 -21t-0.5 -19.5v-17t0.5 -15t2 -12t4 -10.5t6 -7t8.5 -4.5t12 -1.5q6 0 10.5 1t7.5 4.5t5.5 7t3.5 9.5t1.5 11.5t0.5 15v17t-0.5 20t-0.5 22.5h28v-26v-24t0.5 -19.5t2.5 -17t5.5 -11.5t9.5 -8t14 -2q7 0 11.5 1t7.5 4.5t5.5 6.5
t3.5 9.5t1.5 12t0.5 15v17v20v22.5h30v-82h-2zM678 1504h-28v15q-15 -19 -42 -19q-28 0 -46 20t-18 49t18 49t45.5 20t42.5 -20v17h28v-131zM822 1595q0 -18 -13 -27.5t-28 -10.5t-28 -5t-13 -12q0 -14 24.5 -14.5t41.5 10.5l12 -23q-18 -11 -43 -13.5t-45 9t-20 34.5
q0 17 13 26t28 10.5t28 5t13 11.5q0 16 -27 16t-47 -13l-12 22q19 14 46.5 16.5t48.5 -8.5t21 -34zM948 1628l-8 -24q-10 9 -27 7t-17 -22v-59h46v-26h-46v-40h-28v40h-28v26h28v59q0 22 9.5 34.5t23 14t26.5 -1.5t21 -8zM994 1580h98q0 -80 -62 -80q-28 0 -46 19t-18 49
q0 34 22 53t50.5 17.5t47.5 -19.5l-14 -22q-20 19 -46 15t-32 -32zM1204 1504q-11 -7 -28 -3.5t-26 18.5v-15h-28v131h28v-74q0 -19 9.5 -27t19 -7.5t17.5 4.5zM1242 1569q0 -30 25 -39t49 9l14 -23q-16 -12 -36 -15t-38 3.5t-30 23.5t-12 41q0 25 12.5 42t31 22.5t38.5 3
t34 -14.5l-14 -23q-24 18 -49 8.5t-25 -38.5zM1480 1504h-30v15q-11 -14 -29.5 -17.5t-35.5 3t-29 23.5t-12 41q0 32 20.5 51t46 18t39.5 -20v17h30v-131zM1600 1504q-7 -3 -15.5 -4t-20.5 3t-18 16v-15h-28v131h28v-74q0 -18 8.5 -26.5t18.5 -7.5t17 4zM1742 1451h-28v68
q-14 -19 -39.5 -19.5t-46 18.5t-20.5 51t21 51.5t47 18t38 -20.5v17h28v-184zM1770 1184v16h2v-16h6v-3h-16v3h8zM1792 1624v-6q-1 0 -2 -2t-1.5 -2t-2 -1t-2.5 -1h-2q-2 -1 -4 -1l-1 0.5t-3 0.5l-4 2q-2 2 -2 4q-2 2 -2 6q0 3 2 5q0 3 2 4q2 2 4 3t4 1q4 0 6 -1q1 0 2.5 -1
t2 -2t1.5 -2l2 -2v-5zM1804 1180h-4l-6 13l-6 -13h-6v19h4v-14l6 13h4l4 -13v14h4v-19zM1820 894q0 -100 -39.5 -191t-105.5 -157t-157 -105t-190 -39q-146 0 -272 83q94 77 144 187.5t50.5 222.5t-49 222t-145.5 187q124 82 272 82q99 0 190 -39t157 -105t105.5 -157
t39.5 -191z" />
</svg>