<svg xmlns="http://www.w3.org/2000/svg" xmlns:xlink="http://www.w3.org/1999/xlink" version="1.1" viewBox="-10 0 2068 2048">
   <path fill="currentColor"
d="M1856 1024q0 -113 -30 -221t-83.5 -199t-130.5 -168t-168 -130.5t-199 -83.5t-221 -30t-220.5 30t-199 83.5t-168 130.5t-130.5 168t-84 199t-30 221t30 221t84 199t130.5 168t168 131t199.5 84t220.5 30t220.5 -30t199 -84t168 -131t130.5 -168t83.5 -199t30 -221z
M0 1024q0 -139 37 -272t103 -245.5t160.5 -207t207 -160t245 -102.5t272 -37t272 37t244.5 102.5t206.5 160t160.5 207t103 245.5t37 272t-37 272t-103 245.5t-160.5 207t-206.5 160t-244.5 102.5t-272 37t-272 -37t-245 -102.5t-207 -160t-160.5 -207t-103 -245.5t-37 -272
zM524 1256q-13 -40 14.5 -72t69.5 -32h850q43 0 70 32t14 72q-50 165 -190.5 270.5t-318.5 105.5t-318.5 -105t-190.5 -271zM534 523l360 191q33 17 33 54t-33 54l-360 191q-23 13 -46.5 -1t-23.5 -41q0 -18 12 -30l144 -173l-144 -173q-12 -12 -12 -30q0 -27 23.5 -41
t46.5 -1zM1584 565q0 19 -10 30l-144 173l144 173q10 11 10 30q0 27 -23 41t-47 1l-358 -191q-33 -17 -33 -54t33 -54l358 -191q24 -13 47 1t23 41z" />
</svg>