<svg xmlns="http://www.w3.org/2000/svg" xmlns:xlink="http://www.w3.org/1999/xlink" version="1.1" viewBox="-10 0 2068 2048">
   <path fill="currentColor"
d="M2015 147q33 33 33 81t-34 81l-682 683l124 123q24 24 24 57t-24 56.5t-58 23.5h-102l-386 -386v-103q0 -33 24 -57t58 -24q32 0 56 24l124 124l682 -683q32 -33 80 -33t81 33zM792 949l420 421q10 114 -29 222.5t-121 189.5q-72 73 -167.5 112.5t-198.5 39.5h-616
q-33 0 -56.5 -23.5t-23.5 -55.5q0 -33 26 -57l450 -405q12 -10 2.5 -22.5t-22.5 -5.5l-182 91q-16 8 -31 -1.5t-15 -27.5q0 -84 32 -162t92 -137l28 -29q81 -81 189 -120.5t223 -29.5zM1649.5 1365q117.5 0 201 83.5t83.5 201.5t-83.5 201t-201 83t-200.5 -83t-83 -201
t83 -201.5t200.5 -83.5z" />
</svg>