<svg xmlns="http://www.w3.org/2000/svg" xmlns:xlink="http://www.w3.org/1999/xlink" version="1.1" viewBox="-10 0 2068 2048">
   <path fill="currentColor"
d="M1860 186q78 0 133 54.5t55 131.5v1304q0 77 -54.5 131.5t-131.5 54.5h-652v-186h650v-1304h-1674v280h-186v-280q0 -77 54.5 -131.5t131.5 -54.5h1674zM0 1580q116 0 198 82t82 198h-280v-280zM0 1210q133 0 253.5 51.5t207.5 139t139 208t52 253.5h-186q0 -95 -37 -181
t-99.5 -148.5t-148.5 -99.5t-181 -37v-186zM838 1862q0 -114 -30 -223t-84 -201t-131.5 -169.5t-169.5 -131.5t-200.5 -84.5t-222.5 -30.5v-184q140 1 272.5 37.5t244.5 102.5t206.5 160.5t160.5 206.5t103 244.5t37 272.5h-186z" />
</svg>