<svg xmlns="http://www.w3.org/2000/svg" xmlns:xlink="http://www.w3.org/1999/xlink" version="1.1" viewBox="-10 0 2068 2048">
   <path fill="currentColor"
d="M512 0h256q53 0 90.5 38t37.5 90v384h-512v-384q0 -52 38 -90t90 -38zM0 1024q0 -104 51.5 -192.5t139.5 -140t193 -51.5h512q105 0 193.5 51.5t139.5 140t51 192.5v833q0 79 -56.5 135t-135.5 56h-896q-79 0 -135.5 -56t-56.5 -135v-833zM960 1344q0 -133 -93.5 -226.5
t-226 -93.5t-226.5 93.5t-94 226.5q0 87 43 161t116.5 117t161 43t161 -43t116 -117t42.5 -161zM1024 256q0 -53 37.5 -90.5t90 -37.5t90.5 38t38 90t-38 90t-90.5 38t-90 -37.5t-37.5 -90.5zM1536.5 128q52.5 0 90 38t37.5 90t-37.5 90t-90 38t-90.5 -38t-38 -90t38 -90
t90.5 -38zM1792 256q0 -52 37.5 -90t90 -38t90.5 38t38 90t-38 90t-90.5 38t-90 -38t-37.5 -90zM1919.5 512q52.5 0 90.5 38t38 90.5t-38 90.5t-90.5 38t-90 -38t-37.5 -90.5t37.5 -90.5t90 -38zM1792 1024q0 -52 37.5 -90t90 -38t90.5 38t38 90t-38 90t-90.5 38t-90 -38
t-37.5 -90zM1536.5 512q52.5 0 90 38t37.5 90.5t-37.5 90.5t-90 38t-90.5 -38t-38 -90.5t38 -90.5t90.5 -38z" />
</svg>