<svg xmlns="http://www.w3.org/2000/svg" xmlns:xlink="http://www.w3.org/1999/xlink" version="1.1" viewBox="-10 0 2068 2048">
   <path fill="currentColor"
d="M1356 1786l26 102q11 45 40 78q-190 82 -398 82q-140 0 -272.5 -37t-244.5 -103t-206.5 -160.5t-160.5 -207t-103 -245t-37 -272t37 -272t103 -245t160.5 -206.5t206.5 -160t244.5 -103t272 -37t272 37t245 103t207 160t160.5 206.5t103 245t37 272.5q0 173 -58 334
q-72 -29 -144 -20q-13 -32 -30 -58q40 -124 40 -256q0 -114 -30 -221.5t-84 -199t-130.5 -168t-168 -130.5t-199 -83.5t-220.5 -29.5t-221 29.5t-199 83.5t-168 130.5t-130.5 168t-83.5 199t-30 221t30 221t83.5 199t130.5 168.5t168 130.5t199 83.5t221 30q169 0 332 -70z
M1184 1264q0 36 -30 74q-21 26 -66 52q-23 13 -34 18q21 8 34 16q43 26 66 54q30 38 30 74t-30 74q-21 26 -66 52q-92 50 -192 50q-10 0 -19 -6.5t-11 -17.5q-6 -24 14 -36v0v0q4 0 6 -2q0 -1 5 -4.5t7 -5.5q39 -28 42 -30q24 -21 38 -40t14 -34.5t-14 -35.5
q-16 -22 -38 -40q-3 -2 -42 -30q-2 -1 -7 -4.5l-5 -3.5q-2 -2 -6 -2v0v0q-16 -8 -16 -28t16 -28v0v0v0q4 0 6 -2q0 -1 5 -4.5t7 -5.5q39 -28 42 -30q24 -21 38 -40t14 -34t-14 -34q-18 -25 -38 -42q-3 -2 -42 -30q-10 -6 -12 -8t-6 -2v0v0q-20 -13 -14 -36q2 -11 11 -17.5
t19 -6.5q102 0 192 48q43 26 66 54q30 38 30 74zM705.5 960q-52.5 0 -90 -37.5t-37.5 -90t37.5 -90.5t90 -38t90.5 38t38 90.5t-38 90t-90.5 37.5zM1344 880h-2q-64 0 -102 38q-22 25 -55.5 26t-57 -21.5t-24.5 -55.5t21 -57q42 -45 99.5 -67.5t119 -22.5t119 22.5
t98.5 67.5q23 24 22 57t-24.5 55.5t-57 21.5t-56.5 -26q-35 -38 -100 -38zM1736 1408l20 86l82 -24q66 -18 125.5 18t77.5 105.5t-16.5 132.5t-100.5 82l-340 94q-26 8 -49.5 -5t-30.5 -39l-90 -358q-18 -70 16.5 -132.5t101 -81t126.5 17t78 104.5z" />
</svg>