<svg xmlns="http://www.w3.org/2000/svg" xmlns:xlink="http://www.w3.org/1999/xlink" version="1.1" viewBox="-10 0 2068 2048">
   <path fill="currentColor"
d="M122 930l-95 -169q-30 -49 -26 -107.5t44 -99.5q56 -59 123.5 -114.5t163 -113.5t198 -100.5t232 -69.5t262 -27t262 27t232.5 69.5t198 100.5t163 113.5t124 114.5q39 41 43.5 99.5t-24.5 107.5l-96 169q-23 41 -66.5 57.5t-89.5 2.5l-337 -110q-41 -13 -65.5 -48
t-24.5 -78v-228q-154 -56 -318.5 -56t-317.5 56v228q0 43 -25.5 77.5t-65.5 48.5l-337 110q-46 14 -90 -3t-67 -58v1zM96 1322q0 -27 20 -46.5t47 -19.5h132q27 0 46.5 19.5t19.5 46.5v132q0 27 -19.5 47t-46.5 20h-132q-27 0 -47 -20t-20 -47v-132zM96 1720q0 -27 20 -46.5
t47 -19.5h132q27 0 46.5 19.5t19.5 46.5v133q0 27 -19.5 46.5t-46.5 19.5h-132q-27 0 -47 -19.5t-20 -46.5v-133zM561 1256h132q27 0 46.5 19.5t19.5 46.5v132q0 27 -19.5 47t-46.5 20h-132q-27 0 -46.5 -20t-19.5 -47v-132q0 -27 19.5 -46.5t46.5 -19.5zM892 1322
q0 -27 19.5 -46.5t46.5 -19.5h132q27 0 46.5 19.5t19.5 46.5v132q0 27 -19.5 47t-46.5 20h-132q-27 0 -46.5 -20t-19.5 -47v-132zM1356 1256h132q27 0 47 19.5t20 46.5v132q0 27 -20 47t-47 20h-132q-27 0 -46.5 -20t-19.5 -47v-132q0 -27 19.5 -46.5t46.5 -19.5zM1687 1322
q0 -27 19.5 -46.5t46.5 -19.5h133q27 0 46.5 19.5t19.5 46.5v132q0 27 -19.5 47t-46.5 20h-133q-27 0 -46.5 -20t-19.5 -47v-132zM1753 1654h133q27 0 46.5 19.5t19.5 46.5v133q0 27 -19.5 46.5t-46.5 19.5h-133q-27 0 -46.5 -19.5t-19.5 -46.5v-133q0 -27 19.5 -46.5
t46.5 -19.5zM495 1720q0 -27 19.5 -46.5t46.5 -19.5h927q27 0 47 19.5t20 46.5v133q0 27 -20 46.5t-47 19.5h-927q-27 0 -46.5 -19.5t-19.5 -46.5v-133z" />
</svg>