<svg xmlns="http://www.w3.org/2000/svg" xmlns:xlink="http://www.w3.org/1999/xlink" version="1.1" viewBox="-10 0 2068 2048">
   <path fill="currentColor"
d="M0 514q0 -63 55.5 -99t118.5 -19q59 16 123 23.5t117.5 9.5t124.5 -5.5t118 -14t125 -23.5t118 -27l124 -31q87 -22 133.5 -33.5t129.5 -29t136 -24t129.5 -12t136 0t129 19t134.5 37.5q44 16 70 57t26 90v1101q0 63 -55.5 99.5t-118.5 19.5q-59 -16 -122.5 -24
t-118 -9.5t-125 5.5t-118.5 14t-124.5 23.5t-118.5 26.5t-123 31q-89 23 -134.5 34t-129 28.5t-136 24t-129 12t-136 0t-129 -19t-134.5 -37.5q-44 -16 -70 -56.5t-26 -89.5v-1102zM456 1593q0 -94 -67.5 -161t-160.5 -67v228h228zM228 911q93 0 160.5 -67t67.5 -161h-228
v228zM1592 1365h228v-227q-94 0 -161 66.5t-67 160.5zM1820 683v-228h-228q0 94 67 161t161 67zM1366 1024q0 -108 -46 -200t-125 -145t-171.5 -53t-171.5 53t-124.5 145t-45.5 200t45.5 200t124.5 145t171.5 53t171.5 -53t125 -145t46 -200zM896 854q0 -29 20.5 -50
t49.5 -21h58q29 0 49.5 21t20.5 50v242h16q29 0 49.5 21t20.5 50t-20.5 49.5t-49.5 20.5h-86h-86q-29 0 -49.5 -20.5t-20.5 -49.5t20.5 -50t49.5 -21h16v-173q-26 -5 -42 -24t-16 -45z" />
</svg>