<svg xmlns="http://www.w3.org/2000/svg" xmlns:xlink="http://www.w3.org/1999/xlink" version="1.1" viewBox="-10 0 2058 2048">
   <path fill="currentColor"
d="M1099 0q180 0 325.5 29.5t247.5 83.5t170.5 131.5t100.5 171.5t32 206v1355q0 36 -22 42q-12 3 -305 3q-48 0 -156 -3t-117 -6q-13 -3 -21 -16.5t-8 -25.5v-116q-144 78 -344 135.5t-356 57.5q-103 0 -189.5 -22t-143.5 -57t-102 -82t-70 -92t-40.5 -92t-20.5 -78t-5 -53
q0 -5 -1 -42.5t-1 -63t2.5 -72.5t7.5 -82t15.5 -78.5t25 -74t37.5 -58t53 -40.5q103 -44 449.5 -110.5t664.5 -107.5v-177q0 -54 -1 -83.5t-6.5 -71t-15.5 -63t-29.5 -47.5t-48 -38.5t-70.5 -21t-98 -8.5q-179 0 -376 66.5t-321 151.5q-15 10 -32.5 11.5t-34 -8.5t-25.5 -32
q-7 -16 -13.5 -37t-12 -44t-9 -40.5t-7.5 -37t-4 -21.5q-13 -63 32 -89q173 -126 395.5 -189.5t447.5 -63.5zM1328 1591v-488q-147 14 -303 58.5t-244 93.5q-21 10 -36 24.5t-24 35t-14.5 37t-7.5 43t-3 38.5t0 37.5t1 27.5q0 20 4 41.5t21 52t44.5 54t79 40t120.5 16.5
q183 0 362 -111z" />
</svg>