<svg xmlns="http://www.w3.org/2000/svg" xmlns:xlink="http://www.w3.org/1999/xlink" version="1.1" viewBox="-10 0 2068 2048">
   <path fill="currentColor"
d="M710 253l42 69q16 31 16 64v166q0 24 18 41q18 19 44.5 17.5t43.5 -21.5l54 -69q13 -18 35.5 -23t42.5 6l62 30q22 11 42 11q42 0 72 -29l14 -15q21 -21 44 -8l116 59q24 11 38 33.5t14 48.5q0 31 -19.5 56t-50.5 33l-142 35q-42 12 -88 -4l-128 -43q-20 -6 -42 -6
q-42 0 -78 26l-156 118q-30 23 -47 57t-17 72v111q0 80 56.5 136t135.5 56h128q27 0 45.5 19t18.5 45v192q0 53 37.5 91t90.5 38q30 0 57.5 -13.5t44.5 -38.5l102 -137q52 -67 52 -153v-48q0 -12 7.5 -21.5t18.5 -11.5l22 -5q35 -9 57.5 -38t22.5 -66q0 -42 -32 -76
l-134 -135q-11 -11 -11 -26.5t11 -26.5q18 -17 42 -22.5t46 2.5l56 18q37 12 73 -3t53 -49q11 -21 32.5 -31t43.5 -5l110 22q-37 -131 -113.5 -243.5t-180.5 -193t-235.5 -126.5t-272.5 -46q-163 0 -314 61zM0 1024q0 -139 37 -272t103 -245.5t160.5 -207t207 -160
t245 -102.5t272 -37t272 37t244.5 102.5t206.5 160t160.5 207t103 245.5t37 272t-37 272t-103 245.5t-160.5 207t-206.5 160t-244.5 102.5t-272 37t-272 -37t-245 -102.5t-207 -160t-160.5 -207t-103 -245.5t-37 -272z" />
</svg>