<svg xmlns="http://www.w3.org/2000/svg" xmlns:xlink="http://www.w3.org/1999/xlink" version="1.1" viewBox="-10 0 2058 2048">
   <path fill="currentColor"
d="M473 22q13 -22 38 -22q26 0 39 22l99 168q23 40 23 87v10q0 67 -47 114t-114 47t-113 -47t-46 -114v-10q0 -47 23 -87zM986 22q13 -22 38 -22q26 0 39 22l97 168q24 42 24 87v10q0 67 -46.5 114t-113.5 47t-114 -47t-47 -114v-10q0 -45 24 -87zM1398 190l99 -168
q13 -22 39 -22q25 0 38 22l98 168q23 40 23 87v10q0 67 -46 114t-113 47t-113.5 -47t-46.5 -114v-10q0 -49 22 -87zM640 704v192h256v-192q0 -52 38 -90t90 -38t90 38t38 90v192h256v-192q0 -52 38 -90t90 -38q53 0 91 38t38 90v192q106 0 180.5 75t74.5 181v284
q-58 36 -114 36q-74 0 -154 -53q-31 -20 -52 -39q-12 -10 -14 -12l-3 -3v-2v0q-18 -18 -48 -18q-28 0 -47 22h-1l-2 2l-13 13q-16 16 -46 38q-76 52 -146 52q-69 0 -145 -52q-34 -25 -47 -38q-3 -3 -7 -7.5t-5 -5.5l-4 -2q-19 -22 -48 -22t-48 22l-3 2q-1 1 -5 5.5t-7 7.5
q-10 10 -48 38q-76 52 -145 52t-145 -52q-34 -25 -47 -38l-13 -13l-2 -2h-1v0q-20 -22 -46 -22q-31 0 -48 18v0v0v2l-3 3q-2 2 -14 12q-21 19 -52 39q-80 53 -154 53q-57 0 -115 -36v-284q0 -106 75 -181t181 -75v-192q0 -53 37.5 -90.5t89.5 -37.5q53 0 91 38t38 90z
M1919 1579v341q0 53 -37.5 90.5t-89.5 37.5h-1536q-52 0 -90 -38t-38 -90v-341q58 22 115 22q108 0 224 -75q33 -23 43 -31q16 13 39 30q108 76 219 76q110 0 218 -76q20 -14 38 -29q18 15 38 29q108 76 217 76t219 -76q26 -17 40 -30q10 8 43 31q114 75 224 75
q56 0 114 -22z" />
</svg>