<svg xmlns="http://www.w3.org/2000/svg" xmlns:xlink="http://www.w3.org/1999/xlink" version="1.1" viewBox="-10 0 2058 2048">
   <path fill="currentColor"
d="M1064 66q100 11 162 87.5t52 176.5l-22 212h8q70 0 128.5 37t88.5 99q43 -16 84 -16q100 0 170.5 71t70.5 171v121v60v271q0 129 -50 246t-134.5 201.5t-201.5 134.5t-246 50h-180q-129 0 -246.5 -50t-202 -134.5t-134.5 -201.5t-50 -246v-91q0 -127 93 -217l-198 -565
q-33 -94 9.5 -184.5t136.5 -123.5t184.5 10.5t123.5 137.5l64 185l25 -228q10 -100 87.5 -162.5t177.5 -51.5zM1063 651l36 -339q3 -25 -12.5 -44.5t-40.5 -22.5t-45 13t-22 41l-64 607l20 58h28q33 0 60 7v-7v-180q0 -72 40 -133zM539 383q-8 -24 -30.5 -35t-46.5 -3
t-34 31t-2 47l191 544q21 -3 45 -3h82zM1204 784v180q0 25 17.5 43t42.5 18t43 -18t18 -43v-60v-120q0 -25 -18 -43t-43 -18t-42.5 18t-17.5 43zM1348 1190q-41 15 -84 15q-34 0 -60 -7v7q0 100 -70.5 170.5t-170.5 70.5h-151q-38 0 -64 -26t-26 -64t26 -64.5t64 -26.5h151
q25 0 42.5 -17.5t17.5 -42.5t-17.5 -42.5t-42.5 -17.5h-301q-50 0 -85 35.5t-35 84.5v91q0 92 35.5 176t96 144.5t144.5 96t176 35.5h180q92 0 175.5 -35.5t144 -96t96.5 -144.5t36 -176v-38q-27 7 -61 7q-71 0 -129.5 -37t-87.5 -98zM1626 1085v-60v-121q0 -25 -18 -42.5
t-43 -17.5t-42.5 17.5t-17.5 42.5v60v121q0 25 17.5 42.5t42.5 17.5t43 -17.5t18 -42.5z" />
</svg>