<svg xmlns="http://www.w3.org/2000/svg" xmlns:xlink="http://www.w3.org/1999/xlink" version="1.1" viewBox="-10 0 2068 2048">
   <path fill="currentColor"
d="M640 128q0 -52 38 -90t90 -38h128q53 0 90.5 38t37.5 90q53 0 90.5 37.5t37.5 90.5v896q0 53 -37.5 90.5t-90.5 37.5q0 52 -37.5 90t-90.5 38h-128q-52 0 -90 -38t-38 -90q-52 0 -90 -38t-38 -90v-896q0 -52 38 -90t90 -38zM128 1793h1152q105 0 199.5 -40.5t163 -109.5
t109 -164t40.5 -199t-40.5 -199t-109 -163t-163 -108.5t-199.5 -40.5v-257q156 0 298 61t245 163.5t164 245t61 298.5q0 145 -51.5 276.5t-144.5 236.5h68q52 0 90 37.5t38 89.5t-38 90t-90 38h-640h-1152q-52 0 -90 -38t-38 -90t38 -89.5t90 -37.5zM448 1536h768
q26 0 45 19.5t19 45.5t-19 45t-45 19h-768q-26 0 -45 -19t-19 -45t19 -45.5t45 -19.5z" />
</svg>