<svg xmlns="http://www.w3.org/2000/svg" xmlns:xlink="http://www.w3.org/1999/xlink" version="1.1" viewBox="-10 0 2068 2048">
   <path fill="currentColor"
d="M308 409q0 -85 60 -144.5t144 -59.5h340q64 0 115.5 35t74.5 93l154 383h340v-107q0 -122 54 -230l8 -15q18 -38 58.5 -51.5t78 5.5t51 59t-5.5 78l-8 16q-32 61 -32 137v108h180q53 0 90.5 38t37.5 91v145q0 40 -19.5 74.5t-52.5 55.5l-140 87q-71 -30 -146 -30
q-93 0 -173.5 41.5t-134.5 112.5h-256q0 42 -30 72t-72 30h-26q-8 22 -18 46l18 18q30 30 30 72.5t-30 72.5l-72 73q-30 30 -72 30t-72 -30l-20 -19q-33 15 -46 19v26q0 42 -30 72t-72 30h-102q-42 0 -72 -30t-30 -72v-26q-12 -4 -44 -19l-20 19q-30 30 -72 30t-72 -30
l-74 -73q-30 -30 -30 -72.5t30 -72.5l20 -19q-15 -32 -20 -45h-26q-42 0 -72 -30t-30 -72v-102q0 -42 30.5 -72.5t71.5 -30.5h26q5 -13 20 -45l-20 -18q-30 -30 -30 -73t30 -73l74 -72q21 -21 50 -27.5t56 3.5v-2v-103v-307zM852 409h-340v307h102h362zM563.5 1024
q-105.5 0 -180.5 75t-75 181t75 181t180.5 75t181 -75t75.5 -181t-75.5 -181t-181 -75zM1689.5 1638q31.5 0 54 -22.5t22.5 -54t-22.5 -54t-54 -22.5t-54.5 22.5t-23 53.5t23 54t54.5 23zM1689.5 1843q-116.5 0 -199 -83t-82.5 -199q0 -70 32 -130.5t88 -99.5
q73 -51 162 -51q16 0 24 1q109 10 182.5 90t73.5 190q0 116 -82 199t-198.5 83z" />
</svg>