<svg xmlns="http://www.w3.org/2000/svg" xmlns:xlink="http://www.w3.org/1999/xlink" version="1.1" viewBox="-10 0 2068 2048">
   <path fill="currentColor"
d="M598 259q19 -58 69.5 -94.5t112.5 -36.5h490q61 0 111.5 36.5t70.5 94.5l40 125h300q105 0 180.5 75t75.5 181v1025q0 106 -75.5 180.5t-180.5 74.5h-1536q-105 0 -180.5 -74.5t-75.5 -180.5v-1025q0 -106 75.5 -181t180.5 -75h300zM1024.5 769q-104.5 0 -193 51
t-140 139.5t-51.5 192.5t51.5 192.5t140 140t193 51.5t193 -51.5t139.5 -140t51 -192.5t-51 -192.5t-139.5 -139.5t-193 -51z" />
</svg>