<svg xmlns="http://www.w3.org/2000/svg" xmlns:xlink="http://www.w3.org/1999/xlink" version="1.1" viewBox="-10 0 2068 2048">
   <path fill="currentColor"
d="M0 1024q0 -139 37 -272t103 -245.5t160.5 -207t207 -160t245 -102.5t272 -37t272 37t244.5 102.5t206.5 160t160.5 207t103 245.5t37 272t-37 272t-103 245.5t-160.5 207t-206.5 160t-244.5 102.5t-272 37t-272 -37t-245 -102.5t-207 -160t-160.5 -207t-103 -245.5
t-37 -272zM1280 1408q0 -79 -44 -143.5t-116 -93.5v-818q0 -40 -28 -68.5t-67.5 -28.5t-68 28.5t-28.5 68.5v818q-71 29 -115.5 93.5t-44.5 143.5q0 106 75.5 181.5t181 75.5t180.5 -75.5t75 -181.5z" />
</svg>