<svg xmlns="http://www.w3.org/2000/svg" xmlns:xlink="http://www.w3.org/1999/xlink" version="1.1" viewBox="-10 0 2068 2048">
   <path fill="currentColor"
d="M716.5 1024q-111.5 0 -205.5 -55t-148.5 -149.5t-54.5 -205.5t54.5 -205.5t148.5 -149t205.5 -54.5t206 54.5t149 149t54.5 205.5t-54.5 205.5t-149 149.5t-206 55zM570 1177h294q85 0 162 24q3 61 14 123t36 133.5t60.5 137t92 130.5t127.5 116q-13 2 -18 2h-1242
q-40 0 -68 -27.5t-28 -67.5q0 -116 45.5 -221.5t121.5 -182t181.5 -122t221.5 -45.5zM1558 927q29 -11 58 0l382 153q22 9 36 29t14 43q0 67 -11 135.5t-41.5 151t-76.5 153.5t-124.5 137t-178.5 108q-29 12 -58 0q-100 -42 -178.5 -108t-124.5 -137t-76.5 -153.5
t-41.5 -151t-11 -135.5q0 -23 13.5 -43t34.5 -29zM1892 1203l-306 -122v601q79 -38 138 -95.5t93.5 -124t52.5 -130.5t22 -129z" />
</svg>