<svg xmlns="http://www.w3.org/2000/svg" xmlns:xlink="http://www.w3.org/1999/xlink" version="1.1" viewBox="-10 0 2068 2048">
   <path fill="currentColor"
d="M1326 300l144 145l-350 349v-494h206zM582 445l144 -145h206v494zM772 254l254 -254l254 254h-204v585l-50 50l-50 -50v-585h-204zM892 1024l-48 49h-590v205l-254 -254l254 -256v206h590zM1254 928l350 -349l144 145v204h-494zM2048 1024l-254 254v-205h-584l-50 -49
l50 -50h584v-206zM300 659v-359h364l-146 145l414 414v69h-70l-414 -414zM1748 300v359l-144 -145l-412 414h-72v-69l414 -414l-144 -145h358zM932 1748h-206l-144 -145l350 -350v495zM300 928v-204l148 -145l350 349h-498zM1748 1387v361h-358l144 -145l-414 -414v-71h72
l412 414zM1748 1118v206l-144 145l-350 -351h494zM1470 1603l-144 143h-206v-494zM448 1469l-148 -145v-206h498zM1280 1792l-254 256l-254 -256h204v-585l50 -49l50 49v585h204zM518 1603l146 145h-364v-361l148 145l414 -414h70v71z" />
</svg>