<svg xmlns="http://www.w3.org/2000/svg" xmlns:xlink="http://www.w3.org/1999/xlink" version="1.1" viewBox="-10 0 2058 2048">
   <path fill="currentColor"
d="M851 93h-2l170 131l111 86q24 19 54 15.5t49 -27.5t15.5 -54t-27.5 -49l-90 -69l15 -14q62 -54 140 -83t160 -29q92 0 176.5 36t145.5 97t97 145.5t36 176.5v10q0 108 -50 208l-107 215q-27 52 -42 129l-169 940q-7 39 -35.5 64.5t-67.5 26.5t-70.5 -22.5t-40.5 -61.5
l-132 -555q-14 -57 -59.5 -92.5t-103.5 -35.5q-59 0 -104 35t-59 93l-133 555q-9 38 -40 61.5t-70 22.5t-68 -26.5t-36 -64.5l-168 -940q-15 -74 -43 -129l-107 -215q-49 -98 -49 -208v-28q0 -119 58.5 -219t159 -158.5t219.5 -58.5q147 0 267 92z" />
</svg>