<svg xmlns="http://www.w3.org/2000/svg" xmlns:xlink="http://www.w3.org/1999/xlink" version="1.1" viewBox="-10 0 2068 2048">
   <path fill="currentColor"
d="M463 1324v-51q52 28 122 53zM647 1307q120 45 241 43q-127 37 -303 -24l62 -2v-17zM1954.5 938q-38.5 0 -65 -26.5t-26.5 -65.5q0 -37 26 -58t66 -21t66.5 21t26.5 58q0 39 -27.5 65.5t-66 26.5zM1862 1324v-354h186v354h-186zM1626 1324v-538l186 -87v625h-186z
M1528 941q8 9 15 18t12.5 16t9.5 17.5t6.5 16t4.5 17t3 16t1.5 17.5t0.5 16v18v17.5v17v18t-0.5 16.5t-1.5 17.5t-3 16t-4.5 17t-6.5 15.5t-9.5 17.5t-12.5 16.5t-15 17q-26 26 -66.5 39.5t-67.5 14.5h-27q-5 1 -12 0.5t-28 -2.5t-40.5 -7t-42.5 -16.5t-39 -28.5
q-20 -19 -31.5 -38t-16.5 -41.5t-5.5 -36.5t-0.5 -42v-10.5v-11.5q0 -27 0.5 -41.5t5.5 -36.5t16.5 -41t31.5 -39q16 -16 38.5 -27.5t43.5 -16.5t39.5 -7.5t29.5 -2.5h11h11t28 2.5t40 7.5t42 16.5t40 27.5zM1400 1172v-129q0 -18 -11.5 -26.5t-23 -8.5t-22.5 8.5t-11 26.5
v129q0 8 2 16t10 16t22 8q19 0 26.5 -13t7.5 -27zM1061 941q8 9 15 18t12.5 16.5t9.5 17.5t6.5 15.5t4.5 17t3 16t1.5 17.5t0.5 16.5v18v17v17v18t-0.5 16t-1.5 17t-3 16t-4.5 17t-6.5 15.5t-9.5 17t-12.5 16t-15 17q-26 26 -66.5 40t-68.5 15h-27q-5 1 -12 0.5t-28 -3
t-40.5 -7.5t-42.5 -16.5t-39 -28.5q-9 -8 -16 -17t-12 -16t-9 -17t-7 -15.5t-4.5 -17t-2.5 -16t-1.5 -17t-0.5 -16v-18v-17.5v-14.5v-15v-13.5t0.5 -14.5l1.5 -13.5t2.5 -14t4 -13.5t5.5 -14.5t7 -13.5t9 -14.5q-41 -30 -133 -84t-187 -102v173q19 -32 52 -50.5t71 -18.5
q61 0 95.5 35.5t34.5 83.5v300q-102 -37 -184 -94v-156q0 -22 -7 -35t-27 -13t-27.5 18t-7.5 40v96l-14 -12q-103 -85 -171 -161v100q60 53 123 99q38 30 62 45v91h-185v-236q-57 -51 -98.5 -98t-62.5 -81.5t-33.5 -64.5t-13.5 -50t0.5 -34t5.5 -20l4 -7q21 -46 100 -48.5
t211 48.5l72 -33v65q66 34 103 53t102 59.5t122 83.5q10 -14 16 -20q25 -25 65.5 -38.5t68.5 -14.5l28 -1h11.5t28.5 2.5t40 7.5t42 16.5t40 27.5zM209 786l93 -44q-148 -55 -206 -6q-5 4 -8.5 13.5t-2 30.5t12 48t39 69.5t72.5 91.5v-203zM933 1172v-129q0 -18 -11.5 -26.5
t-23 -8.5t-22.5 8.5t-11 26.5v129q0 8 2 16t10 16t22 8q19 0 26.5 -13t7.5 -27z" />
</svg>