<svg xmlns="http://www.w3.org/2000/svg" xmlns:xlink="http://www.w3.org/1999/xlink" version="1.1" viewBox="-10 0 2068 2048">
   <path fill="currentColor"
d="M1756 0q120 0 206 85.5t86 206.5v1464q0 121 -86 206.5t-206 85.5h-1464q-120 0 -206 -85.5t-86 -206.5v-1464q0 -121 86 -206.5t206 -85.5h1464zM1464 1286v-629q0 -30 -22 -51.5t-52 -21.5h-628q-43 0 -73.5 30.5t-30.5 73.5t30 73l152 153l-302 303q-26 26 -26 63
q0 36 26 62l168 169q26 26 64 26q34 0 60 -26l304 -304l152 152q30 30 73 30t74 -30t31 -73z" />
</svg>