<svg xmlns="http://www.w3.org/2000/svg" xmlns:xlink="http://www.w3.org/1999/xlink" version="1.1" viewBox="-10 0 2068 2048">
   <path fill="currentColor"
d="M205 307q0 -35 20 -87q4 -15 22 -15q11 0 17 6l147 139l146 -139q6 -6 17 -6q16 0 21 15q20 52 20 87q0 30 -11 56.5t-28.5 45t-29.5 29t-25 18.5l243 232q29 28 71 28h701h102q96 0 183.5 43.5t145.5 120.5l60 82q25 34 19.5 76t-39 67.5t-76 19.5t-67.5 -40l-61 -82
q-23 -31 -61 -54v279h-1127l-129 -301q-10 -22 -32.5 -29t-42.5 6l-135 90q-44 30 -98 30h-7q-71 0 -120.5 -50t-49.5 -121q0 -60 37 -106l243 -304q-76 -58 -76 -136zM1434 1331h308v205v205q0 42 -31 72t-73 30h-102q-42 0 -72 -30t-30 -72v-205h-512v205q0 42 -30 72
t-72 30h-103q-42 0 -72 -30t-30 -72v-205v-205h307h512zM835 879q-4 -8 -14 -8q-12 0 -16 8l-34 66l-75 10q-11 2 -14 12q-4 10 4 17l55 51l-13 72q-2 12 7 17q8 5 18 0l67 -33l67 33q9 5 18 0q8 -5 7 -17l-13 -72l54 -51q8 -7 4 -17q-6 -11 -13 -12l-76 -10zM1178 871
q-11 0 -15 8l-33 66l-75 10q-11 2 -14 12q-4 10 4 17l55 51l-13 72q-3 12 5.5 17t18.5 0l67 -33l67 33q9 5 18 0q8 -5 7 -17l-13 -72l55 -51q7 -6 4 -17q-4 -10 -14 -12l-75 -10l-34 -66q-4 -8 -15 -8zM1552 879q-4 -8 -15 -8q-12 0 -16 8l-33 66l-76 10q-10 2 -13 12
q-4 10 4 17l54 51l-13 72q-2 12 7 17q8 5 18 0l67 -33l68 33q9 5 17.5 0t6.5 -17l-12 -72l54 -51q7 -6 4 -17q-4 -10 -13 -12l-75 -10z" />
</svg>