<svg xmlns="http://www.w3.org/2000/svg" xmlns:xlink="http://www.w3.org/1999/xlink" version="1.1" viewBox="-10 0 2068 2048">
   <path fill="currentColor"
d="M0 1024q0 -271 138 -515l438 765q68 120 187 191t261 71q79 0 164 -26l-306 529q-184 -26 -347 -115.5t-280.5 -223.5t-186 -309.5t-68.5 -366.5zM1460 1287q76 -119 76 -263q0 -113 -45.5 -212.5t-126.5 -171.5h610q74 182 74 384q0 139 -37 272t-103 245t-160.5 206
t-206.5 160t-244.5 103t-272.5 38zM1912 512h-888q-123 0 -229.5 53.5t-177.5 147t-95 209.5l-304 -528q143 -183 354 -288.5t452 -105.5q280 0 516 139t372 373zM672 1024q0 -95 47.5 -176.5t128.5 -128.5t176.5 -47t176.5 47t128 128.5t47 176.5t-47 176.5t-128 129
t-176.5 47.5t-176.5 -47.5t-128.5 -129t-47.5 -176.5z" />
</svg>