<svg xmlns="http://www.w3.org/2000/svg" xmlns:xlink="http://www.w3.org/1999/xlink" version="1.1" viewBox="-10 0 2068 2048">
   <path fill="currentColor"
d="M1100 748l492 423q-8 4 -17 10q-48 33 -104 52.5t-107 19.5q-106 0 -210 -72q-59 -42 -130.5 -42t-131.5 42q-104 72 -210 72q-52 0 -114 -22q5 -159 69.5 -303t171 -247.5t252 -164.5t304.5 -61h227q48 0 81 33t33 80.5t-33 80.5t-81 33h-227q-140 0 -265 66zM569 681.5
q0 93.5 -67 161.5t-160.5 68t-160.5 -68t-67 -161.5t67 -160t160.5 -66.5t160.5 66.5t67 160zM1090 1273q134 92 275 92q70 0 142.5 -25.5t132.5 -66.5q32 -23 71 -22t68 27q82 66 180 90q47 10 71.5 50t13.5 87q-10 46 -49.5 70.5t-86.5 14.5q-105 -25 -207 -89
q-169 92 -336 92q-139 0 -286 -67l-56 -28q-20 11 -55 28q-146 67 -285 67q-163 0 -336 -92q-103 66 -207 90q-46 10 -86 -15t-50.5 -71.5t14.5 -86t71 -49.5q98 -23 179 -90q30 -26 69 -27.5t70 21.5q62 42 134.5 67t141.5 25q142 0 275 -92q30 -21 66.5 -21t65.5 21z" />
</svg>