<svg xmlns="http://www.w3.org/2000/svg" xmlns:xlink="http://www.w3.org/1999/xlink" version="1.1" viewBox="-10 0 2068 2048">
   <path fill="currentColor"
d="M1792 0q105 0 180.5 75t75.5 181v1536q0 106 -75.5 181t-180.5 75h-1536q-105 0 -180.5 -75t-75.5 -181v-1536q0 -106 75.5 -181t180.5 -75h1536zM1298 375v913q0 32 21 50t46.5 18t47 -18t21.5 -50v-913q0 -32 -21.5 -50t-47 -18t-46.5 18t-21 50zM956 340v991
q0 32 21 50t47 18t47 -18t21 -50v-991q0 -32 -21 -50t-47 -18t-47 18t-21 50zM614 375v913q0 32 21.5 50t47.5 18t47.5 -18t21.5 -50v-913q0 -32 -21.5 -50t-47.5 -18t-47.5 18t-21.5 50zM272 511v614q0 32 22 50t47.5 18t47 -18t21.5 -50v-614q0 -32 -21.5 -50t-47 -18
t-47.5 18t-22 50zM1752 1553q19 -17 23 -39t-6 -40t-26 -30.5t-38.5 -11.5t-42.5 18q-105 90 -278.5 138.5t-354 49.5t-357 -47.5t-286.5 -140.5q-19 -17 -41.5 -17.5t-38.5 12t-26 30.5t-6 39.5t24 38.5q85 73 205.5 123.5t252 73.5t275 22.5t274 -24.5t248 -74t199.5 -121
zM1776 1125v-614q0 -32 -22 -50t-47.5 -18t-47 18t-21.5 50v614q0 32 21.5 50t47 18t47.5 -18t22 -50z" />
</svg>