<svg xmlns="http://www.w3.org/2000/svg" xmlns:xlink="http://www.w3.org/1999/xlink" version="1.1" viewBox="-10 0 2058 2048">
   <path fill="currentColor"
d="M1496 1913q80 -121 75 -243q0 -26 -12 -57l-12 -32t-13 -31q-8 -21 -30 -65q-19 -38 -31 -56q-11 -17 -23 -44l-13 -17q12 0 29 -17q18 -17 13 -38q-9 -46 -54 -46h-38l-72 -755h26q13 0 35 -19q24 -20 19 -40q-4 -22 -21 -38q-15 -15 -33 -25l-17 -8q84 -72 130 -164
q14 -35 31 -97q14 -49 19 -88l4 -33h-243l17 176h-168l17 -176h-218l17 176h-172l16 -176h-243q9 107 59 218q21 50 52 92q32 42 53 59l16 13h5l-13 4q-8 4 -21 10q-12 6 -23 21q-10 14 -10 36q0 63 75 63l8 12l-71 722q-5 14 -8 17h-25q-12 0 -30 13q-16 12 -21 37
q-4 21 11 36t23 15h12l-37 59q-40 66 -72 128q-37 73 -37 115q-9 112 71 243q-3 0 -23 26q-18 23 -23 37l-21 72h1078q-11 -46 -17 -63q0 -7 -13 -25q-4 -5 -11 -15.5t-10 -14.5z" />
</svg>