<svg xmlns="http://www.w3.org/2000/svg" xmlns:xlink="http://www.w3.org/1999/xlink" version="1.1" viewBox="-10 0 2068 2048">
   <path fill="currentColor"
d="M2048 1258q0 103 -50.5 187.5t-136.5 132t-189 47.5q-85 0 -162 -27.5t-138 -73.5t-118.5 -106t-109 -126t-103.5 -132.5t-108.5 -126.5t-116.5 -106t-135.5 -73.5t-158.5 -27.5q-135 0 -226.5 70t-111.5 169.5t2.5 199t118 169.5t235.5 70q99 0 207 -37t193 -98
q5 -4 21 -18.5t30 -24.5t23 -10q14 0 24 11t10 25q0 25 -60 77q-100 88 -233.5 142t-260.5 54q-100 0 -190 -34t-157 -94t-107 -147.5t-40 -188.5q0 -135 65.5 -245t177 -171.5t247.5 -61.5q120 0 226 43.5t185 113t151.5 153t139 167.5t133.5 153.5t149 113t172 43.5
q92 0 152.5 -46t74 -112t-0.5 -131.5t-72.5 -111.5t-141.5 -46q-31 0 -82.5 18.5t-67.5 18.5q-21 0 -36.5 -15t-15.5 -35q0 -18 9 -56.5t9 -59.5q0 -105 -49.5 -189t-135 -131t-189.5 -47q-59 0 -112.5 18.5t-84 40.5t-55.5 40.5t-32 18.5q-16 0 -26 -10t-10 -25
q0 -19 26 -46q59 -68 146.5 -104.5t181.5 -36.5q125 0 227 57t159.5 158.5t57.5 226.5q0 36 -4 65q54 -14 116 -14q96 0 178 43.5t131 122.5t49 176z" />
</svg>