<svg xmlns="http://www.w3.org/2000/svg" xmlns:xlink="http://www.w3.org/1999/xlink" version="1.1" viewBox="-10 0 2068 2048">
   <path fill="currentColor"
d="M1288 1025l-434 247v-494zM1756 0q120 0 206 85.5t86 206.5v1464q0 121 -86 206.5t-206 85.5h-1464q-120 0 -206 -85.5t-86 -206.5v-1464q0 -121 86 -206.5t206 -85.5h1464zM1822 622q-15 -54 -54.5 -93.5t-93.5 -54.5q-58 -16 -220 -25t-296 -10l-134 -1q-58 0 -148 1
t-267 10t-235 25q-54 15 -93.5 54.5t-54.5 93.5q-15 58 -23.5 158.5t-9.5 172.5l-1 72q0 31 1 79.5t9.5 157.5t23.5 167q15 54 54.5 92t93.5 53q58 16 220.5 24.5t296.5 8.5l133 1q59 0 149 -0.5t266.5 -9t234.5 -24.5q54 -15 93.5 -53.5t54.5 -92.5q15 -58 23.5 -158.5
t9.5 -172.5l1 -72q0 -30 -1 -79t-9.5 -157.5t-23.5 -166.5z" />
</svg>