<svg xmlns="http://www.w3.org/2000/svg" xmlns:xlink="http://www.w3.org/1999/xlink" version="1.1" viewBox="-10 0 2068 2048">
   <path fill="currentColor"
d="M1660 1236l-730 495q-41 29 -101 29q-74 0 -121 -42l-696 -612q-18 23 -9 84q0 43 25 59l722 633q26 21 73.5 21t72.5 -21l734 -499q105 30 181 21q176 -17 218 -160q16 -49 16 -92q-89 80 -214 92q-69 9 -171 -8zM37 980l704 613q29 29 82 35t115 -40l696 -474
q105 30 185 21q177 -30 218 -159q47 -202 -109 -336q-44 -38 -197 -159q-113 -90 -340 -214q-223 -122 -356 -122q-214 0 -231 235l-763 428q-33 26 -33 109q9 43 29 63zM326 833l587 -331q34 -12 34 -55q0 -58 17 -90t31 -36q13 -4 40 -4q128 0 358 145q228 144 392 287
q80 75 63 118q-12 51 -100 63q-14 4 -36 2q-18 -1 -38 -6q-18 -4 -31 -9q-11 -4 -21 -4l-13 -4q-4 -4 -21 -4q-26 0 -37 8l-646 440q-63 38 -109 -8l-478 -419q-21 -21 -21 -51q9 -31 29 -42z" />
</svg>