<svg xmlns="http://www.w3.org/2000/svg" xmlns:xlink="http://www.w3.org/1999/xlink" version="1.1" viewBox="-10 0 2068 2048">
   <path fill="currentColor"
d="M1006 215q4 -10 18 -10t18 10q58 101 58 168q0 32 -22 55t-53.5 23t-54 -23t-22.5 -55q0 -67 58 -168zM84 369q5 -11 18 -11q15 0 20 11q58 101 58 169q0 31 -23 53.5t-54.5 22.5t-54 -22t-22.5 -54q0 -68 58 -169zM282 538q0 -68 58 -169q5 -11 20 -11q13 0 18 11
q58 101 58 169q0 32 -22.5 54t-54 22t-54.5 -22.5t-23 -53.5zM544 369q5 -11 20 -11q13 0 18 11q58 101 58 169q0 32 -22.5 54t-54 22t-54.5 -22.5t-23 -53.5q0 -68 58 -169zM692 538q0 -68 58 -169q4 -11 18.5 -11t19.5 11q58 101 58 169q0 31 -23 53.5t-54.5 22.5
t-54 -22.5t-22.5 -53.5zM1262 369q4 -11 18 -11t18 11q60 103 60 169q0 31 -23.5 53.5t-55 22.5t-54.5 -22.5t-23 -53.5q0 -66 60 -169zM1408 538q0 -68 58 -169q5 -11 18 -11q15 0 20 11q58 102 58 169q0 31 -23 53.5t-54.5 22.5t-54 -22t-22.5 -54zM1670 369q5 -11 20 -11
q13 0 18 11q58 102 58 169q0 32 -22.5 54t-54 22t-54.5 -22.5t-23 -53.5q0 -68 58 -169zM1868 538q0 -66 60 -169q4 -11 17.5 -11t18.5 11q58 103 58 169q0 31 -22.5 53.5t-54 22.5t-54.5 -22.5t-23 -53.5zM359 716q21 0 36 15t15 36v308v51h-102v-51v-308q0 -21 15 -36
t36 -15zM563 716q21 0 36 15t15 36v308v51h-102v-51v-308q0 -21 15 -36t36 -15zM768.5 716q21.5 0 36.5 15t15 36v308v51h-104v-51v-308q0 -21 15.5 -36t37 -15zM1279.5 716q21.5 0 37 15t15.5 36v308v51h-104v-51v-308q0 -21 15 -36t36.5 -15zM1485 716q21 0 36 15t15 36
v308v51h-102v-51v-308q0 -21 15 -36t36 -15zM1689 716q21 0 36 15t15 36v308v51h-102v-51v-308q0 -21 15 -36t36 -15zM1126 665v564h614q42 0 73 -30.5t31 -72.5v-307q0 -42 30 -72.5t71.5 -30.5t72 30.5t30.5 72.5v307q0 128 -90 217.5t-218 89.5h-614v205h410
q41 0 71.5 30.5t30.5 72.5t-30 72t-72 30h-512h-512q-42 0 -72 -30t-30 -72t30.5 -72.5t71.5 -30.5h410v-205h-614q-128 0 -218 -89.5t-90 -217.5v-307q0 -42 30.5 -72.5t72 -30.5t71.5 30.5t30 72.5v307q0 42 31 72.5t73 30.5h614v-564q0 -42 30 -72t72 -30t72 30t30 72z
" />
</svg>