<svg xmlns="http://www.w3.org/2000/svg" xmlns:xlink="http://www.w3.org/1999/xlink" version="1.1" viewBox="-10 0 2058 2048">
   <path fill="currentColor"
d="M512 0h1024q106 0 181 75t75 181v1537q0 106 -75 180.5t-181 74.5h-1024q-106 0 -181 -74.5t-75 -180.5v-1537q0 -106 75 -181t181 -75zM639 256q-52 0 -89.5 37.5t-37.5 90.5v128q0 53 37.5 90.5t89.5 37.5h768q53 0 91 -38t38 -90v-128q0 -52 -38 -90t-91 -38h-768z
M768 896q0 -52 -38 -89.5t-91 -37.5t-90 37.5t-37 89.5q0 53 37.5 90.5t89.5 37.5q53 0 91 -38t38 -90zM639 1408q53 0 91 -38t38 -90t-38 -90t-91 -38q-52 0 -89.5 37.5t-37.5 90.5t37.5 90.5t89.5 37.5zM512 1665q0 53 37.5 90.5t89.5 37.5h385q52 0 90 -37.5t38 -90.5
t-38 -91t-90 -38h-385q-52 0 -89.5 38t-37.5 91zM1024 1024q52 0 90 -38t38 -90t-37.5 -89.5t-90.5 -37.5t-90.5 37.5t-37.5 89.5t38 90t90 38zM1152 1280q0 -52 -38 -90t-90 -38t-90 38t-38 90t38 90t90 38t90 -38t38 -90zM1407 1024q53 0 91 -38t38 -90t-38 -89.5
t-91 -37.5t-90 37.5t-37 89.5q0 53 37.5 90.5t89.5 37.5zM1536 1280q0 -52 -38 -90t-91 -38q-52 0 -89.5 37.5t-37.5 90.5t37.5 90.5t89.5 37.5q53 0 91 -38t38 -90zM1407 1793q53 0 91 -38t38 -90q0 -53 -38 -91t-91 -38q-52 0 -89.5 38t-37.5 91t37.5 90.5t89.5 37.5z" />
</svg>