<svg xmlns="http://www.w3.org/2000/svg" xmlns:xlink="http://www.w3.org/1999/xlink" version="1.1" viewBox="-10 0 2068 2048">
   <path fill="currentColor"
d="M1828 0q91 0 155.5 64t64.5 155v1610q0 91 -64.5 155t-155.5 64h-1608q-91 0 -155.5 -64t-64.5 -155v-1610q0 -91 64.5 -155t155.5 -64h1608zM580 1611l88 -152q-70 -85 -180 -52l-66 112q-18 32 -8.5 69t42 56t69.5 9t55 -42zM1216 1364q16 -28 13.5 -60t-16 -59
t-41 -45t-60.5 -18h-284l392 -679q18 -32 9 -69t-41.5 -56t-69.5 -9t-56 42l-40 71l-42 -71q-18 -32 -55 -42t-69.5 9t-42 56t8.5 69l94 162l-300 517h-232q-38 0 -65 26.5t-27 64.5t27 64.5t65 26.5h832zM1664 1364q38 0 65 -26.5t27 -64.5t-27 -64.5t-65 -26.5h-238
q-216 -374 -268 -466q-22 18 -39 49.5t-27 72t-2.5 90.5t34.5 97q29 49 142 244.5t198 341.5q18 32 54.5 42t69 -9t42 -56t-9.5 -69l-88 -155h132z" />
</svg>