<svg xmlns="http://www.w3.org/2000/svg" xmlns:xlink="http://www.w3.org/1999/xlink" version="1.1" viewBox="-10 0 2068 2048">
   <path fill="currentColor"
d="M2048 292v1464q0 121 -86 206.5t-206 85.5h-1464q-120 0 -206 -85.5t-86 -206.5v-1464q0 -121 86 -206.5t206 -85.5h1464q120 0 206 85.5t86 206.5zM542 1596q71 78 170 119t200 41t200 -41t170 -119q78 -84 114 -189t31.5 -202t-39.5 -184q-59 36 -122 49q32 76 32 163
q0 110 -50 202t-141.5 145.5t-202.5 51.5l12 -1q156 -99 233 -248t77 -338q0 -165 -52 -321v-1q-6 -77 -29 -157.5t-68.5 -157t-104.5 -116.5q129 218 202 432q2 49 2 102q0 61 -3.5 121.5t-13 132.5t-25.5 137t-42 130.5t-59.5 118t-82 95t-106.5 65.5
q-141 -25 -229.5 -135t-88.5 -258q0 -107 49.5 -200t139 -149.5t197.5 -56.5q77 0 140 27q8 -66 38 -124q-81 -30 -178 -30q-112 0 -208.5 43t-162 114t-104 165t-41.5 192t33.5 199t112.5 183zM1256 848q75 74 156 74q55 0 101 -29.5t76 -77.5t46.5 -111.5t16.5 -128.5
t-18.5 -131t-55.5 -118q-11 25 -24.5 45.5t-25 34.5t-30 27t-28.5 19.5t-32.5 15.5t-30 11.5l-31.5 10.5q-31 10 -47 16t-39.5 19t-41.5 30q-25 26 -42.5 67.5t-17.5 77.5q0 55 36 110q105 -24 200.5 -95t137.5 -164q-1 14 -22 54q-39 70 -117 132.5t-167 110.5z" />
</svg>