<svg xmlns="http://www.w3.org/2000/svg" xmlns:xlink="http://www.w3.org/1999/xlink" version="1.1" viewBox="-10 0 2058 2048">
   <path fill="currentColor"
d="M376 374q-16 0 -42 -17q-42 -38 0 -80l17 -17q21 -17 54 -42q3 -2 78 -54q40 -27 107 -61q65 -33 131 -53q471 -156 933 177q42 30 13 75q-30 42 -76 13q-409 -295 -832 -160q-94 33 -179 84q-87 52 -128 84l-38 34q-26 17 -38 17zM288 782q-3 0 -9 -2t-8 -2
q-46 -21 -34 -72q6 -11 27 -59q15 -33 78 -117q65 -86 139 -150q75 -65 208 -122q132 -57 284 -69q150 -9 288 29q133 36 219 93q77 50 149 124q65 67 90 103q23 33 32 55q26 54 -25 75q-46 25 -76 -25q-6 -13 -25 -42q-21 -33 -78 -90q-61 -61 -130 -106q-71 -47 -192 -79
q-121 -33 -248 -24q-130 9 -244 57q-110 46 -180 107q-61 53 -118 125q-48 61 -70 103q-15 29 -23 50q-12 38 -54 38zM1743 1472q-13 0 -17 -4q-54 -17 -38 -68q47 -144 38 -279q-9 -140 -28 -221q-20 -86 -27 -93q-12 -51 34 -67q54 -26 71 34q117 349 21 660
q-17 38 -54 38zM1722 1712q-21 0 -34 -13q-114 -89 -162 -174q-47 -85 -46 -129q2 -39 19 -71q117 -371 -34 -602q-135 -203 -408 -219q-124 -12 -219 19q-98 32 -166 103q-70 73 -96 112q-31 47 -70 116q-9 18 -12 23q-9 15 -13 23q-45 65 -189 164q-46 25 -76 -25
q-25 -46 25 -76q97 -47 148 -122q12 -30 16 -38q43 -81 78 -128q38 -50 116.5 -133t201.5 -124q118 -39 269 -27q332 33 488 273q185 282 42 699v8l-5 4q-30 88 160 236q47 38 9 80q-12 21 -42 21zM1562 1830q-12 0 -17 -5q-140 -54 -204 -172q-65 -120 -55 -225
q10 -104 32 -196q25 -96 25 -181q0 -86 -10 -120q-10 -35 -15 -35q-93 -198 -299 -207q-201 -9 -319 198q-54 101 -154 213q-103 115 -162 166q-68 58 -80 67q-42 42 -75 -8q-43 -43 8 -76l30 -21l67 -67q42 -42 90 -93q53 -57 97 -114q51 -67 82 -122q151 -264 420 -252
q279 9 396 265q8 8 19 53q10 40 16 143q6 100 -31 225q-88 356 160 454q50 20 33 72q-12 38 -54 38zM536 1952q-26 0 -47 -21q-30 -46 13 -80q8 -4 17 -13q375 -262 555 -530q168 -248 29 -387q-59 -26 -113 -9q-71 21 -135 101q-60 75 -92 143q-66 133 -185 244
q-117 110 -183 148q-62 36 -95 46q-54 21 -75 -30q-16 -51 29 -71q12 0 80 -38q65 -36 170 -135q106 -100 158 -214q122 -241 290 -299q102 -34 206 17l8 4l9 9q5 5 19 21q8 9 25 33q14 19 27 49q12 26 21 59q9 31 9 72.5t-11 87.5q-12 49 -35 98q-25 54 -64 114
q-204 296 -584 560l-13 8q-18 13 -33 13zM367 1813q-25 0 -46 -30q-29 -46 21 -75q13 0 114 -74q97 -71 256 -236q155 -160 248 -343q21 -51 72 -25q55 26 25 76q-28 62 -78 139q-42 65 -90 124q-38 47 -95 109q-50 55 -96 95q-14 12 -29.5 25.5t-34 29t-27.5 23.5
q-39 34 -80 63q-13 9 -34.5 24.5t-30.5 21.5l-16 12t-16.5 12t-11.5 8l-21 12q-16 9 -30 9zM1335 1981q-26 0 -34 -8q-114 -80 -162 -183.5t-42 -176.5q6 -74 36 -128q26 -51 76 -21q50 25 21 75q-11 25 -21 59q-9 32 25 124q33 89 134 162q43 30 13 76q-16 21 -46 21z
M1103 2048q-21 0 -42 -12q-54 -54 -128 -63q-72 -9 -120 8l-46 17q-50 30 -76 -21q-26 -55 26 -76q30 -17 75 -31q48 -16 156 -5q107 10 193 87q42 42 0 79q-12 17 -38 17z" />
</svg>