<svg xmlns="http://www.w3.org/2000/svg" xmlns:xlink="http://www.w3.org/1999/xlink" version="1.1" viewBox="-10 0 2059 2048">
   <path fill="currentColor"
d="M1993 474l-327 -407q-58 -67 -135 -67h-1380q-59 0 -92 12q-50 32 -50 130v1763q0 58 12 88q31 55 130 55h1745q60 0 93 -13q50 -32 50 -130v-1297q0 -72 -46 -134zM281 654v-587h1158v638q0 79 -54 136t-135 57h-780q-80 0 -134 -57q-55 -58 -55 -136v-51zM1703 1918
h-1422v-550q0 -59 42 -101t105 -42h1082q61 0 118 25q32 12 52 55q18 39 23 80v33v500zM911 680h243q25 0 44 -19t19 -49v-436q0 -25 -19 -44t-44 -19h-243q-25 0 -44 19t-19 44v436q0 30 19 49t44 19zM344 113v4v-4z" />
</svg>