<svg xmlns="http://www.w3.org/2000/svg" xmlns:xlink="http://www.w3.org/1999/xlink" version="1.1" viewBox="-10 0 2068 2048">
   <path fill="currentColor"
d="M1700 264q153 0 251 94t96 238q0 54 -22 122.5t-149 414.5q-83 223 -139 373q-25 70 -63 122.5t-76.5 81.5t-83 46.5t-78.5 22.5t-69 5q-117 0 -206.5 -56t-137.5 -160q-48 103 -137 159.5t-207 56.5q-34 0 -68 -5.5t-79 -23t-83 -46t-76 -81t-64 -122.5
q-38 -105 -79 -216.5t-65 -178t-50.5 -137.5t-40 -110t-28.5 -81t-21 -64t-12.5 -45t-8 -38.5t-3 -30t-1.5 -33.5q0 -86 46.5 -156.5t127 -111t176.5 -40.5q121 0 212.5 69.5t121.5 186.5q18 -56 45.5 -100t59.5 -70.5t64 -45t66.5 -26.5t59 -11t47.5 -3q24 0 48 3t58.5 11
t66.5 26.5t64 45t59 70.5t44 100q31 -116 123 -186t211 -70zM1805 722q4 -11 13.5 -37.5t13.5 -41.5t4 -29q0 -67 -42.5 -105.5t-111.5 -38.5q-55 0 -93 32t-51 84l-177 560h-3l-179 -546q-19 -64 -55 -97t-101 -33q-64 0 -99.5 33t-55.5 97l-179 546h-3l-177 -560
q-12 -52 -50 -84t-94 -32q-66 0 -109.5 34.5t-43.5 84t32 137.5l260 700q54 150 184 150q133 0 176 -134l157 -470h4l157 470q43 134 176 134q132 0 185 -148z" />
</svg>