<svg xmlns="http://www.w3.org/2000/svg" xmlns:xlink="http://www.w3.org/1999/xlink" version="1.1" viewBox="-10 0 2068 2048">
   <path fill="currentColor"
d="M1672 708q169 58 272.5 141.5t103.5 171.5q0 93 -109.5 180.5t-288.5 146.5q-31 11 -38 12q12 51 12 55q35 173 9 304.5t-107 177.5q-79 44 -196 4t-248 -152q-6 -5 -17 -14.5t-20 -17.5t-17 -16q-14 14 -42 38q-134 118 -259 161t-207 -4q-78 -45 -103.5 -169t7.5 -290
q1 -11 16 -72q-26 -7 -54 -18q-171 -58 -278.5 -146t-107.5 -180q0 -88 101 -170.5t267 -140.5q18 -6 74 -24q-12 -54 -14 -67q-34 -168 -10 -294.5t102 -172.5q83 -46 208.5 -0.5t263.5 167.5q4 4 11 9.5t12.5 10.5t10.5 10l48 -45q132 -115 251.5 -156.5t200.5 2.5
q81 47 105.5 181t-13.5 312q-1 8 -5 22.5t-5 21.5q58 19 64 21zM1132 368q-40 35 -48 43q96 104 172 212q128 12 268 43q2 -5 5.5 -18.5t4.5 -21.5q31 -155 15.5 -263.5t-67.5 -138.5q-48 -28 -144.5 10.5t-205.5 133.5zM668 1229q-47 -88 -56 -104q-43 101 -66 178
q92 20 186 30q-21 -34 -64 -104zM548 748q21 70 64 175q25 -47 56 -104q21 -38 62 -102q-104 13 -182 31zM658 1023q40 84 86 163q37 67 98 156q97 5 182 5q94 0 184 -6q58 -86 98 -156q52 -93 86 -163q-20 -41 -88 -161q-41 -72 -96 -155q-120 -8 -184 -8t-184 8
q-52 77 -96 155q-58 101 -86 162zM1380 1228q-25 45 -62 103q105 -13 188 -32q-25 -77 -68 -177q-29 56 -58 106zM1438 923q35 -80 64 -174q-89 -20 -184 -32q38 58 62 100q4 9 25.5 47.5t32.5 58.5zM1026 472q-62 67 -120 144q118 -4 238 0q-58 -78 -118 -144zM562 227
q-49 29 -64 129.5t12 246.5q4 16 14 62q134 -30 270 -42q72 -104 172 -212q-6 -4 -15.5 -13.5l-14.5 -14.5q-116 -102 -219.5 -144t-154.5 -12zM462 1281q37 -120 100 -258q-58 -125 -98 -254q-53 17 -70 22q-137 49 -222.5 112t-85.5 118q13 77 76 120q97 77 252 125
q44 14 48 15zM930 1673l38 -35q-88 -95 -172 -214q-147 -11 -272 -39q-15 63 -16 67q-25 143 -10 241.5t64 126.5q73 29 142 -5q126 -50 226 -142zM1028 1576q68 -76 118 -145q-60 3 -122 3q-4 0 -118 -3q62 81 122 145zM1550 1696q20 -131 -10 -265q-3 -20 -10 -49
q-125 29 -274 42q-78 116 -168 215q34 32 50 46q108 93 202.5 129.5t143.5 7.5q29 -22 46.5 -55.5t19.5 -70.5zM1622 1266q150 -49 245 -117.5t95 -127.5q0 -54 -89 -119.5t-229 -113.5q-10 -3 -29.5 -9t-28.5 -9q-38 121 -100 251q61 125 104 256q6 -1 16.5 -5t15.5 -6z
M1024.5 1206q-75.5 0 -130 -53.5t-54.5 -129t54.5 -129.5t130 -54t129.5 54t54 129.5t-54 129t-129.5 53.5z" />
</svg>