<svg xmlns="http://www.w3.org/2000/svg" xmlns:xlink="http://www.w3.org/1999/xlink" version="1.1" viewBox="-10 0 2068 2048">
   <path fill="currentColor"
d="M256 448q-26 0 -45 18.5t-19 45.5v88l690 566q62 52 142.5 52t141.5 -52l690 -566v-88q0 -27 -19 -45.5t-45 -18.5h-1536zM192 848v688q0 26 19 45t45 19h1536q26 0 45 -19t19 -45v-688l-568 468q-115 94 -264 94t-264 -94zM0 512q0 -106 75.5 -181t180.5 -75h1536
q105 0 180.5 75t75.5 181v1024q0 105 -75.5 180.5t-180.5 75.5h-1536q-105 0 -180.5 -75.5t-75.5 -180.5v-1024z" />
</svg>