<svg xmlns="http://www.w3.org/2000/svg" xmlns:xlink="http://www.w3.org/1999/xlink" version="1.1" viewBox="-10 0 2068 2048">
   <path fill="currentColor"
d="M576 64v64h64q27 0 45.5 19t18.5 45t-18.5 45t-45.5 19h-64v128h208q32 0 56 24t24 57q0 14 -4 29l-130 339h6q39 0 67.5 27.5t28.5 67.5t-28.5 68t-67.5 28h-16l64 512h-544l64 -512h-16q-39 0 -67.5 -28t-28.5 -68t28.5 -67.5t67.5 -27.5h8l-130 -339q-6 -17 -6 -29
q0 -33 24 -57t56 -24h208v-128h-64q-27 0 -45.5 -19t-18.5 -45t18.5 -45t45.5 -19h64v-64q0 -26 19 -45t45.5 -19t45 19t18.5 45zM192 1665h640l174 229q18 27 18 58q0 40 -28 68t-68 28h-832q-39 0 -67.5 -28t-28.5 -68q0 -31 20 -58zM1344 1665h512l174 229q18 26 18 58
q0 40 -28 68t-68 28h-704q-39 0 -67.5 -28t-28.5 -68q0 -30 20 -58zM1216 833q0 -26 19 -45t45 -19h64q27 0 45.5 19t18.5 45v63h96v-63q0 -26 18.5 -45t45.5 -19h64q26 0 45 19t19 45v63h96v-63q0 -26 18.5 -45t45.5 -19h64q26 0 45 19t19 45v205q0 51 -34 87l-112 124
l12 287h-502l8 -287l-108 -125q-32 -36 -32 -84v-207zM1536 1216v128h128v-128q0 -26 -18.5 -45t-45 -19t-45.5 19t-19 45z" />
</svg>