<svg xmlns="http://www.w3.org/2000/svg" xmlns:xlink="http://www.w3.org/1999/xlink" version="1.1" viewBox="-10 0 2058 2048">
   <path fill="currentColor"
d="M1156 132v925q0 55 -39 93.5t-93.5 38.5t-93 -38.5t-38.5 -93.5v-925q0 -55 38.5 -93.5t93 -38.5t93.5 38.5t39 93.5zM560 498h-2q-122 102 -191 247.5t-69 311.5q0 148 57 282.5t154.5 232t232 155t282 57.5t282 -57.5t232 -155t155 -232t57.5 -282.5
q0 -166 -69.5 -311.5t-192.5 -247.5q-42 -35 -47 -90t30.5 -97t90 -46.5t96.5 30.5q166 138 261 337t95 425q0 135 -35.5 263.5t-99.5 237t-155.5 200t-200 155.5t-237 99.5t-263 35.5t-263 -35.5t-237 -99.5t-200 -155.5t-155 -200t-99 -237t-35.5 -263.5q0 -226 95 -425
t261 -337q42 -35 96.5 -30.5t90 46.5t30.5 97t-47 90z" />
</svg>