<svg xmlns="http://www.w3.org/2000/svg" xmlns:xlink="http://www.w3.org/1999/xlink" version="1.1" viewBox="-10 0 2058 2048">
   <path fill="currentColor"
d="M723 301v241v54v248q0 25 -17.5 42.5t-42.5 17.5t-42.5 -17.5t-17.5 -42.5v-122q-32 26 -47 43l-36 40q-38 44 -38 101v48q0 96 44.5 181t122.5 140l34 24l-49 70l49 -70q31 23 76 26q36 2 60.5 28t24.5 62v482q0 37 -27 64t-64 27t-63.5 -26.5t-26.5 -64.5v-408
q-48 -16 -84 -42l-34 -24l52 -74l-52 74q-115 -80 -179.5 -204.5t-64.5 -264.5v-48q0 -128 86 -222l35 -39l67 60l-67 -60q54 -60 120 -102v-242q0 -100 70.5 -170t170.5 -70q66 0 122 33t87 89q20 -2 32 -2q67 0 123 33t87 89q20 -2 31 -2q66 0 122.5 33.5t87.5 89.5
q20 -2 31 -2q100 0 170.5 70t70.5 170v392q0 128 -66 236t-175 165v442q0 37 -27 64t-64 27t-63.5 -26.5t-26.5 -64.5v-501q0 -28 17 -52t44 -34q80 -29 130 -99t50 -157v-392q0 -25 -17.5 -42.5t-42.5 -17.5q-18 0 -37 13q-45 32 -93 9q-51 -25 -51 -82q0 -25 -17.5 -42.5
t-42.5 -17.5q-19 0 -36 12q-45 32 -95 8t-50 -80q0 -25 -17.5 -42.5t-42.5 -17.5q-19 0 -36 12q-45 32 -94 8q-50 -24 -50 -81q0 -25 -18 -42.5t-43 -17.5t-42.5 17.5t-17.5 42.5z" />
</svg>