<svg xmlns="http://www.w3.org/2000/svg" xmlns:xlink="http://www.w3.org/1999/xlink" version="1.1" viewBox="-10 0 2058 2048">
   <path fill="currentColor"
d="M512 1792q0 27 19 45.5t45 18.5t44.5 -18.5t18.5 -45.5v-576v-128h-63q-32 0 -64 -6v710zM576 896h160h160q26 0 45 -18.5t19 -45t-19 -45.5t-45 -19h-160q-40 0 -68.5 -28.5t-28.5 -68t28.5 -67.5t68.5 -28h160q89 0 159 56q70 -56 161 -56q67 0 121 30q37 -44 88.5 -69
t110.5 -25q19 0 37 2q-49 -143 -173 -232.5t-280 -89.5h-192q-98 0 -186.5 38t-153 102t-102.5 153t-38 187v96q0 53 37.5 90.5t90.5 37.5zM256 768v-96q0 -138 53 -262.5t143 -214t214.5 -142.5t261.5 -53h192q137 0 261.5 53t214.5 142.5t143 214t53 262.5v96v256
q0 105 -75 180.5t-181 75.5q-67 0 -121 -30q-37 43 -88.5 68.5t-110.5 25.5q-49 0 -90 -16q-31 65 -93 104.5t-137 39.5q-30 0 -64 -8v328q0 106 -75 181t-181 75t-181 -75t-75 -181v-832q-64 -85 -64 -192zM1600 1024v-256q0 -26 -19 -45t-45 -19t-45.5 19t-19.5 45v64v192
q0 26 19.5 45t45.5 19t45 -19t19 -45zM896 1088h-64v128q0 26 19 45t45 19t45 -19t19 -45v-128v-8q-29 8 -64 8zM1152 992v96q0 26 19 45t45 19t45 -19t19 -45v-64v-192q0 -26 -19 -45t-45 -19t-45 19t-19 45v160z" />
</svg>