<svg xmlns="http://www.w3.org/2000/svg" xmlns:xlink="http://www.w3.org/1999/xlink" version="1.1" viewBox="-10 0 2068 2048">
   <path fill="currentColor"
d="M220 292v1464q0 30 21 51.5t51 21.5h1464q30 0 51 -21.5t21 -51.5v-1123q0 -31 -20 -52l154 -155q41 40 63.5 94.5t22.5 113.5v1122q0 121 -86.5 206.5t-207.5 85.5h-1462q-120 0 -206 -85.5t-86 -206.5v-1464q0 -121 86 -206.5t206 -85.5h1124q58 0 111.5 22t94.5 63
l340 341l-154 155l-342 -341l-2 -4v459q0 46 -32.5 78t-77.5 32h-878q-46 0 -78 -32t-32 -78v-476h-74q-30 0 -51 21.5t-21 51.5zM586 219v365h658v-365h-658zM732 1316q0 -121 86 -206.5t206.5 -85.5t206 85.5t85.5 206.5t-85.5 206.5t-206 85.5t-206.5 -85.5t-86 -206.5z
" />
</svg>