<svg xmlns="http://www.w3.org/2000/svg" xmlns:xlink="http://www.w3.org/1999/xlink" version="1.1" viewBox="-10 0 2067 2048">
   <path fill="currentColor"
d="M3 276q0 -114 80.5 -194.5t193.5 -80.5q102 0 178.5 65.5t92.5 163.5q115 -27 228.5 6t211.5 131l-203 202q-45 -45 -94 -58t-88 -0.5t-70 43.5q-49 50 -49 119t49 119l454 455l-201 202l-456 -456q-90 -89 -120 -212t7 -239q-92 -20 -153 -94.5t-61 -171.5zM595 807
q434 -434 455 -456q90 -90 212 -120.5t237 5.5q14 -100 91.5 -168t180.5 -68q113 0 193 80t80 194q0 104 -68 181.5t-169 91.5q20 79 16 156.5t-42 157.5t-107 149l-200 -203q45 -44 58.5 -93.5t1 -89t-43.5 -70.5q-50 -50 -119 -50t-118 50q-23 23 -227.5 228t-227.5 228z
M1812 1502q100 14 167.5 91t67.5 180q0 114 -80.5 194.5t-193.5 80.5q-99 0 -174 -62.5t-94 -157.5q-82 23 -163.5 19.5t-163 -41.5t-142.5 -106l201 -203q44 45 93.5 58.5t89 1t70.5 -43.5q50 -49 50 -118t-50 -119l-455 -456l202 -201q431 430 455 455q86 86 117 200
t3 228zM1426 1260q-132 132 -216 216.5t-107 107.5l-52.5 52.5l-78.5 78.5q-87 86 -201.5 116.5t-228.5 2.5q-21 93 -96 153.5t-172 60.5q-113 0 -193 -80.5t-80 -194.5q0 -96 60 -171t152 -95q-63 -252 134 -449l201 203q-44 44 -57.5 92.5t-1 88t43.5 71.5q49 49 118 49
t119 -49l455 -455z" />
</svg>