<svg xmlns="http://www.w3.org/2000/svg" xmlns:xlink="http://www.w3.org/1999/xlink" version="1.1" viewBox="-10 0 2068 2048">
   <path fill="currentColor"
d="M1024 738q-129 0 -221 -91.5t-92 -220t92 -220.5t221 -92t221 92t92 220.5t-92 220t-221 91.5zM281 1438q-54 46 -125 40t-116 -60q-46 -55 -39 -124.5t62 -115.5q57 -46 112 -80q48 40 110 40q70 0 120.5 -50t50.5 -120v-8q279 -106 568 -106q230 0 461 68q-6 22 -6 46
q0 70 50 120t121 50q46 0 85.5 -23.5t62.5 -62.5q112 61 188 126q54 45 60.5 115t-38.5 125q-46 54 -116 60t-124 -40q-49 -40 -140.5 -89.5t-205.5 -88.5v390h-795v-390q-114 39 -206 88.5t-140 89.5zM87 1764h1875q35 0 60.5 24.5t25.5 60t-25.5 60.5t-60.5 25h-1875
q-36 0 -61 -25t-25 -60.5t25 -60t61 -24.5zM797 1108.5q0 35.5 25 60.5t60.5 25t60 -25t24.5 -60.5t-24.5 -60t-60 -24.5t-60.5 24.5t-25 60zM1165.5 1308q-35.5 0 -60 25t-24.5 60.5t24.5 60t60 24.5t61 -24.5t25.5 -60t-25.5 -60.5t-61 -25zM342 967.5q0 23.5 -16.5 40
t-40.5 16.5t-40.5 -16.5t-16.5 -40t16.5 -40.5t40.5 -17t40.5 17t16.5 40.5zM1650 1024q-24 0 -40.5 -16.5t-16.5 -40t16.5 -40.5t40.5 -17t40 16.5t16 41t-16 40.5t-40 16z" />
</svg>