<svg xmlns="http://www.w3.org/2000/svg" xmlns:xlink="http://www.w3.org/1999/xlink" version="1.1" viewBox="-10 0 2068 2048">
   <path fill="currentColor"
d="M993 0h64q40 0 67.5 28t27.5 68v43q159 26 293 114t222 222.5t114 293.5h11q52 0 90 37.5t38 90t-37.5 90t-90.5 37.5h-1535q-53 0 -90.5 -37.5t-37.5 -90t37.5 -90t90.5 -37.5h10q26 -159 114 -293.5t222.5 -222.5t293.5 -114v-43q0 -40 28 -68t68 -28zM257 1152h256
v513h159v-513h257v513h192v-513h255v513h161v-513h255v529q1 1 3.5 3t3.5 2l193 128q35 23 48.5 62.5t1.5 80.5q-12 40 -46 65.5t-76 25.5h-1791q-42 0 -76.5 -25.5t-46.5 -65.5q-12 -41 2 -80.5t50 -62.5l192 -128q1 0 4 -2t4 -3v-529h-1z" />
</svg>