<svg xmlns="http://www.w3.org/2000/svg" xmlns:xlink="http://www.w3.org/1999/xlink" version="1.1" viewBox="-10 0 2068 2048">
   <path fill="currentColor"
d="M1816 75l157 157q75 75 75 182t-75 182l-208 208l-4 -5l-64 -63l-384 -384l-68 -69l208 -208q75 -75 181 -75t181 75h1zM967 458q-29 -29 -69 -29t-67 29l-408 409q-29 28 -69 28t-67.5 -28.5t-28 -68t28.5 -67.5l408 -409q84 -85 203 -85t204 85l52 52l68 69l385 384
l64 64l3 4l-67 68l-687 687q-145 144 -324 240t-379 136l-100 20q-49 11 -87 -27t-27 -86l21 -100q39 -200 135 -380t241 -324l619 -619z" />
</svg>