<svg xmlns="http://www.w3.org/2000/svg" xmlns:xlink="http://www.w3.org/1999/xlink" version="1.1" viewBox="-11 0 2068 2048">
   <path fill="currentColor"
d="M1302 342q23 -22 55 -22t53 22l55 55q3 0 9.5 -0.5t9.5 -0.5h102q56 0 102 21l49 -49q23 -22 55 -22t53.5 22.5t22 54t-22.5 53.5l-41 42q39 64 39 134q0 24 14.5 43.5t37.5 30.5q68 31 110 94t42 140q0 62 -27 115t-75 89v103q0 21 -15 36t-36 15h-102q-21 0 -36.5 -15
t-15.5 -36v-51h-205v51q0 21 -15 36t-36 15h-102q-21 0 -36 -15t-15 -36v-57q-61 -13 -103 -46q-2 -1 -6.5 -5.5t-6.5 -5.5q-42 -36 -65.5 -86t-23.5 -107q0 -21 -15 -36t-36 -15t-36 15t-15 36q0 106 56 193t148 130v35q0 42 30.5 72t72.5 30h102v205q0 42 -30 72.5
t-72 30.5h-205q-42 0 -72 -30.5t-30 -72.5v-243q-99 38 -204.5 38t-205.5 -38v243q0 42 -30 72.5t-72 30.5h-205q-42 0 -72.5 -30.5t-30.5 -72.5v-380l-58 130q-12 29 -41.5 40.5t-59 -1t-40.5 -42.5t2 -59l70 -158q25 -56 25 -122q0 -126 48.5 -242t130.5 -201t196 -137
t239 -57h24h79h102q167 0 375 83q8 -9 17 -17l-11 -11q-22 -22 -22 -54t22 -54v-1zM1535 934.5q0 -31.5 -22 -54t-53.5 -22.5t-54.5 22.5t-23 54t23 54t54.5 22.5t53.5 -22.5t22 -54zM1817.5 1011q31.5 0 54 -22.5t22.5 -54t-22.5 -54t-54 -22.5t-54.5 22.5t-23 54t23 54
t54.5 22.5zM1535 652q0 -22 -14.5 -36.5t-36 -14.5t-36.5 14.5t-15 36.5t15 36.5t36.5 14.5t36 -14.5t14.5 -36.5zM1689.5 703q21.5 0 36 -14.5t14.5 -36.5t-14.5 -36.5t-36 -14.5t-37 15t-15.5 36.5t15.5 36t37 14.5z" />
</svg>