<svg xmlns="http://www.w3.org/2000/svg" xmlns:xlink="http://www.w3.org/1999/xlink" version="1.1" viewBox="-10 0 2058 2048">
   <path fill="currentColor"
d="M2018 463v9v440q0 20 -14 27l-370 213v421q0 20 -16 28l-770 443q-1 0 -2.5 1t-3.5 1l-1 0.5l-1 0.5q-2 1 -8 1t-8 -1q-1 0 -2 -1q-2 0 -3.5 -1t-2.5 -1l-770 -443q-16 -8 -16 -28v-1319v-9q0 -1 1 -1t1 -1q0 -2 2 -5q1 0 1.5 -2l0.5 -2l4 -3q0 -1 1 -1t1 -1l4 -3
l384 -221q7 -5 16.5 -5t15.5 5l386 221l1.5 1t2 2t2 1t2 1l1 2t1 1t1 2t1 2.5t1 2t1.5 2.5v1v1q2 2 2 9v823l320 -184v-421q0 -7 2 -9v-1v-1q1 -1 1.5 -3t0.5 -3l2 -2l4 -4q1 -1 2 -1t2 -1l2 -3l386 -222q6 -4 16 -4t16 4l386 222l2 3q1 1 2 1t1.5 1l1 2t1.5 2l2 2l2 6
q0 1 1 1t1 1zM446 69l-320 185l320 184l322 -184zM800 309l-134 78l-186 107v806l134 -78l186 -108v-805zM800 1961v-370l-370 -209v0l-1 -1t-1.5 -1t-2 -1t-2 -1t-1 -2l-0.5 -2l-4 -3v-4q-2 -2 -2 -4v-5l-1 -1t-1 -2v-861l-184 -107l-136 -78v1245zM832 1536l470 -269
l236 -134l-322 -185l-368 213l-336 194zM1570 1554v-366l-184 105l-522 298v370zM1570 1077v-365l-186 -107l-134 -78v366l184 107zM1602 656l320 -184l-320 -186l-322 186zM1634 1077l320 -184v-366l-134 78l-186 107v365z" />
</svg>