<svg xmlns="http://www.w3.org/2000/svg" xmlns:xlink="http://www.w3.org/1999/xlink" version="1.1" viewBox="-11 0 2070 2048">
   <path fill="currentColor"
d="M256 358q0 -64 45 -108.5t109 -44.5t108.5 44.5t44.5 108.5t-44.5 109t-108.5 45t-109 -45t-45 -109zM384 1331v410q0 42 -30 72t-72 30t-72.5 -30t-30.5 -72v-496q-20 22 -48.5 30.5t-58.5 -0.5q-40 -13 -60 -50.5t-7 -77.5l99 -317q30 -96 111.5 -156t181.5 -60h25
q100 0 181.5 60t111.5 156l99 317q13 40 -6.5 77.5t-60.5 50.5q-30 9 -59 0.5t-49 -30.5v496q0 42 -30 72t-72 30t-72 -30t-30 -72v-410h-51zM1024 205q32 0 54 22.5t22 53.5v1485q0 32 -22.5 54.5t-53.5 22.5t-54 -22.5t-23 -54.5v-1485q0 -31 22.5 -53.5t54.5 -22.5z
M1484 358q0 -64 44.5 -108.5t108.5 -44.5t109 44.5t45 108.5t-45 109t-109 45t-108.5 -45t-44.5 -109zM1408 1741v-308h-58q-26 0 -41 -21t-7 -46l28 -86q-13 0 -30 -5q-40 -13 -60 -50.5t-7 -77.5l95 -305q32 -101 117.5 -164.5t191.5 -63.5t192.5 63.5t117.5 164.5l96 305
q13 40 -7 77.5t-61 50.5q-17 5 -30 5l28 86q8 25 -7 46t-41 21h-57v308q0 42 -30.5 72t-72.5 30t-72 -30t-30 -72v-308h-51v308q0 42 -30 72t-72 30t-72 -30t-30 -72z" />
</svg>