<svg xmlns="http://www.w3.org/2000/svg" xmlns:xlink="http://www.w3.org/1999/xlink" version="1.1" viewBox="-10 0 2058 2048">
   <path fill="currentColor"
d="M1920 320v192q0 65 -71 124.5t-191 102.5t-285.5 68.5t-348 25.5t-348.5 -25.5t-286 -68.5t-191 -102.5t-71 -124.5v-192q0 -65 71 -124.5t191 -102t286 -68t348.5 -25.5t348 25.5t285.5 68t191 102t71 124.5zM1702 859q130 -46 218 -114v407q0 65 -71 124.5t-191 102
t-285.5 68t-348 25.5t-348.5 -25.5t-286 -68t-191 -102t-71 -124.5v-407q84 67 220 114q284 101 676.5 101t677.5 -101zM128 1385q84 67 220 114q286 102 676.5 102t677.5 -102q130 -46 218 -114v344q0 65 -71 124t-191 102t-285.5 68t-348 25t-348.5 -25t-286 -68
t-191 -102t-71 -124v-344z" />
</svg>