<svg xmlns="http://www.w3.org/2000/svg" xmlns:xlink="http://www.w3.org/1999/xlink" version="1.1" viewBox="-10 0 2069 2048">
   <path fill="currentColor"
d="M1365 116l1 1q77 -76 179.5 -103.5t205.5 0t179.5 104t104 179t0 205.5t-104.5 179l-406 406l38 38q38 38 38 91t-37.5 90.5t-91 37.5t-91.5 -38l-638 -640q-37 -37 -37 -90t37.5 -90.5t90 -37.5t89.5 37l38 38zM222 1292l482 -482l181 181l-482 483q-20 20 -20 45v145
h145q25 0 45 -20l483 -482l180 181l-481 483q-44 45 -103.5 69t-123.5 24h-170l-159 107q-38 26 -83 21t-77.5 -37.5t-37 -77.5t20.5 -84l106 -159v-170q0 -63 24.5 -122.5t69.5 -104.5z" />
</svg>