<svg xmlns="http://www.w3.org/2000/svg" xmlns:xlink="http://www.w3.org/1999/xlink" version="1.1" viewBox="-10 0 2068 2048">
   <path fill="currentColor"
d="M1024.5 1857q112.5 0 220.5 -30t199 -84t168 -131t130.5 -168t83.5 -199t30 -221t-30 -221t-83.5 -199t-130.5 -168t-168 -130.5t-199 -83.5t-221 -30t-220.5 30t-199 83.5t-168 130.5t-130.5 168t-84 199t-30 221t30 221t84 199t130.5 168t168 131t199.5 84t220.5 30z
M1024.5 0q139.5 0 272 37t244.5 102.5t206.5 160t160.5 207t103 245.5t37 272t-37 272t-103 245.5t-160.5 207t-206.5 160t-244.5 102.5t-272 37t-272 -37t-245 -102.5t-207 -160t-160.5 -207t-103 -245.5t-37 -272t37 -272t103 -245.5t160.5 -207t207 -160t245 -102.5
t272 -37zM1508 1178l-428 400q-25 23 -56 23t-56 -23l-428 -400q-28 -26 -28 -65q0 -37 26.5 -63t63.5 -26h230v-384q0 -52 38 -90t90 -38h128q52 0 90 38t38 90v384h232q36 0 62 26t26 63q0 39 -28 65z" />
</svg>