<svg xmlns="http://www.w3.org/2000/svg" xmlns:xlink="http://www.w3.org/1999/xlink" version="1.1" viewBox="-10 0 2068 2048">
   <path fill="currentColor"
d="M1708 310q158 129 249 315t91 399.5t-91 399.5t-249 316q-25 20 -57 16.5t-52.5 -28t-16.5 -56.5t28 -52q133 -108 208.5 -263t75.5 -332.5t-75.5 -333t-208.5 -263.5q-24 -20 -28 -52t16.5 -56.5t52.5 -28t57 16.5v2zM1514 548q106 86 166 210.5t60 266t-60 266
t-166 211.5q-25 20 -56.5 16t-52 -28.5t-17 -56t27.5 -51.5q80 -65 125 -158t45 -199.5t-45 -199.5t-125 -159q-24 -20 -27.5 -51.5t17 -56t52 -28.5t56.5 16v2zM1320 786q52 44 83 106t31 132.5t-31 132.5t-83 105q-25 21 -56 17.5t-51.5 -28t-17 -56t28.5 -51.5
q56 -45 56 -120q0 -73 -56 -120q-25 -20 -28.5 -51.5t17 -56t51.5 -28t56 17.5zM964 316q27 13 43.5 38t16.5 56v1228q0 31 -16.5 56.5t-43.5 37.5q-27 13 -57.5 8.5t-52.5 -24.5l-432 -384h-218q-84 0 -144 -60.5t-60 -145.5v-204q0 -84 60 -145t144 -61h218l432 -382
q22 -21 52.5 -25.5t57.5 7.5z" />
</svg>