<svg xmlns="http://www.w3.org/2000/svg" xmlns:xlink="http://www.w3.org/1999/xlink" version="1.1" viewBox="-10 0 2068 2048">
   <path fill="currentColor"
d="M966 1594h-397q-93 0 -171.5 -45.5t-124 -124.5t-45.5 -172v-454h-113q-34 0 -63.5 -20t-42.5 -52q-13 -31 -6.5 -65t31.5 -59l227 -228q33 -32 80.5 -32t80.5 32l228 228q24 25 30.5 59t-6.5 65q-13 32 -42 52t-63 20h-114v454q0 48 33.5 81t80.5 33h397q47 0 80.5 33
t33.5 80.5t-33.5 81t-80.5 33.5zM1080 456h398q93 0 171.5 45.5t124 124t45.5 172.5v454h114q35 0 64 19.5t42 50.5q13 32 6.5 66t-31.5 58l-227 228q-33 32 -81 32t-81 -32l-227 -228q-24 -24 -30.5 -58t6.5 -66q13 -31 41.5 -50.5t62.5 -19.5h114v-454q0 -48 -33.5 -82
t-80.5 -34h-398q-47 0 -80.5 -32.5t-33.5 -80t33.5 -80.5t80.5 -33z" />
</svg>