<svg xmlns="http://www.w3.org/2000/svg" xmlns:xlink="http://www.w3.org/1999/xlink" version="1.1" viewBox="-10 0 2068 2048">
   <path fill="currentColor"
d="M26 1255q-26 -119 -26 -235q0 -139 37 -271t102.5 -244t160 -206t206 -160t244 -102.5t270.5 -36.5q116 0 226 24q-423 161 -742.5 483.5t-477.5 747.5zM1822 391q-342 100 -631 308t-493.5 499t-301.5 635q-114 -87 -208 -224q99 -340 302.5 -627.5t489 -492.5
t624.5 -306q121 84 218 208zM1894 1546q86 233 154 502q-231 -59 -490 -154q-185 115 -386 144q147 -276 367 -500.5t489 -370.5q-29 205 -134 379zM2030 880q-387 159 -686 462.5t-458 696.5q-141 -19 -260 -69q102 -315 295 -583.5t459 -465t578 -300.5q54 124 72 259z
" />
</svg>