<svg xmlns="http://www.w3.org/2000/svg" xmlns:xlink="http://www.w3.org/1999/xlink" version="1.1" viewBox="-10 0 2068 2048">
   <path fill="currentColor"
d="M1999 31q47 39 47 98v575q0 79 -75 136t-180.5 57t-180.5 -57t-75 -136.5t75 -135.5t180 -56v-227l-383 77v471q0 79 -75 135.5t-180.5 56.5t-181 -56.5t-75.5 -136t75.5 -136t180.5 -56.5v-383q0 -46 29.5 -81.5t73.5 -44.5l639 -128q59 -12 106 26v2zM299 1216l46 -71
q18 -27 46.5 -41.5t60.5 -14.5h246q33 0 61.5 14.5t45.5 41.5l48 71h106q80 0 136 56t56 136v448q0 79 -56 135.5t-136 56.5h-767q-79 0 -135.5 -56.5t-56.5 -135.5v-448q0 -80 56.5 -136t135.5 -56h107zM767 1631.5q0 -79.5 -55.5 -135t-135 -55.5t-136.5 56t-57 135
t57 135.5t136.5 56.5t135 -56.5t55.5 -136zM1914 1114l-154 358h222q21 0 37.5 11.5t23.5 30.5q8 19 2.5 38.5t-20.5 32.5l-512 448q-17 14 -39.5 15t-40 -12t-23.5 -35t3 -42l152 -358h-222q-20 0 -36 -11.5t-24 -30.5q-7 -19 -2 -38.5t19 -32.5l512 -448q18 -14 40 -15
t40 12t24 35t-3 42h1zM559 877q-19 19 -46.5 19t-45.5 -19l-388 -399q-54 -57 -71.5 -134t7 -153t85.5 -129q83 -69 190 -60.5t183 86.5l40 42l38 -42q77 -78 184.5 -86.5t191.5 60.5q61 53 84 129t5.5 153t-72.5 134z" />
</svg>