<svg xmlns="http://www.w3.org/2000/svg" xmlns:xlink="http://www.w3.org/1999/xlink" version="1.1" viewBox="-10 0 2068 2048">
   <path fill="currentColor"
d="M2044 462q0 -82 -50 -155q-94 -131 -252 -122q-136 9 -454 118l-80 25q-55 20 -208 29q-214 9 -408 63q-415 121 -546 395q-36 87 -46 210v222q0 127 56 243q68 161 252 267q185 107 384 107q287 0 508 -214q109 -113 218 -290q70 -121 130 -197q63 -75 206 -138
q224 -101 278 -256q16 -37 16 -88v-215zM1930 508q-30 77 -78 114q-46 36 -144 79q-177 85 -244 168q-70 90 -142 219q-78 137 -202 260q-184 184 -428 184q-180 0 -330.5 -94t-205.5 -216q-84 -197 -8 -361q114 -232 474 -332q160 -49 386 -58q158 -9 234 -38l80 -25
q316 -105 424 -114h12q89 0 148 80q45 66 24 134zM1758 408q-114 4 -398 105l-80 25q-95 33 -268 42q-214 9 -360 54q-319 93 -404 273q-54 127 8 273q42 93 168 168t268 75q203 0 354 -155q94 -95 180 -235q58 -118 154 -235q85 -97 282 -197q81 -37 116 -61q31 -23 48 -69
q0 -21 -14 -34q-20 -29 -54 -29zM684 1176q-102 0 -182 -55q-78 -54 -78 -130t78 -130q80 -55 182 -55q104 0 184 55q76 53 76 129.5t-76 130.5q-80 55 -184 55z" />
</svg>