<svg xmlns="http://www.w3.org/2000/svg" xmlns:xlink="http://www.w3.org/1999/xlink" version="1.1" viewBox="-10 0 2058 2048">
   <path fill="currentColor"
d="M448 1793q0 26 19 45t45 19h1024q26 0 45 -19t19 -45v-1153h-320q-52 0 -90 -38t-38 -90v-320h-640q-26 0 -45 19t-19 45v1537zM512 0h661q106 0 181 75l363 362q75 75 75 181v1175q0 106 -75 180.5t-181 74.5h-1024q-106 0 -181 -74.5t-75 -180.5v-1537q0 -106 75 -181
t181 -75zM731 965l101 333l100 -333q9 -30 35 -49.5t57 -19.5q32 0 57.5 19t34.5 50l100 333l99 -333q11 -38 46.5 -57t73.5 -8t56.5 46.5t7.5 73.5l-191 640q-9 30 -35 49.5t-57 19.5q-32 0 -57.5 -19t-34.5 -50l-100 -333l-100 333q-9 30 -35 49.5t-57 19.5
q-32 0 -57.5 -19t-34.5 -50l-192 -640q-11 -38 7.5 -73.5t56.5 -46.5t73 8t46 57z" />
</svg>