<svg xmlns="http://www.w3.org/2000/svg" xmlns:xlink="http://www.w3.org/1999/xlink" version="1.1" viewBox="-10 0 2068 2048">
   <path fill="currentColor"
d="M1828 0q91 0 155.5 64t64.5 155v1610q0 91 -64.5 155t-155.5 64h-1608q-91 0 -155.5 -64t-64.5 -155v-1610q0 -91 64.5 -155t155.5 -64h1608zM661.5 1311q120.5 0 204.5 -84.5t84 -205.5t-84 -205t-204.5 -84t-206 84t-85.5 205t85.5 205.5t206 84.5zM1387.5 1311
q120.5 0 205.5 -84.5t85 -205.5t-85 -205t-205.5 -84t-205 84t-84.5 205t84.5 205.5t205 84.5z" />
</svg>