<svg xmlns="http://www.w3.org/2000/svg" xmlns:xlink="http://www.w3.org/1999/xlink" version="1.1" viewBox="-10 0 2058 2048">
   <path fill="currentColor"
d="M1091 1515v-1150q0 -72 -67 -72t-67 72v1150q-139 51 -139 193q0 83 59 142t147 59t147 -59q58 -58 58 -142q0 -142 -138 -193zM1229 1435v-1230q0 -89 -58 -147t-147 -58q-90 0 -147 60q-59 62 -59 145v1230q-134 101 -134 273q0 142 99 241t241 99t241 -99t99 -241
q0 -171 -135 -273zM1024 1980q-115 0 -193 -81q-80 -83 -80 -191q0 -160 134 -240v-1263q0 -55 40 -96q41 -42 99 -42q54 0 94 40t40 98v1263q138 75 138 240q0 109 -79 191q-78 81 -193 81z" />
</svg>