<svg xmlns="http://www.w3.org/2000/svg" xmlns:xlink="http://www.w3.org/1999/xlink" version="1.1" viewBox="-10 0 2058 2048">
   <path fill="currentColor"
d="M640 0h768q106 0 181 75t75 181v1152q0 130 -51 248.5t-136.5 204t-204 136.5t-248.5 51t-248.5 -51t-204 -136.5t-136.5 -204t-51 -248.5v-1152q0 -106 75 -181t181 -75zM1024 1665q79 0 135.5 -56.5t56.5 -136.5t-56 -136t-136 -56t-136 56t-56 136t56.5 136.5
t135.5 56.5zM1216 960q0 -79 -56 -135t-136 -56t-136 56t-56 135q0 80 56 136t136 56t136 -56t56 -136zM1024 640q80 0 136 -56t56 -136t-56 -136t-136 -56t-136 56t-56 136t56 136t136 56z" />
</svg>