<svg xmlns="http://www.w3.org/2000/svg" xmlns:xlink="http://www.w3.org/1999/xlink" version="1.1" viewBox="-10 0 2068 2048">
   <path fill="currentColor"
d="M2048 292v1464q0 121 -86 206.5t-206 85.5h-1464q-120 0 -206 -85.5t-86 -206.5v-1464q0 -121 86 -206.5t206 -85.5h1464q120 0 206 85.5t86 206.5zM428 1317h214q34 0 58 -42q213 -376 228 -402l-146 -254q-24 -40 -58 -40h-214q-20 0 -28 13.5t2 33.5l142 247v1
l-224 396q-10 16 -1 31.5t27 15.5zM1176 1165l470 -827q9 -19 0.5 -32.5t-28.5 -13.5h-214q-33 0 -56 40q-38 66 -100 175.5t-84 148.5q-270 478 -290 510l302 550q24 40 60 40h212q21 0 29 -14t-1 -32z" />
</svg>