<svg xmlns="http://www.w3.org/2000/svg" xmlns:xlink="http://www.w3.org/1999/xlink" version="1.1" viewBox="-10 0 2067 2048">
   <path fill="currentColor"
d="M1023 128q42 0 80 21.5t59 58.5l863 1472q22 37 22 80t-21 80t-58 58.5t-80 21.5h-1728q-43 0 -80 -21.5t-58 -58.5q-21 -38 -21 -80.5t21 -79.5l864 -1472q22 -37 58.5 -58.5t78.5 -21.5zM1023.5 640q-39.5 0 -67.5 28t-28 68v449q0 40 28 67.5t67.5 27.5t68 -27.5
t28.5 -67.5v-449q0 -40 -28.5 -68t-68 -28zM1151 1536.5q0 -52.5 -37.5 -90.5t-90 -38t-90 37.5t-37.5 90.5t37.5 91t90 38t90 -38t37.5 -90.5z" />
</svg>