<svg xmlns="http://www.w3.org/2000/svg" xmlns:xlink="http://www.w3.org/1999/xlink" version="1.1" viewBox="-10 0 2058 2048">
   <path fill="currentColor"
d="M1024 448q-26 0 -45 -19t-19 -45v-64q0 -133 93 -226.5t226 -93.5h64q26 0 45.5 19t19.5 45v64q0 133 -93.5 226.5t-226.5 93.5h-64zM128 1152q0 -118 28 -229.5t81 -204.5t141 -149.5t198 -56.5q134 0 331 77q117 45 235 0q197 -77 330 -77q110 0 198 56.5t141 149.5
t81 204.5t28 229.5q0 187 -55 355.5t-144.5 285.5t-205.5 186t-235 69q-72 0 -205 -45q-51 -17 -101 0q-132 45 -206 45q-95 0 -189.5 -43.5t-175 -125t-142.5 -190t-97.5 -248t-35.5 -289.5z" />
</svg>