<svg xmlns="http://www.w3.org/2000/svg" xmlns:xlink="http://www.w3.org/1999/xlink" version="1.1" viewBox="-10 0 2068 2048">
   <path fill="currentColor"
d="M1074 602h-960q-46 0 -80 34t-34 80v84q0 46 33 82t81 36h960q46 0 82 -36t36 -82v-84q0 -46 -36 -80q-37 -34 -82 -34zM1074 1104h-960q-46 0 -80 34q-34 32 -34 80v84q0 52 33 85t81 33h960q48 0 82 -36q36 -36 36 -82v-84q0 -48 -36 -80q-37 -34 -82 -34zM2018 952
l-54 -54l-6 -4l-538 -540q-32 -30 -74 -30q-40 0 -70 30l-54 50q-30 30 -30 72t30 72l472 476l-472 476q-30 28 -30 71t30 73l54 50q30 30 70 30t74 -30l538 -540l6 -4l54 -54q30 -30 30 -72t-30 -72z" />
</svg>