<svg xmlns="http://www.w3.org/2000/svg" xmlns:xlink="http://www.w3.org/1999/xlink" version="1.1" viewBox="-10 0 2068 2048">
   <path fill="currentColor"
d="M1024.5 256q-155.5 0 -298 61t-245.5 163.5t-164 245t-61 298.5t61 298.5t164 245.5t245.5 164t298 61t297.5 -61t245 -164t164 -245.5t61 -298.5t-61 -298.5t-164 -245t-245 -163.5t-297.5 -61zM1024.5 2048q-139.5 0 -272 -37t-245 -102.5t-207 -160t-160.5 -207
t-103 -245.5t-37 -272t37 -272t103 -245.5t160.5 -207t207 -160t245 -102.5t272 -37t272 37t244.5 102.5t206.5 160t160.5 207t103 245.5t37 272t-37 272t-103 245.5t-160.5 207t-206.5 160t-244.5 102.5t-272 37zM800 1024h-288q-53 0 -89.5 -37.5t-26.5 -88.5
q21 -104 74 -194.5t130 -158.5q41 -35 91.5 -23t76.5 59l144 249q-51 30 -81.5 82t-30.5 112zM912 1218q50 31 112.5 31t111.5 -31l144 250q28 45 12.5 95.5t-64.5 67.5q-99 34 -204 34t-204 -34q-49 -17 -64 -67.5t12 -95.5zM1248 1024v-1q0 -60 -30.5 -112t-81.5 -82
l144 -249q27 -47 77 -58.5t91 22.5q77 68 130 158.5t74 193.5q10 51 -26 89.5t-90 38.5h-288zM1024.5 1152q-52.5 0 -90.5 -38t-38 -90t38 -90t90.5 -38t90 37.5t37.5 90.5t-37.5 90.5t-90 37.5z" />
</svg>