<svg xmlns="http://www.w3.org/2000/svg" xmlns:xlink="http://www.w3.org/1999/xlink" version="1.1" viewBox="-10 0 2068 2048">
   <path fill="currentColor"
d="M1280 384h-512l-190 -284q-21 -32 -3 -66t57 -34h784q39 0 57 34t-3 66zM768 512h512q5 3 52 33q70 45 113 74t126.5 95.5t139 125t125 152t111.5 188.5t71.5 222t29.5 263q0 104 -51.5 192.5t-139.5 139.5t-193 51h-1280q-105 0 -193 -51t-139.5 -139.5t-51.5 -192.5
q0 -136 29.5 -263t71.5 -222t112 -188.5t125 -152t139 -125t126.5 -95.5t112.5 -74v0q48 -30 52 -33zM1104 864q0 -33 -23 -56.5t-56.5 -23.5t-57 23.5t-23.5 56.5v56q-49 11 -88 34q-104 64 -104 175q0 106 98 164q41 24 144 55l6 2q74 22 112 44q24 15 24 32q0 28 -24 43
q-32 20 -86 18q-20 0 -46 -6t-40 -10.5t-54 -17.5q-8 -3 -28 -9q-32 -10 -61.5 4.5t-40 45.5t4.5 60.5t45 40.5q4 1 26 8v0q78 28 112 35v58q0 33 23.5 56.5t57 23.5t56.5 -23.5t23 -56.5v-55q53 -11 92 -36q46 -29 73 -75t27 -105q-2 -106 -98 -167q-13 -8 -27.5 -15.5
t-33.5 -14.5t-28.5 -10t-33 -10.5t-27.5 -8.5l-2 -1q-78 -23 -112 -43q-15 -8 -18.5 -13.5t-3.5 -12.5q0 -23 24 -37q34 -20 86 -20q48 0 126 21q32 8 59.5 -8.5t36.5 -48.5t-7 -60.5t-49 -37.5q-46 -13 -84 -19v-55z" />
</svg>