<svg xmlns="http://www.w3.org/2000/svg" xmlns:xlink="http://www.w3.org/1999/xlink" version="1.1" viewBox="-10 0 2068 2048">
   <path fill="currentColor"
d="M2048 1781v-1513q0 -110 -79 -189t-189 -79h-1512q-110 0 -189 79t-79 189v1513q0 109 79 188t189 79h1512q110 0 189 -79t79 -188zM602 1768q-79 0 -140 -59q-60 -59 -60 -142q0 -85 58 -144q58 -60 142 -60t144 60t60 144q0 83 -60 142t-144 59zM602 1229
q-78 0 -139 -61t-61 -140q0 -85 58 -144q59 -61 142 -61q84 0 144 61q60 60 60 144t-60 142q-60 59 -144 59zM602 690q-79 0 -140 -59q-60 -59 -60 -142q0 -85 58 -144q59 -61 142 -61q84 0 144 61q60 60 60 144q0 83 -60 142t-144 59zM1412 1768q-83 0 -144 -59
q-60 -59 -60 -142t60 -144q60 -60 144 -60t142 60q58 59 58 144q0 84 -58 142q-58 59 -142 59zM1412 1229q-83 0 -144 -59q-60 -59 -60 -142t61 -144t143 -61q83 0 142 61q58 59 58 144q0 84 -58 142q-58 59 -142 59zM1412 690q-83 0 -144 -59q-60 -59 -60 -142t61 -144
t143 -61q83 0 142 61q58 59 58 144q0 84 -58 142q-58 59 -142 59z" />
</svg>