<svg xmlns="http://www.w3.org/2000/svg" xmlns:xlink="http://www.w3.org/1999/xlink" version="1.1" viewBox="-10 0 2058 2048">
   <path fill="currentColor"
d="M512 512q0 -104 40.5 -199t109 -163.5t163.5 -109t199.5 -40.5t199 40.5t163 109t109 163.5t40.5 199t-40.5 199t-109 163.5t-163 109t-199 40.5t-199.5 -40.5t-163.5 -109t-109 -163.5t-40.5 -199zM890 1313q-19 -31 -0.5 -64t56.5 -33h78h80q37 0 55.5 32.5t-1.5 64.5
l-74 124l132 495l146 -587q6 -25 26.5 -38t43.5 -7q139 35 250 125t174.5 221.5t63.5 279.5q0 50 -36 86t-86 36h-526h-2h-22h-448h-22h-528q-50 0 -86 -35.5t-36 -86.5q0 -148 63.5 -279.5t174.5 -221.5t250 -125q23 -7 44 6.5t28 38.5l144 587l132 -495z" />
</svg>