<svg xmlns="http://www.w3.org/2000/svg" xmlns:xlink="http://www.w3.org/1999/xlink" version="1.1" viewBox="-10 0 2067 2048">
   <path fill="currentColor"
d="M1300 769v419h-117v498h-317v-498h-117v-419q0 -27 19 -46q20 -20 46 -20h421q23 0 45 20q20 22 20 46zM881 506q0 -144 142 -144q143 0 143 144q0 143 -143 143q-142 0 -142 -143zM1022 0q215 0 406 80.5t326.5 217.5t214 326.5t78.5 399.5q0 178 -55 339t-152 284.5
t-225.5 214.5t-280.5 138.5t-312 47.5q-204 0 -392 -80.5t-326 -216.5t-220.5 -326.5t-82.5 -400.5q0 -163 49 -317t141 -281t216 -223t283 -149.5t332 -53.5zM1026 184q-178 0 -336 70.5t-268 186.5t-173.5 268.5t-63.5 314.5q0 134 42.5 260.5t120.5 230t181 182
t231.5 121.5t265.5 43q106 0 210 -27.5t196.5 -77.5t171.5 -125.5t136.5 -166.5t90 -204t32.5 -236q0 -173 -66 -329t-178 -268t-266.5 -177.5t-326.5 -65.5z" />
</svg>