<svg xmlns="http://www.w3.org/2000/svg" xmlns:xlink="http://www.w3.org/1999/xlink" version="1.1" viewBox="-10 0 2068 2048">
   <path fill="currentColor"
d="M1940 811h108l-318 624h-114l90 -174l-196 -371q16 34 16 76v210q0 59 2 85h-94q-4 -29 -4 -64q-37 45 -84 63.5t-114 18.5q-91 0 -142.5 -41.5t-51.5 -102.5q0 -17 2 -30q-20 78 -83.5 126t-150.5 48q-58 0 -107 -20t-81 -59q0 35 -4 62h-100q2 -50 2 -106v-543h104v258
q64 -77 188 -77q44 0 85.5 15t77 44t56.5 77t21 108q0 25 -4 52q16 -56 77.5 -82t168.5 -28q87 -2 132 -2v-10q0 -106 -130 -106q-48 0 -79 19t-33 51h-108q4 -39 26 -67.5t55.5 -43.5t69.5 -21.5t77 -6.5q153 0 202 84l-34 -66h120l176 352zM780 1209q72 0 116 -47.5
t44 -124.5q0 -78 -44 -125t-116 -47q-71 0 -115.5 47.5t-44.5 124.5t45 124.5t115 47.5zM1422 1058v-11q-84 0 -126 2q-76 2 -113 19.5t-37 61.5q0 34 27.5 58t84.5 24q79 0 121.5 -40.5t42.5 -113.5zM106 1063q2 44 22 77t49 49t63.5 20.5t66 -3.5t56 -27.5t33.5 -47.5h106
q-7 39 -31 69t-58 46.5t-71.5 24.5t-77.5 8q-131 0 -197.5 -65t-66.5 -172q0 -116 67 -182t199 -66q114 0 182 60.5t68 180.5v28h-410zM410 995q-2 -42 -23.5 -73t-53.5 -45.5t-69 -14.5t-70 13.5t-57 45t-29 74.5h302z" />
</svg>