<svg xmlns="http://www.w3.org/2000/svg" xmlns:xlink="http://www.w3.org/1999/xlink" version="1.1" viewBox="-10 0 2068 2048">
   <path fill="currentColor"
d="M1980 991l-804 -805q-64 -64 -156 -64t-156 64l-796 796q-68 67 -68 158t68 158l472 472q66 67 84 82q28 25 78 49q51 25 112 25h428q61 0 112 -25q50 -24 78 -49q17 -15 84 -82l464 -463q68 -68 68 -158t-68 -158zM800 1492h-38q-24 0 -42 -17l-76 -76q-16 -17 0 -33
l358 -359q18 -26 34 0l122 118q13 22 0 34l-316 316q-12 17 -42 17zM1158 1635l-80 80q-16 17 -38 17h-42q-20 0 -38 -17l-80 -80q-12 -12 0 -33l122 -123q22 -12 34 0l122 123q17 16 0 33zM1162 683l-556 556q-26 17 -42 17h-38q-24 0 -42 -17l-76 -76q-12 -21 0 -33
l598 -599q18 -26 34 0l122 118q13 22 0 34z" />
</svg>