<svg xmlns="http://www.w3.org/2000/svg" xmlns:xlink="http://www.w3.org/1999/xlink" version="1.1" viewBox="-10 0 2068 2048">
   <path fill="currentColor"
d="M292 219q-30 0 -51 21.5t-21 51.5v1464q0 30 21 51.5t51 21.5h1464q30 0 51 -21.5t21 -51.5v-1464q0 -30 -21 -51.5t-51 -21.5h-1464zM0 292q0 -121 86 -206.5t206 -85.5h1464q120 0 206 85.5t86 206.5v1464q0 121 -86 206.5t-206 85.5h-1464q-120 0 -206 -85.5
t-86 -206.5v-1464zM1024 584q46 0 80 36l476 512q22 24 27 56.5t-7 62.5q-13 30 -40.5 47.5t-59.5 17.5h-952q-32 0 -59.5 -17.5t-40.5 -47.5q-12 -30 -7 -62.5t27 -56.5l476 -512q34 -36 80 -36z" />
</svg>