<svg xmlns="http://www.w3.org/2000/svg" xmlns:xlink="http://www.w3.org/1999/xlink" version="1.1" viewBox="-10 0 2068 2048">
   <path fill="currentColor"
d="M540 470l-104 299h1176l-104 -299q-14 -38 -47.5 -62t-74.5 -24h-724q-40 0 -74 24t-48 62zM158 787l142 -402q40 -116 140 -186.5t222 -70.5h724q123 0 222.5 70.5t139.5 186.5l142 402q70 29 114 93.5t44 143.5v577v192q0 52 -38 89.5t-90 37.5h-128q-53 0 -90.5 -37
t-37.5 -90v-192h-1280v192q0 53 -37.5 90t-90.5 37h-128q-52 0 -90 -37.5t-38 -89.5v-192v-577q0 -79 44 -143.5t114 -93.5zM512 1152q0 -52 -38 -90t-90.5 -38t-90 37.5t-37.5 90.5t37.5 90.5t90 37.5t90.5 -38t38 -90zM1664.5 1280q52.5 0 90 -37.5t37.5 -90.5
t-37.5 -90.5t-90 -37.5t-90.5 38t-38 90t38 90t90.5 38z" />
</svg>