<svg xmlns="http://www.w3.org/2000/svg" xmlns:xlink="http://www.w3.org/1999/xlink" version="1.1" viewBox="-10 0 2068 2048">
   <path fill="currentColor"
d="M1643 925l-90 90l-798 798q-63 63 -149 89l-481 142q-26 7 -52 0.5t-44 -25.5q-40 -40 -24 -94l141 -483q26 -86 89 -149l798 -799l90 -90l45 -45l136 135l249 250l136 135zM642 1598v2h-128q-27 0 -45.5 -19t-18.5 -45v-129l-91 36q-22 26 -28 54l-93 313l314 -92
q29 -10 53 -28zM1452 75h2q75 -75 181 -75t181 75l157 157q75 75 75 181t-75 181l-59 59l-90 90l-45 45l-136 -135l-248 -249l-137 -136l47 -45l90 -91zM1263 747q18 -19 18 -45t-18.5 -45t-45 -19t-44.5 19l-577 576q-19 19 -19 45.5t18.5 45.5t45 19t45.5 -19z" />
</svg>