<svg xmlns="http://www.w3.org/2000/svg" xmlns:xlink="http://www.w3.org/1999/xlink" version="1.1" viewBox="-10 0 2068 2048">
   <path fill="currentColor"
d="M2005 305h-1l-271 178q314 115 314 350v639q0 93 -75.5 174t-211.5 141v-410q0 -39 -28.5 -68t-68 -29t-67.5 29t-28 68v477q-202 55 -448 64v-414q0 -39 -28.5 -67.5t-68 -28.5t-67 28.5t-27.5 67.5v414q-247 -9 -448 -64v-477q0 -39 -29 -68t-68.5 -29t-67 28.5
t-27.5 68.5v410q-137 -60 -212.5 -141t-75.5 -174v-639q0 -93 52 -169t144.5 -127.5t222.5 -86t280 -50.5t324 -16q254 0 457 34l418 -273q33 -21 72 -13.5t60.5 40.5t14 72.5t-40.5 60.5zM1230 583q-114 -7 -206 -7q-422 0 -654 91q-177 70 -177 166q0 3 2 9t13 21t29 31.5
t54.5 38.5t85.5 43q121 53 288 83t358.5 30t358.5 -30t289 -83q48 -21 85 -43t55 -38.5t29 -31t13.5 -21t2.5 -9.5q0 -96 -178 -166q-56 -22 -157 -45l-444 290q-33 22 -72.5 14t-61 -41t-13.5 -72t41 -61z" />
</svg>