<svg xmlns="http://www.w3.org/2000/svg" xmlns:xlink="http://www.w3.org/1999/xlink" version="1.1" viewBox="-10 0 2068 2048">
   <path fill="currentColor"
d="M2048 369l-2 39q-64 2 -107 35t-71 94q-397 921 -496 1147h-44l-262 -618q-30 61 -145 281.5t-173 336.5q0 1 -24 0.5t-24 -1.5q-77 -182 -231 -533t-225 -519q-19 -44 -59.5 -95t-92 -89t-90.5 -38q0 -4 -1 -21t-1 -25h518v45q-35 2 -71 14.5t-58.5 38t-8.5 56.5
q19 45 190 440t212 484q21 -42 66.5 -129t100.5 -191t73 -138q-17 -34 -112 -249t-120 -262q-11 -20 -31.5 -33.5t-48 -19t-49 -7.5t-51.5 -3v-45l456 1v42q-53 2 -83 22.5t-11 60.5q31 65 79 171.5t75 164.5q98 -189 154 -323q21 -48 -9 -69.5t-115 -24.5q1 -5 1 -22t1 -22
h151h160t83 -1v43q-56 3 -107 30t-79 71l-190 393q13 30 115.5 261.5t106.5 240.5l392 -904q-10 -26 -30.5 -45t-44 -28t-42.5 -13t-35 -5v-44l408 3z" />
</svg>