<svg xmlns="http://www.w3.org/2000/svg" xmlns:xlink="http://www.w3.org/1999/xlink" version="1.1" viewBox="-10 0 2058 2048">
   <path fill="currentColor"
d="M1006 2q18 -3 37 0l800 160q33 7 55 33.5t22 60.5t-22 61t-55 34l-306 61v228q0 104 -41 199t-109.5 163.5t-163.5 109t-199.5 40.5t-199 -40.5t-163 -109t-109 -163.5t-40.5 -199v-228l-191 -39v260l62 315q5 30 -13 53q-20 24 -49 24h-128q-31 0 -50 -24
q-20 -24 -13 -53l63 -315v-287q-29 -10 -46.5 -35t-17.5 -55q0 -34 22 -60.5t55 -33.5zM576 1312q32 -10 63.5 -1t54.5 34l284 302q18 20 46 20t47 -20l284 -302q23 -25 54.5 -34t63.5 1q197 63 322 232t125 382q0 51 -36 86.5t-86 35.5h-1547q-51 0 -86.5 -36t-35.5 -86
q0 -213 124.5 -382t322.5 -232z" />
</svg>