<svg xmlns="http://www.w3.org/2000/svg" xmlns:xlink="http://www.w3.org/1999/xlink" version="1.1" viewBox="-10 0 2068 2048">
   <path fill="currentColor"
d="M342 114h568q93 0 160.5 67t67.5 161v682h56q130 0 222 92t92 221v114q0 35 24.5 60.5t60 25.5t60.5 -25.5t25 -60.5v-440q-88 -28 -144 -103t-56 -169v-113q0 -23 17 -40t41 -17h56v-170q0 -23 17 -40t40.5 -17t40 17t16.5 40v170h114v-170q0 -23 17 -40t40.5 -17t40 17
t16.5 40v170h56q24 0 41 17t17 40v113q0 94 -56 169t-144 103v440q0 106 -75 181t-180.5 75t-181 -75t-75.5 -181v-114q0 -59 -41 -100.5t-101 -41.5h-56v512q48 0 81 33.5t33 80.5t-33 80t-81 33h-1024q-47 0 -80.5 -33t-33.5 -80t33.5 -80.5t80.5 -33.5v-1365
q0 -94 67 -161t161 -67zM771.5 408q-15.5 -10 -34.5 -9t-33 13l-400 341q-13 11 -17.5 29t2 34.5t21 26.5t32.5 10h206l-90 267q-5 18 1 35.5t21.5 28t35 9.5t34.5 -13l398 -340q13 -11 17.5 -29.5t-1.5 -34.5t-21 -26.5t-33 -10.5h-206l90 -265q6 -18 -0.5 -37t-22 -29z
" />
</svg>