<svg xmlns="http://www.w3.org/2000/svg" xmlns:xlink="http://www.w3.org/1999/xlink" version="1.1" viewBox="-10 0 2068 2048">
   <path fill="currentColor"
d="M204 538v281h308v-307h-282q-10 0 -18 8t-8 18zM1746 819l-258 -307h-260v307h518zM1024 819v-307h-308v307h308zM1894 1433h-50q0 127 -90.5 217.5t-218 90.5t-217.5 -90t-90 -218h-408q0 128 -90 218t-217.5 90t-218 -90.5t-90.5 -217.5h-50q-64 0 -109 -44.5
t-45 -108.5v-742q0 -95 67.5 -163t162.5 -68h384h512h362q96 0 156 73l356 421q48 56 48 132v347q0 64 -45 108.5t-109 44.5zM1690 1433q0 -64 -45.5 -108.5t-109 -44.5t-108.5 44.5t-45 108.5t45 109t108.5 45t109 -45t45.5 -109zM512.5 1587q63.5 0 108.5 -45t45 -109
t-45 -108.5t-108.5 -44.5t-108 44.5t-44.5 108.5t44.5 109t108 45z" />
</svg>