<svg xmlns="http://www.w3.org/2000/svg" xmlns:xlink="http://www.w3.org/1999/xlink" version="1.1" viewBox="-10 0 2068 2048">
   <path fill="currentColor"
d="M228 398q-24 0 -41 16.5t-17 39.5v1138q0 24 17 41t41 17h1592q23 0 40.5 -17t17.5 -41v-1138q0 -23 -17.5 -39.5t-40.5 -16.5h-1592zM0 454q0 -93 67 -159.5t161 -66.5h1592q93 0 160.5 66.5t67.5 159.5v1138q0 94 -67.5 161t-160.5 67h-1592q-94 0 -161 -67t-67 -161
v-1138zM342 682.5q0 -47.5 33 -81t80.5 -33.5t81 33.5t33.5 81t-33.5 80.5t-81 33t-80.5 -33t-33 -80.5zM710 682.5q0 -35.5 25.5 -60t60.5 -24.5h796q36 0 61 24.5t25 60t-25 60.5t-61 25h-796q-35 0 -60.5 -25t-25.5 -60.5zM710 1023.5q0 -35.5 25.5 -60.5t60.5 -25h796
q36 0 61 25t25 60.5t-25 60t-61 24.5h-796q-35 0 -60.5 -24.5t-25.5 -60zM710 1364.5q0 -35.5 25.5 -60t60.5 -24.5h796q36 0 61 24.5t25 60t-25 60.5t-61 25h-796q-35 0 -60.5 -25t-25.5 -60.5zM455.5 1138q-47.5 0 -80.5 -33.5t-33 -81t33 -80.5t80.5 -33t81 33t33.5 80.5
t-33.5 81t-81 33.5zM342 1364.5q0 -47.5 33 -80t80.5 -32.5t81 32.5t33.5 80t-33.5 80.5t-81 33t-80.5 -33t-33 -80.5z" />
</svg>