<svg xmlns="http://www.w3.org/2000/svg" xmlns:xlink="http://www.w3.org/1999/xlink" version="1.1" viewBox="-10 0 2058 2048">
   <path fill="currentColor"
d="M768 834q0 85 -41 157.5t-108 114.5q-104 66 -167 174h887q-63 -108 -167 -174q-67 -42 -107.5 -114.5t-40.5 -157.5v-578h-256v578zM1279 256v578q0 35 33 56q63 41 123 100l157 -157l-28 -29q-28 -28 -28 -67.5t28.5 -67.5t68 -28t67.5 28l96 95l95 97q29 29 29 68
t-28.5 67t-68 28t-67.5 -28l-28 -28l-174 173q110 183 110 395q0 234 -129 427q-27 41 -74.5 63t-101.5 22h-927q-53 0 -100 -22t-75 -63q-129 -193 -129 -427q0 -200 95 -370.5t257 -275.5q31 -20 31 -56v-578q-52 0 -89.5 -37.5t-37.5 -90.5t37.5 -90.5t89.5 -37.5h65h639
h64q53 0 91 38t38 90t-38 90t-91 38z" />
</svg>