<svg xmlns="http://www.w3.org/2000/svg" xmlns:xlink="http://www.w3.org/1999/xlink" version="1.1" viewBox="-10 0 2068 2048">
   <path fill="currentColor"
d="M1024.5 512q-111.5 0 -217.5 29.5t-196 82.5t-166 128.5t-128.5 165t-82.5 196t-30 217.5v307q0 42 -30 72.5t-71.5 30.5t-72 -30.5t-30.5 -72.5v-307q0 -139 37 -272t103 -245t160.5 -206.5t207 -160.5t245 -103t272 -37t272 37t244.5 103t206.5 160.5t160.5 206.5
t103 245t37 272v307q0 42 -30.5 72.5t-72 30.5t-71.5 -30.5t-30 -72.5v-307q0 -111 -29.5 -217.5t-82.5 -196t-128.5 -165t-165.5 -128.5t-196 -82.5t-217.5 -29.5zM1024.5 1126q-84.5 0 -144.5 60t-60 145v307q0 42 -31 72.5t-72.5 30.5t-72 -30.5t-30.5 -72.5v-307
q0 -111 55 -205.5t149.5 -149t206 -54.5t205.5 54.5t149 149t55 205.5v307q0 42 -30.5 72.5t-72 30.5t-72.5 -30.5t-31 -72.5v-307q0 -85 -59.5 -145t-144 -60zM512 1331v307q0 42 -30 72.5t-72 30.5t-72 -30.5t-30 -72.5v-307q0 -146 56.5 -278.5t152.5 -228.5t229 -153
t278.5 -57t278.5 57t228.5 153t152 228.5t56.5 278.5v307q0 42 -30 72.5t-72 30.5t-72 -30.5t-30 -72.5v-307q0 -104 -40.5 -199t-109 -163.5t-163.5 -109t-198.5 -40.5t-198.5 40.5t-163.5 109t-109.5 163.5t-41 199z" />
</svg>