<svg xmlns="http://www.w3.org/2000/svg" xmlns:xlink="http://www.w3.org/1999/xlink" version="1.1" viewBox="-10 0 2068 2048">
   <path fill="currentColor"
d="M1824 896h-576q-40 0 -68 -28t-28 -68v-576q0 -30 15.5 -53.5t43 -35t56 -5.5t49.5 26l158 160l294 -292q24 -24 56 -24q30 0 54 24l146 146q22 22 22 54t-22 56l-292 292l158 160q21 20 27 48.5t-5 55.5q-11 28 -35 44t-53 16zM1824 1152q29 0 53 16t35 44q11 27 5 55
t-27 49l-158 160l292 294q24 22 24 54t-24 54l-146 148q-24 22 -54 22q-32 0 -56 -24l-294 -292l-158 160q-21 20 -49.5 26t-55.5 -5.5t-43 -35.5t-16 -53v-576q0 -39 28 -67.5t68 -28.5h576zM800 1152q39 0 67.5 28.5t28.5 67.5v576q0 29 -16.5 53t-43.5 35q-27 12 -55 6
t-49 -26l-160 -160l-294 292q-22 24 -54 24t-54 -24l-146 -146q-24 -22 -24 -54t24 -54l292 -294l-160 -160q-20 -21 -26 -49t6 -55q11 -28 35 -44t53 -16h576zM224 896q-29 0 -53 -16t-35.5 -43.5t-5.5 -56t26 -48.5l160 -160l-292 -292q-24 -24 -24 -56t24 -54l146 -146
q22 -24 54 -24t54 24l294 292l160 -160q21 -20 49 -26t55.5 5.5t43.5 35t16 53.5v576q0 40 -28.5 68t-67.5 28h-576z" />
</svg>