<svg xmlns="http://www.w3.org/2000/svg" xmlns:xlink="http://www.w3.org/1999/xlink" version="1.1" viewBox="-10 0 2068 2048">
   <path fill="currentColor"
d="M1600 198q36 0 53 2q18 1 30.5 12t16 28t-3.5 32.5t-22 23.5q-109 62 -175 172t-66 240q0 96 37.5 184t101 151.5t151 101t182.5 37.5q36 0 81 -7q17 -2 33 5.5t23 22.5q8 15 5 31.5t-16 28.5q-85 83 -196 129.5t-235 46.5q-20 0 -88 -7q-55 -112 -170 -167
q-6 -142 -108 -241.5t-245 -102.5q-8 -53 -8 -102q0 -126 49 -241t132 -198.5t197.5 -132.5t240.5 -49zM1446 1592q0 107 -76 182.5t-183 75.5h-878q-128 0 -218.5 -91t-90.5 -219q0 -115 73.5 -201t184.5 -104v-5q0 -128 91 -218.5t219 -90.5q84 0 154 40t111 109
q65 -46 148 -46q107 0 182.5 75.5t75.5 182.5q0 30 -6 56q92 17 152.5 88.5t60.5 165.5z" />
</svg>