<svg xmlns="http://www.w3.org/2000/svg" xmlns:xlink="http://www.w3.org/1999/xlink" version="1.1" viewBox="-10 0 2068 2048">
   <path fill="currentColor"
d="M2048 744v-4q-4 -4 -4 -8l-4 -4q0 -5 -4 -9l-402 -529l-4 -4l-6 -4l-4 -5q-4 0 -4 -2t-4 -2t-4 -4h-8l-4 -4h-14h-1108q-34 0 -50 25l-410 529q-4 0 -4 9l-6 4q0 4 -4 12v5v12v9v4q4 4 4 9q4 6 14 16l976 1063q8 8 14 8q8 9 12 9h4q4 4 17 4t17 -4h4h4l8 -5q0 -4 6 -4
l8 -8l948 -1063q0 -4 4 -8q0 -4 4 -8q0 -5 4 -9v-8v-5v-12v-5zM1502 287l-76 339l-262 -339h338zM1036 330l284 364h-542zM914 287l-240 343l-110 -343h350zM454 355l110 339h-372zM204 821h402l266 723zM1046 1646l-310 -825h636zM1228 1515l274 -694h346zM1540 694
l72 -322l250 322h-322z" />
</svg>