<svg xmlns="http://www.w3.org/2000/svg" xmlns:xlink="http://www.w3.org/1999/xlink" version="1.1" viewBox="-10 0 2068 2048">
   <path fill="currentColor"
d="M1153 768h68q68 117 185.5 186.5t257.5 69.5q63 0 127 -16v16v128v768q0 52 -37.5 90t-90 38t-90 -38t-37.5 -90v-564l-544 436h224q52 0 90 37.5t38 90t-38 90.5t-90 38h-575q-105 0 -193.5 -51.5t-140 -139.5t-51.5 -193v-894q0 -49 -32 -85.5t-79 -42.5l-32 -4
q-53 -6 -85.5 -48t-26 -94.5t48.5 -84.5t95 -25l31 4q144 18 240.5 126t96.5 254v340q104 -157 273 -249.5t367 -92.5zM1791 874q-66 22 -127 22q-84 0 -158.5 -34t-127.5 -94q-17 -17 -40 -52q-58 -95 -58 -204v-384v-80v-6q0 -17 12 -29.5t31 -12.5h1q21 0 33 16l51 70
l108 144l20 26h255l20 -26l108 -144l52 -70q11 -16 34 -16q18 0 30.5 12.5t12.5 29.5v6v80v384q0 101 -51 190q-34 60 -87.5 104.5t-118.5 67.5zM1600 511q0 -27 -18.5 -45t-45.5 -18t-45.5 18t-18.5 45t18.5 46t45.5 19t45.5 -19t18.5 -46zM1791 576q27 0 45.5 -19
t18.5 -46t-18.5 -45t-45.5 -18t-45.5 18t-18.5 45t18.5 46t45.5 19z" />
</svg>