<svg xmlns="http://www.w3.org/2000/svg" xmlns:xlink="http://www.w3.org/1999/xlink" version="1.1" viewBox="-10 0 2068 2048">
   <path fill="currentColor"
d="M1614 0q117 0 217 58t158.5 158t58.5 216v1184q0 116 -58.5 216t-158.5 158t-217 58h-1180q-88 0 -168 -34.5t-138 -93t-93 -138.5t-35 -168v-1182q0 -116 58.5 -216t158.5 -158t217 -58h1180zM1385.5 1445.5q46.5 -81.5 57.5 -174t-11.5 -177t-78 -159.5t-137.5 -121
q-19 -12 -29 -18t-11 -6.5t-1.5 -0.5t-1.5 -0.5t-11 -6.5l-30 -18q-23 -13 -47 -14t-42 8.5t-33 25.5t-21 37t-5 41.5t13.5 40.5t36.5 33q40 24 42 24.5t42 23.5q95 55 123.5 161.5t-25.5 200.5q-36 62 -99 98t-131 35.5t-134 -35.5q-19 -11 -29 -17t-11 -6.5t-1.5 -0.5
t-1.5 -0.5t-11 -6.5t-30 -17q-35 -21 -74.5 -10.5t-59.5 46.5l-72 124q-28 50 1 100q27 47 76 47q65 1 115 -87q82 46 174 56.5t177 -12t159.5 -78t121 -137zM1486 492q13 -24 14.5 -47.5t-8.5 -42t-25.5 -33t-36.5 -20.5t-41.5 -5t-40.5 14t-34 36l-22 38q-82 -46 -174 -57
t-177 11.5t-159.5 78.5t-121 136.5t-57.5 173.5t12 178t78.5 160t136.5 121l30 18t11 6.5t1.5 0.5t1.5 0.5t11 6.5t29 18q24 13 48 14t42 -8.5t33 -25.5t21 -37t5 -41.5t-13.5 -40.5t-35.5 -33l-86 -48q-61 -36 -97 -99t-35.5 -131t34.5 -134q55 -94 161.5 -122.5
t200.5 26.5q43 24 43.5 24t42.5 24q37 17 67.5 12t54.5 -28q2 -3 3.5 -4.5t3.5 -4t4.5 -7.5t6 -10.5t10 -16.5t13.5 -23.5t19 -34t26 -43.5z" />
</svg>