<svg xmlns="http://www.w3.org/2000/svg" xmlns:xlink="http://www.w3.org/1999/xlink" version="1.1" viewBox="-10 0 2068 2048">
   <path fill="currentColor"
d="M2010 1088h16q0 -93 -58 -185q-16 -23 -36 -59q-16 -31 -34 -56q-10 -15 -42 -51q-29 -34 -66 -65q-59 -48 -96 -78q-72 -55 -150 -107q-152 -103 -240 -113q-84 -9 -158 36q-73 44 -122 44t-122 -44q-74 -45 -156 -36q-89 10 -242 113q-100 72 -168 120q-64 46 -110 97
q-43 47 -60 60q-13 11 -45.5 70.5t-40.5 68.5q-58 94 -58 185h16q65 0 98 25q4 0 14 -4q14 -6 18 -7q8 -1 18 -6q135 -43 218 -59q241 -109 620.5 -109t621.5 109q82 16 218 59l50 17q32 -25 96 -25zM802 496q-37 10 -96 36q-53 23 -80 41q-35 23 -86 59q-65 46 -78 53
q-17 13 -34 2q-16 -11 -16 -30q0 -18 16 -31q14 -7 68 -44q59 -40 70 -48q31 -23 62 -40q43 -24 78 -38q33 -13 76 -27q19 -4 34 8q16 13 12 34q-5 21 -26 25zM1296 508q-44 5 -192 72q-16 9 -34 -4q-16 -12 -16 -30q0 -16 16 -29q163 -71 226 -76q21 0 30.5 17t-0.5 34
q-8 16 -30 16zM0 1125q52 181 190 305q136 123 316 170q168 44 290 60q110 15 208 15h20h22q96 0 206 -15q125 -17 290 -60q181 -47 318 -170q136 -123 188 -305q-11 0 -22 -4h-16q-58 0 -84 21q0 4 -8 4q-15 0 -38 -8q-61 -22 -64 -23q-35 -13 -82 -23q-101 -30 -224 -30
q-92 0 -184 17q-240 46 -301.5 46t-302.5 -46q-91 -17 -184 -17q-118 0 -222 30q-48 10 -82 23q-4 1 -66 23q-22 8 -38 8q-8 0 -8 -4q-25 -21 -84 -21h-16zM290 1201q116 -50 244 -46q29 0 39.5 21t0 42t-39.5 21q-106 -9 -202 37q-24 9 -43 -5.5t-19 -36.5q0 -21 20 -33z
" />
</svg>