<svg xmlns="http://www.w3.org/2000/svg" xmlns:xlink="http://www.w3.org/1999/xlink" version="1.1" viewBox="-11 0 2069 2048">
   <path fill="currentColor"
d="M1024 1792q-217 0 -416 -72q-97 71 -217 124q-178 76 -326 76q-20 0 -36.5 -11t-23.5 -29q-8 -18 -4 -37t18 -33v0v0h1q0 -1 2.5 -2.5t3.5 -3.5q14 -17 19 -22q36 -46 61 -88q76 -124 86 -250q-191 -219 -191 -484q0 -113 36.5 -220.5t102.5 -199t160.5 -168t207 -130.5
t245 -84t271.5 -30t271.5 30t245 84t207 130.5t160.5 168t103 199t37 221t-37 221t-103 199t-160.5 168t-207 130.5t-245 83.5t-271.5 29.5zM897 640v192h-192q-26 0 -45 19t-19 45v128q0 26 19 45t45 19h192v192q0 26 18.5 45t44.5 19h128q26 0 45 -19t19 -45v-192h193
q26 0 45 -19t19 -45v-128q0 -26 -19 -45t-45 -19h-193v-192q0 -27 -19 -45.5t-45 -18.5h-128q-26 0 -44.5 18.5t-18.5 45.5z" />
</svg>