<svg xmlns="http://www.w3.org/2000/svg" xmlns:xlink="http://www.w3.org/1999/xlink" version="1.1" viewBox="-10 0 2068 2048">
   <path fill="currentColor"
d="M512 0h908q106 0 180 75l118 117q74 74 74 181v267h-256v-267l-116 -117h-908v384h-256v-384q0 -106 75.5 -181t180.5 -75zM1536 1408h-1024v64v64v257h1024v-257v-128zM1792 1536v257q0 106 -75 180.5t-181 74.5h-1024q-105 0 -180.5 -74.5t-75.5 -180.5v-257h-128
q-52 0 -90 -38t-38 -90v-384q0 -106 75.5 -180.5t180.5 -74.5h1536q105 0 180.5 74.5t75.5 180.5v384q0 52 -38 90t-90 38h-128zM1727.5 992q-39.5 0 -67.5 28t-28 68t28 68.5t67.5 28.5t68 -28.5t28.5 -68.5t-28.5 -68t-68 -28z" />
</svg>