<svg xmlns="http://www.w3.org/2000/svg" xmlns:xlink="http://www.w3.org/1999/xlink" version="1.1" viewBox="-10 0 2068 2048">
   <path fill="currentColor"
d="M762 276q-23 -39 -62 -61.5t-84 -22.5h-8q-66 0 -113 47t-47 114t47 113t113 46h288h6zM256 353q0 -95 47.5 -176.5t128.5 -129t176 -47.5h8q97 0 180 47.5t132 130.5l96 164l96 -164q49 -83 132 -130.5t180 -47.5h8q95 0 176 47.5t128.5 129t47.5 176.5q0 86 -38 159
h166q52 0 90 38t38 90v256q0 52 -38 90t-90 38h-1792q-52 0 -90 -38t-38 -90v-256q0 -52 38 -90t90 -38h168q-40 -75 -40 -159zM1600 353q0 -67 -47 -114t-113 -47h-8q-45 0 -84 22.5t-62 61.5l-138 236h4h288q66 0 113 -46t47 -113zM128 1152h768v896h-576
q-79 0 -135.5 -56t-56.5 -135v-705zM1152 2048v-896h768v705q0 79 -56.5 135t-135.5 56h-576z" />
</svg>