<svg xmlns="http://www.w3.org/2000/svg" xmlns:xlink="http://www.w3.org/1999/xlink" version="1.1" viewBox="-10 0 2066 2048">
   <path fill="currentColor"
d="M1023.5 0q138.5 0 271 37t245 103t207 160.5t160.5 206.5t102.5 245t36.5 272t-36.5 272t-102.5 245t-160.5 206.5t-207 160.5t-245 103t-271 37t-271 -37t-244.5 -103t-206.5 -160.5t-160.5 -206.5t-102.5 -245t-36.5 -272t36.5 -272t102.5 -245t160.5 -206.5
t206.5 -160.5t244.5 -103t271 -37zM732 1536q144 0 256.5 -64t173 -178t60.5 -259v-1q0 -48 -8 -84h-482v175h290q-11 68 -55 119.5t-105.5 76.5t-129.5 25q-88 0 -161.5 -44t-115 -118t-41.5 -161t42 -161t115.5 -117.5t160.5 -43.5q124 0 204 79l138 -135
q-143 -133 -342 -133q-105 0 -199.5 40.5t-163 109t-109 163.5t-40.5 199t40.5 199t109 163.5t163 109t199.5 40.5zM1682 1098h144v-148h-144v-147h-146v147h-148v148h148v146h146v-146z" />
</svg>