<svg xmlns="http://www.w3.org/2000/svg" xmlns:xlink="http://www.w3.org/1999/xlink" version="1.1" viewBox="-10 0 2058 2048">
   <path fill="currentColor"
d="M448.5 416q39.5 0 67.5 -28t28 -68t-28 -68t-67.5 -28t-68 28t-28.5 68t28.5 68t68 28zM768 320q0 97 -53 177t-139 117v351q121 -69 256 -69h384q105 0 180.5 -75t75.5 -181v-26q-86 -37 -139 -117t-53 -177q0 -87 43 -160.5t116.5 -116.5t160.5 -43q133 0 226.5 93.5
t93.5 226.5q0 97 -53 177t-139 117v26q0 104 -40.5 199t-109 163.5t-163.5 109t-199 40.5h-384q-105 0 -180.5 75t-75.5 181v27q86 37 139 117t53 177q0 133 -93.5 226t-226 93t-226.5 -93t-94 -226q0 -97 53.5 -177t138.5 -117v-27v-794q-85 -37 -138.5 -117t-53.5 -177
q0 -133 94 -226.5t226.5 -93.5t226 93.5t93.5 226.5zM1696 320q0 -40 -28 -68t-67.5 -28t-68 28t-28.5 68t28.5 68t68 28t67.5 -28t28 -68zM448.5 1824q39.5 0 67.5 -27.5t28 -67.5t-28 -68.5t-67.5 -28.5t-68 28.5t-28.5 68.5t28.5 67.5t68 27.5z" />
</svg>