<svg xmlns="http://www.w3.org/2000/svg" xmlns:xlink="http://www.w3.org/1999/xlink" version="1.1" viewBox="-10 0 2058 2048">
   <path fill="currentColor"
d="M832 224v288h384v-288q0 -13 -9.5 -22.5t-22.5 -9.5h-320q-13 0 -22.5 9.5t-9.5 22.5zM1536 512q106 0 181 75.5t75 181.5v896q0 106 -75 180.5t-181 74.5q0 52 -38 90t-91 38q-52 0 -89.5 -37.5t-37.5 -90.5h-512q0 52 -38 90t-91 38q-52 0 -89.5 -37.5t-37.5 -90.5
q-106 0 -181 -74.5t-75 -180.5v-896q0 -106 75 -181.5t181 -75.5h127v-288q0 -93 66 -158.5t159 -65.5h320q92 0 157.5 65.5t65.5 158.5v288h129zM704 896q-26 0 -45.5 19t-19.5 45t19.5 45t45.5 19h639q26 0 45 -19t19 -45t-19 -45t-45 -19h-639zM704 1408q-26 0 -45.5 19
t-19.5 45t19.5 45t45.5 19h639q26 0 45 -19t19 -45t-19 -45t-45 -19h-639z" />
</svg>