<svg xmlns="http://www.w3.org/2000/svg" xmlns:xlink="http://www.w3.org/1999/xlink" version="1.1" viewBox="-10 0 2058 2048">
   <path fill="currentColor"
d="M1472 192q0 79 -56.5 135t-136 56t-135.5 -55.5t-56 -135t56 -136t135.5 -56.5t136 56.5t56.5 135.5zM694 702l-92 92q-37 38 -89.5 38t-90 -37.5t-37.5 -90.5t37 -91l94 -92q66 -66 151.5 -102t178.5 -36q70 0 136 21l196 61q109 33 193.5 110t128.5 182l24 60
q15 36 47 57.5t71 21.5h86q52 0 90 38t38 90.5t-38 89.5t-90 37h-86q-116 0 -212 -64.5t-142 -171.5l-20 -50l-124 331l226 142q55 34 78 94t6 121l-114 401q-15 51 -61.5 77t-97 12t-76.5 -61t-11 -98l100 -355l-344 -215q-76 -47 -105.5 -131t-2.5 -168l126 -375
q-8 -1 -22 -1q-88 0 -152 63zM558 1407l74 -165q45 116 150 180l38 24l-46 103q-23 52 -71 83.5t-105 31.5h-278q-52 0 -90 -38t-38 -90.5t38 -90.5t90 -38h238z" />
</svg>