<svg xmlns="http://www.w3.org/2000/svg" xmlns:xlink="http://www.w3.org/1999/xlink" version="1.1" viewBox="-10 0 2068 2048">
   <path fill="currentColor"
d="M2030 1443q-18 22 -52.5 44t-60.5 32l-25 11l-729 262v-194l537 -190q46 -16 51.5 -37t-31.5 -33t-95.5 -9t-104.5 20l-357 126v-200q133 -45 269 -61q111 -12 235.5 2.5t227.5 53.5q56 18 92 41t49 46t11 44.5t-17 41.5zM1232 1115v-495q0 -51 -13.5 -83.5t-50.5 -42.5
q-30 -10 -49 14.5t-19 68.5v1237l-334 -106v-1474q97 18 230 55t229 70q144 49 225 111t117.5 151.5t36.5 227.5q0 97 -29 167t-79 103.5t-118.5 33t-145.5 -37.5zM155 1578q-59 -16 -96.5 -41.5t-50 -52.5t-5 -53.5t35.5 -46.5q30 -22 76 -44.5t77 -33.5l31 -11l479 -170
v194l-345 123q-46 16 -51.5 36.5t31.5 32.5t95 9t104 -20l166 -59v173q-285 51 -547 -36z" />
</svg>