<svg xmlns="http://www.w3.org/2000/svg" xmlns:xlink="http://www.w3.org/1999/xlink" version="1.1" viewBox="-10 0 2068 2048">
   <path fill="currentColor"
d="M208 1180l126 25q49 11 86 -26l62 -61q36 -35 84.5 -27.5t69.5 51.5l38 74q14 29 41 46t59 17q46 0 73 -36t15 -80l-24 -80q-14 -47 15 -85.5t77 -38.5h8q40 0 76 -19t58 -52l42 -64q18 -25 17 -55.5t-19 -55.5l-66 -86q-30 -41 -13 -89.5t67 -61.5l70 -17q46 -12 64 -58
l66 -163q-138 -46 -276 -46q-113 0 -220.5 30t-199 83.5t-168 130.5t-130.5 168t-84 199t-30 221q0 80 16 156zM1838 1199q-18 -1 -36 3l-64 17q-20 6 -39 -1.5t-31 -24.5l-8 -13q-17 -28 -46.5 -44t-63 -16t-63.5 16t-47 44l-26 38q-9 16 -22 22l-144 80q-54 30 -74 89.5
t6 116.5l22 50q27 58 85 82t117 2l10 -4q30 -11 62 -7t58 23l6 5q113 -90 190 -212.5t108 -265.5zM0 1024q0 -139 37 -272t103 -245.5t160.5 -207t207 -160t245 -102.5t272 -37t272 37t244.5 102.5t206.5 160t160.5 207t103 245.5t37 272t-37 272t-103 245.5t-160.5 207
t-206.5 160t-244.5 102.5t-272 37t-272 -37t-245 -102.5t-207 -160t-160.5 -207t-103 -245.5t-37 -272zM578.5 1393q-6.5 26 7 48.5t38.5 29.5l130 31q25 7 47.5 -6.5t28.5 -39.5q7 -25 -7 -47.5t-39 -29.5l-128 -33q-26 -7 -48.5 7t-29 40zM946 1313q-6 26 7.5 48.5
t38.5 29.5q26 7 49 -7t29 -40l32 -128q6 -26 -7.5 -48.5t-38.5 -29.5q-26 -7 -48.5 7t-29.5 40zM1372 454q-23 -12 -47.5 -3t-36.5 33l-64 127q-12 23 -4 49t31.5 38t49 3t37.5 -32l64 -128q11 -23 2.5 -49t-32.5 -38z" />
</svg>