<svg xmlns="http://www.w3.org/2000/svg" xmlns:xlink="http://www.w3.org/1999/xlink" version="1.1" viewBox="-10 0 2068 2048">
   <path fill="currentColor"
d="M461.5 716q-105.5 0 -181.5 -74.5t-76 -180.5t76 -181t181.5 -75t180 75t74.5 181t-74.5 180.5t-180 74.5zM1637.5 716q-105.5 0 -180.5 -74.5t-75 -180.5t75 -181t180.5 -75t181 75t75.5 181t-75.5 180.5t-181 74.5zM0 1161q0 -92 46 -171t124.5 -125t171.5 -46h136
q76 0 142 31q-6 46 -6 72q0 90 37 170t103 137h-2h-684q-27 0 -47.5 -20t-20.5 -48zM1024 1229q-127 0 -217.5 -90t-90.5 -217.5t90.5 -217.5t218 -90t217.5 90t90 218q0 94 -52 171q-13 9 -30 27q-17 22 -26 34q-86 75 -200 75zM1234 1421v1l8 5v7v8l-8 4q-43 24 -61.5 71
t-0.5 96q17 40 30 63v1l8 13v1q20 32 40 57q33 40 84.5 47.5t91.5 -17.5l8 -4q1 2 5.5 3.5t6.5 3.5v10q0 29 10 52h-960q-36 0 -61 -25t-25 -61q0 -116 57 -214t155 -155t214 -57h330q15 60 68 90zM1706 819q139 0 237.5 95.5t104.5 233.5q-5 -6 -13 -16.5t-9 -11.5
q-33 -41 -84.5 -48.5t-91.5 17.5l-6 4q-2 -2 -6.5 -3.5t-7.5 -3.5v-9q0 -49 -31.5 -89t-82.5 -48q-38 -6 -78 -6q-28 0 -78 6q-51 8 -82.5 48t-31.5 89v9q-2 2 -6.5 4t-5.5 3l-8 -4q-8 -4 -24 -10q32 -76 32 -157q0 -38 -6 -72q66 -31 142 -31h136zM1998 1344v-1l-10 5
q-21 12 -32.5 35.5t-11.5 49.5t11.5 49t32.5 35l10 5q16 8 22 24.5t0 33.5q-16 38 -24 51l-8 13q-13 22 -32 46q-12 13 -29 15.5t-31 -5.5l-10 -5q-22 -12 -47 -10.5t-47 14.5q-24 13 -38 34.5t-14 45.5v11q0 18 -11.5 32t-28.5 16q-27 4 -62 4q-36 0 -64 -4
q-17 -2 -27.5 -16t-10.5 -32v-11q0 -24 -14.5 -45.5t-37.5 -34.5q-51 -30 -94 -4l-10 5q-15 9 -32.5 6t-29.5 -16q-14 -19 -32 -46l-6 -13q-15 -27 -26 -51q-6 -16 1 -32t23 -25l8 -5q22 -12 33 -35.5t11 -49.5t-11 -49t-33 -35l-8 -6q-16 -8 -22.5 -24.5t0.5 -32.5
q12 -31 24 -51l6 -13q18 -27 32 -46q12 -13 29.5 -16t32.5 6l10 5q44 26 94 -3q22 -13 37 -35t15 -46v-11q0 -18 11 -32t27 -16q29 -4 64 -4q36 0 64 4q16 2 27 16t11 32v11q0 24 14.5 46t37.5 35q22 13 47 14t47 -11l10 -5q14 -9 31.5 -6t28.5 16q20 24 34 46l6 13
q8 13 24 51q6 17 0 33.5t-22 24.5zM1510 1433q0 53 37 90.5t90.5 37.5t91 -37.5t37.5 -90.5t-37.5 -90t-91 -37t-90.5 37t-37 90z" />
</svg>