<svg xmlns="http://www.w3.org/2000/svg" xmlns:xlink="http://www.w3.org/1999/xlink" version="1.1" viewBox="-10 0 2068 2048">
   <path fill="currentColor"
d="M2048 128q0 167 -60.5 321.5t-164 271t-247 195t-306.5 100.5q-20 -158 -87.5 -300t-172.5 -257q116 -209 324.5 -334t457.5 -125h128q52 0 90 38t38 90zM0 384q0 -52 38 -90t90 -38h128q122 0 238.5 32t214.5 90t180.5 140.5t140 181t90 214.5t32.5 238v128v640
q0 53 -37.5 90.5t-90 37.5t-90.5 -38t-38 -90v-640q-121 0 -237.5 -32t-214.5 -90t-181 -140.5t-140.5 -181t-90 -214.5t-32.5 -238z" />
</svg>