<svg xmlns="http://www.w3.org/2000/svg" xmlns:xlink="http://www.w3.org/1999/xlink" version="1.1" viewBox="-10 0 2058 2048">
   <path fill="currentColor"
d="M20 256q0 -106 75 -181t181 -75h256h128h1240q63 0 101.5 50.5t22.5 111.5l-26 94h-634q-26 0 -45 19t-19 45t19 45t45 19h599l-70 256h-529q-26 0 -45 19t-19 45t19 45.5t45 19.5h494l-70 255h-424q-26 0 -45 19t-19 45t19 45t45 19h390l-70 256h-1024l-35 -384h-349
q-106 0 -181 -74.5t-75 -180.5v-513zM602 769l-47 -513h-279v513h326zM596 1536h1151q79 0 135.5 56.5t56.5 136.5v128q0 79 -56.5 135t-135.5 56h-1151q-80 0 -136.5 -56t-56.5 -135v-128q0 -79 56.5 -136t136.5 -57zM1170.5 1920q52.5 0 91 -37.5t38.5 -89.5t-38.5 -90
t-91 -38t-89.5 37.5t-37 90.5t37 90t89.5 37z" />
</svg>