<svg xmlns="http://www.w3.org/2000/svg" xmlns:xlink="http://www.w3.org/1999/xlink" version="1.1" viewBox="-10 0 2068 2048">
   <path fill="currentColor"
d="M1227 560q4 46 4 156v396h5v4h8v4q4 0 21 10q4 0 25 6q31 8 34 10q105 8 147 -12h4q9 -10 13 -10l8 -8q10 -4 13 -8l17 -16l8 -10q4 -4 9 -4q2 -2 8 -10q4 -5 4 -10q0 -4 9 -14v-4q0 -4 4 -10q1 -1 3.5 -5t4.5 -5q0 -12 9 -22q0 -11 8 -34q0 -18 4 -28q5 -10 5 -34
q4 -35 -5 -172h-4v-34l-4 -4q0 -16 -8 -34q-9 -22 -9 -34q-8 -8 -8 -16q-9 -17 -9 -22l-4 -8q-4 -8 -8 -8q-19 -27 -42 -56h-5l5 -4q-50 -42 -72 -54q0 -4 -8 -8l-9 -6l-38 -24h-4l-25 -12q-20 -8 -30 -14l-16 -8q-9 0 -17 -8q-1 0 -13 -2q-2 -1 -5 -1.5t-4.5 -0.5h-2.5
l-5 -4q-8 0 -8 -6q-13 0 -21 -8q-12 0 -34 -8q-20 -6 -42 -12l-38 -14q-9 0 -17 -8h-16v-4h-17q-10 -7 -55 -16q-12 -4 -59 -18v-4q-9 0 -42 -8l-8 -4h-13q-4 -4 -21 -4q-5 -2 -46 -14q-13 0 -21 -4t-30 -4v1474q16 8 26 8q8 4 23 10q17 8 23 8q2 0 10 2t11 2q4 4 17 4
q8 8 21 8q10 4 12 4q14 8 30 8l38 14v4h16q0 4 9 4q8 0 8 4q10 5 23 8q13 4 24 4q33 13 42 8l-9 10h17q-4 -30 -4 -102v-1144q0 -43 25 -72l9 -4q34 -5 61 14q26 20 31 52zM701 1440q-8 4 -21 4v6h-8q-1 0 -21 8q-15 5 -17 8l-9 4h-12q-8 8 -21 8q-4 4 -9 4q-8 4 -12 4
q-5 0 -11 6q-6 4 -10 4q-9 0 -9 4q-33 12 -67 12v4q-59 10 -118 0v-4q-11 0 -21 -4q-7 0 -21 -8l-4 -8h-4q0 -2 2 -13.5t2 -12.5l17 -8q17 -10 21 -14q4 0 29 -10t42 -14q19 -8 30 -14h12v-4q5 0 13 -4t13 -4q2 0 10 -2t11 -2l-5 -4q13 0 21 -4q3 0 11 -2q5 -2 10 -6v-4h17
q1 -1 14 -5.5t22 -8.5q30 -12 32 -12h8q8 -8 17 -8q4 -4 13 -4q9 -5 33 -14v-194h-17v6q-4 4 -8 4t-8 4q-5 0 -13 4h-9q-17 8 -21 8l-37 12l-26 14q-20 6 -42 12q-4 4 -17 4l-25 12h-12q-10 6 -43 18q-14 6 -25 10q-19 7 -25 10h-13l-25 14q-4 0 -8 4h-9q-14 6 -25 10
q-19 7 -25 10q-13 0 -17 4h-8q-8 4 -17 14h-17v4q-7 0 -21 4q-17 4 -21 8l-17 8q-5 5 -15 10q-10 4 -14 4q-5 0 -9 4q-10 4 -16.5 8t-8.5 4v4q-4 -4 -9 -4v4q-10 13 -29 18q-34 34 -38 42q-21 37 0 70q11 20 17 26q8 4 25 22q17 9 25 16q5 0 13 4h4q8 8 17 8q16 10 25 10
q7 4 51 16v4h21q4 4 8 4q8 4 13 4q13 0 21 4t25 4q10 6 25 6l5 4h16q9 -17 9 4q3 0 25 2q4 0 9 0.5t7.5 1t4.5 0.5v4h63q29 4 105 4q18 -4 64 -4l-5 -4q8 0 30 -2t25 -2q5 0 21 -2q12 -2 21 -6v-174zM2048 1378l-9 -18v-4l-8 -8q-3 -6 -13 -16v-6h-8q-9 -8 -34 -24h-4l-4 -8
l-5 4q-18 -10 -21 -14q-8 0 -16 -8q-2 0 -14.5 -4.5t-21.5 -7.5q-20 -8 -32 -8q-14 -4 -28 -7.5t-19.5 -5t-6.5 -1.5v-4q-13 0 -21 -4l-59 -12h-47l5 -4q-5 0 -17 -2t-17 -2q-50 0 -72 -4h-42q-24 0 -42 -6v6q-36 0 -88 8v4h-46v4q-20 0 -30 4q-1 0 -13 2q-2 1 -5 1.5
t-4.5 0.5h-2.5t-15 2q-11 2 -15 6q-48 14 -59 18h-12q-27 9 -34 12q-9 9 -4 22v180l38 -12q4 -4 12 -4q19 -8 30 -14h8q11 -6 42 -16q3 0 11 -2q5 -2 10 -6q5 0 14.5 -4t15.5 -4q5 -6 13 -6q14 -8 25 -8v-4q9 0 23 -4q12 -3 23 -8l25 -12h13q3 0 8 -6l9 -4q9 0 23 -4
q12 -3 23 -8q2 -3 42 -12q8 -4 30 -4q13 -6 84 -6l-4 6q26 0 37 4l17 8q25 16 13 34l-9 4l-4 8h-4l-25 12v4q-2 0 -42 14h-9q-4 4 -8 4v4q-12 0 -17 4l-76 26l-4 4h-8q-8 0 -17 8h-9q-4 0 -8 4t-8 4q-37 17 -68 22l-25 12q-13 0 -17 4q-2 0 -8 2t-9 2l-25 14l-42 12l4 4h-21
v4l-14 2q-11 2 -15 6q-6 0 -15 4q-7 4 -19 10l-38 12l-25 12v190l76 -26q2 -1 33 -12q5 -4 17 -4q5 -3 42 -16l38 -14q0 -4 9 -4q8 0 8 -4q3 -1 44 -14q27 -10 49 -16v-4l8 -4h8l26 -12h12l26 -14q12 0 16 -4q6 0 21 -8q3 0 11 -2t10 -2q11 -5 26 -10q11 -4 25 -12
q5 0 13 -4h4l25 -12h13q0 -4 8 -4t8 -4q4 -4 13 -4t13 -4q78 -27 109 -42q12 0 17 -6q8 -4 23 -10t19 -6q54 -30 84 -54l4 -8h5q4 -4 4 -10l4 -4q0 -8 4 -8q9 -12 9 -50z" />
</svg>