<svg xmlns="http://www.w3.org/2000/svg" xmlns:xlink="http://www.w3.org/1999/xlink" version="1.1" viewBox="-10 0 2068 2048">
   <path fill="currentColor"
d="M1024.5 0q52.5 0 90 37.5t37.5 90.5v41q185 27 341 128t257 257.5t128 341.5h42q52 0 90 38t38 90t-38 90t-90 38h-42q-27 185 -128 341.5t-257 257.5t-341 128v41q0 53 -37.5 90.5t-90 37.5t-90.5 -38t-38 -90v-41q-185 -27 -341 -128t-256.5 -257.5t-128.5 -341.5h-42
q-52 0 -90 -38t-38 -90t38 -90t90 -38h42q28 -185 128.5 -341.5t256.5 -257.5t341 -128v-41q0 -52 38 -90t90.5 -38zM430 1152q38 175 165 302.5t301 164.5v-83q0 -52 38 -90t90.5 -38t90 37.5t37.5 90.5v83q174 -37 301.5 -164.5t164.5 -302.5h-82q-52 0 -90 -38t-38 -90
t38 -90t90 -38h82q-37 -175 -164.5 -302.5t-301.5 -164.5v83q0 53 -37.5 90.5t-90 37.5t-90.5 -38t-38 -90v-83q-174 37 -301 164.5t-165 302.5h82q53 0 90.5 38t37.5 90t-37.5 90t-90.5 38h-82zM1024.5 896q52.5 0 90 37.5t37.5 90.5t-37.5 90.5t-90 37.5t-90.5 -38
t-38 -90t38 -90t90.5 -38z" />
</svg>