<svg xmlns="http://www.w3.org/2000/svg" xmlns:xlink="http://www.w3.org/1999/xlink" version="1.1" viewBox="-10 0 2069 2048">
   <path fill="currentColor"
d="M227 625v398h342v-398q0 -70 -50 -120.5t-120.5 -50.5t-121 50.5t-50.5 120.5zM0 625q0 -108 53.5 -200t145 -145t200 -53t200 53t144.5 145t53 200v86q9 -88 52 -165.5t116 -129.5q89 -63 195 -72.5t202 36.5t158 136l456 666q62 91 71.5 198.5t-35 205.5t-133 161
t-194.5 72.5t-202.5 -36t-158.5 -135.5l-457 -666q-58 -86 -70 -195v634q0 108 -53 200t-144.5 145.5t-200 53.5t-200 -53.5t-145 -145.5t-53.5 -200v-796zM1054 853l231 337l284 -198l-238 -348q-41 -60 -110 -72t-125 29q-59 42 -71.5 115.5t29.5 136.5zM1745 1563
q1 0 3 -1.5t3 -2.5l-15 9l5 -2.5t4 -2.5z" />
</svg>