<svg xmlns="http://www.w3.org/2000/svg" xmlns:xlink="http://www.w3.org/1999/xlink" version="1.1" viewBox="-10 0 2068 2048">
   <path fill="currentColor"
d="M682 342h684q138 0 264.5 54t217.5 145t145.5 217.5t54.5 265t-54.5 265t-145.5 218t-217.5 145.5t-264.5 54h-684q-138 0 -264.5 -54t-217.5 -145.5t-145.5 -218t-54.5 -265t54.5 -265t145.5 -217.5t217.5 -145t264.5 -54zM1365 682q-93 0 -171.5 45.5t-124 124.5
t-45.5 171.5t45.5 171.5t124 124t171.5 45t171.5 -45.5t124 -123.5t45.5 -171.5t-45.5 -171.5t-124 -124t-171.5 -46z" />
</svg>