<svg xmlns="http://www.w3.org/2000/svg" xmlns:xlink="http://www.w3.org/1999/xlink" version="1.1" viewBox="-10 0 2058 2048">
   <path fill="currentColor"
d="M1681 0q76 0 131 55l166 165q54 54 54 133q0 77 -54 131l-630 630q-67 67 -138 111l-464 292q-66 40 -127 102l-149 150l-206 -206l150 -149q59 -59 102 -127l292 -464q44 -71 111 -138l630 -630q55 -55 132 -55zM2032 1729q0 133 -93.5 226t-226.5 93t-226 -93t-93 -226
q0 -87 42.5 -161t116 -117t160.5 -43t160.5 43t116.5 117t43 161zM45 1596h1q28 -28 67 -28t68 28l256 256q28 28 28 67.5t-28 68t-68 28.5t-68 -28l-256 -256q-29 -28 -29 -68t29 -68z" />
</svg>