<svg xmlns="http://www.w3.org/2000/svg" xmlns:xlink="http://www.w3.org/1999/xlink" version="1.1" viewBox="-10 0 2068 2048">
   <path fill="currentColor"
d="M2044 941q0 -70 -72 -79l-34 -4l-422 -309q-126 -101 -284 -55q-62 17 -46 80q17 67 84 46q92 -25 168 33l254 188q-65 0 -154 8q-126 21 -234 51l-42 8q-234 47 -468 0l-46 -8q-127 -36 -238 -51q-89 -8 -154 -8l254 -188q68 -54 168 -33q67 21 84 -46q16 -63 -46 -80
q-158 -46 -284 55l-422 309l-34 4q-72 9 -72 79l-4 76q0 58 50 79q22 9 22 29l8 138q11 124 104 211q92 86 222 90l154 4q185 0 284 -158l126 -218q12 -21 50 -21h8q41 0 50 17l126 222q99 158 284 158l154 -4q130 -4 222 -90q93 -87 104 -211l8 -138q0 -19 18 -29
q54 -21 54 -79zM1646 987q45 0 64 5q112 17 116 108l4 142q5 71 -46 130q-49 58 -130 58q-121 9 -124 9q-38 0 -70 -9q-34 -10 -56 -20q-19 -9 -46 -30q-25 -19 -38 -35q-20 -24 -28 -38q-5 -7 -13 -18.5t-11 -16.5q-9 -14 -14 -30l-4 -12t-4 -13l-4 -8q-21 -67 20 -121
q34 -59 100 -71q171 -30 284 -30zM518 1439l-124 -9q-81 0 -130 -58q-56 -55 -46 -130l4 -142q4 -91 116 -108q103 -12 348 25q66 12 100 67q37 54 20 121q-79 234 -288 234z" />
</svg>