<svg xmlns="http://www.w3.org/2000/svg" xmlns:xlink="http://www.w3.org/1999/xlink" version="1.1" viewBox="-10 0 2058 2048">
   <path fill="currentColor"
d="M1924 1331h104q-80 342 -336.5 529.5t-651.5 187.5q-238 0 -429 -70t-322 -201.5t-201.5 -323t-70.5 -430.5q0 -238 70.5 -429t201.5 -322t322 -201.5t429 -70.5q396 0 653 187t338 529h-104q-77 -297 -304.5 -455t-581.5 -158q-439 0 -680 241t-241 680
q0 426 227.5 665.5t643.5 254.5v-203q0 -149 -79.5 -228t-228.5 -79q-192 0 -301 -109t-109 -301q0 -190 106.5 -298.5t295.5 -110.5q31 -65 89 -112t127 -70.5t146.5 -24.5t147 20t129 69.5t92.5 117.5q189 2 295.5 110.5t106.5 298.5q0 192 -109 300.5t-301 108.5
q-148 0 -227 79t-79 228v203q333 -12 546 -169.5t286 -442.5zM1441 720q4 24 7 52t1.5 72.5t-10 86.5t-29.5 89.5t-53.5 85t-87 68t-124.5 44.5q76 113 253 113q148 0 227.5 -79.5t79.5 -227.5q0 -138 -67.5 -215.5t-196.5 -88.5zM1104 1121h-1q62 -8 108 -33t71.5 -56.5
t41 -72.5t19.5 -76t3 -72.5t-4 -56t-6 -33.5q-61 8 -107 33t-71.5 56.5t-41 72t-20 76t-3 72.5t4.5 56.5t6 33.5zM1041 512l-1 1q-175 0 -254 113q176 33 254 179q78 -146 254 -179q-79 -114 -253 -114zM746 721h1q-3 12 -6.5 33t-4.5 57t3.5 72t20 76.5t41 72.5t71.5 56.5
t107 32.5q3 -14 6 -33.5t4.5 -56.5t-2.5 -71.5t-19.5 -75.5t-41 -72.5t-72 -56.5t-108.5 -34zM683 1331l1 -1q175 0 252 -112q-63 -12 -113 -38t-82.5 -59.5t-56 -75t-34.5 -83.5t-15.5 -87t-2 -82.5t8.5 -72.5q-129 12 -197 89.5t-68 214.5q0 148 79 227.5t228 79.5z
M902 1381h1q84 44 139 140q49 -93 138 -140q-94 -53 -139 -138q-47 90 -139 138z" />
</svg>