<svg xmlns="http://www.w3.org/2000/svg" xmlns:xlink="http://www.w3.org/1999/xlink" version="1.1" viewBox="-10 0 2058 2048">
   <path fill="currentColor"
d="M1537 256q0 106 -76 181t-181.5 75t-180 -75t-74.5 -181t74.5 -181t180 -75t181.5 75t76 181zM1059 1056l-179 361l464 342q41 31 57 80.5t0 99.5q-17 49 -58.5 79t-93.5 30h-832q-67 0 -113.5 -46.5t-46.5 -113.5t46.5 -113t113.5 -46h347l-214 -157
q-105 -78 -133.5 -205.5t32.5 -242.5l193 -371q42 -81 122 -129t173 -48q79 0 150.5 36.5t118.5 100.5l104 144l220 -181q51 -42 117.5 -35.5t108 57.5t35 117.5t-57.5 108.5l-352 288q-52 42 -121 34q-70 -8 -109 -63z" />
</svg>