<svg xmlns="http://www.w3.org/2000/svg" xmlns:xlink="http://www.w3.org/1999/xlink" version="1.1" viewBox="-10 0 2068 2048">
   <path fill="currentColor"
d="M0 1024q0 -139 37 -272t103 -245.5t160.5 -207t207 -160t245 -102.5t272 -37t272 37t244.5 102.5t206.5 160t160.5 207t103 245.5t37 272t-37 272t-103 245.5t-160.5 207t-206.5 160t-244.5 102.5t-272 37t-272 -37t-245 -102.5t-207 -160t-160.5 -207t-103 -245.5
t-37 -272zM1024.5 1152q-52.5 0 -90.5 -38t-38 -90t38 -90t90.5 -38t90 37.5t37.5 90.5t-37.5 90.5t-90 37.5zM640 1024q0 104 51.5 192.5t140 140t193 51.5t193 -51.5t139.5 -140t51 -192.5t-51 -192.5t-139.5 -140t-193 -51.5t-193 51.5t-140 140t-51.5 192.5zM384 960
q0 -103 48 -206.5t132 -188.5q84 -84 188.5 -132.5t207.5 -48.5q27 0 45.5 -19t18.5 -45t-18.5 -45t-45.5 -19q-132 0 -258.5 59t-227 159t-159.5 227t-59 259q0 26 19 45t45.5 19t45 -19t18.5 -45z" />
</svg>