<svg xmlns="http://www.w3.org/2000/svg" xmlns:xlink="http://www.w3.org/1999/xlink" version="1.1" viewBox="-10 0 2058 2048">
   <path fill="currentColor"
d="M248 831q0 -154 54.5 -296.5t148.5 -251.5t224.5 -184t279.5 -99q27 -3 48 16t21 47v255q0 26 17 45t42 22q150 23 282.5 97t228 183t151 253t55.5 299t-54.5 297.5t-148.5 251t-224.5 183t-279.5 98.5q-27 5 -48 -14t-21 -48v-256q0 -25 -17 -44.5t-42 -22.5
q-150 -22 -282.5 -96t-228 -183t-151 -252.5t-55.5 -299.5zM1411 1025q0 -106 -51.5 -195.5t-140.5 -141.5t-195 -52t-195.5 52t-141.5 142t-52 195.5t52 195t141.5 141t195.5 51.5t195 -51.5t140.5 -141t51.5 -195.5zM1024 896q53 0 91 38t38 91.5t-38 91t-91 37.5
t-91 -37.5t-38 -91t38 -91.5t91 -38z" />
</svg>