<svg xmlns="http://www.w3.org/2000/svg" xmlns:xlink="http://www.w3.org/1999/xlink" version="1.1" viewBox="-10 0 2068 2048">
   <path fill="currentColor"
d="M432 1294q0 89 -63.5 152t-153 63t-152.5 -63t-63 -152t63 -152.5t153 -63.5h216v216zM538 1294q0 -89 63.5 -152.5t153 -63.5t152.5 63.5t63 152.5v538q0 89 -63 152.5t-152.5 63.5t-153 -63.5t-63.5 -152.5v-538zM754 430q-89 0 -152.5 -63t-63.5 -152t63.5 -152
t153 -63t152.5 63t63 152v215h-216zM754 539q90 0 153 63t63 152t-63 151.5t-153 62.5h-538q-90 0 -153 -62.5t-63 -151.5t63 -152t153 -63h538zM1618 754q0 -89 62.5 -152t152 -63t152.5 63t63 152t-63 151.5t-153 62.5h-214v-214zM1510 754q0 89 -63.5 151.5t-153 62.5
t-151.5 -62.5t-62 -151.5v-539q0 -89 62 -152t151.5 -63t153 63t63.5 152v539zM1294 1617q89 0 152.5 63t63.5 152t-63.5 152.5t-153 63.5t-151.5 -63.5t-62 -152.5v-215h214zM1294 1509q-90 0 -152 -63t-62 -152t62 -152.5t152 -63.5h538q90 0 153 63.5t63 152.5t-63 152
t-153 63h-538z" />
</svg>