<svg xmlns="http://www.w3.org/2000/svg" xmlns:xlink="http://www.w3.org/1999/xlink" version="1.1" viewBox="-10 0 2068 2048">
   <path fill="currentColor"
d="M0 1024q0 -139 37 -272t103 -245.5t160.5 -207t207 -160t245 -102.5t272 -37t272 37t244.5 102.5t206.5 160t160.5 207t103 245.5t37 272t-37 272t-103 245.5t-160.5 207t-206.5 160t-244.5 102.5t-272 37t-272 -37t-245 -102.5t-207 -160t-160.5 -207t-103 -245.5
t-37 -272zM646 680q-36 -16 -73 -1.5t-52.5 51.5t-0.5 73.5t52 52.5l46 21q105 44 214 65v200q0 24 -8 50l-114 345q-13 38 4.5 73t56 48t73.5 -4.5t48 -55.5l98 -293q3 -11 13.5 -18.5t22 -7.5t21 7.5t13.5 18.5l98 293q12 38 47 55.5t73.5 4.5t56.5 -48t5 -73l-114 -345
q-10 -29 -10 -50v-200q110 -21 216 -65l46 -21q37 -16 51.5 -52t-1 -73t-52 -52t-72.5 1l-48 20q-164 69 -332 69q-166 0 -330 -69zM1024.5 640q66.5 0 113 -46.5t46.5 -113.5t-46.5 -113.5t-113 -46.5t-113.5 46.5t-47 113.5t47 113.5t113.5 46.5z" />
</svg>