<svg xmlns="http://www.w3.org/2000/svg" xmlns:xlink="http://www.w3.org/1999/xlink" version="1.1" viewBox="-10 0 2068 2048">
   <path fill="currentColor"
d="M1902 0q60 0 103 43t43 104v1754q0 61 -43 104t-103 43h-1756q-60 0 -103 -43t-43 -104v-1754q0 -61 43 -104t103 -43h1756zM620 1756v-978h-304v978h304zM468 644q73 0 124.5 -51.5t51.5 -124.5t-52 -124.5t-124 -51.5q-74 0 -125 51.5t-51 124.5t51 124.5t125 51.5z
M1756 1756v-536q0 -86 -8 -150.5t-31.5 -126.5t-63 -101.5t-105.5 -63.5t-156 -24q-102 0 -177.5 46t-110.5 111h-4v-133h-290v978h304v-484q0 -43 3.5 -76t15 -67.5t30.5 -57t53 -37t80 -14.5q32 0 57.5 9t42 22t28 36t17 42t8.5 50t4 50t1 51v476h302z" />
</svg>