<svg xmlns="http://www.w3.org/2000/svg" xmlns:xlink="http://www.w3.org/1999/xlink" version="1.1" viewBox="-10 0 2058 2048">
   <path fill="currentColor"
d="M750 614q102 0 174.5 67.5t72.5 163.5q0 95 -72.5 162.5t-174.5 67.5t-174 -67.5t-72 -162.5q0 -96 72 -163.5t174 -67.5zM1324 614q103 0 174.5 67.5t71.5 163.5t-71.5 163t-174.5 67q-102 0 -174.5 -67.5t-72.5 -162.5q0 -96 72.5 -163.5t174.5 -67.5zM1950 974
q23 -16 41 -14t28 13.5t9 31.5t-14 40q-62 75 -169 151t-255 137q93 318 -21 523q-71 127 -198 173q-114 41 -208 -3q-96 -44 -109 -154q-3 -20 -2 -42v-24v-63.5t-0.5 -86t-0.5 -101v-99.5q-8 -1 -26 -6t-29 -7v101v104.5t-0.5 89.5t-0.5 66.5v25.5q4 126 -90 185
q-85 53 -200 23q-129 -34 -208 -152q-122 -182 -59 -473q8 -39 20 -80q-148 -61 -255 -137t-169 -151q-18 -27 -13.5 -52.5t25 -31t51.5 12.5q4 3 12.5 9t12.5 8v-793q0 -82 54 -140t130 -58h1436q76 0 130 58t54 140v793zM1828 1051v-762q0 -99 -37 -141t-127 -42h-1270
q-94 0 -127.5 38.5t-33.5 144.5v769q49 26 100.5 46t93 32.5t92 20.5t82 12t79 5t67.5 0.5t63.5 -2.5t51.5 -2q77 -1 108 31q33 33 81 68q7 -103 135 -99q6 0 46 2t56.5 2.5t59 0.5t70 -3t71.5 -8t80.5 -14.5t80.5 -22.5t89 -32.5t89 -43.5z" />
</svg>