<svg xmlns="http://www.w3.org/2000/svg" xmlns:xlink="http://www.w3.org/1999/xlink" version="1.1" viewBox="-10 0 2068 2048">
   <path fill="currentColor"
d="M552 1387q117 7 147.5 14.5t30.5 34.5q0 26 -31 44t-75 22t-88.5 0.5t-75 -20t-30.5 -40.5q0 -11 5 -23t9 -17l16 -20q77 4 92 5zM588 848q30 0 52.5 11t34.5 29t18 40t0 43.5t-18 39.5t-36 29t-55 11q-71 0 -98.5 -51t3 -101.5t99.5 -50.5zM1756 0q120 0 206 85.5
t86 206.5v1464q0 121 -86 206.5t-206 85.5h-1464q-120 0 -206 -85.5t-86 -206.5v-1464q0 -121 86 -206.5t206 -85.5h1464zM1115.5 640q50.5 0 77.5 -27t27 -77t-27 -75.5t-77.5 -25.5t-78 25.5t-27.5 75.5t27.5 77t78 27zM684 745v-1q-30 -8 -67 -10.5t-80 0.5t-82 17.5
t-71.5 39t-52 67.5t-19.5 100q0 61 27.5 106.5t72.5 67.5l-2 1q-43 40 -61 58t-31.5 39.5t-13.5 42.5q0 55 52 77q-34 32 -49 57t-15 61q0 72 69 108.5t221 36.5t236 -54.5t84 -154.5q0 -29 -4.5 -51.5t-18 -39.5t-25 -28.5t-41 -20.5t-49 -14t-65 -9.5t-74 -6.5t-89.5 -6
h-2q-21 -1 -66 -3l38 -62q22 6 53 8.5t70 0.5t76.5 -14.5t69.5 -34t51.5 -61.5t19.5 -93q0 -65 -42 -117l106 -9v-98h-226zM1236 1239q-12 -1 -15 -5t-3 -18v-483h-240l-14 94q7 3 17.5 6t14.5 5q33 11 39.5 16t6.5 20v342q0 16 -6 19.5t-40 7.5q-2 0 -13.5 1.5t-18.5 2.5
v93h332v-93zM1724 1191q-36 14 -65 18.5t-46.5 1t-31 -11t-18.5 -19t-9 -23t-2.5 -22t0.5 -16.5v-5v-277h172v-116h-164h-6q-4 -1 -3 -53q1 -65 1 -123h-112q-10 95 -44.5 138t-109.5 51v103h30q55 0 58 4q2 1 2 7v305q0 99 43.5 143t146.5 44q98 0 190 -46z" />
</svg>