<svg xmlns="http://www.w3.org/2000/svg" xmlns:xlink="http://www.w3.org/1999/xlink" version="1.1" viewBox="-10 0 2068 2048">
   <path fill="currentColor"
d="M384 1280q-105 0 -193 -51.5t-139.5 -140t-51.5 -192.5q0 -126 73.5 -226t190.5 -139q-8 -47 -8 -83q0 -91 35.5 -174t95.5 -143t143 -95.5t174 -35.5q128 0 233.5 65.5t162.5 174.5q45 -52 109 -82t135 -30q133 0 226.5 93.5t93.5 226.5q0 27 -6 64h6q105 0 193 51.5
t139.5 140t51.5 192.5t-51.5 192.5t-139.5 140t-193 51.5h-1280zM356 1488q8 -16 28 -16t28 16l140 259q24 47 24 97v11q0 80 -56 136.5t-135.5 56.5t-135 -56.5t-55.5 -136.5v-11q0 -54 24 -97zM996 1488q8 -16 28 -16t28 16l140 259q24 47 24 97v11q0 80 -55.5 136.5
t-135 56.5t-136.5 -57t-57 -136v-11q0 -52 26 -97zM1496 1747l142 -259q8 -16 27 -16t27 16l140 259q24 47 24 97v11q0 80 -56 136.5t-135.5 56.5t-136 -56.5t-56.5 -136.5v-11q0 -52 26 -97h-2z" />
</svg>