<svg xmlns="http://www.w3.org/2000/svg" xmlns:xlink="http://www.w3.org/1999/xlink" version="1.1" viewBox="-10 0 2067 2048">
   <path fill="currentColor"
d="M931 28l357 359l220 -221q38 -37 91 -37t90 37l192 193q38 38 38 91t-38 90l-220 220l357 357q29 28 29 68t-29 68l-383 385q-27 29 -67 29t-69 -29l-357 -358l-62 62q71 157 71 324q0 186 -85 351q-13 27 -43 30.5t-52 -18.5l-430 -430l-66 66q4 15 4 32
q0 53 -37.5 90.5t-90 37.5t-90.5 -37.5t-38 -90t38 -90.5t90 -38q16 0 34 5l65 -65l-430 -432q-22 -20 -18.5 -50.5t29.5 -44.5q166 -85 351 -85q173 0 325 71l62 -62l-357 -358q-28 -27 -28 -66.5t28 -68.5l383 -385q28 -28 68 -28t68 28zM1566 1433v1l250 -248l-291 -291
l-248 248zM905 771l248 -249l-290 -290l-249 249z" />
</svg>