<svg xmlns="http://www.w3.org/2000/svg" xmlns:xlink="http://www.w3.org/1999/xlink" version="1.1" viewBox="-10 0 2058 2048">
   <path fill="currentColor"
d="M1356 205h360q31 0 53.5 22.5t22.5 53.5v359q0 23 -13 42.5t-34.5 28.5t-44.5 4.5t-40 -20.5l-106 -108l-70 71l80 82q23 22 22.5 53.5t-22 54t-53.5 22.5t-55 -22l-80 -81l-92 91q98 145 98 319q0 115 -44.5 219t-119.5 180t-179.5 120.5t-219 44.5t-219 -44.5
t-179.5 -120.5t-120 -180t-45 -219t45 -219t120 -179.5t179.5 -120t219.5 -44.5q172 0 318 100l92 -92l-80 -82q-23 -22 -22.5 -53.5t22 -54t54 -22.5t54.5 22l80 81l72 -71l-106 -106q-17 -17 -22 -39.5t4 -44.5q8 -22 27.5 -34.5t42.5 -12.5zM1638 358zM462 1177
q0 97 47.5 180t130 131t180 48t180 -48t130.5 -131t48 -180t-48 -179.5t-130.5 -130.5t-180 -48t-180 48t-130 130.5t-47.5 179.5z" />
</svg>