<svg xmlns="http://www.w3.org/2000/svg" xmlns:xlink="http://www.w3.org/1999/xlink" version="1.1" viewBox="-10 0 2058 2048">
   <path fill="currentColor"
d="M61 1101q-3 -100 65 -173.5t167 -76.5h13l-32 -7q-97 -22 -150.5 -106.5t-31.5 -181.5t106 -150.5t181 -31.5l651 144q8 -10 27 -32l69 -76q48 -52 111.5 -80.5t133.5 -28.5h39q153 0 284.5 76t208.5 208l6 10q78 135 78 289v472q0 92 -35.5 176t-96 144.5t-144.5 96
t-176 35.5h-30h-361q-100 0 -170.5 -70.5t-70.5 -170.5q0 -12 2 -32q-56 -32 -89 -88t-33 -122v-9l-473 18q-100 3 -173 -65t-76 -168zM300 1033q-25 1 -42.5 19t-16.5 43t19.5 41.5t43.5 15.5l607 -20q28 -1 51.5 13.5t34.5 39.5q11 26 6 53t-24 47q-16 18 -16 40
q0 25 17.5 43t42.5 18q27 0 49 13t33 36q24 49 -9 95q-13 19 -13 37q0 25 18 42.5t43 17.5h361h30q113 0 192 -79.5t79 -191.5v-472q0 -107 -53 -198l-6 -9q-53 -90 -142.5 -142.5t-194.5 -52.5h-39q-66 0 -111 50l-66 -60l66 60l-70 75q-1 1 -3 4t-3 4l214 50q25 5 37.5 26
t7.5 46t-26 37.5t-46 7.5l-322 -74l-710 -158q-25 -5 -45.5 8t-25.5 38t8 46t38 26l705 157q29 6 49 28t22 52l1 3q3 39 -23 68.5t-64 31.5z" />
</svg>