<svg xmlns="http://www.w3.org/2000/svg" xmlns:xlink="http://www.w3.org/1999/xlink" version="1.1" viewBox="-10 0 2068 2048">
   <path fill="currentColor"
d="M2 1876q0 -4 -1 -10t-1 -9v-385v-1280q0 -80 56.5 -136t135.5 -56h384q80 0 136 56t56 136v192h-320q-26 0 -45 19t-19 45t19 45t45 19h320v257h-320q-26 0 -45 19t-19 45t19 44.5t45 18.5h320v256h-320q-26 0 -45 19t-19 45t19 45t45 19h320v321q0 26 19 45t45.5 19
t45 -19t18.5 -45v-321h256v321q0 26 18.5 45t45 19t45.5 -19t19 -45v-321h256v321q0 26 19 45t45.5 19t45 -19t18.5 -45v-321h192q79 0 135.5 56t56.5 136v385q0 79 -56.5 135t-135.5 56h-1280h-384q-74 0 -128.5 -49.5t-61.5 -122.5z" />
</svg>