<svg xmlns="http://www.w3.org/2000/svg" xmlns:xlink="http://www.w3.org/1999/xlink" version="1.1" viewBox="-10 0 2068 2048">
   <path fill="currentColor"
d="M2048 292v1464q0 121 -86 206.5t-206 85.5h-1464q-120 0 -206 -85.5t-86 -206.5v-1464q0 -121 86 -206.5t206 -85.5h1464q120 0 206 85.5t86 206.5zM964 1137q17 52 38 93t56.5 80t82 64t114 40.5t151.5 15.5q348 0 348 -231q0 -56 -18.5 -98.5t-42.5 -67t-71 -44
t-77 -27.5t-87 -20q-2 0 -32 -6q-53 -12 -74.5 -35t-21.5 -63q0 -42 32 -66t88 -24q60 0 92.5 25t37.5 78l168 -20q-10 -110 -83 -161.5t-205 -51.5q-47 0 -88.5 7t-80.5 24.5t-67 44t-45 68.5t-17 95q0 87 46 141t148 78q8 2 23 5t23 5q27 6 38.5 9t33.5 9t32 10t26 11.5
t23 14.5t15 17.5t11 22.5t3 27q0 46 -43 66.5t-131 20.5q-61 0 -108.5 -15t-80 -44.5t-53.5 -66t-38 -85.5q-13 -42 -20 -62v-1q-17 -53 -25.5 -78.5t-25 -69t-29 -65t-33.5 -54t-41.5 -48.5t-50 -36t-63.5 -29t-77 -15.5t-95 -6.5q-183 0 -279.5 110t-96.5 310
q0 191 94 291.5t270 100.5q53 0 101.5 -9t79.5 -22t54.5 -26.5t34.5 -22.5l10 -9l-54 -145q-3 4 -9.5 10.5t-28.5 23t-45.5 29.5t-60 23.5t-72.5 10.5q-88 0 -143 -71.5t-55 -190.5q0 -75 17 -130.5t46.5 -87t65 -46.5t75.5 -15q36 0 66 8t51.5 19.5t41 36.5t32 44.5
t28 59.5t24 66t25.5 79q16 57 22 72z" />
</svg>