<svg xmlns="http://www.w3.org/2000/svg" xmlns:xlink="http://www.w3.org/1999/xlink" version="1.1" viewBox="-10 0 2068 2048">
   <path fill="currentColor"
d="M930 21q45 -20 93.5 -20t94.5 20l872 404q26 11 42 34.5t16 51.5t-16 52.5t-42 35.5l-872 404q-94 42 -188 0l-874 -404q-26 -12 -41 -36t-15 -52t15 -51.5t41 -34.5zM1778 838l212 98q26 11 42 35.5t16 52.5t-16 51.5t-42 34.5l-872 404q-94 42 -188 0l-874 -404
q-26 -12 -41 -35t-15 -51t15 -52.5t41 -35.5l212 -98l608 281q69 32 147.5 32t148.5 -32zM1172 1630l606 -280l212 98q26 11 42 35t16 52t-16 52.5t-42 35.5l-872 404q-94 42 -188 0l-874 -404q-26 -12 -41 -36t-15 -52t15 -52t41 -35l212 -98l608 280q69 32 147.5 32
t148.5 -32z" />
</svg>