<svg xmlns="http://www.w3.org/2000/svg" xmlns:xlink="http://www.w3.org/1999/xlink" version="1.1" viewBox="-10 0 2067 2048">
   <path fill="currentColor"
d="M911 47q47 -47 113.5 -47t113.5 47l862 863q47 47 47 113t-47 113l-862 865q-47 47 -113.5 47t-113.5 -47l-863 -865q-47 -47 -47 -113t47 -113zM1261 595q-30 -30 -69 -14q-40 17 -40 58v224h-256q-106 0 -180.5 75t-74.5 181v193q0 40 27.5 67.5t67.5 27.5t68 -27.5
t28 -67.5v-193q0 -26 19 -45t45 -19h256v224q0 43 40 60q39 16 69 -14l320 -321q19 -19 19 -45t-19 -45z" />
</svg>