<svg xmlns="http://www.w3.org/2000/svg" xmlns:xlink="http://www.w3.org/1999/xlink" version="1.1" viewBox="-10 0 2068 2048">
   <path fill="currentColor"
d="M228 228h1592q93 0 160.5 66.5t67.5 159.5v1138q0 94 -67.5 161t-160.5 67h-1592q-94 0 -161 -67t-67 -161v-1138q0 -93 67 -159.5t161 -66.5zM512 1138q-117 0 -200.5 83t-83.5 201q0 23 16.5 39.5t39.5 16.5h682q24 0 41 -16.5t17 -39.5q0 -118 -83.5 -201t-200.5 -83
h-228zM398 796.5q0 93.5 67.5 160.5t161 67t160.5 -67t67 -160.5t-67 -161t-160.5 -67.5t-161 67.5t-67.5 161zM1308 682q-23 0 -39.5 16.5t-16.5 40t16.5 40.5t39.5 17h454q24 0 41 -17t17 -40.5t-17 -40t-41 -16.5h-454zM1308 910q-23 0 -39.5 17t-16.5 40.5t16.5 40
t39.5 16.5h454q24 0 41 -16.5t17 -40t-17 -40.5t-41 -17h-454zM1308 1138q-23 0 -39.5 16.5t-16.5 40t16.5 40.5t39.5 17h454q24 0 41 -17t17 -40.5t-17 -40t-41 -16.5h-454z" />
</svg>