<svg xmlns="http://www.w3.org/2000/svg" xmlns:xlink="http://www.w3.org/1999/xlink" version="1.1" viewBox="-10 0 2068 2048">
   <path fill="currentColor"
d="M1024.5 0q139.5 0 272 37t244.5 102.5t206.5 160t160.5 207t103 245.5t37 272t-37 272t-103 245.5t-160.5 207t-206.5 160t-244.5 102.5t-272 37t-272 -37t-245 -102.5t-207 -160t-160.5 -207t-103 -245.5t-37 -272t37 -272t103 -245.5t160.5 -207t207 -160t245 -102.5
t272 -37zM540 964l416 416q28 28 68 28t68 -28l416 -416q28 -28 27.5 -67.5t-28 -68t-67.5 -28.5t-68 28l-348 349l-348 -349q-27 -28 -67.5 -28t-69 28t-28.5 68t29 68z" />
</svg>