<svg xmlns="http://www.w3.org/2000/svg" xmlns:xlink="http://www.w3.org/1999/xlink" version="1.1" viewBox="-10 0 2058 2048">
   <path fill="currentColor"
d="M440 380q-24 0 -42 17.5t-18 41.5v1170q0 24 18 41.5t42 17.5h1170q23 0 40.5 -17.5t17.5 -41.5v-1170q0 -24 -17.5 -41.5t-40.5 -17.5h-1170zM206 439q0 -97 68.5 -165.5t165.5 -68.5h1170q96 0 164 68.5t68 165.5v1170q0 97 -68 165.5t-164 68.5h-1170
q-97 0 -165.5 -68.5t-68.5 -165.5v-1170zM1436 852l-466 468q-27 26 -63 26t-61 -26l-234 -234q-27 -26 -27 -62t26.5 -62t62.5 -26t62 26l172 172l406 -406q26 -26 61.5 -26t61 26t26 62t-26.5 62z" />
</svg>