<svg xmlns="http://www.w3.org/2000/svg" xmlns:xlink="http://www.w3.org/1999/xlink" version="1.1" viewBox="-10 0 2058 2048">
   <path fill="currentColor"
d="M384 0h128h1024h128q52 0 90 38t38 90t-38 90t-90 38v44q0 128 -48.5 245t-138.5 207l-272 272l272 272q90 90 138.5 207t48.5 245v45q53 0 90.5 37.5t37.5 89.5t-38 90t-90 38h-128h-1024h-128q-52 0 -90 -38t-38 -90t37.5 -89.5t90.5 -37.5v-45q0 -128 48.5 -245
t138.5 -207l272 -272l-272 -272q-90 -90 -138.5 -207t-48.5 -245v-44q-52 0 -90 -38t-38 -90t38 -90t90 -38zM1407 1748v1q0 -159 -111 -272l-272 -272l-272 271q-113 115 -113 272v45h768v-45z" />
</svg>