<svg xmlns="http://www.w3.org/2000/svg" xmlns:xlink="http://www.w3.org/1999/xlink" version="1.1" viewBox="-10 0 2068 2048">
   <path fill="currentColor"
d="M15 671q-29 84 9 153q31 56 76 81q10 27 13 34q61 128 229 119l8 29q14 46 17 55q10 28 36 64q29 39 64 66q38 29 100 55q63 27 144 36q125 12 225 -38q0 128 68 165q119 72 123 289v191q0 21 21 30t38 -9l93 -97q22 -22 22 -47v-170q59 21 84 -25q5 0 13 4t13 4
q143 30 261 -34q117 -62 142 -182q10 -38 0 -81q13 0 21 -4q79 -16 129 -89q49 -71 49 -170q52 -93 26 -204q-11 -62 -47 -119q9 -139 -132 -207q0 -128 -106 -230q-72 -63 -157 -84q-57 -96 -156 -141q-135 -55 -242 0q-59 -55 -161 -67q-91 -12 -170 21q-92 -21 -187 -4
q-122 17 -216 89q-131 0 -233 110q-24 25 -39 55q-63 31 -110 81q-118 133 -68 271z" />
</svg>