<svg xmlns="http://www.w3.org/2000/svg" xmlns:xlink="http://www.w3.org/1999/xlink" version="1.1" viewBox="-10 0 2058 2048">
   <path fill="currentColor"
d="M1024 0q60 0 103 43t43 103v619l510 -306q51 -31 110 -16t90 67q32 52 16.5 110.5t-66.5 90.5l-522 313l522 313q52 32 67 90.5t-17 110.5q-31 52 -90 67t-110 -16l-510 -308v621q0 60 -43 103t-103 43t-103 -43t-43 -103v-621l-510 306q-51 31 -110 17t-90 -66
q-32 -52 -16.5 -110.5t66.5 -90.5l522 -313l-522 -313q-52 -32 -67 -91t16.5 -111t90.5 -66.5t110 16.5l510 306v-619q0 -60 43 -103t103 -43z" />
</svg>