<svg xmlns="http://www.w3.org/2000/svg" xmlns:xlink="http://www.w3.org/1999/xlink" version="1.1" viewBox="-10 0 2068 2048">
   <path fill="currentColor"
d="M2010 640q17 11 27.5 31t10.5 41v624q0 22 -10.5 42t-27.5 32l-936 624q-50 31 -98 0l-936 -624q-18 -12 -29 -32t-11 -42v-624q0 -21 11 -41t29 -31l936 -626q49 -31 98 0zM1112 254v408l382 256l308 -206zM936 254l-688 458l308 206l380 -256v-408zM176 878v294
l220 -148zM936 1796v-410l-380 -254l-308 204zM1024 1232l310 -208l-310 -208l-310 208zM1112 1796l690 -460l-308 -204l-382 254v410zM1872 1172v-294l-220 146z" />
</svg>