<svg xmlns="http://www.w3.org/2000/svg" xmlns:xlink="http://www.w3.org/1999/xlink" version="1.1" viewBox="-10 0 2066 2048">
   <path fill="currentColor"
d="M828 2q60 11 96 60.5t26 107.5l-46 268h434l54 -316q10 -59 59.5 -94.5t108.5 -25.5q59 11 94.5 60.5t25.5 107.5l-44 268h264q60 0 103 43t43 103.5t-43 104t-103 43.5h-314l-96 584h264q60 0 103 43t43 103t-43 103t-103 43h-314l-52 316q-11 60 -60.5 95.5
t-107.5 24.5q-60 -10 -95.5 -59t-24.5 -107l44 -268h-434l-54 316q-10 59 -59.5 94.5t-108.5 25.5q-59 -11 -94.5 -60.5t-25.5 -107.5l46 -270h-266q-60 0 -103 -43t-43 -103t43 -103t103 -43h314l98 -584h-266q-60 0 -103 -43.5t-43 -104t43 -103.5t103 -43h314l52 -316
q11 -59 60.5 -94.5t107.5 -25.5zM856 732l-98 584h434l98 -584h-434z" />
</svg>