<svg xmlns="http://www.w3.org/2000/svg" xmlns:xlink="http://www.w3.org/1999/xlink" version="1.1" viewBox="-10 0 2068 2048">
   <path fill="currentColor"
d="M1856 1024q0 -113 -30 -221t-83.5 -199t-130.5 -168t-168 -130.5t-199 -83.5t-221 -30t-220.5 30t-199 83.5t-168 130.5t-130.5 168t-84 199t-30 221t30 221t84 199t130.5 168t168 131t199.5 84t220.5 30t220.5 -30t199 -84t168 -131t130.5 -168t83.5 -199t30 -221z
M0 1024q0 -139 37 -272t103 -245.5t160.5 -207t207 -160t245 -102.5t272 -37t272 37t244.5 102.5t206.5 160t160.5 207t103 245.5t37 272t-37 272t-103 245.5t-160.5 207t-206.5 160t-244.5 102.5t-272 37t-272 -37t-245 -102.5t-207 -160t-160.5 -207t-103 -245.5t-37 -272
zM1398 1233q27 -6 53 1.5t41.5 24.5t20 40t-12.5 47q-75 117 -201 186t-274.5 69t-275 -69t-201.5 -186q-17 -24 -12.5 -47t19.5 -40t41 -24.5t54 -1.5q184 43 374 43q189 0 374 -43zM578 832.5q0 -52.5 37.5 -90.5t90 -38t90.5 38t38 90.5t-38 90t-90.5 37.5t-90 -37.5
t-37.5 -90zM1240 919q-22 25 -55.5 25.5t-56.5 -22.5q-24 -22 -25 -54.5t21 -57.5q42 -45 99.5 -67.5t119 -22.5t119.5 22.5t100 67.5q22 25 20.5 57t-26.5 55q-23 23 -56 22.5t-56 -25.5q-37 -39 -102 -39q-66 0 -102 39z" />
</svg>