<svg xmlns="http://www.w3.org/2000/svg" xmlns:xlink="http://www.w3.org/1999/xlink" version="1.1" viewBox="-10 0 2058 2048">
   <path fill="currentColor"
d="M1344 432q1 2 3 4q62 62 94 95t88 96.5t87.5 107.5t71.5 111t61 126t36.5 132.5t15.5 148.5v34q-4 158 -69 301t-171 244.5t-251 160t-303 55t-300.5 -68.5t-244.5 -171t-160 -251.5t-54 -303.5q0 -75 15 -148.5t36 -132.5t61.5 -126t71.5 -111t87 -107.5t88 -96.5
t94 -95l4 -4q50 -50 71.5 -72t64 -67t64 -74t49.5 -68.5t44.5 -76t26.5 -74.5q9 38 25.5 74.5t44 76t49.5 69t63.5 73t64.5 67.5t72 72zM648 1324l64 -75l182 -202q5 -5 5 -14q0 -8 -5 -13l-175 -178l-37 -36q-49 58 -83 110q-66 97 -93 199q-2 6 -4.5 16.5t-7 41.5t-5.5 60
t4 66.5t18 65.5l4 7q1 4 15 25q20 35 37 35h6q10 -2 14 -12q22 -49 61 -96zM1033 1833h1q110 0 188.5 -78t78.5 -189l-1 -1q0 -83 -48 -152q-2 -4 -12 -17q-68 -85 -205 -232q-39 45 -106 117t-94 104q-68 78 -68 179q0 111 77.5 190t188.5 79zM1538 1406q22 -73 24 -153
q-2 -184 -109 -335q-126 -176 -278 -317q-101 -101 -149 -154q-20 22 -42 45t-51.5 52.5l-42.5 42.5q-38 37 -38 90q0 6 2 20v7q5 19 19 37l3 6q59 68 142 145l236 245l72 74q86 91 157 196q8 17 25 21h5q20 -3 25 -22z" />
</svg>