<svg xmlns="http://www.w3.org/2000/svg" xmlns:xlink="http://www.w3.org/1999/xlink" version="1.1" viewBox="-10 0 2058 2048">
   <path fill="currentColor"
d="M1024 0q-274 0 -468 194q-194 193 -194 468q0 242 154 423t386 227v628q0 45 32 77q32 31 72 31q42 0 76 -33q34 -34 34 -75v-624q298 -37 460 -296q110 -173 110 -358q0 -274 -194 -468t-468 -194zM1024 1203q-216 0 -384 -158q-51 -52 -94 -129q-54 -150 -22 -314
q33 -164 154 -285q142 -142 338 -142q198 0 332 142q116 107 116 274q0 163 -116 279q-96 96 -231 96t-231 -96q-78 -79 -78 -195q0 -117 78 -196q72 -71 166 -71q96 0 162 71q50 50 0 100q-48 46 -94 0q-30 -29 -70 -29q-38 0 -68 29q-38 43 -38 98t38 93q60 55 136 55
t130 -55q76 -70 76 -179q0 -104 -76 -179q-94 -95 -232 -95q-142 0 -238 95q-128 129 -128 309q0 179 128 308q150 150 362 162q-58 12 -116 12z" />
</svg>