<svg xmlns="http://www.w3.org/2000/svg" xmlns:xlink="http://www.w3.org/1999/xlink" version="1.1" viewBox="-10 0 2068 2048">
   <path fill="currentColor"
d="M1296 1910q-58 17 -115 8.5t-105 -34.5t-84.5 -71.5t-51.5 -101.5l-24 -80q-23 -81 -78 -140l-204 -225q-27 -29 -25.5 -68.5t31 -66.5t69 -25t67.5 31l204 225q85 94 120 217l24 79q10 38 45 57.5t73 8.5q39 -10 58 -45t8 -73l-22 -80q-34 -120 -108 -222
q-32 -45 -6 -100q12 -24 35 -38t51 -14h534q26 0 45 -19t19 -45q0 -20 -11.5 -36t-30.5 -23q-21 -8 -36.5 -26.5t-21.5 -41.5q-13 -48 20 -86q16 -18 16 -42q0 -23 -15.5 -41t-36.5 -22q-25 -5 -44 -21.5t-28 -39.5t-5 -49t19 -45q14 -17 14 -39q0 -20 -11 -36.5t-29 -23.5
q-34 -13 -50.5 -46t-7.5 -69q2 -10 2 -17q0 -26 -18.5 -45t-45.5 -19h-390q-78 0 -142 42l-246 165q-33 22 -72.5 14t-61 -41t-13.5 -72t41 -61l246 -165q114 -75 248 -75h390q105 0 178.5 72t77.5 176q44 36 70 89t26 112q0 18 -6 52q48 36 75 89t27 114q0 42 -12 75
q76 77 76 182q0 106 -75 181t-181 75h-370q34 77 48 129l22 80q18 57 9.5 114.5t-34 105.5t-70.5 84.5t-101 52.5zM128 1536q-52 0 -90 -37.5t-38 -90.5v-896q0 -52 38 -90t90 -38h256q52 0 90 38t38 90v896q0 52 -38 90t-90 38h-256z" />
</svg>