<svg xmlns="http://www.w3.org/2000/svg" xmlns:xlink="http://www.w3.org/1999/xlink" version="1.1" viewBox="-10 0 2066 2048">
   <path fill="currentColor"
d="M1024 466l36 -65q18 -30 52 -39t63.5 8t39 51t-8.5 64l-360 626h262q30 0 55.5 16.5t37.5 41.5t14.5 54.5t-13.5 55.5h-766q-35 0 -59.5 -24.5t-24.5 -59.5t24.5 -59.5t59.5 -24.5h216l274 -476l-86 -150q-17 -30 -7.5 -64t39 -51t63.5 -8t51 39zM698 1366l-80 140
q-18 30 -52 39t-63.5 -8t-39 -51t8.5 -64l60 -104q101 -31 166 48zM1396 1111h218q36 0 60 24.5t24 59.5t-24 60t-60 25h-122l84 142q17 30 7.5 64t-39 51t-63.5 8t-51 -39q-289 -498 -312 -539q-25 -43 -32 -89.5t1.5 -84t24.5 -66.5t36 -45q5 10 93 162.5t155 266.5z
M1023.5 0q139.5 0 272 37t244.5 102.5t206.5 160t160.5 207t102.5 245.5t36.5 272t-36.5 272t-102.5 245.5t-160.5 207t-206.5 160t-244.5 102.5t-272 37t-272 -37t-244.5 -102.5t-206 -160t-160 -207t-102.5 -245.5t-36.5 -272t36.5 -272t102.5 -245.5t160 -207t206 -160
t244.5 -102.5t272 -37zM1916 1024q0 -122 -32.5 -238t-90.5 -213.5t-140.5 -180t-180.5 -139.5t-213 -89t-235 -32q-122 0 -238 32t-213.5 90t-180 140.5t-139.5 180.5t-89 213t-32 236q0 122 32.5 238t90 213.5t140 179.5t180.5 139t213 89t236 32t237 -32t214 -90
t180 -140t139.5 -180t89.5 -213t32 -236z" />
</svg>