<svg xmlns="http://www.w3.org/2000/svg" xmlns:xlink="http://www.w3.org/1999/xlink" version="1.1" viewBox="-10 0 2068 2048">
   <path fill="currentColor"
d="M0 512q0 -106 75.5 -181t180.5 -75h1536q105 0 180.5 75t75.5 181v1024q0 105 -75.5 180.5t-180.5 75.5h-1536q-105 0 -180.5 -75.5t-75.5 -180.5v-1024zM256 640v256q0 52 37.5 90t90.5 38h1280q53 0 90.5 -38t37.5 -90v-256q0 -53 -37.5 -90.5t-90.5 -37.5h-1280
q-53 0 -90.5 37.5t-37.5 90.5zM320 1280q-39 0 -67.5 28.5t-28.5 68t28.5 67.5t67.5 28h224q40 0 68 -28t28 -67.5t-28 -68t-68 -28.5h-224zM864 1280q-39 0 -67.5 28.5t-28.5 68t28.5 67.5t67.5 28h192q40 0 68 -28t28 -67.5t-28 -68t-68 -28.5h-192z" />
</svg>