<svg xmlns="http://www.w3.org/2000/svg" xmlns:xlink="http://www.w3.org/1999/xlink" version="1.1" viewBox="-10 0 2068 2048">
   <path fill="currentColor"
d="M316 738h-186v-331q0 -118 80 -198q80 -79 194 -79h1236q114 0 194 79q80 80 80 198v331h-184v-88q0 -54 -38 -92t-92 -38h-354q-52 0 -94 38q-40 37 -40 92v88h-184v-88q0 -56 -40 -92q-41 -38 -94 -38h-352q-56 0 -94 38q-36 37 -36 92v88h4zM0 944v512
q0 110 78.5 189.5t187.5 83.5v58q0 56 36 93q38 38 94 38h142q53 0 94 -38q40 -36 40 -93v-54h708v54q0 56 40 93q42 38 96 38h134q52 0 94 -38q40 -37 40 -93v-58q108 -4 186 -84q78 -78 78 -189v-512h-2048z" />
</svg>