<svg xmlns="http://www.w3.org/2000/svg" xmlns:xlink="http://www.w3.org/1999/xlink" version="1.1" viewBox="-10 0 2058 2048">
   <path fill="currentColor"
d="M512 1857h1024q26 0 45 -19t19 -45v-1153h-320q-52 0 -90 -38t-38 -90v-320h-192q0 26 -19 45t-45 19h-128q-26 0 -45 -19t-19 -45h-192q-26 0 -45 19t-19 45v1537q0 26 19 45t45 19zM512 0h661q106 0 181 75l363 362q75 75 75 181v1175q0 106 -75 180.5t-181 74.5h-1024
q-106 0 -181 -74.5t-75 -180.5v-1537q0 -106 75 -181t181 -75zM704 448q0 -26 19 -45t45 -19h128q26 0 45 19t19 45t-19 45t-45 19h-128q-26 0 -45 -19t-19 -45zM704 704q0 -26 19 -45t45 -19h128q26 0 45 19t19 45t-19 45.5t-45 19.5h-128q-26 0 -45 -19.5t-19 -45.5z
M678 992v-1q11 -42 46 -69t78 -27h59q43 0 78 27t46 69l94 353q9 40 9 65q0 106 -75 181t-181 75t-181 -75t-75 -181q0 -30 8 -65zM768 1344q-26 0 -45 19t-19 45t19 45t45 19h128q26 0 45 -19t19 -45t-19 -45t-45 -19h-128z" />
</svg>