<svg xmlns="http://www.w3.org/2000/svg" xmlns:xlink="http://www.w3.org/1999/xlink" version="1.1" viewBox="-10 0 2068 2048">
   <path fill="currentColor"
d="M826 957q113 32 171.5 115.5t58.5 204.5q0 75 -24.5 136.5t-66.5 103.5t-99 71t-121 42t-135 13h-610v-1261h594q69 0 125.5 8t109.5 29.5t88.5 56t57 90t21.5 128.5q0 94 -42 158t-128 105zM278 597v295h280q78 0 124 -37t46 -114q0 -144 -190 -144h-260zM574 1428
q204 0 204 -167q0 -180 -200 -180h-300v347h296zM1848 573h-512v-124h512v124zM2048 1200q0 16 -2 46h-658q0 110 57.5 171t166.5 61q62 0 121 -32t75 -87h222q-99 307 -426 307q-142 0 -248.5 -60.5t-162 -168.5t-55.5 -250q0 -136 57.5 -245.5t164.5 -173t244 -63.5
q104 0 189 39.5t140 107t85 157t30 191.5zM1388 1088h408q-9 -93 -58.5 -144t-141.5 -51q-90 0 -146 53t-62 142z" />
</svg>