<svg xmlns="http://www.w3.org/2000/svg" xmlns:xlink="http://www.w3.org/1999/xlink" version="1.1" viewBox="-10 0 2068 2048">
   <path fill="currentColor"
d="M1076 2q141 19 236.5 127.5t95.5 252.5q0 64 -22 129h22q106 0 181 75.5t75 180.5q0 114 -86 191h54q119 0 203.5 85t84.5 204q0 69 -29.5 128t-82.5 99q103 18 171.5 98.5t68.5 186.5q0 120 -84 203.5t-204 83.5h-1472q-119 0 -203.5 -84t-84.5 -203q0 -106 69 -186.5
t171 -98.5q-52 -40 -82 -99t-30 -128q0 -119 84.5 -204t203.5 -85h56q-88 -78 -88 -191q0 -105 75.5 -180.5t180.5 -75.5h64q88 0 161.5 -43t116 -117t42.5 -161q0 -50 -18 -104q-12 -33 12 -62q22 -27 58 -22zM768.5 1022q-52.5 0 -90.5 38t-38 90.5t38 90t90.5 37.5
t90 -37.5t37.5 -90t-37.5 -90.5t-90 -38zM1152 1150.5q0 52.5 38 90t90.5 37.5t90 -37.5t37.5 -90t-37.5 -90.5t-90 -38t-90.5 38t-38 90.5zM1408 1584q0 -20 -14.5 -35t-35.5 -15h-668q-21 0 -35.5 15t-14.5 35q0 15 10 27q13 17 30 35t52.5 46t75 48.5t97.5 35.5t119.5 15
t119 -15t97.5 -35.5t75 -48t53 -46t31 -35.5q8 -12 8 -27z" />
</svg>