<svg xmlns="http://www.w3.org/2000/svg" xmlns:xlink="http://www.w3.org/1999/xlink" version="1.1" viewBox="-10 0 2058 2048">
   <path fill="currentColor"
d="M1825 1260q-47 116 -115.5 191.5t-140 103t-147.5 33.5t-143 -11t-120 -36.5t-84 -36.5l-30 -18q-130 261 -331.5 411t-438.5 151q-32 0 -45.5 -25.5t-0.5 -51t46 -25.5q197 -1 367.5 -123t288.5 -337q-42 16 -83 26.5t-94.5 15t-104 -3t-106.5 -32.5t-104.5 -67
t-96.5 -114t-85 -167q93 -39 179 -56t152.5 -14t126 21.5t102.5 44.5t80.5 61.5t60.5 67t43 65.5q59 -144 89 -332q-8 1 -21 2.5t-53 3t-79.5 -0.5t-93 -11.5t-100.5 -26.5t-96.5 -49t-85.5 -74.5t-62 -108t-32 -145.5q148 -55 256.5 -43.5t181.5 70t117 124t63 117.5l19 53
q3 -31 6 -87t5 -94.5t2 -42.5q-10 -6 -25.5 -18t-56 -51.5t-72.5 -81.5t-62 -106t-37.5 -128.5t14 -145t80.5 -158.5q83 29 145 70.5t96.5 87.5t55 97.5t23.5 101.5t-0.5 97.5t-15 88t-22 71t-18.5 47.5l-8 17q1 5 1 56.5t-1 81.5q3 -8 11 -21t35 -48.5t58 -66t81 -63.5
t104.5 -50.5t128 -17t151.5 27.5q-4 114 -38.5 200t-87 132.5t-115 76.5t-124 37t-112.5 7.5t-83 -4.5l-31 -5q-25 157 -84 323q7 -8 20 -21t56.5 -47t89 -60t113 -47.5t134 -23t147.5 26t157 88.5z" />
</svg>