<svg xmlns="http://www.w3.org/2000/svg" xmlns:xlink="http://www.w3.org/1999/xlink" version="1.1" viewBox="-10 0 2068 2048">
   <path fill="currentColor"
d="M462 1741q-94 0 -179.5 -36.5t-147.5 -98t-98.5 -147t-36.5 -179.5q0 -149 86 -268t222 -167v-13v-13q0 -104 40.5 -199t109 -163.5t163.5 -109t199 -40.5q139 0 257 70t185 187q78 -52 172 -52q127 0 216.5 90t89.5 217q0 57 -20 111q142 29 235 141.5t93 259.5
q0 111 -55 205.5t-149.5 149.5t-205.5 55h-1176zM714 1047q-23 23 -23 54.5t22.5 53.5t55 22t53.5 -22l126 -125v429q0 32 22 54.5t53.5 22.5t54 -23t22.5 -54v-429l126 125q22 23 54 23t53.5 -23t22 -54.5t-21.5 -53.5l-256 -257q-22 -22 -55 -22t-55 22z" />
</svg>