<svg xmlns="http://www.w3.org/2000/svg" xmlns:xlink="http://www.w3.org/1999/xlink" version="1.1" viewBox="-10 0 2068 2048">
   <path fill="currentColor"
d="M356 1025l20 208l-20 218q0 6 -4 10t-9.5 4t-9 -4t-3.5 -10l-18 -218l18 -208q0 -5 3.5 -9.5t9 -4.5t9.5 4.5t4 9.5zM424 879q7 0 11.5 4.5t4.5 11.5l18 338l-18 218q0 7 -4.5 12t-11.5 5q-13 0 -14 -17l-18 -218l18 -338q1 -16 14 -16zM506 802q7 0 12.5 5t5.5 12
l18 416l-18 217q0 7 -5.5 12t-12.5 5q-15 0 -16 -17l-14 -217l14 -416q1 -17 16 -17zM24 1111q6 0 8 8l18 114l-18 112q-2 7 -8.5 7t-7.5 -7l-16 -112l16 -114q2 -8 8 -8zM100 1040q5 0 8 9l24 184l-24 180q-2 8 -8 8q-4 0 -7 -2.5t-3 -6.5l-20 -179l20 -184q0 -3 3 -6t7 -3
zM180 1004q3 0 6.5 3.5t3.5 7.5l22 218l-22 210q0 4 -3.5 7t-6.5 3q-8 0 -10 -10l-18 -210l18 -218q1 -11 10 -11zM262 997q10 0 12 11l20 225l-20 217q-2 12 -12 12q-5 0 -8.5 -3.5t-3.5 -8.5l-20 -217l20 -225q0 -11 12 -11zM1034 643q11 6 12 22l14 569l-14 205
q0 11 -7 19t-18.5 8t-20 -8t-8.5 -19l-6 -101l-6 -104l12 -566v-3q1 -14 10 -21q8 -6 18 -6q8 0 14 5zM948 691q11 6 12 22l10 521l-10 187v22q0 12 -8 18q-8 8 -18 8q-12 0 -20 -10q-6 -7 -6 -16l-10 -210l8 -515l2 -5q0 -16 12 -22q5 -4 13.5 -4t14.5 4zM592 763
q7 0 12.5 6t5.5 14l16 450l-16 215q0 8 -5.5 13t-13 5t-12.5 -5t-5 -13l-16 -215l16 -450q0 -8 5 -14t13 -6zM1796 964q105 0 178.5 73.5t73.5 178.5q0 104 -74 178t-178 74h-698q-12 -2 -20 -10t-8 -20v-799q0 -12 5.5 -18t20.5 -11q75 -31 160 -31q113 0 211.5 54
t159.5 146.5t71 204.5q51 -20 98 -20zM846 772q11 0 18 6.5t8 17.5l12 438l-12 209q0 11 -7.5 18t-18.5 7q-10 0 -16.5 -7t-7.5 -18l-10 -209l10 -438q2 -24 24 -24zM676 747q8 0 14 6t6 14l14 466l-14 214q0 8 -6 14.5t-14 6.5t-14 -6.5t-6 -14.5l-14 -214l14 -466
q0 -8 6 -14t14 -6zM761.5 757q8.5 0 15.5 7t7 16l12 453l-12 212q0 9 -7 16t-15.5 7t-15 -7t-6.5 -16l-14 -212l14 -453q0 -9 6.5 -16t15 -7z" />
</svg>