<svg xmlns="http://www.w3.org/2000/svg" xmlns:xlink="http://www.w3.org/1999/xlink" version="1.1" viewBox="-10 0 2068 2048">
   <path fill="currentColor"
d="M1928 128q74 0 97 23t23 97v1553q0 73 -23.5 96t-96.5 23h-1812q-70 0 -93 -22.5t-23 -92.5v-1562q0 -69 23 -92t93 -23h1812zM714 881q51 39 44 110q-2 26 -53.5 41t-118 20t-149.5 20.5t-133 41.5q-82 41 -125 118.5t-35 165.5q8 75 49.5 131t104 84t136 35t152.5 -13
t146 -63q32 -23 48 -5q5 6 8.5 13.5t7.5 11.5q21 28 90.5 38.5t95.5 -9.5q21 -20 10 -42q-18 -42 -26.5 -92.5t-7.5 -92.5t0.5 -88.5t-2.5 -81.5q0 -33 0.5 -79.5t0.5 -74.5t-0.5 -66t-2 -61.5t-6 -53.5t-11 -49t-17 -41t-24.5 -37t-33.5 -28.5t-44.5 -23.5
q-260 -107 -502 19q-20 11 -46 36t-49.5 57t-37 64t-6 59.5t40.5 40.5q25 10 90 22q16 2 28 3t22.5 -7.5t19.5 -29.5q23 -63 82.5 -99t130 -35t123.5 41zM1860 1770q0 -16 -3.5 -26t-12 -13t-15 -3.5t-18.5 1t-17 1.5q-793 -2 -1586 0q-5 0 -17 -1.5t-19 -1.5t-15.5 3
t-12.5 12t-4 25q-1 18 3 28.5t12.5 13.5t16 3t20 -1.5t18.5 -1.5h1580q5 0 17 2t19.5 2t16.5 -3t13 -13t4 -27zM1876 407v-1q0 -31 -12.5 -45.5t-41.5 -12.5h-12.5h-14.5h-11q-78 0 -91 13t-13 92v284q-66 -38 -127.5 -55.5t-110.5 -17t-94 14t-78 35t-61.5 48.5t-45.5 50.5
t-29 46.5q-100 200 -62 400q15 90 50 162t81 117.5t101.5 74t114 34.5t117.5 -5.5t112 -41.5q4 -2 10 -7t9.5 -6.5t8.5 -1.5t10.5 5t11.5 15q16 23 38.5 28t58 -0.5t47.5 -5.5q34 0 34 -55v-1165zM1670 1336q-23 55 -61 90t-80.5 44t-85 0.5t-78.5 -38.5t-55 -75
q-95 -205 2 -405q31 -67 92 -93.5t126 -7t108 80.5q28 40 42.5 101.5t14 120t-7.5 107t-17 75.5zM492 1478q-1 0 -11 -1.5t-15 -2.5t-16.5 -3.5t-18.5 -5.5t-17.5 -8t-17.5 -10.5t-15 -13.5t-13 -17.5t-8.5 -22t-3.5 -26.5q-1 -40 20.5 -67.5t57.5 -35.5q58 -14 170 -35.5
t126 -24.5q7 0 12.5 -1.5t9 2t5 4.5t2.5 6.5t1 8.5v9v9q4 101 -71 169t-197 67z" />
</svg>