<svg xmlns="http://www.w3.org/2000/svg" xmlns:xlink="http://www.w3.org/1999/xlink" version="1.1" viewBox="-10 0 2058 2048">
   <path fill="currentColor"
d="M1120 192h-193v832h-191v-790q-72 42 -116 116.5t-44 161.5v512h-192v-512q0 -104 40.5 -199t109 -163.5t163.5 -109t199 -40.5h256q104 0 199 40.5t163.5 109t109 163.5t40.5 199v512h-192v-512q0 -87 -43.5 -161.5t-116.5 -116.5v790h-192v-832zM320 1152h1408
q37 0 67.5 19t46.5 52l64 129q30 63 -6 123q-17 28 -46 44.5t-62 16.5v384q0 52 -37.5 90t-90 38t-90.5 -38t-38 -90v-384h-1025v384q0 53 -37 90.5t-89.5 37.5t-90.5 -38t-38 -90v-384q-33 0 -62.5 -16.5t-46.5 -44.5q-35 -59 -5 -123l64 -129q17 -33 47.5 -52t66.5 -19z
" />
</svg>