<svg xmlns="http://www.w3.org/2000/svg" xmlns:xlink="http://www.w3.org/1999/xlink" version="1.1" viewBox="-10 0 2058 2048">
   <path fill="currentColor"
d="M1024.5 0q66.5 0 113 46.5t46.5 113.5v721q54 -48 128 -48q75 0 130.5 50.5t61.5 125.5q55 -49 128 -49q80 0 136 56t56 136v128v256q0 104 -41 199t-109.5 163.5t-163 109t-198.5 40.5h-472q-112 0 -217.5 -38t-192.5 -110l-22 -19q-87 -74 -135.5 -176.5t-48.5 -216.5
v-152q0 -57 24.5 -108.5t67.5 -88.5l78 -64q14 -13 22 -18v223q0 26 18.5 45t45 19t45.5 -19t19 -45v-291v-29q0 -79 56.5 -135t135.5 -56q74 0 128 48v-657q0 -67 47 -113.5t113.5 -46.5z" />
</svg>