<svg xmlns="http://www.w3.org/2000/svg" xmlns:xlink="http://www.w3.org/1999/xlink" version="1.1" viewBox="-10 0 2068 2048">
   <path fill="currentColor"
d="M1344 1408q-114 0 -214 -33l-134 134q-28 27 -68 27h-160v160q0 40 -28 68.5t-68 28.5h-160v159q0 40 -28 68t-68 28h-320q-39 0 -67.5 -28t-28.5 -68v-320q0 -40 28 -68l646 -645q-34 -100 -34 -215q0 -143 56 -273.5t150 -225t224.5 -150t274 -55.5t273.5 55.5t224 150
t150 225t56 273.5t-56 273.5t-150 225t-224 150t-274 55.5zM1503.5 384q-66.5 0 -113 46.5t-46.5 113.5t46.5 113.5t113 46.5t113.5 -46.5t47 -113.5t-47 -113.5t-113.5 -46.5z" />
</svg>