<svg xmlns="http://www.w3.org/2000/svg" xmlns:xlink="http://www.w3.org/1999/xlink" version="1.1" viewBox="-10 0 2058 2048">
   <path fill="currentColor"
d="M455 568q0 48 -33 81t-80 33t-80.5 -33t-33.5 -81v-170q0 -71 50 -120.5t120 -49.5h626h626q70 0 120 49.5t50 120.5v170q0 48 -33.5 81t-80.5 33t-80 -33t-33 -81v-114h-455v456h56q47 0 80.5 33t33.5 80.5t-33.5 81t-80.5 33.5h-340q-47 0 -80.5 -33.5t-33.5 -81
t33.5 -80.5t80.5 -33h56v-456h-455v114zM262 1398h-1l228 -228q24 -24 58.5 -30.5t65.5 6.5t50.5 42t19.5 64v114h683v-114q0 -34 19.5 -63.5t50.5 -42.5q31 -12 65 -5.5t59 31.5l227 226q33 34 33 81t-33 81l-227 228q-24 24 -58.5 30.5t-65.5 -6.5q-32 -13 -51 -42
t-19 -64v-114h-683v114q0 35 -19.5 64t-50.5 42t-65.5 6.5t-58.5 -30.5l-227 -228q-33 -34 -33 -81t33 -81z" />
</svg>