<svg xmlns="http://www.w3.org/2000/svg" xmlns:xlink="http://www.w3.org/1999/xlink" version="1.1" viewBox="-10 0 2068 2048">
   <path fill="currentColor"
d="M124 220l472 370q55 -85 139.5 -143t186.5 -79v-61q0 -42 30 -72t72 -30t72 30t30 72v61q178 37 294 177.5t116 324.5v81q0 109 36.5 212t103.5 189l48 59q27 35 12 74l282 221q25 20 29 52t-15.5 56.5t-51 28.5t-56.5 -16l-1894 -1485q-25 -19 -29 -51t15.5 -57
t51.5 -29t56 15zM718 686l724 568q-60 -146 -60 -303v-81q0 -98 -47.5 -180.5t-130 -130.5t-180.5 -48q-95 0 -177 48t-129 127zM1300 1536h-916q-21 0 -40 -11.5t-28 -32.5q-21 -43 8 -81l48 -59q68 -86 104 -188.5t36 -211.5v-37l150 118q-20 190 -124 349h568zM1230 1638
q0 85 -60 145t-145 60t-145 -60t-60 -145h204h206z" />
</svg>