<svg xmlns="http://www.w3.org/2000/svg" xmlns:xlink="http://www.w3.org/1999/xlink" version="1.1" viewBox="-10 0 2068 2048">
   <path fill="currentColor"
d="M444 832v-126v-126q0 -6 4 -10q64 -45 136 -40q73 5 100 78q16 42 16 98q0 53 -14 92q-28 89 -126 84q-56 -2 -112 -42q-4 -4 -4 -8zM994 884q-27 -11 -36 -42q-10 -28 0 -56q10 -35 48 -48q28 -9 74 -6q12 2 36.5 5.5t37.5 4.5q6 2 6 8v42v44q0 4 -4 8q-57 39 -112 44
q-31 4 -50 -4zM2048 398v1252q0 70 -50 120t-120 50h-1708q-70 0 -120 -50t-50 -120v-1252q0 -70 50 -120t120 -50h1708q70 0 120 50t50 120zM1310 482q2 11 6 20q30 71 88 216t88 216q7 21 0 36q-4 9 -12.5 31.5t-15.5 34.5q-16 31 -44 40q-19 4 -46 2q-1 0 -10 -1t-14 -1
q-7 -1 -10.5 2.5t-3.5 11.5v30q0 24 22 28q26 4 50 4q79 2 118 -62q13 -22 28 -56q34 -89 104 -267t106 -267q4 -14 4 -18q2 -12 -12 -12h-58q-17 0 -22 14q-1 2 -3 7t-3 7l-102 296q-5 13 -13 36.5t-11 31.5q0 -4 -2 -8q-20 -53 -59 -160t-57 -160q-2 -4 -8 -22t-10 -28
q-5 -14 -20 -14h-68q-12 0 -10 12zM862 846q9 65 64 94q48 26 112.5 16.5t119.5 -54.5q2 -2 6 -4q0 6 1.5 16t2.5 16q4 16 18 16h48q12 0 14 -14v-8v-316q0 -24 -2 -38q-10 -64 -56 -90q-25 -15 -66 -20q-5 -1 -16 -3t-16 -3h-36q-1 0 -4 1t-4 1q-51 2 -86 12q-10 3 -54 18
q-16 6 -16 24v28q0 22 20 16q36 -10 72 -18q65 -12 110 -4q34 5 50 24q14 18 16 50v74v1.5v2.5h-2.5h-1.5q-47 -13 -96 -16q-55 -3 -100 12q-60 21 -86 74q-19 42 -12 92zM350 494v624q0 1 1 3.5t1 4.5q1 14 14 14h62q16 0 16 -14v-4.5v-3.5v-216q2 1 3 2l2 2t1 2
q79 64 182 44q87 -18 130 -102q30 -61 32 -132q3 -84 -24 -148q-39 -92 -130 -110l-30 -6h-26q-2 1 -6 1.5t-6 0.5q-57 8 -112 46q-15 11 -22 16q0 -1 -1 -2.5l-1 -1.5q0 -4 -1.5 -12t-2.5 -12q-3 -20 -22 -20h-34q-16 0 -21 4t-5 20zM1754 1318q-10 -3 -26 4
q-233 97 -486 128q-94 10 -156 12q-137 4 -282 -16q-103 -15 -190 -36q-202 -49 -378 -138q-18 -8 -50.5 -25.5t-43.5 -22.5q-18 -12 -28 6v6q11 16 12 18q191 171 434 260q116 41 240 60q80 13 150 18l15.5 -0.5t16.5 0.5h3h3h64h4h4q74 -2 158 -14q118 -19 224 -52
q170 -56 296 -142q22 -16 28 -24q12 -11 8 -24t-20 -18zM1934 1220q-4 -17 -28 -24q-23 -9 -62 -12q-59 -5 -116 6q-73 13 -120 46q-6 4 -10 10t-2 12q0 6 10 6h6l70 -8q62 -6 102 -2q27 1 44 6q20 6 22 32q1 27 -10 70q-14 45 -48 134l-2 8q-1 7 2 10.5t10 1.5q10 -2 14 -6
q27 -26 38 -40q53 -70 74 -166q1 -6 2.5 -17t1.5 -15q2 -16 2 -52z" />
</svg>