<svg xmlns="http://www.w3.org/2000/svg" xmlns:xlink="http://www.w3.org/1999/xlink" version="1.1" viewBox="-10 0 2068 2048">
   <path fill="currentColor"
d="M1596 1537q-68 -118 -186 -187.5t-258 -69.5h-256q-140 0 -258 69.5t-186 187.5q108 120 256.5 188t315.5 68t315 -68t257 -188zM0 1024q0 -139 37 -272t103 -245.5t160.5 -207t207 -160t245 -102.5t272 -37t272 37t244.5 102.5t206.5 160t160.5 207t103 245.5t37 272
t-37 272t-103 245.5t-160.5 207t-206.5 160t-244.5 102.5t-272 37t-272 -37t-245 -102.5t-207 -160t-160.5 -207t-103 -245.5t-37 -272zM1024.5 1088q119.5 0 203.5 -84.5t84 -203.5t-84 -203.5t-203.5 -84.5t-204 84.5t-84.5 203.5t84.5 203.5t204 84.5z" />
</svg>