<svg xmlns="http://www.w3.org/2000/svg" xmlns:xlink="http://www.w3.org/1999/xlink" version="1.1" viewBox="-10 0 2068 2048">
   <path fill="currentColor"
d="M1534 982v-116l137 1l-1 1q21 3 34.5 18.5t13.5 38t-13.5 38t-34.5 19.5h-136zM1686 1054q20 4 34 21t14 39q0 24 -14 40.5t-34 21.5q-2 0 -3.5 0.5t-4 0.5h-5.5h-9h-12.5h-18.5h-25t-33 -0.5t-41 -0.5v-124q145 0 152 2zM2048 398v1252q0 70 -50 120t-120 50h-1708
q-70 0 -120 -50t-50 -120v-1252q0 -70 50 -120t120 -50h1708q70 0 120 50t50 120zM648 798h-202q0 33 1 75.5t1.5 70t0.5 61t-2.5 54.5t-7.5 44t-14.5 36.5t-24 25.5t-35 17.5t-47.5 5.5q-99 0 -204 -54v100q48 13 108.5 20.5t96.5 8.5l37 1q89 0 147 -15.5t88.5 -45t44 -73
t14.5 -100t-1 -125.5q-1 -70 -1 -107zM1282 814q-72 -19 -148 -26.5t-155.5 0t-141.5 31.5t-101.5 76.5t-39.5 128.5q0 56 21.5 100t58.5 70.5t86.5 43t103.5 22t111.5 3.5t108 -9.5t96.5 -19.5v-100q-65 33 -132 45.5t-123 3t-91.5 -50.5t-35.5 -108.5t35.5 -108.5
t91.5 -50.5t123 3t132 46.5v-100zM1934 1132q0 -48 -38.5 -78.5t-97.5 -35.5v-2q51 -8 79.5 -37.5t28.5 -70.5q0 -49 -36 -78t-94 -32l-426 -1h-1h-1l-2 -1v454h436q67 0 109.5 -32.5t42.5 -85.5z" />
</svg>