<svg xmlns="http://www.w3.org/2000/svg" xmlns:xlink="http://www.w3.org/1999/xlink" version="1.1" viewBox="-10 0 2067 2048">
   <path fill="currentColor"
d="M2047 1024q0 209 -81 398.5t-217.5 326.5t-326 218t-397.5 81q-156 0 -303 -46q99 -164 126 -268l64 -244q26 49 92 83t142 34q151 0 273 -85.5t190 -231t68 -320.5q0 -166 -83 -302t-227.5 -212.5t-319.5 -76.5q-129 0 -239.5 33.5t-190 92t-136 137t-84 169
t-27.5 188.5q0 119 58.5 237t149.5 160q28 13 34 -15q3 -15 28 -115q3 -17 -7 -30q-32 -40 -54 -105t-22 -129q0 -85 32 -164.5t89.5 -141.5t146.5 -99.5t195 -37.5q188 0 308 116.5t120 300.5q0 206 -92 337t-230 131q-77 0 -123.5 -54.5t-28.5 -129.5q10 -44 33.5 -117.5
t37.5 -129t14 -94.5q0 -62 -33.5 -103.5t-95.5 -41.5q-78 0 -132 71.5t-54 177.5q0 40 7.5 78t14.5 56l8 18q-100 428 -119 508q-25 109 -4 294q-289 -113 -469.5 -372.5t-180.5 -580.5q0 -208 81 -398t218.5 -327t327 -218t397.5 -81t397.5 81t326 218t217.5 326.5
t81 398.5z" />
</svg>