<svg xmlns="http://www.w3.org/2000/svg" xmlns:xlink="http://www.w3.org/1999/xlink" version="1.1" viewBox="-10 0 2058 2048">
   <path fill="currentColor"
d="M1230 748q10 -19 12 -21q43 -98 92 -159q64 -80 134 -138q3 -1 34 -21q79 -51 28 -122q-16 -33 -52 -42q-34 -8 -68 9q-126 84 -244 243q-4 4 -4 8q-42 -196 -168 -327q-143 -143 -380 -176q-29 -8 -48.5 11.5t-11.5 47.5q33 238 176 381q139 139 366 176q-4 3 -10 11
q-4 6 -4 10q-6 18 -14 38q-4 8 -6.5 15.5t-5 14t-2.5 8.5h-30q-276 0 -471 195t-195 471q0 277 195 472t471 195t471 -195t195 -472q0 -217 -128 -392q-127 -173 -332 -241zM1096 1880q-42 0 -42 -46t42 -46q46 0 46 46t-46 46zM1154 1712q-46 0 -46 -46q0 -42 46 -42t46 42
q0 46 -46 46zM1308 1809q-46 0 -46 -46t46 -46t46 46t-46 46z" />
</svg>