<svg xmlns="http://www.w3.org/2000/svg" xmlns:xlink="http://www.w3.org/1999/xlink" version="1.1" viewBox="-10 0 2068 2048">
   <path fill="currentColor"
d="M1316 146q0 60 -43 103t-103 43h-1024q-60 0 -103 -43t-43 -103t43 -103t103 -43h1024q60 0 103 43t43 103zM1316 1316q0 60 -43 103t-103 43h-1024q-60 0 -103 -43t-43 -103t43 -103t103 -43h1024q60 0 103 43t43 103zM0 732q0 -60 43.5 -104t102.5 -44h1756
q59 0 102.5 44t43.5 104t-43 103t-103 43h-1756q-60 0 -103 -43t-43 -103zM2048 1902q0 60 -43 103t-103 43h-1756q-60 0 -103 -43t-43 -103t43 -103t103 -43h1756q60 0 103 43t43 103z" />
</svg>