<svg xmlns="http://www.w3.org/2000/svg" xmlns:xlink="http://www.w3.org/1999/xlink" version="1.1" viewBox="-10 0 2067 2048">
   <path fill="currentColor"
d="M2045 932q0 4 2 8v156q-2 2 -2 4q-4 53 -8 68q-20 99 -30 132q-30 110 -93 216q-52 87 -133 174q-5 6 -22 23.5t-27 26.5q-55 51 -68 60q-48 37 -121 86q-97 62 -207 100q-107 37 -199 46q-5 0 -16 1.5t-16 2.5h-136q-2 -2 -6 -2q-62 -5 -78 -8q-87 -14 -171 -42
q-121 -39 -235 -106q-93 -54 -176 -130q-64 -57 -111 -118q-59 -76 -101 -168q-51 -112 -71 -224q-16 -92 -19 -170v-38q0 -61 7 -112q11 -76 33 -146q35 -106 85 -188q60 -101 143 -186q49 -49 126 -120q34 -30 75 -60q66 -50 161 -102q96 -48 168 -70q61 -19 144 -30
q5 0 15 -1.5t15 -2.5h136q2 2 5 2q78 8 87 10q76 15 140 32q130 38 240 104q109 63 198 152q29 30 79 94q87 109 130 242q29 90 41 154q4 19 7 40t5.5 49t3.5 41zM1366 928v-284q-112 0 -172.5 34t-88.5 118v-134h-311v804h311v-396q0 -77 30.5 -116.5t110.5 -39.5
q22 0 52 3.5t49 6.5z" />
</svg>