<svg xmlns="http://www.w3.org/2000/svg" xmlns:xlink="http://www.w3.org/1999/xlink" version="1.1" viewBox="-10 0 2068 2048">
   <path fill="currentColor"
d="M1025.5 0q139.5 0 272 37t245 103t206.5 160.5t160 207t102.5 245.5t36 272t-37 272t-102.5 245t-160.5 206.5t-206.5 160.5t-244.5 102.5t-272.5 36.5q-139 0 -271.5 -37t-245 -103t-207 -160.5t-160.5 -207t-103 -245.5t-37 -272q1 -139 38 -272t103 -245t160.5 -206.5
t207 -160.5t245 -102.5t272 -36.5zM1623 1098q3 -63 3 -64q0 -9 -0.5 -19.5t-1 -23t-1.5 -19.5q-3 -102 -14 -181q-9 -62 -23 -132q-1 -10 -3 -20.5t-4 -15.5q-3 -16 -20 -16h-4l-132 21q-7 1 -12 7t-5 14l-1 1l1 2l7 36q8 41 20 139q10 83 10 174q2 166 -33 247
q-17 40 -51 67.5t-78 36.5q-98 22 -207 22q-5 0 -14.5 -0.5t-14.5 -0.5h-42q-5 0 -14.5 0.5t-14.5 0.5q-109 0 -208 -22q-43 -9 -77 -36.5t-52 -67.5q-34 -81 -33 -247q0 -91 10 -174q13 -98 20 -139l8 -36v-1v-2q0 -7 -5 -13t-13 -8l-132 -21h-2q-7 0 -13.5 5t-8.5 12
q0 4 -1.5 14t-4.5 21q-13 64 -23 132q-10 79 -14 181q-2 42 -2 62q0 22 2 64q5 171 57 269q55 102 180 145q129 44 352 43h19q225 1 353 -43q126 -43 180 -145q53 -98 57 -269z" />
</svg>