<svg xmlns="http://www.w3.org/2000/svg" xmlns:xlink="http://www.w3.org/1999/xlink" version="1.1" viewBox="-10 0 2068 2048">
   <path fill="currentColor"
d="M398 579q-142 197 -142 445q0 156 61 298.5t164 245.5t245.5 164t297.5 61q247 0 446 -142l-372 -371l-382 -384zM1334 1152h202v-128h-332zM1462 1280l188 189q142 -197 142 -445q0 -156 -61 -298.5t-164 -245t-245 -163.5t-298 -61q-246 0 -444 142l498 498h522
q27 0 45.5 19t18.5 45v256q0 26 -18.5 45t-45.5 19h-138zM1024.5 2048q-139.5 0 -272 -37t-245 -102.5t-207 -160t-160.5 -207t-103 -245.5t-37 -272t37 -272t103 -245.5t160.5 -207t207 -160t245 -102.5t272 -37t272 37t244.5 102.5t206.5 160t160.5 207t103 245.5t37 272
t-37 272t-103 245.5t-160.5 207t-206.5 160t-244.5 102.5t-272 37zM1087.5 384q26.5 0 45.5 19t19 45t18.5 45t45.5 19h128q80 0 136 56t56 136q0 26 -18.5 45.5t-45 19.5t-45.5 -19.5t-19 -45.5t-18.5 -45t-45.5 -19h-128q-80 0 -136 -56t-56 -136q0 -26 18.5 -45t45 -19z
M918 1280h-470q-26 0 -45 -19t-19 -45v-256q0 -26 19 -45t45 -19h86z" />
</svg>