<svg xmlns="http://www.w3.org/2000/svg" xmlns:xlink="http://www.w3.org/1999/xlink" version="1.1" viewBox="-10 0 2068 2048">
   <path fill="currentColor"
d="M1756 1829q30 0 51 -21.5t21 -51.5v-1464q0 -30 -21 -51.5t-51 -21.5h-1464q-30 0 -51 21.5t-21 51.5v1464q0 30 21 51.5t51 21.5h1464zM2048 1756q0 121 -86 206.5t-206 85.5h-1464q-120 0 -206 -85.5t-86 -206.5v-1464q0 -121 86 -206.5t206 -85.5h1464q120 0 206 85.5
t86 206.5v1464zM1024 1462q-48 0 -80 -34l-476 -513q-22 -24 -27 -56t7 -62q13 -30 40.5 -47.5t59.5 -17.5h952q32 0 59.5 17.5t40.5 47.5q12 30 7 62t-27 56l-476 513q-32 34 -80 34z" />
</svg>