<svg xmlns="http://www.w3.org/2000/svg" xmlns:xlink="http://www.w3.org/1999/xlink" version="1.1" viewBox="-10 0 2068 2048">
   <path fill="currentColor"
d="M610 185q30 27 31.5 66.5t-25.5 69.5l-288 319q-27 32 -68 32q-44 0 -71 -27l-160 -161q-28 -29 -28 -68.5t28 -68t68 -28.5t68 29l88 89l220 -245q27 -30 66.5 -32.5t69.5 24.5zM610 825q30 27 31.5 66.5t-25.5 69.5l-288 320q-27 31 -68 31q-43 0 -71 -28l-160 -159
q-29 -29 -29 -69t28.5 -68t68.5 -28t68 28l88 89l220 -245q27 -30 66.5 -32t69.5 25h1zM897 415.5q0 -52.5 37 -90t90 -37.5h896q52 0 90 37.5t38 90t-38 90.5t-90 38h-896q-53 0 -90 -38t-37 -90.5zM897 1055.5q0 -52.5 37 -89.5t90 -37h896q52 0 90 37t38 89.5t-38 90.5
t-90 38h-896q-53 0 -90 -38t-37 -90.5zM641 1696.5q0 -52.5 37.5 -90.5t90.5 -38h1151q52 0 90 38t38 90.5t-38 90.5t-90 38h-1151q-53 0 -90.5 -38t-37.5 -90.5zM192.5 1504q79.5 0 135.5 56.5t56 136t-56 136t-135.5 56.5t-135.5 -56.5t-56 -136t56 -136t135.5 -56.5z" />
</svg>