<svg xmlns="http://www.w3.org/2000/svg" xmlns:xlink="http://www.w3.org/1999/xlink" version="1.1" viewBox="-10 0 2068 2048">
   <path fill="currentColor"
d="M1024.5 2048q-139.5 0 -272 -37t-245 -102.5t-207 -160t-160.5 -207t-103 -245.5t-37 -272t37 -272t103 -245.5t160.5 -207t207 -160t245 -102.5t272 -37t272 37t244.5 102.5t206.5 160t160.5 207t103 245.5t37 272t-37 272t-103 245.5t-160.5 207t-206.5 160
t-244.5 102.5t-272 37zM1540 925l-448 -449q-27 -28 -67.5 -28t-68.5 28l-446 449q-29 28 -28.5 67t28 67.5t67 28.5t67.5 -28l284 -284v728q0 40 29 68.5t68.5 28.5t67 -28.5t27.5 -68.5v-728l284 284q28 28 68 28t68.5 -28t28.5 -67t-29 -68z" />
</svg>