<svg xmlns="http://www.w3.org/2000/svg" xmlns:xlink="http://www.w3.org/1999/xlink" version="1.1" viewBox="-10 0 2067 2048">
   <path fill="currentColor"
d="M993 623h-1l-72 65q6 33 6 68t-6 68l72 64q18 16 23.5 38.5t-3.5 43.5q-9 24 -24 50l-10 18q-13 22 -32 48q-14 19 -36.5 25t-44.5 -2l-92 -30q-57 46 -117 68l-20 94q-4 23 -20.5 39t-39.5 19q-29 4 -68 4q-36 0 -66 -4q-23 -3 -39 -19t-21 -39l-20 -94
q-60 -22 -117 -68l-93 30q-21 8 -43.5 2t-36.5 -25q-19 -26 -32 -48l-10 -17q-15 -29 -24 -51q-9 -21 -3.5 -43.5t22.5 -37.5l72 -64q-5 -27 -5 -69q0 -39 5 -67l-72 -65q-17 -15 -22.5 -38t3.5 -44q10 -23 24 -50l10 -18q19 -29 32 -48q14 -18 36.5 -24t43.5 2l93 30
q57 -45 118 -68l19 -96q5 -22 21 -38t39 -19q35 -5 66 -5h2q31 0 66 5q23 3 39.5 19t20.5 39l20 95q62 23 118 68l92 -30q22 -8 44 -2t36 24q14 19 32 48l10 18q18 32 25 50q9 22 3.5 44t-23.5 37zM353 756.5q0 64.5 46 110.5t110.5 46t110.5 -46t46 -110.5t-46 -111
t-110.5 -46.5t-110.5 46.5t-46 111zM1632 1814v-1l-64 -72q-27 5 -68 5t-69 -5l-64 72q-16 18 -37.5 23.5t-43.5 -3.5q-27 -10 -51 -24l-17 -11q-22 -13 -48 -32q-18 -14 -24 -36t1 -44l30 -92q-45 -56 -68 -118l-95 -20q-22 -4 -38 -20.5t-19 -39.5q-5 -36 -5 -67
q0 -29 5 -66q3 -23 19 -39.5t38 -21.5l95 -19q23 -61 68 -118l-30 -92q-8 -21 -1.5 -44t24.5 -37q19 -14 48 -31l17 -10q44 -23 51 -26q22 -8 44 -2t37 23l64 72q28 -5 68.5 -5t67.5 5l65 -72q16 -17 38.5 -23t43.5 2q13 5 50 26l18 10q32 20 47 31q19 14 25 37t-2 44
l-30 92q45 57 68 118l94 20q23 5 39.5 21.5t19.5 38.5q4 30 4 67t-4 66q-3 23 -19.5 39.5t-39.5 20.5l-94 21q-22 60 -68 117l30 93q8 22 2 44t-25 36q-24 18 -47 32l-18 10q-32 18 -50 25q-21 9 -44 3.5t-38 -23.5zM1499.5 1173q-64.5 0 -110.5 46t-46 110.5t46 111
t110.5 46.5t110 -46.5t45.5 -111t-45.5 -110.5t-110 -46z" />
</svg>