<svg xmlns="http://www.w3.org/2000/svg" xmlns:xlink="http://www.w3.org/1999/xlink" version="1.1" viewBox="-10 0 2058 2048">
   <path fill="currentColor"
d="M1158 252q8 -22 27.5 -34.5t42.5 -12.5h360q31 0 53.5 22.5t22.5 53.5v359q0 23 -13 42.5t-34.5 28.5t-44.5 4.5t-40 -20.5l-124 -125l-78 79q78 125 78 273q0 126 -57 236t-156.5 181t-220.5 89v82h76q31 0 53.5 23t22.5 54t-22.5 54t-53.5 23h-76v102q0 32 -23 54.5
t-54.5 22.5t-54 -22.5t-22.5 -54.5v-102h-78q-31 0 -53.5 -23t-22.5 -54t22.5 -54t53.5 -23h78v-82q-122 -18 -221.5 -89t-157 -181t-57.5 -236q0 -104 41 -199t109.5 -164t163.5 -109.5t198 -40.5q93 0 178 32.5t154 90.5l72 -71l-126 -125q-16 -17 -20.5 -39.5t4.5 -44.5z
M1510 358zM1204 922q0 -128 -90 -218t-217.5 -90t-217 90t-89.5 218t89.5 217.5t217 89.5t217.5 -89.5t90 -217.5z" />
</svg>