<svg xmlns="http://www.w3.org/2000/svg" xmlns:xlink="http://www.w3.org/1999/xlink" version="1.1" viewBox="-10 0 2068 2048">
   <path fill="currentColor"
d="M1443 1046q-33 -125 -133 -211q-101 -86 -235 -103l-58 -4q-150 -16 -276 63q-127 80 -176 217q4 0 4 5q0 4 4 8q1 1 13 17l8 8l13 9q2 2 10 8q6 4 11 4t14 4q11 5 15 9t59 25q11 6 66 16q13 8 67 17q16 0 34 4q24 5 33 5q9 2 21.5 3.5t34.5 4.5t61 8l118 9q-55 0 -118 4
q-4 0 -56 -2t-65 -2q-1 0 -31 -2t-36 -2q-21 0 -71 -9q-12 -4 -35 -6q-30 -2 -36 -2q-11 -5 -31 -11q-32 -8 -36 -10q-4 -4 -15 -9q-9 -4 -18 -4q-5 0 -15 -4q-12 -5 -15 -8l-12 -9q-10 -5 -17 -12q-17 -17 -21 -25l-12 -13q-511 33 -511 122q0 58 299 104q292 46 722 50
q264 0 506 -25q254 -26 379 -56q131 -31 140 -53q9 -28 -32 -52t-123 -40q-89 -17 -195 -29q-111 -12 -253 -21z" />
</svg>