<svg xmlns="http://www.w3.org/2000/svg" xmlns:xlink="http://www.w3.org/1999/xlink" version="1.1" viewBox="-10 0 2068 2048">
   <path fill="currentColor"
d="M1023.5 0q139.5 0 272 37t245 102.5t207 160t160.5 207t103 245.5t37 272t-37 272t-103 245.5t-160.5 207t-207 160t-245 102.5t-272 37t-272 -37t-244.5 -102.5t-206.5 -160t-160.5 -207t-103 -245.5t-37 -272t37 -272t103 -245.5t160.5 -207t206.5 -160t244.5 -102.5
t272 -37zM820 1547l308 -311l-318 -318l-100 100l218 219l-108 110l-320 -319l320 -318l46 45l98 -100l-144 -146l-520 519zM1228 1538l518 -519l-518 -518l-310 309l320 319l100 -101l-220 -218l110 -109l318 318l-318 319l-46 -46l-98 101z" />
</svg>