<svg xmlns="http://www.w3.org/2000/svg" xmlns:xlink="http://www.w3.org/1999/xlink" version="1.1" viewBox="-10 0 2069 2048">
   <path fill="currentColor"
d="M144 883h-37q-44 0 -75.5 -31.5t-31.5 -75.5v-565q0 -32 18.5 -58.5t47.5 -39.5q30 -12 61 -5.5t54 29.5l184 183q143 -140 327 -213t370 -72.5t370 74.5t326 216t216.5 327t74.5 372t-74.5 372t-216.5 327t-327 216t-372 74t-372 -74t-327 -216q-41 -41 -41 -100.5
t41.5 -100.5t100.5 -41t100 41q102 102 234 155t265.5 53t265.5 -53t233.5 -155t154.5 -233.5t53 -265t-53 -265.5t-155 -234q-101 -101 -232.5 -154t-264.5 -53.5t-264.5 51t-233.5 151.5l182 182q23 23 29.5 55t-6.5 61q-13 30 -39.5 48t-58.5 18h-527z" />
</svg>