<svg xmlns="http://www.w3.org/2000/svg" xmlns:xlink="http://www.w3.org/1999/xlink" version="1.1" viewBox="-10 0 2068 2048">
   <path fill="currentColor"
d="M1100 281v77h102q32 0 55 23t23 54t-23 54t-55 23h-102v148l362 217q35 21 54.5 55.5t19.5 75.5v835h-308v-307q0 -85 -59.5 -145t-144 -60t-144.5 60t-60 145v307h-308v-835q0 -41 19.5 -75.5t54.5 -55.5l362 -217v-148h-102q-32 0 -55 -23t-23 -54t23 -54t55 -23h102
v-77q0 -31 22.5 -53.5t54 -22.5t53.5 22.5t22 53.5zM80 1261l330 -181v763h-256q-64 0 -109 -44.5t-45 -108.5v-293q0 -42 22 -79t58 -57zM1894 1843h-256v-763l330 181q36 20 58 57t22 79v293q0 64 -45 108.5t-109 44.5z" />
</svg>