<svg xmlns="http://www.w3.org/2000/svg" xmlns:xlink="http://www.w3.org/1999/xlink" version="1.1" viewBox="-11 0 2070 2048">
   <path fill="currentColor"
d="M896 383.5q0 52.5 38 90.5t90 38t90 -38t38 -90.5t-37.5 -90t-90.5 -37.5t-90.5 37.5t-37.5 90zM1386 512h182q66 0 118 40t68 104l288 1154q11 42 2 86t-37 78q-57 74 -151 74h-1663q-95 0 -152 -74q-28 -34 -37 -78t2 -86l288 -1152q16 -65 68.5 -105.5t118.5 -40.5
h182q-22 -63 -22 -128q0 -105 51 -193t139.5 -139.5t192.5 -51.5t193 51.5t140.5 139.5t51.5 193q0 62 -23 128z" />
</svg>