<svg xmlns="http://www.w3.org/2000/svg" xmlns:xlink="http://www.w3.org/1999/xlink" version="1.1" viewBox="-10 0 2067 2048">
   <path fill="currentColor"
d="M2000 30q47 39 47 98v384q0 60 -47 99t-106 27l-640 -128q-36 -8 -63 -33t-36 -60h-259v138q116 55 185.5 164t69.5 242v575h-895v-575q0 -133 70.5 -242t185.5 -164v-115q-108 33 -194 107t-135 175q-17 36 -55 49t-74 -4t-48.5 -54.5t4.5 -73.5q73 -150 205 -255.5
t297 -141.5v-114q0 -53 38 -90t90 -37h128q53 0 90.5 37t37.5 90v96h259q9 -35 36 -60.5t63 -32.5l640 -128q59 -12 106 26v1zM1151 1665v128q0 106 -74.5 180.5t-180.5 74.5h-384q-105 0 -180.5 -74.5t-75.5 -180.5v-128h895zM704 384q27 0 45.5 -18.5t18.5 -45.5
t-18.5 -45.5t-45.5 -18.5t-45.5 18.5t-18.5 45.5t18.5 45.5t45.5 18.5z" />
</svg>