<svg xmlns="http://www.w3.org/2000/svg" xmlns:xlink="http://www.w3.org/1999/xlink" version="1.1" viewBox="-10 0 2068 2048">
   <path fill="currentColor"
d="M666 1331q-182 0 -334 -76q-31 16 -82 36q-108 40 -198 40q-17 0 -30 -10t-18 -26q-6 -15 -0.5 -30.5t18.5 -25.5v0v-1q1 0 1.5 -1t2.5 -2q1 -2 14 -12q19 -17 42 -46q32 -44 44 -78q-126 -146 -126 -332q0 -115 53 -219t142 -179t212 -119.5t258.5 -44.5t258.5 44.5
t212.5 119.5t142.5 179t53 219t-53 219t-142.5 180t-212.5 120.5t-258 44.5zM1434 767q0 -17 -2 -49q127 8 241 55.5t196 122t130.5 175t48.5 209.5q0 183 -128 331q14 34 46 79q23 29 42 46q3 2 8 5.5t6 5.5l4 2v1v0q14 10 19 25.5t-1 31.5q-5 16 -18 26t-30 10
q-91 0 -198 -40q-46 -17 -80 -36q-154 76 -336 76q-226 0 -403.5 -116t-236.5 -297q139 -12 265.5 -67t220.5 -141t150 -204.5t56 -250.5z" />
</svg>