<svg xmlns="http://www.w3.org/2000/svg" xmlns:xlink="http://www.w3.org/1999/xlink" version="1.1" viewBox="-10 0 2068 2048">
   <path fill="currentColor"
d="M1492 109q44 -52 107 -80.5t131 -28.5q132 0 225 92.5t93 223.5q0 69 -28.5 131.5t-81.5 107.5l-830 724l-42 -41l-256 -256l-42 -42zM676 1030l42 43l258 256l42 42l-78 334q-12 51 -48.5 90.5t-87.5 52.5l-712 200l382 -383q18 5 34 5q53 0 90.5 -38.5t37.5 -91.5
t-37.5 -90.5t-91 -37.5t-90.5 37.5t-37 90.5q0 19 4 34l-384 383l200 -714q13 -50 52 -87t90 -48l334 -76v-2z" />
</svg>