<svg xmlns="http://www.w3.org/2000/svg" xmlns:xlink="http://www.w3.org/1999/xlink" version="1.1" viewBox="-10 0 2068 2048">
   <path fill="currentColor"
d="M1726 0q88 0 161.5 43t116.5 117t42 161v1072q-104 -36 -333 -119t-347 -123q47 -90 91 -194t65 -163l20 -59h-406v-142h500v-87h-500v-230h-232v230h-500v87h500v142h-420v77h814q-47 139 -122 276q-370 -114 -580 -114q-112 0 -197.5 22t-136 57.5t-80.5 85t-38.5 100
t-1.5 107.5q4 46 19.5 91t49.5 93t82 83.5t123.5 58.5t167.5 23q108 0 210 -29t187.5 -81t156 -117t126.5 -143q358 166 784 405q-2 132 -96 225t-226 93h-1404q-88 0 -161.5 -43t-117 -117t-43.5 -161v-1406q0 -87 43.5 -161t117 -117t161.5 -43h1404zM218 1330
q-2 -27 5 -55t30 -61t61 -58t105.5 -41.5t154.5 -16.5q155 0 500 144q-37 50 -76.5 93.5t-93.5 89t-108.5 77.5t-122.5 52.5t-137 20.5q-56 0 -102.5 -9t-78.5 -23.5t-56.5 -35.5t-39 -42t-24 -46.5t-13 -46t-4.5 -42.5z" />
</svg>