<svg xmlns="http://www.w3.org/2000/svg" xmlns:xlink="http://www.w3.org/1999/xlink" version="1.1" viewBox="-10 0 2068 2048">
   <path fill="currentColor"
d="M1614 138q36 -15 74.5 -7.5t65.5 34.5l256 255q38 38 38 91q0 52 -38 90l-256 257q-27 27 -65.5 34.5t-74.5 -7.5q-35 -14 -56.5 -46.5t-21.5 -71.5v-128h-128q-30 0 -57.5 14t-46.5 38l-168 225l-160 -213l124 -166q55 -72 136 -112.5t172 -40.5h128v-128
q0 -39 21.5 -71.5t56.5 -46.5zM656 1130l160 213l-124 167q-55 72 -136.5 113t-171.5 41h-256q-52 0 -90 -38t-38 -91t38 -90.5t90 -37.5h256q30 0 57.5 -13.5t44.5 -37.5zM1754 1883q-28 27 -66 34.5t-74 -7.5q-36 -14 -58 -46.5t-22 -71.5v-128h-126q-91 0 -171.5 -41
t-136.5 -113l-614 -819q-18 -24 -45.5 -38t-56.5 -14h-256q-52 0 -90 -37.5t-38 -90t38 -90t90 -37.5h256q90 0 171.5 40.5t136.5 112.5l612 819q18 24 45.5 37.5t58.5 13.5h128v-128q0 -39 21.5 -71.5t56.5 -46.5q36 -15 74.5 -7.5t65.5 34.5l256 257q38 38 38 90
q0 53 -38 91l-256 255v2z" />
</svg>