<svg xmlns="http://www.w3.org/2000/svg" xmlns:xlink="http://www.w3.org/1999/xlink" version="1.1" viewBox="-10 0 2058 2048">
   <path fill="currentColor"
d="M1979 672q1 37 0 98t-11 209t-30 249q-14 72 -85.5 143t-184.5 123t-238 67q-1 1 -34 5t-49.5 5.5t-59 5.5t-72.5 5.5t-80.5 3t-92 0t-97.5 -4.5t-106.5 -9.5t-109.5 -17t-116 -24.5v2q0 30 3 61q5 37 16.5 68t26 54.5t36.5 42t43.5 31t51.5 22t54.5 14.5t59.5 8.5t60 5
t62 2.5q83 3 171.5 -8.5t134.5 -25.5l47 -13l7 170q-5 3 -15 8t-45 17.5t-74 22.5t-101 20t-127 13q-231 13 -472 -52q-79 -21 -144.5 -61t-113 -86t-84 -119t-60.5 -133t-40 -157t-24.5 -161.5t-12.5 -175.5t-4 -171.5v-175.5v-81q0 -71 10 -136.5t27 -115.5t38.5 -94
t46 -76t48.5 -58.5t46 -43.5t38.5 -28.5t26.5 -16.5l10 -5q138 -63 400.5 -86.5t525.5 0t402 86.5q6 3 16.5 8.5t41 28t58 49.5t61 75.5t57.5 104.5t40.5 137t16.5 171zM1635 1244q0 -85 1 -187.5t1.5 -156t0 -119.5t-3.5 -100t-8.5 -74t-15.5 -64.5t-24 -49.5t-35 -49
q-44 -48 -108.5 -73.5t-131 -25t-130.5 33.5t-104 94l-53 89l-54 -89q-40 -60 -103.5 -93t-130 -34t-131.5 24.5t-109 73.5q-20 24 -34.5 49t-24.5 49t-15 64.5t-8 73.5t-3.5 100t-0.5 120t1 156.5t1 187.5h214v-521q0 -102 69 -148q59 -39 123 -11q74 31 94 127q6 30 6 63
v286h212v-286q0 -125 77 -178q59 -40 123 -13q68 28 87 109q5 24 5 51v521h213z" />
</svg>