<svg xmlns="http://www.w3.org/2000/svg" xmlns:xlink="http://www.w3.org/1999/xlink" version="1.1" viewBox="-10 0 2058 2048">
   <path fill="currentColor"
d="M1939 1291q0 -3 -2 -11t-2 -10q0 -9 -4 -13v-4h-4q-8 -8 -13 -8l-16 -8l-8 -4h-5q-10 -5 -16 -5q-4 -4 -9 -4q-4 0 -8 -4h-12l-30 -8h30h16l4 4h9h12l4 4l9 4l8 4q2 0 12 5h5l8 8h4q4 0 4 -8q0 -1 2 -13t2 -17q0 -48 -33 -95l-21 -21h-4l-4 -4h-4l-8 -5q-9 0 -17 -4h-4
q-4 -4 -9 -4q-8 0 -12 -4l-29 -4q12 -5 29 0h12q13 0 17 4h4h4q4 4 9 4h8l8 4q13 -13 25 -29q29 -47 29 -83q0 -5 -2 -19l-2 -14l-4 -9q0 -10 -8 -25q-9 -9 -9 -16q-8 -8 -8 -13l-12 -12l-17 -9h-8l-9 -4h-4l-8 -4q-8 -4 -17 -4q-4 -4 -12 -4l-29 -9h29h12q4 0 9 5h8
q4 4 17 4l8 4l8 4h4l5 -4l16 -17q0 -4 8 -12l9 -17q0 -4 4 -12t4 -13q0 -4 4 -4q0 -5 2 -21q0 -2 0.5 -5t1 -5t0.5 -3.5v-2.5q-4 -4 -4 -9v-25q-4 -4 -4 -12q-8 -15 -8 -21l-9 -8q-11 -20 -12 -21l-8 -9q0 -4 -4 -4q-4 -4 -13 -4l-8 -4v-4h-9h-4q-8 -4 -12 -4q-5 -5 -13 -5
q-4 -4 -12 -4l-29 -8h29q8 0 12 4h17q4 4 12 4h5l8 4h4q13 -5 17 -16q4 0 4 -2t4 -2q11 -20 12 -21l9 -8q0 -10 8 -25q0 -5 4 -9v-25l4 -4v-8q-4 -4 -4 -9v-25l-4 -4q0 -8 -4 -8q0 -5 -4 -13v-8q0 -4 -4 -4l-5 -8q-1 -1 -12 -21l-8 -4l-21 -21v-4q4 0 10 -9q5 -8 11 -8l8 -8
q1 -1 2.5 -3t3 -4.5t2.5 -3.5q4 -5 4 -10l9 -8q0 -1 2 -13q0 -2 0.5 -4t1 -3t0.5 -2.5v-2.5l8 -9v-29l4 -4v-4q0 -71 -60 -121q-61 -50 -143 -50q-22 0 -30 4h-4q-4 4 -8 4l-4 5q-4 4 -9 4q-8 8 -8 12q-3 0 -12 9q-8 8 -13 8l-4 4q-4 4 -4 8l-8 9l-21 16q6 -12 12 -20l4 -5
q5 -5 5 -8q0 -4 8 -12l4 -5q4 -4 4 -8q5 0 13 -8l8 -9h4h-4q-15 -8 -29 -8h-13q-21 0 -29 4h-12q-10 0 -19 4q-11 4 -15 9h-4l-37 25q-5 0 -13 -4h-8l-8 -5h-34q-20 0 -33 5q-4 4 -12 4l-17 8l-12 13q-5 0 -13 8q-7 7 -17 12v5h5l12 12l13 13q4 4 4 8l4 4l8 17q0 5 4 10
q5 7 5 11q0 8 4 16q0 21 4 29q0 7 -2 15t-2 10v9v-9l-4 -8v-13v-8l-5 -8q0 -9 -4 -17q0 -8 -4 -16l-4 -5v-8q0 -5 -6 -17q-5 -10 -11 -16l-12 -13l-9 -8l-4 -4q-4 0 -4 -4h-4l-25 -13h-12q-11 -4 -38 -4q-5 0 -19 2l-14 2l-17 8l-8 5h-8l-13 12l-4 4q-8 0 -8 4q-1 1 -17 13
v4q8 8 8 13q3 6 13 16v9l4 8q4 8 4 21q4 4 4 16v34v20l-4 9v-9v-20q-4 -4 -4 -17q0 -9 -4 -17v-16l-9 -17q0 -3 -12 -29q0 -5 -8 -13q0 -4 -5 -4q0 -4 -4 -4l-12 -12q-4 0 -13 -9h-8l-8 -4q0 -4 -9 -4q-4 0 -8 -4h-12q-11 -4 -34 -4q-10 0 -33 8h-8q-15 8 -21 8l-8 9
q-10 5 -17 12h-4v4q4 4 4 17v4v4q4 8 4 13q0 21 -4 29v25l-4 8v-8v-25q0 -9 -4 -13v-16q0 -12 -5 -17v-12l-4 -5q0 -2 -2 -10t-2 -10l-8 -9l-9 -8q-14 -14 -20 -17q-4 -4 -9 -4q-2 -2 -20 -12l-5 -5q-4 -4 -14 -4q-11 0 -15 -4h-8q-8 -4 -29 -4q-9 0 -17 4t-16 4q-5 0 -9 4
q-5 0 -21 9q-4 0 -8 4q-1 1 -21 12q0 5 -4 5v4v8q4 11 4 33v21l-4 9v-9q0 -13 -4 -21v-16v-4q-4 -8 -4 -13q-4 -4 -4 -17q0 -4 -5 -4l-4 -8q0 -9 -4 -13l-17 -16q-9 -9 -12 -9q-10 -5 -17 -12h-4q-4 -4 -8 -4l-17 -9l-4 -4h-12q-3 0 -9 -2t-8 -2h-13h-20h-13q-14 0 -29 8h-4
q-21 -14 -38 -20q-4 -4 -12 -4q-5 -4 -15 -9q-9 -4 -14 -4h-4h-4q-15 -8 -30 -8h-4l-4 -4q-3 0 -11 -1.5t-10 -1.5q-16 -2 -21 -2q-83 0 -141 52t-58 123q0 26 4 34l4 8q0 10 8 25l5 8q3 3 8 13q4 8 8 12t9 4q0 5 8 13h4h8l9 -4h12h8h17h4q5 0 17 2l12 2q3 0 11 2q5 1 10 6
h9h-9h-21h-16h-4h-5q-4 -4 -8 -4q-13 0 -17 4h-16q-9 0 -13 4h-4q-6 6 -10 9q-1 1 -5 3.5t-6 4.5q0 4 -2 4t-2 4q-6 3 -16 21l-5 4v4q-8 15 -8 25v4l-4 5q-4 11 -4 37q0 25 4 33q0 5 4 9q0 10 8 25q0 4 3 4q2 0 2 4q10 18 16 21l4 4v4q9 9 17 13q4 0 8 -4q1 0 3 -0.5
t4.5 -1.5t3.5 -1q8 -2 10 -2l4 -4h13h29h25h8q-4 4 -8 4h-25q-5 5 -13 5h-4q-8 4 -12 4q-13 0 -17 4q-12 0 -16 4h-5q0 4 -4 4t-8 4l-13 13l-4 4q-5 5 -16 25l-5 4q-8 15 -8 29l-4 4q-4 11 -4 38q0 22 4 33q0 5 4 13v4q0 4 4 8t4 8q0 8 13 21q0 5 4 9l17 16q8 -8 16 -8
q8 -4 17 -4q8 -4 21 -4q10 -5 29 -5q2 0 14 3q8 2 11 2h8h-8q-8 4 -25 4q-9 0 -13 4h-16q-4 4 -17 4q-4 4 -8 4t-8 4q-3 0 -13 5h-4l-4 4q-13 13 -17 21l-8 8q-9 17 -9 21l-8 16v5l-4 8q-4 11 -4 33q0 92 87 146q60 29 112 29q21 0 50 -8q8 0 13 -5q12 0 33 -12q9 0 9 -4
q25 -4 37 -25h4q10 -10 25 -33h4q10 5 25 20q66 88 71 163h42q4 -53 -17 -125q-28 -57 -46 -75l-25 -25q0 -4 -4 -4l-21 -21v-21q0 -22 -4 -33l-4 -4v-9l-8 -16q0 -4 -9 -21l-8 -8q-8 -8 -8 -13q-4 -4 -13 -4q0 -4 -8 -4l-4 -4l-9 -5h-8q-8 -4 -17 -4l-16 -8h-13l-29 -8h29
h17h4q8 4 13 4l4 4h12h4l4 4h9l8 8l4 -4l17 -16l4 -9q13 -13 13 -21q0 -4 4 -8t4 -8v-4q4 -8 4 -13q4 -11 4 -33q0 -27 -4 -38q0 -4 -4 -4q0 -14 -8 -29l-5 -4q-11 -20 -16 -25l-4 -4l-5 -4q-5 -5 -8 -5q-4 0 -4 -4l-8 -4h-5h-4l-8 -4q-4 0 -8 -4h-9h-8q-4 -4 -8 -4l-4 -4
h-9l-29 -9h29q4 4 17 4h17q5 5 16 5l4 4h4l9 4h4l17 -17v-4l4 -4q6 -3 16 -21q0 -4 2 -4q3 0 3 -4q8 -15 8 -25q4 -4 4 -9q4 -8 4 -33q0 -4 -4 -4q0 -4 -4 -4l-4 -4l-4 -5l-13 -12q-4 0 -4 -4l-8 -4l-9 -9q-8 -8 -12 -8l-9 -8q-6 -3 -12 -9l-8 -4q3 0 20 9l25 12q5 0 13 8h4
l8 9l13 12l8 8q9 9 9 13l4 4q4 4 8 4q9 0 17 4h12h21h12q4 -4 15 -4t15 -4q5 0 10 -4q8 -6 10 -8q5 -5 9 -5q0 -4 2 -4t2 -4l4 -4q0 -8 4 -8q0 -5 4 -9v-8l4 -8l5 -9q0 -12 4 -16l4 -4v-9v-16l8 -25v29v12q0 13 -4 17q0 13 -4 17v8l-4 8l-4 4v13h-5q0 4 -8 12v9v4l17 16
q0 5 2 5t2 4q3 0 12 6t13 10l4 5l25 12q0 4 4 4q5 5 15 6q4 1 8.5 2t5.5 1h4h34q19 0 29 -5q8 0 8 -4q13 0 21 -8h4q4 -4 8 -4l5 -4q8 -8 8 -17l8 -8v-5l4 -8l5 -8v-4l4 -9l8 -16q0 -9 4 -13l9 -29q0 11 -5 29v17q0 4 -4 12t-4 17l-4 8l-4 9q-4 0 -4 4q0 3 -5 8l5 4
q0 6 8 11t8 10q4 4 4 8q5 5 13 9t12 8l5 4l25 13l4 4q5 5 14 6q14 2 15 2h4h33q23 0 34 -4q4 0 12 -8l8 -4h9l8 -5q8 -4 8 -8q9 0 9 -8q0 -4 4 -4l4 -9l4 -8l4 -8q0 -13 4 -17l5 -4v-9v-12l4 -4l8 -25q0 10 -4 29v12q0 9 -4 17q0 9 -4 17v4h4l4 4l12 13l17 8h4l8 4q4 4 11 4
q6 0 10 4h13q10 5 33 5q12 0 29 -9q9 0 13 -4q5 0 20 -8q4 0 13 -9q0 -4 4 -4t8 -4l13 -12q4 -4 4 -13l4 -8l4 -9v-16q5 -5 5 -13q4 -8 4 -16l4 -29q4 11 4 33v12l-4 9v8q0 9 -4 17v8l-4 8v4q17 9 25 9q4 4 12 4q11 4 37 4q19 0 34 -8q4 0 8 -4h8q5 -5 5 -9v-21q0 -2 2 -8
t2 -8v-13l4 -8l12 -37q0 18 -4 37v17v8q0 8 -4 12v21v25v4q0 13 4 21v9l13 25q0 4 4 4l12 25l4 4h5q4 8 12 16h4q8 -8 17 -8q4 0 8 -4h9q8 -4 16 -4h33h21l9 4h-9q-13 0 -21 4h-12q-13 0 -17 4q-12 0 -16 4q-12 0 -17 5q-4 0 -12 4l-9 4l-8 4l-8 8l-9 9q-1 1 -12 21
q-4 4 -4 8q0 3 -5 10q-1 1 -3.5 5t-4.5 6v12q-4 8 -4 25v9q0 26 4 37v8q4 4 4 9q4 8 4 12q4 8 13 17q0 4 8 12l4 9q4 8 9 8q4 0 4 4q0 -4 8 -4q8 -8 17 -8q4 0 4 -5h13q8 -4 16 -4h33h21h9q0 4 -9 4h-21l-4 5h-8q-13 0 -17 4h-16l-17 8q-6 0 -21 8q-7 0 -12 5q-10 10 -13 16
q-8 8 -8 13q-10 10 -13 16q-4 4 -4 11q0 6 -4 10v8q-4 11 -4 38q0 50 33 96l13 12l4 4h4q4 -4 8 -4l17 -8h4l4 -4h9h16q11 -4 34 -4q4 0 12 4h8h9h-9q-4 4 -20 4h-13q-8 4 -16 4h-9l-8 4q-4 0 -8 4h-9q-18 10 -21 13q-8 0 -12 4q-12 5 -17 17q-33 47 -33 95v30q4 4 4 12
q0 4 4 4q0 -4 4 -4l9 -8q4 -4 8 -4q9 -9 13 -9l16 -8h9l8 -4q13 0 21 -4h16q11 0 21 -5q19 0 29 5h34q-11 4 -34 4q-8 0 -12 4h-17q-12 0 -16 4h-21l-4 4h-13q-13 0 -17 4q-2 0 -8 2q-1 0 -3.5 1.5t-4.5 1.5h-4v20q-11 -4 -34 -4h-4q-3 0 -25 2q-4 0 -9 0.5t-8 1t-4 0.5
q-28 10 -41 17l-4 4h-9q-9 9 -12 11q-9 6 -13 6l-8 8q-12 9 -21 21l-8 8q-13 13 -17 21h4l5 4v4l8 5l12 12q5 5 9 13l4 4q7 7 17 25q8 15 8 20l4 9q0 -5 -4 -9q-10 -10 -13 -16q-8 -8 -8 -13l-12 -12l-13 -13l-12 -12q0 -4 -5 -4q-4 0 -8 -4q-9 -9 -12 -9h-9q-21 0 -29 4h-8
q-3 0 -11 2q-4 1 -10 7l-8 4q-16 4 -29 17q0 4 -5 4l-16 16l-9 9q0 5 -4 10q-6 8 -8 10q-4 4 -4 9l-13 25l5 4q8 0 8 4t4 8q2 2 4 4.5t4 4.5l4 4q0 8 5 8q1 1 16 29q4 8 4 21l5 9l-5 -5q0 -5 -4 -10q-6 -8 -8 -10q0 -5 -8 -13q0 -3 -9 -12q-8 -8 -8 -13l-8 -8q-4 -4 -4 -9
l-5 -4h-4l-16 -16h-5q-5 -5 -12 -5q-4 -4 -13 -4q-23 -8 -41 -8q-5 0 -19 2l-14 2q-138 37 -138 200q0 26 4 37q0 8 5 13q0 13 4 21l4 4v8l8 17l9 16l4 5l79 274h87l63 -220q0 -4 4 -4q3 0 8 -5q4 0 12 -4q5 -5 30 -21l4 -4l25 -25q8 0 8 -8l4 -4v-8v-5v-12v-8v-9
q0 -8 -4 -16v-13q0 -13 -4 -17l-4 -29q6 9 12 29l4 5v8q5 5 5 17q0 2 2 8t2 8v9v8v8v9q4 0 4 4h8q11 4 33 4t30 -4h8l25 -13h4q20 -11 25 -16q4 0 4 -3q0 -2 4 -2l17 -16l4 -4v-5q9 -9 11 -12q6 -9 10 -13q0 -4 4 -8q0 -8 4 -12v-5l4 -4q0 -12 -4 -16v-17v-8l-4 -9v-16
q-4 -4 -4 -17q-4 -4 -4 -12l-9 -30l17 25q0 9 4 13q4 8 4 17q5 5 5 16l4 8v9v8v13v16v13h25h8q35 0 46 -4l37 -13h4q4 -4 9 -4q3 -3 21 -13l8 -8q8 -4 21 -17l8 -8q17 -17 21 -25q4 -4 4 -12q1 -1 12 -21q5 -5 5 -13q4 -4 4 -10t4 -10v-13q4 -4 4 -8h8q4 4 17 4h17h16
q3 0 11 -2t10 -2q5 0 13 -4q12 -7 29 -13q6 -6 12 -10t13 -11l4 -4v-4q12 -12 12 -17l9 -8q4 -4 4 -10q0 -7 4 -11l4 -8q0 -1 2 -15q1 -9 6 -14v-9v-29v-12z" />
</svg>