<svg xmlns="http://www.w3.org/2000/svg" xmlns:xlink="http://www.w3.org/1999/xlink" version="1.1" viewBox="-10 0 2058 2048">
   <path fill="currentColor"
d="M1023.5 205q127.5 0 217 89.5t89.5 216.5v513q0 128 -89.5 217.5t-217 89.5t-217.5 -89.5t-90 -217.5v-513q0 -127 90 -216.5t217.5 -89.5zM614 896v128q0 111 54.5 205.5t149 149t206 54.5t206 -54.5t149.5 -149t55 -205.5v-128q0 -32 22 -54.5t53.5 -22.5t55 23
t23.5 54v128q0 140 -64.5 261.5t-175.5 200t-248 96.5v108h154q32 0 54 22t22 54t-22 54.5t-54 22.5h-230h-230q-32 0 -55 -22.5t-23 -54t23 -54t55 -22.5h152v-108q-136 -18 -247 -96.5t-175 -200t-64 -261.5v-128q0 -32 23 -54.5t54.5 -22.5t54 22.5t22.5 54.5z" />
</svg>