<svg xmlns="http://www.w3.org/2000/svg" xmlns:xlink="http://www.w3.org/1999/xlink" version="1.1" viewBox="-10 0 2068 2048">
   <path fill="currentColor"
d="M430 1197q54 24 88 29q78 26 156 26q26 26 64 55q61 35 104 46q85 21 178 -4q55 -21 92 -42q38 -29 64 -55l20 -34q10 5 24 6q3 0 21 2.5t33 4.5q40 4 58 -5q32 -5 88 -29q44 -22 68 -46l4 -5q4 -4 8 -4l-50 721v17q0 2 -6 12q-21 80 -104 80h-830q-12 0 -16 -4h-6h-4
q-35 -11 -66 -46v-4l-4 -5q-6 -5 -6 -8q0 -4 -4 -8q0 -9 -4 -13v-17v-4l-50 -721q4 0 12 9q26 25 68 46zM350 434q16 -95 90 -158q73 -61 170 -61q36 0 76 13q73 -152 236.5 -152t235.5 152q41 -13 80 -13q98 0 172 63t86 156q91 16 154 89q60 71 60 168q0 85 -50 154
q-52 70 -136 95q0 4 -12 55q-32 72 -88 105q-45 35 -88 46q-43 9 -68 9q-36 0 -88 -17l-18 -8q-46 110 -160 143q-37 12 -80 12q-38 0 -76 -12q-113 -33 -160 -143q-8 8 -16 8q-61 17 -88 17q-26 0 -68 -9t-88 -42q-56 -42 -88 -109q-4 -13 -7.5 -27.5t-5 -20.5t-1.5 -7
q-83 -25 -134 -95q-50 -68 -50 -154q0 -97 60 -168q63 -73 150 -89zM1702 1462q12 0 16 5q22 -47 68 -47q29 0 48 21q20 20 20 51q45 12 54 63q10 64 -58 76q-17 59 -80 59q-34 0 -59 -25t-25 -59v-4q-56 -16 -56 -68q0 -29 22 -50q22 -22 50 -22zM1836 1007h14l8 5
q21 -43 68 -43q66 0 66 68q46 12 56 63q0 59 -60 76q-12 59 -80 59q-34 0 -59 -25t-25 -59v-5q-54 -12 -54 -67q0 -31 18 -51q20 -21 48 -21zM72 1193q12 0 20 4q12 -46 64 -46q29 0 48 21q20 20 20 50q50 12 54 63q9 63 -58 72q-13 59 -80 59q-34 0 -59 -25t-25 -59v-4
q-56 -9 -56 -68q0 -28 22 -48q20 -19 50 -19z" />
</svg>