<svg xmlns="http://www.w3.org/2000/svg" xmlns:xlink="http://www.w3.org/1999/xlink" version="1.1" viewBox="-10 0 2068 2048">
   <path fill="currentColor"
d="M614 614v102q0 42 -30 72.5t-71.5 30.5t-72 -30.5t-30.5 -72.5v-102q0 -128 89.5 -217.5t217 -89.5t217.5 90t90 217v25q0 101 -12 200l392 -118q26 -8 54 -1t48.5 28t27 49t-3.5 55l-56 172h266q43 0 73.5 30t30.5 72t-31 72.5t-73 30.5h-408q-54 0 -84 -43
q-30 -42 -14 -92l40 -120l-302 91q-56 252 -186 481l-44 78q-32 54 -85.5 85.5t-116.5 31.5q-95 0 -163.5 -68.5t-68.5 -164.5v-229q0 -102 60.5 -184t157.5 -111l270 -80q24 -133 24 -265v-25q0 -42 -30.5 -72t-73 -30t-72.5 30t-30 72zM586 1181v-1q-33 10 -53.5 37.5
t-20.5 61.5v230q0 11 8 19t20 8q15 0 22 -14l44 -78q90 -158 136 -311zM78 1382h126v126q0 19 2 28h-128q-32 0 -55 -23t-23 -54t23 -54t55 -23zM1970 1536h-1062q31 -60 70 -154h992q32 0 55 23t23 54t-23 54t-55 23z" />
</svg>