<svg xmlns="http://www.w3.org/2000/svg" xmlns:xlink="http://www.w3.org/1999/xlink" version="1.1" viewBox="-10 0 2068 2048">
   <path fill="currentColor"
d="M1024 0q-420 0 -722 302q-302 301 -302 722q0 422 301 723t723 301t723 -301t301 -723q0 -426 -299 -725t-725 -299zM1664 1252q0 173 -122 293t-296 120h-446q-172 0 -294 -122t-122 -291v-455q0 -173 122 -293q121 -120 294 -120h212q171 0 292 116q120 115 120 284
q0 29 26 55q24 25 58 25h72q33 0 58 30q26 29 26 63v295zM1264 1184h-480q-34 0 -58 24q-22 23 -22 56q0 30 25 55t55 25h480q30 0 55 -25t25 -55q0 -33 -24 -56q-24 -24 -56 -24zM784 864h240q34 0 57 -23t23 -57q0 -29 -24 -55q-22 -25 -56 -25h-240q-30 0 -55 25t-25 55
q0 34 23 57t57 23z" />
</svg>