<svg xmlns="http://www.w3.org/2000/svg" xmlns:xlink="http://www.w3.org/1999/xlink" version="1.1" viewBox="-10 0 2068 2048">
   <path fill="currentColor"
d="M1844 410q84 0 144 60t60 144v820q0 84 -60 144t-144 60h-388q-57 0 -106.5 -30.5t-75.5 -81.5l-102 -206q-21 -41 -61.5 -65.5t-87 -24.5t-87 24.5t-60.5 65.5l-102 206q-27 51 -76.5 81.5t-107.5 30.5h-386q-84 0 -144 -60t-60 -144v-820q0 -84 60 -144t144 -60h1640z
M308 973.5q0 84.5 60 144.5t144.5 60t144 -60t59.5 -144.5t-59.5 -145t-144 -60.5t-144.5 60.5t-60 145zM1535.5 768q-84.5 0 -144 60.5t-59.5 145t59.5 144.5t144 60t144.5 -60t60 -144.5t-60 -145t-144.5 -60.5z" />
</svg>