<svg xmlns="http://www.w3.org/2000/svg" xmlns:xlink="http://www.w3.org/1999/xlink" version="1.1" viewBox="-10 0 2058 2048">
   <path fill="currentColor"
d="M1368 1252q-219 58 -546 55q-264 -2 -358 -41q-67 -28 6 -63q50 -24 101.5 -41t89.5 -23.5t68.5 -9.5t46.5 -3l16 1l-100 28q-124 40 -112 66q9 17 80 27q153 21 493 -6q68 -6 145 -16t120 -17l43 -7q-54 23 -93 50zM1026 1123q-55 -50 -92.5 -87t-76.5 -81t-60 -81
t-33.5 -75.5t-6.5 -75.5t29 -72q20 -30 49 -60.5t59.5 -55.5t65.5 -53.5t67.5 -53.5t65 -55t58 -58.5t47 -64.5t31.5 -73t12 -82.5t-12 -94.5q4 4 11 12.5t20.5 37t19.5 60t-0.5 80.5t-31 100t-81 117t-141.5 133q-60 47 -98 93t-53 84t-14.5 77.5t12.5 71t32.5 67
t41.5 63.5t43.5 63.5t35.5 63.5zM1484 419q-70 41 -124 76.5t-93 64.5t-63.5 58t-40 49.5t-17 46.5t-1 41.5t14 41.5t23.5 41t31 45l15 21q32 49 30 92.5t-28.5 80.5t-57.5 63t-56 41l-25 15q5 -4 13 -12t24 -32t23 -48t0.5 -58.5t-34.5 -66.5q-68 -79 -85 -152.5t11 -128
t77.5 -102t113 -79t118.5 -54.5t93 -34zM1460 1501q203 -106 230 -219q16 -72 -40 -119q-50 -40 -107 -28q-26 5 -45 12q11 -16 34 -25q98 -35 176 12q65 40 69 111q6 93 -102 170q-83 59 -223 96q6 -6 8 -10zM1649 1750q74 33 13 77q-82 60 -329 96q-388 56 -837 0
q-62 -8 -124 -18q-109 -18 -103 -57q6 -38 104 -77q106 -43 183 -39q27 2 41 12q-27 -1 -71 9q-69 14 -109 40t2 44q96 42 335 54t477.5 -4.5t353.5 -51.5q54 -17 70 -38t5 -34zM754 1585l-15 12q-28 30 41 43q13 3 30 5q119 14 205.5 10.5t218.5 -28.5q51 31 113 55
q-201 85 -436 68q-156 -11 -226 -58q-57 -38 -8 -74q25 -19 77 -33zM1473 1974q78 -15 138.5 -33t90.5 -32.5t49 -27.5t23 -20l5 -7q-3 42 -49 76t-121.5 55.5t-170.5 36.5t-201.5 20.5t-209 5.5t-197.5 -6q-68 -4 -123 -11.5t-84.5 -14.5t-49.5 -13.5t-26 -10.5l-6 -4
q119 19 272 26.5t331 -2.5t329 -38zM1299 1412q35 33 84 51q-257 75 -522 60q-186 -11 -247 -57q-52 -40 31 -82q24 -12 60 -24q-2 1 -5 3.5t-9 9.5t-10 13.5t-4 15t6.5 15t24 12.5t44.5 9q119 15 249.5 10.5t297.5 -36.5z" />
</svg>