<svg xmlns="http://www.w3.org/2000/svg" xmlns:xlink="http://www.w3.org/1999/xlink" version="1.1" viewBox="-10 0 2068 2048">
   <path fill="currentColor"
d="M0 0l542 318l-52 -269l416 320q60 -11 118 -11t118 11l416 -320l-52 269l542 -318l-318 542l268 -52l-320 416q11 58 11 117.5t-11 118.5l320 416l-268 -54l318 544l-542 -318l52 268l-416 -319q-118 21 -236 0l-416 319l52 -268l-542 318l318 -544l-268 54
q320 -415 320 -416q-10 -54 -10 -118t10 -118l-320 -416l268 52zM1024 456q-111 0 -215 42t-185.5 124t-124 188t-42.5 213.5t42.5 213.5t124.5 188q109 109 254.5 148t291 0t254.5 -148q82 -82 124.5 -188t42.5 -213.5t-42.5 -213.5t-124 -188t-185.5 -124t-215 -42z
M1024.5 624q79.5 0 152.5 29.5t131 86.5q76 77 103.5 180t0 206t-104 180t-180 104t-207 0t-180 -104t-104 -180t0 -206t103.5 -180q58 -57 131.5 -86.5t153 -29.5z" />
</svg>