<svg xmlns="http://www.w3.org/2000/svg" xmlns:xlink="http://www.w3.org/1999/xlink" version="1.1" viewBox="-10 0 2058 2048">
   <path fill="currentColor"
d="M1607 254q116 122 177.5 278t61.5 325q0 104 -35.5 223.5t-93 227.5t-104.5 182.5t-95 137.5q-21 28 -47.5 61.5t-87.5 103t-116 121.5t-120 93t-112 41q-94 0 -235 -126t-267 -293q-37 -48 -73.5 -102t-85.5 -139.5t-85 -167.5t-61.5 -180t-25.5 -183q0 -174 66 -332.5
t177.5 -273.5t266 -183t323.5 -68q162 0 309 65.5t263 188.5zM1035 1976q44 0 133 -71.5t191.5 -193.5t196 -263.5t155.5 -301t62 -287.5q0 -158 -59 -303.5t-158.5 -251t-236 -168.5t-284.5 -63q-156 0 -297.5 63t-243 168.5t-161 250.5t-59.5 304q0 128 62.5 287.5
t157 301t199.5 263t198.5 193.5t143.5 72zM1480 827q0 116 -60.5 217.5t-163 161.5t-219.5 60q-98 0 -183 -33.5t-144 -89t-96 -130.5t-45 -154.5t16 -163.5t80 -156v1q0 74 52.5 126t126.5 52t127 -52.5t53 -125.5q0 -54 -30.5 -98t-78.5 -65q93 -21 176.5 -11t155 51.5
t123 102t81 140.5t29.5 167z" />
</svg>