<svg xmlns="http://www.w3.org/2000/svg" xmlns:xlink="http://www.w3.org/1999/xlink" version="1.1" viewBox="-10 0 2069 2048">
   <path fill="currentColor"
d="M768.5 384q-79.5 0 -135.5 -56.5t-56 -136t56 -135.5t135.5 -56t135.5 56t56 135.5t-56 136t-135.5 56.5zM483 988q-130 49 -210 163t-80 257q0 91 35 174t95 143t143 95.5t175 35.5q126 0 231.5 -65t163.5 -173q18 -35 56 -46.5t73.5 7t46.5 56.5t-7 73
q-82 155 -233 247.5t-331 92.5q-130 0 -249 -51t-204.5 -136.5t-136 -204t-50.5 -248.5q0 -203 115.5 -366t299.5 -232q37 -14 73 1.5t50 52.5q13 38 -3 74.5t-53 49.5zM1039 704h306q52 0 90 37.5t38 90t-38 89.5t-90 37h-254l38 194h274q99 0 181 56.5t118 149.5l103 272
l75 -24q50 -18 96.5 6t64.5 74q17 51 -6.5 98.5t-73.5 65.5l-193 64q-49 16 -95.5 -6.5t-64.5 -71.5l-145 -388q-8 -18 -24 -29t-36 -11h-377h-4h-20q-92 0 -163 -58.5t-89 -147.5l-92 -462q-18 -88 39 -158t148 -70q68 0 120.5 43.5t66.5 110.5z" />
</svg>