<svg xmlns="http://www.w3.org/2000/svg" xmlns:xlink="http://www.w3.org/1999/xlink" version="1.1" viewBox="-10 0 2068 2048">
   <path fill="currentColor"
d="M1024 480h10q74 0 128 53.5t54 128.5t-54 128.5t-128 53.5h-10h-8q-76 0 -130 -53.5t-54 -128.5t54 -128.5t130 -53.5h8zM1756 0q120 0 206 85.5t86 206.5v1464q0 121 -86 206.5t-206 85.5h-1464q-120 0 -206 -85.5t-86 -206.5v-1464q0 -121 86 -206.5t206 -85.5h1464z
M1024.5 292q-100.5 0 -186 49.5t-135 135t-49.5 185.5t49.5 185.5t135 135.5t186 50t185.5 -50t134.5 -135.5t49.5 -185.5t-49.5 -185.5t-134.5 -135t-185.5 -49.5zM1296 1061q-5 3 -13 9t-35 20t-56 25t-75 20t-92.5 9t-92 -8.5t-76.5 -21t-55.5 -24.5t-36.5 -20l-12 -9
q-27 -22 -53 -29.5t-45.5 -1.5t-33.5 18t-22 29q-11 22 -12.5 40.5t3.5 33.5t21 31.5t34.5 30.5t49.5 34q95 61 260 77l-58 59q-26 25 -54.5 53.5l-60.5 60.5l-47 47l-58 57q-16 16 -21.5 36.5t-1 38.5t15.5 35t28 27.5t35 15.5t38 -1t36 -22l218 -218q27 26 107.5 106
t112.5 112q19 19 42.5 23.5t44 -3.5t37.5 -24.5t25 -37.5t3.5 -44.5t-22.5 -43.5l-218 -218l-60 -59q162 -16 258 -77q31 -20 49.5 -34t34.5 -30.5t21 -31.5t3.5 -33.5t-12.5 -40.5q-8 -17 -22 -29t-33.5 -18t-45.5 1.5t-53 29.5z" />
</svg>