<svg xmlns="http://www.w3.org/2000/svg" xmlns:xlink="http://www.w3.org/1999/xlink" version="1.1" viewBox="-10 0 2058 2048">
   <path fill="currentColor"
d="M1024 0q124 0 223.5 71t138.5 185h150q106 0 181 75t75 181v1281q0 106 -75 180.5t-181 74.5h-1024q-106 0 -181 -74.5t-75 -180.5v-1281q0 -106 75 -181t181 -75h150q39 -114 138.5 -185t223.5 -71zM1024 256q-52 0 -90 38t-38 90t38 90t90 38t90 -38t38 -90t-38 -90
t-90 -38zM768 1024q0 106 75 181t181 75t181 -75t75 -181t-75 -180.5t-181 -74.5t-181 74.5t-75 180.5zM576 1729q0 26 18.5 45t44.5 19h768q26 0 45 -19t19 -45q0 -133 -93 -227t-226 -94h-256q-133 0 -226.5 94t-93.5 227z" />
</svg>