<svg xmlns="http://www.w3.org/2000/svg" xmlns:xlink="http://www.w3.org/1999/xlink" version="1.1" viewBox="-10 0 2068 2048">
   <path fill="currentColor"
d="M2048 1024q0 139 -37 272t-103 245t-160.5 206.5t-206.5 160.5t-244.5 103t-272.5 37q-138 0 -271 -37t-245 -102.5t-206.5 -160t-161 -207t-103.5 -245.5t-37 -272t37 -272t103 -245.5t160.5 -207t207 -160t245 -102.5t272 -37t272 37t244.5 102.5t206.5 160t160.5 207
t103 245.5t37 272zM1920 1024q0 -121 -32.5 -237t-90 -214.5t-140 -181.5t-180.5 -140.5t-214.5 -90t-238.5 -32.5q-121 0 -237 32.5t-214.5 90t-181 140.5t-140.5 181t-90.5 214t-32.5 238t32.5 238t90.5 214t140.5 181t181 140.5t214.5 90t237.5 32.5t237.5 -32.5t214 -90
t181 -140.5t140.5 -181t90 -214t32.5 -238zM644 499l348 148l-148 348l-348 -148zM1084 1175l186 376h-58l-200 -400l-196 400h-56l204 -428l-88 -37l24 -56l274 116l-24 57zM1036 710l276 117l-120 273l-272 -116zM1358 881l218 92l-94 218l-216 -92z" />
</svg>