<svg xmlns="http://www.w3.org/2000/svg" xmlns:xlink="http://www.w3.org/1999/xlink" version="1.1" viewBox="-10 0 2068 2048">
   <path fill="currentColor"
d="M0 383.5q0 -52.5 38 -90t90 -37.5h1536q53 0 90.5 37.5t37.5 90t-37.5 90.5t-90.5 38h-1536q-52 0 -90 -38t-38 -90.5zM256 1023.5q0 -52.5 37.5 -90t90.5 -37.5h1536q52 0 90 37.5t38 90t-38 90.5t-90 38h-1536q-53 0 -90.5 -38t-37.5 -90.5zM1792 1664.5
q0 52.5 -37.5 90t-90.5 37.5h-1536q-52 0 -90 -37.5t-38 -90t38 -90.5t90 -38h1536q53 0 90.5 38t37.5 90.5z" />
</svg>