<svg xmlns="http://www.w3.org/2000/svg" xmlns:xlink="http://www.w3.org/1999/xlink" version="1.1" viewBox="-10 0 2058 2048">
   <path fill="currentColor"
d="M1024 2048q-111 0 -217.5 -34.5t-196 -95t-165.5 -145t-128.5 -182t-82 -209t-29.5 -222.5q0 -104 16.5 -215t50.5 -224t83 -218t118 -197t150 -160t184 -107t217 -39t217 39t184 107t150 160t118 197t83 218t50.5 224t16.5 215q0 111 -29.5 222.5t-82 209t-128.5 182
t-165.5 145t-196 95t-217.5 34.5zM866 503q21 -19 21.5 -47t-18.5 -49t-47 -22.5t-49 17.5q-141 128 -223 360q-72 205 -72 398q0 28 20 48t48 20t48 -20t20 -48q0 -170 65 -353q70 -197 187 -304z" />
</svg>