<svg xmlns="http://www.w3.org/2000/svg" xmlns:xlink="http://www.w3.org/1999/xlink" version="1.1" viewBox="-10 0 2068 2048">
   <path fill="currentColor"
d="M1481 138q-59 62 -101 143t-64.5 170.5t-32.5 175t-10 177.5q0 193 -15 363t-40 289.5t-47 195.5t-46 134q-25 59 -77.5 91.5t-113.5 32.5h-823q-29 0 -55 -15t-41 -41.5t-15 -56t16 -55.5q34 -61 71 -200q79 -309 79 -738q0 -181 44.5 -334t121 -242.5t167.5 -89.5h982z
M1714.5 1466q-90.5 0 -166.5 -88.5t-120 -241t-44 -333t44 -333.5t120.5 -242.5t166.5 -89.5t167 89.5t121.5 242.5t44.5 333.5t-44.5 333t-121.5 241t-167.5 88.5zM1715 1024q46 0 79 -64.5t33 -156t-33 -157.5t-79 -66t-78 66t-32 157.5t32 156t78 64.5zM443 858.5
q0 -23.5 -16 -39t-39 -15.5t-39 15.5t-16 39t16 39.5t39 16t39 -16t16 -39.5zM664 858.5q0 -23.5 -16 -39t-39 -15.5t-39 15.5t-16 39t16 39.5t39 16t39 -16t16 -39.5zM830 914q23 0 39 -16t16 -39.5t-16 -39t-39 -15.5t-39 15.5t-16 39t16 39.5t39 16zM1107 858.5
q0 -23.5 -16 -39t-39 -15.5t-39.5 15.5t-16.5 39t16.5 39.5t39.5 16t39 -16t16 -39.5z" />
</svg>