<svg xmlns="http://www.w3.org/2000/svg" xmlns:xlink="http://www.w3.org/1999/xlink" version="1.1" viewBox="-10 0 2068 2048">
   <path fill="currentColor"
d="M742 749q17 -17 40 -20t126 -3q91 0 112 1.5t35 8.5q38 20 38 62q0 37 -35 61q-8 6 -28 7.5t-114 2.5q-130 0 -144 -3q-35 -11 -45.5 -51t15.5 -66zM1022 1181h148t75.5 3.5t36 6.5t16.5 13q25 24 21 58.5t-35 52.5l-42 6l-219 3q-242 2 -257 -5q-14 -7 -26.5 -23
t-15.5 -32q-1 -17 5.5 -35.5t17.5 -28.5t28.5 -13t68 -4.5t178.5 -1.5zM2043 1777q-12 97 -74 167.5t-159 94.5q-24 6 -125.5 7.5t-664.5 1.5q-359 0 -521 -1t-205.5 -2.5t-59.5 -5.5q-55 -15 -102 -46q-19 -13 -43 -36t-35 -39q-28 -44 -45 -100q-6 -23 -7.5 -125.5
t-1.5 -667.5q0 -563 1.5 -666t7.5 -127q21 -85 84.5 -145.5t149.5 -79.5q25 -6 775 -7t777 5q149 30 218 166q3 5 8 14q19 34 22.5 120.5t3.5 568.5v123q2 743 -4 780zM1653 930q-3 -17 -13.5 -32t-22.5 -21q-16 -7 -70 -8q-42 -2 -54.5 -4t-27.5 -9q-21 -12 -28.5 -29.5
t-7.5 -54.5q0 -143 -115 -259q-78 -82 -186 -114q-25 -8 -179 -9q-144 -2 -200 3.5t-107 25.5q-93 37 -156.5 111t-87.5 173q-4 18 -5.5 70t-2.5 225q0 225 2.5 284.5t15.5 101.5q33 103 116 176t179 90q32 5 302 6.5t309 -3.5q132 -17 231 -118q73 -74 101 -177
q10 -34 11 -224t-4 -204z" />
</svg>