<svg xmlns="http://www.w3.org/2000/svg" xmlns:xlink="http://www.w3.org/1999/xlink" version="1.1" viewBox="-10 0 2068 2048">
   <path fill="currentColor"
d="M1906 505q-28 7 -50 7q-80 0 -136 -55t-56 -133q0 -32 18 -72l4 -9q41 -91 144 -230q10 -13 26 -13t26 13q35 47 67.5 95t65.5 113.5t33 102.5q0 64 -40 114t-102 67zM1582 165q-10 19 -18 37q-28 71 -28 122q0 24 4 47q-109 -86 -240.5 -132.5t-275.5 -46.5
q-113 0 -220.5 30t-199 83.5t-168 130.5t-130.5 168t-84 199t-30 221t30 221t84 199t130.5 168t168 131t199.5 84t220.5 30t220.5 -30t199 -84t168 -131t130.5 -168t83.5 -199t30 -221q0 -215 -104 -401q50 17 104 17t110 -19q82 192 82 403q0 139 -37 272t-103 245.5
t-160.5 207t-206.5 160t-244.5 102.5t-272 37t-272 -37t-245 -102.5t-207 -160t-160.5 -207t-103 -245.5t-37 -272t37 -272t103 -245.5t160.5 -207t207 -160t245 -102.5t271.5 -37q304 0 558 165zM1500 1346q-75 117 -201 186t-274.5 69t-275 -69t-201.5 -186
q-17 -24 -12.5 -47t19.5 -40t41 -24.5t54 -1.5q184 43 374 43q189 0 374 -43q27 -6 53 1.5t41.5 24.5t20 40t-12.5 47zM870 915l-4 -4q-2 -3 -10 -13q-22 -25 -42 -42q-63 -56 -109.5 -56t-110.5 56q-19 17 -42 42q-8 10 -10 13l-4 4v0v0q-14 19 -36 12q-22 -6 -22 -31
q0 -108 66 -195q32 -42 73 -67.5t85.5 -25.5t85 25.5t72.5 67.5q66 89 66 195q0 10 -6.5 19t-15.5 12q-21 6 -36 -12v0zM1510 915v0q0 -2 -2 -4t-6 -6.5t-6 -6.5q-26 -29 -40 -42q-64 -56 -111.5 -56t-110.5 56q-15 13 -42 42q-1 2 -5 6.5t-5 6.5l-2 2l-2 2v0v0
q-14 19 -36 12q-9 -3 -15.5 -11.5t-6.5 -19.5q0 -108 66 -195q32 -42 73 -67.5t85.5 -25.5t85 25.5t72.5 67.5q66 87 66 195q0 25 -21 31t-37 -12v0z" />
</svg>