<svg xmlns="http://www.w3.org/2000/svg" xmlns:xlink="http://www.w3.org/1999/xlink" version="1.1" viewBox="-10 0 2068 2048">
   <path fill="currentColor"
d="M1100 4q344 54 578 322q232 266 232 627q0 375 -256 650q-253 273 -626 303h-4h-4q-68 9 -68 71q0 29 21 50t51 21q422 0 723 -301t301 -723q0 -400 -274 -694q-274 -293 -674 -326zM138 1099q0 -375 256 -650q253 -273 626 -303h4l4 -4q66 0 66 -67v-4q0 -30 -20 -50
q-20 -21 -50 -21l-4 4h-8q-425 9 -718 305q-294 297 -294 715q0 401 274 696q273 294 674 324q-344 -54 -578 -322q-232 -266 -232 -623z" />
</svg>