<svg xmlns="http://www.w3.org/2000/svg" xmlns:xlink="http://www.w3.org/1999/xlink" version="1.1" viewBox="-10 0 2068 2048">
   <path fill="currentColor"
d="M1600 1625q121 -116 188.5 -271.5t67.5 -329.5q0 -113 -30 -221t-83.5 -199t-130.5 -168t-168 -130.5t-199 -83.5t-221 -30t-220.5 30t-199 83.5t-168 130.5t-130.5 168t-84 199t-30 221q0 173 68 328.5t188 272.5v-473q0 -40 28.5 -68t68 -28t67.5 28t28 68v610
q183 95 384.5 95t383.5 -95v-610q0 -40 28 -68t67.5 -28t68 28t28.5 68v473zM1024.5 2048q-139.5 0 -272 -37t-245 -102.5t-207 -160t-160.5 -207t-103 -245.5t-37 -272t37 -272t103 -245.5t160.5 -207t207 -160t245 -102.5t272 -37t272 37t244.5 102.5t206.5 160t160.5 207
t103 245.5t37 272t-37 272t-103 245.5t-160.5 207t-206.5 160t-244.5 102.5t-272 37zM638 880q-63 0 -100 39q-23 25 -57 25.5t-57 -22.5q-24 -22 -25 -54.5t21 -57.5q42 -45 99.5 -67.5t119 -22.5t119.5 22.5t100 67.5q22 25 21 57t-25 55t-57.5 22.5t-56.5 -25.5
q-35 -39 -102 -39zM1304 919q-22 25 -55.5 25.5t-56.5 -22.5q-24 -22 -25 -54.5t21 -57.5q42 -45 99.5 -67.5t119 -22.5t119.5 22.5t100 67.5q22 25 20.5 57t-26.5 55q-23 23 -56 22.5t-56 -25.5q-35 -39 -102 -39q-64 0 -102 39zM832 1280q0 -80 56.5 -136t136 -56
t135.5 56t56 136v128q0 80 -56 136.5t-135.5 56.5t-136 -56.5t-56.5 -136.5v-128z" />
</svg>