<svg xmlns="http://www.w3.org/2000/svg" xmlns:xlink="http://www.w3.org/1999/xlink" version="1.1" viewBox="-10 0 2068 2048">
   <path fill="currentColor"
d="M1024 131l892 893l-892 893l-892 -893zM354 1023l164 164q41 -40 123 -121.5t125 -123.5q28 29 79 83t67 70q23 -24 71 -69.5t71 -69.5q-42 -45 -140 -143q-11 -11 0 -22q47 -46 110 -52t116 32q25 18 60 49.5t136 126.5q113 -116 134 -138q1 -2 0 -7t-4 -7
q-16 -18 -43.5 -47t-93.5 -93t-111 -97q-68 -51 -146 -63t-165 22.5t-167 115.5q-149 150 -244 246t-118.5 120zM1292 1430q296 -295 402 -406q-107 -106 -164 -160q-40 40 -121 120.5t-123 121.5q-22 -23 -46.5 -48.5t-55 -57t-46.5 -49.5q-3 1 -4.5 2t-2 1.5t-1.5 0.5
l-128 129q-8 8 1 16q1 1 1 2q21 22 64 65l64 64q10 10 10 15t-12 15q-50 47 -116 48.5t-122 -42.5q-21 -17 -45 -40t-133 -128q-91 94 -140 145q12 13 41 43.5t39.5 41t33.5 34t33 33t29 27.5t30 27t26.5 21.5t29.5 22t28 18.5q60 36 131 42t150 -25t147 -99zM1024 0
l1024 1024l-1024 1024l-1024 -1024zM64 1024l960 960l960 -960l-960 -960z" />
</svg>