<svg xmlns="http://www.w3.org/2000/svg" xmlns:xlink="http://www.w3.org/1999/xlink" version="1.1" viewBox="-10 0 2068 2048">
   <path fill="currentColor"
d="M292 219q-30 0 -51 21.5t-21 51.5v1464q0 30 21 51.5t51 21.5h1464q30 0 51 -21.5t21 -51.5v-1464q0 -30 -21 -51.5t-51 -21.5h-1464zM0 292q0 -121 86 -206.5t206 -85.5h1464q120 0 206 85.5t86 206.5v1464q0 121 -86 206.5t-206 85.5h-1464q-120 0 -206 -85.5
t-86 -206.5v-1464zM694 914h660q45 0 77.5 32t32.5 78t-32.5 77.5t-77.5 31.5h-660q-45 0 -76.5 -31.5t-31.5 -77.5t31.5 -78t76.5 -32z" />
</svg>