<svg xmlns="http://www.w3.org/2000/svg" xmlns:xlink="http://www.w3.org/1999/xlink" version="1.1" viewBox="-10 0 2068 2048">
   <path fill="currentColor"
d="M1332 205q93 0 192 17.5t192.5 53t167.5 83.5t119 114.5t45 140.5q0 53 -22 97.5t-58 75.5t-85.5 55.5t-100.5 39t-107.5 24t-102 13t-88.5 3.5q-54 0 -101 -8t-91 -25.5t-70 -31t-70 -38.5q-46 -26 -71 -39t-69 -30.5t-91 -25.5t-101 -8v-409q12 -4 34 -11t86 -24.5
t124 -31t135 -24.5t133 -11zM410 512q0 -85 60 -145t144 -60h102v409h-102q-84 0 -144 -59.5t-60 -144.5zM922 1843q-91 0 -219 -25.5t-210 -51.5l-83 -25v-410q55 0 102 -8t90.5 -25t70 -30.5t69.5 -38.5q45 -25 71 -38.5t70 -31t91 -25.5t102 -8q42 0 87.5 3.5t101.5 13
t107.5 24t100.5 38.5t85 55t58 75.5t22 97.5q0 74 -45 140.5t-119 114.5t-167.5 84t-193 53.5t-191.5 17.5zM0 1536q0 -85 60 -145t144 -60h104v410h-104q-84 0 -144 -60t-60 -145z" />
</svg>