<svg xmlns="http://www.w3.org/2000/svg" xmlns:xlink="http://www.w3.org/1999/xlink" version="1.1" viewBox="-10 0 2067 2048">
   <path fill="currentColor"
d="M941 208q27 12 31 39l33 200q-114 54 -179 161q-73 -45 -161 -45q-127 0 -216.5 90t-89.5 217q0 85 41.5 155.5t111.5 110.5q3 75 30.5 143.5t75.5 121.5l-180 126q-23 16 -49 4q-25 -11 -30 -38l-45 -271l-272 -46q-27 -4 -38 -30q-10 -24 6 -49l158 -226l-158 -228
q-16 -24 -6 -49q11 -25 38 -30l272 -45l45 -272q5 -27 31 -39q25 -10 49 6l226 158l226 -158q26 -16 50 -6zM665 665q67 0 119 38q-3 13 -9 41q-91 36 -157 109t-92 167q-65 -61 -65 -149q0 -85 60 -145.5t144 -60.5zM887 1548q27 18 33.5 49.5t-11.5 57.5l-102 154
q-17 27 -48.5 33t-58.5 -12q-26 -17 -32.5 -48.5t10.5 -58.5l103 -153q18 -26 49 -32.5t57 10.5zM1195 1548q27 17 32.5 49t-12.5 58l-102 154q-17 27 -48 33t-58 -12q-26 -17 -32 -48.5t11 -58.5l102 -153q18 -26 49.5 -32.5t57.5 10.5zM1501 1548q27 18 33.5 49.5
t-11.5 57.5l-102 154q-17 27 -48.5 33t-58.5 -12q-26 -17 -32 -48.5t11 -58.5l102 -153q18 -26 49 -32.5t57 10.5zM1809 1548q27 18 33 49.5t-12 57.5l-103 154q-17 27 -48 33t-58 -12q-26 -17 -32 -48.5t11 -58.5l102 -153q18 -26 49.5 -32.5t57.5 10.5zM2047 1177
q0 106 -75 181t-181 75h-870q-127 0 -217 -89.5t-90 -217.5q0 -114 73 -199t183 -104v-4q0 -127 90 -217t217 -90q83 0 152.5 40t110.5 108q67 -46 146 -46q106 0 181.5 76t75.5 181q0 29 -6 54q91 17 150.5 88t59.5 164z" />
</svg>