<svg xmlns="http://www.w3.org/2000/svg" xmlns:xlink="http://www.w3.org/1999/xlink" version="1.1" viewBox="-10 0 2068 2048">
   <path fill="currentColor"
d="M1024.5 256q-155.5 0 -298 61t-245.5 163.5t-164 245t-61 298.5t61 298.5t164 245.5t245.5 164t297.5 61q53 0 90.5 37.5t37.5 90t-37.5 90t-90.5 37.5q-139 0 -271.5 -37t-245 -102.5t-207 -160t-160.5 -207t-103 -245.5t-37 -272t37 -272t103 -245.5t160.5 -207
t207 -160t245 -102.5t272 -37t272 37t244.5 102.5t206.5 160t160.5 207t103 245.5t37 272v128q0 104 -51.5 192.5t-139.5 140t-193 51.5q-85 0 -162 -36.5t-130 -99.5q-70 65 -159 100.5t-189 35.5q-104 0 -198.5 -40.5t-163 -109t-109.5 -163.5t-41 -199t41 -199
t109.5 -163.5t163 -109t198.5 -40.5q166 0 298 96q37 -32 86 -32q53 0 90.5 38t37.5 90v320v128q0 52 38 90t90.5 38t90 -37.5t37.5 -90.5v-128q0 -156 -61 -298.5t-164 -245t-245 -163.5t-297.5 -61zM1280 1024q0 -106 -75 -180.5t-180.5 -74.5t-181 74.5t-75.5 180.5
t75.5 181t181 75t180.5 -75t75 -181z" />
</svg>