<svg xmlns="http://www.w3.org/2000/svg" xmlns:xlink="http://www.w3.org/1999/xlink" version="1.1" viewBox="-10 0 2068 2048">
   <path fill="currentColor"
d="M956 410h-342v306l205 206h356zM1423 982h1q6 14 7 21q2 14 2 23v100h204v-169q0 -72 45 -128l183 -228q28 -33 69.5 -37.5t75 22.5t37.5 68.5t-23 74.5l-182 228v272v265l175 174q30 30 30 72.5t-30 72.5t-72.5 30t-72.5 -30l-174 -175q-61 -61 -61 -144v-163h-137
q35 75 35 154q0 97 -47.5 179.5t-130 130.5t-180.5 48h-818q-97 0 -179.5 -48t-131 -130.5t-48.5 -179.5q0 -106 56 -193.5t148 -130.5v-341q0 -42 31 -73t72 -31h103v-358q0 -64 45 -108.5t108 -44.5h393q62 0 113 34t75 90zM1177 1331h-818q-63 0 -109 45t-46 109
t46 108.5t109 44.5h818q64 0 108.5 -44.5t44.5 -108.5t-44.5 -109t-108.5 -45zM461 1485q0 31 -22.5 53.5t-54 22.5t-54.5 -22.5t-23 -53.5t23 -54t54.5 -23t54 23t22.5 54zM1151.5 1561q-31.5 0 -54 -22.5t-22.5 -54t22.5 -54t54 -22.5t54 23t22.5 54t-22.5 53.5t-54 22.5z
M972 1484.5q0 31.5 -22 54t-53.5 22.5t-54.5 -22.5t-23 -53.5t23 -54t54.5 -23t53.5 22.5t22 54zM639.5 1561q-31.5 0 -54 -22.5t-22.5 -54t22.5 -54t54 -22.5t54 23t22.5 54t-22.5 53.5t-54 22.5z" />
</svg>