<svg xmlns="http://www.w3.org/2000/svg" xmlns:xlink="http://www.w3.org/1999/xlink" version="1.1" viewBox="-10 0 2068 2048">
   <path fill="currentColor"
d="M499 260q17 -34 53 -48t73 -1l400 146l399 -146q37 -13 72.5 1t53.5 48l253 489q67 135 30.5 276t-154.5 225l100 277l132 -49q39 -14 77.5 4t53 58t-3.5 78.5t-57 52.5l-228 83l-228 83q-40 15 -78 -3.5t-52 -58.5q-15 -40 3 -78t58 -52l131 -49l-101 -276
q-95 8 -182 -27.5t-149.5 -108t-83.5 -168.5l-46 -207l-47 207q-22 96 -84.5 168.5t-150 108t-181.5 27.5l-100 276l131 49q40 14 58 52t3 78t-53.5 58.5t-77.5 3.5l-228 -83l-226 -83q-40 -15 -58.5 -53.5t-3.5 -77.5q15 -40 53.5 -58t78.5 -3l130 48l101 -276
q-78 -55 -122 -139.5t-45 -177.5t44 -185zM639 434l-86 169l285 104l41 -185zM1409 434l-240 88l43 185l285 -104z" />
</svg>