<svg xmlns="http://www.w3.org/2000/svg" xmlns:xlink="http://www.w3.org/1999/xlink" version="1.1" viewBox="-10 0 2058 2048">
   <path fill="currentColor"
d="M512 256v710q37 -6 64 -6h63v-128v-576q0 -27 -18.5 -45.5t-44.5 -18.5t-45 18.5t-19 45.5zM576 1152q-52 0 -90 37.5t-38 90.5v96q0 98 38 187t102.5 153t153 102t186.5 38h192q156 0 280 -89.5t173 -232.5q-12 2 -37 2q-59 0 -110.5 -25.5t-88.5 -68.5q-54 30 -121 30
q-92 0 -161 -56q-69 56 -159 56h-160q-40 0 -68.5 -28t-28.5 -67.5t28.5 -68t68.5 -28.5h160q26 0 45 -19t19 -45.5t-19 -45t-45 -18.5h-160h-160zM256 1280q0 -108 64 -192v-832q0 -106 75 -181t181 -75t181 75t75 181v328q34 -8 64 -8q75 0 137 39t93 105q41 -16 90 -16
q58 0 110 25t89 69q54 -30 121 -30q106 0 181 75t75 181v256v96q0 138 -53 262t-143.5 214t-214.5 143t-261 53h-192q-137 0 -261 -53t-214.5 -143t-143.5 -214t-53 -262v-96zM1600 1024q0 -27 -19 -45.5t-45 -18.5t-45.5 18.5t-19.5 45.5v192v64q0 26 19.5 45t45.5 19
t45 -19t19 -45v-256zM896 960q30 0 64 8v-8v-128q0 -26 -19 -45t-45 -19t-45 19t-19 45v128h64zM1152 1056v160q0 26 19 45t45 19t45 -19t19 -45v-192v-64q0 -27 -19 -45.5t-45 -18.5t-45 18.5t-19 45.5v96z" />
</svg>