<svg xmlns="http://www.w3.org/2000/svg" xmlns:xlink="http://www.w3.org/1999/xlink" version="1.1" viewBox="-10 0 2067 2048">
   <path fill="currentColor"
d="M1476 66q66 -66 160 -66t160 66l185 185q66 66 66 160t-66 160l-225 224l-504 -504zM1152 374l522 521l-11 38l-175 580q-18 61 -61.5 106.5t-103.5 64.5l-1065 357q-34 12 -69.5 4t-61.5 -34l620 -619q40 19 83 19q80 0 136.5 -56.5t56.5 -137t-56 -137t-136.5 -56.5
t-137 56.5t-56.5 136.5q0 48 18 85l-618 617q-25 -25 -33 -59.5t3 -69.5l357 -1066q20 -59 65 -103t105 -62l581 -175z" />
</svg>