<svg xmlns="http://www.w3.org/2000/svg" xmlns:xlink="http://www.w3.org/1999/xlink" version="1.1" viewBox="-10 0 2068 2048">
   <path fill="currentColor"
d="M342 114h1136q48 0 81 33.5t33 80.5v341h-796q-94 0 -161 67t-67 161v114h-340v-683q0 -47 33 -80.5t81 -33.5zM796 683h1138q47 0 80.5 33.5t33.5 80.5v682q0 47 -33.5 80.5t-80.5 33.5h-682v-455q0 -94 -67 -160.5t-161 -66.5h-342v-114q0 -47 33 -80.5t81 -33.5z
M1648 911q-23 0 -39.5 17t-16.5 40v113q0 23 16.5 40t39.5 17h116q23 0 39.5 -17t16.5 -40v-113q0 -23 -16.5 -40t-39.5 -17h-116zM114 1024h910q48 0 81 33.5t33 80.5v46l-552 408q-7 6 -18 6q-9 0 -16 -6l-552 -408v-46q0 -47 33 -80.5t81 -33.5zM1138 1326v495
q0 47 -33 80t-81 33h-910q-48 0 -81 -33t-33 -80v-495l484 358q38 28 84 28q49 0 86 -28z" />
</svg>