<svg xmlns="http://www.w3.org/2000/svg" xmlns:xlink="http://www.w3.org/1999/xlink" version="1.1" viewBox="-10 0 2068 2048">
   <path fill="currentColor"
d="M1023.5 206q139.5 0 272 29t245 82t207 128.5t160.5 165t103 195.5t37 217.5t-37 217.5t-103 196t-160.5 165.5t-207 128.5t-245 82t-272 29t-272 -29t-244.5 -82t-206.5 -128.5t-160.5 -165.5t-103 -196t-37 -217.5t37 -217.5t103 -195.5t160.5 -165t206.5 -128.5
t244.5 -82t272 -29zM712 1510q163 -1 270.5 -60t159.5 -164q-100 -19 -165 -95t-65 -177q0 -114 82.5 -196t197.5 -82q34 0 62 8l6 -24q21 -126 -48 -197t-236 -71h-488l-282 1064zM1280 844l-36 136l-54 -136h-114l-98 332h138l28 -132l42 132h130l80 -332h-116zM1812 1510
l78 -306h-380l194 -752h-338l-78 302q82 29 133 100t51 160q0 114 -82 195t-198 81q-22 0 -42 -2l-58 222h720zM746 1072q49 0 75.5 26.5t12.5 83.5q-8 30 -22.5 50.5t-34.5 30.5t-38.5 13.5t-44.5 3.5h-90l50 -208h92zM822 710q5 0 13 -1q15 0 22 0.5t19 1t17.5 2t13.5 4.5
t11.5 8t6.5 11.5t2 16t-3 21.5q-11 42 -54 76t-90 34h-78l44 -174h76z" />
</svg>