<svg xmlns="http://www.w3.org/2000/svg" xmlns:xlink="http://www.w3.org/1999/xlink" version="1.1" viewBox="-10 0 2068 2048">
   <path fill="currentColor"
d="M0 1569q0 55 56 55h1938q54 0 54 -55v-130h-2048v130zM1994 424h-1938q-56 0 -56 54v797h2048v-797q0 -54 -54 -54zM1028.5 1204q-147.5 0 -252.5 -103q-104 -103 -104 -249q0 -147 105 -252t252 -105t252 105t105 252q0 146 -106 249q-104 103 -251.5 103zM776 675
q-20 0 -20 21v80q0 21 20 21h22q4 0 4 4v265q0 21 20 21h404q20 0 20 -21v-265l4 -4h22q20 0 20 -21v-80q0 -21 -20 -21h-496zM1166 902q-29 29 -108 -25q-15 8 -26 8h-16q-11 0 -26 -8q-79 54 -108 25q-8 -4 -6 -29q0 -7 0.5 -14t1 -11t0.5 -5q0 -3 -2 -23q-1 -4 -1.5 -8.5
t-0.5 -7v-3.5q0 -84 120 -12q6 -5 22 -5h16q16 0 22 5q122 -72 122 12q0 1 -0.5 3.5t-1 7t-0.5 8.5q-2 20 -2 23v5t0.5 11t1.5 14q1 25 -8 29z" />
</svg>