<svg xmlns="http://www.w3.org/2000/svg" xmlns:xlink="http://www.w3.org/1999/xlink" version="1.1" viewBox="-10 0 2068 2048">
   <path fill="currentColor"
d="M2048 292v1464q0 121 -86 206.5t-206 85.5h-1464q-120 0 -206 -85.5t-86 -206.5v-1464q0 -121 86 -206.5t206 -85.5h1464q120 0 206 85.5t86 206.5zM292 1024q0 93 36.5 178t98 146t146.5 97t177 36q131 0 230.5 -57t153.5 -158t54 -231q0 -46 -6 -77h-432v158h260
q-3 22 -13 46.5t-31 52t-49 49t-71.5 36t-95.5 14.5q-117 0 -199.5 -85t-82.5 -205t82.5 -204.5t199.5 -84.5q109 0 182 71l124 -120q-125 -119 -306 -119q-92 0 -177 36t-146.5 97t-98 146t-36.5 178zM1624 1107h132v-134h-132v-132h-134v132h-134v134h134v132h134v-132z
" />
</svg>