<svg xmlns="http://www.w3.org/2000/svg" xmlns:xlink="http://www.w3.org/1999/xlink" version="1.1" viewBox="-10 0 2068 2048">
   <path fill="currentColor"
d="M910 228v226q0 48 33 81t80.5 33t81 -33t33.5 -81v-226h266q71 0 130 41t84 109l418 1184q12 34 12 64q0 80 -57 137t-137 57h-716v-228q0 -47 -33.5 -80.5t-81 -33.5t-80.5 33.5t-33 80.5v228h-716q-80 0 -137 -57t-57 -137q0 -33 12 -64l418 -1184q23 -67 82.5 -108.5
t131.5 -41.5h266zM1138 910q0 -47 -33.5 -80.5t-81 -33.5t-80.5 33.5t-33 80.5v228q0 47 33 80.5t80.5 33.5t81 -33.5t33.5 -80.5v-228z" />
</svg>