<svg xmlns="http://www.w3.org/2000/svg" xmlns:xlink="http://www.w3.org/1999/xlink" version="1.1" viewBox="-10 0 2068 2048">
   <path fill="currentColor"
d="M794 1334.5q0 35.5 -9 74.5t-27 76t-49 60.5t-70.5 23.5t-71 -23.5t-49.5 -60.5t-27 -76t-9 -74.5t9 -74.5t27 -76t49.5 -61t71 -24t70.5 24t49 61t27 76t9 74.5zM2048 1119q0 254 -74 405q-26 52 -63.5 95.5t-77 74.5t-95 55t-101 40t-113 27t-112.5 16t-118.5 8
t-112 3.5t-109.5 -0.5h-22h-33q-73 1 -112.5 0.5t-115 -3.5t-122 -8t-116 -16t-116.5 -26.5t-104.5 -40t-98 -55.5t-79.5 -74t-65 -96q-88 -174 -88 -405q0 -279 178 -486q-34 -100 -34 -208q0 -63 14 -106.5t50 -114.5q146 0 249.5 34t212.5 120q184 -43 380 -43
q177 0 342 40q109 -84 212 -117.5t248 -33.5q36 70 49 114t13 107q0 107 -32 206q166 196 166 488zM1774 1334q0 -70 -21.5 -133.5t-60 -112.5t-99 -78t-133.5 -29q-23 0 -45.5 1.5t-51.5 5t-43.5 5.5t-52 7.5t-45.5 6.5q-93 13 -194 13q-99 0 -192 -13q-9 -1 -38.5 -5.5
t-41.5 -6.5t-37.5 -5t-42 -4.5t-38 -3t-40.5 -1.5q-73 0 -133.5 29t-99 78t-60 112.5t-21.5 133.5q0 78 20.5 142t54.5 108t84.5 77.5t104 53t121 31.5t127.5 16t130 4h206q70 0 130 -4t127.5 -15.5t121 -31.5t104 -53t84.5 -77.5t54.5 -108t20.5 -142.5zM1421.5 1099
q39.5 0 70.5 24t49 61t27.5 76t9.5 74.5t-9.5 74.5t-27.5 76t-49 60.5t-70.5 23.5t-71 -23.5t-49.5 -60.5t-27.5 -76t-9.5 -74.5t9.5 -74.5t27.5 -76t49.5 -61t71 -24z" />
</svg>