<svg xmlns="http://www.w3.org/2000/svg" xmlns:xlink="http://www.w3.org/1999/xlink" version="1.1" viewBox="-10 0 2068 2048">
   <path fill="currentColor"
d="M1707 57q58 -58 140 -56.5t140.5 60t59.5 140.5t-56 140q-28 27 -100.5 51t-133 36t-119.5 20q-18 2 -29 -9t-9 -28q41 -289 107 -354zM301 301q163 -164 376.5 -241t435 -57.5t416.5 130.5q-14 44 -17 58q-9 37 -29 139q-161 -107 -350 -131.5t-373 37t-324 201.5
t-201 324t-35.5 373t131.5 350q-102 19 -141 29q-18 4 -56 16q-111 -195 -130 -416.5t57.5 -435t239.5 -376.5zM1858 536q21 -5 57 -16q110 194 129 415.5t-57 435t-239 377t-377 240t-435.5 57t-415.5 -129.5q12 -38 16 -56q7 -30 29 -141q160 106 349 131.5t373.5 -35.5
t324.5 -201t201 -324.5t35.5 -374t-131.5 -349.5q101 -20 141 -29zM1437 908q19 -32 52 -44t62 1.5t37 49.5q29 136 -11.5 274t-145.5 242.5t-242.5 145.5t-273.5 12q-36 -8 -50 -37t-2 -62.5t44 -52.5q159 -100 295 -235q137 -138 235 -294zM369 1061l389 -118
q35 -11 60.5 14.5t15.5 61.5l-118 389q-9 26 -35 32.5t-45 -12.5q-13 -13 -14 -30l-20 -224l-224 -20q-18 -2 -29 -13q-19 -19 -13 -45.5t32 -34.5h1zM1140 349q12 12 14 29l21 224l224 21q16 1 29 14q18 18 11.5 44t-31.5 35l-389 118q-35 10 -61 -15.5t-15 -60.5l119 -390
q8 -27 33.5 -33t45.5 14h-1zM60.5 1988.5q-58.5 -58.5 -60 -141t56.5 -140.5q27 -28 100 -52t132.5 -35t120.5 -19q17 -3 28.5 8.5t9.5 29.5q-42 288 -106 353q-58 57 -140.5 56t-141 -59.5z" />
</svg>