<svg xmlns="http://www.w3.org/2000/svg" xmlns:xlink="http://www.w3.org/1999/xlink" version="1.1" viewBox="-10 0 2068 2048">
   <path fill="currentColor"
d="M666 1112h744v175h-744v-175zM1748 300q-292 -300 -724 -300q-425 0 -720 300q-304 304 -304 724q0 421 304 721q301 303 720 303q417 0 732 -303q292 -301 292 -721q0 -433 -300 -724zM1622 1611q-257 250 -598 250q-343 0 -592 -250q-244 -241 -244 -587
q0 -341 248 -591q232 -245 588 -245q354 0 594 245q242 237 242 591q0 350 -238 587zM666 783h744v175h-744v-175z" />
</svg>