<svg xmlns="http://www.w3.org/2000/svg" xmlns:xlink="http://www.w3.org/1999/xlink" version="1.1" viewBox="-10 0 2068 2048">
   <path fill="currentColor"
d="M292 0h1464q120 0 206 85.5t86 206.5v1464q0 121 -86 206.5t-206 85.5h-1464q-120 0 -206 -85.5t-86 -206.5v-1464q0 -121 86 -206.5t206 -85.5zM1398 614q70 0 120 -50t50 -120.5t-50 -120t-120 -49.5q-62 0 -108.5 38.5t-59.5 97.5q-104 11 -174 89t-70 184v2
q-225 9 -396 116q-66 -51 -146 -51q-99 0 -169.5 70.5t-70.5 169.5q0 72 38 130t100 87q3 102 58 194.5t146 159.5t216 106.5t262.5 39.5t262.5 -39.5t215.5 -106.5t145.5 -160t58 -195q61 -29 99.5 -87.5t38.5 -128.5q0 -99 -70.5 -169.5t-169.5 -70.5q-79 0 -146 50
q-174 -108 -400 -115v-2q0 -76 49.5 -132t124.5 -67q12 57 59 94t107 37v-1zM708.5 988q50.5 0 84 46t31.5 111q-6 118 -122 118q-55 0 -89.5 -30t-32.5 -91q3 -65 40.5 -109.5t88 -44.5zM1470 1140q2 61 -33 92t-89 31q-116 0 -122 -119q-2 -65 31 -111t83 -46q51 0 89 44
t41 109zM1276 1368q-31 75 -98.5 121t-151.5 46q-85 0 -153.5 -46t-100.5 -121q-3 -9 2 -17.5t14 -9.5q115 -11 238 -11q121 0 236 11q9 1 13.5 9.5t0.5 17.5z" />
</svg>