<svg xmlns="http://www.w3.org/2000/svg" xmlns:xlink="http://www.w3.org/1999/xlink" version="1.1" viewBox="-10 0 2058 2048">
   <path fill="currentColor"
d="M1309 1769q35 0 58.5 23.5t23.5 58t-24 59t-58.5 24.5t-58.5 -24.5t-24 -59t24 -58t59 -23.5zM1820 1095q163 239 163 506q0 219 -65 395q-10 27 -34.5 41.5t-49.5 9.5q-23 -5 -35.5 -27.5t-4.5 -44.5q68 -175 68 -374q0 -74 -12 -130q-3 7 -9 15q-59 84 -164.5 114
t-222.5 -5q-185 -52 -380.5 -44.5t-380.5 66t-318 155.5l112 -339l-214 273q17 129 72 243q32 69 -17 91q-13 6 -27 6.5t-32 -9t-30 -30.5q-44 -78 -67 -171l-107 136v-154q0 -58 0.5 -88.5t3 -89t7 -95.5t14.5 -94.5t24 -100t36 -97.5t49.5 -101t66 -97t85.5 -98
q94 -94 212 -162l-41 -2q-95 -5 -159 -75t-59 -163l11 -167q0 -18 14 -59q43 -126 168 -148q24 -4 50 -4h3h2.5h4t6.5 0.5t11 1t16 1t23 1t30.5 1.5t40.5 2.5t51 3.5q7 0 20 3t17 4q26 -41 111 -160l26 -35l104 62q-53 113 -43 160q65 -2 148 26q108 36 176.5 129.5
t68.5 210.5q0 72 -26 136q43 15 85 34q77 34 147 82.5t119.5 98.5t80.5 87.5t51 68.5zM652 441q12 -41 32 -87l-134 -8q-48 0 -58 41q-2 5 -2 11l-11 167v2q0 22 16 39t38 18l102 6q-3 -26 -3 -52t1 -38l-59 -4l6 -99zM1330 1228q16 -11 16 -34q0 -18 -9 -28l-370 -439
q-14 -16 -35 -16q-15 0 -30 10q-17 12 -17 34q0 16 8 26l86 102l-77 61q-14 12 -14 27q0 10 8 20q11 14 17 21q10 12 26 12q14 0 22 -7l78 -62l65 76l-159 124q-12 10 -12 27q0 11 7 20l72 86q11 13 27 13q14 0 24 -8l157 -123l44 52q14 16 36 16q15 0 30 -10zM857.5 1769
q34.5 0 58.5 23.5t24 58t-24 59t-58.5 24.5t-58 -24t-23.5 -59t23.5 -58.5t58 -23.5z" />
</svg>