<svg xmlns="http://www.w3.org/2000/svg" xmlns:xlink="http://www.w3.org/1999/xlink" version="1.1" viewBox="-10 0 2058 2048">
   <path fill="currentColor"
d="M1823 1023l-51 630q-2 33 -17.5 58.5t-38 37t-49 15.5t-52 -4.5t-46 -24t-31.5 -42.5t-9 -60l40 -489l-164 8q63 129 63 274q0 121 -44 230.5t-125 195.5l-157 -157q57 -62 83 -138t21.5 -149t-35 -142.5t-81.5 -122t-125 -84.5t-159 -32q-76 0 -145.5 27.5t-123.5 76.5
l-157 -158q140 -130 325 -161l301 -342l-170 -100l-207 184q-24 22 -52.5 29t-52.5 0t-46 -22t-34.5 -38.5t-16.5 -48.5t6.5 -52.5t34.5 -49.5l272 -243q29 -26 69 -30t73 16q557 323 558 324q50 31 58.5 96.5t-34.5 115.5l-233 265l424 -24q56 -3 94.5 36.5t33.5 94.5z
M1564 407q-85 0 -144.5 -59t-59.5 -144t60 -144.5t144.5 -59.5t143.5 59.5t59 144.5t-59 144t-144 59zM846 1826q122 0 224 -69l159 159q-98 77 -214 109t-225.5 20.5t-213.5 -61t-181 -128.5t-124 -191t-47 -239q0 -106 35 -204.5t98 -178.5l159 159q-43 64 -59.5 137
t-6.5 141t43.5 132t83.5 111t120.5 75t148.5 28z" />
</svg>