<svg xmlns="http://www.w3.org/2000/svg" xmlns:xlink="http://www.w3.org/1999/xlink" version="1.1" viewBox="-10 0 2068 2048">
   <path fill="currentColor"
d="M238 1401q-130 -114 -158 -311l-78 -526q-7 -56 16 -90q17 -23 40.5 -46.5t69 -54.5t101.5 -57t143.5 -51t190 -40.5t193.5 -17.5t152 6.5t113.5 25t81 32t51.5 32.5l8 7q-210 20 -330 112q-69 52 -82 147l-60 420q-4 0 -8.5 0.5t-9.5 1.5t-8 1q-84 13 -143 72t-75 140
q-4 20 13.5 28t32.5 -5q77 -62 176 -82q-17 205 82 364q28 46 78 113q-38 12 -58 15q-66 10 -141 -8t-146.5 -57t-129.5 -80.5t-115 -90.5zM520 698q-40 28 -86 35q-48 8 -92 -8q-13 -4 -24 3t-10 19q0 1 1 2t1 2q7 52 49 84t93 24.5t82.5 -50.5t23.5 -95v-2.5v-2.5
q-3 -12 -15.5 -15.5t-22.5 4.5zM838 1455q-91 -144 -62 -345l76 -526q8 -55 42 -81q22 -17 51 -32.5t81.5 -32t114 -24.5t152 -6t193 17.5t190 41t143.5 51.5t101.5 57t69 54.5t40.5 46.5q23 34 16 89l-78 526q-13 93 -53.5 173t-106.5 137q-56 50 -114 91t-129.5 80.5
t-146 57.5t-140.5 8q-54 -8 -109 -36.5t-100 -66.5t-90 -88.5t-77.5 -96t-63.5 -95.5zM1296 959q10 8 22 5.5t14 -15.5q0 -1 1 -3t1 -3q8 -51 -23.5 -93.5t-83 -50t-93.5 24t-50 82.5v5q-1 13 10 19t24 2q42 -14 92 -7q48 8 86 34zM1730 1009q0 -1 1 -2.5t1 -2.5
q7 -52 -24 -94.5t-82 -50.5q-51 -7 -93 24.5t-49 82.5q0 1 -1 2.5t-1 2.5q-1 13 10 19.5t24 2.5q44 -15 90 -8q47 8 86 35q11 8 23.5 5t14.5 -16zM1696 1328v-1q9 -18 -6.5 -30.5t-33.5 -4.5q-143 65 -304 41q-159 -24 -278 -129q-16 -13 -34 -6t-16 27q15 118 97.5 205
t200.5 105q120 18 224 -40.5t150 -166.5z" />
</svg>