<svg xmlns="http://www.w3.org/2000/svg" xmlns:xlink="http://www.w3.org/1999/xlink" version="1.1" viewBox="-10 0 2068 2048">
   <path fill="currentColor"
d="M2048 292v1464q0 121 -86 206.5t-206 85.5h-1464q-120 0 -206 -85.5t-86 -206.5v-1464q0 -121 86 -206.5t206 -85.5h1464q120 0 206 85.5t86 206.5zM828 1887q133 0 209.5 -72.5t76.5 -217.5v-657h-192v655q0 68 -26 94t-78 26q-24 0 -42.5 -7t-33.5 -23t-24 -29.5
t-24 -38.5l-156 94q38 80 110 128t180 48zM1220 1691q44 89 133 142.5t217 53.5q140 0 229 -70.5t89 -196.5q0 -59 -16.5 -105t-51 -81.5t-78.5 -62t-110 -54.5l-48 -21q-67 -29 -92.5 -52.5t-25.5 -64.5q0 -36 25.5 -59t66.5 -23q43 0 71.5 19t52.5 63l150 -96
q-46 -81 -112.5 -117.5t-161.5 -36.5q-126 0 -203 72t-77 183q0 57 15.5 102.5t47.5 79.5t71.5 58.5t95.5 48.5l48 21q33 14 49.5 22t37.5 20.5t30.5 23.5t16 27t6.5 35q0 42 -35.5 68.5t-94.5 26.5q-119 0 -190 -117z" />
</svg>