<svg xmlns="http://www.w3.org/2000/svg" xmlns:xlink="http://www.w3.org/1999/xlink" version="1.1" viewBox="-10 0 2068 2048">
   <path fill="currentColor"
d="M38 676h168l154 427l150 -427h164l48 698h-166l-18 -283l-92 283h-164l-102 -291l-20 291h-160zM1062 676q7 0 19 1t47.5 8.5t67.5 19.5t71 38.5t67.5 62t48.5 92.5t21 127q0 57 -11.5 105t-31 81.5t-45 60.5t-54 43.5t-57 28.5t-54.5 17.5t-46 8.5t-32 4h-11h-174v-698
h174zM1056 1210q4 0 10.5 -1.5t24.5 -6.5t34 -13t36 -23t34 -33.5t23.5 -47.5t9 -63.5t-10.5 -63.5t-25 -47.5t-33 -32.5t-36 -21.5t-33 -12t-24 -5.5l-10 -1v372zM1924 939q5 2 13.5 6t29.5 20t37.5 36.5t30 57.5t13.5 81q0 51 -17.5 91.5t-45.5 64.5t-62 40.5t-68 23.5
t-62 10.5t-45 2.5h-18h-166v-699h190h9.5t26 2t37 6t40 13.5t39.5 22t30.5 33.5t17.5 48q2 10 2 31q0 58 -32 109zM1736 823v78h44q2 -2 5 -6t7.5 -15.5t1.5 -22.5q-4 -18 -18.5 -26.5t-27.5 -7.5h-12zM1736 1222q6 1 16 1.5t36 -1.5t45.5 -8.5t36 -24t16.5 -43.5
q1 -28 -14.5 -46.5t-37.5 -25.5t-44 -9.5t-38 -1.5l-16 1v67v91z" />
</svg>