<svg xmlns="http://www.w3.org/2000/svg" xmlns:xlink="http://www.w3.org/1999/xlink" version="1.1" viewBox="-10 0 2068 2048">
   <path fill="currentColor"
d="M150 309q7 -15 23 -23t33 -6l818 102l818 -102q17 -2 32.5 6t22.5 23l139 279q22 45 1.5 91.5t-68.5 59.5l-546 156q-34 11 -68.5 -2.5t-52.5 -45.5l-278 -465l-279 465q-18 32 -52 45.5t-69 2.5l-546 -156q-48 -13 -68 -59.5t2 -91.5zM1028 596l183 306q38 63 105 89.5
t137 5.5l427 -121v559q0 55 -34 98.5t-88 56.5l-682 171q-52 14 -104 0l-682 -171q-54 -13 -88 -57t-34 -99v-558l426 121q70 21 138 -5.5t105 -89.5l183 -306h8z" />
</svg>