<svg xmlns="http://www.w3.org/2000/svg" xmlns:xlink="http://www.w3.org/1999/xlink" version="1.1" viewBox="-10 0 2068 2048">
   <path fill="currentColor"
d="M2048 1665q0 106 -75.5 180.5t-180.5 74.5h-1536q-105 0 -180.5 -74.5t-75.5 -180.5v-1281q0 -106 75.5 -181t180.5 -75h512q60 0 114.5 27t91.5 75l76 103q37 51 102 51h640q105 0 180.5 75t75.5 181v1025zM928 1504q0 40 28.5 68.5t68 28.5t67.5 -28.5t28 -68.5v-255
h256q39 0 67.5 -28.5t28.5 -68.5t-28.5 -68t-67.5 -28h-256v-256q0 -40 -28 -68t-67.5 -28t-68 28t-28.5 68v256h-256q-39 0 -67.5 28t-28.5 68t28.5 68.5t67.5 28.5h256v255z" />
</svg>