<svg xmlns="http://www.w3.org/2000/svg" xmlns:xlink="http://www.w3.org/1999/xlink" version="1.1" viewBox="-10 0 2068 2048">
   <path fill="currentColor"
d="M292 0h1464q120 0 206 85.5t86 206.5v1464q0 121 -86 206.5t-206 85.5h-1464q-120 0 -206 -85.5t-86 -206.5v-1464q0 -121 86 -206.5t206 -85.5zM586 292h-294v292h294v294h-294v292h294v292h-294v294h294v-294h292v294h292v-294h294v294h292v-294h-292v-292h292v-292
h-292v-294h292v-292h-292v292h-294v-292h-292v292h-292v-292zM878 878v-294h292v294h-292zM878 1170h-292v-292h292v292zM1170 1170v292h-292v-292h292zM1170 1170v-292h294v292h-294z" />
</svg>