<svg xmlns="http://www.w3.org/2000/svg" xmlns:xlink="http://www.w3.org/1999/xlink" version="1.1" viewBox="-10 0 2068 2048">
   <path fill="currentColor"
d="M716.5 205q111.5 0 206 54.5t149 149t54.5 205.5t-54.5 205.5t-149 149.5t-206 55t-205.5 -55t-148.5 -149.5t-54.5 -205.5t54.5 -205.5t148.5 -149t205.5 -54.5zM570 1177h294q98 0 188 32q-28 87 -28 173q0 141 64.5 262t175.5 199h-1168q-40 0 -68 -27.5t-28 -67.5
q0 -116 45.5 -221.5t121.5 -182t181.5 -122t221.5 -45.5zM1126 1382q0 -94 36.5 -179t98.5 -146.5t147 -98t178.5 -36.5t179 36.5t147 98t98.5 146.5t37 179t-37 179t-98.5 147t-147 98.5t-179 36.5t-178.5 -36.5t-147 -98.5t-98.5 -147t-36.5 -179zM1587 1126q-21 0 -36 15
t-15 36v205q0 21 15 36t35 15h154q22 0 37 -15t15 -36t-15 -36t-37 -15h-102v-154q0 -21 -15 -36t-36 -15z" />
</svg>