<svg xmlns="http://www.w3.org/2000/svg" xmlns:xlink="http://www.w3.org/1999/xlink" version="1.1" viewBox="-10 0 2068 2048">
   <path fill="currentColor"
d="M640 576q-105 0 -180.5 -75t-75.5 -180.5t75.5 -181t180.5 -75.5q95 0 164 60q34 -56 92.5 -90t127.5 -34t127.5 34t92.5 90q69 -60 164 -60q105 0 180.5 75.5t75.5 181t-75.5 180.5t-180.5 75q-90 0 -158 -54l-126 192q-37 54 -100.5 54t-99.5 -54l-128 -192
q-67 54 -156 54zM576 1408l194 -96q62 -32 132 -32q58 0 112.5 22.5t95.5 63.5l130 130q38 40 96 40q33 0 62.5 -16t47.5 -44l40 -58l-236 -266q-56 -64 -144 -64h-166q-86 0 -142 64l-242 270zM654 1026q54 -62 129 -96t157 -34h168q81 0 156 34t130 96l600 676
q54 59 54 138q0 86 -61.5 147t-148.5 61h-1628q-87 0 -148.5 -61.5t-61.5 -148.5q0 -78 54 -138l600 -676v2z" />
</svg>