<svg xmlns="http://www.w3.org/2000/svg" xmlns:xlink="http://www.w3.org/1999/xlink" version="1.1" viewBox="-10 0 2058 2048">
   <path fill="currentColor"
d="M1602 1082v1v24t5 45t14.5 63t30 71.5t49.5 77t76.5 73t106.5 65.5q-18 55 -48.5 121t-77 142t-98 137.5t-117 103t-128.5 42.5q-43 0 -88.5 -13t-79.5 -28.5t-83.5 -28.5t-97.5 -13q-50 0 -101 12.5t-85.5 28t-78.5 28.5t-82 14q-53 2 -108.5 -28t-104 -80.5t-93 -112
t-81 -128t-62 -123t-41.5 -101.5q-65 -194 -65 -372q0 -118 30.5 -218.5t81.5 -170.5t119 -120t142.5 -74t152.5 -25q53 0 126 22t134.5 44.5t88.5 22.5q20 0 67.5 -16.5t97.5 -35.5t117 -32.5t122 -9.5q259 21 386 205q-228 139 -227 387zM1343 331q-69 81 -150 122.5
t-168 34.5q-14 -180 117 -328q56 -64 142.5 -110t167.5 -50q2 23 2.5 39t-3.5 54.5t-14.5 71.5t-34.5 78.5t-59 87.5z" />
</svg>