<svg xmlns="http://www.w3.org/2000/svg" xmlns:xlink="http://www.w3.org/1999/xlink" version="1.1" viewBox="-10 0 2067 2048">
   <path fill="currentColor"
d="M1965 995q-12 19 -34 21t-39 -15l-645 -644q-16 -17 -14 -38.5t20 -34.5q130 -83 280 -83q105 0 200 40.5t164 109.5t109.5 164t40.5 200q0 154 -82 280zM1813 1147q-129 83 -280 83q-104 0 -199.5 -41t-164 -110t-109.5 -164t-41 -200q0 -154 82 -280q13 -19 35.5 -20.5
t38.5 15.5l643 644q17 16 15.5 38t-20.5 35zM959 1384q23 0 38.5 17.5t10.5 39.5q-37 176 -178 291t-324.5 115t-325 -115t-179.5 -291q-4 -22 11 -39.5t37 -17.5h910zM959 1281h-910q-22 0 -37 -17t-11 -39q38 -176 179.5 -291t325 -115t324.5 115t178 291q5 22 -10.5 39
t-38.5 17z" />
</svg>