<svg xmlns="http://www.w3.org/2000/svg" xmlns:xlink="http://www.w3.org/1999/xlink" version="1.1" viewBox="-10 0 2068 2048">
   <path fill="currentColor"
d="M2048 920q0 142 -82.5 269.5t-229.5 222.5l238 402h-396l-140 -266q-106 32 -244 48v218h-350v-220q-177 -20 -333.5 -81.5t-268.5 -149.5t-177 -203.5t-65 -239.5q0 -112 52 -217t147 -189t220.5 -147t282 -98t323 -35t322.5 35t282 98t220.5 147t146.5 189t52 217z
M404 972q0 137 121 251t319 171v-734h702q6 0 17.5 0.5t44.5 7t63.5 17.5t67 34.5t63 55t44.5 82t18 113t-16.5 114t-43.5 84.5t-59.5 58t-65.5 38t-60 21t-44 10l-17 1q64 20 100 38q14 6 22 12q248 -119 248 -374q0 -96 -37 -174t-103 -132.5t-159.5 -91.5t-205.5 -54.5
t-243 -17.5q-158 0 -301.5 37.5t-247.5 100t-165.5 149.5t-61.5 183zM1196 1106q27 0 64 1t59.5 2t51.5 0t46 -4t36 -10t29 -18.5t17 -29t7 -41.5q0 -19 -4 -34t-12.5 -26t-18.5 -18t-28 -11t-33.5 -6t-43 -2.5t-49 0t-57.5 1t-64 0.5v196zM1192 1362v78q90 0 178 -10
q-12 -20 -21.5 -31.5t-27 -24t-35.5 -12.5h-94z" />
</svg>