<svg xmlns="http://www.w3.org/2000/svg" xmlns:xlink="http://www.w3.org/1999/xlink" version="1.1" viewBox="-10 0 2058 2048">
   <path fill="currentColor"
d="M1536 0q105 0 193 51.5t139.5 140t51.5 192.5v1281q0 104 -51.5 192.5t-139.5 139.5t-193 51h-1152h-128q-52 0 -90 -38t-38 -90t38 -89.5t90 -37.5v-257q-52 0 -90 -38t-38 -90v-1280q0 -52 38 -90t90 -38h128h1152zM1536 1536h-1024v257h1024q53 0 90.5 -37.5
t37.5 -90.5t-37.5 -91t-90.5 -38zM684 833l54 95h-110zM628 736l-110 192q-19 32 -1 64t55 32h222l112 192q18 32 54.5 32t55.5 -32l110 -192h222q37 0 55.5 -32t0.5 -64l-112 -192l112 -192q18 -32 0 -64t-56 -32h-220l-112 -192q-19 -32 -55.5 -32t-54.5 32l-112 192h-222
q-36 0 -54.5 32t0.5 64zM738 736l110 -192h222l112 192l-112 192h-220zM738 544l-54 96l-58 -96h112zM906 448l54 -95l56 95h-110zM1182 544h110l-54 96zM1238 833l54 95h-110zM1016 1024l-56 96l-54 -96h110z" />
</svg>