<svg xmlns="http://www.w3.org/2000/svg" xmlns:xlink="http://www.w3.org/1999/xlink" version="1.1" viewBox="-10 0 2068 2048">
   <path fill="currentColor"
d="M1254 131q78 16 122 82.5t28 144.5l-8 45q-35 166 -116 301h576q79 0 135.5 56.5t56.5 135.5q0 55 -28 100.5t-76 70.5q72 59 72 149q0 70 -44 123.5t-112 65.5q28 48 28 99q0 64 -36.5 113.5t-95.5 68.5q4 18 4 43q0 80 -56.5 135.5t-135.5 55.5h-390q-115 0 -212 -65
l-156 -101q-80 -54 -125 -138.5t-45 -181.5v-154v-192v-99q0 -87 38 -166t106 -135l30 -23q79 -64 132 -150.5t72 -186.5l10 -46q16 -78 82 -122t144 -29zM128 769h256q52 0 90 37.5t38 89.5v897q0 53 -38 90t-90 37h-256q-52 0 -90 -37t-38 -90v-897q0 -52 38 -89.5
t90 -37.5z" />
</svg>