<svg xmlns="http://www.w3.org/2000/svg" xmlns:xlink="http://www.w3.org/1999/xlink" version="1.1" viewBox="-10 0 2067 2048">
   <path fill="currentColor"
d="M1535 968q93 0 172 -45.5t124.5 -124.5t45.5 -172t-45.5 -171.5t-124.5 -124t-172 -45.5t-171.5 46t-123.5 124h-187q54 -151 185.5 -246t296.5 -95q104 0 199 40.5t163.5 109t109 163.5t40.5 199t-40.5 199t-109 163.5t-163.5 109t-199 40.5q-144 0 -268 -76l126 -125
q67 31 142 31zM7 622q10 -24 31.5 -38.5t47.5 -14.5h1307q26 0 47.5 14.5t31.5 38.5t4.5 49.5t-23.5 43.5l-628 629v420h227q36 0 61 25t25 60t-25 60t-61 25h-313h-313q-35 0 -60 -25t-25 -60t25 -60t60 -25h228v-420l-629 -629q-18 -18 -23 -43.5t5 -49.5z" />
</svg>