<svg xmlns="http://www.w3.org/2000/svg" xmlns:xlink="http://www.w3.org/1999/xlink" version="1.1" viewBox="-10 0 2068 2048">
   <path fill="currentColor"
d="M256 1857h896q26 0 45 -19t19 -45v-257h192v257q0 106 -75.5 180.5t-180.5 74.5h-896q-105 0 -180.5 -74.5t-75.5 -180.5v-897q0 -106 75.5 -181t180.5 -75h256v193h-256q-26 0 -45 18.5t-19 44.5v897q0 26 19 45t45 19zM896 1216h896q26 0 45 -19t19 -45v-896
q0 -26 -19 -45t-45 -19h-896q-26 0 -45 19t-19 45v896q0 26 19 45t45 19zM640 1152v-896q0 -106 75.5 -181t180.5 -75h896q105 0 180.5 75t75.5 181v896q0 106 -75.5 181t-180.5 75h-896q-105 0 -180.5 -75t-75.5 -181z" />
</svg>