<svg xmlns="http://www.w3.org/2000/svg" xmlns:xlink="http://www.w3.org/1999/xlink" version="1.1" viewBox="-10 0 2058 2048">
   <path fill="currentColor"
d="M1485 1336q-129 81 -361 107l85 82l304 306q26 27 32 60.5t-5 62.5t-34.5 52.5t-52.5 34.5t-62 5t-60 -32q-154 -156 -305 -307l-305 305q-24 22 -52 30t-53.5 1.5t-49 -21t-38.5 -38t-21.5 -49t1.5 -53.5t32 -51q23 -24 129.5 -131.5t174.5 -174.5l82 -82
q-234 -26 -361 -108q-45 -29 -70.5 -47.5t-49 -41.5t-30.5 -43.5t-5.5 -46.5t17.5 -56q11 -23 31.5 -40t48 -25t64.5 2t75 40q6 4 17 12t48.5 28t78.5 35t105 27.5t129.5 12.5t129 -12t107 -29t77.5 -34t50 -28l17 -12q38 -30 74 -40t63.5 -2t47.5 25t32 40q15 30 16.5 56
t-5.5 46.5t-30 43.5t-48.5 42t-69.5 48zM506 519q0 -106 41 -202t110.5 -165.5t165.5 -110.5t201.5 -41t201.5 41t165.5 110.5t110.5 165.5t41 202q0 105 -41 201t-110.5 165t-165.5 110t-201.5 41t-201.5 -41t-165.5 -110t-110.5 -165t-41 -201zM770 519q0 105 74.5 180
t180 75t180 -74.5t74.5 -180.5q0 -107 -74.5 -182t-180 -75t-180 75t-74.5 182z" />
</svg>