<svg xmlns="http://www.w3.org/2000/svg" xmlns:xlink="http://www.w3.org/1999/xlink" version="1.1" viewBox="-10 0 2068 2048">
   <path fill="currentColor"
d="M0 512q0 -106 75.5 -181t180.5 -75h1076q103 0 198 40.5t163.5 109t109.5 163.5t41 199v512h102q42 0 72 30t30 72t-30.5 72.5t-71.5 30.5h-102h-922q0 127 -90 217t-217.5 90t-217 -90t-89.5 -217h-52q-105 0 -180.5 -75t-75.5 -181v-717zM1024 1280h410v-307h-102
q-22 0 -37 -15t-15 -36t15 -36t37 -15h102v-206q0 -42 -30 -72t-72 -30h-206q-42 0 -72 30t-30 72v615zM308 563q-43 0 -73.5 30t-30.5 72v206q0 42 30.5 72t73.5 30h408q43 0 73.5 -30t30.5 -72v-206q0 -42 -30.5 -72t-73.5 -30h-408zM614.5 1639q63.5 0 108.5 -45t45 -109
t-45 -109t-108.5 -45t-108 45t-44.5 109t44.5 109t108 45z" />
</svg>