<svg xmlns="http://www.w3.org/2000/svg" xmlns:xlink="http://www.w3.org/1999/xlink" version="1.1" viewBox="-10 0 2068 2048">
   <path fill="currentColor"
d="M1512 424l492 491q44 44 44 109q0 66 -44 110l-492 491q-40 40 -96 40t-96 -40.5t-40 -96.5v-248h-512q-52 0 -90 -38t-38 -90v-256q0 -52 38 -89.5t90 -37.5h512v-250q0 -56 40 -95.5t96 -39.5q54 0 96 40zM640 384h-256q-53 0 -90.5 37.5t-37.5 90.5v1024q0 53 37.5 91
t90.5 38h256q53 0 90.5 37.5t37.5 90t-37.5 90t-90.5 37.5h-256q-105 0 -193 -51.5t-139.5 -140t-51.5 -192.5v-1024q0 -104 51.5 -192.5t139.5 -140t193 -51.5h256q53 0 90.5 38t37.5 90t-37.5 90t-90.5 38z" />
</svg>