<svg xmlns="http://www.w3.org/2000/svg" xmlns:xlink="http://www.w3.org/1999/xlink" version="1.1" viewBox="-10 0 2068 2048">
   <path fill="currentColor"
d="M0 0h2048v2048h-2048v-2048zM1198 1528v-32q-61 0 -124 -68q-107 -117 -192 -269q76 -19 128 -82t52 -136q0 -102 -71.5 -155t-186.5 -53q-5 0 -148 3t-176 -1v38q9 2 23 4t19.5 3.5t16 4t14.5 5.5t10.5 8.5t9 12.5t5.5 17t3.5 23.5t0.5 30.5v500q0 17 -0.5 30.5t-4 23.5
t-5.5 17t-9 12.5t-10.5 8.5t-14 6t-16 4t-20 3.5t-22.5 4.5v36q106 -3 154 -3q70 0 164 3v-36q-10 -1 -28 -3t-24 -3t-18.5 -3.5t-16.5 -5.5t-11.5 -8.5t-9.5 -12.5t-5.5 -18t-4 -24.5t-0.5 -31.5v-212q46 3 98 3q104 189 192 290q27 32 63.5 51t69.5 22t57.5 0.5t37.5 -8.5
zM1304 911q25 0 46.5 -4t37 -10.5t27.5 -17.5t19.5 -21t13 -26t7.5 -28t3 -31t1 -30t-0.5 -31t-0.5 -29h-138v49h82q0 56 -25.5 89t-72.5 33q-39 0 -60.5 -29.5t-21.5 -76.5v-123q0 -39 29.5 -64t60.5 -25q17 0 33 6t26 14t17 16.5t10 14.5l4 6l48 -33q0 -3 -2.5 -8.5
t-13 -20t-24.5 -25t-40 -19.5t-58 -9q-41 0 -72.5 13.5t-49 35t-26 44.5t-8.5 46v147q0 63 36.5 105t111.5 42zM772 1116q-32 0 -92 -4v-318q44 -3 102 -3q81 0 125.5 40.5t44.5 116.5t-48.5 122t-131.5 46z" />
</svg>