<svg xmlns="http://www.w3.org/2000/svg" xmlns:xlink="http://www.w3.org/1999/xlink" version="1.1" viewBox="-10 0 2068 2048">
   <path fill="currentColor"
d="M1376 0h576q40 0 68 28t28 68v576q0 29 -16 53.5t-42 35.5q-28 11 -57 5t-49 -26l-156 -156l-348 348q-28 28 -68 28t-68 -28l-126 -128q-29 -28 -29 -67.5t29 -67.5l346 -349l-156 -156q-21 -20 -26.5 -49t6 -56t35 -43t53.5 -16zM672 2048h-576q-39 0 -67.5 -28
t-28.5 -68v-575q0 -29 16.5 -53.5t44 -35.5t55.5 -5.5t48 25.5l156 156l348 -348q29 -28 69 -28t67 28l128 128q28 28 28 68t-28 68l-348 348l156 156q21 20 26.5 49t-6 56t-35 43t-53.5 16z" />
</svg>