<svg xmlns="http://www.w3.org/2000/svg" xmlns:xlink="http://www.w3.org/1999/xlink" version="1.1" viewBox="-10 0 2068 2048">
   <path fill="currentColor"
d="M124 220l340 267q112 -85 256 -132.5t304 -47.5q167 0 318.5 53t261.5 142t175 212.5t65 258.5q0 123 -53 235.5t-149 201.5l376 296q25 20 29 52t-15.5 56.5t-51 28.5t-56.5 -16l-1894 -1485q-25 -19 -29 -51t15.5 -57t51.5 -29t56 15zM1358 1581q-160 57 -333.5 57
t-332.5 -57q-75 55 -174 98q-145 62 -262 62q-33 0 -46 -31q-14 -33 10 -57v0v0v-1l4 -4q2 -1 4.5 -4t6 -7t5.5 -7q29 -35 50 -70q60 -99 68 -201q-154 -173 -154 -386q0 -131 62 -253z" />
</svg>