<svg xmlns="http://www.w3.org/2000/svg" xmlns:xlink="http://www.w3.org/1999/xlink" version="1.1" viewBox="-10 0 2068 2048">
   <path fill="currentColor"
d="M0 1024q0 -139 37 -272t103 -245.5t160.5 -207t207 -160t245 -102.5t272 -37t272 37t244.5 102.5t206.5 160t160.5 207t103 245.5t37 272t-37 272t-103 245.5t-160.5 207t-206.5 160t-244.5 102.5t-272 37t-272 -37t-245 -102.5t-207 -160t-160.5 -207t-103 -245.5
t-37 -272zM1250.5 255q-18.5 -19 -45 -19t-45.5 19l-136 135l-136 -135q-18 -19 -44.5 -19t-45 19t-18.5 45t18 45l136 135l-180 182l-228 -226q-18 -19 -45 -19t-45.5 19t-18.5 45t19 45l226 226l-180 181l-136 -135q-19 -19 -45.5 -19t-45 19t-18.5 45t19 45l134 136
l-134 136q-19 19 -19 45t18.5 45t45 19t45.5 -19l136 -136l180 182l-226 227q-19 19 -19 45t18.5 45t45.5 19t45 -19l228 -227l180 181l-136 136q-18 19 -18 45.5t18.5 45.5t45 19t44.5 -19l136 -136l136 136q18 19 45 19t45.5 -19t18.5 -45.5t-19 -45.5l-136 -136l182 -181
l226 227q19 19 45.5 19t45 -19t18.5 -45t-19 -45l-226 -227l182 -182l136 136q18 19 44 19t44.5 -19t18.5 -45t-19 -45l-134 -136l134 -135q19 -19 19 -45.5t-18.5 -45.5t-44.5 -19t-44 19l-136 135l-182 -181l226 -226q19 -19 19 -45t-18.5 -45t-45 -19t-45.5 19l-226 226
l-182 -182l136 -135q19 -19 19 -45t-18.5 -45zM572 1024l182 -181l180 181l-180 181zM844 1296l180 -182l180 182l-180 180l-180 -181v1zM1114 1024l182 -181l180 181l-180 181zM1204 752l-180 181l-180 -181l180 -181l180 182v-1z" />
</svg>