<svg xmlns="http://www.w3.org/2000/svg" xmlns:xlink="http://www.w3.org/1999/xlink" version="1.1" viewBox="-10 0 2068 2048">
   <path fill="currentColor"
d="M820 139q35 16 55.5 47.5t20.5 69.5v256h448q144 0 274 56t224 150t150 224.5t56 273.5q0 93 -19 179t-47.5 150t-68.5 122.5t-76.5 97t-78 72t-65.5 49t-47 27.5q-14 7 -30 7q-33 0 -56.5 -23.5t-23.5 -55.5q0 -41 40 -78q88 -82 88 -226q0 -104 -51 -193t-139.5 -140.5
t-193.5 -51.5h-384v257q0 38 -20 69t-55.5 47t-72.5 10.5t-66 -31.5l-640 -576q-42 -39 -42 -95q0 -57 42 -96l640 -576q29 -25 67 -31.5t71 9.5z" />
</svg>