<svg xmlns="http://www.w3.org/2000/svg" xmlns:xlink="http://www.w3.org/1999/xlink" version="1.1" viewBox="-10 0 2068 2048">
   <path fill="currentColor"
d="M1422 455v3q-7 0 -18 -1t-20.5 -1.5t-17.5 -0.5h-456q-78 0 -170 22v-11v-11q0 -93 45 -171.5t124 -124t171.5 -45.5t171.5 45.5t124.5 124t45.5 171.5zM1366 569q22 0 36 1t44 5q49 -56 116 -88t144 -32h42q27 0 44 22.5t10 49.5l-48 195q86 81 132 189h48q47 0 80.5 33
t33.5 80v341q0 47 -33.5 80.5t-80.5 33.5h-114q-50 65 -114 114v228q0 47 -33 80t-81 33h-114q-47 0 -79.5 -33t-32.5 -80v-114h-456v114q0 47 -33 80t-81 33h-114q-47 0 -79.5 -33t-32.5 -80v-228q-95 -71 -154.5 -174.5t-71.5 -223.5h-102q-100 0 -171 -70.5t-71 -171.5
t71 -171.5t171 -70.5h14q36 0 61 25.5t25 60.5t-25 60t-61 25h-14q-29 0 -50.5 21t-21.5 50t21.5 50t50.5 21h110q33 -159 145.5 -277.5t268.5 -159.5q64 -18 144 -18h456zM1592 1052q0 -35 -24.5 -59.5t-60 -24.5t-60.5 24.5t-25 59.5t25 60.5t60.5 25.5t60 -25.5
t24.5 -60.5z" />
</svg>