<svg xmlns="http://www.w3.org/2000/svg" xmlns:xlink="http://www.w3.org/1999/xlink" version="1.1" viewBox="-10 0 2068 2048">
   <path fill="currentColor"
d="M760 459q16 22 44 63t84 129t102 170q-280 75 -578 75q31 -145 123 -260t225 -177zM878 417q148 -36 297 1t263 139q-6 9 -16.5 22t-39.5 40.5t-63.5 53t-90 56.5t-118.5 55q-92 -168 -232 -367zM1268 1600q-101 43 -210 49t-217.5 -27t-200.5 -104q55 -111 186.5 -221
t307.5 -170q96 247 134 473zM1042 916q40 83 50 107q-161 45 -307 163.5t-225 255.5q-76 -85 -118 -191.5t-42 -225.5v-10v-10q23 1 71.5 -0.5t139 -8t207 -27.5t224.5 -53zM1374 1543q-6 -32 -16.5 -82.5t-39.5 -156.5t-66 -207q55 -9 113.5 -9.5t101.5 3.5t84 11.5
t59.5 12.5t29.5 9q-20 129 -90.5 238.5t-175.5 180.5zM1214 999q-26 -63 -56 -122q220 -90 350 -247q66 81 103 180.5t37 208.5q-15 -4 -47 -9t-100 -12.5t-135 -7t-152 8.5zM1756 0q120 0 206 85.5t86 206.5v1464q0 121 -86 206.5t-206 85.5h-1464q-120 0 -206 -85.5
t-86 -206.5v-1464q0 -121 86 -206.5t206 -85.5h1464zM1024.5 1756q148.5 0 284 -58t233.5 -156t156 -233.5t58 -284.5t-58 -284.5t-156 -233.5t-233.5 -156t-284 -58t-284 58t-233.5 156t-156.5 233.5t-58.5 284.5t58.5 284.5t156.5 233.5t233.5 156t284 58z" />
</svg>