<svg xmlns="http://www.w3.org/2000/svg" xmlns:xlink="http://www.w3.org/1999/xlink" version="1.1" viewBox="-10 0 2068 2048">
   <path fill="currentColor"
d="M806 710v646q0 8 -9 8h-131q-8 0 -8 -8v-646q0 -10 8 -10h131q9 0 9 10zM502 742q89 64 89 178v436q0 8 -9 8h-87q-22 0 -37 -15t-15 -37v-392q0 -61 -80 -80q-29 -6 -67 -6q-43 0 -73 8.5t-44 19t-21.5 25t-8 20.5t0.5 12v1v436q0 8 -10 8h-130q-9 0 -9 -8v-894
q0 -8 9 -8h130q9 0 9 8v260q77 -38 160 -38q115 0 193 58zM2031 1094q26 65 11 126q-27 106 -147 146q-48 14 -116 14q-78 0 -154 -26q-47 -16 -47 -66v-110q0 -6 4.5 -8t10.5 0q81 62 186 62q54 0 80.5 -10.5t36.5 -33.5q7 -19 -2.5 -37.5t-36.5 -30.5l-171 -74
q-103 -46 -119 -140q-5 -30 0.5 -59t16.5 -48t24 -34.5t21 -22t11 -8.5q70 -50 187 -50q90 0 176 32q6 4 6 8v144q0 5 -5 7.5t-8 0.5q-45 -24 -92 -34.5t-82.5 -8.5t-60.5 7.5t-34 13.5q-17 11 -14.5 26.5t23.5 23.5l184 82q78 35 111 108zM1204 684q95 0 175 46.5
t126.5 127t46.5 174.5q0 95 -46.5 175t-127 126.5t-174.5 46.5q-107 0 -184 -60v282q0 10 -10 10h-131q-8 0 -8 -10v-586q0 -56 13 -103t35 -80t51 -59.5t60 -43t63.5 -27t59.5 -15t51 -4.5zM1204 1232q83 0 141 -58.5t58 -141.5t-58.5 -140.5t-140.5 -57.5q-84 0 -141.5 58
t-57.5 140t59 142q58 58 140 58zM731 436q38 0 65.5 27.5t27.5 66.5q0 37 -27.5 64.5t-66 27.5t-65 -27.5t-26.5 -64.5q0 -39 26.5 -66.5t65.5 -27.5z" />
</svg>