<svg xmlns="http://www.w3.org/2000/svg" xmlns:xlink="http://www.w3.org/1999/xlink" version="1.1" viewBox="-10 0 2068 2048">
   <path fill="currentColor"
d="M0 324h312v836q0 90 32.5 152.5t75.5 91.5q-20 18 -55.5 30.5t-79 16.5t-93.5 -10t-92 -48q-49 -40 -74.5 -103.5t-25.5 -132.5v-833zM1944 1019q0 43 30 73t74 30v307q-112 0 -206.5 -55t-149 -150t-54.5 -206v-309q0 -33 -15.5 -57.5t-39 -35.5t-50 -11t-50 11
t-38.5 35.5t-15 57.5v93h154v307h-154v27q0 69 -25.5 132.5t-74.5 103.5q-88 74 -208 57v-718q0 -111 55.5 -205.5t150 -150t206.5 -55.5q145 0 257.5 91.5t142.5 231.5h104v307h-94v89zM766 622v-2h308v713q0 157 -82.5 266.5t-223.5 136.5q-149 30 -310 -18v-281
q34 15 85.5 25.5t94.5 5.5q59 -6 96 -33t44 -68q-2 2 -5.5 5t-15.5 10.5t-25 14t-34 12.5t-43 9t-51 1t-60 -10q-52 -14 -89.5 -42.5t-56 -65.5t-26.5 -72.5t-8 -75.5v-531h308v452q0 30 24 42t47 0t23 -42v-452z" />
</svg>