<svg xmlns="http://www.w3.org/2000/svg" xmlns:xlink="http://www.w3.org/1999/xlink" version="1.1" viewBox="-10 0 2058 2048">
   <path fill="currentColor"
d="M546 1983q1 28 -16 45.5t-38.5 19.5t-41.5 -12t-23 -41q-34 -377 76 -700t330 -553q-19 -40 -19.5 -84.5t16 -83.5t45 -71t70.5 -50.5t91 -18.5q91 0 155.5 64.5t64.5 155.5q0 51 -21.5 96t-58.5 73.5t-81 43t-94 6.5t-93 -38q-203 219 -298.5 511.5t-63.5 636.5zM1025 0
q135 0 258.5 53t212.5 142.5t142 213t53 258.5q0 101 -29.5 197t-83.5 174.5t-129 142t-165.5 100t-194 48.5t-213.5 -13q-27 -6 -38.5 -27.5t-6.5 -43t24 -36.5t47 -9q69 16 138.5 16t135.5 -21.5t125 -55t108.5 -84t85.5 -109.5t56.5 -131t20.5 -148q0 -111 -43.5 -212.5
t-117 -175t-174.5 -117t-212 -43.5q-99 0 -189.5 33.5t-159 90.5t-117 135.5t-69.5 165.5t-10 184.5t56 187.5q9 21 6 40t-17.5 30t-31.5 15.5t-34.5 -3.5t-27.5 -28q-55 -105 -68.5 -221.5t10.5 -222.5t82.5 -203t141 -168t194 -113t234.5 -42z" />
</svg>