<svg xmlns="http://www.w3.org/2000/svg" xmlns:xlink="http://www.w3.org/1999/xlink" version="1.1" viewBox="-10 0 2068 2048">
   <path fill="currentColor"
d="M0 256q0 -106 75.5 -181t180.5 -75h1152q106 0 181 75t75 181v256q0 106 -75 181.5t-181 75.5h-1152q-105 0 -180.5 -75.5t-75.5 -181.5v-256zM640 1408q0 -52 38 -90t90 -38v-64q0 -133 93.5 -226.5t226.5 -93.5h576q53 0 90.5 -37t37.5 -90v-129v-362q113 40 184.5 139
t71.5 223v129q0 104 -51.5 192.5t-139.5 139.5t-193 51h-576q-27 0 -45.5 19t-18.5 45v64q53 0 90.5 37.5t37.5 90.5v512q0 53 -37.5 90.5t-90.5 37.5h-256q-52 0 -90 -38t-38 -90v-512z" />
</svg>