<svg xmlns="http://www.w3.org/2000/svg" xmlns:xlink="http://www.w3.org/1999/xlink" version="1.1" viewBox="-10 0 2069 2048">
   <path fill="currentColor"
d="M1 192q0 -36 25 -61t61 -25h163q58 0 107 31t74 83h1473q70 0 113.5 56.5t25.5 125.5l-147 546q-23 84 -92.5 137t-156.5 53h-1035l20 102q6 31 29.5 50.5t54.5 19.5h1034q36 0 60.5 25t24.5 61.5t-24.5 61t-60.5 24.5h-1034q-93 0 -164.5 -59.5t-88.5 -150.5l-184 -970
q-3 -11 -11 -17.5t-18 -6.5h-163q-36 0 -61 -25t-25 -61zM460 1769.5q0 -71.5 50 -121.5t121.5 -50t122 50t50.5 121.5t-50.5 122t-122 50.5t-121.5 -50.5t-50 -122zM1663.5 1598q71.5 0 121.5 50t50 121.5t-50 122t-121.5 50.5t-121.5 -50.5t-50 -122t50 -121.5t121.5 -50z
" />
</svg>