<svg xmlns="http://www.w3.org/2000/svg" xmlns:xlink="http://www.w3.org/1999/xlink" version="1.1" viewBox="-10 0 2067 2048">
   <path fill="currentColor"
d="M1025 0q208 0 397.5 81t326 218t217.5 326.5t81 398.5t-81 398.5t-217.5 326.5t-326 218t-397.5 81t-397.5 -81t-327 -218t-218.5 -327t-81 -398t81 -398t218.5 -327t327 -218t397.5 -81zM1498 696q0 -2 0.5 -6t0.5 -6q0 -10 -2 -28q-2 -17 -14 -28q-14 -12 -41 -12
q-30 1 -103 27t-279 112q-90 37 -596 258q-73 29 -76 57q-1 6 0.5 11t5 9.5t7 8t10.5 7.5t13 6.5t16 6t17.5 5.5t20 6t20.5 7q115 37 160 38q47 1 111 -42q417 -282 431 -285q18 -2 21 1q4 4 5 11t0 8q-3 9 -69 73.5t-138 131t-75 70.5q-7 7 -28 27.5t-26.5 27.5t-15 23.5
t-5.5 27t16 26.5t37 32q18 12 97 65t132 88q11 7 40 27.5t42.5 28.5t36 15.5t43.5 5.5q49 -4 69 -105q91 -486 116 -736z" />
</svg>