<svg xmlns="http://www.w3.org/2000/svg" xmlns:xlink="http://www.w3.org/1999/xlink" version="1.1" viewBox="-10 0 2058 2048">
   <path fill="currentColor"
d="M1882 1613q-21 90 -85.5 144.5t-162.5 72.5q-62 11 -106.5 13.5t-94.5 -11.5t-92 -47q-53 -45 -72.5 -106.5t-3 -123t64.5 -108.5q26 -26 56.5 -43t76.5 -30t79.5 -19.5t103.5 -18.5q21 -4 31 -5q48 -9 71 -34q0 -1 1 -1q16 -18 18 -57.5t1 -257.5q-1 -238 -1 -422
q0 -37 -19 -50.5t-58 -6.5l-839 157q-36 7 -48.5 22.5t-12.5 53.5q0 254 1 589q0 331 -1 392t-10 97q0 4 -1 6q-15 60 -51 106.5t-87 72.5q-55 30 -141.5 43t-144.5 3q-71 -14 -121 -59.5t-68 -102t-4 -120t62 -110.5q26 -26 56.5 -43t76.5 -30t79.5 -19.5t103.5 -18.5
q20 -4 30 -5q50 -10 71 -33q20 -23 23 -327t-2 -564.5t3 -332.5q6 -36 32 -57q14 -11 34 -18.5t27 -7.5q1041 -195 1051 -195q38 -3 60 18.5t22 61.5q0 298 1 727q1 571 0 671t-8 127q-1 4 -2 7z" />
</svg>