<svg xmlns="http://www.w3.org/2000/svg" xmlns:xlink="http://www.w3.org/1999/xlink" version="1.1" viewBox="-10 0 2068 2048">
   <path fill="currentColor"
d="M256 528v1265q0 52 -37.5 89.5t-90 37.5t-90.5 -37.5t-38 -89.5v-1265q0 -109 54 -201t146 -145.5t200 -53.5q80 0 153 30.5t129 86.5l66 65q115 -64 250 -52t242 96l4 -6q28 -28 68 -28t68.5 28t28.5 68t-29 68l-640 640q-27 28 -67 28t-68.5 -28t-28.5 -67t28 -68l6 -6
q-84 -106 -96 -240.5t52 -251.5l-64 -65q-42 -42 -102 -42q-59 0 -101.5 42.5t-42.5 101.5zM1024.5 1408q-52.5 0 -90.5 -38t-38 -90t38 -90t90.5 -38t90 37.5t37.5 90.5t-37.5 90.5t-90 37.5zM1280 1664.5q0 52.5 -38 90.5t-90.5 38t-90 -37.5t-37.5 -90.5t37.5 -91t90 -38
t90.5 38t38 90.5zM1280.5 1152q-52.5 0 -90.5 -38t-38 -90t38 -90t90.5 -38t90 38t37.5 90t-37.5 90t-90 38zM1536 1408q0 52 -37.5 90t-90 38t-90.5 -38t-38 -90t38 -90t90.5 -38t90 38t37.5 90zM1536.5 896q-52.5 0 -90.5 -37.5t-38 -90t38 -90.5t90.5 -38t90 38
t37.5 90.5t-37.5 90t-90 37.5zM1792 1152q0 53 -37.5 90.5t-90 37.5t-90.5 -38t-38 -90t38 -90t90.5 -38t90 37.5t37.5 90.5zM1919.5 1024q-52.5 0 -90 -38t-37.5 -90t37.5 -89.5t90 -37.5t90.5 37.5t38 89.5t-38 90t-90.5 38z" />
</svg>