<svg xmlns="http://www.w3.org/2000/svg" xmlns:xlink="http://www.w3.org/1999/xlink" version="1.1" viewBox="-10 0 2058 2048">
   <path fill="currentColor"
d="M564 205q33 0 46 31q14 32 -10 56l-100 99l64 64l22 -23q22 -22 54.5 -22t54 22.5t22 54t-22.5 53.5l-22 23l48 48q136 -99 304.5 -99t303.5 99l220 -220l-100 -99q-24 -24 -10 -55q13 -32 46 -32h308q20 0 35 15t15 36v308q0 34 -30 47q-31 13 -56 -12l-100 -99
l-220 221q100 137 100 303q0 126 -57 236t-156.5 181t-220.5 89v57h50q32 0 55 22.5t23 54.5t-23 54.5t-55 22.5h-50v25q0 32 -23 54.5t-54.5 22.5t-54 -22.5t-22.5 -54.5v-25h-52q-31 0 -53.5 -22.5t-22.5 -54.5t22.5 -54.5t53.5 -22.5h52v-57q-122 -18 -221.5 -89
t-157 -181t-57.5 -236q0 -167 100 -304l-48 -49l-22 23q-23 22 -55 22t-53.5 -22.5t-22 -54.5t22.5 -54l20 -22l-62 -63l-100 99q-24 25 -54 12q-15 -6 -23.5 -19t-8.5 -29v-307q0 -21 15 -36t35 -15h308zM1332 1024q0 -128 -90 -218t-217.5 -90t-217 90t-89.5 218
t89.5 217.5t217 89.5t217.5 -89.5t90 -217.5z" />
</svg>