<svg xmlns="http://www.w3.org/2000/svg" xmlns:xlink="http://www.w3.org/1999/xlink" version="1.1" viewBox="-10 0 2058 2048">
   <path fill="currentColor"
d="M1023.5 390q-81.5 0 -138.5 -57t-57 -138t57 -138t138.5 -57t139 57t57.5 138t-57.5 138t-139 57zM698.5 782q-80.5 0 -137.5 -57.5t-57 -138.5t57 -138.5t137.5 -57.5t138 57.5t57.5 138.5t-57.5 138.5t-138 57.5zM1108 1564q34 -70 18 -147l-22 -97q-13 -53 -2 -103
l26 -142q13 -69 -16 -133q14 -1 36 4l120 33q114 30 228 -7l50 -18q48 -16 89 14t41 80v130q0 106 74.5 180.5t179.5 74.5q51 0 80 41.5t14 88.5l-18 51q-37 110 -6 228l22 79q14 55 -25.5 94.5t-94.5 24.5l-80 -21q-114 -31 -226 6l-52 18q-48 16 -88 -13.5t-40 -79.5v-93
q0 -122 -86 -207.5t-208 -85.5h-14zM502 954v1l50 18q113 37 228 6l80 -22q54 -15 94 25t26 95l-22 79q-31 114 6 227l16 51q16 48 -12.5 89t-79.5 41q-105 0 -179.5 75t-74.5 181v130q0 50 -41 79.5t-89 13.5l-52 -18q-111 -37 -226 -6l-80 21q-54 15 -94 -25t-26 -95
l22 -78q31 -118 -6 -228l-18 -51q-15 -48 14 -89t80 -41q105 0 179.5 -74.5t74.5 -180.5v-130q0 -50 41 -80t89 -14zM1546 586q0 81 -57.5 138.5t-138 57.5t-138.5 -57.5t-58 -138.5t58 -138.5t138.5 -57.5t138 57.5t57.5 138.5z" />
</svg>