<svg xmlns="http://www.w3.org/2000/svg" xmlns:xlink="http://www.w3.org/1999/xlink" version="1.1" viewBox="-10 0 2068 2048">
   <path fill="currentColor"
d="M1756 0q120 0 206 85.5t86 206.5v1464q0 121 -86 206.5t-206 85.5h-1050q99 -167 124 -271l72 -268q28 53 100.5 91t155.5 38q125 0 234 -55t185 -148.5t119.5 -222t43.5 -271.5q0 -136 -53.5 -257t-145.5 -206.5t-220 -135.5t-273 -50q-141 0 -262 36.5t-208 101
t-148.5 150.5t-91.5 185.5t-30 206.5q0 84 27 171t80 159.5t121 104.5q30 14 36 -15q1 -5 10 -40q2 -4 22 -88q3 -18 -8 -32q-36 -43 -60 -114t-24 -142q0 -94 35 -181t98.5 -155.5t161 -109.5t213.5 -41q136 0 243 58t166 162t59 237q0 149 -46.5 267t-127 182.5
t-178.5 64.5q-84 0 -135.5 -60.5t-32.5 -142.5q10 -43 42 -146q18 -57 26.5 -86t17 -71t8.5 -71q0 -102 -72 -142q-64 -36 -139 0q-85 40 -118 146q-15 50 -15 110q0 44 8 85.5t16 61.5l8 20q-11 49 -33 138t-31 127q-22 94 -28.5 120.5t-21 91.5t-17 81.5t-9.5 62t-6.5 63
t0 55.5t3 67.5t7.5 73.5l10 4h-332q-120 0 -206 -85.5t-86 -206.5v-1464q0 -121 86 -206.5t206 -85.5h1464z" />
</svg>