<svg xmlns="http://www.w3.org/2000/svg" xmlns:xlink="http://www.w3.org/1999/xlink" version="1.1" viewBox="-10 0 2068 2048">
   <path fill="currentColor"
d="M1982 534q66 175 66 360q0 136 -35 266t-98 240t-153.5 204t-198 161t-235.5 107t-262 45v-518q-32 2 -84 0v519q-134 -5 -262 -45t-235.5 -107t-198 -161t-153.5 -204.5t-98 -240.5t-35 -266q0 -189 64 -360q7 -16 23.5 -23t32.5 0q15 7 21 22t1 30q-60 159 -60 331
q0 177 63 339.5t172 285t260.5 205t322.5 104.5v-440q-43 -9 -82 -22v370q-140 -34 -262.5 -113t-210 -188.5t-137.5 -249.5t-50 -291q0 -241 122 -443.5t326 -314.5q15 -9 30.5 -4t23.5 21q8 14 3.5 30t-19.5 24q-184 102 -294 285.5t-110 401.5q0 163 63.5 310t175.5 255
t257 165v-327q-38 -12 -63 -45t-25 -75q0 -34 16.5 -62.5t45.5 -45.5q-6 -57 -18 -100t-26.5 -67t-30 -40.5t-30.5 -25t-26.5 -16t-19 -19.5t-7.5 -30v-53q0 -49 52 -146.5t122.5 -193t151.5 -169t132 -77.5q15 -1 28 0q51 4 132 77.5t152 169t122.5 193t51.5 146.5v53
q0 18 -7 29.5t-19 19.5t-26.5 16.5t-30.5 24.5t-30.5 40t-26.5 67t-18 100q28 17 45 46t17 63q0 41 -25.5 74.5t-64.5 45.5v327q146 -57 258 -165t176 -255t64 -310q0 -219 -110 -402.5t-294 -285.5q-15 -8 -20 -23t2 -30q9 -16 25 -21.5t31 3.5q204 112 326 315t122 444
q0 151 -50 291t-138 249.5t-210.5 188.5t-263.5 113v-370q-29 11 -80 22v440q171 -22 322 -104.5t260 -205t172.5 -285t63.5 -339.5q0 -173 -60 -332q-6 -15 0 -30t22 -22q15 -7 31.5 0.5t22.5 23.5zM1272 1093q-34 0 -59 25t-25 59q0 35 25 60t59.5 25t60 -25t25.5 -60
t-25.5 -59.5t-60.5 -24.5zM775.5 1261q35.5 0 60 -24.5t24.5 -59t-25 -59.5t-59 -25q-36 0 -61 25t-25 59.5t25 59t60.5 24.5z" />
</svg>