<svg xmlns="http://www.w3.org/2000/svg" xmlns:xlink="http://www.w3.org/1999/xlink" version="1.1" viewBox="-10 0 2067 2048">
   <path fill="currentColor"
d="M1996 26q24 18 37.5 45.5t13.5 57.5v288v1055q0 87 -51 161t-139.5 117t-192.5 43t-192.5 -43t-140 -117t-51.5 -161t51.5 -160.5t140 -116t192.5 -42.5q67 0 127 18v-583l-1023 308v833q0 87 -51.5 160.5t-140 116t-192.5 42.5t-192.5 -42.5t-139.5 -116t-51 -160.5
t51 -161t139.5 -117t192.5 -43q66 0 129 19v-626v-289q0 -42 25.5 -76t65.5 -46l1278 -384q63 -20 114 20z" />
</svg>