<svg xmlns="http://www.w3.org/2000/svg" xmlns:xlink="http://www.w3.org/1999/xlink" version="1.1" viewBox="-10 0 2068 2048">
   <path fill="currentColor"
d="M736 0q92 0 158 65.5t66 158.5v1600q0 93 -66 158.5t-158 65.5q-87 0 -150 -57.5t-72 -142.5q-38 9 -66 9q-105 0 -180.5 -75t-75.5 -181q0 -43 16 -86q-93 -35 -150.5 -116.5t-57.5 -182.5q0 -95 50.5 -172.5t133.5 -116.5q-56 -68 -56 -158q0 -91 57.5 -162t144.5 -90
q-10 -33 -10 -69q0 -88 55 -157.5t139 -90.5q9 -85 72 -142.5t150 -57.5zM1312 0q87 0 150.5 57.5t73.5 142.5q84 21 138 90t54 158q0 36 -10 69q87 19 144.5 90t57.5 162q0 90 -56 158q83 39 133.5 116.5t50.5 172.5q0 101 -57.5 182.5t-148.5 116.5q14 40 14 86
q0 106 -75 181t-181 75q-27 0 -64 -9q-10 85 -73.5 142.5t-150.5 57.5q-92 0 -158 -65.5t-66 -158.5v-1600q0 -93 66 -158.5t158 -65.5z" />
</svg>