<svg xmlns="http://www.w3.org/2000/svg" xmlns:xlink="http://www.w3.org/1999/xlink" version="1.1" viewBox="-10 0 2068 2048">
   <path fill="currentColor"
d="M1280 256q0 106 -75 181t-180.5 75t-181 -75t-75.5 -181t75.5 -181t181 -75t180.5 75t75 181zM896 640h256q105 0 180.5 75t75.5 181v192q0 52 -37.5 90t-90.5 38h-6l-46 398q-6 49 -42 82t-84 33h-154q-49 0 -85 -33t-43 -82l-44 -398h-8q-52 0 -90 -38t-38 -90v-192
q0 -106 75.5 -181t180.5 -75zM530 1577q-180 34 -278 82q-27 16 -30 18q-11 8 -11 19.5t11 19.5q55 37 172 69q262 72 630 72t630 -72q116 -32 172 -69q10 -7 10 -19.5t-10 -19.5q-4 -2 -14 -8t-18 -10q-102 -50 -276 -82q-40 -8 -62.5 -40.5t-15.5 -71.5q8 -39 41 -61.5
t71 -15.5q207 38 328 99q71 37 112 79q56 62 56 130q0 104 -116 180q-82 53 -226 94q-285 78 -682 78t-682 -78q-144 -41 -226 -94q-116 -77 -116 -180q0 -69 56 -130q39 -41 112 -79q121 -61 328 -99q38 -7 71 15.5t41 61.5q7 39 -16 71.5t-62 40.5z" />
</svg>