<svg xmlns="http://www.w3.org/2000/svg" xmlns:xlink="http://www.w3.org/1999/xlink" version="1.1" viewBox="-10 0 2058 2048">
   <path fill="currentColor"
d="M726 297q0 -123 87 -210t210.5 -87t211 87t87.5 210t-87.5 210t-211 87t-210.5 -87t-87 -210zM263.5 530.5q40.5 -55.5 108 -66t122.5 29.5l150 109q169 124 380 124t380 -124l150 -110q55 -40 122.5 -29t108 66.5t30 122.5t-66.5 107l-150 110q-83 61 -178 103v149h-792
v-149q-97 -43 -178 -103l-150 -110q-56 -40 -66.5 -107t30 -122.5zM634 1292l250 220l-108 154l102 99q48 49 48 117t-48.5 117t-117 49t-116.5 -49l-200 -198q-42 -43 -47.5 -102t29.5 -109zM1164 1512l250 -220l208 298q34 50 28.5 109t-48.5 102l-198 198q-48 49 -116 49
t-116.5 -49t-48.5 -117t49 -117l100 -100z" />
</svg>