<svg xmlns="http://www.w3.org/2000/svg" xmlns:xlink="http://www.w3.org/1999/xlink" version="1.1" viewBox="-10 0 2068 2048">
   <path fill="currentColor"
d="M2047 1203q1 15 -3 26.5t-9 14.5l-5 4q-2 1 -5 3t-13.5 8.5t-20.5 11.5t-25 11.5t-28 9t-29.5 4t-28.5 -3.5q-18 -5 -32 -21.5t-20.5 -35.5t-11 -37.5t-4.5 -31.5l-1 -12h-6l-66 183q-1 4 -3 9.5t-9 20t-14.5 25t-18.5 16.5t-22 2q-18 -7 -27.5 -22t-10.5 -27v-11
l-7.5 7.5t-21.5 16t-36 19.5t-49 13.5t-61 3.5q-28 -2 -52 -11.5t-38 -22t-24 -24.5t-13 -20l-4 -8q-8 5 -24 14t-81 31t-148 38q-37 4 -73 -6t-53 -23l-17 -12q-4 3 -18.5 11.5t-26.5 14.5l-13 7q-3 1 -8 3t-18.5 5t-25.5 2.5t-25.5 -7.5t-21.5 -21q-13 -22 -15 -73t2 -90
l4 -40h-5q-41 84 -63 159q-6 21 -13.5 36t-13 21t-10.5 9t-7 3h-3q-1 -1 -5.5 0t-13 -1t-16.5 -5t-15.5 -11.5t-10.5 -19.5q-4 -26 0 -68.5t11 -82.5l7 -40l-4 1l-9 12q-11 19 -32 63q-32 77 -51.5 111t-31.5 40t-33 2q-17 -3 -26.5 -16.5t-11.5 -24.5l-1 -12l-51 28
q-5 2 -14 5.5t-33.5 10t-47 8.5t-49 -2t-44.5 -18q-51 -40 -62 -95q-54 -5 -90 -19q-16 -6 -16 -21t8 -26l8 -12q1 -2 3.5 -4.5t11 -3t17.5 7t24 10t26 1.5l10 -1q7 -60 25 -101q25 -55 60 -80t72 -26q34 -1 57.5 9.5t43.5 38.5q16 44 6.5 79t-36 62t-55 45t-50.5 27l-22 9
q1 0 0 4t1.5 9.5t7 11t16 9t28.5 3.5q27 -1 64 -17t61 -32l24 -16q3 -35 22 -121.5t27 -104.5q4 -10 15.5 -15t20.5 -4h9q1 1 7.5 -0.5t15.5 5t11 19.5t-3 51.5t-12 69.5l-6 32l4 4q1 -5 17.5 -34t31.5 -56l16 -26q1 -3 4 -7t12.5 -15t19.5 -19t25 -14.5t30.5 -5.5t21 19
t2 43t-9 50t-11.5 42l-5 18l4 5l4 -8q3 -9 25 -44.5t42 -67.5l21 -31q3 -4 9 -10t22 -13.5t29 -3.5t20 11t8.5 13.5t2.5 21.5q1 11 -4.5 52.5t-11.5 77.5l-6 36l-3 50q1 43 20 42q14 -1 30 -9.5t25 -16.5l10 -8q24 -184 40 -336q7 -68 28.5 -131.5t40.5 -93.5l18 -30
q2 -4 7 -10t24 -20t44 -24q70 -25 93 75q8 26 5 57t-8 57.5t-17 55.5t-23.5 52t-26.5 46.5t-25.5 38.5t-21.5 29q44 -42 86 -16q36 23 51.5 57.5t12.5 68.5t-11.5 64t-18.5 49l-10 19q17 -5 43 -19.5t44 -25.5l18 -12q2 -21 3 -25q3 -19 8.5 -37t11 -32.5t13 -28t14 -23.5
t15 -19.5t14 -15.5t13.5 -13t12 -9.5t10 -7l6 -4.5q6 -5 21.5 -10.5t38.5 -7.5t43.5 3.5t36 28.5t17.5 62t-15 73t-42.5 54.5t-51 35.5t-43.5 21l-18 6q0 2 1.5 4t7.5 9t14.5 10t23 6.5t33.5 -0.5q29 -5 63.5 -23t55.5 -34l20 -16q2 -38 20.5 -115.5t27.5 -98.5
q5 -14 30 -16.5t29 6.5q3 10 3.5 40t-0.5 55l-1 25l4 -1q8 -25 23 -50t25 -38l11 -12q3 -4 9 -8.5t21 -11.5t27 -3q11 3 15.5 27.5t2.5 46.5l-1 23q-1 4 -1.5 10.5t-0.5 23.5t2 30.5t10 25t20 12.5q19 2 42.5 -6.5t37.5 -18.5l14 -9q1 -1 3 -1.5t7.5 -1t10 1.5t8.5 7.5
t5 15.5zM199 1219q20 6 64 -24q32 -22 39.5 -53.5t-10.5 -47.5q-8 -5 -18.5 -5.5t-23.5 10.5t-24 25.5t-18.5 40t-8.5 54.5zM1071 823q-50 174 -52 226q6 -9 15.5 -25t33 -60t41 -81.5t30 -78.5t8.5 -62q-12 -60 -60 43zM1144 1266q18 -53 15.5 -85t-14.5 -47l-12 -14
q-3 -2 -8.5 -4t-20 -3.5t-27.5 3t-27.5 22t-23.5 47.5q-14 47 -19 83t-3 48l2 13q4 2 10.5 4t25.5 4t36 -2.5t35.5 -21.5t30.5 -47zM1414 1219q5 0 14.5 -0.5t32 -11.5t38 -33t17 -42t-5.5 -30l-6 -9q-1 -2 -3 -4t-9 -5t-14 -1.5t-17.5 11t-20.5 27.5q-16 28 -22.5 52.5
t-5.5 35.5z" />
</svg>