<svg xmlns="http://www.w3.org/2000/svg" xmlns:xlink="http://www.w3.org/1999/xlink" version="1.1" viewBox="-10 0 2058 2048">
   <path fill="currentColor"
d="M1806 1562q5 -3 13.5 -9.5t35 -34t52.5 -63t60.5 -100t64.5 -142.5q-1 11 -3.5 29t-16.5 74.5t-34 111t-59.5 129.5t-89.5 139t-127.5 130t-170 113t-221.5 77t-277 32h-18q-188 -2 -345 -49.5t-257 -121t-177.5 -162.5t-117.5 -177t-64.5 -161t-31.5 -119l-6 -45
q29 78 63 142.5t61 101t50 62t36 34.5l13 9q-88 -112 -140 -230.5t-64.5 -218t-7 -194t28.5 -167t45.5 -127t40.5 -83.5l19 -29q-42 79 -54.5 163.5t1.5 157.5t40.5 142.5t61 123.5t65 95.5t51.5 63.5l21 22q-96 -158 -133 -310.5t-19.5 -270t61.5 -223.5t107 -180.5
t119.5 -129.5t96.5 -81l40 -27q-70 52 -113 115t-57 125.5t-12 127.5t21.5 125t44 115.5t53.5 100.5t53 79t40 53l16 18q-79 146 -104.5 281.5t-3.5 236t67 188t106 146.5t114.5 101t91.5 61l37 20q1 -77 10 -385l-155 162l109 -213l-281 -40l281 -42l-92 -249l142 207
q4 -154 13 -514.5t15.5 -612.5t6.5 -254v-11v4v-4v11q0 3 7 260t16.5 603.5t13.5 517.5l141 -207l-91 249l281 42l-281 40l108 213q-136 -141 -155 -162l10 385q9 -4 24 -12t58.5 -36.5t83.5 -61t89 -87t84 -113t60 -139.5t26.5 -167t-27 -195t-90.5 -223q6 -7 16.5 -19
t39 -51.5t53.5 -80t53 -100t44.5 -116t20.5 -124t-10.5 -128.5t-57.5 -124.5t-113 -115.5q9 6 25.5 16.5t62.5 48.5t88 80.5t92 110.5t85.5 139.5t57.5 167t18 194.5t-42.5 220t-114.5 245q8 -8 21.5 -22.5t50.5 -62t66.5 -96.5t59.5 -122t41.5 -144t0 -156.5t-53.5 -164.5
q7 10 19 29.5t40 82t46.5 128.5t27 165t-6 196t-65.5 216.5t-139 231.5z" />
</svg>