<svg xmlns="http://www.w3.org/2000/svg" xmlns:xlink="http://www.w3.org/1999/xlink" version="1.1" viewBox="-10 0 2068 2048">
   <path fill="currentColor"
d="M1474 1188h-898q-176 0 -176 130v230h1250v-230q0 -130 -176 -130zM1838 730q0 -93 -99 -157.5t-241 -68.5v-4h-12h-4h-134h-10h-632h-4h-134q-148 0 -252 66q-106 68 -106 164v152q194 74 194 210v46h1242v-46q0 -136 192 -210v-152zM1994 890q-122 11 -202 70
q-80 56 -80 132v456h336v-600q0 -46 -54 -58zM56 890q-56 12 -56 58v600h336v-456q0 -75 -80 -132q-81 -59 -200 -70z" />
</svg>