<svg xmlns="http://www.w3.org/2000/svg" xmlns:xlink="http://www.w3.org/1999/xlink" version="1.1" viewBox="-10 0 2068 2048">
   <path fill="currentColor"
d="M1024.5 1024q-208.5 0 -398 -30.5t-326.5 -82t-218.5 -122.5t-81.5 -149.5t81.5 -149.5t218.5 -122.5t326.5 -81.5t398 -30t398 30t326 81.5t218 122.5t81.5 149.5t-81.5 149.5t-218 122.5t-326 82t-398 30.5zM1792 1030q163 -60 256 -142v520q0 78 -81.5 149t-218 122.5
t-326 82t-398 30.5t-398 -30.5t-326.5 -82t-218.5 -122.5t-81.5 -149v-520q95 83 256 144q154 57 352 88.5t416 31.5q219 0 416.5 -31.5t351.5 -90.5z" />
</svg>