<svg xmlns="http://www.w3.org/2000/svg" xmlns:xlink="http://www.w3.org/1999/xlink" version="1.1" viewBox="-10 0 2058 2048">
   <path fill="currentColor"
d="M1622 357q-53 0 -128 25q-26 -166 -152 -273q-129 -109 -293 -109q-186 0 -320 134q-133 133 -133 320l4 4v13q-8 -4 -17 -4q-102 0 -174 72t-72 174v4q-28 -13 -59 -13q-84 0 -146 62t-62 150q0 157 208 157h1344q148 0 252 -104t104 -252q0 -147 -104 -254
q-103 -106 -252 -106zM1232 1340q17 -17 -9 -17h-102q-21 0 -12 -21l59 -127q21 -21 -13 -21h-262q-22 0 -34 21l-170 343q-13 22 13 22h123q21 0 12 21l-190 483l4 4z" />
</svg>