<svg xmlns="http://www.w3.org/2000/svg" xmlns:xlink="http://www.w3.org/1999/xlink" version="1.1" viewBox="-11 0 2069 2048">
   <path fill="currentColor"
d="M1831 956q124 69 180.5 191t25.5 253q-34 139 -142 228t-249 90q-137 2 -285.5 2.5t-344.5 -0.5t-284 -1q-275 0 -330 -2q-131 -4 -238.5 -87t-144.5 -208q-39 -126 2 -248t150 -204q6 -5 11 -15.5t5 -19.5q-21 -173 119 -277q139 -103 309 -33q27 12 29 13
q89 -149 237 -231q99 -55 209 -72.5t213.5 4t196 73t164.5 136.5t111 191q7 20 12.5 44.5t8.5 42t7 48t6 43.5q2 17 6 24.5t16 14.5zM1908 1525q52 -64 68.5 -142t-0.5 -149.5t-68 -134t-127 -98.5q-20 -9 -28 -22.5t-8 -35.5q-2 -110 -40.5 -206t-101 -164t-146.5 -113.5
t-175 -61t-188.5 0t-183.5 63.5q-141 79 -219 223q-7 13 -13.5 20t-11.5 10t-12.5 1t-12 -4t-15.5 -9t-16 -10q-138 -72 -261 12q-61 41 -85.5 99.5t-9.5 128.5q6 31 -2.5 48.5t-34.5 34.5q-104 69 -140 189.5t16 232.5q99 217 345 218q593 0 593 -1q550 0 619 -1
q155 -1 258 -129zM1590 1233q-17 85 -86.5 142.5t-155.5 57.5q-91 0 -160 -65q-29 -27 -162 -163t-185 -175q-56 -39 -111.5 -35t-106.5 49q-30 26 -46.5 57.5t-18.5 61.5t5 61t24.5 56.5t40 46.5t51.5 32.5t59 13.5t63.5 -10.5t63.5 -38.5q6 -6 21 -23t25 -24q14 -10 31 -8
t23 14t-5 32q-48 72 -127 101.5t-159 5.5q-80 -23 -129 -93t-48 -162q3 -63 35.5 -115.5t93.5 -87.5q59 -35 123 -33.5t119 42.5q61 47 121.5 106t99 104t84 90t84.5 68q67 41 138 22.5t111 -86.5q25 -43 25.5 -89t-18 -83.5t-52 -65.5t-73 -39t-84.5 0t-83 47
q-4 4 -18.5 20.5t-23.5 21.5q-28 18 -44.5 0t-1.5 -37q57 -79 134 -106t168 4q85 32 128.5 111.5t26.5 171.5z" />
</svg>