<svg xmlns="http://www.w3.org/2000/svg" xmlns:xlink="http://www.w3.org/1999/xlink" version="1.1" viewBox="-11 0 2070 2048">
   <path fill="currentColor"
d="M250 216l226 680h257l167 -671q10 -42 45 -69.5t78.5 -27.5t78.5 27.5t46 69.5l168 671h256l226 -681q17 -50 64.5 -73.5t97.5 -6.5t74 64t7 97l-200 600h78q52 0 90 38t38 90t-38 90t-90 38h-163l-227 680q-14 40 -49 64.5t-77 22.5t-75.5 -28.5t-43.5 -67.5l-168 -671
h-184l-168 671q-11 41 -44 67.5t-75 28.5t-77.5 -22.5t-48.5 -64.5l-227 -680h-163q-53 0 -90.5 -38t-37.5 -90t37.5 -90t90.5 -38h79l-201 -600q-17 -50 7 -97t74.5 -63.5t97 7t64.5 73.5zM562 1152l61 181l46 -181h-107zM996 896h56l-28 -113zM1380 1152l45 181l61 -181
h-106z" />
</svg>