<svg xmlns="http://www.w3.org/2000/svg" xmlns:xlink="http://www.w3.org/1999/xlink" version="1.1" viewBox="-10 0 2069 2048">
   <path fill="currentColor"
d="M324 297q146 -136 331.5 -207t374.5 -71t376.5 74.5t334.5 218.5q17 17 19.5 38t-7.5 37.5t-26 27.5t-37.5 8t-40.5 -22q-129 -124 -292.5 -189t-327.5 -65t-325.5 61t-288.5 179q-19 18 -41 20.5t-37.5 -8.5t-25.5 -27t-7 -37t20 -38zM733 2025q-112 -33 -213 -89.5
t-182 -131t-146 -164t-107.5 -191t-64.5 -208.5t-19 -221t31 -226q6 -24 23 -37.5t36 -12.5t36 9.5t25.5 28t3.5 42.5q-25 98 -27.5 197.5t16.5 193.5t56 182.5t93.5 167t127 143.5t158.5 115t186 79q25 8 38 25.5t11 36.5t-11 35.5t-29 24.5t-42 1zM1344 2017
q-23 8 -43 0.5t-29.5 -24t-11.5 -35.5t10.5 -37t37.5 -27q108 -36 202.5 -97.5t167 -140t127 -173.5t82 -198.5t33 -214.5t-20.5 -222q-6 -25 3 -45t26 -28t36 -8.5t35.5 12.5t22.5 36q25 109 26 219.5t-21.5 214.5t-64 202t-104 185t-140 160t-173 129.5t-201.5 91.5z
M1084 1690q0 26 -17.5 44t-43 18t-43.5 -18t-18 -44l2 -296q0 -25 17 -42.5t42.5 -17.5t43.5 17.5t18 42.5zM1377 580q0 -31 21 -48t46 -16t46 18.5t21 45.5v295q0 83 -28 149t-74.5 107.5t-110.5 68.5t-131.5 37.5t-141.5 9.5q-75 1 -142.5 -9.5t-131.5 -37.5t-110.5 -68.5
t-74.5 -107.5t-28 -149v-295q0 -28 21 -45.5t46 -18.5t46 16t21 48q-2 110 -2.5 197.5t14 152.5t50.5 108.5t107 66t184 22.5q137 0 213 -33t105.5 -100t34 -170t-0.5 -244z" />
</svg>