<svg xmlns="http://www.w3.org/2000/svg" xmlns:xlink="http://www.w3.org/1999/xlink" version="1.1" viewBox="-10 0 2068 2048">
   <path fill="currentColor"
d="M1714 797q46 0 103.5 18.5t109 48t86.5 73t35 87.5q0 46 -35 89.5t-86.5 73t-109 47.5t-103.5 18h-414l-358 625q-14 27 -40.5 42t-57.5 15h-200q-28 0 -45.5 -22t-8.5 -50l174 -610h-366l-154 205q-17 22 -44 22h-150q-20 0 -35 -14.5t-15 -34.5q0 -5 2 -15l112 -391
l-112 -391q-2 -10 -2 -14q0 -21 15 -35.5t35 -14.5h150q26 0 44 23l154 205h366l-174 -610q-8 -28 9 -50.5t45 -22.5h200q31 0 57.5 15t40.5 42l358 626h414z" />
</svg>