<svg xmlns="http://www.w3.org/2000/svg" xmlns:xlink="http://www.w3.org/1999/xlink" version="1.1" viewBox="-10 0 2068 2048">
   <path fill="currentColor"
d="M542 542q-112 112 -162 255q-18 53 -69.5 77t-104 5.5t-77 -69.5t-5.5 -104q71 -204 224 -357q138 -138 315.5 -209.5t358 -72t358.5 70t316 206.5l178 -177q21 -22 52 -28.5t60 5.5q28 11 45 37t17 58v547q0 42 -29.5 72t-72.5 30h-36h-510q-32 0 -57.5 -17.5t-37.5 -46
t-6 -59.5t27 -52l178 -175q-99 -97 -226 -147t-255.5 -50t-255.5 51.5t-225 149.5zM0 1264q0 -43 30.5 -73t73.5 -30h32h4h508q32 0 57.5 17.5t38.5 46.5q11 28 5 58.5t-27 52.5l-176 177q98 96 225 146t256 49.5t256 -52t225 -148.5q110 -111 160 -255q19 -54 70.5 -78.5
t104 -6t77 70t6.5 105.5q-71 201 -226 357q-138 137 -315.5 208t-358 71.5t-358.5 -70.5t-316 -206l-176 178q-22 21 -52.5 27t-59.5 -5q-28 -13 -46 -38t-18 -56v-511v-3v-32z" />
</svg>