<svg xmlns="http://www.w3.org/2000/svg" xmlns:xlink="http://www.w3.org/1999/xlink" version="1.1" viewBox="-10 0 2068 2048">
   <path fill="currentColor"
d="M998 307h360q31 0 53.5 22.5t22.5 53.5v359q0 23 -13 42.5t-34.5 28.5t-44.5 4.5t-40 -20.5l-106 -108l-168 169q98 145 98 319q0 115 -44.5 219t-119.5 180t-179.5 120.5t-219 44.5t-219 -44.5t-179.5 -120.5t-120 -180t-45 -219t45 -219t120 -179.5t179.5 -120
t219.5 -44.5q172 0 318 100l170 -169l-108 -107q-17 -16 -21.5 -39t4.5 -45t28.5 -34.5t42.5 -12.5zM1280 461zM204 1177q0 97 48.5 180t131 131t180 48t180 -48t130.5 -131t48 -180t-48 -179.5t-130.5 -130.5t-180 -48t-180 48t-131 130.5t-48.5 179.5zM1178 1741h-2
q-108 0 -204 -38q90 -71 154 -170q16 3 52 3q97 0 179.5 -48t130.5 -131t48 -180q0 -78 -32 -146.5t-88 -119.5l10 -3q50 -21 80 -66.5t30 -99.5v-68l128 -129l-106 -107q-22 -23 -22 -54v-1q0 -9 6 -29q8 -22 27.5 -34.5t42.5 -12.5h358q32 0 55 22.5t23 53.5v359
q0 23 -13.5 42.5t-35 28.5t-44 4.5t-39.5 -20.5l-106 -108l-168 169q98 145 98 319q0 115 -44.5 219t-119.5 180t-179.5 120.5t-218.5 44.5z" />
</svg>