<svg xmlns="http://www.w3.org/2000/svg" xmlns:xlink="http://www.w3.org/1999/xlink" version="1.1" viewBox="-10 0 2058 2048">
   <path fill="currentColor"
d="M320 96v112l340 -85q115 -28 232 -15.5t222 65.5q139 70 294.5 70t293.5 -70l40 -20q30 -16 62 -12.5t57.5 18.5t42 43.5t16.5 62.5v1118q0 40 -23 73.5t-61 46.5l-138 52q-139 52 -286.5 44.5t-279.5 -74.5q-114 -57 -240.5 -70.5t-249.5 17.5l-322 80v400q0 40 -28 68
t-67.5 28t-68 -28t-28.5 -68v-351v-198v-1147v-160q0 -40 28.5 -68t68 -28t67.5 28t28 68zM320 406v948l276 -69q157 -39 316 -21t304 90q97 48 205.5 53.5t208.5 -32.5l98 -36v-967q-168 69 -351 62t-349 -89q-155 -78 -322 -36z" />
</svg>