<svg xmlns="http://www.w3.org/2000/svg" xmlns:xlink="http://www.w3.org/1999/xlink" version="1.1" viewBox="-10 0 2058 2048">
   <path fill="currentColor"
d="M767 256q0 -106 75.5 -181t181.5 -75t181 75t75 181t-75 181t-181 75t-181.5 -75t-75.5 -181zM960 1536v384q0 52 -37.5 90t-90 38t-90.5 -38t-38 -90v-769l-84 133q-28 45 -79.5 56.5t-96.5 -17t-57 -79.5t16 -96l160 -253q75 -119 198 -187t263 -68t262.5 67.5
t197.5 186.5l160 254q29 45 17.5 96.5t-56.5 79.5t-96.5 16.5t-80.5 -56.5l-84 -133v769q0 52 -37.5 90t-90 38t-90.5 -38t-38 -90v-384h-128z" />
</svg>