<svg xmlns="http://www.w3.org/2000/svg" xmlns:xlink="http://www.w3.org/1999/xlink" version="1.1" viewBox="-10 0 2068 2048">
   <path fill="currentColor"
d="M982 17q18 -14 40 -14t40 14l192 160q18 14 22.5 36.5t-6.5 42.5v0v0l-2 1v2q-1 1 -2 4.5t-2 5.5q-2 4 -5 8.5t-7 12t-8 12.5q-1 2 -2.5 6t-1.5 6q104 59 166 163t62 227.5t-62 227.5t-166 163q4 8 4 11q4 7 10.5 19t9.5 16q1 2 2 5.5t2 4.5v2h2v0q10 20 5.5 43t-21.5 37
l-168 140v79l142 -97l164 -114q128 -89 200 -225.5t72 -292.5q0 -189 -106 -349l-10 -17q-13 -18 -11.5 -39t16 -37.5t36 -21.5t41.5 5l-30 58l30 -58v0v1l4 3q1 0 14 7q18 9 48 29q79 54 140 116q212 211 212 476q0 260 -206 533q-66 88 -136 158q-13 13 -46 43q-3 3 -8 7
t-6 5l-4 4v1v0l-42 -49l42 49q-16 13 -36.5 14.5t-37.5 -8.5l-302 -172l-130 90l182 125q2 0 10.5 -1.5t13.5 -1.5q39 0 66.5 28t27.5 68t-27.5 68t-66.5 28q-37 0 -64.5 -24t-31.5 -60l-160 -109v116q29 17 45.5 46t16.5 64q0 53 -37 90t-89.5 37t-90 -37t-37.5 -90
q0 -35 17 -64t47 -46v-113l-162 111q-6 34 -32 56.5t-62 22.5q-39 0 -67.5 -27.5t-28.5 -67.5t28.5 -68t67.5 -28q13 0 26 3l184 -125l-132 -90l-300 172q-18 10 -38 8.5t-36 -14.5l42 -49l-42 49v0l-2 -1l-2 -4q-3 -3 -14 -11q-13 -12 -46 -44q-67 -67 -138 -159
q-204 -277 -204 -532q0 -266 212 -477q64 -64 140 -116q27 -18 48 -29l5 -2.5l5 -2.5l4 -2l2 -3h2v0l30 57l-30 -57q20 -10 41.5 -5.5t36 21t15.5 37t-11 39.5l-12 18q-106 158 -106 348q0 156 73 292.5t201 225.5l164 114l138 94v-76l-168 -140q-19 -14 -23.5 -37t7.5 -43
v0h2v-2q1 -1 2 -4.5t2 -5.5l18 -34q4 -6 6 -12q-104 -59 -166 -163t-62 -228t62 -227.5t166 -162.5q-1 -1 -3.5 -5t-2.5 -6q-4 -7 -7 -13t-6 -12.5t-5 -8.5l-4 -10l-2 -2v0v0q-11 -20 -6.5 -43t22.5 -37l190 -159zM878 492q-51 34 -81.5 90t-30.5 122t30.5 122.5t81.5 90.5
q48 -135 48 -213q0 -77 -48 -212zM1164 917q51 -34 81.5 -90.5t30.5 -122t-30.5 -121.5t-81.5 -91q-46 130 -46 212q0 84 46 213z" />
</svg>