<svg xmlns="http://www.w3.org/2000/svg" xmlns:xlink="http://www.w3.org/1999/xlink" version="1.1" viewBox="-10 0 2068 2048">
   <path fill="currentColor"
d="M682 1307q-38 1 -82.5 -10t-95 -37.5t-95 -65t-81.5 -98t-54 -130.5q-16 -62 -18 -146.5t-8 -129.5q-34 -217 -180 -244q-32 -4 -58 -1h-8l-1 -0.5t-1 -1.5q2 -1 4 -2.5t4 -2.5q85 -62 204.5 -91t231.5 -21q80 7 149.5 38t121.5 76.5t99.5 99.5t94.5 109.5t95 103
t112 82.5t136 45q11 2 31.5 3.5t26.5 1.5q2 0 4.5 0.5t3.5 0.5q-6 7 -45 23.5t-71 22.5q-89 17 -164 -33q-11 -6 -55 -43t-71 -44q-17 -4 -34.5 -4t-35 5.5t-29.5 21t-15 39.5q-2 28 13.5 68t56 88.5t96.5 82.5q61 38 143.5 56t157.5 15t129 -23q1 0 2.5 -1t2 -1t1 0.5
t2.5 0.5q-58 70 -158.5 113t-187.5 32q-46 -5 -88.5 -32.5t-77.5 -66t-66.5 -78.5t-66.5 -78t-65 -57q-32 -18 -68.5 -18.5t-65 20t-32.5 58.5q-4 39 20 88q22 44 51.5 75.5t57 46t51 22.5t40 11t18.5 4q-7 2 -39 4.5t-43 2.5zM242 412q19 23 45.5 26t45.5 -10.5t21 -37.5
q-71 6 -118 16q1 2 6 6zM872 1534q-100 3 -209 -53t-187 -143q-10 -11 -32.5 -39.5t-27.5 -36.5l2 -1q3 2 17.5 11.5t28 17.5t33.5 19.5t45 21.5t52 17q115 35 228 -11q37 -14 67.5 -12.5t48.5 8.5t22 13q-42 9 -54.5 13.5t-21.5 12.5q-14 10 -9.5 26.5t31.5 28.5
q26 13 68 17.5t78 4.5t81.5 14.5t82.5 44.5q22 16 32 34v1.5v0.5q-1 0 -16 -5t-27 -8.5t-36 -8t-51 -7.5q-43 -3 -123.5 7.5t-122.5 11.5zM1430 728q2 0 7 -2q38 -11 62 -17t66 -6t77 14q74 31 104 111q16 41 16 91q-1 0 -2 1q-2 -1 -2 -4q-8 -37 -36 -65.5t-74 -40.5
t-106 10q-61 23 -135 27t-151 -11.5t-151.5 -59t-128.5 -110.5l-2 -1q-4 -4 -2 -8h2.5t3.5 1l4 2q86 63 192 84q126 26 256 -16zM1760 1104q-29 1 -53 17.5t-46 42.5t-49 54t-75 54t-109 38q-79 17 -144 13v-1l16 -5t36.5 -17t41.5 -32q34 -30 74 -72q30 -31 50 -49
t53.5 -40t72.5 -30.5t86 -5.5q15 2 28 4t23.5 5t17.5 5.5t15 7t11.5 6.5t11 7t9.5 6v1.5v0.5h-2q-25 -10 -68 -10zM1720 1027v1q-49 -7 -67 -9t-50.5 -3t-55.5 5.5t-47 19.5q-3 3 -25.5 16t-29 16.5t-27.5 13.5t-34.5 14.5t-36 10t-45.5 7.5q-64 9 -113 3.5t-99 -29.5h-1.5
t-2.5 -1v-2q57 11 96.5 9t81.5 -27q10 -5 40.5 -24t44 -26t39.5 -19.5t51 -19.5t53 -11q129 -17 228 55zM860 516q-1 0 -3.5 -3t-4.5 -5q103 0 172 27q28 12 53.5 29t57 41t49.5 36q49 31 116 26q13 0 42 -5q2 0 4 1l-6 3q-36 19 -80 23q-111 12 -236 -50q-92 -48 -164 -123
zM2048 1279q-8 7 -27 14t-49 10.5t-62 -7.5q-17 -5 -32.5 -17t-34 -30.5t-33.5 -29.5q-5 -3 -10 -6.5t-11 -6t-10.5 -4.5t-11 -3t-10 -2t-10.5 -2t-9 -1t-9.5 -0.5t-8.5 -1.5q2 -3 4 -4q76 -46 152 -21q14 5 28 14.5t20.5 15.5t24.5 24l23 23q13 12 26.5 19.5t21.5 9.5
t17 3.5l9 1.5zM1368 1717q4 3 4 6q-92 -6 -150 -71q-14 -16 -28.5 -29.5t-28.5 -22.5t-25 -15.5t-24.5 -11.5t-19.5 -7t-17 -4.5t-11 -3.5l4 -2q70 0 124 13q14 4 27.5 10t23.5 12t20.5 15t17 15.5t14.5 17t11 15.5t10 15.5t8 12.5q13 21 40 35z" />
</svg>