<svg xmlns="http://www.w3.org/2000/svg" xmlns:xlink="http://www.w3.org/1999/xlink" version="1.1" viewBox="-10 0 2068 2048">
   <path fill="currentColor"
d="M706 1991q-56 57 -137 57t-139 -57l-372 -374q-58 -57 -58 -138t58 -138l204 -206l196 195q19 19 46 19t45.5 -19t18.5 -46.5t-18 -46.5l-194 -194l168 -169l194 196q18 19 45.5 19t46 -19t18.5 -46t-18 -46l-196 -195l168 -168l196 194q18 19 45.5 19t46 -19t18.5 -45.5
t-18 -45.5l-196 -195l168 -168l196 195q18 19 45.5 19t46 -19t18.5 -46t-18 -46l-196 -195l206 -206q58 -57 139 -57t137 57l374 374q58 57 58 138t-58 138z" />
</svg>