<svg xmlns="http://www.w3.org/2000/svg" xmlns:xlink="http://www.w3.org/1999/xlink" version="1.1" viewBox="-10 0 2068 2048">
   <path fill="currentColor"
d="M1844 0q84 0 144 59.5t60 144.5v1640q0 85 -60 144.5t-144 59.5h-1640q-84 0 -144 -59.5t-60 -144.5v-1640q0 -85 60 -144.5t144 -59.5h1640zM1724 680q13 -290 -216 -296q-308 -9 -418 348q29 -12 58.5 -19t59 -5t51.5 13.5t33.5 40t7.5 72.5q-8 79 -100 223
q-86 136 -133 145q-41 8 -74 -74q-41 -105 -101 -489q-20 -126 -73 -185.5t-139 -51.5q-29 3 -65.5 21t-85 56.5t-84.5 69.5t-102 90.5t-99 88.5l70 89q100 -69 116 -69q56 0 98 108.5t117 392.5q30 114 47 176q89 239 220 239q209 0 510 -392q293 -378 302 -592z" />
</svg>