<svg xmlns="http://www.w3.org/2000/svg" xmlns:xlink="http://www.w3.org/1999/xlink" version="1.1" viewBox="-10 0 2058 2048">
   <path fill="currentColor"
d="M1570 892q50 75 115 91q11 4 39 4t39 4q4 2 9.5 4.5t11.5 5.5q12 6 16 6q3 0 8 7q4 6 8 6q3 -3 9 -11q4 -6 0 -10q-6 -6 -9 -10q-4 -5 -4 -10q-26 -26 -61 -37q-31 -14 -50 -21q-25 -9 -49 -20q-35 -22 -88 -99q-51 -74 -97 -95q-6 -4 -28 -10q-24 -7 -29 -10
q-20 -12 -43 -62q-23 -51 -19 -74q0 -4 29 -45t12 -74t-33 -115q-29 -84 -8 -140q5 -14 31 -57q24 -40 37 -68q11 -23 -6 -52q-136 133 -91 313q0 4 13 45q11 34 16 58q21 56 -4 86q-12 16 -29 10q-16 -6 -24 2q-13 13 -17 13q21 -29 21 -58q0 -37 -29 -66t-70 -29h-4
q4 -16 -12 -28q-67 -41 -50 -66q3 -4 29 -21q47 -23 70 -49q29 -38 29 -82q17 -66 -4 -103q-8 -17 -25 -4q-25 24 -8 53l4 5h4v4q17 57 -33 102q-27 32 -53 54q-38 24 -50 45h-36q-11 -4 -33 -4t-33 4h-37q-21 -29 -49 -45q-23 -18 -54 -49q-50 -57 -33 -107v-4h4l4 -5
q16 -29 -8 -53q-12 -8 -19.5 -1t-9.5 30q-7 45 0 78q0 44 29 82q23 26 70 49q26 17 29 21q17 25 -49 66q-17 12 -13 28h-4q-41 0 -68 29q-26 27 -26 66q0 38 16 58q-4 0 -12 -13q-8 -8 -29 -2q-22 6 -29 -10q-25 -30 -4 -86q3 -15 17 -58q12 -38 12 -45q45 -180 -91 -313
q-17 29 -6 52q13 28 37 68q26 43 31 57q21 56 -8 140q-16 82 -33 115t10 72q21 30 31 47q5 24 -18 74t-44 62q-6 4 -28 10q-24 7 -29 10q-46 21 -97 95q-53 77 -88 99q-15 11 -51 22q-32 10 -47 19q-37 12 -62 37q0 5 -4 10q-6 8 -8 10q-4 4 0 10q1 1 3.5 5t4.5 6q3 0 8 -6
q5 -7 8 -7q4 0 17 -8t20 -8q11 -4 39 -4t39 -4q65 -16 115 -91q110 -147 115 -152q8 17 6 25t-14 27q-12 18 -12 22q-18 33 -41 91q-30 94 -37 193q-4 55 -4 193q12 171 16 177t2 22q-2 15 -6 21q-3 4 -10 18q-3 6 -6 11.5t-5 9.5q-18 39 -32 82q-25 89 -13 181v45
q-8 25 -66 54q-49 24 -78 65q-21 21 -16 46q8 37 33 20q-8 -8 -8 -16q-5 -22 49 -46q20 -15 86 -53q1 -1 10 -5.5t15 -8.5q4 -2 27 -19q9 -6 14 -20q4 -11 -4 -41.5t-8 -32.5q-17 -105 20 -202q4 -12 12 -12q6 0 13 18t14 44q6 24 10 28q23 64 46 95q50 95 131 172
q103 95 164 103q42 5 76 -26q37 -34 44 -72q0 -6 4 -13v-8v8q4 7 4 13q33 110 119 98q56 -8 164 -103q83 -79 132 -172q9 -9 49 -95q0 -5 4 -14q4 -10 6 -23q1 -10 6 -26q4 -15 9 -21t8 -6q7 0 12 12q38 99 21 202q0 1 -1 5t-3.5 12t-4.5 16q-8 30 -4 41q5 13 15 20
q1 0 10 7.5t15.5 11.5t15.5 8.5t10 5.5q66 38 86 53q55 24 50 46q0 7 -9 16q25 17 33 -20q5 -25 -16 -46q-29 -41 -78 -65q-58 -29 -66 -54v-12v-19v-14q12 -94 -12 -181q-11 -36 -33 -82l-5.5 -11t-8.5 -16q-12 -21 -13 -24q-2 -9 2 -31q17 -42 17 -177q0 -138 -4 -193
q-17 -134 -37 -193q-23 -58 -41 -91q0 -3 -13 -22q-12 -19 -14 -27t6 -25q5 5 115 152z" />
</svg>