<svg xmlns="http://www.w3.org/2000/svg" xmlns:xlink="http://www.w3.org/1999/xlink" version="1.1" viewBox="-10 0 2068 2048">
   <path fill="currentColor"
d="M1626 1599q109 -115 169.5 -263t60.5 -312q0 -113 -30 -221t-83.5 -199t-130.5 -168t-168 -130.5t-199 -83.5t-221 -30t-220.5 30t-199 83.5t-168 130.5t-130.5 168t-84 199t-30 221q0 164 61 312t169 263q59 -142 188 -230.5t286 -88.5h256q158 0 287 88.5t187 230.5z
M1466 1730q-22 -111 -110.5 -184.5t-203.5 -73.5h-256q-115 0 -203.5 73.5t-110.5 184.5q205 127 442 127q238 0 442 -127zM1024.5 2048q-139.5 0 -272 -37t-245 -102.5t-207 -160t-160.5 -207t-103 -245.5t-37 -272t37 -272t103 -245.5t160.5 -207t207 -160t245 -102.5
t272 -37t272 37t244.5 102.5t206.5 160t160.5 207t103 245.5t37 272t-37 272t-103 245.5t-160.5 207t-206.5 160t-244.5 102.5t-272 37zM1024.5 960q66.5 0 113 -46.5t46.5 -113.5t-46.5 -113.5t-113 -46.5t-113.5 46.5t-47 113.5t47 113.5t113.5 46.5zM672 800
q0 -95 47.5 -176.5t128.5 -128.5t176.5 -47t176.5 47t128 128.5t47 176.5t-47 176.5t-128 128.5t-176.5 47t-176.5 -47t-128.5 -128.5t-47.5 -176.5z" />
</svg>