<svg xmlns="http://www.w3.org/2000/svg" xmlns:xlink="http://www.w3.org/1999/xlink" version="1.1" viewBox="-10 0 2068 2048">
   <path fill="currentColor"
d="M0 1024q0 -139 37 -272t103 -245.5t160.5 -207t207 -160t245 -102.5t272 -37t272 37t244.5 102.5t206.5 160t160.5 207t103 245.5t37 272t-37 272t-103 245.5t-160.5 207t-206.5 160t-244.5 102.5t-272 37t-272 -37t-245 -102.5t-207 -160t-160.5 -207t-103 -245.5
t-37 -272zM964 1509l416 -417q29 -28 29 -68t-29 -68l-416 -415q-27 -28 -66.5 -28t-68 28t-28.5 67.5t29 67.5l346 348l-346 348q-29 28 -28.5 68t28 69t67 29t67.5 -29z" />
</svg>