<svg xmlns="http://www.w3.org/2000/svg" xmlns:xlink="http://www.w3.org/1999/xlink" version="1.1" viewBox="-10 0 2068 2048">
   <path fill="currentColor"
d="M140 1152h180q27 0 45.5 -19t18.5 -45v-801q0 -67 47 -113t113.5 -46t113 46t46.5 113v529q0 33 24 56.5t57 23.5t56 -23.5t23 -56.5v-656q0 -67 47 -113.5t113.5 -46.5t113 46.5t46.5 113.5v656q0 33 24 56.5t57 23.5t56 -23.5t23 -56.5v-529q0 -67 46.5 -113t113 -46
t113.5 46t47 113v801q0 26 18.5 45t45.5 19h182q57 0 97.5 40.5t40.5 98.5q0 52 -36 93l-346 380q-123 136 -290.5 210t-351 74t-351.5 -74t-291 -210l-346 -380q-36 -41 -36 -93q0 -58 41 -98.5t99 -40.5zM1024.5 1152q-53.5 0 -112 22t-108 58t-82 64t-60.5 57
q-22 24 -22 55t22 55q29 29 60.5 57t82 64t108.5 58.5t111.5 22.5t111.5 -22.5t108.5 -58.5t82 -64t59.5 -57q22 -24 22 -55t-22 -55q-27 -29 -59.5 -57t-82 -64t-108 -58t-112 -22zM1024.5 1280q52.5 0 90 37.5t37.5 90.5t-37.5 90.5t-90 37.5t-90.5 -38t-38 -90t38 -90
t90.5 -38z" />
</svg>