<svg xmlns="http://www.w3.org/2000/svg" xmlns:xlink="http://www.w3.org/1999/xlink" version="1.1" viewBox="-10 0 2058 2048">
   <path fill="currentColor"
d="M1778 324q-104 -187 -258 -291q-108 -66 -208 0l-168 100q-58 33 -120 33t-120 -33l-168 -100q-100 -66 -208 0q-154 104 -258 291q-99 165 -76 390q22 222 160 397q-10 55 -12 65q-9 39 -16 152q-5 106 8 212q12 101 64 217q51 115 140 191q6 3 16 13q3 3 40 33
q30 25 54 34q4 2 54 16q31 9 42 -12q9 -19 16 -61q6 -42 -18 -123q-21 -46 -16 -152q6 -105 28 -212q20 -106 93.5 -191t176.5 -94q103 9 176.5 94t93.5 191q22 107 28 212q6 108 -14 152q-47 167 6 192q52 25 126 -33l72 -59q140 -117 186 -326q47 -210 22 -361l-26 -150
q138 -175 160 -397q23 -225 -76 -390z" />
</svg>