<svg xmlns="http://www.w3.org/2000/svg" xmlns:xlink="http://www.w3.org/1999/xlink" version="1.1" viewBox="-10 0 2068 2048">
   <path fill="currentColor"
d="M1812 128q117 0 184.5 81t46.5 197l-226 1236q-21 115 -119 196.5t-215 81.5h-1247q-117 0 -184.5 -81.5t-46.5 -196.5l227 -1236q21 -115 118.5 -196.5t214.5 -81.5h1247zM1580 1516l25 -30l-379 -478l-19 -30q34 -23 68.5 -48.5t52.5 -38.5t21 -15q23 -19 19.5 -56
t-30.5 -68q-28 -33 -64 -42.5t-59 10.5q-57 54 -135 128l-20 -16l-412 -450l-35 20l-75 114l275 400l81 118q-76 77 -131 140l-231 -126l-63 62l209 194l162 244l72 -52l-88 -256q80 -49 167 -108l461 440z" />
</svg>