<svg xmlns="http://www.w3.org/2000/svg" xmlns:xlink="http://www.w3.org/1999/xlink" version="1.1" viewBox="-10 0 2058 2048">
   <path fill="currentColor"
d="M1867 1636q-51 -17 -94 4q-45 21 -65 67q0 2 -2 10t-2 11l-467 -171l467 -167l4 8v9q20 45 65 68t94 7q44 -16 66 -63q21 -47 5 -92q-17 -54 -76 -75q29 -56 9 -104q-17 -46 -63 -67t-92 -4q-45 16 -66 62q-21 45 -4 92q4 4 4 11q0 6 4 10l-630 230l-630 -230
q8 -15 8 -21q16 -47 -4.5 -92.5t-66.5 -61.5t-91 4q-47 21 -63 67q-21 57 8 104q-59 21 -75 75q-16 45 7 90t68 65q45 16 90 -7t65 -68v-9l4 -8l467 167l-467 171q0 -3 -2 -11t-2 -10q-21 -46 -65 -67q-43 -21 -90 -4q-46 16 -68.5 63t-6.5 91q21 59 75 71q-29 55 -8 105
q16 47 63 69q45 22 91 6q45 -21 67 -65q21 -43 4 -94q0 -8 -8 -16l630 -230l630 230q-8 8 -8 16q-17 51 4 94q22 45 66 65q46 16 92 -6t63 -69q17 -50 -9 -105q55 -12 76 -71q16 -45 -5 -91q-22 -47 -66 -63zM473 993q0 83 59 142t142 59q3 0 8 -5v21q0 42 27 69t69 27
q50 0 75 -37q28 58 88 58q54 0 83 -50q29 50 83 50q60 0 88 -58q25 37 75 37q42 0 69 -27t27 -69v-21h4l4 5q83 0 142 -59t59 -142q0 -50 -21 -92q75 -129 75 -296q0 -251 -177 -428t-428 -177t-428 177t-177 428q0 167 75 296q-21 42 -21 92zM1333 568q67 0 110 43
q44 44 44 107q0 61 -44 108q-43 46 -110 46q-64 0 -107 -46q-44 -47 -44 -108q0 -63 44 -107q43 -43 107 -43zM1024 885q108 47 108 142q0 38 -23 50t-50 -4q-26 -16 -35 -50q-10 34 -35 50q-27 17 -51 4q-23 -12 -23 -50q0 -41 28 -78q26 -35 56 -52zM715 568q64 0 107 43
t43 107q0 62 -43 108t-107 46q-67 0 -110 -46q-44 -47 -44 -108q0 -63 44 -107q43 -43 110 -43z" />
</svg>