<svg xmlns="http://www.w3.org/2000/svg" xmlns:xlink="http://www.w3.org/1999/xlink" version="1.1" viewBox="-10 0 2068 2048">
   <path fill="currentColor"
d="M1856 1024q0 -113 -30 -221t-83.5 -199t-130.5 -168t-168 -130.5t-199 -83.5t-221 -30t-220.5 30t-199 83.5t-168 130.5t-130.5 168t-84 199t-30 221t30 221t84 199t130.5 168t168 131t199.5 84t220.5 30t220.5 -30t199 -84t168 -131t130.5 -168t83.5 -199t30 -221z
M0 1024q0 -139 37 -272t103 -245.5t160.5 -207t207 -160t245 -102.5t272 -37t272 37t244.5 102.5t206.5 160t160.5 207t103 245.5t37 272t-37 272t-103 245.5t-160.5 207t-206.5 160t-244.5 102.5t-272 37t-272 -37t-245 -102.5t-207 -160t-160.5 -207t-103 -245.5t-37 -272
zM1218 1127q30 37 30 73q0 37 -30 74q-21 27 -66 53q-13 8 -34 17q21 9 34 17q42 24 66 55q30 37 30 72q0 37 -30 74q-21 27 -66 53q-92 50 -192 50q-10 0 -19 -7.5t-11 -17.5q-6 -24 14 -36v0v0q4 0 6 -2l5 -3.5t7 -5.5q39 -28 42 -30q22 -18 38 -40q14 -20 14 -35t-14 -35
q-14 -19 -38 -40q-3 -2 -42 -30q-2 -2 -7 -5.5l-5 -3.5l-4 -2h-2v0v0q-16 -8 -16 -28t16 -28v0v0v0q4 0 6 -2l5 -3.5t7 -5.5q39 -28 42 -30q22 -18 38 -40q14 -20 14 -35t-14 -35q-14 -19 -38 -40q-3 -2 -42 -30q-2 -2 -7 -5.5l-5 -3.5q-2 -2 -6 -2v0v0q-20 -12 -14 -36
q2 -10 11 -17.5t19 -7.5q100 0 192 50q45 26 66 53v1zM578 832.5q0 -52.5 37.5 -90.5t90 -38t90.5 38t38 90.5t-38 90t-90.5 37.5t-90 -37.5t-37.5 -90zM1345.5 704q52.5 0 90.5 38t38 90.5t-38 90t-90.5 37.5t-90 -37.5t-37.5 -90t37.5 -90.5t90 -38z" />
</svg>