<svg xmlns="http://www.w3.org/2000/svg" xmlns:xlink="http://www.w3.org/1999/xlink" version="1.1" viewBox="-10 0 2068 2048">
   <path fill="currentColor"
d="M2010 219l-160 160q-38 37 -91 37t-90 -37.5t-37 -90.5t37 -90l159 -160q38 -38 91 -38t91 37.5t38 90.5t-38 91zM731 1499l-511 511q-38 37 -91 37t-91 -37.5t-38 -90.5t38 -90l512 -512q38 -38 91 -38t90 37.5t37 91t-37 91.5zM960 512q-113 0 -211 53t-160 144
t-74 202q-6 52 -47.5 85.5t-94 27.5t-85.5 -47.5t-27 -93.5q14 -131 75 -246.5t153 -199t214.5 -132t256.5 -48.5q143 0 273.5 55.5t225 150t150 224.5t55.5 274q0 135 -48.5 257t-137.5 219q-70 76 -70 139v25q0 91 -35.5 174t-95.5 142.5t-143 95t-174 35.5q-52 0 -90 -38
t-38 -90.5t37.5 -89.5t90.5 -37q80 0 136 -56.5t56 -135.5v-25q0 -163 137 -312q57 -61 88 -139t31 -164q0 -92 -35.5 -175t-95.5 -143t-143 -95.5t-174 -35.5zM960 833q-52 0 -90 37.5t-38 90.5q0 39 -28 67t-68 28t-67.5 -28t-27.5 -67q0 -87 42.5 -161t116 -117
t160.5 -43t161 43t117 117t43 161q0 39 -28.5 67t-68.5 28t-68 -28t-28 -67q0 -53 -38 -90.5t-90 -37.5z" />
</svg>