<svg xmlns="http://www.w3.org/2000/svg" xmlns:xlink="http://www.w3.org/1999/xlink" version="1.1" viewBox="-10 0 2068 2048">
   <path fill="currentColor"
d="M2048 285q-73 49 -128 96t-86.5 86t-49 66t-30 54.5t-14.5 30.5q-10 17 -32.5 122.5t-43.5 145.5q-16 34 -56 65.5t-97 63l-57 31.5q-45 30 -136 205q-51 -2 -100 1t-90 8t-86.5 17.5t-78.5 22.5t-79 31t-74.5 35t-77.5 41.5t-76 43.5t-82 49.5t-84 50.5q41 -13 76 -26.5
t49 -20.5l13 -7q44 -16 106 -41.5t99 -40.5t92 -34t96.5 -29t100.5 -19t116.5 -10.5t131.5 2.5t158 15l8 3q10 6 13 15.5t-3 18.5l-172 307q-5 12 -17 17t-25 2q-114 -21 -231 -23t-220.5 10.5t-196.5 28t-193.5 29t-178.5 14.5q-65 1 -121.5 -9.5t-90 -26t-57.5 -33
t-33.5 -28.5t-9.5 -14q0 -6 6 -6q13 0 39.5 -1t112 -13.5t178.5 -34.5q87 -166 171.5 -283.5t168 -188t164.5 -102.5t170 -32q4 0 12.5 0.5t33.5 4.5t48.5 11t54.5 21.5t56.5 35t48.5 53t36 72.5l90 -157q1 0 27.5 -53t55.5 -107.5t83 -137.5t110 -154q48 -58 95.5 -105
t82.5 -75t77.5 -53t65.5 -35t61 -26z" />
</svg>