<svg xmlns="http://www.w3.org/2000/svg" xmlns:xlink="http://www.w3.org/1999/xlink" version="1.1" viewBox="-10 0 2058 2048">
   <path fill="currentColor"
d="M1673 1167l177 164q11 10 10 24.5t-13 24.5l-789 654q-17 13 -34.5 14t-26.5 -5l-9 -6l-832 -782q-10 -11 -8.5 -25t13.5 -24l183 -139q13 -10 29 -9.5t26 11.5l606 589q11 10 28 10.5t29 -9.5l371 -295q12 -10 13.5 -24.5t-9.5 -24.5l-335 -324q-10 -11 -27 -11.5
t-29 9.5t-29 9t-28 -11l-271 -256q-10 -11 -8.5 -25t13.5 -24l228 -174q12 -10 28.5 -9.5t26.5 11.5l678 668zM1890 834q12 10 11 24.5t-13 24.5l-182 143q-12 9 -28.5 8t-28.5 -11l-640 -634q-10 -11 -26.5 -11.5t-28.5 9.5l-367 285q-12 10 -14 24t8 25l378 366
q12 10 28 11t28 -9l1 -1q13 -10 30 -9.5t27 11.5l228 218q11 10 9.5 24t-14.5 24l-30 24l1 1l-200 156q-12 10 -28.5 9t-28.5 -11l-685 -660l-168 -166q-10 -11 -9 -25.5t13 -23.5l825 -646q33 -26 65 -4z" />
</svg>