<svg xmlns="http://www.w3.org/2000/svg" xmlns:xlink="http://www.w3.org/1999/xlink" version="1.1" viewBox="-10 0 2068 2048">
   <path fill="currentColor"
d="M704 288v160h640v-160q0 -13 -9.5 -22.5t-22.5 -9.5h-576q-13 0 -22.5 9.5t-9.5 22.5zM512 448v-160q0 -93 65.5 -158.5t158.5 -65.5h576q93 0 158.5 65.5t65.5 158.5v160v128v1408h-1024v-1408v-128zM256 448h128v1536h-128q-105 0 -180.5 -74.5t-75.5 -180.5v-1025
q0 -106 75.5 -181t180.5 -75zM1792 1984h-128v-1536h128q105 0 180.5 75t75.5 181v1025q0 106 -75.5 180.5t-180.5 74.5z" />
</svg>