<svg xmlns="http://www.w3.org/2000/svg" xmlns:xlink="http://www.w3.org/1999/xlink" version="1.1" viewBox="-10 0 2058 2048">
   <path fill="currentColor"
d="M1496 971q72 17 124.5 46.5t91 76t54 116t7.5 159.5t-39.5 158t-79.5 112.5t-119 73.5t-150 43t-182 19v272h-194v-266q-47 0 -153 -2v268h-195v-272q-36 -1 -389 -1l39 -230q16 0 43 1t39 1t32 -0.5t28.5 -2t22 -4t19.5 -7.5t13 -12t10.5 -17t5.5 -23v-870
q-6 -33 -22.5 -52t-43 -26t-64 -8.5t-85.5 0.5q-24 1 -37 1v-207q338 1 389 0v-318h195v311q104 -2 153 -2v-309h194v318q79 7 142 20.5t120.5 38t97.5 60t66.5 88.5t32.5 120q22 230 -166 326zM859 538v387q8 0 38.5 0.5t50.5 0.5t56 -1.5t61.5 -4.5t60 -9.5t58.5 -16
t49.5 -24.5t41.5 -34t26 -45.5t10 -58.5q0 -41 -15.5 -73.5t-38.5 -53t-61 -35t-69.5 -21t-77.5 -10t-72.5 -3.5t-67.5 1t-50 1zM859 1545q9 0 46.5 0.5t60 0.5t65.5 -2t72.5 -5.5t70 -10.5t68.5 -17.5t58.5 -27.5t48.5 -37.5t30 -50t12 -64.5q0 -36 -11.5 -66t-30.5 -51.5
t-48.5 -38t-59 -26.5t-68 -17t-70.5 -10t-72 -4t-66 -0.5t-59.5 1t-46.5 0.5v426z" />
</svg>