<svg xmlns="http://www.w3.org/2000/svg" xmlns:xlink="http://www.w3.org/1999/xlink" version="1.1" viewBox="-10 0 2058 2048">
   <path fill="currentColor"
d="M618 1237v-563h149v649q-19 13 -50.5 26t-73.5 22.5t-86 12.5t-87 -8t-76.5 -36t-54 -75.5t-20.5 -120.5v-470h150v477q0 41 13.5 66.5t32 32.5t40.5 5.5t38 -7t25 -11.5zM164 192q162 -86 376.5 -135.5t444 -56.5t468 41t431.5 151v1013q0 270 -160 443
q-115 126 -368 250q-90 44 -332 150q-312 -136 -427 -199q-229 -125 -328 -269q-105 -153 -105 -375v-1013zM1805 1205v-992q-115 -11 -220 -15t-226.5 1t-232 20.5t-230 47.5t-227.5 79.5t-218.5 118t-208.5 160.5v580q0 66 10 123t25.5 105t48 92.5t64 80t87.5 74.5
t104 68.5t128 69t145.5 69.5t169.5 76q104 -46 169 -76t145 -69.5t128 -69t104 -68.5t87 -74.5t63.5 -80t48.5 -92.5t26 -105t10 -123zM844 712q25 -16 61 -29.5t81.5 -20t91.5 -3t90.5 25.5t78.5 60t55 107t21 161q0 72 -12.5 131t-33 98.5t-48.5 68.5t-58.5 44t-62.5 22
t-60.5 5t-53.5 -9v315h-150v-976zM994 1250q6 2 13 4.5t25.5 4.5t35 -1.5t36 -18t33.5 -40t23.5 -73t9.5 -110.5q0 -59 -8 -103t-20.5 -70t-29 -41.5t-33 -20.5t-34 -4.5t-29.5 4.5t-22 9v460zM1356 854q0 -68 38.5 -116.5t94.5 -66.5t120 -9.5t112 45.5v131
q-40 -41 -92.5 -55.5t-90.5 3t-39 62.5q-1 24 12.5 44t35.5 35t49 30t53.5 34.5t48.5 43.5t34.5 62.5t11.5 86.5q-2 69 -39 117.5t-91.5 67.5t-122 11.5t-128.5 -43.5v-138q46 41 101 55.5t94 -6t38 -71.5q0 -26 -13.5 -47t-35 -36t-47 -29.5t-51 -33t-46.5 -41t-34 -57.5
t-13 -79z" />
</svg>