<svg xmlns="http://www.w3.org/2000/svg" xmlns:xlink="http://www.w3.org/1999/xlink" version="1.1" viewBox="-10 0 2068 2048">
   <path fill="currentColor"
d="M900 275l78 -55q6 -4 14 -8q14 -7 32 -7t32 7q3 2 7.5 4.5t6.5 3.5l80 55q163 114 356 167l74 21q15 5 16 6q15 7 26 22q20 26 16 57q-2 12 -8 25q-8 15 -22 26q-25 17 -48 16h-24v179l20 17l16 13q100 79 226 121l92 31l16 6q14 7 24.5 23t13.5 30q2 13 0 27
q-3 13 -10 25q-8 17 -20 25q-16 10 -32 13q-4 1 -16 1h-126v211q104 114 248 150q25 6 42.5 26.5t17.5 47.5q0 31 -23 54t-55 23h-126v103q0 42 -30.5 72t-73 30t-72.5 -30t-30 -72v-103h-512v103q0 42 -30 72t-72 30t-72 -30t-30 -72v-103h-512v103q0 42 -30 72t-72.5 30
t-73 -30t-30.5 -72v-103h-126q-32 0 -55 -23t-23 -54q0 -27 17.5 -47.5t42.5 -26.5q144 -36 248 -150v-211h-126q-12 0 -16 -1q-20 -5 -31.5 -13t-22.5 -25q-8 -16 -8 -25q-2 -15 0 -27q5 -18 14 -30q10 -16 24 -23l16 -6l92 -31q126 -42 226 -121l16 -13l20 -17v-27v-153
h-24q-26 0 -48 -16q-14 -10 -22 -26q-7 -20 -8 -25q-4 -31 14 -56q12 -15 26 -22q5 -3 18 -7l74 -20q194 -53 358 -167zM1332 614h-308h-308v205h232h152h232v-205zM512 1126v205h436h76h76h436v-205h-436h-76h-76h-436z" />
</svg>