<svg xmlns="http://www.w3.org/2000/svg" xmlns:xlink="http://www.w3.org/1999/xlink" version="1.1" viewBox="-10 0 2068 2048">
   <path fill="currentColor"
d="M1252 626v171h114q93 0 159.5 66.5t66.5 160.5v683q0 94 -66.5 160.5t-159.5 66.5h-1138q-94 0 -161 -66.5t-67 -160.5v-683q0 -94 67 -160.5t161 -66.5h796v-171q0 -104 40.5 -199t109 -163.5t163 -109t199 -40.5t199 40.5t163 109t109.5 163.5t41 199v171
q0 47 -33.5 80.5t-81 33.5t-80.5 -33.5t-33 -80.5v-171q0 -118 -83.5 -201t-201 -83t-200.5 83t-83 201z" />
</svg>