<svg xmlns="http://www.w3.org/2000/svg" xmlns:xlink="http://www.w3.org/1999/xlink" version="1.1" viewBox="-10 0 2068 2048">
   <path fill="currentColor"
d="M1004 392q22 -73 82.5 -118.5t135.5 -45.5h712q47 0 80.5 33t33.5 80.5t-33.5 80.5t-80.5 33h-712l-374 1284q-9 32 -35 54t-59.5 26.5t-64 -10.5t-47.5 -44l-366 -627h-162q-47 0 -80.5 -33.5t-33.5 -81t33.5 -80t80.5 -32.5h162q62 0 115 29.5t83 82.5l230 398z
M1398 944q34 -33 81 -33t81 33l146 147l148 -147q32 -33 79 -33t80 33t33 80t-32 80l-146 148l146 147q32 33 32 80.5t-33 80.5t-80 33t-79 -33l-148 -148l-148 148q-32 33 -80 33t-81 -33t-33 -80.5t34 -80.5l148 -147l-148 -148q-34 -33 -34 -80t34 -80z" />
</svg>