<svg xmlns="http://www.w3.org/2000/svg" xmlns:xlink="http://www.w3.org/1999/xlink" version="1.1" viewBox="-10 0 2068 2048">
   <path fill="currentColor"
d="M1408 1280q-115 0 -218 -38l-726 727q-38 38 -88 58.5t-104 20.5q-111 0 -191.5 -80t-80.5 -192t80 -191l726 -726q-38 -103 -38 -219q0 -130 51 -248.5t136.5 -204t204 -136.5t248.5 -51q90 0 178 25q31 9 37 41.5t-17 55.5l-306 307q-20 19 -20 46v229q0 26 19 45.5
t45 19.5h230q24 0 44 -20l308 -307q24 -24 56.5 -17.5t41.5 38.5q24 84 24 177q0 130 -51 248.5t-136.5 204.5t-203.5 136.5t-249 50.5zM320.5 1632q-39.5 0 -68 28.5t-28.5 68.5t28.5 67.5t68 27.5t67.5 -27.5t28 -67.5t-28 -68.5t-67.5 -28.5z" />
</svg>