<svg xmlns="http://www.w3.org/2000/svg" xmlns:xlink="http://www.w3.org/1999/xlink" version="1.1" viewBox="-10 0 2068 2048">
   <path fill="currentColor"
d="M1974 1781q-33 16 -70 11t-66 -30l-686 -571v474q0 37 -20 68t-54 48q-33 16 -70 11t-66 -30l-686 -571v474q0 53 -37.5 90.5t-90 37.5t-90.5 -37.5t-38 -90.5v-1281q0 -52 38 -90t90.5 -38t90 38t37.5 90v473l686 -572q29 -24 65.5 -28.5t70.5 11.5q34 17 54 48t20 68
v473l686 -572q29 -24 65.5 -28.5t70.5 11.5q34 17 54 48t20 68v1281q0 37 -20 68t-54 48z" />
</svg>