<svg xmlns="http://www.w3.org/2000/svg" xmlns:xlink="http://www.w3.org/1999/xlink" version="1.1" viewBox="-10 0 2068 2048">
   <path fill="currentColor"
d="M228 342h1592q93 0 160.5 66.5t67.5 159.5v910q0 94 -67.5 161t-160.5 67h-1592q-94 0 -161 -67t-67 -161v-910q0 -93 67 -159.5t161 -66.5zM456 1478q0 -93 -67.5 -159.5t-160.5 -66.5v226h228zM228 796q93 0 160.5 -67t67.5 -161h-228v228zM1592 1478h228v-226
q-94 0 -161 66.5t-67 159.5zM1820 796v-228h-228q0 94 67 161t161 67zM1024 682q-93 0 -172 45.5t-124.5 124.5t-45.5 171.5t45.5 171.5t124.5 124t172 45t171.5 -45t124.5 -124t46 -171.5t-46 -171.5t-124.5 -124.5t-171.5 -45.5z" />
</svg>