<svg xmlns="http://www.w3.org/2000/svg" xmlns:xlink="http://www.w3.org/1999/xlink" version="1.1" viewBox="-10 0 2068 2048">
   <path fill="currentColor"
d="M0 256q0 -106 75.5 -181t180.5 -75h640v512q0 52 38 90t90 38h512v576h-832q-105 0 -180.5 75t-75.5 181v576h-192q-105 0 -180.5 -74.5t-75.5 -180.5v-1537zM1536 512h-512v-512zM800 1408h64q67 0 113.5 46.5t46.5 113.5v33q0 26 -18.5 45t-45 19t-45.5 -19t-19 -45
v-33q0 -13 -9.5 -22.5t-22.5 -9.5h-64q-13 0 -22.5 9.5t-9.5 22.5v320q0 13 9.5 22.5t22.5 9.5h64q13 0 22.5 -9.5t9.5 -22.5v-31q0 -26 19 -45t45.5 -19t45 19t18.5 45v31q0 67 -46.5 113.5t-113.5 46.5h-64q-67 0 -113.5 -46.5t-46.5 -113.5v-320q0 -67 46.5 -113.5
t113.5 -46.5zM1332 1408h140q27 0 45.5 19t18.5 45t-18.5 45t-45.5 19h-140q-21 0 -36.5 15.5t-15.5 37.5q0 33 32 48l148 66q49 22 78.5 66.5t29.5 98.5q0 75 -53 127.5t-127 52.5h-172q-27 0 -45.5 -19t-18.5 -45t18.5 -45t45.5 -19h172q21 0 36.5 -15t15.5 -37
q0 -33 -32 -48l-148 -66q-50 -22 -79 -66.5t-29 -98.5q0 -75 53 -128t127 -53zM1727.5 1408q26.5 0 45.5 19t19 45v127q0 141 64 264q64 -123 64 -264v-127q0 -26 18.5 -45t45 -19t45.5 19t19 45v127q0 212 -118 390l-22 31q-18 28 -52 28t-54 -28l-20 -31
q-118 -178 -118 -390v-127q0 -26 18.5 -45t45 -19z" />
</svg>