<svg xmlns="http://www.w3.org/2000/svg" xmlns:xlink="http://www.w3.org/1999/xlink" version="1.1" viewBox="-10 0 2058 2048">
   <path fill="currentColor"
d="M449 243h807l-31 83h-776q-129 0 -220 89.5t-91 215.5v891q0 60 21.5 113t64 97t114.5 69.5t164 25.5v83h-53q-163 0 -279.5 -114t-116.5 -274v-891q0 -161 115.5 -274.5t280.5 -113.5zM1442 0h289q-83 217 -169 445.5t-138.5 367.5t-108 287t-88 230.5t-67 170t-56 133
t-44 92t-43 74.5t-40.5 53t-47 53q-128 134 -340 142v-221q76 -12 133.5 -49t87.5 -86t44.5 -97.5t14.5 -93.5v-2q0 -50 -20 -108.5t-153 -395.5q-106 -270 -182 -464h266l219 681zM1995 615v1295h-927q42 -62 53 -85h791v-1210q0 -199 -209 -273l28 -76q132 43 198 133.5
t66 215.5z" />
</svg>