<svg xmlns="http://www.w3.org/2000/svg" xmlns:xlink="http://www.w3.org/1999/xlink" version="1.1" viewBox="-10 0 2068 2048">
   <path fill="currentColor"
d="M724.5 1024q-112.5 0 -207.5 -55.5t-151 -151t-56 -208t56 -207.5t151 -150.5t207.5 -55.5t207.5 55.5t150.5 150.5t55.5 207.5t-55.5 208t-150.5 151t-207.5 55.5zM576 1178h296q80 0 164 24v108q0 106 74 180l320 322q-28 40 -78 40h-1256q-39 0 -67.5 -28.5
t-28.5 -67.5q0 -118 45.5 -225t123 -184t184 -123t223.5 -46zM1242 920h266q86 0 146 60l348 348q46 44 46 109t-46 111l-236 236q-46 46 -111 46t-109 -46l-348 -346q-60 -60 -60 -148v-266q0 -43 30.5 -73.5t73.5 -30.5zM1318 1178.5q0 32.5 23 55t55.5 22.5t55 -22.5
t22.5 -55t-22.5 -55.5t-55 -23t-55.5 23t-23 55.5z" />
</svg>