<svg xmlns="http://www.w3.org/2000/svg" xmlns:xlink="http://www.w3.org/1999/xlink" version="1.1" viewBox="-10 0 2068 2048">
   <path fill="currentColor"
d="M1024 192q-113 0 -220.5 30t-199 83.5t-168 130.5t-130.5 168t-84 199t-30 221t30 221t84 199t130.5 168t168 131t199.5 84t220.5 30t220.5 -30t199 -84t168 -131t130.5 -168t83.5 -199t30 -221t-30 -221t-83.5 -199t-130.5 -168t-168 -130.5t-199 -83.5t-221 -30z
M2048 1024q0 139 -37 272t-103 245.5t-160.5 207t-206.5 160t-244.5 102.5t-272 37t-272 -37t-245 -102.5t-207 -160t-160.5 -207t-103 -245.5t-37 -272t37 -272t103 -245.5t160.5 -207t207 -160t245 -102.5t272 -37t272 37t244.5 102.5t206.5 160t160.5 207t103 245.5
t37 272zM672 1280q-39 0 -67.5 28.5t-28.5 68.5t28.5 67.5t67.5 27.5h32v-192h-32zM832 1472h128v-192h-128v192zM1216 1472v-192h-128v192h128zM1344 1472h32q39 0 67.5 -27.5t28.5 -67.5t-28.5 -68.5t-67.5 -28.5h-32v192zM672 1152h704q92 0 158 66t66 159t-66 158.5
t-158 65.5h-704q-92 0 -158 -65.5t-66 -158.5t66 -159t158 -66zM578 832.5q0 -52.5 37.5 -90.5t90 -38t90.5 38t38 90.5t-38 90t-90.5 37.5t-90 -37.5t-37.5 -90zM1345.5 704q52.5 0 90.5 38t38 90.5t-38 90t-90.5 37.5t-90 -37.5t-37.5 -90t37.5 -90.5t90 -38z" />
</svg>