<svg xmlns="http://www.w3.org/2000/svg" xmlns:xlink="http://www.w3.org/1999/xlink" version="1.1" viewBox="-10 0 2067 2048">
   <path fill="currentColor"
d="M512 68q58 0 100 44l376 410q38 42 35 98t-45 95q-41 38 -96.5 35t-94.5 -44l-139 -150v1287q0 56 -39.5 96.5t-96 40.5t-97 -40.5t-40.5 -96.5v-1287l-138 150q-38 41 -94.5 44t-98.5 -35q-41 -38 -43.5 -95t35.5 -98l375 -410q43 -44 101 -44zM1751 1186q27 19 42 48.5
t15 62.5v410h68q57 0 96.5 40t39.5 96t-39.5 96.5t-96.5 40.5h-205h-204q-56 0 -96 -40.5t-40 -96.5t40 -96t96 -40h68v-221l-25 8q-54 18 -104 -6.5t-68 -78.5t7 -105t78 -69l205 -68q64 -21 123 20v-1zM1730 566q36 -17 57 -50t21 -73q0 -56 -40 -96.5t-97 -40.5
q-28 0 -58 14q-35 17 -56.5 50.5t-21.5 73.5q0 56 40 96t96 40q30 0 59 -14zM1556 801q-114 -37 -187 -135t-73 -222q0 -102 50.5 -188.5t137 -137t188 -50.5t188.5 50.5t137 137t50 188.5q0 154 -91 277l-209 281q-33 45 -89 54t-102 -25q-45 -34 -53.5 -90t24.5 -101z" />
</svg>