<svg xmlns="http://www.w3.org/2000/svg" xmlns:xlink="http://www.w3.org/1999/xlink" version="1.1" viewBox="-10 0 2068 2048">
   <path fill="currentColor"
d="M204 512q0 -85 61 -145t145 -60h1228q84 0 145 60t61 145v819h-206v-819h-1228v819h-206v-819zM0 1495q0 -25 18.5 -43.5t43.5 -18.5h1924q25 0 43.5 18.5t18.5 43.5q0 102 -72 174t-174 72h-1556q-102 0 -174 -72t-72 -174zM922 716q0 -21 15 -36t35 -15h104q20 0 35 15
t15 36v155h154q21 0 36.5 15t15.5 36v102q0 21 -15.5 36t-36.5 15h-154v154q0 21 -15 36t-35 15h-104q-20 0 -35 -15t-15 -36v-154h-154q-21 0 -36.5 -15t-15.5 -36v-102q0 -21 15.5 -36t36.5 -15h154v-155z" />
</svg>