<svg xmlns="http://www.w3.org/2000/svg" xmlns:xlink="http://www.w3.org/1999/xlink" version="1.1" viewBox="-10 0 2068 2048">
   <path fill="currentColor"
d="M1280 205q25 0 40 20q41 53 86 99.5t106 93t106 78t130 86.5v0q24 17 50 34q70 46 109 119t39 156q0 136 -96 235h-1140q-96 -98 -96 -235q0 -83 39 -156t109 -119q26 -17 50 -34v0q85 -55 130 -86.5t106 -78t106 -93t86 -99.5q15 -20 40 -20zM922 1843v-231
q0 -32 -22.5 -54t-54 -22t-54.5 22.5t-23 53.5v231h-154q-42 0 -72 -30t-30 -72v-410q0 -42 30 -72t72 -30h1332q42 0 72 30t30 72v410q0 42 -30 72t-72 30h-154v-231q0 -31 -23 -53.5t-54.5 -22.5t-54 22.5t-22.5 53.5v231h-204v-185q0 -46 -19.5 -87.5t-54.5 -70.5
l-80 -67l-80 67q-35 29 -54.5 70.5t-19.5 87.5v185h-204zM226 221q13 -11 30.5 -11t31.5 11l50 39q82 62 128 153.5t46 194.5v6h-512v-6q0 -103 46.5 -194.5t127.5 -153.5zM0 716h512v438q-47 27 -74.5 74t-27.5 103v410q0 47 18 86q-30 16 -68 16h-206q-64 0 -109 -44.5
t-45 -108.5v-923v-51z" />
</svg>