<svg xmlns="http://www.w3.org/2000/svg" xmlns:xlink="http://www.w3.org/1999/xlink" version="1.1" viewBox="-10 0 2067 2048">
   <path fill="currentColor"
d="M1023 0q214 0 404.5 80t326 217t214.5 326.5t79 400.5q0 178 -54.5 339.5t-151.5 284.5t-225 214t-280.5 138.5t-312.5 47.5q-207 0 -396 -81.5t-326 -219t-218.5 -327t-81.5 -396.5q0 -161 48.5 -314t140.5 -280.5t216 -224.5t283.5 -151t333.5 -54zM1026 1860
q95 0 185 -21t155.5 -50t129.5 -75t101 -79t76.5 -80t48.5 -60.5t24 -36.5l3 -4l-335 -149v148h-264v231h-255v-231h-264v-160h264v-77l-24 -49h-240v-159h115l-524 -234q-37 117 -37 250q0 168 67 322t179.5 267t268.5 180t326 67zM1387 1293l-226 -99l-11 22v77h237z
M1413 1082l417 185q33 -119 33 -243q0 -172 -66 -328t-178 -268t-267 -178t-326 -66q-134 0 -252.5 36.5t-206 99t-149.5 128t-110 141.5l339 151l-113 -210h271l164 353l95 42l178 -395h272l-259 478h158v74z" />
</svg>