<svg xmlns="http://www.w3.org/2000/svg" xmlns:xlink="http://www.w3.org/1999/xlink" version="1.1" viewBox="-10 0 2068 2048">
   <path fill="currentColor"
d="M834 250l114 -149q36 -48 89.5 -74.5t114.5 -26.5q85 0 154.5 51t93.5 132l70 239q31 103 104.5 181.5t175.5 116.5l158 59q63 23 101.5 79t38.5 123q0 50 -23 95.5t-63 75.5l-268 202q-74 55 -110.5 139t-25.5 174l10 91q8 76 -25 143t-96 107t-139 40q-94 0 -164 -57
l-220 -178q-30 -23 -60 -37q-96 -48 -202 -29l-332 61q-69 12 -130.5 -14.5t-98.5 -82t-37 -124.5q0 -82 52 -145l46 -55q90 -107 90 -248q0 -115 -64 -212l-152 -233q-36 -53 -36 -118t35.5 -118.5t94 -79.5t122.5 -15l206 35q107 19 208.5 -21t167.5 -127z" />
</svg>