<svg xmlns="http://www.w3.org/2000/svg" xmlns:xlink="http://www.w3.org/1999/xlink" version="1.1" viewBox="-10 0 2058 2048">
   <path fill="currentColor"
d="M1948 1700q2 17 -1.5 40t-8 38.5t-14 44.5t-11.5 36q-8 29 -18 61t-22 69.5t-19 58.5h-1687q-1 -4 -3.5 -12t-4.5 -12q-6 -18 -20 -57t-24.5 -70.5t-14.5 -56.5q-4 -29 7 -49.5t27 -29.5t43 -22t40 -22q28 -20 58 -39t51 -31.5t57 -33.5t58 -34q2 -1 34 -19t51 -31
t23 -20q8 -16 1 -36t-23 -44.5t-19 -30.5q-29 -66 -33 -122q-50 -8 -90.5 -35.5t-66.5 -65.5q-28 -42 -45.5 -97.5t-19.5 -119t21 -118.5q1 -4 12 -18t12 -21q3 -15 -3.5 -47.5t-7.5 -42.5q-7 -254 121 -311q10 -38 29 -70.5t39 -55t54.5 -47.5t58 -38.5t67.5 -37.5t65 -37
q17 -10 40.5 -20.5t35.5 -15.5t46 -17.5t39 -14.5q101 -38 226.5 -45t249 21.5t204.5 89.5q60 45 128.5 119t96.5 131q52 104 70.5 255t5.5 303.5t-51 286.5q-23 83 -46 130q-3 7 -19.5 34.5t-26 48.5t-7.5 33t26.5 36t58.5 52.5t37 31.5q9 8 32 27.5t37.5 33t28 32.5
t15.5 34zM823 135q-70 20 -139 55.5t-130 88t-87 109.5q19 -3 54.5 -16t57.5 -14q5 0 26.5 2t28.5 0q16 -4 33 -26.5t34.5 -52.5t26.5 -40q13 -14 40.5 -34.5t38.5 -34.5q3 -1 14.5 -5t16.5 -9t5 -14q-10 -12 -20 -9zM404 510q-20 23 -31.5 55t-12.5 74.5t0 69.5t5 72
q39 -24 83.5 -25.5t79.5 16.5t59 52t23 75q15 0 22 -6.5t6.5 -19t-3 -23.5t-8 -28.5t-7.5 -25.5q-10 -43 -5.5 -99t14 -100t10.5 -98t-15 -93q-137 12 -220 104zM551 1310q15 60 44.5 130t60.5 116q20 28 48 46.5t68.5 28.5t73 14t85.5 8q10 -21 36 -29.5t53.5 -7.5t54.5 8
q-65 -26 -158 -129q-49 -54 -77 -99t-30 -95q29 40 42 58t40 53t44 52.5t46 44.5t54.5 43t60 33.5t71.5 30.5q93 32 199.5 1t196.5 -94q15 -11 31 -28t23 -26.5t25 -37t21 -31.5q85 -122 125.5 -288.5t31.5 -340.5q0 -7 -1 -31t-1.5 -32t-1.5 -29.5t-2 -31t-3 -27.5
t-4.5 -28.5t-5.5 -24.5t-7.5 -25.5t-9.5 -21.5q-17 -34 -55 -60t-79 -30.5t-76 24.5q-9 -48 32.5 -73t99.5 -8q-4 -5 -27 -35.5t-30.5 -40.5t-28.5 -35t-34.5 -37.5t-33.5 -28.5t-39 -26q-73 -41 -163 -67t-186 -29t-169 34q-269 134 -332 279q18 41 19 88.5t-7.5 84.5
t-19 88.5t-11.5 88.5q-1 33 15.5 95t17.5 96q-20 35 -107 30q-25 -129 -99 -138q-65 -7 -111 37t-49 106q-1 35 12 77t35.5 78.5t57.5 59.5t73 19q19 -2 46 -24t50 -22q10 16 4.5 31t-15 23.5t-20.5 21t-13 23.5q-2 16 9 60zM1438 1807q-3 5 -2 30t0 36q88 25 203 28
q20 -27 18 -91q-2 -45 -12 -92t-28 -57q-19 -8 -38 -5.5t-43.5 15.5t-44.5 27t-40.5 27.5t-31.5 17.5q0 1 6 16t6 25q39 -11 78 9q-6 1 -19 2t-20.5 1.5t-16.5 3.5t-15 7zM1370 1727q12 -9 42 -33t47 -36q-21 2 -56.5 10.5t-62.5 15t-59.5 6t-57.5 -11.5q0 1 -2.5 2t-3.5 3
q36 28 69 37t84 7zM1321 1860q51 16 68 -23q14 -31 -6 -57q-25 -33 -73 -1q-1 15 0 25.5t5 26.5t6 29zM903 1755q0 -12 7 -34t5 -31q-18 -3 -55.5 -6t-65.5 -8t-45 -16q-25 26 41.5 59t112.5 36zM231 1989h722q-3 -10 -9 -28q-28 -90 -34 -142q-6 -3 -28.5 -14t-30.5 -14.5
t-28 -13.5t-30.5 -15.5t-27.5 -15t-29 -16.5t-26 -16t-26 -17q-4 -3 -28 -32t-47 -54.5t-28 -23.5q-169 68 -410 254q35 73 60 148zM1192 2011h-3q2 -2 3 -2v2zM1223 1989h39q-3 -6 -13 -18q-16 12 -26 18zM1283 1890q0 -7 0.5 -21t0.5 -21q-45 -23 -93 -24q12 -6 43 -13
t44 -15q0 -4 0.5 -9.5t0.5 -7.5q-19 -1 -33 -6.5t-31.5 -17t-23.5 -14.5q-85 -47 -175 -65q-26 -5 -41.5 11t-19 43t-5 58.5t1.5 57.5q2 24 9 50t19.5 58.5t14.5 38.5l4 12t4.5 13t5 8.5t8.5 5.5q17 4 62.5 -11.5t70.5 -29.5q29 -15 73.5 -53t59.5 -48zM1497 1989l2 -50
q-24 2 -56.5 -21t-45.5 -24q-10 -1 -38.5 12t-48.5 5q-3 3 -10.5 13t-12.5 15q11 12 35 50h70q1 -10 8 -16.5t17 -6.5t16.5 6.5t6.5 16.5h57zM1531 1989h146q-14 -22 -34.5 -36.5t-49 -19.5t-59.5 10q-2 30 -3 46zM1865 1840q1 -7 6 -30t8 -41t1 -28q-2 -18 -14.5 -33.5
t-40.5 -37.5t-30 -23q-19 -17 -61.5 -59t-71.5 -65q-11 16 -43 40.5t-40 36.5q67 -33 100 56q30 80 17 184q-6 47 -21 74q4 14 21.5 32.5t22.5 29.5q-4 6 -8 13h112h3q26 -83 39 -149zM888 522q18 -49 74.5 -92.5t106.5 -35.5q27 3 46 24t3 47q-31 -5 -55.5 -5.5t-46.5 9
t-38.5 21t-31.5 30.5t-25.5 37t-20.5 40q-11 -3 -16.5 -11.5t-5 -20.5t3 -22.5t6.5 -20.5zM1625 774q15 -7 59 -9.5t59 -11.5q-3 -8 -13 -32.5t-14 -37t-7.5 -35t-2.5 -45.5h5q7 14 19.5 41.5t21 45t21 40t24.5 40.5q-7 16 -27 30.5t-44 21.5t-47.5 7.5t-38.5 -14t-15 -41.5
zM1238 785q-78 -125 -59 -181q9 16 21 45t23.5 50.5t27.5 37.5q2 1 9 8l10.5 10.5t8.5 11t6.5 14.5t1.5 16.5t-4 20.5q-2 8 -18.5 22t-27.5 17q-53 16 -114.5 -2.5t-31.5 -66.5q13 1 48.5 8t59 6t39.5 -17zM1347 1066q5 8 9 29t12 35t27 18q36 6 77.5 -5.5t93 -37
t62.5 -29.5q11 -18 14 -32t-2.5 -26.5t-10 -20t-18 -21.5t-19.5 -21q-4 -5 -11 -14q-33 -40 -51 -63.5t-43 -63.5t-36.5 -79t-10.5 -79q9 -4 14 -4.5t8.5 7t5.5 13t3.5 13.5t1.5 10q44 100 185 253q6 6 17 16t18 17t8 12q5 18 -6.5 51.5t-10.5 42.5q-36 23 -54.5 34
t-55.5 29t-65.5 26t-69 13t-81.5 1q-23 -21 -27 -57.5t16 -66.5zM542 1029q-11 -6 -20.5 -28t-20 -40t-24.5 -18q-7 -1 -13 2t-10 9t-7 12.5t-4.5 17t-2.5 19t-1 21.5v21v21v19q-23 -21 -27 -74.5t13 -86.5q-8 -6 -17 -3.5t-13.5 6.5t-11 10.5t-10.5 9.5q9 -63 57 -71
q44 -8 82 33q45 48 30 120zM1740 1144q-17 34 -34.5 58.5t-43.5 50.5t-61 40t-77 15q-5 -60 0 -78q41 -4 76 -17t78.5 -37t61.5 -32zM1173 1193q92 48 316 42q7 32 7 76q-51 3 -101.5 -2.5t-96 -18.5t-79 -38.5t-46.5 -58.5zM1541 1380q-11 31 -39 44q-26 11 -70.5 17
t-96.5 2.5t-83 -20.5q-19 -10 -35.5 -27.5t-34.5 -44t-23 -32.5q-2 -3 -10.5 -10.5t-14 -13.5t-8 -13t5 -10.5t26.5 -3.5q17 43 54.5 69t83.5 34t101 10.5t108 -0.5q24 -1 36 -1z" />
</svg>