<svg xmlns="http://www.w3.org/2000/svg" xmlns:xlink="http://www.w3.org/1999/xlink" version="1.1" viewBox="-10 0 2068 2048">
   <path fill="currentColor"
d="M862 384h-286h-144h-48v36v156v161v357l-382 -284q4 -55 31 -103t71 -80l88 -65v-178q0 -80 56 -136t136 -56h306l200 -147q61 -45 134 -45t134 44l200 148h306q80 0 136 56t56 136v178l88 65q45 32 72 80t32 103l-384 284v-357v-161v-156v-36h-48h-144h-286h-324z
M0 1793v-824l870 645q68 51 154 51q88 0 154 -51l870 -645v824q0 106 -75.5 180.5t-180.5 74.5h-1536q-105 0 -180.5 -74.5t-75.5 -180.5zM704 640h640q27 0 45.5 19t18.5 45t-18.5 45.5t-45.5 19.5h-640q-26 0 -45 -19.5t-19 -45.5t19 -45t45 -19zM704 896h640
q27 0 45.5 19t18.5 45t-18.5 45t-45.5 19h-640q-26 0 -45 -19t-19 -45t19 -45t45 -19z" />
</svg>