<svg xmlns="http://www.w3.org/2000/svg" xmlns:xlink="http://www.w3.org/1999/xlink" version="1.1" viewBox="-10 0 2068 2048">
   <path fill="currentColor"
d="M1746 301q-292 -301 -722 -301q-422 0 -722 301q-302 304 -302 723t302 723q303 301 722 301q413 0 732 -305q292 -292 292 -719q0 -426 -302 -723zM1622 1609q-256 251 -598 251q-333 0 -590 -247q-246 -246 -246 -589t246 -593q244 -243 590 -243q350 0 594 247
q242 238 242 589t-238 585zM1442 731h-222v-221q0 -16 -16 -42q-27 -17 -42 -17h-560q-29 9 -38 21q-12 13 -12 38v752q0 25 12 38q18 17 42 17h222v225q0 21 17 38t41 17h556q24 0 41 -17t17 -38v-752q0 -16 -16 -42q-18 -17 -42 -17zM878 731q-24 8 -34 21q-16 12 -16 38
v418h-168v-644h448v167h-230zM1388 1484h-448v-640h448v640z" />
</svg>