<svg xmlns="http://www.w3.org/2000/svg" xmlns:xlink="http://www.w3.org/1999/xlink" version="1.1" viewBox="-10 0 2058 2048">
   <path fill="currentColor"
d="M930 24q44 -24 93.5 -24t92.5 24l708 386q15 8 24.5 23.5t9.5 33.5q0 38 -34 56l-768 419q-31 17 -62 0l-770 -419q-34 -18 -34 -56q0 -18 9.5 -33.5t24.5 -23.5zM216 668l710 388q34 17 34 56v872q0 35 -32 54.5t-64 2.5l-644 -351q-46 -26 -73 -72t-27 -99v-794
q0 -37 32 -56t64 -1zM1832 668q33 -18 64 1q32 19 32 56v794q0 53 -27.5 99t-74.5 72l-642 351q-32 17 -64 -2q-30 -18 -30 -55v-872q0 -39 32 -56z" />
</svg>