<svg xmlns="http://www.w3.org/2000/svg" xmlns:xlink="http://www.w3.org/1999/xlink" version="1.1" viewBox="-10 0 2068 2048">
   <path fill="currentColor"
d="M1106 552l378 506l378 -506q20 -26 52 -36t64 1q31 11 50.5 37.5t19.5 59.5v819q0 42 -30.5 72.5t-72 30.5t-71.5 -30.5t-30 -72.5v-511l-278 368q-29 41 -81.5 41t-82.5 -41l-276 -368v511q0 42 -30 72.5t-72 30.5t-72 -30.5t-30 -72.5v-819q0 -33 19 -59.5t51 -37.5
q31 -10 62 -1t52 36zM0 614q0 -42 30 -72t72 -30h614q43 0 73.5 30t30.5 72t-30.5 72t-73.5 30h-204v717q0 42 -30 72.5t-72 30.5t-72 -30.5t-30 -72.5v-717h-206q-42 0 -72 -30t-30 -72z" />
</svg>