<svg xmlns="http://www.w3.org/2000/svg" xmlns:xlink="http://www.w3.org/1999/xlink" version="1.1" viewBox="-10 0 2068 2048">
   <path fill="currentColor"
d="M422 398q-29 0 -53.5 19.5t-32.5 48.5l-134 574q147 -44 280 -44q139 0 296 48q51 16 90 32q4 2 13 6t13 6q1 0 3.5 1.5t2.5 2.5h2h2v0l-22 46l22 -46q31 17 48 46h144q15 -28 48 -46l22 46l-22 -46v0v0h4q0 -1 2.5 -2.5t3.5 -1.5q4 -2 13 -6t13 -6q26 -12 90 -32
q157 -48 296 -48q132 0 278 44l-134 -574q-7 -29 -31 -48.5t-53 -19.5q-16 0 -32 6l-112 46q-33 12 -66 -2.5t-46 -47.5q-12 -32 2.5 -64.5t47.5 -45.5l110 -44q42 -18 96 -18q90 0 160.5 55.5t91.5 142.5l156 670q8 38 12 78q2 14 2 20v24v146v58q0 108 -53 200t-144.5 145
t-200.5 53h-158q-103 0 -192.5 -49.5t-144.5 -136.5t-61 -190l-4 -80h-132l-4 80q-6 103 -60.5 190t-144 136.5t-193.5 49.5h-158q-108 0 -199.5 -53t-145 -145t-53.5 -200v-58v-146v-24q0 -6 2 -20q4 -40 12 -78l156 -670q21 -87 91.5 -142.5t160.5 -55.5q54 0 96 18
l110 44q33 13 47.5 45.5t2 65t-46 47t-65.5 2.5l-112 -46q-16 -6 -32 -6zM228 1270v152q0 70 50 120t120 50h158q67 0 117 -46.5t53 -113.5l8 -162q-15 -7 -26 -10q-120 -36 -226 -36t-224 36q-5 2 -15 5t-15 5zM1820 1422v-152q-5 -1 -10 -2.5t-11 -4t-9 -3.5
q-116 -36 -224.5 -36t-225.5 36q-2 0 -28 10l8 162q4 67 54 113.5t118 46.5h158q70 0 120 -50t50 -120z" />
</svg>