<svg xmlns="http://www.w3.org/2000/svg" xmlns:xlink="http://www.w3.org/1999/xlink" version="1.1" viewBox="-10 0 2068 2048">
   <path fill="currentColor"
d="M1296 138q56 16 101 52.5t70.5 84.5t34 105.5t-9.5 114.5l-22 80q-13 49 -48 128h370q106 0 181 75t75 181q0 105 -76 182q12 33 12 75q0 61 -27 114.5t-75 89.5q6 34 6 52q0 59 -26 111.5t-70 88.5q-4 104 -78 176.5t-178 72.5h-390q-133 0 -248 -76l-246 -165
q-33 -22 -41 -60.5t13.5 -71.5t61 -41t72.5 14l246 164q65 43 142 43h390q27 0 45.5 -19t18.5 -45q0 -8 -2 -18q-9 -36 7.5 -68t50.5 -46q18 -7 29 -23.5t11 -36.5q0 -23 -14 -40q-15 -19 -19 -44.5t5 -48.5t28 -39.5t44 -21.5q21 -4 36.5 -22t15.5 -41q0 -24 -16 -42
q-34 -38 -20 -87q6 -23 21.5 -41t36.5 -26q19 -7 30.5 -23.5t11.5 -36.5q0 -26 -19 -45t-45 -19h-534q-28 0 -51 -14t-35 -38q-26 -54 6 -99q74 -102 108 -222l22 -81q11 -39 -8 -74t-58 -45q-38 -11 -73 8.5t-45 57.5l-24 81q-35 122 -120 216l-204 226q-28 29 -67.5 31
t-69 -25t-31 -66.5t25.5 -68.5l204 -226q55 -59 78 -141l24 -79q15 -56 51.5 -101.5t84.5 -71t105 -34t115 8.5zM128 768h256q52 0 90 37.5t38 89.5v897q0 52 -38 89.5t-90 37.5h-256q-52 0 -90 -37.5t-38 -89.5v-897q0 -52 38 -89.5t90 -37.5z" />
</svg>