<svg xmlns="http://www.w3.org/2000/svg" xmlns:xlink="http://www.w3.org/1999/xlink" version="1.1" viewBox="-10 0 2058 2048">
   <path fill="currentColor"
d="M870 120l64 -86q25 -34 68 -34q35 0 60.5 25t25.5 60v89q0 82 59 138l339 324q146 139 226 326t80 390q0 190 -93.5 350t-254 253t-350.5 93h-70q-208 0 -385 -103t-280 -280t-103 -385v-15q0 -146 56 -281t160 -239l14 -14q27 -27 64 -27t63 26.5t26 64.5v357
q0 106 75.5 181t181.5 75t181 -75t75 -181v-15q0 -114 -79 -193l-155 -154q-72 -72 -111 -166t-39 -197q0 -169 102 -307z" />
</svg>