<svg xmlns="http://www.w3.org/2000/svg" xmlns:xlink="http://www.w3.org/1999/xlink" version="1.1" viewBox="-10 0 2067 2048">
   <path fill="currentColor"
d="M1626 1392q-53 13 -103 38t-85.5 50t-99.5 55.5t-141 51.5q-12 17 -43 25q-35 8 -145 16t-138 8q-75 0 -90 -33q-11 -31 -2.5 -51.5t24.5 -29.5l16 -10q-18 -11 -36 -33q-3 -3 -4 0q-3 7 -9 30.5t-14 45t-20 33.5q-17 17 -44.5 21.5t-53 -1t-47.5 -16.5
q-20 -13 -19.5 -31t11.5 -33l11 -16q-24 14 -43 -15q-12 -18 -19.5 -43t-10 -60t17 -76t60.5 -77q-3 -18 -3.5 -40t6 -64t22.5 -80.5t52.5 -85.5t89.5 -84q-2 -2 -5 -5.5t-11 -15t-15 -23.5t-14 -29t-11 -33.5t-3.5 -36t6.5 -36.5q9 -25 17 -38.5t10.5 -15t8.5 -3.5
q47 -19 63 -36q38 -41 86 -59.5t77 -17.5l29 2l25 -59q42 -88 75 -67q7 4 23.5 36t30.5 62l13 29l40 -20q19 -7 22 -1q24 47 30 130.5t-7 138.5q-9 44 -26 85.5t-30 63.5t-34 52.5t-24 35.5q-2 3 5 9t19.5 18.5t27.5 29.5t32.5 47.5t30.5 66.5q18 52 19 106.5t-4.5 86.5
t-3.5 35q6 1 19.5 1t51 -15t80.5 -41q37 -22 58 -33.5t58.5 -24t70.5 -12.5q32 -1 47 19.5t7 43.5t-34 29zM2047 1024q0 208 -81 397.5t-218 327t-326 218.5t-397 81t-397.5 -81t-326.5 -218.5t-218.5 -327t-81.5 -397.5t81.5 -397.5t218.5 -327t326.5 -218.5t397.5 -81
t397 81t326 218.5t218 327t81 397.5zM1721 1334q-5 -42 -38 -69t-79 -26q-42 0 -88 15.5t-69 28.5t-60 36q-28 17 -52 28q4 -64 -9 -123.5t-36.5 -101.5t-40.5 -65t-32 -38q77 -113 97 -219q15 -64 7.5 -157.5t-36.5 -149.5q-28 -48 -86 -32q-39 -82 -65 -98q-4 -3 -12 -7
t-28.5 -5.5t-40 7t-44.5 39.5t-46 82q-115 7 -195 94q-9 10 -42 23q-25 8 -39 28.5t-30 62.5q-32 86 28 189q-69 62 -110.5 141.5t-37.5 199.5q-49 52 -66.5 109t-7.5 102.5t23.5 74.5t27.5 43q-10 66 50 97q43 23 89.5 27t91.5 -15q40 42 123 42q35 0 148.5 -8.5
t152.5 -18.5q38 -9 59 -29q136 -41 257 -119q53 -35 82.5 -48t72.5 -23q40 -10 63 -43t18 -74z" />
</svg>