<svg xmlns="http://www.w3.org/2000/svg" xmlns:xlink="http://www.w3.org/1999/xlink" version="1.1" viewBox="-10 0 2068 2048">
   <path fill="currentColor"
d="M1728 192h-896q-52 0 -90 38t-38 90v64h-192v-64q0 -133 94 -226.5t226 -93.5h896q132 0 226 93.5t94 226.5v896q0 133 -94 226.5t-226 93.5h-64v-192h64q52 0 90 -38t38 -90v-896q0 -52 -38 -90t-90 -38zM192 1793q0 26 19 45t45 19h1024q27 0 45.5 -19t18.5 -45v-769
h-1152v769zM256 512h1024q106 0 181 75.5t75 181.5v1024q0 106 -75 180.5t-181 74.5h-1024q-105 0 -180.5 -74.5t-75.5 -180.5v-1024q0 -106 75.5 -181.5t180.5 -75.5z" />
</svg>