<svg xmlns="http://www.w3.org/2000/svg" xmlns:xlink="http://www.w3.org/1999/xlink" version="1.1" viewBox="-10 0 2058 2048">
   <path fill="currentColor"
d="M1706 303q-25 -26 -60.5 -26t-62.5 26l-107 107l169 168l106 -107q27 -25 27 -61t-27 -62zM862 1025l-1 -1q-15 15 -22 39l-61 214l214 -62q20 -6 37 -23l491 -490l-168 -168zM1459 179q78 -77 186 -77t185 77l45 45q78 77 78 185.5t-78 185.5l-721 722q-47 47 -114 67
l-365 105q-49 14 -87 -23q-36 -36 -22 -86l105 -366q19 -67 66 -114zM417 322h409q37 0 62.5 25.5t25.5 62.5t-25.5 62t-62.5 25h-409q-60 0 -103.5 43t-43.5 104v994q0 61 43.5 104t103.5 43h994q61 0 103.5 -43t42.5 -104v-409q0 -37 26 -62.5t62.5 -25.5t61.5 25.5
t25 62.5v409q0 87 -43 161t-117 117.5t-161 43.5h-994q-87 0 -161 -43.5t-117.5 -117.5t-43.5 -161v-994q0 -87 43.5 -161t117.5 -117.5t161 -43.5z" />
</svg>