<svg xmlns="http://www.w3.org/2000/svg" xmlns:xlink="http://www.w3.org/1999/xlink" version="1.1" viewBox="-10 0 2068 2048">
   <path fill="currentColor"
d="M56 862l1276 198q-14 -36 -14 -63q0 -64 42 -106t106 -42q60 0 104 42t44 106q0 59 -42 101l416 63q33 9 48 -13q15 -21 -2 -54l-194 -388q-42 21 -80 21q-62 0 -104 -42t-42 -105q0 -105 96 -135l-96 -194q-47 -77 -122 -47l-212 89q42 72 42 139q0 97 -66 166
q-69 70 -164 70q-89 0 -154 -55q-67 -56 -78 -139l-810 342q-21 9 -28 18q-9 10 1.5 19t32.5 9zM692 681q50 0 50 50q0 47 -50 47q-48 0 -48 -47q0 -50 48 -50zM0 900l38 362q56 -55 126 -55t122 49q52 48 52 120q0 71 -51 122t-123 51q-45 0 -96 -30l16 144q12 83 102 92
l1044 63l-4 -4v-8q0 -58 45 -103t103 -45t102 45q44 44 44 103q0 1 -2 15l-2 14l324 17q38 4 68 -21q29 -24 38 -59l102 -544zM540 1595q-46 0 -46 -46q0 -51 46 -51q50 0 50 51q0 46 -50 46zM746 1414q-42 0 -72 -30t-30 -71q0 -42 30 -72q30 -29 72 -29t71 29t29 72
q0 42 -28 71q-30 30 -72 30z" />
</svg>