<svg xmlns="http://www.w3.org/2000/svg" xmlns:xlink="http://www.w3.org/1999/xlink" version="1.1" viewBox="-10 0 2068 2048">
   <path fill="currentColor"
d="M1186 1246l596 -808l-110 -112l-810 596zM482 1264v-270q0 -42 19.5 -80.5t54.5 -63.5l1026 -758q45 -32 98 -32q66 0 114 48l206 206q48 48 48 114q0 53 -32 98l-758 1028q-25 34 -63.5 53t-80.5 19h-270l-96 96q-36 35 -85.5 35t-84.5 -35l-192 -192q-35 -35 -35 -84.5
t35 -85.5zM26 1816l238 -238l266 266l-116 118q-26 26 -66 26h-256q-38 0 -65 -27t-27 -65v-16q0 -38 26 -64z" />
</svg>