<svg xmlns="http://www.w3.org/2000/svg" xmlns:xlink="http://www.w3.org/1999/xlink" version="1.1" viewBox="-10 0 2068 2048">
   <path fill="currentColor"
d="M2048 0l-400 397q138 133 207 310.5t57 367.5q-9 157 -72 299.5t-164.5 250t-240 179.5t-293.5 93q-191 25 -571 75t-571 76l396 -398q-136 -133 -205.5 -310t-58.5 -367q10 -157 73.5 -299.5t165.5 -250t240 -179.5t295 -93q195 -26 576 -76t566 -75zM1684 1061
q7 -134 -38.5 -258.5t-129 -216t-202.5 -149.5t-252 -66t-258.5 36.5t-219.5 127t-154.5 201t-67.5 251.5q-8 134 37.5 258t129.5 216t203 149.5t254 65.5q132 8 257 -36.5t219 -126.5t154 -200t68 -252z" />
</svg>