<svg xmlns="http://www.w3.org/2000/svg" xmlns:xlink="http://www.w3.org/1999/xlink" version="1.1" viewBox="-10 0 2058 2048">
   <path fill="currentColor"
d="M800 0h224h223q40 0 68.5 28t28.5 68q0 33 -21 59t-52 34q65 69 98 108q294 352 294 707q0 221 -192 351v53h-191v-108q0 -59 52 -85q139 -72 139 -211q0 -164 -84 -335l-232 231q-28 28 -67 28t-68 -28q-28 -28 -28 -68t28 -68l263 -263q-28 -42 -62 -80
q-85 -102 -176 -182q-16 -14 -22 -19q-3 3 -10 9.5t-11 9.5q-91 80 -176 182q-250 300 -250 583q0 139 139 211q24 12 38 35.5t14 50.5v107h-191v-53q-192 -130 -192 -351q0 -354 295 -707q42 -50 97 -108q-31 -8 -51.5 -34t-20.5 -59q0 -40 28 -68t68 -28zM595 1857h858
l-66 -128h-726zM1426 1536q36 0 66.5 18.5t47.5 50.5l106 205q18 34 18 75q0 67 -48 115t-115 48h-953q-68 0 -116 -48t-48 -115q0 -41 18 -75l107 -205q17 -32 47 -50.5t66 -18.5h804z" />
</svg>