<svg xmlns="http://www.w3.org/2000/svg" xmlns:xlink="http://www.w3.org/1999/xlink" version="1.1" viewBox="-10 0 2068 2048">
   <path fill="currentColor"
d="M1024 320q-113 0 -220.5 30t-199 83.5t-168 130.5t-130.5 168t-84 199t-30 221v416q0 40 -28 68.5t-67.5 28.5t-68 -28.5t-28.5 -68.5v-416q0 -139 37 -272t103 -245.5t160.5 -207t207 -160t245 -102.5t272 -37t272 37t244.5 102.5t206.5 160t160.5 207t103 245.5t37 272
v416q0 40 -28 68.5t-67.5 28.5t-68 -28.5t-28.5 -68.5v-416q0 -113 -30 -221t-83.5 -199t-130.5 -168t-168 -130.5t-199 -83.5t-221 -30zM320 1408q0 -106 75.5 -181t180.5 -75h64q53 0 90.5 38t37.5 90v513q0 52 -37.5 89.5t-90.5 37.5h-64q-105 0 -180.5 -74.5
t-75.5 -180.5v-257zM1472 1152q106 0 181 75t75 181v257q0 106 -75 180.5t-181 74.5h-64q-52 0 -90 -37.5t-38 -89.5v-513q0 -52 38 -90t90 -38h64z" />
</svg>