<svg xmlns="http://www.w3.org/2000/svg" xmlns:xlink="http://www.w3.org/1999/xlink" version="1.1" viewBox="-10 0 2068 2048">
   <path fill="currentColor"
d="M1933.5 114q47.5 0 81 33.5t33.5 80.5v1593q0 47 -33.5 80t-81 33t-80.5 -33t-33 -80v-1593q0 -47 33 -80.5t80.5 -33.5zM1478.5 455q47.5 0 80.5 33.5t33 80.5v1252q0 47 -33 80t-80.5 33t-81 -33t-33.5 -80v-1252q0 -47 33.5 -80.5t81 -33.5zM1138 911v910q0 47 -33 80
t-80.5 33t-81 -33t-33.5 -80v-910q0 -47 33.5 -80.5t81 -33.5t80.5 33.5t33 80.5zM568.5 1138q47.5 0 80.5 33.5t33 80.5v569q0 47 -33 80t-80.5 33t-80 -33t-32.5 -80v-569q0 -47 32.5 -80.5t80 -33.5zM228 1593v228q0 47 -33.5 80t-81 33t-80.5 -33t-33 -80v-228
q0 -47 33 -80.5t80.5 -33.5t81 33.5t33.5 80.5z" />
</svg>