<svg xmlns="http://www.w3.org/2000/svg" xmlns:xlink="http://www.w3.org/1999/xlink" version="1.1" viewBox="-10 0 2068 2048">
   <path fill="currentColor"
d="M1023.5 0q197.5 0 366 25t283.5 68t180 102t65 125v64v128q53 0 91.5 37.5t38.5 90.5v256q0 53 -38.5 90.5t-91.5 37.5v640q0 53 -37.5 90.5t-90.5 37.5v128q0 52 -37.5 90t-90.5 38h-126q-53 0 -90.5 -38t-37.5 -90v-128h-768v128q0 52 -37.5 90t-90.5 38h-128
q-52 0 -90 -38t-38 -90v-128q-53 0 -90.5 -37.5t-37.5 -90.5v-640q-53 0 -90.5 -37.5t-37.5 -90.5v-256q0 -53 37.5 -90.5t90.5 -37.5v-128v-64q0 -66 65 -125t180.5 -102t284 -68t366 -25zM384 640v384q0 53 38 90.5t90 37.5h448v-640h-448q-52 0 -90 37.5t-38 90.5z
M1088 1152h448q52 0 89 -37.5t37 -90.5v-384q0 -53 -37 -90.5t-89 -37.5h-448v640zM448.5 1600q52.5 0 90 -38t37.5 -90.5t-37.5 -90t-90 -37.5t-90.5 37.5t-38 90t38 90.5t90.5 38zM1599.5 1600q52.5 0 89.5 -38t37 -90.5t-37 -90t-89.5 -37.5t-90 37.5t-37.5 90t37.5 90.5
t90 38zM1408 320.5q0 -26.5 -19 -45.5t-45 -19h-640q-27 0 -45.5 19t-18.5 45.5t18.5 45t45.5 18.5h640q26 0 45 -18.5t19 -45z" />
</svg>