<svg xmlns="http://www.w3.org/2000/svg" xmlns:xlink="http://www.w3.org/1999/xlink" version="1.1" viewBox="-10 0 2068 2048">
   <path fill="currentColor"
d="M740 398q0 -70 49.5 -120t120.5 -50h228q71 0 120.5 50t49.5 120v228q0 70 -49.5 120t-120.5 50h-28v142h540q82 0 140 58.5t58 141.5v114h30q70 0 120 49.5t50 120.5v228q0 70 -50 120t-120 50h-228q-71 0 -121.5 -50t-50.5 -120v-228q0 -71 50.5 -120.5t121.5 -49.5h28
v-114q0 -12 -8.5 -21t-19.5 -9h-540v144h28q71 0 120.5 49.5t49.5 120.5v228q0 70 -49.5 120t-120.5 50h-228q-71 0 -120.5 -50t-49.5 -120v-228q0 -71 49.5 -120.5t120.5 -49.5h28v-144h-540q-11 0 -19.5 9t-8.5 21v114h28q71 0 121.5 49.5t50.5 120.5v228q0 70 -50.5 120
t-121.5 50h-228q-70 0 -120 -50t-50 -120v-228q0 -71 50 -120.5t120 -49.5h30v-114q0 -83 58 -141.5t140 -58.5h540v-142h-28q-71 0 -120.5 -50t-49.5 -120v-228z" />
</svg>