<svg xmlns="http://www.w3.org/2000/svg" xmlns:xlink="http://www.w3.org/1999/xlink" version="1.1" viewBox="-10 0 2068 2048">
   <path fill="currentColor"
d="M292 0h1464q120 0 206 85.5t86 206.5v1464q0 121 -86 206.5t-206 85.5h-1464q-120 0 -206 -85.5t-86 -206.5v-1464q0 -121 86 -206.5t206 -85.5zM585.5 878q-60.5 0 -104 43t-43.5 103v438q0 60 43.5 103t104 43t103.5 -43t43 -103v-438q0 -60 -43 -103t-103.5 -43z
M878 584v878q0 60 43 103t103 43t103 -43t43 -103v-878q0 -60 -43 -103t-103 -43t-103 43t-43 103zM1463.5 1170q-60.5 0 -104 43t-43.5 103v146q0 60 43.5 103t104 43t103.5 -43t43 -103v-146q0 -60 -43 -103t-103.5 -43z" />
</svg>