<svg xmlns="http://www.w3.org/2000/svg" xmlns:xlink="http://www.w3.org/1999/xlink" version="1.1" viewBox="-10 0 2068 2048">
   <path fill="currentColor"
d="M384 128q0 -52 38 -90t90 -38h256q53 0 90.5 38t37.5 90v384h-512v-384zM384 640h512q105 0 193.5 51.5t139.5 140t51 192.5v833q0 79 -56.5 135t-135.5 56h-896q-79 0 -135.5 -56t-56.5 -135v-833q0 -104 51.5 -192.5t139.5 -140t193 -51.5zM640.5 1024
q-132.5 0 -226.5 93.5t-94 226.5q0 87 43 161t116.5 117t161 43t161 -43t116 -117t42.5 -161q0 -133 -93.5 -226.5t-226 -93.5zM1536 192q0 10 -8 14l-120 50l-50 119q-4 9 -14 9t-14 -9l-50 -119l-118 -50q-10 -5 -10 -14t10 -14l118 -50l50 -119q4 -9 14 -9t14 9l50 119
l120 50q8 4 8 14zM1842 375l-50 -119l-120 -50q-8 -4 -8 -14t8 -14l120 -50l50 -119q4 -9 14 -9t14 9l50 119l118 50q10 4 10 14t-10 14l-118 50l-50 119q-4 9 -14 9t-14 -9zM1870 777l50 119l118 49q10 5 10 15t-10 14l-118 50l-50 120q-4 8 -14 8t-14 -8l-50 -120
l-120 -50q-8 -4 -8 -14q0 -11 8 -15l120 -49l50 -119q4 -8 14 -8t14 8zM1792 576q0 11 -8 15l-120 49l-50 119q-4 10 -13 10t-15 -10l-50 -119l-118 -49q-10 -5 -10 -15t10 -14l118 -50l50 -119q5 -9 14.5 -9t13.5 9l50 119l120 50q8 4 8 14z" />
</svg>