<svg xmlns="http://www.w3.org/2000/svg" xmlns:xlink="http://www.w3.org/1999/xlink" version="1.1" viewBox="-10 0 2068 2048">
   <path fill="currentColor"
d="M0 146q0 -60 43 -103t103 -43h220h220q60 0 103 43t43 103t-43 103t-103 43h-74v513h1024v-513h-72q-61 0 -104.5 -43t-43.5 -103t43.5 -103t104.5 -43h218h220q60 0 103 43t43 103t-43 103t-103 43h-74v659v805h74q60 0 103 43t43 103t-43 103t-103 43h-220h-218
q-61 0 -104.5 -43t-43.5 -103t43.5 -103t104.5 -43h72v-659h-1024v659h74q60 0 103 43t43 103t-43 103t-103 43h-220h-220q-60 0 -103 -43t-43 -103t43 -103t103 -43h74v-805v-659h-74q-60 0 -103 -43t-43 -103z" />
</svg>