<svg xmlns="http://www.w3.org/2000/svg" xmlns:xlink="http://www.w3.org/1999/xlink" version="1.1" viewBox="-10 0 2068 2048">
   <path fill="currentColor"
d="M1028 620q-118 0 -200 103t-82 246v144q0 144 82 244q82 101 200 101q49 0 68 -8q-27 -43 -62 -68q-33 -24 -56 -29h-22v-110q160 -12 274 110q80 -101 80 -240v-144q0 -143 -82 -246t-200 -103zM1840 0h-1634q-84 0 -145 61t-61 146v1635q0 84 61 145t145 61h1634
q86 0 147 -61t61 -145v-1635q0 -85 -61 -146t-147 -61zM1454 1618v93q-211 42 -300 -131q-86 17 -130 17q-228 0 -390 -164q-162 -166 -162 -396q0 -231 162 -394q162 -162 390 -162t390 162t162 394q0 311 -262 476q17 33 50 59q32 24 64 34z" />
</svg>