<svg xmlns="http://www.w3.org/2000/svg" xmlns:xlink="http://www.w3.org/1999/xlink" version="1.1" viewBox="-10 0 2068 2048">
   <path fill="currentColor"
d="M256 256v1345q0 26 19 45t45 19h1600q52 0 90 37.5t38 90t-38 90t-90 37.5h-1600q-132 0 -226 -93t-94 -226v-1345q0 -52 38 -90t90.5 -38t90 38t37.5 90zM640 1408v1q-52 0 -90 -37.5t-38 -90.5v-337q0 -49 32 -84l318 -363q39 -45 97.5 -44.5t96.5 46.5l158 188
q27 32 68.5 34.5t71.5 -27.5l84 -85q40 -40 96 -37t92 45l264 308q30 36 30 82v273q0 52 -38 90t-90 38h-1152z" />
</svg>