<svg xmlns="http://www.w3.org/2000/svg" xmlns:xlink="http://www.w3.org/1999/xlink" version="1.1" viewBox="-10 0 2068 2048">
   <path fill="currentColor"
d="M1522 194.5q0 -79.5 56.5 -136t136 -56.5t135.5 56.5t56 136t-56 135t-135.5 55.5t-136 -55.5t-56.5 -135zM11 1076q19 -36 56.5 -47.5t73.5 7.5l789 411l185 -277l-301 -300q-42 -42 -60 -97t-12 -112l434 208l157 158q49 49 56 116t-31 125l-200 297l515 268
q41 21 87 21.5t87 -20.5l61 -31q36 -18 73.5 -5t55.5 49t5.5 72.5t-48.5 54.5l-60 31q-82 41 -174.5 40.5t-174.5 -42.5l-1533 -797q-35 -19 -47 -56.5t6 -73.5zM475 264l73 35l34 -71q12 -23 37.5 -31t48.5 3t32 37t-3 49l-33 68l218 104q3 -1 9.5 -3.5t9.5 -4.5l333 -134
q51 -21 104 -18t99 23.5t82 60.5t53 91l68 205l208 104q48 23 65 74t-6.5 98t-74 64t-98.5 -7l-232 -116q-73 -37 -97 -111l-22 -69l-110 48l-27 12l-27 -13l-614 -293l-37 72q-12 24 -36.5 32.5t-48 -2.5t-32 -37t2.5 -49l36 -73l-70 -33q-24 -11 -32.5 -36.5t3 -48.5
t36.5 -32t48 2z" />
</svg>