<svg xmlns="http://www.w3.org/2000/svg" xmlns:xlink="http://www.w3.org/1999/xlink" version="1.1" viewBox="-10 0 2068 2048">
   <path fill="currentColor"
d="M1022 193l-816 583q-14 11 -14 26v54l690 567q62 51 142 51t142 -51l690 -567v-54q0 -16 -14 -26l-816 -583l-0.5 -0.5t-1 -0.5t-1.5 0.5zM192 1105v719q0 13 10 23t22 10h1600q13 0 22.5 -10t9.5 -23v-719l-568 467q-114 94 -263 94t-265 -94zM1024 0q62 0 114 36
l816 584q44 32 69 80t25 102v1022q0 93 -65.5 158.5t-158.5 65.5h-1600q-92 0 -158 -65.5t-66 -158.5v-1022q0 -55 25 -103t69 -79l816 -584q52 -36 114 -36z" />
</svg>