<svg xmlns="http://www.w3.org/2000/svg" xmlns:xlink="http://www.w3.org/1999/xlink" version="1.1" viewBox="-10 0 2068 2048">
   <path fill="currentColor"
d="M204 307h1128q84 0 144 60t60 145v154h156q86 0 138 65l188 230q30 37 30 81v33v51v205q0 42 -30 72t-72 30h-6q6 27 6 52q0 106 -75.5 181t-181 75t-180.5 -75t-75 -181q0 -25 4 -52h-106h-416q6 27 6 52q0 106 -75.5 181t-180.5 75q-62 0 -115 -27.5t-89 -75.5
q-37 48 -90.5 75.5t-115.5 27.5q-105 0 -180.5 -75t-75.5 -181v-52v-256v-665q0 -85 60 -145t144 -60zM1872 1024l-160 -196q-8 -9 -20 -9h-156v205h336zM1689.5 1382q-41.5 0 -72.5 30.5t-31 72.5t30.5 72t73 30t72.5 -30t30 -72t-30.5 -72.5t-72 -30.5zM564 1485
q0 42 30 72t72 30t72 -30t30 -72t-30 -72.5t-72 -30.5t-72 30.5t-30 72.5zM256 1382q-42 0 -72 30.5t-30 72.5t30 72t72.5 30t73 -30t30.5 -72t-31 -72.5t-73 -30.5z" />
</svg>