<svg xmlns="http://www.w3.org/2000/svg" xmlns:xlink="http://www.w3.org/1999/xlink" version="1.1" viewBox="-10 0 2068 2048">
   <path fill="currentColor"
d="M704 1793q154 64 320 64q113 0 221 -30t199 -84t168 -131t130.5 -168t83.5 -199t30 -221t-30 -221t-83.5 -199t-130.5 -168t-168 -130.5t-199 -83.5t-221 -30t-220.5 30t-199 83.5t-168 130.5t-130.5 168t-84 199t-30 221q0 155 55 296.5t153 253.5q32 97 115.5 158
t188.5 61zM0 1024q0 -139 37 -272t103 -245.5t160.5 -207t207 -160t245 -102.5t272 -37t272 37t244.5 102.5t206.5 160t160.5 207t103 245.5t37 272t-37 272t-103 245.5t-160.5 207t-206.5 160t-244.5 102.5t-272 37t-272 -37t-245 -102.5t-207 -160t-160.5 -207
t-103 -245.5t-37 -272zM512 1476q0 -37 33 -102.5t65.5 -113.5t67.5 -95q10 -13 26 -13t26 13q34 45 67.5 94.5t66 114.5t32.5 102q0 78 -56 133.5t-135.5 55.5t-136 -55.5t-56.5 -133.5zM1024 1216q127 0 242 45t206 126q30 27 32.5 66.5t-24.5 69.5t-66.5 31.5
t-69.5 -24.5q-65 -58 -147 -90t-173 -32q-39 0 -67.5 -27.5t-28.5 -67.5t28.5 -68.5t67.5 -28.5zM1214 832.5q0 -52.5 38 -90.5t90.5 -38t90 38t37.5 90.5t-37.5 90t-90 37.5t-90.5 -37.5t-38 -90zM702.5 960q-52.5 0 -90.5 -37.5t-38 -90t38 -90.5t90.5 -38t91 38
t38.5 90.5t-38.5 90t-91 37.5z" />
</svg>