<svg xmlns="http://www.w3.org/2000/svg" xmlns:xlink="http://www.w3.org/1999/xlink" version="1.1" viewBox="-10 0 2058 2048">
   <path fill="currentColor"
d="M768 448v192h512v-192q0 -106 -75 -181t-180.5 -75t-181 75t-75.5 181zM576 640v-192q0 -91 35.5 -174t95.5 -143t143 -95.5t174.5 -35.5t174.5 35.5t143 95.5t95 143t35 174v192h256q80 0 136 56.5t56 136.5v832q0 104 -51.5 192.5t-139.5 139.5t-193 51h-1024
q-105 0 -193 -51t-139.5 -139.5t-51.5 -192.5v-832q0 -80 56.5 -136.5t135.5 -56.5h256zM672.5 833q-39.5 0 -68 27.5t-28.5 67.5t28.5 68t68 28t67.5 -28t28 -68t-28 -67.5t-67.5 -27.5zM1280 928q0 40 28.5 68t68 28t67.5 -28t28 -68t-28 -67.5t-67.5 -27.5t-68 27.5
t-28.5 67.5z" />
</svg>