<svg xmlns="http://www.w3.org/2000/svg" xmlns:xlink="http://www.w3.org/1999/xlink" version="1.1" viewBox="-10 0 2067 2048">
   <path fill="currentColor"
d="M1354 1615q0 61 -42.5 103.5t-103 42.5t-104 -42.5t-43.5 -103.5t43.5 -103.5t104 -42.5t103 42.5t42.5 103.5zM541 1469q61 0 104.5 42.5t43.5 103.5t-43.5 103.5t-104.5 42.5q-60 0 -102.5 -42.5t-42.5 -103.5t42.5 -103.5t102.5 -42.5zM1475 605q447 0 541 69
q67 49 -13 152q-57 74 -256 244q-263 225 -327 282q26 -45 68.5 -97t84 -94t84 -87.5t73.5 -81t48 -71.5t11.5 -62.5t-40.5 -49t-103 -36.5t-181 -20.5t-271 -4.5q-149 2 -278.5 -5.5t-227.5 -20.5t-182 -36t-142 -45.5t-109 -55.5t-81.5 -59t-60.5 -63.5t-44.5 -62
t-35.5 -60.5t-33 -53q51 54 98.5 93.5t107.5 72.5t120.5 56t147.5 40.5t178.5 27.5t222 17t270 9t330.5 2z" />
</svg>