<svg xmlns="http://www.w3.org/2000/svg" xmlns:xlink="http://www.w3.org/1999/xlink" version="1.1" viewBox="-10 0 2068 2048">
   <path fill="currentColor"
d="M1666 528q-64 0 -138 30q-26 -178 -162 -294q-136 -117 -316 -117q-198 0 -340 142t-142 344v17q-4 0 -9.5 -2t-8.5 -2q-110 0 -185 78t-75 186v5q-35 -13 -66 -13q-94 0 -158 67q-66 68 -66 160q0 167 224 167h1442q154 0 268 -111q114 -110 114 -270q0 -159 -111 -273
t-271 -114zM428 1410q0 38 -32 38q-38 0 -38 -38q0 -34 38 -34q32 0 32 34zM786 1448q0 33 -38 33q-34 0 -34 -33q0 -38 34 -38q38 0 38 38zM622 1662q0 33 -34 33q-38 0 -38 -33q0 -38 38 -38q34 0 34 38zM1364 1376q0 34 -34 34q-38 0 -38 -34q0 -38 38 -38q34 0 34 38z
M1166 1590q0 34 -36 34q-34 0 -34 -34q0 -38 34 -38q36 0 36 38zM1402 1624q0 38 -38 38q-34 0 -34 -38q0 -34 34 -34q38 0 38 34zM898 1695q0 38 -34 38q-36 0 -36 -38q0 -33 36 -33q34 0 34 33zM1166 1867q0 34 -36 34q-34 0 -34 -34q0 -38 34 -38q36 0 36 38zM1640 1448
q0 33 -36 33q-34 0 -34 -33q0 -38 34 -38q36 0 36 38zM428 1766q0 38 -32 38q-38 0 -38 -38q0 -33 38 -33q32 0 32 33z" />
</svg>