<svg xmlns="http://www.w3.org/2000/svg" xmlns:xlink="http://www.w3.org/1999/xlink" version="1.1" viewBox="-10 0 2067 2048">
   <path fill="currentColor"
d="M1543 839l-34 -122q-25 -80 -262 -74t-548 99q-315 96 -517 218q-201 121 -180 202l50 168q0 9 8 17l9 8l8 9l9 4q8 8 16 8q0 5 9 5l17 8h16q4 4 21 4q4 4 17 4q11 0 21 5h21h25h21h9h17h33h9h21q2 0 5.5 -1.5t4.5 -1.5q8 -2 11 -2h12q24 0 34 -4h8h4q2 0 4.5 -0.5t7 -1
t7.5 -0.5q20 -2 23 -2q4 -4 13 -4h12q4 -4 17 -4q17 0 42 -9q3 0 23 -2q4 -1 8.5 -1.5t7 -0.5h3.5q5 0 13 -4t12 -4h9q3 0 8 -5q16 0 38 -8q13 0 17 -4q4 4 17 4q4 4 8 4q3 0 11 2t10 2l8 5h13q4 0 8 4q5 0 17 2t17 2q9 0 13 4h4.5t7.5 0.5t9.5 1t9.5 1t7.5 1t3.5 0.5h4l8 5
h13q2 0 10 2t11 2h4.5t7 0.5t7.5 1.5q20 2 23 2q5 0 21 2t17 2h29q4 0 8 4h5h42q11 0 16 5h13h13h46h8h13h8q8 4 13 4h42h12h30q32 0 46 -4h4h42h21h25q10 -5 21 -5h13q36 0 88 -8h13l88 -13h12l9 -4q20 -3 48 -7t36 -5q46 -10 59 -17h4q23 -6 42 -13h4l38 -12h4q0 -5 8 -5
l5 -4q8 0 8 -4q4 0 8 -4h9l4 -4h4q18 -10 21 -13h4l5 -4l8 -4q1 -1 17 -13v-4q3 0 12 -9q5 -5 5 -8h4l4 -4q4 -4 4 -9v-4l4 -4v-4l5 -4v-9v-4v-172q-9 -138 -504 -189zM31 1154q-12 -34 61 -97q77 -65 239 -143q171 -82 376 -143q213 -64 391 -86q179 -23 275 -10
q95 12 107 50q9 37 -72 101q-8 8 -16 15q-9 8 -21 14q-194 143 -567 248q-23 5 -59 15q-41 11 -55 19q-52 14 -218 46q-195 29 -313 19q-116 -11 -128 -48zM1257 1200q-71 0 -101 -4q28 -10 76 -34q8 0 8 -4h5q4 -4 8 -4q36 -18 71 -38h5q22 -16 50 -30l4 -4q3 -3 17 -10
q12 -6 17 -11l4 -4q4 -4 15 -10q2 -1 9 -5.5t10 -5.5q0 -4 4 -4q4 -4 8 -4l13 -13q8 0 8 -8q4 0 4 -2q0 -3 5 -3v-4q12 -4 16 -17q5 0 5 -4q4 0 4 -4q4 0 4 -2t4 -2q0 -8 9 -17q4 0 4 -4q4 -4 4 -9q4 -4 4 -12h4q0 -13 4 -17v-4v-4v-5v-12h-4l-4 -17q212 21 336 67
q126 46 126 93q0 37 -88 75q-90 38 -267 68q-172 29 -401 29z" />
</svg>