<svg xmlns="http://www.w3.org/2000/svg" xmlns:xlink="http://www.w3.org/1999/xlink" version="1.1" viewBox="-10 0 2068 2048">
   <path fill="currentColor"
d="M0 128q0 -52 38 -90t90 -38h512q53 0 90.5 38t37.5 90v1537q0 104 -51.5 192.5t-140 139.5t-193 51t-192.5 -51t-139.5 -139.5t-51.5 -192.5v-1537zM896 1704v-39v-1049l302 -301q37 -37 90.5 -37t91.5 37l360 361q38 38 38 91t-38 90zM732 2048l768 -768h420q52 0 90 38
t38 90v512q0 52 -38 90t-90 38h-1188zM512 256h-256v256h256v-256zM256 769v255h256v-255h-256zM383.5 1760q39.5 0 68 -27.5t28.5 -67.5t-28.5 -68.5t-68 -28.5t-67.5 28.5t-28 68.5t28 67.5t67.5 27.5z" />
</svg>