<svg xmlns="http://www.w3.org/2000/svg" xmlns:xlink="http://www.w3.org/1999/xlink" version="1.1" viewBox="-10 0 2058 2048">
   <path fill="currentColor"
d="M775 988h491q101 0 173 -72q71 -72 71 -176v-466q0 -98 -71 -166q-73 -71 -173 -92q-118 -16 -256 -16q-136 0 -235 16q-147 26 -195 84.5t-48 173.5v184h491v62h-676q-107 0 -191 66q-81 63 -111 182q-63 257 0 500q58 248 256 248h172v-222q0 -122 90 -214
q89 -92 212 -92zM746 336q-37 0 -65 -28t-28 -64q0 -42 28 -70q27 -26 65 -26t65 27t27 69q0 38 -27 64q-28 28 -65 28zM2001 768q-68 -248 -243 -248h-185v220q0 126 -92 218q-93 92 -215 92h-491q-97 0 -170 73t-73 175v466q0 176 243 248q243 73 491 0q244 -67 244 -248
v-184h-487v-64h735q97 0 149 -60.5t94 -187.5q67 -210 0 -500zM1296 1702q38 0 65 27t27 69q0 38 -27 65t-65 27t-65 -26q-28 -28 -28 -66q0 -42 28 -70q27 -26 65 -26z" />
</svg>