<svg xmlns="http://www.w3.org/2000/svg" xmlns:xlink="http://www.w3.org/1999/xlink" version="1.1" viewBox="-10 0 2068 2048">
   <path fill="currentColor"
d="M0 614q0 -84 60 -144t144 -60h616h152h52h820q84 0 144 60t60 144v820q0 84 -60 144t-144 60h-820h-52h-152h-616q-84 0 -144 -60t-60 -144v-820zM1024 614v820h820v-820h-820zM570 768q-7 -18 -23 -28t-34.5 -10t-35 10t-23.5 28l-204 462q-11 24 -1.5 48t33.5 36
q25 11 49 1.5t35 -33.5l28 -66h236l28 66q12 23 36.5 32.5t48.5 -1t33.5 -35t-0.5 -48.5zM512 952l62 136h-122zM1433 730q27 0 46 18t19 46v12h140h52q26 0 44 19t18 46t-18 45t-44 18h-8l-4 16q-45 120 -126 208q1 2 3.5 3.5t4.5 2.5l60 36q23 13 29.5 39t-7 48.5
t-39.5 29t-49 -6.5l-60 -36q-20 -13 -42 -28q-49 36 -108 62l-12 6q-25 11 -49 1.5t-35 -33.5q-12 -25 -2.5 -49.5t34.5 -36.5l12 -6q41 -19 60 -30l-40 -40q-18 -18 -18 -45t18.5 -45.5t45 -18.5t44.5 19l46 46l2 2q61 -63 96 -144h-112h-232q-26 0 -45 -18t-19 -45t19 -46
t45 -19h168v-12q0 -28 18 -46t45 -18z" />
</svg>