<svg xmlns="http://www.w3.org/2000/svg" xmlns:xlink="http://www.w3.org/1999/xlink" version="1.1" viewBox="-10 0 2068 2048">
   <path fill="currentColor"
d="M1434 307v35q0 92 34.5 176.5t99.5 149.5l68 67q104 104 104 253v36q0 42 -30 72t-72 30t-72 -30t-30 -72v-36q0 -63 -46 -108l-66 -67q-94 -94 -145 -216t-51 -255v-35q0 -42 30.5 -72t73 -30t72.5 30t30 72zM1844 1024v-36q0 -91 -35.5 -175.5t-100.5 -149.5l-68 -67
q-50 -51 -77 -116.5t-27 -137.5v-35q0 -42 30 -72t72 -30t72 30t30 72v35q0 64 46 109l66 67q94 94 145 215.5t51 254.5v36q0 42 -30 72t-72 30t-72 -30t-30 -72zM736 1357q51 25 84 67l328 392q7 8 3 17.5t-13 9.5h-216q-229 0 -576 -93q-124 -34 -212 -62q-52 -18 -60 -21
q-4 -1 -18 -6l-4 -1q-22 -8 -37 -28t-15 -45t15 -44.5t37 -27.5l4 -2q14 -5 18 -6q8 -3 60 -21q80 -26 212 -62q196 -52 340 -74q25 -5 50 7zM1424 1843q-58 0 -109 -24t-87 -68l-328 -393q-7 -8 -3 -17.5t13 -9.5h12h154h60q57 0 108.5 24.5t87.5 68.5l328 392q7 8 3 17.5
t-13 9.5h-166h-60zM1412 1358q-7 -8 -3 -17.5t13 -9.5h498q53 0 90.5 37.5t37.5 90.5v256q0 51 -35.5 88.5t-86.5 39.5q-113 -5 -186 -92z" />
</svg>