<svg xmlns="http://www.w3.org/2000/svg" xmlns:xlink="http://www.w3.org/1999/xlink" version="1.1" viewBox="-10 0 2068 2048">
   <path fill="currentColor"
d="M1024 540q-160 0 -310 25.5t-268 71.5t-207 106.5t-137 133t-48 148t48 148t137 132.5t207 106t268 71.5t310 25.5q161 0 310.5 -25.5t268 -71.5t207 -106t136.5 -132.5t48 -148t-48 -148t-136.5 -133t-206.5 -106.5t-268 -71.5t-311 -25.5zM1024.5 486q166.5 0 322.5 27
t282 77t220.5 116t146.5 148.5t52 170t-52 169.5t-146.5 148.5t-220.5 116t-282 76.5t-322.5 27t-323 -27t-282 -76.5t-220.5 -116t-147 -148.5t-52 -169.5t52 -170t147 -148.5t220.5 -116t282 -77t323 -27zM698 982q5 -24 4.5 -42t-6 -29.5t-15.5 -19.5t-23.5 -12t-30 -6
t-36.5 -2h-42q-21 1 -31 1l-44 226h32.5h31.5t28 -1t28 -3t24 -6t23 -9.5t18.5 -14.5t17 -20.5t12.5 -27t9 -34.5zM312 1326l104 -540h226q104 0 150 54q44 51 30 137.5t-76 144.5q-14 13 -29.5 22.5t-28 16.5t-33 11.5t-31.5 7t-38 3.5t-37.5 1h-44.5h-46l-28 142h-118z
M906 642h116l-28 144h48.5h49.5t42 1.5t41.5 5t32 10t26.5 17.5q9 7 14 14.5t8 18.5t4 21t-0.5 28.5t-4 34t-8 45t-10.5 54t-13.5 67t-15.5 79.5h-118q10 -52 25 -129q21 -104 23 -127t-8 -38q-2 -3 -5.5 -5.5t-9 -4t-10.5 -2.5t-14 -2t-15.5 -1.5t-19.5 -0.5h-22h-26h-30
l-60 310h-116zM1616 982q5 -24 4.5 -42t-6 -29.5t-15 -19.5t-23 -12t-30.5 -6t-36.5 -2h-41.5q-21 1 -32 1l-44 226h30.5h31t28.5 -0.5t27.5 -2.5t24.5 -6t23.5 -9.5t19 -14.5t17 -20.5t13 -27.5t9.5 -35zM1230 1326l104 -540h226q103 0 148 54q45 51 31.5 137.5
t-75.5 144.5q-13 11 -24.5 20t-27 15.5t-25 11t-30 7.5t-28.5 4.5t-34.5 2t-34.5 1t-41.5 0.5h-42.5l-30 142h-116z" />
</svg>