<svg xmlns="http://www.w3.org/2000/svg" xmlns:xlink="http://www.w3.org/1999/xlink" version="1.1" viewBox="-10 0 2068 2048">
   <path fill="currentColor"
d="M1308 228q111 0 192.5 74t91.5 182l304 96q67 21 109.5 77.5t42.5 126.5q0 58 -29.5 108t-80.5 80l-514 292l330 328h180q47 0 80.5 33.5t33.5 81t-33.5 80.5t-80.5 33h-228q-46 0 -80 -34l-392 -392q32 -94 8 -197t-100 -179q-53 -53 -121.5 -80.5t-138.5 -27.5
t-138.5 27.5t-121.5 80.5l-262 248q-18 17 -18.5 40.5t16 41t39.5 17.5t41 -15l262 -250v0q16 -16 40 -34q74 -49 165.5 -40.5t157 74t73.5 157.5t-42 165q-27 35 -32 40l-130 130h320q47 0 80.5 33.5t33.5 81t-33.5 80.5t-80.5 33h-1024q-94 0 -161 -67t-67 -161
q0 -145 36.5 -284.5t102.5 -259t160 -222.5t207 -179t246.5 -124.5t275.5 -62.5q19 -100 97.5 -166t182.5 -66zM1308.5 598q35.5 0 60.5 -25.5t25 -61t-25 -60.5t-60.5 -25t-61 25t-25.5 60.5t25.5 61t61 25.5z" />
</svg>