<svg xmlns="http://www.w3.org/2000/svg" xmlns:xlink="http://www.w3.org/1999/xlink" version="1.1" viewBox="-10 0 2058 2048">
   <path fill="currentColor"
d="M1027.5 0q52.5 0 90 37.5t37.5 90.5v143q3 1 9.5 1t9.5 1l1.5 0.5t2.5 0.5l193 35q52 10 82 53.5t20 95.5t-53.5 82.5t-95.5 20.5l-189 -34q-183 -26 -313 24q-101 39 -116 112q-9 47 5 81q17 31 50 53q31 20 80.5 39.5t90.5 31.5t124 34l12 4q77 20 124.5 34t116.5 41.5
t117 59.5q98 64 143 158q49 103 26 237q-19 109 -89 187t-173 120q-70 29 -178 43v133q0 53 -37.5 90.5t-90 37.5t-90 -37.5t-37.5 -90.5v-139q-1 0 -3 -0.5l-2 -0.5h-2q-78 -12 -183 -41.5t-182 -63.5q-48 -22 -67.5 -71.5t2.5 -97.5t71.5 -67t97.5 3q59 26 147.5 50.5
t152.5 34.5q190 27 305 -20q91 -37 106 -116q9 -46 -5 -81q-14 -28 -52 -53q-45 -29 -111 -51.5t-185 -54.5l-11 -3q-78 -20 -124.5 -34t-115.5 -41.5t-117 -59.5q-99 -65 -144 -158q-49 -102 -24 -237q21 -109 94.5 -185.5t178.5 -118.5q69 -29 173 -44v-141
q0 -52 37.5 -90t90 -38z" />
</svg>