<svg xmlns="http://www.w3.org/2000/svg" xmlns:xlink="http://www.w3.org/1999/xlink" version="1.1" viewBox="-10 0 2068 2048">
   <path fill="currentColor"
d="M2044 1423q-91 -347 -266 -619q-172 -267 -345 -411q-171 -142 -367 -235q-193 -91 -293 -118q-85 -22 -153 -33h-8q-46 -4 -85 27q-39 32 -44 81q-12 103 95 128l-568 1653q-25 75 16 116q29 29 71 29q17 0 46 -8l344 -120l461 -158l855 -295q0 5 4 10.5t4 10.5
q21 91 116 91q18 0 29 -4q46 -12 73 -54t15 -91zM931 1634q-17 -42 -58 -91q-79 -79 -189 -79t-189 79q-115 117 -66 262l-299 103l249 -726l25 37q50 50 120 50q71 0 121 -50t50 -120q0 -71 -50 -121q-79 -79 -183 -37l233 -673q90 22 180 58q87 35 226 121q129 80 247 193
q116 112 231 295q116 185 191 409zM1060 567q0 33 -25 58t-58 25q-34 0 -56 -25q-23 -26 -23 -58q0 -79 79 -79q32 0 58 23q25 22 25 56zM993 1294q-41 37 -41 91q0 56 41 92q37 37 92 37q54 0 91 -37t37 -92q0 -54 -37 -91q-37 -42 -91 -42t-92 42zM1429 966q0 72 -47 120
q-48 50 -119 50q-70 0 -120 -50t-50 -120t50 -119q49 -47 120 -47q66 0 116 50t50 116z" />
</svg>