<svg xmlns="http://www.w3.org/2000/svg" xmlns:xlink="http://www.w3.org/1999/xlink" version="1.1" viewBox="-10 0 2067 2048">
   <path fill="currentColor"
d="M495 1184h-163q-17 0 -28 -11.5t-11 -27.5v-134q0 -17 12 -28t24 -11h156v21q0 26 18.5 41t46.5 15h66q27 0 46 -19t19 -46v-68q0 -65 -50 -65q60 -49 149 -80q38 -146 115 -234.5t216 -130.5q57 -17 124 -20.5t141 12t140.5 49t124 96t89.5 146.5q72 22 131 62.5
t97 91.5t62 112t26.5 123.5t-10.5 126.5q-16 69 -54.5 129.5t-93.5 105.5t-130 70.5t-159 24.5q-80 83 -194.5 112.5t-227 4t-197.5 -97.5q-195 10 -330 -94t-155 -276zM1250 1211q7 43 25 78t43 57t55 38t61.5 21.5t62.5 7t58 -5.5q98 -19 170 -87.5t95 -165.5
q30 -129 -31 -240l-35 -65q2 40 -13 87t-53 94.5t-92 73.5q52 -54 74.5 -113t15.5 -110.5t-34.5 -99.5t-71 -84t-98 -60.5t-111.5 -32.5q-117 -16 -205.5 22t-173.5 123q126 12 215 73.5t123 175.5q-36 -59 -97 -97.5t-125 -51.5t-123.5 -9.5t-98.5 23.5q-91 46 -144 130
t-45 181q2 25 7 48.5t15 44t19 37t24 33t24.5 27t28 24.5t25.5 19.5t25.5 18t21.5 14.5q-7 -31 -7 -69.5t8 -84t33 -88t64 -67.5q-30 49 -34 104.5t17 105t62.5 92t102 65.5t136 26.5t165.5 -25.5q-229 -98 -184 -288zM427 865h-133q-23 0 -38.5 -16t-15.5 -38v-131
q0 -23 15.5 -38.5t38.5 -15.5h133q22 0 37.5 15.5t15.5 38.5v131q0 22 -15.5 38t-37.5 16zM34 732q-14 0 -23.5 -9.5t-9.5 -23.5v-93q0 -14 9.5 -23.5t23.5 -9.5h93q13 0 23 9.5t10 23.5v93q0 14 -9.5 23.5t-23.5 9.5h-93zM559 649v-73q0 -13 9 -21.5t22 -8.5h71
q13 0 22 8.5t9 21.5v73q0 12 -9 21t-22 9h-71q-13 0 -22 -9t-9 -21zM187 956v83q0 16 -11.5 27.5t-26.5 11.5h-83q-16 0 -27 -11.5t-11 -27.5v-83q0 -16 11 -26.5t27 -10.5h83q16 0 27 10.5t11 26.5z" />
</svg>