<svg xmlns="http://www.w3.org/2000/svg" xmlns:xlink="http://www.w3.org/1999/xlink" version="1.1" viewBox="-10 0 2068 2048">
   <path fill="currentColor"
d="M683 228q0 -48 33 -81t80 -33h455q48 0 81 33t33 81v113h170q71 0 121 50t50 121v455l158 52q40 13 61.5 47.5t16.5 75t-37 69.5l-359 329q-92 54 -181 54q-107 0 -211 -72q-59 -42 -130.5 -42t-131.5 42q-104 72 -209 72q-88 0 -181 -54l-360 -329q-31 -29 -36 -69.5
t16.5 -75t60.5 -47.5l158 -52v-455q0 -71 50.5 -121t120.5 -50h171v-113zM569 891l383 -127q72 -24 144 0l383 127v-322h-910v322zM1090 1614q136 93 275 93q69 0 142 -25.5t133 -67.5q32 -23 71 -21.5t68 27.5q82 66 180 90q47 10 71.5 50t13.5 87q-10 46 -49.5 70.5
t-86.5 14.5q-103 -24 -207 -90q-169 92 -336 92q-139 0 -286 -67q-7 -4 -26.5 -13t-29.5 -14q-9 5 -55 27q-146 67 -285 67q-165 0 -336 -91q-101 64 -207 89q-46 10 -86 -14.5t-51 -70.5q-10 -47 15 -87t71 -50q98 -23 179 -90q29 -26 68.5 -27t70.5 22q62 41 134.5 66.5
t141.5 25.5q140 0 275 -93q30 -21 66.5 -21t65.5 21z" />
</svg>