<svg xmlns="http://www.w3.org/2000/svg" xmlns:xlink="http://www.w3.org/1999/xlink" version="1.1" viewBox="-10 0 2068 2048">
   <path fill="currentColor"
d="M204 512q0 -85 61 -145t145 -60h1228q84 0 145 60t61 145v819h-206v-819h-1228v819h-206v-819zM0 1495q0 -25 18.5 -43.5t43.5 -18.5h1924q25 0 43.5 18.5t18.5 43.5q0 102 -72 174t-174 72h-1556q-102 0 -174 -72t-72 -174zM900 873l-100 100l100 99q22 22 22 54
t-22.5 54t-55 22t-54.5 -22l-152 -153q-23 -23 -23 -55t23 -54l152 -153q23 -23 55.5 -23t54 23t22 54.5t-21.5 53.5zM1258 765l152 153q23 22 23 54.5t-23 54.5l-152 153q-23 22 -55 22t-53.5 -22.5t-22 -54t22.5 -53.5l98 -99l-98 -100q-23 -23 -23 -54.5t22.5 -53.5
t54.5 -22t54 22z" />
</svg>