<svg xmlns="http://www.w3.org/2000/svg" xmlns:xlink="http://www.w3.org/1999/xlink" version="1.1" viewBox="-10 0 2068 2048">
   <path fill="currentColor"
d="M1024 34q-426 0 -724 290q-300 292 -300 700t300 700q298 290 724 290t724 -290q300 -292 300 -700t-300 -700q-298 -290 -724 -290zM1340 1488q0 4 -2 6q-1 0 -2 1.5t-3.5 4.5t-4.5 6q-8 10 -20 14q-8 4 -28 10q-15 4 -38 -10l-260 -192l-164 146l-22 4l-4 6h-4
q-17 0 -34 -52q-79 -294 -92 -294v-4l-254 -84q-37 -12 -42 -44q0 -12 11 -24.5t23 -17.5l14 -4l1022 -388q84 -37 84 22zM1322 754q0 -18 -16 -8l-16 8l-616 380l4 12q28 82 88 282q12 34 18 38l30 -256l8 -10q456 -399 488 -424z" />
</svg>