<svg xmlns="http://www.w3.org/2000/svg" xmlns:xlink="http://www.w3.org/1999/xlink" version="1.1" viewBox="-10 0 2069 2048">
   <path fill="currentColor"
d="M642 617q262 -219 554 -219q290 0 552 219q96 81 170.5 176.5t117.5 178.5q25 52 0 104q-43 83 -117.5 178.5t-170.5 176.5q-262 219 -552 219q-294 0 -554 -218q-79 -66 -151 -154l-319 185q-33 20 -71.5 15.5t-65.5 -32.5q-28 -28 -33.5 -65.5t14.5 -71.5l163 -285
l-163 -285q-20 -34 -14.5 -71t33 -65t65.5 -33t72 14l319 187q70 -85 152 -154h-1zM1593 1024q0 -47 -33.5 -80t-81 -33t-80 33t-32.5 80t32.5 80.5t80 33.5t81 -33.5t33.5 -80.5z" />
</svg>