<svg xmlns="http://www.w3.org/2000/svg" xmlns:xlink="http://www.w3.org/1999/xlink" version="1.1" viewBox="-10 0 2068 2048">
   <path fill="currentColor"
d="M256 512q-26 0 -45 18.5t-19 45t19 45.5t45 19h576h128v-64q0 -33 6 -64h-710zM1152 576v160v160q0 26 18.5 45t45 19t45.5 -19t19 -45v-160q0 -40 28 -68t67.5 -28t68 28t28.5 68v160q0 89 -56 160q56 70 56 160q0 64 -30 120q44 37 69 89t25 111q0 20 -2 38
q142 -50 232 -174.5t90 -279.5v-192q0 -98 -38.5 -187t-102.5 -153t-153 -102t-186 -38h-96q-52 0 -90 37.5t-38 90.5zM1280 256h96q136 0 260.5 53t214.5 142.5t143.5 214t53.5 262.5v192q0 137 -53.5 261.5t-143.5 214.5t-214.5 143t-260.5 53h-96h-256
q-105 0 -180.5 -75.5t-75.5 -180.5q0 -64 30 -120q-43 -37 -68.5 -89.5t-25.5 -110.5q0 -50 16 -90q-65 -32 -104.5 -94t-39.5 -136q0 -30 8 -64h-328q-105 0 -180.5 -75.5t-75.5 -181t75.5 -180.5t180.5 -75h832q84 -64 192 -64zM1024 1600h256q27 0 45.5 -19t18.5 -45.5
t-18.5 -45t-45.5 -18.5h-64h-192q-26 0 -45 18.5t-19 45t19 45.5t45 19zM960 896v-64h-128q-26 0 -45 18.5t-19 45t19 45.5t45 19h128h8q-8 -34 -8 -64zM1056 1152h-96q-26 0 -45 18.5t-19 45t19 45.5t45 19h64h192q26 0 45 -19t19 -45.5t-19 -45t-45 -18.5h-160z" />
</svg>