<svg xmlns="http://www.w3.org/2000/svg" xmlns:xlink="http://www.w3.org/1999/xlink" version="1.1" viewBox="-10 0 2058 2048">
   <path fill="currentColor"
d="M1326 164q2 -26 27 -38.5t58.5 -11t66.5 13.5q43 14 71 36q21 16 7 27q-35 -10 -68.5 -5t-63 11.5t-52 11t-35 -6t-11.5 -38.5zM497 192q-20 -17 22.5 -40t63.5 -28q36 -12 72 -13.5t63.5 11.5t30.5 41q1 31 -13 42t-38 6t-56.5 -12t-69.5 -12.5t-75 5.5zM1351 628
q27 0 46.5 19.5t19.5 46.5t-19.5 47t-46.5 20t-46 -20t-19 -47t19 -46.5t46 -19.5zM693 628q27 0 46.5 19.5t19.5 46.5t-19.5 47t-46.5 20t-46.5 -20t-19.5 -47t19.5 -46.5t46.5 -19.5zM2007 1302q-10 24 -26.5 37.5t-39 16t-45 0t-51 -13t-51 -21t-50.5 -24.5
q-42 212 -175.5 342t-346.5 170q0 1 21 2q38 1 78 3q61 2 130.5 -2.5t115 -10t129.5 -17.5q19 -3 28 -4q-23 -16 -36.5 -37.5t-16 -41t-1 -37.5t5 -28.5t6.5 -11.5q4 -2 19.5 1t36.5 15.5t34 30.5q16 -23 46 -37.5t52 -18t27 -0.5q5 2 8.5 24.5t-4.5 57.5t-33 61
q19 -3 40 -9q9 -3 28 17q27 28 -7 36l-8 2q-26 4 -50.5 9.5t-64.5 16t-79 19.5q-87 20 -188 32t-149 14.5t-149 5.5l4 48q6 26 -8.5 45.5t-35.5 24t-42.5 -6.5t-27.5 -37q1 35 -27 52t-57.5 1.5t-32.5 -58.5l-2 23q-1 27 -19.5 41.5t-40 13.5t-39 -16.5t-17.5 -42.5
q-15 26 -43 30t-49 -15t-18 -49l6 -52q-67 1 -128.5 4.5t-93.5 6.5t-33 3q-30 0 -47.5 -20.5t-17.5 -45t17.5 -45t48 -20.5t259.5 11q-194 -49 -317 -172.5t-157 -314.5q-30 15 -54 26t-54 22t-54.5 13.5t-48 -0.5t-41.5 -18t-29 -40q-7 -18 -8.5 -34t5 -32.5t13.5 -30
t26 -32t33 -30.5t43.5 -33t48 -33.5t56 -38t59.5 -39.5q3 -27 11 -81q-27 -37 -38 -71.5t-17.5 -94t-11.5 -84.5q-49 7 -72.5 -20.5t-24.5 -74.5q1 -14 3 -29.5t4 -24.5t3 -10q2 -4 12 -6t24 -3.5t16 -1.5q4 -22 14.5 -39.5t22.5 -30.5t33.5 -23.5t38.5 -17.5t46.5 -12.5
t49 -8t54.5 -5t54 -3.5t56 -2h6q153 -166 334 -200q-18 -23 -25.5 -48t-6.5 -45t5.5 -37t9.5 -26t7 -10q5 -3 26 4.5t47 32t35 59.5q10 -17 29 -28.5t34 -15t19 -1.5q4 1 8 17.5t-1.5 42.5t-26.5 47q222 20 395 209q43 2 74.5 4.5t69 8.5t64.5 16t51.5 25t39.5 36.5t20 50.5
q3 0 16.5 1t23.5 3t12 6q1 1 3 10t4.5 24.5t2.5 29.5q-2 47 -25.5 74t-72.5 21q-4 24 -8.5 65.5t-10.5 73t-17 59.5q16 75 20 150q20 13 50 33t48.5 32.5t43 29.5t39 29.5t31.5 28.5t25 29.5t14.5 29t5.5 31.5t-8 33zM890 628q1 -53 -16.5 -88t-48 -51.5t-72 -24.5t-89 -6.5
t-98.5 3.5q-82 3 -126 13.5t-62 44.5q-19 31 -15 96t18 131.5t40 121.5t52 68q22 10 96.5 14.5t155 -6t105.5 -37.5q24 -28 42.5 -122t17.5 -157zM1105 868q-4 -13 -11.5 -40t-13 -43t-16 -32t-23.5 -19q-6 -2 -22.5 -2t-22.5 2q-18 5 -29 27t-21.5 63.5t-19.5 62.5
q28 0 48 10t31.5 20t17.5 10t13 -8t14 -17.5t21.5 -19.5t33.5 -14zM1664 519q-18 -34 -62.5 -44.5t-129.5 -13.5q-62 -7 -119.5 -3.5t-102 15.5t-71 50.5t-25.5 104.5q-2 65 14 158.5t39 120.5q25 27 106 38t155 6.5t96 -14.5q24 -12 50.5 -66t43 -120.5t21.5 -132
t-15 -99.5z" />
</svg>