<svg xmlns="http://www.w3.org/2000/svg" xmlns:xlink="http://www.w3.org/1999/xlink" version="1.1" viewBox="-10 0 2058 2048">
   <path fill="currentColor"
d="M640.5 0q39.5 0 67.5 28t28 68v160h576v-160q0 -40 28.5 -68t68 -28t67.5 28t28 68v160h160q106 0 181 75t75 181v64v193v1024q0 106 -75 180.5t-181 74.5h-1280q-105 0 -180.5 -74.5t-75.5 -180.5v-1024v-193v-64q0 -106 75.5 -181t180.5 -75h160v-160q0 -40 28.5 -68
t68 -28zM1728 769h-1408v1024q0 26 19 45t45 19h1280q27 0 45.5 -19t18.5 -45v-1024zM1444 1188l-448 449q-28 29 -68 29t-68 -29l-254 -257q-29 -28 -29 -68t28.5 -68t68 -28t66.5 28l188 189l380 -380q28 -29 68 -29t67.5 29t28 68t-27.5 67z" />
</svg>