<svg xmlns="http://www.w3.org/2000/svg" xmlns:xlink="http://www.w3.org/1999/xlink" version="1.1" viewBox="-10 0 2066 2048">
   <path fill="currentColor"
d="M1023.5 0q139.5 0 272 37t244.5 102.5t206.5 160t160.5 207t102.5 245.5t36.5 272t-36.5 272t-102.5 245.5t-160.5 207t-206.5 160t-244.5 102.5t-272 37t-272 -37t-244.5 -102.5t-206 -160t-160 -207t-102.5 -245.5t-36.5 -272t36.5 -272t102.5 -245.5t160 -207
t206 -160t244.5 -102.5t272 -37zM1023.5 733q29.5 0 52 22t22.5 51v85l94 43l140 -41v-98q0 -82 -42 -151t-113 -109t-153.5 -40t-153.5 39.5t-112.5 108t-41.5 149.5v449q0 30 -21.5 51t-52 21t-52.5 -21t-22 -51v-189h-236v191q0 128 90.5 218.5t219.5 90.5
q83 0 154 -40.5t112.5 -111t41.5 -153.5v-441q0 -30 22 -51.5t51.5 -21.5zM1716 1243v-191h-236v198q0 30 -22 51t-52.5 21t-52 -21t-21.5 -51v-195l-140 41l-94 -43v192q0 127 90.5 216.5t217.5 89.5q129 0 219.5 -90t90.5 -218z" />
</svg>