<svg xmlns="http://www.w3.org/2000/svg" xmlns:xlink="http://www.w3.org/1999/xlink" version="1.1" viewBox="-10 0 2058 2048">
   <path fill="currentColor"
d="M196 503q-30 -18 -31 -53.5t27 -54.5l568 -389q10 -6 18 -6q19 0 28.5 15.5t-0.5 32.5l-310 559q-12 23 -38.5 30.5t-49.5 -6.5zM64 687q0 -38 32.5 -56t63.5 1l182 108q24 13 30 41t-8 50l-242 368q-12 20 -35 13t-23 -31v-494zM1242 48q-10 -17 -0.5 -32.5t28.5 -15.5
q8 0 18 6l568 389q29 19 28 54.5t-30 53.5l-212 128q-23 14 -50 6.5t-40 -30.5zM1984 687v494q0 25 -23 31.5t-35 -13.5l-240 -368q-15 -22 -9 -50t29 -41l182 -108q31 -19 63.5 -1t32.5 56zM1786 1671q28 -3 49 15.5t21 46.5q0 20 -11 36t-29 23l-692 255q-3 1 -10 1
q-11 0 -18.5 -8t-7.5 -19v-211q0 -25 16 -43t40 -20zM934 2048q-8 0 -10 -1l-690 -257q-19 -7 -30.5 -22.5t-11.5 -34.5q0 -28 21 -46.5t49 -15.5l642 76q24 3 40 21t16 43v210q0 11 -7.5 19t-18.5 8zM168 1531q-36 -4 -51 -36t5 -62l314 -481q20 -30 56 -29t54 32l342 600
q12 20 -1 40t-37 18zM1926 1433q19 30 4 62t-50 36l-680 81q-24 2 -37 -18t-1 -40l340 -598q19 -31 55 -32t55 29zM1058 1476q-12 20 -34 20t-34 -20l-312 -548q-19 -32 -0.5 -63.5t54.5 -31.5h584q36 0 55 31.5t1 63.5zM698 704q-37 0 -55.5 -31.5t-0.5 -63.5l320 -576
q19 -33 56 -33h12q39 0 56 33l320 576q19 32 0.5 63.5t-54.5 31.5h-654z" />
</svg>