<svg xmlns="http://www.w3.org/2000/svg" xmlns:xlink="http://www.w3.org/1999/xlink" version="1.1" viewBox="-10 0 2058 2048">
   <path fill="currentColor"
d="M1166 130q0 55 -37 92t-92 37t-92 -37q-38 -38 -38 -92t38 -92t92 -38t92 38q37 37 37 92zM1384 1969l-4 -9q49 -67 45 -150q-5 -93 -75 -184v-13h4q8 0 17 -10t4 -23q-4 -29 -33 -29h-4l-9 -17q-67 -129 -77 -151q-23 -47 -54 -169q-31 -120 -40 -278v-8h92q7 0 27 -17
q19 -17 15 -42q0 -19 -13 -37q-12 -17 -23 -23t-14 -6h-63q-9 -124 40 -241q48 -115 110 -161q63 -42 25 -96q-25 -41 -71 -29q-5 0 -16 8q-12 9 -27 15t-32 6q-34 0 -79 -29l-8 -4l-9 4q-42 33 -79 33q-42 0 -88 -37q-50 33 -92 33q-16 0 -31 -6t-27 -15q-11 -8 -17 -8
q-43 -12 -71 29q-33 54 25 96q64 47 111 161q48 117 44 241h-76q-12 0 -31 16q-18 16 -23 46q-4 25 15 44t31 19h100l4 8q-9 162 -39 276q-30 115 -55 167q-25 51 -81 155v8l-4 9h-4q-34 0 -38 29q-5 13 4 23t17 10v13q-80 108 -84 171q-4 90 46 159v13h-4q-20 16 -25 33
l-8 46h785q-5 -39 -8 -46z" />
</svg>