<svg xmlns="http://www.w3.org/2000/svg" xmlns:xlink="http://www.w3.org/1999/xlink" version="1.1" viewBox="-10 0 2058 2048">
   <path fill="currentColor"
d="M1022 0q-404 0 -686 209q-283 210 -283 508q0 78 19 135q20 61 58 92q40 33 78 54q39 22 97 28q67 7 92 8q33 2 88 0q15 0 30 -0.5t23 -1t10 -0.5h54h198q-34 130 -34 273q0 30 13 176q0 -13 -51 4q-48 15 -100 86q-51 69 -51 191q0 130 126 208t319 78t319 -78
q125 -77 125 -208q0 -123 -50 -191q-52 -70 -98 -86q-48 -17 -53 -4q5 -57 9 -88q3 -22 6 -46q2 -16 2 -42q0 -154 -38 -273h197h55q2 0 10 0.5t23 1t30 0.5q55 2 88 0q25 -1 92 -8q58 -6 97 -28q36 -20 79 -54q41 -32 61 -92q19 -57 19 -135q-5 -299 -287 -508t-686 -209z
" />
</svg>