<svg xmlns="http://www.w3.org/2000/svg" xmlns:xlink="http://www.w3.org/1999/xlink" version="1.1" viewBox="-10 0 2068 2048">
   <path fill="currentColor"
d="M563.5 1126q97.5 0 180 -48t130.5 -131t48 -180t-48 -179.5t-130.5 -130.5t-180 -48t-180 48t-131 130.5t-48.5 179.5t48.5 180t131 131t180 48zM1126 767q0 136 -60 255t-165.5 197.5t-234.5 102.5v111h102q42 0 72 30.5t30 72.5t-30 72t-72 30h-102v103q0 42 -30 72
t-72 30t-72 -30t-30 -72v-103h-102q-43 0 -73.5 -30t-30.5 -72t31 -72.5t73 -30.5h102v-111q-130 -24 -235.5 -102.5t-166 -197.5t-60.5 -255q0 -115 45 -219t120 -179t179.5 -119.5t219 -44.5t219 44.5t179.5 119.5t119.5 179t44.5 219zM870 1359q87 -45 166 -124
q105 96 244 96q97 0 179.5 -48t130.5 -130.5t48 -179.5t-48 -180t-130.5 -131t-179.5 -48q-29 0 -68 7q-26 -111 -76 -193q73 -19 144 -19q173 0 318 99l66 -66l-106 -106q-16 -17 -20.5 -39.5t4.5 -44.5q8 -22 27.5 -34.5t42.5 -12.5h358q32 0 55 22.5t23 53.5v359
q0 23 -13.5 42.5t-35 28.5t-44 4.5t-39.5 -20.5l-106 -108l-66 66q100 147 100 320q0 115 -45 219t-120.5 179.5t-180 120t-218.5 44.5q-119 0 -225 -47t-185 -130z" />
</svg>