<svg xmlns="http://www.w3.org/2000/svg" xmlns:xlink="http://www.w3.org/1999/xlink" version="1.1" viewBox="-10 0 2068 2048">
   <path fill="currentColor"
d="M1942 1225q106 138 106 310q0 104 -41 199t-109.5 163.5t-163.5 109.5t-198 41q-174 0 -312 -107q-96 21 -200 21q-127 0 -249 -33.5t-225 -94t-189.5 -147t-147 -189.5t-94 -224.5t-33.5 -249.5q0 -105 20 -201q-106 -138 -106 -312q0 -104 41 -198.5t109.5 -163
t163.5 -109t198 -40.5q175 0 312 106q96 -21 200 -21q128 0 250 33.5t224.5 94t189 147.5t147 190t94 224.5t33.5 249.5q0 105 -20 201zM1052 1642q77 0 150 -15t139 -46.5t115 -77.5t78.5 -112t29.5 -144q0 -49 -13.5 -91t-35.5 -74t-55.5 -59t-68 -46.5t-78.5 -36
t-81.5 -27t-83.5 -20.5q-24 -6 -69 -16q-54 -12 -78.5 -18t-60 -16t-49.5 -18t-30.5 -20.5t-21.5 -27.5t-5 -35q0 -52 50 -77.5t142 -25.5q57 0 102 15.5t72.5 38t51 45t52.5 38t64 15.5q63 0 100.5 -42.5t37.5 -102.5q0 -74 -74.5 -133.5t-189 -90t-242.5 -30.5
q-71 0 -140 12.5t-134.5 41t-114.5 70.5t-79 106t-30 142q0 44 8 82.5t19.5 67.5t36 55.5t44.5 44.5t57.5 36t62.5 29t73.5 24.5t76 20.5t83.5 20q51 12 77 19q8 2 23 6q29 7 43 10.5t36 10.5t32 12.5t23.5 14.5t19.5 19t10.5 23.5t4.5 30.5q0 52 -53.5 86t-140.5 34
q-57 0 -104.5 -15t-77 -38t-58 -49.5t-49.5 -49.5t-50.5 -38t-62.5 -15q-66 0 -100 40.5t-34 99.5q0 80 74.5 148.5t201.5 108.5t274 40z" />
</svg>