<svg xmlns="http://www.w3.org/2000/svg" xmlns:xlink="http://www.w3.org/1999/xlink" version="1.1" viewBox="-10 0 2068 2048">
   <path fill="currentColor"
d="M756 1267l-132 -56q80 -31 164 2q87 37 124 122q34 89 -2 172q-35 86 -121.5 121.5t-172.5 -0.5q-81 -34 -116 -110l130 54q63 27 127 0.5t91 -89.5q26 -63 -1 -126.5t-91 -89.5zM2048 292v1464q0 121 -86 206.5t-206 85.5h-1464q-120 0 -206 -85.5t-86 -206.5v-444
l408 169q20 103 103.5 172t190.5 69q83 0 153 -41.5t110.5 -114t36.5 -158.5l362 -258q109 2 203.5 -50.5t149.5 -146t55 -203.5q0 -108 -53 -200.5t-145 -146t-200.5 -53.5t-201 53.5t-146.5 146t-54 200.5v5l-252 367q-102 -6 -186 52l-534 -221v-661q0 -121 86 -206.5
t206 -85.5h1464q120 0 206 85.5t86 206.5zM1106 750q0 -110 78.5 -188.5t189 -78.5t188.5 78.5t78 188.5t-78 189t-188.5 79t-189 -79t-78.5 -189zM1172 750q0 82 59.5 141.5t142 59.5t141.5 -59t59 -141.5t-59 -141.5t-141.5 -59t-142 59t-59.5 141z" />
</svg>