<svg xmlns="http://www.w3.org/2000/svg" xmlns:xlink="http://www.w3.org/1999/xlink" version="1.1" viewBox="-10 0 2068 2048">
   <path fill="currentColor"
d="M228 228h1592q93 0 160.5 66.5t67.5 159.5v1138q0 94 -67.5 161t-160.5 67h-1592q-94 0 -161 -67t-67 -161v-1138q0 -93 67 -159.5t161 -66.5zM758 730h2q-11 -22 -32 -35t-45.5 -13t-45 13t-31.5 35l-256 512q-15 31 -3.5 65t43 49.5t64.5 4.5t48 -43l34 -66h294l32 66
q16 32 50 43t65.5 -4.5t42 -49.5t-5.5 -65zM758 1108h-150l74 -150zM1080 768v512q0 36 25 60t61 24h200q92 0 170.5 -45.5t124 -123.5t45.5 -171.5t-45.5 -171.5t-124 -124t-170.5 -46h-200q-36 0 -61 25t-25 61zM1252 854h114q70 0 120 49.5t50 120t-50 120.5t-120 50
h-114v-340z" />
</svg>