<svg xmlns="http://www.w3.org/2000/svg" xmlns:xlink="http://www.w3.org/1999/xlink" version="1.1" viewBox="-10 0 2068 2048">
   <path fill="currentColor"
d="M1024 192q-113 0 -220.5 30t-199 83.5t-168 130.5t-130.5 168t-84 199t-30 221v161q0 40 -28 67.5t-67.5 27.5t-68 -27.5t-28.5 -67.5v-161q0 -139 37 -272t103 -245.5t160.5 -207t207 -160t245 -102.5t272 -37t272 37t244.5 102.5t206.5 160t160.5 207t103 245.5t37 272
v577q0 95 -47 176.5t-128.5 128.5t-176.5 47l-442 -1q-26 44 -70 70t-96 26h-128q-79 0 -135.5 -56t-56.5 -135t56.5 -135.5t135.5 -56.5h128q52 0 96.5 25.5t69.5 69.5l442 1q67 0 113.5 -46.5t46.5 -113.5v-577q0 -113 -30 -221t-83.5 -199t-130.5 -168t-168 -130.5
t-199 -83.5t-221 -30zM576 833h64q53 0 90.5 37.5t37.5 89.5v448q0 52 -37.5 90t-90.5 38h-64q-105 0 -180.5 -75t-75.5 -181v-192q0 -106 75.5 -180.5t180.5 -74.5zM1472 833q106 0 181 74.5t75 180.5v192q0 106 -75 181t-181 75h-64q-52 0 -90 -38t-38 -90v-448
q0 -52 38 -89.5t90 -37.5h64z" />
</svg>