<svg xmlns="http://www.w3.org/2000/svg" xmlns:xlink="http://www.w3.org/1999/xlink" version="1.1" viewBox="-10 0 2068 2048">
   <path fill="currentColor"
d="M1220 512l330 -169q89 -45 186 -45h184q66 0 102.5 53.5t13.5 114.5q-44 117 -127.5 209.5t-194.5 148.5l-874 436q-22 11 -46 11h-440q-46 0 -78 -36l-234 -273q-16 -19 -10.5 -43.5t28.5 -35.5l102 -52q40 -21 88 -1l186 83l314 -161l-470 -303q-24 -16 -22.5 -46
t28.5 -43l146 -73q79 -40 164 -9zM0 1681q0 -42 30.5 -72.5t71.5 -30.5h1844q41 0 71.5 30.5t30.5 72.5t-30 72t-72 30h-1844q-42 0 -72 -30t-30 -72z" />
</svg>