<svg xmlns="http://www.w3.org/2000/svg" xmlns:xlink="http://www.w3.org/1999/xlink" version="1.1" viewBox="-10 0 2067 2048">
   <path fill="currentColor"
d="M1 1068q2 -165 48.5 -315t127.5 -269.5t190 -212.5t240.5 -150.5t275.5 -77.5q143 -20 277.5 -1t254 67.5t222 126.5t182.5 176t134.5 216.5t77.5 246.5q24 149 11 289t-65.5 269.5t-133.5 238.5t-193 195t-244 140q-29 12 -46.5 4.5t-28.5 -36.5q-37 -95 -110.5 -286.5
t-110.5 -287.5q-10 -25 -3 -42t32 -28q154 -71 179 -230q4 -30 4 -46q0 -115 -78.5 -199.5t-191.5 -94.5q-120 -11 -212 61.5t-109 185.5q-16 103 30.5 190.5t142.5 130.5q29 14 36.5 30t-3.5 46q-37 96 -111 289t-111 289q-9 21 -26 28t-39 -1q-168 -65 -309.5 -191
t-230.5 -301q-25 -49 -44 -100t-29 -86t-18 -84.5t-10 -67.5t-5 -64.5t-3 -47.5zM87 1061q2 62 5 91q10 113 48.5 221t104.5 207t165 184t223 145q17 9 23 -9q21 -56 85.5 -225t100.5 -261q4 -10 1.5 -15.5t-11.5 -11.5q-199 -124 -188 -355q6 -133 98 -233
q93 -101 225 -121.5t252 48.5q86 50 138 138t52 191q0 23 -3 45q-23 188 -190 289q-8 5 -9.5 10t1.5 14q37 95 104.5 273.5t81.5 213.5q6 18 23 9q222 -103 364 -298q216 -301 175 -665q-14 -121 -59.5 -234t-114.5 -209.5t-164.5 -173.5t-206 -127.5t-242.5 -70.5t-269 -3
q-131 16 -252 68.5t-221.5 137.5t-176 194t-118.5 246.5t-45 286.5z" />
</svg>