<svg xmlns="http://www.w3.org/2000/svg" xmlns:xlink="http://www.w3.org/1999/xlink" version="1.1" viewBox="-10 0 2068 2048">
   <path fill="currentColor"
d="M1666 1100q-77 0 -138 24q-12 -85 -50 -154l134 -190q8 -15 4 -24q-10 -18 -16 -22l-274 -88v-284q0 -14 -12 -26q-13 -5 -30 0l-268 84l-168 -232q-8 -8 -26 -8q-10 0 -24 8l-168 232l-268 -84q-17 -10 -30 0q-12 12 -12 26v284l-268 88q-12 5 -22 22q-4 9 4 24l168 232
l-168 230q-8 17 -4 30q5 12 22 16l260 84q-22 42 -22 106v8q-33 -12 -66 -12q-94 0 -158 66q-66 69 -66 160q0 168 224 168h1442q154 0 268 -112q114 -110 114 -270t-112 -274q-110 -112 -270 -112zM1050 718q-202 0 -342 140t-140 342v22q-4 -4 -18 -4q-106 0 -180 74
q-28 -37 -38 -70q-46 -104 -46 -210q0 -107 46 -206q38 -104 114 -172q68 -76 172 -114q99 -46 204 -46q107 0 210 46q103 43 168 114q76 76 110 160q-116 -76 -260 -76z" />
</svg>