<svg xmlns="http://www.w3.org/2000/svg" xmlns:xlink="http://www.w3.org/1999/xlink" version="1.1" viewBox="-10 0 2068 2048">
   <path fill="currentColor"
d="M124 220l242 189h760q85 0 145.5 60.5t60.5 144.5v553l102 80v-19v-409v-55l46 -31l306 -204q25 -15 53.5 -16.5t53 12t39 37.5t14.5 52v819q0 29 -14 53.5t-40 37.5q-25 14 -53.5 12.5t-52.5 -17.5l-44 -30l276 217q25 20 29 52t-15.5 56.5t-51 28.5t-56.5 -16
l-1894 -1485q-25 -19 -29 -51t15.5 -57t51.5 -29t56 15zM1302 1538q-27 46 -73.5 73t-102.5 27h-818q-85 0 -145.5 -60t-60.5 -145v-819q0 -14 2 -21z" />
</svg>