<svg xmlns="http://www.w3.org/2000/svg" xmlns:xlink="http://www.w3.org/1999/xlink" version="1.1" viewBox="-10 0 2058 2048">
   <path fill="currentColor"
d="M704 96v288h192q0 -52 38 -90t90 -38t90 38t38 90h128q0 -53 37.5 -90.5t89.5 -37.5q53 0 91 38t38 90h64q80 0 136 56t56 136v625q0 78 -57 135l-15 17q-56 56 -56 135v369q0 79 -56.5 135t-136.5 56h-894q-80 0 -136 -56t-56 -135v-370q0 -77 -58 -135l-15 -16
q-56 -56 -56 -135v-625q0 -80 56 -136t136 -56h64v-288q0 -40 28 -68t68 -28t68 28t28 68zM704 640q-26 0 -45.5 19t-19.5 45t19.5 45.5t45.5 19.5h639q26 0 45 -19.5t19 -45.5t-19 -45t-45 -19h-639zM704 896q-26 0 -45.5 19t-19.5 45t19.5 45t45.5 19h639q26 0 45 -19
t19 -45t-19 -45t-45 -19h-639zM704 1152q-26 0 -45.5 19t-19.5 45t19.5 45t45.5 19h639q26 0 45 -19t19 -45t-19 -45t-45 -19h-639z" />
</svg>