<svg xmlns="http://www.w3.org/2000/svg" xmlns:xlink="http://www.w3.org/1999/xlink" version="1.1" viewBox="-10 0 2068 2048">
   <path fill="currentColor"
d="M0 1024q0 -139 37 -272t103 -245.5t160.5 -207t207 -160t245 -102.5t272 -37t272 37t244.5 102.5t206.5 160t160.5 207t103 245.5t37 272t-37 272t-103 245.5t-160.5 207t-206.5 160t-244.5 102.5t-272 37t-272 -37t-245 -102.5t-207 -160t-160.5 -207t-103 -245.5
t-37 -272zM1024.5 640q104.5 0 193 51.5t139.5 140t51 192.5t-51 192.5t-139.5 140t-193 51.5t-193 -51.5t-140 -140t-51.5 -192.5t51.5 -192.5t140 -140t193 -51.5zM1024.5 1536q104.5 0 199 -40.5t163 -109t109 -163.5t40.5 -199t-40.5 -199t-109 -163.5t-163 -109
t-199 -40.5t-199 40.5t-163 109t-109.5 163.5t-41 199t41 199t109.5 163.5t163 109t199 40.5zM1024.5 1152q52.5 0 90 -37.5t37.5 -90.5t-37.5 -90.5t-90 -37.5t-90.5 38t-38 90t38 90t90.5 38z" />
</svg>