<svg xmlns="http://www.w3.org/2000/svg" xmlns:xlink="http://www.w3.org/1999/xlink" version="1.1" viewBox="-11 0 2069 2048">
   <path fill="currentColor"
d="M1024 1792q-217 0 -416 -72q-97 71 -217 124q-178 76 -326 76q-20 0 -36.5 -11t-23.5 -29q-8 -18 -4 -37t18 -33v0v0h1q0 -1 2.5 -2.5t3.5 -3.5q14 -17 19 -22q36 -46 61 -88q76 -124 86 -250q-191 -219 -191 -484q0 -113 36.5 -220.5t102.5 -199t160.5 -168t207 -130.5
t245 -84t271.5 -30t271.5 30t245 84t207 130.5t160.5 168t103 199t37 221t-37 221t-103 199t-160.5 168t-207 130.5t-245 83.5t-271.5 29.5zM384 850q0 38 17.5 71t48.5 53l118 78q9 6 9 16q0 9 -5.5 14.5t-13.5 5.5h-109q-26 0 -45.5 18.5t-19.5 45t19.5 45.5t45.5 19h109
q61 0 104 -43.5t43 -104.5q0 -37 -17.5 -70t-48.5 -54l-117 -78q-9 -5 -9 -16q0 -8 5.5 -13t13.5 -5h76q26 0 45 -18.5t19 -45t-19 -45.5t-45 -19h-76q-61 0 -104.5 43t-43.5 103zM1491 704q-61 0 -103.5 43t-42.5 103q0 38 17 71t48 53l118 78q8 5 8 16q0 9 -5.5 14.5
t-13.5 5.5h-108q-26 0 -45 18.5t-19 45t19 45.5t45 19h108q61 0 104 -43.5t43 -104.5q0 -37 -17.5 -70t-48.5 -54l-117 -78q-8 -4 -8 -16q0 -18 18 -18h77q26 0 45 -18.5t19 -45t-19 -45.5t-45 -19h-77zM884 730q-13 -17 -32.5 -23.5t-39.5 -0.5q-19 7 -31 24.5t-12 37.5
v384q0 26 19 45t45 19t45 -19t19 -45v-192l76 102q19 26 50.5 26t51.5 -26l77 -102v192q0 26 19 45t45 19t45.5 -19t19.5 -45v-384q0 -20 -12.5 -37.5t-32 -24t-39.5 0t-32 23.5l-141 186z" />
</svg>