<svg xmlns="http://www.w3.org/2000/svg" xmlns:xlink="http://www.w3.org/1999/xlink" version="1.1" viewBox="-10 0 2068 2048">
   <path fill="currentColor"
d="M2041 871q8 25 6 332.5t-17 361.5q-46 166 -161 284q-82 84 -173 130.5t-202 61.5q-63 8 -499 6.5t-487 -10.5q-156 -28 -290.5 -146.5t-187.5 -284.5q-21 -69 -25.5 -172t-3.5 -452q2 -277 4.5 -361.5t9.5 -114.5q39 -160 141.5 -280t251.5 -179q81 -32 170 -40.5
t326 -5.5q156 2 212.5 4t76.5 9q171 53 300 185q187 190 187 417q0 59 12 87t47 48q23 13 43.5 17t87.5 7q99 4 114 12q19 11 34.5 33.5t22.5 50.5zM569 580q-27 27 -29 67.5t19.5 75t58.5 44.5q24 7 231 5q151 -1 183 -3t47 -12q57 -37 57 -99q0 -69 -62 -100
q-22 -11 -53 -13t-183 -2q-77 0 -111.5 0.5t-67.5 2t-45.5 6.5t-22.5 10.5t-22 17.5zM1446 1494q50 -28 57 -84.5t-35 -95.5q-28 -26 -79.5 -30.5t-334.5 -4.5h-32q-303 0 -362 4t-83 26q-19 18 -30 47.5t-7 54.5q4 26 24 53t44 37q30 13 416 8l354 -3z" />
</svg>