<svg xmlns="http://www.w3.org/2000/svg" xmlns:xlink="http://www.w3.org/1999/xlink" version="1.1" viewBox="-10 0 2068 2048">
   <path fill="currentColor"
d="M1839 1212q-70 74 -174 142l261 393h-361l-163 -256q-89 37 -194 67l116 189h-482l82 -132q-125 15 -245 9l-78 123h-360l122 -184q-119 -48 -181.5 -124.5t-61.5 -170.5q2 -142 149 -296q104 -106 251.5 -190.5t321.5 -139.5q-94 35 -219 110q-176 92 -283 206
q-75 80 -107.5 161t-22 150.5t61 128.5t136.5 98l676 -1016l536 805q69 -51 124 -109q86 -91 132.5 -183.5t52.5 -176t-26.5 -159t-99.5 -135.5t-171.5 -104t-238.5 -65q-181 -29 -385 -15.5t-402 67.5q-296 50 -606 207q320 -181 713.5 -262.5t731.5 -29.5
q289 45 447 173.5t155 306.5q-1 198 -208 412zM1172 1499q96 -28 191 -68l-279 -438l-362 567q111 4 245 -17l117 -188z" />
</svg>