<svg xmlns="http://www.w3.org/2000/svg" xmlns:xlink="http://www.w3.org/1999/xlink" version="1.1" viewBox="-10 0 2066 2048">
   <path fill="currentColor"
d="M1023.5 0q138.5 0 271 37t245 103t207 160.5t160.5 206.5t102.5 245t36.5 272t-36.5 272t-102.5 245t-160.5 206.5t-207 160.5t-245 103t-271 37t-271 -37t-244.5 -103t-206.5 -160.5t-160.5 -206.5t-102.5 -245t-36.5 -272t36.5 -272t102.5 -245t160.5 -206.5
t206.5 -160.5t244.5 -103t271 -37zM104 1024q0 269 142 491.5t376 336.5l-438 -1203q-80 179 -80 375zM1024 1944q159 0 304 -52q0 -2 -2 -6.5t-4 -6.5l-282 -775l-276 803q123 37 260 37zM1150 592l334 990l92 -308q25 -82 36.5 -120t21.5 -89t10 -88q0 -76 -20.5 -134.5
t-55.5 -119.5q-3 -5 -8 -14q-29 -46 -42.5 -70t-26.5 -61.5t-13 -70.5q0 -66 44.5 -114.5t111.5 -48.5h10q-125 -115 -284.5 -178t-335.5 -63q-238 0 -441 112t-329 303q44 2 60 2q43 0 104.5 -3t101.5 -7l40 -3q23 -1 34 16.5t3 37t-31 22.5q-51 6 -106 9l336 997l200 -603
l-142 -394l-98 -9q-23 -1 -30.5 -21t3.5 -38t35 -17q150 13 240 13q43 0 104.5 -3t101.5 -7l40 -3q24 -1 34.5 16.5t2.5 37t-31 22.5q-51 6 -106 9zM1486 1819q209 -122 333.5 -333.5t124.5 -461.5q0 -236 -112 -442q4 36 4 94q0 159 -68 330z" />
</svg>