<svg xmlns="http://www.w3.org/2000/svg" xmlns:xlink="http://www.w3.org/1999/xlink" version="1.1" viewBox="-10 0 2068 2048">
   <path fill="currentColor"
d="M0 398q0 -70 50 -120t120.5 -50t121 50t50.5 120v284h-172h-56q-47 0 -80.5 -33t-33.5 -81v-170zM398 228h968q92 0 170.5 45.5t124 123.5t45.5 171v684h-588q-86 0 -147 61t-61 147v18q0 94 -67 161t-160.5 67t-160 -67t-66.5 -161v-1080q0 -96 -58 -170zM1650 1820
h-342h-626q93 0 172 -45.5t124.5 -124t45.5 -172.5v-18q0 -39 27.5 -67.5t66.5 -28.5h872q24 0 41 17t17 41q0 108 -53.5 200t-145 145t-199.5 53z" />
</svg>