<svg xmlns="http://www.w3.org/2000/svg" xmlns:xlink="http://www.w3.org/1999/xlink" version="1.1" viewBox="-10 0 2058 2048">
   <path fill="currentColor"
d="M1562 573q-42 51 -71 80q29 25 25 51q-17 68 -177 21q-61 -16 -105 -51q-43 -34 -34 -59q11 -37 101 -37q10 -18 26 -59h-5h-25q-68 0 -97 4q-104 16 -177 50q-71 32 -105 76q-34 43 -53 110q-19 65 -25 130q-7 66 -21 163q-16 103 -40 179q-58 208 -202 396
q-82 111 -194 211q-55 46 -59 122q-3 38 23.5 60t81.5 28q22 0 68 -8q335 -67 602 -257q248 -172 409 -411q159 -237 206 -491q0 -10 4 -25t4 -26q25 -169 -160 -257zM1394 691q18 -15 63 -59q45 -56 59 -76q11 -11 21 -29q1 -3 5.5 -10t5.5 -9q6 -12 10 -15
q113 -167 145 -282q31 -114 7 -139l-25 -30q-47 -42 -106 -42h-21q-67 4 -109 173l-51 228q-53 157 -67 193l-30 76z" />
</svg>