<svg xmlns="http://www.w3.org/2000/svg" xmlns:xlink="http://www.w3.org/1999/xlink" version="1.1" viewBox="-10 0 2068 2048">
   <path fill="currentColor"
d="M1494 1282q137 167 196.5 297t27.5 192q-24 47 -147 121t-235 110q-91 28 -203 39.5t-212 2.5q-243 -25 -453 -161q-87 -57 -114.5 -89t-27.5 -78q0 -92 97.5 -247t271.5 -340q100 -105 210 -204t125 -96q30 7 204.5 177t259.5 276zM745 562q-188 232 -316 446.5
t-180 354.5q-30 83 -41 156t2 109q7 17 3 16q-5 -3 -41 -57q-72 -110 -111 -226.5t-57 -272.5q-5 -55 -2 -98t20 -152q21 -134 89.5 -273.5t158.5 -232.5q38 -40 54.5 -44.5t63.5 11.5q19 6 38 14.5t41 22t37.5 23t41 30t37.5 30t41.5 35.5t38.5 33.5t42.5 38t39.5 36.5z
M2031 823q15 70 16.5 192.5t-12.5 193.5q-25 127 -77 243q-16 38 -50.5 97t-54.5 82q-10 13 -10 8t4 -27q7 -35 -1 -94t-29 -122q-39 -121 -131 -283t-185.5 -296t-191.5 -257q7 -6 20 -18q56 -51 85 -77t74 -61.5t87 -61.5q37 -23 81.5 -40t66.5 -17q10 0 36.5 23.5
t65 71.5t77 110t74.5 151t55 182zM550 144q-39 2 -40 -2q-1 -3 14 -12q14 -7 64 -31q163 -77 340 -93.5t334.5 21t291.5 120.5l-26.5 -2t-40 -1t-46.5 2.5t-63 8.5t-72 18t-91 31t-104 47q-83 40 -89 40q-3 -1 -54 -26t-114.5 -53t-149.5 -50t-154 -18z" />
</svg>