<svg xmlns="http://www.w3.org/2000/svg" xmlns:xlink="http://www.w3.org/1999/xlink" version="1.1" viewBox="-10 0 2066 2048">
   <path fill="currentColor"
d="M1184 743q87 0 155 25.5t109.5 69.5t62.5 100.5t21 122.5q0 35 -8 73.5t-32 83t-60.5 79.5t-99.5 58t-142 23h-196v-635h190zM1023.5 0q139.5 0 272 37t244.5 102.5t206.5 160t160.5 207t102.5 245.5t36.5 272t-36.5 272t-102.5 245.5t-160.5 207t-206.5 160
t-244.5 102.5t-272 37t-272 -37t-244.5 -102.5t-206 -160t-160 -207t-102.5 -245.5t-36.5 -272t36.5 -272t102.5 -245.5t160 -207t206 -160t244.5 -102.5t272 -37zM690 1489v-857h-122v857h122zM628.5 535q33.5 0 57.5 -23.5t24 -57.5t-24 -57.5t-57.5 -23.5t-57 23.5
t-23.5 57.5t23.5 57.5t57 23.5zM1206 1490q102 0 189 -36t144 -96t89 -137t32 -160q0 -62 -17 -122t-53.5 -116t-88.5 -98t-129 -67.5t-168 -25.5h-332v858h334z" />
</svg>