<svg xmlns="http://www.w3.org/2000/svg" xmlns:xlink="http://www.w3.org/1999/xlink" version="1.1" viewBox="-10 0 2068 2048">
   <path fill="currentColor"
d="M256 1639l242 -237q99 132 221 199t285 71q186 5 344 -90q63 66 86 88q-198 126 -434 121q-129 -3 -250 -48.5t-220 -128.5q1 -1 -73.5 72t-80.5 79q18 58 -1.5 116.5t-69.5 96t-115 37.5q-79 0 -134.5 -56.5t-55.5 -137.5q0 -50 23 -92.5t59.5 -66.5t82.5 -32.5t91 9.5z
M1674 629q120 196 116 416q-3 132 -54.5 257t-141.5 227q1 1 49 51t49 51q61 -8 104 36q33 36 31.5 86t-37.5 84t-86 33t-84 -37q-42 -44 -30 -105l-178 -189q125 -100 190 -229.5t68 -267.5q5 -169 -84 -330zM416 214q43 44 30 105l184 192q-2 2 -12 10t-17 14.5t-18 16
t-22.5 21t-22.5 23.5q-76 85 -117 191t-45 221q-4 174 80 329l-88 87q-117 -193 -110 -419q2 -134 51 -259t137 -226l-100 -106q-61 8 -104 -36q-33 -36 -32 -86t36 -84q36 -33 85.5 -31.5t84.5 37.5zM1860 33q78 0 133 57t55 135.5t-55 135t-133 56.5q-45 0 -64 -7
l-252 238q-97 -129 -226.5 -196.5t-281.5 -71.5q-189 -5 -344 89l-84 -87q197 -127 432 -122q130 3 251.5 49t220.5 130l162 -155q-8 -24 -8 -57q0 -80 58 -137t136 -57zM1028 454q28 0 64 5q115 14 214 72t165.5 143.5t98.5 196t18 225.5q-15 115 -73 214t-143 165
t-195.5 98t-224.5 18q-115 -14 -214 -72t-165.5 -143.5t-98.5 -196t-18 -225.5q19 -142 99.5 -256.5t204.5 -179t268 -64.5zM792 932q1 69 35 123.5t95 85.5l-46 207h296l-46 -207q62 -33 96 -86.5t34 -122.5q0 -98 -67 -164.5t-165 -68.5q-97 2 -163.5 67.5t-68.5 165.5z
M1024 641z" />
</svg>