<svg xmlns="http://www.w3.org/2000/svg" xmlns:xlink="http://www.w3.org/1999/xlink" version="1.1" viewBox="-10 0 2058 2048">
   <path fill="currentColor"
d="M1690 24q50 34 62.5 93.5t-21.5 110.5l-189 284h287q60 0 103 42.5t43 103t-43 103.5t-103 43h-483l-292 440h775q60 0 103 42.5t43 103t-43 103.5t-103 43h-971l-297 446q-34 51 -93.5 63t-109.5 -21q-50 -34 -62.5 -93.5t21.5 -110.5l189 -284h-287q-60 0 -103 -43
t-43 -103.5t43 -103t103 -42.5h483l292 -440h-775q-60 0 -103 -43t-43 -103.5t43 -103t103 -42.5h971l297 -446q34 -51 93.5 -63t109.5 21z" />
</svg>