<svg xmlns="http://www.w3.org/2000/svg" xmlns:xlink="http://www.w3.org/1999/xlink" version="1.1" viewBox="-10 0 2068 2048">
   <path fill="currentColor"
d="M1138 234v448h-966q141 -209 365.5 -331.5t486.5 -122.5q58 0 114 6zM1252 682v-430q192 44 353.5 156.5t270.5 273.5h-624zM106 796h236v456h-342q0 -240 106 -456zM682 1252h-226v-456h1136v456h-226v112h682v286q0 70 -50 120t-120 50h-626v-456q0 -93 -67.5 -159.5
t-161 -66.5t-160.5 66.5t-67 159.5v456h-626q-70 0 -120 -50t-50 -120v-286h682v-112zM1706 1252v-456h234q108 218 108 456h-342z" />
</svg>