<svg xmlns="http://www.w3.org/2000/svg" xmlns:xlink="http://www.w3.org/1999/xlink" version="1.1" viewBox="-10 0 2068 2048">
   <path fill="currentColor"
d="M1602 510l-248 -210l336 -178l358 200zM878 346l210 -128l158 158l-254 132zM580 378l146 -102l78 130l-168 102zM474 780l-40 -158l134 -84l62 162zM376 398l110 -82l40 108l-120 84zM270 732l-16 -130l102 -70l26 132zM130 808l96 -58l14 152l-104 56zM6 1014l88 -48
l4 176l-98 40zM276 1286l-128 38l-8 -214l116 -50zM454 992l-142 60l-24 -186l124 -66zM564 1512l-190 26l-38 -288l160 -50zM694 872l96 262l-210 62l-64 -248zM1086 1926l-324 -14l-112 -438l252 -40zM698 648l192 -102l128 210l-232 96zM884 1082l282 -86l240 396
l-364 52zM1120 690l308 -132l298 300l-404 120z" />
</svg>