<svg xmlns="http://www.w3.org/2000/svg" xmlns:xlink="http://www.w3.org/1999/xlink" version="1.1" viewBox="-10 0 2067 2048">
   <path fill="currentColor"
d="M518 254l317 346q33 36 30.5 83.5t-38 80t-83 30.5t-80.5 -38l-116 -128v1088q0 48 -33.5 82t-81 34t-82 -34t-34.5 -82v-1088l-117 128q-32 35 -79.5 37.5t-83 -30t-37 -80t30.5 -83.5l316 -346q36 -38 86 -38t85 38zM1125 216h115q48 0 81.5 34t33.5 81.5t-33.5 82
t-81.5 34.5h-115q-47 0 -81.5 -34.5t-34.5 -82t34.5 -81.5t81.5 -34zM1125 678h345q48 0 81.5 34t33.5 81.5t-33.5 82t-81.5 34.5h-345q-47 0 -81.5 -34.5t-34.5 -82t34.5 -81.5t81.5 -34zM1125 1140h576q48 0 81.5 33.5t33.5 81t-33.5 81.5t-81.5 34h-576q-47 0 -81.5 -34
t-34.5 -81.5t34.5 -81t81.5 -33.5zM1125 1602h807q48 0 81.5 33.5t33.5 81t-33.5 81.5t-81.5 34h-807q-47 0 -81.5 -34t-34.5 -81.5t34.5 -81t81.5 -33.5z" />
</svg>