<svg xmlns="http://www.w3.org/2000/svg" xmlns:xlink="http://www.w3.org/1999/xlink" version="1.1" viewBox="-10 0 2068 2048">
   <path fill="currentColor"
d="M958 363q30 -21 66.5 -21t65.5 21q134 92 275 92q70 0 142.5 -25t132.5 -67q32 -23 71 -22t68 27q82 67 180 90q47 10 71.5 50t13.5 87q-10 46 -49.5 70t-86.5 14q-108 -25 -207 -88q-167 91 -336 91q-141 0 -286 -66l-56 -28q-20 12 -55 28q-144 66 -285 66
q-165 0 -336 -91q-98 63 -207 88q-46 10 -86 -14t-51 -70q-10 -47 15 -87t71 -50q98 -23 179 -90q29 -26 68.5 -27t70.5 22q62 42 134.5 67t141.5 25q142 0 275 -92zM1090 1386q136 93 275 93q69 0 142 -25.5t133 -67.5q32 -23 71 -21.5t68 27.5q82 67 180 90
q47 10 71.5 49.5t13.5 86.5q-10 46 -49.5 70.5t-86.5 14.5q-108 -25 -207 -88q-169 92 -336 92q-139 0 -286 -67q-7 -4 -26.5 -13t-29.5 -14q-9 5 -55 27q-146 67 -285 67q-165 0 -336 -91q-98 63 -207 88q-46 10 -86 -14.5t-50.5 -71t14.5 -86t71 -49.5q98 -23 179 -90
q30 -26 69 -28t70 21q62 42 135 67.5t141 25.5q140 0 275 -93q30 -21 66.5 -21t65.5 21zM1090 874q136 93 275 93q69 0 142 -25.5t133 -67.5q32 -23 71 -21t68 28q80 65 180 89q47 10 71.5 50t13.5 87q-10 46 -49.5 70.5t-86.5 14.5q-103 -24 -207 -90q-171 93 -336 93
q-137 0 -286 -68q-7 -4 -26.5 -13t-29.5 -14q-9 5 -55 27q-148 68 -285 68q-163 0 -336 -92q-101 65 -207 89q-46 10 -86 -14.5t-51 -70.5q-10 -47 15 -87t71 -50q100 -23 179 -89q30 -26 69 -27.5t70 21.5q62 42 134.5 67t141.5 25q140 0 275 -93q30 -21 66.5 -21t65.5 21z
" />
</svg>