<svg xmlns="http://www.w3.org/2000/svg" xmlns:xlink="http://www.w3.org/1999/xlink" version="1.1" viewBox="-10 0 2068 2048">
   <path fill="currentColor"
d="M228 228v227h682v228h-682v796h682v228h-682q-94 0 -161 -67t-67 -161v-910v-341q0 -47 33.5 -80.5t81 -33.5t80.5 33.5t33 80.5zM1024 797v-569q0 -47 33.5 -80.5t80.5 -33.5h236q48 0 82 33l46 47q34 34 80 34h352q47 0 80.5 33.5t33.5 80.5v455q0 47 -33.5 80.5
t-80.5 33.5h-796q-47 0 -80.5 -33.5t-33.5 -80.5zM1024 1821v-569q0 -47 33.5 -80.5t80.5 -33.5h236q48 0 82 33l46 47q34 34 80 34h352q47 0 80.5 33t33.5 80v456q0 47 -33.5 80t-80.5 33h-796q-47 0 -80.5 -33t-33.5 -80z" />
</svg>