<svg xmlns="http://www.w3.org/2000/svg" xmlns:xlink="http://www.w3.org/1999/xlink" version="1.1" viewBox="-10 0 2067 2048">
   <path fill="currentColor"
d="M1 896q0 -126 73.5 -226t189.5 -139q-8 -54 -8 -83q0 -186 131.5 -317t317.5 -131q127 0 233 65.5t163 174.5q44 -52 108 -82t135 -30q132 0 226 93.5t94 226.5q0 26 -7 63h7q159 0 271 113t112 272t-112 271t-271 112h-179q-29 -71 -93.5 -115.5t-143.5 -44.5
q-7 0 -23 2q-78 -97 -201 -97q-122 0 -200 97q-16 -2 -24 -2q-79 0 -143 44t-93 116h-180q-159 0 -271 -112t-112 -271zM1152 1279v13q2 -1 4.5 -4t3.5 -5q38 -37 91 -37t90 37t37 90t-37 90l-9 9h12q52 0 90 38t38 90t-38 90t-90 38h-12q1 2 4 4t5 3q37 37 37 91t-37 91
t-90 37t-91 -37q-2 -1 -4 -5t-4 -5v13q0 52 -38 90t-90 38t-90 -38t-38 -90v-13q-2 1 -4 5t-3 5q-37 37 -91 37t-91 -37t-37 -91t37 -91q1 -1 5 -3t5 -4h-13q-52 0 -90 -38t-38 -90t38 -90t90 -38h13q-1 -2 -4.5 -5t-5.5 -4q-37 -37 -37 -90t37 -90t91 -37t91 37q1 1 3 4
t4 5v-13q0 -53 38 -90.5t90 -37.5t90 37.5t38 90.5zM193 1792q-79 0 -135.5 -56t-56.5 -136t56.5 -136.5t135.5 -56.5t135 56.5t56 136.5t-56 136t-135 56zM1855 1792q-79 0 -135 -56t-56 -136t56 -136.5t135 -56.5t135.5 56.5t56.5 136.5t-56.5 136t-135.5 56z" />
</svg>