<svg xmlns="http://www.w3.org/2000/svg" xmlns:xlink="http://www.w3.org/1999/xlink" version="1.1" viewBox="-10 0 2058 2048">
   <path fill="currentColor"
d="M802 2044q40 11 120 -11t102 -22q33 0 106 20q78 21 104 13q264 -78 446 -397q182 -317 182 -557q0 -376 -322 -512q-112 -47 -182 -48q-74 -2 -158 27q-84 28 -122 33q0 -44 -4 -62q125 -95 314 -144q106 -28 191.5 -118t112.5 -163l34 -78q-298 -66 -484 45
q-123 74 -184 301q-21 -122 -54 -222q-5 -31 -14 -50q-21 -45 -54 -54t-64 11q-30 18 -30 43q0 29 38 66q41 117 58 231q0 1 2 17q0 3 0.5 6.5t1 5.5t0.5 4v4l4 9v4v4q4 8 4 29q0 22 4 33q0 55 4 78q-36 -8 -106 -27q-60 -17 -104.5 -28t-105.5 -7q-63 4 -134 33
q-157 61 -240 219q-82 156 -82 310q0 219 184 537q182 317 432 417z" />
</svg>