<svg xmlns="http://www.w3.org/2000/svg" xmlns:xlink="http://www.w3.org/1999/xlink" version="1.1" viewBox="-10 0 2068 2048">
   <path fill="currentColor"
d="M965 1417zM1762 1138q67 0 123 20t91.5 53t54 73.5t16.5 81.5q-1 30 -13.5 55t-30.5 39t-31.5 21.5t-21.5 8.5q-17 4 -19 -6q0 -5 11 -12q4 -2 5 -4q49 -32 56 -80q3 -15 -1 -34t-17.5 -42.5t-35.5 -43t-61.5 -36t-90.5 -22.5q-113 -13 -198 22q16 37 17 75q4 69 -76 127
q-28 21 -69 35q-35 16 -55 12q-60 -12 -29 -106q11 -30 39.5 -68.5t69.5 -72.5q-29 -59 -37 -83q-11 -34 -20 -82q-49 100 -112 193q-1 3 -5 9t-6 8q23 55 24 90q5 78 -63 127q-29 21 -64 34q-25 13 -75 17q-37 4 -50 -7q-21 -15 -9 -45q2 -4 8 -12.5t17.5 -23t20 -24.5
t26 -31t23.5 -29q5 -6 16 -19.5t16 -20.5v-1q7 -10 19 -26q-36 -78 -42 -96q-11 -34 -20 -82q-49 128 -101 229q-38 77 -79 147v1q-2 3 -5 8l-2 3q-41 59 -74 59q-23 0 -36.5 -17t-17 -41.5t-3.5 -49t3 -42.5l2 -17q-24 61 -51 114q-10 21 -16.5 32t-17.5 24.5t-23.5 19
t-28.5 5.5q-33 0 -50 -17q-28 -27 -46 -85.5t-14 -111.5q7 -81 27 -136q-42 23 -76 42q-7 4 -20 12t-20 12v3q19 35 25 86.5t-7 116t-48 115.5q-57 85 -152 125.5t-192 13.5q-23 -7 -44 -36t-28.5 -78t20.5 -111q17 -38 58 -78t93 -73.5t84.5 -52t63.5 -34.5l15 -9
q-24 -21 -76.5 -57t-99.5 -70.5t-96 -77t-83 -93.5t-45 -104q-4 -22 1 -53.5t21.5 -73.5t54.5 -94.5t93 -104.5q94 -87 220 -157t262 -119q105 -37 211.5 -45.5t192 9.5t147 63.5t77.5 111.5q22 87 -14.5 182t-115 170.5t-176.5 113.5q-81 32 -162.5 44t-132.5 9t-86 -15
q-46 -15 -77.5 -42.5t-40.5 -50.5q0 -1 -1.5 -5t-2 -6t-1 -6t0 -6t1.5 -4.5t3 -4.5q5 -2 9.5 0.5t16.5 16.5q20 23 72.5 42t132.5 10q60 -6 116.5 -22.5t102 -39.5t86.5 -52.5t70 -61t52 -65t32.5 -66t11.5 -63t-12 -56.5q-16 -36 -69.5 -58.5t-131 -27t-185.5 21.5t-221 81
q-395 198 -406 409q-2 47 18 89.5t58 78.5t77.5 66.5t87.5 68.5t76 69l4 4q11 -6 33.5 -18t33.5 -18q33 -18 81 -43.5t56 -30.5q32 -47 85.5 -85.5t95.5 -38.5q27 0 43 14t20 34t4.5 40t-2.5 34l-3 14q2 -6 5 -6q1 0 6.5 -4t13 -6t22.5 2q7 3 11.5 5.5t7 5.5t4 6t2 6t0.5 5
t-0.5 4l-0.5 2q0 1 -9 35t-22 84t-20 83q-3 17 -3.5 32.5t0.5 23.5t2 8q5 0 14 -19v-1q5 -7 12 -21l-2 2q2 -1 3 -6q2 -2 33 -68q124 -276 135 -306q6 -13 11 -35t6 -26q3 -8 26 -13.5t54 -5.5q19 0 30.5 5.5t13.5 9.5t2 7q0 1 -5 15.5t-11 35.5t-8 36q-2 25 3 81
q4 20 29 70q40 -64 80.5 -140t44.5 -101q6 -27 17 -61q3 -8 26 -13t55 -5q19 0 30 5t13 9t2 7q0 1 -5 15.5t-11 35.5t-8 36q0 28 -1 30t2 25t3 26q1 7 3.5 15.5t7.5 19.5t8.5 18l11 22l10.5 21q87 -44 186 -44zM390 1602q100 -109 60 -250q-1 1 -3.5 2.5t-4.5 2.5q-2 0 -5 2
q-28 18 -36 22q-82 50 -139 104q-34 33 -52.5 72.5t-17 70.5t20.5 42q29 17 82 -2t95 -66zM819 1309q17 -39 38.5 -107.5t13.5 -81.5q-6 -12 -29 -2.5t-47 35.5q-16 19 -37 56.5t-33 71.5q-22 73 -18.5 134t22.5 66q8 2 17.5 -9.5t20 -34t19 -43t19 -48t14.5 -37.5z
M1174 1479q80 -51 80 -112v-4q-21 27 -35 44q-7 10 -22.5 27.5t-27.5 29.5l-12 12l-3 8q3 3 20 -5zM1448 1417q82 -29 82 -110q0 -13 -6 -35q-36 32 -60 79q-27 59 -16 66z" />
</svg>