<svg xmlns="http://www.w3.org/2000/svg" xmlns:xlink="http://www.w3.org/1999/xlink" version="1.1" viewBox="-10 0 2067 2048">
   <path fill="currentColor"
d="M1100 678l82 -493q5 -30 29.5 -50.5t54.5 -20.5q41 0 67 34l60 80h186q70 0 120 50l63 64h200q35 0 60 25t25 60v85q0 118 -83.5 201.5t-201.5 83.5h-113h-57h-75l-18 108zM1478 1024v797q0 47 -33 80t-80 33h-114q-47 0 -80 -33t-33 -80v-410q-136 68 -285 68
q-148 0 -284 -68v410q0 47 -33 80t-81 33h-114q-47 0 -80.5 -33t-33.5 -80v-819q-77 -30 -133 -92.5t-77 -144.5l-13 -55q-11 -46 13 -86t70 -51q47 -11 86.5 12.5t50.5 69.5l14 55q10 38 41 62.5t69 24.5h107h57h568zM1649 398q0 -24 -16.5 -40t-40.5 -16t-40.5 16
t-16.5 40t16.5 40.5t40.5 16.5t40.5 -16.5t16.5 -40.5z" />
</svg>