<svg xmlns="http://www.w3.org/2000/svg" xmlns:xlink="http://www.w3.org/1999/xlink" version="1.1" viewBox="-10 0 2058 2048">
   <path fill="currentColor"
d="M352 0h1343q40 0 68.5 28t28.5 68t-28.5 68t-68.5 28h-31v76q0 121 -46.5 233t-132.5 197l-326 326l326 326q86 86 132.5 198t46.5 233v76h31q40 0 68.5 27.5t28.5 67.5t-28.5 68t-68.5 28h-1343q-40 0 -68 -28t-28 -68t28 -67.5t68 -27.5h32v-76q0 -121 46 -233.5
t131 -197.5l328 -326l-328 -326q-85 -85 -131 -197t-46 -233v-76h-32q-40 0 -68 -28t-28 -68t28 -68t68 -28zM1024 1160l-326 326q-122 122 -122 295v76h895v-76q0 -174 -121 -295zM1024 888v1l326 -327q121 -121 121 -294v-76h-895v76q0 172 122 294z" />
</svg>