<svg xmlns="http://www.w3.org/2000/svg" xmlns:xlink="http://www.w3.org/1999/xlink" version="1.1" viewBox="-10 0 2068 2048">
   <path fill="currentColor"
d="M0 307q0 -42 30 -72t72 -30h52q105 0 180.5 75t75.5 181v921q0 21 15 36t37 15h1484q41 0 71.5 30.5t30.5 72.5t-30 72t-72 30h-214q8 21 8 52q0 64 -45 108.5t-108.5 44.5t-108 -44.5t-44.5 -108.5q0 -26 8 -52h-632q10 24 10 52q0 64 -45.5 108.5t-109 44.5
t-108.5 -44.5t-45 -108.5q0 -23 10 -52h-60q-106 0 -182 -75t-76 -181v-921q0 -21 -15 -36.5t-35 -15.5h-52q-42 0 -72 -30t-30 -72zM1382 512v-129q0 -11 -7 -18t-17 -7h-258q-10 0 -17 7t-7 18v129h306zM922 512v-129q0 -74 52 -126t126 -52h258q74 0 126 52t52 126v129
v717h-614v-717zM1638 1229v-717h52q63 0 108.5 44.5t45.5 108.5v410q0 64 -45.5 109t-108.5 45h-52zM768 512h52v717h-52q-63 0 -108.5 -45t-45.5 -109v-410q0 -64 45.5 -108.5t108.5 -44.5z" />
</svg>