<svg xmlns="http://www.w3.org/2000/svg" xmlns:xlink="http://www.w3.org/1999/xlink" version="1.1" viewBox="-10 0 2067 2048">
   <path fill="currentColor"
d="M10 1650q9 -15 30 -49q42 -68 67 -106.5t81 -112.5t102.5 -117t123.5 -100t152 -83t179.5 -44.5t214.5 -6t249.5 53t291.5 114.5q240 116 424 201q24 11 33 36t-1 49l-201 456l-1 2q-11 24 -37 32.5t-50 -2.5q-400 -190 -465 -219q-211 -92 -315 -91q-102 2 -185 89
q-61 63 -157 225v1q-13 22 -40.5 27.5t-49.5 -7.5l-424 -260q-23 -14 -29.5 -40t7.5 -48zM2038 401q-10 15 -30 48q-42 68 -67 106.5t-81 112.5t-102.5 117t-123.5 100t-152 82.5t-180 44.5t-215 6.5t-249.5 -53t-291.5 -113.5q-241 -117 -424 -201q-24 -12 -33.5 -37
t1.5 -49l201 -456l1 -1q11 -24 37 -33.5t50 2.5q404 192 448 211q217 96 321 99q105 2 189 -82q63 -64 163 -231q0 -1 1.5 -3t2.5 -2q14 -22 40.5 -27t48.5 10l424 260q22 13 28 39.5t-7 49.5z" />
</svg>