<svg xmlns="http://www.w3.org/2000/svg" xmlns:xlink="http://www.w3.org/1999/xlink" version="1.1" viewBox="-10 0 2068 2048">
   <path fill="currentColor"
d="M1970 716q32 0 55 23t23 54.5t-23 54.5t-55 23h-168q16 73 16 153q0 162 -63 309t-169 253t-253 169t-309 63q-243 0 -441.5 -134.5t-290.5 -352.5h-214q-32 0 -55 -22.5t-23 -54t23 -54.5t55 -23h168q-16 -73 -16 -153q0 -162 63 -309t169.5 -253t253.5 -169t308 -63
q244 0 442 134t290 352h214zM1664 1024q0 -80 -18 -153h-954q-32 0 -55 -23t-23 -54.5t23 -54.5t55 -23h894q-83 -151 -232.5 -242t-329.5 -91q-130 0 -248.5 51t-204 136.5t-136.5 204.5t-51 249q0 80 18 153h956q31 0 53.5 23t22.5 54.5t-22.5 54t-53.5 22.5h-894
q82 151 231.5 242t328.5 91q131 0 249 -50.5t203.5 -136t136.5 -204.5t51 -249zM692 947h666q31 0 53.5 22.5t22.5 54.5t-22.5 54t-53.5 22h-666q-32 0 -55 -22.5t-23 -54t23 -54t55 -22.5z" />
</svg>