<svg xmlns="http://www.w3.org/2000/svg" xmlns:xlink="http://www.w3.org/1999/xlink" version="1.1" viewBox="-10 0 2058 2048">
   <path fill="currentColor"
d="M1877 1987q-75 -17 -132 -84q-56 -67 -61 -147q-4 -96 -74 -183q-69 -87 -166 -108l-4 -4q-84 -21 -135 -84q-59 -77 -59 -147q-9 -157 -151 -249q-6 -6 -26 -17q-36 -21 -71 -25q-76 -22 -133 -88q-56 -67 -61 -148q-9 -62 -25 -101q-52 -116 -160 -168q0 -9 4 -13
q105 -139 -42 -286q-89 -89 -210 -122t-189 21q-59 68 -26 189t122 215q132 126 261 55l38 -13q101 37 147 143q12 21 21 80v5q5 95 74 183q69 86 166 107q29 4 59 21l9 4q6 3 16 13q2 1 6 4t5 4q7 5 10 5l9 8q75 76 84 173q9 109 76 185q63 79 168 109q80 16 137 84
q57 67 61 148q5 101 73 185q69 84 167 105q29 8 38 -21v-4q0 -30 -26 -34z" />
</svg>