<svg xmlns="http://www.w3.org/2000/svg" xmlns:xlink="http://www.w3.org/1999/xlink" version="1.1" viewBox="-10 0 2069 2048">
   <path fill="currentColor"
d="M1954.5 93.5q61.5 61.5 83 144t0 165t-83.5 144.5l-1408 1407q-94 94 -226 94t-226 -94t-94 -226t94 -226l1407 -1408q62 -62 144.5 -83.5t165 0t144 83zM1773 371q-19 -19 -45.5 -19t-45.5 19q-34 34 -67 48t-83 23l-9 1q-30 5 -46 9t-44.5 13.5t-54 26t-48.5 39.5
q-31 31 -52 71.5t-28.5 65.5t-16.5 67v0v3q-9 41 -14 59t-17 43t-30.5 43.5t-44 31t-42 16.5t-59.5 14l-4 1q-41 9 -66.5 16t-65.5 28.5t-71 52.5t-52 71.5t-28.5 65.5t-16.5 67l-1 4q-12 57 -24 87t-39 57q-17 17 -39 28t-38 15t-54 11h-3q-40 7 -68.5 15t-71 31.5
t-78.5 59.5q-19 19 -19 45t19 45t45.5 19t45.5 -19q34 -34 67 -47.5t83 -22.5l10 -1q30 -6 46 -9.5t44.5 -13t53.5 -26t48 -39.5q31 -31 52.5 -71.5t28.5 -66t16 -66.5v-4q13 -57 25 -87.5t38.5 -57t57 -38t87.5 -24.5l3 -1q32 -7 49.5 -11.5t48 -15.5t56.5 -28t50 -41
t41 -50t28 -56.5t15.5 -48t11.5 -49.5l1 -5q13 -57 25 -87.5t38 -56.5q18 -18 40.5 -28.5t36.5 -14t54 -10.5l3 -1q40 -7 68.5 -15t71 -31.5t78.5 -59.5q19 -19 19 -45t-19 -45zM765 1917l1151 -1152l64 63q67 67 67 164q0 98 -67 165l-825 823q-68 68 -163 68
q-97 0 -165 -68zM68 1221q-68 -68 -68 -165q0 -96 68 -164l823 -824q67 -67 165 -67q96 0 163 67l63 64l-1151 1151z" />
</svg>