<svg xmlns="http://www.w3.org/2000/svg" xmlns:xlink="http://www.w3.org/1999/xlink" version="1.1" viewBox="-10 0 2068 2048">
   <path fill="currentColor"
d="M1024 192q-113 0 -220.5 30t-199 83.5t-168 130.5t-130.5 168t-84 199t-30 221t30 221t84 199t130.5 168t168 131t199.5 84t220.5 30t220.5 -30t199 -84t168 -131t130.5 -168t83.5 -199t30 -221t-30 -221t-83.5 -199t-130.5 -168t-168 -130.5t-199 -83.5t-221 -30z
M1024.5 2048q-139.5 0 -272 -37t-245 -102.5t-207 -160t-160.5 -207t-103 -245.5t-37 -272t37 -272t103 -245.5t160.5 -207t207 -160t245 -102.5t272 -37t272 37t244.5 102.5t206.5 160t160.5 207t103 245.5t37 272t-37 272t-103 245.5t-160.5 207t-206.5 160t-244.5 102.5
t-272 37zM798 1251q46 46 105.5 70t120.5 24t120.5 -24t105.5 -70q28 -28 67.5 -28t68 28t28.5 67.5t-28 67.5q-74 74 -169.5 112t-192.5 38t-192.5 -38t-169.5 -112q-98 -98 -133 -230t0 -264t133 -230q74 -74 169.5 -112t192.5 -38t192.5 38t169.5 112q28 28 27.5 67.5
t-28 68t-67 28.5t-68.5 -28q-61 -61 -143.5 -83t-165 0t-144 83t-83.5 143.5t0 165.5t84 144z" />
</svg>