<svg xmlns="http://www.w3.org/2000/svg" xmlns:xlink="http://www.w3.org/1999/xlink" version="1.1" viewBox="-10 0 2068 2048">
   <path fill="currentColor"
d="M1194.5 455q-70.5 0 -120.5 -50t-50 -120.5t50 -120.5t120.5 -50t121 50t50.5 120.5t-50.5 120.5t-121 50zM808 683q-78 0 -134 55l-82 82q-17 18 -44 28l-194 916h116l208 -447q35 38 74 62l116 72l-146 313h314l82 -290l-306 -192q-68 -42 -94 -116t-2 -149l112 -333
q-6 -1 -20 -1zM432 820q-32 -33 -32 -80.5t32 -80.5l82 -81q59 -59 135 -91t159 -32q65 0 122 19l174 54q96 29 171 97.5t115 162.5l22 52q13 32 42 51.5t64 19.5h74q48 0 81 33t33 80q0 34 -17 61t-45 41l-98 638h246q35 0 60.5 -25.5t25.5 -60.5v-28q0 -35 24 -60
t59.5 -25t61 25t25.5 60v28q0 106 -75.5 181t-180.5 75h-652h-4h-564h-6h-480q-35 0 -60.5 -25t-25.5 -60t25.5 -60t60.5 -25h152l198 -940q-2 -1 -4 -4zM1526 1138h-8q-104 0 -190.5 -57.5t-125.5 -152.5l-18 -44l-110 293l200 127q49 30 69.5 83t4.5 108l-76 269h158z" />
</svg>