<svg xmlns="http://www.w3.org/2000/svg" xmlns:xlink="http://www.w3.org/1999/xlink" version="1.1" viewBox="-10 0 2058 2048">
   <path fill="currentColor"
d="M312 8q25 -11 53 -7.5t49 21.5l161 140l163 -140q27 -22 62 -22t62 22l162 140l161 -140q27 -22 62.5 -22t62.5 22l161 140l163 -140q21 -18 48.5 -21.5t52.5 7.5q26 12 41.5 35.5t15.5 52.5v1856q0 28 -15.5 52t-41.5 36q-25 11 -52.5 7.5t-48.5 -21.5l-163 -140
l-161 140q-27 22 -62.5 22t-62.5 -22l-161 -140l-162 140q-27 22 -62 22t-62 -22l-163 -140l-161 140q-21 18 -49 21.5t-53 -7.5q-25 -12 -40.5 -36t-15.5 -52v-1856q0 -29 15 -52.5t41 -35.5zM639 576q-26 0 -45 18.5t-19 45t19 45.5t45 19h768q26 0 45 -19t19 -45.5
t-19 -45t-45 -18.5h-768zM575 1407.5q0 26.5 19 45.5t45 19h768q26 0 45 -19t19 -45.5t-19 -45t-45 -18.5h-768q-26 0 -45 18.5t-19 45zM639 960q-26 0 -45 18.5t-19 45t19 45.5t45 19h768q26 0 45 -19t19 -45.5t-19 -45t-45 -18.5h-768z" />
</svg>