<svg xmlns="http://www.w3.org/2000/svg" xmlns:xlink="http://www.w3.org/1999/xlink" version="1.1" viewBox="-10 0 2068 2048">
   <path fill="currentColor"
d="M0 1256q10 -21 34 -9q78 44 104 57q209 104 426 155q128 30 212 40q133 18 272 18q8 0 23 -0.5t23 -0.5q60 -1 176 -13q285 -33 546 -143q20 -8 30 -5q18 4 22 20t-8 28q-19 17 -32 24q-146 101 -334 161q-121 39 -252 59q-84 13 -178 16q-6 0 -8 1h-70q-4 -1 -8 -1
q-24 -2 -38 -2q-95 -5 -168 -17q-129 -21 -268 -71q-272 -97 -488 -291q-4 -3 -9 -10.5t-7 -8.5v-7zM530 384h28q3 1 10 2t12.5 2t9.5 2q104 22 148 123q30 71 26 167q-1 86 -34 148q-48 97 -146 117q-115 23 -204 -52q-1 -1 -2 -1.5t-3 -2t-3 -2.5v242q0 2 -1 5t-1 5
q-1 18 -16 18h-70q-15 0 -16 -18v-10v-701q0 -17 4.5 -22.5t21.5 -5.5h38q22 0 26 22q2 8 4 28q0 1 2 5l24 -18q61 -44 128 -51zM370 525v141v141v1q0 7 6 10q62 43 126 46q111 5 142 -95q14 -40 14 -103q0 -66 -16 -110q-30 -80 -112 -87q-79 -7 -154 45q-6 3 -6 10v1z
M1060 384h40q7 1 18.5 2t17.5 2q46 8 74 24q53 31 62 102q4 21 4 40v3v355v2v8q0 7 -5 11.5t-11 4.5h-56q-14 0 -18 -18q0 -3 -6 -37q-2 1 -4 4q-64 52 -136 62q-75 10 -126 -18q-63 -34 -72 -107q-9 -57 12 -103q30 -60 100 -84q43 -16 112 -12q60 5 106 16q1 0 2 0.5
t2 0.5v-6v-83q-2 -36 -18 -55q-17 -21 -56 -28q-52 -7 -124 5q-16 3 -44 10l-36 9q-22 6 -22 -16v-34q0 -19 18 -25q5 -2 26 -9t34 -10q55 -13 96 -15q2 0 5 -0.5t5 -0.5zM1178 812v-48v-47q0 -8 -8 -9q-83 -12 -84 -12q-8 -1 -22 -1q-22 0 -60 10q-45 15 -56 51
q-4 13 -4 32q0 24 4 34q10 33 42 44q25 9 56 6q70 -8 126 -49q6 -3 6 -10v-1zM2048 1246v58q-2 6 -3.5 18t-2.5 18q-25 111 -84 187q-22 24 -42 44q-7 6 -16 9q-8 2 -11.5 -2t-2.5 -12q1 -1 1 -4.5t1 -5.5q46 -120 54 -151q14 -47 12 -78q-1 -28 -26 -35q-13 -5 -48 -9
q-49 -4 -114 3l-78 9h-6h-2q-11 0 -12 -6v-5q0 -5 2 -8q6 -8 12 -12q57 -38 134 -53q47 -8 88 -8q14 0 42 2q39 3 72 13q25 8 30 28zM1606 833q0 1 1 3.5t1 4.5q9 -25 26 -75l116 -335q2 -3 4 -7t2 -6q8 -18 24 -18h2h66q14 0 12 15q-2 13 -4 18q-141 362 -236 602
q-14 32 -32 62q-42 73 -132 71q-39 -2 -56 -6q-26 -4 -26 -30v-33q0 -17 18 -16q3 1 12 2t14 2h16q14 0 34 -5q35 -9 52 -44q6 -14 16 -39.5t14 -35.5q8 -19 0 -40q-171 -421 -198 -487q0 -1 -6 -20q-1 -6 2 -11t8 -5h78q15 0 22 17q2 6 6.5 18t8 21.5t5.5 17.5
q22 60 65 179.5t65 179.5z" />
</svg>