<svg xmlns="http://www.w3.org/2000/svg" xmlns:xlink="http://www.w3.org/1999/xlink" version="1.1" viewBox="-10 0 2058 2048">
   <path fill="currentColor"
d="M448 576q0 -117 46 -223.5t123 -183.5t184 -123t223.5 -46t223 46t183.5 123t123 183.5t46 223.5t-46 223.5t-123 183.5t-183.5 123t-223 46t-223.5 -46t-184 -123t-123 -183.5t-46 -223.5zM1024 320q27 0 45.5 -19t18.5 -45t-18.5 -45t-45.5 -19q-104 0 -192.5 51.5
t-140 140t-51.5 192.5q0 26 19 45t45.5 19t45 -19t18.5 -45q0 -106 75.5 -181t180.5 -75zM896 1920v-652q62 12 128.5 12t127.5 -12v652q0 52 -37.5 90t-90 38t-90.5 -38t-38 -90z" />
</svg>