<svg xmlns="http://www.w3.org/2000/svg" xmlns:xlink="http://www.w3.org/1999/xlink" version="1.1" viewBox="-10 0 2058 2048">
   <path fill="currentColor"
d="M448 0h1152q80 0 136 56t56 136v1665q0 79 -56 135t-136 56h-384v-319q0 -80 -56.5 -136.5t-135.5 -56.5t-135.5 56.5t-56.5 136.5v319h-384q-80 0 -136 -56t-56 -135v-1665q0 -80 56 -136t136 -56zM512 960v128q0 26 19 45t45 19h128q26 0 45 -19t19 -45v-128
q0 -26 -19 -45t-45 -19h-128q-26 0 -45 19t-19 45zM960 896q-26 0 -45 19t-19 45v128q0 26 19 45t45 19h128q26 0 45 -19t19 -45v-128q0 -26 -19 -45t-45 -19h-128zM1280 960v128q0 26 18.5 45t44.5 19h128q26 0 45.5 -19t19.5 -45v-128q0 -26 -19.5 -45t-45.5 -19h-128
q-26 0 -44.5 19t-18.5 45zM576 384q-26 0 -45 19t-19 45v128q0 26 19 45t45 19h128q26 0 45 -19t19 -45v-128q0 -26 -19 -45t-45 -19h-128zM896 448v128q0 26 19 45t45 19h128q26 0 45 -19t19 -45v-128q0 -26 -19 -45t-45 -19h-128q-26 0 -45 19t-19 45zM1343 384
q-26 0 -44.5 19t-18.5 45v128q0 26 18.5 45t44.5 19h128q26 0 45.5 -19t19.5 -45v-128q0 -26 -19.5 -45t-45.5 -19h-128z" />
</svg>