<svg xmlns="http://www.w3.org/2000/svg" xmlns:xlink="http://www.w3.org/1999/xlink" version="1.1" viewBox="-10 0 2058 2048">
   <path fill="currentColor"
d="M1612 384q49 4 82.5 41t33.5 87v257q0 50 -33.5 86t-82.5 40q-76 172 -234.5 278.5t-353 106.5t-353 -106.5t-233.5 -278.5q-50 -4 -84 -40t-34 -86v-257q0 -50 34 -87t84 -41q75 -172 233.5 -278t353 -106t353 106t234.5 278zM1472 576q0 -79 -56.5 -135.5t-135.5 -56.5
h-512q-79 0 -135.5 56t-56.5 136v64q0 104 51.5 192.5t140 140t192.5 51.5h128q105 0 193.5 -51.5t139.5 -140t51 -192.5v-64zM886 650l84 25q10 2 16 10t6 19t-6 19t-16 10l-84 25l-24 84q-3 10 -11 16t-18.5 6t-18.5 -6t-10 -16l-24 -84l-86 -25q-22 -5 -22 -29t22 -29
l86 -25l24 -84q2 -10 10 -16t18.5 -6t18.5 6t11 16zM580 1266q201 142 444.5 142t445.5 -142q200 79 325 259.5t125 403.5q0 49 -35 84t-85 35h-392v-255q0 -52 -38 -90t-90 -38h-512q-52 0 -90 37.5t-38 90.5v255h-392q-50 0 -85 -35t-35 -84q0 -223 125.5 -403.5
t326.5 -259.5zM832.5 1793q26.5 0 45 19t18.5 45v191h-128v-191q0 -26 19 -45t45.5 -19zM1215.5 1920q-27.5 0 -45.5 -18t-18 -45t18.5 -45.5t45 -18.5t45.5 18.5t19 45.5t-18.5 45t-46 18z" />
</svg>