<svg xmlns="http://www.w3.org/2000/svg" xmlns:xlink="http://www.w3.org/1999/xlink" version="1.1" viewBox="-10 0 2068 2048">
   <path fill="currentColor"
d="M1492 554q-75 0 -132 -46t-74 -118q-93 13 -155.5 84.5t-62.5 165.5v2q284 11 500 144q81 -62 182 -62q123 0 210.5 88t87.5 212q0 88 -47 160.5t-123 109.5q-4 127 -73 243t-182.5 200t-269.5 133.5t-327.5 49.5t-327.5 -49.5t-270 -133t-183 -199.5t-73 -244
q-77 -36 -124.5 -109t-47.5 -161q0 -124 88 -212t212 -88q100 0 182 64q215 -135 494 -146v-2q0 -132 89 -230.5t219 -111.5q14 -73 72.5 -121.5t135.5 -48.5q88 0 151 63t63 151.5t-63 150t-151 61.5zM630 1022q-62 0 -109.5 55.5t-50.5 136.5q-4 76 40 114t112 38
q66 0 107 -35.5t43 -112.5q4 -81 -38 -138.5t-104 -57.5zM1580 1214q-3 -81 -50 -136.5t-110 -55.5t-105 57t-39 139q3 76 44 112t108 36q68 0 111.5 -38t40.5 -114zM1340 1496q5 -10 -2 -21t-18 -11q-144 -14 -294 -14q-153 0 -296 14q-12 0 -18.5 11t-1.5 21
q39 95 124.5 152.5t191 57.5t190.5 -57.5t124 -152.5z" />
</svg>