<svg xmlns="http://www.w3.org/2000/svg" xmlns:xlink="http://www.w3.org/1999/xlink" version="1.1" viewBox="-10 0 2058 2048">
   <path fill="currentColor"
d="M766 22q23 -22 54.5 -22t55.5 22q177 168 310 336q89 -115 148 -171q24 -22 56.5 -22t55.5 22q101 95 187.5 218t150.5 254q63 127 99.5 244.5t36.5 203.5q0 126 -32 246.5t-89.5 224t-140 191t-180.5 149t-214.5 96t-239.5 34.5t-240 -34.5t-215 -96t-180.5 -149
t-139.5 -191t-89 -224t-32 -246.5q0 -222 182 -528q177 -298 456 -557zM1030 1665q148 0 276 -85q82 -58 125.5 -149.5t40 -194t-53.5 -193.5q-13 -27 -41.5 -29.5t-48.5 20.5l-100 118q-20 22 -50 21.5t-48 -23.5q-35 -44 -128 -161.5t-124 -158.5q-19 -25 -49 -25t-49 25
q-110 138 -157 225.5t-47 172.5q0 100 35.5 183t97 138.5t144.5 85.5t177 30z" />
</svg>