<svg xmlns="http://www.w3.org/2000/svg" xmlns:xlink="http://www.w3.org/1999/xlink" version="1.1" viewBox="-10 0 2068 2048">
   <path fill="currentColor"
d="M0 606h210v814h-210v-814zM768 606h-104l-42 386l-54 -386h-282v814h180v-520l80 520h138l84 -532v532h176v-814h-176zM1310 606h-294v814h352q60 0 90 -30q32 -32 36 -62v-28v-534q-4 -66 -50 -106q-47 -41 -92 -50zM1296 1240q5 18 -4 30q-10 14 -16 16l-8 4h-42v-540
h38q16 0 26 10q12 10 12 18v14zM1938 816q-37 -4 -62 0q-26 5 -38 14l-8 4l-46 46v-274h-214v814h214v-36q34 34 68 46q36 12 54 12l16 -4q60 0 90.5 -29.5t35.5 -58.5v-30v-402q-10 -43 -36 -68t-48 -30zM1850 1282q0 38 -38 38q-32 0 -32 -38v-314q0 -38 32 -38
q38 0 38 38v314z" />
</svg>