<svg xmlns="http://www.w3.org/2000/svg" xmlns:xlink="http://www.w3.org/1999/xlink" version="1.1" viewBox="-10 0 2068 2048">
   <path fill="currentColor"
d="M1024.5 0q139.5 0 272 37t244.5 102.5t206.5 160t160.5 207t103 245.5t37 272t-37 272t-103 245.5t-160.5 207t-206.5 160t-244.5 102.5t-272 37t-272 -37t-245 -102.5t-207 -160t-160.5 -207t-103 -245.5t-37 -272t37 -272t103 -245.5t160.5 -207t207 -160t245 -102.5
t272 -37zM508 1124l448 449q28 29 68 29t68 -29l448 -449q28 -28 27.5 -67t-28 -68t-67 -29t-68.5 29l-284 283v-728q0 -40 -28 -68t-67.5 -28t-68 28t-28.5 68v728l-284 -283q-28 -28 -67.5 -28t-68 28t-28.5 67.5t28 67.5z" />
</svg>