<svg xmlns="http://www.w3.org/2000/svg" xmlns:xlink="http://www.w3.org/1999/xlink" version="1.1" viewBox="-10 0 2068 2048">
   <path fill="currentColor"
d="M0 146q0 -60 43 -103t103 -43q259 0 505.5 68.5t454.5 191t384 298t298.5 384t191 455t68.5 505.5q0 60 -43 103t-103 43t-103 -43t-43 -103q0 -219 -58 -427.5t-161.5 -385t-252 -325.5t-325 -252.5t-385.5 -161.5t-428 -58q-60 0 -103 -43t-43 -103zM0 1756
q0 -121 86 -207.5t206.5 -86.5t207 86.5t86.5 207.5t-86.5 206.5t-207 85.5t-206.5 -85.5t-86 -206.5zM146 584q179 0 349.5 47.5t315 132.5t266.5 206.5t207 266t132.5 315.5t47.5 350q0 60 -43.5 103t-104 43t-103.5 -43t-43 -103q0 -139 -36.5 -272t-102.5 -245.5
t-160.5 -207t-207 -160t-245 -102.5t-272.5 -37q-60 0 -103 -43t-43 -103t43.5 -104t102.5 -44z" />
</svg>