<svg xmlns="http://www.w3.org/2000/svg" xmlns:xlink="http://www.w3.org/1999/xlink" version="1.1" viewBox="-10 0 2068 2048">
   <path fill="currentColor"
d="M0 320v-267q0 -22 16 -37.5t38 -15.5q8 0 20 4l196 79q115 45 238 45h1032q124 0 238 -45l196 -79q8 -4 20 -4q22 0 38 15.5t16 37.5v267q0 80 -56.5 136t-135.5 56h-64v257h-256v-257h-384v257h-256v-257h-384v257h-256v-257h-64q-79 0 -135.5 -56t-56.5 -136zM256 1152
h-128q-52 0 -90 -38t-38 -90t38 -90t90 -38h1792q52 0 90 38t38 90t-38 90t-90 38h-128v768q0 53 -37.5 90.5t-90 37.5t-90.5 -38t-38 -90v-768h-1024v768q0 52 -38 90t-90.5 38t-90 -37.5t-37.5 -90.5v-768z" />
</svg>