<svg xmlns="http://www.w3.org/2000/svg" xmlns:xlink="http://www.w3.org/1999/xlink" version="1.1" viewBox="-10 0 2068 2048">
   <path fill="currentColor"
d="M2048 1024v11q-1 71 -40.5 127.5t-102.5 87t-137 30.5h-392q-80 0 -136 56t-56 136q0 14 4 40q10 42 42 119q17 36 25.5 56.5t16.5 52t8 59.5q0 98 -60.5 171t-153.5 77q-6 0 -20 0.5t-22 0.5q-139 0 -271.5 -37t-245 -102.5t-207 -160t-160.5 -207t-103 -245.5t-37 -272
t37 -272t103 -245.5t160.5 -207t207 -160t245 -102.5t272 -37t272 37t244.5 102.5t206.5 160t160.5 207t103 245.5t37 272zM512 1152q0 -52 -38 -90t-90.5 -38t-90 37.5t-37.5 90.5t37.5 90.5t90 37.5t90.5 -38t38 -90zM512.5 769q52.5 0 90 -38t37.5 -90.5t-37.5 -90.5
t-90 -38t-90.5 38t-38 90t38 90.5t90.5 38.5zM1152 384q0 -53 -37.5 -90.5t-90 -37.5t-90.5 38t-38 90t38 90t90.5 38t90 -37.5t37.5 -90.5zM1536.5 769q52.5 0 90 -38t37.5 -90.5t-37.5 -90.5t-90 -38t-90.5 38t-38 90.5t38 90.5t90.5 38z" />
</svg>