<svg xmlns="http://www.w3.org/2000/svg" xmlns:xlink="http://www.w3.org/1999/xlink" version="1.1" viewBox="-11 0 2070 2048">
   <path fill="currentColor"
d="M744 1373l629 -628q76 -76 177.5 -103t203.5 0t178 103t103 177.5t0 203.5t-103 178l-477 477q-58 58 -140 58t-140 -58l617 -617q58 -58 58 -139.5t-58 -139.5t-139.5 -58t-139.5 58l-629 628q-29 29 -70 29t-70 -29t-29 -70t29 -70zM1722 954q29 29 29 70t-29 70
l-628 629q-76 76 -178 102.5t-203.5 0t-177.5 -102.5q-29 -29 -29 -70t29 -70t70 -29t70 29q58 58 139.5 58t139.5 -58l628 -629q29 -29 70 -29t70 29zM675 1304q-57 57 -131 86.5t-148.5 29.5t-148.5 -29.5t-131 -86.5q-76 -76 -103 -178t0 -203.5t103 -177.5l476 -477
q58 -58 140 -58t140 58l-616 617q-58 58 -58 139.5t58 139.5t139.5 58t139.5 -58l628 -629q29 -29 70 -29t70 29t29 69.5t-29 69.5zM325 1094q-29 -29 -29 -70t29 -70l629 -629q76 -76 178 -103t203.5 0t177.5 103q29 29 29 70t-29 70t-70 29t-70 -29q-58 -58 -139.5 -58
t-139.5 58l-629 629q-29 29 -70 29t-70 -29z" />
</svg>