<svg xmlns="http://www.w3.org/2000/svg" xmlns:xlink="http://www.w3.org/1999/xlink" version="1.1" viewBox="-10 0 2068 2048">
   <path fill="currentColor"
d="M1964 697q-34 0 -56 25q-24 26 -24 59q0 32 22 62q-246 255 -330 222q-76 -37 -76 -234q34 0 59 -25t25 -63q0 -34 -25 -59t-59 -25t-59 25t-25 59q0 63 60 84q-92 208 -256 133q-130 -59 -180 -405q68 -16 68 -84q0 -33 -25 -58t-59 -25t-59 25t-25 58q0 68 68 84
q-50 346 -180 405q-164 75 -256 -133q60 -21 60 -84q0 -34 -25 -59t-59 -25t-59 25t-25 59q0 38 25 63t59 25q0 197 -76 234q-84 33 -330 -222q22 -30 22 -62q0 -33 -24 -59q-22 -25 -56 -25t-59 25t-25 59t26 60q25 27 58 27q19 0 34 -8q242 520 220 698q-36 46 0 75
q12 9 88 15q83 7 174 8q130 2 194 2h164h66q642 9 686 -25q16 -12 16 -31q0 -20 -8 -31l-8 -13q-22 -178 220 -698q15 8 34 8q33 0 58 -27q26 -26 26 -60t-25 -59t-59 -25z" />
</svg>