<svg xmlns="http://www.w3.org/2000/svg" xmlns:xlink="http://www.w3.org/1999/xlink" version="1.1" viewBox="-10 0 2058 2048">
   <path fill="currentColor"
d="M1024.5 0q184.5 0 350 25t285 67.5t190 102t70.5 125.5v64v1281q0 53 -37.5 90.5t-90.5 37.5v127q0 52 -37.5 90t-90.5 38h-128q-52 0 -90 -38t-38 -90v-127h-768v127q0 52 -38 90t-90 38h-128q-52 0 -90 -38t-38 -90v-127q-52 0 -90 -37.5t-38 -90.5v-1281v-64
q0 -66 70.5 -125.5t190.5 -102t285.5 -67.5t350 -25zM384 512v512q0 53 37.5 90.5t90.5 37.5h1024q53 0 90.5 -38t37.5 -90v-512q0 -52 -37.5 -90t-90.5 -38h-1024q-53 0 -90.5 37.5t-37.5 90.5zM448.5 1601q52.5 0 90 -38t37.5 -90.5t-37.5 -90.5t-90 -38t-90.5 38
t-38 90.5t38 90.5t90.5 38zM1600.5 1601q52.5 0 90 -38t37.5 -90.5t-37.5 -90.5t-90 -38t-90.5 38t-38 90.5t38 90.5t90.5 38z" />
</svg>