<svg xmlns="http://www.w3.org/2000/svg" xmlns:xlink="http://www.w3.org/1999/xlink" version="1.1" viewBox="-10 0 2068 2048">
   <path fill="currentColor"
d="M0 1650v-1252q0 -70 50 -120t120 -50h1708q70 0 120 50t50 120v8h-270l-60 170l-60 -170h-344v226l-100 -226h-280l-290 658h234v582h722l114 -126l114 126h220v4q0 70 -50 120t-120 50h-1708q-70 0 -120 -50t-50 -120zM1566 1572h-610v-508h432v116h-294v80h286v116
h-286v78h294v118l240 -254l-240 -258h184l146 166l150 -166h180l-242 256l242 256h-184l-148 -164zM1908 1316l140 -146v294zM1778 990h-122l-130 -358v358h-294l-42 -102h-234l-44 102h-152l222 -510h182l224 508v-508h218l114 318l112 -318h216v510h-138v-358zM1002 772
h138l-68 -166z" />
</svg>