<svg xmlns="http://www.w3.org/2000/svg" xmlns:xlink="http://www.w3.org/1999/xlink" version="1.1" viewBox="-10 0 2068 2048">
   <path fill="currentColor"
d="M102 307h74h28q16 0 22 2q131 12 243 81t183 180l12 22q97 154 255 242t339 88q73 0 124.5 -51t51.5 -124v-133q0 -42 30 -72t72 -30h102h102q43 0 73.5 30t30.5 72t-30.5 72t-73.5 30v308q0 128 -89.5 217.5t-216.5 89.5v102h-206v-102h-614v102h-204v-102
q-127 0 -217.5 -90t-90.5 -217v-512q-41 0 -71.5 -30.5t-30.5 -72.5t30 -72t72 -30zM2048 1433v26q0 116 -83 199t-199 83h-1562q-41 0 -71.5 -30.5t-30.5 -72.5t30 -72t72 -30h1562q31 0 54.5 -23t23.5 -54v-26q0 -42 30 -72t72 -30t72 30t30 72z" />
</svg>