<svg xmlns="http://www.w3.org/2000/svg" xmlns:xlink="http://www.w3.org/1999/xlink" version="1.1" viewBox="-10 0 2068 2048">
   <path fill="currentColor"
d="M182 1220q2 9 6 26q15 73 23.5 110.5t24.5 103.5t29 105t33.5 95t42 95.5t51 83.5t62.5 81h-318q-56 0 -96 -40t-40 -96v-1520q0 -56 40 -96t96 -40h232q-86 80 -148 175q-29 44 -50 91.5t-35 90.5t-20 96.5t-9 94t2 100t9 97.5t16 103t19.5 101t22.5 106q5 24 7 37z
M1912 128q57 0 96.5 40t39.5 96v1521q0 56 -39.5 95.5t-96.5 39.5h-208q247 -245 228 -654l-548 119q-2 42 -9.5 77t-23.5 71t-41 63t-65 49t-91 33q-78 14 -134.5 1t-97.5 -48q-28 -24 -47 -50t-44 -81t-51.5 -152t-57.5 -242q-31 -146 -46 -245.5t-14.5 -160t7 -92
t21.5 -64.5q23 -48 72.5 -85t121.5 -53q45 -8 82 -8.5t69.5 11t57.5 27t48 40t39.5 49.5t33.5 56l548 -117q-81 -206 -210 -336h360z" />
</svg>