<svg xmlns="http://www.w3.org/2000/svg" xmlns:xlink="http://www.w3.org/1999/xlink" version="1.1" viewBox="-10 0 2068 2048">
   <path fill="currentColor"
d="M1933 1316q61 68 85.5 148.5t14.5 156.5t-51 147t-105 124t-154.5 85.5t-193.5 32.5q-133 0 -252 -58.5t-188 -163.5q-22 1 -64.5 1t-65.5 -1q-69 105 -188 163.5t-253 58.5q-102 0 -192.5 -32t-154.5 -85t-105 -124t-51 -147t15 -156.5t85 -149.5q-64 -107 -92 -221.5
t-21.5 -223t44.5 -214.5t102.5 -197.5t156.5 -169.5t201.5 -133.5t242 -87t274.5 -31.5t275 31.5t242.5 87t201.5 133.5t156.5 169.5t103 197.5t45 214.5t-21.5 223t-92 221.5zM440 952h182v-256h-182v256zM1395 1328v-104q-198 71 -421 31.5t-404 -179.5l1 108
q110 100 257.5 152.5t296.5 49.5t270 -58zM731 952h730v-256h-730v256z" />
</svg>