<svg xmlns="http://www.w3.org/2000/svg" xmlns:xlink="http://www.w3.org/1999/xlink" version="1.1" viewBox="-10 0 2068 2048">
   <path fill="currentColor"
d="M480.5 0q39.5 0 67.5 28t28 68v32h160v-32q0 -40 28.5 -68t68 -28t67.5 28t28 68v32h192v-32q0 -40 28 -68t67.5 -28t68 28t28.5 68v32h160v-32q0 -40 28 -68t67.5 -28t68 28t28.5 68v32v128v256q53 0 90.5 37.5t37.5 90.5v256q52 0 90 38t38 90v384q52 0 90 38t38 90
v384q0 52 -38 90t-90 38h-256v-640h-128v-512h-128v-384h-128v384h128v512h128v640h-320v-191q0 -80 -56 -136t-135.5 -56t-136 56.5t-56.5 135.5v191h-320v-640h128v-512h128v-384h-128v384h-128v512h-128v640h-256q-52 0 -90 -38t-38 -90v-384q0 -52 38 -90t90 -38v-384
q0 -52 38 -90t90 -38v-256q0 -53 37.5 -90.5t90.5 -37.5v-256v-128v-32q0 -40 28.5 -68t68 -28zM1024.5 1088q-52.5 0 -90.5 38t-38 90v192h256v-192q0 -53 -37.5 -90.5t-90 -37.5zM896 769v127h256v-127q0 -53 -37.5 -91t-90 -38t-90.5 38t-38 91z" />
</svg>