<svg xmlns="http://www.w3.org/2000/svg" xmlns:xlink="http://www.w3.org/1999/xlink" version="1.1" viewBox="-10 0 2068 2048">
   <path fill="currentColor"
d="M852.5 398q127.5 0 243 49.5t199 133t132.5 199t49 242.5q0 128 -49 243.5t-132.5 199t-199 133.5t-243 50t-243 -50t-199 -133.5t-133 -199t-49.5 -243.5q0 -127 49.5 -242.5t133 -199t199 -133t243 -49.5zM710 1392v-740q-112 45 -183 145.5t-71 225t71 225t183 144.5z
M994 1392q112 -44 183 -144.5t71 -225t-71 -225t-183 -145.5v740zM1878 228q70 0 120 50t50 120v1252q0 70 -50 120t-120 50h-1708q-70 0 -120 -50t-50 -120v-1252q0 -70 50 -120t120 -50h1708zM1172 1706q137 0 268 -53.5t228.5 -144t156.5 -216.5t59 -262q0 -120 -38 -228
t-105.5 -191t-156.5 -144t-195 -93t-217 -32h-320q-141 0 -267 50.5t-219.5 139.5t-148.5 218.5t-55 279.5q0 137 55.5 262.5t148 216t220 144t266.5 53.5h320z" />
</svg>