<svg xmlns="http://www.w3.org/2000/svg" xmlns:xlink="http://www.w3.org/1999/xlink" version="1.1" viewBox="-10 0 2068 2048">
   <path fill="currentColor"
d="M1364 563q-13 23 6 47q41 51 68 114l194 -83v-161q0 -40 28 -68t67.5 -28t68 28t28.5 68v78l90 -39q37 -16 73.5 -1t52 52t1 73.5t-50.5 52.5l-224 97l-294 125q-3 56 -20 110q-7 26 12 43q94 90 147 210t53 255q0 132 -50.5 250.5t-139.5 206.5q-57 55 -152 55h-596
q-96 0 -150 -55q-91 -89 -141.5 -207t-50.5 -250q0 -134 53 -254.5t147 -210.5q19 -17 12 -43q-17 -54 -20 -110l-294 -125l-224 -97q-36 -17 -50.5 -53t1 -73t52 -52t73.5 1l90 39v-78q0 -40 28 -68t67.5 -28t68 28t28.5 68v161l194 83q26 -61 70 -114q18 -23 4 -47
q-44 -81 -44 -179q0 -104 51.5 -192.5t139.5 -140t192.5 -51.5t193 51.5t140 140t51.5 192.5q0 91 -44 179zM897 384q27 0 45 -18.5t18 -45.5t-18 -45.5t-45 -18.5t-46 18.5t-19 45.5t19 45.5t46 18.5zM1088 897q0 -27 -19 -45.5t-45.5 -18.5t-45 18.5t-18.5 45.5t18 45
t45.5 18t46 -18t18.5 -45zM1023.5 1216q26.5 0 45.5 -18.5t19 -45.5t-19 -45.5t-45.5 -18.5t-45 18.5t-18.5 45.5t18.5 45.5t45 18.5zM1088 1408q0 -27 -19 -45.5t-45.5 -18.5t-45 18.5t-18.5 45.5t18.5 45.5t45 18.5t45.5 -18.5t19 -45.5zM1151 384q27 0 46 -18.5t19 -45.5
t-19 -45.5t-46 -18.5t-45 18.5t-18 45.5t18 45.5t45 18.5zM960 480v13q0 19 10 36l36 67q4 11 18 11q15 0 20 -11l36 -67q8 -15 8 -36v-13q0 -26 -19 -44.5t-45.5 -18.5t-45 18.5t-18.5 44.5z" />
</svg>