<svg xmlns="http://www.w3.org/2000/svg" xmlns:xlink="http://www.w3.org/1999/xlink" version="1.1" viewBox="-10 0 2068 2048">
   <path fill="currentColor"
d="M763 1430q132 0 247 -37q117 -33 231 -109q156 -110 251 -277q0 -9 9 -25q24 -39 58 -134l13 -38q16 -87 58 -138l-16 -160q-9 -46 12 -92q21 -66 80 -92q23 -8 38 -8q22 0 41 4q5 -28 9 -55q6 -42 8 -50l4 -17q-5 -19 -18 -33q-19 -21 -34 -30q-3 -2 -17.5 -11
t-22.5 -14q-29 -17 -35 -19q-10 -4 -32 -10l-12 -4q-51 9 -63 79l-34 201v5h-4q-9 0 -13 4q-41 20 -83 96l-25 38q-48 65 -97 126q-9 12 -21 21q-145 149 -348 222q-289 105 -616 0l-37 -13q-7 -3 -25 -10q-15 -5 -26 -11q-84 -21 -113 -21q-36 0 -67 17q-25 9 -46 46
q-46 83 34 197q50 67 130 134q159 117 310 168q127 41 272 50zM1966 693q-26 -210 -26 -214q-34 -55 -167 -67v-4h-29q-51 25 -42 96l21 201l-13 13q-37 33 -54 113q0 6 -5 23q-5 18 -8 23q-31 81 -63 143q-8 22 -12 29q-54 84 -93 134l-4 4q-4 4 -4 9q-90 98 -176 159
q-242 163 -536 163h-59q-1 0 -3.5 -0.5t-7 -1t-8.5 -0.5q-20 -2 -23 -2q-1 0 -4 -0.5t-8.5 -1t-10.5 -0.5q-26 -2 -27 -2h-34q-104 0 -146 42q-25 33 -30 55q-25 100 84 184q83 63 164 96q161 68 343 80h59q355 0 628 -222q208 -166 308 -424q99 -256 53 -524
q-12 -61 -67 -104z" />
</svg>