<svg xmlns="http://www.w3.org/2000/svg" xmlns:xlink="http://www.w3.org/1999/xlink" version="1.1" viewBox="-10 0 2068 2048">
   <path fill="currentColor"
d="M128 385h1280v-256q0 -39 21.5 -72t56.5 -47q36 -15 74.5 -7.5t65.5 35.5l384 383q38 38 38 91q0 52 -38 90l-384 385q-27 27 -65.5 34t-74.5 -7q-35 -14 -56.5 -46.5t-21.5 -71.5v-256h-1280q-52 0 -90 -38t-38 -90.5t38 -89.5t90 -37zM1918 1408q53 0 90.5 37.5
t37.5 90t-37.5 91t-90.5 38.5h-1278v255q0 39 -21.5 71.5t-56.5 46.5q-36 14 -74.5 7t-65.5 -34l-384 -384q-38 -37 -38 -90q0 -54 38 -91l384 -383q27 -28 65.5 -35.5t74.5 6.5q35 14 56.5 47.5t21.5 72.5v255h1278v-1z" />
</svg>