<svg xmlns="http://www.w3.org/2000/svg" xmlns:xlink="http://www.w3.org/1999/xlink" version="1.1" viewBox="-10 0 2068 2048">
   <path fill="currentColor"
d="M68 228q9 -23 34 -23q28 0 38 23l56 136q8 17 8 41v4q0 42 -30 72.5t-71.5 30.5t-72 -30.5t-30.5 -72.5v-4q0 -20 10 -41zM374 228q9 -23 36 -23q26 0 36 23l58 136q8 20 8 42v3q0 42 -30 72.5t-71.5 30.5t-72 -30.5t-30.5 -72.5v-4q0 -22 8 -41zM624 364l58 -136
q9 -23 34 -23q27 0 36 23l60 136q8 17 8 42v3q0 42 -31 72.5t-72.5 30.5t-72 -30.5t-30.5 -72.5v-4q0 -20 10 -41zM988 228q10 -23 36 -23t36 23l58 136q8 20 8 42v3q0 42 -30 72.5t-71.5 30.5t-72 -30.5t-30.5 -72.5v-4q0 -22 8 -41zM1236 364l60 -136q9 -23 36 -23
q25 0 34 23l60 136q8 20 8 42v3q0 42 -30 72.5t-72 30.5t-73 -30.5t-31 -72.5v-4q0 -20 10 -41h-2zM1602 228q10 -23 36 -23q27 0 36 23l58 136q8 17 8 42v3q0 42 -30 72.5t-71.5 30.5t-72 -30.5t-30.5 -72.5v-4q0 -20 10 -41zM1850 364l60 -136q9 -23 36 -23q25 0 34 23
l58 136q10 20 10 42v3q0 42 -30.5 72.5t-72 30.5t-71.5 -30.5t-30 -72.5v-4q0 -22 8 -41h-2zM102 614q42 0 72 30t30 72v410q0 42 31 72.5t73 30.5h614v-513q0 -42 30 -72t72 -30t72 30t30 72v513h614q42 0 73 -30.5t31 -72.5v-410q0 -42 30 -72t72 -30t72 30t30 72v410
q0 128 -90 217.5t-218 89.5h-614v205h410q41 0 71.5 30.5t30.5 72.5t-30 72t-72 30h-512h-512q-42 0 -72 -30t-30 -72t30.5 -72.5t71.5 -30.5h410v-205h-614q-128 0 -218 -89.5t-90 -217.5v-410q0 -42 30 -72t72 -30zM410 614q42 0 72 30t30 72v308v102h-204v-102v-308
q0 -42 30 -72t72 -30zM716.5 614q42.5 0 73 30t30.5 72v308v102h-206v-102v-308q0 -42 30 -72t72.5 -30zM1331.5 614q42.5 0 72.5 30t30 72v308v102h-206v-102v-308q0 -42 30.5 -72t73 -30zM1638 614q42 0 72 30t30 72v308v102h-204v-102v-308q0 -42 30 -72t72 -30z" />
</svg>