<svg xmlns="http://www.w3.org/2000/svg" xmlns:xlink="http://www.w3.org/1999/xlink" version="1.1" viewBox="-10 0 2067 2048">
   <path fill="currentColor"
d="M1189.5 37.5q37.5 -37.5 90 -37.5t90.5 38l640 640q37 37 37 90t-37.5 90.5t-90.5 37.5t-91 -38l-638 -638q-38 -38 -38 -91.5t37.5 -91zM806 614l298 -300l182 182l-210 208l268 268l208 -208l180 180l-298 298v2l-138 138q-78 78 -190 104l-428 94q-36 8 -64 36
l-394 394q-38 38 -91 38t-90.5 -37.5t-37.5 -91t37 -91.5l396 -394q26 -26 34 -62l96 -432q22 -106 102 -186zM896 886l-48 48q-28 27 -36 62l-68 308l306 -68q36 -8 64 -36l48 -48z" />
</svg>