<svg xmlns="http://www.w3.org/2000/svg" xmlns:xlink="http://www.w3.org/1999/xlink" version="1.1" viewBox="-10 0 2068 2048">
   <path fill="currentColor"
d="M14 196q17 -38 52 -60t77 -22h1535q41 0 76 22t52 60q17 37 12.5 78t-30.5 72l-378 464q-142 29 -255.5 116t-179 217t-65.5 279q0 140 63 272q-6 -2 -18 -10l-227 -170q-45 -33 -45 -92v-282l-650 -794q-26 -31 -31.5 -72.5t12.5 -77.5zM1024 1421.5
q0 -103.5 40.5 -198.5t109 -163t163.5 -109t199 -41t198.5 41t163.5 109t109.5 163t40.5 198.5t-40.5 198.5t-109.5 163.5t-163.5 109.5t-198.5 41t-199 -41t-163.5 -109.5t-109 -163.5t-40.5 -198.5zM1453 1306q5 -7 15 -12q23 -14 67 -14q35 0 93 14q23 6 43 -5.5t26 -35
t-6 -44t-35 -25.5q-20 -6 -64 -14v-32q0 -24 -16.5 -41t-39.5 -17t-40 17t-17 41v34q-37 6 -65 22q-35 18 -57.5 52t-19.5 80q5 72 76 110q31 16 102 36l7 2q62 18 82 30q17 10 17 18q0 12 -4 18q-3 5 -14 10q-26 15 -65 14q-35 -2 -106 -24l-21 -6q-23 -8 -44 2.5t-28 33.5
q-8 22 3.5 43t34.5 29q3 1 8.5 2.5t8.5 1.5v0q40 13 85 24v42q0 23 17 39.5t40 16.5t39.5 -16.5t16.5 -39.5v-40q41 -7 66 -20q35 -19 56.5 -53t20.5 -79q-3 -75 -73 -114q-29 -18 -108 -42h-1q-66 -19 -85 -30q-17 -9 -17 -14v-2q0 -7 3 -12h-1z" />
</svg>