<svg xmlns="http://www.w3.org/2000/svg" xmlns:xlink="http://www.w3.org/1999/xlink" version="1.1" viewBox="-10 0 2068 2048">
   <path fill="currentColor"
d="M1856 1024q0 -113 -30 -221t-83.5 -199t-130.5 -168t-168 -130.5t-199 -83.5t-221 -30t-220.5 30t-199 83.5t-168 130.5t-130.5 168t-84 199t-30 221q0 241 126.5 441t335.5 305q-14 -48 -14 -105v-210q-54 -50 -92 -109q-17 -24 -12.5 -47t20 -40t41.5 -24.5t53 -1.5
q185 43 374.5 43t373.5 -43q28 -6 54 1.5t41 24.5t19.5 40t-12.5 47q-37 57 -92 109v210q0 54 -14 105q209 -105 335.5 -305t126.5 -441zM0 1024q0 -139 37 -272t103 -245.5t160.5 -207t207 -160t245 -102.5t272 -37t272 37t244.5 102.5t206.5 160t160.5 207t103 245.5
t37 272t-37 272t-103 245.5t-160.5 207t-206.5 160t-244.5 102.5t-272 37t-272 -37t-245 -102.5t-207 -160t-160.5 -207t-103 -245.5t-37 -272zM705.5 704q52.5 0 90.5 38t38 90.5t-38 90t-90.5 37.5t-90 -37.5t-37.5 -90t37.5 -90.5t90 -38zM1218 832.5q0 -52.5 37.5 -90.5
t90 -38t90.5 38t38 90.5t-38 90t-90.5 37.5t-90 -37.5t-37.5 -90zM1280 1665v-150q0 -44 -31.5 -75.5t-74.5 -31.5h-8q-34 0 -60.5 21.5t-33.5 54.5q-6 24 -27 34t-41.5 0t-25.5 -34q-8 -33 -34.5 -54.5t-59.5 -21.5h-10q-43 0 -74.5 31.5t-31.5 75.5v150q0 106 75.5 180.5
t181 74.5t180.5 -74.5t75 -180.5z" />
</svg>