<svg xmlns="http://www.w3.org/2000/svg" xmlns:xlink="http://www.w3.org/1999/xlink" version="1.1" viewBox="-10 0 2068 2048">
   <path fill="currentColor"
d="M458 2048h-424v-1368h424v1368zM246.5 494q-101.5 0 -174 -73.5t-72.5 -175.5t72 -173.5t174 -71.5t174 71.5t72 173.5t-72 175.5t-173.5 73.5zM2048 2048h-424v-666v-54.5t-2.5 -54.5t-6.5 -55.5t-11.5 -51t-18.5 -47.5t-28 -39.5t-38.5 -32.5t-51 -19.5t-65.5 -7.5
q-63 0 -110 20t-74 51.5t-43 79.5t-21.5 94.5t-5.5 105.5v677h-424v-1368h408v187h6q22 -42 58 -80t85 -70.5t116 -51.5t141 -19q91 0 164 17t125.5 47t91.5 76.5t63.5 99t39 121t20.5 137t6 152.5v752z" />
</svg>