<svg xmlns="http://www.w3.org/2000/svg" xmlns:xlink="http://www.w3.org/1999/xlink" version="1.1" viewBox="-10 0 2068 2048">
   <path fill="currentColor"
d="M864 988l-102 20l-6 -17q11 -1 34.5 -7.5t35.5 -6.5q19 0 38 11zM1358 1709q10 0 24 16.5t29 44.5t27 52.5t25 53.5t15 34q-190 70 -386 35l-24 -164q40 -27 137 -49.5t153 -22.5zM1216 736q-17 -8 -76 -10.5t-142.5 9t-141.5 38.5q17 -31 38 -48t56 -31q29 -11 53.5 -26
t47 -36t37.5 -36.5t39.5 -44.5t38.5 -44q13 10 25.5 27t20.5 29.5t25.5 21t42.5 6.5v79l24 1q122 -47 215 -92.5t173 -106.5q29 -22 52 -40.5t44 -39t34.5 -33t30.5 -35t25 -33t25 -38.5t24 -40t28 -49.5t31 -55.5l8 -10q-2 60 -44 145q-83 173 -215 276.5t-321 149.5
q-4 1 -58.5 10.5t-77.5 21.5q2 20 25 48.5t23 35.5q0 12 -28 32q-3 -4 -9 -11q-21 -24 -30 -34.5t-21 -20.5t-22 -15zM1998 91l-2 5l-2 2l2 -3zM1782 1483q32 55 75.5 106.5t75.5 81.5t95 86q13 11 20 17q-51 31 -114 60.5t-145 63t-119 49.5q-35 -30 -61.5 -84.5t-41 -118
t-29 -137t-26 -143t-31.5 -134.5t-46 -113.5t-69.5 -78t-101.5 -29.5q-11 2 -16 6l12 15q8 7 27 22.5t24.5 20t19 17t17.5 18.5t13 18.5t11.5 22.5t7 25t6 31.5t2.5 37.5v35q2 28 -2 60.5t-8 54t-13 61t-13 55.5q-29 -1 -69.5 4.5t-71 11.5t-69.5 5.5t-72 -10.5
q-3 -18 -3 -70.5t3 -79.5q2 -11 21.5 -32.5t41.5 -42t39.5 -44.5t17.5 -41q-23 -2 -44 26q-38 56 -117.5 104.5t-142.5 48.5q-21 0 -59.5 -42t-75.5 -95t-79 -106.5t-66 -70.5q-5 -4 -9 -8t-9.5 -11.5t-7.5 -10.5q-81 20 -300 68.5t-238 48.5q-17 0 -29.5 -12t-12.5 -28
q0 -15 9 -27.5t23 -15.5l508 -110q-8 -15 -8 -26.5t5.5 -18.5t17 -12t21.5 -7.5t24 -5t20 -4.5q4 -1 16 -7.5t18 -6.5q16 0 30 16.5t20 34.5q4 -1 51 -11.5t85 -19t44 -8.5q20 0 31.5 11.5t12.5 26t-8 28.5t-26 17l-190 42l-2 17q0 18 42.5 72t90.5 100.5t63 46.5
q31 0 79.5 -40.5t84.5 -93t36 -85.5q0 -31 -16.5 -48t-39 -22t-45.5 -8.5t-39 -13.5t-16 -31q0 -14 10 -36l-70 -20q58 -61 38 -183q82 -17 152 -17q45 0 74 1.5t51 9t32.5 14.5t21.5 25.5t16.5 34.5t18 50t24.5 63l52 -27q-2 35 -16 54.5t-33 25.5t-37 8t-30 7.5t-10 18.5
v22q57 -2 110 10t95.5 32t85 54.5t74 67.5t67 81t59 85.5t55.5 89.5zM1068 1652h32l10 87l-42 12v-99zM816 1103l52 -13l114 186l-78 50zM1124 1668q28 -3 67 -9.5t73 -10t78 -3.5q2 15 2 17q0 8 -18 15.5t-47.5 13t-57 10t-55.5 8t-34 4.5z" />
</svg>