<svg xmlns="http://www.w3.org/2000/svg" xmlns:xlink="http://www.w3.org/1999/xlink" version="1.1" viewBox="-11 0 2069 2048">
   <path fill="currentColor"
d="M584.5 182q16.5 0 30.5 9t20 25l99 252l259 -79q35 -10 58 18q4 4 5 6q-89 43 -148 126l-139 202q-70 22 -123 76.5t-74 129.5l-35 131l-32 121l-120 110q-26 23 -60 8q-15 -7 -23 -21.5t-7 -30.5l18 -271l-266 -41q-35 -7 -45 -41q-9 -34 22 -56l222 -154l-133 -234
q-8 -15 -7 -32t11 -29q23 -28 58 -18l259 79l100 -252q6 -16 20 -25t30.5 -9zM1235 703q-16 -5 -32.5 1t-26.5 21l-109 158l683 183l-15 -192q-1 -18 -12.5 -31t-28.5 -17zM998 601h-1q49 -71 130 -100.5t164 -7.5l460 123q83 21 138.5 88t62.5 153l22 285q44 35 63 88.5
t4 110.5l-35 131l-56 210l-29 105q-12 43 -50 65t-82 11l-53 -14q-43 -13 -66 -51.5t-11 -81.5l29 -105l-840 -224l-28 105q-12 43 -50.5 65.5t-82.5 10.5l-52 -14q-43 -13 -66 -51.5t-11 -81.5l28 -105l56 -209l36 -132q15 -57 58 -94.5t99 -44.5zM940 1046q-9 -3 -21 -3
q-34 0 -58 23.5t-24 57.5q0 28 17.5 50t43.5 29q9 3 21 3q34 0 57.5 -24t23.5 -57q0 -29 -16.5 -51t-43.5 -28zM1679 1328q-3 9 -3 21q0 33 24 57.5t58 24.5q28 0 49.5 -17.5t28.5 -43.5q4 -11 4 -25q0 -34 -23.5 -57.5t-57.5 -23.5q-30 0 -52.5 18t-27.5 46z" />
</svg>