<svg xmlns="http://www.w3.org/2000/svg" xmlns:xlink="http://www.w3.org/1999/xlink" version="1.1" viewBox="-10 0 2068 2048">
   <path fill="currentColor"
d="M1700 968q-7 14 -13 10q-2 -1 -1 -10q2 -11 9 -29.5t12 -32.5t8.5 -28.5t0.5 -23.5t-14 -10q-22 -4 -62 -3.5t-89.5 3t-92.5 4.5t-72.5 1t-29.5 -5q0 -5 27.5 -9t65 -10.5t55.5 -16.5q17 -16 28 -23.5t14 -7.5l2 1h106q33 0 54.5 4t35.5 16t14 33t-14 55.5t-44 81.5z
M1260 1056q-52 18 -102.5 37.5t-122.5 52t-127 58t-169 81.5t-191.5 94.5t-251.5 125t-296 147.5l206 -964h311q216 -3 400.5 -1t319.5 9t213 27t82 55h-772l120 364q82 -39 191.5 -82t251.5 -83.5t235 -44.5q96 -4 105 14q2 4 -3 8q-5 3 -51 11t-142 31.5t-207 59.5z
M266 396h1782l-266 1256h-1660q1578 -618 1594 -630q6 -7 15 -20t28.5 -49.5t30.5 -68.5t9 -68.5t-25 -57.5q-18 -19 -54 -22.5t-152 -3.5q-4 -46 -165.5 -89t-701.5 -155q-272 -57 -435 -92z" />
</svg>