<svg xmlns="http://www.w3.org/2000/svg" xmlns:xlink="http://www.w3.org/1999/xlink" version="1.1" viewBox="-10 0 2068 2048">
   <path fill="currentColor"
d="M672 1539q171 61 350 61q146 0 277.5 -36t231 -98t173 -143t112 -174.5t38.5 -188.5t-38.5 -188.5t-112 -174.5t-173 -143t-231 -98t-277 -36t-277 36t-231 98t-173 143t-111.5 174.5t-38 188.5q0 196 142 356q55 62 48 142q-6 98 -46 197q91 -41 158 -91q38 -28 86 -35
t92 10zM106 1694q74 -123 84 -251q-190 -215 -190 -483q0 -113 37 -220.5t103 -199t160 -168t206 -130t244.5 -83.5t272 -30t272 30t245 83.5t207 130t161 167.5t103.5 199t37 221t-37 221t-103 199t-160.5 168t-206.5 130.5t-244.5 83.5t-272.5 30q-212 0 -416 -72
q-93 68 -216 122q-107 45 -202 64q-6 2 -8 2q-30 5 -52 8h-4q-31 3 -60 3q-20 0 -36.5 -10.5t-23.5 -28.5q-8 -18 -4 -37t18 -33q21 -23 44 -53l20 -28v-2q12 -17 22 -33zM576.5 1088q-52.5 0 -90.5 -38t-38 -90t38 -90t90.5 -38t90 37.5t37.5 90.5t-37.5 90.5t-90 37.5z
M1150 960q0 52 -37.5 90t-90 38t-89.5 -37.5t-37 -90.5t37 -90.5t89.5 -37.5t90 38t37.5 90zM1470.5 1088q-52.5 0 -89.5 -37.5t-37 -90.5t37 -90.5t89.5 -37.5t90 38t37.5 90t-37.5 90t-90 38z" />
</svg>