<svg xmlns="http://www.w3.org/2000/svg" xmlns:xlink="http://www.w3.org/1999/xlink" version="1.1" viewBox="-10 0 2069 2048">
   <path fill="currentColor"
d="M1998 1245q35 35 45.5 94t-3 112t-42.5 77q-42 46 -98.5 59t-106.5 -3.5t-87 -61.5t-43 -107q-4 -57 18 -105q57 -124 -37 -197q-76 -59 -203 -58q-126 1 -195 60q-75 65 -34 168q1 1 1 2q25 40 29.5 84.5t-11 83.5t-43.5 71t-71 49.5t-92 15.5q-48 2 -91 -15.5
t-71.5 -49t-44 -70.5t-11 -84t29.5 -85l1 -2q46 -113 -47 -179q-78 -54 -203 -49q-127 5 -194 69q-77 73 -25 186q19 42 19.5 86t-16.5 81t-45.5 65t-69 41.5t-84.5 7.5q-56 -7 -95.5 -37.5t-56 -71t-20 -84t6.5 -80.5t29 -56q41 -40 81.5 -58.5t88.5 -13.5q69 -1 102 -37.5
t35.5 -106t-17.5 -172.5q-18 -45 -20.5 -95t8.5 -96t37 -88t62 -73t86 -49.5t106 -17.5q50 1 92.5 16t72 38t55 51t48 56t44 51t49 37t58.5 14q32 0 60 -14t49.5 -37t43 -51t47 -56t54.5 -51t71.5 -38t92.5 -16q57 -1 106.5 17.5t86 49.5t62 73t37 88t9 96t-20.5 95
q-19 103 -16.5 172.5t36 106t101.5 37.5q92 -9 154 55zM1026 1184q50 0 90 -20t63.5 -51t35.5 -64.5t12 -65.5q0 -83 -58.5 -142t-142.5 -59h-2q-83 0 -142 59t-59 142q0 32 12.5 66t36 65t63.5 50.5t89 19.5h2z" />
</svg>