<svg xmlns="http://www.w3.org/2000/svg" xmlns:xlink="http://www.w3.org/1999/xlink" version="1.1" viewBox="-10 0 2068 2048">
   <path fill="currentColor"
d="M0 0h2048v2048h-2048v-2048zM854 644q43 0 59.5 21.5t16.5 83.5l232 -28q0 -59 -16.5 -103t-43 -70.5t-66 -42t-80 -21t-90.5 -5.5q-178 0 -266 77t-88 244v95h-128v172h102q26 0 26 10v509q0 20 -6.5 28t-23.5 9l-98 9v118h598v-116l-200 -18q-7 -1 -10.5 -2t-4.5 -3.5
t-1 -5.5t1 -10t1 -13v-516h254l52 -171h-308q-9 0 -4 -8q2 -2 3 -3.5t2 -4t1 -4.5v-106q0 -29 0.5 -44.5t5 -33.5t14 -26.5t26 -14.5t40.5 -6zM1194 1750h470v-116l-72 -11q-9 -2 -12.5 -4t-3.5 -4t1 -10t1 -15v-695h-366l-30 135l110 30q30 9 30 36v494q0 18 -7.5 24.5
t-26.5 8.5l-94 11v116zM1564 581l100 -111l-16 -43h-126l-72 -129h-42l-70 129h-128l-16 43l100 111l-42 152l34 33l142 -75l144 75l32 -33z" />
</svg>