<svg xmlns="http://www.w3.org/2000/svg" xmlns:xlink="http://www.w3.org/1999/xlink" version="1.1" viewBox="-10 0 2068 2048">
   <path fill="currentColor"
d="M1034 287q-10 -5 -20 0l-278 106l288 110l288 -110zM484 443q0 -63 35 -113.5t93 -72.5l342 -130q70 -27 140 0l342 130q58 22 93 73t35 113v398q1 0 14 5l342 129q57 22 92.5 73t35.5 114v424q0 59 -32.5 108.5t-87.5 73.5l-340 150q-81 34 -162 0l-402 -177l-402 177
q-81 34 -162 0l-340 -150q-55 -24 -87.5 -73.5t-32.5 -108.5v-424q0 -63 35.5 -114t92.5 -72l342 -130q13 -5 14 -5v-398zM1394 863v-319l-294 113v316zM550 1006q-10 -5 -20 0l-278 106l288 111l290 -111zM618 1733l292 -129v-341l-292 113v357zM1498 1006l-280 106
l290 111l288 -111l-278 -106q-11 -5 -20 0zM1860 1612q18 -9 18 -26v-323l-294 113v357z" />
</svg>