<svg xmlns="http://www.w3.org/2000/svg" xmlns:xlink="http://www.w3.org/1999/xlink" version="1.1" viewBox="-10 0 2068 2048">
   <path fill="currentColor"
d="M478 156q141 -23 274 22l200 309l-302 303q-10 11 -10 23q0 9 12 22l446 416q10 8 21.5 8.5t20.5 -7.5q21 -20 8 -41l-242 -392l362 -303q18 -14 10 -35l-90 -254q86 -51 184 -69t198 -1q136 22 245 102.5t171 201.5t62 259v23q0 124 -50 239t-140 200l-722 675
q-47 43 -111.5 43t-110.5 -43l-722 -675q-91 -85 -141.5 -200t-50.5 -239v-23q0 -138 62 -259.5t171.5 -202t244.5 -102.5z" />
</svg>