<svg xmlns="http://www.w3.org/2000/svg" xmlns:xlink="http://www.w3.org/1999/xlink" version="1.1" viewBox="-10 0 2068 2048">
   <path fill="currentColor"
d="M1856 1024q0 -113 -30 -221t-83.5 -199t-130.5 -168t-168 -130.5t-199 -83.5t-221 -30t-220.5 30t-199 83.5t-168 130.5t-130.5 168t-84 199t-30 221t30 221t84 199t130.5 168t168 131t199.5 84t220.5 30t220.5 -30t199 -84t168 -131t130.5 -168t83.5 -199t30 -221z
M1024.5 0q139.5 0 272 37t244.5 102.5t206.5 160t160.5 207t103 245.5t37 272t-37 272t-103 245.5t-160.5 207t-206.5 160t-244.5 102.5t-272 37t-272 -37t-245 -102.5t-207 -160t-160.5 -207t-103 -245.5t-37 -272t37 -272t103 -245.5t160.5 -207t207 -160t245 -102.5
t272 -37zM641.5 992q-39.5 0 -67.5 -28t-28 -68t28 -68t67.5 -28t68 28t28.5 68t-28.5 68t-68 28zM1506 896q0 40 -28.5 68t-68 28t-67.5 -28t-28 -68t28 -68t67.5 -28t68 28t28.5 68zM768 1344h512q40 0 68 28t28 68t-28 68t-68 28h-512q-39 0 -67.5 -28t-28.5 -68
t28.5 -68t67.5 -28zM640.5 704q-79.5 0 -136 56t-56.5 136t56.5 136t136 56t135.5 -56t56 -136t-56 -136t-135.5 -56zM640.5 1216q-132.5 0 -226.5 -93.5t-94 -226.5t94 -226.5t226.5 -93.5t226 93.5t93.5 226.5t-93.5 226.5t-226 93.5zM1216 896q0 79 56.5 135.5t136 56.5
t135.5 -56t56 -136t-56 -136t-135.5 -56t-136 56.5t-56.5 135.5zM1728 896q0 133 -93.5 226.5t-226.5 93.5q-87 0 -160.5 -43t-116.5 -116.5t-43 -160.5t43 -160.5t116.5 -116.5t160.5 -43q133 0 226.5 93.5t93.5 226.5z" />
</svg>