<svg xmlns="http://www.w3.org/2000/svg" xmlns:xlink="http://www.w3.org/1999/xlink" version="1.1" viewBox="-10 0 2067 2048">
   <path fill="currentColor"
d="M1025 0q208 0 397.5 81t326 218.5t217.5 327t81 397.5q0 209 -81 398.5t-217.5 326.5t-326 218t-397.5 81t-397.5 -81t-327 -218t-218.5 -327t-81 -398t81 -397.5t218.5 -327t327 -218.5t397.5 -81zM1025 1855q231 0 425 -118t303 -314q-1 0 -898 -400q0 52 13.5 102.5
t39 95t69.5 72t100 27.5q92 0 150 -69l148 181q-139 122 -327 122q-51 0 -104 -11t-110 -34t-106.5 -64t-90 -97t-63.5 -138t-23 -180q0 -72 13 -136l-325 -144q-46 131 -46.5 268t39 257.5t115.5 228t177 184.5t231 122t270 45zM1826 1236q1 1 2 1q28 -106 28 -214
q0 -169 -66 -323t-177.5 -265.5t-265 -177.5t-322.5 -66q-214 0 -397.5 101.5t-297.5 275.5l308 138q64 -101 169 -157t247 -56q189 0 322 114l-167 171q-42 -42 -98 -56.5t-114 10.5t-95 92z" />
</svg>