<svg xmlns="http://www.w3.org/2000/svg" xmlns:xlink="http://www.w3.org/1999/xlink" version="1.1" viewBox="-10 0 2068 2048">
   <path fill="currentColor"
d="M1990 940l-449 331q-126 94 -287 94h-571h-568q-48 0 -81 -33t-33 -80v-228q0 -47 33 -80.5t81 -33.5h130l160 -127q124 -100 284 -100h278h57h228q47 0 80.5 33t33.5 80t-33.5 80.5t-80.5 33.5h-228h-57q-23 0 -39.5 17.5t-16.5 40.5t16 39.5t40 16.5h430l425 -313
q47 -35 105 -27t93 56q34 48 25.5 107t-55.5 93zM689 910v1q0 2 -2 2t-2 -2h1l-1 -1q0 -2 2 -2t2 2z" />
</svg>