<svg xmlns="http://www.w3.org/2000/svg" xmlns:xlink="http://www.w3.org/1999/xlink" version="1.1" viewBox="-10 0 2068 2048">
   <path fill="currentColor"
d="M512 256q0 -106 75.5 -181t180.5 -75h780q104 0 180 75l116 117q76 75 76 181v267h-256v-267l-116 -117h-780v384h-256v-384zM0 640q0 -52 38 -90t90 -38h128q53 0 90.5 37.5t37.5 90.5v1280q0 53 -37.5 90.5t-90.5 37.5h-128q-52 0 -90 -38t-38 -90v-1280zM1920 769
q52 0 90 37.5t38 89.5v1024q0 52 -38 90t-90 38h-1280q-52 0 -90 -38t-38 -90v-1151h1408zM1024.5 1024q-52.5 0 -90.5 38t-38 90t38 90t90.5 38t90 -37.5t37.5 -90.5t-37.5 -90.5t-90 -37.5zM1408 1152q0 52 38 90t90.5 38t90 -38t37.5 -90t-37.5 -90t-90 -38t-90.5 38
t-38 90zM1536.5 1536q-52.5 0 -90.5 38t-38 91t38 90.5t90.5 37.5t90 -37.5t37.5 -90.5t-37.5 -91t-90 -38zM896 1665q0 53 38 90.5t90.5 37.5t90 -37.5t37.5 -90.5t-37.5 -91t-90 -38t-90.5 38t-38 91z" />
</svg>