<svg xmlns="http://www.w3.org/2000/svg" xmlns:xlink="http://www.w3.org/1999/xlink" version="1.1" viewBox="-10 0 2067 2048">
   <path fill="currentColor"
d="M1387 24q19 -24 52.5 -24t53.5 24q24 29 45 65t41.5 100t20.5 130q0 57 -8 97t-16 52l-8 12q4 -4 12.5 -9.5t49.5 -14.5t98 -9q66 0 130.5 20.5t100.5 41.5t65 45q23 19 23 54q0 34 -23 53q-29 24 -62 45t-89.5 41.5t-111.5 20.5q-47 0 -86.5 -8t-66.5 -18.5t-59.5 -35
t-51.5 -42.5t-57 -56q-37 -37 -55.5 -57t-42.5 -52t-34.5 -59.5t-18.5 -66.5t-8 -86q0 -78 33 -146.5t73 -116.5zM979 544q107 0 204.5 41.5t167.5 112t112 167.5t42 204q0 154 -83 283t-222 194l-401 185l-241 -241q-19 -19 -45 -19t-45 19t-19 45t19 45l208 209l-539 250
q-28 13 -57.5 7.5t-50.5 -27.5t-26.5 -51t7.5 -57l492 -1063v-1l222 222q19 19 45 19t45 -19t19 -45.5t-19 -45.5l-241 -242q75 -91 181 -141.5t225 -50.5z" />
</svg>