<svg xmlns="http://www.w3.org/2000/svg" xmlns:xlink="http://www.w3.org/1999/xlink" version="1.1" viewBox="-10 0 2068 2048">
   <path fill="currentColor"
d="M2044 1312q0 -276 -244 -618q-243 -343 -434 -343q-162 0 -220 318q-4 -5 -11.5 -15.5t-10.5 -13.5q-13 -18 -20 -26v-464q0 -32 -24 -58q-22 -25 -56 -25t-56 25q-24 26 -24 58v477q-24 41 -42 58q-58 -330 -220 -330q-192 0 -436 345q-242 344 -242 617q0 16 -2 150
t-2 144q0 44 6 119q6 73 20 109q10 29 36 73q23 40 60 55q35 14 92 14q218 0 470 -205q252 -206 252 -459q0 -285 -8 -435q78 -61 104 -96l88 88q-8 150 -8 438q0 255 252 458q253 203 470 203q55 0 92.5 -15t59.5 -54q26 -44 36 -73q14 -36 20 -107q6 -73 6 -119
q0 -14 -2 -144t-2 -149z" />
</svg>