<svg xmlns="http://www.w3.org/2000/svg" xmlns:xlink="http://www.w3.org/1999/xlink" version="1.1" viewBox="-10 0 2058 2048">
   <path fill="currentColor"
d="M639 0q53 0 91 38t38 90v384h-256v-384q0 -53 37.5 -90.5t89.5 -37.5zM1407 0q53 0 91 38t38 90v384h-256v-384q0 -53 37.5 -90.5t89.5 -37.5zM384 640h1280q52 0 90 38t38 91q0 52 -37.5 89.5t-90.5 37.5v128q0 230 -145.5 406.5t-366.5 221.5v268q0 52 -38 90t-90 38
t-90 -38t-38 -90v-268q-221 -45 -366.5 -221.5t-145.5 -406.5v-128q-53 0 -90.5 -37.5t-37.5 -89.5q0 -53 38 -91t90 -38z" />
</svg>