<svg xmlns="http://www.w3.org/2000/svg" xmlns:xlink="http://www.w3.org/1999/xlink" version="1.1" viewBox="-10 0 2068 2048">
   <path fill="currentColor"
d="M124 220l358 281q251 -194 542 -194q338 0 616 257q103 97 180 210t118 210q16 40 0 79q-36 87 -101.5 188t-154.5 191l336 264q25 20 29 52t-15.5 56.5t-51 28.5t-56.5 -16l-1894 -1485q-25 -19 -29 -51t15.5 -57t51.5 -29t56 15zM608 599l148 116q117 -101 268 -101
q112 0 206.5 55t149 149.5t54.5 205.5q0 99 -46 188l174 134q76 -75 133.5 -160.5t92.5 -161.5q-36 -81 -101.5 -174t-150.5 -173q-235 -217 -512 -217q-220 0 -416 139zM1264 1114q16 -47 16 -90q0 -106 -75 -181.5t-181 -75.5h-6q6 28 6 52q0 50 -20 90zM1428 1637
q-194 104 -404 104q-336 0 -616 -259q-103 -96 -179.5 -208.5t-118.5 -210.5q-15 -39 0 -79q52 -127 156 -263l120 96q-76 100 -124 207q36 83 100.5 175.5t149.5 171.5q234 216 512 216q141 0 270 -56zM1146 1415q-58 18 -122 18q-112 0 -206 -54.5t-149 -149t-55 -205.5
q0 -19 2 -28l180 142q25 52 70 88t100 48z" />
</svg>