<svg xmlns="http://www.w3.org/2000/svg" xmlns:xlink="http://www.w3.org/1999/xlink" version="1.1" viewBox="-10 0 2068 2048">
   <path fill="currentColor"
d="M580 835l42 21q29 15 62 15q56 0 96 -40.5t40 -96.5v-69q0 -85 -60.5 -144.5t-145.5 -59.5h-204q-84 0 -145 59.5t-61 144.5v69q0 56 40.5 96.5t97.5 40.5q32 0 60 -15l42 -21l26 -13l-38 -25q-22 -15 -22 -43v-12q0 -32 22.5 -54.5t53.5 -22.5h52q31 0 53.5 22.5
t22.5 54.5v12q0 27 -22 43l-38 25zM554 994l-42 -21l-42 20q-63 31 -128 31q-12 0 -34 -2v2q0 85 60 145t144 60h204q43 0 73.5 30t30.5 72t-30.5 72t-73.5 30h512v-153v-51q0 -56 28 -102.5t76 -74.5q49 -28 102 -28v-51q0 -64 44.5 -109t107.5 -45q21 0 36.5 15.5
t15.5 36.5v102v51v153q0 21 15 36.5t36 15.5t36 -15.5t15 -36.5v-319q0 -115 -67.5 -209t-176.5 -131l-28 -9q-20 -7 -29 -24t-3.5 -37t22 -31t36.5 -7l64 13q141 28 253 114.5t174.5 213.5t62.5 270v3q0 146 -57 278.5t-152.5 228.5t-228.5 153t-278 57h-4h-508h-2
q-146 0 -278.5 -56.5t-228 -152.5t-152.5 -228t-57 -278v-2v-126q-50 -75 -50 -164v-69v-4q-23 -8 -37.5 -27.5t-14.5 -44.5q0 -31 23 -54t55 -23h8q44 -92 131.5 -148.5t192.5 -56.5h204q106 0 193.5 56.5t130.5 148.5h10q31 0 53.5 23t22.5 54q0 25 -14.5 44.5t-37.5 27.5
v4v69v14q59 -31 128 -31h26q42 0 72 30t30 72t-30 72.5t-72 30.5h-26q-31 0 -53.5 22.5t-22.5 54.5v25h180q-78 88 -78 205h-102q-99 0 -179 -58.5t-111 -150.5q-22 4 -50 4q-69 0 -130 -30zM307.5 614q21.5 0 37 14.5t15.5 36.5t-15.5 36.5t-37 14.5t-36.5 -14.5t-15 -36.5
t15 -36.5t36.5 -14.5zM666 665q0 -22 14.5 -36.5t36 -14.5t36.5 14.5t15 36.5t-15 36.5t-36.5 14.5t-36 -14.5t-14.5 -36.5z" />
</svg>