<svg xmlns="http://www.w3.org/2000/svg" xmlns:xlink="http://www.w3.org/1999/xlink" version="1.1" viewBox="-10 0 2068 2048">
   <path fill="currentColor"
d="M1231 306h410q42 0 72.5 30.5t30.5 72.5t-30.5 72t-72.5 30h-364q-12 61 -52 110t-96 74v945h512q42 0 72.5 30t30.5 72t-30.5 72t-72.5 30h-615h-615q-43 0 -73 -30t-30 -72t30 -72t73 -30h512v-945q-57 -25 -97 -74t-51 -110h-364q-43 0 -73 -30t-30 -72t30.5 -72.5
t72.5 -30.5h410q36 -47 89.5 -74.5t115 -27.5t115.5 27.5t90 74.5zM1409 1229h464l-232 -397zM1640.5 1537q-149.5 0 -263.5 -72t-140 -181q-12 -46 22 -103l304 -523q11 -21 32 -32.5t46 -11.5q23 0 43.5 12t33.5 32l305 523q33 57 22 103q-27 109 -141 181t-263.5 72z
M407 832l-232 397h464zM4 1284q-12 -47 21 -103l306 -523q25 -44 77 -44q23 0 43.5 12t33.5 32l305 523q32 56 21 103q-27 109 -141 181t-263.5 72t-263 -72t-139.5 -181z" />
</svg>