<svg xmlns="http://www.w3.org/2000/svg" xmlns:xlink="http://www.w3.org/1999/xlink" version="1.1" viewBox="-10 0 2068 2048">
   <path fill="currentColor"
d="M627 1539l-124 -123q-26 -25 -34 -60t4 -69q23 -69 47 -136h-423q-27 0 -49.5 -12.5t-34.5 -35.5q-13 -22 -12.5 -48.5t13.5 -48.5l210 -353q39 -66 105 -104t143 -38h328q17 -27 29 -44q68 -100 149 -179t162 -130t170.5 -85.5t170.5 -50.5t165.5 -20t153 1.5
t136.5 17.5q35 7 59.5 31.5t31.5 59.5q12 68 17.5 136.5t1.5 153t-20 165.5t-50 170.5t-85 170.5t-130 162t-179 149q-3 2 -46 29v328q0 77 -37.5 143t-103.5 105l-354 210q-22 13 -48 13.5t-48.5 -12.5t-35.5 -35.5t-13 -48.5v-428q-109 37 -143 48q-33 11 -67 2.5
t-59 -34.5zM1535.5 672q66.5 0 113.5 -47t47 -113.5t-46.5 -113t-113.5 -46.5t-113.5 46.5t-46.5 113t46.5 113.5t113 47z" />
</svg>