<svg xmlns="http://www.w3.org/2000/svg" xmlns:xlink="http://www.w3.org/1999/xlink" version="1.1" viewBox="-10 0 2068 2048">
   <path fill="currentColor"
d="M640 886q-51 70 -107 131t-110 107t-108 79t-101 49t-88 14t-69 -23q-44 -32 -53.5 -102t12 -159.5t74 -197t128.5 -212.5q50 -70 105.5 -131t110 -107t108.5 -79t101 -49t87.5 -14t69.5 24q42 32 52 101.5t-11.5 159t-73.5 197t-127 212.5zM2044 657q4 44 4 100
q0 149 -39 291.5t-109 263t-170.5 222t-219.5 172.5t-260 110.5t-288 39.5q-245 0 -460.5 -103t-367.5 -284q212 -58 383.5 -198.5t273.5 -335.5q47 205 196 296q85 52 192 56t220.5 -39.5t227.5 -124t221.5 -200.5t195.5 -266z" />
</svg>