<svg xmlns="http://www.w3.org/2000/svg" xmlns:xlink="http://www.w3.org/1999/xlink" version="1.1" viewBox="-10 0 2068 2048">
   <path fill="currentColor"
d="M1025.5 0q142.5 0 276 34t246 96.5t205.5 152.5t158 199t101 240t36 271q0 133 -31 255.5t-86.5 223.5t-134 186.5t-171.5 148t-201.5 105.5t-222.5 61.5t-235 12t-238 -38.5q-7 -2 -11.5 -2.5l-9 -1t-11 1t-13 3.5t-17.5 6.5l-22 9t-30 13t-37 16.5t-48.5 21.5
t-58.5 26.5q-18 7 -32 7q-34 0 -58 -23.5t-24 -56.5q-1 -30 -2 -63.5t-1.5 -50.5t-1 -37t-1.5 -29.5t-3 -20t-5.5 -16t-8 -11.5t-11.5 -12q-152 -136 -237 -325t-85 -410q0 -140 36 -271t101.5 -240t159 -199t206 -152.5t246.5 -96.5t276.5 -34zM1642 765q10 -16 7 -34
t-15.5 -28t-29 -13t-34.5 10l-322 245q-16 12 -38 12t-38 -12l-238 -179q-43 -31 -94 -31q-40 0 -74 19t-54 52l-302 478q-11 16 -8 34t15 28t29 13t34 -10l324 -245q16 -13 36.5 -13t37.5 13l240 179q43 31 92 31q40 0 75 -20t55 -53z" />
</svg>