<svg xmlns="http://www.w3.org/2000/svg" xmlns:xlink="http://www.w3.org/1999/xlink" version="1.1" viewBox="-10 0 2068 2048">
   <path fill="currentColor"
d="M735.5 184q114.5 0 211 56t152.5 152.5t56 210.5t-56 211t-153 153.5t-211 56.5t-210.5 -56.5t-153 -153.5t-56.5 -211t56.5 -210.5t153 -152.5t211 -56zM585 1181h300q57 0 113 11q-5 44 15.5 84.5t56.5 63.5q-42 28 -61.5 75.5t-4.5 98.5q20 65 53 123q33 57 80 109
q38 40 92.5 46.5t96.5 -18.5v4q0 46 26 86h-1254q-40 0 -69 -29t-29 -69q0 -119 46.5 -227.5t125 -187t186.5 -124.5t227 -46zM1431 899q0 -17 10.5 -30.5t26.5 -17.5q53 -12 107.5 -12t106.5 12q17 4 27 17.5t10 30.5v59q0 19 11 35.5t28 25.5q38 20 71 2l45 -26
q15 -9 32 -7t29 15q39 42 66 89q27 46 44 102q6 16 -0.5 32t-22.5 25l-48 27q-32 18 -32 61q0 42 32 60l48 27q15 9 21.5 24.5t1.5 32.5q-17 54 -44 101q-28 50 -66 90q-11 13 -28.5 14.5t-32.5 -7.5l-45 -26q-33 -18 -71 2q-17 9 -28 26t-11 36v58q0 17 -10 31t-27 18
q-48 11 -106.5 11t-107.5 -11q-16 -4 -26.5 -18t-10.5 -31v-58q0 -39 -39 -62q-37 -21 -72 -2l-44 26q-15 9 -32 7t-29 -15q-37 -41 -66 -90q-27 -47 -44 -101q-5 -16 2 -32t22 -25l45 -26q16 -9 25 -25.5t9 -35.5t-9 -36t-25 -26l-45 -26q-15 -9 -21.5 -24.5t-2.5 -31.5
q19 -59 44 -103q26 -44 66 -88q12 -13 29 -15t32 7l44 25q35 19 72 -1q17 -9 28 -26.5t11 -36.5v-57zM1733 1338v-7q0 -65 -46 -112t-111.5 -47t-112 47t-46.5 112v7v7q0 65 46.5 111.5t112 46.5t111.5 -46.5t46 -111.5v-7z" />
</svg>