<svg xmlns="http://www.w3.org/2000/svg" xmlns:xlink="http://www.w3.org/1999/xlink" version="1.1" viewBox="-10 0 2058 2048">
   <path fill="currentColor"
d="M988 220q15 -15 35.5 -15t35.5 15l206 204q25 25 11 57q-13 31 -48 31h-128v77h103q32 0 54.5 22.5t22.5 53.5t-23 54t-54 23h-103v77v6q186 28 311 171.5t125 334.5q0 139 -68.5 257t-186.5 186.5t-257 68.5t-257 -68.5t-186.5 -186.5t-68.5 -257q0 -191 125 -335
t311 -171q0 -1 -0.5 -3t-0.5 -3v-77h-102q-31 0 -54 -23t-23 -54t22.5 -53.5t54.5 -22.5h102v-77h-128q-34 0 -47 -31q-14 -32 11 -57zM1331 1331q0 -127 -89.5 -217t-217.5 -90t-218 90t-90 217t90 217t218 90t217.5 -90t89.5 -217z" />
</svg>