<svg xmlns="http://www.w3.org/2000/svg" xmlns:xlink="http://www.w3.org/1999/xlink" version="1.1" viewBox="-10 0 2068 2048">
   <path fill="currentColor"
d="M1232 1072h-2l-226 626h930q47 0 80.5 33.5t33.5 81t-33.5 80.5t-80.5 33h-1820q-47 0 -80.5 -33t-33.5 -80.5t33.5 -81t80.5 -33.5h646l258 -704zM1662 1070q105 -292 94 -594v-22q-2 -44 -12 -88q152 143 228.5 338t59.5 404q-5 50 -49 75.5t-93 8.5l-240 -88z
M1642 458l2 22q8 282 -90 552l-12 32l-748 -272l12 -32q97 -267 288 -480l14 -16q62 -70 153 -93t179 9q1 0 4 1.5t4 2.5q86 33 138.5 108t55.5 166zM382 506q124 -174 313 -275.5t401 -108.5q-36 26 -72 66l-14 16q-206 229 -310 516l-12 34l-252 -92q-49 -18 -66 -65.5
t12 -90.5z" />
</svg>