<svg xmlns="http://www.w3.org/2000/svg" xmlns:xlink="http://www.w3.org/1999/xlink" version="1.1" viewBox="-10 0 2068 2048">
   <path fill="currentColor"
d="M2035 470l-457 -458q-34 -26 -68 0l-88 93q-12 12 -12 29q0 22 12 34l206 201l-59 59l-205 -202q-30 -37 -63 0l-76 76q-12 12 -12 33q0 18 12 30l122 126l-59 54l-122 -121q-32 -29 -62 0l-80 79q-13 13 -13 30q0 20 13 33l205 206l-58 59l-206 -206q-33 -30 -63 0
l-75 75q-17 17 -17 34t17 34l121 121l-58 59l-122 -122q-34 -33 -67 0l-76 76q-12 12 -12 34q0 17 12 29l206 206l-59 58l-205 -205q-30 -33 -63 0l-80 79q-30 30 0 63l126 122l-63 59l-122 -122q-13 -13 -29 -13q-21 0 -34 13l-75 76q-37 33 0 63l201 205l-59 59l-201 -206
q-12 -12 -33 -12q-18 0 -30 12l-92 88q-26 34 0 68l457 457q13 13 34 13q15 0 33 -13l1498 -1498q26 -33 0 -67z" />
</svg>