<svg xmlns="http://www.w3.org/2000/svg" xmlns:xlink="http://www.w3.org/1999/xlink" version="1.1" viewBox="-10 0 2068 2048">
   <path fill="currentColor"
d="M1114 38l256 256q38 38 38 91t-38 90.5t-91 37.5t-90 -37l-38 -38v458h460l-38 -36q-37 -38 -37 -91t37 -90.5t90 -37.5t90 37l257 256q38 37 38 90.5t-38 91.5l-257 256q-37 37 -90 37t-90 -37.5t-37 -90.5t37 -91l38 -38h-460v460l38 -38q37 -37 90 -37t91 37.5
t38 90.5t-38 91l-256 254q-38 38 -91 38t-90 -38l-256 -254q-37 -38 -37 -91t37 -90.5t90 -37.5t91 37l38 38v-460h-458l36 38q38 37 38 90.5t-38 91t-90 37.5t-90 -37l-256 -258q-38 -37 -38 -90t38 -90l256 -256q38 -37 90 -37t90 37.5t38 90.5t-38 91l-36 36h458v-458
l-38 38q-38 37 -91 37t-90 -37.5t-37 -90.5t37 -91l256 -256q37 -38 90 -38t91 38z" />
</svg>