<svg xmlns="http://www.w3.org/2000/svg" xmlns:xlink="http://www.w3.org/1999/xlink" version="1.1" viewBox="-10 0 2068 2048">
   <path fill="currentColor"
d="M342 228h1364q93 0 171.5 45t124.5 124t46 171v228q0 94 -67.5 161t-160.5 67h-1592q-94 0 -161 -67t-67 -161v-228q0 -92 45.5 -171t124.5 -124t172 -45zM796.5 454q-70.5 0 -120.5 50.5t-50 121.5v198q0 36 24.5 61t59.5 25h172q36 0 60 -25t24 -61v-198
q0 -71 -49.5 -121.5t-120 -50.5zM1080 626v198q0 36 25 61t61 25h170q36 0 61 -25t25 -61v-198q0 -71 -50 -121.5t-120.5 -50.5t-121 50.5t-50.5 121.5zM341.5 568q-70.5 0 -121 50t-50.5 120v86q0 36 25.5 61t60.5 25h170q36 0 61 -25t25 -61v-86q0 -70 -50 -120
t-120.5 -50zM1536 738v86q0 36 25 61t61 25h170q35 0 60.5 -25t25.5 -61v-86q0 -70 -51 -120t-121.5 -50t-120 50t-49.5 120zM342 1820q-93 0 -172 -45.5t-124.5 -124t-45.5 -172.5v-114q0 -93 67 -159.5t161 -66.5h1592q93 0 160.5 66.5t67.5 159.5v114q0 93 -46 172
t-125 124.5t-171 45.5h-1364zM341.5 1592q70.5 0 120.5 -50t50 -120v-86q0 -35 -25 -59.5t-61 -24.5h-170q-35 0 -60.5 24.5t-25.5 59.5v86q0 70 50.5 120t121 50zM626 1422q0 70 50 120t120.5 50t120 -50t49.5 -120v-86q0 -35 -24 -59.5t-60 -24.5h-172q-35 0 -59.5 24.5
t-24.5 59.5v86zM1251.5 1592q70.5 0 120.5 -50t50 -120v-86q0 -35 -25 -59.5t-61 -24.5h-170q-36 0 -61 24.5t-25 59.5v86q0 70 50.5 120t121 50zM1536 1422q0 70 49.5 120t120 50t121.5 -50t51 -120v-86q0 -35 -25.5 -59.5t-60.5 -24.5h-170q-36 0 -61 24.5t-25 59.5v86z
" />
</svg>