<svg xmlns="http://www.w3.org/2000/svg" xmlns:xlink="http://www.w3.org/1999/xlink" version="1.1" viewBox="-10 0 2068 2048">
   <path fill="currentColor"
d="M0 0q1245 0 1595 620q175 311 117 792q-6 52 -20 141q-15 95 -14 121l370 374h-120l-322 -326q-25 3 -75.5 12t-94.5 16.5t-108.5 13t-123.5 4.5t-133 -13t-143 -35t-147.5 -65.5t-152.5 -101.5q-77 -60 -136.5 -127.5t-102 -134.5t-79 -154t-61.5 -168.5t-54.5 -197
t-53.5 -221t-62.5 -258.5t-78.5 -292zM364 210q-46 -22 -72.5 -31.5t-31.5 -7t-0.5 10.5t18.5 20t27.5 23.5t24.5 19.5l10 8q42 29 80.5 63t68 64.5t61 73.5t52 73.5t49.5 82t44.5 81t45.5 86.5q8 15 11 23q35 66 67 123t75 126.5t85 127.5t94 119.5t104 110t113 90.5
t122 69q177 76 176 69q0 -4 -51 -39q-63 -42 -97 -68q-61 -45 -142.5 -154.5t-148 -220t-125.5 -221.5q-2 -5 -7 -15q-41 -77 -62.5 -116t-63.5 -109t-74 -112t-83 -100.5t-102.5 -100t-120.5 -87t-147 -82.5z" />
</svg>