<svg xmlns="http://www.w3.org/2000/svg" xmlns:xlink="http://www.w3.org/1999/xlink" version="1.1" viewBox="-10 0 2058 2048">
   <path fill="currentColor"
d="M578 960h-66q-52 0 -90 -38t-38 -90.5t38 -90.5t90 -38h114q58 -168 177.5 -298t285.5 -203.5t351 -73.5h96q52 0 90 38t38 90t-38 90t-90 38h-96q-172 0 -314.5 86.5t-221.5 232.5h504q52 0 90 38t38 90.5t-38 90.5t-90 38h-576v31v64v33h576q52 0 90 37.5t38 90t-38 90
t-90 37.5h-504q79 146 221.5 233.5t314.5 87.5h96q52 0 90 38t38 90t-38 89.5t-90 37.5h-96q-185 0 -351 -74t-285.5 -204t-177.5 -298h-114q-52 0 -90 -37.5t-38 -90t38 -90t90 -37.5h66q0 -6 -1 -17t-1 -16v-64q0 -5 1 -15t1 -16z" />
</svg>