<svg xmlns="http://www.w3.org/2000/svg" xmlns:xlink="http://www.w3.org/1999/xlink" version="1.1" viewBox="-10 0 2058 2048">
   <path fill="currentColor"
d="M1495 447q-137 -96 -186 -228q-33 -74 -87 -103q0 -6 8 -21t8 -27q0 -13 -8 -29q-10 -20 -33 -39q-42 33 -58 58q-81 -30 -195 -9q-115 21 -203 83q-152 115 -205 388q-52 268 -17 520q34 249 110 353q-4 4 -4 16q-37 0 -46 38q-5 12 6 27q10 14 19 14v12
q-90 151 -95 224q-12 121 54 208q-4 4 -4 16q-25 16 -34 38l-8 62h858q0 -43 -8 -62q-17 -38 -34 -38q0 -2 -2 -8t-2 -8q66 -87 54 -191q-5 -100 -87 -241l-4 -12h8q8 0 19 -12t6 -29q-5 -38 -41 -38q0 -12 -4 -16l37 -299q-128 -98 -220 -257q-92 -158 -87 -311
q0 -29 17 -31q8 -1 12 4.5t4 18.5q0 51 36 95q34 42 109 21q113 -29 170 -4q27 10 52 29q22 17 44 29q41 -42 70 -100q49 -91 -29 -141z" />
</svg>