<svg xmlns="http://www.w3.org/2000/svg" xmlns:xlink="http://www.w3.org/1999/xlink" version="1.1" viewBox="-10 0 2068 2048">
   <path fill="currentColor"
d="M116 1032v-4q-12 -168 56.5 -321t139.5 -224l76 -71q46 -38 8 -80q-32 -51 -76 -8q-16 12 -44 38q-28 27 -80 94q-62 78 -100 146q-42 76 -72 193q-30 115 -22 237q0 47 14 138q11 83 90 256q77 170 210 297q23 13 38 13q16 0 42 -17q34 -43 -4 -80q-123 -111 -190 -270
q-68 -159 -78 -230q-8 -69 -8 -107zM1728 332q-42 -42 -76 9q-37 42 8 79q47 42 82 80q47 50 126 209q77 157 64 327v4q0 45 -8 107q-8 67 -78 230q-68 162 -190 271q-36 37 -4 79q27 17 42 17t38 -13q135 -128 212 -297q78 -173 90 -256q12 -84 12 -138q8 -122 -22 -237
q-29 -115 -72 -192q-43 -76 -98 -147q-50 -64 -82 -94q-28 -26 -44 -38zM1526 1501h-946q-58 0 -58 54q0 59 58 59h946q60 0 60 -59q0 -54 -60 -54zM974 1396q-133 -118 -122 -234q10 -57 86 -120q78 -64 82 -115q9 -24 -14 -50t-12 -38q59 0 78.5 42t15.5 90q-5 49 14 88
q19 40 74 36q29 -5 22 -53q-6 -50 -2 -56q104 62 66 209q-4 34 -54 82t-46 77q102 -17 162 -115q61 -101 66 -214q6 -116 -48 -222q-53 -107 -154 -144q0 9 18 52q19 41 18 59q-2 13 -28 48q-46 -5 -62 -38q-18 -35 -20 -90q-1 -57 -6 -73q-58 -219 -288 -214q88 74 88 168
q0 90 -52 163q-49 70 -104 166q-54 95 -58 161q-5 122 72 212q79 90 208 123z" />
</svg>