<svg xmlns="http://www.w3.org/2000/svg" xmlns:xlink="http://www.w3.org/1999/xlink" version="1.1" viewBox="-10 0 2058 2048">
   <path fill="currentColor"
d="M1120 96v128h128q40 0 68 28t28 68t-28 68t-68 28h-128v160h562q98 0 168 70t70 168q0 51 -20 95l-216 499h-210l250 -575q4 -8 4 -19q0 -19 -13.5 -32t-32.5 -13h-658h-658q-19 0 -32.5 13t-13.5 32q0 5 4 19l250 575h-210l-216 -499q-20 -44 -20 -95q0 -98 70 -168
t168 -70h562v-160h-128q-39 0 -67.5 -28t-28.5 -68t28.5 -68t67.5 -28h128v-128q0 -40 28.5 -68t68 -28t67.5 28t28 68zM534 1729l-66 128h1114l-68 -128h-980zM1668 1605l106 205q18 36 18 75q0 67 -48 115t-116 48h-1208q-68 0 -116 -48t-48 -115q0 -41 18 -75l106 -205
q17 -32 48 -50.5t66 -18.5h1060q35 0 66 18.5t48 50.5z" />
</svg>