<svg xmlns="http://www.w3.org/2000/svg" xmlns:xlink="http://www.w3.org/1999/xlink" version="1.1" viewBox="-10 0 2068 2048">
   <path fill="currentColor"
d="M732 146v438q0 60 -43.5 104t-102.5 44h-440q-59 0 -102.5 -44t-43.5 -104t43 -103t103 -43h292v-292q0 -60 43.5 -103t104 -43t103.5 43t43 103zM146 1316h440q60 0 103 43t43 103v440q0 60 -43 103t-103.5 43t-104 -43t-43.5 -103v-294h-292q-60 0 -103 -43t-43 -103
t43 -103t103 -43zM1610 146v292h292q60 0 103 43t43 103t-43.5 104t-102.5 44h-438q-60 0 -104 -44t-44 -104v-438q0 -60 43.5 -103t104 -43t103.5 43t43 103zM1464 1316h438q60 0 103 43t43 103t-43 103t-103 43h-292v294q0 60 -43 103t-103.5 43t-104 -43t-43.5 -103v-440
q0 -60 43.5 -103t104.5 -43z" />
</svg>