<svg xmlns="http://www.w3.org/2000/svg" xmlns:xlink="http://www.w3.org/1999/xlink" version="1.1" viewBox="-10 0 2068 2048">
   <path fill="currentColor"
d="M0 512q0 -85 60 -145t144.5 -60t145 60t60.5 145t-60.5 144.5t-145 59.5t-144.5 -59.5t-60 -144.5zM716.5 1075q21.5 0 36.5 -14.5t15 -36.5t-15 -36.5t-36.5 -14.5t-36 14.5t-14.5 36.5t14.5 36.5t36 14.5zM716.5 819q84.5 0 145 60t60.5 145t-60.5 145t-145 60
t-144.5 -60t-60 -145t60 -145t144.5 -60zM256 1536q0 -22 -15 -36.5t-36.5 -14.5t-36 14.5t-14.5 36.5t14.5 36.5t36 14.5t36.5 -14.5t15 -36.5zM0 1536q0 -85 60 -145t144.5 -60t145 60t60.5 145t-60.5 145t-145 60t-144.5 -60t-60 -145zM768 1536q0 -22 -15 -36.5
t-36.5 -14.5t-36 14.5t-14.5 36.5t14.5 36.5t36 14.5t36.5 -14.5t15 -36.5zM512 1536q0 -85 60 -145t144.5 -60t145 60t60.5 145t-60.5 145t-145 60t-144.5 -60t-60 -145zM204.5 819q84.5 0 145 60t60.5 145t-60.5 145t-145 60t-144.5 -60t-60 -145t60 -145t144.5 -60z
M716.5 307q84.5 0 145 60t60.5 145t-60.5 144.5t-145 59.5t-144.5 -59.5t-60 -144.5t60 -145t144.5 -60zM1126 512q0 -85 60.5 -145t145 -60t144.5 60t60 145t-60 144.5t-144.5 59.5t-145 -59.5t-60.5 -144.5zM1894 512q0 -22 -14.5 -36.5t-36 -14.5t-36.5 14.5t-15 36.5
t15 36.5t36.5 14.5t36 -14.5t14.5 -36.5zM1638 512q0 -85 60.5 -145t145 -60t144.5 60t60 145t-60 144.5t-144.5 59.5t-145 -59.5t-60.5 -144.5zM1843.5 1075q21.5 0 36 -14.5t14.5 -36.5t-14.5 -36.5t-36 -14.5t-36.5 14.5t-15 36.5t15 36.5t36.5 14.5zM1843.5 819
q84.5 0 144.5 60t60 145t-60 145t-144.5 60t-145 -60t-60.5 -145t60.5 -145t145 -60zM1894 1536q0 -22 -14.5 -36.5t-36 -14.5t-36.5 14.5t-15 36.5t15 36.5t36.5 14.5t36 -14.5t14.5 -36.5zM1638 1536q0 -85 60.5 -145t145 -60t144.5 60t60 145t-60 145t-144.5 60t-145 -60
t-60.5 -145zM1331.5 1075q21.5 0 36 -14.5t14.5 -36.5t-14.5 -36.5t-36 -14.5t-36.5 14.5t-15 36.5t15 36.5t36.5 14.5zM1331.5 819q84.5 0 144.5 60t60 145t-60 145t-144.5 60t-145 -60t-60.5 -145t60.5 -145t145 -60zM1382 1536q0 -22 -14.5 -36.5t-36 -14.5t-36.5 14.5
t-15 36.5t15 36.5t36.5 14.5t36 -14.5t14.5 -36.5zM1126 1536q0 -85 60.5 -145t145 -60t144.5 60t60 145t-60 145t-144.5 60t-145 -60t-60.5 -145z" />
</svg>