<svg xmlns="http://www.w3.org/2000/svg" xmlns:xlink="http://www.w3.org/1999/xlink" version="1.1" viewBox="-10 0 2068 2048">
   <path fill="currentColor"
d="M220 1756q0 30 21 51.5t51 21.5h1464q30 0 51 -21.5t21 -51.5v-1464q0 -30 -21 -51.5t-51 -21.5h-1464q-30 0 -51 21.5t-21 51.5v1464zM292 2048q-120 0 -206 -85.5t-86 -206.5v-1464q0 -121 86 -206.5t206 -85.5h1464q120 0 206 85.5t86 206.5v1464q0 121 -86 206.5
t-206 85.5h-1464zM586 1024q0 -48 34 -81l512 -475q24 -22 56.5 -27.5t61.5 7.5q30 13 48 40.5t18 59.5v951q0 32 -18 60t-48 41q-29 13 -61.5 7.5t-56.5 -27.5l-512 -476q-34 -33 -34 -80z" />
</svg>