<svg xmlns="http://www.w3.org/2000/svg" xmlns:xlink="http://www.w3.org/1999/xlink" version="1.1" viewBox="-10 0 2058 2048">
   <path fill="currentColor"
d="M972 23q21 -23 52 -23q33 0 54 23l594 655q24 27 24 61q0 38 -27 66t-65 28h-100l294 293q26 27 26 64t-26.5 63.5t-63.5 26.5h-134l298 359q22 25 22 59q0 39 -28 67t-66 28h-674v127q0 52 -37.5 90t-90 38t-90.5 -38t-38 -90v-127h-674q-38 0 -66 -28t-28 -67
q0 -32 22 -59l298 -359h-134q-37 0 -63.5 -26t-26.5 -64t26 -64l294 -293h-100q-38 0 -65 -28t-27 -66q0 -34 24 -61z" />
</svg>