<svg xmlns="http://www.w3.org/2000/svg" xmlns:xlink="http://www.w3.org/1999/xlink" version="1.1" viewBox="-10 0 2058 2048">
   <path fill="currentColor"
d="M426 1614h12h153h3q9 0 11 8q39 196 251 256q158 44 325 7q198 -42 272 -242q43 -116 45 -266q0 -188 -2 -211l-3 -1q-1 4 -4.5 9t-5.5 8q-66 128 -176.5 200t-244.5 77q-207 8 -358.5 -68.5t-237.5 -239t-92 -397.5q-3 -152 33 -279q63 -219 222.5 -346t392.5 -129
q88 0 167 25.5t136.5 67.5t98 90t63.5 98q4 8 9 7v-246h178v1329q0 97 -13 181.5t-44 161.5t-77.5 136.5t-117 103.5t-160.5 66q-107 26 -219.5 27t-220 -22.5t-199 -83t-145.5 -149.5q-46 -74 -52 -178zM1011 145q-64 0 -125.5 19t-119 62t-102 104.5t-74.5 152t-38 198.5
q-6 92 7 179t45 167.5t92 145.5t142 103q58 27 130.5 36t155 -8.5t147.5 -62.5q92 -64 148 -168t71.5 -217.5t-0.5 -231.5q-15 -108 -51.5 -195t-94.5 -151t-142.5 -98.5t-190.5 -34.5z" />
</svg>