<svg xmlns="http://www.w3.org/2000/svg" xmlns:xlink="http://www.w3.org/1999/xlink" version="1.1" viewBox="-10 0 2068 2048">
   <path fill="currentColor"
d="M1876 1115l172 193h-206l-72 -79l-70 79h-680v-37q-19 28 -49 43.5t-63 15.5q-77 0 -130 -53t-62 -129h-274q0 36 26.5 60t62 21.5t57.5 -34.5h134q-21 52 -61 85.5t-85.5 43.5t-94 1.5t-87 -34t-63.5 -71t-25 -101.5q0 -34 8 -59h-156v248h-158v-589h348v131h-190v84
h174v77q23 -41 65 -67.5t90.5 -32t95.5 6t85 47.5t54 91q19 -63 68 -103.5t116 -40.5q73 0 114 48v-242h484v154h-178v51h378l72 79l70 -79h198zM446 1062h148q-5 -29 -26.5 -45.5t-46 -17t-46.5 16t-29 46.5zM936 1218q32 0 53 -20.5t25 -50t-1 -59.5t-26 -50.5t-51 -20.5
q-38 0 -60.5 31.5t-22.5 69t22 69t61 31.5zM1474 1280v-95h-180v-143h180v-90h-178v-108h180v-97h-304v533h302zM1326 1152h180v146l162 -182l-162 -183v141h-180v78zM1770 1185l84 95h130l-148 -165l146 -163h-124l-82 94l-84 -94h-128l146 164l-146 164h122z" />
</svg>