<svg xmlns="http://www.w3.org/2000/svg" xmlns:xlink="http://www.w3.org/1999/xlink" version="1.1" viewBox="-10 0 2068 2048">
   <path fill="currentColor"
d="M134 903q54 0 75.5 9.5t32.5 37.5h2v-73q0 -27 -12.5 -38t-43.5 -11q-28 0 -37 7.5t-11 32.5h-124q1 -34 4.5 -50t13.5 -28q18 -21 50 -29t98 -8q79 0 117.5 13.5t54.5 46.5q14 30 14 76v245h-124l6 -62h-4q-13 38 -37 51.5t-77 13.5q-72 0 -102 -27t-30 -92
q0 -61 31.5 -88t102.5 -27zM190 1057q32 0 43 -8.5t11 -33.5q0 -22 -13 -29.5t-49 -7.5q-32 0 -45 8t-13 30q0 25 13 33t53 8zM440 754h122l-6 66h4q21 -41 44.5 -54t75.5 -13q68 0 100 29q23 21 32.5 54.5t9.5 99.5q0 72 -9 109t-31 60q-30 32 -106 32q-49 0 -72.5 -14.5
t-35.5 -52.5h-2v225h-126v-541zM698 948q0 -65 -12.5 -84.5t-53.5 -19.5t-53.5 17.5t-12.5 74.5q0 67 12.5 87t55.5 20q39 0 51.5 -18.5t12.5 -76.5zM882 754h124l-6 66h4q21 -41 44.5 -54t75.5 -13q69 0 100 29q24 21 32 54t8 100q0 72 -8 109t-30 60q-30 32 -106 32
q-49 0 -73 -15t-35 -52h-2v225h-128v-541zM1142 948q0 -66 -12.5 -85t-53.5 -19t-53.5 17.5t-12.5 74.5q0 67 12.5 87t53.5 20q40 0 53 -18.5t13 -76.5zM1314 936q0 -62 9 -94.5t31 -51.5q39 -37 144 -37q103 0 140.5 38t37.5 141v35h-242v15q0 40 13.5 55t50.5 15
q34 0 46 -9t12 -35h120v7q0 53 -22 80q-17 23 -50 33t-92 10q-67 0 -104 -9t-58 -31q-21 -20 -28.5 -55t-7.5 -107zM1558 899v-12q0 -29 -12 -38t-52 -9q-34 0 -44.5 9t-13.5 39v11h122zM1736 754h122l-4 63h2q16 -36 37 -50t57 -14q52 0 74 30q14 18 19 40.5t5 67.5v30
h-112v-13q0 -37 -6 -49.5t-26 -12.5q-30 0 -42 30q-4 13 -4 39v218h-122v-379z" />
</svg>