<svg xmlns="http://www.w3.org/2000/svg" xmlns:xlink="http://www.w3.org/1999/xlink" version="1.1" viewBox="-10 0 2068 2048">
   <path fill="currentColor"
d="M866 1248l-80 -120q-13 -20 4 -38q8 -7 19 -8t19 6l112 72q6 4 12 1.5t6 -9.5l36 -1062q0 -13 9 -21.5t21.5 -8.5t21.5 8.5t10 21.5l36 1062q0 6 6 9.5t12 0.5l110 -74q10 -6 20.5 -5t18 8.5t8.5 18t-5 20.5l-80 118q-3 6 -0.5 12t8.5 6l142 30q11 2 17.5 10t6.5 18.5
t-6.5 19t-17.5 10.5l-142 28q-6 1 -8.5 7.5t0.5 12.5l80 120q6 9 5 19.5t-8.5 18t-18 8.5t-20.5 -4l-98 -66q-6 -4 -13 -1t-7 11l8 230q112 -20 202 -87t142 -168.5t52 -218.5q0 -103 -40.5 -194t-113.5 -158q-20 -18 -18.5 -47.5t22.5 -44.5q98 -76 154 -188.5t56 -239.5
q0 -95 -30 -182q-7 -17 -1 -37.5t19 -33.5t30 -18.5t32 7.5q153 108 258.5 264t147.5 340q4 13 -6 22l-106 108q-12 11 -6 25.5t22 14.5h98q9 0 16.5 7t7.5 17v36q0 99 -18 194q-1 7 -6 12l-176 176q-11 12 -4.5 27t22.5 15h54q13 0 20 10.5t2 21.5q-84 170 -221.5 298
t-318 200t-378 72t-378 -72t-318 -200t-220.5 -296q-6 -12 1.5 -23t20.5 -11h54q15 0 21.5 -15t-5.5 -27l-174 -176q-6 -5 -8 -12q-18 -92 -18 -192q0 -6 1 -19t1 -19q0 -9 7 -15.5t17 -6.5h96q16 0 23 -15.5t-5 -26.5l-106 -108q-10 -9 -6 -22q42 -184 147 -340.5
t257 -263.5q16 -12 34 -7.5t29.5 18.5t18.5 33.5t0 37.5q-32 87 -32 182q0 127 56.5 239.5t153.5 188.5q22 15 23 44.5t-19 47.5q-73 67 -113.5 158t-40.5 194q0 117 52.5 218.5t142.5 168.5t201 87l8 -230q0 -8 -6 -11t-12 1l-100 66q-9 5 -19.5 4t-18 -8.5t-8.5 -18
t4 -19.5l80 -120q4 -6 1.5 -12.5t-9.5 -7.5l-140 -28q-11 -2 -18.5 -10t-7.5 -18.5t7.5 -18.5t18.5 -11l140 -28q7 -1 9.5 -7t-1.5 -11v-2z" />
</svg>