<svg xmlns="http://www.w3.org/2000/svg" xmlns:xlink="http://www.w3.org/1999/xlink" version="1.1" viewBox="-10 0 2058 2048">
   <path fill="currentColor"
d="M1024 64q5 0 9 -0.5t8 -1.5t7 -1.5t7 -2.5l6 -3t6.5 -4t5.5 -3.5t6.5 -4t6.5 -4.5q16 -12 29.5 -19t40 -13.5t60.5 -6.5q43 0 83.5 29.5t73.5 82t59 112.5t48 134q146 27 229 67.5t83 86.5q0 42 -69 79.5t-189 64.5l2 48q0 97 -38 192h242q21 0 36.5 16t15.5 38
q0 2 -4 20l-156 387q134 99 211 249.5t77 322.5q0 49 -35 84t-85 35h-1552q-50 0 -85 -35t-35 -84q0 -172 77 -322.5t211 -249.5l-156 -387q-4 -9 -4 -20q0 -22 16.5 -38t37.5 -16h240q-38 -95 -38 -192q0 -9 1.5 -26t2.5 -22q-121 -27 -190.5 -64.5t-69.5 -79.5
q0 -46 83.5 -86.5t228.5 -67.5q23 -74 49 -134t58.5 -112.5t73 -82t83.5 -29.5q34 0 60.5 6.5t40 13.5t29.5 19q35 25 62 25zM1248 896q67 0 113.5 -46.5t46.5 -113.5v-57q-176 25 -383.5 25t-384.5 -25v57q0 67 47 113.5t113 46.5h50q49 0 89 -29t55 -76q7 -21 30 -21
t30 21q15 47 55 76t89 29h50zM896 1280l-256 -128l192 768l128 -512zM1408 1152l-256 128l-64 128l128 512z" />
</svg>