<svg xmlns="http://www.w3.org/2000/svg" xmlns:xlink="http://www.w3.org/1999/xlink" version="1.1" viewBox="-10 0 2068 2048">
   <path fill="currentColor"
d="M1031 1011q-2 2 -74 68t-143 131.5t-72 67.5l-296 107q-25 9 -22 29q0 2 0.5 20.5t1 40t1.5 28.5l-2 2q-363 117 -366 117q-55 19 -58 13q-2 -4 8 -18q1 -3 188 -188t384.5 -380t205.5 -203q18 -19 38 -31.5t31 -15.5l11 -2l164 211v3zM1542 1396q-10 -12 -382.5 -490.5
t-383.5 -491.5q-16 -20 -18.5 -31.5t10.5 -16t25.5 -5.5t41.5 -1h3q15 0 185 -0.5t187 -0.5q60 0 79.5 6t42.5 34q5 6 331 397t332 398q1 1 3 4q9 12 14 19t11 18.5t4.5 19.5t-9.5 13q-7 3 -188.5 79t-188.5 78q-20 8 -31.5 10t-29.5 -6.5t-38 -32.5zM2031 1400q14 3 16 10
t-10 17q-8 5 -203.5 126t-199.5 123q-14 8 -30.5 11.5t-38 1.5t-33.5 -4t-38.5 -7.5t-30.5 -6.5q-33 -7 -506 -113t-479 -108q-1 0 -2 -1q-12 -4 -13 -11q0 -3 0.5 -5.5t3 -4.5t5 -3.5t6.5 -3t6.5 -2.5t7 -2.5l7.5 -2.5q4 -2 122.5 -45t234.5 -85t123 -45q13 -6 46 -9
q10 -1 97.5 12t111.5 17l183 236q29 34 55.5 48t61.5 -1l376 -164q99 19 121 22z" />
</svg>