<svg xmlns="http://www.w3.org/2000/svg" xmlns:xlink="http://www.w3.org/1999/xlink" version="1.1" viewBox="-10 0 2068 2048">
   <path fill="currentColor"
d="M1023 108q47 0 81.5 33.5t34.5 80.5v63q175 18 332.5 90.5t277 183t198.5 259t100 313.5q3 20 -7 36t-26 23.5t-34.5 4t-32.5 -18.5q-37 -42 -103.5 -68.5t-133.5 -26.5q-103 0 -181.5 65.5t-98.5 164.5q-5 24 -22.5 40t-40.5 16t-40.5 -16t-22.5 -40q-20 -99 -99 -164.5
t-182 -65.5t-181.5 65.5t-98.5 164.5q-5 24 -22.5 40t-40.5 16t-40.5 -16t-22.5 -40q-20 -99 -99 -164.5t-182 -65.5q-67 0 -132.5 27t-103.5 69q-14 15 -32.5 18t-34 -4t-25.5 -23.5t-7 -36.5q21 -165 100 -313.5t198.5 -259t277 -183t332.5 -90.5v-63q0 -47 33.5 -80.5
t80.5 -33.5zM1023 1196q68 0 116 43v411q0 121 -85.5 205.5t-206.5 84.5q-83 0 -153.5 -43.5t-107.5 -117.5l-8 -16q-21 -42 -6 -87.5t57 -66.5t87.5 -6t66.5 57l8 17q8 16 23.5 25.5t32.5 9.5q26 0 44 -18t18 -44v-411q48 -43 114 -43z" />
</svg>