<svg xmlns="http://www.w3.org/2000/svg" xmlns:xlink="http://www.w3.org/1999/xlink" version="1.1" viewBox="-10 0 2068 2048">
   <path fill="currentColor"
d="M1842 0h-1636q-84 0 -144 60q-62 61 -62 145v1637q0 84 61 145t145 61h1636q84 0 146 -61q60 -60 60 -145v-1637q0 -85 -60 -145t-146 -60zM1436 717v101q0 105 100 105q104 0 104 101v306q0 130 -90 220q-90 91 -220 91h-612q-130 0 -220 -91q-90 -90 -90 -220v-718
q0 -130 90 -218q89 -88 220 -88h408q130 0 220 88t90 218v105zM818 818h270q46 0 73 -27t27 -74q0 -45 -27.5 -75t-72.5 -30h-270q-100 0 -100 105q0 101 100 101zM1230 1124h-412q-100 0 -100 105q0 101 100 101h412q46 0 73 -27t27 -74q0 -45 -27 -75t-73 -30z" />
</svg>