<svg xmlns="http://www.w3.org/2000/svg" xmlns:xlink="http://www.w3.org/1999/xlink" version="1.1" viewBox="-10 0 2068 2048">
   <path fill="currentColor"
d="M1024.5 1234q118.5 0 197.5 -82q80 -83 80 -196q0 -115 -80 -198q-80 -82 -197.5 -82t-196.5 82q-80 83 -80 198q0 113 80 196q78 82 196.5 82zM1024 1356q-106 0 -202 -54l-310 540q239 138 512.5 138t511.5 -138l-310 -540q-96 54 -202 54zM1422 956h626
q0 -280 -138 -518q-138 -235 -374 -370l-310 540q196 122 196 348zM822 608l-310 -540q-235 135 -372 370q-140 239 -140 518h626q0 -226 196 -348z" />
</svg>