<svg xmlns="http://www.w3.org/2000/svg" xmlns:xlink="http://www.w3.org/1999/xlink" version="1.1" viewBox="-10 0 2068 2048">
   <path fill="currentColor"
d="M1663 832q0 273 -160 491l507 505q38 38 38 91.5t-37.5 91t-91 37.5t-91.5 -38l-506 -507q-220 161 -490 161q-113 0 -220.5 -30t-199 -83.5t-168.5 -130.5t-130.5 -168t-83.5 -199t-30 -221t30 -220.5t83.5 -199t130.5 -168.5t168.5 -130.5t199 -83.5t220.5 -30t221 30
t199 83.5t167.5 130.5t130.5 168.5t83.5 199t29.5 220.5zM735 1184q0 40 28.5 67.5t68.5 27.5t68 -27.5t28 -67.5v-257h255q40 0 68.5 -27.5t28.5 -67.5t-28.5 -68.5t-68.5 -28.5h-255v-255q0 -40 -28 -68.5t-68 -28.5t-68.5 28.5t-28.5 68.5v255h-255q-40 0 -68.5 28.5
t-28.5 68.5t28.5 67.5t68.5 27.5h255v257z" />
</svg>