<svg xmlns="http://www.w3.org/2000/svg" xmlns:xlink="http://www.w3.org/1999/xlink" version="1.1" viewBox="-10 0 2067 2048">
   <path fill="currentColor"
d="M1022 0q215 0 406 80.5t326.5 217.5t214 326.5t78.5 399.5q0 178 -55 339t-152 284.5t-225.5 214.5t-280.5 138.5t-312 47.5q-204 0 -392 -80.5t-326 -216.5t-220.5 -326.5t-82.5 -400.5q0 -163 49 -317t141 -281t216 -223t283 -149.5t332 -53.5zM1026 184
q-178 0 -336 70.5t-268 186.5t-173.5 268.5t-63.5 314.5q0 134 42.5 260.5t120.5 230t181 182t231.5 121.5t265.5 43q106 0 210 -27.5t196.5 -77.5t171.5 -125.5t136.5 -166.5t90 -204t32.5 -236q0 -173 -66 -329t-178 -268t-266.5 -177.5t-326.5 -65.5zM1040 404
q8 -1 17.5 1.5t20 14t10.5 31.5l27 443l20 -245q0 -19 13 -31t32 -12t31 12t12 31q0 5 24 337l23 -265q1 -13 12 -26t31 -13q14 0 27.5 9.5t15.5 27.5l47 399l23 -54q12 -27 42 -27h239v88h-210l-75 183q-8 20 -27.5 26t-37.5 -4.5t-21 -34.5l-17 -132l-31 383
q-1 13 -11 25.5t-30 12.5q-13 0 -27.5 -9t-16.5 -29q0 -14 -25 -322l-23 298q-3 16 -14.5 27t-28.5 11q-13 0 -27.5 -9t-16.5 -29v-1v-4q-6 -65 -25 -357l-23 391q0 21 -11.5 36.5t-32.5 15.5q-17 0 -30 -13t-13 -36l-25 -363q-21 349 -21 355q-3 16 -15 27t-29 11
q-13 0 -27.5 -9t-16.5 -29q0 -1 -0.5 -4t-0.5 -7l-26 -366l-20 235q-2 18 -16 28t-28 10q-17 0 -28.5 -10.5t-14.5 -26.5l-46 -315q-6 12 -9 17t-13 11t-24 6h-212v-88h184l57 -115q14 -30 45.5 -25t36.5 36l13 85l35 -405q0 -18 12.5 -30.5t30.5 -12.5q7 0 13.5 1
t18.5 13.5t12 36.5l20 285l28 -382q0 -18 10.5 -29t18 -13t12.5 -2t13 2t19.5 13t11.5 29l22 333l26 -405q0 -43 40 -47z" />
</svg>