<svg xmlns="http://www.w3.org/2000/svg" xmlns:xlink="http://www.w3.org/1999/xlink" version="1.1" viewBox="-10 0 2068 2048">
   <path fill="currentColor"
d="M1216 192q0 80 -56 136t-135.5 56t-136 -56t-56.5 -136t56.5 -136t136 -56t135.5 56t56 136zM1216 1856.5q0 79.5 -56 135.5t-135.5 56t-136 -56t-56.5 -135t56.5 -135.5t136 -56.5t135.5 56t56 135.5zM192.5 1216q-79.5 0 -136 -56t-56.5 -135.5t56.5 -135.5t136 -56
t135.5 55.5t56 135.5t-56 136t-135.5 56zM2048 1024.5q0 79.5 -56.5 135.5t-136 56t-135.5 -56t-56 -136t56 -135.5t135.5 -55.5t136 56t56.5 135.5zM572 1748q-56 57 -136 57t-136 -56t-56 -136q0 -81 56 -137q56 -55 136 -55q79 0 135.5 56.5t56.5 135.5t-56 135zM572 571
q-56 57 -136 57t-136 -56t-56 -136t56 -136q57 -60 140 -60q80 0 136 56t56 136q0 83 -60 139zM1476 1748q-56 -56 -56 -135q0 -80 56.5 -136.5t135.5 -56.5q80 0 136 56q56 55 56 137q0 80 -56 136t-136 56q-78 0 -136 -57z" />
</svg>