<svg xmlns="http://www.w3.org/2000/svg" xmlns:xlink="http://www.w3.org/1999/xlink" version="1.1" viewBox="-10 0 2058 2048">
   <path fill="currentColor"
d="M1682 507l-418 -419q-68 -68 -176 -84v680h678q-16 -110 -84 -177zM1582 1993q-97 0 -176 -71l-382 -382q-70 -71 -70 -176q0 -98 66 -177l340 -335h-314q-58 0 -88 -38q-38 -38 -38 -88v-726h-726q-56 0 -92 37q-38 38 -38 89v1796q0 50 38 88t92 38h1452q50 0 88 -38
q36 -37 36 -88v-17l-12 13q-72 75 -176 75zM1964 1271q-22 -21 -46 -21h-412l172 -168q22 -30 22 -54q0 -25 -22 -55l-46 -42q-20 -21 -50 -21q-24 0 -54 21l-378 378q-20 30 -20 55q0 29 20 50l378 382q30 21 54 21q30 0 50 -21l46 -46q22 -21 22 -51q0 -24 -22 -54
l-172 -168h412q29 0 46 -25q20 -21 20 -51v-75q0 -25 -20 -55z" />
</svg>