<svg xmlns="http://www.w3.org/2000/svg" xmlns:xlink="http://www.w3.org/1999/xlink" version="1.1" viewBox="-10 0 2068 2048">
   <path fill="currentColor"
d="M1394 1770q209 -105 335.5 -305t126.5 -441q0 -113 -30 -221t-83.5 -199t-130.5 -168t-168 -130.5t-199 -83.5t-221 -30t-220.5 30t-199 83.5t-168 130.5t-130.5 168t-84 199t-30 221q0 241 126.5 441t335.5 305q-14 -51 -14 -105v-210q-55 -52 -92 -109
q-17 -24 -12.5 -47t19.5 -40t41 -24.5t54 -1.5q184 43 374 43q189 0 374 -43q27 -6 53 1.5t41.5 24.5t20 40t-12.5 47q-37 57 -92 109v210q0 54 -14 105zM1024.5 2048q-139.5 0 -272 -37t-245 -102.5t-207 -160t-160.5 -207t-103 -245.5t-37 -272t37 -272t103 -245.5
t160.5 -207t207 -160t245 -102.5t272 -37t272 37t244.5 102.5t206.5 160t160.5 207t103 245.5t37 272t-37 272t-103 245.5t-160.5 207t-206.5 160t-244.5 102.5t-272 37zM638 880q-63 0 -100 39q-23 25 -57 25.5t-57 -22.5q-24 -22 -25 -54.5t21 -57.5q42 -45 99.5 -67.5
t119 -22.5t119.5 22.5t100 67.5q22 25 21 57t-25 55t-57.5 22.5t-56.5 -25.5q-35 -39 -102 -39zM1345.5 928q-39.5 0 -67.5 -27.5t-28 -67.5t28 -68.5t67.5 -28.5t67 28.5t27.5 68.5t-27.5 67.5t-67 27.5zM1343.5 640q-79.5 0 -135.5 56.5t-56 136t56 135.5t135.5 56
t136 -56t56.5 -135.5t-56.5 -136t-136 -56.5zM1344 1152q-133 0 -226.5 -93t-93.5 -226q0 -87 42.5 -161t116.5 -117t161 -43t160.5 43t116.5 117t43 161t-43 160.5t-116.5 116t-160.5 42.5zM1280 1665v-150q0 -44 -31.5 -75.5t-74.5 -31.5h-8q-34 0 -60.5 21.5t-33.5 54.5
q-6 24 -27 34t-41.5 0t-25.5 -34q-8 -33 -34.5 -54.5t-59.5 -21.5h-10q-43 0 -74.5 31.5t-31.5 75.5v150q0 106 75.5 180.5t181 74.5t180.5 -74.5t75 -180.5z" />
</svg>