<svg xmlns="http://www.w3.org/2000/svg" xmlns:xlink="http://www.w3.org/1999/xlink" version="1.1" viewBox="-10 0 2058 2048">
   <path fill="currentColor"
d="M180 917l2 -2zM1024 386q30 0 86 8l-16 271l90 -258q80 21 160 68l-118 244l180 -204q70 56 122 124l-200 182l242 -120q43 70 68 162l-258 89l272 -15q6 42 6 87t-6 87l-270 -16l256 90q-20 80 -66 160l-244 -117l202 180q-49 67 -122 123l-180 -203l118 246
q-67 41 -160 67l-92 -260l16 274q-42 6 -86 6t-86 -6l16 -272l-90 259q-80 -21 -160 -68l118 -246l-180 203q-65 -48 -122 -123l204 -180l-246 118q-44 -78 -66 -160l256 -91l-270 16q-6 -56 -6 -87t6 -87l270 15l-256 -90q23 -84 66 -161l246 120l-204 -182
q50 -66 122 -124l180 204l-116 -246q73 -43 158 -66l90 255l-16 -268q54 -8 86 -8zM1902 512v1024l-878 512l-878 -512v-1024l878 -512zM1834 553l-810 -469l-808 469v941l808 471l810 -471v-941zM1024 149l750 438v875l-750 438l-750 -438v-875zM1024 353q-135 0 -259 53
t-213 142.5t-141.5 214t-52.5 261.5t52.5 261t141.5 214t213 143t259 53q136 0 259.5 -53t213 -143t142.5 -214t53 -261t-53 -261.5t-142.5 -214t-213 -142.5t-259.5 -53z" />
</svg>