<svg xmlns="http://www.w3.org/2000/svg" xmlns:xlink="http://www.w3.org/1999/xlink" version="1.1" viewBox="-10 0 2068 2048">
   <path fill="currentColor"
d="M1024.5 0q139.5 0 272 37t245 103t206.5 160.5t160 207t103 245.5t37 272t-37 272t-103 245t-160 206.5t-206.5 160.5t-245 102.5t-272 36.5t-272 -36.5t-245 -102.5t-207 -160.5t-160.5 -206.5t-103 -245t-37 -272t37 -272t103 -245.5t160.5 -207t207 -160.5t245 -103
t272 -37zM1024.5 1994q131.5 0 257.5 -35t232 -97t195.5 -151.5t152 -196t97.5 -232t35 -257.5t-35 -258t-97.5 -232t-152 -195.5t-195.5 -152t-232 -97.5t-257.5 -35t-257.5 35t-232 97.5t-195.5 152t-152 195.5t-97 232t-34.5 258t34.5 257.5t97 232t152 196t195.5 151.5
t232 97t257.5 35zM1664 638h-602v144h344v193h-344v809h-200v-812h-486l-152 -190h640v-338h800v194zM1362 823h-342v-231h598v-101h-708v332h-596l84 100h512v814h110v-814h342v-100zM696 539l90 -39l-64 75l64 75l-92 -39l-50 85l8 -100l-96 -22l98 -22l-10 -99zM574 458
l40 42l-58 -22l-28 50l4 -60l-58 -12l60 -15l-6 -58l32 51l52 -24zM1258 1057l-40 45l40 43l-54 -22l-30 50l4 -58l-58 -13l58 -14l-6 -58l30 51zM1698 738l-62 73l62 71l-88 -37l-46 81l8 -95l-92 -20l92 -22l-10 -94l50 81zM1024.5 87q127.5 0 249 33.5t224 94t189 147.5
t146.5 189.5t93.5 224t33.5 249.5t-33.5 249.5t-93.5 224t-146.5 189t-189 147t-224 94t-249 33.5t-249 -33.5t-224.5 -94t-189.5 -147t-146.5 -189t-93.5 -224t-33.5 -249.5t33.5 -249.5t93.5 -224t146.5 -189.5t189.5 -147.5t224.5 -94t249 -33.5zM1414 773h-342v-127h600
v-210h-816v337h-650l166 207h482v812h216v-808h344v-211zM1024 142q-191 0 -362.5 78t-294 215.5t-179.5 312.5h648v-336h822q-122 -127 -286 -198.5t-348 -71.5zM1024.5 1906q119.5 0 233.5 -31.5t211 -88.5t178 -138t138 -178t89 -211t32 -234q0 -158 -53 -302.5
t-151 -261.5v209h-602v80h344v259h-344v809h-266v-813h-474l-180 -233q-38 127 -38 253q0 120 32 234t89 211t138.5 178t178 138t211 88.5t234 31.5zM738 1100l94 -38l-70 70l66 77l-88 -44l-54 87l14 -99l-98 -24l98 -17l-6 -101z" />
</svg>