<svg xmlns="http://www.w3.org/2000/svg" xmlns:xlink="http://www.w3.org/1999/xlink" version="1.1" viewBox="-10 0 2068 2048">
   <path fill="currentColor"
d="M1828 292q0 -30 -21 -51.5t-51 -21.5h-1464q-30 0 -51 21.5t-21 51.5v1464q0 30 21 51.5t51 21.5h1464q30 0 51 -21.5t21 -51.5v-1464zM1756 0q120 0 206 85.5t86 206.5v1464q0 121 -86 206.5t-206 85.5h-1464q-120 0 -206 -85.5t-86 -206.5v-1464q0 -121 86 -206.5
t206 -85.5h1464zM1464 1024q0 46 -36 80l-512 476q-23 22 -56 27.5t-62 -7.5q-30 -13 -48 -41t-18 -60v-951q0 -32 18 -59.5t48 -40.5q29 -13 62 -7.5t56 27.5l512 475q36 34 36 81z" />
</svg>