<svg xmlns="http://www.w3.org/2000/svg" xmlns:xlink="http://www.w3.org/1999/xlink" version="1.1" viewBox="-10 0 2068 2048">
   <path fill="currentColor"
d="M896 308v-2h200q36 0 65.5 18.5t46.5 49.5l46 84l150 -126q28 -24 66 -24h66q42 0 72 30t30 72v102q0 42 -30 72t-72 30h-198l176 328q62 -20 124 -20q111 0 205.5 55t149.5 149t55 205.5t-55 206t-149.5 149.5t-206 55t-205.5 -55t-149 -149.5t-55 -205.5
q0 -95 40.5 -177.5t111.5 -140.5l-50 -92q-94 72 -149 179t-55 231q0 50 12 102h-226q10 -48 10 -102q0 -105 -40.5 -199.5t-109 -163t-163.5 -109t-199 -40.5h-308v-104q0 -42 30 -72t72 -30h326q84 0 144 60l146 146l312 -262l-52 -96h-184q-31 0 -53.5 -23.5t-22.5 -55
t22.5 -53.5t53.5 -22zM1480 1202q-46 58 -46 130q0 84 59.5 144t144 60t145.5 -60t61 -144.5t-61 -145t-145 -60.5q-16 0 -22 2l90 166q15 28 6 59t-36.5 46t-58.5 5.5t-45 -36.5zM600 1408h212q-27 144 -140 239t-262 95q-111 0 -205.5 -55t-149.5 -149.5t-55 -206
t55 -205.5t149.5 -149t205.5 -55q149 0 262 95t140 239h-212q-23 -58 -74.5 -94t-115.5 -36q-84 0 -145 60.5t-61 145t61 144.5t145 60q64 0 115.5 -35t74.5 -93zM410 1434q-42 0 -72 -30.5t-30 -72t30 -71.5t72 -30t72 30t30 72t-30 72t-72 30z" />
</svg>