<svg xmlns="http://www.w3.org/2000/svg" xmlns:xlink="http://www.w3.org/1999/xlink" version="1.1" viewBox="-10 0 2068 2048">
   <path fill="currentColor"
d="M1110 199v38q33 6 64 15q34 10 52 40.5t9 63.5q-10 34 -41 52.5t-64 8.5q-66 -19 -107 -19q-42 0 -69 17q-12 7 -13 10q-2 4 -2 10v2q7 7 12 10q20 13 97 35l3 1q94 29 135 55q92 59 94 160q0 57 -26 101t-69 71q-35 20 -75 31v38q0 35 -25.5 60t-61 25t-60.5 -25
t-25 -60v-41q-29 -7 -90 -28q-4 -1 -7.5 -2t-7.5 -2t-6 -2q-34 -11 -50 -42.5t-4.5 -65.5t43 -49.5t65.5 -4.5q23 7 26 8q84 28 120 29q43 2 68 -14q10 -6 12 -10q3 -6 3 -15q0 -7 -15 -17q-23 -15 -96 -36l-7 -2q-92 -29 -130 -52q-94 -57 -94 -156q0 -58 27 -101.5
t71 -68.5q25 -14 72 -28v-40q0 -35 25 -60t60.5 -25t60.5 25t25 60h1zM2020 1309q34 48 25.5 107t-55.5 93l-450 331q-126 94 -287 94h-570h-568q-48 0 -81 -33t-33 -80v-228q0 -47 33 -80.5t81 -33.5h130l160 -127q124 -100 284 -100h278h57h228q47 0 80.5 33t33.5 80
t-33.5 80.5t-80.5 33.5h-228h-57q-23 0 -39.5 17.5t-16.5 40.5t16 39.5t40 16.5h430l425 -313q47 -35 105 -27t93 56zM689 1479h-3h3z" />
</svg>