<svg xmlns="http://www.w3.org/2000/svg" xmlns:xlink="http://www.w3.org/1999/xlink" version="1.1" viewBox="-10 0 2068 2048">
   <path fill="currentColor"
d="M0 0h586v584h-586v-584zM548 548v-512h-510v512h510zM732 0h584v584h-584v-584zM1280 548v-512h-512v512h512zM1464 0h584v584h-584v-584zM2012 548v-512h-512v512h512zM0 732h586v584h-586v-584zM548 1280v-512h-510v512h510zM732 732h584v584h-584v-584zM1280 1280
v-512h-512v512h512zM1464 732h584v584h-584v-584zM2012 1280v-512h-512v512h512zM0 1462h586v586h-586v-586zM548 2011v-512h-510v512h510zM732 1462h584v586h-584v-586zM1280 2011v-512h-512v512h512zM1464 1462h584v586h-584v-586z" />
</svg>