<svg xmlns="http://www.w3.org/2000/svg" xmlns:xlink="http://www.w3.org/1999/xlink" version="1.1" viewBox="-10 0 2068 2048">
   <path fill="currentColor"
d="M1024.5 2048q-139.5 0 -272 -37t-245 -102.5t-207 -160t-160.5 -207t-103 -245.5t-37 -272t37 -272t103 -245.5t160.5 -207t207 -160t245 -102.5t272 -37t272 37t244.5 102.5t206.5 160t160.5 207t103 245.5t37 272t-37 272t-103 245.5t-160.5 207t-206.5 160
t-244.5 102.5t-272 37zM680 661l-2 6q-12 38 4.5 73.5t53.5 48.5q38 13 74.5 -4t49.5 -54v-6q7 -20 30 -20h234q25 0 42.5 17.5t17.5 42.5q0 33 -30 52l-178 102q-22 13 -35 35.5t-13 48.5v53q0 40 28.5 68t67.5 28q40 0 68 -27.5t28 -66.5l130 -74q58 -34 92 -93t34 -127
q0 -104 -74 -178t-178 -74h-234q-71 0 -129 41t-81 108zM896 1408q0 52 38 90t90.5 38t90 -37.5t37.5 -90.5t-37.5 -90.5t-90 -37.5t-90.5 38t-38 90z" />
</svg>