<svg xmlns="http://www.w3.org/2000/svg" xmlns:xlink="http://www.w3.org/1999/xlink" version="1.1" viewBox="-10 0 2068 2048">
   <path fill="currentColor"
d="M375 1855q-69 -123 -24 -301q45 -176 191 -322q166 -166 367 -202t318 81q-87 271 -428 391q-332 120 -424 353zM1136 1369q-125 125 -316 191q-329 117 -399 353l4 5q117 117 318 81q202 -36 368 -202q146 -146 191 -324q45 -180 -29 -304q-54 117 -137 200zM529 646
q365 33 553 -179q-59 -159 -256 -208t-417 33q-193 76 -306 214t-101 285q187 -174 527 -145zM695 1045q191 -75 308 -219q116 -143 95 -289q-81 81 -203 125q-161 63 -370 46q-354 -33 -507 158v4q58 153 258 206q197 52 419 -31zM1610 612q212 -291 137 -565
q-162 -33 -312 108q-149 140 -191 374q-42 199 21 371.5t191 235.5q-58 -241 154 -524zM1813 68q25 124 0 241q-38 179 -158 337q-211 291 -129 515h5q162 33 309 -106q148 -141 193 -372q38 -205 -25 -378q-63 -175 -195 -237z" />
</svg>