<svg xmlns="http://www.w3.org/2000/svg" xmlns:xlink="http://www.w3.org/1999/xlink" version="1.1" viewBox="-10 0 2067 2048">
   <path fill="currentColor"
d="M1022 0q213 0 403 79.5t326.5 215.5t216 326t79.5 403q0 222 -85 415.5t-226.5 325.5t-327.5 207.5t-386 75.5q-164 0 -319 -51.5t-281 -146t-221 -220.5t-147.5 -282.5t-52.5 -323.5q0 -163 49 -317t141 -281t216 -223t283 -149.5t332 -53.5zM231 748q-46 129 -46 276
q0 135 43 262t121 230t181.5 180.5t231.5 120t264 42.5q99 0 192.5 -22.5t161.5 -54.5t132.5 -80t102.5 -85t75.5 -84.5t47.5 -63.5t22 -36l2 -3l-386 -173q-11 55 -40.5 98.5t-69.5 70.5t-83 42t-87 19v156h-120v-158q-170 -1 -310 -121l141 -144q64 60 148.5 84t146 -0.5
t61.5 -91.5q0 -39 -27 -63q-223 -96 -905 -401zM1026 183q-439 0 -703 383l391 176q19 -61 65 -103t95 -59.5t102 -20.5v-157h120v157q137 6 255 95l-133 137q-109 -75 -211 -57q-65 11 -83 50q-13 27 6 53q353 159 383 172l524 234q26 -110 26 -219q0 -352 -245 -594
q-244 -247 -592 -247z" />
</svg>