<svg xmlns="http://www.w3.org/2000/svg" xmlns:xlink="http://www.w3.org/1999/xlink" version="1.1" viewBox="-10 0 2058 2048">
   <path fill="currentColor"
d="M1023.5 0q52.5 0 90.5 38t38 90v77q145 30 261.5 119.5t183.5 223t67 285.5v100q0 136 45 265t130 236l60 75q36 46 11 100q-12 26 -35.5 41t-50.5 15h-1600q-28 0 -51 -15t-35 -41q-25 -53 12 -100l59 -75q85 -107 130 -236t45 -265v-100q0 -152 67 -285.5t183.5 -223
t261.5 -119.5v-77q0 -52 37.5 -90t90 -38zM1023.5 384q-91.5 0 -174.5 35.5t-142.5 95.5t-95 143.5t-35.5 174.5v100q0 292 -159 539h1213q-158 -245 -158 -539v-100q0 -91 -35.5 -174.5t-95.5 -143.5t-143 -95.5t-174.5 -35.5zM1279 1793q0 107 -74 181t-181 74t-181 -74
q-75 -75 -75 -181h256h255z" />
</svg>