<svg xmlns="http://www.w3.org/2000/svg" xmlns:xlink="http://www.w3.org/1999/xlink" version="1.1" viewBox="-10 0 2068 2048">
   <path fill="currentColor"
d="M983 437l-300 932v-581l-243 108l243 -847v513zM612 7l-5 20l-69 235q-137 52 -221.5 174t-84.5 273q0 175 104 306.5t268 162.5v239q-129 -17 -241 -80t-191.5 -156.5t-125 -216t-45.5 -255.5q0 -132 47 -253.5t128 -214t194 -154.5t242 -80zM1997.5 1997
q-33.5 33 -69.5 43.5t-57 3.5q-11 -4 -43 -27t-102.5 -77t-124.5 -94q-36 -27 -63 -51.5t-43 -41.5t-29.5 -40t-19.5 -36t-17.5 -41t-17.5 -43q-34 -73 -102 -137t-155 -95l-42 -66q-170 116 -363 128l10 -30l71 -221q156 -40 258 -168.5t102 -294.5q0 -121 -52.5 -225.5
t-151 -172.5t-223.5 -79v-231q136 9 258.5 68t211 153t140.5 221t52 266q0 216 -130 403l65 42q30 87 95 155t139 101l42 18t40.5 18t36 20t41 30t42 43t51.5 63q39 53 94 124.5t77.5 102.5t26.5 42q7 22 -3.5 57.5t-44 68.5zM1954 1918q0 -14 -11 -25.5t-25.5 -11.5
t-25 11.5t-10.5 25.5t10.5 24.5t25 10.5t25.5 -10.5t11 -24.5z" />
</svg>