<svg xmlns="http://www.w3.org/2000/svg" xmlns:xlink="http://www.w3.org/1999/xlink" version="1.1" viewBox="-10 0 2058 2048">
   <path fill="currentColor"
d="M1069 847l-652 -460q-53 31 -107 31q-86 0 -147.5 -61.5t-61.5 -148.5q0 -86 61.5 -147t147.5 -61q87 0 148 61t61 147q0 22 -8 56q117 88 376.5 278.5t299.5 220.5q78 -40 170 -54v-245q-53 -22 -83 -67.5t-30 -103.5q0 -78 54.5 -135t132.5 -57t133 57t55 135
q0 58 -30 103.5t-82 67.5v246q189 29 314.5 175t125.5 341q0 106 -41 202t-111 166t-166 111t-202 41q-176 0 -317 -107l-200 200q7 21 7 49q0 68 -46 114t-115 46q-68 0 -114 -46q-47 -47 -47 -114q0 -68 47 -115q46 -46 114 -46q34 0 56 9l199 -199q-104 -139 -104 -312
q0 -111 42.5 -208.5t119.5 -169.5zM1427 1501q115 0 196 -80.5t81 -195.5t-81 -196t-196 -81t-195.5 81t-80.5 196t80.5 195.5t195.5 80.5z" />
</svg>