<svg xmlns="http://www.w3.org/2000/svg" xmlns:xlink="http://www.w3.org/1999/xlink" version="1.1" viewBox="-10 0 2068 2048">
   <path fill="currentColor"
d="M1856 1024q0 -113 -30 -221t-83.5 -199t-130.5 -168t-168 -130.5t-199 -83.5t-221 -30t-220.5 30t-199 83.5t-168 130.5t-130.5 168t-84 199t-30 221q0 241 126.5 441t335.5 305q-14 -48 -14 -105v-93q-148 -109 -220 -278q-14 -36 13.5 -61t64.5 -14q247 76 527.5 76
t526.5 -76q38 -11 65 14t13 61q-75 173 -222 279v92q0 54 -14 105q209 -105 335.5 -305t126.5 -441zM0 1024q0 -139 37 -272t103 -245.5t160.5 -207t207 -160t245 -102.5t272 -37t272 37t244.5 102.5t206.5 160t160.5 207t103 245.5t37 272t-37 272t-103 245.5t-160.5 207
t-206.5 160t-244.5 102.5t-272 37t-272 -37t-245 -102.5t-207 -160t-160.5 -207t-103 -245.5t-37 -272zM464 629q0 -27 23.5 -41t46.5 -1l360 191q33 17 33 54t-33 54l-360 191q-23 13 -46.5 -1t-23.5 -41q0 -18 12 -30l144 -174l-144 -172q-12 -12 -12 -30zM1514 587
q24 -13 47 1t23 41q0 19 -10 30l-144 172l144 174q10 11 10 30q0 27 -23 41t-47 1l-358 -191q-33 -17 -33 -54t33 -54zM1280 1665v-150q0 -44 -31.5 -75.5t-74.5 -31.5h-8q-34 0 -60.5 21.5t-33.5 54.5q-6 24 -27 34t-41.5 0t-25.5 -34q-8 -33 -34.5 -54.5t-59.5 -21.5h-10
q-43 0 -74.5 31.5t-31.5 75.5v150q0 106 75.5 180.5t181 74.5t180.5 -74.5t75 -180.5z" />
</svg>