<svg xmlns="http://www.w3.org/2000/svg" xmlns:xlink="http://www.w3.org/1999/xlink" version="1.1" viewBox="-10 0 2068 2048">
   <path fill="currentColor"
d="M2024 310q-133 -128 -356 -89t-404 225q-15 14 -46 54q-26 35 -36 48q-42 50 -42 51q-49 65 -54 79q-27 26 -38 49q-8 -33 -24 -33q-8 0 -24 29q-5 -10 -46 -70q-41 -54 -42 -54q-10 -17 -66 -82q-8 -9 -12 -9q-59 -73 -82 -91q-181 -168 -390 -200q-210 -32 -338 93
q-45 29 -4 351q43 323 128 409q76 83 186 104q-181 70 -98 330q82 245 153.5 294t254.5 37q170 -12 290 -240q39 -87 56 -165q9 70 34 70t34 -74q17 87 56 169q120 228 290 240q183 12 254 -37q73 -50 156 -294q82 -251 -100 -334q107 -12 186 -100q85 -86 128 -409
q41 -322 -4 -351z" />
</svg>