<svg xmlns="http://www.w3.org/2000/svg" xmlns:xlink="http://www.w3.org/1999/xlink" version="1.1" viewBox="-10 0 2058 2048">
   <path fill="currentColor"
d="M1023 2048q-43 0 -79 -21l-250 -148q-10 -6 -15.5 -11t-6.5 -8.5t1.5 -6t5.5 -4t7 -2.5q4 -2 11 -4q54 -20 103 -48q8 -4 18 1l194 115q11 6 22 0l752 -433q12 -7 12 -21v-867q0 -14 -12 -20l-752 -433q-11 -7 -22 0l-750 433q-12 6 -12 20v867q0 15 12 20l206 119
q56 27 96 19.5t62 -34.5t22 -61v-856q0 -9 6 -15t16 -6h96q9 0 15.5 6t6.5 15v856q0 111 -59 172.5t-165 61.5q-28 0 -44 -1.5t-50 -12.5t-78 -33l-198 -113q-35 -21 -56.5 -58t-21.5 -79v-867q0 -42 21.5 -79t56.5 -58l750 -433q36 -20 79.5 -20t78.5 20l752 434
q36 21 57 57.5t21 78.5v867q0 42 -21 79t-57 59l-752 432q-36 21 -79 21zM1630 1195q0 122 -98 190t-276 68q-95 0 -167.5 -17t-115 -44t-69.5 -65t-36.5 -74.5t-9.5 -77.5q0 -9 6.5 -15.5t15.5 -6.5h98q8 0 14 5.5t6 13.5q6 40 18.5 65.5t40.5 45.5t76.5 29t122.5 9
q118 0 171 -29t53 -92q0 -17 -3.5 -28t-18.5 -23.5t-42.5 -21.5t-77.5 -18t-122 -16q-65 -7 -113.5 -16.5t-91.5 -26.5t-70 -41.5t-42 -61.5t-15 -85q0 -114 90 -178t252 -64q180 0 271.5 64t102.5 199q0 10 -7 17t-15 7h-98q-17 0 -20 -17q-18 -79 -68.5 -108.5
t-165.5 -29.5q-50 0 -86.5 6.5t-56.5 17t-32 25.5t-15.5 27.5t-3.5 28.5q0 29 16.5 44t69.5 28t172 29q73 10 123.5 21t94.5 29t69.5 42.5t39 60t13.5 84.5z" />
</svg>