<svg xmlns="http://www.w3.org/2000/svg" xmlns:xlink="http://www.w3.org/1999/xlink" version="1.1" viewBox="-10 0 2058 2048">
   <path fill="currentColor"
d="M758 1583q-153 41 -75 104q108 79 367 63q162 -12 301 -71l-113 -55q-225 42 -426 21q-120 -17 -54 -62zM1301 1412q-286 53 -547 25q-59 -5 -71 -25q-12 -22 8 -38l17 -17q-180 63 -75 117q143 75 484 42q138 -17 267 -54zM1484 418q-9 3 -37 10q-17 4 -92 34
q-61 24 -121 56q-55 29 -109 77q-52 46 -79 103q-24 52 -8 127q17 73 83 152q42 58 36 107q-6 47 -32 81l-29 29q14 -7 25 -14q24 -15 57 -42q40 -33 56 -63q17 -32 27 -79q11 -48 -31 -94q-88 -127 -84 -175q9 -118 338 -309zM1651 1750l13 29q0 28 -80 54q-186 55 -592 61
q-410 6 -572 -57q-67 -33 67 -75q7 -3 42 -12l71 -9q-59 -38 -226 30q-145 58 -92 104q27 17 92 29q625 105 1106 -8q226 -54 209 -113q-4 -17 -38 -33zM1367 1253l96 -50q-149 24 -308 37q-333 29 -493 9q-174 -26 9 -87q26 -9 58 -18l67 -16q-146 -12 -322 75
q-113 54 80 83q317 50 688 -8q54 -9 125 -25zM1459 1499l-4 9q296 -79 321 -238q17 -105 -91 -151q-71 -29 -151 0l-33 25q7 -3 42 -8q87 -21 133 54q76 113 -121 251q-48 33 -96 58zM1029 1123q-16 -38 -75 -123q-59 -88 -81 -137q-23 -54 8 -142q32 -92 148 -182
q115 -90 180 -180q62 -86 71 -150q9 -62 -2 -113q-10 -50 -27 -75l-21 -21q29 117 -15 215t-119 156.5t-171 138.5t-138 142q-67 95 0 206q68 111 242 265zM1476 1971q-486 87 -935 17q50 37 292 54q337 21 637 -25q301 -47 310 -163q-25 67 -304 117z" />
</svg>