<svg xmlns="http://www.w3.org/2000/svg" xmlns:xlink="http://www.w3.org/1999/xlink" version="1.1" viewBox="-10 0 2068 2048">
   <path fill="currentColor"
d="M1024 398q-311 0 -568 240q-96 89 -168 192t-112 194q40 91 112 194t168 192q257 240 568 240t568 -240q95 -88 166.5 -191.5t113.5 -194.5q-42 -92 -113.5 -194.5t-166.5 -191.5q-257 -240 -568 -240zM340 514q65 -62 137.5 -111.5t158 -90t184.5 -62.5t203.5 -22
t203.5 22t185 62.5t158.5 90t137.5 111.5q116 107 200.5 232t129.5 234q19 43 0 88q-45 109 -130 234t-200 232q-65 61 -137.5 110.5t-158.5 90.5t-185 63t-203.5 22t-203.5 -22t-184.5 -63t-158 -90.5t-137.5 -110.5q-115 -107 -200 -232t-130 -234q-19 -45 0 -88
q45 -110 130 -235t200 -231zM1023.5 1308q117.5 0 201 -83.5t83.5 -201t-83.5 -201.5t-200.5 -84h-8q8 26 8 58q0 94 -67 161t-161 67q-31 0 -56 -8v8q0 117 83 200.5t200.5 83.5zM1023.5 568q92.5 0 176.5 36.5t145 97.5t97 145t36 176.5t-36 176.5t-97 145t-145 97
t-176.5 36t-176.5 -36t-145 -97t-96.5 -145t-35.5 -176.5t35.5 -176.5t96.5 -145t145 -97.5t176.5 -36.5z" />
</svg>