<svg xmlns="http://www.w3.org/2000/svg" xmlns:xlink="http://www.w3.org/1999/xlink" version="1.1" viewBox="-10 0 2058 2048">
   <path fill="currentColor"
d="M1511 967q-19 -26 -28 -66q-17 -82 19 -88q20 -3 32.5 16t20.5 58q10 50 -2 80q-7 -1 -21 -1t-21 1zM1266 1005q-43 -19 -79 -17q-16 1 -32.5 5t-27.5 7.5t-21 6.5t-15 2.5t-6 -5.5q-2 -14 24 -32q36 -27 84 -27q29 0 56 11q19 8 33.5 20.5t20 23.5t1 15t-37.5 -10z
M1225 1029q20 -2 38.5 3.5t27 14t5.5 13.5l-1.5 1.5t-2 1t-2.5 0.5h-3.5h-4t-5 -0.5t-5.5 -0.5q-9 -1 -26 -1q-32 0 -59 10q-14 5 -23 3q-6 -12 12.5 -26.5t48.5 -18.5zM1472 1107q-5 9 -15 12t-20 -0.5t-19 -10t-12 -16t1 -18.5t14 -11.5t20 0.5t19 9.5t12.5 16t-0.5 18.5z
M1544 1014v-1q16 1 22.5 19t-0.5 36t-23.5 18t-23 -18t0.5 -36t24 -18zM546 1373q16 -4 15 2q3 3 3 6t-2 5q-8 17 -30.5 22t-43.5 -11t-24 -52q-2 -17 7 -45.5t7.5 -49t-24.5 -36.5q-15 -10 -32 -10q-33 0 -50 27q-6 9 -10.5 24t-9 22.5t-13.5 6.5t-11.5 -19t6 -44.5
t27.5 -46.5q17 -20 46 -28.5t62 4t53 49.5q12 24 9.5 50t-12 44t-14.5 38t2 31q10 16 39 11zM1912 1296q27 0 51.5 29t24.5 85q0 17 -2 35t-5.5 36t-7 33t-8.5 31t-8 25.5t-7 21t-4 12.5q-46 109 -124 194.5t-173.5 139.5t-207 82.5t-224.5 28t-225.5 -30.5t-209 -85
t-177 -143t-128.5 -199q-71 0 -139 -37t-114.5 -101t-53.5 -138q-3 -36 -3 -38q0 -61 21 -115l-68 -57q-63 -54 -59.5 -155t62 -216.5t150.5 -241t205 -227t226 -175.5t213 -86.5t166 39.5l105 102l58 -24q133 -55 245.5 -58.5t178 44t65.5 135.5q0 69 -40.5 146t-112.5 153
q41 38 64.5 100t27 110.5t4.5 104.5t2 64l11.5 3t16 4.5t18 5.5t21 6.5t21 7.5t23 9t21.5 10t21 11.5t18 12.5t16 14q23 25 34 53t11 49.5t-7.5 44.5t-12.5 32.5t-11 18.5q16 43 31 94zM472 1515h-1q64 2 104 -36.5t51.5 -97.5t0.5 -130q-8 -52 -30.5 -91t-52 -60.5
t-65.5 -30t-71 -2.5t-67 25t-55.5 48.5t-35 73.5t-6.5 94q8 82 78 144t150 63zM387 994q68 -182 177.5 -338.5t252.5 -265.5q64 -54 139 -105.5t118 -75.5l43 -25q-84 -98 -109 -105q-77 -21 -203 40t-262.5 184t-241.5 272q-24 34 -45.5 69.5t-45 78.5t-40 84.5t-27.5 82.5
t-9.5 78t15.5 64q7 15 71 70q28 -41 71.5 -69t95.5 -39zM1476 1456q5 0 5.5 2.5t-1.5 5.5l-2 3q-5 2 -14.5 6t-42 10.5t-67.5 8.5t-89 -4.5t-110 -23.5q5 48 73 76q53 21 125 23.5t149.5 -12t159 -48t151.5 -81.5q3 -2 4.5 -1t-0.5 4q-48 68 -149 115.5t-206.5 62t-201.5 -5
t-133 -74.5q-20 -30 -22.5 -65.5t10.5 -64t40 -45.5t60 -13q255 33 459 -62q90 -41 130 -86.5t35 -87.5q-3 -24 -21 -42q-33 -32 -119 -57q-10 -3 -25 -6.5t-23 -6.5q-22 -8 -31.5 -20t-10.5 -45q0 -5 -1.5 -33t-3 -53.5t-1.5 -39.5q-1 -34 -4.5 -58.5t-16 -54t-33.5 -43.5
q-22 -13 -42 -13q-14 0 -20 1t-12.5 3.5t-10.5 4t-10 6t-8.5 6.5t-9.5 7.5t-9 7.5q-40 33 -77 44t-81 9q-17 0 -51.5 -3.5t-52.5 -4.5l-24 -2q-69 -4 -128.5 48.5t-71.5 133.5q-6 43 0.5 82t23.5 69t33 52t36.5 44t26.5 31q7 9 9 21q0 10 -11 21q-67 70 -90.5 172.5
t3.5 194.5q5 18 16 44q29 70 89 121.5t137 77.5t168 27.5t182 -29.5q32 -10 92 -40q78 -39 142 -106q96 -102 118 -232q4 -30 -0.5 -49t-15.5 -25.5t-19 -8t-17 -0.5q-9 -56 -32 -110q-95 75 -233 115q-86 25 -163.5 32.5t-121 3t-78 -8t-51.5 3t-25 32.5q68 25 147 33.5
t124 3.5zM785 574q-2 2 -2 3q0 3 4 3l1 -1q18 -13 42.5 -27.5t68.5 -37t97.5 -38.5t116 -28t138 -10t151.5 19q3 1 4 -2.5t-2 -5.5q-39 -21 -91.5 -35t-94.5 -14q-1 0 -2.5 -1.5t-1.5 -2.5l1 -1q16 -22 35 -36q1 -1 1 -2q0 -4 -2 -4h-1q-57 4 -119.5 27t-104.5 52h-1
q-4 0 -4 -2v-2q3 -17 24 -58l1 -1q0 -1 -1.5 -2.5t-2.5 -1.5l-1 2q-132 68 -254 207z" />
</svg>