<svg xmlns="http://www.w3.org/2000/svg" xmlns:xlink="http://www.w3.org/1999/xlink" version="1.1" viewBox="-10 0 2058 2048">
   <path fill="currentColor"
d="M128 384q0 -104 51.5 -192.5t139.5 -140t193 -51.5h1152h128q53 0 90.5 37.5t37.5 90.5v1280q0 53 -37.5 90.5t-90.5 37.5v257q53 0 90.5 37.5t37.5 90t-37.5 90t-90.5 37.5h-128h-1152q-105 0 -193 -51t-139.5 -139.5t-51.5 -192.5v-1281zM384 1665q0 53 37.5 90.5
t90.5 37.5h1024v-257h-1024q-53 0 -90.5 38t-37.5 91zM1408 448q0 -106 -93.5 -181t-226 -75t-226.5 75t-94 181q0 61 34.5 115t93.5 90v51q0 26 19 45.5t45 19.5h256q26 0 45 -19.5t19 -45.5v-51q59 -36 93.5 -90t34.5 -115zM961 384q27 0 45 18.5t18 45.5t-18 45.5
t-45 18.5t-46 -18.5t-19 -45.5t19 -45.5t46 -18.5zM1152 448q0 -27 18.5 -45.5t45 -18.5t45.5 18.5t19 45.5t-19 45.5t-45.5 18.5t-45 -18.5t-18.5 -45.5zM666 837q-24 -11 -49 -1.5t-35 34.5q-11 25 -1.5 49.5t33.5 35.5l312 133l-312 134q-24 11 -33.5 34.5t1 48.5
t35.5 35t49 -1l422 -181l422 181q24 11 49 1t35.5 -35t1 -48.5t-33.5 -34.5l-312 -134l312 -133q24 -11 33.5 -35.5t-1.5 -49.5q-10 -25 -35 -34.5t-49 1.5l-422 182z" />
</svg>