<svg xmlns="http://www.w3.org/2000/svg" xmlns:xlink="http://www.w3.org/1999/xlink" version="1.1" viewBox="-10 0 2068 2048">
   <path fill="currentColor"
d="M376 401q-40 -13 -59 -51t-5.5 -78.5t51.5 -59.5t78 -6l364 121q34 -58 93 -92t128 -34q107 0 182 75.5t75 181.5q0 8 -2 28l395 132q41 14 59.5 52t5 78.5t-51 59.5t-78.5 5l-436 -145q-27 19 -46 26v1051q0 43 -30 72.5t-73 29.5h-617q-43 0 -73.5 -29.5t-30.5 -72
t31 -73t73 -30.5h514v-948q-50 -22 -87 -63.5t-55 -94.5zM641 1127l-232 -400l-233 400h465zM409.5 1435q-150.5 0 -265 -72t-141.5 -181q-11 -45 22 -103l306 -525q12 -21 33 -33t45 -12t44.5 12.5t32.5 32.5l306 525q34 58 22 103q-26 110 -140 181.5t-264.5 71.5z
M1639 1139l-232 400h466zM2044 1594q-26 110 -140 181.5t-264.5 71.5t-264.5 -71.5t-141 -181.5q-11 -46 22 -104l306 -524q26 -45 77 -45q24 0 45 12.5t33 32.5l306 524q33 57 21 104z" />
</svg>