<svg xmlns="http://www.w3.org/2000/svg" xmlns:xlink="http://www.w3.org/1999/xlink" version="1.1" viewBox="-10 0 2068 2048">
   <path fill="currentColor"
d="M512 704q0 104 41 199t109.5 163.5t163 109t199 40.5t199 -40.5t163 -109t109 -163.5t40.5 -199t-40.5 -199t-109 -163.5t-163 -109t-199 -40.5t-199 40.5t-163 109t-109.5 163.5t-41 199zM1568 256h224q105 0 180.5 75t75.5 181v1281q0 106 -75.5 180.5t-180.5 74.5
h-1536q-105 0 -180.5 -74.5t-75.5 -180.5v-1281q0 -106 75.5 -181t180.5 -75h226q98 -119 239.5 -187.5t303 -68.5t303 68.5t240.5 187.5zM1184 896q0 67 -46.5 113.5t-113 46.5t-113.5 -46.5t-47 -113.5q0 -66 46.5 -113t111.5 -47l136 -313q10 -25 35 -35t49 1t34 35t0 49
l-136 314q44 47 44 109z" />
</svg>