<svg xmlns="http://www.w3.org/2000/svg" xmlns:xlink="http://www.w3.org/1999/xlink" version="1.1" viewBox="-10 0 2068 2048">
   <path fill="currentColor"
d="M1855 25q29 -26 67 -25t65 28l32 32q27 27 28.5 65.5t-24.5 67.5l-344 383q-16 17 -16 42v86q0 26 -18.5 45.5t-45.5 19.5h-63q-30 0 -47 20l-1086 1215q-41 44 -100 44q-55 0 -94 -39l-170 -170q-39 -39 -39 -94q0 -60 44 -99l446 -399q22 -19 22 -48v-111
q0 -26 19 -44.5t45 -18.5h138q25 0 43 -17zM1727 1152q11 0 19.5 6.5t11.5 16.5l59 207l207 60q22 6 22 30q0 25 -22 31l-207 59l-59 207q-3 10 -11.5 17t-19 7t-19 -7t-11.5 -17l-60 -207l-207 -59q-22 -6 -22 -31q0 -24 22 -30l207 -60l60 -207q7 -23 30 -23zM351 279
l58 207l207 60q11 3 17.5 11t6.5 18.5t-6.5 19.5t-17.5 12l-207 59l-58 207q-3 10 -12 17t-20 7q-10 0 -18.5 -7t-11.5 -17l-59 -207l-207 -59q-10 -3 -16.5 -11.5t-6.5 -19.5q0 -24 23 -30l207 -60l59 -207q7 -23 30 -23q11 0 20 6.5t12 16.5zM832.5 1q11.5 0 20 6.5
t10.5 17.5l27 109l109 27q11 2 17.5 11.5t6.5 20.5t-6.5 20t-17.5 11l-109 27l-27 109q-2 10 -10.5 17t-20 7t-20.5 -7t-12 -17l-27 -109l-109 -27q-10 -2 -17 -11t-7 -20t7 -20.5t17 -11.5l109 -27l27 -109q3 -11 12 -17.5t20.5 -6.5z" />
</svg>