<svg xmlns="http://www.w3.org/2000/svg" xmlns:xlink="http://www.w3.org/1999/xlink" version="1.1" viewBox="-10 0 2068 2048">
   <path fill="currentColor"
d="M1034 0q49 0 83.5 34t34.5 83v11l-52 457q86 -44 192 -63q128 -22 254.5 4t228.5 91t174.5 168.5t96.5 229.5q2 7 2 19q0 49 -34.5 83.5t-83.5 34.5h-10l-458 -51q47 92 64 190q23 129 -3.5 255.5t-91.5 228t-168.5 174.5t-228.5 97q-12 2 -20 2q-48 0 -83 -34t-35 -83
v-11l52 -457q-87 45 -190 63q-129 22 -255.5 -4t-228.5 -90.5t-174.5 -168t-97.5 -229.5q-2 -14 -2 -21q0 -49 35 -83t83 -34h10l458 51q-46 -92 -64 -189q-22 -129 4.5 -255.5t91 -228.5t168 -175.5t228.5 -97.5q6 -1 20 -1zM1024.5 896q-52.5 0 -90.5 38t-38 90t38 90
t90.5 38t90 -37.5t37.5 -90.5t-37.5 -90.5t-90 -37.5z" />
</svg>