<svg xmlns="http://www.w3.org/2000/svg" xmlns:xlink="http://www.w3.org/1999/xlink" version="1.1" viewBox="-10 0 2068 2048">
   <path fill="currentColor"
d="M1386 694q-127 0 -241.5 45.5t-196 122.5t-130 183t-48.5 223q0 75 24 152q-34 3 -68 3q-27 0 -51 -1.5t-54.5 -6.5t-44 -7t-54.5 -10.5t-50 -10.5l-254 127l74 -219q-292 -205 -292 -490q0 -127 58 -241.5t155 -196t231 -129.5t282 -48q175 0 332 66t262.5 183
t135.5 260q-38 -5 -70 -5zM996 497q-42 0 -75 26t-33 65t33 65t75 26q41 0 66.5 -25.5t25.5 -65.5t-25.5 -65.5t-66.5 -25.5zM490 679q41 0 65.5 -25t24.5 -66t-24.5 -66t-65.5 -25q-43 0 -76.5 25.5t-33.5 65.5q0 39 33.5 65t76.5 26zM2048 1260q0 116 -69 222.5
t-185 194.5l56 181l-200 -109q-4 1 -24.5 6t-25.5 6t-23 5.5t-25.5 5.5t-23 4t-25 4.5t-22.5 3t-25 2t-24 0.5q-126 0 -240.5 -41.5t-196.5 -112.5t-130.5 -168t-48.5 -204t48.5 -204.5t130.5 -168t196.5 -112.5t240.5 -42q121 0 234 42t196.5 112.5t134.5 168.5t51 204z
M1232 1168q40 0 66 -22t26 -51q0 -28 -26 -49.5t-66 -21.5q-26 0 -49 22t-23 49q0 28 22.5 50.5t49.5 22.5zM1630 1168q40 0 66 -22t26 -51q0 -28 -26.5 -49.5t-65.5 -21.5q-26 0 -48 22t-22 49q0 28 22 50.5t48 22.5z" />
</svg>