<svg xmlns="http://www.w3.org/2000/svg" xmlns:xlink="http://www.w3.org/1999/xlink" version="1.1" viewBox="-10 0 2068 2048">
   <path fill="currentColor"
d="M1979 188l-1104 324h917q105 0 180 75.5t75 181.5v1024q0 106 -75 180.5t-180 74.5h-1535q-106 0 -181 -74.5t-75 -180.5v-577v-432v-15q0 -63 28 -117.5t78 -90.5q44 -37 101 -53l1717 -504q38 -11 72.5 8t46 57t-7.5 73t-57 46zM1471.5 961q-86.5 0 -160 42.5
t-116.5 116t-43 160.5t42.5 161t116.5 117t160.5 43t160.5 -43t117 -117t43 -161t-43 -160.5t-117 -116t-160.5 -42.5zM320 1025q0 26 18.5 44.5t45.5 18.5h385q26 0 44.5 -18.5t18.5 -44.5t-18.5 -45t-44.5 -19h-385q-27 0 -45.5 19t-18.5 45zM257 1280q0 26 18 45t45 19
h512q26 0 45 -19t19 -45t-19 -45t-45 -19h-512q-27 0 -45 19t-18 45zM320 1536q0 26 18.5 45.5t45.5 19.5h385q26 0 44.5 -19.5t18.5 -45.5t-18.5 -45t-44.5 -19h-385q-27 0 -45.5 19t-18.5 45z" />
</svg>