<svg xmlns="http://www.w3.org/2000/svg" xmlns:xlink="http://www.w3.org/1999/xlink" version="1.1" viewBox="-10 0 2068 2048">
   <path fill="currentColor"
d="M2047 1022q0 48 -33.5 81.5t-79.5 33.5h-114l2 569q0 9 -2 29v57q0 59 -41 100.5t-100 41.5h-57h-12h-15h-116h-85q-60 0 -101 -41.5t-41 -100.5v-85v-228q0 -47 -33 -80.5t-80 -33.5h-228q-48 0 -81 33.5t-33 80.5v228v85q0 59 -41.5 100.5t-100.5 41.5h-85h-114
q-3 0 -8 -0.5t-8 -0.5q-2 0 -6.5 0.5t-6.5 0.5h-56q-60 0 -101.5 -41.5t-41.5 -100.5v-398q0 -2 0.5 -5t0.5 -5v-247h-114q-48 0 -81 -33t-33 -82t36 -85l911 -795q28 -28 78 -28q44 0 74 24l908 799q44 39 39 85z" />
</svg>