<svg xmlns="http://www.w3.org/2000/svg" xmlns:xlink="http://www.w3.org/1999/xlink" version="1.1" viewBox="-10 0 2068 2048">
   <path fill="currentColor"
d="M1561 153q119 73 212.5 174t154.5 216t91.5 245t28 260t-41 262.5t-111.5 251.5q-73 118 -173.5 212t-215.5 154.5t-245 91.5t-260.5 28t-262.5 -41t-251 -111t-212.5 -174t-154.5 -216t-91.5 -245t-28 -260.5t41 -262.5t111.5 -251q95 -154 235 -265t302.5 -166.5
t334.5 -55.5q289 0 536 153zM1775 1487q32 -52 58 -109q-18 0 -116.5 1t-186.5 4t-198.5 9.5t-205.5 21.5t-155 37q-35 13 -62.5 28t-46 29t-30.5 31t-18 31t-7 31.5t0.5 29.5t6 28.5t8.5 26t10.5 23.5t8.5 19q28 67 99 174q70 5 84 5q225 0 426.5 -110t324.5 -310z
M947 1131q279 8 950 21q24 -169 -15.5 -334.5t-141.5 -308.5t-253 -236q-122 -76 -260 -108.5t-273 -20t-261.5 62.5t-234.5 141t-184 214q-87 141 -116.5 299t-1.5 316q11 -42 27 -83.5t46.5 -98t68.5 -106t96.5 -101t127.5 -89.5t164.5 -65.5t205.5 -34.5q147 -12 156 41
q5 34 -44 70q-7 5 -15 10q-4 2 -46 26.5t-60.5 36.5t-55 37.5t-66 53t-56.5 59.5q-46 57 -31 100t87 69t186 29zM1705 905q26 7 44 16t24.5 17t9.5 15.5t2 11.5l-1 4l-193 97l-698 7q16 -5 42.5 -15t97.5 -43.5t129 -71.5l61.5 -41t63 -41.5t53.5 -32t55.5 -25t45.5 -7.5
q23 0 42 12q16 9 23.5 18t6.5 16.5t-5.5 14.5t-15.5 14.5t-20.5 12.5t-23 12.5t-20.5 11.5q-20 12 -72 47.5t-95 65.5l-42 30l5 5q24 14 123 -38q27 -15 47 -25t47.5 -23.5t48.5 -23t46.5 -19t47 -15t43 -9.5t41.5 -3.5t37 5.5z" />
</svg>