<svg xmlns="http://www.w3.org/2000/svg" xmlns:xlink="http://www.w3.org/1999/xlink" version="1.1" viewBox="-10 0 2068 2048">
   <path fill="currentColor"
d="M736 256q-13 0 -22.5 9.5t-9.5 22.5v160h640v-160q0 -13 -9.5 -22.5t-22.5 -9.5h-576zM512 288q0 -93 65.5 -158.5t158.5 -65.5h576q93 0 158.5 65.5t65.5 158.5v160h256q105 0 180.5 75t75.5 181v384h-768h-512h-768v-384q0 -106 75.5 -181t180.5 -75h256v-160z
M2048 1216v513q0 106 -75.5 180.5t-180.5 74.5h-1536q-105 0 -180.5 -74.5t-75.5 -180.5v-513h768v128q0 52 38 90t90 38h256q52 0 90 -38t38 -90v-128h768z" />
</svg>