<svg xmlns="http://www.w3.org/2000/svg" xmlns:xlink="http://www.w3.org/1999/xlink" version="1.1" viewBox="-10 0 2058 2048">
   <path fill="currentColor"
d="M704 386l-28 21q-47 38 -107 31.5t-98 -53.5t-30.5 -107.5t54.5 -98.5l26 -22q196 -157 446 -157h198q140 0 259 69.5t188.5 188.5t69.5 259q0 64 -20 141h93q60 0 103 43t43 103t-43 103t-103 43h-311l-10.5 7t-11.5 8l-231 132h564q60 0 103 43t43 103t-43 103t-103 43
h-1045q-51 64 -51 142q0 93 65 158.5t158 65.5h199q146 0 263 -92l27 -22q47 -38 107.5 -31t98.5 54t30.5 107.5t-54.5 98.5l-27 21q-196 157 -445 157h-199q-140 0 -258.5 -69t-188 -188t-69.5 -259q0 -66 20 -143h-93q-60 0 -103 -43t-43 -103t43 -103t103 -43h309
q4 -3 12.5 -7t11.5 -7l231 -132h-564q-60 0 -103 -43t-43 -103t43 -103.5t103 -43.5h1045q51 -64 51 -141q0 -93 -65.5 -158.5t-158.5 -65.5h-198q-145 0 -263 93z" />
</svg>