<svg xmlns="http://www.w3.org/2000/svg" xmlns:xlink="http://www.w3.org/1999/xlink" version="1.1" viewBox="-10 0 2068 2048">
   <path fill="currentColor"
d="M1280 0h640q52 0 90 38t38 90v641q0 52 -38 89.5t-90.5 37.5t-90 -37.5t-37.5 -89.5v-332l-804 806q-38 37 -91 37t-90.5 -37t-37.5 -90t37 -91l806 -806h-332q-52 0 -90 -38t-38 -90t38 -90t90 -38zM320 128h448q53 0 90.5 38t37.5 90t-37.5 90t-90.5 38h-448
q-26 0 -45 19t-19 45v1281q0 26 19 45t45 19h1280q27 0 45.5 -19t18.5 -45v-449q0 -53 37.5 -90.5t90 -37.5t90.5 38t38 90v449q0 133 -93.5 226t-226.5 93h-1280q-132 0 -226 -93t-94 -226v-1281q0 -133 94 -226.5t226 -93.5z" />
</svg>