<svg xmlns="http://www.w3.org/2000/svg" xmlns:xlink="http://www.w3.org/1999/xlink" version="1.1" viewBox="-10 0 2068 2048">
   <path fill="currentColor"
d="M2048 405q0 -59 -40 -99t-100 -40h-222v282h222q59 0 100 -42q40 -41 40 -101zM1908 670h-222v278h222q60 0 100 -40t40 -99t-40 -99t-100 -40zM1908 1071h-222v278h222q60 0 100 -40t40 -99t-40 -99t-100 -40zM1908 1471h-222v278h222q60 0 100 -40t40 -99t-40 -99
t-100 -40zM0 405q0 59 40 99t100 40h222v-278h-222q-60 0 -100 40t-40 99zM0 805q0 59 40 99t100 40h222v-278h-222q-60 0 -100 40t-40 99zM0 1205q0 61 40 102q41 42 100 42h222v-283h-222q-60 0 -100 40t-40 99zM0 1610q0 59 40 99t100 40h222v-278h-222q-60 0 -100 40
t-40 99zM1440 63h-830q-50 0 -86 36t-36 87v1677q0 50 36 86t86 36h830q52 0 88 -36q34 -35 34 -86v-1677q0 -52 -34 -87q-36 -36 -88 -36z" />
</svg>