<svg xmlns="http://www.w3.org/2000/svg" xmlns:xlink="http://www.w3.org/1999/xlink" version="1.1" viewBox="-10 0 2069 2048">
   <path fill="currentColor"
d="M1388 294q17 -17 75.5 -55.5t139 -84t165 -80.5t153.5 -45.5t103 21.5q32 34 21.5 103t-45.5 153.5t-80 165.5t-83.5 139.5t-55.5 75.5q-38 38 -122 8t-166 -112t-112.5 -166.5t7.5 -122.5zM503 165q-220 135 -349 361q-31 -54 -57.5 -107t-50 -113t-36 -109.5
t-9.5 -91.5t25 -64t63 -25t89.5 8.5t107 34.5t111 49t106.5 57zM1859 649q42 -70 50 -85q126 227 126 483q0 134 -35.5 262t-99 236t-154 199t-198.5 154.5t-236 99t-262 35.5t-262 -35.5t-236 -99t-199 -154.5t-154.5 -199.5t-99 -236t-35.5 -261.5t35.5 -262t99 -236
t154.5 -199t199 -154.5t236 -99t262 -35.5q240 0 455 112q-60 35 -90 53q-59 -10 -89 15.5t-24.5 80.5t45.5 127q24 48 65 98.5t88 92.5t99 77.5t99 53t86.5 19.5t62.5 -22q36 -36 12 -119z" />
</svg>