<svg xmlns="http://www.w3.org/2000/svg" xmlns:xlink="http://www.w3.org/1999/xlink" version="1.1" viewBox="-10 0 2068 2048">
   <path fill="currentColor"
d="M1024.5 1152q-116.5 0 -223.5 -46t-184 -123t-123 -183.5t-46 -223.5t46 -223.5t123 -183.5t184 -123t223.5 -46t223.5 46t184 123t122.5 183.5t45.5 223.5t-45.5 223.5t-122.5 183.5t-184 123t-223.5 46zM646 1280h758q131 0 250 51t205.5 137.5t137.5 206t51 251.5
q0 50 -36 86t-86 36h-1804q-50 0 -86 -35.5t-36 -86.5q0 -131 51.5 -251t138 -206.5t206 -137.5t250.5 -51z" />
</svg>