<svg xmlns="http://www.w3.org/2000/svg" xmlns:xlink="http://www.w3.org/1999/xlink" version="1.1" viewBox="-10 0 2068 2048">
   <path fill="currentColor"
d="M268 113q124 -11 756 -11q453 0 758 11q67 41 166 155t100 153v88q0 82 -63 145.5t-135 63.5q-86 0 -147 -60.5t-61 -144.5q0 84 -60 144.5t-144 60.5q-85 0 -143.5 -60t-58.5 -145q0 84 -62.5 144.5t-147.5 60.5h-4q-85 0 -147.5 -60.5t-62.5 -144.5q0 85 -58.5 145
t-143 60t-144.5 -60.5t-60 -144.5q0 84 -61 144.5t-147 60.5q-72 0 -135 -63.5t-63 -145.5v-88q1 -39 100.5 -153t167.5 -155zM812 665q31 55 86 87.5t120 32.5h6q79 0 132 -35.5t80 -84.5q33 58 90 89t116 31t116 -30.5t90 -88.5q24 45 70 75.5t89.5 39.5t70.5 -1
q6 59 11 162.5t6.5 255.5t-4.5 288t-28 250.5t-59 151.5q-155 37 -465.5 51t-623 0.5t-471.5 -51.5q-37 -36 -59 -149.5t-28 -249t-4.5 -286t7 -256.5t10.5 -167q45 16 118.5 -15.5t111.5 -98.5q33 58 90 88.5t116 30.5t116 -31t90 -89zM640 887q-31 0 -59.5 10t-51 25.5
t-44 42t-37 52.5t-32 65t-28 71t-25.5 79t-23 81.5t-22 85t-22 82.5q-12 42 -18 76.5t-7.5 60t3.5 45.5t11.5 33t20 22.5t25 14.5t31.5 7.5t34.5 3t37.5 0.5q84 -3 147 -41.5t93 -95.5t30 -122q176 26 342.5 24t297.5 -24q0 65 30 122t93 95.5t147 41.5q23 0 37.5 -0.5
t34.5 -3t31.5 -7.5t25 -14.5t20 -22.5t11.5 -33t3.5 -45.5t-7.5 -60t-18 -76.5q-9 -32 -22 -82.5t-22 -85t-23 -81t-25 -79t-27.5 -71.5t-32.5 -65t-37 -52.5t-43.5 -42t-51 -25.5t-60.5 -10q-33 0 -51 1.5t-46 8.5t-53.5 24.5t-51.5 46.5q-101 -10 -180 -10q-84 0 -184 10
q-26 -29 -51.5 -46.5t-53 -24.5t-45.5 -8.5t-52 -1.5zM1024 1083q20 19 51 48.5t90 91t73 87.5l-118 -4v104q0 5 -96 1q-2 0 -13 1t-24.5 1.5t-27 0.5t-22.5 -1t-9 -3v-104l-118 4q14 -26 67.5 -82.5t99.5 -100.5z" />
</svg>