<svg xmlns="http://www.w3.org/2000/svg" xmlns:xlink="http://www.w3.org/1999/xlink" version="1.1" viewBox="-10 0 2068 2048">
   <path fill="currentColor"
d="M1023.5 342q167.5 0 307.5 20t244 56t185.5 89t135 115t88 137.5t49.5 154t15 166.5q0 118 -32.5 218.5t-90 175t-136 127.5t-172 79t-195.5 26h-30q-64 0 -119 -34t-83 -92l-84 -164q-11 -24 -33.5 -38t-49 -14t-48.5 14t-33 38l-84 164q-28 58 -83 92t-119 34h-30
q-102 0 -195.5 -26t-172 -79t-136 -127.5t-90 -175t-32.5 -218.5q0 -88 15 -166.5t49.5 -154t88 -137.5t134.5 -115t185.5 -89t244 -56t307 -20zM342 1023.5q0 93.5 67 161t160.5 67.5t160 -67.5t66.5 -161t-66.5 -160.5t-160 -67t-160.5 67t-67 160.5zM1478.5 796
q-93.5 0 -160 67t-66.5 160.5t66.5 161t160 67.5t160.5 -67.5t67 -161t-67 -160.5t-160.5 -67z" />
</svg>