<svg xmlns="http://www.w3.org/2000/svg" xmlns:xlink="http://www.w3.org/1999/xlink" version="1.1" viewBox="-10 0 2068 2048">
   <path fill="currentColor"
d="M2048 73v1535q-49 17 -126.5 45.5t-108 39.5t-81 27t-80 21.5t-69 10t-81.5 4.5q-96 0 -187.5 -23t-154 -51t-154 -51t-186.5 -23q-110 0 -234 39v-294q118 -37 234 -37q95 0 186.5 23t154 50t154 50t187.5 23q118 0 254 -42v-951q-136 42 -254 42q-96 0 -187.5 -23
t-154 -50t-154 -50t-186.5 -23q-81 0 -156 15.5t-125.5 35.5t-119.5 44t-127 36v1406q0 60 -43 103t-103 43t-103 -43t-43 -103v-1756q0 -60 43 -103t103 -43t103 43t43 103v58q58 -12 127 -36t119.5 -44t125.5 -35.5t156 -15.5q95 0 186.5 23t154 50t154 50t187.5 23
q42 0 82 -4.5t67.5 -9t81.5 -22t79.5 -26t109.5 -39t126 -45.5z" />
</svg>