<svg xmlns="http://www.w3.org/2000/svg" xmlns:xlink="http://www.w3.org/1999/xlink" version="1.1" viewBox="-10 0 2067 2048">
   <path fill="currentColor"
d="M1996 823zM1974 548q17 40 31 73.5t20.5 49t12 27.5t7 17.5t2 9t0.5 11.5q0 12 -2.5 20.5t-11.5 22t-11 15.5q-14 27 -26 29l-48 9q-18 3 -32.5 -8t-20.5 -26q-1 -3 -1 -16.5t-8.5 -29.5t-32.5 -36q-16 -16 -34.5 -26t-42 -18.5t-36.5 -15.5q-10 -6 -17.5 -7.5t-14 2
t-10 7t-11 13t-11.5 14.5q-32 41 -92 124t-92 124q-3 5 -17 22.5t-19.5 24t-17.5 22t-18.5 25t-16 23t-17 26t-14.5 25.5q-5 11 -13.5 35.5t-15 46.5t-7.5 24q-11 33 -25.5 102t-33.5 141q-6 20 -16 60t-15 55q-4 14 -9 56.5t-4 90.5t11 64q5 7 21 15t20 14q1 1 1.5 2.5t3 6
t4.5 8.5l5 10t5.5 11.5l5 11t4.5 9.5t3 7.5t0 4.5q0 10 -7.5 15t-19.5 7t-13 2q-9 6 -13 14.5t-9 11.5q-15 8 -67 8t-63 -10q-16 -13 -6 -53q2 -16 2.5 -23.5t-3.5 -10.5t-7.5 -3t-11 -1t-14.5 -4q-13 -7 -17 -35q-3 -9 -5 -13q-3 -23 13 -86.5t16 -67.5q10 -50 7 -102
t-1 -64q4 -15 7 -24.5t4 -11t2 -9.5t1 -20v-41q-1 -28 -0.5 -49.5t2 -37.5t3 -26.5t1 -17t-3.5 -8.5q-13 0 -60 5.5t-95.5 10t-116.5 3.5t-127 -12q-56 -11 -101.5 -29.5t-68 -34.5t-40 -30t-22.5 -16q-28 -11 -56.5 -2.5t-40.5 27.5q-125 250 -141 312q-7 26 -9 56.5
t2.5 65.5t9.5 58.5t12 57.5q16 52 36 69q4 3 13 7.5t13 8.5q7 6 20.5 29.5t14.5 27.5q17 26 -6 37q-16 9 -51 9q-5 1 -6 8.5t-4 9.5q-9 9 -45 13t-62 -5q-19 -8 -22 -17q-2 -6 1 -22.5t-4 -21.5q-4 -3 -18.5 -7t-25.5 -12t-17 -24q-6 -15 -7.5 -41t-1.5 -135
q0 -24 -10.5 -81.5t-18.5 -84.5q-9 -31 0 -57q1 0 3 -4l4.5 -9t4.5 -14t2 -19q-2 -3 -9.5 -3.5t-8.5 -2.5q-16 -127 -21.5 -203.5t-3 -89.5t-2.5 -57q-1 -16 -8 -49.5t-11.5 -59t-7.5 -61.5t3 -58q18 -80 85 -138q29 -24 46.5 -37.5t45 -28.5t54 -20t66.5 -8t89 3t115 18
t149 32h2q15 5 33.5 9.5t67.5 11t93 5.5t100 -15t98 -43q32 -23 76 -37.5t50 -19.5q25 -21 64 -53t123 -95t123 -84q58 -36 109.5 -53t80 -16.5t51 3.5t25.5 2q9 -2 32 -46.5t29 -44.5q9 0 11 19t0.5 39.5t1.5 32.5q2 6 8.5 12t13.5 6q4 0 6 -1t10 -6t20 -11q12 -8 27 -24
t26.5 -27t19.5 -10q27 4 -31 103q-36 59 -36 65q0 3 0.5 4.5t2 3.5t5.5 9t8 17q9 17 23 71q11 37 17 54.5t8 21t8 17t14 38.5z" />
</svg>