<svg xmlns="http://www.w3.org/2000/svg" xmlns:xlink="http://www.w3.org/1999/xlink" version="1.1" viewBox="-10 0 2068 2048">
   <path fill="currentColor"
d="M128 256q0 -106 75 -181t181 -75h640q106 0 181 75t75 181v768h32q96 0 177 47.5t128 129t47 176.5v127q0 40 28.5 68.5t68 28.5t67.5 -28.5t28 -68.5v-616q-84 -21 -138 -90t-54 -158v-256l-128 -128q-26 -26 -26 -64t26.5 -64t64 -26t63.5 26l308 309q76 75 76 181v54
v97v127v608q0 119 -84 204t-203.5 85t-204 -85t-84.5 -204v-127q0 -67 -46.5 -114t-113.5 -47h-32v577q53 0 90.5 37.5t37.5 89.5t-37.5 90t-90.5 38h-1152q-52 0 -90 -38t-38 -90t38 -89.5t90 -37.5v-1537zM384 320v384q0 26 19 45.5t45 19.5h512q27 0 45.5 -19.5
t18.5 -45.5v-384q0 -26 -18.5 -45t-45.5 -19h-512q-26 0 -45 19t-19 45z" />
</svg>