<svg xmlns="http://www.w3.org/2000/svg" xmlns:xlink="http://www.w3.org/1999/xlink" version="1.1" viewBox="-10 0 2068 2048">
   <path fill="currentColor"
d="M376 186h1294q75 0 133 48t73 120l168 838q12 64 -12 122t-76.5 93t-117.5 35h-710v210h210q43 0 73.5 31t30.5 74.5t-30.5 74t-73.5 30.5h-628q-44 0 -74 -30.5t-30 -74t30 -74.5t74 -31h208v-210h-708q-65 0 -117.5 -35t-76.5 -93t-12 -122l168 -838q15 -72 72.5 -120
t131.5 -48zM830 396l-34 340h456l-34 -340h-388zM640 736l32 -340h-296l-68 340h332zM278 894l-68 340h380l34 -340h-346zM780 894l-32 340h552l-32 -340h-488zM1424 894l36 340h378l-68 -340h-346zM1738 736h2l-70 -340l102 -20l-102 20h-294l32 340h330z" />
</svg>