<svg xmlns="http://www.w3.org/2000/svg" xmlns:xlink="http://www.w3.org/1999/xlink" version="1.1" viewBox="-10 0 2058 2048">
   <path fill="currentColor"
d="M1793 805q36 0 62 22.5t32.5 55t1.5 64.5t-31 54.5t-66 22.5h-45v182h-109v-401h155zM1998 1423q-133 291 -373.5 458t-550.5 167q-208 0 -397.5 -81t-327 -218t-218.5 -327t-81 -398t81 -398t218.5 -327t327 -218t397.5 -81q294 0 524 150.5t375 420.5l-767 449z
M1839 1474l-249 -127q-85 140 -215.5 217.5t-289.5 77.5q-168 0 -309.5 -82t-224 -224t-82.5 -309q0 -168 82.5 -309.5t224 -224t309.5 -82.5q148 0 271 68.5t211 193.5l245 -142q-128 -196 -319 -305t-419 -109q-185 0 -352.5 72t-289 193.5t-193.5 289t-72 352.5t72 352.5
t193.5 288.5t289 192.5t352.5 71.5q241 0 442 -121t323 -334z" />
</svg>