<svg xmlns="http://www.w3.org/2000/svg" xmlns:xlink="http://www.w3.org/1999/xlink" version="1.1" viewBox="-10 0 2067 2048">
   <path fill="currentColor"
d="M1751 94q27 19 42 48.5t15 62.5v409h68q57 0 96.5 40.5t39.5 96.5t-39.5 96.5t-96.5 40.5h-205h-204q-56 0 -96 -40.5t-40 -96.5t40 -96.5t96 -40.5h68v-220l-25 8q-54 18 -104 -6.5t-68 -78.5t7 -105t78 -69l205 -68q65 -22 123 19zM512 68q58 0 100 44l376 410
q38 42 35 98t-45 95q-41 38 -96.5 35t-94.5 -44l-139 -150v1287q0 56 -39.5 96.5t-96 40.5t-97 -40.5t-40.5 -96.5v-1287l-138 150q-38 41 -94.5 44t-98.5 -35q-41 -38 -43.5 -95t35.5 -98l375 -410q43 -44 101 -44zM1730 1489q35 -17 56.5 -50.5t21.5 -73.5
q0 -56 -40 -96.5t-97 -40.5q-30 0 -58 13q-35 17 -56.5 50.5t-21.5 73.5q0 56 40 96t96 40q34 0 59 -12zM1556 1723q-114 -37 -187 -135.5t-73 -222.5q0 -102 50.5 -188.5t137 -137t188 -50.5t188.5 50.5t137 137t50 188.5q0 155 -91 278l-209 281q-33 45 -89 54t-102 -25
q-45 -34 -53.5 -90.5t24.5 -101.5l29 -39v1z" />
</svg>