<svg xmlns="http://www.w3.org/2000/svg" xmlns:xlink="http://www.w3.org/1999/xlink" version="1.1" viewBox="-10 0 2058 2048">
   <path fill="currentColor"
d="M256 0h576q92 0 174.5 35.5t142.5 95t95 142.5t35 174q0 157 -96.5 278.5t-245.5 157.5l342 343l421 -421q38 -37 91 -37t90.5 37.5t37.5 90.5t-38 90l-420 421l421 421q38 38 38 91t-37.5 90.5t-90.5 37.5t-91 -38l-422 -420l-420 421q-37 38 -90.5 38t-91 -37.5
t-37.5 -91t37 -91.5l421 -421l-511 -511h-203v255q0 53 -37.5 90.5t-90 37.5t-90.5 -37.5t-38 -90.5v-383v-640q0 -52 38 -90t90 -38zM832 639q80 0 135.5 -56t55.5 -135.5t-55.5 -136t-135.5 -56.5h-448v384h448z" />
</svg>