<svg xmlns="http://www.w3.org/2000/svg" xmlns:xlink="http://www.w3.org/1999/xlink" version="1.1" viewBox="-10 0 2058 2048">
   <path fill="currentColor"
d="M1792 769q0 197 -92.5 365t-251.5 274h-849q-158 -106 -250.5 -274t-92.5 -365q0 -156 61 -298.5t164 -245.5t245 -164t298 -61t298 61t245 164t164 245.5t61 298.5zM1224 1027q0 55 -39 94.5t-95 39.5q-15 0 -24 11.5t2 21.5q39 34 89 34q55 0 94.5 -39t39.5 -95
q0 -51 -33 -89q-10 -11 -22 -2.5t-12 24.5zM1015 829q-15 0 -23.5 12t2.5 22q38 33 87 33q56 0 95.5 -39.5t39.5 -94.5q0 -49 -34 -88q-10 -11 -22 -2.5t-12 24.5q0 55 -39 94t-95 39h1zM1469 759q0 55 -39.5 94.5t-94.5 39.5q-15 0 -24 12t2 22q38 33 89 33q56 0 95 -39
t39 -95q0 -50 -33 -88q-10 -11 -22 -2.5t-12 24.5v-1zM639 1665q0 -53 38.5 -91t90.5 -38h256h256q52 0 89.5 38t37.5 91t-37.5 90.5t-89.5 37.5h-64q-26 0 -45 19t-19 45v63q0 52 -38 90t-90 38t-90 -38t-38 -90v-63q0 -26 -19 -45t-45 -19h-64q-53 0 -91 -38t-38 -90z" />
</svg>