<svg xmlns="http://www.w3.org/2000/svg" xmlns:xlink="http://www.w3.org/1999/xlink" version="1.1" viewBox="-10 0 2067 2048">
   <path fill="currentColor"
d="M2047 194v1297q0 99 -48 182.5t-131.5 132t-182.5 48.5q-97 0 -179.5 -47t-131.5 -128.5t-52 -178.5l-1191 324q-41 11 -78 -10.5t-48.5 -62.5t10 -78.5t62.5 -48.5l1038 -283v-939q0 -86 61 -147t146 -61h725zM1840 1491q0 -65 -45 -110.5t-109.5 -45.5t-110.5 45.5
t-46 110t46 110t110.5 45.5t109.5 -45t45 -110zM49 868q-11 -41 10.5 -79t62.5 -49l150 -40l67 250q6 20 25 31t39 6l100 -27q21 -5 32 -24t5 -39l-68 -250l151 -41q42 -11 79 10.5t48 62.5l134 501q12 41 -9.5 79t-63.5 49l-501 134q-41 11 -78 -11t-49 -63z" />
</svg>