<svg xmlns="http://www.w3.org/2000/svg" xmlns:xlink="http://www.w3.org/1999/xlink" version="1.1" viewBox="-10 0 2068 2048">
   <path fill="currentColor"
d="M2048 1065v283q0 93 -36.5 178t-97.5 146t-146 97.5t-178 36.5q-92 0 -176.5 -36t-146 -96.5t-98.5 -144.5t-37 -176v-286l140 65l208 -61v287q0 45 31.5 76t77 31t77.5 -31t32 -76v-293h350zM1132 828v-126q0 -45 -31.5 -77t-76 -32t-76.5 32t-32 77v653q0 92 -37 175.5
t-98.5 144t-146 96t-176.5 35.5q-93 0 -178 -36.5t-146 -97.5t-97.5 -146t-36.5 -178v-283h352v279q0 46 31 77.5t76.5 31.5t77 -31.5t31.5 -77.5v-662q0 -90 37 -172t98.5 -140.5t145.5 -93t175 -34.5q92 0 176 35t145.5 94.5t98 142t36.5 172.5v145l-208 62z" />
</svg>