<svg xmlns="http://www.w3.org/2000/svg" xmlns:xlink="http://www.w3.org/1999/xlink" version="1.1" viewBox="-10 0 2058 2048">
   <path fill="currentColor"
d="M804 587v145h512q60 0 103 43t43 103t-43 103t-103 43h-512v146h512q60 0 103 43t43 103t-43 103t-103 43h-518q-18 155 -98 289l-2 5h910q61 0 104.5 43t43.5 103t-43.5 103t-104.5 43h-1170q-39 0 -72.5 -20t-53 -54t-19.5 -74t21 -74l136 -226q36 -59 52 -138h-64
q-60 0 -103 -43t-43 -103t43 -103t103 -43h74v-146h-74q-60 0 -103 -43t-43 -103t43 -103t103 -43h74v-145q0 -119 46.5 -228t125 -187.5t187 -125t227.5 -46.5q97 0 186 30l372 123q57 19 84 73.5t7.5 112.5t-73.5 84.5t-112 7.5l-370 -124q-44 -15 -94 -15
q-121 0 -207.5 86.5t-86.5 208.5z" />
</svg>