<svg xmlns="http://www.w3.org/2000/svg" xmlns:xlink="http://www.w3.org/1999/xlink" version="1.1" viewBox="-10 0 2068 2048">
   <path fill="currentColor"
d="M938 651q0 73 -42 124t-102 51q-47 0 -80 -18v-310q32 -19 80 -19q60 0 102 50.5t42 121.5zM1178 958q60 0 103 51t43 123q0 71 -43 122t-103 51q-47 0 -78 -17v-311q32 -19 78 -19zM2048 219v1610q0 91 -64.5 155t-155.5 64h-1608q-91 0 -155.5 -64t-64.5 -155v-1610
q0 -91 64.5 -155t155.5 -64h1608q91 0 155.5 64t64.5 155zM846 1020q91 0 169.5 -48.5t123.5 -132.5t45 -183t-45 -183t-123.5 -132.5t-169.5 -48.5q-85 0 -158 40h-208v943l236 -46v-231q62 22 130 22zM1570 1135q0 -99 -45.5 -183t-123.5 -132.5t-169 -48.5q-14 0 -44 4
q-26 89 -88 152q-47 51 -108.5 80.5t-127.5 33.5v715l236 -47v-232q59 22 132 22q91 0 169 -48.5t123.5 -132.5t45.5 -183z" />
</svg>