<svg xmlns="http://www.w3.org/2000/svg" xmlns:xlink="http://www.w3.org/1999/xlink" version="1.1" viewBox="-10 0 2068 2048">
   <path fill="currentColor"
d="M1024 648q142 0 142 -142t-142 -142t-142 142t142 142zM1232 706h-416q-30 0 -46 17q-22 21 -22 46v418h118v497h316v-497h118v-418q0 -25 -22 -46q-16 -17 -46 -17zM1746 297q-296 -297 -722 -297q-418 0 -722 297q-302 308 -302 727t302 723q303 301 722 301
q413 0 732 -305q292 -292 292 -719q0 -426 -302 -727zM1622 1609q-256 251 -598 251q-333 0 -590 -247q-246 -246 -246 -589t246 -593q244 -243 590 -243q350 0 594 243q246 246 246 593q0 352 -242 585zM1032 1032l-12 -16q-5 11 12 16zM1032 1020l-16 8zM1032 982
q-9 64 -16 84q7 -20 16 -84zM1024 1016v16v-16z" />
</svg>