<svg xmlns="http://www.w3.org/2000/svg" xmlns:xlink="http://www.w3.org/1999/xlink" version="1.1" viewBox="-10 0 2068 2048">
   <path fill="currentColor"
d="M716 544q0 -42 32 -73l240 -241q16 -15 36 -15t36 15l240 242q32 31 32 72v347l130 78q34 21 54 56t20 76v732h-308v-307q0 -85 -59.5 -145t-144 -60t-144.5 60t-60 145v307h-308v-732q0 -41 20 -76t54 -56l130 -78v-347zM80 1251l330 -181v763h-256q-64 0 -109 -44.5
t-45 -108.5v-293q0 -42 22 -79t58 -57zM1894 1833h-256v-763l330 181q36 20 58 57t22 79v293q0 64 -45 108.5t-109 44.5z" />
</svg>