<svg xmlns="http://www.w3.org/2000/svg" xmlns:xlink="http://www.w3.org/1999/xlink" version="1.1" viewBox="-10 0 2069 2048">
   <path fill="currentColor"
d="M2014 818q63 166 10 329q-20 80 -67.5 150t-115.5 120l-1 1l-427 319l-210 160l-127 96q-32 17 -52 17t-52 -17l-128 -96l-211 -160l-424 -317l-2 -2l-1 -1q-136 -101 -185 -270q-48 -166 14 -329l2 -7l278 -727q7 -20 29 -35q13 -9 33 -11q17 -1 32 4q18 7 30 20t16 29
l188 577h762l188 -577q4 -14 17 -29q13 -14 28 -19.5t33 -4.5q19 2 33 11q20 14 28 35l278 727z" />
</svg>