<svg xmlns="http://www.w3.org/2000/svg" xmlns:xlink="http://www.w3.org/1999/xlink" version="1.1" viewBox="-10 0 2068 2048">
   <path fill="currentColor"
d="M1573 38q38 -38 91 -38t90 38l256 256q38 37 38 90t-38 91q-35 35 -85.5 37.5t-87.5 -29.5l-37 38l-196 195q-27 27 -35.5 66t1.5 77q29 125 -5.5 249.5t-129.5 219.5l-647 645q-75 75 -180.5 75t-180.5 -75l-352 -352q-75 -75 -75 -180.5t75 -180.5l645 -646
q94 -94 219.5 -129t250.5 -6q38 10 76.5 1t65.5 -36l195 -195l39 -38q-32 -38 -30 -88t37 -85zM397 1390l261 261q19 19 45.5 19t45.5 -19l389 -389q19 -19 19 -45.5t-19 -45.5l-261 -261q-19 -19 -45.5 -19t-45.5 19l-389 390q-19 18 -19 44.5t19 45.5z" />
</svg>