<svg xmlns="http://www.w3.org/2000/svg" xmlns:xlink="http://www.w3.org/1999/xlink" version="1.1" viewBox="-10 0 2058 2048">
   <path fill="currentColor"
d="M857 954q3 -10 8.5 -32.5t9.5 -37t9.5 -31t12 -25t13.5 -8.5q15 3 25 27.5t22.5 61t26.5 57.5q6 -33 13.5 -125t17.5 -155.5t25 -66.5q10 -1 22 25t23 71.5t19 83t16.5 83t8.5 47.5q18 7 66.5 13.5t88.5 9.5l40 3q3 10 -10.5 16.5t-44.5 9.5t-50 3.5t-55 1.5q-4 14 -9 34
l-8 32t-7.5 23.5t-9.5 17.5t-12 6q-8 0 -17 -30.5t-23 -82.5t-29 -86l-38 262q-12 35 -45 -45q-10 -23 -29 -74q-10 -27 -14 -38q-91 0 -164 -12q-52 -8 -28 -19q1 0 2 -1zM1296 1793h-544q-40 0 -56 -32t0 -64t56 -32h544q40 0 56 32t0 64t-56 32zM1200 2048h-352
q-40 0 -56 -32t0 -64t56 -32h352q40 0 56 32t0 64t-56 32zM1337 1483q-4 24 -20 38.5t-36 15t-38.5 -7t-29.5 -26t-7 -41.5q1 -7 5.5 -35t6 -37t6 -32.5t8 -35.5t9 -30.5t12.5 -34t15 -30.5q34 -63 93.5 -161.5t89.5 -152t55.5 -133.5t25.5 -159q0 -134 -68.5 -247.5
t-185.5 -179.5t-254 -66t-254 66t-185.5 179.5t-68.5 247.5q0 79 25.5 159t55.5 134t89.5 152.5t93.5 161.5q8 15 14.5 30t12 33.5t9 30.5t8 34.5t6 32.5t6 37t5.5 36q4 24 -6.5 42.5t-29 25.5t-38.5 6.5t-36 -15t-20 -38.5q-2 -10 -6 -36.5t-6 -38t-6.5 -33t-8 -33.5
t-9 -27.5t-12.5 -27.5q-18 -33 -96 -164q-47 -76 -72 -121.5t-55 -112t-43 -131.5t-13 -137q0 -126 51 -241t136.5 -198t204 -132.5t248.5 -49.5t248.5 49.5t204 132.5t136.5 198t51 241q0 73 -13 137.5t-44 132.5t-55 110.5t-72 121.5q-83 139 -96 164q-8 14 -14 31t-11 39
t-7.5 37t-7.5 45.5t-7 43.5z" />
</svg>