<svg xmlns="http://www.w3.org/2000/svg" xmlns:xlink="http://www.w3.org/1999/xlink" version="1.1" viewBox="-11 0 2070 2048">
   <path fill="currentColor"
d="M1231 1463q-88 85 -208 126q-119 -42 -207 -126h415zM1413 639q-175 -124 -389 -124.5t-391 124.5q-130 -109 -286 -150v667q0 144 46.5 265.5t124.5 200t179.5 133.5t214 67.5t224.5 1t213.5 -66.5t179.5 -133.5t124.5 -200.5t46.5 -268v-666q-158 42 -287 150zM551 397
q46 22 84 47q182 -95 388 -95t388 95q32 -21 85 -48q-132 -122 -302.5 -165t-341 0t-301.5 166zM181 305q108 3 209 30q83 -93 188 -157.5t216.5 -95.5t230 -31t230 31t216.5 95.5t188 157.5q99 -27 207 -30v285q89 55 136 144.5t46.5 182.5t-47.5 182.5t-136 144.5l-2 7
q-16 144 -70.5 266t-135.5 209t-184.5 149t-217 91.5t-233.5 30t-233.5 -28t-217 -90.5t-184.5 -149.5t-135.5 -212t-70.5 -271.5q-88 -56 -135 -145.5t-47 -182t47 -181.5t135 -144v-287zM1070 1373q13 -59 28.5 -97.5t38 -65.5t52.5 -39.5t72 -19.5t96.5 -6.5t126.5 -0.5
q34 1 52 1q0 1 -1 15t-2 21t-4 23.5t-7 27.5t-12.5 27.5t-19 29t-26 26.5t-35.5 26q-15 8 -46.5 16.5t-60.5 10.5zM511 1145q97 -4 169 -1.5t121 10t83 33t55 69t38 118.5q-149 -2 -253 -6q-29 -2 -59.5 -10.5t-46.5 -16.5q-20 -12 -35.5 -26t-26 -26.5t-19 -29t-12.5 -27.5
t-7 -27.5t-4 -23.5t-2 -21t-1 -15zM1208 1655q5 9 8.5 18t4.5 14l1 5q-90 54 -198.5 54t-198.5 -54q5 -23 16 -40q7 -10 13 -16.5t9 -8.5l3 -2q159 45 314 0q15 8 28 30z" />
</svg>