<svg xmlns="http://www.w3.org/2000/svg" xmlns:xlink="http://www.w3.org/1999/xlink" version="1.1" viewBox="-10 0 2068 2048">
   <path fill="currentColor"
d="M1792 512h-710q6 31 6 64v64h128h576q26 0 45 -19t19 -45.5t-19 -45t-45 -18.5zM896 576q0 -53 -37.5 -90.5t-90.5 -37.5h-96q-97 0 -186 38t-153 102t-102.5 153t-38.5 187v192q0 155 90 279.5t232 174.5q-2 -12 -2 -38q0 -59 25.5 -110.5t70.5 -89.5q-32 -58 -32 -120
q0 -91 56 -160q-56 -70 -56 -160v-160q0 -40 28.5 -68t68 -28t67.5 28t28 68v160q0 26 19 45t45.5 19t45 -19t18.5 -45v-160v-160zM768 256q108 0 192 64h832q105 0 180.5 75t75.5 180.5t-75.5 181t-180.5 75.5h-328q8 38 8 64q0 74 -39 136t-105 94q16 40 16 90
q0 58 -25.5 110t-68.5 90q30 58 30 120q0 105 -75 180.5t-181 75.5h-256h-96q-136 0 -260.5 -53t-214.5 -143t-143.5 -214.5t-53.5 -261.5v-192q0 -138 53.5 -262.5t143.5 -214t214.5 -142.5t260.5 -53h96zM1024 1600q27 0 45.5 -19t18.5 -45.5t-18.5 -45t-45.5 -18.5h-192
h-64q-26 0 -45 18.5t-19 45t19 45.5t45 19h256zM1088 896q0 34 -8 64h8h128q26 0 45 -19t19 -45.5t-19 -45t-45 -18.5h-128v64zM992 1152h-160q-26 0 -45 18.5t-19 45t19 45.5t45 19h192h64q26 0 45 -19t19 -45.5t-19 -45t-45 -18.5h-96z" />
</svg>