<svg xmlns="http://www.w3.org/2000/svg" xmlns:xlink="http://www.w3.org/1999/xlink" version="1.1" viewBox="-10 0 2058 2048">
   <path fill="currentColor"
d="M502 758q3 -37 28 -48q-43 -15 -54 -17q31 -7 61.5 -8t57 4.5t51 14t46 21.5t39 25t33.5 26.5t25.5 24.5t18.5 20q19 22 40.5 33.5t39 12.5t32 -1t22.5 -6l8 -4q1 32 -25 54t-59 24q1 28 -13 60.5t-29 50.5l-14 19q0 -2 1.5 -6.5t5 -17t5.5 -24.5t2 -27t-4 -26
q-2 -12 -12 -35q-26 24 -61.5 29.5t-66.5 -4.5t-55 -23t-35 -26q-51 -55 -52 -136q-11 19 -16 66q-2 -4 -6 -11t-10 -27t-4 -38zM614 751q-6 20 -7 45.5t7 53t28 41.5q29 22 63.5 25.5t53.5 -2.5t35 -15q-22 -34 -71.5 -74.5t-108.5 -73.5zM1184 934q-34 -1 -60.5 -23.5
t-25.5 -53.5q3 2 8 4t22 5t33 1t38 -13t41 -33q8 -10 18 -20t26 -24t33.5 -26t39 -25t46 -21.5t51 -14t57 -4.5t61.5 8q-27 5 -54 17q25 12 28 47q2 18 -3 37t-11 29l-6 10q-3 -43 -16 -66q-4 83 -52 136q-11 13 -35 26t-55 23t-66.5 4.5t-61.5 -29.5q-10 23 -12 35
q-5 22 -3 44.5t8 39.5l5 17q-6 -8 -15.5 -21t-25 -47t-13.5 -62zM1434 751q-59 33 -108.5 73.5t-71.5 74.5q16 10 35 16.5t53 3t64 -25.5q19 -14 27.5 -41.5t7.5 -54t-7 -46.5zM896 1675q24 0 34 10q11 10 6 27q-14 38 -52 79q-18 19 -46 19t-46 -17q-42 -41 -54 -75
q-8 -21 2 -32q12 -11 38 -11h118zM1652 1269l3.5 3.5t10.5 10t15 17t16.5 24.5t17 31t14 38t10 45.5t3.5 53.5t-6 61q-30 161 -186 219q-15 32 -37 62t-54 60t-78.5 50.5t-100.5 25.5q-95 78 -254 78q-163 0 -256 -78q-54 -5 -100 -25.5t-78.5 -50.5t-54 -60t-35.5 -62
q-160 -59 -188 -219q-10 -58 -5.5 -103.5t19 -79t30 -55.5t27.5 -33l11 -11q8 51 34.5 96.5t63.5 77.5q14 -106 14 -249q0 -38 -17 -67.5t-31 -36.5q-25 -15 -32 -19q-30 -16 -45.5 -24.5t-41.5 -27t-39.5 -34.5t-24.5 -39.5t-11 -49.5q0 -30 11 -53.5t21.5 -34t27.5 -22.5
q2 -1 5 -4t5 -4q13 -9 16 -17q12 -27 14 -85t-6 -66v-1q-4 -5 -6.5 -9t-9.5 -15t-11.5 -20.5t-11.5 -24.5t-8.5 -27.5t-3.5 -29.5t3 -30q13 -44 58 -67q35 -18 78 -19q0 -4 0.5 -7.5t1 -8t0.5 -7.5q5 -26 4 -33q-1 -31 -8 -44q-16 -24 -45 -41.5t-48 -23.5t-23 -6l-50 -9
l32 -38q4 -4 9 -8.5t23.5 -17t38 -21.5t51 -16.5t64.5 -7.5q47 0 96 14q44 14 88.5 47.5t67.5 59t42 50.5q4 -1 11 -3t11 -3q-2 -37 11.5 -73.5t32.5 -61.5t38.5 -41t31.5 -17q0 2 0.5 21t2 33.5t8 31.5t17.5 25q8 -52 42 -93.5t114 -69.5q-26 70 8 149q35 -32 69 -47.5
t50 -14.5l15 1q-6 10 -14.5 27t-19 58t-2.5 69q29 7 38 10q19 -25 42 -50.5t67.5 -59t88.5 -47.5q46 -16 96 -16q33 0 64 7.5t52 17.5t37.5 20.5t24.5 17.5t8 8l32 38l-50 9q-3 0 -22 6t-48 23.5t-44 41.5q-9 15 -10 45q-1 7 4 33q0 2 1 9.5t1 12.5q43 1 78 19q45 23 58 68
q8 33 -4.5 72.5t-25 59t-18.5 24.5q-7 8 -5.5 66t13.5 85q3 9 16 18l10 6q17 12 27.5 22.5t21.5 34.5t11 54q0 26 -10.5 49.5t-24 39.5t-39.5 34t-41.5 27t-44.5 25q-14 7 -34 19q-14 7 -31 36.5t-17 67.5q0 136 14 250q37 -31 63.5 -78t34.5 -98zM1478 152q-80 26 -150 129
q3 2 9 4.5t9 3.5q9 3 28 14q22 -44 84 -88q51 -36 114 -36q7 0 36 3q21 -14 40 -22q-46 -19 -98 -19q-40 0 -72 11zM1562 224q-42 1 -78 28q-21 17 -35 43.5t-19 46.5q28 25 42 45q28 -8 46 -11q15 -21 18 -67q5 -51 18 -72q1 -2 3.5 -6.5t4.5 -6.5zM438 182q30 -3 38 -3
q62 0 114 35q59 41 82 89q4 -2 14 -7.5t16 -7.5q2 -2 8 -4t10 -4q-72 -102 -150 -128q-32 -11 -72 -11q-52 0 -98 19q16 7 38 22zM616 342q-16 -61 -52 -90q-35 -26 -78 -28q1 2 4 6.5t4 6.5q13 21 18 72q3 48 18 67q9 2 25 6t21 5q15 -22 40 -45zM490 1040q29 16 51 52.5
t25 84.5q4 96 -16 304q67 25 160 27q12 -22 22 -52q75 -200 104 -249q-24 176 -92 358q42 -3 46 -3h468q26 0 46 3q-69 -186 -94 -358q17 28 54.5 119t51.5 130q10 30 22 52q93 -2 160 -27q-20 -208 -16 -304q3 -49 25.5 -85t52.5 -52q3 -2 15 -9t19 -10q29 -16 45 -25.5
t36 -25t29.5 -33t9.5 -37.5q0 -21 -6.5 -36t-12 -21t-17.5 -16l-2 -2q-1 -1 -4.5 -3.5t-5.5 -3.5q5 47 12 59q-6 -7 -14.5 -20t-25 -58.5t-22.5 -97.5q-4 -35 2 -91t18 -81q-2 20 0 57q2 -4 6 -9q16 -19 30 -50.5t8 -55.5q-6 -19 -28 -31t-60 -12q-56 0 -130 24
q-102 31 -258 151v1l-24 16l16 -23v-1q9 -13 20.5 -28t39 -46.5t67.5 -61t85 -49.5q-19 -28 -88 -61q-128 -63 -296 -63t-296 63q-70 35 -88 61q45 20 85 49.5t67.5 61t39 46.5t20.5 28v1l16 23l-22 -16q-2 0 -2 -1q-154 -118 -258 -151q-74 -24 -130 -24q-38 0 -60 12
q-25 14 -28 31q-7 24 7.5 55t30.5 51q4 5 6 9q2 -37 0 -57q12 25 18 81t2 91q-6 52 -21.5 96t-27.5 62l-13 18q5 -10 10 -59l-3.5 3.5t-4.5 3.5l-2 2q-11 9 -17.5 15.5t-12.5 21.5t-6 36q0 20 9.5 37t30 33t36.5 25.5t46 25.5q5 3 16.5 9.5t17.5 9.5zM396 1619q34 57 97 87
t135 30q-27 -78 18 -126l4 -6q12 -14 28 -40q-44 -2 -86.5 -11.5t-85.5 -29t-76.5 -56t-49.5 -85.5q-18 18 -18 100.5t34 136.5zM578 1793q48 69 124 101q-27 -40 -50 -92q-37 -3 -74 -9zM1023.5 1993q49.5 0 93.5 -11t75 -27t58.5 -40.5t44 -46.5t31.5 -50.5t22 -45.5
t14 -38q22 -65 -2 -92q-25 -29 -98 -29h-476q-71 0 -98 29q-26 29 -4 92q8 21 15 38.5t22 45.5t31.5 50t44 46.5t58.5 40.5t75 27t93.5 11zM1346 1894q76 -32 124 -101q-37 6 -74 9q-23 52 -50 92zM1652 1619q32 -53 32 -135.5t-18 -100.5q-15 49 -48 85.5t-76 56t-85 28.5
t-87 11q17 26 28 40q4 3 6 7q44 46 16 126q72 -1 134.5 -31t97.5 -87zM1024 752q-23 0 -50.5 -18t-43.5 -36l-16 -18q54 32 110 34q56 -2 110 -34q-7 8 -18.5 20t-40.5 32t-51 20zM1270 1673q24 0 38 13q11 11 2 32q-14 37 -54 72q-18 17 -46 17q-27 0 -44 -19
q-40 -42 -52 -77q-6 -17 4 -27q8 -11 34 -11h118z" />
</svg>