<svg xmlns="http://www.w3.org/2000/svg" xmlns:xlink="http://www.w3.org/1999/xlink" version="1.1" viewBox="-10 0 2058 2048">
   <path fill="currentColor"
d="M1698 930q35 21 65.5 58t50 86.5t24 103t-16.5 113t-67 111.5q-5 25 -12 47.5t-18 53t-14 39.5q-7 51 -28.5 96.5t-47 75.5t-55 53.5t-51.5 34.5t-36 15q-57 42 -104 69.5t-105 47.5q-113 114 -257 114h-3q-146 0 -258 -114q-58 -20 -105 -47.5t-104 -69.5
q-14 -4 -36 -15t-51 -34.5t-55 -53.5t-47.5 -75.5t-27.5 -96.5q-4 -11 -15 -40t-18 -52t-12 -48q-47 -52 -67.5 -111.5t-16 -113t24.5 -103t50.5 -86.5t66.5 -58l14 -26q0 -67 14 -119t41.5 -89t57.5 -61.5t73 -48.5q-17 -4 -23.5 -6.5t-18.5 -8.5t-18.5 -15t-9.5 -23
q-36 -10 -50.5 -25t-18.5 -38q-11 -7 -16 -11t-17 -15t-17.5 -24.5t-3.5 -28.5q-43 -29 -32 -72q-41 -45 -24 -77q-12 -15 -17.5 -27t-2.5 -23.5t5.5 -17t10.5 -17.5q-11 -23 -9.5 -43t22 -32.5t53.5 -8.5q5 -8 13 -14t16.5 -9.5t16.5 -5.5t17 -3t15 -1t12 0.5t7 0.5
q9 -12 22.5 -16.5t42.5 -1.5q33 -31 90 -9q18 -14 35 -14q11 0 30.5 8.5t24.5 9.5q14 -6 27.5 -5t19.5 3.5t15.5 8t15.5 7.5q10 -2 18.5 -3t16 1t12 3t11.5 7t9 7.5t10 9.5l10 10l29 -1q26 15 48 38.5t36.5 50t23.5 47.5t15 41q8 -29 20.5 -57t40.5 -64t63 -56l29 1
q1 -2 9 -10t10 -9.5t9 -7.5t11.5 -7t12.5 -3t16 -1t19 3q5 -2 14.5 -7.5t16 -8.5t19 -3t28.5 5q6 -2 20 -8t22 -8.5t21.5 0t26.5 12.5q56 -22 89 9q28 -3 42 1.5t24 16.5l6 -0.5t12 -0.5t15 1t17 3t17 5.5t16.5 9.5t13.5 14q33 -4 53 8.5t22 32.5t-9 43q7 12 10 17.5t5.5 17
t-2.5 23.5t-17 27q16 32 -24 77q11 44 -31 72q1 15 -4.5 28.5t-18 25t-17 15t-15.5 10.5q-5 23 -19.5 38.5t-49.5 24.5q-4 14 -10 23t-18 15t-19 8.5t-23 6.5q42 24 72 48.5t58 61.5t42 89t14 119zM1610 899q3 -95 -42 -163t-121 -96t-167 -13q-33 5 57 95q96 96 192 157
q78 50 81 20zM1437 1271q73 -47 84.5 -140.5t-45.5 -179.5q-57 -85 -150 -111.5t-165 20.5q-73 47 -84.5 140.5t45.5 179.5q57 85 149.5 111.5t165.5 -20.5zM1166 118q-22 21 -41.5 48.5t-34.5 62t-18 66.5t14.5 62t56.5 48q165 -134 407 -214q-274 141 -375 251q9 36 34 62
t53.5 39t65 20t61 8t48.5 0q-23 -10 -27 -24q5 -4 46 -7t63 -15q-23 -5 -29 -16q4 -1 25.5 -8t29.5 -10t21.5 -9.5t21.5 -12.5q-27 0 -40 -9q5 -3 23 -12t26 -13.5t21 -13.5t23 -18q-36 0 -40 -5q43 -27 76 -61q-31 4 -39 -3q4 -5 21.5 -20.5t26.5 -26.5t16 -23
q-31 11 -45 0q2 -5 25 -24.5t34 -42.5q-41 2 -43 0q8 -32 38 -72q-8 0 -18 -0.5t-19 -0.5h-18.5t-16.5 -0.5t-13 -0.5t-9 -0.5t-2 -1.5l25 -23q-43 -11 -106 9q-5 -4 -6 -7.5t3.5 -9t7 -8t11.5 -9.5q-51 6 -89 21q-4 -3 -4.5 -7t2.5 -8t6.5 -7t8.5 -7.5t8 -7.5q-49 9 -93 35
q-6 -5 -7 -10t2 -10.5t5.5 -8.5t8.5 -10q-14 5 -26.5 12t-17 10t-18.5 15l-14 12l-4.5 -4.5t-4 -4.5t-2.5 -4.5t-1.5 -6.5t2 -7.5t4.5 -10.5q-34 19 -61 53q-8 -5 -10.5 -10t-1 -16.5l1.5 -11.5q-13 10 -24 22t-23.5 26t-19.5 22q-8 -6 -12 -31zM1028 576q-51 -1 -102 20.5
t-81 52t-30 54.5q0 46 60.5 82t153.5 37q96 1 155.5 -30t59.5 -77q0 -32 -34 -65t-84.5 -53.5t-97.5 -20.5zM537 525q21 12 61 15t47 7q-4 15 -26 24q23 1 48 0t61 -8t64.5 -20t53.5 -39t34 -62q-104 -113 -375 -251q245 81 409 214q38 -18 55 -48t14 -62t-17.5 -66.5
t-34.5 -62t-41 -48.5q-5 25 -12 31q-8 -8 -20 -22t-23.5 -26t-23.5 -22q0 3 0.5 9.5t0.5 10.5t-3 9t-8 9q-26 -32 -63 -53q3 7 4.5 12t1 9t-1.5 6t-4 6t-4 5q-1 -1 -10 -8.5t-11.5 -9t-11 -7.5t-14 -9t-14 -7.5t-17.5 -7.5q0 1 2 2q7 8 10 12.5t3.5 11.5t-5.5 13
q-45 -27 -92 -35q2 3 7 7.5t8.5 7.5t6.5 7t2.5 8t-4.5 7q-41 -15 -89 -21l3 3q7 6 10 9t6.5 7.5t2.5 8t-5 6.5q-63 -20 -106 -9l23 23q2 2 -28.5 3t-66.5 1q28 38 37 72q-2 2 -41 0q10 23 32.5 42.5t25.5 24.5q-14 11 -44 0q6 12 15.5 23t26.5 26.5t22 20.5q-9 7 -39 3
q35 37 74 61q-4 5 -38 5q9 9 22 18t21.5 13.5t26 13.5t23.5 12q-13 9 -40 9q21 17 97 40q-7 12 -28 16zM777 622q-91 -15 -167 12.5t-120 95.5t-41 163q3 38 116 -44q108 -78 181 -160q57 -63 31 -67zM364 1368q35 15 66 -66q37 -95 38 -211q1 -114 -42 -117q-5 -1 -11 1
q-63 35 -95 92t-32.5 113.5t20 108t56.5 79.5zM727 1761q40 -33 25 -117t-67 -146q-61 -70 -128.5 -100t-114.5 -2q-22 16 -31 54.5t1 93t40 106.5q32 46 73.5 76t79 40t69.5 8.5t53 -13.5zM622 1282q72 47 164.5 20.5t150.5 -111.5q56 -86 44.5 -179.5t-84.5 -140.5
t-165.5 -20t-149.5 112q-57 86 -45 179t85 140zM1030 1984q40 1 83.5 -15t74.5 -38.5t51 -47t20 -41.5q0 -32 -74 -54.5t-149 -19.5q-48 -1 -102.5 10t-94.5 32t-39 45q-1 13 19 35.5t50.5 44t74.5 36t86 13.5zM1265 1485v-2q-1 -89 -70.5 -152.5t-166.5 -62.5
q-98 1 -167 64.5t-68 152.5v2q0 89 69.5 152t167.5 62q97 -1 166 -64t69 -152zM1594 1655q34 -43 43 -105.5t-2.5 -111.5t-33.5 -71q-84 -64 -235 106q-57 65 -78 157t17 131q20 15 53 18.5t72 -5t83.5 -39.5t80.5 -80zM1685 1363q36 -28 56.5 -79.5t20.5 -108t-32 -114
t-94 -92.5q-34 -9 -47 47q-19 79 9 207q26 121 66 140q10 5 21 0z" />
</svg>