<svg xmlns="http://www.w3.org/2000/svg" xmlns:xlink="http://www.w3.org/1999/xlink" version="1.1" viewBox="-10 0 2068 2048">
   <path fill="currentColor"
d="M1 1851v-605q0 -220 87 -420t246 -348.5t367 -222.5l697 -247q65 -23 122.5 17.5t57.5 109.5q0 71 -60 112l-137 91q148 0 270 84.5t174 223.5l200 532q36 97 14 197.5t-95 174.5q-50 50 -114.5 77t-133.5 27h-15q-80 0 -152.5 -34.5t-124.5 -96.5l-133 -159
q-74 26 -153 26h-1q-36 0 -75 -6q-9 -1 -26 -5.5t-19 -4.5q-90 -24 -161.5 -79t-116.5 -134q-14 -24 -40.5 -31.5t-49.5 6.5q-24 14 -31 40t7 50q75 129 205 209t285 86l194 292q25 38 25 83q0 62 -44.5 107t-106.5 45h-964q-82 0 -140 -57.5t-58 -139.5zM1348 865
q41 0 70 -29t29 -70t-29 -70.5t-70 -29.5t-69.5 29t-28.5 70.5t28.5 70.5t69.5 29z" />
</svg>