<svg xmlns="http://www.w3.org/2000/svg" xmlns:xlink="http://www.w3.org/1999/xlink" version="1.1" viewBox="-10 0 2058 2048">
   <path fill="currentColor"
d="M640.5 0q52.5 0 90 38t37.5 90v128h512v-128q0 -52 38 -90t90.5 -38t90 38t37.5 90v128h192q80 0 136 56t56 136v192h-1792v-192q0 -80 56.5 -136t135.5 -56h192v-128q0 -52 38 -90t90.5 -38zM128 769h1792v1088q0 79 -56 135t-136 56h-1408q-79 0 -135.5 -56t-56.5 -135
v-1088zM448 1024q-26 0 -45 19t-19 45v256q0 26 19 45t45 19h1152q27 0 45.5 -19t18.5 -45v-256q0 -26 -18.5 -45t-45.5 -19h-1152z" />
</svg>