<svg xmlns="http://www.w3.org/2000/svg" xmlns:xlink="http://www.w3.org/1999/xlink" version="1.1" viewBox="-10 0 2068 2048">
   <path fill="currentColor"
d="M1828 2048h-1608q-90 0 -155 -64.5t-65 -154.5v-1610q0 -90 65 -154.5t155 -64.5h1608q90 0 155 64.5t65 154.5v1610q0 90 -65 154.5t-155 64.5zM912 670q0 -101 -51 -154t-131 -53q-85 0 -133.5 57.5t-48.5 145.5v708q0 92 48 150t138 58q78 0 128 -52.5t50 -155.5v-190
l278 345q43 53 119 54.5t135 -54.5q50 -51 54 -118t-34 -112l-226 -287l186 -268q21 -32 27.5 -71t-7 -80.5t-46.5 -73.5q-39 -37 -89 -49.5t-103 8t-90 73.5l-204 296v-177z" />
</svg>