<svg xmlns="http://www.w3.org/2000/svg" xmlns:xlink="http://www.w3.org/1999/xlink" version="1.1" viewBox="-10 0 2068 2048">
   <path fill="currentColor"
d="M1408 0h512q52 0 90 38t38 90v512q0 39 -22 71.5t-58 46.5q-35 15 -73.5 7.5t-66.5 -35.5l-164 -166l-678 678q-37 38 -90 38t-90.5 -37.5t-37.5 -90t38 -90.5l676 -678l-166 -164q-27 -28 -34.5 -66.5t6.5 -73.5q15 -36 47.5 -58t72.5 -22zM320 128h448q52 0 90 38
t38 90.5t-38 90t-90 37.5h-448q-27 0 -45.5 19t-18.5 45v1280q0 27 18.5 45.5t45.5 18.5h1280q26 0 45 -18.5t19 -45.5v-448q0 -53 37 -90.5t89.5 -37.5t90 37.5t37.5 90.5v448q0 88 -42.5 161t-116 116t-159.5 43h-1280q-87 0 -160.5 -43t-116.5 -116t-43 -161v-1280
q0 -87 43 -160.5t116.5 -116.5t160.5 -43z" />
</svg>