<svg xmlns="http://www.w3.org/2000/svg" xmlns:xlink="http://www.w3.org/1999/xlink" version="1.1" viewBox="-10 0 2068 2048">
   <path fill="currentColor"
d="M0 896q0 -126 73.5 -226t190.5 -139q-8 -47 -8 -83q0 -91 35.5 -174t95.5 -143t143 -95.5t174 -35.5q128 0 233.5 65.5t162.5 174.5q45 -52 109 -82t135 -30q133 0 226.5 94t93.5 226q0 28 -6 64h6q105 0 193 51.5t139.5 140t51.5 193t-51.5 192.5t-139.5 139.5
t-193 51.5h-256h-74l118 -234q30 -60 15.5 -126.5t-67 -108.5t-120 -42.5t-120.5 41.5l-586 470h-190q-105 0 -193 -51.5t-139.5 -139.5t-51.5 -193zM1320.5 911.5q17.5 13.5 22.5 35.5t-5 42l-210 419h280q21 0 38 12t23.5 31.5t1 39.5t-22.5 32l-640 511q-18 14 -40 14
t-40 -13.5t-23 -36t5 -43.5l212 -419h-282q-20 0 -37 -11.5t-23 -30.5q-7 -19 -1.5 -39t21.5 -33l640 -511q18 -13 40.5 -13t40 13.5z" />
</svg>