<svg xmlns="http://www.w3.org/2000/svg" xmlns:xlink="http://www.w3.org/1999/xlink" version="1.1" viewBox="-10 0 2058 2048">
   <path fill="currentColor"
d="M128 128q0 -52 38 -90t90 -38h1446q38 0 64 26t26 64t-26 64l-154 155q-31 31 -52 75h-1412q-20 -96 -20 -202v-54zM1536 512q6 71 52 132l188 252h-1358q-161 -165 -236 -384h1354zM634 1066q-9 -5 -64 -42h1290q60 122 60 264q0 62 -12 120h-720q-37 -36 -90 -69z
M1280 1536v1h586q-42 96 -122 175l-312 314q-22 22 -56 22q-38 0 -62 -28t-18 -65l24 -143q22 -144 -40 -276z" />
</svg>