<svg xmlns="http://www.w3.org/2000/svg" xmlns:xlink="http://www.w3.org/1999/xlink" version="1.1" viewBox="-10 0 2058 2048">
   <path fill="currentColor"
d="M1084.5 61q70.5 0 129 37t87.5 98q41 -15 85 -15q100 0 170.5 70.5t70.5 170.5v7q27 -7 60 -7q100 0 170 70t70 170v663q0 12 -1 18q-8 128 -61.5 243t-138.5 200.5t-200.5 139t-243.5 61.5q-6 1 -17 1h-30h-31q-192 0 -369.5 -73t-312.5 -209l-331 -331
q-70 -71 -70 -170t70.5 -170t171 -71t170.5 71l10 10v-623q0 -100 70.5 -170.5t170.5 -70.5q44 0 84 15q30 -61 88 -98t128.5 -37zM1024 422v512q0 38 -26 64.5t-63.5 26.5t-64 -26.5t-26.5 -64.5v-512q0 -25 -17.5 -42.5t-42.5 -17.5t-43 17.5t-18 42.5v841q0 28 -15 50.5
t-41 33.5q-25 10 -52.5 4.5t-46.5 -24.5l-164 -165q-17 -17 -41.5 -17t-42 17t-17.5 43t17 43l329 330q111 110 255 170t300 60h31h18q1 0 4 -0.5t4 -0.5q129 -6 238 -72t175 -175.5t72 -238.5q0 -1 0.5 -3.5t0.5 -3.5v-652q0 -25 -17.5 -42.5t-42.5 -17.5t-42.5 17.5
t-17.5 42.5v1v271q0 37 -26.5 63t-64 26t-64 -26t-26.5 -63v-302v-210q0 -25 -17.5 -42.5t-42 -17.5t-42.5 17.5t-18 42.5v512q0 38 -26.5 64.5t-64 26.5t-64.5 -26.5t-27 -64.5v-512v-121q0 -25 -17.5 -42.5t-42 -17.5t-42.5 17.5t-18 42.5v121z" />
</svg>