<svg xmlns="http://www.w3.org/2000/svg" xmlns:xlink="http://www.w3.org/1999/xlink" version="1.1" viewBox="-10 0 2058 2048">
   <path fill="currentColor"
d="M512 0h640v512q0 52 38 90t90 38h512v1153q0 106 -75 180.5t-181 74.5h-1024q-106 0 -181 -74.5t-75 -180.5v-1537q0 -106 75 -181t181 -75zM1280 0l512 512h-512v-512zM704 1024q-26 0 -45.5 19t-19.5 45t19.5 45t45.5 19h639q26 0 45 -19t19 -45t-19 -45t-45 -19h-639z
M704 1280q-26 0 -45.5 19t-19.5 45t19.5 45t45.5 19h639q26 0 45 -19t19 -45t-19 -45t-45 -19h-639zM704 1536q-26 0 -45.5 19.5t-19.5 45.5t19.5 45t45.5 19h639q26 0 45 -19t19 -45t-19 -45.5t-45 -19.5h-639z" />
</svg>