<svg xmlns="http://www.w3.org/2000/svg" xmlns:xlink="http://www.w3.org/1999/xlink" version="1.1" viewBox="-10 0 2068 2048">
   <path fill="currentColor"
d="M0 341q0 -94 67 -160.5t161 -66.5h568v455q0 47 33.5 80t80.5 33h456v497l-338 336q-44 44 -60 106l-52 214q-13 54 4 99h-692q-94 0 -161 -67t-67 -161v-1365zM1366 569h-456v-455zM1954 952l52 51q42 42 42 100.5t-42 100.5l-104 105l-254 -253l106 -104
q42 -42 100 -42t100 42zM1110 1596l458 -459l252 252l-458 460q-23 22 -54 30l-214 52q-30 8 -52 -14q-24 -24 -16 -54l54 -214q7 -31 30 -53z" />
</svg>