<svg xmlns="http://www.w3.org/2000/svg" xmlns:xlink="http://www.w3.org/1999/xlink" version="1.1" viewBox="-10 0 2068 2048">
   <path fill="currentColor"
d="M1628 777q14 -46 -4 -89.5t-58.5 -65.5t-86.5 -12q-26 6 -46 -4t-28 -28.5t-8 -38.5t14 -37.5t39 -22.5q48 -10 96 -2.5t86 29.5t69.5 55t47.5 74.5t20 88t-13 94.5q-8 24 -26.5 36t-38.5 10t-37.5 -12t-25.5 -30.5t0 -44.5zM860 1853q-128 0 -252.5 -23.5t-233.5 -71
t-193 -112t-132 -152t-48 -186.5q0 -132 79 -280.5t226 -294.5q205 -206 406 -276q164 -58 248 1q90 63 46 230l-6 22q-5 16 -1.5 23t11.5 8t16.5 -1t15.5 -4l7 -2q94 -40 179 -56t149 -7.5t104.5 40.5t46.5 90t-23 139q-5 11 -5.5 19.5t1 13t9 8.5t12 6t16.5 5
q188 59 234 196q43 129 -50 277q-98 156 -302 261q-248 127 -560 127zM1433.5 1268.5q-10.5 -109.5 -102 -194.5t-238.5 -125.5t-313 -23.5q-167 17 -302.5 85.5t-208 169.5t-62 210.5t102 194t238 124.5t313.5 23q166 -17 302 -85t208.5 -168.5t62 -210zM1392 207
q77 -18 149.5 -11.5t139 27.5t123.5 61t103.5 89.5t78.5 112t48 129t13 141.5t-26 148q-10 29 -31.5 43t-44.5 11t-43 -14.5t-29.5 -35.5t-0.5 -52q19 -59 19 -120t-17.5 -113.5t-48.5 -100t-74.5 -81.5t-95 -58t-110.5 -28.5t-120 6.5q-29 6 -52.5 -5t-33 -33t-10 -45.5
t16 -43.5t46.5 -27zM1078 1451q-25 57 -73.5 102t-107.5 69t-126 29.5t-129 -16.5q-60 -19 -104 -57.5t-65 -86.5t-19.5 -104t27.5 -110q34 -70 102 -119t147.5 -64t163.5 3q61 16 108.5 52t71.5 84t27 104.5t-23 113.5zM733 1331q-39 -16 -84 -1.5t-68 52.5
q-26 39 -15.5 78.5t50.5 57.5q38 18 84 3t72 -55q23 -39 11.5 -78t-50.5 -57zM863 1277q-16 -4 -32.5 2t-24.5 20q-10 16 -5.5 30.5t20.5 21.5q15 6 32 0t26 -22q8 -15 3.5 -30.5t-19.5 -21.5z" />
</svg>