<svg xmlns="http://www.w3.org/2000/svg" xmlns:xlink="http://www.w3.org/1999/xlink" version="1.1" viewBox="-10 0 2068 2048">
   <path fill="currentColor"
d="M750 750q29 29 66 55q96 -60 208 -60q107 0 204 55q32 -16 66 -50q40 -40 60 -76q-148 -102 -330 -102q-181 0 -334 106q28 40 60 72zM564 1050q143 37 236 157l88 -51v-17q0 -86 82 -123v-101q-147 -12 -262 -127q-132 -129 -132 -311t132 -311q54 -55 114 -85
q-114 51 -186 123q-136 135 -160 324q-23 186 70 340q-182 0 -329.5 112t-198.5 294q-26 113 -14 225q0 -71 18 -136q46 -177 204 -268q160 -92 338 -45zM546 1105q-25 -7 -92 -17q0 8 -2 30t-2 25q0 168 92 311q93 142 242 214q26 -49 38 -93q12 -38 12 -81
q-208 -114 -208 -351v-8q-51 -26 -80 -30zM2030 1274q-50 -186 -200 -298t-332 -112q89 -155 66 -339q-25 -187 -154 -321q-72 -72 -188 -123q55 33 110 85q132 129 132 311t-132 311q-104 106 -252 127v101q80 37 80 123v17l88 51q89 -124 238 -161q178 -47 336 44t204 269
q18 65 18 140q12 -117 -14 -225zM1214 1494q0 35 14 81q15 52 38 89q147 -68 240 -210q94 -143 94 -311q0 -1 -2 -27t-2 -28q-43 0 -94 13q-46 11 -80 30v12q0 237 -208 351zM1172 1588q-37 -149 22 -288l-90 -51q-37 30 -80 30t-80 -30l-88 55q58 131 20 288
q-46 176 -204 268q-160 91 -338 45q-63 -17 -126 -59q79 66 198 101q181 50 356 -23q173 -74 262 -235q94 161 264 233q172 72 354 21q102 -21 198 -97q-77 40 -126 55q-178 46 -336 -45q-159 -92 -206 -268z" />
</svg>