<svg xmlns="http://www.w3.org/2000/svg" xmlns:xlink="http://www.w3.org/1999/xlink" version="1.1" viewBox="-10 0 2068 2048">
   <path fill="currentColor"
d="M256 128h1536q105 0 180.5 75t75.5 181v1281q0 106 -75.5 180.5t-180.5 74.5h-1536q-105 0 -180.5 -74.5t-75.5 -180.5v-1281q0 -106 75.5 -181t180.5 -75zM608 384h-352v256h352v-256zM832 384v256h352v-256h-352zM1792 384h-352v256h352v-256zM256 896v256h352v-256
h-352zM1184 896h-352v256h352v-256zM1440 896v256h352v-256h-352zM608 1408h-352v257h352v-257zM832 1408v257h352v-257h-352zM1792 1408h-352v257h352v-257z" />
</svg>