<svg xmlns="http://www.w3.org/2000/svg" xmlns:xlink="http://www.w3.org/1999/xlink" version="1.1" viewBox="-10 0 2068 2048">
   <path fill="currentColor"
d="M2048 292v1464q0 121 -86 206.5t-206 85.5h-1464q-120 0 -206 -85.5t-86 -206.5v-1464q0 -121 86 -206.5t206 -85.5h1464q120 0 206 85.5t86 206.5zM1456 1268q290 -375 298 -585q14 -284 -212 -292q-304 -9 -412 343q29 -12 58 -18.5t58.5 -5t51 13.5t33 40.5t7.5 71.5
q-6 71 -100 220q-85 135 -131 144q-41 7 -72 -72q-41 -103 -101 -485q-20 -125 -72.5 -183t-137.5 -50q-30 3 -67 21.5t-85.5 56t-86 70t-99.5 88.5q-10 10 -42.5 40t-51.5 46l70 88q100 -70 114 -70q54 0 96 107.5t116 384.5q4 16 48 178q88 235 214 235q208 0 506 -387z
" />
</svg>