<svg xmlns="http://www.w3.org/2000/svg" xmlns:xlink="http://www.w3.org/1999/xlink" version="1.1" viewBox="-10 0 2068 2048">
   <path fill="currentColor"
d="M1124 219q14 -7 32 -13q20 -4 46 1q39 10 60 43l384 575q44 65 44 143v234q0 17 9.5 30.5t24.5 18.5l254 85q31 11 50.5 37.5t19.5 58.5v308q0 49 -40 81q-41 33 -88 18l-542 -144q-134 -35 -218 -146t-84 -250v-378q0 -42 30 -72.5t71.5 -30.5t72 30.5t30.5 72.5v255
q0 21 15 36.5t36 15.5t36 -15t15 -37v-271q0 -34 -16 -64l-278 -484q-5 -11 -10 -29q-4 -20 0 -45q10 -41 46 -64zM924 219q36 23 46 64q4 25 0 45q-3 13 -12 29l-274 484q-18 32 -18 64v271q0 22 15 37t36 15t36 -15.5t15 -36.5v-255q0 -42 30.5 -72.5t72 -30.5t71.5 30.5
t30 72.5v378q0 139 -84 250t-218 146l-540 144q-47 14 -88 -18q-42 -31 -42 -81v-308q0 -33 19.5 -59.5t50.5 -37.5l254 -84q15 -5 25.5 -18.5t10.5 -30.5v-235q0 -79 42 -142l382 -575q22 -32 62 -43q23 -4 46 0q18 6 32 13v-1z" />
</svg>