<svg xmlns="http://www.w3.org/2000/svg" xmlns:xlink="http://www.w3.org/1999/xlink" version="1.1" viewBox="-10 0 2068 2048">
   <path fill="currentColor"
d="M1295 336q-72 144 -131 256.5t-85 159t-45 81t-24 47.5t-8 34l-18 109q-9 60 -46 113l-496 693q-18 26 -48.5 39t-63.5 10q-100 -12 -186.5 -75t-131.5 -154q-14 -31 -11 -63t22 -58l497 -694q35 -50 90 -79l98 -53q18 -10 29 -19t37.5 -38t62 -68.5t123.5 -131.5
t201 -206q1 -5 2 -11t1.5 -8t2.5 -4.5t5 -3.5q2 -1 6 -2l6 -1.5t5 -2t4 -4t0 -5.5l-1 -15q-1 -5 3 -8.5t8 -3.5q37 0 85 33q48 34 60 70q4 10 -8 14l-16 4q-8 2 -8.5 9.5t1.5 15.5q0 2 -0.5 3.5t-1.5 3t-2 2.5t-3.5 2.5t-4 2.5t-5 3t-5.5 3zM724 291q-2 -1 -6 -2l-6 -1.5
t-5.5 -2t-4 -3t-2 -4t0.5 -5.5q14 -38 59 -71q46 -33 85 -33q9 0 10.5 9.5t-0.5 18.5q0 3 1 5.5t3.5 4t4.5 2l6 1.5t6 2q3 1 5 3.5t3 5t2 8.5t2 10l86 86q9 8 -1 18q-91 94 -135 142q-6 6 -11 -2q-35 -68 -74 -148q-3 -2 -7.5 -4.5t-6.5 -3.5t-4.5 -3t-3 -4t-0.5 -4
q2 -8 1.5 -15.5t-8.5 -9.5zM2025 1527q19 27 22 59.5t-11 62.5q-44 92 -131.5 155t-188.5 75q-32 3 -61.5 -10.5t-48.5 -39.5l-497 -693q-36 -52 -45 -113q-7 -51 -1 -99q2 -11 4 -18t6.5 -15.5t16 -29t27 -48t45.5 -83t65 -122.5q5 -8 11 -1q4 4 11 12q37 41 52.5 55.5
t39.5 27.5q9 4 31 15.5t28 15t23 12.5t23 13t18.5 12.5t18.5 14t15 14t16 17t14 18.5z" />
</svg>