<svg xmlns="http://www.w3.org/2000/svg" xmlns:xlink="http://www.w3.org/1999/xlink" version="1.1" viewBox="-10 0 2068 2048">
   <path fill="currentColor"
d="M1790 331.5q0 120.5 -85 205.5t-205 85t-205 -85t-85 -205.5t85 -206t205 -85.5t205 85.5t85 206zM581 966.5q0 120.5 -85 206t-205 85.5t-205.5 -86t-85.5 -205.5t85.5 -205t205.5 -85.5t205 85t85 205.5zM207 1372q134 28 258 -32q72 142 199 239.5t282 130.5
q48 11 74 14q2 136 90 250q-145 2 -285 -39t-260 -121q-121 -82 -212.5 -195t-145.5 -247zM1724 1716.5q0 120.5 -85 206t-205 85.5t-205 -85.5t-85 -206t85 -205.5t205 -85t205 85t85 205.5zM1693 1394q101 -160 107 -352q6 -193 -83 -360q116 -70 167 -196
q86 126 127.5 273t35.5 300t-60 296.5t-150 262.5q-34 -136 -144 -224zM377 564h1q-47 -10 -86 -10h-32q67 -119 166 -215t221 -161q249 -131 528 -108q-62 75 -84 174q-5 29 -7 68q-170 1 -324 82q-151 81 -248 224q-63 -40 -135 -54z" />
</svg>