<svg xmlns="http://www.w3.org/2000/svg" xmlns:xlink="http://www.w3.org/1999/xlink" version="1.1" viewBox="-10 0 2068 2048">
   <path fill="currentColor"
d="M905 372q27 88 20.5 166.5t-46.5 139t-104 81.5q-96 31 -195 -37.5t-142 -196.5q-26 -89 -19.5 -167.5t47 -139t103.5 -80.5q97 -32 195 36.5t141 197.5zM402 795q57 97 44.5 195t-85.5 141q-72 42 -165 2.5t-149 -137t-44 -195.5t84.5 -140.5t165 -3t148.5 137.5h1z
M277 1605q44 -117 99 -217.5t112 -171.5t119.5 -128t119.5 -92t113.5 -58.5t101 -32.5t82.5 -9t82.5 9t101.5 32.5t114 58.5t119.5 92t119 128t112 171.5t98.5 217.5q20 55 20 123v5q0 77 -54.5 132t-131.5 55q-68 0 -136 -17l-352 -88q-45 -12 -93 -12t-94 12l-352 88
q-68 17 -135 17q-77 0 -132 -55t-55 -132v-5q0 -65 21 -123zM1686 1131q-73 -42 -85 -140.5t45 -196t149.5 -136.5t164.5 3q73 42 85 140t-45 195.5t-149 137t-165 -2.5zM1240 759q-63 -21 -103.5 -81.5t-46.5 -139t20 -166.5q43 -129 142 -197.5t195 -36.5
q64 20 104.5 80.5t47 139t-20.5 167.5q-42 128 -141.5 196.5t-196.5 37.5z" />
</svg>