<svg xmlns="http://www.w3.org/2000/svg" xmlns:xlink="http://www.w3.org/1999/xlink" version="1.1" viewBox="-10 0 2068 2048">
   <path fill="currentColor"
d="M1495.5 1310q-35.5 0 -60.5 -25t-25 -60t25 -60t60.5 -25t60 25t24.5 60t-24.5 60t-60 25zM552.5 1310q-35.5 0 -60 -25t-24.5 -60t24.5 -60t60 -25t60.5 25t25 60t-25 60t-60.5 25zM1526 797l170 -295q6 -9 6 -20q0 -14 -10.5 -25t-25.5 -11q-21 0 -32 21l-172 298
q-207 -93 -438 -93t-438 93l-17.5 -30.5t-43 -74.5l-51 -88t-43.5 -74l-17 -31q-11 -21 -32 -21q-15 0 -25.5 11t-10.5 25q0 11 6 20l170 295q-222 120 -361 332.5t-161 472.5h2048q-22 -260 -161 -472.5t-361 -332.5z" />
</svg>