<svg xmlns="http://www.w3.org/2000/svg" xmlns:xlink="http://www.w3.org/1999/xlink" version="1.1" viewBox="-10 0 2068 2048">
   <path fill="currentColor"
d="M872 424l492 491q44 45 44 109q0 65 -44 110l-492 491q-40 40 -96 40q-57 0 -96.5 -40.5t-39.5 -96.5v-248h-512q-52 0 -90 -38t-38 -90v-256q0 -52 38 -89.5t90 -37.5h512v-250q0 -56 39.5 -95.5t96.5 -39.5q55 0 96 40zM1408 1665h256q53 0 90.5 -38t37.5 -91v-1024
q0 -53 -37.5 -90.5t-90.5 -37.5h-256q-52 0 -90 -38t-38 -90t38 -90t90 -38h256q105 0 193 51.5t139.5 140t51.5 192.5v1024q0 104 -51.5 192.5t-139.5 140t-193 51.5h-256q-52 0 -90 -37.5t-38 -90t38 -90t90 -37.5z" />
</svg>