<svg xmlns="http://www.w3.org/2000/svg" xmlns:xlink="http://www.w3.org/1999/xlink" version="1.1" viewBox="-10 0 2058 2048">
   <path fill="currentColor"
d="M1308 0q-247 0 -405 111q-157 111 -136 388q-164 -59 -206 -227q-30 -105 -142 -84q-46 12 -69 55q-23 42 -11 88q51 193 187 292q135 98 291 128q67 221 13 428l-4 8v5q-46 155 -290 193q-204 -46 -293 96q-67 114 -36 260q32 146 124 260q34 47 88 47q41 0 71 -26
q88 -75 21 -163q-54 -68 -75 -149q-21 -83 -5 -103q46 0 72 8q68 18 205 38q72 22 273 34q315 16 558 -242q244 -259 298 -648q54 -363 -107 -579q-162 -218 -422 -218z" />
</svg>