<svg xmlns="http://www.w3.org/2000/svg" xmlns:xlink="http://www.w3.org/1999/xlink" version="1.1" viewBox="-10 0 2068 2048">
   <path fill="currentColor"
d="M312 609q0 -113 55.5 -208.5t151 -151t208 -55.5t208 55.5t151.5 151t56 208.5t-56 208.5t-151.5 151t-208 55.5t-208 -55.5t-151 -151t-55.5 -208.5zM1 1757q0 -118 45.5 -225t122.5 -184.5t184 -123t225 -45.5h297q117 0 224 45.5t184 123t123 184.5t46 225
q0 41 -28 69t-68 28h-1258q-41 0 -69 -28t-28 -69zM2026 768l-415 415q-24 23 -56 23t-54 -23l-207 -208q-24 -23 -24 -55t23.5 -55t55.5 -23t55 23l152 153l360 -360q23 -23 54.5 -23t54 23t23 55t-22.5 55h1z" />
</svg>