<svg xmlns="http://www.w3.org/2000/svg" xmlns:xlink="http://www.w3.org/1999/xlink" version="1.1" viewBox="-10 0 2058 2048">
   <path fill="currentColor"
d="M1244 1198q47 0 77.5 30.5t30.5 77t-30.5 77t-77.5 30.5t-78.5 -31t-31.5 -77t31.5 -76.5t78.5 -30.5zM710 1305q0 -47 30.5 -77t77 -30t77.5 30.5t31 76.5q0 47 -30.5 77.5t-77.5 30.5t-77.5 -30.5t-30.5 -77.5zM1024 636q145 0 276.5 56t226.5 150.5t151 225t56 274.5
t-56 274.5t-151 225t-226.5 150.5t-276 56t-276 -56t-227 -150t-151.5 -225t-56 -275v-1342l180 908q43 -69 113.5 -123.5t146 -85.5t145.5 -47t125 -16zM1024 1868q108 0 206 -41.5t169 -112t113 -168t42 -204.5t-42 -204.5t-112.5 -168t-168.5 -112t-206.5 -41.5
t-206.5 41.5t-169 112t-113 168t-42 204.5t42 204.5t113 168t169 112t206 41.5z" />
</svg>