<svg xmlns="http://www.w3.org/2000/svg" xmlns:xlink="http://www.w3.org/1999/xlink" version="1.1" viewBox="-10 0 2058 2048">
   <path fill="currentColor"
d="M1712 1389h-26h-50h-164h-50h-50h-235q-21 0 -36 15q-14 14 -14 35v30q0 50 50 50h163q-32 25 -90 46q-50 19 -94 29l-42 9l-50 8q-198 0 -338 -140t-140 -338q0 -185 125 -319t307 -151l16 46l9 21l21 71l29 84l29 105q16 47 63 30l122 -38l122 -38q50 -11 33 -63
l-134 -424l-138 -424q-16 -45 -63 -29h-9l-8 4q-4 2 -46 13l-114 38l-67 21q-46 16 -29 63l92 289q-255 42 -425 239t-170 462q0 223 123 403t321 260q-251 47 -251 143v58q0 51 50 51h419h51h50h415q51 0 51 -51v-58q0 -96 -252 -143q5 -5 21 -11q17 -6 21 -10
q171 -88 272 -235q33 -21 68 -21h16q51 0 51 -50v-30q0 -50 -25 -50z" />
</svg>