<svg xmlns="http://www.w3.org/2000/svg" xmlns:xlink="http://www.w3.org/1999/xlink" version="1.1" viewBox="-10 0 2058 2048">
   <path fill="currentColor"
d="M1024 1559q167 -211 206 -380q39 -154 -49 -240q-66 -65 -166 -61q-101 4 -161 74q-72 86 -36 227q33 163 206 380zM1656 1894q59 -26 103 -70.5t65 -97.5t23 -112.5t-23 -115.5q-140 -340 -524 -1093q-5 -8 -13 -25q-20 -40 -30 -59.5t-28.5 -51.5t-31.5 -47.5
t-33.5 -36.5t-40 -30.5t-45 -16.5t-54.5 -7q-26 0 -48 4t-41 14t-34.5 19.5t-30.5 27.5t-25.5 31.5t-24.5 38t-22 39.5t-22.5 44t-23.5 45q0 1 -243.5 498.5t-284.5 605.5q-21 56 -21 112.5t17 104.5t49.5 89t74.5 68t95.5 38.5t108.5 3.5q177 -16 390 -251
q-200 -254 -248 -455q-15 -75 -10.5 -142.5t32 -125.5t70.5 -100.5t105.5 -66.5t136.5 -24q56 0 108 15t97.5 44t77.5 74t50 101t13 130t-31 156.5t-84 184t-145 209.5q304 337 546 231zM1870 1272l39 85t39 95q32 96 29 183.5t-41.5 163t-97 131t-137.5 87t-163 31.5
q-20 0 -31 -0.5t-46 -5.5t-63 -14.5t-74.5 -30.5t-90 -50t-99 -76.5t-110.5 -107.5q-261 285 -514 285q-84 0 -163 -31.5t-137.5 -87t-97 -131t-41.5 -163t29 -183.5q7 -20 30 -73.5t156.5 -332.5t349.5 -713q31 -65 55.5 -108t60 -89.5t72.5 -73.5t88 -44.5t112 -17.5
q50 0 76 2t67.5 21.5t67 47t75.5 96.5t93 150.5t118 228t153 310.5t196 416z" />
</svg>