<svg xmlns="http://www.w3.org/2000/svg" xmlns:xlink="http://www.w3.org/1999/xlink" version="1.1" viewBox="-10 0 2058 2048">
   <path fill="currentColor"
d="M1692 844q23 9 93.5 119.5t70.5 135.5q0 9 -9 16t-19 7q-38 -6 -90.5 -16t-82 -14t-61.5 -4q-100 0 -181 26t-193 83q-8 4 -12 7t-8.5 11.5t-6.5 18t-7 31t-10 45t-15 66.5t-21 90q-22 83 -60 164.5t-94.5 157.5t-123.5 133.5t-152.5 92t-175.5 34.5q-156 0 -249 -96.5
t-93 -254.5q0 -44 14.5 -97.5t40 -103t67 -83t88.5 -33.5q26 0 81.5 17t104.5 43.5t50 49.5q-1 2 -20 13.5t-45.5 32t-53 47.5t-45 67t-18.5 84q0 60 48 79q57 23 128 -30q113 -86 165 -307q13 -57 21 -120q0 -2 1 -4q0 -9 -2.5 -10.5t-18.5 -0.5h-24q-263 0 -408.5 -142
t-145.5 -405q0 -73 14.5 -150.5t43.5 -155t70.5 -149t99.5 -133.5t126.5 -108t156 -72t183.5 -26q215 0 323.5 96t108.5 306q0 85 -16 180t-41 204t-35 178l2 4q11 -6 59.5 -33.5t63 -35t55 -26.5t64.5 -25t60.5 -12.5t71.5 -6.5q21 0 62 15zM992 507q22 -105 22 -170
q0 -22 -1 -36t-5.5 -30.5t-12.5 -26t-23.5 -16t-37.5 -6.5q-42 0 -90 28q-63 34 -112.5 96.5t-78 136.5t-43 150.5t-14.5 150.5q0 40 5.5 78.5t20 78t36 68.5t56 47.5t78.5 18.5q6 0 21.5 1t23 0.5t18.5 -3t17 -9.5t8 -19q19 -90 56 -269t56 -269z" />
</svg>