<svg xmlns="http://www.w3.org/2000/svg" xmlns:xlink="http://www.w3.org/1999/xlink" version="1.1" viewBox="-10 0 2068 2048">
   <path fill="currentColor"
d="M1750 298q-298 -298 -726 -298q-424 0 -722 298q-302 307 -302 726t302 721q304 303 722 303t730 -303q294 -293 294 -721q0 -429 -298 -726zM1624 1611q-256 252 -600 252q-340 0 -592 -252q-246 -247 -246 -587t252 -592q238 -248 586 -248t596 248q244 239 244 592
q0 351 -240 587zM1696 1040l-206 -84v-251l-626 -261l-280 122v290h4l-248 105v264l264 109l266 -109l16 8l536 223l14 4l12 -4l248 -105l16 -13v-285zM1402 1380v-4v4l-470 -197v-185l470 194v4v184zM1436 1141l-152 -63l164 -71l152 67zM1650 1296l-186 80v-180l186 -76
v176z" />
</svg>