<svg xmlns="http://www.w3.org/2000/svg" xmlns:xlink="http://www.w3.org/1999/xlink" version="1.1" viewBox="-10 0 2068 2048">
   <path fill="currentColor"
d="M839 14q47 -24 98 -7t74 64l100 201l170 33q116 22 213 98l505 393q42 32 48 85t-27 94q-32 41 -84.5 47.5t-93.5 -25.5l-289 -224l-286 127l133 110q70 57 98 143t8 175l-69 301q-13 55 -65 84l346 133q20 9 58 9h112q40 0 68 28.5t28 68t-28 68t-68 28.5h-112
q-63 0 -127 -24l-1408 -538q-69 -26 -123 -80l-89 -90q-28 -29 -28 -68.5t28.5 -67t67.5 -28t67 28.5l90 89q26 26 56 37l89 34q-4 -8 -8 -20q-17 -50 7 -97t74 -64l297 -100v-213q0 -73 38.5 -135t103.5 -94l180 -90l-30 -6q-58 -12 -105 -48t-74 -89l-100 -199
q-23 -48 -6.5 -98.5t63.5 -73.5zM556 1400l636 244q-13 -34 -4 -72l69 -302q8 -38 -21 -62l-211 -177v76q0 61 -36.5 111.5t-94.5 70.5zM1728.5 1q79.5 0 135.5 56t56 135.5t-56 135.5t-136 56t-136 -56t-56 -135.5t56.5 -135.5t136 -56z" />
</svg>