<svg xmlns="http://www.w3.org/2000/svg" xmlns:xlink="http://www.w3.org/1999/xlink" version="1.1" viewBox="-10 0 2069 2048">
   <path fill="currentColor"
d="M335 1280q-31 0 -57 -10t-42 -24t-28 -28.5t-16 -24.5l-5 -10l-178 -357l-3 -6t-4.5 -14t-0.5 -17.5t12 -14t29 -6.5h104q10 0 17 2.5t14 10t10 11t10.5 17.5t9.5 17l117 238q1 2 2.5 4.5t7 10t12.5 13t19.5 10t26.5 4.5q23 0 39.5 -10.5t22.5 -21.5l5 -10l117 -238
q3 -4 8.5 -14t8 -14.5t8 -11.5t10 -10t11.5 -5.5t15 -2.5h105q30 0 38 14.5t2 29.5l-7 14l-179 357q-2 4 -5 10.5t-15.5 23t-28 29.5t-42 23.5t-57.5 10.5h-113zM1599 1280q-31 0 -57.5 -10t-42.5 -24t-27.5 -28.5t-16.5 -24.5l-5 -10l-178 -357l-3 -6t-4.5 -14t-0.5 -17.5
t12 -14t29 -6.5h105q10 0 17 2.5t13.5 10t9.5 12t10 17t10 16.5l117 238q1 2 2.5 4.5t7 10t12.5 13t19.5 10t26.5 4.5q23 0 39.5 -10.5t21.5 -21.5l6 -10l118 -238q3 -4 8.5 -14t8 -14.5t8 -11.5t10 -10t11.5 -5.5t15 -2.5h105q30 0 38 14.5t2 29.5l-7 14l-179 357
q-2 4 -5 10.5t-15.5 23t-28 29.5t-42 23.5t-57.5 10.5h-113zM1080 768q31 0 57.5 10t42.5 24t27.5 28.5t16.5 24.5l5 10l178 357l3 6t4.5 14t0.5 17.5t-12 14t-29 6.5h-105q-10 0 -17 -2.5t-13.5 -10t-9.5 -12t-10 -17t-10 -16.5l-117 -239q-2 -5 -6 -11.5t-21.5 -18
t-40.5 -11.5q-14 0 -26.5 4t-19.5 10t-12.5 12.5t-7.5 10.5l-2 4l-117 239q-3 4 -10 16.5t-10 17t-9.5 12t-13.5 10t-17 2.5h-105q-30 0 -38.5 -14.5t-1.5 -29.5l6 -14l180 -357q2 -4 5 -10.5t15.5 -23t28 -29.5t42 -23.5t57.5 -10.5h112z" />
</svg>