<svg xmlns="http://www.w3.org/2000/svg" xmlns:xlink="http://www.w3.org/1999/xlink" version="1.1" viewBox="-10 0 2058 2048">
   <path fill="currentColor"
d="M1590 1315q71 0 126.5 25.5t87.5 62.5t54 88t30.5 93t11.5 86q-156 189 -357.5 283.5t-423.5 94.5q-208 0 -395.5 -82t-321.5 -219.5t-213 -326.5t-79 -396q0 -208 79.5 -397.5t214 -327t321.5 -218.5t394 -81q202 0 385.5 77.5t327.5 222.5l-285 289
q-85 -87 -195.5 -133.5t-231.5 -46.5q-123 0 -235 48.5t-193 131t-129 196t-48 238.5q0 167 81 308.5t220.5 224t303.5 82.5q115 0 221.5 -42t189.5 -121v-160h59zM1536 801q83 0 155 30t127.5 86.5t87.5 144.5t32 197v140q-53 -92 -143 -141.5t-205 -49.5h-541v-407h487z
" />
</svg>