<svg xmlns="http://www.w3.org/2000/svg" xmlns:xlink="http://www.w3.org/1999/xlink" version="1.1" viewBox="-10 0 2058 2048">
   <path fill="currentColor"
d="M877 618q0 41 30 73t80 55.5t115.5 45.5t137.5 48.5t144.5 58t138 79.5t115.5 108t80 149.5t30 198.5q0 151 -58 268.5t-164.5 193t-252.5 114t-325 38.5q-324 0 -624 -129v-514q149 81 318 131.5t306 50.5q219 0 219 -140q0 -43 -29.5 -78t-80 -60.5t-115.5 -49.5
t-137 -50.5t-143.5 -57.5t-136.5 -77t-115.5 -103t-80 -140.5t-29.5 -184.5q0 -300 210 -473t560 -173q308 0 568 104v538q-128 -69 -282 -108.5t-286 -39.5q-193 0 -193 124z" />
</svg>