<svg xmlns="http://www.w3.org/2000/svg" xmlns:xlink="http://www.w3.org/1999/xlink" version="1.1" viewBox="-10 0 2068 2048">
   <path fill="currentColor"
d="M1850 812q0 44 -56 44h-16v-88h16q56 0 56 44zM1878 228q70 0 120 50t50 120v1252q0 70 -50 120t-120 50h-1708q-70 0 -120 -50t-50 -120v-1252q0 -70 50 -120t120 -50h1708zM1720 722v290h58v-116h6l80 116h68l-90 -122q66 -13 66 -82q0 -18 -5.5 -32t-12.5 -23.5
t-21 -16t-24.5 -9.5t-30.5 -4.5t-30 -1.5t-33 0.5t-31 0.5zM1522 722v292h160v-50h-104v-78h100v-50h-100v-64h104v-50h-160zM1278 722h-62l124 300h30l126 -300h-62l-78 196zM1078.5 710q-65.5 0 -112 46.5t-46.5 113t46 112.5t112.5 46t113 -46.5t46.5 -112t-47 -112.5
t-112.5 -47zM904 732q-41 -20 -81 -16t-72.5 22.5t-52.5 53.5t-20 76q0 42 20.5 77t53 53t72.5 22t80 -16v-68q-25 25 -55 30.5t-54.5 -5.5t-41.5 -36t-17 -57t16.5 -56.5t40.5 -36t54.5 -6t56.5 30.5v-68zM558 968q-41 0 -62 -38l-36 36q23 33 58 46.5t66 7t53.5 -32
t22.5 -63.5q0 -34 -17.5 -53t-66.5 -37q-25 -9 -34.5 -17t-9.5 -19q0 -16 14.5 -26t36 -7t39.5 23l30 -38q-34 -29 -76 -32.5t-72 19.5t-30 63q0 31 16.5 49t55.5 33q42 15 52 36t-4.5 35.5t-35.5 14.5zM198 1014q39 0 70 -13.5t49 -35.5t27.5 -47t9.5 -50q0 -65 -44 -105.5
t-112 -40.5h-84v292h84zM438 1014v-292h-58v292h58zM1934 1652v-514q-45 28 -134 75.5t-244 120t-322.5 140t-377.5 132.5t-400 100h1424q22 0 38 -16t16 -38zM264 794q30 26 30 74q0 46 -30 74q-26 22 -78 22h-16v-192h16q54 0 78 22z" />
</svg>