<svg xmlns="http://www.w3.org/2000/svg" xmlns:xlink="http://www.w3.org/1999/xlink" version="1.1" viewBox="-10 0 2058 2048">
   <path fill="currentColor"
d="M832 448v659q0 90 -60 170q-68 86 -68 195q0 87 43 161t116.5 117t161 43t161 -43t116 -117t42.5 -161q0 -109 -68 -196q-60 -79 -60 -169v-659q0 -80 -56 -136t-135.5 -56t-136 56t-56.5 136zM1024.5 0q91.5 0 174.5 35.5t142.5 95.5t95 143t35.5 174v659v2q3 5 8 11
q120 155 120 352q0 118 -45.5 224.5t-122.5 183.5t-183.5 122.5t-224 45.5t-224 -45.5t-183.5 -122.5t-123 -184t-46 -224q0 -197 120 -352q5 -6 8 -11v-2v-659q0 -91 35.5 -174t95.5 -143t143 -95.5t174.5 -35.5zM1024.5 1665q-79.5 0 -136 -56.5t-56.5 -136.5t56.5 -136
t136 -56t135.5 56t56 136t-56 136.5t-135.5 56.5z" />
</svg>