<svg xmlns="http://www.w3.org/2000/svg" xmlns:xlink="http://www.w3.org/1999/xlink" version="1.1" viewBox="-10 0 2068 2048">
   <path fill="currentColor"
d="M1536 358v461h358q64 0 109 45t45 109v717q0 64 -45 108.5t-109 44.5h-512h-306h-104h-818q-64 0 -109 -44.5t-45 -108.5v-717v-308q0 -64 45 -108.5t109 -44.5h50v-231q0 -31 23.5 -53.5t55 -22.5t54.5 22.5t23 53.5v231h204v-231q0 -31 22 -53.5t53.5 -22.5t54 22.5
t22.5 53.5v231h206v-154q0 -64 45 -108.5t109 -44.5h306q64 0 109 44.5t45 108.5zM1844 1382q0 -21 -15.5 -36t-36.5 -15h-102q-22 0 -37 15t-15 36v103q0 21 15 36t37 15h102q21 0 36.5 -15t15.5 -36v-103zM768 1536q22 0 37 -15t15 -36v-103q0 -21 -15 -36t-37 -15h-102
q-22 0 -37 15t-15 36v103q0 21 15 36t37 15h102zM410 1485v-103q0 -21 -15 -36t-35 -15h-104q-21 0 -36.5 15t-15.5 36v103q0 21 15.5 36t36.5 15h104q20 0 35 -15t15 -36zM1792 1024h-102q-22 0 -37 15t-15 36v102q0 21 15 36.5t37 15.5h102q20 0 36 -15.5t16 -36.5v-102
q0 -21 -15.5 -36t-36.5 -15zM820 767q0 -21 -15 -36t-37 -15h-102q-22 0 -37 15t-15 36v104q0 21 15 36t37 15h102q22 0 37 -15t15 -36v-104zM360 716h-104q-21 0 -36.5 15t-15.5 36v104q0 21 15.5 36t36.5 15h104q20 0 35 -15t15 -36v-104q0 -21 -15 -36t-35 -15zM820 1177
v-102q0 -21 -15 -36t-37 -15h-102q-22 0 -37 15t-15 36v102q0 21 15.5 36.5t36.5 15.5h102q21 0 36.5 -15.5t15.5 -36.5zM360 1229q20 0 35 -15.5t15 -36.5v-102q0 -21 -15 -36t-35 -15h-104q-21 0 -36.5 15t-15.5 36v102q0 21 16 36.5t36 15.5h104zM1332 1075
q0 -21 -15.5 -36t-36.5 -15h-102q-22 0 -37 15t-15 36v102q0 21 15.5 36.5t36.5 15.5h102q20 0 36 -15.5t16 -36.5v-102zM1280 409h-102q-21 0 -36.5 15.5t-15.5 36.5v102q0 21 15 36t37 15h102q21 0 36.5 -15t15.5 -36v-102q0 -21 -16 -36.5t-36 -15.5zM1332 767
q0 -21 -15.5 -36t-36.5 -15h-102q-22 0 -37 15t-15 36v104q0 21 15 36t37 15h102q21 0 36.5 -15t15.5 -36v-104z" />
</svg>