<svg xmlns="http://www.w3.org/2000/svg" xmlns:xlink="http://www.w3.org/1999/xlink" version="1.1" viewBox="-10 0 2058 2048">
   <path fill="currentColor"
d="M1534 769h-447v511h128q42 0 79 17l481 -528h-114q0 -7 1 -20.5t1.5 -24t0.5 -20.5q0 -189 -61 -355t-168 -283q105 37 196 95.5t155 123t115 138.5t81.5 140.5t48.5 131.5q8 28 -10.5 51t-48.5 23h-24l-562 616q22 44 22 87v385q0 79 -56.5 135t-136.5 56h-383
q-80 0 -136 -56t-56 -135v-385q0 -45 21 -87l-561 -616h-24q-30 0 -48.5 -23t-10.5 -51q18 -65 48.5 -131.5t81.5 -140.5t114.5 -138.5t154.5 -123t196 -95.5q-107 117 -168 283t-61 355q0 10 0.5 20.5t1.5 24t1 20.5h-113l480 528q37 -17 79 -17h128v-511h-447
q-1 -22 -1 -65q0 -149 43 -281t118 -230q72 -94 163 -143.5t188 -49.5t187.5 49.5t162.5 143.5q75 99 118.5 230.5t43.5 280.5q0 21 -2 65z" />
</svg>