<svg xmlns="http://www.w3.org/2000/svg" xmlns:xlink="http://www.w3.org/1999/xlink" version="1.1" viewBox="-10 0 2067 2048">
   <path fill="currentColor"
d="M1022 0q215 0 406 80.5t326.5 217.5t214 326.5t78.5 399.5q0 178 -55 339t-152 284.5t-225.5 214.5t-280.5 138.5t-312 47.5q-204 0 -392 -80.5t-326 -216.5t-220.5 -326.5t-82.5 -400.5q0 -163 49 -317t141 -281t216 -223t283 -149.5t332 -53.5zM1026 184
q-178 0 -336 70.5t-268 186.5t-173.5 268.5t-63.5 314.5q0 134 42.5 260.5t120.5 230t181 182t231.5 121.5t265.5 43q106 0 210 -27.5t196.5 -77.5t171.5 -125.5t136.5 -166.5t90 -204t32.5 -236q0 -173 -66 -329t-178 -268t-266.5 -177.5t-326.5 -65.5zM569 880
q11 -72 36 -131t56 -99.5t71 -71t77.5 -48t78.5 -28.5t71.5 -14.5t59.5 -3.5q118 0 212 37.5t151 95.5t95 134t52.5 147t14.5 140q0 81 -20 158.5t-63 148t-104.5 124t-150.5 85.5t-194 32q-52 0 -105 -10.5t-111 -39t-104.5 -72t-82.5 -115.5t-48 -163h258q11 187 224 187
q40 0 79 -17t77 -53.5t61.5 -107t23.5 -165.5q0 -70 -12 -125.5t-28.5 -89.5t-43 -58.5t-45.5 -35.5t-46.5 -16.5t-36 -6t-23.5 -0.5q-204 0 -230 182h75l-202 202l-203 -202h80z" />
</svg>