<svg xmlns="http://www.w3.org/2000/svg" xmlns:xlink="http://www.w3.org/1999/xlink" version="1.1" viewBox="-10 0 2058 2048">
   <path fill="currentColor"
d="M820 376v324l379 -542q52 -74 121.5 -113.5t139.5 -42t137.5 22.5t119.5 75q62 59 86.5 135.5t13 147.5t-51.5 129l-342 490l415 525q45 57 59 131t-9.5 152t-83.5 139q-68 68 -160.5 89.5t-176 -3t-135.5 -86.5l-512 -632v349q0 96 -26 170.5t-71.5 120t-104.5 68.5
t-129 23q-110 0 -189 -51t-116.5 -136t-37.5 -195v-1294q0 -105 38.5 -188.5t116 -133.5t183.5 -50q72 0 132 23t106 68t72 118t26 167z" />
</svg>