<svg xmlns="http://www.w3.org/2000/svg" xmlns:xlink="http://www.w3.org/1999/xlink" version="1.1" viewBox="-10 0 2068 2048">
   <path fill="currentColor"
d="M0 819q0 -104 41 -199t109.5 -163.5t163.5 -109t198 -40.5h716q104 0 199 40.5t163.5 109t109 163.5t40.5 199v205h-1740v-205zM1332 614q-15 0 -20 11l-40 79l-90 12q-11 1 -16 14q-5 10 4 20l66 62l-16 86q-1 12 8 19q11 7 22 2l80 -41l80 41q12 5 22 -2q12 -8 8 -19
l-14 -86l66 -62q9 -10 4 -20q-5 -13 -16 -14l-90 -12l-40 -79q-5 -11 -18 -11zM888 625q-4 -11 -17.5 -11t-18.5 11l-40 79l-90 12q-12 1 -18 14q-4 10 6 20l64 62l-14 86q-1 12 8 19q11 7 22 2l80 -41l80 41q11 5 22 -2q12 -8 8 -19l-16 -86l66 -62q10 -10 6 -20
q-6 -13 -16 -14l-90 -12zM409.5 614q-13.5 0 -17.5 11l-40 79l-90 12q-13 2 -18 14q-5 10 6 20l64 62l-14 86q-2 12 8 19t20 2l82 -41l80 41q11 5 22 -2q11 -8 8 -19l-16 -86l66 -62q9 -10 4 -20q-5 -13 -16 -14l-90 -12l-40 -79q-5 -11 -18.5 -11zM410 1126h614h308h102
h204h102v103v256q0 21 15 36t36.5 15t37 -15t15.5 -36v-154q0 -42 30 -72t72 -30t72 30t30 72v154q0 106 -75.5 181t-181 75t-180.5 -75t-75 -181v-154h-102v102v205q0 42 -30.5 72.5t-71.5 30.5h-206q-41 0 -71.5 -30.5t-30.5 -72.5v-205h-614v205q0 42 -30 72.5t-72 30.5
h-206q-41 0 -71.5 -30.5t-30.5 -72.5v-205v-307h410z" />
</svg>