<svg xmlns="http://www.w3.org/2000/svg" xmlns:xlink="http://www.w3.org/1999/xlink" version="1.1" viewBox="-10 0 2068 2048">
   <path fill="currentColor"
d="M2048 292v1464q0 121 -86 206.5t-206 85.5h-1464q-120 0 -206 -85.5t-86 -206.5v-1464q0 -121 86 -206.5t206 -85.5h1464q120 0 206 85.5t86 206.5zM1214 1717q0 18 13.5 30t40.5 7q149 -50 264 -156.5t178.5 -254t63.5 -313.5q0 -155 -60 -292t-162 -235t-242 -154.5
t-296 -56.5q-155 0 -292 56.5t-235.5 154.5t-155.5 235t-57 292q0 250 142 448.5t370 275.5q27 5 40.5 -7t13.5 -30q0 -1 -1 -16.5t-1 -28.5v-140q-4 1 -11.5 2.5t-30.5 3.5t-44.5 1.5t-49 -5.5t-49.5 -15t-41.5 -30t-29.5 -48q-1 -4 -3.5 -10t-11 -22t-18 -30t-23.5 -28
t-28 -20q-2 -2 -6.5 -5t-12.5 -11.5t-10.5 -14.5t5.5 -11t28 -5q4 0 9 1t20.5 6t29 12.5t30.5 23t29 35.5q19 34 44.5 54t49 26t49.5 4t43.5 -7.5t33.5 -12.5q9 -67 48 -102q-47 -5 -74 -9t-67.5 -14.5t-64.5 -24.5t-52.5 -38.5t-44 -57.5t-26.5 -81t-11 -109q0 -59 17 -97
t55 -81q-6 -16 -11.5 -39.5t-3 -71.5t22.5 -96q28 -9 80 11.5t91 45.5l39 25q89 -25 188 -25q102 0 192 25q5 -4 15.5 -11t39 -23.5t53.5 -28t54 -18.5t46 -1q43 106 8 207q41 45 59.5 83t18.5 95q0 61 -11.5 109.5t-27.5 81t-46 57.5t-54.5 38.5t-66.5 24t-68.5 14.5
t-73.5 9q52 45 52 141v199q0 15 -1 33t-1 20zM802 1467q1 10 18 8q6 -1 10 -5t3.5 -8.5t-6.5 -7.5t-13 -2q-6 1 -9.5 5.5t-2.5 9.5zM760 1481q16 0 16 -10q0 -5 -5 -8.5t-11 -2.5q-7 0 -11.5 3t-4.5 8q0 12 16 10zM694 1471q6 2 12.5 0.5t7.5 -5.5q1 -5 -3 -10t-11 -6
q-16 -2 -18 7q0 5 3 9t9 5zM638 1437q12 13 20 4q2 -3 0.5 -9t-6.5 -11t-11 -5.5t-9 3.5q-8 7 6 18zM598.5 1392q8.5 11 17.5 7q8 -7 0 -18q-4 -5 -9 -7.5t-9 0.5q-8 7 0.5 18zM570 1352q9 10 16 3t-2 -17q-8 -9 -16 -2q-6 7 2 16zM542 1322q4 3 8 2.5t4 -3.5q2 -7 -6 -12
q-10 -3 -12 2q-2 8 6 11z" />
</svg>