<svg xmlns="http://www.w3.org/2000/svg" xmlns:xlink="http://www.w3.org/1999/xlink" version="1.1" viewBox="-10 0 2067 2048">
   <path fill="currentColor"
d="M1025 0q208 0 397.5 81t326 218.5t217.5 327t81 397.5q0 209 -81 398.5t-217.5 326.5t-326 218t-397.5 81t-397.5 -81t-327 -218t-218.5 -327t-81 -398t81 -397.5t218.5 -327t327 -218.5t397.5 -81zM694 1452v-924q0 -69 -47.5 -117t-116.5 -48t-117.5 48t-48.5 117v1123
q134 -133 330 -199zM1189 1412v-884q0 -69 -47.5 -117t-116.5 -48t-117.5 48t-48.5 117v884q94 -14 166 -14q69 0 164 14zM1684 1650v-1122q0 -69 -48 -117t-117 -48t-117 48t-48 117v924q197 67 330 198z" />
</svg>