<svg xmlns="http://www.w3.org/2000/svg" xmlns:xlink="http://www.w3.org/1999/xlink" version="1.1" viewBox="-10 0 2068 2048">
   <path fill="currentColor"
d="M228 342h1592q93 0 160.5 66.5t67.5 159.5v910q0 94 -67.5 161t-160.5 67h-1592q-94 0 -161 -67t-67 -161v-910q0 -93 67 -159.5t161 -66.5zM966 796q-23 0 -39.5 17t-16.5 40.5t16.5 40t39.5 16.5h796q24 0 41 -16.5t17 -40t-17 -40.5t-41 -17h-796zM910 1194.5
q0 23.5 16.5 40.5t39.5 17h796q24 0 41 -17t17 -40.5t-17 -40t-41 -16.5h-796q-23 0 -39.5 16.5t-16.5 40zM584 654q0 -29 -21 -50.5t-50.5 -21.5t-50 21.5t-20.5 50.5v50q-42 10 -80 32q-40 23 -66 63t-26 93q0 91 88 144q38 21 126 50l8 2q74 21 98 36q13 9 17.5 15
t4.5 15q0 24 -22 38q-27 17 -76 16q-37 -1 -124 -30q-5 -2 -13.5 -4.5t-12.5 -3.5q-28 -10 -54.5 3t-35.5 41q-10 29 3.5 55t42.5 35q3 2 10 4t10 4v0q52 19 100 30v52q0 29 21 49.5t50.5 20.5t50 -20.5t20.5 -49.5v-48q45 -10 84 -34q40 -25 64 -66t24 -94q-2 -92 -88 -146
q-11 -8 -23.5 -14.5t-29.5 -13t-25.5 -9.5t-29.5 -10t-24 -7h-2q-74 -22 -100 -38q-20 -12 -20 -24q0 -20 22 -32q29 -18 76 -18q53 1 112 18q28 7 53.5 -7.5t33 -43.5t-7.5 -54t-43 -33q-39 -11 -74 -16v-50z" />
</svg>