<svg xmlns="http://www.w3.org/2000/svg" xmlns:xlink="http://www.w3.org/1999/xlink" version="1.1" viewBox="-10 0 2058 2048">
   <path fill="currentColor"
d="M1956 1594l-898 446q-16 8 -34 8t-34 -8l-898 -446q-14 -7 -14 -17t14 -17l216 -106q16 -8 32 -8q18 0 34 8l616 305q16 8 34 8t34 -8l616 -305q16 -8 34 -8q16 0 32 8l216 106q14 7 14 17t-14 17zM1956 969q14 7 14 17t-14 17l-898 447q-14 7 -34 7t-34 -7l-898 -447
q-14 -7 -14 -17t14 -17l216 -106q14 -7 32 -7q20 0 34 7l616 306q14 7 34 7t34 -7l616 -306q14 -7 34 -7q18 0 32 7zM92 449q-14 -7 -14 -15.5t14 -15.5l898 -412q16 -6 34 -6t34 6l898 412q14 7 14 15.5t-14 15.5l-898 414q-16 6 -34 6t-34 -6z" />
</svg>