<svg xmlns="http://www.w3.org/2000/svg" xmlns:xlink="http://www.w3.org/1999/xlink" version="1.1" viewBox="-10 0 2063 2048">
   <path fill="currentColor"
d="M412 1334h-161v-626h161v626zM716 1002l42 -294h211v626h-142v-422l-60 422h-98l-59 -412v412h-142v-626h210q1 22 9.5 70t10.5 65zM1025 1334v-626h121q108 0 150 11q40 10 63 36q23 25 28 54q6 30 6 120v220q0 77 -9 113q-8 30 -27 44q-18 17 -49 23q-25 5 -87 5h-196z
M1187 816v407q34 0 43 -11q7 -13 7 -75v-244q0 -45 -2 -54q-1 -8 -13 -22q-2 0 -13.5 -0.5t-21.5 -0.5zM1448 1334v-626h156v200q29 -23 43 -29q27 -12 58 -12q29 0 56 10q23 10 37 29q12 20 13 36v74v175q0 73 -3 84q-8 32 -36 45q-26 23 -67 23q-33 0 -58 -11
q-21 -12 -43 -37l-10 39h-146zM1653 1241q5 -11 5 -57v-162q0 -42 -5 -51q-5 -12 -27 -12q-12 0 -18 10q-4 14 -4 53v167q0 43 5 52q3 12 18 12q17 0 26 -12zM1912 5q54 5 92.5 47.5t38.5 98.5v1752q0 57 -36.5 99t-91.5 43q-1 0 -2 1.5t-2 1.5h-1770l-1 -1q-2 -2 -3 1
q-54 -5 -91 -43.5t-41 -94.5v-1769q4 -55 43 -94.5t95 -46.5h1766q1 0 2 2zM143 47q-39 3 -66 30.5t-30 66.5v1766q1 36 30 65q30 30 64 31h1770q39 -4 66.5 -34.5t27.5 -68.5v-1752q0 -38 -27 -70q-26 -31 -69 -34h-1766z" />
</svg>