<svg xmlns="http://www.w3.org/2000/svg" xmlns:xlink="http://www.w3.org/1999/xlink" version="1.1" viewBox="-10 0 2058 2048">
   <path fill="currentColor"
d="M640 227q33 -27 75 -22t69 38q43 53 105.5 84t134.5 31t134.5 -31t105.5 -84q27 -33 69 -38t75 22t38 69t-22 75q-41 50 -84 84q114 77 180.5 200.5t66.5 266.5q0 213 -139.5 371.5t-346.5 186.5v81h103q31 0 53.5 22.5t22.5 54.5t-22.5 54.5t-53.5 22.5h-103v51
q0 32 -22.5 54.5t-54.5 22.5t-54.5 -22.5t-22.5 -54.5v-51h-102q-31 0 -53.5 -22.5t-22.5 -54.5t22.5 -54.5t53.5 -22.5h102v-81q-207 -28 -346.5 -186.5t-139.5 -371.5q0 -143 67 -266.5t181 -200.5q-43 -34 -84 -84q-27 -33 -22.5 -75t37.5 -69zM666 922q0 148 105 253
t253 105t253 -105t105 -253q0 -149 -105 -254t-253 -105t-253 105t-105 254z" />
</svg>