<svg xmlns="http://www.w3.org/2000/svg" xmlns:xlink="http://www.w3.org/1999/xlink" version="1.1" viewBox="-10 0 2058 2048">
   <path fill="currentColor"
d="M639 384q0 -159 113 -271.5t272 -112.5t271 112.5t112 271.5h-319q-26 0 -45 19t-19 45t19 45t45 19h319v128h-319q-26 0 -45 19t-19 45t19 45.5t45 19.5h319v127h-319q-26 0 -45 19t-19 45t19 45t45 19h319q0 159 -112 271.5t-271 112.5t-272 -112.5t-113 -271.5v-640z
M1536 960v-96q0 -40 27.5 -67.5t67.5 -27.5t68.5 27.5t28.5 67.5v160q0 132 -47 253t-128 212.5t-193.5 153.5t-239.5 79v135h192q40 0 67.5 27.5t27.5 67.5t-27.5 68t-67.5 28h-288h-288q-40 0 -68.5 -28t-28.5 -68t28.5 -67.5t68.5 -27.5h192v-135q-127 -17 -239.5 -79
t-193.5 -153.5t-128 -212.5t-47 -253v-160q0 -40 28 -67.5t68 -27.5t68 27.5t28 67.5v160q0 212 150 362t362 150t362 -150t150 -362v-64z" />
</svg>