<svg xmlns="http://www.w3.org/2000/svg" xmlns:xlink="http://www.w3.org/1999/xlink" version="1.1" viewBox="-10 0 2058 2048">
   <path fill="currentColor"
d="M1344 512q0 -133 -93.5 -226.5t-226 -93.5t-226.5 93.5t-94 226.5q0 87 43 161t116.5 117t160.5 43t161 -43t116.5 -117t42.5 -161zM512 512q0 -104 40.5 -199t109 -163.5t163.5 -109t199.5 -40.5t199 40.5t163 109t109 163.5t40.5 199t-40.5 199t-109 163.5t-163 109
t-199 40.5t-199.5 -40.5t-163.5 -109t-109 -163.5t-40.5 -199zM326 1857h1396q-17 -126 -89 -228.5t-184 -161.5t-241 -59h-366q-130 0 -242 59t-184.5 161.5t-89.5 228.5zM128 1929q0 -145 56.5 -277t152 -227.5t227.5 -152t278 -56.5h366q145 0 276.5 56.5t227 152
t152 227.5t56.5 277q0 49 -35 84t-85 35h-1552q-50 0 -85 -35t-35 -84z" />
</svg>