<svg xmlns="http://www.w3.org/2000/svg" xmlns:xlink="http://www.w3.org/1999/xlink" version="1.1" viewBox="-10 0 2068 2048">
   <path fill="currentColor"
d="M2048 1906l-140 142l-668 -677q-99 83 -221.5 128t-256.5 45q-155 0 -296 -61.5t-243 -165t-162.5 -246.5t-60.5 -300t60.5 -300t162.5 -246t243 -164t295.5 -61t295.5 61.5t243 165t162 246.5t60 300q0 250 -146 453zM761.5 1366q118.5 0 227 -47.5t187 -127t125.5 -190
t47 -230.5t-46.5 -230t-125.5 -189.5t-187.5 -126.5t-227 -47t-227 47t-187 126.5t-125 189.5t-46.5 230t46.5 230.5t125 190t187 127t227 47.5z" />
</svg>