<svg xmlns="http://www.w3.org/2000/svg" xmlns:xlink="http://www.w3.org/1999/xlink" version="1.1" viewBox="-10 0 2068 2048">
   <path fill="currentColor"
d="M1664 1595v6v256q0 79 -56 135t-136 56h-192v-191q0 -26 -19 -45t-45.5 -19t-45 19t-18.5 45v191h-256v-191q0 -26 -18.5 -45t-45 -19t-45.5 19t-19 45v191h-192q-79 0 -135.5 -56t-56.5 -135v-256v-6q-179 -126 -281.5 -308.5t-102.5 -390.5q0 -122 37 -238t103 -214.5
t160.5 -181t207 -140.5t245 -90t272 -32t272 32t244.5 90t206.5 140.5t160.5 181t103 214.5t37 238q0 208 -102.5 390.5t-281.5 308.5zM384 1024q0 106 75.5 181t181 75t180.5 -75t75 -181t-75 -180.5t-180.5 -74.5t-181 74.5t-75.5 180.5zM1408.5 769q-105.5 0 -181 74.5
t-75.5 180.5t75.5 181t181 75t180.5 -75t75 -181t-75 -180.5t-180.5 -74.5z" />
</svg>