<svg xmlns="http://www.w3.org/2000/svg" xmlns:xlink="http://www.w3.org/1999/xlink" version="1.1" viewBox="-10 0 2064 2048">
   <path fill="currentColor"
d="M4 1024q0 -139 37 -272t103 -245.5t160.5 -207t207 -160t245 -102.5t271.5 -37q195 0 374 71q22 9 33 29.5t6 43.5q-4 22 -23.5 37t-43.5 13q-38 -2 -58 -2q-113 0 -220.5 30t-199 83.5t-168.5 130.5t-130.5 168t-83.5 199t-30 221t30 221t83.5 199t130.5 168t168.5 131
t199 84t220.5 30q1 0 58 -3q24 -2 43.5 13t23.5 37q5 23 -6 44t-33 30q-176 70 -374 70q-139 0 -271.5 -37t-245 -102.5t-207 -160t-160.5 -207t-103 -245.5t-37 -272zM1505 550q11 -21 35 -21t34 21l126 255q8 18 28 21l282 41q24 3 31.5 25.5t-9.5 39.5l-204 199
q-14 14 -11 34l48 281q4 23 -15.5 37t-40.5 3l-252 -132q-18 -11 -36 0l-251 132q-21 11 -40 -3t-16 -37l49 -281q3 -19 -12 -34l-203 -199q-17 -17 -9.5 -39.5t30.5 -25.5l281 -41q22 -4 29 -21z" />
</svg>