<svg xmlns="http://www.w3.org/2000/svg" xmlns:xlink="http://www.w3.org/1999/xlink" version="1.1" viewBox="-10 0 2058 2048">
   <path fill="currentColor"
d="M1012 191.5q0 -79.5 56 -135.5t135.5 -56t135.5 56t56 135.5t-56 136t-135.5 56.5t-135.5 -56.5t-56 -136zM1217 923l-76 305l198 199q56 56 56 136v357q0 52 -38 90t-90.5 38t-89.5 -38t-37 -90v-330l-296 -296q-48 -48 -66 -112t-1 -129l81 -336q25 -103 115 -157.5
t192 -28.5q121 32 186 130l114 172h123v-97q0 -40 27.5 -68t67.5 -28t68.5 28t28.5 68v223v1v2v990q0 40 -28.5 68t-68.5 28t-67.5 -28t-27.5 -68v-864h-158q-48 0 -90 -22.5t-69 -62.5l-53 -80h-1zM568 1888l145 -552q19 27 40 48l168 167l-105 402q-14 51 -60 77.5t-97 13
t-78 -59t-13 -96.5zM790 503l-141 564q-9 36 -40 56.5t-68 14.5l-192 -32q-42 -7 -65.5 -43.5t-11.5 -77.5l100 -365q28 -104 114 -170t194 -66h17q47 0 75.5 36.5t17.5 82.5z" />
</svg>