<svg xmlns="http://www.w3.org/2000/svg" xmlns:xlink="http://www.w3.org/1999/xlink" version="1.1" viewBox="-10 0 2068 2048">
   <path fill="currentColor"
d="M124 220l362 284l20 -81q12 -51 54 -83.5t94 -32.5h550h472q74 0 120.5 59.5t27.5 131.5l-36 141q-10 42 -45.5 63.5t-76.5 10.5q-42 -10 -64 -46.5t-12 -77.5l20 -78h-328l-144 505l880 690q25 20 29 52t-15.5 56.5t-51 28.5t-56.5 -16l-1894 -1485q-25 -19 -29 -51
t15.5 -57t51.5 -29t56 15zM662 642l302 237l104 -368h-374l-30 128q0 1 -1 2zM1048 1337l-56 199h134q43 0 73.5 30t30.5 72t-31 72.5t-73 30.5h-512q-41 0 -71.5 -30.5t-30.5 -72.5t30 -72t72 -30h164l96 -336z" />
</svg>