<svg xmlns="http://www.w3.org/2000/svg" xmlns:xlink="http://www.w3.org/1999/xlink" version="1.1" viewBox="-10 0 2068 2048">
   <path fill="currentColor"
d="M1750 298q-293 -298 -726 -298q-428 0 -722 298q-302 302 -302 726q0 419 302 721q304 303 722 303t734 -303q290 -289 290 -721q0 -433 -298 -726zM1624 1611q-256 252 -600 252q-340 0 -592 -252q-246 -243 -246 -587q0 -152 42 -273l272 122h-16v121h92v51v29h-92v122
h108q26 131 96 222q152 197 420 197q152 0 268 -67l-42 -189q-92 42 -196 42q-138 0 -222 -84q-35 -39 -56 -121h374l528 235q-46 89 -138 180zM954 1074h4h-4zM1276 994h16v-121h-292l-118 -55q32 -54 38 -59q78 -92 210 -92q100 0 192 42l46 -197q-126 -51 -256 -51
q-244 0 -398 177q-21 29 -58 79l-336 -147q50 -75 118 -142q239 -244 586 -244q352 0 596 244t244 596q0 119 -26 218z" />
</svg>