<svg xmlns="http://www.w3.org/2000/svg" xmlns:xlink="http://www.w3.org/1999/xlink" version="1.1" viewBox="-10 0 2068 2048">
   <path fill="currentColor"
d="M0 1024q0 -139 37 -272t103 -245.5t160.5 -207t207 -160t245 -102.5t272 -37t272 37t244.5 102.5t206.5 160t160.5 207t103 245.5t37 272t-37 272t-103 245.5t-160.5 207t-206.5 160t-244.5 102.5t-272 37t-272 -37t-245 -102.5t-207 -160t-160.5 -207t-103 -245.5
t-37 -272zM754 589q-23 13 -36.5 35t-13.5 48v705q0 26 13.5 48t36 35t48.5 12.5t48 -14.5l576 -352q22 -13 34 -35.5t12 -47.5q0 -53 -46 -81l-576 -352q-21 -14 -47.5 -14.5t-48.5 12.5v1z" />
</svg>