<svg xmlns="http://www.w3.org/2000/svg" xmlns:xlink="http://www.w3.org/1999/xlink" version="1.1" viewBox="-10 0 2068 2048">
   <path fill="currentColor"
d="M1024 750h-1024q9 -220 114.5 -407t281.5 -305q41 -26 86.5 -16t73.5 50zM1536 621q0 -106 75 -181t181 -75h128q52 0 90 37.5t38 90t-38 90.5t-90 38h-128v256q0 150 -68 294q-65 137 -194 249q-126 109 -290 167q-168 59 -343.5 59t-342.5 -59q-166 -58 -292 -167
q-126 -110 -194 -249q-68 -141 -68 -294h896h640v-256zM320.5 1646q79.5 0 135.5 56t56 135.5t-56 135.5t-135.5 56t-136 -56t-56.5 -135.5t56.5 -135.5t136 -56zM1280 1837.5q0 -79.5 56.5 -135.5t136 -56t135.5 56t56 135.5t-56 135.5t-135.5 56t-136 -56t-56.5 -135.5z
" />
</svg>