<svg xmlns="http://www.w3.org/2000/svg" xmlns:xlink="http://www.w3.org/1999/xlink" version="1.1" viewBox="-10 0 2068 2048">
   <path fill="currentColor"
d="M192 1024q0 113 30 221t84 199t130.5 168t168 131t199.5 84t220.5 30t220.5 -30t199 -84t168 -131t130.5 -168t83.5 -199t30 -221t-30 -221t-83.5 -199t-130.5 -168t-168 -130.5t-199 -83.5t-221 -30t-220.5 30t-199 83.5t-168 130.5t-130.5 168t-84 199t-30 221z
M2048 1024q0 139 -37 272t-103 245.5t-160.5 207t-206.5 160t-244.5 102.5t-272 37t-272 -37t-245 -102.5t-207 -160t-160.5 -207t-103 -245.5t-37 -272t37 -272t103 -245.5t160.5 -207t207 -160t245 -102.5t272 -37t272 37t244.5 102.5t206.5 160t160.5 207t103 245.5
t37 272zM870 1508l-400 -428q-22 -24 -22 -56q0 -31 22 -55l400 -429q27 -28 66 -28q36 0 62 26.5t26 63.5v231h384q53 0 90.5 37.5t37.5 89.5v128q0 52 -37.5 90t-90.5 38h-384v231q0 37 -26 63t-62 26q-39 0 -66 -28z" />
</svg>