<svg xmlns="http://www.w3.org/2000/svg" xmlns:xlink="http://www.w3.org/1999/xlink" version="1.1" viewBox="-10 0 2058 2048">
   <path fill="currentColor"
d="M1158 163q125 0 125 -84q0 -79 -121 -79h-271q-126 0 -126 79q0 80 122 80h25l-5 100h-41q-55 0 -55 59l-4 1061q0 19 29 50q24 25 59 51l29 20q38 16 75 21v506q0 21 21 21q25 0 25 -21v-506q50 -9 71 -21l5 -4q117 -88 117 -117v-1061q0 -59 -55 -59h-46v-96h21z
M1129 326h42v155l-5 -5h-183q-21 0 -21 26q0 20 21 20h183h5v42h-5h-137q-21 0 -21 21q0 25 21 25h137h5v42h-5h-183q-21 0 -21 21q0 25 21 25h183l5 -4v46l-5 -4h-58h-8h-147q-33 0 -33 25l-4 489v21v4v92q42 42 100 42q27 4 56 -7q28 -11 40 -23l13 -12l4 -92v-21l4 -472
h33h5v589q-27 44 -88 75q-53 30 -125 -4q-69 -47 -84 -71l4 -1045h42q59 0 59 -54v-180h-92q-23 0 -51 -13q26 -12 51 -12h271q28 0 54 12q-13 13 -54 13h-88v180q0 54 59 54z" />
</svg>