<svg xmlns="http://www.w3.org/2000/svg" xmlns:xlink="http://www.w3.org/1999/xlink" version="1.1" viewBox="-10 0 2068 2048">
   <path fill="currentColor"
d="M768 128q0 -52 38 -90t90 -38q157 0 306.5 41.5t275.5 115.5t232.5 180.5t180.5 233t115.5 275.5t41.5 306q0 52 -38 90t-90.5 38t-90 -38t-37.5 -90q0 -122 -32.5 -238t-90 -214.5t-140 -181t-180.5 -140.5t-214.5 -90t-238.5 -32q-52 0 -90 -38t-38 -90zM244 882
l416 418l112 -114q-4 -15 -4 -34q0 -52 38 -90t90.5 -38t90 38t37.5 90t-37.5 90t-90.5 38q-19 0 -34 -4l-112 114l416 416q28 29 35 67t-10 70.5t-55 47.5q-144 57 -304 57q-113 0 -220.5 -30t-199 -83.5t-168 -130.5t-130.5 -168t-84 -199t-30 -221q0 -159 58 -304
q14 -37 47.5 -54.5t71.5 -11t67 35.5zM896 384q156 0 298.5 61t245.5 163.5t163.5 245t60.5 298.5q0 52 -37.5 90t-90 38t-90.5 -38t-38 -90q0 -104 -40.5 -199t-109 -163.5t-163 -109t-199.5 -40.5q-52 0 -90 -38t-38 -90t38 -90t90 -38z" />
</svg>