<svg xmlns="http://www.w3.org/2000/svg" xmlns:xlink="http://www.w3.org/1999/xlink" version="1.1" viewBox="-10 0 2068 2048">
   <path fill="currentColor"
d="M2010 932q38 38 38 94q0 55 -38 93l-890 891q-38 38 -94 38t-94 -38l-894 -894q-38 -38 -38 -95q0 -54 38 -92l614 -613l232 231q-10 25 -11 54.5t8 58.5t31.5 54t57.5 39v563q-50 21 -76.5 66t-20.5 97.5t45 91.5q46 46 111 46t111 -46q23 -23 35 -57t10.5 -69.5
t-23.5 -70t-64 -54.5v-557l212 211q-13 33 -13 65t14 58.5t34.5 48t49 32.5t57 13.5t59 -9.5t55.5 -37q25 -24 37 -54t10 -58.5t-12 -56t-30.5 -48t-46 -35t-57 -16t-63.5 8.5l-226 -227q12 -36 7 -72t-23.5 -63.5t-47 -47.5t-63.5 -24t-73 7l-234 -235l184 -186
q38 -38 94 -38t94 38z" />
</svg>