<svg xmlns="http://www.w3.org/2000/svg" xmlns:xlink="http://www.w3.org/1999/xlink" version="1.1" viewBox="-10 0 2068 2048">
   <path fill="currentColor"
d="M308 409q0 -42 30 -72t72 -30h102q42 0 72 30t30 72v513v204v512q0 42 -30 72.5t-72 30.5h-102q-42 0 -72 -30.5t-30 -72.5v-205h-104q-42 0 -72 -30t-30 -72v-205q-42 0 -72 -30t-30 -72t30 -72t72 -30v-206q0 -42 30 -72t72 -30h104v-205zM1740 409v205h104q42 0 72 30
t30 72v206q42 0 72 30t30 72t-30 72t-72 30v205q0 42 -30 72t-72 30h-104v205q0 42 -30 72.5t-72 30.5h-102q-42 0 -72 -30.5t-30 -72.5v-512v-204v-513q0 -42 30 -72t72 -30h102q42 0 72 30t30 72zM1332 922v204h-616v-204h616z" />
</svg>