<svg xmlns="http://www.w3.org/2000/svg" xmlns:xlink="http://www.w3.org/1999/xlink" version="1.1" viewBox="-10 0 2068 2048">
   <path fill="currentColor"
d="M0 219q0 -91 64.5 -155t155.5 -64h438q91 0 155.5 64t64.5 155v438q0 91 -64.5 156t-155.5 65h-438q-91 0 -155.5 -65t-64.5 -156v-438zM292 292v292h294v-292h-294zM0 1389q0 -91 64.5 -155t155.5 -64h438q91 0 155.5 64t64.5 155v440q0 91 -64.5 155t-155.5 64h-438
q-91 0 -155.5 -64t-64.5 -155v-440zM292 1462v294h294v-294h-294zM1390 0h438q91 0 155.5 64t64.5 155v438q0 91 -64.5 156t-155.5 65h-438q-91 0 -155.5 -65t-64.5 -156v-438q0 -91 64.5 -155t155.5 -64zM1756 292h-292v292h292v-292zM1170 1243q0 -30 22 -51.5t52 -21.5
h292q30 0 52 21.5t22 51.5t21 51.5t51 21.5h146q30 0 52 -21.5t22 -51.5t21 -51.5t51 -21.5t52 21.5t22 51.5v440q0 30 -22 51.5t-52 21.5h-292q-30 0 -51 -21.5t-21 -51.5t-22 -52.5t-51.5 -22.5t-51 22.5t-21.5 52.5v292q0 30 -22 51.5t-52 21.5h-146q-30 0 -52 -21.5
t-22 -51.5v-732zM1682.5 2048q-30.5 0 -51.5 -21t-21 -52t21 -52t51.5 -21t52 21t21.5 52t-21.5 52t-52 21zM1974.5 2048q-30.5 0 -51.5 -21t-21 -52t21 -52t51.5 -21t52 21t21.5 52t-21.5 52t-52 21z" />
</svg>