<svg xmlns="http://www.w3.org/2000/svg" xmlns:xlink="http://www.w3.org/1999/xlink" version="1.1" viewBox="-10 0 2068 2048">
   <path fill="currentColor"
d="M1279.5 512q-63.5 0 -108.5 -45t-45 -109t45 -108.5t108.5 -44.5t109 44.5t45.5 108.5t-45.5 109t-109 45zM1366 716h170q41 0 71.5 30.5t30.5 72.5t-30.5 72.5t-71.5 30.5h-204q-38 0 -66 -23l-128 -105l-194 156l136 91q46 30 46 85v410q0 42 -30 72t-72 30t-72 -30
t-30 -72v-355l-194 -123q-51 -33 -71.5 -88t-5 -111.5t62.5 -93.5l266 -206q42 -32 95 -31.5t95 32.5zM180 1433q0 95 67.5 163t163 68t162.5 -68t67 -163t-67 -162.5t-162.5 -67.5t-163 67.5t-67.5 162.5zM820 1433q0 111 -55 205.5t-149 149.5t-205.5 55t-206 -55
t-149.5 -149.5t-55 -205.5t55 -205.5t149.5 -149t206 -54.5t205.5 54.5t149 149t55 205.5zM1408 1433q0 95 67 163t162.5 68t163 -68t67.5 -163t-67.5 -162.5t-163 -67.5t-162.5 67.5t-67 162.5zM2048 1433q0 111 -55 205.5t-149.5 149.5t-206 55t-205.5 -55t-149 -149.5
t-55 -205.5t55 -205.5t149 -149t205.5 -54.5t206 54.5t149.5 149t55 205.5z" />
</svg>