<svg xmlns="http://www.w3.org/2000/svg" xmlns:xlink="http://www.w3.org/1999/xlink" version="1.1" viewBox="-10 0 2068 2048">
   <path fill="currentColor"
d="M603 127v1l370 402q37 41 34.5 97t-43.5 93.5t-96.5 35t-92.5 -43.5l-136 -149v1267q0 56 -39.5 95t-95 39t-95 -39.5t-39.5 -94.5v-1267l-136 148q-38 41 -93.5 44t-96.5 -34.5t-43.5 -93.5t35.5 -97l370 -403q41 -43 99 -43q56 0 98 43zM1176 1292q0 -56 39 -95t95 -39
h537q41 0 75.5 23t49.5 60t7 77.5t-37 69.5l-308 308h213q55 0 94.5 39t39.5 95t-39.5 95t-94.5 39h-537q-42 0 -76 -23t-49 -60t-7 -77.5t37 -69.5l308 -308h-213q-56 0 -95 -39t-39 -95zM1577.5 84q38.5 0 71 19.5t50.5 53.5l268 538l67 134q24 49 6.5 102t-67 78
t-102.5 7t-77 -67l-30 -59h-371l-31 59q-25 50 -77.5 67.5t-102 -7.5t-67 -78t7.5 -102l67 -134l268 -538q17 -34 49 -53.5t70.5 -19.5zM1493 687h171l-86 -169z" />
</svg>