<svg xmlns="http://www.w3.org/2000/svg" xmlns:xlink="http://www.w3.org/1999/xlink" version="1.1" viewBox="-10 0 2068 2048">
   <path fill="currentColor"
d="M2048 1070q-159 53 -324 61q27 -312 -83.5 -597.5t-328.5 -493.5q158 46 294 141t233.5 222.5t153 288t55.5 332.5v46zM2032 1209q-34 188 -138 355q-195 97 -411 120.5t-433 -32t-402 -187.5q147 -225 378 -367q157 85 329.5 126t342 36.5t334.5 -51.5zM1088 986
q-8 -268 -115 -507t-293 -419q165 -60 344 -60h32q135 90 243 213.5t179 268t102 311t14 336.5q-271 -16 -506 -143zM552 115q128 115 216 251q-284 132 -476 370.5t-262 531.5q-30 -119 -30 -244q0 -292 151 -535t401 -374zM832 477q121 242 128 512q-228 141 -382 353.5
t-216 462.5q-149 -127 -240 -296q13 -218 101 -417t244.5 -360t362.5 -255h2zM1024 2048q-302 0 -552 -160q35 -163 112 -311q128 90 272 147t290.5 79.5t295 12.5t290.5 -52q-140 135 -322.5 209.5t-385.5 74.5z" />
</svg>