<svg xmlns="http://www.w3.org/2000/svg" xmlns:xlink="http://www.w3.org/1999/xlink" version="1.1" viewBox="-10 0 2068 2048">
   <path fill="currentColor"
d="M710 1309h-206v-242h210q140 0 140 125q0 62 -39.5 89.5t-104.5 27.5zM684 717q134 0 134 100q0 53 -32 78.5t-86 25.5h-196v-204h180zM1278 1059q3 -63 42.5 -100t101.5 -37q65 0 99.5 36t40.5 101h-284zM1756 0q120 0 206 85.5t86 206.5v1464q0 121 -86 206.5
t-206 85.5h-1464q-120 0 -206 -85.5t-86 -206.5v-1464q0 -121 86 -206.5t206 -85.5h1464zM1598 700v-87h-356v87h356zM886 967q62 -29 91 -67t29 -101q0 -51 -15.5 -89.5t-40.5 -62.5t-62 -39.5t-76.5 -21t-87.5 -5.5h-412v878h424q62 0 116.5 -15.5t98.5 -45.5t69.5 -80.5
t25.5 -114.5q0 -86 -41 -150t-119 -86zM1428 791q-144 0 -234 96t-90 241q0 150 87.5 241.5t236.5 91.5q229 0 298 -214h-154q-12 38 -53.5 60.5t-84.5 22.5q-77 0 -116.5 -42t-39.5 -119h458v-10v-12v-12q0 -95 -35 -172.5t-106 -124.5t-167 -47z" />
</svg>