<svg xmlns="http://www.w3.org/2000/svg" xmlns:xlink="http://www.w3.org/1999/xlink" version="1.1" viewBox="-10 0 2068 2048">
   <path fill="currentColor"
d="M1006 1461q-4 0 -198 265t-195 265q-3 0 -194 -134t-191 -137q-1 -1 191 -280.5t192 -283.5t-142.5 -52.5t-301.5 -101t-166 -55.5q-4 -1 67.5 -226t73.5 -227q0 -1 160.5 51t321.5 105t163 53q4 0 4 -6q0 -2 1 -167t3 -328.5t4 -166.5t233 -3.5t233 0.5q2 2 6 175.5
t9 345.5t11 172q2 0 156 -52t307 -103t154 -50q2 3 71 229l69 226q-2 2 -312 107t-310 109q-1 4 181.5 274t182.5 271q-1 3 -189.5 141.5t-191.5 138.5q-2 0 -200.5 -277.5t-202.5 -277.5z" />
</svg>