<svg xmlns="http://www.w3.org/2000/svg" xmlns:xlink="http://www.w3.org/1999/xlink" version="1.1" viewBox="-10 0 2068 2048">
   <path fill="currentColor"
d="M124 220l472 370q55 -85 139.5 -143t186.5 -79v-61q0 -42 30 -72t72 -30t72 30t30 72v61q178 37 294 177.5t116 324.5v60q0 113 40 218.5t116 190.5l24 26q19 22 23.5 53.5t-7.5 57.5q-1 1 -1 2.5t-1 1.5l288 226q25 20 29 52t-15.5 56.5t-51 28.5t-56.5 -16l-1894 -1485
q-25 -19 -29 -51t15.5 -57t51.5 -29t56 15zM1300 1536h-890q-30 0 -55.5 -16.5t-38.5 -43.5q-12 -26 -7.5 -57t25.5 -54l24 -26q75 -84 114.5 -189.5t39.5 -219.5v-15zM1170 1783q-60 60 -145 60t-145 -60t-60 -145h204h206q0 85 -60 145z" />
</svg>