<svg xmlns="http://www.w3.org/2000/svg" xmlns:xlink="http://www.w3.org/1999/xlink" version="1.1" viewBox="-10 0 2069 2048">
   <path fill="currentColor"
d="M739 312.5q0 -70.5 50.5 -120.5t121 -50t120 50t49.5 120.5t-49.5 120.5t-120 50t-121 -50t-50.5 -120.5zM35 849q14 -32 46.5 -45.5t64.5 -0.5l70 29l81 -136q44 -73 117.5 -114.5t157.5 -41.5q137 0 248.5 80.5t154.5 210.5l123 368l281 118l123 -162q38 -49 96 -46
q29 2 53 16.5t38 39.5l342 568q34 57 1 115q-14 27 -40.5 42t-57.5 15h-911q-29 0 -55 -14.5t-41 -39.5q-31 -54 -5 -110l57 -114q15 -29 42 -46t59 -17h115l80 -106l-1194 -497q-32 -13 -45 -46.5t0 -65.5h-1zM329 1175l398 171q32 13 50.5 41.5t18.5 62.5v342
q0 47 -32.5 80t-80 33t-81 -33t-33.5 -80v-267l-216 -93l-132 395q-15 45 -56.5 66.5t-86 6.5t-65.5 -57t-7 -87l170 -512l40 -118z" />
</svg>