<svg xmlns="http://www.w3.org/2000/svg" xmlns:xlink="http://www.w3.org/1999/xlink" version="1.1" viewBox="-10 0 2067 2048">
   <path fill="currentColor"
d="M1756 28q28 -28 68 -28t68 28l126 130q29 28 29 67.5t-29 66.5l-346 348l156 156q20 20 25.5 49t-6 56t-35 43t-52.5 16h-576q-39 0 -67.5 -28t-28.5 -68v-576q0 -29 16.5 -53t43.5 -35.5t55.5 -5.5t48.5 26l156 156zM290 1088h576q39 0 66.5 28.5t27.5 67.5v576
q0 29 -16 53t-43 35.5t-55.5 5.5t-49.5 -26l-154 -156l-348 348q-29 28 -69 28t-67 -28l-128 -128q-29 -29 -29 -68.5t29 -67.5l348 -348l-156 -156q-21 -21 -27 -49t5 -55q12 -27 36 -43.5t54 -16.5z" />
</svg>