<svg xmlns="http://www.w3.org/2000/svg" xmlns:xlink="http://www.w3.org/1999/xlink" version="1.1" viewBox="-10 0 2068 2048">
   <path fill="currentColor"
d="M292 0h1464q120 0 206 85.5t86 206.5v1464q0 121 -86 206.5t-206 85.5h-1464q-120 0 -206 -85.5t-86 -206.5v-1464q0 -121 86 -206.5t206 -85.5zM654 654q-33 32 -33 77t33 77l216 215l-216 215q-33 32 -32.5 77.5t32 77.5t77 32t77.5 -32l216 -214l214 214q32 32 77 32
t77.5 -31.5t32.5 -77.5t-33 -78l-214 -215l214 -215q33 -32 32.5 -77t-32 -77t-76.5 -32t-78 32l-214 214l-216 -214q-31 -32 -76.5 -32t-77.5 32z" />
</svg>