<svg xmlns="http://www.w3.org/2000/svg" xmlns:xlink="http://www.w3.org/1999/xlink" version="1.1" viewBox="-10 0 2068 2048">
   <path fill="currentColor"
d="M455 568q0 -93 45.5 -171.5t124 -123.5t170.5 -45q129 0 226 85.5t112 212.5l3 30q6 47 -22.5 83.5t-76.5 42.5q-47 6 -83.5 -23t-43.5 -77l-3 -28q-5 -42 -37 -71t-75 -29q-47 0 -80 33t-33 81v342h683v-342q0 -93 45.5 -171.5t123.5 -123.5t170 -45q129 0 226 85.5
t112 212.5l4 30q6 47 -22.5 83.5t-76.5 42.5q-47 6 -83.5 -23t-43.5 -77l-3 -28q-5 -42 -37.5 -71t-75.5 -29q-47 0 -79.5 33t-32.5 81v830q-3 2 -9 5t-9 5q-104 72 -209 72v-342h-683v342q-49 0 -104.5 -19t-104.5 -53q-12 -8 -18 -10v-830zM1089 1500q136 92 276 92
q69 0 142 -25t133 -67q32 -23 70.5 -21t67.5 27q80 66 180 90q47 10 71.5 49.5t14 86t-50 71.5t-86.5 15q-103 -24 -207 -90q-171 92 -335 92q-137 0 -286 -68q-7 -3 -26.5 -12t-29.5 -14q-9 5 -55 26q-148 68 -286 68q-163 0 -336 -92q-101 66 -206 90q-46 10 -86 -14.5
t-51 -71.5q-10 -46 15 -86t71 -50q100 -24 179 -90q30 -25 69 -26.5t70 20.5q62 43 134 67.5t141 24.5q141 0 276 -92q30 -22 66 -22t65 22z" />
</svg>