<svg xmlns="http://www.w3.org/2000/svg" xmlns:xlink="http://www.w3.org/1999/xlink" version="1.1" viewBox="-10 0 2068 2048">
   <path fill="currentColor"
d="M398 512q0 93 -67 159.5t-161 66.5v570q94 0 161 67.5t67 160.5h1252q0 -93 67 -160.5t161 -67.5v-570q-94 0 -161 -66.5t-67 -159.5h-1252zM0 568q0 -93 67 -159.5t161 -66.5h1592q93 0 160.5 66.5t67.5 159.5v910q0 94 -67.5 161t-160.5 67h-1592q-94 0 -161 -67
t-67 -161v-910zM626 1023.5q0 -108.5 53.5 -200t145 -144.5t199 -53t199.5 53t145.5 144.5t53.5 200t-53.5 200t-145.5 145t-199.5 53.5t-199 -53.5t-145 -145t-53.5 -200zM910 853.5q0 23.5 16.5 40t39.5 16.5v228h-28q-23 0 -39.5 16.5t-16.5 40t16.5 40.5t39.5 17h86h86
q23 0 39.5 -17t16.5 -40.5t-16.5 -40t-39.5 -16.5h-30v-284q0 -24 -16.5 -41t-39.5 -17h-58q-23 0 -39.5 17t-16.5 40.5z" />
</svg>