<svg xmlns="http://www.w3.org/2000/svg" xmlns:xlink="http://www.w3.org/1999/xlink" version="1.1" viewBox="-10 0 2058 2048">
   <path fill="currentColor"
d="M1863 1682q-21 2 -66 -50.5t-79 -106.5l-35 -54q0 101 -52 212t-152 195q33 10 63.5 22.5t66.5 31t51.5 40.5t2.5 44q-13 23 -147 29t-273.5 1t-218.5 -14q-79 9 -218 14t-273 -1t-147 -29q-12 -22 3.5 -44t51 -40.5t66 -31t62.5 -22.5q-100 -84 -152.5 -195t-52.5 -212
q-3 4 -7.5 12t-19.5 30.5t-29 42.5t-32.5 44.5t-34.5 42t-31 29t-25 10.5q-7 -1 -13 -15t-8 -46t1.5 -76.5t18 -113t38.5 -148.5q12 -38 24 -73t31 -85t28 -72.5t39 -96t39 -96.5q-3 -143 18 -269.5t70.5 -235.5t124.5 -187.5t184.5 -123t243.5 -44.5t242.5 43.5
t183.5 121.5t125.5 186.5t72 236t17.5 272.5q6 14 29 71t28.5 70.5t22.5 57t23.5 61.5t19 51t21 58.5t16.5 53.5q25 80 39.5 148.5t18 113t1.5 76.5t-8 46t-13 15z" />
</svg>