<svg xmlns="http://www.w3.org/2000/svg" xmlns:xlink="http://www.w3.org/1999/xlink" version="1.1" viewBox="-10 0 2068 2048">
   <path fill="currentColor"
d="M1024 384q328 -270 586 -198q-250 -182 -560 -186h-52q-310 4 -560 186q257 -72 586 198zM792 565q-214 -228 -426 -308h-8q-4 -4 -8 -4q-4 3 -26 23t-24 23v5q-81 80 -148 181q-142 227 -152 514v51q5 335 210 594q10 -133 34 -228q106 -417 548 -851zM1896 485
q-70 -104 -148 -181l-4 -5q-5 -9 -12 -14q-6 -4 -20 -17l-14 -15q-4 0 -8 4h-10q-212 77 -424 308v4q433 417 552 851q28 111 32 219q199 -249 208 -589v-51q-9 -285 -152 -514zM1770 1665q-6 -11 -12 -26q-6 -17 -6 -21v-8q-167 -399 -606 -750q-26 -26 -68 -55
q-44 -32 -54 -42q-13 13 -54 42q-45 32 -68 55q-467 374 -624 801q-8 17 -8 25q0 6 -8 21l38 38q290 299 698 303h52q411 -4 694 -303q20 -15 42 -38q-8 -17 -8 -21q0 -3 -2 -11q-2 -5 -6 -10z" />
</svg>