<svg xmlns="http://www.w3.org/2000/svg" xmlns:xlink="http://www.w3.org/1999/xlink" version="1.1" viewBox="-11 0 2069 2048">
   <path fill="currentColor"
d="M987 4l353 50q147 21 251 124l256 248q109 106 132 248l61 352q25 147 -38 276l-157 324q-63 131 -193 200l-315 170q-127 68 -275 48l-355 -50q-144 -19 -249 -122l-258 -248q-107 -106 -131 -248l-62 -354q-25 -146 39 -278l156 -322q65 -131 194 -200l316 -170
q128 -68 275 -48zM819.5 546q-56.5 0 -96.5 40t-40 96.5t40 97t96.5 40.5t96 -40.5t39.5 -97t-39.5 -96.5t-96 -40zM546 1365.5q0 56.5 40.5 96.5t97 40t96 -40t39.5 -96.5t-39.5 -96t-96 -39.5t-97 39.5t-40.5 96zM1502.5 1092q-56.5 0 -97 40.5t-40.5 97t40.5 96.5t97 40
t96 -40t39.5 -96.5t-39.5 -97t-96 -40.5z" />
</svg>