<svg xmlns="http://www.w3.org/2000/svg" xmlns:xlink="http://www.w3.org/1999/xlink" version="1.1" viewBox="-10 0 2068 2048">
   <path fill="currentColor"
d="M228 512q-24 0 -41 16.5t-17 39.5v910q0 24 17 41t41 17h1592q23 0 40.5 -17t17.5 -41v-910q0 -23 -17.5 -39.5t-40.5 -16.5h-1592zM0 568q0 -93 67 -159.5t161 -66.5h1592q93 0 160.5 66.5t67.5 159.5v910q0 94 -67.5 161t-160.5 67h-1592q-94 0 -161 -67t-67 -161v-910
zM626 1252h796q23 0 39.5 16t16.5 40v56q0 24 -16.5 41t-39.5 17h-796q-23 0 -39.5 -17t-16.5 -41v-56q0 -24 16.5 -40t39.5 -16zM370 996q0 -24 16.5 -41t39.5 -17h58q23 0 39.5 17t16.5 41v56q0 23 -16.5 39.5t-39.5 16.5h-58q-23 0 -39.5 -16.5t-16.5 -39.5v-56zM426 654
h58q23 0 39.5 16.5t16.5 39.5v58q0 23 -16.5 39.5t-39.5 16.5h-58q-23 0 -39.5 -16.5t-16.5 -39.5v-58q0 -23 16.5 -39.5t39.5 -16.5zM654 996q0 -24 16.5 -41t39.5 -17h58q24 0 41 17t17 41v56q0 23 -17 39.5t-41 16.5h-58q-23 0 -39.5 -16.5t-16.5 -39.5v-56zM710 654h58
q24 0 41 16.5t17 39.5v58q0 23 -17 39.5t-41 16.5h-58q-23 0 -39.5 -16.5t-16.5 -39.5v-58q0 -23 16.5 -39.5t39.5 -16.5zM938 996q0 -24 17 -41t41 -17h56q24 0 41 17t17 41v56q0 23 -17 39.5t-41 16.5h-56q-24 0 -41 -16.5t-17 -39.5v-56zM996 654h56q24 0 41 16.5
t17 39.5v58q0 23 -17 39.5t-41 16.5h-56q-24 0 -41 -16.5t-17 -39.5v-58q0 -23 17 -39.5t41 -16.5zM1222 996q0 -24 17 -41t41 -17h56q24 0 41 17t17 41v56q0 23 -17 39.5t-41 16.5h-56q-24 0 -41 -16.5t-17 -39.5v-56zM1280 654h56q24 0 41 16.5t17 39.5v58q0 23 -17 39.5
t-41 16.5h-56q-24 0 -41 -16.5t-17 -39.5v-58q0 -23 17 -39.5t41 -16.5zM1508 996q0 -24 16.5 -41t39.5 -17h58q23 0 39.5 17t16.5 41v56q0 23 -16.5 39.5t-39.5 16.5h-58q-23 0 -39.5 -16.5t-16.5 -39.5v-56zM1564 654h58q23 0 39.5 16.5t16.5 39.5v58q0 23 -16.5 39.5
t-39.5 16.5h-58q-23 0 -39.5 -16.5t-16.5 -39.5v-58q0 -23 16.5 -39.5t39.5 -16.5z" />
</svg>