<svg xmlns="http://www.w3.org/2000/svg" xmlns:xlink="http://www.w3.org/1999/xlink" version="1.1" viewBox="-10 0 2069 2048">
   <path fill="currentColor"
d="M811 1371l-98 -1084q-8 -76 43.5 -132.5t128.5 -56.5h1047q57 0 92 45.5t20 100.5l-24 85h-573q-24 0 -40.5 17.5t-16.5 40.5t16.5 40.5t40.5 17.5h542l-64 231h-478q-24 0 -40.5 17.5t-16.5 41t17 41t40 17.5h447l-63 231h-384q-24 0 -40.5 17.5t-16.5 40.5t16.5 40
t40.5 17h353l-64 232h-925zM753 1486h1041q71 0 122.5 51.5t51.5 123.5v115q0 72 -51 123t-123 51h-1041q-72 0 -122.5 -51t-50.5 -123v-115q0 -72 50.5 -123.5t122.5 -51.5zM1274 1834q48 0 82 -34t34 -82t-34 -81.5t-82.5 -33.5t-82 33.5t-33.5 81.5t34 82t82 34zM535 209
q29 18 39.5 52t-1.5 68l-79 210q-12 29 -37.5 45.5t-54.5 13.5l-121 -13q-37 115 -37 236.5t37 236.5l121 -14q29 -3 54.5 14t37.5 46l79 209q12 34 1.5 68.5t-39.5 52.5l-160 98q-27 16 -57 12t-51 -27q-131 -141 -199 -325t-68 -370.5t68 -370.5t199 -326q21 -22 51 -26
t57 12z" />
</svg>