<svg xmlns="http://www.w3.org/2000/svg" xmlns:xlink="http://www.w3.org/1999/xlink" version="1.1" viewBox="-10 0 2068 2048">
   <path fill="currentColor"
d="M1018 24q22 -27 58 -22q141 19 236.5 127.5t95.5 252.5q0 63 -22 128h22q106 0 181 75.5t75 181.5q0 114 -86 191h54q119 0 203.5 85t84.5 204q0 69 -29.5 128t-82.5 99q103 18 171.5 98t68.5 186q0 120 -84 204t-204 84h-1472q-119 0 -203.5 -84t-84.5 -204
q0 -106 69 -186t171 -98q-52 -40 -82 -99t-30 -128q0 -119 84.5 -204t203.5 -85h56q-88 -78 -88 -191q0 -105 75.5 -181t180.5 -76h66q132 0 225 -93.5t93 -226.5q0 -51 -18 -105q-12 -31 12 -61z" />
</svg>