<svg xmlns="http://www.w3.org/2000/svg" xmlns:xlink="http://www.w3.org/1999/xlink" version="1.1" viewBox="-10 0 2068 2048">
   <path fill="currentColor"
d="M1856 1024q0 -113 -30 -221t-83.5 -199t-130.5 -168t-168 -130.5t-199 -83.5t-221 -30t-220.5 30t-199 83.5t-168 130.5t-130.5 168t-84 199t-30 221t30 221t84 199t130.5 168t168 131t199.5 84t220.5 30t220.5 -30t199 -84t168 -131t130.5 -168t83.5 -199t30 -221z
M0 1024q0 -139 37 -272t103 -245.5t160.5 -207t207 -160t245 -102.5t272 -37t272 37t244.5 102.5t206.5 160t160.5 207t103 245.5t37 272t-37 272t-103 245.5t-160.5 207t-206.5 160t-244.5 102.5t-272 37t-272 -37t-245 -102.5t-207 -160t-160.5 -207t-103 -245.5t-37 -272
zM753.5 589q22.5 -13 48.5 -12.5t48 14.5l576 352q46 28 46 81q0 25 -12 47.5t-34 35.5l-576 352q-21 14 -47.5 14.5t-49 -12.5t-36 -35t-13.5 -48v-706q0 -26 13.5 -48t36 -35z" />
</svg>