<svg xmlns="http://www.w3.org/2000/svg" xmlns:xlink="http://www.w3.org/1999/xlink" version="1.1" viewBox="-10 0 2068 2048">
   <path fill="currentColor"
d="M1050 555q-125 0 -212 106q-88 105 -88 259v153q0 154 88 262q86 107 212 107q32 0 66 -12q-27 -47 -62 -71q-36 -24 -62 -29l-22 -4v-116q171 -12 290 116q84 -104 84 -253v-153q0 -154 -88 -259q-87 -106 -206 -106zM1025 0q-423 0 -723 300q-302 301 -302 724
q0 422 301 723t723 301t724 -301q300 -300 300 -723q0 -424 -300 -724t-723 -300zM1496 1604v100q-218 42 -314 -137q-60 16 -136 16q-246 0 -416 -172q-170 -173 -170 -416q0 -245 172 -417t413 -172t411 172q170 173 170 417q0 327 -278 501q16 33 54 60q40 29 66 40z" />
</svg>