<svg xmlns="http://www.w3.org/2000/svg" xmlns:xlink="http://www.w3.org/1999/xlink" version="1.1" viewBox="-10 0 2058 2048">
   <path fill="currentColor"
d="M1074 0q115 0 224.5 30.5t202 89.5t162.5 140t109.5 187.5t39.5 226.5q0 97 -17 192.5t-50 186.5t-86 168t-121 135.5t-160 91.5t-198 33q-83 0 -165.5 -40t-118.5 -108q-11 46 -27 111.5t-23.5 95.5t-20.5 77.5t-21 71t-23.5 62t-30 65t-37 64.5t-48.5 76t-61 86
q-16 6 -17 6t-11 -12q-2 -17 -6.5 -56.5t-6.5 -61.5t-4.5 -54.5t-2.5 -59.5q0 -88 20.5 -210.5t43.5 -217t59 -234t49 -196.5q-38 -78 -38 -208q0 -149 95 -230q73 -61 157 -50q83 11 116 87q16 38 16 87q0 53 -16.5 118t-37 116.5t-37.5 115.5t-17 116q0 78 55.5 128.5
t134.5 50.5q58 0 109 -23.5t88 -62.5t67 -92t49.5 -110t32.5 -118.5t18.5 -116t5.5 -103.5q0 -107 -36.5 -193t-102 -142t-154 -86t-193.5 -30q-121 0 -227 42t-182.5 116t-121.5 179t-45 227q0 54 15 105t33 80.5t33 56t15 37.5q0 36 -18 90.5t-44 54.5q-31 0 -65.5 -19
t-69.5 -58t-63 -91.5t-46 -127t-18 -157.5q0 -133 46.5 -251t127.5 -205t187 -151t228 -96t249 -32z" />
</svg>