<svg xmlns="http://www.w3.org/2000/svg" xmlns:xlink="http://www.w3.org/1999/xlink" version="1.1" viewBox="-10 0 2068 2048">
   <path fill="currentColor"
d="M1024.5 2048q-139.5 0 -272 -37t-245 -102.5t-207 -160t-160.5 -207t-103 -245.5t-37 -272t37 -272t103 -245.5t160.5 -207t207 -160t245 -102.5t272 -37t272 37t244.5 102.5t206.5 160t160.5 207t103 245.5t37 272t-37 272t-103 245.5t-160.5 207t-206.5 160
t-244.5 102.5t-272 37zM700 700q-28 28 -28 68t28 68l188 187l-188 189q-28 28 -27.5 67t28 68t67 29t68.5 -29l188 -187l188 187q27 28 67 28t68.5 -28t28.5 -67.5t-28 -67.5l-188 -189l188 -187q28 -28 27.5 -67.5t-28 -68t-67.5 -28.5t-68 28l-188 188l-188 -188
q-28 -28 -67.5 -28t-68.5 28z" />
</svg>