<svg xmlns="http://www.w3.org/2000/svg" xmlns:xlink="http://www.w3.org/1999/xlink" version="1.1" viewBox="-10 0 2068 2048">
   <path fill="currentColor"
d="M1350 1403q26 0 8 34l-166 460q-10 34 -30 25q-25 -9 -8 -42l162 -443q10 -34 34 -34zM1136 1403q-16 0 -32 34l-160 443q-16 33 4 42q18 5 34 -25l168 -460q9 -34 -14 -34zM928 1403q-24 0 -34 34l-162 443q-17 33 8 42q20 9 30 -25l166 -460q18 -34 -8 -34zM714 1403
q-23 0 -32 34l-164 443q-8 33 8 42q18 5 34 -25l168 -460q9 -34 -14 -34zM1558 1403q-16 0 -32 34l-160 443q-16 33 8 42q21 9 30 -25l168 -460q16 -34 -14 -34zM502 1403q-16 0 -34 34l-158 443q-17 33 8 42q12 10 30 -25l166 -460q18 -34 -12 -34zM1664 509q-52 0 -134 25
q-29 -176 -165.5 -293t-314.5 -117q-200 0 -344 143q-142 142 -142 342q0 3 2 11t2 10q-2 0 -10 -2t-10 -2q-110 0 -184 77q-76 78 -76 186v4q-33 -12 -62 -12q-96 0 -160 67q-66 68 -66 159q0 171 226 171h1438q158 0 271 -113t113 -272q0 -158 -113 -271t-271 -113z" />
</svg>