<svg xmlns="http://www.w3.org/2000/svg" xmlns:xlink="http://www.w3.org/1999/xlink" version="1.1" viewBox="-10 0 2068 2048">
   <path fill="currentColor"
d="M1892 0q64 0 110 45.5t46 109.5v1738q0 64 -46 109.5t-110 45.5h-1736q-64 0 -110 -46t-46 -110v-1737q0 -64 46 -109.5t110 -45.5h1736zM1085.5 1642q125.5 -13 235 -73.5t184 -151.5t112 -210t25.5 -245q-12 -117 -66 -220.5t-135.5 -177.5t-190 -117t-226 -43t-226 43
t-190.5 117t-136 177.5t-66 220.5h432v-93q0 -13 9.5 -22t22.5 -9h310q12 0 21 9t9 22v310q0 13 -9 22t-21 9h-310q-13 0 -22.5 -9t-9.5 -22v-93h-432q13 126 73.5 235.5t151.5 184t210 112t244.5 24.5z" />
</svg>