<svg xmlns="http://www.w3.org/2000/svg" xmlns:xlink="http://www.w3.org/1999/xlink" version="1.1" viewBox="-10 0 2058 2048">
   <path fill="currentColor"
d="M512 0h640v512q0 52 38 90t90 38h512v1153q0 106 -75 180.5t-181 74.5h-1024q-106 0 -181 -74.5t-75 -180.5v-1537q0 -106 75 -181t181 -75zM1280 0l512 512h-512v-512zM672 784q-33 0 -56.5 23.5t-23.5 56.5v321v255q0 33 23.5 57t56.5 24t56.5 -24t23.5 -57v-176h79
q1 2 4.5 6t5.5 5l259 242l-130 121q-24 23 -26 55t20 57q23 25 56.5 26.5t57.5 -20.5l140 -128l135 127q24 23 57.5 22t55.5 -26q23 -25 22 -58t-25 -55l-127 -118l127 -116q24 -23 25 -56t-21 -58t-55.5 -26.5t-57.5 21.5l-135 124l-172 -161q68 -27 110 -87.5t42 -136.5
q0 -99 -70 -169.5t-169 -70.5h-288zM960 1105h-208v-161h208q33 0 56.5 23.5t23.5 56.5t-23.5 57t-56.5 24z" />
</svg>