<svg xmlns="http://www.w3.org/2000/svg" xmlns:xlink="http://www.w3.org/1999/xlink" version="1.1" viewBox="-10 0 2068 2048">
   <path fill="currentColor"
d="M1528 544h208v958h-208v-82q-37 47 -92 67t-105.5 15.5t-96.5 -24.5q-80 -37 -129 -113t-49 -175q0 -92 45 -168.5t129 -113.5q43 -20 93 -25t107 13t98 62v-414zM1270 1190q0 56 38 96t96 40q57 0 94.5 -41t37.5 -93t-38 -92t-94.5 -40t-95 40t-38.5 90zM754 544h208
v958h-208v-82q-37 47 -92.5 67t-106 15.5t-95.5 -24.5q-81 -37 -129.5 -113t-48.5 -175q0 -92 45 -168.5t129 -113.5q43 -20 93 -25t107 13t98 62v-414zM496 1190q0 56 37.5 96t94.5 40q58 0 95 -41t37 -93t-37.5 -92t-94.5 -40t-94.5 40t-37.5 90zM1792 384h-1536
q-52 0 -90 37.5t-38 90.5v1024q0 52 38 90t90 38h1536q52 0 90 -38t38 -90v-1024q0 -53 -38 -90.5t-90 -37.5zM1792 256q105 0 180.5 75t75.5 181v1024q0 105 -75.5 180.5t-180.5 75.5h-1536q-105 0 -180.5 -75.5t-75.5 -180.5v-1024q0 -106 75.5 -181t180.5 -75h1536z" />
</svg>