<svg xmlns="http://www.w3.org/2000/svg" xmlns:xlink="http://www.w3.org/1999/xlink" version="1.1" viewBox="-10 0 2058 2048">
   <path fill="currentColor"
d="M1434 1094q-71 -97 -141 -402q-37 -178 -66 -216q-57 -57 -133 -62q10 -69 33 -124q22 -47 52 -82.5t48 -52.5q15 -14 21 -14q58 -41 20 -100q-41 -58 -99 -21l-4 9q-12 6 -19 12q-14 12 -23 21l-29 29q-16 16 -31 37q-3 4 -14.5 20t-18.5 26q-20 29 -31 54v4l-17 -13
q-49 -174 -219 -207q-49 -12 -87 -12q-120 0 -203 83q-25 33 -13 62q5 21 21.5 60t65.5 93q50 54 116 71q19 4 67 4q96 0 178 -33l45 37q0 1 -2 17t-2 20q-83 9 -124 62q-34 38 -71 216q-70 307 -140 402q-117 164 -158 270q-42 108 -33 240q12 178 133 311t327 133h16
q88 0 121 -9h8q33 9 120 9h17q211 0 331 -131t129 -313q9 -130 -34 -240t-157 -270z" />
</svg>