<svg xmlns="http://www.w3.org/2000/svg" xmlns:xlink="http://www.w3.org/1999/xlink" version="1.1" viewBox="-10 0 2068 2048">
   <path fill="currentColor"
d="M577.5 442q117.5 0 224.5 46t184.5 124t123.5 185.5t46 226.5t-46 226.5t-123.5 185.5t-184.5 124t-224.5 46t-224.5 -46t-184 -124t-123 -185.5t-46 -226.5t46 -226.5t123 -185.5t184 -124t224.5 -46zM1500.5 476q78.5 0 144.5 73.5t104.5 199.5t38.5 275t-38.5 275
t-104.5 199.5t-144.5 73.5t-145 -73.5t-105 -200t-38.5 -274.5t38.5 -274.5t105 -200t145 -73.5zM1946 533q42 0 72 144t30 347t-30 347t-72 144t-72 -144t-30 -347t30 -347t72 -144z" />
</svg>