<svg xmlns="http://www.w3.org/2000/svg" xmlns:xlink="http://www.w3.org/1999/xlink" version="1.1" viewBox="-10 0 2067 2048">
   <path fill="currentColor"
d="M717 1024q-111 0 -205.5 -55t-149 -149.5t-54.5 -205.5t54.5 -205.5t149 -149t205.5 -54.5t205.5 54.5t149.5 149t55 205.5t-55 205.5t-149.5 149.5t-205.5 55zM571 1177h292q113 0 215 42.5t181 118.5l-129 129q-39 39 -53 95l-48 192q-11 47 4 89h-937
q-40 0 -67.5 -27.5t-27.5 -67.5q0 -116 45 -221.5t121.5 -182t182 -122t221.5 -45.5zM1964 959l46 46q37 37 37 90t-37 91l-94 95l-227 -228l94 -94q37 -37 90 -37t91 37zM1203 1539l413 -414l227 228l-413 413q-21 21 -48 27l-192 48q-28 6 -48 -14t-13 -48l47 -193
q5 -26 27 -47z" />
</svg>