<svg xmlns="http://www.w3.org/2000/svg" xmlns:xlink="http://www.w3.org/1999/xlink" version="1.1" viewBox="-10 0 2068 2048">
   <path fill="currentColor"
d="M1914 692q-138 -138 -332 -138t-332 138l-226 227l-226 -227q-138 -138 -331 -138t-331 138q-136 137 -136 332q0 194 136 331q138 139 330 139t332 -139l226 -226l226 226q140 139 332 139t332 -139q134 -136 134 -331q0 -196 -134 -332zM692 1250q-92 93 -226 93
q-126 0 -226 -93q-92 -92 -92 -226q0 -135 92 -227q99 -92 226 -92q134 0 226 92l228 227zM1809 1250q-93 93 -227 93t-226 -93l-226 -226l226 -227q92 -92 226 -92t226 92q94 93 94 227q0 133 -93 226z" />
</svg>