<svg xmlns="http://www.w3.org/2000/svg" xmlns:xlink="http://www.w3.org/1999/xlink" version="1.1" viewBox="-10 0 2068 2048">
   <path fill="currentColor"
d="M1734 497q-138 0 -238 28q-97 28 -218 115q-136 101 -254 167q-114 -64 -254 -167q-121 -87 -218 -115q-100 -28 -238 -28q-141 0 -228 97q-86 97 -86 254q0 58 44 122q42 60 76 92q25 24 110 92q150 117 150 158q0 63 -62 163q-50 64 -50 113q0 66 116 113q51 21 64 34
v33q-9 104 32 150q38 38 110 38q111 0 174 -109q28 -47 64 -75q32 -25 82 -42q48 -16 80 -21h34q122 5 196 63q34 26 62 75q64 109 176 109q72 0 110 -38q36 -41 36 -150v-33q5 -13 60 -34q116 -47 116 -113q0 -46 -46 -113q-66 -91 -66 -163q0 -41 150 -158q81 -64 112 -90
q40 -33 78 -94q40 -65 40 -122q0 -157 -86 -254q-87 -97 -228 -97zM1408 1735q-28 0 -49 -21t-21 -50q0 -30 21 -51t50 -21t50 21t21 51q0 71 -72 71zM640 1735q-72 0 -72 -71q0 -30 21 -51t50 -21t50 21t21 51q0 29 -21 50t-49 21zM1024 1480q-153 0 -270 -74
q-114 -73 -114 -173q0 -80 72 -144q74 -64 182 -90q26 58 92 79q6 5 12 5h6h4h4q12 9 24 0h8h10q4 -5 8 -5q66 -21 92 -79q108 26 182 90q72 64 72 144q0 100 -114 173q-117 74 -270 74zM816 180q0 -38 25 -63t61 -25h244q36 0 61 25t25 63q0 39 -24 65q-26 27 -62 27h-244
q-36 0 -62 -27q-24 -26 -24 -65zM1224 389q0 38 -27 65t-65 27h-216q-38 0 -65 -27t-27 -65t27 -65t65 -27h216q38 0 65 27t27 65zM1178 598q0 37 -26 64q-28 28 -66 28h-124q-38 0 -66 -28q-26 -27 -26 -64q0 -38 27 -65t65 -27h128q34 0 61 27t27 65z" />
</svg>