<svg xmlns="http://www.w3.org/2000/svg" xmlns:xlink="http://www.w3.org/1999/xlink" version="1.1" viewBox="-10 0 2068 2048">
   <path fill="currentColor"
d="M0 1462h68v-268l104 235q17 37 63.5 37t62.5 -37l106 -235v268h66v-268q0 -33 -32 -42q-76 -25 -102 29l-104 231l-102 -231q-21 -54 -100 -29q-30 5 -30 42v268zM526 1244h70v147v10q0 8 10 13q11 6 28 6h148v-176h66v243q5 72 -104 72h-214v-47h214q20 0 28 -8
q10 -9 10 -13v-12v-17h-144q-112 0 -112 -63v-155zM902 1462h194q37 0 62 -12q46 -20 46 -55v-50q0 -34 -50 -51q-29 -8 -58 -8h-80q-42 0 -46 -30v-4v-29v-9q4 -15 38 -20h4h192v-42h-188q-44 0 -54 4q-60 17 -60 67v38q0 55 92 63q8 4 22 4h72h4q33 0 38 12q8 8 8 13v38
q0 13 -12 17q-8 8 -30 8h-4h-190v46zM1628 1387q0 71 106 75h20h176v-42h-180q-54 0 -54 -38v-230h-68v235zM1246 1387v-160q0 -63 88 -75h18h130h16q88 12 88 75v160q0 47 -42 63l68 58h-80l-54 -46l-56 4h-70q-16 0 -38 -8q-68 -16 -68 -71zM1322 1382v9q9 29 50 29h60
l-56 -50h80l46 42q18 -4 18 -21q4 0 4 -9v-151q0 -4 -4 -8q0 -25 -46 -25h-102q-50 0 -50 33v151zM1990 1076q-62 -8 -102 13l-20 12q4 0 4 9q0 8 4 8q4 13 26 34q30 20 32 21q3 2 13.5 6.5t18.5 7.5q23 11 32 19l38 25l12 13q0 -9 -8 -17q-1 -1 -14 -17q-27 -35 -54 -50
q-58 -42 -58 -46l-4 -4q12 0 38 -9h3.5t8 -0.5t10.5 -1.5q18 -1 28 -6l12 -2q3 0 5.5 -0.5t4 -1t2.5 -0.5v-5q-14 -22 -24 -33q-59 -46 -84 -63q-8 -8 -30 -17q-18 -8 -24 -8q-22 -9 -22 -13q-12 -9 -20 -38l-48 -92q-21 -51 -24 -59q-80 -125 -202 -193q-16 -12 -66 -21
q-11 -4 -38 -4q-4 -4 -12 -8t-14 -9q-100 -71 -126 -8q-12 26 34 84q8 15 12 21q8 10 14 21q4 4 4 12q0 9 4 13q16 52 24 71q6 6 12 15q4 7 10 19q12 13 12 17q-4 5 -6 10q0 2 -2 7t-2 8q-1 3 -1.5 5.5t-0.5 4v2.5q-30 109 16 177q30 42 56 29q4 0 24 -63q0 -13 4 -17v4
l22 42q11 24 66 72q2 2 7.5 6.5t10.5 7.5q12 11 20 15l-12 -12l-30 -30q-18 -25 -34 -52q-20 -36 -24 -44q-6 -19 -22 -51l-4 -8q0 -8 -4 -8l-12 14t-12 19q-4 8 -14 80h-4q-7 0 -28 -34q-26 -72 -6 -138q17 -51 14 -59q0 -4 -18 -21q-17 -27 -20 -34q-9 -11 -16 -44
q-6 -34 -14 -48q-25 -37 -30 -42l-24 -38q-9 -16 -4 -21q0 -8 8 -8h8q2 0 3.5 0.5t4 1t4.5 0.5q12 2 14 2l50 25q16 16 26 21h8h26q18 0 28 5q42 13 72 37q98 58 162 177q5 9 10 21q4 13 8 16q9 28 34 76q26 57 36 67q4 3 14 8q10 6 22 9q16 5 20 8q4 5 16 9q11 4 18 4
l50 38q38 13 38 29zM1456 623h-20v4h4q4 8 16 21q4 4 4 13q0 8 4 12l4 -4q10 -9 10 -25l-4 -9q-4 -3 -14 -8zM0 967h26q22 0 30 8q12 9 12 21q0 11 -8 25q-17 9 -34 9h-12v42h-14v-105zM18 1021h8q26 0 26 -25q0 -17 -22 -17h-12v42zM152 1034q0 42 -38 42q-34 0 -34 -42
q0 -38 34 -38q38 0 38 38zM94 1034q0 29 20 29q26 0 26 -29t-26 -29q-20 0 -20 29zM178 996l8 38q0 1 2 13q0 3 0.5 5.5t1 4t0.5 2.5q4 -4 4 -12q0 -9 4 -13l12 -38h14l8 38q8 15 8 25q0 -1 1 -5t1 -7q2 -12 2 -13l12 -38h14l-26 76h-8l-12 -34q-6 -5 -6 -12q0 -9 -4 -13
q0 11 -8 25l-8 34h-12l-26 -76h18zM290 1038q0 25 26 25q16 0 20 -4l4 9q-8 8 -24 8q-38 0 -38 -42q0 -38 38 -38q28 0 28 34v8h-54zM332 1026q0 -21 -20 -21q-10 0 -22 21h42zM362 1021v-25h12v17q5 -17 22 -17h4v13h-4q-12 0 -22 17v8v38h-12v-51zM420 1038q0 25 26 25
q16 0 20 -4l4 9q-8 8 -24 8q-38 0 -38 -42q0 -38 34 -38q32 0 32 34v8h-54zM462 1026q0 -21 -21 -21t-21 21h42zM554 963v92v17h-8l-4 -13q-10 17 -26 17q-32 0 -32 -42q0 -38 36 -38q17 0 22 13v-46h12zM542 1030v-9q-9 -16 -22 -16q-20 0 -20 29t20 29q13 0 22 -16v-5v-12
zM614 963h12v46q4 -13 26 -13q32 0 32 38q0 42 -32 42q-18 0 -30 -17v13h-12q0 -3 2 -9t2 -8v-92zM626 1042v5q0 16 21 16t21 -29t-22 -29q-12 0 -20 16v9v12zM706 996l16 46v5q4 4 4 8q0 -5 4 -13l18 -46h12l-20 55q-10 34 -26 46q-8 8 -16 8l-6 -8l6 -4q8 0 8 -4
q8 -9 12 -17v-4l-30 -72h18z" />
</svg>