<svg xmlns="http://www.w3.org/2000/svg" xmlns:xlink="http://www.w3.org/1999/xlink" version="1.1" viewBox="-10 0 2058 2048">
   <path fill="currentColor"
d="M1024 256q-132 0 -226 93.5t-94 226.5v193h960q106 0 181 74.5t75 180.5v769q0 106 -75 180.5t-181 74.5h-1280q-105 0 -180.5 -74.5t-75.5 -180.5v-769q0 -106 75.5 -180.5t180.5 -74.5h64v-193q0 -117 46 -224t123 -184t183.5 -122.5t223.5 -45.5q170 0 310 90.5
t210 238.5q23 48 5 98.5t-65.5 73t-97.5 4.5t-72 -66q-40 -83 -117.5 -133t-172.5 -50zM1152 1536q53 0 90.5 -37.5t37.5 -90.5t-37.5 -90.5t-90.5 -37.5h-256q-52 0 -90 38t-38 90t38 90t90 38h256z" />
</svg>