<svg xmlns="http://www.w3.org/2000/svg" xmlns:xlink="http://www.w3.org/1999/xlink" version="1.1" viewBox="-10 0 2068 2048">
   <path fill="currentColor"
d="M1856 1024q0 -113 -30 -221t-83.5 -199t-130.5 -168t-168 -130.5t-199 -83.5t-221 -30t-220.5 30t-199 83.5t-168 130.5t-130.5 168t-84 199t-30 221t30 221t84 199t130.5 168t168 131t199.5 84t220.5 30t220.5 -30t199 -84t168 -131t130.5 -168t83.5 -199t30 -221z
M0 1024q0 -139 37 -272t103 -245.5t160.5 -207t207 -160t245 -102.5t272 -37t272 37t244.5 102.5t206.5 160t160.5 207t103 245.5t37 272t-37 272t-103 245.5t-160.5 207t-206.5 160t-244.5 102.5t-272 37t-272 -37t-245 -102.5t-207 -160t-160.5 -207t-103 -245.5t-37 -272
zM1398 1233q27 -6 53 1.5t41.5 24.5t20 40t-12.5 47q-75 117 -201 186t-274.5 69t-275 -69t-201.5 -186q-17 -24 -12.5 -47t19.5 -40t41 -24.5t54 -1.5q184 43 374 43q189 0 374 -43zM534 587l360 191q33 17 33 54t-33 54l-360 191q-23 13 -46.5 -1t-23.5 -41q0 -18 12 -30
l144 -172l-144 -174q-12 -12 -12 -30q0 -27 23.5 -41t46.5 -1zM1584 629q0 19 -10 30l-144 172l144 174q10 11 10 30q0 27 -23 41t-47 1l-358 -191q-33 -17 -33 -54t33 -54l358 -191q24 -13 47 1t23 41z" />
</svg>