<svg xmlns="http://www.w3.org/2000/svg" xmlns:xlink="http://www.w3.org/1999/xlink" version="1.1" viewBox="-10 0 2068 2048">
   <path fill="currentColor"
d="M2047 1022q0 48 -33.5 81.5t-79.5 33.5h-114l2 569q0 94 -66.5 161t-160.5 67h-1139q-94 0 -160.5 -66.5t-66.5 -160.5v-570h-114q-48 0 -81 -33t-33 -82t36 -85l911 -795q28 -28 78 -28q44 0 74 24l379 334v-130q0 -47 33 -80.5t81 -33.5h114q47 0 80 33.5t33 80.5v430
l188 165q44 39 39 85zM967 797q-23 0 -39.5 17t-16.5 40v170h-171q-24 0 -40.5 17t-16.5 40v114q0 23 16.5 40t40.5 17h171v170q0 23 16.5 40t39.5 17h114q23 0 40.5 -17t17.5 -40v-170h170q23 0 40 -17t17 -40v-114q0 -23 -17 -40t-40 -17h-170v-170q0 -23 -17.5 -40
t-40.5 -17h-114z" />
</svg>