<svg xmlns="http://www.w3.org/2000/svg" xmlns:xlink="http://www.w3.org/1999/xlink" version="1.1" viewBox="-10 0 2058 2048">
   <path fill="currentColor"
d="M512 0h640v512q0 52 38 90t90 38h512v1153q0 106 -75 180.5t-181 74.5h-1024q-106 0 -181 -74.5t-75 -180.5v-1537q0 -106 75 -181t181 -75zM1280 0l512 512h-512v-512zM512 320q0 26 19 45t45 19h256q26 0 45 -19t19 -45t-19 -45t-45 -19h-256q-26 0 -45 19t-19 45z
M512 576q0 26 19 45t45 19h256q26 0 45 -19t19 -45t-19 -45t-45 -19h-256q-26 0 -45 19t-19 45zM1024 864q-26 0 -45 19t-19 45v69q-54 11 -96 35q-96 55 -96 161q0 95 91 150q43 27 139 55l6 2q85 26 116 45q32 20 32 46q0 36 -32 56q-37 23 -95 21q-46 -1 -145 -34v0
q-3 -1 -12.5 -4.5t-15.5 -5.5q-26 -8 -49 3.5t-31 36.5q-8 26 3.5 49.5t36.5 31.5q16 6 25 9v0q74 26 123 36v70q0 26 19 45t45 19t45 -19t19 -45v-68q65 -13 101 -37q92 -59 91 -166q-1 -98 -91 -153q-39 -25 -146 -58v0h-1q-82 -24 -117 -45q-29 -17 -29 -40q0 -31 33 -51
q37 -22 94 -22q51 0 128 21q26 7 49 -6t30 -39t-6.5 -48.5t-39.5 -29.5q-61 -17 -96 -21v-69q0 -26 -19 -45t-45 -19z" />
</svg>