<svg xmlns="http://www.w3.org/2000/svg" xmlns:xlink="http://www.w3.org/1999/xlink" version="1.1" viewBox="-10 0 2068 2048">
   <path fill="currentColor"
d="M1024.5 1280q105.5 0 180.5 -75t75 -181t-75 -181.5t-180.5 -75.5t-181 75.5t-75.5 181.5t75.5 181t181 75zM1526 1126q-24 116 -95.5 209.5t-178 147t-228 53.5t-228.5 -53.5t-178.5 -147t-95.5 -209.5h-420q-42 0 -72 -30t-30 -72t30 -72t72 -30h420
q24 -116 95.5 -209.5t178.5 -147t228.5 -53.5t228 53.5t178 147t95.5 209.5h420q42 0 72 30t30 72t-30 72t-72 30h-420z" />
</svg>