<svg xmlns="http://www.w3.org/2000/svg" xmlns:xlink="http://www.w3.org/1999/xlink" version="1.1" viewBox="-10 0 2068 2048">
   <path fill="currentColor"
d="M0 1024q0 -139 37 -272t103 -245.5t160.5 -207t207 -160t245 -102.5t272 -37t272 37t244.5 102.5t206.5 160t160.5 207t103 245.5t37 272t-37 272t-103 245.5t-160.5 207t-206.5 160t-244.5 102.5t-272.5 37h-876q-26 0 -43.5 -18.5t-17 -42t18.5 -44.5l194 -195
q-141 -142 -220.5 -329t-79.5 -395zM1398 615q71 0 120.5 -50t49.5 -121t-49.5 -121.5t-120.5 -50.5q-61 0 -108 39t-60 98q-103 11 -173.5 89.5t-70.5 184.5q-225 11 -396 117q-65 -50 -146 -50q-99 0 -168.5 70t-69.5 169q0 71 37.5 129t98.5 87q3 102 58.5 195t147 160
t216.5 106.5t261.5 39.5t261.5 -39.5t216 -106.5t146.5 -160t58.5 -195q61 -29 97.5 -87t36.5 -129q0 -99 -69.5 -169t-168.5 -70q-82 0 -146 49q-174 -109 -400 -116v-1q0 -76 50 -132t124 -67q12 57 58.5 94t107.5 37v1zM708 987q51 0 84.5 46.5t29.5 111.5
q-5 119 -120 119q-55 0 -90 -31t-32 -92q2 -65 40 -108.5t88 -43.5v-2zM1470 1141q2 61 -33 91.5t-89 30.5q-116 0 -122 -118q-3 -65 30.5 -111.5t83.5 -46.5q51 0 88.5 44t39.5 109zM1276 1368q-31 75 -98.5 121.5t-151.5 46.5q-85 0 -153.5 -46.5t-100.5 -121.5
q-3 -9 2 -17t14 -9q111 -12 238 -12q124 0 236 12q8 1 13 9t1 17z" />
</svg>