<svg xmlns="http://www.w3.org/2000/svg" xmlns:xlink="http://www.w3.org/1999/xlink" version="1.1" viewBox="-10 0 2068 2048">
   <path fill="currentColor"
d="M1024 205q42 0 72 30t30 72v205h384q96 0 163 67.5t67 162.5v870q0 95 -67 163t-163 68h-972q-96 0 -163 -68t-67 -163v-870q0 -95 67 -162.5t163 -67.5h384v-205q0 -42 30 -72t72 -30zM666 1433q-21 0 -36.5 15.5t-15.5 36.5t15 36t37 15h102q22 0 37 -15t15 -36
t-15.5 -36.5t-36.5 -15.5h-102zM972 1433q-20 0 -35 15.5t-15 36.5t15 36t35 15h104q20 0 35 -15t15 -36t-15 -36.5t-35 -15.5h-104zM1280 1433q-21 0 -36.5 15.5t-15.5 36.5t15 36t37 15h102q22 0 37 -15t15 -36t-15.5 -36.5t-36.5 -15.5h-102zM846 1024q0 -53 -38 -90.5
t-91.5 -37.5t-91 37.5t-37.5 90.5t37.5 90.5t91 37.5t91.5 -37.5t38 -90.5zM1331.5 1152q53.5 0 91 -37.5t37.5 -90.5t-37.5 -90.5t-91 -37.5t-91.5 37.5t-38 90.5t38 90.5t91.5 37.5zM154 922h50v614h-50q-64 0 -109 -45t-45 -109v-307q0 -64 45 -108.5t109 -44.5z
M1894 922q64 0 109 44.5t45 108.5v307q0 64 -45 109t-109 45h-50v-614h50z" />
</svg>