<svg xmlns="http://www.w3.org/2000/svg" xmlns:xlink="http://www.w3.org/1999/xlink" version="1.1" viewBox="-10 0 2058 2048">
   <path fill="currentColor"
d="M512 0h640v512q0 52 38 90t90 38h512v1153q0 106 -75 180.5t-181 74.5h-1024q-106 0 -181 -74.5t-75 -180.5v-1537q0 -106 75 -181t181 -75zM1280 0l512 512h-512v-512zM1120 1632v-408l124 124q28 28 67.5 28t68.5 -28q28 -28 28 -68t-28 -68l-288 -287q-28 -29 -67 -29
t-68 29l-288 287q-28 28 -28 67.5t28 68.5q28 28 67.5 28t67.5 -28l124 -124v408q0 40 28 68.5t68 28.5t68 -28.5t28 -68.5z" />
</svg>