<svg xmlns="http://www.w3.org/2000/svg" xmlns:xlink="http://www.w3.org/1999/xlink" version="1.1" viewBox="-10 0 2058 2048">
   <path fill="currentColor"
d="M658 584q0 60 -43 104t-103 44t-103 -44t-43 -104q0 -159 78.5 -293.5t213 -212.5t293.5 -78h146q159 0 293.5 78t213 212.5t78.5 293.5v18q0 149 -71.5 279.5t-197.5 211.5l-192 124q-51 33 -51 93v6q0 60 -43 103t-103 43t-103 -43t-43 -103v-6q0 -102 49.5 -193
t135.5 -146l193 -124q63 -40 98.5 -105t35.5 -140v-18q0 -121 -86 -206.5t-207 -85.5h-146q-121 0 -207 85.5t-86 206.5zM1024 2048q-76 0 -129.5 -53.5t-53.5 -129.5t53.5 -129t129.5 -53t129 53t53 129t-53 129.5t-129 53.5z" />
</svg>