<svg xmlns="http://www.w3.org/2000/svg" xmlns:xlink="http://www.w3.org/1999/xlink" version="1.1" viewBox="-10 0 2068 2048">
   <path fill="currentColor"
d="M384 254q140 -109 311.5 -166t347.5 -53q169 -1 347 62q-162 -30 -293 -10q-128 17 -244 79t-203 158q15 -3 63 -23q122 -52 229 -60q91 -10 237 8q-11 2 -52.5 9t-68 13.5t-51.5 15.5q-104 33 -192.5 98t-151.5 153q-94 134 -99 268q-1 54 18.5 102t60.5 74
q49 31 109 31q15 0 41 -4q78 -12 174 -66q83 -48 129 -96q5 -4 7.5 -11t2.5 -12.5t-0.5 -14.5t-0.5 -13q-19 -2 -24 1q-69 38 -143 62q-139 43 -249 2q85 10 151 -22q28 -14 59.5 -34.5t52 -36.5t55.5 -43.5t51 -40.5q162 -127 355 -221q91 -43 169 -67.5t157 -28.5
q-16 14 -59 50.5t-72 62.5t-55 53q-71 69 -162 181q-6 8 -15 14.5t-21.5 14t-17.5 11.5q-135 91 -207 240q-63 133 -47 255q6 45 27 82.5t56 57.5q68 42 174 20q96 -22 180 -81t144 -142q60 -82 90.5 -182.5t26.5 -203.5q-1 -10 -2.5 -28.5t-2.5 -33.5t-1 -28q56 136 66 243
q10 74 -7 172q-5 24 -16 67.5t-15 61.5q124 -138 158 -324q8 -61 8 -115q0 -158 -66 -303q122 189 143 430q3 77 0 153q-18 211 -118 391q-78 142 -198.5 252.5t-269.5 178.5q-234 110 -504 94.5t-488 -152.5q-239 -145 -365 -395q-89 -176 -102 -371q0 1 0 -30.5v-63.5v-32
q12 -208 114 -396t269 -317zM1272 575q30 -4 64 -17q35 -15 41 -46q-67 37 -105 63z" />
</svg>