<svg xmlns="http://www.w3.org/2000/svg" xmlns:xlink="http://www.w3.org/1999/xlink" version="1.1" viewBox="-10 0 2068 2048">
   <path fill="currentColor"
d="M124 220l594 466v-175q0 -127 89.5 -216.5t217 -89.5t217.5 89.5t90 216.5h-256q-21 0 -36.5 15.5t-15.5 36.5t15 36t37 15h256v102h-256q-22 0 -37 15t-15 36t15.5 36.5t36.5 15.5h256v103h-256q-22 0 -38 15l110 87h184v143l56 45q46 -87 46 -188v-51v-77
q0 -31 22.5 -54t54 -23t54.5 23t23 54v128q0 153 -78 283l508 399q25 20 29 52t-15.5 56.5t-51 28.5t-56.5 -16l-1894 -1485q-25 -19 -29 -51t15.5 -57t51.5 -29t56 15zM1146 1415l138 109q-85 45 -184 58v108h154q32 0 55 22.5t23 54t-23 54t-55 22.5h-230h-230
q-31 0 -53.5 -22.5t-22.5 -54t22.5 -54t53.5 -22.5h154v-108q-137 -18 -248 -96t-174.5 -200t-63.5 -262v-128q0 -14 2 -20l150 120v28q0 111 55 205.5t149.5 149t205.5 54.5q64 0 122 -18z" />
</svg>