<svg xmlns="http://www.w3.org/2000/svg" xmlns:xlink="http://www.w3.org/1999/xlink" version="1.1" viewBox="-10 0 2068 2048">
   <path fill="currentColor"
d="M1127 603l-166 -42q-33 -8 -38 -44q-5 -34 27 -51l131 -65l-138 -104q-13 -10 -19 -26t0 -31q5 -16 18.5 -25.5t30.5 -9.5h358h103h51q72 0 137 32t109 90l183 246q32 43 32 92q0 64 -45.5 109.5t-108.5 45.5h-69q-84 0 -145 -61l-42 -43h-102v70q0 60 28.5 112t79.5 83
l341 213q77 48 121 127.5t44 170.5q0 95 -47 176t-128 128t-176 47h-110h-204h-1279q-17 0 -30 -4q-49 -15 -65 -59q-7 -18 -8 -35q-2 -15 4 -34q14 -48 59 -66q19 -6 31 -7l1292 -115q20 -2 33.5 -17t13.5 -35q0 -21 -15 -36l-142 -142q-72 -72 -111 -166t-39 -196v-145
v-183zM1638 436v-1v-1v2zM1635 460l-149 -37q-1 4 -1 12q0 31 22.5 54t54.5 23q25 0 45 -14.5t28 -37.5zM419 578q39 -35 91 -38.5t96 25.5l419 278v88q0 161 76 298h-741q-17 0 -30.5 -9t-19 -24t-1 -31.5t16.5 -26.5l222 -190l-488 75q-39 5 -54 -28q-8 -16 -4.5 -33
t16.5 -28z" />
</svg>