<svg xmlns="http://www.w3.org/2000/svg" xmlns:xlink="http://www.w3.org/1999/xlink" version="1.1" viewBox="-10 0 2067 2048">
   <path fill="currentColor"
d="M1022 0q215 0 406 80.5t326.5 217.5t214 326.5t78.5 399.5q0 178 -55 339t-152 284.5t-225.5 214.5t-280.5 138.5t-312 47.5q-204 0 -392 -80.5t-326 -216.5t-220.5 -326.5t-82.5 -400.5q0 -163 49 -317t141 -281t216 -223t283 -149.5t332 -53.5zM1026 184
q-178 0 -336 70.5t-268 186.5t-173.5 268.5t-63.5 314.5q0 134 42.5 260.5t120.5 230t181 182t231.5 121.5t265.5 43q106 0 210 -27.5t196.5 -77.5t171.5 -125.5t136.5 -166.5t90 -204t32.5 -236q0 -173 -66 -329t-178 -268t-266.5 -177.5t-326.5 -65.5zM1693 1042l20 9v289
q-20 10 -141 61.5t-136 57.5q-12 -3 -130.5 -52t-260 -107.5t-176.5 -72.5l-265 110l-261 -114v-263l245 -103q-2 -2 -2 -291l278 -122l626 260v254zM1402 1378v-181h-1v-7l-469 -192v187l469 193v-1zM1433 1140l165 -67l-152 -64l-161 67zM1649 1298v-178l-182 77v179z" />
</svg>