<svg xmlns="http://www.w3.org/2000/svg" xmlns:xlink="http://www.w3.org/1999/xlink" version="1.1" viewBox="-10 0 2068 2048">
   <path fill="currentColor"
d="M1808 665q0 116 -82 197t-198 81t-197 -81t-81 -197q0 -115 82 -197t196 -82q116 0 198 81.5t82 197.5zM2048 666q0 106 -41.5 202.5t-111 166t-166 110.5t-201.5 41l-500 365q-14 148 -125 249.5t-261 101.5q-138 0 -244.5 -87t-135.5 -219l-262 -107v-490l444 180
q107 -65 238 -52l324 -466q1 -105 42.5 -200.5t111.5 -164.5t166 -109.5t202 -40.5q105 0 201.5 41t166 111t111 166t41.5 202zM928 1513q0 -119 -83.5 -202.5t-202.5 -83.5q-32 0 -62 7l120 47q87 35 124 122t2 174q-36 87 -122.5 124t-173.5 1q-102 -41 -140 -55
q37 69 104.5 110.5t147.5 41.5q119 0 202.5 -83.5t83.5 -202.5zM1876 666q0 -94 -46.5 -174.5t-127 -127.5t-174.5 -47q-95 0 -175.5 47t-127.5 127.5t-47 174.5q0 95 47 175t127.5 126.5t175.5 46.5q94 0 174.5 -46.5t127 -126.5t46.5 -175z" />
</svg>