<svg xmlns="http://www.w3.org/2000/svg" xmlns:xlink="http://www.w3.org/1999/xlink" version="1.1" viewBox="-10 0 2068 2048">
   <path fill="currentColor"
d="M256 0h896q52 0 90 38t38 90v256q0 52 -38 90t-90 38h-320v128h868q95 0 167.5 61.5t86.5 155.5l90 600q4 27 4 57v279q0 106 -75.5 180.5t-180.5 74.5h-1536q-105 0 -180.5 -74.5t-75.5 -180.5v-279q0 -33 4 -57l92 -600q14 -94 85.5 -155.5t166.5 -61.5h228v-128h-320
q-52 0 -90 -38t-38 -90v-256q0 -52 38 -90t90 -38zM384 192q-27 0 -45.5 19t-18.5 45t18.5 45t45.5 19h640q27 0 45.5 -19t18.5 -45t-18.5 -45t-45.5 -19h-640zM256 1729q0 26 19 45t45 19h1408q26 0 45 -19t19 -45t-19 -45t-45 -19h-1408q-26 0 -45 19t-19 45zM448.5 1056
q39.5 0 67.5 -28t28 -68t-28 -68t-67.5 -28t-68 28t-28.5 68t28.5 68t68 28zM928 960q0 -40 -28 -68t-67.5 -28t-68 28t-28.5 68t28.5 68t68 28t67.5 -28t28 -68zM640.5 1377q39.5 0 67.5 -28.5t28 -68.5t-28 -67.5t-67.5 -27.5t-68 27.5t-28.5 67.5t28.5 68.5t68 28.5z
M1312 960q0 -40 -28.5 -68t-68 -28t-67.5 28t-28 68t28 68t67.5 28t68 -28t28.5 -68zM1024.5 1377q39.5 0 67.5 -28.5t28 -68.5t-28 -67.5t-67.5 -27.5t-68 27.5t-28.5 67.5t28.5 68.5t68 28.5zM1696 960q0 -40 -28 -68t-67.5 -28t-68 28t-28.5 68t28.5 68t68 28t67.5 -28
t28 -68zM1408.5 1377q39.5 0 67.5 -28.5t28 -68.5t-28 -67.5t-67.5 -27.5t-68 27.5t-28.5 67.5t28.5 68.5t68 28.5z" />
</svg>