<svg xmlns="http://www.w3.org/2000/svg" xmlns:xlink="http://www.w3.org/1999/xlink" version="1.1" viewBox="-10 0 2058 2048">
   <path fill="currentColor"
d="M640.5 1382q97.5 0 180 -48t130.5 -130.5t48 -179.5t-48 -180t-130.5 -131t-180 -48t-180 48t-130.5 131t-48 180t48 179.5t130.5 130.5t180 48zM1198 1100q-18 136 -96 247.5t-200 175.5t-262 64q-114 0 -218.5 -44.5t-180 -120t-120 -179.5t-44.5 -219t44.5 -219
t120 -179.5t180 -120t218.5 -44.5q140 0 262 64t200 175t96 247h108v-180q0 -31 23 -53.5t54.5 -22.5t53.5 22.5t22 53.5v180h102v-180q0 -23 13 -42.5t35 -28.5t45 -4t39 22l255 255q23 23 23 55t-23 54l-255 256q-16 17 -39 21.5t-45 -4.5t-35 -28.5t-13 -42.5v-180h-102
v180q0 32 -22 54.5t-53.5 22.5t-54.5 -22.5t-23 -54.5v-180h-108z" />
</svg>