<svg xmlns="http://www.w3.org/2000/svg" xmlns:xlink="http://www.w3.org/1999/xlink" version="1.1" viewBox="-10 0 2058 2048">
   <path fill="currentColor"
d="M938 18q31 -18 73 -18.5t73 16.5l777 438q30 17 51.5 54t21.5 72v884q0 34 -21 70.5t-52 53.5l-777 444q-31 17 -73.5 16.5t-72.5 -18.5l-751 -440q-30 -18 -51.5 -55t-21.5 -71v-884q0 -35 21.5 -72t51.5 -54zM623 830h-193v414h77v-124h116q48 0 83.5 -21t51.5 -53.5
t16 -70t-16 -70t-51.5 -54t-83.5 -21.5zM1193 1238l-125 -142q36 -7 61.5 -30t36 -52t6.5 -61.5t-20.5 -59.5t-49.5 -44.5t-78 -18.5h-196v414h78v-140h75l120 140h92v-6zM1024 902q34 0 53 21t19 46t-19 46t-53 21h-118v-134h118zM636 896q30 0 47.5 25t17.5 54t-17.5 54
t-47.5 25h-131v-158h131zM1419 822q-50 0 -91 18.5t-67 49t-40 69t-14.5 78.5t13 78.5t38.5 69t67 49t94 18.5q51 0 92.5 -18.5t67 -49t39 -69t13.5 -78.5t-14 -78.5t-39 -69t-66.5 -49t-92.5 -18.5zM1419 894q37 0 66 15.5t44 41t22.5 56t0.5 61t-22 56t-44.5 41
t-66.5 15.5t-66.5 -15.5t-44.5 -41t-22 -56t0 -61t22.5 -56t44.5 -41t66 -15.5z" />
</svg>