<svg xmlns="http://www.w3.org/2000/svg" xmlns:xlink="http://www.w3.org/1999/xlink" version="1.1" viewBox="-10 0 2068 2048">
   <path fill="currentColor"
d="M1028 664h-104v102h260q46 0 92 22l161 82l536 -116q21 -4 39 5t27 25t8 36.5t-15 35.5l-584 662q-30 34 -70.5 52t-84.5 18h-830q-64 0 -109.5 -45.5t-45.5 -108.5v-68l-216 -96q-42 -18 -66.5 -56.5t-24.5 -85.5v-206q0 -64 45 -110t109 -46h153h155h256v-102h-102
q-42 0 -72.5 -30t-30.5 -72t30.5 -72t72.5 -30h411q42 0 72 30t30 72t-30 72t-72 30zM308 922h-153v206l153 70v-276z" />
</svg>