<svg xmlns="http://www.w3.org/2000/svg" xmlns:xlink="http://www.w3.org/1999/xlink" version="1.1" viewBox="-10 0 2058 2048">
   <path fill="currentColor"
d="M718 433q235 378 384 743q-58 236 -142 450q-29 -113 -48.5 -181.5t-51 -163t-70 -176.5t-86.5 -159q13 -74 15.5 -157.5t0 -190.5t-1.5 -165zM501 768q37 0 59 29q140 193 228 408.5t149 477.5h-473q-146 -505 -420 -857q-14 -18 -3.5 -38t33.5 -20h427zM719 365h496
q131 181 239.5 374.5t195.5 405.5t143.5 442t76.5 461h-520q-11 -178 -50.5 -362.5t-97 -350.5t-137.5 -340t-163 -323.5t-183 -306.5zM1870 52q142 503 142 972q0 235 -30.5 477t-85.5 452q-75 -631 -414 -1239q-31 -351 -121 -667q-4 -19 6.5 -33t29.5 -14h403
q24 0 43.5 14.5t26.5 37.5z" />
</svg>