<svg xmlns="http://www.w3.org/2000/svg" xmlns:xlink="http://www.w3.org/1999/xlink" version="1.1" viewBox="-10 0 2068 2048">
   <path fill="currentColor"
d="M96 128h64q40 0 68 28t28 68v1600q0 40 -28 68t-68 28h-64q-39 0 -67.5 -28t-28.5 -68v-1600q0 -40 28.5 -68t67.5 -28zM448.5 128q26.5 0 45 19t18.5 45v1665q0 26 -18.5 44.5t-45 18.5t-45.5 -18.5t-19 -44.5v-1665q0 -26 19 -45t45.5 -19zM736 128h64q39 0 67.5 28
t28.5 68v1600q0 40 -28.5 68t-67.5 28h-64q-40 0 -68 -28t-28 -68v-1600q0 -40 28 -68t68 -28zM1120 128h64q40 0 68 28t28 68v1600q0 40 -28 68t-68 28h-64q-39 0 -67.5 -28t-28.5 -68v-1600q0 -40 28.5 -68t67.5 -28zM1792 224q0 -40 28.5 -68t67.5 -28h64q40 0 68 28
t28 68v1600q0 40 -28 68t-68 28h-64q-39 0 -67.5 -28t-28.5 -68v-1600zM1536 192q0 -26 19 -45t45.5 -19t45 19t18.5 45v1665q0 26 -18.5 44.5t-45 18.5t-45.5 -18.5t-19 -44.5v-1665z" />
</svg>