<svg xmlns="http://www.w3.org/2000/svg" xmlns:xlink="http://www.w3.org/1999/xlink" version="1.1" viewBox="-10 0 2058 2048">
   <path fill="currentColor"
d="M1091 1515v-697q0 -67 -67 -67t-67 67v697q-139 51 -139 193q0 88 59 147q58 58 147 58t147 -58t58 -147q0 -142 -138 -193zM1229 1435v-1234q0 -85 -58 -143t-147 -58t-147 58q-59 59 -59 143v1234q-134 101 -134 273q0 147 99 243q100 97 241 97t241 -97
q99 -96 99 -243q0 -167 -135 -273zM1024 1980q-114 0 -193 -79q-80 -80 -80 -193q0 -160 134 -240v-1267q0 -53 42 -94q41 -40 97 -40q55 0 96 40q42 41 42 94v1267q134 80 134 240q0 114 -79 193t-193 79z" />
</svg>