<svg xmlns="http://www.w3.org/2000/svg" xmlns:xlink="http://www.w3.org/1999/xlink" version="1.1" viewBox="-10 0 2068 2048">
   <path fill="currentColor"
d="M2030 1370l-148 -63l-744 311q-56 21 -114 21t-114 -21l-746 -311l-146 63q-18 5 -18 17q0 11 18 16l964 405q14 8 41.5 8t42.5 -8l964 -405q18 -5 18 -16q0 -12 -18 -17zM2030 1007l-148 -63l-432 181l-312 131q-56 21 -114 21t-114 -21l-316 -131l-430 -181l-146 63
q-18 5 -18 17t18 17l386 164l578 241q14 8 41.5 8t42.5 -8l576 -241l388 -164q18 -5 18 -17t-18 -17zM18 679l146 63l240 101l240 101l194 80l144 59q16 9 41.5 9t42.5 -9l144 -59l192 -80l240 -101l240 -101l148 -63q18 -5 18 -17t-18 -17l-964 -405q-15 -8 -42.5 -8
t-41.5 8l-964 405q-18 5 -18 17t18 17z" />
</svg>