<svg xmlns="http://www.w3.org/2000/svg" xmlns:xlink="http://www.w3.org/1999/xlink" version="1.1" viewBox="-10 0 2068 2048">
   <path fill="currentColor"
d="M992 216q14 -12 32.5 -12t33.5 12l386 324q43 36 67.5 88t24.5 108v366v742h-52h-358v-308q0 -42 -30 -72t-72 -30t-72 30t-30 72v308h-358h-52v-742v-366q0 -57 24 -108.5t68 -87.5zM1638 1844v-856l90 -100q14 -16 38 -16t38 16l204 226q40 44 40 102v422
q0 85 -60 145.5t-144 60.5h-206zM410 988v856h-206q-84 0 -144 -60.5t-60 -145.5v-422q0 -58 40 -102l204 -226q14 -16 38 -16t38 16zM1046 604q-7 -13 -22 -13t-22 13l-52 88h-102q-15 0 -22.5 13t0.5 25l52 90l-52 88q-8 13 -0.5 26.5t22.5 13.5l102 -2l52 90q7 13 22 13
t22 -13l52 -90l102 2q15 0 22.5 -13.5t-0.5 -26.5l-52 -88l52 -90q8 -12 0.5 -25t-22.5 -13h-102z" />
</svg>