<svg xmlns="http://www.w3.org/2000/svg" xmlns:xlink="http://www.w3.org/1999/xlink" version="1.1" viewBox="-10 0 2068 2048">
   <path fill="currentColor"
d="M2048 1024q0 139 -37 272t-103 245.5t-160.5 207t-206.5 160t-244.5 102.5t-272 37t-272 -37t-245 -102.5t-207 -160t-160.5 -207t-103 -245.5t-37 -272t37 -272t103 -245.5t160.5 -207t207 -160t245 -102.5t272 -37t272 37t244.5 102.5t206.5 160t160.5 207t103 245.5
t37 272zM1084 540l-416 416q-28 28 -28 68t28 69l416 415q28 28 68 28t68.5 -28t28.5 -68t-29 -68l-348 -349l348 -348q29 -28 28.5 -67t-28 -67.5t-67.5 -28.5t-69 28z" />
</svg>