<svg xmlns="http://www.w3.org/2000/svg" xmlns:xlink="http://www.w3.org/1999/xlink" version="1.1" viewBox="-10 0 2068 2048">
   <path fill="currentColor"
d="M686 1634q0 6 -7 10.5t-15 4.5q-10 0 -16 -4t-6 -11q0 -6 6 -10t14 -4q10 -1 17 3t7 11zM557.5 1615q2.5 -6 9.5 -9t15 0q9 2 14 8.5t3.5 12.5t-8.5 8.5t-15 -0.5q-10 -2 -15.5 -8t-3 -12zM740 1608q9 -1 16.5 3t8 10t-5 11t-14 7.5t-16.5 -1t-9 -9.5q0 -7 5.5 -13
t14.5 -8zM1011.5 26q141.5 0 275.5 35t247.5 98.5t209 155.5t162.5 202.5t104.5 243t37.5 273.5q0 225 -87 426t-244 346.5t-361 214.5q-37 6 -54.5 -10t-17.5 -40q0 -4 1 -134t1 -212q0 -132 -72 -191q64 -8 100 -13t93.5 -19.5t91 -33t74.5 -52.5t63 -78.5t37 -110.5
t15 -149q0 -79 -25 -130.5t-81 -113.5q7 -15 11.5 -36.5t8.5 -58.5t-3.5 -86.5t-26.5 -98.5q-25 -8 -63 0.5t-75 26.5t-71 37t-55 33l-20 14q-127 -35 -260 -35t-260 35q-8 -6 -21.5 -15t-52.5 -31.5t-73.5 -38t-73.5 -25t-63 -1.5q-20 49 -27.5 98.5t-3.5 86.5t8.5 58.5
t10.5 36.5q-52 58 -74 110t-22 134q0 83 14.5 149t35.5 110.5t60.5 78.5t72.5 52.5t88.5 33t92 20t98.5 12.5q-52 47 -64 139q-23 10 -46 17t-59 9.5t-68.5 -5.5t-67.5 -35t-61 -72q-15 -28 -37.5 -49t-43 -31.5t-39 -17t-29.5 -8.5l-11 -1q-28 -1 -39 5.5t-6.5 16t12.5 19
t17 16.5l10 7q30 13 58.5 51t42.5 69l13 31q13 37 39 64.5t57.5 40.5t67 20.5t68.5 7t59.5 -2t42.5 -4.5l16 -3q0 51 1 149.5t1 104.5q0 24 -17.5 39.5t-54.5 9.5q-152 -52 -282 -149t-222 -225t-144 -286t-52 -327q0 -142 35.5 -274t99.5 -242.5t156.5 -202.5t203.5 -155.5
t243 -98.5t273.5 -35zM402 1451q9 -10 22 3q13 15 2 22q-8 9 -22 -4q-12 -15 -2 -21zM358 1417q4 -7 18 -3q13 6 8 17q-5 8 -16 2q-15 -7 -10 -16zM492 1564q4 -5 12 -4t14 8q7 6 8 13.5t-4 12.5q-4 5 -12 3.5t-14 -8.5q-7 -6 -8.5 -13.5t4.5 -11.5zM444 1503q11 -9 22 8
q13 15 0 26q-9 6 -22 -9q-5 -7 -5 -14.5t5 -10.5z" />
</svg>