<svg xmlns="http://www.w3.org/2000/svg" xmlns:xlink="http://www.w3.org/1999/xlink" version="1.1" viewBox="-10 0 2067 2048">
   <path fill="currentColor"
d="M374 712q-19 23 -46 36.5t-55 11.5q-3 -27 7.5 -56t28.5 -49q18 -21 46.5 -35t54.5 -16q5 57 -36 108zM409 767q85 8 124 67l-5 3.5t-11 8.5t-14 13t-15.5 18.5t-13.5 23t-10 28.5t-4 34q0 16 3.5 31.5t8.5 27t12 22t14 18.5t14.5 14t14.5 10.5t12 7.5t8 4.5l3 1.5
q-18 54 -46 96q-14 21 -22 31.5t-22 25t-28.5 21t-31.5 6.5q-22 0 -54 -13.5t-58 -13.5q-27 0 -59 13.5t-51 14.5q-21 1 -42 -13.5t-33.5 -29.5t-31.5 -43q-30 -45 -50 -102.5t-20 -123.5t28 -115q22 -38 59.5 -61t79.5 -24q25 -1 62.5 14.5t48.5 15.5q9 0 54 -17t76 -15z
M730 651h234q91 0 148.5 57.5t57.5 148t-58.5 147.5t-150.5 57h-135v213h-96v-623zM826 733v248h112q63 0 98 -33t35 -92t-34.5 -91t-98.5 -32h-112zM1345 1280q-67 0 -109.5 -37t-42.5 -98q0 -60 44 -93.5t129 -38.5l121 -8v-35q0 -38 -24 -58t-69 -20q-36 0 -60.5 17
t-30.5 46h-88q3 -61 54 -100t128 -39q84 0 133.5 40.5t49.5 107.5v310h-90v-74h-2q-19 37 -58 58.5t-85 21.5zM1372 1206q50 0 82.5 -29t32.5 -72v-34l-108 7q-92 5 -92 65q0 28 23.5 45.5t61.5 17.5zM1700 1444q-26 0 -38 -2v-75q12 2 29 2q32 0 51.5 -15t30.5 -50l9 -28
l-164 -454h101l114 368h2l113 -368h99l-170 477q-29 82 -67.5 113.5t-109.5 31.5z" />
</svg>