<svg xmlns="http://www.w3.org/2000/svg" xmlns:xlink="http://www.w3.org/1999/xlink" version="1.1" viewBox="-10 0 2058 2048">
   <path fill="currentColor"
d="M1882 604l-384 384q-37 37 -90 37t-90.5 -37.5t-37.5 -91t38 -90.5l166 -166h-1228q-52 0 -90 -37.5t-38 -90t38 -90.5t90 -38h1228l-166 -166q-38 -37 -38 -90t37.5 -90.5t90.5 -37.5t90 38l384 384q37 37 37 90.5t-37 91.5zM550 2010l-384 -382q-37 -38 -37 -91t37 -91
l384 -384q37 -38 90 -38t90.5 37.5t37.5 90.5t-38 90l-164 166h1226q53 0 90.5 38t37.5 90.5t-37.5 91t-90.5 38.5h-1226l164 164q38 37 38 90t-37.5 90.5t-90.5 37.5t-90 -38z" />
</svg>