<svg xmlns="http://www.w3.org/2000/svg" xmlns:xlink="http://www.w3.org/1999/xlink" version="1.1" viewBox="-10 0 2068 2048">
   <path fill="currentColor"
d="M438 546v956q71 41 108 106h956v-1l-20 -36l-146 -256q-4 0 -10 0.5t-10 0.5q-120 0 -206 -86t-86 -207t86 -207t206 -86q4 0 10 1t10 1l146 -257l20 -36v-2h-956q-39 68 -108 108v1zM1756 1462q121 1 206.5 87t85.5 207t-86 206.5t-206 85.5q-81 0 -148.5 -39.5
t-105.5 -106.5h-956q-38 67 -105.5 106.5t-148.5 39.5q-120 0 -206 -85.5t-86 -206.5q0 -81 39.5 -148t106.5 -106v-956q-67 -39 -106.5 -106t-39.5 -148q0 -121 86 -206.5t206 -85.5q81 0 148.5 39.5t105.5 106.5h956q38 -67 105.5 -106.5t148.5 -39.5q120 0 206 85.5
t86 206.5t-85.5 206t-206.5 86l-20 38l-146 255l-10 18q30 57 30 129t-30 129l10 17l146 256z" />
</svg>