<svg xmlns="http://www.w3.org/2000/svg" xmlns:xlink="http://www.w3.org/1999/xlink" version="1.1" viewBox="-10 0 2058 2048">
   <path fill="currentColor"
d="M512 0h1152h128q53 0 90.5 37.5t37.5 90.5v1280q0 53 -37.5 90.5t-90.5 37.5v257q53 0 90.5 37.5t37.5 90t-37.5 90t-90.5 37.5h-128h-1152q-105 0 -193 -51t-139.5 -139.5t-51.5 -192.5v-1281q0 -104 51.5 -192.5t139.5 -140t193 -51.5zM512 1536q-53 0 -90.5 38
t-37.5 91t37.5 90.5t90.5 37.5h1024v-257h-1024zM960 320v192h-192q-26 0 -45 19t-19 45v128q0 26 19 45.5t45 19.5h192v447q0 26 19 45t45 19h128q27 0 45.5 -19t18.5 -45v-447h192q27 0 45.5 -19.5t18.5 -45.5v-128q0 -26 -18.5 -45t-45.5 -19h-192v-192q0 -26 -18.5 -45
t-45.5 -19h-128q-26 0 -45 19t-19 45z" />
</svg>