<svg xmlns="http://www.w3.org/2000/svg" xmlns:xlink="http://www.w3.org/1999/xlink" version="1.1" viewBox="-10 0 2058 2048">
   <path fill="currentColor"
d="M256.5 0q52.5 0 90 38t37.5 90v64l276 -69q115 -28 232 -15.5t222 65.5q139 70 294.5 70t293.5 -70l40 -19q30 -16 62 -12.5t57.5 18.5t42 43t16.5 62v1118q0 40 -23 73.5t-61 46.5l-138 52q-139 52 -286.5 44.5t-279.5 -73.5q-114 -57 -240.5 -71t-249.5 17l-258 64v384
q0 52 -37.5 90t-90 38t-90.5 -38t-38 -90v-319v-265v-1080v-128q0 -52 38 -90t90.5 -38zM384 748l256 -55v262l-256 55v262l196 -48q45 -11 60 -13v-256l156 -34q41 -10 100 -8v-256q74 1 162 26l94 27v267l-166 -49q-44 -13 -90 -15v285q131 12 256 58v-279l90 27
q77 23 166 29v-257q-48 -5 -92 -18l-164 -48v-248q-78 -22 -152 -60q-44 -22 -104 -35v290q-82 -2 -154 14l-102 22v-301l-256 65v291zM1408 1343q103 11 200 -27l56 -21v-287l-32 7q-105 24 -224 18v310zM1664 745v-283q-119 36 -256 36v278q83 7 168 -11z" />
</svg>