<svg xmlns="http://www.w3.org/2000/svg" xmlns:xlink="http://www.w3.org/1999/xlink" version="1.1" viewBox="-10 0 2068 2048">
   <path fill="currentColor"
d="M2048 292v1464q0 121 -86 206.5t-206 85.5h-1464q-120 0 -206 -85.5t-86 -206.5v-1464q0 -121 86 -206.5t206 -85.5h1464q120 0 206 85.5t86 206.5zM1170 584q0 -60 -43 -103t-103 -43h-438q-61 0 -104.5 43t-43.5 103t44 104t104 44h438q60 0 103 -44t43 -104zM1464 878
h-878q-61 0 -104.5 43t-43.5 103t43.5 103t104.5 43h878q60 0 103 -43t43 -103t-43 -103t-103 -43zM878 1462q0 -60 -43 -103t-103 -43h-146q-61 0 -104.5 43t-43.5 103t43.5 103t104.5 43h146q60 0 103 -43t43 -103z" />
</svg>