<svg xmlns="http://www.w3.org/2000/svg" xmlns:xlink="http://www.w3.org/1999/xlink" version="1.1" viewBox="-10 0 2058 2048">
   <path fill="currentColor"
d="M512 0h714q106 0 181 75l310 309q75 75 75 181v1228q0 106 -75 180.5t-181 74.5h-1024q-106 0 -181 -74.5t-75 -180.5v-1537q0 -106 75 -181t181 -75zM639 769q-53 0 -90 37.5t-37 89.5v128h256v-255h-129zM512 1408h320h384h320v-256h-320h-384h-320v256zM1536 896
q0 -52 -38 -89.5t-91 -37.5h-127v255h256v-128zM896 769v255h256v-255h-256zM1407 1793q53 0 91 -38t38 -90v-129h-256v257h127zM896 1536v257h256v-257h-256zM512 1665q0 53 37.5 90.5t89.5 37.5h129v-257h-256v129z" />
</svg>