<svg xmlns="http://www.w3.org/2000/svg" xmlns:xlink="http://www.w3.org/1999/xlink" version="1.1" viewBox="-10 0 2068 2048">
   <path fill="currentColor"
d="M529.5 1308q132.5 0 276.5 -70q148 -72 218 -214q71 142 218 214q145 70 278 70q131 0 232 -32q101 -31 154 -78q49 -44 86 -96q36 -49 48 -78l8 -34q-68 68 -212 68q-72 0 -136 -80q-61 -79 -138 -158q-78 -80 -182 -80q-111 0 -200 46q-88 44 -122 86l-34 46
q-12 -20 -36 -50t-116 -78q-95 -50 -204 -50q-82 0 -150 50q-64 46 -102 110q-37 60 -92 110q-53 48 -112 48q-144 0 -212 -68q6 15 12 34q5 21 42 76q34 54 88 98q52 41 154 76q101 34 233.5 34z" />
</svg>