<svg xmlns="http://www.w3.org/2000/svg" xmlns:xlink="http://www.w3.org/1999/xlink" version="1.1" viewBox="-10 0 2068 2048">
   <path fill="currentColor"
d="M678 206q19 0 33.5 11t20.5 29q30 95 110.5 154.5t182.5 59.5q101 0 181 -59.5t110 -154.5q6 -18 20.5 -29t33.5 -11h41q111 0 196 70l404 336q31 26 36 72q4 40 -25 74l-179 206q-27 31 -69.5 34.5t-73.5 -24.5l-165 -136v800q0 84 -59.5 144t-144.5 60h-614
q-85 0 -144.5 -60t-59.5 -144v-800l-165 136q-32 28 -74 24.5t-69 -34.5l-179 -206q-29 -34 -25 -74q5 -46 36 -72l404 -336q85 -70 197 -70h40z" />
</svg>