<svg xmlns="http://www.w3.org/2000/svg" xmlns:xlink="http://www.w3.org/1999/xlink" version="1.1" viewBox="-10 0 2068 2048">
   <path fill="currentColor"
d="M1748 295q-294 -295 -724 -295t-724 295q-300 313 -300 729q0 413 300 721q307 303 723.5 303t732.5 -303q292 -291 292 -721q0 -433 -300 -729zM1622 1610q-250 249 -598 249q-344 0 -590 -245q-248 -249 -248 -590q0 -161 46 -278l522 236l160 72l122 54l98 43
q28 25 28 63q0 55 -38 76q-36 25 -88 25q-134 0 -232 -93l-138 144q143 122 312 122v156h118v-156q106 -12 184 -72q81 -69 98 -156l382 169q-46 88 -138 181zM1314 1012l-164 -76l-92 -38l-132 -59q-8 -15 -8 -25q0 -43 38 -64q34 -17 84 -17q93 0 178 59l134 -139
q-117 -83 -256 -92v-160h-118v160q-100 9 -170 54q-69 45 -96 127l-392 -177q64 -84 114 -135q240 -249 590 -249q354 0 594 249q244 240 244 594q0 112 -26 219z" />
</svg>