<svg xmlns="http://www.w3.org/2000/svg" xmlns:xlink="http://www.w3.org/1999/xlink" version="1.1" viewBox="-10 0 2058 2048">
   <path fill="currentColor"
d="M410 205v478q0 15 14 27l218 164q45 34 40 93l-43 398h-206l39 -363l-171 -128q-45 -34 -70.5 -84.5t-25.5 -106.5v-513q0 -71 50 -120.5t121 -49.5h1296q71 0 121 49.5t50 120.5v513q0 56 -25.5 106.5t-70.5 84.5l-170 128l40 363h-207l-44 -398q-5 -58 41 -93l218 -164
q14 -12 14 -27v-478h-274v102q0 43 -29.5 72.5t-72.5 29.5t-72.5 -29.5t-29.5 -72.5v-102h-273v102q0 43 -30 72.5t-73 29.5t-72 -29.5t-29 -72.5v-102h-274zM431 1843h1187l-70 -136h-1047zM1590 1501q38 0 71.5 20t50.5 54l112 219q19 35 19 80q0 72 -50.5 123t-122.5 51
h-1290q-72 0 -123.5 -51t-51.5 -123q0 -43 20 -80l113 -219q17 -34 50 -54t71 -20h1130h1zM956 1092q-28 0 -48 -20t-20 -48v-205q0 -56 40 -96t96 -40t96.5 40t40.5 96v205q0 28 -20 48t-48 20h-137z" />
</svg>