<svg xmlns="http://www.w3.org/2000/svg" xmlns:xlink="http://www.w3.org/1999/xlink" version="1.1" viewBox="-10 0 2068 2048">
   <path fill="currentColor"
d="M634 131l-130 339q-6 19 8 33l192 193v-56q0 -93 50.5 -170.5t131.5 -117.5q28 -12 51 5.5t23 47.5v43q0 27 19 45.5t45.5 18.5t45 -18.5t18.5 -45.5v-43q0 -30 23.5 -47.5t50.5 -5.5q82 40 132 117.5t50 170.5v56l193 -193q14 -14 7 -35l-130 -337q-13 -37 3 -73t53 -51
q38 -14 73.5 1.5t49.5 52.5l130 339q24 62 10 126.5t-61 111.5l-230 230l322 -107q16 -4 20 -21l75 -226q13 -38 48.5 -55.5t74 -5t56 48t4.5 73.5l-76 227q-17 50 -54 87t-88 54l-241 81l243 80q50 17 86.5 54.5t53.5 87.5l76 227q13 39 -4.5 74t-56 47.5t-73.5 -4.5
t-48 -56l-76 -228q-4 -15 -20 -20l-322 -107l230 229q47 47 61 113t-10 127l-130 337q-13 38 -49 54t-74 2q-37 -13 -53.5 -50t-2.5 -75l130 -338q7 -19 -7 -33l-129 -130q-2 103 -53.5 190t-139.5 137t-190.5 50t-190 -50.5t-139.5 -137t-54 -189.5l-129 130q-14 15 -8 33
l130 339q14 38 -1.5 74.5t-53.5 49.5q-37 14 -73.5 -2t-51.5 -54l-129 -337q-24 -61 -10.5 -127t60.5 -113l230 -229l-322 107q-14 5 -19 20l-76 228q-12 39 -47 56t-73.5 4.5t-56.5 -48t-6 -73.5l77 -227q18 -50 54.5 -87t86.5 -55l242 -80l-242 -81q-50 -17 -87 -54
t-55 -87l-76 -227q-12 -38 6 -73.5t56.5 -48t73.5 5t47 55.5l76 226q5 17 19 21l322 107l-230 -230q-46 -47 -59.5 -112t9.5 -126l129 -339q14 -37 50.5 -52t74.5 -2q38 14 54 50.5t1 73.5z" />
</svg>