<svg xmlns="http://www.w3.org/2000/svg" xmlns:xlink="http://www.w3.org/1999/xlink" version="1.1" viewBox="-10 0 2058 2048">
   <path fill="currentColor"
d="M1270 316q28 13 45 38t17 56v1228q0 31 -17 56.5t-45 37.5q-26 13 -56.5 8.5t-53.5 -24.5l-430 -384h-218q-85 0 -144.5 -60.5t-59.5 -145.5v-204q0 -84 59.5 -145t144.5 -61h218l430 -382q23 -21 53.5 -25.5t56.5 7.5zM1626 786q53 44 83.5 106t30.5 132.5t-30.5 132.5
t-83.5 105q-24 21 -55 17.5t-51.5 -28t-17 -56t27.5 -51.5q56 -45 56 -120q0 -73 -56 -120q-24 -20 -27.5 -51.5t17 -56t51.5 -28t55 17.5z" />
</svg>