<svg xmlns="http://www.w3.org/2000/svg" xmlns:xlink="http://www.w3.org/1999/xlink" version="1.1" viewBox="-10 0 2068 2048">
   <path fill="currentColor"
d="M292 0h1464q120 0 206 85.5t86 206.5v1464q0 121 -86 206.5t-206 85.5h-1464q-120 0 -206 -85.5t-86 -206.5v-1464q0 -121 86 -206.5t206 -85.5zM708 442l-202 54q-30 8 -49 32.5t-19 55.5q0 139 37 272t103 245.5t161 207t207 160t245 102.5t273 37q30 0 54.5 -18.5
t33.5 -48.5l54 -201q8 -34 -7 -64.5t-47 -43.5l-218 -92q-28 -12 -58 -4.5t-50 30.5l-90 114q-122 -57 -217 -152.5t-151 -215.5l112 -91q24 -20 31.5 -49.5t-3.5 -57.5l-92 -219q-12 -32 -43.5 -47t-64.5 -6z" />
</svg>