<svg xmlns="http://www.w3.org/2000/svg" xmlns:xlink="http://www.w3.org/1999/xlink" version="1.1" viewBox="-10 0 2067 2048">
   <path fill="currentColor"
d="M1152 437v971q0 52 -38 90t-90 38t-90 -38t-38 -90v-971l-293 294q-37 37 -90 37t-91 -37.5t-38 -90.5t38 -90l511 -512q37 -38 91 -38t91 38l511 512q38 37 38 90t-38 90.5t-91 37.5t-90 -37zM257 1408h512q0 106 74.5 181.5t180.5 75.5t181.5 -75.5t75.5 -181.5h511
q106 0 180.5 75.5t74.5 181.5v128q0 105 -74.5 180t-180.5 75h-1535q-106 0 -181 -75t-75 -180v-128q0 -106 75 -181.5t181 -75.5zM1728 1824q40 0 68 -28t28 -67.5t-28 -68t-68 -28.5t-68 28.5t-28 68t28 67.5t68 28z" />
</svg>