<svg xmlns="http://www.w3.org/2000/svg" xmlns:xlink="http://www.w3.org/1999/xlink" version="1.1" viewBox="-10 0 2066 2048">
   <path fill="currentColor"
d="M222 666l420 1148q-224 -108 -360 -320.5t-136 -469.5q0 -187 76 -358zM1616 979q0 12 -1 24.5t-3.5 28t-4.5 27t-7 30.5t-7.5 29.5t-9.5 34t-10 33.5t-11.5 38t-11.5 39l-88 293l-316 -945l100 -8q22 -3 29.5 -21.5t-2.5 -35t-33 -15.5q-143 11 -234 11q-39 0 -96.5 -3
t-95.5 -5l-38 -3q-23 -1 -33.5 16t-3 36t30.5 20q45 5 92 8l136 376l-192 576l-320 -952l100 -8q23 -3 30.5 -21.5t-3 -35t-33.5 -15.5q-142 11 -234 11q-36 0 -56 -1q121 -182 314.5 -289t419.5 -107q168 0 320.5 60.5t271.5 170.5q-2 0 -6 -0.5t-6 -0.5q-62 0 -104 47
t-42 109q0 32 12.5 67.5t25.5 58.5t40 67q6 9 8 14q33 55 52.5 111.5t19.5 129.5zM1040 1101l268 739q1 2 8 12q-144 50 -292 50q-125 0 -248 -36zM1794 602q108 197 108 422q0 239 -119 441t-319 318l268 -776q68 -168 68 -314q0 -44 -6 -91zM2046 1024q0 139 -36.5 272
t-102.5 245t-160.5 206.5t-207 160.5t-245 103t-271 37t-271 -37t-244.5 -103t-206.5 -160.5t-160.5 -206.5t-102.5 -245t-36.5 -272t36.5 -272t102.5 -245t160.5 -206.5t206.5 -160.5t244.5 -103t271 -37t271 37t245 103t207 160.5t160.5 206.5t102.5 245t36.5 272z
M2000 1024q0 -133 -35.5 -259.5t-98.5 -233.5t-153.5 -197.5t-197.5 -153.5t-233 -98t-258 -35q-133 0 -259.5 35t-233.5 98t-197.5 153.5t-153 197.5t-97.5 233.5t-35 259.5t35 259.5t98 233.5t153.5 197t197.5 153t233 98t259 35q132 0 258.5 -35t233.5 -98t197.5 -153
t153 -197t98 -233.5t35.5 -259.5z" />
</svg>