<svg xmlns="http://www.w3.org/2000/svg" xmlns:xlink="http://www.w3.org/1999/xlink" version="1.1" viewBox="-10 0 2068 2048">
   <path fill="currentColor"
d="M1791 437v1099h128q53 0 90 38t37 90.5t-37 90.5t-90 38h-128v127q0 52 -37.5 90t-90 38t-90.5 -38t-38 -90v-1227l-842 843h715v257h-896q-105 0 -180.5 -75.5t-75.5 -181.5v-1024h-128q-52 0 -90 -38t-38 -90.5t38 -90t90 -37.5h128v-127q0 -53 37.5 -90.5t90 -37.5
t90.5 37.5t38 90.5v1226l843 -843h-715v-256h970l218 -218q38 -38 91.5 -38t91 37.5t37.5 91t-38 91.5z" />
</svg>