<svg xmlns="http://www.w3.org/2000/svg" xmlns:xlink="http://www.w3.org/1999/xlink" version="1.1" viewBox="-10 0 2061 2048">
   <path fill="currentColor"
d="M308 1481q1 6 1 19q0 62 -44 107t-106 45t-107 -45t-45 -107t45 -106t107 -44q13 0 21 1q-64 -91 -87 -182t-9 -164t46.5 -140t77 -116t84.5 -85.5t68 -55.5l28 -18q-11 76 -19 167t-11 144l-3 53q-56 34 -84 66.5t-30 57.5t15 48.5t44.5 41t67 33t74 25.5t72.5 19
q60 163 203.5 265.5t321.5 102.5q4 0 11.5 -0.5t11.5 -0.5l1 75q-141 2 -266 -16.5t-217 -51.5t-156 -66t-116 -72zM740 171q70 -48 140.5 -70.5t130.5 -21.5t117.5 16.5t104 44t87.5 60.5t71.5 66t52.5 61t33 44l11 17q-76 -11 -167 -19.5t-143 -11.5l-53 -3
q-31 -51 -60.5 -79t-54 -32t-46 5t-39.5 34.5t-32.5 53.5t-27 66t-20.5 68t-15 62q-157 63 -254 204t-97 315v11l-87 1q-2 -143 17 -269.5t52.5 -219t67 -156.5t72.5 -115h-12q-62 0 -106.5 -44.5t-44.5 -106.5t44.5 -107t106.5 -45q45 0 81.5 24t55.5 63q15 29 15 65
q0 13 -1 19zM1955 707q-29 15 -64 15q-2 0 -6.5 -0.5t-6.5 -0.5q54 73 82 146t29.5 135.5t-12 122t-42 108t-60.5 91.5t-67 74.5t-62.5 54.5t-45.5 35l-18 11q11 -76 19 -167.5t11 -144.5l3 -53q55 -34 83 -65.5t30.5 -57t-14 -49t-43.5 -40.5t-65.5 -33t-72.5 -26t-72 -19
q-62 -158 -204 -256t-318 -98q-21 0 -32 1v-89q449 -6 732 190q-1 -8 -1 -21q0 -62 45 -107t107 -45t106.5 45t44.5 107q0 45 -23.5 81t-62.5 55zM1497 1744v1h1q62 0 107 45t45 107t-45 106.5t-107 44.5q-45 0 -81 -24t-55 -63q-12 -23 -14 -56q-72 52 -144 78t-133.5 26
t-120 -14t-106.5 -42.5t-90 -60.5t-73.5 -66t-54 -61.5t-34.5 -44.5l-11 -18q76 11 167 19t144 11l53 2q34 55 66.5 83t57.5 30.5t48.5 -14.5t40.5 -44t33 -66.5t25.5 -73.5t18.5 -72q162 -60 264 -204t102 -322q0 -5 -0.5 -12t-0.5 -12l78 -1q6 432 -181 718z" />
</svg>