<svg xmlns="http://www.w3.org/2000/svg" xmlns:xlink="http://www.w3.org/1999/xlink" version="1.1" viewBox="-10 0 2058 2048">
   <path fill="currentColor"
d="M512 0h1152h128q53 0 90.5 37.5t37.5 90.5v1280q0 53 -37.5 90.5t-90.5 37.5v257q53 0 90.5 37.5t37.5 90t-37.5 90t-90.5 37.5h-128h-1152q-105 0 -193 -51t-139.5 -139.5t-51.5 -192.5v-1281q0 -104 51.5 -192.5t139.5 -140t193 -51.5zM512 1536q-53 0 -90.5 38
t-37.5 91t37.5 90.5t90.5 37.5h1024v-257h-1024zM640 576q0 26 19 45t45 19h768q27 0 45.5 -19t18.5 -45t-18.5 -45t-45.5 -19h-768q-26 0 -45 19t-19 45zM704 769q-26 0 -45 19t-19 45t19 44.5t45 18.5h768q27 0 45.5 -18.5t18.5 -44.5t-18.5 -45t-45.5 -19h-768z" />
</svg>