<svg xmlns="http://www.w3.org/2000/svg" xmlns:xlink="http://www.w3.org/1999/xlink" version="1.1" viewBox="-10 0 2068 2048">
   <path fill="currentColor"
d="M16 153q-16 -23 -16 -55q0 -40 29.5 -69t70.5 -29h436q33 0 63 17t47 45l272 456q-142 18 -267.5 82.5t-224.5 165.5zM2032 153l-410 613q-98 -101 -224 -165.5t-268 -82.5l274 -456q17 -29 46.5 -45.5t61.5 -16.5h438q41 0 69.5 28.5t28.5 69.5q0 32 -16 55zM320 1344
q0 -143 56 -273.5t150 -225t224.5 -150t274 -55.5t273.5 55.5t224 150t150 225t56 273.5t-56 273.5t-150 225t-224 150t-273.5 55.5t-274 -55.5t-224.5 -150t-150 -225t-56 -273.5zM1058 965q-11 -21 -34 -21t-34 21l-88 181q-9 18 -28 20l-202 30q-22 3 -29.5 24.5
t9.5 38.5l144 142q15 14 12 34l-36 199q-3 22 16 36t40 3l178 -94q18 -8 36 0l180 94q20 11 38.5 -3t15.5 -36l-36 -199q-3 -20 12 -34l144 -142q17 -17 9.5 -38.5t-29.5 -24.5l-200 -30q-20 -2 -28 -20z" />
</svg>