<svg xmlns="http://www.w3.org/2000/svg" xmlns:xlink="http://www.w3.org/1999/xlink" version="1.1" viewBox="-10 0 2067 2048">
   <path fill="currentColor"
d="M796 991h-84q9 -46 43 -46q37 0 41 46zM1234 946h1q44 -3 44 64q0 64 -45 64q-46 2 -46 -64q0 -19 4.5 -32.5t10 -19.5t13.5 -9t11 -3h7zM456 1022q18 -14 66 -5v55q-51 8 -66 -4l-2.5 -2.5t-4.5 -4t-3.5 -6t-1.5 -9.5v-2q0 -12 12 -22zM2047 947q0 103 -44.5 194
t-116.5 151t-169.5 86.5t-197.5 5.5q-23 42 -64 78.5t-95 62.5t-124.5 25.5t-140.5 -33.5q-32 75 -88.5 127t-121.5 75t-137.5 21.5t-136.5 -28t-117.5 -81.5t-81.5 -130q-92 18 -173 -8t-133.5 -80.5t-80.5 -129.5t-24 -151t47.5 -149t122.5 -120q-27 -62 -31.5 -129
t11.5 -128t51.5 -116t84 -95.5t113.5 -64t136 -23.5q94 0 177 42t139 114q51 -52 118.5 -82t141.5 -30q100 0 183.5 51t131.5 137q73 -32 149 -37t144 14t128.5 59t104 95.5t69 127t25.5 149.5zM386 1049q0 -38 -58 -55q-3 -2 -13 -5.5t-15 -5.5t-10 -7t-5 -11
q0 -14 15 -18.5t34 -0.5t32 12q3 2 5 -1q1 -2 4.5 -12t3.5 -11v-2q0 -2 -2 -3q-21 -13 -51 -16t-54.5 10.5t-24.5 45.5q0 42 57 56q2 0 10 2.5t12 4t10 5t8.5 7.5t2.5 9q0 10 -8 16t-22 6q-35 0 -61 -20q-5 -3 -6 2l-7 24v4q8 6 28.5 13.5t45.5 7.5q32 0 50.5 -15.5
t18.5 -42.5v1zM488 912q-43 0 -69 17q-1 1 -1 3v2l9 22q0 3 3 3l1 -1l7 -3t19.5 -6t26.5 -3q20 0 30 7q10 8 10 34q-2 0 -12.5 -1.5t-18.5 -1.5t-19.5 0.5t-22.5 4t-21 10.5q-24 17 -24 45v2q0 29 21 46q18 11 48.5 12t48 -2t25.5 -6q12 -3 12 -6v-109v-13.5t-4 -17t-11 -19
t-22 -13.5t-36 -6zM637 845q0 -3 -4 -3h-1h-31q-3 0 -3 3v253q0 4 3 4h32q4 0 4 -4v-253zM815 938q-21 -24 -57 -24q-45 0 -66 28q-21 25 -21 69q0 45 23 68q24 26 73 26q38 0 59 -12q3 -2 0 -6l-6 -21q-1 -3 -4 -3h-1q-27 9 -49 9q-19 0 -31 -7t-16.5 -18t-5.5 -16.5
t-1 -11.5h119q3 0 3 -4l0.5 -5t0 -13.5t-1.5 -18.5t-5.5 -21t-12.5 -19zM932 1106q32 0 50.5 -15.5t18.5 -42.5q0 -13 -5.5 -23t-16.5 -16t-17.5 -9t-18.5 -6q-2 -1 -9 -3.5t-11.5 -4t-10 -5t-8.5 -7.5t-3 -9q0 -9 7.5 -14.5t19.5 -5.5q31 0 54 13l8 3h-1q-3 -4 -2 -5
q1 -2 4.5 -11.5t3.5 -10.5v-2q0 -2 -2 -3q-25 -16 -65 -16q-28 0 -47 15.5t-19 40.5q0 42 57 56q2 0 7 1.5t7 2.5t6.5 2t6 2t5 3t5 3.5l3.5 3.5t2.5 4.5t0.5 5.5q0 10 -8 16t-22 6q-32 0 -60 -21h-2q-4 0 -4 3l-7 24v4q4 3 12 7t25.5 9t35.5 5zM1142 922q0 -5 -4 -5h-37
q0 -2 1 -8.5t4.5 -16.5t8.5 -15q3 -3 7.5 -5t8.5 -2.5t8.5 0t7.5 1t5 1l2 0.5q4 2 5 -1l9 -25q2 -2 -1 -4q-10 -7 -36 -4.5t-42 17.5q-19 19 -26 62h-27q-3 0 -3 5l-6 24q0 4 5 4h26q-29 164 -33 178q-5 19 -19 24q-13 5 -31 -1q-3 0 -5 3l-8 24q-1 5 1 5q29 11 58 0
q24 -8 36 -42q2 -5 3.5 -9t2.5 -8.5t2.5 -12l3 -15t4.5 -23t5.5 -30t7.5 -41t9 -52.5h39q3 0 3 -4zM1313 973v-2q-20 -56 -80 -56q-33 0 -54 17.5t-27 40.5q-12 39 0 75q0 1 2 6.5t7.5 14.5t14 17t23.5 14t34 6q33 0 53.5 -17.5t26.5 -40.5q12 -36 0 -75zM1458 919
q-10 -6 -34 -2.5t-36 19.5v-13v-1q0 -4 -4 -4h-30h-1q-3 0 -3 4v1v176q0 4 3 4h1h30q5 0 5 -4h-1v-89q0 -35 15 -48q17 -17 42 -10q4 0 5 -3q2 -5 5.5 -13.5t4.5 -12.5q0 -2 -2 -4zM1608 1092l-7 -23l-4 -3q-14 6 -37 6q-54 0 -54 -63q0 -14 3 -26t16 -24.5t34 -12.5h2
q18 0 34 5h1l4 1q-1 -2 -1 -3q1 -1 3.5 -9.5t4.5 -14.5q1 -3 -2 -3q-52 -17 -89 0l-3.5 1.5t-6.5 3.5t-8 6t-9.5 8t-9 11t-8 15t-5.5 19t-2 23q0 7 0.5 14t5.5 24t13.5 28.5t28 21t45.5 9.5q25 0 49 -9q2 -2 2 -4v-1zM1780 966q-15 -52 -72 -52q-35 0 -54.5 18t-26.5 42
q-5 18 -5 35v2q0 94 95 94q39 0 60 -12q4 -2 1 -6l-8 -21q-1 -3 -4 -3q-27 9 -50 9q-19 0 -31 -7t-16.5 -18t-5.5 -16.5t-1 -11.5h119q4 0 4 -4l0.5 -6.5t-0.5 -18.5t-5 -24zM1706 945q38 0 41 46h-85q2 -17 12 -31.5t32 -14.5z" />
</svg>