<svg xmlns="http://www.w3.org/2000/svg" xmlns:xlink="http://www.w3.org/1999/xlink" version="1.1" viewBox="-10 0 2068 2048">
   <path fill="currentColor"
d="M1025 307q40 0 75 13l897 325q22 8 36.5 27.5t14.5 43.5t-14.5 44.5t-36.5 28.5l-897 323q-35 13 -76 13t-75 -13l-511 -184q46 -46 103 -69l502 -197q19 -7 27.5 -27t1.5 -40q-8 -19 -27.5 -27.5t-38.5 -0.5l-503 197q-89 34 -157 114q-89 116 -89 260v79q25 56 43 135
q42 176 7 348q-5 22 -23.5 33t-39.5 6l-204 -51q-27 -7 -36 -32q-10 -26 7 -49q37 -51 72 -120q71 -146 71 -258v-91q0 -154 83 -282l-186 -67q-23 -8 -36.5 -28.5t-13.5 -44.5t13.5 -43.5t36.5 -27.5l898 -325q34 -13 76 -13zM411 1510l48 -465l455 165q52 19 111 19
q57 0 110 -19l454 -165l49 465q0 42 -49 83.5t-130 74t-196 53t-238.5 20.5t-238.5 -20.5t-196.5 -53t-130 -74t-48.5 -83.5z" />
</svg>