<svg xmlns="http://www.w3.org/2000/svg" xmlns:xlink="http://www.w3.org/1999/xlink" version="1.1" viewBox="-10 0 2068 2048">
   <path fill="currentColor"
d="M256 358.5q0 -63.5 45.5 -108.5t109.5 -45t108.5 45t44.5 108.5t-44.5 108.5t-108.5 45t-109.5 -45t-45.5 -108.5zM462 978v208l162 164q36 35 43 83l49 291q7 41 -18 75.5t-67 42.5q-41 7 -74.5 -18t-41.5 -67l-46 -275l-254 -253q-61 -61 -61 -145v-282q0 -78 55 -133
t133 -55q58 0 109.5 27.5t82.5 75.5l151 227l32 16v-243q0 -42 30 -72.5t72 -30.5h410q42 0 72 30.5t30 72.5v244l32 -17l152 -227q32 -48 82.5 -75.5t108.5 -27.5q78 0 133 55t55 133v282q0 85 -60 145l-253 253l-46 275q-8 41 -42.5 66.5t-75.5 18.5q-42 -8 -66.5 -42.5
t-17.5 -75.5l48 -291q7 -48 43 -83l163 -164v-208l-60 91q-21 32 -60 52l-190 96q-12 6 -25 9q-14 3 -25 3h-405q-12 0 -24 -3q-13 -3 -26 -9l-190 -96q-37 -19 -60 -52zM8 1703l153 -383l158 157l-121 301q-16 39 -54.5 56t-78.5 1t-56.5 -54.5t-0.5 -77.5zM1638 205
q64 0 109 45t45 108.5t-45 108.5t-109 45t-109 -45t-45 -108.5t45 -108.5t109 -45zM1887 1320l153 383q16 40 -0.5 78.5t-56.5 54.5t-78.5 -1t-54.5 -56l-121 -301z" />
</svg>