<svg xmlns="http://www.w3.org/2000/svg" xmlns:xlink="http://www.w3.org/1999/xlink" version="1.1" viewBox="-10 0 2068 2048">
   <path fill="currentColor"
d="M352.5 0q39.5 0 67.5 28t28 68q0 45 20.5 74.5t75.5 76.5l4 5q26 24 40.5 37.5t40.5 43.5t39.5 57t24.5 68t11 86q0 40 -28 68t-67.5 28t-68 -28t-28.5 -68q0 -45 -20 -74.5t-74 -76.5l-4 -5q-27 -24 -41.5 -37.5t-40.5 -43.5t-39.5 -57t-25 -68t-11.5 -86
q0 -40 28.5 -68t68 -28zM128 769h1280h192q92 0 175 35t142.5 95t95 143t35.5 174t-35.5 174.5t-95 143.5t-142.5 95.5t-175 35.5h-64q0 104 -51.5 192.5t-140 139.5t-192.5 51h-768q-105 0 -193 -51t-139.5 -139.5t-51.5 -192.5v-769q0 -52 38 -89.5t90 -37.5zM1536 1024
v384h64q80 0 136 -56t56 -136t-56 -136t-136 -56h-64zM896 96q0 45 20.5 74.5t75.5 76.5l4 5q26 23 41 37t40 44t38.5 57.5t25 68t11.5 85.5q0 40 -28 68t-67.5 28t-68 -28t-28.5 -68q0 -45 -20.5 -74.5t-75.5 -76.5l-4 -5q-26 -23 -41 -37t-40 -44t-38.5 -57.5t-25 -68
t-11.5 -85.5q0 -40 28 -68t67.5 -28t68 28t28.5 68z" />
</svg>