<svg xmlns="http://www.w3.org/2000/svg" xmlns:xlink="http://www.w3.org/1999/xlink" version="1.1" viewBox="-10 0 2058 2048">
   <path fill="currentColor"
d="M416 1868l-44 37q-20 15 -45 15q-29 0 -50 -21t-21 -50v-1080q0 -156 61 -298.5t164 -245.5t245 -164t298 -61t298 61t245 164t164 245.5t61 298.5v1080q0 29 -21.5 50t-50.5 21q-24 0 -44 -15l-45 -37q-40 -32 -91 -27t-85 44l-122 139q-21 24 -53 24t-54 -24l-106 -122
q-38 -44 -96 -44t-96 44l-107 122q-21 24 -53 24q-31 0 -53 -24l-122 -139q-34 -39 -85.5 -44t-91.5 27zM896 769q0 -53 -38 -91t-90 -38t-90.5 38t-38.5 91q0 52 38 89.5t91 37.5t90.5 -37.5t37.5 -89.5zM1280 896q52 0 89.5 -37t37.5 -90t-37.5 -91t-89.5 -38t-90 38
t-38 91q0 52 37.5 89.5t90.5 37.5z" />
</svg>