<svg xmlns="http://www.w3.org/2000/svg" xmlns:xlink="http://www.w3.org/1999/xlink" version="1.1" viewBox="-10 0 2068 2048">
   <path fill="currentColor"
d="M1076 1237q-20 25 -52 25t-52 -25q-43 -52 -84.5 -108t-96.5 -138t-95.5 -154.5t-69 -150t-28.5 -132.5q0 -116 56.5 -214.5t154.5 -155.5t214.5 -57t214.5 57t155 155.5t57 214.5q0 55 -28.5 132.5t-69.5 150t-95.5 154.5t-96.5 138t-84 108zM1478 1916v-1076
q1 -1 34 -74q2 -2 4 -6.5t2 -6.5l412 -164q43 -17 80.5 8t37.5 71v962q0 26 -15 47.5t-39 31.5zM54 793l436 -174q12 71 44 147q28 61 36 74v894l-454 181q-42 17 -79 -8.5t-37 -71.5v-962q0 -26 15 -48t39 -32zM1366 1034v886l-684 -195v-691q75 114 200 273
q55 68 141.5 68t140.5 -68q132 -166 202 -273z" />
</svg>