<svg xmlns="http://www.w3.org/2000/svg" xmlns:xlink="http://www.w3.org/1999/xlink" version="1.1" viewBox="-10 0 2068 2048">
   <path fill="currentColor"
d="M1994 424h-1938q-56 0 -56 54v1091q0 55 56 55h1938q54 0 54 -55v-1091q0 -54 -54 -54zM1288 583q0 -42 38 -42h176q42 0 42 42v176q0 38 -42 38h-176q-38 0 -38 -38v-176zM786 1099q0 42 -32 74q-32 31 -74 31h-452q-44 0 -75 -31t-31 -74v-453q0 -47 31 -78t75 -31h452
q42 0 74 31q32 32 32 78v453zM902 583q0 -42 42 -42h176q42 0 42 42v176q0 38 -42 38h-176q-42 0 -42 -38v-176zM1926 1506h-1024v-117h1024v117zM1926 1271h-1024v-117h1024v117zM1926 1036h-1024v-117h1024v117zM1926 759q0 38 -38 38h-176q-42 0 -42 -38v-176
q0 -42 42 -42h176q38 0 38 42v176zM454 873q59 0 114 -47q46 -53 46 -117q0 -60 -46 -113q-55 -47 -114 -47q-66 0 -114 47q-50 50 -50 113q0 67 50 117q48 47 114 47zM740 994q0 -16 -10 -42q-4 -8 -10 -23q-6 -17 -6 -19q-15 -22 -30 -33q-10 -10 -32 -25q-34 -9 -48 -9
l-20 13q-4 0 -12 6q-15 10 -18 11q-25 17 -46 21q-14 8 -54 8t-58 -8q-30 -9 -42 -21q-5 0 -12 -5l-12 -8q-5 -4 -10 -4q-14 -13 -18 -13q-20 0 -46 9l-38 25q-10 10 -24 33q-4 6 -16 42q0 6 -6 23q-4 16 -8 19q-4 15 -4 46q0 4 -2 24t-2 23q0 46 34 79q37 30 80 30h364
q47 0 84 -30q30 -29 30 -79v-47q0 -17 -8 -46z" />
</svg>