<svg xmlns="http://www.w3.org/2000/svg" xmlns:xlink="http://www.w3.org/1999/xlink" version="1.1" viewBox="-10 0 2068 2048">
   <path fill="currentColor"
d="M96.5 128q39.5 0 67.5 28t28 68v1408q0 40 28.5 68.5t67.5 28.5h1664q40 0 68 27.5t28 67.5t-28 68t-68 28h-1664q-119 0 -203.5 -84.5t-84.5 -203.5v-1408q0 -40 28.5 -68t68 -28zM512 544q0 -40 28.5 -68t67.5 -28h832q39 0 67.5 28t28.5 68t-28.5 68t-67.5 28h-832
q-39 0 -67.5 -28t-28.5 -68zM608 833h576q40 0 68 27.5t28 67.5t-28 68t-68 28h-576q-39 0 -67.5 -28t-28.5 -68t28.5 -67.5t67.5 -27.5zM608 1216h1088q40 0 68 28.5t28 68.5t-28 67.5t-68 27.5h-1088q-39 0 -67.5 -27.5t-28.5 -67.5t28.5 -68.5t67.5 -28.5z" />
</svg>