<svg xmlns="http://www.w3.org/2000/svg" xmlns:xlink="http://www.w3.org/1999/xlink" version="1.1" viewBox="-11 0 2068 2048">
   <path fill="currentColor"
d="M139 143q33 -33 80.5 -33t80.5 33l290 291l190 -191q76 -76 182 -76t181 76l541 542q76 76 76 181.5t-76 181.5l-680 680q-65 65 -153.5 88.5t-176.5 0t-154 -88.5l-420 -419q-65 -65 -88.5 -154t0 -177.5t88.5 -153.5l329 -329l-290 -291q-33 -33 -33 -80.5t33 -80.5z
M767 933l-177 -176l-328 329q-22 22 -30 52h1139l151 -151q9 -8 9 -20.5t-9 -20.5l-540 -540q-8 -8 -19.5 -8t-20.5 8l-189 189l176 176q33 33 33 81t-33 81t-81 33t-81 -33zM1818.5 1938q-94.5 0 -161.5 -67t-67 -162q0 -60 57 -171t126 -217q16 -25 46 -25t45 25
q70 106 126.5 217t56.5 171q0 95 -67 162t-161.5 67z" />
</svg>