<svg xmlns="http://www.w3.org/2000/svg" xmlns:xlink="http://www.w3.org/1999/xlink" version="1.1" viewBox="-10 0 2068 2048">
   <path fill="currentColor"
d="M1152 128q0 -52 38 -90t90 -38h128q105 0 193 51.5t139.5 140t51.5 192.5t-51.5 193t-139.5 140.5t-193 51.5h-1280q-52 0 -90 -38t-38 -90.5t38 -90.5t90 -38h1280q53 0 90.5 -38t37.5 -90t-37.5 -90t-90.5 -38h-128q-52 0 -90 -38t-38 -90zM1408 1536.5
q0 -52.5 38 -90.5t90 -38h128q53 0 90.5 -37.5t37.5 -90.5t-37.5 -90.5t-90.5 -37.5h-1536q-52 0 -90 -38t-38 -90t38 -90t90 -38h1536q105 0 193 51.5t139.5 140t51.5 192.5t-51.5 193t-139.5 140.5t-193 51.5h-128q-52 0 -90 -38t-38 -90.5zM512 2048q-52 0 -90 -38
t-38 -90t38 -89.5t90 -37.5h128q53 0 90.5 -37.5t37.5 -90.5t-37.5 -91t-90.5 -38h-512q-52 0 -90 -38t-38 -90t38 -90t90 -38h512q105 0 193.5 51.5t139.5 140.5t51 193t-51 192.5t-139.5 139.5t-193.5 51h-128z" />
</svg>