<svg xmlns="http://www.w3.org/2000/svg" xmlns:xlink="http://www.w3.org/1999/xlink" version="1.1" viewBox="-10 0 2068 2048">
   <path fill="currentColor"
d="M2046 964q2 37 2 56q0 140 -37 273t-103 245.5t-161 207t-207 160.5t-245 103t-272 37q-187 0 -359.5 -66t-305 -179t-224 -270.5t-121.5 -336.5q-1 -7 -3 -20t-2 -20q-16 -133 1 -266.5t66 -247.5q33 -81 93 -157t113 -103q-48 92 -75 184t-32 162q72 -236 258 -374
q101 -74 224 -106.5t225.5 -19.5t159.5 64q-64 22 -126.5 67.5t-116 113.5t-92 148t-54 178t-0.5 197q12 86 50 162q-21 -54 -27.5 -114t5 -122.5t42.5 -107.5q32 -50 77 -79t82 -36.5t67 -0.5q-14 -3 -39.5 36.5t-35.5 63.5q-25 56 -25 124v4q0 71 28 134t77 110
q57 56 129.5 84t146 26t145 -26t133 -72.5t103.5 -113.5q49 -76 66.5 -178t-3 -217.5t-80.5 -214.5q-46 -73 -110 -134q-147 -140 -345.5 -198t-398.5 -22q-1 0 -2.5 1l-1.5 1q-4 0 -7.5 0.5t-7.5 1t-6 0.5q-1 0 -3 1l-2 1l-25 6q-117 30 -203 82h-1v0h-1h1h-1l2 -2l3.5 -3
t6.5 -5q129 -117 342 -162q103 -20 188 -22h43q78 2 158 18q2 0 5.5 1t5.5 1q4 0 12 2t12 2q121 28 229 80q7 3 29 16q52 27 102 64q31 22 51 40q44 34 76 68q53 54 97 110q1 2 11 16q0 2 1.5 3t2.5 3l8 10l1.5 3t2.5 3q1 2 3.5 5t3.5 5l4 8l7 8l4 8q0 1 2.5 3.5t3.5 4.5
l2 3.5t3 4.5q0 2 2 4.5t2.5 4t2.5 4t3 3.5q3 4 5 10q0 1 2 4.5t3 3.5l4 8q0 2 2 5.5t3 4.5l1.5 2.5t2.5 3.5q0 2 2.5 5.5t3.5 4.5q0 2 0.5 4t1.5 2q1 2 2.5 6t2.5 6l2 4q3 8 10 23.5t11 22.5v2l7 14l0.5 1.5t0.5 2.5q1 2 2.5 7t2.5 7q1 0 1 2t2.5 8t3.5 8l1 4q2 4 5 14
q0 1 1 2t1 2q0 2 1.5 7t2.5 7q0 1 0.5 2t0.5 2t2 7l3 9v2l4 16l1 2q21 79 31 170l1 20q0 3 0.5 9t0.5 9z" />
</svg>