<svg xmlns="http://www.w3.org/2000/svg" xmlns:xlink="http://www.w3.org/1999/xlink" version="1.1" viewBox="-10 0 2058 2048">
   <path fill="currentColor"
d="M332 482q-38 0 -65 27t-27 64t27 63t65 26h632q99 0 169.5 71t70.5 171t-70.5 170.5t-169.5 70.5h-392q-37 0 -63.5 26.5t-26.5 64t26.5 63.5t63.5 26h572q21 0 48 15l242 150q42 25 42 77v90q0 38 -26.5 64.5t-64 26.5t-64.5 -27t-27 -64v-40l-176 -111h-546
q-112 0 -191 -79t-79 -191.5t79 -192t191 -79.5h392q24 0 42 -17.5t18 -42.5t-18 -42.5t-42 -17.5h-632q-113 0 -192.5 -79t-79.5 -192t79.5 -192.5t192.5 -79.5h788q132 0 251.5 58t200.5 162l294 377q122 158 122 353v406q0 38 -26.5 64.5t-64 26.5t-64.5 -27t-27 -64
v-406q0 -137 -82 -242l-296 -377q-55 -71 -136 -110.5t-172 -39.5h-788z" />
</svg>