<svg xmlns="http://www.w3.org/2000/svg" xmlns:xlink="http://www.w3.org/1999/xlink" version="1.1" viewBox="-10 0 2058 2048">
   <path fill="currentColor"
d="M1616 1238l-82 139h168l-84 -139h-2zM1486 1024l-216 -352h-490l-218 352l218 353h490zM1748 1024l214 348q22 38 22 78q0 62 -44 106.5t-106 44.5h-438l-226 365q-22 38 -61 60t-84.5 22t-84.5 -22t-62 -60l-224 -365h-440q-62 0 -106 -44.5t-44 -106.5q0 -40 22 -78
l214 -348l-214 -348q-22 -38 -22 -79q0 -61 44 -105t106 -44h440l224 -366q22 -38 61.5 -60t84.5 -22t84 22t62 60l226 366h438q62 0 106 44t44 105q0 41 -22 79zM1534 672l82 138l86 -138h-168zM1132 448l-108 -176l-108 176h216zM516 672h-168l84 138zM432 1238l-84 139
h168zM916 1601l108 175l108 -175h-216z" />
</svg>