<svg xmlns="http://www.w3.org/2000/svg" xmlns:xlink="http://www.w3.org/1999/xlink" version="1.1" viewBox="-10 0 2058 2048">
   <path fill="currentColor"
d="M129 256q0 -52 37.5 -90t90.5 -38h320q117 0 223.5 45.5t183.5 122.5t122.5 183.5t45.5 223.5q0 174 -94.5 316.5t-247.5 211.5l205 513q19 50 -1.5 98.5t-69.5 67.5q-50 20 -99 -1t-68 -70l-224 -560h-169v513q0 52 -37.5 89.5t-90 37.5t-90 -37.5t-37.5 -89.5v-640
v-896zM384 1024h193q86 0 159.5 -43t116.5 -117t43 -161t-43 -160.5t-116.5 -116t-159.5 -42.5h-193v640zM1409 1089q-3 19 3 40q1 7 16 19q20 16 53 30t98 37l6 3l19 7t22.5 8t21.5 8t24 9.5t22 9.5t24.5 11.5t22.5 12t24 14t21.5 14.5t21.5 17q62 53 92 130q29 77 15 176
q-13 83 -58.5 145t-116.5 98q-126 62 -293 32h-1q-48 -10 -117 -36q-14 -5 -38 -14.5t-32 -12.5q-15 -6 -25 -11q-50 -20 -71.5 -68t-1.5 -97q19 -50 67 -71t98 -2q5 2 15 6.5t16 6.5q11 5 33 13t29 11q53 20 75 23q84 15 132 -8q31 -16 36 -52q5 -34 -1 -50q-4 -12 -19 -24
q-32 -27 -147 -67l-12 -4q-46 -16 -71.5 -26t-68.5 -32t-73 -46q-65 -51 -95 -124q-33 -77 -18 -173q8 -55 32.5 -102t59.5 -79t79.5 -56t93.5 -34t101 -12.5t102 8.5q97 18 141 33q50 16 74.5 63.5t9 97.5t-62.5 75t-97 9q-63 -17 -112 -26q-79 -15 -130 12q-34 17 -37 49z
" />
</svg>