<svg xmlns="http://www.w3.org/2000/svg" xmlns:xlink="http://www.w3.org/1999/xlink" version="1.1" viewBox="-10 0 2068 2048">
   <path fill="currentColor"
d="M1108 82l265 549l595 88q26 4 46.5 21t28.5 42t2.5 50.5t-24.5 44.5l-432 427l102 604q4 26 -6 50.5t-31 40.5t-48 18t-51 -11l-531 -284l-531 284q-24 13 -50.5 11t-48.5 -18t-32 -40.5t-5 -50.5l102 -604l-431 -426q-19 -19 -25 -44.5t2 -51.5t28 -42.5t46 -20.5
l595 -88l266 -549q12 -24 34 -37.5t49.5 -13.5t50 13.5t34.5 37.5zM1024 1523q22 0 44 11l407 218l-77 -464q-8 -48 26 -82l333 -329l-459 -69q-22 -3 -41.5 -17t-29.5 -34l-203 -419v1185z" />
</svg>