<svg xmlns="http://www.w3.org/2000/svg" xmlns:xlink="http://www.w3.org/1999/xlink" version="1.1" viewBox="-10 0 2067 2048">
   <path fill="currentColor"
d="M1025 146q178 0 340.5 69.5t280 187.5t187 280.5t69.5 340.5t-69.5 340.5t-187 280t-280 187t-340.5 69.5t-340.5 -69.5t-280.5 -187t-187.5 -280t-69.5 -340.5t69.5 -340.5t187.5 -280.5t280.5 -187.5t340.5 -69.5zM622 695h-1v110q0 15 11 26t26 11h74q15 0 25.5 -11
t10.5 -26v-110q0 -70 28 -124.5t73 -83t100 -41.5t109.5 0t99.5 41.5t73 83t28 124.5v110q0 15 11 26t26 11h73q15 0 26 -11t11 -26v-110q0 -166 -117.5 -284t-283.5 -118t-284.5 118t-118.5 284zM1609 1536v-586q0 -30 -21.5 -51.5t-51.5 -21.5h-1023q-30 0 -52 21.5
t-22 51.5v586q0 30 22 51t52 21h1023q30 0 51.5 -21t21.5 -51zM585 969v548q0 8 -5 13.5t-12 5.5h-37q-7 0 -12.5 -5.5t-5.5 -13.5v-548q0 -8 5.5 -13.5t12.5 -5.5h37q7 0 12 5.5t5 13.5zM1170 1170q0 40 -19.5 73t-53.5 52v130q0 15 -11 26t-26 11h-72q-15 0 -26 -11
t-11 -26v-130q-73 -43 -73 -125q0 -61 42.5 -103.5t102.5 -42.5t103.5 43t43.5 103zM1025 0q208 0 397.5 81t326 218t217.5 326.5t81 398.5t-81 398.5t-217.5 326.5t-326 218t-397.5 81t-397.5 -81t-327 -218t-218.5 -327t-81 -398t81 -398t218.5 -327t327 -218t397.5 -81z
M1025 1974q193 0 369 -75.5t303 -202.5t202 -303t75 -369t-75 -369t-202 -303t-303 -202.5t-369 -75.5t-369 75.5t-303.5 202.5t-203 303t-75.5 369t75.5 369t203 303t303.5 202.5t369 75.5z" />
</svg>