<svg xmlns="http://www.w3.org/2000/svg" xmlns:xlink="http://www.w3.org/1999/xlink" version="1.1" viewBox="-10 0 2068 2048">
   <path fill="currentColor"
d="M2001 451q41 64 45.5 140t-22.5 140t-85 111.5t-134 57.5q-30 4 -45 4q-72 0 -136 -29.5t-110 -80.5q-47 51 -109.5 80.5t-134.5 29.5t-136 -29.5t-110 -80.5q-47 51 -111 80.5t-135 29.5q-72 0 -135 -29.5t-109 -80.5q-47 51 -111 80.5t-135 29.5q-15 0 -45 -4
q-76 -11 -133.5 -58t-84.5 -111t-23 -140t45 -140l216 -341q14 -23 38.5 -36t52.5 -13h1341q28 0 52 13t38 36zM1821 1020q23 -3 46 -9v494v242q0 99 -71 169.5t-170 70.5h-1203q-100 0 -171 -70.5t-71 -169.5v-242v-494q19 5 46 9q26 4 61 4q67 0 135 -21v502h1203v-502
q68 21 134 21q34 0 61 -4z" />
</svg>