<svg xmlns="http://www.w3.org/2000/svg" xmlns:xlink="http://www.w3.org/1999/xlink" version="1.1" viewBox="-10 0 2068 2048">
   <path fill="currentColor"
d="M0 896q0 -53 38 -90.5t90 -37.5h128v-128q0 -53 37.5 -90.5t90.5 -37.5h128v-128q0 -53 38 -90.5t90 -37.5h768q53 0 90.5 37.5t37.5 90.5v128h128q53 0 90.5 37.5t37.5 90.5v128h128q52 0 90 37.5t38 90.5v768q0 53 -38 90.5t-90 37.5h-256v-448q0 -27 -18.5 -45.5
t-45 -18.5t-45.5 18.5t-19 45.5v448h-256v-448q0 -27 -19 -45.5t-45.5 -18.5t-45 18.5t-18.5 45.5v448h-256v-448q0 -27 -18.5 -45.5t-45 -18.5t-45.5 18.5t-19 45.5v448h-256v-448q0 -27 -18.5 -45.5t-45 -18.5t-45.5 18.5t-19 45.5v448h-256q-52 0 -90 -37.5t-38 -90.5
v-768z" />
</svg>