<svg xmlns="http://www.w3.org/2000/svg" xmlns:xlink="http://www.w3.org/1999/xlink" version="1.1" viewBox="-10 0 2068 2048">
   <path fill="currentColor"
d="M1004 977q-14 0 -26.5 -5.5t-18.5 -11t-5 -5.5q-9 -12 -9.5 -6t1.5 12q-15 -15 -19 -36t-1.5 -32t4.5 -15q3 -7 -2 -7l-6 7q1 -13 8 -24.5t14 -17.5l6 -5l2 1q1 4 0.5 5.5t-1.5 8.5t-1 14q3 -5 15.5 -13.5t20.5 -11.5q-6 12 -6 21q12 -15 26 -8q-19 18 -22.5 38.5t6 33.5
t26.5 13q12 0 24 -10.5t20 -23.5q4 5 13.5 12.5t10.5 8.5q-28 57 -80 57zM1172 910q0 12 -18 14q8 -12 0 -28q18 0 18 14zM1204 927q0 16 -14.5 26t-31.5 8q4 4 13.5 6t14.5 0q-6 11 -23.5 14.5t-34 -6t-16.5 -29.5q-6 8 -5.5 16t5.5 13q-17 -8 -20 -23q-1 -12 0.5 -17
t0 -10t-8 -11t-24.5 -20q-8 -5 -10.5 -10.5t-2.5 -10t-1 -6.5q0 -2 -6 -7t-8 -8.5t0 -11.5q0 8 8 11q4 2 8.5 2t7 1.5t4 8.5t2.5 8q2 1 10 1t12 4q5 3 17.5 14.5t16.5 13.5q10 8 18.5 2t5.5 -17q11 7 12 20t-8 20q23 6 30 -13q6 -17 -10 -23q-2 -1 -4 -1q17 -2 29.5 8.5
t12.5 26.5zM1080 868q33 -48 76 -51q-15 -2 -33.5 6.5t-30.5 22.5q3 -10 12 -22t20 -19l-4 11q1 1 7 -3.5t14 -10t15 -5.5l-10 7q-2 3 0 4t3.5 0t8 -2.5t12.5 -1.5q26 0 44 20q-10 -2 -24.5 0.5t-19.5 7.5q-2 -1 -5.5 -3t-11 -2t-16 3.5t-19 16.5t-20.5 35q-18 -13 -18 -14z
M1854 1034q89 0 141.5 42.5t52.5 113.5q0 72 -46.5 114t-143.5 42q-98 0 -164 -6l24 -27v-247l-24 -26q66 -6 160 -6zM1806 1275q150 19 150 -85q0 -53 -38 -73t-112 -12v170zM966 784q0 1 -2.5 -2t-5.5 -9t-4 -13q0 -5 1.5 -13.5t6.5 -20.5t19.5 -20t36.5 -7q26 1 40 16.5
t14 36.5q0 22 -18 44q0 -1 -10 -9.5t-14 -14.5q9 -13 4.5 -30t-20.5 -17q-10 0 -16 9.5t-4 22.5q-4 13 -2 25q-18 -10 -24 -28q-7 15 -2 30zM964 803q0 -3 -5.5 -8.5t-10.5 -7.5l22 1q-5 -7 -2 -21q5 11 23 21.5t21 17.5q-1 -12 -16 -19q-2 -8 0 -20t6 -16q-2 16 20.5 37
t25.5 28q-2 -8 -7.5 -15t-14 -14.5t-10.5 -9.5q-6 -12 2 -23q0 15 24 38.5t22 38.5q7 3 6 8q6 -2 8 -9q3 11 -2 21t-12 13q3 -9 -4.5 -14t-17.5 -3q0 -1 1 -2.5t2 -4.5t1 -4q-5 -3 -16.5 -2t-21.5 4q12 0 16 1q-8 10 -3 16q3 3 7 -3q-3 11 0 14l6 1q-2 7 -10 11t-16 4
q3 -1 6.5 -5t3.5 -6q-4 3 -10 1q14 -7 5 -21q-11 -16 -29 -5q5 -14 20 -20q-1 0 -14 -3q13 -11 26 -9q-8 -2 -20.5 1t-19.5 11q4 0 14 3q-10 2 -20.5 8.5t-15.5 11.5q3 -15 2 -18q-5 -9 -26 -5q5 -5 18.5 -12.5t15.5 -10.5zM1046 826q-3 -9 -12 -13q0 1 1 3q4 10 11 10z
M1170 839l4 -3l3.5 -1.5t4.5 -2.5v59q-6 -4 -18 -4l-16 2q-9 -9 -16 -11q11 12 3 23q-6 7 -13 1v-50q2 -1 4 -4t4 -5q7 -11 22 -11q12 0 16 5zM256 1183q13 4 23 9t16.5 10t11 12t7 11.5t4 12t1.5 10t-0.5 9.5l-0.5 7q0 37 -32 56q-7 4 -13 7t-15.5 5t-16.5 3.5t-21.5 2
t-25.5 1t-33.5 0.5h-39.5h-51h-60l26 -27v-103l-36 -47h36v-95l-26 -27h180q18 0 36.5 3.5t38 11.5t31.5 25t12 40q0 49 -52 63zM124 1096v67q5 0 22.5 1t26.5 0t21.5 -3t18 -9t5.5 -18v-9q0 -20 -16 -24.5t-62 -4.5h-16zM124 1285h21h19h16.5t14.5 -0.5t12 -2t10 -3.5
t6.5 -5.5t5 -8t1.5 -10.5h-2v-14q0 -7 -3 -12.5t-10.5 -8.5t-14.5 -5t-18.5 -2.5t-19.5 -0.5t-20 0.5t-18 0.5v72zM448 1223v50l192 -1l-46 67h-260l26 -26v-247l-26 -26h236l46 68h-168v48h120l-46 67v1zM1134.5 1031q38.5 0 70.5 11t53 29.5t36.5 42t19 50t0.5 53
t-17.5 50t-35.5 42t-54 29.5t-73 11t-73 -11t-54 -29.5t-35.5 -42t-17 -50t1 -53t19 -50t36.5 -42t53 -29.5t70.5 -11zM1134 1279q35 0 59 -18t29 -44t-1 -52t-29.5 -44.5t-57.5 -18.5q-33 0 -56.5 18.5t-29 44.5t-0.5 52t28 44t58 18zM842 1252v61l24 26h-136l24 -26
l-2 -62l-140 -211h144l-20 24l66 119l66 -119l-18 -24h132zM750 768q-30 -23 -30 -47q16 10 32.5 11.5t95.5 1.5q64 0 93 50q6 10 9 22l-7 4.5t-15 11t-10 10.5q7 -3 14 -4t10 0h4q-30 19 -30 66q1 -3 3 -6t3.5 -4l1.5 -1q-5 18 -2 38q-35 28 -84 28h-112l26 -15q8 -4 8 -21
v-124q0 -13 -10 -21zM820 786v111l8 0.5t13 0t14 -1.5t14.5 -5t11.5 -10t9.5 -16t3.5 -23.5t-3.5 -24t-9.5 -16.5t-12 -9.5t-14.5 -4.5t-13.5 -1.5t-13 0zM1552 1040h124l-22 27v273h-70q-6 -22 -77.5 -92t-76.5 -86h-2v151l24 27h-124l24 -27v-246l-24 -27h100
q5 12 37 43.5t66 65.5t41 54h2v-136zM1210 733q29 1 51 12t32.5 24t16.5 30t7 25.5t1 15.5q0 9 -1.5 20t-8.5 27.5t-19 29.5t-34.5 22.5t-52.5 9.5h-2q9 -10 7 -26t-15 -26q1 0 3 0.5t5 0.5t7.5 -0.5t8.5 -1t9 -2t9 -4.5t8 -7t7 -9.5t5 -13.5t2 -18q0 -13 -3.5 -23.5
t-9 -16.5t-11.5 -9.5t-14.5 -4.5t-13.5 -1.5t-13 0t-9 0.5v13q-8 -1 -13.5 -1t-8.5 1l-2 1q7 -6 20 -9q-15 -3 -29 2t-19 9q4 -6 12 -15q-3 2 -10 6t-10 5q0 -1 1 -4q0 -22 -9 -28q-32 -22 -32 -47q17 10 32 11.5t96 1.5z" />
</svg>