<svg xmlns="http://www.w3.org/2000/svg" xmlns:xlink="http://www.w3.org/1999/xlink" version="1.1" viewBox="-10 0 2058 2048">
   <path fill="currentColor"
d="M1516 862q56 14 96.5 41.5t64 61t37 80.5t18 91t4.5 101q0 136 -34 259.5t-100 223.5t-157.5 173.5t-212.5 114t-260 40.5q-112 0 -216 -34t-183 -92.5t-138.5 -134t-91 -162t-31.5 -172.5q0 -114 49 -185.5t157 -100.5q-1 -2 -10 -26t-12 -34t-7.5 -28t-4.5 -31
q0 -46 29 -95.5t75 -82t90 -32.5q33 0 80 17q-2 -6 -25 -70.5t-34 -97t-34 -100t-36 -112.5t-28.5 -100.5t-22 -97t-6.5 -70.5q0 -91 46.5 -149t135.5 -58q149 0 370 661q8 22 10 30q8 -18 28 -75t40.5 -110.5t49.5 -124t59.5 -127.5t65 -108.5t72.5 -80t75 -28.5
q80 0 127 56.5t47 139.5q0 128 -182 629zM1376 432l-134 375l136 24q188 -514 188 -592q0 -64 -42 -64q-65 0 -148 257zM698 193q0 110 174 575q5 14 8 20q6 -4 13 -6t17 -3t17.5 -1.5t21 0t21 1t25.5 2t25 2.5l-138 -401q-87 -257 -147 -253q-26 2 -35 46q-2 10 -2 18z
M688 977q-22 0 -51 30t-29 53q0 41 58.5 136t133.5 175t114 80q17 0 30.5 -14.5t13.5 -30.5q0 -21 -26.5 -89t-64 -144.5t-88 -136t-91.5 -59.5zM1424 1721q63 -70 105 -160.5t56.5 -174t14.5 -161t-14 -130.5t-36 -73q-45 -39 -158 -67t-216 -38.5t-180 -10.5q-24 0 -39 4
t-21.5 12.5t-8 15.5t-1.5 20q0 30 14.5 54t39 40t57.5 28.5t70 19t75.5 11.5t75.5 5.5t70 1.5t57 0h23q31 0 48 24t20 60q-32 33 -108 62q-78 29 -110 52q-72 53 -123 130.5t-51 156.5q0 35 21 100.5t21 99.5l-4 14.5t-4 16.5q-46 -3 -79.5 -26.5t-51 -61t-26 -76
t-9.5 -83.5q-10 2 -46 2q10 36 -7 75t-57 66t-90 27q-36 0 -77.5 -17.5t-77 -46t-63 -66t-41.5 -75.5t-8 -76t35 -67q26 33 58 75.5t46 60.5t33 37.5t34 26t33 6.5q15 0 30.5 -9.5t15.5 -23.5q0 -25 -44.5 -96.5t-97.5 -133.5t-74 -62q-37 0 -67 32.5t-40 93t23 147.5
q68 167 203.5 260t312.5 93q262 0 438 -195zM1030 1217q35 90 38 101q44 -48 82 -77q-14 -3 -38.5 -7t-44 -8t-37.5 -9z" />
</svg>