<svg xmlns="http://www.w3.org/2000/svg" xmlns:xlink="http://www.w3.org/1999/xlink" version="1.1" viewBox="-10 0 2066 2048">
   <path fill="currentColor"
d="M1632 1846q-129 96 -284 148.5t-322 52.5l-1 0.5l-1 0.5q-140 0 -272.5 -37t-244.5 -102.5t-206.5 -160t-160 -207t-102 -245.5t-36.5 -272q0 -140 36.5 -272.5t102.5 -245t160 -207t206 -160.5t244.5 -102.5t272.5 -36.5q194 0 369.5 68.5t314.5 193.5q4 3 4 10
q0 6 -4.5 11t-9.5 5q-1 0 -2 -0.5t-2 -0.5q-112 -15 -230 -15h-2q-161 0 -301 26t-253 79t-194 129t-125.5 179.5t-44.5 227.5q0 73 14.5 139.5t36.5 119t61.5 102.5t76 87t94 75t101.5 63t113.5 56.5t114 49.5t118.5 46q91 35 139 55t113 53t106 64q6 3 6 12q0 8 -6 11z
M2042 929q4 41 4 95q0 194 -70 373q-2 9 -12 9q-4 0 -8 -2q-124 -69 -382 -165q-1 -1 -5 -2q-70 -26 -104.5 -39.5t-93 -38.5t-88 -42.5t-68.5 -44.5t-58 -52.5t-33 -58.5t-14 -70v-1q0 -8 0.5 -17t6.5 -33t17 -44t35.5 -44.5t58 -41.5t89 -29t125.5 -12q157 0 296.5 58.5
t299.5 191.5q4 3 4 10z" />
</svg>