<svg xmlns="http://www.w3.org/2000/svg" xmlns:xlink="http://www.w3.org/1999/xlink" version="1.1" viewBox="-10 0 2068 2048">
   <path fill="currentColor"
d="M1024 192q-113 0 -220.5 30t-199 83.5t-168 130.5t-130.5 168t-84 199t-30 221t30 221t84 199t130.5 168t168 131t199.5 84t220.5 30t220.5 -30t199 -84t168 -131t130.5 -168t83.5 -199t30 -221t-30 -221t-83.5 -199t-130.5 -168t-168 -130.5t-199 -83.5t-221 -30z
M1024.5 2048q-139.5 0 -272 -37t-245 -102.5t-207 -160t-160.5 -207t-103 -245.5t-37 -272t37 -272t103 -245.5t160.5 -207t207 -160t245 -102.5t272 -37t272 37t244.5 102.5t206.5 160t160.5 207t103 245.5t37 272t-37 272t-103 245.5t-160.5 207t-206.5 160t-244.5 102.5
t-272 37zM540 869l428 -399q24 -22 56 -22t56 22l428 399q28 26 28 66q0 37 -26 63t-62 26h-232v384q0 52 -38 90t-90 38h-128q-52 0 -90 -38t-38 -90v-384h-230q-37 0 -63.5 -26t-26.5 -63q0 -40 28 -66z" />
</svg>