<svg xmlns="http://www.w3.org/2000/svg" xmlns:xlink="http://www.w3.org/1999/xlink" version="1.1" viewBox="-10 0 2058 2048">
   <path fill="currentColor"
d="M1206 2048q89 -12 114 -131q26 -113 -17 -275q-12 -87 17 -220q59 -321 12 -652q-9 -73 -29 -125q-22 -60 -57 -121q-36 -63 -40 -71q-26 -52 -41 -119q-14 -63 -14 -106l-5 -42h30v-55l-8 -9v-114l-144 -8l-144 8v114l-9 9v55h30q0 147 -59 267q-4 8 -40 71
q-35 61 -57 121q-21 57 -30 125q-46 327 13 652q30 132 17 215q-38 171 -17 280q11 47 40 84q26 33 53 38l21 9h364z" />
</svg>