<svg xmlns="http://www.w3.org/2000/svg" xmlns:xlink="http://www.w3.org/1999/xlink" version="1.1" viewBox="-10 0 2058 2048">
   <path fill="currentColor"
d="M512 0h640v512q0 52 38 90t90 38h512v1153q0 106 -75 180.5t-181 74.5h-1024q-106 0 -181 -74.5t-75 -180.5v-1537q0 -106 75 -181t181 -75zM1280 0l512 512h-512v-512zM1120 928h-1q0 -40 -27.5 -67.5t-67.5 -27.5t-68 27.5t-28 67.5v408l-125 -123q-28 -28 -67 -28
t-68 28q-28 28 -28 67.5t28 67.5l288 289q28 29 67 29t68 -29l288 -289q28 -28 28 -67t-28 -68t-67.5 -29t-67.5 29l-124 123v-408z" />
</svg>