<svg xmlns="http://www.w3.org/2000/svg" xmlns:xlink="http://www.w3.org/1999/xlink" version="1.1" viewBox="-10 0 2068 2048">
   <path fill="currentColor"
d="M174 854q-31 29 -73 28.5t-71 -31.5q-30 -31 -29.5 -73.5t31.5 -71.5q196 -189 452.5 -294t539.5 -105q284 0 540 105.5t452 294.5q31 29 31.5 71t-29.5 73q-29 31 -71 31.5t-73 -28.5q-169 -162 -388 -252t-461.5 -90t-462 90t-388.5 252zM1024.5 1024q-134.5 0 -256 47
t-218.5 132q-31 28 -74 25t-70.5 -34t-25 -74t33.5 -71q124 -109 281 -169.5t329 -60.5q173 0 329 60t281 170q31 28 33.5 71t-25 74t-70 34t-74.5 -25q-96 -85 -217.5 -132t-256 -47zM1228 1536q0 85 -59.5 145t-144 60t-144.5 -60t-60 -145t60 -145t144.5 -60t144 60
t59.5 145z" />
</svg>