<svg xmlns="http://www.w3.org/2000/svg" xmlns:xlink="http://www.w3.org/1999/xlink" version="1.1" viewBox="-10 0 2058 2048">
   <path fill="currentColor"
d="M1215 128v832q0 26 19 45t45.5 19t45.5 -19t19 -45v-704q0 -52 38 -90t90.5 -38t90 38t37.5 90v704q0 26 19 45t45.5 19t45 -19t18.5 -45v-448q0 -53 37.5 -90.5t90 -37.5t90 38t37.5 90v832q0 143 -55.5 273.5t-149.5 225t-224.5 150t-274.5 55.5h-76q-179 0 -345 -66
t-295 -189l-449 -428q-48 -46 -49.5 -112.5t44 -114.5t112.5 -49.5t114 44.5l241 229v-18v-1088q0 -52 38 -90t90.5 -38t90 38t37.5 90v704q0 26 19 45t45.5 19t45 -19t18.5 -45v-832q0 -52 38 -90t90.5 -38t89.5 37.5t37 90.5zM1024 1344q0 27 18.5 45.5t45.5 18.5
t45 -18.5t18 -45.5t-18 -45.5t-45 -18.5t-45.5 18.5t-18.5 45.5zM1344 1408q-27 0 -46 18.5t-19 45.5t19 45.5t46 18.5t45.5 -18.5t18.5 -45.5t-18.5 -45.5t-45.5 -18.5zM1536 1344q0 27 18.5 45.5t45.5 18.5t45.5 -18.5t18.5 -45.5t-18.5 -45.5t-45.5 -18.5t-45.5 18.5
t-18.5 45.5zM1472 1665q-27 0 -45.5 18.5t-18.5 45.5t18.5 45.5t45.5 18.5t45.5 -18.5t18.5 -45.5t-18.5 -45.5t-45.5 -18.5zM1024 1729q0 27 18.5 45.5t45.5 18.5t45 -18.5t18 -45.5t-18 -45.5t-45 -18.5t-45.5 18.5t-18.5 45.5zM832.5 1536q-26.5 0 -45.5 19t-19 46
t18.5 45.5t45.5 18.5t45.5 -18.5t18.5 -45.5t-18.5 -46t-45 -19z" />
</svg>