<svg xmlns="http://www.w3.org/2000/svg" xmlns:xlink="http://www.w3.org/1999/xlink" version="1.1" viewBox="-10 0 2058 2048">
   <path fill="currentColor"
d="M656 821h439l-74 242h-362v748q0 9 -1 19t-1.5 13.5t1.5 7t7 5t16 2.5l283 27v163h-850v-167l139 -13q26 -3 34.5 -13.5t8.5 -37.5v-738q0 -16 -38 -16h-144v-242h182v-138q0 -237 124.5 -345.5t377.5 -108.5q73 0 130 7.5t113.5 29.5t94 59t60.5 99.5t23 146.5l-330 40
q1 -89 -22 -119t-84 -30q-35 0 -58.5 8.5t-36.5 20.5t-19.5 37.5t-8 48t-1.5 63.5v152q0 4 -2 8.5t-4.5 8t-4 6.5t0.5 4.5t7 1.5zM1934 2048h-668v-163l133 -17q28 -3 39 -12t11 -35v-703q0 -36 -44 -51l-158 -41l44 -191h521v986q0 10 -1.5 19.5t-2.5 13t0.5 7t6.5 4.5
t16 3l103 17v163zM1791 402l59 216l-47 47l-203 -108l-203 108l-47 -47l59 -216l-143 -172l24 -48h179l100 -182h62l100 182h180l23 62z" />
</svg>