<svg xmlns="http://www.w3.org/2000/svg" xmlns:xlink="http://www.w3.org/1999/xlink" version="1.1" viewBox="-10 0 2068 2048">
   <path fill="currentColor"
d="M2004 530q19 71 30 195t12 212l2 88q-1 38 -2 98.5t-12 194t-30 204.5q-18 66 -66 114t-114 65q-71 19 -271 30t-365 12l-164 1q-72 0 -182.5 -1t-328.5 -12t-288 -30q-67 -17 -116 -65t-66 -114q-20 -71 -30.5 -195.5t-11.5 -212.5v-89q-1 -38 0 -98t11.5 -193
t30.5 -204q17 -66 66.5 -116t115.5 -67q70 -19 270 -30t364 -12l165 -1q71 0 182 1t329 12t289 30q65 17 113.5 67t66.5 116zM815 1330l535 -305l-535 -304v609z" />
</svg>