<svg xmlns="http://www.w3.org/2000/svg" xmlns:xlink="http://www.w3.org/1999/xlink" version="1.1" viewBox="-10 0 2068 2048">
   <path fill="currentColor"
d="M1780 773h-1512q-118 0 -192 73q-76 74 -76 178t76 178q74 73 192 73h1512q118 0 192 -73q76 -74 76 -178t-76 -178q-74 -73 -192 -73zM1780 1212h-1512q-92 4 -148 -52t-56 -136q0 -81 56 -134q57 -54 148 -54h1512q92 0 148 54q56 53 56 134q0 80 -56 136t-148 52z
M380 1070l-100 -167h-74v238h70v-163l104 163h72v-238h-72v167zM962 986v-25h-38v-33h-72v33h-36v25h36v155h72v-155h38zM494 986h70v155h-70v-155zM494 903h70v50h-70v-50zM1742 974q-42 0 -73 25t-31 63q0 37 31 62t73 25q48 0 76 -25q28 -26 28 -62q0 -37 -28 -63
q-28 -25 -76 -25zM1772 1095q0 38 -29 38t-29 -38v-33v-34q0 -33 29 -33t29 33v34v33zM1546 991q-40 -13 -42 -13q-37 -4 -62 23q-26 26 -26 61q0 24 12 44q10 20 20 25q10 6 14 6q47 21 84 -4v8h72v-238h-72v88zM1546 1062v29q0 29 -24 29q-30 0 -30 -29v-29v-30
q0 -29 30 -29q24 0 24 29v30zM732 978q-34 0 -54 21v-13h-72v155h72v-104q0 -26 32 -26q34 0 34 26v104h72v-84q0 -79 -84 -79zM1312 978q-30 0 -58 21v-13h-68v155h68v-104q0 -26 38 -26q28 0 28 26v104h72v-84q0 -41 -28 -60q-26 -19 -52 -19zM1162 1066q0 -38 -32 -65
q-31 -27 -72.5 -27t-73.5 27t-32 61q0 37 32 64q33 28 74 28q79 0 100 -67h-72v8q0 38 -29 38t-29 -38v-29h134zM1032 1007q12 -12 26 -12q16 0 24 12q4 8 4 34h-58q0 -26 4 -34z" />
</svg>