<svg xmlns="http://www.w3.org/2000/svg" xmlns:xlink="http://www.w3.org/1999/xlink" version="1.1" viewBox="-10 0 2068 2048">
   <path fill="currentColor"
d="M614 410h820q124 0 238 48.5t196 131t131 196.5t49 238.5t-49 238.5t-131 196t-196 130.5t-238 48.5h-820q-124 0 -238 -48.5t-196 -130.5t-131 -196t-49 -238.5t49 -238.5t131 -196.5t196 -131t238 -48.5zM1586.5 742q-53.5 0 -90 38t-36.5 91.5t36.5 90t90 36.5
t90.5 -36.5t37 -90t-37 -91.5t-90.5 -38zM1254 1177.5q0 53.5 37.5 91t91 37.5t90.5 -37.5t37 -91t-37 -90.5t-90.5 -37t-91 37t-37.5 90.5zM538 846v102h-102q-32 0 -54 22.5t-22 54t22 53.5t54 22h102v104q0 31 22.5 53.5t54 22.5t54.5 -22.5t23 -53.5v-104h102
q32 0 54 -22t22 -53.5t-22 -54t-54 -22.5h-102v-102q0 -32 -23 -55t-54.5 -23t-54 23t-22.5 55z" />
</svg>