<svg xmlns="http://www.w3.org/2000/svg" xmlns:xlink="http://www.w3.org/1999/xlink" version="1.1" viewBox="-10 0 2058 2048">
   <path fill="currentColor"
d="M1082 863q11 -18 9.5 -40.5t-17.5 -38.5q-19 -19 -45.5 -19t-45.5 19l-758 757v-221q0 -204 78 -392t222 -332l414 -415q87 -87 201 -134t237 -47t236.5 47t200.5 134l21 22q87 87 134 200.5t47 236.5q0 146 -65 275q-13 24 -37 30l-448 135q-11 3 -18.5 13t-7.5 22
q0 16 10.5 26.5t26.5 10.5h129q27 0 45.5 19.5t18 43.5t-18.5 46l-90 89q-13 13 -27 17l-324 97q-11 3 -18.5 13t-7.5 22q0 16 10.5 26.5t26.5 10.5q25 0 41 17t14 39t-23 36q-256 164 -556 164h-272l-229 228q-28 28 -67.5 28t-68 -28t-28.5 -67.5t29 -67.5z" />
</svg>