<svg xmlns="http://www.w3.org/2000/svg" xmlns:xlink="http://www.w3.org/1999/xlink" version="1.1" viewBox="-10 0 2068 2048">
   <path fill="currentColor"
d="M1118 916q0 36 -22.5 64.5t-75.5 28.5h-88v-189h88q53 0 75.5 29t22.5 67zM2048 0v2048h-2048v-2048h2048zM692 1169q0 -74 -48.5 -122t-165.5 -83q-71 -25 -94.5 -41.5t-23.5 -43.5q0 -29 24.5 -48t69.5 -19t69.5 23.5t24.5 60.5h140v-2q1 -35 -12.5 -68t-40.5 -61
t-73.5 -45t-105.5 -17q-42 0 -83 10t-77 30t-58 55t-22 80q0 47 18 79.5t69.5 63.5t144.5 60q59 21 79.5 39t20.5 50q0 14 -5.5 25.5t-12 18t-18 11.5t-18.5 7t-17.5 3t-12 1h-6.5q-65 0 -91.5 -26.5t-26.5 -74.5h-140v3q-2 52 20 93t59.5 65t83 36.5t95.5 12.5
q106 0 170 -46.5t64 -129.5zM1266 915q0 -90 -65 -149t-181 -59h-236v631h148v-216h88q109 0 177.5 -54.5t68.5 -152.5zM1362 1340l224 -633h-142l-218 633h136zM1848 707h-140l-220 633h136z" />
</svg>