<svg xmlns="http://www.w3.org/2000/svg" xmlns:xlink="http://www.w3.org/1999/xlink" version="1.1" viewBox="-10 0 2058 2048">
   <path fill="currentColor"
d="M1010 493q-1 0 -4.5 -1t-5.5 -2.5t-3 -3.5l3 -4q11 -5 21 0q14 6 13 12q0 5 -12 5zM923 499q-11 0 -11 -5q-1 -6 13 -12q11 -5 22 0q3 3 2 4q0 2 -2.5 3t-6.5 2.5t-5 1.5zM1807 1615q64 72 62 118q-2 42 -55 74q-17 10 -63 32t-81.5 45t-59.5 52q-41 50 -92.5 78.5
t-101.5 32.5q-51 4 -93 -19.5t-67 -72.5v-1q-10 -23 -11 -26q-45 2 -118 -8t-101 -8q-47 2 -108.5 14t-84.5 12q-28 62 -104 80q-99 23 -223 -41q-33 -17 -74.5 -26t-91.5 -14t-71 -10q-63 -14 -81 -49q-22 -43 9 -128q5 -17 -3 -82q-5 -37 -5 -48q0 -32 10 -49
q20 -37 75 -58q5 -2 15.5 -5.5t15.5 -5.5t13 -5.5t13.5 -7.5t10.5 -9q8 -8 30 -38t36 -43q-15 -94 25 -213q63 -186 232 -387q46 -66 65.5 -125.5t24.5 -133.5q1 -18 -1.5 -59t-5.5 -79t0 -88t11.5 -92t30.5 -84.5t56 -71.5t90.5 -47.5t130.5 -18.5q57 0 102.5 14t76.5 38
t54.5 57t36 71t21.5 80t10 83.5t3 81.5t-1 76v23q0 35 8 69t18 58.5t31.5 58t34.5 50.5t41 52q132 154 186 298q64 172 15 317q16 7 17 7l15 12q12 11 21 28t12 28t9 34q16 64 29 79zM1022 349q-18 42 -12 86q25 5 52 19q-6 -35 10 -64t38 -28q27 1 39 37t-3 72q-2 5 -15 18
q33 11 51 20q24 -29 29.5 -74.5t-13.5 -88.5q-19 -42 -53.5 -57t-69 1t-53.5 59zM860 302q-36 0 -56 40t-14 90.5t36 78.5q26 -19 26 -20l-3 -2q-15 -13 -19.5 -39.5t3.5 -48.5t24 -24q18 -1 30 24.5t9 53.5q16 -12 40 -19q4 -55 -20 -94.5t-56 -39.5zM805 546
q-25 19 -17 49q11 35 59 61q14 8 38.5 30.5t41.5 29.5q22 8 39 9q33 2 60.5 -9.5t52.5 -28.5t40 -22q34 -11 57.5 -31t32.5 -42q18 -47 -42 -72q-17 -7 -36.5 -14t-31.5 -12t-23 -12q-57 -36 -102 -36q-10 0 -20.5 2t-18.5 4.5t-17 7.5t-14.5 8.5t-13.5 10t-10.5 9l-9.5 9.5
t-8 7q-3 4 -57 42zM819 1881q3 -28 -17 -67t-47 -71.5t-58 -72.5t-43 -65l-78 -142q-42 -58 -87 -64q-39 -5 -71 28q-8 10 -26.5 35t-30.5 37q-11 10 -20.5 15.5t-13.5 7.5t-20 8t-24 8q-22 8 -36 18t-24 28q-11 19 -3 80q1 5 3 18.5t2.5 20.5t1 18t-0.5 20.5t-4 17.5v1
q-26 77 -11 105q11 21 45.5 31.5t74.5 12.5t94 13t93 31q48 26 99 36.5t95 5.5t73.5 -34t33.5 -80zM812 1777q72 50 156.5 59t159.5 -15t142 -72q25 -84 27 -116q6 -109 18 -160q21 -86 85 -109q4 -40 26.5 -57.5t54 -14t72.5 21.5q58 26 79.5 50.5t11.5 54.5h17
q25 -80 -122 -140q16 -65 -2 -143q-17 -70 -57.5 -134.5t-83.5 -101.5q-15 0 11 26q16 14 33.5 38t35.5 59.5t29 73.5t11 83.5t-16 85.5q-19 -5 -43 -5q-25 -131 -96 -259q-37 -71 -82 -184.5t-66 -198.5q-29 42 -89 60q-10 4 -33.5 19t-30.5 18q-40 25 -86.5 24t-83.5 -30
q-6 -4 -22.5 -19t-27.5 -22q-8 -4 -24 -16q-2 43 -13.5 92.5t-32 103t-36.5 91.5t-41.5 92.5t-33.5 71.5q-53 123 -56 246q-30 -40 -39.5 -89.5t0 -96.5t22 -80t28.5 -64q51 -93 35 -83q-88 141 -110 237q-18 79 2 141q23 72 98 119q11 7 29.5 18.5t59.5 45.5t65 66
q44 60 29 100q-13 36 -67 36q43 55 57 77zM1842 1732q2 -35 -55 -99q-16 -18 -25 -53t-17.5 -67t-25.5 -46q-13 -11 -27.5 -16t-29 -5h-33.5q-25 30 -71.5 52.5t-82.5 13.5q-32 -8 -52 -42t-23 -76q0 1 -1.5 1.5t-2.5 0.5q-37 20 -55 85q-12 49 -17 154q-1 22 -7 47.5
t-17.5 62.5t-15.5 52q-25 94 -4 145q42 85 135 78q43 -3 89.5 -30t85.5 -73q29 -35 75.5 -63.5t83 -43.5t64.5 -35t29 -43zM821 595q-6 -5 -8.5 -11.5t-2 -10.5t3.5 -4q6 1 11 9.5t6 9.5q7 7 31 27q51 39 100 39t119 -41q22 -13 56 -39q6 -4 12 -12.5t12 -8.5q15 2 -13 27
q-22 21 -59 42q-2 2 -7 4q-76 39 -120 39q-58 0 -110 -42q-19 -16 -31 -28z" />
</svg>