<svg xmlns="http://www.w3.org/2000/svg" xmlns:xlink="http://www.w3.org/1999/xlink" version="1.1" viewBox="-10 0 2068 2048">
   <path fill="currentColor"
d="M1742 1446q93 -157 110 -341l-304 -191q-28 -18 -36 -48q-11 -33 0 -61l134 -333q-119 -137 -290 -211l-276 230q-24 21 -56 21q-31 0 -56 -21l-276 -230q-169 74 -290 211l134 333q11 29 2 61q-9 30 -38 48l-304 191q18 182 112 341l358 -25q33 -2 58 17q26 20 34 50
l88 349q96 20 178 20q92 0 180 -20l88 -349q5 -30 34 -50q26 -18 56 -17zM1024 192h4h-8h4zM226 785l12 -37q-10 33 -12 37zM528 1692q2 1 7.5 5.5t8.5 5.5zM1520 1692l-16 12q5 -2 16 -12zM1822 785q-2 -4 -12 -37zM1024.5 2048q-139.5 0 -272 -37t-245 -102.5t-207 -160
t-160.5 -207t-103 -245.5t-37 -272t37 -272t103 -245.5t160.5 -207t207 -160t245 -102.5t272 -37t272 37t244.5 102.5t206.5 160t160.5 207t103 245.5t37 272t-37 272t-103 245.5t-160.5 207t-206.5 160t-244.5 102.5t-272 37zM1080 745l192 140q26 19 35 48t-1 59l-72 224
q-9 30 -34.5 48.5t-55.5 18.5h-238q-31 0 -56.5 -18.5t-35.5 -48.5l-72 -224q-10 -30 -1 -59t35 -48l192 -140q25 -19 56 -19t56 19z" />
</svg>