<svg xmlns="http://www.w3.org/2000/svg" xmlns:xlink="http://www.w3.org/1999/xlink" version="1.1" viewBox="-10 0 2068 2048">
   <path fill="currentColor"
d="M1026 551q3 -24 4.5 -39t8 -43t16 -46.5t26.5 -41.5t39.5 -37t57 -23.5t76.5 -9.5h450q71 0 108.5 -26t37.5 -73v-57q0 -42 29 -71t70.5 -29t70 29t28.5 71v167q0 147 -74.5 215.5t-229.5 68.5h-462q-39 0 -67.5 8t-44 19t-24.5 29t-11.5 33t-2.5 35v9v8q-4 42 -34.5 72
t-73 30t-73 -29.5t-33.5 -72.5q0 -2 -1 -8t-1 -9q0 -25 -4.5 -43.5t-18.5 -38.5t-46.5 -31t-80.5 -11h-460q-156 0 -231 -69t-75 -215v-167q0 -42 29 -71t70.5 -29t70 29t28.5 71v57q0 47 38 73t108 26h452q42 0 76 9.5t56.5 23.5t39.5 37t26.5 41.5t16 46.5t8 43t3.5 39h4z
M1024.5 1993q-37.5 0 -70 -21.5t-48.5 -53.5q-2 -4 -223.5 -391.5t-224.5 -391.5q-21 -34 -18.5 -69.5t19.5 -65t50 -48.5t73 -19q92 0 136 93l306 537l306 -537q44 -93 136 -93q40 0 73.5 19t50 48.5t19.5 65.5t-19 69q-2 4 -224 391t-224 392q-16 33 -48 54t-69.5 21z" />
</svg>