<svg xmlns="http://www.w3.org/2000/svg" xmlns:xlink="http://www.w3.org/1999/xlink" version="1.1" viewBox="-10 0 2067 2048">
   <path fill="currentColor"
d="M1897 818q10 -6 19 -6q14 0 23.5 10t9.5 24q0 18 -15 28q-8 5 -18 5q-13 0 -23 -10t-10 -23q0 -19 14 -28zM1747 857q10 41 43 68t76 27q51 0 87.5 -36.5t36.5 -87.5q0 -14 -3 -27q-10 -42 -44 -69t-77 -27q-51 0 -87 36t-36 87q0 11 4 29zM1387 1279q-39 -55 -80 -69
q-39 -15 -71 -17.5t-84 0.5h-111q-10 0 -13 22t10 48t43 34q4 1 17.5 4.5t18.5 5t15.5 5.5t17.5 9t13 11q9 7 8.5 16t-15.5 9h-163q-19 0 -29 -0.5t-23.5 -5t-24.5 -12.5q-15 -13 -28 -33t-18.5 -32t-17.5 -39q-26 -61 -58 -115q-73 -126 -175 -181q-51 -28 -112.5 -40
t-137 1.5t-135.5 59.5q-64 50 -82 125.5t8.5 147.5t85.5 120q69 54 167 49q89 -5 143 -62.5t38 -135.5q-11 -60 -59 -87q-30 -18 -74 -18q-49 0 -76 25q-17 17 -19.5 43t10.5 46q3 3 11 13t11.5 17t1.5 16q-3 21 -25 26q-30 7 -57 -22q-28 -29 -36 -72t7 -80
q21 -48 70.5 -75t104.5 -25q69 2 127.5 43t87.5 105q28 63 21 134t-46 128q-41 61 -112.5 91.5t-147 28.5t-149.5 -32t-123 -82q-66 -72 -95.5 -146.5t-25.5 -189.5q3 -82 45 -162t108 -143q101 -94 230 -159.5t268 -95.5q164 -34 338 -17q161 16 294 57q71 22 139 54
q6 2 24.5 10.5t28 13t24.5 12t26 16t20 17.5q0 -30 -1 -86.5t-1 -76.5q0 -12 10.5 -19t21.5 -2q26 12 145 67.5t175 81.5q29 13 51.5 32t37.5 39t26.5 48.5t17.5 51.5t10 56.5t5.5 56t2.5 57.5q0 6 -1 9q-3 7 -36 7q-41 0 -57 1q-53 1 -97 -1q-43 -2 -85 -19.5t-73 -43.5
q-3 -3 -10 -4t-12 3q-4 5 -3.5 11t2.5 9q26 25 75 52q41 20 115 26q55 4 128 -3q19 -2 26.5 -2t4 4.5t-21.5 17.5q-38 29 -103 51q-76 25 -161 28q-46 1 -99 -5q-17 -3 -51 -7q-34 -3 -41 -1q-21 5 -33 20q-8 10 -10.5 33.5t2.5 35.5q14 37 67 68q8 4 30 14t33.5 19.5
t14.5 25.5q1 2 -8 3.5t-24.5 2.5t-23.5 1h-15h-85q-47 2 -65 -5v-0.5t-1 -0.5q-11 -6 -18 -28q-5 -15 -24 -43z" />
</svg>