<svg xmlns="http://www.w3.org/2000/svg" xmlns:xlink="http://www.w3.org/1999/xlink" version="1.1" viewBox="-10 0 2058 2048">
   <path fill="currentColor"
d="M1024.5 0q52.5 0 90 38t37.5 90v77q145 30 261.5 119.5t183.5 223t67 285.5v74q0 142 50 273.5t144 237.5l29 33q26 29 32 66t-10 72t-47.5 55.5t-69.5 20.5h-1536q-38 0 -69.5 -20.5t-47.5 -55.5q-16 -34 -10 -72t31 -66l30 -33q94 -106 144 -237.5t50 -273.5v-74
q0 -152 67 -285.5t183.5 -223t261.5 -119.5v-77q0 -52 38 -90t90.5 -38zM1205 1974q-74 74 -181 74t-181 -74q-75 -75 -75 -181h256h255q0 107 -74 181z" />
</svg>