<svg xmlns="http://www.w3.org/2000/svg" xmlns:xlink="http://www.w3.org/1999/xlink" version="1.1" viewBox="-10 0 2064 2048">
   <path fill="currentColor"
d="M1250 1028q-76 68 -134 180q-59 -209 -150 -347q50 -178 24 -309q-25 -135 -108 -226q-87 -95 -192 -153q-108 -60 -230 -96q-119 -35 -222 -52q-101 -17 -166 -21l-68 -4q0 42 6 111q6 62 46 246q38 172 106 314q63 135 197.5 242t308.5 98q0 -105 -24 -204
q-15 -60 -34 -122l-88 -213q44 59 126 176q163 260 222 418q146 310 146 890q0 38 27 65t65 27t65 -27t27 -65q0 -234 -18 -389q42 -196 118 -313q46 -99 158 -255q122 -160 242 -247q-188 214 -200 418q146 9 258 -71q110 -79 160 -198q50 -122 82 -239q30 -114 34 -206
l10 -84q-39 0 -104 6q-58 5 -220 46q-153 38 -268 103q-111 63 -180 194q-69 132 -22 307z" />
</svg>