<svg xmlns="http://www.w3.org/2000/svg" xmlns:xlink="http://www.w3.org/1999/xlink" version="1.1" viewBox="-10 0 2068 2048">
   <path fill="currentColor"
d="M178 228h322l-92 454h-334q-30 0 -52 -22t-22 -52q0 -11 4 -22l92 -298q8 -27 30.5 -43.5t51.5 -16.5zM966 682h-440l90 -454h350v454zM1080 682v-454h352l90 454h-442zM1640 682l-92 -454h322q29 0 51.5 16.5t30.5 43.5l92 298q4 14 4 22q0 30 -22 52t-52 22h-334z
M114 796h1820l-14 114h14q47 0 80.5 33t33.5 80.5t-33.5 81t-80.5 33.5h-44l-70 568q0 48 -33.5 81t-81 33t-80.5 -33t-33 -81h-1136q0 48 -33.5 81t-81 33t-80.5 -33t-33 -81l-72 -568h-42q-47 0 -80.5 -33.5t-33.5 -81t33.5 -80.5t80.5 -33h14z" />
</svg>