<svg xmlns="http://www.w3.org/2000/svg" xmlns:xlink="http://www.w3.org/1999/xlink" version="1.1" viewBox="-10 0 2068 2048">
   <path fill="currentColor"
d="M232 419q-3 -117 50 -186q1 48 16 83q34 -160 162 -252q-14 43 -12 68q3 -2 13 -10.5t14.5 -12t15.5 -12t18.5 -13t21 -11.5t25.5 -11.5t28.5 -9t35.5 -8.5q81 -14 162 4q217 51 268 279q27 112 -32 255q-32 76 -80 136q-3 -3 -11 -10.5t-11 -11.5q-31 -29 -71 -67
q-51 -49 -57 -56q-6 -9 -16 -21q-5 -5 0 -13q49 -80 38 -170q-6 -63 -44 -102q-41 -44 -102 -43t-102 46q-64 69 -44 168q2 9 0 15q-21 82 -10 161v6v4q-124 -64 -166 -201q-50 108 -24 208q-80 -77 -86 -212zM2040 893q6 5 8 6v2q-68 -16 -174 4q-57 12 -102 35
q-17 10 -30 18q-7 -2 -21 -8.5t-24.5 -11t-20.5 -6.5q-143 -32 -242 77q-99 113 -178 287l-6 10v1q-6 -4 -56.5 -44.5t-83.5 -53.5l1 -2t1 -3q128 -175 290 -271q97 -58 198 -71q17 -2 20 -4h-50q-108 10 -226 78q-85 50 -140 115q-1 1 -2.5 3t-1.5 3l-4 -3
q64 -174 222 -283l2 2q-10 17 -12 20q-19 34 -20 39q-8 18 7 19q14 2 39 -18q12 -10 37.5 -30.5t38.5 -30t33 -22.5t39 -20t40 -11q2 0 4.5 -0.5t3.5 -0.5h10q-6 5 -10 6q-7 5 -16 11t-12.5 8.5t-8.5 6t-6.5 4.5t-4.5 4t-4.5 5.5t-5.5 6.5q-7 12 -1 20.5t21 5.5q12 -2 28 -8
q63 -22 112 -25q77 -4 154 27q88 37 154 103zM1134 1569q8 8 4 16q-167 331 -448 381q-162 29 -298 -34q-116 -50 -184 -136q-8 -12 -22 -34q-3 38 6 85l-2 2q-32 -34 -36 -40q-63 -79 -94 -201q-16 -66 -19.5 -124.5t6.5 -110.5t18.5 -81t24.5 -74q-48 28 -90 62
q60 -166 216 -325q13 12 12 28q-2 7 -12.5 82.5t-9.5 89.5q107 -107 248 -169q-40 60 -44 144q43 -39 85.5 -54.5t92.5 0.5q0 1 -13.5 15.5t-19 20.5t-20 23.5t-22.5 29.5t-20.5 32.5t-21 38.5t-17 41.5t-14.5 46.5q-32 138 32 241q65 108 190 108q60 0 130 -46
q103 -68 170 -184q5 -8 8 -11q36 30 164 137zM1796 1390q123 40 168 150q27 67 8.5 137t-74.5 118q-92 77 -220 66q-2 0 -8 2q91 66 196 40q-1 2 -9 11.5t-13 13.5q-64 58 -166 76q-117 22 -208.5 -36.5t-117.5 -182.5l-4 -24q-21 16 -32.5 50t-5 76.5t35.5 75.5
q-6 -2 -14 -4q-62 -24 -97 -77.5t-33 -120.5q1 -12 2.5 -42t1.5 -42t-2 -35t-7.5 -36.5t-16.5 -30t-28 -30.5q-32 -26 -95 -78.5t-95 -79.5q-56 -47 -66 -97q-5 -24 -6 -54q-3 -34 -30 -57q-10 -7 -27 -21.5t-27 -22.5q-26 -22 -34 -51.5t6 -62.5q7 37 28.5 55.5t59.5 22.5
q5 1 23 2.5t27 2.5q46 6 56 55q1 7 4 19.5t4 19.5q5 17 13.5 24t26.5 8q8 1 26 2.5t28 1.5q40 3 78 34q33 28 70.5 59t83 69t70.5 58q39 32 76 33q48 2 78 -36.5t18 -86.5q-2 -6 -2 -11q19 14 28 23q40 41 49.5 104t-17.5 112q-4 9 -15.5 22.5t-14.5 19.5q6 2 12 2
q87 8 150 -35q45 -31 51 -82.5t-31 -93.5q-13 -15 -27.5 -24t-44.5 -22q18 -3 50 0t60 11zM298 728q-26 -43 -86 -82q87 -3 152 15q-39 -69 -18 -150q28 63 90 104q26 18 91 55.5t89 60.5q3 2 36 41q-1 -3 -3.5 -11t-4.5 -12q-24 -52 -86 -96q-10 -5 -14 -17
q-16 -61 -2 -144q2 -13 16 -64q4 -10 16 -25q1 1 1.5 10t1 14t2 16t3.5 19t6 20t9.5 23t12.5 23.5t17 25.5t23 26q21 22 130 127q4 4 20 18.5t22.5 21l19 19t21 23t17.5 21.5q9 14 14 18q-24 -62 -94 -131q-62 -60 -112 -105q-16 -13 -20 -42q-6 -67 16 -117q2 -2 8 -12
q4 37 6 45q6 31 18.5 56.5t38.5 56t47.5 51.5t68.5 65q11 10 17 15q70 67 98 122q30 56 22 113q0 7 4 9q39 17 38 54q37 -13 62 -55q13 59 -19.5 130.5t-84.5 95.5l1 -10t0.5 -16t-1 -17.5t-5 -20t-11.5 -17.5t-19.5 -15.5t-28.5 -10.5q-12 -2 -88 -8q6 -11 9.5 -18t8 -17.5
t5.5 -17.5t0.5 -14.5t-6 -12t-15.5 -6.5q-47 -9 -95.5 -5.5t-82 10.5t-44.5 13q54 2 90 12q-4 14 -12 38.5t-10 34.5q-6 21 5 36t31 1q2 -1 6 -5l6 -6q-10 63 -10 71q0 10 3 16.5t6.5 9.5t11.5 4t12 1t14 -1.5t13 -1.5q-7 35 -68 69.5t-108 29.5q45 -30 62 -68q-50 6 -74 9
v-3q26 -20 38 -51q24 -60 -5 -104t-91 -50q-55 -4 -100 21q34 -85 126 -132q-31 -9 -96 -24q79 -49 180 -57q-8 -5 -38.5 -5.5t-70.5 5.5t-85.5 27.5t-75.5 53.5q30 5 88 15q-121 36 -238 138q0 -3 5 -23.5t7 -31.5q3 -32 0 -52q-10 -57 -76 -63q-35 -3 -90 4h-10
q34 -32 108 -72.5t96 -55.5q17 -13 19.5 -25.5t-7.5 -32.5zM792 832q9 46 34 71t58 22q-27 -65 -92 -93z" />
</svg>