<svg xmlns="http://www.w3.org/2000/svg" xmlns:xlink="http://www.w3.org/1999/xlink" version="1.1" viewBox="-10 0 2067 2048">
   <path fill="currentColor"
d="M1119 961h-211v-190h211v190zM1119 307v194h-211v-194h211zM1370 770v191h-212v-191h212zM870 540v192h-212v-192h212zM1119 540v192h-211v-192h211zM2005 859l42 29q-2 4 -8 17t-11 23.5t-8 14.5q-18 35 -42 61t-52.5 41t-53.5 24.5t-55.5 13t-47.5 4t-41 0.5
q-130 316 -401.5 485t-649.5 169q-348 0 -529 -212q-88 -105 -124.5 -248.5t-15.5 -270.5h1390q90 1 155 -34q-45 -76 -40 -169t51 -163l31 -45l44 30q118 90 132 203q61 -12 130.5 -4t103.5 31zM370 770v191h-211v-191h211zM619 770v191h-211v-191h211zM870 770v191h-212
v-191h212zM619 540v192h-211v-192h211z" />
</svg>