<svg xmlns="http://www.w3.org/2000/svg" xmlns:xlink="http://www.w3.org/1999/xlink" version="1.1" viewBox="-10 0 2068 2048">
   <path fill="currentColor"
d="M1088 384h416q126 0 232 -64.5t164 -171.5q10 -20 33 -20t31 20q84 224 84 479q0 158 -34.5 309t-96 278.5t-149.5 235t-192.5 183t-228.5 117.5t-255 43h-4q-161 0 -303 -68.5t-240 -188t-137 -269.5q-101 93 -158.5 221t-57.5 272v64q0 40 -28 68t-67.5 28t-68 -28
t-28.5 -68v-64q0 -221 104.5 -410.5t281.5 -308.5q134 -88 284 -123q100 -22 194 -22h288h64q26 0 45 -18.5t19 -44.5t-19 -45t-45 -19h-352q-240 0 -446 105q44 -142 142 -253t235.5 -174t292.5 -63z" />
</svg>