<svg xmlns="http://www.w3.org/2000/svg" xmlns:xlink="http://www.w3.org/1999/xlink" version="1.1" viewBox="-11 0 2070 2048">
   <path fill="currentColor"
d="M961 18q29 -18 63 -18t64 18l686 392l17 7v3l192 110q38 21 55 61.5t5.5 82.5t-46 68.5t-77.5 26.5h-1791q-44 0 -78.5 -26.5t-46 -68.5t5.5 -82.5t56 -61.5l190 -110v-3l19 -6zM256 897h257v768h159v-768h257v768h191v-768h256v768h160v-768h255v784q1 0 4 2t4 3
l191 128q35 23 49.5 62.5t2.5 80t-46.5 66t-76.5 25.5h-1790q-43 0 -77 -25.5t-46 -65.5q-13 -41 1.5 -80.5t50.5 -62.5l192 -128q1 -1 4 -3t4 -2v-784h-2z" />
</svg>