<svg xmlns="http://www.w3.org/2000/svg" xmlns:xlink="http://www.w3.org/1999/xlink" version="1.1" viewBox="-10 0 2058 2048">
   <path fill="currentColor"
d="M512 0h1024q105 0 193 51.5t139.5 140t51.5 192.5v1024q0 143 -92.5 251t-231.5 129l184 184q21 21 9.5 48.5t-41.5 27.5h-160q-52 0 -90 -38l-218 -217h-512l-218 217q-38 38 -92 38h-158q-29 0 -40.5 -27.5t10.5 -48.5l182 -184q-138 -22 -231 -129.5t-93 -250.5v-1024
q0 -104 51.5 -192.5t139.5 -140t193 -51.5zM384 384v385q0 53 37.5 90t90.5 37h1024q53 0 90.5 -37.5t37.5 -89.5v-385q0 -52 -37.5 -90t-90.5 -38h-1024q-53 0 -90.5 37.5t-37.5 90.5zM1024.5 1152q-79.5 0 -136 56t-56.5 136t56.5 136t136 56t135.5 -56t56 -136t-56 -136
t-135.5 -56z" />
</svg>