<svg xmlns="http://www.w3.org/2000/svg" xmlns:xlink="http://www.w3.org/1999/xlink" version="1.1" viewBox="-10 0 2058 2048">
   <path fill="currentColor"
d="M1338 1498q-40 31 -52 40l-25 17.5t-19 13.5q-37 25 -101 51q-62 25 -117 25q-56 0 -118 -25t-100 -51q-4 -3 -19 -13.5l-25 -17.5q-23 -16 -53 -40q-103 -77 -524 -365q-69 -47 -105 -88v835q0 71 50 121q55 47 118 47h1552q62 0 117 -47q51 -51 51 -121v-835
q-48 56 -105 88q-284 197 -525 365zM1968 755q0 -41 -17 -75q-10 -24 -34 -63q-52 -81 -130 -131q-476 -333 -491 -344q-17 -6 -46 -33q-3 -2 -31 -21q-5 -3 -11 -7t-9.5 -6.5t-6.5 -3.5q0 -3 -55 -34q-39 -23 -59 -29q-19 -8 -54 -8q-36 0 -55 8q-19 5 -58 29
q-55 31 -55 34q-1 1 -59 38q-29 27 -46 33q-46 35 -126 91q-35 24 -83.5 58t-62.5 44q-16 11 -103 70q-71 49 -78 54q-10 8 -23 16.5t-15 10.5q-69 49 -121 122q-59 73 -59 143v12v17q0 70 59 143q60 77 121 122q2 2 15 10.5t23 16.5q7 5 78 54q87 59 103 70q14 10 63 44.5
t83 58.5q93 65 126 90q23 11 46 29q29 18 59 42q4 3 55 34l58 29q37 8 55 8q17 0 54 -8l59 -29q51 -31 55 -34q36 -27 58 -42q23 -18 46 -29q15 -11 491 -344q88 -67 130 -130q24 -39 34 -68q17 -31 17 -71v-13v-8z" />
</svg>