<svg xmlns="http://www.w3.org/2000/svg" xmlns:xlink="http://www.w3.org/1999/xlink" version="1.1" viewBox="-10 0 2068 2048">
   <path fill="currentColor"
d="M1462 1022l388 -349l-388 -349v56v117q0 24 -17 41.5t-41 17.5h-116h-60h-176q-111 0 -205.5 55t-148.5 149t-54 206q0 60 18 115q40 -128 149.5 -209.5t246.5 -81.5h170h60h116q24 0 41 17.5t17 41.5v117v56zM1228 966v-1h-116h-52q-100 0 -170 70t-70 169q0 50 16 83
q9 19 18 30q1 2 4 5.5t4 5.5l10 10q6 7 18 15q1 1 2.5 2l1.5 1q42 33 42 71q0 27 -19 46t-45 19h-10q-16 0 -26 -5q-4 -2 -13.5 -6.5t-16.5 -7.5q-21 -10 -44 -24q-11 -6 -60 -42q-44 -33 -82 -72.5t-74 -93.5t-57 -125t-21 -150q0 -119 46.5 -227.5t124.5 -187t186.5 -125
t226.5 -46.5h60h116h60v-165q0 -53 36.5 -90t89.5 -37q48 0 84 32l506 455q44 39 44 98t-44 98l-508 457q-32 30 -78 30h-14q-48 0 -82 -34.5t-34 -82.5v-175h-60zM264 205h234q36 0 62 25t26 62t-26 62.5t-62 25.5h-234q-37 0 -62.5 26t-25.5 63v1228q0 37 25.5 62.5
t62.5 25.5h1228q36 0 62 -25.5t26 -62.5v-234q0 -37 25.5 -62.5t62 -25.5t61.5 25.5t25 62.5v234q0 109 -76.5 186t-185.5 77h-1228q-110 0 -187 -77t-77 -186v-1228q0 -110 77 -187t187 -77z" />
</svg>