<svg xmlns="http://www.w3.org/2000/svg" xmlns:xlink="http://www.w3.org/1999/xlink" version="1.1" viewBox="-10 0 2058 2048">
   <path fill="currentColor"
d="M1026 2048q-141 0 -274.5 -38.5t-245 -107t-204 -166t-155.5 -213t-96 -250.5t-28 -275q8 -248 131.5 -464t348.5 -363h1q2 -1 3.5 -0.5t0.5 3.5q-10 9 -32.5 38t-59 87.5t-68 126t-51 155t-16.5 172.5t45 179.5t124 176.5q42 42 85 65t78.5 27t68.5 -1.5t57.5 -19
t43.5 -26.5t28 -24l10 -10q32 -42 49.5 -93.5t19.5 -100t-3.5 -97.5t-17.5 -89.5t-23 -72.5t-20 -49l-8 -18q-12 -29 -35.5 -56.5t-49 -46.5t-49.5 -33.5t-40 -21.5l-15 -7l120 -132q28 12 56.5 33t49.5 42.5t38 41t25 31.5l9 12q1 -34 -8.5 -73t-23 -69.5t-27 -56.5
t-23.5 -41l-9 -14l185 -209l182 207q-24 33 -42 71.5t-27 70.5t-14 59t-6 42l-1 15q25 -42 70 -82.5t77 -60.5l32 -19l117 132q-32 10 -63 31t-52 43t-38 42.5t-25 34.5l-8 13q-26 46 -43.5 110t-23.5 136.5t11 147.5t58 131q27 38 62 57.5t68.5 21t68 -5.5t63 -21.5
t51.5 -28t36 -24.5l13 -10q68 -61 109.5 -131.5t55 -138.5t11.5 -139t-20.5 -134.5t-42.5 -122.5t-52 -106.5t-51 -83t-39 -54.5l-15 -19q-19 -16 -6 -14l10 2q58 43 92 69t90.5 77t91.5 94.5t77.5 111t66.5 136.5t41.5 162t19.5 196q2 148 -31 284.5t-94.5 249.5
t-151.5 206t-200.5 157t-244 98.5t-278.5 34.5z" />
</svg>