<svg xmlns="http://www.w3.org/2000/svg" xmlns:xlink="http://www.w3.org/1999/xlink" version="1.1" viewBox="-10 0 2066 2048">
   <path fill="currentColor"
d="M1100 1101l-448 294l294 -448zM1023.5 0q139.5 0 272 37t244.5 102.5t206.5 160t160.5 207t102.5 245.5t36.5 272t-36.5 272t-102.5 245.5t-160.5 207t-206.5 160t-244.5 102.5t-272 37t-272 -37t-244.5 -102.5t-206 -160t-160 -207t-102.5 -245.5t-36.5 -272t36.5 -272
t102.5 -245.5t160 -207t206 -160t244.5 -102.5t272 -37zM1668 722q-9 3 -15.5 11.5t-6.5 18.5q0 3 3 12t12 14.5t19 5.5q5 0 12 -2l62 -24q8 -3 14 -12.5t6 -19.5q0 -3 -3 -12t-12 -14.5t-19 -5.5q-7 0 -12 2zM1264 355q-2 8 -2 13q0 10 6 18.5t15 11.5t11 3q10 0 20 -6
t12 -15l24 -61q4 -9 4 -12q0 -10 -6.5 -19t-15.5 -12q-6 -2 -12 -2q-9 0 -18 5.5t-12 14.5zM1023.5 214q-13.5 0 -22.5 10t-9 24v66q0 14 9 23t22.5 9t23 -9.5t9.5 -22.5v-66q0 -14 -9.5 -24t-23 -10zM714 276q-9 3 -14.5 12t-5.5 19q0 3 2 12l26 61q6 21 30 21
q13 0 23.5 -9.5t10.5 -22.5q0 -8 -4 -14l-24 -61q-3 -9 -12 -14.5t-18 -5.5q-8 0 -14 2zM452 451q-10 10 -10 24t10 23l46 47q10 9 24 9t24 -9q10 -10 10 -23q0 -14 -10 -24l-48 -47q-10 -10 -24 -10q-12 0 -22 10zM216 1024q0 14 9 23t23 9h66q13 0 23.5 -9.5t10.5 -23
t-10.5 -23.5t-23.5 -10h-66q-14 0 -23 10t-9 24zM380 1326q9 -3 15.5 -12t6.5 -19q0 -3 -3 -12t-12.5 -15t-18.5 -6q-4 0 -12 3l-62 25q-8 3 -14 11.5t-6 18.5q0 1 4 13q2 9 11 15t19 6q2 0 12 -3zM398 764q4 -9 4 -12q0 -10 -6.5 -18.5t-15.5 -11.5l-60 -26q-6 -2 -12 -2
q-10 0 -19 5.5t-11 14.5l-4 12q0 10 6 19.5t14 12.5l62 24q6 2 12 2q10 0 19 -5.5t11 -14.5zM782 1692q4 -6 4 -13q0 -13 -10.5 -23t-23.5 -10q-24 0 -30 21l-26 61q-2 9 -2 12q0 14 10 24t24 10q9 0 18 -5.5t12 -14.5zM1056 1800v-66q0 -14 -9.5 -24t-23 -10t-22.5 10
t-9 24v66q0 14 9 23.5t22.5 9.5t23 -9.5t9.5 -23.5zM1332 1770q9 -3 15.5 -11.5t6.5 -18.5q0 -3 -4 -12l-24 -61q-2 -9 -12 -15t-20 -6q-2 0 -12 3q-8 3 -14 12t-6 19q0 6 2 12l26 61q3 9 12 15t18 6zM1596 1596q10 -10 10 -23q0 -14 -10 -24l-48 -47q-8 -9 -22 -9t-24 9
q-10 10 -10 24q0 13 10 23l46 47q10 9 24 9t24 -9zM1148 1149l476 -727l-724 477l-478 726zM1771 1333q3 -9 3 -13q0 -10 -6 -18.5t-14 -11.5l-62 -25q-2 0 -4.5 -1t-4.5 -1.5t-3 -0.5q-10 0 -19 6t-11 15q-1 1 -2 3.5t-1.5 4.5t-0.5 4q0 10 6 19t16 12l60 25q8 3 12 3
q10 0 19 -6t12 -15zM1798 1056q14 0 24 -9.5t10 -23t-10 -23.5t-24 -10h-66q-13 0 -22.5 10t-9.5 24t9.5 23t22.5 9h66z" />
</svg>