<svg xmlns="http://www.w3.org/2000/svg" xmlns:xlink="http://www.w3.org/1999/xlink" version="1.1" viewBox="-10 0 2068 2048">
   <path fill="currentColor"
d="M256 832q0 58 68 120q139 -72 320 -112t380.5 -40t380 40t319.5 112q68 -62 68 -120q0 -43 -45 -97t-147 -105q-109 -55 -258 -86.5t-317.5 -31.5t-318 31.5t-258.5 86.5q-102 51 -147 105t-45 97zM1024 992q-275 0 -492 78q216 82 492 82t492 -82q-217 -78 -492 -78z
M0 832q0 -71 27.5 -137.5t75 -120t105.5 -96.5t126 -78q139 -69 317 -106.5t373.5 -37.5t373.5 37.5t316 106.5q69 35 126.5 78t105.5 96.5t75 120t27 137.5v384q0 71 -27 137t-75 119.5t-105.5 96.5t-126.5 77q-138 70 -316 108t-373.5 38t-373.5 -38t-317 -108
q-69 -34 -126.5 -77t-105 -96.5t-75 -119.5t-27.5 -137v-384z" />
</svg>