<svg xmlns="http://www.w3.org/2000/svg" xmlns:xlink="http://www.w3.org/1999/xlink" version="1.1" viewBox="-10 0 2058 2048">
   <path fill="currentColor"
d="M256 128q0 -52 38 -90t90 -38h1280q52 0 90 38t38 90v128q0 52 -38 90t-90 38h-1280q-52 0 -90 -38t-38 -90v-128zM384 512h1280v1281q0 106 -75.5 180.5t-181.5 74.5h-768q-106 0 -180.5 -74.5t-74.5 -180.5v-128h448q26 0 45 -19t19 -45t-19 -45.5t-45 -19.5h-448v-256
h448q26 0 45 -19t19 -45t-19 -45t-45 -19h-448v-256h448q26 0 45 -18.5t19 -44.5t-19 -45t-45 -19h-448v-257z" />
</svg>