<svg xmlns="http://www.w3.org/2000/svg" xmlns:xlink="http://www.w3.org/1999/xlink" version="1.1" viewBox="-10 0 2068 2048">
   <path fill="currentColor"
d="M102 665q0 -94 36.5 -179t98.5 -146.5t147.5 -98t179.5 -36.5q163 0 290 103q117 -103 272 -103q117 0 214 59.5t148 158.5q49 -14 98 -14q98 0 180.5 48t131 130.5t48.5 179.5t-48.5 180t-131 131t-180.5 48h-86q-55 48 -125 75.5t-147 27.5q-153 0 -270 -103h-394
q-94 0 -179.5 -36.5t-147.5 -98t-98.5 -147t-36.5 -179.5zM1970 1382q32 0 55 23t23 54t-23 54t-55 23h-1074q-31 0 -53.5 -23t-22.5 -54t22.5 -54t53.5 -23h1074zM1766 1690q31 0 54.5 22.5t23.5 53.5t-23.5 54t-54.5 23h-358q-31 0 -53.5 -22.5t-22.5 -54t22.5 -54
t53.5 -22.5h358zM1152 1690q31 0 53.5 22.5t22.5 54t-22.5 54t-53.5 22.5h-1074q-32 0 -55 -22.5t-23 -54t23 -54t55 -22.5h1074zM716 1459q0 31 -22.5 54t-53.5 23h-332q-32 0 -55 -23t-23 -54t23 -54t55 -23h332q31 0 53.5 23t22.5 54z" />
</svg>