<svg xmlns="http://www.w3.org/2000/svg" xmlns:xlink="http://www.w3.org/1999/xlink" version="1.1" viewBox="-10 0 2058 2048">
   <path fill="currentColor"
d="M512 1857h1024q26 0 45 -19t19 -45v-1153h-320q-52 0 -90 -38t-38 -90v-320h-640q-26 0 -45 19t-19 45v1537q0 26 19 45t45 19zM256 256q0 -106 75 -181t181 -75h661q107 0 182 75l362 362q75 75 75 181v1175q0 106 -75 180.5t-181 74.5h-1024q-106 0 -181 -74.5
t-75 -180.5v-1537zM1024 1088v513q0 41 -40 58q-39 16 -69 -14l-141 -141h-70q-26 0 -45.5 -19t-19.5 -45v-191q0 -26 19.5 -45t45.5 -19h70l141 -142q30 -30 69 -14q40 17 40 59zM1367 1072q73 124 73 272t-73 272q-19 34 -58 45t-73 -9t-44.5 -58t8.5 -73q48 -83 48 -177
q0 -93 -48 -176q-19 -35 -8.5 -73t44.5 -58t73 -9.5t58 44.5z" />
</svg>