<svg xmlns="http://www.w3.org/2000/svg" xmlns:xlink="http://www.w3.org/1999/xlink" version="1.1" viewBox="-10 0 2068 2048">
   <path fill="currentColor"
d="M170 114h796q71 0 121.5 50.5t50.5 120.5v795v341q-104 58 -166 161.5t-62 226.5q0 64 36 125h-776q-70 0 -120 -50t-50 -120v-285h512q24 0 41 -17t17 -40t-17 -40t-41 -17h-512v-227h512q24 0 41 -17t17 -40t-17 -40t-41 -17h-512v-739q0 -71 50 -121t120 -50zM540 342
q-23 0 -39.5 17t-16.5 40v85h-86q-23 0 -39.5 17t-16.5 40v57q0 23 16.5 40t39.5 17h86v84q0 23 16.5 40.5t39.5 17.5h58q23 0 39.5 -17.5t16.5 -40.5v-84h86q23 0 39.5 -17t16.5 -40v-57q0 -23 -16.5 -40t-39.5 -17h-86v-85q0 -23 -16.5 -40t-39.5 -17h-58zM1820 1081
q0 118 -83.5 201t-201 83t-200.5 -83t-83 -201t83 -201t200.5 -83t201 83t83.5 201zM1024 1810q0 -90 44 -166t120 -120.5t166 -44.5h362q91 0 167 44.5t120.5 120.5t44.5 166q0 51 -37 87.5t-87 36.5h-776q-52 0 -88 -36.5t-36 -87.5z" />
</svg>