<svg xmlns="http://www.w3.org/2000/svg" xmlns:xlink="http://www.w3.org/1999/xlink" version="1.1" viewBox="-10 0 2068 2048">
   <path fill="currentColor"
d="M512 409q0 -85 60 -144.5t144 -59.5h1128q84 0 144 59.5t60 144.5v922q0 85 -60 145t-144 60h-766q-58 -124 -168 -205h318v-102q0 -42 31 -72.5t73 -30.5h204q41 0 71.5 30.5t30.5 72.5v102h206v-922h-1128v157q-92 -54 -204 -54v-103zM512.5 614q127.5 0 217.5 90
t90 218t-90 217.5t-217.5 89.5t-218 -90t-90.5 -217.5t90.5 -217.5t218 -90zM426 1331h172q116 0 214 57t155 155t57 214q0 35 -25 60.5t-61 25.5h-852q-36 0 -61 -25t-25 -61q0 -116 57 -214t155 -155t214 -57z" />
</svg>