<svg xmlns="http://www.w3.org/2000/svg" xmlns:xlink="http://www.w3.org/1999/xlink" version="1.1" viewBox="-10 0 2068 2048">
   <path fill="currentColor"
d="M1408 384q-52 0 -90 -38t-38 -90t38 -90t90 -38h256q105 0 193 51.5t139.5 140t51.5 192.5v1024q0 104 -51.5 192.5t-139.5 140t-193 51.5h-256q-52 0 -90 -37.5t-38 -90t38 -90t90 -37.5h256q53 0 90.5 -38t37.5 -91v-1024q0 -53 -37.5 -90.5t-90.5 -37.5h-256z
M1370 1114v1l-512 512q-37 37 -90 37t-90.5 -37t-37.5 -90t38 -91l292 -294h-842q-52 0 -90 -38t-38 -90t38 -90t90 -38h842l-292 -293q-38 -37 -38 -91t37.5 -91t90.5 -37t90 37l512 512q38 37 38 90t-38 91z" />
</svg>