<svg xmlns="http://www.w3.org/2000/svg" xmlns:xlink="http://www.w3.org/1999/xlink" version="1.1" viewBox="-10 0 2068 2048">
   <path fill="currentColor"
d="M0 1902v-1537q0 -99 49 -183t133 -133t184 -49h1536q60 0 103 43t43 103t-43 103t-103 43h-1536q-30 0 -52 21.5t-22 51.5v1537q0 60 -43 103t-103 43t-103 -43t-43 -103zM732 1902q0 60 -43 103t-103.5 43t-104 -43t-43.5 -103t43.5 -103t104 -43t103.5 43t43 103z
M1610 1902q0 60 -43 103t-103.5 43t-104 -43t-43.5 -103t43.5 -103t104 -43t103.5 43t43 103zM1170 1902q0 60 -43 103t-103 43t-103 -43t-43 -103t43 -103t103 -43t103 43t43 103zM2048 1902q0 60 -43 103t-103 43t-103 -43t-43 -103t43 -103t103 -43t103 43t43 103z
M1902 1170q-60 0 -103 -43t-43 -103t43 -103t103 -43t103 43t43 103t-43 103t-103 43zM1902 1316q60 0 103 43t43 103t-43 103t-103 43t-103 -43t-43 -103t43 -103t103 -43zM1901.5 732q-59.5 0 -102.5 -44t-43 -104t43 -103t103 -43t103 43t43 103t-43.5 104t-103 44z" />
</svg>