<svg xmlns="http://www.w3.org/2000/svg" xmlns:xlink="http://www.w3.org/1999/xlink" version="1.1" viewBox="-10 0 2058 2048">
   <path fill="currentColor"
d="M1088 320l266 -199q98 82 144 199h-410zM1238 47l-364 273h-324q57 -142 186.5 -231t287.5 -89q111 0 214 47zM1024.5 1024q-104.5 0 -199.5 -40.5t-163.5 -109t-109 -163.5t-40.5 -199q0 -29 4 -64h1016q4 28 4 64q0 104 -40.5 199t-109 163.5t-163 109t-199 40.5z
M624 1250l230 383l250 415h-592v-752q58 -29 112 -46zM756 1222q57 -6 86 -6h366q145 0 276.5 56.5t227 152t152 227.5t56.5 277q0 49 -35 84t-85 35h-328q64 -85 64 -191q0 -87 -43 -161t-116.5 -117t-160.5 -43h-270zM128 1929q0 -162 68.5 -304.5t187.5 -242.5v666h-136
q-50 0 -85 -35t-35 -84zM1408 1857q0 70 -44.5 123t-113.5 65l-228 -380h194q79 0 135.5 56.5t56.5 135.5z" />
</svg>