<svg xmlns="http://www.w3.org/2000/svg" xmlns:xlink="http://www.w3.org/1999/xlink" version="1.1" viewBox="-10 0 2058 2048">
   <path fill="currentColor"
d="M974 330q66 0 112 -54q46 -53 46 -117q-9 -72 -50 -113q-50 -50 -116 -46q-67 0 -114 50q-46 54 -46 117q0 67 50 117q46 46 118 46zM1524 881l-238 -129l-54 -84l-84 -138l-58 -91q-55 -72 -142 -72q-51 0 -108 46l-46 51l-250 250q-7 12 -18 42l-36 330v4v9q0 30 20 50
q4 9 30 21q1 0 2.5 0.5t4 1t5.5 0.5q11 2 12 2q26 0 50 -25q22 -21 22 -46l8 -50l12 -142l12 -96l104 -105l-40 322l-18 138l-20 179l-18 163l-170 380q-8 30 -8 46q0 47 32 80q30 34 80 29q64 0 96 -63l184 -405q0 -7 4 -17q0 -5 8 -20q4 -4 4 -17l22 -184l8 8l108 176
l104 401q18 34 26 42q24 37 76 46q40 0 66 -21l4 -4q6 -5 8 -5q49 -41 38 -108l-108 -406l-8 -20q-6 -18 -6 -21q-4 -8 -4 -21l-8 -17l-24 -38l-10 -16l-46 -67l-20 -29l-20 -30l-56 -83l10 -109l12 -96l20 -196l76 117q0 4 20 25l256 142l32 8q35 0 56 -25q20 -21 20 -54
q0 -37 -34 -59z" />
</svg>