<svg xmlns="http://www.w3.org/2000/svg" xmlns:xlink="http://www.w3.org/1999/xlink" version="1.1" viewBox="-10 0 2058 2048">
   <path fill="currentColor"
d="M640 128h576q117 0 223.5 45.5t183.5 122.5t123 183.5t46 223.5t-46 223.5t-123 184t-183.5 123t-223.5 45.5h-448v128h640q52 0 90 37.5t38 90.5t-38 91t-90 38h-640v128q0 52 -38 89.5t-90.5 37.5t-90 -37.5t-37.5 -89.5v-128h-128q-52 0 -90 -38t-38 -91t38 -90.5
t90 -37.5h128v-128h-128q-52 0 -90 -37.5t-38 -89.5t38 -90t90 -38h128v-768q0 -52 37.5 -90t90.5 -38zM1216 1024q86 0 160 -43t117 -117t43 -161t-43.5 -160.5t-117 -116t-159.5 -42.5h-448v640h448z" />
</svg>