<svg xmlns="http://www.w3.org/2000/svg" xmlns:xlink="http://www.w3.org/1999/xlink" version="1.1" viewBox="-10 0 2068 2048">
   <path fill="currentColor"
d="M300 300q142 -142 329 -221t395 -79q140 0 272.5 37t244.5 102.5t206.5 160t160.5 207t103 245.5t37 272t-37 272t-103 245.5t-160.5 207t-206.5 160t-244.5 102.5t-272.5 37q-321 0 -584 -183q-44 -31 -53.5 -83t21.5 -96q30 -44 82 -52.5t96 21.5q198 138 438 138
q156 0 298 -61t245 -164t164 -245.5t61 -298.5t-61 -298.5t-164 -245t-245 -163.5t-298 -61t-296 59t-246 165l122 124q23 22 27.5 51.5t-5.5 54t-34 42t-56 17.5h-440q-39 0 -67.5 -28.5t-28.5 -68.5v-441q0 -31 17.5 -55t42 -34t53.5 -5t51 27zM1024.5 512q39.5 0 67.5 28
t28 68v376l260 260q28 28 27.5 67.5t-28 68t-67.5 28.5t-68 -28l-288 -287q-28 -27 -28 -69v-416q0 -40 28.5 -68t68 -28z" />
</svg>