<svg xmlns="http://www.w3.org/2000/svg" xmlns:xlink="http://www.w3.org/1999/xlink" version="1.1" viewBox="-10 0 2067 2048">
   <path fill="currentColor"
d="M1025 2048q-208 0 -397.5 -81t-327 -218t-218.5 -327t-81 -398t81 -398t218.5 -327t327 -218t397.5 -81q126 0 250 31l-1100 1554h850v463zM1025 1454h-617l617 -881v881zM1420 1585h459q-172 262 -459 382v-382zM1657 1015v68l-87 -34zM1573 1239q34 0 34 44v41h-66v-31
q0 -54 32 -54zM2047 1024q0 226 -95 430h-532v-1375q281 117 454 373.5t173 571.5zM1488 560h282v-197h-58v134h-57v-122h-57v122h-53v-134h-58v197h1zM1769 1324h-110v-45q0 -104 -86 -104q-85 0 -85 107v104h282v-62h-1zM1769 900l-282 121v52l282 122v-68l-60 -24v-109
l60 -25v-69zM1749 617h-147v109h57v-50h46q29 49 6 97t-83 48q-44 0 -69 -28t-23 -65t28 -62l-48 -44q-25 27 -33 72t2.5 87.5t48 73.5t94.5 31q51 0 87 -25t50.5 -63.5t11 -87t-27.5 -93.5z" />
</svg>