<svg xmlns="http://www.w3.org/2000/svg" xmlns:xlink="http://www.w3.org/1999/xlink" version="1.1" viewBox="-10 0 2068 2048">
   <path fill="currentColor"
d="M228 342h1592q93 0 160.5 66.5t67.5 159.5v910q0 94 -67.5 161t-160.5 67h-1592q-94 0 -161 -67t-67 -161v-910q0 -93 67 -159.5t161 -66.5zM398 910q-23 0 -39.5 17t-16.5 40.5t16.5 40t39.5 16.5h568q24 0 41 -16.5t17 -40t-17 -40.5t-41 -17h-568zM342 1307.5
q0 23.5 16.5 40t39.5 16.5h1252q23 0 39.5 -16.5t16.5 -40t-16.5 -39.5t-39.5 -16h-1252q-23 0 -39.5 16t-16.5 39.5zM1336 682q-35 0 -59.5 25t-24.5 61v170q0 36 24.5 61t59.5 25h286q35 0 59.5 -25t24.5 -61v-170q0 -36 -24.5 -61t-59.5 -25h-286z" />
</svg>