<svg xmlns="http://www.w3.org/2000/svg" xmlns:xlink="http://www.w3.org/1999/xlink" version="1.1" viewBox="-10 0 2068 2048">
   <path fill="currentColor"
d="M1034 1680l-10 10l-10 -10q-312 -284 -428 -399q-192 -193 -284 -332q-100 -160 -100 -303q0 -153 104 -254t256 -101q121 0 224 67t142 173h192q38 -106 142 -173q102 -67 222 -67q153 0 257.5 101t104.5 254q0 143 -102 303q-91 140 -284 332q-124 125 -426 399z
M1484 84q-131 0 -254 58q-120 57 -206 153q-88 -97 -206 -153q-123 -58 -256 -58q-156 0 -284 74q-129 75 -204 205q-74 129 -74 283q0 189 110 375q96 163 304 375q122 128 460 433l150 135l148 -135q339 -305 462 -433q206 -212 302 -375q112 -187 112 -375
q0 -152 -76 -283q-74 -130 -204 -205q-127 -74 -284 -74z" />
</svg>