<svg xmlns="http://www.w3.org/2000/svg" xmlns:xlink="http://www.w3.org/1999/xlink" version="1.1" viewBox="-10 0 2068 2048">
   <path fill="currentColor"
d="M1023.5 0q-138.5 0 -271 37t-244.5 103t-207 161t-161 207t-103 244.5t-37 271.5t37 271.5t103 244.5t161 207t207 161t244.5 103t271 37t271 -37t245 -103t207 -161t161 -207t103.5 -244.5t37 -271.5t-37 -271.5t-103.5 -244.5t-161 -207t-207 -161t-245 -103t-271 -37z
M1023.5 351q137.5 0 262.5 53t215 143t142.5 214.5t52.5 262.5t-52.5 262.5t-142.5 214.5t-215 143t-262.5 53t-262.5 -53t-215 -143t-143 -214.5t-53 -262.5t53 -262.5t143 -214.5t215 -143t262.5 -53z" />
</svg>