<svg xmlns="http://www.w3.org/2000/svg" xmlns:xlink="http://www.w3.org/1999/xlink" version="1.1" viewBox="-10 0 2068 2048">
   <path fill="currentColor"
d="M850 1347v-642q0 -73 51 -124t123.5 -51t124 51t51.5 124v642q0 73 -51.5 124t-124 51t-123.5 -51.5t-51 -123.5zM0 1024q0 -139 37 -272t103 -245.5t160.5 -207t207 -160t245 -102.5t271.5 -37v175v175q-137 0 -259.5 52t-216 146t-146 216.5t-52.5 259.5t52.5 259.5
t146 216.5t216 146t260 52t260 -52t215.5 -146q94 -93 146 -215.5t52 -260.5t-52 -260.5t-145.5 -215.5t-216.5 -145.5t-260 -52.5v-175v-175q140 0 272.5 37t244.5 102.5t206.5 160t160.5 207t103 245.5t37 272t-37 272t-103 245t-160 206.5t-206.5 160.5t-245 103
t-272.5 37q-139 0 -271.5 -37t-245 -103t-207 -160.5t-160.5 -207t-103 -245t-37 -271.5z" />
</svg>