<svg xmlns="http://www.w3.org/2000/svg" xmlns:xlink="http://www.w3.org/1999/xlink" version="1.1" viewBox="-10 0 2064 2048">
   <path fill="currentColor"
d="M2044 1023q0 231 -92 432q-94 202 -252 334q-155 130 -350 203q-193 72 -416 52q-219 -19 -420 -136q-233 -133 -372 -373q-138 -237 -138 -512q0 -420 294 -718v56l44 291v91l8 116q-28 0 -28 12v8l28 -8h8v204q20 203 84 359q8 111 24 111q29 108 44 108
q79 112 204 160q43 0 74 -108q36 -238 60 -291q21 21 72 28v-8q0 -20 -68 -40q19 -92 52 -160q5 -111 116 -311l28 4q5 92 24 152q68 138 68 259q0 43 104 311q23 174 68 203h12q50 0 126 -135q68 -155 112 -172q0 -16 -28 -16v-8q24 0 24 -12v-4l-8 -8l68 -28
q0 -35 -24 -35v-8h48v-12q-35 0 -48 -44h12v-24l-8 -8q56 0 56 -24v-4h-12v-8q21 0 32 -40q-56 -20 -56 -36l48 -135q0 -112 36 -232q45 -125 64 -259q35 -135 80 -188q198 271 198 611zM1534 137q71 40 140 100q-7 74 -12 147q-61 138 -128 387h-124l-58 4v16h32l22 -8
l104 16v8q-43 152 -56 152q-55 283 -90 283h-20q-40 -40 -88 -151q0 -28 -20 -48l-92 -204q-29 -128 -72 -191q-16 -44 -48 -44h-12q-56 0 -104 76l4 24q-18 75 -72 179q-76 227 -102 227h-12l-24 -19q-65 -168 -84 -491h-12v-12h4q11 -39 44 -64v-8l-8 -8l-4 8l-8 -8l-28 8
h-12q-13 0 -36 -88v-16h40v-16h-56q-17 -89 -104 -211q21 -12 40.5 -24t39.5 -24l8 4l36 -4h68q27 0 60 20q16 -20 56 -20v-16h-204q204 -108 432 -120q227 -12 464 88h4q54 27 92 48z" />
</svg>