<svg xmlns="http://www.w3.org/2000/svg" xmlns:xlink="http://www.w3.org/1999/xlink" version="1.1" viewBox="-10 0 2058 2048">
   <path fill="currentColor"
d="M448 0h640l768 768v1024q0 108 -74 182t-182 74h-1152q-108 0 -182 -74t-74 -182v-1536q0 -108 74 -182t182 -74zM1280 0h576v576zM672 784q-142 0 -248 26q-104 26 -104 62v88q0 36 104 62q106 26 248 26t248 -26q104 -26 104 -62v-88q0 -36 -104 -62q-106 -26 -248 -26
zM1200 960q-36 0 -62 26t-26 62v704q0 36 26 62t62 26h440q36 0 62 -26t26 -62v-704q0 -36 -26 -62t-62 -26h-440zM320 1048v176q0 36 104 62q106 26 248 26t248 -26q104 -26 104 -62v-176q0 36 -104 62q-106 26 -248 26t-248 -26q-104 -26 -104 -62zM1200 1048h176v176
h-176v-176zM1464 1048h176v176h-176v-176zM320 1312v176q0 36 104 62q106 26 248 26t248 -26q104 -26 104 -62v-176q0 36 -104 62q-106 26 -248 26t-248 -26q-104 -26 -104 -62zM1200 1312h176v176h-176v-176zM1464 1312h176v176h-176v-176zM320 1576v176q0 36 104 62
q106 26 248 26t248 -26q104 -26 104 -62v-176q0 36 -104 62q-106 26 -248 26t-248 -26q-104 -26 -104 -62zM1200 1576h176v176h-176v-176zM1464 1576h176v176h-176v-176z" />
</svg>