<svg xmlns="http://www.w3.org/2000/svg" xmlns:xlink="http://www.w3.org/1999/xlink" version="1.1" viewBox="-10 0 2068 2048">
   <path fill="currentColor"
d="M1704 166h140l-632 824l440 612q144 -84 228 -204t84 -260q0 -168 -120 -310q-119 -141 -320 -218l16 -28q231 91 370 248q138 156 138 340q0 148 -90 280t-254 228l148 208h-416q-53 -77 -56 -80q-174 44 -352 44h-4q-309 0 -564 -112l-108 148h-144l152 -200
q-169 -96 -264 -232q-96 -136 -96 -288q0 -175 128 -330q127 -154 344 -246l56 88q-296 180 -296 456q0 237 232 412l372 -484l-644 -900h412l520 708l-560 740q232 132 536 132q109 0 220 -20l-392 -548zM1024 494q207 0 368 40l-20 28q-130 -28 -272 -28q-68 0 -96 40
q-17 20 0 56q16 34 54 94q38 58 54 90q-1 -2 -37 -49.5t-69 -90.5q-92 -120 -134 -172q98 -8 152 -8z" />
</svg>