<svg xmlns="http://www.w3.org/2000/svg" xmlns:xlink="http://www.w3.org/1999/xlink" version="1.1" viewBox="-10 0 2064 2048">
   <path fill="currentColor"
d="M4 1022v-1022h248v2048h-248v-1022v-4zM878 2040q-91 -7 -164 -58q-73 -50 -92 -131q-12 -62 -10 -166q2 -136 2 -170l-0.5 -15.5t-1 -49.5t-0.5 -74q-2 -134 10 -138q28 -87 114 -134q84 -46 186 -46q640 0 854 4q92 5 170 54q77 49 94 134q16 64 -36 84
q-189 128 -256 173q-221 148 -222 148h-140h-162h-142q148 -99 324 -217t184 -124q-545 4 -628 4q-64 -4 -88 44q-25 48 -12 113q4 211 4 244q16 36 54 48t76 8q38 -5 74 0q140 0 970 4v269q-1011 -4 -1154 -4l-12 -4h4zM610 865v-124q67 -34 146 -76q33 -18 83 -44.5
t67 -35.5q14 8 256 124q0 16 -26 30q-25 13 -66 30q-42 17 -52 28q-60 24 -48 64v133h-360v-66v-63zM1682 910v-85q-820 -437 -1064 -573q-8 0 -6 -124q0 -37 0.5 -68t1 -45.5l0.5 -14.5h356v172q100 49 488 257q314 167 586 308v253h-362v-84v4zM1716 397q-29 -17 -112 -57
q-90 -45 -126 -64q5 -2 27 -13.5t74 -38t103 -52.5v-172h362v128q0 124 -4 124q-195 108 -292 157q-4 0 -32 -12z" />
</svg>