<svg xmlns="http://www.w3.org/2000/svg" xmlns:xlink="http://www.w3.org/1999/xlink" version="1.1" viewBox="-10 0 2068 2048">
   <path fill="currentColor"
d="M236 292h1812v1228l-236 236h-1812v-1228zM1062 632q-83 -116 -284 -116q-202 0 -286 116t-84 356q0 241 82 350q83 110 286 110q54 0 80 -8l120 192l136 -64l-112 -176q75 -52 110 -150q34 -96 34 -254q0 -241 -82 -356zM1300 584v192h-84v120h84v308q0 140 40 192
t152 52q50 0 136 -16l-8 -116l-108 4q-48 0 -60 -26t-12 -106v-292h184v-120h-184v-192h-140zM606 726q46 -82 170 -82t170 82t46 262q0 179 -44 256q-43 76 -170 76q-126 0 -172 -76t-46 -256t46 -262z" />
</svg>