<svg xmlns="http://www.w3.org/2000/svg" xmlns:xlink="http://www.w3.org/1999/xlink" version="1.1" viewBox="-10 0 2068 2048">
   <path fill="currentColor"
d="M634 0q21 7 84 103q138 -41 276 -41q410 0 702 293q290 291 290 700v4q16 12 28 29l34 29l-16 33q-34 62 -66 111q-203 268 -734 346q-415 62 -1062 5q-51 -72 -84 -153q-33 -6 -60 -16l-26 -13l16 -33q4 -7 14 -23t16 -26q-46 -140 -46 -293q0 -292 162 -540
q158 -245 428 -366q19 -59 44 -149zM1920 1410zM994 2048q-228 0 -430 -94q-201 -94 -342 -272q608 49 1022 -9q450 -66 676 -263q-107 287 -362 463q-255 175 -564 175zM668 140l-10 40q-5 14 -10 39q-27 87 -70 202q-15 36 -34 86q-9 21 -27.5 64.5t-26.5 59.5
q-14 25 -20 41q-85 184 -222 437q-30 52 -152 272l160 41q120 19 350 41q79 8 227 21.5t205 19.5q0 -7 -26 -397q-26 -371 -36 -468q-10 -19 -20 -37.5t-20 -36.5q-16 -31 -42 -66l-2 -4q-2 -6 -2 -8q-3 -5 -10 -15t-12.5 -18t-9.5 -15q-16 -21 -38 -55q-20 -32 -35 -53.5
t-23 -33.5q-15 -22 -36 -58q-19 -29 -38 -61q-18 -32 -20 -38zM1054 668q109 225 120 451q13 230 -58 390q74 -5 148 -3q80 2 186 -20q112 -22 210 -72q-81 -180 -232 -369q-150 -187 -262 -282zM1352 853q181 124 246 190q145 145 124 338q158 -79 248 -247
q-125 -112 -372 -202q-146 -49 -246 -79z" />
</svg>