<svg xmlns="http://www.w3.org/2000/svg" xmlns:xlink="http://www.w3.org/1999/xlink" version="1.1" viewBox="-10 0 2068 2048">
   <path fill="currentColor"
d="M1051 0q49 5 80 36q32 32 32 80t-34 82t-80 34t-80 -34t-34 -82t34 -82t82 -34zM1311 272q48 0 84 32q310 314 527 531q92 92 116 224q25 133 -16 248q-67 231 -276 440q-211 209 -439 276q-114 40 -247.5 16t-224.5 -112q-19 -19 -112.5 -113t-262.5 -263
q-71 -76 -112 -112q-9 -9 -20 -24q-48 -29 -56 -84q-7 -56 32 -96q49 -44 112 -28q10 3 28 12l16 8l16 16q13 9 32 32l115 112q284 288 372 376t248 40q171 -47 339 -216q168 -167 220 -344q44 -161 -44 -248l-527 -527q-32 -33 -34 -80q-1 -48 30 -84q37 -32 84 -32z
M579 472q49 5 80 36q36 31 36 84q0 47 -34 81t-78 34q-51 0 -87 -40q-32 -32 -32 -79q0 -48 34 -82t81 -34zM847 739q49 0 80 36l592 592q48 47 31.5 112t-79.5 82q-64 18 -112 -30l-592 -592q-36 -36 -36 -82q0 -47 34 -82q35 -36 82 -36zM116 931q48 0 84 36t36 84
q0 47 -36 82q-35 34 -84 34q-48 0 -82 -34t-34 -82q0 -49 34 -84q35 -36 82 -36z" />
</svg>