<svg xmlns="http://www.w3.org/2000/svg" xmlns:xlink="http://www.w3.org/1999/xlink" version="1.1" viewBox="-10 0 2058 2048">
   <path fill="currentColor"
d="M1850 1596q-44 107 -108 196q-88 123 -144 172q-85 80 -180 80q-74 0 -170.5 -40t-181.5 -40q-89 0 -186 40q-94 39 -162 44q-92 4 -184 -84q-60 -53 -148 -176q-94 -135 -160 -312q-64 -191 -64 -372q0 -204 88 -352q72 -119 188 -190q115 -70 252 -70q72 0 194.5 44
t153.5 44q29 0 172 -52q138 -48 236 -40q255 19 388 204q-232 139 -232 392q4 196 144 324q66 62 140 92q-17 52 -36 96zM1454 40q0 156 -112 288q-144 168 -316 156v-40q0 -152 116 -288q59 -64 146 -108q85 -44 166 -48v40z" />
</svg>