<svg xmlns="http://www.w3.org/2000/svg" xmlns:xlink="http://www.w3.org/1999/xlink" version="1.1" viewBox="-10 0 2068 2048">
   <path fill="currentColor"
d="M2032 1761q-35 -17 -119 -54q-24 -11 -63 -28t-51 -22q-3 -3 -40 -54q-36 -50 -80 -54q-17 -12 -52 -18q-37 -7 -59 -18q-22 -12 -22 -41q-20 -15 -62 -32q-6 -3 -62 -28q-155 -85 -253 -156q-5 -24 6 -34q9 -10 30 -8q20 1 38 6q23 5 45 16q25 12 34 12q164 59 272 124
q28 -17 45 -12q15 4 44 28q31 26 44 32q15 5 32 19.5t32 20.5q12 4 36 0q48 -13 90 16q42 28 59 73q12 20 72 220h-4zM1751 1537q0 -5 6 -18q6 -16 8 -20q2 -8 2 -14q0 -9 -8 -15q-6 -5 -20 -10l-46 -30q-35 -23 -58 -30q-13 -30 -45 24q-29 65 12 65q132 48 149 48z
M981 1501q-314 -17 -598 -205q75 -40 100 -131q23 -89 -8 -166q67 36 147 10q77 -26 106 -98q19 96 116 140q96 43 185 -4q88 -36 112 -138q24 -103 -36 -175q-52 -80 -154 -86t-167 62q-10 5 -16 16q-12 19 -16 28q-25 43 -36 -8q-43 -76 -140 -86q-96 -11 -149 58
q-45 24 -56 104l4 8q-68 -29 16 -140q11 -5 16 -18q3 -12 2 -28q-2 -16 2 -30q4 -122 4 -169q59 104 153 169q91 0 156 72q24 4 60 -30q34 -34 60 -38q64 -24 137 -12q72 12 124 64q355 -77 473 -321q7 -56 41 -68q8 -4 12.5 3.5t7.5 28.5q52 499 -61 798q-37 90 -84 157
q-87 -38 -212 -80q-32 -49 -149 -89q28 16 42 36t4 36q-11 17 -46 29q-172 83 -477 28q285 96 441 60q31 -17 84 26q51 41 64 46q5 5 41 24q67 31 24 48q-4 4 -12 4q-141 69 -317 65zM279 1268q-111 -17 -189 -109q-81 -95 -88 -204q-8 -65 33.5 -123t106.5 -58
q101 -5 181 68t112 173q28 64 6 142q-23 79 -94 103q-31 8 -68 8zM142 1015q48 -8 65 -54q16 -46 -4 -91q-20 -44 -69 -44q-52 4 -70 53q-19 48 4 94q22 46 74 42zM975 991q-43 -5 -70 -38q-29 -35 -21 -74q28 52 87 30q58 -23 46 -79q-1 -1 -6.5 -11t-9.5 -17
q-8 -13 -2.5 -14.5t22.5 6.5q56 19 64 83q7 62 -40 94q-29 24 -70 20zM596 951q-37 4 -63 -34q-27 -39 -14 -59q40 60 93 8q48 -44 0 -88q59 0 76 64q16 65 -36 97q-25 16 -56 12z" />
</svg>