<svg xmlns="http://www.w3.org/2000/svg" xmlns:xlink="http://www.w3.org/1999/xlink" version="1.1" viewBox="-10 0 2066 2048">
   <path fill="currentColor"
d="M1026 0q423 0 722 300q298 299 298 724q0 424 -298 723q-300 301 -722 301t-724 -301q-300 -300 -300 -723q0 -424 300 -724t724 -300zM1026 271h-36l24 387h8q156 0 263 107t107 255q0 87 -38 160l346 181q78 -160 78 -337q0 -313 -220 -533t-532 -220zM968 271l-4 4v-4
h4zM360 666q-86 168 -86 358q0 312 220 532t532 220h62l-26 -390h-40q-151 0 -262 -107q-108 -106 -108 -259q0 -94 50 -177z" />
</svg>