<svg xmlns="http://www.w3.org/2000/svg" xmlns:xlink="http://www.w3.org/1999/xlink" version="1.1" viewBox="-10 0 2058 2048">
   <path fill="currentColor"
d="M1683 0q214 0 166 191q-45 168 -227 321q-119 98 -207 98q-114 0 -130 -151q-21 -184 109 -333q114 -126 289 -126zM1025 73l-4 4q97 0 109 116q12 118 -42 230q-56 114 -116 110q-62 -5 -102.5 -112.5t-9.5 -219.5q30 -112 140 -124q11 -4 25 -4zM606 240q69 0 98 93
q29 94 8 193q-22 101 -65 108q-57 12 -114 -69t-57 -181t90 -136q25 -8 40 -8zM302 496q52 4 91 85q39 82 34.5 157t-36.5 103q-30 8 -65 -10t-69 -59q-31 -38 -53 -85q-21 -44 -10 -94q10 -49 55 -77q27 -20 53 -20zM1183 695h-4q159 5 262 55q104 51 120 140
q16 97 -47 187q-62 89 -160 152q-54 35 -206 132q-109 69 -178 124q-72 56 -79 126q-8 73 89 141q93 69 171 26q76 -42 60 -152q-4 -35 28.5 -61.5t101.5 -44.5q174 -50 244 20q27 28 20 73q-37 181 -188 307q-154 128 -315 128q-207 0 -402 -138t-297 -341
q-102 -202 -61 -378q33 -158 175 -276t317 -171q177 -53 349 -49z" />
</svg>