<svg xmlns="http://www.w3.org/2000/svg" xmlns:xlink="http://www.w3.org/1999/xlink" version="1.1" viewBox="-10 0 2068 2048">
   <path fill="currentColor"
d="M1024 0q424 0 724 300t300 724t-300 724t-724 300t-724 -300t-300 -724t300 -724t724 -300zM960 204h-4l-144 36q-12 4 -12 16l64 296l4 4q75 -28 156 -28q183 0 322 122q137 121 166 298l304 -64q8 -5 8 -16l-36 -148q-5 -8 -16 -8h-240q-30 -57 -76 -108l80 -224
q5 -8 -8 -16l-128 -76q-8 -8 -16 0l-164 164q-70 -23 -144 -28l-104 -212q-2 -2 -12 -8zM484 422q-6 2 -8 2l-108 108q-8 8 -4 16l128 208q-35 54 -52 120l-232 48q-12 0 -12 12v152q0 12 12 12l224 56q16 76 52 140l-128 196q-4 8 4 16l104 108q8 8 20 4l204 -232
q-160 -148 -160 -364q0 -244 192 -392l-228 -208q-4 -4 -8 -2zM1508 1132q-41 169 -174 278q-134 110 -310 110q-92 0 -176 -36l-4 4l-76 296q0 11 8 16l148 40q8 0 16 -8l116 -212q64 0 128 -12l156 172q7 12 20 4l128 -76q12 -5 8 -16l-64 -220q58 -55 92 -116l236 12
q12 4 12 -8l40 -148q4 -7 -4 -16z" />
</svg>