<svg xmlns="http://www.w3.org/2000/svg" xmlns:xlink="http://www.w3.org/1999/xlink" version="1.1" viewBox="-10 0 2068 2048">
   <path fill="currentColor"
d="M1022 0q424 0 725 301t301 725q0 423 -302 723q-300 299 -724.5 299t-721.5 -299q-300 -301 -300 -723q0 -423 300 -725q298 -301 722 -301zM1024 95q-123 0 -220 175q-96 173 -134 453q-6 18 -6 37q-12 87 -12 177q-4 37 -4 89t4 85q0 90 12 177q116 16 244 21
q52 4 116 4t112 -4q132 -5 248 -21q5 0 24 -4q245 -33 394 -103q150 -71 150 -157q0 -385 -272 -657t-656 -272zM1024 562q213 0 354 161q21 26 30 41q78 117 78 260q0 50 -90 87q-91 37 -236 49q-66 9 -136 9q-71 0 -136 -9q-8 -59 -8 -136t8 -136q9 -84 20 -149
q46 -177 116 -177z" />
</svg>