<svg xmlns="http://www.w3.org/2000/svg" xmlns:xlink="http://www.w3.org/1999/xlink" version="1.1" viewBox="-10 0 2058 2048">
   <path fill="currentColor"
d="M1018 0q-54 142 -168 392q0 9 -22 46q-20 33 -32 66q-10 27 -2 52q5 22 68 88q10 10 80 84t76 80h4q6 -6 76 -80t80 -84q63 -66 68 -88q8 -24 0 -50q-8 -27 -30 -64t-22 -42q-14 -27 -76 -180q-61 -150 -100 -220zM126 548v8q56 0 224 20q111 17 140 32q46 25 80 58
q33 32 94 102q65 75 66 76l10.5 10.5t18.5 19.5t23 24q54 56 64 66q32 41 32 64q-4 16 -48 64l-136 136l-176 176q-78 78 -104 96q-29 15 -144 32q-175 27 -256 32v4q82 8 198 8h202q20 0 56 4t72 4q33 0 56 -10t46 -30q22 -20 54 -54q21 -23 40 -42q24 -28 88 -88
q54 -51 110 -108q9 -9 86 -92h4q42 50 82 92q56 57 110 108q57 53 92 88q11 11 38 42q30 34 54 54t48 30q23 10 54 10q35 0 72 -4t58 -4h198q164 0 202 -8v-4q-82 -5 -256 -32q-118 -17 -144 -32q-24 -16 -108 -96l-176 -176q0 -4 -54 -56q-59 -57 -78 -80q-48 -48 -48 -64
q-4 -23 32 -64q10 -12 64 -70q29 -31 48 -50q25 -29 54 -62l60 -68q26 -29 58 -56q37 -31 68 -50q32 -15 140 -32q168 -20 228 -20v-8l-384 -4h-168l-116 116l-224 248l-228 -240l-120 -124h-168l-384 4h-4zM646 844l-180 360l-124 252q14 -4 32 -12q5 -2 13.5 -6t12.5 -6
q11 -4 26 -20q17 -17 20 -18q4 -2 24 -24q19 -22 24 -22l204 -204l34 -30q33 -28 50 -52q16 -22 16 -38q0 -21 -40 -64q-58 -66 -112 -116zM1402 844q-19 24 -56 62q-48 50 -52 54q-36 44 -36 64q0 16 16 38q15 21 48 52q32 30 36 30l204 204q9 9 18 20q11 13 20 20
q8 6 18 16q13 13 22 18q4 2 11.5 7l10.5 7q12 8 24 12l24 8l-144 -292zM790 1488q-2 2 -6.5 7t-13 15t-16.5 18q-31 35 -48 50q-22 20 -48 38q-29 20 -52 24q-38 8 -78 8q-24 0 -96 -2t-82 -2q-86 0 -104 8q-18 13 -30 28q-16 19 -28 48q-14 32 -18 36q-143 266 -152 284
q50 0 104 -20q52 -20 126 -60q91 -50 94 -52q205 -99 460 -152zM1258 1488q22 13 56 52q37 42 70 66q37 27 62 34q38 8 80 8q26 0 98 -2t78 -2q90 0 108 8q16 12 28 28q10 14 28 48q16 31 16 36q22 36 50 90q15 29 56 104q31 56 46 90q-51 0 -102 -20q-53 -21 -124 -60
q-91 -50 -94 -52q-205 -99 -460 -152q28 -119 4 -276z" />
</svg>