<svg xmlns="http://www.w3.org/2000/svg" xmlns:xlink="http://www.w3.org/1999/xlink" version="1.1" viewBox="-10 0 2068 2048">
   <path fill="currentColor"
d="M0 1024l104 -104l104 -104v148h608q11 7 22 18q6 6 22 24q11 13 20 18q-6 10 -26 28q-24 22 -26 24h-620v156zM1840 952v-136l66 66l76 76l66 66l-104 104l-104 104v-148h-608q-15 -11 -38 -34l-26 -26q6 -10 26 -28t26 -28q15 0 50.5 0.5t102.5 1t129 0.5q240 2 278 -2
q55 4 60 -16zM816 208l208 -208l66 66l76 76l66 66h-148v604q-7 15 -32 40l-28 28l-52 -52v-620h-156zM964 1228l32 -32l28 -28l26 26q19 19 30 26v620h152l-104 104l-104 104l-208 -208h148v-612zM276 748q80 -84 164 -164l98 98l114 114l100 100h-476v-148zM748 280h152
v476l-312 -312zM580 1612l156 -156l156 -156v476h-4h-4h-4h-4h-4h-4h-4h-4h-4h-4h-4h-4h-4h-4h-4h-4h-4h-4h-4h-4h-4h-4h-4h-4h-4h-4h-4h-4h-4h-4h-4h-4h-4h-4h-4h-8l-52 -52l-60 -60zM276 1300v-74v-74h476l-156 156l-156 156zM1152 752v-480h4h4h4h4h4h4h4h4h4h4h4h4h4h4
h4h4h4h4h4h4l4 4h4h4h4h4h4h4h4h4h4h4h4h4h4h4h8q89 89 164 160zM1292 896l312 -312q80 84 164 164v74v74h-476zM1608 1460l-156 -156l-156 -156h476v76v76zM1152 1764v-476l156 156l156 156l-164 164h-148zM276 648v-372h376q-96 92 -168 164l416 408v48h-52l-408 -408
q-7 7 -27 26.5t-59 57.5zM1152 1148h48l412 412l164 -164v376h-372l164 -168l-416 -412v-44zM1552 424l-152 -152h376v376l-168 -168l-412 416h-40v-52l368 -372zM844 1152h48v52l-404 408l164 160h-372v-372l164 164z" />
</svg>