<svg xmlns="http://www.w3.org/2000/svg" xmlns:xlink="http://www.w3.org/1999/xlink" version="1.1" viewBox="-10 0 2068 2048">
   <path fill="currentColor"
d="M1024 0q424 0 724 300t300 724t-300 724t-724 300t-724 -300t-300 -724t300 -724t724 -300zM832 248h-8q-129 5 -256 88q-164 113 -164 184q0 36 48 132q343 690 440 792q37 36 80 32q44 -5 56 -44q16 -52 -24 -148l-104 -272q176 -60 260 -240v-4q44 -88 12 -228
q-36 -152 -164 -236q-85 -56 -176 -56zM736 448q12 -4 26 2q13 6 38 26q85 65 116 172q8 34 8 64q0 23 -4 40q0 28 -12 48q-19 36 -52 28q-15 0 -32 -20q-61 -61 -104 -180q-1 -6 -4.5 -21.5t-5.5 -24.5q-4 -19 -10 -58q-4 -32 6 -54t30 -22zM1460 620q-63 0 -88 20
q-31 31 -48 124q-65 452 -8 476q24 8 56 -30q31 -37 116 -190l60 -112q51 -105 64 -152q12 -52 -20 -84q-43 -40 -108 -52h-24zM1296 1332h-20q-48 16 -60 66t24 78q40 31 80 8q27 -16 32 -48q12 -36 -4 -70t-52 -34zM612 1640q-28 0 -46 18t-18 50q0 28 18 48t46 20h824
q28 0 46 -20t18 -48q0 -32 -18 -50t-46 -18h-824z" />
</svg>