<svg xmlns="http://www.w3.org/2000/svg" xmlns:xlink="http://www.w3.org/1999/xlink" version="1.1" viewBox="-10 0 2068 2048">
   <path fill="currentColor"
d="M1024 122q424 0 724 300t300 724q0 299 -164 552q-60 -12 -124 -12q-107 0 -188 32q-8 5 -8 16v4q8 16 -4 28q-13 12 -48 20q-27 4 -56 24q-27 18 -54 52l-26 32q-49 36 -100 32q63 -86 68 -100q13 -27 34 -50q21 -25 30 -38q39 -58 44 -80q9 -19 10 -48q0 -9 0.5 -17.5
t1 -13t0.5 -5.5q0 -5 12 -42q9 -27 16 -54q-5 -8 -18 -2q-15 6 -40 14q-27 8 -38 8q-21 0 -48 -10t-44 -10q-16 0 -44 12t-44 12q-5 0 -24 -10t-40 -10q-10 -4 -76 10q-68 14 -120 10q-64 0 -122 -54q-57 -53 -82 -90q-24 -32 -52 -4q-18 8 -32 4q-16 -4 -20 -16
q-52 -88 -104 -104q-52 -12 -82 20t-26 72q5 22 14 36q12 18 22 30q9 9 16 22q25 44 52.5 55.5t19.5 36.5q-4 16 -40 16q-35 4 -60 -16q-28 -17 -48 -48q-24 -44 -76 -44q-20 0 -40 12q-79 40 -172 40h-72q-52 -155 -52 -324q0 -424 300 -724t724 -300zM1196 330
q-44 0 -88 12q-4 0 -24 6q-5 1 -36 10q-6 1 -42 8q-21 3 -56 2q-24 -1 -66 -10q-215 -48 -256 104l-44 180q-12 20 -2 48t30 54t92 56t188 54q70 11 112 32q40 19 46 32q7 14 14 32q17 72 52 96q29 20 -16 28h-8q-54 7 -200 -38q-150 -47 -252 -106q-144 -89 -92 -192
q-135 -12 -228 14q-91 25 -108 86q-32 108 192 266q225 158 532 250q323 100 604 34q280 -66 316 -262q16 -91 -52 -158q-67 -66 -204 -94q-19 76 -88 108q-4 4 -8 0q-4 -5 0 -12q26 -43 36 -64q20 -49 -4 -128q-31 -111 -84 -226t-96 -158q-55 -60 -160 -64zM1196 378h8
q50 4 82 20q34 16 34 40t-36 38q-37 14 -84 14q-30 0 -60 -8q-4 0 -4 -4t4 -4q36 -9 53 -18.5t15 -21.5q-4 -36 -120 -24q-9 0 -20 4q-4 0 -4 -4t4 -4q36 -20 96 -24q15 -4 32 -4zM712 502q12 0 24 12q29 36 64 36q17 0 50 -4t66 -4q84 0 88 36q0 13 -10 20q-11 7 -50 12
q-120 7 -152 44q-16 12 -32 2q-17 -11 -28 -26l-12 -20q-20 -5 -36 -30t-4 -54q12 -24 32 -24zM1244 1606h4q20 16 4 44q-8 20 -24 32q-36 28 -80 0q-30 -20 -52 -16q-16 4 -22 -8t2 -24q4 -16 24 -22q21 -7 52 10q48 28 64 12q9 -6 28 -28zM2012 1630q28 0 28 28t-28 28
t-28 -28t28 -28zM2012 1634q-24 0 -24 24t24 24t24 -24t-24 -24zM2004 1642h12q8 0 8 8q0 7 -8 12l8 12h-4l-8 -12h-4v12h-4v-32zM2008 1646h4q8 0 8 6t-8 6h-4v-12z" />
</svg>