<svg xmlns="http://www.w3.org/2000/svg" xmlns:xlink="http://www.w3.org/1999/xlink" version="1.1" viewBox="-10 0 2068 2048">
   <path fill="currentColor"
d="M1509 170l4 -4q122 4 219 81q100 78 131 201l175 669v8l4 28q24 142 -56 266q-80 123 -218 159l-1122 291q-146 40 -282 -38q-135 -78 -175 -229l-175 -672q-40 -147 40 -283q79 -135 230 -175l1118 -290q40 -12 75 -12q16 -5 32 0zM1509 225q-12 -5 -28 0q-29 0 -63 8
l-1122 295q-127 31 -193 145q-65 112 -33 241l175 672q36 127 149 192.5t240 34.5l1122 -294q127 -32 193 -146q65 -113 34 -240l-12 -36l-163 -633q-29 -104 -112 -169.5t-187 -69.5zM1477 313h-4q220 0 271 219l151 569q32 139 -28 234.5t-195 127.5l-998 263
q-134 40 -239 -18q-103 -57 -135 -193l-147 -569q-32 -143 20 -231q51 -88 203 -131l998 -259q51 -12 103 -12zM1585 615q-5 0 -12 4l-290 76q-36 7 -28 48l55 207q7 35 48 28l290 -76q40 -12 28 -48v-4l-55 -203q-4 -28 -36 -32zM714 671q-7 4 -12 4l-354 92q-56 16 -40 67
l64 255q17 51 67 40l354 -92q56 -17 40 -67l-63 -255q-12 -44 -56 -44zM1211 798l-350 40l16 56l350 -40zM1291 1013l-136 203q31 0 56 20l135 -199q-31 -5 -55 -24zM809 1093l-63 16l175 167q2 -2 20 -8l43 -8zM1155 1272h-4l-199 56q-15 4 -11 20l35 143q7 16 24 12
l199 -52q16 -5 12 -24l-36 -139q-4 -16 -20 -16z" />
</svg>