<svg xmlns="http://www.w3.org/2000/svg" xmlns:xlink="http://www.w3.org/1999/xlink" version="1.1" viewBox="-10 0 2068 2048">
   <path fill="currentColor"
d="M322 257q275 -3 440 19q166 22 312 80l66 24q12 6 12 18v77q9 82 48.5 116t93 37t148.5 30q95 26 180 87q-81 -87 -194 -171v-3q-10 -6 -16 -12l-6 -6q-1 -2 -2.5 -3l-1.5 -1q-2 -1 -2 -5q0 -3 -2 -9v-6v-3v-3q2 -15 18 -24q8 -3 18 -3q6 0 15 3t23 12q152 92 264 237
q0 3 4 8l8 7q6 6 8 12v3h4l6 12v3q2 6 6 9q0 2 2 6t4 6q14 33 30 48q12 12 2 27l6 6q36 27 72 30q16 3 17.5 17.5t-13.5 21.5q-7 3 -16 6q-11 3 -14 3t-10 5q-4 3 -10 7q-4 3 -10 11q-8 10 -12 16q-16 18 -30 0q-30 -39 -76 -66q-8 -3 -38 -18q-33 -12 -40 -21
q-9 -10 -20 -48q-4 -6 -10 -9q-12 -9 -60 -30q-122 -52 -160 -63q-40 -12 -94 -12q-87 0 -136.5 51t-54 123t39 126t131.5 63q14 0 60 3q2 0 14 2q6 1 12 1h16q98 0 206 24q276 57 390 213q30 39 56 102q12 30 18 51q4 12 4 21q0 21 -12 36q-7 6 -16 9q-11 3 -20 0
q-12 -3 -20 -12q-8 -11 -14 -21q-20 -63 -83 -129t-135 -87q96 117 138 285q14 54 18 102q2 24 2 39q0 12 -2 18q-4 9 -10 15q-12 12 -26 12q-22 0 -34 -15l-6 -18q-6 -12 -6 -30q0 -9 -6 -36q-8 -30 -24 -66q-158 -393 -440 -381q-72 -3 -122 -12q-100 -15 -168 -84
q-66 -69 -88 -162q-14 -86 20 -172q35 -87 118 -146l-20 -48q-4 -3 -10 -18q-189 9 -350 56q-160 46 -360 136q-60 30 -108 51q-20 9 -32 15q-10 3 -12 6h-6h-10h-8q-10 -4 -17 -9.5t-7 -17.5q-4 -9 0 -18q3 -11 6 -15q4 -4 14 -15q16 -12 46 -30q56 -36 132 -72
q181 -91 452 -162h-118q-232 12 -526 48q-52 6 -96 12q-22 3 -30 3h-12h-6q-4 0 -6 -3h-6q-6 -3 -10 -9q-6 -6 -8 -15q-6 -12 0 -24t18 -21q8 -3 30 -9q24 -6 120 -24q244 -44 692 -65q-253 -63 -636 -87q-56 -3 -62 -3q-12 -3 -18 -3q-4 0 -6 -3h-6l-10 -9q-8 -12 -8 -26
q0 -13 12 -22q2 -3 8 -6l4 -3h6h2q10 -3 54 -3h118z" />
</svg>