<svg xmlns="http://www.w3.org/2000/svg" xmlns:xlink="http://www.w3.org/1999/xlink" version="1.1" viewBox="-10 0 2068 2048">
   <path fill="currentColor"
d="M964 244l584 37v0l168 209l152 70v0l180 242l-26 197l-110 111l-4 4v-4l-8 12l16 -221l-4 -4l-546 -33l58 505l-78 106l12 17l-86 102l20 50l-122 78l16 61l-192 -28l4 49l-350 -111l-12 45l-238 -131h-4l-54 78l-114 -329h-4l-136 103l104 -230l-136 70l50 -152l-104 37
l172 -185l116 -172l-112 20l408 -250h16l-94 4l28 -4l-28 4q4 -4 8 -4h8l-16 4zM1182 474q-43 0 -82 16q20 6 54 11q38 6 60 16q26 11 38 27q-8 40 16.5 64.5t49.5 29.5l28 4q172 0 222 -78q-24 33 -76 25q-51 -7 -92 -35q-34 -22 -106 -53q-62 -27 -112 -27zM1280 519v12
q0 26 14 41q16 17 36 17q33 0 40 -37q4 7 4 12q0 25 -18 43q-18 19 -40 19t-41 -19t-19 -43q0 -28 24 -45zM1798 618q-3 1 -6 2.5t-7 3t-7 2.5q-11 5 -26 18q-17 16 -12 31q30 -5 58 -57z" />
</svg>