<svg xmlns="http://www.w3.org/2000/svg" xmlns:xlink="http://www.w3.org/1999/xlink" version="1.1" viewBox="-10 0 2068 2048">
   <path fill="currentColor"
d="M1688 377v4q207 0 356 28q-304 5 -580 60q-274 55 -446 132q-180 81 -302 150q-132 76 -184 125l-56 52q191 -110 430 -179q236 -67 430 -84q187 -16 358 -16q168 0 262 16l92 12q-327 12 -602 70q-284 60 -464 139q-192 85 -338 188q-148 105 -230 200q-83 94 -134 189
q162 45 302 46q142 2 242 -28q100 -29 186 -74q82 -42 138 -99q53 -55 86 -100q32 -44 44 -80q4 102 -64 222q-66 116 -200 205q-131 88 -326 90t-440 -122q-40 94 -32 148q-72 -88 -80 -208q-80 -52 -136 -95q53 23 136 51l16 -107q-55 -188 18 -348q73 -158 234 -265
q158 -107 380 -180t454 -108q227 -34 450 -34zM556 1268l-40 68l-100 4l48 -68z" />
</svg>