<svg xmlns="http://www.w3.org/2000/svg" xmlns:xlink="http://www.w3.org/1999/xlink" version="1.1" viewBox="-10 0 2068 2048">
   <path fill="currentColor"
d="M1024 0q5 10 58 134l56 130q3 6 19.5 45t30.5 71q36 84 60 132q29 59 68 140t86 176q22 44 104 202q22 43 68 130t66 126q26 50 164 310q-116 -69 -280 -112q51 27 118 68q58 36 90 60q43 33 80 64q47 40 64 52q76 147 172 320q-8 -3 -108 -40q-568 -192 -600 -320
q-20 -65 80 -120v-104q-5 -3 -24 -10q-3 -1 -7 -2.5t-6.5 -2.5l-5 -2t-3.5 -1q-4 -1 -18 -8t-18 -10q-6 -4 -12 -12q-5 -6 -10 -18q-4 -9 -4 -20v-18q0 -9 4 -20l6 -18q0 -1 1 -3.5t2.5 -5t3 -6.5t3.5 -7q7 -15 12 -20l-72 -76l-24 12l-22 10q-4 1 -18 8q-12 6 -20 6
q-4 0 -18 -2q-9 -1 -20 -6q-12 -5 -18 -10q-8 -6 -12 -12q-4 -5 -10 -16q-7 -12 -8 -16l-8 -24q-6 -18 -6 -26h-104q-3 5 -10 24q-1 3 -2.5 7t-2.5 6.5l-2 5t-1 3.5q-1 4 -8 18t-10 18q-4 6 -12 12q-6 5 -18 10q-11 5 -20 6q-14 2 -18 2q-8 0 -20 -6q-14 -7 -18 -8
q-1 0 -3.5 -1t-5 -2.5t-6.5 -3t-7 -3.5l-24 -12l-72 76q5 5 12 20l10 22l6 18q4 11 4 20v18q0 11 -4 20q-5 12 -10 18q-6 8 -12 12q-4 3 -18 10t-18 8l-22 8q-19 7 -24 10v104q8 0 24 6l22 8q4 1 18 8q12 6 18 12q4 4 12 14q2 2 10 16q28 72 -128 156q-158 85 -374 164
q-221 81 -250 96q547 -982 748 -1400q124 36 292 168q-144 -168 -264 -228q76 -165 248 -588zM1034 1388q54 0 92 38t38 90t-38 90t-92 38t-92 -38t-38 -90t38 -90t92 -38z" />
</svg>