<svg xmlns="http://www.w3.org/2000/svg" xmlns:xlink="http://www.w3.org/1999/xlink" version="1.1" viewBox="-10 0 2068 2048">
   <path fill="currentColor"
d="M1480 44q299 0 496 164q-110 5 -212 40q146 55 248 164q-72 -12 -144 -12q180 260 180 580q0 424 -300 724t-724 300q-420 0 -722 -302t-302 -722q0 -136 36 -264q8 -33 24 -40q20 -12 28 20q24 85 60 164q-4 -155 116 -316q88 -115 108 -280q4 -24 24 -16
q104 32 164 184q60 150 52 320q-92 104 -92 240q0 196 124 344t304 214q181 66 368 50q-213 -29 -316 -144q-28 -31 -20 -48q5 -8 44 -8q208 0 356 -120t148 -290q0 -171 -148 -292q-149 -122 -356 -122q-183 0 -332 104q-24 -77 10 -166q35 -91 146 -134q48 -160 226 -248
q177 -88 406 -88zM1092 284q-13 0 -28 4q-24 7 -38 20q-14 12 -18 24l-4 8q2 2 10 12q7 8 30 20q24 12 48 0q24 -8 38 -26q14 -19 14 -30v-16q-16 -16 -52 -16zM1424 828q-218 255 -300 332q-113 116 -220 4l-296 -336h20l348 260q44 32 88 0l340 -260h20z" />
</svg>