<svg xmlns="http://www.w3.org/2000/svg" xmlns:xlink="http://www.w3.org/1999/xlink" version="1.1" viewBox="-10 0 2068 2048">
   <path fill="currentColor"
d="M1122 906q121 0 208 88q86 88 120 228q35 140 42.5 312.5t-28.5 337.5q-35 -171 -80 -282q-44 -110 -116 -186q-73 -79 -174 -84q-103 -7 -254 42q-149 49 -356 176q-206 126 -484 330q705 -958 1122 -962zM1110 176q-5 168 36 270q41 100 116 122q76 20 166 6
q91 -16 202 -80q122 -72 212 -136q98 -71 206 -166q-258 506 -580 636q-245 103 -370 -60q-155 -193 4 -576z" />
</svg>