<svg xmlns="http://www.w3.org/2000/svg" xmlns:xlink="http://www.w3.org/1999/xlink" version="1.1" viewBox="-10 0 2068 2048">
   <path fill="currentColor"
d="M0 1024q0 -426 299 -725t725 -299t725 299t299 725t-299 725t-725 299t-725 -299t-299 -725zM1156 701l-108 53l108 57v-110zM1156 676v-65q0 -1 4 -5v-4h4l52 -24l-192 -99l-262 132l262 135zM460 1323l270 131v-262l-270 -135v266zM712 897l-252 -127v267h4l12 4
l254 127v-254v-9h-4zM1000 754l-124 -62l-48 -24l-90 -45l-8 4l-254 127l250 127h4l8 4l12 -4zM1318 1454l266 -131v-266l-266 135v262zM1452 1053q-2 0 -2 -4l-128 -62v181l250 -127l-44 -25l-70 33q-4 4 -6 4zM1036 1336h-4v262l254 -127l12 -4v-13v-254l-250 127z
M1000 1327l-250 -127v267l12 4l254 127v-254v-8h-4zM1462 762v262l40 -20l14 -4l8 -4l204 -103v-266zM1318 901v62l124 61v-262l-124 -61l-8 -9l-12 -4l-62 -28l-8 -9l-12 -4l-40 -20v192l122 62l12 4l4 4h4v4l2 2l2 2zM1236 635l14 8l12 4l36 21l12 4l8 4l136 66l262 -131
l-262 -132l-192 95l-12 8l-14 4l-44 25zM1250 938l-14 8l-188 95l-12 8h-4v262l254 -127l12 -4v-12v-193v-12v-8v-41l-36 20zM1012 1049l-12 -8l-124 -62l-126 -65v266l12 4l118 61l136 66v-254v-8h-4zM1216 934l12 -8l8 -4l50 -25l-110 -53l-8 -8l-12 -4l-124 -62l-8 -4
l-8 4l-254 127l118 62l136 65l8 4l8 -4z" />
</svg>