<svg xmlns="http://www.w3.org/2000/svg" xmlns:xlink="http://www.w3.org/1999/xlink" version="1.1" viewBox="-10 0 2058 2048">
   <path fill="currentColor"
d="M448 0h640l768 768v1024q0 108 -74 182t-182 74h-1152q-108 0 -182 -74t-74 -182v-1536q0 -108 74 -182t182 -74zM1280 0h576v576zM674 832q-146 0 -250 102t-104 250q5 121 80 216q76 96 196 124l216 -376q24 -44 80 -44q37 0 68 40q30 38 60 88q4 -21 4 -48
q0 -148 -102 -250t-248 -102zM1200 1008q-36 0 -62 26t-26 62v288q32 58 72 128q48 84 60 108h396q36 0 62 -24t26 -60v-440q0 -36 -26 -62t-62 -26h-440zM1200 1096h440v440h-440v-440zM884 1208q-21 5 -28 20l-308 536q-12 20 0 42t36 22h616q24 0 36 -22t0 -42l-308 -536
q-17 -24 -44 -20z" />
</svg>