<svg xmlns="http://www.w3.org/2000/svg" xmlns:xlink="http://www.w3.org/1999/xlink" version="1.1" viewBox="-10 0 2058 2048">
   <path fill="currentColor"
d="M1754 0q90 0 154 64t64 154q0 91 -64 152q-65 62 -154 62t-154 -62q-64 -61 -64 -152q0 -90 64 -154t154 -64zM60 456h500q-60 60 -60 208v392l308 -388q92 -116 92 -176q0 -21 -4 -36h536q-62 37 -152 148q-30 30 -88 104l-400 500l480 660q37 51 112 136q18 18 52 44
h-548q4 -21 4 -44q0 -55 -80 -168l-308 -424v428q0 148 60 208h-504q40 -40 52 -96q8 -30 8 -112v-1176q0 -82 -8 -112q-12 -53 -52 -96zM1520 880l420 -4v984v64v20q0 6 2 14l4 12l4 12l4 12q1 5 6 10q4 11 12 22q1 1 7 9t9 13h-468l7 -10.5t7 -11.5t7 -11.5l7 -10.5
q5 -5 6 -10l4 -12q2 -8 2 -12t2 -12t2 -14q0 -9 4 -20v-64v-796v-64q-4 -11 -4 -20v-16l-3.5 -10.5t-4.5 -11.5t-4.5 -11.5l-3.5 -10.5q-4 -11 -12 -22q-5 -7 -16 -18z" />
</svg>