<svg xmlns="http://www.w3.org/2000/svg" xmlns:xlink="http://www.w3.org/1999/xlink" version="1.1" viewBox="-10 0 2064 2048">
   <path fill="currentColor"
d="M1652 916q-24 -128 -92 -232q-35 -51 -84 -100q-113 -113 -266 -156q-155 -44 -310 -8l-42 12q-14 4 -16 2q-1 -1 -42 -190q-41 -188 -36 -194q4 -6 6 -6q4 0 96 -22t98 -22q4 0 8 4t66 138t66 134q8 0 40 4q61 5 116 20l28 8l108 -104q104 -104 108 -104t152 88
q24 16 22 30q-1 9 -46 138q-48 139 -48 142q0 1 20 26q46 55 64 96l8 12h156q152 0 158 6t30 100q24 95 24 98q0 4 -6 8q-5 4 -192 46q-186 42 -188 42t-6 -16zM822 2024q-26 -7 -49.5 -13.5t-34.5 -9.5t-12 -3q-6 -2 -6 -10l48 -186q48 -186 52 -190q0 -4 32 8
q87 28 188 28t188 -28q157 -48 266 -168q110 -120 150 -280q5 -8 6 -8q5 0 184 40t186 40q2 2 8 10q4 5 -20 94q-28 108 -36 108q-6 4 -146 -4q-147 -8 -148 -8q-10 0 -22 20q-30 50 -76 96l-28 28l40 140q40 142 38 150q-1 6 -88 56q-86 50 -92 50q-5 0 -106 -116
l-100 -112l-16 4q-44 12 -108 12q-40 4 -42 6q-3 3 -74 132t-76 134q-4 4 -10 4t-96 -24zM272 1702q-72 -70 -72 -78t72 -118q73 -111 84 -122l8 -16l-16 -40q-32 -66 -48 -128l-4 -8l-28 -8q-252 -60 -260 -68q-4 -4 -4 -104v-100l8 -4q5 -8 148 -38l144 -30l12 -28
q20 -56 44 -100l12 -24l-80 -128q-80 -133 -80 -138q0 -6 72 -78t80 -72t152 132l144 132l-16 12q-105 90 -160 204q-108 220 -40 456q43 139 152 252l24 24l-112 120q-112 128 -134 150q-18 18 -22 18q-9 0 -80 -70z" />
</svg>