<svg xmlns="http://www.w3.org/2000/svg" xmlns:xlink="http://www.w3.org/1999/xlink" version="1.1" viewBox="-10 0 2068 2048">
   <path fill="currentColor"
d="M1024 0q424 0 724 300t300 724t-300 724t-724 300t-724 -300t-300 -724t300 -724t724 -300zM1024 56q-400 0 -684 284t-284 684t284 684t684 284t684 -284t284 -684t-284 -684t-684 -284zM972 368q79 0 156 16q47 13 80 28q12 -17 28 -24q23 -16 60 -16q36 0 68 24
q32 29 32 56v196q0 33 -28 52q-23 16 -60 16q-76 0 -92 -60l-4 -4q-5 -21 -18 -46q-14 -26 -74 -56t-152 -30q-121 0 -182 52q-62 53 -62 108q0 44 56 80q65 44 168 44q180 0 300 48q192 80 192 268q4 136 -132 224q-127 88 -332 88q-144 0 -280 -60v6v6q-5 21 -20 32
q-19 16 -76 16q-52 0 -80 -36q-19 -31 -24 -80v-208q0 -33 28 -52q25 -20 60 -20q39 0 68 20q32 20 32 52q0 52 64 104q80 68 204 68q127 0 212 -44q80 -41 80 -116q0 -76 -84 -116q-78 -32 -212 -32q-157 0 -272 -64q-156 -80 -156 -228q0 -156 160 -244q133 -68 292 -68z
M312 1204h44q20 5 20 24v264h1248q20 0 20 24v40q0 20 -20 20h-1308q-24 0 -24 -20l-4 -328q0 -19 20 -24h4z" />
</svg>