<svg xmlns="http://www.w3.org/2000/svg" xmlns:xlink="http://www.w3.org/1999/xlink" version="1.1" viewBox="-10 0 2058 2048">
   <path fill="currentColor"
d="M448 0h640l768 768v1024q0 103 -74 180q-73 76 -182 76h-1152q-108 0 -182 -74t-74 -182v-1536q0 -108 74 -182t182 -74zM1280 0h576v576zM364 796q-20 0 -32 12t-12 30t12 32t32 14h1320q20 0 32 -14q12 -13 12 -32q0 -18 -12 -30t-32 -12h-1320zM540 972q-20 0 -32 12
t-12 30t12 32t32 14h968q20 0 32 -14t12 -32t-12 -30t-32 -12h-968zM364 1324q-20 0 -32 12t-12 30t12 32t32 14t32 -14t12 -32t-12 -30t-32 -12zM540 1324q-20 0 -32 12t-12 30t12 32t32 14h352q20 0 32 -14q12 -13 12 -32q0 -18 -12 -30t-32 -12h-352zM1112 1324
q-36 0 -62 24t-26 64v352q0 36 26 62t62 26h528q36 0 62 -26t26 -62v-352q0 -40 -26 -64t-62 -24h-528zM1588 1412q24 -4 40 12q32 32 0 60l-208 208l-88 -88l-144 144q-32 32 -64 2t0 -62l208 -208l88 88l144 -144q12 -12 24 -12zM364 1500q-20 0 -32 12t-12 30t12 32
t32 14t32 -14t12 -32t-12 -30t-32 -12zM540 1500q-20 0 -32 12t-12 30t12 32t32 14h352q20 0 32 -14t12 -32t-12 -30t-32 -12h-352zM364 1676q-20 0 -32 12t-12 30t12 32t32 14t32 -14t12 -32t-12 -30t-32 -12zM540 1676q-20 0 -32 12t-12 30t12 32t32 14h352q20 0 32 -14
t12 -32t-12 -30t-32 -12h-352z" />
</svg>