<svg xmlns="http://www.w3.org/2000/svg" xmlns:xlink="http://www.w3.org/1999/xlink" version="1.1" viewBox="-10 0 2068 2048">
   <path fill="currentColor"
d="M1189 2031h-4q-235 40 -472 -32q-234 -72 -412 -249q-301 -301 -301 -724t301 -724q295 -298 719 -299q428 -2 724 295q180 175 255 412q75 234 34 477q-7 43 -44 68q-35 24 -81 16l-128 -36q-36 -12 -56 -42q-21 -33 -17 -67q24 -159 -26 -317q-49 -156 -166 -273
q-205 -205 -493 -205q-287 0 -492 205q-201 201 -201 486q0 286 205 494q119 114 272 163q156 50 319 26q35 -5 66 16q30 19 42 57l37 128q13 44 -11.5 80.5t-69.5 44.5zM880 1114q-28 -28 -28 -68t28 -68l96 -97q28 -28 69 -28t72 28l695 700q32 29 32 68q0 40 -32 72
l-92 93q-28 28 -71 28q-42 0 -70 -28z" />
</svg>