<svg xmlns="http://www.w3.org/2000/svg" xmlns:xlink="http://www.w3.org/1999/xlink" version="1.1" viewBox="-10 0 2068 2048">
   <path fill="currentColor"
d="M1024 0q424 0 724 300t300 724t-300 724t-724 300t-724 -300t-300 -724t300 -724t724 -300zM772 244q-12 0 -12 16v752h-504q-16 0 -16 14t16 14h752v752q0 16 14 16t14 -16v-752h752q12 0 12 -14t-12 -14h-508v-752q0 -16 -16 -16t-16 16v752h-456v-752q0 -16 -12 -16
h-8zM1016 580q-40 -4 -74 18t-34 58q-4 28 12 54q17 27 40 34q12 4 60 18q46 13 64 34q20 25 4 54q-16 30 -48 30q-40 7 -74 -16q-33 -23 -38 -64q-13 -8 -26 -2t-6 22v42v42q19 16 48 -20q40 28 88 28t84 -24q44 -28 36 -84q-7 -55 -56 -72q-15 -10 -58 -22
q-46 -14 -66 -30q-24 -28 0 -54t60 -14q29 0 52 22q24 22 24 50q12 8 24 2t8 -22v-38q0 -35 -4 -42q-13 -8 -30 8q-18 16 -30 4q-28 -16 -60 -16zM1368 584q-16 4 -4 28q5 8 12 4q19 -4 28 4q8 8 4 24v112v112q-8 8 -22 6q-16 -2 -22 2q-8 17 2 24q11 8 26 4h64h60
q12 -12 4 -26t-24 -6q-16 4 -24 -2q-8 -7 -4 -22q0 -2 -0.5 -7t-1 -15t-0.5 -18q-2 -32 2 -36q11 -4 52 -4q39 0 60 -8q48 -12 60 -66t-24 -86q-18 -15 -44 -20q-21 -4 -68 -4h-48h-44h-44zM396 584q-15 4 -8 28q5 8 16 4q32 8 32 16v120v116q-4 7 -16 6t-22 0t-10 14
q-4 11 4 16q7 4 24 4h12q6 -4 88 -2t88 -2q37 -5 62 -24q26 -20 26 -52q8 -36 -18 -60q-25 -23 -62 -28q22 -5 46 -26q26 -23 22 -50q0 -33 -24 -52t-56 -24q-7 -4 -90 -4h-90h-12h-12zM1528 616q28 0 42 24t2 52q0 24 -20 36t-44 8h-20q-17 0 -22 -4q-6 -5 -2 -16v-48v-48
q0 -4 24 -4h24h8h8zM572 616q24 0 40 24q16 23 8 48q-8 41 -76 36h-24q-24 0 -24 -4q0 -19 -4 -100q7 -4 16 -4h16h16h24h8zM572 756q27 0 44 26q16 25 8 50q-12 48 -80 40h-24h-28q-4 -4 -2 -38q0 -10 0.5 -19t1 -13.5t0.5 -5.5l-2 -16q-2 -17 2 -22q5 -6 16 -2h56h8z
M816 1160h-48h-44q-8 20 16 32q4 4 8 4q0 6 -2 16q-1 7 -8 20q-6 12 -6 16q-3 5 -10 24t-10 24q-4 8 -8 4q-10 -22 -20 -52t-20 -56q20 5 28 -8q8 -12 -4 -24h-50h-54q-16 27 28 32q58 164 64 184q40 7 40 -16q11 -25 24 -56l24 -60q15 39 16 42q7 20 18 46q8 19 14 40
q17 8 30 2q14 -6 14 -26q52 -142 56 -156l12 -2q11 -1 16 -6q4 -4 0 -16q0 -8 -8 -10t-18 0q-14 2 -18 2h-22h-22q-12 28 28 32q-22 65 -44 120q-4 -20 -18 -60t-18 -60q16 4 22 -10t-6 -22zM1212 1160h-14h-10h-32h-28q-8 0 -8 10q0 11 4 16q5 6 16 2q8 0 10 8t0 20t2 16
q-4 11 -4 50q0 41 -4 62h-8h-14q-6 0 -10 6t0 18q0 4 8 6t16 0q10 -2 16 2q4 -4 28 -2t28 -2q8 -12 2 -22t-18 -6q-12 0 -14 -6t0 -20q0 -3 0.5 -7.5t1 -7t0.5 -3.5v-44q0 -35 4 -52q12 32 30 90q16 52 26 78q48 19 48 -16q35 -107 48 -148q0 47 4 132q-4 4 -14 4
q-11 0 -16 4q-6 5 -2 12q-5 12 2 14q6 2 18 0q2 0 5 -0.5t5 -1t3.5 -0.5h2.5q2 0 7.5 0.5t15.5 1t19 0.5q35 2 38 -2q4 -11 -2 -22q-6 -10 -18 -6q-8 0 -10 -8q-2 -10 -2 -16v-16q0 -4 -0.5 -10.5t-1 -19t-0.5 -22.5q-2 -54 -2 -60q15 0 26 -8q10 -7 -2 -24h-88q-8 8 -14 28
l-6 20q-8 18 -18 46q-7 19 -14 46q-12 -23 -24 -68q-11 -41 -20 -60q0 -12 -16 -12z" />
</svg>