<svg xmlns="http://www.w3.org/2000/svg" xmlns:xlink="http://www.w3.org/1999/xlink" version="1.1" viewBox="-10 0 2068 2048">
   <path fill="currentColor"
d="M1062 778h210v214h105q74 0 146 -24q32 -10 72 -34q-44 -50 -48 -132q-12 -130 48 -202l25 -28l24 24q116 92 133 210q133 -41 243 24l28 16l-16 28q-81 158 -303 146q-133 330 -410 498q-276 168 -644 168q-421 0 -602 -314h-4l-16 -42q-66 -142 -49 -306v-32h182v-214
h210v-210h416v-206h250v416zM372 826h16v154h-16v-154zM343 826h16v154h-16v-154zM315 826h16v154h-16v-154zM291 826h12v154h-12v-154zM263 826h12v154h-12v-154zM234 826h16v154h-16v-154zM218 814v182h182v-182h-182zM582 620h12v150h-12v-150zM553 620h17v150h-17v-150z
M525 620h16v150h-16v-150zM497 620h16v150h-16v-150zM473 620h12v150h-12v-150zM444 620h12v150h-12v-150zM428 604v182h182v-182h-182zM582 826h12v154h-12v-154zM553 826h17v154h-17v-154zM525 826h16v154h-16v-154zM497 826h16v154h-16v-154zM473 826h12v154h-12v-154z
M444 826h12v154h-12v-154zM428 814v182h182v-182h-182zM792 826h12v154h-12v-154zM763 826h13v154h-13v-154zM735 826h16v154h-16v-154zM707 826h16v154h-16v-154zM679 826h16v154h-16v-154zM654 826h12v154h-12v-154zM638 814v182h182v-182h-182zM792 620h12v150h-12v-150z
M763 620h13v150h-13v-150zM735 620h16v150h-16v-150zM707 620h16v150h-16v-150zM679 620h16v150h-16v-150zM654 620h12v150h-12v-150zM638 604v182h182v-182h-182zM998 826h16v154h-16v-154zM973 826h13v154h-13v-154zM945 826h12v154h-12v-154zM917 826h16v154h-16v-154z
M889 826h16v154h-16v-154zM864 826h12v154h-12v-154zM848 814v182h182v-182h-182zM998 620h16v150h-16v-150zM973 620h13v150h-13v-150zM945 620h12v150h-12v-150zM917 620h16v150h-16v-150zM889 620h16v150h-16v-150zM864 620h12v150h-12v-150zM848 604v182h182v-182h-182z
M998 410h16v150h-16v-150zM973 410h13v150h-13v-150zM945 410h12v150h-12v-150zM917 410h16v150h-16v-150zM889 410h16v150h-16v-150zM864 410h12v150h-12v-150zM848 394v182h182v-182h-182zM1208 826h16v154h-16v-154zM1179 826h17v154h-17v-154zM1155 826h12v154h-12v-154
zM1127 826h12v154h-12v-154zM1099 826h16v154h-16v-154zM1070 826h17v154h-17v-154zM1058 814v182h178v-182h-178zM598 1286q-22 0 -35 16q-14 18 -14 36q0 22 14 36t35 14q19 0 36 -14q16 -14 16 -36q0 -20 -16 -36t-36 -16zM598 1302q8 0 12 4q-4 4 -4 12q0 12 12 12
q7 0 12 -8q4 7 4 16q0 38 -36 38q-37 0 -37 -38q0 -36 37 -36zM731 1650q-166 -81 -230 -226q-74 20 -166 24h-77h-96q202 198 513 202h56z" />
</svg>