<svg xmlns="http://www.w3.org/2000/svg" xmlns:xlink="http://www.w3.org/1999/xlink" version="1.1" viewBox="-10 0 2068 2048">
   <path fill="currentColor"
d="M504 534v4q40 0 76 4q265 41 444 308q179 -267 444 -308q32 -4 76 -4q208 0 356 142t148 346q0 196 -148 340t-356 144q-37 4 -76 -4q-269 -36 -444 -304q-180 268 -444 304q-38 8 -76 8q-208 0 -356 -144t-148 -348q0 -200 148 -344t356 -144zM504 710q-140 0 -238 92
t-98 222t98 222t234 92q27 0 52 -4q225 -36 376 -312q-33 -63 -68 -112q-40 -56 -126 -120q-84 -64 -178 -76q-26 -8 -52 -4zM1540 710q-26 -4 -52 4q-221 29 -372 308q33 64 68 112q40 56 126 120q84 63 182 80q21 4 52 4q136 0 234 -92t98 -222t-98 -222t-238 -92z
M1476 870h100v104h100v96h-100v108h-100v-108h-100v-96h100v-104zM360 974h300v96h-300v-96z" />
</svg>