<svg xmlns="http://www.w3.org/2000/svg" xmlns:xlink="http://www.w3.org/1999/xlink" version="1.1" viewBox="-10 0 2068 2048">
   <path fill="currentColor"
d="M57 66q28 0 68 28q68 44 363 231q-85 73 -152 168q-67 -69 -139.5 -143.5t-106 -109.5t-45.5 -47q-67 -60 -32 -107q17 -20 44 -20zM1106 102q206 0 381 77q176 78 297 206q120 127 190 295q68 163 73 343q5 179 -65 356q-70 180 -214 323q-142 143 -323 213
q-180 71 -355 66q-177 -4 -343 -74q-170 -71 -295 -189q-128 -120 -206 -298q-77 -174 -77 -381q0 -298 171 -538q233 241 327 347q88 103 220 187q131 84 235 76q196 143 235 164q0 37 12 68q12 36 46 83q35 48 54.5 78t30 78t-30.5 84q134 -76 181 -200q46 -122 -14 -223
q-67 -127 -175 -96q-41 -49 -219 -203q-19 -97 -126 -206q-102 -103 -221 -170q-109 -63 -395 -239q258 -227 606 -227zM1234 964l211 183q-72 48 -96 104q-50 -32 -203 -148q-12 -7 -4 -28q7 -27 42 -68q33 -38 50 -43zM260 1115h-4q36 224 180 401q145 178 363 254
q120 48 293 42t301 -86q36 -40 28 -88t-30 -80q-40 -56 -58 -80q-37 -48 -48 -83q-8 -30 -8 -60q-146 103 -295 133q-146 30 -261 -2q-117 -32 -213 -95q-103 -66 -160 -130q-59 -64 -88 -126z" />
</svg>