<svg xmlns="http://www.w3.org/2000/svg" xmlns:xlink="http://www.w3.org/1999/xlink" version="1.1" viewBox="-10 0 2068 2048">
   <path fill="currentColor"
d="M1024 0q424 0 724 300t300 724t-300 724t-724 300h-788h-4q-96 0 -164 -68t-68 -164v-792q0 -424 300 -724t724 -300zM1036 72h-40q-130 5 -248 40q-183 55 -332 180q-155 126 -244 308q-72 140 -92 292q-8 69 -8 136v162v158v472q5 81 68 128q43 28 96 28h496h316
q218 -5 408 -104q174 -89 300 -236q121 -145 176 -324q44 -150 44 -300q-5 -167 -56 -312q-64 -180 -192 -318q-128 -139 -300 -218q-126 -61 -264 -80q-65 -12 -128 -12zM1232 420q131 0 232 92q100 91 100 224v52q-5 36 -32 58q-28 22 -66 18q-39 -5 -58 -34
q-20 -30 -12 -66v-28q0 -72 -48 -108t-116 -36q-59 0 -106 44q-46 43 -46 100v260h148q56 0 78 42q23 42 0 86t-78 44h-148v56v36v152q-16 144 -124 244q-107 100 -256 100q-155 0 -268 -110q-112 -109 -112 -266q8 -165 120 -274q113 -110 276 -110h120v172h-120h-4
q-93 5 -156 62q-64 58 -64 150q0 84 62 146t146 62q89 0 148 -58q60 -58 60 -150v-644q0 -21 4 -36q12 -121 106 -200q95 -80 214 -80z" />
</svg>