<svg xmlns="http://www.w3.org/2000/svg" xmlns:xlink="http://www.w3.org/1999/xlink" version="1.1" viewBox="-10 0 2058 2048">
   <path fill="currentColor"
d="M876 792q-48 0 -82 -34t-34 -82t34 -82t82 -34t82 34t34 82t-34 82t-82 34zM1188 708q-44 0 -76 -32t-32 -76t32 -76t78 -32t76 32t30 76t-30 76t-78 32zM1100 400q0 40 -28 68t-68 28t-68 -28t-28 -68q0 -41 28 -70q28 -30 68 -30t68 30q28 29 28 70zM1248 236
q0 36 -26 62t-64 26t-64 -26t-26 -62t26 -62t64 -26t64 26t26 62zM1048 76q0 32 -24 56t-56 24t-54 -24q-22 -23 -22 -56q0 -32 22 -54t54 -22q33 0 56 22q24 22 24 54zM552 896q60 -60 144 -8q163 88 328 88q96 0 162 -18q68 -18 162 -70q79 -52 140 8q188 241 188 452
q0 288 -192 494t-462 206q-269 0 -460 -206q-190 -205 -190 -494q0 -216 180 -452zM640 1004q-144 204 -144 344q0 236 156 400t372 164q212 0 364 -164t152 -400q0 -157 -136 -344q-188 104 -380 104q-191 0 -384 -104z" />
</svg>