<svg xmlns="http://www.w3.org/2000/svg" xmlns:xlink="http://www.w3.org/1999/xlink" version="1.1" viewBox="-10 0 2068 2048">
   <path fill="currentColor"
d="M1024 0q424 0 724 300t300 724t-300 724t-724 300t-724 -300t-300 -724t300 -724t724 -300zM1024 84q-388 0 -664 276t-276 664q0 268 140 492q155 -19 304 -72q-28 -28 -48 -60q-104 -149 -116 -332q-16 -170 52 -340q67 -167 196 -296q162 -165 344 -196q105 -20 200 4
q102 29 168 104q73 73 92 180q20 96 0 204q-41 173 -200 356q-205 241 -484 392q106 57 228 64q149 8 308 -64q126 -55 260 -172q252 -220 400 -520q-84 -300 -334 -492t-570 -192zM1028 276q-97 0 -188 52q-151 79 -260 292q-83 167 -100 320q-16 186 64 332q41 73 104 124
q34 -13 56 -28q296 -144 488 -392q124 -168 144 -324q8 -94 -20 -176q-31 -86 -100 -140q-80 -60 -188 -60zM1952 900q-133 248 -340 444q-196 180 -396 252q-247 84 -464 4q-75 -31 -144 -80q-147 64 -308 100q132 160 320 252q189 92 404 92q388 0 662 -276
q274 -275 274 -664q0 -60 -8 -124z" />
</svg>