<svg xmlns="http://www.w3.org/2000/svg" xmlns:xlink="http://www.w3.org/1999/xlink" version="1.1" viewBox="-10 0 2068 2048">
   <path fill="currentColor"
d="M1024 0q424 0 724 300t300 724t-300 724t-724 300h-788h-4q-96 0 -164 -68t-68 -164v-792q0 -424 300 -724t724 -300zM1232 420q-119 0 -214 80q-94 79 -106 200q-4 15 -4 36v644q0 92 -60 150q-59 58 -148 58q-84 0 -146 -62t-62 -146q0 -92 64 -150q63 -57 156 -62h4
h120v-172h-120q-163 0 -276 110q-112 109 -120 274q0 157 112 266q113 110 268 110q149 0 256 -100q108 -100 124 -244v-152v-36v-56h148q55 0 78 -44t0 -86q-22 -42 -78 -42h-148v-130v-130q0 -57 46 -100q47 -44 106 -44q68 0 116 36t48 108v28q-8 36 12 66q19 29 58 34
q38 4 66 -18q27 -22 32 -58v-52q0 -133 -100 -224q-101 -92 -232 -92z" />
</svg>