<svg xmlns="http://www.w3.org/2000/svg" xmlns:xlink="http://www.w3.org/1999/xlink" version="1.1" viewBox="-11 0 2069 2048">
   <path fill="currentColor"
d="M105 14q118 0 349 123q-204 128 -331 335q-182 -344 -95 -431q23 -27 77 -27zM1024 32q238 0 448 109q-16 9 -31.5 18t-31.5 18q-90 -27 -131 14q-49 49 0 172q49 122 169 242t243 170q122 50 172 0q36 -36 18 -113q19 -37 41 -73q104 210 104 444q0 414 -292 707
q-292 294 -707 294q-414 0 -708 -294t-294 -709q0 -413 294 -706q295 -293 706 -293zM2020 41q73 73 -47 329q-119 254 -193 328q-36 36 -124 2q-90 -35 -175 -120q-85 -86 -120 -174q-34 -88 3 -125q73 -72 328 -192q256 -120 328 -48z" />
</svg>