<svg xmlns="http://www.w3.org/2000/svg" xmlns:xlink="http://www.w3.org/1999/xlink" version="1.1" viewBox="-10 0 2068 2048">
   <path fill="currentColor"
d="M361 390l-4 4h56l513 28l288 8v358l-8 -4l-32 -16l-48 -24q-28 -17 -60 -4q-32 11 -48 44l-201 412q-17 32 -4 64q11 31 45 48l412 198q31 16 64 4q32 -13 48 -40l197 -418q16 -27 4 -60q-8 -28 -40 -48q-47 -28 -106 -56q-74 -36 -119 -52l-48 -24v-382q53 0 128 -4
l582 -24q20 0 32 12q36 36 36 142q0 160 -44 352q-42 179 -89 292l-44 108q-23 45 -48 88q-25 50 -50 86q-8 10 -15.5 20.5t-14 19t-8.5 12.5l-12 12q-40 47 -88 76q-8 8 -20 14l-20 10q-7 4 -16 6q-10 2 -14 2t-12 2l-6 2h-4h-613q-105 -13 -249 -204q-27 -34 -52 -84
q-32 -61 -36 -70l-12 -28q-42 0 -94 -4q-58 -4 -184 -48q-126 -43 -191 -124q-85 -96 -104 -240q-36 -245 104 -370q66 -63 177 -88q38 -8 72 -8zM401 548q-57 0 -100 12q-45 7 -77 34q-33 26 -40 42l-12 20q-49 88 4 232q17 43 38 72q24 34 42 44l16 16q35 31 121 60
l140 28q-61 -157 -80 -252q-16 -46 -28 -126l-20 -130zM1222 808q18 13 36 20q-44 95 -44 96q7 7 12 20l4 24q49 21 96 48q32 21 40 56q8 38 -8 68q-35 83 -44 100q-10 20 -20 36q32 37 4 76q-29 41 -72 16q-45 -24 -28 -68q12 -44 56 -44q52 -103 60 -132l8 -48l-16 -16
q-2 -2 -12 -8q-16 -9 -42 -21.5t-42 -22.5q-12 8 -24 12q-7 4 -20 4l-80 160q36 32 8 74q-29 42 -76 18q-41 -23 -28.5 -67.5t56.5 -44.5l80 -164q-24 -28 -4 -64q16 -32 52 -32q7 -21 20 -44q23 -44 28 -52z" />
</svg>