<svg xmlns="http://www.w3.org/2000/svg" xmlns:xlink="http://www.w3.org/1999/xlink" version="1.1" viewBox="-10 0 2068 2048">
   <path fill="currentColor"
d="M1022 2q426 0 726 300q300 299 300 722q0 329 -194 595l-234 -230q104 -170 104 -365q0 -292 -205 -497t-497 -205q-192 0 -362 103l-232 -230q266 -193 594 -193zM1620 1853q-266 193 -598 193q-422 0 -722 -300q-300 -299 -300 -722q0 -328 194 -599l234 234
q-104 170 -104 365q0 292 205 497t493 205q196 0 366 -103zM698 1024q0 -135 96 -230q96 -94 230 -94t230 94q96 95 96 230t-96 230q-96 94 -230 94t-230 -94q-96 -95 -96 -230z" />
</svg>