<svg xmlns="http://www.w3.org/2000/svg" xmlns:xlink="http://www.w3.org/1999/xlink" version="1.1" viewBox="-10 0 2068 2048">
   <path fill="currentColor"
d="M66 404v4q30 54 62 90q61 70 150 90q95 17 202 0q93 -16 146 -4q108 22 152 131q157 431 246 680q218 -604 234 -647q21 -67 52 -103q70 -73 180 -69q15 4 66 10q46 6 70 6q134 5 200 -24q87 -38 156 -164q34 14 36 14q23 10 30 10q-24 59 -46 95q-78 152 -172 204
q-98 53 -262 45h-4t-9 -0.5t-11 -1.5q-21 -1 -24 2q-37 24 -78 103q-44 92 -128 348q-111 343 -142 418h-142h-142q-7 5 -12 0q-4 -4 -6 -13q-2 -10 -2 -12q-20 -49 -156 -459q-74 -220 -118 -303q-38 -70 -74 -86q-93 12 -176 0q-126 -16 -208 -106q-74 -78 -136 -234
q22 -7 66 -24z" />
</svg>