<svg xmlns="http://www.w3.org/2000/svg" xmlns:xlink="http://www.w3.org/1999/xlink" version="1.1" viewBox="-10 0 2068 2048">
   <path fill="currentColor"
d="M1008 0h1040v2048h-440q-42 -121 -104 -212q-57 -82 -168 -178q-117 -101 -212 -158q-12 -8 -35.5 -23t-32.5 -21q-26 -18 -64 -46q-39 -29 -58 -54q-16 -22 -34 -54q-16 -30 -12 -64q5 -35 28 -66q52 -76 180 -136t204 -120q136 -108 154 -310t-82 -326
q-58 -74 -150 -146q-90 -70 -150 -102zM0 152q571 31 784 116q164 68 232 128q68 61 80 172q5 44 -12 82t-58 72q-43 35 -76 54q-52 29 -98 54q-64 34 -92 46q-87 51 -164 144q-56 66 -74 158q-18 94 18 182q19 41 50 98q23 42 44 70q36 48 56 76q12 16 31.5 43t26.5 37
q108 152 -60 364h-688v-1896z" />
</svg>