<svg xmlns="http://www.w3.org/2000/svg" xmlns:xlink="http://www.w3.org/1999/xlink" version="1.1" viewBox="-10 0 2068 2048">
   <path fill="currentColor"
d="M1501 41q120 0 205 85t85 206q0 120 -85 205t-205 85q-121 0 -206 -85t-85 -205q0 -121 85 -206t206 -85zM1103 71h69q-62 78 -82 171l-8 68q-172 0 -323 81q-149 80 -245 223q-66 -40 -137 -56q-38 -8 -85 -8h-22q125 -224 350 -353q226 -131 483 -126zM1889 494
q218 334 137 727q-47 216 -184 389q-35 -129 -141 -214q64 -106 90 -227q55 -253 -64 -483q111 -70 162 -192zM1842 1610zM292 678q120 0 205 85t85 205q0 121 -85 206t-205 85q-121 0 -206 -85t-85 -206q0 -120 85 -205t206 -85zM462 1349q157 298 483 367q34 8 73 13
q4 134 85 244q-103 0 -205 -21q-233 -50 -414 -203q-178 -150 -269 -370q127 25 247 -30zM1436 1426q120 0 205 85q86 86 86 208q0 121 -86 205q-85 83 -205.5 83t-204.5 -83q-85 -84 -85 -205q0 -123 85 -208t205 -85z" />
</svg>