<svg xmlns="http://www.w3.org/2000/svg" xmlns:xlink="http://www.w3.org/1999/xlink" version="1.1" viewBox="-10 0 2068 2048">
   <path fill="currentColor"
d="M980 0h96q365 24 624 256q157 138 248 328q93 194 100 400v92q-24 364 -252 624q-137 157 -326 246q-191 90 -398 102h-92q-369 -17 -636 -260q-153 -133 -242 -322q-90 -191 -102 -394v-92q7 -206 98 -398q90 -190 246 -322q267 -243 636 -260zM1256 540q-151 0 -248 68
q-71 52 -172 180q-105 133 -148 172q-77 84 -204 44q-120 -41 -156 -164q-41 212 24 376q76 188 252 300q279 172 608 92q223 -55 372 -212q148 -196 136 -416q40 -25 88 -52q-70 -23 -100 -36q-17 -128 -88 -204q-103 -120 -304 -144q-25 -4 -60 -4zM800 1052
q36 -61 108 -68q61 -8 108 38t40 106q-29 101 -104 120q-42 9 -76 10q-44 2 -92 -8q-14 -3 -30 -6t-26 -5t-16 -3q-23 -5 -92 -24l-72 -20q185 -29 252 -140zM1412 764q29 0 48 16h-12q-24 0 -24 20t22 20t22 -20v-8q12 16 12 36q0 28 -20 48t-48 20t-46 -20t-18 -48t18 -46
t46 -18z" />
</svg>