<svg xmlns="http://www.w3.org/2000/svg" xmlns:xlink="http://www.w3.org/1999/xlink" version="1.1" viewBox="-10 0 2058 2048">
   <path fill="currentColor"
d="M448 0h640l768 768v1024q0 108 -74 182t-182 74h-1152q-108 0 -182 -74t-74 -182v-1536q0 -108 74 -182t182 -74zM1280 0h576v576zM364 792q-20 0 -32 12t-12 32t12 32t32 12h528q20 0 32 -12t12 -32t-12 -32t-32 -12h-528zM1200 792q-36 0 -62 26t-26 62v264q0 36 26 62
t62 26h440q36 0 62 -26t26 -62v-264q0 -36 -26 -62t-62 -26h-440zM1596 880q44 0 44 44t-44 44t-44 -44t44 -44zM1316 928q20 0 36 16l200 200h-352l60 -180q12 -36 52 -36h4zM364 968q-20 0 -32 12t-12 32t12 32t32 12h528q20 0 32 -12t12 -32t-12 -32t-32 -12h-528z
M364 1144q-20 0 -32 12t-12 32t12 32t32 12h528q20 0 32 -12t12 -32t-12 -32t-32 -12h-528zM364 1408q-20 0 -32 12t-12 32t12 32t32 12h1320q20 0 32 -12t12 -32t-12 -32t-32 -12h-1320zM364 1584q-20 0 -32 12t-12 32t12 32t32 12h1320q20 0 32 -12t12 -32t-12 -32
t-32 -12h-1320zM364 1760q-20 0 -32 12t-12 32t12 32t32 12h528q20 0 32 -12t12 -32t-12 -32t-32 -12h-528z" />
</svg>