<svg xmlns="http://www.w3.org/2000/svg" xmlns:xlink="http://www.w3.org/1999/xlink" version="1.1" viewBox="-10 0 2058 2048">
   <path fill="currentColor"
d="M1020 0h4q28 0 48 20l728 724q16 19 16 48t-16 48q-52 47 -122 120q-49 51 -234 236l-266 266l-106 106q-19 16 -48 16q-28 0 -44 -16l-728 -728q-20 -20 -20 -48t20 -48l120 -120q129 -129 236 -234t266 -264l106 -106q17 -20 40 -20zM1024 160l-632 632l632 636
l636 -636zM232 1188h68q24 0 44 20l680 680l680 -680q20 -20 48 -20h64v64v4q0 28 -16 44q-73 73 -122 124q-74 76 -234 234q-107 105 -266 264l-106 106q-20 20 -48 20q-27 0 -44 -20l-728 -728q-20 -17 -20 -44v-68z" />
</svg>