<svg xmlns="http://www.w3.org/2000/svg" xmlns:xlink="http://www.w3.org/1999/xlink" version="1.1" viewBox="-10 0 2068 2048">
   <path fill="currentColor"
d="M1024 1860q348 0 592 -246q244 -245 244 -592q0 -346 -246 -590q-245 -244 -590 -244v124q296 0 504 208t208 504q0 293 -208 502q-208 210 -504 210v124zM1024 1424v128q217 -5 370 -158q154 -154 154 -370q0 -219 -152 -374q-151 -154 -372 -154v124q169 0 284 118
q116 119 116 284t-116 284q-115 118 -284 118zM1024 808v432q88 0 152 -64t64 -152t-64 -152t-152 -64zM0 1022q0 -426 300 -724q299 -298 724 -298t724 298q300 298 300 724t-300 726t-724 300t-724 -300t-300 -726z" />
</svg>