<svg xmlns="http://www.w3.org/2000/svg" xmlns:xlink="http://www.w3.org/1999/xlink" version="1.1" viewBox="-10 0 2068 2048">
   <path fill="currentColor"
d="M2036 982l-252 -44q-8 -5 -12 -16l-80 -180q-5 -7 4 -16l144 -216q8 -8 0 -16l-184 -184q-8 -8 -16 0l-216 148q-12 8 -20 0l-176 -68q-12 -4 -12 -16l-48 -260q-5 -12 -16 -12h-256q-12 0 -16 12l-48 260q0 12 -12 16l-176 68q-8 8 -16 0l-220 -148q-8 -8 -16 0
l-184 184q-8 8 0 16l144 216q8 9 4 16l-80 180q-4 11 -12 16l-252 44q-12 5 -12 16v256q0 12 12 16l244 44q11 4 16 12l76 192q4 12 -4 20l-136 204q-8 8 0 16l184 184q8 8 16 0l200 -136q8 -4 20 0l88 48q7 5 12 -8l184 -436q5 -12 -8 -20l-20 -12q-10 -6 -16 -12
q-132 -84 -132 -240q0 -116 84 -200t202 -84q119 0 202 82q84 83 84 202q0 156 -132 240q-4 8 -12 12l-24 12q-8 8 -4 20l180 436q5 12 16 8l88 -48q8 -4 20 0l200 136q8 8 16 0l184 -184q8 -8 0 -16l-140 -204q-5 -8 0 -20l76 -192q5 -8 16 -12l244 -44q12 -4 12 -16v-256
q0 -11 -12 -16z" />
</svg>