<svg xmlns="http://www.w3.org/2000/svg" xmlns:xlink="http://www.w3.org/1999/xlink" version="1.1" viewBox="-10 0 2058 2048">
   <path fill="currentColor"
d="M1028 0q140 0 240 100t100 240t-100 240t-240 100t-240 -100t-100 -240t100 -240t240 -100zM1700 292q20 16 36 36q296 293 296 710q0 418 -296 714q-293 296 -712 296q-416 0 -712 -296q-296 -293 -296 -712t296 -712q16 -20 36 -36l176 176l-36 36q-224 224 -224 536
q0 315 224 536q224 224 536 224q316 0 540 -224q220 -223 220 -536q0 -316 -220 -536q-19 -19 -40 -36zM1424 568h4q220 184 220 472q0 231 -152 404q-151 172 -376 208v-772h-4q139 -143 308 -312zM628 568l312 312v772q-223 -31 -378 -206q-154 -173 -154 -406
q0 -288 220 -472z" />
</svg>