<svg xmlns="http://www.w3.org/2000/svg" xmlns:xlink="http://www.w3.org/1999/xlink" version="1.1" viewBox="-10 0 2068 2048">
   <path fill="currentColor"
d="M1244 332q-5 -28 -16 -32q-12 -4 -28 20l-232 364q-36 51 -104 44l-424 -68q-25 -5 -32 8q-8 13 8 32l272 332q43 52 12 112l-196 380q-12 24 -2 34q9 9 34 2l400 -156q64 -24 108 24l304 304q20 20 32 14t12 -34l-24 -428q-5 -64 56 -96l384 -192q23 -12 22 -26
q-2 -15 -30 -22l-416 -112q-24 -5 -46 -28t-26 -52zM1948 808l-72 136zM1948 808l-72 136zM1948 808q-20 0 -28 8l-24 52q-24 40 -28 50q-4 9 8 26q20 0 28 -8l24 -48q6 -13 12.5 -25t10 -18.5t5.5 -8.5q4 -8 -8 -28zM2048 968h-160h160zM2048 968h-160h160zM2048 968
q-13 -20 -20 -20h-60h-58q-10 0 -22 20q12 20 24 20h56h58q9 0 22 -20zM1960 1124l-84 -132zM1960 1124l-84 -132zM1960 1124q12 -21 8 -28l-32 -48q-24 -41 -30 -48q-7 -8 -30 -8q-9 21 -4 28l32 48q25 47 30 52q6 8 26 4zM1776 1128l76 -136zM1776 1128l76 -136z
M1776 1128q23 0 28 -8l28 -52q7 -12 13 -23t10 -17t5 -8q4 -8 -8 -28q-24 0 -28 8l-28 52q-7 12 -13.5 22.5t-10 17t-4.5 8.5q-5 7 8 28zM1836 968zM1764 812l84 136zM1764 812l84 136zM1764 812q-13 20 -4 28l28 48q9 14 32 52q4 8 28 8q12 -20 8 -32l-32 -48
q-24 -41 -30 -48q-7 -8 -30 -8zM208 640q-180 204 -204 476q-12 147 20 294q31 147 120 238q251 268 864 -176q18 -12 54 -50q34 -38 54 -54q-596 432 -864 176q-157 -149 -140 -512q7 -276 204 -496q-20 23 -54.5 52t-53.5 52z" />
</svg>