<svg xmlns="http://www.w3.org/2000/svg" xmlns:xlink="http://www.w3.org/1999/xlink" version="1.1" viewBox="-10 0 2068 2048">
   <path fill="currentColor"
d="M0 34q535 79 950 200q418 121 642 246q229 128 340 250q111 121 115 228q5 142 -174 304q-177 160 -434 286q-258 128 -514 232q-267 108 -438 160l-181 58q-12 6 -19 6q-2 1 -8.5 2t-16.5 3t-21 3q-35 6 -65 -6q-90 -20 -142 -100q-54 -97 8 -202q52 -85 155 -96
q52 -15 115 -30q41 -9 273 -72q205 -55 369 -114q178 -65 350 -156q179 -93 273 -190q93 -96 82 -220q-10 -121 -168 -242q-157 -122 -533 -264q-383 -146 -958 -286zM0 34z" />
</svg>