<svg xmlns="http://www.w3.org/2000/svg" xmlns:xlink="http://www.w3.org/1999/xlink" version="1.1" viewBox="-10 0 2067 2048">
   <path fill="currentColor"
d="M959 17v-4q115 0 196 8q186 5 336 122q151 118 228 295q12 19 30 74q19 57 22 62q33 120 40 340q8 224 12 256q8 273 120 429q44 56 68 142q24 83 28 134q3 30 8 160h-244q0 -268 -12 -340q-88 -361 -336 -452q-90 -12 -134 -4q-43 8 -128 36q-85 29 -126 36
q-71 16 -192 -26q-120 -42 -173 -42q-106 -16 -202 52q-93 67 -142 176q-40 79 -60 180q-20 103 -20 190v194h-248q-23 0 -28 -20q-4 -19 2.5 -46t1.5 -46q-4 -120 84.5 -325.5t95.5 -234.5q14 -70 26 -175q11 -89 18 -206q8 -121 12 -172q5 -197 82 -374q78 -178 222 -291
q152 -128 413 -128zM1339 65zM1539 185zM618 374h4q-91 0 -144 82q-52 82 -8 162q41 93 148 94q110 2 153 -86q49 -80 -4 -168q-52 -89 -149 -84zM1423 378q-92 0 -140 88t4 164q44 89 152 84q108 -4 144 -96q44 -80 -12 -166t-148 -74zM1707 450q9 8 28 52q-16 -37 -28 -52
zM1431 490q24 0 42 18q19 18 14 38q-12 77 -68 48t-40 -72q8 -27 52 -32zM622 490q28 -4 46 20q18 23 10 52q-28 64 -80 28q-47 -31 -28 -72q12 -24 52 -28zM1027 546h4q-79 -5 -172 112q-35 71 -108 106q-71 34 -153 22q-75 -28 -115.5 36t43.5 96q59 24 94 22
q28 -1 98 -16q67 -14 101 -14v-4q-42 6 -80 12q254 -36 524 -4q-9 0 -9 1t9 3q68 7 96 16q2 0 5.5 0.5t11 1t15.5 0.5q38 2 48 2q23 0 48 -4q31 -5 48 -14q21 -11 32 -28q13 -19 8 -46q-12 -59 -54 -76q-40 -16 -114 -8q-75 8 -96 4q-48 -20 -128 -116.5t-156 -103.5z
M919 586zM1043 922q-83 0 -160 8q-14 4 -68 4q-113 12 -109 32q112 96 353 88q183 12 284 -92q-42 -28 -300 -40zM1435 938z" />
</svg>