<svg xmlns="http://www.w3.org/2000/svg" xmlns:xlink="http://www.w3.org/1999/xlink" version="1.1" viewBox="-10 0 2068 2048">
   <path fill="currentColor"
d="M1883 1150q64 -4 112 36t52 104q4 68 -38.5 116.5t-105.5 55.5q-63 4 -111 -38q-48 -41 -52 -106q-4 -64 36 -112q41 -49 107 -56zM824 1866q0 -64 42 -108t104 -44q63 0 110 46q48 47 48 110q0 60 -42 106q-41 46 -102 50q-72 0 -116 -42t-44 -118zM1060 886
q-16 8 -24 -12q-96 -173 -62 -372q35 -201 194 -328q41 -34 110 -39q66 -4 102 31q21 18 28 60q12 97 48 140q55 64 140 56h16h18q2 0 18 2q6 1 16 4q10 4 14 4q9 1 16 8q4 4 12 14t14 16q12 25 8 90q-4 66 -24 82q-12 8 -36 0q-107 -40 -236 -16q-40 5 -40 -36
q-7 -82 -40 -140q-44 -68 -102 -70q-58 -1 -106 58q-47 66 -76 232q-12 70 -8 216zM1144 938q-8 -17 8 -28q149 -136 340 -150q191 -13 359 114q45 37 64 96q20 60 0 104q-19 27 -52 40q-87 40 -119 84q-43 64 -24 148q0 6 4 18t4 16q0 1 0.5 2.5t1 5.5t0.5 8q0 3 0.5 7.5
t1 7t0.5 3.5t-0.5 3t-1 5.5t-0.5 5.5q-2 11 -6 18l-8 16q-6 10 -12 16q-18 15 -82 26q-61 11 -86 -2q-12 -12 -8 -36q12 -105 -40 -232q-16 -40 20 -48q76 -24 124 -72q56 -53 44 -112t-84 -88q-77 -36 -236 -20q-90 7 -212 44zM1100 1026q12 -12 28 0q169 104 236 282
t0 374q-19 52 -76 90q-56 38 -104 26q-28 -4 -52 -36q-56 -72 -116 -92q-71 -24 -144 20q-3 0 -16 8q-3 2 -7 4.5t-6 4t-3 1.5l-16 8q-12 6 -16 6l-14 2q-10 2 -18 0q-1 0 -7.5 -1.5t-10.5 -2.5q-10 -1 -18 -6q-24 -16 -52 -74q-28 -57 -20 -82q8 -12 36 -12
q104 -20 212 -108q31 -28 56 4q42 70 104 100q65 36 118 8q55 -29 62 -104q7 -76 -48 -232q-41 -93 -108 -188zM996 1046q-20 97 -84 188q-184 264 -511 232q-58 -5 -100 -44q-44 -40 -48 -88q-4 -39 20 -68q44 -56 56 -96q24 -100 -64 -188q-108 -108 24 -192
q15 -10 40 -20q32 -20 40 12q41 97 160 180q28 28 4 60q-63 67 -68 156q-5 56 25.5 88t86.5 32q55 0 127 -36q119 -59 264 -212q24 -7 28 -4zM445 338q6 0 40 8q184 36 239 -136q43 -124 160 -63l2 2q2 2 6 2q51 31 56 49q4 18 -36 70q-51 70 -68 176q-8 49 -56 32
q-80 -31 -168 0q-44 12 -63 52q-20 42 -4 88q7 23 20 44t32 40q23 23 31 28q2 1 17 10.5t27 17.5q32 20 36 24q30 23 208 96q0 4 4 4q20 5 20 16q-4 12 -32 12q-266 5 -411 -116q-195 -160 -176 -356q24 -83 116 -100zM169 1282q-60 8 -112 -34q-51 -41 -56 -106
q-4 -59 38 -112q41 -51 102 -56q65 -7 116 32q51 40 56 100q8 61 -34 116q-42 56 -110 60zM1580 87q58 -4 112 40q51 43 56 103q7 64 -36 112q-44 49 -104 56q-64 5 -114 -38q-51 -43 -58 -106q-4 -63 36 -111q41 -48 108 -56zM704 151q4 67 -36 115q-41 48 -107 60
q-57 8 -108 -32q-53 -40 -60 -96q-7 -71 30 -120.5t106 -54.5q60 -7 113 32q55 41 62 96z" />
</svg>