<svg xmlns="http://www.w3.org/2000/svg" xmlns:xlink="http://www.w3.org/1999/xlink" version="1.1" viewBox="-10 0 2058 2048">
   <path fill="currentColor"
d="M200 665q4 -6 2 -20q-2 -12 0 -24q1 -11 18 -28q-19 70 -20 72zM269 440q0 4 14 2t-2 30q-13 8 -21 16h-4q17 -25 13 -48zM1062 8h-12q3 -3 93 -8q-2 0 -7 0.5t-14 1t-17 0.5q-31 2 -43 6zM1800 923q-12 108 -65 202q44 -87 61 -190zM865 1125l12 32q-32 -53 -36 -76
q17 37 24 44zM812 1129q6 10 18.5 29.5t18.5 30.5q25 42 28 49q-11 -7 -69 -85zM1659 883q0 27 -33 129l-32 16q-12 23 -10 36q2 16 -2 33q-121 104 -141 109q-4 -4 16 -29q-11 8 -32 29q-16 16 -32 26t-53 18v-4q-145 69 -298 -42t-153 -289q0 2 -8 20q-8 -98 38 -179
q46 -82 131 -123q82 -40 171 -26t148 70q-87 -120 -234 -112q-73 0 -137 40q-65 41 -89 93q-27 19 -50 78q-25 66 -26 67q-24 155 26 244q51 91 175 183q16 4 14 18l-2 14q-76 -36 -133 -100q34 49 69 76q-25 -8 -73 -60q-48 -53 -52 -53q60 106 207 170q147 65 240 24
q-123 8 -197 -20q-16 -7 -31 -19q-18 -14 -24 -20q-10 -10 -6 -14q282 109 504 -68q11 -8 38 -35q18 -18 36 -34q14 -12 19 -12q-7 12 -6 18q1 5 -7 18q16 -28 15 -46q-2 -20 26 -59l20 29q-4 -23 28 -89t28 -105q11 -13 12 12q0 29 -12 69q16 -18 14 -67q0 -12 -0.5 -26
t-1 -21.5t-0.5 -10.5q21 52 21 56q-4 -35 -2 -56q1 -14 14 -44q12 -29 12 -37q0 -4 -6 -2l-8 2q-2 0 -6 -10q-3 -7 -8 -38q0 -16 6 -20l6 -4q-16 -7 -33 -73q4 -4 10 4q6 7 11 16q6 10 8 12q0 -9 -8 -44q-9 -40 -9 -48q-12 -28 -20 -21q-5 8 -12 -8q-12 -33 -8 -42t10 -8
q8 2 16 2q10 0 10 -16q39 58 85 214q-12 -72 -44 -154q6 3 5 -12q0 -7 -1 -16q-4 -21 -4 -28q4 0 20 28q-31 -115 -121 -220q-87 -102 -193 -155q35 32 28 32q-27 -17 -34 -22q-17 -13 -17 -14q-1 -4 -6 -10q-4 -5 -4 -10q-19 -16 -52 -8q-34 8 -40 8q-43 -23 -73 -34
q-28 -10 -66 -22q-28 -9 -71 -25l4 21q-23 -12 -70 -4q-50 8 -75 4l44 -17q-28 4 -60 0q-29 -4 -60 4l48 -28q-18 4 -65 12q-36 -1 -36 -4q-3 1 -12 5t-26 10.5t-34 13.5q-70 28 -93 40q-50 26 -79 44q-44 27 -74 57l-4 -21q-11 15 -59 57q-44 38 -80 79q-33 38 -38 62
l-13 4l-48 105q-24 45 -32 24q-49 103 -101 266q8 13 8 53q0 24 -2 86t-2 99q-16 337 202 641q217 302 515 383q42 15 210 20q-52 -11 -85 -16q-46 -7 -92 -24q-25 -12 -43 -26q-17 -13 -38 -37q-13 -15 -32 -34l16 28q-43 -13 -61 -28t-56 -28l20 -24q-19 0 -46 -25
q-26 -24 -38 -44l-29 4q-52 -68 -52 -101l-8 17l-20 -29q-77 -101 -65 -105q5 0 16 4q-39 -35 -44 -44l12 -16q-57 -71 -52 -105q17 25 40 32q-29 -66 -46 -84q-18 -20 -30 -14q-13 7 -27 -12q-15 -20 -34 -79l12 -4l-24 -40l8 -53q-20 -25 -26 -74q-6 -53 -2 -93
q2 -18 10 -115q7 -79 10 -97q4 -24 34 -80q33 -63 39 -85l-17 -4q37 -61 131 -151q96 -91 147 -87l13 -20l-9 4q-16 11 -20 4q36 -36 61 -50q28 -16 56 -17q33 -2 45 -6l16 -16q-4 4 -16 4q-25 5 -25 -4q40 -8 87 -36t123 -36q4 4 -12 12q-27 7 -32 12q58 -32 179 -24
q119 8 207 48q113 53 206 180t97 260h8v68q0 35 -2 89q-1 37 -14 72zM1091 36h-13h13zM1054 24q1 0 49 8q-5 0 -12 4q2 -2 -7 -5l-18 -3q-7 -4 -12 -4zM1433 863q-4 11 -8 -4l-8 -16q7 -18 8 -20q4 -7 8 4q5 12 0 36zM1369 1036q32 -45 36 -88q0 16 -28 60q-29 20 -29 12
q0 -7 13 -28q16 -23 16 -32q-7 12 -17 27t-12 19q-8 14 -2 16q1 0 6.5 1.5t8.5 2.5q8 2 8 10zM1183 1081q-35 4 12 16q21 8 41 8q15 -11 32 -28q-35 12 -85 4z" />
</svg>