<svg xmlns="http://www.w3.org/2000/svg" xmlns:xlink="http://www.w3.org/1999/xlink" version="1.1" viewBox="-10 0 2068 2048">
   <path fill="currentColor"
d="M1024 1844h-512h-512q21 -35 86 -109q25 -30 76 -89q4 -24 -20 -73q-24 -46 -28 -64q-94 -247 -48 -512q47 -267 220 -460q162 -190 406 -278q245 -89 490 -44q268 40 480 230q212 189 288 451q113 383 -76 738q37 52 90 113q59 67 84 97q-11 4 -62 4h-68h-898zM1068 275
q-241 0 -448 137q-209 137 -302 359q-68 156 -63.5 337t79.5 336q27 -26 56 -60q36 -42 46 -56q29 -36 128 -154q83 -97 146 -165q28 29 80 93q15 18 30.5 37t24.5 30t13 17q9 9 80 89q63 73 94 113q7 -15 32 -40q25 -24 38.5 -40.5t11.5 -38.5q-1 -21 -34 -38
q-4 -6 -61.5 -74.5t-108.5 -129.5q-104 -123 -200 -240q5 -10 18 -26q9 -12 24 -28q12 -11 22 -18q13 -8 22 2q11 11 18 30q15 16 180 214q120 144 200 234q108 -127 506 -605q-106 -151 -302 -238q-162 -73 -330 -73v-4zM1878 1082q0 -185 -76 -339q-26 26 -76 87
q-42 50 -62 70q-48 64 -162 198q-109 126 -192 230q127 154 146 173q4 -5 13.5 -18t25.5 -34t33 -41q57 -73 92 -89q17 22 64 81q44 54 86 97q113 -191 108 -415zM1382 1586q-93 -116 -144 -174q-8 12 -40 49q-39 44 -50 64q16 11 68 75q50 63 78 90q10 -10 38 -44
q14 -16 30.5 -36t19.5 -24z" />
</svg>