<svg xmlns="http://www.w3.org/2000/svg" xmlns:xlink="http://www.w3.org/1999/xlink" version="1.1" viewBox="-10 0 2068 2048">
   <path fill="currentColor"
d="M190 1614q-173 -28 -189 -36q5 -21 278 -350q535 -640 741 -870q9 -9 58 -65q42 -48 62 -68q45 -53 53 -53l-6 10q-5 9 -20 27q-4 4 -9 10t-8.5 10.5t-5.5 7.5q-127 176 -740 1160l-141 225h-16q-14 0 -57 -8zM251 1872q-130 -4 -131 -6q-3 -2 68 -119t75 -119
q3 -1 124 11q375 36 729 60q82 4 230 4q141 0 173 -4q245 -44 290 -214q12 -48 12 -108q-5 -93 -37 -202q-101 -344 -499 -878q-45 -60 -64 -86q-29 -39 -20 -39q21 18 44 45q164 178 322 366q427 518 475 826q31 210 -113 314q-98 73 -310 97q-561 69 -1368 52zM1189 225
l2 -4l2 -4q31 46 124 173q208 294 323 511q2 3 20 41q55 109 88 209q12 34 20 61q1 7 16 68q0 7 5 28q16 110 -17 190q-31 83 -116 128q-79 42 -218 49q-52 5 -116 0q-122 0 -327 -12q-156 -11 -668 -57q0 -4 -8 -4h-8q9 -14 266 -427q322 -515 418 -664q148 -226 194 -286z
" />
</svg>