<svg xmlns="http://www.w3.org/2000/svg" xmlns:xlink="http://www.w3.org/1999/xlink" version="1.1" viewBox="-10 0 2058 2048">
   <path fill="currentColor"
d="M504 0h1384v744q0 28 -16 40q-3 3 -98 50q-94 46 -98 58q-8 8 -12 54q-4 45 4 58q5 14 98 80q91 65 102 76q12 13 8 32q-65 193 -80 208q0 3 -8 8l-8 4q-170 -18 -236 -28q-16 0 -28 12q-57 82 -64 108q4 4 46 116t42 120q-1 3 -2 5.5t-1.5 4.5t-1.5 3.5t-1 2.5
q-1 3 -86 70q-84 66 -100 66q-8 0 -12 -4q-4 0 -94 -72t-94 -76q-17 -8 -78 16q-63 25 -70 36q-4 6 -28 122t-28 122q-4 12 -36 12h-748v-1708zM504 340v1368h348v-464h344v-304h-344v-256h692v-344h-1040z" />
</svg>