<svg xmlns="http://www.w3.org/2000/svg" xmlns:xlink="http://www.w3.org/1999/xlink" version="1.1" viewBox="-10 0 2062 2048">
   <path fill="currentColor"
d="M954 0l92 188q87 4 176 24v-4l136 -156l80 28l-4 212v4q75 42 140 100l8 -4l192 -80l56 68l-100 180l-8 4q49 79 80 156l8 -4l208 24l24 84l-176 112l-12 4q8 43 8 84l-8 88l12 4l172 112l-20 84l-208 20h-8q-31 77 -80 156l4 4l100 184l-56 64l-192 -80l-4 -4
q-71 59 -144 100v4l4 208l-80 32l-136 -160v-4q-88 24 -176 24l-92 188l-88 -12l-44 -204q-88 -20 -168 -60l-168 120l-72 -52l56 -196q-71 -63 -124 -136l-200 28l-40 -76l136 -148q-32 -91 -44 -180l-188 -68v-88l188 -68q12 -90 44 -176l-132 -148l40 -80l200 28
q56 -72 120 -132l-52 -200l72 -48l168 120q80 -40 168 -60l44 -200zM1002 468h-4q-59 5 -108 16q-224 56 -342 252t-64 418t250 342t418 64t342 -252q119 -196 64 -416q-48 -192 -204 -312q-155 -120 -352 -112zM840 880q58 0 100 42t42 100t-42 100t-100 42t-100 -42
t-42 -100t42 -100t100 -42zM1204 880q58 0 100 42t42 100t-42 100t-100 42t-100 -42t-42 -100t42 -100t100 -42z" />
</svg>