<svg xmlns="http://www.w3.org/2000/svg" xmlns:xlink="http://www.w3.org/1999/xlink" version="1.1" viewBox="-10 0 2058 2048">
   <path fill="currentColor"
d="M805 92q77 -96 187 -92q72 0 112 12q129 32 196 156q44 77 48 208q0 72 8 192q22 35 64 124q17 38 40 76q5 0 108 132q61 78 104 228q36 137 24 240q0 9 -16 44q12 0 28 12q40 24 40 100q0 40 56 88q10 10 38 28t34 28q32 29 20 72q-16 41 -56 64q-25 21 -90 50
q-65 30 -94 54q-27 19 -66 56q-40 39 -70 56q-83 52 -180 8q-72 -28 -84 -96q-129 -32 -240 -32q-85 -4 -99 -4q-63 4 -68 20q-24 100 -144 124q-44 12 -128 -24q-26 -13 -156 -44q-42 -13 -196 -56q-52 -7 -72 -52q-16 -40 24 -112q24 -44 0 -172q-12 -60 36 -88
q26 -21 76 -22q52 -1 64 -6q15 -10 32.5 -44t27.5 -44q-16 -48 8 -92q93 -190 104 -228q29 -110 52 -140q31 -37 68 -84q51 -64 56 -72q36 -40 52 -80q0 -10 -2 -68t-2 -60q-1 -28 -8 -212q-7 -160 64 -248zM1132 244q-15 -4 -20 0q48 12 76 60l4 -4q-24 -56 -60 -56z
M845 256q-4 4 -8 4q48 5 72 48l8 8q0 -16 -12 -28q-27 -27 -60 -32zM1100 288q-19 -4 -48 12q-60 41 -48 108q8 36 52 48q-16 -28 -4 -64q8 -19 30 -30q22 -10 42 2q32 20 32 62q0 41 -32 58q0 4 8 6q9 2 20 6t16 4q36 -40 24 -116q-4 -39 -30 -68q-25 -28 -62 -28zM841 300
h-4q-56 5 -56 80q5 85 20 112q8 25 32 -4q4 -4 8 -4q-55 -36 -24 -104q12 -24 38 -12t30 36q5 40 8 40q6 0 12 -4q29 -8 12 -68q-24 -72 -76 -72zM1108 376q-8 0 -9.5 6t5.5 6q12 0 18 16q6 15 14 20q8 -17 -2 -32q-10 -16 -26 -16zM853 380q-4 0 -4 4v4q13 5 14.5 20
t5.5 20q13 -8 6 -28q-6 -20 -22 -20zM964 436v4q-63 0 -119 48q-4 8 -24 24q-26 22 -28 24q-24 32 -12 60q36 4 52 24q47 40 139 20q64 -12 124 -60q9 -5 18 -16q12 -13 20 -18q11 -6 26 -2q5 7 -4 14q-6 5 -20 12q-12 6 -16 10q-55 52 -108 64q-103 29 -147 12
q-12 0 -32 -18q-16 -15 -28 -22q18 13 42 46q24 32 46 46q64 35 151 -12q4 -4 46 -34q42 -29 70 -34q12 -4 18 -12q7 -8 8 -14q4 -14 4 -18q1 -3 1.5 -6.5t0.5 -6v-3.5q12 -36 -16 -52q-13 -8 -38 -14q-30 -7 -38 -10q-3 -2 -56 -30q-49 -26 -80 -26zM992 460q24 0 28 12
q0 12 -24 4q-21 -7 -16 -12q4 -4 12 -4zM901 464q4 0 4 4zM1188 632q-8 13 -24 20q-27 4 -92 48q-84 55 -163 36q-15 -6 -26 -14q-5 -4 -12 -9t-10 -7q-10 -8 -22 -24t-18 -22q-12 -19 -12 0v28q0 36 -56 116q-59 83 -52 160q-132 197 -132 404q-60 -92 -12 -208
q45 -103 60 -152q-15 18 -48 88q-44 90 -44 148q0 96 40 136q68 71 176 156q76 55 80 104q0 24 -16 40t-40 16q59 81 68 96q33 15 80 20q70 16 151 -4q96 -24 220 -144q8 -83 4 -164q-7 -67 24 -96q23 -16 96 -8q16 -111 8 -204q-16 -165 -116 -264q-12 -83 -48 -160
q-50 -104 -64 -136zM1224 712zM1360 940q17 17 56 40q77 40 100 116q32 89 -16 236q-7 12 -6 14q3 2 14 -2q29 -65 36 -116q24 -128 -60 -212q-16 -16 -124 -76zM1488 1356q-24 8 -44 32h8q24 -19 96 -24h24l8 -4q-10 0 -52 -2q-8 0 -17.5 -0.5t-15 -1t-7.5 -0.5zM481 1372
q-13 0 -24 4q-22 7 -46 46q-24 40 -34 50q-19 16 -66 16q-46 0 -50 4q-52 4 -52 64q0 20 6 60.5t6 72t-12 59.5l-14 32q-10 24 -12 32q-2 10 2 36q5 13 18 20q17 9 38 16q26 8 28 8q35 14 208 56q49 7 148 52q76 31 136 -12q44 -24 60 -78q17 -53 -8 -102q-11 -34 -56 -88
q-45 -55 -56 -80q-69 -118 -120 -188q-54 -75 -100 -80zM1424 1424q-7 -7 -72 -12q-40 5 -36 48q4 100 4 160q-4 44 -18 126q-14 86 -14 110q-7 93 28 124q73 56 156 32q23 -7 46 -24q25 -18 52 -44q8 -8 17 -16.5t14 -13t7 -6.5q11 -9 46 -34q20 -14 46 -28l52 -26
q29 -15 52 -24q61 -36 68 -80q0 -28 -48 -60q-69 -54 -88 -84q-12 -13 -13.5 -46t-6.5 -38q-7 -45 -48 -52q-19 72 -98 108q-77 36 -130 -12q-32 -41 -16 -108z" />
</svg>