<svg xmlns="http://www.w3.org/2000/svg" xmlns:xlink="http://www.w3.org/1999/xlink" version="1.1" viewBox="-10 0 2066 2048">
   <path fill="currentColor"
d="M1024 0q422 0 722 300q300 299 300 724q0 426 -299 725t-723 299t-723 -299t-299 -725q0 -425 300 -724q300 -300 722 -300zM1326 260q-94 0 -160 68t-66 161q0 94 66 160t160 66q93 0 160 -66q68 -66 68 -160q0 -93 -68 -161t-160 -68zM1016 284q-206 0 -380 101
q-173 101 -274 274h20q29 0 68 8q55 12 104 44q75 -111 192 -176q117 -64 254 -64q0 -31 4 -52q17 -73 64 -131q-26 -4 -52 -4zM1630 615q-41 98 -128 152q93 181 52 375q-19 96 -72 180q85 65 108 167q108 -135 144 -307q68 -302 -104 -567zM380 759q-94 0 -160 66
q-66 65 -66 161q0 97 66 162q66 66 160 66t162 -66t68 -162q0 -95 -68 -161t-162 -66zM518 1282q-96 43 -196 24q66 169 210 291q140 120 320 156q83 20 164 16q-63 -83 -68 -188l-56 -8q-254 -55 -374 -291zM1278 1346q-96 0 -162 65q-68 66 -68 160t68 162t162 68
q92 0 158 -68q66 -67 66 -162q0 -94 -66 -160q-64 -65 -158 -65z" />
</svg>