<svg xmlns="http://www.w3.org/2000/svg" xmlns:xlink="http://www.w3.org/1999/xlink" version="1.1" viewBox="-10 0 2068 2048">
   <path fill="currentColor"
d="M1016 349q17 0 24 16l47 84q11 4 24 4l68 -76q12 -13 26 -8q15 5 22 20l32 92l24 8l80 -56q12 -12 26 -6t18 22l16 100q1 1 5 3t7.5 4.5t7.5 4.5l87 -40q13 -8 26 2q14 11 14 26l-4 100q9 9 20 16l92 -24q16 -5 28 7.5t8 28.5l-24 100l16 16h96q16 -5 24 10q8 14 4 30
l-40 91q7 12 12 24l92 16q15 0 21 16q6 15 -2 28l-55 84q0 5 4 16l171 124q27 16 2 64q-25 46 -213 307q-44 72 -48 72q-4 -5 0 -26t18 -64q13 -39 38 -82q91 -207 64 -223q-2 -2 -12 -8q-6 10 -8 12q-16 29 -148 219q-15 27 -22.5 38.5t-9.5 9.5l4 -18q6 -23 16 -50
q12 -32 32 -64q49 -103 60 -151q-30 27 -84 52q-35 58 -98 109t-106 70l-43 20q-72 79 -144 120q-70 39 -120 38q-44 -2 -88 -16q-38 -13 -56 -34l-19 -20q74 4 143 -28q68 -32 92 -68l28 -32q-86 -25 -150 -26q-66 -2 -90 6l-23 12q14 -24 27 -36h-87h-6h-10q17 17 28 32
q-100 4 -268 24q10 10 30 26q22 18 86 46q65 28 124 36q-6 14 -14 28q-11 18 -44 42q-35 25 -72 30q-37 4 -104 -34q-64 -37 -133 -130q-12 0 -30 -6t-78 -54q-62 -50 -120 -131q-50 -19 -88 -44q17 46 56 119q17 27 36 62q15 26 20 48q4 16 4 20q0 1 -12 -12
q-8 -10 -28 -38q-130 -159 -167 -207l-12 -24l-20 20q-25 20 107 215q32 41 54 82q23 43 30 64q4 12 5 16.5t-1 5.5q-2 2 -17 -13.5t-47 -50.5q-235 -231 -275 -279q-15 -18 -20 -36q-4 -16 4 -24l4 -4l160 -168v-4l-56 -84q-8 -13 -2 -28q6 -16 22 -16l95 -16l8 -24
l-39 -91q-4 -16 4 -30t23 -10h96l16 -16l-20 -100q-4 -16 6 -28q11 -12 26 -8l96 24l16 -16l-4 -100q0 -15 14 -26q13 -10 26 -2l88 40q12 -5 24 -12l16 -100q0 -17 15 -22q16 -6 28 6l76 56q20 -6 24 -8l36 -92q4 -16 20 -20q16 -5 24 8l68 76q13 0 24 -4l52 -84
q7 -16 24 -16zM1251 1004q-22 0 -48 8h8q20 0 34 18t14 43.5t-14 44.5q-14 18 -32.5 18t-31.5 -18q-14 -19 -14 -46q0 -31 20 -48l-20 16q-32 53 -32 96q0 44 16 60l16 20q24 36 64 36t68 -16l24 -20q28 -24 28 -68.5t-12 -75.5l-16 -32q-32 -36 -72 -36zM876 1004l-68 12v6
v2q7 -12 24 -12q20 0 34 18t14 45.5t-14 46.5q-14 18 -34.5 18t-33.5 -18q-14 -19 -14 -46q0 -14 4 -24q-36 84 -18 130q17 45 62 62l40 16q68 -5 96 -46t20 -82l-4 -40q-24 -88 -108 -88zM1558 1368q-63 19 -139 31l20 32l47 -12q45 -27 72 -51zM533 1395q32 36 60 44
q7 -11 24 -28q-17 -3 -46 -9t-38 -7z" />
</svg>