<svg xmlns="http://www.w3.org/2000/svg" xmlns:xlink="http://www.w3.org/1999/xlink" version="1.1" viewBox="-10 0 2068 2048">
   <path fill="currentColor"
d="M4 492l-4 4q5 0 48 21q50 24 110 50q72 31 118 42q228 59 446 279q3 4 24 -8q26 -14 54 -25q36 -13 64 -13q8 2 41.5 7.5t60.5 9.5q27 5 73.5 13t62.5 10q63 11 120 12q59 2 70 -19q10 -12 22 -45t28 -46q5 0 -6 -38q-9 -34 -8 -83q2 -46 36 -63q25 -12 51.5 19t46 79
t22.5 48q5 5 16 6q11 2 16 -2q6 -5 6 -12q-1 0 -8 -25q-6 -15 -12 -46q-5 -20 -6 -50q-2 -31 6 -48q8 -18 28 -27q31 -12 52 2q24 16 30 46q7 40 10 67q4 31 2 58q-1 24 2 27l100 17q99 17 200.5 60.5t113.5 122.5q4 42 -70 94q-69 50 -170 98l-98 46q-47 29 -18 79
q9 8 32 36q28 32 48 60q21 29 16 46q-7 8 -99.5 -20.5t-96.5 -21.5q-12 13 46.5 75.5t29.5 91.5q-10 5 -38 -4q-40 -12 -64 -23q-49 -20 -74 -31q-52 -23 -62 -27l-24 -11q-12 5 -96 15.5t-234 5.5q-152 -4 -262 -37q-5 -4 -88 70q-85 76 -96 71q-9 -9 0 -37q3 -10 10 -34
t10 -35q13 -39 8 -48q-4 -8 -32 4q-10 4 -52 21q-22 9 -32 -4q-4 -25 42 -71t42 -58q-29 -213 70 -355q9 -15 -56 -73q-61 -54 -168 -123q-103 -65 -192 -104q-67 -28 -98 -42q-50 -21 -80 -40q-25 -16 -54 -31q-23 -12 -32 -21q-8 -8 -4 -12zM1952 646q17 13 -8 125l-14 17
q-4 -9 0 -40q2 -9 3.5 -19.5t4 -24t4.5 -22.5q6 -36 10 -36zM2048 667l-6 15q-2 5 -18 35q-5 11 -10 21.5t-10 20.5q-12 23 -20 33q-8 12 -12 8q-11 -8 26 -70q37 -63 50 -63zM1672 817q-34 0 -34 38q0 37 34 37t34 -37q0 -38 -34 -38zM1598 838q-30 22 4 71q36 62 100 8
q-51 0 -72 -16q-20 -16 -32 -63zM1776 996q-20 6 -50 19q-28 13 -58 32q-24 17 -24 20q4 13 112 -37q28 -21 28 -29q0 -5 -8 -5zM1798 1038q-12 0 -38 23q-20 17 -44 48q-19 25 -10 29l12 -8q10 -6 16 -10q37 -21 58 -42q22 -22 10 -40h-4z" />
</svg>