<svg xmlns="http://www.w3.org/2000/svg" xmlns:xlink="http://www.w3.org/1999/xlink" version="1.1" viewBox="-10 0 2068 2048">
   <path fill="currentColor"
d="M1572 544q-137 0 -264 76q-110 61 -212 172q-46 52 -68 80q-18 25 -64 84q-7 11 -32 44q-44 60 -64 84q-32 36 -68 68q-102 102 -188 156q-109 68 -184 68q-141 0 -238 -100q-98 -101 -98 -256q0 -152 96 -240q95 -88 240 -88t288 124l-48 48l120 32l120 28l-68 -236
l-52 56q-167 -148 -356 -148q-180 0 -306 120t-126 312q0 184 124 308t292 124q132 0 256 -72q86 -54 188 -156q7 -8 52 -60q44 -49 68 -80l24 -40q44 -64 48 -72q53 -72 100 -124q108 -120 208 -172t208 -52q181 0 284 112q104 113 104 284q0 159 -98 268q-98 108 -266 108
q-208 0 -372 -140l56 -68l-120 -20l-120 -20l40 112l44 116l48 -60q196 180 416 180q208 0 336 -138q128 -139 128 -346q0 -213 -130 -344q-130 -132 -346 -132z" />
</svg>