<svg xmlns="http://www.w3.org/2000/svg" xmlns:xlink="http://www.w3.org/1999/xlink" version="1.1" viewBox="-10 0 2068 2048">
   <path fill="currentColor"
d="M746 1242v-218l-156 159q24 18 46 29q11 4 21.5 8.5t20.5 8.5q9 2 17.5 4.5t16.5 4.5q15 4 34 4zM1536 1225q4 0 4 4q10 0 14 4q13 5 20 5q11 4 30 4t30 -4q20 0 36 -9q11 -4 21.5 -8.5t20.5 -8.5q20 -9 50 -29l-120 -117l-390 -390l-172 172l-230 -239l-582 574
q32 20 50 29q11 4 21.5 8.5t20.5 8.5q17 9 38 9q11 4 29.5 4t28.5 -4q8 0 22 -5q2 -3 12 -8h4l260 -264l96 -88l260 256l88 96q4 0 4 4q8 0 12 4q14 5 22 5q10 4 28 4q20 0 30 -4q21 0 38 -9q10 -4 20.5 -8.5t21.5 -8.5q18 -9 50 -29l-210 -205l38 -38l180 180zM1536 136
l512 888l-512 888h-1024l-512 -888l512 -888h1024zM1214 982l-134 -138l8 -8l140 134z" />
</svg>