<svg xmlns="http://www.w3.org/2000/svg" xmlns:xlink="http://www.w3.org/1999/xlink" version="1.1" viewBox="-10 0 2059 2048">
   <path fill="currentColor"
d="M315 1q145 0 238 117q178 -94 380 -113q205 -20 393 40q290 88 489 339q201 252 220 556q4 51 4 375v378q-5 126 -75 222q-71 96 -183 113q-124 24 -233 -61q-110 -85 -117 -209v-327v-330l302 -85l-298 -84q-8 -16 -41 -75q-28 -51 -56 -90q-29 -42 -60 -65
q-129 -112 -314 -87q-184 25 -278 176q-19 28 -31 58q-16 42 -22 61q-7 25 -12 68q-4 37 -4 63v72v65q-5 72 48 155q52 81 133 86q115 7 210 75q94 66 113 171q4 64 4 212v171q0 -60 -41 -137q-8 -20 -20 -32q-82 -114 -237 -115q-157 -2 -238 103q-105 157 -246 165
q-125 12 -227 -75q-103 -88 -107 -215v-1407q0 -131 89 -235q88 -104 217 -99zM1024 815q120 4 179 111t-10 199q-61 97 -179 93q-119 -5 -167 -105q-61 -97 2 -201q63 -105 175 -97z" />
</svg>