<svg xmlns="http://www.w3.org/2000/svg" xmlns:xlink="http://www.w3.org/1999/xlink" version="1.1" viewBox="-10 0 2058 2048">
   <path fill="currentColor"
d="M1022 0q20 216 80 248q67 -19 132 -224q-24 213 28 256q67 -7 171 -192q-67 204 -24 256q68 8 208 -152q-108 182 -76 247q65 20 235 -107q-151 168 -123 235q-39 -47 -56 -72q-28 -28 -60 -56q-36 -31 -60 -48q-25 -17 -72 -43q-46 -27 -70 -38q-34 -15 -73 -26
q-39 -15 -80 -20q-28 -8 -72 -12q-59 -8 -90 -8q-39 0 -78 4q-38 6 -81 14q-33 7 -78 22q-15 6 -40.5 15t-35.5 13q-29 12 -72 36q-38 23 -68 43q-24 17 -64 52q-34 30 -55 54q-26 30 -56 70q24 -66 -124 -235q170 127 235 107q28 -64 -75 -247q140 159 207 152
q40 -52 -24 -256q104 184 172 192q48 -43 28 -256q65 205 127 224q60 -36 84 -248zM1018 316l-8 8q221 -5 403 119q247 163 301 457t-105 525q-24 36 -64 76l-934 -623q19 -44 48 -87q111 -164 291 -194q181 -30 312 70q122 79 169 215q46 134 -10 292q83 55 92 64
q36 -84 42 -194q6 -108 -50 -243q-55 -133 -184 -218q-196 -128 -411 -86t-339 226q-124 177 -82 401q42 226 234 353q134 84 287 82q152 -2 299 -78l88 152q-404 224 -766 -16q-171 -116 -251 -293q-80 -179 -64 -362q17 -184 120 -335q97 -145 251 -228t331 -83z
M1657 1481q-24 68 123 236q-171 -132 -235 -108q-28 59 76 248q-140 -164 -208 -156q-43 55 24 259q-104 -184 -171 -191q-52 43 -28 255q-64 -206 -132 -223q-61 32 -80 247q-24 -215 -84 -247q-62 19 -127 223q24 -212 -28 -255q-68 8 -172 191q64 -204 24 -259
q-67 -7 -207 156q104 -188 75 -248q-64 -19 -235 108q148 -172 124 -236q32 43 56 68q22 27 59 56q52 45 60 52q36 25 68 40q41 27 74 40q9 4 20.5 8t27 10t26.5 10q50 14 76 20q32 8 79 12q43 4 82 4t86 -4q45 -5 76 -12l80 -20q58 -22 73 -28q30 -12 70 -40q48 -27 70 -42
q25 -18 62 -50q32 -28 60 -56q25 -25 56 -68z" />
</svg>