<svg xmlns="http://www.w3.org/2000/svg" xmlns:xlink="http://www.w3.org/1999/xlink" version="1.1" viewBox="-10 0 2068 2048">
   <path fill="currentColor"
d="M952 1942q-289 0 -500 -194q-210 -193 -210 -474v-463v-117h-242v-588l1018 5l316 4q292 0 502 192q212 193 212 475v1160h-1096zM1894 1633v-851q0 -212 -164 -363q-162 -150 -396 -150h-316l-864 -4v275h96q53 0 100 44q46 43 46 106v584q0 212 164 363
q162 150 392 150h758q76 0 130 -43q54 -44 54 -111zM1142 574q105 0 184 75q76 -75 180 -75q113 0 190 79q76 80 76 192v458q-12 118 -96 205q-100 100 -238 100h-604q-105 -12 -192 -96q-96 -96 -96 -234v-842h160v813q0 79 48 136q47 56 110 56l542 4q82 0 142 -50
q58 -49 58 -121v-429q0 -42 -29 -71t-69 -29t-69 29t-29 71v367h-168v-367q0 -42 -29 -71t-71 -29t-71 29t-29 71v367h-166v-367q0 -112 80 -192q78 -79 186 -79z" />
</svg>