<svg xmlns="http://www.w3.org/2000/svg" xmlns:xlink="http://www.w3.org/1999/xlink" version="1.1" viewBox="-10 0 2058 2048">
   <path fill="currentColor"
d="M283 0q9 9 28 56q43 63 120 116q28 17 36 22q23 13 28 18q4 -4 2 -12q-3 -18 -4 -22l-2 -18q-4 -12 0 -16q9 -5 16 12q33 50 68 132l4 16q36 60 140 176q143 159 516 412q20 12 26 16q18 12 28 22t14 26q18 -46 40 -80q61 -93 132 -136q91 -64 212 -32q84 24 120 48
q12 12 -4 12q-3 -1 -28 -8q-97 -8 -188 68q-36 36 -68 32q-24 49 -32 80q0 5 -4 16q-1 3 -2.5 7t-2 6t-1.5 3q-1 6 2 12q40 59 28 144q-16 97 -48 176q-25 63 -76 140q-54 83 -84 112q-12 12 -12 8q0 -8 8 -16q4 -4 20 -32q15 -26 20 -48q-71 107 -188 204
q-138 215 -316 336q-63 40 -72 40q-4 -8 2 -16q11 -13 14 -18q5 -7 12 -14q59 -75 104 -100q8 -8 12 -8q52 -31 112 -120q-195 124 -384 160q-5 0 -16 4q-10 4 -20 2q-9 -2 -4 -10q39 -33 108 -64q18 -11 62 -22q40 -10 50 -10q103 -41 204 -140q-118 57 -240 76
q-78 12 -120 4q-27 -12 28 -28q90 -18 152 -44q181 -89 288 -232q5 -36 16 -88q8 -12 2 -16t-18 0q-67 0 -88 -8l20 -8q40 -4 76 -36q39 -30 52 -52q-39 21 -132 40q-77 12 -100 8q7 -4 60 -16q54 -29 100 -80q0 -4 -6 -2q-14 4 -18 4q-3 0 -6.5 0.5t-5.5 1t-4 0.5
q-96 4 -144 -12q-10 -7 4 -8q2 0 12 -2t12 -2q60 -8 116 -68q-54 16 -144 4q-68 -12 -84 -28l36 -4q60 0 124 -52q-3 -4 -10 -2l-16 4q-2 0 -5.5 0.5t-5 1t-3.5 0.5q-60 12 -180 -24q-72 -24 -88 -40q14 0 60 16q76 -5 152 -32q-74 0 -176 -56q-55 -36 -68 -56l36 8
q53 19 124 0h-22q-19 0 -26 -4q-82 -19 -172 -104q-43 -43 -48 -64q5 -4 10 0q2 1 7 4.5t7 5.5q10 8 12 10q66 36 156 20q-36 -9 -88 -24q-65 -17 -156 -100q-57 -57 -64 -72q11 4 52 36q42 20 104 36h5h-1q-12 -8 -16 -8q-103 -48 -192 -164q-1 -3 -4.5 -9t-5.5 -9
q-6 -11 -10 -16l-4 -6q22 7 76 52q53 44 128 44q-40 -12 -116 -52q-60 -32 -132 -132q-43 -60 -48 -84q12 12 40 44q11 15 56 40q-71 -67 -120 -176q-1 -2 -8 -18q-4 -10 -6 -18l-2 -8q16 7 52 56q19 27 60 56q-14 -28 -40 -104q-24 -76 -24 -96zM763 1844z" />
</svg>