<svg xmlns="http://www.w3.org/2000/svg" xmlns:xlink="http://www.w3.org/1999/xlink" version="1.1" viewBox="-10 0 2068 2048">
   <path fill="currentColor"
d="M1024 0q424 0 724 300t300 724t-300 724t-724 300t-724 -300t-300 -724t300 -724t724 -300zM972 368q-159 0 -292 68q-160 88 -160 244q0 148 156 228q115 64 272 64q134 0 212 32q84 41 84 116t-80 116q-85 44 -212 44q-124 0 -204 -68q-64 -52 -64 -104q0 -32 -32 -52
q-29 -20 -68 -20q-35 0 -60 20q-28 19 -28 52v208q5 49 24 80q28 36 80 36q57 0 76 -16q15 -11 20 -32v-6v-6q137 60 280 60q205 0 332 -88q136 -88 132 -224q0 -188 -192 -268q-120 -48 -300 -48q-103 0 -168 -44q-56 -36 -56 -80q0 -55 62 -108q61 -52 182 -52
q92 0 152 30t74 56q13 25 18 46l4 4q16 60 92 60q37 0 60 -16q28 -19 28 -52v-196q0 -27 -32 -56q-31 -24 -68 -24t-60 16q-16 7 -28 24q-33 -15 -80 -28q-77 -16 -156 -16zM312 1204h-4q-20 5 -20 24l4 328q0 20 24 20h1308q20 0 20 -20v-40q0 -24 -20 -24h-1248v-264
q0 -19 -20 -24h-44z" />
</svg>