<svg xmlns="http://www.w3.org/2000/svg" xmlns:xlink="http://www.w3.org/1999/xlink" version="1.1" viewBox="-10 0 2067 2048">
   <path fill="currentColor"
d="M1376 61q262 96 437 308q176 212 220 470q43 258 -48 535q-92 263 -307 440q-216 176 -472 220q-258 43 -534 -48q-261 -92 -436 -306q-177 -217 -220 -472q-44 -261 44 -535q79 -219 244 -378q163 -158 380 -234q-4 4 13 -4q3 -1 7 -2q19 -9 88 -26q65 -17 136 -24
q238 -20 448 56zM708 1890q360 131 706 -30q348 -163 475 -518q120 -329 -12 -661q-69 -18 -140 -44q-32 -10 -67 -20q-45 -13 -140 -26q-98 -14 -162 -6q-108 11 -224 44q-20 4 -32 40q-19 39 -56 86q-42 50 -100 74q-2 0 -12 2q-8 1 -22 16q-14 14 -10 30l8 16q5 8 22 20
q17 11 46 -8q17 -7 48 -26q29 -19 90 -88q63 -73 98 -154q4 -5 14 -6q22 -4 38 -4q32 -2 52 2q0 11 -8 32q-9 23 -36 76q-32 62 -58 104q-30 48 -80 98q-52 51 -102 79q-2 1 -20 8q-8 2 -42 8q-28 4 -52 -4q-21 -8 -34 -47q-12 -37 -4 -102q1 -4 8 -28q5 -21 26 -64
q23 -50 60 -92q40 -47 114 -100q78 -57 176 -96q221 -105 368 -160q-136 -124 -304 -184q-5 0 -96 -24q-135 90 -254 258q-118 165 -166 306q-13 29 -24 76q-12 46 -4.5 159.5t72.5 181.5q11 11 18 16q13 9 44 20q34 12 69.5 12t92.5 -26q55 -26 108 -78q13 -10 38 -36
q19 -21 76 -129q55 -106 86 -240q28 16 28 24q4 6 -4 70q-7 57 -40 166q-32 103 -80 181q-9 8 -16 22q-6 10 -40 48q-30 32 -68 58q-37 24 -94 42q-57 17 -118 10q-255 -29 -392 -353q-41 -92 -54 -270q-14 -184 14 -406q-273 173 -376 464q-72 192 -48 409q50 38 110 74
q59 35 146 82q94 51 170 80q85 32 188 60q106 28 196 24q90 -5 198 -24q115 -32 196 -112q81 -81 100 -144l24 -60q28 -80 30 -181q1 -101 -6 -160l-12 -60q84 152 104 298q20 148 -14 247t-78 178q-44 78 -84 114l-44 40q-152 139 -366 198q-214 58 -422 42q76 45 160 76z
" />
</svg>