<svg xmlns="http://www.w3.org/2000/svg" xmlns:xlink="http://www.w3.org/1999/xlink" version="1.1" viewBox="-10 0 2058 2048">
   <path fill="currentColor"
d="M964 0q127 0 222 92q94 91 94 220v4v4q65 -44 148 -44q45 0 92 16q-4 -17 -4 -24q0 -72 52 -124t126 -52t126 52t52 124t-52 124t-128 52h-4h-8q24 52 24 108q0 116 -82 198t-194 82t-192 -78q-81 -79 -88 -186q-80 60 -184 60h-32q80 109 80 240q0 77 -28 148
q111 -52 236 -52q224 0 382 158t158 382q0 223 -158 384q-157 160 -382 160q-224 0 -384 -160t-160 -384q0 -124 60 -244q-71 28 -144 28q-173 0 -294 -124q-122 -125 -122 -296q0 -172 122 -294t294 -122q48 0 96 12q-36 -72 -36 -148q0 -132 92 -224t220 -92zM964 84
q-96 0 -164 68t-68 164t68 162t164 66t164 -66t68 -162t-68 -164t-164 -68zM1694 176q-37 0 -66 26q-28 25 -28 66t28 66q29 26 66 26t66 -26q28 -25 28 -66t-28 -66q-29 -26 -66 -26zM1426 360q-82 0 -138 56t-56 136q0 79 56 138q55 58 138 58t138 -58q56 -59 56 -138
q0 -80 -56 -136t-138 -56zM596 536q-140 0 -238 98t-98 236t98 236t238 98t236 -98t96 -236t-96 -236t-236 -98zM1222 1048q-189 0 -326 134q-136 133 -136 326t136 326q137 134 326 134t326 -134q136 -133 136 -326t-136 -326q-137 -134 -326 -134z" />
</svg>