<svg xmlns="http://www.w3.org/2000/svg" xmlns:xlink="http://www.w3.org/1999/xlink" version="1.1" viewBox="-10 0 2068 2048">
   <path fill="currentColor"
d="M1050 221v-4h2h2q250 0 456 141q2 -2 18 -11q14 -7 40 -21q10 -5 46 -20l18 -7q10 -9 24 -9q50 5 90 27q124 69 202 187q86 135 100 297v3v1q0 64 -24 119l-4 4q-23 51 -64 78v4q-4 0 -16 7q-4 3 -15 9t-17 9q-17 10 -34 21l-14 9q-18 320 -252.5 543t-557.5 223
q-233 0 -430 -123l-104 50v5q-42 23 -86 23q-87 0 -184 -71q-93 -69 -158 -189q-83 -132 -88 -292v-14q0 -118 96 -182l18 -9q9 -5 24 -12q3 -2 14 -7t26 -13q34 -17 48 -23l20 -9q23 -310 253.5 -527t550.5 -217zM1054 271q-169 0 -306 78q-86 49 -86 123q13 123 242 183h8
q69 13 132 9q198 0 316 -73q23 -20 50 -46l-6 5q14 -14 24 -32v-5v5q-5 14 -18 27q32 -37 32 -73q0 18 -10 41q10 -23 10 -45v-14v4v-4q-10 -56 -74 -96q-141 -87 -314 -87zM1410 545zM1656 322q-6 0 -10 4l-114 55q151 114 237.5 283t90.5 365v9l82 -46q32 -27 50 -68l6 -5
q18 -50 18 -109v-9q-10 -147 -88 -279q-78 -110 -190 -178q-39 -17 -82 -22zM1404 554q-28 29 -76 55q48 -26 76 -55zM406 942h-4q-28 0 -56 9l-74 37q-64 30 -66 31q19 0 50 10q169 61 268 246q106 155 78 342q-4 49 -28 87q18 -11 156 -73q22 -18 40 -46q55 -83 10 -269
q-68 -201 -218 -315q-82 -59 -156 -59zM1638 951q-67 0 -146 55q-171 125 -224 342q0 6 -4 18q-32 160 44 237q65 60 166 19q111 -40 208 -178q119 -175 102 -347q-18 -118 -110 -141q-20 -5 -36 -5zM188 1047q-38 0 -56 9q-81 31 -100 141q-13 205 132 388q102 133 214 164
q56 18 112 -4q57 -22 76 -78l8 -23q28 -101 -12 -228q-54 -171 -178 -278q-96 -82 -170 -91h-26z" />
</svg>