<svg xmlns="http://www.w3.org/2000/svg" xmlns:xlink="http://www.w3.org/1999/xlink" version="1.1" viewBox="-10 0 2066 2048">
   <path fill="currentColor"
d="M1028 0q150 397 454 992q301 588 564 1052q-417 -244 -722 -327q60 -153 62 -280q1 -127 -42 -223q-45 -98 -96 -182q-52 -84 -100.5 -193t-55.5 -216q-178 114 -276 269q-96 154 -104 358q-7 205 100 447q-183 41 -342 110q-170 73 -468 241q705 -1239 1026 -2048z
M1072 847q0 95 48 193q44 91 92 174q45 80 64 175q19 102 -50 244q-71 144 -242 331q108 -124 122 -301q13 -178 -28 -295q-42 -118 -86 -118q-24 0 -62 64q-38 65 -54 151q-16 89 24 180q-12 -19 -38 -74q-22 -49 -42 -144q-19 -94 -12 -187q8 -94 74 -204t190 -189z" />
</svg>