<svg xmlns="http://www.w3.org/2000/svg" xmlns:xlink="http://www.w3.org/1999/xlink" version="1.1" viewBox="-10 0 2067 2048">
   <path fill="currentColor"
d="M1006 17l4 -4q104 0 172 68l784 804q63 63 76.5 117.5t-15.5 96.5q-31 42 -81 75.5t-128 62.5q-51 19 -144 50q-15 5 -43 14t-51 16.5t-44 15.5q-67 22 -106 44q-29 31 22 62q49 30 108 66q58 35 46 68q-20 60 -60 86q-41 25 -84 30q-47 4 -110 32q-65 28 -118 84
q-32 31 30 62q61 30 30 66q-102 75 -240 98q-136 22 -160 -58q-12 -69 -58 -92q-48 -25 -106 -32q-60 -8 -84 -32q-31 -36 36 -106q68 -71 34 -102q-36 -33 -232 -98q-197 -66 -234 -98q-20 -25 12 -50.5t82 -43.5q48 -18 84 -44q35 -26 10 -46q-45 -25 -130 -44
q-82 -19 -148 -38q-62 -18 -114 -48t-44 -92q7 -61 80 -150l756 -772q65 -68 168 -68zM1014 89q-76 0 -124 48q-17 21 -76 80l-112 112q-61 61 -104 108q-45 44 -40 94q4 50 52 50h164l108 -184l64 264l200 -124l124 64l28 -176l148 120q16 -12 12 -48q-5 -37 -24 -56
l-296 -304q-53 -48 -124 -48zM654 1269q-48 0 44 48q212 96 316 92h12q56 -29 40 -48q-5 0 -12 -4q-54 -10 -226 -44q-157 -32 -174 -44zM1840 1485q113 -5 145 80q0 36 -71 44q-74 7 -142 -4q-70 -12 -70 -28q24 -88 138 -92zM534 1649q68 -5 100 36q-28 63 -90 98
q-61 34 -114 -2q-48 -48 -8 -88q39 -40 112 -44zM1666 1653q44 12 72 34t28 42q0 21 -4 32q-68 40 -112 -4t16 -104z" />
</svg>