<svg xmlns="http://www.w3.org/2000/svg" xmlns:xlink="http://www.w3.org/1999/xlink" version="1.1" viewBox="-10 0 2066 2048">
   <path fill="currentColor"
d="M1484 0q225 5 352 36q50 7 93 45q41 37 53 89q64 230 -61 372q89 159 113 336q41 269 -62 527t-318 425q-221 178 -518 211q-296 33 -555 -93q-256 -122 -413 -369q-158 -247 -162 -526q-4 -30 -2 -77q1 -35 8 -89q7 -59 10 -73q-41 -321 4 -511q19 -109 191 -174
q210 -73 352 -16q313 -158 660 -89q64 -16 255 -24zM1492 48q-183 5 -255 28q-320 -73 -616 65q101 65 170 179q117 203 9 303q-26 26 -51 33q-29 8 -61 4q-35 -5 -52 -6q-9 -1 -63 -17q-46 -14 -53 -18q-198 -69 -328 53q-67 -20 21 -77q25 -19 48 -24q32 -14 63 -19
q34 -6 61 -6q23 0 68 8q34 6 61 15q26 9 65 20q49 14 59 18q53 21 107 -6q55 -27 55 -83q0 -173 -183 -320q-115 -98 -336 -41q-27 10 -91 35q-32 12 -73 49q-39 34 -46 79q-41 190 0 514q-48 237 20 470q76 261 296 453q220 191 489 227q254 40 506 -59q252 -100 409 -301
q174 -215 203 -507q28 -290 -101 -534q-6 -4 -77 4q-70 8 -81 -24q-53 -50 -110 -148q-58 -100 -97 -144q-8 -13 -36 -41q-76 -73 -25 -77h13q83 63 182 227q2 2 36 61q33 58 59 79q27 23 67 18q117 -21 129 -214q0 -163 -64 -215q-116 -53 -397 -61zM1593 567q19 0 36 4
q90 12 124 109t-26 166q-56 73 -158 59q-100 -13 -134 -104q-36 -76 18 -157t140 -77zM532 692q121 -4 217 79q94 82 111 201q28 138 -63.5 255t-227.5 129q-137 16 -251 -81t-118 -235q-12 -137 91 -244.5t241 -103.5zM625 866v-4q-88 0 -133 83q-45 82 4 156
q45 74 136 69.5t127 -81.5q44 -68 -4 -148q-48 -79 -130 -75zM1472 996q15 0 28 14q12 13 4 30q-36 77 -85 173q-59 114 -73 139q56 69 150 73q94 5 158 -52q60 -52 60 -154q57 -48 61 24q7 62 -20 97q-53 117 -190 144t-235 -59q-20 85 -97 140q-78 55 -166 55
q-76 0 -150 -41q-74 -40 -81 -105q33 -33 87 24q54 58 91 53q88 24 173.5 -33t81.5 -149q-57 -36 -135 -77q-82 -43 -120 -65q-33 -12 -51 -39q-17 -26 19 -50q13 -3 212 -61q58 -17 151 -44t127 -37z" />
</svg>