<svg xmlns="http://www.w3.org/2000/svg" xmlns:xlink="http://www.w3.org/1999/xlink" version="1.1" viewBox="-10 0 2058 2048">
   <path fill="currentColor"
d="M1014 0h-4q79 16 92 24q44 26 172 99t211 120q228 131 277 164q136 65 141 181v304v304q0 9 2 87q2 66 -2 104q-5 47 -12 87q-16 44 -46 74q-32 32 -99 67t-76 44q13 7 105 61q23 15 56 32q39 21 66 44q23 20 35 56q4 28 -19 57q-22 28 -38 38q-19 12 -56 34
q-145 105 -314 45q-43 -18 -139 -75q-27 -16 -50 -29.5t-36 -21l-13 -7.5q-24 13 -96 56q-158 101 -262 32q-415 -239 -620 -358q-181 -95 -173 -218v-721q-8 -200 105 -257q37 -20 245 -141q272 -158 298 -173q18 -7 73 -43q50 -33 92 -50q37 -15 85 -20zM1002 451h-4l-8 4
l-33 12q-13 8 -143 82q-112 64 -142 79q-12 12 -47 30q-32 17 -52 30q-16 10 -34 39q-15 24 -20 54v322q4 13 2 57q-2 40 0 62q1 19 16 50q13 28 38 45l290 169q15 6 36 20q25 17 40 24q25 11 39 16q22 8 43.5 6.5t42.5 -14.5q13 -8 143 -82q85 -49 143 -83q19 -12 46 -26
q37 -19 53 -30q17 -11 36 -38q18 -25 18 -59v-326q-4 -13 -2 -55q1 -38 0 -60q-1 -19 -16 -50q-13 -27 -39 -45q-76 -41 -148 -84q-91 -54 -121 -69q-16 -7 -53 -32q-36 -24 -66 -36t-58 -12z" />
</svg>