<svg xmlns="http://www.w3.org/2000/svg" xmlns:xlink="http://www.w3.org/1999/xlink" version="1.1" viewBox="-10 0 2068 2048">
   <path fill="currentColor"
d="M1644 331q90 0 159 45q69 46 104 108q34 63 57 126q21 59 26 108l4 45q-1 -2 -8 -18q-6 -12 -22 -43q-11 -19 -37 -59q-17 -25 -51 -53q-31 -25 -69 -41q-36 -15 -84 -10q-50 5 -100 32q-245 131 -224 461q0 38 14 49q15 12 27 8l8 -8q12 8 175 -167q71 -76 135 -116
q61 -39 85 -39h25q4 0 20 2q13 2 45 22q33 22 57 49q25 30 43 90q18 63 14 143q-5 131 -32 230q-30 106 -57 141l-29 41q33 -490 -126 -461q-59 17 -155 118q-110 110 -261 20q-82 -45 -128 -120q-47 -75 -51 -128l-9 -53q0 -7 2 -47q1 -23 21 -112q17 -80 53 -149
q34 -68 112 -129q75 -60 187 -81q32 -4 70 -4zM943 518q55 0 98.5 27t51.5 71q12 54 -30.5 102t-113.5 63q-72 15 -129.5 -12t-68.5 -79q-13 -53 31 -102q43 -50 112 -66q21 -4 49 -4zM119 571q-17 244 15 359.5t112 101.5q59 -16 154 -118q110 -110 261 -21q82 46 129 121
q47 77 55 128l4 53v47q0 31 -18 112q-18 80 -53 149q-34 66 -115 129q-79 61 -187 79t-192 -18q-83 -36 -124 -104q-39 -65 -67 -135q-27 -66 -31 -120l-8 -49q1 2 8 18q1 4 23 43q18 34 38 59q20 27 53 53q29 24 68 41q33 15 83 10t98 -32q248 -130 224 -461q0 -37 -12 -49
q-13 -13 -25 -8l-12 8q-13 -8 -175 167q-72 76 -135 116q-62 39 -85 39h-25q-4 0 -20 -2q-13 -2 -45 -22q-33 -21 -55 -49q-24 -30 -41 -90q-18 -62 -18 -143q4 -130 33 -232q29 -104 57 -139zM992 816q52 0 88.5 35t41.5 87q0 89 59 184q57 93 120 143l61 49
q-118 -4 -214 -39q-92 -33 -144 -74q-48 -38 -88 -98q-39 -58 -43 -73q-5 -15 -12 -39q-8 -22 -8 -40q0 -57 41 -96q40 -39 93 -39h5z" />
</svg>