<svg xmlns="http://www.w3.org/2000/svg" xmlns:xlink="http://www.w3.org/1999/xlink" version="1.1" viewBox="-10 0 2068 2048">
   <path fill="currentColor"
d="M972 52q5 11 13 29t23 52.5t26 60.5q43 98 58 136q12 30 54 126q36 82 68 150q17 36 80 162q36 72 110 214q15 28 60 114t74 142q83 160 174 326q-104 -60 -268 -104q59 31 116 68q41 27 84 56q14 10 76 58q46 36 60 50q100 184 164 304q-471 -273 -760 -328
q12 -48 12 -104q4 -146 -58 -260q-61 -112 -154 -118q-92 -6 -158 92q-65 97 -70 246v12q0 64 12 132q-290 55 -768 328q519 -929 708 -1328q101 87 280 160q-129 -90 -252 -220q60 -122 236 -556zM1952 1824v-56h-16v-4h44v4h-20v56h-8zM1992 1824v-60h12l12 40q4 7 4 12
q0 -5 4 -12l12 -40h12v60h-8v-52l-16 52h-8l-16 -52v52h-8z" />
</svg>