<svg xmlns="http://www.w3.org/2000/svg" xmlns:xlink="http://www.w3.org/1999/xlink" version="1.1" viewBox="-10 0 2068 2048">
   <path fill="currentColor"
d="M990 51l-4 -4q21 -15 48 -20q24 -4 48 0q51 12 80 56q84 132 140 252q132 -196 368 -196q54 0 92 36q38 37 38 88.5t-38 87.5q-39 37 -92 37q-176 0 -224 108q-40 84 -12 304q13 96 0 221q-11 147 -72 312q58 0 136 -52q100 -64 128 -176q28 -109 20 -293q0 -53 34 -90
q36 -38 88 -40q53 -1 90 34q37 36 42 88q7 229 -72 421q46 -4 96 -4q52 0 88 36t36 88q0 54 -36 91q-37 38 -88 38q-365 0 -571.5 118t-206.5 331q0 40 -52 70t-108 30q-63 0 -118 -26q-54 -25 -54 -74q0 -84 -68 -137q-67 -51 -154 -70q-89 -18 -190 -54q-106 -36 -158 -84
q-244 -191 -244 -585q0 -52 36 -88q38 -37 88 -37q52 0 90 37t38 88q0 244 126 364q4 -112 12 -144q6 -35 22 -92q10 -37 38 -118q25 -75 32 -106q44 -134 28 -205q-29 -108 -182 -224q-39 -31 -46 -84q-5 -52 26 -93q32 -40 86 -48q51 -7 92 24q219 172 268 365
q23 108 0 236q115 -48 236 -48q52 0 88 36t36 89t-36 90q-36 38 -88 38q-117 0 -232 72q-96 60 -106 198q-11 139 102 139q333 0 436 -485q36 -352 -236 -774q-29 -44 -18 -94q10 -49 54 -78z" />
</svg>