<svg xmlns="http://www.w3.org/2000/svg" xmlns:xlink="http://www.w3.org/1999/xlink" version="1.1" viewBox="-10 0 2068 2048">
   <path fill="currentColor"
d="M1022 0q42 0 58 40q343 19 600 248q11 -4 24 -4q24 0 42 18t18 42q0 13 -4 24q229 257 248 600q40 12 40 54t-40 58q-19 343 -248 600q4 11 4 24q0 24 -18 42t-42 18q-13 0 -24 -4q-257 229 -600 248q-12 40 -54 40t-58 -40q-343 -19 -600 -248q-11 4 -24 4
q-24 0 -42 -18t-18 -42q0 -13 4 -24q-229 -257 -248 -600q-40 -12 -40 -56t40 -56q19 -343 248 -600q-4 -11 -4 -24q0 -24 18 -42t42 -18q17 0 24 4q257 -229 600 -248q12 -40 54 -40zM968 88q-323 19 -564 236q4 11 4 20q0 28 -18 46t-46 18q-9 0 -20 -4q-217 241 -236 564
q36 16 36 56t-36 56q19 323 236 564q7 -4 20 -4q28 0 46 18t18 46q0 13 -4 20q241 217 564 236q17 -36 56 -36q40 0 56 36q323 -19 564 -236q-4 -7 -4 -20q0 -28 18 -46t46 -18q13 0 20 4q217 -241 236 -564q-36 -16 -36 -56t36 -56q-19 -323 -236 -564q-7 4 -20 4
q-28 0 -46 -18t-18 -46q0 -13 4 -20q-241 -217 -564 -236q-16 36 -56 36q-39 0 -56 -36zM1024 296q44 0 56 40q268 24 452 220t184 466q0 271 -184 468q-185 198 -452 222q-12 40 -56 40t-56 -40q-268 -24 -452 -220t-184 -466q0 -271 184 -468q185 -198 452 -222
q12 -40 56 -40zM1080 384q-16 36 -56 36q-39 0 -56 -36q-248 24 -416 206t-168 434q0 253 168 434q168 182 416 206q17 -36 56 -36q40 0 56 36q248 -24 416 -206t168 -434t-168 -434t-416 -206zM776 1024q0 -104 72 -176t176 -72t176 72t72 176t-72 176t-176 72t-176 -72
t-72 -176z" />
</svg>