<svg xmlns="http://www.w3.org/2000/svg" xmlns:xlink="http://www.w3.org/1999/xlink" version="1.1" viewBox="-10 0 2068 2048">
   <path fill="currentColor"
d="M1024 72q42 82 104 156q236 273 196 496q52 -48 84 -60q128 -48 276 -48h56q128 12 308 60q-52 76 -84 168q-55 162 -134 270q-78 107 -202 150q-55 16 -136 24q120 48 164 92q111 123 164 292q36 120 60 304q-92 -17 -188 -12q-364 12 -512 -160q-84 -96 -156 -304
q-22 59 -32 80q-64 135 -138 220t-114 104q-152 72 -328 72q-128 0 -308 -36q44 -81 68 -176q48 -167 116 -278q68 -110 192 -162q31 -14 36 -16q-152 -24 -208 -68q-132 -108 -208 -268q-52 -111 -100 -292q92 5 188 -12q127 -24 220 -24q181 0 300 100q-20 -84 -12 -128
q24 -165 124 -308q73 -105 204 -236zM1000 332q-29 284 0 644q-16 0 -48 -6q-37 -7 -48 -8q-17 -2 -44 10q-27 19 -44 80q-18 64 -20 68l-2 2l-2 2l-564 -300q314 205 552 320q-4 8 -18 24q-9 11 -22 24q-8 8 -14 24t-6 32q0 23 14 46q12 20 38 46q25 25 32 40q10 15 16 32
l-500 396q263 -148 512 -376q16 44 48 60q32 8 48 6q9 -1 46 -10q32 -8 48 -8q18 0 54 6t54 6t50 -12q28 -19 40 -48q247 235 464 384l-456 -396q7 -31 12 -80q0 -37 40 -68t40 -60q-5 -22 -14 -36q-10 -15 -30 -34q-26 -24 -28 -26l548 -324q-278 125 -560 312v-4
q-8 -12 -24 -66q-17 -54 -44 -70q-34 -8 -48 -8q-17 0 -50 10t-50 10zM1028 992q25 0 38 52q14 52 30 60t78 0t66 12q12 20 -40 56t-52 54q0 17 44 58t32 60q-12 24 -62 22t-66 14q-7 20 -16 38q-12 26 -24 36q-11 10 -36 10q-24 -4 -36 -48q-12 -45 -28 -56q-18 -8 -76 2
q-60 10 -60 -18q-12 -24 24 -50t36 -52t-42 -64t-30 -58t62 -14q49 6 74 -2q15 -11 38 -62q23 -50 46 -50z" />
</svg>