<svg xmlns="http://www.w3.org/2000/svg" xmlns:xlink="http://www.w3.org/1999/xlink" version="1.1" viewBox="-10 0 2058 2048">
   <path fill="currentColor"
d="M1184 0l-4 616l452 -600l360 80l-468 604l464 636l-352 112l-456 -660v596l-336 52v-1404zM414 342q6 -2 10 2l256 168q44 -24 100 -44v140q-143 64 -232 198q-88 133 -88 298q0 224 158 382t382 158q155 0 286 -80q130 -80 198 -216l132 196q4 4 12 4l28 -12l92 152
q8 13 -4 20l-132 136q-12 8 -20 0l-252 -164q-77 48 -164 72l-68 284q-4 12 -20 12h-188q-12 0 -16 -12l-60 -284q-81 -23 -160 -68l-252 152q-12 8 -20 0l-136 -136q-8 -8 0 -20l160 -248q-44 -80 -68 -172l-280 -68q-12 -4 -12 -16v-188q0 -16 12 -20l288 -60
q23 -74 68 -148l-156 -260q-8 -8 0 -20l136 -132q5 -5 10 -6z" />
</svg>