<svg xmlns="http://www.w3.org/2000/svg" xmlns:xlink="http://www.w3.org/1999/xlink" version="1.1" viewBox="-10 0 2058 2048">
   <path fill="currentColor"
d="M622 0q24 0 28 24v430v427q101 86 446 370v-861q-9 -9 -64 -48l285 -145q37 -25 61 4q0 79 -2 617q0 111 -0.5 226.5t-1 175.5t-0.5 83l434 358q15 4 14 22q-2 18 -14 18q-107 57 -346 177q-240 120 -269 133q-5 5 -38 22q-35 19 -55 14q-100 -75 -215 -167
q-124 -100 -187 -147q-6 -10 -32 -28q-28 -19 -36 -36q0 -54 4 -129t4 -108q-60 -49 -199 -163q-131 -106 -147 -123q-4 -3 -32 -26q-29 -23 -36 -38v-400v-401v-44q0 -39 8 -44q37 -22 141 -74q55 -27 84 -42t32 -17q17 -6 59 -28q50 -25 74 -32zM582 76q-13 5 -34 16
q-21 12 -27 17q0 112 9 792q5 0 16 -4q12 -4 24 -12l20 -12q0 -111 -8 -797zM461 137q-46 21 -100 50q-62 33 -85 42v805q67 -36 121 -61q-30 -25 -72 -52v-46v-46q12 9 44 34q25 20 52 40q34 25 44 34q4 -7 4 -50v-54q-20 -14 -136 -105v-97q30 25 62.5 51.5t48 39.5
t21.5 18q0 -4 2 -54t2 -55q-14 -9 -74 -58q-11 -9 -26 -21t-23 -18.5t-13 -10.5v-97q30 30 74 65q47 38 58 44v-50v-51q-31 -21 -68 -52q-15 -13 -36.5 -30t-27.5 -22v-49v-44l132 105v-67q0 -20 -2 -74t-2 -64zM735 338q17 12 54 42q34 27 58 42v137q-24 -16 -66 -48
q-40 -30 -46 -40v-133zM940 495q80 112 88 253q5 53 -18 97t-70 28v-378zM735 579l108 89q0 10 2 68t2 68q-7 -6 -27.5 -22t-30.5 -24q-37 -30 -54 -42v-137zM1506 756q19 0 37 8q15 7 36 28q18 18 28 24q12 12 12 -4q0 -40 8 -40q24 17 60 48q36 32 45 37q12 13 32 26
q12 8 36 28q16 13 24 34v141v145q-4 10 -2 26q2 18 2 28q0 13 -8 18q-38 -26 -96 -76q-64 -56 -69 -61q-36 -17 -32 -84q-101 -81 -129 -145q-76 -157 16 -181zM1539 829q-29 0 -25 36q0 76 105 157v-137q-7 -4 -24 -17.5t-30 -24.5q-11 -8 -26 -14zM618 921
q-93 50 -314 157q6 5 101 83t163 134q48 40 94.5 78t69 56.5t27.5 22.5q73 -35 171 -85q41 -21 87.5 -44.5t54.5 -27.5q-51 -41 -259 -213q-47 -39 -94.5 -78.5t-70.5 -58.5t-30 -24z" />
</svg>