<svg xmlns="http://www.w3.org/2000/svg" xmlns:xlink="http://www.w3.org/1999/xlink" version="1.1" viewBox="-10 0 2068 2048">
   <path fill="currentColor"
d="M1536 792q-57 -62 -96 -92q-43 -33 -92 -46q-53 -13 -106 22q-55 37 -114 124q-113 163 -410 562q-328 441 -394 522q-62 70 -76 76q0 -20 96 -184q98 -167 260 -430q167 -272 172 -282q41 -69 68.5 -117t40.5 -71.5t11 -23.5q-40 0 -148 112q-46 49 -188 228
q-139 176 -244 304q-54 67 -84 98.5t-36 29.5q7 -27 180 -292q167 -256 276 -412q120 -168 40 -168q-15 0 -36 4q-125 31 -290 92q-158 59 -262 102q-101 42 -104 42q5 -8 304 -216q305 -212 634 -420q336 -213 406 -220q8 0 24 -10q19 -12 44 -24q34 -16 60 -26
q128 -53 136 -48q-20 33 -44 58q-25 26 -32 38q-8 13 -8 24q0 88 -32 124q108 72 194 224q87 154 148 382t96 404q30 152 74 446q44 284 44 292q0 -3 -56 -180q-45 -143 -118 -356q-61 -178 -158 -386q-97 -207 -180 -298v-8z" />
</svg>