<svg xmlns="http://www.w3.org/2000/svg" xmlns:xlink="http://www.w3.org/1999/xlink" version="1.1" viewBox="-10 0 2058 2048">
   <path fill="currentColor"
d="M850 0q142 0 271 56q272 120 549 369q277 248 318 402q17 52 12 126q-5 76 -28 118q-78 146 -383 395q-255 216 -544 380q-291 165 -515 196q-162 24 -283 -44q-108 -60 -168 -180q-32 -66 -32 -188q0 -129 180 -316q96 -99 291 -267q-13 -8 -84 -46q-83 -44 -103 -54
q-37 -18 -88 -56q-48 -36 -80 -68q-88 -96 -76 -216q19 -169 208 -361q188 -191 447 -234q53 -12 108 -12zM846 8h-20q-283 12 -501 216q-218 205 -202 371q0 32 20 64q19 30 50 60q23 21 68 56q35 26 78 52q46 27 81 46q29 15 78 38q28 13 64 28q35 15 44 18q16 6 16 10
q-176 149 -252 219q-179 162 -247 276q-68 113 -20 240q36 107 110 154q73 46 163 42q90 -5 198 -24q260 -53 601 -256q339 -203 575 -435q234 -231 214 -356q-29 -145 -310 -392q-283 -249 -521 -363q-138 -69 -287 -64zM838 52q142 -5 367 124q246 138 491 395
q107 119 144 188q32 64 12 132q-7 31 -148 172q-139 139 -295 259q-383 299 -691 412q-120 48 -242 60t-213 -28q-59 -31 -83.5 -94t-20.5 -126q5 -31 20 -64q17 -38 50 -76q51 -60 62 -72q41 -45 79 -80q73 -67 80 -73q52 -46 92 -80q23 -19 50.5 -42t33.5 -28
q115 -100 60 -128q-4 -2 -122 -56q-94 -44 -138 -66q-34 -18 -107 -60q-55 -32 -104 -70q-56 -49 -40 -124q36 -167 203 -291q139 -108 206 -138q65 -29 210 -46h44zM934 359h-12q-148 4 -160 196q-5 92 126 159.5t197 44.5q104 -36 144 -90t22 -104t-62 -92
q-42 -41 -104 -70q-85 -44 -151 -44zM946 475q100 -5 173 66q73 70 -18 154h-4q0 -28 -86 -48q-85 -20 -97 8q-84 -60 -20 -156q17 -24 52 -24z" />
</svg>