<svg xmlns="http://www.w3.org/2000/svg" xmlns:xlink="http://www.w3.org/1999/xlink" version="1.1" viewBox="-10 0 2068 2048">
   <path fill="currentColor"
d="M56 12q28 0 44 24l156 200q26 -8 44 -8h1448q23 0 44 8l156 -200q16 -24 44 -24q20 0 36 12q20 17 20 44q0 20 -12 36l-160 212q8 26 8 48v316q0 56 -40 96t-96 40h-1448q-56 0 -96 -40t-40 -96v-316q0 -24 12 -48q-4 -6 -13.5 -18.5t-14.5 -19.5q-12 -16 -52 -68
q-24 -31 -60 -76l-24 -30q-12 -16 -12 -36q0 -27 24 -44q12 -12 32 -12zM590 396q-63 0 -106 46q-44 47 -44 108q0 62 44 106t106 44q61 0 108 -44q46 -43 46 -106q0 -62 -46 -108t-108 -46zM1474 396q-62 0 -108 46t-46 108q0 63 46 106q47 44 108 44t108 -44
q46 -43 46 -106q0 -62 -46 -108t-108 -46zM304 864h1448q55 0 96 38q40 37 40 94v908q0 57 -40 94q-41 38 -96 38h-1448q-55 0 -96 -38q-40 -37 -40 -94v-908q0 -57 40 -94q41 -38 96 -38zM1028 976q-196 0 -336 138t-140 334t140 336t334 140t334 -140t140 -336t-138 -334
t-334 -138zM1026 1060q162 0 276 114t114 276t-114 276t-276 114t-276 -114t-114 -276t114 -276t276 -114zM1028 1168q-100 0 -176 60t-100 148h148q40 -72 128 -72q60 0 102 42t42 104t-42 104t-102 42q-96 0 -136 -84h-140q20 96 98 158q79 62 178 62q116 0 198 -82
t82 -200t-82 -200t-198 -82z" />
</svg>