<svg xmlns="http://www.w3.org/2000/svg" xmlns:xlink="http://www.w3.org/1999/xlink" version="1.1" viewBox="-11 0 2070 2048">
   <path fill="currentColor"
d="M1032 0q412 4 710 296t306 708q7 424 -286 730q-295 306 -718.5 313.5t-729.5 -285.5q-306 -295 -314 -718q-7 -425 286 -730q295 -307 718 -314h28zM1020 288q-25 5 -32 26q-9 26 -10 60l-2 50q-12 7 -10 18q1 8 6 26q4 15 4 20q-5 20 11.5 38t36.5 18t28 -20
q23 -67 4 -180q-8 0 -12.5 -28t-23.5 -28zM1012 588q-25 5 -42 22q-19 18 -24 34q-8 22 -18 52q-12 36 -12 44q-21 87 -26 192q-6 101 -4 196q1 105 -2 196q0 9 4 20t-8 16q-17 36 -44 38q-31 1 -72 -20q-38 -20 -56 -26q-26 -7 -104 -48q-75 -40 -124 -40q-67 -24 -112 32
q-44 57 20 100q8 16 24 28q21 15 26 18q25 14 32 18q6 3 13.5 6.5t11 6t5.5 3.5q50 32 134 100q94 75 166 114q75 41 160 46q103 19 216 -84q44 -31 140 -84t148 -92q119 -72 160 -172q52 -48 6 -88t-98 -20q-34 13 -136 90q-104 78 -176 90q-52 -8 -84 -44t-8 -84
q3 -4 -2.5 -20t2.5 -24q3 -10 2 -40q-2 -29 6 -36v-124v-124q-8 -50 -28 -208q-4 0 -10 -14l-8 -16q-3 -3 -8.5 -12t-9.5 -14l-12 -12q-9 -9 -14 -10q-2 0 -7 -2t-7 -2q-11 -2 -20 -2zM1816 1048q-145 29 -164 120l4 4q28 48 80 32q47 -12 90 -62q42 -50 6 -90q-7 -4 -16 -4
zM192 1132q36 127 108 144q28 -4 50 -28q23 -24 -10 -44q-42 -38 -104 -72h-44z" />
</svg>