<svg xmlns="http://www.w3.org/2000/svg" xmlns:xlink="http://www.w3.org/1999/xlink" version="1.1" viewBox="-10 0 2068 2048">
   <path fill="currentColor"
d="M1050 20v4q255 0 478 117q225 118 372 352q148 234 148 529q0 416 -292 711q-290 295 -706 295q-234 0 -438 -103q-205 -104 -346 -281l126 -81q122 146 292 228q173 83 370 83q352 0 602 -248q250 -249 250 -602t-250 -604q-250 -250 -602 -250q-200 0 -370 82
q-168 81 -292 229l-126 -77q146 -177 350 -281q204 -103 434 -103zM0 392l1058 622l-1058 622v-1244zM1050 412q253 0 434 178q180 176 180 432q0 255 -180 434q-180 180 -434 180q-266 0 -452 -202l126 -81q138 138 330 138q190 0 326 -136q134 -135 134 -329t-134 -329
q-136 -136 -325 -136t-323 134l-134 -81q182 -202 452 -202z" />
</svg>