<svg xmlns="http://www.w3.org/2000/svg" xmlns:xlink="http://www.w3.org/1999/xlink" version="1.1" viewBox="-10 0 2068 2048">
   <path fill="currentColor"
d="M1024 0q424 0 724 300t300 724t-300 724t-724 300t-724 -300t-300 -724t300 -724t724 -300zM1052 40q-393 5 -670 280q-278 276 -278 668q0 391 278 672q277 280 670 280q391 0 672 -278q280 -277 280 -674q-5 -393 -282 -670q-278 -278 -670 -278zM1104 196
q304 0 520 216t216 520t-216 518q-215 214 -520 214q-304 0 -518 -214t-214 -518q0 -305 214 -520q214 -216 518 -216zM1012 556q-196 0 -334 138t-138 332t138 332t334 138h4q192 0 330 -138t138 -332t-138 -332t-330 -138h-4zM892 816l336 204l-336 216v-420z" />
</svg>