<svg xmlns="http://www.w3.org/2000/svg" xmlns:xlink="http://www.w3.org/1999/xlink" version="1.1" viewBox="-10 0 2068 2048">
   <path fill="currentColor"
d="M276 1648l-276 -180v-292v-292l512 -332q509 -332 510 -332q2 0 514 332l512 332v292v292l-276 180q-275 175 -278 178q-2 2 -234 -150l-236 -152l-232 152q-236 152 -238 152t-278 -180zM548 1456v-232l-224 -144q-219 -143 -224 -148v10v36q0 12 -2 70t-2 116v236
l224 144q224 144 226 144t2 -232zM1488 1456v-232l-8 -4q-2 -2 -222 -146l-218 -142v232v236l220 144l224 144q4 0 4 -10v-36v-70v-116zM1724 1056q68 -44 108 -72q23 -16 66 -44q19 -12 36 -22q10 -6 6 -10l-222 -144q-222 -144 -224 -144t-224 144t-222 146t224 148
t228 144q1 0 224 -146zM782 1058q222 -146 222 -148t-224 -146t-228 -144l-222 144q-222 144 -224 146q-1 1 23 17t76 50.5t123 80.5q224 146 228 146q3 0 226 -146zM1250 752l222 -144l-30 -20q-37 -24 -80 -54q-35 -24 -114 -74l-224 -148l-224 148q-224 144 -224 146
t224 146t226 144t224 -144z" />
</svg>