<svg xmlns="http://www.w3.org/2000/svg" xmlns:xlink="http://www.w3.org/1999/xlink" version="1.1" viewBox="-10 0 2067 2048">
   <path fill="currentColor"
d="M1158 54l-4 4h24q80 8 151 56q68 46 110 121l608 84h-692q-66 -87 -177 -104q-77 -8 -148 22q-73 30 -116 94q-43 65 -48 140q-4 76 32 144q-67 -77 -83.5 -180.5t32 -196t139.5 -144.5q79 -40 172 -40zM53 175l933 669l-769 -429q-36 109 -8 216q30 100 92 165
q49 53 112 84l521 144l-645 -104q12 95 68 172q104 144 285 144q-173 44 -329 -48q-100 -64 -156 -168q-52 -107 -40 -224l136 36q-75 -40 -128 -105q-101 -113 -120 -264q-19 -152 48 -288zM1307 511v28q0 129 112 349q116 221 116 344q5 157 -96 285q-87 119 -241 184
q-204 84 -420 36l-108 257v-361q204 48 392 -32q125 -48 201 -136q88 -96 108 -213q17 -112 -48 -322q-64 -210 -48 -319q7 -50 32 -100z" />
</svg>