<svg xmlns="http://www.w3.org/2000/svg" xmlns:xlink="http://www.w3.org/1999/xlink" version="1.1" viewBox="-10 0 2068 2048">
   <path fill="currentColor"
d="M1860 96h-1672q-78 0 -133 55t-55 127v1490q0 74 55 129t133 55h1672q78 0 134 -54q54 -54 54 -130v-1490q0 -74 -54 -128q-56 -54 -134 -54zM1860 1768h-1672v-1302h1672v1302zM1452 654q104 91 162 210q60 122 60 252t-60 252q-58 123 -162 214l-148 -58
q88 -67 136 -176q50 -112 50 -230.5t-49.5 -230.5t-136.5 -181zM598 654l148 52q-88 69 -138 181t-50 230.5t50 230.5q49 109 138 176l-148 58q-105 -91 -164 -214q-58 -122 -58 -252t58 -252q59 -119 164 -210zM1034 1024l130 -188h140l-206 280l122 278h-122l-74 -182
l-130 182h-148l214 -288l-122 -270h122z" />
</svg>