<svg xmlns="http://www.w3.org/2000/svg" xmlns:xlink="http://www.w3.org/1999/xlink" version="1.1" viewBox="-10 0 2058 2048">
   <path fill="currentColor"
d="M1054 1947h-662q-84 0 -141 -57t-57 -135v-1563q0 -78 57 -135t141 -57h780l586 585v338q-64 -29 -196 -46v-196h-490v-489h-680v1563h534q39 86 128 192zM1466 973l-216 215l216 215v-137q100 0 171 71t71 171q0 63 -28 110l104 105q70 -100 70 -215q0 -160 -114 -274
t-274 -114v-147zM1680 1833l-214 -224v146q-106 0 -177 -71t-71 -176q0 -64 32 -105l-110 -110q-68 103 -68 215q0 165 114 279t280 114v147z" />
</svg>