<svg xmlns="http://www.w3.org/2000/svg" xmlns:xlink="http://www.w3.org/1999/xlink" version="1.1" viewBox="-10 0 2068 2048">
   <path fill="currentColor"
d="M1924 2048l-750 -750l-434 435l-136 -137q-47 14 -70 41q-8 14 -8 23l-18 41q-24 46 -42 73q-16 24 -34 43q-17 16 -34 28q-15 10 -28 16q-55 18 -164 18h-24v-197h88q20 0 28 -4l4 -5q10 -11 18 -27l22 -64q19 -42 42 -69l36 -36q26 -20 38 -28l-128 -128l434 -434
l-764 -763l124 -124l1924 1925zM1938 124l-800 109l690 691zM1498 974l-410 -412l-78 78l412 412z" />
</svg>