<svg xmlns="http://www.w3.org/2000/svg" xmlns:xlink="http://www.w3.org/1999/xlink" version="1.1" viewBox="-10 0 2058 2048">
   <path fill="currentColor"
d="M923 1538v34q0 53 -14 106q-19 75 -63 163q-48 101 -129 207h615q-150 -194 -193 -370q-19 -88 -14 -140l34 24q48 33 105 48q78 29 173 29q97 0 193 -60q95 -59 156 -154q60 -93 60 -194q0 -149 -63 -284q-48 -115 -149 -236q-73 -89 -204 -221q-129 -130 -214 -226
q-118 -138 -192 -264q-74 126 -192 264q-85 96 -214 226q-131 132 -204 221q-101 121 -149 236q-63 135 -63 284q0 99 61 194t156 154q96 60 192 60q95 0 173 -29q59 -15 106 -48zM1125 1231h-202l-33 53q-47 55 -106 96q-77 53 -168 53q-72 0 -140 -68q-67 -67 -67 -134
q-9 -145 111 -313q72 -106 264 -303q176 -182 240 -269q66 86 226 245q202 206 274 313q124 178 115 327q0 67 -67 134q-68 68 -139 68q-125 0 -231 -101q-49 -53 -77 -101z" />
</svg>