<svg xmlns="http://www.w3.org/2000/svg" xmlns:xlink="http://www.w3.org/1999/xlink" version="1.1" viewBox="-10 0 2068 2048">
   <path fill="currentColor"
d="M1860 96h-1672q-78 0 -133 55t-55 127v1490q0 74 55 129t133 55h1672q78 0 134 -54q54 -54 54 -130v-1490q0 -74 -54 -128q-56 -54 -134 -54zM934 932h-188v140q0 74 -54 128t-134 54q78 0 134 56q54 54 54 132v140h188v186h-188q-80 0 -134 -54t-54 -132v-48
q0 -74 -54 -128q-54 -56 -128 -56v-186q74 0 128 -56q54 -54 54 -132v-44q0 -78 54 -132q56 -56 134 -56h188v188zM1674 1350q-74 0 -130 56q-54 54 -54 128v48q0 78 -54 132t-132 54h-188v-186h188v-140q0 -78 54 -132q54 -56 132 -56q-78 0 -132 -54t-54 -128v-140h-188
v-188h188q78 0 132 56q54 54 54 132v44q0 78 54 132q56 56 130 56v186zM1860 558h-1672v-280h1672v280z" />
</svg>