<svg xmlns="http://www.w3.org/2000/svg" xmlns:xlink="http://www.w3.org/1999/xlink" version="1.1" viewBox="-10 0 2068 2048">
   <path fill="currentColor"
d="M1946 1332v-48q0 -106 -74 -183q-76 -77 -180 -77q-106 0 -184 77q-76 76 -76 183v48q-38 0 -69 31t-31 74v409q0 44 30 72q33 29 70 29h514q44 0 73 -29t29 -72v-409q0 -42 -30 -74q-28 -31 -72 -31zM1846 1332h-308v-48q0 -67 44 -111q42 -43 108 -43q65 0 110 43
q46 44 46 111v48zM1124 1538h-100v-408h230q48 -130 150 -207h-380v-409h614v313l54 -5q72 0 154 24v-538q0 -87 -60 -147t-148 -60h-1436q-82 0 -142 60t-60 147v1230q0 87 60 147t142 60h922v-207zM818 1538h-616v-408h616v408zM818 923h-616v-409h616v409z" />
</svg>