<svg xmlns="http://www.w3.org/2000/svg" xmlns:xlink="http://www.w3.org/1999/xlink" version="1.1" viewBox="-10 0 2068 2048">
   <path fill="currentColor"
d="M230 0h1588q96 0 164 67q66 66 66 162v1590q0 96 -66 162q-68 67 -164 67h-1588q-96 0 -163 -67t-67 -162v-1590q0 -95 67 -162t163 -67zM598 1365h170l112 -389v389h170v-682h-256l-110 389l-112 -389h-256v682h170v-389zM1194 683v682h172v-229h132l96 229h172
l-108 -240q46 -20 78 -64q30 -42 30 -96v-112q0 -74 -51 -122t-121 -48h-400zM1366 853h228v112h-228v-112z" />
</svg>