<svg xmlns="http://www.w3.org/2000/svg" xmlns:xlink="http://www.w3.org/1999/xlink" version="1.1" viewBox="-10 0 2068 2048">
   <path fill="currentColor"
d="M1096 1318q21 13 48.5 13t49.5 -13l472 -276v27q116 0 191 40v-174l93 -53q36 -22 45 -60q9 -39 -4 -74l-143 -240q-18 -35 -40 -44l-747 -419q-41 -18 -58.5 -18t-57.5 18l-738 419q-41 18 -49 35l-143 249q-23 36 -9.5 74t49.5 60q17 13 45 13q27 0 49 -13v521
q0 53 49 84l747 419q38 17 57.5 17t58.5 -17l84 -49q-27 -53 -49 -187v-352zM909 1670l-569 -325v-637l569 325v637zM1773 757l-601 343l-53 -98l596 -338zM1003 860v-623l569 311zM1764 1260v285h284v192h-284v284h-192v-284h-284v-192h284v-285h192z" />
</svg>