<svg xmlns="http://www.w3.org/2000/svg" xmlns:xlink="http://www.w3.org/1999/xlink" version="1.1" viewBox="-10 0 2068 2048">
   <path fill="currentColor"
d="M1868 1038q18 0 36 14l124 128q20 15 20 38q0 21 -20 36l-96 96l-202 -198l102 -100q14 -14 36 -14zM1674 1208l204 202l-598 594h-204v-202zM782 44h396q78 0 136 58t58 134v198h394q78 0 136 58t58 140l-194 194v-194h-1572v1078h690v198h-690q-78 0 -136 -58t-58 -140
v-1078q0 -82 58 -140t136 -58h396v-198q0 -78 56 -134q58 -58 136 -58zM1178 434v-198h-396v198h396z" />
</svg>