<svg xmlns="http://www.w3.org/2000/svg" xmlns:xlink="http://www.w3.org/1999/xlink" version="1.1" viewBox="-10 0 2068 2048">
   <path fill="currentColor"
d="M1202 1332l-400 692q116 24 222 24q181 0 348 -60q165 -60 300 -171l-374 -649zM44 1332q71 225 234 396q165 172 380 253l380 -649h-994zM668 1024l-398 -692q-133 138 -200 315q-70 180 -70 377q0 103 20 207h768zM2028 817h-768l518 899q132 -142 200 -317
q70 -181 70 -375q0 -104 -20 -207zM2004 716q-72 -225 -236 -396q-164 -172 -380 -253l-378 649h994zM760 870l484 -846q-115 -24 -220 -24q-182 0 -348 60t-302 171l376 649z" />
</svg>