<svg xmlns="http://www.w3.org/2000/svg" xmlns:xlink="http://www.w3.org/1999/xlink" version="1.1" viewBox="-10 0 2068 2048">
   <path fill="currentColor"
d="M1971 1150h-172v776h-680v-322l272 -272l68 14q86 0 145 -59t59 -143q0 -83 -59 -146q-58 -60 -145 -60t-145 60q-59 63 -59 144l9 68l-145 150v-532q49 -27 79 -74q30 -48 30 -106q0 -82 -59 -141t-145 -59q-87 0 -146 58q-58 58 -58 142q0 60 29 106q29 47 79 74v532
l-145 -150l9 -68q0 -81 -59 -144q-58 -60 -145 -60t-145 60q-59 63 -59 146q0 84 59 143t145 59l68 -14l272 272v322h-680v-776h-167h-55q-28 -4 -25 -22q3 -19 84 -100l843 -844q18 -18 29.5 -29t16.5 -15q27 -18 50 -18q22 0 49 18q4 4 15.5 15t30.5 29l390 386v-94h190
v290l272 266q77 82 77 98t-18 18q-12 2 -59 2zM588 1056q37 0 62 24q24 24 24 62t-24 62q-25 24 -62 24q-36 0 -61 -25t-25 -61t25 -61t61 -25zM1459 1056q36 0 61 25t25 61t-25 61t-61 25t-61 -25t-25 -61t25 -61t61 -25zM1024 562q36 0 61 25t25 61t-25 62q-27 28 -61 28
q-36 0 -62 -28q-25 -26 -25 -62t25 -61t62 -25z" />
</svg>