<svg xmlns="http://www.w3.org/2000/svg" xmlns:xlink="http://www.w3.org/1999/xlink" version="1.1" viewBox="-10 0 2068 2048">
   <path fill="currentColor"
d="M1050 1916l-130 130l-152 -154l-154 154l-154 -154l-152 154l-154 -154l-154 154v-2044l154 154l154 -154l152 154l154 -154l154 154l152 -154l154 154l154 -154l152 154l154 -154l154 154l154 -154v1160q-98 -38 -206 -38v-824h-1430v1448h816q0 79 28 168zM308 1330
v206h752q38 -118 120 -206h-872zM308 1124h1226v-202h-1226v202zM308 716h1226v-206h-1226v206zM2048 1560l-120 -148l-370 370l-162 -164l-116 120l278 308z" />
</svg>