<svg xmlns="http://www.w3.org/2000/svg" xmlns:xlink="http://www.w3.org/1999/xlink" version="1.1" viewBox="-10 0 2058 2048">
   <path fill="currentColor"
d="M1019 0q87 0 147 60t60 144q0 85 -60 145t-147 60q-86 0 -146 -60t-60 -145q0 -84 60 -144t146 -60zM1058 1312q234 0 437 24q4 -211 -12 -379q-17 -170 -55 -241q-15 -39 -48 -72l-827 712q272 -44 505 -44zM553 1538q24 289 82 510h216q-43 -118 -67 -308l67 -9
q102 -10 178 -10q124 0 226 19q-24 186 -68 308h217q61 -213 81 -534q-211 -24 -427 -24q-254 0 -505 48zM1019 510q-39 4 -82 9q-103 15 -177 53q-106 53 -149 144q-53 108 -68 404l673 -572q-98 -38 -197 -38zM1692 375l-115 -135l-361 308q101 33 164 96zM1908 1418
q-159 -54 -413 -82q0 66 -10 178q206 28 361 72h4zM543 1120l-403 351l91 149q6 -2 11 -4t26 -8.5t50 -16.5q115 -34 235 -53q-15 -215 -10 -418z" />
</svg>