<svg xmlns="http://www.w3.org/2000/svg" xmlns:xlink="http://www.w3.org/1999/xlink" version="1.1" viewBox="-10 0 2068 2048">
   <path fill="currentColor"
d="M462 460q148 0 264 138q92 -92 196 -124v-222q0 -82 60 -142t142 -60h208v202h-208v222q106 33 198 124q115 -138 264 -138q131 0 236 102q106 106 166 282q60 178 60 384t-60 384t-166 282q-105 104 -236 104q-149 0 -264 -140q-129 140 -298.5 140t-297.5 -140
q-116 140 -264 140q-132 0 -236 -104q-106 -103 -166 -281.5t-60 -384.5t60 -384t166 -282q104 -102 236 -102zM716 868l-130 230h260zM1332 868l-130 230h258zM616 1588h202l104 -104l102 104h206l102 -104l100 104l154 -306l-366 62l-96 140l-100 -102h-206l-102 102
l-100 -102l-208 -100z" />
</svg>