<svg xmlns="http://www.w3.org/2000/svg" xmlns:xlink="http://www.w3.org/1999/xlink" version="1.1" viewBox="-10 0 2068 2048">
   <path fill="currentColor"
d="M1490 188h-1302q-78 0 -132 54q-56 54 -56 132v1300q0 78 56 132q54 54 132 54h1302q74 0 128 -54q56 -54 56 -132v-1300q0 -78 -56 -132q-54 -54 -128 -54zM1490 1674h-1302v-1300h1302v1300zM838 1582q152 0 280 -76t202 -204q74 -126 74 -278.5t-74 -279.5
q-73 -125 -202 -202q-128 -76 -278.5 -76t-279.5 76q-128 77 -204 202q-76 126 -76 279.5t76 278.5q77 128 204 204q129 76 278 76zM838 654q156 0 265 109t109 261t-109 261t-263 109q-156 0 -265 -109t-109 -261t109 -261t263 -109zM2048 558h-188v558h188v-462v-96z
M2048 1302h-188v188h188v-188z" />
</svg>