<svg xmlns="http://www.w3.org/2000/svg" xmlns:xlink="http://www.w3.org/1999/xlink" version="1.1" viewBox="-10 0 2058 2048">
   <path fill="currentColor"
d="M1213 191h-568v-191h568v191zM1022 1706q0 145 67 271q-77 13 -160 13q-234 0 -427 -113q-195 -114 -310 -311q-116 -199 -116 -429t116 -426t310 -311q196 -116 427 -116q146 0 284 51q137 51 249 140l133 -137q73 64 133 133l-133 138q87 109 137 246q49 134 49 282v36
q-98 -36 -191 -36q-152 0 -282 78q-129 77 -208 209q-78 130 -78 282zM1022 569h-187v666h187v-666zM1972 1604l-275 -27l-107 -249l-106 249l-271 27l209 177l-67 267l235 -142l236 142l-62 -267z" />
</svg>