<svg xmlns="http://www.w3.org/2000/svg" xmlns:xlink="http://www.w3.org/1999/xlink" version="1.1" viewBox="-10 0 2058 2048">
   <path fill="currentColor"
d="M1642 1449q-117 0 -203 77l-734 -425q10 -48 10 -72q0 -25 -10 -73l724 -425q91 87 218 87q125 0 215 -92q89 -90 89 -220q0 -128 -89 -217t-220 -89t-220 89t-89 220q0 24 10 72l-725 421q-92 -83 -217 -83t-215 90q-89 89 -89 220q0 130 89 219q90 90 215 90
q126 0 217 -82l729 425q-4 31 -4 67q0 127 86 213q87 87 213 87q125 0 212 -87t87 -210t-87 -213q-86 -89 -212 -89z" />
</svg>