<svg xmlns="http://www.w3.org/2000/svg" xmlns:xlink="http://www.w3.org/1999/xlink" version="1.1" viewBox="-10 0 2068 2048">
   <path fill="currentColor"
d="M408 202v721h-206q-82 0 -142 60t-60 142v413q0 125 90 217q88 91 216 91q126 0 218 -91q92 -92 92 -217h202q0 126 91 217t217 91q129 0 218 -91q88 -92 88 -217v-413l-408 -923h-616zM1538 308v1432h510v-154h-356v-1278h-154zM562 356h380l336 769h-716v-769z
M308 1385q63 0 108 43q46 44 46 108q0 65 -46 111q-46 45 -110 45q-65 0 -108 -45q-44 -46 -44 -111q0 -64 44 -108q42 -43 110 -43zM1124 1385q68 0 111 43t43 108q0 67 -42 111q-44 45 -110 45q-64 0 -110 -45q-46 -46 -46 -111q0 -64 46 -108q45 -43 108 -43z" />
</svg>