<svg xmlns="http://www.w3.org/2000/svg" xmlns:xlink="http://www.w3.org/1999/xlink" version="1.1" viewBox="-10 0 2058 2048">
   <path fill="currentColor"
d="M1844 1487q-202 0 -370 -63h-34q-38 0 -66 29l-226 226q-222 -117 -396 -290q-174 -175 -280 -387l226 -225q24 -20 28 -48q5 -30 -10 -53q-52 -186 -52 -369q0 -39 -31 -70t-69 -31h-360q-38 0 -69 31t-31 70q0 475 234 878q230 398 628 628q402 235 878 235
q38 0 69 -31t31 -70v-359q0 -39 -31 -70t-69 -31zM310 412h152q10 111 48 264l-120 125q-65 -199 -80 -389zM1738 1842q-186 -15 -388 -82l124 -120q164 39 264 39v163zM1762 307h-350v-48q0 -74 50 -125q51 -52 122 -52q74 0 126 52q52 53 52 125v48zM1844 307v-48
q0 -105 -77 -182t-183 -77q-104 0 -180 77q-74 75 -74 182v48q-43 0 -72 31q-28 32 -28 74v408q0 43 29 72t71 29h514q42 0 71 -29t29 -72v-408q0 -42 -28 -74q-29 -31 -72 -31z" />
</svg>