<svg xmlns="http://www.w3.org/2000/svg" xmlns:xlink="http://www.w3.org/1999/xlink" version="1.1" viewBox="-10 0 2068 2048">
   <path fill="currentColor"
d="M2048 0h-88q-107 9 -226 38q-161 42 -326 121q-202 91 -374 240q-213 169 -386 409q-156 211 -302 466q-108 192 -202 399q-64 147 -110 274l-34 101l198 -101q116 -201 184 -296q76 -104 186 -218q215 67 388 28q213 -44 376 -230q-142 -44 -294 -44q-101 0 -318 24
q203 -140 362 -180q157 -40 350 -7l106 -207q-144 -24 -252 -24q-107 0 -238 29q166 -119 278 -163q141 -53 312 -44l126 -202q-112 -4 -212 5q-90 17 -230 48q122 -109 250 -166q123 -55 288 -64l62 -101q77 -111 126 -135z" />
</svg>