<svg xmlns="http://www.w3.org/2000/svg" xmlns:xlink="http://www.w3.org/1999/xlink" version="1.1" viewBox="-10 0 2058 2048">
   <path fill="currentColor"
d="M756 1511v537h-228v-1593q0 -209 123 -332t337 -123q195 0 311.5 98t116.5 270q0 118 -76 223q-75 106 -194 142v4q182 32 278 134q96 101 96 267q0 191 -132 311q-134 121 -350 121q-154 0 -282 -59zM902 846v-186q120 -13 204 -94q82 -79 82 -179q0 -201 -204 -201
q-111 0 -169.5 71t-58.5 198v856q130 77 256 77q125 0 194 -64q68 -64 68 -182q0 -260 -372 -296z" />
</svg>