<svg xmlns="http://www.w3.org/2000/svg" xmlns:xlink="http://www.w3.org/1999/xlink" version="1.1" viewBox="-10 0 2058 2048">
   <path fill="currentColor"
d="M308 1846l615 -615l106 105q15 -144 91 -262q75 -117 202 -187q126 -70 269 -70q73 0 154 24v-226l-615 -615h-822q-86 0 -146 60q-61 61 -61 142v1644q0 81 61 142q60 60 146 60h1014q-84 -114 -139 -202h-875zM1024 154l567 562h-567v-562zM515 716q81 0 141 60
q61 61 61 145q0 83 -61 144q-60 60 -144 60t-144 -60t-60 -144q0 -85 60 -145t147 -60zM1591 1024q-150 0 -255 106t-105 255q0 116 91 288q66 122 173 264l96 111l91 -111q107 -142 173 -264q92 -173 92 -288q0 -147 -106 -255q-105 -106 -250 -106zM1591 1514
q-53 0 -89 -36t-36 -86q0 -51 39 -87t84 -36t84 39q38 38 43 84q5 45 -34 84q-38 38 -91 38z" />
</svg>