<svg xmlns="http://www.w3.org/2000/svg" xmlns:xlink="http://www.w3.org/1999/xlink" version="1.1" viewBox="-10 0 2068 2048">
   <path fill="currentColor"
d="M970 1433l44 250q-35 18 -128 38q-86 19 -204 19q-341 -5 -512 -199q-170 -194 -170 -498q5 -352 206 -543q203 -192 506 -192q112 0 196 19q89 20 126 38l-64 255l-104 -34q-59 -14 -146 -14q-176 0 -292 113q-116 112 -120 344q0 207 111 327t301 120l140 -10
q70 -17 110 -33zM1216 1740l62 -408h-154l38 -207h154l30 -202h-154l38 -207h154l62 -408h202l-62 408h106l62 -408h202l-62 408h154l-34 207h-154l-34 202h154l-34 207h-154l-62 408h-206l62 -408h-102l-62 408h-206zM1518 1125h106l30 -202h-102z" />
</svg>