<svg xmlns="http://www.w3.org/2000/svg" xmlns:xlink="http://www.w3.org/1999/xlink" version="1.1" viewBox="-10 0 2068 2048">
   <path fill="currentColor"
d="M1846 308h-308l-206 -207h-616l-206 207h-308q-82 0 -142 60t-60 142v1230q0 87 60 147t142 60h1644q82 0 142 -60t60 -147v-1230q0 -82 -60 -142t-142 -60zM1024 1639q-172 0 -308 -101l150 -149q72 44 158 44q130 0 219 -89t89 -217q0 -126 -89 -218t-219 -92
q-95 0 -176 58q-79 57 -112 149h186l-306 308l-308 -308h212q28 -134 120 -238q91 -103 220 -147q128 -43 266 -14q137 28 238 118q101 89 144 218q44 131 20 270q-38 178 -180 293t-324 115z" />
</svg>