<svg xmlns="http://www.w3.org/2000/svg" xmlns:xlink="http://www.w3.org/1999/xlink" version="1.1" viewBox="-10 0 2068 2048">
   <path fill="currentColor"
d="M1072 464q0 -74 54 -128q56 -55 130 -55h326q78 0 133 55t55 128v201q-83 30 -136 102q-52 73 -52 159v192h-510v-654zM466 926v192h510v-654q0 -74 -54 -128q-54 -55 -128 -55h-328q-76 0 -131 55t-55 128v201q82 30 134 102q52 71 52 159zM1830 747q-70 9 -114 66
q-42 56 -42 130v266h-1298v-279q0 -79 -54 -133t-133 -54t-133 54q-56 55 -56 133v467q0 73 55 128t133 55v187h188v-187h1298v187h186v-187q78 0 134 -55q54 -54 54 -128v-467q0 -88 -66 -141q-67 -55 -152 -42z" />
</svg>