<svg xmlns="http://www.w3.org/2000/svg" xmlns:xlink="http://www.w3.org/1999/xlink" version="1.1" viewBox="-10 0 2058 2048">
   <path fill="currentColor"
d="M1740 409h-308v-125q0 -87 40 -161q41 -74 114 -123q72 49 112 123q42 76 42 161v125zM1360 1192l442 548q62 4 104 51q40 46 40 108t-46 106q-44 43 -107.5 43t-108.5 -43q-46 -44 -46 -111v-24l-408 -514l-412 514v24q0 67 -44 111q-44 43 -108 43q-66 0 -110 -43
q-46 -44 -46 -106q0 -64 42 -108q46 -47 102 -51l442 -548l-380 -476h-614v-206h1844v206h-206zM1230 1024l246 -308h-496z" />
</svg>