<svg xmlns="http://www.w3.org/2000/svg" xmlns:xlink="http://www.w3.org/1999/xlink" version="1.1" viewBox="-10 0 2068 2048">
   <path fill="currentColor"
d="M1212 886l-654 -652q185 -84 458 -84q197 0 372 50q172 50 272 136q100 85 100 184q0 132 -154 230q-156 98 -394 136zM1408 1078h74q130 0 230 40q48 -62 48 -132v-278q0 104 -110 194q-110 89 -290 132zM1612 1284l406 408q8 -12 17.5 -28t12.5 -20q-66 -139 -178 -234
q-113 -96 -258 -126zM1952 1872l-118 118l-56 -54q-166 84 -296 84q-189 0 -342 -104t-216 -272q82 -195 270 -296l-140 -138q-66 39 -178 148q-258 -26 -434 -130q-172 -101 -172 -242v-278q0 144 190 246q188 102 472 124l-212 -214q-201 -47 -326 -140
q-124 -93 -124 -204q0 -27 22 -82l-292 -288l122 -122zM1646 1798l-100 -106q-13 40 -64 40q-44 0 -70 -26t-26 -72t38 -72l-104 -100q-74 74 -74 170t67 163t169 67q49 5 94 -12q46 -19 70 -52zM720 1636l26 -66l8 -12q8 -16 8 -30q-218 -43 -356 -138q-136 -94 -136 -216
v280q0 122 148 220q151 98 384 132q-34 -52 -48 -104z" />
</svg>