<svg xmlns="http://www.w3.org/2000/svg" xmlns:xlink="http://www.w3.org/1999/xlink" version="1.1" viewBox="-10 0 2058 2048">
   <path fill="currentColor"
d="M1137 635q69 0 117 48t48 114q0 67 -48 115t-115 48q-66 0 -114 -48t-48 -115q0 -66 45 -114t115 -48zM1137 0q217 0 402.5 107t290.5 290q106 184 106 398q0 236 -125 429q-126 196 -333 291v533h-794v-341h-112q-96 0 -163 -67t-67 -163v-341h-170q-37 0 -54 -32
q-16 -31 6 -59l218 -288q11 -207 120 -381q109 -172 288 -275q177 -101 387 -101zM1478 795q0 -27 -6 -43l102 -75q5 -5 8 -16q3 -10 -3 -16l-91 -154q-6 -11 -16 -14t-16 3l-111 48q-27 -32 -75 -48l-16 -117q-6 -22 -27 -22h-181q-21 0 -21 22l-16 117q-44 17 -75 48
l-117 -48q-16 -6 -27 11l-91 154q-10 26 6 32l96 75l-6 43l6 48l-96 74q-16 6 -6 27l91 160q7 11 27 11l112 -48q33 23 80 42l16 123q0 21 21 21h181q17 0 27 -21l16 -123q54 -21 75 -42l111 48q26 0 32 -11l91 -160q6 -16 -5 -27l-96 -74v-48z" />
</svg>