<svg xmlns="http://www.w3.org/2000/svg" xmlns:xlink="http://www.w3.org/1999/xlink" version="1.1" viewBox="-10 0 2068 2048">
   <path fill="currentColor"
d="M1822 0h-1596q-92 0 -159 67t-67 159v1596q0 92 67 159t159 67h1596q90 0 158 -67q68 -68 68 -159v-1596q0 -91 -68 -159q-68 -67 -158 -67zM1610 1298q0 23 -34 38q-144 63 -244 63q-58 0 -150 -39q-102 -38 -182 -38q-133 0 -308 82l-14 5v206q0 15 -6 20v9
q-9 30 -32 46q-25 17 -58 17q-34 0 -62 -27q-30 -27 -30 -65v-1000q-58 -49 -58 -117q0 -69 46 -113t108.5 -44t107.5 44q46 44 46 110q0 72 -62 120v82l24 -10q157 -67 284 -67q73 0 144 19q47 14 134 44q26 14 62 14q66 0 192 -58q43 -19 56 -19q12 0 24 12t12 27v639z
" />
</svg>