<svg xmlns="http://www.w3.org/2000/svg" xmlns:xlink="http://www.w3.org/1999/xlink" version="1.1" viewBox="-10 0 2068 2048">
   <path fill="currentColor"
d="M118 5l1926 1926l-114 117l-188 -187h-1370q-74 0 -130 -55q-54 -54 -54 -129v-1371l-188 -188zM354 0h1510q74 0 129 55t55 129v1511l-184 -188v-1323h-1322zM560 677l-188 -183v1183h1182l-184 -187h-810v-813zM1676 1324l-188 -188v-577h-278v210q44 26 70 68
q26 43 26 94v17l-280 -279v-110q0 -79 54 -133t130 -54h466v952zM746 1302h438l-438 -437v437zM930 559h-18l-186 -187h204v187z" />
</svg>