<svg xmlns="http://www.w3.org/2000/svg" xmlns:xlink="http://www.w3.org/1999/xlink" version="1.1" viewBox="-10 0 2068 2048">
   <path fill="currentColor"
d="M1770 278h-188v-90h230q22 0 35 13t13 35v182q0 22 -13 35t-35 13h-42v92h-96v-184h96v-96zM1674 744h96v-90h-96v90zM1490 188h-96v370h96v-370zM2048 1302v280q0 39 -28 64q-31 28 -68 28h-92v94q0 76 -54 130t-132 54h-1298q-78 0 -134 -54q-54 -54 -54 -130v-94h-92
q-36 0 -66 -28q-30 -25 -30 -64v-280q0 -39 29.5 -64.5t66.5 -25.5h92q0 -180 88 -330q87 -151 236 -238q150 -86 326 -86h96v-118q-46 -24 -70 -66q-26 -44 -26 -96q0 -74 54 -128t132 -54t134 54q54 54 54 128q0 52 -26 96q-25 42 -70 66v118h96q44 0 92 8v270h440
q116 170 116 376h92q38 0 68 26q28 25 28 64zM838 1350q0 -95 -68 -164q-69 -70 -163.5 -70t-162.5 70q-68 69 -68 164q0 96 68 164q66 68 162 68t164 -68t68 -164zM1674 1350q0 -95 -68 -164q-69 -70 -163.5 -70t-162.5 70q-68 69 -68 164q0 96 68 164q66 68 162 68
t164 -68t68 -164zM1490 654h-96v90h96v-90z" />
</svg>