<svg xmlns="http://www.w3.org/2000/svg" xmlns:xlink="http://www.w3.org/1999/xlink" version="1.1" viewBox="-10 0 2068 2048">
   <path fill="currentColor"
d="M1238 1286q-10 -32 -10 -58q0 -62 46 -108q44 -46 106 -46q25 0 54 10l244 -240q45 -44 106 -62q-16 -10 -30 -10l-220 -4v-102q0 -62 -52 -90q-27 -10 -48 -10h-206v-106q0 -61 -54 -86q-24 -14 -48 -14h-104v-206q0 -62 -48 -86q-29 -16 -54 -16q-247 0 -460 126
q-211 124 -336 336q-124 210 -124 460q0 234 108.5 433.5t293.5 326.5q188 127 418 156v-188l14 -14h-14q-68 0 -111 -43t-43 -107q0 -67 44 -112q43 -44 108 -44q64 0 110 44q46 46 46 108v16zM360 1074q-68 0 -111 -43t-43 -107q0 -67 44 -112q43 -44 108 -44q64 0 110 44
q46 46 46 112q0 63 -46 108q-45 42 -108 42zM666 666q-66 0 -110 -44q-42 -45 -42 -108.5t42 -107.5q45 -46 108 -46q64 0 110 46t46 108t-46 108q-44 44 -108 44zM868 1180q-62 0 -108 -46t-46 -110q0 -63 46 -108q46 -44 110 -44t108 44t44 108q0 66 -44 110
q-43 46 -110 46zM2028 1200l-96 100l-210 -212l100 -100q14 -14 35 -14t37 14l134 134q20 20 20 42q0 21 -20 36zM1650 1160l210 212l-628 624h-210v-208z" />
</svg>