<svg xmlns="http://www.w3.org/2000/svg" xmlns:xlink="http://www.w3.org/1999/xlink" version="1.1" viewBox="-10 0 2058 2048">
   <path fill="currentColor"
d="M1744 1031v-623q0 -112 -110 -204q-112 -94 -300 -149t-410.5 -55t-409.5 55t-300 149q-110 93 -110 204v1026q0 111 110 204q113 94 300 149t410 55q85 0 134 -5q-34 -101 -34 -201v-5q-31 5 -100 5q-182 0 -336 -39q-123 -33 -206 -91q-72 -44 -72 -72v-230
q261 125 614 125q85 0 192 -10q80 -135 220 -216t302 -81q42 0 106 9zM1538 969q-100 71 -264 115q-162 43 -350.5 43t-349.5 -43q-164 -43 -264 -115v-288q113 62 276 101q156 38 337.5 38t338.5 -38q163 -40 276 -101v288zM924 614q-184 0 -336 -43q-124 -33 -206 -86
q-72 -43 -72 -75q0 -30 72 -74q83 -58 206 -91q154 -39 336 -39t336 39q123 33 206 91q72 44 72 74q0 32 -72 75q-82 53 -206 86q-152 43 -336 43zM1944 1741l-306 307l-306 -307h206v-412h206v412h200z" />
</svg>