<svg xmlns="http://www.w3.org/2000/svg" xmlns:xlink="http://www.w3.org/1999/xlink" version="1.1" viewBox="-10 0 2068 2048">
   <path fill="currentColor"
d="M2048 0h-716v716l262 -263q102 96 158 227q56 133 56 277q0 174 -84 330l178 173q146 -229 146 -503q0 -196 -76 -370q-73 -170 -210 -302zM0 168l280 285q-146 230 -146 504q0 193 76 369q74 170 210 302l-286 285h716v-716l-262 263q-101 -95 -156 -226
q-56 -133 -56 -277q0 -175 84 -331l962 963q-71 38 -90 45v246q137 -38 262 -112l280 280l152 -151l-1874 -1880zM850 280v-247q-137 33 -262 112l174 179l28 -16q10 -5 60 -28z" />
</svg>