<svg xmlns="http://www.w3.org/2000/svg" xmlns:xlink="http://www.w3.org/1999/xlink" version="1.1" viewBox="-10 0 2067 2048">
   <path fill="currentColor"
d="M2001 856q-101 88 -233 109q-129 21 -256 -23q-123 -43 -211 -147q-86 -103 -107 -234q-21 -132 23 -256q43 -121 147 -207l51 -37q-125 134 -133 323q-7 188 114 332q122 144 307 170q187 25 344 -72zM1824 1261q-152 130 -349 165q-195 34 -381 -33.5t-316 -223
t-163 -348.5q-32 -190 33 -381q64 -188 218 -319l93 -65q-117 137 -160 307q-44 174 -7 349q38 176 156.5 316t282.5 207q166 68 344 56q180 -12 328 -105zM1712 1744q-220 187 -490 233q-273 47 -535 -49t-444 -312q-180 -215 -227 -490q-46 -275 46 -535q93 -260 312 -442
l111 -79q-172 186 -237 430q-64 245 -14 493q51 250 219 449t404 295q237 96 488 75q250 -21 465 -161z" />
</svg>