<svg xmlns="http://www.w3.org/2000/svg" xmlns:xlink="http://www.w3.org/1999/xlink" version="1.1" viewBox="-10 0 2068 2048">
   <path fill="currentColor"
d="M1024 326q-338 0 -618 192q-280 194 -406 506q126 313 406 506q280 192 618 192h100q-8 -48 -8 -92q4 -86 22 -162l-114 22q-138 0 -256 -78q-119 -79 -172 -210q-55 -131 -26 -270q28 -140 125.5 -237.5t238.5 -126.5q138 -28 270 26q130 54 208 172t78 258q0 44 -8 82
q92 -39 192 -34q168 -5 308 92q40 -68 66 -140q-126 -313 -406 -506q-278 -192 -618 -192zM1024 744q-116 0 -197 81t-81 199t80 198t198 80t198 -80q82 -81 83.5 -198.5t-81.5 -199.5q-83 -84 -200 -80zM1304 1534v188h744v-188h-744z" />
</svg>