<svg xmlns="http://www.w3.org/2000/svg" xmlns:xlink="http://www.w3.org/1999/xlink" version="1.1" viewBox="-10 0 2058 2048">
   <path fill="currentColor"
d="M1024 0q-196 0 -360 96t-260 260t-96 360q0 176 82 334q81 157 226 253v235q0 38 29 70q28 31 72 31h615q44 0 72 -31q29 -32 29 -70v-235q143 -95 225 -253t82 -334q0 -196 -96 -360q-97 -165 -259 -260q-163 -96 -361 -96zM1231 1187v246h-106v-472l178 -173
q29 -29 29 -72t-29 -72t-72 -29t-72 29l-135 135l-134 -135q-29 -29 -72 -29q-44 0 -73 29q-28 28 -28 72t28 72l178 173v472h-105v-246q-137 -64 -222 -189q-86 -126 -86 -282q0 -137 70 -257q68 -117 187 -187t257 -70t257 70q120 71 188 187q69 119 69 257q0 156 -86 282
t-221 189zM717 1846h615v101q0 43 -32 72t-69 29h-413q-38 0 -70 -29q-31 -28 -31 -72v-101z" />
</svg>