<svg xmlns="http://www.w3.org/2000/svg" xmlns:xlink="http://www.w3.org/1999/xlink" version="1.1" viewBox="-10 0 2068 2048">
   <path fill="currentColor"
d="M230 0q-96 0 -163 67t-67 162v224h230v-224h1588v224h230v-224q0 -96 -66 -162q-68 -67 -164 -67h-1588zM572 453v230h906v-230h-906zM0 683v341q0 276 140 512q138 235 372 373q236 139 512 139t512 -139t374 -373t138 -512v-341h-230v341q0 218 -106 400
q-107 182 -288 288q-183 107 -400 107t-400 -107q-181 -106 -288 -288q-106 -182 -106 -400v-341h-230zM1024 1024q-116 0 -199 83t-83 200q0 116 82.5 202t200 86t199.5 -86q82 -85 82 -202q0 -118 -82 -200q-82 -83 -200 -83z" />
</svg>