<svg xmlns="http://www.w3.org/2000/svg" xmlns:xlink="http://www.w3.org/1999/xlink" version="1.1" viewBox="-10 0 2068 2048">
   <path fill="currentColor"
d="M2048 1925l-1924 -1925l-124 124l278 278l-160 279q-9 18 -6 35q3 16 16 29l206 160q-4 49 -4 96t4 96l-206 160q-12 13 -16 30q-2 16 6 34l198 339q4 12 22 20q18 7 36 -2l244 -96q83 65 164 96l36 256q0 18 14 30q12 11 32 11h392q20 0 32 -11q14 -12 14 -30l36 -256
q70 -27 138 -78l448 448zM1060 1344q-142 0 -242 -100q-100 -101 -100 -243q0 -58 32 -128l438 439q-65 32 -128 32zM1032 663l-306 -311l56 -27l36 -256q0 -18 14 -30q12 -11 32 -11h392q20 0 32 11q14 12 14 30l36 256q83 31 166 96l242 -96q20 -10 36 -3q18 7 22 21
l198 338q9 20 6 35q-2 16 -16 29l-206 160q6 62 6 96t-6 96l206 160q13 13 16 30q3 15 -6 34l-114 197l-490 -489q4 -8 4 -28q0 -142 -100 -242q-100 -101 -242 -101q-18 0 -28 5z" />
</svg>