<svg xmlns="http://www.w3.org/2000/svg" xmlns:xlink="http://www.w3.org/1999/xlink" version="1.1" viewBox="-10 0 2068 2048">
   <path fill="currentColor"
d="M100 0h106v206h-206v-105q0 -39 31 -70t69 -31zM1740 0q40 0 71 31t31 70v105h-206v-206h104zM1228 206v-206h206v206h-206zM820 206v-206h202v206h-202zM408 206v-206h206v206h-206zM820 1842v-206h202v206h-202zM408 1842v-206h206v206h-206zM100 1842q-38 0 -69 -31
t-31 -70v-105h206v206h-106zM0 1228h206v206h-206v-206zM0 820h206v202h-206v-202zM0 408h206v206h-206v-206zM1842 408v206h-206v-206h206zM1688 1022q144 0 252 108t108 252q0 120 -96 292q-65 115 -174 259l-90 115l-92 -115q-104 -138 -172 -259q-96 -172 -96 -292
q0 -144 108 -252t252 -108zM1688 1516q52 0 90.5 -39t35.5 -83q-3 -47 -40 -84q-38 -39 -86 -39q-46 0 -86 34q-38 32 -38 84q0 49 36 88t88 39z" />
</svg>