<svg xmlns="http://www.w3.org/2000/svg" xmlns:xlink="http://www.w3.org/1999/xlink" version="1.1" viewBox="-10 0 2064 2048">
   <path fill="currentColor"
d="M2014 1672l-842 -846q65 -165 31 -342q-35 -176 -166 -308q-161 -156 -384 -174q-222 -18 -401 113l358 358l-131 131l-358 -354q-130 178 -115 402q15 223 176 379q127 132 301 166q176 35 340 -26l846 846q26 31 66 31q38 0 65 -31l214 -214q30 -25 30 -63t-30 -68z
M1735 1821l-877 -881q-85 64 -185 78q-98 14 -194 -15q-98 -29 -164 -98q-69 -71 -98 -153q-31 -84 -26 -170l288 288l392 -397l-288 -288q187 -9 323 122q74 75 103 172q28 97 10 197q-19 101 -78 185l876 877z" />
</svg>