<svg xmlns="http://www.w3.org/2000/svg" xmlns:xlink="http://www.w3.org/1999/xlink" version="1.1" viewBox="-10 0 2058 2048">
   <path fill="currentColor"
d="M644 622q-81 0 -95 -14l-41 589q72 45 197 75q123 29 355 16q227 -14 480 -100l-77 -910q-131 127 -376 235q-225 96 -380 109h-63zM635 386q-100 86 -84 117.5t142 18.5q158 -14 358 -99q136 -57 238 -127q94 -65 133 -114q36 -45 27 -65q-9 -21 -90 -21
q-160 0 -408 105q-206 89 -316 185zM1540 83q9 18 9 41l113 1390q0 250 -172 392t-464 142t-466 -147t-174 -396l67 -1010q0 -37 32 -82q30 -44 59 -72l32 -27q143 -120 339 -204q135 -58 265 -88q129 -30 231 -18t129 79z" />
</svg>