<svg xmlns="http://www.w3.org/2000/svg" xmlns:xlink="http://www.w3.org/1999/xlink" version="1.1" viewBox="-10 0 2058 2048">
   <path fill="currentColor"
d="M1792 154l-154 -154l-154 154l-152 -154l-154 154l-154 -154l-154 154l-154 -154l-154 154l-154 -154l-154 154l-152 -154v2048l152 -154l154 154l154 -154l154 154l154 -154l154 154l154 -154l154 154l152 -154l154 154l154 -154l154 154v-2048zM1740 1750h-1432v-1452
h1432v1452zM408 1332h1230v206h-1230v-206zM408 923h1230v202h-1230v-202zM408 510h1230v206h-1230v-206z" />
</svg>