<svg xmlns="http://www.w3.org/2000/svg" xmlns:xlink="http://www.w3.org/1999/xlink" version="1.1" viewBox="-10 0 2058 2048">
   <path fill="currentColor"
d="M1365 0q-138 165 -347 213q10 -52 -8 -104q-18 -49 -64 -80q-44 -29 -101 -26q-58 3 -99.5 34t-57.5 86q-17 53 2 104q17 49 64 82q45 32 99 32h27q220 0 400 -122l-155 474q-135 155 -336 203q16 -53 -5 -104q-21 -49 -67 -80q-46 -30 -101 -27q-57 3 -99.5 35t-55.5 85
q-14 53 3 104q16 52 61 83q45 32 99 32h27q217 0 399 -123l-367 1147h229l682 -2048h-229z" />
</svg>