<svg xmlns="http://www.w3.org/2000/svg" xmlns:xlink="http://www.w3.org/1999/xlink" version="1.1" viewBox="-10 0 2068 2048">
   <path fill="currentColor"
d="M970 1433q133 0 246 -73l250 250l144 -144l-250 -250q72 -113 72 -245q0 -192 -134 -327q-134 -134 -328 -134q-192 0 -326 134q-134 135 -134 327t135 327t325 135zM970 716q107 0 184 75q76 75 76 180q0 106 -77 183t-183 77q-104 0 -180 -77q-74 -75 -74 -183
q0 -106 74 -180q76 -75 180 -75zM1846 202h-1644q-82 0 -142 60t-60 147v1230q0 87 60 147t142 60h1644q82 0 142 -60t60 -147v-1230q0 -87 -60 -147t-142 -60zM1846 1639h-1644v-1230h1644v1230z" />
</svg>