<svg xmlns="http://www.w3.org/2000/svg" xmlns:xlink="http://www.w3.org/1999/xlink" version="1.1" viewBox="-10 0 2068 2048">
   <path fill="currentColor"
d="M1432 760l-264 264l264 264l-144 145l-264 -265l-264 265l-144 -145l264 -264l-264 -264l144 -145l264 265l264 -265zM2048 356v1077l-616 615h-1076q-146 0 -250 -106q-106 -106 -106 -250v-1336q0 -144 106 -250q104 -106 250 -106h1336q145 0 250 106q106 108 106 250
zM1846 389q0 -77 -55 -132t-133 -55h-1268q-78 0 -132 55q-56 56 -56 132v1279q0 76 56 132t132 56h942v-154q0 -148 104 -255q105 -106 256 -106h154v-952z" />
</svg>