<svg xmlns="http://www.w3.org/2000/svg" xmlns:xlink="http://www.w3.org/1999/xlink" version="1.1" viewBox="-10 0 2058 2048">
   <path fill="currentColor"
d="M1024 0q198 0 361 96q162 95 259 260q96 164 96 360q0 176 -82 334t-225 253v235q0 43 -29 72t-72 29h-615q-43 0 -72 -29t-29 -72v-235q-145 -96 -226 -253q-82 -158 -82 -334q0 -196 96 -360t260 -260t360 -96zM717 1947v-101h615v101q0 43 -29 72t-72 29h-413
q-44 0 -73 -29q-28 -28 -28 -72zM1024 202q-138 0 -257 70t-187 187q-70 120 -70 257q0 156 86 282q85 125 222 189v246h413v-246q135 -63 221 -189t86 -282q0 -138 -69 -257q-68 -116 -188 -187q-119 -70 -257 -70z" />
</svg>