<svg xmlns="http://www.w3.org/2000/svg" xmlns:xlink="http://www.w3.org/1999/xlink" version="1.1" viewBox="-10 0 2068 2048">
   <path fill="currentColor"
d="M2038 809q0 -211 -104 -389q-105 -178 -284 -283q-178 -105 -388 -105v777h776zM1280 909h758q0 266 -164 476q101 88 118 233zM1924 2048l124 -124l-1920 -1924l-128 128l782 781h-164l-88 -196h-342v196h214l96 201q97 211 110 229q-71 35 -120 103q-49 66 -58 148
q-18 138 68.5 254t226 137t253.5 -66q115 -87 138 -229h200q22 76 42 119q65 124 200 163q137 39 256 -26zM920 1641q0 54 -44 100q-45 46 -103.5 46t-102.5 -46q-44 -44 -44 -103q0 -57 44 -100q44 -44 103 -44t103 44t44 103zM1660 1787q-66 0 -110 -43q-46 -44 -46 -103
v-9z" />
</svg>