<svg xmlns="http://www.w3.org/2000/svg" xmlns:xlink="http://www.w3.org/1999/xlink" version="1.1" viewBox="-10 0 2068 2048">
   <path fill="currentColor"
d="M1096 409h-144l-442 1024h206l76 -202h462l78 202h206zM850 1077l174 -462l172 462h-346zM1576 1885l164 163h-510v-510l202 202q188 -107 300 -298q114 -193 114 -416q0 -222 -112 -413q-111 -191 -299.5 -301t-411 -110t-411 110t-300.5 301q-110 191 -110 411t112 411
q111 187 302 300v226q-280 -120 -448 -372t-168 -565q0 -278 138 -514q137 -237 372 -373q236 -137 513.5 -137t514.5 137q236 137 372 373q138 236 138 509t-128 500t-344 366z" />
</svg>