<svg xmlns="http://www.w3.org/2000/svg" xmlns:xlink="http://www.w3.org/1999/xlink" version="1.1" viewBox="-10 0 2058 2048">
   <path fill="currentColor"
d="M450 0q-78 0 -135 57t-57 138t57 135q56 53 135 53q61 0 110 -32q51 -33 69 -93h521q132 -126 257 -126h-778q-18 -60 -69 -96t-110 -36zM1916 132q-341 0 -557 120q-179 108 -293 311q-64 117 -155 389q-78 240 -138 348q-89 173 -222 257q-168 108 -419 108v252
q341 0 557 -120q178 -107 293 -312q67 -122 156 -389q77 -238 138 -347q90 -175 221 -258q168 -108 419 -108v-251zM1599 1665q-60 0 -111 33t-69 93h-520q-132 126 -258 126h778q18 59 69 95t111 36q78 0 135 -57q56 -56 56 -137q0 -82 -56 -135q-57 -54 -135 -54z" />
</svg>