<svg xmlns="http://www.w3.org/2000/svg" xmlns:xlink="http://www.w3.org/1999/xlink" version="1.1" viewBox="-10 0 2068 2048">
   <path fill="currentColor"
d="M1674 314v-103q0 -89 -61 -150t-145 -61h-210q-90 0 -151 61t-61 150v103h-206v-103q0 -88 -62 -150q-60 -61 -148 -61h-212q-84 0 -144 61q-62 62 -62 150v103h-212v1469h1056q-10 -51 -10 -108q0 -151 72 -287q70 -135 196 -224q122 -87 278 -110q152 -23 294 31v-771
h-212zM2048 1454l-226 221l226 226l-148 147l-226 -226l-220 226l-148 -147l222 -226l-222 -221l148 -148l220 221l226 -221z" />
</svg>