<svg xmlns="http://www.w3.org/2000/svg" xmlns:xlink="http://www.w3.org/1999/xlink" version="1.1" viewBox="-10 0 2068 2048">
   <path fill="currentColor"
d="M1722 1692l-284 -285q-36 -41 -36 -90t36 -88q36 -38 88 -38q53 0 88 40l108 109l108 -113q36 -36 88 -36t90 38q40 39 40 90q0 52 -36 88zM1582 1759q-127 109 -286 167q-161 59 -330 59q-195 0 -370 -72t-312 -208q-135 -135 -210 -313q-74 -176 -74 -368t74 -368
q75 -178 210 -313q137 -136 312 -208t366.5 -72t369.5 72q176 71 313.5 208t208.5 313q72 179 72 368q0 17 -6 22q-106 0 -188 82l-10 4l-4 -4q-77 -82 -190 -82q-112 0 -191 79t-79 192q0 114 76 190zM1154 785q0 54 45 99t101 45q57 0 100 -45q44 -44 44 -101t-43 -100
t-101 -43q-56 0 -100 43q-46 43 -46 102zM772 785q0 -59 -43 -102t-103 -43q-58 0 -101 43t-43 100t44 101q43 45 100 45q59 0 102 -45q44 -44 44 -99zM1150 1331l104 -104l-208 -203l-98 104l98 99l-98 104l98 99l-98 104l98 103l208 -207z" />
</svg>