<svg xmlns="http://www.w3.org/2000/svg" xmlns:xlink="http://www.w3.org/1999/xlink" version="1.1" viewBox="-10 0 2068 2048">
   <path fill="currentColor"
d="M1024 889q-86 0 -146 60t-60 147t60 147t146 60t146 -60t60 -147t-60 -147t-146 -60zM1638 1096q0 -168 -84 -308q-83 -139 -222 -223q-140 -84 -308 -84t-308 84q-140 85 -224 223q-84 140 -84 308t84 308q84 138 224 226l102 -173q-90 -56 -148 -152q-54 -92 -54 -199
q0 -169 120 -289t288 -120t288 120q120 121 120 289q0 115 -56 209q-56 95 -146 142l102 173q137 -75 222 -222q84 -144 84 -312zM1024 72q-278 0 -514 137q-235 136 -372 373q-138 236 -138 514q0 279 140 514q139 236 370 366l106 -173q-190 -112 -302 -298
q-112 -188 -112 -408.5t110 -411.5q112 -191 300.5 -301t411 -110t411 110t299.5 301q112 191 112 413q0 225 -112 409q-111 186 -302 296l106 173q230 -130 370 -366t140 -514t-138 -514q-136 -236 -372 -373q-237 -137 -514 -137z" />
</svg>