<svg xmlns="http://www.w3.org/2000/svg" xmlns:xlink="http://www.w3.org/1999/xlink" version="1.1" viewBox="-10 0 2068 2048">
   <path fill="currentColor"
d="M2028 846v-5q-63 -43 -168 -43q-33 0 -86 10q-9 -91 -78 -164q-32 -33 -66 -53l-30 -19l-18 29q-45 58 -54 120q-29 127 34 226q-34 20 -86 29q-40 9 -64 9h-1350q-29 0 -46 20q-16 19 -16 43q0 187 58 346q67 182 206 269q157 97 452 97q120 0 250 -25q173 -29 326 -115
q127 -78 222 -187q124 -139 216 -375h20q142 0 230 -87q38 -33 62 -86l6 -24zM188 947h182q14 0 14 -19v-159q0 -19 -14 -19h-182q-14 0 -14 19v159q0 19 14 19zM438 947h182q14 0 14 -19v-159q0 -19 -14 -19h-182q-16 0 -16 19v159q0 19 16 19zM692 947h178q20 0 20 -19
v-159q0 -19 -20 -19h-178q-20 0 -20 19v159q0 19 20 19zM942 947h178q18 0 18 -19v-159q0 -19 -18 -19h-178q-14 0 -14 19v159q0 19 14 19zM438 716h182q4 0 9 -5t5 -14v-159q0 -19 -14 -19h-182q-16 0 -16 19v159q0 19 16 19zM692 716h178q20 0 20 -19v-159q0 -19 -20 -19
h-178q-20 0 -20 19v159q0 19 20 19zM942 716h178q18 0 18 -19v-159q0 -19 -18 -19h-178q-14 0 -14 19v159q0 19 14 19zM942 481h178q18 0 18 -15v-158q0 -20 -18 -20h-178q-14 0 -14 20v158q0 15 14 15zM1192 947h182q14 0 14 -19v-159q0 -19 -14 -19h-182q-14 0 -14 19v159
q0 19 14 19z" />
</svg>