<svg xmlns="http://www.w3.org/2000/svg" xmlns:xlink="http://www.w3.org/1999/xlink" version="1.1" viewBox="-10 0 2058 2048">
   <path fill="currentColor"
d="M1006 460q-100 0 -170 70t-70 169t70 169t169 70t169 -70t70 -169t-70 -169t-168 -70zM1390 1471v189h192v388h194v-388h190v-189h-576zM974 1128l-770 821l-122 -122l708 -753q85 49 184 54zM1678 699q0 191 -100 375q-62 107 -140 189q-51 51 -134 113q-70 56 -100 86
q-46 51 -68 112q-41 134 -100 212q-63 82 -160 131q-78 32 -161.5 32t-156.5 -34q-76 -35 -130 -93l140 -139q54 76 150 76q40 0 72 -18q53 -27 92 -76q35 -46 72 -149q34 -100 102 -176q40 -45 130 -113q74 -61 112 -99q64 -64 110 -145q80 -140 80 -284q0 -130 -66 -241
q-65 -110 -176 -176q-109 -65 -240.5 -65t-241.5 65q-110 66 -176 176q-64 109 -64 241h-190q0 -185 88 -340q88 -156 244 -244q155 -88 340 -88t340 88q155 87 244 244q88 155 88 340zM1618 230l226 -230l122 122l-256 261q-35 -78 -92 -153z" />
</svg>