<svg xmlns="http://www.w3.org/2000/svg" xmlns:xlink="http://www.w3.org/1999/xlink" version="1.1" viewBox="-10 0 2058 2048">
   <path fill="currentColor"
d="M1126 335v-335l-492 492l492 482v-421q233 41 386 220q156 181 156 419q0 237 -156 418q-153 179 -386 220v218q212 -25 384 -147q171 -120 274 -306q102 -184 102 -402.5t-102 -403.5q-104 -188 -274 -307q-172 -122 -384 -147zM486 1876q187 146 426 172v-218
q-147 -26 -268 -111zM380 1298h-218q26 234 172 421l152 -152q-84 -125 -106 -269zM492 817l-152 -153q-152 187 -178 421h218q22 -149 112 -268z" />
</svg>