<svg xmlns="http://www.w3.org/2000/svg" xmlns:xlink="http://www.w3.org/1999/xlink" version="1.1" viewBox="-10 0 2068 2048">
   <path fill="currentColor"
d="M1024 817q86 0 146 60t60 147t-60 147t-146 60t-146 -60t-60 -147t60 -147t146 -60zM202 202h720q82 0 142 60t60 147v307h-202v-307h-720v514h206v-207l308 308l-308 308v-207h-206q-82 0 -142 -60t-60 -142v-514q0 -87 60 -147t142 -60zM1846 1846h-722q-82 0 -142 -60
t-60 -147v-307h202v307h722v-514h-208v207l-306 -308l306 -308v207h208q82 0 142 60t60 142v514q0 87 -60 147t-142 60z" />
</svg>