<svg xmlns="http://www.w3.org/2000/svg" xmlns:xlink="http://www.w3.org/1999/xlink" version="1.1" viewBox="-10 0 2068 2048">
   <path fill="currentColor"
d="M1538 1740v308h-206v-308q0 -82 -60 -142t-148 -60h-306q-142 0 -258 -69q-118 -69 -186 -188q-66 -118 -66 -257q0 -173 110 -317q-177 -33 -298 -176q-120 -143 -120 -329q0 -85 38 -202h246q-82 82 -82 209t88 214q89 87 220 87h308v206q-130 0 -219 89t-89 219
t89 219t219 89h306q174 0 294 120t120 288zM1630 707q176 -33 296 -176q122 -144 122 -329q0 -82 -40 -202h-244q82 82 82 209t-90 214q-88 87 -218 87h-126q20 65 20 105q0 131 -86 219q-88 89 -222 89v202q144 0 262 70q119 70 186 187q66 118 66 257v409h208v-409
q0 -205 -106 -375q-105 -168 -284 -259q141 -112 174 -298z" />
</svg>