<svg xmlns="http://www.w3.org/2000/svg" xmlns:xlink="http://www.w3.org/1999/xlink" version="1.1" viewBox="-10 0 2058 2048">
   <path fill="currentColor"
d="M574 1708l-30 -72l20 -39q-136 -40 -226 -91q-80 -48 -80 -72v-225q201 92 468 120q106 -120 256 -202h-112q-183 0 -346 -43q-169 -44 -266 -110v-297q116 59 272 100q162 43 340 43q376 0 614 -143v287q-63 39 -100 58q156 0 306 62v-676q0 -112 -110 -204
q-111 -94 -300 -149q-187 -55 -409.5 -55t-410.5 55q-186 55 -298 149q-112 93 -112 204v1026q0 135 164 243q161 107 422 146q-3 -4 -62 -115zM870 206q184 0 336 39q124 33 206 91q72 44 72 74q0 32 -72 75q-81 53 -206 86q-151 43 -336 43q-183 0 -334 -43
q-125 -33 -206 -86q-72 -43 -72 -75q0 -30 72 -74q82 -58 206 -91q152 -39 334 -39zM1384 1535q42 0 71 29t29 74q0 46 -28 75q-28 28 -74 28q-48 0 -76 -28t-28 -75q0 -46 28 -74q30 -29 78 -29zM1384 1228q-208 0 -376 115q-170 115 -238 293q67 181 238 297
q168 115 373.5 115t374.5 -115q170 -117 242 -297q-73 -177 -242 -293q-169 -115 -372 -115zM1384 1895q-110 0 -185 -75t-75 -182t76 -182q74 -74 182 -74t182 74t74 182t-74 182q-76 75 -180 75z" />
</svg>