<svg xmlns="http://www.w3.org/2000/svg" xmlns:xlink="http://www.w3.org/1999/xlink" version="1.1" viewBox="-10 0 2058 2048">
   <path fill="currentColor"
d="M1100 1367q0 82 -57 139t-139 57q-84 0 -141 -57t-57 -139q0 -83 57 -140t141 -57q82 0 139 57t57 140zM1008 1856q19 102 74 192h-764q-82 0 -139 -57t-57 -135v-978q0 -78 57 -135t139 -57h96v-197q0 -131 66 -244q67 -114 178 -179q113 -66 246 -66q131 0 244 66
q111 65 178 179q66 114 66 244v197h96q82 0 139 57t57 135v301q-60 -9 -98 -9t-98 9v-301h-1170v978h690zM610 686h586v-197q0 -124 -84 -208t-208 -84t-208 84q-86 85 -86 208v197zM1812 1449l-346 352l-156 -155l-114 109l270 293l460 -462z" />
</svg>