<svg xmlns="http://www.w3.org/2000/svg" xmlns:xlink="http://www.w3.org/1999/xlink" version="1.1" viewBox="-10 0 2058 2048">
   <path fill="currentColor"
d="M1680 1170q93 0 196 37v-37q0 -153 -50 -290q-51 -142 -142 -254l138 -141q-73 -82 -138 -138l-136 142q-114 -91 -256 -144q-140 -52 -292 -52q-239 0 -440 118q-201 119 -320 320q-118 202 -118 439q0 236 118 441q118 202 320 320q202 117 440 117q78 0 164 -14
q-68 -126 -68 -279q0 -154 80 -290t214 -215q135 -80 290 -80zM1096 1271h-192v-686h192v686zM1292 197h-586v-197h586v197zM1926 1513v489h-488v-489h488z" />
</svg>