<svg xmlns="http://www.w3.org/2000/svg" xmlns:xlink="http://www.w3.org/1999/xlink" version="1.1" viewBox="-10 0 2068 2048">
   <path fill="currentColor"
d="M1024 404q124 0 212 88t88 212t-88 212t-212 88t-212 -88t-88 -212t88 -212t212 -88zM428 620q68 0 128 36q-7 88 18 176t78 160q-31 64 -92 102t-132 38q-109 0 -182 -76q-74 -77 -74 -182q0 -106 74 -180t182 -74zM1620 620q108 0 182 74t74 180q0 105 -74 182
q-73 76 -182 76q-71 0 -132 -38t-92 -102q53 -72 78 -160t18 -176q60 -36 128 -36zM468 1492q0 -85 76 -158q78 -75 202 -118q127 -44 278 -44t278 44q124 43 202 118q76 73 76 158v152h-1112v-152zM0 1644v-128q0 -88 108 -158t272 -90q-80 92 -80 224v152h-300zM2048 1644
h-300v-152q0 -132 -80 -224q164 20 272 90q108 71 108 158v128z" />
</svg>