<svg xmlns="http://www.w3.org/2000/svg" xmlns:xlink="http://www.w3.org/1999/xlink" version="1.1" viewBox="-10 0 2068 2048">
   <path fill="currentColor"
d="M120 86l-120 131l104 90q-38 49 -38 106v262h176v-241l1326 1200h-364v176h558l168 152l118 -132zM550 237l192 176h1072v971l176 160v-1131q0 -74 -51 -125t-125 -51h-1264zM66 847v177q215 0 396 106q181 107 286 287q104 178 104 393h176q0 -262 -128 -483
q-131 -222 -350 -351q-221 -129 -484 -129zM66 1200v172q121 0 220 59q100 60 160 160q58 99 58 219h176q0 -122 -46 -236q-46 -111 -134 -198q-85 -86 -198 -131t-236 -45zM66 1548v262h262q0 -108 -76 -186q-74 -76 -186 -76z" />
</svg>