<svg xmlns="http://www.w3.org/2000/svg" xmlns:xlink="http://www.w3.org/1999/xlink" version="1.1" viewBox="-10 0 2068 2048">
   <path fill="currentColor"
d="M1024 428q-123 0 -212 86q-88 85 -88 210q0 124 88 212t212 88t212 -88t88 -212q0 -125 -88 -210q-89 -86 -212 -86zM1024 596q52 0 90 38t38 92t-38 90t-90 36t-90 -36t-38 -90t38 -92t90 -38zM468 684q-88 0 -150 62t-62 150q0 60 30 108q29 47 80 76q49 28 104 28
q53 0 102 -26q48 -26 80 -74q-96 -124 -96 -284v-24q-39 -16 -88 -16zM1580 684q-49 0 -88 16v24q0 160 -96 284q22 26 38 42q21 21 42 34q48 24 102 24q55 0 104 -28q51 -29 80 -76q30 -48 30 -108q0 -88 -62 -150t-150 -62zM1024 1196q-110 0 -244 32q-149 36 -244 100
q-108 72 -108 164v128h1192v-128q0 -92 -108 -164q-95 -64 -244 -100q-134 -32 -244 -32zM400 1240q-146 19 -260 80q-140 72 -140 172v128h256v-164q0 -120 144 -216zM1648 1240q144 96 144 216v164h256v-128q0 -100 -140 -172q-114 -61 -260 -80zM1024 1364q94 0 196 28
q97 24 164 60h-720q67 -36 164 -60q102 -28 196 -28z" />
</svg>