<svg xmlns="http://www.w3.org/2000/svg" xmlns:xlink="http://www.w3.org/1999/xlink" version="1.1" viewBox="-10 0 2068 2048">
   <path fill="currentColor"
d="M512 371l230 230l-140 141l-230 -230l-230 230l-142 -141l230 -230l-230 -230l142 -141l230 230l230 -230l140 141zM2048 1447l-140 -141l-230 230l-232 -230l-140 141l230 230l-230 230l140 141l232 -230l230 230l140 -141l-230 -230zM1864 507l-318 418l-160 -126
l118 -151q-230 42 -406 193q-178 152 -262 366q131 98 172 261q40 161 -36 310q-74 148 -226.5 214t-313.5 14q-158 -51 -246 -195q-86 -143 -60 -308q25 -163 154 -272q130 -108 294 -108q38 0 80 9q103 -263 322 -444q217 -180 494 -237l-146 -108l128 -160zM822 1574
q0 -103 -73 -176t-176 -73t-176 73t-73 176q0 104 74 178q73 75 175.5 75t176.5 -75q72 -74 72 -178z" />
</svg>