<svg xmlns="http://www.w3.org/2000/svg" xmlns:xlink="http://www.w3.org/1999/xlink" version="1.1" viewBox="-10 0 2068 2048">
   <path fill="currentColor"
d="M2048 1154q0 104 -42 197q-39 90 -110 161q-70 69 -162 110t-196 41q-71 0 -130 -14q-8 85 -48 159q-40 73 -98 127q-61 56 -140 84q-80 29 -168 29q-87 0 -170 -34t-142 -96q-60 -63 -96 -144t-36 -173v-34l4 -29h-432q-34 0 -58 -26q-24 -27 -24 -60v-856q0 -33 24 -60
q24 -26 58 -26h302q16 -110 66 -200q52 -96 126 -163q79 -70 176 -109q97 -38 214 -38q113 0 218 46q103 45 183.5 122t124.5 183q46 107 46 226v29q0 16 -6 33q106 0 200 41q95 41 164 108q71 70 110 161q42 94 42 205zM962 125q-85 0 -162 29q-72 28 -134 82
q-58 50 -98 122q-37 65 -54 152h424q34 0 60 26t26 60v423l18 -5q16 -63 49 -120t81 -103q50 -46 106 -82q55 -34 120 -50q10 -48 10 -82q0 -95 -36 -178q-37 -83 -96 -142q-60 -60 -141 -96t-173 -36zM520 1356q42 0 92 -10q46 -9 80 -31q34 -21 56 -58q20 -36 20 -89
t-20 -89q-21 -35 -56 -60q-28 -21 -72 -38l-76 -34q-36 -10 -57 -26.5t-21 -35.5q0 -20 12 -29q13 -10 30 -17q15 -7 30 -7l34 -5q51 0 88 14q42 15 80 39v-149l-82 -24l-42 -5h-48q-44 0 -90 9q-42 9 -84 34q-37 23 -62 58q-24 33 -24 86q0 54 24 87q24 34 58 58
q30 22 72 43l72 29q42 19 58 29q24 15 24 36t-12 33q-12 11 -28 19t-32 8h-34q-57 0 -106 -20t-92 -52v158q101 39 208 39zM962 1923q64 0 122 -26q59 -27 102 -70q44 -44 68 -101t24 -120q0 -65 -18 -116q-20 -51 -54 -93q-32 -40 -80 -70q-47 -30 -102 -39v164
q0 34 -26 60t-60 26h-294q-4 32 -4 63q0 68 24 125q24 58 68 101q43 41 104 70q55 26 126 26zM1538 1538q79 0 146 -31q70 -32 122 -84q52 -51 84 -123q32 -70 32 -146t-32 -149q-31 -73 -84 -125q-53 -54 -122 -82q-70 -29 -148.5 -29t-149.5 29q-69 29 -122 82
q-53 52 -82 125q-28 73 -28 149v43q46 23 85 55t73 72q36 45 56 89q22 51 30 97q67 28 140 28z" />
</svg>