<svg xmlns="http://www.w3.org/2000/svg" xmlns:xlink="http://www.w3.org/1999/xlink" version="1.1" viewBox="-10 0 2068 2048">
   <path fill="currentColor"
d="M1432 0q-166 0 -308 82q-47 28 -100 77q-54 -49 -102 -77q-141 -82 -306.5 -82t-309.5 82t-224 223q-82 143 -82 310q0 121 46 233q45 113 131.5 200t200.5 135q112 48 238 48v-207q-174 0 -294 -120q-120 -121 -120 -291t120 -291q120 -120 288 -120t284 115l28 24v1707
h202v-1707l30 -24q119 -120 290 -115q171 4 288 130q118 125 113.5 293t-127.5 284q-123 115 -286 115v207q125 0 238 -48t199.5 -135t132.5 -200q46 -115 46 -233q0 -166 -82 -310q-81 -141 -224 -223q-145 -82 -310 -82z" />
</svg>