<svg xmlns="http://www.w3.org/2000/svg" xmlns:xlink="http://www.w3.org/1999/xlink" version="1.1" viewBox="-10 0 2068 2048">
   <path fill="currentColor"
d="M1024 152l-1024 922h308v822h1432v-822h308zM1024 714q175 0 336 68q160 68 278 182l-124 124q-93 -97 -218 -148q-129 -54 -272 -54t-272 54q-126 52 -218 148l-126 -124q119 -114 280 -182q160 -68 336 -68zM1024 1056q104 0 202 40q95 41 168 114l-126 120
q-100 -102 -244 -102t-246 102l-124 -120q72 -73 168 -114q97 -40 202 -40zM1024 1402q72 0 122 48q50 47 50 119.5t-50 122.5t-122 50t-122 -50q-52 -50 -52 -122t51 -120t123 -48z" />
</svg>