<svg xmlns="http://www.w3.org/2000/svg" xmlns:xlink="http://www.w3.org/1999/xlink" version="1.1" viewBox="-10 0 2058 2048">
   <path fill="currentColor"
d="M409 0h1230q87 0 147 60t60 142v1644q0 82 -60 142t-147 60h-1230q-86 0 -146 -60q-61 -61 -61 -142v-1644q0 -81 61 -142q60 -60 146 -60zM1101 1178q187 0 288 -120q68 -77 92 -197q67 -24 113 -85q45 -60 45 -137q0 -96 -67 -163t-163 -67q-97 0 -164 67t-67 163
q0 74 38 130q40 59 106 82q-23 70 -82 115q-82 58 -216 58q-193 0 -307 86v-408q66 -24 110 -84q43 -59 43 -132q0 -97 -67 -164t-163 -67q-97 0 -164 67t-67 164q0 73 43 132q44 60 111 84v644q-67 24 -111 84q-43 59 -43 132q0 97 67 164t164 67q96 0 163 -67t67 -164
q0 -73 -38 -129q-40 -59 -101 -82q29 -73 96 -116q101 -57 274 -57zM640 1485q33 0 55 22t22 55q0 34 -22 56q-21 21 -55 21q-35 0 -56 -21t-21 -56q0 -34 21 -55q22 -22 56 -22zM640 409q34 0 55 21q22 22 22 56q0 33 -22 55q-21 21 -55 21q-35 0 -56 -21t-21 -55
q0 -35 21 -56t56 -21zM1409 562q33 0 55 22q21 21 21 55q0 35 -21 56t-55 21q-35 0 -56 -21t-21 -56q0 -34 21 -55q22 -22 56 -22z" />
</svg>