<svg xmlns="http://www.w3.org/2000/svg" xmlns:xlink="http://www.w3.org/1999/xlink" version="1.1" viewBox="-10 0 2068 2048">
   <path fill="currentColor"
d="M1606 534v144q0 53 -36 89t-92 36t-92 -36t-36 -89v-144q0 -53 36 -92q36 -38 92 -38t92 38q36 39 36 92zM1154 649v745q0 52 -39 91t-91 39t-91 -39t-39 -91v-745q0 -53 39 -89t90.5 -36t91 36t39.5 89zM2048 952v144q0 53 -36 89t-89 36t-93 -36q-38 -35 -38 -89v-144
q0 -54 38 -89q40 -36 93 -36t89 36t36 89zM254 952v144q0 54 -38 89q-38 36 -90 36q-54 0 -90 -36t-36 -89v-144q0 -53 36 -89t90 -36q52 0 90 36q38 35 38 89zM696 1370v144q0 53 -36 89t-91 36t-91 -36t-36 -89v-144q0 -52 36 -91t91 -39t91 39t36 91zM1154 1779v144
q0 53 -39.5 89t-91 36t-90.5 -36t-39 -89v-144q0 -53 38 -92q38 -38 91 -38t91 38q40 39 40 92zM1154 125v144q0 53 -40 92q-38 38 -91 38t-91 -38q-38 -39 -38 -92v-144q0 -53 39 -89t90.5 -36t91 36t39.5 89zM1606 1058v456q0 53 -36 89t-92 36t-92 -36t-36 -89v-456
q0 -53 36 -89t92 -36t92 36t36 89zM696 534v456q0 53 -36 89t-91 36t-91 -36t-36 -89v-456q0 -53 36 -92q36 -38 91.5 -38t90.5 38q36 39 36 92z" />
</svg>