<svg xmlns="http://www.w3.org/2000/svg" xmlns:xlink="http://www.w3.org/1999/xlink" version="1.1" viewBox="-10 0 2058 2048">
   <path fill="currentColor"
d="M1946 1485q0 63 -52 92l-812 452q-24 19 -58.5 19t-57.5 -19l-812 -452q-52 -28 -52 -92v-923q0 -63 52 -91l812 -452q23 -19 57.5 -19t58.5 19l812 452q52 29 52 91v923zM1024 221l-716 404v798l716 404l716 -404v-798zM1326 639q106 0 183 80t77 185v274q0 105 -77 182
t-185 77t-186 -77q-76 -76 -76 -182v-274q0 -106 76 -185q77 -80 188 -80zM1322 788q-42 0 -74 32t-32 79v284q0 42 32 74q30 31 76 31t76 -31q32 -32 32 -74v-284q0 -47 -32 -79t-78 -32zM966 1308v120h-524v-106l92 -91q90 -99 168 -193q90 -115 90 -163q0 -77 -52 -101
q-23 -15 -52 -10l-24 5q-33 9 -54 34q-29 34 -34 86l-154 10l6 -43q8 -46 28 -87q33 -57 88 -86q63 -44 152 -44q160 0 218 97q32 52 32 132q0 78 -80 194q-71 85 -154 169l-82 77h336z" />
</svg>