<svg xmlns="http://www.w3.org/2000/svg" xmlns:xlink="http://www.w3.org/1999/xlink" version="1.1" viewBox="-10 0 2058 2048">
   <path fill="currentColor"
d="M787 0q-71 0 -119 51q-49 52 -49 121q0 70 49 119t119 49q69 0 121 -49q50 -47 50 -119q0 -71 -50 -121q-51 -51 -121 -51zM1319 75q0 189 93 348q93 158 251 251q159 93 347 93v-128q-153 0 -283 -75t-205 -205q-75 -131 -75 -284h-128zM1570 75q0 119 60 221
q58 99 160 160q102 60 220 60v-128q-132 0 -222 -90t-90 -223h-128zM1821 75q0 80 55 135t134 55v-190h-189zM593 362q-24 0 -48 8l-507 159v489h168v-348l198 -62l-366 1440h168l268 -761l220 295v466h167v-598l-233 -428l71 -268l101 167h458v-167h-339l-190 -313
q-23 -35 -57 -57t-79 -22z" />
</svg>