<svg xmlns="http://www.w3.org/2000/svg" xmlns:xlink="http://www.w3.org/1999/xlink" version="1.1" viewBox="-10 0 2068 2048">
   <path fill="currentColor"
d="M1630 913q-237 -140 -602 -173q-339 -24 -590 53q-35 9 -70 -7q-37 -17 -46 -55q-9 -40 8 -72q17 -35 54 -44q285 -86 664 -57q409 33 678 192q32 20 44 60t-9 72t-59 39q-39 7 -72 -8zM1620 1197q-20 29 -50 36q-33 8 -62 -7q-208 -131 -492 -164t-526 44q-35 10 -62 -5
q-29 -15 -36 -46q-8 -32 6 -60q16 -29 44 -38q287 -82 600 -46q317 36 554 185q24 9 34 43q9 34 -10 58zM1494 1481q-15 25 -38 29q-24 5 -48 -10q-360 -221 -904 -96q-24 5 -44 -10q-23 -16 -30 -38q-7 -25 8 -46q16 -23 38 -31q594 -130 994 115q24 9 32 36q7 28 -8 51z
M1024 0q-200 0 -392 77q-188 76 -333.5 221t-220.5 334q-78 192 -78 392t78 392q75 189 220.5 334t333.5 221q192 77 392 77t392 -77q188 -76 333.5 -221t220.5 -334q78 -192 78 -392t-78 -392q-75 -189 -220.5 -334t-333.5 -221q-192 -77 -392 -77z" />
</svg>