<svg xmlns="http://www.w3.org/2000/svg" xmlns:xlink="http://www.w3.org/1999/xlink" version="1.1" viewBox="-10 0 2068 2048">
   <path fill="currentColor"
d="M408 0q168 0 288 120q122 121 122 289v206h412v-206q0 -169 120 -289t288 -120t288 120q122 121 122 289q0 167 -122 288q-120 120 -288 120h-206v414h206q168 0 288 120q122 121 122 288q0 168 -122 289q-120 120 -288 120t-288 -120t-120 -289v-206h-412v206
q0 168 -122 289q-120 120 -288 120t-288 -120t-120 -289q0 -168 120 -288t288 -120h208v-414h-208q-168 0 -288 -120t-120 -288q0 -169 120 -289t288 -120zM1432 1639q0 87 60 147t146 60q88 0 148 -60t60 -147q0 -86 -60 -146t-148 -60h-206v206zM1230 817h-412v414h412
v-414zM408 1433q-86 0 -146 60q-60 61 -60 146q0 86 60 147q60 60 146 60q88 0 148 -60t60 -147v-206h-208zM616 409q0 -87 -60 -147t-148 -60q-86 0 -146 60q-60 61 -60 147q0 85 60 146q60 60 146 60h208v-206zM1638 615q88 0 148 -60t60 -146q0 -87 -60 -147t-148 -60
q-86 0 -146 60t-60 147v206h206z" />
</svg>