<svg xmlns="http://www.w3.org/2000/svg" xmlns:xlink="http://www.w3.org/1999/xlink" version="1.1" viewBox="-10 0 2068 2048">
   <path fill="currentColor"
d="M1356 21q188 0 320 132q132 131 132 320q0 133 -70 240l310 311l-142 141l-314 -310q-108 70 -236 70q-188 0 -320 -132t-132 -320t132 -320t320 -132zM1356 219q-104 0 -178 75q-76 76 -76 179t76 177q74 73 178 73t177 -73t73 -177q0 -105 -74 -179q-73 -75 -176 -75z
M552 1274l-354 452h1408l-452 -603l-354 452zM1808 1829q0 81 -58 139q-60 59 -144 59h-1408q-80 0 -139 -59t-59 -139v-1408q0 -84 59 -143t139 -59h556q-52 119 -52 254q0 175 88 325q87 152 236 238q150 87 330 87q101 0 194 -28l258 254v480z" />
</svg>