<svg xmlns="http://www.w3.org/2000/svg" xmlns:xlink="http://www.w3.org/1999/xlink" version="1.1" viewBox="-10 0 2068 2048">
   <path fill="currentColor"
d="M2048 1925l-1924 -1925l-124 124l508 507l-32 78h110l146 146h-646v146h792l328 329q-9 21 -26 69q-124 -51 -238 0q-32 -128 -138 -215q-104 -87 -238 -87q-158 0 -272 115q-112 113 -112 276q0 164 112 277q113 114 268 114q157 0 266 -103t118 -258q41 -27 86 -32
q74 -9 142 36q14 151 121.5 254t258.5 103q84 0 160 -37l210 206zM566 1769q-114 0 -194 -82q-80 -83 -80 -199t80 -196t194 -80t194 80t80 196t-80 199q-79 82 -194 82zM1554 1769q-115 0 -194 -82q-80 -83 -80 -197q0 -37 8 -73l344 339q-40 13 -78 13zM2034 1001h-664
l-146 -146h810v146zM1554 1097q158 0 272 115q112 113 112 278q0 29 -6 69l-108 -105q-10 -96 -78 -162q-70 -67 -160 -80l-106 -106q36 -9 74 -9zM1078 709l-434 -439l68 -178q14 -36 52 -55q36 -19 72 -5l224 73l214 -73q43 -14 78 2q37 17 56 53l238 622h-568z" />
</svg>