<svg xmlns="http://www.w3.org/2000/svg" xmlns:xlink="http://www.w3.org/1999/xlink" version="1.1" viewBox="-10 0 2058 2048">
   <path fill="currentColor"
d="M1702 1617q67 -103 67 -229q0 -181 -125 -306t-306 -125q-180 0 -305 125q-126 126 -126 306q0 179 126 305t305 126q122 0 229 -67l297 296l134 -135zM1338 1626q-97 0 -170 -70q-72 -69 -72 -168q0 -100 72 -169t170 -69q100 0 169 69t69 169q0 99 -69 168
q-70 70 -169 70zM1962 1150h-49q-50 -118 -139 -207v-179h188v386zM1774 189h-287v-189h287q76 0 132 56t56 133v287h-188v-287zM1199 189h-386v-189h386v189zM239 0h287v189h-287v287h-189v-287q0 -77 56 -133t133 -56zM1006 1913h-193v-188q71 116 193 188zM239 1725h287
v188h-287q-77 0 -133 -56t-56 -132v-288h189v288zM239 1150h-189v-386h189v386z" />
</svg>