<svg xmlns="http://www.w3.org/2000/svg" xmlns:xlink="http://www.w3.org/1999/xlink" version="1.1" viewBox="-10 0 2068 2048">
   <path fill="currentColor"
d="M1472 1940q-71 30 -142 2q-73 -29 -104 -101q-30 -72 -2 -144q29 -71 100 -100q72 -28 144 0q74 29 102 98q28 70 0 142q-30 74 -98 103zM620 464q74 0 129 -55t55 -131t-55 -131t-131 -55t-132 55q-54 54 -54 131t54 131q56 55 134 55zM1960 1429l-358 153q34 35 52 74
q18 38 22 96l358 -153zM856 721l70 171q-39 -15 -62 -31q-83 -53 -122 -135l-70 -149q-30 -48 -72 -72t-82 -24q-43 0 -86 22q-84 63 -130 183q-27 65 -32 110l-34 144q-14 71 -14 148v459l-222 301l140 105l258 -350l16 -301l158 218v433h170v-564l-170 -244v-57
q0 -83 8 -122l36 -114q52 79 126 136q37 27 110 61q79 33 160 52l202 463q29 -33 74 -52q33 -17 92 -22l-354 -839zM1340 1036l180 428l528 -227l-184 -428z" />
</svg>