<svg xmlns="http://www.w3.org/2000/svg" xmlns:xlink="http://www.w3.org/1999/xlink" version="1.1" viewBox="-10 0 2068 2048">
   <path fill="currentColor"
d="M342 1595q0 -106 128 -192q106 -75 276 -123q153 -37 278 -37t278 37q170 48 276 123q128 86 128 192v112h-1364v-112zM1366 683q0 143 -99 242t-243 99t-242 -99q-98 -98 -98 -242q0 -145 98 -243q98 -99 242 -99t243 99t99 243zM0 229v1590q0 95 67 162t163 67h1588
q96 0 164 -67q66 -66 66 -162v-1590q0 -96 -66 -162q-68 -67 -164 -67h-1588q-96 0 -163 67t-67 162z" />
</svg>