<svg xmlns="http://www.w3.org/2000/svg" xmlns:xlink="http://www.w3.org/1999/xlink" version="1.1" viewBox="-10 0 2068 2048">
   <path fill="currentColor"
d="M658 1286l-144 144l-140 -140q-138 178 -162 400h196v206h-408v-100q0 -246 106 -458q104 -210 292 -358q187 -146 420 -190v-206l-818 -326v-208h2048v208l-818 326v206q232 44 418 190q189 148 294 358q106 214 106 458v100h-410v-206h198q-25 -222 -164 -400l-140 140
l-144 -144l140 -140q-182 -139 -404 -168v202h-202v-202q-219 29 -402 168zM1024 1588q86 0 146 60t60 146q0 84 -60 144t-146 60q-49 0 -92 -20l-394 -182l394 -188q45 -20 92 -20z" />
</svg>