<svg xmlns="http://www.w3.org/2000/svg" xmlns:xlink="http://www.w3.org/1999/xlink" version="1.1" viewBox="-10 0 2068 2048">
   <path fill="currentColor"
d="M1024 1231l-408 -414l-414 414h318q23 230 96 418q71 186 180 293q107 106 227.5 106t228.5 -106q110 -109 180 -293q73 -188 96 -418h-206q-25 270 -108 442q-85 173 -190.5 173t-189.5 -173q-84 -172 -108 -442h298zM1024 202q105 0 190 173q83 172 108 442h206
q-23 -230 -96 -418q-70 -184 -180 -293q-108 -106 -228 -106q-164 0 -296 187q-132 188 -184 486l72 -72l120 125q32 -228 112 -377q80 -147 176 -147zM2048 1125v-202h-1126l202 202h924zM0 1125h102l206 -202h-308v202z" />
</svg>