<svg xmlns="http://www.w3.org/2000/svg" xmlns:xlink="http://www.w3.org/1999/xlink" version="1.1" viewBox="-10 0 2058 2048">
   <path fill="currentColor"
d="M1639 923v-514h-307v-207h-308v-202h-408v308h-207v615h-101l202 1125h1028l202 -1125h-101zM1418 923q-24 92 -86 163v-408l206 101v144h-120zM1538 510v153l-206 -101v-52h206zM1024 308h207v355l-207 106v-461zM1024 885l207 -106v394q-98 58 -207 58v-346zM923 1216
q-129 -33 -206 -130v-307l206 -101v538zM717 101h206v461l-105 53v-307h-101v-207zM510 409h207v254l-101 53v207h-106v-514z" />
</svg>