<svg xmlns="http://www.w3.org/2000/svg" xmlns:xlink="http://www.w3.org/1999/xlink" version="1.1" viewBox="-10 0 2068 2048">
   <path fill="currentColor"
d="M1124 2v308q172 28 316 128q142 98 220 252q80 153 80 332q0 135 -48 260l268 158q88 -203 88 -418q0 -260 -124 -486q-121 -224 -330 -368q-208 -141 -470 -166zM1024 1738q-197 0 -360 -96q-165 -97 -260 -260q-96 -163 -96 -360q0 -179 78 -332q79 -154 222 -252
q143 -100 314 -128v-308q-260 25 -470 166q-213 144 -332 368q-120 226 -120 486q0 200 78 392q75 188 220.5 333.5t333.5 220.5q192 78 392 78q250 0 466 -112q218 -112 360 -306l-268 -160q-101 131 -246 200q-144 70 -312 70z" />
</svg>