<svg xmlns="http://www.w3.org/2000/svg" xmlns:xlink="http://www.w3.org/1999/xlink" version="1.1" viewBox="-10 0 2068 2048">
   <path fill="currentColor"
d="M1860 96h-1672q-78 0 -133 55t-55 127v1490q0 74 55 129t133 55h1672q78 0 134 -54q54 -54 54 -130v-1490q0 -74 -54 -128q-56 -54 -134 -54zM1860 1768h-1672v-1302h1672v1302zM1360 654q106 92 164 210q58 119 58 252q0 132 -58 252q-59 121 -164 214l-148 -58
q87 -66 134 -176q48 -110 48 -230t-48 -232t-134 -180zM690 654l148 52q-87 68 -136 180q-48 112 -48 232t48 230t136 176l-148 58q-106 -93 -164 -214q-60 -122 -60 -252t60 -252q57 -118 164 -210z" />
</svg>