<svg xmlns="http://www.w3.org/2000/svg" xmlns:xlink="http://www.w3.org/1999/xlink" version="1.1" viewBox="-10 0 2068 2048">
   <path fill="currentColor"
d="M1952 1212h-92q0 -180 -86 -330q-88 -151 -238 -238q-149 -86 -324 -86h-96v-118q45 -24 70 -66q26 -44 26 -96q0 -74 -54 -128q-56 -54 -134 -54t-132 54t-54 128q0 52 26 96q24 42 70 66v118h-96q-176 0 -326 86q-149 87 -236 238q-88 150 -88 330h-92
q-37 0 -66.5 25.5t-29.5 64.5v280q0 39 30 64q30 28 66 28h92v94q0 76 54 130q56 54 134 54h1298q78 0 132 -54t54 -130v-94h92q37 0 68 -28q28 -25 28 -64v-280q0 -39 -28 -64q-30 -26 -68 -26zM1860 1490h-186v278h-1298v-278h-188v-96h188v-182q0 -128 60 -234
q62 -107 168 -170q109 -64 234 -64h374q124 0 232 64q107 63 168 170q62 106 62 234v182h186v96zM902 1212q32 26 32 64q0 40 -32 70l-204 206l-204 -206q-28 -31 -28 -70q0 -38 29 -67t67 -29q40 0 70 32l66 64l70 -64q26 -32 68 -32q40 0 66 32zM1556 1212q26 26 26 64
q0 40 -26 70l-204 206l-206 -206q-30 -30 -30 -70q0 -38 29 -67t69 -29q41 0 68 32l70 64l64 -64q32 -32 70 -32t70 32z" />
</svg>