<svg xmlns="http://www.w3.org/2000/svg" xmlns:xlink="http://www.w3.org/1999/xlink" version="1.1" viewBox="-10 0 2058 2048">
   <path fill="currentColor"
d="M1920 1832l-1684 -1684l-108 108l208 208q-48 60 -48 132v768q0 187 92 344q92 156 248 248q157 92 342 92t348 -92q161 -91 262 -248l232 232zM972 1876q-139 0 -258 -68q-118 -68 -186 -186q-68 -119 -68 -258v-776l84 84v352h172v-180l84 84v96h96l556 560
q-68 133 -198 212q-131 80 -282 80zM716 408l-156 -152q29 -57 80 -92q52 -36 116 -36q30 0 60 8q24 -61 78 -98q55 -38 118 -38q79 0 138 50q57 48 74 126q11 -4 44 -4q87 0 152 62q64 61 64 150v504q44 -44 104 -56l64 -20q55 -16 106 4q50 20 82 68q25 37 26 80
q2 46 -14 84l-140 356l-132 -128l116 -300l-44 12q-65 17 -84 80l-56 140l-200 -200v-624q0 -16 -12 -30t-30 -14t-30 14t-12 30v536l-172 -168v-540q0 -16 -12 -28t-30 -12t-30 12t-12 28v452l-172 -168v-156q0 -16 -12 -28t-30 -12t-30 12t-12 28v68z" />
</svg>