<svg xmlns="http://www.w3.org/2000/svg" xmlns:xlink="http://www.w3.org/1999/xlink" version="1.1" viewBox="-10 0 2058 2048">
   <path fill="currentColor"
d="M690 841q70 97 160 137h388q28 -10 69 -50q72 -72 98 -176q25 -102 -11 -194l-9 -19q-9 -30 -51 -68q-4 -8 -18 -25t-18 -25q-82 -63 -119 -96q-63 -63 -75 -156q-12 -89 25 -169q-73 18 -133 78q-114 92 -150 231q-37 143 13 276v23q0 9 -23 27q-6 6 -16 3
q-11 -3 -20 -12l-9 -9q-46 -61 -53 -139q-7 -76 21 -153q-65 61 -99 146q-34 86 -25 183q0 28 19 87q0 40 36 100zM1051 695q9 -36 -9 -101l-9 -27q-14 -64 9 -119l32 59q14 24 55 60q27 23 41 41q22 22 27 55v32q0 77 -45 128l-23 9q-23 18 -37 18q-43 14 -87 -2
q-46 -17 -77 -48q49 0 84 -32q34 -31 39 -73zM1316 1074v197h-96l-100 777h-192l-101 -777h-96v-197h585z" />
</svg>