<svg xmlns="http://www.w3.org/2000/svg" xmlns:xlink="http://www.w3.org/1999/xlink" version="1.1" viewBox="-10 0 2058 2048">
   <path fill="currentColor"
d="M50 388l682 681h-682v293h974l682 686l122 -124l-1658 -1659zM1852 1069h146v293h-146v-293zM1610 1069h146v293h-146v-293zM1692 278q96 -96 96 -233h-146q0 72 -54 128q-52 55 -126 55v146q165 0 278 117q112 116 112 281v201h146v-201q0 -163 -86 -295
q-83 -129 -220 -199zM1266 653h152q80 0 136 53q56 52 56 144v123h146v-155q0 -128 -101.5 -217t-236.5 -89h-152q-67 0 -122 -60q-56 -59 -56 -134.5t52 -123.5q53 -48 126 -48v-146q-132 0 -228 96t-96 230q0 135 96 231t228 96zM1514 1357v-288h-288z" />
</svg>