<svg xmlns="http://www.w3.org/2000/svg" xmlns:xlink="http://www.w3.org/1999/xlink" version="1.1" viewBox="-10 0 2068 2048">
   <path fill="currentColor"
d="M1024 571q-198 0 -325.5 133t-130 317t136 323t321.5 136q184 -3 318 -131q134 -127 134 -320q0 -192 -133 -325t-321 -133zM230 1365h-230v454q0 95 67 162t163 67h454v-229h-454v-454zM230 229h454v-229h-454q-96 0 -163 67t-67 162v454h230v-454zM1818 0h-452v229h452
v454h230v-454q0 -96 -66 -162q-68 -67 -164 -67zM1818 1819h-452v229h452q96 0 164 -67q66 -66 66 -162v-454h-230v454z" />
</svg>