<svg xmlns="http://www.w3.org/2000/svg" xmlns:xlink="http://www.w3.org/1999/xlink" version="1.1" viewBox="-10 0 2067 2048">
   <path fill="currentColor"
d="M2013 32q-63 -6 -112 -16q-134 -16 -288 -16q-409 0 -730 128q-448 176 -672 576q-271 501 -192 1323q251 21 368 21q365 0 651 -85q261 -79 458 -230q176 -134 299 -320q107 -165 165 -373q54 -172 75 -368q16 -157 10 -325q-7 -132 -21 -224zM451 1595q2 -22 6 -64.5
t5 -58.5q17 -145 64 -277q66 -195 170 -342q137 -180 342 -277q234 -123 554 -123l-75 32q-90 39 -197 107q-135 88 -272 208q-160 144 -304 325q-166 214 -293 470z" />
</svg>