<svg xmlns="http://www.w3.org/2000/svg" xmlns:xlink="http://www.w3.org/1999/xlink" version="1.1" viewBox="-10 0 2058 2048">
   <path fill="currentColor"
d="M1639 510q62 0 108 -44t46 -113q0 -70 -43 -156q-52 -96 -111 -96q-57 0 -110 96q-44 88 -44 156q0 69 46 113t108 44zM1639 332q21 0 36 14q17 15 17 36t-17 36t-36 15t-36 -15t-17 -36t17 -36q15 -14 36 -14zM1024 409q62 0 108 -46t46 -113q0 -68 -43 -154
q-53 -96 -111 -96t-110 96q-44 88 -44 154q0 67 46 113t108 46zM1024 231q21 0 36 14q17 15 17 36t-17 36q-16 15 -36 15t-36 -15q-17 -15 -17 -36t17 -36q15 -14 36 -14zM409 510q62 0 108 -44t46 -113q0 -70 -43 -156q-53 -96 -111 -96q-57 0 -110 96q-44 88 -44 156
q0 69 46 113t108 44zM409 332q21 0 36 14q17 15 17 36t-17 36t-36 15t-36 -15t-17 -36t17 -36q15 -14 36 -14zM1894 923q0 38 -29 70q-28 31 -72 31h-53v207q0 82 -60 142t-142 60h-413v413h106q81 0 141 60q61 61 61 142h-817q0 -82 60 -142t142 -60h105v-413h-413
q-82 0 -142 -60t-60 -142v-207h-53q-44 0 -72 -31q-29 -32 -29 -72q0 -41 29 -73q28 -31 72 -31v-101q0 -43 32 -72t69 -29h106q38 0 70 29q31 28 31 72v101q44 0 72 31q29 32 29 73q0 40 -29 72q-28 31 -72 31h-53v207h413v-207h-53q-44 0 -72 -31q-29 -32 -29 -72
q0 -41 29 -73q28 -31 72 -31v-202q0 -42 32 -74q31 -31 69 -31h106q39 0 70 31t31 74v202q44 0 72 31q29 32 29 73q0 40 -29 72q-28 31 -72 31h-53v207h413v-207h-53q-44 0 -72 -31t-28 -72q0 -42 28 -73t72 -31v-101q0 -43 32 -72t69 -29h106q38 0 70 29q31 28 31 72v101
q44 0 72 31q29 32 29 75z" />
</svg>