<svg xmlns="http://www.w3.org/2000/svg" xmlns:xlink="http://www.w3.org/1999/xlink" version="1.1" viewBox="-10 0 2068 2048">
   <path fill="currentColor"
d="M1024 2048q-200 0 -392 -77q-188 -76 -333.5 -221t-220.5 -334q-78 -192 -78 -392t78 -392q75 -189 220.5 -334t333.5 -221q192 -77 392 -77q278 0 514 123q237 124 372 334q138 212 138 466q0 161 -82 305q-81 141 -224 226q-143 84 -310 84h-182q-24 0 -39 15t-15 33
q0 4 5 17t5 17q62 75 62 173q9 106 -62 180q-72 75 -182 75zM1024 202q-223 0 -411.5 110t-300.5 301q-110 191 -110 411t110 411q111 190 300 300q191 111 412 111q24 0 38 -14t14 -39q0 -7 -10 -29v-14q-62 -75 -62 -164q0 -106 74 -180t182 -74h172q172 0 294 -121
q120 -120 120 -288q0 -197 -112 -363q-111 -167 -300 -262q-190 -96 -410 -96zM462 817q58 0 106 48t48 108q0 61 -48 106q-50 46 -108 46q-60 0 -106 -46t-46 -106q0 -59 46 -108q44 -48 108 -48zM768 409q58 0 106 45t48 108q0 64 -48 109t-108 45t-105 -45t-45 -109
q0 -63 45 -108t107 -45zM1278 409q64 0 108 45q46 46 46 108q0 63 -46 109q-44 45 -106 45q-60 0 -108 -45t-48 -109q0 -63 48 -108t106 -45zM1586 817q62 0 108 48q46 49 46 108q0 60 -46 106t-105 46t-109 -46q-48 -45 -48 -106q0 -60 48 -108t106 -48z" />
</svg>