<svg xmlns="http://www.w3.org/2000/svg" xmlns:xlink="http://www.w3.org/1999/xlink" version="1.1" viewBox="-10 0 2068 2048">
   <path fill="currentColor"
d="M716 0v211q-173 63 -307.5 195t-202.5 310h-206v616h212q63 179 196.5 310t307.5 199v207h616v-212q179 -63 310 -197t198 -307h208v-616h-212q-64 -173 -194 -307q-132 -135 -310 -202v-207h-616zM922 202h202v207h-202v-207zM716 433v182h616v-182q187 96 282 283h-182
v616h182q-95 187 -282 283v-182h-616v182q-188 -97 -284 -283h184v-616h-184q96 -186 284 -283zM202 923h206v202h-206v-202zM1638 923h208v202h-208v-202zM922 1639h202v207h-202v-207z" />
</svg>