<svg xmlns="http://www.w3.org/2000/svg" xmlns:xlink="http://www.w3.org/1999/xlink" version="1.1" viewBox="-10 0 2068 2048">
   <path fill="currentColor"
d="M2004 1336l-200 196l200 200l-130 131l-200 -201l-196 201l-132 -131l196 -200l-196 -196l132 -131l196 196l200 -196zM1024 603q-116 0 -197 81t-81 198q0 118 80 199q80 80 198 80t198 -80q82 -81 82 -199q0 -117 -81 -198t-199 -81zM1024 1349q-124 0 -232 -64
q-107 -63 -170 -170q-64 -107 -64 -233t64 -233q63 -107 170 -170q106 -63 232.5 -63t233.5 63q106 63 170 170q62 106 62 233q0 63 -22 135q100 -43 206 -43q151 0 286 78q48 -77 88 -170q-122 -310 -400 -503q-280 -194 -623.5 -194t-622.5 194q-280 194 -402 503
q123 311 402 504q279 194 622 194q63 0 96 -5q-4 -15 -4 -43q0 -103 44 -205q-72 22 -136 22z" />
</svg>