<svg xmlns="http://www.w3.org/2000/svg" xmlns:xlink="http://www.w3.org/1999/xlink" version="1.1" viewBox="-10 0 2068 2048">
   <path fill="currentColor"
d="M2048 1925l-1924 -1925l-124 124l210 210q-60 23 -92 71q-32 49 -32 107v978q0 77 58 135q58 57 134 57h1280l366 366zM278 1490v-978h110l974 978h-1084zM1448 512v567l540 539q46 -61 46 -128v-978q0 -78 -57 -135t-135 -57h-1152l196 192h562zM1742 512q40 0 70 30
t30 68q0 39 -30 69t-68 30q-40 0 -70 -30q-28 -29 -28 -69q0 -39 28 -68q30 -30 68 -30zM1742 905q38 0 70 28q30 27 30 68q0 42 -30 69t-68 27q-40 0 -70 -27q-28 -26 -28 -69q0 -42 28 -68q32 -28 68 -28zM1156 786v-77h196v274z" />
</svg>