<svg xmlns="http://www.w3.org/2000/svg" xmlns:xlink="http://www.w3.org/1999/xlink" version="1.1" viewBox="-10 0 2058 2048">
   <path fill="currentColor"
d="M1648 453h341l-453 -453l-453 453h341v1595h224v-1595zM513 2048h-454v-229h454v-112h-230q-90 0 -157 -67t-67 -163v-112q0 -95 67 -162t157 -67h230q95 0 162 67t67 162v454q0 95 -67 162t-162 67zM513 1365h-230v112h230v-112zM283 0h230q95 0 162 67t67 162v454
q0 95 -67 162t-162 67h-230q-90 0 -157 -67t-67 -162v-454q0 -95 67 -162t157 -67zM283 683h230v-454h-230v454z" />
</svg>