<svg xmlns="http://www.w3.org/2000/svg" xmlns:xlink="http://www.w3.org/1999/xlink" version="1.1" viewBox="-10 0 2068 2048">
   <path fill="currentColor"
d="M1796 219q-50 -9 -130 -74q-82 -67 -123.5 -77t-146.5 16q-103 26 -146 17q-74 -26 -150 -17q-74 9 -140 48l-10 1329l-16 91q-26 114 36 211q64 98 174 122q112 24 210 -39q98 -64 124 -172l16 -96l554 -1207q-43 -64 -112 -104q-67 -39 -140 -48zM1294 1631
q-9 39 -40 61q-33 22 -72 13t-62 -42q-22 -32 -12 -72l82 -366q4 -34 36 -56q33 -22 70 -18q37 5 60 37q21 32 16 72zM812 1862q-53 -87 -66 -184l-70 -313q-9 -36 10 -70q20 -35 60 -44h22v-1054q-44 0 -114 -17q-112 -26 -148 -18q-41 10 -118 70q-86 69 -134 78
q-74 9 -142 48q-69 40 -112 105l554 1207l18 96q24 112 124 174q96 61 206 35h14q-66 -52 -104 -113z" />
</svg>