<svg xmlns="http://www.w3.org/2000/svg" xmlns:xlink="http://www.w3.org/1999/xlink" version="1.1" viewBox="-10 0 2058 2048">
   <path fill="currentColor"
d="M1680 795q-48 0 -80 -32t-32 -80t32 -80t80 -32t80 32t32 80t-32 80t-80 32zM998 795h-684v-566h684v566zM1882 480l-422 -421l-122 117l240 240q-79 32 -130 104q-52 72 -52 163q0 117 84 200q82 82 200 82q58 0 112 -21v821q0 48 -32 80t-80 32t-80 -32t-32 -80v-512
q0 -95 -67 -162t-163 -67h-112v-795q0 -95 -67 -162t-161 -67h-684q-94 0 -161 67t-67 162v1819h1140v-853h170v570q0 117 83 200t200 83t200 -83t83 -200v-1082q0 -117 -80 -203z" />
</svg>