<svg xmlns="http://www.w3.org/2000/svg" xmlns:xlink="http://www.w3.org/1999/xlink" version="1.1" viewBox="-10 0 2068 2048">
   <path fill="currentColor"
d="M1638 804q89 0 170 36l240 -302q-217 -167 -484 -260q-262 -90 -540 -90t-540 90q-267 93 -484 260q352 440 706 884l318 396l86 -110v-268q0 -61 30 -120q27 -56 78 -100v-20q0 -104 58 -194q59 -93 154 -148q97 -54 208 -54zM1024 630q-313 0 -598 160l-170 -210
q357 -214 766 -214q410 0 770 214l-174 214q-114 -67 -252 -110q-169 -54 -342 -54zM1886 1332v-132q0 -91 -75.5 -155.5t-172.5 -64.5q-94 0 -168 64t-74 156v132q-42 0 -75 33t-33 75v308q0 46 33 79t75 33h482q47 0 80 -30q36 -32 36 -74v-308q0 -47 -34 -82
q-33 -34 -74 -34zM1772 1332h-266v-132q0 -48 40 -80q39 -32 96 -32q55 0 92 32q38 31 38 80v132z" />
</svg>