<svg xmlns="http://www.w3.org/2000/svg" xmlns:xlink="http://www.w3.org/1999/xlink" version="1.1" viewBox="-10 0 2067 2048">
   <path fill="currentColor"
d="M1761 333l-137 137q150 150 203 353q53 201 0 402q-53 202 -203 352l137 137q187 -187 253 -439t0 -503q-66 -252 -253 -439zM1486 612l-137 137q115 115 115 275q0 159 -115 274l137 137q111 -111 151 -260q40 -151 0 -302q-40 -150 -151 -261zM1070 242h-192v-192h-585
v192h-196q-43 0 -69 29q-27 30 -27 71v1560q0 42 27 69t69 27h973q41 0 71 -27t30 -69v-1560q0 -41 -30 -71q-29 -29 -71 -29zM974 1513h-781v-1075h781v1075z" />
</svg>