<svg xmlns="http://www.w3.org/2000/svg" xmlns:xlink="http://www.w3.org/1999/xlink" version="1.1" viewBox="-10 0 2068 2048">
   <path fill="currentColor"
d="M922 1125h202v207h-202v-207zM922 716h202v207h-202v-207zM922 1538h202q88 0 148 -60t60 -146v-154q0 -62 -46 -108t-108 -46q62 0 108 -46t46 -108v-154q0 -86 -60 -146t-148 -60h-202q-86 0 -146 60t-60 146v154q0 63 46 108q46 46 108 46q-62 0 -108 46
q-46 45 -46 108v154q0 86 60 146t146 60zM1024 0q200 0 392 77q188 76 333.5 221t220.5 334q78 192 78 392t-78 392q-75 189 -220.5 334t-333.5 221q-192 77 -392 77t-392 -77q-188 -76 -333.5 -221t-220.5 -334q-78 -192 -78 -392t78 -392q75 -189 220.5 -334t333.5 -221
q192 -77 392 -77z" />
</svg>