<svg xmlns="http://www.w3.org/2000/svg" xmlns:xlink="http://www.w3.org/1999/xlink" version="1.1" viewBox="-10 0 2058 2048">
   <path fill="currentColor"
d="M1638 1125l308 308v413q0 82 -60 142t-146 60h-1432q-86 0 -146 -60t-60 -142v-413l306 -308h88l200 207h-206l-182 206h1432l-178 -206h-198l202 -207h72zM1740 1846v-106h-1432v106h1432zM956 1332l-508 -505q-30 -29 -30 -72t30 -72l652 -654q30 -29 73 -29t71 29
l510 509q28 28 28 73q0 44 -28 72l-654 649q-28 33 -71.5 33t-72.5 -33zM1172 245l-508 510l364 360l510 -504z" />
</svg>