<svg xmlns="http://www.w3.org/2000/svg" xmlns:xlink="http://www.w3.org/1999/xlink" version="1.1" viewBox="-10 0 2068 2048">
   <path fill="currentColor"
d="M2048 615v-615h-616v389l-164 226h-490l-162 -226v-389h-616v615h202v818h-202v615h616v-202h816v202h616v-615h-202v-818h202zM922 817h202v207h-202v-207zM202 202h206v207h-206v-207zM408 1846h-206v-207h206v207zM1432 1639h-816v-206h-208v-818h112l196 265v351h616
v-351l196 -265h110v818h-206v206zM1846 1846h-208v-207h208v207zM1638 409v-207h208v207h-208z" />
</svg>