<svg xmlns="http://www.w3.org/2000/svg" xmlns:xlink="http://www.w3.org/1999/xlink" version="1.1" viewBox="-10 0 2068 2048">
   <path fill="currentColor"
d="M510 152q86 0 146 60t60 146t-60 146t-144 60t-144 -60t-60 -146t60 -146t142 -60zM938 974h1110v822q0 82 -60 142t-142 60h-1644q-82 0 -142 -60t-60 -142v-822h308v-78q0 -96 66 -162q68 -68 164 -68q51 0 98 22q47 21 76 54l138 160q32 36 88 72zM510 1796v-616h-202
v616h202zM922 1796v-616h-206v616h206zM1332 1796v-616h-208v616h208zM1740 1796v-616h-202v616h202zM1706 344q76 76 112 176q37 100 22 204l-10 42h-192l10 -56q25 -131 -66 -226l-10 -6q-78 -81 -114 -180q-36 -100 -22 -204l10 -44h192l-8 62q-25 126 66 226zM1298 344
q76 76 112 176q37 99 18 204l-6 42h-192l10 -56q23 -131 -72 -226l-6 -6q-82 -82 -114 -180q-34 -100 -20 -204l6 -44h196l-10 62q-24 126 68 226z" />
</svg>