<svg xmlns="http://www.w3.org/2000/svg" xmlns:xlink="http://www.w3.org/1999/xlink" version="1.1" viewBox="-10 0 2068 2048">
   <path fill="currentColor"
d="M1594 912q79 0 112 11v-550l-852 -373l-854 373v560q0 252 112 488q114 239 308 406q193 167 434 221q66 -10 180 -59q-122 -174 -122 -394q0 -187 90 -344q91 -158 248 -248q160 -91 344 -91zM1594 1136q-192 0 -325 133t-133 323t133 323t323 133t323 -133t133 -323
t-133 -323t-321 -133zM1594 1296q48 0 86 37q38 38 38 88t-38 88t-88 38t-88 -38q-38 -37 -38 -88t37 -88t91 -37zM1594 1909q-75 0 -140 -37q-68 -38 -110 -96q7 -54 96 -96q80 -32 154.5 -32t155.5 32q96 42 96 96q-49 59 -112.5 96t-139.5 37z" />
</svg>