<svg xmlns="http://www.w3.org/2000/svg" xmlns:xlink="http://www.w3.org/1999/xlink" version="1.1" viewBox="-10 0 2068 2048">
   <path fill="currentColor"
d="M1024 1466q-130 0 -220 -88q-88 -88 -88 -220q0 -82 40 -154q40 -70 114 -110l994 -576l-566 980q-41 79 -114 122q-76 46 -160 46zM1024 134q268 0 508 136l-216 124q-140 -52 -292 -52q-223 0 -411.5 109.5t-300.5 298.5q-110 187 -110 408q0 168 64 318
q65 149 176 264q34 29 34 72q0 44 -32 72q-32 30 -74 30t-72 -30q-139 -139 -218 -326q-80 -187 -80 -394q0 -206 78 -398q75 -188 220.5 -333.5t333.5 -220.5q192 -78 392 -78zM2048 1158q0 211 -80 400q-81 189 -218 326q-30 30 -73 30t-72 -29t-29 -72t30 -73
q109 -113 174 -264q66 -150 66 -318q0 -151 -58 -298l124 -212q136 245 136 510z" />
</svg>