<svg xmlns="http://www.w3.org/2000/svg" xmlns:xlink="http://www.w3.org/1999/xlink" version="1.1" viewBox="-10 0 2068 2048">
   <path fill="currentColor"
d="M1532 1534l-220 -222q120 -121 120 -288q0 -109 -58 -207l222 -221q144 188 144 428q0 145 -56 276q-56 134 -152 234zM1024 308q240 0 428 144l-222 221q-97 -58 -206 -58q-168 0 -288 121q-120 120 -120 288t120 288l-222 222q-95 -100 -152 -234q-54 -131 -54 -276
q0 -197 96 -361q95 -162 260 -259q163 -96 360 -96zM1024 0q-200 0 -392 77q-188 76 -333.5 221t-220.5 334q-78 192 -78 392t78 392q75 189 220.5 334t333.5 221q192 77 392 77t392 -77q188 -76 333.5 -221t220.5 -334q78 -192 78 -392q0 -278 -138 -514
q-136 -236 -372 -373q-237 -137 -514 -137z" />
</svg>