<svg xmlns="http://www.w3.org/2000/svg" xmlns:xlink="http://www.w3.org/1999/xlink" version="1.1" viewBox="-10 0 2068 2048">
   <path fill="currentColor"
d="M1930 390q46 0 82 36t36 86v338q0 46 -38 82q-39 36 -88 36h-528q-46 0 -82 -38q-36 -40 -36 -88v-338q0 -42 36 -78t82 -36v-144q0 -100 81 -172t185 -72q102 0 186 72t84 172v144zM1804 390v-144q0 -58 -40 -92t-102 -34q-61 0 -103.5 34t-42.5 92v144h288zM0 1762
l140 -528l144 248l416 -244v-754h-290l384 -382l388 382h-288v754l676 388l140 -248l144 524l-528 144l144 -252l-676 -388l-414 238l148 258z" />
</svg>