<svg xmlns="http://www.w3.org/2000/svg" xmlns:xlink="http://www.w3.org/1999/xlink" version="1.1" viewBox="-10 0 2068 2048">
   <path fill="currentColor"
d="M192 117h1368q82 0 139 57t57 139v690q-113 -18 -222 5q-107 22 -198 82h-362v393h106q-14 96 0 192h-888q-76 0 -134 -57q-58 -58 -58 -135v-1170q0 -81 58 -139q58 -57 134 -57zM192 505v393h586v-393h-586zM974 505v393h586v-393h-586zM192 1090v393h586v-393h-586z
M1412 1931l70 -274l-216 -183l284 -23l106 -260l108 251l284 19l-214 187l68 274l-246 -137z" />
</svg>