<svg xmlns="http://www.w3.org/2000/svg" xmlns:xlink="http://www.w3.org/1999/xlink" version="1.1" viewBox="-10 0 2068 2048">
   <path fill="currentColor"
d="M408 409q88 0 148 -60t60 -145q0 -84 -60 -144t-148 -60q-86 0 -146 60q-60 61 -60 144q0 84 60 145q60 60 146 60zM818 760q0 -60 -34 -113q-33 -50 -92 -75q-132 -62 -284 -62q-150 0 -282 62q-60 25 -92 75q-34 51 -34 113v57h818v-57zM1638 409q88 0 148 -60t60 -145
q0 -84 -60 -144t-148 -60q-86 0 -146 60t-60 144q0 85 60 145t146 60zM2048 760q0 -60 -34 -113q-33 -50 -92 -75q-132 -62 -284 -62q-150 0 -282 62q-60 25 -92 75q-34 51 -34 113v57h818v-57zM1740 1538v-206h-1432v206l-308 -307l308 -308v202h1432v-202l308 308z
M818 1740v-101h-256q-19 0 -36 15q-16 15 -16 38v308q0 19 16 34q16 14 36 14h206q20 0 34 -14q16 -15 16 -34v-154q0 -23 -15 -38t-35 -15h-152v-53h202zM716 1894v53h-100v-53h100zM1586 1740h-102v308h-100v-308h-106v-101h308v101zM1076 1740v53h102v101h-102v154h-106
v-409h260v101h-154z" />
</svg>