<svg xmlns="http://www.w3.org/2000/svg" xmlns:xlink="http://www.w3.org/1999/xlink" version="1.1" viewBox="-10 0 2058 2048">
   <path fill="currentColor"
d="M794 0l-223 1477h906l-224 -1477h-459zM965 315q37 0 61 24t24 58q0 35 -24 62q-23 26 -58 26q-36 0 -62 -26t-26 -62q0 -35 26 -58q27 -24 59 -24zM1082 624q48 0 80 35t32 82q0 48 -32 80t-80 32q-47 0 -82 -32t-35 -80q0 -47 35 -82t82 -35zM965 1024q75 0 123 51
t48 120t-48 120q-47 50 -120 50t-123 -50q-51 -51 -51 -120t51 -120t120 -51zM571 1595l223 224l-223 229h906l-224 -229l224 -224h-906z" />
</svg>