<svg xmlns="http://www.w3.org/2000/svg" xmlns:xlink="http://www.w3.org/1999/xlink" version="1.1" viewBox="-10 0 2058 2048">
   <path fill="currentColor"
d="M1701 571h-682v-571h-453q-193 0 -326 133t-133 326v682q0 91 67 158q66 66 162 66h230v331q-141 -92 -198 -149l-154 160q154 165 362 253q207 88 443 88q235 0 442 -85q209 -85 363 -246l-155 -154q-78 78 -187 144v-342h230q96 0 162 -66q67 -67 67 -158v-341
q-11 -97 -80 -163t-160 -66zM1248 1797q-69 27 -229 27q-92 0 -230 -27v-432h459v432zM1701 1141h-1365v-682q0 -96 67 -163t163 -67h223v571h912v341z" />
</svg>