<svg xmlns="http://www.w3.org/2000/svg" xmlns:xlink="http://www.w3.org/1999/xlink" version="1.1" viewBox="-10 0 2068 2048">
   <path fill="currentColor"
d="M1174 820q24 0 40 15q14 14 14 33v154h-614v-154q0 -18 15 -33t37 -15h508zM1740 1079v-364h-206v316q102 9 206 48zM1842 614h-1842v-614h1842v614zM1636 206h-1430v202h1430v-202zM600 1636h-292v-921h-208v1127h596q-44 -63 -68 -129zM1434 1535q-42 0 -74 29
q-32 28 -32 72q0 43 31 74t75 31q43 0 72 -31q28 -32 28 -74q0 -43 -29 -72t-71 -29zM2048 1636q-76 180 -242 297q-165 115 -372 115t-374.5 -115t-239.5 -297q73 -183 240 -295q168 -113 374 -113t372 113q165 113 242 295zM1688 1636q0 -106 -74 -180t-180 -74
q-107 0 -182 74q-78 75 -78 180t77 182t183 77q104 0 180 -77q74 -75 74 -182z" />
</svg>