<svg xmlns="http://www.w3.org/2000/svg" xmlns:xlink="http://www.w3.org/1999/xlink" version="1.1" viewBox="-10 0 2068 2048">
   <path fill="currentColor"
d="M1876 1366q31 0 60 26q28 25 28 58v340q0 32 -28 60t-60 28h-424q-32 0 -60 -28t-28 -60v-340q0 -33 28 -58q29 -26 60 -26v-128q0 -92 62 -154t150 -62t150 62t62 154v128zM1792 1366v-128q0 -52 -38 -90t-90 -38t-90 38t-38 90v128h256zM1492 854v-44q0 -127 -62 -236
q-62 -108 -170 -170q-109 -62 -236 -62q-160 0 -284 96q-125 96 -168 244h-60q-140 0 -240 100t-100 242t100 242t240 100h696q-12 40 -12 84v84h-684q-139 0 -258 -68q-118 -68 -186 -186q-68 -119 -68 -258q0 -128 60 -240q59 -110 164 -182q101 -69 232 -86
q79 -154 232 -250q151 -94 336 -94q232 0 408 146t220 370q167 12 282 134q114 121 114 290l-4 64q-24 -137 -130 -228q-107 -92 -250 -92h-172z" />
</svg>