<svg xmlns="http://www.w3.org/2000/svg" xmlns:xlink="http://www.w3.org/1999/xlink" version="1.1" viewBox="-10 0 2068 2048">
   <path fill="currentColor"
d="M0 202q152 307 204 567q52 255 0 510q-52 260 -204 567h202q157 -309 208 -567q52 -255 4 -510q-49 -257 -202 -567h-212zM408 202q160 312 208 567t0 510t-208 567h308q221 0 446 -202q159 -143 342 -413q92 101 236 101q130 0 219 -89t89 -219t-89 -219t-219 -89
q-144 0 -236 101q-201 -282 -346 -413q-219 -202 -442 -202h-308zM716 409q164 0 326 163q96 91 250 322q49 71 92 130q-43 59 -92 130q-154 231 -250 322q-162 163 -326 163q245 -615 0 -1230zM1740 923q39 0 72 31q34 32 34 70t-34 70q-33 31 -74 31q-42 0 -71 -29
t-29 -70t31 -72t71 -31z" />
</svg>