<svg xmlns="http://www.w3.org/2000/svg" xmlns:xlink="http://www.w3.org/1999/xlink" version="1.1" viewBox="-10 0 2058 2048">
   <path fill="currentColor"
d="M342 1558q-102 0 -173 71t-71 172q0 99 71 173t173 74q100 0 171 -74t71 -173q0 -101 -71 -172t-171 -71zM1708 1558q-100 0 -174 71q-74 70 -74 172q0 100 74 173q74 74 174 74t171 -74t71 -173q0 -101 -71 -172t-171 -71zM1854 1462v-50q0 -120 -6 -192
q-13 -104 -44 -155q-52 -110 -192 -179q-94 -39 -266 -82l-86 -23q-70 0 -130 -61q-63 -63 -76 -135h-274q-22 0 -36 -14t-14 -37q0 -22 14 -36t36 -14h242v-96h-242q-22 0 -36 -14t-14 -34t14 -34t36 -14h242v-292h-828v1462h1660zM1022 1558q-100 0 -171 71t-71 172
q0 99 70.5 173t171 74t174.5 -74q72 -73 72 -173q0 -102 -72 -172q-75 -71 -174 -71z" />
</svg>