<svg xmlns="http://www.w3.org/2000/svg" xmlns:xlink="http://www.w3.org/1999/xlink" version="1.1" viewBox="-10 0 2068 2048">
   <path fill="currentColor"
d="M1324 964q160 0 272 112t112 272q0 112 -60 204l264 264l-120 120l-268 -264q-91 60 -200 60q-160 0 -272 -112t-112 -272t112 -272t272 -112zM1324 1136q-87 0 -152 62q-64 61 -64 150t64 150q65 62 152 62q88 0 150 -62t62 -150t-62 -150t-150 -62zM1876 1048
q0 -103 -74 -180q-73 -76 -182 -76h-128v-40q0 -127 -62 -236q-61 -107 -170 -172q-107 -64 -236 -64q-160 0 -284 96t-168 248h-60q-140 0 -240 100t-100 240t100 240t240 100h256v44q0 65 16 128h-272q-139 0 -258 -68q-118 -68 -186 -186q-68 -119 -68 -258
q0 -132 60 -242t164 -182q103 -72 232 -84q79 -154 232 -250q151 -94 336 -94q232 0 408 146t220 370q167 7 282 130q114 122 114 290q0 105 -46 194q-46 90 -126 150v-44q0 -93 -28 -180q28 -52 28 -120z" />
</svg>