<svg xmlns="http://www.w3.org/2000/svg" xmlns:xlink="http://www.w3.org/1999/xlink" version="1.1" viewBox="-10 0 2068 2048">
   <path fill="currentColor"
d="M1024 0q200 0 392 77q188 76 333.5 221t220.5 334q78 192 78 392t-78 392q-75 189 -220.5 334t-333.5 221q-192 77 -392 77t-392 -77q-188 -76 -333.5 -221t-220.5 -334q-78 -192 -78 -392t78 -392q75 -189 220.5 -334t333.5 -221q192 -77 392 -77zM818 1365q24 77 0 154
l-10 29q-20 39 -48 72q-44 44 -100 63q-54 19 -84 2q-28 -17 -12 -75q17 -56 66 -108q45 -48 120 -98zM1668 437q-24 -91 -120 -139q-94 -47 -236 -50q-138 -3 -278 50q-308 106 -486 279q-106 96 -150 197q-33 77 -24 130q15 95 116 187q52 51 182 144q72 49 102 73v4
q-86 43 -150 82q-128 92 -164 171t-12 151q24 57 62 72q102 29 196 -14q98 -44 154 -130q48 -72 58 -168q4 -87 -24 -144q75 -19 158 -10q121 15 174 82q43 48 36 98q-8 51 -56 84q-20 9 -16 17q2 7 22 3q18 -4 48 -29q42 -39 42 -96q5 -87 -74.5 -159t-209.5 -72
q-110 4 -162 24l-6 -10q-35 -36 -124 -105q-97 -73 -140 -121q-62 -71 -58 -149q9 -210 410 -413q148 -72 292 -96q120 -19 210 5q89 24 112 76q29 68 -22 164q-51 97 -160 168q-125 77 -284 96q-79 9 -144 -14q-38 -14 -62 -39l-6 -4q-14 -14 -20 -10q-8 4 2 29q4 22 38 50
q31 25 76 46q55 19 150 14q121 -9 240 -52q150 -58 246 -200q95 -141 62 -272z" />
</svg>