<svg xmlns="http://www.w3.org/2000/svg" xmlns:xlink="http://www.w3.org/1999/xlink" version="1.1" viewBox="-10 0 2058 2048">
   <path fill="currentColor"
d="M1671 971h-1294v-541h1294v541zM1509 1618q-66 0 -114 -48t-48 -116q0 -69 48 -114t114 -45t114 45t48 114q0 68 -48 116t-114 48zM539 1618q-66 0 -114 -48t-48 -116q0 -69 48 -114t114 -45q65 0 113 45t48 114q0 68 -48 116t-113 48zM160 1507q0 143 111 243v192
q0 46 30 76t76 30h106q45 0 78 -30t33 -76v-111h860v111q0 47 32 76q33 30 79 30h106q46 0 76 -30t30 -76v-192q111 -100 111 -243v-1077q0 -258 -253 -359q-193 -71 -611 -71q-419 0 -612 71q-252 101 -252 359v1077z" />
</svg>