<svg xmlns="http://www.w3.org/2000/svg" xmlns:xlink="http://www.w3.org/1999/xlink" version="1.1" viewBox="-10 0 2068 2048">
   <path fill="currentColor"
d="M1024 0q-200 0 -392 77q-188 76 -333.5 221t-220.5 334q-78 192 -78 392t78 392q75 189 220.5 334t333.5 221q192 77 392 77t392 -77q188 -76 333.5 -221t220.5 -334q78 -192 78 -392t-78 -392q-75 -189 -220.5 -334t-333.5 -221q-192 -77 -392 -77zM1024 1846
q-221 0 -412 -111q-189 -110 -300 -300q-110 -191 -110 -411t110 -411q112 -191 300.5 -301t411 -110t411 110t299.5 301q112 191 112 411t-112 411q-110 190 -300 300q-190 111 -410 111zM818 769q0 57 -46 106q-46 48 -106 48t-108 -48t-48 -108q0 -61 48 -106
q49 -46 108 -46q60 0 106 46t46 108zM1024 1562q-132 0 -246 -50q-116 -52 -182 -137l144 -144q34 53 110 89q77 36 173.5 36t172.5 -36q79 -37 112 -89l144 144q-67 85 -184 137q-113 50 -244 50zM1538 817h-414v-101h414v101z" />
</svg>