<svg xmlns="http://www.w3.org/2000/svg" xmlns:xlink="http://www.w3.org/1999/xlink" version="1.1" viewBox="-10 0 2068 2048">
   <path fill="currentColor"
d="M1024 0q-200 0 -392 77q-188 76 -333.5 221t-220.5 334q-78 192 -78 392t78 392q75 189 220.5 334t333.5 221q192 77 392 77t392 -77q188 -76 333.5 -221t220.5 -334q78 -192 78 -392t-78 -392q-75 -189 -220.5 -334t-333.5 -221q-192 -77 -392 -77zM510 769v-154
l308 154q0 57 -46 106q-46 48 -106 48t-108 -48t-48 -106zM1308 1562q-33 -56 -112 -93q-76 -36 -172.5 -36t-173.5 36t-110 93l-144 -149q66 -80 180 -132q111 -50 248 -50t248 50q112 51 180 132zM1538 769q0 58 -48 106t-108 48q-62 0 -107 -48t-45 -106l308 -154v154z
" />
</svg>