<svg xmlns="http://www.w3.org/2000/svg" xmlns:xlink="http://www.w3.org/1999/xlink" version="1.1" viewBox="-10 0 2068 2048">
   <path fill="currentColor"
d="M2048 1509l-324 324v-218h-646v-217h646v-212zM648 215q136 0 230 93q94 94 94 230v324q0 130 -94 227t-230.5 97t-229.5 -97q-94 -96 -94 -227v-324q0 -137 93 -230t231 -93zM648 427q-46 0 -76 33q-30 34 -30 78v324q0 45 30 76q30 30 76 30t76 -30q30 -31 30 -76v-324
q0 -44 -30 -78q-31 -33 -76 -33zM1402 215q136 0 228 93q94 94 94 230v324q0 130 -93.5 227t-227 97t-229.5 -97q-96 -96 -96 -227v-324q0 -137 96 -230t228 -93zM1402 427q-46 0 -76 33q-32 34 -32 78v324q0 45 32 76q30 30 76 30q44 0 77 -30t33 -76v-324q0 -45 -33 -78
t-77 -33zM108 968q44 0 77 30t33 76t-33 79t-77 33q-46 0 -76 -33q-32 -34 -32 -79t32 -76q30 -30 76 -30z" />
</svg>