<svg xmlns="http://www.w3.org/2000/svg" xmlns:xlink="http://www.w3.org/1999/xlink" version="1.1" viewBox="-10 0 2068 2048">
   <path fill="currentColor"
d="M298 298q-139 144 -218 332q-80 186 -80 394t80 394q79 188 218 332l144 -144q-111 -116 -176 -265q-64 -150 -64 -317t64 -317q65 -149 176 -265zM1750 298l-144 144q109 114 174 265q66 150 66 317t-66 317q-65 151 -174 265l144 144q137 -142 218 -332
q80 -189 80 -394t-80 -394q-81 -190 -218 -332zM592 591q-86 80 -136 195q-48 112 -48 238t48 238q50 115 136 195l144 -145q-120 -120 -120 -288t120 -288zM1456 591l-144 145q120 121 120 288t-120 288l144 145q85 -78 134 -195q48 -113 48 -238.5t-48 -237.5
q-49 -117 -134 -195zM1024 817q-86 0 -146 60t-60 147t60 147t146 60t146 -60t60 -147t-60 -147t-146 -60z" />
</svg>