<svg xmlns="http://www.w3.org/2000/svg" xmlns:xlink="http://www.w3.org/1999/xlink" version="1.1" viewBox="-10 0 2068 2048">
   <path fill="currentColor"
d="M1302 28q35 -30 72 -27q38 3 68 32q27 28 30.5 69t-26.5 70l-322 317l82 96l198 515q14 37 4 82q-8 42 -38 77l-318 317q-47 43 -110 43q-62 0 -106 -43l-476 -471q-38 -42 -38 -106l-52 -659h110q43 0 76 29l16 19l104 356zM576 2047l-576 -577l216 -216l582 581z
M1792 254q-53 64 -66 81q-79 98 -126 183q-62 120 -62 197q0 106 74 181q74 74 180 74t180 -74q76 -75 76 -181q0 -77 -64 -197q-46 -85 -124 -183z" />
</svg>