<svg xmlns="http://www.w3.org/2000/svg" xmlns:xlink="http://www.w3.org/1999/xlink" version="1.1" viewBox="-10 0 2068 2048">
   <path fill="currentColor"
d="M1261 581l-264 -336l188 -36l259 336zM1914 451l-72 -371l-375 71l259 340zM232 1015h1351l188 -193h-1727v958q0 76 56 132t132 56h671v-188h-671v-765zM979 639l-264 -340l-188 40l264 336zM250 393l-94 18q-76 18 -121 83q-45 64 -31 145l40 183l465 -89zM1091 1776
v192h197l586 -582l-197 -197zM2030 1154l-125 -126q-13 -13 -34 -13q-20 0 -33 13l-94 94l197 197l89 -94q18 -13 18 -33t-18 -38z" />
</svg>