<svg xmlns="http://www.w3.org/2000/svg" xmlns:xlink="http://www.w3.org/1999/xlink" version="1.1" viewBox="-10 0 2058 2048">
   <path fill="currentColor"
d="M1202 161q-66 -29 -149 -45l223 -116l79 257q-71 -59 -153 -96zM544 232q-68 46 -116 103l12 -248l261 62q-84 26 -157 83zM1595 695q-12 -86 -37 -149l211 133l-182 199q17 -89 8 -183zM275 836q10 82 33 153l-207 -132l178 -199q-13 95 -4 178zM1479 1888q0 65 -46 111
t-107 46q-62 0 -108 -46q-45 -45 -45 -111q0 -68 78 -183q37 -54 75 -99l41 50q45 62 71 112q41 73 41 120zM540 1821q-9 -27 4 -49q11 -20 41 -29l137 -38l-104 -103q-16 -16 -16 -43q0 -28 18 -46q19 -19 46 -19t48 21l99 99l37 -136q5 -30 27 -42q23 -12 50 -6t39 29
q13 24 4 52l-37 137l141 -38q26 -4 49 9q20 11 29 37q9 25 -6 47t-39 31l-141 38l103 99q21 21 21 48q0 26 -19 45t-45 19q-27 0 -48 -21l-99 -103l-37 140q-9 25 -31 40q-23 15 -48 6q-24 -9 -39 -31.5t-6 -47.5l37 -136l-141 33q-24 8 -47 -4q-22 -12 -27 -38zM1682 1254
q-42 0 -87 13v-13q0 -119 -50 -223q-49 -103 -132 -178q29 -166 -50 -315q-78 -149 -232 -215q-120 -54 -248 -39q-131 15 -234 89q-106 75 -159 194q-58 128 -37 265t107 244h-24q-145 0 -249 104q-103 103 -103 248q0 74 29 141q29 66 83 116l16 16q28 13 46 13
q33 0 62 -29q37 -37 25 -87q-9 -21 -25 -37q-62 -55 -62 -129q0 -75 51 -126q52 -52 127 -52h178q0 -149 103 -252q104 -104 248 -104t248 104t104 252v174h265q37 0 64 27t27 62t-27 62t-64 27h-87l-25 4q-24 4 -41 21q-21 25 -21 62q0 58 41 79q25 12 46 12h87
q111 0 188 -79t77 -188t-77 -186t-188 -77zM1065 724q-119 0 -225 50q-104 49 -180 137q-33 -63 -35 -133q-2 -72 26 -136q50 -121 170 -166q121 -46 240 8q78 37 128 110q49 72 54 159q-89 -29 -178 -29z" />
</svg>