<svg xmlns="http://www.w3.org/2000/svg" xmlns:xlink="http://www.w3.org/1999/xlink" version="1.1" viewBox="-10 0 2068 2048">
   <path fill="currentColor"
d="M1818 571v-342h-1588v342h454q0 139 98 240t242 101t242 -101q100 -102 100 -240h452zM1818 0q96 0 164 67q66 66 66 162v795q0 97 -66 163t-164 66h-1588q-96 0 -162 -66q-68 -67 -68 -163v-795q0 -95 67 -162t163 -67h1588zM0 1365h684q0 145 98 243q98 99 242 99
t243 -99t99 -243h682v454q0 96 -66 162q-68 67 -164 67h-1588q-96 0 -163 -67t-67 -162v-454z" />
</svg>