<svg xmlns="http://www.w3.org/2000/svg" xmlns:xlink="http://www.w3.org/1999/xlink" version="1.1" viewBox="-10 0 2058 2048">
   <path fill="currentColor"
d="M1936 795h-342v-128q150 -37 246 -160t96 -278h-342v-117q0 -42 -35 -77t-81 -35h-906q-48 0 -83 35t-35 77v117h-342q0 155 96 278t246 160v128h-342q0 160 96 280q97 120 246 162v128h-342q0 155 96 278t246 160v133q0 42 35 77t83 35h906q46 0 81 -35t35 -77v-133
q150 -37 246 -160t96 -278h-342v-128q149 -42 246 -162q96 -120 96 -280zM1366 1819h-682v-1590h682v1590zM1024 1707q70 0 120 -51q50 -50 50 -120t-50 -120q-50 -51 -119 -51t-120 51t-51 120t51 120t119 51zM1024 1195q70 0 120 -51q50 -50 50 -120t-50 -120
q-50 -51 -119 -51t-120 51t-51 120t51 120t119 51zM1024 683q70 0 120 -51q50 -50 50 -120t-50 -120q-50 -51 -119 -51t-120 51t-51 120t51 120t119 51z" />
</svg>