<svg xmlns="http://www.w3.org/2000/svg" xmlns:xlink="http://www.w3.org/1999/xlink" version="1.1" viewBox="-10 0 2068 2048">
   <path fill="currentColor"
d="M1146 224l-326 324l66 64l130 -126l100 100v214q0 78 -54 132q-56 56 -128 56h-54q144 157 144 370q0 48 -8 92h292q18 -158 134 -264q118 -108 280 -108q124 0 230 70v-440q0 -78 -54 -132t-128 -54h-588l-100 -102l130 -130zM280 612q-36 0 -64 28t-28 66t28 66t64 28
h466q0 -78 -54 -132q-56 -56 -134 -56h-278zM466 892q-72 0 -142 26l30 86l-44 14l-30 -82q-154 66 -226 212l82 40l-18 40l-82 -36q-36 80 -36 166q0 70 28 144l86 -30l14 42l-84 32q67 153 214 226l34 -84l44 18l-34 84q76 34 164 34q74 0 144 -26l-30 -88l44 -12l30 82
q153 -65 226 -214l-82 -34l18 -44l82 36q36 -80 36 -166q0 -71 -28 -144l-86 30l-14 -44l84 -30q-67 -154 -214 -226l-34 82l-44 -16l34 -84q-79 -34 -166 -34zM466 1078q118 0 200 82q80 80 80 198t-80 198t-200 80q-118 0 -198 -80t-80 -198t80 -198q82 -82 198 -82z
M1722 1170q-136 0 -232 96t-96 231t96 231t232 96t231 -95t95 -231t-96 -232t-230 -96zM1722 1358q56 0 98 42q40 40 40 97t-41 98t-98 41t-97 -40q-42 -42 -42 -98t42 -98t98 -42z" />
</svg>