<svg xmlns="http://www.w3.org/2000/svg" xmlns:xlink="http://www.w3.org/1999/xlink" version="1.1" viewBox="-10 0 2068 2048">
   <path fill="currentColor"
d="M1306 1402l148 -152l220 226l226 -222l148 148l-226 222l226 220l-148 152l-226 -226l-220 222l-148 -148l222 -220zM0 52h1886v210q-88 0 -150 62t-62 146v524q-109 0 -206 34v-766h-1050v208h526v108h-526v102h314v104h-314v108h314v102h-314v104h526v108h-526v102h314
v104h-314v314h638q20 116 74 212h-712q-84 0 -144 -62q-62 -62 -62 -150v-1256q0 -84 -62 -146t-150 -62v-210z" />
</svg>