<svg xmlns="http://www.w3.org/2000/svg" xmlns:xlink="http://www.w3.org/1999/xlink" version="1.1" viewBox="-10 0 2068 2048">
   <path fill="currentColor"
d="M1930 1266v-146q0 -100 -86 -172q-84 -70 -188 -70q-105 0 -188 70q-82 71 -82 172v146q-46 0 -82 36q-38 38 -38 84v342q0 50 37 87t83 37h534q51 0 90 -34q38 -34 38 -80v-344q0 -50 -36 -89t-82 -39zM1802 1266h-294v-146q0 -55 44 -90q43 -34 106 -34t102 34
q42 35 42 90v146zM294 878h978q-65 86 -78 196h-900v-196zM1372 782h-1180v878h-192v-1074l974 -390l974 390v200q-128 -104 -288 -104q-162 0 -288 100zM1070 1660h-776v-198h776v198zM294 1170h872q-82 83 -96 196h-776v-196z" />
</svg>