<svg xmlns="http://www.w3.org/2000/svg" xmlns:xlink="http://www.w3.org/1999/xlink" version="1.1" viewBox="-10 0 2068 2048">
   <path fill="currentColor"
d="M1924 2048l-270 -265h-124q20 -54 20 -101v-9l-220 -219q-32 36 -74 36h-392q-38 0 -66 -29q-30 -30 -30 -71v-192q-114 -87 -162 -220q-48 -130 -20 -269l-160 -156q-46 130 -46 259q0 132 50 253q51 125 142 215v210h-192q-42 0 -72 -29q-30 -30 -30 -71v-151
q-79 -44 -132 -128q-51 -83 -60 -178q-13 -145 76 -263q89 -117 236 -149l-398 -397l124 -124l1924 1925zM1352 416q-127 -96 -284 -96q-158 0 -286 92l676 676q73 -105 86 -233q14 -129 -36 -245q-51 -117 -156 -194zM1818 1449q24 -28 24 -59v-151q137 -83 180 -238
q44 -156 -38 -292q-51 -82 -131.5 -135t-174.5 -62q64 140 64 293q0 235 -148 420zM864 1682q0 41 30 71t70 30h192q40 0 70 -30t30 -71v-96h-392v96zM572 1586h-192v96q0 41 27 71t69 30h114q-18 -51 -18 -101v-96z" />
</svg>