<svg xmlns="http://www.w3.org/2000/svg" xmlns:xlink="http://www.w3.org/1999/xlink" version="1.1" viewBox="-10 0 2058 2048">
   <path fill="currentColor"
d="M271 1022v-304q120 65 291 106q172 41 356 41t356 -41q171 -41 291 -106v152l55 -5q78 0 162 25v-460q0 -116 -116 -215q-116 -98 -316 -157q-198 -58 -432 -58t-432 58q-202 59 -316 157q-116 98 -116 215v1082q0 117 116 215q114 98 316 157q198 58 432 58q66 0 106 -5
v-217q-33 5 -106 5q-190 0 -354 -41q-131 -36 -217 -96q-76 -45 -76 -76v-243q273 132 647 132q36 0 131 -5q30 -80 91 -132q9 -38 31 -101q-124 26 -253 26q-193 0 -369 -46q-172 -45 -278 -121zM918 218q194 0 354 40q131 36 217 96q76 45 76 79q0 33 -76 78
q-85 55 -217 91q-162 45 -354 45t-354 -45q-132 -36 -217 -91q-76 -45 -76 -78q0 -34 76 -79q86 -60 217 -96q160 -40 354 -40zM1888 1401v-51q0 -111 -78 -192t-190 -81q-111 0 -192 81q-80 80 -80 192v51q-41 0 -74 33t-33 78v430q0 46 33 76t74 30h540q46 0 76 -30
t30 -76v-430q0 -45 -30 -78t-76 -33zM1782 1401h-323v-51q0 -71 45 -116t114 -45q68 0 116 45t48 116v51z" />
</svg>