<svg xmlns="http://www.w3.org/2000/svg" xmlns:xlink="http://www.w3.org/1999/xlink" version="1.1" viewBox="-10 0 2068 2048">
   <path fill="currentColor"
d="M1582 699q78 0 133 55t55 133v279q0 73 -55 128t-133 55h-210l-112 -114q-104 -108 -262 -108t-266 108l-112 114h-154q-76 0 -131 -55t-55 -128v-279q0 -78 55 -133t131 -55h1116zM1582 512h-1116q-152 0 -261 109t-109 266h-96v279h96q0 152 109 261t261 109h232
l170 -170q52 -52 130 -52t130 52l166 170h288q152 0 261 -109t109 -261h96v-279h-96q0 -157 -109 -266t-261 -109z" />
</svg>