<svg xmlns="http://www.w3.org/2000/svg" xmlns:xlink="http://www.w3.org/1999/xlink" version="1.1" viewBox="-10 0 2068 2048">
   <path fill="currentColor"
d="M1024 171q118 0 186 21q71 21 118 69q33 28 90 112l6 6q88 122 160 197q132 122 144 133h6q70 66 90 91q32 39 42 83q12 47 12 141q0 191 -6 256q-11 91 -45.5 152t-124.5 152l-12 11q-122 118 -176 165q-78 64 -162 91q-79 26 -216 26q-86 0 -138 -26q-39 -17 -96 -64
l-6 -6q-75 -59 -128 -85q-90 -48 -196 -48q-229 0 -332 -224q-68 -154 -68 -400q0 -134 48 -240q58 -127 176 -165q131 -47 240 -139q64 -54 154 -160q80 -91 112 -112q53 -37 122 -37zM1024 0q-124 0 -214 64q-59 38 -148 144q-83 100 -134 139q-78 74 -186 106
q-171 58 -262 230q-80 155 -80 341q0 320 112 528q150 267 460 267q67 0 122 32q38 17 96 64q75 61 132 90q93 43 214 43q166 0 274 -37q110 -38 206 -112q67 -57 202 -192q113 -113 160 -200q49 -90 60 -206q10 -71 10 -277q0 -128 -22 -203q-20 -74 -68 -133
q-28 -27 -116 -107t-136 -128q-59 -59 -148 -176q-65 -96 -112 -138q-71 -71 -160 -102q-106 -37 -262 -37zM1024 571q-186 0 -319 133t-133 320t133 320t320 133t320 -133t133 -320t-133 -320t-321 -133zM1024 795q-96 0 -162 66q-68 67 -68 163h-110q0 -139 101 -240
t239 -101v112z" />
</svg>