<svg xmlns="http://www.w3.org/2000/svg" xmlns:xlink="http://www.w3.org/1999/xlink" version="1.1" viewBox="-10 0 2068 2048">
   <path fill="currentColor"
d="M1490 279h-1302q-78 0 -133 55t-55 133v1024h188q0 118 80 198t198 80q120 0 200 -80t80 -198h558q0 118 80 198t198 80t198 -80t80 -198h188v-467l-278 -370h-280v-375zM858 401h28q34 9 54 37q19 29 10 68l-48 183l188 -44q35 -9 66 11t36 52q7 35 -10 64
q-18 30 -44 39l-188 48l132 126q26 23 26 59t-24 65q-25 29 -61.5 29t-62.5 -31l-140 -131l-48 188q-5 34 -34 52q-30 18 -66 7q-33 -10 -52 -42q-18 -30 -4 -65l46 -183l-186 43q-37 9 -66 -8q-31 -19 -36 -48q-7 -32 10 -61q19 -30 44 -39l188 -48l-132 -149
q-22 -22 -22 -56q0 -36 22 -59q23 -24 60 -24q38 0 62 22l132 126l46 -183q5 -17 28 -32q24 -16 46 -16zM1490 793h232l186 231h-418v-231zM466 1351q56 0 98 42t42 95q0 54 -42 98t-97.5 44t-98.5 -44q-40 -42 -40 -98q0 -54 40 -95q42 -42 98 -42zM1582 1351q56 0 98 42
t42 95q0 54 -42 98q-43 44 -98.5 44t-97.5 -44q-42 -42 -42 -98q0 -54 42 -95q42 -42 98 -42z" />
</svg>