<svg xmlns="http://www.w3.org/2000/svg" xmlns:xlink="http://www.w3.org/1999/xlink" version="1.1" viewBox="-10 0 2068 2048">
   <path fill="currentColor"
d="M1116 933h188v183h-188v-183zM1116 1303h188q78 0 132 -54t54 -133v-183q0 -79 -54 -133q-54 -55 -132 -55h-188v-187h374v-183h-374q-74 0 -128 55q-54 54 -54 128v558q0 79 54 133t128 54zM1860 1491h-1302v-1303h1302v1303zM1860 0h-1302q-74 0 -128 55
q-54 54 -54 133v1303q0 74 54 128q54 55 128 55h1302q78 0 134 -55q54 -54 54 -128v-1303q0 -79 -54 -133q-56 -55 -134 -55zM188 375h-188v1486q0 78 56 133q54 54 132 54h1486v-187h-1486v-1486z" />
</svg>