<svg xmlns="http://www.w3.org/2000/svg" xmlns:xlink="http://www.w3.org/1999/xlink" version="1.1" viewBox="-10 0 2058 2048">
   <path fill="currentColor"
d="M652 188q88 0 160 52v-52q0 -78 55 -133t131 -55t130 55q54 54 54 133v52q78 -52 166 -52q115 0 196 80q84 81 84 193.5t-74 194.5q-73 80 -184 89h-188v92h118l44 13l426 214q114 44 114 170l-4 13v13l-92 627q-8 65 -60 113q-53 48 -118 48h-706q-74 0 -130 -56
l-610 -610l96 -101q43 -39 100 -39h30l422 92v-589h-186q-107 -9 -180 -89q-74 -82 -74 -194q0 -113 82 -194q80 -80 198 -80zM812 467q0 -66 -48 -114t-114 -48q-68 0 -116 48q-48 47 -48 111t42 109q41 46 98 55h186v-161zM1370 628q62 -9 100 -55q40 -47 40 -109
q0 -63 -48 -111t-116 -48t-116 48t-48 114v161h188z" />
</svg>