<svg xmlns="http://www.w3.org/2000/svg" xmlns:xlink="http://www.w3.org/1999/xlink" version="1.1" viewBox="-10 0 2068 2048">
   <path fill="currentColor"
d="M1898 675h-1798l8 -61q14 -78 48 -150q49 -101 136 -178q115 -96 266 -150q186 -61 440.5 -61t439.5 61q152 54 268 150q86 77 136 178q33 72 46 150zM1134 1477h-1034v98q0 127 86 213q86 87 214 87h734q-36 -98 -36 -199t36 -199zM1982 1149q14 -39 14 -75
q0 -80 -58 -139q-58 -58 -138 -58h-900l-252 197l-248 -197h-202q-80 0 -138 58q-60 59 -60 141t60 141q58 58 138 58h1054q83 -92 202 -147q116 -54 242 -54q156 0 286 75zM1930 1359l-356 361l-158 -159l-118 112l276 300l474 -473z" />
</svg>