<svg xmlns="http://www.w3.org/2000/svg" xmlns:xlink="http://www.w3.org/1999/xlink" version="1.1" viewBox="-10 0 2068 2048">
   <path fill="currentColor"
d="M1818 0q96 0 164 67q66 66 66 162v795q0 97 -66 163t-164 66h-1588q-96 0 -162 -66q-68 -67 -68 -163v-795q0 -95 67 -162t163 -67h1588zM230 795v229h500q-111 -95 -148 -229h-352zM1818 1024v-229h-352q-37 134 -148 229h500zM1818 571v-342h-1588v342h564v112
q0 90 70 160q70 69 161 69t160 -69t69 -160v-112h564zM2048 1819q0 96 -66 162q-68 67 -164 67h-1588q-96 0 -163 -67t-67 -162v-454h794v112q0 90 70 160t160 70t160 -70q70 -69 70 -160v-112h794v454zM230 1595v224h500q-110 -95 -148 -224h-352zM1818 1819v-224h-352
q-38 129 -148 224h500z" />
</svg>