<svg xmlns="http://www.w3.org/2000/svg" xmlns:xlink="http://www.w3.org/1999/xlink" version="1.1" viewBox="-10 0 2058 2048">
   <path fill="currentColor"
d="M1248 2048q159 0 284 -91q124 -89 156 -241l-192 -98q-53 207 -248 207h-546q166 -196 166 -441q0 -65 -10 -109h390v-222h-468q-27 -57 -84 -143q-60 -89 -82 -143q-30 -71 -30 -155q0 -160 112 -275q110 -114 272 -114q123 0 222 70q97 70 140 184l208 -88
q-68 -171 -224 -280q-155 -109 -346 -109q-166 0 -304 83q-137 81 -220 223q-84 140 -84 306q0 123 48 238q33 71 108 182l10 21h-166v222h276q10 50 10 109q0 106 -42 197q-36 72 -98 135q-51 50 -98 83l-48 26v223h888z" />
</svg>