<svg xmlns="http://www.w3.org/2000/svg" xmlns:xlink="http://www.w3.org/1999/xlink" version="1.1" viewBox="-10 0 2058 2048">
   <path fill="currentColor"
d="M1024 1856q-185 0 -342 -94q-156 -93 -248 -249q-90 -155 -90 -340q0 -186 90 -343q92 -158 248 -249q156 -92 342 -92t342 92q156 91 248 249t92 343q0 183 -92 340q-92 156 -248 249q-157 94 -342 94zM1710 626l136 -141q-72 -82 -136 -138l-138 142
q-113 -91 -256 -144q-139 -52 -292 -52q-238 0 -438 118q-202 119 -320 320q-120 202 -120 439q0 236 120 441q117 202 320 320q200 117 438 117t442 -117q201 -116 318 -317q118 -201 118 -444q0 -153 -50 -290q-52 -142 -142 -254zM928 1271h192v-585h-192v585zM1316 0
h-584v197h584v-197z" />
</svg>