<svg xmlns="http://www.w3.org/2000/svg" xmlns:xlink="http://www.w3.org/1999/xlink" version="1.1" viewBox="-10 0 2068 2048">
   <path fill="currentColor"
d="M1432 1125q-82 0 -142 60t-60 147v307h-106q-95 0 -148 -14q-78 -15 -126 -63l-388 -389q-72 -71 -166 -111q-91 -38 -194 -38h-102v207h102q125 0 216 86l388 390q144 148 250 221q106 72 216 96q101 24 260 24h206q168 0 288 -120q122 -121 122 -289v-307
q0 -87 -60 -147t-142 -60h-414zM1230 534h-154q-79 -9 -136 -68q-56 -58 -54 -137q4 -80 56 -132q52 -53 130 -48h4v-149q-144 0 -245 101t-101 243q0 141 101 242t245 101h154q82 -5 142 51t60 137v149h154v-168q-5 -140 -108 -236q-103 -95 -242 -86h-6zM1846 793v231
h-154v-236q0 -168 -120 -288t-294 -120v-154q76 0 134 -58t58 -134q0 -17 -4 -34h154q4 78 -20 149q-24 72 -82 130q151 73 238 211q90 140 90 303z" />
</svg>