<svg xmlns="http://www.w3.org/2000/svg" xmlns:xlink="http://www.w3.org/1999/xlink" version="1.1" viewBox="-10 0 2068 2048">
   <path fill="currentColor"
d="M1304 188h-1116q-78 0 -132 54q-56 54 -56 132v1300q0 78 56 132q54 54 132 54h1302q74 0 128 -54q56 -54 56 -132v-1116zM1490 1674h-1302v-1300h1042l260 258v1042zM838 1024q-118 0 -199 81t-81 197q0 118 82 200q80 80 200 80t198 -80q78 -82 78 -200
q0 -116 -78 -197t-200 -81zM280 466h836v370h-836v-370zM2048 1116h-188v-558h188v558zM2048 1490h-188v-188h188v188z" />
</svg>