<svg xmlns="http://www.w3.org/2000/svg" xmlns:xlink="http://www.w3.org/1999/xlink" version="1.1" viewBox="-10 0 2068 2048">
   <path fill="currentColor"
d="M750 92q-88 0 -164 52t-108 138q-33 86 6 188h-296q-78 0 -132 54q-56 56 -56 134v182q0 40 30 68q28 28 66 28h838v-278h182v278h836q40 0 68 -28t28 -68v-182q0 -80 -54 -134t-134 -54h-296q40 -109 0 -200q-38 -91 -130 -140q-93 -48 -190 -28q-98 19 -168 112l-52 68
l-52 -68q-82 -118 -222 -122zM746 282q40 0 66 30q26 29 28 64q1 38 -26 66q-30 28 -68 28t-66 -26q-26 -26 -26 -66q0 -37 26 -66.5t66 -29.5zM1304 282q39 0 64 30q27 29 28 64q2 38 -26 66t-66 28q-40 0 -66 -26t-26 -66q0 -37 25.5 -66.5t66.5 -29.5zM96 1028v744
q0 74 55 129t129 55h1490q72 0 127 -55t55 -129v-744h-836v744h-182v-744h-838z" />
</svg>