<svg xmlns="http://www.w3.org/2000/svg" xmlns:xlink="http://www.w3.org/1999/xlink" version="1.1" viewBox="-10 0 2058 2048">
   <path fill="currentColor"
d="M1231 0h-822q-86 0 -146 60q-61 61 -61 142v1644q0 81 61 142q60 60 146 60h1230q87 0 147 -60t60 -142v-1231zM409 202h716l514 514v880l-187 -187q96 -154 79 -335q-16 -179 -146 -310q-70 -70 -166 -110q-93 -39 -195 -39q-101 0 -194 39q-96 40 -166 110
q-102 98 -135 229q-33 132 0 264q33 130 135 228q72 77 166 113q96 37 194 37q153 0 284 -82l288 293h-1187v-1644zM1240 1341q-92 92 -216 92t-216 -92q-91 -91 -91 -216t88 -216q89 -92 219 -92t219 92t89 216t-92 216z" />
</svg>