<svg xmlns="http://www.w3.org/2000/svg" xmlns:xlink="http://www.w3.org/1999/xlink" version="1.1" viewBox="-10 0 2068 2048">
   <path fill="currentColor"
d="M202 202q-82 0 -142 60t-60 147v1129q0 82 60 142t142 60v106h206v-106h1130v106h202v-106q86 0 146 -60t60 -142v-105h102v-202h-102v-515h102v-206h-102v-101q0 -87 -60 -147t-146 -60h-1538zM202 409h1538v1129h-1538v-1129zM1178 562q-168 0 -289 121t-121 290
q0 170 121 291t288 121t289 -121q120 -120 120 -291q0 -170 -120 -290q-122 -121 -288 -121zM308 716v515h202v-515h-202zM1178 769q86 0 146 60q60 61 60 144q0 84 -60 145q-60 60 -146 60q-88 0 -148 -60t-60 -145q0 -84 60 -144t148 -60z" />
</svg>