<svg xmlns="http://www.w3.org/2000/svg" xmlns:xlink="http://www.w3.org/1999/xlink" version="1.1" viewBox="-10 0 2068 2048">
   <path fill="currentColor"
d="M636 347l-242 137l136 -242l-136 -242l242 137l242 -137l-138 242l138 242zM1806 1307l242 -137l-138 242l138 242l-242 -137l-242 137l136 -242l-136 -242zM2048 0l-138 242l138 242l-242 -137l-242 137l136 -242l-136 -242l242 137zM1206 1051l238 -238l-210 -210
l-238 238zM1308 516l224 224q32 27 32 69q0 41 -32 73l-1134 1134q-32 32 -74 32q-40 0 -68 -32l-224 -224q-32 -27 -32 -69q0 -41 32 -73l1134 -1134q32 -32 72 -32q42 0 70 32z" />
</svg>