<svg xmlns="http://www.w3.org/2000/svg" xmlns:xlink="http://www.w3.org/1999/xlink" version="1.1" viewBox="-10 0 2068 2048">
   <path fill="currentColor"
d="M1618 1370q138 0 231 93t93 230t-94 231t-230 94q-104 0 -190 -62q-82 -59 -112 -156h-128v-212h128q30 -99 112 -158q84 -60 190 -60zM1618 1588q-44 0 -76 30q-30 30 -30 76t30 76q32 30 77 30t75 -30t30 -76t-30 -76t-76 -30zM1618 616q66 0 112 -44q46 -46 46 -109
t-46 -109t-112 -46t-110 46q-46 46 -46 109t46 109q44 44 110 44zM1618 30q178 0 304 126t126 304q0 204 -212 520q-115 167 -218 284l-110 -136q-129 -171 -208 -314q-112 -207 -112 -354q0 -176 128 -304q126 -126 302 -126zM628 1588h126v212h-126q-30 96 -114 156
q-86 62 -190 62q-136 0 -230 -94t-94 -230q0 -104 62 -190q59 -83 156 -114v-126h212v126q71 20 124.5 73.5t73.5 124.5zM324 1588q-44 0 -76 30q-30 30 -30 76t30 76q32 30 77 30t75 -30t30 -76t-30 -76t-76 -30zM324 76q136 0 230 94q94 92 94 230q0 104 -60 188t-158 114
v128h-212v-128q-97 -30 -156 -114q-62 -85 -62 -188q0 -136 94 -230t230 -94zM324 294q-46 0 -76 30t-30 76t30 76t76 30t76 -30t30 -76t-30 -76t-76 -30zM866 1800v-212h212v212h-212zM430 1152h-212v-212h212v212z" />
</svg>