<svg xmlns="http://www.w3.org/2000/svg" xmlns:xlink="http://www.w3.org/1999/xlink" version="1.1" viewBox="-10 0 2068 2048">
   <path fill="currentColor"
d="M1720 0q-96 0 -164 67q-68 68 -68 164v48q-38 0 -64 26q-28 27 -28 66v375q0 39 28 66q26 26 64 26h468q38 0 64 -26q28 -27 28 -66v-375q0 -39 -28 -66q-26 -26 -64 -26v-48q0 -97 -70 -164t-166 -67zM1720 91q62 0 101 42t39 98v48h-280v-48q0 -57 42 -98
q42 -42 98 -42zM184 187q-74 0 -130 55q-54 54 -54 129v1677l372 -371h1304q74 0 129 -55t55 -133v-463h-464q-78 0 -132 -55q-54 -54 -54 -133v-651h-1026z" />
</svg>