<svg xmlns="http://www.w3.org/2000/svg" xmlns:xlink="http://www.w3.org/1999/xlink" version="1.1" viewBox="-10 0 2068 2048">
   <path fill="currentColor"
d="M1108 940q109 0 182 -76q74 -77 74 -182q0 -106 -74 -180t-180 -74q-105 0 -182 74q-76 73 -76 180q0 106 76 182t180 76zM1108 596q28 0 50 16t32 38t4 48t-24 44t-44 24q-27 6 -50 -4q-25 -11 -38 -32q-14 -23 -14 -46q0 -36 24 -62t60 -26zM1460 928q76 -112 76 -246
q0 -135 -76 -242q36 -12 76 -12q108 0 182 74t74 180q0 105 -74 182q-73 76 -182 76q-40 0 -76 -12zM1108 1108q-144 0 -248 36q-92 32 -152 84q-47 42 -76 104q-25 42 -32 84l-4 36v168h1024v-168l-4 -36q-7 -40 -28 -84q-29 -62 -76 -104q-65 -53 -152 -84
q-108 -36 -252 -36zM768 1452q0 -27 20 -56q28 -48 92 -76q87 -40 228 -40q192 0 284 72q53 41 60 100h-684zM2048 1452v168h-256v-168q-5 -98 -44 -184q-40 -87 -108 -152q139 12 236 68q76 43 120 116q32 49 44 104zM684 1024h-684v-172h684v172z" />
</svg>