<svg xmlns="http://www.w3.org/2000/svg" xmlns:xlink="http://www.w3.org/1999/xlink" version="1.1" viewBox="-10 0 2058 2048">
   <path fill="currentColor"
d="M242 1755h448l-580 -1010q-60 -96 -60 -206q0 -163 115 -278t275 -115q130 0 236 85t142 208h402v-242q0 -83 57 -140t135 -57v256l156 -155h430v192h-348l-238 237v19l238 233h348v196h-430l-156 -155v251q-78 0 -135 -57t-57 -139v-243h-402q-15 49 -46 106l586 1014
h448q76 0 134 58q58 57 58 139v96h-1948v-96q0 -81 58 -139t134 -58zM626 878q-85 50 -186 50l480 827h210zM440 343q-84 0 -141 57t-57 137t57 137t141 57q82 0 139 -57t57 -137t-57 -137t-139 -57z" />
</svg>