<svg xmlns="http://www.w3.org/2000/svg" xmlns:xlink="http://www.w3.org/1999/xlink" version="1.1" viewBox="-10 0 2068 2048">
   <path fill="currentColor"
d="M1024 795q96 0 162 66q68 67 68 163t-68 163q-66 66 -162 66t-162 -66q-68 -67 -68 -163t68 -163q66 -66 162 -66zM230 0h1588q96 0 164 67q66 66 66 162v1366h-464q112 -113 174 -259q60 -146 60 -312q0 -218 -106 -400q-107 -182 -288 -288q-183 -107 -400 -107
t-400 107q-181 106 -288 288q-106 182 -106 400t106 400q107 182 288 288q183 107 400 107h1024q0 96 -66 162q-68 67 -164 67h-1588q-96 0 -163 -67t-67 -162v-1590q0 -95 67 -162t163 -67z" />
</svg>