<svg xmlns="http://www.w3.org/2000/svg" xmlns:xlink="http://www.w3.org/1999/xlink" version="1.1" viewBox="-10 0 2058 2048">
   <path fill="currentColor"
d="M1520 1109q181 65 288 150q128 102 128 218v571h-1824v-571q0 -116 128 -218q107 -85 288 -150l96 198q-121 42 -208 90q-84 48 -84 80v352h478l102 -576l-106 -213q122 -11 218 -11t218 11l-106 213l102 576h480v-352q0 -32 -86 -80q-87 -48 -208 -90l26 -54zM1024 229
q-96 0 -163 67t-67 160t67 160t163 67t163 -67t67 -160t-67 -160t-163 -67zM1024 912q-186 0 -319 -133t-133 -323t133 -323t320 -133t320 133t133 323t-133 323t-321 133z" />
</svg>