<svg xmlns="http://www.w3.org/2000/svg" xmlns:xlink="http://www.w3.org/1999/xlink" version="1.1" viewBox="-10 0 2068 2048">
   <path fill="currentColor"
d="M1024 202q-281 0 -514 110q-237 111 -372 301q-138 191 -138 411q0 164 110 281q112 119 274 128h24q168 0 289 -121t121 -288t-121 -288t-289 -121h-24q128 -123 296 -187q167 -63 344 -63q272 0 514 145l124 -125q-292 -187 -638 -183zM408 817q88 0 148 60t60 147
t-63 147t-145 60q-81 0 -138 -53q-60 -54 -68 -135v-38q8 -81 68 -135q57 -53 138 -53zM1662 615h-24q-166 0 -288 121q-120 120 -120 288t120 288q122 121 288 121h24q-128 124 -294.5 187t-343.5 63q-273 0 -514 -145l-126 125q288 183 640 183q278 0 514 -111
q238 -112 372 -300q138 -191 138 -411q0 -162 -112 -281q-111 -119 -274 -128zM1638 1231q-86 0 -146 -60t-60 -147q0 -88 62 -147q64 -60 144 -60q83 0 140 53q58 53 68 135v38q-10 82 -68 135q-57 53 -140 53z" />
</svg>