<svg xmlns="http://www.w3.org/2000/svg" xmlns:xlink="http://www.w3.org/1999/xlink" version="1.1" viewBox="-10 0 2068 2048">
   <path fill="currentColor"
d="M266 136v534h-174v-534h174zM92 1912h174v-534h-174v534zM358 1024q0 -76 -52 -128t-127 -52t-127 52t-52 127t52 127q54 54 128 54t126 -54q52 -52 52 -126zM2048 490v1068q0 74 -54 126q-52 52 -126 52h-1068q-70 0 -122 -52t-52 -126v-354l-180 -180l180 -180v-354
q0 -76 52 -128t122 -52h1068q74 0 126 52q54 54 54 128zM1600 1112h-708v178h708v-178zM1780 756h-888v180h888v-180z" />
</svg>