<svg xmlns="http://www.w3.org/2000/svg" xmlns:xlink="http://www.w3.org/1999/xlink" version="1.1" viewBox="-10 0 2068 2048">
   <path fill="currentColor"
d="M682 974q100 0 172 -72q70 -70 70 -170q0 -102 -70 -172q-72 -72 -172 -72t-171 71t-71 173q0 100 71 171t171 71zM682 50q187 0 342 92q156 91 248 246q90 156 90 344q0 228 -174 556q-127 232 -328 494q-105 138 -178 216l-106 -124q-130 -164 -236 -316
q-148 -226 -234 -410q-106 -240 -106 -422q0 -181 92 -338q92 -155 248 -246q155 -92 342 -92zM1266 1512h294v-292h196v292h292v192h-292v294h-196v-294h-294v-192z" />
</svg>