<svg xmlns="http://www.w3.org/2000/svg" xmlns:xlink="http://www.w3.org/1999/xlink" version="1.1" viewBox="-10 0 2068 2048">
   <path fill="currentColor"
d="M1818 0h-1588q-96 0 -163 67t-67 162v1590q0 95 67 162t163 67h1588q96 0 164 -67q66 -66 66 -162v-1590q0 -96 -66 -162q-68 -67 -164 -67zM662 459q85 0 144 61q58 62 58 144t-59 141t-140.5 59t-144.5 -59q-60 -58 -60 -141t61 -144t141 -61zM1392 1595
q-85 0 -143.5 -62t-58.5 -144t59 -141t140.5 -59t144.5 59q60 58 60 141t-60 144q-62 62 -142 62zM624 1595l-170 -171l970 -971l170 171z" />
</svg>