<svg xmlns="http://www.w3.org/2000/svg" xmlns:xlink="http://www.w3.org/1999/xlink" version="1.1" viewBox="-10 0 2068 2048">
   <path fill="currentColor"
d="M188 140q-78 0 -133 55t-55 133v1114q0 78 56 134q54 54 132 54h676q92 131 232 204q142 74 298 74q181 0 328 -88q147 -90 236 -238q90 -146 90 -326q0 -130 -48 -244q-48 -117 -140 -210v-288q0 -78 -54 -132t-132 -54h-740l-188 -188h-558zM1394 794q128 0 234 60
q107 62 170 168q62 107 62 233.5t-62 232.5q-64 107 -170 170q-107 64 -233.5 64t-232.5 -64q-107 -62 -168 -170q-60 -103 -60 -232.5t60 -233.5q61 -106 168 -168q105 -60 232 -60zM1304 884v468l334 200l70 -114l-266 -156v-398h-138z" />
</svg>