<svg xmlns="http://www.w3.org/2000/svg" xmlns:xlink="http://www.w3.org/1999/xlink" version="1.1" viewBox="-10 0 2058 2048">
   <path fill="currentColor"
d="M282 0l-136 136l384 385l-172 177h484v-485l-176 172zM1228 698q-183 0 -340 91q-155 91 -244 244q-90 155 -90 340t90 340t244 245q155 90 340 90t340 -90q154 -90 244 -245t90 -340t-90 -340q-89 -153 -244 -244q-157 -91 -340 -91zM1228 906q127 0 236 62t170 169
q60 107 60 236q0 97 -34 181q-35 87 -100 152q-65 66 -150 100t-182 34q-128 0 -236 -61q-108 -62 -170 -170q-60 -107 -60 -236q0 -97 34 -181q35 -89 98 -152q65 -65 152 -100q85 -34 182 -34zM1132 1083v358l308 177l74 -127l-236 -136v-272h-146z" />
</svg>