<svg xmlns="http://www.w3.org/2000/svg" xmlns:xlink="http://www.w3.org/1999/xlink" version="1.1" viewBox="-10 0 2058 2048">
   <path fill="currentColor"
d="M1860 933q0 254 -109 488q-111 238 -300 401q-191 164 -427 226q-236 -62 -427 -226q-189 -163 -300 -401q-109 -234 -109 -488v-558l836 -375l836 375v558zM1024 1861q171 -48 320 -187q150 -139 240 -332q89 -190 89 -392v-457l-649 -288l-649 288v457q0 202 89 392
q90 193 240 332q149 139 320 187zM1285 933v-140q0 -97 -80 -165q-82 -70 -181 -70t-181 70q-80 68 -80 165v140q-39 0 -74 35t-35 74v327q0 49 32 85q33 37 77 37h514q47 0 82 -35t35 -79v-326q0 -49 -33 -83q-33 -35 -76 -35zM1163 933h-278v-140q0 -57 41 -89
q42 -33 98 -33t98 33q41 32 41 89v140z" />
</svg>