<svg xmlns="http://www.w3.org/2000/svg" xmlns:xlink="http://www.w3.org/1999/xlink" version="1.1" viewBox="-10 0 2058 2048">
   <path fill="currentColor"
d="M818 0q195 0 362 96q165 95 262 260q96 164 96 360q0 182 -84 337q-84 154 -224 250v235q0 43 -29 72t-77 29h-614q-44 0 -73 -29t-29 -72v-235q-139 -96 -222 -250q-84 -155 -84 -337q0 -196 96 -360q96 -165 258 -260q164 -96 362 -96zM510 1947v-101h614v101
q0 49 -26 75t-74 26h-408q-50 0 -78 -26q-28 -27 -28 -75zM818 202q-140 0 -258 70q-119 70 -186 187q-66 118 -66 257q0 158 82 284q80 123 226 187v246h408v-246q140 -64 224 -187q84 -124 84 -284q0 -138 -68 -257q-67 -117 -186 -187q-118 -70 -260 -70zM1740 1024v-514
h206v615h-206v-101zM1740 1538v-206h206v206h-206z" />
</svg>