<svg xmlns="http://www.w3.org/2000/svg" xmlns:xlink="http://www.w3.org/1999/xlink" version="1.1" viewBox="-10 0 2068 2048">
   <path fill="currentColor"
d="M2048 1024l-226 -261l30 -344l-336 -74l-174 -297l-318 140l-318 -140l-174 297l-336 74l32 344l-228 261l228 262l-32 344l336 74l174 296l318 -139l318 139l174 -296l336 -74l-30 -344zM1648 1482l-254 52l-130 227l-240 -105l-240 105l-130 -227l-252 -52l18 -262
l-166 -196l166 -196l-18 -261l252 -52l130 -227l240 105l240 -105l130 227l254 52l-18 261l166 196l-166 196zM1452 615l130 130l-744 746l-372 -375l132 -131l240 244z" />
</svg>