<svg xmlns="http://www.w3.org/2000/svg" xmlns:xlink="http://www.w3.org/1999/xlink" version="1.1" viewBox="-10 0 2068 2048">
   <path fill="currentColor"
d="M1466 1290l582 582l-176 176l-582 -582v-94l-32 -33q-216 182 -494 182q-209 0 -384 -102q-176 -102 -278 -277q-102 -176 -102 -382t102 -382q102 -175 278 -277q173 -101 380 -101q209 0 382 101q176 102 278 277q100 174 100 385q0 280 -180 494l32 33h94zM764 175
l-66 6q-64 137 -104 285h334q-38 -142 -104 -285q-17 -6 -60 -6zM1268 466q-109 -186 -312 -258q60 132 92 258h220zM254 466h224q36 -135 88 -258q-203 72 -312 258zM176 763q0 87 28 175h252l-16 -175l16 -176h-252q-28 83 -28 176zM1318 938q28 -92 28 -178
q0 -87 -28 -173h-248q12 93 12 176q0 82 -12 175h248zM572 587l-16 176l16 175h378q16 -86 16 -175q0 -90 -16 -176h-378zM764 1345h60q66 -143 104 -291h-334q40 153 104 291h66zM1268 1054h-220q-32 132 -92 258q203 -66 312 -258zM254 1054q109 192 312 258
q-53 -118 -88 -258h-224z" />
</svg>