<svg xmlns="http://www.w3.org/2000/svg" xmlns:xlink="http://www.w3.org/1999/xlink" version="1.1" viewBox="-10 0 2068 2048">
   <path fill="currentColor"
d="M412 885q118 238 310 430q194 193 440 322l252 -250q20 -26 52 -32q33 -6 60 10q188 70 410 70q48 0 80 32t32 80v389q0 48 -32 80t-80 32q-527 0 -976 -261q-442 -257 -698 -699q-262 -448 -262 -976q0 -48 35.5 -80t76.5 -32h400q53 0 84 32q28 30 28 80q0 208 70 411
q16 54 -22 112zM1254 0q-54 0 -86 32t-32 83q0 50 32 82t82 32q52 0 84 -32t32 -82q0 -51 -32 -83t-80 -32zM1594 0q-52 0 -84 32t-32 83q0 50 32 82t82 32t82 -32t32 -82q0 -51 -32 -83t-80 -32zM1936 0q-54 0 -86 32t-32 83q0 50 32 82t84 32q50 0 82 -32t32 -82
q0 -51 -32 -83t-80 -32zM1254 341q-54 0 -86 32t-32 83t32 83t82 32q52 0 84 -32t32 -83t-32 -83t-80 -32zM1594 341q-52 0 -84 32t-32 83t32 83t82 32t82 -32t32 -83t-32 -83t-80 -32zM1936 341q-54 0 -86 32t-32 83t32 83t84 32q50 0 82 -32t32 -83t-32 -83t-80 -32z
M1254 683q-54 0 -86 32t-32 82q0 51 32 83t82 32q52 0 84 -32t32 -83q0 -50 -32 -82t-80 -32zM1594 683q-52 0 -84 32t-32 82q0 51 32 83t82 32t82 -32t32 -83q0 -50 -32 -82t-80 -32zM1936 683q-54 0 -86 32t-32 82q0 51 32 83t84 32q50 0 82 -32t32 -83q0 -50 -32 -82
t-80 -32z" />
</svg>