<svg xmlns="http://www.w3.org/2000/svg" xmlns:xlink="http://www.w3.org/1999/xlink" version="1.1" viewBox="-10 0 2058 2048">
   <path fill="currentColor"
d="M828 973q0 -82 57 -139t139 -57t139 57t57 139q0 83 -57 140t-139 57t-139 -57t-57 -140zM612 1531l-146 -137l146 -146q-76 -126 -76 -279t76 -261l-146 -146l146 -146l138 146q128 -78 274.5 -78t273.5 78l146 -146l138 137l-146 146q78 127 78 274t-78 275l146 146
l-138 137l-146 -146q-125 77 -278 77q-152 0 -260 -77zM1024 681q-124 0 -208 84q-84 85 -84 208t85 208t208 85t207 -85q84 -84 84 -208t-84 -208t-208 -84zM1806 0q78 0 135 57t57 135v1563q0 78 -57 135t-135 57h-100v101h-390v-101h-584v101h-388v-101h-102
q-76 0 -134 -57q-58 -58 -58 -135v-1563q0 -77 58 -135q58 -57 134 -57h1564zM1806 1755v-1563h-1564v1563h1564z" />
</svg>