<svg xmlns="http://www.w3.org/2000/svg" xmlns:xlink="http://www.w3.org/1999/xlink" version="1.1" viewBox="-10 0 2058 2048">
   <path fill="currentColor"
d="M2002 458v732h-246v-732h246zM1756 1682h246v-246h-246v246zM778 0q-29 35 -57.5 69t-56.5 68q-145 181 -252 338q-160 234 -252 429q-114 240 -114 412q0 194 100 363q99 167 269 269q167 100 366 100t366 -100q170 -101 266 -269q97 -169 97 -363q0 -308 -366 -841
q-186 -273 -366 -475zM503 824q65 0 109 45q46 48 46 109t-46 109q-45 46 -109 46q-62 0 -105 -46t-43 -109t43 -109q42 -45 105 -45zM1052 1682q-62 0 -105 -46t-43 -109q0 -62 43 -108t105 -46q64 0 109 46q46 48 46 108q0 61 -46 109q-45 46 -109 46zM481 1682l-132 -126
l732 -732l131 125z" />
</svg>