<svg xmlns="http://www.w3.org/2000/svg" xmlns:xlink="http://www.w3.org/1999/xlink" version="1.1" viewBox="-10 0 2068 2048">
   <path fill="currentColor"
d="M1000 1140l208 -484l-92 -188h-220v-128h300l60 128h600l-84 300h-368l56 116q78 -32 160 -32q117 0 214 58q98 58 156 156q58 97 58 214t-58 214q-58 98 -156 156q-97 58 -214 58t-214 -58q-99 -59 -154 -156q-56 -98 -56 -214q0 -98 40 -182q41 -87 112 -146l-68 -140
l-236 552h-200q-29 149 -146 246q-119 98 -270 98q-117 0 -214 -58q-98 -58 -156 -156q-58 -97 -58 -214t58 -214q58 -98 156 -156q97 -58 214 -58q165 0 286 112q122 113 138 272h52l-196 -468h-68q-28 0 -46 -18t-18 -46t18 -46t46 -18h236q24 0 44 18t20 46t-20 46
t-44 18h-24zM428 980q-124 0 -212 88t-88 212t88 212t212 88q100 0 178 -60q77 -60 106 -156h-372v-128h384q-17 -109 -100 -182q-85 -74 -196 -74zM1620 980q-50 0 -104 20l164 340l-116 56l-156 -324q-84 84 -84 208q0 123 86 212q85 88 210 88q124 0 212 -88t88 -212
t-88 -212t-212 -88z" />
</svg>