<svg xmlns="http://www.w3.org/2000/svg" xmlns:xlink="http://www.w3.org/1999/xlink" version="1.1" viewBox="-10 0 2058 2048">
   <path fill="currentColor"
d="M923 409q0 -44 29 -73q28 -28 72 -28t72 28q29 29 29 73q0 43 -29 72t-72 29t-72 -29t-29 -72zM616 716q38 0 69 -31q32 -32 32 -72t-32 -72q-31 -31 -72 -31t-72 31t-31 72t31 72t75 31zM409 308q0 -44 -31 -75t-72 -31t-72 31q-32 32 -32 72t32 72t72 32t72 -32
q31 -31 31 -69zM717 202q43 0 72 -29t29 -72t-29 -72t-72 -29t-72 29t-29 72t29 72t72 29zM1332 202q43 0 72 -29t29 -72t-29 -72t-72 -29t-72 29t-29 72t29 72t72 29zM1740 202q-39 0 -70 31t-31 72t31 72q32 32 72 32q41 0 73 -32q31 -31 31 -72t-31 -72t-75 -31z
M1332 615q0 39 31 70t72 31t72 -31t31 -72t-31 -72t-72 -31t-72 31t-31 74zM1692 1135q0 110 -72 197q72 91 72 197q0 135 -96 228q-97 94 -231 94h-43q-39 87 -118 142t-180 55t-180 -55t-118 -142h-43q-134 0 -231 -94q-96 -93 -96 -228q0 -110 72 -197q-72 -92 -72 -197
q0 -136 96 -229q97 -94 231 -94h43q38 -85 118 -141t180 -56t180 56t118 141h43q134 0 231 94q96 93 96 229zM563 1135q0 34 19 62t48 43l91 39q19 -111 111 -183l-87 -58q-28 -19 -62 -19q-47 0 -84 34q-36 33 -36 82zM832 1567q-92 -72 -111 -182l-91 38q-29 15 -48 43
t-19 63q0 48 36 81q37 34 84 34q39 0 67 -19zM1139 1731l-9 -111q-51 19 -106 19q-54 0 -101 -19l-14 111q0 48 33 81q34 34 82 34t82 -34q33 -33 33 -81zM1139 933q0 -49 -33 -82q-34 -34 -82 -34t-82 34q-33 33 -33 82l14 110q47 -19 101 -19q55 0 106 19zM1485 1529
q0 -35 -19 -63t-48 -43l-91 -43q-19 115 -111 187l87 58q28 19 62 19q47 0 84 -34q36 -33 36 -81zM1485 1135q0 -49 -36 -82q-37 -34 -84 -34q-35 0 -67 19l-82 58q92 72 111 183l86 -39q34 -16 53 -43q19 -28 19 -62z" />
</svg>