<svg xmlns="http://www.w3.org/2000/svg" xmlns:xlink="http://www.w3.org/1999/xlink" version="1.1" viewBox="-10 0 2068 2048">
   <path fill="currentColor"
d="M188 94h1302q74 0 128 54q56 55 56 133v658q-106 -18 -210 4q-106 23 -192 79h-338v375h100q-18 91 0 183h-846q-78 0 -133 -55t-55 -128v-1116q0 -78 56 -133q54 -54 132 -54zM188 464v375h558v-375h-558zM934 464v375h556v-375h-556zM188 1022v375h558v-375h-558z
M1630 1118q-174 0 -296 122t-122 296t122 296t296 122t296 -122q122 -121 122 -296t-122 -296q-122 -122 -296 -122zM1630 1815q-117 0 -198 -83q-80 -81 -80 -196q0 -78 38 -139l380 379q-62 39 -140 39zM1870 1675l-380 -379q62 -39 140 -39q113 0 196 81q82 81 82 198
q0 78 -38 139z" />
</svg>