<svg xmlns="http://www.w3.org/2000/svg" xmlns:xlink="http://www.w3.org/1999/xlink" version="1.1" viewBox="-10 0 2068 2048">
   <path fill="currentColor"
d="M1260 760h-54q-65 0 -110 -44q-48 -45 -48 -112v-50h-48q-69 0 -114 -46q-44 -47 -44 -112v-152q-245 34 -418 212q-173 177 -208 418q16 -50 58 -82t96 -32q64 0 110 48q46 46 46 112q0 67 -46 112q-45 44 -110 44q-64 0 -108 -42q-45 -42 -50 -102q0 112 10 158
q30 213 176 374q148 163 356 218q-70 -50 -70 -134q0 -65 44 -110q46 -48 112 -48t113 47t47 109t-38 104q-35 40 -90 50q103 11 176 0v6q0 104 34 202q-65 10 -136 10q-257 0 -474 -128q-215 -128 -344 -346q-128 -216 -128 -472t128 -472q128 -217 344 -344
q217 -128 474 -128l28 4q29 4 50 24q24 32 24 74v212h108l26 6q33 4 48 24q30 30 30 74v108h212h24q34 10 50 30q30 30 30 74v102h210l36 10q39 11 54 44q14 69 14 158q0 79 -10 138q-100 -34 -202 -34h-4q4 -60 4 -104h-158q-62 0 -109 -47t-47 -111v-54h-104zM1260 1234v4
q109 -93 242 -138q-41 -24 -84 -24q-64 0 -112 46q-46 46 -46 112zM892 1184q68 0 112 -46t44 -114q0 -66 -44 -110q-44 -46 -110 -46q-67 0 -114 46q-46 45 -46 110q0 66 46 114q46 46 112 46zM842 500q0 -66 -46 -112t-114 -46q-66 0 -110 46q-46 47 -46 111.5t46 110.5
q45 48 110 48q66 0 114 -48q46 -46 46 -110zM1924 1376l-374 380l-166 -168l-124 118l290 314l498 -496z" />
</svg>