<svg xmlns="http://www.w3.org/2000/svg" xmlns:xlink="http://www.w3.org/1999/xlink" version="1.1" viewBox="-10 0 2068 2048">
   <path fill="currentColor"
d="M188 1302v188h188v-188h-188zM1304 1674v186h186v-186h-186zM1674 188h-1298q-80 0 -134 54t-54 132v370h188v-370h1298v370h186v-370q0 -78 -54 -132t-132 -54zM1860 1674h-186v186q78 0 132 -54t54 -132zM0 932v184h2048v-184h-2048zM558 1674v186h188v-186h-188z
M1674 1302v188h186v-188h-186zM934 1674v186h182v-186h-182zM188 1674q0 78 54 132t134 54v-186h-188z" />
</svg>