<svg xmlns="http://www.w3.org/2000/svg" xmlns:xlink="http://www.w3.org/1999/xlink" version="1.1" viewBox="-10 0 2058 2048">
   <path fill="currentColor"
d="M924 0v371h-184l371 375l371 -375h-183v-371h-375zM86 187v184h187l336 707l-126 232q-22 38 -22 87q0 78 55 133t128 55h1118v-188h-1078q-10 0 -16 -6t-6 -16l4 -13l83 -153h694q52 0 96 -26q43 -25 66 -70l357 -650l-161 -92l-358 655h-655l-397 -839h-305zM644 1677
q-74 0 -128 54q-55 55 -55 131t55 131t131 55q75 0 130 -55t55 -131t-55 -131q-54 -54 -133 -54zM1578 1677q-79 0 -133 54t-54 131t54 131q55 55 131 55t131 -55t55 -131t-55 -131q-54 -54 -129 -54z" />
</svg>