<svg xmlns="http://www.w3.org/2000/svg" xmlns:xlink="http://www.w3.org/1999/xlink" version="1.1" viewBox="-10 0 2058 2048">
   <path fill="currentColor"
d="M1940 1229q-23 110 -172 211t-336 120h-4q-268 33 -406 26q-147 -8 -290 -31l-116 -24v63q20 154 148 206q80 34 264 43q116 0 246 -24q62 -9 106 -24l8 168l-42 19q-55 19 -126 39q-91 20 -196 24q-226 15 -476 -48q-271 -76 -382 -365q-87 -216 -96 -610v-350
q0 -156 42 -279q41 -105 100 -177q49 -53 102 -92l42 -28q112 -48 288 -72q173 -24 376 -24h8q203 0 376 24q176 24 288 72l42 28q53 39 102 92q59 72 100 177q42 123 42 279l-4 192q-8 213 -34 365zM1638 705q0 -158 -86 -259q-88 -101 -230 -101q-164 0 -246 125l-52 91
l-52 -91q-88 -125 -250 -125q-138 0 -226 101q-86 101 -86 259v538h216v-523q0 -164 138 -164q154 0 154 197v284h212v-284q0 -197 154 -197q138 0 138 164v523h216v-538z" />
</svg>