<svg xmlns="http://www.w3.org/2000/svg" xmlns:xlink="http://www.w3.org/1999/xlink" version="1.1" viewBox="-10 0 2058 2048">
   <path fill="currentColor"
d="M50 192q0 -77 58 -135q58 -57 134 -57h294v192h-294v292h-192v-292zM1998 192v292h-192v-292h-292v-192h292q78 0 135 57t57 135zM50 1755v-293h192v293h294v192h-294q-76 0 -134 -57q-58 -58 -58 -135zM828 0h392v192h-392v-192zM828 1755h392v192h-392v-192zM50 777
h192v393h-192v-393zM1660 1069q136 0 236 103q102 104 102 240q0 114 -88 279q-69 123 -164 247l-86 110l-92 -110q-95 -124 -164 -247q-88 -165 -88 -279q0 -136 102 -240q100 -103 242 -103zM1660 1540q50 0 86 -36q37 -37 32.5 -80t-40.5 -80q-38 -37 -80 -37
q-44 0 -80 32q-38 32 -38 80q0 50 34 85q35 36 86 36zM1806 777h192v228q-88 -78 -192 -105v-123z" />
</svg>