<svg xmlns="http://www.w3.org/2000/svg" xmlns:xlink="http://www.w3.org/1999/xlink" version="1.1" viewBox="-10 0 2068 2048">
   <path fill="currentColor"
d="M1432 974v-514h-510v514h510zM1278 1588q64 0 108 -48q46 -49 46 -108q0 -60 -46 -106q-44 -44 -106 -44q-60 0 -108 45t-48 105t48 108t106 48zM716 974v-514h-514v514h514zM356 1588q62 0 108 -48q46 -49 46 -108q0 -60 -46 -106q-46 -44 -106 -44t-108 45t-48 105
t48 108t106 48zM818 50q399 0 580 68q240 96 240 342v976q0 142 -106 250q-103 104 -254 104l154 154v54h-1230v-54l154 -154q-147 0 -250 -104q-106 -107 -106 -250v-976q0 -246 240 -342q182 -68 578 -68zM1846 1176v-616h202v616h-202zM1846 1588v-206h202v206h-202z" />
</svg>