<svg xmlns="http://www.w3.org/2000/svg" xmlns:xlink="http://www.w3.org/1999/xlink" version="1.1" viewBox="-10 0 2068 2048">
   <path fill="currentColor"
d="M112 0q-48 0 -80 32t-32 80q0 384 148 741q148 360 418 630t628 418q358 147 742 147q48 0 80 -32t32 -80v-400q0 -48 -32 -80t-80 -32q-215 0 -406 -64q-68 -21 -116 27l-252 250q-244 -128 -436 -320q-190 -190 -314 -432l250 -250q48 -48 26 -118q-64 -191 -64 -405
q0 -48 -32 -80t-80 -32h-400zM1818 912v-171h-394l624 -629l-112 -112l-630 624v-395h-170v683h682z" />
</svg>