<svg xmlns="http://www.w3.org/2000/svg" xmlns:xlink="http://www.w3.org/1999/xlink" version="1.1" viewBox="-10 0 2068 2048">
   <path fill="currentColor"
d="M616 50v208h306v538q-48 28 -76 76t-28 102v100h412v-100q0 -53 -28 -102q-29 -48 -78 -76v-538h308v-208h-816zM408 974q-165 0 -288 46q-120 44 -120 107t120 109q123 46 288.5 46t287.5 -46t122 -108.5t-122 -107.5q-122 -46 -288 -46zM1638 974q-165 0 -288 46
q-120 44 -120 107t120 109q123 46 288.5 46t287.5 -46t122 -108.5t-122 -107.5q-122 -46 -288 -46zM818 1180v102q0 58 28 102q29 47 76.5 75.5t101 28.5t100.5 -28q49 -29 78 -78q28 -48 28 -100v-102h-412zM1124 1690v308h-202v-308h202zM1422 1430l216 222l-144 144
l-216 -222zM774 1574l-222 222l-144 -144l216 -222z" />
</svg>