<svg xmlns="http://www.w3.org/2000/svg" xmlns:xlink="http://www.w3.org/1999/xlink" version="1.1" viewBox="-10 0 2068 2048">
   <path fill="currentColor"
d="M218 53q-90 0 -154 63q-64 64 -64 155v1507q0 90 64 154q64 63 154 63h1506q92 0 155 -63t63 -154v-243q49 -29 78 -79q28 -45 28 -108v-648q0 -63 -28 -108q-29 -50 -78 -79v-242q0 -92 -63 -155t-155 -63h-1506zM218 271h1506v212h-646q-86 0 -149 63t-63 154v648
q0 91 63 154t149 63h646v213h-1506v-1507zM1078 700h758v648h-758v-648zM1402 862q-66 0 -114 48t-48 114t48 114t116 48t113 -48t45 -114t-44.5 -114t-115.5 -48z" />
</svg>