<svg xmlns="http://www.w3.org/2000/svg" xmlns:xlink="http://www.w3.org/1999/xlink" version="1.1" viewBox="-10 0 2068 2048">
   <path fill="currentColor"
d="M2040 1490q-15 -34 -67 -72l-48 -24q-147 -81 -225 -192q-19 -31 -38 -68q-4 -19 0 -28q5 -10 9 -14l96 -58q53 -40 81 -92q39 -71 10 -148q-20 -53 -65 -82q-46 -28 -103 -28q-20 0 -52 4h-10q0 -73 -5 -144q-9 -114 -52 -200q-27 -65 -89 -134q-57 -65 -137 -110
q-145 -82 -320.5 -82t-321.5 82q-77 43 -136 110q-61 69 -89 134q-43 86 -52 200q-5 80 -5 144h-10q-31 -4 -52 -4q-57 0 -103 28q-45 29 -65 82q-29 78 9 148q28 51 82 92l91 58q2 1 12 14q7 8 2 28q-19 37 -38 68q-77 111 -216 186l-24 10q-38 24 -57 38q-27 19 -43 54
q-28 76 38 138q22 22 53 38q65 38 124 54q20 4 27 12q7 6 14 26q8 20 19 36q12 16 39 36q29 20 64 28q27 6 72 6h5q100 4 153 22q16 4 67 34l19 14q75 43 130 64q92 32 194 32q104 0 189 -32q56 -21 134 -68l15 -10q51 -30 67 -34q54 -18 153 -22q46 0 77 -6q32 -7 64 -26
q26 -16 46 -46l9 -28q7 -16 20 -26q8 -7 19 -12q64 -16 129 -54q36 -16 58 -42q57 -58 33 -134zM1896 1566q-48 28 -124 48q-47 8 -66.5 23.5t-24.5 42.5l-5 24q0 26 -14 34q-15 10 -77 10q-113 4 -192 28q-34 16 -100 56q-67 40 -110 54q-73 30 -159 30t-158 -24
q-39 -18 -110 -60q-65 -40 -100 -56q-78 -24 -187 -28q-67 0 -82 -10q-14 -8 -19 -48q-4 -37 -23.5 -52.5t-67.5 -23.5q-74 -21 -117 -44q-23 -12 -32.5 -21t-6.5 -17q8 -14 27 -24q214 -104 311 -268q39 -63 58 -130v-10q5 -20 2 -30q-3 -12 -19 -26q-12 -11 -108 -78
l-43 -28q-72 -49 -53 -100q20 -40 63 -40h23q36 10 92 30l38 14h9q15 0 20 -4l4 -20q-14 -147 -4 -264q5 -60 19 -110q25 -78 91 -158q45 -49 110 -86q115 -68 263 -68q210 0 350 130l24 24q72 82 96 172q10 54 14 96q10 117 -4 264l4 14q0 10 20 10h9l43 -14q54 -25 86 -30
h24q43 0 58 30l5 10q20 51 -53 100l-48 34q-97 64 -103 68q-16 12 -19 28q-2 13 2 32v6q29 109 115 210q96 116 254 192q14 5 22 14q8 10 2 16q0 12 -29 28z" />
</svg>