<svg xmlns="http://www.w3.org/2000/svg" xmlns:xlink="http://www.w3.org/1999/xlink" version="1.1" viewBox="-10 0 2058 2048">
   <path fill="currentColor"
d="M1514 1069q-107 0 -190 73q-86 74 -86 174v146q-40 0 -77 37t-37 78v343q0 51 34 89q35 39 80 39h540q50 0 87 -37t37 -82v-343q0 -52 -34 -87q-36 -37 -80 -37v-146q0 -100 -86 -174q-83 -73 -188 -73zM1514 1188q59 0 102 34q44 35 44 94v146h-294v-146q0 -59 44 -94
q43 -34 104 -34zM344 0q-84 0 -141 57t-57 135v1563q0 78 57 135t141 57h584v-192h-584v-1563h680v489h490v196q74 0 196 37v-329l-586 -585h-780z" />
</svg>