<svg xmlns="http://www.w3.org/2000/svg" xmlns:xlink="http://www.w3.org/1999/xlink" version="1.1" viewBox="-10 0 2068 2048">
   <path fill="currentColor"
d="M1638 817v-202h208v202h-208zM1638 1024v-207h-206v207h206zM1638 615v-206h-206v206h206zM1432 86v116h206q-101 -73 -206 -116zM1638 202v207h208q-92 -115 -208 -207zM1846 409v206h114q-43 -106 -114 -206zM2048 1024q0 -98 -20 -207h-182v207h202zM1432 409v-207
h-202v207h202zM1432 1433h206v-202h-206v202zM1638 1639h208v-206h-208v206zM1432 1846h206v-207h-206v207zM1230 2029q101 -19 202 -68v-115h-202v183zM1638 1231h208v-207h-208v207zM1432 615h-202v202h202v-202zM1846 1433h114q47 -98 68 -202h-182v202zM1432 1024h-202
v207h202v-207zM1024 1639v-206h206v-202h-206v-207h206v-207h-206v-202h206v-206h-206v-207h206v-183q-102 -19 -206 -19q-278 0 -514 137q-235 136 -372 373q-138 236 -138 514t138 514q137 237 372 373q236 137 514 137v-202h206v-207h-206zM1230 1639h202v-206h-202v206z
" />
</svg>