<svg xmlns="http://www.w3.org/2000/svg" xmlns:xlink="http://www.w3.org/1999/xlink" version="1.1" viewBox="-10 0 2068 2048">
   <path fill="currentColor"
d="M1332 1846q43 0 72 -31q28 -32 28 -75v-1538h-816q-44 0 -75 31t-31 75v1125h-202v-1125q0 -130 89 -219t219 -89h1124q130 0 219 89t89 219v101h-202v-101q0 -44 -31 -75t-75 -31t-72 31q-30 32 -30 75v1432q0 130 -89 219t-217 89h-1024q-130 0 -219 -89t-89 -219v-101
h1124q0 87 60 147t148 60zM716 409h514v206h-514v-206zM716 817h514v207h-514v-207zM716 1231h514v202h-514v-202z" />
</svg>