<svg xmlns="http://www.w3.org/2000/svg" xmlns:xlink="http://www.w3.org/1999/xlink" version="1.1" viewBox="-10 0 2068 2048">
   <path fill="currentColor"
d="M1818 0h-1588q-96 0 -163 67t-67 162v1590q0 95 67 162t163 67h1588q96 0 164 -67q66 -66 66 -162v-1590q0 -96 -66 -162q-68 -67 -164 -67zM1110 464q143 21 250 107l-250 245v-352zM938 464v352l-250 -245q108 -86 250 -107zM572 688l244 251h-352q21 -144 108 -251z
M464 1109h352l-244 251q-87 -107 -108 -251zM938 1584q-142 -21 -250 -107l250 -245v352zM1024 1136q-48 0 -80 -32t-32 -80t32 -80t80 -32t80 32t32 80t-32 80t-80 32zM1110 1584v-352l250 245q-107 86 -250 107zM1478 1360l-246 -251h352q-22 145 -106 251zM1232 939
l246 -251q84 106 106 251h-352z" />
</svg>