<svg xmlns="http://www.w3.org/2000/svg" xmlns:xlink="http://www.w3.org/1999/xlink" version="1.1" viewBox="-10 0 2058 2048">
   <path fill="currentColor"
d="M540 0q-202 0 -344 142t-142 344t142 344q140 141 344 141q162 0 282 -88q121 -88 172 -236h354v324h324v-324h322v-323h-1000q-50 -147 -172 -235q-122 -89 -282 -89zM540 324q64 0 112 48t48 114q0 65 -48 113t-112 48q-66 0 -114 -48t-48 -113q0 -66 48 -114t114 -48z
M808 1189q-97 0 -188 40q-106 51 -166 137q-76 106 -76 252q0 147 76 253q60 86 166 137q91 40 188 40h110v-212h-110q-65 0 -118 -31q-96 -55 -96 -184t86 -185q54 -35 128 -35h110v-212h-110zM1130 1189v212h112q64 0 116 30q96 56 96 185q0 128 -86 184q-55 36 -126 36
h-112v212h112q96 0 186 -40q107 -51 168 -137q76 -106 76 -253q0 -146 -76 -252q-61 -86 -168 -137q-90 -40 -186 -40h-112zM700 1512v213h648v-213h-648z" />
</svg>