<svg xmlns="http://www.w3.org/2000/svg" xmlns:xlink="http://www.w3.org/1999/xlink" version="1.1" viewBox="-10 0 2068 2048">
   <path fill="currentColor"
d="M848 426h256v-173h-256v-84q0 -42 -22 -65q-23 -24 -62 -24q-41 0 -64 24q-22 23 -22 65v1136q-39 19 -64 60q-24 41 -24 89q0 68 50 118t124 50q72 0 122 -50t50 -118q0 -48 -24 -89q-25 -41 -64 -60v-197h256v-168h-256v-173h256v-173h-256v-168zM1874 1494
q36 42 46 56q51 59 84 116q44 82 44 129q0 72 -50 122q-52 51 -122 51q-68 0 -120 -51q-50 -50 -50 -122q0 -47 44 -129q32 -55 80 -116zM1956 1325q-19 27 -54 38q-36 11 -68 -6l-180 -100l-308 538q-19 38 -64 62q-41 22 -90 22h-770q-72 0 -122 -50t-50 -118v-257
q0 -73 50 -123t122 -50v430h770l178 -310l-266 153v-205l534 -309l282 165q32 17 40 50q7 35 -4 70zM294 1189l-148 144q-24 24 -60 24q-34 0 -60 -26t-26 -60t28 -58l146 -145q23 -28 58 -28q34 0 60 26t26 60t-24 63z" />
</svg>