<svg xmlns="http://www.w3.org/2000/svg" xmlns:xlink="http://www.w3.org/1999/xlink" version="1.1" viewBox="-10 0 2068 2048">
   <path fill="currentColor"
d="M864 741l156 155l246 247l782 782l-124 123l-238 -233q-9 28 -34 46q-26 18 -58 18h-192q-40 0 -70 -30t-30 -66v-352l-438 -439v791q0 36 -27.5 66t-68.5 30h-96q-40 0 -70 -30t-30 -66v-658q-105 73 -194 73q-91 0 -164 -55q-57 -43 -92 -114q-36 -70 -36 -124v-489
q0 -68 52 -151l-138 -141l124 -124l360 361zM2034 658q0 -145 -72 -267q-69 -120 -194 -194q-122 -73 -270 -73q-205 0 -356 134q-151 135 -174 336l594 599q201 -22 336 -176q136 -153 136 -359z" />
</svg>