<svg xmlns="http://www.w3.org/2000/svg" xmlns:xlink="http://www.w3.org/1999/xlink" version="1.1" viewBox="-10 0 2068 2048">
   <path fill="currentColor"
d="M1124 716q0 87 60 147t148 60q86 0 146 -60t60 -147q0 -86 -60 -146t-146 -60q-88 0 -148 60t-60 146zM510 716q0 87 60 147t146 60t146 -60t60 -147q0 -86 -60 -146t-146 -60t-146 60t-60 146zM716 1149q0 -48 -38 -87q-38 -38 -84 -38t-84 38t-38 85q0 46 38 84t84 38
q44 0 83 -36t39 -84zM1230 1433q0 -82 -60 -142t-146 -60t-146 60t-60 144t60 144t146 60t146 -60t60 -146zM1024 202q222 0 410.5 110t299.5 301q112 191 112 411t-112 411q-110 190 -300 300q-190 111 -410.5 111t-411.5 -111q-189 -110 -300 -300q-110 -191 -110 -411
t110 -411q112 -191 300.5 -301t411.5 -110zM1024 0q-278 0 -514 137q-235 136 -372 373q-138 236 -138 514t138 514q137 237 372 373q236 137 513.5 137t514.5 -137q236 -137 372 -373q138 -236 138 -514t-138 -514q-136 -236 -372 -373q-237 -137 -514 -137zM1586 1149
q0 -53 -36 -89t-86 -36q-52 0 -88 38q-36 39 -36 85q0 45 40 84q38 38 83.5 43t84.5 -34q38 -38 38 -91z" />
</svg>