<svg xmlns="http://www.w3.org/2000/svg" xmlns:xlink="http://www.w3.org/1999/xlink" version="1.1" viewBox="-10 0 2068 2048">
   <path fill="currentColor"
d="M746 1038q35 9 54 44q21 35 12 70l-122 448q-10 38 -42 56q-33 18 -70 10q-37 -10 -56 -42q-20 -34 -8 -72l118 -448q10 -37 42 -56q33 -19 72 -10zM1116 1038q39 9 58 44q21 35 8 70l-192 718q-9 39 -42 56q-32 18 -69.5 9.5t-56.5 -43.5q-20 -34 -10 -70l190 -718
q15 -37 46 -56q34 -19 68 -10zM1490 1038q35 8 54 44q21 35 12 70l-122 448q-10 39 -42 56q-32 18 -72 10q-37 -9 -56 -42q-17 -33 -8 -72l122 -448q9 -37 40 -56q34 -19 72 -10zM1490 850v-92q0 -126 -62 -232q-64 -107 -170 -170q-107 -64 -234 -64q-174 0 -302 112
q-129 110 -154 280q-50 -16 -102 -16q-116 0 -198 80q-80 80 -80 198q0 74 38 140q38 67 102 100q35 19 44 56q8 39 -12 72q-18 32 -54 42q-36 9 -70 -8q-108 -62 -172 -168q-64 -109 -64 -233.5t64 -232.5t170 -170q106 -64 232 -64q70 -165 220 -268q152 -102 338 -102
q157 0 292 74q136 73 218 202q82 128 96 282h44q156 0 266 108q108 108 108 262q0 103 -50 190q-49 84 -138 132q-34 18 -72 10q-36 -9 -56 -44q-19 -35 -8 -72q9 -36 46 -54q39 -26 64 -68q26 -43 26 -94q0 -80 -54 -134t-132 -54h-184z" />
</svg>