<svg xmlns="http://www.w3.org/2000/svg" xmlns:xlink="http://www.w3.org/1999/xlink" version="1.1" viewBox="-10 0 2058 2048">
   <path fill="currentColor"
d="M1772 1433h-438v-255q0 -57 44 -96q43 -39 108 -39q64 0 110 39q46 40 46 96v53h130v-53q0 -105 -87 -180t-197 -75q-111 0 -200 75q-88 75 -88 180v255q-50 0 -88 38t-38 87v360q0 53 38 91q40 39 88 39h562q53 0 94 -36q40 -36 40 -84v-361q0 -53 -38 -94
q-39 -40 -86 -40zM896 2048h-604q-59 0 -100 -39q-40 -39 -40 -96v-1572q0 -57 41 -98t99 -41h168v-202h614v202h174q56 0 96 41q38 41 38 98v385q-164 33 -276 161q-114 128 -114 291v125q-53 49 -86 115q-34 70 -34 140v360q0 24 6 67q5 32 18 63z" />
</svg>