<svg xmlns="http://www.w3.org/2000/svg" xmlns:xlink="http://www.w3.org/1999/xlink" version="1.1" viewBox="-10 0 2058 2048">
   <path fill="currentColor"
d="M423 1947q0 44 31 72q32 29 70 29h413q38 0 70 -29q31 -28 31 -72v-101h-615v101zM1139 1466v72q0 38 -29 70q-28 31 -72 31h-615q-44 0 -72 -31q-29 -32 -29 -70v-235q-145 -96 -226 -253q-81 -156 -81 -334q0 -196 96 -360q97 -165 259 -260q164 -96 361 -96
q250 0 446 154q-199 80 -324 262q-122 179 -122 401q0 211 113 387q112 175 295 262zM1951 812l-144 -91l-144 96l43 -168l-139 -106l173 -9l57 -169l68 164l168 5l-130 110zM1797 1125q-95 115 -233 154q-134 38 -274 -3q-136 -40 -228 -156q-111 -139 -106 -310
q4 -169 111 -303q106 -133 279 -166q28 -4 45 17q17 22 8 46q-38 98 -29 209q9 107 65 204q56 98 141 156q87 60 193 75q24 5 33 31q9 28 -5 46z" />
</svg>