<svg xmlns="http://www.w3.org/2000/svg" xmlns:xlink="http://www.w3.org/1999/xlink" version="1.1" viewBox="-10 0 2068 2048">
   <path fill="currentColor"
d="M1990 981l-924 -923q-64 -58 -144 -58h-720q-82 0 -142 60t-60 142v721q0 87 58 144l922 923q65 58 146 58q84 0 142 -58l44 -43q-163 -4 -300 -89q-137 -84 -216.5 -223t-79.5 -306q0 -165 82 -307q81 -143 224 -224q144 -82 306 -82q165 0 305.5 80t224.5 216
q84 137 88 300l44 -43q58 -58 58 -142q0 -82 -58 -146zM356 510q-63 0 -108 -44q-46 -44 -46 -108t46 -110t110 -46t108 46q44 44 44 110q0 65 -44 108q-44 44 -110 44zM1340 880q194 0 328 134q134 135 134 327q0 138 -68 245l314 323l-140 139l-322 -313q-112 68 -246 68
q-190 0 -325 -135t-135 -327t134 -327q134 -134 326 -134zM1340 1086q-104 0 -180 75q-74 74 -74 180q0 108 74 183q76 77 180 77q107 0 184 -75q76 -75 76 -182q0 -108 -75 -183t-185 -75z" />
</svg>