<svg xmlns="http://www.w3.org/2000/svg" xmlns:xlink="http://www.w3.org/1999/xlink" version="1.1" viewBox="-10 0 2058 2048">
   <path fill="currentColor"
d="M46 308l124 -124l1639 1639l-124 124l-142 -137q-65 107 -177 172q-112 66 -246 66q-132 0 -245 -66q-112 -66 -177 -179q-64 -112 -64 -246v-105q-167 -36 -282 -173q-113 -136 -113 -310v-294h170zM1221 478h-394v-478q168 31 282 168q112 134 112 310zM634 0v400
l-257 -257q107 -112 257 -143zM1221 969v19l-312 -313h312v294zM827 1452v105q0 124 87 209q86 85 206 85q96 0 170 -53q75 -53 106 -135l-331 -335q-102 93 -238 124zM1414 1066q0 -159 115 -276q114 -115 280 -115h193l-97 97l97 101h-193q-83 0 -140 57q-58 58 -58 136
v312l-197 -193v-119z" />
</svg>