<svg xmlns="http://www.w3.org/2000/svg" xmlns:xlink="http://www.w3.org/1999/xlink" version="1.1" viewBox="-10 0 2068 2048">
   <path fill="currentColor"
d="M1818 0h-1588q-96 0 -163 67t-67 162v1590q0 95 67 162t163 67h1588q96 0 164 -67q66 -66 66 -162v-1590q0 -96 -66 -162q-68 -67 -164 -67zM1818 1819h-1588v-1590h1588v1590zM364 533h570v171h-570v-171zM1136 1456h570v171h-570v-171zM1136 1163h570v170h-570v-170z
M572 1707h170v-230h224v-170h-224v-224h-170v224h-230v170h230v230zM1264 901l160 -160l160 160l122 -117l-160 -160l160 -160l-122 -123l-160 160l-160 -160l-128 123l160 160l-160 160z" />
</svg>