<svg xmlns="http://www.w3.org/2000/svg" xmlns:xlink="http://www.w3.org/1999/xlink" version="1.1" viewBox="-10 0 2068 2048">
   <path fill="currentColor"
d="M1024 0q-80 0 -144 58l-822 822q-58 57 -58 144t58 144l822 822q58 58 144 58t144 -58l822 -822q58 -58 58 -144t-58 -144l-822 -822q-65 -58 -144 -58zM1236 635q110 0 186 76q78 77 78 188v269q0 111 -77 188t-187 77q-112 0 -189 -77t-77 -188v-269q0 -111 78 -188
q76 -76 188 -76zM856 654h14v779h-154v-592l-182 58v-130zM1236 784q-45 0 -78 31q-34 32 -34 74v289q0 42 34 74t78 32q42 0 76 -32t34 -74v-289q0 -42 -34 -74q-33 -31 -76 -31z" />
</svg>