<svg xmlns="http://www.w3.org/2000/svg" xmlns:xlink="http://www.w3.org/1999/xlink" version="1.1" viewBox="-10 0 2058 2048">
   <path fill="currentColor"
d="M1972 841l-144 39l-124 -72v-173l124 -73l144 44l30 -116l-110 -29l28 -115l-110 -29l-44 144l-124 73l-154 -97v-129l106 -106l-82 -82l-82 82l-82 -82l-82 82l102 106v129l-154 97l-126 -73l-28 -144l-116 29l34 115l-114 20l32 110l144 -38l120 72v173l-120 72
l-144 -43l-32 134l114 34l-34 101l116 29l38 -144l126 -68l154 92v130l-102 105l82 82l82 -82l82 82l80 -82l-100 -105v-130l154 -92l120 68l44 144l110 -29l-38 -115l110 -29zM1276 635l154 -92l154 92v173l-154 91l-154 -91v-173zM354 1639q-39 -103 -82 -226
q-92 -273 -148 -504q-78 -320 -78 -500q0 -142 28 -236q29 -75 74 -125q31 -28 72 -43l28 -5h106h24q32 9 48 29q28 29 28 72q0 26 -10 48t-28 48q-29 45 -44 77q-18 51 -18 135q0 63 38 139q26 50 92 144q87 132 120 202q58 122 58 229q0 54 -12 107t-36 106
q-42 87 -106 164q-47 51 -106 101zM1378 1538q86 0 146 60t60 142v106q0 82 -60 142t-146 60h-616q-131 0 -230 -91q-53 -44 -78 -92q-18 -19 -18 -43q0 -23 18 -38l82 -68q100 -76 178 -125q104 -62 150 -62h514v9z" />
</svg>