<svg xmlns="http://www.w3.org/2000/svg" xmlns:xlink="http://www.w3.org/1999/xlink" version="1.1" viewBox="-10 0 2058 2048">
   <path fill="currentColor"
d="M1690 409q0 140 -86 250q-88 111 -222 144v735q0 102 -38 195q-41 96 -110.5 166t-165.5 110q-93 39 -200 39q-141 0 -258 -67q-118 -68 -184 -185q-68 -118 -68 -258v-514l510 514h-308q0 126 91 217t219 91t216 -91q90 -92 90 -217v-735q-134 -33 -222 -144
q-86 -110 -86 -255q0 -168 120 -286t290 -118q172 0 292 120t120 289zM1282 615q80 0 140 -60q62 -61 62 -146q0 -86 -62 -147q-60 -60 -144 -60t-144 60t-60 147q0 86 60 146t148 60z" />
</svg>