<svg xmlns="http://www.w3.org/2000/svg" xmlns:xlink="http://www.w3.org/1999/xlink" version="1.1" viewBox="-10 0 2068 2048">
   <path fill="currentColor"
d="M1396 0v197h-196v-197h196zM998 0h-200v398h200v-398zM798 1200h-198v197h198v-197zM1396 197v201h-196v202h398v-403h-202zM600 0h-200v398h200v-398zM1800 0h-202v197h202v-197zM1176 1996h-1176v-1996h198v398h202v600h-202v202h202v197h200v201h198v202h200v-202
h-200v-201h200v-399h-398v-398h398v197h202v201h196v-201h202v201h398v178q-140 -79 -300 -79q-178 0 -328 103h-168v168q-102 149 -102 328q0 160 78 300zM400 1598h-202v202h202v-202zM1996 600h-398v197h398v-197zM1996 398v-201h-196v201h196zM1908 1350l-212 206
l-206 -206l-140 140l206 206l-206 211l140 141l206 -211l212 211l140 -141l-210 -211l210 -206z" />
</svg>