<svg xmlns="http://www.w3.org/2000/svg" xmlns:xlink="http://www.w3.org/1999/xlink" version="1.1" viewBox="-10 0 2068 2048">
   <path fill="currentColor"
d="M192 1116h-192v-183h192q23 -194 124 -353q103 -161 264 -264q160 -101 354 -124v-192h182v192q193 23 352 124q162 103 264 264q102 159 124 353h192v183h-192q-22 194 -124 353q-101 160 -264 263q-161 103 -352 125v191h-182v-191q-192 -22 -354 -125t-264 -263
q-101 -159 -124 -353zM1024 375q-178 0 -326 87q-148 86 -236 236q-86 149 -86 326q0 178 86 327q87 148 236 235q150 88 326.5 88t327.5 -88q148 -87 234 -235q88 -149 88 -327q0 -177 -88 -326q-87 -150 -234 -236q-149 -87 -328 -87z" />
</svg>