<svg xmlns="http://www.w3.org/2000/svg" xmlns:xlink="http://www.w3.org/1999/xlink" version="1.1" viewBox="-10 0 2068 2048">
   <path fill="currentColor"
d="M1098 1585h366l-182 -181h-184v181zM912 1218v-186h-182v186h182zM912 1585v-181h-182v181h182zM544 851v-186h-186v186h186zM544 1218v-186h-186v186h186zM544 1585v-181h-186v181h186zM112 0l1936 1927l-122 121l-276 -277h-1472v-1473l-178 -177zM1464 851h186v181
h-186v-181zM730 298v82l-268 -268h636v367h918v1193l-180 -186v-821h-738v82l-268 -268h82v-181h-182z" />
</svg>