<svg xmlns="http://www.w3.org/2000/svg" xmlns:xlink="http://www.w3.org/1999/xlink" version="1.1" viewBox="-10 0 2068 2048">
   <path fill="currentColor"
d="M1560 1351q0 187 -80 350q-79 160 -222 262l-256 -251l136 -137l120 119q82 -118 96 -247h-184v-192h184q-28 -138 -96 -247l-120 119l-136 -137l118 -119q-118 -82 -242 -96v187h-196v-187q-138 32 -242 96l292 292q10 0 22 -4q16 -5 24 -5q82 0 139 57t57 140
q0 82 -57 139t-137 57t-137 -57t-57 -139q0 -27 8 -50l-292 -293q-81 117 -100 247h188v192h-188q33 139 100 247l114 -119l138 137l-252 251q-143 -102 -222 -262q-80 -163 -80 -350q0 -209 106 -391q107 -182 284 -286q178 -105 390 -105t390 105q177 104 284 286
q106 182 106 391zM2048 377q0 -125 -86 -208q-88 -84 -208 -84q-122 0 -206 84t-84 208q0 93 52 167q52 75 140 107v311h196v-311q85 -31 142 -107q54 -73 54 -167zM1756 473q-42 0 -72 -30q-28 -29 -28 -68q0 -40 29 -69t69 -29q38 0 68 29q30 30 30 69q0 38 -30 68t-66 30
z" />
</svg>