<svg xmlns="http://www.w3.org/2000/svg" xmlns:xlink="http://www.w3.org/1999/xlink" version="1.1" viewBox="-10 0 2058 2048">
   <path fill="currentColor"
d="M236 1395v187q126 0 232 63q107 63 168 170q62 106 62 233h186q0 -178 -86 -326q-87 -148 -238 -238q-148 -89 -324 -89zM236 1769v279h278q0 -117 -82 -198q-83 -81 -196 -81zM236 1024v188q226 0 418 111t304 305q114 196 114 420h182q0 -278 -136 -514
q-136 -233 -372 -372q-236 -138 -510 -138zM1630 0h-932q-74 0 -130 55q-54 54 -54 133v684q99 23 184 61v-558h932v1207h-284q74 169 88 371h196q72 0 127 -55t55 -129v-1581q0 -78 -55 -133t-127 -55z" />
</svg>