<svg xmlns="http://www.w3.org/2000/svg" xmlns:xlink="http://www.w3.org/1999/xlink" version="1.1" viewBox="-10 0 2058 2048">
   <path fill="currentColor"
d="M102 332l128 -130l1716 1716l-130 130l-178 -178q-14 76 -71 127t-135 51h-614q-88 0 -148 -60t-60 -142v-1000zM818 0h206v202h202v-202h206q86 0 146 60t60 142v1149l-412 -409v-125h206v-202h-206v-206h-202v206h-126l-288 -288v-125q0 -82 60 -142t148 -60zM818 1846
h206v-207h-206v207zM1226 1846h206v-178l-28 -29h-178v207zM818 1231v202h206v-178l-30 -24h-176z" />
</svg>