<svg xmlns="http://www.w3.org/2000/svg" xmlns:xlink="http://www.w3.org/1999/xlink" version="1.1" viewBox="-10 0 2068 2048">
   <path fill="currentColor"
d="M454 683q-90 0 -157 -67t-67 -160t67 -160t160 -67t160 67t67 160t-67 160t-163 67zM1936 0h-1824q-48 0 -80 32t-32 80v683q0 47 32 82t80 35h1824q48 0 80 -35t32 -82v-683q0 -48 -32 -80t-80 -32zM454 1819q-90 0 -157 -67t-67 -160t67 -160t160 -67t160 67t67 160
t-67 160t-163 67zM1936 1136h-1824q-48 0 -80 35t-32 82v683q0 48 32 80t80 32h1824q48 0 80 -32t32 -80v-683q0 -47 -32 -82t-80 -35z" />
</svg>