<svg xmlns="http://www.w3.org/2000/svg" xmlns:xlink="http://www.w3.org/1999/xlink" version="1.1" viewBox="-10 0 2068 2048">
   <path fill="currentColor"
d="M240 1680l132 130l164 -170l-130 -130zM934 2042h182v-274h-182v274zM1024 464q-152 0 -280 76q-129 77 -202 206q-76 131 -76 278t76 278q74 131 202 204q129 74 280.5 74t281.5 -74q127 -73 202 -204q74 -129 74 -278t-74 -278t-202 -206q-129 -76 -282 -76zM1770 1118
h278v-188h-278v188zM1512 1640l166 170l130 -130l-166 -170zM1808 368l-130 -130l-166 166l130 134zM1116 6h-182v276h182v-276zM280 930h-280v188h280v-188zM536 404l-164 -166l-132 130l166 170z" />
</svg>