<svg xmlns="http://www.w3.org/2000/svg" xmlns:xlink="http://www.w3.org/1999/xlink" version="1.1" viewBox="-10 0 2068 2048">
   <path fill="currentColor"
d="M1724 1140v-656q0 -115 -116 -214q-112 -97 -314 -156q-198 -58 -431.5 -58t-430.5 58q-203 59 -316 156q-116 99 -116 214v1080q0 115 116 214q113 97 316 156q197 58 430 58q92 0 142 -4q-36 -104 -36 -212v-6q-33 6 -106 6q-192 0 -352 -40q-133 -37 -218 -96
q-76 -46 -76 -76v-242q275 130 646 130q106 0 202 -10q85 -140 232 -226q146 -86 318 -86q41 0 110 10zM1508 1074q-110 77 -278 122q-170 44 -367 44t-369 -44q-169 -45 -278 -122v-302q121 65 290 106q172 40 356 40t356 -40q169 -41 290 -106v302zM862 702
q-187 0 -352 -46q-134 -37 -218 -92q-76 -45 -76 -77.5t76 -78.5q85 -59 218 -96q160 -40 353 -40t353 40q130 36 216 96q76 46 76 78.5t-76 77.5q-85 55 -216 92q-166 46 -354 46zM2048 1670v216h-864v-216h864z" />
</svg>