<svg xmlns="http://www.w3.org/2000/svg" xmlns:xlink="http://www.w3.org/1999/xlink" version="1.1" viewBox="-10 0 2058 2048">
   <path fill="currentColor"
d="M1673 188v1673h-558v-327h-182v327h-558v-1673h1298zM1303 558h187v-183h-187v183zM933 558h182v-183h-182v183zM558 558h187v-183h-187v183zM1303 933h187v-188h-187v188zM933 933h182v-188h-182v188zM558 933h187v-188h-187v188zM1303 1303h187v-187h-187v187z
M933 1303h182v-187h-182v187zM558 1303h187v-187h-187v187zM1303 1674h187v-183h-187v183zM558 1674h187v-183h-187v183zM1860 0h-1672v2048h1672v-2048z" />
</svg>