<svg xmlns="http://www.w3.org/2000/svg" xmlns:xlink="http://www.w3.org/1999/xlink" version="1.1" viewBox="-10 0 2068 2048">
   <path fill="currentColor"
d="M512 0h1024q214 0 363 149t149 363v1024q0 214 -149 363t-363 149h-1024q-214 0 -363 -149t-149 -363v-1024q0 -214 149 -363t363 -149zM342 1195v341q0 69 51 120t119 51h172v-854l682 854h170q68 0 119 -51t51 -120v-341q0 -69 51 -120t121 -51q-70 0 -121 -51
t-51 -120v-341q0 -69 -51 -120t-119 -51h-170v854l-682 -854h-172q-68 0 -119 51t-51 120v341q0 70 -50 120q-52 51 -120 51q68 0 120 51q50 50 50 120z" />
</svg>