<svg xmlns="http://www.w3.org/2000/svg" xmlns:xlink="http://www.w3.org/1999/xlink" version="1.1" viewBox="-10 0 2058 2048">
   <path fill="currentColor"
d="M1211 0h-374q-153 0 -266 31q-88 23 -139 65q-34 25 -53 61l-4 31v1115l4 31q19 36 53 61q51 42 139 65q113 31 266 31v183h96v95q0 103 60 179q78 100 218 100h370v-187h-370q-52 0 -74 -28t-22 -64v-95h96v-183q153 0 266 -31q88 -23 139 -65q34 -25 53 -61l4 -31
v-1115l-4 -31q-19 -36 -53 -61q-51 -42 -139 -65q-113 -31 -266 -31zM1490 1024h-279v-91h279v91zM1490 375h-279v92h279v187h-279v91h279v92h-932v-601q78 -48 279 -48h374q201 0 279 48v139z" />
</svg>