<svg xmlns="http://www.w3.org/2000/svg" xmlns:xlink="http://www.w3.org/1999/xlink" version="1.1" viewBox="-10 0 2058 2048">
   <path fill="currentColor"
d="M1690 1674l192 196l-131 130l-191 -196l-201 201l-130 -135l196 -196l-196 -196l130 -131l196 196l196 -196l135 135zM1834 933q0 120 -26 244q-82 -39 -179 -57q18 -87 18 -170v-457l-649 -288l-649 288v457q0 202 89 392q90 193 240 332q149 139 320 187l30 -9
q24 87 83 162l-113 34q-236 -62 -427 -226q-189 -163 -300 -401q-109 -234 -109 -488v-558l836 -375l836 375v558z" />
</svg>