<svg xmlns="http://www.w3.org/2000/svg" xmlns:xlink="http://www.w3.org/1999/xlink" version="1.1" viewBox="-10 0 2068 2048">
   <path fill="currentColor"
d="M1638 409h-514q-82 0 -142 60t-60 146v231q-47 28 -76 75q-28 44 -28 103q0 87 60 147t146 60t146 -60t60 -147q0 -57 -28 -103q-30 -47 -78 -75v-231h308v818h-816v-818h202v-206h-410v1230h1230v-1230zM1846 1846h-1644v-1644h1644v1644zM1846 0h-1644q-82 0 -142 60
t-60 142v1644q0 82 60 142t142 60h1644q82 0 142 -60t60 -142v-1644q0 -82 -60 -142t-142 -60z" />
</svg>