<svg xmlns="http://www.w3.org/2000/svg" xmlns:xlink="http://www.w3.org/1999/xlink" version="1.1" viewBox="-10 0 2068 2048">
   <path fill="currentColor"
d="M1560 0q-133 0 -246 66q-111 65 -178 179q-66 113 -66 244v197h-878q-76 0 -134 57q-58 58 -58 135v978q0 77 58 135q58 57 134 57h1170q82 0 140 -57q58 -58 58 -135v-978q0 -77 -58 -135q-58 -57 -140 -57h-96v-197q0 -123 86 -208q84 -84 208 -84q122 0 206 84
q86 85 86 208v197h196v-197q0 -131 -66 -244q-67 -114 -178 -179q-113 -66 -244 -66zM778 1170q82 0 139 57t57 140q0 82 -57 139t-137 57t-137 -57t-57 -139q0 -83 57 -140t135 -57z" />
</svg>