<svg xmlns="http://www.w3.org/2000/svg" xmlns:xlink="http://www.w3.org/1999/xlink" version="1.1" viewBox="-10 0 2068 2048">
   <path fill="currentColor"
d="M1947 964l-265 -156q36 -31 64 -78q59 -102 27 -220q-31 -116 -137 -176q-60 -37 -130 -40q-68 -2 -135 26l-87 36l-9 -92q-9 -67 -45 -128q-36 -59 -101 -96q-105 -60 -222 -30q-115 30 -175 136q-24 43 -37 96l-265 -156q-75 -41 -151 -20q-78 21 -114 88l-146 256
q-24 38 -12 76q12 39 44 58l580 334h-631v978q0 76 58 134q57 58 134 58h1563q78 0 135 -57t57 -135v-504l73 -122q42 -71 21 -148t-94 -118zM1408 538q18 -36 57 -48q38 -11 73 10q34 21 46 60q12 38 -9 74q-22 38 -60 46q-40 10 -73 -10q-34 -21 -46 -58q-12 -35 12 -74z
M1175 740l676 394l-96 168l-676 -392zM878 1856h-686v-782h686v782zM910 814l-676 -390l95 -168l677 388zM937 378q-36 -22 -48 -58.5t9 -73.5q21 -36 60 -48t75 10q38 21 46 58q9 40 -12 76q-22 38 -59 46q-38 9 -71 -10zM1070 1856v-722l685 392v330h-685z" />
</svg>