<svg xmlns="http://www.w3.org/2000/svg" xmlns:xlink="http://www.w3.org/1999/xlink" version="1.1" viewBox="-10 0 2058 2048">
   <path fill="currentColor"
d="M409 255q0 -72 82 -130q83 -59 223 -91q147 -34 310 -34t310 34q140 32 223 91q82 58 82 130q0 53 -53 101q-68 -68 -218 -111t-344 -43q-193 0 -343 43q-151 43 -219 111q-53 -48 -53 -101zM1024 308q-165 0 -288 31q-127 32 -183 79q204 92 471 92t471 -92
q-56 -47 -183 -79q-123 -31 -288 -31zM1231 615q0 82 -60 142t-147 60q-86 0 -146 -60t-60 -142v-9q-143 -24 -202 -44v53q0 169 120 289t288 120t288 -120q121 -121 121 -289q0 -40 -10 -62q-58 18 -202 38q10 17 10 24zM1476 1207l-72 125l-19 53q114 38 189 79t75 74v318
h-428l-96 -524l96 -197q-26 0 -96 -5t-101 -5q-127 0 -197 10l96 197l-96 524h-428v-318q0 -34 75 -74q73 -40 190 -79l-19 -53l-63 -125q-164 53 -264 129q-116 92 -116 202v510h1644v-510q0 -110 -116 -202q-97 -77 -254 -129z" />
</svg>