<svg xmlns="http://www.w3.org/2000/svg" xmlns:xlink="http://www.w3.org/1999/xlink" version="1.1" viewBox="-10 0 2068 2048">
   <path fill="currentColor"
d="M188 279q-78 0 -133 55t-55 133v1024h188q0 118 80 198t198 80q120 0 200 -80t80 -198h558q0 118 80 198t198 80t198 -80t80 -198h188v-467l-278 -370h-280v-375h-1302zM654 467h184v370h-184v-370zM1490 793h232l186 231h-418v-231zM654 1024h184v188h-184v-188z
M466 1351q56 0 98 42t42 95q0 54 -42 98t-97.5 44t-98.5 -44q-40 -42 -40 -98q0 -54 40 -95q42 -42 98 -42zM1582 1351q56 0 98 42t42 95q0 54 -42 98q-43 44 -98.5 44t-97.5 -44q-42 -42 -42 -98q0 -54 42 -95q42 -42 98 -42z" />
</svg>