<svg xmlns="http://www.w3.org/2000/svg" xmlns:xlink="http://www.w3.org/1999/xlink" version="1.1" viewBox="-10 0 2068 2048">
   <path fill="currentColor"
d="M1540 1654q-31 -86 -104 -139q-75 -53 -170 -53q-123 0 -208 83q-84 82 -84 208t84 210q86 85 208 85q97 0 170 -55q73 -56 104 -142h116v197h196v-197h196v-197h-508zM1266 1878q-50 0 -89 -36t-39 -89t40 -89q40 -37 88.5 -37t89.5 37q38 36 38 89t-39 89t-89 36z
M1266 1266q79 0 156 25q76 25 138 71v-1070q0 -46 27 -73t71 -27t71 27t27 73v96h192v-96q0 -128 -82 -210t-210 -82h-1070q-128 0 -210 82t-82 210v1070h680q62 -46 138 -71t154 -25zM586 388h680v197h-680v-197zM586 777h584v196h-584v-196zM818 1947h-524
q-128 0 -210 -82q-84 -83 -84 -211v-96h818q-40 79 -40 195q0 115 40 194z" />
</svg>