<svg xmlns="http://www.w3.org/2000/svg" xmlns:xlink="http://www.w3.org/1999/xlink" version="1.1" viewBox="-10 0 2068 2048">
   <path fill="currentColor"
d="M1860 281q-148 -48 -326 -48q-144 0 -270 31q-142 34 -240 109q-97 -75 -240 -109q-125 -31 -270 -31q-143 0 -274 31q-142 34 -240 109v1363q0 17 16 31q15 13 32 13l22 -4q96 -43 218 -72q124 -29 226 -29q145 0 270 31q143 34 240 109q90 -60 242 -100
q154 -40 268 -40q262 0 444 96q10 5 24 5t30 -16q16 -15 16 -32v-1355q-74 -57 -188 -92zM1860 1536q-148 -48 -326 -48q-118 0 -268 42q-153 43 -242 98v-1068q90 -60 242 -100q150 -39 268 -39q180 0 326 43v1072z" />
</svg>