<svg xmlns="http://www.w3.org/2000/svg" xmlns:xlink="http://www.w3.org/1999/xlink" version="1.1" viewBox="-10 0 2058 2048">
   <path fill="currentColor"
d="M1706 965v-512l-240 123q12 57 12 107q0 187 -133 320t-320 133t-320 -133t-133 -320q0 -56 10 -107l-352 -181l794 -395l794 395v570h-112zM1024 795l-230 -112q0 90 67 157t163 67t163 -67t67 -157zM1338 389l-298 -154l-304 160l294 149zM1024 1248q175 0 374 53
q226 58 368 150q170 112 170 256v341h-1824v-341q0 -143 172 -256q141 -92 368 -150q198 -53 372 -53zM1024 1467q-160 0 -330 42q-144 40 -256 102q-106 58 -106 96v122h1386v-122q0 -37 -108 -96q-112 -62 -256 -102q-170 -42 -330 -42z" />
</svg>