<svg xmlns="http://www.w3.org/2000/svg" xmlns:xlink="http://www.w3.org/1999/xlink" version="1.1" viewBox="-10 0 2058 2048">
   <path fill="currentColor"
d="M242 101h294q82 0 139 57t57 135v1563q0 78 -57 135t-139 57h-294q-76 0 -134 -57q-58 -58 -58 -135v-1563q0 -77 58 -135q58 -57 134 -57zM1806 1367q78 0 135 57t57 139v293q0 78 -57 135t-135 57h-878v-681h878zM1220 293q211 0 390 105q177 105 282 285
q106 180 106 391l-6 96h-196l10 -96q0 -159 -80 -295q-79 -133 -216 -212q-135 -78 -290 -78v293l-392 -389l392 -393v293z" />
</svg>