<svg xmlns="http://www.w3.org/2000/svg" xmlns:xlink="http://www.w3.org/1999/xlink" version="1.1" viewBox="-10 0 2058 2048">
   <path fill="currentColor"
d="M1231 0l615 615v1231q0 82 -60 142t-147 60h-1230q-86 0 -146 -60q-61 -61 -61 -142v-1644q0 -81 61 -142q60 -60 146 -60h822zM1639 1846v-1130h-514v-514h-716v1644h1230zM971 817q192 0 327 135t135 327t-135 327q-134 134 -327 134q-192 0 -326 -134
q-135 -135 -135 -327t135 -327t326 -135zM971 971q-86 0 -153 43l418 419q43 -67 43 -154q0 -125 -89 -217q-88 -91 -219 -91zM664 1279q0 130 91 218q92 89 216 89q87 0 154 -43l-418 -418q-43 67 -43 154z" />
</svg>