<svg xmlns="http://www.w3.org/2000/svg" xmlns:xlink="http://www.w3.org/1999/xlink" version="1.1" viewBox="-10 0 2058 2048">
   <path fill="currentColor"
d="M1024 683q-96 0 -163 -67t-67 -160t67 -160t163 -67t163 67t67 160t-67 160t-163 67zM1024 1253q-96 0 -162 -66q-68 -67 -68 -163t68 -163q66 -66 162 -66t162 66q68 67 68 163t-68 163q-66 66 -162 66zM1024 1819q-96 0 -163 -67t-67 -160t67 -160t163 -67t163 67
t67 160t-67 160t-163 67zM1936 795h-342v-128q150 -37 246 -160t96 -278h-342v-117q0 -48 -35 -80t-81 -32h-906q-48 0 -83 32t-35 80v117h-342q0 155 96 278t246 160v128h-342q0 160 96 280q97 120 246 162v128h-342q0 155 96 278t246 160v133q0 48 35 80t83 32h906
q46 0 81 -32t35 -80v-133q150 -37 246 -160t96 -278h-342v-128q149 -42 246 -162q96 -120 96 -280z" />
</svg>