<svg xmlns="http://www.w3.org/2000/svg" xmlns:xlink="http://www.w3.org/1999/xlink" version="1.1" viewBox="-10 0 2068 2048">
   <path fill="currentColor"
d="M1306 1586l148 148l220 -226l226 226l148 -148l-226 -226l226 -221l-148 -147l-226 221l-220 -221l-148 147l222 221zM1252 904q-4 -108 -96 -192q-90 -83 -212 -83q-133 5 -224 93q-90 87 -90 221t90 221q91 88 224 93q58 0 116 -24q24 -95 64 -167q49 -88 128 -162z
M1046 1360h-628q0 -83 -62 -144q-62 -62 -144 -62v-422q82 0 144 -62q62 -61 62 -144h1050q0 83 62 144q62 62 144 62v5q108 4 212 39v-462h-1886v1258h1080q-34 -102 -34 -212z" />
</svg>