<svg xmlns="http://www.w3.org/2000/svg" xmlns:xlink="http://www.w3.org/1999/xlink" version="1.1" viewBox="-10 0 2068 2048">
   <path fill="currentColor"
d="M1948 1014v-822q0 -78 -57 -135t-135 -57h-1564q-76 0 -134 57q-58 58 -58 135v1755l390 -389h320q65 216 244 352q181 138 408 138q187 0 344 -92q156 -92 249 -249t93 -345t-100 -348zM308 1362l-116 114v-1284h1564v612q-179 -123 -394 -123q-134 0 -256 52
q-122 53 -218 144h-498v192h360q-68 141 -68 293h-374zM1362 1837q-127 0 -234 -64q-109 -65 -172 -173q-64 -109 -64 -238t64 -236q63 -106 172 -171q107 -64 234 -64q130 0 238 64q110 64 174 171t64 236t-64 238q-65 109 -174 173q-108 64 -238 64zM1560 681h-1170v-197
h1170v197zM1412 1344l238 141l-72 124l-312 -179v-361h146v275z" />
</svg>