<svg xmlns="http://www.w3.org/2000/svg" xmlns:xlink="http://www.w3.org/1999/xlink" version="1.1" viewBox="-10 0 2058 2048">
   <path fill="currentColor"
d="M1004 1181q-66 67 -152 96v771h-278v-187h-280v-279h280v-305q-127 -44 -204 -150q-76 -106 -76 -242q0 -174 122 -296t296 -122h10q-70 141 -52 287q-46 14 -70 50q-26 38 -26 81q0 56 38 98q39 41 100 41q28 0 62 -13q87 118 230 170zM1754 1717l-258 105l-70 -170
l-256 109l-108 -257l256 -109l-118 -279q-129 9 -244 -61q-111 -68 -164 -192q-70 -163 -4 -322q68 -161 226 -227q23 -13 68 -22q-48 -87 -134 -141q-89 -55 -192 -55q-152 0 -261 109t-109 262v21q-42 37 -78 88q-14 -59 -14 -109q0 -128 61.5 -234t168.5 -169
q108 -64 232.5 -64t233.5 64q107 64 170 169q62 107 62 234q0 96 -36 180q-37 84 -108 151q30 30 70 39q39 9 82 -9q52 -22 74 -76q23 -54 0 -107q-4 -13 -12 -26q22 -76 22 -152q0 -86 -26 -170q89 25 162 89q72 63 112 150q52 125 22 255q-31 130 -130 216zM1034 706
q55 -59 80 -130q-41 19 -60 54q-20 38 -20 76z" />
</svg>