<svg xmlns="http://www.w3.org/2000/svg" xmlns:xlink="http://www.w3.org/1999/xlink" version="1.1" viewBox="-10 0 2058 2048">
   <path fill="currentColor"
d="M1404 1710l584 155l-36 183l-918 -242l-920 242l-44 -183l584 -155l-594 -156l46 -187l918 242l914 -242l50 187zM792 489q-60 0 -104 44t-44 102q0 59 44 103t100 44q58 0 104 -44t46 -103q0 -58 -46 -102t-100 -44zM1276 489q-56 0 -102 44q-44 43 -44 102t44 103
q46 44 104 44q56 0 100 -44q44 -43 44 -103q0 -59 -44 -102q-44 -44 -102 -44zM1130 978l-96 -196l-96 196h192zM1034 0q-188 0 -344 91q-154 91 -246 250q-92 157 -92 345q0 135 50 256q52 124 142 219v302h978v-302q89 -93 142 -219q50 -123 50 -256q0 -187 -92 -345
q-92 -159 -246 -250q-156 -91 -342 -91zM1326 1074v197h-96v-197h-100v197h-192v-197h-102v197h-96v-197q-91 -69 -143.5 -169t-52.5 -219q0 -136 66 -249q66 -111 178 -176q112 -64 246 -64q132 0 244 64q112 65 178 176q66 114 66 249q0 113 -52 217q-52 101 -144 171z
" />
</svg>