<svg xmlns="http://www.w3.org/2000/svg" xmlns:xlink="http://www.w3.org/1999/xlink" version="1.1" viewBox="-10 0 2068 2048">
   <path fill="currentColor"
d="M1792 1536h-512v-256h-144q-72 152 -220 246t-316 94q-167 0 -304 -80q-136 -80 -216 -216q-80 -137 -80 -300t80 -300q80 -136 216 -216q137 -80 304 -80q168 0 316 94t220 246h912v512h-256v256zM1452 1364h168v-256h256v-168h-860l-16 -60q-48 -128 -158 -206
t-246 -78q-117 0 -214 58q-99 59 -154 156q-56 98 -56 214t56 214q55 97 154 156q97 58 214 58q136 0 246 -78t158 -206l16 -60h436v256zM596 1280q-108 0 -182 -74t-74 -182t74 -182t184 -74t182 74q72 73 72 182q0 108 -72 182t-184 74zM596 940q-37 0 -60 22
q-24 22 -24 62t24 62q23 22 62 22t62 -22q24 -22 24 -62t-24 -62q-23 -22 -64 -22z" />
</svg>