<svg xmlns="http://www.w3.org/2000/svg" xmlns:xlink="http://www.w3.org/1999/xlink" version="1.1" viewBox="-10 0 2068 2048">
   <path fill="currentColor"
d="M622 781l388 -224q13 -9 28 0l388 224q18 9 18 23v449q0 19 -18 28l-388 225q-15 9 -28 0l-388 -225q-18 -9 -18 -28v-449q0 -14 18 -23zM2034 982q28 47 0 94l-464 804q-28 42 -84 42h-924q-56 0 -84 -42l-464 -804q-28 -47 0 -94l464 -804q33 -52 84 -52h924
q51 0 84 52zM1650 1375v-683q0 -22 -18 -32l-594 -337q-14 -14 -32 0l-590 337q-18 10 -18 32v683q0 19 18 28l594 337q14 9 32 0l590 -337q18 -9 18 -28z" />
</svg>