<svg xmlns="http://www.w3.org/2000/svg" xmlns:xlink="http://www.w3.org/1999/xlink" version="1.1" viewBox="-10 0 2068 2048">
   <path fill="currentColor"
d="M1366 974q-100 0 -171 -71t-71 -171q0 -102 71 -173t171 -71t171 71t71 173q0 100 -71 171t-171 71zM686 732q0 172 104 416q86 184 234 410q98 141 238 316l104 124l106 -124q139 -175 238 -316q147 -226 232 -410q106 -244 106 -424t-92 -336q-91 -155 -246 -246
q-156 -92 -343.5 -92t-342.5 92q-155 90 -246 246q-92 157 -92 344zM490 534l-490 490l490 488v-978z" />
</svg>