<svg xmlns="http://www.w3.org/2000/svg" xmlns:xlink="http://www.w3.org/1999/xlink" version="1.1" viewBox="-10 0 2068 2048">
   <path fill="currentColor"
d="M1050 28q-365 0 -650 208q-287 210 -400 550l252 82q77 -254 302 -418q225 -162 496 -162q305 0 536 202l-272 270h734v-732l-270 270q-157 -127 -342 -200q-182 -70 -386 -70zM1836 1184v630q0 84 -62 146q-60 60 -144 60h-212q-88 0 -150 -60q-62 -62 -62 -146v-630
q0 -88 62 -150t150 -62h212q84 0 144 62q62 62 62 150zM1418 1184v630h212v-630h-212zM576 972q-84 0 -145 61t-61 151v630q0 84 61 145t145 61h212q90 0 151 -61t61 -145v-212q0 -88 -62 -150t-150 -62h-212v-206h424v-212h-424zM576 1602h212v212h-212v-212z" />
</svg>