<svg xmlns="http://www.w3.org/2000/svg" xmlns:xlink="http://www.w3.org/1999/xlink" version="1.1" viewBox="-10 0 2058 2048">
   <path fill="currentColor"
d="M1514 980q131 0 254 59q13 -76 13 -146v-534l-801 -359l-800 359v534q0 241 104 467q102 221 288 383q182 158 408 217q49 -12 88 -29q-134 -163 -134 -371q0 -158 80 -292q81 -136 210 -211q133 -77 290 -77zM1514 1201v-133l-200 200l200 200v-133q57 0 108 29
q50 29 81.5 77t33.5 106q1 61 -23 113l96 96q53 -83 58 -181q4 -100 -41 -184q-47 -86 -130 -138t-183 -52zM1514 1781q-59 0 -108 -27q-51 -28 -82.5 -77t-32.5 -109q-2 -60 23 -108l-96 -96q-54 79 -58 177q-5 101 41 186q47 89 129 137q85 50 184 50v134l200 -200
l-200 -200v133z" />
</svg>