<svg xmlns="http://www.w3.org/2000/svg" xmlns:xlink="http://www.w3.org/1999/xlink" version="1.1" viewBox="-10 0 2068 2048">
   <path fill="currentColor"
d="M202 202h1644q82 0 142 60t60 147v1230q0 87 -60 147t-142 60h-1644q-82 0 -142 -60t-60 -147v-1230q0 -87 60 -147t142 -60zM202 409v1230h1644v-1230h-1644zM356 562h566v174q-68 20 -117.5 69t-68.5 118h-380v-361zM1692 562v361h-380q-20 -69 -69.5 -118t-118.5 -69
v-174h568zM1692 1485h-568v-173q69 -20 118.5 -69t69.5 -118h380v360zM356 1485v-360h380q19 69 68.5 118t117.5 69v173h-566zM1024 870q62 0 108 46t46 108t-46 108t-108 46t-108 -46t-46 -108t46 -108t108 -46z" />
</svg>