<svg xmlns="http://www.w3.org/2000/svg" xmlns:xlink="http://www.w3.org/1999/xlink" version="1.1" viewBox="-10 0 2068 2048">
   <path fill="currentColor"
d="M912 683h224v229h-224v-229zM684 912h228v224h-228v-224zM1136 912h230v224h-230v-224zM1366 683h228v229h-228v-229zM454 683h230v229h-230v-229zM1818 0h-1588q-96 0 -163 67t-67 162v1590q0 95 67 162t163 67h1588q96 0 164 -67q66 -66 66 -162v-1590q0 -96 -66 -162
q-68 -67 -164 -67zM684 1707h-230v-230h230v230zM1136 1707h-224v-230h224v230zM1594 1707h-228v-230h228v230zM1818 912h-224v224h224v229h-224v-229h-228v229h-230v-229h-224v229h-228v-229h-230v229h-224v-229h224v-224h-224v-683h1588v683z" />
</svg>