<svg xmlns="http://www.w3.org/2000/svg" xmlns:xlink="http://www.w3.org/1999/xlink" version="1.1" viewBox="-10 0 2068 2048">
   <path fill="currentColor"
d="M1574 1938l-276 -300l118 -112l158 159l356 -361l118 141zM1098 1624q0 -165 82 -302q84 -141 216 -218v-178h-996v497q0 124 52 227q54 105 148 176h-402v-1603h202v201q0 42 30 71q29 28 68 28h800q42 0 70 -28t28 -71v-201h202v-197h-1400q-80 0 -139 59t-59 138v1603
q0 79 60 138q58 58 138 58h1054q-154 -167 -154 -398zM798 724q0 42 30 71q29 28 70 28t70 -28q30 -29 30 -71q0 -41 -30 -70q-29 -28 -70 -28t-70 28q-30 29 -30 70z" />
</svg>