<svg xmlns="http://www.w3.org/2000/svg" xmlns:xlink="http://www.w3.org/1999/xlink" version="1.1" viewBox="-10 0 2058 2048">
   <path fill="currentColor"
d="M1037 515v751q0 9 -4 13q-5 5 -9 5q-161 0 -277 -116t-116 -277q0 -162 116 -276q115 -113 277 -113q5 0 9 4t4 9zM1037 1567v227q-4 98 61 171q67 74 162 83q26 0 30 -26v-1703q-4 -26 -30 -35q-163 -66 -334 -38t-308 136q-134 106 -201 271q-65 161 -39 336
q26 172 133 308q107 135 273 201q108 43 227 43q8 0 17 9t9 17zM1417 415v952q0 27 4 32q5 7 22 -6q136 -114 194 -278q59 -165 31 -334q-28 -170 -142 -305q-39 -53 -83 -83q-18 -13 -22 -5t-4 31v-4zM1290 131q0 -54 37 -92q38 -39 92.5 -39t91.5 39q37 38 37 92
q0 53 -37 91q-38 40 -94 40q-51 0 -90 -40q-37 -38 -37 -91z" />
</svg>