<svg xmlns="http://www.w3.org/2000/svg" xmlns:xlink="http://www.w3.org/1999/xlink" version="1.1" viewBox="-10 0 2068 2048">
   <path fill="currentColor"
d="M1990 981l-924 -923q-64 -58 -144 -58h-720q-82 0 -142 60t-60 142v721q0 81 58 144l922 923q65 58 146 58q84 0 142 -58l722 -721q58 -58 58 -142q0 -82 -58 -146zM462 615q-68 0 -112 -45q-42 -44 -42 -111q0 -65 43 -108t109 -43q65 0 110 43q46 44 46 108
q0 65 -46 111q-46 45 -108 45zM980 1375l-408 -414l144 -144l408 414zM1394 1269l-568 -562l144 -145l568 563z" />
</svg>