<svg xmlns="http://www.w3.org/2000/svg" xmlns:xlink="http://www.w3.org/1999/xlink" version="1.1" viewBox="-10 0 2068 2048">
   <path fill="currentColor"
d="M1534 1148q117 0 236 22v139q-82 -21 -236 -21q-262 0 -418 91v-157q166 -74 418 -74zM1116 974q179 -74 418 -74q121 0 236 22v139q-86 -22 -236 -22q-260 0 -418 92v-157zM1534 791q-266 0 -418 91v-152q176 -79 418 -79q112 0 236 22v144q-108 -26 -236 -26z
M1860 1536v-1072q-146 -43 -326 -43q-284 0 -510 139v1068q228 -140 510 -140q169 0 326 48zM1534 233q330 0 514 140v1355q0 18 -18 32q-19 16 -30 16q-12 0 -22 -5q-178 -96 -444 -96q-282 0 -510 140q-188 -140 -510 -140q-230 0 -444 96l-22 9q-17 0 -32 -13
q-16 -14 -16 -31v-1363q189 -140 512.5 -140t511.5 140q189 -140 510 -140z" />
</svg>