<svg xmlns="http://www.w3.org/2000/svg" xmlns:xlink="http://www.w3.org/1999/xlink" version="1.1" viewBox="-10 0 2068 2048">
   <path fill="currentColor"
d="M1846 1231h-1438q-168 0 -288 120t-120 288q0 169 120 289t288 120h1438q82 0 142 -60t60 -142v-413q0 -82 -60 -142t-142 -60zM408 1846q-86 0 -146 -60q-60 -61 -60 -147q0 -85 60 -146q60 -60 146 -60q88 0 148 60t60 146q0 87 -60 147t-148 60zM438 1024l686 -688
q62 -62 144 -62t144 62l290 289q62 62 62 144t-62 144l-92 111h-1172zM0 1178v-976q0 -82 60 -142t142 -60h414q80 0 140 60q62 61 62 142v154z" />
</svg>