<svg xmlns="http://www.w3.org/2000/svg" xmlns:xlink="http://www.w3.org/1999/xlink" version="1.1" viewBox="-10 0 2068 2048">
   <path fill="currentColor"
d="M1490 466h-932q-147 0 -276 74q-128 73 -204 202q-78 130 -78 281.5t78 280.5q77 132 204 204q129 74 276 74h932q148 0 278 -74q126 -72 204 -204q76 -128 76 -280.5t-76 -281.5q-77 -129 -204 -202q-130 -74 -278 -74zM1490 1394h-932q-152 0 -261 -109t-109 -261
t109 -261t261 -109h932q152 0 261 109t109 261t-109 261t-261 109zM558 744q-113 0 -196 82q-82 81 -82 198t82 198q82 80 198 80t196 -80q82 -80 82 -198t-81 -199t-199 -81z" />
</svg>