<svg xmlns="http://www.w3.org/2000/svg" xmlns:xlink="http://www.w3.org/1999/xlink" version="1.1" viewBox="-10 0 2058 2048">
   <path fill="currentColor"
d="M572 202q0 87 -60 147t-144 60t-144 -60t-60 -145q0 -84 60 -144t144 -60t144 60t60 142zM216 510q-86 0 -146 60t-60 146v616h206v716h370q-105 -101 -160 -233q-56 -131 -56 -277q0 -191 96 -358q96 -165 260 -262v-202q0 -85 -60 -146q-60 -60 -142 -60h-308z
M1034 615v818h566l274 370l164 -120l-336 -452h-462v-616h-206zM932 1048q-157 48 -258.5 185t-101.5 305q0 101 42 195q40 94 112 166q71 70 166 110q92 39 194 39q141 0 258 -67q119 -69 186 -185q70 -120 70 -258h-206q0 126 -88.5 217t-219 91t-218.5 -91
q-90 -92 -90 -217q0 -80 42 -153q40 -72 112 -116v-221z" />
</svg>