<svg xmlns="http://www.w3.org/2000/svg" xmlns:xlink="http://www.w3.org/1999/xlink" version="1.1" viewBox="-10 0 2068 2048">
   <path fill="currentColor"
d="M2005 967q-14 -59 -50 -105q-38 -49 -89 -78l-39 -157q65 -21 126 -48v-205q-154 83 -375 131q-253 56 -553.5 56t-554.5 -56q-220 -48 -375 -131v205q61 27 126 48l-39 157q-52 30 -90 78q-36 46 -50 105q-52 214 -39 358q18 214 174 253q106 26 197 -52
q132 -115 209 -428q30 -123 -39 -222l39 -162q104 16 253 26v166q-43 38 -67 96q-24 57 -24 114q0 218 48 358q70 200 231 200q109 0 179 -96q100 -139 100 -462q0 -57 -24 -114q-24 -56 -68 -96v-166q151 -10 254 -26l39 162q-69 99 -39 222q78 313 209 428q91 78 196 52
q153 -39 175 -253q13 -141 -40 -358zM448 1068q-17 50 -31 104q-39 118 -82 188q-62 96 -123 83q-82 -22 -69 -236q9 -107 34 -205l14 -35q23 -39 52 -57q45 -26 100 -13q87 23 105 96q9 40 0 75zM1024 1535q-61 0 -100 -109q-21 -68 -35 -201l-5 -109l5 -35q15 -43 35 -66
q39 -39 100 -39t100 39q20 23 35 66l4 35l-4 109q-14 133 -35 201q-39 109 -100 109zM1835 1443q-41 11 -83.5 -33t-86.5 -142q-41 -106 -65 -200l-5 -35q0 -46 22 -75q25 -43 87 -61q83 -18 136 40q20 27 30 65l22 105q18 119 13 205q-9 113 -70 131z" />
</svg>