<svg xmlns="http://www.w3.org/2000/svg" xmlns:xlink="http://www.w3.org/1999/xlink" version="1.1" viewBox="-10 0 2067 2048">
   <path fill="currentColor"
d="M174 731q-29 -29 -68 -29q-61 0 -93 60q-32 61 16 113q183 163 231 231q62 80 62 250q0 197 154 303q88 68 188 101v-399q0 -145 -96 -241zM1480 1125q-96 96 -96 236v403q144 -53 245 -161.5t101 -246.5q0 -172 58 -250q17 -31 53 -65q26 -24 77 -75l67 -62l33 -29
q29 -29 29 -72t-29 -72t-72 -29t-72 29zM1024 1846q110 0 207 -29v-365q0 -92 -63 -156q-63 -65 -144 -65q-82 0 -144 62q-63 63 -63 149v375q98 29 207 29zM716 664q0 66 -45 110q-44 43 -107.5 43t-108.5 -43q-46 -44 -46 -108q0 -65 46 -111q45 -45 108 -45t108 45
t45 109zM1639 664q0 66 -46 110q-44 43 -107.5 43t-108.5 -43q-46 -44 -46 -108q0 -65 46 -111q45 -45 108 -45t108 45q46 46 46 109zM1178 356q0 66 -46 110q-45 44 -107.5 44t-108.5 -44t-46 -108t46 -110t108 -46t108 46t46 108zM1178 923q0 62 -46 108t-108 46t-108 -46
t-46 -110t46 -108t108.5 -44t107.5 44q46 44 46 110z" />
</svg>