<svg xmlns="http://www.w3.org/2000/svg" xmlns:xlink="http://www.w3.org/1999/xlink" version="1.1" viewBox="-10 0 2061 2048">
   <path fill="currentColor"
d="M780 756l-410 35l310 266l-92 402l349 -214l70 44q-29 59 -52 144l-18 -13l-576 349l153 -655l-506 -441l667 -57l262 -616l262 616l668 57l-297 258q-209 9 -375 135v-9l310 -266l-411 -35l-157 -376zM2037 1734l-91 162q-5 13 -31 13l-113 -48q-41 28 -79 43l-17 127
q-5 17 -22 17h-188q-22 0 -26 -17l-18 -127q-37 -14 -78 -43l-114 48q-26 0 -30 -13l-92 -162q-9 -18 4 -31l101 -74q-5 -25 -5 -46q0 -20 5 -45l-101 -79q-13 -13 -4 -31l92 -161q9 -9 30 -9l114 44l78 -44l18 -122q4 -18 26 -18h188q17 0 22 18l17 122q30 14 79 44
l113 -44q26 0 31 9l91 161q9 18 -4 31l-101 79q5 25 5 43l-5 48l101 74q13 13 4 31zM1727 1581q0 -56 -39 -98t-98 -42t-101 42q-41 41 -41 100q0 61 41 99q42 39 101 39t98 -39t39 -101z" />
</svg>