<svg xmlns="http://www.w3.org/2000/svg" xmlns:xlink="http://www.w3.org/1999/xlink" version="1.1" viewBox="-10 0 2068 2048">
   <path fill="currentColor"
d="M1652 856q-43 -218 -220 -368q-175 -148 -408 -148q-185 0 -336 94q-154 96 -232 254q-130 12 -232 82q-105 72 -164 182q-60 112 -60 244q0 135 68 254q67 117 186 188q118 70 258 70h1108q117 0 214 -58q98 -58 156 -156q58 -97 58 -214q0 -168 -114 -290
q-115 -122 -282 -134zM1620 1536h-1108q-140 0 -240 -100t-100 -240q0 -132 86 -230t218 -110l88 -8l44 -84q61 -117 172 -184q113 -68 244 -68q168 0 298 106q131 107 162 274l24 128l132 8q100 4 168 78t68 178t-74 178t-182 74zM684 1108h216v256h248v-256h216l-340 -340
z" />
</svg>