<svg xmlns="http://www.w3.org/2000/svg" xmlns:xlink="http://www.w3.org/1999/xlink" version="1.1" viewBox="-10 0 2068 2048">
   <path fill="currentColor"
d="M1024 0q-278 0 -514 137q-235 136 -372 373q-138 236 -138 514t138 514q137 237 372 373q236 137 513.5 137t514.5 -137q236 -137 372 -373q138 -236 138 -514t-138 -514q-136 -236 -372 -373q-237 -137 -514 -137zM760 1803q-250 -87 -404 -301t-154 -478t154 -478
t404 -301q-198 367 -198 779t198 779zM1024 1846q-125 -183 -192 -392q-68 -207 -68 -430t68 -430q67 -209 192 -392q124 183 192 392q68 210 68 430t-68 430q-68 209 -192 392zM1288 1803q196 -367 196 -779t-196 -779q249 87 404 301q154 214 154 478t-152 481
q-153 217 -406 298z" />
</svg>