<svg xmlns="http://www.w3.org/2000/svg" xmlns:xlink="http://www.w3.org/1999/xlink" version="1.1" viewBox="-10 0 2058 2048">
   <path fill="currentColor"
d="M1024 0q212 0 396 140q183 140 288 372q104 230 104 512t-104 515t-288 372q-182 137 -396 137t-396 -137q-184 -139 -288 -372t-104 -515t104 -512q105 -232 288 -372q184 -140 396 -140zM1024 188q-168 0 -303 113q-139 116 -220 305q-82 191 -82 418q0 228 82 419
q81 189 220 305q135 113 303 113t303 -113q139 -116 220 -305q82 -191 82 -419q0 -227 -82 -418q-81 -189 -220 -305q-135 -113 -303 -113zM680 863l300 -301l101 101l-305 300zM719 1268l523 -527l100 96l-527 527z" />
</svg>