<svg xmlns="http://www.w3.org/2000/svg" xmlns:xlink="http://www.w3.org/1999/xlink" version="1.1" viewBox="-10 0 2068 2048">
   <path fill="currentColor"
d="M1770 654h-466v558h-1208v279h92q0 118 80 198t198 80q120 0 200 -80t80 -198h558q0 118 80 198t198 80t198 -80t80 -198h188v-467zM466 1630q-55 0 -98 -44q-40 -42 -40 -98q0 -54 40 -95q42 -42 98 -42t98 42t42 95q0 54 -42 98t-98 44zM1582 1630q-56 0 -98 -44
q-42 -42 -42 -98q0 -54 42 -95q42 -42 98 -42t98 42t42 95q0 54 -42 98q-43 44 -98 44zM1490 1024v-231h232l186 231h-418zM1212 793q0 131 -98 227t-228 96h-558q-132 0 -230 -96t-98 -229t98 -229q97 -95 230 -95h48v-92h-96v-96h374v96h-96v92h328q131 0 228 95
q98 96 98 231z" />
</svg>