<svg xmlns="http://www.w3.org/2000/svg" xmlns:xlink="http://www.w3.org/1999/xlink" version="1.1" viewBox="-10 0 2068 2048">
   <path fill="currentColor"
d="M0 933h280v183h-280v-183zM838 1953q0 43 26 69t70 26h182q44 0 70 -26t26 -69v-92h-374v92zM1116 0h-182v279h182v-279zM366 236l-130 130l192 192l130 -131zM1770 933v183h278v-183h-278zM1682 236l-192 191l132 131l190 -192zM1582 1024q0 154 -76 284
q-78 132 -202 200v166q0 43 -26 69t-66 26h-374q-40 0 -66 -26t-26 -69v-166q-125 -68 -202 -200q-78 -131 -78 -284q0 -152 78 -279q76 -126 202 -202q125 -76 278.5 -76t279.5 76q125 76 202 202q76 125 76 279zM654 1024q0 50 14 92h714q12 -42 12 -92q0 -152 -109 -261
t-261 -109t-261 109t-109 261z" />
</svg>