<svg xmlns="http://www.w3.org/2000/svg" xmlns:xlink="http://www.w3.org/1999/xlink" version="1.1" viewBox="-10 0 2068 2048">
   <path fill="currentColor"
d="M1024 101q168 0 288 120q120 121 120 289q0 114 -52 206h258q72 0 128 46q55 44 74 113l184 735q24 116 24 130q0 87 -60 147t-142 60h-1644q-82 0 -142 -60t-60 -147q0 -15 24 -130l182 -735q20 -68 76 -113q56 -46 126 -46h260q-52 -92 -52 -206q0 -169 120 -289
t288 -120zM1024 308q-86 0 -146 60t-60 144t60 144t146 60t146 -60t60 -144t-60 -144t-146 -60zM408 923v817h208v-255l100 101v154h206v-202l-206 -206l206 -207v-202h-206v154l-100 101v-255h-208zM1332 923q-88 0 -148 60t-60 142v413q0 82 60 142t148 60h306v-509h-206
v307h-100v-413h306v-202h-306z" />
</svg>