<svg xmlns="http://www.w3.org/2000/svg" xmlns:xlink="http://www.w3.org/1999/xlink" version="1.1" viewBox="-10 0 2068 2048">
   <path fill="currentColor"
d="M1024 142l-1024 1764h2048zM1094 1022q127 25 196 136q69 109 40 238q-19 90 -84 152q-64 61 -152 84v-610zM954 1628q-126 -26 -195.5 -137.5t-38.5 -232.5q18 -94 82 -156q66 -62 152 -84v610zM1478 1322q-5 -166 -114 -290t-270 -150v-344l710 1230h-680
q153 -35 254 -160q100 -123 100 -282v-4zM954 538v344q-122 23 -214 96q-96 76 -138 188q-44 115 -26 236q22 135 118 236q97 104 230 134h-680z" />
</svg>