<svg xmlns="http://www.w3.org/2000/svg" xmlns:xlink="http://www.w3.org/1999/xlink" version="1.1" viewBox="-10 0 2067 2048">
   <path fill="currentColor"
d="M1590 1050l135 589l-515 -314l-518 314l135 -589l-454 -397l602 -52l235 -554l236 554l601 52zM94 1111q27 0 48 -13l301 -196l-148 -127l-253 166q-30 23 -39 59q-9 38 13 72q30 39 78 39zM16 1961q26 40 78 40q27 0 48 -13l384 -253l31 -127l30 -135l-545 357
q-30 23 -39 59q-9 38 13 72zM42 1386q-30 23 -39 59q-9 37 13 71q26 40 78 40q27 0 48 -13l506 -332l26 -109l-87 -78z" />
</svg>