<svg xmlns="http://www.w3.org/2000/svg" xmlns:xlink="http://www.w3.org/1999/xlink" version="1.1" viewBox="-10 0 2068 2048">
   <path fill="currentColor"
d="M510 0q-141 0 -258 67q-118 68 -184 185q-68 118 -68 258v1336q0 82 60 142t142 60h616q86 0 146 -60t60 -142v-1336q0 -138 -70 -258q-68 -116 -188 -185q-116 -67 -256 -67zM308 1846q-44 0 -74 -31q-32 -32 -32 -72t32 -72t72 -32t72 32q30 31 30 72t-31 72t-69 31z
M510 817q-124 0 -216 -89t-92 -216t92 -219q90 -91 218 -91t216 91q90 92 90 219t-89 216t-219 89zM2048 716v515q0 82 -60 142t-142 60h-722v-202h722v-515h-722v-206h722q82 0 142 60t60 146z" />
</svg>