<svg xmlns="http://www.w3.org/2000/svg" xmlns:xlink="http://www.w3.org/1999/xlink" version="1.1" viewBox="-10 0 2058 2048">
   <path fill="currentColor"
d="M1368 1558q40 0 68 28t28 68t-28 71q-28 30 -69 30t-71 -30t-30 -71t30 -68q32 -28 72 -28zM1368 1266q-198 0 -357 107t-229 281q70 176 228 284q162 110 357.5 110t354.5 -110q155 -108 230 -284q-74 -174 -230 -281q-157 -107 -354 -107zM1368 1901q-102 0 -175 -73
t-73 -174t74 -171q74 -71 174 -71t171 71t71 171t-72 174q-70 73 -170 73zM614 1755h-320v-1563h680v489h490v397q91 9 196 46v-539l-586 -585h-780q-84 0 -141 57t-57 135v1563q0 78 57 135t141 57h438q-74 -84 -118 -192z" />
</svg>