<svg xmlns="http://www.w3.org/2000/svg" xmlns:xlink="http://www.w3.org/1999/xlink" version="1.1" viewBox="-10 0 2068 2048">
   <path fill="currentColor"
d="M710 1659h-518q-76 0 -134 -57q-58 -58 -58 -140v-1170q0 -81 58 -139q58 -57 134 -57h586l196 196h782q78 0 135 57t57 140v640q-96 -65 -192 -105v-535h-1564v973h518q0 4 -6 14q-4 8 -4 14l-36 68l26 69zM2048 1558q-70 176 -230 284q-163 110 -358 110
q-193 0 -356 -110q-161 -109 -226 -284q65 -169 226 -278q163 -110 356 -110q195 0 358 110q161 109 230 278zM1706 1558q0 -100 -71 -171t-175 -71q-102 0 -173 71t-71 174q0 102 71 173t173 71q104 0 175 -71t71 -176zM1464 1462q-46 0 -74 28t-28 71t28 71q28 27 70 27
q44 0 72 -27q28 -28 28 -71t-28 -71t-68 -28z" />
</svg>