<svg xmlns="http://www.w3.org/2000/svg" xmlns:xlink="http://www.w3.org/1999/xlink" version="1.1" viewBox="-10 0 2068 2048">
   <path fill="currentColor"
d="M0 1587h1538v307h-1538v-307zM1894 1587h154v307h-154v-307zM1638 1587h154v307h-154v-307zM1726 740q100 -101 100 -242q0 -142 -98 -243q-100 -101 -244 -101v154q78 0 133 55t55 132q0 79 -54 135q-57 58 -134 58v153q174 0 292 121t118 293v231h154v-231
q0 -168 -90 -308q-88 -139 -232 -207zM1436 995h-158q-72 0 -130 -65q-58 -66 -58 -141q0 -77 56 -128q55 -50 132 -50v-154q-140 0 -240 98q-100 99 -100 243t101 245t239 101h158q88 0 146 56q56 55 56 151v135h154v-169q0 -138 -106 -230q-105 -92 -250 -92z" />
</svg>