<svg xmlns="http://www.w3.org/2000/svg" xmlns:xlink="http://www.w3.org/1999/xlink" version="1.1" viewBox="-10 0 2068 2048">
   <path fill="currentColor"
d="M1024 1793l76 -308q-250 -20 -452 -115q-200 -95 -264 -236q-20 83 -42 125q-49 82 -144 106q-64 15 -198 15q77 0 116 -106q38 -89 38 -253q0 -163 -38 -252q-39 -106 -116 -106q134 0 198 15q96 24 144 105q23 42 42 130q48 -110 184 -194q136 -85 316 -128l-168 -336
q217 0 298 4q158 15 250 63q78 40 140 115q48 58 100 164q236 53 384 168q160 115 160 255q0 139 -164 259q-161 112 -400 164q-158 210 -240 274q-54 46 -114 62q-44 10 -106 10zM1538 870q-42 0 -74 29q-32 28 -32 72t32 72q32 29 74 29t71 -29t29 -72t-29 -72t-71 -29z
" />
</svg>