<svg xmlns="http://www.w3.org/2000/svg" xmlns:xlink="http://www.w3.org/1999/xlink" version="1.1" viewBox="-10 0 2068 2048">
   <path fill="currentColor"
d="M1150 258v1532h256v-90q78 90 192 90h66q156 0 270 -114t114 -270v-382q0 -156 -114 -270t-270 -114h-66q-114 0 -192 90v-472h-256zM132 640v258h384q52 0 88 36t36 90h-256q-156 0 -270 114q-114 112 -114 268q0 158 114 270q114 114 270 114h514v-766
q0 -156 -114 -270t-268 -114h-384zM1532 898h132q54 0 90 36t36 90v382q0 54 -36 90t-90 36h-132q-54 0 -90 -36t-36 -90v-382q0 -54 36 -90t90 -36zM384 1282h256v250h-256q-54 0 -90 -36t-36 -90q0 -52 36 -88t90 -36z" />
</svg>