<svg xmlns="http://www.w3.org/2000/svg" xmlns:xlink="http://www.w3.org/1999/xlink" version="1.1" viewBox="-10 0 2068 2048">
   <path fill="currentColor"
d="M1170 1558h100q42 0 69 30t27 71h74l-270 -270v169zM2048 1659v114l-114 -114h114zM1952 1924l-124 124l-196 -197h-266q0 41 -27 71t-69 30h-392q-42 0 -68 -30q-28 -31 -28 -71h-682v-192h682q0 -40 28 -71q26 -30 68 -30h100v-192h-686q-41 0 -68 -29q-28 -31 -28 -71
v-389q0 -40 28 -68t68 -28h270l-196 -196h-74q-40 0 -68 -28t-28 -68v-73l-196 -197l128 -123zM292 0h1564q42 0 69 27t27 69v393q0 41 -28 68q-28 28 -68 28h-996l-274 -275v-114h-114l-192 -196h12zM1856 781q40 0 68 28q28 27 28 68v389q0 41 -28 71q-26 29 -68 29h-216
l-584 -585h800zM782 388h96v-192h-96v192zM782 1170h96v-73l-96 -96v169zM394 973v197h192v-197h-192z" />
</svg>