<svg xmlns="http://www.w3.org/2000/svg" xmlns:xlink="http://www.w3.org/1999/xlink" version="1.1" viewBox="-11 0 2069 2048">
   <path fill="currentColor"
d="M717 1423q-164 -15 -294 -74q-132 -60 -218 -161q-62 0 -115 -36t-77 -96q-24 -59 -4 -117q20 -57 76 -96q5 -234 199 -448q193 -212 505 -321q310 -108 603 -55q292 53 450 230q63 0 115 36q53 37 77 96q24 61 5 117q-19 57 -77 96q0 124 -62 249q-204 -124 -417 -124
q-196 0 -366 93t-278 254q-107 159 -122 357zM2043 1485q0 150 -76 278q-76 129 -206 206t-278 77q-147 0 -277 -77q-129 -77 -206 -206q-77 -130 -77 -278t77 -278q77 -129 206 -206q128 -76 277 -76q150 0 278 76q130 77 206 206q76 128 76 278zM1158 1638l234 -153
l-234 -153q-34 79 -34 153t34 153zM1431 1576l-211 144q72 85 211 124v-268zM1431 1135q-62 9 -120 41t-91 84l211 144v-269zM1536 1394l211 -144q-71 -85 -211 -124v268zM1747 1720l-211 -144v259q62 -9 120 -38t91 -77zM1842 1485q0 -76 -33 -153l-235 153l235 153
q33 -76 33 -153z" />
</svg>