<svg xmlns="http://www.w3.org/2000/svg" xmlns:xlink="http://www.w3.org/1999/xlink" version="1.1" viewBox="-10 0 2068 2048">
   <path fill="currentColor"
d="M1014 414q-234 0 -450 72q-214 72 -396 210l-168 -224q214 -162 474 -252q257 -88 539.5 -88t538.5 88q259 89 474 252l-168 224q-181 -138 -396 -210q-216 -72 -448 -72zM1466 1110q39 -16 102 -30l124 -160q-146 -105 -320 -164q-174 -60 -358.5 -60t-359.5 60
q-173 59 -318 164l172 226q224 -168 506 -168q248 0 452 132zM1014 1260q-188 0 -340 114l340 450l96 -132q-4 -20 -4 -58q0 -183 114 -334q-107 -40 -206 -40zM2048 1634l-282 -282v190h-378v190h378v184z" />
</svg>