<svg xmlns="http://www.w3.org/2000/svg" xmlns:xlink="http://www.w3.org/1999/xlink" version="1.1" viewBox="-10 0 2068 2048">
   <path fill="currentColor"
d="M1822 1375q72 -168 72 -351t-72 -351l-280 130q44 105 44 221t-44 221zM1374 226q-168 -72 -351 -72t-351 72l130 279q107 -44 222 -44q113 0 226 44zM226 673q-72 168 -72 351t72 351l278 -130q-42 -105 -42 -221t42 -226zM672 1822q168 72 351 72t351 -72l-124 -279
q-110 43 -226 43q-118 0 -222 -43zM1024 0q200 0 392 77q188 76 333.5 221t220.5 334q78 192 78 392t-78 392q-75 189 -220.5 334t-333.5 221q-192 77 -392 77t-392 -77q-188 -76 -333.5 -221t-220.5 -334q-78 -192 -78 -392t78 -392q75 -189 220.5 -334t333.5 -221
q192 -77 392 -77zM1024 615q-168 0 -288 121q-120 120 -120 288t120 288q120 121 287 121t288 -121t121 -288t-121 -288t-287 -121z" />
</svg>