<svg xmlns="http://www.w3.org/2000/svg" xmlns:xlink="http://www.w3.org/1999/xlink" version="1.1" viewBox="-10 0 2068 2048">
   <path fill="currentColor"
d="M1366 229h228v-229h-228v229zM1366 1136h228v-224h-228v224zM1818 2048h230v-229h-230v229zM1818 1136h230v-224h-230v224zM1818 229h230v-229h-230v229zM1818 1595h230v-230h-230v230zM1366 2048h228v-229h-228v229zM1818 683h230v-230h-230v230zM0 2048h230v-2048h-230
v2048zM454 1136h230v-224h-230v224zM454 229h230v-229h-230v229zM454 2048h230v-229h-230v229zM912 1136h224v-224h-224v224zM912 683h224v-230h-224v230zM912 229h224v-229h-224v229zM912 1595h224v-230h-224v230zM912 2048h224v-229h-224v229z" />
</svg>