<svg xmlns="http://www.w3.org/2000/svg" xmlns:xlink="http://www.w3.org/1999/xlink" version="1.1" viewBox="-10 0 2068 2048">
   <path fill="currentColor"
d="M0 48h188v649h650v-557h836q156 0 266 109q108 108 108 261v1490h-188v-187h-1672v187h-188v-1952zM1024 327v370h836v-187q0 -74 -54 -128q-54 -55 -132 -55h-650zM188 885v741h650v-558h836q104 0 186 57v-240h-1672zM514 1068q98 0 165 67t67 166t-67 166t-167 67
q-98 0 -164 -67q-68 -68 -68 -166t68 -166q66 -67 166 -67zM514 1216q-34 0 -60 26t-26 61t26 59q25 24 60 24q36 0 60 -24t24 -59t-24 -61q-25 -26 -60 -26zM1024 1255v371h836v-183q0 -79 -54 -133q-54 -55 -132 -55h-650zM514 140q98 0 165 67t67 166q0 98 -68 165
q-68 68 -166 68q-96 0 -164 -68t-68 -165q0 -98 68 -166q66 -67 166 -67zM514 288q-35 0 -60 24q-26 24 -26 59t26 61t60 26q35 0 60 -26q24 -26 24 -61t-24 -59t-60 -24z" />
</svg>