<svg xmlns="http://www.w3.org/2000/svg" xmlns:xlink="http://www.w3.org/1999/xlink" version="1.1" viewBox="-10 0 2058 2048">
   <path fill="currentColor"
d="M1639 0h-615v716l-255 -154l-259 154v-716h-101q-86 0 -146 60q-61 61 -61 142v1644q0 81 61 142q60 60 146 60h1230q87 0 147 -60t60 -142v-1644q0 -82 -60 -142t-147 -60zM1231 1024q60 0 113 34q49 32 74 91q24 57 12 120t-55 106t-106 55t-120 -12q-59 -25 -91 -74
q-34 -53 -34 -113q0 -87 60 -147t147 -60zM1639 1846h-821v-106q0 -92 153 -154q129 -48 257 -48t257 48q154 63 154 154v106z" />
</svg>