<svg xmlns="http://www.w3.org/2000/svg" xmlns:xlink="http://www.w3.org/1999/xlink" version="1.1" viewBox="-10 0 2068 2048">
   <path fill="currentColor"
d="M1024 326q-338 0 -618 192q-280 194 -406 506q126 313 406 506q280 192 618 192h100q-8 -48 -8 -96q0 -49 8 -102h-100q-261 5 -482 -130q-224 -136 -336 -370q111 -233 336 -374q222 -140 482.5 -140t483.5 140q224 141 336 374l-40 66q98 18 178 74q40 -68 66 -140
q-126 -313 -406 -506q-278 -192 -618 -192zM1024 744q-116 0 -197 81t-81 199t80 198t198 80t198 -80q82 -81 83.5 -198.5t-81.5 -199.5q-83 -84 -200 -80zM1304 1534v188h744v-188h-744z" />
</svg>