<svg xmlns="http://www.w3.org/2000/svg" xmlns:xlink="http://www.w3.org/1999/xlink" version="1.1" viewBox="-10 0 2068 2048">
   <path fill="currentColor"
d="M1024 1586q178 0 319 -98t205 -257h-1048q62 158 204 257q142 98 320 98zM664 923q65 0 110 -46q44 -46 44 -110t-44 -108t-108 -44q-65 0 -110 44q-46 44 -46 108t46 110t108 46zM1384 923q62 0 108 -46q46 -45 46 -110t-46 -108q-45 -44 -110 -44q-64 0 -108 44
q-44 43 -44 108q0 66 44 110q44 46 110 46zM1024 1846q-221 0 -412 -111q-189 -110 -300 -300q-110 -191 -110 -411t110 -411q112 -191 300.5 -301t411 -110t411 110t299.5 301q112 191 112 411t-112 411q-110 190 -300 300q-190 111 -410 111zM1024 0q-278 0 -514 137
q-235 136 -372 373q-138 236 -138 514q0 200 78 392q75 189 220.5 334t333.5 221q192 77 392 77t392 -77q188 -76 333.5 -221t220.5 -334q78 -192 78 -392t-78 -392q-75 -189 -220.5 -334t-333.5 -221q-192 -77 -392 -77z" />
</svg>