<svg xmlns="http://www.w3.org/2000/svg" xmlns:xlink="http://www.w3.org/1999/xlink" version="1.1" viewBox="-10 0 2068 2048">
   <path fill="currentColor"
d="M1692 1024q148 0 252 -106q104 -107 104 -255q0 -176 -90 -331q-88 -154 -242 -243q-156 -89 -332 -89q-150 0 -254 103q-106 104 -106 253q0 -149 -106 -253q-105 -103 -254 -103q-177 0 -332 89q-154 88 -243 243t-89 331q0 149 103.5 255t252.5 106q-149 0 -252.5 106
t-103.5 255q0 176 89 331t243 243q155 89 332 89q149 0 254 -103q106 -104 106 -253q0 149 106 253q104 103 254 103q176 0 332 -89q154 -89 242 -243q90 -155 90 -331q0 -148 -104 -255q-104 -106 -252 -106zM1024 1433q-168 0 -288 -121q-120 -120 -120 -288t120 -288
q120 -121 287 -121t288 121t121 288t-121 288t-287 121zM1278 1024q0 105 -75 180t-180 75t-180 -75t-75 -180t75 -180t180 -75t180 75t75 180z" />
</svg>