<svg xmlns="http://www.w3.org/2000/svg" xmlns:xlink="http://www.w3.org/1999/xlink" version="1.1" viewBox="-10 0 2058 2048">
   <path fill="currentColor"
d="M2000 1906l-118 117l-296 -292q-43 85 -118 153q-110 105 -250 144t-290 4q-158 -30 -277 -139q-121 -111 -170 -262q-49 -153 -15 -316q34 -164 152 -290q27 -27 27 -61q0 -33 -27 -57q-91 -113 -113 -261l-457 -458l117 -118zM1364 1727q56 -61 82 -135l-226 -227
q-26 31 -66 31q-37 0 -67 -27q-28 -25 -28 -67q0 -43 34 -68l-261 -261q-4 109 -81 187q-76 77 -100 188q-24 109 9 215q34 109 115 186q83 78 192 102t216 -9q108 -34 181 -115zM1246 1491q-57 0 -81 46q-12 23 -12 46t12 46q24 46 81 46q56 0 78 -46t0 -92t-78 -46z
M584 253l143 144q34 -73 101 -126q101 -83 231 -83h82q81 18 148 74q122 96 140 249q18 151 -79 274q-60 72 -65 170l362 362q-35 -163 -148 -288q-28 -25 -29 -59q-2 -39 20 -63l30 -48q39 -62 61 -126q35 -93 35 -175q0 -101 -61 -226q-74 -141 -187 -227
q-140 -105 -309 -105q-123 0 -231 40q-82 30 -144 87q-50 40 -79 87zM1059 1491q0 -56 -46 -80t-94 0t-48 80t48 79q48 22 94 0t46 -79zM1150 375q-56 0 -78 46t0 92q22 45 78 45q58 0 81 -45q24 -46 0 -92t-81 -46z" />
</svg>