<svg xmlns="http://www.w3.org/2000/svg" xmlns:xlink="http://www.w3.org/1999/xlink" version="1.1" viewBox="-10 0 2058 2048">
   <path fill="currentColor"
d="M334 288l138 137q150 -150 352 -203q200 -52 402 0q201 53 352 203l136 -137q-187 -191 -438 -256q-252 -64 -504 0q-250 64 -438 256zM612 562l138 137q114 -114 274 -114t274 114l138 -137q-110 -114 -262 -153q-150 -39 -300 0q-152 39 -262 153zM1706 1271
q-42 0 -69 -30t-27 -71t26 -68q28 -28 70 -28q38 0 70 28q30 27 30 68t-30 71t-70 30zM1412 1856h-776v-489h776v489zM1706 878h-1362q-124 0 -208 87q-86 88 -86 205v489h390v389h1170v-389h388v-489q0 -117 -86 -205q-84 -87 -206 -87z" />
</svg>