<svg xmlns="http://www.w3.org/2000/svg" xmlns:xlink="http://www.w3.org/1999/xlink" version="1.1" viewBox="-10 0 2068 2048">
   <path fill="currentColor"
d="M1042 722l-184 -186h258q78 0 133 55t55 131v262l-188 -186v-76h-74zM2048 722v-186h-374q-74 0 -130 54q-54 54 -54 132v188q0 74 54 128q56 56 130 56h186v186h-260l186 188h74q78 0 134 -54q54 -54 54 -134v-186q0 -76 -54 -130t-134 -54h-186v-188h374zM1960 1886
l-116 118l-598 -592q-56 56 -130 56h-370v-566l-188 -188v754h-182v-374h-188v374h-188v-746q0 -76 55 -131t133 -55h196l-374 -370l122 -122zM376 722h-188v188h188v-188zM1116 1272l-182 -188v196h182v-8z" />
</svg>