<svg xmlns="http://www.w3.org/2000/svg" xmlns:xlink="http://www.w3.org/1999/xlink" version="1.1" viewBox="-10 0 2068 2048">
   <path fill="currentColor"
d="M1947 968l-265 -155q91 -77 103 -183q12 -104 -46 -197q-56 -90 -158 -125q-101 -34 -210 16l-87 36l-9 -96q-13 -145 -137 -224q-80 -46 -176 -39q-98 8 -173 69q-76 63 -94 176l-265 -156q-74 -40 -151 -20q-78 22 -114 94l-101 164q-18 37 -9 76q9 38 46 61l758 439
l147 -256l169 101l-146 251l758 439q36 18 75 9.5t62 -46.5l96 -169q41 -70 21 -146q-21 -78 -94 -119zM1010 392q-42 10 -75 -11q-34 -20 -46 -57t9 -74q21 -36 60 -48q38 -11 75 10q38 22 46 59q9 39 -9 75q-18 37 -60 46zM1517 685q-40 9 -75 -12q-34 -20 -46 -57
q-12 -35 10 -73q21 -36 59 -48q39 -12 75 9q37 22 46 60q9 41 -11 75q-21 37 -58 46zM1837 1549q58 0 110 -37v343q0 78 -57 135t-135 57h-1563q-77 0 -134 -57q-58 -58 -58 -135v-878h796l82 46v832h192v-718l671 384q42 28 96 28z" />
</svg>