<svg xmlns="http://www.w3.org/2000/svg" xmlns:xlink="http://www.w3.org/1999/xlink" version="1.1" viewBox="-10 0 2068 2048">
   <path fill="currentColor"
d="M192 1024q0 -130 94 -224q94 -93 224 -93h412v-197h-412q-140 0 -258 69q-117 69 -184 188q-68 118 -68 257t68 257q67 119 184 188q118 69 258 69h412v-197h-412q-130 0 -224 -93q-94 -94 -94 -224zM616 1125h816v-202h-816v202zM1538 510h-414v197h414q130 0 223 93
t93 224t-93 224t-223 93h-414v197h414q140 0 256 -69q118 -69 186 -188t68 -257t-68 -257t-186 -188q-116 -69 -256 -69z" />
</svg>