<svg xmlns="http://www.w3.org/2000/svg" xmlns:xlink="http://www.w3.org/1999/xlink" version="1.1" viewBox="-10 0 2058 2048">
   <path fill="currentColor"
d="M1348 1830h218v218h-218v-218zM918 1830h212v218h-212v-218zM484 1830h216v218h-216v-218zM272 647l162 -486h1182l162 486h-1506zM1616 1183q-64 0 -114 -46q-48 -45 -48 -113q0 -69 48 -117t116 -48q70 0 115 48t45 117q0 68 -46 113q-46 46 -116 46zM434 1183
q-72 0 -118 -46q-44 -45 -44 -113q0 -69 45 -117t113 -48t116 48t48 117q0 68 -48 113q-49 46 -112 46zM1772 106q-19 -45 -60 -76q-41 -30 -96 -30h-1182q-56 0 -96 30q-42 31 -62 76l-222 647v865q0 45 30 76q30 30 76 30h112q46 0 76 -30t30 -76v-111h1294v111
q0 46 30 76t76 30h110q46 0 76 -30t30 -76v-865z" />
</svg>