<svg xmlns="http://www.w3.org/2000/svg" xmlns:xlink="http://www.w3.org/1999/xlink" version="1.1" viewBox="-10 0 2058 2048">
   <path fill="currentColor"
d="M1254 1024h-460v-229h460v229zM1254 1477h-460v-224h460v224zM1936 571h-320q-80 -138 -208 -224l186 -187l-160 -160l-250 245q-77 -16 -159.5 -16t-160.5 16l-250 -245l-160 160l186 187q-128 86 -208 224h-320v224h240q-10 72 -10 117v112h-230v229h230v112
q0 44 10 112h-240v230h320q91 155 248 248q158 93 344 93t344 -93q157 -93 248 -248h320v-230h-240q10 -68 10 -112v-112h230v-229h-230v-112q0 -45 -10 -117h240v-224z" />
</svg>