<svg xmlns="http://www.w3.org/2000/svg" xmlns:xlink="http://www.w3.org/1999/xlink" version="1.1" viewBox="-10 0 2058 2048">
   <path fill="currentColor"
d="M818 0q-198 0 -362 96q-162 95 -258 260q-96 164 -96 360q0 182 84 337q83 154 222 250v235q0 43 29 72t73 29h614q48 0 77 -29t29 -72v-235q140 -107 224 -260q84 -155 84 -327q0 -196 -96 -360q-97 -165 -262 -260q-167 -96 -362 -96zM510 1947q0 48 28 75q28 26 78 26
h408q48 0 74 -26t26 -75v-101h-614v101zM1740 1024v-514h206v615h-206v-101zM1740 1538v-206h206v206h-206z" />
</svg>