<svg xmlns="http://www.w3.org/2000/svg" xmlns:xlink="http://www.w3.org/1999/xlink" version="1.1" viewBox="-10 0 2063 2048">
   <path fill="currentColor"
d="M2043 1925l-1911 -1925l-127 127l727 729l-18 36q-109 209 -154 323q-78 191 -78 328v195q0 100 169 162q167 61 414 61q227 0 393 -54t189 -137l282 278zM1065 1292q-83 0 -139 -56q-57 -57 -57 -139q0 -27 23 -87l259 264q-59 18 -86 18zM705 177h-77v-145h873v145h-77
l-87 242h-59l-4 9q-23 80 -23 136q0 32 32 96q15 33 82 150q137 237 195 378l-682 -683q-14 -59 -27 -86h-59z" />
</svg>