<svg xmlns="http://www.w3.org/2000/svg" xmlns:xlink="http://www.w3.org/1999/xlink" version="1.1" viewBox="-10 0 2068 2048">
   <path fill="currentColor"
d="M1946 1332v-207h-206v207h-102v-207h-206v207h-308v-822h-326q-34 -68 -96 -111q-63 -43 -140 -43t-140 43q-62 43 -96 111h-18v-202h-206v202h-102v206h102v207h206v-207h18q34 73 96 113q64 41 140 41t140 -41q62 -40 96 -113h124v822h510v202h206v-202h102v202h206
v-202h102v-206h-102zM562 716q-42 0 -71 -29t-29 -72q0 -42 28 -74q29 -31 72.5 -31t71.5 31q30 32 30 74q0 43 -29 72t-73 29z" />
</svg>