<svg xmlns="http://www.w3.org/2000/svg" xmlns:xlink="http://www.w3.org/1999/xlink" version="1.1" viewBox="-10 0 2068 2048">
   <path fill="currentColor"
d="M1024 817q86 0 146 60t60 147q0 72 -48 135l322 889h-216l-264 -721l-264 721h-216l322 -889q-48 -63 -48 -135q0 -87 60 -147t146 -60zM1024 615q-168 0 -288 121q-120 120 -120 288q0 76 28 149l-92 245q-144 -173 -144 -394q0 -166 82 -310t224 -224
q142 -81 309.5 -81t310.5 81q141 80 222 224q82 144 82 310q0 221 -144 394l-90 -245q28 -73 28 -149q0 -167 -121 -288t-287 -121zM1024 202q-223 0 -411.5 110t-300.5 301q-110 191 -110 411q0 175 72 336q73 160 202 275l-78 201q-189 -141 -292 -353
q-106 -215 -106 -459q0 -200 78 -392q75 -189 220.5 -334t333.5 -221q192 -77 392 -77t392 77q188 76 333.5 221t220.5 334q78 192 78 392q0 242 -106 459q-104 212 -294 353l-76 -201q130 -117 202 -275q72 -159 72 -336q0 -220 -112 -411q-111 -191 -299.5 -301
t-410.5 -110z" />
</svg>