<svg xmlns="http://www.w3.org/2000/svg" xmlns:xlink="http://www.w3.org/1999/xlink" version="1.1" viewBox="-10 0 2065 2048">
   <path fill="currentColor"
d="M1844 0q-40 0 -72 28l-973 974l-264 360l-331 335l-28 -33q-34 -29 -75 -29q-40 0 -69 29t-29 72t29 72l206 206q29 34 70 34q39 0 71 -29t32 -72t-29 -77l-34 -29l331 -331l364 -263l974 -974q28 -28 28 -72t-28 -72l-101 -101q-32 -28 -72 -28zM1691 1122
q-106 0 -183 77q-76 76 -76 182q0 105 76 180q75 74 183 74q105 0 179 -74q75 -75 75 -180t-75 -182t-179 -77z" />
</svg>