<svg xmlns="http://www.w3.org/2000/svg" xmlns:xlink="http://www.w3.org/1999/xlink" version="1.1" viewBox="-10 0 2068 2048">
   <path fill="currentColor"
d="M1098 1696q0 -70 8 -98h-506v-201h-200v-797h200v-202h796v202h202v506q29 -9 98 -9q70 0 104 9v-506h196v-600h-600v197h-796v-197h-600v600h198v797h-198v599h600v-196h506q-8 -33 -8 -104zM1598 197h202v201h-202v-201zM198 197h202v201h-202v-201zM400 1800h-202
v-202h202v202zM2048 1490l-210 206l210 211l-140 141l-212 -211l-206 211l-140 -141l206 -211l-206 -206l140 -140l206 206l212 -206z" />
</svg>