<svg xmlns="http://www.w3.org/2000/svg" xmlns:xlink="http://www.w3.org/1999/xlink" version="1.1" viewBox="-10 0 2068 2048">
   <path fill="currentColor"
d="M1846 303h-328l-186 -202h-616l-188 202h-326q-82 0 -142 60t-60 147v1230q0 87 60 147t142 60h1644q82 0 142 -60t60 -147v-1230q0 -87 -60 -147t-142 -60zM1846 1740h-1644v-1230h418l188 -207h432l188 207h418v1230zM1024 611q-140 0 -258 69q-118 70 -186 188
q-70 120 -70 257t70 257q68 118 186 188q118 69 258 69t256 -69q120 -71 188 -188q70 -118 70 -257t-70 -257q-68 -117 -188 -188q-117 -69 -256 -69zM1024 1433q-130 0 -220 -89q-88 -88 -88 -219t88 -219q90 -89 220 -89t219 89t89 219t-89 219t-219 89z" />
</svg>