<svg xmlns="http://www.w3.org/2000/svg" xmlns:xlink="http://www.w3.org/1999/xlink" version="1.1" viewBox="-10 0 2068 2048">
   <path fill="currentColor"
d="M1024 202q222 0 410.5 110t299.5 301q112 191 112 411t-112 411q-110 190 -300 300q-190 111 -410.5 111t-411.5 -111q-189 -110 -300 -300q-110 -191 -110 -411t110 -411q112 -191 300.5 -301t411.5 -110zM1024 0q-278 0 -514 137q-235 136 -372 373q-138 236 -138 514
t138 514q137 237 372 373q236 137 513.5 137t514.5 -137q236 -137 372 -373q138 -236 138 -514t-138 -514q-136 -236 -372 -373q-237 -137 -514 -137zM1178 1485q0 -62 -46 -108q-46 -45 -109 -45t-107 45q-46 46 -46 108q0 63 46 109q44 45 107 45t109 -45q46 -46 46 -109z
M716 1024q0 -62 -46 -108t-108 -46t-108 46t-46 108t46 108t108 46t108 -46t46 -108zM1638 1024q0 -63 -44 -108q-46 -46 -110 -46q-62 0 -108 46q-44 45 -44 108t44 108q46 46 108 46q64 0 110 -46q44 -45 44 -108z" />
</svg>