<svg xmlns="http://www.w3.org/2000/svg" xmlns:xlink="http://www.w3.org/1999/xlink" version="1.1" viewBox="-10 0 2068 2048">
   <path fill="currentColor"
d="M562 0q-156 0 -284 74q-129 75 -204 205q-74 129 -74 283v53h202v-53q0 -146 106 -254q104 -106 254 -106q115 0 204 65q88 64 132 166q-63 -24 -130 -24q-106 0 -194 55q-88 56 -132 151l178 101q19 -44 58 -72q39 -29 90 -29q64 0 110 44q44 43 44 110v154h202v-154
q0 -66 46 -110t108 -44q52 0 92 29q38 28 58 72l178 -101q-43 -94 -134 -151q-87 -55 -194 -55q-66 0 -130 24q45 -102 132 -166q90 -65 204 -65q151 0 256 106q106 108 106 254v53h202v-53q0 -108 -44 -213q-45 -105 -122 -183q-80 -80 -184 -123q-102 -43 -214 -43
q-137 0 -260 65q-125 65 -200 175q-77 -111 -200 -175q-123 -65 -262 -65zM408 1024v207h144q39 86 108 154q66 64 158 105v250h-818l144 217q28 43 72 67t96 24h1422q53 0 96 -24q45 -24 72 -67l146 -217h-818v-250q90 -40 156 -105q70 -68 108 -154h144v-207h-1230z" />
</svg>