<svg xmlns="http://www.w3.org/2000/svg" xmlns:xlink="http://www.w3.org/1999/xlink" version="1.1" viewBox="-10 0 2058 2048">
   <path fill="currentColor"
d="M1244 197h-586v-197h586v197zM1048 1755q0 153 68 279q-86 14 -164 14q-238 0 -440 -117q-202 -118 -320 -320q-118 -205 -118 -441q0 -237 118 -439q119 -201 320 -320q201 -118 440 -118q152 0 292 52q142 53 256 144l136 -142q65 56 138 138l-138 141q91 112 142 254
q50 137 50 290v37q-103 -37 -196 -37q-155 0 -290 80q-134 79 -214 215t-80 290zM1048 585h-192v686h192v-686zM1860 1449l-346 352l-156 -155l-114 109l270 293l460 -462z" />
</svg>