<svg xmlns="http://www.w3.org/2000/svg" xmlns:xlink="http://www.w3.org/1999/xlink" version="1.1" viewBox="-10 0 2068 2048">
   <path fill="currentColor"
d="M2048 1925l-1924 -1925l-124 124l288 288q-202 262 -202 589q0 265 132 489q131 225 353.5 355t488.5 130q328 0 590 -201l274 274zM1060 1783q-210 0 -390 -105q-181 -105 -286 -286q-106 -180 -106 -391q0 -244 148 -452l140 141q-90 146 -90 311q0 187 110 339l68 -69
q-82 -122 -82 -270q0 -124 64 -237l72 73q-36 80 -36 164q0 106 54 197l70 -69q-28 -67 -28 -128q0 -43 18 -91l366 366q-46 18 -92 18q-61 0 -124 -28l-72 69q90 55 196 55q84 0 164 -37l74 73q-114 64 -238 64q-147 0 -270 -82l-68 69q151 109 338 109q166 0 310 -91
l142 142q-204 146 -452 146zM1060 613q106 0 196 55l-68 68q-53 -19 -104 -23l-92 -96q27 -4 68 -4zM1348 978q-4 -58 -22 -100l68 -73q54 91 54 196q0 41 -4 69zM1330 594q-123 -82 -270 -82q-74 0 -150 28l-74 -74q103 -50 224 -50q186 0 338 110zM690 320l-146 -146
q235 -146 516 -146q267 0 490 130t354 354q130 223 130 489q0 279 -146 517l-146 -142q100 -173 100 -379q0 -207 -106 -387q-104 -179 -286 -285q-180 -105 -386 -105q-205 0 -374 100zM1522 1152q28 -76 28 -151q0 -145 -84 -269l70 -69q110 152 110 338q0 115 -52 224z
" />
</svg>