<svg xmlns="http://www.w3.org/2000/svg" xmlns:xlink="http://www.w3.org/1999/xlink" version="1.1" viewBox="-10 0 2068 2048">
   <path fill="currentColor"
d="M202 101q-82 0 -142 60t-60 147v408q0 87 60 147t142 60h414q80 0 140 -60q62 -61 62 -147v-408q0 -86 -62 -147q-60 -60 -140 -60h-414zM634 255l110 106l-412 408l-260 -264l110 -106l154 154zM202 1125q-82 0 -142 60t-60 147v408q0 87 60 147t142 60h414
q80 0 140 -60q62 -61 62 -147v-408q0 -86 -62 -147q-60 -60 -140 -60h-414zM202 1332h414v408h-414v-408zM1024 308h1024v202h-1024v-202zM1024 1740v-202h1024v202h-1024zM1024 923h1024v202h-1024v-202z" />
</svg>