<svg xmlns="http://www.w3.org/2000/svg" xmlns:xlink="http://www.w3.org/1999/xlink" version="1.1" viewBox="-10 0 2058 2048">
   <path fill="currentColor"
d="M1447 238q-100 -11 -173 52q-74 63 -80 162l-33 336h330v236h-352l-49 593q-17 193 -165 319q-149 126 -340 110q-113 -10 -209 -69q-94 -57 -154 -151l176 -176q23 68 77 110q56 44 126 50q100 11 173 -52q74 -63 80 -163l55 -571h-352v-236h368l33 -358
q16 -192 165 -318t340 -110q113 10 209 69q94 57 154 151l-176 175q-23 -66 -77 -109q-56 -44 -126 -50z" />
</svg>