<svg xmlns="http://www.w3.org/2000/svg" xmlns:xlink="http://www.w3.org/1999/xlink" version="1.1" viewBox="-10 0 2068 2048">
   <path fill="currentColor"
d="M1952 1024v744q0 74 -55 129t-127 55h-1490q-74 0 -129 -55t-55 -129v-744q-37 0 -66.5 -26t-29.5 -66v-278q0 -78 56 -134q54 -54 132 -54h296q-18 -43 -18 -92q0 -116 81 -197t199 -81q68 0 128 30q59 31 98 84l52 68l52 -68q40 -53 98 -84q61 -30 130 -30
q116 0 198 80q80 80 80 198q0 51 -18 92h296q80 0 134 54t54 134v278q0 40 -28 66q-30 26 -68 26zM280 1768h654v-744h-654v744zM1770 1768v-744h-654v744h654zM746 278q-40 0 -66 29.5t-26 66.5q0 40 26 66q28 26 66 26t66 -26q26 -26 26 -66q0 -37 -26 -66.5t-66 -29.5z
M1304 278q-41 0 -66.5 29.5t-25.5 66.5q0 40 26 66t66 26q38 0 64 -26t26 -66q0 -37 -25.5 -66.5t-64.5 -29.5zM188 654v182h746v-182h-746zM1116 654v182h744v-182h-744z" />
</svg>