<svg xmlns="http://www.w3.org/2000/svg" xmlns:xlink="http://www.w3.org/1999/xlink" version="1.1" viewBox="-10 0 2068 2048">
   <path fill="currentColor"
d="M818 1740q-46 0 -74 -26q-28 -27 -28 -75v-101q0 -43 28.5 -74t73.5 -31q43 0 73.5 28t30.5 77v101q0 48 -28 75q-28 26 -76 26zM1332 1639v-101q0 -42 -30 -74q-28 -31 -72 -31t-75 28t-31 77v101q0 38 30 70q28 31 76 31q45 0 72 -26q30 -27 30 -75zM2048 1024
q0 197 -112 368q-111 172 -298 291v163q0 82 -60 142t-146 60h-816q-88 0 -148 -60t-60 -142v-163q-186 -119 -298 -291q-110 -169 -110 -370q0 -198 78 -390q75 -189 220.5 -334t333.5 -221q192 -77 392 -77t392 77q188 76 333.5 221t220.5 334q78 192 78 392zM510 817
q0 -81 -42 -154q-39 -70 -112 -110q-154 196 -154 471q0 69 10 101q122 -4 210 -94q88 -89 88 -214zM716 716q0 131 88 219q90 89 220 89t219 -89t89 -219q0 -129 -89 -218t-219 -89t-220 89q-88 88 -88 218zM1432 1846v-461q-204 -53 -408 -53t-408 53v461h816zM1836 1125
q10 -32 10 -101q0 -275 -154 -471q-74 40 -114 110q-40 73 -40 154q0 125 86 214q89 90 212 94z" />
</svg>