<svg xmlns="http://www.w3.org/2000/svg" xmlns:xlink="http://www.w3.org/1999/xlink" version="1.1" viewBox="-10 0 2058 2048">
   <path fill="currentColor"
d="M390 0q-76 4 -132 65t-56 137v1644q0 76 63 139t144 63h1230q81 0 144 -63t63 -139v-1644q0 -82 -60 -142t-147 -60h-615v716l-255 -154l-259 154v-716h-120zM1024 1125h101q44 0 75 31t31 75v408h-106v-206h-101v206h-101v-408q0 -43 29 -75q28 -31 72 -31zM1024 1231
v101h101v-101h-101zM1332 1332h307v101l-206 307h206v106h-307v-106l206 -307h-206v-101z" />
</svg>