<svg xmlns="http://www.w3.org/2000/svg" xmlns:xlink="http://www.w3.org/1999/xlink" version="1.1" viewBox="-10 0 2058 2048">
   <path fill="currentColor"
d="M982 1846h-726l614 -615l192 192q101 -159 260 -236l164 -163v111q69 -10 102 -10q34 0 104 10v-520l-614 -615h-822q-86 0 -146 60q-62 61 -62 142v1644q0 81 62 142q60 60 146 60h802q-57 -97 -76 -202zM972 154l566 562h-566v-562zM462 716q82 0 142 60q60 61 60 145
q0 83 -60 144q-60 60 -144 60t-144 -60t-60 -144q0 -85 60 -145t146 -60zM2000 1639v207h-822v-207h822z" />
</svg>