<svg xmlns="http://www.w3.org/2000/svg" xmlns:xlink="http://www.w3.org/1999/xlink" version="1.1" viewBox="-10 0 2068 2048">
   <path fill="currentColor"
d="M1860 700q-64 0 -112 34q-47 34 -66 90q-18 54 0 106l-330 336q-48 -18 -96 0l-240 -244q18 -48 0 -102t-64 -92q-45 -38 -110 -38t-114 38q-48 38 -66 92t0 102l-426 418q-81 -22 -158.5 32.5t-77.5 155.5q0 78 56 132q54 54 132 54q62 0 109.5 -37t66.5 -91
q20 -54 2 -106l418 -428q44 19 92 0l240 244q-14 48 6 104q20 53 67.5 90.5t114.5 37.5q65 0 112 -38q47 -36 65.5 -90.5t0.5 -103.5l330 -334q82 22 160 -32q76 -52 76 -148q0 -74 -54 -128t-134 -54zM1304 790l82 -196l196 -82l-196 -82l-82 -196l-84 196l-196 82l196 82z
M236 978l44 -188l186 -46l-186 -44l-44 -188l-48 188l-188 44l188 46z" />
</svg>