<svg xmlns="http://www.w3.org/2000/svg" xmlns:xlink="http://www.w3.org/1999/xlink" version="1.1" viewBox="-10 0 2068 2048">
   <path fill="currentColor"
d="M750 742h-182v-278h182v-182h-182v-92q0 -80 52 -134t130 -54h558v650l226 -140l236 140v-650h90q76 0 132 56t56 132v1298q0 70 -56 126q-58 58 -132 58h-1110q-74 0 -128 -57t-54 -127v-96h182v-182h-182v-280h182v-188zM0 1580h188v-280h-188v-186h188v-280h-188v-182
h188v-280h188v280h-188v182h188v280h-188v186h188v280h-188v186h188v92h1484v188h-1484q-80 0 -134 -54t-54 -134v-92h-188v-186z" />
</svg>