<svg xmlns="http://www.w3.org/2000/svg" xmlns:xlink="http://www.w3.org/1999/xlink" version="1.1" viewBox="-10 0 2068 2048">
   <path fill="currentColor"
d="M1852 1512q82 0 139 57t57 135l-780 292l-684 -192v-876h192l706 260q78 31 78 110q0 46 -34 80t-86 34h-272l-170 -64l-32 90l202 74h684zM1460 170q104 -118 264 -118q132 0 222 96q92 95 96 224q0 99 -96 238q-99 144 -190 234q-112 108 -296 276q-202 -184 -298 -276
q-91 -90 -190 -234q-96 -139 -96 -238q0 -133 96 -224q94 -91 228 -96q155 0 260 118zM0 928h392v1068h-392v-1068z" />
</svg>