<svg xmlns="http://www.w3.org/2000/svg" xmlns:xlink="http://www.w3.org/1999/xlink" version="1.1" viewBox="-10 0 2068 2048">
   <path fill="currentColor"
d="M1220 910q24 215 -28 322q-20 39 -58 62q-38 24 -100 24q-65 0 -112 -38q-21 -21 -38 -53q-14 -28 -14 -53h-182q0 54 30 113q33 62 74 99q72 68 178 84q105 17 208 -17q100 -33 158 -106q100 -131 100 -322t-100 -322q-64 -76 -164 -108q-101 -31 -206 -15
q-106 17 -178 84q-47 43 -74 104q-26 58 -26 132h182q0 -62 48 -115t120 -53q106 0 154 86q20 45 28 92zM1024 1q-278 0 -514 137q-235 136 -372 373q-138 237 -138 514q16 392 226 654q191 240 500 327q298 81 596 0q308 -87 500 -327q210 -263 226 -654q0 -277 -138 -514
q-136 -236 -372 -373q-237 -137 -514 -137zM202 1025q14 -312 188 -524q155 -188 394 -257q240 -69 480 0q238 69 394 257q173 212 188 524q0 221 -112 411q-110 190 -300 300q-190 111 -410.5 111t-411.5 -111q-189 -110 -300 -300q-110 -190 -110 -411z" />
</svg>