<svg xmlns="http://www.w3.org/2000/svg" xmlns:xlink="http://www.w3.org/1999/xlink" version="1.1" viewBox="-10 0 2068 2048">
   <path fill="currentColor"
d="M790 421l-172 -174q205 -123 442 -123l28 4q27 5 46 23q22 28 22 69v196h100l24 5q32 5 46 23q26 27 26 68v101h198h22q32 9 46 27q28 28 28 69v96h196l32 9q36 9 50 41q14 72 14 146q0 239 -124 444l-174 -174l6 -27q0 -59 -44 -103t-104 -44l-22 5l-516 -517l4 -23
q0 -58 -44 -102t-102 -44zM2048 1925l-124 123l-342 -343q-233 174 -522 174q-237 0 -438 -119q-202 -119 -320 -320q-120 -202 -120 -439q0 -289 174 -521l-356 -356l124 -124zM672 951q0 -60 -43 -103t-105 -43q-63 0 -104 43q-40 44 -40 105q0 62 41 103t103 41
q60 0 104 -41q44 -40 44 -105zM864 1052q0 58 44 102t102 44q28 0 50 -9l-188 -188q-8 23 -8 51zM1110 1536q0 -60 -43 -103t-105 -43t-102 43q-42 44 -42 105q0 62 41 103t103 41q61 0 106 -41q42 -40 42 -105z" />
</svg>