<svg xmlns="http://www.w3.org/2000/svg" xmlns:xlink="http://www.w3.org/1999/xlink" version="1.1" viewBox="-10 0 2068 2048">
   <path fill="currentColor"
d="M912 1595q0 48 32 80t80 32t80 -32t32 -80t-31.5 -83t-80 -35t-80.5 35t-32 83zM912 0v453h224v-218q192 31 350 141q156 109 244 280q88 170 88 368q0 218 -106 400q-107 182 -288 288q-183 107 -400 107t-400 -107q-181 -106 -288 -288q-106 -182 -106 -400
q0 -281 176 -501l618 613l160 -160l-772 -773v5q-192 138 -302 355q-110 215 -110 461q0 276 140 512q138 235 372 373q236 139 512 139t512 -139t374 -373t138 -512t-138 -512t-374 -373t-512 -139h-112zM1706 1024q0 -48 -32 -80t-79.5 -32t-82.5 32q-34 31 -34 80t34 80
q35 32 82.5 32t79.5 -32t32 -80zM342 1024q0 48 32 80t79.5 32t83 -32t35.5 -80t-35.5 -80t-83 -32t-79.5 32t-32 80z" />
</svg>