<svg xmlns="http://www.w3.org/2000/svg" xmlns:xlink="http://www.w3.org/1999/xlink" version="1.1" viewBox="-10 0 2058 2048">
   <path fill="currentColor"
d="M50 921v-307q0 111 112 204q112 94 298 149q188 55 410.5 55t409.5 -55q189 -55 300 -149q110 -92 110 -204v307q0 56 -52 144q-110 -43 -254 -43q-193 0 -368 79t-290 218q-293 -24 -484 -134q-192 -111 -192 -264zM870 820q223 0 410 -55q190 -56 300 -151t110 -206
q0 -112 -110 -204q-111 -94 -300 -149q-187 -55 -409.5 -55t-410.5 55q-186 55 -298 149q-112 93 -112 204q0 110 112 206q110 96 298 151t410 55zM574 1708l-30 -72l40 -87q8 -20 8 -33q-245 -48 -392 -151q-150 -104 -150 -238v307q0 135 164 243q161 107 422 146
q-3 -4 -62 -115zM1384 1535q-48 0 -78 29q-28 28 -28 74q0 47 28 75t76 28q46 0 74 -28q28 -29 28 -75q0 -45 -29 -74t-71 -29zM1998 1636q-72 180 -242 297q-169 115 -374.5 115t-373.5 -115q-171 -116 -238 -297q68 -178 238 -293q168 -115 373.5 -115t374.5 115
q169 116 242 293zM1638 1636q0 -106 -74 -180t-182 -74t-182 74q-76 75 -76 182t75 182t182 75t183 -75q74 -74 74 -184z" />
</svg>