<svg xmlns="http://www.w3.org/2000/svg" xmlns:xlink="http://www.w3.org/1999/xlink" version="1.1" viewBox="-10 0 2068 2048">
   <path fill="currentColor"
d="M768 1004q-44 0 -76 30t-32 74t32 76t76 32t76 -32t32 -76t-32 -74q-31 -30 -76 -30zM1280 1004q-44 0 -76 30t-32 74t32 76t76 32t76 -32t32 -76t-32 -74t-76 -30zM1024 172q-170 0 -326 64q-159 65 -278 184t-184 278q-64 156 -64 326t64 326q65 159 184 278t278 184
q156 64 326 64t326 -64q159 -65 278 -184t184 -278q64 -156 64 -326t-64 -326q-65 -159 -184 -278t-278 -184q-156 -64 -326 -64zM1024 1708q-184 0 -342 -92t-250 -250t-92 -342q-4 -36 0 -72q151 -67 270 -188q116 -118 182 -272q114 171 302 266q185 94 394 94
q89 0 192 -20q52 174 8 354q-43 178 -168 310q-124 132 -304 184q-94 28 -192 28zM0 172q0 -72 50 -122t122 -50h340v172h-340v340h-172v-340zM2048 1876q0 72 -50 122t-122 50h-340v-172h340v-340h172v340zM172 2048q-72 0 -122 -50t-50 -122v-340h172v340h340v172h-340z
M1876 0q72 0 122 50t50 122v340h-172v-340h-340v-172h340z" />
</svg>