<svg xmlns="http://www.w3.org/2000/svg" xmlns:xlink="http://www.w3.org/1999/xlink" version="1.1" viewBox="-10 0 2058 2048">
   <path fill="currentColor"
d="M1024 0l-92 105l-100 122q-124 149 -220 291q-154 229 -228 378q-104 226 -104 407q0 199 98 370q99 170 272 273q170 102 374 102t375 -102t270 -273t99 -370q0 -181 -104 -407q-77 -154 -226 -378q-97 -142 -222 -291l-98 -122zM1024 390q6 12 24 29q95 114 186 238
q115 172 198 349q86 192 86 297q0 204 -142 349q-142 146 -351.5 146t-352 -146t-142.5 -349q0 -103 88 -297q84 -182 196 -349q91 -124 186 -238z" />
</svg>