<svg xmlns="http://www.w3.org/2000/svg" xmlns:xlink="http://www.w3.org/1999/xlink" version="1.1" viewBox="-10 0 2068 2048">
   <path fill="currentColor"
d="M1952 1223q37 47 55 91l9 18q50 126 21 253q-31 131 -125 221q-83 74 -201 105q-110 23 -227 9q-105 -13 -198 -75q-95 -62 -148 -157q-37 -63 -50 -123q-15 -38 -23 -105q-5 -116 41 -232q44 -113 132 -187q-41 88 -32 189q8 100 69 175l13 14q17 18 42.5 9.5
t25.5 -36.5l-4 -23q-64 -169 -16 -346t184 -291q87 -73 173 -96q-51 103 -34 216q16 118 98 194q22 27 82 68q40 32 59 50zM1734 1678l-4 -4q34 -26 52 -73q16 -43 16 -86l-5 -32q-10 -42 -36 -78q-13 -21 -57 -61q-41 -36 -61 -62l-46 -77q-28 64 -14 146l10 45
q17 77 13 119q-15 52 -52 91q-39 41 -103 54q41 41 98 59q57 19 112 0q35 -13 77 -41zM96 1287h783l-5 100q0 201 96 373v14h-874v-487zM1 704h582v487h-582v-487zM679 704h582v9q-137 79 -230 203q-94 126 -134 275h-218v-487zM96 122h778v487h-778v-487zM970 122h873v487
h-873v-487z" />
</svg>