<svg xmlns="http://www.w3.org/2000/svg" xmlns:xlink="http://www.w3.org/1999/xlink" version="1.1" viewBox="-10 0 2068 2048">
   <path fill="currentColor"
d="M826 910q9 -47 30 -92q47 -86 154 -86q71 0 120 53q48 53 48 115h182q0 -74 -26 -132q-29 -62 -74 -104q-72 -67 -178 -84q-106 -16 -208 15q-99 32 -162 108q-102 131 -102 322t102 322q57 73 158 106q102 34 206 17q107 -16 178 -84q42 -37 74 -99q32 -59 32 -113h-182
q0 25 -16 53q-16 32 -38 53q-46 38 -110 38q-62 0 -101 -24t-57 -62q-53 -107 -30 -322zM1024 1q-278 0 -514 137q-235 136 -372 373q-138 237 -138 514q16 392 226 654q196 240 504 327q293 81 592 0q308 -87 500 -327q210 -263 226 -654q0 -277 -138 -514
q-136 -236 -372 -373q-237 -137 -514 -137zM1024 1847q-221 0 -412 -111q-189 -110 -300 -300q-110 -190 -110 -411q14 -312 188 -524q155 -188 394 -257q240 -69 480 0q238 69 394 257q173 212 188 524q0 221 -112 411q-110 190 -300 300q-190 111 -410 111z" />
</svg>