<svg xmlns="http://www.w3.org/2000/svg" xmlns:xlink="http://www.w3.org/1999/xlink" version="1.1" viewBox="-10 0 2068 2048">
   <path fill="currentColor"
d="M0 255h2048v1538h-2048v-1538zM1846 1586v-1129h-1644v1129h1644zM1538 562q0 82 60 142t142 60v515q-82 0 -142 60t-60 146h-1028q0 -86 -60 -146t-142 -60v-515q82 0 142 -60t60 -142h1028zM1538 1072v-101q0 -87 -45 -147t-111 -60q-65 0 -108 60q-44 59 -44 147v101
q0 88 44 147q43 60 108 60q66 0 111 -60t45 -147zM1384 870q20 0 34 14q14 15 14 34v207q0 19 -14 36q-16 17 -36.5 17t-35.5 -17q-14 -15 -14 -36v-207q0 -20 14 -34t38 -14zM1124 1072v-101q0 -88 -42 -147q-44 -60 -108 -60q-66 0 -111 60t-45 147v101q0 87 45 147
t111 60q64 0 108 -60q42 -59 42 -147zM970 870q26 0 40 14t14 34v207q0 21 -14 36q-16 17 -36.5 17t-35.5 -17q-16 -17 -16 -36v-207q0 -19 16 -34q14 -14 32 -14zM616 1279h100v-515h-100l-106 53v101l106 -48v409z" />
</svg>