<svg xmlns="http://www.w3.org/2000/svg" xmlns:xlink="http://www.w3.org/1999/xlink" version="1.1" viewBox="-10 0 2058 2048">
   <path fill="currentColor"
d="M291 994v-295q117 64 283 103q165 39 347 39t347 -39q166 -39 283 -103v251q22 -5 54 -5q71 0 157 19v-546q0 -113 -113 -209q-112 -96 -308 -153q-192 -56 -420 -56q-229 0 -421 56q-196 57 -308 153q-113 96 -113 209v1054q0 113 113 209q110 94 308 152q195 57 421 57
h54q-38 -91 -49 -212h-5q-187 0 -345 -39q-124 -34 -211 -94q-74 -45 -74 -73v-237q267 128 630 128h54q55 -130 152 -221q-97 14 -206 14q-196 0 -360 -44q-167 -45 -270 -118zM921 211q182 0 344 40q128 35 212 93q74 45 74 76q0 32 -74 77q-82 53 -212 88
q-158 45 -344 45q-187 0 -345 -45q-128 -35 -211 -88q-74 -45 -74 -77q0 -31 74 -76q84 -59 211 -93q162 -40 345 -40zM1551 1629l187 -187q-78 -79 -187 -79t-185 79t-76 187q0 109 76 185t185 76q64 0 118 -27q55 -27 93 -76h177q-45 118 -150 189q-107 72 -238 72
q-172 0 -296 -124q-123 -123 -123 -297q0 -175 123 -298t296 -123q172 0 295 123l123 -123v423h-418z" />
</svg>