<svg xmlns="http://www.w3.org/2000/svg" xmlns:xlink="http://www.w3.org/1999/xlink" version="1.1" viewBox="-10 0 2068 2048">
   <path fill="currentColor"
d="M1846 0h-1230q-88 0 -148 60t-60 142v1231q0 86 60 146t148 60h1230q82 0 142 -60t60 -146v-1231q0 -82 -60 -142t-142 -60zM1846 1433h-1230v-1231h1230v1231zM1076 1332q106 0 181 -75t75 -180v-567h306v-202h-408v562q-72 -53 -154 -53q-106 0 -182 77q-76 76 -76 183
q0 105 76 180t182 75zM202 409h-202v1437q0 82 60 142t142 60h1436v-202h-1436v-1437z" />
</svg>