<svg xmlns="http://www.w3.org/2000/svg" xmlns:xlink="http://www.w3.org/1999/xlink" version="1.1" viewBox="-10 0 2068 2048">
   <path fill="currentColor"
d="M1922 1382v-154q0 -105 -88 -180q-88 -74 -198 -74q-112 0 -198 74t-86 180v154q-48 0 -86 38t-38 86v360q0 52 38 90q38 40 86 40h562q52 0 92 -36q42 -37 42 -84v-360q0 -53 -40 -94q-39 -40 -86 -40zM1788 1382h-306v-154q0 -57 46 -94q44 -36 110 -36q64 0 108 36
q42 36 42 94v154zM206 52q-86 0 -146 60t-60 146v1430q0 86 60 146t146 60h820q-4 -10 -4 -28v-278h-816l356 -460l258 306l354 -460l30 38q62 -115 179.5 -179.5t252.5 -64.5q102 0 206 42v-552q0 -86 -60 -146t-146 -60h-1430z" />
</svg>