<svg xmlns="http://www.w3.org/2000/svg" xmlns:xlink="http://www.w3.org/1999/xlink" version="1.1" viewBox="-10 0 2068 2048">
   <path fill="currentColor"
d="M1674 188q-122 0 -206 34q-157 70 -230 252q-31 -8 -122 -8h-182q-92 0 -122 8q-74 -182 -232 -252q-83 -34 -204 -34q-66 0 -140 38q-100 57 -156 166q-80 142 -80 352q0 224 136 346q92 83 240 112v100q0 153 74 280q73 126 202 202t282 76h182q152 0 280 -76
q130 -76 204 -202q74 -127 74 -280v-100q146 -29 238 -112q136 -122 136 -346q0 -212 -78 -352q-57 -109 -158 -166q-73 -38 -138 -38zM376 1024v40q-91 -26 -126 -102q-27 -62 -8 -132q20 -72 68 -112q-17 -21 -74 -4q-22 4 -36 4q-12 0 -12 -12q0 -26 88 -74
q53 -25 108 -44q-14 -26 -82 -40q-37 -5 -44 -8q-14 -4 -14 -18q0 -25 70 -48q68 -21 136 -8q88 19 148 66q-104 94 -162 212q-60 130 -60 280zM698 1302q-88 0 -122 -68q-36 -70 -1 -140t122 -70t122 70t1 140q-35 68 -122 68zM1072 1582h-96q-47 0 -76 -40t-6 -82l66 -280
q13 -42 74 -64q48 0 74 64l64 280q9 42 -22 82q-30 40 -78 40zM1352 1302q-88 0 -122 -68q-36 -70 -1 -140t122 -70t122 70t1 140q-35 68 -122 68zM1738 706q49 39 68 114q20 72 -6 134q-36 71 -126 96q9 -149 -52 -288q-63 -140 -170 -230q59 -47 148 -66q69 -13 136 6
q68 20 68 50q0 14 -16 18q-8 3 -44 8q-66 9 -80 32l44 22q152 68 152 104q0 12 -10 12q-12 0 -32 -8q-58 -18 -80 -4z" />
</svg>