<svg xmlns="http://www.w3.org/2000/svg" xmlns:xlink="http://www.w3.org/1999/xlink" version="1.1" viewBox="-10 0 2058 2048">
   <path fill="currentColor"
d="M1463 644q35 42 60 95l10 20q56 136 23 277q-33 144 -137 243q-89 85 -220 115q-119 30 -250 10q-114 -15 -217 -83t-162 -167q-39 -73 -55 -140q-14 -39 -25 -115q-4 -131 45 -255q50 -125 145 -205q-45 101 -35 210q11 109 75 195l15 10q19 25 47 13q27 -12 27 -43
l-5 -25q-70 -183 -17 -380q52 -195 202 -319q93 -74 190 -100q-56 110 -38 237t108 207q26 31 85 75q52 36 70 60zM1224 1139l-5 -5q38 -28 57 -78q18 -48 18 -97l-5 -35q-11 -45 -40 -85q-14 -24 -63 -65q-47 -40 -72 -72t-45 -83q-30 75 -15 165l10 50q20 80 15 125
q-15 55 -57 100t-113 60q46 46 108 65t122 0q44 -15 85 -45zM919 1623v105q0 45 30 78q29 32 75 32t75 -32q30 -33 30 -78v-105h215v105q0 46 32 78t75 32t75 -32t32 -78v-105q95 0 205 65q115 64 115 150v210h-1708v-210q0 -86 120 -150q106 -65 200 -65v105q0 46 32 78
t75 32t75 -32q33 -33 33 -78v-105h214z" />
</svg>