<svg xmlns="http://www.w3.org/2000/svg" xmlns:xlink="http://www.w3.org/1999/xlink" version="1.1" viewBox="-10 0 2068 2048">
   <path fill="currentColor"
d="M1228 103q-260 0 -465.5 72t-296.5 192l536 537q117 19 226 19q222 0 410 -55q189 -56 299.5 -148t110.5 -207q0 -114 -110 -206q-112 -94 -300 -149t-410 -55zM404 521l-150 143l260 259h-514v202h514l-260 259l150 144l502 -504zM2048 717q0 112 -110 204
q-112 94 -300 149t-410 55q-85 0 -196 -10l-250 250q203 67 446 67q222 0 410 -55t300 -149q110 -92 110 -204v-307zM2048 1230q0 112 -110 204q-112 94 -300 149t-410 55q-164 0 -322 -34q-156 -34 -272 -95l-168 172q87 120 294 192q209 72 468 72q222 0 410 -55t300 -149
q110 -92 110 -204v-307z" />
</svg>