<svg xmlns="http://www.w3.org/2000/svg" xmlns:xlink="http://www.w3.org/1999/xlink" version="1.1" viewBox="-10 0 2058 2048">
   <path fill="currentColor"
d="M1890 1629v-46v-45l96 -79q13 -9 4 -31l-91 -157q-9 -18 -27 -13l-117 44l-14 -9q-36 -21 -65 -31l-17 -126q-4 -18 -22 -18h-188q-22 0 -22 18l-17 126q-27 10 -66 35l-13 5l-113 -44q-22 -4 -31 13l-96 157q-9 22 9 31l96 79l-5 43l5 48l-96 74q-18 13 -9 31l96 162
q4 13 31 13l113 -48q41 28 79 43l17 127q0 17 22 17h188q18 0 22 -17l17 -127q36 -16 79 -43l117 48q23 0 27 -13l91 -162q13 -18 -4 -31zM1541 1747q-66 0 -114 -48t-48 -116q0 -67 48 -115t116 -48t116 48t48 115q0 68 -48 116t-118 48zM899 1677h-847v-96l188 -183v-559
q0 -217 127 -391q126 -172 336 -234v-30q0 -75 54 -129q55 -55 133 -55t133 55t55 129v30q210 62 336 234q127 174 127 391v92q-91 0 -184 26v-118q0 -132 -63 -238t-170 -168q-106 -61 -234 -61q-127 0 -233 61q-107 62 -170 168q-64 108 -64 238v651h476q-9 48 -9 91t9 96
zM917 1769q29 89 74 157q-50 31 -101 31q-78 0 -133 -55q-54 -54 -54 -133h214z" />
</svg>