<svg xmlns="http://www.w3.org/2000/svg" xmlns:xlink="http://www.w3.org/1999/xlink" version="1.1" viewBox="-10 0 2058 2048">
   <path fill="currentColor"
d="M1621 250q-14 0 -24 -5q-150 -77 -284 -110q-139 -34 -288 -34q-308 0 -572 144q-15 9 -36 5q-22 -5 -31 -24q-9 -20 -5 -41q5 -22 24 -31q283 -154 620 -154q164 0 312 36q146 35 308 118q20 9 24 31q5 20 -5 36q-15 29 -43 29zM155 788q-18 0 -33 -9q-14 -9 -19 -31
q-5 -23 9 -37q155 -221 385 -336q246 -125 531.5 -125t520.5 120q233 119 389 337q10 16 7 36q-3 21 -19 33q-17 13 -38 10q-22 -3 -36 -17q-135 -197 -346 -303q-219 -115 -483 -115q-263 0 -478 115q-211 106 -351 303q-14 19 -39 19zM794 2029q-18 0 -33 -15
q-71 -72 -115 -127q-45 -57 -92 -147q-110 -190 -110 -442q0 -149 79 -276q80 -127 211 -202q132 -75 291 -75t291 75t211 202q80 128 80 276q0 19 -17 34q-15 14 -35.5 14t-36.5 -14q-17 -15 -17 -34q0 -124 -63 -228q-64 -105 -173 -164q-111 -60 -240 -60t-240 60
q-109 59 -173 164q-63 104 -63 228q0 225 92 394q55 93 91 140q29 37 101 110q14 14 14 34t-16 36q-17 17 -37 17zM1530 1836q-182 0 -317 -91q-117 -78 -181 -195q-65 -119 -65 -252q0 -23 15 -38t36 -15t36 15q14 14 14 38q0 104 53 204q52 97 149 161q105 72 260 72
q48 0 105 -9q25 -5 41 7q16 11 19 34q3 21 -9 38q-13 18 -31 22q-63 9 -125 9zM1323 2048h-14q-121 -33 -209 -84q-92 -53 -171 -132q-106 -108 -163 -246q-58 -142 -58 -288q0 -126 91 -214q92 -89 224 -89q131 0 223 89q91 88 91 214q0 82 63 139q64 58 151 58
q88 0 152 -58q62 -56 62 -139q0 -192 -101 -353q-102 -163 -271 -255q-173 -94 -373 -94q-214 0 -403 113q-186 112 -274 301q-58 127 -58 288q0 188 67 370q5 21 -2 39t-29 26q-20 7 -41 -2q-19 -9 -24 -29q-77 -198 -77 -404q0 -188 72 -332q100 -214 310 -346
q208 -130 459 -130q231 0 426 108q193 107 307 294q113 185 113 406q0 121 -91 209q-92 89 -224 89q-131 0 -223 -89q-91 -88 -91 -209q0 -87 -63 -144q-64 -58 -151 -58q-88 0 -152 58q-62 56 -62 144q0 132 50 250q52 122 142 212q71 70 149 115q77 44 187 72q20 5 29 24
q10 20 5 38q-4 20 -17 29q-13 10 -31 10z" />
</svg>