<svg xmlns="http://www.w3.org/2000/svg" xmlns:xlink="http://www.w3.org/1999/xlink" version="1.1" viewBox="-10 0 2058 2048">
   <path fill="currentColor"
d="M1024 1677l-336 -449q149 -110 336 -110t336 110zM352 782l170 223q221 -166 502 -166t502 166l170 -223q-143 -109 -316 -166q-172 -57 -356 -57q-182 0 -355 57q-175 58 -317 166zM1024 0q-276 0 -534 88q-257 88 -470 244l166 227q178 -135 393 -207t445 -72
q232 0 446 72q213 71 392 207l166 -227q-214 -157 -469 -244q-258 -88 -535 -88zM557 2048h188v-187h-188v187zM1304 2048h187v-187h-187v187zM933 2048h183v-187h-183v187z" />
</svg>