<svg xmlns="http://www.w3.org/2000/svg" xmlns:xlink="http://www.w3.org/1999/xlink" version="1.1" viewBox="-10 0 2068 2048">
   <path fill="currentColor"
d="M1024 0q-200 0 -392 77q-188 76 -333.5 221t-220.5 334q-78 192 -78 392t78 392q75 189 220.5 334t333.5 221q192 77 392 77t392 -77q188 -76 333.5 -221t220.5 -334q78 -192 78 -392t-78 -392q-75 -189 -220.5 -334t-333.5 -221q-192 -77 -392 -77zM1024 202
q222 0 410.5 110t299.5 301q112 191 112 411q0 182 -72 341q-72 158 -208 274q-107 -102 -246 -154q-142 -52 -296 -52q-309 0 -544 206q-133 -114 -206 -274q-72 -161 -72 -341q0 -220 110 -411q112 -191 300.5 -301t411.5 -110zM1230 399q-28 0 -56 17q-23 15 -40 50
l-140 351q-56 9 -98 46q-41 37 -64 84q-29 81 4 159q33 76 114 108q77 31 156 -3q76 -33 110 -110q19 -52 10 -106q-9 -51 -44 -96l144 -361q19 -37 2 -77q-15 -37 -60 -57q-16 -5 -38 -5zM818 409q-46 0 -74 28t-28 73q0 43 28.5 74t73.5 31q42 0 73 -31t31 -74
q0 -45 -30.5 -73t-73.5 -28zM510 716q-44 0 -73 29t-29 72t30 75q28 31 72 31q42 0 74 -31q32 -32 32 -75t-32.5 -72t-73.5 -29zM1538 716q-42 0 -74 29q-32 28 -32 72t31 75t75 31q43 0 72 -31q28 -32 28 -75t-29 -72t-71 -29z" />
</svg>