<svg xmlns="http://www.w3.org/2000/svg" xmlns:xlink="http://www.w3.org/1999/xlink" version="1.1" viewBox="-10 0 2068 2048">
   <path fill="currentColor"
d="M1304 279q200 0 372 100q170 100 272 273q100 172 100 372q0 201 -100 373q-101 172 -272 272q-172 100 -372 100q-202 0 -374 -100q-171 -100 -272 -272q-100 -172 -100 -373q0 -200 100 -372q102 -173 272 -273q172 -100 374 -100zM1304 467q-152 0 -282 74t-202 202
q-74 130 -74 281t74 281q73 129 202 203q130 74 281.5 74t280.5 -74q128 -73 202 -203t74 -281t-74 -281q-73 -129 -202 -202q-129 -74 -280 -74zM1212 654h140v349l212 217l-96 101l-256 -257v-410zM96 1582q-37 0 -66.5 -26t-29.5 -65t30 -68q28 -28 66 -28h354
q43 97 108 187h-462zM188 1116q-40 0 -66 -26t-26 -66q0 -39 26 -65t66 -26h192l-4 91l4 92h-192zM280 654q-40 0 -66 -28q-26 -29 -26 -68t26 -65t66 -26h278q-65 90 -108 187h-170z" />
</svg>