<svg xmlns="http://www.w3.org/2000/svg" xmlns:xlink="http://www.w3.org/1999/xlink" version="1.1" viewBox="-10 0 2068 2048">
   <path fill="currentColor"
d="M210 0q-86 0 -148 62t-62 148v183h196v-196h198v-197h-184zM586 0v197h292v-197h-292zM1074 0v197h196v196h192v-183q0 -88 -58 -148q-61 -62 -148 -62h-182zM0 585v293h196v-293h-196zM782 585q-82 0 -139 57t-57 140v681h670q88 0 148 -60q58 -59 58 -146v-672h-680z
M1660 585v197h196v196h192v-196q0 -83 -57 -140t-135 -57h-196zM782 782h488v489h-488v-489zM0 1074v183q0 86 62 146t148 60h184v-192h-198v-197h-196zM1856 1170v293h192v-293h-192zM586 1659v197q0 78 57 135t139 57h196v-192h-196v-197h-196zM1856 1659v197h-196v192
h196q78 0 135 -57t57 -135v-197h-192zM1170 1856v192h292v-192h-292z" />
</svg>