<svg xmlns="http://www.w3.org/2000/svg" xmlns:xlink="http://www.w3.org/1999/xlink" version="1.1" viewBox="-10 0 2068 2048">
   <path fill="currentColor"
d="M102 0q-43 6 -72 37q-30 30 -30 75v117h230v-229h-128zM454 0v229h230v-229h-230zM912 0v229h224v-229h-224zM1366 0v229h228v-229h-228zM1818 0v112v117h230v-128q-7 -43 -38 -72q-30 -29 -74 -29h-118zM0 453v230h230v-230h-230zM1818 453v230h230v-230h-230zM0 912
v224h230v-224h-230zM1856 1024q-22 0 -42 16l-176 176l-108 -107l-84 80l84 80l-512 507v272h272l508 -507l80 80l80 -80l-108 -112l176 -176q16 -16 16 -40t-16 -40l-132 -133q-16 -16 -38 -16zM0 1365v230h230v-230h-230zM1594 1365l108 112l-460 459l-106 -112zM0 1819
v117v11q7 43 38 72q30 29 74 29h118v-229h-230zM454 1819v229h230v-229h-230z" />
</svg>