<svg xmlns="http://www.w3.org/2000/svg" xmlns:xlink="http://www.w3.org/1999/xlink" version="1.1" viewBox="-10 0 2068 2048">
   <path fill="currentColor"
d="M1024 1544q-282 0 -514 -70q-235 -71 -372 -190q-138 -120 -138 -260t138 -260q137 -119 372 -190q232 -70 514 -70t514 70q235 71 372 190q138 120 138 260t-138 260q-137 119 -372 190q-232 70 -514 70zM580 864q71 0 94 26q22 25 10 90q-12 63 -48 92q-35 28 -112 28
h-72l44 -236h84zM284 1340h120l32 -152h104q66 0 114 -14q45 -13 78 -46q34 -34 52 -66q21 -38 28 -74q20 -100 -30 -156t-154 -56h-236zM900 628l-108 560h120l64 -320h96q48 0 62 14t6 58l-48 248h124l48 -260q16 -79 -22 -116q-38 -36 -142 -36h-108l32 -148h-124z
M1536 864q71 0 94 26q22 25 10 90q-12 63 -48 92q-35 28 -112 28h-72l44 -236h84zM1236 1340h124l28 -152h104q71 0 116 -14q43 -13 80 -46q36 -32 54 -66q19 -37 26 -74q16 -100 -30 -156q-47 -56 -154 -56h-236z" />
</svg>