<svg xmlns="http://www.w3.org/2000/svg" xmlns:xlink="http://www.w3.org/1999/xlink" version="1.1" viewBox="-10 0 2058 2048">
   <path fill="currentColor"
d="M1658 193h-408q-40 -114 -150 -165q-109 -51 -220 -9q-129 40 -180 174h-406q-84 0 -141 57t-57 140v1365q0 83 57 140t141 57h974v-197h-974v-1365h192v192h980v-192h192v879h196v-879q0 -83 -57 -140t-139 -57zM976 390q-41 0 -68 -30q-28 -31 -28 -71q0 -41 28 -69
q26 -27 68 -27t69 27t27 69q0 41 -27 71t-69 30zM1466 1462v586l486 -293zM1466 976h-980v-197h980v197zM1268 1366h-782v-197h782v197z" />
</svg>