<svg xmlns="http://www.w3.org/2000/svg" xmlns:xlink="http://www.w3.org/1999/xlink" version="1.1" viewBox="-10 0 2058 2048">
   <path fill="currentColor"
d="M151 817q-43 0 -72 -29q-28 -28 -28 -72t28 -72q29 -29 72 -29h822q87 0 147 -60t60 -146q0 -87 -60 -147t-147 -60q-88 0 -144 62q-29 29 -72 29t-75 -29q-31 -28 -31 -72q0 -43 34 -72q120 -120 288 -120t288 120q121 121 121 289q0 167 -121 288q-120 120 -288 120
h-822zM1689 1024q43 0 75 -29q31 -28 31 -72t-31 -75t-75 -31t-72 31q-29 32 -72 32t-72 -32t-29 -72t29 -74q91 -87 218 -87q128 0 217 89t89 217q0 126 -89 218t-219 92h-1432q-42 0 -74 -32t-32 -74q0 -43 32 -72t74 -29h1432zM1588 1639h-1437q-43 0 -72 -29
q-28 -28 -28 -72q0 -43 28 -74t72 -31h1437q131 0 219 91q89 92 89 219t-89 216t-216 89t-219 -87q-29 -34 -29 -74t29 -72q28 -31 72 -31t72 31t72 31t72 -31q29 -32 29 -75t-29 -72t-72 -29z" />
</svg>