<svg xmlns="http://www.w3.org/2000/svg" xmlns:xlink="http://www.w3.org/1999/xlink" version="1.1" viewBox="-10 0 2068 2048">
   <path fill="currentColor"
d="M0 1212q0 124 64 232q64 107 169.5 168.5t232.5 61.5q114 0 210 -50q93 -48 162 -134h482q26 84 98 134q73 50 164 50t164 -50q72 -50 98 -134h204v-188q0 -252 -126 -465t-340 -339q-213 -124 -466 -124h-1116v838zM1860 1302h-936q10 -43 10 -90q0 -125 -64 -234
q-64 -106 -170 -170q-109 -64 -234 -64q-155 0 -278 92v-278h884q177 0 336 74q154 72 266 204h-370v188h486q57 124 70 278zM466 932q120 0 200 80t80 198q0 116 -80 198q-82 82 -200 82q-116 0 -198 -82q-80 -82 -80 -198q0 -118 80 -198t198 -80z" />
</svg>