<svg xmlns="http://www.w3.org/2000/svg" xmlns:xlink="http://www.w3.org/1999/xlink" version="1.1" viewBox="-10 0 2068 2048">
   <path fill="currentColor"
d="M846 1378l38 218q-33 16 -110 32q-79 18 -182 18q-292 -5 -442 -174t-150 -432q10 -305 184 -470q176 -168 434 -168q101 0 172 16q69 16 106 34l-50 222l-96 -30q-53 -12 -120 -12q-154 0 -256.5 97.5t-107.5 298.5q0 178 96 284q96 104 268 104l120 -8q46 -11 96 -30z
M892 936h176v-180h178v180h180v176h-180v178h-178v-178h-176v-176zM1514 936h178v-180h176v180h180v176h-180v178h-176v-178h-178v-176z" />
</svg>