<svg xmlns="http://www.w3.org/2000/svg" xmlns:xlink="http://www.w3.org/1999/xlink" version="1.1" viewBox="-10 0 2058 2048">
   <path fill="currentColor"
d="M104 230l130 -129l1710 1712l-128 130l-284 -278q-8 157 -126 271q-117 112 -284 112q-164 0 -284 -120t-120 -292v-101h-106l-86 -839q-53 -52 -82 -125zM818 0q168 0 288 120t120 288h-428l-278 -278q57 -63 134 -96q79 -34 164 -34zM1110 696l-4 19l-206 -202h316
q-30 107 -106 183zM1024 1535h-106v101q0 86 60 146t146 60t146 -60t60 -146v-178l-272 -268zM1738 715h206l-104 105l104 101h-206q-86 0 -146 60t-60 146v20l-172 -173q48 -121 148.5 -190t229.5 -69zM718 921q0 43 29 72t67 29t62 -15l-144 -143q-14 22 -14 57z" />
</svg>