<svg xmlns="http://www.w3.org/2000/svg" xmlns:xlink="http://www.w3.org/1999/xlink" version="1.1" viewBox="-10 0 2068 2048">
   <path fill="currentColor"
d="M2048 1433v206h-202q-205 0 -414 -101q-194 97 -408 97t-408 -97q-209 101 -414 101h-202v-206h202q212 0 414 -130q182 130 408 130t408 -130q202 130 414 130h202zM336 1207q85 -23 164 -77l116 -77q120 -404 -44 -837q330 57 610 318q279 259 394 610q118 73 230 82
q-71 -331 -280 -615t-498 -443q-298 -168 -620 -168q-57 0 -86 48q-28 49 -4 101q153 305 144 601q-10 236 -126 457zM1432 1711q-182 130 -408 130t-408 -130q-203 135 -414 135h-202v202h202q205 0 414 -101q192 101 408 101t408 -101q209 101 414 101h202v-202h-202
q-211 0 -414 -135z" />
</svg>