<svg xmlns="http://www.w3.org/2000/svg" xmlns:xlink="http://www.w3.org/1999/xlink" version="1.1" viewBox="-10 0 2068 2048">
   <path fill="currentColor"
d="M934 745v-91h90v91h-90zM1860 0q78 0 134 55q54 54 54 133v1303q0 74 -54 128q-56 55 -134 55h-1302q-74 0 -128 -55q-54 -54 -54 -128v-1303q0 -79 54 -133q54 -55 128 -55h1302zM188 375v1486h1486v187h-1486q-78 0 -132 -54q-56 -55 -56 -133v-1486h188zM1304 745v188
h186v183h184v-183h186v-188h-186v-187h-184v187h-186zM1212 1024v-370q0 -79 -54 -133t-134 -54h-90q-80 0 -134 54q-54 55 -54 133v91q0 78 55 133t133 55h90v91h-278v188h278q78 0 134 -55q54 -54 54 -133z" />
</svg>