<svg xmlns="http://www.w3.org/2000/svg" xmlns:xlink="http://www.w3.org/1999/xlink" version="1.1" viewBox="-10 0 2058 2048">
   <path fill="currentColor"
d="M1137 0q-210 0 -387 101q-179 103 -288 275q-109 174 -120 381l-218 288q-22 28 -6 59q17 32 54 32h170v341q0 96 67 163t163 67h112v341h794v-533q207 -95 333 -291q125 -193 125 -429q0 -214 -106 -398q-105 -183 -290.5 -290t-402.5 -107zM1254 1253h-229v-229h229
v229zM1451 661q-48 65 -128 107q-43 28 -56 56q-13 29 -13 88h-229q0 -92 34 -136q36 -46 120 -104q49 -27 72 -67q24 -41 24 -93q0 -53 -32 -85t-80 -32t-77 26t-35 80h-218v-5q0 -134 90 -200q92 -67 243 -67q152 0 242 78q91 79 91 205q0 80 -48 149z" />
</svg>