<svg xmlns="http://www.w3.org/2000/svg" xmlns:xlink="http://www.w3.org/1999/xlink" version="1.1" viewBox="-10 0 2058 2048">
   <path fill="currentColor"
d="M1024 0q102 0 176 73q72 72 72 176q0 103 -72 178t-176 75t-176 -75q-72 -76 -72 -178q0 -103 73 -176t175 -73zM1412 352q103 0 200 56q95 55 154 150q58 92 58 192q94 0 148 59q54 58 54 140q0 83 -54 141q-54 59 -148 59h-1602q-92 0 -146 -59q-54 -58 -54 -141
q0 -81 54 -140t146 -59q0 -98 60 -192q60 -96 154 -150q96 -56 198 -56q38 131 144 215q106 85 245.5 85t246.5 -85q105 -84 142 -215zM326 1350h300l98 698h-202zM822 1350h404l-104 698h-196zM1422 1350h300l-198 698h-200z" />
</svg>