<svg xmlns="http://www.w3.org/2000/svg" xmlns:xlink="http://www.w3.org/1999/xlink" version="1.1" viewBox="-10 0 2068 2048">
   <path fill="currentColor"
d="M648 53q-177 0 -322 86q-142 84 -232 235q-89 150 -94 326v1295h972v-814q188 167 430 167q176 0 326 -86q149 -86 234 -235q86 -148 86 -327q0 -178 -86 -326q-85 -149 -234 -235q-150 -86 -326 -86h-754zM648 271h272q-166 181 -166 429v324h-106v106h106v648h-536
v-648h106v-106h-106v-324q0 -177 126 -303t304 -126zM1402 271q182 0 308 126t126 303q0 178 -126 304t-306 126t-306 -126t-126 -304q0 -177 126 -303t304 -126zM1402 513q-76 0 -132 53q-56 52 -56 134t56 134q57 54 133.5 54t134.5 -54q56 -53 56 -134t-56.5 -134
t-135.5 -53zM430 1024v106h112v-106h-112z" />
</svg>