<svg xmlns="http://www.w3.org/2000/svg" xmlns:xlink="http://www.w3.org/1999/xlink" version="1.1" viewBox="-10 0 2068 2048">
   <path fill="currentColor"
d="M1070 1412q0 131 50 247h-928q-76 0 -134 -57q-58 -58 -58 -140v-1170q0 -81 58 -139q58 -57 134 -57h1564q78 0 135 57t57 139v535q-117 -46 -242 -46h50v-292h-1564v292h1514q-173 0 -318 85q-144 84 -232 231q-86 145 -86 315zM1656 1659q-102 0 -172 -73
q-72 -74 -72 -174q0 -52 28 -110l-110 -105q-64 100 -64 215q0 165 114 279t276 114v147l218 -220l-218 -219v146zM1656 1024v-147l-220 220l220 219v-146q98 0 172 71q74 70 74 171q0 59 -28 110l106 105q68 -95 68 -215q0 -160 -114 -274t-278 -114z" />
</svg>