<svg xmlns="http://www.w3.org/2000/svg" xmlns:xlink="http://www.w3.org/1999/xlink" version="1.1" viewBox="-10 0 2068 2048">
   <path fill="currentColor"
d="M2048 1332h-202v307q0 87 -60 147t-148 60h-306v202l-308 -308l308 -307v206h306v-307h-206l308 -308zM2048 202v413q0 82 -60 142t-142 60h-1028v1029q0 81 -62 142q-60 60 -140 60h-414q-82 0 -142 -60t-60 -142v-1644q0 -82 60 -142t142 -60h1644q82 0 142 60t60 142z
M202 615h414v-413h-414v413zM202 817v414h414v-414h-414zM616 1846v-413h-414v413h414zM1230 615v-413h-412v413h412zM1846 202h-414v413h414v-413z" />
</svg>