<svg xmlns="http://www.w3.org/2000/svg" xmlns:xlink="http://www.w3.org/1999/xlink" version="1.1" viewBox="-10 0 2068 2048">
   <path fill="currentColor"
d="M2048 1925l-1924 -1925l-124 124l278 278l-160 279q-9 18 -6 35q3 16 16 29l206 160l-4 96l4 96l-206 160q-12 13 -16 30q-2 16 6 34l198 339q4 12 22 20q18 7 36 -2l244 -96q83 65 164 96l36 256q0 18 14 30q12 11 32 11h392q20 0 32 -11q14 -12 14 -30l36 -256
q60 -22 138 -78l448 448zM864 992l206 206h-10q-82 0 -139 -57t-57 -140v-9zM1170 1527l-36 256h-146l-38 -256q-171 -36 -292 -174l-238 101l-72 -124l206 -155q-60 -173 0 -347l-206 -151l72 -128h6l282 288q-36 80 -36 164q0 160 114 275q114 114 274 114q89 0 164 -37
l110 110q-80 47 -164 64zM872 498l-150 -146l60 -27l36 -256q0 -18 14 -30q12 -11 32 -11h392q20 0 32 11q14 12 14 30l36 256q83 31 166 96l242 -96q20 -10 36 -3q18 7 22 21l198 338q9 20 6 35q-2 16 -16 29l-206 160l6 96l-6 96l206 160q13 13 16 30q3 15 -6 34l-114 197
l-142 -142l28 -46l-206 -150q59 -178 0 -352l206 -151l-74 -128l-234 100q-119 -137 -296 -173l-36 -256h-146l-38 256q-50 10 -78 22zM1060 613q160 0 274 114t114 274q0 37 -4 73l-456 -457q35 -4 72 -4z" />
</svg>