<svg xmlns="http://www.w3.org/2000/svg" xmlns:xlink="http://www.w3.org/1999/xlink" version="1.1" viewBox="-10 0 2068 2048">
   <path fill="currentColor"
d="M1936 1424q-224 0 -410 -69h-38q-42 0 -74 32l-252 250q-246 -129 -440 -322q-192 -192 -310 -430l250 -250q25 -20 32 -54q6 -32 -10 -58q-60 -210 -60 -411q0 -42 -35 -77t-77 -35h-400q-42 0 -77 35t-35 77q0 528 262 976q256 442 698 699q449 261 976 261
q42 0 78 -35q34 -34 34 -77v-400q0 -43 -34 -77q-36 -35 -78 -35zM230 229h170q11 120 54 294l-134 138q-74 -227 -90 -432zM1818 1819q-204 -17 -432 -91l140 -133q181 42 292 42v182zM1594 453l198 -197q-80 -85 -198 -85t-203 82t-85 200t85 203t203 85q69 0 128 -32
q60 -32 96 -85h198q-55 129 -168 208q-115 80 -254 80q-192 0 -325 -133t-133 -323t133 -323t323 -133t322 133l134 -133v453h-454z" />
</svg>