<svg xmlns="http://www.w3.org/2000/svg" xmlns:xlink="http://www.w3.org/1999/xlink" version="1.1" viewBox="-10 0 2068 2048">
   <path fill="currentColor"
d="M1818 912h-224v-229h-228v229h-230v224h230v229h228v-229h224v683h-1588v-1590h1588v683zM1818 0h-1588q-96 0 -163 67t-67 162v1590q0 95 67 162t163 67h1588q96 0 164 -67q66 -66 66 -162v-1590q0 -96 -66 -162q-68 -67 -164 -67zM684 912v-117h110v117h-110z
M1024 1253v-458q0 -91 -66 -158q-66 -66 -164 -66h-110q-98 0 -164 66q-66 67 -66 158v117q0 90 67 157t163 67h110v117h-340v224h340q98 0 164 -66q66 -67 66 -158z" />
</svg>