<svg xmlns="http://www.w3.org/2000/svg" xmlns:xlink="http://www.w3.org/1999/xlink" version="1.1" viewBox="-10 0 2068 2048">
   <path fill="currentColor"
d="M0 0v2048h2048v-202h-202v-207h202v-206h-202v-202h202v-207h-410v-207h-206v207h-202v-207h-206v-202h-408v409h408v409h-206v206h206v207h-206v-207h-202v-206h-208v-202h-206v-207h206v-615h-206v-409h-202zM408 409h208v-409h-208v409zM616 1433h202v-202h-202v202z
M1638 817h410v-202h-410v202zM1638 615v-413h-206v207h-202v206h408zM1432 202v-202h-202v202h202zM1638 202h208v-202h-208v202zM1846 202v207h202v-207h-202zM818 0v409h206v-409h-206zM1230 1231h202v202h206v413h-408v-615zM202 1639h206v207h-206v-207z" />
</svg>