<svg xmlns="http://www.w3.org/2000/svg" xmlns:xlink="http://www.w3.org/1999/xlink" version="1.1" viewBox="-10 0 2058 2048">
   <path fill="currentColor"
d="M1708 340h-1368q-68 0 -118 50t-50 122v1024q0 72 50 122t118 50h1368q68 0 118 -50t50 -122v-1024q0 -72 -50 -122t-118 -50zM1708 1536h-1368v-1024h1368v1024zM340 0h1368v172h-1368v-172zM340 1876h1368v172h-1368v-172zM1024 1024q88 0 150 -62t62 -150
q0 -87 -62 -152q-61 -64 -150 -64t-150 64q-62 65 -62 152q0 88 62 150t150 62zM1024 724q36 0 60 26t24 60t-24 60t-60 26t-60 -26t-24 -60t24 -60t60 -26zM1452 1364q0 -79 -80 -144q-65 -53 -172 -84q-94 -28 -176 -28t-176 28q-107 31 -172 84q-80 65 -80 144v88h856
v-88zM752 1324q41 -37 120 -62q81 -26 152 -26t152 26q79 25 120 62h-544z" />
</svg>