<svg xmlns="http://www.w3.org/2000/svg" xmlns:xlink="http://www.w3.org/1999/xlink" version="1.1" viewBox="-10 0 2064 2048">
   <path fill="currentColor"
d="M1475 1471q171 -171 232 -401q59 -227 0 -455q-60 -226 -232 -390l-1245 1246q163 173 390 232q227 60 455 0t400 -232zM1432 508q48 0 76 28q29 29 29 75q0 45 -29 74t-74 29t-74 -29t-29 -74q0 -46 29 -75q28 -28 72 -28zM1432 920q48 0 76 26q29 28 29 74.5t-29 73.5
t-74.5 27t-73.5 -27q-29 -27 -29 -73.5t29 -74.5q27 -26 72 -26zM1025 920q48 0 74 26t26 74t-26 74q-27 27 -74 27t-74 -27t-27 -74t27 -74q26 -26 74 -26zM1025 1327q46 0 74 29q26 28 26 74.5t-26 73.5q-28 29 -74.5 29t-73.5 -29q-27 -28 -27 -73.5t27 -74.5t74 -29z
M618 1533q-48 0 -77 -29t-29 -74t29 -74t74 -29q46 0 75 29q28 28 28 74t-28 74q-29 29 -72 29zM1700 1696q-230 230 -539 311q-155 41 -309 41t-308 -41q-309 -81 -539 -311l144 -144q185 192 441.5 259.5t510.5 -0.5t446 -259q189 -190 258 -446q67 -253 0 -507
q-69 -256 -258 -446l153 -153q224 229 304 539q79 309 0 618q-80 311 -304 539z" />
</svg>