<svg xmlns="http://www.w3.org/2000/svg" xmlns:xlink="http://www.w3.org/1999/xlink" version="1.1" viewBox="-10 0 2068 2048">
   <path fill="currentColor"
d="M778 1024q-138 0 -316 46q-200 51 -320 128q-142 96 -142 218v294h1080l-6 -42q-4 -16 -4 -60q0 -40 10 -86q18 -129 90 -238q33 -46 64 -78q33 -32 74 -64q-92 -42 -210 -72q-178 -46 -320 -46zM882 1522h-698v-106q0 -30 92 -82q91 -50 218 -86q152 -36 284 -36
q78 0 196 18q-74 132 -92 292zM778 928q164 0 278 -114t114 -278q0 -162 -114 -276t-276 -114t-276 114t-114 276q0 164 114 278t274 114zM778 342q82 0 139 57t57 137q0 82 -57 139t-137 57t-137 -57t-57 -139q0 -80 57 -137t135 -57zM1756 1902v-192h-394v-198h394v-196
l292 292z" />
</svg>