<svg xmlns="http://www.w3.org/2000/svg" xmlns:xlink="http://www.w3.org/1999/xlink" version="1.1" viewBox="-10 0 2058 2048">
   <path fill="currentColor"
d="M1138 223l574 554l-574 792l-573 -792zM1138 0q-73 0 -123 50l-614 593q-45 44 -49.5 118.5t30.5 124.5l642 890q-39 84 -143 84q-124 0 -158 -118q-30 -105 -129 -178q-101 -75 -207 -75q-163 0 -267 124l143 119q45 -60 124 -60q128 0 158 119q31 106 128 181
q98 76 208 76q199 0 302 -178l712 -984q39 -55 32 -126q-8 -72 -57 -117l-608 -593q-55 -50 -124 -50z" />
</svg>