<svg xmlns="http://www.w3.org/2000/svg" xmlns:xlink="http://www.w3.org/1999/xlink" version="1.1" viewBox="-10 0 2068 2048">
   <path fill="currentColor"
d="M682 974q-100 0 -171 -71t-71 -171q0 -102 71 -173t171 -71t172 72q70 70 70 172q0 100 -70 170q-72 72 -172 72zM682 50q-187 0 -342 92q-156 91 -248 246q-92 157 -92 336q0 178 106 424q86 184 234 410q106 152 236 316l106 124l104 -124q140 -175 238 -316
q148 -226 234 -410q104 -237 104 -422q0 -182 -90 -338q-92 -155 -248 -246q-155 -92 -342 -92zM1560 1512l488 -488l-488 -490v978z" />
</svg>