<svg xmlns="http://www.w3.org/2000/svg" xmlns:xlink="http://www.w3.org/1999/xlink" version="1.1" viewBox="-10 0 2058 2048">
   <path fill="currentColor"
d="M1024 817q100 0 166 70q64 70 64 163q0 94 -70 164t-162 67q-95 -3 -162 -67q-68 -65 -68 -164q0 -97 68 -165t164 -68zM1484 1740h-922v-115q0 -97 134 -164t327 -67t327 67t134 164v115zM1740 1846h-1432v-1130h1432v1130zM1432 0v202h-816v-202h-208v202h-100
q-86 0 -146 60t-60 147v1437q0 82 60 142t146 60h1432q86 0 146 -60t60 -142v-1437q0 -87 -60 -147t-146 -60h-102v-202h-206z" />
</svg>