<svg xmlns="http://www.w3.org/2000/svg" xmlns:xlink="http://www.w3.org/1999/xlink" version="1.1" viewBox="-10 0 2068 2048">
   <path fill="currentColor"
d="M2019 1875l-144 144q-29 29 -72 29q-44 0 -73 -29l-1220 -1216q-45 14 -101 14q-100 0 -187 -45t-144 -125q-58 -81 -73 -178q-15 -96 15 -195l264 260l250 -250l-259 -265q97 -29 194 -14q98 15 178 72q80 58 125 144q46 89 46 188q0 53 -15 101l1216 1221q29 29 29 72
t-29 72zM29 1731q-28 28 -28 72t28 72l145 144q29 29 72 29t72 -29l562 -558l-288 -293zM1846 0l-413 202v207l-221 221l206 206l221 -221h207l202 -413z" />
</svg>