<svg xmlns="http://www.w3.org/2000/svg" xmlns:xlink="http://www.w3.org/1999/xlink" version="1.1" viewBox="-10 0 2068 2048">
   <path fill="currentColor"
d="M616 510h202v514h-202v-514zM226 0h1596q90 0 158 67q68 68 68 159v1596q0 96 -65 161t-161 65h-1596q-92 0 -159 -67t-67 -159v-1596q0 -97 64 -161q66 -65 162 -65zM1024 202q-223 0 -411.5 110t-300.5 301q-110 191 -110 411t110 411q111 190 300 300
q191 111 411.5 111t410.5 -111q190 -110 300 -300q112 -191 112 -411t-112 -411q-111 -191 -299.5 -301t-410.5 -110zM1230 562h202v409h-202v-409zM870 1461q0 -66 46 -110q44 -43 107.5 -43t108.5 43q46 44 46 110v77h-308v-77z" />
</svg>