<svg xmlns="http://www.w3.org/2000/svg" xmlns:xlink="http://www.w3.org/1999/xlink" version="1.1" viewBox="-10 0 2068 2048">
   <path fill="currentColor"
d="M1266 973h146v416l280 165l-74 119l-352 -211v-489zM1362 681q102 0 198 27v-448l-294 114v311q29 -4 96 -4zM2048 1362q0 187 -93 343t-249 249q-158 94 -344 94q-215 0 -390 -126q-176 -126 -250 -322l-136 -51l-522 201l-18 5q-18 0 -32 -16q-14 -17 -14 -34v-1477
q0 -32 32 -46l554 -182l584 201l522 -201h14q18 0 34 13t16 32v759q134 93 212 240q80 148 80 318zM682 1362q0 -201 108 -366q107 -164 280 -251v-371l-388 -137v1139v-14zM1362 877q-132 0 -244 64q-111 64 -176 176q-64 112 -64 245q0 132 64 244q66 114 176 179
q113 66 244 66q133 0 246 -66q111 -65 178 -179q66 -112 66 -244t-66 -245q-66 -111 -178 -176q-112 -64 -246 -64zM192 333v1157l294 -110v-1143z" />
</svg>