<svg xmlns="http://www.w3.org/2000/svg" xmlns:xlink="http://www.w3.org/1999/xlink" version="1.1" viewBox="-10 0 2058 2048">
   <path fill="currentColor"
d="M1218 197h-584v-197h584v197zM1140 1221v118q-53 43 -86 110q-32 66 -32 133v343q0 53 24 114q-70 9 -120 9q-238 0 -438 -117q-203 -118 -320 -320q-120 -205 -120 -441q0 -237 120 -439q118 -201 320 -320q200 -118 438 -118q153 0 292 52q143 53 256 144l138 -142
q64 56 136 138l-136 141q64 79 104 169q-57 -13 -108 -13q-125 0 -232 59q-107 60 -172 160q-64 100 -64 220zM1022 585h-192v686h192v-686zM1882 1463h-422v-242q0 -56 44 -92t106 -36t102 36q42 36 42 92v50h128v-50q0 -101 -86 -172q-84 -71 -188 -71q-105 0 -188 71
q-82 70 -82 172v242q-46 0 -82 36q-38 37 -38 83v343q0 49 37 86t83 37h534q51 0 90 -34q38 -34 38 -80v-343q0 -50 -36 -89t-82 -39z" />
</svg>