<svg xmlns="http://www.w3.org/2000/svg" xmlns:xlink="http://www.w3.org/1999/xlink" version="1.1" viewBox="-10 0 2068 2048">
   <path fill="currentColor"
d="M1454 898q-116 50 -206 149h-500q-102 0 -177 -72t-75 -175t75 -178t177 -75h748v150h-748q-42 0 -72 30t-30 70t30 70q30 31 72 31h706zM150 800q0 -170 116 -286t282 -116h1046q104 0 176 74q72 75 72 178q0 62 -28 115q-29 54 -74 86q86 4 172 38q80 -109 80 -239
q0 -168 -117 -285t-281 -117h-1046q-150 0 -276 75q-128 76 -200 201q-72 126 -72 276q0 148 72 273q72 123 200 199q126 75 276 75h556q13 -73 46 -150h-602q-164 0 -282 -117q-116 -116 -116 -280zM2048 1235l-140 -141l-216 211l-210 -211l-140 141l210 210l-210 215
l140 140l210 -215l216 215l140 -140l-216 -215z" />
</svg>