<svg xmlns="http://www.w3.org/2000/svg" xmlns:xlink="http://www.w3.org/1999/xlink" version="1.1" viewBox="-10 0 2068 2048">
   <path fill="currentColor"
d="M1014 907q-282 0 -506 168l-172 -225q145 -105 318 -165q175 -60 359.5 -60t358.5 60t320 165l-124 159q-63 15 -102 31q-204 -133 -452 -133zM1858 625l168 -224q-215 -162 -474 -251q-256 -88 -538.5 -88t-539.5 88q-260 89 -474 251l168 224q182 -137 396 -209
q217 -72 449.5 -72t448.5 72q215 72 396 209zM1014 1189q-188 0 -340 115l340 449l96 -132q-4 -20 -4 -57q0 -184 114 -335q-107 -40 -206 -40zM1576 1520l-280 233l280 233v-141h376v-184h-376v-141zM2048 1379l-282 -238v141h-378v189h378v141z" />
</svg>