<svg xmlns="http://www.w3.org/2000/svg" xmlns:xlink="http://www.w3.org/1999/xlink" version="1.1" viewBox="-10 0 2058 2048">
   <path fill="currentColor"
d="M1332 1332q0 129 -89 218t-219 89t-219 -89q-88 -88 -88 -218v-101h206v101q0 43 29 72t72 29t72 -29t29 -72v-101h207v101zM1740 1332q0 196 -96 360q-97 165 -259 260q-163 96 -361 96q-196 0 -360 -96t-260 -260t-96 -360q0 -211 113 -387q112 -174 296 -262v-375
q0 -44 31 -75t70 -31h52l-101 -202h510l-101 202h53q38 0 69 31q32 32 32 75v375q183 87 295 262q113 176 113 387zM923 409v418q-179 39 -295 180q-118 144 -118 325q0 137 70 257q68 117 187 187t257 70t257 -70q120 -71 188 -187q69 -118 69 -257q0 -183 -117 -325
q-115 -141 -296 -180v-418h-202z" />
</svg>