<svg xmlns="http://www.w3.org/2000/svg" xmlns:xlink="http://www.w3.org/1999/xlink" version="1.1" viewBox="-10 0 2058 2048">
   <path fill="currentColor"
d="M484 0q92 0 149 60t60 144t-60 147t-147 60t-144 -60t-60 -144t60 -147t142 -60zM330 510h308q86 0 146 60t60 146v563h-154v769h-408v-769h-154v-563q0 -86 60 -146t142 -60zM1920 615h-614v202h614v-202zM1920 923h-308v202h308v-202zM1920 0h-614v202h614v-202z
M1920 308h-308v202h308v-202zM1920 1231h-614v202h614v-202zM1920 1846h-614v202h614v-202zM1920 1538h-308v202h308v-202z" />
</svg>