<svg xmlns="http://www.w3.org/2000/svg" xmlns:xlink="http://www.w3.org/1999/xlink" version="1.1" viewBox="-10 0 2068 2048">
   <path fill="currentColor"
d="M1124 1947h-202v-1538l-202 -207l98 -101l206 207l206 -207l102 101l-208 207v1538zM510 409q-140 0 -258 69q-117 69 -184 188q-68 118 -68 257q0 121 56 228q57 111 146 181v206q0 168 120 289q120 120 294 120q105 0 202 -53v-5v-1379q-136 -101 -308 -101zM462 1077
l-154 -154l154 -154l154 154zM2048 923q0 -138 -68 -257t-186 -188q-116 -69 -256 -69q-172 0 -308 101v1379q94 58 202 58q174 0 294 -120t120 -289v-206q88 -70 146 -181q56 -109 56 -228zM1586 1077l-154 -154l154 -154l154 154z" />
</svg>