<svg xmlns="http://www.w3.org/2000/svg" xmlns:xlink="http://www.w3.org/1999/xlink" version="1.1" viewBox="-10 0 2068 2048">
   <path fill="currentColor"
d="M1708 1774l208 128l-56 -240l188 -160l-248 -20l-92 -228l-96 228l-248 20l188 160l-60 240zM1200 1682h-1028q-73 -5 -120 -52t-52 -120v-1192q5 -73 52 -120t120 -52h1704q73 5 120 52t52 120v896q-71 -64 -172 -100v-796h-1704v1192h1028q-4 43 -4 88t4 84zM1196 1342
h-856v-108q0 -64 80 -120q68 -44 176 -68q91 -24 172 -24q80 0 172 24q108 24 176 68q80 56 80 120v108zM1196 830h340v84h-340v-84zM768 486q-89 0 -150 64q-62 65 -62 152q0 88 62 150t150 62t150 -62t62 -150q0 -87 -62 -152q-61 -64 -150 -64zM1196 658h512v84h-512v-84
zM1196 486h512v88h-512v-88z" />
</svg>