<svg xmlns="http://www.w3.org/2000/svg" xmlns:xlink="http://www.w3.org/1999/xlink" version="1.1" viewBox="-10 0 2068 2048">
   <path fill="currentColor"
d="M102 308h1844q44 0 73 29t29 71v208q0 36 -29 68t-73 32h-100v102q0 42 -31 73t-75 31h-616v222q92 33 150 112q58 81 58 176q0 130 -89 219t-219 89t-220 -88q-88 -88 -88 -220q0 -96 58 -176q57 -79 148 -112v-222h-614q-44 0 -74 -30q-32 -32 -32 -74v-102h-100
q-45 0 -74 -32q-28 -30 -28 -68v-208q0 -44 28 -72q30 -28 74 -28zM1024 1332q-44 0 -72 30q-30 33 -30 72.5t29 71.5t72.5 32t72 -32t28.5 -71.5t-28 -72.5q-29 -30 -72 -30z" />
</svg>