<svg xmlns="http://www.w3.org/2000/svg" xmlns:xlink="http://www.w3.org/1999/xlink" version="1.1" viewBox="-10 0 2068 2048">
   <path fill="currentColor"
d="M1140 121q247 0 456 121q210 121 330 328q122 208 122 454t-122 454q-120 207 -330 328q-209 121 -456 121q-231 0 -432 -110q-197 -109 -322 -301l144 -115q99 163 258 255q161 93 356 93q196 0 362 -98q164 -97 262 -265q98 -169 98 -362q0 -194 -98 -363
q-98 -168 -262 -265q-165 -97 -362 -97q-182 0 -338 85q-158 85 -256 229q-100 145 -126 322h250l-334 335l-340 -335h242q26 -229 150 -414q124 -183 322 -292q197 -108 426 -108zM1412 863q34 5 56 27q24 24 24 58v415q0 33 -26 59t-58 26h-500q-33 0 -58 -26
q-24 -25 -24 -59v-415q0 -34 24 -58q23 -22 58 -27v-89q0 -106 74 -178q73 -72 177.5 -72t178.5 72t74 178v89zM1158 651q-52 0 -88 36t-36 87v89h250v-89q0 -51 -38 -87q-37 -36 -88 -36z" />
</svg>