<svg xmlns="http://www.w3.org/2000/svg" xmlns:xlink="http://www.w3.org/1999/xlink" version="1.1" viewBox="-10 0 2068 2048">
   <path fill="currentColor"
d="M0 202v1644h818q264 0 480 -154q217 -156 298 -404q88 44 144 44q130 0 219 -89t89 -219t-89 -219t-219 -89q-72 0 -144 44q-81 -248 -298 -404q-216 -154 -480 -154h-818zM202 409h616q124 0 236 45q114 45 200 132q88 87 132 202q46 118 46 236t-46 236
q-44 113 -132 201t-200 133t-236 45h-616v-1230zM1740 923q39 0 72 31q34 32 34 70t-34 70q-33 31 -74 31q-42 0 -71 -29t-29 -70t31 -72t71 -31z" />
</svg>