<svg xmlns="http://www.w3.org/2000/svg" xmlns:xlink="http://www.w3.org/1999/xlink" version="1.1" viewBox="-10 0 2058 2048">
   <path fill="currentColor"
d="M1024 559q78 0 133 -55t55 -133q0 -51 -31 -96l-157 -275l-157 275q-30 43 -30 96q0 79 54 133q55 55 133 55zM1583 838h-467v-188h-183v188h-467q-118 0 -199 81t-81 199v838q0 40 29 66t63 26h1493q34 0 63 -26q28 -25 28 -66v-838q0 -119 -80 -199q-81 -81 -199 -81z
M1675 1864h-1301v-279q127 0 223 -96l100 -101l100 101q91 91 227 91t227 -91l101 -101l100 101q96 96 223 96v279zM1675 1445q-75 0 -123 -52l-200 -201l-201 201q-48 48 -127 48q-78 0 -131 -48l-196 -201l-201 201q-48 52 -122 52v-327q0 -40 26 -66t66 -26h1117
q39 0 65 26q27 27 27 66v327z" />
</svg>