<svg xmlns="http://www.w3.org/2000/svg" xmlns:xlink="http://www.w3.org/1999/xlink" version="1.1" viewBox="-10 0 2058 2048">
   <path fill="currentColor"
d="M1762 307h-350v-48q0 -74 50 -125q51 -52 122 -52q74 0 126 52q52 53 52 125v48zM1844 307v-48q0 -105 -77 -182t-183 -77q-104 0 -180 77q-74 75 -74 182v48q-43 0 -72 31q-28 32 -28 74v408q0 43 29 72t71 29h514q42 0 71 -29t29 -72v-408q0 -42 -28 -74
q-29 -31 -72 -31zM1844 1487q-189 0 -364 -58q-63 -19 -106 24l-226 226q-215 -111 -390 -286q-173 -173 -286 -391l226 -225q43 -43 24 -106q-58 -172 -58 -364q0 -43 -29 -72t-71 -29h-360q-42 0 -71 29t-29 72q0 346 132 667q132 323 375.5 566t566.5 376
q320 132 666 132q42 0 71 -29t29 -72v-359q0 -43 -29 -72t-71 -29z" />
</svg>