<svg xmlns="http://www.w3.org/2000/svg" xmlns:xlink="http://www.w3.org/1999/xlink" version="1.1" viewBox="-10 0 2067 2048">
   <path fill="currentColor"
d="M1860 1024v-466h-557v466h557zM1921 374q51 0 89 36q37 34 37 86v1242q0 48 -37 85t-89 37h-679q-53 0 -90 -37t-37 -85v-274h-487q-70 0 -135 48q-41 24 -118 100q-48 53 -83 82q-57 53 -104 76q-105 0 -153 -106q-56 -115 -21 -336q48 -260 222 -630h21l40 -74l74 -40
q85 -34 156 -44q100 -8 157 40h431v-84q0 -52 37 -86q38 -36 90 -36h152v-186h375v186h152zM932 654q-38 0 -67 26q-28 25 -28 66q0 39 28 64q29 26 67 26q40 0 66 -26t26 -64q0 -40 -26 -66t-66 -26z" />
</svg>