<svg xmlns="http://www.w3.org/2000/svg" xmlns:xlink="http://www.w3.org/1999/xlink" version="1.1" viewBox="-10 0 2068 2048">
   <path fill="currentColor"
d="M1924 2048l-498 -499l-14 19q-93 112 -142 150q-58 48 -104 60q-36 9 -100 9l76 -293q-243 -18 -430 -109q-189 -91 -250 -224q-17 80 -42 119q-44 77 -140 100q-63 14 -188 14q73 0 110 -101q36 -89 36 -240t-36 -240q-36 -100 -110 -100q129 0 182 13q101 27 138 106
q19 24 36 100l4 14q45 -104 184 -183l-636 -635l128 -128l1920 1924zM850 480l-78 -156q198 0 284 9q148 13 234 60q72 36 136 109q47 61 96 151q226 56 366 160q150 114 150 243q0 92 -78 176t-214 144zM1454 1005q0 45 28 71q26 25 70 25t70 -25q28 -26 28 -71t-28 -71
q-26 -25 -70 -25t-70 25q-28 26 -28 71z" />
</svg>