<svg xmlns="http://www.w3.org/2000/svg" xmlns:xlink="http://www.w3.org/1999/xlink" version="1.1" viewBox="-10 0 2068 2048">
   <path fill="currentColor"
d="M1432 899q0 -167 -120 -288l144 -145q85 78 134 195q48 112 48 238q-108 0 -210 38zM442 317l-144 -144q-139 144 -218 332q-80 186 -80 394t80 394q79 188 218 332l144 -144q-111 -116 -176 -265q-64 -150 -64 -317t64 -317q65 -149 176 -265zM1750 173l-144 144
q109 114 174 265q66 150 66 317v34q106 44 192 115q10 -97 10 -149q0 -205 -80 -394q-81 -190 -218 -332zM1024 692q-86 0 -146 60t-60 147t60 147t146 60t146 -60t60 -147t-60 -147t-146 -60zM592 466q-86 80 -136 195q-48 113 -48 238.5t48 237.5q50 115 136 195l144 -145
q-120 -120 -120 -288t120 -288zM1854 1149l-216 221l-216 -216l-144 144l216 216l-216 217l144 144l216 -216l216 216l146 -144l-218 -217l218 -216z" />
</svg>