<svg xmlns="http://www.w3.org/2000/svg" xmlns:xlink="http://www.w3.org/1999/xlink" version="1.1" viewBox="-10 0 2068 2048">
   <path fill="currentColor"
d="M188 0q-78 0 -133 55t-55 133v1303q0 73 55 128t133 55h1024v-183h-188v-375h436q117 -92 262 -92q65 0 138 27v-863q0 -79 -54 -133q-54 -55 -132 -55h-1486zM188 188h1486v745h-1486v-745zM188 1116h650v375h-650v-375zM1722 1212q-98 0 -165 67t-67 164v48
q-38 0 -68 26q-28 25 -28 65v371q0 39 28 67t68 28h462q40 0 68 -28t28 -67v-371q0 -40 -28 -65q-30 -26 -68 -26v-48q0 -96 -68 -164q-66 -67 -162 -67zM1722 1303q56 0 98 42q40 41 40 98v48h-278v-48q0 -56 42 -98t98 -42z" />
</svg>