<svg xmlns="http://www.w3.org/2000/svg" xmlns:xlink="http://www.w3.org/1999/xlink" version="1.1" viewBox="-10 0 2058 2048">
   <path fill="currentColor"
d="M828 293v-293l392 393l-392 389v-293q-156 0 -290 78q-137 79 -216 212q-80 136 -80 295l10 96h-196l-6 -96q0 -209 106 -391q106 -180 284 -285t388 -105zM1514 101h292q78 0 135 57t57 135v1563q0 78 -57 135t-135 57h-292q-84 0 -141 -57t-57 -135v-1563
q0 -78 57 -135t141 -57zM242 1367h878v681h-878q-76 0 -134 -57q-58 -58 -58 -135v-293q0 -81 58 -139q58 -57 134 -57z" />
</svg>