<svg xmlns="http://www.w3.org/2000/svg" xmlns:xlink="http://www.w3.org/1999/xlink" version="1.1" viewBox="-10 0 2068 2048">
   <path fill="currentColor"
d="M322 1596q0 -78 76 -221q62 -122 170 -269q107 139 172 269q78 145 78 221q0 100 -74 176q-71 74 -174.5 74t-175.5 -74q-72 -75 -72 -176zM2048 1024q0 200 -78 392q-75 189 -220.5 334t-333.5 221q-192 77 -392 77q-135 0 -274 -39q125 -53 200 -163q74 -110 74 -250
q0 -64 -34 -163h34q96 0 172 36q79 37 112 93l144 -149q-68 -81 -180 -132q-111 -50 -248 -50q-64 0 -120 9q-72 -124 -168 -255l-48 -62q50 -9 90 -55q40 -45 40 -104q0 -57 -46 -103t-106 -46q-59 0 -108 46q-48 45 -48 108q0 26 14 53l-120 163q-235 321 -278 534
q-126 -232 -126 -495q0 -200 78 -392q75 -189 220.5 -334t333.5 -221q192 -77 392 -77t392 77q188 76 333.5 221t220.5 334q78 192 78 392zM1538 769q0 -63 -48 -108q-50 -46 -108 -46q-60 0 -106 46q-46 45 -46 106q0 60 45 108t107 48q60 0 108 -48t48 -106z" />
</svg>