<svg xmlns="http://www.w3.org/2000/svg" xmlns:xlink="http://www.w3.org/1999/xlink" version="1.1" viewBox="-10 0 2058 2048">
   <path fill="currentColor"
d="M1024 0q130 0 219 89t89 216t-89 219q-88 91 -219 91t-219 -91t-88 -219t88 -216q89 -89 219 -89zM1024 716q250 0 459 108t209 262v592q0 172 -269 288v-226q0 -143 -264 -206q-89 -20 -135 -20q-134 0 -252 53t-142 135q210 82 394 82l101 -10v269l-101 5
q-205 0 -399 -82q-269 -116 -269 -288v-592q0 -154 209 -262t459 -108zM1024 923q-86 0 -146 60t-60 144q0 85 60 145t146 60q87 0 147 -60t60 -145q0 -84 -60 -144t-147 -60z" />
</svg>