<svg xmlns="http://www.w3.org/2000/svg" xmlns:xlink="http://www.w3.org/1999/xlink" version="1.1" viewBox="-10 0 2065 2048">
   <path fill="currentColor"
d="M3 230l130 -129l1812 1813l-130 134l-206 -206h-1405q-81 0 -141 -60t-60 -146v-1022q0 -78 50 -134q51 -57 128 -72zM631 0l393 394l393 -394l144 144l-264 264h547q81 0 141 60t60 146v1022q0 52 -24 96l-484 -485v-633h-633l-206 -206h53l-264 -264zM204 614v1022
h1204l-1026 -1022h-178zM1791 614q-43 0 -72 29q-28 28 -28 72q0 43 28 74t72 31t72 -31q29 -32 29 -74q0 -43 -29 -72t-72 -29zM1791 921q-43 0 -72 29q-28 28 -28 72q0 43 28 74t72 31t72 -31q29 -32 29 -74q0 -43 -29 -72t-72 -29z" />
</svg>