<svg xmlns="http://www.w3.org/2000/svg" xmlns:xlink="http://www.w3.org/1999/xlink" version="1.1" viewBox="-10 0 2068 2048">
   <path fill="currentColor"
d="M2048 1925l-1924 -1925l-124 124l182 182v1573h1572l170 169zM1060 1586q-161 0 -294 -77q-134 -77 -212 -213q-78 -135 -78 -299q0 -167 90 -307l146 147q-31 60 -36 114h152l96 101h-248q9 71 50 146h344l100 96h-366q114 96 256 96q80 0 164 -37l146 142
q-140 91 -310 91zM1060 613q142 0 256 96h-238l-90 -92q35 -4 72 -4zM832 462l-338 -338h1444v1444l-338 -338q46 -112 46 -229q0 -160 -78 -295q-78 -133 -214 -212q-134 -78 -294 -78q-117 0 -228 46zM1444 951h-118l-146 -146h214q42 77 50 146z" />
</svg>