<svg xmlns="http://www.w3.org/2000/svg" xmlns:xlink="http://www.w3.org/1999/xlink" version="1.1" viewBox="-10 0 2068 2048">
   <path fill="currentColor"
d="M866 159q176 0 302 127q126 126 126 306t-126 306t-306 126t-306 -126t-126 -306t126 -306q128 -127 310 -127zM866 377q-92 0 -154 63q-64 64 -64 152q0 87 64 151t150 64q88 0 152 -64q64 -63 64 -151q0 -89 -63 -152t-149 -63zM866 1130q208 0 438 76q-93 59 -160 167
q-143 -35 -278 -35q-154 0 -314 40q-143 41 -242 96q-102 56 -102 91v116h874q16 112 82 208h-1164v-324q0 -137 162 -243q133 -86 350 -141q192 -51 354 -51zM1674 807h162h212v217h-212v592q0 111 -81 192t-192 81t-189 -81q-80 -82 -80 -192q0 -111 80 -190
q78 -78 188 -78q59 0 112 20v-561z" />
</svg>