<svg xmlns="http://www.w3.org/2000/svg" xmlns:xlink="http://www.w3.org/1999/xlink" version="1.1" viewBox="-10 0 2058 2048">
   <path fill="currentColor"
d="M1024 716q72 345 19 693q-40 248 -134 471q-49 113 -91 168h307q129 -384 120 -755q-5 -223 -67 -476zM1399 529q34 40 48 67q129 208 110 447q-20 242 -172 418q62 -161 50 -338q-12 -175 -108 -330l-24 -33q-92 -126 -221 -202q-226 67 -368 259q-142 191 -142 433
q0 114 29 216q-134 -186 -134 -423q0 -178 79 -332q79 -153 219 -254q-245 -19 -447 105q-95 63 -164 145q88 -218 284 -342q231 -144 500 -105q-66 -90 -157 -159q-90 -68 -189 -101q235 4 418 144q90 66 158 168h29q244 0 437 145t260 370q-88 -121 -214 -200
q-126 -78 -281 -98z" />
</svg>