<svg xmlns="http://www.w3.org/2000/svg" xmlns:xlink="http://www.w3.org/1999/xlink" version="1.1" viewBox="-10 0 2068 2048">
   <path fill="currentColor"
d="M202 202q-82 0 -142 60t-60 147v1230q0 87 60 147t142 60h1644q82 0 142 -60t60 -147v-1024q0 -86 -60 -146t-142 -60h-822l-206 -207h-616zM922 817q96 0 176 58q80 57 108 149h640v207h-208v202h-206v-202h-226q-28 90 -108 146t-176 56q-134 0 -220 -87
q-86 -86 -86 -219q0 -134 86 -221q87 -89 220 -89zM922 1024q-48 0 -76 29q-28 28 -28 74q0 47 28 75q28 29 74 29t75 -29t29 -75q0 -45 -29 -74t-73 -29z" />
</svg>