<svg xmlns="http://www.w3.org/2000/svg" xmlns:xlink="http://www.w3.org/1999/xlink" version="1.1" viewBox="-10 0 2068 2048">
   <path fill="currentColor"
d="M1818 0h-1588q-96 0 -163 67t-67 162v1590q0 95 67 162t163 67h1588q96 0 164 -67q66 -66 66 -162v-1590q0 -96 -66 -162q-68 -67 -164 -67zM624 341q58 0 101 43t43 101t-42 99q-42 40 -102 40q-58 0 -98 -40t-40 -99q0 -60 40 -101q41 -43 98 -43zM912 1253h-118v454
h-340v-454h-112v-288q0 -90 67 -157t163 -67h112q94 0 161 67t67 157v288zM1424 1595l-288 -459h570zM1136 912l288 -459l282 459h-570z" />
</svg>