<svg xmlns="http://www.w3.org/2000/svg" xmlns:xlink="http://www.w3.org/1999/xlink" version="1.1" viewBox="-10 0 2068 2048">
   <path fill="currentColor"
d="M102 1024h408q0 -137 70 -257q68 -118 186 -188q118 -69 258 -69t256 69q120 71 188 188q70 119 70 257h408q44 0 73 29t29 72q0 42 -29 74t-73 32h-1844q-45 0 -74 -32q-28 -31 -28 -74q0 -44 28 -72q30 -29 74 -29zM308 1433h1432q44 0 75 31t31 74q0 44 -32 72
q-32 29 -74 29h-1432q-42 0 -74 -29t-32 -72q0 -42 32 -74q30 -31 74 -31zM1538 1846q42 0 71 29t29 72t-29 72t-71 29h-1028q-44 0 -73 -29t-29 -72t29 -72t73 -29h1028zM1332 1024q0 -130 -89 -219t-219 -89t-220 89q-88 88 -88 219h616zM1024 0l244 351
q-118 -43 -244.5 -43t-245.5 43zM134 510l428 -34q-96 81 -158 187q-62 104 -86 236zM1912 510l-182 389q-25 -128 -86 -236q-63 -110 -160 -187z" />
</svg>