<svg xmlns="http://www.w3.org/2000/svg" xmlns:xlink="http://www.w3.org/1999/xlink" version="1.1" viewBox="-10 0 2068 2048">
   <path fill="currentColor"
d="M1304 884h186v468h-186v-468zM1304 1442h186v188h-186v-188zM1394 606q150 0 280 60v-152h-1486v928h584q-26 -93 -26 -186q0 -176 86 -326q87 -149 238 -236q152 -88 324 -88zM2048 1256q0 180 -90 326q-89 148 -236 238q-147 88 -328 88q-162 0 -302 -76
q-141 -76 -228 -202h-676q-78 0 -132 -54q-56 -56 -56 -134v-1114q0 -78 55 -133t133 -55h558l188 188h740q78 0 132 54t54 132v288q88 88 138 204q50 119 50 250zM1394 794q-127 0 -232 60q-107 62 -168 168q-60 104 -60 233.5t60 232.5q61 108 168 170q106 64 232.5 64
t233.5 -64q106 -63 170 -170q62 -106 62 -232.5t-62 -233.5q-63 -106 -170 -168q-106 -60 -234 -60z" />
</svg>