<svg xmlns="http://www.w3.org/2000/svg" xmlns:xlink="http://www.w3.org/1999/xlink" version="1.1" viewBox="-10 0 2068 2048">
   <path fill="currentColor"
d="M1888 1762l-1372 -1372l-392 -388l-124 120l334 338l-152 442v778q0 39 28 70q28 30 68 30h102q40 0 68 -30q28 -31 28 -70v-96h986l462 462l124 -124zM526 1292q-65 0 -105.5 -44.5t-40.5 -101.5q0 -59 40.5 -103.5t103.5 -44.5q60 0 104 44t44 104q0 58 -44 102
t-102 44zM380 802l72 -224l228 224h-300zM1594 364l148 438h-562l282 288q27 -54 84 -76q57 -20 112 6q56 25 74 82q18 59 -6 110q-26 52 -68 70l280 284v-664l-202 -584q-18 -46 -54 -74q-36 -26 -88 -26h-1000l146 146h854z" />
</svg>