<svg xmlns="http://www.w3.org/2000/svg" xmlns:xlink="http://www.w3.org/1999/xlink" version="1.1" viewBox="-10 0 2058 2048">
   <path fill="currentColor"
d="M690 202l144 259l-144 255h-283l-140 -255l140 -259h283zM781 0h-461q-33 0 -48 24l-226 409l-9 28l9 29l226 404q15 29 48 29h461q29 0 44 -29l225 -404l10 -29l-10 -28l-225 -409q-15 -24 -44 -24zM1637 769l144 255l-144 255h-279l-144 -255l144 -255h279zM1728 562
h-461q-29 0 -44 29l-230 404l-10 29l10 29l230 404q15 28 44 28h461q28 0 43 -28l231 -404l9 -29l-9 -29l-231 -404q-15 -29 -43 -29zM690 1332l144 254l-144 260h-283l-140 -260l140 -254h283zM781 1125h-461q-33 0 -48 29l-226 404l-9 28l9 29l226 409q15 24 48 24h461
q29 0 44 -24l225 -409l10 -29l-10 -28l-225 -404q-15 -29 -44 -29z" />
</svg>