<svg xmlns="http://www.w3.org/2000/svg" xmlns:xlink="http://www.w3.org/1999/xlink" version="1.1" viewBox="-10 0 2068 2048">
   <path fill="currentColor"
d="M1024 0q279 0 514 103q237 104 372 279q138 176 138 387q0 256 -202 462v817h-1644v-817q-202 -205 -202 -462q0 -211 138 -387q136 -176 372 -279q234 -103 514 -103zM1638 1139q97 -77 152 -170q56 -92 56 -200q0 -153 -112 -283q-111 -131 -300 -207
q-191 -77 -410.5 -77t-411.5 77q-188 76 -300 207q-110 130 -110 283q0 106 56 200q56 95 150 170v707h1230v-707zM616 1639v-408h408v408h-408z" />
</svg>