<svg xmlns="http://www.w3.org/2000/svg" xmlns:xlink="http://www.w3.org/1999/xlink" version="1.1" viewBox="-10 0 2068 2048">
   <path fill="currentColor"
d="M810 176l-402 338l-116 -132l408 -338zM2048 382l-110 136l-406 -342l114 -132zM1170 250q215 0 394 104q177 105 282 286q106 179 106 390.5t-106 391.5q-106 181 -282 286q-179 104 -391.5 104t-390.5 -104q-177 -105 -284 -286q-104 -180 -104 -391t104 -391
q106 -181 284 -286q178 -104 388 -104zM1170 446q-112 0 -222 44q-108 43 -190 124q-81 82 -126 192q-46 112 -46 224.5t46 223.5q45 111 126 192q83 83 190 126q107 44 222 44q161 0 294 -78q136 -78 214 -213t78 -294.5t-78 -294.5q-78 -134 -214 -212q-134 -78 -294 -78z
M1074 592h146v444l316 142l-64 132l-398 -184v-534zM0 1228q0 -182 76 -338q74 -156 208 -266q-88 196 -88 406l6 110l-6 88q0 163 86 302q83 135 222 210q200 187 460 246q-91 18 -182 18q-210 0 -390 -104q-182 -106 -287 -284.5t-105 -387.5z" />
</svg>