<svg xmlns="http://www.w3.org/2000/svg" xmlns:xlink="http://www.w3.org/1999/xlink" version="1.1" viewBox="-10 0 2068 2048">
   <path fill="currentColor"
d="M1770 654h-280v-375h-1302q-78 0 -133 55t-55 133v1024h188q0 115 80 196q81 82 198 82q119 0 200 -82q80 -81 80 -196h558q0 115 80 196q80 82 198 82t198 -82q80 -81 80 -196h188v-467zM466 1630q-56 0 -97 -41t-41 -101t40 -98q42 -39 98 -39t98 39t42 98t-42 101
q-40 41 -98 41zM1116 933h-740v-188h740v188zM1582 1630q-58 0 -99 -41t-41 -101t42 -98q41 -39 97.5 -39t98.5 39t42 98t-42 101q-42 41 -98 41zM1490 1024v-231h232l182 231h-414z" />
</svg>