<svg xmlns="http://www.w3.org/2000/svg" xmlns:xlink="http://www.w3.org/1999/xlink" version="1.1" viewBox="-10 0 2068 2048">
   <path fill="currentColor"
d="M1024 0q200 0 392 77q188 76 333.5 221t220.5 334q78 192 78 392t-78 392q-75 189 -220.5 334t-333.5 221q-192 77 -392 77t-392 -77q-188 -76 -333.5 -221t-220.5 -334q-78 -192 -78 -392t78 -392q75 -189 220.5 -334t333.5 -221q192 -77 392 -77zM1508 1274
q97 -97 128.5 -226t-4.5 -262q-37 -132 -137.5 -233t-232.5 -137q-134 -36 -262 -5q-131 32 -226 127q-120 119 -188 298q-51 142 -66 323q-10 135 4 250l10 105l106 10q62 8 124.5 8t125.5 -8q173 -9 322 -63q176 -67 296 -187zM1144 601l96 207l206 96l-206 101l-96 206
l-102 -206l-206 -101l206 -96z" />
</svg>