<svg xmlns="http://www.w3.org/2000/svg" xmlns:xlink="http://www.w3.org/1999/xlink" version="1.1" viewBox="-10 0 2058 2048">
   <path fill="currentColor"
d="M1024 0q-64 0 -154 10v278q71 -14 154 -14t154 14v-278q-85 -10 -154 -10zM798 24q-220 52 -401 197q-179 143 -283 353t-104 450q0 278 137 514t370 373t507 137t507 -137t370 -373t137 -514q0 -243 -103 -450q-104 -209 -284 -353q-181 -145 -401 -197v284
q231 72 380 269t149 447q0 202 -104 375q-104 174 -276 274q-173 101 -375 101t-375 -101t-274 -274q-100 -172 -100 -375q0 -252 146 -447q148 -198 377 -269v-284zM1024 351q-84 0 -154 19v1298q76 15 157 15q79 0 151 -15v-1298q-70 -19 -154 -19z" />
</svg>