<svg xmlns="http://www.w3.org/2000/svg" xmlns:xlink="http://www.w3.org/1999/xlink" version="1.1" viewBox="-10 0 2068 2048">
   <path fill="currentColor"
d="M1966 125q34 0 58 26q24 27 24 60v1625q0 34 -24 61q-24 26 -58 26h-1370q-34 0 -60 -26t-26 -61v-298h-428q-34 0 -58 -26q-24 -27 -24 -60v-856q0 -33 24 -60q24 -26 58 -26h428v-299q0 -34 26 -60t60 -26h1370zM390 937l240 423h154v-673h-150v433l-230 -433h-164v673
h150v-423zM1922 1793v-255h-260v255h260zM1922 1409v-255h-260v255h260zM1922 1024v-255h-260v255h260zM1922 639v-384h-1282v255h298q34 0 60 26t26 60v856q0 34 -26 60t-60 26h-298v255h898v-1154h384z" />
</svg>