<svg xmlns="http://www.w3.org/2000/svg" xmlns:xlink="http://www.w3.org/1999/xlink" version="1.1" viewBox="-10 0 2068 2048">
   <path fill="currentColor"
d="M1860 1024q0 -284 -186 -523v1046q186 -230 186 -523zM1548 1674h-1046q86 73 243.5 130t278.5 57q123 0 278 -57t246 -130zM934 1491l-376 -746v746h376zM1490 745l-374 746h374v-746zM1024 1260l348 -702h-696zM1548 375q-231 -187 -523.5 -187t-522.5 187h1046z
M376 1547v-1046q-188 239 -188 528q0 288 188 518zM2048 1024q0 428 -298 726t-724 298q-425 0 -724 -298q-302 -299 -302 -723q0 -425 301 -726t725 -301t724 301q298 299 298 723z" />
</svg>