<svg xmlns="http://www.w3.org/2000/svg" xmlns:xlink="http://www.w3.org/1999/xlink" version="1.1" viewBox="-10 0 2068 2048">
   <path fill="currentColor"
d="M1011 622l-853 489q-39 19 -80 10q-40 -9 -63 -46q-23 -36 -10 -78q12 -41 51 -65l848 -490q39 -24 80 -12q39 12 63 49q22 36 10 77q-13 43 -46 66zM1059 1616q0 -161 78 -299q77 -138 211 -223q131 -84 293 -99l145 -723h102v-208h-1861v208h102l82 393l611 -354
q63 -39 136 -39q105 0 181 76q75 75 75 181q0 77 -33 134q-35 60 -97 94l-766 442l121 625h659q-39 -102 -39 -208zM1903 1252l-223 218l-218 -218l-146 145l218 219l-218 223l146 145l218 -223l223 223l145 -145l-223 -223l223 -219z" />
</svg>