<svg xmlns="http://www.w3.org/2000/svg" xmlns:xlink="http://www.w3.org/1999/xlink" version="1.1" viewBox="-10 0 2068 2048">
   <path fill="currentColor"
d="M1860 1394v-1116h-1672v1116h1672zM1860 96q78 0 134 54q54 54 54 128v1116q0 80 -54 134t-134 54h-648v186h182v184h-740v-184h184v-186h-650q-78 0 -132 -54q-56 -56 -56 -134v-1116q0 -72 55 -127t133 -55h1672zM376 466h836v466h-836v-466zM1304 466h370v188h-370
v-188zM1674 744v468h-370v-468h370zM376 1024h370v188h-370v-188zM838 1024h374v188h-374v-188z" />
</svg>