<svg xmlns="http://www.w3.org/2000/svg" xmlns:xlink="http://www.w3.org/1999/xlink" version="1.1" viewBox="-10 0 2058 2048">
   <path fill="currentColor"
d="M1638 1842h-1228v-144q0 -92 116 -173q91 -60 248 -105q140 -39 250 -39t250 39q157 45 248 105q116 81 116 173v144zM1024 614q129 0 218 91q88 92 88 218q0 127 -89 216t-218 89t-218 -89t-89 -216q0 -126 90 -218q88 -91 218 -91zM1024 206q42 0 71 29t29 72
q0 42 -28 74q-29 31 -72.5 31t-71.5 -31t-28 -74q0 -44 28 -72q28 -29 72 -29zM1738 206h-426q-33 -90 -114 -148q-80 -58 -174.5 -58t-175.5 58q-79 57 -112 148h-426q-86 0 -146 60t-60 146v1430q0 86 60 146t146 60h1428q86 0 146 -60t60 -146v-1430q0 -86 -60 -146
t-146 -60z" />
</svg>