<svg xmlns="http://www.w3.org/2000/svg" xmlns:xlink="http://www.w3.org/1999/xlink" version="1.1" viewBox="-10 0 2068 2048">
   <path fill="currentColor"
d="M1024 408q-236 0 -454 74q-218 73 -400 210l-170 -226q220 -167 478 -254q263 -90 545.5 -90t544.5 90q261 88 480 254l-170 226q-181 -136 -400 -210t-454 -74zM1118 1272q-46 -10 -94 -10q-190 0 -342 116l342 454l168 -226q-74 -166 -74 -294v-40zM1024 692
q-187 0 -362 60q-176 60 -324 168l174 226q225 -168 512 -168q100 0 200 22q113 -150 290 -196q-234 -112 -490 -112zM1972 1312q0 152 -166 400q-82 123 -164 214l-88 -102q-95 -126 -160 -246q-86 -162 -86 -266q0 -138 98 -236t234 -98t234 98t98 236zM1754 1320
q0 -44 -36 -80t-77 -36t-79 34q-36 34 -36 81t33 80t83 33t84 -36q36 -35 28 -76z" />
</svg>