<svg xmlns="http://www.w3.org/2000/svg" xmlns:xlink="http://www.w3.org/1999/xlink" version="1.1" viewBox="-10 0 2068 2048">
   <path fill="currentColor"
d="M1534 988v-220h206v32q-36 18 -62 44zM666 872q-22 0 -37 15t-15 33v154h614v-154q0 -18 -14 -32q-16 -16 -40 -16h-508zM308 768h-208v1126h720v-192l10 -14h-522v-920zM1842 666h-1842v-614h1842v614zM1636 258h-1430v202h1430v-202zM1022 1788v208h210l628 -624
l-210 -212zM2028 1122l-134 -134q-16 -14 -37 -14t-35 14l-100 100l210 212l96 -100q20 -15 20 -36q0 -22 -20 -42z" />
</svg>