<svg xmlns="http://www.w3.org/2000/svg" xmlns:xlink="http://www.w3.org/1999/xlink" version="1.1" viewBox="-10 0 2068 2048">
   <path fill="currentColor"
d="M1926 1591v-96l100 -74q22 -17 14 -26l-96 -157q0 -9 -26 -9l-114 44q-58 -35 -82 -44l-18 -122q0 -9 -6 -13t-16 -4h-182q-32 0 -32 17l-16 122l-74 44l-114 -44q-18 0 -26 9l-92 157q0 17 10 26l100 74v96l-100 74q-18 17 -10 26l92 161q8 9 26 9l114 -48q33 30 74 48
l16 118q22 21 32 21h182q10 0 16 -6t6 -15l18 -118l74 -48l112 39q18 0 26 -13l92 -157q8 -4 8 -11q0 -6 -8 -6zM1582 1674q-56 0 -98 -42q-42 -41 -42 -98t41 -98t98 -41t99 41q42 42 42 98t-42 98t-98 42zM1050 1905h-862q-78 0 -133 -55t-55 -129v-1490q0 -73 55 -128
t133 -55h1672q78 0 134 55q54 54 54 128v846q-94 -89 -188 -127v-531h-1672v1302h772q30 116 90 184z" />
</svg>