<svg xmlns="http://www.w3.org/2000/svg" xmlns:xlink="http://www.w3.org/1999/xlink" version="1.1" viewBox="-10 0 2058 2048">
   <path fill="currentColor"
d="M918 1295q105 0 189 60t114 157h344q176 0 303 127q126 126 126 303v106h-212v-106q0 -91 -63 -154t-154 -63h-344q-30 96 -114 156q-85 61 -189 61q-136 0 -230 -94t-94 -230t94 -230q93 -93 230 -93zM918 1512q-45 0 -76 31q-30 30 -30 75q0 46 30 76q31 31 76 31
t76 -31q30 -30 30 -76q0 -45 -30 -75q-31 -31 -76 -31zM1565 0q91 0 154 63t63 155v536q0 91 -63 154t-154 63h-339q-34 0 -63 18q-27 17 -38 48q-36 105 -141 141q-81 26 -162 -15t-111 -126q-11 -31 -38 -48q-29 -18 -63 -18h-339q-91 0 -154 -63t-63 -154v-536
q0 -92 63 -155t154 -63h1294zM1565 754v-536h-1294v536h500q19 -40 61 -71q43 -32 86 -36q43 4 86 36q40 30 60 71h501z" />
</svg>