<svg xmlns="http://www.w3.org/2000/svg" xmlns:xlink="http://www.w3.org/1999/xlink" version="1.1" viewBox="-10 0 2068 2048">
   <path fill="currentColor"
d="M1838 1326q0 -2 5 -18v-30v54zM821 1278q0 113 43 208h-557v100q0 44 -31 75t-70 31h-105q-39 0 -70 -31t-31 -75v-816l211 -614q20 -50 58 -78q40 -28 91 -28h1123q52 0 91 28q38 28 58 78l211 614v508q0 -138 -70 -256q-68 -116 -187 -184q-118 -68 -257 -68
q-138 0 -256 68t-185 184t-67 256zM514 1024q0 -62 -46 -108t-110 -46q-63 0 -108 46q-44 46 -44 108.5t44 107.5q44 46 108 46q65 0 110 -46q46 -46 46 -108zM1636 664l-153 -460h-1123l-154 460h1430zM2035 1812l-423 -422q34 -80 15 -166q-20 -90 -84 -154.5t-161 -81.5
q-97 -16 -182 22l201 202l-139 138l-201 -200q-43 86 -27 180q17 93 84 160t154 86q86 20 168 -14l417 422q14 14 34 14q19 0 33 -14l106 -106q14 -13 17 -36q3 -21 -12 -30z" />
</svg>