<svg xmlns="http://www.w3.org/2000/svg" xmlns:xlink="http://www.w3.org/1999/xlink" version="1.1" viewBox="-10 0 2068 2048">
   <path fill="currentColor"
d="M1674 865q142 0 268 81q0 -60 -16 -137q-14 -34 -54 -45q-19 -10 -36 -10h-218v-107q0 -66 -56 -96q-24 -10 -50 -10h-218v-111q0 -66 -54 -91q-26 -15 -52 -15h-110v-218q0 -66 -50 -91q-30 -15 -56 -15q-264 0 -486 132t-354 354t-132 485q0 264 132 486t354 354
q221 131 486 131q66 0 106 -5v-425q0 -76 32 -139q35 -67 84 -109q29 -170 166 -285q137 -114 314 -114zM380 1077q-72 0 -117 -45t-45 -114q0 -68 45 -116t115 -48q68 0 116 48t48 116q0 69 -48 114t-114 45zM542 486q0 -65 46 -114q44 -48 114 -48q68 0 116 48t48 114
q0 65 -48 113t-116 48q-70 0 -114 -48q-46 -49 -46 -113zM866 1725q-70 0 -116 -46t-46 -114q0 -67 46 -116q44 -48 112 -48t116 48q50 49 50 116q0 68 -49.5 114t-112.5 46zM916 1189q-64 0 -114 -49q-48 -48 -48 -116q0 -69 48 -114t116 -45q70 0 115 45t45 114
q0 68 -46 116q-45 49 -116 49zM1942 1401v-51q0 -111 -78 -192t-190 -81t-192 81q-80 80 -80 192v51q-42 0 -75 33t-33 78v430q0 46 33 76t75 30h540q46 0 76 -30t30 -76v-430q0 -45 -30.5 -78t-75.5 -33zM1836 1401h-324v-51q0 -71 45 -116t115 -45q68 0 116 45t48 116v51z
" />
</svg>