<svg xmlns="http://www.w3.org/2000/svg" xmlns:xlink="http://www.w3.org/1999/xlink" version="1.1" viewBox="-10 0 2068 2048">
   <path fill="currentColor"
d="M1588 921q68 0 152 19v-427h-1640v1329h874q-54 -126 -54 -254q0 -182 90 -336q88 -153 242 -242q153 -89 336 -89zM614 1022v-154q0 -18 15 -33t37 -15h508q24 0 40 15q14 14 14 33v154h-614zM1842 408h-1842v-408h1842v408zM1588 1127q-193 0 -326 135
q-136 137 -136 326t136 326q132 134 325.5 134t326.5 -134q134 -136 134 -326t-134 -326q-134 -135 -326 -135zM1588 1895q-131 0 -219.5 -91t-88.5 -216q0 -87 44 -154l416 418q-66 43 -152 43zM1850 1741l-416 -417q66 -43 154 -43q122 0 214 89q92 88 92 218
q0 86 -44 153z" />
</svg>