<svg xmlns="http://www.w3.org/2000/svg" xmlns:xlink="http://www.w3.org/1999/xlink" version="1.1" viewBox="-10 0 2068 2048">
   <path fill="currentColor"
d="M1674 96l-462 418v1020l462 -418v-1020zM514 374q-143 0 -274 32q-142 34 -240 108v1360q0 16 16 32t32 16l22 -4q98 -49 218 -78q120 -28 226 -28q147 0 270 36q141 33 240 104q92 -56 242 -98q147 -42 268 -42q258 0 444 100q6 6 18 6h4q16 0 32 -16t16 -32v-1356
q-73 -56 -188 -96v1256q-150 -44 -326 -44q-118 0 -268 38q-152 40 -242 100v-1254q-97 -74 -240 -108q-125 -32 -270 -32z" />
</svg>