<svg xmlns="http://www.w3.org/2000/svg" xmlns:xlink="http://www.w3.org/1999/xlink" version="1.1" viewBox="-10 0 2068 2048">
   <path fill="currentColor"
d="M1024 663q-150 0 -256 106t-106 255t106 255t255 106t255 -106t106 -255t-106 -255t-254 -106zM1024 1568q-148 0 -274 -72q-125 -71 -198 -198q-72 -126 -72 -274t72 -274q72 -125 198 -197q127 -73 273.5 -73t274.5 73q126 72 198 197q72 126 72 274t-72 274t-198 198
t-274 72zM1750 723v-425h-424l-302 -298l-302 298h-424v425l-298 301l298 302v425h424l302 297l302 -297h424v-425l298 -302z" />
</svg>