<svg xmlns="http://www.w3.org/2000/svg" xmlns:xlink="http://www.w3.org/1999/xlink" version="1.1" viewBox="-10 0 2068 2048">
   <path fill="currentColor"
d="M1508 782q-100 0 -171 -71t-71 -172q0 -99 72 -173q70 -73 171 -73t174 73t73 173q0 102 -74 172q-74 71 -174 71zM1212 699l-1212 1212l138 137l1210 -1211q-85 -50 -136 -138zM1070 393l64 -137l132 -59l-132 -60l-64 -137l-60 137l-132 60l132 59zM1852 393l58 -137
l138 -59l-138 -60l-58 -137l-60 137l-136 60l136 59zM1852 782l-60 132l-136 64l136 60l60 132l58 -132l138 -60l-138 -64z" />
</svg>