<svg xmlns="http://www.w3.org/2000/svg" xmlns:xlink="http://www.w3.org/1999/xlink" version="1.1" viewBox="-10 0 2058 2048">
   <path fill="currentColor"
d="M1882 1401q46 5 76 35q32 32 36 76v430q-4 44 -36 76q-30 30 -76 30h-534q-46 0 -76 -30q-31 -30 -36 -76v-430q5 -46 35.5 -76t76.5 -35v-162q0 -112 78 -190t190 -78q110 0 188 78t78 190v162zM1776 1401v-162q0 -66 -48 -114t-112 -48q-66 0 -114 48t-48 114v162h322z
M912 218v647h126l-232 233l-232 -233h126v-647h212zM1130 0h-648v647h-428l752 754l754 -754h-430v-647zM1024 1618h-970v218h970v-218z" />
</svg>