<svg xmlns="http://www.w3.org/2000/svg" xmlns:xlink="http://www.w3.org/1999/xlink" version="1.1" viewBox="-10 0 2068 2048">
   <path fill="currentColor"
d="M1792 1538q-28 0 -38 5l-168 -336q76 -77 76 -183t-74 -180q-74 -75 -180 -75q-22 0 -44 5l-162 -337q76 -72 76 -180t-74 -183q-74 -74 -180 -74t-180 74q-76 75 -76 183t78 180l-164 337q-21 -5 -42 -5q-106 0 -181 75t-75 182q0 109 78 181l-168 336q-10 -5 -40 -5
q-104 0 -180 75q-74 74 -74 180t74 180q76 75 181 75t180 -75t75 -182q0 -109 -78 -181l168 -336q17 5 40 5q21 0 38 -5l168 336q-78 72 -78 181q0 107 75 182t180 75t180 -75t75 -180t-75 -180t-179 -75q-28 0 -38 5l-168 -336q76 -76 76 -183t-76 -183l168 -336q10 5 38 5
t38 -5l168 336q-76 72 -76 181q0 108 74 182q74 75 180 75q22 0 38 -5l168 336q-76 72 -76 181q0 107 75 182t180 75t180 -75t75 -180t-75 -180t-181 -75zM254 1894q-42 0 -71 -29t-29 -72t29 -72t72 -29t72 29t29 72t-29 72t-73 29zM1124 1793q0 43 -29 72t-72 29t-72 -29
t-29 -72t29 -72t72 -29t72 29t29 72zM538 1024q0 -43 29 -72t72 -29t72 29t29 72t-29 72t-72 29t-72 -29t-29 -72zM922 255q0 -43 29 -72t72 -29t72 29t29 72t-29 72t-72 29t-72 -29t-29 -72zM1308 1024q0 -44 28 -72q28 -29 72 -29t72 29q28 28 28 72t-28 72q-28 29 -72 29
t-72 -29q-28 -28 -28 -72zM1792 1894q-42 0 -71 -29t-29 -72t29 -72t72 -29t72 29t29 72t-29 72t-73 29z" />
</svg>