<svg xmlns="http://www.w3.org/2000/svg" xmlns:xlink="http://www.w3.org/1999/xlink" version="1.1" viewBox="-10 0 2068 2048">
   <path fill="currentColor"
d="M1656 1865l242 142l-64 -274l214 -183l-284 -23l-108 -256l-110 256l-280 23l216 183l-70 274zM2048 1221v4q-169 -151 -392 -151q-156 0 -292 78q-134 78 -214 213q-80 136 -80 294q0 41 10 96h-32q-35 -52 -94 -84q-58 -30 -126 -30q-108 0 -188 76q-78 75 -78 185v146
h-370q-76 0 -134 -57q-58 -58 -58 -135v-370h148q110 0 185 -78t75 -187q0 -110 -75.5 -188t-184.5 -78h-148v-370q0 -77 58 -135q58 -57 134 -57h394v-146q0 -100 70 -174q71 -73 172 -73t172 73q70 74 70 174v146h394q76 0 134 57q58 58 58 135v393h146q98 0 172 71
q74 70 74 172z" />
</svg>