<svg xmlns="http://www.w3.org/2000/svg" xmlns:xlink="http://www.w3.org/1999/xlink" version="1.1" viewBox="-10 0 2068 2048">
   <path fill="currentColor"
d="M1846 512h-1644q-82 0 -142 60t-60 147v817h202v-202h1644v202h202v-817q0 -87 -60 -147t-142 -60zM510 1026q0 43 -29 72t-72 29t-72 -29t-29 -72v-206q0 -43 29 -72t72 -29t72 29t29 72v206zM922 1026q0 44 -30 72q-33 29 -74 29q-44 0 -74 -29q-28 -28 -28 -72v-206
q0 -44 28 -72q30 -29 74 -29q41 0 74 29q30 28 30 72v206zM1332 1026q0 43 -29 72t-72 29t-75 -29q-32 -28 -32 -72v-206q0 -44 32 -72q32 -29 75 -29t72 29t29 72v206zM1740 1026q0 43 -29 72t-72 29t-72 -29t-29 -72v-206q0 -43 29 -72t72 -29t72 29t29 72v206z" />
</svg>