<svg xmlns="http://www.w3.org/2000/svg" xmlns:xlink="http://www.w3.org/1999/xlink" version="1.1" viewBox="-10 0 2058 2048">
   <path fill="currentColor"
d="M1769 188h-301q-25 -82 -98 -135t-161 -53t-161 53t-98 135h-296q-79 0 -133 54q-55 55 -55 133v1116q0 73 55 128t133 55h1115q73 0 128 -55t55 -128v-1116q0 -78 -55 -133q-54 -54 -128 -54zM1211 188q41 0 66 28q26 29 26 63q0 35 -29 66q-28 30 -63 30t-65 -30
q-31 -31 -31 -66q0 -33 27 -63q25 -28 69 -28zM1394 1212h-649v-188h649v188zM1673 837h-928v-183h928v183zM279 1861h1302v187h-1302q-74 0 -128 -54q-55 -55 -55 -133v-1303h183v1303z" />
</svg>