<svg xmlns="http://www.w3.org/2000/svg" xmlns:xlink="http://www.w3.org/1999/xlink" version="1.1" viewBox="-10 0 2068 2048">
   <path fill="currentColor"
d="M1212 933h558v370h-188v-187h-370v-183zM1582 279h-928q-126 0 -232 63q-107 63 -170 170q-64 106 -64 233v837h-188v187h1860q80 0 134 -54t54 -133v-837q0 -127 -64 -233q-63 -107 -170 -170q-106 -63 -232 -63zM934 1582h-558v-837q0 -117 80 -198q80 -80 196 -80
q117 0 198 80q84 81 84 198v837zM1860 1582h-744v-837q0 -157 -92 -278h558q118 0 198 80t80 198v837z" />
</svg>