<svg xmlns="http://www.w3.org/2000/svg" xmlns:xlink="http://www.w3.org/1999/xlink" version="1.1" viewBox="-10 0 2068 2048">
   <path fill="currentColor"
d="M412 885q124 242 316 435q194 194 434 317l252 -250q48 -48 116 -27q191 64 406 64q42 0 78 32q34 31 34 80v400q0 43 -34 77q-36 35 -78 35q-527 0 -976 -267q-437 -257 -692 -693q-268 -448 -268 -976q0 -42 35 -77t77 -35h400q49 0 80.5 35t31.5 77q0 214 64 405
q22 70 -26 118zM1594 453l198 -197q-80 -85 -198 -85t-203 82t-85 200t85 203t203 85q69 0 128 -32q60 -32 96 -85h198q-55 129 -168 208q-115 80 -254 80q-192 0 -325 -133t-133 -323t133 -323t323 -133t322 133l134 -133v453h-454z" />
</svg>