<svg xmlns="http://www.w3.org/2000/svg" xmlns:xlink="http://www.w3.org/1999/xlink" version="1.1" viewBox="-10 0 2068 2048">
   <path fill="currentColor"
d="M1348 1010q114 -114 114 -277t-114 -277l138 -136q83 83 128 190q46 110 46 226t-46 224q-46 104 -128 188zM1270 736q0 -82 -57 -139t-141 -57t-144 68l274 274q68 -59 68 -146zM1628 1284l136 138q134 -134 208 -312q76 -178 76 -376.5t-76 -377.5q-74 -177 -208 -310
l-136 136q104 105 166 250t62 304t-62 302q-63 143 -166 246zM2048 1728v-114h-114zM1878 1806l74 72l-124 124l-196 -196h-266q0 40 -27 70t-69 30h-392q-42 0 -68 -30q-28 -31 -28 -70h-682v-192h682q0 -40 28 -72q26 -30 68 -30h100v-360l-260 -260q31 73 82 118
l-138 138q-81 -82 -126 -188q-46 -108 -46 -224q0 -49 4 -68l-164 -166q-38 122 -38 234q0 159 62 302q62 141 168 246l-138 138q-133 -134 -208 -312q-76 -180 -76 -376q0 -200 78 -382l-178 -178l128 -124l1754 1756h-4zM1440 1614l-270 -270v168h100q42 0 69 30t27 72h74
z" />
</svg>