<svg xmlns="http://www.w3.org/2000/svg" xmlns:xlink="http://www.w3.org/1999/xlink" version="1.1" viewBox="-10 0 2058 2048">
   <path fill="currentColor"
d="M483 1507q0 45 -30 78t-76 33t-76 -33t-30 -75q0 -43 30 -76t76 -33t76 33t30 73zM700 1507q-46 0 -76 33t-30 76t30 76q29 32 76 32t76 -32q30 -33 30 -76t-30 -76t-76 -33zM160 1724q-41 0 -74 33t-33 76t33 76t76 33t76 -33t33 -76t-33 -76t-78 -33zM483 1831
q-41 0 -73 32q-33 33 -33 76t33 76t75 33q43 0 76 -33t33 -76t-33 -76q-32 -32 -78 -32zM1382 76l-596 748l384 380l748 -592q72 -67 76 -159q5 -93 -66 -164l-227 -228q-65 -65 -162 -61q-96 5 -157 76zM635 1133l227 222q30 36 76 36q45 0 81 -36l70 -70l-379 -385l-75 76
q-31 31 -31 76q0 44 31 81z" />
</svg>