<svg xmlns="http://www.w3.org/2000/svg" xmlns:xlink="http://www.w3.org/1999/xlink" version="1.1" viewBox="-10 0 2058 2048">
   <path fill="currentColor"
d="M1499 197v600l-201 -197l-201 197v-600h-399v1603h310q13 80 70 196h-581q-80 0 -138 -61q-59 -62 -59 -135v-104h-201v-196h201v-403h-201v-197h201v-403h-201v-197h201v-103q0 -79 59 -138t138 -59h1199q76 0 138 61q64 62 64 136v979q-81 -52 -202 -70v-909h-197z
M300 1696h197v-196h-197v196zM300 1097h197v-197h-197v197zM300 497h197v-197h-197v197zM1809 1350l-211 206l-211 -206l-141 140l211 206l-211 211l141 141l211 -211l211 211l140 -141l-211 -211l211 -206z" />
</svg>