<svg xmlns="http://www.w3.org/2000/svg" xmlns:xlink="http://www.w3.org/1999/xlink" version="1.1" viewBox="-10 0 2068 2048">
   <path fill="currentColor"
d="M1024 0q-80 0 -144 58l-822 822q-58 57 -58 144t58 144l822 822q58 58 144 58t144 -58l822 -822q58 -58 58 -144t-58 -144l-822 -822q-65 -58 -144 -58zM1024 505q134 4 218.5 85.5t89.5 197.5q4 116 -72 217q-25 24 -78 65q-57 44 -74 67q-22 28 -26 70q-6 27 -6 72
h-154q0 -79 6 -116q4 -56 28 -93q25 -37 102 -85l42 -33q62 -56 74 -123q13 -65 -28 -113q-40 -48 -122 -57q-64 0 -108 45q-46 46 -46 113h-154q0 -130 91 -221t217 -91zM922 1385h154v153h-154v-153z" />
</svg>