<svg xmlns="http://www.w3.org/2000/svg" xmlns:xlink="http://www.w3.org/1999/xlink" version="1.1" viewBox="-10 0 2058 2048">
   <path fill="currentColor"
d="M398 1693l500 -496l186 187q-88 145 -88 309h-598zM696 847q0 -61 -42 -106q-41 -44 -104 -44q-64 0 -108 44q-44 45 -44 106q0 60 44 105q44 44 108 44q63 0 104 -44q42 -45 42 -105zM1006 1796h-706v-1599h696v500h500v407q69 -10 100 -10q33 0 102 10v-505l-600 -599
h-798q-84 0 -143 59t-59 138v1599q0 79 60 138q58 58 142 58h780q-57 -97 -74 -196zM1810 1342l-216 211l-210 -211l-140 141l210 210l-210 215l140 140l210 -215l216 215l140 -140l-216 -215l216 -210z" />
</svg>