<svg xmlns="http://www.w3.org/2000/svg" xmlns:xlink="http://www.w3.org/1999/xlink" version="1.1" viewBox="-10 0 2068 2048">
   <path fill="currentColor"
d="M1952 1251q37 42 55 86l9 18q50 125 21 253q-31 130 -125 221q-82 76 -201 104q-112 27 -227 10q-104 -14 -198 -76q-96 -64 -148 -152q-37 -64 -50 -127q-15 -38 -23 -105q-5 -117 41 -232q44 -114 132 -187q-41 92 -32 191q8 97 69 178l13 9q17 17 42.5 8.5t25.5 -35.5
l-4 -23q-64 -170 -16 -346q48 -178 184 -291q88 -71 173 -92q-51 102 -34 217q16 116 98 189q20 24 82 72q36 28 59 51zM1734 1701l-4 -4q35 -27 52 -71q16 -43 16 -89l-5 -31q-10 -43 -36 -78q-15 -24 -57 -59q-44 -36 -66 -66q-24 -31 -41 -71q-28 64 -14 146l10 46
q17 71 13 113q-15 53 -52 92q-39 40 -103 54q41 41 98 59t112 0q35 -9 77 -41zM679 1847v-291h-678l482 -487h-291l487 -483h-292l487 -487l482 487h-291l178 173q-169 96 -269 269q-100 171 -100 382q0 250 137 437h-332z" />
</svg>