<svg xmlns="http://www.w3.org/2000/svg" xmlns:xlink="http://www.w3.org/1999/xlink" version="1.1" viewBox="-10 0 2068 2048">
   <path fill="currentColor"
d="M1024 101l244 351q-118 -43 -244.5 -43t-245.5 43zM134 611l428 -34q-96 81 -158 187q-62 104 -86 236zM1912 611l-182 389q-25 -128 -86 -236q-63 -110 -160 -187zM1230 1433q0 -44 -30 -72q-33 -29 -76 -29h-1022q-44 0 -74 29q-28 28 -28 72t28 72q30 29 74 29h1022
q43 0 76 -29q30 -28 30 -72zM2048 1433q0 -43 -29 -72t-73 -29h-408q-42 0 -74 29q-32 28 -32 72t32 72q32 29 74 29h408q44 0 73 -29t29 -72zM818 1841q0 44 31 75t73 31h924q43 0 72 -31q28 -32 28 -75t-29 -72t-71 -29h-924q-41 0 -74 29q-30 28 -30 72zM102 1841
q0 44 28 75t72 31h308q42 0 74 -31q32 -32 32 -75t-32.5 -72t-73.5 -29h-308q-44 0 -72 29q-28 28 -28 72zM1024 817q130 0 219 89t89 219h206q0 -139 -70 -257q-68 -117 -188 -188q-117 -69 -256.5 -69t-257.5 69q-118 70 -186 188q-70 120 -70 257h206q0 -131 88 -219
q90 -89 220 -89z" />
</svg>