<svg xmlns="http://www.w3.org/2000/svg" xmlns:xlink="http://www.w3.org/1999/xlink" version="1.1" viewBox="-10 0 2068 2048">
   <path fill="currentColor"
d="M1300 1026h140v262l228 131l-70 123l-298 -175v-341zM2048 1306q0 173 -88 325t-238 238q-150 87 -326 87q-192 0 -350 -102q-161 -103 -238 -269h-624q-76 0 -130 -54t-54 -133v-1118q0 -80 54 -134t130 -54h1492q74 0 128 54q56 55 56 134v567q92 92 140 210
q48 119 48 249zM1396 839q-126 0 -232 63q-107 63 -170 170q-64 108 -64 234q0 125 64 233q63 108 170 169q105 61 232 61q129 0 234.5 -61t167.5 -169q62 -106 62 -233q0 -128 -62 -234q-61 -107 -168 -170q-106 -63 -234 -63zM1676 651v-280h-1492v280h1492z" />
</svg>