<svg xmlns="http://www.w3.org/2000/svg" xmlns:xlink="http://www.w3.org/1999/xlink" version="1.1" viewBox="-10 0 2058 2048">
   <path fill="currentColor"
d="M1231 0h-822q-86 0 -146 60q-61 61 -61 142v1644q0 81 61 142q60 60 146 60h1230q87 0 147 -60t60 -142v-1231zM1639 1846h-1230v-1644h716v514h514v1130zM1332 1125q0 67 -39 120q-24 33 -81 84t-77 80q-34 49 -34 105h-154q0 -96 43 -158q28 -38 92 -87q49 -40 67 -62
q29 -34 29 -82q0 -62 -46 -108t-108 -46t-108 46t-46 108h-153q0 -125 88 -216q89 -92 219 -92t219 92t89 216zM1101 1586v154h-154v-154h154z" />
</svg>