<svg xmlns="http://www.w3.org/2000/svg" xmlns:xlink="http://www.w3.org/1999/xlink" version="1.1" viewBox="-10 0 2058 2048">
   <path fill="currentColor"
d="M1024 467v278l370 -370l-370 -375v279q-200 0 -372 100q-172 101 -273 273q-100 172 -100 372q0 212 118 397l135 -135q-66 -122 -66 -262q0 -149 75 -281q73 -129 202 -202q130 -74 281 -74zM1651 628l-135 135q65 124 65 261q0 151 -74 281t-202 203q-130 74 -281 74
v-279l-370 371l370 374v-279q200 0 372 -100q173 -101 273 -272q100 -172 100 -373q0 -211 -118 -396z" />
</svg>