<svg xmlns="http://www.w3.org/2000/svg" xmlns:xlink="http://www.w3.org/1999/xlink" version="1.1" viewBox="-10 0 2068 2048">
   <path fill="currentColor"
d="M1024 0q200 0 392 77q188 76 333.5 221t220.5 334q78 192 78 392t-78 392q-75 189 -220.5 334t-333.5 221q-192 77 -392 77t-392 -77q-188 -76 -333.5 -221t-220.5 -334q-78 -192 -78 -392t78 -392q75 -189 220.5 -334t333.5 -221q192 -77 392 -77zM1024 202
q-105 0 -180 77q-76 77 -76 182q0 106 76 181q74 74 180 74t180 -74q74 -75 74 -181q0 -105 -74 -182q-76 -77 -180 -77zM246 769q-34 102 14 197q48 96 148.5 128t195 -17t126.5 -149q34 -103 -14 -195q-48 -94 -148 -127q-103 -34 -196 14q-94 49 -126 149zM1802 769
q-32 -100 -128 -149q-92 -47 -194 -14q-100 33 -148 127q-49 94 -16 195q33 100 128 149q94 48 194 17q101 -32 150 -128q48 -96 14 -197zM544 1687q86 63 192 46t165.5 -103t42.5 -190q-16 -103 -100 -166t-190 -46q-105 16 -168 101q-63 83 -46 190q16 104 104 168z
M1504 1687q87 -63 104 -168q16 -106 -46.5 -192t-165.5 -101t-190 48t-103.5 166t43.5 190q60 86 166 103t192 -46zM1024 870q-62 0 -108 46t-46 108t46 108t108 46t108 -46t46 -108t-46 -108t-108 -46z" />
</svg>