<svg xmlns="http://www.w3.org/2000/svg" xmlns:xlink="http://www.w3.org/1999/xlink" version="1.1" viewBox="-10 0 2068 2048">
   <path fill="currentColor"
d="M1332 1231q129 0 254 48q154 63 154 154v105h-818v-105q0 -91 154 -154q125 -48 256 -48zM1332 1125q86 0 146 -60t60 -144q0 -85 -60 -145t-146 -60q-88 0 -148 60t-60 145q0 84 60 144t148 60zM2048 615v1024q0 87 -60 147t-142 60h-1644q-82 0 -142 -60t-60 -147
v-1230q0 -87 60 -147t142 -60h616l206 207h822q82 0 142 60t60 146zM1846 615h-1644v1024h1644v-1024z" />
</svg>