<svg xmlns="http://www.w3.org/2000/svg" xmlns:xlink="http://www.w3.org/1999/xlink" version="1.1" viewBox="-10 0 2058 2048">
   <path fill="currentColor"
d="M1777 271l175 -175v462h-462l192 -192q-72 -94 -251 -161q-174 -65 -407 -65t-407 65q-179 67 -251 161l192 192h-462v-462l174 175q108 -125 305 -197q202 -74 449 -74t449 74q196 72 304 197zM1743 1421v17l-70 488q-9 54 -46 88t-89 34h-632q-56 0 -95 -43l-462 -458
l74 -74q30 -30 74 -30h22l318 69v-997q0 -57 41 -98q42 -42 98 -42t98 42q41 41 41 98v557h74q7 0 35 5l13 4l423 209q83 39 83 131z" />
</svg>