<svg xmlns="http://www.w3.org/2000/svg" xmlns:xlink="http://www.w3.org/1999/xlink" version="1.1" viewBox="-10 0 2068 2048">
   <path fill="currentColor"
d="M2048 1125v822h-202v-207h-352q-63 141 -190 224q-127 84 -280.5 84t-281.5 -84q-126 -83 -190 -224h-350v207h-202v-822h202v207h356q76 -184 260 -265v-144h-202v-207h816v207h-202v144q182 81 260 265h356v-207h202zM1538 0h-1028q-38 0 -70 29q-32 28 -32 72t32 72
q32 29 70 29h308v106h104v307h202v-307h106v-106h308q37 0 70 -29q30 -28 30 -72t-30 -72q-33 -29 -70 -29z" />
</svg>