<svg xmlns="http://www.w3.org/2000/svg" xmlns:xlink="http://www.w3.org/1999/xlink" version="1.1" viewBox="-10 0 2058 2048">
   <path fill="currentColor"
d="M1236 191h-570v-191h570v191zM1044 1710q0 146 66 271q-76 13 -160 13q-232 0 -426 -113q-197 -114 -312 -312q-116 -197 -116 -429t116 -428q114 -195 311.5 -311t426.5 -116q148 0 286 51q136 51 248 140l134 -138q69 61 134 134l-134 138q89 111 138 247
q50 135 50 283v35q-95 -35 -192 -35q-150 0 -282 78t-210 209q-78 132 -78 283zM1044 570h-186v668h186v-668zM1952 1509l-134 -133l-204 200l-200 -200l-134 133l200 201l-200 204l134 134l200 -205l204 205l134 -134l-204 -204z" />
</svg>