<svg xmlns="http://www.w3.org/2000/svg" xmlns:xlink="http://www.w3.org/1999/xlink" version="1.1" viewBox="-10 0 2058 2048">
   <path fill="currentColor"
d="M974 1508q0 128 48.5 240.5t129.5 198.5h-858q-84 0 -141 -57t-57 -135v-1563q0 -78 57 -135t141 -57h96v681l246 -147l242 147v-681h586q82 0 139 57t57 135v685h-50q-173 0 -318 85q-144 84 -232 231q-86 145 -86 315zM1560 1755q-102 0 -172 -73q-72 -74 -72 -174
q0 -52 28 -110l-110 -105q-64 100 -64 215q0 165 114 279t276 114v147l218 -220l-218 -219v146zM1560 1120v-147l-220 220l220 219v-146q98 0 172 71q74 70 74 171q0 59 -28 110l106 105q68 -95 68 -215q0 -160 -114 -274t-278 -114z" />
</svg>