<svg xmlns="http://www.w3.org/2000/svg" xmlns:xlink="http://www.w3.org/1999/xlink" version="1.1" viewBox="-10 0 2064 2048">
   <path fill="currentColor"
d="M1845 892v-484l-408 -408h-1227q-86 0 -146 60t-60 146v1430q0 86 60 146t146 60h685q-47 -108 -62 -225q-96 -29 -156 -108t-60 -180q0 -129 89 -218t218 -89q28 0 91 24q100 -110 235 -168q136 -58 288 -58q178 0 307 72zM1231 614h-1021v-408h1021v408zM1917 1597
v-105l110 -82q23 -19 14 -28l-105 -173q0 -10 -29 -10l-125 48q-63 -39 -91 -48l-19 -134q0 -10 -7 -14q-8 -5 -17 -5h-201q-34 0 -34 19l-19 134l-81 48l-125 -48q-19 0 -29 10l-101 173q0 18 10 28l110 82v105l-110 82q-19 19 -10 29l101 177q10 10 29 10l125 -53
q42 35 81 53l19 129q24 24 34 24h201q10 0 17 -7t7 -17l19 -129l82 -53l124 43q21 0 29 -14l101 -173q9 -4 9 -12q0 -7 -9 -7zM1538 1689q-62 0 -108 -46t-46 -108t46 -108q45 -45 108 -45t108 45t45 108t-45 108q-46 46 -108 46z" />
</svg>