<svg xmlns="http://www.w3.org/2000/svg" xmlns:xlink="http://www.w3.org/1999/xlink" version="1.1" viewBox="-10 0 2058 2048">
   <path fill="currentColor"
d="M1682 1253q-44 0 -87 17v-17q0 -115 -50 -221q-49 -105 -132 -180q28 -161 -50 -310q-78 -148 -231 -219q-122 -55 -248 -40q-130 15 -234 91q-105 76 -159 197q-58 128 -37 265q21 138 107 240h-25q-145 0 -248 103t-103 250q0 148 103 251t248 103h87l25 -4
q24 -4 41 -21q25 -25 25 -64t-25 -60q-16 -16 -41 -25l-25 -4h-87q-74 0 -126 -52q-51 -51 -51 -124t51 -124q52 -52 126 -52h178q0 -144 104 -248q103 -103 248 -103t248 103t103 248v178h265q38 0 64 25q27 25 27 62q0 36 -27 62q-26 25 -64 25h-174l-25 4q-25 9 -41 25
q-25 21 -25 60t25 64q17 17 41 21l25 4h174q111 0 188 -77q76 -76 76 -188t-76 -188q-77 -77 -188 -77zM1066 724q-122 0 -226 49t-180 137q-34 -59 -35 -130q-2 -73 27 -139q50 -116 170 -161q121 -45 240 4q78 38 128 110q48 70 53 159q-89 -29 -177 -29zM1202 161
q-76 -29 -149 -45l224 -116l78 256q-67 -51 -153 -95zM545 231q-64 44 -116 108l12 -248l261 58q-83 29 -157 82zM1595 699q-12 -85 -37 -153l211 132l-182 199q17 -85 8 -178zM276 840q10 80 33 149l-207 -133l178 -194q-13 96 -4 178zM1049 1253h215l-145 290h145
l-269 505l54 -360h-182z" />
</svg>