<svg xmlns="http://www.w3.org/2000/svg" xmlns:xlink="http://www.w3.org/1999/xlink" version="1.1" viewBox="-10 0 2058 2048">
   <path fill="currentColor"
d="M640 1708q0 47 -38 88q-37 40 -90 40t-90 -40q-38 -41 -38 -90q0 -50 38 -88t90 -38t90 38t38 90zM1536 1580q-52 0 -90 38t-38 88q0 49 38 90q37 40 90 40t90 -40q38 -41 38 -90q0 -50 -38 -88t-90 -38zM1876 1708q0 140 -100 240t-240 100h-1024q-140 0 -240 -100
t-100 -242t100 -242t240 -100h24q-127 -103 -204 -262q-76 -156 -76 -334q0 -208 102 -386t280 -280t386 -102t386 102t280 280t102 386q0 178 -76 334q-77 159 -204 262h24q140 0 240 100t100 244zM1024 1364q163 0 300 -80q136 -80 216 -216q80 -137 80 -300t-80 -300
q-80 -136 -216 -216q-137 -80 -300 -80t-300 80q-136 80 -216 216q-80 137 -80 300t80 300q80 136 216 216q137 80 300 80zM1708 1708q0 -72 -50 -122t-122 -50h-1024q-72 0 -122 50t-50 120t50 120t122 50h1024q72 0 122 -50t50 -118zM1100 536q0 -65 46 -108
q47 -44 110 -44q64 0 108 44t44 108q0 63 -44 110q-43 46 -108 46q-64 0 -110 -46t-46 -110zM640 536q0 -64 44 -108t108 -44q63 0 110 44q46 43 46 108q0 64 -46 110t-110 46q-65 0 -108 -46q-44 -47 -44 -110zM792 872q0 35 -26 64q-25 28 -66 28q-40 0 -68 -28t-28 -66
t26 -70t66 -32q39 0 68 32q28 31 28 72zM1176 1084q0 64 -44 108t-108 44t-108 -44t-44 -108t44 -108t108 -44t108 44t44 108zM1452 872q0 36 -28 64t-66 28t-66 -28t-28 -68q0 -39 26 -70q26 -30 66 -30q39 0 68 32q28 31 28 72z" />
</svg>