<svg xmlns="http://www.w3.org/2000/svg" xmlns:xlink="http://www.w3.org/1999/xlink" version="1.1" viewBox="-10 0 2058 2048">
   <path fill="currentColor"
d="M1231 0h-822q-86 0 -146 60q-61 61 -61 142v1644q0 81 61 142q60 60 146 60h1230q87 0 147 -60t60 -142v-1231zM1538 1788q0 24 -17 41t-40 17q-265 0 -486 -132q-220 -132 -353 -354q-132 -221 -132 -485q0 -24 17 -41t41 -17h201q24 0 41 17t17 41q0 105 29 207
q9 29 -14 57l-125 125q129 244 374 375l130 -125q19 -23 53 -14q108 34 207 34q25 0 40 14q17 15 17 38v202zM1125 716v-562l567 562h-567z" />
</svg>