<svg xmlns="http://www.w3.org/2000/svg" xmlns:xlink="http://www.w3.org/1999/xlink" version="1.1" viewBox="-10 0 2058 2048">
   <path fill="currentColor"
d="M1631 861v-677q0 -74 -55 -129t-133 -55h-1117q-78 0 -133 55t-55 129v1493q0 74 55 129t133 55h475q90 90 208 139q115 48 246 48q180 0 330 -87q151 -87 238 -238q87 -150 87 -325q0 -167 -76 -306t-203 -231zM1443 184v589q-96 -30 -188 -30q-146 0 -279 65v-624h467z
M326 184h187v747l232 -210l148 135q-130 87 -209 232q-79 146 -79 310q0 146 65 279h-344v-1493zM1255 1861q-127 0 -233 -61t-168 -169q-61 -106 -61 -233q0 -128 61 -234q62 -107 168 -170t233 -63t234 63t170 170t63 234t-63 233q-64 108 -170 169t-234 61zM1303 1420
l267 157l-70 113l-336 -200v-468h139v398z" />
</svg>