<svg xmlns="http://www.w3.org/2000/svg" xmlns:xlink="http://www.w3.org/1999/xlink" version="1.1" viewBox="-10 0 2058 2048">
   <path fill="currentColor"
d="M840 654h182v558h-182v-558zM930 1769q-178 0 -326 -87t-236 -237q-86 -150 -86 -327t86 -327q88 -150 236 -237t326 -87q219 0 392 133q175 134 232 337q22 -4 74 -4q56 0 122 9q-44 -190 -166 -345l130 -135q-67 -75 -130 -130l-130 135q-114 -90 -244 -138
q-137 -50 -280 -50q-226 0 -418 114q-193 115 -304 305q-114 193 -114 418q0 226 114 420q112 194 304 305q194 112 418 112q111 0 232 -31q-62 -73 -96 -170q-59 17 -136 17zM1210 0h-558v188h558v-188zM1580 1164v-140l-210 210l210 209v-140q95 0 164 68q70 68 70 163
q0 56 -26 105l100 100q66 -90 66 -205q0 -153 -108 -261q-110 -109 -266 -109zM1580 1769q-96 0 -164 -69q-68 -70 -68 -166q0 -50 26 -104l-104 -101q-60 95 -60 205q0 157 109 266t261 109v139l208 -209l-208 -209v139z" />
</svg>