<svg xmlns="http://www.w3.org/2000/svg" xmlns:xlink="http://www.w3.org/1999/xlink" version="1.1" viewBox="-10 0 2068 2048">
   <path fill="currentColor"
d="M1846 0h-1644q-82 0 -142 60t-60 142v1846l408 -409h1438q82 0 142 -60t60 -146v-1231q0 -82 -60 -142t-142 -60zM1846 1433h-1520l-124 125v-1356h1644v1231zM1514 952l-110 -82v-101l110 -82q14 -15 14 -33l-106 -173q-19 -19 -28 -10l-134 39l-20 -15q-46 -30 -72 -34
l-20 -134q0 -11 -6 -15q-7 -4 -18 -4h-202q-10 0 -16 4q-8 4 -8 15l-18 134q-26 15 -46 25q-25 12 -46 24l-124 -49q-20 0 -30 10l-100 173q-15 9 10 29l110 87v101l-110 81q-10 10 -10 29l100 178q20 19 30 10l124 -34l24 19q42 30 58 34l20 134q0 20 32 20h202q10 0 18 -8
q6 -7 6 -12l20 -134q44 -15 82 -53l124 53q20 0 30 -10l100 -173q29 -28 10 -43zM1024 971q-62 0 -108 -46t-46 -105q0 -60 46 -109q44 -48 107 -48t109 48q46 49 46 109q0 59 -46 105t-108 46z" />
</svg>