<svg xmlns="http://www.w3.org/2000/svg" xmlns:xlink="http://www.w3.org/1999/xlink" version="1.1" viewBox="-10 0 2068 2048">
   <path fill="currentColor"
d="M2048 510h-202v-510h-208v240l-614 260l-616 -260v-240h-206v510h-202v206h206q20 172 152 291q132 118 306 118q108 0 204 -46q91 -44 156 -127q68 83 158 127q94 46 202 46q174 0 305.5 -118t150.5 -291h208v-206zM664 923q-105 0 -180 -77q-76 -76 -76 -183v-202
l514 222q-9 101 -84 170q-76 70 -174 70zM1638 663q0 108 -74 183q-75 77 -178 77q-101 0 -178 -70q-74 -69 -84 -170l514 -222v202zM0 1332v206h102q224 0 396 147q169 146 208 363h634q40 -217 210 -363q170 -147 396 -147h102v-206h-2048zM1186 1846h-326
q-71 -177 -216 -308h760q-147 133 -218 308z" />
</svg>