<svg xmlns="http://www.w3.org/2000/svg" xmlns:xlink="http://www.w3.org/1999/xlink" version="1.1" viewBox="-10 0 2068 2048">
   <path fill="currentColor"
d="M246 1461q-117 -137 -182 -309q-64 -170 -64 -357q0 -157 78 -286q77 -130 208 -205q130 -75 286 -75q132 0 252 62q123 63 200 162q78 -99 200 -162q121 -62 254 -62q154 0 284 75q131 75 208 205q78 129 78 286q0 187 -64 357q-65 172 -182 309l156 155l-160 160
l-160 -160q-126 94 -286 149q-157 54 -327.5 54t-328.5 -54q-159 -55 -284 -149l-160 160l-160 -160zM1472 1451l-448 -448l-448 448q203 144 448 144t448 -144zM912 795q0 -138 -102 -240t-242 -102t-239 102t-99 240q0 282 176 506zM1642 1301q176 -224 176 -506
q0 -138 -99 -240t-239 -102t-242 102q-102 101 -102 240z" />
</svg>