<svg xmlns="http://www.w3.org/2000/svg" xmlns:xlink="http://www.w3.org/1999/xlink" version="1.1" viewBox="-10 0 2058 2048">
   <path fill="currentColor"
d="M1024 13q0 14 -10 29q-71 110 -86 196l-4 24l100 -5q206 0 384 104t280 280q104 176 104 384q0 246 -140 446q-220 368 -594 576q-21 5 -30 -10q-8 -15 6 -29q58 -83 82 -182l4 -38l-96 4q-207 0 -384 -103q-178 -104 -280 -280q-104 -176 -104 -384q0 -250 140 -441
q220 -369 594 -581q11 -5 20 -2t14 12zM1024 718q-130 0 -218 89q-88 88 -88 218t88 218q88 89 218 89t218 -89q88 -88 88 -218t-88 -218q-88 -89 -218 -89z" />
</svg>