<svg xmlns="http://www.w3.org/2000/svg" xmlns:xlink="http://www.w3.org/1999/xlink" version="1.1" viewBox="-10 0 2068 2048">
   <path fill="currentColor"
d="M562 169q-154 0 -284 77q-128 76 -204 207q-74 129 -74 283q0 69 20 154h418l130 -346q19 -44 56 -58q39 -15 77.5 0t58.5 58l210 548l64 -144q9 -25 36 -41q27 -17 54 -17h904q20 -89 20 -154q0 -152 -75 -283t-205 -207q-129 -77 -284 -77q-137 0 -260 65
q-125 65 -200 175q-77 -111 -200 -175q-123 -65 -262 -65zM102 1044q-44 0 -74 29q-28 28 -28 72t28 72q30 29 74 29h248l572 567q55 46 80 60q22 13 44 0q24 -14 78 -60l572 -567h250q44 0 73 -29t29 -72t-29 -72t-73 -29h-778l-96 235q-20 49 -60 65q-42 17 -80 -2
t-58 -63l-210 -543l-96 236q-16 34 -40 53q-23 19 -56 19h-370z" />
</svg>