<svg xmlns="http://www.w3.org/2000/svg" xmlns:xlink="http://www.w3.org/1999/xlink" version="1.1" viewBox="-10 0 2068 2048">
   <path fill="currentColor"
d="M684 683h682v682h-682v-682zM454 1595h1140v-1142h-1140v1142zM1366 229h228v-229h-228v229zM1366 2048h228v-229h-228v229zM1818 1595h230v-230h-230v230zM1818 683h230v-230h-230v230zM1818 2048q96 0 164 -67q66 -66 66 -162h-230v229zM1818 1136h230v-224h-230v224z
M912 2048h224v-229h-224v229zM684 0h-230v229h230v-229zM0 1595h230v-230h-230v230zM230 2048v-229h-230q0 95 67 162t163 67zM1818 0v229h230q0 -96 -66 -162q-68 -67 -164 -67zM1136 0h-224v229h224v-229zM0 683h230v-230h-230v230zM454 2048h230v-229h-230v229zM0 1136
h230v-224h-230v224zM0 229h230v-229q-96 0 -163 67t-67 162z" />
</svg>