<svg xmlns="http://www.w3.org/2000/svg" xmlns:xlink="http://www.w3.org/1999/xlink" version="1.1" viewBox="-10 0 2068 2048">
   <path fill="currentColor"
d="M0 726l134 -134l204 204l200 -204l134 134l-200 204l200 200l-134 134l-200 -200l-204 200l-134 -134l206 -200zM1286 262q156 0 267 111t111 271q0 158 -111 269t-267 111t-267 -111t-111 -269q0 -160 111 -271t267 -111zM1286 444q-84 0 -142 58t-58 142q0 82 58 140
t142 58t142 -58t58 -140q0 -84 -58 -142t-142 -58zM1286 1118q147 0 312 44q190 48 308 124q142 93 142 214v286h-1522v-286q0 -121 142 -214q117 -76 306 -124q166 -44 312 -44zM1286 1300q-133 0 -276 36q-132 38 -214 84q-88 49 -88 80v102h1156v-102q0 -31 -88 -80
q-81 -46 -214 -84q-142 -36 -276 -36z" />
</svg>