<svg xmlns="http://www.w3.org/2000/svg" xmlns:xlink="http://www.w3.org/1999/xlink" version="1.1" viewBox="-10 0 2068 2048">
   <path fill="currentColor"
d="M1100 1128q0 79 -10 130q-10 53 -30 88q-20 34 -48 48q-30 14 -72 14t-72 -14q-27 -13 -50 -50q-21 -33 -32 -86q-10 -47 -10 -130v-212q0 -82 10 -132q11 -54 32 -84q24 -34 50 -46q30 -14 70 -14q41 0 72 14q30 13 50 46q19 31 30 86q10 51 10 126v216zM1180 600
q-41 -49 -104 -72q-65 -24 -136 -24q-72 0 -138 24q-65 24 -106 74q-39 48 -64 136q-24 85 -24 202v164q0 124 24 208q24 82 68 136q42 51 108 74q63 22 132 22q68 0 134 -24q67 -24 108 -76t64 -136q22 -82 22 -204v-164q0 -120 -24 -204t-64 -136zM2028 1228
q-16 -40 -54 -66t-88 -44q-42 -15 -110 -34q-40 -4 -76 -18q-37 -14 -50 -24q-16 -12 -22 -26q-8 -18 -8 -32q0 -15 8 -34q7 -18 26 -30q20 -13 40 -20q24 -8 54 -8q33 0 54 10q24 11 40 26q19 18 26 38q8 24 8 38h168q0 -49 -22 -92q-23 -45 -58 -74q-37 -31 -92 -50
q-57 -20 -122 -20q-66 0 -120 18q-55 18 -90 46q-36 28 -58 70q-22 41 -22 90q0 47 20 84q19 35 52 60t84 44q34 13 112 32q53 13 78 22q30 10 48 24q17 13 24 28q6 14 6 38q0 40 -34 64t-102 24q-28 0 -52 -6q-25 -6 -48 -22q-25 -17 -36 -38q-12 -22 -12 -54h-164
q0 45 22 88q23 44 60 80q38 37 96 56q60 20 132 20q75 0 126 -16q53 -17 92 -44q40 -28 62 -68t22 -94t-20 -86zM0 660v144l256 -88v820h172v-1024h-24z" />
</svg>