<svg xmlns="http://www.w3.org/2000/svg" xmlns:xlink="http://www.w3.org/1999/xlink" version="1.1" viewBox="-10 0 2058 2048">
   <path fill="currentColor"
d="M1024 0q198 0 361 96q162 95 259 260q96 164 96 360q0 240 -183 587q-139 251 -345 519q-95 126 -188 226l-110 -130q-128 -159 -250 -332q-151 -230 -245 -432q-111 -250 -111 -443q0 -191 96 -355t260 -260t360 -96zM1024 202q-138 0 -257 70t-187 187q-70 120 -70 257
q0 83 19 149q31 124 135 308q123 225 360 538q240 -318 361 -538q102 -181 134 -308q19 -66 19 -149q0 -138 -69 -257q-68 -116 -188 -187q-119 -70 -257 -70zM923 409h202v514h-202v-514zM923 1125h202v207h-202v-207z" />
</svg>