<svg xmlns="http://www.w3.org/2000/svg" xmlns:xlink="http://www.w3.org/1999/xlink" version="1.1" viewBox="-10 0 2068 2048">
   <path fill="currentColor"
d="M778 96l196 196h782q78 0 135 57t57 140v338q-95 -37 -192 -46v-292h-1564v973h878q14 104 50 197h-928q-76 0 -134 -57q-58 -58 -58 -140v-1170q0 -81 58 -139q58 -57 134 -57h586zM1656 877v147q164 0 278 114t114 274q0 120 -68 215l-106 -105q28 -51 28 -110
q0 -101 -74 -171q-74 -71 -172 -71v146l-220 -224q24 -20 220 -215zM1656 1952v-147q-162 0 -276 -114t-114 -279q0 -115 64 -215l110 105q-28 58 -28 110q0 100 72 174q70 73 172 73v-146l222 219q-15 12 -222 220z" />
</svg>