<svg xmlns="http://www.w3.org/2000/svg" xmlns:xlink="http://www.w3.org/1999/xlink" version="1.1" viewBox="-10 0 2068 2048">
   <path fill="currentColor"
d="M464 97l1146 1145l202 -203l136 136l-234 234l306 307q28 32 28 70t-28 65l-72 73q-26 27 -66 27q-38 0 -70 -27l-306 -307l-234 239l-136 -135l204 -208l-1146 -1146v-270h270zM1398 823l456 -456v-270h-272l-454 455zM920 1306l-270 -276l-212 212l-204 -203l-134 136
l234 234l-306 312q-28 27 -28 65t28 70l72 68q26 27 64 27q39 0 70 -27l308 -307l234 239l136 -135l-204 -208z" />
</svg>