<svg xmlns="http://www.w3.org/2000/svg" xmlns:xlink="http://www.w3.org/1999/xlink" version="1.1" viewBox="-10 0 2058 2048">
   <path fill="currentColor"
d="M1074 192q0 -81 54 -136q56 -56 134 -56t134 56t56 133q0 78 -56 134t-134 56t-134 -56q-54 -55 -54 -131zM484 1669l-106 -139l-116 90l228 290q76 93 178 133q40 13 70 -13q23 -18 27.5 -47t-17.5 -56q-12 -12 -28 -17q-65 -26 -110 -81l-10 -9l330 -232l86 -303
l200 192v428h-192v143h370q122 0 214 -58q36 -22 36 -63q0 -26 -22 -49q-22 -22 -54 -22q-18 0 -36 9q-57 36 -128 40v-571l-202 -192l58 -285q93 110 232 174q136 62 294 62v-187q-132 0 -242 -65q-108 -63 -168 -167l-98 -152q-63 -94 -160 -94q-40 0 -116 27q-3 1 -95 40
t-181 76l-180 76v446h192v-326l170 -67l-152 777z" />
</svg>