<svg xmlns="http://www.w3.org/2000/svg" xmlns:xlink="http://www.w3.org/1999/xlink" version="1.1" viewBox="-10 0 2068 2048">
   <path fill="currentColor"
d="M1818 0h-1588q-96 0 -163 67t-67 162v1590q0 95 67 162t163 67h1588q96 0 164 -67q66 -66 66 -162v-1590q0 -96 -66 -162q-68 -67 -164 -67zM1136 464l128 -123l160 160l160 -160l122 123l-160 160l160 160l-122 128l-160 -160l-160 160l-128 -128l160 -160zM364 533h570
v171h-570v-171zM966 1477h-224v230h-170v-230h-230v-170h230v-224h170v224h224v170zM1706 1616h-570v-171h570v171zM1706 1344h-570v-171h570v171z" />
</svg>