<svg xmlns="http://www.w3.org/2000/svg" xmlns:xlink="http://www.w3.org/1999/xlink" version="1.1" viewBox="-10 0 2058 2048">
   <path fill="currentColor"
d="M1332 2048h-208q-82 0 -142 -60t-60 -142v-514h616v514q0 82 -60 142t-146 60zM510 1231h1436l-614 -443v-379q0 -91 -40 -178q-47 -106 -130 -164q-99 -67 -242 -67q-142 0 -238 67q-86 56 -130 164q-42 86 -42 178q0 42 -22 72q-22 29 -80 29h-100v-409h-206v923h206
v-308h100q155 0 240 -105q68 -88 68 -202q0 -64 28 -116q53 -91 176 -91q124 0 176 86q28 53 28 121v379z" />
</svg>