<svg xmlns="http://www.w3.org/2000/svg" xmlns:xlink="http://www.w3.org/1999/xlink" version="1.1" viewBox="-10 0 2068 2048">
   <path fill="currentColor"
d="M1256 698q-97 0 -164 68q-68 69 -68 166q0 96 68 164t164 68q95 0 164 -68q70 -69 70 -164q0 -96 -70 -166q-68 -68 -164 -68zM676 466h-118v928h118q69 0 130 -82q49 -74 74 -192q26 -108 26 -190t-26 -190q-25 -117 -74 -186q-61 -88 -130 -88zM1674 96h-1298
q-78 0 -132 54q-51 53 -56 128v1304h188v-1304h1298v1304h186v-1304q-4 -75 -56 -128q-53 -54 -130 -54zM2048 1952h-2048v-92q0 -78 56 -132q54 -54 132 -54h1672q80 0 134 54t54 132v92z" />
</svg>