<svg xmlns="http://www.w3.org/2000/svg" xmlns:xlink="http://www.w3.org/1999/xlink" version="1.1" viewBox="-10 0 2058 2048">
   <path fill="currentColor"
d="M684 0h1024q68 0 118 50t50 122v1364q0 72 -50 122t-118 50h-1024q-72 0 -122 -50t-50 -122v-1364q0 -72 50 -122t122 -50zM1260 980q152 0 236 -96q59 -67 76 -168q60 -19 98 -70q38 -50 38 -114q0 -80 -56 -136t-136 -56t-136 56t-56 136q0 59 32 108q32 48 84 72
q-17 57 -64 92q-68 48 -180 48q-160 0 -256 72v-336q55 -19 92 -70q36 -50 36 -114q0 -80 -56 -136t-136 -56t-136 56t-56 136q0 64 36 114q37 51 92 70v532q-55 19 -92 70q-36 50 -36 110q0 80 56 136t136 56t136 -56t56 -136q0 -57 -34 -106q-36 -51 -86 -70
q24 -56 84 -92q83 -52 228 -52zM876 1236q24 0 44 20t20 46t-20 44t-46 18t-44 -18t-18 -44t18 -46t46 -20zM876 340q24 0 44 20t20 46t-20 44t-46 18t-44 -18t-18 -44t18 -46t46 -20zM1516 468q24 0 44 20t20 46t-20 44t-46 18t-44 -18t-18 -44t18 -46t46 -20zM1364 1876
v172h-1024q-68 0 -118 -50t-50 -122v-1364h168v1364h1024z" />
</svg>