<svg xmlns="http://www.w3.org/2000/svg" xmlns:xlink="http://www.w3.org/1999/xlink" version="1.1" viewBox="-10 0 2068 2048">
   <path fill="currentColor"
d="M164 615h144v717h202v-717h412v202h202v-202h414v717h202v-717h168q43 0 72 -31q28 -32 28 -74q0 -19 -4 -29l-264 -481h-1432l-236 466q-19 39 -4 77q14 38 48 58q22 14 48 14zM432 202h1182l102 207h-1384zM0 1433v206h202v409h1644v-409h202v-206h-2048zM1638 1846
h-1230v-207h1230v207zM1220 923q26 0 40 14t14 34l-38 317q-5 20 -20 32q-16 12 -34 12h-316q-20 0 -34 -12q-15 -11 -20 -32l-38 -307q0 -25 12 -41q12 -17 32 -17h402z" />
</svg>