<svg xmlns="http://www.w3.org/2000/svg" xmlns:xlink="http://www.w3.org/1999/xlink" version="1.1" viewBox="-10 0 2068 2048">
   <path fill="currentColor"
d="M1024 0q200 0 392 77q188 76 333.5 221t220.5 334q78 192 78 392t-78 392q-75 189 -220.5 334t-333.5 221q-192 77 -392 77t-392 -77q-188 -76 -333.5 -221t-220.5 -334q-78 -192 -78 -392t78 -392q75 -189 220.5 -334t333.5 -221q192 -77 392 -77zM1024 202
q-285 0 -504 175q-222 176 -290 440l1000 1000q264 -67 440 -288t176 -505h-538v154h350q-39 152 -144 276q-107 124 -254 181l-846 -847q75 -186 239.5 -302t370.5 -116q158 0 298 72q139 72 234 202l126 -110q-116 -154 -288 -243q-174 -89 -370 -89zM202 1024
q0 220 110 411q111 190 300 300q191 111 412 111q8 0 -822 -822z" />
</svg>