<svg xmlns="http://www.w3.org/2000/svg" xmlns:xlink="http://www.w3.org/1999/xlink" version="1.1" viewBox="-10 0 2068 2048">
   <path fill="currentColor"
d="M516 0v258h-516v257h306q-84 72 -129 171t-45 212q0 210 150 360q148 149 358 149t360 -149q150 -150 150 -360q0 -113 -45 -212t-129 -171h306v-257h-516v-258h-250zM1406 0v1533h258v-635h384v-257h-384v-641h-258zM640 641q108 0 183 75t75 182q0 108 -75 180t-183 72
q-106 0 -181 -72t-75 -180q0 -107 75 -182t181 -75zM384 1533v515h1280v-257h-1024v-258h-256z" />
</svg>