<svg xmlns="http://www.w3.org/2000/svg" xmlns:xlink="http://www.w3.org/1999/xlink" version="1.1" viewBox="-10 0 2068 2048">
   <path fill="currentColor"
d="M1394 1254q0 58 -40 98q-42 42 -96 42q-55 0 -98 -42q-44 -42 -44 -96t44 -98q42 -42 98 -42q54 0 96 42q40 43 40 96zM1664 884q10 48 10 140q0 227 -112 420q-111 195 -302 306q-192 110 -420 110t-420 -110q-193 -112 -306 -306q-114 -196 -114 -420t114 -420
q113 -194 306 -306q192 -110 418 -110l26 4q25 4 42 22q28 26 28 64v188h90l26 4q27 5 44 22q22 24 22 66v96h188h26q26 9 42 26q22 24 22 64v92h188l30 10q34 8 52 38zM1490 1024h-138q-58 0 -98 -42q-42 -42 -42 -98v-48h-140q-56 0 -97 -41t-41 -97v-44h-48
q-56 0 -98 -44t-42 -96v-130q-214 25 -367 182.5t-183 375.5q10 -45 46 -74q39 -32 90 -32t94 44q40 43 40 98q0 54 -40 96q-42 42 -98 42q-58 0 -94 -38q-36 -35 -46 -94q0 102 8 140q26 187 160 332q132 142 316 190q-66 -47 -66 -106q0 -60 42 -102q41 -44 97.5 -44
t98.5 44q42 43 42 94q0 48 -32 88q-30 40 -82 54q190 22 356 -64q170 -88 264 -242q98 -158 98 -344zM794 932q-58 0 -99 41t-41 97q0 55 42 98q42 44 96 44t98 -44t44 -98t-44 -96q-43 -42 -96 -42zM746 606q0 -58 -41 -99t-98 -41t-99 42t-42 98t42 98q42 40 99 40t98 -41
t41 -97zM1860 1490h188v-188h-188v188zM1860 558v558h188v-558h-188z" />
</svg>