<svg xmlns="http://www.w3.org/2000/svg" xmlns:xlink="http://www.w3.org/1999/xlink" version="1.1" viewBox="-10 0 2068 2048">
   <path fill="currentColor"
d="M1304 279q152 0 261 109t109 264q0 154 -109 263t-261 109q-154 0 -262 -109q-108 -108 -108 -263q0 -156 108 -264q108 -109 262 -109zM1304 458q-84 0 -140 57q-56 56 -56 137t56 137q56 57 140 57q82 0 139 -57t57 -137t-57 -137t-139 -57zM1304 1116q141 0 304 43
q187 48 300 122q140 91 140 210v278h-1490v-278q0 -119 140 -210q113 -74 300 -122q164 -43 306 -43zM1304 1295q-133 0 -270 34q-121 34 -210 83q-86 48 -86 79v100h1132v-100q0 -31 -88 -79q-88 -49 -208 -83q-138 -34 -270 -34zM376 1142l-236 139l66 -261l-206 -174
l270 -22l106 -248l100 248l270 22l-204 174l60 261z" />
</svg>