<svg xmlns="http://www.w3.org/2000/svg" xmlns:xlink="http://www.w3.org/1999/xlink" version="1.1" viewBox="-10 0 2068 2048">
   <path fill="currentColor"
d="M660 768l684 684h-832q-140 0 -240 -100t-100 -242t100 -242t240 -100h148zM256 364l236 236q-137 5 -248 74q-112 70 -178 186t-66 252q0 135 68 254q67 117 186 188q118 70 258 70h1000l172 168l108 -108l-1428 -1428zM1652 772q-44 -224 -220 -370t-408 -146
q-189 0 -340 100l124 124q100 -52 216 -52q129 0 236 64q110 65 170 170q62 107 62 234v44h128q108 0 182 74t74 182q0 72 -36 132q-36 61 -96 92l124 124q84 -60 132 -152t48 -196q0 -168 -114 -290q-115 -122 -282 -134z" />
</svg>