<svg xmlns="http://www.w3.org/2000/svg" xmlns:xlink="http://www.w3.org/1999/xlink" version="1.1" viewBox="-10 0 2068 2048">
   <path fill="currentColor"
d="M1630 1687q0 93 -62 155q-61 63 -147.5 63t-148.5 -63q-60 -62 -60 -153q0 -89 104 -250q58 -86 104 -140l54 70q57 78 100 157q56 99 56 161zM280 1565q-10 -34 10 -70q20 -34 60 -43l208 -57l-152 -152q-30 -31 -30 -70q0 -40 28 -68t70 -28q41 0 68 31l152 152
l56 -209q10 -40 44 -59q35 -20 72 -11t56.5 44t11.5 74l-58 209l210 -52q39 -13 74 6q35 20 45.5 59t-9.5 72q-18 32 -58 41l-210 57l154 153q26 31 26 69q0 39 -30 68q-28 28 -67 28t-65 -26l-152 -157l-56 209q-14 40 -46 59q-34 20 -72 11q-40 -9 -60 -44
q-19 -35 -10 -74l56 -209l-208 57q-39 9 -72 -11q-33 -19 -46 -59zM0 977q0 -125 64 -233t170 -170q106 -63 232 -63q70 -165 220 -268q152 -103 338 -103q157 0 292 74q136 74 218 203q82 127 96 281h44q156 0 266 109q108 108 108 261q0 154 -108 262q-110 109 -266 109
q-40 0 -66 -26q-26 -27 -26 -66q0 -38 26 -65q26 -26 66 -26q78 0 132 -55q54 -54 54 -133t-54 -133t-132 -54h-184v-92q0 -126 -62 -233q-64 -107 -170 -170q-107 -63 -234 -63q-174 0 -302 111q-129 111 -154 281q-50 -17 -102 -17q-116 0 -198 81q-80 80 -80 198t82 200
q28 27 28 63q0 37 -28 64q-26 26 -65 26t-65 -26q-65 -65 -102 -151q-38 -84 -38 -176z" />
</svg>