<svg xmlns="http://www.w3.org/2000/svg" xmlns:xlink="http://www.w3.org/1999/xlink" version="1.1" viewBox="-10 0 2058 2048">
   <path fill="currentColor"
d="M1024 0l-836 375v558q0 254 109 488q111 238 300 401q191 164 427 226q236 -62 427 -226q189 -163 300 -401q109 -234 109 -488v-558zM1024 737q114 0 192 78t78 190q0 111 -78 189q-79 79 -192 79t-192 -79q-78 -78 -78 -189q0 -112 81 -190t189 -78zM1024 467l126 187
q-58 -26 -126 -26t-126 26zM558 737l226 -22q-57 53 -87 102q-29 48 -43 120zM558 1273l96 -201q14 66 45 120q34 60 85 98zM1490 737l-96 200q-13 -65 -43 -117t-87 -105zM1490 1273l-226 17q50 -37 84 -96q33 -56 46 -122zM1024 1539l-131 -183q64 21 131 21q64 0 126 -21
z" />
</svg>