<svg xmlns="http://www.w3.org/2000/svg" xmlns:xlink="http://www.w3.org/1999/xlink" version="1.1" viewBox="-10 0 2068 2048">
   <path fill="currentColor"
d="M280 1430q-9 -38 10 -72q19 -32 60 -46l208 -57l-152 -152q-30 -26 -30 -66q0 -39 28 -67t70 -28t68 26l152 152l56 -209q10 -39 44 -59q33 -18 72 -8q37 11 56 45q20 36 12 74l-58 210l210 -57q38 -8 74 11q36 21 46 56q10 38 -10 72q-19 35 -58 44l-210 57l154 152
q26 26 26 68q0 40 -29 69t-67 29q-39 0 -66 -31l-152 -152l-56 209q-14 40 -46 59t-72 8q-40 -10 -60 -43q-19 -33 -10 -72l56 -209l-208 56q-39 9 -72 -11q-33 -19 -46 -58zM0 837q0 -91 38 -176q37 -85 102 -151q67 -66 150 -100q87 -35 176 -35q69 -169 220 -272
q152 -103 338 -103q157 0 292 77q137 78 218 202q82 125 96 283l44 -4q156 0 266 109q108 108 108 264q0 155 -108 263q-110 109 -266 109q-40 0 -66 -26q-26 -27 -26 -64.5t26 -68.5q26 -28 66 -28q78 0 132 -55q54 -54 54 -130q0 -77 -54 -131q-54 -55 -132 -55h-184v-91
q0 -126 -62 -233q-64 -106 -170 -170q-107 -63 -234 -63q-174 0 -302 111q-129 111 -154 277q-53 -18 -102 -18q-116 0 -198 83q-80 82 -80 198t82 198q28 32 28 68t-28 63q-26 26 -65 26t-65 -26q-66 -66 -102 -150q-38 -84 -38 -181zM1212 1809q8 26 32.5 39.5t49.5 8.5
l148 -44l-38 148q-10 31 4 53q12 21 42 30q27 9 52 -7q23 -14 28 -41l38 -144l110 105q17 22 46 22q28 0 48 -20q18 -19 18 -48t-16 -46l-110 -109l144 -39q31 -9 44 -32t6 -51q-6 -25 -30 -39q-24 -13 -50 -9l-148 44l40 -148q8 -28 -8 -52q-14 -21 -40 -31q-25 -8 -50 7
q-24 15 -34 41l-34 144l-110 -105q-22 -22 -50 -22t-48 20q-18 19 -18 48.5t20 45.5l110 109l-148 39q-26 9 -39.5 33.5t-8.5 49.5z" />
</svg>