<svg xmlns="http://www.w3.org/2000/svg" xmlns:xlink="http://www.w3.org/1999/xlink" version="1.1" viewBox="-10 0 2068 2048">
   <path fill="currentColor"
d="M1656 1436l-56 -52l-14 -8q-172 -169 -228 -238q-92 -114 -92 -208t64 -156q66 -62 156 -62q92 0 170 78q78 -78 170.5 -78t157.5 62q64 61 64 154q0 92 -82 192q-55 68 -206 214zM1042 242h-164v-192h-584v192h-170q-51 0 -86 38q-38 41 -38 90v1490q0 58 38 98
q36 40 86 40h910q48 0 88 -38q40 -36 40 -86v-1504q4 -50 -32 -90q-36 -38 -88 -38zM974 1806h-782v-1368h782v1368z" />
</svg>