<svg xmlns="http://www.w3.org/2000/svg" xmlns:xlink="http://www.w3.org/1999/xlink" version="1.1" viewBox="-10 0 2058 2048">
   <path fill="currentColor"
d="M1433 308v-106q0 -81 -61 -142q-60 -60 -141 -60h-413q-82 0 -142 60t-60 142v106q-173 0 -293 120q-121 121 -121 288v1130q0 81 61 142q60 60 146 60h1230q87 0 147 -60t60 -142v-1130q0 -168 -120 -288t-293 -120zM818 202h413v106h-413v-106zM1024 716l207 207
l-207 202l-206 -202zM1639 1846h-1230v-413h207v206h101v-206h922v413zM1639 1332h-1230v-616q0 -86 60 -146t147 -60h817q86 0 146 60t60 146v616z" />
</svg>