<svg xmlns="http://www.w3.org/2000/svg" xmlns:xlink="http://www.w3.org/1999/xlink" version="1.1" viewBox="-10 0 2068 2048">
   <path fill="currentColor"
d="M1973 703q83 -82 73 -188q-13 -83 -73 -147l-293 -294q-82 -82 -188 -73q-83 14 -147 73l-165 166h-252q-134 0 -225 64q-77 55 -124 147l-436 436v389l-68 69q-83 83 -74 188q14 82 74 147l293 294q73 73 161 73q52 0 96 -20q46 -20 78 -53l261 -266h353q115 0 193 -65
q65 -51 87 -137q78 -22 133 -78q42 -50 64 -119q105 -26 161 -120q46 -77 46 -165v-293h-55zM1808 1024q0 42 -23 69q-22 27 -78 27h-96v101q0 37 -23 67q-22 30 -73 30h-101v96q0 41 -21 71t-76 30h-431l-321 321q-31 28 -59 0l-294 -293q-27 -27 0 -60l129 -124v-395
l192 -192v156q0 106 69 188q78 105 225 105t229 -105q64 -81 64 -188h688v96zM1836 565l-166 166h-742v197q0 36 -23 66q-22 30 -75.5 30t-76.5 -30t-23 -66v-294q0 -61 33 -115q51 -82 165 -82h330l224 -225q33 -27 60 0l294 294q28 28 0 59z" />
</svg>