<svg xmlns="http://www.w3.org/2000/svg" xmlns:xlink="http://www.w3.org/1999/xlink" version="1.1" viewBox="-10 0 2058 2048">
   <path fill="currentColor"
d="M1860 933q0 255 -109 486q-110 234 -298 401q-187 166 -429 228q-242 -62 -429 -228q-188 -167 -298 -401q-109 -231 -109 -486v-558l836 -375l836 375v558zM1024 1861q173 -43 324 -185t238 -336t87 -390v-457l-649 -288l-649 288v457q0 196 87 390q88 196 237 336
q150 141 325 185zM1285 933h-400v-235q0 -53 41 -85q42 -33 98 -33t98 33q41 32 41 85v47h122v-47q0 -97 -80 -164t-181 -67t-181 67t-80 164v235q-39 0 -74 35t-35 74v327q0 49 32 85q33 37 77 37h514q47 0 82 -35t35 -79v-326q0 -49 -33 -83q-33 -35 -76 -35z" />
</svg>