<svg xmlns="http://www.w3.org/2000/svg" xmlns:xlink="http://www.w3.org/1999/xlink" version="1.1" viewBox="-10 0 2068 2048">
   <path fill="currentColor"
d="M2048 1433h-2048v206h202v409h1644v-409h202v-206zM866 1332q-20 0 -34 -12q-15 -11 -20 -32l-38 -317q0 -19 14 -34q14 -14 38 -14h404q19 0 32 17q12 17 12 41l-38 307q-5 20 -20 32q-16 12 -34 12h-316zM1740 0l264 481q4 10 4 29q0 42 -28 74q-29 31 -72 31h-168v717
h-202v-717h-414v202h-202v-202h-412v717h-202v-717h-144q-26 0 -48 -14q-34 -20 -48 -58q-15 -38 4 -77l236 -466h1432z" />
</svg>