<svg xmlns="http://www.w3.org/2000/svg" xmlns:xlink="http://www.w3.org/1999/xlink" version="1.1" viewBox="-10 0 2068 2048">
   <path fill="currentColor"
d="M376 654q152 0 261 109t109 261q0 153 -109 262t-263 109q-156 0 -265 -109t-109 -262q0 -152 109 -261t267 -109zM1024 0q152 0 261 109t109 264t-108 264q-108 108 -261 108t-261 -108q-110 -109 -110 -264t109 -264t261 -109zM1024 1303q152 0 261 109t109 264
q0 154 -109 263t-261 109t-261 -109t-109 -263q0 -155 109 -264t261 -109zM1674 654q156 0 266 109q108 108 108 261q0 154 -108 262q-110 109 -264 109t-263 -109t-109 -262q0 -152 109 -261t261 -109zM1674 837q-76 0 -130 54t-54 133t54 133q56 55 132 55t130 -55
q54 -54 54 -133t-54 -133t-132 -54zM1024 1491q-78 0 -132 54t-54 131t54 131t133 54t133 -54t54 -131t-54 -131t-134 -54zM1024 188q-78 0 -132 54t-54 131t54 131t133 54t133 -54t54 -131t-54 -131t-134 -54z" />
</svg>