<svg xmlns="http://www.w3.org/2000/svg" xmlns:xlink="http://www.w3.org/1999/xlink" version="1.1" viewBox="-10 0 2068 2048">
   <path fill="currentColor"
d="M1118 1992v-28q0 -112 -80 -192q-80 -79 -192 -79t-191 79t-79 192v28h-380q-80 0 -138 -58t-58 -138v-379h28q114 0 193 -79t79 -192t-79 -192t-193 -79h-28v-379q0 -80 58 -138t138 -58h304q19 -131 118 -216q97 -84 228.5 -84t229.5 84q98 85 116 216h304q80 0 138 58
q58 59 58 138v304q130 18 216 117q84 97 84 229v28q-96 -52 -206 -70q-14 -46 -54 -77q-41 -31 -86 -31h-150v-500h-500v-150q0 -61 -44 -105t-105 -44t-105 44q-46 45 -46 105v150h-500v215q136 51 218 168q82 115 82 267q0 151 -82 266q-83 118 -218 169v215h216
q51 -136 168 -218q114 -81 262 -81q146 0 266 79q-14 58 -14 117q0 164 84 299h-60zM1908 1342l-216 211l-210 -211l-140 141l210 210l-210 215l140 140l210 -215l216 215l140 -140l-216 -215l216 -210z" />
</svg>