<svg xmlns="http://www.w3.org/2000/svg" xmlns:xlink="http://www.w3.org/1999/xlink" version="1.1" viewBox="-10 0 2068 2048">
   <path fill="currentColor"
d="M1818 0h-1588q-96 0 -163 67t-67 162v1590q0 95 67 162t163 67h1588q96 0 164 -67q66 -66 66 -162v-1590q0 -96 -66 -162q-68 -67 -164 -67zM1488 1467q-182 0 -310 -128l-74 -75l160 -160l74 75q64 64 152 64t152 -64t64 -155t-64 -155t-152 -64t-152 64l-468 470
q-128 128 -312 128t-315 -131t-131 -312t131 -312t315 -131t312 128l74 75l-160 160l-74 -75q-64 -64 -152 -64t-152 64t-64 155t64 155t152 64t152 -64l468 -470q128 -128 312 -128t316 131q130 130 130 312t-130 312q-132 131 -318 131z" />
</svg>