<svg xmlns="http://www.w3.org/2000/svg" xmlns:xlink="http://www.w3.org/1999/xlink" version="1.1" viewBox="-10 0 2068 2048">
   <path fill="currentColor"
d="M0 231l130 -130l1716 1716l-130 130l-616 -615h-490l-302 307q-58 53 -130 53t-126 -53q-52 -52 -52 -125v-29l102 -754q14 -158 120 -274zM308 716v106h202v202h106v-178l-130 -130h-178zM1484 308q185 0 316 122q132 123 146 301l102 754v29q0 48 -24 92q-24 42 -68 62
l-1360 -1360h888zM1484 514q-32 0 -54 22q-22 21 -22 53q0 31 21 55t55 24q36 0 57 -24t21 -55q0 -32 -22 -53q-22 -22 -56 -22zM1308 692q-34 0 -56 22q-22 21 -22 55t22 55q22 22 52 22t55 -22t25 -55t-25 -55t-51 -22zM1662 692q-27 0 -52 22q-24 21 -24 55t24 55
q25 22 56 22q30 0 52 -22t22 -55t-22 -55t-56 -22zM1484 870q-34 0 -55 24t-21 55q0 32 22 53q22 22 54 22q34 0 56 -22q22 -21 22 -53q0 -31 -21 -55t-57 -24z" />
</svg>