<svg xmlns="http://www.w3.org/2000/svg" xmlns:xlink="http://www.w3.org/1999/xlink" version="1.1" viewBox="-10 0 2068 2048">
   <path fill="currentColor"
d="M172 1024q0 -177 94 -322q95 -146 246 -218v-184q-227 79 -370 278q-142 197 -142 446t142 446q143 199 370 278v-184q-151 -72 -246 -218q-94 -145 -94 -322zM1280 256q-208 0 -384 104t-280 280t-104 384t104 384t280 280t384 104t384 -104t280 -280t104 -384
t-104 -384t-280 -280t-384 -104zM1708 1332l-120 120l-308 -308l-308 308l-120 -120l308 -308l-308 -308l120 -120l308 308l308 -308l120 120l-308 308z" />
</svg>