<svg xmlns="http://www.w3.org/2000/svg" xmlns:xlink="http://www.w3.org/1999/xlink" version="1.1" viewBox="-10 0 2067 2048">
   <path fill="currentColor"
d="M2047 812h-774l315 -320q-156 -156 -360 -212q-206 -55 -408 -4q-204 51 -357.5 201.5t-208.5 354.5q-54 204 0 406q55 205 208.5 355.5t357.5 204.5q203 54 408 0q207 -54 360 -202q229 -235 229 -560h230q0 180 -75 368q-78 206 -224 346q-198 199 -461 264
q-264 66 -528 0t-459 -261t-264 -455q-69 -262 -3 -524t264 -454q200 -193 459 -262q131 -34 262 -34t261 34q258 69 458 262l310 -320v812zM1081 572v480l395 240l-80 138l-485 -294v-564h170z" />
</svg>