<svg xmlns="http://www.w3.org/2000/svg" xmlns:xlink="http://www.w3.org/1999/xlink" version="1.1" viewBox="-10 0 2058 2048">
   <path fill="currentColor"
d="M1074 0q-169 0 -256 109q-87 110 -80 284q8 174 104 352q-59 44 -92 119q-177 -36 -238 -156q-44 -86 -120 -126q-75 -39 -156 -16q-79 22 -130 106q-56 95 -56 251q0 169 110.5 256t281.5 80q172 -8 354 -103q45 60 118 92q-35 177 -154 237q-87 40 -126 119
q-39 78 -16 158q22 79 104 130q96 55 252 55q119 0 196 -55q-50 -116 -50 -238q0 -200 128 -361q-19 -51 -42 -91q61 -51 88 -119q80 13 146 55q128 -69 272 -69q145 0 276 73q10 -64 10 -118q0 -169 -110.5 -256t-283.5 -80q-176 8 -352 102q-50 -59 -118 -86
q35 -182 156 -243q85 -40 124 -119q39 -77 16 -157q-22 -80 -104 -131q-94 -54 -252 -54zM1024 877q40 0 68 28t28 68q0 41 -28 69q-26 27 -68 27t-69 -27t-27 -69q0 -41 28 -68q28 -28 68 -28zM1610 1266q-84 0 -141 57t-57 139v586h198v-197h196v197h192v-586
q0 -82 -57 -139t-135 -57h-196zM1610 1462h196v192h-196v-192z" />
</svg>