<svg xmlns="http://www.w3.org/2000/svg" xmlns:xlink="http://www.w3.org/1999/xlink" version="1.1" viewBox="-10 0 2068 2048">
   <path fill="currentColor"
d="M1070 1704q0 -199 128 -360q-19 -51 -42 -92q61 -51 88 -118q80 13 146 54q128 -68 272 -68q145 0 276 72q10 -64 10 -118q0 -168 -110.5 -255.5t-283.5 -80.5q-176 8 -352 102q-50 -59 -118 -86q35 -182 156 -242q85 -40 124 -120q39 -77 16 -156q-22 -81 -104 -132
q-94 -54 -252 -54q-169 0 -256 110t-80 284q8 174 104 352q-59 44 -92 118q-177 -35 -238 -156q-44 -86 -120 -126q-75 -38 -156 -16q-79 23 -130 106q-56 96 -56 252q0 168 110.5 255.5t281.5 80.5q172 -8 354 -104q45 61 118 92q-35 177 -154 238q-87 40 -126 118t-16 158
q22 79 104 130q96 56 252 56q119 0 196 -56q-50 -116 -50 -238zM974 1120q-42 0 -69 -27t-27 -69t28 -68q28 -28 68 -28t68 28t28 68t-28 68q-26 28 -68 28zM2048 1608v198h-782v-198h782z" />
</svg>