<svg xmlns="http://www.w3.org/2000/svg" xmlns:xlink="http://www.w3.org/1999/xlink" version="1.1" viewBox="-10 0 2068 2048">
   <path fill="currentColor"
d="M2048 1537v202h-820v-202h820zM0 103h1842v206q-88 0 -148 60q-58 59 -58 142v513q-163 0 -306 82q-140 80 -224 223q-84 141 -84 309t80 307h-694q-82 0 -142 -60t-60 -146v-1228q0 -82 -60 -142t-146 -60v-206zM408 717v101h306v-101h-306zM408 923v101h306v-101h-306z
M714 1432v-101h-306v101h306zM920 1230v-105h-512v105h512zM920 616v-105h-512v105h512z" />
</svg>