<svg xmlns="http://www.w3.org/2000/svg" xmlns:xlink="http://www.w3.org/1999/xlink" version="1.1" viewBox="-10 0 2058 2048">
   <path fill="currentColor"
d="M1683 719q126 121 126 297q0 174 -126 305l95 96q115 -111 153 -251q39 -142 0 -288q-38 -144 -153 -255zM1582 820l-91 91q35 53 35 109t-35 105l91 95q83 -83 83 -196q0 -112 -83 -204zM1212 0h-932q-73 0 -128 55t-55 133v1673q0 78 55 133q54 54 128 54h932
q75 0 129 -54t54 -133v-1673q0 -79 -54 -133q-55 -55 -129 -55zM1212 1769h-932v-1490h932v1490z" />
</svg>