<svg xmlns="http://www.w3.org/2000/svg" xmlns:xlink="http://www.w3.org/1999/xlink" version="1.1" viewBox="-10 0 2068 2048">
   <path fill="currentColor"
d="M1228 818h-54q-63 0 -108 -43q-44 -43 -44 -111v-48h-48q-67 0 -110 -45q-44 -44 -44 -108v-149q-238 33 -408 207q-168 173 -200 407q14 -48 54 -79t94 -31q62 0 108 45q46 46 46 111q0 64 -46 108q-45 43 -108 43q-61 0 -106 -41q-43 -40 -48 -98q0 95 10 153
q29 207 172.5 365t345.5 211q-68 -48 -68 -130q0 -64 44 -108q43 -45 108 -45q64 0 110 45q46 46 46 106t-36 101q-37 41 -90 50q101 9 174 0v5q0 100 32 196q-74 10 -134 10q-247 0 -459.5 -125t-336.5 -335q-124 -211 -124 -461q0 -249 124 -460q125 -212 336 -336
q213 -125 460 -125l30 5q28 4 48 24q24 28 24 72v206h104l24 5q34 5 48 24q30 29 30 72v105h206h24q32 9 48 29q28 29 28 72v101h206l34 9q36 8 52 44q16 72 16 153q0 59 -10 134q-96 -33 -196 -33h-6q6 -58 6 -101h-154q-64 0 -109 -45t-45 -108v-53h-100zM1228 1278v5
q102 -89 234 -134q-38 -24 -82 -24q-62 0 -106 45q-46 46 -46 108zM820 564q0 -62 -46 -108t-110 -46q-63 0 -108 46q-42 44 -42 108t42 108q44 45 108 45q66 0 110 -45q46 -46 46 -108zM868 1230q67 0 110 -45q44 -44 44 -111q0 -64 -44 -107q-44 -44 -108 -44t-110 44
t-46 107q0 65 46 111q46 45 108 45zM1228 1638v206h820v-206h-820z" />
</svg>