<svg xmlns="http://www.w3.org/2000/svg" xmlns:xlink="http://www.w3.org/1999/xlink" version="1.1" viewBox="-10 0 2068 2048">
   <path fill="currentColor"
d="M1352 378v-282h-328v182h140v100q-98 9 -214 40q-25 -44 -78 -44h-314q-33 0 -62.5 26t-29.5 66t29.5 66t62.5 26h100q-210 145 -334 368q-126 224 -136 486q-81 29 -134 102q-54 73 -54 160q0 116 84 198q82 80 198 80q114 0 195 -81t81 -197q0 -87 -50 -159.5
t-132 -102.5q9 -210 104 -388q-14 76 -14 140q0 212 108 396q105 181 288 288q180 104 396 104t396 -104q182 -107 288 -288q106 -183 106 -396q0 -202 -94 -372q-92 -169 -252 -280q-159 -111 -350 -134zM280 1768q-36 0 -64 -28t-28 -64q0 -38 28 -66t66 -28t66 28t28 66
q0 36 -28 64t-68 28zM1256 1768q-163 0 -302 -82t-220 -220q-80 -136 -80 -302q0 -222 146 -392q147 -171 364 -206v736h188v-736q216 35 362 206q146 170 146 392q0 166 -80 302q-80 138 -220 220q-138 82 -304 82z" />
</svg>