<svg xmlns="http://www.w3.org/2000/svg" xmlns:xlink="http://www.w3.org/1999/xlink" version="1.1" viewBox="-10 0 2058 2048">
   <path fill="currentColor"
d="M314 0q-94 0 -161 67t-67 162v1819h1140v-853h170v570q0 117 83 200t200 83t200 -83t83 -200v-1082q0 -117 -80 -203l-422 -421l-122 117l240 240q-79 32 -130 104q-52 72 -52 163q0 117 84 200q82 82 200 82q58 0 112 -21v821q0 43 -32 78q-32 34 -80.5 34t-79.5 -34
q-32 -35 -32 -78v-512q0 -95 -67 -162t-163 -67h-112v-795q0 -95 -67 -162t-161 -67h-684zM314 453h230v459h224v-459h230v1142h-230v-459h-224v459h-230v-1142zM1680 571q48 0 80 32t32 80t-32 80t-80 32t-80 -32t-32 -80t32 -80t80 -32z" />
</svg>