<svg xmlns="http://www.w3.org/2000/svg" xmlns:xlink="http://www.w3.org/1999/xlink" version="1.1" viewBox="-10 0 2062 2048">
   <path fill="currentColor"
d="M672 1027q-21 14 -32 39q-11 27 -6 44q0 47 38 80q38 32 84 32q44 0 78 -32t34 -80q-84 -53 -196 -83zM1948 927l94 -372l-60 -5q-78 -14 -160 -47q-120 -47 -244 -131q-106 -75 -224 -203q-89 -93 -136 -122q-76 -47 -194.5 -47t-195.5 47q-44 28 -134 122
q-118 128 -224 203q-124 84 -244 131q-82 33 -160 47l-60 5l94 372h10q-10 26 -10 92q0 238 113 444t303 332l-46 82q164 108 342 147q155 36 302 18q124 -14 244 -52q86 -30 160 -74l60 -39l-46 -82q190 -126 303 -332t113 -444v-92zM958 325l-130 -130l66 -65l130 130
l130 -130l64 65l-130 130l130 130l-64 65l-130 -130l-130 130l-66 -65zM772 693q155 -43 252 -43q126 0 356 78q138 48 342 134l22 9q12 25 12 82zM1172 1673q-108 65 -204 78q-36 -30 -36 -76q0 -45 34 -75q33 -31 84 -35t86 26q18 9 26 32q10 24 10 50zM1766 1149
q-35 141 -122 268q-88 126 -204 213l-138 -243h-556l-138 243q-148 -99 -236 -260q-90 -161 -90 -351q0 -43 22 -139l166 -74l654 173v226q0 35 28 63t66 28h182q39 0 68 -26q28 -25 28 -65v-130z" />
</svg>