<svg xmlns="http://www.w3.org/2000/svg" xmlns:xlink="http://www.w3.org/1999/xlink" version="1.1" viewBox="-10 0 2058 2048">
   <path fill="currentColor"
d="M1805 580q-82 -251 -348 -361v-219h-143v205h-61q-233 0 -410 171l-54 61l-205 -75q-88 -27 -143 -27q-144 0 -253 88q-103 70 -157 198q-40 150 0 294q68 163 157 218q-88 335 150 567q171 177 403 177q125 0 164 -13q144 184 348 184q101 0 143 -14q110 -35 201 -160
q92 -127 92 -235q0 -112 -13 -158l-75 -232l88 -54q185 -185 164 -458h184v-157h-232zM393 915q-130 -62 -85 -191q45 -130 174 -82l464 170q-335 172 -553 103zM1314 1734q-129 41 -191 -89q-68 -221 102 -553l171 451q48 143 -82 191zM1485 956l-89 -232v-14l-41 -41h-14
l-232 -89q96 -75 192 -75q115 0 201 89q85 88 85 191l-34 62q-38 71 -68 109z" />
</svg>