<svg xmlns="http://www.w3.org/2000/svg" xmlns:xlink="http://www.w3.org/1999/xlink" version="1.1" viewBox="-10 0 2068 2048">
   <path fill="currentColor"
d="M2048 663q0 107 -76 183q-75 77 -179.5 77t-180.5 -77q-74 -76 -74 -183q0 106 -77 183t-183 77q-104 0 -180 -77q-74 -76 -74 -183q0 108 -74 183q-76 77 -182 77q-104 0 -181 -77t-77 -183q0 107 -76 183q-75 77 -179.5 77t-180.5 -77q-74 -75 -74 -183l140 -552
l14 -29q15 -34 38 -53q40 -29 82 -29h1500q41 0 80 29q24 19 40 53l14 29zM1946 1043v803q0 82 -60 142t-146 60h-1432q-86 0 -146 -60t-60 -142v-803q74 34 152 34q144 0 256 -92q116 92 258 92q144 0 256 -92q116 92 256.5 92t257.5 -92q111 92 254 92q80 0 154 -34z
M1740 1572q0 -40 -6 -67v-15h-306v120h186q-15 46 -32 63q-54 53 -131 53t-131 -55q-56 -56 -56 -135t53 -132t129 -53q78 0 130 48l14 14l88 -86l-16 -15q-91 -81 -210 -81h-6q-126 0 -218 91q-94 92 -94 216q0 125 92 212q96 96 226 96h4q124 0 206 -82q36 -42 56 -91
q22 -55 22 -101z" />
</svg>