<svg xmlns="http://www.w3.org/2000/svg" xmlns:xlink="http://www.w3.org/1999/xlink" version="1.1" viewBox="-10 0 2058 2048">
   <path fill="currentColor"
d="M1108 1124q-34 -57 -34 -124q0 -99 69 -168t167 -69h94q88 0 150 -49q29 -24 42 -49l4 89q-5 111 -22 196q-23 125 -82 197q-72 89 -186 89q-67 0 -126 -36q-52 134 -70 281q89 18 158 63q69 46 104 107q121 -86 194 -219q74 -134 74 -290h286q0 246 -123 453t-330 330
t-453 123t-453 -123t-330 -330t-123 -453t123 -453t331 -330q205 -122 452 -122v-237l380 379l-380 384v-241q-169 0 -310 85q-142 86 -224 225q-86 143 -86 310q0 157 74 290q73 133 194 219q40 -67 114 -112q72 -44 172 -58q-14 -110 -50 -196q-48 49 -124 49t-132 -56
q-56 -55 -56 -136v-93q0 -79 -50 -143h68q80 4 148 18q94 28 146 71q68 58 68 147q0 39 -14 76q-82 -55 -130 -76q47 33 96 98q53 69 96 148q107 -260 286 -438q-106 70 -202 174z" />
</svg>