<svg xmlns="http://www.w3.org/2000/svg" xmlns:xlink="http://www.w3.org/1999/xlink" version="1.1" viewBox="-10 0 2068 2048">
   <path fill="currentColor"
d="M1930 1268v-146q0 -100 -86 -172q-84 -70 -188 -70q-105 0 -188 70q-82 71 -82 172v146q-46 0 -82 36q-38 38 -38 84v338q0 48 38 88q36 40 82 40h534q49 0 90 -38q38 -35 38 -82v-338q0 -50 -36 -89t-82 -39zM1802 1268h-294v-146q0 -55 44 -92q44 -36 106 -36t102 36
q42 37 42 92v146zM1070 1726v-166h-878v-584h1024q52 -129 172 -210q120 -82 268 -82q165 0 292 100v-394q0 -82 -57 -139t-135 -57h-1564q-76 0 -134 58t-58 138v1170q0 82 58 140t134 58h882q-4 -8 -4 -32zM192 390h1564v198h-1564v-198z" />
</svg>