<svg xmlns="http://www.w3.org/2000/svg" xmlns:xlink="http://www.w3.org/1999/xlink" version="1.1" viewBox="-10 0 2068 2048">
   <path fill="currentColor"
d="M1412 973q0 -86 -12 -196h328q28 105 28 196q0 49 -10 105q101 14 188 64q14 -90 14 -169q0 -266 -130 -489q-131 -224 -354 -354t-489.5 -130t-488.5 130q-224 130 -354 354q-132 224 -132 489t132 489q131 225 353.5 355t488.5 130q79 0 170 -14q-74 -127 -74 -279
q0 -31 10 -82q-54 106 -106 178q-128 -189 -188 -388h366q87 -155 252 -233q8 -87 8 -156zM974 196q127 186 188 389h-376q60 -201 188 -389zM220 1170q-28 -109 -28 -197q0 -87 28 -196h330q-14 118 -14 196q0 79 14 197h-330zM298 1362h288q55 198 136 347
q-132 -44 -244 -135q-106 -87 -180 -212zM586 585h-288q75 -127 180 -213q112 -91 244 -135q-80 148 -136 348zM1202 1170h-456q-14 -101 -14 -197q0 -95 14 -196h456q14 118 14 196q0 79 -14 197zM1226 237q132 44 244 135q105 86 180 213h-288q-52 -191 -136 -348z
M2048 1558v197h-292v293h-196v-293h-294v-197h294v-292h196v292h292z" />
</svg>