<svg xmlns="http://www.w3.org/2000/svg" xmlns:xlink="http://www.w3.org/1999/xlink" version="1.1" viewBox="-10 0 2068 2048">
   <path fill="currentColor"
d="M1024 202q-150 0 -255 106t-105 254h206q0 -62 46 -108q45 -45 108 -45t108 45q46 46 46 108q0 63 -46 109q-45 45 -108 45q-43 0 -72 32t-29 69v183l-884 659q-25 21 -34 52q-9 33 0 65t36 51q26 19 61 19h1845q34 0 60 -19q27 -19 36 -51t0 -65q-9 -31 -34 -52
l-884 -659v-96q113 -32 187 -128q73 -94 73 -214q0 -146 -106 -254q-105 -106 -255 -106zM1024 1178l615 461h-1230z" />
</svg>