<svg xmlns="http://www.w3.org/2000/svg" xmlns:xlink="http://www.w3.org/1999/xlink" version="1.1" viewBox="-10 0 2068 2048">
   <path fill="currentColor"
d="M1594 1024q0 -182 -98 -320q-101 -140 -254 -205q-155 -66 -320 -35q-170 27 -300 157t-158 302q-31 165 36 320q65 154 198 250q144 102 326 102q155 0 286 -78q130 -78 208 -208q76 -129 76 -285zM1024 1365q-144 0 -239 -101t-101.5 -240t98 -243t243.5 -98t240 101
t101 240q0 144 -100 243q-98 98 -242 98zM230 1365h-230v454q0 95 67 162t163 67h454v-229h-454v-454zM230 229h454v-229h-454q-96 0 -163 67t-67 162v454h230v-454zM1818 0h-452v229h452v454h230v-454q0 -96 -66 -162q-68 -67 -164 -67zM1818 1819h-452v229h452
q96 0 164 -67q66 -66 66 -162v-454h-230v454z" />
</svg>