<svg xmlns="http://www.w3.org/2000/svg" xmlns:xlink="http://www.w3.org/1999/xlink" version="1.1" viewBox="-10 0 2058 2048">
   <path fill="currentColor"
d="M1395 406l165 -234l-62 -48q-72 -46 -172 -82q-128 -42 -268 -42q-288 0 -474 165q-171 165 -171 385q0 173 130 316q61 75 124 110l-48 28q-55 27 -103 75q-68 60 -103 145q-48 110 -48 240q0 275 199 440q178 144 450 144t498 -144q112 -70 171 -137l-206 -227l-61 48
q-82 62 -165 96q-116 55 -213 55q-192 0 -282 -103q-69 -75 -69 -185q0 -145 83 -220q124 -110 446 -110v-275h-75q-97 0 -172 -21q-112 -28 -172 -82q-75 -75 -75 -193q0 -151 117 -220q90 -48 206 -48q151 0 261 62q62 27 89 62z" />
</svg>