<svg xmlns="http://www.w3.org/2000/svg" xmlns:xlink="http://www.w3.org/1999/xlink" version="1.1" viewBox="-10 0 2068 2048">
   <path fill="currentColor"
d="M922 1332h202v206h-202v-206zM922 1125h202v-615h-202v615zM2048 356v1077l-616 615h-1076q-146 0 -250 -106q-106 -106 -106 -250v-1336q0 -144 106 -250q104 -106 250 -106h1336q145 0 250 106q106 108 106 250zM1846 389q0 -77 -55 -132t-133 -55h-1268q-78 0 -132 55
q-56 56 -56 132v1279q0 76 56 132t132 56h942v-154q0 -148 104 -255q105 -106 256 -106h154v-952z" />
</svg>