<svg xmlns="http://www.w3.org/2000/svg" xmlns:xlink="http://www.w3.org/1999/xlink" version="1.1" viewBox="-10 0 2068 2048">
   <path fill="currentColor"
d="M202 202q-82 0 -142 60t-60 147v514h624q40 -141 150 -224q110 -84 249 -84t251 84q109 83 148 224h626v-514q0 -87 -60 -147t-142 -60h-1644zM1024 817q-86 0 -146 60t-60 147t60 147t146 60t146 -60t60 -147t-60 -147t-146 -60zM0 1125v514q0 87 60 147t142 60h1644
q82 0 142 -60t60 -147v-514h-626q-39 140 -148 223q-113 85 -250.5 85t-249.5 -85q-110 -83 -150 -223h-624z" />
</svg>