<svg xmlns="http://www.w3.org/2000/svg" xmlns:xlink="http://www.w3.org/1999/xlink" version="1.1" viewBox="-10 0 2058 2048">
   <path fill="currentColor"
d="M1936 571h-320q-80 -144 -208 -230l186 -181l-160 -160l-250 245q-77 -16 -159.5 -16t-160.5 16l-250 -245l-160 160l186 181q-121 79 -208 230h-320v224h240q-10 61 -10 117v112h-230v229h230v112q0 55 10 112h-240v230h320q96 160 254 250q159 91 338 91t342 -91
q160 -90 250 -250h320v-230h-240q10 -57 10 -112v-112h230v-229h-230v-112q0 -56 -10 -117h240v-224zM1478 1365q0 187 -134 320q-134 134 -320 134t-320 -134q-132 -133 -132 -320v-453q0 -192 132 -325q134 -134 320 -134t320 134q134 133 134 325v453zM1254 795v229h-460
v-229h460zM794 1253h460v224h-460v-224z" />
</svg>