<svg xmlns="http://www.w3.org/2000/svg" xmlns:xlink="http://www.w3.org/1999/xlink" version="1.1" viewBox="-10 0 2068 2048">
   <path fill="currentColor"
d="M376 1303l-58 -48l-42 -39q-150 -140 -196 -200q-80 -102 -80 -186q0 -85 61 -146t145 -61q51 0 96 20q42 19 74 55q25 -35 71.5 -55t94.5 -20q86 0 145 59t59 146t-74 188q-53 61 -200 200l-44 39zM1304 279q-154 0 -262 109q-108 108 -108 264q0 155 108 263
q108 109 262 109q152 0 261 -109t109 -263q0 -155 -109 -264t-261 -109zM1304 846q-84 0 -140 -57q-56 -56 -56 -137t56 -137q56 -57 140 -57q82 0 139 57t57 137t-57 137t-139 57zM1304 1116q-142 0 -306 43q-187 48 -300 122q-140 91 -140 210v278h1490v-278
q0 -119 -140 -210q-113 -74 -300 -122q-163 -43 -304 -43zM1870 1591h-1132v-100q0 -31 86 -79q89 -49 210 -83q137 -34 269.5 -34t270.5 34q120 34 208 83q88 48 88 79v100z" />
</svg>