<svg xmlns="http://www.w3.org/2000/svg" xmlns:xlink="http://www.w3.org/1999/xlink" version="1.1" viewBox="-10 0 2068 2048">
   <path fill="currentColor"
d="M128 1024q0 182 70 344q71 165 194 288l-92 92q-143 -139 -222 -328q-78 -188 -78 -396t78 -396q79 -189 222 -328l92 92q-123 123 -194 288q-70 162 -70 344zM1792 1024q0 208 -104 384t-280 280t-384 104t-384 -104t-280 -280t-104 -384t104 -384t280 -280t384 -104
t384 104t280 280t104 384zM428 1024q0 44 8 108q24 -24 54 -24q31 0 44 10q17 13 34 38l12 12q84 112 178 112t182 -112l4 -4q29 -41 44 -48q18 -8 40 -8q25 0 36 10q12 10 36 42l8 8q88 112 182 112t178 -112l12 -12q17 -25 34 -38q13 -10 44 -10q30 0 54 24q8 -64 8 -108
q0 -159 -80 -298q-80 -138 -218 -218q-139 -80 -298 -80t-298 80q-138 80 -218 218q-80 139 -80 298zM1748 300l-92 92q123 123 194 288q70 162 70 344t-70 344q-71 165 -194 288l92 92q143 -139 222 -328q78 -188 78 -396t-78 -396q-79 -189 -222 -328z" />
</svg>