<svg xmlns="http://www.w3.org/2000/svg" xmlns:xlink="http://www.w3.org/1999/xlink" version="1.1" viewBox="-10 0 2058 2048">
   <path fill="currentColor"
d="M1220 1074q0 83 -57 140t-139 57q-83 0 -140 -57t-57 -140q0 -82 57 -139t140 -57q82 0 139 57t57 139zM535 878q-78 0 -135 57t-57 139q0 83 57 140t137 57t137 -57t57 -140q0 -82 -57 -139t-139 -57zM1513 878q-83 0 -140 57t-57 139q0 83 57 140t137 57t137 -57
q58 -58 58 -140q0 -81 -58 -139q-57 -57 -134 -57zM1266 489q-78 0 -135 57t-57 137q0 81 57 138t137 57t137 -57t57 -138q0 -80 -57 -137t-139 -57zM782 489q-83 0 -140 57t-57 137q0 81 57 138t137 57t137 -57t57 -138q0 -80 -57 -137t-134 -57zM1266 1271q-78 0 -135 57
t-57 137t57 137t137 57t137 -57t57 -137t-57 -137t-139 -57zM782 1271q-83 0 -140 57t-57 137t57 137t137 57t137 -57t57 -137t-57 -137t-134 -57zM1024 1659q-82 0 -140 58q-57 57 -57 137t57 137t140 57q82 0 139 -57t57 -137t-57 -137q-58 -58 -139 -58zM1257 119
l-78 -119q-136 64 -196 265q-37 126 -37 224h146v-4q41 -320 165 -366z" />
</svg>