<svg xmlns="http://www.w3.org/2000/svg" xmlns:xlink="http://www.w3.org/1999/xlink" version="1.1" viewBox="-10 0 2068 2048">
   <path fill="currentColor"
d="M1124 1836q278 -33 478.5 -233t233.5 -478h-308q-32 153 -141.5 262t-262.5 142v307zM818 615h412l308 308h298q-40 -304 -272 -512q-233 -209 -540 -209t-540 209t-272 512h298zM922 1836v-307q-152 -33 -262 -142q-108 -108 -140 -262h-308q32 273 232 473
q199 199 478 238zM1024 0q418 0 721 303t303 721t-303 721t-721 303t-722 -303q-302 -302 -302 -721t302 -721q304 -303 722 -303z" />
</svg>