<svg xmlns="http://www.w3.org/2000/svg" xmlns:xlink="http://www.w3.org/1999/xlink" version="1.1" viewBox="-10 0 2068 2048">
   <path fill="currentColor"
d="M1818 0h-1588q-96 0 -163 67t-67 162v1590q0 95 67 162t163 67h1588q96 0 164 -67q66 -66 66 -162v-1590q0 -96 -66 -162q-68 -67 -164 -67zM794 1627l-180 80q-128 -128 -200 -307q-72 -178 -72 -376t72 -376q72 -179 200 -307l180 80q-106 102 -164 262
q-58 159 -58 341t58 341q58 160 164 262zM1434 1707l-180 -80q106 -113 164 -267q60 -156 60 -336q0 -179 -60 -341q-58 -160 -164 -262l180 -80q128 128 200 307q72 178 72 376t-72 376q-72 179 -200 307z" />
</svg>