<svg xmlns="http://www.w3.org/2000/svg" xmlns:xlink="http://www.w3.org/1999/xlink" version="1.1" viewBox="-10 0 2065 2048">
   <path fill="currentColor"
d="M1509 1128q-9 0 -31 22l-17 119q-46 19 -75 48l-115 -48q-17 0 -26 9l-93 163q-13 9 9 26l101 75v97l-101 75q-9 9 -9 26l93 159q8 8 26 8l115 -44l22 14q31 25 53 30l17 124q0 17 31 17h185q10 0 15 -4q7 -5 7 -13l17 -124q43 -15 75 -44l115 44q26 0 26 -8l93 -159
q8 -8 -9 -26l-101 -75v-97l101 -75q9 -9 9 -26l-93 -163q-9 -9 -26 -9l-106 48l-17 -13q-35 -24 -67 -35l-17 -119q0 -9 -7 -16q-6 -6 -15 -6h-185zM1601 1458q57 0 99 42t42 99t-42 99t-99 42t-99 -42q-41 -41 -41 -99t41 -99q42 -42 99 -42zM1012 1881h-1009l1880 -1881
v1009q-150 -66 -282 -66q-181 0 -330 88q-148 87 -237 238q-88 149 -88 330q0 163 66 282z" />
</svg>