<svg xmlns="http://www.w3.org/2000/svg" xmlns:xlink="http://www.w3.org/1999/xlink" version="1.1" viewBox="-10 0 2058 2048">
   <path fill="currentColor"
d="M1132 323q153 71 231 219q78 149 50 310q83 75 132 180q50 106 50 221v17q43 -17 87 -17q111 0 188 77q76 76 76 188t-76 188q-77 77 -188 77h-174l-25 -4q-24 -4 -41 -21q-25 -25 -25 -62q0 -57 46 -78q23 -13 45 -13h174q38 0 64 -25q27 -26 27 -62t-27 -62
q-26 -25 -64 -25h-265v-178q0 -145 -103 -248t-248 -103t-248 103q-104 104 -104 248h-178q-74 0 -126 52q-51 51 -51 124t51 124q52 52 126 52h87l25 4q25 9 41 25q25 21 25 60t-25 64q-17 17 -41 21l-25 4h-87q-145 0 -248 -103t-103 -251q0 -147 103 -250t248 -103h25
q-86 -102 -107 -240q-21 -137 37 -265q54 -121 159 -197q104 -76 234 -91q126 -15 248 40zM1062 484q-119 -49 -240 -4q-120 45 -170 161q-29 66 -27 139q1 71 35 130q76 -88 180 -137t226 -49q88 0 177 29q-5 -89 -53 -159q-50 -72 -128 -110zM1202 161q-76 -29 -149 -45
l224 -116l78 256q-67 -51 -153 -95zM545 231q-64 44 -116 108l12 -248l261 58q-83 29 -157 82zM1595 699q-12 -85 -37 -153l211 132l-182 199q17 -85 8 -178zM276 840q10 80 33 149l-207 -133l178 -194q-13 96 -4 178zM1066 1597q86 135 86 186q0 38 -24 62q-25 25 -62 25
t-62 -25t-25 -62q0 -49 87 -186zM1066 1307q-25 31 -71 87q-81 103 -124 186q-70 124 -70 203q0 112 76 188q77 77 189 77q111 0 188 -77q76 -76 76 -188q0 -79 -70 -203q-43 -83 -124 -186z" />
</svg>