<svg xmlns="http://www.w3.org/2000/svg" xmlns:xlink="http://www.w3.org/1999/xlink" version="1.1" viewBox="-10 0 2068 2048">
   <path fill="currentColor"
d="M862 28q234 0 432 58q202 59 314 156q116 99 116 217t-116 217q-114 98 -314 157q-198 58 -431.5 58t-430.5 -58q-201 -59 -316 -157q-116 -99 -116 -217t116 -217q113 -97 316 -156q197 -58 430 -58zM0 674q0 115 116 214q113 97 316 156q197 58 430 58q182 0 338 -30
q-160 140 -212 348l-126 5q-233 0 -430 -58q-203 -59 -316 -156q-116 -99 -116 -215v-322zM1724 674v217h-120q120 -100 120 -217zM0 1213q0 116 116 215q113 97 316 156q197 58 430 58l106 -5q16 169 106 313l-212 15q-233 0 -430 -58q-203 -59 -316 -156
q-116 -99 -116 -215v-323zM1614 1158q182 0 308 126l126 -126v429h-434l192 -187q-76 -81 -190 -81q-112 0 -192 79q-78 78 -78 189q0 110 78 191t190 81q65 0 120.5 -30t95.5 -81h182q-45 121 -154 197q-109 75 -244 75q-178 0 -304 -126t-126 -305t126 -305t304 -126z" />
</svg>