<svg xmlns="http://www.w3.org/2000/svg" xmlns:xlink="http://www.w3.org/1999/xlink" version="1.1" viewBox="-10 0 2068 2048">
   <path fill="currentColor"
d="M562 769q-104 0 -179 75t-75 180t75 180t180 75t180 -75t75 -180t-75 -180t-181 -75zM1484 769q-104 0 -180 75q-74 74 -74 180t74 180q76 75 180 75q106 0 182 -75q74 -74 74 -180t-74 -180q-76 -75 -182 -75zM1024 202q222 0 410.5 110t299.5 301q112 191 112 411
t-112 411q-110 190 -300 300q-190 111 -410.5 111t-411.5 -111q-189 -110 -300 -300q-110 -191 -110 -411t110 -411q112 -191 300.5 -301t411.5 -110zM1024 0q-278 0 -514 137q-235 136 -372 373q-138 236 -138 514t138 514q137 237 372 373q236 137 513.5 137t514.5 -137
q236 -137 372 -373q138 -236 138 -514t-138 -514q-136 -236 -372 -373q-237 -137 -514 -137zM1024 308q-106 0 -180 74q-76 75 -76 180q0 106 76 181q74 74 180 74t180 -74q74 -75 74 -181q0 -105 -74 -180q-74 -74 -180 -74zM1178 562q0 21 -20 63l-62 -63l62 -62
q20 42 20 62zM1086 428l-62 62l-62 -62q42 -19 62 -19t62 19zM890 625q-20 -45 -20 -63q0 -17 20 -62l62 62zM962 697l62 -62l62 62q-42 19 -62 19t-62 -19zM1024 1231q-106 0 -180 74q-76 75 -76 180q0 106 76 181q74 74 180 74t180 -74q74 -75 74 -181q0 -105 -74 -180
q-74 -74 -180 -74zM1178 1485q0 21 -20 63l-62 -63l62 -62q20 42 20 62zM1086 1351l-62 62l-62 -62q42 -19 62 -19t62 19zM890 1548q-20 -45 -20 -63q0 -17 20 -62l62 62zM962 1620l62 -62l62 62q-42 19 -62 19t-62 -19z" />
</svg>