<svg xmlns="http://www.w3.org/2000/svg" xmlns:xlink="http://www.w3.org/1999/xlink" version="1.1" viewBox="-10 0 2068 2048">
   <path fill="currentColor"
d="M0 558q31 -8 64 -12q72 -12 162 -12q118 0 218 24q123 26 218 90l16 90q25 93 70 162q60 90 140 90v-158l16 22q15 27 44 42q39 26 76 26t76 -26q29 -15 44 -42l16 -22v158q82 0 142 -90q42 -66 68 -162l16 -90q171 -114 436 -114q130 0 226 24q-82 40 -132 146
q-39 76 -60 178l-12 86q-161 0 -256 78q-70 52 -94 140q-14 40 -14 76q-203 -38 -320 26q-84 46 -118 142q-18 47 -18 84l-8 -56q-14 -61 -48 -106q-51 -64 -136 -90q-106 -30 -264 0l-4 -46q-15 -59 -38 -102q-41 -63 -112 -104q-85 -42 -208 -42l-14 -86
q-21 -102 -60 -178q-50 -106 -132 -146z" />
</svg>