<svg xmlns="http://www.w3.org/2000/svg" xmlns:xlink="http://www.w3.org/1999/xlink" version="1.1" viewBox="-10 0 2058 2048">
   <path fill="currentColor"
d="M1620 971q-156 0 -267 111q-112 112 -112 268q0 122 96 304q67 126 182 278l101 116l96 -116q115 -152 182 -278q96 -182 96 -304q0 -157 -111 -268t-263 -111zM1620 1487q-55 0 -93 -38t-38 -91q0 -54 40 -91q41 -38 89 -38t88 40q42 42 46 89q4 48 -36 88
q-41 41 -96 41zM54 971v-324q0 117 116 215q114 98 316 157q198 58 432 58q95 0 182 -10q-76 136 -76 283q0 29 5 46q-40 5 -111 5q-234 0 -432 -58q-202 -59 -316 -157q-116 -98 -116 -215zM54 430q0 -117 116 -215q114 -98 316 -157q198 -58 432 -58t432 58
q200 59 316 157q116 99 116 218q0 118 -116 217q-116 98 -316 157q-198 58 -432 58t-432 -58q-202 -59 -316 -157q-116 -98 -116 -220zM1241 1912q-151 30 -323 30q-234 0 -432 -58q-202 -59 -316 -157q-116 -98 -116 -215v-323q0 116 116 214q114 98 316 157q198 58 432 58
q60 0 162 -5q60 146 161 299z" />
</svg>