<svg xmlns="http://www.w3.org/2000/svg" xmlns:xlink="http://www.w3.org/1999/xlink" version="1.1" viewBox="-10 0 2068 2048">
   <path fill="currentColor"
d="M510 0q-146 0 -270 91q-111 81 -176 224q-64 141 -64 300q0 161 62 346q65 191 140 270q30 26 58 110q18 49 62 188q76 248 126 351q80 168 168 168q130 0 202 -72q57 -63 80 -178q16 -72 24 -216q9 -130 24 -178q24 -72 77 -72t77 72q16 48 24 178q10 144 24 216
q24 113 82 178q72 72 202 72q88 0 168 -168q50 -103 126 -351q51 -159 62 -188q27 -84 58 -110q74 -79 138 -270q64 -187 64 -346q0 -156 -66 -300q-64 -143 -176 -224q-123 -91 -268 -91q-119 0 -198 19q-40 8 -120 39q-50 23 -82 28q-52 15 -114.5 15t-115.5 -15
q-31 -5 -82 -28q-79 -31 -120 -39q-78 -19 -196 -19z" />
</svg>