<svg xmlns="http://www.w3.org/2000/svg" xmlns:xlink="http://www.w3.org/1999/xlink" version="1.1" viewBox="-10 0 2068 2048">
   <path fill="currentColor"
d="M230 1078v340h-118l-112 -340q0 -48 32 -80t80 -32t84 32q34 31 34 80zM1366 1418v-224l-342 342l342 342v-230h682v-230h-682zM1024 854q0 138 -98 240q-99 100 -242 100q-145 0 -244 -100q-98 -102 -98 -240v-342q0 -144 99 -243t243 -99q142 0 241 99t99 243v342z
M794 512q0 -47 -31.5 -82.5t-78.5 -35.5q-49 0 -80.5 35.5t-31.5 82.5v342q0 48 32 80t80 32q46 0 78 -32t32 -80v-342z" />
</svg>