<svg xmlns="http://www.w3.org/2000/svg" xmlns:xlink="http://www.w3.org/1999/xlink" version="1.1" viewBox="-10 0 2068 2048">
   <path fill="currentColor"
d="M2048 1819q0 47 -32 82t-80 35h-118v-229h230v112zM1366 1936v-229h228v229h-228zM912 1936v-229h224v229h-224zM454 1936v-229h230v229h-230zM112 1936q-48 0 -80 -35t-32 -82v-112h230v229h-118zM1818 112h-1588q-96 0 -163 67t-67 162v230h2048v-230q0 -96 -66 -162
q-68 -67 -164 -67zM230 1253h-230v224h230v-224zM230 795h-230v229h230v-229zM2048 795h-230v229h230v-229zM2048 1253h-230v224h230v-224zM912 1477v-224h224v224h-224zM912 1024v-229h224v229h-224z" />
</svg>