<svg xmlns="http://www.w3.org/2000/svg" xmlns:xlink="http://www.w3.org/1999/xlink" version="1.1" viewBox="-10 0 2068 2048">
   <path fill="currentColor"
d="M1674 654h96v90h-96v-90zM1770 374h-96v184h96v-92h42q22 0 35 -13t13 -35v-182q0 -22 -13 -35t-35 -13h-230v90h188v96zM1490 188h-96v370h96v-370zM1164 1350q0 74 54 130q54 54 130 54q78 0 132 -54q54 -56 54 -132t-54 -130t-132 -54q-76 0 -130 54t-54 132z
M1490 654h-96v90h96v-90zM1952 1212h-92q0 -206 -116 -376h-258q89 67 138 164q50 98 50 212v182h186v96h-186v278h-1298v-278h-188v-96h188v-182q0 -128 60 -234q62 -107 168 -170q109 -64 234 -64h374q44 0 92 10v-188q-48 -8 -92 -8h-96v-118q45 -24 70 -66
q26 -44 26 -96q0 -74 -54 -128q-56 -54 -134 -54t-132 54t-54 128q0 52 26 96q24 42 70 66v118h-96q-176 0 -326 86q-149 87 -236 238q-88 150 -88 330h-92q-37 0 -66.5 25.5t-29.5 64.5v280q0 39 30 64q30 28 66 28h92v94q0 76 54 130q56 54 134 54h1298q78 0 132 -54
t54 -130v-94h92q37 0 68 -28q28 -25 28 -64v-280q0 -39 -28 -64q-30 -26 -68 -26zM698 1164q-74 0 -128 54q-56 54 -56 130t56 132q54 54 130 54t130 -54q56 -56 56 -132t-56 -130q-54 -54 -132 -54z" />
</svg>