<svg xmlns="http://www.w3.org/2000/svg" xmlns:xlink="http://www.w3.org/1999/xlink" version="1.1" viewBox="-10 0 2058 2048">
   <path fill="currentColor"
d="M1666 409q77 164 65 348q-12 186 -99 349q-69 118 -230 322q-66 87 -125 158q-97 136 -140 236q-6 14 -28 67l-34 101q-8 26 -19 44q-8 14 -34 14q-23 0 -43 -24q0 -1 -5.5 -18t-9.5 -30q-48 -146 -91 -216q-46 -89 -149 -231zM729 659l-341 399q42 87 101 173
q41 55 125 158l19 29q32 35 62 77l428 -505h-5q-110 39 -218 -12q-110 -52 -157 -161q-10 -26 -14 -57q-9 -57 0 -101zM465 269q-120 155 -144 358q-24 204 48 392l408 -485zM1248 34l-327 394l5 -5q102 -33 204 5q104 39 156 134q25 49 29 92q9 58 0 106l332 -390
q-67 -120 -168 -204t-226 -128zM806 500l399 -476q-91 -24 -183 -24q-148 0 -288 60q-139 60 -240 176z" />
</svg>