<svg xmlns="http://www.w3.org/2000/svg" xmlns:xlink="http://www.w3.org/1999/xlink" version="1.1" viewBox="-10 0 2068 2048">
   <path fill="currentColor"
d="M1024 536q118 0 199 81t81 197q0 118 -82 200q-80 80 -198 80t-198 -80q-80 -82 -80 -200q0 -116 81 -197t197 -81zM1024 118q340 0 618 192q280 192 406 504q-110 280 -339.5 460.5t-520.5 223.5q-292 44 -564 -64q-213 -83 -374.5 -244.5t-249.5 -375.5
q126 -311 406 -504q280 -192 618 -192zM206 814q110 224 312 358q200 134 444 152q242 19 464 -90q140 -67 246 -176q105 -108 172 -244q-110 -222 -312 -356q-201 -134 -444 -152q-243 -19 -464 90q-143 68 -246 174q-106 109 -172 244zM746 1744h-188v186h188v-186z
M1116 1744h-182v186h182v-186zM1490 1744h-186v186h186v-186z" />
</svg>