<svg xmlns="http://www.w3.org/2000/svg" xmlns:xlink="http://www.w3.org/1999/xlink" version="1.1" viewBox="-10 0 2058 2048">
   <path fill="currentColor"
d="M818 817q0 86 -61 147q-60 60 -144 60t-144 -60t-60 -147v-202q0 -89 29 -187l380 384v5zM1024 0q118 0 216 38l-221 371q-62 0 -113 36q-49 35 -69 93l-303 -298q86 -115 216 -178q127 -62 274 -62zM1615 442l-384 385v-212q0 -56 -29 -105l216 -371q145 121 197 303z
M1639 1135l-408 413v-433l408 -408v428zM1639 1846q0 82 -60 142t-144 60t-144 -60t-60 -142v-10l408 -413v423z" />
</svg>