<svg xmlns="http://www.w3.org/2000/svg" xmlns:xlink="http://www.w3.org/1999/xlink" version="1.1" viewBox="-10 0 2058 2048">
   <path fill="currentColor"
d="M1075 990l293 299q67 -63 67 -140q0 -52 -34 -106l-33 -43l-149 -159q28 -56 28 -124q0 -83 -38 -149q-39 -68 -101 -106l139 -452q-85 -24 -153 10q-50 25 -82 76l-24 49l-82 269q-96 9 -165 69q-71 61 -99 152l-456 144q43 124 153 139q62 10 106 -4l212 -73
q57 120 177 164v735l-53 10q-58 15 -96 53q-52 52 -52 144v101h614v-101l-9 -53q-15 -63 -53 -101q-53 -53 -144 -53v-735zM786 717q0 -65 43 -109q43 -45 109 -45q65 0 110 45q46 46 46 109q0 62 -46 108q-45 45 -110 45q-66 0 -109 -45t-43 -108zM1656 1024v-514h206v615
h-206v-101zM1656 1538v-206h206v206h-206z" />
</svg>