<svg xmlns="http://www.w3.org/2000/svg" xmlns:xlink="http://www.w3.org/1999/xlink" version="1.1" viewBox="-10 0 2068 2048">
   <path fill="currentColor"
d="M1740 1487q-188 0 -364 -58q-62 -19 -106 24l-224 226q-216 -111 -392 -286q-172 -173 -284 -391l224 -225q44 -43 24 -106q-56 -172 -56 -364q0 -43 -29 -72t-73 -29h-360q-42 0 -71 29t-29 72q0 346 132 667q133 323 376.5 566t565.5 376q322 132 666 132q44 0 73 -29
t29 -72v-359q0 -43 -29 -72t-73 -29zM1534 1026l514 -513l-514 -513v307h-408v412h408v307z" />
</svg>