<svg xmlns="http://www.w3.org/2000/svg" xmlns:xlink="http://www.w3.org/1999/xlink" version="1.1" viewBox="-10 0 2068 2048">
   <path fill="currentColor"
d="M2048 1367l-452 453l-320 -316l136 -137l184 180l314 -316zM1002 638q116 0 195 79t79 194t-79 194t-194 79t-194 -79t-79 -194t79 -194t193 -79zM1002 228q338 0 610 190t392 493q-34 86 -84 166q-84 -48 -172 -64l56 -102q-111 -230 -328 -365q-216 -134 -474 -134
t-474 134q-217 135 -328 365q111 230 328 365q216 134 474 134l112 -4q-22 72 -22 141v42l-90 4q-339 0 -610 -189q-271 -190 -392 -493q121 -303 392 -493q273 -190 610 -190z" />
</svg>