<svg xmlns="http://www.w3.org/2000/svg" xmlns:xlink="http://www.w3.org/1999/xlink" version="1.1" viewBox="-10 0 2058 2048">
   <path fill="currentColor"
d="M1512 1266v292h-294v197h294v293h196v-293h292v-197h-292v-292h-196zM1658 146l-146 -146l-148 146l-146 -146l-146 146l-146 -146l-146 146l-146 -146l-146 146l-146 -146l-146 146l-148 -146v1947l148 -146l146 146l146 -146l146 146l146 -146l146 146l124 -123
q-28 -82 -28 -170q0 -96 36 -192h-716v-196h830q83 -91 198 -144t238 -53q97 0 196 37v-1106zM1512 1069h-1170v-192h1170v192zM1512 681h-1170v-197h1170v197z" />
</svg>