<svg xmlns="http://www.w3.org/2000/svg" xmlns:xlink="http://www.w3.org/1999/xlink" version="1.1" viewBox="-10 0 2068 2048">
   <path fill="currentColor"
d="M1094 1594q0 42 10 104h-908q-78 0 -138 -60q-58 -58 -58 -142v-1196q0 -86 58 -144t138 -58h104l196 402h298l-196 -402h196l202 402h300l-202 -402h202l200 402h300l-202 -402h398v982q-137 -84 -298 -84t-298 82q-138 82 -220 220q-82 135 -82 296zM2048 1384
l-140 -140l-216 210l-210 -210l-140 140l210 210l-210 216l140 140l210 -216l216 216l140 -140l-216 -216z" />
</svg>