<svg xmlns="http://www.w3.org/2000/svg" xmlns:xlink="http://www.w3.org/1999/xlink" version="1.1" viewBox="-10 0 2058 2048">
   <path fill="currentColor"
d="M1100 1367q0 82 -57 139t-139 57q-84 0 -141 -57t-57 -139q0 -83 57 -140t141 -57q82 0 139 57t57 140zM318 1856v-978h1170v301q60 -9 98 -9t98 9v-301q0 -78 -57 -135t-139 -57h-96v-197q0 -130 -66 -244q-67 -114 -178 -179q-113 -66 -244 -66q-133 0 -246 66
q-111 65 -178 179q-66 113 -66 244h196q0 -123 86 -208q84 -84 208 -84t208 84t84 208v197h-878q-82 0 -139 57t-57 135v978q0 78 57 135t139 57h764q-55 -86 -74 -192h-690zM1812 1449l-346 352l-156 -155l-114 109l270 293l460 -462z" />
</svg>