<svg xmlns="http://www.w3.org/2000/svg" xmlns:xlink="http://www.w3.org/1999/xlink" version="1.1" viewBox="-10 0 2068 2048">
   <path fill="currentColor"
d="M716 1639q-130 0 -219 -89t-89 -218q0 -131 154 -351q73 -109 154 -202l82 101q91 116 144 216q82 146 82 236q0 129 -89 218t-219 89zM1230 202v1644h-1028v-1644h-202v1644q0 82 60 142t142 60h1028q82 0 142 -60q60 -61 60 -142v-1644h-202zM818 409v-409h-202v409
h-308v206h816v-206h-306zM1946 1586v-1230q0 -62 -46 -108t-108 -46t-108 46t-46 108v1230q-45 37 -74 92q-26 53 -26 115q0 105 75 180t180 75t180 -75t75 -180q0 -126 -102 -207zM1846 1125h-106v-716h106v716z" />
</svg>