<svg xmlns="http://www.w3.org/2000/svg" xmlns:xlink="http://www.w3.org/1999/xlink" version="1.1" viewBox="-10 0 2058 2048">
   <path fill="currentColor"
d="M1024 817l-408 -572l163 -245h490l164 245zM1385 490l-125 173q172 72 276 224q103 151 103 344q0 161 -82 305q-81 142 -223 226t-310 84t-310 -84t-223 -226q-82 -144 -82 -305q0 -193 103 -344q104 -152 277 -224l-125 -173q-205 100 -334 298q-128 197 -128 443
q0 221 111 408q111 188 300 298q191 111 411 111t411 -111q189 -110 300 -298q111 -187 111 -408q0 -246 -128 -443q-129 -199 -333 -298z" />
</svg>