<svg xmlns="http://www.w3.org/2000/svg" xmlns:xlink="http://www.w3.org/1999/xlink" version="1.1" viewBox="-10 0 2068 2048">
   <path fill="currentColor"
d="M2048 1939l-1930 -1939l-118 117l100 96q-20 51 -20 79v1068q0 75 52 127t128 52h620v179h-174v176h354v-534h-800v-985l980 976v455q0 38 26 63q27 25 60 25h456l150 154zM1640 1806q-130 0 -222 -92t-92 -221q0 -35 8 -50l88 88q17 65 65.5 114t114.5 65l88 88
q-15 8 -50 8zM1860 1493v29l-250 -250h30q90 0 155 65t65 156zM2040 1698v-872q0 -38 -28 -63q-26 -25 -64 -25h-622q-36 0 -62 27q-24 26 -24 61v71l300 304q52 -16 100 -16q126 0 217 91t91 217q0 48 -16 100zM1640 1093q-54 0 -94 -40t-40 -92q0 -50 40 -93
q38 -42 92 -42q50 0 92 42t42 93q0 53 -42 92q-43 40 -90 40zM634 292l-178 -175h1404q76 0 128 52t52 123v359h-180v-359h-1226z" />
</svg>