<svg xmlns="http://www.w3.org/2000/svg" xmlns:xlink="http://www.w3.org/1999/xlink" version="1.1" viewBox="-10 0 2068 2048">
   <path fill="currentColor"
d="M1726 442l-259 -340l375 -71l72 371zM1444 496l-259 -336l-188 36l264 336zM1663 1060q159 0 287 80v-367h-1906v958q0 76 56 132t132 56h939q-80 -129 -80 -284t78 -287t210 -210t284 -78zM979 590l-264 -340l-188 40l264 336zM250 344l-94 18q-76 18 -121 83
q-45 64 -31 145l40 183l465 -89zM1762 1539v-287h-193v287h-286v192h286v286h193v-286h286v-192h-286z" />
</svg>