<svg xmlns="http://www.w3.org/2000/svg" xmlns:xlink="http://www.w3.org/1999/xlink" version="1.1" viewBox="-10 0 2068 2048">
   <path fill="currentColor"
d="M1740 615v-206q0 -125 -90 -217q-88 -91 -218 -91h-816q-131 0 -220 91q-88 92 -88 217v206q-130 0 -219 92t-89 216v514q0 125 90 217q88 91 218 91v202h202v-202h1028v202h202v-202q130 0 218 -91q90 -92 90 -217v-514q0 -124 -89 -216t-219 -92zM510 409q0 -39 31 -70
t75 -31h816q44 0 75 31t31 70v288q-106 91 -106 226v207h-816v-207q0 -134 -106 -226v-288zM1846 1437q0 39 -31 70t-75 31h-1432q-44 0 -74 -31q-32 -32 -32 -70v-514q0 -43 32 -72t71.5 -29t72.5 29q30 28 30 72v409h1230v-409q0 -44 32 -72q32 -29 72 -29t72 29
q32 28 32 72v514z" />
</svg>