<svg xmlns="http://www.w3.org/2000/svg" xmlns:xlink="http://www.w3.org/1999/xlink" version="1.1" viewBox="-10 0 2068 2048">
   <path fill="currentColor"
d="M2048 1367l-452 453l-320 -316l136 -137l184 180l314 -316zM1002 638q116 0 195 79t79 194t-79 194t-194 79t-194 -79t-79 -194t79 -194t193 -79zM1002 1367q68 0 128 -21q-38 102 -38 201v42l-90 4q-339 0 -610 -189q-271 -190 -392 -493q121 -303 392 -493
q273 -190 610.5 -190t609.5 190t392 493q-34 86 -84 166q-129 -77 -282 -77q-98 0 -200 39q20 -60 20 -128q0 -122 -62 -228t-166 -167q-105 -62 -227.5 -62t-228.5 62q-105 62 -166 167q-62 106 -62 228t62 228q60 104 166 166t228 62z" />
</svg>