<svg xmlns="http://www.w3.org/2000/svg" xmlns:xlink="http://www.w3.org/1999/xlink" version="1.1" viewBox="-10 0 2068 2048">
   <path fill="currentColor"
d="M1356 21q-188 0 -320 132t-132 320t132 320t320 132q118 0 240 -70l310 310l142 -141l-310 -311q70 -122 70 -240q0 -189 -132 -320q-132 -132 -320 -132zM198 219q-80 0 -139 59t-59 143v1408q0 80 59 139t139 59h1408q84 0 144 -59q58 -58 58 -139v-504l-202 -202v706
h-1408v-1408h508q5 -92 48 -202h-556zM1356 219q104 0 177 73t73 179t-73 179t-179 73t-179 -73t-73 -179t73 -179t181 -73z" />
</svg>