<svg xmlns="http://www.w3.org/2000/svg" xmlns:xlink="http://www.w3.org/1999/xlink" version="1.1" viewBox="-10 0 2068 2048">
   <path fill="currentColor"
d="M1178 1538h-976v-615h1058q80 -95 192 -151t240 -56q192 0 356 135v-543q0 -87 -60 -147t-142 -60h-1644q-82 0 -142 60t-60 147v1230q0 87 60 147t142 60h1086q-65 -102 -110 -207zM202 308h1644v206h-1644v-206zM1692 923q-151 0 -256 106q-104 107 -104 255
q0 116 90 288q67 122 174 264l96 111l90 -111q107 -142 174 -264q92 -173 92 -288q0 -147 -106 -255q-105 -106 -250 -106zM1692 1413q-54 0 -90 -36t-36 -86q0 -51 39 -87t84 -36t85 39q38 38 42.5 83.5t-34.5 84.5q-38 38 -90 38z" />
</svg>