<svg xmlns="http://www.w3.org/2000/svg" xmlns:xlink="http://www.w3.org/1999/xlink" version="1.1" viewBox="-10 0 2068 2048">
   <path fill="currentColor"
d="M1582 1118l74 8l-4 22l44 13l16 -13q75 39 110 109l-14 13l18 44l22 -5q12 42 12 88l-8 69h-22l-18 44l18 13q-38 73 -108 113l-18 -17l-40 22v21q-37 13 -82 13l-74 -8v-26l-40 -18l-16 18q-75 -39 -114 -105l18 -17l-18 -44h-22q-12 -38 -12 -78l8 -74h22l18 -44
l-18 -13q38 -73 108 -113l18 17l40 -22v-17q37 -13 82 -13zM1582 1257q-57 0 -98 39q-42 38 -42 98t41 101t98 41t99 -41q42 -42 42 -101t-42 -98t-98 -39zM466 1118l76 8l-6 22l44 13l18 -13q74 39 108 109l-12 13l16 44l22 -5q14 42 14 88l-8 69h-22l-18 44l18 13
q-39 73 -110 113l-18 -17l-38 22v21q-38 13 -84 13l-74 -8v-26l-38 -18l-18 18q-74 -39 -112 -105l16 -17l-16 -44h-22q-14 -38 -14 -78l8 -74h22l18 -44l-18 -13q39 -73 110 -113l18 17l38 -22v-17q38 -13 82 -13zM466 1257q-56 0 -98 39q-40 38 -40 98t41 101t98 41
t97 -41q42 -42 42 -101t-42 -98t-98 -39zM1394 373l280 370h186q80 0 134 54t54 133v279h-188q0 -118 -80 -198q-80 -81 -198 -81t-198 81q-80 80 -80 198h-558q0 -118 -80 -198q-82 -81 -200 -81q-116 0 -198 81q-80 80 -80 198h-188v-466h886v-370h508zM1024 512v231h506
l-178 -231h-328z" />
</svg>