<svg xmlns="http://www.w3.org/2000/svg" xmlns:xlink="http://www.w3.org/1999/xlink" version="1.1" viewBox="-10 0 2058 2048">
   <path fill="currentColor"
d="M1787 1211l-205 210l-206 -210l-142 142l210 205l-210 206l142 142l206 -210l205 210l142 -142l-210 -206l210 -205zM997 0q-83 0 -140 57t-57 135v32q-211 60 -347 240q-137 181 -137 413v585l-197 192v101h910q-32 -98 -32 -197q0 -161 77 -294q78 -135 213 -213
t295 -78q51 0 96 9v-105q0 -231 -138 -413q-136 -180 -347 -240v-32q0 -78 -57 -135t-139 -57zM800 1851q0 82 57 139q58 58 140 58q50 0 91 -23q42 -23 69 -64q-53 -60 -83 -110h-274z" />
</svg>