<svg xmlns="http://www.w3.org/2000/svg" xmlns:xlink="http://www.w3.org/1999/xlink" version="1.1" viewBox="-10 0 2068 2048">
   <path fill="currentColor"
d="M1024 1639q-127 0 -232 -55q-105 -56 -176 -151h408q130 0 219 -89t89 -219q0 -52 -20 -101h216q10 53 10 101q0 139 -70 257q-68 117 -188 188q-116 69 -256 69zM1024 611q126 0 230 55q108 57 178 151h-408q-130 0 -220 89q-88 88 -88 219q0 50 20 101h-216
q-10 -48 -10 -101q0 -137 70 -257q68 -118 186 -188q118 -69 258 -69zM1846 303h-328l-186 -202h-616l-188 202h-326q-82 0 -142 60t-60 147v1230q0 87 60 147t142 60h1644q82 0 142 -60t60 -147v-1230q0 -87 -60 -147t-142 -60z" />
</svg>