<svg xmlns="http://www.w3.org/2000/svg" xmlns:xlink="http://www.w3.org/1999/xlink" version="1.1" viewBox="-10 0 2058 2048">
   <path fill="currentColor"
d="M356 0h1426q38 0 64 27q24 26 24 65v354q0 38 -25 63t-63 25h-996l-178 -175h16v-180h-176v17l-162 -159q28 -37 70 -37zM1958 1935l-112 113l-88 -88h-1402q-36 0 -62 -27q-24 -26 -24 -64v-355q0 -38 25 -63t61 -25h868l-180 -179h-688q-36 0 -61 -25t-25 -62v-359
q0 -38 25 -63t61 -25h156l-180 -183q-46 -12 -58 -55l-184 -183l116 -113zM1782 713q38 0 63 25t25 63v359q0 37 -25 62t-63 25h-282l-534 -534h816zM1782 1426q38 0 63 25t25 63v104l-196 -192h108zM802 359h88v-180h-88v180zM802 1068h68l-68 -63v63zM802 1781h88v-179
h-88v179zM448 893v175h176v-175h-176zM448 1602v179h176v-179h-176z" />
</svg>