<svg xmlns="http://www.w3.org/2000/svg" xmlns:xlink="http://www.w3.org/1999/xlink" version="1.1" viewBox="-10 0 2068 2048">
   <path fill="currentColor"
d="M1484 82q-128 0 -252 57q-119 55 -208 159q-90 -104 -210 -159q-122 -57 -252 -57q-156 0 -284 74q-129 75 -204 205q-74 129 -74 288q0 184 110 370q97 165 304 380q119 121 460 433l150 134l148 -134q342 -312 462 -433q206 -215 302 -380q112 -187 112 -370
q0 -157 -76 -288q-74 -130 -204 -205q-127 -74 -284 -74zM1024 1620v-409h-308l308 -716v409h308z" />
</svg>