<svg xmlns="http://www.w3.org/2000/svg" xmlns:xlink="http://www.w3.org/1999/xlink" version="1.1" viewBox="-10 0 2068 2048">
   <path fill="currentColor"
d="M1432 1591v202h-1432v-202l4 -43q9 -50 40 -101q44 -74 110 -125q84 -61 212 -101q146 -43 350 -43q318 0 504 106q136 77 188 202q24 57 24 105zM1076 615q0 -112 -62 -199q-63 -89 -160 -132q-99 -43 -208 -22q-106 21 -184.5 99t-99.5 185q-21 108 22 206
q44 99 132 162q88 62 200 62q150 0 254 -106q106 -108 106 -255zM1428 1178q94 75 150 185q56 108 60 228v202h410v-202l-6 -38q-8 -45 -34 -96q-33 -68 -96 -116q-69 -65 -182 -105q-127 -43 -302 -58zM1332 255q-112 0 -198 62q96 135 96 298q0 164 -96 299q86 62 198 62
q149 0 254 -106q106 -108 106 -255q0 -146 -106 -254q-105 -106 -254 -106z" />
</svg>