<svg xmlns="http://www.w3.org/2000/svg" xmlns:xlink="http://www.w3.org/1999/xlink" version="1.1" viewBox="-10 0 2068 2048">
   <path fill="currentColor"
d="M1842 905q78 0 135 57t57 138q0 80 -57 137t-135 57h-178l-390 -389h568zM1882 1760l-466 -466l-1292 -1294l-124 124l292 292q-51 65 -78 142q-18 56 -26 110l-6 41h404l190 196h-498q-76 0 -134 57q-58 58 -58 138q0 79 58 137q58 57 134 57h892l192 196h-1180v96
q0 123 85 208t209 85h1170q46 0 90 -18l188 187l124 -123zM1938 709q-6 -42 -10 -60q-12 -73 -46 -146q-52 -103 -132 -174q-107 -90 -260 -146q-180 -59 -430 -59q-285 0 -484 82l502 503h860z" />
</svg>