<svg xmlns="http://www.w3.org/2000/svg" xmlns:xlink="http://www.w3.org/1999/xlink" version="1.1" viewBox="-10 0 2058 2048">
   <path fill="currentColor"
d="M1054 1796h-804v-1398h-200v1398q0 79 58 138q58 58 142 58h880q-58 -92 -76 -196zM1644 0h-996q-84 0 -143 59t-59 138v1197q0 83 59 142t143 59h406q18 -105 76 -201h-482v-1197h200v598l248 -224l248 224v-598h300v897q102 0 200 38v-935q0 -79 -59 -138t-141 -59z
M1998 1483l-214 210l214 215l-140 140l-214 -215l-212 215l-140 -140l212 -215l-212 -210l140 -141l212 211l214 -211z" />
</svg>