<svg xmlns="http://www.w3.org/2000/svg" xmlns:xlink="http://www.w3.org/1999/xlink" version="1.1" viewBox="-10 0 2068 2048">
   <path fill="currentColor"
d="M0 912h230v224h-230v-224zM912 229h224v454h-224v-454zM684 912h452v453h-224v-229h-228v-224zM1366 912h228v224h224v-224h230v224h-230v229h230v454h-230v229h-224v-229h-458v229h-224v-453h454v-230h228v-229h-228v-224zM1818 1819v-454h-224v454h224zM1366 0h682v683
h-682v-683zM1594 229v224h224v-224h-224zM0 0h684v683h-684v-683zM230 229v224h224v-224h-224zM0 1365h684v683h-684v-683zM230 1595v224h224v-224h-224z" />
</svg>