<svg xmlns="http://www.w3.org/2000/svg" xmlns:xlink="http://www.w3.org/1999/xlink" version="1.1" viewBox="-10 0 2058 2048">
   <path fill="currentColor"
d="M500 1756h781v292h-781v-292zM1395 1075l-311 -160q-23 0 -36 13l-32 32l59 233l-96 23l-114 -484l-146 68l105 416l-96 23l-101 -397l-45 18q-38 14 -60 50q-22 35 -22 82v425q0 56 45 101q46 46 101 46h635q54 0 96 -46l50 -37l23 -23q27 -32 27 -54v-165l-5 -27
q-5 -43 -22 -69q-18 -45 -55 -68zM1468 1q-37 -5 -71 18q-34 22 -43 59l-105 604l-23 -5q-18 -9 -37 -9l-41 4l-119 -594q-9 -37 -43 -59q-36 -23 -73 -16q-41 8 -62 41q-23 34 -13 76l118 575l32 151q45 -32 96 -32h32l292 160l138 -854q9 -41 -14 -76q-22 -34 -64 -43z
" />
</svg>