<svg xmlns="http://www.w3.org/2000/svg" xmlns:xlink="http://www.w3.org/1999/xlink" version="1.1" viewBox="-10 0 2068 2048">
   <path fill="currentColor"
d="M120 662q-52 0 -86 36q-34 37 -34 82v215q0 46 34 83q34 36 86 36h300v91h-420v181h482q50 0 84 -37t34 -82v-215q0 -45 -34 -82t-84 -37h-300v-90h418v-181h-480zM844 662q-52 0 -86 36q-34 37 -34 82v215q0 46 34 83q34 36 86 36h298v91h-418v181h482q49 0 83.5 -37
t34.5 -82v-215q0 -45 -34.5 -82t-83.5 -37h-300v-90h418v-181h-480zM1448 662v724h182v-300h236v300h182v-724h-182v243h-236v-243h-182z" />
</svg>