<svg xmlns="http://www.w3.org/2000/svg" xmlns:xlink="http://www.w3.org/1999/xlink" version="1.1" viewBox="-10 0 2068 2048">
   <path fill="currentColor"
d="M716 308q-197 0 -360 96q-164 96 -260 259q-96 164 -96 361.5t96 360.5t260 259q163 96 360 96q160 0 308 -67q147 67 308 67q196 0 360 -96q164 -97 260 -259q96 -163 96 -360.5t-96 -361.5q-96 -162 -260 -259q-164 -96 -360 -96q-161 0 -308 67q-148 -67 -308 -67z
M716 510q54 0 102 9q-97 101 -150 233q-52 133 -52 272t52 272q53 131 150 228q-50 14 -102 14q-140 0 -256 -69q-120 -71 -188 -188q-70 -120 -70 -257t70 -257q68 -117 188 -188q116 -69 256 -69zM1332 510q140 0 256 69q119 70 188 188q70 120 70 257t-70 257
q-69 118 -188 188q-116 69 -256 69q-54 0 -102 -9q97 -101 150 -233q52 -133 52 -272t-52 -272q-53 -131 -150 -228q50 -14 102 -14z" />
</svg>