<svg xmlns="http://www.w3.org/2000/svg" xmlns:xlink="http://www.w3.org/1999/xlink" version="1.1" viewBox="-10 0 2068 2048">
   <path fill="currentColor"
d="M815 1106q24 29 21 68t-29 65q-28 28 -65 32q-40 5 -73 -19q-71 -71 -114 -168q-42 -94 -42 -196.5t42 -197.5t114 -167l364 -369q102 -102 235.5 -136.5t267 0t233.5 133.5q98 98 133 233q34 134 0 268q-35 134 -136 235l-155 156q4 -126 -39 -248l54 -54
q82 -92 82 -221t-82 -226q-97 -82 -226 -82t-221 82l-364 375q-93 93 -93 221q0 129 93 216zM1397 1135q24 -128 -14 -250q-39 -124 -131 -216q-35 -24 -73 -20q-39 5 -66 32q-26 26 -29 65q-3 38 22 68q92 86 92 217q0 129 -92 221l-364 374q-93 82 -221 82
q-129 0 -226 -82q-83 -98 -83 -226q0 -127 83 -221l53 -44q-44 -126 -39 -257l-155 155q-102 101 -136 236q-35 134 -0.5 267.5t134 233t233 134t267 0t235.5 -136.5l185 -185q24 -142 109 -260q86 -120 216 -187zM1902 1325l-218 213l-214 -213l-146 145l214 214l-214 219
l146 145l214 -218l218 218l146 -145l-218 -219l218 -214z" />
</svg>