<svg xmlns="http://www.w3.org/2000/svg" xmlns:xlink="http://www.w3.org/1999/xlink" version="1.1" viewBox="-10 0 2068 2048">
   <path fill="currentColor"
d="M230 1365h-230v454q0 95 67 162t163 67h454v-229h-454v-454zM230 229h454v-229h-454q-96 0 -163 67t-67 162v454h230v-454zM1818 0h-452v229h452v454h230v-454q0 -96 -66 -162q-68 -67 -164 -67zM1818 1819h-452v229h452q96 0 164 -67q66 -66 66 -162v-454h-230v454z
M1024 571q-186 0 -319 133t-133 320t133 320t320 133t320 -133t133 -320t-133 -320t-321 -133zM1024 1253q-96 0 -162 -66q-68 -67 -68 -163t68 -163q66 -66 162 -66t162 66q68 67 68 163t-68 163q-66 66 -162 66z" />
</svg>