<svg xmlns="http://www.w3.org/2000/svg" xmlns:xlink="http://www.w3.org/1999/xlink" version="1.1" viewBox="-10 0 2068 2048">
   <path fill="currentColor"
d="M1856 2048q78 0 135 -57t57 -135v-197h-192v197h-196v192h196zM1462 2048v-192h-292v192h292zM978 2048v-192h-196v-197h-196v197q0 78 57 135t139 57h196zM2048 1463v-293h-192v293h192zM782 1463v-681h680v-585q0 -83 -57 -140t-135 -57h-1074q-82 0 -139 57t-57 140
v1074q0 78 57 135t139 57h586zM586 1271h-390v-1074h1074v388h-488q-82 0 -139 57t-57 140v489zM2048 978v-196q0 -83 -57 -140t-135 -57h-196v197h196v196h192z" />
</svg>