<svg xmlns="http://www.w3.org/2000/svg" xmlns:xlink="http://www.w3.org/1999/xlink" version="1.1" viewBox="-10 0 2058 2048">
   <path fill="currentColor"
d="M1175 0v817h822q0 -221 -111 -408t-298 -298q-188 -111 -413 -111zM1824 1423q173 -221 173 -500h-1495l-96 -207h-355v207h225l101 212q99 213 116 240q-86 43 -137 130t-51 187q0 149 106 253q104 103 255 103q134 0 235 -87q100 -87 115 -221h217q19 134 120 221
t235 87q150 0 253 -103t103 -253q0 -83 -31 -151q-32 -70 -89 -118zM666 1846q-67 0 -111 -46q-43 -44 -43 -110q0 -65 43 -108q44 -44 108 -44q65 0 111 44q45 44 45 108q0 65 -45 110q-46 46 -108 46zM1588 1846q-66 0 -110 -46q-43 -44 -43 -110q0 -65 43 -108
q44 -44 108 -44t110 44t46 108t-46 110t-108 46z" />
</svg>