<svg xmlns="http://www.w3.org/2000/svg" xmlns:xlink="http://www.w3.org/1999/xlink" version="1.1" viewBox="-10 0 2068 2048">
   <path fill="currentColor"
d="M1494 96q-30 0 -52 12l-1014 590h370l736 -432q35 -18 44 -54q8 -38 -10 -72q-25 -44 -74 -44zM1394 654v182h-1206q-78 0 -132 54q-56 56 -56 134h96v278h-96v372h188q0 118 80 198q82 80 198 80q118 0 200 -80q80 -80 80 -198h558q0 118 80 198t198 80t198 -80t80 -198
h188v-602l-326 -418h-328zM1582 792h92l234 280v92h-326v-372zM280 1024h278v278h-278v-278zM746 1024h278v278h-278v-278zM1212 1024h182v278h-182v-278zM466 1534q56 0 98 42t42 100t-42 97t-98 39t-98 -38q-40 -39 -40 -98q0 -60 40 -100q42 -42 98 -42zM1582 1534
q56 0 98 42t42 100t-42 97t-98.5 39t-97.5 -38q-42 -39 -42 -98q0 -60 42 -100q42 -42 98 -42z" />
</svg>