<svg xmlns="http://www.w3.org/2000/svg" xmlns:xlink="http://www.w3.org/1999/xlink" version="1.1" viewBox="-10 0 2068 2048">
   <path fill="currentColor"
d="M1842 1719l-1718 -1719l-124 124l356 356q-78 100 -78 229v1074q0 78 57 135t141 57h1170q81 0 140 -64l138 137l124 -123zM476 709q0 -46 22 -87l672 672h-694v-585zM1646 1783h-1170v-393h196v196h96v-196h498l380 379v14zM1448 512q82 0 140 57q58 58 58 140v567
l196 192v-759q0 -161 -114 -275t-280 -114v-100q0 -78 -57 -135t-135 -57h-392q-78 0 -135 57t-57 135v77l214 215h562zM864 220h392v100h-392v-100z" />
</svg>