<svg xmlns="http://www.w3.org/2000/svg" xmlns:xlink="http://www.w3.org/1999/xlink" version="1.1" viewBox="-10 0 2058 2048">
   <path fill="currentColor"
d="M568 55q-134 83 -215 228q-80 144 -80 312q0 167 80 311q81 146 219 228q-153 0 -276 -71q-124 -72 -196 -196q-72 -125 -72 -272q0 -149 72 -273t196 -196q123 -71 272 -71zM1706 202l139 139l-1531 1531l-138 -138zM1098 442l-148 -92l-138 97l42 -166l-139 -106
l171 -9l60 -166l64 161l171 5l-134 110zM775 798l-115 -74l-111 78l32 -134l-106 -78l134 -9l46 -129l46 124l134 5l-101 87zM1697 1185q0 149 -71 272q-72 124 -196 196t-272 72q-180 0 -323 -102l761 -761q101 141 101 323zM1264 1831l276 -111l-27 328zM1693 1568
l110 -272l217 249zM1803 1079l-110 -272l327 23zM775 1720l277 111l-249 217z" />
</svg>