<svg xmlns="http://www.w3.org/2000/svg" xmlns:xlink="http://www.w3.org/1999/xlink" version="1.1" viewBox="-10 0 2058 2048">
   <path fill="currentColor"
d="M1074 1947q0 44 31 72q33 29 70 29h207q43 0 72 -29t29 -72v-101h-409v101zM1281 508q-139 0 -257 70q-120 72 -188 188q-70 120 -70 257q0 120 56 229t151 180v207q0 43 29 72t72 29h409q43 0 75 -29q31 -28 31 -72v-207q111 -82 163 -207q53 -125 36 -262
q-16 -139 -98 -248q-70 -94 -181 -151q-108 -56 -228 -56zM1382 1312v226h-207v-226q-119 -43 -175 -159q-55 -115 -12 -233q44 -119 158.5 -174t235.5 -14t176 156q56 116 12 236q-23 67 -73 116q-48 48 -115 72zM632 1331h-72v101q0 44 31 75t74 31h101v-14
q-84 -88 -134 -193zM1238 306q-51 -129 -164 -209q-110 -79 -247 -94q-136 -15 -265 41q-128 56 -207 166q-79 111 -96 245q-16 137 38 260q56 125 162 207v202q0 44 31 75t70 31h33q-33 -100 -33 -207q0 -189 91 -349q93 -162 245 -260q155 -99 342 -108z" />
</svg>