<svg xmlns="http://www.w3.org/2000/svg" xmlns:xlink="http://www.w3.org/1999/xlink" version="1.1" viewBox="-10 0 2068 2048">
   <path fill="currentColor"
d="M230 0h1588q96 0 164 67q66 66 66 162v1590q0 96 -66 162q-68 67 -164 67h-1588q-96 0 -163 -67t-67 -162v-1590q0 -95 67 -162t163 -67zM512 1365q-68 0 -119 51t-51 120t51 120t120 51t120 -51t51 -120t-51 -120t-121 -51zM342 795v229q184 0 344 91q157 90 248 248
q90 159 90 344h230q0 -246 -124 -456q-123 -212 -332 -334t-456 -122zM342 341v230q226 0 434 85q211 86 370 245q159 158 246 371q86 211 86 435h228q0 -375 -184 -686q-184 -312 -496 -496q-311 -184 -684 -184z" />
</svg>