<svg xmlns="http://www.w3.org/2000/svg" xmlns:xlink="http://www.w3.org/1999/xlink" version="1.1" viewBox="-10 0 2068 2048">
   <path fill="currentColor"
d="M1484 1433h-868q-130 0 -219 -89t-89 -217q0 -126 88.5 -218t219.5 -92h14q32 -133 142 -221q106 -86 252 -86q168 0 288 120q120 121 120 293h52q106 0 182 75q74 74 74 180t-74 180q-76 75 -182 75zM1024 0q-200 0 -392 77q-188 76 -333.5 221t-220.5 334
q-78 192 -78 392t78 392q75 189 220.5 334t333.5 221q192 77 392 77t392 -77q188 -76 333.5 -221t220.5 -334q78 -192 78 -392t-78 -392q-75 -189 -220.5 -334t-333.5 -221q-192 -77 -392 -77z" />
</svg>