<svg xmlns="http://www.w3.org/2000/svg" xmlns:xlink="http://www.w3.org/1999/xlink" version="1.1" viewBox="-10 0 2068 2048">
   <path fill="currentColor"
d="M1828 570h-110l-1218 1218h-300q-80 0 -140 -60q-60 -58 -60 -144t60 -146t140 -60h134l170 -170v-438q0 -38 31 -69t75 -31h100q42 0 70 30q30 33 30 70v132l742 -742h276q80 0 140 60t60 145t-60 145t-140 60zM658 264q66 0 109 43t43 107q0 65 -44 110q-44 46 -106 46
q-64 0 -110 -46t-46 -110q0 -62 46 -106q45 -44 108 -44zM1300 1518l562 -564l186 186l-562 562l190 186h-562v-556z" />
</svg>