<svg xmlns="http://www.w3.org/2000/svg" xmlns:xlink="http://www.w3.org/1999/xlink" version="1.1" viewBox="-10 0 2068 2048">
   <path fill="currentColor"
d="M654 1234l-304 -301h208q14 -264 78 -471q66 -212 168.5 -337t219.5 -125q140 0 254 166q111 163 168 436q274 58 436 170q166 114 166 252q0 126 -138 233q-136 106 -368 168l32 -191q131 -38 210 -94q76 -54 76 -116q0 -74 -104 -135t-278 -96q12 113 12 231
q0 280 -62 515q-63 232 -170 372q-106 137 -233.5 137t-232.5 -137q-107 -139 -168 -368l192 30q38 133 94 212q53 76 114 76q74 0 140 -113q65 -113 102 -305q38 -189 38 -419q0 -144 -14 -265q-130 -14 -266 -14l-174 5l30 -188l144 -4q119 0 232 13q-35 -174 -96 -279
q-61 -104 -134 -104q-71 0 -132 98q-61 96 -100 268q-39 169 -48 379h208zM1234 1395l-300 305v-209q-261 -14 -472 -79q-212 -66 -337 -168t-125 -224q0 -121 138 -229q137 -106 368 -168l-30 192q-132 38 -212 94q-76 54 -76 120q0 64 98 126q96 60 268 100q170 39 380 48
v-209z" />
</svg>