<svg xmlns="http://www.w3.org/2000/svg" xmlns:xlink="http://www.w3.org/1999/xlink" version="1.1" viewBox="-10 0 2058 2048">
   <path fill="currentColor"
d="M1740 1231h-144v817h144v-817zM452 2048h-144l202 -817h149zM693 774v351h-183v-481l476 -202q62 -28 134 -7q73 21 116 84l96 154q72 131 168 183q104 67 240 67v187q-159 0 -293 -67q-112 -53 -231 -187l-57 288l201 188v716h-192v-563l-197 -201l-178 764h-201
l274 -1341zM1433 202q0 86 -61 147q-60 60 -144 60t-144 -60t-60 -145q0 -84 60 -144t144 -60t144 60q61 61 61 142z" />
</svg>