<svg xmlns="http://www.w3.org/2000/svg" xmlns:xlink="http://www.w3.org/1999/xlink" version="1.1" viewBox="-10 0 2058 2048">
   <path fill="currentColor"
d="M1070 1830q-78 29 -154.5 -7t-107.5 -116q-32 -79 4 -156q36 -76 118 -105t158 7q78 37 106 115q29 80 -6 156q-37 77 -118 106zM858 1253q-157 57 -230 212q-72 152 -14 314q57 162 214 231q155 69 314 12q157 -56 230 -211q72 -153 14 -313q-56 -157 -214 -230
q-155 -72 -314 -15zM1478 264l-672 245l138 384l672 -245zM1924 1191l-484 178q23 42 40 91q19 56 26 101l490 -178zM1848 672l-864 317l48 135q197 15 340 158l614 -225zM52 0v202h316l366 999q42 -26 88 -44q52 -19 104 -24l-414 -1133h-460z" />
</svg>