<svg xmlns="http://www.w3.org/2000/svg" xmlns:xlink="http://www.w3.org/1999/xlink" version="1.1" viewBox="-10 0 2058 2048">
   <path fill="currentColor"
d="M1912 2048l-467 -446l59 179h-1147q-91 0 -156 -65t-65 -156v-1335q0 -91 65 -158t156 -67h1334q92 0 157 67q64 65 64 158v1823zM1024 517q-106 0 -212 25q-75 21 -142 50l-50 29q52 -52 158 -95l92 -34l-17 -17q-91 0 -196 55q-54 26 -87 54q-72 145 -104 296
q-29 111 -38 213l-4 83q80 100 204 138q63 16 109 12l62 -79q-45 -11 -96 -42q-35 -27 -62 -54l-25 -25l54 29q69 35 142 55q105 29 212 29q108 0 213 -29q73 -20 142 -55l54 -29l-25 25q-23 23 -63 54q-51 31 -96 42l63 79l54 -4q67 -10 121 -33q79 -37 138 -113l-5 -83
q-9 -108 -37 -213q-32 -151 -104 -296l-42 -29q-51 -29 -104 -50q-74 -30 -138 -30l-16 17l91 34q108 44 159 95l-50 -29q-67 -29 -142 -50q-106 -25 -213 -25zM841 855q41 0 73 33q31 32 31 80q0 47 -31 79q-32 33 -73 33t-73 -33q-31 -32 -31 -79q0 -46 29 -80
q28 -33 75 -33zM1212 855q42 0 73 33q31 32 31 80q0 47 -31 79q-31 33 -73 33t-73 -33q-31 -32 -31 -79q0 -46 29 -80q29 -33 75 -33z" />
</svg>