<svg xmlns="http://www.w3.org/2000/svg" xmlns:xlink="http://www.w3.org/1999/xlink" version="1.1" viewBox="-10 0 2068 2048">
   <path fill="currentColor"
d="M102 202h408q42 0 74 31q32 32 32 75v1432q0 43 -32 75q-32 31 -74 31h-408q-45 0 -73.5 -31t-28.5 -75v-1432q0 -44 28.5 -75t73.5 -31zM818 202h412q44 0 72 31q30 32 30 75v1432q0 43 -30 75q-28 31 -72 31h-412q-45 0 -73.5 -31t-28.5 -75v-1432q0 -44 28.5 -75
t73.5 -31zM1538 202h408q44 0 72 31q30 32 30 75v1432q0 43 -30 75q-28 31 -72 31h-408q-44 0 -75 -31t-31 -75v-1432q0 -44 31 -75t75 -31zM202 1639h206v-514h-206v514zM922 923h202v-514h-202v514zM1638 1639h208v-514h-208v514z" />
</svg>