<svg xmlns="http://www.w3.org/2000/svg" xmlns:xlink="http://www.w3.org/1999/xlink" version="1.1" viewBox="-10 0 2068 2048">
   <path fill="currentColor"
d="M992 932q-274 0 -496 164l-168 -220q143 -104 312 -162t351.5 -58t350.5 58q172 59 314 162l-122 154q-48 12 -98 32q-200 -130 -444 -130zM1820 656l162 -220q-213 -161 -462 -246q-257 -86 -528.5 -86t-527.5 86q-250 85 -464 246l164 220q180 -136 388 -206
q213 -70 440 -70q226 0 440 70q208 70 388 206zM992 1208q-186 0 -332 112l332 440l94 -130q-4 -14 -4 -56q0 -181 112 -328q-103 -38 -202 -38zM1452 1208l-232 276h138v366h186v-366h138zM1910 1668v-370h-182v370h-138l230 276l228 -276h-138z" />
</svg>