<svg xmlns="http://www.w3.org/2000/svg" xmlns:xlink="http://www.w3.org/1999/xlink" version="1.1" viewBox="-10 0 2068 2048">
   <path fill="currentColor"
d="M2048 1925l-1924 -1925l-124 124l636 640q-160 260 -160 457q0 155 78 290q78 137 212 215q135 80 294 80q125 0 236 -50q111 -51 194 -142l434 434zM1060 1609q-164 0 -276 -114q-112 -113 -112 -274q0 -101 110 -316l570 572q-54 63 -130 98q-73 34 -162 34zM978 604
l-142 -138q83 -110 152 -187l72 -82l74 82l76 96q93 110 174 229q117 175 178 297q84 180 84 320q0 30 -6 50l-242 -242q-77 -168 -174 -316q-77 -106 -146 -187l-18 -23z" />
</svg>