<svg xmlns="http://www.w3.org/2000/svg" xmlns:xlink="http://www.w3.org/1999/xlink" version="1.1" viewBox="-10 0 2058 2048">
   <path fill="currentColor"
d="M948 990l292 299q68 -63 68 -140q0 -52 -34 -106l-34 -43l-154 -159q30 -58 30 -124q0 -82 -36 -149q-36 -66 -104 -106l140 -452q-86 -24 -154 10q-45 25 -78 76l-24 49l-82 269q-96 9 -167.5 69t-96.5 152l-456 144q39 124 154 139q62 10 106 -4l212 -73
q52 120 176 164v735l-52 10q-62 15 -100 53q-54 53 -54 144v101h616v-101l-6 -53q-14 -63 -52 -101q-54 -53 -144 -53v-735zM654 717q0 -64 45 -109t111 -45q65 0 108 45q44 44 44 109q0 63 -44 108q-43 45 -108 45q-66 0 -111 -45t-45 -108zM1500 1961l-280 -307l116 -116
l164 164l370 -370l120 144z" />
</svg>