<svg xmlns="http://www.w3.org/2000/svg" xmlns:xlink="http://www.w3.org/1999/xlink" version="1.1" viewBox="-10 0 2068 2048">
   <path fill="currentColor"
d="M134 1433h788v-308h-720zM1124 1433h788l-66 -308h-722v308zM1956 1639h-832v409h924zM0 2048h922v-409h-830zM922 615h202v308h-202v-308zM1408 534l148 -145l218 217l-144 144zM274 606l222 -217l144 145l-218 216zM102 0h306v202h-306v-202zM1638 0h308v202h-308v-202
zM1024 510q139 0 256 -68q121 -70 188 -185q70 -119 70 -257h-1028q0 137 70 257q67 116 186 185q118 68 258 68z" />
</svg>