<svg xmlns="http://www.w3.org/2000/svg" xmlns:xlink="http://www.w3.org/1999/xlink" version="1.1" viewBox="-10 0 2068 2048">
   <path fill="currentColor"
d="M708 12q-193 0 -356 95t-256 256q-96 163 -96 357q0 176 82 330q81 155 222 249v233q0 37 30 69q28 31 70 31h608q43 0 72 -31q28 -32 28 -69v-233q142 -94 224 -249q80 -154 80 -330q0 -194 -94 -357q-94 -161 -258 -256q-162 -95 -356 -95zM404 1936q0 43 32 71
q32 29 68 29h408q37 0 70 -29q30 -28 30 -71v-100h-608v100zM1720 1123h-200l-328 913h196l70 -200h324l70 200h196zM1502 1698l118 -370l120 370h-238z" />
</svg>