<svg xmlns="http://www.w3.org/2000/svg" xmlns:xlink="http://www.w3.org/1999/xlink" version="1.1" viewBox="-10 0 2068 2048">
   <path fill="currentColor"
d="M1462 26q-132 0 -244 64q-111 64 -176 176q-64 111 -64 244t64 244q65 113 176 178q113 66 244 66q133 0 246 -66q112 -65 178 -178q66 -112 66 -244t-66 -244t-178 -176t-246 -64zM1462 802q-117 0 -206 -84q-86 -84 -86 -206t86 -208t208 -86q123 0 206 86
q86 88 86 208t-85 205t-209 85zM1756 1388h-192q0 -87 -52 -160q-51 -75 -132 -102l-602 -224h-778v1070h586v-136l684 186l778 -242v-100q0 -117 -86 -206q-84 -86 -206 -86zM394 1780h-198v-686h198v686zM1266 1818l-680 -184v-540h160l566 216q22 8 38 30q16 20 16 48
h-100q-103 -9 -124 -14l-232 -78l-60 188l228 78q72 22 156 22h522q27 0 52 16t38 38z" />
</svg>