<svg xmlns="http://www.w3.org/2000/svg" xmlns:xlink="http://www.w3.org/1999/xlink" version="1.1" viewBox="-10 0 2068 2048">
   <path fill="currentColor"
d="M1058 1796h-240v-308h216q19 -110 72 -206h-288v-308h412v158q89 -82 202 -124v-34h414v34q113 42 202 124v-874q0 -88 -60 -148t-142 -60h-1644q-82 0 -142 60t-60 148v1538q0 82 60 142t142 60h980q-82 -89 -124 -202zM1432 460h414v306h-414v-306zM818 460h412v306
h-412v-306zM616 1796h-414v-308h414v308zM616 1282h-414v-308h414v308zM616 766h-414v-306h414v306zM1538 1180h202v308h308v202h-308v308h-202v-308h-308v-202h308v-308z" />
</svg>