<svg xmlns="http://www.w3.org/2000/svg" xmlns:xlink="http://www.w3.org/1999/xlink" version="1.1" viewBox="-10 0 2058 2048">
   <path fill="currentColor"
d="M563 1024q-62 0 -108 -46t-46 -108t46 -108t110 -46t108 46t44 108t-44 108t-110 46zM1130 1740q-106 -204 -106 -355q0 -32 5 -49l-106 -105l-514 509h721zM308 1846v-1644h716v514h514v106q22 -5 53 -5q73 0 154 24v-226l-615 -615h-822q-86 0 -146 60q-61 61 -61 142
v1644q0 81 61 142q60 60 146 60h1014q-84 -114 -139 -202h-875zM1947 1385q0 164 -178 432q-93 137 -178 231l-96 -111q-107 -142 -173 -264q-91 -172 -91 -288q0 -149 105 -255t253 -106q147 0 252 106q106 108 106 255zM1711 1394q0 -48 -38 -86q-39 -39 -84 -39t-84 36
t-39 87q0 50 36 86t89 36t91 -38t29 -82z" />
</svg>