<svg xmlns="http://www.w3.org/2000/svg" xmlns:xlink="http://www.w3.org/1999/xlink" version="1.1" viewBox="-10 0 2068 2048">
   <path fill="currentColor"
d="M1846 409h-1644q-82 0 -142 60t-60 146v616q0 86 60 146t142 60h106v101q0 48 26 75q26 26 74 26h208q44 0 72 -26q28 -27 28 -75v-101h616v101q0 48 28 75q27 26 72 26h206q50 0 76 -26t26 -75v-101h106q82 0 142 -60t60 -146v-616q0 -86 -60 -146t-142 -60zM1230 923
h-1028v-207h1028v207zM1638 1024q-86 0 -146 -60t-60 -144q0 -85 60 -145t146 -60q88 0 148 60t60 145q0 84 -60 144t-148 60zM408 1231h-206v-101h206v101zM818 1231h-202v-101h202v101zM1230 1231h-206v-101h206v101z" />
</svg>