<svg xmlns="http://www.w3.org/2000/svg" xmlns:xlink="http://www.w3.org/1999/xlink" version="1.1" viewBox="-10 0 2068 2048">
   <path fill="currentColor"
d="M1040 1636q28 108 86 206h-920q-86 0 -146 -60t-60 -146v-1430q0 -86 60 -146t146 -60h1430q86 0 146 60t60 146v634q-84 -20 -154 -20h-52v-614h-1430v1430h834zM840 1314l-202 -244l-278 364h666q16 -226 164 -393l-68 -91zM1636 1075v-154l-232 230l232 231v-154
q106 0 182 74q76 75 76 180q0 63 -28 115l110 111q72 -100 72 -226q0 -167 -120 -287t-292 -120zM1636 1741q-106 0 -180 -76q-76 -76 -76 -183q0 -57 30 -115l-116 -110q-66 104 -66 225q0 173 120 293t288 120v153l230 -230l-230 -230v153z" />
</svg>