<svg xmlns="http://www.w3.org/2000/svg" xmlns:xlink="http://www.w3.org/1999/xlink" version="1.1" viewBox="-10 0 2068 2048">
   <path fill="currentColor"
d="M1444 996q0 -80 -14 -201h338q28 106 28 201q0 46 -10 108q102 13 192 65q14 -92 14 -173q0 -271 -134 -500q-132 -228 -362.5 -362t-500 -134t-499.5 134q-229 133 -362 362q-134 229 -134 500q0 272 134 501q133 229 362 362q228 133 500 133q81 0 172 -14
q-74 -129 -74 -285q0 -33 10 -84q-46 93 -108 182q-129 -190 -192 -397h374q89 -159 258 -239q8 -89 8 -159zM996 201q130 192 192 398h-384q63 -209 192 -398zM224 1197q-28 -106 -28 -201t28 -201h338q-14 121 -14 201t14 201h-338zM304 1394h294q55 198 140 355
q-141 -47 -250 -138t-184 -217zM598 599h-294q77 -128 184 -218q109 -91 250 -138q-84 156 -140 356zM1230 1197h-468q-14 -112 -14 -201t14 -201h468q14 121 14 201t-14 201zM1252 243q142 47 250 138q110 92 186 218h-294q-50 -188 -142 -356zM1832 1693l216 215l-140 140
l-216 -215l-210 215l-140 -140l210 -215l-210 -210l140 -141l210 211l216 -211l140 141z" />
</svg>