<svg xmlns="http://www.w3.org/2000/svg" xmlns:xlink="http://www.w3.org/1999/xlink" version="1.1" viewBox="-10 0 2058 2048">
   <path fill="currentColor"
d="M1688 1596q70 -107 70 -240q0 -189 -131 -320q-132 -132 -320 -132t-320 132t-132 320t132 320t320 132q126 0 235 -71l315 311l141 -141zM1307 1606q-105 0 -179 -73q-76 -74 -76 -177t76 -177q73 -72 179 -72q104 0 176 72q73 73 73 177t-73 177t-176 73zM1857 603
h-202v-203h202v203zM1857 203h-202v-203h103q38 0 69 31q30 30 30 68v104zM1655 805h202v198h-5q-77 -121 -197 -198zM1457 203h-202v-203h202v203zM1052 203h-197v-203h197v203zM50 400h203v203h-203v-203zM450 1606h203v202h-203v-202zM50 805h203v198h-203v-198zM149 0
h104v203h-203v-104q0 -37 31 -68t68 -31zM653 203h-203v-203h203v203zM50 1606h203v202h-104q-37 0 -68 -31t-31 -68v-103zM50 1205h203v203h-203v-203z" />
</svg>