<svg xmlns="http://www.w3.org/2000/svg" xmlns:xlink="http://www.w3.org/1999/xlink" version="1.1" viewBox="-10 0 2068 2048">
   <path fill="currentColor"
d="M1846 460q87 0 144 62q58 64 58 144v1124q0 81 -58 146q-57 62 -144 62h-1644q-88 0 -144 -62q-58 -63 -58 -146v-1124q0 -82 58 -144q56 -62 144 -62h414v-208q0 -86 56 -144q58 -58 146 -58h412q86 0 144 58t58 144v208h414zM202 666v1124h1644v-1124h-1644zM1230 460
v-208h-412v208h412zM1024 766q94 0 162 68t68 163t-68 163t-163 68t-163 -68t-68 -163t68 -163t164 -68zM1484 1690h-922v-116q0 -96 134 -163t327 -67t327 67t134 163v116z" />
</svg>