<svg xmlns="http://www.w3.org/2000/svg" xmlns:xlink="http://www.w3.org/1999/xlink" version="1.1" viewBox="-10 0 2068 2048">
   <path fill="currentColor"
d="M0 48v1952h188v-187h1672v187h188v-1490q0 -153 -108 -261q-110 -109 -266 -109h-836v466h-650v-558h-188zM514 48q-95 0 -164 68q-70 68 -70 163q0 96 70 164q68 67 164 67q98 0 165 -67t67 -164q0 -96 -68 -163q-68 -68 -164 -68zM188 885h1672v235q-86 -52 -186 -52
h-836v466h-650v-649zM514 976q-95 0 -164 68q-70 68 -70 163q0 96 70 166t164 70q96 0 164 -70q68 -68 68 -166q0 -96 -68 -163q-68 -68 -164 -68z" />
</svg>