<svg xmlns="http://www.w3.org/2000/svg" xmlns:xlink="http://www.w3.org/1999/xlink" version="1.1" viewBox="-10 0 2058 2048">
   <path fill="currentColor"
d="M279 558v1303h1302v187h-1302q-74 0 -128 -54q-55 -55 -55 -133v-1303h183zM1769 188q74 0 128 54q55 55 55 133v1116q0 73 -55 128t-128 55h-1115q-78 0 -133 -55t-55 -128v-1116q0 -78 55 -133q54 -54 133 -54h296q25 -82 98 -135t161 -53t161 53t103 135h296z
M1211 188q-39 0 -67 28q-29 29 -29 65q0 37 29 66q28 28 65 28t65 -28q29 -29 29 -66q0 -36 -29 -65q-28 -28 -63 -28zM837 558v-183h-183v1116h1115v-1116h-188v183h-744z" />
</svg>