<svg xmlns="http://www.w3.org/2000/svg" xmlns:xlink="http://www.w3.org/1999/xlink" version="1.1" viewBox="-10 0 2058 2048">
   <path fill="currentColor"
d="M1231 0h-822q-86 0 -146 60q-61 61 -61 142v1644q0 81 61 142q60 60 146 60h1230q87 0 147 -60t60 -142v-1231zM1639 1846h-1230v-1644h716v514h514v1130zM717 1159q127 247 374 379l125 -129q29 -24 58 -15q108 34 207 34q23 0 40 17t17 40v202q0 19 -17 36t-40 17
q-266 0 -486 -130q-222 -132 -353 -350q-132 -220 -132 -486q0 -24 17 -41t41 -17h201q24 0 41 17t17 41q0 104 29 202q9 35 -14 58z" />
</svg>