<svg xmlns="http://www.w3.org/2000/svg" xmlns:xlink="http://www.w3.org/1999/xlink" version="1.1" viewBox="-10 0 2068 2048">
   <path fill="currentColor"
d="M1024 817l-96 212l-212 96l212 96l96 212l96 -212l212 -96l-212 -96zM1846 308h-328l-186 -207h-616l-188 207h-326q-82 0 -142 60t-60 142v1230q0 87 60 147t142 60h1644q82 0 142 -60t60 -147v-1230q0 -82 -60 -142t-142 -60zM1846 1740h-1644v-1230h418l188 -202h432
l188 202h418v1230zM1024 615q-102 0 -194 39q-97 40 -166 110q-73 72 -114 166q-40 94 -40 197t40 197q41 94 114 166q71 71 166 111q90 38 194 38q140 0 256 -69q120 -71 188 -188q70 -118 70 -257t-70 -257q-67 -115 -188 -185q-117 -68 -256 -68zM1024 1433
q-130 0 -220 -89q-88 -88 -88 -217q0 -127 88 -218q89 -92 219.5 -92t219.5 92t89 218q0 128 -89 217t-219 89z" />
</svg>