<svg xmlns="http://www.w3.org/2000/svg" xmlns:xlink="http://www.w3.org/1999/xlink" version="1.1" viewBox="-10 0 2068 2048">
   <path fill="currentColor"
d="M1846 0h-1644q-82 0 -142 60t-60 142v1644q0 82 60 142t142 60h1644q82 0 142 -60t60 -142v-1644q0 -82 -60 -142t-142 -60zM1360 202q-130 183 -130 413h-412q0 -126 54 -233q56 -109 152 -180h336zM1230 1231h-412q0 -230 -130 -414h336q94 71 150 181q56 109 56 233z
M202 202h542q-128 183 -128 413h-414v-413zM202 817h206q96 72 152 178q56 107 56 236h-414v-414zM202 1846v-413h542q-128 183 -128 413h-414zM818 1846q0 -126 54 -233q56 -109 152 -180h336q-130 183 -130 413h-412zM1846 1846h-414q0 -126 56 -233q55 -109 150 -180h208
v413zM1846 1231h-414q0 -230 -130 -414h544v414zM1846 615h-414q0 -126 56 -233q55 -109 150 -180h208v413z" />
</svg>