<svg xmlns="http://www.w3.org/2000/svg" xmlns:xlink="http://www.w3.org/1999/xlink" version="1.1" viewBox="-10 0 2058 2048">
   <path fill="currentColor"
d="M1606 985q-95 -94 -216 -124q-118 -29 -244 3q-124 32 -216 123q-92 93 -124 213q-31 121 0 242q32 122 126 216q118 113 282 133q164 19 308 -69l326 326l148 -148l-326 -326q88 -144 68 -307q-19 -164 -132 -282zM1452 1504q-73 79 -182 79q-110 0 -189 -76t-79 -186
q0 -109 79 -188t188 -79t185 79q78 80 78 188q0 110 -80 183zM784 1806q-108 -108 -158 -247q-250 -39 -412 -151q-162 -111 -162 -245v317q0 114 114 210t309 153t423 57q-66 -46 -114 -94zM52 634v316q0 133 146 240q145 106 384 151v-20q0 -149 60 -287
q-257 -39 -424 -151q-166 -112 -166 -249zM898 0q-228 0 -422 57q-194 56 -310 154q-114 96 -114 210q0 103 98 195q94 90 262 151q163 59 362 79h10q96 -105 220 -158q126 -54 268 -54q143 0 274 59q79 -39 134 -111q53 -71 64 -161q0 -115 -114 -210q-115 -98 -308 -154
q-196 -57 -424 -57z" />
</svg>