<svg xmlns="http://www.w3.org/2000/svg" xmlns:xlink="http://www.w3.org/1999/xlink" version="1.1" viewBox="-10 0 2058 2048">
   <path fill="currentColor"
d="M1024 0q-393 0 -591 71q-273 101 -273 359v1026q0 158 111 266q112 109 268 109l-162 161v56h243l212 -217h409l213 217h217v-56l-162 -161q156 0 268 -109q111 -108 111 -266v-1026q0 -258 -253 -359q-193 -71 -611 -71zM539 1618q-66 0 -114 -48t-48 -116
q0 -69 48 -114t114 -45q65 0 113 45t48 114q0 68 -48 116t-113 48zM918 860h-541v-430h541v430zM1130 860v-430h541v430h-541zM1509 1618q-66 0 -114 -48t-48 -116q0 -69 48 -114t114 -45t114 45t48 114q0 68 -48 116t-114 48z" />
</svg>