<svg xmlns="http://www.w3.org/2000/svg" xmlns:xlink="http://www.w3.org/1999/xlink" version="1.1" viewBox="-10 0 2058 2048">
   <path fill="currentColor"
d="M1582 1024q0 -275 -154 -490q-155 -216 -404 -298q-22 -102 -98 -168q-77 -68 -180 -68q-118 0 -199 81t-81 200q0 121 81 199t199 78q73 0 138 -37q68 -39 102 -102q186 73 298 237q110 164 110 366t-112 371q-113 168 -296 237q-34 -63 -102 -102q-65 -37 -138 -37
q-118 0 -199 78t-81 198t82 201q80 80 198 80q105 0 180 -67q76 -66 98 -168q248 -82 404 -301q154 -217 154 -488zM746 375q-44 0 -68 -26q-24 -24 -24 -68q0 -43 24 -67q24 -26 68 -26q42 0 66 26t24 67q0 43 -24 68q-24 26 -66 26zM746 1861q-44 0 -68 -26
q-24 -24 -24 -68q0 -43 24 -67q24 -26 68 -26q42 0 66 26t24 67q0 43 -24 68q-24 26 -66 26zM746 745q116 0 197 81t81 198q0 118 -80 199q-80 80 -198 80t-198 -80q-82 -81 -82 -199q0 -117 81 -198t199 -81z" />
</svg>