<svg xmlns="http://www.w3.org/2000/svg" xmlns:xlink="http://www.w3.org/1999/xlink" version="1.1" viewBox="-10 0 2058 2048">
   <path fill="currentColor"
d="M1113 0q-209 0 -389 96q-183 97 -297 264q-116 168 -141 377l-148 196q-35 57 -39.5 120t21.5 120q61 108 157 122v100q0 125 81 226t198 140v287h1023v-514q176 -119 273 -300q98 -184 98 -397q0 -226 -111 -418q-110 -190 -303 -305q-192 -114 -423 -114zM1392 1425
v436h-649v-279h-91q-79 0 -133 -54q-55 -55 -55 -133v-279h-139q-29 0 -43 -26t4 -48l178 -231q9 -172 98 -314q89 -143 236 -226q146 -83 320 -83t324 87q152 88 238 235q87 148 87 327q0 194 -103 353q-101 156 -272 235z" />
</svg>