<svg xmlns="http://www.w3.org/2000/svg" xmlns:xlink="http://www.w3.org/1999/xlink" version="1.1" viewBox="-10 0 2058 2048">
   <path fill="currentColor"
d="M1824 1726q34 -41 43 -77v-34h154v24q-5 36 -12 70q-8 39 -31 99q-9 41 -68 105l-52 49q-70 57 -164 77q-45 9 -72 5l-44 4q-53 0 -96 -9q-66 -15 -120 -44q-70 -50 -145 -144l-57 -82l-77 14q-107 10 -193 10q-140 -9 -260 -48q-155 -48 -274 -154q-213 -180 -289 -429
q-44 -124 -39 -255v-5q0 -109 44 -255q72 -256 235 -414q227 -217 602 -232q337 -15 578 164q193 145 289 371q72 174 72 328q0 111 -24 207q-5 59 -29 132q-23 67 -53 113l-5 10q-74 119 -115 164q-38 42 -111 110l-14 15l57 62q69 70 106 78l19 4q106 19 145 -33z
M1107 1572q9 -9 -39 -73l-87 -120q-39 -68 -130 -87h-72q-34 0 -77 10l-19 5q0 -7 -10 -29l-19 -24q-10 -22 -10 -53q0 -9 49 -34q48 -24 115 -39q84 -19 164 -19q96 0 183 48q56 28 106 77q16 12 45 51q27 37 46 51h5q5 5 5 9q19 15 40 -67q0 -3 1 -5q21 -87 33 -219
q12 -136 8 -243q-5 -183 -25 -270q-20 -104 -74 -181q-56 -80 -161 -132q-108 -53 -210 -53t-195 29q-149 44 -216 154q-78 133 -97 366q-14 111 -4 212l-5 91q4 112 33 203q32 129 111 207q102 102 226 135q62 14 174 9h33z" />
</svg>