<svg xmlns="http://www.w3.org/2000/svg" xmlns:xlink="http://www.w3.org/1999/xlink" version="1.1" viewBox="-10 0 2068 2048">
   <path fill="currentColor"
d="M363 150q-52 0 -91 28q-38 28 -58 74l-213 618v826q0 44 29 73t73 29h106q43 0 72 -29t29 -73v-106h546q-29 -104 -29 -204q0 -192 94 -356q94 -165 254 -262h-966l154 -464h1131l125 362q91 9 184 44l-160 -458q-21 -46 -58 -74q-40 -28 -91 -28h-1131zM1445 870
q-25 0 -29 18l-19 142q-48 19 -87 48l-130 -54q-25 0 -29 14l-102 180q-15 18 5 34l106 82v50v52l-106 86q-19 15 -5 34l102 178q5 10 29 10l130 -48q48 29 87 48l19 136q4 18 29 18h203q24 0 24 -18l24 -136q41 -20 83 -48l130 48q24 0 34 -10l101 -178q8 -20 -5 -34
l-111 -86l5 -50q0 -26 -5 -52l111 -82q14 -15 5 -34l-106 -180q-5 -14 -29 -14l-130 54q-48 -40 -87 -48l-20 -142q0 -18 -24 -18h-203zM363 972q63 0 109 46t46 110.5t-46 107.5q-47 44 -111 44q-65 0 -109 -44q-43 -42 -43 -107.5t43 -111t111 -45.5zM1547 1232
q62 0 108 43.5t46 108.5q0 66 -46 112t-108 46q-63 0 -109 -46t-46 -112q0 -65 46 -108.5t109 -43.5z" />
</svg>