<svg xmlns="http://www.w3.org/2000/svg" xmlns:xlink="http://www.w3.org/1999/xlink" version="1.1" viewBox="-10 0 2058 2048">
   <path fill="currentColor"
d="M1050 709l-226 -232h534v330h144v-472h-678l226 -233l-98 -102l-406 406l406 401zM1024 1191q-120 0 -203 83t-83 201q0 117 84 203q81 84 202.5 84t203.5 -84q82 -85 82 -203q0 -119 -82 -201q-84 -83 -204 -83zM168 906v1142h1712v-1142h-1712zM1688 1664
q-74 0 -130 56t-56 136h-956q0 -81 -54 -136q-56 -56 -132 -56v-379q76 0 132 -56q54 -55 54 -136h956q0 80 56 136t130 56v379z" />
</svg>