<svg xmlns="http://www.w3.org/2000/svg" xmlns:xlink="http://www.w3.org/1999/xlink" version="1.1" viewBox="-10 0 2068 2048">
   <path fill="currentColor"
d="M2048 1928l-1234 -1238l-686 -686l-128 120l160 154q-68 96 -68 234v1270q0 78 58 136q56 56 134 56h584q84 0 141 -57t57 -135v-594l96 96v106h108l654 654zM384 1782q-36 0 -68 -32t-32 -68t32 -66q31 -30 68 -30q36 0 66 30t30 66q0 37 -30 68q-30 32 -66 32zM576 804
q-123 0 -208 -82q-84 -84 -84 -210q0 -26 22 -88l370 372q-26 0 -54 4q-34 4 -46 4zM600 220l-170 -166q74 -26 146 -26q138 0 250 64q111 64 176 176q64 111 64 244v178l-198 -196q-4 -111 -82 -188q-76 -77 -186 -86zM1846 708h-684v-196h684q78 0 135 57t57 139v490
q0 78 -57 135t-135 57h-78l-196 -192h274v-490z" />
</svg>