<svg xmlns="http://www.w3.org/2000/svg" xmlns:xlink="http://www.w3.org/1999/xlink" version="1.1" viewBox="-10 0 2068 2048">
   <path fill="currentColor"
d="M642 153l-142 -141l-90 70l148 142zM1492 1673q-194 165 -450 165q-190 0 -352 -97q-161 -96 -256 -257q-94 -160 -94 -354q0 -251 160 -448zM128 54l-128 128l138 136l-114 90l142 146l112 -94l82 80q-105 120 -164 272q-58 154 -58 318q0 247 122 455q123 211 330 331
q208 120 452 120q166 0 319 -57t277 -165l220 222l128 -127zM2048 399l-462 -387l-128 151l462 391zM1042 427q195 0 354 94q161 95 256 258q94 163 94 351q0 122 -42 245l154 151q90 -189 90 -396q0 -246 -123 -453t-330 -330t-453 -123q-208 0 -396 94l156 151
q119 -42 240 -42z" />
</svg>