<svg xmlns="http://www.w3.org/2000/svg" xmlns:xlink="http://www.w3.org/1999/xlink" version="1.1" viewBox="-10 0 2068 2048">
   <path fill="currentColor"
d="M1024 0q200 0 392 77q188 76 333.5 221t220.5 334q78 192 78 392t-78 392q-75 189 -220.5 334t-333.5 221q-192 77 -392 77t-392 -77q-188 -76 -333.5 -221t-220.5 -334q-78 -192 -78 -392t78 -392q75 -189 220.5 -334t333.5 -221q192 -77 392 -77zM1024 202
q-223 0 -411.5 110t-300.5 301q-110 191 -110 411t110 411q111 190 300 300q191 111 412 111q-168 0 -288 -120t-120 -291t120 -291t288 -120t288 -120q120 -121 120 -291t-120 -291q-120 -120 -288 -120zM1024 461q62 0 108 44t46 108t-46 110t-108 46t-108 -46t-46 -110
t46 -108q45 -44 108 -44zM1024 1279q-64 0 -108 45q-46 46 -46 111q0 64 46 108q44 43 107.5 43t108.5 -43q46 -44 46 -108q0 -65 -46 -111q-46 -45 -108 -45z" />
</svg>