<svg xmlns="http://www.w3.org/2000/svg" xmlns:xlink="http://www.w3.org/1999/xlink" version="1.1" viewBox="-10 0 2068 2048">
   <path fill="currentColor"
d="M1278 62q139 0 278 16l68 8l102 20q49 9 110 26q49 15 106 40q48 20 77 49t29 67v1472q0 38 -29 67.5t-77 50.5q-57 24 -106 38q-61 18 -110 26l-102 20l-72 10q-126 14 -271.5 14t-276.5 -14l-66 -10l-102 -20q-57 -9 -116 -26q-51 -14 -102 -38q-45 -21 -78 -50
q-30 -29 -30 -68v-222h-428q-34 0 -58 -26t-24 -60v-856q0 -32 24 -60q24 -26 58 -26h428v-222q0 -38 30 -66q33 -30 78 -50q51 -25 102 -40q59 -16 116 -26l102 -20l66 -8q140 -16 274 -16zM1278 192q-62 0 -144 4q-92 3 -164 14q-86 12 -158 30q-77 20 -140 48
q67 31 140 46q83 18 158 30q87 12 162 16q88 6 146 6t146 -6q75 -4 162 -16q74 -12 160 -30q75 -15 142 -46q-63 -28 -138 -48q-72 -18 -162 -30q-74 -11 -164 -14q-79 -4 -146 -4zM404 1208h216l48 152h174l-246 -672h-168l-246 672h168zM1922 1740v-306q-64 31 -148 52
q-86 20 -168 32q-93 12 -172 16q-74 4 -156 4q-80 0 -144 -4q-50 -3 -144 -14q-24 18 -52 18h-298v202q29 26 78 42q43 13 108 30q56 15 124 24q87 13 126 16q70 4 116 4h86h92q46 0 112 -4q38 -3 126 -16q65 -9 124 -24q63 -15 110 -30q51 -17 80 -42zM1922 1294v-370
q-66 28 -148 48q-77 18 -168 30q-93 13 -172 18q-93 4 -150 4q-60 0 -130 -4l-130 -10v384q63 10 126 12q65 4 128 4h92l114 -10q53 -5 124 -14q49 -7 124 -22q57 -12 108 -30q49 -16 82 -40zM1922 780v-370q-64 31 -148 52q-85 20 -168 28q-118 13 -172 16q-93 4 -153.5 4
t-154.5 -4q-51 -3 -170 -16q-83 -8 -168 -28q-84 -21 -148 -52v100h298q34 0 60 26t26 60v290q43 3 126 6q44 2 128 2h92l114 -8q62 -5 124 -12q69 -9 124 -22q66 -17 108 -32q49 -16 82 -40zM442 1078l68 -208l66 208h-134z" />
</svg>