<svg xmlns="http://www.w3.org/2000/svg" xmlns:xlink="http://www.w3.org/1999/xlink" version="1.1" viewBox="-10 0 2068 2048">
   <path fill="currentColor"
d="M2048 1844h-616q0 -98 44 -264q49 -188 110 -308q76 -149 156 -149t156 149q61 120 110 308q40 168 40 264zM1024 1123q-78 0 -154 149q-66 120 -110 308q-44 166 -44 264h616q0 -94 -44 -264q-45 -188 -110 -308q-77 -149 -154 -149zM308 1123q-82 0 -158 149
q-63 124 -112 308q-38 163 -38 264h616q0 -94 -44 -264q-50 -188 -110 -308q-77 -149 -154 -149zM1312 407q-44 -121 -158 -173q-117 -53 -232 -10q-134 43 -186 183h-736v206h202v409h206v-409h328q48 135 186 183v226h202v-226q139 -48 188 -183h326v409h208v-409h202
v-206h-736z" />
</svg>