<svg xmlns="http://www.w3.org/2000/svg" xmlns:xlink="http://www.w3.org/1999/xlink" version="1.1" viewBox="-10 0 2068 2048">
   <path fill="currentColor"
d="M2048 1925l-1924 -1925l-124 124l374 374l-160 14l174 370q23 -125 82 -224q2 -4 14 -22l14 -14l138 142q-64 109 -64 240q0 129 66 242q65 112 178 178q112 66 242 66q131 0 240 -64l626 622zM1060 1294q-122 0 -207 -85t-85 -208q0 -37 18 -91l366 366q-52 18 -92 18z
M1650 658q-60 -105 -152 -178l408 32l-174 370q-23 -121 -82 -224zM1060 512q132 0 244 66q112 65 178 179q68 114 68 244q0 65 -28 151l-170 -174q-8 -104 -86.5 -182t-181.5 -87l-174 -169q85 -28 150 -28zM1060 320q-117 0 -232 41l232 -333l234 333q-116 -41 -234 -41z
M1732 1120l168 370l-36 5l-196 -197q47 -100 64 -178zM1060 1682q114 0 234 -41l-234 334l-232 -334q115 41 232 41zM470 1344q61 101 152 183l-402 -37l168 -370q23 121 82 224z" />
</svg>