<svg xmlns="http://www.w3.org/2000/svg" xmlns:xlink="http://www.w3.org/1999/xlink" version="1.1" viewBox="-10 0 2068 2048">
   <path fill="currentColor"
d="M616 872q-44 0 -75 -31t-31 -75v-202q0 -42 31 -73t72 -31t71 30q32 32 32 74v202q0 44 -32 76q-30 30 -68 30zM1538 766v-202q0 -42 -31 -73t-72 -31t-72 31t-31 73v202q0 44 31 75t72 31t72 -31t31 -75zM2048 258v1538q0 82 -60 142t-142 60h-1644q-82 0 -142 -60
t-60 -142v-1538q0 -88 60 -148t142 -60h1644q82 0 142 60t60 148zM202 1796h932q-15 -82 -24 -212l-86 4q-242 0 -438 -114q-107 -70 -154 -130q-28 -29 -24 -72q5 -43 36.5 -70.5t75.5 -23.5q44 3 72 40q27 38 110 82q145 82 322 82l76 -4q-4 -125 0 -274h-186
q-48 0 -84 -40q-38 -40 -38 -90q9 -122 30 -270q39 -273 100 -446h-720v1538zM1846 1796v-1538h-760q-92 233 -140 692h188q48 0 84 36t36 88v6q-4 129 0 264q130 -49 202 -130q29 -34 70 -38q41 -5 74 24q34 28 38.5 69t-24.5 75q-32 43 -96 86q-113 86 -258 126
q18 182 28 240h558z" />
</svg>