<svg xmlns="http://www.w3.org/2000/svg" xmlns:xlink="http://www.w3.org/1999/xlink" version="1.1" viewBox="-10 0 2068 2048">
   <path fill="currentColor"
d="M1366 1595h228v-230h-228v230zM1366 229h228v-229h-228v229zM230 453h-230v1366q0 95 67 162t163 67h1364v-229h-1364v-1366zM1818 1595q96 0 164 -67q66 -66 66 -163h-230v230zM1818 683h230v-230h-230v230zM1818 1136h230v-224h-230v224zM684 1595v-230h-230
q0 96 67 163t163 67zM1136 0h-224v229h224v-229zM1818 0v229h230q0 -96 -66 -162q-68 -67 -164 -67zM1136 1365h-224v230h224v-230zM684 0q-96 0 -163 67t-67 162h230v-229zM684 912h-230v224h230v-224zM684 453h-230v230h230v-230z" />
</svg>