<svg xmlns="http://www.w3.org/2000/svg" xmlns:xlink="http://www.w3.org/1999/xlink" version="1.1" viewBox="-10 0 2068 2048">
   <path fill="currentColor"
d="M1946 202q-15 0 -92 24q-178 59 -312 82q-250 48 -518 48q-270 0 -524 -48q-137 -27 -318 -82q-67 -24 -80 -24q-38 0 -70 29q-32 28 -32 77v1432q0 49 32 77q32 29 70 29q14 0 90 -24q175 -59 308 -82q250 -48 522 -48q270 0 520 48q134 23 312 82q77 24 92 24
q37 0 69.5 -29t32.5 -77v-1432q0 -48 -32.5 -77t-69.5 -29zM1846 1596q-380 -111 -822.5 -111t-821.5 111v-1144q414 110 822 110q445 0 822 -110v1144zM736 923l-380 452q271 -43 667.5 -43t668.5 43l-462 -558l-288 351z" />
</svg>