<svg xmlns="http://www.w3.org/2000/svg" xmlns:xlink="http://www.w3.org/1999/xlink" version="1.1" viewBox="-10 0 2058 2048">
   <path fill="currentColor"
d="M1118 188q179 0 329 87q152 88 238 235q87 148 87 327q0 194 -103 353q-101 156 -272 235v436h-649v-279h-91q-79 0 -133 -54q-55 -55 -55 -133v-279h-139q-29 0 -43 -26t4 -48l178 -231q9 -177 98 -316q91 -143 233 -224q145 -83 318 -83zM1118 0q-209 0 -389 96
q-182 97 -297 264q-115 168 -141 377l-148 196q-39 48 -48 113q-9 64 22 127q57 105 165 130v92q0 130 79 229q78 98 200 137v287h1023v-514q176 -111 273 -294q98 -185 98 -403q0 -226 -111 -418q-110 -190 -303 -305q-192 -114 -423 -114zM1493 837h-279v279h-187v-279
h-279v-183h279v-279h187v279h279v183z" />
</svg>