<svg xmlns="http://www.w3.org/2000/svg" xmlns:xlink="http://www.w3.org/1999/xlink" version="1.1" viewBox="-10 0 2068 2048">
   <path fill="currentColor"
d="M318 889h384l-270 -269q-76 0 -131 -55t-55 -132q0 -78 55 -133t132 -55t132 55t55 133l270 269v-385q-54 -53 -54 -130t55 -132t132 -55t133 55q56 56 56 132q0 77 -54 130v385l270 -269q0 -83 54 -135q57 -53 132 -53q78 0 132 55q56 56 56 133q0 76 -56 132
q-54 55 -132 55l-268 269h384q52 -53 130 -53q76 0 132 56t56 132t-56 132q-56 55 -132 55q-78 0 -130 -52h-384l268 269q83 0 136 55q52 56 52 132t-56 132t-131.5 56t-132.5 -53q-54 -52 -54 -135l-270 -269v385q54 53 54 129q0 77 -56 133q-56 55 -133 55t-132 -55
t-55 -133q0 -76 54 -129v-385l-270 269q0 77 -56 132q-56 56 -132 56t-132 -56q-54 -55 -54 -132q0 -76 52 -132q53 -55 134 -55l270 -269h-384q-52 52 -130 52t-133 -55t-55 -132t56 -132q56 -56 132 -56t130 53z" />
</svg>