<svg xmlns="http://www.w3.org/2000/svg" xmlns:xlink="http://www.w3.org/1999/xlink" version="1.1" viewBox="-10 0 2068 2048">
   <path fill="currentColor"
d="M1418 869q172 0 292 120t120 292q0 118 -66 218l284 283l-130 129l-282 -283q-102 64 -218 64q-172 0 -292 -120t-120 -291q0 -172 120 -292t292 -120zM1418 1054q-94 0 -160 66q-68 67 -68 161q0 93 67 160t161 67t160 -67q66 -66 66 -160q0 -95 -66 -161t-160 -66z
M1644 505h-1460v913h656q20 92 76 184h-732q-76 0 -130 -54q-54 -53 -54 -130v-1097q0 -78 53 -131t131 -53h548l184 184h728q78 0 132 54t54 130v347q-81 -76 -186 -120v-227z" />
</svg>