<svg xmlns="http://www.w3.org/2000/svg" xmlns:xlink="http://www.w3.org/1999/xlink" version="1.1" viewBox="-10 0 2068 2048">
   <path fill="currentColor"
d="M1484 1024q106 0 182 -75q74 -74 74 -180q0 -108 -74 -183q-75 -76 -182 -76q-105 0 -180 76q-74 75 -74 183q0 106 74 180q76 75 180 75zM716 923q130 0 218 -91q90 -92 90 -219t-89 -216t-219 -89t-219 89t-89 216t90 219q88 91 218 91zM1484 1231q-103 0 -230 29
q-139 39 -230 96q-102 68 -102 154v230h1126v-230q0 -86 -102 -154q-91 -57 -230 -96q-127 -29 -232 -29zM716 1125q-136 0 -294 43q-176 43 -292 120q-130 87 -130 197v255h716v-230q0 -88 44 -164q63 -116 202 -192q-142 -29 -246 -29z" />
</svg>