<svg xmlns="http://www.w3.org/2000/svg" xmlns:xlink="http://www.w3.org/1999/xlink" version="1.1" viewBox="-10 0 2068 2048">
   <path fill="currentColor"
d="M933 1491q0 49 8 96h-757q-74 0 -129 -55t-55 -133v-1121q0 -79 55 -134t129 -55h96l184 377h280l-184 -377h184l189 377h280l-189 -377h189l188 377h280l-188 -377h372v815q-86 -43 -184 -57v-197h-1331l-166 -329v1078h757q-8 43 -8 92zM2036 1622q4 0 4 7t-4 11
l-97 162q-8 8 -26 8l-114 -39l-74 48l-18 123q0 5 -6 11t-11 6h-188q-10 0 -27 -17l-22 -123q-39 -14 -74 -48l-109 48q-17 0 -31 -9l-92 -157q-8 -13 9 -31l105 -74v-92l-105 -75q-9 -9 -9 -30l92 -158q14 -9 31 -9l109 48l74 -48l22 -122q0 -18 27 -18h188q4 0 11 7
q6 6 6 11l18 122q30 9 87 48l110 -48q30 0 30 9l92 158q9 9 -8 30l-106 75v92zM1725 1491q0 -53 -42 -97q-41 -43 -96 -43q-56 0 -99 43t-43 99q0 54 43 96q44 42 99 42q54 0 96 -42t42 -98z" />
</svg>