<svg xmlns="http://www.w3.org/2000/svg" xmlns:xlink="http://www.w3.org/1999/xlink" version="1.1" viewBox="-10 0 2068 2048">
   <path fill="currentColor"
d="M1 1382l4 -4q188 -81 255 -106q143 -54 250 -78v-836q0 -130 91 -218q92 -90 217 -90q101 0 180 56q80 55 113 146h-293q-45 0 -73 31t-28 75v102h514v-102q0 -130 89 -219t218 -89q97 0 176 56q80 55 113 146h-289q-43 0 -74 31t-31 75v1020q93 -16 278 -102
q105 -45 168 -66q98 -34 169 -34v206q-73 0 -169 34q-64 21 -170 70q-104 46 -171 70q-96 32 -173 32t-168 -32q-65 -22 -173.5 -70.5t-172.5 -69.5q-92 -34 -168 -34q-157 0 -341 62q-124 42 -341 144v-206zM1231 666h-514v202h514v-202zM1231 1074h-514v102q62 8 153 38
q99 40 154 62q127 60 207 86v-288zM1 1790q225 -99 341 -138q187 -64 341 -64q74 0 168 30q59 20 173 71.5t173 72.5q93 28 168 28t173 -28q62 -22 171 -72q111 -52 170 -72q97 -30 169 -30v202q-71 0 -169 34q-64 22 -170 70q-95 43 -171 70q-99 34 -173 34t-168 -34
q-75 -26 -173 -70q-109 -48 -173 -70q-95 -34 -168 -34q-153 0 -341 68q-116 40 -341 140v-208z" />
</svg>