<svg xmlns="http://www.w3.org/2000/svg" xmlns:xlink="http://www.w3.org/1999/xlink" version="1.1" viewBox="-10 0 2068 2048">
   <path fill="currentColor"
d="M1800 1530l-178 -183q138 -9 238 -48q166 -66 184 -196q4 -32 -18 -61q-74 -100 -214 -249q-208 -218 -508 -466h-280v183h188l182 187l-370 188l-836 -96l-188 279l428 131l-278 156q-51 25 -88 57q-62 57 -62 131q0 73 32 113q47 65 156 65h558q113 0 214 -78
q126 -101 152 -296h248l182 187h-238v187h466q114 0 196 -82t82 -196h-188q0 27 -17 50t-43 37zM746 1534h-536l462 -261l252 74q-22 109 -92 157q-43 30 -86 30z" />
</svg>