<svg xmlns="http://www.w3.org/2000/svg" xmlns:xlink="http://www.w3.org/1999/xlink" version="1.1" viewBox="-10 0 2068 2048">
   <path fill="currentColor"
d="M598 1690h735v-102q0 -168 120 -288t288 -120h76l-192 -864q-20 -74 -74 -118q-57 -46 -127 -46h-399v208h399l144 638q-169 52 -286 184q-118 133 -146 306h-538q-40 -108 -136 -164q-101 -58 -214 -38q-91 19 -158 86q-68 68 -84 162q-17 95 21 176q39 85 112.5 135.5
t170.5 50.5q95 0 176 -58q79 -57 112 -148zM310 1690q-42 0 -74 -30q-31 -28 -31 -71.5t31 -72.5q32 -28 72 -28t72 28q31 29 31 72.5t-31 71.5q-32 30 -70 30zM1741 1280q-124 0 -216 89t-92 219t92 219t218 89q127 0 216 -89t89 -219t-89 -219t-218 -89zM1741 1690
q-38 0 -70 -30q-31 -28 -31 -71.5t31 -72.5q32 -28 72 -28t72 28q31 29 31 72.5t-31 71.5q-32 30 -74 30z" />
</svg>