<svg xmlns="http://www.w3.org/2000/svg" xmlns:xlink="http://www.w3.org/1999/xlink" version="1.1" viewBox="-10 0 2058 2048">
   <path fill="currentColor"
d="M1231 0h-822q-86 0 -146 60q-61 61 -61 142v1644q0 81 61 142q60 60 146 60h1230q87 0 147 -60t60 -142v-1231zM1639 1846h-1230v-1644h716v514h514v1130zM818 971q0 67 -44 111q-43 43 -108 43q-66 0 -110 -43q-46 -44 -46 -109q0 -64 46 -110t110 -46t108 46t44 108z
M1433 1586q0 67 -44 111q-43 43 -108 43q-66 0 -110 -43q-46 -44 -46 -108q0 -65 46 -111q45 -45 110 -45t108 45q44 46 44 108zM1433 957l-779 783l-144 -134l788 -789z" />
</svg>