<svg xmlns="http://www.w3.org/2000/svg" xmlns:xlink="http://www.w3.org/1999/xlink" version="1.1" viewBox="-10 0 2058 2048">
   <path fill="currentColor"
d="M1538 101h408v207h-408v-207zM1538 510h408v206h-408v-206zM1538 923h408v202h-331l-77 -92v-110zM1946 1331v207h-206q0 -105 -29 -207h235zM510 101v207h-408v-207h408zM510 510v206h-408v-206h408zM510 923v110l-76 92h-332v-202h408zM102 1331h236q-29 102 -29 207
h-207v-207zM1331 1125v-817q0 -131 -88 -219t-219 -88q-130 0 -218 88q-89 89 -89 219v817q-111 86 -163 211q-54 127 -39 259q15 135 99 248q84 112 208 165q125 52 262 36q135 -17 247 -98q111 -82 164 -209q53 -129 38 -262q-15 -136 -101 -245q-41 -59 -101 -105z
M1024 202q43 0 72 32t29 74v307h-202v-307q0 -42 29 -74t72 -32z" />
</svg>