<svg xmlns="http://www.w3.org/2000/svg" xmlns:xlink="http://www.w3.org/1999/xlink" version="1.1" viewBox="-10 0 2068 2048">
   <path fill="currentColor"
d="M2047 409q0 63 -43 106t-106 43q-62 0 -105 -43q-44 -44 -44 -106t44 -108t105 -46q62 0 108 46q45 45 41 108zM2004 702h-207q-19 0 -19 15v499l5 202h-5l-125 -250l-326 -605l-121 -212q-5 -5 -19 -5h-302q-20 0 -20 15h5l-5 5v846q0 100 -21 168q-21 67 -60 106
q-38 38 -96 55q-59 17 -121 17q-153 0 -230 -92t-77 -250v-850q0 -20 -14 -20h-231q-14 0 -14 20v870q0 143 38 245q40 107 113 173q76 69 175 101q112 38 231 38q117 0 223 -31q107 -31 183 -101q74 -68 120 -178t46 -257v-548l43 87l101 197l422 793q8 14 29 14h279
q19 0 19 -19v-1029q0 -19 -19 -19z" />
</svg>