<svg xmlns="http://www.w3.org/2000/svg" xmlns:xlink="http://www.w3.org/1999/xlink" version="1.1" viewBox="-10 0 2065 2048">
   <path fill="currentColor"
d="M1124 681q-59 0 -104 -41q-42 -40 -42 -106v-45h-46q-65 0 -105.5 -44t-40.5 -103v-141q-230 32 -390 196q-160 165 -192 389q14 -46 54 -76q37 -29 88 -29q60 0 103 43t43 105q0 63 -42 103q-45 41 -104 41t-100 -39q-41 -40 -46 -93q0 95 10 146q26 193 164 347
q136 151 330 202q-64 -45 -64 -124q0 -59 40 -103q41 -43 106 -43q39 0 74 23t54 59q-24 76 -32 169q-28 32 -70 37q20 4 70 4q0 97 26 197h-26q-238 0 -440 -119q-201 -119 -320 -320q-118 -202 -118 -439t118 -439q119 -201 320 -320q201 -118 440 -118l26 4q28 5 46 23
q24 28 24 69v196h100l22 5q33 5 46 23q28 27 28 68v101h196h22q33 9 46 27q28 28 28 69v96h196l32 9q37 9 50 41q14 72 14 146v28q-104 -28 -196 -28h-146q-60 0 -102 -43q-44 -44 -44 -103v-50h-146zM830 781q-57 0 -101.5 41t-44.5 103q0 61 44 105t106 44t103 -44
t41 -105q0 -62 -41 -103t-107 -41zM786 438q0 -58 -44 -102t-106 -44t-103 44t-41 102q0 59 41 103t103 44t106 -44t44 -103zM2032 1696q6 0 6 6q0 7 -6 12l-100 169q-8 9 -28 9l-118 -41l-78 50l-18 128q0 6 -6 12q-8 7 -12 7h-196q-10 0 -28 -19l-24 -128q-40 -13 -76 -50
l-114 50q-19 0 -32 -9l-96 -164q-10 -14 8 -32l110 -78v-96l-110 -78q-8 -9 -8 -32l96 -164q14 -10 32 -10l114 51l76 -51l24 -128q0 -18 28 -18h196q4 0 12 7q6 6 6 11l18 128q27 8 92 51l114 -51q32 0 32 10l96 164q9 9 -10 32l-110 78v96zM1708 1558q0 -54 -44 -100
t-100 -46t-102 46t-46 103q0 56 46 100q45 44 102 44q56 0 100 -44t44 -103z" />
</svg>