<svg xmlns="http://www.w3.org/2000/svg" xmlns:xlink="http://www.w3.org/1999/xlink" version="1.1" viewBox="-10 0 2058 2048">
   <path fill="currentColor"
d="M1560 978v147q150 0 258 96q107 95 128 240q21 143 -62 267l-105 -105q36 -78 18 -162q-18 -86 -84 -138q-65 -52 -153 -52v146l-220 -219zM1560 2048v-146q-151 0 -259 -96q-106 -95 -128 -240q-21 -144 62 -268l105 105q-36 78 -18 163q18 84 85 137q66 52 153 52v-146
l219 220zM1656 197h-96v-197h-197v197h-777v-197h-196v197h-96q-82 0 -139 57q-58 58 -58 139v1362q0 82 58 140q57 57 139 57h877q-89 -76 -146 -197h-731v-973h1362v155q109 18 196 69v-613q0 -82 -57 -139t-139 -57zM1656 585h-1362v-192h1362v192z" />
</svg>