<svg xmlns="http://www.w3.org/2000/svg" xmlns:xlink="http://www.w3.org/1999/xlink" version="1.1" viewBox="-10 0 2068 2048">
   <path fill="currentColor"
d="M1024 358q-236 0 -454 74t-400 212l-170 -228q220 -166 478 -254q263 -88 545.5 -88t544.5 88q261 89 480 254l-170 228q-181 -137 -400 -212q-219 -74 -454 -74zM1024 1214q-190 0 -342 116l342 454l98 -134q-4 -16 -4 -58q0 -188 114 -338q-105 -40 -208 -40z
M1482 1062q45 -17 102 -30l124 -162q-148 -107 -322 -166q-175 -60 -362 -60t-362 60q-176 59 -324 166l174 228q225 -170 512 -170q254 0 458 134zM1784 1308h-190v382h-192l284 284l286 -284h-188v-382z" />
</svg>