<svg xmlns="http://www.w3.org/2000/svg" xmlns:xlink="http://www.w3.org/1999/xlink" version="1.1" viewBox="-10 0 2058 2048">
   <path fill="currentColor"
d="M1567 1140q40 0 98 9v-294q0 -77 -55 -132t-136 -55h-94v-192q0 -129 -64 -238q-64 -110 -174 -174q-109 -64 -238 -64t-238 64q-108 64 -173 174t-65 238v192h-93q-81 0 -136 55q-56 56 -56 132v953q0 75 56 131q55 55 136 55h743q-80 -130 -80 -282q0 -153 78 -285
q78 -131 209 -209q132 -78 282 -78zM619 476q0 -119 83 -202t202 -83q120 0 203 83q82 82 82 202v192h-570v-192zM904 1523q-80 0 -136 -56q-55 -55 -55 -136t55 -136t136 -55t136 55q56 56 56 136t-56 136t-136 56zM1701 1710l204 204l-133 134l-205 -205l-200 205
l-134 -134l201 -204l-201 -201l134 -133l200 200l205 -200l133 133z" />
</svg>