<svg xmlns="http://www.w3.org/2000/svg" xmlns:xlink="http://www.w3.org/1999/xlink" version="1.1" viewBox="-10 0 2068 2048">
   <path fill="currentColor"
d="M358 845q-74 0 -126 52t-52 127t52 127q52 53 124 53t126 -53q52 -52 52 -127t-52 -127t-124 -52zM358 1379q-150 0 -254 -105q-104 -106 -104 -250t104 -250q103 -104 252.5 -104t251.5 104q104 106 104 250t-104 250q-103 105 -250 105zM846 937h314v-267l354 354
l-354 355v-267h-314v-175zM358 490q-53 0 -116 13q129 -209 350 -334q222 -125 482 -125q262 0 485.5 131t356.5 357q132 225 132 492t-132 492q-133 226 -356.5 357t-485.5 131q-260 0 -482 -125q-222 -126 -350 -333q58 12 116 12q106 0 200 -37q95 99 230 158
q132 58 280 58q196 0 358 -96q164 -97 258 -260q96 -165 96 -357q0 -191 -96 -356q-95 -164 -258 -261q-162 -96 -358 -96q-148 0 -280 58q-133 58 -230 159q-97 -38 -200 -38z" />
</svg>