<svg xmlns="http://www.w3.org/2000/svg" xmlns:xlink="http://www.w3.org/1999/xlink" version="1.1" viewBox="-10 0 2058 2048">
   <path fill="currentColor"
d="M1024 0q198 0 361 96q162 95 259 260q96 164 96 360q0 236 -183 582q-137 254 -345 524q-95 126 -188 226l-110 -130q-132 -164 -250 -336q-152 -227 -245 -433q-111 -250 -111 -433q0 -196 96 -360t260 -260t360 -96zM1024 202q-138 0 -257 70t-187 187q-70 120 -70 257
q0 83 19 149q32 126 135 303q124 231 360 543q239 -317 361 -543q101 -174 134 -303q19 -66 19 -149q0 -138 -69 -257q-68 -116 -188 -187q-119 -70 -257 -70zM1024 971l245 154l-62 -284l226 -197l-298 -19l-111 -279l-110 269l-298 29l226 197l-73 284z" />
</svg>