<svg xmlns="http://www.w3.org/2000/svg" xmlns:xlink="http://www.w3.org/1999/xlink" version="1.1" viewBox="-10 0 2058 2048">
   <path fill="currentColor"
d="M1912 2021l-54 -50q-72 77 -171 77t-171 -72t-72 -172q0 -99 76 -171l-162 -162h-1163v-1164l-181 -185l122 -122l1898 1899zM1782 1078q-50 -108 -190 -176q-86 -36 -261 -81l-86 -23q-64 0 -126 -58l712 708v-32q0 -130 -9 -189q-9 -101 -40 -149zM790 410l99 95h122
v-95h-221zM1114 735q-58 -58 -72 -131h-58zM1011 1565q-99 0 -169 70t-70 169q0 101 70 172q70 72 169 72t171 -72t72 -172q0 -98 -72 -169q-71 -70 -171 -70zM772 316h239v-289h-605l316 316q18 -27 50 -27zM339 1565q-99 0 -169 70t-70 169q0 101 70 172q70 72 169 72
q98 0 169 -72q70 -71 70 -172q0 -99 -70 -169t-169 -70z" />
</svg>