<svg xmlns="http://www.w3.org/2000/svg" xmlns:xlink="http://www.w3.org/1999/xlink" version="1.1" viewBox="-10 0 2068 2048">
   <path fill="currentColor"
d="M912 1136h224v229h-224v-229zM912 683h224v229h-224v-229zM912 1595h224q96 0 163 -67t67 -163v-170q0 -69 -51 -120t-121 -51q70 0 121 -51t51 -120v-170q0 -96 -67 -163t-163 -67h-224q-96 0 -162 67q-66 66 -66 163v170q0 70 50 120q50 51 120 51q-70 0 -120 51
q-50 50 -50 120v170q0 97 66 163q66 67 162 67zM1818 1819h-1588v-1590h1588v1590zM1818 0h-1588q-96 0 -163 67t-67 162v1590q0 95 67 162t163 67h1588q96 0 164 -67q66 -66 66 -162v-1590q0 -96 -66 -162q-68 -67 -164 -67z" />
</svg>