<svg xmlns="http://www.w3.org/2000/svg" xmlns:xlink="http://www.w3.org/1999/xlink" version="1.1" viewBox="-10 0 2068 2048">
   <path fill="currentColor"
d="M1959 516q-14 20 -35 41q-40 44 -40 70q0 25 45 80l15 26l25 20q35 38 55 65q26 35 23 68q-3 32 -38 78q-16 21 -75 80l-437 437l-151 -135l452 -453l-110 -105l-151 151l-407 -412l432 -408q30 -30 73 -30q44 0 78 30l246 247q30 34 30 83q0 47 -30 67zM60 1612
l1030 -1030l397 407l-1020 1030h-407v-407zM156 29l226 231l226 -231l156 156l-231 226l231 226l-156 156l-226 -231l-226 231l-156 -156l231 -226l-231 -226z" />
</svg>