<svg xmlns="http://www.w3.org/2000/svg" xmlns:xlink="http://www.w3.org/1999/xlink" version="1.1" viewBox="-10 0 2068 2048">
   <path fill="currentColor"
d="M2048 1933l-1920 -1933l-128 128l746 740q-67 159 -110 233q-145 18 -250 128q-102 109 -102 268q0 157 114 272q114 114 274 114t266 -105q-70 -156 -70 -286t70 -281q-45 -51 -146 -87l68 -146l282 279q-76 108 -76 237q0 161 114 275t274 114q132 0 224 -78l246 243z
M676 1348q-58 0 -102 44t-44 102h-100q0 -106 70 -176t176 -70v100zM1308 1494h-96q0 -68 26 -128l78 78q-8 18 -8 50zM1846 1472l-370 -371q147 9 254 117q108 107 116 254zM996 626l-118 -119q110 -321 110 -475l136 -10q5 18 10 74l8 73q74 -13 184 9q159 40 306 155
q165 119 196 357q14 112 -4 210h-36q-55 0 -110 -9q-78 -13 -160 -46q-100 -40 -188 -114l-92 -87q44 164 110 334l-224 -224q-32 -104 -68 -293q-15 42 -35 97t-25 68z" />
</svg>