<svg xmlns="http://www.w3.org/2000/svg" xmlns:xlink="http://www.w3.org/1999/xlink" version="1.1" viewBox="-10 0 2068 2048">
   <path fill="currentColor"
d="M1014 856l-140 72q-19 -47 -52.5 -67t-57.5 -20q-140 0 -140 183q0 79 34 132q33 51 106 51q86 0 126 -92l124 68q-38 71 -110 115q-72 43 -160 43q-138 0 -222 -84t-84 -231t86 -233t216 -86q193 0 274 149zM1606 856l-136 72q-24 -45 -54 -65q-34 -22 -66 -22
q-134 0 -134 183q0 78 36 130q36 53 98 53q91 0 130 -92l130 68q-44 72 -116 115q-71 43 -158 43q-140 0 -221 -84t-81 -231q0 -146 84 -233q83 -86 214 -86q192 0 274 149zM1024 154q172 0 334 65t283.5 187t186.5 284q66 162 66 334t-66 334q-65 162 -186.5 284
t-283.5 187t-334.5 65t-333.5 -65t-284 -187q-123 -124 -188 -284q-64 -162 -64 -334t64 -334q65 -160 188 -284q123 -122 284 -187t334 -65zM1024 0q-200 0 -392 77q-188 76 -333.5 221t-220.5 334q-78 192 -78 392t78 392q75 189 220.5 334t333.5 221q192 77 392 77
t392 -77q188 -76 333.5 -221t220.5 -334q78 -192 78 -392t-78 -392q-75 -189 -220.5 -334t-333.5 -221q-192 -77 -392 -77z" />
</svg>