<svg xmlns="http://www.w3.org/2000/svg" xmlns:xlink="http://www.w3.org/1999/xlink" version="1.1" viewBox="-10 0 2065 2048">
   <path fill="currentColor"
d="M1753 514q125 0 208 86q84 87 84 206v389q0 119 -84 206q-83 86 -208 86h-729q0 28 22 63q21 33 50 33h441v173q0 120 -86 206t-206 86h-441q-120 0 -206 -86q-87 -87 -87 -206v-384q0 -119 87 -206q86 -86 206 -86h537q124 0 208 -87t84 -206v-273h120zM1317 1722
q-33 0 -53 22q-19 20 -19 65q0 44 19 60t50 16q32 0 53 -21q22 -22 22 -51q0 -47 -20 -69t-52 -22zM296 1535q-125 0 -209 -84t-84 -208v-384q0 -125 84 -209t209 -84h728q0 -34 -21 -67t-51 -33h-441v-173q0 -119 87 -206t206 -87h441q119 0 206 87q86 86 86 206v384
q0 125 -86 208q-87 84 -206 84h-537q-125 0 -209 87t-84 206v273h-119zM732 331q34 0 53 -24q19 -23 19 -67q0 -42 -19 -57q-20 -15 -53 -15q-34 0 -53 15t-19 57q0 44 19 67q19 24 53 24z" />
</svg>