<svg xmlns="http://www.w3.org/2000/svg" xmlns:xlink="http://www.w3.org/1999/xlink" version="1.1" viewBox="-10 0 2058 2048">
   <path fill="currentColor"
d="M538 1558q-106 0 -177 71t-71 172q0 99 71 173t175 74q102 0 173 -74t71 -173q0 -101 -71 -172t-171 -71zM1510 1558q-100 0 -171 71t-71 172q0 99 71 173t171 74q102 0 173 -74t71 -173q0 -101 -71 -172t-173 -71zM1854 1462v-50q0 -120 -6 -192q-13 -104 -44 -155
q-52 -110 -192 -179q-94 -39 -266 -82l-86 -23q-70 0 -130 -61q-63 -63 -76 -135h-274q-22 0 -36 -14t-14 -37q0 -22 14 -36t36 -14h242v-96h-242q-22 0 -36 -14t-14 -34t14 -34t36 -14h242v-292h-828v1462h1660z" />
</svg>