<svg xmlns="http://www.w3.org/2000/svg" xmlns:xlink="http://www.w3.org/1999/xlink" version="1.1" viewBox="-10 0 2068 2048">
   <path fill="currentColor"
d="M1024 1024q0 -133 70 -252q71 -119 188 -188q116 -69 254 -69t254 69q119 70 188 188q70 117 70 252h-1024zM1024 1024q0 134 -70 253q-69 118 -186 187q-119 70 -255.5 70t-254.5 -70q-118 -69 -188 -187q-70 -119 -70 -253h1024zM1024 1024q-136 0 -252 -69
q-117 -69 -188 -188q-70 -119 -70 -255t70 -255q70 -118 188 -187q118 -70 252 -70v1024zM1024 1024q135 0 254 70q117 69 186 187q70 119 70 255t-70 255t-186 188q-117 69 -254 69v-1024z" />
</svg>