<svg xmlns="http://www.w3.org/2000/svg" xmlns:xlink="http://www.w3.org/1999/xlink" version="1.1" viewBox="-10 0 2058 2048">
   <path fill="currentColor"
d="M1650 947l-402 18l224 -252q36 -56 18 -128q-17 -58 -46 -77l-524 -311q-32 -23 -72 -18q-38 5 -66 27l-264 242q-38 38 -42 85q-5 47 28 82q31 34 82 37q49 3 86 -25l196 -179l184 110l-408 416l-8 14q-5 9 -10 9q-100 36 -136 68l146 147q97 -41 146 -41q138 0 238 100
q100 101 100 242q0 90 -36 147l146 146q86 -132 86 -293q0 -187 -104 -324l320 -28l-18 467q-9 50 22 84q31 35 82 44h10q46 0 77.5 -32t40.5 -73l18 -576q0 -61 -26 -92q-41 -36 -88 -36zM1610 389q82 0 139 -57t57 -137q0 -81 -57 -138t-139 -57q-84 0 -141 57t-57 138
q0 80 57 137t141 57zM1074 1961q-132 87 -292 87q-147 0 -270 -73q-124 -74 -196 -196q-74 -122 -74 -266q0 -164 92 -292l146 146q-40 97 -40 146q0 138 100 238q100 101 242 101q89 0 146 -37z" />
</svg>