<svg xmlns="http://www.w3.org/2000/svg" xmlns:xlink="http://www.w3.org/1999/xlink" version="1.1" viewBox="-10 0 2068 2048">
   <path fill="currentColor"
d="M1124 308q174 0 294 120t120 288q0 117 -56 209q-57 96 -150 147v-125q100 -92 100 -226t-89 -223t-217 -89q-125 0 -218 89q-90 88 -90 223t104 226v125q-93 -51 -150 -147q-56 -92 -56 -209q0 -168 120 -288t288 -120zM1846 1894q-5 63 -48 108q-45 46 -106 46h-568
q-58 0 -100 -43l-408 -428l72 -82q34 -34 80 -34h20l236 178v-923q0 -44 30 -72q33 -29 72 -29q41 0 74 29q30 28 30 72v457l120 14l408 226q39 19 64 56q24 36 24 84v341zM1846 0h-1644q-82 0 -142 60t-60 142v822q0 87 60 147t142 60h414v-207h-414v-822h1644v822h-208
v207h208v-5l4 5q82 0 140 -60q58 -61 58 -147v-822q0 -82 -60 -142t-142 -60z" />
</svg>