<svg xmlns="http://www.w3.org/2000/svg" xmlns:xlink="http://www.w3.org/1999/xlink" version="1.1" viewBox="-10 0 2068 2048">
   <path fill="currentColor"
d="M766 449q-154 0 -268 114t-114 270v383q0 161 114 272t272 111t269 -111t111 -272v-383q0 -156 -111 -270t-273 -114zM898 1216q0 54 -39 93t-93 39t-90 -39t-36 -93v-383q0 -54 36 -90t90 -36t93 36t39 90v383zM1664 449q-162 0 -272 114q-110 113 -110 270v383
q0 162 110 272q110 111 270 111q158 0 272 -111t114 -272v-383q0 -156 -114 -270t-270 -114zM1790 1216q0 54 -36 93t-90 39t-93 -39t-39 -93v-383q0 -54 39 -90t93 -36t90 36t36 90v383zM258 1473q0 54 -36 90t-90 36t-93 -36t-39 -90q0 -53 39 -89t93 -36t90 36t36 89z
" />
</svg>