<svg xmlns="http://www.w3.org/2000/svg" xmlns:xlink="http://www.w3.org/1999/xlink" version="1.1" viewBox="-10 0 2068 2048">
   <path fill="currentColor"
d="M0 144l144 -144l1904 1904l-144 144l-416 -416q-117 123 -294 165v251h-340v-251q-176 -42 -288 -162q-112 -119 -112 -270h230q0 92 100 160q104 70 240 70q96 0 176 -35q82 -35 128 -88l-342 -341q-165 -38 -244 -75q-134 -54 -202 -133q-86 -97 -86 -240q0 -53 10 -75
zM854 251v-251h340v251q176 42 288 162q112 119 112 270h-228q0 -92 -102 -160q-103 -70 -240 -70q-61 0 -118 16l-176 -176z" />
</svg>