<svg xmlns="http://www.w3.org/2000/svg" xmlns:xlink="http://www.w3.org/1999/xlink" version="1.1" viewBox="-10 0 2068 2048">
   <path fill="currentColor"
d="M1844 933q-26 -82 -100 -135q-75 -53 -162 -53t-160 53q-72 52 -102 135h-592q-29 -82 -102 -135t-160 -53q-86 0 -160 53q-75 53 -100 135h-206v183h206q25 82 100 135q72 52 160 52t160 -52q73 -53 102 -135h592q30 82 102 135q72 52 160 52q89 0 162 -52
q74 -53 100 -135h204v-183h-204zM466 1116q-26 0 -50 -15q-22 -14 -34 -42q-11 -27 -6 -54q4 -29 23.5 -48t48 -24t54.5 6q27 11 41.5 35t14.5 50q0 40 -26 66t-66 26zM1582 1116q-40 0 -66 -26t-26 -66q0 -39 26 -65t66 -26t66 26t26 65q0 40 -26 66t-66 26z" />
</svg>