<svg xmlns="http://www.w3.org/2000/svg" xmlns:xlink="http://www.w3.org/1999/xlink" version="1.1" viewBox="-10 0 2068 2048">
   <path fill="currentColor"
d="M2048 1998h-2048v-202h2048v202zM2048 358h-2048v-308h2048v308zM1846 460v1230h-308v-818l-78 -28q-96 -29 -192 -48q-131 -30 -244.5 -30t-245.5 30q-96 19 -192 48l-76 28v818h-308v-1230h1644zM1278 1248l38 66q35 80 16 160q-20 82 -82 138q-53 49 -124 66t-140 10
q-74 -8 -130 -48q-58 -41 -92 -100q-25 -34 -34 -76l-14 -68q-4 -76 24 -148q28 -71 86 -116q-29 55 -22 118q8 65 46 112l6 10q14 10 28 3t14 -21v-16q-43 -106 -12 -218q33 -114 118 -186q50 -41 110 -56q-32 62 -24 134q9 71 64 120l90 78zM1138 1532q44 -44 40 -102v-20
q-9 -41 -58 -86q-35 -25 -44 -42l-24 -48q-19 42 -10 96l6 28q9 45 4.5 72.5t-28.5 55.5q-25 27 -62 36q24 24 56 36q32 11 72 2z" />
</svg>