<svg xmlns="http://www.w3.org/2000/svg" xmlns:xlink="http://www.w3.org/1999/xlink" version="1.1" viewBox="-10 0 2058 2048">
   <path fill="currentColor"
d="M825 1654q0 115 36 226h-36q-184 0 -339 -92t-244 -247t-89 -333q0 -158 105 -379q82 -174 231 -393q103 -149 231 -310l105 -126l131 157q161 208 268 378q165 257 231 447q-118 11 -221 52q-51 -139 -168 -336q-101 -168 -241 -346q-192 246 -310 462
q-136 251 -136 394q0 182 131 315q130 131 315 131zM1895 1418l-162 -158l-236 236l-237 -236l-157 158l236 236l-236 236l157 158l237 -237l236 237l157 -158l-236 -236z" />
</svg>