<svg xmlns="http://www.w3.org/2000/svg" xmlns:xlink="http://www.w3.org/1999/xlink" version="1.1" viewBox="-10 0 2058 2048">
   <path fill="currentColor"
d="M1884 2048l-393 -388q-118 82 -255 115q-141 34 -273 16l44 -188q190 13 344 -83l-1305 -1306l123 -122l1833 1838zM1063 494q111 0 212 43t181 123q123 128 153 292q30 167 -35 323l140 140q122 -210 87 -456q-35 -247 -218 -426q-101 -110 -238 -168q-139 -59 -282 -59
v-306l-379 371l379 385v-262zM561 812l-139 -139q-126 219 -98 471q28 254 207 441q122 105 253 158l48 -188q-89 -40 -170 -109q-123 -127 -151 -304q-28 -176 50 -330z" />
</svg>