<svg xmlns="http://www.w3.org/2000/svg" xmlns:xlink="http://www.w3.org/1999/xlink" version="1.1" viewBox="-10 0 2068 2048">
   <path fill="currentColor"
d="M1860 412h-296q18 -41 18 -92q0 -118 -80 -198q-82 -81 -198 -81q-69 0 -130 31q-58 30 -98 83l-52 69l-52 -69q-39 -53 -98 -83q-60 -31 -128.5 -31t-129.5 33q-64 34 -102 89l140 140q10 -36 32 -57q24 -22 62 -22t64 29t26 65q0 38 -22.5 61.5t-51.5 27.5l352 358
v-166h744v183h-722l182 187h450v445l182 187v-632q40 0 68 -28t28 -63v-279q0 -79 -54 -133t-134 -54zM1304 412q-41 0 -66.5 -29t-25.5 -65t25.5 -65t66.5 -29q39 0 64.5 29t25.5 65t-25.5 65t-64.5 29zM14 133l278 279h-104q-78 0 -132 54q-56 55 -56 133v279q0 34 30 63
q28 28 66 28v745q0 74 55 129t129 55h1498l134 135l118 -118l-1898 -1900zM1116 1240l474 474h-474v-474zM934 1052v662h-654v-745h570zM662 782h-474v-183h288z" />
</svg>