<svg xmlns="http://www.w3.org/2000/svg" xmlns:xlink="http://www.w3.org/1999/xlink" version="1.1" viewBox="-10 0 2068 2048">
   <path fill="currentColor"
d="M922 1125v207h202v-207h-202zM922 716v207h202v-207h-202zM922 1538q-86 0 -146 -60t-60 -146v-154q0 -63 46 -108q46 -46 108 -46q-62 0 -108 -46q-46 -45 -46 -108v-154q0 -86 60 -146t146 -60h202q88 0 148 60t60 146v154q0 62 -46 108t-108 46q62 0 108 46t46 108
v154q0 86 -60 146t-148 60h-202zM1024 0q200 0 392 77q188 76 333.5 221t220.5 334q78 192 78 392t-78 392q-75 189 -220.5 334t-333.5 221q-192 77 -392 77t-392 -77q-188 -76 -333.5 -221t-220.5 -334q-78 -192 -78 -392t78 -392q75 -189 220.5 -334t333.5 -221
q192 -77 392 -77zM1024 202q-223 0 -411.5 110t-300.5 301q-110 191 -110 411t110 411q111 190 300 300q191 111 411.5 111t410.5 -111q190 -110 300 -300q112 -191 112 -411t-112 -411q-111 -191 -299.5 -301t-410.5 -110z" />
</svg>