<svg xmlns="http://www.w3.org/2000/svg" xmlns:xlink="http://www.w3.org/1999/xlink" version="1.1" viewBox="-10 0 2068 2048">
   <path fill="currentColor"
d="M1740 666h-102v-514h-1022v1644h1432v-822q0 -130 -89 -219t-219 -89zM818 358h614v308h-614v-308zM1230 1488h-412v-514h412v514zM1432 1488q-38 0 -69 -31t-31 -72t31 -72t72 -31t72 31t31 72t-31 72t-75 31zM1432 1180q-38 0 -70 -32q-30 -30 -30 -71t31 -72t72 -31
t72 31t31 72t-32 71q-32 32 -74 32zM1740 1488q-40 0 -71 -31t-31 -72t31 -72t73 -31t73 31t31 72t-31 72t-75 31zM1740 1180q-38 0 -70 -32q-32 -30 -32 -71t31 -72t73 -31t73 31t31 72t-32 71q-32 32 -74 32zM254 564q-104 0 -180 76q-74 74 -74 180v822q0 106 74 180
q76 74 181 74t180 -75t75 -179v-822q0 -106 -75 -181t-181 -75z" />
</svg>