<svg xmlns="http://www.w3.org/2000/svg" xmlns:xlink="http://www.w3.org/1999/xlink" version="1.1" viewBox="-10 0 2058 2048">
   <path fill="currentColor"
d="M1130 0h-212v243l-213 -121l-106 187l208 121l-208 121l106 193l213 -127v364q-187 40 -311 187q-124 146 -124 344q0 147 73 271q73 123 198 194t270 71t270 -71q124 -70 197 -194q74 -125 74 -271q0 -198 -124 -344q-124 -147 -311 -187v-364l212 127l106 -193
l-207 -121l207 -121l-106 -187l-212 121v-243zM1024 1836q-132 0 -228 -96t-96 -230q0 -135 96 -228t228 -93q131 0 227 93t96 228q0 134 -96 230t-227 96z" />
</svg>