<svg xmlns="http://www.w3.org/2000/svg" xmlns:xlink="http://www.w3.org/1999/xlink" version="1.1" viewBox="-10 0 2068 2048">
   <path fill="currentColor"
d="M1946 552h-72l-4 -4q-156 -8 -288 -58q-130 -48 -198 -120l-154 78l-18 28q120 106 120 230q0 38 -20 96l-192 -192q-40 44 -72 72l206 208q-32 42 -76 72l-212 -216q-30 21 -92 56l208 212q-54 20 -112 30l-192 -194q-67 26 -106 40l174 172h-28q-226 0 -380 -120
q-113 20 -236 20q-91 0 -144 82q-38 50 -54 144l-4 82q0 86 60 146t142 60v100q0 44 32 73t71.5 29t72.5 -30q30 -28 30 -72v-100h102v100q0 44 30 72q33 30 72.5 30t71.5 -29t32 -73v-100h102v100q0 44 30 72q33 30 72.5 30t71.5 -30q32 -28 32 -72v-100h308v100
q0 44 30 72q33 30 72.5 30t71.5 -30q32 -28 32 -72v-100h100v100q0 44 32 72q32 30 72 30t72 -30q32 -28 32 -72v-100h100l14 -10q20 -14 40 -48q16 -44 32 -140q16 -106 16 -266.5t-24 -275.5q-20 -88 -48 -144z" />
</svg>