<svg xmlns="http://www.w3.org/2000/svg" xmlns:xlink="http://www.w3.org/1999/xlink" version="1.1" viewBox="-10 0 2068 2048">
   <path fill="currentColor"
d="M1626 510q-63 -67 -132 -130l-134 134q-115 -91 -242 -138q-134 -50 -280 -50q-226 0 -418 114q-194 115 -306 306q-114 194 -114 418q0 223 114 420q113 193 306 304q193 112 419.5 112t420.5 -112q192 -111 302 -302q112 -192 112 -422q0 -144 -48 -278
q-48 -131 -136 -242zM934 1260h-188v-654h188v654zM1116 236h-558v-188h558v188zM2048 606v558h-188v-558h188zM1860 1350h188v188h-188v-188z" />
</svg>