<svg xmlns="http://www.w3.org/2000/svg" xmlns:xlink="http://www.w3.org/1999/xlink" version="1.1" viewBox="-10 0 2068 2048">
   <path fill="currentColor"
d="M920 94q-34 0 -78 14l-720 298q-74 32 -105.5 108t-0.5 150l486 1171q23 55 71.5 87t104.5 32q45 0 78 -14l724 -298q50 -22 82 -71q33 -50 38 -104q0 -34 -14 -78l-492 -1171q-17 -54 -68 -89q-52 -35 -106 -35zM1260 94l340 818v-620q0 -83 -58 -140q-58 -58 -140 -58
h-142zM1792 246v881l240 -574q31 -73 0 -147q-32 -73 -106 -105zM920 287l486 1176l-724 303l-486 -1176z" />
</svg>