<svg xmlns="http://www.w3.org/2000/svg" xmlns:xlink="http://www.w3.org/1999/xlink" version="1.1" viewBox="-10 0 2068 2048">
   <path fill="currentColor"
d="M202 409h-202v1437q0 82 60 142t142 60h1436v-202h-1436v-1437zM1710 548l-100 101l-212 -212l102 -101q18 -14 40.5 -14t41.5 14l128 130q16 20 16 41t-16 41zM716 1120l620 -620l212 211l-620 621h-212v-212zM1846 202v1231h-1230v-1231h1230zM1846 0h-1230
q-88 0 -148 60t-60 142v1231q0 86 60 146t148 60h1230q82 0 142 -60t60 -146v-1231q0 -82 -60 -142t-142 -60z" />
</svg>