<svg xmlns="http://www.w3.org/2000/svg" xmlns:xlink="http://www.w3.org/1999/xlink" version="1.1" viewBox="-10 0 2064 2048">
   <path fill="currentColor"
d="M640 1836q-211 -103 -348 -296q-136 -191 -160 -432h-128q20 260 162 476q143 216 368 340q226 124 490 124l56 -4l-324 -324zM716 1276q-18 0 -42 -8q-22 -7 -36 -20q-15 -13 -22 -30q-8 -19 -8 -42h-108q0 52 18 86q17 33 48 56q28 21 68 34q38 12 84 12t86 -12t72 -38
q31 -25 48 -62q16 -35 16 -80q0 -26 -8 -52q-7 -23 -20 -42q-11 -16 -32 -34q-18 -15 -52 -28q20 -8 40 -26q21 -20 34 -38q14 -20 20 -40q6 -19 6 -40q0 -45 -16 -80q-26 -46 -46 -64q-24 -20 -64 -32q-42 -12 -88 -12q-45 0 -84 14q-37 13 -68 38q-30 24 -44 56
q-14 33 -14 72h112q0 -19 8 -38q7 -17 22 -30q13 -12 32 -18q18 -6 38 -6q52 0 78 26t26 74q0 14 -8 38q-7 21 -22 34q-14 12 -34 20q-21 8 -52 8h-64v88h64q32 0 54 6t38 22q17 17 24 34q8 19 8 46q0 52 -28 80t-84 28zM1448 772q-43 -43 -98 -66q-53 -22 -126 -22h-200
v680h196q73 0 130 -22q58 -22 100 -66q43 -44 62 -102q20 -60 20 -134v-32q0 -70 -20 -132q-19 -59 -64 -104zM1412 1040q0 60 -12 100t-34 68t-60 46t-86 18h-76v-492h80q92 0 140 56t48 172v32zM1024 0l-56 4l324 324l116 -116q211 103 348 296q136 191 160 432h128
q-24 -259 -164 -476q-139 -215 -366 -340q-226 -124 -490 -124z" />
</svg>