<svg xmlns="http://www.w3.org/2000/svg" xmlns:xlink="http://www.w3.org/1999/xlink" version="1.1" viewBox="-10 0 2068 2048">
   <path fill="currentColor"
d="M1730 188h-426v-188h744v745h-188v-427l-448 449q78 117 78 257q0 164 -106 294q-107 129 -268 164v192h188v187h-188v187h-182v-187h-188v-187h188v-192q-162 -35 -268 -164q-108 -130 -108 -294q0 -138 78 -252l-108 -114l-130 131l-132 -131l132 -130l-210 -210v336
h-188v-654h654v188h-336l210 209l130 -135l136 135l-136 131l110 109q113 -79 254 -79t260 79zM1024 745q-116 0 -197 81t-81 198q0 118 80 199q80 80 198 80t198 -80q82 -81 82 -199q0 -117 -81 -198t-199 -81z" />
</svg>