<svg xmlns="http://www.w3.org/2000/svg" xmlns:xlink="http://www.w3.org/1999/xlink" version="1.1" viewBox="-10 0 2058 2048">
   <path fill="currentColor"
d="M1963 1850q-17 -26 -45 -31q-36 -9 -62 13q-54 45 -114 63q-59 18 -136 4l-103 -27l-103 -590l-308 -250l165 -273q87 131 226 211t301 80v-192q-134 0 -239 -72q-104 -71 -149 -187l-54 -117q-15 -23 -56 -62q-37 -36 -100 -36h-541l-241 380l165 103l179 -295h223
l-236 380q-45 63 -27 147l80 326l-335 224l-44 -9q-66 -13 -121 -56q-53 -41 -76 -101q-18 -36 -51 -42q-34 -6 -56 11q-22 18 -27 43q-4 24 0 47q44 87 121 151q76 62 178 85l1202 260q106 22 201 -5q94 -27 170 -94q18 -13 22 -35q0 -41 -9 -54zM712 1707l291 -192
l-45 -318l272 193l72 442zM1592 192q0 80 -56 136t-134 56t-134 -56q-55 -55 -55 -136t55 -136q56 -56 134 -56t134 56t56 136z" />
</svg>