<svg xmlns="http://www.w3.org/2000/svg" xmlns:xlink="http://www.w3.org/1999/xlink" version="1.1" viewBox="-10 0 2068 2048">
   <path fill="currentColor"
d="M202 409h-202v1437q0 82 60 142t142 60h1436v-202h-1436v-1437zM1846 0q82 0 142 60t60 142v1231q0 86 -60 146t-142 60h-1230q-88 0 -148 -60t-60 -146v-1231q0 -82 60 -142t148 -60h1230zM1538 510q0 -126 -91 -217t-219 -91t-216 91q-90 92 -90 219t89 216t216 89
t219 -89q92 -88 92 -218zM616 1332v101h1230v-101q0 -96 -116 -173q-96 -67 -250 -106q-139 -39 -252 -39q-112 0 -248 39q-160 39 -254 106q-110 76 -110 173z" />
</svg>