<svg xmlns="http://www.w3.org/2000/svg" xmlns:xlink="http://www.w3.org/1999/xlink" version="1.1" viewBox="-10 0 2068 2048">
   <path fill="currentColor"
d="M1966 125q34 0 58 26q24 27 24 60v1625q0 34 -24 61q-24 26 -58 26h-1370q-34 0 -60 -26t-26 -61v-298h-428q-34 0 -58 -26q-24 -27 -24 -60v-856q0 -33 24 -60q24 -26 58 -26h428v-299q0 -34 26 -60t60 -26h1370zM510 1135l124 225h184l-202 -331l196 -322h-178
l-114 216q-32 -58 -58 -111l-58 -105h-182l192 327l-212 326h182zM1216 1793v-255h-576v255h576zM1216 1409v-323h-192v323h192zM1216 961v-322h-192v322h192zM1216 510v-255h-576v255h576zM1922 1793v-255h-576v255h576zM1922 1409v-323h-576v323h576zM1922 961v-322h-576
v322h576zM1922 510v-255h-576v255h576z" />
</svg>