<svg xmlns="http://www.w3.org/2000/svg" xmlns:xlink="http://www.w3.org/1999/xlink" version="1.1" viewBox="-10 0 2068 2048">
   <path fill="currentColor"
d="M202 255q-44 0 -72 31t-28 75v509q-34 0 -64 22q-29 21 -38 60v327h28q28 -47 76 -75q43 -26 98 -26h922q60 0 104 26q47 28 74 75h134l-4 -303q0 -43 -28 -75q-29 -31 -72 -31h-208v-202q0 -42 -28 -74q-29 -31 -72.5 -31t-71.5 31q-30 32 -30 74v202h-206v-509
q0 -43 -28 -75q-29 -31 -72 -31h-414zM308 462h202v514h-202v-514zM1538 976v817h510v-101l-308 -101l-102 -615h-100zM202 1385q-82 0 -142 60t-60 144t60 144t142 60h922q88 0 148 -60t60 -144t-60 -144t-148 -60h-922z" />
</svg>