<svg xmlns="http://www.w3.org/2000/svg" xmlns:xlink="http://www.w3.org/1999/xlink" version="1.1" viewBox="-10 0 2068 2048">
   <path fill="currentColor"
d="M1596 1986l-264 -286l112 -112l152 152l344 -344l108 134zM858 1302h188v192h-188v-192zM858 536h188v572h-188v-572zM952 62q260 0 478 128q220 127 348 346q126 219 126 478l-4 126q-96 -32 -192 -32l8 -94q0 -207 -102 -382t-280 -278q-176 -104 -381.5 -104t-382 103
t-279.5 279.5t-103 381.5q0 207 103 383.5t279.5 279.5t381.5 103q98 0 198 -28q9 97 52 184q-118 32 -250 32q-258 0 -478 -128q-218 -128 -346 -346q-128 -220 -128 -480q0 -258 128 -478q129 -220 346 -346q219 -128 478 -128z" />
</svg>