<svg xmlns="http://www.w3.org/2000/svg" xmlns:xlink="http://www.w3.org/1999/xlink" version="1.1" viewBox="-10 0 2068 2048">
   <path fill="currentColor"
d="M688 1600q-85 -102 -136 -245q-49 -141 -56 -310v-42q7 -169 56 -310q51 -143 136 -245q151 -176 346 -176q151 0 272 101q124 103 196 275q72 174 72 376t-72 376q-72 172 -196 275q-121 101 -272 101q-105 0 -170 -27q-72 -31 -176 -149zM1030 0h-6q-276 0 -512 139
q-234 138 -372 373q-140 236 -140 509q0 274 131 504t355 371q224 142 490 152h48q192 0 368 -69q178 -70 314 -192q162 -145 252 -342q90 -198 90 -421t-90 -421q-90 -197 -252 -342q-138 -123 -312 -192q-172 -69 -364 -69z" />
</svg>