<svg xmlns="http://www.w3.org/2000/svg" xmlns:xlink="http://www.w3.org/1999/xlink" version="1.1" viewBox="-10 0 2068 2048">
   <path fill="currentColor"
d="M1846 1024v-514h202v615h-202v-101zM1846 1538h202v-206h-202v206zM818 1125q152 0 336 48q202 51 330 135q154 100 154 230v308h-1638v-308q0 -129 150 -230q133 -84 336 -135q182 -48 332 -48zM818 202q172 0 292 120t120 291t-120 291t-291 120t-291 -120t-120 -291
t120 -291t290 -120zM818 1322q-144 0 -298 38q-134 38 -232 92q-96 52 -96 86v111h1250v-111q0 -34 -96 -86q-98 -54 -232 -92q-150 -38 -296 -38zM818 399q-88 0 -150 62q-62 63 -62 152q0 88 63 151t151 63t151 -63t63 -151q0 -89 -64 -152q-62 -62 -152 -62z" />
</svg>