<svg xmlns="http://www.w3.org/2000/svg" xmlns:xlink="http://www.w3.org/1999/xlink" version="1.1" viewBox="-10 0 2068 2048">
   <path fill="currentColor"
d="M1860 96h-1672q-78 0 -133 55t-55 127v1490q0 74 55 129t133 55h1672q78 0 134 -54q54 -54 54 -130v-1490q0 -74 -54 -128q-56 -54 -134 -54zM598 1768q-105 -100 -164 -232q-58 -135 -58 -280q0 -143 58 -278q59 -134 164 -234l148 58q-88 73 -138 196q-50 122 -50 256
q0 136 48 256q49 121 140 202zM1090 1582l-74 -188l-130 188h-140l214 -288l-122 -270h122l74 188l130 -188h140l-206 278l122 280h-130zM1452 1768l-148 -56q90 -81 138 -202t48 -254q0 -132 -48 -252q-48 -121 -138 -202l148 -58q104 100 162 234q60 135 60 278
q0 145 -60 280q-58 132 -162 232zM1860 558h-1672v-280h1672v280z" />
</svg>