<svg xmlns="http://www.w3.org/2000/svg" xmlns:xlink="http://www.w3.org/1999/xlink" version="1.1" viewBox="-10 0 2068 2048">
   <path fill="currentColor"
d="M594 220l-146 -147q55 -45 124 -45h978q76 0 134 57q58 58 58 135v1152l-192 -197v-955h-394v566l-192 -196v-370h-370zM2048 1925l-124 123l-234 -233q-59 64 -140 64v96h-198v-96h-584v96h-196v-96q-78 0 -135 -57t-57 -140v-1179l-380 -379l124 -124zM572 805h108
l-108 -105v105zM964 1088l-100 -96v206h-292v484h392v-594zM1550 1673l-394 -388v397h394v-9z" />
</svg>