<svg xmlns="http://www.w3.org/2000/svg" xmlns:xlink="http://www.w3.org/1999/xlink" version="1.1" viewBox="-10 0 2068 2048">
   <path fill="currentColor"
d="M1440 1288l228 131l-70 123l-298 -175v-341h140v262zM2048 1306q0 173 -88 325t-238 238q-150 87 -328 87q-176 0 -326 -87q-151 -87 -238 -238q-88 -150 -88 -325q0 -49 8 -96h-750v-1118h1676v624q165 77 268 238q104 161 104 352zM808 1026q23 -52 56 -96h-26
q-118 0 -198 -80q-82 -81 -82 -197q0 -117 82 -199q81 -83 196 -83q116 0 199 83t83 197q0 35 -10 70q135 -70 288 -70q44 0 92 9v-193q-78 0 -132 -54q-56 -55 -56 -133h-928q0 78 -56 133q-54 54 -132 54v372q78 0 132 54q56 55 56 133h436zM1860 1306q0 -128 -62 -234
q-61 -107 -168 -170q-106 -63 -234 -63q-126 0 -232 63q-107 63 -170 170q-64 108 -64 234q0 125 64 233q63 108 170 169q105 61 232 61q129 0 234.5 -61t167.5 -169q62 -106 62 -233z" />
</svg>