<svg xmlns="http://www.w3.org/2000/svg" xmlns:xlink="http://www.w3.org/1999/xlink" version="1.1" viewBox="-10 0 2058 2048">
   <path fill="currentColor"
d="M926 0q-82 0 -139 57t-57 135v32q-211 60 -348 240q-136 181 -136 413v585l-198 192v101h1756v-101l-196 -192v-585q0 -231 -138 -413q-137 -180 -348 -240v-32q0 -78 -57 -135t-139 -57zM926 388q132 0 244 66q112 65 178 179q68 114 68 244v681h-978v-681
q0 -131 66 -244q66 -114 178 -179q112 -66 244 -66zM1804 484v585h196v-585h-196zM1804 1266v196h196v-196h-196zM730 1851q0 82 56 139q58 58 140 58t140 -58q56 -57 56 -139h-392z" />
</svg>