<svg xmlns="http://www.w3.org/2000/svg" xmlns:xlink="http://www.w3.org/1999/xlink" version="1.1" viewBox="-10 0 2058 2048">
   <path fill="currentColor"
d="M1882 2048h-534q-40 0 -76 -33q-36 -32 -36 -73v-430q0 -41 35 -76t77 -35v-162q0 -112 78 -190t190 -78q110 0 188 78t78 190v162q42 0 76 35q36 36 36 76v430q0 40 -36 73t-76 33zM54 1618h970v218h-970v-218zM1776 1401v-162q0 -60 -48 -111t-112 -51q-66 0 -114 51
t-48 111v162h322zM482 1401v-647h-428l752 -754l754 754h-430v647h-648zM574 541h126v648h212v-648h126l-232 -237z" />
</svg>