<svg xmlns="http://www.w3.org/2000/svg" xmlns:xlink="http://www.w3.org/1999/xlink" version="1.1" viewBox="-10 0 2058 2048">
   <path fill="currentColor"
d="M735 1533h-305v-193h287q13 -108 49 -192h-336v-189h462l9 -9q89 -89 204 -136t235 -47h-910v-193h959v193h-49q116 0 228 45q113 45 202 130v-556q0 -81 -56 -137t-137 -56h-399q-31 -85 -105 -139t-163 -54q-91 0 -164 54q-74 54 -105 139h-399q-80 0 -136 56t-56 137
v1335q0 81 56 137t136 56h771q-67 -41 -112 -85q-121 -121 -166 -296zM910 193q40 0 67 29q27 28 27 67t-27 68t-67 29q-41 0 -68 -29q-26 -27 -26 -68q0 -40 26 -67q27 -29 68 -29zM1702 1618q68 -104 68 -228q0 -179 -126 -305t-304 -126q-179 0 -305 126
q-125 125 -125 305q0 179 125 304q126 126 305 126q121 0 228 -67l296 295l134 -134zM1340 1627q-99 0 -168 -69q-70 -70 -70 -168t70 -171q68 -71 168 -71t168 71q69 72 69 171t-69 168t-168 69z" />
</svg>