<svg xmlns="http://www.w3.org/2000/svg" xmlns:xlink="http://www.w3.org/1999/xlink" version="1.1" viewBox="-10 0 2062 2048">
   <path fill="currentColor"
d="M1420 841l-106 101l-211 -206l106 -106q15 -15 38 -15q24 0 39 15l134 130q15 15 15 38q0 24 -15 43zM618 1221l427 -433l212 217l-428 428h-211v-212zM1127 0v202q220 28 396 161q177 133 260 334q84 203 60 423q-39 279 -235 478q-198 201 -481 234v206
q277 -33 497 -194q219 -160 330 -411q110 -248 81 -529q-24 -236 -149 -433q-126 -198 -324 -322q-200 -125 -435 -149zM925 0q-307 28 -548 226l145 154q180 -141 403 -169v-206v-5zM233 375q-198 237 -226 548h202q33 -225 168 -404zM7 1125q28 307 226 548l144 -144
q-139 -182 -163 -404h-207zM522 1678l-145 139q242 198 548 231v-202q-220 -28 -403 -168z" />
</svg>