<svg xmlns="http://www.w3.org/2000/svg" xmlns:xlink="http://www.w3.org/1999/xlink" version="1.1" viewBox="-10 0 2068 2048">
   <path fill="currentColor"
d="M1868 1038q-22 0 -36 14l-102 100l202 198l96 -96q20 -15 20 -36q0 -23 -20 -38l-124 -128q-18 -14 -36 -14zM1674 1208l-598 594v202h204l598 -594zM888 1718q-18 -8 -56 -8q-110 0 -188 78t-78 188v28h-372q-78 0 -136 -58q-58 -56 -58 -136v-372h28q110 0 188 -78
t78 -188q0 -112 -78 -190t-188 -78h-28v-372q0 -80 57 -137t137 -57h298q18 -128 116 -212q96 -82 224 -82q130 0 226 82q98 84 116 212h298q80 0 137 57t57 137v298q42 9 100 32q-46 25 -78 52l-106 110h-110v-492h-492v-148q0 -60 -44 -104t-104 -44q-58 0 -102 44
t-44 104v148h-492v212q134 51 214 164q80 115 80 264q0 147 -80 262q-81 115 -214 166v210h212q51 -134 164 -214q115 -80 262 -80q117 0 208 46z" />
</svg>