<svg xmlns="http://www.w3.org/2000/svg" xmlns:xlink="http://www.w3.org/1999/xlink" version="1.1" viewBox="-10 0 2068 2048">
   <path fill="currentColor"
d="M1560 1266h-1170l-390 388v-1558q0 -41 28 -69q28 -27 68 -27h1464q40 0 68 27q28 28 28 69v1074q0 40 -28 68t-68 28zM2048 681v1367l-392 -394h-1070q-40 0 -70 -27t-30 -69v-96h1366v-877h96q40 0 70 27q30 26 30 69zM604 192q-129 0 -206 59q-78 60 -78 174h192
q0 -41 28 -64t68.5 -23t65.5 27q26 28 26 73q0 46 -20 78q-23 34 -62 60q-72 50 -102 89t-30 112h196q0 -45 14 -73q14 -29 50 -51q70 -37 110 -91q40 -56 40 -124q0 -114 -80 -180q-79 -66 -212 -66zM486 877v192h196v-192h-196zM1070 1069h196v-192h-196v192zM1070 192
v585h196v-585h-196z" />
</svg>