<svg xmlns="http://www.w3.org/2000/svg" xmlns:xlink="http://www.w3.org/1999/xlink" version="1.1" viewBox="-10 0 2058 2048">
   <path fill="currentColor"
d="M1024 0q130 0 219 89t89 216t-89 219q-88 91 -219 91t-219 -91t-88 -219t88 -216q89 -89 219 -89zM1846 1639l-207 -557q-33 -96 -62 -145q-48 -67 -144 -120q-107 -53 -197 -77q-92 -24 -212.5 -24t-208.5 24q-85 23 -199 77q-92 48 -140 120q-27 41 -67 140l-207 562
q-15 77 140 178q104 72 291 152q183 79 391 79q205 0 399 -82q181 -76 288 -149q150 -102 135 -178zM1375 1586l-351 361l-351 -361q-57 -63 -57 -149t60 -146t144 -60t146 62l58 58l58 -63q63 -57 146 -57q84 0 144 60q61 61 61 149t-58 146z" />
</svg>