<svg xmlns="http://www.w3.org/2000/svg" xmlns:xlink="http://www.w3.org/1999/xlink" version="1.1" viewBox="-10 0 2068 2048">
   <path fill="currentColor"
d="M1692 0h-1336q-146 0 -250 106q-106 106 -106 250v1336q0 144 106 250q104 106 250 106h1076l616 -615v-1077q0 -142 -106 -250q-105 -106 -250 -106zM1846 1332h-154q-152 0 -256 105q-104 107 -104 255v154h-942q-78 0 -132 -55q-56 -56 -56 -132v-1270q0 -76 56 -132
q54 -55 132 -55h1278q76 0 131 55t55 132v943h-8zM1350 635l154 153l-614 616l-356 -361l154 -154l202 207z" />
</svg>