<svg xmlns="http://www.w3.org/2000/svg" xmlns:xlink="http://www.w3.org/1999/xlink" version="1.1" viewBox="-10 0 2063 2048">
   <path fill="currentColor"
d="M1029 0q-273 0 -509 137t-373 370t-137 507t140 510l-145 524l539 -139q227 125 485 125q274 0 507 -137q232 -136 370 -371q137 -233 137 -512q0 -201 -77 -387q-77 -185 -219 -329q-144 -146 -329 -221q-189 -77 -389 -77zM1029 168q166 0 322 65q153 64 274 185
t185 274q65 156 65 322q0 230 -116 426q-115 195 -310 307q-196 113 -425 113q-232 0 -428 -120l-28 -14l-318 82l82 -313l-19 -29q-130 -209 -130 -452q0 -230 116 -423q115 -192 307 -307q193 -116 423 -116zM669 543q-39 0 -68 34l-5 5q-86 90 -86 206q0 115 101 255
l9 19q197 275 428 371q73 36 142 55q75 21 166 12q37 -8 96 -46q57 -36 72 -77q14 -38 19 -74q5 -35 -2 -43q-8 -9 -41 -29l-96 -48q-73 -36 -87 -39q-22 -5 -31 -5q-11 0 -26 20q-17 25 -77 96q-24 24 -58 9l-14 -9q-111 -43 -188 -116t-144 -178q-14 -28 10 -52
q8 -8 38 -41q15 -16 24 -36l5 -10q9 -20 -5 -43l-77 -188q-15 -29 -24 -36q-8 -7 -29 -7z" />
</svg>