<svg xmlns="http://www.w3.org/2000/svg" xmlns:xlink="http://www.w3.org/1999/xlink" version="1.1" viewBox="-10 0 2058 2048">
   <path fill="currentColor"
d="M1024 1389q-150 0 -258 -108q-106 -107 -106 -257t107 -257t257 -107t257 107t107 257t-108 257q-108 108 -256 108zM1636 1063q-42 -26 -76 -39q38 -15 76 -38q128 -72 202 -199q72 -125 72 -272q-124 -73 -272 -75q-146 -2 -276 75q-31 15 -72 47q8 -39 8 -86
q0 -150 -76 -276q-75 -127 -198 -200q-124 73 -200 200q-74 126 -74 276q0 42 8 86q-41 -32 -72 -47q-130 -77 -276 -75q-148 2 -272 75q0 141 72 269q74 130 202 202q32 18 76 38q-33 12 -76 35q-127 75 -202 203q-72 125 -72 272q123 73 272 73q147 0 276 -73
q31 -15 72 -47q-8 43 -8 86q0 150 74 276q75 126 200 199q124 -73 198 -199q76 -126 76 -276q0 -47 -8 -86q38 28 72 47q130 76 276 75q148 -2 272 -75q0 -147 -72 -272q-74 -127 -202 -199z" />
</svg>