<svg xmlns="http://www.w3.org/2000/svg" xmlns:xlink="http://www.w3.org/1999/xlink" version="1.1" viewBox="-10 0 2068 2048">
   <path fill="currentColor"
d="M888 972v1052h-208v-840h-212v-212h420zM1732 1184v632q0 84 -62 146t-150 62h-208q-88 0 -150 -62t-62 -146v-632q0 -90 62 -150q62 -62 150 -62h208q88 0 150 62t62 150zM1312 1184v632h208v-632h-208zM1046 24q208 0 392 72q188 74 338 200l272 -272v736h-736
l276 -276q-235 -198 -542 -198q-279 0 -496 162q-220 165 -304 420l-246 -84q108 -335 398 -548q288 -212 648 -212z" />
</svg>