<svg xmlns="http://www.w3.org/2000/svg" xmlns:xlink="http://www.w3.org/1999/xlink" version="1.1" viewBox="-10 0 2058 2048">
   <path fill="currentColor"
d="M884 669h186v571h-186v-571zM1262 0h-570v192h570v-192zM978 1811q-183 0 -336 -89t-240 -243q-90 -155 -90 -335q0 -179 90 -334q88 -155 240 -244q153 -89 336 -89q165 0 306 76q146 78 238 208q93 133 116 292q110 5 196 44q-19 -277 -188 -486l134 -138
q-71 -80 -134 -134l-134 138q-111 -89 -250 -140q-140 -52 -284 -52q-231 0 -428 116q-198 116 -314 313t-116 428q0 232 116 431q115 197 314 312q196 114 428 114q58 0 92 -5q-51 -82 -74 -183h-18zM1928 1669v-384l-112 111q-112 -111 -268 -111t-268 111
q-112 112 -112 270t112 270t268 112q120 0 216 -65q95 -64 136 -172h-160q-37 46 -84 69q-52 25 -108 25q-98 0 -167 -69t-69 -167t68 -170q69 -71 168 -71q98 0 170 71l-170 170h380z" />
</svg>