<svg xmlns="http://www.w3.org/2000/svg" xmlns:xlink="http://www.w3.org/1999/xlink" version="1.1" viewBox="-10 0 2068 2048">
   <path fill="currentColor"
d="M716 101l-188 207h-326q-82 0 -142 60t-60 142v1230q0 87 60 147t142 60h1644q82 0 142 -60t60 -147v-1230q0 -82 -60 -142t-142 -60h-328l-186 -207h-616zM1024 1639q-104 0 -194 -38q-95 -40 -166 -111q-73 -72 -114 -166q-40 -94 -40 -197t40 -197q41 -94 114 -166
q69 -70 166 -110q92 -39 194 -39q139 0 256 68q121 70 188 185q70 118 70 257t-70 257q-68 117 -188 188q-116 69 -256 69zM1024 1538l130 -283l278 -130l-278 -125l-130 -284l-130 284l-278 125l278 130z" />
</svg>