<svg xmlns="http://www.w3.org/2000/svg" xmlns:xlink="http://www.w3.org/1999/xlink" version="1.1" viewBox="-10 0 2058 2048">
   <path fill="currentColor"
d="M1740 716v-206q0 -82 -60 -142t-142 -60h-106v-308h-202v308h-106q-82 0 -142 60t-60 142v206q-86 0 -146 60t-60 147v101h-408q-86 0 -146 60t-60 147v817h306v-202h208v202h408v-202h206v202h202v-202h206v202h308v-1125q0 -87 -60 -147t-146 -60zM616 1639h-208v-206
h208v206zM1230 1639h-206v-206h206v206zM1230 1231h-206v-207h206v207zM1124 716v-206h414v206h-414zM1638 1639h-206v-206h206v206zM1638 1231h-206v-207h206v207z" />
</svg>