<svg xmlns="http://www.w3.org/2000/svg" xmlns:xlink="http://www.w3.org/1999/xlink" version="1.1" viewBox="-10 0 2068 2048">
   <path fill="currentColor"
d="M1818 1819h-452v229h452q96 0 164 -67q66 -66 66 -162v-454h-230v454zM1818 0h-452v229h452v454h230v-454q0 -96 -66 -162q-68 -67 -164 -67zM230 229h454v-229h-454q-96 0 -163 67t-67 162v454h230v-454zM230 1365h-230v454q0 95 67 162t163 67h454v-229h-454v-454z
M572 453q-96 0 -163 67t-67 163v912h230v-459h222v459h230v-912q0 -96 -67 -163t-163 -67h-222zM572 683h222v229h-222v-229zM1136 453v1142h230v-459h228v-224h-228v-229h340v-230h-570z" />
</svg>