<svg xmlns="http://www.w3.org/2000/svg" xmlns:xlink="http://www.w3.org/1999/xlink" version="1.1" viewBox="-10 0 2068 2048">
   <path fill="currentColor"
d="M824 1694l14 -14q-98 -24 -158 -106q-60 -83 -60 -190q0 -127 90 -218q90 -92 220 -92q101 0 183.5 63.5t110.5 160.5l634 -634v-210l-416 -410h-1238q-82 0 -142 60q-62 60 -62 148v1442q0 86 61 147t143 61h620v-208zM204 252h1036v412h-1036v-412zM1864 988
q-25 0 -44 14l-102 106l214 208l102 -102q14 -14 14 -38t-14 -38l-132 -136q-18 -14 -38 -14zM1656 1166l-624 626v212h212l624 -624z" />
</svg>