<svg xmlns="http://www.w3.org/2000/svg" xmlns:xlink="http://www.w3.org/1999/xlink" version="1.1" viewBox="-10 0 2058 2048">
   <path fill="currentColor"
d="M184 390l118 -119l1562 1563l-118 118l-119 -110q-102 98 -231 151q-133 55 -280 55q-202 0 -374 -100q-173 -101 -274 -274q-100 -172 -100 -374v-372h350l-188 -188h-162q0 -78 17 -149zM1024 0v740h-18l-468 -473q84 -106 213 -179q123 -70 273 -88zM1864 928v372
q0 125 -44 254l-630 -626h674zM1208 0q184 23 332 127q148 105 236 265q88 161 88 348h-656v-740z" />
</svg>