<svg xmlns="http://www.w3.org/2000/svg" xmlns:xlink="http://www.w3.org/1999/xlink" version="1.1" viewBox="-10 0 2068 2048">
   <path fill="currentColor"
d="M0 1024q0 -200 78 -392q75 -189 220.5 -334t333.5 -221q192 -77 392 -77t392 77q188 76 333.5 221t220.5 334q78 192 78 392t-78 392q-75 189 -220.5 334t-333.5 221q-192 77 -392 77t-392 -77q-188 -76 -333.5 -221t-220.5 -334q-78 -192 -78 -392zM870 1024
q0 62 46 108t108 46t108 -46t46 -108t-46 -108t-108 -46t-108 46t-46 108zM870 1586q0 67 46 111q44 43 107.5 43t108.5 -43q46 -44 46 -108q0 -65 -46 -111q-46 -45 -109 -45t-107 45q-46 46 -46 108zM870 461q0 63 46 109q44 45 107 45t109 -45q46 -46 46 -111
q0 -64 -46 -108q-45 -43 -108.5 -43t-107.5 43q-46 44 -46 110z" />
</svg>