<svg xmlns="http://www.w3.org/2000/svg" xmlns:xlink="http://www.w3.org/1999/xlink" version="1.1" viewBox="-10 0 2065 2048">
   <path fill="currentColor"
d="M1758 905v-28q0 -74 -14 -146q-13 -32 -50 -41q-18 -9 -32 -9h-196v-96q0 -60 -50 -87q-23 -9 -46 -9h-196v-101q0 -60 -50 -82q-24 -14 -46 -14h-100v-196q0 -60 -46 -83q-26 -13 -50 -13q-239 0 -440 118q-201 119 -320 320q-118 202 -118 439t118 439q119 201 320 320
q202 119 440 119h26q-26 -100 -26 -197v-36q-41 36 -102 36q-58 0 -99 -41t-41 -103q0 -61 40 -105q41 -43 106 -43q39 0 74 23t54 59q69 -208 246 -338q179 -133 402 -133q92 0 196 28zM346 973q-64 0 -105 -41t-41 -103q0 -61 42 -105q40 -43 102 -43t105 43t43 105
q0 63 -42 103q-45 41 -104 41zM640 585q-66 0 -107 -44t-41 -103q0 -58 41 -102t103 -44t106 44t44 102q0 59 -44 103t-102 44zM830 1074q-58 0 -102 -44t-44 -105q0 -62 44.5 -103t105.5 -41q62 0 103 41t41 103q0 61 -41 105t-107 44zM1922 1618v-96l110 -78
q19 -23 10 -32l-96 -164q0 -10 -32 -10l-114 51q-65 -43 -92 -51l-18 -128q0 -5 -6 -11q-8 -7 -12 -7h-196q-28 0 -28 18l-24 128l-76 51l-114 -51q-18 0 -32 10l-96 164q0 23 8 32l110 78v96l-110 78q-18 18 -8 32l96 164q13 9 32 9l114 -50q36 37 76 50l24 128
q18 19 28 19h196q4 0 12 -7q6 -6 6 -12l18 -128l78 -50l118 41q20 0 28 -9l100 -169q6 -5 6 -12q0 -6 -6 -6zM1562 1705q-55 0 -100 -44q-46 -44 -46 -100q0 -57 46 -103t102 -46t100 46t44 103q0 56 -44 100t-102 44z" />
</svg>