<svg xmlns="http://www.w3.org/2000/svg" xmlns:xlink="http://www.w3.org/1999/xlink" version="1.1" viewBox="-10 0 2068 2048">
   <path fill="currentColor"
d="M1090 1889l-66 63l-150 -135q-338 -305 -460 -433q-208 -212 -304 -375q-110 -186 -110 -375q0 -154 74 -283q75 -130 204 -205q128 -74 284 -74q133 0 256 58q118 56 206 153q86 -96 206 -153q123 -58 254 -58q157 0 284 74q130 75 204 205q76 131 76 283
q0 206 -140 423q-101 -48 -206 -57q144 -196 144 -366q0 -153 -104.5 -254t-257.5 -101q-120 0 -222 67q-104 67 -142 173h-192q-39 -106 -142 -173t-224 -67q-152 0 -256 101t-104 254q0 143 100 303q92 139 284 332q116 115 428 399l10 10l4 -5q9 114 62 216zM1854 1245
l-216 221l-216 -216l-144 144l216 216l-216 217l144 149l216 -221l216 221l150 -149l-222 -217l222 -216z" />
</svg>