<svg xmlns="http://www.w3.org/2000/svg" xmlns:xlink="http://www.w3.org/1999/xlink" version="1.1" viewBox="-10 0 2068 2048">
   <path fill="currentColor"
d="M852 940q-36 0 -60 24t-24 60t24 60t60 24t62 -24t26 -60t-26 -60t-62 -24zM896 172q136 0 220 48q76 43 94 114t-16 138q-35 69 -106 104q-109 53 -140 212q61 25 104 76q156 -84 308 -90q153 -6 250 70q98 77 98 224q0 137 -52 220q-41 73 -110 92q-72 20 -138 -14
q-69 -35 -104 -110q-56 -105 -216 -136q-25 61 -76 104q84 156 90 308q6 153 -70 248q-76 96 -220 96q-136 0 -220 -48q-76 -44 -96 -114q-20 -72 14 -138q35 -69 110 -104q105 -53 136 -208q-64 -28 -104 -80q-156 84 -308 90q-153 6 -248 -70q-96 -76 -96 -224
q0 -136 48 -220q44 -73 114 -92q72 -20 138 14q69 35 104 110q53 105 212 136q24 -64 76 -104q-84 -156 -90 -308q-6 -153 70 -248q76 -96 224 -96zM1876 1108v-512h172v512h-172zM1876 1452v-172h172v172h-172z" />
</svg>