<svg xmlns="http://www.w3.org/2000/svg" xmlns:xlink="http://www.w3.org/1999/xlink" version="1.1" viewBox="-10 0 2058 2048">
   <path fill="currentColor"
d="M1692 1231q106 0 180 74q74 75 74 180q0 106 -74 181q-74 74 -182 74q-110 0 -184 -74t-74 -181q0 -106 74 -180t186 -74zM510 1332q7 7 14.5 14t13.5 14q31 41 48 77q30 53 30 101v356q0 63 44 108q46 46 106 46q59 0 108 -46q48 -45 48 -108v-356q0 -48 24 -101
q18 -36 48 -77l30 -28h-514zM616 1231h306l78 -10q98 -15 178 -58q109 -52 178 -149q76 -121 76 -298q0 -240 -116 -413q-97 -151 -264 -231q-144 -72 -286 -72t-286 72q-161 80 -264 231q-114 172 -114 413q0 227 134 361q90 95 244 134q79 20 136 20z" />
</svg>