<svg xmlns="http://www.w3.org/2000/svg" xmlns:xlink="http://www.w3.org/1999/xlink" version="1.1" viewBox="-10 0 2058 2048">
   <path fill="currentColor"
d="M616 510l-207 -510l409 202l206 -202l207 202l408 -202l-206 510h-817zM1433 2048h-817q-175 0 -293 -43q-97 -33 -154 -101q-48 -52 -63 -120q-14 -44 -9 -101l5 -44l24 -115q28 -140 76 -269q66 -176 159 -308q111 -159 255 -231h817q142 71 254 231q92 132 159 308
q49 135 77 269l24 115l5 44q4 54 -10 101q-15 68 -63 120q-58 68 -153 101q-119 43 -293 43zM563 1077q0 63 45 108q46 46 109 46q62 0 108 -46q45 -45 45 -111q0 -64 -45 -108q-45 -43 -108 -43q-65 0 -109 43q-45 44 -45 111zM1485 1692q0 -67 -45 -110
q-46 -44 -108.5 -44t-107.5 44q-46 44 -46 108t46 110t108 46t108 -46q45 -45 45 -108zM1485 1058l-139 -135l-783 784l139 139z" />
</svg>