<svg xmlns="http://www.w3.org/2000/svg" xmlns:xlink="http://www.w3.org/1999/xlink" version="1.1" viewBox="-10 0 2058 2048">
   <path fill="currentColor"
d="M1341 985l4 -12.5t6 -20.5q9 -39 24 -63q29 -33 58 -33q49 0 120 86q36 41 62 87l-120 -19q-134 -25 -154 -25zM1740 274q-24 -44 -132 -87q-107 -43 -185 -43h-245l-29 -38q-40 -45 -86 -72q-74 -34 -154 -34q-115 0 -154 43q-24 28 -19 96v303l-87 87h-394l-29 29
q-32 32 -52 72q-29 64 -29 130q0 117 29 259q33 193 105 317q96 163 245 183q172 28 294 -5q85 -23 129 -77q34 -34 34 -57v-231l38 58q46 60 101 101q72 57 149 57q125 0 200 60q74 59 74 142v188l-5 29q-8 36 -29 57q-29 34 -76 34h-217l-33 -39q-34 -49 -34 -96
q0 -96 72 -96q34 0 77 5v-159h-53q-60 9 -110 29q-73 24 -116 72q-48 57 -48 144q0 169 101 250q81 63 202 63h226l38 -10q57 -21 101 -57q66 -51 120 -135q68 -108 101 -250q43 -166 43 -394q0 -456 -57 -692q-29 -132 -91 -212zM563 442h-332l414 -423v337z" />
</svg>