<svg xmlns="http://www.w3.org/2000/svg" xmlns:xlink="http://www.w3.org/1999/xlink" version="1.1" viewBox="-10 0 2068 2048">
   <path fill="currentColor"
d="M1812 1255v140h-138v-140h138zM1630 793h-140v-48q0 -117 82 -198q80 -80 196 -80t198 80q82 81 82 198q0 67 -32 127q-34 62 -90 96l-26 17q-88 61 -88 161v18h-138v-18q0 -82 38 -156q40 -74 110 -118l26 -18q60 -39 60 -109q0 -57 -41 -98t-99 -41q-60 0 -98 41
q-40 43 -40 98v48zM746 1116q141 0 304 43q188 48 302 122q138 91 138 210v278h-1490v-278q0 -118 140 -210q114 -74 300 -122q164 -43 306 -43zM746 279q152 0 262 109q108 108 108 264q0 155 -108 263q-110 109 -262 109t-261 -109t-109 -263q0 -155 109 -264t261 -109z
M746 1295q-133 0 -270 34q-121 34 -210 83q-86 48 -86 79v100h1132v-100q0 -31 -88 -79q-88 -49 -208 -83q-138 -34 -270 -34zM746 458q-82 0 -139 57t-57 137t57 137t139 57t140 -57q56 -56 56 -137t-56 -137q-58 -57 -140 -57z" />
</svg>