<svg xmlns="http://www.w3.org/2000/svg" xmlns:xlink="http://www.w3.org/1999/xlink" version="1.1" viewBox="-10 0 2068 2048">
   <path fill="currentColor"
d="M1375 2015h-19q-24 -5 -29 -24l-225 -595q-9 -20 0 -39.5t24 -23.5q116 -44 163 -153q49 -112 5 -223q-43 -113 -151.5 -161.5t-220.5 -4.5q-113 43 -161 154q-47 109 -2 225q45 115 165 159q20 4 27 24q7 17 2 38l-235 595q-4 18 -24 26q-18 7 -38 -2
q-257 -96 -430 -310q-169 -211 -213 -482q-43 -269 57 -528q100 -258 312 -429q211 -171 482 -214q270 -44 530 53q188 76 336 216q151 141 230 326q83 191 87 389q5 200 -68 394q-75 204 -230 359t-360 231h-14zM1025 134q-250 -9 -465 110q-217 120 -346 329t-134 458
q-4 282 149 523q153 238 417 350l197 -503q-138 -77 -187 -228q-48 -153 28 -293q77 -142 231 -187t292.5 31t186.5 228q48 150 -29 295q-57 101 -158 154l197 508q163 -76 290 -211q127 -134 194 -302q92 -235 55 -478q-35 -243 -187 -434q-151 -192 -381 -288
q-165 -67 -350 -62z" />
</svg>