<svg xmlns="http://www.w3.org/2000/svg" xmlns:xlink="http://www.w3.org/1999/xlink" version="1.1" viewBox="-10 0 2068 2048">
   <path fill="currentColor"
d="M2048 308l-91 134q41 28 67 76q24 45 24 98v356l-154 52l-158 -250q-10 -19 -27 -14q-16 4 -16 24v370q0 143 -106 260v634h-254v-510h-24q-20 0 -68 -10l-475 -76l-91 202l101 394h-269l-92 -380q-10 -40 5 -82l91 -202q-68 -48 -108.5 -120t-44.5 -158q-5 28 0 72v34
q9 99 5 154q-5 109 -77 196q-62 67 -149 110l-67 -66l4 -20q34 -83 34 -116q9 -50 -9 -96l-53 -114q-53 -121 -44 -216q0 -72 39 -148q38 -73 101 -116q128 -87 273 -54q78 16 149 68q57 -24 130 -24h586v-54q0 -168 120 -288t293 -120l355 -308l-101 308h101z" />
</svg>