<svg xmlns="http://www.w3.org/2000/svg" xmlns:xlink="http://www.w3.org/1999/xlink" version="1.1" viewBox="-10 0 2068 2048">
   <path fill="currentColor"
d="M1498 1564q163 41 278 51v161q-245 -15 -408 -86zM1906 0l-1906 1907l142 141l530 -529q252 227 564 350q314 124 650 124q46 0 76 -30t30 -76v-378q0 -51 -30 -78q-31 -28 -76 -28q-210 0 -388 -66h-36q-38 0 -70 31l-236 237q-216 -114 -338 -237l1230 -1226zM434 273
q12 121 50 277l-126 131q-71 -220 -86 -408h162zM540 56h-378q-46 0 -76 30t-30 76q0 591 344 1069l150 -151q-37 -51 -106 -187l238 -237q25 -19 30 -50q4 -31 -10 -56q-56 -216 -56 -388q0 -45 -28 -76q-26 -30 -78 -30z" />
</svg>