<svg xmlns="http://www.w3.org/2000/svg" xmlns:xlink="http://www.w3.org/1999/xlink" version="1.1" viewBox="-10 0 2068 2048">
   <path fill="currentColor"
d="M1818 1253h-224v-229h224v229zM1936 1824v224h-458v-224h116v-229h-116v-230h340v459h118zM1814 117q-21 -52 -64 -85q-43 -32 -102 -32h-1248q-58 0 -100 32q-44 33 -64 85l-236 683v907q0 47 32 82t80 35h118q48 0 80 -35t32 -82v-112h570q0 -219 106 -400
q107 -181 288 -288q183 -107 400 -107q181 0 342 75v-75zM400 1253q-75 0 -122 -50q-48 -51 -48 -120t48 -120t120 -51t123 51t51 120t-52 120q-50 50 -120 50zM230 683l170 -512h1248l170 512h-1588z" />
</svg>