<svg xmlns="http://www.w3.org/2000/svg" xmlns:xlink="http://www.w3.org/1999/xlink" version="1.1" viewBox="-10 0 2068 2048">
   <path fill="currentColor"
d="M2008 1505l-898 -1457q-28 -48 -86 -48t-86 48l-900 1452q-38 66 -38 139q0 159 178 265q254 144 846 144q404 0 658 -67q366 -107 366 -342q0 -71 -40 -134zM1024 298l614 990q-250 -57 -614.5 -57t-615.5 57zM1024 1846q-218 0 -412 -29q-186 -28 -300 -74
q-110 -45 -110 -104q0 -58 110 -103q118 -48 300 -75q188 -28 411.5 -28t410.5 28q183 27 300 75q112 45 112 103q0 59 -112 104q-113 46 -300 74q-193 29 -410 29z" />
</svg>