<svg xmlns="http://www.w3.org/2000/svg" xmlns:xlink="http://www.w3.org/1999/xlink" version="1.1" viewBox="-10 0 2068 2048">
   <path fill="currentColor"
d="M230 0q-96 0 -163 67t-67 162v1590q0 95 67 162t163 67h1588q96 0 164 -67q66 -66 66 -162v-1590q0 -96 -66 -162q-68 -67 -164 -67h-1588zM454 683h340q55 0 86 34q32 35 32 78v570h-170v-170h-230v170h-170v-570q0 -43 32 -78q31 -34 80 -34zM1136 683h400q74 0 122 48
t48 122v112q0 55 -28 96q-32 44 -72 64l100 240h-170l-96 -229h-134v229h-170v-682zM512 853v171h230v-171h-230zM1306 853v112h230v-112h-230z" />
</svg>