<svg xmlns="http://www.w3.org/2000/svg" xmlns:xlink="http://www.w3.org/1999/xlink" version="1.1" viewBox="-10 0 2068 2048">
   <path fill="currentColor"
d="M408 1024h-408q0 -278 138 -514q137 -237 372 -373q236 -137 513.5 -137t514.5 137q236 137 372 373q138 236 138 514t-138 514q-136 236 -372 373q-237 137 -514 137v-409h-408v-408h408v408q167 0 310 -81q141 -80 222 -224q82 -144 82 -310t-82 -310
q-81 -144 -222 -224q-143 -81 -310.5 -81t-309.5 81q-142 80 -224 224t-82 310zM616 1639v308h-308v-308h308zM102 1433h206v206h-206v-206z" />
</svg>