<svg xmlns="http://www.w3.org/2000/svg" xmlns:xlink="http://www.w3.org/1999/xlink" version="1.1" viewBox="-10 0 2068 2048">
   <path fill="currentColor"
d="M1024 2048q-200 0 -392 -77q-188 -76 -333.5 -221t-220.5 -334q-78 -192 -78 -392t78 -392q75 -189 220.5 -334t333.5 -221q192 -77 392 -77t392 77q188 76 333.5 221t220.5 334q78 192 78 392t-78 392q-75 189 -220.5 334t-333.5 221q-192 77 -392 77zM1024 1846
q220 0 410 -111q190 -110 300 -300q112 -191 112 -411t-112 -411q-111 -191 -299.5 -301t-411 -110t-411 110t-300.5 301q-110 191 -110 411t110 411q111 190 300 300q191 111 412 111zM1024 923q42 0 71 29t29 72t-29 72t-72 29t-72 -29t-29 -72t29 -72t73 -29zM1024 615
q202 0 370 111q168 112 244 298q-67 168 -208 274q-143 106 -320 130q-179 24 -342 -43q-121 -51 -216 -147q-90 -92 -144 -214q77 -186 246 -298q168 -111 370 -111zM1024 769q-106 0 -181 75t-75 180t75 180t180 75t180 -75t75 -180t-75 -180t-179 -75z" />
</svg>