<svg xmlns="http://www.w3.org/2000/svg" xmlns:xlink="http://www.w3.org/1999/xlink" version="1.1" viewBox="-10 0 2068 2048">
   <path fill="currentColor"
d="M2048 1925l-1924 -1925l-124 124l544 544l-18 41h-344l-96 196h394q-4 28 -4 96t4 96h-298l-96 197h440q91 261 317.5 423t508.5 162q170 0 334 -69l238 238zM726 1097q-8 -51 -8 -96t8 -96h50l198 192h-248zM1352 1637q-175 0 -328 -94q-151 -92 -234 -249h380l324 324
q-82 19 -142 19zM1078 709h370l-96 196h-78zM914 544l-174 -174q123 -114 282 -180q157 -66 326 -66q171 0 320 59q151 60 270 165l-174 173q-178 -155 -412 -155q-122 0 -234 48t-204 130z" />
</svg>