<svg xmlns="http://www.w3.org/2000/svg" xmlns:xlink="http://www.w3.org/1999/xlink" version="1.1" viewBox="-10 0 2058 2048">
   <path fill="currentColor"
d="M1740 1433q0 131 -44 250q-42 118 -124 211q66 67 66 154h-1230q0 -87 68 -154q-83 -93 -126 -211q-42 -119 -42 -250h-206q0 -93 40 -176q41 -86 108 -142q122 -89 190 -218q70 -134 70 -282v-105q0 -138 70 -258q67 -116 186 -185q117 -67 257.5 -67t256.5 67
q121 70 188 185q70 118 70 258v105q0 148 70 282q67 129 190 218q66 56 108 142q40 85 40 176h-206zM1432 1433q0 -168 -120 -289q-120 -120 -288 -120t-288 120t-120 291t120 291t288 120t288 -120q120 -121 120 -293zM818 716l206 154l206 -154l-206 -154zM818 308
q-46 0 -74 28t-28 73q0 44 28 72q30 29 74 29q41 0 74 -29q30 -28 30 -72q0 -45 -30.5 -73t-73.5 -28zM1230 308q-44 0 -75 28t-31 73q0 44 32 72q32 29 75 29t72 -29t29 -72q0 -44 -30 -73q-28 -28 -72 -28z" />
</svg>