<svg xmlns="http://www.w3.org/2000/svg" xmlns:xlink="http://www.w3.org/1999/xlink" version="1.1" viewBox="-10 0 2068 2048">
   <path fill="currentColor"
d="M510 2048h-232l-18 -5q-23 -8 -44 -34q-25 -41 -34 -96l-182 -1759q0 -68 60 -111t144.5 -43t143.5 43q60 43 60 111q0 -68 60 -111t144.5 -43t143.5 43q62 44 62 111q0 -68 60 -111q59 -43 146 -43t146 43q60 43 60 111q0 -68 60 -111t144.5 -43t143.5 43q60 43 60 111
q0 -68 60 -111t144 -43q86 0 146 43t60 111l-184 1759q-15 89 -58 121q-18 14 -38 14h-1258zM1624 298q-23 -43 -74 -70q-50 -26 -116 -26q-68 0 -122 26q-58 27 -82 65l-24 1553h294zM818 293q-23 -37 -82 -65q-55 -26 -124 -26q-65 0 -114 26q-52 27 -76 70l126 1548h294z
" />
</svg>