<svg xmlns="http://www.w3.org/2000/svg" xmlns:xlink="http://www.w3.org/1999/xlink" version="1.1" viewBox="-10 0 2068 2048">
   <path fill="currentColor"
d="M1024 0q200 0 392 77q188 76 333.5 221t220.5 334q78 192 78 392t-78 392q-75 189 -220.5 334t-333.5 221q-192 77 -392 77t-392 -77q-188 -76 -333.5 -221t-220.5 -334q-78 -192 -78 -392t78 -392q75 -189 220.5 -334t333.5 -221q192 -77 392 -77zM1076 923
q-68 0 -111 43t-43 108q0 67 44 111q44 46 108 46t110 -46t46 -111q0 -64 -46 -108q-44 -43 -108 -43zM1024 308q-86 0 -146 60t-60 144t60 144t146 60t146 -60t60 -144t-60 -144t-146 -60zM404 663q-43 75 -22 159q22 83 93.5 123t156.5 19q84 -21 124 -96q42 -76 21 -157
t-95 -122q-71 -40 -154 -19q-81 21 -124 93z" />
</svg>