<svg xmlns="http://www.w3.org/2000/svg" xmlns:xlink="http://www.w3.org/1999/xlink" version="1.1" viewBox="-10 0 2058 2048">
   <path fill="currentColor"
d="M1024 1385q0 151 106 360q72 144 192 303h-1014q-86 0 -146 -60q-61 -61 -61 -142v-1644q0 -81 61 -142q60 -60 146 -60h101v716l259 -154l255 154v-716h615q87 0 147 60t60 142v639q-81 -24 -154 -24q-153 0 -283 77q-131 78 -207 207q-77 131 -77 284zM1947 1385
q0 164 -178 432q-93 137 -178 231l-96 -111q-107 -142 -173 -264q-91 -172 -91 -288q0 -149 105 -255t253 -106q147 0 252 106q106 108 106 255zM1711 1394q0 -48 -38 -86q-39 -39 -84 -39t-84 36t-39 87q0 50 36 86t89 36t91 -38t29 -82z" />
</svg>