<svg xmlns="http://www.w3.org/2000/svg" xmlns:xlink="http://www.w3.org/1999/xlink" version="1.1" viewBox="-10 0 2068 2048">
   <path fill="currentColor"
d="M1024 0q-278 0 -514 137q-235 136 -372 373q-138 236 -138 514t138 514q137 237 372 373q236 137 513.5 137t514.5 -137q236 -137 372 -373q138 -236 138 -514t-138 -514q-136 -236 -372 -373q-237 -137 -514 -137zM1432 1375q0 28 -15 43t-43 15h-702q-28 0 -42 -15
q-14 -14 -14 -43v-43h816v43zM1432 1231h-816l-106 -616l308 202l206 -307l206 307l308 -202z" />
</svg>