<svg xmlns="http://www.w3.org/2000/svg" xmlns:xlink="http://www.w3.org/1999/xlink" version="1.1" viewBox="-10 0 2068 2048">
   <path fill="currentColor"
d="M1738 1596q70 -107 70 -240q0 -189 -132 -320q-132 -132 -320 -132t-320 132t-132 320t132 320t320 132q127 0 236 -71l314 311l142 -141zM1356 1606q-104 0 -178 -73q-76 -74 -76 -177t76 -177q73 -72 178 -72q104 0 176 72q74 73 74 177t-73 177t-177 73zM302 1709
v-805h-302l1004 -904l1002 904h-180q-94 -94 -214 -148t-256 -54q-181 0 -330 89q-150 90 -236 238q-88 149 -88 327q0 193 104 353h-504z" />
</svg>