<svg xmlns="http://www.w3.org/2000/svg" xmlns:xlink="http://www.w3.org/1999/xlink" version="1.1" viewBox="-10 0 2068 2048">
   <path fill="currentColor"
d="M1364 1144q134 0 218 -34q114 -48 114 -158q0 -12 -4 -34l-78 -351q-14 -63 -42 -91q-33 -39 -126 -84q-100 -50 -216 -94q-139 -48 -188 -48q-29 0 -72 38q-43 39 -80 39t-101.5 -29t-92.5 -29q-90 0 -138 135l-106 293v19q0 58 120 154q135 111 322 183q229 91 470 91z
M1716 1019q18 85 18 106q0 115 -108 178q-106 62 -280 62q-243 0 -472 -86q-203 -75 -340 -193q-136 -116 -136 -211q0 -43 16 -82q-177 9 -274 53q-140 57 -140 197q0 164 230 346q223 174 554 289q346 120 652 120q332 0 490 -130q122 -101 122 -264q0 -106 -88 -212
q-86 -106 -244 -173z" />
</svg>