<svg xmlns="http://www.w3.org/2000/svg" xmlns:xlink="http://www.w3.org/1999/xlink" version="1.1" viewBox="-10 0 2058 2048">
   <path fill="currentColor"
d="M1024 202q115 0 250 192q130 180 221 435t91 450q0 154 -74 283q-75 130 -204 207q-130 77 -284 77q-153 0 -283 -77q-131 -77 -205 -207q-74 -129 -74 -283q0 -195 91 -450t221 -435q135 -192 250 -192zM1024 0q-197 0 -389 236q-163 207 -274 524q-106 301 -106 519
q0 211 104 387t281 279q178 103 384 103q207 0 385 -103q177 -103 281 -279q103 -175 103 -387q0 -218 -106 -519q-111 -317 -274 -524q-192 -236 -389 -236z" />
</svg>