<svg xmlns="http://www.w3.org/2000/svg" xmlns:xlink="http://www.w3.org/1999/xlink" version="1.1" viewBox="-10 0 2058 2048">
   <path fill="currentColor"
d="M1026 0q-136 0 -242 80q-104 79 -142 206q-78 -37 -168 -37q-164 0 -281 117t-117 286q0 136 84 244q82 106 216 140v712h1296v-712q137 -33 218 -140q82 -107 82 -244q0 -169 -117 -286t-281 -117q-86 0 -168 37q-38 -126 -144 -206q-105 -80 -236 -80zM974 900h100v699
h-100v-699zM674 1102h100v497h-100v-497zM1274 1102h98v497h-98v-497zM376 1852v98q0 42 28 70t70 28h1100q42 0 70 -28t28 -70v-98h-1296z" />
</svg>