<svg xmlns="http://www.w3.org/2000/svg" xmlns:xlink="http://www.w3.org/1999/xlink" version="1.1" viewBox="-10 0 2058 2048">
   <path fill="currentColor"
d="M334 521q-28 -28 -28 -68q0 -42 30 -69t69 -27t67 27l690 553q58 55 58 137q0 83 -57 140t-139 57q-81 0 -136 -60zM1024 1856q210 0 390 -105q181 -105 286 -286q106 -180 106 -391q0 -159 -62 -301q-64 -145 -166 -252l136 -137q134 138 208 315q76 179 76 373
q0 196 -74 375q-74 183 -209.5 318t-318.5 210q-178 73 -372 73t-372 -73q-181 -74 -318 -210q-135 -135 -210 -318q-74 -181 -74 -373h192q0 211 106 391q105 181 286 286q180 105 390 105zM1024 0q82 0 139 57t57 140q0 82 -57 139t-139 57t-139 -57t-57 -139
q0 -83 57 -140t139 -57z" />
</svg>