<svg xmlns="http://www.w3.org/2000/svg" xmlns:xlink="http://www.w3.org/1999/xlink" version="1.1" viewBox="-10 0 2068 2048">
   <path fill="currentColor"
d="M1922 1228v-154q0 -105 -88 -180q-88 -74 -198 -74q-112 0 -198 74t-86 180v154q-48 0 -86 38t-38 87v359q0 53 38 91q38 39 86 39h562q52 0 92 -36q42 -36 42 -84v-360q0 -52 -40 -93q-39 -41 -86 -41zM1788 1228h-306v-154q0 -56 46 -93q44 -36 110 -36q64 0 108 36
q42 36 42 93v154zM0 921v-202h1228v202h-1228zM0 206h1842v206h-1842v-206zM0 1434v-206h614v206h-614z" />
</svg>