<svg xmlns="http://www.w3.org/2000/svg" xmlns:xlink="http://www.w3.org/1999/xlink" version="1.1" viewBox="-10 0 2065 2048">
   <path fill="currentColor"
d="M717 513q-129 0 -218 87q-88 87 -88 218q0 133 88 221t218 88q101 0 178 -57t110 -149h225v206h202v-206h206v-206h-633q-32 -90 -110 -146q-77 -56 -178 -56zM717 921q-47 0 -74 -29q-26 -27 -26 -74t26 -74q27 -29 74 -29q48 0 75 29q26 27 26 74t-26 74q-27 29 -75 29
zM1331 1741q0 -42 -29 -74q-28 -31 -72 -31h-105v-202h614q86 0 146 -60t60 -146v-820q0 -82 -60 -142t-146 -60h-614l-201 -206h-614q-86 0 -146 60t-60 146v1022q0 86 60 146t146 60h614v202h-106q-44 0 -72 31q-29 32 -29 74h-714v202h714q0 42 29 74q28 31 72 31h412
q44 0 72 -31q29 -32 29 -74h714v-202h-714zM310 1228v-820h1429v820h-1429z" />
</svg>