<svg xmlns="http://www.w3.org/2000/svg" xmlns:xlink="http://www.w3.org/1999/xlink" version="1.1" viewBox="-10 0 2064 2048">
   <path fill="currentColor"
d="M833 1636q15 117 62 206h-685q-86 0 -146 -60t-60 -146v-1430q0 -86 60 -146t146 -60h1227l408 408v484q-89 -47 -206 -62v-341l-283 -283h-1146v1430h623zM924 921q-129 0 -218 89t-89 218q0 101 56 178t151 110q5 -170 76 -310t197 -232q-88 -53 -173 -53zM1231 715
v-408h-920v408h920zM2027 1698l-101 173q-8 14 -29 14l-124 -43l-82 53l-19 129q0 10 -7 17t-17 7h-201q-10 0 -34 -24l-19 -129q-39 -18 -81 -53l-125 53q-19 0 -29 -10l-101 -177q-9 -10 10 -29l110 -82v-105l-110 -82q-10 -10 -10 -28l101 -173q10 -10 29 -10l125 48
l81 -48l19 -134q0 -19 34 -19h201q9 0 17 5q7 4 7 14l19 134q28 9 91 48l125 -48q29 0 29 10l105 173q9 9 -14 28l-110 82v105l110 82q9 0 9 7q0 8 -9 12zM1691 1535q0 -63 -45 -108t-108 -45t-108 45q-46 46 -46 108t46 108t108 46t108 -46q45 -45 45 -108z" />
</svg>