<svg xmlns="http://www.w3.org/2000/svg" xmlns:xlink="http://www.w3.org/1999/xlink" version="1.1" viewBox="-10 0 2068 2048">
   <path fill="currentColor"
d="M1024 852h256v-168h-256v-88q0 -36 -24 -60t-62 -24t-62 24t-24 60v880q-36 20 -60 60t-24 84q0 72 50 122t120 50t120 -50t50 -122q0 -44 -22 -84q-23 -41 -62 -60v-280h256v-172h-256v-172zM2048 1024q0 208 -78 396q-79 189 -222 328l-92 -92q123 -123 194 -288
q70 -162 70 -344t-70 -344q-71 -165 -194 -288l92 -92q143 139 222 328q78 188 78 396zM128 1024q0 182 70 344q71 165 194 288l-92 92q-143 -139 -222 -328q-78 -188 -78 -396t78 -396q79 -189 222 -328l92 92q-123 123 -194 288q-70 162 -70 344zM1792 1024
q0 223 -116 408q-115 184 -312 280v-200q121 -80 188 -210q68 -131 68 -278q0 -159 -80 -298q-80 -138 -218 -218q-139 -80 -298 -80t-298 80q-138 80 -218 218q-80 139 -80 298q0 147 68 278q67 130 188 210v200q-197 -96 -312 -280q-116 -185 -116 -408q0 -208 104 -384
t280 -280t384 -104t384 104t280 280t104 384z" />
</svg>