<svg xmlns="http://www.w3.org/2000/svg" xmlns:xlink="http://www.w3.org/1999/xlink" version="1.1" viewBox="-10 0 2058 2048">
   <path fill="currentColor"
d="M606 0q-148 0 -251 103t-103 249t103 249t251 103h158q63 0 112 30h212q-44 -84 -132 -133q-90 -50 -192 -50h-158q-79 0 -138 -64q-58 -65 -58 -145q0 -83 56 -133q56 -51 140 -51v-158zM1112 54q0 80 -56 136t-136 56v158q149 0 262 93q113 94 148 237h156
q-19 -142 -106 -256q-86 -113 -214 -178q104 -104 104 -246h-158zM80 891v212h212v733q0 89 60 150q62 62 146 62h1052q84 0 146 -62t62 -150v-733h210v-212h-1888zM498 1103h1052v733h-1052v-733z" />
</svg>