<svg xmlns="http://www.w3.org/2000/svg" xmlns:xlink="http://www.w3.org/1999/xlink" version="1.1" viewBox="-10 0 2058 2048">
   <path fill="currentColor"
d="M1096 1331q0 80 -56 136t-136 56t-136 -56q-55 -55 -55 -136t55 -136t136 -55t136 55q56 56 56 136zM335 1808v-953h1139v294q58 -9 95 -9t96 9v-294q0 -77 -55 -132t-136 -55h-94v-192q0 -129 -64 -238q-64 -110 -174 -174q-109 -64 -238 -64t-238 64q-108 64 -173 174
t-65 238h191q0 -119 83 -202t202 -83q120 0 203 83q82 82 82 202v192h-854q-81 0 -136 55q-56 56 -56 132v953q0 75 56 131q55 55 136 55h743q-53 -82 -71 -186h-672zM1905 1509l-133 -133l-205 200l-200 -200l-134 133l201 201l-201 204l134 134l200 -205l205 205l133 -134
l-204 -204z" />
</svg>