<svg xmlns="http://www.w3.org/2000/svg" xmlns:xlink="http://www.w3.org/1999/xlink" version="1.1" viewBox="-10 0 2068 2048">
   <path fill="currentColor"
d="M636 265l-156 -160q229 -77 580 -77q164 0 320 18q237 31 374 110q184 96 184 260v1152l-288 -288q48 13 92 37v-631q-198 101 -568 119l-192 -192h78q181 0 342 -28q154 -27 248 -71q92 -44 92 -98t-92 -98q-94 -44 -248 -71q-156 -27 -342 -27q-232 0 -424 45z
M2048 1925l-124 123l-192 -187q-137 69 -366 96q-151 18 -310 18q-160 0 -316 -18q-237 -32 -374 -110q-184 -96 -184 -261v-1170q0 -37 20 -91l-202 -201l124 -124zM380 1317q137 -69 370 -101q151 -18 310 -18h10l-426 -430q-161 -32 -264 -82v631zM1586 1710l-312 -311
q-114 -9 -214 -9q-186 0 -342 27q-154 27 -248 71q-90 43 -90 98q0 56 90 99q94 44 248 71q156 27 342 27q321 0 526 -73z" />
</svg>