<svg xmlns="http://www.w3.org/2000/svg" xmlns:xlink="http://www.w3.org/1999/xlink" version="1.1" viewBox="-10 0 2068 2048">
   <path fill="currentColor"
d="M1024 101q-281 0 -514 110q-237 111 -372 301q-138 191 -138 411q0 161 74 308q75 148 210 254q0 68 -48 164q-77 144 -236 298l58 -5q75 -9 158 -29q109 -28 216 -77q128 -59 232 -144q187 48 360 48q280 0 514 -110q237 -112 372 -298q138 -188 138 -409
q0 -220 -138 -411q-135 -189 -372 -301q-234 -110 -514 -110zM1124 1332h-202v-207h202v207zM1312 817q-32 42 -116 82q-38 28 -48 53q-14 15 -18 29q-6 17 -6 43h-202q0 -67 30 -111q37 -37 114 -86q40 -15 60 -53q22 -41 22 -75q0 -36 -30 -64q-33 -29 -84 -29
q-30 0 -72 19q-30 15 -30 62h-206q19 -113 92 -177q68 -49 216 -49t228 63q78 63 78 173q15 63 -28 120z" />
</svg>