<svg xmlns="http://www.w3.org/2000/svg" xmlns:xlink="http://www.w3.org/1999/xlink" version="1.1" viewBox="-10 0 2068 2048">
   <path fill="currentColor"
d="M1630 1274v-206h114l90 206h152l-90 -214q40 -16 64 -56q26 -41 26 -88v-98q0 -62 -45 -107t-107 -45h-356v498l114 110h38zM1630 818h204v98h-204v-98zM1174 818v42l152 152v-194q0 -62 -46 -108q-44 -44 -106 -44h-190l152 152h38zM822 718l-712 -714l-110 106l556 556
h-38v204h-204v-204h-152v608h152v-252h204v252h152v-500l152 152v348h342l770 770l114 -110z" />
</svg>