<svg xmlns="http://www.w3.org/2000/svg" xmlns:xlink="http://www.w3.org/1999/xlink" version="1.1" viewBox="-10 0 2058 2048">
   <path fill="currentColor"
d="M1974 2047v-192q-114 5 -196 -13q-105 -23 -184 -81q-126 90 -286 90q-158 0 -284 -90q-127 90 -285.5 90t-284.5 -90q-79 58 -184 81q-82 18 -196 13v192q237 9 380 -72q128 72 282 72t288 -72q133 72 288 72q154 0 282 -72q143 81 380 72zM1830 994v-192
q-124 0 -238 -64q-112 -64 -172 -176l-84 -148q-40 -61 -116 -84l-530 -98l-330 232l106 156l268 -183l192 31l-206 138q-45 32 -64 78q-20 47 -12 96l50 295q-173 -67 -308 -76q-205 -22 -218 116q18 134 146 267q78 78 260 210l76 53q98 36 200 -4q101 -40 174 -125
q61 80 156 116q91 35 194 20q100 -15 172 -82q-71 -66 -144 -116v-366l-360 -286l214 -142q83 154 240 247q156 92 334 87zM1216 1190v139q0 -6 -196 -112q-16 -7 -14 -4l-102 -54l-40 -250zM1688 191q0 77 -56 132q-56 56 -134 56t-134 -56t-56 -134t56 -134
q56 -55 135 -55t134 55t55 136z" />
</svg>