<svg xmlns="http://www.w3.org/2000/svg" xmlns:xlink="http://www.w3.org/1999/xlink" version="1.1" viewBox="-10 0 2058 2048">
   <path fill="currentColor"
d="M793 933h92q21 0 34 -13q14 -14 14 -35v-140h740v140q0 22 13 35t35 13h91q22 0 35 -13t13 -35v-418l-130 -401q-5 -26 -31 -46t-52 -20h-680q-25 0 -50 20q-22 18 -32 46l-140 401v418q0 22 13 35t35 13zM959 96h679l83 279h-845zM1024 2048h-187q0 -47 -92 -100
q-59 -31 -196 -87l-39 -13q-199 -77 -279 -131q-135 -96 -135 -229q0 -132 118 -215q66 -42 244 -100l26 -9q127 -29 192 -61q69 -35 69 -79h188q0 135 -118 214q-66 46 -248 104l-26 9q-125 29 -188 57q-74 35 -74 80q0 46 96 98q67 35 196 88l39 17q200 73 279 131
q135 92 135 226zM1952 2048h-183q0 -47 -96 -100q-59 -31 -196 -87l-39 -13q-199 -77 -279 -131q-135 -96 -135 -229q0 -132 118 -215q67 -42 248 -100l65 -22q119 -35 157 -57q61 -30 61 -70h187q0 136 -117 214q-65 45 -249 104l-26 9q-119 28 -183 57q-74 35 -74 80
t92 98q67 35 196 88l39 17q200 73 279 131q135 92 135 226z" />
</svg>