<svg xmlns="http://www.w3.org/2000/svg" xmlns:xlink="http://www.w3.org/1999/xlink" version="1.1" viewBox="-10 0 2068 2048">
   <path fill="currentColor"
d="M466 558h1116q126 0 232 62q107 64 170 170q64 107 64 233.5t-64 232.5q-63 107 -170 170q-108 64 -232 64q-113 0 -210 -50q-92 -47 -160 -138h-374q-69 91 -162 138q-96 50 -210 50q-124 0 -232 -64q-106 -62 -170 -170t-64 -232.5t64 -233.5q64 -107 170 -170
q106 -62 232 -62zM1744 792q-48 0 -81 33t-33 81q0 49 32 84q33 34 82 34q48 0 82 -34q34 -36 34 -84q0 -47 -34 -80q-35 -34 -82 -34zM1512 1024q-48 0 -83 35t-35 83q0 47 36 80q33 32 82.5 32t83.5 -32t34 -80q0 -50 -34 -84q-36 -34 -84 -34zM376 744v188h-188v184h188
v186h182v-186h188v-184h-188v-188h-182z" />
</svg>