<svg xmlns="http://www.w3.org/2000/svg" xmlns:xlink="http://www.w3.org/1999/xlink" version="1.1" viewBox="-10 0 2068 2048">
   <path fill="currentColor"
d="M254 1532l112 110l-236 230q-24 24 -55 24t-53 -22q-22 -20 -22 -54t20 -54zM1668 300v-148l-644 648l-644 -648v148l572 572l-390 390q-89 -67 -204 -58q-113 10 -194 92l436 432q82 -76 89.5 -189.5t-55.5 -204.5zM2028 1766l-236 -234l-110 110l236 230q24 24 55 24
t53 -22t22 -55t-20 -53zM1484 1262l-316 -318l-72 72l316 318q-62 91 -54.5 204.5t88.5 189.5l438 -432q-83 -83 -194 -92q-116 -9 -206 58z" />
</svg>