<svg xmlns="http://www.w3.org/2000/svg" xmlns:xlink="http://www.w3.org/1999/xlink" version="1.1" viewBox="-10 0 2058 2048">
   <path fill="currentColor"
d="M906 1125v-817q0 -131 -91 -219t-218 -88q-128 0 -216 88q-89 89 -89 219v817q-115 87 -168 211q-52 124 -35.5 258.5t100.5 248.5q85 112 208 165q125 52 260 36q134 -17 247.5 -98.5t166 -209t35.5 -261.5q-16 -132 -99 -245q-40 -59 -101 -105zM599 202q38 0 70 32
q31 31 31 74v307h-207v-307q0 -42 32 -74t74 -32zM1622 615v389l-236 -235l-72 72l288 284l-288 288l72 72l236 -236v390h53l288 -293l-216 -221l216 -221l-288 -289h-53zM1723 808l96 96l-96 100v-196zM1723 1249l96 97l-96 96v-193z" />
</svg>