<svg xmlns="http://www.w3.org/2000/svg" xmlns:xlink="http://www.w3.org/1999/xlink" version="1.1" viewBox="-10 0 2068 2048">
   <path fill="currentColor"
d="M1077 194q-45 0 -79.5 23.5t-39 59t26.5 61.5l266 214l-810 4q-53 0 -94.5 28t-51.5 72q-11 44 19 74q31 30 83 30l414 -4l-736 566q-57 44 -70 100q-14 58 19 100q32 40 94 40q61 0 118 -38l396 -332v26q-4 27 -4 48q0 50 22 118q39 131 136.5 237.5t239 169.5t308.5 63
q166 0 313 -64q137 -63 233 -170q99 -113 138 -240q20 -52 30 -132q0 -87 -9 -130q-19 -131 -82 -232q-66 -104 -162 -178l-640 -492q-30 -22 -78 -22zM1334 756q167 0 292 104q59 47 98 114q37 66 43 146q6 82 -22 154q-31 78 -89 138q-63 64 -144 98q-84 36 -176 36
q-94 0 -179 -34q-84 -32 -146 -96q-60 -61 -89 -140q-29 -77 -20 -154q9 -79 46 -146q38 -69 98 -116q120 -104 288 -104zM1342 886q-107 0 -189 70q-81 69 -85 172q-5 103 74 182q79 78 199.5 78t203.5 -78q80 -78 76 -182q-5 -103 -87 -172q-84 -70 -192 -70z" />
</svg>