<svg xmlns="http://www.w3.org/2000/svg" xmlns:xlink="http://www.w3.org/1999/xlink" version="1.1" viewBox="-10 0 2068 2048">
   <path fill="currentColor"
d="M2018 1314q-23 -53 -76 -92q-54 -39 -124 -64q-68 -25 -162 -48q-42 -6 -102 -24q-39 -18 -68 -36q-21 -13 -34 -34q-12 -18 -12 -46q0 -27 12 -50q12 -28 33.5 -43.5t56.5 -28.5q32 -10 78 -10q40 0 76 14q32 12 56.5 33.5t37.5 56.5q14 38 14 54h238q0 -68 -32 -130
q-31 -64 -84 -106q-55 -42 -132 -70q-75 -28 -172.5 -28t-173.5 24q-74 25 -124 66q-47 38 -80 100q-30 59 -30 124q0 64 26 116q25 51 72 88q45 36 122 66q58 22 154 44q71 16 116 34q41 16 66 34q20 16 34 40q10 21 10 52q0 56 -48 90q-47 34 -138 34q-49 0 -82 -8
q-35 -8 -65.5 -28.5t-49 -54t-25.5 -79.5h-226q0 69 30.5 128t85.5 108t136 80q81 30 188 30q102 0 178 -22q73 -23 130 -62q55 -38 88 -100q32 -60 32 -130.5t-30 -121.5zM902 1144q-35 -51 -80 -82q-44 -32 -108 -54q60 -30 98 -66q41 -40 68 -80q25 -37 38 -82
q12 -38 12 -84q0 -102 -32 -180q-32 -79 -92 -128q-63 -50 -148 -76q-88 -26 -182 -26q-89 0 -180 30q-93 29 -154 84t-94 126q-30 66 -30 152h238q0 -44 14 -82q13 -37 48 -62q38 -29 70 -40q39 -14 88 -14q114 0 165 57t51 159q0 49 -14 90q-15 41 -46 68q-31 29 -74 46
q-43 16 -110 16h-142v188h148q55 0 108 14q48 12 84 42q35 29 52 74q16 47 16 102q0 114 -61.5 173t-176.5 59q-55 0 -98 -14q-43 -13 -72 -42t-46 -68q-16 -40 -16 -90h-244q0 96 40 176q37 77 110 130q71 51 146 74q88 28 180 28q99 0 188 -28q93 -30 156 -82
q64 -54 98 -134q34 -79 34 -182q0 -48 -14 -104q-12 -51 -36 -88z" />
</svg>