<svg xmlns="http://www.w3.org/2000/svg" xmlns:xlink="http://www.w3.org/1999/xlink" version="1.1" viewBox="-10 0 2068 2048">
   <path fill="currentColor"
d="M922 1538h202v202h-202v-202zM1230 1538h202v202h-202v-202zM716 202h206v1130q0 168 -120 288t-292 120h-202q-130 0 -219 -89t-89 -218v-409h202v409q0 42 32 74q30 31 74 31h202q86 0 146 -60t60 -146v-1130zM1024 202h206v923h308v-510h202v510q0 87 -60 147t-142 60
h-308q-86 0 -146 -60t-60 -147v-923zM1846 817h202v721q0 125 -90 217q-88 91 -218 91h-202v-207h202q42 0 74 -29q32 -28 32 -72v-721z" />
</svg>