<svg xmlns="http://www.w3.org/2000/svg" xmlns:xlink="http://www.w3.org/1999/xlink" version="1.1" viewBox="-10 0 2058 2048">
   <path fill="currentColor"
d="M1858 1342l-214 211l-212 -211l-140 141l212 210l-212 215l140 140l212 -215l214 215l140 -140l-214 -215l214 -210zM1074 1866l-128 126l-148 -149l-150 149l-150 -149l-150 149l-148 -149l-150 149v-1992l150 150l148 -150l150 150l150 -150l150 150l148 -150l150 150
l150 -150l150 150l150 -150l148 150l150 -150v1132q-98 -38 -200 -38v-804h-1394v1412h796q0 81 28 164zM1200 1295q-80 83 -118 202h-734v-202h852zM348 898h1198v196h-1198v-196zM348 496h1198v201h-1198v-201z" />
</svg>