<svg xmlns="http://www.w3.org/2000/svg" xmlns:xlink="http://www.w3.org/1999/xlink" version="1.1" viewBox="-10 0 2068 2048">
   <path fill="currentColor"
d="M1024 0q-278 0 -514 138q-236 139 -372 372q-138 238 -138 514q0 277 138 515q136 233 372 372q234 137 514.5 137t513.5 -137q237 -139 372 -372q138 -236 138 -515q0 -278 -138 -514q-135 -233 -372 -372q-235 -138 -514 -138zM1024 1769q-200 0 -372 -100
q-173 -101 -272 -272q-100 -172 -100 -373q0 -200 100 -372t272 -273q172 -100 372.5 -100t371.5 100q173 101 274 273q100 172 100 372q0 201 -100 373q-100 171 -274 272q-171 100 -372 100zM1116 1164q0 40 26 80q26 38 70 51v287h-374v-566q56 -18 80 -70q24 -53 4 -111
q-19 -59 -84 -81v-287h374v566q-45 14 -70 50q-26 40 -26 81z" />
</svg>