<svg xmlns="http://www.w3.org/2000/svg" xmlns:xlink="http://www.w3.org/1999/xlink" version="1.1" viewBox="-10 0 2058 2048">
   <path fill="currentColor"
d="M1125 716h567l-567 -562v562zM409 0h822l615 615v1231q0 82 -60 142t-147 60h-1230q-86 0 -146 -60q-61 -61 -61 -142v-1644q0 -81 61 -142q60 -60 146 -60zM870 923q-191 0 -326 135t-135 327q0 191 135 326t326 135q192 0 327 -135t135 -326q0 -192 -135 -327
t-327 -135zM870 1077q130 0 219 89t89 219q0 86 -43 153l-418 -418q67 -43 153 -43zM563 1385q0 -87 43 -154l418 418q-67 43 -154 43q-130 0 -218 -91q-89 -92 -89 -216z" />
</svg>