<svg xmlns="http://www.w3.org/2000/svg" xmlns:xlink="http://www.w3.org/1999/xlink" version="1.1" viewBox="-10 0 2068 2048">
   <path fill="currentColor"
d="M754 1027q0 -72 48 -117t116 -45q70 0 115 45t45 114q0 68 -46 116q-45 49 -114 49q-66 0 -116 -49q-48 -48 -48 -113zM1402 754v55q0 67 44 112q112 -56 228 -56q142 0 268 81q0 -60 -16 -137q-14 -34 -54 -45q-19 -10 -36 -10h-218v-107q0 -66 -56 -96q-24 -10 -50 -10
h-218v-111q0 -66 -54 -91q-26 -15 -52 -15h-110v-218q0 -66 -50 -91q-30 -15 -56 -15q-264 0 -486 132t-354 354t-132 485q0 264 132 486t354 354q221 131 486 131q66 0 106 -5v-217q-77 10 -182 0q56 -11 94 -54q38 -44 38 -106t-50 -111q-48 -48 -116 -48t-112 48
q-46 49 -46 114q0 85 70 136q-212 -55 -364 -222q-151 -167 -182 -385q-10 -53 -10 -161q5 59 50 103q45 43 112 43q66 0 114 -45t48 -114q0 -68 -48 -116t-114 -48q-55 0 -98 33q-44 33 -58 83q36 -250 212 -430q176 -181 430 -217v156q0 66 44.5 114t117.5 48h50v51
q0 71 48 116q49 46 114 46h162zM866 486q0 -66 -48 -114t-116 -48q-70 0 -114 48q-46 49 -46 114q0 64 46 113q44 48 114 48q68 0 116 -48t48 -113zM2048 1512v430q0 46 -30 76t-76 30h-540q-42 0 -75 -30t-33 -76v-430q0 -45 33 -78t75 -33v-51q0 -112 80 -192
q80 -81 192 -81t190 81t78 192v51q45 0 75.5 33t30.5 78zM1836 1350q0 -71 -48 -116t-116 -45q-70 0 -115 45t-45 116v51h324v-51z" />
</svg>