<svg xmlns="http://www.w3.org/2000/svg" xmlns:xlink="http://www.w3.org/1999/xlink" version="1.1" viewBox="-10 0 2068 2048">
   <path fill="currentColor"
d="M202 409h-202v1437q0 82 60 142t142 60h1436v-202h-1436v-1437zM1846 0h-1230q-88 0 -148 60t-60 142v1231q0 86 60 146t148 60h1230q82 0 142 -60t60 -146v-1231q0 -82 -60 -142t-142 -60zM818 1332h-202v-207h202v207zM818 923h-202v-207h202v207zM818 510h-202v-202
h202v202zM1846 1332h-208v-207h208v207zM1846 923h-208v-207h208v207zM1846 510h-208v-202h208v202z" />
</svg>