<svg xmlns="http://www.w3.org/2000/svg" xmlns:xlink="http://www.w3.org/1999/xlink" version="1.1" viewBox="-10 0 2068 2048">
   <path fill="currentColor"
d="M1765 452l-265 -348l384 -72l73 378zM1477 506l-265 -342l-192 36l269 344zM256 352l-96 18q-79 18 -124 84q-46 67 -32 148l42 188l475 -92zM1001 602l-270 -346l-192 40l270 344zM238 1770v-782h1563v104q101 19 192 74v-376h-1947v980q0 78 57 135t135 57h960
q-55 -86 -73 -192h-887zM2048 1462l-137 -136l-210 206l-206 -206l-137 136l206 206l-206 212l137 136l206 -210l210 210l137 -136l-210 -212z" />
</svg>