<svg xmlns="http://www.w3.org/2000/svg" xmlns:xlink="http://www.w3.org/1999/xlink" version="1.1" viewBox="-10 0 2068 2048">
   <path fill="currentColor"
d="M1384 779q-202 111 -360 274q-160 -164 -360 -274q19 -214 112 -418q93 -202 252 -361q164 159 252 361q90 204 104 418zM1024 1380q167 -259 439.5 -411t584.5 -152q0 463 -250 774q-183 230 -476 361q-164 72 -298 96q-131 -20 -298 -96q-294 -131 -476 -361
q-250 -310 -250 -774q311 0 583.5 152t440.5 411zM1028 327q-99 158 -138 346l134 101l138 -101q-39 -189 -134 -346zM1024 1841q35 -10 66 -14q85 -25 160 -63q112 -56 210 -134q120 -100 208 -231q101 -156 148 -351q-258 81 -466 264q-151 133 -250 298q-51 79 -76 140
l-58 -96q-74 -123 -158 -226q-120 -143 -250 -236q-159 -115 -328 -139q76 301 284 509q150 150 342 226q102 44 168 53z" />
</svg>