<svg xmlns="http://www.w3.org/2000/svg" xmlns:xlink="http://www.w3.org/1999/xlink" version="1.1" viewBox="-10 0 2058 2048">
   <path fill="currentColor"
d="M155 71l-119 119l176 181v1324q0 80 55 135t135 55h1324l167 163l119 -119zM587 945h199l190 185h-389v-185zM1249 1510h-662v-190h578l84 84v106zM1531 565v190h-454l190 190h264v185h-75l450 455v-1205q0 -80 -55 -135t-134 -55h-393q-32 -86 -104 -137
q-74 -53 -161 -53t-161 53q-71 50 -103 137h-283l380 375h639zM1059 190q40 0 67 29q26 27 26 66t-26 66q-27 29 -67 29q-39 0 -66 -29q-26 -27 -26 -66t26 -66q27 -29 66 -29z" />
</svg>