<svg xmlns="http://www.w3.org/2000/svg" xmlns:xlink="http://www.w3.org/1999/xlink" version="1.1" viewBox="-10 0 2058 2048">
   <path fill="currentColor"
d="M1560 1170q40 0 100 9v-301q0 -78 -57 -135t-139 -57h-96v-197q0 -130 -68 -244q-66 -114 -178 -179q-112 -66 -244 -66t-244 66q-112 65 -178 179q-66 113 -66 244v197h-96q-84 0 -141 57t-57 135v978q0 78 57 135t141 57h762q-82 -131 -82 -290q0 -157 80 -293
q81 -136 214 -215q136 -80 292 -80zM586 489q0 -123 84 -208q84 -84 208 -84t208 84t84 208v197h-584v-197zM878 1563q-82 0 -139 -57t-57 -139q0 -83 57 -140t139 -57t139 57t57 140q0 82 -57 139t-139 57zM1952 1659v197h-782v-197h782z" />
</svg>