<svg xmlns="http://www.w3.org/2000/svg" xmlns:xlink="http://www.w3.org/1999/xlink" version="1.1" viewBox="-10 0 2058 2048">
   <path fill="currentColor"
d="M458 975q111 219 293.5 401t400.5 293l232 -231q44 -44 108 -25q178 59 374 59q39 0 70 30q32 30 32 73v370q0 39 -32 71t-70 32q-486 0 -900 -246q-406 -238 -640 -640q-246 -414 -246 -901q0 -39 32 -71t70 -32h370q43 0 74 32q30 32 30 71q0 195 58 374q20 64 -24 108
zM1550 158v-158l-236 236l236 237v-158q110 0 186 76t76 185q0 64 -30 118l118 113q68 -102 68 -231q0 -172 -123 -295t-295 -123zM1550 842q-109 0 -186 -79q-80 -81 -80 -187q0 -60 30 -118l-112 -113q-74 109 -74 231q0 177 123 300t299 123v158l236 -236l-236 -237v158z
" />
</svg>