<svg xmlns="http://www.w3.org/2000/svg" xmlns:xlink="http://www.w3.org/1999/xlink" version="1.1" viewBox="-10 0 2068 2048">
   <path fill="currentColor"
d="M1270 90h148q77 0 135 58t58 140v628zM1800 248l129 60q68 26 101 104q32 74 5 148l-235 582v-894zM1593 1400l-493 -1180q-18 -60 -67 -90q-48 -30 -109 -30q-20 0 -59 14l-747 300q-75 33 -104 104q-30 72 7 144l489 1180q22 55 71 86q48 30 108 30q46 0 79 -18
l728 -296q55 -22 85 -68q30 -47 30 -106q-4 -13 -9 -38q-5 -23 -9 -32zM943 1350l-314 -236l37 -396l318 240z" />
</svg>