<svg xmlns="http://www.w3.org/2000/svg" xmlns:xlink="http://www.w3.org/1999/xlink" version="1.1" viewBox="-10 0 2060 2048">
   <path fill="currentColor"
d="M1124 726h-200v305h-306v206h306v305h200v-305h306v-206h-306v-305zM1024 1848q-195 0 -358 -98q-161 -97 -258 -260q-94 -160 -94 -356q0 -195 95 -358t257 -260q162 -96 358 -96t358 96q162 97 257 260t95 358q0 196 -94 356q-97 163 -258 260q-163 98 -358 98z
M1024 215q-249 0 -458 124q-210 124 -334 334q-124 209 -124 459q0 248 124 460q125 214 334 335t458 121t458 -121t334 -335q124 -212 124 -460q0 -250 -124 -459q-124 -210 -334 -334q-209 -124 -458 -124zM2040 392l-468 -392l-128 153l468 396zM604 153l-128 -153
l-468 392l128 152z" />
</svg>