<svg xmlns="http://www.w3.org/2000/svg" xmlns:xlink="http://www.w3.org/1999/xlink" version="1.1" viewBox="-10 0 2068 2048">
   <path fill="currentColor"
d="M1846 460h-414v-208q0 -80 -60 -142q-60 -60 -142 -60h-412q-82 0 -142 60t-60 142v208h-414q-82 0 -142 60t-60 146v1124q0 88 60 148t142 60h1644q82 0 142 -60t60 -148v-1124q0 -86 -60 -146t-142 -60zM818 252h412v208h-412v-208zM1024 766q104 0 179 75t75 181
t-74 182q-76 78 -180.5 78t-179.5 -78q-76 -76 -76 -182t75 -181t181 -75zM1538 1790h-1028v-124q0 -106 150 -182q153 -78 363.5 -78t362.5 78q152 76 152 182v124z" />
</svg>