<svg xmlns="http://www.w3.org/2000/svg" xmlns:xlink="http://www.w3.org/1999/xlink" version="1.1" viewBox="-10 0 2058 2048">
   <path fill="currentColor"
d="M1137 0q-210 0 -387 101q-179 103 -288 275q-109 174 -120 381l-218 288q-22 28 -6 59q17 32 54 32h170v341q0 96 67 163t163 67h112v341h794v-533q207 -95 333 -291q125 -193 125 -429q0 -214 -106 -398q-105 -183 -290.5 -290t-402.5 -107zM1137 1365v-170
q-186 0 -320 -134q-133 -133 -133 -320q0 -139 74 -250l128 122q-32 59 -32 128q0 117 83 200t200 83v-171l255 256zM1515 992l-123 -123q32 -66 32 -128q0 -117 -85 -202q-86 -86 -202 -86v171l-256 -256l256 -256v171q192 0 325 133t133 325q0 133 -80 251z" />
</svg>