<svg xmlns="http://www.w3.org/2000/svg" xmlns:xlink="http://www.w3.org/1999/xlink" version="1.1" viewBox="-10 0 2058 2048">
   <path fill="currentColor"
d="M1074 1846h-817v-1029h1432v111q115 9 207 72v-591q0 -87 -60 -147t-147 -60h-101v-202h-206v202h-817v-202h-207v202h-101q-86 0 -146 60t-60 147v1437q0 82 60 142t146 60h836q-19 -47 -19 -101v-101zM257 409h1432v206h-1432v-206zM1896 1433v-48q0 -107 -75 -183
q-75 -77 -180 -77q-106 0 -183 77q-76 76 -76 183v48q-39 0 -70 31t-31 74v409q0 44 31 72q32 29 70 29h514q43 0 72 -29t29 -72v-409q0 -42 -29 -74q-28 -31 -72 -31zM1795 1433h-308v-48q0 -67 44 -111q43 -43 108 -43q66 0 110 43q46 44 46 111v48z" />
</svg>