<svg xmlns="http://www.w3.org/2000/svg" xmlns:xlink="http://www.w3.org/1999/xlink" version="1.1" viewBox="-10 0 2058 2048">
   <path fill="currentColor"
d="M512 0q86 0 146 60t60 144q0 85 -60 145t-146 60t-146 -60t-60 -145q0 -84 60 -144t146 -60zM358 510h308q86 0 146 60t60 146v563h-154v769h-412v-769h-154v-563q0 -85 60 -146q60 -60 146 -60zM1434 0q88 0 148 60t60 144q0 85 -60 145t-148 60q-86 0 -146 -60
t-60 -145q0 -84 60 -144t146 -60zM1282 2048v-615h-308l264 -779q19 -64 74 -104t122 -40q69 0 124 40q54 39 74 104l264 779h-308v615h-306z" />
</svg>