<svg xmlns="http://www.w3.org/2000/svg" xmlns:xlink="http://www.w3.org/1999/xlink" version="1.1" viewBox="-10 0 2068 2048">
   <path fill="currentColor"
d="M1028 0q-30 0 -60 31l-236 235l-42 48q-40 35 -40 87q4 130 4 358v374v26q10 23 20 27q11 5 28 -13l702 -706q61 -57 0 -118l-322 -318q-27 -31 -54 -31zM1642 619q-30 0 -56 26l-322 323q-56 56 0 113l322 322q57 61 114 0q187 -183 308 -309l6 -4q24 -25 34 -48v-31
q-10 -18 -30 -39l-318 -327q-26 -26 -58 -26zM354 663q-10 -5 -22 8l-314 314q-18 23 -18 46t18 41l314 314q25 23 34 -9q10 -9 10 -30v-636q0 -18 -4 -22q-5 -21 -18 -26zM1034 1234q-32 0 -58 26l-322 326q-56 57 0 114l314 309q29 30 52 39h26q23 -9 52 -34l314 -314
q53 -56 -4 -118l-318 -322q-26 -26 -56 -26z" />
</svg>