<svg xmlns="http://www.w3.org/2000/svg" xmlns:xlink="http://www.w3.org/1999/xlink" version="1.1" viewBox="-10 0 2058 2048">
   <path fill="currentColor"
d="M408 0q130 0 219 89t89 219q0 95 -56 175q-56 81 -140 113q14 76 96 183q43 57 192 221q161 171 216 245q54 -74 216 -245q155 -171 192 -221q82 -107 96 -183q-85 -33 -142 -113q-54 -79 -54 -175q0 -130 89 -219t217 -89q130 0 219 89t89 219q0 99 -58 180
q-56 79 -154 108q-14 96 -96 207q-54 74 -216 245q-147 158 -192 221q-80 100 -96 183q85 32 142 113q56 80 56 175q0 130 -89 219t-219 89t-220 -89q-88 -88 -88 -219q0 -96 56 -175q56 -80 142 -113q-16 -83 -96 -183q-42 -59 -194 -221q-161 -171 -216 -245
q-80 -111 -96 -207q-97 -29 -154 -108q-56 -80 -56 -180q0 -131 88 -219q88 -89 218 -89zM408 202q-43 0 -72 31q-28 32 -28 75t29 72t72 29t72 -29t29 -72t-30 -75q-28 -31 -72 -31zM1638 202q-43 0 -72 31q-28 32 -28 75t29 72t72 29t72 -29t29 -72t-30 -75
q-28 -31 -72 -31zM1024 1639q-44 0 -73 29t-29 72t30 75q28 31 71.5 31t72.5 -31q28 -32 28 -75t-29 -72t-71 -29z" />
</svg>