<svg xmlns="http://www.w3.org/2000/svg" xmlns:xlink="http://www.w3.org/1999/xlink" version="1.1" viewBox="-10 0 2068 2048">
   <path fill="currentColor"
d="M1422 1024q-116 52 -202 146h-488q-99 0 -174 -70q-72 -71 -72 -171.5t73 -173.5t173 -73h732v146h-732q-40 0 -70 30t-30 68t30 68t70 30h690zM148 928q0 -164 114 -278q114 -116 274 -116h1024q100 0 171 74.5t71 173.5q0 57 -28 112q-28 52 -74 84q87 5 170 36
q78 -104 78 -232q0 -166 -114 -280t-274 -114h-1024q-148 0 -270 74q-124 73 -194 196q-72 124 -72 270q0 145 72 268q69 119 194 194q122 72 270 72h544q13 -71 44 -146h-588q-160 0 -274 -114t-114 -274zM1266 1462v198h782v-198h-782z" />
</svg>