<svg xmlns="http://www.w3.org/2000/svg" xmlns:xlink="http://www.w3.org/1999/xlink" version="1.1" viewBox="-10 0 2068 2048">
   <path fill="currentColor"
d="M1462 976h198v192h-198v-192zM1074 194h682q82 0 139 57t57 139v1362h96v198h-1948v-198h778v-1362q0 -82 57 -139t139 -57zM1074 390v1362h682v-1362h-682zM508 390h-330v-50q0 -68 48 -116t118 -48q68 0 116 48t48 116v50zM586 390v-50q0 -100 -72 -172
q-70 -70 -170 -70q-102 0 -172 70q-72 72 -72 172v50q-38 0 -70 28q-30 28 -30 68v390q0 40 30 70t70 30h486q42 0 71 -29t29 -71v-390q0 -41 -30 -68q-31 -28 -70 -28z" />
</svg>