<svg xmlns="http://www.w3.org/2000/svg" xmlns:xlink="http://www.w3.org/1999/xlink" version="1.1" viewBox="-10 0 2068 2048">
   <path fill="currentColor"
d="M1564 342l58 134l134 58l-134 64l-58 134l-64 -134l-134 -64l134 -58zM978 452v-210h192q82 0 150 46l142 -142q-131 -96 -292 -96h-534v192h146v210q-129 28 -226 114q-99 89 -140 216h388l562 210v-64q0 -174 -112 -308q-113 -136 -276 -168zM0 1998h394v-1070h-394
v1070zM1856 1512h-686l-200 -72l32 -92l168 64h274q49 0 84.5 -31.5t35.5 -82.5q0 -36 -22 -66q-20 -30 -56 -44l-708 -260h-192v878l684 192l778 -294q0 -76 -58 -134t-134 -58zM1856 1220q78 0 135 -57t57 -139q0 -68 -96 -234q-46 -77 -96 -154l-50 76q-62 94 -96 160
q-50 103 -50 152q0 82 57 139t139 57z" />
</svg>