<svg xmlns="http://www.w3.org/2000/svg" xmlns:xlink="http://www.w3.org/1999/xlink" version="1.1" viewBox="-10 0 2058 2048">
   <path fill="currentColor"
d="M1024 0q115 0 216 60t164 159q62 97 62 209q-5 167 -110 288q-51 61 -120 101q61 -28 162 -43l86 -5q192 0 328 125q134 124 134 315q0 190 -132 310t-330 120l-48 -4q-57 -4 -124 -25q-95 -28 -188 -72v34q0 53 14 106q20 75 64 163q46 97 130 207h-616
q149 -192 192 -370q19 -88 14 -140q-92 44 -186 72q-68 21 -126 25l-48 4q-196 0 -328 -120t-132 -310q0 -191 134 -315q135 -125 326 -125l86 5q103 15 164 43q-69 -40 -120 -101q-106 -122 -110 -288q0 -110 62 -209q64 -99 164 -159t216 -60z" />
</svg>