<svg xmlns="http://www.w3.org/2000/svg" xmlns:xlink="http://www.w3.org/1999/xlink" version="1.1" viewBox="-10 0 2068 2048">
   <path fill="currentColor"
d="M1532 1024q0 -107 75 -182t183 -75t183 75t75 182q0 108 -75 183t-183 75t-183 -75t-75 -183zM766 1024q0 -107 75 -182t183 -75t183 75t75 182q0 108 -75 183t-183 75t-183 -75t-75 -183zM0 1024q0 -107 75 -182t183 -75t183 75t75 182q0 108 -75 183t-183 75t-183 -75
t-75 -183zM1150 1791q0 -108 75 -183t181 -75q108 0 183 75t75 183q0 107 -75 182t-183 75q-106 0 -181 -75t-75 -182zM384 1791q0 -108 75 -183t181 -75q108 0 183 75t75 183q0 107 -75 182t-183 75q-106 0 -181 -75t-75 -182zM1150 258q0 -108 75 -183t181 -75
q108 0 183 75t75 183q0 107 -75 182t-183 75q-106 0 -181 -75t-75 -182zM384 258q0 -108 75 -183t181 -75q108 0 183 75t75 183q0 107 -75 182t-183 75q-106 0 -181 -75t-75 -182z" />
</svg>