<svg xmlns="http://www.w3.org/2000/svg" xmlns:xlink="http://www.w3.org/1999/xlink" version="1.1" viewBox="-10 0 2068 2048">
   <path fill="currentColor"
d="M172 0q-72 0 -122 50t-50 122v340h172v-340h340v-172h-340zM1536 0v172h340v340h172v-340q0 -72 -50 -122t-122 -50h-340zM812 1108q-52 0 -90 -38t-38 -88q0 -49 38 -90q37 -40 88 -40q50 0 90 40t40 90q0 51 -40 88q-41 38 -88 38zM940 1280l84 -172l84 172h-168z
M1236 1108q-47 0 -88 -38q-40 -37 -40 -88q0 -50 40 -90t90 -40q51 0 88 40q38 41 38 90q0 50 -38 88t-90 38zM0 1536v340q0 72 50 122t122 50h340v-172h-340v-340h-172zM1876 1536v340h-340v172h340q72 0 122 -50t50 -122v-340h-172zM1024 256q-184 0 -342 92t-250 250
t-92 342q0 125 46 242q46 118 126 210v400h1024v-400q172 -199 172 -452q0 -184 -92 -342t-250 -250t-342 -92zM1364 1316v304h-168v-168h-88v168h-168v-168h-88v168h-168v-304q-80 -76 -126 -174q-46 -96 -46 -202q0 -140 70 -258t186 -186t256 -68t256 68t186 186t70 258
q0 109 -46 204t-126 172z" />
</svg>