<svg xmlns="http://www.w3.org/2000/svg" xmlns:xlink="http://www.w3.org/1999/xlink" version="1.1" viewBox="-10 0 2058 2048">
   <path fill="currentColor"
d="M1170 681q-42 0 -69 27t-27 69q0 41 28 71q26 29 68 29t68 -29q28 -31 28 -71q0 -41 -28 -69q-26 -27 -68 -27zM1170 681q-42 0 -69 27t-27 69q0 41 28 71q26 29 68 29t68 -29q28 -31 28 -71q0 -41 -28 -69q-26 -27 -68 -27zM1756 0h-1170q-84 0 -141 57t-57 135v886
q52 -9 102 -9q97 0 192 37q-86 -126 -98 -281q-13 -154 52 -293q64 -140 191.5 -231t278.5 -105q153 -14 292 46q143 61 236 183q94 125 112 276q18 157 -36 295q-57 143 -178 238l-188 -233q-18 -36 -58 -48q-38 -12 -74 11l-82 50q-36 18 -48 58q-12 38 10 75l88 215
q-103 0 -206 -37q96 142 100 311q5 171 -82 311h764q82 0 139 -57t57 -135v-1563q0 -78 -57 -135t-139 -57zM1422 1714l-242 -617l82 -51l410 522zM1170 877q42 0 68 -29q28 -31 28 -71q0 -41 -28 -69q-26 -27 -68 -27t-69 27t-27 69q0 41 28 71q26 29 68 29zM878 1755h-292
v293h-198v-293h-292v-197h292v-292h198v292h292v197z" />
</svg>