<svg xmlns="http://www.w3.org/2000/svg" xmlns:xlink="http://www.w3.org/1999/xlink" version="1.1" viewBox="-10 0 2058 2048">
   <path fill="currentColor"
d="M198 197h146v-119q0 -32 23 -55t55 -23h428q32 0 55 23t23 55v119h146q60 0 103 43t43 103v50h778v1463h-778v46q0 65 -42 105q-45 41 -104 41h-876q-64 0 -106 -41q-42 -42 -42 -105v-1559q0 -58 42 -103q41 -43 106 -43zM1610 585v197h196v-197h-196zM1220 585v197h192
v-197h-192zM828 585v197h196v-197h-196zM1220 1463v196h192v-196h-192zM1610 1463v196h196v-196h-196zM828 1463v196h196v-196h-196z" />
</svg>