<svg xmlns="http://www.w3.org/2000/svg" xmlns:xlink="http://www.w3.org/1999/xlink" version="1.1" viewBox="-10 0 2068 2048">
   <path fill="currentColor"
d="M1674 70l-462 466v1024l462 -418v-1072zM1860 444v1256q-148 -48 -326 -48q-118 0 -268 42q-153 43 -242 98v-1256q-97 -74 -240 -108q-125 -32 -270 -32q-143 0 -274 32q-142 34 -240 108v1364q0 16 16 30q15 14 32 14l22 -4q96 -44 218 -72q124 -30 226 -30
q145 0 270 32q143 34 240 108q90 -60 242 -100q154 -40 268 -40q262 0 444 96q10 6 24 6t30 -16t16 -32v-1356q-74 -57 -188 -92zM838 1690q-149 -38 -324 -38q-147 0 -326 48v-1060q133 -56 326 -56q195 0 324 56v1050z" />
</svg>