<svg xmlns="http://www.w3.org/2000/svg" xmlns:xlink="http://www.w3.org/1999/xlink" version="1.1" viewBox="-10 0 2058 2048">
   <path fill="currentColor"
d="M1849 699q-14 -31 -48 -44l-30 -4h-188v-92q0 -61 -48 -83q-22 -13 -44 -13h-187v-91q0 -58 -48 -83q-22 -9 -44 -9h-96v-188q0 -40 -22 -65q-18 -18 -43 -27h-27q-225 0 -419 112q-191 111 -305 305q-114 195 -114 422t114 419q115 193 305 306t419 113t419 -113
q192 -114 306 -306q113 -190 113 -419q0 -76 -13 -140zM514 931q-62 0 -101 -42t-39 -98t39 -98t98 -42t101 42q41 41 41 98t-41 98q-42 42 -98 42zM653 420q0 -61 40 -101q39 -39 98 -39q58 0 100 39t42 98t-42 101q-41 41 -100 41q-60 0 -98 -41q-40 -43 -40 -98z
M933 1490q-62 0 -101 -42t-39 -98t39 -98t99 -42q58 0 100 42q41 41 41 98t-41 98q-42 42 -98 42zM976 1022q-56 0 -98 -39q-41 -38 -41 -98t41 -101t101 -41t98 41q39 42 39 101t-39 98t-101 39zM1443 1210q-57 0 -98 -41t-41 -99q0 -57 41 -98t98 -41q58 0 99 41t41 98
q0 58 -41 99t-99 41zM557 1861h188v187h-188v-187zM933 1861h183v187h-183v-187zM1304 1861h187v187h-187v-187z" />
</svg>