<svg xmlns="http://www.w3.org/2000/svg" xmlns:xlink="http://www.w3.org/1999/xlink" version="1.1" viewBox="-10 0 2068 2048">
   <path fill="currentColor"
d="M610 101l-148 226l148 226l-206 317l-178 -91l144 -226l-144 -226l206 -317zM1226 91l-150 226l150 226l-208 318l-176 -92l144 -226l-144 -226l206 -317zM1846 91l-150 226l150 226l-208 318l-178 -92l146 -226l-146 -226l202 -317zM0 2048v-817q0 -87 60 -147t142 -60
h1644q82 0 142 60t60 147v817h-202v-202h-1644v202h-202zM408 1231q-42 0 -71 29t-29 72v206q0 43 29 72t72 29t72 -29t29 -72v-206q0 -43 -29 -72t-73 -29zM818 1231q-44 0 -74 29q-28 28 -28 72v206q0 44 28 72q30 29 74 29q41 0 74 -29q30 -28 30 -72v-206q0 -44 -30 -72
q-33 -29 -74 -29zM1230 1231q-42 0 -74 29q-32 28 -32 72v206q0 44 32 72q32 29 75 29t72 -29t29 -72v-206q0 -43 -29 -72t-73 -29zM1638 1231q-42 0 -71 29t-29 72v206q0 43 29 72t72 29t72 -29t29 -72v-206q0 -43 -29 -72t-73 -29z" />
</svg>