<svg xmlns="http://www.w3.org/2000/svg" xmlns:xlink="http://www.w3.org/1999/xlink" version="1.1" viewBox="-10 0 2058 2048">
   <path fill="currentColor"
d="M1600 1202q-20 0 -70 -16q-57 -18 -72 -25l-200 631l-302 -110l214 -562l-296 -338l246 -142q65 160 206 277q140 117 320 144l110 -334l-142 -46l-50 156q-93 -39 -170 -122q-73 -79 -104 -185l-32 -105q-18 -58 -68 -94q-46 -33 -106 -38q-60 -4 -110 22l-338 197
q-54 30 -80 85q-25 51 -20 116q4 50 54 105l348 361l-166 435l-676 -243l-46 138l1368 498q115 41 242 41q89 0 178 -23q82 -21 160 -64l-110 -105q-112 46 -228 46q-95 0 -192 -32l-74 -28zM1706 197q0 81 -58 139q-58 57 -138 57t-137 -57t-57 -139q0 -83 57 -140t137 -57
t138 57q58 58 58 140z" />
</svg>