<svg xmlns="http://www.w3.org/2000/svg" xmlns:xlink="http://www.w3.org/1999/xlink" version="1.1" viewBox="-10 0 2058 2048">
   <path fill="currentColor"
d="M1006 1796h-706l598 -599l186 187q97 -153 254 -229l158 -159v108q69 -10 100 -10q33 0 102 10v-505l-600 -599h-798q-84 0 -143 59t-59 138v1599q0 79 60 138q58 58 142 58h780q-57 -97 -74 -196zM996 150l552 547h-552v-547zM500 697q80 0 138 58t58 141q0 82 -58 140
t-140 58t-140 -58q-58 -59 -58 -140q0 -82 58 -141q58 -58 142 -58zM1950 1483l-216 210l216 215l-140 140l-216 -215l-210 215l-140 -140l210 -215l-210 -210l140 -141l210 211l216 -211z" />
</svg>