<svg xmlns="http://www.w3.org/2000/svg" xmlns:xlink="http://www.w3.org/1999/xlink" version="1.1" viewBox="-10 0 2068 2048">
   <path fill="currentColor"
d="M6 233l129 -129l1710 1710l-129 130l-637 -638h-383q-82 0 -154 48q-38 28 -124 115q-60 59 -96 91q-57 48 -115 77q-111 0 -168 -110q-63 -123 -23 -364q49 -289 234 -681zM753 334h546q85 -77 263 -24q88 25 158 67l48 86h24q168 360 225 628q53 232 15 373
q-29 124 -120 163l-1331 -1336q108 -15 172 43zM1026 410q-44 0 -72 31q-29 32 -29 75t29 72q28 28 72 28t72 -28q29 -29 29 -72t-29 -75q-28 -31 -72 -31z" />
</svg>