<svg xmlns="http://www.w3.org/2000/svg" xmlns:xlink="http://www.w3.org/1999/xlink" version="1.1" viewBox="-10 0 2068 2048">
   <path fill="currentColor"
d="M1228 1228v206h306v307h206v-307h308v-206h-308v-307h-206v307h-306zM1222 883q-9 -106 -96 -187q-88 -82 -206 -82q-128 0 -217 89t-89 218t88 216q88 86 218 91q58 0 116 -24q23 -95 62 -163q48 -86 124 -158zM1022 1329h-614q0 -82 -60 -142t-142 -60v-412
q82 0 142 -60t60 -142h1026q0 82 60 142t142 60v9q97 0 206 34v-451h-1842v1228h1054q-32 -101 -32 -206z" />
</svg>