<svg xmlns="http://www.w3.org/2000/svg" xmlns:xlink="http://www.w3.org/1999/xlink" version="1.1" viewBox="-10 0 2068 2048">
   <path fill="currentColor"
d="M442 294q-66 0 -107 41t-41 104t42 105q42 44 104 44q60 0 104 -44t44 -105q0 -62 -44 -104q-42 -41 -102 -41zM442 294q-66 0 -107 41t-41 104t42 105q42 44 104 44q60 0 104 -44t44 -105q0 -62 -44 -104q-42 -41 -102 -41zM1598 634l450 -445l-138 -143l-1864 1865
l144 137l444 -450l304 303q59 55 140 55q80 0 134 -55l688 -688q56 -56 56 -136q0 -79 -56 -140zM1074 1764l-298 -303l684 -685l304 299zM354 1314l134 -138l-294 -294v-689h688l298 303l138 -138l-298 -303q-60 -55 -138 -55h-688q-78 0 -136 58t-58 135v689q0 79 56 138z
M294 441q0 61 42 103q42 44 104 44q60 0 104 -44t44 -105q0 -62 -44 -104q-42 -41 -104 -41q-64 0 -105 41t-41 106z" />
</svg>