<svg xmlns="http://www.w3.org/2000/svg" xmlns:xlink="http://www.w3.org/1999/xlink" version="1.1" viewBox="-10 0 2058 2048">
   <path fill="currentColor"
d="M1072 1303q0 79 -54 133q-55 55 -133 55t-133 -55q-54 -54 -54 -133t54 -133t133 -54t133 54t54 133zM327 1769v-932h1115v288q57 -9 94 -9t94 9v-288q0 -74 -55 -129q-54 -54 -133 -54h-91v-187q0 -127 -63 -234q-62 -105 -170 -169t-233 -64t-233 64t-170 169
q-63 107 -63 234h187q0 -118 81 -199q80 -80 198 -80t198 80q81 81 81 199v187h-837q-78 0 -132 54q-55 55 -55 129v932q0 74 55 129t132 55h728q-52 -81 -70 -184h-658zM1630 1582v-279h-188v279h-278v187h278v279h188v-279h278v-187h-278z" />
</svg>