<svg xmlns="http://www.w3.org/2000/svg" xmlns:xlink="http://www.w3.org/1999/xlink" version="1.1" viewBox="-10 0 2068 2048">
   <path fill="currentColor"
d="M1494 1309q-32 0 -60 -24q-26 -24 -26 -60.5t26 -59.5q28 -24 60 -24q38 0 62 24q26 25 26 60t-26 60q-24 24 -62 24zM552 1309q-32 0 -60 -24q-26 -24 -26 -60.5t26 -59.5q28 -24 61 -24t60 24t27 60t-27 60t-61 24zM1528 795l168 -294q9 -15 6 -28q-5 -14 -18 -22
q-10 -7 -26 -2q-15 4 -20 19l-172 298q-212 -96 -444 -96q-234 0 -436 91l-172 -298q-10 -10 -22 -14q-13 -5 -26 2q-14 7 -18 22q-2 12 2 28l170 294q-223 121 -361.5 333.5t-158.5 473.5h2048q-20 -260 -159.5 -471.5t-360.5 -335.5z" />
</svg>