<svg xmlns="http://www.w3.org/2000/svg" xmlns:xlink="http://www.w3.org/1999/xlink" version="1.1" viewBox="-10 0 2068 2048">
   <path fill="currentColor"
d="M1170 146q-238 0 -438 118q-202 119 -320 320q-120 202 -120 440h-292l388 388l394 -388h-292q0 -188 90 -344q91 -154 248 -246q156 -92 342 -92t342 92q157 92 248 246q92 157 92 343.5t-92 342.5t-248 248q-155 90 -342 90q-214 0 -398 -122l-136 136q237 184 534 184
q237 0 438 -120q202 -118 320 -320q120 -201 120 -438.5t-120 -439.5q-118 -201 -320 -320q-200 -118 -438 -118zM1590 1138l-100 -68q4 -21 4 -46q0 -26 -4 -46l100 -68q10 -15 6 -32l-92 -146q-5 -19 -28 -14l-110 40q-32 -23 -76 -40l-14 -114q-5 -20 -24 -20h-168
q-19 0 -24 20l-18 114q-46 22 -72 40l-110 -40q-18 -10 -28 8l-86 152q-10 18 4 26l96 74q-5 46 0 92l-96 68q-14 14 -4 32l86 146q10 19 28 14l110 -46q32 29 72 46l18 114q0 10 8 14q7 5 16 0h174q22 0 22 -18l18 -114q38 -19 74 -42l108 46q24 0 28 -14l88 -150
q8 -18 -6 -28zM1171 1170q-59 0 -103 -44q-44 -42 -44 -102t43 -103t103 -43t103 43t43 103t-42 102q-44 44 -103 44z" />
</svg>