<svg xmlns="http://www.w3.org/2000/svg" xmlns:xlink="http://www.w3.org/1999/xlink" version="1.1" viewBox="-10 0 2068 2048">
   <path fill="currentColor"
d="M2048 1925l-1924 -1925l-124 124l86 86v1573q0 77 58 135q58 57 134 57h1572l74 73zM672 1783h-394v-1376l276 270v420q0 41 27 71t67 30h24v585zM1352 1783h-584v-585h32q36 0 66 -30q30 -29 30 -71v-77l456 457v306zM1448 1783v-206l206 206h-206zM896 521l-498 -493
h1444q78 0 135 57t57 135v1444l-192 -196v-1248h-270v877q0 46 -32 73l-310 -310v-640h-334v301z" />
</svg>