<svg xmlns="http://www.w3.org/2000/svg" xmlns:xlink="http://www.w3.org/1999/xlink" version="1.1" viewBox="-10 0 2068 2048">
   <path fill="currentColor"
d="M226 0q-96 0 -162 65q-64 64 -64 161v1596q0 92 67 159t159 67h1596q96 0 161 -65t65 -161v-1596q0 -91 -68 -159q-68 -67 -158 -67h-1596zM922 211v198h202v-198q201 24 368 140t260 293q94 180 94 380t-94 380q-93 177 -260 293q-165 115 -368 139v-197h-202v197
q-200 -24 -366 -139q-169 -117 -260 -293q-94 -180 -94 -380t94 -380q91 -176 260 -293q167 -116 366 -140zM562 870q-62 0 -108 46t-46 108t46 108t108 46t108 -46t46 -108t-46 -108t-108 -46zM1484 870q-62 0 -108 46q-44 45 -44 108t44 108q46 46 108 46q64 0 110 -46
q44 -45 44 -108t-44 -108q-46 -46 -110 -46z" />
</svg>