<svg xmlns="http://www.w3.org/2000/svg" xmlns:xlink="http://www.w3.org/1999/xlink" version="1.1" viewBox="-10 0 2058 2048">
   <path fill="currentColor"
d="M1316 1851h198v197h-198v-197zM928 2048h192v-197h-192v197zM536 2048h196v-197h-196v197zM1462 0q-131 0 -242 54q-113 55 -196 147q-82 -91 -196 -147q-111 -54 -242 -54q-148 0 -270 70q-123 70 -194 195q-72 124 -72 269q0 177 106 357q93 159 288 357
q116 121 438 411l142 128l142 -128q322 -290 438 -411q197 -201 288 -357q106 -179 106 -357q0 -145 -72 -269q-71 -125 -194 -195q-122 -70 -270 -70z" />
</svg>