<svg xmlns="http://www.w3.org/2000/svg" xmlns:xlink="http://www.w3.org/1999/xlink" version="1.1" viewBox="-10 0 2058 2048">
   <path fill="currentColor"
d="M1946 1485q0 63 -52 92l-812 452q-24 19 -58.5 19t-57.5 -19l-812 -452q-52 -28 -52 -92v-923q0 -63 52 -91l812 -452q23 -19 57.5 -19t58.5 19l812 452q52 29 52 91v923zM308 716v616h124v-207h78q86 0 146 -60t60 -144q0 -85 -60 -145t-146 -60h-202zM432 1024v-207h54
q43 0 72 31q28 32 28 75t-29 72t-71 29h-54zM792 716v616h130v-207h78l66 207h136l-82 -246q82 -64 82 -163q0 -87 -60 -147t-142 -60h-208zM922 1024v-207h48q44 0 75 31t31 75t-30 72q-33 29 -76 29h-48zM1538 716q-106 0 -183 89t-77 219t77 219t183 89q104 0 180 -89
q74 -89 74 -219t-74 -219q-76 -89 -180 -89zM1538 846q58 0 99 53t41 125t-41 125t-99 53t-102 -51q-42 -50 -42 -127t42 -127q44 -51 102 -51z" />
</svg>