<svg xmlns="http://www.w3.org/2000/svg" xmlns:xlink="http://www.w3.org/1999/xlink" version="1.1" viewBox="-10 0 2058 2048">
   <path fill="currentColor"
d="M1550 212l232 228l-596 475l-106 -106zM1550 0q-101 0 -167 76l-597 748l384 380l749 -592q71 -66 75 -159q5 -95 -65 -165l-228 -227q-61 -61 -151 -61zM711 900l-76 76q-31 31 -31 76q0 44 31 81l227 222q30 36 76 36q45 0 81 -36l71 -71zM377 1401q-46 0 -76 33
t-30 75q0 43 30 76t76 33t76 -33t30 -76q0 -42 -30 -75t-76 -33zM700 1507q-45 0 -75 33q-31 34 -31 76q0 41 31 75q30 33 75 33q46 0 76 -33q31 -34 31 -75q0 -42 -31 -76q-30 -33 -76 -33zM160 1724q-41 0 -74 33t-33 76t33 76t76 33t76 -33t33 -76t-33 -76t-78 -33z
M483 1831q-41 0 -73 32q-33 33 -33 76t33 76t76 33q42 0 75 -33t33 -76t-33 -76q-32 -32 -78 -32z" />
</svg>