<svg xmlns="http://www.w3.org/2000/svg" xmlns:xlink="http://www.w3.org/1999/xlink" version="1.1" viewBox="-10 0 2068 2048">
   <path fill="currentColor"
d="M1024 0q200 0 392 77q188 76 333.5 221t220.5 334q78 192 78 392t-78 392q-75 189 -220.5 334t-333.5 221q-192 77 -392 77t-392 -77q-188 -76 -333.5 -221t-220.5 -334q-78 -192 -78 -392t78 -392q75 -189 220.5 -334t333.5 -221q192 -77 392 -77zM1024 202
q-223 0 -411.5 110t-300.5 301q-110 191 -110 411q0 180 72 341q73 160 206 274q107 -102 248 -154q142 -52 296 -52q308 0 542 206q136 -116 208 -274q72 -159 72 -341q0 -220 -112 -411q-111 -191 -299.5 -301t-410.5 -110zM1230 409q44 0 72 28q30 29 30 73q0 42 -30 74
q-28 31 -72 31t-75 -31t-31 -74q0 -45 31 -73t75 -28zM818 409q43 0 73.5 28t30.5 73q0 43 -31 74t-73 31q-45 0 -73.5 -31t-28.5 -74q0 -45 28 -73t74 -28zM500 711q12 0 38 5l360 149q46 -34 100 -43q56 -9 102 14q78 29 111.5 109t2.5 156q-32 77 -112 110q-79 33 -156 0
q-54 -20 -86 -62q-34 -45 -42 -96l-356 -144q-39 -15 -56 -56q-17 -42 -2 -79q16 -31 40 -46q28 -17 56 -17zM1538 716q42 0 71 29t29 72t-28 75q-29 31 -72 31q-44 0 -75 -31t-31 -75t32 -72q32 -29 74 -29z" />
</svg>