<svg xmlns="http://www.w3.org/2000/svg" xmlns:xlink="http://www.w3.org/1999/xlink" version="1.1" viewBox="-10 0 2068 2048">
   <path fill="currentColor"
d="M1462 144q105 -118 266 -118q132 0 223.5 95.5t96.5 224.5q0 100 -96 240q-98 141 -192 232q-96 94 -298 276q-200 -182 -296 -276q-93 -89 -192 -230q-96 -137 -96 -242q0 -133 95.5 -224.5t228.5 -95.5q156 0 260 118zM2048 1680v100l-778 242l-684 -186v136h-586
v-1070h778l602 224q81 27 132 102q52 73 52 160h192q122 0 206 86q86 89 86 206zM394 1780v-686h-198v686h198zM1846 1638q-13 -22 -38 -38t-52 -16h-522q-84 0 -156 -22l-228 -78l60 -188l232 78q21 5 124 14h100q0 -28 -16 -48q-16 -22 -38 -30l-566 -216h-160v540
l680 184z" />
</svg>