<svg xmlns="http://www.w3.org/2000/svg" xmlns:xlink="http://www.w3.org/1999/xlink" version="1.1" viewBox="-10 0 2068 2048">
   <path fill="currentColor"
d="M562 870q62 0 108 46t46 108t-46 108t-108 46t-108 -46t-46 -108t46 -108t108 -46zM1484 870q64 0 110 46q44 45 44 108t-44 108q-46 46 -110 46q-62 0 -108 -46q-44 -45 -44 -108t44 -108q46 -46 108 -46zM226 0h1596q90 0 158 67q68 68 68 159v1596q0 96 -65 161
t-161 65h-1596q-92 0 -159 -67t-67 -159v-1596q0 -97 64 -161q66 -65 162 -65zM1024 202q-223 0 -411.5 110t-300.5 301q-110 191 -110 411t110 411q111 190 300 300q191 111 411.5 111t410.5 -111q190 -110 300 -300q112 -191 112 -411t-112 -411q-111 -191 -299.5 -301
t-410.5 -110z" />
</svg>