<svg xmlns="http://www.w3.org/2000/svg" xmlns:xlink="http://www.w3.org/1999/xlink" version="1.1" viewBox="-10 0 2068 2048">
   <path fill="currentColor"
d="M2044 1773l-403 -399q31 -77 13 -162q-18 -86 -82 -147q-65 -63 -151 -76t-170 23l183 184l-137 137l-192 -192q-36 79 -23 167q14 88 80 158q66 69 146 87q82 18 159 -13l398 403q14 14 32 14q19 0 28 -14l96 -101q22 -18 25 -39q3 -20 -2 -30zM390 485q0 -166 114 -280
t277 -114q164 0 278 114t114 278q0 163 -114 277q-115 115 -278 115q-162 0 -277 -115q-114 -114 -114 -275zM1072 1659h-1072v-197q0 -105 105 -195q104 -89 285 -142t389 -53q92 0 138 9q-37 80 -37 190q0 112 53 216q53 103 139 172z" />
</svg>