<svg xmlns="http://www.w3.org/2000/svg" xmlns:xlink="http://www.w3.org/1999/xlink" version="1.1" viewBox="-10 0 2068 2048">
   <path fill="currentColor"
d="M466 1171q40 0 66 26t26 65q0 40 -26 66t-66 26q-127 0 -232.5 -61t-169.5 -168q-64 -108 -64 -233t64 -233t170 -170q106 -63 232 -63q70 -165 220 -268q152 -103 338 -103q157 0 292 74q136 74 218 203q82 127 96 281h44q156 0 266 109q108 108 108 261q0 154 -108 262
q-110 109 -266 109h-92q-40 0 -66 -26t-26 -66q0 -39 26 -65t66 -26h92q78 0 132 -55q54 -54 54 -133t-54 -133t-132 -54h-184v-92q0 -126 -62 -233q-64 -107 -170 -170q-107 -63 -234 -63q-174 0 -302 111q-129 111 -154 281q-50 -17 -102 -17q-116 0 -198 81
q-80 80 -80 196q0 117 80 198q82 83 198 83zM642 1545l204 -52l-152 -148q-26 -26 -26 -65q0 -40 28 -68t68 -28q38 0 64 26l148 152l52 -204q15 -36 46 -55q34 -20 70 -11q37 9 57 44.5t11 69.5l-56 204l204 -56q34 -9 69.5 11t44.5 56q8 37 -12 70q-18 32 -54 46l-204 52
l152 148q26 26 26 66q0 39 -28 67t-68 28t-66 -26l-148 -152l-52 205q-13 35 -46 54q-33 20 -70 11q-36 -9 -56 -44q-19 -35 -10 -69l56 -205l-204 56q-36 9 -70 -10q-36 -20 -44 -57q-9 -36 10 -70q19 -32 56 -46z" />
</svg>