<svg xmlns="http://www.w3.org/2000/svg" xmlns:xlink="http://www.w3.org/1999/xlink" version="1.1" viewBox="-10 0 2068 2048">
   <path fill="currentColor"
d="M1692 508q-58 56 -72 132q-15 72 10 146l-298 298v-212q0 -42 -32 -74t-70 -32h-106v-48q0 -154 -74 -282q-74 -130 -204 -208q-130 -76 -284 -76t-284 76q-128 77 -204 208q-74 128 -74 282q0 132 52 244q53 113 150 190v644q0 38 32 70q30 30 74 30h922q38 0 70 -30
q32 -32 32 -70v-424l442 -442q71 24 146 10q76 -16 128 -68zM206 766v-14l-4 -34q0 -147 106 -254q103 -106 254.5 -106t255.5 106t104 254l-4 48h-712zM1124 1690h-716v-716h716v716z" />
</svg>