<svg xmlns="http://www.w3.org/2000/svg" xmlns:xlink="http://www.w3.org/1999/xlink" version="1.1" viewBox="-10 0 2068 2048">
   <path fill="currentColor"
d="M202 101h1644q82 0 142 60t60 147v1432q0 87 -60 147t-142 60h-1644q-82 0 -142 -60t-60 -147v-1432q0 -87 60 -147t142 -60zM866 361q-39 0 -66 28q-26 29 -26 68v317q0 38 26 65q26 26 66 26h316q40 0 66 -26t26 -65v-317q0 -41 -26 -68q-27 -28 -66 -28h-316zM928 486
h192q10 0 18 9q10 10 10 24v188q0 14 -10 24q-8 9 -18 9h-192q-10 0 -20 -9q-10 -10 -10 -24v-188q0 -14 10 -24q10 -9 20 -9zM298 361q-40 0 -68 28q-28 29 -28 68v317q0 38 28 65q28 26 68 26h222v-125h-160q-14 0 -22 -9q-6 -8 -6 -24v-188q0 -16 6 -24q8 -9 22 -9h188
q14 0 24 9q10 10 10 24v380q0 9 -10 19t-24 10h-346v130h414q37 0 64 -29q26 -27 26 -68v-504q0 -41 -26 -68q-26 -28 -64 -28h-318zM1432 361q-38 0 -64 28q-28 29 -28 68v317q0 38 28 65q26 26 64 26h222v-125h-154q-16 0 -24 -9q-10 -10 -10 -24v-188q0 -14 10 -24
q8 -9 24 -9h186q15 0 22 9q8 8 8 24v380q0 11 -8 19q-8 10 -22 10h-346v130h410q38 0 67 -29t29 -68v-504q0 -39 -30 -68q-28 -28 -66 -28h-318zM802 1183q-39 0 -66 26q-30 27 -30 65v317q0 39 30 68q28 28 66 28h318q38 0 64 -28q28 -29 28 -68v-317q0 -38 -28 -65
q-26 -26 -64 -26h-318zM866 1308h192q13 0 20 9q8 10 8 24v188q0 14 -10 24q-8 9 -18 9h-192q-15 0 -22 -9q-8 -8 -8 -24v-188q0 -16 8 -24q7 -9 22 -9zM298 1183q-40 0 -68 26q-28 27 -28 65v317q0 39 28 68q28 28 68 28h346v-125h-284q-14 0 -22 -9q-6 -8 -6 -24v-188
q0 -16 6 -24q8 -9 22 -9h284v-125h-346zM1370 1183q-40 0 -68 26q-28 27 -28 65v413h130v-346q0 -15 9 -24t19 -9h68v379h124v-379h92v379h130v-504h-476z" />
</svg>