<svg xmlns="http://www.w3.org/2000/svg" xmlns:xlink="http://www.w3.org/1999/xlink" version="1.1" viewBox="-10 0 2058 2048">
   <path fill="currentColor"
d="M1024 412q-44 0 -72 -31t-28 -74q0 -44 28 -72q28 -29 71 -29t72 29t29 72q0 42 -28 74q-29 31 -72 31zM1124 1333h-200v-614h200v614zM1124 1741h-200v-206h200v206zM1738 206h-426q-33 -90 -114 -148q-80 -58 -174.5 -58t-175.5 58q-79 57 -112 148h-426q-86 0 -146 60
t-60 146v1430q0 86 60 146t146 60h1428q86 0 146 -60t60 -146v-1430q0 -86 -60 -146t-146 -60z" />
</svg>