<svg xmlns="http://www.w3.org/2000/svg" xmlns:xlink="http://www.w3.org/1999/xlink" version="1.1" viewBox="-10 0 2068 2048">
   <path fill="currentColor"
d="M1024 0q200 0 392 77q188 76 333.5 221t220.5 334q78 192 78 392t-78 392q-75 189 -220.5 334t-333.5 221q-192 77 -392 77t-392 -77q-188 -76 -333.5 -221t-220.5 -334q-78 -192 -78 -392t78 -392q75 -189 220.5 -334t333.5 -221q192 -77 392 -77zM1864 1024
q0 -292 -180 -519t-454 -294v198h-412v-198q-276 68 -456 294.5t-180 518.5q0 166 66 322q62 150 182 272q116 117 272 182q155 65 321.5 65t322.5 -65q157 -66 272 -182q118 -120 182 -272q64 -156 64 -322zM510 885q58 0 98 40q40 41 40 99t-40 99q-40 40 -98 40
q-60 0 -100 -40t-40 -99t40 -99t100 -40zM1538 885q58 0 98 40q42 41 42 99t-42 99q-40 40 -98 40t-98 -40q-42 -41 -42 -99t42 -99q40 -40 98 -40zM648 1255q58 0 101 43t43 101t-42 98q-45 41 -101.5 41t-97.5 -41t-41 -98t40 -101q41 -43 98 -43zM1398 1255q58 0 98 43
q42 44 42 101t-41 98t-98 41t-101 -41q-44 -40 -44 -98t43 -101t101 -43zM1024 1399q58 0 98 41q40 40 40 98q0 59 -40 99q-40 41 -98 41t-99 -41t-41 -99q0 -57 41 -98t99 -41z" />
</svg>