<svg xmlns="http://www.w3.org/2000/svg" xmlns:xlink="http://www.w3.org/1999/xlink" version="1.1" viewBox="-10 0 2068 2048">
   <path fill="currentColor"
d="M1362 0v192h-192v-192h192zM974 0h-196v388h196v-388zM778 1170h-192v192h192v-192zM1362 192v196h-192v197h390v-393h-198zM586 0h-196v388h196v-388zM1756 0h-196v192h196v-192zM1148 1947h-1148v-1947h192v388h198v585h-198v197h198v192h196v196h192v197h196v-197
h-196v-196h196v-389h-388v-388h388v192h196v196h192v-196h198v196h388v174q-137 -78 -292 -78q-174 0 -320 101h-166v164q-100 146 -100 320q0 158 78 293zM390 1558h-198v197h198v-197zM1948 585h-388v192h388v-192zM1948 388v-196h-192v196h192zM1560 1266v292h-294v197
h294v293h196v-293h292v-197h-292v-292h-196z" />
</svg>