<svg xmlns="http://www.w3.org/2000/svg" xmlns:xlink="http://www.w3.org/1999/xlink" version="1.1" viewBox="-10 0 2062 2048">
   <path fill="currentColor"
d="M2042 169v680q0 58 -40 108q-40 51 -98 61v600q0 88 -32 175q-49 114 -132 175q-107 80 -266 80h-168q84 -84 116 -170h52q155 0 218 -112q32 -64 32 -138v-610q-58 -11 -95 -55t-37 -114v-680q0 -69 50 -119t120 -50h110q70 0 120 50q50 51 50 119zM1342 1719
q0 132 -93 225t-225 93h-450q-158 0 -266 -80q-84 -62 -132 -175q-32 -87 -32 -175v-589q-58 -10 -98 -61q-40 -50 -40 -108v-680q0 -68 50 -119q50 -50 120 -50h110q70 0 120 50t50 119v680q0 58 -36 108q-38 51 -96 61v600q0 81 32 143q62 106 218 106h180
q-38 -68 -38 -138v-1130q0 -127 94 -223q92 -95 228 -95q134 0 220 90q84 89 84 228v1120zM1162 589q0 -56 -40 -96q-40 -42 -98 -42t-98 42q-40 40 -40 96v1130q0 57 42 98q42 40 96 40q52 0 96 -43q42 -42 42 -95v-1130z" />
</svg>