<svg xmlns="http://www.w3.org/2000/svg" xmlns:xlink="http://www.w3.org/1999/xlink" version="1.1" viewBox="-10 0 2058 2048">
   <path fill="currentColor"
d="M1512 1266v292h-294v197h294v293h196v-293h292v-197h-292v-292h-196zM1050 1824l-124 123l-146 -146l-146 146l-146 -146l-146 146l-146 -146l-148 146v-1947l148 146l146 -146l146 146l146 -146l146 146l146 -146l146 146l146 -146l146 146l148 -146l146 146l146 -146
v1106q-99 -37 -196 -37v-786h-1362v1381h776q0 78 28 160zM1172 1266q-78 83 -114 196h-716v-196h830zM342 877h1170v192h-1170v-192zM342 484h1170v197h-1170v-197z" />
</svg>