<svg xmlns="http://www.w3.org/2000/svg" xmlns:xlink="http://www.w3.org/1999/xlink" version="1.1" viewBox="-10 0 2058 2048">
   <path fill="currentColor"
d="M1541 931q-175 0 -325 87q-151 87 -238 238q-88 152 -88 325q0 43 9 96h-847v-96l188 -183v-559q0 -219 129 -391.5t334 -233.5v-30q0 -75 54 -129q55 -55 133 -55t133 55t55 129v30q205 61 334 233.5t129 391.5v92zM703 1769q0 79 54 133q55 55 133 55q51 0 101 -31
q-45 -68 -74 -157h-214zM1986 1703q17 13 4 31l-91 162q-4 13 -27 13l-117 -48q-43 27 -79 43l-17 127q-4 17 -22 17h-188q-22 0 -22 -17l-17 -127q-38 -15 -79 -43l-113 48q-27 0 -31 -13l-96 -162q-9 -18 9 -31l96 -74l-5 -48l5 -43l-96 -79q-18 -9 -9 -31l96 -157
q9 -17 31 -13l113 44l13 -5q39 -25 66 -35l17 -126q0 -18 22 -18h188q18 0 22 18l17 126q29 10 65 31l14 9l117 -44q18 -5 27 13l91 157q9 22 -4 31l-96 79v45v46zM1707 1581q0 -65 -48 -113t-116 -48t-116 48t-48 115q0 68 48 116t116 48t116 -48t48 -118z" />
</svg>