<svg xmlns="http://www.w3.org/2000/svg" xmlns:xlink="http://www.w3.org/1999/xlink" version="1.1" viewBox="-10 0 2068 2048">
   <path fill="currentColor"
d="M298 46q-139 139 -218 326q-80 187 -80 398q0 209 80 396q79 187 218 326l144 -144q-111 -111 -176 -260q-64 -149 -64 -316.5t64 -319.5q64 -150 176 -262zM1750 46l-144 144q110 110 174 262q66 152 66 319.5t-66 316.5q-65 151 -174 260l144 144q137 -137 218 -326
q80 -189 80 -396q0 -209 -80 -398q-81 -189 -218 -326zM592 334q-88 88 -136 200t-48 238q0 124 48 236q48 109 136 196l144 -144q-120 -120 -120 -290q0 -172 120 -292zM1456 334l-144 144q120 122 120 292q0 168 -120 290l144 144q86 -86 134 -197t48 -235
q0 -126 -48 -238q-48 -114 -134 -200zM1024 564q-86 0 -146 60t-60 146q0 84 60 144t146 60t146 -60t60 -144q0 -86 -60 -146t-146 -60zM922 1180v408h-104q-45 0 -74 32q-28 31 -28 74h-716v202h716q0 44 28 74q29 32 74 32h412q44 0 73 -32t29 -74h716v-202h-716
q0 -41 -29 -73.5t-73 -32.5h-106v-408h-202z" />
</svg>