<svg xmlns="http://www.w3.org/2000/svg" xmlns:xlink="http://www.w3.org/1999/xlink" version="1.1" viewBox="-10 0 2068 2048">
   <path fill="currentColor"
d="M922 510v615l534 317l82 -120l-462 -279v-533h-154zM1846 1024v615h202v-615h-202zM1846 1846v202h202v-202h-202zM1638 1846q-267 202 -614 202q-278 0 -514 -137q-235 -136 -372 -373q-138 -236 -138 -514t138 -514q137 -237 372 -373q236 -137 514 -137q240 0 454 106
q214 107 360 293q146 185 190 418h-216q-68 -265 -288 -440t-500 -175q-223 0 -411.5 110t-300.5 301q-110 191 -110 411t110 411q111 190 300 300q191 111 412 111q176 0 340 -77q155 -72 274 -202v279z" />
</svg>