<svg xmlns="http://www.w3.org/2000/svg" xmlns:xlink="http://www.w3.org/1999/xlink" version="1.1" viewBox="-10 0 2058 2048">
   <path fill="currentColor"
d="M90 292l180 179q-43 21 -66 63q-22 43 -22 92v1067q0 71 52 123q52 53 122 53h1314l176 179l112 -113l-1752 -1756zM1782 446h-996l680 -283l-66 -163l-810 338l284 288h908v354h-178v-179h-180v179h-192l726 730v-1084q0 -76 -52 -128t-124 -52zM356 626h68l354 354
h-422v-354zM624 1160q112 0 189 77t77 187t-76 190q-77 79 -188 79q-110 0 -190 -79q-80 -80 -80 -190t80.5 -187t187.5 -77z" />
</svg>