<svg xmlns="http://www.w3.org/2000/svg" xmlns:xlink="http://www.w3.org/1999/xlink" version="1.1" viewBox="-10 0 2068 2048">
   <path fill="currentColor"
d="M1860 48h-1672q-78 0 -133 55t-55 128v1116q0 78 56 133q54 54 132 54h332l134 466l184 -187l186 187l188 -187l182 187l136 -466h330q80 0 134 -54t54 -133v-1116q0 -74 -54 -128q-56 -55 -134 -55zM1860 1347h-278v-183h-92v-467q0 -78 -54 -132q-54 -55 -132 -55h-558
q-78 0 -134 55q-54 54 -54 132v467h-92v183h-278v-1116h1672v1116zM746 1164v-467h558v467h-558z" />
</svg>