<svg xmlns="http://www.w3.org/2000/svg" xmlns:xlink="http://www.w3.org/1999/xlink" version="1.1" viewBox="-10 0 2058 2048">
   <path fill="currentColor"
d="M409 0q-86 0 -146 60q-61 61 -61 142v1231q0 85 61 146q60 60 146 60h101v207h-308v202h308q87 0 147 -60t60 -142v-207h206v207q0 82 60 142t142 60h308v-202h-308v-207h106q81 0 141 -60q61 -61 61 -146v-1231q0 -81 -61 -142q-60 -60 -141 -60h-822zM818 303
q86 0 146 60t60 144t-60 144t-144 60t-144 -60t-60 -144t60 -144t142 -60zM616 1279h408v154h-408v-154zM1639 1332h207v206h-207v-206zM1639 510h207v615h-207v-615z" />
</svg>