<svg xmlns="http://www.w3.org/2000/svg" xmlns:xlink="http://www.w3.org/1999/xlink" version="1.1" viewBox="-10 0 2068 2048">
   <path fill="currentColor"
d="M1274 1423l148 -149l216 221l216 -216l150 144l-222 216l222 217l-150 149l-216 -221l-216 221l-148 -149l220 -217l-216 -216h-4zM1846 1024q0 -256 -142 -462q-143 -207 -372 -298v44q0 81 -60 141q-62 61 -148 61h-202v206q0 44 -30 72q-33 29 -74 29h-202v207h614
q38 0 66 24q26 24 36 58q-141 82 -224 223q-84 142 -84 310q0 226 148 399l-148 10q-278 0 -514 -137q-235 -136 -372 -373q-138 -236 -138 -514t138 -514q137 -237 372 -373q236 -137 513.5 -137t514.5 137q236 137 372 373q138 236 138 514l-10 149q-87 -76 -192 -115v-34
zM922 1836v-197q-86 0 -146 -60t-60 -146v-101l-490 -491q-24 91 -24 183q0 205 96 382q97 176 259.5 291t364.5 139z" />
</svg>