<svg xmlns="http://www.w3.org/2000/svg" xmlns:xlink="http://www.w3.org/1999/xlink" version="1.1" viewBox="-10 0 2058 2048">
   <path fill="currentColor"
d="M1396 1408v-475h396q-43 -187 -161 -336l131 -135q-67 -75 -131 -130l-130 135q-113 -90 -244 -138q-136 -50 -279 -50q-226 0 -418 114q-194 115 -305 305q-113 193 -113 418q0 226 113 420t305 305q194 112 418 112q47 0 113 -9q-22 -65 -22 -131q0 -146 94 -261
q93 -114 233 -144zM1069 1212h-182v-654h182v654zM1257 188h-558v-188h558v188zM1906 1116v187h-183v510q0 96 -70 166q-69 69 -165 69t-164 -69q-67 -68 -67 -166q0 -96 67 -163q68 -68 164 -68q52 0 95 18v-484h323z" />
</svg>