<svg xmlns="http://www.w3.org/2000/svg" xmlns:xlink="http://www.w3.org/1999/xlink" version="1.1" viewBox="-10 0 2058 2048">
   <path fill="currentColor"
d="M1740 1529v-866q0 -196 -178 -283q-140 -68 -437 -72l77 -154h336v-154h-1028v154h490l-77 154q-282 9 -427 77q-188 87 -188 278v866q0 109 77 197q76 86 187 110l-163 164v48h231l202 -202h389l202 202h206v-48l-154 -154h-9q125 0 194 -89q70 -90 70 -228zM1024 1692
q-63 0 -108 -45q-46 -46 -46 -111q0 -64 46 -108q44 -43 108 -43t108 43q46 44 46 108q0 65 -46 111q-45 45 -108 45zM1538 1231h-1028v-515h1028v515z" />
</svg>