<svg xmlns="http://www.w3.org/2000/svg" xmlns:xlink="http://www.w3.org/1999/xlink" version="1.1" viewBox="-10 0 2068 2048">
   <path fill="currentColor"
d="M1268 1422l154 -160l234 238l236 -233l156 155l-238 233l238 233l-156 160l-236 -238l-234 233l-154 -155l232 -233zM884 0q238 0 442 60q206 60 324 160q118 101 118 222q0 122 -118 223q-118 100 -324 160q-200 59 -441.5 59t-442.5 -59q-205 -60 -322 -160
q-120 -101 -120 -223q0 -121 120 -222q117 -100 322 -160t442 -60zM0 662q0 119 120 220q117 100 322 160q204 60 442 60t442 -60q206 -60 324 -160q118 -101 118 -220v341l-112 -10q-212 0 -380 122q-171 123 -242 312l-150 6q-238 0 -442 -60q-205 -60 -322 -160
q-120 -101 -120 -220v-331zM0 1215q0 119 119.5 220t322.5 161q201 59 442 59h110q0 170 82 321l-192 10q-241 0 -442 -59q-203 -60 -322.5 -161t-119.5 -220v-331z" />
</svg>