<svg xmlns="http://www.w3.org/2000/svg" xmlns:xlink="http://www.w3.org/1999/xlink" version="1.1" viewBox="-10 0 2068 2048">
   <path fill="currentColor"
d="M1060 416q124 0 208 85q84 84 84 203q0 118 -78 201l-410 -411q82 -78 196 -78zM1060 220q132 0 244 66q113 66 178 178q68 114 68 245q0 191 -138 333l142 138q85 -90 136 -213q52 -121 52 -258q0 -186 -92 -343q-92 -156 -248 -247q-155 -91 -342 -91q-138 0 -258 50
q-123 52 -212 137l136 142q142 -137 334 -137zM2048 1925l-124 123l-138 -137q-55 64 -140 64h-1170q-84 0 -141 -57t-57 -135q0 -60 32 -101l174 -310q118 100 268 157q148 57 312 57q167 0 330 -68l-156 -151q-88 23 -178 23q-186 0 -342 -92q-157 -92 -248 -246
q-90 -155 -90 -343q0 -90 22 -179l-402 -406l124 -124zM1070 1198l-498 -498v9q0 131 66 244q66 114 178 179q112 66 244 66h10z" />
</svg>