<svg xmlns="http://www.w3.org/2000/svg" xmlns:xlink="http://www.w3.org/1999/xlink" version="1.1" viewBox="-10 0 2068 2048">
   <path fill="currentColor"
d="M1023.5 0q-277.5 0 -513.5 137q-235 136 -372 373q-138 236 -138 514t138 514q137 237 372 373q236 137 513.5 137t514.5 -137q236 -137 372 -373q138 -236 138 -514t-138 -514q-136 -236 -372 -373q-237 -137 -514.5 -137zM1024 1846q-221 0 -412 -111
q-189 -110 -300 -300q-110 -191 -110 -411t110 -411q112 -191 300.5 -301t411 -110t411 110t299.5 301q112 191 112 411t-112 411q-110 190 -300 300q-190 111 -410 111zM1556 1082l-138 -39l346 -91q-20 -82 -94.5 -125t-155.5 -19l-140 33l256 -250q-57 -62 -146 -62
q-87 0 -144 62l-100 101l38 -149l54 -197q-83 -24 -158 19q-73 42 -92 125l-40 140l-90 -346q-83 20 -126 93q-43 75 -18 157l34 139l-250 -255q-64 57 -64 144q0 88 64 145l100 101l-148 -39l-198 -53q-24 82 20 157q42 73 124 93l140 39l-346 91q19 82 93.5 125t156.5 19
l138 -33l-254 250q57 62 144.5 62t143.5 -62l102 -101l-40 149l-52 197q82 24 156 -19q74 -42 94 -125l38 -140l92 346q82 -20 124 -93q44 -75 20 -157l-34 -139l250 255q62 -56 62 -145q0 -88 -62 -144l-100 -101l148 39l198 53q24 -81 -20 -157q-43 -73 -126 -93z
M1024 1178q-62 0 -108 -46t-46 -108t46 -108t108 -46t108 46t46 108t-46 108t-108 46z" />
</svg>