<svg xmlns="http://www.w3.org/2000/svg" xmlns:xlink="http://www.w3.org/1999/xlink" version="1.1" viewBox="-10 0 2068 2048">
   <path fill="currentColor"
d="M376 375h182v183h-182v-183zM0 0h934v933h-934v-933zM188 188v557h558v-557h-558zM376 1491h182v183h-182v-183zM0 1116h934v932h-934v-932zM188 1303v558h558v-558h-558zM1116 1116h374v187h184v-187h374v187h-374v188h374v557h-374v-187h-370v187h-188v-187h188v-187
h-188v-558zM1860 1861v-187h-186v187h186zM1674 1491h-184v-188h-186v371h370v-183zM1490 96v279h-278v183h278v279h184v-279h278v-183h-278v-279h-184z" />
</svg>