<svg xmlns="http://www.w3.org/2000/svg" xmlns:xlink="http://www.w3.org/1999/xlink" version="1.1" viewBox="-10 0 2058 2048">
   <path fill="currentColor"
d="M268 154q0 -63 46 -109q46 -45 110 -45t108 43q46 44 46 109q0 66 -48 107t-106 41q-60 0 -108 -45t-48 -101zM1992 191l-44 -87l-778 396l50 91zM1880 1784l86 86q-85 84 -186 128q-111 50 -224 50h-1500v-128h258l206 -341l-224 -310l-78 -755q0 -68 50 -118t114 -50
q42 0 78 22l342 251l222 -78l78 155l-342 146l-58 -46q-152 -116 -202 -159l38 341l514 437l168 505h336q99 0 178 -41q73 -23 146 -95zM538 1920h486l-154 -377l-224 -187l114 246z" />
</svg>