<svg xmlns="http://www.w3.org/2000/svg" xmlns:xlink="http://www.w3.org/1999/xlink" version="1.1" viewBox="-10 0 2058 2048">
   <path fill="currentColor"
d="M636 1545q0 87 -58 148q-57 62 -138 62q-83 0 -140 -62q-58 -62 -58 -148t102 -243q41 -68 96 -132l50 64q60 84 96 151q50 94 50 160zM1458 973v-141l196 -110l230 59l50 -187l-174 -46l46 -174l-192 -50l-60 229l-192 109l-242 -141v-220l170 -164l-138 -137l-128 123
l-128 -123l-136 137l168 164v220l-246 141l-192 -109l-60 -229l-188 50l46 174l-168 46l50 187l224 -59l196 110v141h-540v96h1948v-96h-540zM782 973v-141l242 -142l242 142v141h-484zM1806 1545q0 87 -58 148q-57 62 -138 62q-83 0 -140 -62q-58 -61 -58 -148
q0 -86 102 -243q41 -68 96 -132l50 64q60 84 96 151q50 94 50 160zM1220 1837q0 87 -56 149q-58 62 -140 62t-140 -62q-56 -62 -56 -149q0 -85 100 -242q44 -72 96 -133l50 64q61 84 96 151q50 94 50 160z" />
</svg>