<svg xmlns="http://www.w3.org/2000/svg" xmlns:xlink="http://www.w3.org/1999/xlink" version="1.1" viewBox="-10 0 2068 2048">
   <path fill="currentColor"
d="M2048 1402q0 42 -4 58q-14 -180 -146 -304q-133 -124 -316 -124q-46 0 -100 14v8q8 39 8 62q0 165 -104 290q-106 124 -262 158q23 156 142 266q120 108 286 118q-26 4 -62 4q-143 0 -268 -66t-198 -178q-72 112 -198 178q-124 66 -268 66q-36 0 -60 -4q166 -10 282 -118
q120 -112 144 -266q-156 -34 -262 -158q-104 -124 -104 -290q0 -22 4 -52l6 -18q-55 -14 -102 -14q-182 0 -314 124q-133 124 -146 304q-6 -20 -6 -58q0 -144 76 -272q72 -122 194 -200q122 -76 272 -80q-76 -129 -76 -277.5t80 -278.5q77 -129 204 -198q-87 62 -140 158
q-52 97 -52 212q0 92 38 176q37 86 102 150q134 -134 326 -134q96 0 180 34q82 35 148 100q64 -64 102 -150q36 -84 36 -176q0 -115 -52 -212q-52 -96 -140 -158q128 69 206 198q78 128 78 278.5t-74 277.5q148 4 272.5 80.5t195.5 199.5q72 123 72 272zM772 850
q113 74 252.5 74t253.5 -74q-109 -100 -253.5 -100t-252.5 100zM1024 1254q58 0 99 -41t41 -98t-42 -97q-42 -42 -98 -42t-98 42q-40 40 -40 97t41 98t97 41zM928 1468q-9 -131 -80 -234.5t-190 -157.5l-4 40q0 127 76 224q78 99 198 128zM1390 1076q-114 54 -190 158
q-75 104 -84 234q121 -30 200 -128q78 -98 78 -224z" />
</svg>