<svg xmlns="http://www.w3.org/2000/svg" xmlns:xlink="http://www.w3.org/1999/xlink" version="1.1" viewBox="-10 0 2068 2048">
   <path fill="currentColor"
d="M838 1768v-186h-650q-78 0 -132 -54q-56 -56 -56 -134v-1116q0 -72 55 -127t133 -55h1672q78 0 134 54q54 54 54 128v376h-188v-376h-1672v1116h836v558h-370v-184h184zM1630 1302q-96 0 -166 68q-70 69 -70 164q0 96 70 166q70 68 166 68t164 -68q66 -69 66 -166
q0 -96 -66 -164q-68 -68 -164 -68zM2048 836v1024q0 40 -28 66q-31 26 -68 26h-648q-40 0 -66 -26t-26 -66v-1024q0 -33 25.5 -62.5t66.5 -29.5h648q38 0 68 30q28 28 28 62zM1490 976q0 62 39 101t99 39q58 0 100 -39t42 -98t-42 -101t-100 -42q-60 0 -98 42q-40 42 -40 98
zM1952 1534q0 -136 -94 -230q-92 -92 -228 -92q-134 0 -230 93t-96 229q0 134 96 230t230 96q136 0 228 -96q94 -97 94 -230z" />
</svg>