<svg xmlns="http://www.w3.org/2000/svg" xmlns:xlink="http://www.w3.org/1999/xlink" version="1.1" viewBox="-10 0 2058 2048">
   <path fill="currentColor"
d="M51 276l126 -126l1771 1771l-126 127l-253 -258q-164 -5 -286 -89q-114 -76 -176 -190q-63 -115 -63 -241l-117 -117q-38 47 -38 112q0 126 50 244t138 206q72 72 145 113t183 70q19 5 28 23t4 38t-16 28q-12 9 -30 9h-14q-119 -33 -204 -82q-91 -51 -167 -128
q-104 -104 -159 -239q-56 -138 -56 -282q0 -103 66 -182l-108 -108q-113 127 -113 290q0 221 89 385q47 81 89 136q29 37 99 107q14 14 14 33q0 18 -17 35t-35 17t-32 -14q-71 -71 -113 -125q-43 -55 -89 -143q-108 -187 -108 -431q0 -105 40 -197q41 -95 106 -164
l-108 -107q-87 82 -136 187q-56 123 -56 281q0 185 65 361q5 21 -2 38q-8 18 -28 25q-21 7 -40 -2t-23 -28q-75 -192 -75 -394q0 -183 70 -323q62 -128 155 -216l-103 -103q-59 58 -108 127q-15 19 -38 19l-32 -10q-15 -10 -19 -30q-5 -21 9 -35q55 -80 117 -141zM1681 244
l-23 -5q-145 -75 -277 -108q-131 -33 -281 -33q-299 0 -557 141l-14 5l-57 -57q0 -23 24 -37q276 -150 604 -150q157 0 305 35q140 33 299 115q19 10 24 30q4 22 -5 36q-14 28 -42 28zM1615 366q226 113 375 323q10 15 7 35q-3 21 -19 33q-17 12 -37 9q-22 -3 -35 -16
q-129 -190 -333 -295q-202 -104 -433 -113q-233 -9 -438 75l-75 -75q227 -103 497 -98q265 4 491 122zM1100 726q153 0 284 73q127 71 206 197q77 123 77 269q0 20 -16 33q-17 14 -36 14l-23 -4l-19 -19l-9 -24q0 -178 -134 -307q-133 -129 -320 -133l-94 -94zM1339 1621
q49 35 108 52l-286 -286q46 145 178 234zM1822 1265q0 -187 -99 -344q-100 -159 -264 -249q-166 -91 -364 -91q-104 0 -201 28l-80 -79q143 -52 281 -52q226 0 415 105q190 106 300 286q110 181 110 396q0 70 -35 134q-35 63 -96 105l-71 -70q47 -29 75 -73q29 -46 29 -96z
" />
</svg>