<svg xmlns="http://www.w3.org/2000/svg" xmlns:xlink="http://www.w3.org/1999/xlink" version="1.1" viewBox="-10 0 2068 2048">
   <path fill="currentColor"
d="M462 308q-68 0 -111 43t-43 108q0 67 42 111q44 45 110 45q64 0 110 -45q46 -46 46 -111q0 -64 -46 -108q-45 -43 -108 -43zM462 308q-68 0 -111 43t-43 108q0 67 42 111q44 45 110 45q64 0 110 -45q46 -46 46 -111q0 -64 -46 -108q-45 -43 -108 -43zM1990 981l-924 -923
q-64 -58 -144 -58h-720q-82 0 -142 60t-60 142v721q0 81 58 144l44 39q100 -57 210 -72l-110 -111v-721h720l924 923l-722 721l-110 -111q-14 109 -72 212l38 43q65 58 146 58q84 0 142 -58l722 -721q58 -58 58 -142q0 -82 -58 -146zM462 308q-68 0 -111 43t-43 108
q0 67 42 111q44 45 110 45q64 0 110 -45q46 -46 46 -111q0 -64 -46 -108q-45 -43 -108 -43zM408 1538v409h208v-409h202l-308 -307l-308 307h206z" />
</svg>