<svg xmlns="http://www.w3.org/2000/svg" xmlns:xlink="http://www.w3.org/1999/xlink" version="1.1" viewBox="-10 0 2068 2048">
   <path fill="currentColor"
d="M1562 839q-202 0 -344 142q-140 141 -140 344t141 344t344 141t344 -141t141 -344t-142 -344q-142 -142 -344 -142zM1562 1648q-136 0 -229 -93t-93 -230q0 -77 44 -162l440 440q-85 45 -162 45zM1840 1487l-440 -445q57 -41 162 -41q138 0 230 91q94 92 94 233
q0 75 -46 162zM1088 804l-162 -162l358 -354q45 -50 112 -50t112 50l236 228q61 56 46 136q-96 -30 -218 -30q-262 0 -484 182zM916 1583l-162 151q-53 46 -114 46t-114 -46l-76 76h-450l300 -303q-46 -52 -46 -114t46 -114l510 -505l172 171q-122 172 -122 380
q0 112 56 258z" />
</svg>