<svg xmlns="http://www.w3.org/2000/svg" xmlns:xlink="http://www.w3.org/1999/xlink" version="1.1" viewBox="-10 0 2068 2048">
   <path fill="currentColor"
d="M2048 1933l-1920 -1933l-128 128l188 187v1568h196q0 46 25 71t71 25t71 -25t25 -71h978q0 46 25 71t71 25t70 -25q26 -26 26 -71h10l168 165zM384 713v-206l202 206h-202zM1066 1686q-160 0 -274 -114q-116 -115 -116 -274q0 -99 46 -185q45 -84 128 -135l536 535
q-52 83 -136 128t-184 45zM1262 420v96h-196v-96h196zM868 420q46 0 74 28t28 68q0 23 -24 60l-132 -138q36 -18 54 -18zM696 324l-198 -196h274q0 -45 28 -71q27 -25 68 -25h394q42 0 68 25q28 25 28 71h584v1444l-858 -859h662v-389h-1050zM1454 420v197h-96v-197h96z
M1650 420v197h-96v-197h96z" />
</svg>