<svg xmlns="http://www.w3.org/2000/svg" xmlns:xlink="http://www.w3.org/1999/xlink" version="1.1" viewBox="-10 0 2058 2048">
   <path fill="currentColor"
d="M1858 1342l-214 211l-212 -211l-140 141l212 210l-212 215l140 140l212 -215l214 215l140 -140l-214 -215l214 -210zM1694 150l-148 -150l-150 150l-150 -150l-150 150l-150 -150l-148 150l-150 -150l-150 150l-150 -150l-148 150l-150 -150v1992l150 -149l148 149
l150 -149l150 149l150 -149l148 149l128 -126q-28 -83 -28 -173q0 -100 36 -196h-734v-202h852q84 -93 201 -147t243 -54q102 0 200 38v-1132zM1546 1094h-1198v-196h1198v196zM1546 697h-1198v-201h1198v201z" />
</svg>