<svg xmlns="http://www.w3.org/2000/svg" xmlns:xlink="http://www.w3.org/1999/xlink" version="1.1" viewBox="-10 0 2068 2048">
   <path fill="currentColor"
d="M1846 0h-1644q-82 0 -142 60t-60 142v1846l408 -409h1438q82 0 142 -60t60 -146v-1231q0 -82 -60 -142t-142 -60zM1846 1433h-1520l-124 125v-1356h1644v1231zM1042 356q-128 0 -216 53q-96 68 -82 173h208q0 -43 28 -63q43 -19 72 -19q54 0 85 31t31 67q0 37 -20 75
q-45 45 -62 53q-73 46 -116 82q-29 25 -38 48q-10 27 -10 67h202q0 -16 10 -43v-29q9 -14 34 -34l18 -19q65 -24 116 -91q38 -56 38 -125q0 -106 -80 -173q-69 -53 -218 -53zM922 1024v207h202v-207h-202z" />
</svg>