<svg xmlns="http://www.w3.org/2000/svg" xmlns:xlink="http://www.w3.org/1999/xlink" version="1.1" viewBox="-10 0 2068 2048">
   <path fill="currentColor"
d="M1466 1290h-94l-32 -33q180 -214 180 -494q0 -211 -100 -385q-102 -175 -278 -277q-173 -101 -382 -101q-207 0 -380 101q-176 102 -278 277q-102 176 -102 382t102 382q102 175 278 277q175 102 384 102q278 0 494 -182l32 33v94l582 582l176 -176zM764 1290
q-220 0 -374 -154t-154 -373q0 -220 154 -374q154 -153 374 -153t372 153q154 154 154 374q0 219 -154 373t-372 154zM928 1010l-164 -165l-166 165l-86 -82l170 -165l-170 -165l86 -88l166 170l164 -170l82 88l-164 165l164 165z" />
</svg>