<svg xmlns="http://www.w3.org/2000/svg" xmlns:xlink="http://www.w3.org/1999/xlink" version="1.1" viewBox="-10 0 2068 2048">
   <path fill="currentColor"
d="M1306 1402l148 -152l220 226l226 -222l148 148l-226 222l226 220l-148 152l-226 -226l-220 222l-148 -148l222 -220zM0 52h1886v210q-88 0 -150 62t-62 146v524q-166 0 -311.5 84t-230.5 228q-86 147 -86 318q0 173 84 314h-712q-84 0 -144 -62q-62 -62 -62 -150v-1256
q0 -84 -62 -146t-150 -62v-210zM418 680v104h314v-104h-314zM418 892v102h314v-102h-314zM732 1412v-104h-314v104h314zM944 1206v-108h-526v108h526zM944 578v-108h-526v108h526z" />
</svg>