<svg xmlns="http://www.w3.org/2000/svg" xmlns:xlink="http://www.w3.org/1999/xlink" version="1.1" viewBox="-10 0 2068 2048">
   <path fill="currentColor"
d="M202 510q-82 0 -142 60t-60 146v616q0 86 60 146t142 60h206q88 0 148 -60t60 -146v-101h-208v101h-206v-616h206v101h208v-101q0 -86 -60 -146t-148 -60h-206zM922 510q-86 0 -146 60t-60 146v616q0 86 60 146t146 60h202q88 0 148 -60t60 -146v-616q0 -86 -60 -146
t-148 -60h-202zM922 716h202v616h-202v-616zM1638 510q-86 0 -146 60t-60 146v207q0 82 60 142t146 60h208v207h-414v206h414q82 0 142 -60t60 -146v-207q0 -82 -60 -142t-142 -60h-208v-207h410v-206h-410z" />
</svg>