<svg xmlns="http://www.w3.org/2000/svg" xmlns:xlink="http://www.w3.org/1999/xlink" version="1.1" viewBox="-10 0 2068 2048">
   <path fill="currentColor"
d="M1942 1920q-159 0 -308 -77q-141 77 -306 77t-310 -77q-140 77 -304.5 77t-305.5 -77q-152 86 -408 77v-207q124 5 212 -14q109 -24 196 -87q136 96 306 96t304 -96q140 96 310 96q171 0 306 -96q87 63 196 87q84 19 212 14v207h-100zM2048 127l-1524 250l614 639z
M904 1444l114 -82l120 82q89 58 188 58l48 -5l-1048 -1082q-65 98 -98 224q-31 123 -26 247l590 606q64 -15 112 -48z" />
</svg>