<svg xmlns="http://www.w3.org/2000/svg" xmlns:xlink="http://www.w3.org/1999/xlink" version="1.1" viewBox="-10 0 2068 2048">
   <path fill="currentColor"
d="M202 308q-82 0 -142 60t-60 142v1028q0 82 60 142t142 60h1644q82 0 142 -60t60 -142v-1028q0 -82 -60 -142t-142 -60h-1644zM202 510h1644v1028h-1644v-1028zM308 615v202h202v-202h-202zM616 615v202h202v-202h-202zM922 615v202h202v-202h-202zM1230 615v202h202v-202
h-202zM1538 615v202h202v-202h-202zM308 923v202h202v-202h-202zM616 923v202h202v-202h-202zM922 923v202h202v-202h-202zM1230 923v202h202v-202h-202zM1538 923v202h202v-202h-202zM616 1231v202h816v-202h-816z" />
</svg>