<svg xmlns="http://www.w3.org/2000/svg" xmlns:xlink="http://www.w3.org/1999/xlink" version="1.1" viewBox="-10 0 2058 2048">
   <path fill="currentColor"
d="M1116 188q180 0 330 87q151 88 238 237q86 150 86 325q0 190 -102 351q-102 159 -272 237v436h-650v-279h-90q-80 0 -134 -54q-54 -55 -54 -133v-279h-140q-29 0 -42.5 -26t4.5 -48l178 -236q9 -172 98 -311q90 -141 236 -224t314 -83zM1116 0q-208 0 -388 98
q-183 99 -299.5 266t-138.5 373l-148 196q-41 50 -46 113q-6 66 24 127q51 104 160 126v96q0 131 82 231q80 100 198 130v292h1022v-514q177 -119 274 -300q98 -184 98 -397q0 -226 -112 -418q-109 -190 -304 -305q-194 -114 -422 -114zM1070 1116l-324 -323l132 -130
l192 191l382 -387l130 130z" />
</svg>