<svg xmlns="http://www.w3.org/2000/svg" xmlns:xlink="http://www.w3.org/1999/xlink" version="1.1" viewBox="-10 0 2068 2048">
   <path fill="currentColor"
d="M1952 1582h-462q-38 0 -68 -26q-28 -26 -28 -66v-932q0 -40 28 -66q30 -26 68 -26h462q38 0 68 26q28 26 28 66v932q0 40 -28 66q-30 26 -68 26zM1952 654h-462v90h462v-90zM1952 836h-462v96h462v-96zM746 1302v188h92v92h-462v-92h90v-188h-370q-37 0 -66.5 -25.5
t-29.5 -64.5v-654q0 -40 29.5 -66t66.5 -26h1020q38 0 68 26q28 26 28 66v654q0 39 -28 64q-30 26 -68 26h-370zM1024 654h-836v462h836v-462z" />
</svg>