<svg xmlns="http://www.w3.org/2000/svg" xmlns:xlink="http://www.w3.org/1999/xlink" version="1.1" viewBox="-10 0 2068 2048">
   <path fill="currentColor"
d="M1692 1231q-150 0 -250 101h-688l-374 -1231h-380v207h230l280 927l-48 -4q-151 0 -256 103q-104 104 -104 252t104 255q105 106 256 106q105 0 192 -55q85 -55 130 -152h580q49 97 136 152q86 55 192 55q148 0 252 -106q104 -107 104 -255t-104 -252
q-104 -103 -252 -103zM462 1740q-68 0 -111 -43t-43 -108q0 -67 42 -111q44 -45 110 -45q64 0 110 45q46 46 46 111q0 64 -46 108q-45 43 -108 43zM1692 1740q-68 0 -110 -43q-44 -44 -44 -108q0 -65 44 -111q43 -45 108 -45q64 0 110 45q46 46 46 111q0 64 -46 108
q-45 43 -108 43zM832 1231l-64 -207h332q58 0 108 31q52 31 76 84l48 92h-500z" />
</svg>