<svg xmlns="http://www.w3.org/2000/svg" xmlns:xlink="http://www.w3.org/1999/xlink" version="1.1" viewBox="-10 0 2068 2048">
   <path fill="currentColor"
d="M664 1332q43 0 73.5 28t30.5 73q0 43 -31 74t-73 31q-44 0 -72 -31q-30 -32 -30 -74q0 -44 30 -73q28 -28 72 -28zM510 716h1028v515h-1028v-515zM1384 1332q44 0 72 28t28 73q0 43 -28 74t-72 31t-75 -31t-31 -74q0 -45 31 -73t75 -28zM1638 1423v-707q0 -183 -178 -255
q-138 -52 -436 -52q-285 0 -424 52q-192 72 -192 255v707q0 111 79 190t191 79l-116 116v38h174l154 -154h288l154 154h152v-38l-114 -116q110 0 189 -79t79 -190zM1620 82q202 76 314 240q114 164 114 380v1346h-2048v-1346q0 -216 114 -380q112 -164 314 -240
q125 -53 298 -68q112 -14 298 -14t298 14q172 15 298 68z" />
</svg>