<svg xmlns="http://www.w3.org/2000/svg" xmlns:xlink="http://www.w3.org/1999/xlink" version="1.1" viewBox="-10 0 2058 2048">
   <path fill="currentColor"
d="M409 0h1230q87 0 147 60t60 142v1644q0 82 -60 142t-147 60h-1230q-86 0 -146 -60q-61 -61 -61 -142v-1644q0 -81 61 -142q60 -60 146 -60zM1024 202q-168 0 -310 84t-223 226q-82 144 -82 308t84 307q85 144 226 224q144 82 315 82l-92 -226q-19 -39 -7 -80
q12 -40 46 -60l91 -53q32 -19 75 -9q41 9 65 48l197 245q105 -87 168 -212q62 -123 62 -269q0 -161 -82 -305q-81 -142 -223 -226q-143 -84 -310 -84zM1024 716q43 0 72 29t29 72t-29 75q-28 31 -72 31t-72 -31q-29 -32 -29 -75t29 -72t72 -29zM510 1639q-43 0 -72 29
t-29 72t29 75q28 31 72 31q43 0 74 -31q32 -32 32 -75t-32 -72t-74 -29zM1034 1154l254 649l265 -154l-433 -548z" />
</svg>