<svg xmlns="http://www.w3.org/2000/svg" xmlns:xlink="http://www.w3.org/1999/xlink" version="1.1" viewBox="-10 0 2058 2048">
   <path fill="currentColor"
d="M1231 1332q0 86 -60 146t-147 60q-86 0 -146 -60t-60 -146q0 -87 60 -147t146 -60q87 0 147 60t60 147zM1639 202v1644q0 82 -60 142t-146 60h-817q-87 0 -147 -60t-60 -142v-1644q0 -82 60 -142t147 -60h817q86 0 146 60t60 142zM870 510q0 66 46 110q44 43 108 43
t108 -43q46 -44 46 -108q0 -65 -46 -111q-45 -45 -108 -45t-108 45q-46 46 -46 109zM1433 817h-817v1029h817v-1029z" />
</svg>