<svg xmlns="http://www.w3.org/2000/svg" xmlns:xlink="http://www.w3.org/1999/xlink" version="1.1" viewBox="-10 0 2058 2048">
   <path fill="currentColor"
d="M1946 923q0 -249 -124 -464q-123 -211 -338 -336q-211 -123 -460.5 -123t-461.5 123q-214 125 -336 336q-124 214 -124 464q0 299 170 536q170 238 444 334v255h206v-212q37 10 101.5 10t100.5 -10v212h208v-255q272 -95 443 -333.5t171 -536.5zM1024 1639
q-192 0 -358 -96q-167 -96 -262 -262q-96 -167 -96 -360q0 -195 96 -359q95 -163 262 -262q164 -98 357.5 -98t358.5 98q166 99 262 262q96 164 96 359q0 193 -96 360q-96 166 -262 262q-167 96 -358 96zM616 510h816v206h-816v-206zM1100 817l-308 308l130 130l-130 130
l154 153l308 -307l-130 -130l130 -130z" />
</svg>