<svg xmlns="http://www.w3.org/2000/svg" xmlns:xlink="http://www.w3.org/1999/xlink" version="1.1" viewBox="-10 0 2066 2048">
   <path fill="currentColor"
d="M1122 0q240 24 442 151q201 126 329 330q128 203 147 442q29 275 -84 522q-112 246 -334 408t-500 190v-207q278 -33 478 -233q199 -199 238 -478q24 -221 -60 -423q-83 -201 -260 -334q-176 -133 -396 -161v-207zM920 5v206q-222 28 -403 169l-145 -149
q237 -198 548 -226zM228 375l144 144q-135 179 -168 404h-202q29 -311 226 -548zM2 1125h207q24 222 163 404l-144 144q-197 -241 -226 -548zM517 1678q183 140 403 168v202q-306 -33 -548 -231zM1021 1485l-461 -461h360v-409h202v409h360z" />
</svg>