<svg xmlns="http://www.w3.org/2000/svg" xmlns:xlink="http://www.w3.org/1999/xlink" version="1.1" viewBox="-10 0 2068 2048">
   <path fill="currentColor"
d="M690 320l-196 -196h1056l388 388v1056l-196 -196v-778l-276 -274h-776zM1352 805v-389h-566l394 389h172zM2048 1925l-124 123l-174 -169h-1370q-82 0 -140 -57q-58 -58 -58 -140v-1371l-182 -187l124 -124zM1558 1682l-246 -242q-36 68 -104 108q-64 38 -148 38
q-124 0 -208 -84q-84 -85 -84 -208q0 -83 38 -149q40 -67 108 -103l-234 -237h-204v-206l-96 -96v1179h1178z" />
</svg>