<svg xmlns="http://www.w3.org/2000/svg" xmlns:xlink="http://www.w3.org/1999/xlink" version="1.1" viewBox="-10 0 2060 2048">
   <path fill="currentColor"
d="M762 1740l227 -228h-551v-217h758v15l228 -233h-986v-212h1082v121l131 -136q81 -81 197 -81q49 0 101 20v-571q0 -92 -63 -155t-154 -63h-1506q-91 0 -154 63q-64 64 -64 155v1507q0 90 64 154q63 63 154 63h536v-202zM438 430h1082v217h-1082v-217zM2025 1224l-106 106
l-222 -217l106 -112q19 -15 43 -15t43 15l136 142q15 15 15 40q0 26 -15 41zM979 1826l652 -653l222 223l-652 652h-222v-222z" />
</svg>