<svg xmlns="http://www.w3.org/2000/svg" xmlns:xlink="http://www.w3.org/1999/xlink" version="1.1" viewBox="-10 0 2068 2048">
   <path fill="currentColor"
d="M502 880l106 -100l-106 -106l106 -106l208 212l-208 206zM226 728h10q85 -219 286 -356q197 -136 442 -136q157 0 299.5 60t252.5 166q18 -80 80 -190q-129 -110 -294 -170q-163 -60 -338 -60q-234 0 -440 104q-206 103 -344 286q-137 179 -180 408q43 -52 102 -82
q60 -30 124 -30zM1848 876q-53 0 -114 -22q18 91 18 170q0 214 -105.5 394.5t-288.5 287.5q-181 106 -394 106q-245 0 -442 -136q-201 -137 -286 -356h-10q-78 0 -148 -42q-43 -22 -78 -66q43 225 180 404q138 183 344 286q206 104 440 104q267 0 494 -132
q225 -131 356 -356q132 -225 132 -494q0 -65 -14 -162q-49 14 -84 14zM1848 138q-32 45 -50 78q-58 92 -96 166q-52 102 -52 148q0 84 58 142q58 56 140 56q84 0 142 -56q58 -58 58 -142q0 -64 -102 -234q-50 -94 -98 -158zM1318 568l-206 212l206 206l106 -106l-106 -100
l106 -106zM628 1518q51 -94 140 -146q90 -52 195.5 -52t196.5 52q90 53 140 146h166q-59 -157 -196 -252q-137 -94 -306 -94q-130 0 -240 54l-350 -202q0 -37 -18 -72q-19 -35 -56 -58q-57 -27 -114 -10q-56 16 -86 68.5t-16 111.5q13 56 68 90q33 18 74 18q40 0 74 -18
l290 170q-82 77 -128 194h166z" />
</svg>