<svg xmlns="http://www.w3.org/2000/svg" xmlns:xlink="http://www.w3.org/1999/xlink" version="1.1" viewBox="-10 0 2058 2048">
   <path fill="currentColor"
d="M1231 0h-822q-86 0 -146 60q-61 61 -61 142v1644q0 81 61 142q60 60 146 60h1230q87 0 147 -60t60 -142v-1231zM1639 1846h-1230v-1644h716v514h514v1130zM1351 899q-39 -39 -94 -60q-58 -22 -151 -22h-389v923h163v-336h226q93 0 146 -17q52 -17 99 -55q82 -68 82 -217
q0 -71 -17 -120q-16 -47 -65 -96zM1221 1231q-29 24 -55 36q-27 12 -70 12h-216v-327h207q81 0 134 53q39 39 39 110q0 72 -39 116z" />
</svg>