<svg xmlns="http://www.w3.org/2000/svg" xmlns:xlink="http://www.w3.org/1999/xlink" version="1.1" viewBox="-10 0 2068 2048">
   <path fill="currentColor"
d="M1024 0q189 0 358 62q170 63 310 183q-169 144 -264 346q-96 202 -96 432.5t96 433.5q95 202 264 346q-138 119 -310 182t-359 63t-357 -63q-173 -63 -310 -182q168 -144 264 -346q96 -205 96 -433t-96 -433q-96 -202 -264 -346q139 -120 310 -183q168 -62 358 -62z
M2048 1024q0 172 -56 334q-56 160 -162 296q-139 -116 -216 -279q-76 -165 -76 -351t76 -351q77 -163 216 -279q106 136 162 296q56 162 56 334zM0 1024q0 -175 56 -334q55 -160 160 -296q140 116 216 279q78 165 78 351t-78 351q-76 163 -216 279q-105 -136 -160 -296
q-56 -159 -56 -334z" />
</svg>