<svg xmlns="http://www.w3.org/2000/svg" xmlns:xlink="http://www.w3.org/1999/xlink" version="1.1" viewBox="-10 0 2068 2048">
   <path fill="currentColor"
d="M1332 1740q-161 0 -308 -67q-148 67 -308 67q-197 0 -360 -96q-164 -96 -260 -259t-96 -360.5t96 -361.5q96 -163 260 -259q163 -96 360 -96q160 0 308 67q147 -67 308 -67q196 0 360 96q164 97 260 259q96 164 96 361.5t-96 360.5q-96 162 -260 259q-164 96 -360 96z
M716 1538l102 -14q-97 -97 -150 -228q-52 -133 -52 -272t52 -272q53 -132 150 -233l-102 -9q-140 0 -256 69q-120 71 -188 188q-70 120 -70 257t70 257q68 117 188 188q116 69 256 69zM1024 1433q94 -71 150 -181q56 -109 56 -228t-56 -228q-56 -110 -150 -181
q-95 71 -152 181q-54 107 -54 228t54 228q57 110 152 181z" />
</svg>