<svg xmlns="http://www.w3.org/2000/svg" xmlns:xlink="http://www.w3.org/1999/xlink" version="1.1" viewBox="-10 0 2068 2048">
   <path fill="currentColor"
d="M2048 410v360l-154 48l-158 -250q-10 -21 -27 -12q-16 7 -16 26v366q0 146 -106 258v740h-254v-614h-24q-20 0 -68 -6l-451 -76l-115 206l96 490h-260l-100 -484q-5 -54 14 -92l106 -182q-79 -45 -123 -120q-46 -78 -50 -164q-5 24 0 68v38q9 98 7 146q-3 58 -26 108
t-58 96q-56 66 -144 110l-67 -72l4 -18q34 -79 34 -110q9 -51 -9 -96l-53 -122q-53 -116 -44 -216q0 -66 39 -140q39 -77 101 -124q125 -81 273 -52q77 15 149 72q58 -30 130 -30h586v-52q0 -168 120 -288t293 -120h355l-91 140q42 23 67 68q24 46 24 100z" />
</svg>