<svg xmlns="http://www.w3.org/2000/svg" xmlns:xlink="http://www.w3.org/1999/xlink" version="1.1" viewBox="-10 0 2068 2048">
   <path fill="currentColor"
d="M1442 1116h-138v344l296 170l70 -118l-228 -135v-261zM1394 745q-129 0 -252 53q-122 53 -208 144v-384h556l184 -183l-184 -187h-556v-92l-96 -96l-92 96v371h-558l-188 187l188 183h558v932q-78 0 -134 55q-54 54 -54 129h506q151 95 330 95q180 0 330 -87t237 -237
t87 -327t-87 -327t-237 -237q-152 -88 -330 -88zM1394 1848q-122 0 -224 -61q-101 -61 -162 -166q-62 -104 -62 -226q0 -124 62 -225q61 -102 162 -163q102 -61 224.5 -61t227.5 61q103 60 164 163q62 101 62 225q0 122 -62 226q-61 106 -164 166q-105 61 -228 61z" />
</svg>