<svg xmlns="http://www.w3.org/2000/svg" xmlns:xlink="http://www.w3.org/1999/xlink" version="1.1" viewBox="-10 0 2068 2048">
   <path fill="currentColor"
d="M1640 1638q-86 0 -146 60t-60 144t60 144t144 60t144 -60t60 -144t-60 -144t-142 -60zM0 2v202h206l370 776l-140 254q-24 44 -24 96q0 86 60 146t142 60h1228v-206h-1186q-8 0 -16 -6q-8 -8 -8 -17t6 -15l90 -168h764q56 0 104 -28q48 -29 72 -78l364 -662
q16 -28 16 -48q0 -41 -30 -74q-28 -30 -72 -30h-1514l-96 -202h-336zM614 1638q-82 0 -142 60t-60 144t60 144t144 60t144 -60t60 -145t-60 -143q-60 -60 -146 -60z" />
</svg>