<svg xmlns="http://www.w3.org/2000/svg" xmlns:xlink="http://www.w3.org/1999/xlink" version="1.1" viewBox="-10 0 2058 2048">
   <path fill="currentColor"
d="M1076 940h424l-212 -216l120 -120l420 420l-420 420l-120 -120l212 -216h-424v-168zM904 1536q-139 0 -258 -68q-118 -68 -186 -186q-68 -119 -68 -258t68 -258q68 -118 186 -186q119 -68 258 -68q177 0 316 112l120 -124l-12 -12l-84 -488h-680l-84 488
q-119 95 -190 236q-70 139 -70 300t70 300q71 141 190 236l84 488h680l84 -488l12 -12l-120 -124q-139 112 -316 112z" />
</svg>