<svg xmlns="http://www.w3.org/2000/svg" xmlns:xlink="http://www.w3.org/1999/xlink" version="1.1" viewBox="-10 0 2068 2048">
   <path fill="currentColor"
d="M1588 564q123 0 230 62q106 62 168 168q62 107 62 230t-62 230q-62 106 -168 168q-107 62 -230 62q-192 0 -328 -136l-236 -208l-240 212q-63 63 -148 98q-83 34 -176 34q-123 0 -230 -62q-106 -62 -168 -168q-62 -107 -62 -230t62 -230q62 -106 168 -168
q107 -62 230 -62q92 0 176 36q86 37 152 100l236 208l240 -212q63 -63 148 -98q83 -34 176 -34zM664 1228l232 -204l-228 -200q-88 -88 -208 -88t-204 84t-84 204t84 204t204 84t204 -84zM1384 820l-232 204l228 200q88 88 208 88t204 -84t84 -204t-84 -204t-204 -84
t-204 84z" />
</svg>