<svg xmlns="http://www.w3.org/2000/svg" xmlns:xlink="http://www.w3.org/1999/xlink" version="1.1" viewBox="-10 0 2068 2048">
   <path fill="currentColor"
d="M1984 1082h-874q-68 0 -130 28q-60 27 -100 77q-41 54 -96 85q-57 31 -130 31q-110 0 -192 -82t-82 -197t82 -195q80 -79 192 -79q72 0 130 29q56 28 96 86v-4q39 53 100 81q65 29 130 29h866q24 0 42 -14q30 -20 30 -68q-33 -214 -182 -391q-148 -178 -364 -277
q-221 -101 -474 -101q-230 0 -436 87q-208 87 -352 235q-39 58 30 63h562q65 0 130 -29q60 -27 100 -77q40 -53 98 -84q60 -31 128 -31q116 0 196 81q82 82 82 197q0 116 -82 198q-80 81 -196 81q-68 0 -128 -31q-57 -30 -98 -89v5q-39 -48 -100 -79q-64 -32 -130 -32h-616
h6l-30 5q-31 5 -58 19q-36 18 -62 53q-33 49 -52 144q-20 94 -20 188q0 192 72 336q29 49 92 68q31 5 58 5h-6h616q65 0 130 -29q60 -27 100 -77q40 -53 98 -84q61 -32 128 -32q115 0 196 80q82 80 82 194q0 116 -82 198q-80 81 -196 81q-68 0 -128 -31q-58 -31 -98 -84v5
q-40 -55 -100 -82q-65 -29 -130 -29h-562q-64 9 -34 58q141 152 350 240q208 87 442 87q255 0 476 -101q220 -100 366 -277q145 -177 178 -391q0 -38 -20 -58q-20 -19 -44 -19z" />
</svg>