<svg xmlns="http://www.w3.org/2000/svg" xmlns:xlink="http://www.w3.org/1999/xlink" version="1.1" viewBox="-10 0 2068 2048">
   <path fill="currentColor"
d="M0 229q0 -95 67 -162t163 -67h1588q96 0 164 67q66 66 66 162v1590q0 96 -66 162q-68 67 -164 67h-1588q-96 0 -163 -67t-67 -162v-1590zM1082 912h-116q-70 0 -121 -51t-51 -122q0 -72 51 -120t121 -48h116q70 0 121 48t51 122h224q0 -164 -115 -282t-281 -118h-116
q-166 0 -280 118q-114 117 -114 282q0 166 114 280q114 115 280 115h116q70 0 121 51t51 122q0 72 -51 120t-121 48h-116q-70 0 -121 -48t-51 -122h-222q0 165 114 282q114 118 280 118h116q166 0 281 -118t115 -282q0 -165 -115 -280t-281 -115z" />
</svg>