<svg xmlns="http://www.w3.org/2000/svg" xmlns:xlink="http://www.w3.org/1999/xlink" version="1.1" viewBox="-10 0 2068 2048">
   <path fill="currentColor"
d="M198 118q-80 0 -139 59t-59 144v1406q0 85 59 144t139 59h806q86 0 145 -59t59 -144v-1406q0 -85 -59 -144t-145 -59h-806zM604 321q80 0 139 59t59 141q0 83 -59 142t-141 59t-141 -59t-59 -142q0 -82 59 -141t143 -59zM1708 519v382l-232 -231l-70 71l282 283l-282 283
l70 71l232 -231v382h52l288 -288l-218 -217l218 -217l-288 -288h-52zM1812 713l94 94l-94 94v-188zM604 925q166 0 284 118q116 117 116 283t-116 283q-118 118 -286 118t-286 -118t-118 -283t118 -283t288 -118zM604 1123q-84 0 -143 59t-59 144t59 144t141 59t141 -59
t59 -144t-59 -144t-139 -59zM1812 1147l94 94l-94 94v-188z" />
</svg>