<svg xmlns="http://www.w3.org/2000/svg" xmlns:xlink="http://www.w3.org/1999/xlink" version="1.1" viewBox="-10 0 2068 2048">
   <path fill="currentColor"
d="M1606 350v-98q0 -84 -59 -143t-139 -59h-202q-86 0 -145 59t-59 143v98h-196v-98q0 -84 -59 -143t-143 -59h-204q-80 0 -138 58t-58 144v98h-204v1408h886q-121 -125 -162 -294q-41 -167 4 -332q44 -164 166 -286t290 -168q168 -45 332 -4q166 40 292 162v-486h-202z
M1738 1546q93 -144 64 -314q-28 -171 -161.5 -279t-308.5 -99q-172 9 -296 130q-122 119 -132 292q-9 173 98 308q108 137 278.5 165.5t315.5 -61.5l310 310l142 -140zM1356 1556q-104 0 -177 -73t-73 -177t74 -178q73 -76 176 -76t176 76q74 74 74 178t-73 177t-177 73z
" />
</svg>