<svg xmlns="http://www.w3.org/2000/svg" xmlns:xlink="http://www.w3.org/1999/xlink" version="1.1" viewBox="-10 0 2058 2048">
   <path fill="currentColor"
d="M1390 763h-50h50zM430 1338h286q14 -109 50 -193h-336v193zM900 947q90 -89 204 -136q118 -48 236 -48h-910v193h462zM900 1828q45 45 112 85h-772q-80 0 -136 -56t-56 -137v-1338q0 -81 56 -137t136 -56h400q50 -131 176 -171q107 -40 214.5 9t147.5 162h400
q82 0 138 56t56 137v557q-86 -81 -194 -126v-431h-188v188h-960v-188h-190v1338h576q37 56 84 108zM816 283q0 41 26 69q29 30 67.5 30t66.5 -30q28 -28 28 -66.5t-28 -67.5q-27 -29 -66.5 -29t-67.5 29q-26 29 -26 65zM2000 1913l-134 135l-296 -297q-109 68 -230 68
q-178 0 -304 -126t-126 -305q0 -180 126 -306t305 -126t305 126t126 306q0 126 -68 229zM1578 1388q0 -98 -70 -171q-68 -72 -167 -72t-169 72q-70 73 -70 171t70 168t168 70t168 -70t70 -168z" />
</svg>