<svg xmlns="http://www.w3.org/2000/svg" xmlns:xlink="http://www.w3.org/1999/xlink" version="1.1" viewBox="-10 0 2068 2048">
   <path fill="currentColor"
d="M1630 1577q-20 -64 -76 -104q-54 -40 -122 -40h-100v-308q0 -43 -29 -72t-73 -29h-614v-207h202q41 0 74 -29q30 -28 30 -72v-206h202q86 0 148 -61q60 -60 60 -141v-44q229 91 372 298q142 206 142 462q0 155 -58 300q-57 141 -158 253zM922 1836q-202 -24 -364.5 -139
t-259.5 -291q-96 -177 -96 -382q0 -92 24 -183l490 491v101q0 86 60 146t146 60v197zM1024 0q-200 0 -392 77q-188 76 -333.5 221t-220.5 334q-78 192 -78 392t78 392q75 189 220.5 334t333.5 221q192 77 392 77t392 -77q188 -76 333.5 -221t220.5 -334q78 -192 78 -392
t-78 -392q-75 -189 -220.5 -334t-333.5 -221q-192 -77 -392 -77z" />
</svg>