<svg xmlns="http://www.w3.org/2000/svg" xmlns:xlink="http://www.w3.org/1999/xlink" version="1.1" viewBox="-10 0 2068 2048">
   <path fill="currentColor"
d="M510 308q86 0 146 60t60 144t-60 144t-144 60t-144 -60t-60 -144t60 -144t142 -60zM1846 1125v-837q0 -120 -87 -204t-207 -84t-202 82l-130 129q-28 -9 -52 -9q-56 0 -110 34l282 283q34 -54 34 -110q0 -21 -10 -53l130 -130q24 -24 60 -24q37 0 60 26q24 27 24 60v837
h-700q-44 -29 -88 -72l-138 -159q-28 -28 -76 -53q-44 -24 -102 -24q-92 0 -160 68q-66 67 -66 163v77h-308v615q0 87 60 147t142 60q0 43 32 72t74 29h1432q42 0 74 -29q32 -28 32 -72q82 0 142 -60t60 -147v-615h-202z" />
</svg>