<svg xmlns="http://www.w3.org/2000/svg" xmlns:xlink="http://www.w3.org/1999/xlink" version="1.1" viewBox="-10 0 2068 2048">
   <path fill="currentColor"
d="M654 976q0 -56 -42 -98q-40 -41 -100 -41q-59 0 -98 41q-38 42 -38 101t39 98t97 39t100 -39t42 -101zM1304 515q0 -62 -42.5 -101t-97.5 -39h-278q-56 0 -98 39t-42 98t42 101q40 41 98 41h278q56 0 98 -41q42 -42 42 -98zM698 1303q-56 0 -98 42q-42 41 -42 98t41 98
t101 41q59 0 98 -41q40 -43 40 -98t-40 -98q-40 -42 -100 -42zM1024 0q-278 0 -514 138q-236 139 -372 372q-138 238 -138 514q0 277 138 515q136 233 372 372q234 137 514.5 137t513.5 -137q237 -139 372 -372q138 -236 138 -515q0 -278 -138 -514q-135 -233 -372 -372
q-235 -138 -514 -138zM1024 1861q-227 0 -418 -113q-193 -115 -304 -305q-114 -193 -114 -419q0 -225 114 -418q111 -190 304 -305q191 -113 418.5 -113t417.5 113q194 115 306 305q112 193 112 418q0 226 -112 419q-112 190 -306 305q-190 113 -418 113zM1534 837
q-56 0 -98 41q-42 42 -42 101t42 98t100 39q60 0 99 -39t39 -98t-40 -101q-38 -41 -100 -41zM1352 1303q-62 0 -101 42t-39 98t38 98q39 41 98.5 41t100.5 -41t41 -98t-40 -98q-42 -42 -98 -42z" />
</svg>