<svg xmlns="http://www.w3.org/2000/svg" xmlns:xlink="http://www.w3.org/1999/xlink" version="1.1" viewBox="-10 0 2068 2048">
   <path fill="currentColor"
d="M1230 101q-225 0 -412 111q-188 111 -298 298q-112 188 -112 411t112 411q110 187 298 298q185 110 410 110t410 -110q188 -111 298 -298q112 -188 112 -414h-202q0 168 -84 310q-85 143 -224 224q-142 82 -307.5 82t-310.5 -82q-142 -81 -224 -224q-80 -143 -80 -307
q0 -165 80 -308q81 -141 224 -226q143 -84 310 -84q66 0 130 14l164 -163q-141 -53 -294 -53zM1902 260l-672 677l-244 -245l-144 145l388 389l818 -817zM298 490q-139 115 -218 284q-80 167 -80 351q0 222 110 411t298 300t410 111q96 0 192 -24q-270 -63 -482 -255
q-149 -82 -238 -228q-88 -148 -88 -315q0 -33 10 -91q-10 -75 -10 -116q0 -219 96 -428z" />
</svg>