<svg xmlns="http://www.w3.org/2000/svg" xmlns:xlink="http://www.w3.org/1999/xlink" version="1.1" viewBox="-10 0 2068 2048">
   <path fill="currentColor"
d="M192 82h1368q82 0 139 57t57 139v690q-113 -17 -222 6q-107 22 -198 82h-362v392h106q-14 96 0 192h-888q-76 0 -134 -56q-58 -58 -58 -136v-1170q0 -80 58 -138t134 -58zM192 470v394h586v-394h-586zM974 470v394h586v-394h-586zM192 1056v392h586v-392h-586zM1656 1966
l-56 -50l-46 -42q-152 -147 -210 -214q-78 -101 -78 -190q0 -90 64 -154t152 -64q52 0 98 20q48 22 76 58q32 -37 76 -58q43 -20 102 -20q87 0 150 60q64 58 64 152q0 96 -82 196q-55 68 -206 214l-46 42z" />
</svg>