<svg xmlns="http://www.w3.org/2000/svg" xmlns:xlink="http://www.w3.org/1999/xlink" version="1.1" viewBox="-10 0 2058 2048">
   <path fill="currentColor"
d="M1130 644l-130 72l-178 -101l-182 101l-125 -72q-49 24 -77 72q-29 49 -29 101v106q0 408 216 702q146 204 394 336q120 67 212 87v-1231q0 -52 -29 -101q-28 -48 -72 -72zM1024 1731q-164 -111 -264 -274q-135 -211 -144 -491l206 -115l202 115v765zM640 562l-154 -91
q87 -149 226 -197q-9 -29 -36 -50q-28 -22 -60 -22v-202q113 0 201 77q86 76 101 192q149 48 236 202l-154 91l-178 -101zM1639 510v615h-202v-615h202zM1437 1332h202v206h-202v-206z" />
</svg>