<svg xmlns="http://www.w3.org/2000/svg" xmlns:xlink="http://www.w3.org/1999/xlink" version="1.1" viewBox="-10 0 2058 2048">
   <path fill="currentColor"
d="M1738 206h-426q-33 -90 -114 -148q-80 -58 -174.5 -58t-175.5 58q-79 57 -112 148h-426q-86 0 -146 60t-60 146v1430q0 86 60 146t146 60h1428q86 0 146 -60t60 -146v-1430q0 -86 -60 -146t-146 -60zM1024 206q42 0 71 29t29 72q0 42 -28 74q-29 31 -72.5 31t-71.5 -31
t-28 -74q0 -44 28 -72q28 -29 72 -29zM310 1276h220l340 -652l96 714l254 -326l268 264h250v158h-316l-188 -182l-378 479l-76 -589l-154 292h-316v-158z" />
</svg>