<svg xmlns="http://www.w3.org/2000/svg" xmlns:xlink="http://www.w3.org/1999/xlink" version="1.1" viewBox="-10 0 2068 2048">
   <path fill="currentColor"
d="M1230 101q-225 0 -412 111q-188 111 -298 298q-112 188 -112 411t112 411q110 187 298 298q185 110 410 110t410 -110q188 -111 298 -298q112 -188 112 -411t-112 -411q-110 -187 -298 -298q-187 -111 -408 -111zM298 490q-139 115 -218 284q-80 167 -80 351
q0 222 110 411t298 300t410 111q96 0 192 -24q-270 -63 -482 -255q-149 -82 -238 -228q-88 -148 -88 -315q0 -33 10 -91q-10 -75 -10 -116q0 -219 96 -428zM1648 519l144 144l-668 669l-388 -390l148 -144l240 240z" />
</svg>