<svg xmlns="http://www.w3.org/2000/svg" xmlns:xlink="http://www.w3.org/1999/xlink" version="1.1" viewBox="-10 0 2058 2048">
   <path fill="currentColor"
d="M290 2048v-288h294v288h-294zM880 2048v-288h288v288h-288zM1464 2048v-288h294v288h-294zM290 1464v-295h294v295h-294zM880 1464v-295h288v295h-288zM1464 1464v-295h294v295h-294zM290 880v-295h294v295h-294zM880 880v-295h288v295h-288zM1464 880v-295h294v295h-294
zM290 289v-289h294v289h-294zM880 289v-289h288v289h-288zM1464 289v-289h294v289h-294z" />
</svg>