<svg xmlns="http://www.w3.org/2000/svg" xmlns:xlink="http://www.w3.org/1999/xlink" version="1.1" viewBox="-10 0 2068 2048">
   <path fill="currentColor"
d="M630 101l-144 144l264 265h-548q-82 0 -142 60t-60 146v1024q0 87 60 147t142 60h1644q82 0 142 -60t60 -147v-1024q0 -86 -60 -146t-142 -60h-548l264 -265l-144 -144l-394 394zM202 716h1336v1024h-1336v-1024zM1792 716q44 0 73 29t29 72t-30 75q-28 31 -71.5 31
t-72.5 -31q-28 -32 -28 -75t29 -72t71 -29zM1792 1024q44 0 73 29t29 72q0 42 -29 74t-72.5 32t-72 -32t-28.5 -74q0 -43 29 -72t71 -29z" />
</svg>