<svg xmlns="http://www.w3.org/2000/svg" xmlns:xlink="http://www.w3.org/1999/xlink" version="1.1" viewBox="-10 0 2068 2048">
   <path fill="currentColor"
d="M192 1512h878v198h-878q-76 0 -134 -58t-58 -140v-1170q0 -80 58 -138t134 -58h586l196 196h782q78 0 135 57t57 141v196q-91 -69 -192 -92v-104h-1564v972zM1930 1316h-422v-242q0 -55 44 -92q44 -36 106 -36t102 36q42 37 42 92v50h128v-50q0 -100 -86 -172
q-84 -70 -188 -70q-105 0 -188 70q-82 71 -82 172v242q-46 0 -82 36q-38 38 -38 84v342q0 50 37 87t83 37h534q51 0 90 -34q38 -34 38 -80v-344q0 -50 -36 -89t-82 -39z" />
</svg>