<svg xmlns="http://www.w3.org/2000/svg" xmlns:xlink="http://www.w3.org/1999/xlink" version="1.1" viewBox="-10 0 2068 2048">
   <path fill="currentColor"
d="M2048 1692q0 105 -75 180t-180 75t-180 -75t-75 -180q0 -80 40 -144q40 -62 114 -91v-1048h-462v139q91 43 146 130q56 88 56 192v1178h-1432v-1178q0 -106 56 -192q55 -87 146 -130v-139h-202v-207h202v-48q0 -67 46 -111q44 -43 110 -43t109 43t43 111v48h412v-48
q0 -68 43 -111t109 -43t110 43q46 44 46 111v48h462q82 0 142 60t60 147v1048q73 29 112 91q42 64 42 144zM922 548v-139h-412v139q95 43 150 130q56 88 56 192q0 -106 56 -192q55 -87 150 -130z" />
</svg>