<svg xmlns="http://www.w3.org/2000/svg" xmlns:xlink="http://www.w3.org/1999/xlink" version="1.1" viewBox="-10 0 2058 2048">
   <path fill="currentColor"
d="M1731 1056v-638q0 -113 -113 -209q-110 -94 -307 -152q-194 -57 -419 -57q-226 0 -420 57q-197 58 -307 152q-113 96 -113 209v1051q0 112 113 208q112 96 307 153q190 56 420 56q89 0 137 -5q-34 -102 -34 -206v-5q-33 5 -103 5q-186 0 -344 -39q-124 -34 -211 -94
q-74 -44 -74 -73v-236q264 127 629 127q112 0 196 -9q83 -137 226 -221q142 -84 309 -84q47 0 108 10zM1520 992q-106 75 -270 118q-168 44 -358 44q-191 0 -359 -44q-164 -43 -270 -118v-295q121 66 283 104q165 39 346 39t346 -39q161 -38 282 -104v295zM892 629
q-185 0 -344 -44q-125 -34 -211 -89q-74 -44 -74 -76t74 -76q84 -59 211 -93q162 -40 344 -40q181 0 343 40q127 34 211 93q74 44 74 76t-74 76q-86 55 -211 89q-159 44 -343 44zM1770 1675l226 226l-147 147l-226 -226l-221 226l-147 -147l221 -226l-221 -221l147 -148
l221 221l226 -221l147 148z" />
</svg>