<svg xmlns="http://www.w3.org/2000/svg" xmlns:xlink="http://www.w3.org/1999/xlink" version="1.1" viewBox="-10 0 2068 2048">
   <path fill="currentColor"
d="M1024 0q-278 0 -514 137q-235 136 -372 373q-138 236 -138 514v793q0 97 67 164t163 67h794q277 0 514 -137q236 -137 372 -373q138 -236 138 -514t-138 -514q-136 -236 -372 -373q-237 -137 -514 -137zM1230 423q134 0 235 89t101 224l-4 52q0 34 -30 58q-27 24 -64 19
t-58 -36q-21 -32 -16 -65v-28q0 -73 -48 -109t-110 -36q-64 0 -110 44q-44 43 -44 101v259h148q54 0 74 43q22 44 0 87q-20 43 -74 43h-148v245q-16 147 -126 246q-111 101 -261.5 101t-262.5 -113q-111 -113 -108 -272q3 -158 116 -269q112 -111 276 -111h120v173h-124
q-90 4 -156 63q-66 57 -66 146q0 90 62 149q64 60 150 60t146 -57t60 -149v-644l6 -39q15 -117 104 -195q91 -79 212 -79z" />
</svg>