<svg xmlns="http://www.w3.org/2000/svg" xmlns:xlink="http://www.w3.org/1999/xlink" version="1.1" viewBox="-10 0 2068 2048">
   <path fill="currentColor"
d="M1924 2048l-704 -700q-57 34 -86 69q-82 77 -196 77q-116 0 -192 -77l-102 -101q-76 -77 -76 -194t86 -194q25 -20 60 -78l-714 -722l128 -128l1920 1924zM686 1485l-100 -100l-46 -60l-246 238q-89 -46 -166 27q-40 46 -40 103q0 58 41 99t101 41q0 40 36 100
q45 41 102.5 41t103.5 -41q72 -77 26 -169l248 -233q-24 -9 -60 -46zM1864 1074q133 -132 168 -316q34 -183 -36.5 -354t-239.5 -276q-146 -96 -326 -96q-178 0 -324 96q-204 132 -264 342l758 759q154 -45 264 -155z" />
</svg>