<svg xmlns="http://www.w3.org/2000/svg" xmlns:xlink="http://www.w3.org/1999/xlink" version="1.1" viewBox="-10 0 2068 2048">
   <path fill="currentColor"
d="M1532 66q-154 0 -268 114t-114 269v1533h256v-1533q0 -54 36 -90t90 -36h132q54 0 90 36t36 90v126q0 54 -36 93q-36 38 -90 38h-132v252h132q54 0 90 39t36 93v125q0 54 -36 90t-90 36h-132v258h132q156 0 270 -114t114 -270v-125q0 -78 -36 -144t-96 -114
q60 -48 96 -114t36 -143v-126q0 -155 -114 -269t-270 -114h-132zM384 449q-156 0 -270 114q-114 113 -114 269v383q0 157 114 270q114 114 270 114h90q94 0 166 -66v66h258v-1150h-258v66q-72 -66 -166 -66h-90zM384 706h132q52 0 88 36t36 90v383q0 54 -36 90t-88 36h-132
q-54 0 -90 -36t-36 -90v-383q0 -54 36 -90t90 -36z" />
</svg>