<svg xmlns="http://www.w3.org/2000/svg" xmlns:xlink="http://www.w3.org/1999/xlink" version="1.1" viewBox="-10 0 2068 2048">
   <path fill="currentColor"
d="M1818 0q96 0 164 67q66 66 66 162v1590q0 96 -66 162q-68 67 -164 67h-1588q-96 0 -163 -67t-67 -162v-1590q0 -95 67 -162t163 -67h1588zM1766 1765v-602q0 -154 -110 -264t-264 -110q-73 0 -150 43q-73 41 -112 107v-128h-320v954h320v-565q0 -63 46 -109t112 -46
t112 46t46 109v565h320zM444 635q80 0 136 -56t56 -136t-56 -136t-136 -56t-136 56t-56 136t56 136t136 56zM598 1765v-954h-314v954h314z" />
</svg>