<svg xmlns="http://www.w3.org/2000/svg" xmlns:xlink="http://www.w3.org/1999/xlink" version="1.1" viewBox="-10 0 2068 2048">
   <path fill="currentColor"
d="M1174 872q28 0 44 20q-53 87 -68 182h-536v-154q0 -18 15 -33t37 -15h508zM1022 1688h-714v-920h-208v1126h926q-4 -10 -4 -28v-178zM1842 666h-1842v-614h1842v614zM1636 258h-1430v202h1430v-202zM1922 1382h-440v-254q0 -57 46 -96q45 -40 110 -40q64 0 108 40
q42 38 42 96v52h134v-52q0 -105 -88 -180q-89 -76 -198 -76q-110 0 -198 76q-86 74 -86 180v254q-48 0 -86 38t-38 86v360q0 52 38 90q38 40 86 40h562q52 0 92 -36q42 -37 42 -84v-360q0 -53 -40 -94q-39 -40 -86 -40z" />
</svg>