<svg xmlns="http://www.w3.org/2000/svg" xmlns:xlink="http://www.w3.org/1999/xlink" version="1.1" viewBox="-10 0 2068 2048">
   <path fill="currentColor"
d="M454 454q165 -158 354 -265q192 -109 388 -157q289 -71 504 15t300 300q86 214 16 505q-48 193 -158 389q-109 191 -267.5 350t-350.5 267q-195 111 -388 158q-289 71 -504 -15t-300 -300q-86 -214 -16 -505q48 -193 158 -389q109 -191 264 -353zM852 929l-48 47l268 268
l46 -48zM976 804l-46 48l266 267l48 -48zM722 1059l-42 42l266 267l42 -41zM1102 679l-42 42l266 273l48 -47zM596 1184l-40 48l266 267l42 -42zM1232 555l-48 41l274 267l40 -41z" />
</svg>