<svg xmlns="http://www.w3.org/2000/svg" xmlns:xlink="http://www.w3.org/1999/xlink" version="1.1" viewBox="-10 0 2068 2048">
   <path fill="currentColor"
d="M202 308q-82 0 -142 60t-60 142v1028q0 82 60 142t142 60h206l102 -202h1028l100 202h208q82 0 142 -60t60 -142v-1028q0 -82 -60 -142t-142 -60h-1644zM462 817q62 0 108 46t46 110q0 65 -46 109q-45 43 -110 43q-66 0 -109 -43t-43 -109t42 -110q45 -46 112 -46z
M716 817h616v308h-616v-308zM1586 817q66 0 110 46q44 44 44 110t-43 109t-109 43t-110 -43q-46 -43 -46 -109q0 -65 46 -110q46 -46 108 -46z" />
</svg>