<svg xmlns="http://www.w3.org/2000/svg" xmlns:xlink="http://www.w3.org/1999/xlink" version="1.1" viewBox="-10 0 2068 2048">
   <path fill="currentColor"
d="M1918 1373l-358 362l-126 -127l-130 131l256 261l488 -496zM1212 1255q0 79 -54 133q-56 55 -134 55t-132 -55q-54 -54 -54 -133t54 -133t133 -54t133 54t54 133zM1116 1721q0 -38 8 -95h-704l-202 -741h1616l-78 283q96 14 174 57l114 -410l4 -26q0 -35 -28 -63
q-30 -29 -68 -29h-444l-406 -610q-30 -39 -78 -39t-78 39l-404 610h-446q-38 0 -67 29t-29 63q0 16 6 26l234 863q18 56 68 96q50 39 112 39h704q-8 -57 -8 -92zM1024 305l262 392h-522z" />
</svg>