<svg xmlns="http://www.w3.org/2000/svg" xmlns:xlink="http://www.w3.org/1999/xlink" version="1.1" viewBox="-10 0 2068 2048">
   <path fill="currentColor"
d="M286 142h571v192h-571v-192zM1 521h477v192h-477v-192zM192 1663h477v192h-477v-192zM1213 865q107 37 148 138l405 -674q49 -76 27 -162q-23 -88 -98 -137q-62 -35 -136 -29q-73 6 -123 56l-330 308q-58 54 -58 138v371q84 -31 165 -9zM915 1025q22 -75 84 -120h-780
q-94 0 -156 62t-62 152q0 77 44 134q45 59 116 76l428 125q79 23 147 -23l259 -151q-57 -44 -80 -114q-23 -69 0 -141zM2020 1627l-218 -392q-40 -66 -120 -89l-299 -76q0 62 -14 94q-23 77 -84 122q-64 47 -143 47q-37 0 -67 -13l-27 -9v544q-80 0 -136 56q-55 55 -55 136
h570q0 -81 -55 -136q-56 -56 -132 -56v-406l437 437q63 63 152 63q88 0 156 -63q49 -54 60 -125q10 -71 -25 -134zM1102 1230q57 18 109 -11q51 -28 69 -84q18 -55 -11 -110q-29 -53 -85.5 -68.5t-108.5 10.5q-54 28 -69 85q-15 60 11 109q27 52 85 69z" />
</svg>