<svg xmlns="http://www.w3.org/2000/svg" xmlns:xlink="http://www.w3.org/1999/xlink" version="1.1" viewBox="-10 0 2068 2048">
   <path fill="currentColor"
d="M1432 0h-1230q-82 0 -142 60t-60 142v1644q0 82 60 142t142 60h1230q86 0 146 -60t60 -142v-1644q0 -82 -60 -142t-146 -60zM616 202q38 0 68 31q32 32 32 72t-32 72t-72 32t-72 -32q-30 -31 -30 -72t31 -72t75 -31zM308 202q38 0 69 31t31 72t-30 72q-32 32 -72 32
t-72 -32t-32 -72t32 -72q30 -31 74 -31zM1432 1846h-1230v-1231h1230v1231zM1090 1365q5 112 -76 193q-80 81 -194 81t-196 -81q-81 -82 -74 -193q8 -109 66 -206q52 -124 134 -236l68 -106q272 397 272 548zM1846 1332h202v206h-202v-206zM1846 510h202v615h-202v-615z" />
</svg>