<svg xmlns="http://www.w3.org/2000/svg" xmlns:xlink="http://www.w3.org/1999/xlink" version="1.1" viewBox="-10 0 2068 2048">
   <path fill="currentColor"
d="M716 510v206h408v207h-202q-86 0 -146 60t-60 142v413h616v-206h-410v-207h202q88 0 148 -60t60 -142v-207q0 -86 -60 -146t-148 -60h-408zM1024 0q200 0 392 77q188 76 333.5 221t220.5 334q78 192 78 392t-78 392q-75 189 -220.5 334t-333.5 221q-192 77 -392 77
t-392 -77q-188 -76 -333.5 -221t-220.5 -334q-78 -192 -78 -392t78 -392q75 -189 220.5 -334t333.5 -221q192 -77 392 -77z" />
</svg>