<svg xmlns="http://www.w3.org/2000/svg" xmlns:xlink="http://www.w3.org/1999/xlink" version="1.1" viewBox="-10 0 2068 2048">
   <path fill="currentColor"
d="M651 108q90 -15 175 72q81 83 109 222q27 137 -16 241q-43 105 -132 120q-87 15 -174 -72q-85 -85 -112 -222q-27 -136 17 -242q43 -104 133 -119zM1382 108q91 15 134 119q44 106 17 242q-27 138 -110 222q-85 87 -175 72q-91 -15 -136 -120q-45 -104 -16 -241t112 -222
q85 -87 174 -72zM107 576q86 -38 191 22q106 60 165 179q60 119 40 232q-19 112 -105 148q-85 36 -189 -22q-102 -57 -162 -179q-60 -121 -43 -232q17 -110 103 -148zM1941 576q86 38 103 148q17 111 -43 232t-163 179t-188 22q-86 -36 -105 -148q-20 -113 40 -232
q59 -119 165 -179q105 -60 191 -22zM1769 1675q4 71 -41 141q-46 70 -117 103q-72 33 -167 14q-52 -8 -181 -47q-91 -32 -125 -39q-70 -19 -126 -19t-122 19q-32 6 -129 39q-118 43 -181 52q-96 15 -170 -21t-119 -122t-36 -172q4 -65 67 -134q35 -41 129 -110
q85 -75 110 -100q44 -40 128 -158q90 -123 144 -172q85 -81 181 -81t187 81q51 51 148 186q81 110 114 144q29 37 105 105q101 86 134 134q67 76 67 157z" />
</svg>