<svg xmlns="http://www.w3.org/2000/svg" xmlns:xlink="http://www.w3.org/1999/xlink" version="1.1" viewBox="-10 0 2068 2048">
   <path fill="currentColor"
d="M390 489q0 -165 114 -279t276 -114t276 114t114 276q0 163 -114 277t-276 114t-276 -114t-114 -274zM696 1632l-28 -74l28 -73q99 -245 338 -393q-123 -18 -256 -18q-212 0 -388 52t-284 142q-106 89 -106 194v197h710zM1464 1462q-40 0 -72 28q-30 27 -30 68t30 71
t71 30t69 -30q28 -31 28 -71t-28 -68t-68 -28zM2048 1558q-75 176 -230 284q-159 110 -354.5 110t-357.5 -110q-158 -108 -228 -284q70 -174 229 -281t356.5 -107t354.5 107q156 107 230 281zM1706 1558q0 -100 -71 -171t-171 -71t-174 71q-74 70 -74 171t73 174t174 73
t171 -73q72 -74 72 -174z" />
</svg>