<svg xmlns="http://www.w3.org/2000/svg" xmlns:xlink="http://www.w3.org/1999/xlink" version="1.1" viewBox="-10 0 2058 2048">
   <path fill="currentColor"
d="M51 510v-202h206v-106q0 -82 60 -142t142 -60h615v716l260 -154l254 154v-716h101q79 0 142 62q65 63 65 140v1005q-150 -82 -313 -82t-302 84q-141 85 -224 226q-84 142 -84 305q0 162 82 308h-596q-82 0 -142 -63t-60 -139v-106h-206v-202h206v-413h-206v-202h206v-413
h-206zM257 308v202h202v-202h-202zM257 1740h202v-202h-202v202zM257 1125h202v-202h-202v202zM1180 1639v207h817v-207h-817z" />
</svg>