<svg xmlns="http://www.w3.org/2000/svg" xmlns:xlink="http://www.w3.org/1999/xlink" version="1.1" viewBox="-10 0 2065 2048">
   <path fill="currentColor"
d="M1125 1434v202h105q44 0 72 31q29 32 29 74h714v202h-714q0 42 -29 74q-28 31 -72 31h-412q-44 0 -72 -31q-29 -32 -29 -74h-714v-202h714q0 -42 29 -74q28 -31 72 -31h106v-202h-614v-153q0 -101 96 -182q98 -83 259 -130q163 -48 359 -48t360 48q161 47 259 130
q96 81 96 182v153h-614zM1024 0q148 0 254 106t106 254t-106 252q-104 103 -254 103t-254 -103q-105 -104 -105 -252q0 -149 105 -254q106 -106 254 -106z" />
</svg>