<svg xmlns="http://www.w3.org/2000/svg" xmlns:xlink="http://www.w3.org/1999/xlink" version="1.1" viewBox="-10 0 2068 2048">
   <path fill="currentColor"
d="M1512 1189h212v323h324v213h-324v323h-212v-323h-324v-213h324v-323zM218 0h1506q92 0 155 63t63 155v839q-103 -61 -218 -76v-763h-344q-10 81 -70 136q-60 56 -146 56h-212v217q0 41 -34 74q-32 32 -78 32h-212v218h646q35 0 64 18q27 17 38 48q-177 70 -288.5 230
t-115.5 351q-106 0 -172 -63t-66 -154v-106l-516 -486v936h764q14 114 76 217h-840q-90 0 -154 -63q-64 -64 -64 -154v-1507q0 -91 64 -155q64 -63 154 -63z" />
</svg>