<svg xmlns="http://www.w3.org/2000/svg" xmlns:xlink="http://www.w3.org/1999/xlink" version="1.1" viewBox="-10 0 2058 2048">
   <path fill="currentColor"
d="M1582 0v372h-1116v-372h1116zM1674 839q40 0 68 -28q28 -29 28 -68q0 -40 -29 -66t-67 -26q-40 0 -66 26t-26 66q0 39 26 68q26 28 66 28zM1394 1490v-468h-742v468h742zM1674 463q117 0 198 83q82 83 82 197v559h-372v375h-1116v-375h-372v-559q0 -116 80 -197
q82 -83 200 -83h1300zM1304 2048v-187h186v187h-186zM932 2048v-187h184v187h-184zM556 2048v-187h188v187h-188z" />
</svg>