<svg xmlns="http://www.w3.org/2000/svg" xmlns:xlink="http://www.w3.org/1999/xlink" version="1.1" viewBox="-10 0 2068 2048">
   <path fill="currentColor"
d="M562 1588q-111 0 -214 -42q-103 -44 -182 -124q-79 -78 -122 -182q-44 -102 -44 -214q0 -155 74 -284q76 -130 204 -206q129 -76 284 -76h1076q168 0 288 120q122 120 122 290t-121 291t-289 121h-870q-105 0 -182 -76q-76 -75 -76 -180q0 -106 77 -183t181 -77h770v154
h-770q-42 0 -73 31t-31 75t30 72q33 30 74 30h870q106 0 181 -75t75 -181t-76 -182q-75 -78 -180 -78h-1076q-166 0 -287 121t-121 291t120 290t288 120h976v154h-976z" />
</svg>