<svg xmlns="http://www.w3.org/2000/svg" xmlns:xlink="http://www.w3.org/1999/xlink" version="1.1" viewBox="-10 0 2068 2048">
   <path fill="currentColor"
d="M1326 1685l-260 -615l-114 216q-133 255 -202 399h-48q-105 -241 -274 -625l-188 -427q-27 -70 -106 -147q-76 -75 -134 -75v-48h520v48q-58 0 -110 32q-50 31 -30 74q45 102 230 529l168 399q167 -312 246 -461q-29 -52 -118 -258q-91 -209 -118 -252q-38 -63 -178 -63
v-48h456v44q-52 5 -80 24q-30 20 -16 62q47 88 88 178l66 154q90 -175 154 -322q20 -48 -10 -70q-29 -22 -110 -22v-48h394v44q-58 5 -108 31q-52 28 -80 70l-186 394q15 40 178 404l42 101l394 -909q-19 -48 -76 -72q-40 -15 -78 -15v-48l410 5v43q-126 0 -178 125
q-109 249 -404 933l-92 216h-48z" />
</svg>