<svg xmlns="http://www.w3.org/2000/svg" xmlns:xlink="http://www.w3.org/1999/xlink" version="1.1" viewBox="-10 0 2058 2048">
   <path fill="currentColor"
d="M1117 188q179 0 329 87q152 88 238 237q87 150 87 325q0 190 -103 351q-102 159 -272 237v436h-649v-279h-91q-79 0 -133 -54q-55 -55 -55 -133v-279h-139q-29 0 -42.5 -26t3.5 -48l178 -236q9 -172 98 -311q90 -141 236 -224q147 -83 315 -83zM1117 0q-208 0 -389 98
q-182 99 -298.5 266t-139.5 373l-148 196h-5q-38 52 -43 118q-4 64 26 126q52 100 161 122v96q0 131 81 231t198 130v292h1023v-514q177 -116 273 -298q98 -185 98 -399q0 -226 -111 -418q-110 -190 -305 -305q-193 -114 -421 -114zM1522 772l-182 48l135 135q21 24 21 61
q0 34 -24 58t-58 24q-36 0 -57 -21l-135 -135l-52 183q-4 30 -35 48q-29 17 -63 8q-32 -9 -50 -39t-9 -61l48 -183l-183 48q-35 9 -65 -9q-31 -19 -40 -50q-9 -33 9 -63t52 -39l183 -48l-135 -135q-22 -22 -22 -57t24 -61q25 -26 59 -26t57 26l135 135l48 -183q9 -34 39 -52
t63 -9q32 9 50.5 39t8.5 66l-48 183l183 -53q35 -9 63 9t37 52q9 35 -9 64q-17 28 -48 37z" />
</svg>