<svg xmlns="http://www.w3.org/2000/svg" xmlns:xlink="http://www.w3.org/1999/xlink" version="1.1" viewBox="-10 0 2058 2048">
   <path fill="currentColor"
d="M1433 1279q0 119 -39 259q-57 197 -187 390l-82 -495l96 -193q-26 0 -96 -5q-56 -4 -101 -4t-101 4q-70 5 -96 5l96 193l-81 495q-133 -188 -188 -385q-38 -136 -38 -264q-187 57 -301 151q-113 93 -113 209v409h1644v-409q0 -116 -113 -209q-114 -95 -300 -151zM409 255
q0 -72 82 -130q83 -59 223 -91q147 -34 310 -34t310 34q140 32 223 91q82 58 82 130q0 53 -53 101q-68 -68 -218 -111t-344 -43q-193 0 -343 43q-151 43 -219 111q-53 -48 -53 -101zM1423 553q10 22 10 62q0 168 -121 289q-120 120 -288 120t-288 -120t-120 -289
q0 -43 9 -62q152 62 399 62t399 -62zM1495 418q-204 92 -471 92t-471 -92q56 -47 183 -79q123 -31 288 -31t288 31q127 32 183 79z" />
</svg>