<svg xmlns="http://www.w3.org/2000/svg" xmlns:xlink="http://www.w3.org/1999/xlink" version="1.1" viewBox="-10 0 2068 2048">
   <path fill="currentColor"
d="M1 20l1869 1751l5 15q10 21 8 42q-4 22 -23 42q-31 30 -73 26q-19 -4 -36 -16zM556 197l1449 1335l10 15q5 18 3 37q-3 21 -23 43.5t-45 26.5q-23 2 -44 -8l-15 -10zM167 576l1449 1330l5 15q10 21 8 42q-3 21 -24 42q-20 20 -44 23q-19 2 -44 -3l-16 -10zM1024 347
l1012 935l11 21q4 26 -16.5 46.5t-51.5 16.5q-5 -3 -10.5 -6t-10.5 -5zM291 1007l1013 935l10 21q4 27 -15.5 46.5t-46.5 15.5q-9 -3 -26 -10v0zM1501 566l462 420l6 11q0 13 -11 28q-10 13 -31 -2zM525 1469l462 427l5 10q4 11 -7 23q-13 13 -34 -2z" />
</svg>