<svg xmlns="http://www.w3.org/2000/svg" xmlns:xlink="http://www.w3.org/1999/xlink" version="1.1" viewBox="-10 0 2068 2048">
   <path fill="currentColor"
d="M1740 1074v-614h106v-308h-1644v308h106v614h-308q0 79 38 130q40 53 116 72v520q0 42 29 71t71 29h102q42 0 74 -28q32 -29 32 -72v-106h1124v106q0 43 32 71.5t74 28.5h100q44 0 73 -29t29 -71v-520q75 -19 114.5 -71.5t39.5 -130.5h-308zM616 1282q-67 0 -112 -46
q-42 -45 -42 -108.5t42 -107.5q45 -46 108 -46q66 0 112 46q44 44 44 107t-44 109q-46 46 -108 46zM1432 1282q-62 0 -108 -46t-46 -109t46 -107q46 -46 110 -46t108 46q44 44 44 107.5t-44 108.5q-44 46 -110 46zM1586 820q-253 -54 -562 -54q-320 0 -562 54v-360h1124v360
z" />
</svg>