<svg xmlns="http://www.w3.org/2000/svg" xmlns:xlink="http://www.w3.org/1999/xlink" version="1.1" viewBox="-10 0 2058 2048">
   <path fill="currentColor"
d="M1639 101q87 0 147 60t60 147q0 55 -34 108q-32 49 -86 74l-188 654v495h-1028v-495l-187 -654q-56 -25 -87 -74q-34 -53 -34 -108q0 -86 61 -147q60 -60 146 -60q87 0 147 60t60 142q0 81 -53 134l288 313l53 -380q-86 -62 -86 -168q0 -82 60 -142t146 -60q87 0 147 60
t60 142q0 105 -87 168l53 380l284 -313q-48 -57 -48 -129q0 -87 60 -147t146 -60zM308 1846h1432v202h-1432v-202z" />
</svg>