<svg xmlns="http://www.w3.org/2000/svg" xmlns:xlink="http://www.w3.org/1999/xlink" version="1.1" viewBox="-10 0 2058 2048">
   <path fill="currentColor"
d="M1077 0q-83 0 -159 91q-61 84 -105 209q-44 124 -44 210q0 129 89 218t217 89q126 0 218 -89t92 -218q0 -86 -44 -210t-110 -209q-76 -91 -154 -91zM1077 461q43 0 72 29t29 72q0 44 -29 73q-28 28 -72 28t-75 -28t-31 -73q0 -44 31 -72q32 -29 75 -29zM818 923
q-44 0 -73 29q-28 28 -28 72v822h-207q-44 0 -72 -31q-29 -32 -29 -75v-101q0 -43 -29 -72t-72 -29q-42 0 -74 29t-32 72v101q0 130 92 219t216 89h1230q43 0 75 -29q31 -28 31 -72t-31 -72q-32 -29 -75 -29h-307v-822q0 -43 -29 -72t-72 -29h-514z" />
</svg>