<svg xmlns="http://www.w3.org/2000/svg" xmlns:xlink="http://www.w3.org/1999/xlink" version="1.1" viewBox="-10 0 2068 2048">
   <path fill="currentColor"
d="M1465 361q143 152 143 345q0 192 -143 331l-157 -157q61 -82 61 -181t-61 -181zM1774 47q179 188 242 423q63 236 0 469t-242 412l-152 -153q126 -144 172 -324q46 -181 0 -358q-47 -177 -172 -316zM746 326q152 0 261 109t109 264t-109 264t-261 109q-153 0 -262 -109
t-109 -264t109 -264t262 -109zM1116 1307q0 108 -35 236q-53 183 -170 349l-74 -449l87 -175q-101 -9 -181 -9t-180 9l91 175l-78 449q-118 -167 -166 -349q-35 -128 -35 -236q-172 52 -274 136q-100 82 -100 187v371h1490v-371q0 -99 -103 -185q-102 -85 -272 -138z" />
</svg>