<svg xmlns="http://www.w3.org/2000/svg" xmlns:xlink="http://www.w3.org/1999/xlink" version="1.1" viewBox="-10 0 2068 2048">
   <path fill="currentColor"
d="M1692 923q145 0 250 106q106 108 106 255q0 164 -178 432q-93 137 -178 231l-96 -111q-107 -142 -174 -264q-90 -172 -90 -288q0 -148 104 -255q105 -106 256 -106zM1692 1413q52 0 90 -38q39 -39 34.5 -84.5t-42.5 -83.5q-40 -39 -85 -39t-84 36t-39 87q0 50 36 86
t90 36zM1846 514h-1644v1024h976q41 96 100 207h-1076q-82 0 -142 -60t-60 -147v-1230q0 -87 60 -147t142 -60h616l206 207h822q82 0 142 60t60 146v342q-96 -84 -202 -116v-226z" />
</svg>