<svg xmlns="http://www.w3.org/2000/svg" xmlns:xlink="http://www.w3.org/1999/xlink" version="1.1" viewBox="-10 0 2068 2048">
   <path fill="currentColor"
d="M2048 1933l-1920 -1933l-128 128l394 388h-110q-78 0 -134 57q-58 58 -58 140v585q0 81 58 139q56 57 134 57h100v96q0 46 25 71t71 25h196q43 0 70 -25q26 -25 26 -71v-96h586v96q0 45 28 71q26 25 68 25h110l360 362zM480 1298h-196v-96h196v96zM284 1005v-196h402
l192 196h-594zM868 1298h-192v-96h192v96zM1066 1298v-96h8l96 96h-104zM1262 809v77l602 608q74 -9 124 -64q50 -54 50 -132v-585q0 -83 -57 -140t-135 -57h-954l292 293h78zM1650 713q82 0 139 57t57 137t-57 137t-139 57t-139 -57t-57 -137t57 -137t139 -57z" />
</svg>