<svg xmlns="http://www.w3.org/2000/svg" xmlns:xlink="http://www.w3.org/1999/xlink" version="1.1" viewBox="-10 0 2068 2048">
   <path fill="currentColor"
d="M1228 1638v206h820v-206h-820zM1050 1916l-130 130l-152 -154l-154 154l-154 -154l-152 154l-154 -154l-154 154v-2044l154 154l154 -154l152 154l154 -154l154 154l152 -154l154 154l154 -154l152 154l154 -154l154 154l154 -154v1160q-98 -38 -206 -38v-824h-1430v1448
h816q0 79 28 168zM1180 1330q-82 88 -120 206h-752v-206h872zM308 922h1226v202h-1226v-202zM308 510h1226v206h-1226v-206z" />
</svg>