<svg xmlns="http://www.w3.org/2000/svg" xmlns:xlink="http://www.w3.org/1999/xlink" version="1.1" viewBox="-10 0 2058 2048">
   <path fill="currentColor"
d="M869 1125v-817q0 -130 -89 -219q-88 -88 -216 -88t-219 88t-91 219v817q-111 86 -163 210.5t-36 259t98 248.5q81 112 209 165q127 52 262 36q134 -17 247.5 -98.5t165.5 -209t36 -261.5q-16 -132 -99 -245q-43 -63 -105 -105zM561 202q43 0 75 32q31 31 31 74v307h-206
v-307q0 -43 31 -74q32 -32 69 -32zM1512 1346l-283 -308l120 -115l163 163l365 -370l120 144z" />
</svg>