<svg xmlns="http://www.w3.org/2000/svg" xmlns:xlink="http://www.w3.org/1999/xlink" version="1.1" viewBox="-10 0 2058 2048">
   <path fill="currentColor"
d="M1438 1513h182v489h-182v-489zM1744 1513v489h182v-489h-182zM1292 0h-586v197h586v-197zM1876 1207q-103 -37 -196 -37q-155 0 -290 80q-134 79 -214 215t-80 290q0 153 68 279q-86 14 -164 14q-238 0 -440 -117q-202 -118 -320 -320q-118 -205 -118 -441
q0 -237 118 -439q119 -201 320 -320q201 -118 440 -118q152 0 292 52q142 53 256 144l136 -142q65 56 138 138l-138 141q91 112 142 254q50 137 50 290v37zM1096 585h-192v686h192v-686z" />
</svg>