<svg xmlns="http://www.w3.org/2000/svg" xmlns:xlink="http://www.w3.org/1999/xlink" version="1.1" viewBox="-10 0 2068 2048">
   <path fill="currentColor"
d="M654 96q-179 0 -328 86q-150 87 -238 236q-88 151 -88 326q0 166 78 306q76 140 202 226v214q0 40 26 66t70 26h558q38 0 64 -26t26 -66v-214q126 -95 202 -234q78 -141 78 -298q0 -177 -88 -326q-87 -148 -236 -236q-148 -86 -326 -86zM376 1860q0 44 24 68t66 24h372
q43 0 68 -24q28 -25 28 -68v-92h-558v92zM1812 1254v140h-138v-140h138zM1630 792h-140v-48q0 -116 78 -198q78 -80 200 -80q120 0 200 80t80 198q0 73 -32 130q-35 60 -90 94l-26 16q-88 58 -88 162v18h-138v-18q0 -89 40 -160q43 -72 108 -110l30 -18q56 -43 56 -114
q0 -56 -42 -98q-43 -40 -98 -40q-56 0 -96 40q-42 42 -42 98v48z" />
</svg>