<svg xmlns="http://www.w3.org/2000/svg" xmlns:xlink="http://www.w3.org/1999/xlink" version="1.1" viewBox="-10 0 2058 2048">
   <path fill="currentColor"
d="M1266 379q75 0 134 -56q58 -55 58 -134q0 -77 -56 -133t-136 -56t-136 56q-54 55 -54 133q0 79 54 134q56 56 136 56zM924 1700l94 -415l200 192v571h192v-714l-202 -192l58 -285q93 110 232 174q136 62 290 62v-187q-133 0 -240 -65q-106 -64 -170 -167l-94 -152
q-63 -94 -160 -94q-11 0 -38 5q-21 4 -38 4l-494 210v446h192v-326l168 -67l-152 777l-468 -98l-34 191z" />
</svg>