<svg xmlns="http://www.w3.org/2000/svg" xmlns:xlink="http://www.w3.org/1999/xlink" version="1.1" viewBox="-10 0 2058 2048">
   <path fill="currentColor"
d="M1220 1069v-192l-196 96l-197 -96v192l-192 101l192 96v196l197 -100l196 100v-196l192 -96zM1220 0h-685q-78 0 -135 57t-57 135v1366q0 83 57 140t135 57h100v-197h-100v-1366h585v393h393v973h-101v197h101q77 0 134 -57q58 -58 58 -140v-1074zM1220 1069v-192
l-196 96l-197 -96v192l-192 101l192 96v196l197 -100l196 100v-196l192 -96zM827 2048l197 -101l196 101v-490h-393v490zM1220 1069v-192l-196 96l-197 -96v192l-192 101l192 96v196l197 -100l196 100v-196l192 -96z" />
</svg>