<svg xmlns="http://www.w3.org/2000/svg" xmlns:xlink="http://www.w3.org/1999/xlink" version="1.1" viewBox="-10 0 2068 2048">
   <path fill="currentColor"
d="M1076 817q0 -125 -91 -216t-218.5 -91t-216.5 91q-88 92 -88 219t89 216t215.5 89t219.5 -89q90 -88 90 -219zM768 923q-42 0 -73 -31t-31 -75t30 -72q33 -29 74 -29q44 0 74 29q28 28 28 72t-28.5 75t-73.5 31zM1432 1125q86 0 146 -60t60 -144q0 -85 -60 -145t-144 -60
t-144 60t-60 145q0 84 60 144t142 60zM1024 0q-278 0 -514 137q-235 136 -372 373q-138 236 -138 514t138 514q137 237 372 373q236 137 513.5 137t514.5 -137q236 -137 372 -373q138 -236 138 -514t-138 -514q-136 -236 -372 -373q-237 -137 -514 -137zM394 1548
q52 -43 163 -79t211 -36h24q44 -112 136 -188q-82 -14 -160 -14q-115 0 -240 33q-149 39 -244 111q-82 -170 -82 -351q0 -220 110 -411q112 -191 300.5 -301t411 -110t411 110t299.5 301q112 191 112 411q0 177 -78 346q-70 -42 -172 -67q-87 -24 -164 -24q-85 0 -188 29
q-112 32 -186 91q-88 67 -88 159v283q-166 -9 -318 -86q-153 -77 -258 -207z" />
</svg>