<svg xmlns="http://www.w3.org/2000/svg" xmlns:xlink="http://www.w3.org/1999/xlink" version="1.1" viewBox="-10 0 2068 2048">
   <path fill="currentColor"
d="M1534 840v-125h206v105h-52q-70 0 -154 20zM1228 868q0 -19 -14 -33q-16 -15 -40 -15h-508q-22 0 -37 15t-15 33v154h594l20 -19v-135zM308 1636v-921h-208v1127h1026q-58 -98 -86 -206h-732zM1842 614h-1842v-614h1842v614zM1636 206h-1430v202h1430v-202zM1636 1075
v-154l-232 230l232 231v-154q106 0 182 74q76 75 76 180q0 63 -28 115l110 111q72 -100 72 -226q0 -167 -120 -287t-292 -120zM1636 1741q-106 0 -180 -76q-76 -76 -76 -183q0 -57 30 -115l-116 -110q-66 104 -66 225q0 173 120 293t288 120v153l230 -230l-230 -230v153z
" />
</svg>