<svg xmlns="http://www.w3.org/2000/svg" xmlns:xlink="http://www.w3.org/1999/xlink" version="1.1" viewBox="-10 0 2068 2048">
   <path fill="currentColor"
d="M466 1394q-127 0 -232.5 -61t-169.5 -167q-64 -109 -64 -233.5t64 -232.5t170 -170q106 -64 232 -64q70 -165 220 -268q152 -102 338 -102q157 0 292 74q136 73 218 202q82 128 96 282h44q156 0 266 108q108 108 108 262t-108 262q-110 108 -266 108h-92q-40 0 -66 -26
t-26 -66q0 -38 26 -64t66 -26h92q78 0 132 -56q54 -54 54 -133t-54 -133t-132 -54h-184v-92q0 -126 -62 -232q-64 -107 -170 -170q-107 -64 -234 -64q-174 0 -302 112q-129 110 -154 280q-50 -16 -102 -16q-116 0 -198 80q-80 80 -80 196q0 117 80 198q82 84 198 84h92
q38 0 67 25.5t29 64.5q0 41 -29 66.5t-67 25.5h-92zM1024 932h280l-188 370h188l-350 650l70 -462h-230z" />
</svg>