<svg xmlns="http://www.w3.org/2000/svg" xmlns:xlink="http://www.w3.org/1999/xlink" version="1.1" viewBox="-10 0 2068 2048">
   <path fill="currentColor"
d="M934 1116h182v187h-182v-187zM934 745h182v188h-182v-188zM934 1491h182q78 0 133 -55t55 -133v-139q0 -56 -42 -98t-98 -42q56 0 98 -41q42 -42 42 -98v-140q0 -77 -55 -132t-133 -55h-182q-78 0 -133 55t-55 132v140q0 56 42 98q40 41 98 41q-56 0 -98 42t-42 98v139
q0 78 55 133t133 55zM1024 0q-278 0 -514 138q-236 139 -372 372q-138 238 -138 514q0 277 138 515q136 233 372 372q234 137 514.5 137t513.5 -137q237 -139 372 -372q138 -236 138 -515q0 -278 -138 -514q-135 -233 -372 -372q-235 -138 -514 -138zM1024 1674
q-176 0 -326 -88q-149 -87 -236 -235q-86 -149 -86 -327q0 -177 86 -326q88 -150 236 -236q148 -87 326.5 -87t327.5 87q147 86 234 236q88 149 88 326q0 178 -88 327q-86 148 -234 235q-151 88 -328 88z" />
</svg>