<svg xmlns="http://www.w3.org/2000/svg" xmlns:xlink="http://www.w3.org/1999/xlink" version="1.1" viewBox="-10 0 2068 2048">
   <path fill="currentColor"
d="M1740 346q-82 0 -142 60t-60 142v698q-106 91 -106 226q0 129 92 218q92 88 218 88q128 0 217 -89t89 -217q0 -139 -102 -226v-698q0 -82 -60 -142t-146 -60zM1740 448q44 0 75 31t31 69v106h-208v-106q0 -38 31 -69t71 -31zM616 1884q-168 0 -310 -84
q-144 -84 -224 -226q-82 -142 -82 -304q0 -144 96 -346q80 -169 212 -362q95 -138 212 -284l96 -114l96 114q109 137 210 284q136 197 212 362q96 202 96 346q0 162 -84 304q-83 143 -226 226q-142 84 -304 84z" />
</svg>