<svg xmlns="http://www.w3.org/2000/svg" xmlns:xlink="http://www.w3.org/1999/xlink" version="1.1" viewBox="-10 0 2068 2048">
   <path fill="currentColor"
d="M392 414l-164 -82l112 -236h788l118 236l-164 82l-66 -136h-558zM1352 654h-418l-76 -280h-242l-74 280h-420l-122 234l170 84l66 -136h1002l66 136l164 -84zM1272 1952h-190l-22 -82l-322 -484l-324 484l-22 82h-190l264 -1020h196l-34 122l110 166l108 -166l-34 -122
h190zM680 1302l-82 -126l-110 418zM986 1594l-110 -418l-82 126zM2048 1394l-374 -370v278h-370v188h370v278z" />
</svg>