<svg xmlns="http://www.w3.org/2000/svg" xmlns:xlink="http://www.w3.org/1999/xlink" version="1.1" viewBox="-10 0 2058 2048">
   <path fill="currentColor"
d="M1654 1418q0 172 -84 318q-84 145 -229 229q-144 83 -317 83q-174 0 -318 -83q-145 -84 -229 -229q-83 -144 -83 -318q0 -104 34 -187q16 -41 72 -128q53 -83 71 -128q34 -78 34 -189q0 -109 55 -210q54 -98 152 -152q64 -38 133 -49v-109q0 -53 -25 -81
q-24 -27 -108 -27v-158q147 0 219 74q71 72 71 192v109q76 16 133 49q100 54 153 152q54 99 54 210t34 189q16 41 72 128q53 83 71 128q35 85 35 187z" />
</svg>