<svg xmlns="http://www.w3.org/2000/svg" xmlns:xlink="http://www.w3.org/1999/xlink" version="1.1" viewBox="-10 0 2068 2048">
   <path fill="currentColor"
d="M510 356h412v206h-412q-124 0 -216 89t-92 219t92 219t216 89h412v206h-412q-140 0 -258 -69q-117 -69 -184 -188q-68 -118 -68 -257t68 -257q67 -119 184 -188t258 -69zM1538 356q140 0 256 69q118 69 186 188t68 257h-202q0 -131 -92 -219q-92 -89 -216 -89h-414v-206
h414zM616 769h816v202h-816v-202zM1538 870h202v308h308v206h-308v308h-202v-308h-308v-206h308v-308z" />
</svg>