<svg xmlns="http://www.w3.org/2000/svg" xmlns:xlink="http://www.w3.org/1999/xlink" version="1.1" viewBox="-10 0 2068 2048">
   <path fill="currentColor"
d="M1440 818q77 -100 100 -224q22 -125 -20 -242q-44 -119 -138 -203q-94 -85 -216 -112q-51 -9 -106 -9q-133 0 -244.5 64t-175.5 178l846 846q-25 -32 -32 -42q-51 -51 -55.5 -123t41.5 -133zM1156 512q-42 0 -69 -27t-27 -69q0 -41 28 -68q28 -28 68 -28q39 0 70 28
q30 27 30 68q0 42 -29.5 69t-70.5 27zM572 453l-448 -453l-124 124l648 653l6 5q18 27 26 36q47 57 42 128q-4 71 -50 124q-99 103 -134 247q-35 141 8 281q44 141 150 238q108 98 250 130q55 9 114 9q156 4 288 -80t202 -226l374 379l124 -123zM964 1586q-40 0 -70 -27
t-30 -69q0 -40 30 -70t70.5 -30t67.5 30q28 31 28 70q0 41 -28 69q-26 27 -68 27zM1256 1682q-40 0 -70 -27q-30 -26 -30 -69q0 -42 30 -68q31 -28 70 -28q42 0 70 28q26 27 26 68q0 42 -27 69t-69 27zM1156 1390q-40 0 -68 -28q-28 -27 -28 -70q0 -44 32 -71l142 137
q-32 32 -78 32z" />
</svg>