<svg xmlns="http://www.w3.org/2000/svg" xmlns:xlink="http://www.w3.org/1999/xlink" version="1.1" viewBox="-10 0 2068 2048">
   <path fill="currentColor"
d="M1304 1212q-140 0 -306 39q-187 48 -300 122q-140 91 -140 209v187h1490v-187q0 -118 -140 -209q-113 -74 -300 -122q-164 -39 -304 -39zM1304 1024q152 0 261 -109t109 -263q0 -155 -109 -264t-261 -109q-154 0 -262 109q-108 108 -108 264q0 155 108 263
q108 109 262 109zM376 1303l-58 -48l-42 -39q-150 -140 -196 -200q-80 -102 -80 -186q0 -85 61 -146t145 -61q51 0 96 20q42 19 74 55q25 -35 71.5 -55t94.5 -20q86 0 145 59t59 146t-74 188q-53 61 -200 200l-44 39z" />
</svg>