<svg xmlns="http://www.w3.org/2000/svg" xmlns:xlink="http://www.w3.org/1999/xlink" version="1.1" viewBox="-10 0 2068 2048">
   <path fill="currentColor"
d="M672 1029q0 39 -8 72q-9 33 -30 62q-20 30 -50 46q-33 17 -74 17q-43 0 -72 -17q-28 -16 -48 -46q-21 -29 -30 -65q-10 -40 -10 -74q0 -35 10 -75q9 -34 30 -64q21 -31 50 -46q32 -17 74 -17t74 17t48 48q20 37 28 67q8 36 8 75zM2048 1024v803q0 39 -28 67
q-27 29 -68 29h-1346q-38 0 -67 -29t-29 -67v-289h-428q-34 0 -58 -26q-24 -27 -24 -60v-856q0 -33 24 -60q24 -26 58 -26h558v-294q0 -39 26 -65t64 -26h1100q40 0 66 26q26 27 26 65v712l106 57q10 10 15 20t5 19zM1538 317v260h254v-260h-254zM1538 702v259h254v-259
h-254zM1538 1086v159l260 -159h-260zM1086 317v260h322v-260h-322zM1086 702v259h322v-259h-322zM1086 1086v174l206 129l116 -67v-236h-322zM768 317v193h178q12 0 16 4v-197h-194zM510 1365q79 0 136 -26q61 -27 102 -72q40 -45 62 -111q22 -68 22 -137t-22 -132
q-22 -62 -60 -106q-40 -46 -98 -72t-136 -26q-76 0 -136 26q-63 27 -104 72q-42 47 -62 111q-22 64 -22 139t22 135q19 57 62 103q40 42 102 70q57 26 132 26zM640 1793h1056l-672 -418v77q0 34 -26 60t-60 26h-298v255zM1922 1784v-621l-504 303z" />
</svg>