<svg xmlns="http://www.w3.org/2000/svg" xmlns:xlink="http://www.w3.org/1999/xlink" version="1.1" viewBox="-10 0 2068 2048">
   <path fill="currentColor"
d="M1842 408h-1842v-408h1842v408zM666 820h508q24 0 40 15q14 14 14 33v135q91 -87 208 -135t252 -48h52v-307h-1640v1329h1026q-104 -164 -104 -360q0 -131 50 -249q51 -121 136 -211h-594v-154q0 -18 15 -33t37 -15zM1636 1075v-154l-232 230l232 231v-154q106 0 182 74
q76 75 76 180q0 63 -28 115l110 111q72 -100 72 -226q0 -167 -120 -287t-292 -120zM1636 1741q-106 0 -180 -76q-76 -76 -76 -183q0 -57 30 -115l-116 -110q-66 104 -66 225q0 173 120 293t288 120v153l230 -230l-230 -230v153z" />
</svg>