<svg xmlns="http://www.w3.org/2000/svg" xmlns:xlink="http://www.w3.org/1999/xlink" version="1.1" viewBox="-10 0 2068 2048">
   <path fill="currentColor"
d="M112 0h118v229h-230v-117q0 -48 32 -80t80 -32zM1936 0q48 0 80 32t32 80v117h-230v-229h118zM1366 229v-229h228v229h-228zM912 229v-229h224v229h-224zM454 229v-229h230v229h-230zM2048 1936q0 48 -32 80t-80 32h-118v-229h230v117zM1366 2048v-229h228v229h-228z
M912 2048v-229h224v229h-224zM454 2048v-229h230v229h-230zM112 2048q-48 0 -80 -32t-32 -80v-117h230v229h-118zM0 1365h230v230h-230v-230zM2048 1365v230h-230v-230h230zM0 912h230v224h-230v-224zM2048 912v224h-230v-224h230zM0 453h230v230h-230v-230zM2048 453v230
h-230v-230h230z" />
</svg>