<svg xmlns="http://www.w3.org/2000/svg" xmlns:xlink="http://www.w3.org/1999/xlink" version="1.1" viewBox="-10 0 2058 2048">
   <path fill="currentColor"
d="M1671 1077q-170 0 -318 86q-146 85 -233 228q-96 10 -202 10q-234 0 -432 -58q-202 -59 -316 -157q-116 -98 -116 -215v-324q0 117 116 215q114 98 316 157q198 58 432 58t432 -58q200 -59 316 -157q116 -99 116 -215v324q0 55 -30 111q-28 -5 -81 -5zM918 865
q234 0 432 -58q200 -59 316 -157q116 -99 116 -217q0 -119 -116 -218q-116 -98 -316 -157q-198 -58 -432 -58t-432 58q-202 59 -316 157q-116 98 -116 218q0 119 116 217q114 98 316 157q198 58 432 58zM1034 1613q-40 5 -116 5q-234 0 -432 -58q-202 -59 -316 -157
q-116 -98 -116 -214v323q0 117 116 215q114 98 316 157q198 58 432 58q91 0 141 -5q-35 -104 -35 -212q0 -55 10 -112zM1671 1295l-323 323h217v430h217v-430h212z" />
</svg>