<svg xmlns="http://www.w3.org/2000/svg" xmlns:xlink="http://www.w3.org/1999/xlink" version="1.1" viewBox="-10 0 2058 2048">
   <path fill="currentColor"
d="M1739 211q-124 -110 -327 -163q-50 -12 -144 -29q-126 -19 -226 -19h-38q-100 0 -236 19q-106 19 -144 29q-193 53 -317 163q-149 135 -168 337q-19 182 62 375q165 402 370 707l53 77q114 166 178 230q111 111 219 111q109 0 214 -101q65 -61 177 -221l72 -96
q198 -277 370 -707q77 -193 53 -375q-24 -202 -168 -337zM1657 841q-169 422 -346 664q-10 10 -26 36t-26 36q-51 86 -116 163q-81 106 -120 106q-44 0 -120 -91q-41 -50 -120 -164l-5 -14q-10 -10 -26 -36q-14 -23 -27 -36q-200 -303 -346 -664l-5 -9q-33 -125 -33 -212
q-4 -168 96 -264q66 -59 235 -111q25 0 96 -14q166 -29 236 -29h29q79 0 192 19q87 14 134 24q177 52 236 111q115 100 110 274q-4 110 -48 211z" />
</svg>