<svg xmlns="http://www.w3.org/2000/svg" xmlns:xlink="http://www.w3.org/1999/xlink" version="1.1" viewBox="-10 0 2068 2048">
   <path fill="currentColor"
d="M1846 1034q-24 0 -44 19l-100 106l216 216l100 -106q14 -14 14 -41t-14 -41l-134 -134q-20 -19 -38 -19zM1648 1221l-624 615v212h216l624 -625zM616 409h-208v-409h208v409zM818 1433h-202v-202h202v202zM1024 409h-206v-409h206v409zM1432 0v202h-202v-202h202z
M1846 202h-208v-202h208v202zM818 1846v-207h-202v-206h-208v-202h-206v-207h206v-615h-206v-409h-202v2048h818v-202zM408 1846h-206v-207h206v207zM2048 817h-410v-202h410v202zM1846 409v-207h202v207h-202zM1638 202v413h-408v-206h202v-207h206zM818 1639v-206h206
v-409h-408v-409h408v202h206v207h202v-207h206v116l-298 298h-110v110l-298 298h-114z" />
</svg>