<svg xmlns="http://www.w3.org/2000/svg" xmlns:xlink="http://www.w3.org/1999/xlink" version="1.1" viewBox="-10 0 2068 2048">
   <path fill="currentColor"
d="M202 303h308l206 -202h616l206 202h308q82 0 142 60t60 147v1230q0 87 -60 147t-142 60h-1644q-82 0 -142 -60t-60 -147v-1230q0 -87 60 -147t142 -60zM1024 611q-140 0 -258 69q-118 70 -186 188q-70 120 -70 257t70 257q68 118 186 188q118 69 258 69t256 -69
q120 -71 188 -188q70 -118 70 -257t-70 -257q-68 -117 -188 -188q-117 -69 -256 -69zM1024 817q130 0 219 89t89 219t-89 219t-219 89t-220 -89q-88 -88 -88 -219t88 -219q90 -89 220 -89z" />
</svg>