<svg xmlns="http://www.w3.org/2000/svg" xmlns:xlink="http://www.w3.org/1999/xlink" version="1.1" viewBox="-10 0 2058 2048">
   <path fill="currentColor"
d="M1598 2048l-54 -50l-44 -40q-154 -145 -208 -208q-76 -103 -76 -191q0 -89 63 -152t149 -63q48 0 96 21t74 56q30 -34 78 -56q44 -21 98 -21q87 0 150 61q62 62 62 151q0 91 -80 194q-52 65 -204 208l-44 40zM1410 190v577l-194 -190l-194 190v-577h-384v1542h392
q19 99 68 190h-654q-72 0 -131 -59t-59 -131v-99h-192v-189h192v-388h-192v-190h192v-388h-192v-189h192v-99q0 -77 58 -134q56 -56 132 -56h1154q76 0 135 59t59 131v902q-94 -36 -194 -36v-866h-188zM254 1633h190v-189h-190v189zM254 1056h190v-190h-190v190zM254 478
h190v-189h-190v189z" />
</svg>