<svg xmlns="http://www.w3.org/2000/svg" xmlns:xlink="http://www.w3.org/1999/xlink" version="1.1" viewBox="-10 0 2058 2048">
   <path fill="currentColor"
d="M1353 1604q100 0 169 -71q69 -70 69 -168.5t-69 -169.5t-168.5 -71t-169.5 71q-69 70 -69 168.5t69 169.5q70 71 169 71zM1860 1430l146 115q23 18 5 41l-133 238q-17 22 -45 13l-169 -68q-53 42 -115 68l-27 179q0 13 -9 22q-10 10 -23 10h-274q-27 0 -32 -32l-28 -179
q-54 -24 -114 -68l-169 68q-13 4 -24.5 0t-16.5 -13l-137 -238q-13 -23 9 -41l142 -115l-5 -68l5 -64l-142 -114q-23 -18 -9 -46l137 -233q5 -15 16 -19q12 -4 25 0l169 74q66 -50 114 -69l28 -183q5 -27 32 -27h274q14 0 23 9t9 18l27 183q56 21 115 69l169 -74
q27 -9 45 19l133 233q19 27 -5 46l-146 114l5 64zM457 589q65 0 108 -43t43 -108t-43 -109q-44 -46 -108 -46q-63 0 -109 46t-46 109q0 64 46 108q45 43 109 43zM782 480l96 73q9 13 0 27l-87 151q-9 18 -27 9l-110 -41l-69 41l-18 119q-4 18 -23 18h-173q-23 0 -23 -18
l-19 -119l-73 -41l-109 41q-18 9 -28 -9l-87 -151q-8 -13 5 -27l91 -73v-42v-45l-91 -73q-14 -10 -5 -28l87 -151q10 -18 28 -9l109 41l73 -41l19 -114q0 -18 23 -18h173q19 0 23 18l18 114l69 41l110 -41q18 -9 27 9l87 151q10 19 0 28l-96 73l4 45z" />
</svg>