<svg xmlns="http://www.w3.org/2000/svg" xmlns:xlink="http://www.w3.org/1999/xlink" version="1.1" viewBox="-10 0 2068 2048">
   <path fill="currentColor"
d="M1956 279v-48q0 -97 -70 -164t-166 -67t-164 67q-68 68 -68 164v48q-39 0 -64 29q-28 30 -28 63v375q0 34 28 64q25 28 64 28h468q34 0 62 -28q30 -29 30 -64v-375q0 -34 -29 -63t-63 -29zM1860 279h-280v-48q0 -57 42 -98q42 -42 101 -42t98 42t39 98v48zM372 1026h838
v183h-838v-183zM372 650h838v188h-838v-188zM1860 1026v463q0 78 -55 133t-129 55h-1304l-372 371v-1677q0 -75 54 -129q56 -55 130 -55h1026v184h-1026v1227l108 -109h1384v-463h184z" />
</svg>