<svg xmlns="http://www.w3.org/2000/svg" xmlns:xlink="http://www.w3.org/1999/xlink" version="1.1" viewBox="-10 0 2068 2048">
   <path fill="currentColor"
d="M2048 1890q-121 32 -214 32q-298 0 -400 -448h-8q-252 480 -694 480q-329 0 -530 -248q-202 -248 -202 -626q0 -435 224 -710q226 -276 612 -276q210 0 374 116q160 113 248 326l124 -410h426l-354 898q55 318 122 430q67 114 170 114q57 0 102 -24v346zM1332 1008
q-56 -283 -170 -436q-115 -154 -272 -154q-213 0 -334 182q-122 182 -122 456q0 253 106 418q106 164 288 164q150 0 274 -140q128 -145 206 -426z" />
</svg>