<svg xmlns="http://www.w3.org/2000/svg" xmlns:xlink="http://www.w3.org/1999/xlink" version="1.1" viewBox="-10 0 2065 2048">
   <path fill="currentColor"
d="M717 1842v206h-206v-206h206zM1125 1842v206h-201v-206h201zM1537 1842v206h-206v-206h206zM1024 1127h-206v-206h206v206zM1638 1127h-408v-206h408v206zM617 719h-206v-206h206v206zM1638 719h-820v-206h820v206zM1844 1640h-1640q-81 0 -141 -60t-60 -146v-1228
q0 -86 60 -146t141 -60h1640q81 0 141 60t60 146v1228q0 86 -60 146t-141 60zM204 206v1228h1640v-1228h-1640z" />
</svg>