<svg xmlns="http://www.w3.org/2000/svg" xmlns:xlink="http://www.w3.org/1999/xlink" version="1.1" viewBox="-10 0 2068 2048">
   <path fill="currentColor"
d="M922 1125h202v207h-202v-207zM922 308h202v615h-202v-615zM1538 284q141 108 224 278q84 172 84 361q0 224 -118 418q-117 190 -310 298h-788q-194 -108 -310 -298q-118 -194 -118 -418q0 -186 82 -361q79 -170 226 -278v-284h-202v187q-149 144 -228 335
q-80 189 -80 401q0 213 80 399q79 188 228 332v394h202v-202h206v202h206v-202h202v202h208v-202h206v202h202v-394q148 -144 228 -332q80 -189 80 -399q0 -209 -80 -401q-80 -191 -228 -335v-187h-202v284z" />
</svg>