<svg xmlns="http://www.w3.org/2000/svg" xmlns:xlink="http://www.w3.org/1999/xlink" version="1.1" viewBox="-10 0 2068 2048">
   <path fill="currentColor"
d="M1442 1327l266 157l-70 113l-334 -200v-467h138v397zM2048 1301q0 179 -87 329t-237 237t-330 87q-161 0 -300 -76q-138 -76 -230 -203h-584v-745h-280l934 -836l648 584q206 62 336 233q130 172 130 390zM1860 1301q0 -127 -62 -233q-63 -106 -170 -168
q-106 -61 -233.5 -61t-232.5 61q-107 62 -168 168q-60 104 -60 233t60 233q61 107 168 170q106 63 232.5 63t233.5 -63q106 -63 170 -170q62 -107 62 -233z" />
</svg>