<svg xmlns="http://www.w3.org/2000/svg" xmlns:xlink="http://www.w3.org/1999/xlink" version="1.1" viewBox="-10 0 2068 2048">
   <path fill="currentColor"
d="M1856 933q-22 -194 -124 -353q-102 -161 -264 -264q-159 -101 -352 -124v-192h-182v192q-162 18 -298 92l140 139q122 -48 248 -48q179 0 328 87q147 86 234 236q88 149 88 326q0 126 -44 249l140 139q68 -135 86 -296h192v-183h-192zM188 305l192 192q-162 193 -188 436
h-192v183h192q23 194 124 353q102 160 264 263t354 125v191h182v-191q243 -30 436 -188l192 192l116 -118l-1554 -1555zM1420 1539q-174 135 -396 135q-176 0 -326 -88q-149 -87 -236 -235q-86 -149 -86 -327q0 -222 134 -396z" />
</svg>