<svg xmlns="http://www.w3.org/2000/svg" xmlns:xlink="http://www.w3.org/1999/xlink" version="1.1" viewBox="-10 0 2058 2048">
   <path fill="currentColor"
d="M1346 0q-211 19 -538 144q-90 66 -212 135v9q7 0 20 -4h4q15 -5 15 9l10 -9h9v9q0 5 -144 111l10 14l-24 -5q0 5 -20 10v5l15 19q-9 0 -19 -5q-49 5 -97 68l10 14q38 -38 48 -38v19l-19 9l14 24q43 -43 106 -86q34 5 34 14h14q155 -116 308 -168l4 14q-33 44 -43 44
q4 13 15 24q0 27 -145 356q-326 762 -543 1124q0 3 10 20q58 -15 67 -24h10v9h14l15 -9q0 9 14 9v10q0 23 -24 62q-18 22 -43 106v5h9q97 -108 135 -192q264 -77 394 -149q132 -9 207 -68l-5 -9l-34 9h-5v-4q101 -15 135 -49q204 -153 293 -211q308 -227 293 -433
q-4 -23 -134 -168q-5 -30 91 -82l178 -158q57 -72 72 -246l-5 -28q-9 -121 -173 -193q-95 -62 -346 -67zM1562 86q197 9 202 73l-5 14zM1433 197q139 0 144 77h9v-34l15 -4q53 24 57 72q0 29 -28 67q-16 5 -20 -19h-14v43q-87 135 -130 139q-39 48 -48 48q-28 39 -154 116
q-47 4 -307 120q-10 -5 -29 -5v-9q-4 -39 34 -101q15 -106 43 -125l149 -332q0 -33 96 -48l24 -5v24q85 -17 118 -22q14 -2 41 -2zM1740 236h5q19 0 38 62v10q-9 5 -38 -63zM904 447h5l5 19q-14 0 -29 29v-14q19 -23 19 -34zM476 457l5 4q-4 0 -14 5l-5 5h-10l-4 -10z
M842 586l4 29h-9v-29h5zM827 635q-5 29 -19 33h-10q15 -24 15 -33h14zM798 702v9l-14 20h-10l-5 -5q20 0 20 -24h9zM769 769l-4 29h-10v-29h14zM1490 788l29 20q4 14 -10 14q-22 -10 -28 -10v-19zM923 865v15h-24l-5 -10zM1385 913q28 15 28 24v5q-29 5 -53 -29h25z
M1606 933q19 9 24 19l4 53q-9 24 -24 24zM1245 942q111 -5 164 48l4 29q-44 136 -105 164l-183 144q-196 130 -211 130q-317 173 -399 182h-10q18 -47 288 -581q116 -9 380 -111zM986 981v9h-29v-5zM539 1413q-15 72 -29 72v-4q-5 -39 29 -68zM1144 1442v15q2 2 -3.5 8
t-19.5 18t-34 27q-181 88 -212 115q-192 68 -192 86q-169 66 -221 97q-16 5 -39 -10q-5 -34 29 -58q36 0 58 10q46 -19 110 -34v-14l-43 5q10 -10 125 -58l19 -5l5 10q-58 5 -62 33q0 10 14 10l5 -5l34 -24q73 -15 427 -226zM496 1505l4 5q0 15 -14 19v-10q-5 -10 10 -14z
M818 1586q14 -4 14 10q-30 5 -96 43h-5l-5 -14q51 -4 92 -39zM505 1692v5q-2 0 -19 10h-14q0 -11 14 -15h19zM342 1774l14 5q-9 58 -38 67q-18 -14 -43 -14v-20q0 -9 12 -12q6 -1 10 3t6 14q33 -43 39 -43z" />
</svg>