<svg xmlns="http://www.w3.org/2000/svg" xmlns:xlink="http://www.w3.org/1999/xlink" version="1.1" viewBox="-10 0 2058 2048">
   <path fill="currentColor"
d="M428 1196h1192l-128 -384h-936zM1492 1620q56 0 92 -36t36 -90t-36 -92t-90 -38t-92 38t-38 92t38 90t90 36zM556 1620q52 0 90 -36t38 -90t-38 -92t-92 -38t-90 38t-36 92t36 90t92 36zM1616 768l176 512v684q0 36 -24 60t-60 24h-88q-36 0 -60 -24t-24 -60v-88h-1024
v88q0 36 -24 60t-60 24h-88q-36 0 -60 -24t-24 -60v-684l176 -512q16 -36 48 -60q31 -24 76 -24h936q44 0 76 24t48 60zM1024 0q137 0 260 52q124 52 224 148l-124 120q-73 -73 -166 -110q-96 -38 -194 -38t-194 38q-93 37 -166 110l-120 -120q96 -96 220 -148
q123 -52 260 -52zM1024 340q139 0 240 104l-120 120q-52 -52 -120 -52t-120 52l-120 -120q101 -104 240 -104z" />
</svg>