<svg xmlns="http://www.w3.org/2000/svg" xmlns:xlink="http://www.w3.org/1999/xlink" version="1.1" viewBox="-10 0 2068 2048">
   <path fill="currentColor"
d="M922 716q0 131 -90 219q-93 89 -219.5 89t-215.5 -89t-89 -219q0 -129 89 -218t215.5 -89t219.5 89q90 88 90 218zM1230 1846h-1230v-207q0 -111 82 -204q81 -93 224 -149q141 -55 306 -55q167 0 308.5 55t225.5 149q84 93 84 204v207zM510 716q0 44 30 72q33 29 72.5 29
t71.5 -29t32 -72t-32 -72t-71.5 -29t-72.5 29q-30 28 -30 72zM202 1639h822q0 -86 -120 -146t-292 -60q-170 0 -290 60q-120 61 -120 146zM2048 1024v207h-924v-207h924zM2048 615v202h-924v-202h924zM2048 202v207h-924v-207h924z" />
</svg>