<svg xmlns="http://www.w3.org/2000/svg" xmlns:xlink="http://www.w3.org/1999/xlink" version="1.1" viewBox="-10 0 2068 2048">
   <path fill="currentColor"
d="M252 918q62 0 108 -46q44 -46 44 -110q0 -63 -44 -106q-45 -44 -107.5 -44t-106.5 44q-46 43 -46 106q0 64 46 110t106 46zM2048 732q0 -193 -96 -360q-93 -162 -260 -260q-163 -96 -356.5 -96t-357.5 96q-166 98 -258 260q-96 167 -96 360q0 261 168.5 458.5
t425.5 241.5v400h-814v-306h100v-408q0 -44 -28 -72t-72 -28h-304q-44 0 -72 28t-28 72v408h100v506h1624v-200h-306v-396q179 -19 320 -118q141 -100 226 -256q84 -154 84 -330z" />
</svg>