<svg xmlns="http://www.w3.org/2000/svg" xmlns:xlink="http://www.w3.org/1999/xlink" version="1.1" viewBox="-10 0 2068 2048">
   <path fill="currentColor"
d="M1846 409h-1212q-81 -97 -208.5 -101.5t-225.5 82.5q-98 86 -98 226v923q-44 0 -74 29q-28 28 -28 72v101h818v-101q0 -43 -29 -72t-73 -29v-721h1130q82 0 142 -60t60 -144q0 -85 -60 -145t-142 -60zM408 770q-62 0 -108 -46t-46 -110q0 -65 46 -109q45 -43 108.5 -43
t107.5 43q46 44 46 109q0 64 -46 110t-108 46zM870 717l-154 -207h154l154 207h-154zM1278 717l-154 -207h154l154 207h-154zM1692 717l-154 -207h154l154 207h-154z" />
</svg>