<svg xmlns="http://www.w3.org/2000/svg" xmlns:xlink="http://www.w3.org/1999/xlink" version="1.1" viewBox="-10 0 2063 2048">
   <path fill="currentColor"
d="M2043 1925l-1911 -1925l-127 127l564 565l-9 18q-58 -73 -155 -105q-81 -27 -182 -13q-109 13 -130 68q-21 53 62 127q82 73 163 89t164 -2v127q0 89 32 182q30 86 87 169q-119 114 -119 232q0 104 80 193t211 141q133 53 292 53q181 0 329 -66q149 -66 212 -176l323 319
zM814 924q-41 27 -41 75q0 47 28 73q26 25 75 25q47 0 70 -37l137 137h-9q-169 0 -301 54q-95 -95 -95 -250q0 -101 36 -164zM1451 1584q0 82 -114 139q-112 56 -272 56q-161 0 -273 -56q-114 -57 -114 -139t114 -139t273 -57q139 0 250 50l136 137v9zM842 469l-187 -187
q88 -115 214 -155l-9 9q-36 63 -50 128q-18 108 32 205zM996 623l-154 -154q115 -50 223 -50q107 0 222 50q74 -142 -13 -314l-14 -28q130 44 205 151q64 84 73 195q4 95 -28 160l59 77q58 -73 155 -105q81 -27 182 -13q109 13 130 68q21 53 -62 127q-82 73 -163 89t-164 -2
v127q0 108 -50 223l-155 -155q0 -6 5 -34q4 -23 4 -34q0 -159 -114 -273t-272 -114q-51 0 -69 9zM1260 1634q0 18 -14 32q-13 13 -36 13t-36 -13q-14 -14 -14 -34q0 -21 14 -35q13 -13 36 -13t36 13q14 14 14 37zM969 1634q0 18 -14 32q-13 13 -36 13t-36 -13
q-14 -14 -14 -34q0 -21 14 -35q13 -13 36 -13t36 13q14 14 14 37z" />
</svg>