<svg xmlns="http://www.w3.org/2000/svg" xmlns:xlink="http://www.w3.org/1999/xlink" version="1.1" viewBox="-10 0 2058 2048">
   <path fill="currentColor"
d="M1435 1101q-53 -53 -57.5 -130t42.5 -139q87 -107 108 -236q21 -130 -24 -255q-45 -126 -144 -214q-99 -89 -228 -117q-58 -10 -106 -10q-141 0 -257 67q-119 69 -187 185q-70 120 -70 258q0 183 115 322q49 58 44 134q-4 77 -53 130q-106 112 -142 260q-35 146 10 295
q45 146 158 250t262 137q63 10 120 10q169 0 308 -91q138 -91 206 -246q67 -154 39 -319q-28 -166 -144 -291zM1127 308q44 0 75 28t31 73q0 44 -31 72q-32 29 -75 29t-72 -29t-29 -72q0 -44 29 -73q28 -28 72 -28zM925 1639q-42 0 -74 -29q-31 -28 -31 -72q0 -43 31 -74
t74 -31q44 0 72 31q29 32 29 74q0 43 -29 72t-72 29zM1026 1332q0 -43 29 -72t72 -29t75 29q31 28 31 72t-31 72q-32 29 -75 29t-72 -29t-29 -72zM1233 1740q-43 0 -75 -29q-31 -28 -31 -72t31 -72q32 -29 75 -29t72 29t29 72t-29 72t-72 29z" />
</svg>