<svg xmlns="http://www.w3.org/2000/svg" xmlns:xlink="http://www.w3.org/1999/xlink" version="1.1" viewBox="-10 0 2058 2048">
   <path fill="currentColor"
d="M1865 788q74 113 35 330q-34 190 -143 418q-99 213 -219 362q-120 150 -202 150t-135 -19q-33 -14 -79 -45q-23 -15 -49 -29q-18 -10 -49 -10t-50 10q-25 14 -49 29q-48 32 -78 45q-52 19 -136 19q-82 0 -202 -150q-117 -146 -218 -362q-109 -228 -143 -418
q-39 -218 34 -330q147 -216 369 -261q188 -39 369 54v-315q-171 90 -305 109q-113 20 -206 -15q-74 -30 -128 -84q-42 -48 -69 -93l-15 -45l30 -39q50 -43 93 -64q75 -35 153 -35q97 0 201 59q119 65 246 207v-211h207v526q182 -93 369 -54q222 45 369 261z" />
</svg>