<svg xmlns="http://www.w3.org/2000/svg" xmlns:xlink="http://www.w3.org/1999/xlink" version="1.1" viewBox="-10 0 2068 2048">
   <path fill="currentColor"
d="M1024 0q-278 0 -514 137q-235 136 -372 373q-138 236 -138 514t138 514q137 237 372 373q236 137 513.5 137t514.5 -137q236 -137 372 -373q138 -236 138 -514t-138 -514q-136 -236 -372 -373q-237 -137 -514 -137zM1384 615q63 0 108 44q46 43 46 108t-46 110
q-46 46 -110 46t-108 -46q-44 -44 -44 -110q0 -65 44 -108q44 -44 110 -44zM664 615q66 0 110 44t44 108t-44 110q-45 46 -108 46q-64 0 -110 -46t-46 -110t46 -108q45 -44 108 -44zM500 1538q62 -163 204 -262q142 -98 320 -98t320 98q140 98 204 262h-1048z" />
</svg>