<svg xmlns="http://www.w3.org/2000/svg" xmlns:xlink="http://www.w3.org/1999/xlink" version="1.1" viewBox="-10 0 2068 2048">
   <path fill="currentColor"
d="M998 906q-86 86 -130 195q-46 109 -46 225v-322h-548v365h548v-43q0 115 48 227h-776v-549h-94v-184l94 -454h1460l82 407q-162 -65 -336 -30q-173 34 -302 163zM1554 92h-1460v180h1460v-180zM2048 1827l-130 129l-282 -283q-102 64 -218 64q-172 0 -292 -120t-120 -291
q0 -172 120 -292t292 -120t292 120t120 292q0 118 -66 218zM1644 1326q0 -94 -66 -163t-160 -69t-160 69q-68 70 -68 163t67 160t161 67t160 -67q66 -66 66 -160z" />
</svg>