<svg xmlns="http://www.w3.org/2000/svg" xmlns:xlink="http://www.w3.org/1999/xlink" version="1.1" viewBox="-10 0 2068 2048">
   <path fill="currentColor"
d="M1024 202q222 0 410.5 110t299.5 301q112 191 112 411t-112 411q-110 190 -300 300q-190 111 -410.5 111t-411.5 -111q-189 -110 -300 -300q-110 -191 -110 -411t110 -411q112 -191 300.5 -301t411.5 -110zM1024 0q-278 0 -514 137q-235 136 -372 373q-138 236 -138 514
t138 514q137 237 372 373q236 137 513.5 137t514.5 -137q236 -137 372 -373q138 -236 138 -514t-138 -514q-136 -236 -372 -373q-237 -137 -514 -137zM1024 923q-44 0 -73 29t-29 72t29 72t72 29t72 -29t29 -72t-29 -72t-71 -29zM894 745q64 -29 130 -29t134 29l72 -72
q-97 -58 -206 -58t-206 58zM1332 1024q0 66 -30 135l72 72q58 -98 58 -207t-58 -207l-72 77q30 64 30 130zM716 1024q0 -68 28 -130l-72 -77q-56 96 -56 207t56 207l72 -72q-28 -66 -28 -135zM1158 1303q-68 29 -134 29t-130 -29l-76 72q97 58 206 58t206 -58zM1524 668
l-72 72q86 129 86 284t-86 284l72 72q114 -158 114 -356t-114 -356zM740 596q128 -86 284 -86t284 86l72 -72q-159 -115 -356 -115t-356 115zM1308 1452q-128 86 -284 86t-284 -86l-72 72q159 115 356 115t356 -115zM596 1308q-86 -129 -86 -284t86 -284l-72 -72
q-116 158 -116 356t116 356z" />
</svg>