<svg xmlns="http://www.w3.org/2000/svg" xmlns:xlink="http://www.w3.org/1999/xlink" version="1.1" viewBox="-10 0 2068 2048">
   <path fill="currentColor"
d="M1846 1074h-414q0 86 -60 148q-60 60 -142 60h-412q-82 0 -142 -60t-60 -148h-414l-202 514v208q0 82 60 142t142 60h1644q82 0 142 -60t60 -142v-208zM408 1796q-43 0 -71 -31t-31 -73q-3 -40 28.5 -72t73.5 -32q44 0 73 29t29 72t-30 75q-28 32 -72 32zM818 1796
q-45 0 -73.5 -31t-28.5 -72t32 -73t71.5 -32t72.5 30q30 28 30 72t-31 75t-73 31zM1230 1796q-48 0 -76 -32q-30 -32 -30 -72t32 -72t71.5 -32t72 29t32.5 72t-32 75t-70 32zM1638 1796q-43 0 -71 -31t-31 -73q-3 -40 28.5 -72t73.5 -32q44 0 73 29t29 72t-30 75
q-28 32 -72 32zM1638 766v-716h-1230v716h-306v208h1844v-208h-308zM616 258h816v100h-816v-100zM616 460h614v104h-614v-104z" />
</svg>