<svg xmlns="http://www.w3.org/2000/svg" xmlns:xlink="http://www.w3.org/1999/xlink" version="1.1" viewBox="-10 0 2068 2048">
   <path fill="currentColor"
d="M558 466h932q148 0 278 74q127 73 204 202q76 129 76 281.5t-76 280.5q-78 132 -204 204q-130 74 -278 74q-120 0 -230 -50q-108 -49 -188 -138h-96q-79 89 -186 138q-111 50 -232 50q-147 0 -276 -74q-127 -72 -204 -204q-78 -129 -78 -280.5t78 -281.5
q76 -129 204 -202q129 -74 276 -74zM466 744v188h-186v184h186v186h188v-186h184v-184h-184v-188h-188zM1352 1024q-62 0 -101 42t-39 98t38 98q39 40 98.5 40t100.5 -41t41 -98t-40 -97q-42 -42 -98 -42zM1630 744q-62 0 -101 42t-39 98t40 98q38 42 98 42q58 0 100 -42
t42 -98t-42 -98t-98 -42z" />
</svg>