<svg xmlns="http://www.w3.org/2000/svg" xmlns:xlink="http://www.w3.org/1999/xlink" version="1.1" viewBox="-10 0 2068 2048">
   <path fill="currentColor"
d="M188 375v1486h1486v187h-1486q-78 0 -132 -54q-56 -55 -56 -133v-1486h188zM1394 1116h188v-558h-188v558zM1860 0h-1302q-74 0 -128 55q-54 54 -54 133v1303q0 74 54 128q54 55 128 55h1302q78 0 134 -55q54 -54 54 -128v-1303q0 -79 -54 -133q-56 -55 -134 -55z
M1024 1303h-186v-745h-184v-183h370v928zM1770 1116q0 78 -56 133q-54 54 -132 54h-188q-74 0 -128 -54q-54 -55 -54 -133v-558q0 -73 55 -128t127 -55h188q78 0 133 55t55 128v558z" />
</svg>