<svg xmlns="http://www.w3.org/2000/svg" xmlns:xlink="http://www.w3.org/1999/xlink" version="1.1" viewBox="-10 0 2058 2048">
   <path fill="currentColor"
d="M884 1118l-280 -372h-558v1302h1860l-560 -743zM1024 1375l-606 205l-188 -65v-175l188 61l366 -122zM508 930l150 196l-240 79l-188 -61v-214h278zM230 1864v-153l188 66l842 -284l274 371h-1304zM1442 559v-468l-466 -91l-280 187v372l280 187zM884 284l132 -88l240 48
v188l-258 105l-114 -79v-174zM1582 650l-236 188v280l236 187l420 -187v-372zM1814 995l-206 92l-74 -57v-105l92 -74l188 44v100z" />
</svg>