<svg xmlns="http://www.w3.org/2000/svg" xmlns:xlink="http://www.w3.org/1999/xlink" version="1.1" viewBox="-10 0 2068 2048">
   <path fill="currentColor"
d="M1600 1470v176h-1066v-176l4 -38q9 -46 34 -88q26 -58 78 -108q66 -56 158 -88q107 -36 260 -36q236 0 374 92q100 65 142 174q16 48 16 92zM1334 670q0 -114 -77 -191t-187 -77t-190 78q-80 76 -80 188q0 110 80 188q80 80 190 80q111 0 187.5 -80t76.5 -186zM1622 1120
q70 65 112 158q42 91 46 192v176h268v-176l-10 -50q-11 -57 -46 -108q-46 -76 -124 -122q-102 -59 -246 -70zM1514 402q-42 0 -80 12q80 112 80 254q0 139 -80 256q41 12 80 12q113 0 189.5 -80t76.5 -188q0 -112 -77 -189t-189 -77zM568 748l100 126l-422 424l-246 -266
l104 -104l142 142z" />
</svg>