<svg xmlns="http://www.w3.org/2000/svg" xmlns:xlink="http://www.w3.org/1999/xlink" version="1.1" viewBox="-10 0 2058 2048">
   <path fill="currentColor"
d="M830 686h192v585h-192v-585zM1218 0h-584v197h584v-197zM926 1856q-187 0 -342 -91t-248 -250q-90 -157 -90 -342q0 -186 90 -343q92 -158 248 -249q156 -92 342 -92t342 92q156 91 248 249t92 340q92 0 196 37v-37q0 -153 -50 -290q-52 -142 -142 -254l136 -141
q-72 -82 -136 -138l-138 142q-113 -91 -256 -144q-139 -52 -292 -52q-238 0 -438 118q-202 119 -320 320q-120 202 -120 439q0 236 120 441q117 202 320 320q200 117 438 117q79 0 164 -14q-45 -93 -58 -187q-65 9 -106 9zM1218 1659v197h782v-197h-782z" />
</svg>