<svg xmlns="http://www.w3.org/2000/svg" xmlns:xlink="http://www.w3.org/1999/xlink" version="1.1" viewBox="-10 0 2060 2048">
   <path fill="currentColor"
d="M762 1942h-536q-91 0 -154 -63q-64 -64 -64 -154v-1507q0 -91 64 -155q63 -63 154 -63h1506q91 0 154 63t63 155v571q-52 -20 -106 -20q-57 0 -111 25v-576h-1506v1507h551l-15 15v202zM438 647h1082v-217h-1082v217zM438 1512h551l207 -202v-15h-758v217zM438 1077h986
l96 -91v-121h-1082v212zM2025 1143l-136 -142q-20 -15 -43 -15q-24 0 -43 15l-106 112l222 217l106 -106q15 -15 15 -41q0 -25 -15 -40zM979 2048h222l652 -652l-222 -223l-652 653v222z" />
</svg>