<svg xmlns="http://www.w3.org/2000/svg" xmlns:xlink="http://www.w3.org/1999/xlink" version="1.1" viewBox="-10 0 2068 2048">
   <path fill="currentColor"
d="M2004 1452l-200 196l200 200l-130 130l-200 -200l-196 200l-132 -130l196 -200l-196 -196l132 -132l196 196l200 -196zM1024 1090q-78 0 -132 54t-54 133t54 133t132 54t134 -54q54 -54 54 -133t-54 -133t-134 -54zM1150 1834h-730q-62 0 -112 -38q-50 -40 -68 -96
l-234 -864q-6 -10 -6 -26q0 -34 29 -63t67 -29h446l404 -610q30 -38 78 -38t78 38l406 610h444q38 0 68 30q28 28 28 62l-4 26l-92 332q-84 -51 -174 -66l56 -196h-1616l202 742h696q0 94 34 186zM764 718h522l-262 -392z" />
</svg>