<svg xmlns="http://www.w3.org/2000/svg" xmlns:xlink="http://www.w3.org/1999/xlink" version="1.1" viewBox="-10 0 2068 2048">
   <path fill="currentColor"
d="M1024 0q-278 0 -514 137q-235 136 -372 373q-138 236 -138 514t138 514q137 237 372 373q236 137 513.5 137t514.5 -137q236 -137 372 -373q138 -236 138 -514t-138 -514q-136 -236 -372 -373q-237 -137 -514 -137zM778 1558q-32 0 -82 -20l-56 145l-120 -44l18 -38
q78 -201 140 -317q100 -172 240 -279q168 -131 414 -188l-68 5q-78 9 -164 34q-112 32 -210 86q-122 68 -212 168q-107 122 -164 279l-24 -33q-35 -46 -52 -82q-30 -64 -30 -115q0 -73 44 -159q52 -101 140 -173q105 -87 250 -116q48 -12 196 -33l82 -15q240 -29 332 -52
q158 -39 186 -101l-24 110q-32 133 -86 260q-67 173 -154 307q-112 170 -244 260q-164 111 -352 111z" />
</svg>