<svg xmlns="http://www.w3.org/2000/svg" xmlns:xlink="http://www.w3.org/1999/xlink" version="1.1" viewBox="-10 0 2068 2048">
   <path fill="currentColor"
d="M1168 288h440q185 0 312 132q128 129 128 308v592q0 179 -128 308q-127 132 -312 132h-440v-1472zM1608 1464q61 0 106 -42q44 -39 44 -102v-592q0 -63 -44 -102q-45 -42 -106 -42h-144v880h144zM290 288h590v296h-590v296h294q124 0 210 86t86 202v296q0 124 -86 210
t-210 86h-584v-296h584v-296h-294q-118 0 -204 -86t-86 -202v-296q0 -124 86 -210t204 -86z" />
</svg>