<svg xmlns="http://www.w3.org/2000/svg" xmlns:xlink="http://www.w3.org/1999/xlink" version="1.1" viewBox="-10 0 2058 2048">
   <path fill="currentColor"
d="M1307 1136q-123 0 -229 64v-859q0 -143 -99 -242t-243 -99q-126 0 -223 91q-103 -91 -230 -91v229q48 0 80 32t32 80v1136h230v-1136q0 -49 31 -80q32 -32 80 -32t83 32t35 80v1254q0 90 -67 157t-162 67v229q97 0 186 -40q92 -41 155 -115q124 139 312 152
q190 14 330 -109q142 -123 155 -312q14 -189 -110 -328q-64 -75 -154 -117q-92 -43 -192 -43zM1307 1819q-96 0 -163 -67q-66 -66 -66 -160t66 -160q67 -67 163 -67q95 0 162 67t67 160t-67 160t-162 67z" />
</svg>