<svg xmlns="http://www.w3.org/2000/svg" xmlns:xlink="http://www.w3.org/1999/xlink" version="1.1" viewBox="-10 0 2058 2048">
   <path fill="currentColor"
d="M1024 0q-166 0 -310 82q-142 81 -223 223q-82 144 -82 310v818q0 166 82 310q81 142 223 223q144 82 310 82t310 -82q142 -81 223 -223q82 -144 82 -310v-818q0 -166 -82 -310q-81 -142 -223 -223q-144 -82 -310 -82zM616 409h202v206h-202v-206zM923 409h202v206h-202
v-206zM1231 409h202v206h-202v-206zM616 716h202v207h-202v-207zM923 716h202v207h-202v-207zM1231 716h202v207h-202v-207zM616 1024h202v207h-202v-207zM923 1024h202v207h-202v-207zM1231 1024h202v207h-202v-207zM1024 1433q87 0 147 60t60 146q0 87 -60 147t-147 60
q-86 0 -146 -60t-60 -147q0 -86 60 -146t146 -60z" />
</svg>