<svg xmlns="http://www.w3.org/2000/svg" xmlns:xlink="http://www.w3.org/1999/xlink" version="1.1" viewBox="-10 0 2068 2048">
   <path fill="currentColor"
d="M1434 1166q44 0 77 33t33 79q0 47 -33 80t-79 33t-80 -33q-34 -34 -34 -80q0 -45 34 -79q34 -33 82 -33zM1434 1482q-66 0 -140 29q-86 39 -86 86q42 56 98 87q60 33 128 33t124 -33q56 -32 102 -87q0 -47 -88 -86q-73 -29 -138 -29zM1534 830v-494l-766 -336l-768 336
v504q0 226 100 438q101 214 276 365t392 199q60 -9 162 -53q89 122 218 190q132 69 286 69q164 0 305 -84t225 -225t84 -305q0 -229 -146 -398q-145 -167 -368 -206zM820 1434q0 61 20 163l-72 29q-246 -77 -404 -297q-158 -221 -158 -489v-370l562 -244l560 244v360
q-217 39 -362 206q-146 169 -146 398zM1434 1842q-172 0 -292 -120t-120 -290t120 -290t290 -120t290 120t120 290t-120 290t-288 120z" />
</svg>