<svg xmlns="http://www.w3.org/2000/svg" xmlns:xlink="http://www.w3.org/1999/xlink" version="1.1" viewBox="-10 0 2068 2048">
   <path fill="currentColor"
d="M408 716q0 -44 32 -72q32 -29 71.5 -29t72 29t32.5 72t-32.5 72t-72 29t-71.5 -29q-32 -28 -32 -72zM1538 817q37 0 70 -29q30 -28 30 -72t-30 -72q-33 -29 -72.5 -29t-71.5 29q-32 28 -32 72t32 72q32 29 74 29zM2048 812v111q0 251 -124 462q-123 213 -336 336
q-215 125 -464 125h-202q-253 0 -466 -125q-210 -124 -334 -336q-122 -210 -122 -462v-111q0 -167 82 -307q81 -140 220 -221q142 -82 304 -82h836q161 0 302 82q140 81 222 221q82 141 82 307zM1278 716q0 106 78 181q75 74 182 74q106 0 180 -74q74 -75 74 -181
q0 -105 -75 -180t-179 -75q-106 0 -182 75q-78 75 -78 180zM254 716q0 106 76 181q74 74 180 74q107 0 182 -74q76 -75 76 -181q0 -105 -76 -180t-182 -75t-181 75t-75 180zM716 1538q0 -42 -32 -74q-30 -31 -71 -31t-72 31t-31 72t31 72t72 31t71 -31q32 -32 32 -70z
M1178 1538q0 -66 -46 -110q-45 -43 -108.5 -43t-107.5 43q-46 44 -46 108q0 65 46 111q44 45 107 45t109 -45q46 -46 46 -109zM1538 1538q0 -43 -31 -74t-72 -31t-72 31t-31 72t31 72t72 31t72 -31t31 -70zM1840 990q-120 135 -302 135q-174 0 -294 -120t-120 -289
q0 -93 38 -170q40 -81 106 -137h-490q67 56 106 137q38 77 38 170q0 169 -120 289t-292 120q-87 0 -166 -36q-81 -36 -138 -99q24 255 208 438q275 -197 609.5 -197t610.5 197q182 -183 206 -438z" />
</svg>