<svg xmlns="http://www.w3.org/2000/svg" xmlns:xlink="http://www.w3.org/1999/xlink" version="1.1" viewBox="-10 0 2058 2048">
   <path fill="currentColor"
d="M777 455l-154 -155q52 -131 172 -216q119 -84 264 -84q129 0 236 64q108 64 172 172q64 107 64 237v189h93q79 0 135 56q55 55 55 130v640l-190 -186v-454h-450l-190 -186h358v-189q0 -119 -82 -201t-196 -82q-115 0 -197 77q-81 76 -90 188zM2012 1929l-119 119
l-132 -132q-53 62 -137 62h-1129q-80 0 -135 -55t-55 -131v-944q0 -75 55 -130q56 -56 135 -56h9l-468 -472l119 -119zM1624 1779l-393 -388q-18 53 -66 86t-106 33q-79 0 -134 -55t-55 -135q0 -62 33 -108q32 -46 86 -64l-296 -300h-198v944h1129v-13z" />
</svg>