<svg xmlns="http://www.w3.org/2000/svg" xmlns:xlink="http://www.w3.org/1999/xlink" version="1.1" viewBox="-10 0 2068 2048">
   <path fill="currentColor"
d="M964 329l-168 -164l136 -137l128 123l128 -123l138 137l-170 164v220l242 141l192 -109l60 -229l192 50l-46 174l174 46l-50 187l-230 -59l-196 110v265l-192 -192v-73l-168 -96l-198 -197l28 -18v-220zM1690 1253l-154 -87l260 260l168 -45l-44 -188zM1156 1454v219
l170 165l-138 137l-128 -123l-128 123l-136 -137l168 -165v-219l-242 -142l-192 110l-60 228l-192 -50l46 -174l-168 -45l50 -188l224 60l196 -110v-283l-196 -110l-224 59l-50 -187l168 -46l-46 -169l-278 -283l124 -124l1924 1925l-124 123l-658 -658zM1060 1285l60 -41
l-302 -302v201z" />
</svg>