<svg xmlns="http://www.w3.org/2000/svg" xmlns:xlink="http://www.w3.org/1999/xlink" version="1.1" viewBox="-10 0 2068 2048">
   <path fill="currentColor"
d="M1184 270h-324q-46 0 -76 30q-30 32 -30 76v1294q0 46 31 77t75 31h324q43 0 78 -32q32 -30 32 -76v-1294q0 -46 -33 -76t-77 -30zM1942 270h-324q-46 0 -78 30t-32 76v1294q0 47 32 76q34 32 78 32h324q44 0 76 -32q30 -30 30 -76v-1294q0 -46 -30 -76t-76 -30zM430 270
h-324q-44 0 -74 30q-32 32 -32 76v1294q0 46 31 77t75 31h324q46 0 76 -32q30 -30 30 -76v-1294q0 -46 -30 -76t-76 -30z" />
</svg>