<svg xmlns="http://www.w3.org/2000/svg" xmlns:xlink="http://www.w3.org/1999/xlink" version="1.1" viewBox="-10 0 2068 2048">
   <path fill="currentColor"
d="M654 96q178 0 326 86q149 88 236 236q88 149 88 326q0 166 -78 306q-76 140 -202 226v214q0 40 -26 66t-64 26h-558q-44 0 -70 -26t-26 -66v-214q-126 -86 -202 -226q-78 -140 -78 -306q0 -175 88 -326q88 -149 238 -236q149 -86 328 -86zM376 1860v-92h558v92
q0 43 -28 68q-25 24 -68 24h-372q-42 0 -66 -24t-24 -68zM654 278q-131 0 -238 64q-104 61 -166 170q-62 105 -62 232q0 145 76 258t202 170v222h372v-222q131 -57 204 -170q74 -114 74 -258q0 -127 -62 -232q-62 -109 -166 -170q-107 -64 -234 -64zM1812 1254v140h-138
v-140h138zM1630 792h-140v-48q0 -116 78 -198q78 -80 200 -80q120 0 200 80t80 198q0 73 -32 130q-35 60 -90 94l-26 16q-88 58 -88 162v18h-138v-18q0 -89 40 -160q43 -72 108 -110l30 -18q56 -43 56 -114q0 -56 -42 -98q-43 -40 -98 -40q-56 0 -96 40q-42 42 -42 98v48z
" />
</svg>