<svg xmlns="http://www.w3.org/2000/svg" xmlns:xlink="http://www.w3.org/1999/xlink" version="1.1" viewBox="-10 0 2068 2048">
   <path fill="currentColor"
d="M308 202v745q-139 48 -224 168q-84 120 -84 270q0 192 134 326q136 135 328 135q173 0 304 -118q132 -118 152 -295h432q-18 51 -18 105q0 125 88 217q89 91 218 91q131 0 220 -91q88 -92 88 -217q0 -51 -20 -105h122v-308q0 -82 -60 -142t-142 -60h-510l-144 -721h-884z
M510 409h514l100 514v308h-230q-45 -128 -146 -207q-105 -82 -238 -101v-514zM462 1154q96 0 162 67q68 68 68 164q0 95 -68 163q-66 67 -162 67t-164 -67q-68 -68 -68 -163q0 -96 68 -164q68 -67 164 -67zM1638 1385q64 0 108 43q46 44 46 108q0 65 -46 111q-44 45 -107 45
t-109 -45q-46 -46 -46 -111q0 -64 46 -108q45 -43 108 -43z" />
</svg>