<svg xmlns="http://www.w3.org/2000/svg" xmlns:xlink="http://www.w3.org/1999/xlink" version="1.1" viewBox="-10 0 2058 2048">
   <path fill="currentColor"
d="M1572 293l-176 175q164 96 256 259q94 163 94 359t-96 361q-95 165 -262 262q-167 96 -364 96t-364 -96q-166 -96 -262 -262q-96 -167 -96 -361q0 -196 94 -359q92 -162 250 -259l-168 -175q-193 135 -306 341q-112 206 -112 449q0 257 130 482q127 221 352 353
q221 130 482 130t482 -130q225 -132 352 -353q130 -225 130 -482q0 -243 -112 -449q-114 -207 -304 -341zM1142 0h-236v1201h236v-1201z" />
</svg>