<svg xmlns="http://www.w3.org/2000/svg" xmlns:xlink="http://www.w3.org/1999/xlink" version="1.1" viewBox="-10 0 2058 2048">
   <path fill="currentColor"
d="M256 340v1536q0 72 50 122t122 50h1024v-172h-1024v-1536h-172zM1620 0h-852q-72 0 -122 50t-50 122v1364q0 72 50 122t122 50h852q72 0 122 -50t50 -122v-1364q0 -72 -50 -122t-122 -50zM1244 1176l-48 44l-52 -44l-40 -36q-134 -125 -180 -184q-72 -92 -72 -170
t56 -134t132 -56q48 0 88 18q38 17 68 50q25 -32 66 -50q42 -18 86 -18q80 0 134 54t54 134t-68 172q-55 63 -184 184z" />
</svg>