<svg xmlns="http://www.w3.org/2000/svg" xmlns:xlink="http://www.w3.org/1999/xlink" version="1.1" viewBox="-10 0 2068 2048">
   <path fill="currentColor"
d="M616 510q80 0 140 60q62 61 62 146v515q0 81 -62 142q-60 60 -144 60t-144 -60t-60 -142v-515q0 -86 60 -146t148 -60zM1230 1231q0 225 -146 396q-147 170 -368 209v212h-206v-212q-218 -39 -364 -209t-146 -396h202q0 167 120 288q120 120 290 120q172 0 292 -120
t120 -288h206zM1990 760l-438 432l106 -375h-428q-86 0 -146 -60t-60 -142v-413q0 -82 60 -142t146 -60h616q82 0 142 60t60 142v413q0 87 -58 145z" />
</svg>