<svg xmlns="http://www.w3.org/2000/svg" xmlns:xlink="http://www.w3.org/1999/xlink" version="1.1" viewBox="-10 0 2068 2048">
   <path fill="currentColor"
d="M862 1630h-672q-78 0 -134 -56t-56 -136v-1150q0 -82 56 -138t134 -56h98l188 386h288l-188 -386h188l192 386h288l-194 -386h194l194 386h286l-192 -386h380v862q-72 -117 -188 -188v-98h-1360l-174 -334v1102h596q37 135 76 192zM1752 1522q66 -116 66 -228
q0 -180 -126 -306q-124 -126 -304 -126t-306 126t-126 306q0 178 126 304t306 126q135 0 228 -66l296 296l136 -136zM1388 1532q-98 0 -168 -70t-70 -168q0 -100 70 -170q68 -68 167 -68t169 68q70 70 70 170q0 98 -70 168t-168 70z" />
</svg>