<svg xmlns="http://www.w3.org/2000/svg" xmlns:xlink="http://www.w3.org/1999/xlink" version="1.1" viewBox="-10 0 2058 2048">
   <path fill="currentColor"
d="M1024 559q78 0 133 -55t55 -133q0 -51 -31 -96l-157 -275l-157 275q-30 43 -30 96q0 79 54 133q55 55 133 55zM1452 1489l-100 -101l-101 101q-91 91 -227 91t-227 -91l-100 -101l-100 101q-96 96 -227 96q-102 0 -184 -57v428q0 39 27 66q26 26 65 26h1493q39 0 65 -26
t26 -66v-428q-82 57 -183 57q-131 0 -227 -96zM1583 838h-467v-188h-183v188h-467q-118 0 -199 81t-81 199v144q0 74 55 129q54 54 131 54q76 0 124 -52l201 -201l196 201q53 48 131 48q79 0 127 -48l201 -201l200 201q48 52 125 52t131 -54t54 -129v-144q0 -119 -80 -199
q-81 -81 -199 -81z" />
</svg>