<svg xmlns="http://www.w3.org/2000/svg" xmlns:xlink="http://www.w3.org/1999/xlink" version="1.1" viewBox="-10 0 2068 2048">
   <path fill="currentColor"
d="M1024 1038q-140 -211 -294 -302q-154 -92 -268 -65q-116 27 -192 127q-68 88 -68 207v19q0 125 38 245q5 19 10 19t10 -19q19 -95 88 -139q70 -44 184 2q110 44 228 195q197 265 460 322q342 48 514 -216q52 -105 72 -164q8 -22 4.5 -24t-18.5 15q-72 97 -192 125
q-120 29 -284 -58q-164 -88 -292 -289zM1532 630q-236 -357 -518 -409q-221 -33 -480 154q-20 14 -26.5 19.5t-5.5 6.5q4 3 42 -16q384 -188 740 394q75 129 160 202q83 71 162 86q75 15 134 -5q60 -21 106 -62q0 -98 -34 -202q-76 19 -134 -10q-60 -30 -146 -158zM1024 0
q418 0 721 303t303 721t-303 721t-721 303t-722 -303q-302 -302 -302 -721t302 -721q304 -303 722 -303z" />
</svg>