<svg xmlns="http://www.w3.org/2000/svg" xmlns:xlink="http://www.w3.org/1999/xlink" version="1.1" viewBox="-10 0 2068 2048">
   <path fill="currentColor"
d="M1074 2q-215 0 -302 168q-86 157 -28 388l584 586q173 39 236 158q43 91 124.5 131.5t165.5 16.5q85 -24 136 -110q58 -100 58 -264q0 -177 -116 -268q-115 -92 -300 -84q-183 7 -370 108q-48 -63 -126 -92q39 -190 168 -254q86 -42 128 -124q40 -82 16 -166
q-24 -85 -110 -136q-100 -58 -264 -58zM130 204l-130 128l250 256q-105 0 -172 90q-78 106 -78 292q0 178 116 270q115 91 296 84q183 -8 370 -108q49 63 124 96q-38 186 -162 248q-92 44 -132 126q-41 80 -16 164q24 86 110 138q102 58 268 58q167 0 258 -108
q92 -108 92 -282l388 390l130 -130z" />
</svg>