<svg xmlns="http://www.w3.org/2000/svg" xmlns:xlink="http://www.w3.org/1999/xlink" version="1.1" viewBox="-10 0 2058 2048">
   <path fill="currentColor"
d="M1648 1595h341l-453 453l-453 -453h341v-1595h224v1595zM513 1136h-230q-90 0 -157 67t-67 162v112q0 96 67 163t157 67h230v112h-454v229h454q95 0 162 -67t67 -162v-454q0 -95 -67 -162t-162 -67zM513 1477h-230v-112h230v112zM513 0h-230q-90 0 -157 67t-67 162v454
q0 95 67 162t157 67h230q95 0 162 -67t67 -162v-454q0 -95 -67 -162t-162 -67zM513 683h-230v-454h230v454z" />
</svg>