<svg xmlns="http://www.w3.org/2000/svg" xmlns:xlink="http://www.w3.org/1999/xlink" version="1.1" viewBox="-10 0 2068 2048">
   <path fill="currentColor"
d="M1902 1218l122 144l-486 486l-284 -308l120 -120l164 164zM1750 200l-144 144q109 113 174 264q66 150 66 318v34q106 44 192 114q10 -96 10 -148q0 -206 -80 -394q-81 -191 -218 -332zM1428 964q102 -38 210 -38q0 -126 -48 -238q-49 -117 -134 -196l-144 146
q120 120 120 288zM1024 718q-86 0 -146 60t-60 147t60 147t146 60t146 -60t60 -147t-60 -147t-146 -60zM442 344l-144 -144q-139 143 -218 332q-80 186 -80 393.5t80 394.5q79 188 218 332l144 -144q-111 -116 -176 -266q-64 -149 -64 -316.5t64 -317.5q65 -149 176 -264z
M592 492q-86 81 -136 196q-48 112 -48 237.5t48 238.5q50 114 136 194l144 -144q-120 -120 -120 -288t120 -288z" />
</svg>