<svg xmlns="http://www.w3.org/2000/svg" xmlns:xlink="http://www.w3.org/1999/xlink" version="1.1" viewBox="-10 0 2068 2048">
   <path fill="currentColor"
d="M0 115l116 -115l1932 1933l-116 115l-184 -183h-1386q-70 0 -124 -54t-54 -126v-1386zM908 226v337l-178 -183v-154h-154l-184 -179h1430q72 0 125 53t53 126v1430l-178 -180v-158h-154l-184 -179h338v-367h-368v337l-178 -183v-154h-154l-184 -179h338v-367h-368z
M1454 226v367h368v-367h-368zM1454 1685h116l-116 -115v115zM362 593h116l-116 -115v115zM908 1139h116l-116 -115v115zM1276 1685v-294l-72 -73h-296v367h368zM730 1685v-367h-368v367h368zM730 1139v-294l-72 -73h-296v367h368z" />
</svg>