<svg xmlns="http://www.w3.org/2000/svg" xmlns:xlink="http://www.w3.org/1999/xlink" version="1.1" viewBox="-10 0 2068 2048">
   <path fill="currentColor"
d="M1946 385q-12 -8 -44 -34l6 -5q58 -58 58 -142t-60 -144t-144 -60t-142 58l-78 77q-106 -82 -240 -73q-133 9 -226 106l-908 909q-97 93 -105.5 226.5t71.5 239.5l-76 77q-58 57 -58 142q0 84 60 144t144 60q86 0 142 -57l4 -5l34 43q106 101 256 101q148 0 254 -101
l1048 -1053q106 -108 106 -255t-102 -254zM284 1394q-24 -42 -14 -91q8 -48 42 -82l908 -909q34 -34 82 -43t92 15zM1798 745l-1054 1053q-43 48 -104 48q-62 0 -108 -46t-46 -110q0 -65 42 -108l1054 -1053q42 -43 107 -43t111 45q46 46 46 108q0 63 -48 106z" />
</svg>