<svg xmlns="http://www.w3.org/2000/svg" xmlns:xlink="http://www.w3.org/1999/xlink" version="1.1" viewBox="-10 0 2058 2048">
   <path fill="currentColor"
d="M1846 1832v216l-188 -120l-490 -923q102 -29 183 -101zM1332 510q0 129 -89 218t-219 89q-24 4 -43 0l-591 1111l-188 120v-216l596 -1116q-62 -66 -77 -156q-15 -89 24 -173q39 -85 113 -135t166 -50v-202q43 0 72 29t29 72v120q92 33 149 113q58 81 58 176zM1125 510
q0 -28 -17 -56q-16 -26 -45 -38q-30 -12 -61 -5q-30 7 -52 29q-23 23 -27 53q-4 31 7 57q12 26 39 46q26 19 55 19q44 0 72 -31q29 -32 29 -74zM226 817l183 188l-149 283l-250 -254zM1024 1615l-154 -154l-153 279l307 308l308 -308l-149 -283zM1822 817l-183 188l154 283
l245 -254z" />
</svg>