<svg xmlns="http://www.w3.org/2000/svg" xmlns:xlink="http://www.w3.org/1999/xlink" version="1.1" viewBox="-10 0 2058 2048">
   <path fill="currentColor"
d="M1734 1242v653q0 61 -46 105t-108 48h-662q-62 0 -106 -48l-498 -427l76 -81q30 -29 72 -29h24l326 173v-1022q0 -44 32 -72q32 -29 74 -29t71 29t29 72v-206q0 -43 29 -72t73 -29q41 0 74 29q30 28 30 72v513l422 187q40 20 64 55q24 36 24 79zM1326 763v-125
q34 -30 58 -72q42 -71 42 -158q0 -124 -88 -216q-89 -91 -212 -91q-122 0 -212 86l-16 15q-22 18 -38 43q-14 23 -24 53l-10 24q-94 28 -154 110q-60 81 -60 185t62 184q7 13 34 39l4 4v125q-95 -52 -152 -146q-54 -92 -54 -211q0 -118 66 -218q69 -102 174 -154
q52 -106 152 -173t222 -67q172 0 292 120t120 288q0 117 -56 209q-56 94 -150 146z" />
</svg>