<svg xmlns="http://www.w3.org/2000/svg" xmlns:xlink="http://www.w3.org/1999/xlink" version="1.1" viewBox="-10 0 2068 2048">
   <path fill="currentColor"
d="M1254 795v458q0 21 -20 38q-17 16 -40 16h-112v-566h112q23 0 40 16q20 17 20 38zM2048 400v1248l-454 -453v400q0 48 -35 80t-81 32h-1366q-48 0 -80 -32t-32 -80v-1142q0 -48 32 -80t80 -32h1366q46 0 81 32t35 80v400zM742 741q0 -74 -51 -122t-119 -48h-400v170h400
v198h-288v170h288v198h-400v170h400q68 0 119 -48t51 -122v-566zM1424 741q0 -75 -50 -122q-52 -48 -120 -48h-342v906h342q68 0 120 -48q50 -47 50 -122v-566z" />
</svg>