<svg xmlns="http://www.w3.org/2000/svg" xmlns:xlink="http://www.w3.org/1999/xlink" version="1.1" viewBox="-10 0 2068 2048">
   <path fill="currentColor"
d="M290 1475q119 0 200 83q84 85 84 201q0 115 -84 203q-81 86 -200 86q-118 0 -204 -86t-86 -203q0 -118 86 -201t204 -83zM0 0q560 0 1036 278q463 272 734 734q278 475 278 1036h-370q0 -457 -226 -842q-224 -385 -610 -610q-385 -225 -842 -225v-371zM0 741
q358 0 658 176q298 175 474 474t176 657h-376q0 -252 -124 -468q-123 -217 -338 -340q-217 -123 -470 -123v-376z" />
</svg>