<svg xmlns="http://www.w3.org/2000/svg" xmlns:xlink="http://www.w3.org/1999/xlink" version="1.1" viewBox="-10 0 2068 2048">
   <path fill="currentColor"
d="M746 702h188v558h-188v-558zM1116 48h-558v188h558v-188zM1490 644q88 111 136 242q48 134 48 278q0 230 -112 422q-110 191 -302 302q-194 112 -420.5 112t-419.5 -112q-193 -111 -306 -304q-114 -197 -114 -420q0 -224 114 -418q112 -191 306 -306q192 -114 418 -114
q146 0 280 50q127 47 242 138l134 -134q69 63 132 130zM1490 1164q0 -176 -87 -326t-237 -237t-327 -87t-327 87t-237 237t-87 327t87 327t237 237t327 87t327 -87t237 -237t87 -328zM1860 606v558h188v-558h-188zM1860 1538h188v-188h-188v188z" />
</svg>