<svg xmlns="http://www.w3.org/2000/svg" xmlns:xlink="http://www.w3.org/1999/xlink" version="1.1" viewBox="-10 0 2058 2048">
   <path fill="currentColor"
d="M1788 678q0 185 -94 346q-92 158 -247 245q-23 19 -14 43l350 693q9 15 0 29q-8 14 -28 14h-1336l9 -5q14 -4 130 -197q153 -250 274 -428q185 -271 331 -413q65 -61 183 -164q92 -77 111 -105q24 -39 4 -97q-8 -40 -86 -182l-15 -29l34 77q35 92 39 139q5 83 -48 92
q-54 9 -125 -53q-73 -64 -111 -149q-39 -101 0 -190t142 -116q99 -26 218 8q116 33 193 110q86 153 86 332zM529 1139q-196 360 -269 558v-1668q0 -9 10 -19t19 -10h831q180 0 327 86q148 87 240 236q-64 -82 -158 -125q-95 -43 -197 -43q-100 0 -164 29q-71 33 -149 127
q-77 94 -197 296q-84 146 -293 533z" />
</svg>