<svg xmlns="http://www.w3.org/2000/svg" xmlns:xlink="http://www.w3.org/1999/xlink" version="1.1" viewBox="-10 0 2068 2048">
   <path fill="currentColor"
d="M1209 506l-253 -322l180 -34l249 322zM1835 382l-69 -356l-360 68l249 326zM939 562l-253 -326l-180 38l253 322zM240 326l-90 18q-72 16 -116 78t-30 140l38 176l446 -86zM222 1656v-734h1467v10q97 13 180 56v-250h-1827v918q0 72 54 126t126 54h798q-42 -82 -56 -180
h-742zM2036 1690q5 0 5 8q0 4 -5 10l-94 158q-9 10 -26 10l-111 -40l-73 48l-17 120q0 4 -7 11t-10 7h-185q-7 0 -25 -18l-22 -120q-40 -14 -73 -48l-107 48q-18 0 -30 -8l-90 -156q-9 -13 8 -30l103 -72v-90l-103 -74q-8 -8 -8 -30l90 -154q13 -8 30 -8l107 46l73 -46
l22 -120q0 -18 25 -18h185q4 0 10 6q7 8 7 12l17 120q33 10 86 46l107 -46q30 0 30 8l90 154q8 9 -9 30l-103 74v90zM1732 1562q0 -50 -41 -94q-40 -44 -94 -44t-97 43t-43 97t43 94q44 42 97 42t94 -41t41 -97z" />
</svg>