<svg xmlns="http://www.w3.org/2000/svg" xmlns:xlink="http://www.w3.org/1999/xlink" version="1.1" viewBox="-10 0 2068 2048">
   <path fill="currentColor"
d="M716 2048q-42 0 -71 -29t-29 -72v-308h-414q-82 0 -142 -60t-60 -146v-1231q0 -82 60 -142t142 -60h1644q82 0 142 60t60 142v1231q0 86 -60 146t-142 60h-626l-378 380q-34 29 -74 29h-52zM818 1433v317l316 -317h712v-1231h-1644v1231h616zM1418 635l-106 101
l-212 -207l106 -106q14 -14 38 -14q26 0 40 14l134 130q14 15 14 38q0 25 -14 44zM616 1014l426 -428l212 212l-428 433h-210v-217z" />
</svg>