<svg xmlns="http://www.w3.org/2000/svg" xmlns:xlink="http://www.w3.org/1999/xlink" version="1.1" viewBox="-10 0 2068 2048">
   <path fill="currentColor"
d="M684 683q217 0 394 128l580 -582h-522v-229h912v912h-230v-523l-580 576q128 182 128 400q0 185 -92 344q-90 158 -248 248q-159 91 -342 91q-185 0 -344 -91q-158 -90 -248 -248q-92 -159 -92 -344t92 -344q90 -158 248 -248q157 -90 344 -90zM684 912q-188 0 -320 133
q-134 134 -134 320t134 320t320 134q184 0 318 -134t134 -320t-134 -320q-132 -133 -318 -133z" />
</svg>