<svg xmlns="http://www.w3.org/2000/svg" xmlns:xlink="http://www.w3.org/1999/xlink" version="1.1" viewBox="-10 0 2058 2048">
   <path fill="currentColor"
d="M1037 1181q-54 49 -109 74v606l-183 187l-187 -187l187 -157l-139 -122l139 -122l-187 -157v-48q-105 -53 -168 -150q-63 -98 -63 -220q0 -174 122 -296t296 -122h9l-9 17q-38 81 -43 174q-44 18 -70 53t-26 82q0 56 39 98t100 42h9q44 87 117 150q74 63 166 98z
M1346 467q0 -86 -26 -170q97 26 170 93q74 68 113 164q39 116 13 233q-25 115 -104 198l209 567l-114 239l-239 -113l118 -209l-170 -66l91 -161l-231 -87l-13 -43q-119 -14 -211 -85q-93 -72 -135 -181q-42 -108 -22 -220q19 -110 92 -196q73 -87 176 -125l52 -13
q-48 -87 -135 -141q-89 -55 -191 -55q-153 0 -262 109t-109 262q0 16 5 26q-53 39 -83 83q-13 -59 -13 -109q0 -128 61 -234t168 -169q108 -64 233 -64t233 64t170 169q63 107 63 234q0 158 -100 283q126 -9 169 -148q26 -71 22 -135zM1050 663q9 17 26 39q82 -96 87 -227
l-30 9q-54 23 -79 74q-26 54 -4 105z" />
</svg>