<svg xmlns="http://www.w3.org/2000/svg" xmlns:xlink="http://www.w3.org/1999/xlink" version="1.1" viewBox="-10 0 2068 2048">
   <path fill="currentColor"
d="M192 98h1368q82 0 139 57t57 139v690q-113 -17 -222 6q-107 22 -198 82h-362v392h106q-14 96 0 192h-888q-76 0 -134 -56q-58 -58 -58 -136v-1170q0 -80 58 -138t134 -58zM192 486v394h586v-394h-586zM974 486v394h586v-394h-586zM192 1072v392h586v-392h-586zM2048 1950
v-96q0 -86 -146 -146q-124 -52 -244 -52q-122 0 -246 52q-146 60 -146 146v96h782zM1656 1172q-78 0 -135 57t-57 137t57 137t137 57t137 -57t57 -137t-57 -137t-139 -57z" />
</svg>