<svg xmlns="http://www.w3.org/2000/svg" xmlns:xlink="http://www.w3.org/1999/xlink" version="1.1" viewBox="-10 0 2058 2048">
   <path fill="currentColor"
d="M981 1861h-580q-47 0 -85 -35q-37 -34 -37 -88v-1427q0 -53 37 -90t85 -37h157v-184h559v184h157q48 0 85 37t37 90v620q-152 0 -282 74q-128 73 -202 203q-75 132 -75 282q0 213 144 371zM1396 1022l210 210l-210 209v-139q-84 0 -146 52q-63 52 -81 131q-18 76 18 157
l-101 101q-78 -124 -59 -258t122 -229q102 -94 247 -94v-140zM1396 2048l-209 -209l209 -210v140q84 0 146 -52q63 -52 81 -131q18 -78 -17 -153l100 -101q78 119 59 256t-121.5 229t-247.5 92v139z" />
</svg>