<svg xmlns="http://www.w3.org/2000/svg" xmlns:xlink="http://www.w3.org/1999/xlink" version="1.1" viewBox="-10 0 2058 2048">
   <path fill="currentColor"
d="M789 454q0 -48 35 -80t83 -32t80 32t32 80v506l138 16l560 251q48 21 72 61t24 94v496q0 69 -51 117q-50 47 -120 53h-735q-71 0 -118 -53l-554 -475l85 -90q32 -32 80 -32h27l362 192v-1136zM907 0q186 0 320 134q133 133 133 320q0 129 -61 232q-61 104 -168 162v-138
q117 -102 117 -251q0 -150 -101 -248q-102 -99 -243 -99t-240 99q-98 98 -98 248q0 149 112 251v138q-106 -58 -168 -162t-62 -232q0 -186 134 -320t325 -134z" />
</svg>