<svg xmlns="http://www.w3.org/2000/svg" xmlns:xlink="http://www.w3.org/1999/xlink" version="1.1" viewBox="-10 0 2069 2048">
   <path fill="currentColor"
d="M1102 199q154 -111 356 -111q114 0 245 60t207 142q159 198 135 460q-24 261 -174 407l-779 780q-28 28 -72 28t-72 -28q-29 -29 -29 -73q0 -43 29 -72l471 -472q39 -33 0 -72t-72 0l-472 472q-29 29 -72 29t-72 -29t-29 -72t29 -72l472 -472q42 -38 4 -77q-39 -39 -77 0
l-471 476q-29 29 -72 29t-75 -29q-31 -28 -31 -72q0 -43 34 -77l471 -472q39 -39 0 -72t-72 0l-476 472q-34 34 -75 34t-70 -32t-29 -74q0 -43 29 -72q436 -437 582 -578l366 361q62 58 144 58q106 0 169 -87q43 -63 31 -140q-12 -76 -65 -129zM1313 849l-438 -438l-726 727
q-131 -130 -147 -402q-17 -272 147 -470q183 -183 438 -183q254 0 433 183l438 438q28 28 28 73q0 44 -28 72q-29 29 -73 29q-43 0 -72 -29z" />
</svg>