<svg xmlns="http://www.w3.org/2000/svg" xmlns:xlink="http://www.w3.org/1999/xlink" version="1.1" viewBox="-10 0 2068 2048">
   <path fill="currentColor"
d="M0 1332q0 -38 4 -63q9 -78 34 -154q32 -102 92 -182q76 -96 182 -154q129 -63 304 -63q144 0 264 63q69 40 178 134q95 85 144 111q87 53 182 53q184 0 288 -96q79 -69 106 -173q14 -49 14 -92h256l-6 63q-8 78 -34 154q-31 102 -90 182q-77 96 -184 154q-128 63 -302 63
q-158 0 -302 -72q-84 -50 -216 -154q-82 -68 -126 -92q-66 -43 -124 -43q-139 0 -236 58q-77 43 -120 125q-34 52 -48 120l-6 58h-254z" />
</svg>