<svg xmlns="http://www.w3.org/2000/svg" xmlns:xlink="http://www.w3.org/1999/xlink" version="1.1" viewBox="-10 0 2058 2048">
   <path fill="currentColor"
d="M1257 745h187v188h-187v-188zM1444 375h-187v183h187v-183zM887 1303h182v-187h-182v187zM1069 375h-182v183h182v-183zM887 933h182v-188h-182v188zM699 375h-187v183h187v-183zM699 745h-187v188h187v-188zM1213 1861h-144v-327h-182v327h-558v-1673h1298v745
q95 9 187 57v-990h-1672v2048h1197v-4q-83 -114 -126 -183zM512 1674h187v-183h-187v183zM699 1116h-187v187h187v-187zM1906 1443q0 107 -83 265q-64 114 -157 236l-83 104l-87 -104q-93 -122 -157 -236q-82 -157 -82 -265q0 -131 96 -229t228 -98q133 0 229 98t96 229z
M1692 1451q0 -39 -35 -74t-76 -35q-40 0 -76 31q-35 30 -35 76q0 47 33 81q33 35 80 35q48 0 83 -35t26 -79z" />
</svg>