<svg xmlns="http://www.w3.org/2000/svg" xmlns:xlink="http://www.w3.org/1999/xlink" version="1.1" viewBox="-10 0 2068 2048">
   <path fill="currentColor"
d="M358 1024q0 74 -52 126q-52 54 -126 54t-128 -54q-52 -52 -52 -127t52 -127t127 -52t127 52t52 128zM266 136v534h-174v-534h174zM92 1912v-534h174v534h-174zM2048 490v1068q0 74 -54 126q-52 52 -126 52h-1068q-70 0 -122 -52t-52 -126v-354l-180 -180l180 -180v-354
q0 -76 52 -128t122 -52h1068q74 0 126 52q54 54 54 128zM1868 490h-1068v430l-104 104l104 104v430h1068v-1068zM980 756h712v180h-712v-180zM980 1112h534v178h-534v-178z" />
</svg>