<svg xmlns="http://www.w3.org/2000/svg" xmlns:xlink="http://www.w3.org/1999/xlink" version="1.1" viewBox="-10 0 2068 2048">
   <path fill="currentColor"
d="M126 30l-126 124l204 202q-116 147 -116 336q0 180 106 360q93 158 290 358q127 133 442 414l142 130l382 -346l404 410l124 -124zM1078 1682l-10 10l-10 -10q-293 -266 -408 -382q-184 -183 -272 -318q-96 -153 -96 -290q0 -110 60 -192l970 966zM704 362l-192 -194
q62 -14 114 -14q130 0 244 56q116 55 198 146q84 -92 198 -146q114 -56 244 -56q149 0 271.5 71t194.5 197q72 122 72 270q0 167 -92 332q-79 153 -254 336l-138 -138q144 -158 212 -276q78 -134 78 -254q0 -148 -99 -244t-245 -96q-101 0 -194 54q-91 52 -138 140h-220
q-38 -70 -104 -118q-67 -48 -150 -66z" />
</svg>