<svg xmlns="http://www.w3.org/2000/svg" xmlns:xlink="http://www.w3.org/1999/xlink" version="1.1" viewBox="-10 0 2067 2048">
   <path fill="currentColor"
d="M1053 0h-29q-200 0 -392 77q-189 76 -334 221t-221 334t-76 392t76 392t221 334t334 221q192 77 399 77q210 0 372 -67q130 -57 289 -188q-275 77 -534 -19q-239 -87 -391 -291q-151 -203 -151 -459t151 -459q152 -204 391 -291q259 -96 534 -19q-129 -124 -293 -192
q-163 -67 -346 -63zM1514 428l-154 361l-379 28l298 260l-92 356l327 -202l331 202l-105 -356l307 -260l-379 -28z" />
</svg>