<svg xmlns="http://www.w3.org/2000/svg" xmlns:xlink="http://www.w3.org/1999/xlink" version="1.1" viewBox="-10 0 2068 2048">
   <path fill="currentColor"
d="M1936 1424q48 0 80 32t32 80v400q0 48 -32 80t-80 32q-384 0 -742 -147q-358 -148 -628 -418t-418 -630q-148 -357 -148 -741q0 -48 32 -80t80 -32h400q48 0 80 32t32 80q0 214 64 405q22 70 -26 118l-250 250q124 242 316 435q194 194 434 317l252 -250q48 -48 116 -27
q191 64 406 64zM1024 0h230v229h-230v-229zM1366 0h682v229h-682v-229zM1024 341h230v230h-230v-230zM1366 341h682v230h-682v-230zM1024 683h230v229h-230v-229zM1366 683h682v229h-682v-229z" />
</svg>