<svg xmlns="http://www.w3.org/2000/svg" xmlns:xlink="http://www.w3.org/1999/xlink" version="1.1" viewBox="-10 0 2058 2048">
   <path fill="currentColor"
d="M1268 197h-584v-197h584v197zM1072 1755q0 153 68 279q-85 14 -164 14q-238 0 -438 -117q-203 -118 -320 -320q-120 -205 -120 -441q0 -237 120 -439q118 -201 320 -320q200 -118 438 -118q153 0 292 52q143 53 256 144l138 -142q64 56 136 138l-136 141q90 112 142 254
q50 137 50 290v37q-104 -37 -196 -37q-156 0 -292 80q-133 79 -214 215q-80 136 -80 290zM1072 585h-192v686h192v-686zM1466 1463v585l484 -293z" />
</svg>