<svg xmlns="http://www.w3.org/2000/svg" xmlns:xlink="http://www.w3.org/1999/xlink" version="1.1" viewBox="-10 0 2068 2048">
   <path fill="currentColor"
d="M716 308q160 0 308 67q147 -67 308 -67q196 0 360 96q164 97 260 259q96 164 96 361.5t-96 360.5q-96 162 -260 259q-164 96 -360 96q-161 0 -308 -67q-148 67 -308 67q-197 0 -360 -96q-164 -96 -260 -259t-96 -360.5t96 -361.5q96 -163 260 -259q163 -96 360 -96z
M716 1024q0 168 84 310q85 144 224 224q139 -81 224 -224q84 -143 84 -310.5t-84 -309.5q-85 -143 -224 -224q-139 80 -224 224q-84 142 -84 310z" />
</svg>