<svg xmlns="http://www.w3.org/2000/svg" xmlns:xlink="http://www.w3.org/1999/xlink" version="1.1" viewBox="-10 0 2068 2048">
   <path fill="currentColor"
d="M2048 1024q0 200 -78 392q-75 189 -220.5 334t-333.5 221q-192 77 -392 77t-392 -77q-188 -76 -333.5 -221t-220.5 -334q-78 -192 -78 -392t78 -392q75 -189 220.5 -334t333.5 -221q192 -77 392 -77t392 77q188 76 333.5 221t220.5 334q78 192 78 392zM1264 586
q43 24 94 12t74 -55q24 -43 12 -94q-11 -48 -58 -76q-45 -27 -94 -12q-47 15 -74 57q-26 43 -11.5 94t57.5 74zM1010 1385q-80 0 -150 -34l-86 154q121 53 236 53q70 0 144 -20q15 -82 84 -122q69 -41 150 -12q145 -140 160 -346h-178q-9 133 -114 230q-104 97 -246 97z
M1010 663q142 0 246 94q104 93 114 233h178q-15 -206 -160 -346q-81 29 -150 -12q-69 -40 -84 -122q-74 -20 -144 -20q-124 0 -236 53l86 154q70 -34 150 -34zM654 1024q0 -91 40.5 -168t107.5 -125l-86 -154q-173 116 -220 312q62 52 62 135t-62 135q23 95 80 175
q56 78 140 137l86 -154q-67 -48 -107.5 -125t-40.5 -168zM1264 1461q-42 23 -58 75q-14 51 12 94q27 42 74 57q49 15 94 -12q47 -28 58 -77q12 -50 -12 -93q-24 -44 -74.5 -56t-93.5 12zM384 899q-52 0 -88 36t-36 89t36 89t88 36q55 0 87.5 -36t32.5 -89t-32.5 -89
t-87.5 -36z" />
</svg>