<svg xmlns="http://www.w3.org/2000/svg" xmlns:xlink="http://www.w3.org/1999/xlink" version="1.1" viewBox="-10 0 2068 2048">
   <path fill="currentColor"
d="M1740 560h-202v-202h202v202zM1740 868h-202v-202h202v202zM1432 560h-202v-202h202v202zM1432 868h-202v-202h202v202zM1432 1280h-816v-206h816v206zM510 560h-202v-202h202v202zM510 868h-202v-202h202v202zM616 666h202v202h-202v-202zM616 358h202v202h-202v-202z
M922 666h202v202h-202v-202zM922 358h202v202h-202v-202zM1846 50h-1644q-82 0 -142 60t-60 142v1028q0 82 60 142t142 60h1644q82 0 142 -60t60 -142v-1028q0 -82 -60 -142t-142 -60zM510 1790h206v208h-206v-208zM922 1790h202v208h-202v-208zM1332 1790h206v208h-206
v-208z" />
</svg>