<svg xmlns="http://www.w3.org/2000/svg" xmlns:xlink="http://www.w3.org/1999/xlink" version="1.1" viewBox="-10 0 2068 2048">
   <path fill="currentColor"
d="M482 712q251 13 364 196.5t108 451.5q0 300 -120 478q-118 176 -364 182q-244 -12 -356 -192q-114 -180 -114 -464t116 -462q117 -178 366 -190zM476 926q-84 0 -134 108q-48 105 -48 329.5t48 332.5q50 110 140 110q178 0 181.5 -436.5t-187.5 -443.5zM1204 2020v-232
h60h68l134 -24q75 -22 122 -62q71 -45 108 -102q40 -65 58 -130l-6 -6q-86 86 -256 86q-172 0 -282 -94.5t-113 -284t129 -321.5t344 -138q246 13 362 162q116 151 116 388q-7 192 -62 338t-152 244q-90 78 -218 122q-124 42 -278 54h-134zM1564 926q-78 0 -130 61t-52 165
q0 88 44 144q47 58 144 64q61 0 104 -26q42 -26 62 -58q18 -18 18 -80q0 -107 -42 -184q-44 -80 -148 -86zM672 456l428 -428l422 428h-850z" />
</svg>