<svg xmlns="http://www.w3.org/2000/svg" xmlns:xlink="http://www.w3.org/1999/xlink" version="1.1" viewBox="-10 0 2068 2048">
   <path fill="currentColor"
d="M783 140q-162 0 -277 115t-115 279t115 279t279 115q163 0 278 -115t115 -279t-115 -279t-280 -115zM783 338q82 0 140 58q57 56 57 137t-57 139q-58 58 -138 58t-138 -58t-58 -138t58 -138t136 -58zM1473 928q-23 0 -23 22l-28 124q-18 12 -46 32l-32 20l-124 -52
q-23 0 -32 10l-92 174q-10 6 -7 14q4 12 11 20l106 78v96l-106 82q-3 4 -7 14q-2 8 3 20l92 170q9 8 32 8l124 -46l32 20q39 22 46 26l28 126q0 22 23 22h193q9 0 17 -4q6 -4 6 -18l19 -126l87 -46l120 46q28 0 28 -8l101 -170q5 -10 2 -20t-7 -14l-106 -82v-96l106 -78
q2 -4 7 -20q3 -8 -2 -14l-101 -174q0 -10 -28 -10l-120 52l-87 -52l-19 -124q0 -10 -6 -16q-7 -6 -17 -6h-193zM783 1024q-144 0 -318 46q-197 50 -322 128q-143 97 -143 222v294h948q-40 -89 -55 -188h-709v-106q0 -31 92 -82q90 -50 221 -88q150 -38 286 -38q59 0 128 10
q32 -97 83 -176q-127 -22 -211 -22zM1574 1272q60 0 102 44q41 43 41 104t-41 104q-42 44 -104 44t-106 -44t-44 -106q0 -61 44 -104q44 -42 108 -42z" />
</svg>