<svg xmlns="http://www.w3.org/2000/svg" xmlns:xlink="http://www.w3.org/1999/xlink" version="1.1" viewBox="-10 0 2068 2048">
   <path fill="currentColor"
d="M1980 1577q68 63 68 151q0 90 -60 154q-61 65 -152 65h-908q-144 0 -262 -70q-119 -70 -188 -187q-70 -120 -70 -262v-5q-177 -39 -292 -178q-116 -139 -116 -322q0 -139 68 -257q67 -119 184 -188t258 -69h258q20 0 35 -15t15 -36t-16 -36q-14 -14 -34 -14h-258v-207
h258q108 0 182 74t74 183t-74 183t-182 74h-258q-124 0 -216 89t-92 219q0 102 62 183q64 82 158 110q44 -174 184 -286q140 -113 322 -113q112 0 234 58q-110 63 -174 171q-66 109 -66 233q0 197 136 327l72 -72q-106 -101 -106 -255q0 -121 66 -212q51 -70 146 -110
q78 -34 148 -34q104 0 198 58q89 56 134 158q43 100 18 217zM1638 1740q44 0 73 -29t29 -72t-29 -72t-72 -29t-72 29t-29 72t29 72t71 29z" />
</svg>