<svg xmlns="http://www.w3.org/2000/svg" xmlns:xlink="http://www.w3.org/1999/xlink" version="1.1" viewBox="-10 0 2058 2048">
   <path fill="currentColor"
d="M1024 330q118 0 232 31l178 -309q19 -36 62 -48t83.5 11t51 65t-16.5 84l-160 277q201 121 318 319h-1496q117 -198 318 -319l-160 -277q-26 -40 -16 -84q11 -43 50 -65q42 -23 84 -11q44 12 64 48l176 309q114 -31 232 -31zM1888 1189q0 224 -104 412q-104 190 -282 308
q-182 120 -398 139v-1127h738q46 132 46 268zM160 1189q0 -133 46 -268h738v1127q-216 -19 -398 -139q-177 -117 -282 -308q-104 -190 -104 -412z" />
</svg>