<svg xmlns="http://www.w3.org/2000/svg" xmlns:xlink="http://www.w3.org/1999/xlink" version="1.1" viewBox="-10 0 2065 2048">
   <path fill="currentColor"
d="M1024 715q150 0 254 -103q106 -104 106 -252t-106 -254t-254 -106t-254 106q-105 105 -105 254q0 148 105 252q104 103 254 103zM1024 206q62 0 108 44t46 108t-46 110q-45 45 -108 45t-108 -45t-45 -110q0 -64 45 -108q46 -44 108 -44zM1331 1741q0 -42 -29 -74
q-28 -31 -72 -31h-105v-202h614v-153q0 -101 -96 -182q-98 -83 -259 -130q-164 -48 -360 -48t-359 48q-161 47 -259 130q-96 81 -96 182v153h614v202h-106q-44 0 -72 31q-29 32 -29 74h-714v202h714q0 42 29 74q28 31 72 31h412q44 0 72 -31q29 -32 29 -74h714v-202h-714z
M574 1228q71 -43 177 -67q128 -34 273 -34t273 34q108 25 178 67h-901z" />
</svg>