<svg xmlns="http://www.w3.org/2000/svg" xmlns:xlink="http://www.w3.org/1999/xlink" version="1.1" viewBox="-10 0 2068 2048">
   <path fill="currentColor"
d="M102 1074h408q0 -136 70 -256q68 -119 186 -188q118 -70 258 -70t256 70q120 70 188 188q70 118 70 256h408q44 0 73 29t29 73q0 41 -29 73.5t-73 32.5h-1844q-45 0 -74 -32q-28 -31 -28 -74q0 -44 28 -72q30 -30 74 -30zM1332 1074q0 -130 -89 -219t-219 -89t-220 90
q-88 88 -88 218h616zM1024 50l244 352q-118 -44 -244.5 -44t-245.5 44zM134 560l428 -34q-96 82 -158 188q-62 104 -86 236zM1912 560l-182 390q-25 -128 -86 -236q-63 -111 -160 -188zM1096 1968l316 -322q34 -29 34 -72t-30 -72q-33 -28 -72 -28q-42 0 -76 28l-244 250
l-246 -250q-33 -28 -74 -28q-39 0 -71.5 28.5t-32.5 71.5t34 72l318 322q33 30 71.5 30t72.5 -30z" />
</svg>