<svg xmlns="http://www.w3.org/2000/svg" xmlns:xlink="http://www.w3.org/1999/xlink" version="1.1" viewBox="-10 0 2058 2048">
   <path fill="currentColor"
d="M828 1851h392q0 82 -56 139q-58 58 -140 58t-140 -58q-56 -57 -56 -139zM1902 1654v101h-1756v-101l198 -192v-585q0 -229 132 -409q131 -179 352 -244v-32q0 -78 57 -135t139 -57t139 57t57 135v32q221 65 352 244q134 181 134 409v585zM1514 877q0 -135 -68 -249
q-65 -111 -178 -176q-111 -64 -244 -64t-244 64q-113 65 -178 176q-66 112 -66 249v681h978v-681z" />
</svg>