<svg xmlns="http://www.w3.org/2000/svg" xmlns:xlink="http://www.w3.org/1999/xlink" version="1.1" viewBox="-10 0 2058 2048">
   <path fill="currentColor"
d="M1566 268q0 111 -80 190q-78 78 -192 78t-192 -78t-78 -190t78 -190t192 -78t192 78q80 79 80 190zM1348 647h-86q-173 0 -320 -91q-151 -92 -230 -242q-22 -27 -22 -36l-196 86q44 121 166 243q137 132 308 202l-192 536l-418 -116l-304 591l218 56l192 -389l484 131
q80 15 154.5 -23t103.5 -108l248 -688q20 -61 -16 -106q-36 -46 -90 -46zM1768 536l-364 1016q-52 127 -160 203q-107 76 -240 76q-74 0 -112 -11l-308 -86l-100 198l216 50l152 46q110 20 162 20q202 0 366 -114q165 -114 236 -306l378 -1092h-226z" />
</svg>