<svg xmlns="http://www.w3.org/2000/svg" xmlns:xlink="http://www.w3.org/1999/xlink" version="1.1" viewBox="-10 0 2068 2048">
   <path fill="currentColor"
d="M1706 1740q-71 0 -130 20q-40 19 -82 43l-26 13t-17.5 9t-14.5 7q-30 14 -68 14q-40 0 -70 -14q-1 0 -58 -29q-45 -24 -86 -43q-59 -20 -130.5 -20t-129.5 20q-37 17 -82 43q-57 29 -58 29q-30 14 -71.5 14t-72.5 -14q-8 -4 -13.5 -7t-17.5 -9t-27 -13q-44 -26 -80 -43
q-59 -20 -130.5 -20t-129.5 20q-41 19 -82 43l-58 29q-30 14 -72 14v202q74 0 130 -19q30 -8 82 -39q40 -25 58 -29q30 -14 71.5 -14t72.5 14q17 4 58 29q52 31 80 39q56 19 130.5 19t129.5 -19q29 -8 82 -39q40 -25 58 -29q30 -14 71.5 -14t72.5 14q17 4 58 29q51 31 82 39
q55 19 128 19q75 0 130 -19q31 -8 82 -39q41 -25 62 -29q27 -14 68 -14q42 0 72 14q16 4 58 29q51 31 82 39q55 19 130 19v-202q-42 0 -68 -14q-22 -8 -58 -29q-39 -21 -86 -43q-54 -20 -130 -20zM682 1586q79 0 130 -19q32 -9 82 -38q40 -25 58 -29q32 -15 71 -15t73 15
q17 4 58 29q48 29 82 38q55 19 132 19q75 0 126 -19q35 -9 88 -38q34 -25 52 -29q32 -15 72 -15t72 15q16 4 58 29q48 29 82 38q55 19 130 19v-201q-36 0 -68 -15q-19 -10 -58 -29l-28 -14l-202 -774l210 86l78 -187l-1182 -452l-798 985l158 125l144 -182l96 356
q-21 -5 -56 -5q-79 0 -130 19q-42 19 -86 43q-34 20 -58 29q-29 15 -68 15v201q74 0 130 -19q34 -9 86 -38q34 -24 58 -29q34 -15 70 -15t70 15q17 4 58 29q49 29 80 38q56 19 130 19zM1236 836l144 549q-44 0 -82 -15q-17 -4 -62 -29q-42 -24 -82 -43q-56 -19 -130 -19
q-48 0 -96 9l-92 -346z" />
</svg>