<svg xmlns="http://www.w3.org/2000/svg" xmlns:xlink="http://www.w3.org/1999/xlink" version="1.1" viewBox="-10 0 2068 2048">
   <path fill="currentColor"
d="M1692 1514q-54 0 -90 -36t-36 -86q0 -51 39 -87t84 -36t85 39q38 38 42.5 83.5t-34.5 84.5q-38 38 -90 38zM1692 1024q-151 0 -256 106q-104 106 -104 255q0 116 90 288q67 122 174 264l96 111l90 -111q107 -142 174 -264q92 -173 92 -288q0 -147 -106 -255
q-105 -106 -250 -106zM716 0l-182 202h-332q-82 0 -142 60t-60 147v1230q0 87 60 147t142 60h1076q-77 -117 -100 -207h-976v-1230h422l184 -207h432l182 207h424v432q103 28 202 111v-543q0 -87 -60 -147t-142 -60h-332l-182 -202h-616zM1024 510q-140 0 -258 69
q-118 70 -186 188q-70 120 -70 257t70 257q68 118 186 188q118 69 258 69q81 0 124 -9l-4 -24q-20 -75 -20 -120v-73q-58 20 -100 20q-130 0 -220 -89q-88 -88 -88 -219t88 -219q90 -89 220 -89q105 0 190 68q84 68 108 168q96 -77 182 -101q-52 -155 -184 -248t-296 -93z
" />
</svg>