<svg xmlns="http://www.w3.org/2000/svg" xmlns:xlink="http://www.w3.org/1999/xlink" version="1.1" viewBox="-10 0 2068 2048">
   <path fill="currentColor"
d="M1790 53h258v218h-172l-454 455q-61 -92 -152 -152zM972 594q176 0 303 127t127 303q0 145 -90 263q-88 117 -234 157v10q0 145 -71.5 270t-194.5 198t-270 73q-112 0 -210 -40t-174 -117q-76 -76 -116 -174q-42 -100 -42 -208q0 -107 42 -207q40 -98 116 -174
q76 -77 174 -117t210 -40h10q40 -147 156 -235q117 -89 264 -89zM972 862q-66 0 -114 48t-48 114t48 114t114 48t114 -48t48 -114t-48 -114t-114 -48zM426 1267l-76 76l302 303l76 -76z" />
</svg>