<svg xmlns="http://www.w3.org/2000/svg" xmlns:xlink="http://www.w3.org/1999/xlink" version="1.1" viewBox="-10 0 2058 2048">
   <path fill="currentColor"
d="M1690 1031v-623q0 -112 -110 -204q-111 -94 -300 -149q-187 -55 -409.5 -55t-410.5 55q-186 55 -298 149q-112 93 -112 204v1026q0 111 112 204q112 94 298 149q188 55 410 55q86 0 134 -5q-32 -101 -32 -201v-5q-32 5 -102 5q-182 0 -334 -39q-124 -33 -206 -91
q-72 -44 -72 -72v-230q260 125 612 125q86 0 192 -10q81 -135 222 -216q139 -81 302 -81q42 0 104 9zM1484 969q-99 71 -264 115q-161 43 -349.5 43t-350.5 -43q-163 -43 -262 -115v-288q112 62 274 101q157 38 338.5 38t337.5 -38q164 -40 276 -101v288zM870 614
q-183 0 -334 -43q-125 -33 -206 -86q-72 -43 -72 -75q0 -30 72 -74q82 -58 206 -91q152 -39 334 -39q184 0 336 39q124 33 206 91q72 44 72 74q0 32 -72 75q-81 53 -206 86q-151 43 -336 43zM1998 1535v206h-308v307h-206v-307h-306v-206h306v-307h206v307h308z" />
</svg>