<svg xmlns="http://www.w3.org/2000/svg" xmlns:xlink="http://www.w3.org/1999/xlink" version="1.1" viewBox="-10 0 2058 2048">
   <path fill="currentColor"
d="M1556 1572l157 147q146 -187 172 -421h-217q-25 146 -112 274zM1136 1830v218q238 -30 425 -172l-157 -157q-122 86 -268 111zM1885 1085q-26 -234 -172 -421l-157 153q87 124 112 268h217zM1414 492l-491 -492v335q-212 25 -385 147q-171 120 -274 307
q-101 183 -101 403t101 403q102 185 274 306q173 122 385 147v-218q-234 -41 -388 -220t-154 -418q0 -240 154 -419t388 -220v421z" />
</svg>