<svg xmlns="http://www.w3.org/2000/svg" xmlns:xlink="http://www.w3.org/1999/xlink" version="1.1" viewBox="-10 0 2058 2048">
   <path fill="currentColor"
d="M806 1612q0 112 36 220h-36q-180 0 -330 -89q-151 -90 -238 -241q-86 -152 -86 -325q0 -155 102 -369q83 -176 226 -384q104 -152 224 -302l102 -122l128 153q144 183 262 369q158 246 224 435q-113 11 -214 51q-52 -138 -164 -328q-99 -164 -236 -337q-186 238 -302 450
q-132 245 -132 384q0 179 128 307t306 128zM1570 1505v-328h-216v328h-328v215h328v328h216v-328h326v-215h-326z" />
</svg>