<svg xmlns="http://www.w3.org/2000/svg" xmlns:xlink="http://www.w3.org/1999/xlink" version="1.1" viewBox="-10 0 2058 2048">
   <path fill="currentColor"
d="M562 355q-64 -58 -64 -146q0 -85 62 -147t150 -62t150 62q60 61 60 147q0 87 -60 148q-62 62 -150 62q-90 0 -148 -64zM394 1467v-945h-212v945q0 144 72 264t192 192q119 71 264 71h630v-212h-630q-134 0 -225 -91t-91 -224zM1866 1896l-532 -532h-364v-389
q117 97 270 162q168 69 310 69v-231q-132 4 -270 -57q-137 -61 -222 -155l-146 -162q-24 -30 -74 -54q-52 -25 -100 -25h-4q-98 0 -167 69t-69 167v606q0 132 94 224q92 91 220 91h532l370 369z" />
</svg>