<svg xmlns="http://www.w3.org/2000/svg" xmlns:xlink="http://www.w3.org/1999/xlink" version="1.1" viewBox="-10 0 2058 2048">
   <path fill="currentColor"
d="M1449 1116q-21 0 -26 22l-18 122q-45 19 -78 43l-118 -48q-22 0 -26 13l-91 162q-13 17 4 30l96 74v48v48l-96 74q-17 13 -4 31l91 161q4 13 26 13l118 -48q45 31 78 44l18 122q4 21 26 21h183q22 0 22 -21l21 -122q33 -17 74 -44l118 48q22 0 31 -13l91 -161
q9 -18 -4 -31l-100 -74l4 -48q0 -28 -4 -48l100 -74q13 -13 4 -30l-96 -162q-4 -13 -26 -13l-118 48q-42 -29 -78 -43l-17 -122q0 -22 -22 -22h-183zM1540 1443q57 0 98 41q42 42 42 98t-42 98t-98 42t-98 -42q-41 -41 -41 -98t41 -98t98 -41zM796 375h187v183h-187v-183z
M1353 558h-183v-183h183v183zM1170 745h183v188h-183v-188zM796 745h187v188h-187v-188zM1087 2048h-1032v-2048h1673v959q-98 -26 -188 -26v-745h-1302v1673h558v-327h96v48q0 134 50 255q50 120 145 211zM613 1303h-188v-187h188v187zM613 933h-188v-188h188v188zM613 558
h-188v-183h188v183zM425 1491h188v183h-188v-183zM796 1116h187v131l-31 56h-156v-187z" />
</svg>