<svg xmlns="http://www.w3.org/2000/svg" xmlns:xlink="http://www.w3.org/1999/xlink" version="1.1" viewBox="-10 0 2068 2048">
   <path fill="currentColor"
d="M1852 1434q-15 -42 -20 -92q-104 106 -248 106q-124 0 -208 -69.5t-84 -184.5q0 -135 102 -208q105 -74 290 -74h144v-68q0 -75 -46 -118q-44 -44 -136 -44q-77 0 -132 38q-54 39 -54 92h-148q0 -68 42 -128q44 -60 129.5 -96t172.5 -36q147 0 232 74q83 74 88 204v398
q0 122 28 190v16h-152zM1608 1318q65 0 128 -34q63 -33 92 -80v-164h-116q-272 0 -272 144q0 62 48 98t120 36zM360 994h416l-206 -552zM484 208h172l482 1226h-196l-100 -264h-544l-102 264h-196zM2048 1640v200h-766v-200h766z" />
</svg>