<svg xmlns="http://www.w3.org/2000/svg" xmlns:xlink="http://www.w3.org/1999/xlink" version="1.1" viewBox="-10 0 2058 2048">
   <path fill="currentColor"
d="M1348 1421l266 157l-70 113l-334 -200v-467h138v397zM1954 1395q0 179 -87 329t-237 237t-330 87q-129 0 -246 -50q-114 -49 -206 -137h-566q-80 0 -134 -54t-54 -133v-1299q0 -79 54 -133t134 -54h388q30 -82 102 -135t158.5 -53t159.5 53q72 53 102 135h388
q78 0 132 54t54 133v567q88 92 138 207q50 117 50 246zM840 279q0 39 26 68q25 28 64.5 28t65.5 -28q26 -29 26 -66q0 -36 -26 -65q-26 -28 -65.5 -28t-64.5 28q-26 29 -26 63zM1766 1395q0 -127 -62 -233q-63 -106 -170 -168q-106 -61 -233.5 -61t-232.5 61
q-107 62 -168 168q-60 104 -60 233t60 233q61 107 168 170q106 63 232.5 63t233.5 -63q106 -63 170 -170q62 -106 62 -233z" />
</svg>