<svg xmlns="http://www.w3.org/2000/svg" xmlns:xlink="http://www.w3.org/1999/xlink" version="1.1" viewBox="-10 0 2068 2048">
   <path fill="currentColor"
d="M188 140q-78 0 -133 55t-55 133v1114q0 78 56 134q54 54 132 54h976q-40 -92 -48 -188h-928v-928l746 462l740 -462v280h48q73 0 138 16v-482q0 -80 -54 -134t-132 -54h-1486zM188 328h1486l-740 466zM1674 884l-210 210l210 210v-140q95 0 164 68q70 68 70 162
q0 57 -26 106l100 100q66 -91 66 -206q0 -152 -108 -260q-110 -110 -266 -110v-140zM1364 1190q-60 95 -60 204q0 158 109 267t261 109v138l208 -208l-208 -210v140q-96 0 -164 -70q-68 -69 -68 -166q0 -50 26 -104z" />
</svg>