<svg xmlns="http://www.w3.org/2000/svg" xmlns:xlink="http://www.w3.org/1999/xlink" version="1.1" viewBox="-10 0 2058 2048">
   <path fill="currentColor"
d="M1657 505h-286q-71 -128 -181 -200l162 -162l-142 -143l-219 219q-70 -19 -143 -19t-143 19l-224 -219l-143 143l167 162q-115 73 -186 200h-285v205h214q-10 58 -10 100v105h-204v200h204v104q0 42 10 100h-214v205h285q109 190 317 267t412 0v-67q0 -83 28 -171
q-104 71 -228 71q-172 0 -291 -119t-119 -286v-409q0 -167 119 -286t288 -119t288 119t119 286v409q0 40 -4 57q87 -78 209 -123v-38h200v-200h-200v-105q0 -48 -9 -100h209v-205zM1895 1419l-362 367l-162 -162l-119 119l281 305l481 -486zM1048 710v205h-405v-205h405z
M1048 1115v204h-405v-204h405z" />
</svg>