<svg xmlns="http://www.w3.org/2000/svg" xmlns:xlink="http://www.w3.org/1999/xlink" version="1.1" viewBox="-10 0 2058 2048">
   <path fill="currentColor"
d="M936 0q-166 0 -310 85t-228 228q-82 141 -82 311t82 312q84 143 226 228q140 83 312 83q174 0 314 -83q140 -84 224 -228q84 -142 84 -312t-84 -311q-84 -143 -226 -228q-144 -85 -312 -85zM936 192q118 0 218 58q98 57 156 159q56 101 56 217t-56 214q-59 100 -156 157
q-100 58 -218 58q-86 0 -166 -33q-78 -33 -140 -94q-60 -60 -92 -140q-30 -78 -30 -162q0 -118 56 -217q57 -102 156 -159q99 -58 216 -58zM850 359v325l282 167l68 -117l-218 -125v-250h-132zM224 1335v713h180v-267h1066v267l354 -355l-354 -358v267h-1066v-267h-180z" />
</svg>