<svg xmlns="http://www.w3.org/2000/svg" xmlns:xlink="http://www.w3.org/1999/xlink" version="1.1" viewBox="-10 0 2068 2048">
   <path fill="currentColor"
d="M996 447v-398h-996v1796h1132q-38 -96 -38 -201h-98v-196h136q24 -71 64 -131v-71h-200v-201h200v-196h-200v-201h800v407q99 17 196 75v-683h-996zM398 1644h-202v-196h202v196zM398 1246h-202v-201h202v201zM398 849h-202v-201h202v201zM398 447h-202v-196h202v196z
M794 1644h-196v-196h196v196zM794 1246h-196v-201h196v201zM794 849h-196v-201h196v201zM794 447h-196v-196h196v196zM1394 1045h200v-196h-200v196zM1394 849v196h200v-196h-200zM1394 849v196h200v-196h-200zM2048 1434l-216 210l216 215l-140 140l-216 -215l-210 215
l-140 -140l210 -215l-210 -210l140 -141l210 211l216 -211z" />
</svg>