<svg xmlns="http://www.w3.org/2000/svg" xmlns:xlink="http://www.w3.org/1999/xlink" version="1.1" viewBox="-10 0 2068 2048">
   <path fill="currentColor"
d="M0 146l128 -124l1896 1898l-122 128l-270 -275q-252 174 -558 174q-194 0 -372 -73q-181 -74 -318 -210q-135 -135 -210 -318q-74 -181 -74 -373q0 -305 174 -557zM586 1462l232 -498l-402 -407q-124 198 -124 412q0 215 106 395q105 181 286 286q180 105 394 105
q216 0 412 -123l-406 -403zM1564 484l-234 494l-260 -261zM1074 0q194 0 372 73q183 75 318.5 210t209.5 318q74 179 74 372q0 306 -170 553l-142 -141q120 -188 120 -412q0 -211 -106 -391q-104 -179 -286 -285q-180 -105 -390 -105q-225 0 -412 118l-140 -141
q245 -169 552 -169z" />
</svg>