<svg xmlns="http://www.w3.org/2000/svg" xmlns:xlink="http://www.w3.org/1999/xlink" version="1.1" viewBox="-10 0 2068 2048">
   <path fill="currentColor"
d="M2048 1933l-1920 -1933l-128 128l722 722l-54 78q-92 87 -92 198q0 113 78 190l100 101q38 33 89.5 55t102.5 22q106 0 196 -77q30 -35 88 -69l704 700zM996 1280q-18 18 -52 18t-52 -18l-100 -101q-20 -19 -20 -57t28 -66l60 -69l214 215q-12 16 -46 50zM1006 635
l-164 -165q60 -210 264 -342q161 -96 320 -96q193 0 330 96q169 109 240 281q70 171 34 352q-36 179 -166 313q-110 110 -264 155l-164 -164l14 -5q12 -4 26 -4q150 -18 252 -119q69 -69 100.5 -158t17.5 -185q-18 -193 -196 -311q-98 -59 -226 -59q-127 0 -222 68
q-85 50 -136.5 133t-59.5 183v27zM754 1531l-246 233q45 92 -28 169q-45 41 -102 41q-58 0 -99 -41t-41 -100q-39 0 -100 -37q-42 -46 -42 -103t42 -103q76 -72 168 -27l242 -238q10 23 52 60l96 100q18 33 58 46z" />
</svg>