<svg xmlns="http://www.w3.org/2000/svg" xmlns:xlink="http://www.w3.org/1999/xlink" version="1.1" viewBox="-10 0 2058 2048">
   <path fill="currentColor"
d="M409 0q-86 0 -146 60q-61 61 -61 142v1644q0 81 61 142q60 60 146 60h1230q87 0 147 -60t60 -142v-1231l-615 -615h-822zM1125 154l567 562h-567v-562zM808 740h125v96q52 0 91 39t39 91v212l-10 14l91 159q48 -81 48 -173h125q0 162 -105 293l173 298v125l-111 -62
l-159 -274q-111 72 -245 72t-245 -72l-158 274l-111 62v-125l332 -577l-10 -14v-212q0 -52 39 -91t91 -39v-96zM870 966q-53 0 -74 51t17 86q39 36 89 17t50 -72q0 -34 -24 -58t-58 -24zM784 1284l-91 163q82 53 177 53q96 0 178 -53l-91 -163q-38 38 -87 38q-48 0 -86 -38z
" />
</svg>