<svg xmlns="http://www.w3.org/2000/svg" xmlns:xlink="http://www.w3.org/1999/xlink" version="1.1" viewBox="-10 0 2068 2048">
   <path fill="currentColor"
d="M1674 1355l-524 -523l44 9q169 42 252 79q136 66 184 170q44 67 44 265zM1856 1469q-5 30 -12 52l138 144q52 -89 66 -196h-192zM886 536v-91h-122l94 91h28zM1966 1883l-118 117l-114 -109q-98 40 -200 40h-1534v-184h376v-187h-280v-1307l-82 -87l82 -83v-9h10l26 -26z
M1212 1560h-654v187h654v-187zM1586 1743l-178 -183h-14v187h140q36 0 52 -4zM886 353v-279h-494l280 279h214z" />
</svg>