<svg xmlns="http://www.w3.org/2000/svg" xmlns:xlink="http://www.w3.org/1999/xlink" version="1.1" viewBox="-10 0 2058 2048">
   <path fill="currentColor"
d="M1807 45v333v333q0 25 -20 42q-19 17 -39 12l-73 -44q-90 -48 -191 -93q-142 -58 -279 -93q-178 -44 -338 -44v254h25q38 0 73 15t49 44l137 191q30 30 30 74v832q0 59 -47 103t-110 44h-519q-63 0 -110 -42q-46 -41 -46 -105v-832q0 -45 29 -74l137 -191q44 -59 122 -59
h25v-156q-69 83 -169 83t-176 -88t-76 -206q0 -117 76 -205q77 -89 178 -89q96 19 167 84v-147h205v254q160 0 338 -44q137 -34 279 -93q101 -45 191 -93l73 -44q19 -4 39 8t20 36z" />
</svg>