<svg xmlns="http://www.w3.org/2000/svg" xmlns:xlink="http://www.w3.org/1999/xlink" version="1.1" viewBox="-10 0 2068 2048">
   <path fill="currentColor"
d="M102 0h1844q44 0 73 29t29 72v207q0 43 -29 72t-73 29h-100v716q0 43 -32 74q-32 32 -74 32h-616v221q92 33 150 113q58 81 58 175q0 130 -89 219t-219 89t-220 -89q-88 -88 -88 -219q0 -95 58 -175q57 -80 148 -113v-221h-614q-42 0 -74 -32t-32 -74v-716h-100
q-44 0 -74 -29q-28 -28 -28 -72v-207q0 -44 28 -72q30 -29 74 -29zM1024 1639q-44 0 -73 29t-29 72t30 75q28 31 71.5 31t72.5 -31q28 -32 28 -75t-29 -72t-71 -29z" />
</svg>