<svg xmlns="http://www.w3.org/2000/svg" xmlns:xlink="http://www.w3.org/1999/xlink" version="1.1" viewBox="-10 0 2058 2048">
   <path fill="currentColor"
d="M1554 0l-148 154q103 104 160 238q58 134 58 283q0 203 -100 371q-99 170 -270 268q-170 99 -368 99q-149 0 -286 -54q-135 -54 -240 -159l-148 149q113 114 260 183q149 71 304 90v218h-422v208h1056v-208h-420v-218q239 -30 430 -161q195 -133 306 -340
q110 -209 110 -446q0 -192 -74 -365q-76 -178 -208 -310zM886 94q-120 0 -226 45q-108 45 -188 126q-80 80 -126 189q-46 106 -46 221q0 113 46 220q46 109 126 189q80 81 188 126q106 45 226 45q157 0 290 -77q128 -75 210 -211q80 -134 80 -292q0 -115 -46 -221
q-46 -109 -125.5 -189t-188.5 -126q-107 -45 -220 -45zM886 303q153 0 260 109q106 110 106 263q0 152 -106 262q-107 109 -260.5 109t-262.5 -109t-109 -262q0 -154 109 -263t263 -109z" />
</svg>