<svg xmlns="http://www.w3.org/2000/svg" xmlns:xlink="http://www.w3.org/1999/xlink" version="1.1" viewBox="-10 0 2068 2048">
   <path fill="currentColor"
d="M1024 953q-287 0 -512 169l-174 -227q148 -107 324 -167q175 -60 362 -60t362 60q174 59 322 167l-44 58h-22q-152 0 -284 67q-160 -67 -334 -67zM1878 668l170 -227q-219 -166 -480 -254q-262 -89 -544.5 -89t-545.5 89q-258 88 -478 254l170 227q182 -137 400 -211
t453.5 -74t454.5 74t400 211zM1024 1238q-190 0 -342 116l342 454l30 -45q-30 -96 -30 -191q0 -176 94 -325q-50 -9 -94 -9zM1594 1189q-156 0 -267 111t-111 270q0 158 111 269t267 111q120 0 216 -64q93 -63 134 -171h-160q-36 46 -84 69q-49 24 -106 24q-98 0 -167 -69
t-69 -167t68 -169q70 -71 168 -71t168 71l-168 169h378v-383l-112 111q-110 -111 -266 -111z" />
</svg>