<svg xmlns="http://www.w3.org/2000/svg" xmlns:xlink="http://www.w3.org/1999/xlink" version="1.1" viewBox="-10 0 2068 2048">
   <path fill="currentColor"
d="M1024 923q-44 0 -73 29t-29 72t29 72t72 29t72 -29t29 -72t-29 -72t-71 -29zM1024 1485q-194 0 -328 -134t-134 -327t134 -327q136 -135 328 -135t326 135q134 134 134 327t-134 327t-326 134zM1024 0q-200 0 -392 77q-188 76 -333.5 221t-220.5 334q-78 192 -78 392
t78 392q75 189 220.5 334t333.5 221q192 77 392 77t392 -77q188 -76 333.5 -221t220.5 -334q78 -192 78 -392t-78 -392q-75 -189 -220.5 -334t-333.5 -221q-192 -77 -392 -77z" />
</svg>