<svg xmlns="http://www.w3.org/2000/svg" xmlns:xlink="http://www.w3.org/1999/xlink" version="1.1" viewBox="-10 0 2068 2048">
   <path fill="currentColor"
d="M966 784q4 22 4 33v539q0 76 -52 134l-284 318l-350 -351l124 -125l288 -1246q9 -37 42 -62q31 -24 74 -24q44 0 78 34q32 33 32 77v509q-31 -5 -52 -5q-86 0 -146 60t-60 142v308q0 23 16 38q17 15 36.5 15t35.5 -15t16 -38v-308q0 -37 29 -69t73 -32q24 0 52 15
q13 7 30 29zM0 1740l408 308l120 -130l-354 -351zM1638 1332l-288 -1246q-8 -37 -40 -62q-32 -24 -74 -24q-44 0 -78 34t-34 77v509q32 -5 54 -5q86 0 146 60q60 61 60 142v308q0 23 -16 38q-17 15 -36.5 15t-35.5 -15q-18 -15 -18 -38v-308q0 -37 -28.5 -69t-71.5 -32
q-25 0 -54 15q-12 7 -28 29l-14 24q-6 22 -6 33v539q0 76 54 134l282 318l352 -351zM1874 1567l-356 351l120 130l410 -308z" />
</svg>