<svg xmlns="http://www.w3.org/2000/svg" xmlns:xlink="http://www.w3.org/1999/xlink" version="1.1" viewBox="-10 0 2068 2048">
   <path fill="currentColor"
d="M1030 1541q-209 0 -336 -90q-102 -74 -102 -171q0 -42 28 -72q26 -29 66 -29t66 21q23 18 48 53q42 53 74 75q58 37 150 37q91 0 144 -40q54 -40 54 -93q0 -80 -102 -107l-272 -69q-149 -37 -208 -117q-48 -65 -48 -166q0 -160 134 -245q112 -69 282 -69q150 0 280 72
t130 168q0 42 -32 69q-31 27 -80 27q-30 0 -52 -22q-17 -10 -44 -37q-40 -47 -74 -64q-54 -32 -138 -32q-86 0 -132 32q-44 32 -44 83q0 50 48 77q30 20 106 37l208 48q278 64 278 299q0 145 -112 235q-113 90 -320 90zM1706 341q178 173 244 400q66 229 24 459
q74 126 74 280t-78 283q-77 130 -208 208q-128 77 -282 77q-152 0 -280 -75q-229 42 -458.5 -24t-401.5 -240q-176 -177 -240 -402q-66 -229 -24 -459q-76 -128 -76 -280q0 -154 78 -283q77 -130 208 -208q128 -77 282 -77q153 0 280 75q229 -42 458 24t400 242zM572 229
q-144 0 -243 99t-99 237t90 235q-64 197 -16 397q49 201 198 350q148 149 348 197q202 48 398 -16q98 91 234 91q138 0 237 -99t99 -237t-90 -235q64 -197 16 -397q-49 -201 -198 -350q-148 -149 -348 -197q-201 -48 -398 16q-97 -91 -228 -91z" />
</svg>