<svg xmlns="http://www.w3.org/2000/svg" xmlns:xlink="http://www.w3.org/1999/xlink" version="1.1" viewBox="-10 0 2058 2048">
   <path fill="currentColor"
d="M1024 0q-192 0 -358 96t-262 262t-96 353q0 188 111 443q94 202 245 432q122 173 250 332l110 130l111 -130q128 -159 250 -332q151 -230 245 -432q110 -248 110 -440q0 -190 -96 -356t-262 -262q-167 -96 -358 -96zM1024 202q87 0 147 60t60 147q0 86 -60 146t-147 60
q-86 0 -146 -60t-60 -146q0 -87 60 -147t146 -60zM1024 1231q-125 0 -233 -60q-107 -59 -175 -161q0 -92 153 -159q130 -53 255 -53t255 53q154 67 154 159q-68 101 -176 161t-233 60z" />
</svg>