<svg xmlns="http://www.w3.org/2000/svg" xmlns:xlink="http://www.w3.org/1999/xlink" version="1.1" viewBox="-10 0 2065 2048">
   <path fill="currentColor"
d="M818 1564q0 137 -101 297q-61 81 -129 154h-5q-29 33 -69 33q-41 0 -84 -43q-25 -30 -22 -72q3 -44 31 -72q56 -47 111 -120q67 -100 67 -177q0 -34 -24 -82q-5 -14 -43 -86l-15 -24q-124 -163 -124 -309q0 -148 67 -252q44 -64 86 -87q30 -14 77 -4q42 9 57 38
q24 39 15 79q-9 41 -48 65l-10 14q-20 20 -29 53q-9 39 -9 91q0 54 24 106q18 40 57 91q120 168 120 307zM1024 1065q0 -57 15 -96q9 -34 24 -53l14 -14q38 -24 46 -65q7 -39 -17 -79q-24 -38 -65 -46q-38 -7 -81 15q-41 21 -80 84q-71 104 -71 252q0 146 124 309l15 24
q35 67 47 86q20 49 20 82q0 77 -67 177q-51 75 -106 120q-33 29 -33 72q0 44 26 74q27 32 65 32q56 15 95 -24q77 -77 130 -154q105 -159 105 -297q0 -140 -124 -307l-15 -24q-30 -52 -48 -86q-19 -47 -19 -82zM1844 0h-1640q-81 0 -141 60t-60 146v1123q0 86 60 146t141 60
h106v-206h-106v-1123h1640v1123h-105v206h105q81 0 141 -60t60 -146v-1123q0 -86 -60 -146t-141 -60zM1456 1075q0 -77 24 -130q15 -24 24 -33q34 -25 43 -65q9 -41 -12 -77q-22 -37 -65 -46q-42 -9 -81 12q-38 21 -82 84q-67 104 -67 255q0 75 34 158q26 51 76 129l29 48
q34 59 43 87q19 42 19 81q0 73 -67 173q-52 81 -105 120q-30 34 -34 74q-5 41 24 72q28 31 72 31q17 0 62 -14l29 -10h5q73 -73 125 -153q105 -159 105 -293q0 -75 -34 -158q-28 -56 -76 -130l-29 -48q-35 -60 -43 -86q-19 -47 -19 -81z" />
</svg>