<svg xmlns="http://www.w3.org/2000/svg" xmlns:xlink="http://www.w3.org/1999/xlink" version="1.1" viewBox="-10 0 2068 2048">
   <path fill="currentColor"
d="M1724 483h324l-430 -430l-430 430h324v1512h212v-1512zM218 483q0 91 63 154t153 63q88 0 151 -63t63 -151q0 -89 -63 -152t-151 -63q-90 0 -153 63t-63 149zM430 53q182 0 309 127t127 306q0 178 -127 305t-305 127q-180 0 -307 -127t-127 -305q0 -179 127 -306
t303 -127zM430 1130q-176 0 -303 127t-127 306t128 306q126 126 306 126q178 0 304 -126q128 -127 128 -306t-127 -306t-309 -127z" />
</svg>