<svg xmlns="http://www.w3.org/2000/svg" xmlns:xlink="http://www.w3.org/1999/xlink" version="1.1" viewBox="-10 0 2058 2048">
   <path fill="currentColor"
d="M1024 202q191 0 343 89q151 88 238 248q87 159 87 360q-324 125 -668 125t-668 -125q0 -201 87 -360q88 -161 237 -248q153 -89 344 -89zM1024 0q-239 0 -440 113q-198 112 -314 315q-116 212 -116 486q5 56 41 108q35 49 89 74l178 53v236q0 17 -17 33q-16 15 -35.5 15
t-36.5 -15q-17 -16 -17 -33q5 -50 -25.5 -80.5t-75.5 -25.5q-43 -5 -74 26t-27 80q-4 100 68.5 177t176.5 77h10q110 4 185 -72t70 -182v-188h105v587q0 33 -26 45t-53 0q-26 -12 -26 -45q5 -44 -27 -77q-31 -33 -74 -24q-43 -9 -75 24q-30 32 -26 77q-9 106 62 185
q72 79 183 79h9q111 4 185.5 -70.5t69.5 -184.5v-562h106v562q-4 111 69 185q75 74 185 70h10q106 0 178 -75t67 -180q0 -63 -50 -89q-50 -27 -101 0t-51 89q0 34 -26 46t-53 0q-26 -12 -26 -46v-586h105v187q0 106 75 178q75 71 180 67h10q105 0 177.5 -77t67.5 -177
q0 -68 -51 -92q-50 -24 -101 0q-50 23 -50 92q0 28 -27 43q-26 15 -53 0q-26 -15 -26 -43v-236l178 -53q53 -29 89 -77q37 -49 41 -105q0 -274 -116 -486q-116 -203 -314 -315q-200 -113 -440 -113zM1024 428q-115 33 -209 101t-161 168q-19 23 -48 19q-29 -5 -41 -31
q-12 -27 7 -50q76 -115 188 -195q113 -81 245 -113q20 -5 38 7q20 12 24 32q15 42 -43 62z" />
</svg>