<svg xmlns="http://www.w3.org/2000/svg" xmlns:xlink="http://www.w3.org/1999/xlink" version="1.1" viewBox="-10 0 2068 2048">
   <path fill="currentColor"
d="M2048 1933l-1920 -1933l-128 128l294 292q-97 120 -150 270q-52 153 -52 315q0 82 58 140q56 57 134 57h790l96 96h-398l-128 439q-17 77 24 148q41 72 114 85l60 9h456q82 0 139 -57t57 -135l-8 -50l-32 -96l-18 -92l498 499zM284 1005q0 -236 146 -448l68 69
q-18 60 -18 87q0 82 57 139t139 57q26 0 88 -23l114 119h-594zM842 1787l26 -101l60 -192h292l88 293h-466zM1454 909q-78 0 -135 -57t-57 -139q0 -83 57 -140t137 -57t136 57q58 58 58 140q0 81 -58 139q-56 57 -138 57zM696 324l-148 -146q260 -146 522 -146t484 130
q224 130 354 354q130 223 130 489q0 83 -57 140t-135 57h-274l-196 -197h470q0 -268 -166 -482q-167 -213 -418 -277q-9 73 -66 124q-56 50 -130 50q-76 0 -132 -50q-57 -51 -66 -124q-93 29 -172 78z" />
</svg>