<svg xmlns="http://www.w3.org/2000/svg" xmlns:xlink="http://www.w3.org/1999/xlink" version="1.1" viewBox="-10 0 2068 2048">
   <path fill="currentColor"
d="M1846 0h-1644q-82 0 -142 60t-60 142v1846l408 -409h1438q82 0 142 -60t60 -146v-1231q0 -82 -60 -142t-142 -60zM1124 1231h-202v-207h202v207zM1312 716q-32 42 -116 82q-38 24 -48 53q-14 15 -18 29q-6 17 -6 43h-202q0 -66 30 -115q45 -38 114 -82q40 -15 60 -53
q22 -41 22 -75q0 -36 -31 -67t-83 -31q-30 0 -72 19q-30 20 -30 63h-206q19 -109 92 -173q68 -53 215.5 -53t228.5 65q78 64 78 170q15 62 -28 125z" />
</svg>