<svg xmlns="http://www.w3.org/2000/svg" xmlns:xlink="http://www.w3.org/1999/xlink" version="1.1" viewBox="-10 0 2065 2048">
   <path fill="currentColor"
d="M1466 886v-205h196v205q-55 -9 -100 -9q-44 0 -96 9zM640 781q-24 0 -38 14t-14 32v146h586v-146q0 -18 -14 -32t-36 -14h-484zM296 1558v-877h-196v1074h808q-26 -96 -26 -197h-586zM1758 585h-1754v-585h1754v585zM1562 196h-1362v192h1362v-192zM2032 1696q6 0 6 6
q0 7 -6 12l-100 169q-8 9 -28 9l-118 -41l-78 50l-18 128q0 6 -6 12q-8 7 -12 7h-196q-10 0 -28 -19l-24 -128q-40 -13 -76 -50l-114 50q-19 0 -32 -9l-96 -164q-10 -14 8 -32l110 -78v-96l-110 -78q-8 -9 -8 -32l96 -164q14 -10 32 -10l114 51l76 -51l24 -128q0 -18 28 -18
h196q4 0 12 7q6 6 6 11l18 128q27 8 92 51l114 -51q32 0 32 10l96 164q9 9 -10 32l-110 78v96zM1708 1558q0 -54 -44 -100t-100 -46t-102 46t-46 103q0 56 46 100q45 44 102 44q56 0 100 -44t44 -103z" />
</svg>