<svg xmlns="http://www.w3.org/2000/svg" xmlns:xlink="http://www.w3.org/1999/xlink" version="1.1" viewBox="-10 0 2058 2048">
   <path fill="currentColor"
d="M671 0q-104 0 -177 73t-73 177q0 103 73 176t177 73q105 0 179 -73q75 -74 75 -176q0 -104 -75 -177q-74 -73 -179 -73zM1377 0q-105 0 -179 73q-76 74 -76 177q0 102 76 176q74 73 179 73q103 0 176 -73t73 -176q0 -104 -73 -177t-176 -73zM925 603v198h-602v202h997
q-34 88 -106 184q-75 101 -176 183q-145 -127 -235 -268h-231q94 202 315 400l-489 391l122 155l522 -414l518 414l122 -155l-484 -391q288 -265 334 -499h193v-202h-603v-198h-197z" />
</svg>