<svg xmlns="http://www.w3.org/2000/svg" xmlns:xlink="http://www.w3.org/1999/xlink" version="1.1" viewBox="-10 0 2068 2048">
   <path fill="currentColor"
d="M1038 1688l629 -634q-275 63 -433 222q-156 159 -196 412zM1921 818h29q29 0 55 18q27 20 36 48q10 30 5 58q-4 29 -29 54l-1023 1022q-33 30 -72 30l-38 -6q-28 -8 -48 -36q-19 -26 -19 -54q-24 -524 273 -822q187 -188 481 -264q177 -48 350 -48zM1023 0q224 0 427 94
q200 93 346 260q144 166 207 372l-159 -10h-62q-91 -231 -298 -372q-208 -142 -461 -142q-221 0 -410 111t-300 300t-111 411q0 253 142 462q141 206 372 298q-5 124 9 220q-207 -62 -372 -206q-167 -146 -259 -346q-94 -205 -94 -428q0 -277 137 -514q138 -237 372 -372
q237 -138 514 -138z" />
</svg>