<svg xmlns="http://www.w3.org/2000/svg" xmlns:xlink="http://www.w3.org/1999/xlink" version="1.1" viewBox="-10 0 2058 2048">
   <path fill="currentColor"
d="M1024 0l-836 375v558q0 255 109 486q110 234 298 401q187 166 429 228q242 -62 429 -228q188 -167 298 -401q109 -231 109 -486v-558zM1394 1377q0 44 -35 79t-82 35h-514q-44 0 -77 -37q-32 -36 -32 -85v-327q0 -39 35 -74t74 -35v-235q0 -97 80 -164t181 -67t181 67
t80 164v47h-122v-47q0 -53 -41 -85q-42 -33 -98 -33t-98 33q-41 32 -41 85v235h400q43 0 76 35q33 34 33 83v326z" />
</svg>