<svg xmlns="http://www.w3.org/2000/svg" xmlns:xlink="http://www.w3.org/1999/xlink" version="1.1" viewBox="-10 0 2068 2048">
   <path fill="currentColor"
d="M632 585q-60 0 -104 -44q-42 -43 -42 -105q0 -63 42 -103q45 -41 106 -41q62 0 103 41t41 103q0 61 -41 105t-105 44zM1412 973h-146v489l352 211l74 -119l-280 -165v-416zM2048 1362q0 188 -92 345q-91 157 -248 249q-159 92 -346 92q-167 0 -316 -80
q-148 -79 -246 -218q-220 -18 -404 -139q-186 -123 -290 -315q-106 -197 -106 -419q0 -237 118 -441q116 -203 320 -320q202 -116 440 -116h24q31 9 44 27q28 28 28 69v196h96h28q26 9 46 28q26 27 26 68v96h192l28 5q28 9 46 27q28 23 28 69v96h192l32 4q35 13 54 46
q8 40 8 69q141 99 218 244q80 148 80 318zM696 1531q-64 -40 -64 -119q0 -65 54 -110q10 -134 74 -251q-36 -18 -58 -53q-20 -34 -20 -75q0 -59 44 -103q42 -43 104 -43q63 0 108 55q146 -120 328 -142v-9h-146q-58 0 -102 -44q-44 -43 -44 -103v-50h-50q-58 0 -102 -41
t-44 -105v-137q-225 32 -386 196q-162 165 -190 389q15 -47 52 -76q38 -29 86 -29q64 0 104 43q42 44 42 103t-42 103q-40 43 -100 43t-103.5 -39t-48.5 -93q0 89 10 146q32 192 166 343q134 150 328 201zM1852 1362q0 -132 -66 -245q-66 -111 -178 -176q-112 -64 -246 -64
q-132 0 -244 64q-111 64 -176 176q-64 112 -64 245q0 132 64 244q66 114 176 179q113 66 244 66q133 0 246 -66q111 -65 178 -179q66 -112 66 -244z" />
</svg>