<svg xmlns="http://www.w3.org/2000/svg" xmlns:xlink="http://www.w3.org/1999/xlink" version="1.1" viewBox="-10 0 2068 2048">
   <path fill="currentColor"
d="M878 146q-238 0 -438 118q-202 119 -320 320q-120 202 -120 439.5t120 438.5q118 202 320 320q201 120 438 120q298 0 534 -184l-136 -136q-184 122 -398 122q-187 0 -342 -90q-156 -92 -248 -248q-90 -155 -90 -342.5t90 -343.5q91 -154 248 -246q156 -92 342 -92
t342 92q157 92 248 246q92 157 92 344h-294l394 388l388 -388h-292q0 -238 -120 -440q-118 -201 -320 -320q-200 -118 -438 -118zM458 1138q-14 9 -4 28l86 150q5 14 28 14l110 -46q36 23 72 42l18 114q5 18 24 18h174q8 5 16 0q6 -3 6 -14l18 -114q41 -17 74 -46l108 46
q19 5 28 -14l88 -146q8 -18 -6 -32l-96 -68q5 -46 0 -92l96 -74q14 -9 6 -26l-88 -152q-9 -18 -28 -8l-108 40q-28 -18 -74 -40l-18 -114q-5 -20 -22 -20h-170q-18 0 -22 20l-14 114q-47 18 -78 40l-110 -40q-23 -5 -28 14l-90 146q-5 18 4 32l100 68q-4 26 -4 46t4 46z
M879 1170q-59 0 -103 -44q-44 -42 -44 -102t43 -103t103 -43t103 43t43 103t-42 102q-44 44 -103 44z" />
</svg>