<svg xmlns="http://www.w3.org/2000/svg" xmlns:xlink="http://www.w3.org/1999/xlink" version="1.1" viewBox="-10 0 2058 2048">
   <path fill="currentColor"
d="M1538 1231q-26 -26 -53 -58l-14 -19q109 -170 178 -356q91 -243 91 -490q0 -149 -53 -229q-52 -79 -149 -79q-86 0 -185 72q-98 71 -185 202q-91 148 -144 337q-53 -189 -144 -337q-87 -131 -185 -202q-99 -72 -185 -72q-97 0 -149 79q-53 80 -53 229q0 247 91 490
q69 186 178 356l-14 19q-28 32 -53 58l-14 14q-71 56 -116 115q-72 106 -72 226q0 192 135 327t326 135q60 0 135 -10q45 -8 86 -29l34 -9l34 9q41 21 86 29q75 10 135 10q192 0 327 -135q134 -134 134 -327q0 -120 -72 -226q-46 -61 -115 -115zM1524 207q14 31 14 101
q0 198 -72 394q-53 155 -139 298q-57 -44 -144 -63q9 -209 77 -389q56 -142 139 -240q72 -81 125 -101zM510 308q0 -70 14 -101q53 20 125 101q85 100 140 240q66 174 81 389q-92 19 -144 63q-92 -145 -144 -298q-72 -196 -72 -394zM1279 1846q-119 0 -226 -58
q31 -16 50 -45q22 -33 22 -53q0 -21 -29 -36q-28 -15 -72 -15t-72 15q-29 15 -29 36q0 20 22 53q19 29 50 45q-107 58 -226 58q-105 0 -182 -77t-77 -183q0 -85 106 -177q56 -43 129 -140l5 -5q68 -82 106 -105q59 -34 168 -34t168 34q38 23 106 105l5 5q72 95 130 140
q105 91 105 177q0 106 -77 183t-182 77zM1231 1433q0 33 -17 55t-36 22t-36 -22t-17 -53q0 -30 17 -55q16 -24 36 -24t36 24q17 25 17 53zM923 1433q0 33 -17 55t-36 22t-36 -22q-16 -20 -16 -53q0 -32 16 -55q16 -24 36 -24t36 24q17 25 17 53z" />
</svg>