<svg xmlns="http://www.w3.org/2000/svg" xmlns:xlink="http://www.w3.org/1999/xlink" version="1.1" viewBox="-10 0 2068 2048">
   <path fill="currentColor"
d="M138 14l-138 138l408 406v222q87 14 148 88q62 72 62 170t-60 170t-150 96v730l626 -368q0 -57 46 -108q47 -48 110 -48q44 0 84 24l74 -44l542 544l138 -138zM824 1510q-40 0 -72 -32t-32 -71t32 -71t72 -32q37 0 72.5 31.5t35.5 71t-35.5 71.5t-72.5 32zM1210 834
l-406 -412q44 44 122 44q79 0 138 -54q57 -54 72 -132q397 171 652 436l-10 14q-14 24 -14 40q0 39 34 70q35 32 68.5 32t43.5 -10q50 58 138 212l-368 204l-176 -176q54 -52 54 -136t-61 -145t-149 -61q-102 38 -138 74zM764 382l-230 -230q77 0 196 20q-10 32 -10 82
q0 84 44 128z" />
</svg>