<svg xmlns="http://www.w3.org/2000/svg" xmlns:xlink="http://www.w3.org/1999/xlink" version="1.1" viewBox="-10 0 2068 2048">
   <path fill="currentColor"
d="M1860 802v-288q0 -78 -54 -132t-132 -54h-740l-188 -188h-558q-78 0 -133 55t-55 133v1114q0 78 56 134q54 54 132 54h670q83 126 228 202q143 76 308 76q180 0 330 -87t237 -236.5t87 -328.5q0 -126 -50 -244q-50 -117 -138 -210zM772 1442h-584v-928h1486v158
q-117 -66 -280 -66q-175 0 -326 88q-149 87 -236 234q-86 149 -86 328q0 102 26 186zM1394 1722q-127 0 -232 -62q-107 -61 -168 -168q-60 -103 -60 -234.5t60 -235.5q61 -106 168 -168q105 -60 234 -60q131 0 236 60q105 61 168 168q60 106 60 235.5t-60 234.5
q-63 108 -168 168q-105 62 -238 62zM1490 1072h-186v-188h186v188zM1490 1630h-186v-466h186v466z" />
</svg>