<svg xmlns="http://www.w3.org/2000/svg" xmlns:xlink="http://www.w3.org/1999/xlink" version="1.1" viewBox="-10 0 2068 2048">
   <path fill="currentColor"
d="M1638 1332q64 0 108 43q46 44 46 108q0 65 -46 111q-44 45 -107 45t-109 -45q-46 -46 -46 -111q0 -64 46 -108q45 -43 108 -43zM1638 1178q-128 0 -217 89t-89 216t88 219q89 91 218 91q131 0 220 -91q88 -92 88 -219t-89 -216t-219 -89zM510 562l-202 -307h-308v202h318
l298 442v894h202l264 -514h202q56 -96 150 -152q93 -55 204 -55q134 0 240 82l170 -592h-1538zM754 1687h-38v-634l92 134q57 87 158 92z" />
</svg>