<svg xmlns="http://www.w3.org/2000/svg" xmlns:xlink="http://www.w3.org/1999/xlink" version="1.1" viewBox="-10 0 2058 2048">
   <path fill="currentColor"
d="M1901 1882l-242 -237l-995 -996l-147 -142l-275 -280l-128 128l280 280q-128 157 -164 353q-36 194 22 391q57 195 199 337q119 119 267 178q147 59 306 59q290 0 507 -180l275 275l128 -128zM1024 1754q-122 0 -232 -45q-109 -45 -197 -133q-87 -87 -132 -197
q-45 -109 -45 -232q0 -209 123 -365l483 483v489zM1024 289v464l734 731q104 -224 62 -475q-42 -250 -223 -436l-573 -573l-374 374l142 142z" />
</svg>