<svg xmlns="http://www.w3.org/2000/svg" xmlns:xlink="http://www.w3.org/1999/xlink" version="1.1" viewBox="-10 0 2068 2048">
   <path fill="currentColor"
d="M2048 682q0 -56 -84 -160q-41 -52 -88 -96l-44 48q-51 56 -80 100q-44 68 -44 112t22 84q23 41 62 60v364h-172v-168q0 -55 -38 -104q-38 -48 -90 -60q44 -85 44 -170t-38 -158q-37 -72 -106 -116l-368 -248l-368 240q-63 51 -104 126q-40 73 -40 154q0 96 52 172
q-61 12 -98 58q-38 47 -38 106v168h-172v-364q39 -19 62 -60q22 -40 22 -88q0 -56 -84 -160q-44 -56 -84 -96l-44 48q-53 53 -84 100q-44 68 -44 112t24 84t60 60v1048h856v-340q0 -36 24 -62t60 -26t60 26q24 25 24 62v340h856v-1048q36 -20 60 -60q24 -41 24 -88zM760 554
l264 -176l264 176q76 52 76 136q0 64 -48 114t-112 50h-360q-64 0 -112 -50t-48 -114q0 -84 76 -136zM1792 1706h-512v-168q0 -104 -76 -180t-180 -76t-180 76t-76 180v168h-512v-340h340v-340h856v340h340v340z" />
</svg>