<svg xmlns="http://www.w3.org/2000/svg" xmlns:xlink="http://www.w3.org/1999/xlink" version="1.1" viewBox="-10 0 2068 2048">
   <path fill="currentColor"
d="M1334 1026h134v250l216 126l-66 116l-284 -166v-326zM1426 846q-120 0 -224 62q-102 60 -162 162q-60 103 -60 222q0 121 60 224q60 102 162 160q103 60 223.5 60t222.5 -60q104 -59 162 -160t58 -224q0 -121 -58 -222q-59 -102 -162 -162q-103 -62 -222 -62zM1426 668
q167 0 310 84q143 85 228 228q84 143 84 310q0 170 -84 314q-85 144 -227.5 227t-310.5 83q-183 0 -336 -98q-151 -97 -226 -256h-864v-268q0 -113 134 -200q108 -70 288 -116q155 -42 290 -42q85 0 188 22q86 -136 224 -212q140 -76 302 -76zM800 1292q0 -93 30 -178
q-48 -8 -118 -8q-124 0 -258 32q-116 33 -200 80q-84 46 -84 74v96h638q-8 -41 -8 -96zM712 134q149 0 252 104q104 105 104 252t-104 252q-103 104 -252 104q-147 0 -250 -104q-104 -105 -104 -252t104 -252q103 -104 250 -104zM712 304q-78 0 -132 54t-54 132t54 132
t132 54q80 0 134 -54t54 -132t-54 -132t-134 -54z" />
</svg>