<svg xmlns="http://www.w3.org/2000/svg" xmlns:xlink="http://www.w3.org/1999/xlink" version="1.1" viewBox="-10 0 2058 2048">
   <path fill="currentColor"
d="M1206 1942q-238 -351 -238 -592q0 -145 72 -275q70 -129 192 -210h-46v-218h218v132q83 -25 160 -25q35 0 52 5v-759h-1506v1942h646v-379h212v379h238zM1186 218h218v212h-218v-212zM538 1725h-216v-213h216v213zM538 1295h-216v-218h216v218zM538 865h-216v-218h216
v218zM538 430h-216v-212h216v212zM756 218h212v212h-212v-212zM756 647h212v218h-212v-218zM756 1295v-218h212v218h-212zM1564 971q-156 0 -266 111q-112 112 -112 268q0 172 186 455q100 146 192 243l96 -116q115 -152 182 -278q96 -182 96 -304q0 -157 -111 -268
t-263 -111zM1564 1492q-55 0 -92.5 -41t-37.5 -93q0 -54 40 -91q41 -38 88.5 -38t87.5 40q42 42 46 91q5 51 -36 91q-40 41 -96 41z" />
</svg>