<svg xmlns="http://www.w3.org/2000/svg" xmlns:xlink="http://www.w3.org/1999/xlink" version="1.1" viewBox="-10 0 2068 2048">
   <path fill="currentColor"
d="M1842 460h-1842v-408h1842v408zM1636 666q46 0 104 10v-110h-1640v1328h926q-4 -10 -4 -28v-360q0 -72 32 -140q32 -63 92 -114v-124l4 -54h-536v-154q0 -18 15 -33t37 -15h508q28 0 44 20q67 -100 178 -162q110 -64 240 -64zM1922 1382h-440v-254q0 -57 46 -96
q45 -40 110 -40q64 0 108 40q42 38 42 96v52h134v-52q0 -105 -88 -180q-89 -76 -198 -76q-110 0 -198 76q-86 74 -86 180v254q-48 0 -86 38t-38 86v360q0 52 38 90q38 40 86 40h562q52 0 92 -36q42 -37 42 -84v-360q0 -53 -40 -94q-39 -40 -86 -40z" />
</svg>