<svg xmlns="http://www.w3.org/2000/svg" xmlns:xlink="http://www.w3.org/1999/xlink" version="1.1" viewBox="-10 0 2058 2048">
   <path fill="currentColor"
d="M1747 1617q22 22 22 44q0 21 -18 43q-53 74 -135 116q-81 41 -178 41h-828q-102 0 -183 -41q-82 -42 -135 -116q-13 -17 -13 -41t20 -44q19 -19 50 -19q29 0 52 30q59 71 148 96l270 -336l-117 -361q-23 -75 21 -144l210 -340h-205l-170 270l-148 -91l218 -349h500
q56 0 94 33q37 33 50 54l44 109q47 104 146 172q98 68 215 68v174q-146 0 -276 -74q-128 -73 -203 -192l-161 249l379 235v527h22q65 0 122 -30q56 -29 87 -70q23 -30 50 -30q29 0 50 17zM1242 1325l-305 -192l87 292l-257 305h475v-405zM1303 0q-78 0 -133 55t-55 133
t55 133q54 54 133 54t133 -54t54 -133t-54 -133q-55 -55 -133 -55zM654 1909q-30 0 -50 20t-20 47q0 28 20 51q18 21 48 21q29 0 50 -21t21 -51q0 -29 -21 -47q-23 -20 -48 -20zM1394 1909q-25 0 -48 20q-22 19 -22 47q0 29 22 51q21 21 50 21q30 0 48 -21q20 -23 20 -51
q0 -27 -20 -47t-50 -20z" />
</svg>