<svg xmlns="http://www.w3.org/2000/svg" xmlns:xlink="http://www.w3.org/1999/xlink" version="1.1" viewBox="-10 0 2068 2048">
   <path fill="currentColor"
d="M374 1325q-54 0 -90 -38q-36 -36 -36 -91q0 -53 38 -91t88 -38q52 0 92 40q41 42 45.5 89.5t-35.5 87.5q-42 41 -102 41zM374 809q-150 0 -262 111q-112 112 -112 268q0 122 96 304q68 126 182 278l96 116l102 -116q114 -152 182 -278q96 -181 96 -304q0 -157 -111 -268
t-269 -111zM214 162q-46 0 -76 30q-32 31 -32 76v389q130 -65 268 -65q163 0 300 81q136 81 216 217q82 136 82 298q0 126 -56 268h592q50 0 80 -30q30 -31 30 -76v-379l430 430v-1184l-430 430v-379q0 -45 -30 -76q-30 -30 -80 -30h-1294z" />
</svg>