<svg xmlns="http://www.w3.org/2000/svg" xmlns:xlink="http://www.w3.org/1999/xlink" version="1.1" viewBox="-10 0 2058 2048">
   <path fill="currentColor"
d="M540 0q160 0 282 89q122 88 172 235h1000v323h-322v324h-324v-324h-354q-51 148 -176 236q-126 88 -278 88q-204 0 -344 -141q-142 -142 -142 -344t142 -344t344 -142zM540 324q-66 0 -114 48t-48 114q0 65 48 113t114 48q64 0 112 -48t48 -113q0 -66 -48 -114t-112 -48z
M1302 1189l152 151l-278 278l278 278l-152 152l-278 -278l-278 278l-152 -152l278 -278l-278 -278l152 -151l278 278z" />
</svg>