<svg xmlns="http://www.w3.org/2000/svg" xmlns:xlink="http://www.w3.org/1999/xlink" version="1.1" viewBox="-10 0 2068 2048">
   <path fill="currentColor"
d="M1024 0q-200 0 -392 77q-188 76 -333.5 221t-220.5 334q-78 192 -78 392t78 392q75 189 220.5 334t333.5 221q192 77 392 77t392 -77q188 -76 333.5 -221t220.5 -334q78 -192 78 -392t-78 -392q-75 -189 -220.5 -334t-333.5 -221q-192 -77 -392 -77zM510 769
q0 -66 46 -110q45 -44 110 -44q64 0 108 44t44 108t-44 110q-45 46 -108 46q-64 0 -110 -46t-46 -108zM1432 1433h-816v-202h816v202zM1384 923q-66 0 -110 -46q-44 -44 -44 -110q0 -65 44 -108q44 -44 108 -44q65 0 110 44q46 43 46 108t-46 110q-46 46 -108 46z" />
</svg>