<svg xmlns="http://www.w3.org/2000/svg" xmlns:xlink="http://www.w3.org/1999/xlink" version="1.1" viewBox="-10 0 2068 2048">
   <path fill="currentColor"
d="M1874 615l96 -312q35 -9 56 -36q22 -28 22 -65q0 -38 -30 -70q-28 -31 -71.5 -31t-72.5 31q-28 32 -28 70q0 39 24 72l-78 264l-76 -264q24 -33 24 -72q0 -38 -30 -70q-28 -31 -71.5 -31t-72.5 31q-28 32 -28 70q0 37 22 65q20 27 54 36l96 312q-77 15 -124 70
q-48 55 -48 132v231q-106 -241 -324 -389q-220 -149 -488 -149q-196 0 -364 101q-164 99 -264 271q-98 169 -98 373q0 139 58 262q55 120 154 209l-126 14q-37 4 -61.5 36t-24.5 70q0 39 28.5 70t73.5 31h1652q82 0 136 -55q56 -56 56 -137v-760q46 -27 74 -74
q28 -45 28 -104q0 -77 -48 -132t-126 -70zM1394 1577l-366 48q78 -136 78 -265q0 -182 -125 -307t-299 -125q-82 0 -158 33q-38 19 -50 61q-13 41 6.5 79t57.5 53q37 14 74 -3q35 -16 70 -16q92 0 154 64q62 63 62 161q0 127 -86 217q-86 91 -212 91q-164 0 -280 -120
q-118 -121 -118 -293q0 -144 72 -270q73 -125 192 -197q120 -72 260 -72q186 0 344 94q153 92 246 255q92 161 92 348q0 77 -14 164z" />
</svg>