<svg xmlns="http://www.w3.org/2000/svg" xmlns:xlink="http://www.w3.org/1999/xlink" version="1.1" viewBox="-10 0 2058 2048">
   <path fill="currentColor"
d="M1252 1078q-98 69 -164 170q-66 100 -96 224h-596l286 -375l206 251l290 -374zM240 1678v-1467h1466v739q119 11 210 49v-788q0 -89 -61 -150t-149 -61h-1466q-90 0 -151 61t-61 150v1467q0 89 60 150q62 62 152 62h786q-38 -91 -48 -212h-738zM2020 1629v-423l-122 123
q-124 -123 -296 -123t-295 123t-123 298q0 174 122 297q124 124 296 124q132 0 238 -72q106 -71 150 -189h-176q-39 49 -94 76q-54 27 -118 27q-108 0 -184 -76t-76 -185q0 -108 76 -187t184 -79q110 0 188 79l-188 187h418z" />
</svg>