<svg xmlns="http://www.w3.org/2000/svg" xmlns:xlink="http://www.w3.org/1999/xlink" version="1.1" viewBox="-10 0 2063 2048">
   <path fill="currentColor"
d="M979 1103v-10l-29 -29h-9l-163 -62q68 -53 134 -53q81 0 141 63t60 139q0 77 -48 129zM787 1750q-48 -153 72 -388l120 316q33 88 -57 132q-92 45 -135 -60zM212 1112q32 -90 125 -57l326 120q-236 120 -389 72q-91 -43 -62 -135zM1022 604h-100v144h-44q-163 0 -287 120
l-39 62l-143 -81q-32 -10 -101 -10q-102 0 -177 62q-87 67 -111 144q-29 101 0 202q47 113 111 153q-63 235 105 398q120 125 283 125q83 0 115 -10q100 135 244 135q72 0 101 -15q78 -25 142 -112q64 -88 64 -166q0 -77 -9 -110l-63 -139l63 -43q129 -129 110 -317h144
v-101h-163q-62 -186 -245 -249v-192zM1564 470q-29 -29 -29 -70q0 -40 29 -72q28 -31 72 -31q43 0 72 29q29 15 29 72q0 43 -29 72q-14 14 -29 17q-10 2 -43 2t-43 -2q-15 -3 -29 -17zM1914 192h-115l-29 -92q-28 -100 -134 -100q-119 0 -134 100l-29 92h-115q-87 0 -130 95
q-33 91 58 154l96 48l-43 125q-24 52 9 124q49 58 113 58t93 -29l82 -62l81 72q42 19 91 19q66 0 115 -58q33 -73 10 -124l-43 -125l81 -48q96 -63 63 -154q-15 -54 -43 -74q-29 -21 -77 -21z" />
</svg>