<svg xmlns="http://www.w3.org/2000/svg" xmlns:xlink="http://www.w3.org/1999/xlink" version="1.1" viewBox="-10 0 2068 2048">
   <path fill="currentColor"
d="M2048 872h-102l-100 -206h-644l230 360h-202l-336 -360h-692q-49 0 -124 -32q-78 -31 -78 -66q0 -38 50 -100q51 -62 124 -106q91 -56 180 -56q86 0 150 28q43 17 96 58q69 48 116 68h1230q44 0 72 30q30 33 30 74v308zM894 410l336 -360h202l-230 360h-308zM1638 872
v-154h178l-76 154h-102zM102 1690q-44 0 -74 -30q-28 -28 -28 -72t28 -72q30 -28 74 -28q166 0 288 120q120 120 120 288q0 44 -29 73t-72 29t-72 -29t-29 -73q0 -86 -60 -146t-146 -60zM922 1896q0 44 -30 72q-33 30 -74 30q-44 0 -74 -30q-28 -28 -28 -72q0 -165 -82 -310
q-81 -142 -224 -224q-142 -80 -308 -80q-44 0 -74 -30q-28 -28 -28 -72t28.5 -75t73.5 -31q221 0 410 110q190 111 300 302q110 188 110 410z" />
</svg>