<svg xmlns="http://www.w3.org/2000/svg" xmlns:xlink="http://www.w3.org/1999/xlink" version="1.1" viewBox="-10 0 2058 2048">
   <path fill="currentColor"
d="M659 543l-163 -91q81 -130 216 -178q-9 -29 -36 -50q-28 -22 -60 -22v-202q114 0 202 77v125q32 0 60 22q27 21 36 50q-81 29 -149 101q-67 71 -106 168zM616 923q0 -120 57 -216l-134 -77q-59 25 -94 74q-36 51 -36 113v106q0 472 279 784q176 200 442 307
q-226 -178 -361 -423q-153 -296 -153 -668zM1538 644l-129 72l-178 -101l-183 101l-125 -72q-49 24 -77 72q-28 47 -28 101v106q0 257 86 471q71 176 202 322q103 114 245 202q91 60 202 101l86 29v-1231q0 -52 -29 -101q-28 -48 -72 -72zM894 471l154 91l183 -101l178 101
l153 -91q-87 -154 -235 -202q-15 -116 -101 -192q-88 -77 -202 -77v202q32 0 60 22q27 21 36 50q-139 48 -226 197z" />
</svg>