<svg xmlns="http://www.w3.org/2000/svg" xmlns:xlink="http://www.w3.org/1999/xlink" version="1.1" viewBox="-10 0 2068 2048">
   <path fill="currentColor"
d="M1462 832q-102 -6 -177 48t-95 144q0 32 96 62q92 29 196 29q69 0 134 -21q58 -21 98 -51t40 -45q0 -16 -34 -54q-35 -38 -94 -69q-73 -37 -164 -43zM592 832q-97 6 -170 43q-60 27 -94 64q-34 38 -34 56q0 17 42 48q42 30 108 51q64 21 122 21q99 0 194 -29
q98 -30 98 -62q-21 -90 -100 -146q-81 -56 -166 -46zM1590 1536q-77 0 -156 -37q-48 -27 -136 -91q-87 -64 -130 -85q-76 -43 -143.5 -43t-144.5 43q-52 23 -138 85q-75 53 -134 91q-78 37 -148 37q-204 0 -332 -178q-128 -179 -128 -499q0 -138 35 -211t123 -104
q89 -32 264 -32q132 0 250 32q58 15 166 59q51 24 90 37q47 16 96.5 16t95.5 -16q38 -12 96 -37q107 -44 170 -59q115 -32 240 -32q245 0 334 78q88 78 88 269q0 320 -128 499q-128 178 -330 178z" />
</svg>