<svg xmlns="http://www.w3.org/2000/svg" xmlns:xlink="http://www.w3.org/1999/xlink" version="1.1" viewBox="-10 0 2058 2048">
   <path fill="currentColor"
d="M1454 753q0 203 -132 324q-121 106 -298 106t-298 -106q-132 -121 -132 -324h213q0 102 65 160t152 58t152 -58t65 -160h213zM1888 1724v324h-1728v-324q0 -131 161 -237q132 -92 349 -147q192 -45 354 -45t354 45q215 55 348 147q162 107 162 237zM1681 1724
q0 -35 -101 -91q-98 -54 -243 -91q-162 -45 -313 -45t-313 45q-145 37 -243 91q-101 56 -101 91v117h1314v-117zM1080 0q20 0 35 15t15 36v323h111v-268q115 55 182 167q66 110 61 238l20 10q21 11 35 35q22 40 26 91h-1082q0 -54 20 -91q14 -24 41 -35l20 -10
q-5 -128 61 -238q66 -111 182 -167v268h111v-323q0 -21 15 -36t35 -15h112z" />
</svg>