<svg xmlns="http://www.w3.org/2000/svg" xmlns:xlink="http://www.w3.org/1999/xlink" version="1.1" viewBox="-10 0 2068 2048">
   <path fill="currentColor"
d="M716 2048q-42 0 -71 -29t-29 -72v-308h-414q-82 0 -142 -60t-60 -146v-1231q0 -82 60 -142t142 -60h1644q82 0 142 60t60 142v1231q0 86 -60 146t-142 60h-626l-378 380q-34 29 -74 29h-52zM818 1433v317l316 -317h712v-1231h-1644v1231h616zM1432 1231h-816v-106
q0 -92 152 -154q125 -48 255.5 -48t254.5 48q154 63 154 154v106zM1024 409q86 0 146 60t60 144t-60 144t-146 60t-146 -60t-60 -144t60 -144t146 -60z" />
</svg>