<svg xmlns="http://www.w3.org/2000/svg" xmlns:xlink="http://www.w3.org/1999/xlink" version="1.1" viewBox="-10 0 2068 2048">
   <path fill="currentColor"
d="M1024 0q-278 0 -514 137q-235 136 -372 373q-138 236 -138 514t138 514q137 237 372 373q236 137 513.5 137t514.5 -137q236 -137 372 -373q138 -236 138 -514t-138 -514q-136 -236 -372 -373q-237 -137 -514 -137zM1442 1538q-21 0 -54 -28l-528 -428l-178 447h-154
l448 -1082q19 -43 64.5 -43t65.5 43l408 986q4 22 4 28q0 34 -22 56q-20 21 -54 21zM1042 625l266 654l-404 -313z" />
</svg>