<svg xmlns="http://www.w3.org/2000/svg" xmlns:xlink="http://www.w3.org/1999/xlink" version="1.1" viewBox="-10 0 2068 2048">
   <path fill="currentColor"
d="M1808 226q-17 -49 -62 -80q-45 -32 -98 -32h-1248q-58 0 -100 30q-44 32 -60 82l-240 684v912q0 42 35 77t77 35h118q48 0 80 -35.5t32 -76.5v-118h1364v118q0 42 35 77t77 35h118q42 0 78 -36q34 -34 34 -76v-912zM432 338h1174l122 342h-1408zM1818 1480h-1588v-570
h1588v570zM512 1022q70 0 120 52q52 54 52 120q0 68 -52 118q-50 50 -120 50t-120 -50t-50 -118q0 -66 50 -120q51 -52 120 -52zM1536 1022q69 0 120 52q50 54 50 120q0 68 -50 118t-120 50t-120 -50t-50 -118q0 -67 50 -119.5t120 -52.5z" />
</svg>