<svg xmlns="http://www.w3.org/2000/svg" xmlns:xlink="http://www.w3.org/1999/xlink" version="1.1" viewBox="-10 0 2068 2048">
   <path fill="currentColor"
d="M1024 942q0 -5 4 -5q291 -267 380 -370q130 -155 130 -293q0 -116 -84 -195t-200 -79q-139 0 -230 101q-92 -101 -236 -101q-114 0 -196 82t-82 197q0 132 130 288q93 108 378 370zM942 1024q-4 0 -4 -5q-261 -285 -370 -380q-153 -129 -294 -129q-115 0 -194 84
q-80 83 -80 199q0 139 102 231q-102 92 -102 236q0 116 81 197t197 81q137 0 290 -129q109 -95 370 -380zM1110 1024q193 212 264 284q122 121 208 173q96 57 192 57q114 0 194 -84q80 -85 80 -199q0 -139 -102 -231q102 -92 102 -236q0 -115 -82 -197q-82 -81 -198 -81
q-135 0 -288 129q-107 93 -370 385zM1024 1106q0 4 -6 4q-281 259 -378 371q-130 156 -130 293q0 116 84 195q83 79 198 79q140 0 232 -101q91 101 236 101q114 0 196 -82q82 -81 82 -197q0 -134 -130 -288q-93 -108 -380 -371z" />
</svg>