<svg xmlns="http://www.w3.org/2000/svg" xmlns:xlink="http://www.w3.org/1999/xlink" version="1.1" viewBox="-10 0 2068 2048">
   <path fill="currentColor"
d="M1952 662q-15 -5 -44 -18l-48 -22q-112 -239 -337 -382.5t-499 -143.5t-498.5 143.5t-337.5 382.5q-25 10 -78 38q-52 29 -80 74q-30 48 -30 94v392q0 44 28 94q25 46 68 72l92 38q113 241 338 384q224 144 498 144t500 -144q224 -143 336 -384q27 -9 84 -48
q104 -68 104 -164v-384q0 -46 -26 -94q-26 -46 -70 -72zM1024 278q166 0 310 66q143 66 248 188q-232 -66 -560 -66t-546 66q99 -121 242 -188q140 -66 306 -66zM1024 1768q-168 0 -306 -64q-143 -67 -242 -188q218 66 546 66t560 -66q-105 122 -248 188q-142 64 -310 64z
" />
</svg>