<svg xmlns="http://www.w3.org/2000/svg" xmlns:xlink="http://www.w3.org/1999/xlink" version="1.1" viewBox="-10 0 2058 2048">
   <path fill="currentColor"
d="M1048 1059l599 -342v380q123 0 202 42v-591q0 -55 -52 -89l-787 -440q-44 -19 -61 -19t-61 19l-787 440q-51 33 -51 89v900q0 56 51 89l787 441q42 18 61 18t61 -18l89 -52q-26 -51 -51 -197v-670zM949 220l600 328l-202 108l-590 -337zM851 1729l-600 -342v-670l600 342
v670zM949 876l-599 -328l201 -122l600 352zM1441 1350l206 206l211 -206l140 140l-210 206l210 211l-140 141l-211 -211l-206 211l-141 -141l207 -211l-207 -206z" />
</svg>