<svg xmlns="http://www.w3.org/2000/svg" xmlns:xlink="http://www.w3.org/1999/xlink" version="1.1" viewBox="-10 0 2058 2048">
   <path fill="currentColor"
d="M1788 131q78 0 134 54q56 53 56 134t-56 137q-56 57 -138 57q-80 0 -134 -57t-54 -137t54 -134t138 -54zM1788 895q78 0 134 54q56 53 56 134q0 82 -56 138t-138 56q-80 0 -134 -56q-54 -57 -54 -138q0 -80 54 -134t138 -54zM702 0q-176 0 -320 86q-147 88 -230 233
q-82 145 -82 319v126q0 108 70 179q73 72 174 75t179 -66t83.5 -173t-63.5 -182t-169 -84q41 -114 140 -185q98 -72 218 -72q215 0 364 150q148 151 148 358q0 347 -216 600q-219 254 -678 445l102 239q522 -226 784 -544q260 -317 260 -740q0 -205 -102 -379
q-102 -176 -278 -281q-173 -104 -384 -104z" />
</svg>