<svg xmlns="http://www.w3.org/2000/svg" xmlns:xlink="http://www.w3.org/1999/xlink" version="1.1" viewBox="-10 0 2068 2048">
   <path fill="currentColor"
d="M1366 1024h228q0 -156 -76 -285q-78 -130 -208 -208q-131 -78 -286 -78v230q144 0 242 98q100 99 100 243zM1818 1024h230q0 -278 -138 -515q-137 -234 -374 -373q-234 -136 -512 -136v229q217 0 400 107q181 106 288 288q106 182 106 400zM1936 1424q-215 0 -406 -64
q-68 -21 -116 27l-252 250q-240 -123 -434 -317q-192 -193 -316 -435l250 -250q48 -48 26 -118q-64 -191 -64 -405q0 -48 -32 -80t-80 -32h-400q-48 0 -80 32t-32 80q0 384 148 741q148 360 418 630t628 418q358 147 742 147q48 0 80 -32t32 -80v-400q0 -48 -32 -80t-80 -32
z" />
</svg>