<svg xmlns="http://www.w3.org/2000/svg" xmlns:xlink="http://www.w3.org/1999/xlink" version="1.1" viewBox="-10 0 2058 2048">
   <path fill="currentColor"
d="M1024 0q161 0 294 77q135 77 214 211q78 132 78 285q0 152 -92 359q-74 160 -202 348q-93 139 -200 269l-92 105l-92 -105q-107 -130 -200 -269q-128 -188 -202 -348q-90 -204 -90 -359q0 -153 78 -285q79 -134 212 -211t294 -77zM1024 388q-82 0 -139 57t-57 137
q0 81 57 138t139 57t139 -57t57 -138q0 -80 -57 -137t-139 -57zM1806 1654q0 110 -106 199q-106 90 -286 142q-181 53 -390 53t-390 -53q-180 -52 -286 -142q-106 -89 -106 -199q0 -91 84 -171q82 -79 224 -135l58 87q-75 30 -122 78q-46 46 -46 96q0 64 78 121
q79 58 212 89q137 32 294 32t294 -32q134 -31 214 -89q78 -57 78 -121q0 -50 -46 -96q-48 -48 -124 -78l60 -87q141 56 223.5 135t82.5 171z" />
</svg>