<svg xmlns="http://www.w3.org/2000/svg" xmlns:xlink="http://www.w3.org/1999/xlink" version="1.1" viewBox="-10 0 2068 2048">
   <path fill="currentColor"
d="M1024 460q-281 0 -514 76q-236 76 -372 206q-138 131 -138 284.5t138 281.5q136 127 372 204q237 76 513.5 76t514 -76.5t372.5 -203.5q138 -128 138 -281.5t-138 -284.5q-135 -130 -372 -206q-234 -76 -514 -76zM1484 766q0 24 -56 64q-55 37 -154 66q-118 30 -250.5 30
t-249.5 -30q-100 -29 -154 -66q-58 -40 -58 -58q0 -20 44 -48q195 -58 417.5 -58t418.5 58q42 28 42 42zM1024 1382q-231 0 -438 -58q-173 -52 -278 -136q-106 -85 -106 -162q0 -52 56 -112q56 -61 156 -114q19 117 194 198q177 82 415.5 82t416.5 -82q174 -81 194 -198
q101 54 156 114q56 59 56 112q0 77 -106 162q-106 84 -280 136q-206 58 -436 58z" />
</svg>