<svg xmlns="http://www.w3.org/2000/svg" xmlns:xlink="http://www.w3.org/1999/xlink" version="1.1" viewBox="-10 0 2068 2048">
   <path fill="currentColor"
d="M1024 0q-278 0 -514 137q-235 136 -372 373q-138 236 -138 514t138 514q137 237 372 373q236 137 514 137q200 0 392 -77q188 -76 333.5 -221t220.5 -334q78 -192 78 -392q0 -278 -138 -514q-136 -236 -372 -373q-237 -137 -514 -137zM1024 1846q-221 0 -412 -111
q-189 -110 -300 -300q-110 -191 -110 -411t110 -411q112 -191 300.5 -301t411 -110t411 110t299.5 301q112 191 112 411t-112 411q-110 190 -300 300q-190 111 -410 111zM1124 812l112 111l110 -111l106 111l110 -111l-216 -216zM702 812l110 111l110 -111l-220 -216
l-216 216l110 111zM1024 1586q178 0 319 -98t205 -257h-1048q62 158 204 257q142 98 320 98z" />
</svg>