<svg xmlns="http://www.w3.org/2000/svg" xmlns:xlink="http://www.w3.org/1999/xlink" version="1.1" viewBox="-10 0 2065 2048">
   <path fill="currentColor"
d="M1739 206q0 -86 -60 -146t-142 -60h-307v206h307v269l-359 446h-360v-513h-407q-168 0 -288 120t-120 292v307h201q0 124 92 216q91 91 218 91t215 -91q89 -92 89 -216h460l461 -580v-341zM204 921v-101q0 -86 60 -146t147 -60h206v307h-413zM511 1228q-38 0 -69 -31
t-31 -70h206q0 39 -31 70t-75 31zM310 101h508v206h-508v-206zM1739 820q-124 0 -216 89q-91 88 -91 216q0 127 91 218t218 91q128 0 216 -91t88 -218q0 -128 -88 -216q-89 -89 -218 -89zM1739 1228q-39 0 -70 -31t-31 -72t31 -72t72 -31t72 31t31 72t-31 72t-74 31z
M511 1741h413v-206l613 307h-412v206z" />
</svg>