<svg xmlns="http://www.w3.org/2000/svg" xmlns:xlink="http://www.w3.org/1999/xlink" version="1.1" viewBox="-10 0 2068 2048">
   <path fill="currentColor"
d="M1142 395q170 74 258 239q86 164 54 344q92 82 148 200q54 116 54 246v18q47 -18 98 -18q123 0 208 87q86 86 86 209q0 121 -85 206t-209 85h-1272q-163 0 -276 -114q-114 -117 -114 -276q0 -158 114 -275q114 -115 276 -115h28q-97 -121 -120 -271q-22 -153 42 -294
q60 -134 177 -216.5t259 -98.5q140 -16 274 44zM1064 574q-133 -60 -265.5 -9t-188.5 179q-32 77 -30 154q3 80 40 149q83 -97 200 -154q116 -57 250 -57q98 0 196 37q-4 -98 -58 -177q-55 -79 -144 -122zM1220 216q-82 -38 -164 -51l248 -128l86 280q-74 -57 -170 -101z
M492 294q-75 52 -130 115l14 -276l290 69q-91 27 -174 92zM1656 808q-13 -89 -40 -165l234 147l-202 216q18 -92 8 -198zM192 964q9 84 38 166l-230 -147l198 -216q-14 103 -6 197zM1754 1621h-294v-197q0 -159 -116 -276q-113 -115 -274.5 -115t-275.5 115
q-114 117 -114 276h-198q-84 0 -141 57t-57 140t58 140q58 58 140 58h1272q40 0 70 -30t30 -71q0 -42 -30 -69q-31 -28 -70 -28z" />
</svg>