<svg xmlns="http://www.w3.org/2000/svg" xmlns:xlink="http://www.w3.org/1999/xlink" version="1.1" viewBox="-10 0 2068 2048">
   <path fill="currentColor"
d="M818 101q-170 0 -290 120t-120 291t120 291t291 120t291 -120t120 -291t-120 -291t-292 -120zM1586 1024q-192 0 -327 135t-135 326q0 192 135 327t327 135t327 -135t135 -327q0 -191 -135 -326t-327 -135zM818 1130q-224 0 -409.5 55t-298.5 149q-110 92 -110 204v207
h970q-48 -124 -48 -260q0 -182 96 -341q-107 -14 -200 -14zM1586 1178q130 0 218 91q90 92 90 216q0 87 -44 154l-418 -418q67 -43 154 -43zM1322 1332l418 418q-67 43 -154 43q-124 0 -216 -89q-92 -88 -92 -219q0 -86 44 -153z" />
</svg>