<svg xmlns="http://www.w3.org/2000/svg" xmlns:xlink="http://www.w3.org/1999/xlink" version="1.1" viewBox="-10 0 2058 2048">
   <path fill="currentColor"
d="M1024 0q136 0 230 94q93 93 93 230v647q0 131 -93 227q-94 97 -230 97t-230 -97t-94 -227v-647q0 -136 94 -230t230 -94zM1777 971q0 189 -83 349q-83 161 -233 265q-149 104 -331 134v329h-212v-329q-182 -30 -331 -134q-150 -104 -233 -265q-83 -160 -83 -349h212
q0 107 43 205t119 174t174 116q100 41 205 41q145 0 270 -71q123 -70 197 -195t74 -270h212z" />
</svg>