<svg xmlns="http://www.w3.org/2000/svg" xmlns:xlink="http://www.w3.org/1999/xlink" version="1.1" viewBox="-10 0 2068 2048">
   <path fill="currentColor"
d="M1946 923q0 -87 -60 -147t-146 -60h-1432q-86 0 -146 60t-60 147h-102v202h102v721h1844v-721h102v-202h-102zM1538 1332q-61 0 -116 -34q-52 -33 -76 -91q-25 -57 -12 -121q11 -60 58 -105q45 -44 104 -56q61 -12 118 12q59 25 92 75q34 53 34 113q0 87 -60 147t-142 60
zM1638 615h-1230q24 -177 200 -295q174 -118 414 -118q238 0 412 118q176 119 204 295z" />
</svg>