<svg xmlns="http://www.w3.org/2000/svg" xmlns:xlink="http://www.w3.org/1999/xlink" version="1.1" viewBox="-10 0 2068 2048">
   <path fill="currentColor"
d="M1980 244q37 0 56 28q18 28 8 60l-306 1386q-8 34 -40 60q-31 26 -64 26h-1566q-38 0 -56 -27.5t-8 -58.5l304 -1386q9 -35 41.5 -61.5t64.5 -26.5h1566zM1398 1412h-392q-33 0 -55.5 24.5t-22.5 60t22 57.5t56 22h392q32 0 57 -22.5t25 -57t-25 -59.5t-57 -25zM418 1440
q-27 21 -34 56q-8 33 14 64q20 29 56 36q36 8 64 -16l724 -510q28 -23 28 -54q0 -34 -14 -60l-478 -510q-23 -27 -59.5 -30.5t-64.5 22.5q-26 26 -26 62t22 60l406 432z" />
</svg>