<svg xmlns="http://www.w3.org/2000/svg" xmlns:xlink="http://www.w3.org/1999/xlink" version="1.1" viewBox="-10 0 2058 2048">
   <path fill="currentColor"
d="M1566 1836q0 86 -63 149t-155 63t-155 -63t-63 -152q0 -88 64 -151q64 -64 154 -64t154 64q64 63 64 154zM484 1836q0 86 -63 149t-153 63q-88 0 -150 -63q-64 -64 -64 -152q0 -87 64 -151t150 -64q88 0 152 64q64 63 64 154zM1630 0q-94 0 -176 56q-54 30 -132 131
l-974 1143q-47 57 -18 119q28 63 98 63h814q86 0 148 -63q64 -64 64 -154v-931l40 -45q41 -55 62 -71q36 -30 74 -30q61 0 104 45q44 44 44 116v51h216v-51q0 -158 -106 -268q-106 -111 -258 -111zM686 10q-309 10 -556 198l510 510l434 -510q59 -69 92 -102
q-188 -86 -394 -96h-86z" />
</svg>