<svg xmlns="http://www.w3.org/2000/svg" xmlns:xlink="http://www.w3.org/1999/xlink" version="1.1" viewBox="-10 0 2068 2048">
   <path fill="currentColor"
d="M1124 2q262 25 470 166q209 144 330 368q124 226 124 486q0 215 -88 418l-268 -158q48 -125 48 -260q0 -179 -80 -332q-78 -154 -220 -252q-144 -100 -316 -128v-308zM1024 1738q168 0 312 -70q145 -69 246 -200l268 160q-142 194 -360 306q-216 112 -466 112
q-278 0 -514 -138q-235 -135 -372 -372q-138 -237 -138 -514q0 -260 120 -486q119 -224 332 -368q210 -141 470 -166v308q-171 28 -314 128q-143 98 -222 252q-78 153 -78 332q0 197 96 360q95 163 260 260q163 96 360 96zM1024 406q167 0 310 82q141 80 222 224
q82 144 82 310q0 227 -146 398q-148 175 -368 208v-318q93 -29 150 -108q58 -81 58 -180q0 -130 -89 -219t-219 -89l-58 4l-158 -274q97 -38 216 -38zM408 1022q0 -140 60 -262q59 -121 166 -214l154 274q-72 86 -72 202q0 100 58 180q56 79 148 108v318q-218 -33 -366 -208
q-148 -172 -148 -398z" />
</svg>