<svg xmlns="http://www.w3.org/2000/svg" xmlns:xlink="http://www.w3.org/1999/xlink" version="1.1" viewBox="-10 0 2068 2048">
   <path fill="currentColor"
d="M2048 1588q0 168 -122 290q-120 120 -288 120h-408q-172 0 -292 -120t-120 -290v-206h1230v206zM202 50h1028q82 0 142 60q60 62 60 148v922h-816v510h-414q-82 0 -142 -60t-60 -142v-1230q0 -88 60 -148t142 -60zM202 358v206h206v-206h-206zM1230 564v-206h-614v206
h614zM202 766v208h206v-208h-206zM616 766v208h614v-208h-614zM202 1180v202h206v-202h-206z" />
</svg>