<svg xmlns="http://www.w3.org/2000/svg" xmlns:xlink="http://www.w3.org/1999/xlink" version="1.1" viewBox="-10 0 2068 2048">
   <path fill="currentColor"
d="M1564 272q267 0 484 146l-132 337q-150 -136 -352 -136q-218 0 -370 152t-152 370q0 217 152 369t370 152q180 0 314 -108l136 331q-207 125 -444 125q-240 0 -441 -117t-317 -318q-116 -199 -116 -434q0 -172 64 -334q65 -161 188 -283q123 -123 282 -187
q161 -65 334 -65zM348 38q146 0 246 100q102 101 102 248q0 146 -102 247q-100 100 -247 100t-247 -100t-100 -247q0 -148 100 -248t248 -100zM348 272q-50 0 -82 32q-32 33 -32 82q0 48 33 81t81 33t81 -33t33 -81q0 -49 -34 -82q-32 -32 -80 -32z" />
</svg>