<svg xmlns="http://www.w3.org/2000/svg" xmlns:xlink="http://www.w3.org/1999/xlink" version="1.1" viewBox="-10 0 2058 2048">
   <path fill="currentColor"
d="M616 1038v-1038h-208v1038q-132 32 -220 145q-86 110 -86 252q0 143 86 250q87 108 220 147v216h208v-216q133 -39 220 -147q86 -107 86 -250q0 -142 -86 -252q-88 -113 -220 -145zM510 1231q86 0 146 60t60 144t-60 144t-144 60t-144 -60t-60 -144t60 -144t142 -60z
M1638 0h-206v216q-133 39 -220 147q-88 108 -88 250q0 141 88 252q88 113 220 145v1038h206v-1038q133 -32 222 -145q86 -111 86 -252q0 -142 -86 -250q-88 -108 -222 -147v-216zM1538 409q82 0 142 60t60 144t-60 144t-144 60t-144 -60t-60 -144t60 -144t146 -60z" />
</svg>