<svg xmlns="http://www.w3.org/2000/svg" xmlns:xlink="http://www.w3.org/1999/xlink" version="1.1" viewBox="-10 0 2058 2048">
   <path fill="currentColor"
d="M1540 1123v-614h201v614h-201zM1540 1536v-206h201v206h-201zM1127 1123v-816q0 -135 -86 -221t-219 -86t-220 86q-89 87 -89 221v816q-111 87 -163 214q-54 130 -39 261q15 135 101 245t211 163q127 54 259 39q136 -15 247 -101q114 -88 166 -211q52 -124 36 -259
q-17 -133 -98 -245q-44 -63 -106 -106zM820 202q49 0 77 28q29 29 29 77v307h-207v-307q0 -48 29 -77q28 -28 72 -28z" />
</svg>