<svg xmlns="http://www.w3.org/2000/svg" xmlns:xlink="http://www.w3.org/1999/xlink" version="1.1" viewBox="-10 0 2068 2048">
   <path fill="currentColor"
d="M1580 1322q-124 0 -212 -88t-88 -212q0 -125 88 -210q89 -86 212 -86q124 0 210 86t86 210q0 123 -86 212q-85 88 -210 88zM468 1322q-125 0 -210 -88q-86 -89 -86 -212q0 -124 86 -210t210 -86q123 0 212 86q88 85 88 210q0 124 -88 212t-212 88zM1580 554
q-96 0 -182 36t-152 102t-102 152t-36 178q0 172 108 300h-384q108 -128 108 -300q0 -93 -36 -178q-36 -86 -102 -152t-152 -102q-85 -36 -182 -36q-128 0 -234 64t-170 170t-64 234q0 129 64 236q65 108 170 172q106 64 234 64h1112q92 0 178 -36t152 -102t102 -152
t36 -182q0 -128 -64 -234t-170 -170t-234 -64z" />
</svg>