<svg xmlns="http://www.w3.org/2000/svg" xmlns:xlink="http://www.w3.org/1999/xlink" version="1.1" viewBox="-10 0 2068 2048">
   <path fill="currentColor"
d="M911 1374q-115 -124 -135 -278q-47 70 -76 153q-43 140 -12 291q31 150 127 273t235 171q163 57 364 -20q174 -65 322 -196l33 -39q78 -82 101 -120q48 -77 -5 -86q-235 125 -508 84q-273 -40 -446 -233zM968 779q52 0 52 -11q0 -1 -1 -3q-7 -15 -51 -39l-38 -24
q-157 -86 -355 -86q-195 0 -345 82t-202 225q-57 155 5 350q72 303 309 516t540 252q-159 -96 -247 -266q-89 -172 -89 -358q5 -205 120 -388q121 -198 302 -250zM81 645q153 -115 355 -147q199 -31 396 27q194 57 323 197q86 95 115 216q33 136 -33 230q-81 88 9 144
q66 38 216 53q138 9 197 -5q183 -39 288 -183q96 -128 100 -309q5 -182 -86 -334q-128 -254 -393 -398q-246 -133 -547 -129q-308 -4 -566 170.5t-374 467.5z" />
</svg>