<svg xmlns="http://www.w3.org/2000/svg" xmlns:xlink="http://www.w3.org/1999/xlink" version="1.1" viewBox="-10 0 2066 2048">
   <path fill="currentColor"
d="M1531 218q133 0 182 10q36 412 -76 743q97 0 217 46q51 -169 71 -359q19 -157 15 -319q-5 -107 -20 -223l-10 -85l-106 -16q-132 -15 -273 -15q-389 0 -693 122q-423 166 -636 546q-259 476 -182 1254q243 20 348 20q360 0 647 -91q-45 -111 -45 -212q-260 86 -602 86
h-141q-36 -764 303 -1133q182 -208 485 -304q231 -70 516 -70zM1511 430q-306 0 -526 116q-192 91 -323 263q-103 144 -162 324q-47 130 -61 263l-10 116q120 -240 278 -445q133 -169 288 -308q132 -117 258 -198q100 -62 187 -101zM1511 1512h-324v213h324v323h212v-323
h323v-213h-323v-323h-212v323z" />
</svg>