<svg xmlns="http://www.w3.org/2000/svg" xmlns:xlink="http://www.w3.org/1999/xlink" version="1.1" viewBox="-10 0 2068 2048">
   <path fill="currentColor"
d="M198 219h556q-43 100 -48 202h-508v1003h602v311l312 -311h494v-278l202 203v75q0 86 -58 144q-60 59 -144 59h-410l-372 372q-32 28 -70 28h-52q-42 0 -70 -28t-28 -71v-301h-406q-80 0 -139 -59t-59 -144v-1003q0 -84 59 -143t139 -59zM1356 21q188 0 320 132
q132 131 132 320q0 133 -70 240l310 311l-142 141l-310 -310q-107 70 -240 70q-188 0 -320 -132t-132 -320t132 -320t320 -132zM1356 219q-104 0 -178 75q-76 76 -76 179t76 177q74 73 178 73t177 -73t73 -177q0 -105 -74 -179q-73 -75 -176 -75z" />
</svg>