<svg xmlns="http://www.w3.org/2000/svg" xmlns:xlink="http://www.w3.org/1999/xlink" version="1.1" viewBox="-10 0 2068 2048">
   <path fill="currentColor"
d="M0 280l126 -126l1728 1730l-126 124l-198 -194h-1256q-80 0 -138 -58q-56 -56 -56 -140v-1184q0 -26 8 -60zM568 234l200 -194h592l198 194h296q78 0 136 58t58 140v1184q0 87 -66 148l-494 -496q70 -110 70 -244t-68 -248q-66 -111 -180 -180q-111 -66 -246 -66
q-134 0 -246 68l-364 -364h114zM568 1024q0 134 68 248q65 110 180 180q112 66 248 66q77 0 148 -22l-176 -176q-106 -9 -182 -86q-78 -77 -86 -182l-176 -176q-24 73 -24 148zM1064 728q124 0 210 86t86 210q0 47 -20 96l-374 -374q47 -18 98 -18z" />
</svg>