<svg xmlns="http://www.w3.org/2000/svg" xmlns:xlink="http://www.w3.org/1999/xlink" version="1.1" viewBox="-10 0 2068 2048">
   <path fill="currentColor"
d="M302 19v198h-170q-56 0 -94 40q-38 41 -38 97v1543q0 56 38 94t94 38h938q56 0 98 -38q40 -37 40 -94v-1543q0 -57 -40 -97t-98 -40h-164v-198h-604zM604 420q166 0 284 118q116 117 116 283q0 133 -94 227l-88 94q-48 47 -72 80q-29 47 -38 104h-208q20 -137 114 -236
l128 -127q56 -57 56 -140q0 -82 -59 -141t-141 -59t-141 59t-59 139h-204q0 -165 118 -283t288 -118zM1708 623v382l-232 -231l-70 71l282 278l-282 283l70 71l232 -231v382h52l288 -288l-218 -217l218 -217l-288 -283h-52zM1812 812l94 94l-94 99v-193zM1812 1246l94 94
l-94 95v-189zM500 1529h204v198h-204v-198z" />
</svg>