<svg xmlns="http://www.w3.org/2000/svg" xmlns:xlink="http://www.w3.org/1999/xlink" version="1.1" viewBox="-10 0 2068 2048">
   <path fill="currentColor"
d="M1024 899q134 0 230 96t96 233t-96 233q-96 97 -230 97t-232 -97q-96 -96 -96 -233t96 -233t232 -96zM1432 135v-135q165 0 310 82q143 82 224 223q82 144 82 310h-136q0 -128 -64 -240q-66 -112 -176 -176t-240 -64zM1432 409v-135q144 0 243 99t99 242h-136
q0 -86 -60 -146t-146 -60zM1538 716h510v1130q0 82 -60 142t-142 60h-1644q-82 0 -142 -60t-60 -142v-1231q0 -86 60 -146t142 -60h326l188 -207h616v308q86 0 146 60t60 146zM1024 1740q140 0 256 -67q121 -70 188 -185q70 -119 70 -257q0 -139 -70 -258
q-67 -116 -188 -187q-118 -70 -256.5 -70t-257.5 70q-118 70 -186 187q-70 120 -70 258q0 100 40 194q41 94 114 166q71 71 166 111q90 38 194 38z" />
</svg>