<svg xmlns="http://www.w3.org/2000/svg" xmlns:xlink="http://www.w3.org/1999/xlink" version="1.1" viewBox="-10 0 2068 2048">
   <path fill="currentColor"
d="M1538 2048v-202h308v-308h202v356q0 62 -46 108t-108 46h-356zM510 2048h-356q-62 0 -108 -46q-46 -45 -46 -108v-356h202v308h308v202zM1538 0h356q62 0 108 46t46 108v356h-202v-308h-308v-202zM510 0v202h-308v308h-202v-356q0 -63 46 -108q46 -46 108 -46h356z
M870 409q192 0 326 134q136 135 136 327q0 134 -72 245l336 337l-144 144l-338 -336q-110 72 -244 72q-192 0 -327 -135t-135 -327t136 -327q134 -134 326 -134zM870 615q-106 0 -180 75q-74 74 -74 180t74 180q74 75 180 75t180 -75q74 -74 74 -180t-74 -180
q-74 -75 -180 -75z" />
</svg>