<svg xmlns="http://www.w3.org/2000/svg" xmlns:xlink="http://www.w3.org/1999/xlink" version="1.1" viewBox="-10 0 2068 2048">
   <path fill="currentColor"
d="M1412 1296l238 141l-72 124l-312 -179v-361h146v275zM1756 756v-512q0 -82 -57 -139t-139 -57h-1368q-76 0 -134 57q-58 58 -58 139v1170q0 77 58 135q58 57 134 57h558q83 178 248 286q164 108 364 108q187 0 346 -92q157 -92 248 -249q92 -157 92 -345q0 -170 -80 -316
q-77 -144 -212 -242zM1560 436v224q-101 -27 -198 -27q-214 0 -388 123v-320h586zM192 436h586v393h-586v-393zM192 1414v-393h558q-68 141 -68 293q0 44 8 100h-498zM1362 1803q-131 0 -244 -66q-110 -65 -176 -179q-64 -112 -64 -244q0 -133 64 -245q65 -112 176 -176
q112 -64 244 -64q134 0 246 64q112 65 178 176q66 112 66 245q0 132 -66 244q-67 114 -178 179q-113 66 -246 66z" />
</svg>