<svg xmlns="http://www.w3.org/2000/svg" xmlns:xlink="http://www.w3.org/1999/xlink" version="1.1" viewBox="-10 0 2058 2048">
   <path fill="currentColor"
d="M1572 1442l-472 -471l-870 -870l-128 130l326 327q-20 75 -20 158q0 183 112 438q93 202 244 432q123 173 250 332l110 130l106 -125q135 -165 240 -317l346 341l130 -130zM1124 461q106 0 181 75t75 183t-82 185l370 375q172 -332 172 -563q0 -196 -96 -360
q-96 -165 -258 -260q-164 -96 -362 -96q-145 0 -282 58q-135 57 -236 158l332 327q77 -82 186 -82z" />
</svg>