<svg xmlns="http://www.w3.org/2000/svg" xmlns:xlink="http://www.w3.org/1999/xlink" version="1.1" viewBox="-10 0 2068 2048">
   <path fill="currentColor"
d="M676 1454q-125 0 -234 114l-12 12q-26 26 -46 38q-18 10 -51.5 10t-52.5 -10q-21 -13 -46 -38l-12 -12q-72 -76 -150 -100v192l30 28q108 108 231 108t231 -108l12 -16q28 -28 46 -36q19 -8 52 -8t52 8q18 8 46 36l12 16q95 92 190 104q14 4 44 4q121 0 234 -108l12 -16
q28 -28 46 -36q19 -8 52 -8t52 8q18 8 46 36l12 16q108 108 231 108t231 -108l30 -28v-192q-78 24 -150 100l-12 12q-25 25 -46 38q-19 10 -52.5 10t-51.5 -10q-20 -12 -46 -38l-12 -12q-109 -114 -232 -114t-232 114l-16 12q-27 27 -44 38q-17 10 -52 10q-21 0 -44 -8
q-20 -8 -60 -48l-8 -4q-109 -114 -230 -114zM1874 812q5 5 21 23.5t23 28.5q57 69 86 120q44 78 44 128q0 70 -50 120t-121 50t-121 -50t-50 -122q0 -69 84 -190q44 -60 84 -108zM1918 522l-280 -162l-556 322q-23 -39 -64 -62q-41 -22 -84 -22h-174v-174h86q36 0 62 -26
t26 -60t-26 -60q-28 -26 -62 -26h-342q-36 0 -62 26q-24 26 -24 60.5t24 59.5q25 26 62 26h84v174h-170q-70 0 -121 51t-51 117v258q0 72 50 124q50 50 122 50h772q45 0 86 -24q39 -24 64 -66l314 -542l180 104q31 16 64 8q33 -7 52 -40q17 -31 10 -66q-7 -33 -42 -50z
M1190 1024h-772v-258h572l80 126l298 -174zM290 506l-148 144q-25 20 -58 20q-36 0 -60 -24t-24 -58t20 -58l150 -150q24 -24 58 -24t60 26t26 62q0 33 -24 62z" />
</svg>