<svg xmlns="http://www.w3.org/2000/svg" xmlns:xlink="http://www.w3.org/1999/xlink" version="1.1" viewBox="-10 0 2068 2048">
   <path fill="currentColor"
d="M1620 1536h-1108q-140 0 -240 -100t-100 -242t100 -242t240 -100t240 100t100 244h172q0 -176 -106 -312t-270 -184q67 -88 166 -138q98 -50 210 -50q129 0 236 64q109 65 170 172q62 109 62 232v44h128q108 0 182 74t74 182t-74 182t-182 74zM1652 856
q-43 -218 -220 -368q-175 -148 -408 -148q-181 0 -332 94q-153 95 -236 254q-124 12 -230 82q-107 71 -166 182q-60 112 -60 244q0 135 68 254q67 117 186 188q118 70 258 70h1108q117 0 214 -58q98 -58 156 -156q58 -97 58 -214q0 -168 -114 -290q-115 -122 -282 -134z" />
</svg>