<svg xmlns="http://www.w3.org/2000/svg" xmlns:xlink="http://www.w3.org/1999/xlink" version="1.1" viewBox="-10 0 2068 2048">
   <path fill="currentColor"
d="M1024 0q-200 0 -392 77q-188 76 -333.5 221t-220.5 334q-78 192 -78 392t78 392q75 189 220.5 334t333.5 221q192 77 392 77t392 -77q188 -76 333.5 -221t220.5 -334q78 -192 78 -392t-78 -392q-75 -189 -220.5 -334t-333.5 -221q-192 -77 -392 -77zM1024 1846
q-221 0 -412 -111q-189 -110 -300 -300q-110 -191 -110 -411t110 -411q112 -191 300.5 -301t411 -110t411 110t299.5 301q112 191 112 411t-112 411q-110 190 -300 300q-190 111 -410 111zM1432 1332v-207h-816v207l-308 -308l308 -308v207h816v-207l308 308z" />
</svg>