<svg xmlns="http://www.w3.org/2000/svg" xmlns:xlink="http://www.w3.org/1999/xlink" version="1.1" viewBox="-10 0 2058 2048">
   <path fill="currentColor"
d="M1074 1367q0 82 -57 139t-139 57t-139 -57t-57 -139q0 -83 57 -140t139 -57t139 57t57 140zM984 1856q18 102 72 192h-762q-84 0 -141 -57t-57 -135v-978q0 -78 57 -135t141 -57h96v-197q0 -131 66 -244q66 -114 178 -179q112 -66 244 -66t244 66q112 65 178 179
q68 114 68 244v197h96q82 0 139 57t57 135v301q-61 -9 -98.5 -9t-97.5 9v-301h-1170v978h690zM586 686h584v-197q0 -124 -84 -208t-208 -84t-208 84q-84 85 -84 208v197zM1170 1659v197h782v-197h-782z" />
</svg>