<svg xmlns="http://www.w3.org/2000/svg" xmlns:xlink="http://www.w3.org/1999/xlink" version="1.1" viewBox="-10 0 2058 2048">
   <path fill="currentColor"
d="M923 0q-26 0 -48 10l-206 101q-48 29 -56 74q-7 45 24 84q32 39 80 39q16 0 48 -10l201 -106q49 -24 56 -72q7 -47 -22 -84q-28 -36 -77 -36zM1332 202q-24 0 -48 9l-615 308q-48 29 -56 77q-7 48 24 84t80 36q19 0 48 -9l615 -308q42 -23 50 -72q8 -48 -21 -87
q-28 -38 -77 -38zM1332 615q-21 0 -48 10l-596 298q-72 33 -72 101v207h-106v307q0 44 31 72q32 29 75 29h817q43 0 74 -31t31 -70v-307h-105v-106q0 -43 -29 -72t-72 -29q-44 0 -72 31q-29 32 -29 70v106h-413v-145l562 -278q44 -24 53 -72q9 -49 -22 -85t-79 -36z
M717 1846v101q0 44 31 72q32 29 70 29h413q43 0 72 -29t29 -72v-101h-615z" />
</svg>