<svg xmlns="http://www.w3.org/2000/svg" xmlns:xlink="http://www.w3.org/1999/xlink" version="1.1" viewBox="-10 0 2068 2048">
   <path fill="currentColor"
d="M1024 0q-80 0 -144 58l-822 822q-58 57 -58 144t58 144l822 822q58 58 144 58t144 -58l822 -822q58 -58 58 -144t-58 -144l-822 -822q-65 -58 -144 -58zM1024 639q100 0 172 65q72 64 72 152q0 55 -26 98q-28 48 -70 75q53 33 84 81q32 47 32 111q0 92 -76 156
q-78 65 -188 65t-187 -65t-77 -156q0 -64 30 -111q32 -48 84 -81q-96 -63 -96 -173q0 -88 72 -152q73 -65 174 -65zM1024 769q-38 0 -66 29q-26 27 -26 72t26 72q28 29 65.5 29t64.5 -29q26 -27 26 -72t-26 -72q-27 -29 -64 -29zM1024 1091q-47 0 -80 34q-30 32 -30 79
q0 48 30 80q32 33 79.5 33t78.5 -33q32 -34 32 -80q0 -45 -32 -79t-78 -34z" />
</svg>