<svg xmlns="http://www.w3.org/2000/svg" xmlns:xlink="http://www.w3.org/1999/xlink" version="1.1" viewBox="-10 0 2068 2048">
   <path fill="currentColor"
d="M1846 1184v-134q0 -78 -48 -134l-404 -486q-64 -72 -158 -72h-1034q-82 0 -142 60t-60 146v718q0 86 60 146t142 60h4q20 87 90 144q68 58 164 58q94 0 162 -58q70 -57 90 -144h830q16 88 88 145t162 57q106 0 180 -74q76 -76 76 -182q0 -89 -58 -162q-58 -72 -144 -88z
M154 564q0 -22 15 -37t33 -15h308v462h-356v-410zM462 1536q-45 0 -75.5 -28.5t-30.5 -73.5q0 -43 30.5 -71.5t73.5 -28.5q41 0 71.5 28.5t30.5 71.5q0 45 -30.5 73.5t-69.5 28.5zM1124 1334h-408v-154h206v-206h-206v-462h408v822zM1332 598l312 376h-312v-376zM1792 1536
q-44 0 -72 -28q-28 -30 -28 -74q0 -42 28 -72q28 -28 72 -28t72 28q30 30 30 72q0 44 -30 74q-28 28 -72 28z" />
</svg>