<svg xmlns="http://www.w3.org/2000/svg" xmlns:xlink="http://www.w3.org/1999/xlink" version="1.1" viewBox="-10 0 2058 2048">
   <path fill="currentColor"
d="M1846 2048l-399 -159q108 -238 159 -480zM601 1889l-399 159l241 -639q51 246 158 480zM1024 0q27 14 53 24q64 41 130 101q82 78 149 183q82 131 129 293q53 194 53 423q0 412 -173 803q-25 59 -74 89q-50 31 -113 31h-308q-63 0 -113 -31q-49 -30 -74 -89
q-173 -391 -173 -803q0 -366 135 -630q96 -191 245 -312q75 -62 134 -82zM1024 1024q87 0 147 -60t60 -144q0 -85 -60 -145t-147 -60q-86 0 -146 60t-60 145q0 84 60 144t146 60z" />
</svg>