<svg xmlns="http://www.w3.org/2000/svg" xmlns:xlink="http://www.w3.org/1999/xlink" version="1.1" viewBox="-10 0 2068 2048">
   <path fill="currentColor"
d="M1024 0q-200 0 -392 77q-188 76 -333.5 221t-220.5 334q-78 192 -78 392t78 392q75 189 220.5 334t333.5 221q192 77 392 77t392 -77q188 -76 333.5 -221t220.5 -334q78 -192 78 -392t-78 -392q-75 -189 -220.5 -334t-333.5 -221q-192 -77 -392 -77zM510 769
q0 -63 48 -108q49 -46 108 -46q60 0 106 46t46 106q0 59 -46 108q-46 48 -106 48t-108 -48t-48 -106zM1024 1562q-132 0 -246 -50q-116 -52 -182 -137l144 -144q34 53 110 89q77 36 173.5 36t172.5 -36q79 -37 112 -89l144 144q-67 85 -184 137q-113 50 -244 50zM1384 923
q-64 0 -109 -48t-45 -108q0 -61 46 -106q46 -46 106 -46q58 0 108 46q48 45 48 106q0 60 -48 108t-106 48z" />
</svg>