<svg xmlns="http://www.w3.org/2000/svg" xmlns:xlink="http://www.w3.org/1999/xlink" version="1.1" viewBox="-10 0 2068 2048">
   <path fill="currentColor"
d="M716 1231h514v173l-24 29h-490v-202zM716 1024h514v-207h-514v207zM716 615h514v-206h-514v206zM510 308q0 -48 29 -77t77 -29h816v1005q81 -52 206 -72v-827q0 -48 29 -77t75 -29t75 29t29 77v101h202v-101q0 -135 -88 -222q-86 -86 -220 -86h-1124q-136 0 -222 86
q-86 87 -86 222v1125h202v-1125zM1124 1740v-57v-44h-1124v101q0 135 86 221q88 87 222 87h898q-82 -146 -82 -308zM1538 1433v615l510 -308z" />
</svg>