<svg xmlns="http://www.w3.org/2000/svg" xmlns:xlink="http://www.w3.org/1999/xlink" version="1.1" viewBox="-10 0 2068 2048">
   <path fill="currentColor"
d="M1304 279q200 0 372 100q170 100 272 273q100 172 100 372q0 201 -100 373q-101 172 -272 272q-172 100 -372 100q-202 0 -374 -100q-171 -100 -272 -272q-100 -172 -100 -373q0 -200 100 -372q102 -173 272 -273q172 -100 374 -100zM1304 1582q151 0 280 -74
q128 -73 202 -203t74 -281t-74 -281q-73 -129 -202 -202q-129 -74 -280.5 -74t-281.5 74t-202 202q-74 130 -74 281t74 281q73 129 202 203q130 74 282 74zM188 1024q0 180 104 323q105 143 266 205v191q-241 -62 -398 -261q-160 -201 -160 -458q0 -256 160 -457
q158 -200 398 -262v192q-161 62 -266 205q-104 143 -104 322z" />
</svg>