<svg xmlns="http://www.w3.org/2000/svg" xmlns:xlink="http://www.w3.org/1999/xlink" version="1.1" viewBox="-10 0 2058 2048">
   <path fill="currentColor"
d="M1740 1332q0 196 -96 360q-97 165 -259 260q-163 96 -361 96q-196 0 -360 -96t-260 -260t-96 -360q0 -211 113 -387q112 -174 296 -262v-375q0 -44 31 -75t70 -31h52l-101 -202h510l-101 202h53q38 0 69 31q32 32 32 75v375q183 87 295 262q113 176 113 387zM923 409v418
q-179 39 -295 180q-118 144 -118 325l10 91l197 -202l418 418l394 -394q-24 -159 -137 -272t-267 -146v-418h-202zM1135 1024q44 0 72 31q29 32 29 72t-29 72t-72 32t-75 -32q-31 -31 -31 -74q0 -44 31 -72q32 -29 75 -29z" />
</svg>