<svg xmlns="http://www.w3.org/2000/svg" xmlns:xlink="http://www.w3.org/1999/xlink" version="1.1" viewBox="-10 0 2058 2048">
   <path fill="currentColor"
d="M1210 2048q-80 0 -134 -54q-54 -55 -54 -133v-837q0 -78 54 -133q54 -54 134 -54h370l374 375v649q0 79 -54 133t-134 54h-556zM1210 1861h556v-575l-260 -262h-296v837zM1580 188q78 0 132 54t54 133v388l-108 -109h-78v-279h-184v183h-932v-183h-182v1299h558v187h-558
q-80 0 -134 -54t-54 -133v-1299q0 -79 54 -133t134 -54h388q30 -82 102 -135t158.5 -53t159.5 53q72 53 102 135h388zM930 188q-39 0 -64 28q-26 29 -26 65q0 37 26 66q25 28 64.5 28t65.5 -28q26 -29 26 -66q0 -36 -26 -65q-26 -28 -66 -28z" />
</svg>