<svg xmlns="http://www.w3.org/2000/svg" xmlns:xlink="http://www.w3.org/1999/xlink" version="1.1" viewBox="-10 0 2068 2048">
   <path fill="currentColor"
d="M1860 978q-56 0 -112 -34q-45 -29 -106 -83q-95 -81 -148 -109q-92 -53 -188 -53q-95 0 -164 31q-53 23 -82 61q-22 29 -32 65l-4 31l-4 -31q-9 -36 -30 -65q-30 -38 -84 -61q-68 -31 -162 -31q-97 0 -190 53q-52 28 -148 109q-60 54 -104 83q-57 34 -114 34
q-58 0 -126 -48q-48 -31 -62 -43l22 70q30 86 74 161q60 98 140 161q107 70 230 70q203 0 354 -70q99 -52 166 -135q29 -43 38 -74l22 43q31 53 82 96q69 61 170 96q123 44 286 44t286 -118q81 -86 138 -226q26 -67 40 -118l-30 22q-33 28 -66 43q-53 26 -92 26z" />
</svg>