<svg xmlns="http://www.w3.org/2000/svg" xmlns:xlink="http://www.w3.org/1999/xlink" version="1.1" viewBox="-10 0 2068 2048">
   <path fill="currentColor"
d="M587 1416h-261q-106 0 -188 -74q-82 -75 -94 -175l-41 -262q-16 -114 56 -194q72 -79 181 -79h523q113 0 179 81q19 23 25 45q57 -12 114 0q7 -22 25 -45q66 -81 179 -81h523q110 0 181.5 79t54.5 190l-40 270q-11 101 -95.5 173t-186.5 72h-261q-100 0 -190 -70
q-87 -68 -112 -167l-78 -237q-23 -16 -56.5 -16t-57.5 16l-78 245q-23 94 -112 161q-89 68 -190 68z" />
</svg>