<svg xmlns="http://www.w3.org/2000/svg" xmlns:xlink="http://www.w3.org/1999/xlink" version="1.1" viewBox="-10 0 2068 2048">
   <path fill="currentColor"
d="M1026 512q73 0 158 6q191 8 355 32q216 33 351 92q158 72 158 178v168q0 168 -24 164q-25 -117 -187 -194q-122 -59 -341 -100q-158 -25 -326 -34l-144 -4l-144 4q-171 9 -327 34q-218 41 -340 100q-160 77 -188 194q-24 4 -24 -164q-5 -82 0 -168q0 -140 264 -216
q192 -59 495 -82q148 -10 264 -10zM1026 920q231 0 408 24q150 20 259 58q93 30 149 68q40 26 67 58l14 24q-57 161 -110 234q-62 86 -168 118q-107 32 -312 32q-130 0 -187 -40q-35 -20 -58 -66q-17 -27 -26 -36q-12 -12 -36 -12t-36 12t-27 36q-24 47 -57 66
q-57 40 -187 40q-206 0 -312 -32q-107 -32 -168 -118q-56 -76 -111 -234l15 -24q26 -32 67 -58q55 -38 149 -68q109 -38 259 -58q177 -24 408 -24z" />
</svg>