<svg xmlns="http://www.w3.org/2000/svg" xmlns:xlink="http://www.w3.org/1999/xlink" version="1.1" viewBox="-10 0 2068 2048">
   <path fill="currentColor"
d="M1906 0l-1906 1907l136 141l530 -524q249 227 564 348q317 121 656 121q46 0 76 -30t30 -76v-378q0 -46 -30 -76t-76 -30q-198 0 -382 -61q-66 -19 -112 26l-236 237q-186 -94 -338 -237l1230 -1231zM162 56q-46 0 -76 30t-30 76q0 289 88 562q89 273 260 507l152 -151
q-59 -83 -112 -187l238 -237q44 -45 24 -111q-60 -181 -60 -383q0 -45 -30 -76q-30 -30 -76 -30h-378z" />
</svg>