<svg xmlns="http://www.w3.org/2000/svg" xmlns:xlink="http://www.w3.org/1999/xlink" version="1.1" viewBox="-10 0 2058 2048">
   <path fill="currentColor"
d="M1910 1441q-219 0 -399 -67h-36q-42 0 -73 31l-244 244q-236 -123 -427 -314q-189 -189 -303 -417l243 -244q27 -22 31 -52q5 -32 -10 -57q-57 -203 -57 -399q0 -41 -34 -75t-75 -34h-389q-41 0 -75 34q-33 33 -33 75q0 513 254 949q249 431 678 679q436 254 949 254
q41 0 75 -34t34 -75v-389q0 -41 -34 -75t-75 -34zM252 280h165q11 121 52 285l-129 135q-73 -228 -88 -420zM1796 1825q-192 -15 -420 -88l135 -130q175 42 285 42v176zM2019 389v555h-166v-389h-622l269 269l-119 120l-466 -472l466 -472l119 119l-269 270h788z" />
</svg>