<svg xmlns="http://www.w3.org/2000/svg" xmlns:xlink="http://www.w3.org/1999/xlink" version="1.1" viewBox="-10 0 2063 2048">
   <path fill="currentColor"
d="M1046 410l-77 -78q99 -99 225 -152t259 -53q134 0 260 53t225 152l-77 78q-87 -82 -194 -123q-108 -41 -216 -41t-214 41q-103 40 -191 123zM1938 1292q0 -81 -57 -138t-139 -57h-191v-387h-195v273l582 583v-274zM1697 564l77 -77q-70 -65 -150 -100q-85 -37 -171 -37
t-172 37q-84 36 -148 100l77 77q95 -95 241 -95q147 0 246 95zM2043 1925l-123 123l-169 -173h-1364q-82 0 -139 -57t-57 -139v-387q0 -81 57 -138t139 -57h591l-973 -970l127 -127zM678 1388h-196v196h196v-196zM1014 1388h-191v196h191v-196zM1356 1479l-87 -91h-109v196
h196v-105z" />
</svg>