<svg xmlns="http://www.w3.org/2000/svg" xmlns:xlink="http://www.w3.org/1999/xlink" version="1.1" viewBox="-10 0 2058 2048">
   <path fill="currentColor"
d="M536 1851h196v197h-196v-197zM928 1851h192v197h-192v-197zM1316 1851h198v197h-198v-197zM1024 0q212 0 390 52q180 52 286 142q106 88 106 196t-106 197q-106 90 -286 142q-178 52 -390 52t-390 -52q-180 -52 -286 -142q-106 -89 -106 -197t106 -196q106 -90 286 -142
q178 -52 390 -52zM242 585q0 105 106 194q106 90 286 142q178 52 390 52t390 -52q180 -52 286 -142q106 -89 106 -194v292q0 107 -106 195q-104 88 -285.5 141t-390.5 53t-390.5 -53t-285.5 -141q-106 -88 -106 -195v-292zM242 1074q0 105 106 194q106 90 286 142
q178 52 390 52t390 -52q180 -52 286 -142q106 -89 106 -194v292q0 81 -72 160q-69 77 -194 133h-1032q-125 -56 -194 -133q-72 -79 -72 -160v-292z" />
</svg>