<svg xmlns="http://www.w3.org/2000/svg" xmlns:xlink="http://www.w3.org/1999/xlink" version="1.1" viewBox="-10 0 2058 2048">
   <path fill="currentColor"
d="M830 686h192v585h-192v-585zM1022 1847q-50 9 -96 9q-187 0 -342 -91t-248 -250q-90 -157 -90 -342q0 -186 90 -343q92 -158 248 -249q156 -92 342 -92q201 0 368 110q167 109 250 288l64 -9q72 0 154 27q-51 -157 -150 -279l136 -141q-72 -82 -136 -138l-138 142
q-113 -91 -256 -144q-139 -52 -292 -52q-238 0 -438 118q-202 119 -320 320q-120 202 -120 439q0 236 120 441q117 202 320 320q200 117 438 117q51 0 120 -9q-24 -61 -24 -114v-78zM1218 0h-584v197h584v-197zM2000 1591v343q0 46 -38 80q-39 34 -90 34h-534q-46 0 -83 -37
t-37 -86v-343q0 -46 38 -83q36 -36 82 -36v-146q0 -102 82 -172q83 -71 188 -71q104 0 188 71q86 71 86 172v146q46 0 82 39t36 89zM1754 1317q0 -55 -42 -90q-39 -34 -102 -34t-106 34q-44 35 -44 90v146h294v-146z" />
</svg>