<svg xmlns="http://www.w3.org/2000/svg" xmlns:xlink="http://www.w3.org/1999/xlink" version="1.1" viewBox="-10 0 2058 2048">
   <path fill="currentColor"
d="M1328 706l-211 -210l-210 210l-145 -140l215 -210l-210 -216l140 -140l210 215l211 -215l145 140l-215 216l210 210zM617 1651q85 0 143 58t58 140q0 83 -58 141t-140 58q-83 0 -141 -58t-58 -141q0 -82 58 -140t138 -58zM1617 1651q80 0 138 58q59 59 59 140
q0 82 -59 141q-58 58 -140 58t-140 -58t-58 -141q0 -82 58 -140t142 -58zM636 1328q0 9 7 16t16 7h1155v202h-1197q-79 0 -138 -59q-58 -58 -58 -143q0 -53 23 -93l136 -248l-360 -757h-201v-197h327l426 898h701l383 -701l173 98l-383 697q-23 45 -71 74q-46 28 -102 28
h-743l-89 164z" />
</svg>