<svg xmlns="http://www.w3.org/2000/svg" xmlns:xlink="http://www.w3.org/1999/xlink" version="1.1" viewBox="-10 0 2068 2048">
   <path fill="currentColor"
d="M1818 1136v-224h230v224h-230zM2048 683v-230h-230v230h230zM2048 0h-230v229h230v-229zM1594 1365h224v-229h-224v229zM2048 1595v-230h-230v230h230zM1136 1595v-230h230v-229h-230v-224h230v-229h-230v-230h230v-224h-230v-229h-1136v2048h1136v-229h230v-224h-230z
M1366 2048h228v-229h-228v229zM1594 0h-228v229h228v-229zM1594 912h224v-229h-224v229zM1366 1595h228v-230h-228v230zM1594 1819h224v-224h-224v224zM2048 2048v-229h-230v229h230zM1366 683h228v-230h-228v230zM1366 1136h228v-224h-228v224zM1594 229v224h224v-224h-224
z" />
</svg>