<svg xmlns="http://www.w3.org/2000/svg" xmlns:xlink="http://www.w3.org/1999/xlink" version="1.1" viewBox="-10 0 2058 2048">
   <path fill="currentColor"
d="M1303 1861h187v-187h-187v187zM1673 745h187v-187h-187v187zM188 375v1299q0 79 54 133t133 54h370v-187h-370v-1299h370v-187h-370q-79 0 -133 54t-54 133zM1673 188v187h187q0 -79 -54 -133t-133 -54zM933 2048h182v-2048h-182v2048zM1673 1491h187v-188h-187v188z
M1303 375h187v-187h-187v187zM1673 1116h187v-183h-187v183zM1673 1861q79 0 133 -54t54 -133h-187v187z" />
</svg>