<svg xmlns="http://www.w3.org/2000/svg" xmlns:xlink="http://www.w3.org/1999/xlink" version="1.1" viewBox="-10 0 2068 2048">
   <path fill="currentColor"
d="M1388 957q180 0 304 125q126 126 126 306q0 126 -66 229l296 296l-136 135l-296 -296q-102 67 -228 67q-180 0 -306 -126t-126 -305q0 -180 126 -306q126 -125 306 -125zM1388 1150q-100 0 -168 69q-70 70 -70 169q0 98 70 168t168 70t168 -70t70 -168q0 -99 -70 -169
q-70 -69 -168 -69zM1532 382v400q-81 -22 -194 -18v-189h-288v216l54 44q-178 89 -268 270q-72 -59 -72 -148q0 -55 27 -97t71 -69v-216q0 -81 56 -137t132 -56h482zM382 1532v-1150h382v193h-188v763h188q-5 108 18 194h-400zM1724 189h-1534v1536h672q81 120 194 188h-866
q-78 0 -134 -56t-56 -132v-1536q0 -77 56 -133t134 -56h1534q76 0 132 56t56 133v866q-72 -117 -188 -193v-673z" />
</svg>