<svg xmlns="http://www.w3.org/2000/svg" xmlns:xlink="http://www.w3.org/1999/xlink" version="1.1" viewBox="-10 0 2068 2048">
   <path fill="currentColor"
d="M2028 654q-38 -104 -135 -143q-79 -35 -172 -11t-167 98q3 -7 26 -83q18 -93 2 -185q-14 -88 -59 -150q-61 -91 -165 -106q-105 -15 -200 65q-95 81 -139 215q-48 -139 -145 -217q-98 -79 -200 -61t-163 104l-5 9l139 135q10 -26 18 -35q18 -30 35 -30q39 -5 89 50
q49 53 67 145q9 42 4 83l153 156l8 -8l13 30l126 122q25 11 50 17q22 5 37 5q99 0 191 -83q-65 153 -13 283q35 104 131 148q46 17 100 17q95 0 191 -65q93 -62 152 -179q40 -83 48.5 -167t-17.5 -159zM1393 476q-18 94 -65 146q-48 54 -87 50q-20 -4 -39 -31
q-16 -23 -26 -76q-9 -51 4 -111q18 -87 63 -141t85 -54h9q17 0 36 30q22 33 27 83q6 53 -7 104zM1832 898q-38 73 -102 115q-63 42 -102 24q-22 -10 -32.5 -44t-6.5 -82q5 -47 26 -96q34 -61 87 -100t95 -39h22q23 15 33 44q10 27 8 78q-1 45 -28 100zM15 167l339 344
q-108 -44 -204 -2t-130 145q-26 77 -18 159q9 84 48 167q59 117 152 179q97 65 191 65q55 0 100 -17q97 -44 131 -148q44 -126 -5 -266q16 13 57 35l139 139q-33 33 -96 122q-73 105 -117 144q-17 17 -100 91q-83 62 -117 100q-56 61 -61 122q-9 80 32 156q43 79 111 113
q46 22 100 22q71 0 218 -52q84 -27 117 -35q59 -17 111 -17q55 0 115 17q37 8 113 35q149 48 217 48q57 0 105 -18q33 -20 56 -43l226 226l117 -118l-1829 -1830zM945 1098l544 543l-5 5q-8 4 -26 4q-35 0 -152 -39l-9 -4q-94 -33 -134 -40q-78 -21 -148 -21q-69 0 -152 21
q-40 11 -135 44l-17 4q-109 35 -144 35q-13 0 -17 -4q-17 -9 -31 -33q-11 -21 -10 -43q2 -21 84 -90l22 -13q87 -65 122 -104q45 -45 130 -161v-4q38 -55 78 -100zM428 815q27 50 31 96q5 45 -7 82q-10 34 -33 44q-39 18 -102 -24t-102 -115q-26 -55 -28 -100q-1 -48 9 -78
q11 -30 32 -44l26 -4q40 0 92 39q52 38 82 104z" />
</svg>