<svg xmlns="http://www.w3.org/2000/svg" xmlns:xlink="http://www.w3.org/1999/xlink" version="1.1" viewBox="-10 0 2058 2048">
   <path fill="currentColor"
d="M717 1125q0 131 88 219q89 89 219 89t219 -89t89 -217q0 -126 -89 -218t-219 -92t-219 92q-88 91 -88 216zM1846 1803v-1188l-615 -615h-822q-86 0 -146 60q-61 61 -61 142v1644q0 81 61 142q60 60 146 60h1230q67 0 120 -39l-451 -456q-128 86 -284 86q-103 0 -194 -38
q-95 -40 -166 -111q-72 -72 -113 -166t-41 -197t41 -197t113 -166q70 -70 166 -110q93 -39 194 -39q139 0 257 68q121 70 188 185q69 118 69 257q0 155 -86 284z" />
</svg>