<svg xmlns="http://www.w3.org/2000/svg" xmlns:xlink="http://www.w3.org/1999/xlink" version="1.1" viewBox="-10 0 2068 2048">
   <path fill="currentColor"
d="M716 1000q-52 0 -92 36q-38 35 -38 89q0 53 38 91q40 39 92 39t92 -39q38 -38 38 -91q0 -54 -38 -89q-40 -36 -92 -36zM1332 1000q-54 0 -92 36q-38 35 -38 89q0 53 38 91q38 39 92 39q52 0 90 -39q38 -38 38 -91q0 -54 -38 -89q-38 -36 -90 -36zM1024 0q-200 0 -392 77
q-188 76 -333.5 221t-220.5 334q-78 192 -78 392t78 392q75 189 220.5 334t333.5 221q192 77 392 77t392 -77q188 -76 333.5 -221t220.5 -334q78 -192 78 -392t-78 -392q-75 -189 -220.5 -334t-333.5 -221q-192 -77 -392 -77zM1024 1846q-221 0 -412 -111
q-189 -110 -300 -300q-110 -191 -110 -411q0 -55 4 -87q181 -80 322 -226q141 -145 216 -326q138 200 362 317q219 115 476 115q114 0 230 -24q34 119 34 231q0 220 -112 411q-110 190 -300 300q-190 111 -410 111z" />
</svg>