<svg xmlns="http://www.w3.org/2000/svg" xmlns:xlink="http://www.w3.org/1999/xlink" version="1.1" viewBox="-10 0 2068 2048">
   <path fill="currentColor"
d="M2048 1125q0 87 -60 147t-142 60h-1644q-82 0 -142 -60t-60 -145q0 -84 60 -144t142 -60h922l260 202l254 -202h208q82 0 142 60t60 142zM1024 101q-264 0 -452 62q-155 55 -274 154q-87 77 -140 183q-32 71 -48 154l-8 62h1844l-10 -62q-15 -83 -48 -154
q-52 -107 -138 -183q-118 -98 -274 -154q-189 -62 -452 -62zM102 1639q0 131 88 219q88 89 218 89h1230q130 0 219 -89t89 -219v-101h-1844v101z" />
</svg>