<svg xmlns="http://www.w3.org/2000/svg" xmlns:xlink="http://www.w3.org/1999/xlink" version="1.1" viewBox="-10 0 2068 2048">
   <path fill="currentColor"
d="M1946 817h-408v-202l-462 -187v-226h256v-202h-362v428l-460 187v202h-408q-45 0 -73.5 31t-28.5 75v1125h818v-510h412v510h818v-1125q0 -43 -30 -75q-28 -31 -72 -31zM616 1846h-414v-308h414v308zM616 1332h-414v-308h414v308zM1024 615q42 0 71 29t29 72t-29 72
t-72 29t-72 -29t-29 -72t29 -72t73 -29zM1230 1332h-412v-308h412v308zM1846 1846h-414v-308h414v308zM1846 1332h-414v-308h414v308z" />
</svg>