<svg xmlns="http://www.w3.org/2000/svg" xmlns:xlink="http://www.w3.org/1999/xlink" version="1.1" viewBox="-10 0 2068 2048">
   <path fill="currentColor"
d="M818 971q-150 0 -332 48q-203 51 -336 135q-150 101 -150 230v308h1134l-4 -43q-6 -22 -6 -63q0 -38 10 -91q20 -134 96 -250q33 -48 68 -82q35 -36 76 -67q-93 -44 -220 -77q-184 -48 -336 -48zM928 1495h-736v-111q0 -34 96 -86q98 -54 232 -92q154 -38 298 -38
q84 0 206 19q-77 139 -96 308zM818 870q172 0 292 -120t120 -291t-120 -291t-291 -120t-291 120t-120 291t120 291t290 120zM818 255q86 0 146 60t60 144t-60 144t-144 60t-144 -60t-60 -144t60 -144t142 -60zM2048 1692l-308 308l-308 -308h206v-413h208v413h202z" />
</svg>