<svg xmlns="http://www.w3.org/2000/svg" xmlns:xlink="http://www.w3.org/1999/xlink" version="1.1" viewBox="-10 0 2058 2048">
   <path fill="currentColor"
d="M1573 715h139v1333h-139v-967q-112 -23 -210 -83q-100 -61 -169 -139l-61 283l209 205v701h-188v-557l-204 -205l-174 762h-201l292 -1481q19 -71 67 -105q51 -35 103 -35q51 0 98 27q47 26 76 69l96 153q44 74 111 126q69 53 155 83v-170zM741 458l-105 -22
q-78 -22 -144 24q-64 45 -78 124l-78 371q-4 45 17 74q23 30 61 39l205 39zM1154 0q-73 0 -128 55q-54 54 -54 133t54 133t131 54q76 0 130 -54q55 -55 55 -133t-55 -133t-133 -55z" />
</svg>