<svg xmlns="http://www.w3.org/2000/svg" xmlns:xlink="http://www.w3.org/1999/xlink" version="1.1" viewBox="-10 0 2068 2048">
   <path fill="currentColor"
d="M1024 202h-716q-130 0 -218 91q-90 92 -90 217v822q0 129 89 218t219 89l-106 101v106h106l202 -211l206 4v-514h-514v-716h922v206h208v-105q0 -125 -90 -217q-88 -91 -218 -91zM308 1231q42 0 71 29t29 72t-29 72t-71 29t-74 -29t-32 -72t32 -72t74 -29zM1902 784
q-8 -28 -37.5 -48t-62.5 -20h-736q-37 0 -64 20q-28 20 -36 48l-148 423v562q0 29 21 53t51 24h62q28 0 50 -24q22 -25 22 -58v-125h822v125q0 35 18 58q20 24 48 24h64q28 0 50 -24q22 -25 22 -53v-562zM1066 817h736l106 308h-946zM1024 1433q-44 0 -73 -29t-29 -72
t29 -72t72 -29t72 29t29 72t-29 72t-71 29zM1846 1433q-43 0 -76 -29q-30 -28 -30 -72t30 -72q33 -29 75.5 -29t71.5 29t29 72t-29 72t-71 29z" />
</svg>