<svg xmlns="http://www.w3.org/2000/svg" xmlns:xlink="http://www.w3.org/1999/xlink" version="1.1" viewBox="-10 0 2068 2048">
   <path fill="currentColor"
d="M1024 188q236 0 440 126q48 -62 114 -94q64 -32 144 -32q134 0 230 96q96 94 96 230q0 101 -58 186q-59 85 -156 120q26 107 26 204q0 226 -112 418q-112 191 -306 306q-190 112 -417.5 112t-418.5 -112q-193 -115 -304 -306q-114 -192 -114 -418q0 -97 26 -204
q-96 -35 -154 -120q-60 -87 -60 -186q0 -134 96 -230t232 -96q80 0 144 32t112 94q204 -126 440 -126zM1024 374q-178 0 -326 88q-148 86 -236 236q-86 148 -86 326t86 326q87 149 236 236q150 88 326.5 88t327.5 -88q148 -87 234 -236q88 -148 88 -326t-88 -326
q-87 -150 -234 -236q-149 -88 -328 -88zM1412 868q26 91 -2 168q-29 79 -94 96q-65 18 -128 -36t-88 -146q-23 -91 6 -170q28 -79 92 -96q66 -18 130 34q62 52 84 150zM636 868q23 -98 86 -150t128 -34q65 17 94 96q28 79 4 170q-24 92 -86 146q-64 54 -130 36
q-64 -17 -92 -96q-29 -77 -4 -168zM1024 1212q83 0 140 42l-92 96q0 27 19.5 48.5t48.5 21.5q28 0 50 -22t22 -48q0 -22 13 -35t33 -13t33 13t13 35q0 66 -48 114t-116 48t-116 -48q-48 48 -114 48q-68 0 -116 -48t-48 -114q0 -22 13 -35t33 -13t33 13t13 35q0 28 20 48
q22 22 52 22q27 0 46 -22q20 -23 20 -48l-90 -96q56 -42 138 -42z" />
</svg>