<svg xmlns="http://www.w3.org/2000/svg" xmlns:xlink="http://www.w3.org/1999/xlink" version="1.1" viewBox="-10 0 2068 2048">
   <path fill="currentColor"
d="M1024 101q-281 0 -514 110q-235 111 -372.5 299t-137.5 413q0 160 74.5 305t203.5 257q-4 71 -52 164q-74 146 -226 298l58 -5q80 -9 158 -29q114 -28 216 -77q128 -59 232 -144q172 48 360 48q280 0 514 -110q237 -112 372 -298q138 -188 138 -411t-138 -411
q-136 -188 -372 -299q-234 -110 -514 -110zM1332 745l-332 380h332v207h-616v-236l332 -380h-332v-206h616v235z" />
</svg>