<svg xmlns="http://www.w3.org/2000/svg" xmlns:xlink="http://www.w3.org/1999/xlink" version="1.1" viewBox="-10 0 2068 2048">
   <path fill="currentColor"
d="M1854 1245l150 149l-222 216l222 217l-150 149l-216 -221l-216 221l-144 -149l216 -217l-216 -216l144 -144l216 216zM1878 245l-172 -173l-168 173l-174 -173l-168 173l-172 -173l-174 173l-168 -173l-172 173l-168 -173l-174 173l-168 -173v1639q0 87 60 147t142 60
h904q-82 -141 -82 -308q0 -186 100 -341v-173h174q155 -101 340 -101q232 0 410 154v-1077zM922 1711h-720v-615h720v615zM1846 894h-1644v-308h1644v308z" />
</svg>