<svg xmlns="http://www.w3.org/2000/svg" xmlns:xlink="http://www.w3.org/1999/xlink" version="1.1" viewBox="-10 0 2068 2048">
   <path fill="currentColor"
d="M1304 1954q-41 0 -66 -28q-26 -28 -22 -65q5 -38 30 -68q47 -34 96 -109q62 -91 62 -157q0 -35 -18 -74q-10 -25 -40 -78l-26 -44q-45 -70 -70 -117q-30 -73 -30 -144q0 -136 62 -231q38 -56 74 -76q35 -20 74 -11q40 9 58 41q20 33 12 70q-9 35 -40 59l-8 13
q-17 17 -26 48q-10 39 -10 87q0 33 18 74q7 21 40 78l26 44q38 59 68 118q32 76 32 143q0 122 -96 266q-51 78 -114 140h-4l-26 8q-42 13 -56 13zM998 1924q65 -64 118 -140q96 -144 96 -270q0 -125 -114 -279l-12 -21q-30 -52 -44 -79q-18 -41 -18 -74q0 -54 14 -87
q9 -31 22 -48l12 -13q36 -23 42 -59q6 -39 -16 -72q-22 -35 -58 -41q-38 -6 -74 13q-38 20 -72 76q-66 95 -66 229q0 132 114 281l12 22q21 38 44 78q18 41 18 74q0 70 -62 161q-49 71 -96 109q-30 25 -30 66q0 38 24 67q25 29 60 29q51 13 86 -22zM624 1924h4
q52 -54 118 -140q92 -145 92 -270q0 -127 -110 -279q-38 -52 -52 -82q-22 -47 -22 -96q0 -52 8 -83q10 -30 28 -48l8 -13q35 -23 44 -59q9 -38 -14 -72q-13 -26 -52 -35q-38 -9 -70 5q-42 24 -78 78q-62 95 -62 229q0 131 114 281l14 22q32 62 38 78q22 43 22 74
q0 70 -60 161q-56 73 -100 109q-28 28 -30 66q-1 41 20 65q40 39 76 39q38 0 64 -30zM1024 94q-195 0 -370 22q-276 30 -440 100q-214 96 -214 246q0 151 66 508q51 291 104 518h206v-187h-58q-130 -625 -130 -837q0 -44 120 -87q125 -45 314 -70q197 -26 402.5 -26
t403.5 26q188 25 312 70q120 43 120 87q0 212 -130 837h-56v187h204q54 -227 104 -518q66 -352 66 -508q0 -150 -214 -246q-163 -70 -440 -100q-174 -22 -370 -22z" />
</svg>