<svg xmlns="http://www.w3.org/2000/svg" xmlns:xlink="http://www.w3.org/1999/xlink" version="1.1" viewBox="-10 0 2068 2048">
   <path fill="currentColor"
d="M434 1882l128 -166q138 91 302 122l-30 210q-206 -39 -400 -166zM1488 1716l122 166q-179 127 -396 166l-28 -210q163 -31 302 -122zM1838 1190l210 29q-39 207 -166 395l-166 -127q94 -137 122 -297zM0 1214l210 -29q29 160 122 302l-166 127q-127 -197 -166 -400z
M1292 609l-268 268l-268 -268l-146 147l268 268l-268 268l146 146l268 -268l268 268l146 -146l-268 -268l268 -268zM1716 561l166 -127q127 193 166 400l-210 29q-28 -164 -122 -302zM210 863l-210 -29q39 -203 166 -400l166 127q-93 142 -122 302zM1186 209l28 -209
q206 39 400 166l-126 165q-139 -91 -302 -122zM562 331l-128 -165q194 -127 400 -166l30 209q-164 31 -302 122z" />
</svg>