<svg xmlns="http://www.w3.org/2000/svg" xmlns:xlink="http://www.w3.org/1999/xlink" version="1.1" viewBox="-10 0 2068 2048">
   <path fill="currentColor"
d="M202 0h1644q82 0 142 60t60 142v1370l-476 476h-1370q-82 0 -142 -60t-60 -142v-1644q0 -82 60 -142t142 -60zM1538 1538v332l332 -332h-332zM818 1740h412v-101h102v-514q95 -72 150 -178q56 -106 56 -231q0 -138 -70 -257q-67 -116 -188 -187q-118 -70 -256.5 -70
t-257.5 70q-118 70 -186 187q-70 120 -70 257q0 125 54 231q55 105 152 178v514h102v101zM1230 1538h-412v-206h412v206zM1024 308q168 0 288 120q120 121 120 288q0 115 -56 209q-57 96 -146 147v159h-412v-159q-91 -52 -148 -147q-54 -92 -54 -209q0 -168 120 -288
t288 -120z" />
</svg>