<svg xmlns="http://www.w3.org/2000/svg" xmlns:xlink="http://www.w3.org/1999/xlink" version="1.1" viewBox="-10 0 2068 2048">
   <path fill="currentColor"
d="M2048 130l-206 206v1300q0 86 -60 146t-146 60h-1300l-206 206l-130 -134l1914 -1914zM206 0h1448l-202 206h-142q-9 76 -68 130q-58 53 -140 53h-200v206q0 39 -31 70t-75 31h-202v206h158l-186 187l-360 -341v706l-206 201v-1449q0 -86 60 -146t146 -60zM902 1636v-120
q-100 0 -164 -77l-200 197h364zM1310 1003v307h100q72 0 138 40q68 40 88 104v-917l-374 379q48 28 48 87z" />
</svg>