<svg xmlns="http://www.w3.org/2000/svg" xmlns:xlink="http://www.w3.org/1999/xlink" version="1.1" viewBox="-10 0 2068 2048">
   <path fill="currentColor"
d="M0 1630q225 -100 342 -140q186 -66 340 -66q77 0 168 32q65 22 173.5 70.5t172.5 69.5q92 34 168 34q78 0 174 -34q67 -23 170 -70q107 -48 170 -70q96 -32 170 -32v306q-71 0 -170 34q-63 22 -170 70q-94 43 -170 70q-99 34 -174 34q-73 0 -168 -34q-74 -26 -172 -70
q-109 -48 -174 -70q-94 -34 -168 -34q-152 0 -340 68q-117 40 -342 140v-308zM682 1116q-107 0 -240 34l504 -352l-104 -130q-24 -28 -24 -62q0 -58 48 -86l586 -410l114 164l-494 352l538 638q-147 58 -246 58q-73 0 -168 -34q-64 -21 -172 -70q-99 -43 -174 -68
q-94 -34 -168 -34zM1638 500q88 0 148 60t60 146q0 88 -60 148t-148 60q-86 0 -146 -60t-60 -148q0 -86 60 -146t146 -60z" />
</svg>