<svg xmlns="http://www.w3.org/2000/svg" xmlns:xlink="http://www.w3.org/1999/xlink" version="1.1" viewBox="-10 0 2068 2048">
   <path fill="currentColor"
d="M778 94q165 0 279 114t114 277t-114 277t-277 114q-162 0 -276 -114q-115 -114 -115 -276t115 -278q114 -114 274 -114zM1464 1756l174 174q36 36 78 18q41 -19 41 -64v-422l270 -334q36 -50 9 -102t-87 -52h-681q-60 0 -87 56q-27 58 9 98l274 334v294zM1268 1532
l-225 -276q-59 -72 -59 -164q-73 -18 -206 -18q-209 0 -389 52q-176 52 -283 142q-105 89 -105 194v198h1267v-128z" />
</svg>