<svg xmlns="http://www.w3.org/2000/svg" xmlns:xlink="http://www.w3.org/1999/xlink" version="1.1" viewBox="-10 0 2058 2048">
   <path fill="currentColor"
d="M1117 188q179 0 329 87q152 88 238 237q87 150 87 325q0 190 -103 351q-102 159 -272 237v436h-649v-279h-91q-79 0 -133 -54q-55 -55 -55 -133v-279h-139q-29 0 -42.5 -26t3.5 -48l178 -236q9 -172 98 -311q90 -141 236 -224q147 -83 315 -83zM1117 0q-208 0 -389 98
q-182 99 -298.5 266t-139.5 373l-148 196h-5q-38 52 -43 118q-4 64 26 126q52 100 161 122v96q0 131 81 231t198 130v292h1023v-514q177 -116 273 -298q98 -185 98 -399q0 -226 -111 -418q-110 -190 -305 -305q-193 -114 -421 -114zM1213 1303v-139q-156 0 -265 -109
t-109 -262q0 -114 65 -204l100 100q-26 49 -26 104q0 96 70 164q69 67 165 67v-139l209 209zM1522 998l-104 -100q26 -54 26 -105q0 -97 -67 -165q-68 -70 -164 -70v140l-209 -210l209 -209v140q153 0 262 109q108 108 108 265q0 110 -61 205z" />
</svg>