<svg xmlns="http://www.w3.org/2000/svg" xmlns:xlink="http://www.w3.org/1999/xlink" version="1.1" viewBox="-10 0 2068 2048">
   <path fill="currentColor"
d="M202 50h1644q82 0 142 60t60 148v1538q0 82 -60 142t-142 60h-1644q-82 0 -142 -60t-60 -142v-1538q0 -88 60 -148t142 -60zM202 460v306h414v-306h-414zM818 460v306h412v-306h-412zM1846 766v-306h-414v306h414zM202 974v308h414v-308h-414zM202 1796h414v-308h-414
v308zM818 974v308h412v-308h-412zM818 1796h412v-308h-412v308zM1846 1796v-308h-414v308h414zM1846 974h-414v308h414v-308z" />
</svg>