<svg xmlns="http://www.w3.org/2000/svg" xmlns:xlink="http://www.w3.org/1999/xlink" version="1.1" viewBox="-10 0 2068 2048">
   <path fill="currentColor"
d="M1740 510q0 -82 -60 -142t-142 -60h-308v202h308v274l-360 447h-360v-515h-410q-168 0 -288 120t-120 289v308h202q0 129 92 218t218 89q128 0 217 -89t89 -218h460l462 -577v-346zM510 1538q-40 0 -71 -31t-31 -74h208q0 42 -32 74q-32 31 -74 31zM616 1231h-414v-106
q0 -81 60 -142q60 -60 146 -60h208v308zM1740 1125q-126 0 -217 91t-91 219t92 216q92 89 218 89q128 0 217 -89t89 -216t-90 -219q-88 -91 -218 -91zM1740 1538q-40 0 -71 -31t-31 -72t31 -72t73 -31t73 31t31 72t-31 72t-75 31zM818 615h-510v-206h510v206z" />
</svg>