<svg xmlns="http://www.w3.org/2000/svg" xmlns:xlink="http://www.w3.org/1999/xlink" version="1.1" viewBox="-10 0 2068 2048">
   <path fill="currentColor"
d="M1582 461l-414 -413h-452v207h370l202 206h-826q-192 0 -328 135q-134 134 -134 327t134 327t328 134q168 0 294 -110q129 -112 158 -274l216 -130q-6 22 -6 53q0 192 136 327q134 134 326 134t326 -134q136 -135 136 -327t-135 -327t-327 -135h-4zM702 1000
q-28 75 -94 127q-65 51 -152 51q-104 0 -179 -75t-75 -180q0 -107 74 -183q76 -77 180 -77q87 0 152 51q65 52 94 132h-294v154h294zM1586 1178q-106 0 -182 -75q-78 -75 -78 -180q0 -106 77 -183t183 -77q105 0 180 77q74 75 74 183q0 106 -74 180q-74 75 -180 75z
M922 1692h-412l614 308v-207h414l-616 -308v207z" />
</svg>