<svg xmlns="http://www.w3.org/2000/svg" xmlns:xlink="http://www.w3.org/1999/xlink" version="1.1" viewBox="-10 0 2068 2048">
   <path fill="currentColor"
d="M1846 1282h-1644v-616h524l-216 288l168 120l346 -470l346 470l168 -120l-216 -288h524v616zM1846 1790h-1644v-202h1644v202zM716 252q44 0 72 32q30 32 30 75t-29 72t-72 29t-72 -29t-29 -72t28 -75q29 -32 72 -32zM1332 252q43 0 72 32q28 32 28 75t-29 72t-72 29
t-72 -29t-29 -72t30 -75q28 -32 72 -32zM1846 460h-226q18 -52 18 -102q0 -130 -89 -219t-217 -89q-78 0 -146 36q-65 36 -110 100l-52 66l-54 -66q-44 -64 -110 -100q-67 -36 -144 -36q-130 0 -219 89t-89 219q0 50 20 102h-226q-82 0 -142 60t-60 146v1124q0 88 60 148
t142 60h1644q82 0 142 -60t60 -148v-1124q0 -86 -60 -146t-142 -60z" />
</svg>