<svg xmlns="http://www.w3.org/2000/svg" xmlns:xlink="http://www.w3.org/1999/xlink" version="1.1" viewBox="-10 0 2068 2048">
   <path fill="currentColor"
d="M2048 1934l-1934 -1934l-114 114l398 397l198 418l-122 224q-22 37 -22 84q0 77 52 129q54 53 126 53h670l128 123q-34 25 -56 63q-20 37 -20 84q0 73 52 125q52 53 128 53q94 0 144 -76l258 257zM668 1237q-10 0 -16 -6t-6 -15l4 -12l80 -148h212l182 181h-456z
M1402 1056q51 0 92 -25q42 -25 64 -68l320 -583q14 -23 14 -42q0 -39 -26 -65q-26 -28 -64 -28h-1210zM630 1508q-72 0 -126 53q-52 52 -52 126q0 75 52 127q54 53 128 53t126 -53q52 -52 52 -127q0 -74 -52 -126q-52 -53 -128 -53z" />
</svg>