<svg xmlns="http://www.w3.org/2000/svg" xmlns:xlink="http://www.w3.org/1999/xlink" version="1.1" viewBox="-10 0 2068 2048">
   <path fill="currentColor"
d="M2024 1045q-277 -264 -644 -356q-178 -44 -356 -44t-356 44q-367 92 -644 356q-24 24 -24 60t24 60l212 212q28 24 62 24t58 -24q104 -96 228 -156q48 -24 48 -80v-264q192 -60 392 -60q201 0 392 64v264q0 52 48 76q124 60 228 156q25 25 58 26q34 2 62 -26l212 -212
q24 -24 24 -60t-24 -60zM460 1093q-82 47 -160 108l-92 -92q122 -97 252 -164v148zM1748 1201q-78 -61 -160 -108v-144q138 65 252 160z" />
</svg>