<svg xmlns="http://www.w3.org/2000/svg" xmlns:xlink="http://www.w3.org/1999/xlink" version="1.1" viewBox="-10 0 2058 2048">
   <path fill="currentColor"
d="M1024 0q266 0 489.5 91t354.5 248q132 157 132 343q0 156 -94 293q-95 138 -262 234t-378 137v-27q0 -84 -28 -165q250 -47 408 -176q160 -130 160 -296q0 -132 -104 -245q-106 -113 -286 -179q-182 -66 -392 -66t-392 66q-180 66 -286 179.5t-106 244.5q0 173 180 307
q-70 79 -102 165q-129 -93 -198 -213q-72 -122 -72 -259q0 -187 130 -343q132 -157 355.5 -248t490.5 -91zM782 975q140 0 240 101q98 100 98 241q0 140 -96 240q-97 101 -234 101q-50 87 24 165q39 46 114 32q47 -4 164 -46q129 -44 166 -55q104 -22 196 -27q196 0 352 27
l28 5q28 14 46 32q23 27 18 69q-4 41 -32 64q-18 14 -46 23l-22 4l-36 -4q-186 -32 -326 -23q-81 0 -160 23q-44 13 -120 45q-42 14 -78 28q-247 78 -416 -64q-82 -69 -86 -188q0 -78 26 -156q-78 -51 -120 -128q-44 -79 -44 -165q0 -142 101 -243t243 -101zM782 1172
q-64 0 -106 42q-42 41 -42 103q0 61 41 105t103 44t106 -44q44 -43 44 -105q0 -63 -44 -103q-45 -42 -102 -42z" />
</svg>