<svg xmlns="http://www.w3.org/2000/svg" xmlns:xlink="http://www.w3.org/1999/xlink" version="1.1" viewBox="-10 0 2068 2048">
   <path fill="currentColor"
d="M1620 1846q-33 90 -112 147q-75 55 -176 55h-1024q-134 0 -222 -87q-86 -86 -86 -221v-101h1250q28 92 108 149q80 58 180 58h82zM1740 0q134 0 220 86q88 87 88 222v101h-202v-101q0 -48 -29 -77t-75 -29t-75 29t-29 77v1331h-100q-48 0 -78 -29q-28 -28 -28 -72v-105
h-1124v-1125q0 -135 86 -222q86 -86 222 -86h1124zM616 409v206h716v-206h-716zM616 817v207h614v-207h-614z" />
</svg>