<svg xmlns="http://www.w3.org/2000/svg" xmlns:xlink="http://www.w3.org/1999/xlink" version="1.1" viewBox="-10 0 2058 2048">
   <path fill="currentColor"
d="M894 995q40 106 24 183q-24 92 -125 125q-183 68 -288 -43q-57 -57 -77 -144l-5 -5zM380 914l442 -111q-9 -67 0 -202q10 -101 10 -139q0 -95 -44 -207q-48 -124 -120 -192q-92 -82 -187 -58q-167 39 -235 207q-52 126 -44 264q9 106 164 409zM1624 1827q-8 38 -33 82
q-39 82 -111 115q-91 48 -226 0q-100 -39 -120 -130q-19 -77 19 -182zM1845 1192q10 -140 -43 -259q-67 -168 -231 -212q-99 -24 -187 53q-77 73 -125 197q-43 110 -43 207q0 48 9 144q15 131 5 197l437 111l10 -19q159 -303 168 -419z" />
</svg>