<svg xmlns="http://www.w3.org/2000/svg" xmlns:xlink="http://www.w3.org/1999/xlink" version="1.1" viewBox="-10 0 2058 2048">
   <path fill="currentColor"
d="M933 467v557h-558v-557h183v-371q0 -39 28 -67q29 -29 66 -29q36 0 65 29q28 28 28 67v371h188zM375 1212v183q0 90 50 163q50 72 133 98v392h187v-392q82 -25 135 -98t53 -163v-183h-558zM1490 467v-371q0 -39 -28 -67q-29 -29 -66 -29q-36 0 -65 29q-28 28 -28 67v371
h-188v557h558v-557h-183zM1115 1212v183q0 90 53 163t135 98v392h187v-392q83 -26 133 -98q50 -73 50 -163v-183h-558z" />
</svg>