<svg xmlns="http://www.w3.org/2000/svg" xmlns:xlink="http://www.w3.org/1999/xlink" version="1.1" viewBox="-10 0 2068 2048">
   <path fill="currentColor"
d="M1846 1639h-1644v-1024h1644v1024zM1846 409h-822l-206 -207h-616q-82 0 -142 60t-60 147v1230q0 87 60 147t142 60h1644q82 0 142 -60t60 -147v-1024q0 -86 -60 -146t-142 -60zM1106 1024q-29 -92 -108 -149q-81 -58 -180 -58q-130 0 -219 89t-89 221t88 219
q89 87 220 87q99 0 180 -56q79 -56 108 -146h226v202h206v-202h202v-207h-634zM818 1231q-44 0 -74 -29q-28 -28 -28 -75q0 -46 28 -74q30 -29 76 -29q44 0 73 29t29 74q0 46 -29 75t-75 29z" />
</svg>