<svg xmlns="http://www.w3.org/2000/svg" xmlns:xlink="http://www.w3.org/1999/xlink" version="1.1" viewBox="-10 0 2068 2048">
   <path fill="currentColor"
d="M1846 1846h-1336q-82 0 -142 -60t-60 -147v-928l-284 -341q-24 -28 -24 -67t28.5 -70t73.5 -31h1744q82 0 142 60t60 147v1230q0 87 -60 147t-142 60zM664 510q-20 0 -34 16q-14 15 -14 36v101q0 25 14 39t34 14h1028q20 0 34 -14t14 -39v-101q0 -21 -14 -36
q-15 -16 -34 -16h-1028zM664 923q-20 0 -34 14t-14 34v106q0 19 14 33q14 15 34 15h1028q18 0 34 -15q14 -14 14 -33v-106q0 -20 -14 -34t-34 -14h-1028zM664 1332q-20 0 -34 14t-14 39v100q0 22 14 37q14 16 34 16h514q20 0 36 -16q16 -17 16 -37v-100q0 -24 -16 -39
q-16 -14 -36 -14h-514z" />
</svg>