<svg xmlns="http://www.w3.org/2000/svg" xmlns:xlink="http://www.w3.org/1999/xlink" version="1.1" viewBox="-10 0 2068 2048">
   <path fill="currentColor"
d="M1582 1395h-52l-78 -74q130 -173 130 -388q0 -179 -88 -329q-87 -152 -236 -238q-150 -87 -324 -87q-218 0 -392 131q-145 110 -210 268q-65 156 -46 331q20 174 124 314q105 141 266 207q160 66 334 46q170 -19 310 -125l74 74v57l466 466l188 -187zM934 1395
q-129 0 -234.5 -61t-169.5 -168q-64 -108 -64 -233t64 -233t170 -170q106 -63 234 -63q126 0 232 63q105 62 168 170q60 106 60 233t-60 233q-63 107 -168 168t-232 61zM188 467l-188 187v-654h654l-188 188h-278v279zM1860 0v654l-186 -187v-279h-280l-182 -188h648z
M466 1674l188 187h-654v-649l188 183v279h278z" />
</svg>