<svg xmlns="http://www.w3.org/2000/svg" xmlns:xlink="http://www.w3.org/1999/xlink" version="1.1" viewBox="-10 0 2068 2048">
   <path fill="currentColor"
d="M720 2005q153 43 304 43q200 0 392 -77q188 -76 333.5 -221t220.5 -334q78 -192 78 -392t-78 -392q-75 -189 -220.5 -334t-333.5 -221q-192 -77 -392 -77t-392 77q-188 76 -333.5 221t-220.5 334q-78 192 -78 392q0 323 182 584q183 262 476 373q-24 -192 0 -303
l120 -505l-18 -43q-16 -52 -16 -111q0 -105 58 -178q58 -72 136 -72q62 0 96 41q32 41 32 103q0 63 -48 207q-34 92 -42 135q-15 76 34 132q47 55 124 55q136 0 228 -132q94 -133 94 -339q0 -182 -120 -298q-120 -115 -308 -115q-212 0 -340 134q-120 131 -120 308
q0 69 19 130.5t57 104.5q9 9 4 29l-28 116q0 10 -8 14q-6 4 -20 -5q-98 -44 -154 -163q-54 -112 -54 -231q0 -167 78 -310q76 -142 226 -219q158 -91 370 -91q172 0 316 77q146 78 226 211q82 135 82 306t-68 317q-67 148 -186 231q-120 84 -274 84q-70 0 -140 -34
q-67 -33 -92 -82l-72 246q-27 107 -130 274z" />
</svg>