<svg xmlns="http://www.w3.org/2000/svg" xmlns:xlink="http://www.w3.org/1999/xlink" version="1.1" viewBox="-10 0 2068 2048">
   <path fill="currentColor"
d="M1138 1618q60 152 178 324h-1098q-90 0 -154 -63q-64 -64 -64 -154v-1507q0 -91 64 -155q64 -63 154 -63h1506q92 0 155 63t63 155v606q-126 -70 -268 -70q-177 0 -326 101t-220 258l-262 344l-274 -324l-374 485h920zM2048 1350q0 172 -188 455q-101 149 -186 243
l-102 -116q-114 -152 -182 -278q-96 -182 -96 -304q0 -156 112 -268q112 -111 266 -111t265 111t111 268zM1800 1360q0 -50 -40 -91q-40 -40 -88 -40t-90 38q-40 37 -40 91q0 53 38 91t93 38t97 -41q41 -41 30 -86z" />
</svg>