<svg xmlns="http://www.w3.org/2000/svg" xmlns:xlink="http://www.w3.org/1999/xlink" version="1.1" viewBox="-10 0 2068 2048">
   <path fill="currentColor"
d="M0 219l394 393v558q0 82 57 139t135 57h392v192h-100q-42 0 -68 30q-28 31 -28 71h-682v192h682q0 40 28 71q26 30 68 30h392q42 0 69 -30t27 -71h266l196 197l124 -124l-1824 -1828zM1366 1659q0 -41 -27 -71t-69 -30h-100v-169l270 270h-74zM1628 1353l-1226 -1225
q23 -57 74 -92q51 -36 110 -36h978q76 0 134 57q58 58 58 139v974q0 63 -36 112q-35 49 -92 71zM2048 1659v114l-114 -114h114z" />
</svg>