<svg xmlns="http://www.w3.org/2000/svg" xmlns:xlink="http://www.w3.org/1999/xlink" version="1.1" viewBox="-10 0 2068 2048">
   <path fill="currentColor"
d="M1198 1970q-100 28 -224 28q-266 0 -488.5 -130t-353.5 -356q-132 -224 -132 -488.5t132 -489.5q130 -223 354 -354q222 -130 488 -130q168 0 370 68l-156 156q-102 -32 -214 -32q-210 0 -390 106q-182 105 -286 284q-106 180 -106 391t106 391q105 181 286 286
q180 106 390 106q88 0 128 -10q23 83 96 174zM576 836l-136 138l438 438l974 -974l-138 -136l-836 840zM1560 1220v292h-294v192h294v294h196v-294h292v-192h-292v-292h-196z" />
</svg>