<svg xmlns="http://www.w3.org/2000/svg" xmlns:xlink="http://www.w3.org/1999/xlink" version="1.1" viewBox="-10 0 2068 2048">
   <path fill="currentColor"
d="M1024 1595l-80 -75l-6 -5q-260 -234 -350 -347q-134 -161 -134 -309q0 -128 91 -219t223 -91q74 0 141 32t115 86q49 -55 114 -86q68 -32 142 -32q132 0 223 91t91 219q0 149 -132 309q-89 110 -352 347zM230 0h1588q96 0 164 67q66 66 66 162v1590q0 96 -66 162
q-68 67 -164 67h-1588q-96 0 -163 -67t-67 -162v-1590q0 -95 67 -162t163 -67zM230 229v1590h1588v-1590h-1588z" />
</svg>