<svg xmlns="http://www.w3.org/2000/svg" xmlns:xlink="http://www.w3.org/1999/xlink" version="1.1" viewBox="-10 0 2068 2048">
   <path fill="currentColor"
d="M0 933h280v183h-280v-183zM1682 236l-192 191l132 131l190 -192zM934 0h182v279h-182v-279zM366 236l-130 130l192 192l130 -131zM838 1953q0 43 26 69t70 26h182q44 0 70 -26t26 -69v-92h-374v92zM1024 467q-153 0 -278 76q-126 76 -202 202q-78 127 -78 279
q0 153 78 284q77 132 202 200v166q0 43 26 69t66 26h374q40 0 66 -26t26 -69v-166q124 -68 202 -200q76 -130 76 -284t-76 -279q-77 -126 -202 -202q-126 -76 -280 -76zM1116 1386v105h-182v-105q-122 -26 -202 -129q-78 -102 -78 -233q0 -152 109 -261t261 -109t261 109
t109 261q0 132 -78 229q-78 98 -200 133zM1770 933h278v183h-278v-183z" />
</svg>