<svg xmlns="http://www.w3.org/2000/svg" xmlns:xlink="http://www.w3.org/1999/xlink" version="1.1" viewBox="-10 0 2068 2048">
   <path fill="currentColor"
d="M1860 96h-1672q-78 0 -133 55t-55 127v1490q0 74 55 129t133 55h1672q78 0 134 -54q54 -54 54 -130v-1490q0 -74 -54 -128q-56 -54 -134 -54zM1860 1768h-1672v-1302h1672v1302zM746 654q-80 0 -134 54t-54 131t-54 131t-128 54v188q74 0 128 54t54 131t54 131t134 54
h188v-188h-188v-92q0 -78 -54 -132t-134 -54q78 0 134 -56q54 -54 54 -128v-96h188v-182h-188zM1304 654q78 0 132 54t54 131t54 131t130 54v188q-76 0 -130 54t-54 131t-54 131t-132 54h-188v-188h188v-92q0 -78 54 -132t132 -54q-78 0 -132 -56q-54 -54 -54 -128v-96h-188
v-182h188z" />
</svg>