<svg xmlns="http://www.w3.org/2000/svg" xmlns:xlink="http://www.w3.org/1999/xlink" version="1.1" viewBox="-10 0 2068 2048">
   <path fill="currentColor"
d="M1692 0h-1336q-146 0 -250 106q-106 106 -106 250v1336q0 144 106 250q104 106 250 106h1076l616 -615v-1077q0 -142 -106 -250q-105 -106 -250 -106zM1854 1332h-152q-152 0 -256 105q-106 108 -106 255v154h-950q-78 0 -132 -55q-56 -56 -56 -132v-1270q0 -76 56 -132
q54 -55 132 -55h1278q76 0 131 55t55 132v943zM510 510h1028v206h-1028v-206zM510 923h1028v202h-1028v-202zM510 1332h614v206h-614v-206z" />
</svg>