<svg xmlns="http://www.w3.org/2000/svg" xmlns:xlink="http://www.w3.org/1999/xlink" version="1.1" viewBox="-10 0 2068 2048">
   <path fill="currentColor"
d="M1090 1868l-66 62l-150 -134q-338 -305 -460 -434q-208 -211 -304 -374q-110 -186 -110 -376q0 -154 74 -282q75 -130 204 -206q128 -74 284 -74q133 0 256 58q118 57 206 154q86 -96 206 -154q123 -58 254 -58q157 0 284 74q130 76 204 206q76 130 76 282
q0 207 -140 424q-101 -48 -206 -58q144 -196 144 -366q0 -153 -104.5 -253.5t-257.5 -100.5q-120 0 -222 66q-104 68 -142 174h-192q-39 -106 -142 -174q-103 -66 -224 -66q-152 0 -256 100.5t-104 253.5q0 144 100 304q92 139 284 332q116 115 428 398l10 10l4 -4
q9 114 62 216zM1538 1180v308h-308v202h308v308h202v-308h308v-202h-308v-308h-202z" />
</svg>