<svg xmlns="http://www.w3.org/2000/svg" xmlns:xlink="http://www.w3.org/1999/xlink" version="1.1" viewBox="-10 0 2067 2048">
   <path fill="currentColor"
d="M818 1125v-817q0 -130 -89 -219q-88 -88 -216 -88t-219 88t-91 219v817q-110 86 -162.5 210.5t-36 259t97.5 248.5q81 112 209 165q128 52 262 36q134 -17 247.5 -98.5t166 -209t35.5 -261.5q-16 -132 -99 -245q-42 -63 -105 -105zM510 202q43 0 75 32q31 31 31 74v307
h-206v-307q0 -43 31 -74q32 -32 69 -32zM1639 510q-26 31 -52.5 62.5t-53.5 62.5q-121 155 -197 288q-105 187 -105 312q0 192 124 303q117 101 284 101t283 -101q125 -112 125 -303q0 -123 -106 -312q-75 -133 -197 -288z" />
</svg>