<svg xmlns="http://www.w3.org/2000/svg" xmlns:xlink="http://www.w3.org/1999/xlink" version="1.1" viewBox="-10 0 2068 2048">
   <path fill="currentColor"
d="M1024 112q96 0 163 67t67 162q0 96 -67 163t-163 67t-163 -67t-67 -163q0 -95 67 -162t163 -67zM2048 1477v-224q-191 0 -352 -80q-159 -79 -282 -229l-156 -181q-69 -80 -176 -80h-116q-107 0 -176 80l-150 181q-261 309 -640 309v224q235 0 438 -93q201 -93 356 -275
v256l-436 176q-59 21 -94 75q-34 55 -34 112q0 85 58 147q59 61 144 61h252v-59q0 -118 82 -200t200 -82h340q28 0 44 16t16 40t-16 40t-44 16h-340q-70 0 -120 50q-52 51 -52 120v59h822q85 0 144 -61q58 -62 58 -147q0 -57 -34 -112q-35 -54 -94 -75l-436 -176v-256
q155 182 356 275q203 93 438 93z" />
</svg>