<svg xmlns="http://www.w3.org/2000/svg" xmlns:xlink="http://www.w3.org/1999/xlink" version="1.1" viewBox="-10 0 2068 2048">
   <path fill="currentColor"
d="M308 1639q-39 -103 -82 -226q-91 -273 -148 -504q-78 -320 -78 -500q0 -142 28 -236q29 -75 74 -125q31 -28 72 -43l28 -5h106h24q32 9 48 29q28 29 28 72q0 26 -10 48t-28 48q-29 45 -44 77q-18 51 -18 135q0 63 38 139q26 50 92 144q87 132 120 202q58 122 58 229
q0 54 -12 107t-36 106q-42 87 -106 164q-47 51 -106 101zM1332 1538q86 0 146 60t60 142v106q0 82 -60 142t-146 60h-616q-131 0 -230 -91q-53 -44 -78 -92q-18 -19 -18 -43q0 -23 18 -38l82 -68q100 -76 178 -125q104 -62 150 -62h514v9zM1196 144l-144 346l144 351
l-202 491l-176 -145l144 -346l-144 -351l206 -490zM1630 144l-146 346l146 351l-208 491l-172 -145l144 -346l-144 -351l206 -490zM2048 144l-146 346l146 351l-202 491l-178 -145l144 -346l-144 -351l206 -490z" />
</svg>