<svg xmlns="http://www.w3.org/2000/svg" xmlns:xlink="http://www.w3.org/1999/xlink" version="1.1" viewBox="-10 0 2068 2048">
   <path fill="currentColor"
d="M1818 0h-1588q-96 0 -163 67t-67 162v1590q0 95 67 162t163 67h1588q96 0 164 -67q66 -66 66 -162v-1590q0 -96 -66 -162q-68 -67 -164 -67zM1818 1819h-1588v-1590h1588v1590zM1024 1707q184 0 344 -91q157 -90 248 -248q90 -159 90 -344t-90 -344q-91 -158 -248 -248
q-160 -91 -344 -91t-344 91q-157 90 -248 248q-90 159 -90 344t90 344q91 158 248 248q160 91 344 91zM1024 571q188 0 321 133t133 320t-133 320t-320 133t-320 -133t-133 -320t133 -320t319 -133z" />
</svg>