<svg xmlns="http://www.w3.org/2000/svg" xmlns:xlink="http://www.w3.org/1999/xlink" version="1.1" viewBox="-10 0 2068 2048">
   <path fill="currentColor"
d="M1538 1356q0 72 -55 127t-130 55t-127 -55q-54 -56 -54 -130t53 -127t127 -53t130 53q56 52 56 130zM696 880q78 0 131 -53t53 -128q0 -73 -53 -129t-127 -56t-130 56q-56 55 -56 129q0 76 56 128q56 53 126 53zM510 1385l154 153l874 -875l-154 -153zM2048 1024
q0 278 -138 514q-136 236 -372 373q-237 137 -514.5 137t-513.5 -137q-235 -136 -372 -373q-138 -236 -138 -514t138 -514q137 -237 372 -373q236 -137 513.5 -137t514.5 137q236 137 372 373q138 236 138 514zM1846 1024q0 -220 -112 -411q-111 -191 -299.5 -301t-411 -110
t-411 110t-300.5 301q-110 191 -110 411t110 411q111 190 300 300q191 111 411.5 111t410.5 -111q190 -110 300 -300q112 -191 112 -411z" />
</svg>