<svg xmlns="http://www.w3.org/2000/svg" xmlns:xlink="http://www.w3.org/1999/xlink" version="1.1" viewBox="-10 0 2068 2048">
   <path fill="currentColor"
d="M430 1295q0 91 -63 154t-151 63t-152 -63q-64 -64 -64 -154q0 -91 64 -155q64 -63 150 -63h216v218zM536 1295q0 -92 63 -155t155 -63t155 63t63 155v541q0 86 -63 149t-155 63t-155 -63t-63 -149v-541zM754 430q-92 0 -155 -63t-63 -152t63 -152t155 -63t155 63t63 155
v212h-218zM754 541q92 0 155 63t63 152t-63 152t-155 63h-540q-86 0 -150 -63q-64 -64 -64 -152t64 -152q64 -63 150 -63h540zM1618 754q0 -87 63 -150t153 -63q88 0 151 63t63 152t-63 152t-155 63h-212v-217zM1508 754q0 90 -64 154q-64 63 -152 63t-151 -63t-63 -154
v-536q0 -92 63 -155t151 -63t152 63q64 64 64 155v536zM1294 1618q86 0 150 64t64 151q0 88 -64 152q-64 63 -152 63t-151 -63t-63 -149v-218h216zM1294 1512q-90 0 -153 -63t-63 -154q0 -92 63 -155t153 -63h536q92 0 155 63t63 155q0 91 -63 154t-155 63h-536z" />
</svg>