<svg xmlns="http://www.w3.org/2000/svg" xmlns:xlink="http://www.w3.org/1999/xlink" version="1.1" viewBox="-10 0 2068 2048">
   <path fill="currentColor"
d="M130 0l1918 1920l-130 128l-270 -270h-1098v-365h-364v-550q0 -116 79 -195t195 -79l-460 -460zM550 1228v-184h364l-274 -275h-180q-38 0 -66 28t-28 66v365h184zM734 1593h730l-364 -365h-366v365zM734 314v30l-184 -180v-35h1098v460h90q116 0 196 79q80 80 80 195
v550h-216l-364 -369h214v184h184v-365q0 -39 -26 -66q-28 -28 -68 -28h-578l-186 -180h490v-275h-730zM1738 906q0 38 -26 67q-25 28 -63.5 28t-64.5 -28q-26 -29 -26 -64q0 -36 26 -65q26 -28 64.5 -28t63.5 28q26 29 26 62z" />
</svg>