<svg xmlns="http://www.w3.org/2000/svg" xmlns:xlink="http://www.w3.org/1999/xlink" version="1.1" viewBox="-10 0 2068 2048">
   <path fill="currentColor"
d="M1020 1212l-104 -188h366q52 0 98 28q44 29 66 76l44 84h-470zM2048 1582q0 117 -82 198q-83 80 -196 80q-93 0 -164 -52q-73 -52 -98 -134h-514q-45 88 -122 136q-78 50 -174 50t-174 -50q-78 -49 -118 -136h-310q-36 0 -66 -28q-30 -25 -30 -64v-650q0 -47 42.5 -75.5
t89.5 -10.5l470 186l-374 -658h-228v-186h336l632 1114h802q113 0 196 82q82 80 82 198zM594 1228l-406 -156v418h192q13 -94 70 -162q58 -70 144 -100zM838 1534q0 -55 -40 -98q-39 -42 -98 -42q-60 0 -101 41t-41 101q0 59 42 98q43 40 100 40q58 0 98 -40t40 -100z
M1860 1582q0 -40 -28 -66q-29 -26 -64 -26q-37 0 -66 26q-28 26 -28 65.5t28 64.5q30 28 66 28q34 0 64 -28q28 -25 28 -64z" />
</svg>