<svg xmlns="http://www.w3.org/2000/svg" xmlns:xlink="http://www.w3.org/1999/xlink" version="1.1" viewBox="-10 0 2068 2048">
   <path fill="currentColor"
d="M2048 1492v344q0 46 -38 80q-39 34 -90 34h-534q-46 0 -83 -37t-37 -87v-342q0 -46 38 -84q36 -36 82 -36v-146q0 -101 82 -172q83 -70 188 -70q104 0 188 70q86 72 86 172v146q46 0 82 39t36 89zM1070 1656v198h-878q-76 0 -134 -58t-58 -140v-1362q0 -80 58 -138
t134 -58h1368q82 0 139 57t57 139v494l-100 -8l-96 8q-164 36 -272 162q-109 127 -118 296q-100 86 -100 218v192zM1802 1218q0 -55 -42 -90q-39 -34 -102 -34t-106 34q-44 35 -44 90v146h294v-146zM682 588v776l488 -388z" />
</svg>