<svg xmlns="http://www.w3.org/2000/svg" xmlns:xlink="http://www.w3.org/1999/xlink" version="1.1" viewBox="-10 0 2058 2048">
   <path fill="currentColor"
d="M717 1846h615v101q0 43 -32 72t-69 29h-413q-38 0 -70 -29q-31 -28 -31 -72v-101zM1740 716q0 176 -82 334t-225 253v235q0 38 -29 70q-28 31 -72 31h-615q-44 0 -72 -31q-29 -32 -29 -70v-235q-145 -96 -226 -253q-82 -158 -82 -334q0 -196 96 -360t260 -260t360 -96
q198 0 361 96q162 95 259 260q96 164 96 360zM1303 644q-29 -29 -72 -29t-72 29l-135 135l-134 -135q-29 -29 -72 -29q-44 0 -73 29q-28 28 -28 72t28 72l178 173v472h202v-472l178 -173q29 -29 29 -72t-29 -72z" />
</svg>