<svg xmlns="http://www.w3.org/2000/svg" xmlns:xlink="http://www.w3.org/1999/xlink" version="1.1" viewBox="-10 0 2068 2048">
   <path fill="currentColor"
d="M1230 1125q-44 0 -75 31t-31 75t32 72q32 29 75 29t72 -29t29 -72t-30 -75q-28 -31 -72 -31zM1230 1485q-24 0 -38 15q-14 14 -14 36t14 36t36 14t36 -14q14 -15 14 -36t-15 -36t-33 -15zM1024 1846q-221 0 -412 -111q-189 -110 -300 -300q-110 -191 -110 -411t110 -411
q112 -191 300.5 -301t411 -110t411 110t299.5 301q112 191 112 411t-112 411q-110 190 -300 300q-190 111 -410 111zM1024 0q-200 0 -392 77q-188 76 -333.5 221t-220.5 334q-78 192 -78 392t78 392q75 189 220.5 334t333.5 221q192 77 392 77t392 -77q188 -76 333.5 -221
t220.5 -334q78 -192 78 -392t-78 -392q-75 -189 -220.5 -334t-333.5 -221q-192 -77 -392 -77zM1538 769q-24 0 -39 15t-15 36t16 36q14 14 36 14t36 -14t14 -36t-14 -36q-16 -15 -34 -15zM1538 1178q-24 0 -38 14q-16 15 -16 36t15 36t36 15t37 -15q14 -14 14 -36t-14 -36
t-34 -14zM1230 562q20 0 34 -14q14 -15 14 -36t-15 -36t-36 -15t-35 15q-14 14 -14 36t14 36t38 14zM1230 716q-42 0 -74 29q-32 28 -32 72t31 75t75 31t72 -31q30 -32 30 -75t-29 -72t-73 -29zM818 562q24 0 38 -14t14 -36t-14 -36q-16 -15 -37 -15t-36 15t-15 36t16 36
q14 14 34 14zM510 1178q-20 0 -34 14t-14 36t14 36q14 15 35 15t36 -15t15 -36t-14 -36q-14 -14 -38 -14zM818 1485q-20 0 -35 15t-15 36t16 36q14 14 36 14t36 -14t14 -36t-14 -36q-16 -15 -38 -15zM510 769q-20 0 -34 15q-14 14 -14 36t14 36t36 14t36 -14q14 -15 14 -36
t-15 -36t-37 -15zM818 1125q-45 0 -73.5 31t-28.5 75t28 72q30 29 74 29q41 0 74 -29q30 -28 30 -72t-31 -75t-73 -31zM818 716q-44 0 -74 29q-28 28 -28 72t28.5 75t73.5 31q42 0 73 -31t31 -75t-30 -72q-33 -29 -74 -29z" />
</svg>