<svg xmlns="http://www.w3.org/2000/svg" xmlns:xlink="http://www.w3.org/1999/xlink" version="1.1" viewBox="-10 0 2068 2048">
   <path fill="currentColor"
d="M1860 466h-1672q-78 0 -132 54q-56 56 -56 134v740q0 78 56 134q54 54 132 54h1672q80 0 134 -54t54 -134v-740q0 -80 -54 -134t-134 -54zM1860 1394h-1672v-740h1672v740zM466 1302h188v-186h184v-184h-184v-188h-188v188h-186v184h186v186zM1256 1024q60 0 99 42t39 98
t-38 98q-39 40 -98 40q-60 0 -100 -40q-42 -42 -42 -98t42 -98t98 -42zM1630 744q56 0 98 42t42 98t-42 98t-100 42q-60 0 -98 -42q-40 -42 -40 -98t39 -98t101 -42z" />
</svg>