<svg xmlns="http://www.w3.org/2000/svg" xmlns:xlink="http://www.w3.org/1999/xlink" version="1.1" viewBox="-10 0 2068 2048">
   <path fill="currentColor"
d="M870 1485q0 -62 46 -108q44 -45 107 -45t109 45q46 46 46 108q0 63 -46 109q-46 45 -109 45t-107 -45q-46 -46 -46 -109zM870 562q0 -62 46 -108q44 -45 107 -45t109 45q46 46 46 108q0 63 -46 109q-46 45 -109 45t-107 -45q-46 -46 -46 -109zM226 0h1596q90 0 158 67
q68 68 68 159v1596q0 91 -68 159q-68 67 -158 67h-1596q-92 0 -159 -67t-67 -159v-1596q0 -92 67 -159t159 -67zM1024 202q-223 0 -411.5 110t-300.5 301q-110 191 -110 411t110 411q111 190 300 300q191 111 411.5 111t410.5 -111q190 -110 300 -300q112 -191 112 -411
t-112 -411q-111 -191 -299.5 -301t-410.5 -110zM870 1024q0 -62 46 -108t108 -46t108 46t46 108t-46 108t-108 46t-108 -46t-46 -108z" />
</svg>