<svg xmlns="http://www.w3.org/2000/svg" xmlns:xlink="http://www.w3.org/1999/xlink" version="1.1" viewBox="-10 0 2068 2048">
   <path fill="currentColor"
d="M1450 1835q-68 0 -120 -62q-50 -60 -50 -149t50 -152q51 -64 120.5 -64t119.5 64q52 65 52 152t-52 149q-51 62 -120 62zM1024 939q-106 0 -182 -62q-74 -61 -74 -152t74 -152q75 -61 182 -61t182 61q74 61 74 152t-74 152q-76 62 -182 62zM598 1835q-69 0 -120 -62
q-50 -60 -50 -149t50 -152q50 -64 119.5 -64t120.5 64q50 65 50 152t-50 149q-52 62 -120 62zM1024 597q38 0 62 24t24 62q0 37 -24 61t-62 24t-62 -24t-24 -61q0 -38 24 -62t62 -24zM1792 1024q-54 0 -102 21q-84 -100 -218 -170q102 -150 102 -326v-5q95 -21 156 -96
q62 -74 62 -171q0 -117 -80 -197t-198 -80q-117 0 -196 85q-133 -85 -294 -85t-294 85q-79 -85 -196 -85q-118 0 -198 80t-80 197q0 97 62 171q61 75 158 96v5q0 177 100 326q-134 70 -218 170q-48 -21 -102 -21q-106 0 -181 75t-75 181t75 181t181 75h6q-6 35 -6 85
q0 176 100 302q98 125 242 125q84 0 156 -48q73 -48 120 -133q72 10 150 10t150 -10q47 85 120 133q72 48 156 48q145 0 244 -125q98 -125 98 -302q0 -50 -6 -85h6q106 0 182 -75q74 -74 74 -181t-74 -181q-76 -75 -182 -75z" />
</svg>