<svg xmlns="http://www.w3.org/2000/svg" xmlns:xlink="http://www.w3.org/1999/xlink" version="1.1" viewBox="-10 0 2068 2048">
   <path fill="currentColor"
d="M1924 2048l-342 -343l-32 174h-978l-106 -535l178 -105l88 443h658l26 -141l-616 -617l-494 283q-36 18 -76 9q-38 -9 -58.5 -43t-9.5 -73q13 -40 48 -62l444 -256l-142 -146l-170 100l-64 -320h-96v-110l-182 -182l124 -124l1924 1925zM1640 416l-142 713l166 165
l178 -878h96v-196h-1344l192 196h854zM1010 576l-42 23l142 142q31 -18 43.5 -57t-9.5 -74q-20 -33 -58 -45q-40 -12 -76 11z" />
</svg>