<svg xmlns="http://www.w3.org/2000/svg" xmlns:xlink="http://www.w3.org/1999/xlink" version="1.1" viewBox="-10 0 2058 2048">
   <path fill="currentColor"
d="M1740 1846v-1130h-1432v1130h1432zM1432 0h206v202h102q86 0 146 60t60 147v1437q0 82 -60 142t-146 60h-1432q-86 0 -146 -60t-60 -142v-1437q0 -87 60 -147t146 -60h100v-202h208v202h816v-202zM1024 1659l-58 -58h-4q-193 -173 -250 -250q-96 -115 -96 -216t65 -166
t161 -65q110 0 182 86q71 -86 182 -86q96 0 161 65t65 166q0 99 -96 216q-60 80 -250 250z" />
</svg>