<svg xmlns="http://www.w3.org/2000/svg" xmlns:xlink="http://www.w3.org/1999/xlink" version="1.1" viewBox="-10 0 2068 2048">
   <path fill="currentColor"
d="M96 101l-96 399l1778 447l96 -399zM418 500l-196 -48l48 -202l196 48zM812 601l-196 -53l48 -197l196 48zM1206 697l-196 -48l48 -202l196 53zM1606 798l-202 -48l52 -202l198 48zM270 1101l-96 399l1778 447l96 -399zM592 1500l-198 -48l48 -202l202 48zM990 1601
l-198 -53l50 -197l196 48zM1384 1697l-198 -48l50 -202l196 53zM1778 1798l-196 -48l48 -202l196 48zM432 1034l490 -193l692 173l-490 193z" />
</svg>