<svg xmlns="http://www.w3.org/2000/svg" xmlns:xlink="http://www.w3.org/1999/xlink" version="1.1" viewBox="-10 0 2068 2048">
   <path fill="currentColor"
d="M1534 1230h206v306h308v202h-308v308h-206v-308h-306v-202h306v-306zM308 2046q-130 0 -220 -90q-88 -88 -88 -218q0 -90 54 -168l560 -974v-186q-43 0 -72 -32q-28 -32 -28 -70v-104q0 -82 60 -142q58 -60 140 -60h412q84 0 142 60q60 60 60 142v104q0 38 -28 70
q-29 32 -72 32v186l254 446q-156 40 -272 152q-115 111 -160 266l-440 -442l-384 662q-20 28 -20 58q0 42 30 74q28 32 72 32h752q38 114 120 202h-872zM1022 818q-40 0 -71 31t-31 72t31 72t72 31t72 -31t31 -72t-31 -72t-73 -31z" />
</svg>