<svg xmlns="http://www.w3.org/2000/svg" xmlns:xlink="http://www.w3.org/1999/xlink" version="1.1" viewBox="-10 0 2068 2048">
   <path fill="currentColor"
d="M818 923q172 0 292 -120t120 -291t-120 -291t-291 -120t-291 120t-120 291t120 291t290 120zM818 308q86 0 146 60t60 144t-60 144t-144 60t-144 -60t-60 -144t60 -144t142 -60zM1154 1072q-184 -48 -335 -48t-333 48q-203 51 -336 135q-150 101 -150 230v308h1134
l-4 -43q-6 -22 -6 -63q0 -38 10 -91q20 -134 96 -250q33 -48 68 -82q35 -36 76 -67q-102 -49 -220 -77zM928 1548h-736v-111q0 -33 96 -86q98 -54 232 -92q154 -38 298 -38q84 0 206 19q-77 139 -96 308zM2048 1538v207h-410v202l-306 -308l306 -307v206h410z" />
</svg>