<svg xmlns="http://www.w3.org/2000/svg" xmlns:xlink="http://www.w3.org/1999/xlink" version="1.1" viewBox="-10 0 2068 2048">
   <path fill="currentColor"
d="M746 420q152 0 261 109t109 262q0 152 -109 261t-261 109q-153 0 -262 -109t-109 -261q0 -153 109 -262t262 -109zM746 1349q138 0 305 44q184 43 300 122q140 92 140 205v187h-1490v-187q0 -114 139 -205q115 -79 301 -122q167 -44 305 -44zM1469 451q139 157 139 346
q0 191 -139 330l-157 -157q57 -78 57 -179t-57 -183zM1774 141q179 184 242 419q63 236 0 469t-242 412l-152 -149q130 -148 173.5 -327t0 -357t-173.5 -318z" />
</svg>