<svg xmlns="http://www.w3.org/2000/svg" xmlns:xlink="http://www.w3.org/1999/xlink" version="1.1" viewBox="-10 0 2068 2048">
   <path fill="currentColor"
d="M230 0q-96 0 -163 67t-67 162v1590q0 95 67 162t163 67h1588q96 0 164 -67q66 -66 66 -162v-1590q0 -96 -66 -162q-68 -67 -164 -67h-1588zM1024 229q267 0 474 160l-244 246q-106 -64 -230 -64q-186 0 -319 133t-133 320t132 320l-244 245q-108 -114 -168 -258
q-62 -148 -62 -307q0 -218 106 -400q107 -182 288 -288q183 -107 400 -107zM1658 549q160 208 160 475q0 161 -60 307q-61 144 -168 258l-246 -245q134 -133 134 -320q0 -123 -64 -229z" />
</svg>