<svg xmlns="http://www.w3.org/2000/svg" xmlns:xlink="http://www.w3.org/1999/xlink" version="1.1" viewBox="-10 0 2068 2048">
   <path fill="currentColor"
d="M626 1787q-170 -63 -291 -201q-122 -138 -161 -322l-168 -797q-19 -86 27 -157q44 -68 127 -88l1003 -212q85 -19 156 27q69 45 84 127l39 173l446 96q82 20 127 89q46 71 27 151l-168 802q-39 193 -168 332q-128 139 -310 199q-182 61 -372 22q-238 -52 -398 -241z
M1845 635l-1003 -216l-168 807q-29 136 14 261q44 128 144.5 219.5t234.5 119.5q137 29 264 -14q130 -44 221 -142q92 -99 120 -238zM1432 1485q-48 82 -137 122q-89 41 -185 20q-94 -20 -163 -94q-68 -72 -77 -168zM664 322l-461 101l173 803q24 107 86 196
q-15 -121 10 -245l43 -206q-71 -9 -105 -67q5 -48 40 -87q36 -39 89 -48h24l82 -394q5 -30 19 -53zM1336 1048q24 -43 72 -63q47 -19 101 -7q53 12 89 48q37 37 41 84q-24 44 -72 63q-47 20 -101 7q-53 -12 -89 -48q-37 -36 -41 -84zM837 942q23 -42 69 -62t99 -8t89 48
t45 85q-27 42 -74 62q-45 20 -99 7q-52 -12 -88 -48q-37 -36 -41 -84zM1019 250l202 39l-15 -82z" />
</svg>