<svg xmlns="http://www.w3.org/2000/svg" xmlns:xlink="http://www.w3.org/1999/xlink" version="1.1" viewBox="-10 0 2058 2048">
   <path fill="currentColor"
d="M279 1861h1302v187h-1302q-74 0 -128 -54q-55 -55 -55 -133v-1303h183v1303zM1952 375v1116q0 73 -55 128t-128 55h-1115q-78 0 -133 -55t-55 -128v-1116q0 -78 55 -133q54 -54 133 -54h296q25 -82 98 -135t161 -53t161 53t98 135h301q74 0 128 54q55 55 55 133z
M1115 279q0 35 31 66q30 30 65 30t63 -30q29 -31 29 -66q0 -34 -26 -63q-25 -28 -68 -28q-42 0 -67 28q-27 30 -27 63zM1490 1024l-466 -370v741z" />
</svg>