<svg xmlns="http://www.w3.org/2000/svg" xmlns:xlink="http://www.w3.org/1999/xlink" version="1.1" viewBox="-10 0 2068 2048">
   <path fill="currentColor"
d="M1024 906q50 0 84 34t34 84t-34 84t-84 34t-84 -34t-34 -85t33 -84t85 -33zM94 94q130 -129 382 -82q251 48 548 244q295 -195 548 -244q252 -47 382 82q128 129 80 380q-48 254 -244 550q196 295 244 548q48 252 -80 382q-130 129 -382 82q-253 -49 -548 -244
q-297 196 -548 244q-252 47 -382 -82q-128 -130 -80 -382q48 -255 242 -548q-194 -294 -242 -550q-48 -251 80 -380zM1450 598q111 118 202 230q123 -198 158 -348q37 -151 -27 -215t-215 -29q-149 36 -348 160q118 98 230 202zM598 1450q-104 -112 -202 -230
q-122 196 -158 348q-36 151 28 214q64 65 214 30q148 -36 348 -160q-112 -92 -230 -202zM262 262q-60 67 -24 218q35 150 158 348q99 -121 206 -228q105 -105 226 -204q-200 -124 -348 -160q-150 -35 -218 26zM772 1276q113 114 252 230q137 -116 252 -230
q114 -114 230 -252q-111 -132 -230 -252q-115 -114 -252 -230q-139 116 -252.5 230t-229.5 252q121 144 230 252zM1786 1786q60 -67 24 -218q-36 -152 -158 -348q-99 120 -205.5 226.5t-226.5 205.5q199 124 348 160q150 35 218 -26z" />
</svg>