<svg xmlns="http://www.w3.org/2000/svg" xmlns:xlink="http://www.w3.org/1999/xlink" version="1.1" viewBox="-10 0 2058 2048">
   <path fill="currentColor"
d="M1412 646q166 -100 266 -275q98 -172 98 -371h-212q0 148 -74 270q-73 123 -196 197q-123 73 -270.5 73t-269.5 -73q-124 -74 -198 -197q-72 -122 -72 -270h-212q0 197 98 371q100 175 266 275q-172 107 -270 283q-99 177 -96 376q3 202 108 376q106 177 280 273
q175 97 376 94q202 -3 376 -109q174 -107 272 -280q100 -174 96.5 -377t-108.5 -373q-97 -168 -258 -263zM1024 1833q-148 0 -270 -73q-124 -74 -198 -197q-72 -122 -72 -270q0 -107 42 -205q42 -95 120 -174q73 -75 174 -119q97 -43 204 -43q147 0 270 73q123 74 196 197
q74 122 74 271q0 148 -74 270q-73 123 -196 197q-123 73 -270 73z" />
</svg>