<svg xmlns="http://www.w3.org/2000/svg" xmlns:xlink="http://www.w3.org/1999/xlink" version="1.1" viewBox="-10 0 2058 2048">
   <path fill="currentColor"
d="M946 0v96l-70 -61l-322 384l300 187v-218l-22 -13l114 -135v1808h186v-910l180 -179q164 25 348 -48q158 -66 274 -183l-130 -131q-84 88 -222 140q-155 57 -266 35l-184 -192v-580h-186zM1412 279q-78 0 -134 55q-54 54 -54 133t54 133t132 54q76 0 130 -54
q54 -55 54 -133t-55 -133t-127 -55zM854 632l-366 362q-132 132 -204 248q-84 132 -170 353l174 66q67 -171 130 -279q54 -93 144 -188l126 127l-462 462l132 130l496 -496v-785z" />
</svg>