<svg xmlns="http://www.w3.org/2000/svg" xmlns:xlink="http://www.w3.org/1999/xlink" version="1.1" viewBox="-10 0 2068 2048">
   <path fill="currentColor"
d="M1206 2048h-898q-134 0 -222 -87q-86 -86 -86 -221v-101h1134q-10 32 -10 101q0 162 82 308zM1206 1433h-898v-1125q0 -135 86 -222q86 -86 222 -86h1124q134 0 220 86q88 87 88 222v101h-202v-101q0 -48 -29 -77t-75 -29t-75 29t-29 77v827q-135 24 -246 103
q-114 80 -186 195zM616 615h716v-206h-716v206zM616 1024h614v-207h-614v207zM1538 1433v615l510 -308z" />
</svg>