<svg xmlns="http://www.w3.org/2000/svg" xmlns:xlink="http://www.w3.org/1999/xlink" version="1.1" viewBox="-10 0 2068 2048">
   <path fill="currentColor"
d="M1262 1422l160 -160l232 238l234 -238l160 160l-238 233l238 233l-160 160l-234 -238l-232 238l-160 -160l238 -233zM992 1546v-222h-552v222h552zM1546 884h-1106v218h848q-137 94 -216 238q-80 146 -80 320q0 177 88 326h-858q-92 0 -158 -65q-64 -64 -64 -157v-1542
q0 -93 64 -157q66 -65 158 -65h1542q92 0 157 65t65 157v859q-150 -88 -332 -88l-108 10v-119zM1546 662v-222h-1106v222h1106z" />
</svg>