<svg xmlns="http://www.w3.org/2000/svg" xmlns:xlink="http://www.w3.org/1999/xlink" version="1.1" viewBox="-10 0 2058 2048">
   <path fill="currentColor"
d="M1526 1247q164 0 280 117l118 -117v403h-398l178 -178q-76 -75 -178 -75q-104 0 -176 75q-74 76 -74 178t73 175t177 73q60 0 111.5 -26t88.5 -72h170q-42 112 -143.5 180t-226.5 68q-164 0 -281 -117t-117 -284q0 -166 117 -283t281 -117zM1128 0l598 600v417
q-83 -19 -150 -19h-50v-300h-502v-501h-698v1603h618q24 101 80 196h-698q-84 0 -142 -58q-60 -59 -60 -138v-1603q0 -79 59 -138t143 -59h802z" />
</svg>