<svg xmlns="http://www.w3.org/2000/svg" xmlns:xlink="http://www.w3.org/1999/xlink" version="1.1" viewBox="-10 0 2058 2048">
   <path fill="currentColor"
d="M637 1395h667v-92q0 -152 109 -261t261 -109h70l-175 -784q-18 -65 -67 -107t-116 -42h-361v188h361l131 579q-152 48 -259 168q-108 121 -133 277h-488q-34 -96 -124 -148q-90 -53 -194 -35q-83 18 -143 78q-62 62 -77 146t20 161q34 75 102 122q67 46 155 46t159 -52
q72 -52 102 -135zM376 1395q-38 0 -67 -26t-29 -66q0 -39 29 -65t65 -26t65 26q28 25 28 65q0 41 -28 66q-29 26 -63 26zM1674 1024q-113 0 -196 81t-83 198q0 118 83 199q82 80 198 80t196 -80q81 -81 81 -199q0 -117 -81 -198t-198 -81zM1674 1395q-34 0 -63 -26t-29 -66
q0 -39 29 -65t65 -26t65 26t29 65q0 40 -29 66t-67 26zM934 1769h-375l557 279v-187h375l-557 -279v187z" />
</svg>