<svg xmlns="http://www.w3.org/2000/svg" xmlns:xlink="http://www.w3.org/1999/xlink" version="1.1" viewBox="-10 0 2068 2048">
   <path fill="currentColor"
d="M1024 1610q0 149 66 279l-66 63l-150 -135q-338 -305 -460 -433q-208 -212 -304 -375q-110 -186 -110 -375q0 -154 74 -283q75 -130 204 -205q128 -74 284 -74q133 0 256 58q118 56 206 153q86 -96 206 -153q123 -58 254 -58q157 0 284 74q130 75 204 205q76 131 76 283
q0 206 -140 423q-127 -62 -270 -62q-165 0 -310 82q-142 81 -222 223q-82 144 -82 310zM2004 1394l-150 -144l-216 216l-216 -216l-144 144l216 216l-216 217l144 149l216 -221l216 221l150 -149l-222 -217z" />
</svg>