<svg xmlns="http://www.w3.org/2000/svg" xmlns:xlink="http://www.w3.org/1999/xlink" version="1.1" viewBox="-10 0 2068 2048">
   <path fill="currentColor"
d="M1024 101q-281 0 -514 110q-235 111 -372.5 299t-137.5 413q0 165 74 312q76 150 204 250q0 68 -48 164q-77 141 -230 298q173 -9 348 -75q172 -64 316 -180q178 48 360 48q280 0 514 -110q237 -112 372 -298q138 -188 138 -411t-138 -411q-136 -188 -372 -299
q-234 -110 -514 -110zM1024 1538q-221 0 -412 -84q-188 -83 -300 -226q-110 -142 -110 -307t110 -308q113 -144 300 -224q191 -81 411.5 -81t410.5 81q188 80 300 224q112 142 112 308q0 165 -112 307q-111 143 -300 226q-190 84 -410 84zM922 1125v207h202v-207h-202z
M922 923h202v-413h-202v413z" />
</svg>