<svg xmlns="http://www.w3.org/2000/svg" xmlns:xlink="http://www.w3.org/1999/xlink" version="1.1" viewBox="-10 0 2068 2048">
   <path fill="currentColor"
d="M1192 46l-104 104l152 152q32 35 32 84q0 50 -32 80l-338 344l98 102l342 -344q76 -84 76 -184.5t-76 -185.5zM812 238l-102 104l58 52q30 32 30 86t-30 84l-58 54l102 102l54 -58q76 -84 76 -184.5t-76 -185.5zM1806 390q-99 0 -182 76l-536 536l104 98l530 -532
q34 -34 84 -34t86 34l58 58l98 -102l-54 -58q-84 -76 -188 -76zM472 672l-472 1330l1330 -474zM1614 962q-99 0 -182 76l-152 152l102 102l152 -152q36 -36 82 -36q48 0 84 36l156 152l98 -98l-152 -156q-84 -76 -188 -76z" />
</svg>