<svg xmlns="http://www.w3.org/2000/svg" xmlns:xlink="http://www.w3.org/1999/xlink" version="1.1" viewBox="-10 0 2068 2048">
   <path fill="currentColor"
d="M1024 0q277 0 514 137q236 137 372 373q138 236 138 514t-138 514q-136 236 -372 373q-237 137 -514.5 137t-513.5 -137q-235 -136 -372 -373q-138 -236 -138 -514t138 -514q137 -237 372 -373q236 -137 514 -137zM1024 202q-298 0 -504 178l1148 1149q178 -244 178 -505
q0 -220 -112 -411q-111 -191 -299.5 -301t-410.5 -110zM1528 1668l-1148 -1149q-178 206 -178 505q0 220 110 411q111 190 300 300q191 111 412 111q298 0 504 -178z" />
</svg>