<svg xmlns="http://www.w3.org/2000/svg" xmlns:xlink="http://www.w3.org/1999/xlink" version="1.1" viewBox="-10 0 2068 2048">
   <path fill="currentColor"
d="M0 1024q0 278 138 514q137 237 372 373q236 137 513.5 137t514.5 -137q236 -137 372 -373q138 -236 138 -514t-138 -514q-136 -236 -372 -373q-237 -137 -514 -137q-200 0 -392 77q-188 76 -333.5 221t-220.5 334q-78 192 -78 392zM1394 1202q38 -87 38 -178
q0 -167 -121 -288t-287 -121v202l-322 -307l322 -308v207q167 0 310 81q141 80 222 224q82 144 82 315q0 173 -96 322zM408 1024q0 -178 96 -327l150 149q-38 85 -38 178q0 168 120 288q120 121 288 121v-202l308 307l-308 308v-207q-168 0 -310 -81q-142 -80 -224 -224
t-82 -310z" />
</svg>