<svg xmlns="http://www.w3.org/2000/svg" xmlns:xlink="http://www.w3.org/1999/xlink" version="1.1" viewBox="-10 0 2068 2048">
   <path fill="currentColor"
d="M2048 1564v212h-864v-212h864zM862 56q234 0 432 58q202 59 314 156q116 99 116 216.5t-116 217.5q-114 98 -314 156q-198 58 -431.5 58t-430.5 -58q-201 -58 -316 -156q-116 -100 -116 -217.5t116 -216.5q113 -97 316 -156q197 -58 430 -58zM0 702q0 114 116 214
q113 96 316 156q197 58 430.5 58t431.5 -58q202 -60 314 -156q116 -100 116 -214v332l-110 -10q-207 0 -372 118q-163 119 -234 306l-146 4q-233 0 -430 -58q-203 -59 -316 -156q-116 -99 -116 -214v-322zM0 1240q0 116 116 216q113 96 316 156q197 58 430 58h106
q0 167 80 312l-186 10q-233 0 -430 -58q-203 -59 -316 -156q-116 -99 -116 -214v-324z" />
</svg>