<svg xmlns="http://www.w3.org/2000/svg" xmlns:xlink="http://www.w3.org/1999/xlink" version="1.1" viewBox="-10 0 2068 2048">
   <path fill="currentColor"
d="M2048 96q-274 0 -540 122q-241 -122 -483.5 -122t-482.5 122q-267 -122 -542 -122v182q173 0 346 62q-84 62 -102 86q-56 56 -56 132v1024q0 152 109 261t263 109q156 0 265 -109t109 -261v-1024q0 -82 -66 -140q-51 -42 -122 -86q145 -54 278.5 -54t279.5 54
q-72 44 -122 86q-66 58 -66 140v1024q0 152 109 261t263 109t263 -109t109 -261v-1024q0 -76 -56 -132q-17 -24 -100 -86q172 -62 344 -62v-182zM746 558v1024q0 78 -54 132t-131 54t-131 -54t-54 -132v-1024l44 -40q66 -52 130 -92q122 70 196 132zM1674 558v1024
q0 78 -56 132q-54 54 -130 54t-130 -54t-54 -132v-1024l52 -40q65 -45 144 -92q103 66 174 132z" />
</svg>