<svg xmlns="http://www.w3.org/2000/svg" xmlns:xlink="http://www.w3.org/1999/xlink" version="1.1" viewBox="-10 0 2058 2048">
   <path fill="currentColor"
d="M1096 1178v125q-59 50 -90 115q-34 70 -34 140v360q0 66 28 130h-744q-86 0 -146 -60q-62 -61 -62 -142v-1644q0 -81 62 -142q60 -60 146 -60h100v716l260 -154l254 154v-716h616q86 0 146 60t60 142v524q-58 -10 -106 -10q-130 0 -242 63q-114 64 -180 168
q-68 106 -68 231zM1874 1433h-442v-255q0 -56 46 -96q46 -39 110 -39q66 0 110 39q42 39 42 96v53h134v-53q0 -105 -88 -180t-200 -75q-110 0 -196 75q-86 74 -86 180v255q-50 0 -88 38t-38 87v360q0 53 38 91q40 39 88 39h562q52 0 92 -36q42 -36 42 -84v-361
q0 -55 -38 -94q-39 -40 -88 -40z" />
</svg>