<svg xmlns="http://www.w3.org/2000/svg" xmlns:xlink="http://www.w3.org/1999/xlink" version="1.1" viewBox="-10 0 2068 2048">
   <path fill="currentColor"
d="M226 0q-96 0 -162 65q-64 64 -64 161v1596q0 92 67 159t159 67h1596q96 0 161 -65t65 -161v-1596q0 -91 -68 -159q-68 -67 -158 -67h-1596zM1024 202q222 0 410.5 110t299.5 301q112 191 112 411t-112 411q-110 190 -300 300q-190 111 -410.5 111t-411.5 -111
q-189 -110 -300 -300q-110 -191 -110 -411t110 -411q112 -191 300.5 -301t411.5 -110zM1024 409q-64 0 -108 45q-46 46 -46 108q0 63 46 109q44 45 107 45t109 -45q46 -46 46 -109q0 -62 -46 -108q-46 -45 -108 -45zM562 870q-62 0 -108 46t-46 108t46 108t108 46t108 -46
t46 -108t-46 -108t-108 -46zM1484 870q-62 0 -108 46q-44 45 -44 108t44 108q46 46 108 46q64 0 110 -46q44 -45 44 -108t-44 -108q-46 -46 -110 -46z" />
</svg>