<svg xmlns="http://www.w3.org/2000/svg" xmlns:xlink="http://www.w3.org/1999/xlink" version="1.1" viewBox="-10 0 2068 2048">
   <path fill="currentColor"
d="M0 409l520 259q-112 154 -112 356t112 356l-520 259v-1230zM408 101h1230l-258 418q-154 -110 -356 -110t-356 110zM2048 409v1230l-520 -259q110 -153 110 -356t-110 -356zM1638 1947h-1230l260 -418q154 110 356 110t356 -110zM1024 615q166 0 287 121t121 288
t-121 288t-288 121t-287 -121q-120 -120 -120 -288t120 -288q120 -121 288 -121zM1024 817q-86 0 -146 60t-60 147t60 147t146 60t146 -60t60 -147t-60 -147t-146 -60z" />
</svg>