<svg xmlns="http://www.w3.org/2000/svg" xmlns:xlink="http://www.w3.org/1999/xlink" version="1.1" viewBox="-10 0 2067 2048">
   <path fill="currentColor"
d="M1998 1436l-674 -1167q-69 -125 -211 -164q-138 -39 -265 38q-82 43 -126 126l-674 1167q-71 128 -36 263q37 137 162 209q76 49 175 49h1348q148 0 249 -101t101 -250q0 -95 -49 -170zM256 1551l668 -1167q23 -39 69 -52q48 -14 90 8q28 16 44 44l668 1167q28 44 14 88
q-13 44 -57 71q-23 17 -55 17h-1348q-43 0 -79 -36t-36 -85q0 -32 17 -55h5zM1023 1086q-93 0 -162 -69q-68 -68 -68 -164q0 -97 68 -165t165 -68q96 0 164 68t68 165q0 96 -68 164q-69 69 -167 69zM733 1612q-98 0 -167 -69t-69 -167t69 -164t164 -66t164 66t69 164
t-69 167t-161 69zM1313 1612q-92 -6 -161 -72t-69 -161q0 -96 69 -165q68 -68 164 -68q95 0 164 66t69 164t-69 167t-167 69z" />
</svg>