<svg xmlns="http://www.w3.org/2000/svg" xmlns:xlink="http://www.w3.org/1999/xlink" version="1.1" viewBox="-10 0 2066 2048">
   <path fill="currentColor"
d="M1122 0v5v202q220 28 396 161q177 133 260 334q84 202 60 423q-39 279 -238 478q-200 200 -478 233v207q278 -28 500 -190t334 -408q113 -247 84 -522q-19 -239 -147 -442q-128 -204 -329 -330q-202 -127 -442 -151zM920 5q-311 28 -548 226l145 149q181 -141 403 -169
v-206zM228 375q-197 237 -226 548h202q33 -225 168 -404zM2 1125q29 307 226 548l144 -144q-139 -182 -163 -404h-207zM517 1678l-145 139q242 198 548 231v-202q-220 -28 -403 -168zM1516 1351l-423 -423q34 -79 15 -166q-20 -90 -84 -154q-65 -66 -161 -82
q-97 -17 -183 22l202 202l-140 139l-201 -202q-44 87 -27 181t84 161q66 66 154 86q86 19 168 -14l418 423q14 14 34 14t34 -14l105 -106q14 -14 17 -36t-12 -31z" />
</svg>