<svg xmlns="http://www.w3.org/2000/svg" xmlns:xlink="http://www.w3.org/1999/xlink" version="1.1" viewBox="-10 0 2068 2048">
   <path fill="currentColor"
d="M864 494l-184 -183l184 -187h392l192 196v192h394q78 0 135 57t57 140v489q0 52 -26 96q-25 45 -70 68v206l-370 -370h274v-489h-764l-192 -197h370v-192h-392v174zM2048 1925l-124 123l-174 -169h-1370q-82 0 -140 -57q-58 -58 -58 -140v-315q-43 -26 -70 -73
q-26 -46 -26 -96v-489q0 -82 58 -140q58 -57 134 -57h110l-388 -388l124 -124zM964 1294h192v-9l-182 -188h-10v197zM768 1198v-293h8l-190 -196h-308v489h490zM1558 1682l-206 -205v13h-584v-100h-388v292h1178z" />
</svg>