<svg xmlns="http://www.w3.org/2000/svg" xmlns:xlink="http://www.w3.org/1999/xlink" version="1.1" viewBox="-10 0 2068 2048">
   <path fill="currentColor"
d="M1792 1538q-28 0 -38 5l-168 -336q76 -77 76 -183t-74 -180q-74 -75 -180 -75q-22 0 -38 5l-168 -337q76 -72 76 -180t-74 -183q-74 -74 -180 -74t-180 74q-76 75 -76 183t78 180l-168 337q-17 -5 -38 -5q-106 0 -181 75t-75 180q0 106 78 183l-168 336q-10 -5 -40 -5
q-104 0 -180 75q-74 74 -74 180t74 180q76 75 181 75t180 -75t75 -182q0 -109 -78 -181l168 -336q17 5 40 5q21 0 38 -5l168 336q-78 77 -78 183q0 105 75 180t180 75t180 -75t75 -180t-75 -180t-179 -75q-28 0 -38 5l-168 -336q76 -72 76 -183t-76 -183l168 -336q10 5 38 5
t38 -5l168 336q-76 77 -76 183t74 180q74 75 180 75q22 0 38 -5l168 336q-76 77 -76 183q0 105 75 180t180 75t180 -75t75 -180t-75 -180t-181 -75z" />
</svg>