<svg xmlns="http://www.w3.org/2000/svg" xmlns:xlink="http://www.w3.org/1999/xlink" version="1.1" viewBox="-10 0 2063 2048">
   <path fill="currentColor"
d="M5 1125h2038q-8 99 -39 207h-773v206h307v202h-206v207h-255v101h-53q-258 0 -485 -123q-225 -122 -368 -331q-142 -207 -166 -469zM2043 923h-2038q24 -262 166 -469q143 -209 368 -331q226 -123 485 -123q245 0 461 111v197h207v202h154v206h158q31 108 39 207z
M1024 486q0 -107 -74 -181t-181 -74t-182 74q-77 75 -77 181q0 105 77 180q75 74 182 74t181 -74t74 -180z" />
</svg>