<svg xmlns="http://www.w3.org/2000/svg" xmlns:xlink="http://www.w3.org/1999/xlink" version="1.1" viewBox="-10 0 2058 2048">
   <path fill="currentColor"
d="M1024 0q124 0 208 87t84 206v100q42 0 70 28q26 27 26 68v105q178 100 286 281q108 178 108 394q0 212 -105 390t-287 284q-180 105 -390 105t-390 -105q-182 -106 -287 -284t-105 -390q0 -214 108 -394q110 -182 286 -281v-105q0 -40 28 -68t68 -28v-100q0 -118 84 -206
q84 -87 208 -87zM1024 197q-42 0 -69 27t-27 69v100h192v-100q0 -41 -28 -69q-26 -27 -68 -27zM1024 686q-129 0 -240 50q-111 51 -194 142h868q-82 -91 -194 -142q-110 -50 -240 -50zM472 1463h122l-154 -151q4 71 32 151zM1084 1463l-394 -389h-210l388 389h216z
M1578 1074h-124l156 151q-5 -71 -32 -151zM964 1074l394 389h210l-388 -389h-216zM1024 1856q127 0 240 -53q111 -52 194 -144h-868q84 92 194 144q114 53 240 53z" />
</svg>