<svg xmlns="http://www.w3.org/2000/svg" xmlns:xlink="http://www.w3.org/1999/xlink" version="1.1" viewBox="-10 0 2068 2048">
   <path fill="currentColor"
d="M2048 341v1366q0 96 -66 162q-68 67 -164 67h-1588q-96 0 -163 -67t-67 -162v-1366q0 -95 67 -162t163 -67h1588q96 0 164 67q66 66 66 162zM1024 795q0 -43 -34 -78q-34 -34 -78 -34h-512q-43 0 -79.5 34t-36.5 78v570h170v-512h118v400h170v-400h112v512h170v-570z
M1306 683q-48 0 -80 32t-32 80v458q0 48 32 80t80 32h118v171h138v-171h86q47 0 82.5 -32t35.5 -80v-458q0 -48 -35.5 -80t-82.5 -32h-342zM1366 853h228v342h-228v-342z" />
</svg>