<svg xmlns="http://www.w3.org/2000/svg" xmlns:xlink="http://www.w3.org/1999/xlink" version="1.1" viewBox="-10 0 2058 2048">
   <path fill="currentColor"
d="M1860 1078q-18 0 -40 23l-96 96l206 206l94 -96q14 -19 14 -41t-14 -41l-122 -124q-24 -23 -42 -23zM1674 1257l-594 585v206h204l594 -595zM888 1938q-247 -23 -448.5 -158.5t-315.5 -346.5q-114 -215 -114 -460q0 -265 130 -489q131 -224 354 -354t484.5 -130
t475.5 118q215 119 350 327q135 209 152 460q-58 -19 -96 -19q-96 0 -174 78l-264 261l-388 -233v-508h-146v585l428 265l-428 430v174z" />
</svg>