<svg xmlns="http://www.w3.org/2000/svg" xmlns:xlink="http://www.w3.org/1999/xlink" version="1.1" viewBox="-10 0 2068 2048">
   <path fill="currentColor"
d="M342 422q-67 -47 -82 -132q-15 -83 34 -154q48 -69 132 -84t153 36t85 132q15 83 -36 152q-52 69 -132 84q-81 15 -154 -34zM1432 1792h-720q-116 0 -202 -72q-87 -71 -106 -187l-202 -971h-202l202 1004q28 187 172 310t338 123h720v-207zM1456 1384h-500l-106 -419
q143 79 256 106q138 39 274 19v-221q-121 24 -250.5 -12t-231.5 -118l-168 -129q-32 -23 -82 -39q-46 -14 -96 -5h-4q-91 15 -146 94q-56 80 -42 176l140 605q19 113 106 181q86 69 196 69h702l390 308l154 -154z" />
</svg>