<svg xmlns="http://www.w3.org/2000/svg" xmlns:xlink="http://www.w3.org/1999/xlink" version="1.1" viewBox="-10 0 2068 2048">
   <path fill="currentColor"
d="M1024 0q277 0 514 137q236 137 372 373q138 236 138 514t-138 514q-136 236 -372 373q-237 137 -514.5 137t-513.5 -137q-235 -136 -372 -373q-138 -236 -138 -514t138 -514q137 -237 372 -373q236 -137 514 -137zM1024 202q-223 0 -411.5 110t-300.5 301
q-110 191 -110 411t110 411q111 190 300 300q191 111 411.5 111t410.5 -111q190 -110 300 -300q112 -191 112 -411t-112 -411q-111 -191 -299.5 -301t-410.5 -110zM1024 308q145 0 276 55q133 56 232 151l-508 510v-716z" />
</svg>