<svg xmlns="http://www.w3.org/2000/svg" xmlns:xlink="http://www.w3.org/1999/xlink" version="1.1" viewBox="-10 0 2068 2048">
   <path fill="currentColor"
d="M1846 1024h-1644l-202 1024h2048zM1678 1231l38 202h-592v-202h554zM922 1231v202h-590l38 -202h552zM288 1639h634v207h-672zM1124 1846v-207h634l40 207h-674zM922 615h202v308h-202v-308zM1408 534l148 -145l218 217l-144 144zM274 606l222 -217l144 145l-218 216z
M102 0h306v202h-306v-202zM1638 0h308v202h-308v-202zM1024 510q139 0 256 -68q121 -70 188 -185q70 -119 70 -257h-206q0 124 -92 216t-216 92t-216 -92q-92 -91 -92 -216h-206q0 137 70 257q67 116 186 185q118 68 258 68z" />
</svg>