<svg xmlns="http://www.w3.org/2000/svg" xmlns:xlink="http://www.w3.org/1999/xlink" version="1.1" viewBox="-10 0 2058 2048">
   <path fill="currentColor"
d="M287 0q-78 0 -133 55t-55 129v1493q0 74 55 129t133 55h624q-66 -130 -66 -280q0 -173 88 -325q87 -151 238 -238q150 -87 325 -87q53 0 96 8v-380l-559 -559h-746zM937 140l515 511h-515v-511zM1404 1118q-21 0 -26 18l-18 122l-78 44l-114 -44q-21 0 -30 9l-92 161
q-9 18 4 31l101 79q-5 25 -5 45q0 21 5 46l-101 74q-13 13 -4 31l92 162q4 13 30 13l114 -48q42 29 78 43l18 127q4 17 26 17h188q18 0 22 -17l17 -127q39 -15 79 -43l113 48q27 0 31 -13l91 -162q9 -18 -4 -31l-101 -74l5 -48q0 -18 -5 -43l101 -79q13 -13 4 -31l-91 -161
q-4 -9 -31 -9l-113 44q-48 -30 -79 -44l-17 -122q-4 -18 -22 -18h-188zM1496 1441q61 0 100 42t39 100q0 60 -39 99t-98 39t-101 -39q-41 -38 -41 -99q0 -59 41 -100q42 -42 99 -42z" />
</svg>