<svg xmlns="http://www.w3.org/2000/svg" xmlns:xlink="http://www.w3.org/1999/xlink" version="1.1" viewBox="-10 0 2058 2048">
   <path fill="currentColor"
d="M870 0l222 318q-110 -39 -225 -39t-220 39zM64 467l387 -31q-90 72 -148 170q-55 93 -74 214zM64 1395l165 -349q23 115 76 211q56 100 146 173zM1671 467l-166 353q-18 -114 -76 -214q-59 -100 -141 -174zM1984 1116h-187q0 147 -54 285q-53 136 -164 244
q-113 110 -243 162q-135 54 -284 54v187q184 0 353 -69t305 -203q137 -136 205 -305q69 -172 69 -355zM1610 1116h-183q0 76 -28 144q-29 70 -81 122q-50 50 -122 80q-70 29 -144 29v183q109 0 214 -42t183 -120t120 -183q41 -102 41 -213zM870 654q112 0 195 81t83 196
t-83 198t-198 83t-196 -83q-80 -81 -80 -198q0 -116 80 -196q81 -81 199 -81zM870 467q-128 0 -234 63q-105 62 -169 170t-64 233t64 233q63 107 169 168t234 61q127 0 233 -61q105 -61 167 -168q61 -106 61 -233t-61 -233q-62 -108 -167 -170q-107 -63 -233 -63z" />
</svg>