<svg xmlns="http://www.w3.org/2000/svg" xmlns:xlink="http://www.w3.org/1999/xlink" version="1.1" viewBox="-10 0 2068 2048">
   <path fill="currentColor"
d="M754 1035q87 116 143 186q164 208 300 343q78 79 229 186l28 19q63 39 72 110q9 72 -43 124q-33 33 -79 42q-47 9 -83 -14q-157 -76 -334 -243q-139 -138 -305 -343l-143 -186zM1035 753q116 87 186 143q202 161 343 301q82 82 186 229l19 28q38 63 109 72q72 9 124 -43
q34 -34 43 -79q9 -46 -14 -83q-76 -156 -243 -334q-139 -138 -343 -305l-186 -143zM854 353l-286 -281l-357 -72l-48 48l233 233q85 -15 143 43q43 48 43 108q0 59 -45 104q-46 46 -105 46q-60 0 -107 -43q-29 -29 -38 -72q-10 -45 -5 -81l-233 -224l-48 48l71 357l282 287
l142 286l196 -196l-105 -181l167 -162l190 90l196 -195z" />
</svg>