<svg xmlns="http://www.w3.org/2000/svg" xmlns:xlink="http://www.w3.org/1999/xlink" version="1.1" viewBox="-10 0 2068 2048">
   <path fill="currentColor"
d="M942 202q-199 20 -366 125l-100 -178q205 -129 446 -149zM1590 433q-142 -133 -326 -197l68 -198q237 71 408 246zM342 553q-108 163 -140 351l-202 -29q29 -245 174 -442zM2048 1024v67l-202 -14v-53q0 -174 -64 -322l188 -82q78 189 78 404zM408 1567l-154 135
q-158 -182 -226 -418l194 -53q56 186 186 336zM1038 2048h-14q-236 0 -448 -96l92 -188q171 82 356 82h18zM1538 1947h-206v-615h614v206h-264l278 284l-144 144l-278 -274v255z" />
</svg>