<svg xmlns="http://www.w3.org/2000/svg" xmlns:xlink="http://www.w3.org/1999/xlink" version="1.1" viewBox="-10 0 2068 2048">
   <path fill="currentColor"
d="M0 222l146 142q-46 56 -46 122v978q0 78 58 136q58 56 134 56h1148l292 294l124 -124l-1728 -1728zM292 1464v-950l102 96v170h168l124 122v170h168l96 100h-264v192h462l96 100h-952zM394 880h192v192h-192v-192zM1564 880h192v192h-192v-192zM1756 780h-192v-192h192
v192zM1270 880h192v192h-114l-78 -78v-114zM1170 780h-114l-78 -78v-114h192v192zM2048 486v978q0 60 -34 110q-35 51 -90 74l-182 -184h114v-978h-1092l-192 -192h1284q78 0 135 57t57 135zM1462 780h-192v-192h192v192z" />
</svg>