<svg xmlns="http://www.w3.org/2000/svg" xmlns:xlink="http://www.w3.org/1999/xlink" version="1.1" viewBox="-10 0 2058 2048">
   <path fill="currentColor"
d="M1303 1420l267 157l-70 113l-336 -200v-468h139v398zM1910 1398q0 175 -87 325q-87 151 -238 238q-150 87 -330 87q-131 0 -246 -48q-118 -49 -208 -139h-475q-78 0 -133 -55t-55 -129v-1493q0 -74 55 -129t133 -55h91v651l236 -140l231 140v-651h559q78 0 133 55t55 129
v677q127 92 203 231t76 306zM1722 1398q0 -128 -63 -234q-63 -107 -170 -170t-234 -63t-233 63t-168 170q-61 106 -61 234q0 127 61 233q62 108 168 169t233 61q128 0 234 -61t170 -169q63 -106 63 -233z" />
</svg>