<svg xmlns="http://www.w3.org/2000/svg" xmlns:xlink="http://www.w3.org/1999/xlink" version="1.1" viewBox="-10 0 2068 2048">
   <path fill="currentColor"
d="M1538 510h-414v197h414q130 0 223 93t93 224q0 112 -66 195q-69 85 -168 113l148 149q126 -68 202 -188q78 -121 78 -264t-68 -262t-186 -188q-116 -69 -256 -69zM1432 923h-220l200 202h20v-202zM0 231l318 317q-144 57 -232 188q-86 129 -86 288q0 139 68 257
q67 119 184 188q118 69 258 69h412v-197h-412q-130 0 -224 -93q-94 -94 -94 -219q0 -124 82 -217q82 -92 202 -101l212 212h-72v202h278l230 235v178h178l414 409l130 -130l-1716 -1716z" />
</svg>