<svg xmlns="http://www.w3.org/2000/svg" xmlns:xlink="http://www.w3.org/1999/xlink" version="1.1" viewBox="-10 0 2068 2048">
   <path fill="currentColor"
d="M1394 0q179 0 328 90q147 89 236 237q90 147 90 327q0 161 -74 301q-73 138 -202 228q-131 91 -282 116v283q0 118 -100 205v166q0 39 -24 67q-23 28 -62 28h-92q-44 0 -72 -28t-28 -67v-92h-732v92q0 39 -28 67t-72 28h-92q-39 0 -62 -28q-24 -28 -24 -67v-166
q-102 -87 -102 -205v-928q0 -222 192 -298q194 -77 554 -77l112 5q92 -130 233.5 -207t302.5 -77zM1394 188q-126 0 -232 63q-107 63 -168 170q-60 104 -60 233t60 233q61 107 168 168q105 61 232.5 61t233.5 -61q107 -62 170 -168q62 -106 62 -232.5t-62 -233.5
q-64 -107 -170 -170q-107 -63 -234 -63zM1304 837h186v187h-186v-187zM1304 279h186v466h-186v-466zM188 1116h754q-92 -92 -144 -211t-52 -251h-558v462zM328 1395q-58 0 -99 41t-41 100q0 60 42 98q43 40 100 40q58 0 98 -40q38 -39 38 -98t-41 -100t-97 -41zM1164 1395
q-62 0 -100 41q-40 42 -40 100q0 60 42 98q43 40 97.5 40t98.5 -40q42 -39 42 -98q0 -58 -42 -100q-42 -41 -98 -41z" />
</svg>