<svg xmlns="http://www.w3.org/2000/svg" xmlns:xlink="http://www.w3.org/1999/xlink" version="1.1" viewBox="-10 0 2068 2048">
   <path fill="currentColor"
d="M466 1212q41 0 66 28q26 29 26 64q0 37 -26 66q-25 28 -66 28q-126 0 -232 -62q-106 -63 -170 -170q-64 -109 -64 -233.5t64 -232.5q64 -107 169.5 -168.5t232.5 -61.5q69 -169 220 -272q152 -102 338 -102q158 0 292 76q136 76 218 202q82 125 96 284l44 -4
q156 0 266 108q108 108 108 264t-108 264q-110 108 -266 108h-92q-40 0 -66 -28q-26 -29 -26 -66q0 -35 26 -64q26 -28 66 -28h92q78 0 132 -56q54 -54 54 -130t-54 -130q-54 -56 -132 -56h-184v-90q0 -127 -62 -234q-64 -106 -170 -170q-107 -62 -234 -62q-174 0 -302 110
q-129 111 -154 276q-46 -16 -102 -16q-116 0 -198 82q-80 82 -80 198t80 196q82 82 198 82zM1024 1224q12 16 52 74q136 188 136 284q0 78 -54 132t-133 54t-133 -54t-54 -132q0 -96 134 -284zM1024 932l-48 52l-48 62q-56 67 -108 148q-79 110 -114 188q-52 108 -52 200
q0 152 109 261t261 109t261 -109t109 -261q0 -92 -52 -200q-33 -76 -112 -192q-73 -106 -158 -206z" />
</svg>