<svg xmlns="http://www.w3.org/2000/svg" xmlns:xlink="http://www.w3.org/1999/xlink" version="1.1" viewBox="-10 0 2068 2048">
   <path fill="currentColor"
d="M1230 716h202v616h-202v-616zM2048 1024q0 278 -138 514q-136 236 -372 373q-237 137 -514.5 137t-513.5 -137q-235 -136 -372 -373q-138 -236 -138 -514t138 -514q137 -237 372 -373q236 -137 513.5 -137t514.5 137q236 137 372 373q138 236 138 514zM818 510h-410v206
h208v822h202v-1028zM1638 716q0 -86 -60 -146t-146 -60h-202q-86 0 -146 60t-60 146v616q0 86 60 146t146 60h202q86 0 146 -60t60 -146v-616z" />
</svg>