<svg xmlns="http://www.w3.org/2000/svg" xmlns:xlink="http://www.w3.org/1999/xlink" version="1.1" viewBox="-10 0 2068 2048">
   <path fill="currentColor"
d="M302 19v198h-170q-56 0 -94 40q-38 41 -38 97v1543q0 56 38 94t94 38h938q56 0 98 -38q40 -37 40 -94v-1543q0 -57 -40 -97t-98 -40h-164v-198h-604zM198 420h806v906h-806v-906zM1708 623v382l-232 -231l-70 71l282 278l-282 283l70 71l232 -231v382h52l288 -288
l-218 -217l218 -217l-288 -283h-52zM1812 812l94 94l-94 99v-193zM1812 1246l94 94l-94 95v-189z" />
</svg>