<svg xmlns="http://www.w3.org/2000/svg" xmlns:xlink="http://www.w3.org/1999/xlink" version="1.1" viewBox="-10 0 2068 2048">
   <path fill="currentColor"
d="M280 0q-74 0 -129 55t-55 133v370q0 78 56 133q54 54 128 54h-280v188h1116v-188h-278q78 0 132 -54t54 -133v-370q0 -79 -54 -133q-54 -55 -132 -55h-558zM280 188h558v370h-558v-370zM188 1116v466v187h650v-187h-462v-466h-188zM1212 1116q-80 0 -134 54t-54 133v371
q0 79 54 133t134 54h-278v187h1114v-187h-278q74 0 128 -54q54 -55 54 -133v-371q0 -78 -54 -133q-54 -54 -128 -54h-558zM1212 1303h558v371h-558v-371z" />
</svg>