<svg xmlns="http://www.w3.org/2000/svg" xmlns:xlink="http://www.w3.org/1999/xlink" version="1.1" viewBox="-10 0 2068 2048">
   <path fill="currentColor"
d="M1902 1639h-1758q-58 0 -101 -43t-43 -101v-942q0 -58 43 -101t101 -43h1758q58 0 102 43q44 44 44 101v942q0 57 -44 101q-44 43 -102 43zM144 505q-20 0 -34 14t-14 34v942q0 20 14 34t34 14h1758q20 0 34 -14q16 -15 16 -34v-942q0 -19 -16 -34q-14 -14 -34 -14h-1758
zM294 1351v-654h196l198 240l196 -240h198v654h-198v-375l-196 240l-198 -240v375h-196zM1528 1351l-298 -317h198v-337h196v337h198z" />
</svg>