<svg xmlns="http://www.w3.org/2000/svg" xmlns:xlink="http://www.w3.org/1999/xlink" version="1.1" viewBox="-10 0 2068 2048">
   <path fill="currentColor"
d="M1538 1538q0 140 -70 258q-67 115 -188 185q-116 67 -256 67q-102 0 -194 -39q-97 -40 -166 -110q-73 -72 -114 -166q-40 -94 -40 -195q0 -113 46 -214q43 -96 126 -170q-66 -106 -66 -231v-43l-304 -178l-24 -15l-260 68l-28 -96l226 -63l-202 -115l54 -92l200 121
l-56 -231l96 -24l72 259l24 10l274 159q64 -83 154 -130q-61 -46 -92 -108q-34 -64 -34 -137q0 -131 88 -219q90 -89 220 -89t219 89t89 219q0 71 -34 137q-33 63 -92 108q88 46 154 130l274 -159l24 -10l72 -259l96 24l-58 231l202 -121l54 92l-202 115l226 63l-30 96
l-260 -68l-24 15l-302 178v43q0 124 -68 231q86 76 128 170q46 99 46 214z" />
</svg>