<svg xmlns="http://www.w3.org/2000/svg" xmlns:xlink="http://www.w3.org/1999/xlink" version="1.1" viewBox="-10 0 2058 2048">
   <path fill="currentColor"
d="M1024 9q138 0 266 55q131 56 234 155l171 -219l162 123l-205 258q186 281 186 643q0 274 -110 509q-110 234 -297 369q-189 136 -407 136q-139 0 -267 -55q-129 -56 -233 -155l-172 220l-161 -124l204 -257q-185 -279 -185 -643q0 -277 109 -510t298 -369t407 -136z
M1024 209q-165 0 -307 110q-141 109 -222 297t-81 408q0 259 115 471l866 -1114q-163 -172 -371 -172zM1024 1838q165 0 307 -110q139 -108 221 -297q81 -187 81 -407q0 -262 -114 -472l-867 1115q162 171 372 171z" />
</svg>