<svg xmlns="http://www.w3.org/2000/svg" xmlns:xlink="http://www.w3.org/1999/xlink" version="1.1" viewBox="-10 0 2068 2048">
   <path fill="currentColor"
d="M1818 229v1590h-1588v-1590h1588zM1818 0h-1588q-96 0 -163 67t-67 162v1590q0 95 67 162t163 67h1588q96 0 164 -67q66 -66 66 -162v-1590q0 -96 -66 -162q-68 -67 -164 -67zM794 1707v-454h118v-288q0 -90 -67 -157t-161 -67h-112q-96 0 -163 67t-67 157v288h112v454
h340zM624 624q60 0 102 -40q42 -41 42 -99t-43 -101t-101 -43q-57 0 -98 43q-40 41 -40 101q0 59 40 99t98 40zM1706 912l-282 -459l-288 459h570zM1136 1136l288 459l282 -459h-570z" />
</svg>