<svg xmlns="http://www.w3.org/2000/svg" xmlns:xlink="http://www.w3.org/1999/xlink" version="1.1" viewBox="-10 0 2068 2048">
   <path fill="currentColor"
d="M56 1186q-20 0 -38 15t-18 38t18.5 38t37.5 15q20 0 38 -15t18 -38t-18.5 -38t-37.5 -15zM378 1564q-44 0 -74 30q-32 31 -32 76t32 76q30 30 74 30q46 0 76 -30t30 -76t-30 -76t-76 -30zM808 1938q-21 0 -36 17q-14 18 -14 38t14 38q15 17 38 17t38 -17q14 -18 14 -38
t-14 -38q-15 -17 -40 -17zM56 757q-20 0 -38 15t-18 38t18 38t38 15t38 -15t18 -38t-18.5 -38t-37.5 -15zM378 1130q-44 0 -74 33q-32 34 -32 78q0 45 32 76q30 30 74 30q46 0 76 -30t30 -76q0 -45 -30 -78t-76 -33zM1992 1186q-20 0 -38 15t-18 38t18 38t38 15t38 -15
q18 -14 18 -38t-18 -38q-18 -15 -38 -15zM808 1564q-46 0 -76 30t-30 76t30 76t76 30q44 0 77 -30t33 -76t-33 -76t-77 -30zM0 298l410 409l-32 -5q-44 0 -74 30q-32 31 -32 76q0 44 32 78q30 33 74 33q46 0 76 -33t30 -78q0 -9 -4 -31l302 303q-56 11 -96 55t-40 109
q0 64 48 111q48 48 110 48q64 0 110 -41q44 -40 54 -95l304 302q-22 -5 -30 -5q-46 0 -80 30q-32 29 -32 76t32 76q34 30 80 30q44 0 74 -30t30 -76q0 -8 -4 -30l404 408l140 -136l-1750 -1750zM1242 1938q-27 0 -42 17q-14 18 -14 38t14 38q15 17 38.5 17t37.5 -17
q16 -18 16 -38t-16 -38q-14 -17 -34 -17zM1670 485q44 0 76 -31q30 -30 30 -75q0 -46 -30 -76t-76 -30t-76 30t-30 76q0 45 30 75q30 31 76 31zM1670 919q46 0 76 -33t30 -78q0 -46 -30 -76t-76 -30t-76 30t-30 76q0 45 30 78t76 33zM1670 1347q46 0 76 -30t30 -76
q0 -45 -30 -78t-76 -33t-76 33t-30 78q0 46 30 76t76 30zM808 485q43 0 78 -31q32 -30 32 -75q0 -46 -33 -76t-77 -30q-46 0 -76 30t-30 76q0 45 30 75q30 31 76 31zM1992 863q20 0 38 -15q18 -14 18 -38t-18 -38q-18 -15 -38 -15t-38 15t-18 38t18 38t38 15zM808 111
q25 0 40 -17q14 -18 14 -38t-15 -38t-37 -18t-37 18t-15 38t14 38q15 17 36 17zM1242 111q20 0 34 -17q16 -18 16 -38t-15 -38t-38 -18t-38 18t-15 38t14 38q15 17 42 17zM1216 969h26q64 0 112 -45t48 -114q0 -68 -48 -116t-116 -48t-112 48q-46 49 -46 114v25q4 49 46 91
q40 41 90 45zM1242 485q44 0 74 -31q30 -30 30 -75q0 -46 -30 -76t-74 -30q-46 0 -80 30q-32 29 -32 76q0 46 32 75q35 31 80 31z" />
</svg>