<svg xmlns="http://www.w3.org/2000/svg" xmlns:xlink="http://www.w3.org/1999/xlink" version="1.1" viewBox="-10 0 2058 2048">
   <path fill="currentColor"
d="M870 1329q36 0 126 -5q28 -120 96 -216q-109 19 -222 19q-188 0 -350 -43q-163 -43 -262 -115v-288q112 62 274 101q157 38 338.5 38t337.5 -38q164 -40 276 -101v159q84 -20 158 -20h48v-412q0 -112 -110 -204q-111 -94 -300 -149q-187 -55 -409.5 -55t-410.5 55
q-186 55 -298 149q-112 93 -112 204v1026q0 111 112 204q112 94 298 149q188 55 410 55q108 0 198 -14q-58 -92 -78 -197q-43 5 -120 5q-182 0 -334 -39q-124 -33 -206 -91q-72 -44 -72 -72v-230q260 125 612 125zM870 206q184 0 336 39q124 33 206 91q72 44 72 74
q0 32 -72 75q-81 53 -206 86q-151 43 -336 43q-183 0 -334 -43q-125 -33 -206 -86q-72 -43 -72 -75q0 -30 72 -74q82 -58 206 -91q152 -39 334 -39zM1998 1482q0 125 -72 226l-110 -111q28 -52 28 -115q0 -105 -76 -180q-76 -74 -182 -74v154l-232 -231l232 -230v154
q172 0 292 120t120 287zM1586 1588l230 230l-230 230v-153q-168 0 -288 -120t-120 -293q0 -121 66 -225l116 110q-30 58 -30 115q0 106 76 183q74 76 180 76v-153z" />
</svg>