<svg xmlns="http://www.w3.org/2000/svg" xmlns:xlink="http://www.w3.org/1999/xlink" version="1.1" viewBox="-10 0 2068 2048">
   <path fill="currentColor"
d="M124 0l-124 124l302 301q-24 46 -24 87v978q0 106 106 195q104 88 285.5 141t390.5 53q163 0 314 -32q149 -32 258 -91l292 292l124 -123zM476 773q114 65 268 96l326 329h-10q-176 0 -334 -41q-153 -40 -250 -110v-274zM1060 1682q-174 0 -320 -36q-119 -32 -196 -87
q-68 -40 -68 -69v-219q247 119 584 119q92 0 196 -9l230 228q-182 73 -426 73zM732 361l-152 -155q214 -82 480 -82q212 0 390 52q180 52 286 142q106 88 106 194v956l-196 -192v-5l-152 -146q85 -33 152 -78v-274q-158 88 -384 119l-184 -183q168 -4 312 -41
q112 -31 192 -83q64 -45 64 -73t-70 -68q-78 -56 -196 -87q-149 -37 -322 -37t-326 41z" />
</svg>