<svg xmlns="http://www.w3.org/2000/svg" xmlns:xlink="http://www.w3.org/1999/xlink" version="1.1" viewBox="-10 0 2068 2048">
   <path fill="currentColor"
d="M1024 1533q108 0 183 75t75 183q0 107 -75 182t-183 75t-183 -75t-75 -182q0 -108 75 -183t183 -75zM1406 767q108 0 183 75t75 182q0 108 -75 183t-183 75q-106 0 -181 -75t-75 -183q0 -107 75 -182t181 -75zM258 1533q108 0 183 75t75 183q0 107 -75 182t-183 75
t-183 -75t-75 -182q0 -108 75 -183t183 -75zM640 767q108 0 183 75t75 182q0 108 -75 183t-183 75q-106 0 -181 -75t-75 -183q0 -107 75 -182t181 -75zM1024 0q108 0 183 75t75 183q0 107 -75 182t-183 75t-183 -75t-75 -182q0 -108 75 -183t183 -75zM1790 1533
q108 0 183 75t75 183q0 107 -75 182t-183 75t-183 -75t-75 -182q0 -108 75 -183t183 -75z" />
</svg>