<svg xmlns="http://www.w3.org/2000/svg" xmlns:xlink="http://www.w3.org/1999/xlink" version="1.1" viewBox="-10 0 2068 2048">
   <path fill="currentColor"
d="M1897 472q106 151 139 326q33 198 -31 382q-65 185 -204 314q-103 98 -235 162q34 83 -2 162t-118 112q-36 14 -76 14q-86 0 -146 -60t-65 -146h-316q-4 90 -75 146q-69 56 -153 48.5t-139 -67t-55 -141.5q0 -31 10 -58q-251 -87 -408 -292q-28 -33 -21 -76q8 -44 40 -68
q33 -24 67 -24q52 0 80 -16q23 -15 40 -46q39 -116 39 -230q5 -81 19 -164q29 -129 100 -244q72 -114 178 -196q260 -206 594 -206q220 0 417 100q197 101 321 268zM1509 1566q135 -64 237 -170q104 -109 156 -248q81 -245 -10 -470q-88 -207 -290 -337.5t-443 -130.5
q-62 0 -110 8q-235 29 -417 174q-196 157 -240 378q-10 46 -14 144q-9 130 -24 186q-24 102 -72 150q-62 62 -173 62q153 191 384 264q67 -63 153 -56q88 8 149 70q20 19 24 42h364q39 -80 124 -106q87 -28 163 16q14 4 34 24h5zM919 852q-42 0 -76 -30q-33 -28 -36 -73.5
t26 -78.5t74.5 -36.5t78.5 28.5t36 76q3 45 -26 78q-28 31 -72 36h-5zM1398 852q-42 0 -76 -30q-33 -28 -36 -73.5t26 -78.5t74 -36q47 -4 80 28q32 31 35 76q3 46 -28 78q-31 31 -75 36zM790 1028q-4 -19 7 -38q12 -19 34 -24q21 -4 40 10q20 16 24 34q28 86 103 136
q74 51 161 42q85 4 160 -44t103 -134q8 -18 32 -26q21 -8 40 6q29 16 29 48q-28 109 -125 178q-110 76 -239 76h-10q-124 5 -227 -66q-103 -72 -132 -198z" />
</svg>