<svg xmlns="http://www.w3.org/2000/svg" xmlns:xlink="http://www.w3.org/1999/xlink" version="1.1" viewBox="-10 0 2068 2048">
   <path fill="currentColor"
d="M494 1494q64 77 64 180q0 116 -81 197t-195 81q-116 0 -198 -80q-84 -82 -84 -196q0 -116 83 -199t197 -83q36 0 52 4l284 -496l-162 -92l378 -104l106 378l-162 -90zM1770 1394q-93 0 -164 52q-73 53 -98 136h-574v-188l-280 280l280 278v-184h574q25 84 98 134
q74 50 164 50q113 0 196 -80q82 -81 82 -196q0 -116 -82 -198q-84 -84 -196 -84zM1024 654q36 0 48 -4l288 496l-162 92l380 104l104 -380l-162 92l-286 -500q70 -80 70 -180q0 -116 -81 -197t-198 -81t-198 81t-81 195q0 116 80 198q82 84 198 84z" />
</svg>