<svg xmlns="http://www.w3.org/2000/svg" xmlns:xlink="http://www.w3.org/1999/xlink" version="1.1" viewBox="-10 0 2068 2048">
   <path fill="currentColor"
d="M1946 358h102v-206h-102v-102h-308v102h-1230v-102h-306v102h-102v206h102v1438h-102v202h510v-202h-102v-1438h514v102h48v374q-38 9 -60 44q-20 32 -20 72q0 73 62 106v124h62q28 0 48 18q20 16 20 42t-20 46t-50 20q-31 0 -50 -30q-15 -23 -40 -30q-24 -8 -47.5 3.5
t-30.5 38.5q-8 27 6 50q24 44 70 68t94 24q82 0 135 -56t53 -136q0 -56 -34 -106q-34 -48 -92 -68v-8q47 -24 62 -72q16 -49 -8 -92q-20 -34 -54 -54v-378h48v-102h514v1438h-100v202h510v-202h-102v-1438zM308 1310v144l-106 106v-144zM202 1796v-82l106 -102v146l-38 38
h-68zM202 492l106 -106v146l-106 104v-144zM202 800l106 -106v144l-106 106v-144zM202 1108l106 -106v144l-106 106v-154v10zM1846 1310v144l-106 106v-144zM1740 1796v-82l106 -102v146l-40 38h-66zM1740 492l106 -106v146l-106 104v-144zM1740 800l106 -106v144l-106 106
v-144zM1740 1108l106 -106v144l-106 106v-154v10z" />
</svg>