<svg xmlns="http://www.w3.org/2000/svg" xmlns:xlink="http://www.w3.org/1999/xlink" version="1.1" viewBox="-10 0 2068 2048">
   <path fill="currentColor"
d="M462 817q58 0 106 -45t48 -106q0 -60 -48 -108t-108 -48q-62 0 -106 48q-46 49 -46 108q0 60 46 106q44 45 108 45zM716 409l716 716l-510 514l-720 -716v-514h514zM716 202h-514q-82 0 -142 60t-60 147v514q0 96 58 144l720 717q43 62 142 62t146 -62l510 -515
q62 -62 62 -144q0 -97 -62 -144l-716 -717q-47 -62 -144 -62zM1178 380l100 -106l712 707q58 64 58 144q0 43 -16 84q-15 41 -42 60l-558 553l-100 -101l586 -596z" />
</svg>