<svg xmlns="http://www.w3.org/2000/svg" xmlns:xlink="http://www.w3.org/1999/xlink" version="1.1" viewBox="-10 0 2068 2048">
   <path fill="currentColor"
d="M794 142q-220 0 -398 76q-182 77 -288 202q-108 127 -108 278q0 162 132 306q-132 175 -132 392v326q0 74 55 129t133 55h1206q78 0 134 -54q54 -54 54 -130v-326q0 -179 -92 -326l184 -184l-280 -278l-190 192q-204 -110 -438 -104q-231 6 -430 134q-56 -58 -56 -136
t70 -148q68 -68 186 -110t258 -42q95 0 186 24q92 24 166 68l184 -188q-222 -156 -536 -156zM794 886q156 0 300 78q134 73 218 194q82 121 82 238v326h-1206v-326q0 -118 86 -238q86 -121 220 -194q144 -78 300 -78zM838 1026q-213 0 -338 106q-124 107 -124 312v92h182
v-92q0 -130 36 -210q65 -152 244 -208zM1860 1070v-558h188v558h-188zM1860 1444v-188h188v188h-188z" />
</svg>