<svg xmlns="http://www.w3.org/2000/svg" xmlns:xlink="http://www.w3.org/1999/xlink" version="1.1" viewBox="-10 0 2068 2048">
   <path fill="currentColor"
d="M1818 1819h-1588v-1590h1588v1590zM1818 0h-1588q-96 0 -163 67t-67 162v1590q0 95 67 162t163 67h1588q96 0 164 -67q66 -66 66 -162v-1590q0 -96 -66 -162q-68 -67 -164 -67zM572 1595h222v-1142h-452v230h230v912zM1254 453h224q94 0 161 67t67 163v682q0 96 -67 163
t-161 67h-224q-96 0 -164 -67q-66 -66 -66 -163v-682q0 -97 66 -163q68 -67 164 -67zM1254 683v682h224v-682h-224z" />
</svg>