<svg xmlns="http://www.w3.org/2000/svg" xmlns:xlink="http://www.w3.org/1999/xlink" version="1.1" viewBox="-10 0 2058 2048">
   <path fill="currentColor"
d="M1688 206h-100v-206h-206v206h-816v-206h-206v206h-100q-86 0 -146 60t-60 146v1430q0 86 60 146t146 60h920q-90 -71 -154 -206h-766v-1022h1428v163q126 20 206 72v-643q0 -86 -60 -146t-146 -60zM1688 614h-1428v-202h1428v202zM1588 1180q176 0 286 120l120 -120v408
h-406l182 -183q-88 -72 -182 -72q-106 0 -180 75q-74 74 -74 180q0 105 74 179q74 75 180 75q118 0 206 -101h172q-48 116 -148 185q-101 69 -230 69q-168 0 -288 -120t-120 -287q0 -168 120 -288t288 -120z" />
</svg>