<svg xmlns="http://www.w3.org/2000/svg" xmlns:xlink="http://www.w3.org/1999/xlink" version="1.1" viewBox="-10 0 2067 2048">
   <path fill="currentColor"
d="M2047 653l-601 -52l-236 -554l-235 554l-602 52l454 397l-135 589l518 -314l515 314l-135 -589zM1407 1093l39 157l-236 -139l-239 139l65 -266l-209 -183l274 -22l109 -253l105 253l275 22l-210 183zM16 1072q-22 -34 -13 -72q9 -36 39 -59l253 -166l148 127l-301 196
q-21 13 -48 13q-48 0 -78 -39zM42 1830l545 -357l-30 135l-31 127l-384 253q-21 13 -48 13q-52 0 -78 -40q-22 -34 -13 -72q9 -36 39 -59zM587 1024l87 78l-26 109l-506 332q-21 13 -48 13q-52 0 -78 -40q-22 -34 -13 -71q9 -36 39 -59z" />
</svg>