<svg xmlns="http://www.w3.org/2000/svg" xmlns:xlink="http://www.w3.org/1999/xlink" version="1.1" viewBox="-10 0 2068 2048">
   <path fill="currentColor"
d="M1924 2048l-402 -402q-32 36 -74 36h-388q-42 0 -69 -27t-27 -69v-196q-118 -87 -166 -220q-49 -132 -22 -265l-154 -160q-55 130 -50 256q-5 96 26 197h-26q-42 0 -69 -30t-27 -71v-192q-100 -73 -152 -192q-63 -145 -32 -297l-292 -292l124 -124l1924 1925zM1216 320
q-57 -125 -160 -199q-106 -76 -234 -89q-128 -14 -250 37q-42 18 -82 50l342 343q175 -133 384 -142zM1650 1280q73 -105 86.5 -231t-36.5 -242q-52 -117 -150 -194q-132 -96 -292 -99q-155 -3 -284 90zM1060 1879q0 42 27 69t69 27h196q42 0 69 -27t27 -69v-96h-388v96z
M572 1294v96q0 41 26 71q27 29 74 29h96v-13q-76 -71 -132 -183h-64z" />
</svg>