<svg xmlns="http://www.w3.org/2000/svg" xmlns:xlink="http://www.w3.org/1999/xlink" version="1.1" viewBox="-10 0 2068 2048">
   <path fill="currentColor"
d="M2048 1024q0 279 -138 515q-135 233 -372 372q-233 137 -513.5 137t-514.5 -137q-236 -139 -372 -372q-138 -238 -138 -515q0 -276 138 -514q136 -233 372 -372q236 -138 514.5 -138t513.5 138q237 139 372 372q138 236 138 514zM1116 288q149 18 278 91q128 72 222 197
l162 -96q-120 -164 -290 -264q-172 -102 -372 -120v192zM270 480l162 96q95 -125 222 -197q130 -73 280 -91v-192q-201 18 -374 120q-171 101 -290 264zM180 1403l160 -91q-60 -138 -60 -288q0 -149 60 -287l-160 -92q-84 180 -84 379t84 379zM934 1761q-148 -18 -280 -92
q-129 -73 -222 -196l-162 96q119 163 290 264q173 102 374 120v-192zM1778 1569l-162 -96q-92 123 -222 196q-131 74 -278 92v187q200 -22 372 -120q171 -96 290 -259zM1870 1403q82 -180 82 -379t-82 -379l-162 92q62 138 62 287q0 150 -62 288zM1304 1024l-280 -466
l-278 466l278 467z" />
</svg>