<svg xmlns="http://www.w3.org/2000/svg" xmlns:xlink="http://www.w3.org/1999/xlink" version="1.1" viewBox="-10 0 2068 2048">
   <path fill="currentColor"
d="M188 1302h928q38 0 68 26q28 26 28 66t-28 68q-30 28 -68 28h-928q-40 0 -66 -29t-26 -67q0 -40 26 -66t66 -26zM1394 1302h466q40 0 66 26t26 66q0 38 -25.5 67t-66.5 29h-466q-39 0 -64.5 -29t-25.5 -67q0 -40 26 -66t64 -26zM0 1024q0 -125 64 -234q64 -107 170 -170
q106 -62 232 -62q70 -166 220 -268t338 -102q157 0 292 74q137 74 218 202q82 127 96 286l44 -6q152 0 260 110q109 108 114 262h-188q0 -76 -54 -130t-132 -54h-184v-96q0 -126 -62 -232q-63 -107 -170 -168q-106 -62 -234 -62q-174 0 -302 112q-129 110 -154 276
q-53 -18 -102 -18q-116 0 -198 82q-80 80 -80 198q0 50 18 92h-196zM188 1674h188q39 0 64 28q26 29 26 66q0 40 -26 66t-64 26h-188q-40 0 -66 -26t-26 -66q0 -37 26 -66q26 -28 66 -28zM654 1674h1206q41 0 66 28q26 29 26 66q0 40 -26 66t-66 26h-1206q-38 0 -68 -26
q-28 -25 -28 -66q0 -38 28 -66t68 -28z" />
</svg>