<svg xmlns="http://www.w3.org/2000/svg" xmlns:xlink="http://www.w3.org/1999/xlink" version="1.1" viewBox="-10 0 2058 2048">
   <path fill="currentColor"
d="M1860 933q0 254 -109 488q-111 238 -300 401q-191 164 -427 226q-236 -62 -427 -226q-189 -163 -300 -401q-109 -234 -109 -488v-558l836 -375l836 375v558zM1024 1861q171 -48 320 -187q150 -139 240 -332q89 -190 89 -392v-457l-649 -288l-649 288v457q0 202 89 392
q90 193 240 332q149 139 320 187zM1024 436q35 0 61 26t26 61v327l470 292v118l-470 -148v322l118 91v88l-205 -61l-205 61v-88l118 -91v-322l-471 148v-118l471 -292v-327q0 -35 26 -61t61 -26z" />
</svg>