<svg xmlns="http://www.w3.org/2000/svg" xmlns:xlink="http://www.w3.org/1999/xlink" version="1.1" viewBox="-10 0 2058 2048">
   <path fill="currentColor"
d="M1332 1024q0 167 -121 288t-288 121t-288 -121q-120 -120 -120 -288t120 -288q121 -121 288 -121t288 121t121 288zM1687 601l-144 72l29 43h173v616h-173q-75 157 -216 264q263 87 355 236q-77 96 -295 156q-219 60 -493 60q-273 0 -492 -60q-220 -60 -296 -156
q92 -149 356 -236q-142 -109 -217 -264h-173v-616h173q110 -230 342 -341v-173h615v173q100 48 187 135l178 -87q97 -53 125 -159q24 -76 24 -264h202q0 136 -10 221q-15 126 -67 212q-63 111 -183 168zM1437 1024q0 -138 -69 -257q-68 -117 -188 -188q-117 -69 -257 -69
t-257 69q-118 70 -187 188q-70 120 -70 257t70 257q69 118 187 188q117 69 257 69t257 -69q120 -71 188 -188q69 -119 69 -257z" />
</svg>