<svg xmlns="http://www.w3.org/2000/svg" xmlns:xlink="http://www.w3.org/1999/xlink" version="1.1" viewBox="-10 0 2068 2048">
   <path fill="currentColor"
d="M2048 1925l-1924 -1925l-124 124l398 397q-147 32 -236 149q-89 118 -76 263q9 95 60 178q53 84 132 128v151q0 41 30 71q30 29 72 29h192v-210q-91 -90 -142 -215q-50 -121 -50 -253q0 -129 46 -259l160 156q-28 139 20 269q48 133 162 220v192q0 41 30 71q28 29 66 29
h392q42 0 74 -36l220 219v9q0 47 -20 101h124l270 265zM790 914l160 160q-114 -45 -160 -160zM1156 1294h-192v-206l192 197v9zM918 549l-136 -137q128 -92 286 -92q157 0 284 96q92 69 144 172q54 104 54 217q0 155 -92 283l-142 -142q36 -69 36 -141q0 -119 -84 -206
t-208 -87q-71 0 -142 37zM1594 1225q148 -185 148 -420q0 -153 -64 -293q94 9 174.5 62t131.5 135q82 136 38 292q-43 155 -180 238v151q0 31 -24 59zM864 1586h392v96q0 41 -30 71t-70 30h-192q-40 0 -70 -30t-30 -71v-96zM572 1682q0 50 18 101h-114q-42 0 -69 -30
t-27 -71v-96h192v96z" />
</svg>