<svg xmlns="http://www.w3.org/2000/svg" xmlns:xlink="http://www.w3.org/1999/xlink" version="1.1" viewBox="-10 0 2068 2048">
   <path fill="currentColor"
d="M536 1454q46 0 79 33t33 78q0 86 -64 149q-64 64 -154 64q-34 0 -56 -5q56 -97 56 -208q0 -45 33 -78t73 -33zM1796 53q-39 0 -76 31l-966 965l298 299l966 -966q30 -30 30 -76t-30 -76l-148 -146q-30 -31 -74 -31zM536 1242q-130 0 -226 93t-96 230q0 97 -72 157
q-66 56 -142 56q70 100 190 159q118 58 240 58q178 0 304 -126q126 -127 126 -304q0 -136 -94 -230q-92 -93 -230 -93z" />
</svg>