<svg xmlns="http://www.w3.org/2000/svg" xmlns:xlink="http://www.w3.org/1999/xlink" version="1.1" viewBox="-10 0 2068 2048">
   <path fill="currentColor"
d="M1948 905q-40 5 -69 5q-147 0 -281 -55q-135 -56 -244 -160q-118 -118 -174 -277q-54 -154 -36 -317q0 -37 -32 -69t-69 -32q-17 0 -36 14q-52 38 -96 77q-165 169 -204 398q-39 227 58 434q-117 52 -195 142q-81 93 -112 210l-68 -4q-160 0 -274 114q-115 115 -115 274
q0 160 115 275q114 114 274 114h1266q122 0 207 -85t85 -205t-85 -208q-84 -87 -207 -87q-81 0 -151 46l4 -92q0 -48 -4 -68q263 -22 452 -211q36 -36 78 -96q27 -36 -5 -87q-31 -50 -77 -50h-5zM1656 1659q39 0 70 28q30 27 30 68t-30 71t-70 30h-1266q-83 0 -140 -57
t-57 -140q0 -82 57 -139t140 -57h242v-46q0 -114 66 -203q67 -89 172 -121q30 -10 50 -14q40 -5 59 -5q20 0 60 5q8 4 23 9q22 4 36 9l23 14q19 5 32 18l23 14l45 41l42 50l27 55q27 60 27 128v242h339zM1445 1157q-71 -125 -194 -202q-125 -77 -276 -77h-14
q-69 -123 -69 -265q0 -143 69 -266q56 286 258 485q203 201 482 256q-114 69 -256 69z" />
</svg>