<svg xmlns="http://www.w3.org/2000/svg" xmlns:xlink="http://www.w3.org/1999/xlink" version="1.1" viewBox="-10 0 2068 2048">
   <path fill="currentColor"
d="M414 922q166 0 286 120t120 291q0 170 -120 287t-290 117t-290 -117q-120 -116 -120 -287q0 -172 120 -291q120 -120 294 -120zM1382 1533q102 0 177 75t75 183q0 107 -75 182t-179 75t-179 -75t-75 -182q0 -108 75 -183t181 -75zM1430 0q168 0 310 84q139 83 224 225
q84 141 84 308t-84 308q-85 142 -224 222q-142 81 -310 81q-166 0 -308 -81q-139 -80 -220 -222q-82 -141 -82 -308t82 -308q81 -142 220 -225q142 -84 308 -84z" />
</svg>