<svg xmlns="http://www.w3.org/2000/svg" xmlns:xlink="http://www.w3.org/1999/xlink" version="1.1" viewBox="-10 0 2068 2048">
   <path fill="currentColor"
d="M1724 1565h324l-430 430l-430 -430h324v-1512h212v1512zM430 53q-176 0 -303 127t-127 306q0 178 127 305t307 127q178 0 305 -127t127 -305q0 -179 -127 -306t-309 -127zM430 700q-86 0 -149 -63t-63 -151q0 -89 63 -152t153 -63q88 0 151 63t63 152q0 88 -63 151
t-155 63zM430 1130q-176 0 -303 127t-127 306t128 306q126 126 306 126q178 0 304 -126q128 -127 128 -306t-127 -306t-309 -127z" />
</svg>