<svg xmlns="http://www.w3.org/2000/svg" xmlns:xlink="http://www.w3.org/1999/xlink" version="1.1" viewBox="-10 0 2068 2048">
   <path fill="currentColor"
d="M1600 238l-238 105l238 105l106 238l104 -238l238 -105l-238 -105l-104 -238zM974 101q-266 0 -488 130q-224 131 -354 354q-132 224 -132 489t132 489q131 225 353.5 355t489 130t489 -130t354.5 -355q130 -223 130 -489q0 -210 -88 -402l-118 265q14 81 14 137
q0 211 -106 391q-105 181 -286 286q-180 105 -390 105t-390 -105q-181 -105 -286 -286q-106 -180 -106 -391v-13q193 -69 340 -211q144 -140 222 -329q138 170 336 263q202 94 418 94q69 0 134 -9l-146 -316l-462 -210l342 -156q-189 -86 -402 -86zM682 1051q-51 0 -88 35
q-36 34 -36 84q0 51 36 87q38 37 88 37t87 -37t37 -87q0 -49 -38 -84q-36 -35 -86 -35zM1266 1051q-50 0 -86 35q-36 34 -36 84q0 51 36 87q36 37 86 37t87 -37t37 -87q0 -49 -36 -84q-37 -35 -88 -35z" />
</svg>