<svg xmlns="http://www.w3.org/2000/svg" xmlns:xlink="http://www.w3.org/1999/xlink" version="1.1" viewBox="-10 0 2068 2048">
   <path fill="currentColor"
d="M1674 980l-280 -278l-190 192q-189 -102 -410 -102q-253 0 -462 132q-52 -61 -52 -132q0 -82 70 -152t186.5 -109t257.5 -39q203 0 352 84l188 -188q-112 -75 -248 -114q-140 -38 -292 -38q-217 0 -398 74q-183 74 -288 202q-108 129 -108 280q0 171 136 310
q-136 174 -136 388v326q0 74 55 129t133 55h1206q78 0 134 -54q54 -54 54 -130v-326q0 -174 -92 -326zM376 1582v234h-188v-234q0 -163 80 -300q82 -141 220 -222q138 -80 306 -80q34 0 92 10q-219 30 -364.5 200t-145.5 392zM2048 636q0 113 -70 214q-69 101 -174 126
l-130 -126h70q65 0 114 -74q50 -75 50 -148q0 -76 -52 -134t-122 -58v-140q128 0 220 104q94 106 94 236zM1552 584q-96 -92 -96 -222t92 -222t222 -92v140q-70 0 -122 52t-52 122t52 120q53 50 122 50v138q-114 0 -206 66l-100 -100q41 -31 88 -52z" />
</svg>