<svg xmlns="http://www.w3.org/2000/svg" xmlns:xlink="http://www.w3.org/1999/xlink" version="1.1" viewBox="-10 0 2068 2048">
   <path fill="currentColor"
d="M938 814q-111 116 -152 274q-40 158 0 312q42 158 152 278h-748q-78 0 -134 -56t-56 -138v-1150q0 -80 56 -136t134 -56h1534q76 0 132 56t56 136v580q-39 -62 -86 -112q-46 -49 -102 -82v-192h-1534v286h748zM2048 1772l-136 134l-296 -296q-108 68 -228 68
q-180 0 -306 -126t-126 -306t126 -306t305 -126t305 126t126 306q0 127 -66 230zM1626 1246q0 -97 -70 -170q-70 -72 -169 -72t-167 72q-70 73 -70 170.5t70 167.5t168 70t168 -70t70 -168z" />
</svg>