<svg xmlns="http://www.w3.org/2000/svg" xmlns:xlink="http://www.w3.org/1999/xlink" version="1.1" viewBox="-10 0 2068 2048">
   <path fill="currentColor"
d="M850 913q77 124 68 258q-9 131 -103 189t-216 10t-203 -173q-79 -124 -66.5 -257t104.5 -190q95 -58 218 -10q121 48 198 173zM1024 1615q93 0 158 -19q51 -16 78 -38l18 -20l-18 53q-29 56 -78 96q-68 53 -158 53t-158 -53q-49 -33 -78 -96q-20 -45 -20 -53l20 20
q27 22 78 38q65 19 158 19zM1614 750q91 57 104 190q12 133 -68 257q-80 125 -202 173t-216 -10t-102 -189q-10 -134 66 -258q77 -125 200 -173q122 -47 218 10zM1024 1846q131 0 326.5 -151t335.5 -359q160 -231 160 -420q0 -190 -112 -354q-111 -164 -299.5 -262t-411 -98
t-411 98t-300.5 262q-110 164 -110 354q0 189 158 420q141 208 336.5 359t327.5 151zM1024 0q278 0 514 123q238 125 372 336q138 215 138 464q0 208 -166 476q-168 270 -398 452q-251 197 -460.5 197t-461.5 -197q-229 -182 -396 -452q-166 -266 -166 -476q0 -249 138 -464
q135 -212 372 -336q235 -123 514 -123z" />
</svg>