<svg xmlns="http://www.w3.org/2000/svg" xmlns:xlink="http://www.w3.org/1999/xlink" version="1.1" viewBox="-10 0 2058 2048">
   <path fill="currentColor"
d="M1365 708v-384q0 -55 -39 -94q-38 -38 -89 -38h-165v-192h-585v192h-164q-51 0 -89 38q-39 39 -39 94v1495q0 55 39 91q40 37 89 37h498q161 101 347 101q187 0 345 -92q157 -92 249 -249q91 -157 91 -345q0 -228 -137 -409t-351 -245zM391 388h777v293q-183 0 -340 91
q-158 92 -249 249q-92 158 -92 341q0 213 124 393h-220v-1367zM1168 1851q-132 0 -244 -66q-111 -65 -176 -179q-64 -112 -64 -244q0 -133 64 -245t176 -176t244 -64q133 0 245 64q113 65 178 176q66 113 66 245t-66 244q-67 114 -178 179q-113 66 -245 66zM1218 1389
l279 165l-73 119l-352 -211v-489h146v416z" />
</svg>