<svg xmlns="http://www.w3.org/2000/svg" xmlns:xlink="http://www.w3.org/1999/xlink" version="1.1" viewBox="-10 0 2068 2048">
   <path fill="currentColor"
d="M1706 912h-170v-59h-230v342h230v-59h170v117q0 48 -32 80t-80 32h-340q-48 0 -84 -32q-34 -31 -34 -80v-458q0 -49 34 -80q36 -32 84 -32h340q48 0 80 32t32 80v117zM912 912h-170v-59h-230v342h230v-59h170v117q0 48 -35 80t-83 32h-340q-48 0 -80 -32t-32 -80v-458
q0 -48 32 -80t80 -32h340q48 0 83 32t35 80v117zM1818 112h-1588q-96 0 -163 67t-67 162v1366q0 95 67 162t163 67h1588q96 0 164 -67q66 -66 66 -162v-1366q0 -96 -66 -162q-68 -67 -164 -67z" />
</svg>