<svg xmlns="http://www.w3.org/2000/svg" xmlns:xlink="http://www.w3.org/1999/xlink" version="1.1" viewBox="-10 0 2068 2048">
   <path fill="currentColor"
d="M480 1707q-58 0 -98 -40t-40 -99v-544q0 -185 90 -344q91 -158 248 -248q160 -91 344 -91t344 91q157 90 248 248q90 159 90 344v544q0 59 -40 99t-98 40h-314v-454h224v-229q0 -187 -133 -320t-320 -133t-320 133t-133 320v229h222v454h-314zM1818 0h-1588
q-96 0 -163 67t-67 162v1590q0 95 67 162t163 67h1588q96 0 164 -67q66 -66 66 -162v-1590q0 -96 -66 -162q-68 -67 -164 -67z" />
</svg>