<svg xmlns="http://www.w3.org/2000/svg" xmlns:xlink="http://www.w3.org/1999/xlink" version="1.1" viewBox="-10 0 2068 2048">
   <path fill="currentColor"
d="M1532 0l516 515v-515h-516zM2048 1533l-516 515h516v-515zM516 2048l-516 -515v515h516zM0 515l516 -515h-516v515zM1658 389q-172 -167 -404 -227q-115 -30 -230 -30t-230 30q-232 60 -402 230q-170 171 -230 402q-60 230 0 461q59 230 230.5 401t401.5 231t460 0
t402 -231q170 -170 230 -401q30 -115 30 -230t-30 -231q-61 -232 -228 -405zM1514 1515q-132 138 -310 183q-180 45 -360 0t-314 -180q-134 -134 -180 -314q-44 -180 0 -359q46 -181 179.5 -315t314.5 -179q180 -45 360 0t314 179q134 135 180 315q44 179 0 359
q-45 179 -184 311z" />
</svg>