<svg xmlns="http://www.w3.org/2000/svg" xmlns:xlink="http://www.w3.org/1999/xlink" version="1.1" viewBox="-10 0 2068 2048">
   <path fill="currentColor"
d="M1582 279q-192 0 -310 57q-116 -57 -247 -57t-249 57q-116 -57 -310 -57q-126 0 -242 201q-96 160 -162 405q-62 211 -62 327q0 56 84 104q81 47 208 70q48 157 238 264q187 105 446 119v-400q-138 -87 -138 -157q0 -60 96 -83q41 -13 90 -13l48 4q60 9 92 26
q48 22 48 66q0 70 -140 157v400q260 -14 446 -119q191 -107 238 -264q128 -23 210 -70q82 -48 82 -104q0 -116 -62 -327q-66 -248 -160 -405q-117 -201 -244 -201zM298 1199q-65 -14 -110 -35q15 -129 66 -288q53 -152 114 -270q63 -120 104 -139q55 0 116 8h6
q-129 146 -214 379q-56 157 -82 345zM746 1024q-40 0 -66 -26t-26 -65t26 -68q26 -28 66 -28t66 28q26 29 26 68t-26 65t-66 26zM1304 1024q-40 0 -66 -26t-26 -65t26 -68q25 -28 66 -28q39 0 64 28q26 29 26 68t-26 65t-64 26zM1752 1199q-27 -188 -82 -345
q-86 -233 -214 -379h4q61 -8 118 -8q39 18 102 139q64 125 116 270q50 159 64 288q-40 21 -108 35z" />
</svg>