<svg xmlns="http://www.w3.org/2000/svg" xmlns:xlink="http://www.w3.org/1999/xlink" version="1.1" viewBox="-10 0 2068 2048">
   <path fill="currentColor"
d="M1014 414q-234 0 -450 72q-214 72 -396 210l-168 -224q214 -162 474 -252q257 -88 539.5 -88t538.5 88q259 89 474 252l-168 224q-181 -138 -396 -210q-216 -72 -448 -72zM1418 770q-198 -74 -404 -74q-185 0 -360 60q-173 59 -318 164l172 226q224 -168 506 -168
q116 0 224 30q43 -148 180 -238zM674 1374l340 450l92 -124v-234q0 -96 66 -180q-80 -26 -158 -26q-188 0 -340 114zM1934 1352h-406v-234q0 -53 42 -88q43 -34 102 -34t98 34q40 36 40 88v50h124v-50q0 -96 -82 -164q-79 -68 -182 -68t-182 68q-78 68 -78 164v234
q-44 0 -79 35t-35 79v332q0 48 35 83t79 35h514q49 0 86 -34q38 -32 38 -76v-330q0 -48 -36 -86q-34 -38 -78 -38z" />
</svg>