<svg xmlns="http://www.w3.org/2000/svg" xmlns:xlink="http://www.w3.org/1999/xlink" version="1.1" viewBox="-10 0 2064 2048">
   <path fill="currentColor"
d="M1230 1024l-412 -408v308h-814v200h814v308zM2044 1024q0 251 -112 468q-112 218 -308 362q-195 142 -444 182q-246 38 -480 -42t-404 -250q-173 -173 -250 -414h222q72 180 214 306q142 125 326 176q182 52 372 16q187 -36 340 -154q152 -117 238 -287.5t86 -362
t-86 -362.5q-87 -171 -238 -288q-151 -116 -340 -152q-192 -37 -372 14q-184 51 -326 176q-142 126 -214 306h-222q77 -240 250 -412q172 -173 404 -252q234 -80 480 -42q249 40 444 182q196 144 308 362q112 217 112 468z" />
</svg>