<svg xmlns="http://www.w3.org/2000/svg" xmlns:xlink="http://www.w3.org/1999/xlink" version="1.1" viewBox="-10 0 2058 2048">
   <path fill="currentColor"
d="M1015 0q-198 0 -361 103q-165 104 -257 274q-93 172 -89 368q5 198 108 358q104 161 272 248q105 52 170 154q65 101 65 216v19q0 134 87 221t221 87q197 0 312 -163q111 -148 159 -457q38 -267 38 -712l-5 -77q-9 -89 -38 -178q-43 -119 -111 -211q-91 -115 -216 -178
q-154 -72 -355 -72zM1231 1846q-48 0 -77 -29t-29 -77v-19q0 -169 -91 -317q-92 -150 -245 -236q-126 -64 -197 -178q-73 -117 -82 -254q0 -104 38 -202q40 -102 106.5 -176t160.5 -115t190 -41q226 0 360 115q101 87 144 231q29 89 29 168q0 468 -53 745q-39 227 -115 318
q-56 67 -139 67zM1413 572l-768 279q-29 -49 -29 -130q0 -82 48 -202l533 -192q163 81 216 245zM1115 1341l289 -101q-9 152 -63 337l-134 53q0 -149 -92 -289zM1433 736q0 224 -10 331l-408 154q-96 -96 -188 -135q-58 -34 -110 -81z" />
</svg>