<svg xmlns="http://www.w3.org/2000/svg" xmlns:xlink="http://www.w3.org/1999/xlink" version="1.1" viewBox="-10 0 2058 2048">
   <path fill="currentColor"
d="M1669 933q-18 -22 -75 -80l-16 -16q-27 -23 -106 -80q-85 -68 -128 -107q-129 -123 -155 -306q-27 -183 59 -344q-137 32 -288 149q-218 181 -296 464q-78 282 24 549q11 22 11 38q0 43 -40 59q-40 17 -72 -16q-10 -5 -16 -16q-96 -122 -112 -283q-17 -160 48 -304
q-140 119 -214 298t-63 369q10 113 31 170q21 91 80 198q88 141 243 242q151 99 323 120q189 27 368 -16q185 -41 319 -165q160 -143 208 -349q47 -204 -32 -403l-16 -27q-22 -55 -85 -144zM1307 1648q-57 52 -123 69q-91 32 -187 0q-82 -27 -144 -90q97 -27 158 -90.5
t82 -144.5q16 -62 -16 -182l-16 -74q-21 -126 22 -235q37 86 69 123q26 32 101 98q69 62 96 99q42 55 59 123q5 18 5 48q6 69 -24 141q-32 76 -82 115z" />
</svg>