<svg xmlns="http://www.w3.org/2000/svg" xmlns:xlink="http://www.w3.org/1999/xlink" version="1.1" viewBox="-10 0 2058 2048">
   <path fill="currentColor"
d="M1167 1818l614 -619l235 235l-619 614zM1515 927l-337 -332q-20 -21 -46 -31l-123 -471q-10 -47 -49 -69q-40 -23 -82 -10q-44 14 -66 51q-23 40 -13 80l118 445l-256 -527q-21 -42 -61 -56q-42 -16 -82 5q-41 21 -56 61q-15 42 5 82l184 389l-368 -364q-35 -35 -80 -35
q-43 0 -76 33q-34 34 -34 79q0 47 36 77l404 404l-194 77l-210 143l-46 62q-46 72 -51 102q-5 32 41 164l51 133q10 25 36 43t61 18q46 0 77 -31t31 -76q0 -10 -5 -26v-5l-62 -189l133 -108l215 15q102 92 128 169q21 65 -10 118q-21 37 -62 67l-41 20l-378 113l-16 15
q-35 29 -35 82l5 117l700 -56q63 4 113 -41l501 -501q46 -46 46 -118t-46 -118z" />
</svg>