<svg xmlns="http://www.w3.org/2000/svg" xmlns:xlink="http://www.w3.org/1999/xlink" version="1.1" viewBox="-10 0 2058 2048">
   <path fill="currentColor"
d="M1527 776l144 -309l-383 -35q80 72 143 174q38 67 61 161q-76 -22 -161 -22h-39q-52 -125 -168 -202q-115 -76 -254 -76q-128 0 -234 63q-105 62 -169 170t-64 233q0 139 77 255t202 168v39q0 179 87 329q86 149 238 237q150 87 326 87q177 0 327 -87t237 -237t87 -329
q0 -215 -128 -386q-128 -172 -329 -233zM591 933q0 -118 80 -198q81 -81 199 -81q73 0 137 35t98 100q-131 48 -231 148t-148 231q-65 -34 -100 -98t-35 -137zM1331 1861q-127 0 -233 -63t-168 -170q-60 -104 -60 -233t60 -233q62 -106 168 -168q106 -61 233 -61t233 61
q107 62 170 168t63 233t-63 233q-63 107 -170 170q-106 63 -233 63zM1379 1421l266 157l-70 113l-335 -200v-467h139v397zM870 279q-118 0 -223 39l223 -318l222 318q-110 -39 -222 -39zM308 1255q54 104 143 175l-387 -35l165 -349q22 114 79 209zM229 820l-165 -353
l387 -31q-90 72 -148 170q-55 93 -74 214z" />
</svg>