<svg xmlns="http://www.w3.org/2000/svg" xmlns:xlink="http://www.w3.org/1999/xlink" version="1.1" viewBox="-10 0 2068 2048">
   <path fill="currentColor"
d="M268 670q-37 0 -64 -28q-24 -26 -24 -62q0 -37 24 -63q26 -27 64 -27h224q-46 83 -46 180h-178zM446 1112h-266q-38 0 -64 -25q-28 -25 -28 -63q0 -36 28 -62q26 -25 64 -25h266v175zM88 1558q-34 0 -61 -27t-27 -63q0 -35 27 -62t61 -27h358q0 96 46 179h-404zM1868 490
h-1068q-74 0 -126 52t-52 128v709q0 75 52 127t126 52h1068q76 0 128 -52t52 -127v-709q0 -76 -52 -128t-128 -52zM1868 670v87h-1068v-87h1068zM800 1379v-355h1068v355h-1068z" />
</svg>