<svg xmlns="http://www.w3.org/2000/svg" xmlns:xlink="http://www.w3.org/1999/xlink" version="1.1" viewBox="-10 0 2068 2048">
   <path fill="currentColor"
d="M1818 0h-1588q-96 0 -163 67t-67 162v1590q0 95 67 162t163 67h1588q96 0 164 -67q66 -66 66 -162v-1590q0 -96 -66 -162q-68 -67 -164 -67zM1818 1819h-1588v-1590h1588v1590zM1242 805q112 112 112 270q0 157 -112 269l-250 251q-106 112 -266 112t-272 -112t-112 -270
q0 -157 112 -269l154 -155v64q0 91 28 166l4 16l-48 48q-52 53 -52 128q0 76 52 130q55 56 130 56q78 0 132 -53l250 -251q54 -57 54 -130q0 -74 -54 -131q-32 -27 -32 -69q0 -43 30 -72q30 -30 72 -30q41 0 68 32zM1706 725q0 155 -112 267l-154 155v-64q0 -94 -26 -166
l-6 -16l48 -48q54 -54 54 -128q0 -75 -54 -130q-56 -57 -130 -54q-77 3 -132 51l-250 251q-54 59 -54 130q0 73 54 131q32 27 32 69t-30 72t-72 30q-41 0 -68 -32q-112 -112 -112 -270q0 -157 112 -269l250 -251q112 -112 269 -112t269 112t112 272z" />
</svg>