<svg xmlns="http://www.w3.org/2000/svg" xmlns:xlink="http://www.w3.org/1999/xlink" version="1.1" viewBox="-10 0 2068 2048">
   <path fill="currentColor"
d="M1658 851q80 4 154 38q69 32 124 92q55 59 82 129q30 73 30 157q0 82 -32 158t-90 133q-58 59 -132 91q-77 34 -160 34h-1124q-105 0 -198 -41q-89 -40 -160 -111t-112 -163q-40 -92 -40 -200q0 -82 24 -161t72 -144q50 -66 116 -113q67 -48 144 -72q35 -14 74 -17
q48 -4 74 -7q43 -66 102 -120q56 -52 130 -89q75 -38 148 -58q81 -22 154 -22q111 0 212 36q102 37 182 101q80 63 142 154q60 88 84 195zM1038 495q-108 0 -214 46q-104 45 -176 132q71 27 76 29q38 16 68 34l404 245l284 -116l48 -14q-24 -77 -72 -144q-48 -68 -112 -113
q-64 -44 -142 -72q-77 -27 -164 -27zM202 1399l850 -356l-326 -197q-57 -31 -108 -46q-54 -16 -114 -16q-78 0 -146 31q-70 32 -120 84q-47 48 -82 123q-30 68 -30 146q0 63 20 123q20 57 56 108zM1634 1553q48 0 92 -15q41 -14 80 -43l-620 -370l-878 370q46 28 98 43
t104 15h1124zM1888 1394q34 -65 34 -130q0 -68 -26.5 -120t-67.5 -91q-39 -38 -98 -60q-60 -22 -120 -22q-34 0 -74 10q-39 10 -70 24l-68 29l-62 28z" />
</svg>