<svg xmlns="http://www.w3.org/2000/svg" xmlns:xlink="http://www.w3.org/1999/xlink" version="1.1" viewBox="-10 0 2058 2048">
   <path fill="currentColor"
d="M1218 1507l142 192q-81 157 -235 253q-155 96 -334 96t-328 -86t-238 -235q-88 -148 -88 -326q0 -194 106 -352q106 -159 278 -235l25 233q-90 59 -142 154q-50 91 -50 200q0 177 126 303q127 127 304 127q152 0 265 -91t154 -233h15zM1815 1522l-137 66l-298 -405h-495
l-26 -212h359v-218h-379l-30 -323q80 -10 136 -71t56 -147t-63 -149t-152 -63t-152 63t-63 149l117 1189h581l349 460l293 -147z" />
</svg>