<svg xmlns="http://www.w3.org/2000/svg" xmlns:xlink="http://www.w3.org/1999/xlink" version="1.1" viewBox="-10 0 2058 2048">
   <path fill="currentColor"
d="M994 0q-186 0 -318 132t-132 314q0 183 132 309q-149 102 -236 257q-86 156 -86 339q0 182 96 344q95 161 256 257q162 96 354 96q348 0 634 -173l-126 -222q-240 138 -508 138q-186 0 -318 -132t-132 -317q0 -150 94 -270q93 -120 236 -162l664 -179l-66 -246l-568 156
q-71 -12 -119.5 -66t-48.5 -129q0 -74 57 -131t135 -57q48 0 96 24l126 -222q-102 -60 -222 -60z" />
</svg>