<svg xmlns="http://www.w3.org/2000/svg" xmlns:xlink="http://www.w3.org/1999/xlink" version="1.1" viewBox="-10 0 2068 2048">
   <path fill="currentColor"
d="M1024 0q200 0 392 77q188 76 333.5 221t220.5 334q78 192 78 392t-78 392q-75 189 -220.5 334t-333.5 221q-192 77 -392 77t-392 -77q-188 -76 -333.5 -221t-220.5 -334q-78 -192 -78 -392t78 -392q75 -189 220.5 -334t333.5 -221q192 -77 392 -77zM1538 1433v-101
l-106 -101v-270q0 -168 -80 -293q-79 -125 -228 -158v-49q0 -42 -28 -74q-29 -31 -72.5 -31t-71.5 31q-30 32 -30 74v49q-148 33 -228 158q-78 124 -78 293v270l-106 101v101h1028zM1178 1538h-308q0 63 46 109q44 45 107 45t109 -45q46 -46 46 -109z" />
</svg>