<svg xmlns="http://www.w3.org/2000/svg" xmlns:xlink="http://www.w3.org/1999/xlink" version="1.1" viewBox="-10 0 2058 2048">
   <path fill="currentColor"
d="M1790 1275q-42 -4 -74 27q-30 31 -26 79q0 28 -26 43q-27 15 -54 0q-26 -14 -26 -43v-235l178 -53q52 -28 88 -77q37 -49 42 -105q0 -274 -116 -485q-116 -203 -314 -314q-198 -112 -438 -112t-438 112q-198 111 -314 314q-116 211 -116 485q5 58 40 108q35 49 90 74
l176 53v235q0 18 -16 33t-35.5 15t-36.5 -15q-16 -15 -16 -33q4 -48 -26 -79q-32 -32 -76 -27q-42 -4 -74 27q-30 31 -26 79q-4 107 70 182q75 77 184 77t184 -77q75 -76 70 -182v-187h106v585q0 33 -26 45q-27 12 -54 0q-26 -12 -26 -45q5 -44 -26 -77q-32 -33 -74 -24
q-43 -9 -74 24q-32 33 -28 77q-8 110 68 189q76 80 186 80t186 -75q74 -74 70 -184v-562h104v562q-4 111 70 184q74 75 184 75t186 -75q73 -73 68 -184q0 -63 -50 -89q-50 -27 -100 0q-50 26 -50 89q0 33 -28 45q-26 12 -52 0t-26 -45v-586h106v187q0 107 74 178
q74 72 182 72q106 0 182 -77q74 -76 70 -182q4 -48 -26 -79q-32 -32 -76 -27zM880 273q-115 28 -212 96q-94 67 -158 172q-9 15 -30.5 20t-37.5 -10q-16 -14 -20 -36q-2 -20 8 -36q75 -114 186 -194q113 -80 244 -113q18 0 36 10q17 9 24 31q8 21 -4 38q-13 18 -36 22z" />
</svg>