<svg xmlns="http://www.w3.org/2000/svg" xmlns:xlink="http://www.w3.org/1999/xlink" version="1.1" viewBox="-10 0 2068 2048">
   <path fill="currentColor"
d="M1802 978h-146v-393q0 -77 -58 -135q-58 -57 -134 -57h-394v-146q0 -100 -70 -174q-71 -73 -172 -73t-172 73q-70 74 -70 174v146h-394q-76 0 -134 57q-58 58 -58 135v370h148q110 0 185 78t75 188q0 109 -75 187t-185 78h-148v370q0 77 58 135q58 57 134 57h370v-146
q0 -110 78 -185q80 -76 188 -76t188 76q78 75 78 185v146h370q76 0 134 -57q58 -58 58 -135v-393h146q98 0 172 -71q74 -70 74 -171q0 -102 -74 -172q-74 -71 -172 -71z" />
</svg>