<svg xmlns="http://www.w3.org/2000/svg" xmlns:xlink="http://www.w3.org/1999/xlink" version="1.1" viewBox="-10 0 2058 2048">
   <path fill="currentColor"
d="M1518 1854q-38 0 -78 -19q-56 -27 -93 -78q-35 -48 -74 -153q-38 -104 -101 -180q-45 -50 -134 -116q-93 -77 -120 -101q-58 -63 -111 -148q-79 -146 -79 -291q0 -133 65 -248q63 -111 178 -180q112 -67 249 -67q138 0 250 67q115 69 178 180q64 113 64 248h199
q0 -193 -92 -350q-93 -159 -250 -249q-158 -90 -349 -90q-192 0 -349 90q-155 89 -249 249q-93 159 -93 352q0 191 107 381q60 111 143 194q54 54 139 116q71 58 101 88q47 52 65 115q48 138 109 218q64 84 164 134q71 32 161 32q163 0 278 -115t115 -278h-199q0 84 -57 141
q-58 58 -137 58zM594 139l-138 -139q-155 150 -236 347q-83 201 -83 421q0 219 83 420q81 197 236 347l138 -139q-125 -125 -192 -286t-67 -342q0 -182 67 -343t192 -286zM973 768q0 101 74 173q73 72 176 72q101 0 173 -72t72 -173q0 -102 -72 -174t-173 -72
q-103 0 -176 72q-74 72 -74 174z" />
</svg>