<svg xmlns="http://www.w3.org/2000/svg" xmlns:xlink="http://www.w3.org/1999/xlink" version="1.1" viewBox="-10 0 2068 2048">
   <path fill="currentColor"
d="M72 340v62l-72 28v-62zM72 948v62l-72 28v-58zM72 1560v66l-72 30v-62zM62 546v52l-56 28v-56zM62 746v52l-56 30v-54zM62 1158v52l-56 30v-58zM62 1364v56l-56 24v-52zM258 374v76l-100 38v-76zM258 990v72l-100 38v-72zM258 1608v72l-100 38v-72zM254 588v68l-82 28
v-66zM254 794v62l-82 34v-72zM254 1200v68l-82 28v-66zM254 1406v68l-82 34v-68zM446 420v86l-130 54v-86zM446 1034v86l-130 52v-86zM446 1646v86l-130 52v-90zM436 636v76l-106 40v-72zM436 838v76l-106 42v-76zM436 1248v78l-106 42v-76zM436 1444v82l-106 38v-76z
M646 416v114l-162 64v-116zM646 1028v116l-162 62v-110zM646 1642v114l-162 62v-114zM636 626v106l-134 58v-106zM636 832v106l-134 52v-104zM636 1244v106l-134 52v-106zM636 1440v106l-134 52v-100zM856 396v150l-176 72v-150zM856 1010v148l-176 72v-148zM856 1622v148
l-176 72v-148zM846 622v124l-152 62v-128zM846 818v124l-152 58v-124zM846 1234v130l-152 56v-124zM846 1430v130l-152 62v-130zM1072 320v206l-192 76v-190q111 -60 192 -92zM1072 546v176l-192 82v-178zM1072 746v182l-192 76v-176zM1072 948v176l-192 82v-182zM1072 1148
v182l-192 82v-182zM1072 1350v180l-192 82v-182zM1072 1550v192q-131 51 -192 80v-190zM2048 330v1430q-180 -118 -454 -118q-231 0 -504 90v-192q149 -56 326 -80v-470q-149 20 -326 106v-134q149 -68 326 -96v-454q-146 24 -326 100v-202q245 -104 484 -104q260 0 474 124
zM1856 454q-110 -62 -278 -62l-38 4v460h38q151 0 278 44v-446zM1856 1034q-125 -54 -278 -54h-38v470h38q162 0 278 38v-454z" />
</svg>