<svg xmlns="http://www.w3.org/2000/svg" xmlns:xlink="http://www.w3.org/1999/xlink" version="1.1" viewBox="-10 0 2068 2048">
   <path fill="currentColor"
d="M1822 471l-82 140v211l-134 163l-40 169l-134 77l-48 -92l96 -53l34 -149l72 -86q14 -15 12 -36q-4 -22 -20 -36q-16 -15 -38 -12t-36 17l-86 105l-30 130h-8q-37 5 -48 5q-107 0 -184 -63q-4 102 -36 183q-32 85 -74 130l-168 178l-58 370l-192 125l-52 -87l152 -100
l48 -332l50 -144q-84 -74 -116 -231l-34 62q-68 125 -100 173l-10 15q-43 61 -72 91q-46 55 -102 87q-33 20 -78 29q-46 9 -84 0q-83 -20 -136 -87q-38 -52 -58 -115q-9 -28 -28 -116l96 -29q50 127 98 169q51 43 94.5 4t91.5 -153q27 -55 72 -193l20 -53q91 -254 168 -391
q77 -139 172 -219q145 -125 312 -125q91 0 202 77q93 68 168 163q29 44 84 39q56 -4 84 -53l92 -159q-18 -9 -34 -24q-28 -34 -28 -74q0 -41 28 -70l116 115h10q62 0 90 58l112 236l-102 52z" />
</svg>