<svg xmlns="http://www.w3.org/2000/svg" xmlns:xlink="http://www.w3.org/1999/xlink" version="1.1" viewBox="-10 0 2058 2048">
   <path fill="currentColor"
d="M188 0h1485q38 0 67 29t29 67v371q0 39 -29 65t-67 26h-1485q-40 0 -66 -26t-26 -65v-371q0 -38 26 -67t66 -29zM188 745h1485q37 0 67 27q29 26 29 65v65l-235 -104l-601 266v239h-745q-40 0 -66 -26t-26 -65v-375q0 -39 26 -65q27 -27 66 -27zM188 1491h745
q4 152 63 298t163 259h-971q-41 0 -66 -28q-26 -29 -26 -67v-371q0 -39 26 -65t66 -26zM654 375h91v-187h-91v187zM654 1116h91v-183h-91v183zM654 1861h91v-187h-91v187zM279 188v187h187v-187h-187zM279 933v183h187v-183h-187zM279 1674v187h187v-187h-187zM1534 1024
l418 188v279q0 191 -118 353q-117 160 -300 204q-179 -44 -299 -204q-120 -161 -120 -353v-279zM1534 1203l-231 105v248q0 109 65 198q65 88 166 111v-662z" />
</svg>