<svg xmlns="http://www.w3.org/2000/svg" xmlns:xlink="http://www.w3.org/1999/xlink" version="1.1" viewBox="-10 0 2058 2048">
   <path fill="currentColor"
d="M937 0q-26 0 -79 34q-49 31 -118 110q-73 88 -105 173q-48 124 -19 240q-60 9 -116 33q-52 24 -105 87q-62 86 -67 187q-5 83 19 158q-57 15 -106 44h-4q-26 10 -58 33q-35 25 -43 39q-55 59 -75 141q-21 85 -14 175q8 94 50 164q52 104 116 168q99 99 278 163
q132 44 321 77q403 67 730 -68q223 -93 350 -249q77 -97 98 -187q22 -94 7 -192q-9 -79 -28 -116q-42 -85 -120 -124q-52 -33 -106 -48q39 -125 -62 -231q-48 -53 -111 -81q-46 -15 -48 -15q43 -87 24 -173q-24 -96 -110 -148q-62 -39 -187 -58l-5 -5q-168 -29 -221 -101
q-29 -44 -48 -163q-4 -39 -9 -48q-9 -19 -29 -19zM1412 778h14h5q112 15 180 105q70 93 55 209q-15 119 -100 192q-86 74 -197 65q-111 -15 -178 -106t-55 -206q12 -114 94 -190q79 -74 182 -69zM659 778q100 4 175 80.5t84 190.5q9 112 -63 201q-73 90 -182 99
q-111 9 -194 -70q-85 -81 -94 -194q-9 -121 63 -209q73 -89 182 -98h29zM659 950h-10q-40 8 -69 44q-27 32 -22 74q4 39 38 67q33 26 77 22q42 -4 70 -39q26 -32 21 -74q-4 -40 -32.5 -67t-72.5 -27zM1407 955q-38 0 -67 29q-28 28 -31 70q-3 40 24 72q26 30 72 33
q45 3 77 -26q30 -27 33 -70q3 -41 -26 -74q-29 -34 -72 -34h-10zM668 1450q21 -5 63 4l19 5q137 29 273 29q137 0 274 -29l19 -5q35 -4 58 -4q30 -5 52 9q34 25 15 99t-77 132q-139 144 -341 144q-200 0 -340 -144q-58 -58 -77 -132q-19 -75 14 -99q24 -9 48 -9z" />
</svg>