<svg xmlns="http://www.w3.org/2000/svg" xmlns:xlink="http://www.w3.org/1999/xlink" version="1.1" viewBox="-10 0 2058 2048">
   <path fill="currentColor"
d="M1284 461q0 -39 38 -105q31 -53 72 -106l43 -48l39 48q41 53 72 106q43 67 43 105q0 63 -46 109q-45 45 -110 45t-108 -45q-43 -44 -43 -109zM1692 1332q105 0 180 -75t75 -180q0 -77 -63 -197q-47 -85 -125 -183l-67 -82l-67 82q-78 98 -125 183q-63 120 -63 197
q0 105 75 180t180 75zM1332 1024v822q0 81 -61 142q-60 60 -141 60h-822q-86 0 -146 -60q-61 -61 -61 -142v-822q0 -226 147 -397q146 -170 368 -209v-216h-207v-202h615q168 0 308 101l-145 149q-76 -48 -163 -48h-202v216q217 39 363 209q147 171 147 397zM1130 1024
q0 -168 -120 -288q-121 -121 -291 -121t-291 121q-120 120 -120 288v822h822v-822z" />
</svg>