<svg xmlns="http://www.w3.org/2000/svg" xmlns:xlink="http://www.w3.org/1999/xlink" version="1.1" viewBox="-10 0 2068 2048">
   <path fill="currentColor"
d="M2048 1925l-1924 -1925l-124 124l288 288q-202 262 -202 589q0 265 132 489q131 225 353.5 355t488.5 130q328 0 590 -201l274 274zM764 887h-60l14 -41zM494 951h334l64 69h-398v-69zM1344 1522q-88 0 -148 -59q-63 -61 -72 -142q-63 -44 -128 -4q-8 85 -70 146
q-61 59 -152 59q-88 0 -154 -66t-66 -158q0 -90 66 -155q65 -64 156 -64q78 0 138 48q59 47 78 121q64 -27 132 0l64 64q5 61 45.5 101.5t96.5 44.5l60 55q-28 9 -46 9zM860 489l-316 -315q235 -146 516 -146q267 0 490 130t354 354q130 223 130 489q0 279 -146 517
l-498 -498h236v-69h-300l-70 -64h160l-146 -384q-14 -23 -34 -32q-21 -9 -44 -5l-132 46l-132 -46h-4q-37 -9 -64 23zM932 1298q0 69 -46 115q-44 45 -111 45t-112 -45t-45 -112t44 -112q46 -46 112 -46t112 46t46 109z" />
</svg>