<svg xmlns="http://www.w3.org/2000/svg" xmlns:xlink="http://www.w3.org/1999/xlink" version="1.1" viewBox="-10 0 2058 2048">
   <path fill="currentColor"
d="M732 780q0 -119 87 -203t205 -84t205 84t87 205q0 122 -87 206t-205 84t-205 -84t-87 -208zM1024 1656l388 100v-301q-180 110 -388 110t-388 -110v301zM1024 196q-113 0 -224 44t-191.5 125t-124.5 192q-44 108 -44 225q0 119 44 224q44 108 124 189q84 83 190 128
q108 46 225.5 46t226.5 -46q105 -45 188 -128q81 -81 126 -189q44 -108 44 -224q0 -114 -44 -225q-45 -111 -126 -192t-190 -125q-111 -44 -224 -44zM1804 780q-5 139 -56 274q-49 133 -140 242v752l-584 -196l-584 196v-752q-96 -106 -146 -240q-50 -136 -50 -276
q0 -157 60 -296q62 -147 168 -254q109 -111 252 -171q142 -59 299.5 -59t298.5 59q144 60 254 171q105 107 168 254q60 141 60 296z" />
</svg>