<svg xmlns="http://www.w3.org/2000/svg" xmlns:xlink="http://www.w3.org/1999/xlink" version="1.1" viewBox="-10 0 2058 2048">
   <path fill="currentColor"
d="M1231 0l615 615v1231q0 82 -60 142t-147 60h-1230q-86 0 -146 -60q-61 -61 -61 -142v-1644q0 -81 61 -142q60 -60 146 -60h822zM548 1846l784 -788l-140 -135l-783 784zM1125 716h567l-567 -562v562zM563 923q-64 0 -108 43q-46 44 -46 108q0 65 46 111t108 46t108 -46
t46 -111q0 -64 -46 -108q-44 -43 -108 -43zM1178 1538q-62 0 -108 44t-46 108t46 110t108 46t108 -46t46 -110t-46 -108t-108 -44z" />
</svg>