<svg xmlns="http://www.w3.org/2000/svg" xmlns:xlink="http://www.w3.org/1999/xlink" version="1.1" viewBox="-10 0 2058 2048">
   <path fill="currentColor"
d="M1024 0q168 0 288 120t120 290t-120 290t-288 120q-167 0 -287 -120t-120 -290t120 -290t287 -120zM1024 206q-86 0 -146 60t-60 144t60 144t146 60t146 -60t60 -144t-60 -144t-146 -60zM1024 921q154 0 336 48q206 53 331 134q153 100 153 230v307h-1640v-307
q0 -129 154 -230q125 -81 331 -134q181 -48 335 -48zM1024 1117q-144 0 -297 39q-137 40 -230 91q-96 53 -96 86v111h1246v-111q0 -34 -95 -86q-92 -50 -231 -91q-153 -39 -297 -39zM1125 1842h-201v206h201v-206zM1537 1842h-206v206h206v-206zM717 1842h-206v206h206v-206
z" />
</svg>