<svg xmlns="http://www.w3.org/2000/svg" xmlns:xlink="http://www.w3.org/1999/xlink" version="1.1" viewBox="-10 0 2068 2048">
   <path fill="currentColor"
d="M1926 1279v-154q0 -106 -88 -181q-87 -74 -200 -74q-111 0 -198 74q-90 75 -90 181v154q-44 0 -82 38t-38 87v360q0 52 36 91t84 39h568q52 0 91 -36t39 -84v-361q0 -53 -36 -94q-36 -40 -86 -40zM1792 1279h-308v-154q0 -57 46 -94q46 -36 109 -36t107 36q46 37 46 94
v154zM308 870h816v207h-816v-207zM308 1178h812q-82 87 -96 206h-716v-206zM1024 1692h-716v-207h716v207zM1230 769h-1028v923h-202v-1130l716 -408l716 408v149q-125 53 -202 164v-106z" />
</svg>