<svg xmlns="http://www.w3.org/2000/svg" xmlns:xlink="http://www.w3.org/1999/xlink" version="1.1" viewBox="-10 0 2068 2048">
   <path fill="currentColor"
d="M1484 12q64 0 110 46q44 45 44 108t-44 108q-46 46 -110 46q-62 0 -108 -46q-44 -45 -44 -108t44 -108q46 -46 108 -46zM1846 1627q82 0 142 60t60 145q0 84 -60 144t-142 60q-60 0 -106 -26q-48 -27 -72 -75h-980q-24 48 -72 75q-47 26 -106 26q-82 0 -142 -60t-60 -144
q0 -85 60 -145t142 -60q57 0 106 29q48 28 72 72h436v-562l-332 -231l-306 284q-29 29 -72 26q-44 -3 -72 -36l-314 -336q-28 -28 -28 -73q0 -44 32 -72q31 -29 74 -26q44 3 72 31l244 265l736 -683q30 -30 72 -27q44 3 72 36l230 279h314q36 0 68 29t32 72t-32 72t-68 29
h-362q-53 0 -86 -43l-154 -183l-258 241l302 211q44 29 44 82v615h62q32 -142 146 -243q110 -97 262 -112l-82 -462h154l110 649q-69 -34 -138 -34q-100 0 -180 56q-81 56 -114 146h116q24 -44 72 -72q48 -29 106 -29z" />
</svg>