<svg xmlns="http://www.w3.org/2000/svg" xmlns:xlink="http://www.w3.org/1999/xlink" version="1.1" viewBox="-10 0 2058 2048">
   <path fill="currentColor"
d="M1639 0h-1230q-86 0 -146 60q-61 61 -61 142v1644q0 81 61 142q60 60 146 60h1230q87 0 147 -60t60 -142v-1644q0 -82 -60 -142t-147 -60zM818 202q43 0 74 31t31 75t-31 72q-32 29 -74 29q-44 0 -73 -29q-28 -28 -28 -72t28 -75t73 -31zM510 202q43 0 74 31q32 32 32 75
t-32 72t-74 29q-43 0 -72 -29t-29 -72t29 -75q28 -31 72 -31zM1639 1846h-1230v-1231h1230v1231zM1298 1365q5 111 -77 193q-81 81 -197 81t-197 -81q-82 -82 -74 -193q7 -109 65 -206q56 -122 139 -236l67 -106q274 398 274 548z" />
</svg>