<svg xmlns="http://www.w3.org/2000/svg" xmlns:xlink="http://www.w3.org/1999/xlink" version="1.1" viewBox="-10 0 2058 2048">
   <path fill="currentColor"
d="M121 1183q43 -104 101 -178q57 -72 101 -92q0 -111 43 -173v-4q-5 -40 14 -77q15 -284 183 -467q179 -192 461 -192t461 192q168 183 183 467q19 37 14 77v4q44 64 44 173q47 19 103 92q54 70 98 178q60 141 68 247q9 113 -39 137q-33 15 -79 -19t-94 -101
q-33 148 -173 264q72 28 113 68q41 39 41 86q0 77 -106 130t-254 53q-137 0 -236 -43q-101 -44 -125 -111h-38q-24 67 -125 111q-99 43 -235 43q-149 0 -255 -53t-106 -130q0 -47 41 -86q41 -40 113 -68q-140 -116 -173 -264q-48 67 -94 101t-79 19q-48 -24 -39 -137
q8 -106 68 -247z" />
</svg>