<svg xmlns="http://www.w3.org/2000/svg" xmlns:xlink="http://www.w3.org/1999/xlink" version="1.1" viewBox="-10 0 2068 2048">
   <path fill="currentColor"
d="M1846 988h202v207h-202q-188 0 -414 -106q-192 101 -408 101t-408 -101q-226 106 -414 106h-202v-207h202q211 0 414 -135q182 130 408 130t408 -130q203 135 414 135zM1846 373h202v206h-202q-224 0 -414 -105q-192 101 -408 101t-408 -101q-190 105 -414 105h-202v-206
h202q211 0 414 -135q182 130 408 130t408 -130q203 135 414 135zM2048 1810h-2048v-207h2048v207z" />
</svg>