<svg xmlns="http://www.w3.org/2000/svg" xmlns:xlink="http://www.w3.org/1999/xlink" version="1.1" viewBox="-10 0 2068 2048">
   <path fill="currentColor"
d="M662 1414v-146q0 -101 -81.5 -174t-186.5 -73q-107 0 -190 73q-84 74 -84 174v146q-46 0 -83 37t-37 78v343q0 49 38 89q36 39 82 39h534q48 0 88 -37q40 -36 40 -82v-343q0 -51 -36 -87q-38 -37 -84 -37zM540 1414h-292v-146q0 -59 40 -94q40 -34 104 -34q62 0 105 34
t43 94v146zM1952 48h-974l-782 781v41q98 -41 198 -41q122 0 230 60q107 59 172 160q64 100 64 219v23q55 45 86.5 110.5t31.5 136.5v265h1070v-1659q0 -37 -28 -67q-26 -29 -68 -29zM1756 1314h-294v-192h294v192zM1856 829h-1384l584 -585h800v585z" />
</svg>