<svg xmlns="http://www.w3.org/2000/svg" xmlns:xlink="http://www.w3.org/1999/xlink" version="1.1" viewBox="-10 0 2068 2048">
   <path fill="currentColor"
d="M1024 0q-278 0 -514 137q-235 136 -372 373q-138 236 -138 514q0 200 78 392q75 189 220.5 334t333.5 221q192 77 392 77t392 -77q188 -76 333.5 -221t220.5 -334q78 -192 78 -392t-78 -392q-75 -189 -220.5 -334t-333.5 -221q-192 -77 -392 -77zM1394 649q80 0 138 58
t58 139t-58 139t-139 58t-139 -58q-56 -57 -59.5 -139t57.5 -139q61 -58 142 -58zM778 486q102 0 171 72t69 170q0 99 -69 171t-171 72q-100 0 -172 -72t-72 -171q0 -98 72 -170t172 -72zM778 1423v385q-186 -57 -324 -193q-138 -137 -204 -317q73 -78 250 -130
q146 -43 278 -43q88 0 192 24q-109 56 -158 144q-34 65 -34 130zM1024 1846q-56 0 -82 -5v-418q0 -95 168 -163q146 -53 284 -53q92 0 202 28q121 32 192 87q-91 230 -300 377t-464 147z" />
</svg>