<svg xmlns="http://www.w3.org/2000/svg" xmlns:xlink="http://www.w3.org/1999/xlink" version="1.1" viewBox="-10 0 2058 2048">
   <path fill="currentColor"
d="M896 1755q28 106 82 192h-684q-84 0 -141 -57t-57 -135v-1563q0 -78 57 -135t141 -57h1170q82 0 139 57t57 135v800q-88 -19 -146 -19q-30 0 -50 5v-786h-490v781l-242 -219l-242 219v-781h-196v1563h602zM1952 1609q0 184 -128 311q-128 128 -311 128t-311 -128
t-128 -311t128 -311t311 -128t311 128q128 127 128 311zM1660 1860l-398 -398q-42 67 -42 147q0 117 86 205q84 87 208 87q80 0 146 -41zM1806 1609q0 -124 -88 -208q-88 -85 -204 -85q-81 0 -146 41l396 398q42 -65 42 -146z" />
</svg>