<svg xmlns="http://www.w3.org/2000/svg" xmlns:xlink="http://www.w3.org/1999/xlink" version="1.1" viewBox="-10 0 2068 2048">
   <path fill="currentColor"
d="M1024 817q50 -15 106 -24q123 -40 196 -82q106 -68 106 -139q0 -37 -41 -163t-41 -171q0 -46 44 -108q19 -28 38 -48l-82 -82q-70 38 -160 38q-92 0 -166 -38q-75 38 -166 38t-162 -38l-80 82l38 48q42 62 42 108q0 48 -40 171q-40 126 -40 163q0 101 202 188
q95 36 206 57zM966 336l58 -134l58 134l148 15l-116 96l34 144l-124 -77l-126 77l34 -144l-114 -96zM1946 409h-446q38 108 38 163q0 150 -206 250q-112 61 -290 101h-38q-175 -40 -288 -101q-206 -100 -206 -250q0 -55 38 -163h-446q-45 0 -73.5 31t-28.5 70v1538h818v-510
h412v510h818v-1538q0 -38 -30 -70q-28 -31 -72 -31zM616 1846h-414v-308h414v308zM616 1332h-414v-308h414v308zM1230 1332h-412v-308h412v308zM1846 1846h-414v-308h414v308zM1846 1332h-414v-308h414v308z" />
</svg>