<svg xmlns="http://www.w3.org/2000/svg" xmlns:xlink="http://www.w3.org/1999/xlink" version="1.1" viewBox="-10 0 2068 2048">
   <path fill="currentColor"
d="M1818 0h-1588q-96 0 -163 67t-67 162v1590q0 95 67 162t163 67h1588q96 0 164 -67q66 -66 66 -162v-1590q0 -96 -66 -162q-68 -67 -164 -67zM230 1819v-224h352q42 134 148 224h-500zM1818 1819h-500q106 -90 148 -224h352v224zM1818 1365h-564v112q0 96 -67 163t-163 67
t-163 -67t-67 -163v-112h-564v-1136h1588v1136zM572 912h222v341h460v-341h224l-454 -459z" />
</svg>