<svg xmlns="http://www.w3.org/2000/svg" xmlns:xlink="http://www.w3.org/1999/xlink" version="1.1" viewBox="-10 0 2058 2048">
   <path fill="currentColor"
d="M973 0q-251 0 -462 89q-210 89 -334 235q-123 145 -123 324q0 187 151 353q-151 202 -151 456v379q0 86 63 149t154 63h1400q91 0 154 -63t63 -149v-379q0 -208 -106 -380l212 -212l-323 -324l-223 223q-238 -126 -507 -119q-271 8 -498 154q-60 -60 -63 -154
q-3 -93 78 -174t217 -129t298 -48q117 0 218 27q108 29 192 79l212 -218q-282 -186 -622 -182zM973 865q183 0 349 91q158 86 253 225q96 140 96 276v379h-1400v-379q0 -138 98 -276q98 -139 256 -225q166 -91 348 -91zM1024 1027q-249 0 -392 124q-144 125 -144 361v106
h213v-106q0 -153 40 -243q76 -176 283 -242z" />
</svg>