<svg xmlns="http://www.w3.org/2000/svg" xmlns:xlink="http://www.w3.org/1999/xlink" version="1.1" viewBox="-10 0 2058 2048">
   <path fill="currentColor"
d="M616 0h816q-30 274 -52 447q-34 232 -72 356q-29 87 -96 207q-74 138 -92 225q-34 144 -32 325q4 187 46 286q34 72 102 101q39 20 104 24h34q38 4 54 29q4 17 4 48h-816q0 -35 4 -48q15 -25 52 -29h34q67 -4 106 -24q68 -29 102 -101q41 -97 44 -286q3 -181 -30 -325
q-20 -91 -92 -225q-67 -120 -96 -207q-38 -124 -72 -356q-22 -173 -52 -447zM818 202q14 179 24 308h364q10 -129 24 -308h-412z" />
</svg>