<svg xmlns="http://www.w3.org/2000/svg" xmlns:xlink="http://www.w3.org/1999/xlink" version="1.1" viewBox="-10 0 2068 2048">
   <path fill="currentColor"
d="M1220 636h-146v484l416 252l74 -120l-344 -206v-410zM1170 146q-238 0 -438 118q-202 119 -320 320q-120 202 -120 440h-292l388 392l394 -392h-292q0 -188 90 -344q91 -153 250 -246q158 -92 340 -92q139 0 262 50q126 52 222 148q98 97 150 220q52 125 52 264
q0 185 -94 342q-93 156 -250 248q-155 90 -342 90q-139 0 -260 -52q-123 -52 -220 -148l-136 142q117 117 278 186q161 70 338 70q237 0 442 -120q200 -116 318 -320q118 -201 118 -438.5t-118 -439.5q-118 -203 -318 -320q-204 -118 -442 -118z" />
</svg>