<svg xmlns="http://www.w3.org/2000/svg" xmlns:xlink="http://www.w3.org/1999/xlink" version="1.1" viewBox="-10 0 2058 2048">
   <path fill="currentColor"
d="M1324 578v389h96v190h-290v-769h194l-288 -388l-290 388h194v769h-288v-199q49 -27 80.5 -77t31.5 -108q0 -88 -60 -150q-62 -63 -150 -63q-89 0 -152 61q-62 62 -62 152q0 58 32 108q32 51 84 77v199q0 81 58 138q56 56 138 56h288v294q-54 27 -86 77t-32 113
q0 85 64 149t149 64t149 -64q64 -63 64 -149q0 -64 -32 -113q-31 -50 -86 -77v-294h290q82 0 138 -56t56 -138v-190h94v-389h-384z" />
</svg>