<svg xmlns="http://www.w3.org/2000/svg" xmlns:xlink="http://www.w3.org/1999/xlink" version="1.1" viewBox="-10 0 2068 2048">
   <path fill="currentColor"
d="M912 571q-192 0 -324 133q-134 134 -134 323q0 188 134 322t322 134t322 -134q134 -133 134 -322q0 -190 -133 -323t-321 -133zM912 1253q-96 0 -162 -66t-66 -160t66 -160q66 -67 159 -67t160 67t67 160t-66 160q-66 66 -158 66zM454 0h800q186 0 319 133t133 326v112
h-228v-112q0 -96 -67 -163t-157 -67h-800q-90 0 -157 67t-67 163v1365h1248v-229h228v453h-1706v-1589q0 -193 133 -326t321 -133zM1818 741q49 58 60 70q73 91 112 160q58 101 58 170q0 92 -66 158t-160 66t-160 -66q-68 -67 -68 -160q0 -94 112 -254q63 -84 112 -144z" />
</svg>