<svg xmlns="http://www.w3.org/2000/svg" xmlns:xlink="http://www.w3.org/1999/xlink" version="1.1" viewBox="-10 0 2068 2048">
   <path fill="currentColor"
d="M188 418q-78 0 -133 55t-55 133v746h188q0 114 80 196q81 82 198 82q119 0 200 -82q80 -82 80 -196h558q0 114 80 196t198 82t198 -82t80 -196h188v-376q0 -74 -54 -128t-134 -54l-278 -376h-1394zM1304 558h230l182 236h-412v-236zM466 1212q56 0 98 39t42 98t-42 101
q-40 40 -97 40t-98 -41t-41 -100.5t40 -98.5q42 -38 98 -38zM1582 1212q56 0 98 38.5t42 98t-42 101.5q-42 40 -99 40t-98 -41t-41 -100.5t42 -98.5q41 -38 98 -38z" />
</svg>