<svg xmlns="http://www.w3.org/2000/svg" xmlns:xlink="http://www.w3.org/1999/xlink" version="1.1" viewBox="-10 0 2068 2048">
   <path fill="currentColor"
d="M864 494l-366 -366q28 -46 74 -73q45 -27 100 -27h776q82 0 140 57q58 58 58 135v1056l-572 -572q78 -5 130 -62q52 -56 52 -134t-57 -135t-137 -57t-134.5 52t-63.5 126zM1352 1586v197h294v192h-294q-82 0 -139 -57t-57 -135v-197h-192v197q0 78 -57 135t-139 57h-292
v-192h292v-197h-96q-82 0 -139 -57t-57 -139v-791l-476 -475l124 -124l1924 1925l-124 123l-466 -462h-106zM1256 1390v-9l-136 -137h-256v146h392z" />
</svg>