<svg xmlns="http://www.w3.org/2000/svg" xmlns:xlink="http://www.w3.org/1999/xlink" version="1.1" viewBox="-10 0 2068 2048">
   <path fill="currentColor"
d="M0 48v681l878 196l-878 197v681l710 -302q60 221 242 359q183 140 410 140q186 0 344 -94q156 -93 249 -249t93 -341q0 -186 -93 -343t-249 -249q-156 -91 -344 -91zM192 345l860 365q-31 15 -68 42l-792 -179v-228zM1362 829q134 0 246 64q112 65 178 176q66 112 66 245
q0 132 -66 244q-67 114 -178 179q-113 66 -246 66q-131 0 -244 -66q-110 -65 -176 -179q-64 -112 -64 -244q0 -133 64 -245q65 -112 176 -176q112 -64 244 -64zM1266 976v388l294 197l72 -124l-220 -146v-315h-146zM700 1163q-18 73 -18 133l-490 210v-229z" />
</svg>