<svg xmlns="http://www.w3.org/2000/svg" xmlns:xlink="http://www.w3.org/1999/xlink" version="1.1" viewBox="-10 0 2068 2048">
   <path fill="currentColor"
d="M1618 1189q178 0 304 126t126 303q0 178 -126 304t-303 126t-303 -126q-128 -127 -128 -304l10 -91q-10 -133 -60 -177q-29 -29 -86 -40q-161 91 -350 91t-352 -94q-162 -93 -256 -255q-94 -164 -94 -351q0 -188 94 -352q94 -162 256 -255q163 -94 352 -94q187 0 350 94
q162 93 256 255q94 164 94 352q0 190 -92 351q11 57 40 86q45 50 178 61zM486 754q66 0 114 48t48 116q0 69 -48 114t-114 45t-114 -45t-48 -114q0 -68 48 -116t114 -48zM704 218q-204 0 -345 141t-141 344t142 344q142 142 344 142t344 -142q140 -141 140 -344t-141 -344
t-343 -141z" />
</svg>