<svg xmlns="http://www.w3.org/2000/svg" xmlns:xlink="http://www.w3.org/1999/xlink" version="1.1" viewBox="-10 0 2068 2048">
   <path fill="currentColor"
d="M1664 242h-1566v-196h1566v196zM1564 830q-140 0 -260 50q-122 51 -218 146h-8v10q-94 93 -146 218q-52 121 -52 258q0 46 10 102h-792v-588h-98v-196l98 -492h1566l96 492v26q-96 -26 -196 -26zM880 1026h-586v390h586v-390zM1558 830l-54 -294h-1246l-56 294h1356z
M2036 1650q4 0 4 7t-4 11l-102 170q-10 10 -26 10l-120 -42l-78 50l-18 128q0 6 -8 12q-6 6 -10 6h-198q-10 0 -28 -18l-22 -128q-40 -13 -78 -50l-114 50q-19 0 -32 -8l-96 -166q-10 -14 8 -32l110 -78v-96l-110 -78q-8 -10 -8 -32l96 -166q13 -8 32 -8l114 50l78 -50
l22 -128q0 -20 28 -20h198q4 0 11 7t7 13l18 128q34 9 92 50l114 -50q32 0 32 8l96 166q10 9 -8 32l-110 78v96zM1710 1512q0 -53 -44 -100q-43 -46 -100 -46q-58 0 -104 46t-46 102q0 58 46 102q48 44 104 44t100 -44t44 -104z" />
</svg>