<svg xmlns="http://www.w3.org/2000/svg" xmlns:xlink="http://www.w3.org/1999/xlink" version="1.1" viewBox="-10 0 2065 2048">
   <path fill="currentColor"
d="M3 219l388 389v562q0 82 57 139t135 57h393v192h-101q-41 0 -68 30q-28 31 -28 71h-681v192h681q0 40 28 71q27 30 68 30h393q42 0 69 -30t27 -71h270l196 197l124 -124l-1828 -1828zM583 804l370 366h-370v-366zM1364 1659q0 -41 -27 -71t-69 -30h-100v-169l269 270h-73
zM2045 1659v110l-110 -110h110zM583 306l-178 -183q18 -55 68 -89t110 -34h978q77 0 134 57q58 58 58 139v974q0 58 -35 110q-34 51 -89 73l-183 -183h115v-974h-978v110z" />
</svg>