<svg xmlns="http://www.w3.org/2000/svg" xmlns:xlink="http://www.w3.org/1999/xlink" version="1.1" viewBox="-10 0 2058 2048">
   <path fill="currentColor"
d="M1024 0q-27 14 -53 24q-60 39 -129 101q-82 78 -149 183q-83 134 -130 293q-53 194 -53 423q0 412 173 803q25 59 74 89q50 31 113 31h308q63 0 113 -31q49 -30 74 -89q173 -391 173 -803q0 -229 -53 -423q-47 -162 -129 -293q-67 -105 -149 -183q-66 -60 -130 -101z
M1178 1740h-308q-153 -339 -153 -716q0 -314 110 -538q76 -153 197 -250q121 97 197 250q111 227 111 538q0 375 -154 716zM1846 2048l-399 -159q108 -238 159 -480zM601 1889l-399 159l241 -639q51 246 158 480zM1024 1024q-86 0 -146 -60t-60 -144q0 -85 60 -145t146 -60
q87 0 147 60t60 145q0 84 -60 144t-147 60z" />
</svg>