<svg xmlns="http://www.w3.org/2000/svg" xmlns:xlink="http://www.w3.org/1999/xlink" version="1.1" viewBox="-10 0 2068 2048">
   <path fill="currentColor"
d="M1876 256h-1704q-73 5 -120 52t-52 120v1192q5 73 52 120t120 52h1704q73 -5 120 -52t52 -120v-1192q-5 -73 -52 -120t-120 -52zM1876 1620h-1704v-1192h1704v1192zM1196 1452v-108q0 -64 -80 -120q-68 -44 -176 -68q-92 -24 -172 -24t-172 24q-108 24 -176 68
q-80 56 -80 120v108h856zM768 596q-89 0 -150 64q-62 65 -62 152q0 88 62 150t150 62t150 -62t62 -150q0 -87 -62 -152q-61 -64 -150 -64zM1280 852v256h340v-256h-340z" />
</svg>