<svg xmlns="http://www.w3.org/2000/svg" xmlns:xlink="http://www.w3.org/1999/xlink" version="1.1" viewBox="-10 0 2068 2048">
   <path fill="currentColor"
d="M1582 770h-230l-106 -158l132 -90l-100 -154l-420 280l102 152l134 -88l104 162l-82 82h-258l-408 -610l-152 106l156 234q-195 39 -324 194q-130 155 -130 356v188h188q0 114 80 196q81 82 198 82q119 0 200 -82q80 -82 80 -196h558q0 114 80 196t198 82t198 -82
t80 -196h188v-188q0 -127 -64 -234q-63 -106 -170 -170q-106 -62 -232 -62zM466 1562q-56 0 -97 -41t-41 -100.5t40 -98.5q42 -38 98 -38t98 39t42 98t-42 101q-40 40 -98 40zM1582 1562q-58 0 -99 -41t-41 -100.5t42 -98.5q41 -38 97.5 -38t98.5 39t42 98t-42 101
q-42 40 -98 40z" />
</svg>