<svg xmlns="http://www.w3.org/2000/svg" xmlns:xlink="http://www.w3.org/1999/xlink" version="1.1" viewBox="-10 0 2068 2048">
   <path fill="currentColor"
d="M1770 654h182v-187l-182 -188h-1582q-78 0 -133 55t-55 133v836q0 78 55 133t133 55h92q0 113 82 196q82 82 198 82t196 -82q82 -82 82 -196h466q0 115 80 196q80 82 198 82t198 -82q80 -81 80 -196h188v-467zM558 1630q-56 0 -97 -41t-41 -101t40 -98q42 -39 100 -39
q60 0 99 39t39 98t-40 101q-38 41 -100 41zM746 1024h-558v-279h558v279zM1212 1303h-278v-558h278v558zM1582 1630q-58 0 -99 -41t-41 -101t42 -98q41 -39 97.5 -39t98.5 39t42 98t-42 98q-43 40 -98 44zM1490 1024v-231h232l186 231h-418z" />
</svg>