<svg xmlns="http://www.w3.org/2000/svg" xmlns:xlink="http://www.w3.org/1999/xlink" version="1.1" viewBox="-10 0 2058 2048">
   <path fill="currentColor"
d="M1024 0q-177 0 -336 19q-246 32 -394 116q-192 101 -192 274v1230q0 173 192 274q148 84 394 116q159 19 335.5 19t336.5 -19q246 -32 394 -116q192 -101 192 -274v-1230q0 -173 -192 -274q-148 -84 -394 -116q-160 -19 -336 -19zM1024 817q172 0 326 -19
q243 -33 390 -106v664q-147 -73 -390 -106q-154 -19 -326.5 -19t-327.5 19q-242 33 -388 106v-664q146 73 388 106q155 19 328 19zM1024 202q194 0 360 29q162 28 260 74q96 45 96 104q0 58 -96 103q-98 46 -260 74q-166 29 -360 29t-360 -29q-163 -28 -260 -74
q-96 -45 -96 -103q0 -59 96 -104q97 -46 260 -74q166 -29 360 -29zM1024 1846q-194 0 -360 -29q-163 -28 -260 -74q-96 -45 -96 -104q0 -58 96 -103q100 -47 260 -75t360 -28t360 28q158 27 260 75q96 45 96 103q0 59 -96 104q-98 46 -260 74q-166 29 -360 29z" />
</svg>