<svg xmlns="http://www.w3.org/2000/svg" xmlns:xlink="http://www.w3.org/1999/xlink" version="1.1" viewBox="-10 0 2068 2048">
   <path fill="currentColor"
d="M1332 1178v202q0 41 -29 73.5t-73 32.5h-412q-44 0 -73 -32.5t-29 -73.5v-202q-133 -100 -182 -260q-48 -159 4 -314q53 -156 188 -252q136 -96 298 -96t298 96q134 95 186 252q53 156 6 314q-49 160 -182 260zM1230 1586h-412v100q0 44 31 75t75 31h200q44 0 75 -31
t31 -75v-100zM510 1686v-100h-202v100q0 43 30 76q28 30 72 30h120q-20 -51 -20 -106zM308 764q-4 -160 68 -308q-136 16 -236 102q-101 88 -130 218q-28 132 24 256q52 121 168 188v160q0 42 32 74t74 32h202v-222q-96 -96 -148 -226q-54 -130 -54 -274zM1538 1586v100
q0 55 -20 106h120q44 0 72 -30q30 -33 30 -76v-100h-202zM1672 456q72 148 68 308q0 144 -54 274q-52 130 -148 226v222h202q42 0 74 -32t32 -74v-160q116 -67 168 -188q52 -124 24 -256q-29 -130 -130 -218q-100 -86 -236 -102z" />
</svg>