<svg xmlns="http://www.w3.org/2000/svg" xmlns:xlink="http://www.w3.org/1999/xlink" version="1.1" viewBox="-10 0 2058 2048">
   <path fill="currentColor"
d="M2000 1905l-1836 -1837l-116 118l170 174q-44 18 -44 57l-44 589q-9 139 47.5 268t170.5 216q-4 -130 40 -248l186 -528l110 109l-166 467q-61 161 -18 331q44 169 180 284q113 104 264 133q149 28 294 -20q143 -48 244 -166l108 -122l292 292zM410 823l-48 -22l16 -279
l118 118zM836 1185l-44 -35l58 -157l82 83zM1334 997l336 -379q26 -32 62 -33q38 -2 66 22q29 24 30 61q2 37 -24 67l-344 389zM1786 862q27 -32 64 -33q39 -2 64 22q26 25 28 61q1 39 -20 63l-288 328l-126 -127zM1962 1180q26 23 28 59q1 38 -24 64l-152 178l-128 -126
l144 -166q27 -32 64 -33q37 -2 68 24zM1390 557q25 -28 60 -29q37 -2 64 22q29 24 30 61q2 39 -18 63l-244 275l-128 -126zM1028 692l214 -436q13 -36 50.5 -46.5t69.5 4.5q33 15 44 50q11 36 -2 70l-40 74q-44 18 -78 57l-228 257zM788 452l-134 -131l122 -253
q18 -36 52 -46q34 -11 68 5q32 14 46 50q13 34 -6 70zM840 509l224 -458q18 -36 52 -46q35 -11 68 4q30 14 44 50q14 35 -4 70l-252 511z" />
</svg>