<svg xmlns="http://www.w3.org/2000/svg" xmlns:xlink="http://www.w3.org/1999/xlink" version="1.1" viewBox="-10 0 2068 2048">
   <path fill="currentColor"
d="M767 480l-161 -158q68 -30 140 -30q152 0 261 109t109 265q0 69 -26 140l-157 -160q-9 -66 -57 -112q-47 -45 -109 -54zM1774 1316q179 -178 242 -411t0 -469q-63 -235 -242 -424l-152 154q125 138 172 316q46 176 0 358q-46 180 -172 324zM1465 1002q143 -138 143 -330
q0 -194 -143 -346l-157 158q61 81 61 180.5t-61 181.5zM131 82l-117 118l374 376q-13 50 -13 90q0 154 109 263t262 109q40 0 91 -14l266 270l-31 70q99 30 179 74l61 66v288h-392l-83 -472l87 -174q-93 -12 -178 -12q-87 0 -179 12l87 174l-83 472h-392v-288q0 -30 70 -70
q72 -40 170 -70l-79 -160q-151 48 -235 116q-104 82 -104 184v462h1490v-288l357 358l118 -118z" />
</svg>