<svg xmlns="http://www.w3.org/2000/svg" xmlns:xlink="http://www.w3.org/1999/xlink" version="1.1" viewBox="-10 0 2068 2048">
   <path fill="currentColor"
d="M1740 817h-202v-202h202v202zM1740 1125h-202v-202h202v202zM1432 817h-202v-202h202v202zM1432 1125h-202v-202h202v202zM1432 1538h-816v-206h816v206zM510 817h-202v-202h202v202zM510 1125h-202v-202h202v202zM616 923h202v202h-202v-202zM616 615h202v202h-202v-202
zM922 923h202v202h-202v-202zM922 615h202v202h-202v-202zM1846 308h-1644q-82 0 -142 60t-60 142v1028q0 82 60 142t142 60h1644q82 0 142 -60t60 -142v-1028q0 -82 -60 -142t-142 -60z" />
</svg>