<svg xmlns="http://www.w3.org/2000/svg" xmlns:xlink="http://www.w3.org/1999/xlink" version="1.1" viewBox="-10 0 2068 2048">
   <path fill="currentColor"
d="M1710 2048l-309 -538q0 -147 -77 -236q-78 -90 -194 -90q-75 0 -139 40q-65 40 -96 104q60 -32 128 -32q111 0 189 78q77 76 77 188q0 114 -77 192q-78 80 -189 80h373v214h-964q-47 0 -78 -32q-29 -31 -29 -78q0 -46 32 -78l53 -52q-43 -22 -101 -70q-21 43 -61 70
q-40 26 -88 26q-64 0 -112 -48t-48 -114t48 -114t112 -48l53 10v-224q0 -149 72 -272q72 -122 197 -198q123 -74 269 -74h6q104 9 202 22q130 16 165 10q59 -16 59 -86t16 -116q16 -36 48 -86q-132 -64 -277 -64q-47 0 -78 -32q-29 -30 -29 -72q0 -38 21 -68q20 -29 54 -40
l-75 -6q-49 0 -80 -30q-32 -30 -32 -74q0 -46 32 -78t80 -32h107q178 0 325 88q150 90 234 238h32q117 0 219 70l47 42q156 134 203 260q22 72 16 112q0 108 -77 184q-78 78 -189 78l-59 -6v12q0 185 -139 320l379 650h-251zM1721 538q-43 0 -75 32t-32 78q0 44 32 74t78 30
t77 -30q32 -30 32 -74q0 -46 -32 -78t-80 -32z" />
</svg>