<svg xmlns="http://www.w3.org/2000/svg" xmlns:xlink="http://www.w3.org/1999/xlink" version="1.1" viewBox="-10 0 2068 2048">
   <path fill="currentColor"
d="M0 466l140 140l-140 138l140 140l-140 140l140 140l-140 138h188q0 120 80 200t198 80q120 0 200 -80t80 -200h558q0 120 80 200t198 80t198 -80t80 -200h188v-648q0 -80 -54 -134t-134 -54h-1860zM280 606h234v230h-234v-230zM654 606h370v230h-370v-230zM1164 606h370
v230h-370v-230zM1674 606h234v510l-234 -184v-326zM466 1164q58 0 98 40q42 42 42 98t-42 98t-98 42t-98 -42q-40 -40 -40 -97t41 -98t97 -41zM1582 1164q56 0 98 40q42 42 42 98t-42 98t-98 42t-98 -42q-42 -40 -42 -97t41 -98t99 -41z" />
</svg>