<svg xmlns="http://www.w3.org/2000/svg" xmlns:xlink="http://www.w3.org/1999/xlink" version="1.1" viewBox="-10 0 2058 2048">
   <path fill="currentColor"
d="M1429 0q62 0 116 34q52 32 76 91q25 57 12 118q-12 61 -56.5 106t-106.5 57q-60 12 -118 -12q-57 -24 -90.5 -76.5t-33.5 -115.5q0 -82 60 -142t141 -60zM1026 101q62 0 108 46t46 108t-46 108t-108 46t-108 -46t-46 -108t46 -108t108 -46zM723 255q44 0 73 29
q28 28 28 72q0 43 -28 74q-28 32 -73 32q-43 0 -72 -32q-28 -31 -28 -74q0 -44 28 -72q29 -29 72 -29zM512 409q43 0 75 29q31 28 31 72q0 43 -31 74t-74.5 31t-72.5 -31q-29 -32 -29 -74q0 -43 29 -72t72 -29zM1280 1024q115 0 190 -84q75 -83 65 -200q-15 -102 -90.5 -166
t-178.5 -64h-254q-208 0 -373 127q-165 128 -218 324q-23 75 10 144q67 143 64 301q-3 159 -64 290q-43 92 4 178q68 101 176 146q109 45 223 17q88 -20 154 -74q67 -55 100 -137q33 -81 24 -168q-8 -86 -57 -161q-47 -74 -43 -166q-4 -77 24 -154q63 -153 244 -153z" />
</svg>