<svg xmlns="http://www.w3.org/2000/svg" xmlns:xlink="http://www.w3.org/1999/xlink" version="1.1" viewBox="-10 0 2068 2048">
   <path fill="currentColor"
d="M1826 612l-230 -230q8 -66 28 -120q14 -27 14 -58q0 -67 -44 -110q-45 -44 -110 -44q-125 0 -230 56q-106 56 -178 146h-514q-154 0 -284 78q-128 76 -204 206q-74 129 -74 284q0 190 126 706q82 311 128 472h564v-208h206v208h562l172 -572l290 -96v-718h-222zM1124 766
h-508v-206h508v206zM1432 974q-38 0 -69 -31t-31 -72t30 -73q32 -32 72 -32t72 32t32 73t-31 72t-75 31z" />
</svg>