<svg xmlns="http://www.w3.org/2000/svg" xmlns:xlink="http://www.w3.org/1999/xlink" version="1.1" viewBox="-10 0 2058 2048">
   <path fill="currentColor"
d="M1024 0q-65 0 -91 70l-105 292q52 57 196 57t196 -57l-105 -292q-9 -31 -34 -50q-26 -20 -57 -20zM693 737l-135 370q117 148 466 148t466 -148l-135 -370q-87 100 -331 100t-331 -100zM414 1303q-57 0 -109 39q-51 38 -69 96l-135 475q-18 56 13 96q30 39 87 39h1646
q57 0 87 -39q31 -40 13 -96l-135 -475q-18 -58 -69 -96q-53 -39 -109 -39h-74l30 92q22 61 0 91q-135 188 -566 188t-566 -188q-22 -30 0 -91l30 -92h-74z" />
</svg>