<svg xmlns="http://www.w3.org/2000/svg" xmlns:xlink="http://www.w3.org/1999/xlink" version="1.1" viewBox="-10 0 2058 2048">
   <path fill="currentColor"
d="M606 1674q0 56 -42 98q-41 41 -98 41t-98 -41t-41 -96q0 -56 41 -98q42 -44 98 -44t98 44t42 96zM1581 1534q-56 0 -98 44q-41 42 -41 98q0 55 41 96t98 41t98 -41q42 -42 42 -96q0 -55 -42 -98q-42 -44 -98 -44zM1581 1303h-26q141 -115 222 -285q83 -174 83 -366
t-83 -366q-82 -172 -222 -286h-1062q-142 116 -223 286q-82 171 -82 366t82 366q81 169 223 285h-27q-152 0 -261 109t-109 264q0 154 109 263t261 109h1115q153 0 262 -109t109 -263q0 -155 -109 -264t-262 -109zM375 654q0 -130 50 -253q49 -120 142 -213h914
q93 93 142 213q50 123 50 253q0 178 -87 327q-87 148 -235 235q-149 87 -327 87t-327 -87q-148 -87 -235 -235q-87 -149 -87 -327zM1581 1861h-1115q-78 0 -132 -54q-55 -55 -55 -131t55 -131q54 -54 132 -54h1115q79 0 133 54q55 55 55 131t-55 131q-54 54 -133 54z
M1107 401q0 48 37 85t85 37t85 -37t37 -85q0 -47 -40 -85q-38 -37 -89 -37q-50 0 -83 37q-32 36 -32 85zM706 401q0 48 37 85t85 37t85 -37t37 -85t-37 -85t-87 -37t-85 35t-35 87zM623 837q71 0 116 -46q45 -47 45 -109q0 -64 -47 -111q-48 -48 -114 -48q-65 0 -111 44
t-46 109t48 113t109 48zM985 998q0 -64 -46 -113q-45 -48 -111 -48t-111 48q-46 49 -46 113q0 63 46 111q45 46 111 46t111 -46q46 -48 46 -111zM1024 837q70 0 113 -46q44 -47 44 -109q0 -63 -48 -111t-109 -48t-109 48t-48 109t48 109t109 48zM1385 998q0 -66 -47 -113
q-48 -48 -114 -48t-109 48q-43 47 -43 113q0 63 46 111q45 46 111 46t111 -46q45 -47 45 -111zM1581 680q0 -62 -47 -109q-48 -48 -114 -48t-111 46q-45 47 -45 113q0 68 47 111q49 44 111 44q64 0 112 -48q47 -47 47 -109z" />
</svg>