<svg xmlns="http://www.w3.org/2000/svg" xmlns:xlink="http://www.w3.org/1999/xlink" version="1.1" viewBox="-10 0 2058 2048">
   <path fill="currentColor"
d="M2019 461v10v442q0 19 -15 24l-370 217v418q0 20 -14 29l-778 447h-24l-5 -5l-769 -442q-15 -9 -15 -29v-1327l5 -9l394 -231q19 -9 34 0l389 221l10 10l5 841l317 -183l4 -433l5 -9l394 -231q15 -9 34 0l389 226l5 5zM1956 894v-365l-322 182v366zM1572 1558v-371
l-706 404v370zM92 308v1250l706 403v-370l-370 -206v-5l-9 -5l-5 -885zM448 67l-322 188l322 182l321 -182zM798 1115v-807l-322 182v808zM1601 284l-322 187l322 183l322 -183zM1572 711l-322 -182v365l322 183v-366zM832 1538l706 -403l-322 -188l-706 409z" />
</svg>