<svg xmlns="http://www.w3.org/2000/svg" xmlns:xlink="http://www.w3.org/1999/xlink" version="1.1" viewBox="-10 0 2068 2048">
   <path fill="currentColor"
d="M1432 875q0 -167 -120 -288l144 -145q85 78 134 195q48 113 48 238q-108 0 -210 38zM1846 909q106 44 192 115q10 -97 10 -149q0 -205 -80 -394q-81 -190 -218 -332l-144 144q109 114 174 265q66 150 66 317v34zM1024 668q-86 0 -146 60t-60 147t60 147t146 60t146 -60
t60 -147t-60 -147t-146 -60zM442 293l-144 -144q-139 144 -218 332q-80 186 -80 394t80 394q79 188 218 332l144 -144q-111 -116 -176 -265q-64 -150 -64 -317t64 -317q65 -149 176 -265zM592 442q-86 80 -136 195q-48 113 -48 238t48 238q50 115 136 195l144 -145
q-120 -120 -120 -288t120 -288zM1740 1082h-202v307h-308v202h308v308h202v-308h308v-202h-308v-307z" />
</svg>