<svg xmlns="http://www.w3.org/2000/svg" xmlns:xlink="http://www.w3.org/1999/xlink" version="1.1" viewBox="-10 0 2068 2048">
   <path fill="currentColor"
d="M1230 1024h154v288l250 145l-78 134l-326 -187v-380zM202 0h1436q88 0 148 60t60 142v625q96 101 148 231q54 132 54 274q0 196 -96 360q-97 164 -260 260q-164 96 -360 96q-144 0 -274 -53q-131 -53 -232 -149h-624q-82 0 -142 -60t-60 -147v-1437q0 -82 60 -142
t142 -60zM202 1332v307h480q-66 -143 -66 -307h-414zM202 615h616v-307h-616v307zM1638 615v-307h-614v307h614zM202 1125h442q52 -176 182 -308h-624v308zM1332 836q-99 0 -194 37q-92 36 -160.5 105t-105.5 161q-36 91 -36 193q0 134 66 250q64 116 180 180q116 65 250 65
q100 0 192 -36q90 -36 160.5 -106t105.5 -161q36 -92 36 -192q0 -134 -64 -250q-66 -117 -180 -181q-117 -65 -250 -65z" />
</svg>