<svg xmlns="http://www.w3.org/2000/svg" xmlns:xlink="http://www.w3.org/1999/xlink" version="1.1" viewBox="-10 0 2068 2048">
   <path fill="currentColor"
d="M440 576l-206 -206l136 -137l206 206zM1120 0v293h-192v-293h192zM1814 370l-204 206l-138 -137l206 -206zM294 928v197h-294v-197h294zM1756 928h292v197h-292v-197zM440 1856h1170q82 0 139 57t57 135h-1564q0 -78 57 -135t141 -57zM1024 393q114 0 224 44
q112 44 192 125q82 81 126 190t44 226v777h-1170v-777q0 -119 42 -226q44 -107 126 -190q81 -81 192 -125t224 -44zM1024 585q-160 0 -274 114q-114 115 -114 279v585h776v-585q0 -165 -114 -279t-274 -114z" />
</svg>