<svg xmlns="http://www.w3.org/2000/svg" xmlns:xlink="http://www.w3.org/1999/xlink" version="1.1" viewBox="-10 0 2058 2048">
   <path fill="currentColor"
d="M1669 96q-18 -43 -53 -69q-37 -27 -82 -27h-1020q-45 0 -82 27q-35 26 -53 69l-191 558v741q0 39 28 67q29 29 63 29h96q34 0 63 -29q28 -28 28 -67v-92h1115v92q0 38 29 67t63 29h96q34 0 63 -29q28 -28 28 -67v-741zM545 188h958l100 287h-1158zM1673 1116h-1298v-462
h1298v462zM606 745q56 0 98 42q41 41 41 98t-41 98t-98 41t-98 -41q-42 -42 -42 -98t42 -98t98 -42zM1442 745q56 0 98 42q41 41 41 98t-41 98t-98 41t-98 -41t-41 -98t41 -98q42 -42 98 -42zM558 1769h375v-187l557 279h-375v187z" />
</svg>