<svg xmlns="http://www.w3.org/2000/svg" xmlns:xlink="http://www.w3.org/1999/xlink" version="1.1" viewBox="-10 0 2068 2048">
   <path fill="currentColor"
d="M964 357v233l278 283l390 128l-198 64l288 288l284 -283q28 -27 28 -69q0 -41 -28 -68l-878 -878q-31 -27 -68 -27t-68 27l-284 283l138 138zM1156 357l420 420l-420 -137v-283zM124 0l-124 124l462 461l-348 348q-28 28 -28 68q0 41 28 69l878 878q31 27 68 27t68 -27
l348 -348l448 448l124 -123zM598 722l28 28l-82 27zM964 1646l-420 -421l420 137v284zM1060 1193l-570 -192l292 -96l282 284zM1156 1646v-284l64 -18l118 119z" />
</svg>