<svg xmlns="http://www.w3.org/2000/svg" xmlns:xlink="http://www.w3.org/1999/xlink" version="1.1" viewBox="-10 0 2058 2048">
   <path fill="currentColor"
d="M1024 461q105 0 180 75t75 180q0 106 -75 181q-74 74 -180 74t-180 -74q-75 -75 -75 -181q0 -105 75 -180t180 -75zM1024 0q198 0 361 96q162 95 259 260q96 164 96 360q0 240 -183 587q-139 251 -345 519q-95 126 -188 226l-110 -130q-128 -159 -250 -332
q-151 -230 -245 -432q-111 -250 -111 -443q0 -191 96 -355t260 -260t360 -96zM1024 202q-138 0 -257 70t-187 187q-70 120 -70 257q0 83 19 149q31 124 135 308q123 225 360 538q240 -318 361 -538q102 -181 134 -308q19 -66 19 -149q0 -138 -69 -257q-68 -116 -188 -187
q-119 -70 -257 -70z" />
</svg>