<svg xmlns="http://www.w3.org/2000/svg" xmlns:xlink="http://www.w3.org/1999/xlink" version="1.1" viewBox="-10 0 2058 2048">
   <path fill="currentColor"
d="M1490 745h-836v-187h836v187zM558 558h-183v187h183v-187zM558 279h-183v188h183v-188zM837 279h-183v188h183v-188zM1115 1491v183h96q35 0 63 28q29 29 29 67h649v184h-649q0 38 -29 67q-28 28 -63 28h-374q-35 0 -63 -28q-29 -29 -29 -67h-649v-184h649q0 -38 29 -67
q28 -28 63 -28h96v-183h-654q-73 0 -128 -55t-55 -133v-1115q0 -78 55 -133t128 -55h1490q73 0 128 55t55 133v1115q0 78 -55 133t-128 55h-654zM1769 1303v-1115h-1490v1115h1490zM933 467h740v-188h-740v188zM375 1024h558v-187h-558v187zM1115 1212h558v-188h-558v188z
" />
</svg>