<svg xmlns="http://www.w3.org/2000/svg" xmlns:xlink="http://www.w3.org/1999/xlink" version="1.1" viewBox="-10 0 2058 2048">
   <path fill="currentColor"
d="M1024 0l-836 375v558q0 254 109 488q111 238 300 401q191 164 427 226q236 -62 427 -226q189 -163 300 -401q109 -234 109 -488v-558zM1024 558q99 0 181 70q80 68 80 165v140q43 0 76 35q33 34 33 83v326q0 44 -35 79t-82 35h-514q-44 0 -77 -37q-32 -36 -32 -85v-327
q0 -39 35 -74t74 -35v-140q0 -97 80 -165q82 -70 181 -70zM1024 671q-56 0 -98 33q-41 32 -41 89v140h278v-140q0 -57 -41 -89q-42 -33 -98 -33z" />
</svg>