<svg xmlns="http://www.w3.org/2000/svg" xmlns:xlink="http://www.w3.org/1999/xlink" version="1.1" viewBox="-10 0 2068 2048">
   <path fill="currentColor"
d="M1740 1947v-207h-408v-202h408v-206l308 307zM1024 1639q0 -167 84 -307q83 -138 224 -226q-10 -39 -36 -60q-29 -22 -66 -22h-614v-207h202q48 0 76 -26q28 -27 28 -75v-206h202q86 0 148 -61q60 -60 60 -141v-44q227 95 372 301q142 203 142 459v29q87 29 192 115
q10 -48 10 -144q0 -278 -138 -514q-136 -236 -372 -373q-237 -137 -514.5 -137t-513.5 137q-235 136 -372 373q-138 236 -138 514t138 514q137 237 372 373q236 137 514 137q95 0 144 -10q-144 -172 -144 -399zM922 1836q-206 -28 -369.5 -140.5t-256.5 -289.5
q-94 -177 -94 -382q0 -63 24 -183l490 491v101q0 86 60 146t146 60v197z" />
</svg>