<svg xmlns="http://www.w3.org/2000/svg" xmlns:xlink="http://www.w3.org/1999/xlink" version="1.1" viewBox="-10 0 2068 2048">
   <path fill="currentColor"
d="M1656 925v147q164 0 278 114t114 274q0 125 -68 215l-106 -105q28 -51 28 -110q0 -101 -74 -171q-74 -71 -172 -71v146l-220 -219zM1656 2000v-147q-162 0 -276 -114t-114 -279q0 -115 64 -215l110 105q-28 58 -28 110q0 100 72 174q70 73 172 73v-146l218 219zM192 48
h1368q82 0 139 57t57 139v585h-50q-134 0 -252 51q-121 52 -206 141h-274v393h96v46q0 72 18 146h-896q-76 0 -134 -57q-58 -58 -58 -135v-1170q0 -81 58 -139q58 -57 134 -57zM192 436v393h586v-393h-586zM974 436v393h586v-393h-586zM192 1021v393h586v-393h-586z" />
</svg>