<svg xmlns="http://www.w3.org/2000/svg" xmlns:xlink="http://www.w3.org/1999/xlink" version="1.1" viewBox="-10 0 2058 2048">
   <path fill="currentColor"
d="M454 1365h230q0 92 100 160q104 70 240.5 70t239.5 -70q102 -68 102 -160q0 -89 -92 -138q-78 -44 -276 -91q-163 -40 -252 -75q-133 -54 -202 -133q-90 -103 -90 -248q0 -148 112 -267q112 -120 288 -162v-251h340v251q176 42 288 162q112 119 112 270h-228
q0 -92 -102 -160q-103 -70 -239.5 -70t-240.5 70q-100 68 -100 160q0 90 90 138q78 44 276 91q163 40 252 75q133 54 202 133q90 103 90 248q0 148 -112 267q-112 120 -288 162v251h-340v-251q-176 -42 -288 -162q-112 -119 -112 -270z" />
</svg>