<svg xmlns="http://www.w3.org/2000/svg" xmlns:xlink="http://www.w3.org/1999/xlink" version="1.1" viewBox="-10 0 2058 2048">
   <path fill="currentColor"
d="M806 310l214 -310l212 310q-99 -31 -212.5 -31t-213.5 31zM1530 484q178 174 212 384l162 -345zM370 663q0 -5 4 -9l-4 9q10 -9 10 -18q58 -90 130 -161l-374 31l160 344q30 -106 74 -196zM1690 1342v0q-24 37 -30 44v17q-25 50 -96 131l-34 39l382 -30l-156 -340
q-36 84 -66 139zM388 1417q0 -6 -4 -11t-4 -11q-10 -9 -10 -18l-8 -13q-14 -17 -14 -35q-33 -89 -42 -139l-162 344l384 31q-80 -58 -140 -148zM1076 1769h-114q-44 0 -116 -21l-40 -9l214 309l212 -309zM1412 632q-108 -103 -250 -141t-288 0q-148 38 -256 141
q-108 104 -146 249q-36 141 4 287q39 145 142 255q105 110 250 148q142 37 286 -2t256 -144q110 -105 148 -250q37 -146 0 -290q-38 -145 -146 -253zM692 1351l196 -457l466 -205l-196 457zM1084 1090q-26 26 -65 26t-65 -26t-26 -66q0 -39 26 -65t65 -26t65 26t26 65
q0 40 -26 66z" />
</svg>