<svg xmlns="http://www.w3.org/2000/svg" xmlns:xlink="http://www.w3.org/1999/xlink" version="1.1" viewBox="-10 0 2068 2048">
   <path fill="currentColor"
d="M192 0q-76 0 -134 57q-58 58 -58 135v1563q0 77 58 135q58 57 134 57h824q161 101 346 101q186 0 344 -94q156 -93 249 -249t93 -343q0 -224 -138 -405q-136 -180 -350 -249v-123l-586 -585h-782zM192 192h686v489h484q-183 0 -340 91q-157 92 -248 249q-92 158 -92 341
q0 213 124 393h-614v-1563zM1362 877q134 0 246 64q112 65 178 176q66 113 66 245t-66 244q-67 114 -178 179q-113 66 -246 66q-131 0 -244 -66q-110 -65 -176 -179q-64 -112 -64 -244q0 -133 64 -245q65 -112 176 -176q112 -64 244 -64zM1266 973v489l352 211l74 -119
l-280 -165v-416h-146z" />
</svg>