<svg xmlns="http://www.w3.org/2000/svg" xmlns:xlink="http://www.w3.org/1999/xlink" version="1.1" viewBox="-10 0 2068 2048">
   <path fill="currentColor"
d="M1818 229v1590h-1588v-1590h1588zM1818 0h-1588q-96 0 -163 67t-67 162v1590q0 95 67 162t163 67h1588q96 0 164 -67q66 -66 66 -162v-1590q0 -96 -66 -162q-68 -67 -164 -67zM1024 853q-68 0 -119 51t-51 120t51 120t120 51t119 -51q50 -50 50 -120t-50 -120
q-50 -51 -120 -51zM512 341q-68 0 -119 51t-51 120t51 120t120 51t120 -51t51 -120t-51 -120t-121 -51zM1536 1365q-70 0 -120 51q-50 50 -50 120t50 120q50 51 119 51t120 -51t51 -120t-51 -120t-119 -51z" />
</svg>