<svg xmlns="http://www.w3.org/2000/svg" xmlns:xlink="http://www.w3.org/1999/xlink" version="1.1" viewBox="-10 0 2068 2048">
   <path fill="currentColor"
d="M1484 291q-115 0 -212 62q-99 63 -148 164v1076q388 -350 524 -514q198 -241 198 -433q0 -153 -104.5 -254t-257.5 -101zM1484 84q157 0 284 74q130 75 204 205q76 131 76 283q0 188 -112 375q-96 163 -302 375q-123 128 -462 433l-148 135l-150 -135
q-338 -305 -460 -433q-208 -212 -304 -375q-110 -186 -110 -375q0 -154 74 -283q75 -130 204 -205q128 -74 284 -74q133 0 256 58q118 56 206 153q86 -96 206 -153q123 -58 254 -58z" />
</svg>