<svg xmlns="http://www.w3.org/2000/svg" xmlns:xlink="http://www.w3.org/1999/xlink" version="1.1" viewBox="-10 0 2058 2048">
   <path fill="currentColor"
d="M1588 870q-97 0 -176 55q-80 56 -113 152h-173v-486l356 212l106 -173l-366 -221l366 -222l-101 -173l-361 212v-226h-206v226l-356 -212l-101 173l361 222l-366 221l101 173l361 -212v486h-169q-43 -120 -138.5 -171t-204.5 -31t-183 98t-74 205q0 126 74 204
q75 80 183 99t204 -32t139 -170h169v567q-82 0 -142 60t-60 142h615q0 -82 -60 -142t-147 -60v-567h173q39 115 142 170q105 56 216 29q116 -28 183 -125q70 -100 53 -211q-16 -113 -101 -193q-83 -79 -204 -79zM458 1279q-43 0 -72 -29t-29 -72t32 -75t72 -29t72 32
q31 28 31 72t-31 72q-32 29 -75 29zM1588 1279q-44 0 -73 -29q-28 -28 -31 -72q-3 -43 29 -75t75 -29t72 32q28 28 28 72t-28 72q-29 29 -72 29z" />
</svg>