<svg xmlns="http://www.w3.org/2000/svg" xmlns:xlink="http://www.w3.org/1999/xlink" version="1.1" viewBox="-10 0 2068 2048">
   <path fill="currentColor"
d="M1359 228q-111 0 -204 62q-95 61 -130 158h-176q-35 -97 -130 -158q-94 -62 -204 -62q-142 0 -235 92q-94 93 -94 234q0 133 92 276q85 129 259 304q119 119 391 364l9 10v-4v34q0 99 31 194l-31 26l-136 -122q-307 -277 -422 -396q-189 -193 -277 -344
q-101 -171 -101 -342q0 -140 68 -260q67 -119 187 -186q119 -68 259 -68q124 0 233 52t189 140q79 -88 189 -140q108 -52 233 -52q139 0 259 68q119 67 187 186q68 120 68 260q0 171 -105 352q-87 -22 -176 -22h-35q131 -175 131 -330q0 -141 -94 -234q-94 -92 -235 -92z
M2044 1692l-92 164q-5 12 -31 12l-114 -48q-40 28 -79 44l-18 128q-5 16 -22 16h-188q-23 0 -27 -16l-17 -128q-42 -17 -80 -44l-114 48q-27 0 -31 -12l-92 -164q-9 -17 5 -30l101 -76q-5 -24 -5 -45.5t5 -46.5l-101 -78q-14 -14 -5 -32l92 -162q8 -8 31 -8l114 44l80 -44
l17 -124q4 -18 27 -18h188q17 0 22 18l18 124q34 14 79 44l114 -44q27 0 31 8l92 162q9 18 -4 32l-101 78q4 20 4 44l-4 48l101 76q13 12 4 30zM1732 1538q0 -56 -39 -98t-99 -42q-59 0 -101 42t-42 100q0 60 42 100q43 40 101 40q59 0 99 -40q39 -40 39 -102z" />
</svg>