<svg xmlns="http://www.w3.org/2000/svg" xmlns:xlink="http://www.w3.org/1999/xlink" version="1.1" viewBox="-10 0 2068 2048">
   <path fill="currentColor"
d="M1024 0q280 0 514 138t372 372t138 514t-138 514t-372 372t-514 138t-514 -138t-372 -372t-138 -514t138 -514t372 -372t514 -138zM1024 172q-170 0 -326 64q-159 65 -278 184t-184 278q-64 156 -64 326q0 151 50 290q48 135 142 250l1200 -1200q-115 -94 -250 -142
q-139 -50 -290 -50zM1024 1876q170 0 326 -64q159 -65 278 -184t184 -278q64 -156 64 -326q0 -151 -50 -290q-48 -135 -142 -250l-1200 1200q115 94 250 142q139 50 290 50z" />
</svg>