<svg xmlns="http://www.w3.org/2000/svg" xmlns:xlink="http://www.w3.org/1999/xlink" version="1.1" viewBox="-10 0 2068 2048">
   <path fill="currentColor"
d="M1528 1548l-82 -139l150 -448l144 -48l106 77v34q0 304 -202 534zM792 1332l-138 -414l370 -259l370 259l-140 414h-462zM1024 1846q-137 0 -256 -43l-72 -154l68 -111h524l62 111l-72 154q-118 43 -254 43zM404 1558q-82 -92 -142 -250q-60 -162 -60 -284v-34l106 -77
l144 48l148 448l-80 139zM922 336v145l-412 283l-136 -43l-42 -139q67 -106 196 -207q132 -102 256 -135zM1264 240q123 33 254 135q130 101 198 207l-44 139l-134 43l-414 -283v-145zM298 298q-298 307 -298 726t298 721q299 303 720 303q424 0 726 -298q304 -299 304 -721
q0 -424 -298 -726q-299 -303 -722 -303t-730 298z" />
</svg>