<svg xmlns="http://www.w3.org/2000/svg" xmlns:xlink="http://www.w3.org/1999/xlink" version="1.1" viewBox="-10 0 2058 2048">
   <path fill="currentColor"
d="M933 2048q-79 0 -133 -54q-55 -55 -55 -133v-187h558v187q0 78 -55 133q-54 54 -133 54h-182zM1024 188q54 0 74 4q48 92 78 222q35 155 35 331q0 123 -48 397q-22 138 -48 253h-182l-48 -253q-48 -274 -48 -397q0 -176 35 -331q30 -130 78 -222q20 -4 74 -4zM1024 0
q-90 0 -192 27q-82 109 -130 300q-48 192 -48 418q0 153 22 314q26 156 69 336q0 78 55 133q54 54 133 54h182q79 0 133 -54q55 -55 55 -133q43 -180 69 -336q22 -161 22 -314q0 -226 -48 -418q-48 -191 -130 -300q-102 -27 -192 -27zM279 654q0 145 55 327q54 179 150 318
q99 151 218 209q-70 -128 -109 -392q-58 -107 -92 -229q-35 -126 -35 -233q0 -96 33 -168q33 -71 102 -133q39 -156 101 -279q-203 100 -305 223q-118 150 -118 357zM1346 74q61 120 100 279q71 63 103 133t32 168q0 110 -34 233q-34 122 -92 229q-39 264 -109 392
q119 -58 218 -209q96 -139 150 -318q55 -182 55 -327q0 -207 -118 -357q-102 -123 -305 -223z" />
</svg>