<svg xmlns="http://www.w3.org/2000/svg" xmlns:xlink="http://www.w3.org/1999/xlink" version="1.1" viewBox="-10 0 2068 2048">
   <path fill="currentColor"
d="M202 202q-82 0 -142 60t-60 147v408q82 0 142 60t60 147t-60 147t-142 60v408q0 87 60 147t142 60h1644q82 0 142 -60t60 -147v-408q-82 0 -142 -60t-60 -147t60 -147t142 -60v-408q0 -87 -60 -147t-142 -60h-1644zM202 409h1644v259q-95 56 -152 152q-56 92 -56 204
t56 204q57 96 152 152v259h-1644v-259q94 -56 152 -152q54 -92 54 -204t-54 -204q-58 -96 -152 -152v-259z" />
</svg>