<svg xmlns="http://www.w3.org/2000/svg" xmlns:xlink="http://www.w3.org/1999/xlink" version="1.1" viewBox="-10 0 2068 2048">
   <path fill="currentColor"
d="M0 421v1207q0 78 56 133q54 54 132 54h558v-928h1114v-466q0 -79 -54 -133q-54 -55 -132 -55h-1486q-78 0 -133 55t-55 133zM188 421h370v278h-370v-278zM558 1628h-370v-279h370v279zM558 1166h-370v-279h370v279zM746 699v-278h370v278h-370zM1674 699h-370v-278h370
v278zM1490 1349q40 0 66 28q26 29 26 68t-26 65t-65 26t-69 -26q-28 -25 -28 -65t28 -68t68 -28zM1490 1070q182 0 336 102q152 101 222 273q-70 166 -222 268q-154 102 -336 102t-334 -102q-153 -102 -222 -268q69 -172 222 -273q152 -102 334 -102zM1490 1209
q-96 0 -166 70q-68 69 -68 166q0 95 68 163q70 68 166 68t164 -68t68 -163q0 -96 -68 -166q-69 -70 -164 -70z" />
</svg>