<svg xmlns="http://www.w3.org/2000/svg" xmlns:xlink="http://www.w3.org/1999/xlink" version="1.1" viewBox="-10 0 2068 2048">
   <path fill="currentColor"
d="M1674 1325q-56 0 -94 -38t-38 -91q0 -54 40 -91q42 -38 90 -38t88 40q41 42 45.5 89.5t-35.5 87.5q-42 41 -96 41zM1674 809q-156 0 -268 111q-112 112 -112 268q0 122 96 304q68 126 182 278l102 116l96 -116q114 -152 182 -278q96 -181 96 -304q0 -157 -111 -268
t-263 -111zM1284 733q-25 -107 -112 -177q-90 -71 -200 -71q-136 0 -230 94t-94 230t94 230t230 94q44 0 106 -20q36 -224 206 -380zM1078 1239h-648q0 -86 -63 -149t-149 -63v-435q86 0 150 -64q62 -63 62 -149h1082q0 86 64 149q64 64 148 64l72 10q80 15 146 55v-495
h-1942v1294h1134l-10 -40q-36 -108 -46 -177z" />
</svg>