<svg xmlns="http://www.w3.org/2000/svg" xmlns:xlink="http://www.w3.org/1999/xlink" version="1.1" viewBox="-10 0 2058 2048">
   <path fill="currentColor"
d="M1020 782h192v-293h292v-196h-292v-293h-192v293h-294v196h294v293zM626 1659q-76 0 -134 58q-58 57 -58 137t57 137t137 57t137 -57t57 -137t-56 -137q-58 -58 -140 -58zM1604 1659q-82 0 -140 58q-56 57 -56 137t57 137t137 57t136 -57q58 -58 58 -137t-58 -137
t-134 -58zM644 1344l6 -14l86 -160h726q56 0 100 -27q47 -28 70 -73l374 -681l-168 -96l-376 685h-684l-416 -877h-320v192h196l352 740l-132 242q-24 41 -24 92q0 82 57 139t135 57h1170v-196h-1128q-10 0 -17 -7t-7 -16z" />
</svg>