<svg xmlns="http://www.w3.org/2000/svg" xmlns:xlink="http://www.w3.org/1999/xlink" version="1.1" viewBox="-10 0 2068 2048">
   <path fill="currentColor"
d="M1818 0h-1588q-96 0 -163 67t-67 162v1590q0 95 67 162t163 67h1588q96 0 164 -67q66 -66 66 -162v-1590q0 -96 -66 -162q-68 -67 -164 -67zM912 1477h-118q-100 0 -196 -42q-112 -48 -182 -144q-74 -113 -74 -267t74 -267q70 -96 182 -144q96 -42 196 -42h118v224h-118
q-75 0 -132 37q-90 58 -90 195q0 135 96 194q59 32 126 32h118v224zM1366 912v224h-682v-224h682zM1254 1477h-118v-224h118q75 0 132 -37q92 -59 92 -195q0 -135 -96 -194q-60 -32 -128 -32h-118v-224h118q100 0 196 42q112 48 182 144q74 113 74 267t-74 267
q-70 96 -182 144q-96 42 -196 42z" />
</svg>