<svg xmlns="http://www.w3.org/2000/svg" xmlns:xlink="http://www.w3.org/1999/xlink" version="1.1" viewBox="-10 0 2068 2048">
   <path fill="currentColor"
d="M558 427l-130 131l-192 -192l130 -130zM0 1116h280v-183h-280v183zM1116 0h-182v279h182v-279zM1582 1024q0 154 -76 284q-78 132 -202 200v166q0 43 -26 69t-66 26h-374q-40 0 -66 -26t-26 -69v-166q-125 -68 -202 -200q-78 -131 -78 -284q0 -152 78 -279
q76 -126 202 -202q125 -76 278.5 -76t279.5 76q125 76 202 202q76 125 76 279zM1394 1024q0 -152 -109 -261t-261 -109t-261 109t-109 261q0 85 32 155q33 72 94 124h488q60 -51 94 -124q32 -72 32 -155zM838 1953q0 43 26 69t70 26h182q44 0 70 -26t26 -69v-92h-374v92z
M1770 933v183h278v-183h-278zM1682 236l-192 191l132 131l190 -192z" />
</svg>