<svg xmlns="http://www.w3.org/2000/svg" xmlns:xlink="http://www.w3.org/1999/xlink" version="1.1" viewBox="-10 0 2058 2048">
   <path fill="currentColor"
d="M1312 1705l-288 -169l-288 169l78 -325l-252 -219l330 -28l132 -306l132 306l330 28l-252 219zM1806 0h-1564v192l476 356q-168 73 -286 210q-116 136 -162 311q-44 174 -8.5 352t146.5 323q109 144 272 224t344.5 80t345.5 -80q162 -80 272 -224q110 -145 145.5 -323
t-9.5 -352q-44 -173 -162 -311t-286 -210l476 -356v-192zM1610 1266q0 150 -74 281t-196.5 213t-276 91t-287.5 -55q-136 -65 -224 -183q-91 -121 -108 -269q-19 -152 36 -291q56 -140 168 -235q114 -98 262 -124q114 -27 228 0q206 40 339 202t133 370zM1084 484h-120
l-392 -292h910z" />
</svg>