<svg xmlns="http://www.w3.org/2000/svg" xmlns:xlink="http://www.w3.org/1999/xlink" version="1.1" viewBox="-10 0 2058 2048">
   <path fill="currentColor"
d="M1472 2048q-61 -25 -74 -96q0 -17 6 -37q4 -14 33 -68q214 -383 205 -826q9 -424 -196 -800q-38 -76 -53 -122q9 -58 53 -88q28 -13 65 -11q35 2 66 20q41 55 65 109q153 294 206 612q30 256 8 511q-44 328 -192 625q-53 99 -76 132q-29 39 -55 39h-61zM1066 1843
q-38 -13 -61 -49q-23 -35 -14 -78q0 -2 31 -70l22 -44q170 -322 140 -686q-23 -260 -145 -490q-44 -88 -50 -118q-7 -31 22 -65q29 -36 74 -40t86 27q99 143 157 319q91 267 78 544q-14 279 -131 535q-59 135 -104 180q-49 48 -105 26v9zM646 1633q-52 -22 -65 -79
q0 -43 39 -118q105 -187 105 -404t-105 -405q-45 -89 -46 -120q-2 -33 31 -67q33 -35 76 -31q45 5 75 33q31 30 69 102q123 225 125 479q1 254 -125 483q-34 69 -61 96t-61 31t-57 -5v5zM253 1436q-47 -25 -65 -74q-10 -26 0 -51q9 -24 39 -72q70 -95 61 -218
q13 -123 -61 -223q-13 -18 -39 -74q-9 -43 17 -81q25 -37 74 -46q40 -5 70 13q33 20 66 70q100 157 100 341t-100 336q-71 105 -158 79h-4z" />
</svg>