<svg xmlns="http://www.w3.org/2000/svg" xmlns:xlink="http://www.w3.org/1999/xlink" version="1.1" viewBox="-10 0 2068 2048">
   <path fill="currentColor"
d="M2048 540h-4l-240 300q-81 -36 -168 -36l-34 4l186 -228q-354 -214 -766.5 -214t-765.5 214l766 952l86 -110v284l-86 110l-1022 -1276q221 -172 482 -260q264 -90 540 -90t540 90q262 89 486 260zM1990 1446v310q0 40 -36 72q-33 30 -80 30h-482q-40 0 -73 -33t-33 -79
v-308q0 -42 33 -75t73 -33v-132q0 -89 74 -154q73 -64 170 -64q95 0 170.5 64.5t75.5 153.5v132q41 0 74 36q34 34 34 80zM1768 1198q0 -48 -37 -79t-93 -31q-57 0 -96 30q-38 32 -38 80v132h264v-132z" />
</svg>