<svg xmlns="http://www.w3.org/2000/svg" xmlns:xlink="http://www.w3.org/1999/xlink" version="1.1" viewBox="-10 0 2058 2048">
   <path fill="currentColor"
d="M279 558h-183v1303q0 78 55 133q54 54 128 54h1302v-187h-1302v-1303zM1769 188h-301q-25 -82 -98 -135t-161 -53t-161 53t-98 135h-296q-79 0 -133 54q-55 55 -55 133v1116q0 73 55 128t133 55h1115q73 0 128 -55t55 -128v-1116q0 -78 -55 -133q-54 -54 -128 -54z
M1211 188q41 0 66 28q26 29 26 63q0 35 -29 66q-28 30 -63 30t-65 -30q-31 -31 -31 -66q0 -33 27 -63q25 -28 69 -28zM1050 1312l-305 -305l131 -131l174 175l492 -493l131 131z" />
</svg>