<svg xmlns="http://www.w3.org/2000/svg" xmlns:xlink="http://www.w3.org/1999/xlink" version="1.1" viewBox="-10 0 2058 2048">
   <path fill="currentColor"
d="M1452 379q80 0 136 -56t56 -134q0 -77 -56 -133t-136 -56t-136 56t-56 133q0 78 56 134t136 56zM1108 1704l99 -419l196 192v571h192v-714l-201 -192l58 -285q97 111 236 174q136 62 286 62v-187q-124 0 -235 -61q-107 -59 -171 -171l-98 -152q-26 -40 -69 -67
q-42 -27 -92 -27q-11 0 -38 5q-21 4 -38 4l-495 210v446h192v-321l169 -67l-151 772l-468 -98l-36 191zM261 714q-40 0 -67 -27t-27 -67t27 -69t67 -29h285v192h-285zM359 335q-39 0 -69 -30q-29 -29 -29 -69t29 -67q27 -26 69 -26h473v192h-473zM167 1093q-39 0 -66 -27
t-27 -67t27 -67q26 -26 66 -26h379v187h-379z" />
</svg>