<svg xmlns="http://www.w3.org/2000/svg" xmlns:xlink="http://www.w3.org/1999/xlink" version="1.1" viewBox="-10 0 2058 2048">
   <path fill="currentColor"
d="M1096 1331q0 80 -56 136t-136 56t-136 -56q-55 -55 -55 -136t55 -136t136 -55t136 55q56 56 56 136zM1007 1808q18 100 71 186h-743q-81 0 -136 -55q-56 -56 -56 -131v-953q0 -76 56 -132q55 -55 136 -55h93v-192q0 -128 65 -238t173 -174q109 -64 238 -64t238 64
q110 64 174 174q64 109 64 238v192h94q81 0 136 55t55 132v294q-59 -9 -96 -9t-95 9v-294h-1139v953h672zM619 668h570v-192q0 -120 -82 -202q-83 -83 -203 -83q-119 0 -202 83t-83 202v192zM1905 1509l-133 -133l-205 200l-200 -200l-134 133l201 201l-201 204l134 134
l200 -205l205 205l133 -134l-204 -204z" />
</svg>