<svg xmlns="http://www.w3.org/2000/svg" xmlns:xlink="http://www.w3.org/1999/xlink" version="1.1" viewBox="-10 0 2068 2048">
   <path fill="currentColor"
d="M1752 1570q66 -116 66 -229q0 -180 -126 -306q-124 -125 -304 -125t-306 125q-126 126 -126 306q0 179 126 305t306 126q135 0 228 -67l296 296l136 -135zM1388 1579q-98 0 -168 -70t-70 -168q0 -99 70 -169q68 -69 167 -69t169 69q70 70 70 169q0 98 -70 168t-168 70z
M1532 429h-1150v-382h1150v382zM382 1772v-382h-382v-575q0 -125 81 -206t207 -81h1338q126 0 206 81q80 80 80 206v189q-86 -132 -224 -209q-139 -78 -300 -78q-190 0 -346 107t-228 279h-238v476h238q36 91 124 193h-556z" />
</svg>