<svg xmlns="http://www.w3.org/2000/svg" xmlns:xlink="http://www.w3.org/1999/xlink" version="1.1" viewBox="-10 0 2068 2048">
   <path fill="currentColor"
d="M1582 558h-278l370 -370l374 370h-278v1302h-188v-1302zM654 374q-178 0 -326 88q-146 85 -238 236q-90 148 -90 326q0 176 88 326q87 148 238 236t326 88t326 -88q152 -89 238 -236q88 -148 88 -326t-87 -326.5t-239 -235.5q-150 -88 -324 -88zM654 576q123 0 224 58
q101 57 164 164q60 104 60 226t-60 226q-62 105 -164 164q-102 58 -223.5 58t-226.5 -58q-104 -58 -166 -164q-60 -104 -60 -226t60 -226q63 -107 166 -164q104 -58 226 -58zM558 744v346l296 170l70 -122l-226 -132v-262h-140z" />
</svg>