<svg xmlns="http://www.w3.org/2000/svg" xmlns:xlink="http://www.w3.org/1999/xlink" version="1.1" viewBox="-10 0 2068 2048">
   <path fill="currentColor"
d="M1070 1654q0 -200 128 -361q-19 -51 -42 -91q61 -51 88 -119q80 13 146 55q128 -69 272 -69q145 0 276 73q10 -64 10 -118q0 -169 -110.5 -256t-283.5 -80q-176 8 -352 102q-50 -59 -118 -86q35 -182 156 -243q85 -40 124 -119q39 -77 16 -157q-22 -80 -104 -131
q-94 -54 -252 -54q-169 0 -256 109q-87 110 -80 284q8 174 104 352q-59 44 -92 119q-177 -36 -238 -156q-44 -86 -120 -126q-75 -39 -156 -16q-79 22 -130 106q-56 95 -56 251q0 169 110.5 256t281.5 80q172 -8 354 -103q45 60 118 92q-35 177 -154 237q-87 40 -126 119
q-39 78 -16 158q22 79 104 130q96 55 252 55q119 0 196 -55q-50 -116 -50 -238zM974 1069q-42 0 -69 -27t-27 -69q0 -41 28 -68q28 -28 68 -28t68 28t28 68q0 41 -28 69q-26 27 -68 27zM1756 1266v292h292v197h-292v293h-196v-293h-294v-197h294v-292h196z" />
</svg>