<svg xmlns="http://www.w3.org/2000/svg" xmlns:xlink="http://www.w3.org/1999/xlink" version="1.1" viewBox="-10 0 2058 2048">
   <path fill="currentColor"
d="M191 1163l744 -1067v1067h-744zM1074 1163q92 -252 87 -584q-5 -309 -87 -579q214 70 397 261q173 178 280 423q107 246 107 479h-784zM1871 1494q-56 90 -135 157q-87 -39 -157 -118q-66 87 -172 120t-211 0t-174 -120q-66 87 -170 120q-105 33 -211 0t-172 -120
q-84 84 -156 118q-84 -67 -140 -157q-56 -89 -74 -192h1850q-23 108 -78 192zM1858 2047q-148 0 -279 -69q-126 69 -276 69q-151 0 -281 -69q-126 69 -276 69q-151 0 -277 -69q-139 78 -370 69v-187q111 5 192 -13q103 -23 178 -78q121 87 277 87q154 0 276 -87
q126 87 281 87t276 -87q75 55 179 78q80 18 191 13v187h-91z" />
</svg>