<svg xmlns="http://www.w3.org/2000/svg" xmlns:xlink="http://www.w3.org/1999/xlink" version="1.1" viewBox="-10 0 2068 2048">
   <path fill="currentColor"
d="M1912 1484l136 -134l-306 -306l-288 -80l184 -24l400 -310l-112 -152l-368 274l-256 46l306 -306l-104 -436l-194 46l82 326l-104 114q-36 -82 -108 -128q-74 -48 -156.5 -48t-157.5 48q-71 46 -108 128l-106 -114l84 -326l-192 -46l-104 436l306 306l-256 -46l-368 -274
l-112 152l398 310l180 28l-288 80l-300 302l134 134l266 -270l228 -62l-372 318v522h194v-436l148 -126q27 158 148 258q122 102 278 102t278 -102q121 -100 148 -258l148 126v436h194v-522l-374 -318l230 62z" />
</svg>