<svg xmlns="http://www.w3.org/2000/svg" xmlns:xlink="http://www.w3.org/1999/xlink" version="1.1" viewBox="-10 0 2068 2048">
   <path fill="currentColor"
d="M0 206v1228h1054q-33 -101 -33 -206h-614q0 -82 -60 -142t-141 -60v-412q81 0 141 -60t60 -141h1026q0 81 60 141t141 60v10q101 0 206 33v-451h-1840zM920 513q-129 0 -218 89t-89 218t89 216q88 86 218 91q58 0 115 -24q25 -98 62 -163q47 -84 125 -158
q-9 -106 -96 -187q-88 -82 -206 -82zM1634 719l230 231l-230 230v-154q-89 0 -158 56q-68 56 -89 143q-21 90 22 171l-115 110q-86 -128 -62 -281q24 -150 134 -251q111 -101 268 -101v-154zM1634 1842l-230 -230l230 -231v154q97 0 163 -55q69 -56 89 -144q22 -89 -22 -170
l111 -111q92 129 67 281q-23 151 -137 252q-111 100 -271 100v154z" />
</svg>