<svg xmlns="http://www.w3.org/2000/svg" xmlns:xlink="http://www.w3.org/1999/xlink" version="1.1" viewBox="-10 0 2058 2048">
   <path fill="currentColor"
d="M596 172h856v896q0 -67 -80 -120q-67 -43 -176 -72q-91 -24 -172 -24q-80 0 -172 24q-109 29 -176 72q-80 53 -80 120v-896zM1452 0h-856q-68 0 -118 50t-50 122v1192q0 72 50 122t118 50h856q68 0 118 -50t50 -122v-1192q0 -72 -50 -122t-118 -50zM1024 684
q72 0 122 -50t50 -122t-50 -122t-122 -50t-122 50t-50 122t50 122t122 50zM1196 1708v168h424v-168h-424zM852 1708h-424v168h424v172l256 -256l-256 -256v172z" />
</svg>