<svg xmlns="http://www.w3.org/2000/svg" xmlns:xlink="http://www.w3.org/1999/xlink" version="1.1" viewBox="-10 0 2068 2048">
   <path fill="currentColor"
d="M1024 0q200 0 392 77q188 76 333.5 221t220.5 334q78 192 78 392t-78 392q-75 189 -220.5 334t-333.5 221q-192 77 -392 77t-392 -77q-188 -76 -333.5 -221t-220.5 -334q-78 -192 -78 -392t78 -392q75 -189 220.5 -334t333.5 -221q192 -77 392 -77zM1332 870v-154
q0 -86 -60 -146t-148 -60h-408v1028h408q88 0 148 -60t60 -146v-154q0 -62 -46 -108t-108 -46q62 0 108 -46t46 -108zM1124 1332h-202v-207h202v207zM1124 923h-202v-207h202v207z" />
</svg>