<svg xmlns="http://www.w3.org/2000/svg" xmlns:xlink="http://www.w3.org/1999/xlink" version="1.1" viewBox="-10 0 2068 2048">
   <path fill="currentColor"
d="M869 1180q31 30 31 78q0 47 -31 80q-32 34 -78 34q-47 0 -78 -36q-109 -103 -145 -248q-36 -142 0 -284q36 -145 145 -248l389 -394q109 -103 252 -142q142 -40 285 0q145 39 247 141.5t142 246.5q39 144 0 286t-142 252l-166 166q4 -139 -42 -270l52 -52q99 -98 99 -236
t-99 -236q-98 -98 -236 -98t-236 98l-389 394q-99 94 -99 232q0 136 99 236zM1180 712q32 -36 78 -36t78 36q109 103 145 246q18 72 18 143.5t-18 142.5q-36 144 -145 246l-389 396q-110 104 -252 142q-143 40 -286 0q-142 -38 -246 -142t-143 -248q-39 -142 0 -284
t143 -252l166 -166q-5 139 42 270l-52 52q-99 98 -99 235t99 236t236 99t236 -98l389 -394q99 -94 99 -232q0 -136 -99 -236q-31 -30 -31 -77t31 -79z" />
</svg>