<svg xmlns="http://www.w3.org/2000/svg" xmlns:xlink="http://www.w3.org/1999/xlink" version="1.1" viewBox="-10 0 2058 2048">
   <path fill="currentColor"
d="M377 380q-39 -9 -39 -124q0 -58 15 -135l4 -5q119 -54 250 -86q256 -57 470 -5q293 77 476 360q182 282 153 519q-19 183 -163 331q-81 87 -250 188l-24 19q-105 68 -129 201q-15 72 0 183l5 29q0 38 -34 55t-43 -26q-24 -120 -15 -236q15 -211 149 -302
q294 -193 358 -401q65 -209 -84 -493q-81 -158 -288 -235q-169 -57 -375 -53q-178 9 -254 48q-67 33 -120 120q-22 32 -31 41q-11 12 -31 7zM794 1086l-24 -48q5 -67 -17 -101q-21 -33 -48 -21q-25 11 -40 77q-15 65 0 165q9 40 -5 51q-15 12 -36 5q-22 -8 -22 -12
q-43 -171 -9 -265q33 -91 120 -72q52 9 76 48q20 24 24 63v29q2 -2 13 -12.5t31 -30.5q48 -43 86 -58q53 -24 72 9q68 97 5 226q-32 65 -106 144l-14 19q-16 16 -24 20q-9 5 -24 -10t-15 -26q0 -12 15 -32q129 -192 120 -244q-5 -40 -82 4q-76 44 -96 72zM506 1365l29 43
q32 46 82 87q63 52 129 67q87 20 178 -19q28 -9 43 0q14 8 19 19q9 34 -33 48q-138 48 -269 14q-101 -24 -187 -91q-63 -48 -82 -86q-33 -64 14 -92q24 -19 77 10zM453 1586q13 17 34 33q45 38 91 63q66 36 154 57q100 20 211 0q39 -4 48 39t-31 58q-37 14 -127 9
q-126 -4 -231 -48q-147 -57 -240 -187q-5 -9 10 -24t26 -15q10 0 36 8zM449 1783q77 101 192 149q99 43 201 40q104 -3 154 -40q15 -9 26 7q12 17 3 26q-91 91 -245 82q-124 -4 -259 -72q-115 -57 -144 -96q-10 -27 -10 -51q0 -26 14 -40q15 -15 36 -12q25 4 32 7z" />
</svg>