<svg xmlns="http://www.w3.org/2000/svg" xmlns:xlink="http://www.w3.org/1999/xlink" version="1.1" viewBox="-10 0 2068 2048">
   <path fill="currentColor"
d="M1830 1816l-632 -1506q-53 -119 -158 -190q-107 -72 -238 -72q-117 0 -216 58q-96 59 -154 160q-56 100 -56 214v312h-280v506q88 -38 184 -38v-280h466q78 0 132 54q56 56 56 130v652h-196q-24 103 -88 184h466v-836q0 -98 -48 -184q-48 -87 -134 -136q-90 -52 -188 -52
h-188v-312q0 -100 72 -172t172 -72q75 0 136 42q61 44 86 106l602 1432h-232v184h654v-184h-218zM280 1630q40 0 68 28t28 66q0 36 -28 64t-66 28t-66 -28t-28 -64q0 -38 28 -66t64 -28zM280 1442q-114 0 -197 83t-83 199q0 114 84 196q82 80 198 80q114 0 195 -81t81 -195
q0 -116 -80 -198q-82 -84 -198 -84z" />
</svg>