<svg xmlns="http://www.w3.org/2000/svg" xmlns:xlink="http://www.w3.org/1999/xlink" version="1.1" viewBox="-10 0 2058 2048">
   <path fill="currentColor"
d="M256 940h424l-212 -216l120 -120l420 420l-420 420l-120 -120l212 -216h-424v-168zM1108 1536q139 0 258 -68q118 -68 186 -186q68 -119 68 -258t-68 -258q-68 -118 -186 -186q-119 -68 -258 -68q-177 0 -316 112l-120 -124l12 -12l84 -488h680l84 488q119 95 190 236
q70 139 70 300t-70 300q-71 141 -190 236l-84 488h-680l-84 -488l-12 -12l120 -124q139 112 316 112z" />
</svg>