<svg xmlns="http://www.w3.org/2000/svg" xmlns:xlink="http://www.w3.org/1999/xlink" version="1.1" viewBox="-10 0 2068 2048">
   <path fill="currentColor"
d="M1024 512q-280 0 -514 137q-236 139 -372 372q-138 238 -138 515h188q0 -227 114 -421q112 -194 304 -305t418 -111t418 111q193 111 306 305q112 194 112 421h188q0 -279 -138 -515q-135 -233 -372 -372q-233 -137 -514 -137zM1024 882q-176 0 -324 89q-151 90 -238 238
q-86 149 -86 327h182q0 -128 64 -234q62 -105 170 -169t232.5 -64t233.5 64q107 64 170 169q62 107 62 234h184q0 -178 -88 -327q-86 -147 -238 -238q-148 -89 -324 -89z" />
</svg>