<svg xmlns="http://www.w3.org/2000/svg" xmlns:xlink="http://www.w3.org/1999/xlink" version="1.1" viewBox="-10 0 2068 2048">
   <path fill="currentColor"
d="M1852 732q-82 0 -139 -57t-57 -141q0 -47 50 -146q36 -73 96 -164l50 -78l50 78q60 91 96 164q50 99 50 146q0 84 -57 141t-139 57zM1508 534q0 -90 92 -256q-126 -108 -290 -168q-159 -60 -336 -60q-266 0 -488 130q-224 131 -354 354q-132 225 -132 489.5t132 488.5
q131 226 353.5 356t489 130t489 -130t354.5 -356q130 -222 130 -488q0 -66 -14 -160q-47 14 -82 14q-142 0 -243 -101t-101 -243zM1326 572l106 104l-106 106l106 100l-106 106l-206 -206zM518 676l104 -104l206 210l-206 206l-104 -106l104 -100zM1308 1512
q-52 -91 -139.5 -143.5t-194 -52.5t-194.5 52q-89 53 -140 144h-164q40 -107 128 -196l-288 -164q-38 18 -73 18t-73 -18q-50 -32 -66 -90q-17 -56 14 -110q29 -51 86 -68q57 -16 112 12q38 23 56 56q18 35 18 72l346 200q107 -54 238 -54q170 0 304 94q134 92 194 248h-164
z" />
</svg>