<svg xmlns="http://www.w3.org/2000/svg" xmlns:xlink="http://www.w3.org/1999/xlink" version="1.1" viewBox="-10 0 2068 2048">
   <path fill="currentColor"
d="M1464 1756l174 174q36 36 78 18q41 -19 41 -64v-422l270 -334q36 -50 9 -102t-87 -52h-681q-60 0 -87 56q-27 58 9 98l274 334v294zM1268 1660h-1267v-294q0 -125 141 -220q120 -80 316 -128q168 -44 320 -44q56 0 179 18l27 4q-27 78 9 182q-137 -18 -215 -18
q-130 0 -283 42q-128 31 -220 82q-91 51 -91 82v106h1033l51 60v128zM778 876q165 0 279 -114t114 -277t-114 -277t-277 -114q-162 0 -276 114q-115 116 -115 278t115 276q114 114 274 114zM778 292q83 0 140 57t57 137t-57 136q-58 58 -138 58q-79 0 -137 -58
q-57 -56 -57 -136t57 -137t135 -57z" />
</svg>