<svg xmlns="http://www.w3.org/2000/svg" xmlns:xlink="http://www.w3.org/1999/xlink" version="1.1" viewBox="-10 0 2068 2048">
   <path fill="currentColor"
d="M1566 308q136 116 208 274q72 159 72 341q0 221 -112 409q-111 188 -299.5 298t-411 110t-411 -110t-300.5 -298q-110 -188 -110 -409q0 -177 76 -346q72 -148 202 -269h1086zM1638 101h-1230l-62 53q-168 144 -256 344q-90 201 -90 425q0 274 138 510q136 235 372 375
q234 139 513.5 139t514.5 -139q237 -140 372 -375q138 -236 138 -510q0 -224 -90 -425q-88 -200 -256 -344zM1124 562q0 64 48 109t108 45q62 0 106 -45q46 -46 46 -109q0 -62 -46 -108q-44 -45 -106 -45q-60 0 -108 45t-48 108zM616 562q0 64 45 109t105 45t108 -45
t48 -109q0 -63 -48 -108t-108 -45t-105 45t-45 108zM510 1125q86 0 146 -60t60 -144q0 -85 -60 -145t-144 -60t-144 60t-60 145q0 84 60 144t142 60zM970 1332q0 -87 -60 -147t-144 -60t-144 60t-60 147q0 86 60 146t144 60t144 -60t60 -146zM1024 1125q86 0 146 -60
t60 -144q0 -85 -60 -145t-146 -60t-146 60t-60 145q0 84 60 144t146 60zM1484 1332q0 -87 -60 -147t-144 -60t-144 60t-60 147q0 86 60 146t144 60t144 -60t60 -146zM1740 923q0 -87 -60 -147t-144 -60t-144 60t-60 145q0 84 60 144t144 60t144 -60t60 -142z" />
</svg>