<svg xmlns="http://www.w3.org/2000/svg" xmlns:xlink="http://www.w3.org/1999/xlink" version="1.1" viewBox="-10 0 2068 2048">
   <path fill="currentColor"
d="M1024 428q159 0 298 80q138 80 218 218q80 139 80 298t-80 298q-80 138 -218 218q-139 80 -298 80t-298 -80q-138 -80 -218 -218q-80 -139 -80 -298t80 -298q80 -138 218 -218q139 -80 298 -80zM1024 256q-208 0 -384 104t-280 280t-104 384t104 384t280 280t384 104
t384 -104t280 -280t104 -384t-104 -384t-280 -280t-384 -104zM392 392l-92 -92q-149 149 -228 344l124 40q67 -166 196 -292zM144 1204q-16 -86 -16 -180t16 -180l-120 -36q-24 108 -24 216t24 216zM1976 644q-79 -195 -228 -344l-92 92q129 126 196 292zM72 1404
q77 193 228 344l92 -92q-129 -126 -196 -292zM1656 1656l92 92q151 -151 228 -344l-124 -40q-67 166 -196 292zM1904 844q16 86 16 180t-16 180l120 36q24 -112 24 -216t-24 -216z" />
</svg>