<svg xmlns="http://www.w3.org/2000/svg" xmlns:xlink="http://www.w3.org/1999/xlink" version="1.1" viewBox="-10 0 2068 2048">
   <path fill="currentColor"
d="M0 1024q0 236 118 440q116 203 318 320q200 118 442 118q176 0 336 -64q163 -65 286 -188l-146 -146q-188 200 -476 200q-219 0 -392 -118q-159 -112 -238 -300q-77 -182 -46 -376q37 -211 196 -364q162 -154 366 -190q198 -36 380 42q183 78 296 238q120 170 120 388
h-294l390 388h8l384 -388h-292q0 -237 -120 -442q-117 -202 -320 -320q-199 -116 -440 -116t-440 116q-202 118 -318 320q-118 204 -118 442zM778 1316h196v196h-196v-196zM778 534h196v586h-196v-586z" />
</svg>