<svg xmlns="http://www.w3.org/2000/svg" xmlns:xlink="http://www.w3.org/1999/xlink" version="1.1" viewBox="-10 0 2058 2048">
   <path fill="currentColor"
d="M1935 1713q8 0 8 6q0 7 -8 11l-92 157q-9 13 -26 13l-113 -39l-74 48l-18 118q0 9 -6 15t-15 6h-183q-10 0 -31 -21l-17 -118q-40 -18 -74 -48l-113 48q-18 0 -27 -9l-91 -161q-8 -9 9 -26l100 -74v-96l-100 -74q-9 -9 -9 -26l91 -157q9 -9 27 -9l113 44l74 -44l17 -122
q0 -17 31 -17h183q10 0 15 4q6 5 6 13l18 122q25 9 83 44l113 -44q26 0 26 9l96 157q9 9 -13 26l-100 74v96zM1630 1582q0 -56 -42 -98q-41 -41 -98 -41t-98 41t-41 98t41 98q42 42 98 42t98 -42t42 -98zM842 1582q0 -205 117 -370h-117v-654h182v567q197 -192 466 -192
q145 0 270 52q-44 -229 -178 -388l139 -130q-96 -96 -139 -131l-131 131q-102 -93 -235 -140q-135 -48 -283 -48q-226 0 -420 114q-195 115 -305 305q-111 192 -111 420q0 229 111 421q110 190 305 302t420 112h26q-117 -165 -117 -371zM1212 0h-558v188h558v-188z" />
</svg>