<svg xmlns="http://www.w3.org/2000/svg" xmlns:xlink="http://www.w3.org/1999/xlink" version="1.1" viewBox="-10 0 2068 2048">
   <path fill="currentColor"
d="M1388 957q180 0 304 125q126 126 126 306q0 126 -66 229l296 296l-136 135l-296 -296q-107 67 -228 67q-180 0 -306 -126t-126 -305q0 -180 126 -306q126 -125 306 -125zM1388 1150q-100 0 -168 69q-70 70 -70 169q0 98 70 168t168 70t168 -70t70 -168q0 -99 -70 -169
q-70 -69 -168 -69zM764 0h386q76 0 132 56t56 133v193h386q76 0 132 56t56 137v480q-80 -135 -221.5 -213t-306.5 -78q-168 0 -308 85q-142 86 -228 227q-84 140 -84 312q0 119 46 233q47 112 128 198h-748q-78 0 -134 -56t-56 -137v-1051q0 -81 56 -137t134 -56h386v-193
q0 -77 56 -133t132 -56zM1150 382v-193h-386v193h386z" />
</svg>