<svg xmlns="http://www.w3.org/2000/svg" xmlns:xlink="http://www.w3.org/1999/xlink" version="1.1" viewBox="-10 0 2058 2048">
   <path fill="currentColor"
d="M375 1116l139 -418h1020l139 418h-1298zM1534 1582q-54 0 -96 -41q-44 -42 -44 -98t44 -98t98 -42t96 42q41 41 41 98t-41 98t-98 41zM514 1582q-57 0 -98 -41t-41 -98t41 -98q42 -42 96 -42t98 42t44 98t-44 98q-42 41 -96 41zM1664 654q-14 -46 -50 -70
q-38 -26 -80 -26h-1020q-47 0 -82 26q-34 25 -48 70l-196 558v741q0 43 26 69t65 26h96q39 0 65 -26t26 -69v-92h1115v92q0 42 27 69q26 26 65 26h96q39 0 65 -26t26 -69v-741zM654 0l370 419l370 -419h-740z" />
</svg>