<svg xmlns="http://www.w3.org/2000/svg" xmlns:xlink="http://www.w3.org/1999/xlink" version="1.1" viewBox="-10 0 2068 2048">
   <path fill="currentColor"
d="M2014 1175v402q0 85 -134 154q-134 68 -366 109q-229 40 -506 40q-226 0 -402 -28v-275l-406 -99v284q-200 -81 -200 -185v-605q0 -76 126 -137q128 -62 276 -62q213 0 408 95q119 55 312 198q181 133 274 180q156 81 316 81q88 0 170 -38q58 -29 100 -76zM304 622
l402 99v-303l-402 -99v303zM1612 470l402 100v-303l-402 -99v302zM2048 901q0 -57 -34 -118q-38 -72 -112 -114q-84 -47 -216 -47q-129 0 -266 71q-109 55 -200 137q-71 62 -80 85l66 47q149 111 228 147q132 66 278 66q208 0 294 -137q42 -66 42 -137z" />
</svg>