<svg xmlns="http://www.w3.org/2000/svg" xmlns:xlink="http://www.w3.org/1999/xlink" version="1.1" viewBox="-10 0 2058 2048">
   <path fill="currentColor"
d="M1024 0q-212 0 -390 52q-180 52 -286 142q-106 88 -106 194v978q0 87 72 163q69 73 198 130h1024q129 -57 198 -130q72 -76 72 -163v-978q0 -106 -106 -194q-106 -90 -286 -142q-178 -52 -390 -52zM1610 1366q0 28 -70 69q-78 56 -196 87q-145 36 -319.5 36t-320.5 -36
q-119 -32 -196 -87q-68 -40 -68 -69v-219q247 119 584.5 119t585.5 -119v219zM1610 923q-98 70 -252 110q-158 41 -334 41t-334 -41q-153 -40 -250 -110v-274q109 60 262 96t322.5 36t321.5 -36q154 -36 264 -96v274zM1024 585q-172 0 -320 -41q-118 -31 -196 -83
q-68 -40 -68 -71q0 -30 68 -70q77 -55 196 -87q150 -37 320.5 -37t319.5 37q118 31 196 87q70 41 70 70q0 30 -70 71q-79 52 -196 83q-147 41 -320 41zM536 1851h196v197h-196v-197zM1316 1851h198v197h-198v-197zM928 1851h192v197h-192v-197z" />
</svg>