<svg xmlns="http://www.w3.org/2000/svg" xmlns:xlink="http://www.w3.org/1999/xlink" version="1.1" viewBox="-10 0 2068 2048">
   <path fill="currentColor"
d="M1818 0h-1588q-96 0 -163 67t-67 162v1590q0 95 67 162t163 67h1588q96 0 164 -67q66 -66 66 -162v-1590q0 -96 -66 -162q-68 -67 -164 -67zM1818 1819h-1588v-1590h1588v1590zM1594 1392q0 80 -60 141q-62 62 -144.5 62t-141 -62t-58.5 -144t59 -141t140.5 -59t144.5 59
q60 58 60 144zM624 1595l-170 -171l970 -971l170 171zM460 661q0 -80 61 -141t143.5 -61t141.5 61q58 62 58 144t-59 141t-140.5 59t-144.5 -59q-60 -58 -60 -144z" />
</svg>