<svg xmlns="http://www.w3.org/2000/svg" xmlns:xlink="http://www.w3.org/1999/xlink" version="1.1" viewBox="-10 0 2065 2048">
   <path fill="currentColor"
d="M32 1876l978 -978l-143 -143l-72 71q-34 29 -74 29t-69 -29l-76 -71q-29 -34 -29 -74t29 -74l577 -573q29 -34 72 -34q42 0 71 34l72 71q33 29 33 72t-33 71l-72 72l148 143q28 -28 69 -28t72 28t31 72q0 43 -29 72l143 148l72 -77q28 -28 72 -28q43 0 71 28l72 77
q28 28 28 71q0 44 -28 72l-573 573q-33 33 -76 33q-44 0 -72 -33l-71 -72q-29 -29 -29 -72q0 -42 29 -71l71 -72l-143 -143l-978 979q-28 28 -72 28q-43 0 -71 -28q-29 -29 -29 -72t29 -72zM1835 1743q82 0 141 59q60 60 60 146v100h-1016v-100q0 -87 59 -146t146 -59h610z
" />
</svg>