<svg xmlns="http://www.w3.org/2000/svg" xmlns:xlink="http://www.w3.org/1999/xlink" version="1.1" viewBox="-10 0 2068 2048">
   <path fill="currentColor"
d="M1638 1152q168 0 288 120l122 -120v412h-410l184 -182q-78 -76 -184 -76q-104 0 -180 76q-74 76 -74 182t74 180q76 76 180 76q66 0 116 -26q52 -27 92 -76h172q-43 117 -146 186q-106 70 -234 70q-168 0 -288 -120t-120 -291t120 -291t288 -120zM818 74l206 208h822
q82 0 142 60t60 146v510q-165 -102 -356 -102q-181 0 -336 90q-155 88 -244 242q-88 156 -88 336q0 76 18 154h-840q-82 0 -142 -60t-60 -146v-1230q0 -88 60 -148t142 -60h616z" />
</svg>