<svg xmlns="http://www.w3.org/2000/svg" xmlns:xlink="http://www.w3.org/1999/xlink" version="1.1" viewBox="-10 0 2068 2048">
   <path fill="currentColor"
d="M1846 308h-938l-90 -308h-616q-82 0 -142 60t-60 142v1336q0 82 60 142t142 60h720l102 308h822q82 0 142 -60t60 -142v-1336q0 -82 -60 -142t-142 -60zM528 1288q-172 0 -294 -122q-124 -123 -124 -296t124 -296q122 -122 290 -122q169 0 284 110l10 5l-126 120l-10 -4
q-62 -63 -158 -63t-168 75t-72 175q0 101 72 176q71 74 170 74t156 -53q47 -42 62 -101h-224v-158h402l6 9q4 27 4 63q0 182 -113 295t-291 113zM1148 1115q43 85 120 173l-56 53zM1226 1038h-102l-34 -110h410l-10 43q-22 43 -54 101q-38 71 -96 139q-65 -79 -114 -173z
M1946 1846q0 43 -29 72t-71 29h-722l208 -207l-82 -283l90 -92l280 274l72 -77l-280 -274q150 -169 198 -360h130v-106h-370v-106h-110v106h-198l-120 -413h904q44 0 72 28q28 29 28 73v1336z" />
</svg>