<svg xmlns="http://www.w3.org/2000/svg" xmlns:xlink="http://www.w3.org/1999/xlink" version="1.1" viewBox="-10 0 2068 2048">
   <path fill="currentColor"
d="M2048 229v1590q0 96 -66 162q-68 67 -164 67h-1588q-96 0 -163 -67t-67 -162v-1590q0 -95 67 -162t163 -67h1588q96 0 164 67q66 66 66 162zM1818 912h-224v-229h-228v229h-230v224h230v229h228v-229h224v-224zM794 453h-222q-96 0 -163 67t-67 163v229q0 90 67 157
t163 67h222v229h-452v230h452q96 0 163 -67t67 -163v-682q0 -96 -67 -163t-163 -67zM572 683h222v229h-222v-229z" />
</svg>