<svg xmlns="http://www.w3.org/2000/svg" xmlns:xlink="http://www.w3.org/1999/xlink" version="1.1" viewBox="-10 0 2064 2048">
   <path fill="currentColor"
d="M220 334l155 160q175 -176 409 -237q234 -62 468 0q234 61 404 237l159 -160q-215 -219 -502 -295q-290 -77 -585 0q-294 76 -508 295zM545 664l159 159q138 -138 325 -138q186 0 324 138l159 -159q-134 -134 -311 -181q-179 -48 -351 0q-172 47 -305 181zM1002 1366
q-48 -126 -152 -215q-103 -89 -236 -115q-134 -27 -261 24q-129 51 -218 154q-91 104 -119 235q-29 133 18 258q79 195 268.5 288.5t380.5 19.5q111 -42 191 -125q79 -83 117 -183h373v340h340v-340h340v-341h-1042zM513 1707q-69 0 -120 -51q-50 -50 -50 -120
q0 -69 50 -119q51 -51 120 -51q68 0 119 51t51 119q0 69 -51 120t-119 51z" />
</svg>