<svg xmlns="http://www.w3.org/2000/svg" xmlns:xlink="http://www.w3.org/1999/xlink" version="1.1" viewBox="-10 0 2058 2048">
   <path fill="currentColor"
d="M970 716q0 -105 78 -180q76 -75 182 -75q81 0 150 49q66 47 90 125q14 41 14 81q0 107 -74 181t-180 74q-86 0 -152 -46q-64 -45 -92 -122q-16 -43 -16 -87zM308 716q0 284 254 712q139 225 346 485l14 15l-104 120l-112 -130q-126 -157 -244 -332q-158 -233 -250 -432
q-110 -248 -110 -438q0 -240 144 -430q143 -189 370 -257q-148 133 -226 307q-82 181 -82 380zM1230 0q192 0 358 96q166 95 262 260q96 164 96 360q0 240 -188 587q-126 241 -346 519q-99 132 -182 226l-116 -130q-126 -157 -244 -332q-157 -231 -246 -432
q-114 -249 -114 -443q0 -193 98 -355q99 -165 262 -260q163 -96 360 -96zM1230 202q-138 0 -256 70q-121 71 -188 187q-70 119 -70 257q0 83 20 149q32 127 134 308q120 220 360 538q233 -314 360 -538q99 -183 130 -308q20 -66 20 -149q0 -139 -68 -257q-66 -117 -184 -187
q-119 -70 -258 -70z" />
</svg>