<svg xmlns="http://www.w3.org/2000/svg" xmlns:xlink="http://www.w3.org/1999/xlink" version="1.1" viewBox="-10 0 2058 2048">
   <path fill="currentColor"
d="M1230 154q0 62 -46 108t-110 46t-108 -46q-44 -44 -44 -111q0 -65 43 -108t109 -43t110 43q46 44 46 111zM664 308q-64 0 -108 43q-46 44 -46 108q0 65 46 111q44 45 110 45q64 0 108 -45q44 -46 44 -111q0 -64 -44 -108q-44 -43 -110 -43zM1230 1024l-82 -231h304
l220 -110q29 -15 38 -44q10 -30 -2 -57q-12 -29 -42 -41q-33 -12 -60 2l-88 43l-48 -86q-24 -48 -72 -75t-100 -12l-256 53q-53 15 -86 58q-34 45 -34 96v72l-250 169v0q-20 16 -24 28l-90 178l-184 92q-29 16 -38 45q-9 33 6 60q19 44 66 44q18 0 34 -10l230 -115l106 -212
l144 154q-39 107 -172 245q-115 110 -278 231q-108 78 -256 173l-114 72l124 53q158 57 332 96q242 53 465.5 53t466.5 -53q173 -39 332 -96l124 -53l-140 -125q-163 -145 -302 -303q-182 -211 -274 -394zM1518 933l-28 14h-126l6 14q75 153 216 313l-54 -351z" />
</svg>