<svg xmlns="http://www.w3.org/2000/svg" xmlns:xlink="http://www.w3.org/1999/xlink" version="1.1" viewBox="-10 0 2068 2048">
   <path fill="currentColor"
d="M1808 1829q0 81 -58 139q-60 59 -144 59h-1408q-80 0 -139 -59t-59 -139v-1408q0 -84 59 -143t139 -59h556q-52 133 -52 254q0 175 88 325q87 152 236 238q150 87 330 87q127 0 208 -38l244 240v504zM1738 713q70 -122 70 -240q0 -189 -132 -320q-132 -132 -320 -132
t-320 132t-132 320t132 320t320 132q118 0 240 -70l310 310l142 -141zM1356 723q-108 0 -181 -73t-73 -179t73 -179t179 -73t179 73t73 179t-73 179t-177 73z" />
</svg>