<svg xmlns="http://www.w3.org/2000/svg" xmlns:xlink="http://www.w3.org/1999/xlink" version="1.1" viewBox="-10 0 2068 2048">
   <path fill="currentColor"
d="M870 1788q-123 58 -254 58q-168 0 -310 -84q-144 -85 -224 -226q-82 -142 -82 -305v-515q0 -168 82 -310q80 -141 224 -223t310 -82l254 471q-187 95 -298 257q-110 159 -110 349q0 189 110 348q112 163 298 262zM1432 1735v111h106q37 0 70 29q30 28 30 72t-30 72
q-33 29 -70 29h-308q-42 0 -74 -29q-32 -28 -32 -72t32 -72q32 -29 74 -29v-111q-174 -20 -314.5 -98t-221.5 -200q-78 -119 -78 -259q0 -154 96 -284q94 -129 258 -204t362 -75h56l-28 -53q-65 -119 -92 -182q-38 -98 -38 -178q0 -82 60 -142t142 -60q174 0 294 120
t120 289h-208l64 52q76 72 144 159q84 117 138 241q64 159 64 317q0 138 -80 259q-81 122 -221.5 200t-314.5 98zM1432 202q0 43 32 74q32 32 72 32t72 -32q30 -31 30 -72t-31 -72t-72 -31t-72 31t-31 70zM1538 1024q0 -87 -60 -147t-146 -60q-170 0 -290 120t-120 294h410
q86 0 146 -60t60 -147z" />
</svg>