<svg xmlns="http://www.w3.org/2000/svg" xmlns:xlink="http://www.w3.org/1999/xlink" version="1.1" viewBox="-10 0 2058 2048">
   <path fill="currentColor"
d="M1452 1334h522v143h-522v165l-237 -237l237 -241v170zM1737 1736v-166l237 237l-237 241v-170h-522v-142h522zM787 379q-80 0 -136 -56q-55 -55 -55 -134q0 -78 55 -133q56 -56 134 -56t134 56t56 133q0 78 -56 134t-132 56zM431 705l-170 71v317h-187v-446l499 -205
q37 -14 72 -14q47 0 91 25q43 24 69 64l89 152q69 108 177 172q110 65 238 65v187q-155 0 -290 -65q-134 -65 -227 -180l-58 285l196 196v719h-192v-571l-205 -192l-165 763h-201z" />
</svg>