<svg xmlns="http://www.w3.org/2000/svg" xmlns:xlink="http://www.w3.org/1999/xlink" version="1.1" viewBox="-10 0 2068 2048">
   <path fill="currentColor"
d="M1024 1846q-221 0 -412 -111q-189 -110 -300 -300q-110 -191 -110 -411t110 -411q112 -191 300.5 -301t411 -110t411 110t299.5 301q112 191 112 411t-112 411q-110 190 -300 300q-190 111 -410 111zM1024 0q-200 0 -392 77q-188 76 -333.5 221t-220.5 334
q-78 192 -78 392t78 392q75 189 220.5 334t333.5 221q192 77 392 77t392 -77q188 -76 333.5 -221t220.5 -334q78 -192 78 -392t-78 -392q-75 -189 -220.5 -334t-333.5 -221q-192 -77 -392 -77zM1024 510q-140 0 -258 69q-118 70 -186 188q-70 120 -70 257t70 257
q68 118 186 188q118 69 258 69t256 -69q120 -71 188 -188q70 -119 70 -257t-70 -257q-68 -117 -188 -188q-117 -69 -256 -69z" />
</svg>