<svg xmlns="http://www.w3.org/2000/svg" xmlns:xlink="http://www.w3.org/1999/xlink" version="1.1" viewBox="-10 0 2068 2048">
   <path fill="currentColor"
d="M2000 937v-120q0 -37 -32 -69t-74 -32h-102q-43 0 -71.5 32t-28.5 69v106h-106v-106q0 -37 -29 -69t-73 -32h-100q-42 0 -74 32q-32 31 -32 69v106h-100v-308q0 -43 -31 -74t-71 -31h-106q-38 0 -68 31q-32 32 -32 74v308h-102v-106q0 -38 -30 -69q-32 -32 -74 -32h-102
q-43 0 -71.5 32t-28.5 69v106h-106v-106q0 -37 -29 -69t-73 -32h-100q-42 0 -74 32q-32 31 -32 69v120q-48 29 -48 87q0 44 28 72q30 29 74 29h128q67 180 218 317q193 169 474 193v211h-104q-82 0 -142 60t-60 142h816q0 -81 -60 -142q-60 -60 -142 -60h-106v-211
q283 -28 476 -198q154 -129 216 -312h130q44 0 73 -29t29 -72q0 -58 -48 -87zM456 1125h466v303q-182 -20 -312 -120q-97 -73 -154 -183zM1124 1428v-303h466q-56 110 -154 183q-128 100 -312 120zM1024 409q62 0 108 -46t46 -113q0 -68 -44 -154q-52 -96 -110 -96t-110 96
q-44 88 -44 154q0 67 46 113t108 46zM1024 231q20 0 36 14q16 15 16 36t-16 36q-17 15 -36.5 15t-35.5 -15q-18 -15 -18 -36t18 -36q15 -14 36 -14zM1432 615q67 0 110 -45q44 -44 44 -116q0 -70 -44 -156q-48 -96 -108 -96t-108 96q-48 87 -48 156q0 71 45 116t109 45z
M1432 433q24 0 38 16q14 15 14 37q0 21 -14 36q-14 16 -35.5 16t-36.5 -16q-14 -15 -14 -36q0 -22 14 -37q15 -16 34 -16zM1846 615q62 0 108 -45q46 -46 46 -116q0 -69 -48 -156q-48 -96 -110 -96q-60 0 -108 96q-42 86 -42 156q0 72 42 116q44 45 112 45zM1846 433
q18 0 32 16q16 16 16 37q0 20 -16 36q-14 16 -35.5 16t-36.5 -16q-14 -15 -14 -36q0 -22 14 -37q15 -16 40 -16zM202 615q67 0 110 -45q44 -44 44 -116q0 -70 -44 -156q-48 -96 -108 -96t-108 96q-48 87 -48 156q0 71 45 116t109 45zM202 433q24 0 38 16q14 15 14 37
q0 21 -14 36q-14 16 -35.5 16t-36.5 -16q-14 -16 -14 -36t14 -37q15 -16 34 -16zM616 615q62 0 107 -45t45 -116q0 -69 -48 -156q-48 -96 -108 -96t-108 96q-42 86 -42 156q0 72 42 116q44 45 112 45zM616 433q18 0 32 16q16 17 16 37t-16 36q-14 16 -35.5 16t-36.5 -16
q-14 -15 -14 -36q0 -22 14 -37q15 -16 40 -16z" />
</svg>