<svg xmlns="http://www.w3.org/2000/svg" xmlns:xlink="http://www.w3.org/1999/xlink" version="1.1" viewBox="-10 0 2068 2048">
   <path fill="currentColor"
d="M2048 638l-128 -152q-32 24 -78 46q-65 32 -112 32q-44 0 -222 -46l-8 -4q-193 -50 -272 -50q-73 0 -162 36q-23 -143 -130 -236q-109 -92 -254 -92q-211 0 -370 108q-151 101 -232 278q-80 176 -80 390q0 213 106 376q100 150 278 230q180 80 394 80q312 0 520 -156
l-32 380l198 18l96 -1142q111 22 172 22q102 0 210 -54q62 -30 106 -64zM682 368q82 0 139 57t57 137t-57 137t-139 57h-466q44 -177 160 -278q123 -110 306 -110zM778 1442q-251 0 -412 -124q-174 -132 -174 -366h490q116 0 204 -54q88 -56 138 -150q42 -30 82 -52
q74 -36 120 -36q43 0 142 24l-38 452q-59 146 -208 226t-344 80z" />
</svg>