<svg xmlns="http://www.w3.org/2000/svg" xmlns:xlink="http://www.w3.org/1999/xlink" version="1.1" viewBox="-10 0 2068 2048">
   <path fill="currentColor"
d="M1216 1326l-338 -206v-586h146v512l298 178q-59 45 -106 102zM1080 1796q-56 10 -106 10q-210 0 -390 -106q-181 -105 -286 -286q-106 -180 -106 -391t106 -391q104 -179 286 -284q180 -106 390 -106t390 106q182 105 286 284q106 180 106 392q0 49 -10 104
q101 14 188 64q14 -90 14 -168q0 -267 -130 -490q-131 -223 -354 -354q-223 -130 -489.5 -130t-488.5 130q-224 131 -354 354q-132 225 -132 489.5t132 488.5q131 226 353.5 356t488.5 130q79 0 170 -14q-51 -87 -64 -188zM1266 1608v198h782v-198h-782z" />
</svg>