<svg xmlns="http://www.w3.org/2000/svg" xmlns:xlink="http://www.w3.org/1999/xlink" version="1.1" viewBox="-10 0 2068 2048">
   <path fill="currentColor"
d="M870 308q-173 0 -334 65t-284 187q-123 124 -188 284q-64 159 -64 334t64 334q65 161 188 284q123 122 284 187t333.5 65t334.5 -65t283.5 -187t186.5 -284q66 -162 66 -334t-66 -334q-65 -162 -186.5 -284t-283.5 -187t-334 -65zM1178 1125q-106 0 -181 -75t-75 -180
t75 -180t180 -75t180 75t75 180t-75 180t-179 75zM1792 0q-106 0 -180 74q-74 75 -74 181q0 105 75 180t180 75t180 -75t75 -180q0 -106 -76 -181q-74 -74 -180 -74z" />
</svg>