<svg xmlns="http://www.w3.org/2000/svg" xmlns:xlink="http://www.w3.org/1999/xlink" version="1.1" viewBox="-10 0 2068 2048">
   <path fill="currentColor"
d="M1342 1384l140 -145l210 215l216 -210l140 140l-216 211l216 210l-140 145l-216 -215l-210 215l-140 -145l210 -210zM996 98q270 0 500 108q230 109 362 290q134 182 134 402q0 75 -20 168q-129 -70 -280 -70q-158 0 -296 80q-138 79 -220 217q-82 135 -82 302l10 93
l-108 5q-181 0 -350 -47q-107 86 -224 140q-97 46 -212 75q-83 20 -154 28l-56 5q150 -150 220 -290q47 -88 52 -159q-129 -110 -200 -250q-72 -143 -72 -297q0 -220 133 -402t363 -290q229 -108 500 -108z" />
</svg>