<svg xmlns="http://www.w3.org/2000/svg" xmlns:xlink="http://www.w3.org/1999/xlink" version="1.1" viewBox="-10 0 2068 2048">
   <path fill="currentColor"
d="M950 77l-54 48q-99 -58 -218 -67t-230 24l-10 -5q-72 -77 -180 -77t-183 75t-75 183q0 109 78 181l4 9q-32 111 -24 229q10 119 68 219l-48 54q-48 44 -48 106t48 110l144 145q42 43 108 43t108 -43l40 -39l726 728q44 48 106 48q64 0 112 -48l578 -578q48 -48 48 -111
t-48 -111l-728 -723l38 -38q44 -43 44 -109q0 -65 -44 -108l-144 -145q-43 -48 -108 -48t-108 48zM226 511q9 -45 40 -101l-82 -82q-16 -15 -24 -39q-10 -27 -4 -53q8 -28 30 -50q21 -21 50 -29q29 -7 54 2q22 8 38 24l82 82q53 -29 100 -38q141 -44 270 14l-538 540
q-59 -131 -16 -270zM1894 1311l-584 583l-726 -728l582 -583zM1204 328l-876 877l-144 -149l872 -873zM1310 983l-328 328l-110 -106l332 -333zM1528 1205l-324 323l-110 -106l328 -328z" />
</svg>