<svg xmlns="http://www.w3.org/2000/svg" xmlns:xlink="http://www.w3.org/1999/xlink" version="1.1" viewBox="-10 0 2068 2048">
   <path fill="currentColor"
d="M1458 926q-118 51 -206 150h-502q-101 0 -178 -74q-74 -72 -74 -175t75 -178t177 -75h750v150h-750q-42 0 -72 30t-30 70q0 42 30 72t72 30h708zM150 828q0 -170 117 -287t281 -117h1050q104 0 176 76t72 178q0 61 -28 114q-27 53 -74 86q87 5 172 38q80 -108 80 -238
q0 -170 -117 -287t-281 -117h-1050q-150 0 -276 76q-127 75 -198 200q-74 128 -74 278q0 147 74 274q71 122 198 198q126 76 276 76h558q14 -74 48 -150h-606q-164 0 -281 -117t-117 -281zM1930 1160l-356 360l-158 -158l-118 112l276 300l474 -474z" />
</svg>