<svg xmlns="http://www.w3.org/2000/svg" xmlns:xlink="http://www.w3.org/1999/xlink" version="1.1" viewBox="-10 0 2068 2048">
   <path fill="currentColor"
d="M1336 947l-92 96q-60 61 -86 116q-34 70 -34 173h-202v-53q0 -169 120 -289l126 -129q62 -57 62 -145q0 -86 -60 -146t-146 -60t-146 60t-60 146h-202q0 -168 120 -288t288 -120t288 120q120 121 120 288q0 134 -96 231zM1124 1740h-202v-202h202v202zM1024 0
q-200 0 -392 77q-188 76 -333.5 221t-220.5 334q-78 192 -78 392t78 392q75 189 220.5 334t333.5 221q192 77 392 77t392 -77q188 -76 333.5 -221t220.5 -334q78 -192 78 -392q0 -278 -138 -514q-136 -236 -372 -373q-237 -137 -514 -137z" />
</svg>