<svg xmlns="http://www.w3.org/2000/svg" xmlns:xlink="http://www.w3.org/1999/xlink" version="1.1" viewBox="-10 0 2068 2048">
   <path fill="currentColor"
d="M2048 1116v-183h-288q-25 -204 -148 -366l200 -201l-130 -130l-200 200q-162 -122 -366 -148v-288h-182v288q-205 26 -366 148l-202 -200l-130 130l200 201q-122 162 -148 366h-288v183h288q26 204 148 366l-200 200l130 131l202 -200q161 122 366 148v287h182v-287
q204 -26 366 -148l200 200l130 -131l-200 -200q123 -162 148 -366h288zM1024 654q-152 0 -261 109t-109 261h-188q0 -149 76 -281q73 -129 202 -202q129 -74 280 -74v187z" />
</svg>