<svg xmlns="http://www.w3.org/2000/svg" xmlns:xlink="http://www.w3.org/1999/xlink" version="1.1" viewBox="-10 0 2061 2048">
   <path fill="currentColor"
d="M1496 0l-123 146l445 376l123 -149zM452 0l-445 373l123 145l445 -372zM974 205q-237 0 -436 118q-200 119 -318 318t-118 435q0 237 118 439q118 203 318 318q199 115 436 115q67 0 95 -4v-195q-31 9 -95 9q-186 0 -340 -93t-246 -248q-90 -152 -90 -338q0 -188 90 -341
q91 -155 246 -247q154 -91 340 -91q225 0 406 134q180 133 243 352h200q-40 -198 -166 -354q-124 -154 -304 -241q-178 -86 -379 -86zM2041 1272h-291v531q0 100 -73 173q-72 72 -172 72q-99 0 -170 -72q-71 -73 -71 -173q0 -99 71 -170t170 -71q81 0 145 50v-536h391v196z
M924 595v509l-386 227l73 118l458 -273v-581h-145z" />
</svg>