<svg xmlns="http://www.w3.org/2000/svg" xmlns:xlink="http://www.w3.org/1999/xlink" version="1.1" viewBox="-10 0 2068 2048">
   <path fill="currentColor"
d="M1024 1491q-78 0 -132 -55q-54 -54 -54 -133t54 -133t133 -54t133 54t54 133t-54 133q-56 55 -134 55zM1674 1212h-184q0 126 -62 233q-63 106 -170 168q-106 61 -233.5 61t-232.5 -61q-108 -62 -170 -168q-64 -106 -64 -233h-182q0 190 102 348t268 236v252h558v-252
q165 -78 267.5 -236t102.5 -348zM2048 632q0 53 -52 81t-96 -7q-6 -3 -22 -13l-18 -13l-186 436h-184l-138 -580q-328 -34 -654 0l-140 580h-182l-188 -436l-18 13q-15 10 -20 13q-45 35 -96 7q-54 -29 -54 -81v-353l6 -8q4 -19 14 -38q11 -19 40 -43q30 -26 76 -50
q46 -25 118 -48q76 -25 178 -48q105 -17 258 -31q147 -13 334.5 -13t335.5 13q152 14 256 31q103 23 180 48q68 22 116 48q48 25 78 50q28 24 38 43q11 19 16 38l4 8v353zM550 558q-130 29 -236 65l140 332zM1734 623q-105 -36 -234 -65l96 397z" />
</svg>