<svg xmlns="http://www.w3.org/2000/svg" xmlns:xlink="http://www.w3.org/1999/xlink" version="1.1" viewBox="-10 0 2068 2048">
   <path fill="currentColor"
d="M2048 1255q0 -105 -66 -189q-66 -87 -164 -116q42 -77 42 -157q0 -107 -62 -193q-64 -86 -164 -116q40 -74 40 -157q0 -134 -94 -231q-94 -96 -228 -96h-654q-136 0 -228 96q-94 97 -94 231q0 83 38 157q-99 30 -162 116q-64 86 -64 193q0 80 44 157q-99 29 -166 116
q-66 86 -66 189q0 86 44 159q44 72 114 116q-62 86 -62 192q0 134 94 231q93 95 230 95h1210q136 0 228 -95q94 -97 94 -231q0 -106 -60 -192q69 -44 112 -116q44 -71 44 -159zM698 188h654q56 0 97 41t41 98t-40 98q-42 42 -98 42h-654q-56 0 -98 -42q-42 -41 -42 -98
t41 -98t99 -41zM514 654h1020q62 0 101 39t39 98q0 58 -39 100t-101 42h-1020q-60 0 -99 -42t-39 -100q0 -59 39 -98t99 -39zM280 1722q0 -56 42 -98t98 -42h326v279h-326q-58 0 -98 -41q-42 -42 -42 -98zM1630 1861h-326v-279h326q56 0 98 42t42 98t-42 98q-42 41 -98 41z
M1722 1395h-436q-31 -84 -102 -133q-73 -50 -159.5 -50t-158.5 50q-72 49 -102 133h-436q-56 0 -98 -39q-42 -38 -42 -99q0 -59 41 -100t99 -41h1394q56 0 97 41t41 100q0 61 -40 99q-42 39 -98 39z" />
</svg>