<svg xmlns="http://www.w3.org/2000/svg" xmlns:xlink="http://www.w3.org/1999/xlink" version="1.1" viewBox="-10 0 2068 2048">
   <path fill="currentColor"
d="M1792 0h-1538q-106 0 -180 74t-74 181v1538q0 106 74 180q76 75 180 75h1538q106 0 181 -75t75 -180v-1538q0 -106 -76 -181q-74 -74 -180 -74zM890 1558q0 53 -36 89t-86 36h-378q-54 0 -90 -39t-36 -86v-1169q0 -53 36 -89t90 -36h378q50 0 86 36t36 89v1169z
M1782 1043q0 53 -36 89t-88 36h-380q-48 0 -84 -36t-36 -89v-654q0 -53 36 -89t84 -36h380q52 0 88 36t36 89v654z" />
</svg>