<svg xmlns="http://www.w3.org/2000/svg" xmlns:xlink="http://www.w3.org/1999/xlink" version="1.1" viewBox="-10 0 2058 2048">
   <path fill="currentColor"
d="M1763 855v-171h-966v-513q0 -69 -51 -120t-122 -51q-72 0 -120 51t-48 120t48 120t122 51v342h-341v171h341v705q0 202 142 347q141 144 341 141q199 -3 339 -144q140 -142 134 -344q0 -133 -62 -257q-61 -122 -168 -208q-42 -36 -77 -51q-41 -18 -83 -18q-57 0 -109 32
q-51 32 -83 83q-32 52 -32 114q0 89 67 158q66 67 163 67q107 0 176 -91q37 78 37 171q6 127 -83 221q-88 93 -219 96t-224 -90q-94 -94 -88 -227v-705h966z" />
</svg>