<svg xmlns="http://www.w3.org/2000/svg" xmlns:xlink="http://www.w3.org/1999/xlink" version="1.1" viewBox="-10 0 2068 2048">
   <path fill="currentColor"
d="M1706 1601q-232 169 -438 130q-109 -19 -226 -116l-18 -14l-20 14q-120 97 -230 116q-205 39 -432 -130q-131 93 -216 125q-49 14 -122 14h-4v207q178 0 342 -96q158 96 340 96t342 -96q158 96 340 96t342 -96q163 96 342 96v-207q-77 0 -126 -14q-92 -33 -216 -125z
M1774 1024h274v-207h-274q-142 0 -242 -98q-100 -99 -100 -243q0 -62 24 -130q17 -48 68 -159l24 -52l-48 -5q-176 -29 -270 -29q-336 0 -614 156q-277 155 -446 426q-165 267 -170 596v206q178 0 342 -96q158 96 340 96t342 -96q158 96 340 96t342 -96q163 96 342 96v-206
q-73 0 -126 -15q-92 -33 -216 -125q-232 169 -438 130q-111 -20 -226 -115l-18 -15l-78 53l-14 15q-114 -154 -114 -337q0 -198 122 -348q123 -152 310 -200q-20 85 -20 154q0 149 72 274q72 124 200 199q127 75 272 75z" />
</svg>