<svg xmlns="http://www.w3.org/2000/svg" xmlns:xlink="http://www.w3.org/1999/xlink" version="1.1" viewBox="-10 0 2068 2048">
   <path fill="currentColor"
d="M1572 1056v-324h210v324q-61 -10 -104 -10q-45 0 -106 10zM1204 840h-520q-26 0 -40 15q-14 14 -14 34v157h628v-157q0 -19 -15 -34t-39 -15zM314 1675v-943h-210v1154h982q-40 -103 -40 -211h-732zM1886 629h-1886v-629h1886v629zM1674 211h-1462v207h1462v-207z
M2048 1454l-148 -148l-226 221l-220 -221l-148 148l222 221l-222 226l148 147l220 -226l226 226l148 -147l-226 -226z" />
</svg>