<svg xmlns="http://www.w3.org/2000/svg" xmlns:xlink="http://www.w3.org/1999/xlink" version="1.1" viewBox="-10 0 2058 2048">
   <path fill="currentColor"
d="M1210 188h-558v-188h558v188zM1022 1674q0 144 66 265q-81 14 -158 14q-224 0 -418 -112q-192 -111 -304 -305q-114 -194 -114 -420q0 -225 114 -418q111 -190 304 -305q192 -114 418 -114q143 0 280 50q130 48 244 138l130 -135q63 55 130 130l-130 135q87 110 134 242
q48 133 48 277v35q-97 -35 -186 -35q-149 0 -278 76q-127 75 -204 205q-76 130 -76 277zM1022 558h-182v654h182v-654zM1676 1582v-279h-188v279h-278v187h278v279h188v-279h278v-187h-278z" />
</svg>