<svg xmlns="http://www.w3.org/2000/svg" xmlns:xlink="http://www.w3.org/1999/xlink" version="1.1" viewBox="-10 0 2068 2048">
   <path fill="currentColor"
d="M1024 0q-278 0 -514 137q-235 136 -372 373q-138 236 -138 514t138 514q137 237 372 373q236 137 513.5 137t514.5 -137q236 -137 372 -373q138 -236 138 -514t-138 -514q-136 -236 -372 -373q-237 -137 -514 -137zM1024 1231q-218 0 -412 -29q-182 -27 -300 -75
q-110 -45 -110 -103t110 -103q118 -48 300 -75q194 -29 411.5 -29t410.5 29q183 27 300 75q112 45 112 103t-112 103q-117 48 -300 75q-193 29 -410 29zM1024 202q254 0 461 144t303 375q-263 -106 -760 -106q-495 0 -768 106q96 -231 303 -375t461 -144zM1024 1846
q-254 0 -461 -144t-303 -375q262 106 758 106t770 -106q-96 231 -303 375t-461 144z" />
</svg>