<svg xmlns="http://www.w3.org/2000/svg" xmlns:xlink="http://www.w3.org/1999/xlink" version="1.1" viewBox="-10 0 2068 2048">
   <path fill="currentColor"
d="M230 1365h-230v230h230v-230zM0 2048h2048v-229h-2048v229zM230 912h-230v224h230v-224zM1818 683h230v-230h-230v230zM1818 229h230v-229h-230v229zM230 453h-230v230h230v-230zM1818 1595h230v-230h-230v230zM1818 1136h230v-224h-230v224zM1594 0h-228v229h228v-229z
M1136 0h-224v229h224v-229zM1594 912h-228v224h228v-224zM1136 453h-224v230h224v-230zM230 0h-230v229h230v-229zM1136 912h-224v224h224v-224zM684 0h-230v229h230v-229zM1136 1365h-224v230h224v-230zM684 912h-230v224h230v-224z" />
</svg>