<svg xmlns="http://www.w3.org/2000/svg" xmlns:xlink="http://www.w3.org/1999/xlink" version="1.1" viewBox="-10 0 2068 2048">
   <path fill="currentColor"
d="M230 798l170 -512h1248l170 512h-1588zM1648 1362q-70 0 -120 -48q-50 -47 -50 -120q0 -72 50 -122t122 -50t120 51t48 121q0 72 -48 120t-122 48zM400 1362q-74 0 -122 -48t-48 -120q0 -70 48 -121t120 -51t123 51t51 121q0 72 -51 120t-121 48zM1814 226
q-21 -47 -64 -80q-43 -32 -102 -32h-1248q-58 0 -100 32q-44 33 -64 80l-236 684v912q0 48 32 80t80 32h118q48 0 80 -32t32 -80v-118h1364v118q0 48 32 80t80 32h118q48 0 80 -32t32 -80v-912z" />
</svg>