<svg xmlns="http://www.w3.org/2000/svg" xmlns:xlink="http://www.w3.org/1999/xlink" version="1.1" viewBox="-10 0 2068 2048">
   <path fill="currentColor"
d="M1924 2048l-854 -850h-10q-82 0 -139 -57t-57 -140v-9l-156 -155q-36 80 -36 164q0 160 114 275l-138 137q-82 -78 -126 -185q-46 -110 -46 -227q0 -171 90 -311l-140 -141q-148 203 -148 452q0 160 62 302q62 141 168 251l-138 138q-133 -138 -208 -316
q-76 -181 -76 -375q0 -327 202 -589l-288 -288l124 -124l1924 1925zM1444 1074l156 156q46 -112 46 -229q0 -116 -46 -226q-44 -106 -128 -185l-138 137q114 114 114 274q0 37 -4 73zM1746 1376l142 142q146 -238 146 -517q0 -197 -76 -375q-74 -177 -208 -315l-136 137
q102 107 166 252q62 142 62 301q0 201 -96 375z" />
</svg>