<svg xmlns="http://www.w3.org/2000/svg" xmlns:xlink="http://www.w3.org/1999/xlink" version="1.1" viewBox="-10 0 2068 2048">
   <path fill="currentColor"
d="M1356 854q188 0 320 132t132 320q0 133 -70 240l310 312l-142 140l-314 -310q-109 70 -236 70q-188 0 -320 -132t-132 -320t132 -320t320 -132zM1356 1058q-105 0 -178 72q-76 74 -76 176.5t76 177.5q74 72 178 72t177 -73t73 -177t-74 -176q-72 -72 -176 -72zM800 50
q170 0 288 118t118 286q0 132 -86 246q-125 45 -226 146l-94 8q-164 0 -282 -118t-118 -284t118 -284t282 -118zM0 1660v-202q0 -104 100 -194q97 -88 272 -146q173 -56 382 -60q-52 119 -52 248q0 190 98 354h-800z" />
</svg>