<svg xmlns="http://www.w3.org/2000/svg" xmlns:xlink="http://www.w3.org/1999/xlink" version="1.1" viewBox="-10 0 2068 2048">
   <path fill="currentColor"
d="M1234 1024l186 -92h628l-96 -188h-366l222 -296l-92 -182l-378 496l-188 96l36 -204l378 -502l-200 -38l-340 444l-334 -444l-206 34l380 506l34 204l-182 -96l-380 -500l-92 186l222 296h-370l-96 188h632l184 92l-188 92h-628l96 186h366l-222 298l92 182l378 -496
l188 -96l-34 204l-380 502l200 38l340 -444l336 444l204 -34l-378 -506l-36 -204l184 96l378 500l92 -186l-222 -298h370l96 -186h-632z" />
</svg>