<svg xmlns="http://www.w3.org/2000/svg" xmlns:xlink="http://www.w3.org/1999/xlink" version="1.1" viewBox="-10 0 2068 2048">
   <path fill="currentColor"
d="M0 270v1508h2048v-1508h-2048zM1836 700h-242v-218h242v218zM674 918h242v212h-242v-212zM460 1130h-242v-212h242v212zM916 700h-242v-218h242v218zM1134 482h242v218h-242v-218zM916 1348v216h-242v-216h242zM1134 1348h242v216h-242v-216zM1134 1130v-212h242v212
h-242zM1594 918h242v212h-242v-212zM460 482v218h-242v-218h242zM218 1348h242v216h-242v-216zM1594 1564v-216h242v216h-242z" />
</svg>