<svg xmlns="http://www.w3.org/2000/svg" xmlns:xlink="http://www.w3.org/1999/xlink" version="1.1" viewBox="-10 0 2058 2048">
   <path fill="currentColor"
d="M1888 1456q-214 0 -388 -65h-36q-40 0 -70 30l-238 238q-233 -121 -418 -306q-182 -183 -294 -407l236 -238q27 -20 32 -51q4 -29 -12 -55q-54 -195 -54 -390q0 -40 -33 -73t-73 -33h-380q-40 0 -73 33t-33 73q0 501 248 926q242 419 662 662q425 248 924 248
q40 0 73 -33t33 -73v-379q0 -41 -33 -74t-73 -33zM272 324h162q10 122 50 278l-126 131q-72 -220 -86 -409zM1778 1831q-190 -15 -410 -86l132 -127q174 41 278 41v172zM1510 0q-202 0 -344 142q-142 141 -142 343q0 203 142 344q142 142 344 142t344 -142
q140 -141 140 -344q0 -202 -140 -343q-142 -142 -344 -142zM1510 809q-138 0 -231 -96t-93 -228q0 -91 46 -161l440 440q-71 45 -162 45zM1788 647l-440 -440q70 -45 162 -45q136 0 230 93q94 94 94 230q0 90 -46 162z" />
</svg>