<svg xmlns="http://www.w3.org/2000/svg" xmlns:xlink="http://www.w3.org/1999/xlink" version="1.1" viewBox="-10 0 2068 2048">
   <path fill="currentColor"
d="M1124 1538h-408v-206h408v-207h-202q-86 0 -146 -60t-60 -142v-207q0 -86 60 -146t146 -60h202q88 0 148 60t60 146v616q0 86 -60 146t-148 60zM1124 923v-207h-202v207h202zM1024 0q200 0 392 77q188 76 333.5 221t220.5 334q78 192 78 392t-78 392q-75 189 -220.5 334
t-333.5 221q-192 77 -392 77t-392 -77q-188 -76 -333.5 -221t-220.5 -334q-78 -192 -78 -392t78 -392q75 -189 220.5 -334t333.5 -221q192 -77 392 -77zM1024 202q-223 0 -411.5 110t-300.5 301q-110 191 -110 411t110 411q111 190 300 300q191 111 411.5 111t410.5 -111
q190 -110 300 -300q112 -191 112 -411t-112 -411q-111 -191 -299.5 -301t-410.5 -110z" />
</svg>