<svg xmlns="http://www.w3.org/2000/svg" xmlns:xlink="http://www.w3.org/1999/xlink" version="1.1" viewBox="-10 0 2068 2048">
   <path fill="currentColor"
d="M1266 1024v388l294 197l72 -124l-220 -146v-315h-146zM1948 1010v-37q0 -266 -130 -489q-131 -224 -354 -354t-489.5 -130t-488.5 130q-224 130 -354 354q-132 224 -132 489t132 489q131 225 353.5 355t488.5 130h36q166 101 352 101t344 -94q156 -93 249 -249t93 -343
q0 -188 -100 -352zM1732 790q-4 -4 -8 -4l-10 -9h14zM1650 585h-288q-52 -191 -136 -348q132 44 244 135q105 86 180 213zM974 196q127 186 188 389h-376q60 -201 188 -389zM746 777h270q-192 114 -280 315q-4 -61 -4 -119q0 -95 14 -196zM722 237q-80 148 -136 348h-288
q75 -127 180 -213q112 -91 244 -135zM220 1170q-28 -109 -28 -197q0 -87 28 -196h330q-14 118 -14 196q0 79 14 197h-330zM298 1362h288q55 198 136 347q-132 -44 -244 -135q-106 -87 -180 -212zM1362 1851q-131 0 -244 -66q-110 -65 -176 -179q-64 -112 -64 -244
q0 -133 64 -245q65 -112 176 -176q112 -64 244 -64q134 0 246 64q112 65 178 176q66 113 66 245t-66 244q-67 114 -178 179q-113 66 -246 66z" />
</svg>