<svg xmlns="http://www.w3.org/2000/svg" xmlns:xlink="http://www.w3.org/1999/xlink" version="1.1" viewBox="-10 0 2068 2048">
   <path fill="currentColor"
d="M1742 562h44l262 262l-198 198l198 198l-262 262h-44v-348l-210 210l-64 -64l254 -258l-254 -258l64 -64l210 210v-348zM1834 738v172l84 -86zM1834 1134v172l84 -86zM1284 748v90h-550v-726q153 20 280 112q122 88 196 228q74 137 74 296zM0 838v-90q0 -159 74 -296
q73 -138 200 -228q127 -92 276 -112v726h-550zM1284 1296q0 176 -86 322q-87 148 -234 232q-149 86 -322 86t-320 -86q-144 -84 -234 -232q-88 -144 -88 -322v-274h1284v274z" />
</svg>