<svg xmlns="http://www.w3.org/2000/svg" xmlns:xlink="http://www.w3.org/1999/xlink" version="1.1" viewBox="-10 0 2068 2048">
   <path fill="currentColor"
d="M2024 1472q-198 -191 -452 -292q-264 -108 -548 -108t-548 108q-254 101 -452 292q-24 24 -24 60t24 60l212 212q24 24 60 24t60 -24q100 -92 228 -156q48 -24 48 -80v-264q188 -60 392 -60t392 60v264q0 23 14 46q13 22 34 30q126 65 228 160q24 24 60 24t60 -24
l212 -212q24 -24 24 -60t-24 -60zM460 1520q-83 43 -160 108l-92 -92q122 -97 252 -164v148zM1748 1624q-78 -61 -160 -108v-144q135 66 252 164zM1804 584l-120 -124l-304 304l120 120l152 -148q149 -152 152 -152zM940 220h168v424h-168v-424zM548 884l120 -120l-304 -304
l-120 124q3 0 152 152z" />
</svg>