<svg xmlns="http://www.w3.org/2000/svg" xmlns:xlink="http://www.w3.org/1999/xlink" version="1.1" viewBox="-10 0 2068 2048">
   <path fill="currentColor"
d="M1024 467q152 0 282 74q128 73 202 202q74 130 74 281q0 153 -76 281q-78 130 -202 203v166q0 38 -26 67q-26 28 -66 28h-374q-41 0 -66 -28q-26 -29 -26 -67v-166q-125 -73 -202 -203q-78 -130 -78 -281q0 -149 76 -281q73 -129 202 -202q129 -74 280 -74zM1212 1861v92
q0 39 -28 67t-68 28h-182q-40 0 -68 -28t-28 -67v-92h374zM1770 933h278v183h-278v-183zM0 933h280v183h-280v-183zM1116 0v279h-182v-279h182zM366 236l196 196l-130 130l-196 -196zM1486 432l196 -196l130 130l-196 196z" />
</svg>