<svg xmlns="http://www.w3.org/2000/svg" xmlns:xlink="http://www.w3.org/1999/xlink" version="1.1" viewBox="-10 0 2068 2048">
   <path fill="currentColor"
d="M1024 48l-366 572l-658 173l428 524l-38 683l634 -250l634 250l-38 -683l428 -524l-660 -173zM754 870q48 0 82 34q34 33 34 81q0 49 -34 82q-34 34 -82 34t-82 -34q-32 -33 -32 -82q0 -48 32 -81q34 -34 82 -34zM1292 870q48 0 82 34t34 81q0 48 -34 82t-82 34
q-46 0 -80 -34t-34 -82q0 -47 34 -81t80 -34zM716 1332h616q-40 92 -124 149t-185 57t-185 -57q-82 -56 -122 -149z" />
</svg>