<svg xmlns="http://www.w3.org/2000/svg" xmlns:xlink="http://www.w3.org/1999/xlink" version="1.1" viewBox="-10 0 2068 2048">
   <path fill="currentColor"
d="M1170 146q-239 0 -438 116q-203 118 -320 320q-120 205 -120 442h-292l394 388l388 -388h-292q0 -188 90 -344q91 -154 248 -246q156 -92 342 -92q187 0 346 92q158 93 248 246q92 156 92 343.5t-91.5 343t-248.5 247.5q-157 90 -346 90q-138 0 -262 -52
q-126 -52 -214 -148l-136 132q117 126 276 196q158 70 336 70q242 0 444 -118q200 -116 316 -320q118 -204 118 -441t-118 -441q-116 -203 -316 -320q-200 -116 -444 -116zM1074 1316h196v196h-196v-196zM1074 534h196v586h-196v-586z" />
</svg>