<svg xmlns="http://www.w3.org/2000/svg" xmlns:xlink="http://www.w3.org/1999/xlink" version="1.1" viewBox="-10 0 2068 2048">
   <path fill="currentColor"
d="M1846 663q0 106 -77 183t-183 77q-82 0 -146 -48q-66 -49 -94 -120q-71 62 -168 62q-87 0 -154 -48q-68 48 -154 48q-98 0 -168 -62q-29 71 -94 120q-65 48 -146 48q-106 0 -183 -77t-77 -183q0 -91 63 -163t153 -87q-10 -32 -10 -57q0 -62 46 -108t108 -46q31 0 58 14
q14 -52 56 -84q39 -31 92 -31q41 0 68 19q25 -54 74 -86q53 -34 113.5 -34t112.5 34q51 33 76 86q27 -19 66 -19q54 0 94 31q41 32 56 84q26 -14 56 -14q64 0 110 46q44 45 44 108q0 28 -8 57q89 15 152 87q64 72 64 163zM818 1024q-44 0 -74 29q-28 28 -28 72q0 43 28 74
q29 32 74 32q42 0 74 -32q30 -31 30 -74q0 -44 -30 -72q-33 -29 -74 -29zM1230 1024q-42 0 -74 29q-32 28 -32 72q0 43 32 74q32 32 75 32t72 -32t29 -74q0 -43 -29 -72t-73 -29zM1870 885q-52 66 -126 103q-72 36 -158 36q-61 0 -130 -29q0 231 -38 409q-48 220 -144 331
q-76 91 -198 106v-202h-106v202q-121 -15 -196 -106q-101 -111 -144 -331q-38 -174 -38 -409q-69 29 -130 29q-88 0 -160 -36q-73 -37 -124 -103q-93 92 -178 139l34 53q41 60 100 101q82 53 174 53q38 0 86 -10q33 355 158 563q164 264 471.5 264t470.5 -264
q127 -210 160 -563q48 10 86 10q91 0 172 -53q60 -41 102 -101l34 -53l-54 -34q-73 -49 -124 -105z" />
</svg>