<svg xmlns="http://www.w3.org/2000/svg" xmlns:xlink="http://www.w3.org/1999/xlink" version="1.1" viewBox="-10 0 2068 2048">
   <path fill="currentColor"
d="M376 1259q0 17 -16 31q-14 13 -32 13h-92q-22 0 -35 -13t-13 -31v-48h-92q-37 0 -66.5 -26t-29.5 -65v-279q0 -39 30 -68q28 -28 66 -28h1856q40 0 68 28t28 68v279q0 40 -28 65q-30 26 -68 26h-92v48q0 18 -13 31t-35 13h-90q-19 0 -34 -13q-14 -13 -14 -31v-48h-1298
v48zM188 932v92h188v-92h-188zM466 932v92h188v-92h-188zM1812 884q-39 0 -64.5 29t-25.5 67q0 40 26 66t64.5 26t67.5 -26q28 -25 28 -66q0 -39 -28 -67q-28 -29 -68 -29z" />
</svg>