<svg xmlns="http://www.w3.org/2000/svg" xmlns:xlink="http://www.w3.org/1999/xlink" version="1.1" viewBox="-10 0 2068 2048">
   <path fill="currentColor"
d="M124 178l-124 120l142 136q-53 33 -120 84l168 224q76 -56 154 -102l212 212q-110 48 -198 114l172 226q111 -82 242 -124l242 238q-175 8 -318 114l340 450l228 -308l308 308l120 -120zM1036 178q-298 0 -572 102l224 224q172 -44 348 -44q232 0 448 72q215 72 396 210
l168 -224q-215 -163 -474 -252q-256 -88 -538 -88zM1036 742q-68 0 -106 4l300 300q167 38 312 146l172 -226q-146 -104 -318 -164q-170 -60 -360 -60z" />
</svg>