<svg xmlns="http://www.w3.org/2000/svg" xmlns:xlink="http://www.w3.org/1999/xlink" version="1.1" viewBox="-10 0 2068 2048">
   <path fill="currentColor"
d="M2048 510h-202v615h202v-615zM2048 1332h-202v206h202v-206zM102 1332v-101h-102v-207h102v-101h206v409h-206zM1538 1024v-101h-206v409h206v-101h100v-207h-100zM1432 409h-216q-29 -105 -108 -185q-81 -81 -186 -109v-115h-206v115q-104 28 -184 109q-82 81 -110 185
h-220v206h1230v-206zM1432 2048h-1230q0 -81 60 -142q60 -60 146 -60v-1130h822v1130q82 0 142 60q60 61 60 142zM616 1125q0 87 60 147t144 60t144 -60t60 -145q0 -84 -60 -144t-144 -60t-144 60t-60 142z" />
</svg>