<svg xmlns="http://www.w3.org/2000/svg" xmlns:xlink="http://www.w3.org/1999/xlink" version="1.1" viewBox="-10 0 2068 2048">
   <path fill="currentColor"
d="M1152 1170h-406q-14 -101 -14 -197q0 -95 14 -196h456q14 118 14 196q0 69 -8 142q92 -75 204 -110v-32q0 -86 -12 -196h328q28 105 28 196v19q97 23 186 77q6 -30 6 -96q0 -266 -130 -489q-131 -224 -354 -354t-489.5 -130t-488.5 130q-224 130 -354 354
q-132 224 -132 489t132 489q131 225 353.5 355t488.5 130q66 0 96 -5q-60 -102 -82 -214l-14 22q-128 -189 -188 -388h238q41 -104 128 -192zM1650 585h-288q-52 -191 -136 -348q132 44 244 135q105 86 180 213zM974 196q127 186 188 389h-376q60 -201 188 -389zM220 1170
q-28 -109 -28 -197q0 -87 28 -196h330q-14 118 -14 196q0 79 14 197h-330zM298 1362h288q55 198 136 347q-132 -44 -244 -135q-106 -87 -180 -212zM586 585h-288q75 -127 180 -213q112 -91 244 -135q-80 148 -136 348zM1610 1170q-184 0 -312 128t-128 311t128 311t311 128
t311 -128q128 -127 128 -311t-128 -311q-128 -128 -310 -128zM1610 1901q-124 0 -208 -87q-86 -88 -86 -205q0 -80 42 -147l398 398q-66 41 -146 41zM1860 1755l-396 -398q65 -41 146 -41q116 0 204 85q88 84 88 208q0 81 -42 146z" />
</svg>