<svg xmlns="http://www.w3.org/2000/svg" xmlns:xlink="http://www.w3.org/1999/xlink" version="1.1" viewBox="-10 0 2058 2048">
   <path fill="currentColor"
d="M1024 346l-44 -10l-572 986q39 33 48 82h1134q10 -49 48 -82l-572 -986zM472 1490l436 260q48 -48 115 -48t115 48l438 -260h-1104zM1024 2048q-72 0 -123 -51t-51 -122l10 -53l-442 -264q-47 62 -124 62q-78 0 -128 -50t-50 -123q0 -64 38 -108q38 -45 92 -60v-524
q-62 -9 -106 -58q-44 -47 -44 -118q0 -70 50 -120t124 -50q81 0 134 67l452 -260l-6 -43q0 -72 52 -123q50 -50 122 -50t122 50t50 123l-4 43l452 260q52 -67 134 -67q72 0 122 50q52 51 52 120t-44 118q-45 49 -106 58v524q52 15 92 60q38 44 38 108q0 73 -50 123t-128 50
q-77 0 -124 -62l-444 264l10 53q0 72 -50 122q-50 51 -122 51zM898 293l-460 265l4 24q0 52 -32 96q-30 42 -78 62l4 539zM1148 293l562 986l6 -539q-49 -20 -80 -62q-30 -43 -30 -96l4 -24z" />
</svg>