<svg xmlns="http://www.w3.org/2000/svg" xmlns:xlink="http://www.w3.org/1999/xlink" version="1.1" viewBox="-10 0 2068 2048">
   <path fill="currentColor"
d="M1122 1350q21 14 51 14q28 0 50 -14l483 -282v26q117 0 196 42v-178l96 -54q35 -23 45 -62q9 -40 -4 -76l-146 -246q-19 -36 -41 -46l-766 -428q-41 -18 -59.5 -18t-58.5 18l-757 428q-41 18 -50 38l-146 254q-23 36 -9 76q13 39 50 62q17 12 46 12q28 0 50 -12v532
q0 56 50 88l766 428q40 18 58.5 18t59.5 -18l87 -50q-30 -59 -51 -192v-360zM931 1710l-583 -332v-652l583 332v652zM1815 776l-615 350l-55 -100l611 -346zM1027 880v-638l583 320zM2048 1478l-205 200l205 206l-137 136l-205 -204l-201 204l-136 -136l200 -206l-200 -200
l136 -138l201 202l205 -202z" />
</svg>