<svg xmlns="http://www.w3.org/2000/svg" xmlns:xlink="http://www.w3.org/1999/xlink" version="1.1" viewBox="-10 0 2058 2048">
   <path fill="currentColor"
d="M1568 397q-18 -46 -76 -90q-31 -27 -43 -43t-25 -52q-26 -70 -68 -101q-40 -29 -117 -34q-38 0 -58 -5q-21 -5 -55 -31q-59 -41 -108 -41q-48 0 -112 41q-29 25 -52 33q-20 7 -61 7q-76 0 -115 30q-40 30 -66 101q-15 39 -24 52q-12 16 -43 43q-59 45 -75 92
q-16 46 7 115q14 42 14 61t-14 59q-13 38 -13 56q-5 33 4 63q18 50 77 95q32 23 43 38q9 13 24 57q26 70 68 101q40 30 117 30q43 0 59 4q17 4 54 32q58 45 108 45t113 -45q32 -23 52 -30q17 -6 61 -6q75 -4 115 -32q37 -26 65 -99q14 -42 25 -57t43 -38q57 -44 74 -92
q16 -46 -7 -120q-13 -39 -13 -61q0 -21 13 -56q14 -37 14 -59q4 -30 -5 -63zM1018 961q-157 0 -270 -113t-113 -273t113 -273q112 -112 270 -112q159 0 271 112q113 113 113 273t-113 273t-271 113zM1212 577q0 59 -34 106q-34 48 -88 70q-56 23 -110 12q-57 -12 -97 -52
t-52 -99q-12 -58 11 -113t70 -86q49 -32 106 -32q81 0 138 57q56 56 56 137zM1181 1304l-59 347l-72 397l-248 -239l-320 140l130 -722q86 41 181 41q58 45 131 63q43 13 94 13q87 0 163 -40zM1586 1615l-248 -90l50 -284q44 -13 81 -41l14 -9z" />
</svg>