<svg xmlns="http://www.w3.org/2000/svg" xmlns:xlink="http://www.w3.org/1999/xlink" version="1.1" viewBox="-10 0 2068 2048">
   <path fill="currentColor"
d="M1860 1491v-1303h-1302v1303h1302zM1860 0q78 0 134 55q54 54 54 133v1303q0 74 -54 128q-56 55 -134 55h-1302q-74 0 -128 -55q-54 -54 -54 -128v-1303q0 -79 54 -133q54 -55 128 -55h1302zM188 375v1486h1486v187h-1486q-78 0 -132 -54q-56 -55 -56 -133v-1486h188z
M1024 375h-370v183h184v745h186v-928zM1582 375h-188q-72 0 -127 55t-55 128v558q0 78 54 133q54 54 128 54h188q78 0 132 -54q56 -55 56 -133v-558q0 -73 -55 -128t-133 -55zM1582 1116h-188v-558h188v558z" />
</svg>