<svg xmlns="http://www.w3.org/2000/svg" xmlns:xlink="http://www.w3.org/1999/xlink" version="1.1" viewBox="-10 0 2058 2048">
   <path fill="currentColor"
d="M180 468l112 -113l1576 1577l-112 116l-334 -333v242q0 38 -24 64q-26 27 -64 27h-534q-36 0 -62 -27q-24 -26 -24 -64v-956zM1068 0q200 0 380 75q177 74 312 213l-126 125q-113 -113 -258 -173t-308 -60q-152 0 -286 52q-136 53 -244 144l-124 -125q136 -120 302 -184
q172 -67 352 -67zM1068 355q129 0 242 48t200 135l-126 126q-62 -63 -144 -96q-83 -34 -172 -34q-154 0 -276 96l-124 -125q80 -71 182 -110q107 -40 218 -40zM1334 801q38 0 63 25t25 63v375l-458 -463h370zM892 1185q10 59 50.5 100t99.5 50z" />
</svg>