<svg xmlns="http://www.w3.org/2000/svg" xmlns:xlink="http://www.w3.org/1999/xlink" version="1.1" viewBox="-10 0 2068 2048">
   <path fill="currentColor"
d="M1946 308h-1844q-45 0 -74 -32q-28 -31 -28 -74q0 -44 28 -72q30 -29 74 -29h1844q44 0 73 29t29 72q0 42 -29 74t-73 32zM1846 615q0 -43 -31 -74t-75 -31h-1432q-44 0 -74 31q-32 32 -32 74q0 43 32 72t74 29h1432q42 0 74 -29q32 -28 32 -72zM1946 1024q0 -43 -29 -72
t-71 -29h-1028q-44 0 -74 29q-28 28 -28 72t28 72q30 29 74 29h1028q42 0 71 -29t29 -72zM1432 1433q0 -44 -28 -73q-28 -28 -72 -28h-616q-44 0 -72 28q-28 29 -28 73q0 42 28 74q29 31 72 31h616q43 0 72 -31q28 -32 28 -74zM1124 1846q0 -42 -28.5 -74t-71.5 -32h-206
q-45 0 -74 32q-28 31 -28 74q0 44 28 72q30 29 74 29h206q42 0 71 -29t29 -72z" />
</svg>