<svg xmlns="http://www.w3.org/2000/svg" xmlns:xlink="http://www.w3.org/1999/xlink" version="1.1" viewBox="-10 0 2058 2048">
   <path fill="currentColor"
d="M1860 558q-40 0 -65 -22q-17 -17 -26 -43v-26v-92h-188v183h-187v-91q0 -97 -43 -192q-63 -119 -170 -187q-141 -88 -342 -88t-342 88q-113 69 -170 187q-48 96 -48 192v1207q0 60 -26 104q-44 83 -157 83v187q128 0 218 -65q75 -54 118 -144q34 -81 34 -165v-1207
q0 -34 14 -79q30 -78 100 -131q96 -69 257 -69q162 0 257 65q70 49 100 131q17 41 17 83v91h-187v-183h-187v92v26q-9 26 -26 43q-25 22 -66 22q-57 0 -83 48q-8 20 -8 48v1115l4 27q19 36 52 65q53 40 140 65q116 27 265 27h375q150 0 266 -27q85 -25 139 -65
q33 -29 52 -65l5 -27v-1115v-26q-10 -28 -26 -44q-26 -26 -66 -26zM1303 1713q-117 0 -198 -83q-81 -82 -81 -196q0 -83 74 -214q45 -86 131 -200l74 -87l74 87q83 110 130 200q74 131 74 214q0 115 -80 196q-81 83 -198 83z" />
</svg>