<svg xmlns="http://www.w3.org/2000/svg" xmlns:xlink="http://www.w3.org/1999/xlink" version="1.1" viewBox="-10 0 2058 2048">
   <path fill="currentColor"
d="M1024 0q-28 34 -56.5 68.5t-57.5 68.5q-135 169 -251 337q-162 244 -251 433q-114 240 -114 411q0 195 100 362q100 168 265 268q164 100 365 100t365 -100q165 -100 265 -268q100 -167 100 -362q0 -171 -114 -411q-89 -189 -251 -433q-116 -168 -251 -337zM1024 645v182
q199 0 342 143q142 142 142 348q0 167 -85 268l-131 -137q34 -50 34 -131q0 -132 -88 -220t-214 -88v182l-268 -268zM625 1050l131 131q-35 58 -35 137q0 125 89 214q88 88 214 88v-182l268 268l-268 279v-182q-199 0 -342 -143t-143 -342q0 -165 86 -268z" />
</svg>