<svg xmlns="http://www.w3.org/2000/svg" xmlns:xlink="http://www.w3.org/1999/xlink" version="1.1" viewBox="-10 0 2068 2048">
   <path fill="currentColor"
d="M2048 1925l-1924 -1925l-124 124l292 297q-31 153 32 292q52 115 152 192v192q0 41 30 71t66 30h32q-32 -98 -32 -197q0 -130 50 -251l154 155q-8 60 -8 96q0 113 52 217q53 103 144 172v196q0 42 27 69t69 27h388q46 0 74 -32l402 398zM988 1111l160 160
q-115 -45 -160 -160zM1352 1490h-196v-205l196 192v13zM836 466l-346 -347q40 -32 82 -50q122 -55 252 -39q132 17 236 91q103 74 156 199q-214 13 -380 146zM974 604q128 -92 282 -92q113 0 218 53q102 52 172 144q96 127 96 285t-92 286l-138 -142l18 -41
q42 -115 -10 -224q-54 -111 -172 -151q-119 -41 -232 23zM640 1294q44 95 128 183v13h-96q-42 0 -70 -29q-30 -30 -30 -71v-96h68zM1060 1783h388v96q0 42 -27 69t-69 27h-196q-36 0 -66 -27q-30 -26 -30 -69v-96z" />
</svg>