<svg xmlns="http://www.w3.org/2000/svg" xmlns:xlink="http://www.w3.org/1999/xlink" version="1.1" viewBox="-10 0 2058 2048">
   <path fill="currentColor"
d="M716 921v206h-206v-206h206zM1124 921v206h-200v-206h200zM1536 921v206h-206v-206h206zM1738 206q86 0 146 60t60 146v1430q0 86 -60 146t-146 60h-1428q-86 0 -146 -60t-60 -146v-1430q0 -86 60 -146t146 -60h100v-206h206v206h816v-206h206v206h100zM1738 1842v-1123
h-1428v1123h1428zM716 1333v202h-206v-202h206zM1124 1333v202h-200v-202h200zM1536 1333v202h-206v-202h206z" />
</svg>