<svg xmlns="http://www.w3.org/2000/svg" xmlns:xlink="http://www.w3.org/1999/xlink" version="1.1" viewBox="-10 0 2068 2048">
   <path fill="currentColor"
d="M93 15q56 -4 203 57q111 45 147 62q-198 122 -326 322q-75 -140 -100 -242q-38 -127 10 -175q24 -24 66 -24zM1930 25q62 -4 95 24q47 48 -5 203q-41 116 -128 270q-80 133 -113 166q-39 39 -124.5 7.5t-164.5 -111.5q-80 -80 -112 -168q-31 -86 8 -126q22 -22 118 -80
q109 -66 213 -114q133 -62 213 -71zM1035 72q188 0 369 71q-80 52 -99 71q-71 77 -43 202q28 126 147 244q75 76 159 118q84 43 154 43q84 0 137 -57q24 -20 76 -104q80 182 80 388q0 270 -132 495q-132 226 -358 358q-225 132 -490 132t-490 -132q-224 -131 -357 -358
t-133 -492q0 -266 133 -493q132 -224 357 -355q226 -131 490 -131z" />
</svg>