<svg xmlns="http://www.w3.org/2000/svg" xmlns:xlink="http://www.w3.org/1999/xlink" version="1.1" viewBox="-10 0 2068 2048">
   <path fill="currentColor"
d="M1024 683q-144 0 -242 98t-98 243t98 243t242 98t242 -98q100 -99 100 -243t-100 -243q-98 -98 -242 -98zM1818 1819h-452v229h452q96 0 164 -67q66 -66 66 -162v-454h-230v454zM1818 0h-452v229h452v454h230v-454q0 -96 -66 -162q-68 -67 -164 -67zM230 229h454v-229
h-454q-96 0 -163 67t-67 162v454h230v-454zM230 1365h-230v454q0 95 67 162t163 67h454v-229h-454v-454z" />
</svg>