<svg xmlns="http://www.w3.org/2000/svg" xmlns:xlink="http://www.w3.org/1999/xlink" version="1.1" viewBox="-10 0 2068 2048">
   <path fill="currentColor"
d="M794 142q-220 0 -398 76q-182 77 -288 202q-108 127 -108 278q0 162 132 306q-132 175 -132 392v326q0 74 55 129t133 55h1206q78 0 134 -54q54 -54 54 -130v-326q0 -179 -92 -326l184 -184l-280 -278l-190 192q-193 -102 -410 -102q-125 0 -246 36q-120 34 -212 96
q-56 -58 -56 -136q0 -77 70 -146q69 -67 186 -106q117 -40 258 -40q212 0 352 84l184 -188q-102 -74 -242 -116q-138 -40 -294 -40zM794 886q66 0 92 10q-219 34 -364.5 199.5t-145.5 392.5v234h-188v-234q0 -163 80 -300q82 -141 220 -222q138 -80 306 -80zM1860 1070v-558
h188v558h-188zM1860 1444v-188h188v188h-188z" />
</svg>