<svg xmlns="http://www.w3.org/2000/svg" xmlns:xlink="http://www.w3.org/1999/xlink" version="1.1" viewBox="-10 0 2067 2048">
   <path fill="currentColor"
d="M768 232q172 33 460 126q212 76 293 182q81 105 81 306.5t-105 273.5q-104 72 -264 -4v-494q0 -111 -67 -130q-29 -10 -48 13.5t-19 72.5v1238l-331 -106v-1478zM1161 1600l537 -192q49 -15 53 -36q5 -22 -31 -34q-39 -12 -94 -10q-58 4 -105 22l-360 126v-202l91 -30
q88 -18 178 -28q115 -14 239 0q132 16 231 50q107 37 134 86q28 51 -5 90q-25 34 -81 66l-58 24l-729 260v-192zM154 1580q-115 -32 -144 -92q-28 -60 29 -104q71 -55 182 -86l480 -174v192l-346 126q-42 18 -50 38q-7 20 31 32q39 12 96 8q62 -3 101 -20l168 -58v172l-34 6
q-265 43 -513 -40z" />
</svg>