<svg xmlns="http://www.w3.org/2000/svg" xmlns:xlink="http://www.w3.org/1999/xlink" version="1.1" viewBox="-10 0 2068 2048">
   <path fill="currentColor"
d="M1332 0q298 0 507 209t209 507q0 235 -146 428q-144 193 -370 260l6 -34v-38q0 -338 -242 -580t-580 -242h-38l-34 4q68 -226 260 -370t428 -144zM716 615q197 0 360 96q163 95 260 260q96 165 96 361q0 195 -96 360q-97 165 -260 260q-163 96 -360 96t-360 -96
q-163 -95 -260 -260q-96 -164 -96 -360q0 -197 96 -361q97 -165 260 -260q163 -96 360 -96zM716 817q-100 0 -194 41t-166.5 113t-113.5 166q-40 94 -40 195q0 137 70 257q67 116 188 187q118 70 256.5 70t257.5 -70q118 -70 186 -187q70 -120 70 -257q0 -138 -70 -258
q-68 -117 -186 -187q-119 -70 -258 -70z" />
</svg>