<svg xmlns="http://www.w3.org/2000/svg" xmlns:xlink="http://www.w3.org/1999/xlink" version="1.1" viewBox="-10 0 2065 2048">
   <path fill="currentColor"
d="M1658 1318v-338q0 -40 -27 -70t-69 -30h-100q110 -78 162 -194q53 -118 41 -246q-12 -132 -89 -237q-79 -108 -196 -160q-119 -53 -246 -41q-130 12 -238 89q-102 70 -155 182q-107 -72 -239 -75q-129 -3 -244 59q-112 61 -182 174q-68 112 -73 241q-4 130 57 244
q62 115 175 183l9 9q32 18 51 23v821q0 42 29 68q31 28 71 28h1167q41 0 69 -28q27 -27 27 -68v-342l387 392v-1072zM1170 296q82 0 139 57t57 139t-57 139t-137 57t-137 -57t-57 -139t57 -139t135 -57zM491 492q82 0 139 57t57 137t-57 137t-139 57t-139 -57t-57 -137
t57 -137t139 -57z" />
</svg>