<svg xmlns="http://www.w3.org/2000/svg" xmlns:xlink="http://www.w3.org/1999/xlink" version="1.1" viewBox="-10 0 2068 2048">
   <path fill="currentColor"
d="M1470 1231q14 -112 14 -207t-14 -207h346q30 113 30 207t-30 207h-346zM1288 1798q93 -171 144 -365h302q-74 128 -190 223q-114 94 -256 142zM1264 1231h-480q-16 -111 -16 -207t16 -207h480q14 120 14 207t-14 207zM1024 1841q-134 -194 -198 -408h394
q-63 214 -196 408zM616 615h-304q75 -128 190 -223q115 -94 258 -142q-88 160 -144 365zM312 1433h304q56 205 144 365q-143 -48 -258 -142q-115 -95 -190 -223zM230 1231q-28 -113 -28 -207t28 -207h346q-14 112 -14 207t14 207h-346zM1024 207q133 194 196 408h-394
q64 -214 198 -408zM1734 615h-302q-51 -194 -144 -365q142 48 256 142q116 95 190 223zM1024 0q-278 0 -514 137q-235 136 -372 373q-138 236 -138 514q0 200 78 392q75 189 220.5 334t333.5 221q192 77 392 77t392 -77q188 -76 333.5 -221t220.5 -334q78 -192 78 -392
t-78 -392q-75 -189 -220.5 -334t-333.5 -221q-192 -77 -392 -77z" />
</svg>