<svg xmlns="http://www.w3.org/2000/svg" xmlns:xlink="http://www.w3.org/1999/xlink" version="1.1" viewBox="-10 0 2068 2048">
   <path fill="currentColor"
d="M266 136v534h-174v-534h174zM92 1912v-534h174v534h-174zM358 1024q0 74 -52 126q-52 54 -126 54t-128 -54q-52 -52 -52 -127t52 -127t127 -52t127 52t52 128zM1334 310q196 0 358 96q164 97 260 262t96 356q0 192 -96 356q-95 163 -260 260q-162 96 -358 96
q-239 0 -424 -140q-185 -142 -256 -364l-208 -208l208 -208q71 -222 256.5 -364t423.5 -142zM1246 1112l404 250l72 -118l-342 -204v-462h-134v534z" />
</svg>