<svg xmlns="http://www.w3.org/2000/svg" xmlns:xlink="http://www.w3.org/1999/xlink" version="1.1" viewBox="-10 0 2058 2048">
   <path fill="currentColor"
d="M1074 1947q0 54 19 101h-836q-86 0 -146 -60t-60 -142v-1437q0 -87 60 -147t146 -60h101v-202h207v202h817v-202h206v202h101q87 0 147 60t60 147v591q-92 -63 -207 -72v-212h-1432v1130h817v101zM1997 1538v409q0 43 -29 72t-72 29h-514q-38 0 -70 -29q-31 -28 -31 -72
v-409q0 -43 31 -74t70 -31v-48q0 -107 76 -183q77 -77 183 -77q105 0 180 77q75 76 75 183v48q44 0 72 31q29 32 29 74zM1795 1385q0 -67 -46 -111q-44 -43 -110 -43q-65 0 -108 43q-44 44 -44 111v48h308v-48z" />
</svg>