<svg xmlns="http://www.w3.org/2000/svg" xmlns:xlink="http://www.w3.org/1999/xlink" version="1.1" viewBox="-10 0 2068 2048">
   <path fill="currentColor"
d="M230 0h1588q96 0 164 67q66 66 66 162v1590q0 96 -66 162q-68 67 -164 67h-1588q-96 0 -163 -67t-67 -162v-1590q0 -95 67 -162t163 -67zM454 229q-90 0 -157 67t-67 160t67 160t160 67t160 -67t67 -160t-67 -160t-163 -67zM1594 1365q-96 0 -162 67q-66 66 -66 160
t66 160q66 67 159 67t160 -67t67 -160t-67 -160t-157 -67zM1594 229q-96 0 -162 67q-66 66 -66 160t66 160q66 67 159 67t160 -67t67 -160t-67 -160t-157 -67zM454 1365q-90 0 -157 67t-67 160t67 160t160 67t160 -67t67 -160t-67 -160t-163 -67z" />
</svg>