<svg xmlns="http://www.w3.org/2000/svg" xmlns:xlink="http://www.w3.org/1999/xlink" version="1.1" viewBox="-10 0 2058 2048">
   <path fill="currentColor"
d="M1018 745q155 0 265 -110t110 -265t-110 -262q-111 -108 -265 -108q-153 0 -264 108q-110 107 -110 262t110 265t264 110zM754 1125q-33 76 -62 159q-64 170 -82 201l-5 10q-5 10 -10 15q-4 4 -21 4q-19 0 -46 -14l-29 -15l-9 -9q-4 -15 0 -29q6 -18 105 -404l53 -197
q15 -43 34 -62q20 -20 43 -24l19 -5h68l216 375l216 -375h77l19 5q25 9 39 28q25 29 29 77l148 572q5 28 3 34q-3 10 -12 14l-67 20q-24 9 -39 -10q-4 -4 -9 -14l-130 -351l-19 918h-197l-34 -524l-5 -5q-10 -5 -21 -5q-12 0 -17 5l-5 5l-39 524h-197z" />
</svg>