<svg xmlns="http://www.w3.org/2000/svg" xmlns:xlink="http://www.w3.org/1999/xlink" version="1.1" viewBox="-10 0 2068 2048">
   <path fill="currentColor"
d="M1822 1536q12 0 28 -4q37 -9 68 -34q37 -28 62 -72q28 -58 28 -134q0 -79 -32 -136q-29 -48 -78 -76q-30 -22 -72 -38l-34 -6h-388v736h192v-174l178 174h274zM1740 1392h-154v-164h154l24 20q18 23 18 62q5 30 -4 48q-9 21 -24 30zM1976 666v20q-390 -112 -664 42
q-245 136 -360 438q-105 275 -72 576h-644q28 -225 162 -480q156 -290 370 -480q250 -226 534 -270q333 -48 674 154zM1894 532q-140 -62 -212 -82l10 -134l210 80zM1692 718q104 0 210 30l-8 124l-184 -24zM1220 420l-42 -124l216 -20l38 136zM1350 800q97 -48 206 -72
l40 120l-184 72zM1004 492q-120 56 -186 102l-82 -134l186 -102zM1260 858l80 126l-110 134l-116 -106q43 -85 146 -154zM980 1364q16 -110 62 -236l126 100l-34 198zM606 776q-68 68 -144 168l-136 -114l154 -164zM284 1228q-28 56 -72 174l-30 62l-182 -72l92 -236z
M970 1498l188 62l28 202l-206 -48v-34q-10 -106 -10 -182z" />
</svg>