<svg xmlns="http://www.w3.org/2000/svg" xmlns:xlink="http://www.w3.org/1999/xlink" version="1.1" viewBox="-10 0 2068 2048">
   <path fill="currentColor"
d="M536 1170h588q-31 74 -44 146h-544q-148 0 -270 -73q-125 -74 -194 -194q-72 -122 -72 -267q0 -146 72 -270q70 -123 194 -197q122 -73 270 -73h1024q160 0 274 114t114 279q0 128 -78 233q-83 -32 -170 -36q46 -32 74 -85q28 -54 28 -112q0 -99 -71 -173t-171 -74h-1024
q-160 0 -274 115q-114 114 -114 276q0 163 114 277t274 114zM732 878q-40 0 -70 -30t-30 -69q0 -38 30 -68t70 -30h732v-146h-732q-100 0 -173 73t-73 174t72 171q75 71 174 71h488q86 -94 202 -146h-690zM1756 1316v-292h-196v292h-294v197h294v293h196v-293h292v-197h-292
z" />
</svg>