<svg xmlns="http://www.w3.org/2000/svg" xmlns:xlink="http://www.w3.org/1999/xlink" version="1.1" viewBox="-10 0 2068 2048">
   <path fill="currentColor"
d="M1860 466h-1672q-78 0 -132 54q-56 56 -56 134v740q0 78 56 134q54 54 132 54h1672q80 0 134 -54t54 -134v-740q0 -80 -54 -134t-134 -54zM934 1116h-280v278h-188v-278h-278v-184h278v-278h188v278h280v184zM1352 1302q-63 0 -102 -40q-38 -42 -38 -98t39 -98t98 -42
t101 42q40 40 40 97t-41 98t-97 41zM1722 1024q-58 0 -98 -42q-42 -42 -42 -98t42 -98t98 -42t98 42q40 42 40 99t-41 98t-97 41z" />
</svg>