<svg xmlns="http://www.w3.org/2000/svg" xmlns:xlink="http://www.w3.org/1999/xlink" version="1.1" viewBox="-10 0 2068 2048">
   <path fill="currentColor"
d="M640 2048q0 -252 168 -694q172 -453 456 -935q41 -77 112 -119q72 -42 156 -42q108 0 184 75q74 74 74 182v1533h258v-1533q0 -215 -150 -365t-366 -150q-154 0 -286 81t-204 207q-267 461 -402 868v-832q0 -132 -93 -228t-224 -96t-227 96t-96 228q0 131 96 224t228 93
q42 0 60 -6v1413h256zM324 258q24 0 42 18t18 45t-18 45q-18 17 -46 17t-44 -17q-18 -18 -18 -45t18 -45t48 -18z" />
</svg>