<svg xmlns="http://www.w3.org/2000/svg" xmlns:xlink="http://www.w3.org/1999/xlink" version="1.1" viewBox="-10 0 2068 2048">
   <path fill="currentColor"
d="M1534 512q138 0 256 70q120 70 188 187q70 117 70 257q0 101 -40 194q-39 95 -110 166q-72 72 -165 111t-199 39q-116 0 -219 -50t-173 -137h-236q-69 87 -172 137t-220 50q-104 0 -197 -39t-165 -111q-72 -71 -112 -166t-40 -196t40 -196t112 -166q72 -72 165 -111
t197 -39h1020zM514 699q-134 0 -230 96t-96 231q0 136 96 229q98 94 230 94q97 0 176 -50q77 -49 116 -133h436q40 84 118 133q78 50 174 50q133 0 230 -94q96 -93 96 -229q0 -135 -96 -231t-230 -96h-1020zM446 817h138v140h140v139h-140v139h-138v-139h-140v-139h140v-140
zM1464 1026q38 0 67 26t29 66q0 39 -29 65t-67 26t-64 -26q-28 -27 -28 -65q0 -39 28 -66q26 -26 64 -26zM1652 839q38 0 64 26q28 27 28 65t-28 68q-25 28 -64.5 28t-65.5 -28q-26 -29 -26 -68t26 -65t66 -26z" />
</svg>