<svg xmlns="http://www.w3.org/2000/svg" xmlns:xlink="http://www.w3.org/1999/xlink" version="1.1" viewBox="-10 0 2068 2048">
   <path fill="currentColor"
d="M410 924v152h154v154h153v-306h-307zM1077 410h-154v308h307v-154h-153v-154zM799 1536q159 64 325 32q170 -31 290 -154q123 -124 154 -290q32 -169 -31 -326zM444 444q177 -172 422 -220t474 48q9 -104 67 -198q-288 -115 -587 -52q-298 62 -517 280q-218 218 -281 518
q-62 299 53 582q94 -58 196 -66q-95 -224 -47 -470q49 -246 220 -422zM1604 1604q-176 172 -422 220q-244 48 -474 -48q-8 102 -68 198q289 115 588 52q299 -62 517 -280q217 -217 280 -518q63 -300 -52 -582q-93 58 -197 66q96 226 48 470q-48 246 -220 422zM410 924v152
h154v154h153v-306h-307zM799 1536q159 64 325 32q170 -31 290 -154q123 -124 154 -290q32 -169 -31 -326zM1077 410h-154v308h307v-154h-153v-154zM410 924v152h154v154h153v-306h-307zM1077 410h-154v308h307v-154h-153v-154zM799 1536q159 64 325 32q170 -31 290 -154
q123 -124 154 -290q32 -169 -31 -326zM300 1944q-81 0 -141 -60t-60 -144t60 -144t141 -60h206v202q0 87 -60 151.5t-146 60.5v-6zM1748 98q81 0 141 60t60 144t-60 144t-141 60h-207v-206q0 -82 60 -142t147 -60z" />
</svg>