<svg xmlns="http://www.w3.org/2000/svg" xmlns:xlink="http://www.w3.org/1999/xlink" version="1.1" viewBox="-10 0 2058 2048">
   <path fill="currentColor"
d="M1928 105q-49 -78 -130 -99q-80 -21 -148 27l-1055 604q-61 -19 -91 -19q-130 0 -218 86q-89 88 -89 221v921q-47 0 -74 27t-27 74v101h815v-101q0 -48 -26 -74q-27 -27 -74 -27v-863l1031 -590q76 -47 100.5 -129.5t-14.5 -158.5zM657 1846h-307v-657q66 38 154 38
q87 0 153 -38v657zM504 1079q-63 0 -108 -48q-46 -49 -46 -108q0 -60 46 -106q45 -45 108 -45t108 45t45 106q0 60 -45 108t-108 48zM955 781l-235 -105l134 -82l235 106zM1314 575l-240 -101l135 -81l235 100zM1659 369l-235 -101l135 -82l235 101z" />
</svg>