<svg xmlns="http://www.w3.org/2000/svg" xmlns:xlink="http://www.w3.org/1999/xlink" version="1.1" viewBox="-10 0 2068 2048">
   <path fill="currentColor"
d="M974 436v-388h-974v1755h1106q-36 -96 -36 -197h-96v-192h132q21 -64 64 -128v-68h-196v-197h196v-192h-196v-196h782v397q99 18 192 74v-668h-974zM390 1606h-198v-192h198v192zM390 1218h-198v-197h198v197zM390 829h-198v-196h198v196zM390 436h-198v-192h198v192z
M778 1606h-192v-192h192v192zM778 1218h-192v-197h192v197zM778 829h-192v-196h192v196zM778 436h-192v-192h192v192zM1362 1021h198v-192h-198v192zM1362 829v192h198v-192h-198zM1362 829v192h198v-192h-198zM1756 1218v292h292v197h-292v293h-196v-293h-294v-197h294
v-292h196z" />
</svg>