<svg xmlns="http://www.w3.org/2000/svg" xmlns:xlink="http://www.w3.org/1999/xlink" version="1.1" viewBox="-10 0 2058 2048">
   <path fill="currentColor"
d="M1958 1036q-8 -3 -92 -29q-115 -40 -220 -97q-141 -80 -262 -190q-140 -131 -214 -297q-92 -195 -92 -423l92 5q114 20 214 58q149 58 262 161q142 122 220 306q92 212 92 506zM90 1036q0 -292 94 -506q78 -186 218 -306q113 -103 262 -161q101 -38 214 -58l92 -5
q0 370 -228 637q-161 191 -422 316q-136 60 -230 83zM1024 467q19 26 34 63q48 82 102 156q82 111 176 194q-9 128 -58 248q-39 96 -108 180q-46 57 -102 107l-44 34l-44 -34q-52 -47 -102 -107q-68 -84 -106 -180q-50 -120 -58 -248q130 -120 232 -277q55 -84 78 -136z
M1934 1167q-8 27 -15 53.5t-15 53.5q-38 131 -92 244q-74 151 -166 243l-72 -54q-79 -64 -156 -150q-96 -112 -150 -229q87 -158 146 -384q242 188 520 223zM1388 1683q-47 92 -140 190q-68 63 -150 126l-74 49l-72 -49q-89 -67 -152 -126q-93 -98 -140 -190l34 -29
q34 -35 72 -88q54 -62 88 -136q80 99 170 127q91 -28 170 -127q49 104 126 190q37 36 68 63zM114 1167q279 -35 522 -223q58 226 146 384q-78 164 -234 316q-82 77 -146 117q-130 -124 -218 -375q-52 -129 -70 -219z" />
</svg>