<svg xmlns="http://www.w3.org/2000/svg" xmlns:xlink="http://www.w3.org/1999/xlink" version="1.1" viewBox="-10 0 2058 2048">
   <path fill="currentColor"
d="M1024 0q-210 0 -390 105q-182 106 -286 283q-106 178 -106 389q0 196 90 363q88 167 246.5 277t349.5 137v100h-100q-42 0 -68 30q-28 31 -28 71h-682v192h682q0 40 28 71q26 30 68 30h392q42 0 69 -30t27 -71h682v-192h-682q0 -41 -27 -71t-69 -30h-100v-100
q191 -27 350 -137q158 -110 246 -277q90 -167 90 -363q0 -211 -106 -389q-104 -177 -286 -283q-180 -105 -390 -105zM1024 192q24 42 42 86q49 97 82 206h-248q32 -104 84 -206zM804 237q-54 99 -100 247h-186q109 -178 286 -247zM1244 237q183 69 288 247h-188
q-44 -144 -100 -247zM448 681h216q-6 62 -6 96q0 33 6 100h-216q-8 -51 -8 -98t8 -98zM860 681h328q6 62 6 96q0 33 -6 100h-328q-4 -53 -4 -100t4 -96zM1386 681h214q10 57 10 98t-10 98h-214q4 -53 4 -100t-4 -96zM518 1069h186q46 153 100 252q-181 -73 -286 -252z
M900 1069h248q-34 110 -82 211l-42 82l-40 -82q-52 -106 -84 -211zM1344 1069h188q-110 179 -288 252q56 -107 100 -252z" />
</svg>