<svg xmlns="http://www.w3.org/2000/svg" xmlns:xlink="http://www.w3.org/1999/xlink" version="1.1" viewBox="-10 0 2068 2048">
   <path fill="currentColor"
d="M610 1356l-302 307q-58 53 -130 53t-126 -53q-52 -52 -52 -125v-29l102 -754q15 -179 145.5 -301t314.5 -122h922q185 0 316 122q132 123 146 301l102 754v29q0 72 -53 125t-125 53q-73 0 -130 -53l-304 -307h-826zM510 538v202h-202v106h202v202h106v-202h202v-106h-202
v-202h-106zM1484 538q-32 0 -54 22q-22 21 -22 53q0 31 21 55t55 24q36 0 57 -24t21 -55q0 -32 -22 -53q-22 -22 -56 -22zM1308 716q-34 0 -56 22q-22 21 -22 55t22 55q22 22 52 22t55 -22t25 -55t-25 -55t-51 -22zM1662 716q-27 0 -52 22q-24 21 -24 55t24 55q25 22 56 22
q30 0 52 -22t22 -55t-22 -55t-56 -22zM1484 894q-34 0 -55 24t-21 55q0 32 22 53q22 22 54 22q34 0 56 -22q22 -21 22 -53q0 -31 -21 -55t-57 -24z" />
</svg>