<svg xmlns="http://www.w3.org/2000/svg" xmlns:xlink="http://www.w3.org/1999/xlink" version="1.1" viewBox="-10 0 2068 2048">
   <path fill="currentColor"
d="M2022 936q26 40 26 88t-26 88l-432 748q-25 44 -70 68q-43 24 -90 24h-810q-49 0 -92 -24q-44 -23 -70 -68l-430 -748q-28 -42 -28 -88t28 -88l430 -748q26 -45 70 -68q43 -24 92 -24h810q47 0 90 24q45 24 70 68zM1024 1024v-8l-240 -450l-16 -8h-148l-14 8v22l232 436
l-232 436v22l14 8h148l16 -8l240 -450v-8l4 8l236 450l18 8h148l12 -8v-22l-230 -436l230 -436v-22l-12 -8h-148l-18 8l-236 450z" />
</svg>