<svg xmlns="http://www.w3.org/2000/svg" xmlns:xlink="http://www.w3.org/1999/xlink" version="1.1" viewBox="-10 0 2058 2048">
   <path fill="currentColor"
d="M1029 766q90 0 153 63q62 62 62 153q0 90 -62 152q-63 63 -153 63q-89 0 -152 -63t-63 -152q0 -90 63 -153t152 -63zM1029 556q-175 0 -300 125t-125 301q0 175 125 300t300 125q176 0 301 -125t125 -300q0 -176 -125 -301t-301 -125zM1350 1517h-641v211h641v-211z
M1350 1838h-641v210h641v-210zM419 831l450 -445l-140 -161l-455 456zM198 606l446 -446l-140 -160l-456 456zM1350 1517h-641v211h641v-211zM1179 371l446 450l375 -375l-445 -446z" />
</svg>