<svg xmlns="http://www.w3.org/2000/svg" xmlns:xlink="http://www.w3.org/1999/xlink" version="1.1" viewBox="-10 0 2068 2048">
   <path fill="currentColor"
d="M808 1039l-92 -581q308 -100 616 0l-92 581q-5 39 -33.5 63t-68.5 24h-230q-38 0 -66 -24q-30 -25 -34 -63zM2048 1434q0 -56 -34 -109q-32 -49 -88 -79q-39 -179 -138 -327q-100 -147 -250 -255l-182 500q-10 29 -36 48q-28 20 -60 20h-472q-32 0 -60 -20
q-26 -19 -36 -48l-182 -500q-151 108 -250 255q-100 148 -140 327q-55 30 -86 79q-34 51 -34 109l658 192q59 14 116 14h500q57 0 110 -14z" />
</svg>