<svg xmlns="http://www.w3.org/2000/svg" xmlns:xlink="http://www.w3.org/1999/xlink" version="1.1" viewBox="-10 0 2068 2048">
   <path fill="currentColor"
d="M654 1395q0 -161 70 -310q64 -137 178 -248h-714l140 -418h1024l74 235q85 0 156 26l-100 -305q-20 -46 -54 -70q-39 -26 -76 -26h-1024q-48 0 -84 26q-34 25 -48 70l-196 558v741q0 34 32 65q30 30 64 30h92q35 0 64 -30q28 -29 28 -65v-92h400q-26 -84 -26 -187z
M328 1303q-58 0 -99 -41t-41 -98t42 -98q42 -42 98 -42t98 42q40 41 40 98t-41 98t-97 41zM1394 1769v-187h-278v-91h96q74 0 128 -55q54 -54 54 -133v-91q0 -79 -54 -133q-54 -55 -128 -55h-278v188h278v91h-96q-74 0 -128 55q-54 54 -54 133v278h460zM2048 1491h-188v183
h-186v-183h-184v-188h184v-187h186v187h188v188z" />
</svg>