<svg xmlns="http://www.w3.org/2000/svg" xmlns:xlink="http://www.w3.org/1999/xlink" version="1.1" viewBox="-10 0 2058 2048">
   <path fill="currentColor"
d="M1024 2048q-130 0 -238 -108t-180 -305q-9 -20 -2 -34t24 -19t31 2q15 7 19 22q64 174 154 269q92 96 192 96q74 0 142 -50q71 -52 127 -147q9 -14 24 -19q14 -4 29 5q14 9 19 26q5 16 -5 26q-69 118 -153 176q-87 60 -183 60zM1423 1610h-10q-33 -15 -24 -52
q68 -213 68 -481q0 -297 -87 -536q-87 -238 -226 -325q-44 68 -120 68q-57 0 -101 -41q-43 -40 -43 -101t43 -101q44 -41 101 -41t101 41q43 40 43 98q163 87 267 347q103 258 103 591q0 272 -77 505q-4 28 -38 28zM1024 77q-24 0 -43 19t-19 46t19 43q20 17 46 17
q25 0 45 -17q19 -16 19 -43t-19 -46t-48 -19zM212 1697q-58 0 -101 -43t-43 -101q0 -77 67 -120q-9 -189 166 -409q176 -221 468 -389q253 -141 491 -193q13 -4 28 5t20 26q4 16 -5 32q-8 14 -24 14q-234 52 -471 188q-261 147 -430 346q-166 196 -166 356q63 0 103 43
q41 44 41 101q0 58 -43 101t-101 43zM212 1490q-23 0 -43 17q-19 16 -19 43t19 46t45 19q28 0 44 -19q17 -20 17 -46t-17 -43t-46 -17zM1692 1173q-13 0 -26 -10q-12 -9 -12 -26q0 -16 9 -31q120 -139 159 -265q38 -123 -15 -211q-72 -131 -307 -135q-20 0 -29 -12
q-10 -13 -10 -26q0 -15 12 -27t27 -12q132 0 233 46q98 45 142 122q67 110 26 260t-180 313q-8 14 -29 14zM1485 1731q-157 0 -346 -56q-190 -56 -370 -161q-242 -141 -413 -322q-9 -15 -9 -31q0 -17 12 -26q13 -10 28 -10q19 0 27 14q164 173 394 303q259 151 504 195
q250 45 394 -27q-14 -31 -14 -57q0 -58 43 -101t101 -43t101 43t43 101t-43 101t-101 43q-44 0 -77 -24q-107 58 -274 58zM1793 1601q22 14 48 14q25 0 41 -19q17 -20 17 -46t-17 -43t-46 -17q-28 0 -45 17t-17 41q0 25 14 43q5 5 5 10zM250 1024q-18 0 -33 -19
q-67 -119 -79 -229q-12 -109 36 -190q63 -111 213 -151q153 -41 363 -2q15 5 24 19q10 16 7 29q-3 16 -16 24q-15 9 -29 5q-183 -28 -315 0q-132 29 -180 115q-33 67 -24 154q9 84 67 182q9 16 5 32t-17 24q-11 7 -22 7zM1043 1168q-39 5 -69 -14q-32 -20 -41 -58
q-9 -39 12 -72q21 -34 60 -41q37 -7 72 15q34 21 41 60q7 36 -15 69q-21 32 -60 41z" />
</svg>