<svg xmlns="http://www.w3.org/2000/svg" xmlns:xlink="http://www.w3.org/1999/xlink" version="1.1" viewBox="-10 0 2068 2048">
   <path fill="currentColor"
d="M1942 430h-1942v-430h1942v430zM1148 1077h-500v-162q0 -19 16 -35q14 -15 40 -15h536q39 0 50 35q165 -146 384 -146q78 0 162 25v-238h-1728v1401h1208q-238 -351 -238 -592q0 -140 70 -273zM2048 1350q0 172 -188 455q-101 149 -186 243l-102 -116
q-114 -152 -182 -278q-96 -182 -96 -304q0 -156 112 -268q112 -111 266 -111t265 111t111 268zM1800 1360q0 -50 -40 -91q-40 -40 -88 -40t-90 38q-40 37 -40 91q0 53 38 91t93 38t97 -41q41 -41 30 -86z" />
</svg>