<svg xmlns="http://www.w3.org/2000/svg" xmlns:xlink="http://www.w3.org/1999/xlink" version="1.1" viewBox="-10 0 2067 2048">
   <path fill="currentColor"
d="M1228 1816l276 -272l-276 -272l140 -136l271 268l272 -268l136 136l-272 272l272 272l-136 136l-272 -272l-271 272zM1060 1726q9 49 -23 80q-30 28 -72 28q-41 0 -68 -26l-385 -390q-35 -32 -31 -78v-498l-462 -588q-22 -32 -18 -72q5 -43 34.5 -64.5t60.5 -21.5h1353
q32 0 61.5 22t33.5 64q5 40 -18 72l-466 588v884zM295 290l380 490v530l195 194v-730l380 -484h-955z" />
</svg>