<svg xmlns="http://www.w3.org/2000/svg" xmlns:xlink="http://www.w3.org/1999/xlink" version="1.1" viewBox="-10 0 2058 2048">
   <path fill="currentColor"
d="M1423 1692l615 164l-38 192l-966 -255l-961 255l-53 -192l615 -164l-625 -163l48 -197l966 254l966 -254l48 197zM1442 606q-27 -37 -57 -63q-26 -21 -68 -53q-59 -45 -81 -67q-83 -83 -99 -202q-17 -120 36 -221q-91 24 -183 96q-144 115 -192 301q-48 184 20 358l4 24
q0 24 -24 36t-48 -7q-3 -3 -9 -15q-63 -77 -72 -180q-9 -107 33 -200q-91 76 -139 195q-48 118 -39 243q0 57 20 106q16 76 52 129q58 97 154 162q95 64 202 79q121 15 235 -10q126 -33 207 -110q101 -92 132 -226q31 -135 -21 -265l-10 -19q-20 -48 -58 -91h5zM1212 1072
q-34 34 -82 43q-53 24 -111 3q-57 -21 -96 -60q60 -16 99 -58q40 -43 55 -96q5 -47 -14 -116l-10 -48q-15 -86 14 -154q24 52 44 80q18 25 64 65q49 43 65 62q30 34 34 77l5 34q0 48 -17 94q-17 45 -50 74z" />
</svg>