<svg xmlns="http://www.w3.org/2000/svg" xmlns:xlink="http://www.w3.org/1999/xlink" version="1.1" viewBox="-10 0 2068 2048">
   <path fill="currentColor"
d="M202 1231q216 0 414 -140q187 135 408 135t408 -135q198 140 414 140h202v202h-202q-210 0 -414 -101q-192 101 -408 101t-408 -101q-204 101 -414 101h-202v-202h202zM616 1707q186 134 408 134t408 -134q196 139 414 139h202v202h-202q-210 0 -414 -101
q-192 101 -408 101t-408 -101q-204 101 -414 101h-202v-202h202q218 0 414 -139zM408 817v-307h514v-202h-514v-308l-408 409z" />
</svg>