<svg xmlns="http://www.w3.org/2000/svg" xmlns:xlink="http://www.w3.org/1999/xlink" version="1.1" viewBox="-10 0 2068 2048">
   <path fill="currentColor"
d="M160 0l-160 160l304 304q-192 250 -192 563q0 311 192 557l-304 304l160 160l304 -304q251 192 562 192q313 0 558 -192l304 304l160 -160l-304 -304q192 -250 192 -563q0 -311 -192 -557l304 -304l-160 -160l-304 304q-251 -192 -562 -192q-313 0 -558 192zM1024 341
q184 0 344 91q157 90 248 248q90 159 90 344t-90 344q-91 158 -248 248q-160 91 -344 91t-344 -91q-157 -90 -248 -248q-90 -159 -90 -344t90 -344q91 -158 248 -248q160 -91 344 -91z" />
</svg>