<svg xmlns="http://www.w3.org/2000/svg" xmlns:xlink="http://www.w3.org/1999/xlink" version="1.1" viewBox="-10 0 2068 2048">
   <path fill="currentColor"
d="M1620 1364q108 0 182 -74t74 -180q0 -105 -74 -182q-73 -76 -182 -76h-128v-40q0 -127 -62 -236q-61 -107 -170 -172q-107 -64 -236 -64q-160 0 -284 96t-168 248h-60q-140 0 -240 100t-100 240t100 240t240 100v-424h1024v424h84zM1652 688q167 7 282 130
q114 121 114 290q0 117 -58 214q-58 98 -156 156q-97 58 -214 58h-84v340h-1024v-340q-139 0 -258 -68q-118 -68 -186 -186q-68 -119 -68 -258q0 -128 60 -240q59 -111 164 -184q103 -72 232 -84q79 -154 232 -250q151 -94 336 -94q232 0 408 146t220 370zM684 1108v600h680
v-600h-680zM768 1536h512v84h-512v-84zM1280 1452h-512v-88h512v88zM768 1196h512v84h-512v-84z" />
</svg>