<svg xmlns="http://www.w3.org/2000/svg" xmlns:xlink="http://www.w3.org/1999/xlink" version="1.1" viewBox="-10 0 2058 2048">
   <path fill="currentColor"
d="M1024 1674q63 0 107 34q44 33 67 88q80 -18 148 -48l-165 -388q-75 35 -157 35t-157 -35l-165 388q68 30 148 48q23 -55 67 -88q44 -34 107 -34zM1603 1560q-39 -57 -39 -117q0 -74 54 -131t133 -57l26 5q35 -116 35 -236t-35 -231h-26q-79 0 -133 -54t-54 -133
q0 -66 39 -118q-169 -182 -405 -235q-23 53 -67 87q-46 35 -107 35t-107 -35q-44 -34 -67 -87q-236 53 -405 235q39 53 39 118q0 78 -55 133q-54 54 -128 54h-31q-34 108 -34 229q0 123 34 238l31 -5q74 0 128 57q55 58 55 129t-39 119q41 46 96 92l178 -418
q-65 -90 -65 -210q0 -152 109 -261t261 -109t261 109t109 261q0 120 -65 210l178 418q46 -38 96 -92zM1024 2048q-71 0 -122 -45t-65 -116q-83 -18 -170 -57l-92 218h-200l131 -309q-80 -59 -135 -122q-29 13 -70 13q-79 0 -133 -54t-54 -133q0 -87 69 -144
q-43 -133 -43 -275q0 -141 43 -270q-69 -57 -69 -148q0 -79 54 -133t133 -54q32 0 65 17q191 -217 471 -274q14 -71 65 -116q52 -46 122 -46t122 46q51 45 65 116q275 57 471 270q29 -13 69 -13q75 0 129 54t54 133q0 92 -69 144q43 133 43 274q0 142 -43 275q69 57 69 144
q0 79 -54 133t-129 54q-41 0 -74 -13q-55 63 -135 122l131 309h-200l-92 -218q-87 39 -170 57q-14 71 -65 116t-122 45z" />
</svg>