<svg xmlns="http://www.w3.org/2000/svg" xmlns:xlink="http://www.w3.org/1999/xlink" version="1.1" viewBox="-10 0 2068 2048">
   <path fill="currentColor"
d="M2040 997l-91 -53v-19l72 -72q10 -10 10 -22q0 -11 -10 -21l-10 -10l-91 -29q0 -24 -15 -24l63 -82q9 -5 7 -19q-3 -15 -17 -19h-4q-5 -5 -5 -10l-101 -24q0 -5 -5 -10t-5 -9l39 -92v-29q-9 -14 -29 -14h-106v-5q0 -5 -10 -5l20 -101q0 -29 -20 -29h-9l-101 20
q0 -10 -10 -15l-14 -5v-105q0 -29 -29 -29h-10l-91 38h-10l-24 -101q0 -13 -10 -21t-19 2h-9l-82 62q-24 0 -24 -14l-29 -91q-20 -20 -39 -20h-9q-5 5 -5 10l-82 72h-19l-53 -82q-9 -19 -48 -19l-10 10l-52 91h-20l-72 -72q-10 -10 -22 -10q-11 0 -21 10l-10 10l-29 91
q-24 0 -24 14l-81 -62q-34 -20 -49 10v9l-24 101l-4 5q-10 0 -15 5l-91 -39q-9 -9 -22 -4t-22 14v115q0 6 -4 10q-5 5 -5 10l-101 -20q-29 -20 -29 20v9l19 101q-4 0 -9 5t-10 5h-106q-29 0 -29 34v9l39 92v19l-101 24q-14 0 -22 10q-7 8 -7 19v10l58 81q0 24 -10 24l-82 39
q-19 19 -19 43v5q5 5 10 5l72 72v19l-82 53q-19 9 -19 39l9 9l92 63v19l-72 72q-10 10 -10 22t10 22l9 9l92 29q0 24 14 24l-62 82q-11 5 -8 19q2 15 17 19h5q5 5 5 10l101 24q0 5 5 10q4 4 4 9l-38 92q-10 9 -5 22q3 9 15 21h115q5 0 10 5t9 5l-19 101q0 29 19 29h10
l101 -20q0 10 9 15l15 5v106q0 28 29 28h9l92 -38h9l24 101q0 13 10 22q8 7 19 -3h10l82 -62q24 0 24 14l29 92q19 19 38 19h10q5 -5 5 -10l81 -72h20l52 82q4 9 20 14q14 4 19 -5l10 -9l52 -82h20l72 72q10 10 21 10q12 0 22 -10l10 -9l29 -92q19 0 19 -14l86 62q5 10 20 7
t19 -16v-5q5 -5 9 -5l20 -101q9 0 14 -5t10 -5l91 39q4 9 19 5q14 -5 20 -15v-115l24 -20l101 20q29 0 29 -20v-9l-20 -101l20 -24h105q29 0 29 -29v-10l-38 -91q0 -5 5 -10q4 -4 4 -14l101 -20q14 0 22 -12q7 -12 -2 -16v-10l-58 -82l9 -24l92 -29q19 -19 19 -43v-5
q-5 -5 -9 -5l-82 -72v-19l82 -53q28 -9 9 -58v5v-5zM1458 1714q-23 -8 -38 -29q-15 -19 -10 -43q4 -23 24 -38q18 -15 42.5 -10.5t39.5 24.5q14 18 14 48q0 28 -21 43q-21 14 -51 5zM1434 1517q-20 -5 -38 7q-20 12 -20 36l-43 145q-138 62 -310 62q-171 0 -315 -72
l-34 -144q-16 -59 -58 -44l-125 34l-62 -72l625 -5v-231h-183v-135h198q91 0 120 101l14 58q14 85 27 113q12 27 45 63t68 36h317q-22 31 -72 82zM583 1714q-25 9 -43 -5q-20 -15 -27 -43q-8 -29 7 -48q15 -20 44 -29q56 -15 72 53q0 23 -15 43q-16 21 -38 29zM347 771
q9 24 0 48q-9 23 -31 31q-21 7 -48 0q-27 -8 -34 -31q-8 -23 2 -48q9 -25 29 -34q66 -15 82 34zM275 935l135 -53q22 -4 31 -27q6 -19 -3 -45l-28 -63h101v486h-202q-49 -157 -34 -298zM852 891v-144h255q25 0 48 14q43 19 43 58t-33 56q-32 16 -77 16h-236zM1776 1016v53
h-92v39q0 57 -29 79q-30 22 -62 22q-33 0 -60 -12t-36 -27q-9 -79 -39 -125q-20 -28 -67 -67l-15 -14q154 -111 154 -219t-115 -190q-50 -29 -101 -44q-39 -9 -63 -9h-779q172 -188 419 -236l91 101q33 33 87 0l101 -101q155 32 293 130q133 95 221 240l-72 164
q-10 24 -2 43q7 20 31 29l135 63v81zM982 194q19 -15 43 -15t41 15t17 41t-14 40q-49 48 -97 0q-24 -24 10 -81zM1694 771q4 -24 31 -31q27 -8 48 0q22 8 31 31q9 26 3 48q-8 23 -34.5 30.5t-49.5 0.5q-25 -8 -32 -31q-7 -22 3 -48z" />
</svg>