<svg xmlns="http://www.w3.org/2000/svg" xmlns:xlink="http://www.w3.org/1999/xlink" version="1.1" viewBox="-10 0 2068 2048">
   <path fill="currentColor"
d="M482 28q251 12 364 195.5t108 452.5q0 299 -120 476q-118 177 -364 184q-244 -12 -356 -192q-114 -181 -114 -466q0 -283 116 -460q117 -179 366 -190zM476 242q-84 0 -134 106q-48 106 -48 330.5t48 333.5q50 110 140 110q178 0 181.5 -437t-187.5 -443zM1204 1336v-232
h60h68l134 -24q75 -23 122 -62q71 -46 108 -104q40 -64 58 -128l-6 -6q-86 86 -256 86q-172 0 -282 -95t-113 -284t129 -321.5t344 -137.5q246 12 362 162t116 388q-7 191 -62 336q-55 147 -152 244q-90 79 -218 122q-124 43 -278 56h-134zM1564 242q-78 0 -130 60.5
t-52 165.5q0 87 44 144q47 57 144 64q61 0 104 -28q42 -25 62 -58q18 -18 18 -80q0 -106 -42 -182q-44 -81 -148 -86zM1522 1592l-422 428l-428 -428h850z" />
</svg>