<svg xmlns="http://www.w3.org/2000/svg" xmlns:xlink="http://www.w3.org/1999/xlink" version="1.1" viewBox="-10 0 2068 2048">
   <path fill="currentColor"
d="M838 697h374v1116h-374v-1116zM558 605h188v-187h-188v187zM280 514h186v-187h-186v187zM280 793h186v-188h-186v188zM0 976h188v-183h-188v183zM0 418h188v-183h-188v183zM0 697h188v-183h-188v183zM1582 793h188v-188h-188v188zM1860 697h188v-183h-188v183zM1860 235
v183h188v-183h-188zM1860 976h188v-183h-188v183zM1304 605h186v-187h-186v187zM1582 514h188v-187h-188v187zM838 418h30l66 187h182l66 -187h30v-91h-374v91z" />
</svg>