<svg xmlns="http://www.w3.org/2000/svg" xmlns:xlink="http://www.w3.org/1999/xlink" version="1.1" viewBox="-10 0 2068 2048">
   <path fill="currentColor"
d="M1920 1549v-106l111 -82q23 -19 14 -29l-106 -173q0 -10 -29 -10l-125 48q-64 -39 -91 -48l-19 -135q0 -10 -7 -14q-9 -5 -17 -5h-202q-34 0 -34 19l-19 135l-82 48l-125 -48q-19 0 -29 10l-101 173q0 19 10 29l110 82v106l-110 81q-20 20 -10 29l101 178q10 10 29 10
l125 -53q40 35 82 53l19 130q24 24 34 24h202q10 0 17 -7t7 -17l19 -130l82 -53l125 43q20 0 29 -14l101 -173q9 -4 9 -12t-9 -8zM1540 1640q-62 0 -108 -46t-46 -108t46 -108t108 -46t108 46t46 108t-46 108t-108 46zM516 562h817v207h-817v-207zM1439 461h-1029v1232h-202
v-1232h-207v-414h1847v414h-207v318q-10 0 -50 -5t-51 -5q-70 0 -101 10v-318zM852 1693h-336v-207h307q0 109 29 207zM516 870h654q-146 93 -217 207h-437v-207zM516 1178h380q-48 92 -63 207h-317v-207z" />
</svg>