<svg xmlns="http://www.w3.org/2000/svg" xmlns:xlink="http://www.w3.org/1999/xlink" version="1.1" viewBox="-10 0 2068 2048">
   <path fill="currentColor"
d="M1754 308h192v-207h-1844v207h192q-140 140 -216 324q-78 186 -78 392q0 304 158 550q161 249 418 373h894q258 -124 418 -373q160 -247 160 -550q0 -206 -78 -392q-76 -184 -216 -324zM442 452l140 -144h884l140 144q86 81 138 187q-166 -24 -312 -129
q-186 134 -408 134t-408 -134q-146 104 -314 129q52 -105 140 -187zM1418 1740h-788q-197 -107 -312 -298q-116 -193 -116 -418q0 -84 20 -173q205 -4 394 -101q192 101 408 101t408 -101q189 97 394 101q20 85 20 173q0 225 -116 418q-116 191 -312 298zM1538 1279
q0 105 -114 182q-113 77 -276 77q-164 0 -298 -86q-43 57 -144 72q-53 14 -196 14q82 0 118 -72t36 -187q0 -116 -36 -185q-37 -70 -118 -70q133 0 196 10q103 20 150 81q119 -91 298 -91q160 0 270 74q114 75 114 181z" />
</svg>