<svg xmlns="http://www.w3.org/2000/svg" xmlns:xlink="http://www.w3.org/1999/xlink" version="1.1" viewBox="-10 0 2068 2048">
   <path fill="currentColor"
d="M202 202h720v-202h-720q-82 0 -142 60t-60 142v721h202v-721zM818 1125l-410 514h1230l-306 -408l-208 274zM1538 663q0 -63 -45 -108t-111 -45q-65 0 -108 45q-44 44 -44 111q0 65 43 108t109 43t110 -43q46 -44 46 -111zM1846 0h-722v202h722v721h202v-721
q0 -82 -60 -142t-142 -60zM1846 1846h-722v202h722q82 0 142 -60t60 -142v-721h-202v721zM202 1125h-202v721q0 82 60 142t142 60h720v-202h-720v-721z" />
</svg>