<svg xmlns="http://www.w3.org/2000/svg" xmlns:xlink="http://www.w3.org/1999/xlink" version="1.1" viewBox="-10 0 2068 2048">
   <path fill="currentColor"
d="M922 1639h202v-206h-202v206zM1024 0q-200 0 -392 77q-188 76 -333.5 221t-220.5 334q-78 192 -78 392t78 392q75 189 220.5 334t333.5 221q192 77 392 77t392 -77q188 -76 333.5 -221t220.5 -334q78 -192 78 -392t-78 -392q-75 -189 -220.5 -334t-333.5 -221
q-192 -77 -392 -77zM1024 1846q-221 0 -412 -111q-189 -110 -300 -300q-110 -191 -110 -411t110 -411q112 -191 300.5 -301t411 -110t411 110t299.5 301q112 191 112 411t-112 411q-110 190 -300 300q-190 111 -410 111zM1024 409q-168 0 -288 120t-120 288h202
q0 -82 60 -142t146 -60t146 60t60 142q0 63 -38 111q-26 31 -92 77q-86 67 -120 120q-58 82 -58 207h202q0 -77 48 -140q26 -35 106.5 -106t105.5 -110q48 -68 48 -159q0 -167 -120 -288q-120 -120 -288 -120z" />
</svg>