<svg xmlns="http://www.w3.org/2000/svg" xmlns:xlink="http://www.w3.org/1999/xlink" version="1.1" viewBox="-10 0 2068 2048">
   <path fill="currentColor"
d="M1930 404q46 0 82 36t36 86v338q0 46 -38 81q-39 36 -88 36h-528q-46 0 -82 -38q-36 -39 -36 -88v-338q0 -41 36 -77t82 -36v-145q0 -99 81 -171t185 -72q102 0 186 72t84 171v145zM1804 404v-145q0 -58 -40 -92t-102 -34q-61 0 -103.5 34t-42.5 92v145h288zM0 1775
l140 -528l144 248l416 -243v-1042h194v1042l626 365l140 -248l144 523l-528 140l150 -248l-632 -365l-414 239l148 257z" />
</svg>