<svg xmlns="http://www.w3.org/2000/svg" xmlns:xlink="http://www.w3.org/1999/xlink" version="1.1" viewBox="-10 0 2068 2048">
   <path fill="currentColor"
d="M130 0l-130 130l284 283l86 140l-144 226l178 91l130 -207l360 361h-692q-82 0 -142 60t-60 147v817h202v-202h1514l130 130v72h202v-130zM510 1538q0 43 -29 72t-72 29t-72 -29t-29 -72v-206q0 -43 29 -72t72 -29t72 29t29 72v206zM922 1538q0 44 -30 72q-33 29 -74 29
q-44 0 -74 -29q-28 -28 -28 -72v-206q0 -44 28 -72q30 -29 74 -29q41 0 74 29q30 28 30 72v206zM1332 1538q0 43 -29 72t-72 29t-75 -29q-32 -28 -32 -72v-206q0 -30 20 -58l188 187v77zM1460 769l146 -226l-146 -226l202 -317l184 91l-150 226l150 226l-208 318zM2048 1231
v428l-308 -308v-19q0 -43 -29 -72t-73 -29h-14l-212 -207h434q82 0 142 60t60 147zM986 543l-144 -226l206 -317l178 91l-150 226l150 226l-116 173l-144 -139zM562 173l-144 -144l14 -19l178 91z" />
</svg>