<svg xmlns="http://www.w3.org/2000/svg" xmlns:xlink="http://www.w3.org/1999/xlink" version="1.1" viewBox="-10 0 2068 2048">
   <path fill="currentColor"
d="M1924 2048l-342 -343l-32 174h-978l-114 -590l446 -260l-104 -105l-494 283q-36 18 -76 9q-38 -9 -58.5 -43t-9.5 -73q13 -40 48 -62l444 -256l-106 -110l-192 114l-78 -370h-96v-110l-182 -182l124 -124l1924 1925zM932 453q62 -37 128 -37q100 0 171 71t71 171
q0 114 -86 188l448 448l178 -878h96v-196h-1344l270 274zM1010 576l-42 23l142 142q31 -18 43.5 -57t-9.5 -74q-20 -33 -58 -45q-40 -12 -76 11z" />
</svg>