<svg xmlns="http://www.w3.org/2000/svg" xmlns:xlink="http://www.w3.org/1999/xlink" version="1.1" viewBox="-10 0 2068 2048">
   <path fill="currentColor"
d="M1124 1947h-202v-1538l-202 -207l98 -101l206 207l206 -207l102 101l-208 207v1538zM1230 716v-206q136 -101 308 -101q140 0 256 69q118 69 186 188t68 257q0 119 -56 228q-58 111 -146 181v206q0 169 -120 289t-294 120q-108 0 -202 -58v-202q93 53 202 53
q86 0 146 -60t60 -142v-327q92 -33 150 -113q58 -81 58 -175q0 -131 -92 -219q-92 -89 -216 -89q-172 0 -308 101zM818 716q-136 -101 -308 -101q-124 0 -216 89t-92 219q0 94 58 175q57 80 148 113v327q0 82 60 142t148 60q109 0 202 -53v202q-94 58 -202 58
q-174 0 -294 -120q-120 -121 -120 -289v-206q-89 -70 -146 -181q-56 -107 -56 -228q0 -139 68 -257q67 -119 184 -188t258 -69q172 0 308 101v206zM716 923l-154 -154l-154 154l154 154zM1638 923l-154 -154l-152 154l152 154z" />
</svg>