<svg xmlns="http://www.w3.org/2000/svg" xmlns:xlink="http://www.w3.org/1999/xlink" version="1.1" viewBox="-10 0 2068 2048">
   <path fill="currentColor"
d="M1024 1839l-134 117q-360 -322 -492 -455q-213 -210 -298 -355q-100 -166 -100 -331q0 -149 88 -284v50q0 201 112 397q101 171 318 393q147 147 506 468zM1166 1476q13 -13 54 -50q235 -214 342 -322q156 -155 230 -272q84 -133 88 -251q0 -133 -90 -221
q-89 -88 -222 -88q-105 0 -197.5 59t-124.5 154h-168q-41 -95 -132 -154q-90 -59 -190 -59q-133 0 -222 88q-90 88 -90 221q0 124 88 264q77 119 246 284q108 112 372 347l8 8zM1558 92q138 0 250 65q109 64 174 178q66 113 66 246q0 160 -100 326q-86 145 -298 356
q-138 138 -492 459q-356 -313 -494 -451q-207 -208 -296 -360q-100 -167 -100 -330q0 -133 65 -246.5t175 -177.5q112 -65 248 -65q112 0 220 50q107 50 182 138q74 -88 182 -138q107 -50 218 -50z" />
</svg>