<svg xmlns="http://www.w3.org/2000/svg" xmlns:xlink="http://www.w3.org/1999/xlink" version="1.1" viewBox="-10 0 2062 2048">
   <path fill="currentColor"
d="M644 0v256h-382v256h382v250q-176 0 -320 86q-145 87 -232 235q-86 147 -86 322q0 174 86 318q88 147 236 233q146 86 316 86q165 0 302 -101q25 27 48.5 53.5t47.5 53.5l178 -185q-45 -45 -90 -95l132 -131q185 -186 322 -542q202 112 202 304q0 126 -48 241
q-50 118 -136 211l178 179q122 -123 192 -289q70 -163 70 -345q0 -181 -102 -333q-100 -152 -262 -230l42 -160l-244 -66l-48 161l-30 -6h-500v-250h632v-256h-632v-256h-254zM898 1018h442q-119 302 -262 440l-78 84q-102 -224 -102 -524zM644 1018q0 406 166 708
q-72 60 -162 60q-166 0 -276 -110t-110 -271t110 -274t272 -113z" />
</svg>