<svg xmlns="http://www.w3.org/2000/svg" xmlns:xlink="http://www.w3.org/1999/xlink" version="1.1" viewBox="-10 0 2058 2048">
   <path fill="currentColor"
d="M369 0q292 0 452 160q159 159 174 443q33 -195 144 -297q76 -76 186 -91q55 -9 96 -4q9 181 -119 296q-122 111 -307 120q-30 -64 -148 -187q-102 -102 -205 -196l-106 -96l19 24q137 128 211 211q143 161 134 244q-211 -24 -354 -172q-162 -168 -177 -455zM412 1134
l397 -397q86 -86 215 -86t215 86l393 397q90 84 90 213q0 128 -90 218l-393 392q-85 91 -215 91t-215 -91l-397 -392q-86 -92 -86 -218q0 -127 86 -213zM752 1794q0 -110 67 -186q72 -96 210 -96q60 0 191 58q87 35 120 43q65 19 119 14q-115 -4 -196 -81q-81 -76 -81 -201
q0 -46 14 -91q7 -21 39 -91q29 -62 38 -96q19 -60 19 -115q-4 90 -67 163q-81 86 -206 86q-49 0 -100 -19q-24 -8 -96 -38q-78 -33 -100 -39q-68 -24 -125 -24q80 4 163 63q105 81 105 215q0 60 -14 105q-8 27 -38 89q-27 57 -43 103q-19 60 -19 138z" />
</svg>