<svg xmlns="http://www.w3.org/2000/svg" xmlns:xlink="http://www.w3.org/1999/xlink" version="1.1" viewBox="-10 0 2068 2048">
   <path fill="currentColor"
d="M0 1212v-838h1116q253 0 466 124q214 126 340 339t126 465v188h-204q-26 84 -98 134q-73 50 -164 50t-164 -50q-72 -50 -98 -134h-482q-69 86 -162 134q-96 50 -210 50q-127 0 -232.5 -61.5t-169.5 -168.5q-64 -108 -64 -232zM466 932q-118 0 -198 80t-80 198
q0 116 80 198q82 82 198 82q118 0 200 -82q80 -82 80 -198q0 -118 -80 -198t-200 -80zM1304 836v188h486q-47 -100 -116 -188h-370z" />
</svg>