<svg xmlns="http://www.w3.org/2000/svg" xmlns:xlink="http://www.w3.org/1999/xlink" version="1.1" viewBox="-10 0 2068 2048">
   <path fill="currentColor"
d="M1692 1514q-54 0 -90 -36t-36 -86q0 -51 39 -87t84 -36t85 39q38 38 42.5 83.5t-34.5 84.5q-38 38 -90 38zM1692 1024q-151 0 -256 106q-104 106 -104 255q0 116 90 288q67 122 174 264l96 111l90 -111q107 -142 174 -264q92 -173 92 -288q0 -147 -106 -255
q-105 -106 -250 -106zM716 0l-206 202h-308q-82 0 -142 60t-60 147v1230q0 87 60 147t142 60h1076q-100 -155 -144 -317q-28 9 -110 9q-140 0 -258 -69q-118 -70 -186 -188q-70 -120 -70 -257t70 -257q68 -118 186 -188q118 -69 258 -69q164 0 296 93t184 248
q95 -34 188 -34q192 0 356 135v-543q0 -87 -60 -147t-142 -60h-308l-206 -202h-616zM1014 716q-124 0 -212 92q-86 90 -86 218q0 129 88 217q90 89 220 89q42 0 100 -20q33 -211 198 -360q-25 -101 -110 -168q-88 -68 -198 -68h4h-4z" />
</svg>