<svg xmlns="http://www.w3.org/2000/svg" xmlns:xlink="http://www.w3.org/1999/xlink" version="1.1" viewBox="-10 0 2068 2048">
   <path fill="currentColor"
d="M1147 2048l-166 -386q226 -85 447 -234zM386 1066l-385 -166l618 -280q-148 220 -233 446zM1766 200q54 0 76 4q19 152 -38 316q-76 232 -300 452q-255 260 -609 394l-219 -214q142 -357 400 -610q190 -190 390 -276q153 -66 300 -66zM1766 0q-187 0 -371 76
q-239 101 -462 324q-280 276 -442 682q-25 58 -10 114q15 58 57 100l215 214q62 62 142 62q37 0 72 -14q387 -147 680 -444q161 -156 262 -332q81 -143 114 -296q28 -119 24 -234q0 -86 -19 -156l-19 -58l-67 -18q-79 -20 -176 -20zM1290 758q-57 -62 -57 -146
q0 -82 60 -142t142 -60q83 0 143 60t60 142t-60 142t-143 60q-84 0 -145 -56zM714 1476l-142 -142zM448 2028l371 -366q-54 -16 -100 -48l-414 414h143zM20 2028h142l486 -480l-148 -144l-480 482v142zM20 1742l414 -414q-34 -48 -48 -100l-366 372v142z" />
</svg>