<svg xmlns="http://www.w3.org/2000/svg" xmlns:xlink="http://www.w3.org/1999/xlink" version="1.1" viewBox="-10 0 2067 2048">
   <path fill="currentColor"
d="M1136 0h-224v1135h224v-1135zM1685 245l-160 165q141 115 216 272q77 161 77 341q0 217 -107 400q-106 181 -287 287q-183 107 -400 107t-399.5 -107t-287.5 -287q-106 -181 -106 -400q0 -175 77 -338q76 -162 216 -280l-160 -160q-214 182 -304 440t-42 525
q48 266 226 479q178 212 437 301q257 88 526.5 43t477.5 -227q176 -149 269 -354q93 -206 93 -429.5t-93 -428.5q-92 -204 -269 -349z" />
</svg>