<svg xmlns="http://www.w3.org/2000/svg" xmlns:xlink="http://www.w3.org/1999/xlink" version="1.1" viewBox="-10 0 2068 2048">
   <path fill="currentColor"
d="M1638 918q-109 0 -198.5 77t-89.5 183v153q-42 0 -82 39q-38 38 -38 82v360q0 54 36 94q37 41 84 41h568q52 0 91 -39t39 -86v-361q0 -52 -36 -91t-86 -39v-153q0 -107 -88 -183q-89 -77 -200 -77zM1638 1043q64 0 108 36q46 37 46 99v153h-308v-153q0 -62 46 -99
q46 -36 108 -36zM562 101q-149 0 -278 77q-131 77 -206 206q-78 131 -78 279t78 279q76 130 205.5 207t278.5 77h586v-48q0 -69 10 -106h-596q-168 0 -288 -120q-120 -121 -120 -289q0 -167 121 -288t287 -121h1076q106 0 181 75t75 180q0 66 -34 128q-33 58 -96 98
q58 9 162 72q122 -126 122 -295q0 -170 -122 -291q-120 -120 -288 -120h-1076zM768 408q-110 0 -184 75q-74 74 -74 180t74 180q74 75 184 75h462q76 -105 182 -154h-644q-48 0 -76 -26q-28 -27 -28 -75q0 -47 28 -74q29 -27 76 -27h770v-154h-770z" />
</svg>