<svg xmlns="http://www.w3.org/2000/svg" xmlns:xlink="http://www.w3.org/1999/xlink" version="1.1" viewBox="-10 0 2068 2048">
   <path fill="currentColor"
d="M0 1024q0 238 118 438q117 203 320 320q204 120 440 120q174 0 336 -66t286 -186l-146 -146q-92 96 -216 148q-121 52 -260 52q-219 0 -392 -118q-160 -113 -238 -302q-77 -185 -46 -380q37 -210 192 -364q156 -157 366 -188q193 -37 378 40q188 79 298 238
q124 176 124 394h-294l390 388h8l384 -388h-292q0 -238 -120 -440q-118 -201 -320 -320q-200 -118 -437.5 -118t-440.5 118t-320 320q-118 202 -118 440z" />
</svg>