<svg xmlns="http://www.w3.org/2000/svg" xmlns:xlink="http://www.w3.org/1999/xlink" version="1.1" viewBox="-10 0 2068 2048">
   <path fill="currentColor"
d="M1024 0q200 0 392 77q188 76 333.5 221t220.5 334q78 192 78 392t-78 392q-75 189 -220.5 334t-333.5 221q-192 77 -392 77t-392 -77q-188 -76 -333.5 -221t-220.5 -334q-78 -192 -78 -392t78 -392q75 -189 220.5 -334t333.5 -221q192 -77 392 -77zM1024 202
q-223 0 -411.5 110t-300.5 301q-110 191 -110 411t110 411q111 190 300 300q191 111 411.5 111t410.5 -111q190 -110 300 -300q112 -191 112 -411t-112 -411q-111 -191 -299.5 -301t-410.5 -110zM1024 870q62 0 108 46t46 108t-46 108t-108 46t-108 -46t-46 -108t46 -108
t108 -46zM562 870q62 0 108 46t46 108t-46 108t-108 46t-108 -46t-46 -108t46 -108t108 -46zM1484 870q64 0 110 46q44 45 44 108t-44 108q-46 46 -110 46q-62 0 -108 -46q-44 -45 -44 -108t44 -108q46 -46 108 -46z" />
</svg>