<svg xmlns="http://www.w3.org/2000/svg" xmlns:xlink="http://www.w3.org/1999/xlink" version="1.1" viewBox="-10 0 2068 2048">
   <path fill="currentColor"
d="M852 340q184 0 342 92t250 250t92 342t-92 342t-250 250t-342 92q-183 0 -340 -92q-156 -91 -248 -250q-92 -158 -92 -342t92 -342q92 -159 248 -250q157 -92 340 -92zM852 172q-228 0 -424 114q-197 114 -312 310q-116 197 -116 428t116 428q115 196 312 310
q196 114 426 114t426 -114q197 -114 312 -310q116 -197 116 -428t-116 -428q-115 -196 -312 -310q-196 -114 -428 -114zM852 940q-37 0 -60 22q-24 22 -24 62t24 62q23 22 62 22t62 -22q24 -22 24 -62t-24 -62q-23 -22 -64 -22zM744 792q48 -24 108 -24t112 24l60 -60
q-76 -48 -170 -48t-170 48zM1108 1024q0 60 -24 112l60 60q52 -79 52 -172t-52 -172l-60 60q24 52 24 112zM596 1024q0 -60 28 -112l-60 -60q-52 79 -52 172t52 172l60 -60q-28 -52 -28 -112zM964 1256q-52 24 -112 24t-108 -24l-60 60q77 48 170 48q94 0 170 -48zM1272 724
l-60 60q68 113 68 240t-68 240l60 60q92 -137 92 -300t-92 -300zM616 664q109 -68 238 -68t238 68l60 -60q-137 -92 -300 -92t-296 92zM1092 1384q-109 68 -238 68t-238 -68l-60 60q133 92 296 92t300 -92zM496 1264q-68 -113 -68 -240t68 -240l-60 -60q-96 136 -96 300
t96 300zM2048 596h-172v512h172v-424v-88zM2048 1280h-172v172h172v-172z" />
</svg>