<svg xmlns="http://www.w3.org/2000/svg" xmlns:xlink="http://www.w3.org/1999/xlink" version="1.1" viewBox="-10 0 2058 2048">
   <path fill="currentColor"
d="M1364 292q-40 0 -68 28t-28 68q0 41 28 69q28 27 69 27t71 -27t30 -69q0 -41 -30 -68q-32 -28 -72 -28zM1364 0q-197 0 -354 107q-158 108 -230 281q72 173 230 281t354 108t356.5 -108t229.5 -281q-69 -173 -230 -281q-159 -107 -356 -107zM1364 146q100 0 174 71
q74 70 74 171q0 102 -73 172t-174 70t-171 -70q-72 -71 -72 -172q0 -100 71 -171t171 -71zM98 0v1170h294v878l680 -1171h-388l110 -247q-104 -113 -160 -242q51 -125 142 -224q89 -99 210 -164h-888z" />
</svg>