<svg xmlns="http://www.w3.org/2000/svg" xmlns:xlink="http://www.w3.org/1999/xlink" version="1.1" viewBox="-10 0 2068 2048">
   <path fill="currentColor"
d="M1822 0h-1596q-92 0 -159 67t-67 159v1596q0 92 67 159t159 67h1596q90 0 158 -67q68 -68 68 -159v-1596q0 -91 -68 -159q-68 -67 -158 -67zM1846 1125l-356 356q-58 57 -130 57h-672q-74 0 -130 -57l-356 -356q-38 -38 -38 -101t38 -101l356 -356q56 -57 130 -57h672
q72 0 130 57l356 356q38 38 38 101t-38 101zM870 1231q0 -67 46 -111q44 -43 107.5 -43t108.5 43q46 44 46 108q0 65 -46 111t-108 46t-108 -46t-46 -108zM1384 1024q0 -64 44 -108q44 -46 108 -46t110 46t46 108t-46 108t-110 46t-108 -46q-44 -44 -44 -108zM356 1024
q0 -62 46 -108t110 -46q63 0 108 46q44 46 44 108t-44 108q-45 46 -108 46q-64 0 -110 -46t-46 -108z" />
</svg>