<svg xmlns="http://www.w3.org/2000/svg" xmlns:xlink="http://www.w3.org/1999/xlink" version="1.1" viewBox="-10 0 2068 2048">
   <path fill="currentColor"
d="M562 286q43 0 62 10l246 418l-380 472q-143 -168 -206 -284q-82 -137 -82 -260q0 -154 104 -255t256 -101zM562 80q-160 0 -286 74q-127 74 -202 204q-74 129 -74 284q0 189 110 374q96 168 304 376q149 153 466 432l144 130l-308 -716l408 -514l-364 -616
q-98 -28 -198 -28zM1484 286q153 0 257.5 101t104.5 255q0 186 -188 414q-135 172 -490 490l-34 -236l496 -544l-236 -460q27 -20 90 -20zM1484 80q-94 0 -194 36q-99 36 -176 98l270 524l-462 510l102 720l144 -134q325 -297 466 -438q206 -211 302 -374q112 -188 112 -370
q0 -160 -76 -292q-75 -132 -202 -206q-125 -74 -286 -74z" />
</svg>