<svg xmlns="http://www.w3.org/2000/svg" xmlns:xlink="http://www.w3.org/1999/xlink" version="1.1" viewBox="-10 0 2058 2048">
   <path fill="currentColor"
d="M923 0q-42 0 -74 29q-31 28 -31 72v615q0 20 16 36q17 17 36 17h154q20 0 36 15q17 15 17 36t-17 36q-15 14 -36 14h-154q-57 0 -105 -48t-48 -106v-394q-133 32 -221 142q-87 108 -87 252v154q105 0 180 75t75 180q0 107 -75 183q-75 77 -180 77v153q0 138 70 258
q68 116 187 185q116 67 257 67h202q141 0 257 -67q121 -70 188 -185q69 -118 69 -258v-153q-105 0 -180 -77q-74 -75 -74 -183q0 -106 74 -180q75 -75 180 -75v-154q0 -172 -120 -291q-118 -117 -288 -117v-207q0 -44 -31 -72q-32 -29 -75 -29h-202zM894 1485h260l-53 361
h-154z" />
</svg>