<svg xmlns="http://www.w3.org/2000/svg" xmlns:xlink="http://www.w3.org/1999/xlink" version="1.1" viewBox="-10 0 2068 2048">
   <path fill="currentColor"
d="M0 332l130 -130l1716 1716l-130 130l-554 -548q-62 134 -180 223q-117 89 -266 113v212h-206v-212q-218 -39 -364 -209t-146 -396h202q0 167 120 288q120 120 294 120q134 0 244 -84q110 -83 150 -214l-192 -187v77q0 81 -62 142q-60 60 -144 60t-144 -60t-60 -142v-486z
M1990 760l-438 432l106 -375h-428q-86 0 -146 -60t-60 -142v-413q0 -82 60 -142t146 -60h616q82 0 142 60t60 142v413q0 87 -58 145z" />
</svg>