<svg xmlns="http://www.w3.org/2000/svg" xmlns:xlink="http://www.w3.org/1999/xlink" version="1.1" viewBox="-10 0 2068 2048">
   <path fill="currentColor"
d="M783 140q-161 0 -276 115t-115 278q0 164 115 279t279 115q163 0 278 -115t115 -279q0 -163 -115 -278t-281 -115zM1474 927q-24 0 -28 18l-18 134q-42 16 -83 46l-125 -51q-23 0 -27 14l-97 170q-14 19 5 33l101 78v48v49l-101 83q-19 14 -5 32l97 170q4 9 27 9l125 -46
q61 36 83 46l18 129q4 19 28 19h193q23 0 23 -19l23 -129q25 -12 78 -46l124 46q24 0 33 -9l96 -170q9 -19 -4 -32l-106 -83l4 -46q0 -31 -4 -51l106 -78q13 -14 4 -33l-101 -170q-5 -14 -28 -14l-124 51q-46 -37 -83 -46l-18 -134q0 -18 -23 -18h-193zM783 1125
q-210 0 -391 53q-177 52 -285 143q-106 90 -106 195v198h948q-65 -144 -65 -294q0 -152 60 -286q-78 -9 -161 -9zM1570 1272q60 0 104 42q43 42 43 103q0 63 -43 106q-44 44 -104 44q-59 0 -103 -44t-44 -106q0 -61 44 -103q43 -42 103 -42z" />
</svg>