<svg xmlns="http://www.w3.org/2000/svg" xmlns:xlink="http://www.w3.org/1999/xlink" version="1.1" viewBox="-10 0 2068 2048">
   <path fill="currentColor"
d="M0 130l130 -130l1918 1918l-130 130l-294 -293l-292 293l-308 -308l-308 308l-308 -308l-306 308v-1125q0 -290 162 -529zM1024 0q249 0 460 123q215 125 338 336q124 215 124 464v635l-542 -548q56 -19 96 -73q38 -51 38 -120q0 -82 -60 -142t-146 -60q-68 0 -118 36
q-51 36 -76 94l-604 -606q219 -139 490 -139zM510 817q0 87 60 147t142 60q81 0 134 -48l-288 -289q-48 57 -48 130z" />
</svg>