<svg xmlns="http://www.w3.org/2000/svg" xmlns:xlink="http://www.w3.org/1999/xlink" version="1.1" viewBox="-10 0 2068 2048">
   <path fill="currentColor"
d="M1024 0q-278 0 -514 137q-235 136 -372 373q-138 236 -138 514t138 514q137 237 372 373q236 137 513.5 137t514.5 -137q236 -137 372 -373q138 -236 138 -514t-138 -514q-136 -236 -372 -373q-237 -137 -514 -137zM696 514q78 0 131 56t53 129q0 75 -53 128t-127 53
t-130 -53q-56 -52 -56 -128q0 -74 56 -129q56 -56 126 -56zM1356 1538q-78 0 -130 -55q-54 -56 -54 -130t53 -127t127 -53t130 53q56 52 56 127t-55 130t-127 55zM664 1538l-154 -153l874 -875l154 153z" />
</svg>