<svg xmlns="http://www.w3.org/2000/svg" xmlns:xlink="http://www.w3.org/1999/xlink" version="1.1" viewBox="-10 0 2068 2048">
   <path fill="currentColor"
d="M2048 1552l-474 474l-336 -332l144 -142l192 188l330 -332zM1762 980q98 0 170 68q70 69 70 168q0 21 -4 42.5t-12 43.5q-154 -136 -368 -136q-150 0 -284 80q-132 78 -210 209.5t-78 284.5v52q-22 -75 -88 -120q-68 -44 -148 -44q-106 0 -184 74q-76 73 -76 180v144
h-362q-76 0 -132 -56t-56 -132v-362h144q107 0 180 -76q74 -78 74 -184t-74 -184q-73 -76 -180 -76h-144v-362q0 -76 56 -132t132 -56h384v-142q0 -97 70 -170q69 -72 168 -72t168 72q68 72 68 170v142h384q76 0 132 56t56 132v386h144z" />
</svg>