<svg xmlns="http://www.w3.org/2000/svg" xmlns:xlink="http://www.w3.org/1999/xlink" version="1.1" viewBox="-10 0 2068 2048">
   <path fill="currentColor"
d="M1846 1024q0 -220 -112 -411q-111 -191 -299.5 -301t-411 -110t-411 110t-300.5 301q-110 191 -110 411t110 411q111 190 300 300q191 111 411.5 111t410.5 -111q190 -110 300 -300q112 -191 112 -411zM2048 1024q0 200 -78 392q-75 189 -220.5 334t-333.5 221
q-192 77 -392 77t-392 -77q-188 -76 -333.5 -221t-220.5 -334q-78 -192 -78 -392t78 -392q75 -189 220.5 -334t333.5 -221q192 -77 392 -77t392 77q188 76 333.5 221t220.5 334q78 192 78 392zM1384 615q56 0 106 46q48 45 48 106q0 60 -48 108t-108 48q-62 0 -107 -48
t-45 -108q0 -61 46 -106q46 -46 108 -46zM818 769q0 57 -46 106q-46 48 -106 48t-108 -48t-48 -108q0 -61 48 -106q49 -46 108 -46q60 0 106 46t46 108zM1024 1231q137 0 248 50q112 51 180 132l-144 149q-33 -56 -112 -93q-76 -36 -172.5 -36t-173.5 36t-110 93l-144 -149
q66 -80 180 -132q111 -50 248 -50z" />
</svg>