<svg xmlns="http://www.w3.org/2000/svg" xmlns:xlink="http://www.w3.org/1999/xlink" version="1.1" viewBox="-10 0 2068 2048">
   <path fill="currentColor"
d="M1538 923h308q82 0 142 60t60 147v307q0 82 -60 142t-142 60h-308q-86 0 -146 -60t-60 -142v-307q0 -87 60 -147t146 -60zM1538 1130v307h308v-307h-308zM0 409h510q86 0 146 60t60 146v207q0 82 -60 142t-146 60q86 0 146 60t60 147v206q0 82 -60 142t-146 60h-510
v-1230zM202 615v308h308v-308h-308zM202 1437h308v-307h-308v307zM922 1024h202v615h-202v-615zM922 615h202v207h-202v-207z" />
</svg>