<svg xmlns="http://www.w3.org/2000/svg" xmlns:xlink="http://www.w3.org/1999/xlink" version="1.1" viewBox="-10 0 2068 2048">
   <path fill="currentColor"
d="M1846 666q-44 0 -75 -31t-31 -72t31 -72t75 -31v-102h-1644v102q44 0 75 31t31 72t-31 72t-75 31h-202v716h202q44 0 75 31t31 72t-31 72t-75 31v102h1644v-102q-44 0 -75 -31t-31 -72t31 -72t75 -31h202v-716h-202zM1846 1074h-106v102h-202v-102h-370q-16 44 -56 72
q-41 30 -88.5 30t-89.5 -30q-39 -28 -54 -72h-370v102h-202v-102h-106v-100h106v-106h202v106h370q15 -50 54 -78q42 -28 89.5 -28t88.5 28q40 28 56 78h370v-106h202v106h106v100z" />
</svg>