<svg xmlns="http://www.w3.org/2000/svg" xmlns:xlink="http://www.w3.org/1999/xlink" version="1.1" viewBox="-10 0 2068 2048">
   <path fill="currentColor"
d="M2048 1925l-1924 -1925l-124 124l278 283v1376q0 78 57 135t141 57h1170q85 0 140 -64l138 137zM1060 1783q-159 0 -294 -80q-134 -78 -212 -215q-78 -135 -78 -290q0 -123 48 -231t130 -190l410 416l-278 279q114 114 274 114t274 -114l4 -4l142 137q-82 82 -190 130
t-230 48zM988 617q20 -4 72 -4q161 0 294 77q136 78 214 213t78 295q0 43 -6 73l202 197v-1248q0 -78 -57 -135t-139 -57h-1170q-33 0 -64 9zM864 220q42 0 70 29q30 30 30 69q0 38 -30 68t-68 30t-68 -30t-30 -68q0 -39 30 -69q28 -29 66 -29z" />
</svg>