<svg xmlns="http://www.w3.org/2000/svg" xmlns:xlink="http://www.w3.org/1999/xlink" version="1.1" viewBox="-10 0 2068 2048">
   <path fill="currentColor"
d="M0 1024q0 200 78 392q75 189 220.5 334t333.5 221q192 77 392 77t392 -77q188 -76 333.5 -221t220.5 -334q78 -192 78 -392t-78 -392q-75 -189 -220.5 -334t-333.5 -221q-192 -77 -392 -77t-392 77q-188 76 -333.5 221t-220.5 334q-78 192 -78 392zM332 1716
q-140 -139 -214 -317q-74 -176 -74 -375t74 -375q74 -178 213.5 -317t316.5 -214q179 -75 375.5 -75t374.5 75t317.5 214t214.5 317q74 176 74 375t-74 375q-75 178 -214.5 317t-317.5 214t-374.5 75t-375.5 -75q-177 -75 -316 -214zM442 769q-66 76 -110 164
q-34 68 -48 139q-10 48 -10 91l4 34l20 -38q28 -51 62 -101q48 -72 112 -135q86 -87 148 -87q24 0 38 15q14 14 14 34v475q0 58 -56 58q-24 0 -48 -9q87 125 292 192q103 34 182 38l150 -154h4l136 116q109 -62 200 -173q71 -80 122 -168l42 -73q-135 144 -220 140
q-39 0 -54 -19l-4 -308q0 -293 4 -293q27 -44 106 -149l72 -92q-110 24 -212 77q-76 43 -134 92l-42 48q-30 -20 -82 -29h-44q30 20 52 57q24 39 24 77v510l-52 34q-55 38 -100 38t-72 -38l-16 -20v-629q-14 15 -35 12t-33 -27t-12 -74q0 -51 32 -99q26 -36 64 -67l32 -24
q-137 40 -250 110q-130 88 -278 255z" />
</svg>