<svg xmlns="http://www.w3.org/2000/svg" xmlns:xlink="http://www.w3.org/1999/xlink" version="1.1" viewBox="-10 0 2068 2048">
   <path fill="currentColor"
d="M682 98q124 0 208 84q84 86 84 208v586q0 117 -84 206q-84 86 -208 86t-208 -86.5t-84 -205.5v-586q0 -124 84 -208t208 -84zM1362 976q0 168 -75 315t-209 241q-137 94 -300 120v298h-192v-298q-162 -26 -300 -120q-134 -94 -210 -240q-76 -149 -76 -316h192
q0 130 68 244q65 112 178 176q111 64 244 64t244 -64q113 -64 178 -176q66 -112 66 -244h192zM1802 1314v146h-146v-146h146zM1610 830h-146v-50q0 -124 84 -208q84 -86 206 -86q119 0 208 86q86 83 86 208q0 68 -34 132q-36 66 -94 100l-28 18q-90 65 -90 170v18h-146v-18
q0 -86 40 -164q42 -80 114 -124l28 -18q64 -41 64 -114q0 -60 -44 -104t-104 -44q-63 0 -103.5 44.5t-40.5 103.5v50z" />
</svg>