<svg xmlns="http://www.w3.org/2000/svg" xmlns:xlink="http://www.w3.org/1999/xlink" version="1.1" viewBox="-10 0 2068 2048">
   <path fill="currentColor"
d="M1706 341q178 173 244 400q66 229 24 459q74 126 74 280t-78 283q-77 130 -208 208q-128 77 -282 77q-152 0 -280 -75q-229 42 -458.5 -24t-401.5 -240q-176 -177 -240 -402q-66 -229 -24 -459q-76 -128 -76 -280q0 -154 78 -283q77 -130 208 -208q128 -77 282 -77
q153 0 280 75q229 -42 458 24t400 242zM1030 1611q234 0 362 -102t128 -266q0 -119 -64 -198q-79 -100 -250 -138l-224 -48q-83 -20 -124 -43q-64 -31 -64 -91q0 -59 52 -96q50 -37 146 -37q97 0 160 37q35 19 86 70q26 37 48 48q27 21 58 21q54 0 88 -29q34 -30 34 -78
q0 -113 -146 -192q-147 -80 -312 -80q-191 0 -320 80q-154 96 -154 278q0 112 54 181q68 96 238 133l304 80q118 27 118 123q0 59 -58 107q-59 48 -164 48q-101 0 -168 -43q-42 -27 -90 -91q-32 -43 -48 -53q-31 -27 -76 -27q-46 0 -78 32t-32 80q0 70 54 136q57 70 158 110
q117 48 284 48z" />
</svg>