<svg xmlns="http://www.w3.org/2000/svg" xmlns:xlink="http://www.w3.org/1999/xlink" version="1.1" viewBox="-10 0 2058 2048">
   <path fill="currentColor"
d="M1332 490q143 81 225 226q82 146 82 308q0 287 -130 500q-105 183 -302 303q-161 102 -365 158q-145 38 -303 58l-130 5q191 -144 341 -337l10 -14q19 -38 7 -79t-50 -60q-145 -81 -226 -226q-82 -146 -82 -308q0 -287 130 -500q104 -182 303 -303q164 -104 365 -159
q138 -36 302 -57l130 -5q-193 145 -341 336l-10 15q-19 38 -7 79q12 40 51 60zM1024 1231q87 0 147 -60t60 -147t-60 -147t-147 -60q-86 0 -146 60t-60 147t60 147t146 60z" />
</svg>