<svg xmlns="http://www.w3.org/2000/svg" xmlns:xlink="http://www.w3.org/1999/xlink" version="1.1" viewBox="-10 0 2068 2048">
   <path fill="currentColor"
d="M1750 725v-428h-428l-300 -297l-298 297h-428v428l-296 297l296 301v428h428l298 297l300 -297h428v-428l298 -301zM734 572q67 0 114 49q46 50 46 115t-47 112t-111 47q-67 0 -116 -47q-48 -46 -48 -112t48 -115t114 -49zM1314 1476q-68 0 -114 -49q-48 -50 -48 -115
t47 -112t113 -47t114 47t48 112.5t-48 114.5q-47 49 -112 49zM704 1476l-136 -136l772 -772l134 136z" />
</svg>