<svg xmlns="http://www.w3.org/2000/svg" xmlns:xlink="http://www.w3.org/1999/xlink" version="1.1" viewBox="-10 0 2068 2048">
   <path fill="currentColor"
d="M1570 1197q0 101 -74 171q-75 70 -180 70q-84 0 -174 -62q-51 -42 -144 -140l-30 -29l-4 -10q-69 -73 -112 -101q-67 -48 -120 -48q-68 0 -116 43t-48 106t48 109q47 45 116 45q54 0 92 -28q23 -8 54 -44l8 -9q16 -15 35 -15t31 12t12 29q0 16 -10 31l-10 10
q-38 43 -72 63q-61 38 -140 38q-106 0 -178 -70t-72 -171t74 -171q75 -70 176 -70q86 0 174 68q56 42 150 140l24 24l4 9q72 76 116 106q62 48 116 48q68 0 114 -45q50 -47 50 -109t-50 -106q-47 -43 -114 -43q-49 0 -92 24q-26 16 -54 48l-8 5q-9 14 -30 17q-19 3 -34 -12
q-14 -14 -14 -32q0 -17 14 -31l6 -5q39 -44 76 -67q59 -39 136 -39q105 0 180 70q74 70 74 171zM2048 1318q0 172 -126 299q-123 125 -298 125h-1190q-178 0 -306 -128t-128 -306q0 -108 50 -202q51 -95 138 -154q-4 -32 -4 -63q0 -126 90 -217q92 -92 222 -92q76 0 146 34
q86 -143 230 -226q144 -82 314 -82q168 0 312 84q146 85 230 227.5t84 309.5v10q108 51 172 157q64 103 64 224zM1960 1318q0 -108 -58 -191q-57 -83 -154 -122q-28 -15 -28 -44l4 -34q0 -144 -72 -267t-195 -195t-275 -72t-284 84t-200 219q-4 19 -26 27q-20 7 -40 -8
q-59 -48 -136 -48q-90 0 -158 65q-68 64 -68 157q0 39 12 70q12 30 -22 50q-75 47 -122 126q-46 76 -46 173q0 139 102 241q101 102 240 106h1184q144 0 243 -99t99 -238z" />
</svg>