<svg xmlns="http://www.w3.org/2000/svg" xmlns:xlink="http://www.w3.org/1999/xlink" version="1.1" viewBox="-10 0 2068 2048">
   <path fill="currentColor"
d="M1842 408h-1842v-408h1842v408zM628 1713q24 66 68 129h-596v-1329h1640v566q-148 -57 -306 -57q-270 0 -486 146q-220 148 -320 391l-28 77zM614 1022h614v-154q0 -19 -14 -33q-16 -15 -40 -15h-508q-22 0 -37 15t-15 33v154zM1434 1535q-42 0 -74 29q-32 28 -32 72
q0 43 31 74t75 31q43 0 72 -31q28 -32 28 -74q0 -43 -29 -72t-71 -29zM2048 1636q-76 180 -242 297q-165 115 -372 115t-374.5 -115t-239.5 -297q73 -183 240 -295q168 -113 374 -113t372 113q165 113 242 295zM1688 1636q0 -106 -74 -180t-180 -74q-107 0 -182 74
q-78 75 -78 180t77 182t183 77q104 0 180 -77q74 -75 74 -182z" />
</svg>