<svg xmlns="http://www.w3.org/2000/svg" xmlns:xlink="http://www.w3.org/1999/xlink" version="1.1" viewBox="-10 0 2068 2048">
   <path fill="currentColor"
d="M172 1024q0 -176 92 -322q92 -147 248 -214v-188q-227 84 -370 282q-142 197 -142 442t142 442q143 198 370 282v-188q-156 -67 -248 -214q-92 -146 -92 -322zM1280 256q-207 0 -386 102q-178 102 -280 280t-102 386t102 386t280 280q179 102 386 102q208 0 386 -102
t280 -280t102 -386t-102 -386t-280 -280t-386 -102zM1708 1108h-344v344h-168v-344h-344v-168h344v-344h168v344h344v168z" />
</svg>