<svg xmlns="http://www.w3.org/2000/svg" xmlns:xlink="http://www.w3.org/1999/xlink" version="1.1" viewBox="-10 0 2068 2048">
   <path fill="currentColor"
d="M1432 358q-177 0 -322 102h-908q-82 0 -142 60t-60 146v616q0 86 60 146t142 60h106v100q0 44 29 73t71 29h208q42 0 71 -29t29 -73v-100h616v100q0 44 28 72q28 30 72 30h206q44 0 73 -29t29 -73v-100h106q82 0 142 -60t60 -146v-616q0 -86 -60 -146t-142 -60h-88
q-149 -102 -326 -102zM1432 512q150 0 254 106q106 107 106 254.5t-106 251.5q-105 104 -254 104q-148 0 -252 -104q-104 -102 -104 -251.5t103.5 -255t252.5 -105.5zM202 666h414v100h-414v-100zM1432 666q-82 0 -142 60t-60 144t60 144t144 60t144 -60t60 -144t-60 -144
t-146 -60zM202 872h414v102h-414v-102zM202 1074h414v106h-414v-106z" />
</svg>