<svg xmlns="http://www.w3.org/2000/svg" xmlns:xlink="http://www.w3.org/1999/xlink" version="1.1" viewBox="-10 0 2068 2048">
   <path fill="currentColor"
d="M1362 50v192h-192v-192h192zM974 50h-196v388h196v-388zM778 1220h-192v192h192v-192zM1362 242v196h-192v198h390v-394h-198zM586 50h-196v388h196v-388zM1756 50h-196v192h196v-192zM1148 1998h-1148v-1948h192v388h198v586h-198v196h198v192h196v196h192v198h196v-198
h-196v-196h196v-388h-388v-388h388v192h196v196h192v-196h198v196h388v174q-137 -78 -292 -78q-174 0 -320 100h-166v164q-100 147 -100 320q0 159 78 294zM390 1608h-198v198h198v-198zM1948 636h-388v192h388v-192zM1948 438v-196h-192v196h192zM1266 1608v198h782v-198
h-782z" />
</svg>