<svg xmlns="http://www.w3.org/2000/svg" xmlns:xlink="http://www.w3.org/1999/xlink" version="1.1" viewBox="-10 0 2058 2048">
   <path fill="currentColor"
d="M1639 409v-207h207v-202h-1437q-86 0 -146 60q-61 61 -61 142v1644q0 81 61 142q60 60 146 60h1437v-202h-413q95 -71 151 -180q55 -107 55 -233v-510h-1023v510q0 126 55 233q56 109 151 180h-413v-1644h207v207q0 43 29 72t72 29h821q38 0 70 -29q31 -28 31 -72z
M1125 615q43 0 75 29q31 28 31 72t-31 72q-32 29 -73 29q-40 0 -72 -29q-31 -28 -31 -72t31 -72q32 -29 70 -29z" />
</svg>