<svg xmlns="http://www.w3.org/2000/svg" xmlns:xlink="http://www.w3.org/1999/xlink" version="1.1" viewBox="-10 0 2058 2048">
   <path fill="currentColor"
d="M974 0q-252 0 -463 86q-208 85 -334 235q-123 147 -123 326q0 197 156 359q-156 202 -156 451v379q0 86 63 149t154 63h1400q91 0 154 -63t63 -149v-379q0 -204 -106 -380l212 -212l-323 -324l-222 223q-218 -117 -475 -117q-292 0 -536 152q-61 -72 -61 -152
q0 -96 81 -177t217 -126q137 -45 299 -45q236 0 409 96l217 -218q-127 -86 -288 -131q-166 -46 -338 -46zM974 865q43 0 106 10q-252 36 -422 233t-170 455v273h-217v-273q0 -187 93 -349q93 -163 256 -256q162 -93 354 -93z" />
</svg>