<svg xmlns="http://www.w3.org/2000/svg" xmlns:xlink="http://www.w3.org/1999/xlink" version="1.1" viewBox="-10 0 2068 2048">
   <path fill="currentColor"
d="M2048 1024q0 -278 -138 -514q-136 -236 -372 -373q-237 -137 -514 -137q-176 0 -346 58l72 197q136 -53 274 -53q222 0 410.5 110t299.5 301q112 191 112 411t-112 411q-110 190 -300 300q-190 111 -410.5 111t-411.5 -111q-189 -110 -300 -300q-110 -191 -110 -411
q0 -143 52 -279l-196 -67q-58 168 -58 346q0 278 138 514q137 237 372 373q236 137 513.5 137t514.5 -137q236 -137 372 -373q138 -236 138 -514zM356 510q-62 0 -108 -46t-46 -108t46 -108t108 -46t108 46t46 108t-46 108t-108 46zM716 716h206v616h-206v-616zM1124 716
h208v616h-208v-616z" />
</svg>