<svg xmlns="http://www.w3.org/2000/svg" xmlns:xlink="http://www.w3.org/1999/xlink" version="1.1" viewBox="-10 0 2068 2048">
   <path fill="currentColor"
d="M1846 202h-1644q-82 0 -142 60t-60 147v1230q0 87 60 147t142 60h1644q82 0 142 -60t60 -147v-1230q0 -87 -60 -147t-142 -60zM592 1457l-150 149q-114 -119 -178 -272q-62 -152 -62 -310t62 -310q64 -153 178 -272l144 144q-86 91 -132 205q-46 115 -46 233t46 233
q46 113 138 200zM1024 1433q-168 0 -288 -121q-120 -120 -120 -288t120 -288q120 -121 287 -121t288 121t121 288t-121 288t-287 121zM1606 1606l-146 -145q89 -93 134 -204q44 -113 44 -233t-45 -233t-137 -200l150 -149q112 117 176 272q64 152 64 310t-64 310
q-64 155 -176 272zM1024 817q-86 0 -146 60t-60 147t60 147t146 60t146 -60t60 -147t-60 -147t-146 -60z" />
</svg>