<svg xmlns="http://www.w3.org/2000/svg" xmlns:xlink="http://www.w3.org/1999/xlink" version="1.1" viewBox="-10 0 2058 2048">
   <path fill="currentColor"
d="M928 392h-291l387 -392l388 392h-292v429q-107 70 -192 164v-593zM1995 976l-387 -392v292q-175 -5 -324 73q-151 78 -246 217q-97 140 -110 312q-113 40 -166 151q-53 110 -14 223q39 114 149 167q108 52 223 11q113 -40 166 -150t12 -224q-18 -64 -66 -109
q-51 -48 -112 -69q22 -172 137 -278q83 -79 210 -110q76 -22 136 -22v292zM892 1031q-202 -155 -451 -155v-292l-388 392l388 388v-292q204 4 355 137q36 -95 96 -178z" />
</svg>