<svg xmlns="http://www.w3.org/2000/svg" xmlns:xlink="http://www.w3.org/1999/xlink" version="1.1" viewBox="-10 0 2068 2048">
   <path fill="currentColor"
d="M1740 615q42 0 74 29q32 28 32 72t-32 72q-32 29 -75 29t-72 -29t-29 -72t29 -72t73 -29zM0 0v923q0 226 150 399q150 174 374 207q48 231 231 375t423 144q181 0 334 -89q151 -89 242 -243q92 -154 92 -331v-380q89 -32 146 -113q56 -80 56 -176q0 -129 -89 -218
t-217 -89q-126 0 -218 89q-92 88 -92 218q0 96 58 176q57 80 148 113v370q0 193 -134 327t-326 134q-156 0 -274 -86q-120 -87 -164 -221q211 -48 350 -219q140 -172 140 -387v-923h-412v308h206v615q0 168 -120 288q-122 121 -292 121q-168 0 -289 -121t-121 -288v-615h206
v-308h-408z" />
</svg>