<svg xmlns="http://www.w3.org/2000/svg" xmlns:xlink="http://www.w3.org/1999/xlink" version="1.1" viewBox="-10 0 2068 2048">
   <path fill="currentColor"
d="M1482 375q-20 -46 -54 -70q-39 -26 -76 -26h-1024q-48 0 -84 26q-34 25 -48 70l-196 558v741q0 34 32 65q30 30 64 30h92q35 0 64 -30q28 -29 28 -65v-92h400q-26 -84 -26 -187q0 -161 70 -310q64 -137 178 -248h-714l140 -418h1024l74 235q85 0 156 26zM328 1024
q56 0 98 42q40 41 40 98t-41 98t-98 41t-98 -41t-41 -98t42 -98q42 -42 98 -42zM2048 1491h-188v183h-186v-183h-184v-188h184v-187h186v187h188v188zM1256 1395q52 0 96 -63q42 -62 42 -120q0 -79 -54 -133q-54 -55 -128 -55h-278v188h278v91h-188v188h188v91h-278v187h278
q74 0 128 -54t54 -133q0 -62 -42 -124q-44 -63 -96 -63z" />
</svg>