<svg xmlns="http://www.w3.org/2000/svg" xmlns:xlink="http://www.w3.org/1999/xlink" version="1.1" viewBox="-10 0 2058 2048">
   <path fill="currentColor"
d="M1257 188h-558v-188h558v188zM887 1212h182v-558h-182v558zM1074 1761q-39 8 -96 8q-178 0 -327 -87q-148 -87 -235 -237t-87 -327t87 -327t235 -237q149 -87 327 -87q218 0 390 130q171 130 233 336h191q-43 -187 -161 -336l131 -135q-67 -75 -131 -130l-130 135
q-113 -90 -244 -138q-136 -50 -279 -50q-226 0 -418 114q-194 115 -305 305q-113 193 -113 418q0 226 113 420t305 305q194 112 418 112q47 0 113 -9q-22 -65 -22 -131zM1583 1116v484q-43 -18 -95 -18q-96 0 -164 68q-67 67 -67 163q0 98 67 166q68 69 164 69t165 -69
q70 -70 70 -166v-510h183v-187h-323z" />
</svg>