<svg xmlns="http://www.w3.org/2000/svg" xmlns:xlink="http://www.w3.org/1999/xlink" version="1.1" viewBox="-10 0 2068 2048">
   <path fill="currentColor"
d="M2048 1125v207h-376q68 -147 68 -308q0 -191 -96 -358q-96 -166 -262 -262q-167 -96 -358 -96h-1024v-207h1024q248 0 460 125q214 125 338 336q124 212 124 462q0 26 -4 101h106zM1024 1740q-192 0 -358 -96q-167 -96 -262 -262q-96 -166 -96 -358q0 -165 66 -308h-374
v207h106q-4 60 -4 101q0 250 124 461q124 212 336 337q213 125 462 125h1024v-207h-1024zM1524 1043q-70 54 -160 39q-60 -9 -134 -53v-5q178 -111 178 -274q0 -86 -38 -149l-24 -39q-33 -43 -50 -43q-18 0 -6 82q12 81 -46 154q-44 53 -114 96l-6 -5q0 -116 -48 -192
q-38 -62 -100 -101q-44 -24 -102 -39l-42 -4l-48 4q-54 5 -64 22q-4 8 14 20t58 26q131 53 136 264h-6q-101 -53 -192 -53q-71 0 -138 39q-44 24 -82 67l-24 34l-24 48q-20 43 -12 60q3 8 21.5 -1t52.5 -35q69 -54 158 -39q62 9 136 53v5q-96 57 -140 139q-38 61 -38 140
q0 50 18 101l20 43l24 43q32 39 50 39q17 0 8 -82q-25 -140 158 -250l4 5q5 212 150 293q71 43 144 43l48 -4q53 -5 62 -22q5 -8 -13 -20t-59 -26q-130 -53 -134 -264h4q102 53 192 53q73 0 140 -39q42 -23 82 -67l24 -34l24 -43q19 -48 12 -65q-4 -8 -22.5 1t-51.5 35z" />
</svg>