<svg xmlns="http://www.w3.org/2000/svg" xmlns:xlink="http://www.w3.org/1999/xlink" version="1.1" viewBox="-10 0 2068 2048">
   <path fill="currentColor"
d="M1024 0q200 0 392 77q188 76 333.5 221t220.5 334q78 192 78 392t-78 392q-75 189 -220.5 334t-333.5 221q-192 77 -392 77q-232 0 -436 -96q-202 -95 -348 -265q-144 -168 -206 -384l394 163q19 101 100 166q82 65 184 65q118 0 205 -84t87 -204v-15l346 -250h10
q158 0 271 -113t113 -271q0 -159 -113 -272t-271 -113q-157 0 -273.5 113t-116.5 272v4l-240 356h-18q-88 0 -164 48l-548 -226q20 -262 162 -476q143 -217 370 -341q228 -125 492 -125zM644 1553q58 29 120.5 2t89.5 -86q26 -60 0 -123q-27 -61 -86 -86l-134 -53
q82 -33 164 0q83 34 116 117q16 42 16 84.5t-16 84.5q-33 84 -118 117q-84 33 -164 0t-112 -105zM1620 760q0 105 -77 182t-183 77t-183 -77t-77 -182q0 -106 77 -183t183 -77t183 77t77 183zM1168 760q0 81 56 137q54 55 136 55t136 -55q56 -56 56 -137t-56 -137t-136 -56
t-136 56t-56 137z" />
</svg>