<svg xmlns="http://www.w3.org/2000/svg" xmlns:xlink="http://www.w3.org/1999/xlink" version="1.1" viewBox="-10 0 2066 2048">
   <path fill="currentColor"
d="M1122 0v207q220 28 396 161q177 133 260 334q84 202 60 423q-39 279 -238 478q-200 200 -478 233v207q278 -28 500 -190t334 -408q113 -247 84 -522q-19 -239 -147 -442q-128 -204 -329 -330q-202 -127 -442 -151zM920 5q-311 28 -548 226l145 149q181 -141 403 -169
v-206zM228 375q-197 237 -226 548h202q33 -225 168 -404zM2 1125q29 307 226 548l144 -144q-139 -182 -163 -404h-207zM517 1678l-145 139q242 198 548 231v-202q-220 -28 -403 -168zM1285 615l-264 265l-264 -265l-144 145l264 264l-264 264l144 145l264 -265l264 265
l145 -145l-265 -264l265 -264z" />
</svg>