<svg xmlns="http://www.w3.org/2000/svg" xmlns:xlink="http://www.w3.org/1999/xlink" version="1.1" viewBox="-10 0 2068 2048">
   <path fill="currentColor"
d="M454 2048h230v-229h-230v229zM912 2048h224v-229h-224v229zM1818 1365h-1134v-1136h1134v1136zM1818 0h-1134q-96 0 -163 67t-67 162v1136q0 96 67 163t163 67h1134q96 0 164 -67q66 -66 66 -163v-1136q0 -96 -66 -162q-68 -67 -164 -67zM1366 2048h228v-229h-228v229z
M0 683h230v-230h-230v230zM230 2048v-229h-230q0 95 67 162t163 67zM0 1595h230v-230h-230v230zM0 1136h230v-224h-230v224z" />
</svg>