<svg xmlns="http://www.w3.org/2000/svg" xmlns:xlink="http://www.w3.org/1999/xlink" version="1.1" viewBox="-10 0 2058 2048">
   <path fill="currentColor"
d="M1444 327l-91 -100l222 -227h196zM1858 2047q-148 0 -279 -69q-126 69 -276 69q-151 0 -281 -69q-126 69 -276 69q-151 0 -277 -69q-139 78 -370 69v-187q111 5 192 -13q103 -23 178 -78q121 87 277 87q154 0 276 -87q126 87 281 87t276 -87q75 55 179 78q80 18 191 13
v187h-91zM1801 1050q-108 -43 -248 -13q-93 20 -248 78l-87 35l-157 -174h-261v-322q171 13 318 -31q164 -48 270 -161l-131 -131q-61 66 -148 100q-88 35 -174 35h-279q-77 0 -135 55q-57 54 -52 133v135q-4 152 0 230q9 126 44 179l143 274q-83 57 -139 109q70 70 166 85
q97 15 187 -19q88 -33 152 -114q69 82 170 120q100 37 196 7q118 -81 222 -166q158 -137 218 -239q74 -136 -27 -205zM974 1272q-116 63 -152 87l-78 -187l230 -9l66 70zM656 0q-77 0 -132 55t-55 132q0 78 55 133t130 55q76 0 131 -55q54 -54 54 -133q0 -78 -54 -132
q-55 -55 -129 -55z" />
</svg>