<svg xmlns="http://www.w3.org/2000/svg" xmlns:xlink="http://www.w3.org/1999/xlink" version="1.1" viewBox="-10 0 2068 2048">
   <path fill="currentColor"
d="M1024 1024q62 0 108 46t46 108t-46 108t-108 46t-108 -46t-46 -108t46 -108t108 -46zM1024 0q200 0 392 77q188 76 333.5 221t220.5 334q78 192 78 392t-78 392q-75 189 -220.5 334t-333.5 221q-192 77 -392 77t-392 -77q-188 -76 -333.5 -221t-220.5 -334
q-78 -192 -78 -392t78 -392q75 -189 220.5 -334t333.5 -221q192 -77 392 -77zM1024 1433q117 0 212 50q96 51 96 123v178q206 -91 206 -226v-452q0 -121 -162 -205q-160 -84 -352.5 -84t-353.5 84q-160 84 -160 205v452q0 125 166 206q168 82 348 82l100 -10v-206l-100 9
q-162 0 -304 -62q20 -58 112 -101q90 -43 192 -43zM1024 202q-105 0 -180 77q-76 77 -76 182q0 106 76 181q74 74 180 74t180 -74q74 -75 74 -181q0 -105 -74 -182q-76 -77 -180 -77z" />
</svg>