<svg xmlns="http://www.w3.org/2000/svg" xmlns:xlink="http://www.w3.org/1999/xlink" version="1.1" viewBox="-10 0 2058 2048">
   <path fill="currentColor"
d="M1389 1125q-106 0 -182 67l-135 -77q15 -44 15 -91q0 -43 -10 -96l125 -77q76 72 187 72t193 -82q81 -81 81 -194q0 -114 -81 -195q-82 -82 -195 -82t-195 82q-81 81 -81 197q0 28 4 53l-129 77q-68 -72 -168 -96v-145q86 -28 139 -101t53 -163q0 -115 -80 -195
q-79 -79 -194 -79q-116 0 -195 79t-79 195q0 92 50 163q52 73 137 101v145q-113 28 -189 122q-75 93 -75 217q0 123 75 216q76 94 189 122v150q-86 28 -137 100q-50 71 -50 164q0 116 79 195t195 79q115 0 194 -79q80 -80 80 -195q0 -91 -53 -164q-52 -72 -139 -100v-150
q100 -24 168 -96l129 77q-4 25 -4 58q0 116 81 197q82 82 195 82t195 -82q81 -81 81 -197q0 -115 -81 -195q-80 -79 -193 -79zM1389 510q54 0 94 40q41 41 41 97q0 55 -41 96t-96 41t-96 -41t-41 -96q0 -56 41 -97q40 -40 98 -40zM596 274q0 -58 41 -99q40 -40 99 -40
q57 0 96 40q38 39 38 99t-38 99q-39 40 -96 40q-59 0 -99 -40q-41 -41 -41 -99zM870 1774q0 58 -38 96q-39 39 -96 39q-58 0 -99 -39t-41 -96q0 -58 41 -99q40 -40 99 -40q57 0 96 40q38 39 38 99zM736 1216q-83 0 -140 -57t-57 -140q0 -82 57 -139q58 -58 140 -58
q81 0 139 58t58 139q0 82 -58 140q-57 57 -139 57zM1389 1538q-57 0 -98 -41t-41 -98t41 -96t96 -39t96 39t41 96t-41 98t-94 41z" />
</svg>