<svg xmlns="http://www.w3.org/2000/svg" xmlns:xlink="http://www.w3.org/1999/xlink" version="1.1" viewBox="-10 0 2058 2048">
   <path fill="currentColor"
d="M1623 1252l201 201l-594 595h-201v-202zM1815 1083q18 0 36 18l123 124q19 14 19 36q0 23 -19 37l-95 100l-202 -201l101 -96q14 -18 37 -18zM1422 192v585l-197 -192l-196 192v-585h-389v1563h197v192h-393q-74 0 -133 -59t-59 -133v-101h-197v-192h197v-393h-197v-192
h197v-393h-197v-192h197v-100q0 -78 57 -135t135 -57h1170q78 0 137 59t59 133v585l-196 196v-781h-192zM252 292v192h192v-192h-192zM252 877v192h192v-192h-192zM252 1462v192h192v-192h-192z" />
</svg>