<svg xmlns="http://www.w3.org/2000/svg" xmlns:xlink="http://www.w3.org/1999/xlink" version="1.1" viewBox="-10 0 2058 2048">
   <path fill="currentColor"
d="M1936 1477v230h-800v-240q170 -27 296 -136q126 -110 182 -267q55 -158 26 -325q-31 -170 -138 -294q-109 -125 -268 -181q-160 -56 -324 -27q-168 30 -294 139q-125 109 -180 267q-56 157 -24 322q31 193 170 331q139 140 330 171v240h-800v-230h336
q-131 -116 -204 -280q-72 -162 -72 -344q0 -228 114 -426q113 -197 312 -312q198 -115 426 -115t426 115q199 115 312 312q116 200 116 426q0 182 -72 344q-73 163 -206 280h336zM1936 1819h-1824v229h1824v-229z" />
</svg>