<svg xmlns="http://www.w3.org/2000/svg" xmlns:xlink="http://www.w3.org/1999/xlink" version="1.1" viewBox="-10 0 2068 2048">
   <path fill="currentColor"
d="M0 0h408v202h-206v1644h206v202h-408v-2048zM1846 202h-208v-202h410v2048h-410v-202h208v-1644zM716 308h102v509h104v106h-306v-106h100v-408l-100 52v-105zM1332 1125h100v514h106v101h-308v-101h102v-408l-102 48v-101zM716 1125q87 0 146 91q60 92 60 219t-60 216
t-146 89t-146 -89t-60 -216t60 -219q59 -91 146 -91zM716 1231q-43 0 -72 60q-28 61 -28 144t28 144q29 60 72.5 60t71.5 -60q30 -61 30 -144t-30 -144q-28 -60 -72 -60zM1332 308q85 0 146 89q60 89 60 216t-60 219q-60 91 -146 91q-88 0 -148 -91q-60 -92 -60 -219
t60 -216q61 -89 148 -89zM1332 409q-44 0 -72 60q-30 61 -30 144t30 144q28 60 71.5 60t72.5 -60q28 -61 28 -144t-28 -144q-29 -60 -72 -60z" />
</svg>