<svg xmlns="http://www.w3.org/2000/svg" xmlns:xlink="http://www.w3.org/1999/xlink" version="1.1" viewBox="-10 0 2068 2048">
   <path fill="currentColor"
d="M2048 558v558h-188v-558h188zM1860 1491h188v-188h-188v188zM0 745v188h376q4 -35 8 -96q6 -75 8 -92h-392zM376 1116h-376v187h392q-2 -17 -8 -91q-4 -62 -8 -96zM458 506q5 -44 40 -105l16 -26h-514v183h440q6 -10 10 -26t8 -26zM0 1491v183h524q-61 -85 -84 -183h-440
zM838 353q-131 0 -210 209q-70 195 -70 462t70 462q79 209 210 209q196 0 382 -82q201 -82 322 -231q132 -158 132 -358q0 -199 -132 -357q-121 -149 -322 -231q-188 -83 -382 -83zM846 1508q-36 -36 -62 -152q-38 -144 -38 -332q0 -187 38 -331q26 -116 62 -152
q145 5 288 61q157 61 248 161q108 116 108 261q0 146 -108 262q-91 100 -248 161q-143 56 -288 61z" />
</svg>