<svg xmlns="http://www.w3.org/2000/svg" xmlns:xlink="http://www.w3.org/1999/xlink" version="1.1" viewBox="-10 0 2068 2048">
   <path fill="currentColor"
d="M105 240q-36 0 -67.5 24t-35.5 67q-5 42 19 76l453 580v620l383 384q29 29 74 29t74 -29t29 -74t-29 -74l-320 -324v-606l-497 -634q-30 -39 -83 -39zM2008 53q-32 -25 -64 -25h-1470q-35 0 -67 25q-33 25 -37 69q-5 43 20 78l506 640v541q-11 48 30 83l418 423
q34 30 76 30q40 0 76 -32q34 -32 30 -86v-959l501 -640q24 -35 20 -78q-5 -45 -39 -69zM1314 766v792l-211 -212v-575l-413 -531h1037z" />
</svg>