<svg xmlns="http://www.w3.org/2000/svg" xmlns:xlink="http://www.w3.org/1999/xlink" version="1.1" viewBox="-10 0 2068 2048">
   <path fill="currentColor"
d="M1924 2048l-558 -558q-311 293 -694 293q-49 0 -132 -32l-92 224l-188 -64l28 -59q124 -312 210 -467q140 -258 334 -429l-88 -87q-346 236 -488 644l-46 -50q-50 -64 -82 -133q-42 -100 -42 -182q0 -128 88 -279q100 -179 274 -297l-448 -448l124 -124l1924 1925z
M1550 613q-238 52 -422 146l466 466q208 -304 344 -731q69 -215 96 -370q-45 90 -292 155q-147 35 -532 91q-244 35 -406 64l270 270q163 -59 334 -82q87 -9 142 -9z" />
</svg>