<svg xmlns="http://www.w3.org/2000/svg" xmlns:xlink="http://www.w3.org/1999/xlink" version="1.1" viewBox="-10 0 2058 2048">
   <path fill="currentColor"
d="M1088 1151q-27 -86 -6 -183l6 -5l-6 -9q-22 -90 -4 -166q23 -65 88 -131l14 -9q22 -92 100 -153q66 -44 170 -44q6 -5 48 -30v-272q5 -62 -36 -105q-43 -44 -104 -44h-1198q-60 0 -104 44t-44 105v919q0 61 44 105t104 44h962q-20 -25 -34 -66zM200 377v-188l560 280
l560 -280v188l-560 280zM2028 832q-15 -36 -62 -70q-22 -13 -30 -22q-8 -8 -18 -35q-17 -56 -48 -79q-29 -22 -92 -22q-27 0 -38 -4q-17 -6 -44 -26q-45 -31 -82 -31q-36 0 -84 35l-32 22q-12 4 -44 4q-56 0 -86 20q-31 20 -44 68q-15 37 -22 46q-11 13 -30 28
q-54 35 -64 68q-11 33 6 85q14 29 14 44t-14 44q-17 52 -6 90q10 36 64 67q22 13 28 22q6 10 14 35q22 60 54 83q29 22 86 22q18 0 44 3q14 1 40 24q48 30 82 30q35 0 88 -35l32 -22h38q64 0 92 -26q31 -27 48 -79q10 -27 18 -35q6 -6 30 -26q48 -34 62 -68q13 -33 -10 -85
q-8 -27 -8 -44t8 -44q23 -53 10 -87zM1616 1252q-117 0 -198 -83q-82 -83 -82 -195t85 -197t197 -85q113 0 196 85q82 86 82 197q0 112 -80 195q-82 83 -200 83zM1756 963q0 57 -42 99q-40 41 -97 41t-99 -41q-42 -42 -42 -99q0 -56 42 -98t98 -42t98 42t42 98zM1740 1506
l-50 249l-52 293l-188 -179l-222 101l92 -530q54 26 130 26q52 32 92 49q16 8 74 8q61 13 124 -17zM2036 1729l-184 -66l36 -205l56 -27l10 -8z" />
</svg>