<svg xmlns="http://www.w3.org/2000/svg" xmlns:xlink="http://www.w3.org/1999/xlink" version="1.1" viewBox="-10 0 2068 2048">
   <path fill="currentColor"
d="M1840 875q-19 -69 -74 -113q-56 -46 -128 -46h-258q52 -92 52 -206q0 -168 -120 -289q-120 -120 -288 -120t-288 120t-120 289q0 114 52 206h-260q-70 0 -126 46q-56 45 -76 113l-182 735q-24 115 -24 130q0 87 60 147t142 60h1644q82 0 142 -60t60 -147q0 -15 -24 -130z
M1024 308q86 0 146 60t60 144t-60 144t-146 60t-146 -60t-60 -144t60 -144t146 -60zM1332 1125h-410v413h202v-307h208v509h-410q-86 0 -146 -60t-60 -142v-413q0 -82 60 -142t146 -60h410v202z" />
</svg>