<svg xmlns="http://www.w3.org/2000/svg" xmlns:xlink="http://www.w3.org/1999/xlink" version="1.1" viewBox="-10 0 2058 2048">
   <path fill="currentColor"
d="M1024 1582q-151 0 -281 -74q-128 -73 -202 -203q-75 -132 -75 -281q0 -140 66 -261l-135 -135q-118 185 -118 396q0 201 100 373q100 171 273 272q172 100 372 100v279l370 -374l-370 -371v279zM1024 279v-279l-370 375l370 370v-278q151 0 281 74q129 73 202 202
q74 130 74 281q0 142 -65 262l135 135q118 -185 118 -397q0 -200 -100 -372q-101 -172 -273 -273q-172 -100 -372 -100z" />
</svg>