<svg xmlns="http://www.w3.org/2000/svg" xmlns:xlink="http://www.w3.org/1999/xlink" version="1.1" viewBox="-10 0 2058 2048">
   <path fill="currentColor"
d="M1024 0q218 0 400 108q183 107 291.5 292t108.5 401v625q0 108 -76 188q-77 79 -190 79h-268v-713h354v-179q0 -169 -83 -311t-225 -227q-141 -84 -312 -84q-172 0 -312 84q-144 85 -226 227q-84 142 -84 311v179h354v713h-266q-113 0 -190 -79q-76 -80 -76 -188v-625
q0 -218 108 -401q108 -184 292 -292q182 -108 400 -108zM1290 2048v-179h180v179h-180zM936 2048v-179h176v179h-176zM578 2048v-179h178v179h-178z" />
</svg>