<svg xmlns="http://www.w3.org/2000/svg" xmlns:xlink="http://www.w3.org/1999/xlink" version="1.1" viewBox="-10 0 2068 2048">
   <path fill="currentColor"
d="M286 143h571v192h-571v-192zM1 522h477v192h-477v-192zM192 1664h477v192h-477v-192zM2020 1628l-218 -392q-40 -67 -120 -89l-255 -63q-5 -72 -35 -129l374 -625q49 -81 27 -167q-23 -88 -98 -132q-49 -31 -112 -31q-85 0 -147 58l-330 308q-58 54 -58 138v322
q-66 26 -115 80h-714q-94 0 -156 62t-62 152q0 77 44 134q45 58 116 76l428 125q24 4 49 4q53 0 98 -27l219 -129q40 41 93 58v495q-80 0 -136 56q-55 55 -55 136h570q0 -81 -55 -136q-56 -56 -132 -56v-406l437 437q63 63 154 63t154 -63q49 -54 60 -125q10 -72 -25 -134z
M643 1272l-433 -125q-18 -9 -18 -23q0 -13 9 -22t18 -9h638q0 33 4 45zM1142 1191q-36 0 -65 -29t-29 -67t29 -67t67 -29t67 29t29 67t-29 67t-69 29zM1240 821v-317l326 -307q13 -14 31 -5q9 10 11 18q2 10 -2 18l-357 598zM1851 1753q-12 6 -20 7q-12 2 -20 -7l-459 -464
l22 -22l263 67l218 388q9 14 -4 31z" />
</svg>