<svg xmlns="http://www.w3.org/2000/svg" xmlns:xlink="http://www.w3.org/1999/xlink" version="1.1" viewBox="-10 0 2058 2048">
   <path fill="currentColor"
d="M1096 0q230 0 428 116q196 116 312 312q116 197 116 428v670q0 85 -50 156l-522 -522v-112h380v-192q0 -177 -90 -332q-87 -154 -240 -243t-334 -89q-141 0 -264 53q-126 55 -218 152l-134 -138q121 -122 278 -190q160 -69 338 -69zM216 241l1686 1686l-120 121
l-236 -237h-166v-165l-570 -571v736h-286q-121 0 -202 -84q-84 -86 -84 -201v-670q0 -156 54 -298l-196 -197zM444 709q-14 79 -14 147v192h354z" />
</svg>