<svg xmlns="http://www.w3.org/2000/svg" xmlns:xlink="http://www.w3.org/1999/xlink" version="1.1" viewBox="-10 0 2068 2048">
   <path fill="currentColor"
d="M1324 964q160 0 272 112t112 272q0 112 -60 204l264 264l-120 120l-268 -264q-91 60 -200 60q-160 0 -272 -112t-112 -272t112 -272t272 -112zM1324 1136q-87 0 -152 62q-64 61 -64 150t64 150q65 62 152 62q88 0 150 -62t62 -150t-62 -150t-150 -62zM1652 624
q167 12 282 134q114 122 114 290q0 105 -46 194q-46 90 -126 150v-44q0 -151 -74 -278q-73 -124 -202 -202q-127 -76 -278 -76t-278 76q-129 78 -202 202q-74 127 -74 278q0 65 16 128h-272q-139 0 -258 -68q-118 -68 -186 -186q-68 -119 -68 -258q0 -128 60 -240
q59 -111 164 -184q103 -72 232 -84q79 -155 234 -250q154 -94 334 -94q232 0 408 146q177 146 220 366z" />
</svg>