<svg xmlns="http://www.w3.org/2000/svg" xmlns:xlink="http://www.w3.org/1999/xlink" version="1.1" viewBox="-10 0 2068 2048">
   <path fill="currentColor"
d="M1818 1819h-1588v-1590h1588v1590zM1818 0h-1588q-96 0 -163 67t-67 162v1590q0 95 67 162t163 67h1588q96 0 164 -67q66 -66 66 -162v-1590q0 -96 -66 -162q-68 -67 -164 -67zM454 683h266l32 -342h230l-38 342h230l36 -342h224l-32 342h192v229h-218l-22 224h240v229
h-266l-32 342h-230l38 -342h-230l-36 342h-224l32 -342h-192v-229h218l22 -224h-240v-229zM922 912l-20 224h224l20 -224h-224z" />
</svg>