<svg xmlns="http://www.w3.org/2000/svg" xmlns:xlink="http://www.w3.org/1999/xlink" version="1.1" viewBox="-10 0 2068 2048">
   <path fill="currentColor"
d="M1304 978l-240 -66q-48 -13 -78 0l-240 66v-92l214 -64q56 -18 130 0l214 64v92zM1790 420q-100 0 -174 70q-72 68 -82 170l-458 -130q-25 -10 -51.5 -10t-52.5 10l-458 130q-9 -102 -82 -170q-73 -70 -176 -70q-101 0 -178.5 74t-77.5 184v322q0 109 77.5 182.5
t180.5 73.5h178q84 167 240 268q160 104 348.5 104t347.5 -104q157 -101 240 -268h178q104 0 182 -74q76 -73 76 -182v-322q0 -110 -76 -184q-78 -74 -182 -74zM376 1118h-118q-48 0 -83 -35t-35 -83v-322q0 -48 35 -83t83 -35t83 35t35 83v440zM1490 978q0 126 -62 232
q-64 107 -170 170q-109 64 -233.5 64t-232.5 -64q-107 -63 -170 -170q-64 -106 -64 -232v-140l466 -130l466 130v140zM1908 1000q0 48 -35 83t-83 35h-116v-440q0 -48 35 -83t81 -35q48 0 83 35t35 83v322z" />
</svg>