<svg xmlns="http://www.w3.org/2000/svg" xmlns:xlink="http://www.w3.org/1999/xlink" version="1.1" viewBox="-10 0 2068 2048">
   <path fill="currentColor"
d="M0 258v-258h12q557 0 1030 282q460 264 724 724q282 473 282 1030v12h-258v-12q0 -487 -240 -892q-240 -408 -640 -647q-416 -239 -910 -239zM0 767v-252q420 0 770 207q351 208 556 557q206 349 206 769h-250q0 -257 -99 -491t-278 -413t-413.5 -278t-491.5 -99zM0 1282
v-258q281 0 516 138q233 138 370 371q138 232 138 515h-258q0 -209 -102 -386q-101 -176 -278 -278t-386 -102zM0 1533q216 0 366 150t150 365h-516v-515z" />
</svg>