<svg xmlns="http://www.w3.org/2000/svg" xmlns:xlink="http://www.w3.org/1999/xlink" version="1.1" viewBox="-10 0 2058 2048">
   <path fill="currentColor"
d="M1307 904q188 0 320 132q131 131 131 320q0 133 -70 240l310 311l-141 141l-315 -311q-109 71 -235 71q-188 0 -320 -132t-132 -320t132 -320t320 -132zM1307 1107q-106 0 -179 72q-76 74 -76 177t76 177q74 73 179 73q103 0 176 -73t73 -177t-73 -177q-72 -72 -176 -72z
M253 0h1402q84 0 143 59t59 144v805q-76 -124 -202 -203v-602h-1402v1403h451q42 112 132 202h-583q-85 0 -144 -59t-59 -143v-1403q0 -85 59 -144t144 -59zM450 400h1007v203h-1007v-203zM450 805h508q-123 75 -207 198h-301v-198zM450 1205h221q-18 69 -18 151v52h-203
v-203z" />
</svg>