<svg xmlns="http://www.w3.org/2000/svg" xmlns:xlink="http://www.w3.org/1999/xlink" version="1.1" viewBox="-10 0 2068 2048">
   <path fill="currentColor"
d="M1930 1268v-146q0 -100 -86 -172q-84 -70 -188 -70q-105 0 -188 70q-82 71 -82 172v146q-46 0 -82 36q-38 38 -38 84v338q0 48 38 88q36 40 82 40h534q49 0 90 -38q38 -35 38 -82v-338q0 -50 -36 -89t-82 -39zM1802 1268h-294v-146q0 -55 44 -92q44 -36 106 -36t102 36
q42 37 42 92v146zM1074 1758h-882q-76 0 -134 -58t-58 -140v-1170q0 -80 58 -138t134 -58h1564q78 0 135 57t57 139v394q-91 -69 -192 -92v-104h-1564v292h1080q-84 110 -84 242v22q-53 44 -86 110q-32 66 -32 134v338q0 24 4 32z" />
</svg>