<svg xmlns="http://www.w3.org/2000/svg" xmlns:xlink="http://www.w3.org/1999/xlink" version="1.1" viewBox="-10 0 2058 2048">
   <path fill="currentColor"
d="M1418 245v1539q0 120 72 192t173 72t168 -63q77 -72 77 -201v-1529q0 -116 -72 -185q-73 -70 -170 -70q-98 0 -173 72t-75 173zM779 1024v760q0 120 72 192t171 72q98 0 170 -63q77 -72 77 -201v-750q0 -111 -72 -183t-170 -72t-173 72t-75 173zM385 1562q100 0 173 70
q72 69 72 171q0 101 -72 173t-173 72t-173 -72t-72 -173q0 -102 72 -171q73 -70 173 -70z" />
</svg>