<svg xmlns="http://www.w3.org/2000/svg" xmlns:xlink="http://www.w3.org/1999/xlink" version="1.1" viewBox="-10 0 2068 2048">
   <path fill="currentColor"
d="M746 0v96h92v279h-92v92h278v-92h-90v-279h90v-96h-278zM746 558q-78 0 -134 55q-54 54 -54 132v1116q0 79 54 133t134 54h1114q80 0 134 -54t54 -133v-1116q0 -78 -54 -132q-56 -55 -134 -55h-1114zM0 745v279h96v-91h280v91h90v-279h-90v92h-280v-92h-96zM746 745h1114
v1116h-1114v-1116zM1212 837v96h92v462h-370v-92h-96v279h96v-91h370v183h-92v95h278v-95h-96v-183h280v91h96v-279h-96v92h-280v-462h96v-96h-278z" />
</svg>