<svg xmlns="http://www.w3.org/2000/svg" xmlns:xlink="http://www.w3.org/1999/xlink" version="1.1" viewBox="-10 0 2058 2048">
   <path fill="currentColor"
d="M522 1670q-172 0 -294 -122q-122 -123 -122 -296q0 -174 122 -297q122 -122 296 -122t296 122q124 123 124 297q0 173 -124 296q-122 122 -298 122zM522 1043q-82 0 -144 62q-62 61 -62 147t61 147t147 61t147 -61t61 -147t-60 -147q-62 -62 -150 -62zM944 833
q-176 0 -300 -123q-122 -122 -122 -294t122 -294t296 -122q176 0 298 122t122 294t-122 294q-124 123 -294 123zM944 205q-88 0 -150 62q-62 61 -62 149q0 89 61 150t147 61t148 -61q62 -62 62 -150q0 -87 -62 -149t-144 -62zM1526 2048q-170 0 -293 -123t-123 -296
q0 -174 122 -297q122 -122 294 -122t294 122q122 123 122 297q0 173 -123 296t-293 123zM1526 1421q-88 0 -149 61t-61 147q0 85 64 147q62 61 148 61t147 -61t61 -147t-61 -147t-149 -61z" />
</svg>