<svg xmlns="http://www.w3.org/2000/svg" xmlns:xlink="http://www.w3.org/1999/xlink" version="1.1" viewBox="-10 0 2068 2048">
   <path fill="currentColor"
d="M322 628q-131 0 -214 58q-84 58 -84 158t72 154q70 53 212 96q70 23 98 46.5t28 63t-26 60.5q-25 20 -86 20q-71 0 -104 -28q-36 -28 -36 -92h-176h-6q0 126 96 190q97 66 224 66q128 0 212 -58q84 -59 84 -158q0 -101 -70 -160q-69 -57 -196 -94q-84 -29 -116 -50
q-32 -20 -32 -56q0 -34 30 -58q28 -22 86 -22q55 0 87.5 28t28.5 74h172l4 -6q0 -102 -80 -166q-82 -66 -208 -66zM726 632v782h182v-270h112q141 0 220 -68q82 -72 82 -188q0 -114 -82 -186q-80 -70 -220 -70h-294zM1546 632l-274 782h172l274 -782h-172zM1866 632
l-264 782h166l280 -782h-182zM908 772h112q60 0 90 30t30 84t-30 87t-90 33h-112v-234z" />
</svg>