<svg xmlns="http://www.w3.org/2000/svg" xmlns:xlink="http://www.w3.org/1999/xlink" version="1.1" viewBox="-10 0 2068 2048">
   <path fill="currentColor"
d="M616 286v202h-616v206h1018q-33 88 -108 188q-74 99 -180 187q-149 -131 -240 -274h-236q96 207 322 409l-498 399l124 159l534 -424l528 424l124 -159l-494 -399q293 -270 342 -510h196v-206h-614v-202h-202zM1792 387q-106 0 -180 74q-74 75 -74 180q0 107 74 183
q76 77 180.5 77t179.5 -77q76 -76 76 -183q0 -105 -76 -180q-74 -74 -180 -74zM1788 1103q-105 0 -180 77q-76 76 -76 183q0 105 76 180q74 74 180 74q107 0 182 -74q78 -75 78 -180q0 -106 -77 -183t-183 -77z" />
</svg>