<svg xmlns="http://www.w3.org/2000/svg" xmlns:xlink="http://www.w3.org/1999/xlink" version="1.1" viewBox="-10 0 2068 2048">
   <path fill="currentColor"
d="M1845 101h-1335v-101h-101q-47 4 -87 32q-38 26 -57 69h-264v207h177q-110 351 -158 1086q-19 351 -19 654h509v-1740h1335v-207zM2047 664q0 -101 -69 -173q-70 -72 -171.5 -77t-177.5 60q-76 64 -91 163q-15 98 46 180t156 106v1125h105v-1125q92 -20 149 -91
q57 -73 53 -168zM1331 971v462h-101v615h-153v-510h-106v510h-154v-615h-101v-462q0 -62 46 -108t108 -46h308q62 0 108 46q45 45 45 108zM1024 462q-64 0 -108 43q-46 44 -46 108q0 65 46 111q45 45 108 45t108 -45q46 -46 46 -111q0 -64 -46 -108q-45 -43 -108 -43z" />
</svg>