<svg xmlns="http://www.w3.org/2000/svg" xmlns:xlink="http://www.w3.org/1999/xlink" version="1.1" viewBox="-10 0 2068 2048">
   <path fill="currentColor"
d="M1770 745q-92 0 -164 53q-72 52 -102 135h-218q-30 -83 -102 -135q-73 -53 -159.5 -53t-158.5 53q-72 52 -102 135h-218q-30 -83 -102 -135q-73 -53 -164 -53q-114 0 -196 81q-84 81 -84 198q0 118 84 199q81 80 196 80q92 0 164 -52q72 -53 102 -135h218q30 82 102 135
q71 52 158.5 52t159.5 -52q72 -53 102 -135h218q30 82 102 135q71 52 164 52q114 0 196 -80q82 -81 82 -199q0 -117 -82 -198q-83 -81 -196 -81z" />
</svg>