<svg xmlns="http://www.w3.org/2000/svg" xmlns:xlink="http://www.w3.org/1999/xlink" version="1.1" viewBox="-10 0 2068 2048">
   <path fill="currentColor"
d="M1846 1690v-408h-308v100h-206v-100h-616v100h-206v-100h-308v408h1644zM442 666l-178 408h246v-100h206v100h616v-100h206v100h244l-176 -408h-1164zM716 358v102h616v-102h-616zM2032 1136q16 40 16 82v472q0 82 -60 144t-142 62h-1644q-82 0 -142 -62t-60 -144v-472
q0 -45 14 -82l240 -552q53 -124 188 -124h68v-102q0 -86 60 -146t146 -60h616q86 0 146 60t60 146v102h68q134 0 186 124z" />
</svg>