<svg xmlns="http://www.w3.org/2000/svg" xmlns:xlink="http://www.w3.org/1999/xlink" version="1.1" viewBox="-10 0 2068 2048">
   <path fill="currentColor"
d="M648 53q-177 0 -322 86q-142 84 -232 235q-89 150 -94 326v1295h972v-814q188 167 430 167q176 0 326 -86q149 -86 234 -235q86 -148 86 -327q0 -178 -86 -326q-85 -149 -234 -235q-150 -86 -326 -86h-754zM1402 271q182 0 308 126t126 303q0 178 -126 304t-306 126
t-306 -126t-126 -304q0 -177 126 -303t304 -126zM1402 513q-76 0 -132 53q-56 52 -56 134t56 134q57 54 133.5 54t134.5 -54q56 -53 56 -134t-56.5 -134t-135.5 -53zM108 1024h110v106h-110v-106zM324 1024h106v106h-106v-106zM542 1024h106v106h-106v-106zM754 1024h112
v106h-112v-106z" />
</svg>