<svg xmlns="http://www.w3.org/2000/svg" xmlns:xlink="http://www.w3.org/1999/xlink" version="1.1" viewBox="-10 0 2068 2048">
   <path fill="currentColor"
d="M2048 0v623l-186 -187l-1618 1612l-244 -244l1612 -1618l-186 -186h622zM1676 1990q-158 0 -266 -111q-106 -110 -106 -262v-250q0 -157 106 -264q108 -108 262 -108t266 108q110 107 110 264v250q0 152 -110 262q-112 111 -262 111zM1676 1245q-52 0 -90 35t-38 87v250
q0 53 38 88t90 35t87 -35t35 -88v-250q0 -52 -35 -87t-87 -35zM430 995q-149 0 -260.5 -108t-111.5 -264v-251q0 -150 111 -261t265 -111t262 111t108 261v251q0 156 -108 264t-266 108zM430 250q-52 0 -87 35t-35 87v251q0 52 35 87t87 35q53 0 92 -35q36 -34 36 -87v-251
q0 -53 -36 -87q-39 -35 -92 -35z" />
</svg>