<svg xmlns="http://www.w3.org/2000/svg" xmlns:xlink="http://www.w3.org/1999/xlink" version="1.1" viewBox="-10 0 2068 2048">
   <path fill="currentColor"
d="M144 1024q0 -181 78 -361l418 1154q-223 -112 -358 -322q-138 -212 -138 -471zM1620 981q0 44 -20 105q-6 29 -38 135l-102 337l-316 -943l100 -9q24 -4 32 -24q7 -19 -2.5 -36t-33.5 -17l-82 9q-106 5 -154 5l-230 -14q-24 0 -34 17q-9 18 -2 36q7 20 30 24l92 9
l140 370l-192 577l-322 -947l100 -9q24 -4 32 -24q7 -19 -5.5 -36t-30.5 -17l-86 9q-102 5 -150 5h-58q120 -186 316 -293q194 -106 420 -106q167 0 322 60q153 60 274 171h-14q-62 0 -106 46q-44 44 -44 108q0 48 24 96q21 45 52 96l10 15q78 125 78 245zM1038 1101
l274 740l4 15q-139 48 -292 48q-127 0 -250 -34zM1798 601q104 197 104 423q0 240 -120 442q-119 202 -316 318l268 -774q68 -169 68 -318zM1024 0q200 0 392 77q188 76 333.5 221t220.5 334q78 192 78 392t-78 392q-75 189 -220.5 334t-333.5 221q-192 77 -392 77t-392 -77
q-188 -76 -333.5 -221t-220.5 -334q-78 -192 -78 -392t78 -392q75 -189 220.5 -334t333.5 -221q192 -77 392 -77zM1024 2005q261 0 490 -133q226 -132 358 -358t132 -490t-132 -490q-133 -228 -358 -359q-227 -132 -490.5 -132t-489.5 132q-226 131 -358 359
q-132 226 -132 490t132 490q131 226 358 358q228 133 490 133z" />
</svg>