<svg xmlns="http://www.w3.org/2000/svg" xmlns:xlink="http://www.w3.org/1999/xlink" version="1.1" viewBox="-10 0 2058 2048">
   <path fill="currentColor"
d="M1246 957q180 0 305 125q126 126 126 306q0 125 -68 229l297 296l-135 135l-301 -296q-103 67 -224 67q-179 0 -305 -126t-126 -305q0 -180 126 -306q125 -125 305 -125zM1246 1150q-99 0 -171 69t-72 169q0 99 72 168q73 70 171 70t168 -70t70 -168q0 -99 -70 -169
q-69 -69 -168 -69zM335 1913q-81 0 -137 -56t-56 -132v-1536q0 -77 56 -133t137 -56h94v669l242 -143l238 143v-669h575q81 0 137 56t56 133v750q-86 -82 -198 -128q-114 -47 -233 -47q-171 0 -314 85q-144 86 -227 227q-83 142 -83 307q0 167 78 308q78 140 214 222h-579z
" />
</svg>