<svg xmlns="http://www.w3.org/2000/svg" xmlns:xlink="http://www.w3.org/1999/xlink" version="1.1" viewBox="-10 0 2068 2048">
   <path fill="currentColor"
d="M466 1212q40 0 66 26t26 64q0 40 -26 66t-66 26q-127 0 -232.5 -61t-169.5 -167q-64 -109 -64 -233.5t64 -232.5t170 -170q106 -64 232 -64q70 -165 220 -268q152 -102 338 -102q157 0 292 74q136 73 218 202q82 128 96 282h44q156 0 266 108q108 108 108 262t-108 262
q-110 108 -266 108h-92q-40 0 -66 -26t-26 -66q0 -38 26 -64t66 -26h92q78 0 132 -56q54 -54 54 -133t-54 -133t-132 -54h-184v-92q0 -126 -62 -232q-64 -107 -170 -170q-107 -64 -234 -64q-174 0 -302 112q-129 110 -154 280q-50 -16 -102 -16q-116 0 -198 80
q-80 80 -80 196q0 117 80 198q82 84 198 84zM838 1582q78 0 132 54t54 130q0 78 -54 132t-130 54t-132 -54q-54 -54 -54 -132q0 -76 54 -130q56 -54 130 -54zM1256 1394q61 0 100 42q38 42 38 100t-38 98q-40 40 -98 40q-57 0 -100 -40q-42 -39 -42 -98q0 -58 42 -100
q40 -42 98 -42zM886 1024q56 0 98 42q40 40 40 97t-41 98t-98 41t-97 -40q-42 -42 -42 -98t42 -98t98 -42z" />
</svg>