<svg xmlns="http://www.w3.org/2000/svg" xmlns:xlink="http://www.w3.org/1999/xlink" version="1.1" viewBox="-10 0 2068 2048">
   <path fill="currentColor"
d="M860 34l-238 336q160 -38 238 -38q76 0 240 38zM1750 332q-78 0 -136 58t-58 136v674q-102 89 -102 218q0 126 88 212q89 86 210 86q124 0 210 -86t86 -212q0 -133 -98 -218v-674q0 -78 -58 -136t-142 -58zM1750 430q42 0 72 30t30 66v104h-200v-104q0 -36 32 -66
q30 -30 66 -30zM414 500l-414 26l176 378q14 -111 80 -228q86 -115 158 -176zM860 526q-135 0 -250 68q-113 68 -178 182q-64 114 -64 248t64 248q65 114 178 182q114 66 251.5 66t250.5 -66q114 -68 178 -182q66 -114 66 -248t-66 -248q-64 -114 -178 -182t-252 -68z
M186 1144l-176 376l404 38q-94 -94 -148 -186q-62 -90 -80 -228zM622 1678l238 336l240 -336q-159 38 -240 38q-100 0 -238 -38z" />
</svg>