<svg xmlns="http://www.w3.org/2000/svg" xmlns:xlink="http://www.w3.org/1999/xlink" version="1.1" viewBox="-10 0 2058 2048">
   <path fill="currentColor"
d="M1117 188q179 0 329 87q152 88 238 237q87 150 87 325q0 190 -103 351q-102 159 -272 237v436h-649v-279h-91q-79 0 -133 -54q-55 -55 -55 -133v-279h-139q-29 0 -42.5 -26t3.5 -48l178 -236q9 -172 98 -311q90 -141 236 -224q147 -83 315 -83zM1117 0q-208 0 -389 98
q-182 99 -298.5 266t-139.5 373l-148 196h-5q-38 52 -43 118q-4 64 26 126q52 100 161 122v96q0 131 81 231t198 130v292h1023v-514q177 -116 273 -298q98 -185 98 -399q0 -226 -111 -418q-110 -190 -305 -305q-193 -114 -421 -114zM1492 728q0 100 -87 205q-55 67 -231 226
l-57 53l-52 -53q-175 -159 -231 -226q-87 -105 -87 -205q0 -83 59 -142q59 -58 142 -63h4q98 0 165 79q70 -79 170 -79q82 0 144 59q61 58 61 146z" />
</svg>