<svg xmlns="http://www.w3.org/2000/svg" xmlns:xlink="http://www.w3.org/1999/xlink" version="1.1" viewBox="-10 0 2058 2048">
   <path fill="currentColor"
d="M1250 606l144 327h-740l130 -327h466zM745 1024q-39 0 -65 29t-26 65t26 65t65 29q40 0 66 -29t26 -65t-26 -65t-66 -29zM1303 1024q-40 0 -66 29t-26 65t26 65t66 29q39 0 65 -29t26 -65t-26 -65t-65 -29zM1860 375v558q0 254 -109 488q-111 238 -300 401
q-191 164 -427 226q-236 -62 -427 -226q-189 -163 -300 -401q-109 -234 -109 -488v-558l836 -375zM1581 1024l-200 -466q-14 -41 -50 -65q-38 -26 -81 -26h-466q-42 0 -80 26q-36 24 -50 65l-188 466v371q0 38 29 67t63 29h96q34 0 63 -29q28 -28 28 -67v-92h558v92
q0 39 28 67q29 29 63 29h96q34 0 63 -29q28 -28 28 -67v-371z" />
</svg>