<svg xmlns="http://www.w3.org/2000/svg" xmlns:xlink="http://www.w3.org/1999/xlink" version="1.1" viewBox="-10 0 2068 2048">
   <path fill="currentColor"
d="M666 360q62 0 108 46t46 108t-46 108q-44 44 -110 44q-64 0 -108 -44q-42 -45 -42 -108.5t42 -107.5q45 -46 110 -46zM868 872q-62 0 -108 44q-46 45 -46 108q0 64 46 110t110 46q65 0 108 -46q44 -44 44 -110q0 -64 -44 -108t-110 -44zM820 1382q-67 0 -110 44
q-44 45 -44 108q0 83 68 130q-202 -52 -345.5 -210.5t-172.5 -365.5q-10 -58 -10 -152q5 57 48 98q45 40 106 40q63 0 108 -42q46 -45 46 -108q0 -66 -46 -112q-46 -44 -108 -44q-54 0 -94 31t-54 79q32 -235 200 -408q170 -174 408 -206v148q0 64 44 108q43 46 110 46h48
v48q0 67 44 110q45 44 108 44h154v52q0 64 45 109t109 45h66l130 -130q45 -44 106 -62q-16 -10 -30 -10l-220 -4v-102q0 -62 -52 -90q-27 -10 -48 -10h-206v-106q0 -61 -54 -86q-24 -14 -48 -14h-104v-206q0 -62 -48 -86q-29 -16 -54 -16q-247 0 -460 126q-211 124 -336 336
q-124 210 -124 460q0 234 108.5 433.5t293.5 326.5q188 127 418 156v-188l148 -148q6 -10 6 -20q0 -62 -46 -108q-46 -44 -108 -44zM1228 1228q0 26 10 58l196 -202q-29 -10 -54 -10q-62 0 -106 46q-46 46 -46 108zM2028 1122l-134 -134q-16 -14 -37 -14t-35 14l-100 100
l210 212l96 -100q20 -15 20 -36q0 -22 -20 -42zM1022 1788v208h210l628 -624l-210 -212z" />
</svg>