<svg xmlns="http://www.w3.org/2000/svg" xmlns:xlink="http://www.w3.org/1999/xlink" version="1.1" viewBox="-10 0 2068 2048">
   <path fill="currentColor"
d="M1110 937q120 120 120 291t-120 291t-291 120t-291 -120zM202 0h1230q86 0 146 60t60 142v1644q0 82 -60 142t-146 60h-1230q-82 0 -142 -60t-60 -142v-1644q0 -82 60 -142t142 -60zM308 202q-44 0 -74 31q-32 32 -32 72t32 72t72 32t72 -32q30 -31 30 -72t-31 -72
t-69 -31zM616 202q-44 0 -75 31t-31 72t30 72q32 32 72 32t72 -32t32 -72t-32 -72q-30 -31 -68 -31zM818 615q-162 0 -306 82q-140 79 -226 224q-84 144 -84 307q0 164 84 308q85 143 226 226q142 84 308 84q164 0 306 -84q144 -85 224 -226q82 -144 82 -308
q0 -163 -82 -307q-81 -143 -224 -224q-144 -82 -308 -82zM1846 1332h202v206h-202v-206zM1846 510h202v615h-202v-615z" />
</svg>