<svg xmlns="http://www.w3.org/2000/svg" xmlns:xlink="http://www.w3.org/1999/xlink" version="1.1" viewBox="-10 0 2068 2048">
   <path fill="currentColor"
d="M1846 308h-328l-186 -207h-616l-188 207h-326q-82 0 -142 60t-60 142v1230q0 87 60 147t142 60h1644q82 0 142 -60t60 -147v-1230q0 -82 -60 -142t-142 -60zM1846 1740h-1644v-1230h418l188 -202h432l192 202h414v1230zM308 1024h212q28 -134 120 -238q91 -103 220 -147
q128 -43 264 -14q108 20 208 91l-150 149q-72 -48 -158 -48q-95 0 -176 58q-79 57 -112 149h186l-306 308zM1528 1231q-28 134 -120 235q-92 102 -222 147q-129 45 -264 17q-108 -23 -206 -92l150 -149q72 44 158 44q96 0 178 -56t110 -146h-188l308 -308l308 308h-212z" />
</svg>