<svg xmlns="http://www.w3.org/2000/svg" xmlns:xlink="http://www.w3.org/1999/xlink" version="1.1" viewBox="-10 0 2058 2048">
   <path fill="currentColor"
d="M972 1629q0 133 54 261h-786q-90 0 -152 -62q-60 -61 -60 -150v-1467q0 -89 61 -150t151 -61h1466q88 0 149 61t61 150v788q-127 -54 -260 -54q-189 0 -350 98l-74 -98l-364 472l-264 -315l-364 473h738q-6 22 -6 54zM2020 1629v-423l-122 123q-124 -123 -296 -123
t-295 123t-123 298q0 174 122 297q124 124 296 124q132 0 238 -72q106 -71 150 -189h-176q-39 49 -94 76q-54 27 -118 27q-108 0 -184 -76t-76 -185q0 -108 76 -187t184 -79q110 0 188 79l-188 187h418z" />
</svg>