<svg xmlns="http://www.w3.org/2000/svg" xmlns:xlink="http://www.w3.org/1999/xlink" version="1.1" viewBox="-10 0 2068 2048">
   <path fill="currentColor"
d="M356 716q67 0 110 -45q44 -44 44 -109q0 -64 -44 -108q-43 -45 -108 -45q-66 0 -110 45q-46 46 -46 108q0 63 46 109q44 45 108 45zM1576 981q62 62 62 146q0 86 -62 142l-510 515q-62 62 -146 62t-146 -62l-716 -717q-58 -63 -58 -144v-514q0 -87 60 -147t142 -60h514
q88 0 144 62zM1182 380l102 -106l706 707q58 58 58 144t-58 144l-554 553l-100 -101l586 -596z" />
</svg>