<svg xmlns="http://www.w3.org/2000/svg" xmlns:xlink="http://www.w3.org/1999/xlink" version="1.1" viewBox="-10 0 2068 2048">
   <path fill="currentColor"
d="M818 1024l412 409l-412 413v-317q-232 -24 -420 -96q-186 -72 -292 -181q-106 -108 -106 -228t106 -228q106 -109 292 -181q188 -72 420 -96v207q-271 24 -444 108q-172 84 -172 190t172 190q173 84 444 108v-298zM1846 1024q0 -106 -174 -190q-172 -84 -442 -108v-207
q231 24 418 96t294 181q106 109 106 228q0 164 -188 296q-189 133 -486 185l72 -72l-124 -121q228 -33 376 -113q148 -79 148 -175zM922 0h202v1125l-202 -202v-923zM922 2048v-101l202 -207v308h-202z" />
</svg>