<svg xmlns="http://www.w3.org/2000/svg" xmlns:xlink="http://www.w3.org/1999/xlink" version="1.1" viewBox="-10 0 2058 2048">
   <path fill="currentColor"
d="M54 430q0 -117 116 -215q114 -98 316 -157q198 -58 432 -58t432 58q200 59 316 157q116 99 116 218q0 118 -116 217q-116 98 -316 157q-198 58 -432 58t-432 -58q-202 -59 -316 -157q-116 -98 -116 -220zM1752 1082q30 -56 30 -111v-324q0 116 -116 215q-116 98 -316 157
q-198 58 -432 58t-432 -58q-202 -59 -316 -157q-116 -98 -116 -215v324q0 117 116 215q114 98 316 157q198 58 432 58q106 0 202 -10q87 -143 233 -228q148 -86 318 -86q53 0 81 5zM1034 1613q-40 5 -116 5q-234 0 -432 -58q-202 -59 -316 -157q-116 -98 -116 -214v323
q0 117 116 215q114 98 316 157q198 58 432 58q91 0 141 -5q-35 -104 -35 -212q0 -55 10 -112zM1565 1618v-217l-324 324l324 323v-212h429v-218h-429z" />
</svg>