<svg xmlns="http://www.w3.org/2000/svg" xmlns:xlink="http://www.w3.org/1999/xlink" version="1.1" viewBox="-10 0 2068 2048">
   <path fill="currentColor"
d="M971 890q-269 0 -485 160l-165 -216q140 -102 306.5 -159t344 -57t343.5 58q169 57 307 158l-43 56q-146 8 -270 72q-160 -72 -338 -72zM1782 618l161 -214q-209 -159 -454 -242q-250 -84 -518 -84q-266 0 -517 84q-244 83 -454 242l160 214q174 -131 380 -200
q210 -70 431 -70t431 70q207 69 380 200zM971 1160q-180 0 -325 110l325 430l21 -24q-21 -82 -21 -158q0 -188 106 -346q-60 -12 -106 -12zM2036 1646q4 0 4 6t-4 10l-93 156q-9 10 -26 10l-110 -38l-71 46l-17 118q0 4 -7 10q-6 6 -10 6h-182q-9 0 -25 -16l-21 -118
q-38 -13 -72 -46l-106 46q-18 0 -29 -8l-89 -152q-9 -12 9 -30l101 -72v-90l-101 -70q-9 -10 -9 -30l89 -152q11 -8 29 -8l106 46l72 -46l21 -120q0 -16 25 -16h182q3 0 10 7t7 9l17 120q29 8 84 46l106 -46q29 0 29 8l89 152q9 8 -8 30l-102 70v90zM1736 1518
q0 -51 -40 -92q-40 -42 -93 -42t-95 42q-43 42 -43 94t43 94q43 40 95 40t93 -40q40 -40 40 -96z" />
</svg>