<svg xmlns="http://www.w3.org/2000/svg" xmlns:xlink="http://www.w3.org/1999/xlink" version="1.1" viewBox="-10 0 2068 2048">
   <path fill="currentColor"
d="M1024 0q-278 0 -514 137q-235 136 -372 373q-138 236 -138 514v1024h2048v-1024q0 -278 -138 -514q-136 -236 -372 -373q-237 -137 -514 -137zM1024 202q221 0 406 108t296 291q-72 14 -140 14q-216 0 -404 -108q-186 -108 -298 -291q72 -14 140 -14zM620 308
q-48 143 -144 262q-96 118 -230 194q48 -145 146 -262q97 -117 228 -194zM202 1010q199 -76 356 -224q153 -146 234 -344q146 174 352 274q208 101 442 101q110 0 226 -24q34 119 34 231q0 220 -112 411q-110 190 -300 300q-190 111 -410.5 111t-411.5 -111
q-189 -110 -300 -300q-110 -191 -110 -411v-14zM202 1846v-207q91 115 206 207h-206zM1846 1846h-208q116 -92 208 -207v207zM1202 1125q0 -54 38 -89q38 -36 92 -36q52 0 90 36q38 35 38 89q0 53 -38 91q-38 39 -90 39q-54 0 -92 -39q-38 -38 -38 -91zM586 1125
q0 -54 38 -89q40 -36 92 -36t92 36q38 35 38 89q0 53 -38 91q-40 39 -92 39t-92 -39q-38 -38 -38 -91z" />
</svg>