<svg xmlns="http://www.w3.org/2000/svg" xmlns:xlink="http://www.w3.org/1999/xlink" version="1.1" viewBox="-10 0 2068 2048">
   <path fill="currentColor"
d="M376 375h182v183h-182v-183zM0 0h934v933h-934v-933zM188 188v557h558v-557h-558zM376 1491h182v183h-182v-183zM0 1116h934v932h-934v-932zM188 1303v558h558v-558h-558zM1116 1116h374v187h184v-187h374v187h-374v188h374v557h-374v-187h-370v187h-188v-187h188v-187
h-188v-558zM1860 1861v-187h-186v187h186zM1674 1491h-184v-188h-186v371h370v-183zM2018 218l-92 96l-192 -187l96 -92q13 -17 32 -17q20 0 38 17l118 114q16 13 16 34q0 22 -16 35zM1116 741l566 -566l192 191l-566 567h-192v-192z" />
</svg>