<svg xmlns="http://www.w3.org/2000/svg" xmlns:xlink="http://www.w3.org/1999/xlink" version="1.1" viewBox="-10 0 2068 2048">
   <path fill="currentColor"
d="M1758 692q-42 0 -84 -17q-40 -17 -71.5 -48t-48.5 -72q-16 -42 -16 -86q0 -45 16 -87q17 -40 48.5 -72t71.5 -48q42 -17 88 -17q44 0 86 17q40 16 71.5 48t48.5 72q16 42 16 87q0 44 -16 86q-17 41 -48.5 72t-71.5 48q-42 17 -90 17zM1758 375q-39 0 -66 26
q-30 27 -30 68q0 40 30 67q27 26 70 26q40 0 66 -26t26 -67q0 -42 -26 -68t-70 -26zM2048 851v481q0 62 -24 122t-68 104q-44 43 -104 67t-122 24q-42 0 -80 -7q-41 -8 -74 -27q-24 83 -72 147q-48 65 -112 113q-62 45 -142 74q-77 27 -164 27q-93 0 -182 -34
q-85 -32 -154 -94q-69 -61 -114 -141q-44 -81 -60 -178h-494q-34 0 -58 -27t-24 -60v-856q0 -33 24 -60q24 -26 58 -26h736q-30 -64 -30 -125q0 -63 24 -118t65.5 -96t92.5 -65q53 -24 116 -24q62 0 118 24q54 24 95.5 65t64.5 96q24 56 24 116q0 59 -24 115
q-23 55 -64.5 96t-95.5 65q-56 24 -118 24l-28 -5l-34 -5v97h928q42 0 68 26q28 27 28 65zM1086 202q-33 0 -64 12q-33 12 -56 36q-25 24 -36 55q-12 31 -12 68q0 35 12 67t36 53q23 20 56 36q29 14 66 14q39 0 66 -14q29 -16 52 -36q22 -19 38 -53q16 -32 16 -67
q0 -37 -16 -68q-15 -32 -38 -55q-23 -24 -52 -36t-68 -12zM592 836h192v-158h-544v158h192v515h160v-515zM1470 1461v-576h-446v557q0 34 -26 60q-28 27 -60 27h-232q16 71 50 125q36 56 86 101q47 43 110 67t138 24q77 0 148 -29q68 -28 121.5 -82t82.5 -122
q28 -70 28 -152zM1922 1332v-447h-322v586q24 24 58 39q30 14 72 14q37 0 74 -17q36 -16 60.5 -41t41.5 -60q16 -37 16 -74z" />
</svg>