<svg xmlns="http://www.w3.org/2000/svg" xmlns:xlink="http://www.w3.org/1999/xlink" version="1.1" viewBox="-10 0 2068 2048">
   <path fill="currentColor"
d="M1289 544l-269 -344l192 -36l265 342zM1001 602l-270 -346l-192 40l270 344zM1957 410l-73 -378l-384 72l265 348zM1701 1084q160 0 292 82v-376h-1947v980q0 78 57 135t135 57h960q-82 -132 -82 -290t80 -294t214 -214q135 -80 291 -80zM256 352l-96 18q-79 18 -124 84
q-46 67 -32 148l42 188l475 -92zM2048 1462l-137 -136l-210 206l-206 -206l-137 136l206 206l-206 212l137 136l206 -210l210 210l137 -136l-210 -212z" />
</svg>