<svg xmlns="http://www.w3.org/2000/svg" xmlns:xlink="http://www.w3.org/1999/xlink" version="1.1" viewBox="-10 0 2058 2048">
   <path fill="currentColor"
d="M562 0q154 0 270 84q114 83 162 224h952v307h-308v308h-306v-308h-338q-47 134 -168 221q-120 87 -264 87q-192 0 -326 -135q-134 -134 -134 -327q0 -192 134 -326q134 -135 326 -135zM562 308q-62 0 -108 45q-46 46 -46 106q0 59 46 108q46 48 109 48t107 -48
q46 -49 46 -108q0 -60 -46 -106q-44 -45 -108 -45zM562 1125q154 0 270 84q114 83 162 224h952v307h-100v308h-208v-308h-206v308h-308v-308h-130q-48 140 -168 224t-264 84q-192 0 -326 -135q-134 -134 -134 -327q0 -192 134 -326q134 -135 326 -135zM562 1433
q-62 0 -108 48q-46 49 -46 108q0 60 46 106q46 45 109 45t107 -45q46 -46 46 -106q0 -59 -46 -108q-44 -48 -108 -48z" />
</svg>