<svg xmlns="http://www.w3.org/2000/svg" xmlns:xlink="http://www.w3.org/1999/xlink" version="1.1" viewBox="-10 0 2068 2048">
   <path fill="currentColor"
d="M1212 1118v-558h370v187h-188v371h-182zM1582 281h-928q-126 0 -232 63q-107 63 -170 170q-64 106 -64 233v837h-188v183h1860q80 0 134 -54t54 -129v-837q0 -127 -64 -233q-63 -107 -170 -170q-106 -63 -232 -63zM934 1584h-558v-837q0 -117 80 -198q80 -80 196 -80
q117 0 198 80q84 81 84 198v837zM1860 1584h-744v-837q0 -157 -92 -278h558q118 0 198 80t80 198v837z" />
</svg>