<svg xmlns="http://www.w3.org/2000/svg" xmlns:xlink="http://www.w3.org/1999/xlink" version="1.1" viewBox="-10 0 2068 2048">
   <path fill="currentColor"
d="M1774 336q-97 0 -178 68q-84 70 -112 182q-40 160 -56 194q-20 38 -96 114q-148 148 -410 240q-255 94 -720 170q-72 8 -118 36q-47 28 -84 64q204 0 260 20q96 32 -6 134l-152 154h306l208 -202q155 76 270 76q117 0 272 -76l72 202h308l-106 -308l34 -110
q40 -131 72 -222q56 -133 100 -178q44 -43 72 -48q21 0 48 20q49 28 88 28q76 0 139 -75t63 -185q0 -60 -20 -104q-34 -82 -134 -150q-54 -39 -120 -44zM716 380q-167 0 -310 82q-142 81 -224 224q-80 142 -80 310q0 50 18 134l6 28q462 -76 716 -162q253 -87 378 -212
l54 -52q-77 -160 -228.5 -256t-329.5 -96z" />
</svg>