<svg xmlns="http://www.w3.org/2000/svg" xmlns:xlink="http://www.w3.org/1999/xlink" version="1.1" viewBox="-10 0 2068 2048">
   <path fill="currentColor"
d="M1024 950q-287 0 -512 170l-174 -228q148 -107 324 -166q175 -60 362 -60t362 60q174 59 322 166l-124 162q-57 13 -102 30q-204 -134 -458 -134zM1878 666l170 -228q-219 -165 -480 -254q-262 -88 -544.5 -88t-545.5 88q-258 88 -478 254l170 228q182 -138 400 -212
t453.5 -74t454.5 74q219 75 400 212zM1024 1236q-190 0 -342 116l342 454l98 -134q-4 -16 -4 -58q0 -188 114 -338q-105 -40 -208 -40zM1892 1280l-206 200l-200 -200l-134 134l202 200l-202 204l134 134l200 -204l206 204l132 -134l-204 -204l204 -200z" />
</svg>