<svg xmlns="http://www.w3.org/2000/svg" xmlns:xlink="http://www.w3.org/1999/xlink" version="1.1" viewBox="-10 0 2068 2048">
   <path fill="currentColor"
d="M226 0q-96 0 -162 65q-64 64 -64 161v1596q0 92 67 159t159 67h1596q96 0 161 -65t65 -161v-1596q0 -91 -68 -159q-68 -67 -158 -67h-1596zM1024 202q222 0 410.5 110t299.5 301q112 191 112 411t-112 411q-110 190 -300 300q-190 111 -410.5 111t-411.5 -111
q-189 -110 -300 -300q-110 -191 -110 -411t110 -411q112 -191 300.5 -301t411.5 -110zM640 567l-202 356l178 101l202 -356zM1408 567l-178 101l202 356l178 -101zM922 1231v408h202v-408h-202z" />
</svg>