<svg xmlns="http://www.w3.org/2000/svg" xmlns:xlink="http://www.w3.org/1999/xlink" version="1.1" viewBox="-10 0 2058 2048">
   <path fill="currentColor"
d="M1396 467v1067q0 157 -109 266t-263 109t-263 -109t-109 -266v-1159q0 -95 70 -165t166 -70q94 0 162 70q68 68 68 165v976q0 40 -26 66t-65 26t-69 -26q-28 -25 -28 -66v-884h-138v884q0 97 68 164q69 67 166 67q96 0 164 -67q68 -68 68 -164v-976q0 -157 -109 -266
t-265 -109q-154 0 -263 109t-109 266v1159q0 105 40 198q39 95 110.5 166t165.5 111q94 39 198 39q140 0 256 -69q114 -68 184 -188q70 -117 70 -257v-1067h-140z" />
</svg>