<svg xmlns="http://www.w3.org/2000/svg" xmlns:xlink="http://www.w3.org/1999/xlink" version="1.1" viewBox="-10 0 2068 2048">
   <path fill="currentColor"
d="M1924 2048l-626 -622q-136 78 -302 57q-164 -21 -280 -137q-117 -117 -140 -281q-22 -167 60 -302l-636 -635l128 -128l1920 1924zM1408 662q-100 -100 -234 -130q-130 -30 -264 16l612 613q46 -134 16 -268q-29 -134 -130 -231zM1622 731q88 27 184 5q112 -27 196 -110
q-115 -115 -284 -146q65 -96 78 -197l-60 14q-68 21 -136 64q-5 -75 -44 -149q-39 -76 -102 -135q-83 82 -106 197q-22 96 0 187q95 18 170 94q73 75 104 176zM508 1280q-88 -27 -182 -5q-115 27 -198 110q115 115 284 146q-64 94 -78 197l60 -14q68 -21 136 -64
q5 72 44 148q41 78 102 135q83 -83 106 -196q22 -96 0 -188q-96 -18 -170 -93q-73 -75 -104 -176z" />
</svg>