<svg xmlns="http://www.w3.org/2000/svg" xmlns:xlink="http://www.w3.org/1999/xlink" version="1.1" viewBox="-10 0 2058 2048">
   <path fill="currentColor"
d="M1024 0q-250 0 -462 123q-214 125 -336 336q-124 214 -124 464v1125l306 -308l308 308l308 -308l308 308l306 -308l308 308v-1125q0 -249 -124 -464q-123 -211 -338 -336q-211 -123 -460 -123zM716 615q86 0 146 60t60 145q0 84 -60 144t-146 60t-146 -60t-60 -144
q0 -85 60 -145t146 -60zM1332 615q86 0 146 60t60 145q0 84 -60 144t-146 60q-88 0 -148 -60t-60 -144q0 -85 60 -145t148 -60z" />
</svg>