<svg xmlns="http://www.w3.org/2000/svg" xmlns:xlink="http://www.w3.org/1999/xlink" version="1.1" viewBox="-10 0 2058 2048">
   <path fill="currentColor"
d="M1844 1487q-189 0 -364 -58q-63 -19 -106 24l-226 226q-215 -111 -390 -286q-173 -173 -286 -391l226 -225q43 -43 24 -106q-58 -172 -58 -364q0 -43 -29 -72t-71 -29h-360q-42 0 -71 29t-29 72q0 346 132 667q132 323 375.5 566t566.5 376q320 132 666 132q42 0 71 -29
t29 -72v-359q0 -43 -29 -72t-71 -29zM1638 638l96 96l-96 96v-192zM1638 197l96 96l-96 95v-191zM1302 873l234 -235v388h48l294 -292l-222 -221l222 -220l-294 -293h-48v388l-234 -235l-72 72l282 288l-282 288z" />
</svg>