<svg xmlns="http://www.w3.org/2000/svg" xmlns:xlink="http://www.w3.org/1999/xlink" version="1.1" viewBox="-10 0 2068 2048">
   <path fill="currentColor"
d="M2048 453v-453h-454v112h-1140v-112h-454v453h112v1142h-112v453h454v-112h1140v112h454v-453h-112v-1142h112zM1706 112h230v229h-230v-229zM112 112h230v229h-230v-229zM342 1936h-230v-229h230v229zM1936 1936h-230v-229h230v229zM1706 1595h-112v112h-1140v-112h-112
v-1142h112v-112h1140v112h112v1142zM1478 571v224h-342v682h-224v-682h-340v-224h906z" />
</svg>