<svg xmlns="http://www.w3.org/2000/svg" xmlns:xlink="http://www.w3.org/1999/xlink" version="1.1" viewBox="-10 0 2068 2048">
   <path fill="currentColor"
d="M1478 1479q330 -330 349 -864q-176 387 -500 712q-320 321 -712 500q530 -15 863 -348zM569 569q-329 329 -348 864q71 -153 222 -374q137 -197 278 -338q320 -321 712 -500q-531 15 -864 348zM1938 110q87 93 106 346q20 259 -78 601q-99 346 -331 578
q-207 212 -500 311t-576 99q-342 0 -449 -107q-87 -93 -106 -346q-20 -259 78 -601q99 -346 331 -578q207 -212 500 -311t575 -99q343 0 450 107z" />
</svg>