<svg xmlns="http://www.w3.org/2000/svg" xmlns:xlink="http://www.w3.org/1999/xlink" version="1.1" viewBox="-10 0 2068 2048">
   <path fill="currentColor"
d="M0 1243v326q0 107 102 201t276 156q170 61 386 76v-316l10 -10q-212 -15 -390 -74q-176 -59 -280 -155q-104 -97 -104 -204zM872 1131q-234 0 -436 -59q-201 -58 -318 -158q-118 -99 -118 -216v326q0 117 118 216q117 100 318 158q202 59 436 59h126l418 -418
q-257 92 -544 92zM872 46q-237 0 -436 58q-201 58 -318 158q-118 99 -118 219t118 219q117 100 318 158q202 59 436 59q232 0 434 -59q201 -58 318 -158q118 -99 118 -219t-118 -219q-117 -100 -318 -158q-199 -58 -434 -58zM1848 927q-26 0 -40 20l-112 107l224 219
l106 -107q22 -21 22 -43t-22 -43l-132 -133q-14 -20 -40 -20h-6zM1634 1121l-656 657v224h224l662 -657z" />
</svg>