<svg xmlns="http://www.w3.org/2000/svg" xmlns:xlink="http://www.w3.org/1999/xlink" version="1.1" viewBox="-10 0 2068 2048">
   <path fill="currentColor"
d="M256 1454v-856h172v856h-172zM1620 1454v-856h172v856h-172zM1876 770h172v512h-172v-512zM0 1282v-512h172v512h-172zM1532 1022q0 121 -52 226q-53 107 -140 178l-64 364h-508l-64 -364q-87 -71 -140 -178q-52 -105 -52 -226t52 -224q54 -106 140 -176l64 -364h508
l64 364q86 70 140 176q52 103 52 224zM640 1022q0 160 112 272t270 112t270 -112t112 -270t-112 -270t-270 -112t-270 112t-112 268z" />
</svg>