<svg xmlns="http://www.w3.org/2000/svg" xmlns:xlink="http://www.w3.org/1999/xlink" version="1.1" viewBox="-10 0 2068 2048">
   <path fill="currentColor"
d="M1460 1024q132 0 244 -66q110 -66 176 -178t66 -244t-66 -244q-65 -111 -176 -176q-111 -64 -244.5 -64t-243.5 64q-113 66 -176 176q-64 111 -64 244t64 244q65 112 175.5 178t244.5 66zM1992 1566q-61 -54 -140 -54h-684l-202 -74l32 -90l170 64h272q52 0 86 -34
t34 -80q0 -79 -78 -110l-706 -260h-192v876l684 192l780 -292q0 -76 -56 -138zM392 928h-392v1068h392v-1068z" />
</svg>