<svg xmlns="http://www.w3.org/2000/svg" xmlns:xlink="http://www.w3.org/1999/xlink" version="1.1" viewBox="-10 0 2068 2048">
   <path fill="currentColor"
d="M700 329l-142 -141q227 -160 502 -160q239 0 438 116q203 118 320 320q120 205 120 441v663l-196 -196v-467q0 -186 -92 -343q-92 -156 -249.5 -249t-340.5 -93q-196 0 -360 109zM2048 1925l-124 123l-320 -320l-252 247l-292 -293l-292 293l-292 -293l-294 293v-1070
q0 -250 134 -466l-316 -315l124 -124zM1462 1591l-608 -613q-41 23 -86 23q-82 0 -139 -57t-57 -139q0 -46 22 -87l-136 -137q-78 151 -78 324v599l96 -96l292 293l292 -293l292 293zM1352 613q-77 0 -132 50q-55 51 -64 123l214 215q75 -9 126 -64q54 -56 54 -132
q0 -78 -57 -135t-141 -57z" />
</svg>