<svg xmlns="http://www.w3.org/2000/svg" xmlns:xlink="http://www.w3.org/1999/xlink" version="1.1" viewBox="-10 0 2067 2048">
   <path fill="currentColor"
d="M1860 1102q138 -143 175 -334q36 -191 -38.5 -372t-247.5 -293q-153 -100 -343 -103t-343 98q-134 86 -209 214q-74 126 -89 271q-25 218 -158 356l-5 4q-85 85 -88 207q-3 121 84 202l100 100q81 87 202 87q120 0 201 -87q143 -144 370 -168q226 -24 389 -182zM439 1832
q19 43 12 91q-8 51 -45 82q-43 43 -106 43t-106 -43q-44 -43 -48 -101q-57 -4 -100 -48q-44 -44 -44 -106t44 -106q31 -37 81 -45q47 -7 91 12l255 -245h5q28 44 43 58l105 100q31 37 67 53z" />
</svg>