<svg xmlns="http://www.w3.org/2000/svg" xmlns:xlink="http://www.w3.org/1999/xlink" version="1.1" viewBox="-10 0 2068 2048">
   <path fill="currentColor"
d="M1724 324v-106q0 -92 -63 -155t-149 -63h-218q-90 0 -153 63t-63 155v106h-212v-106q0 -92 -63 -155t-155 -63h-218q-86 0 -149 63t-63 155v106h-218v1512h1244q-147 -223 -166 -486q4 -161 82 -298q79 -137 216 -215q137 -79 298 -83q142 0 268 70v-500h-218zM1674 971
q-156 0 -268 111q-112 112 -112 268q0 122 96 304q68 126 182 278l102 116l96 -116q114 -152 182 -278q96 -182 96 -304q0 -157 -111 -268t-263 -111zM1674 1487q-56 0 -94 -38t-38 -91t38.5 -91t91.5 -35q55 3 90 37q38 36 40 91q4 56 -38 94q-40 37 -90 33z" />
</svg>