<svg xmlns="http://www.w3.org/2000/svg" xmlns:xlink="http://www.w3.org/1999/xlink" version="1.1" viewBox="-10 0 2068 2048">
   <path fill="currentColor"
d="M308 628v-222q0 -82 60 -142t142 -60h1028q82 0 142 60t60 142v222q-90 32 -146 112q-56 81 -56 176v212h-1028v-212q0 -95 -58 -176q-58 -80 -144 -112zM1846 714q-88 0 -148 60t-60 146v308h-1230v-308q0 -86 -60 -146t-144 -60t-144 60t-60 146v514q0 82 60 142
t142 60v208h206v-208h1230v208h208v-208q82 0 142 -60t60 -142v-514q0 -86 -60 -146t-142 -60z" />
</svg>