<svg xmlns="http://www.w3.org/2000/svg" xmlns:xlink="http://www.w3.org/1999/xlink" version="1.1" viewBox="-10 0 2068 2048">
   <path fill="currentColor"
d="M558 1164q117 0 198 -83q82 -83 82 -198t-81 -196t-197 -81q-115 0 -198 81q-82 81 -82 196t83 198t195 83zM558 789q40 0 68 28q28 29 28 66q0 36 -28 65q-28 28 -65 28t-65 -28q-30 -29 -30 -65q0 -37 30 -66q28 -28 62 -28zM1674 510h-740v745h-746v-928h-188v1394
h188v-278h1672v278h188v-836q0 -158 -108 -266q-110 -109 -266 -109zM1860 1255h-744v-558h558q78 0 132 55q54 54 54 133v370z" />
</svg>