<svg xmlns="http://www.w3.org/2000/svg" xmlns:xlink="http://www.w3.org/1999/xlink" version="1.1" viewBox="-10 0 2058 2048">
   <path fill="currentColor"
d="M700 1179q-127 0 -220 -89q-90 -88 -90 -217q0 -106 68 -187q-68 -86 -68 -192q0 -125 90 -213q93 -89 220 -89h40q36 -85 112 -139q76 -53 172 -53t172 53q76 54 112 139h40q127 0 219.5 89t92.5 213q0 105 -70 192q70 87 70 187q0 123 -92 215q-92 91 -220 91l-40 -4
q-36 85 -112 139q-76 53 -172 53t-172 -53q-76 -54 -112 -139zM1024 1170q47 0 78 -29q32 -30 32 -76l-10 -105q-50 18 -100 18t-96 -18l-14 105q0 46 32 76q31 29 78 29zM1348 983q45 0 80 -32q34 -31 34 -78q0 -32 -18 -59t-46 -41l-86 -42q-17 105 -106 179l84 55
q26 18 58 18zM1284 402l-78 55q89 75 106 178l82 -41q32 -14 50 -41t18 -59q0 -47 -34 -78q-35 -32 -80 -32q-32 0 -64 18zM1024 197q-46 0 -78 32t-32 73l14 109q46 -18 96 -18t100 18l10 -109q0 -41 -32 -73t-78 -32zM700 384q-45 0 -80 32q-34 31 -34 78q0 32 18 59
t46 41l86 41q18 -104 106 -178l-82 -55q-28 -18 -60 -18zM650 773q-28 14 -46 41t-18 59q0 47 34 78q35 32 80 32q36 0 64 -18l78 -55q-87 -69 -106 -179zM1024 2048q-238 0 -438 -117q-203 -118 -320 -320q-120 -205 -120 -441q238 0 440 119q201 119 320 320
q118 202 118 439q0 -237 120 -439q119 -202 318 -320q202 -119 440 -119q0 236 -120 441q-117 202 -320 320q-200 117 -438 117zM1262 1810q138 -52 244 -155q105 -101 158 -247q-137 56 -244 160q-107 103 -158 242zM384 1408q53 144 158 247q107 104 244 155
q-51 -139 -154 -242q-104 -104 -248 -160z" />
</svg>