<svg xmlns="http://www.w3.org/2000/svg" xmlns:xlink="http://www.w3.org/1999/xlink" version="1.1" viewBox="-10 0 2068 2048">
   <path fill="currentColor"
d="M616 306v206h306v538q-48 29 -76 78q-28 47 -28 100v102h412v-102q0 -52 -28 -100q-29 -49 -78 -78v-538h308v-206h-816zM408 1228q-165 0 -288 46q-120 46 -120 109t120 107q123 46 288.5 46t287.5 -46q122 -45 122 -107.5t-122 -108.5t-288 -46zM1638 1228
q-165 0 -288 46q-120 46 -120 109t120 107q123 46 288.5 46t287.5 -46q122 -45 122 -107.5t-122 -108.5t-288 -46zM818 1436v100q0 59 28 104q29 46 76.5 74t101 28t100.5 -28q49 -28 78 -76q28 -49 28 -102v-100h-412z" />
</svg>