<svg xmlns="http://www.w3.org/2000/svg" xmlns:xlink="http://www.w3.org/1999/xlink" version="1.1" viewBox="-10 0 2058 2048">
   <path fill="currentColor"
d="M1586 921v154q172 0 292 120t120 287q0 125 -72 226l-110 -111q28 -52 28 -115q0 -105 -76 -180q-76 -74 -182 -74v154l-232 -231zM1586 2048v-153q-168 0 -288 -120t-120 -293q0 -121 66 -225l116 110q-30 58 -30 115q0 106 76 183q74 76 180 76v-153l230 230zM870 0
q223 0 410 55q189 55 300 149q110 92 110 206q0 115 -110 207t-300 148q-187 55 -409.5 55t-410.5 -55t-298 -148q-112 -93 -112 -207q0 -113 112 -206q112 -94 298 -149q188 -55 410 -55zM50 614q0 111 112 204q112 94 298 149q188 55 410 55q166 0 322 -29
q-154 135 -202 331l-120 5q-222 0 -410 -55q-186 -55 -298 -149q-112 -93 -112 -204v-307zM1690 614v206h-114q114 -96 114 -206zM50 1127q0 111 112 204q112 94 298 149q188 55 410 55l102 -5q15 160 100 298l-202 14q-222 0 -410 -55q-186 -55 -298 -149
q-112 -93 -112 -204v-307z" />
</svg>