<svg xmlns="http://www.w3.org/2000/svg" xmlns:xlink="http://www.w3.org/1999/xlink" version="1.1" viewBox="-10 0 2068 2048">
   <path fill="currentColor"
d="M1024 0q-205 0 -392 76q-189 76 -333.5 221t-220.5 333q-78 190 -78 394q0 275 138 512q138 236 372 374t512 138t514 -138q237 -138 374 -374q138 -235 138 -512q0 -206 -80 -394q-79 -188 -223.5 -333t-332.5 -221t-388 -76zM270 678h274q58 0 97 42t39 99v134
q0 50 -32 90q-32 39 -84 45l160 275h-160l-154 -275v275h-140v-685zM954 678h276v141h-276v134h276v135h-276v140h276v135h-276q-56 0 -95 -39t-39 -96v-409q0 -57 39 -99t95 -42zM1498 678h274v141h-274v409h274v135h-274q-58 0 -96 -39q-38 -38 -38 -96v-409q0 -58 38 -99
q38 -42 96 -42zM410 819v134h134v-134h-134z" />
</svg>