<svg xmlns="http://www.w3.org/2000/svg" xmlns:xlink="http://www.w3.org/1999/xlink" version="1.1" viewBox="-10 0 2068 2048">
   <path fill="currentColor"
d="M2048 1998h-2048v-202h2048v202zM428 1516l-144 -144l144 -144l-72 -72l-144 144l-140 -144l-72 72l144 144l-144 144l72 72l140 -144l144 144zM1894 50l124 452l-100 30l-24 -40q-76 -142 -120 -182q-45 -40 -92 -48q-30 -4 -96 -4h-254v1076q0 51 4 72q4 34 24 48
q32 24 178 24v102h-616v-102q65 0 96 -4q49 -5 72 -20q26 -15 34 -48v-72v-1076h-254q-66 0 -92 4q-49 8 -90 34q-67 51 -144 226l-106 -30l124 -442h1332z" />
</svg>