<svg xmlns="http://www.w3.org/2000/svg" xmlns:xlink="http://www.w3.org/1999/xlink" version="1.1" viewBox="-10 0 2068 2048">
   <path fill="currentColor"
d="M818 202h1028q82 0 142 60t60 147v206h-346l-270 265v408l-202 207v351h-412v-351l-202 -207v-528l202 -207v-351zM1638 961v270h410v-414h-266zM472 615l144 -144v-269h-414q-82 0 -142 60t-60 147v206h472zM408 1231v-414h-408v414h408zM616 1577l-144 -144h-472v206
q0 87 60 147t142 60h414v-269zM1576 1433l-144 144v269h414q82 0 142 -60t60 -147v-206h-472z" />
</svg>