<svg xmlns="http://www.w3.org/2000/svg" xmlns:xlink="http://www.w3.org/1999/xlink" version="1.1" viewBox="-10 0 2068 2048">
   <path fill="currentColor"
d="M10 1514h168v-721h-168v721zM92 702q42 0 70 -29q26 -27 26 -67q0 -39 -26 -65q-28 -27 -68 -27t-68 27q-26 26 -26 65q0 40 26 67q28 29 66 29zM740 519q-211 0 -338 135q-128 134 -128 370q0 237 128 373q127 137 340 137q215 0 339.5 -137t124.5 -373
q0 -234 -124 -370q-125 -135 -342 -135zM740 663q135 0 212 99q76 100 76 262t-76 262q-77 99 -209.5 99t-208.5 -99q-78 -100 -78 -262t78 -262q76 -99 206 -99zM1278 1240q5 134 108 214q105 80 280 80q173 0 278 -82q104 -81 104 -221q0 -111 -68 -176q-67 -64 -216 -103
l-110 -24q-93 -20 -133.5 -51t-40.5 -79q0 -62 52 -101q52 -38 138 -38q85 0 136 40q54 41 58 109h168q-4 -131 -102.5 -210t-259.5 -79q-162 0 -265 79t-103 210q0 212 270 269l124 29q95 24 134 57q40 33 40 92q0 57 -56 96q-54 38 -144 38q-88 0 -152 -41
q-62 -40 -66 -108h-174z" />
</svg>