<svg xmlns="http://www.w3.org/2000/svg" xmlns:xlink="http://www.w3.org/1999/xlink" version="1.1" viewBox="-10 0 2068 2048">
   <path fill="currentColor"
d="M1116 654q0 153 -108 261q-110 109 -262 109t-261 -109t-109 -263q0 -155 109 -264t261 -109t262 109q108 108 108 266zM1490 1582v187h-1490v-187q0 -99 101.5 -185t272.5 -135q174 -50 372 -50t372 50q171 49 272 135q100 85 100 185zM1812 1255v140h-138v-140h138z
M1630 793h-140v-48q0 -117 82 -198q80 -80 196 -80t198 80q82 81 82 198q0 67 -32 127q-34 62 -90 96l-26 17q-88 61 -88 161v18h-138v-18q0 -82 38 -156q40 -74 110 -118l26 -18q60 -39 60 -109q0 -57 -41 -98t-99 -41q-60 0 -98 41q-40 43 -40 98v48z" />
</svg>