<svg xmlns="http://www.w3.org/2000/svg" xmlns:xlink="http://www.w3.org/1999/xlink" version="1.1" viewBox="-10 0 2058 2048">
   <path fill="currentColor"
d="M1364 1389l280 165l-74 119l-352 -211v-489h146v416zM2000 1362q0 188 -92 345q-91 157 -248 249q-159 92 -346 92q-167 0 -316 -80q-147 -79 -240 -213q-198 -14 -360 -66q-162 -53 -256 -140q-94 -88 -94 -187v-293q0 138 168 243q167 106 422 137q-4 -62 -4 -87
q0 -46 8 -110q-254 -31 -424 -137q-170 -105 -170 -238v-292q0 100 94 185q92 83 256 139q161 55 360 64q86 -127 218 -201q-91 5 -146 5q-212 0 -392 -53q-176 -52 -284 -142q-106 -89 -106 -194t106 -194q108 -90 284 -142t390 -52t390 52t284 142q106 89 106 194
q0 86 -71 161.5t-195 131.5q110 5 210 45q56 -73 56 -141v164q176 82 284 247q108 163 108 366zM1804 1362q0 -132 -66 -245q-66 -111 -178 -176q-112 -64 -246 -64q-132 0 -244 64q-111 64 -176 176q-64 112 -64 245q0 132 64 244q66 114 176 179q113 66 244 66
q133 0 246 -66q111 -65 178 -179q66 -112 66 -244z" />
</svg>