<svg xmlns="http://www.w3.org/2000/svg" xmlns:xlink="http://www.w3.org/1999/xlink" version="1.1" viewBox="-10 0 2058 2048">
   <path fill="currentColor"
d="M1231 0h-822q-86 0 -146 60q-61 61 -61 142v1644q0 81 61 142q60 60 146 60h1230q87 0 147 -60t60 -142v-1231zM1639 1846h-1230v-1644h716v514h514v1130zM1111 1332q-39 -107 -135 -164q-97 -57 -207 -38q-111 20 -185 105q-74 86 -74 200t74 197q75 84 185 103
q111 19 207 -36q96 -56 135 -161h120v202h202v-202h105v-206h-427zM818 1538q-45 0 -73 -31t-28 -74q0 -45 28 -73t73 -28q43 0 74 28t31 73q0 43 -31 74t-74 31z" />
</svg>