<svg xmlns="http://www.w3.org/2000/svg" xmlns:xlink="http://www.w3.org/1999/xlink" version="1.1" viewBox="-10 0 2058 2048">
   <path fill="currentColor"
d="M1156 1505l294 -289l72 72l-366 366l-216 -221l72 -73zM412 1947q-88 0 -148 -60t-60 -147v-1024q0 -86 60 -146t148 -60v1437zM512 510h514v-308q-86 0 -146 -60t-60 -142h408v817q167 0 310 84q143 85 224 226q82 144 82 308t-82 308q-81 141 -224 223q-145 82 -310 82
q-181 0 -336 -101h-380v-1437zM1228 1024q-168 0 -288 120t-120 291t120 291t291 120t291 -120t120 -291t-120 -291t-294 -120z" />
</svg>