<svg xmlns="http://www.w3.org/2000/svg" xmlns:xlink="http://www.w3.org/1999/xlink" version="1.1" viewBox="-10 0 2065 2048">
   <path fill="currentColor"
d="M1125 1636h105q44 0 72 31q29 32 29 74h714v202h-714q0 42 -29 74q-28 31 -72 31h-412q-44 0 -72 -31q-29 -32 -29 -74h-714v-202h714q0 -42 29 -74q28 -31 72 -31h106v-202h-720q-43 0 -71 -31q-29 -32 -29 -74v-408q0 -43 29 -72t71 -29h1640q43 0 72 29t29 72v408
q0 42 -29 74q-28 31 -72 31h-719v202zM204 0h1640q43 0 72 29t29 72v412q0 43 -29 72t-72 29h-1640q-42 0 -71 -29t-29 -72v-412q0 -43 29 -72t71 -29zM717 408h101v-202h-101v202zM717 1228h101v-206h-101v206zM310 206v202h201v-202h-201zM310 1022v206h201v-206h-201z
" />
</svg>