<svg xmlns="http://www.w3.org/2000/svg" xmlns:xlink="http://www.w3.org/1999/xlink" version="1.1" viewBox="-10 0 2068 2048">
   <path fill="currentColor"
d="M1846 1332q-12 12 -20 24q-19 24 -24 53q0 35 28 67q39 38 126 62l-288 284h-284l-28 5q-36 5 -56 24q-22 20 -22 62q5 53 54 135h-410l-206 -202l-24 -19q-23 -19 -52 -24q-35 0 -68 29q-38 38 -62 125l-284 -289v-283l-4 -29q-5 -35 -24 -56q-20 -21 -64 -21
q-52 4 -134 53v-409l202 -207l20 -24q17 -22 20 -55q3 -31 -30 -60q-41 -35 -130 -58l284 -293h298l28 -5q35 -5 55.5 -24t20.5 -62q-4 -55 -52 -135h408l208 202l24 19q23 19 52 19q34 5 68 -29q38 -38 62 -129l284 283v298l4 29q5 35 24 56q20 21 62 21q54 -5 136 -53v409
zM1230 1024q0 -87 -60 -147t-146 -60t-146 60t-60 147t60 147t146 60t146 -60t60 -147z" />
</svg>