<svg xmlns="http://www.w3.org/2000/svg" xmlns:xlink="http://www.w3.org/1999/xlink" version="1.1" viewBox="-10 0 2068 2048">
   <path fill="currentColor"
d="M1404 202q135 0 235 67q178 120 207 327q4 102 -27 195q-32 94 -103 161q-111 111 -264 130q-302 28 -495 226q-24 24 -58 24q-33 0 -57 -24l-101 -101q-24 -24 -24 -58t33 -67q187 -192 216 -481q8 -98 63 -188q52 -87 144 -144q99 -67 231 -67zM1404 0q-187 0 -341 96
q-134 86 -209 214q-74 125 -89 272q-24 215 -159 355l-5 5q-86 86 -89 207t84 202l101 101q80 86 202 86t202 -86q144 -144 370 -168q225 -24 389 -183q140 -145 176 -334q36 -190 -39 -373q-75 -182 -247 -293q-156 -101 -346 -101zM438 1832q19 43 12 91q-8 50 -46 82
q-43 43 -105 43q-63 0 -106 -43q-44 -43 -48 -101q-58 -5 -101 -48t-43 -106t43 -106q32 -38 82 -46q47 -7 91 12l255 -245h4q26 41 44 58l105 101q30 36 68 53z" />
</svg>