<svg xmlns="http://www.w3.org/2000/svg" xmlns:xlink="http://www.w3.org/1999/xlink" version="1.1" viewBox="-10 0 2068 2048">
   <path fill="currentColor"
d="M308 305q-86 0 -146 60t-60 147v409q0 86 60 146t146 60h614v202h-104q-38 0 -70 32q-32 31 -32 74h-716v202h716q0 43 32 74q32 32 70 32h412q38 0 70 -32t32 -74h716v-202h-716q0 -42 -32 -74t-70 -32h-106v-202h616q86 0 146 -60t60 -146v-409q0 -87 -60 -147
t-146 -60h-1432zM408 613h208v207h-208v-207zM768 613h202v207h-202v-207zM1124 613h208v207h-208v-207z" />
</svg>