<svg xmlns="http://www.w3.org/2000/svg" xmlns:xlink="http://www.w3.org/1999/xlink" version="1.1" viewBox="-10 0 2058 2048">
   <path fill="currentColor"
d="M1782 1087v-657q0 -116 -116 -215q-116 -98 -316 -157q-198 -58 -432 -58t-432 58q-202 59 -316 157q-116 98 -116 215v1082q0 117 116 215q114 98 316 157q198 58 432 58q91 0 141 -5q-35 -104 -35 -212v-5q-33 5 -106 5q-190 0 -354 -41q-131 -36 -217 -96
q-76 -45 -76 -76v-243q273 132 647 132q106 0 202 -10q87 -143 233 -228q148 -86 318 -86q48 0 111 10zM1565 1022q-106 76 -278 121q-176 46 -369 46t-369 -46q-172 -45 -278 -121v-304q120 65 291 106q172 41 356 41t356 -41q171 -41 291 -106v304zM918 647
q-192 0 -354 -45q-132 -36 -217 -91q-76 -45 -76 -78q0 -34 76 -79q86 -60 217 -96q160 -40 354 -40t354 40q131 36 217 96q76 45 76 79q0 33 -76 78q-85 55 -217 91q-162 45 -354 45zM1994 1618h-212v430h-217v-430h-217l323 -323z" />
</svg>