<svg xmlns="http://www.w3.org/2000/svg" xmlns:xlink="http://www.w3.org/1999/xlink" version="1.1" viewBox="-10 0 2068 2048">
   <path fill="currentColor"
d="M1966 125q34 0 58 26q24 27 24 60v1625q0 34 -24 61q-24 26 -58 26h-1370q-34 0 -60 -26t-26 -61v-298h-428q-34 0 -58 -26q-24 -27 -24 -60v-856q0 -33 24 -60q24 -26 58 -26h428v-299q0 -34 26 -60t60 -26h1370zM514 957l126 403h138l136 -673h-146l-76 399l-116 -384
h-114l-126 384l-76 -399h-150l136 673h138zM1922 1793v-255h-1282v255h1282zM1922 1409v-323h-898v323h898zM1922 961v-322h-898v322h898zM1922 510v-255h-1282v255h1282z" />
</svg>