<svg xmlns="http://www.w3.org/2000/svg" xmlns:xlink="http://www.w3.org/1999/xlink" version="1.1" viewBox="-10 0 2068 2048">
   <path fill="currentColor"
d="M1024 0q200 0 392 77q188 76 334 221l-144 144q-118 -113 -270 -178q-147 -62 -312.5 -62t-315.5 62q-150 63 -266 178l-144 -144q146 -145 334 -221q192 -77 392 -77zM168 461l150 145q-116 197 -116 417.5t110 411.5q111 190 300 300q191 111 411.5 111t410.5 -111
q190 -110 300 -300q112 -191 112 -411.5t-116 -417.5l148 -145q170 257 170 563q0 200 -78 392q-75 189 -220.5 334t-333.5 221q-192 77 -392 77t-392 -77q-188 -76 -333.5 -221t-220.5 -334q-78 -192 -78 -392q0 -308 168 -563zM1024 409q167 0 310 81q141 80 222 224
q82 144 82 310q0 120 -48 236q-48 118 -134 197l-144 -145q-122 121 -289 121t-287 -121l-144 145q-87 -81 -136 -197q-48 -116 -48 -236q0 -166 82 -310t224 -224q142 -81 310 -81zM1024 615q-44 0 -73 29t-29 72t29 72t72 29t72 -29t29 -72t-29 -72t-71 -29z" />
</svg>