<svg xmlns="http://www.w3.org/2000/svg" xmlns:xlink="http://www.w3.org/1999/xlink" version="1.1" viewBox="-10 0 2058 2048">
   <path fill="currentColor"
d="M390 1654l488 -484l182 183q-86 139 -86 301h-584zM682 827q0 -59 -42 -103q-40 -43 -102 -43t-105 43t-43 103t43 103t105 43t102 -43q42 -44 42 -103zM984 1755h-690v-1563h680v489h490v397q60 -9 98 -9t98 9v-493l-586 -585h-780q-84 0 -141 57t-57 135v1563
q0 78 57 135t141 57h762q-54 -90 -72 -192zM1464 1266v292h-294v197h294v293h196v-293h292v-197h-292v-292h-196z" />
</svg>