<svg xmlns="http://www.w3.org/2000/svg" xmlns:xlink="http://www.w3.org/1999/xlink" version="1.1" viewBox="-10 0 2068 2048">
   <path fill="currentColor"
d="M1846 1180q0 -114 -46 -160t-162 -46h-206v-102q0 -56 -8 -76q-7 -20 -50 -24q-36 -6 -144 -6v924h408q116 0 162 -46t46 -156v-308zM1024 974q0 -116 -46 -162t-160 -46h-410q-114 0 -160 46t-46 162v716h206v-308h410v308h206v-716zM818 460h412v-202h-412v202z
M2048 666v1130q0 82 -60 142t-142 60h-1644q-82 0 -142 -60t-60 -142v-1130q0 -86 60 -146t142 -60h414v-202l202 -208h412l202 208v202h414q82 0 142 60t60 146zM1432 1488h206v-308h-206v308zM408 974h410v206h-410v-206z" />
</svg>