<svg xmlns="http://www.w3.org/2000/svg" xmlns:xlink="http://www.w3.org/1999/xlink" version="1.1" viewBox="-10 0 2068 2048">
   <path fill="currentColor"
d="M1961 550q-11 16 -34 38q-40 47 -40 70t45 78l14 24l25 20q43 49 54 64q25 36 22 66q-3 33 -37 78q-21 26 -73 78l-428 428l-147 -134l442 -442l-108 -104l-148 148l-398 -402l423 -398q30 -30 71 -30q42 0 76 30l241 240q30 34 30 82q0 46 -30 66zM104 1622l1007 -1008
l388 398l-997 1008h-398v-398zM521 28v314h315v208h-315v314h-206v-314h-315v-208h315v-314h206z" />
</svg>