<svg xmlns="http://www.w3.org/2000/svg" xmlns:xlink="http://www.w3.org/1999/xlink" version="1.1" viewBox="-10 0 2068 2048">
   <path fill="currentColor"
d="M1023.5 236q-279.5 0 -513.5 91q-237 92 -372 250q-138 160 -138 346q0 165 110 308q112 144 304 240q193 97 428 125v216h350v-216q129 -15 244 -48l146 264h394l-242 -399q152 -98 232 -223q82 -129 82 -267q0 -186 -138 -346q-135 -158 -372 -250q-235 -91 -514.5 -91
zM1182 500q338 0 534 115q210 120 210 356q0 255 -244 375q-19 -9 -24 -14q-28 -10 -96 -34l48 -10q55 -16 100 -43q67 -33 106 -96q48 -77 48 -180q0 -104 -48 -176q-44 -59 -110 -91q-52 -24 -110 -39l-48 -4h-706v735q-197 -57 -318 -171q-120 -113 -120 -245
q0 -131 104 -240t282 -173q182 -65 392 -65zM1196 909h212l24 4q28 4 50 27q22 22 22 65q0 62 -48 86q-24 15 -48 15h-212v-197zM1192 1360h96q18 0 44 25q11 7 38 43q-72 14 -178 14v-82z" />
</svg>