<svg xmlns="http://www.w3.org/2000/svg" xmlns:xlink="http://www.w3.org/1999/xlink" version="1.1" viewBox="-10 0 2068 2048">
   <path fill="currentColor"
d="M1154 125q116 0 234 34q114 33 218 91q99 56 182 139q82 82 138 181q59 101 90 214q32 117 32 240t-32 240q-31 113 -90 214q-56 99 -138 181q-83 83 -182 139q-104 58 -218 91q-118 34 -234 34q-115 0 -216 -26q-113 -29 -200 -77q-96 -52 -176 -123q-82 -73 -148 -159
h-332q-34 0 -58 -26q-24 -27 -24 -60v-856q0 -33 24 -60q24 -26 58 -26h332q66 -86 148 -159q80 -71 176 -123q87 -48 200 -77q101 -26 216 -26zM1216 260v701h702q-16 -144 -72 -264q-57 -118 -152 -214q-95 -95 -216 -154q-124 -60 -262 -69zM768 904q0 -58 -20 -99
q-20 -38 -56 -67q-32 -26 -80 -39q-45 -12 -102 -12h-270v673h158v-235h106q48 0 96 -15q53 -16 84 -40q37 -27 60 -70q24 -44 24 -96zM1154 1793q103 0 192 -26q92 -27 174 -70q86 -44 152 -108q66 -63 120 -142q53 -77 84 -168q33 -93 42 -193h-828v-826q-150 9 -280 76
q-132 68 -228 174h356q34 0 60 26t26 60v856q0 34 -26 60t-60 26h-356q55 60 120 106q70 50 140 82q74 34 150 50q82 17 162 17zM496 817q48 0 76 19q28 20 28 73q0 23 -8 38q-9 14 -28 24q-16 9 -36 12q-13 2 -38 2h-92v-168h98z" />
</svg>