<svg xmlns="http://www.w3.org/2000/svg" xmlns:xlink="http://www.w3.org/1999/xlink" version="1.1" viewBox="-10 0 2068 2048">
   <path fill="currentColor"
d="M616 185q-180 125 -414 140h-202v202h202q210 0 414 -101q192 101 408 101t408 -101q185 92 414 101h202v-202h-202q-216 0 -414 -140q-187 135 -408 135t-408 -135zM1432 700l-100 134v207h-102l-206 207h-308l-308 202l-100 -202h-106v202l-202 105l202 101v207h120
l86 -207l308 207h1130q82 0 142 -60t60 -147v-206q0 -82 -60 -142t-142 -60h-208l-100 -106v-101h-106v-207h106v-134h-106z" />
</svg>