<svg xmlns="http://www.w3.org/2000/svg" xmlns:xlink="http://www.w3.org/1999/xlink" version="1.1" viewBox="-10 0 2058 2048">
   <path fill="currentColor"
d="M845 359q-347 0 -500 58q-209 84 -209 296v889q0 120 88 200v158q0 34 27 61t60 27h92q34 0 61 -27t27 -61v-91h713v91q0 35 25 61q25 27 62 27h88q37 0 64 -27t27 -61v-158q88 -80 88 -200v-889q0 -212 -209 -296q-158 -58 -504 -58zM445 1693q-55 0 -94 -39
q-40 -40 -40 -96t40 -94t96 -38t94 38q37 37 37 94q0 58 -37 96q-37 39 -96 39zM1245 1693q-55 0 -94 -39t-39 -96q0 -56 39 -94q40 -38 96 -38t94 38t38 94t-38 96q-37 39 -96 39zM1379 1160h-1068v-447h1068v447zM1912 359v888q0 117 -87 196v159q0 37 -27 64t-61 27h-12
q12 -50 12 -91v-889q0 -241 -171 -375q-133 -105 -371 -138q-134 -21 -350 -21q-192 0 -313 17q66 -117 255 -159q144 -37 417 -37q346 0 500 63q208 79 208 296z" />
</svg>