<svg xmlns="http://www.w3.org/2000/svg" xmlns:xlink="http://www.w3.org/1999/xlink" version="1.1" viewBox="-10 0 2058 2048">
   <path fill="currentColor"
d="M1738 206q86 0 146 60t60 146v1430q0 86 -60 146t-146 60h-1428q-86 0 -146 -60t-60 -146v-1430q0 -86 60 -146t146 -60h426q33 -91 112 -148q81 -58 175.5 -58t174.5 58q81 58 114 148h426zM1024 206q-44 0 -72 29q-28 28 -28 72q0 43 28 74t71.5 31t72.5 -31
q28 -32 28 -74q0 -43 -29 -72t-71 -29zM510 614v-202h-200v1430h1428v-1430h-202v202h-1026zM1024 1741l-514 -513h308v-408h412v408h306z" />
</svg>