<svg xmlns="http://www.w3.org/2000/svg" xmlns:xlink="http://www.w3.org/1999/xlink" version="1.1" viewBox="-10 0 2058 2048">
   <path fill="currentColor"
d="M1530 772l140 -305l-380 -40q86 72 140 179q35 75 64 157q-96 -18 -160 -18h-36q-56 -125 -170 -202q-111 -76 -256 -76q-132 0 -238 61q-107 62 -168 167q-60 106 -60 238q0 142 76 257q76 113 202 170v35q0 179 88 329q86 150 236 237q148 87 326 87t328 -87t237 -237
t87 -329q0 -215 -128 -386q-127 -171 -328 -237zM1334 1861q-128 0 -234 -61q-106 -62 -168 -168q-60 -104 -60 -235t60 -235q62 -106 168 -168q106 -61 236 -61t236 61q104 61 166 168q62 106 62 235t-62 235q-62 107 -166 168q-106 61 -238 61zM1382 1417l270 156l-74 109
l-336 -191v-467h140v393zM872 279q-74 0 -226 39l226 -318l222 318q-148 -39 -222 -39zM306 1255q58 102 148 179l-384 -39l170 -353q14 132 66 213zM228 820l-166 -353l392 -27q-77 59 -148 166q-60 102 -78 214z" />
</svg>