<svg xmlns="http://www.w3.org/2000/svg" xmlns:xlink="http://www.w3.org/1999/xlink" version="1.1" viewBox="-10 0 2068 2048">
   <path fill="currentColor"
d="M1924 2048l124 -123l-1924 -1925l-124 124l672 672v987q-82 0 -139 57t-57 135h1170q0 -77 -58 -135q-58 -57 -140 -57v-206zM886 1010l262 261q-42 23 -88 23q-82 0 -139 -57t-57 -140q0 -46 22 -87zM982 613l-270 -270q36 -76 104 -130q67 -54 148 -76v-109h192v109
q104 27 180 103t98 176h212v197h-664zM1742 905v96h100v197h-100v96h-78l-114 -119v-270h192zM380 1294v-96h-102v-197h102v-96h192v389h-192zM1448 1079l-370 -370h370v370z" />
</svg>