<svg xmlns="http://www.w3.org/2000/svg" xmlns:xlink="http://www.w3.org/1999/xlink" version="1.1" viewBox="-10 0 2068 2048">
   <path fill="currentColor"
d="M1024 255q-279 0 -514 48q-233 47 -372 130q-138 81 -138 180t138 180q139 83 372 130q235 48 513.5 48t514.5 -48q234 -48 372 -130q138 -81 138 -180t-138 -180q-138 -82 -372 -130q-236 -48 -514 -48zM0 947v485q0 97 138 181q136 84 371.5 132t514 48t514.5 -48
t372 -132q138 -84 138 -181v-485q-94 66 -232 110q-334 121 -792.5 121t-793.5 -121q-135 -44 -230 -110z" />
</svg>