<svg xmlns="http://www.w3.org/2000/svg" xmlns:xlink="http://www.w3.org/1999/xlink" version="1.1" viewBox="-10 0 2068 2048">
   <path fill="currentColor"
d="M2048 1492v344q0 46 -38 80q-39 34 -90 34h-534q-46 0 -83 -37t-37 -87v-342q0 -46 38 -84q36 -36 82 -36v-146q0 -101 82 -172q83 -70 188 -70q104 0 188 70q86 72 86 172v146q46 0 82 39t36 89zM1802 1218q0 -55 -42 -90q-39 -34 -102 -34t-106 34q-44 35 -44 90v146
h294v-146zM1560 294h-1368v1362h878v198h-878q-76 0 -134 -58t-58 -140v-1362q0 -80 58 -138t134 -58h1368q82 0 139 57t57 139v494l-100 -8l-96 8v-494zM682 588l488 388l-488 388v-776z" />
</svg>