<svg xmlns="http://www.w3.org/2000/svg" xmlns:xlink="http://www.w3.org/1999/xlink" version="1.1" viewBox="-10 0 2068 2048">
   <path fill="currentColor"
d="M2048 254v-172l-192 -24q-70 -4 -150 -4q-297 0 -512 82q-217 84 -344 236q-203 -126 -504 -126q-66 0 -118 4l-46 4l-182 32l10 164q4 178 62 350q68 214 200 342q163 154 396 154h18v328q-229 32 -476 106q-118 38 -200 72v192h1936v-192l-90 -36q-141 -47 -246 -74
q-180 -45 -340 -68v-310q282 -4 472 -200q153 -157 236 -428q70 -219 70 -432zM978 1606h-96v-542l-8 -54q-15 -61 -36 -114q-31 -71 -88 -114q-68 -50 -158 -50l22 18q24 20 54 56q37 49 60 108q33 88 46 178q-40 10 -106 10q-153 0 -264 -102q-86 -82 -136 -222
q-42 -110 -54 -228l-14 -100l42 -4q44 -4 104 -4q189 0 322 50q192 78 250 250q32 -287 324 -410q188 -86 464 -86q87 0 146 8l-6 92q-8 114 -36 218q-30 142 -90 260q-74 141 -182 214q-127 90 -296 90h-68q0 -118 96 -314q45 -87 94 -168q-181 58 -254 274
q-36 109 -36 200v486h-96z" />
</svg>