<svg xmlns="http://www.w3.org/2000/svg" xmlns:xlink="http://www.w3.org/1999/xlink" version="1.1" viewBox="-10 0 2068 2048">
   <path fill="currentColor"
d="M1004 971h-216v-336h254q98 0 150 40q52 41 52 125q0 85 -62 128t-178 43zM1038 1086h-250v375h264q246 0 246 -187q0 -188 -260 -188zM2048 336v1375q0 139 -99 238t-239 99h-1374q-138 0 -238 -99q-98 -98 -98 -238v-1375q0 -139 98 -237q100 -99 238 -99h1374
q140 0 239 99t99 237zM1432 1279q0 -106 -64 -176q-65 -69 -172 -84v-5q80 -16 130 -81q54 -68 54 -154q0 -115 -84 -190t-220 -75h-418v1063h414q167 0 264 -80q96 -80 96 -218z" />
</svg>