<svg xmlns="http://www.w3.org/2000/svg" xmlns:xlink="http://www.w3.org/1999/xlink" version="1.1" viewBox="-10 0 2068 2048">
   <path fill="currentColor"
d="M266 136v534h-174v-534h174zM92 1912v-534h174v534h-174zM358 1024q0 74 -52 126q-52 54 -126 54t-128 -54q-52 -52 -52 -127t52 -127t127 -52t127 52t52 128zM2048 490v1068q0 74 -54 126q-52 52 -126 52h-1068q-70 0 -122 -52t-52 -126v-354l-180 -180l180 -180v-354
q0 -76 52 -128t122 -52h1068q74 0 126 52q54 54 54 128zM1380 1336h-134v134h134v-134zM1200 890v-46q0 -54 40 -94t96 -40t94 40q38 39 38 94q0 67 -54 104l-26 18q-68 48 -104 114q-38 69 -38 148v16h134v-16q0 -97 80 -150l28 -16q56 -39 84 -94q28 -58 28 -124
q0 -107 -76 -188q-77 -78 -187.5 -78t-189.5 79t-79 187v46h132z" />
</svg>