<svg xmlns="http://www.w3.org/2000/svg" xmlns:xlink="http://www.w3.org/1999/xlink" version="1.1" viewBox="-10 0 2058 2048">
   <path fill="currentColor"
d="M1231 0h-822q-86 0 -146 60q-61 61 -61 142v1644q0 81 61 142q60 60 146 60h1230q87 0 147 -60t60 -142v-1231zM1639 1846h-1230v-1644h716l514 514v1130zM1538 1149q0 136 -67 248q-68 113 -178 177q-112 65 -245 65q-149 0 -269 -81q-121 -82 -178 -212h168
q47 66 121 106q70 38 158 38q145 0 243 -98t98 -241t-98 -242q-99 -101 -243 -101q-97 0 -175 50q-81 52 -128 137l159 154h-394v-389l130 129q67 -105 173 -166q105 -60 238 -60q130 0 242 65q109 64 178 178q67 112 67 243z" />
</svg>