<svg xmlns="http://www.w3.org/2000/svg" xmlns:xlink="http://www.w3.org/1999/xlink" version="1.1" viewBox="-10 0 2068 2048">
   <path fill="currentColor"
d="M1538 510h510v1028h-510v202q0 43 28 75q29 31 72 31h208v202h-260q-44 0 -98 -31q-56 -31 -56 -70q0 38 -52 70q-52 31 -102 31h-254v-202h206q44 0 72 -31q30 -32 30 -75v-1432q0 -43 -30 -75q-28 -31 -72 -31h-206v-202h254q50 0 102 31q52 32 52 70q0 -39 56 -70
q54 -31 98 -31h260v202h-208q-43 0 -72 31q-28 32 -28 75v202zM0 510h1124v206h-922v616h922v206h-1124v-1028zM1846 1332v-616h-308v616h308z" />
</svg>