<svg xmlns="http://www.w3.org/2000/svg" xmlns:xlink="http://www.w3.org/1999/xlink" version="1.1" viewBox="-10 0 2068 2048">
   <path fill="currentColor"
d="M1790 0h-1532q-108 0 -183 75t-75 183v1533q0 107 75 182t183 75h1532q108 0 183 -75t75 -182v-1533q0 -108 -75 -183t-183 -75zM766 833h-316v383h124v-192h192v216q0 66 -48 117q-47 50 -120 50h-172q-73 0 -120 -50q-48 -51 -48 -117v-431q0 -66 48 -117t120 -51h172
q72 0 120 51t48 117v24zM1150 1407h-192v-766h192v766zM1724 833h-192v125h192v192h-192v257h-192v-766h384v192z" />
</svg>