<svg xmlns="http://www.w3.org/2000/svg" xmlns:xlink="http://www.w3.org/1999/xlink" version="1.1" viewBox="-10 0 2068 2048">
   <path fill="currentColor"
d="M1724 1565h324l-430 430l-430 -430h324v-1512h212v1512zM648 1130h-430q-90 0 -154 63q-64 64 -64 155v430q0 90 64 154q64 63 154 63h430q92 0 155 -63t63 -154v-430q0 -92 -63 -155t-155 -63zM354 1833l-272 -273l116 -116l156 162l314 -314l116 116zM648 53h-430
q-90 0 -154 63q-64 64 -64 155v429q0 91 64 155q64 63 154 63h430q92 0 155 -63t63 -155v-429q0 -92 -63 -155t-155 -63zM648 700h-430v-429h430v429z" />
</svg>