<svg xmlns="http://www.w3.org/2000/svg" xmlns:xlink="http://www.w3.org/1999/xlink" version="1.1" viewBox="-10 0 2068 2048">
   <path fill="currentColor"
d="M940 1280h168v172h-168v-172zM940 596h168v512h-168v-512zM1024 256q-208 0 -384 104t-280 280t-104 384t104 384t280 280t384 104t384 -104t280 -280t104 -384t-104 -384t-280 -280t-384 -104zM1024 1620q-159 0 -298 -80q-138 -80 -218 -218q-80 -139 -80 -298t80 -298
q80 -138 218 -218q139 -80 298 -80t298 80q138 80 218 218q80 139 80 298t-80 298q-80 138 -218 218q-139 80 -298 80zM1748 1748q143 -139 222 -328q78 -188 78 -396t-78 -396q-79 -189 -222 -328l-92 92q123 123 194 288q70 162 70 344t-70 344q-71 165 -194 288z
M392 1656q-123 -123 -194 -288q-70 -162 -70 -344t70 -344q71 -165 194 -288l-92 -92q-143 139 -222 328q-78 188 -78 396t78 396q79 189 222 328z" />
</svg>