<svg xmlns="http://www.w3.org/2000/svg" xmlns:xlink="http://www.w3.org/1999/xlink" version="1.1" viewBox="-10 0 2066 2048">
   <path fill="currentColor"
d="M1830 104q-43 -72 -124 -96t-158 20l-1042 604q-48 -14 -96 -14q-128 0 -217 89t-89 218v921q-44 0 -73 29t-29 72v101h816v-101q0 -43 -29 -72t-71 -29v-864l1036 -599q71 -43 92 -125q22 -84 -16 -154zM410 1078q-62 0 -108 -45q-46 -46 -46 -111q0 -62 46 -107
q46 -44 108.5 -44t107.5 44q46 44 46 107q0 66 -45 111t-109 45zM862 781l-236 -101l134 -77l236 101zM1216 579l-234 -105l128 -77l236 106zM1572 373l-236 -101l130 -77l234 101zM1538 1846l-514 -513h308v-408h408v408h306z" />
</svg>