<svg xmlns="http://www.w3.org/2000/svg" xmlns:xlink="http://www.w3.org/1999/xlink" version="1.1" viewBox="-10 0 2058 2048">
   <path fill="currentColor"
d="M1115 105v-9q0 -38 -26 -67t-65 -29t-65 29t-26 67v9q-201 30 -332 185q-130 154 -130 360v745q0 210 130 364q131 155 332 185v9q0 38 26 67q25 28 65 28t65 -28q26 -29 26 -67v-9q200 -30 331 -185t131 -364v-745q4 -207 -128 -360q-134 -155 -334 -185zM1394 654h-91
v-244q91 109 91 244zM1211 1717q-86 52 -187 52t-187 -52v-322h374v322zM837 1303v-558h374v558h-374zM745 1303h-91v-558h91v558zM837 332q88 -53 187 -53t187 53v322h-374v-322zM1303 745h91v558h-91v-558zM745 410v244h-91v-4q0 -136 91 -240zM654 1395h91v244
q-91 -104 -91 -240v-4zM1303 1639v-244h91q0 135 -91 244z" />
</svg>