<svg xmlns="http://www.w3.org/2000/svg" xmlns:xlink="http://www.w3.org/1999/xlink" version="1.1" viewBox="-10 0 2068 2048">
   <path fill="currentColor"
d="M1721 5q182 33 264 149q66 99 62 260v-5l-115 1533l-1513 101q-162 -4 -255 -58q-159 -96 -163 -350l139 -255l283 658l241 -778h-5h5l788 250l-202 -798l754 -48l-596 -486zM1 1630v5v-5zM438 433q151 -153 322 -255q169 -101 310 -125t213 51t53 211q-20 139 -115 301
q-93 159 -250 314q-151 150 -322 255q-167 103 -307 130q-139 27 -214 -48t-55.5 -214t115.5 -305q95 -164 250 -315z" />
</svg>