<svg xmlns="http://www.w3.org/2000/svg" xmlns:xlink="http://www.w3.org/1999/xlink" version="1.1" viewBox="-10 0 2068 2048">
   <path fill="currentColor"
d="M1432 202q0 -82 60 -142t146 -60q88 0 148 60t60 144q0 85 -60 145t-148 60q-86 0 -146 -60t-60 -147zM1922 572q-132 -62 -284 -62q-102 0 -196 28q96 92 96 222v57h510v-57q0 -60 -34 -113q-33 -50 -92 -75zM408 409q88 0 148 -60t60 -145q0 -84 -60 -144t-148 -60
q-86 0 -146 60q-60 61 -60 144q0 84 60 145q60 60 146 60zM606 538q-95 -28 -198 -28q-150 0 -282 62q-60 25 -92 75q-34 51 -34 113v57h510v-57q0 -130 96 -222zM818 202q0 -82 60 -142t146 -60t146 60t60 144q0 85 -60 145t-146 60t-146 -60t-60 -147zM1432 817h-816v-57
q0 -62 32 -113q33 -50 92 -75q133 -62 284 -62t284 62q58 25 90 75q34 53 34 113v57zM1332 1433q0 -82 60 -142t144 -60t144 60t60 144t-60 144t-144 60t-144 -60t-60 -146zM1946 2048h-822v-58q0 -62 36 -113q35 -49 90 -74q139 -63 288 -63q148 0 284 63q59 25 90 74
q34 53 34 113v58zM308 1433q0 -82 60 -142t144 -60t144 60t60 144t-60 144t-144 60t-144 -60t-60 -146zM922 2048h-820v-58q0 -62 32 -113q32 -49 92 -74q134 -63 284 -63q148 0 288 63q54 25 88 74q36 51 36 113v58zM1100 1231v202h-154v-202h-230l308 -308l308 308h-232z
" />
</svg>