<svg xmlns="http://www.w3.org/2000/svg" xmlns:xlink="http://www.w3.org/1999/xlink" version="1.1" viewBox="-10 0 2058 2048">
   <path fill="currentColor"
d="M1494 769q44 -123 44 -207q0 -152 -70 -283q-67 -128 -188 -205q-115 -74 -256.5 -74t-257.5 74q-118 76 -186 205q-70 132 -70 283q0 127 42 207q-191 4 -322 130q-128 125 -128 312q0 188 132 308t328 120l72 -4q78 -4 150 -25q90 -28 138 -72v34q0 53 -14 106
q-19 75 -62 163q-48 101 -130 207h616q-151 -194 -194 -370q-18 -88 -14 -140q49 44 140 72q71 21 148 25l72 4q198 0 330 -120t132 -308q0 -187 -130 -312.5t-322 -129.5zM1484 1433h-72q-79 -9 -148 -29q-91 -28 -140 -72h-202q-67 63 -220 91q-86 10 -140 10
q-100 0 -172 -53q-82 -64 -82 -166q0 -104 74 -173q77 -70 180 -70q30 0 134 24q6 0 16 5t14 5l92 -178q-20 -20 -40 -58q-62 -94 -62 -207q0 -148 88.5 -254t219 -106t218.5 106q90 107 90 254q0 126 -64 217l-28 48l92 178q4 0 14 -5t14 -5q80 -24 134 -24q110 0 184 70
q72 69 72 166q-5 109 -88 173q-77 53 -178 53z" />
</svg>