<svg xmlns="http://www.w3.org/2000/svg" xmlns:xlink="http://www.w3.org/1999/xlink" version="1.1" viewBox="-10 0 2068 2048">
   <path fill="currentColor"
d="M1846 510h-414v-202l-202 -207h-412l-202 207v202h-414q-82 0 -142 60t-60 146v515q0 55 26 101q28 49 76 77v331q0 87 60 147t146 60h1432q86 0 146 -60t60 -147v-336q47 -23 74 -72q28 -48 28 -101v-515q0 -86 -60 -146t-142 -60zM818 308h412v202h-412v-202zM202 716
h1644v515h-514v-308h-616v308h-514v-515zM1124 1332h-202v-207h202v207zM1740 1740h-1432v-307h408v105h616v-105h408v307z" />
</svg>