<svg xmlns="http://www.w3.org/2000/svg" xmlns:xlink="http://www.w3.org/1999/xlink" version="1.1" viewBox="-10 0 2068 2048">
   <path fill="currentColor"
d="M1158 1738l-22 -20q-344 -320 -480 -456q-208 -212 -292 -356q-96 -163 -96 -320q0 -134 65 -247.5t175 -178.5q111 -64 248 -64q112 0 220 50q107 50 182 138q74 -88 182 -138q107 -50 218 -50q139 0 250 64q109 64 174 178q66 114 66 248q0 164 -100 330
q-86 147 -298 358q-144 145 -492 464zM1024 1834q-359 -321 -506 -468q-217 -222 -318 -392q-112 -196 -112 -398v-50q-88 136 -88 284q0 166 100 332q85 145 298 354q132 133 492 456z" />
</svg>