<svg xmlns="http://www.w3.org/2000/svg" xmlns:xlink="http://www.w3.org/1999/xlink" version="1.1" viewBox="-10 0 2058 2048">
   <path fill="currentColor"
d="M1231 0h-822q-86 0 -146 60q-61 61 -61 142v1644q0 81 61 142q60 60 146 60h1230q87 0 147 -60t60 -142v-1231zM923 1846h-105q-92 0 -178 -43q-102 -44 -164 -130q-67 -95 -67 -238t67 -243q64 -82 164 -130q85 -38 178 -38h105v207h-105q-68 0 -121 29q-81 52 -81 175
t86 175q53 29 116 29h105v207zM1332 1332v206h-615v-206h615zM1231 1846h-106v-207h106q67 0 120 -33q82 -53 82 -176q0 -122 -87 -170q-53 -29 -115 -29h-106v-207h106q93 0 178 38q98 47 163 130q67 100 67 243t-67 238q-63 87 -163 130q-86 43 -178 43zM1125 716v-562
l567 562h-567z" />
</svg>