<svg xmlns="http://www.w3.org/2000/svg" xmlns:xlink="http://www.w3.org/1999/xlink" version="1.1" viewBox="-10 0 2068 2048">
   <path fill="currentColor"
d="M820 0q222 0 408 55q184 55 296 149q112 93 112 206q0 114 -111 207t-297 148t-410.5 55t-409.5 -55q-187 -55 -298 -148q-110 -92 -110 -207q0 -114 110 -206q113 -94 298 -149t412 -55zM1636 926q-146 15 -252 110q-110 97 -142 235q-200 58 -422 58q-227 0 -412 -55
t-298 -149q-110 -92 -110 -204v-307q0 112 110 204q113 94 298 149t409.5 55t410.5 -55q184 -55 296 -149q112 -93 112 -204v312zM1126 1506v307q-151 29 -306 29q-227 0 -412 -55t-298 -149q-110 -92 -110 -204v-307q0 112 110 204q113 94 298 149t412 55q155 0 306 -29z
M1688 1127q104 0 180 75q74 74 74 180v52q42 0 74 29q32 28 32 72v408q0 43 -31 74t-75 31h-508q-44 0 -75 -31t-31 -74v-408q0 -44 32 -72q32 -29 74 -29v-52q0 -106 74 -180q74 -75 180 -75zM1688 1228q-62 0 -108 46q-46 45 -46 108v52h308v-52q0 -62 -46 -108t-108 -46z
" />
</svg>