<svg xmlns="http://www.w3.org/2000/svg" xmlns:xlink="http://www.w3.org/1999/xlink" version="1.1" viewBox="-10 0 2068 2048">
   <path fill="currentColor"
d="M102 1070h408q0 -137 70 -258q68 -118 186 -188q118 -68 258 -68t256 68q120 71 188 188q70 119 70 258h408q44 0 73 29t29 71t-29 74t-73 32h-1844q-45 0 -74 -32q-28 -30 -28 -74t28 -72q30 -28 74 -28zM1332 1070q0 -130 -89 -219t-219 -89t-220 88q-88 88 -88 220
h616zM1024 46l244 350q-118 -42 -244.5 -42t-245.5 42zM134 556l428 -34q-96 81 -158 186t-86 236zM1912 556l-182 388q-25 -127 -86 -236q-63 -110 -160 -186zM1096 1512l316 318q34 29 34 72t-30 72q-33 28 -72 28q-42 0 -76 -28l-244 -246l-246 246q-33 28 -74 28
q-39 0 -71.5 -28.5t-32.5 -71.5t34 -72l318 -318q32 -34 71 -34t73 34z" />
</svg>