<svg xmlns="http://www.w3.org/2000/svg" xmlns:xlink="http://www.w3.org/1999/xlink" version="1.1" viewBox="-10 0 2068 2048">
   <path fill="currentColor"
d="M1852 732h-1756l10 -60q14 -77 46 -146q51 -102 132 -174q109 -91 260 -146q180 -60 430 -60t430 60q153 56 260 146q80 71 132 174q34 73 46 146zM1106 1512h-1010v96q0 124 85 209t209 85h716q-36 -96 -36 -194q0 -100 36 -196zM1934 1192q14 -37 14 -72
q0 -78 -57 -135t-135 -57h-878l-246 192l-242 -192h-198q-76 0 -134 56q-58 58 -58 138t58 138q58 56 134 56h1028q83 -91 198 -144q115 -52 238 -52q151 0 278 72zM1266 1608v198h782v-198h-782z" />
</svg>