<svg xmlns="http://www.w3.org/2000/svg" xmlns:xlink="http://www.w3.org/1999/xlink" version="1.1" viewBox="-10 0 2058 2048">
   <path fill="currentColor"
d="M632 202q0 -82 60 -142t144 -60t144 60t60 144q0 85 -60 145t-144 60t-144 -60t-60 -147zM1930 2000l-634 -1096v0q-95 0 -188 -58q-91 -56 -140 -149l-76 -163q-25 -53 -72 -80q-47 -26 -96 -26q-48 0 -92 24l-514 288v452h192v-341l140 -77l-34 159q-14 76 -14 163v505
l-246 332l154 115l284 -385l18 -331l174 240v476h188v-620l-188 -269v-63q0 -87 10 -135l34 -125q53 78 144 149q68 53 136 77q71 24 170 20l558 966z" />
</svg>