<svg xmlns="http://www.w3.org/2000/svg" xmlns:xlink="http://www.w3.org/1999/xlink" version="1.1" viewBox="-10 0 2068 2048">
   <path fill="currentColor"
d="M1892 1442q-16 -46 -20 -94q-108 108 -254 108q-126 0 -212 -70.5t-86 -187.5q0 -137 104 -214q105 -76 296 -76h148v-68q0 -78 -47.5 -122t-138.5 -44q-79 0 -134 40q-58 40 -58 92h-150q0 -67 43.5 -129.5t132.5 -98.5q88 -36 176 -36q152 0 236 76q86 77 90 208v406
q0 129 30 196v14h-156zM1642 1324q70 0 132 -34q64 -34 94 -82v-168h-118q-278 0 -278 148q0 64 48 100q51 36 122 36zM368 992h424l-210 -562zM494 190h176l494 1252h-200l-104 -270h-556l-102 270h-202zM10 1652h1144v206h-1144v-206z" />
</svg>