<svg xmlns="http://www.w3.org/2000/svg" xmlns:xlink="http://www.w3.org/1999/xlink" version="1.1" viewBox="-10 0 2058 2048">
   <path fill="currentColor"
d="M558 0q-74 0 -129 55q-54 54 -54 133v1673q0 79 54 133t129 54h653q127 0 233 -63t168 -170q61 -106 61 -233v-1394q0 -78 -55 -133t-128 -55h-932zM654 279h740v654h-740v-654zM745 1212h92v183h187v96h-187v183h-92v-183h-187v-96h187v-183zM1394 1303q39 0 68 29
q28 28 28 65t-28 65q-29 29 -66 29q-36 0 -65 -29q-28 -28 -28 -65t28 -65q29 -29 63 -29zM1211 1491q34 0 63 26t29 65t-29 65q-30 27 -65 27t-65 -27q-29 -26 -29 -65t29 -65t67 -26z" />
</svg>