<svg xmlns="http://www.w3.org/2000/svg" xmlns:xlink="http://www.w3.org/1999/xlink" version="1.1" viewBox="-10 0 2058 2048">
   <path fill="currentColor"
d="M183 2048l-10 -29q-23 -85 -19 -187q15 -160 134 -288q-28 -94 -28 -192q0 -131 52 -247q53 -117 144 -204q138 -133 331 -177q102 -358 134 -724q49 409 134 724q200 40 346 177q90 85 143 204q53 118 53 247q0 90 -29 183q130 61 326 81l-9 14q-8 38 -72 77h-5
q-121 82 -288 82h-47l-48 -5l-24 24q-90 90 -214 139q-121 48 -259 48q-136 0 -258 -48q-124 -49 -214 -139l-9 -10q-153 81 -250 226zM360 1477q21 -18 96 -86q92 -87 120 -135l10 -19q104 152 278 461h-24q-171 9 -312 62q82 73 185 113t213 40q226 0 393 -148l-96 -24
q-146 -30 -220 -34h-19l9 -19q25 -50 163 -283l96 -163l10 19q99 141 230 230q19 -66 19 -134q0 -113 -46 -216q-44 -99 -127 -177q-111 -111 -259 -144q51 166 106 288l5 9l-5 5q-42 88 -130 226q-70 119 -115 201l-9 19l-15 -19q-51 -72 -230 -369l-28 -53
q58 -145 105 -307q-144 39 -249 144q-77 73 -122 175q-46 106 -46 213q0 66 14 125z" />
</svg>