<svg xmlns="http://www.w3.org/2000/svg" xmlns:xlink="http://www.w3.org/1999/xlink" version="1.1" viewBox="-10 0 2068 2048">
   <path fill="currentColor"
d="M202 615q-82 0 -142 60t-60 142v414q0 82 60 142t142 60h1644q82 0 142 -60t60 -142v-414q0 -82 -60 -142t-142 -60h-1644zM716 817q86 0 146 60t60 147t-60 147t-146 60t-146 -60t-60 -147t60 -147t146 -60zM1332 817q86 0 146 60t60 147t-60 147t-146 60
q-88 0 -148 -60t-60 -147t60 -147t148 -60zM308 923q37 0 70 29q30 28 30 72t-30 72q-33 29 -72.5 29t-71.5 -29t-32 -72t32 -72t74 -29zM716 923q-42 0 -71 29t-29 72t29 72t72 29t72 -29t29 -72t-29 -72t-73 -29zM1332 923q-44 0 -73 29t-29 72t29 72t72 29t72 -29t29 -72
t-29 -72t-71 -29zM1740 923q42 0 74 29q32 28 32 72t-32 72q-32 29 -72 29t-72 -29q-32 -28 -32 -72t32 -72q32 -29 70 -29z" />
</svg>