<svg xmlns="http://www.w3.org/2000/svg" xmlns:xlink="http://www.w3.org/1999/xlink" version="1.1" viewBox="-10 0 2068 2048">
   <path fill="currentColor"
d="M1024 214q-284 0 -548 108q-254 101 -452 292q-24 24 -24 60t24 60l212 212q24 24 60 24t60 -24q100 -92 228 -156q48 -24 48 -80v-264q188 -60 392 -60t392 60v264q0 23 14 46q13 22 34 30q117 61 228 160q24 24 60 24t60 -24l212 -212q24 -24 24 -60t-24 -60
q-198 -191 -452 -292q-264 -108 -548 -108zM768 554v256l-80 72q-104 96 -176 176q-110 118 -176 220q-80 128 -80 216v340h1536v-340q0 -88 -80 -216q-66 -102 -176 -220q-72 -80 -176 -176l-80 -72v-256h-172v172h-168v-172h-172zM1024 982q140 0 240 100t100 242
t-100 242t-240 100t-240 -100t-100 -242t100 -242t240 -100zM1024 1110q-88 0 -150 62t-62 150q0 87 62 152q61 64 150 64t150 -64q62 -65 62 -152q0 -88 -62 -150t-150 -62z" />
</svg>