<svg xmlns="http://www.w3.org/2000/svg" xmlns:xlink="http://www.w3.org/1999/xlink" version="1.1" viewBox="-10 0 2068 2048">
   <path fill="currentColor"
d="M1024 256q-208 0 -386 102t-280 280t-102 386t102 386t280 280t386 102t386 -102t280 -280t102 -386t-102 -386t-280 -280t-386 -102zM1024 1620q-163 0 -300 -80q-136 -80 -216 -216q-80 -137 -80 -300t80 -300q80 -136 216 -216q137 -80 300 -80t300 80q136 80 216 216
q80 137 80 300t-80 300q-80 136 -216 216q-137 80 -300 80zM1748 1748q143 -139 222 -328q78 -188 78 -396t-78 -396q-79 -189 -222 -328l-92 92q123 123 194 288q70 162 70 344t-70 344q-71 165 -194 288zM392 1656q-123 -123 -194 -288q-70 -162 -70 -344t70 -344
q71 -165 194 -288l-92 -92q-143 139 -222 328q-78 188 -78 396t78 396q79 189 222 328zM812 596v856h168v-344h172q72 0 122 -50t50 -118v-172q0 -72 -50 -122t-122 -50h-340zM980 768h172v172h-172v-172z" />
</svg>