<svg xmlns="http://www.w3.org/2000/svg" xmlns:xlink="http://www.w3.org/1999/xlink" version="1.1" viewBox="-10 0 2068 2048">
   <path fill="currentColor"
d="M794 1077q24 29 21 66q-3 39 -28 64q-27 27 -64 31q-39 5 -71 -19q-73 -72 -112 -163q-40 -92 -40 -192t40 -192q39 -90 112 -163l355 -360q100 -100 229 -133q65 -16 130 -16t130 16q131 33 228 130t130 228q33 130 0 260t-133 230l-151 151q4 -121 -38 -241l52 -52
q81 -90 81 -216q0 -125 -81 -220q-94 -80 -220 -80t-215 80l-355 365q-90 90 -90 215q0 126 90 211zM2048 1541v204h-303v303h-204v-303h-302v-204h302v-303h204v303h303zM1362 1105q23 -120 -15 -244q-38 -120 -127 -210q-33 -23 -71 -19q-38 5 -64 31t-29 63q-3 38 22 67
q90 86 90 210q0 126 -90 216l-355 365q-89 80 -216 80t-220 -80q-80 -93 -80 -221q0 -126 80 -215l52 -43q-43 -124 -38 -251l-151 152q-100 100 -133 230t0 260q32 129 131 227q97 97 227 130q65 17 130 17t130 -17q131 -33 230 -132l179 -180q23 -136 107 -253
q83 -117 211 -183z" />
</svg>