<svg xmlns="http://www.w3.org/2000/svg" xmlns:xlink="http://www.w3.org/1999/xlink" version="1.1" viewBox="-10 0 2068 2048">
   <path fill="currentColor"
d="M1306 1195h230v-342h-230v342zM1706 1253q0 48 -32 80t-80 32h-84v171h-172v-171h-84q-48 0 -84 -32q-34 -31 -34 -80v-458q0 -49 34 -80q36 -32 84 -32h340q48 0 80 32t32 80v458zM912 1365h-170v-229h-230v229h-170v-682h170v282h230v-282h170v682zM1818 112h-1588
q-96 0 -163 67t-67 162v1366q0 95 67 162t163 67h1588q96 0 164 -67q66 -66 66 -162v-1366q0 -96 -66 -162q-68 -67 -164 -67z" />
</svg>