<svg xmlns="http://www.w3.org/2000/svg" xmlns:xlink="http://www.w3.org/1999/xlink" version="1.1" viewBox="-10 0 2068 2048">
   <path fill="currentColor"
d="M408 50v208h-206q-82 0 -142 60t-60 142v1028q0 82 60 142t142 60v106q0 80 60 142q60 60 146 60h102q86 0 146 -60t60 -142v-106h616v106q0 82 60 142t146 60h100q88 0 148 -60t60 -142v-106q82 0 142 -60t60 -142h-1126v-1230h-306v-208h-208zM1432 50v208h-308v202
h924q0 -82 -60 -142t-142 -60h-208v-208h-206zM510 460v412h206l-308 616v-414h-206zM1124 666v206h924v-206h-924zM1124 1074v208h924v-208h-924z" />
</svg>