<svg xmlns="http://www.w3.org/2000/svg" xmlns:xlink="http://www.w3.org/1999/xlink" version="1.1" viewBox="-10 0 2058 2048">
   <path fill="currentColor"
d="M562 0q86 0 146 60t60 144q0 85 -60 145t-146 60t-146 -60t-60 -145q0 -84 60 -144t146 -60zM408 2048v-615h-306l264 -779q24 -63 76 -104q52 -40 120 -40t122 40q56 40 76 104l264 779l264 -779q24 -63 76 -104q52 -40 120.5 -40t123.5 40q54 39 74 104l264 779h-308
v615h-306v-615h-616v615h-308zM1484 0q88 0 148 60t60 144q0 85 -60 145t-148 60q-86 0 -146 -60t-60 -145q0 -84 60 -144t146 -60z" />
</svg>