<svg xmlns="http://www.w3.org/2000/svg" xmlns:xlink="http://www.w3.org/1999/xlink" version="1.1" viewBox="-10 0 2058 2048">
   <path fill="currentColor"
d="M1652 293l-238 237v19l238 233h347v196h-430l-155 -155v251h-96q-82 0 -139 -57t-57 -139v-243h-306q-8 53 -42 101l562 1019h471q77 0 135 58q57 57 57 139v96h-1947v-96q0 -81 58 -139t134 -58h645l-457 -827q-128 0 -233 -82q-105 -83 -137 -211q-40 -156 41 -294
q83 -141 240 -181q159 -41 297 41q141 83 176 238h306v-242q0 -83 57 -140t139 -57h96v256l155 -155h430v192h-347zM441 343q-83 0 -140 57t-57 137t57 137t140 57q82 0 139 -57t57 -137t-57 -137t-139 -57z" />
</svg>