<svg xmlns="http://www.w3.org/2000/svg" xmlns:xlink="http://www.w3.org/1999/xlink" version="1.1" viewBox="-10 0 2068 2048">
   <path fill="currentColor"
d="M0 165l122 -120l1880 1882l-120 121l-142 -143h-166v-166l-1264 -1265h-166v-165zM332 0h286v188h-112l-188 -188h14zM2048 188v286h-188v-286h-286v-188h286q76 0 132 56t56 132zM1860 1431h188v300l-188 -188v-112zM144 1717v-286h188v286h286v188h-286q-76 0 -132 -56
t-56 -132zM904 0h384v188h-384v-188zM904 1717h384v188h-384v-188zM1860 760h188v385h-188v-385zM144 760h188v385h-188v-385z" />
</svg>