<svg xmlns="http://www.w3.org/2000/svg" xmlns:xlink="http://www.w3.org/1999/xlink" version="1.1" viewBox="-10 0 2068 2048">
   <path fill="currentColor"
d="M1278 1375q10 5 10 17t-10 21q-48 49 -140 68q-56 9 -114 9t-116 -9q-90 -19 -134 -68q-10 -9 -10 -21t8 -19q8 -8 18 -8q12 0 22 10q29 29 96 48q59 10 115.5 10t114.5 -10q69 -20 102 -48q19 -19 38 0zM894 1130q0 -44 -31 -75t-75 -31t-75 31t-31 75q0 45 32 77
q32 34 74 31q43 -3 74.5 -34t31.5 -74zM1260 1024q-43 0 -76 34q-30 32 -30 74q0 43 30 75q32 33 76 33q42 0 74 -33q30 -32 30 -75q0 -42 -30 -74q-33 -34 -74 -34zM2048 1024q0 278 -138 514q-136 236 -372 373q-237 137 -514.5 137t-513.5 -137q-235 -136 -372 -373
q-138 -236 -138 -514t138 -514q137 -237 372 -373q236 -137 513.5 -137t514.5 137q236 137 372 373q138 236 138 514zM1706 1024q0 -63 -43 -106t-103 -43t-104 43q-164 -121 -404 -130l72 -322l222 48q0 44 31 75t75 31q41 0 74 -34q30 -32 30 -76t-31 -75t-73 -31
q-28 0 -56 17q-25 16 -40 45l-250 -53q-6 -5 -16 3q-9 8 -14 17l-72 355q-239 9 -408 130q-44 -43 -106 -43t-105 43t-43 106q0 48 24 84t62 55v44q0 109 80 206q80 98 216 154q138 58 299.5 58t300.5 -58q137 -57 218 -151q82 -94 82 -209q0 -22 -4 -44q38 -19 62 -57
q24 -39 24 -82z" />
</svg>