<svg xmlns="http://www.w3.org/2000/svg" xmlns:xlink="http://www.w3.org/1999/xlink" version="1.1" viewBox="-10 0 2068 2048">
   <path fill="currentColor"
d="M1024 0q-190 0 -358 62q-171 63 -310 183q66 52 134 140l110 -68l106 183l-106 58q92 172 112 365h106v202h-106q-20 193 -112 365l106 58l-106 183l-110 -68q-68 88 -134 140q137 119 310 182q170 63 357 63t359 -63t310 -182q-63 -47 -136 -140l-110 68l-106 -183
l106 -58q-91 -172 -110 -365h-106v-202h106q19 -193 110 -365l-106 -58l106 -183l110 68q73 -93 136 -140q-140 -120 -310 -183q-169 -62 -358 -62zM216 394q-105 136 -160 296q-56 159 -56 334t56 334q55 160 160 296q44 -33 96 -96l-62 -34l100 -178l72 43
q63 -123 82 -264h-96v-202h96q-19 -141 -82 -264l-72 43l-100 -178l62 -34q-52 -63 -96 -96zM1830 394q-43 33 -96 96l64 34l-102 178l-72 -43q-62 123 -82 264h96v202h-96q20 141 82 264l72 -43l102 178l-64 34q53 63 96 96q106 -136 162 -296q56 -162 56 -334t-56 -334
q-56 -160 -162 -296z" />
</svg>