<svg xmlns="http://www.w3.org/2000/svg" xmlns:xlink="http://www.w3.org/1999/xlink" version="1.1" viewBox="-10 0 2068 2048">
   <path fill="currentColor"
d="M1024 150q284 0 548 108q254 101 452 292q24 24 24 60t-24 60l-212 212q-24 24 -60 24t-60 -24q-111 -99 -228 -160q-21 -8 -34 -30q-14 -23 -14 -46v-264q-188 -60 -388 -60q-199 0 -388 56l-132 -132q248 -96 516 -96zM768 490h172v172h168v-172h172v256l80 72
q104 96 176 176q110 118 176 220q80 128 80 216v100l-1024 -1024v-16zM84 258l112 -108l1640 1640l-108 108l-128 -128h-1344v-340q0 -121 148 -312q100 -128 260 -280l-100 -104q-119 67 -208 148q-24 24 -60 24t-60 -24l-212 -212q-24 -24 -24 -60t24 -60q61 -61 196 -156
zM684 1258q0 144 100 244t240 100q80 0 152 -36q73 -36 120 -100l-92 -92q-32 49 -78 74q-47 26 -102 26q-89 0 -150 -64q-62 -65 -62 -152q0 -55 26 -102q24 -44 70 -74l-92 -92q-63 47 -98 118q-34 69 -34 150z" />
</svg>