<svg xmlns="http://www.w3.org/2000/svg" xmlns:xlink="http://www.w3.org/1999/xlink" version="1.1" viewBox="-10 0 2068 2048">
   <path fill="currentColor"
d="M778 877q164 0 278 -114t114 -277q0 -162 -114 -276t-276 -114t-276 114t-114 276q0 163 114 277t274 114zM778 292q82 0 139 57t57 137q0 81 -57 138t-137 57t-137 -57t-57 -138q0 -80 57 -137t135 -57zM710 1659h-710v-293q0 -122 142 -219q120 -76 320 -128
q178 -46 316 -46q173 0 378 60q-130 52 -232 137q-79 -9 -146 -9q-132 0 -284 36q-127 36 -218 87q-92 51 -92 82v106h520l-8 13l-28 73zM1464 1462q40 0 68 28t28 68t-28 71q-28 30 -69 30t-71 -30t-30 -71t30 -68q32 -28 72 -28zM1464 1170q-198 0 -357 107t-229 281
q70 176 228 284q162 110 357.5 110t354.5 -110q155 -108 230 -284q-74 -174 -230 -281q-157 -107 -354 -107zM1464 1805q-102 0 -175 -73t-73 -174t74 -171q74 -71 174 -71t171 71t71 171t-72 174q-70 73 -170 73z" />
</svg>