<svg xmlns="http://www.w3.org/2000/svg" xmlns:xlink="http://www.w3.org/1999/xlink" version="1.1" viewBox="-10 0 2068 2048">
   <path fill="currentColor"
d="M2048 1281v279q0 37 -22 59q-22 24 -56 33l-184 -183h74v-96h-164l-22 -18v-165q0 -127 -62 -233q-61 -107 -168 -170q-108 -64 -232 -64h-170l-184 -187h76v-118q-46 -24 -70 -65q-26 -44 -26 -96q0 -74 54 -128q54 -55 132 -55t134 55q54 54 54 128q0 52 -26 96
q-25 41 -70 65v118h96q174 0 324 87q150 86 238 238q86 150 86 329h92q38 0 68 26q28 25 28 65zM698 1142q-74 0 -128 54q-56 55 -56 131t56 131q54 54 130 54t130 -54q56 -55 56 -131t-56 -131q-54 -54 -132 -54zM1966 1883l-118 117l-92 -87q-39 18 -82 18h-1298
q-78 0 -134 -55q-54 -54 -54 -129v-95h-92q-36 0 -66 -27q-30 -26 -30 -65v-279q0 -39 29.5 -65t66.5 -26h92q0 -172 80 -316q82 -147 220 -233l-474 -475l118 -118zM1590 1747l-230 -235h-8q-80 0 -134 -54q-54 -55 -54 -129v-9l-540 -540q-113 57 -180 166
q-68 110 -68 244v183h-188v96h188v278h1214z" />
</svg>