<svg xmlns="http://www.w3.org/2000/svg" xmlns:xlink="http://www.w3.org/1999/xlink" version="1.1" viewBox="-10 0 2068 2048">
   <path fill="currentColor"
d="M192 192h294l196 -192h584l198 192h292q78 0 135 57t57 139v585q-128 -96 -292 -96q-108 0 -216 46q-44 -173 -174 -302q-132 -137 -292 -137q-132 0 -244 66q-112 65 -178 179q-66 113 -66 244q0 133 66 245q65 112 178 178q112 66 244 66q64 0 120 -18q-24 57 -24 114
v197h-878q-76 0 -134 -57q-58 -58 -58 -140v-1170q0 -81 58 -139q58 -57 134 -57zM974 681q124 0 208 84t84 208t-84 208q-84 85 -207 85t-208 -85t-85 -208t84 -208q84 -84 208 -84zM2048 1586v343q0 47 -38 82q-41 37 -90 37h-534q-46 0 -82 -39q-38 -40 -38 -89v-343
q0 -41 37 -78t83 -37v-146q0 -101 81.5 -174t188.5 -73q105 0 188 73q86 74 86 174v146q44 0 82 37q36 36 36 87zM1802 1316q0 -59 -42 -94q-39 -34 -102 -34t-106 34q-44 35 -44 94v146h294v-146z" />
</svg>