<svg xmlns="http://www.w3.org/2000/svg" xmlns:xlink="http://www.w3.org/1999/xlink" version="1.1" viewBox="-10 0 2058 2048">
   <path fill="currentColor"
d="M880 686h192v585h-192v-585zM1268 0h-584v197h584v-197zM976 1856q-187 0 -342 -91t-248 -250q-90 -157 -90 -342q0 -186 90 -343q92 -158 248 -249q156 -92 342 -92q202 0 368 108q168 108 250 281h18q104 0 204 45q-51 -167 -154 -297l136 -141q-72 -82 -136 -138
l-138 142q-113 -91 -256 -144q-139 -52 -292 -52q-238 0 -438 118q-202 119 -320 320q-120 202 -120 439q0 236 120 441q117 202 320 320q200 117 438 117q174 0 334 -64q-52 -70 -110 -169q-110 41 -224 41zM1950 1417q0 156 -170 412q-88 130 -168 219l-92 -105
q-95 -124 -164 -252q-88 -165 -88 -274q0 -141 101 -242t241 -101q138 0 239 101t101 242zM1726 1426q0 -46 -36 -82q-38 -37 -80 -37q-44 0 -80 35q-38 35 -38 82q0 48 34 82q36 35 86 35t86 -37q37 -36 28 -78z" />
</svg>