<svg xmlns="http://www.w3.org/2000/svg" xmlns:xlink="http://www.w3.org/1999/xlink" version="1.1" viewBox="-10 0 2058 2048">
   <path fill="currentColor"
d="M1226 805v140l206 201v-341q163 -39 248 -184q87 -146 44 -312q-44 -166 -186 -252q-144 -87 -310 -43q-165 44 -252 190q-87 147 -44 309q28 109 108 189q79 79 186 103zM1330 206q82 0 142 60t60 146t-60 146t-144 60t-144 -60t-60 -146t60 -146t146 -60zM1816 2048
l-398 -394q-33 133 -128 233q-91 98 -226 137q-130 39 -266 5q-167 -39 -278 -178q-110 -138 -110 -312v-513l508 513h-306q0 125 91 216t219 91q126 0 214 -91q90 -92 90 -216v-76l-1122 -1128l130 -129l1710 1712z" />
</svg>