<svg xmlns="http://www.w3.org/2000/svg" xmlns:xlink="http://www.w3.org/1999/xlink" version="1.1" viewBox="-10 0 2068 2048">
   <path fill="currentColor"
d="M1024 1395q78 120 206 187l-206 205l-204 -205q127 -67 204 -187zM1490 950q-78 0 -132 55q-54 54 -54 130q0 77 54 131q54 55 130 55t131 -55t55 -131q0 -75 -55 -130t-129 -55zM558 950q-74 0 -128 55q-54 54 -54 130q0 77 54 131q54 55 130 55t132 -55q54 -54 54 -131
q0 -76 -54 -130q-56 -55 -134 -55zM1490 719q152 0 261 109t109 262q0 152 -109 261t-263 109t-263 -109t-109 -261q0 -153 109 -262t265 -109zM558 719q158 0 267 109t109 262q0 152 -109 261t-265 109q-154 0 -263 -109t-109 -261q0 -153 109 -262t261 -109zM118 0
q74 158 78 314q5 126 -38 270q-23 76 -96 257l-8 18q-54 115 -54 231q0 152 78 279q76 127 204 202q128 76 276 76l62 -4l404 405l406 -405l60 4q149 0 278 -76q127 -75 204 -202q76 -125 76 -279q0 -118 -52 -231l-10 -18q-70 -173 -94 -257q-45 -147 -40 -270
q4 -154 78 -314q-191 152 -426 244q-254 101 -479.5 101t-478.5 -101q-236 -92 -428 -244z" />
</svg>