<svg xmlns="http://www.w3.org/2000/svg" xmlns:xlink="http://www.w3.org/1999/xlink" version="1.1" viewBox="-10 0 2058 2048">
   <path fill="currentColor"
d="M732 0l-388 293l242 196h-242l-46 5q-54 9 -100 32q-66 32 -102 87q-46 71 -46 169v973h486l8 -50q14 -54 50 -91q52 -51 138 -51h1266v-292h-388v-585h388v-197h-1120l242 -196zM242 686h490v585h-490v-585zM928 686h484v585h-484v-585zM242 1463h102v196h-102v-196z
M732 1755v51q0 100 71 171t171 71q73 0 134 -39q63 -40 90 -107h136q31 67 92 107q60 39 132 39q100 0 174 -71q74 -70 74 -171v-51h-1074z" />
</svg>