<svg xmlns="http://www.w3.org/2000/svg" xmlns:xlink="http://www.w3.org/1999/xlink" version="1.1" viewBox="-10 0 2068 2048">
   <path fill="currentColor"
d="M1430 311q-5 -12 -9.5 -24t-8.5 -24q-30 -59 -68 -105q-54 -65 -128 -105q-86 -48 -192 -48q-192 0 -320 153q-63 78 -86 153q-99 0 -196 58q-96 57 -156 153q-60 94 -60 196q-95 0 -150 60q-56 59 -56 143q0 85 56 144q55 60 150 60h1636q95 0 150 -60q56 -59 56 -144
q0 -84 -56 -143q-55 -60 -150 -60q0 -100 -60 -196q-61 -97 -156 -153q-97 -58 -196 -58zM312 1331l200 712h206l-100 -712h-306zM818 1331l106 712h200l106 -712h-412zM1430 1331l-100 712h206l200 -712h-306z" />
</svg>