<svg xmlns="http://www.w3.org/2000/svg" xmlns:xlink="http://www.w3.org/1999/xlink" version="1.1" viewBox="-10 0 2068 2048">
   <path fill="currentColor"
d="M1596 1270q42 -95 42 -226q0 -169 -84 -308q-83 -140 -222 -224q-140 -84 -308 -84q-103 0 -226 44l164 162h62q166 0 287 121t121 289q0 40 -10 62zM1024 222q222 0 410.5 109.5t299.5 300.5q112 191 112 412q0 190 -106 380l154 154q154 -255 154 -534
q0 -278 -138 -514q-136 -237 -372 -374q-237 -136 -514 -136q-303 0 -534 154l154 154q163 -106 380 -106zM130 68l-130 134l212 216q-212 279 -212 626q0 279 140 514q139 235 370 366l106 -174q-190 -112 -302 -298q-112 -188 -112 -408q0 -262 154 -482l154 154
q-102 156 -102 326t84 310q84 138 224 226l102 -174q-90 -55 -148 -152q-54 -92 -54 -198q0 -67 38 -184l164 164v20q0 86 60 146t146 60h18l770 768l134 -134z" />
</svg>