<svg xmlns="http://www.w3.org/2000/svg" xmlns:xlink="http://www.w3.org/1999/xlink" version="1.1" viewBox="-10 0 2068 2048">
   <path fill="currentColor"
d="M230 0q-96 0 -163 67t-67 162v1590q0 95 67 162t163 67h1588q96 0 164 -67q66 -66 66 -162v-1590q0 -96 -66 -162q-68 -67 -164 -67h-1588zM1456 229h362v1387q-21 -70 -96 -115q-74 -45 -154 -45h-112v-341q0 -48 -32 -80t-80 -32h-682v-230h224q48 0 82 -34t34 -78
v-229h224q90 0 156 -59q63 -57 74 -144zM230 832l544 512v112q0 96 66 163q66 66 162 66v134h-772v-987z" />
</svg>