<svg xmlns="http://www.w3.org/2000/svg" xmlns:xlink="http://www.w3.org/1999/xlink" version="1.1" viewBox="-10 0 2058 2048">
   <path fill="currentColor"
d="M375 1861v187h183v-187h-183zM933 1861h-188v187h188v-187zM558 1582v187h187v-187h-187zM933 1303v188h-188v-188h188zM1303 1861h-188v187h188v-187zM933 1582v187h182v-187h-182zM1303 1303v188h-188v-188h188zM1673 1861h-183v187h183v-187zM1303 1582v187h187v-187
h-187zM1394 933v183h-740v-183h279v-558h182v558h279zM1860 0v188h-279v279l-370 370v-257l183 -187v-205h-740v205l183 187v257l-371 -370v-279h-278v-188h1672z" />
</svg>