<svg xmlns="http://www.w3.org/2000/svg" xmlns:xlink="http://www.w3.org/1999/xlink" version="1.1" viewBox="-10 0 2068 2048">
   <path fill="currentColor"
d="M764 389l-146 -142q205 -123 442 -123l28 4q27 5 46 23q22 28 22 69v196h100l24 5q32 5 46 23q26 27 26 68v101h198h22q32 9 46 27q28 28 28 69v96h196l32 9q36 9 50 41q14 72 14 146q0 239 -124 444l-142 -142q70 -141 70 -302h-148q-58 0 -102 -43q-44 -44 -44 -103
v-50h-146q-58 0 -102 -41q-44 -40 -44 -106v-45h-46q-64 0 -105 -44t-41 -103v-141q-101 17 -200 64zM790 421l170 164l4 -23q0 -58 -44 -102t-102 -44zM1476 1102l164 169l6 -27q0 -59 -44 -103t-104 -44zM2048 1925l-124 123l-342 -343q-233 174 -522 174
q-237 0 -438 -119q-202 -119 -320 -320q-120 -202 -120 -439q0 -289 174 -521l-356 -356l124 -124zM1440 1568l-380 -379q-22 9 -50 9q-58 0 -102 -44t-44 -102q0 -28 8 -51l-378 -379q-93 137 -110 288q13 -46 52 -76q38 -29 90 -29q60 0 103 43t43 105q0 63 -44 103
q-44 41 -102 41q-60 0 -100 -39q-42 -40 -46 -93q0 95 8 146q27 193 166 347q135 151 328 202q-64 -45 -64 -124q0 -59 42 -103q40 -43 102 -43t105 43t43 101t-34 96q-34 39 -84 48q246 23 448 -110z" />
</svg>