<svg xmlns="http://www.w3.org/2000/svg" xmlns:xlink="http://www.w3.org/1999/xlink" version="1.1" viewBox="-10 0 2068 2048">
   <path fill="currentColor"
d="M512 1708q-140 0 -258 -70q-119 -71 -186 -188q-68 -119 -68 -254q0 -132 60 -244q59 -110 164 -182q102 -70 232 -82q78 -158 232 -254q151 -94 336 -94q232 0 408 146q177 146 220 366q168 12 282 136t114 292q0 117 -58 214q-58 98 -156 156q-97 58 -214 58h-1108z
M776 716l-392 392l392 392l120 -120l-272 -272l272 -272zM1272 716l-120 120l272 272l-272 272l120 120l392 -392z" />
</svg>