<svg xmlns="http://www.w3.org/2000/svg" xmlns:xlink="http://www.w3.org/1999/xlink" version="1.1" viewBox="-10 0 2068 2048">
   <path fill="currentColor"
d="M1124 5v206q201 24 366 140q164 116 260 291q96 176 96 382q0 244 -136 447q-134 202 -350 298l-236 -231v510h514l-124 -125q245 -131 388 -373q146 -245 146 -526q0 -260 -124 -486q-121 -224 -330 -367q-208 -142 -470 -166zM922 0q-306 28 -548 226l146 144
q178 -135 402 -168v-202zM226 375q-197 240 -226 548h202q32 -224 168 -404zM408 615v202h308v106h-100q-88 0 -148 60t-60 142v308h514v-202h-306v-106h100q86 0 146 -60t60 -142v-106q0 -82 -60 -142t-146 -60h-308zM1024 615v510h308v308h206v-308h100v-202h-100v-308
h-206v308h-102v-308h-206zM0 1125q29 308 226 548l144 -144q-136 -180 -168 -404h-202zM524 1678l-150 144q242 198 548 226v-202q-226 -33 -398 -168z" />
</svg>