<svg xmlns="http://www.w3.org/2000/svg" xmlns:xlink="http://www.w3.org/1999/xlink" version="1.1" viewBox="-10 0 2068 2048">
   <path fill="currentColor"
d="M572 0q-96 0 -163 67t-67 162v454q0 96 -66 162q-68 67 -164 67h-112v224h112q96 0 164 67q66 66 66 162v454q0 95 67 162t163 67h222v-229h-222v-566q0 -95 -67 -162t-163 -67q96 0 163 -67t67 -162v-566h222v-229h-222zM1478 0q94 0 161 67t67 162v454q0 95 67 162
t163 67h112v224h-112q-96 0 -163 67t-67 162v454q0 95 -67 162t-161 67h-224v-229h224v-566q0 -96 66 -162q66 -67 162 -67q-96 0 -162 -67q-66 -66 -66 -162v-566h-224v-229h224z" />
</svg>