<svg xmlns="http://www.w3.org/2000/svg" xmlns:xlink="http://www.w3.org/1999/xlink" version="1.1" viewBox="-10 0 2058 2048">
   <path fill="currentColor"
d="M1303 1024q0 -86 -53 -159q-52 -72 -135 -102v-222q82 -25 135 -98t53 -164q0 -113 -81 -196t-198 -83t-198 83t-81 196q0 93 52 164q53 72 136 98v222q-84 30 -136 102q-52 71 -52 159t52 159q53 73 136 103v222q-83 26 -136 98q-52 71 -52 163q0 115 81 197t198 82
t198 -82q81 -83 81 -197q0 -90 -53 -163t-135 -98v-222q82 -30 135 -103t53 -159zM1024 188q39 0 65 26t26 65t-26 68q-25 28 -65 28t-65 -28q-26 -29 -26 -68t26 -65t65 -26zM1024 1861q-39 0 -65 -26t-26 -66q0 -38 26 -67q25 -28 65 -28t65 28q26 29 26 67q0 40 -26 66
t-65 26z" />
</svg>