<svg xmlns="http://www.w3.org/2000/svg" xmlns:xlink="http://www.w3.org/1999/xlink" version="1.1" viewBox="-10 0 2058 2048">
   <path fill="currentColor"
d="M1690 923v-308h-202v308h-307v202h307v307h202v-307h307v-202h-307zM873 1125v-817q0 -131 -91 -219t-218 -88q-128 0 -216 88q-89 89 -89 219v817q-116 87 -168 211t-36 258.5t101 248.5q84 112 208 165q125 52 260 36q134 -17 247.5 -98.5t165.5 -209t36 -261.5
q-16 -132 -99 -245q-41 -59 -101 -105zM566 202q38 0 70 32q31 31 31 74v307h-207v-307q0 -42 32 -74t74 -32z" />
</svg>