<svg xmlns="http://www.w3.org/2000/svg" xmlns:xlink="http://www.w3.org/1999/xlink" version="1.1" viewBox="-10 0 2068 2048">
   <path fill="currentColor"
d="M1638 1790q-86 0 -146 -60t-60 -144t60 -144t146 -60q88 0 148 60t60 144t-60 144t-148 60zM1638 1176q-168 0 -288 120t-120 291t120 291t288 120t288 -120q122 -122 122 -292t-122 -290q-120 -120 -288 -120zM1024 984q-82 0 -140 56q-58 58 -58 137t58 137t139 58
t139 -58t58 -137t-58 -137q-56 -56 -138 -56zM408 1790q-86 0 -146 -60t-60 -143t60 -145q60 -60 146 -60q88 0 148 60t60 144t-60 144t-148 60zM408 1176q-168 0 -288 120t-120 291t120 291t288 120t288 -120q122 -122 122 -292t-122 -290q-120 -120 -288 -120zM1024 252
q86 0 146 60t60 148q0 86 -60 146t-146 60t-146 -60t-60 -146q0 -88 60 -148t146 -60zM1024 868q168 0 288 -120q120 -122 120 -288q0 -168 -120 -290q-120 -120 -288 -120t-288 120t-120 290q0 168 120 288t288 120z" />
</svg>