<svg xmlns="http://www.w3.org/2000/svg" xmlns:xlink="http://www.w3.org/1999/xlink" version="1.1" viewBox="-10 0 2068 2048">
   <path fill="currentColor"
d="M2048 1933l-1920 -1933l-128 128l352 352q-68 118 -68 233q0 168 136 320q-136 184 -136 411v343q0 78 57 135t139 57h1266q32 0 92 -18l86 87zM696 818l-60 32q-60 -59 -60 -137v-9zM676 1540v247h-196v-247q0 -186 98 -340q98 -153 264 -236l78 82q-115 87 -180 218
q-64 129 -64 276zM1544 818l202 -201l292 292l-192 192q96 156 96 343v128l-858 -859h32q228 0 428 105zM824 448l-206 -202q231 -118 498 -118q161 0 308 43q150 44 254 121l-192 197q-146 -87 -370 -87q-181 0 -292 46z" />
</svg>