<svg xmlns="http://www.w3.org/2000/svg" xmlns:xlink="http://www.w3.org/1999/xlink" version="1.1" viewBox="-10 0 2058 2048">
   <path fill="currentColor"
d="M1115 2048h-182v-2048h182v2048zM745 1674h-370v-1299h370v-187h-370q-79 0 -133 54t-54 133v1299q0 79 54 133t133 54h370v-187zM1673 558v187h187v-187h-187zM1673 375h187q0 -79 -54 -133t-133 -54v187zM1860 1303h-187v188h187v-188zM1673 933v183h187v-183h-187z
M1490 188h-187v187h187v-187zM1673 1861q79 0 133 -54t54 -133h-187v187zM1490 1674h-187v187h187v-187z" />
</svg>