<svg xmlns="http://www.w3.org/2000/svg" xmlns:xlink="http://www.w3.org/1999/xlink" version="1.1" viewBox="-10 0 2068 2048">
   <path fill="currentColor"
d="M1024 50l-1024 746l390 1202h1270l388 -1202zM1514 1806h-978l-306 -938l794 -580l796 580zM1514 1390v122h-522v-108l88 -92q104 -105 168 -188q92 -113 92 -164q0 -50 -28 -78q-18 -23 -50 -28h-24q-48 0 -84 38q-34 35 -34 86h-150q4 -105 84 -178q78 -73 190 -68
q154 0 214 96q32 51 32 128q0 108 -156 282q-79 89 -154 152h334zM878 1512h-156v-598l-186 60v-128l324 -114h18v780z" />
</svg>