<svg xmlns="http://www.w3.org/2000/svg" xmlns:xlink="http://www.w3.org/1999/xlink" version="1.1" viewBox="-10 0 2065 2048">
   <path fill="currentColor"
d="M865 0q-182 0 -308 126t-126 305t126 305t305 126t305 -126t126 -305t-126 -305t-302 -126zM865 1079q-233 0 -431 58q-200 59 -315 157q-116 99 -116 214v217h1023q-55 -146 -55 -272q0 -187 96 -364q-24 0 -99 -5t-103 -5zM1616 1725q-111 0 -189 -78t-78 -194
q0 -71 30 -116l-116 -121q-75 116 -75 237q0 181 126 307t302 126v162l237 -237l-237 -247v161zM1616 1024v-162l-237 238l237 237v-152q110 0 189 79q78 78 78 189q0 70 -30 121l116 116q76 -112 76 -237q0 -177 -126 -303t-303 -126z" />
</svg>