<svg xmlns="http://www.w3.org/2000/svg" xmlns:xlink="http://www.w3.org/1999/xlink" version="1.1" viewBox="-10 0 2058 2048">
   <path fill="currentColor"
d="M1538 0h-1028q-82 0 -142 60t-60 142v1644q0 82 60 142t142 60h1028q82 0 142 -60t60 -142v-1644q0 -82 -60 -142t-142 -60zM1538 1846h-1028v-1644h1028v1644zM842 716q-96 0 -161 68t-65 161t81 199q50 64 221 226l44 43l62 53l63 -53l43 -43q171 -162 221 -226
q82 -108 82 -202q0 -96 -65 -161t-161 -65q-51 0 -104 22q-50 21 -79 60q-29 -39 -79 -60q-53 -22 -103 -22z" />
</svg>