<svg xmlns="http://www.w3.org/2000/svg" xmlns:xlink="http://www.w3.org/1999/xlink" version="1.1" viewBox="-10 0 2068 2048">
   <path fill="currentColor"
d="M1846 0h-1644q-82 0 -142 60t-60 142v1644q0 82 60 142t142 60h1644q82 0 142 -60t60 -142v-1644q0 -82 -60 -142t-142 -60zM1702 202l-678 678l-678 -678h1356zM1168 1024l316 -317l318 317l-318 317zM1288 1433h-528l264 -265zM202 346l678 678l-678 678v-1356z
M980 1846h-634l206 -207h634zM1846 1846h-578l578 -577v577zM1846 779l-216 -217l216 -216v433z" />
</svg>