<svg xmlns="http://www.w3.org/2000/svg" xmlns:xlink="http://www.w3.org/1999/xlink" version="1.1" viewBox="-10 0 2067 2048">
   <path fill="currentColor"
d="M2047 510v923q0 60 -26 103q-28 47 -75 75v158q0 29 -21 53t-55 24h-53q-29 0 -53 -24t-24 -53v-130h-716v130q0 28 -22 53q-21 24 -55 24h-53q-29 0 -53 -24t-24 -53v-158q-42 -27 -72 -75q-29 -46 -29 -103v-923q0 -145 92 -217q80 -56 245 -76q96 -15 329 -15
q234 0 334 15q164 20 240 76q91 72 91 217zM1125 1332q0 -43 -29 -72t-72 -29t-72 29t-29 72t29 72t72 29t72 -29t29 -72zM1846 1332q0 -43 -32 -72t-72 -29t-72 29q-31 28 -31 72t31 72q32 29 72 29t72 -29t32 -72zM1846 510h-923v413h923v-413zM510 769q0 -110 -77 -182
q-77 -73 -182.5 -70t-180.5 79q-73 75 -69 183q0 91 57 159q56 66 144 86v822h106v-822q88 -20 144 -91q58 -73 58 -164z" />
</svg>