<svg xmlns="http://www.w3.org/2000/svg" xmlns:xlink="http://www.w3.org/1999/xlink" version="1.1" viewBox="-10 0 2068 2048">
   <path fill="currentColor"
d="M2048 817v-408q0 -87 -60 -147t-142 -60h-1644q-82 0 -142 60t-60 147v408q82 0 142 60t60 147t-60 147t-142 60v408q0 87 60 147t142 60h1644q82 0 142 -60t60 -147v-408q-82 0 -142 -60t-60 -147t60 -147t142 -60zM1846 668q-97 53 -152 149q-56 95 -56 207t56 207
q55 96 152 149v259h-1644v-259q96 -53 152 -149q54 -95 54 -209q0 -115 -54 -207q-57 -95 -152 -147v-259h1644v259zM922 1332h202v206h-202v-206zM922 923h202v202h-202v-202zM922 510h202v206h-202v-206z" />
</svg>