<svg xmlns="http://www.w3.org/2000/svg" xmlns:xlink="http://www.w3.org/1999/xlink" version="1.1" viewBox="-10 0 2058 2048">
   <path fill="currentColor"
d="M1706 489h-192q0 -130 -68 -244q-66 -114 -178 -179q-112 -66 -244 -66t-244 66q-112 65 -178 179q-66 113 -66 244h-192q-82 0 -140 57q-58 58 -58 140v1170q0 77 58 135q58 57 140 57h1362q82 0 139 -57t57 -135v-1170q0 -83 -57 -140t-139 -57zM1024 197q124 0 208 84
t84 208h-584q0 -123 84 -208q84 -84 208 -84zM1706 1856h-1362v-1170h1362v1170zM1024 1074q-124 0 -208 -84q-84 -85 -84 -208h-196q0 132 66 244q66 114 178 179q112 66 244 66t244 -66q112 -65 178 -179q68 -114 68 -244h-198q0 124 -84 208t-208 84z" />
</svg>