<svg xmlns="http://www.w3.org/2000/svg" xmlns:xlink="http://www.w3.org/1999/xlink" version="1.1" viewBox="-10 0 2068 2048">
   <path fill="currentColor"
d="M968 414l-166 -82l118 -236h788l118 236l-166 82l-70 -136h-556zM1930 654h-422l-74 -280h-240l-78 280h-418l-118 234l166 84l70 -136h996l66 136l170 -84zM1848 1952h-192l-22 -82l-322 -484l-322 484l-22 82h-192l270 -1020h192l-34 122l108 166l108 -166l-30 -122
h192zM1256 1302l-84 -126l-108 418zM1564 1594l-112 -418l-84 126zM746 1394l-370 -370v278h-376v188h376v278z" />
</svg>