<svg xmlns="http://www.w3.org/2000/svg" xmlns:xlink="http://www.w3.org/1999/xlink" version="1.1" viewBox="-10 0 2068 2048">
   <path fill="currentColor"
d="M1756 1012l-152 -684h70v-186h-1486v370h-188v186h188v332q-87 79 -136 186q-52 109 -52 228v184h188q0 118 80 198q82 80 198 80q118 0 200 -80q80 -80 80 -198h558q0 118 80 198t198 80t198 -80t80 -198h188v-184q0 -146 -80 -262q-82 -117 -212 -170zM466 1766
q-56 0 -98 -38q-40 -39 -40 -98q0 -60 40 -100q42 -42 98 -42t98 42t42 100q0 59 -42 97.5t-98 38.5zM1352 978l-106 -162l132 -86l-100 -154l-420 280l102 152l134 -86l104 160l-82 84h-258l-482 -654v-184h1040l144 650h-208zM1582 1766q-57 0 -98 -38q-42 -39 -42 -98
q0 -60 42 -100q42 -42 98 -42t98 42t42 100q0 59 -42 97.5t-98 38.5z" />
</svg>