<svg xmlns="http://www.w3.org/2000/svg" xmlns:xlink="http://www.w3.org/1999/xlink" version="1.1" viewBox="-10 0 2068 2048">
   <path fill="currentColor"
d="M1024 0q-276 0 -512 139q-234 138 -372 373q-140 236 -140 512t140 512q138 235 372 373q236 139 512 139t512 -139t374 -373t138 -512q0 -94 -16 -171q-17 -38 -58 -48q-20 -10 -38 -10h-230v-112q0 -70 -58 -102q-26 -10 -54 -10h-228v-118q0 -69 -60 -96
q-26 -16 -52 -16h-118v-229q0 -69 -54 -96q-30 -16 -58 -16zM742 341q68 0 119 51t51 120t-51 120t-123 51q-70 0 -118 -51t-48 -120t48 -120t122 -51zM400 795q70 0 120 50q52 51 52 123t-51 120t-123 48t-120 -48t-48 -120t48 -123q47 -50 122 -50zM966 912q74 0 122 48
t48 120t-48 123q-47 50 -119.5 50t-122.5 -50q-52 -51 -52 -123t51 -120t121 -48zM1536 1136q68 0 119 51t51 122q0 72 -51 120t-120 48t-119 -48q-50 -47 -50 -122q0 -70 50 -120q50 -51 120 -51zM912 1477q70 0 120 51q50 50 50 123t-50 120q-50 48 -122 48t-120 -48
t-48 -120t48 -123t122 -51z" />
</svg>