<svg xmlns="http://www.w3.org/2000/svg" xmlns:xlink="http://www.w3.org/1999/xlink" version="1.1" viewBox="-10 0 2068 2048">
   <path fill="currentColor"
d="M1846 1024q0 -249 -140 -457q-140 -207 -370 -300q-233 -94 -474 -46t-418 224q-174 175 -222 418q-48 242 44.5 473t301.5 371q206 139 456 139q220 0 410 -111q190 -110 300 -300q112 -191 112 -411zM2048 1024q0 278 -138 514q-136 236 -372 373q-237 137 -514.5 137
t-513.5 -137q-235 -136 -372 -373q-138 -236 -138 -514t138 -514q137 -237 372 -373q236 -137 514 -137q200 0 392 77q188 76 333.5 221t220.5 334q78 192 78 392zM1384 615q63 0 108 44q46 43 46 108t-46 110q-46 46 -110 46t-108 -46q-44 -44 -44 -108q0 -63 46 -108
q46 -46 108 -46zM818 769q0 62 -44 108q-45 46 -108 46q-64 0 -110 -46t-46 -110t46 -108q45 -44 108 -44q62 0 108 46t46 108zM1538 1332h-414q-111 0 -204 55q-96 58 -152 151l-176 -105q88 -142 228 -224q142 -84 304 -84h414v207z" />
</svg>