<svg xmlns="http://www.w3.org/2000/svg" xmlns:xlink="http://www.w3.org/1999/xlink" version="1.1" viewBox="-10 0 2068 2048">
   <path fill="currentColor"
d="M1846 1024q0 87 60 147t142 60v408q0 87 -60 147t-142 60h-1644q-82 0 -142 -60t-60 -147v-408q82 0 142 -60t60 -147t-60 -147t-142 -60v-408q0 -87 60 -147t142 -60h1644q82 0 142 60t60 147v408q-82 0 -142 60t-60 147zM1484 1461q0 -73 -86 -129q-73 -49 -186 -77
q-101 -24 -188 -24t-188 24q-115 28 -188 77q-86 56 -86 129v77h922v-77zM1024 1048q96 0 162 -67q68 -68 68 -164q0 -95 -68 -163t-163 -68t-163 68t-68 163q0 96 68 164q68 67 164 67z" />
</svg>