<svg xmlns="http://www.w3.org/2000/svg" xmlns:xlink="http://www.w3.org/1999/xlink" version="1.1" viewBox="-10 0 2068 2048">
   <path fill="currentColor"
d="M766 320q162 0 273 114t111 270v383q0 161 -111 272t-269 111t-272 -111t-114 -272v-383q0 -156 114 -270t268 -114zM766 578q-54 0 -90 36t-36 90v383q0 54 36 93t90 39t93 -39t39 -93v-383q0 -54 -39 -90t-93 -36zM1664 320q156 0 270 114t114 270v383q0 161 -114 272
t-272 111q-160 0 -270 -111q-110 -110 -110 -272v-383q0 -157 110 -270q110 -114 272 -114zM1664 578q-54 0 -93 36t-39 90v383q0 54 39 93t93 39t90 -39t36 -93v-383q0 -54 -36 -90t-90 -36zM132 1219q-54 0 -93 36t-39 89l132 384h126v-384q0 -53 -36 -89t-90 -36z" />
</svg>