<svg xmlns="http://www.w3.org/2000/svg" xmlns:xlink="http://www.w3.org/1999/xlink" version="1.1" viewBox="-10 0 2068 2048">
   <path fill="currentColor"
d="M1768 478l-266 -348l385 -74l74 382zM1479 534l-265 -344l-193 36l271 344zM1704 1112q158 0 293 82v-376h-1952v982q0 78 57 135t136 57h962q-83 -135 -83 -292q0 -155 81 -292q80 -137 215 -216q135 -80 291 -80zM1003 630l-271 -348l-192 40l270 344zM256 378l-96 18
q-77 18 -124 86q-46 64 -32 148l41 188l477 -92zM1933 1392l-348 352l-156 -156l-115 110l271 294l463 -464z" />
</svg>