<svg xmlns="http://www.w3.org/2000/svg" xmlns:xlink="http://www.w3.org/1999/xlink" version="1.1" viewBox="-10 0 2068 2048">
   <path fill="currentColor"
d="M1124 1947l208 -101l206 101v-716h-414v716zM1538 716v-206l-206 105l-208 -105v206l-202 101l202 106v202l208 -101l206 101v-202l202 -106zM1846 101h-1644q-82 0 -142 60t-60 147v1024q0 86 60 146t142 60h720v-206h-720v-1024h1644v1024h-106v206h106q82 0 142 -60
t60 -146v-1024q0 -87 -60 -147t-142 -60zM922 615h-614v-206h614v206zM716 923h-408v-207h408v207zM922 1231h-614v-207h614v207z" />
</svg>