<svg xmlns="http://www.w3.org/2000/svg" xmlns:xlink="http://www.w3.org/1999/xlink" version="1.1" viewBox="-10 0 2068 2048">
   <path fill="currentColor"
d="M1750 1327l298 -303l-298 -303v-423h-424l-302 -298l-304 298h-422v423l-298 303l298 303v423h422l304 298l302 -298h424v-423zM1990 1024l-240 240v-192h-554l-48 -48l48 -48h554v-192zM1706 1308l-140 134l-326 -327h466v193zM1072 1135l-48 -44l-48 44v-63h-62l42 -48
l-42 -48h62v-63l48 44l48 -44v63h62l-44 48l44 48h-62v63zM1240 933l326 -327l140 134v193h-466zM1706 341v342l-140 -140l-388 390h-64v-63l390 -389l-140 -140h342zM1114 808v-467h194l134 140zM1024 58l240 240h-192v553l-48 48l-48 -48v-553h-192zM932 808l-326 -327
l134 -140h192v467zM342 341h340l-138 140l388 389v63h-62l-390 -390l-138 140v-342zM342 740l138 -134l328 327h-466v-193zM58 1024l240 -240v192h552l48 48l-48 48h-552v192zM808 1115l-328 327l-138 -134v-193h466zM342 1707v-342l138 140l390 -390h62v63l-388 389
l138 140h-340zM932 1240v467h-192l-134 -140zM1024 1990l-240 -240h192v-553l48 -48l48 48v553h192zM1114 1240l328 327l-134 140h-194v-467zM1364 1707l140 -140l-390 -389v-63h64l388 390l140 -140v342h-342z" />
</svg>