<svg xmlns="http://www.w3.org/2000/svg" xmlns:xlink="http://www.w3.org/1999/xlink" version="1.1" viewBox="-10 0 2068 2048">
   <path fill="currentColor"
d="M1818 912h230v229h-230v-229zM1366 1365h224v230h-224v-230zM2048 1483q0 43 -34 77q-36 35 -84 35h-112v-230h230v118zM566 0h118v229h-230v-112q0 -47 35 -82t77 -35zM1930 0q48 0 84 35q34 34 34 82v112h-230v-229h112zM1366 229v-229h224v229h-224zM906 229v-229h230
v229h-230zM906 1595v-230h230v230h-230zM566 1595q-42 0 -77 -35t-35 -77v-118h230v230h-118zM454 912h230v229h-230v-229zM454 459h230v224h-230v-224zM2048 459v224h-230v-224h230zM112 459h112v1365h1366v112q0 48 -32 80t-76 32h-1370q-48 0 -80 -32t-32 -80v-1365
q0 -48 32 -80t80 -32z" />
</svg>