<svg xmlns="http://www.w3.org/2000/svg" xmlns:xlink="http://www.w3.org/1999/xlink" version="1.1" viewBox="-10 0 2058 2048">
   <path fill="currentColor"
d="M1218 1389l279 165l-73 119l-352 -211v-489h146v416zM1853 1362q0 188 -91 345q-92 157 -249 249q-158 92 -345 92q-186 0 -347 -101h-498q-49 0 -89 -37q-39 -36 -39 -91v-1495q0 -55 39 -94q38 -38 89 -38h164v-192h585v192h165q51 0 89 38q39 39 39 94v384
q214 64 351 245t137 409zM1657 1362q0 -132 -66 -245q-65 -111 -178 -176q-112 -64 -245 -64q-132 0 -244 64t-176 176t-64 245q0 132 64 244q65 114 176 179q112 66 244 66t245 -66q111 -65 178 -179q66 -112 66 -244z" />
</svg>