<svg xmlns="http://www.w3.org/2000/svg" xmlns:xlink="http://www.w3.org/1999/xlink" version="1.1" viewBox="-10 0 2068 2048">
   <path fill="currentColor"
d="M862 1630h-672q-78 0 -134 -56t-56 -136v-1150q0 -82 56 -138t134 -56h98l188 386h288l-188 -386h188l192 386h288l-194 -386h194l194 386h286l-192 -386h380v866q-80 -129 -222 -210q-139 -80 -306.5 -80t-307.5 84q-142 86 -228 228q-84 140 -84 312q0 184 98 336z
M2048 1818l-136 136l-296 -296q-107 66 -228 66q-180 0 -306 -126t-126 -304q0 -180 126 -306t306 -126t304 126q126 126 126 306q0 126 -66 228zM1626 1294q0 -100 -70 -170q-70 -68 -169 -68t-167 68q-70 70 -70 170q0 98 70 168t168 70t168 -70t70 -168z" />
</svg>