<svg xmlns="http://www.w3.org/2000/svg" xmlns:xlink="http://www.w3.org/1999/xlink" version="1.1" viewBox="-10 0 2068 2048">
   <path fill="currentColor"
d="M212 423q-12 3 -30 14q-182 263 -182 587q0 200 78 392q75 189 220.5 334t333.5 221q192 77 392 77q226 0 424 -91q201 -92 344 -255l-254 24q-428 48 -856 9q-110 0 -210 -48q-67 -32 -112 -91q-43 -57 -48 -130q0 -24 20 -43l1004 -1043v-15h-432q-343 9 -692 58z
M1860 1586q20 -5 28 -9q160 -255 160 -553q0 -200 -78 -392q-75 -189 -220.5 -334t-333.5 -221q-192 -77 -398 -77q-207 0 -394 79q-185 79 -330 224h28q473 -63 966 -34q143 0 284 53q66 28 114 89q49 61 54 137q0 29 -20 48l-932 962l-72 77v9h422q352 -9 722 -58z" />
</svg>