<svg xmlns="http://www.w3.org/2000/svg" xmlns:xlink="http://www.w3.org/1999/xlink" version="1.1" viewBox="-10 0 2068 2048">
   <path fill="currentColor"
d="M153 870v-4l22 -26l9 -4h356l5 4l-18 26l-8 4h-366zM6 962l-5 -5l22 -26l13 -4h452l4 9l-8 21l-9 5h-469zM245 1053v-4l13 -26l8 -5h200l5 5v26l-9 4h-217zM1279 853l-165 44q-12 4 -17 2q-3 -1 -13 -11q-20 -24 -48 -39q-88 -43 -178 17q-105 69 -100 187q0 63 37 107
q37 46 93 54q99 9 174 -70l26 -34h-191q-32 0 -22 -31l52 -109q8 -17 26 -17h318q20 -60 69 -130q106 -136 278 -166q164 -30 287 53q121 83 139 221q25 198 -117 340q-97 97 -239 126l-78 8q-144 -4 -244 -87q-74 -65 -95 -152l-44 65q-108 148 -282 166q-153 26 -268 -61
q-115 -86 -128 -222q-19 -161 87 -298q105 -137 278 -167q149 -25 261 47q77 53 117 140q4 13 -13 17zM1849 1001l-5 -31q-14 -73 -71 -110q-59 -37 -133 -24q-144 35 -174 174q-14 56 12.5 111.5t78.5 75.5q82 35 166 -5q117 -61 126 -191z" />
</svg>