<svg xmlns="http://www.w3.org/2000/svg" xmlns:xlink="http://www.w3.org/1999/xlink" version="1.1" viewBox="-10 0 2068 2048">
   <path fill="currentColor"
d="M1024 409q220 0 410 81q188 80 300 224q112 142 112 310t-112 310q-112 144 -300 224q-190 81 -410.5 81t-411.5 -81q-187 -80 -300 -224q-110 -142 -110 -309.5t110 -310.5q113 -144 300 -224q191 -81 412 -81zM1024 202q-281 0 -514 110q-237 111 -372 301
q-138 191 -138 411t138 411q134 188 372 300q235 111 513.5 111t514.5 -111q238 -112 372 -300q138 -191 138 -411t-138 -411q-135 -189 -372 -301q-234 -110 -514 -110z" />
</svg>