<svg xmlns="http://www.w3.org/2000/svg" xmlns:xlink="http://www.w3.org/1999/xlink" version="1.1" viewBox="-10 0 2058 2048">
   <path fill="currentColor"
d="M1218 197h-584v-197h584v197zM1648 951l-818 818v274q-218 -22 -398 -146q-176 -121 -280 -313q-104 -188 -104 -414q0 -237 120 -439q118 -201 320 -320q200 -118 438 -118q153 0 292 52q143 53 256 144l138 -142q64 56 136 138l-136 141q96 120 142 261q-59 18 -106 64
zM1022 585h-192v686h192v-686zM1022 1851v197h202l598 -594l-202 -201zM1982 1216l-128 -128q-14 -14 -34 -14t-34 14l-96 96l200 201l92 -96q18 -13 18 -34t-18 -39z" />
</svg>