<svg xmlns="http://www.w3.org/2000/svg" xmlns:xlink="http://www.w3.org/1999/xlink" version="1.1" viewBox="-10 0 2058 2048">
   <path fill="currentColor"
d="M1324 0q-124 0 -218 91q-92 89 -92 221h-124v127q-94 27 -184 86l940 936q112 -169 112 -376q0 -225 -134 -407q-134 -180 -344 -239v-127h-122q0 -67 50 -117t120 -50q68 0 118 50t50 117q0 91 63 154t153 63q88 0 151 -63t63 -154v-72h-140v72q0 31 -22 52
q-23 21 -52 21q-30 0 -50 -21q-20 -20 -20 -52q0 -131 -94 -221q-94 -91 -224 -91zM258 348l-136 136l340 339q-50 125 -50 262q0 181 90 337q91 157 244 247q154 90 340 90q130 0 256 -54l344 343l136 -135z" />
</svg>