<svg xmlns="http://www.w3.org/2000/svg" xmlns:xlink="http://www.w3.org/1999/xlink" version="1.1" viewBox="-10 0 2068 2048">
   <path fill="currentColor"
d="M1770 654h-280v-375h-1302q-78 0 -133 55t-55 133v1024h188q0 118 80 198t198 80q120 0 200 -80t80 -198h558q0 118 80 198t198 80t198 -80t80 -198h188v-467zM466 1630q-55 0 -98 -44q-40 -42 -40 -98q0 -54 40 -95q42 -42 98 -42t98 42t42 95q0 54 -42 98t-98 44z
M1304 1303h-632q-34 -42 -90 -67q-53 -24 -116 -24q-60 0 -114 24q-56 25 -90 67h-74v-836h1116v836zM1582 1630q-56 0 -98 -44q-42 -42 -42 -98q0 -54 42 -95q42 -42 98 -42t98 42t42 95q0 54 -42 98q-43 44 -98 44zM1490 1024v-231h232l186 231h-418zM466 933v-188h558
v188h-558z" />
</svg>