<svg xmlns="http://www.w3.org/2000/svg" xmlns:xlink="http://www.w3.org/1999/xlink" version="1.1" viewBox="-10 0 2058 2048">
   <path fill="currentColor"
d="M1803 1447q-73 82 -149 82q-77 0 -120 -48q-28 -32 -62 -116l-164 -404l-168 414q-29 72 -53 101q-44 53 -118 53t-122 -48q-25 -29 -53 -101l-279 -693h231l221 558l168 -418q28 -66 53 -96q48 -53 120 -53t116 53q28 29 57 96l183 452q67 -100 96 -224q28 -123 12 -247
q-17 -124 -77 -236q-59 -109 -154 -192q-93 -81 -211 -125t-243 -44q-260 -5 -478 154q-219 159 -300 409t0 502t298 409q215 156 480 151q118 0 221 -28v216q-111 24 -221 24q-332 0 -603 -195q-272 -195 -375 -512t0 -634q103 -316 373 -512q268 -195 605 -195
q245 0 452 120q205 119 329 327q123 207 123 452q0 303 -188 548z" />
</svg>