<svg xmlns="http://www.w3.org/2000/svg" xmlns:xlink="http://www.w3.org/1999/xlink" version="1.1" viewBox="-10 0 2058 2048">
   <path fill="currentColor"
d="M106 0h324q46 0 76 30l228 223l86 -81q66 -66 152 -66h646q86 0 152 66l106 106q66 66 66 152v1401q0 91 -63 154t-155 63h-1076q-92 0 -155 -63t-63 -154v-1184q0 -85 66 -151l82 -86l-194 -198h-278v-212zM972 324v212h646v-212h-646zM1012 971l-212 -218h-152v152
l212 218v343l-212 213v152h152l212 -213h344l216 213h152v-152l-216 -213v-343l216 -218v-152h-152l-216 218h-344zM1078 1183h216v218h-216v-218z" />
</svg>