<svg xmlns="http://www.w3.org/2000/svg" xmlns:xlink="http://www.w3.org/1999/xlink" version="1.1" viewBox="-10 0 2068 2048">
   <path fill="currentColor"
d="M1094 1693q0 -206 130 -369q-23 -60 -42 -94q60 -50 90 -122q80 13 150 57q131 -71 278 -71q148 0 282 75q10 -66 10 -121q0 -174 -112 -262q-114 -89 -290 -82q-178 8 -360 105q-51 -60 -122 -89q38 -186 158 -247q91 -43 130 -122q39 -80 16 -161q-25 -84 -108 -134
q-98 -56 -256 -56q-174 0 -262 113q-90 114 -82 289q7 177 104 360q-58 45 -92 122q-182 -37 -244 -159q-47 -90 -124 -129q-77 -40 -158 -16q-82 24 -134 108q-56 98 -56 257q0 174 112 262q113 89 288 81q175 -7 362 -105q47 61 122 94q-38 181 -160 243q-88 42 -128 122
q-40 82 -16 161q23 82 108 133q98 56 256 56q121 0 202 -56q-52 -122 -52 -243zM996 1094q-42 0 -70 -28t-28 -70t28 -70t70 -28t70 28t28 70t-28 70t-70 28zM2048 1483l-216 210l216 215l-140 140l-216 -215l-210 215l-140 -140l210 -215l-210 -210l140 -141l210 211
l216 -211z" />
</svg>