<svg xmlns="http://www.w3.org/2000/svg" xmlns:xlink="http://www.w3.org/1999/xlink" version="1.1" viewBox="-10 0 2068 2048">
   <path fill="currentColor"
d="M1024 0q-200 0 -392 77q-188 76 -333.5 221t-220.5 334q-78 192 -78 392t78 392q75 189 220.5 334t333.5 221q192 77 392 77t392 -77q188 -76 333.5 -221t220.5 -334q78 -192 78 -392t-78 -392q-75 -189 -220.5 -334t-333.5 -221q-192 -77 -392 -77zM1470 380
q82 -5 136 29q52 33 52 86q4 29 -16.5 60t-60 34t-61.5 -17q-20 -20 -20 -53q-6 -10 14 -48l10 -29q0 -20 -20 -24q-21 -5 -34 -5q-101 5 -158 130q-35 81 -68 255l-14 87q115 19 182 -24q20 -15 20 -27t-14 -36q-14 -22 -10 -38q5 -29 24 -44q19 -14 46 -14q26 0 42 24
q18 25 18 53q0 58 -68 101q-72 53 -192 53q-21 0 -58 -5q-54 272 -90 394q-57 162 -150 274q-135 159 -298 168q-76 0 -124 -33t-48 -87q0 -52 34 -84q32 -31 68 -31t64 24q26 23 28 62q3 37 -32 53l-4 5q-20 15 -20 24t8 17q8 7 26 7q37 0 86 -34h6q67 -57 110 -177
q34 -97 74 -318q38 -206 76 -336q-20 -15 -60 -51q-36 -32 -66 -50q-42 -31 -82 -39q-86 -24 -130 29q-23 33 -18 70q4 35 28 60q91 99 120 154q29 52 20 110q-16 102 -116 154q-102 54 -226 15q-100 -33 -144 -101q-33 -58 -14 -111q10 -34 36 -46q26 -11 57.5 -2t44.5 41
q11 30 2 65l-24 53q-15 38 62 62q47 15 91.5 -5t52.5 -62q20 -52 -28 -96q-80 -90 -106 -149q-39 -71 -18 -142q21 -68 76 -108q112 -82 240 -44q52 15 96 48q28 19 72 63l48 38q62 -176 164 -293q115 -135 258 -139z" />
</svg>