<svg xmlns="http://www.w3.org/2000/svg" xmlns:xlink="http://www.w3.org/1999/xlink" version="1.1" viewBox="-10 0 2068 2048">
   <path fill="currentColor"
d="M202 1485v-870h-100v-105h100v-101h-100v-101h100v-106h-100v-101h614q77 5 138 65q59 60 68 142h1024v101h-1024q-9 82 -69 146.5t-137 59.5h-206v721q16 0 24 -4t24 0h4q88 0 198 43q63 -145 214 -248q150 -103 310 -103q234 0 398 163q164 164 164 399v29l-6 24h-1724
q20 -79 86 -154zM408 1356v-741h-100v789q75 -38 100 -48zM716 510v-101h-206v101h206zM716 202h-206v106h206v-106zM308 202v106h100v-106h-100zM308 409v101h100v-101h-100zM0 1740h2048l-202 207h-1644z" />
</svg>