<svg xmlns="http://www.w3.org/2000/svg" xmlns:xlink="http://www.w3.org/1999/xlink" version="1.1" viewBox="-10 0 2058 2048">
   <path fill="currentColor"
d="M1638 1022q-162 0 -302 81t-220 216q-107 10 -192 10q-223 0 -410 -55t-300 -149q-110 -93 -110 -204v-307q0 111 110 204q113 94 300 149t409.5 55t410.5 -55t300 -149q110 -92 110 -204v307q0 53 -30 106q-26 -5 -76 -5zM924 820q222 0 410 -55q189 -56 299.5 -148
t110.5 -207q0 -114 -110 -206q-112 -94 -300 -149t-410.5 -55t-409.5 55t-300 149q-110 93 -110 206q0 114 110 207q111 93 300 148q187 55 410 55zM1034 1530q-36 5 -110 5q-223 0 -410 -55t-300 -149q-110 -93 -110 -204v307q0 111 110 204q113 94 300 149t410 55
q85 0 134 -5q-34 -101 -34 -201q0 -43 10 -106zM1744 1741v-412h-206v412h-206l306 307l306 -307h-200z" />
</svg>