<svg xmlns="http://www.w3.org/2000/svg" xmlns:xlink="http://www.w3.org/1999/xlink" version="1.1" viewBox="-10 0 2058 2048">
   <path fill="currentColor"
d="M1656 875l-22 37q18 -51 18 -162v-69l-10 -4q-4 -129 -100 -263q-91 -123 -202 -174q-86 -41 -208 -49q-115 -7 -184 26q5 -5 28 -12q12 -4 16.5 -6.5t1.5 -4.5q-58 5 -82 13l-46 23q-43 26 -78 37q-10 9 0 9l40 -9l-18 14q-11 4 -44 7t-48 7q-32 19 -74 60q5 4 24 -5
l8 -5l-14 19q-55 -4 -156 92q-85 86 -124 147l18 5q-15 36 -42 87q-30 55 -30 83l-10 74q-14 116 -14 175q0 91 28 128l-4 51l22 46h-14q18 58 32 76q14 16 32 16q19 0 28 14q24 24 46 83q-23 -9 -36 -32q-5 14 12 46q17 33 38 59l-10 14q10 23 34 42l8 9q-19 -11 -16 2
q2 8 12 25q14 28 60 83l14 19l8 -19q-4 33 52 102h32q8 17 36.5 41t45.5 28l-18 23q33 10 52 25q22 17 62 30l-18 -28l38 37q42 42 81.5 58t90.5 25q45 9 84 18q-154 0 -210 -23q-195 -51 -364 -207q-172 -158 -268 -368q-100 -225 -86 -456q-5 -37 0 -124q0 -95 -6 -110
v-10q47 -156 98 -257v0q14 15 36 -23l14 -33q18 -54 32 -78h14q5 -28 42 -73q26 -22 82 -74q38 -33 56 -51v14q68 -65 266 -147l56 -23q-10 14 0 14l36 -10q42 -9 64 -9l-50 28q33 -9 62 -2q28 7 62 2q-50 4 -46 14q31 4 72 -5q37 -9 76 5l-6 -19l74 23q73 18 138 56
q14 0 28 -5q32 -9 64 5l6 9q4 19 54 50q9 -4 -18 -32l-4 -4q101 56 188 156q94 110 124 221q-17 -28 -20 -28q-3 4 2 33q4 27 0 27q30 88 42 147l-6 -4q-38 -145 -82 -203q0 15 -16 12q-15 -3 -18 7q-3 7 6 46q9 13 14 4q2 -5 3.5 -6.5t2.5 -0.5q2 1 16 26q0 13 10 60l4 32
q-4 0 -14 -19q-8 -17 -12 -9q13 60 32 74h-8q-6 0 -6 23q4 36 8 44q5 7 14 2h10l-14 32q-23 59 -14 106l-18 -55v46q4 35 -14 78q14 -44 14 -71q0 -31 -14 -12q4 48 -32 120q-28 52 -24 78l-22 -32q-28 48 -26 62q3 15 -12 44q6 -10 4 -16q-3 -7 6 -21q-4 0 -38 34
q-38 37 -54 49q-112 88 -242 106t-264 -33q0 -9 -14 -18q-121 -94 -170 -175q-55 -101 -36 -258q9 -10 26 -50q27 -72 56 -92q28 -56 92 -95q63 -38 136 -41q72 -3 140 34q52 25 96 79q-64 -56 -154 -69q-90 -14 -172 25t-128 124q-47 86 -42 177l4 -4q5 0 10 -14
q-5 120 68 212q73 90 180 128q107 37 202 -9v5q50 -13 84 -42q16 -17 36 -32l-10 14q-15 17 -2 16q18 -3 114 -90l22 -18q5 -19 2 -32q-2 -12 12 -37l28 -14l14 -32q22 -57 22 -101z" />
</svg>