<svg xmlns="http://www.w3.org/2000/svg" xmlns:xlink="http://www.w3.org/1999/xlink" version="1.1" viewBox="-10 0 2068 2048">
   <path fill="currentColor"
d="M1394 466l280 370h186q80 0 134 54t54 134v278h-188q0 120 -80 200t-198 80t-198 -80t-80 -200h-558q0 120 -80 200t-200 80q-118 0 -198 -80t-80 -200h-188v-278q0 -78 56 -134q54 -54 132 -54l278 -370h928zM886 606h-350l-174 230h524v-230zM1024 606v230h480
l-180 -230h-300zM466 1164q-56 0 -97 41t-41 98t40 97q42 42 98 42t98 -42t42 -98t-42 -98q-40 -40 -98 -40zM1582 1164q-58 0 -99 41t-41 98t42 97q42 42 98 42t98 -42t42 -98t-42 -98q-42 -40 -98 -40z" />
</svg>