<svg xmlns="http://www.w3.org/2000/svg" xmlns:xlink="http://www.w3.org/1999/xlink" version="1.1" viewBox="-10 0 2058 2048">
   <path fill="currentColor"
d="M1142 164q57 0 102 41q42 40 42 101t-42 101q-45 41 -104.5 41t-100.5 -41t-41 -101t41 -101t103 -41zM1358 1123h154v617h-154v-617zM1358 660h154v155h-154v-155zM848 53l-206 -53l-204 670l-220 294l336 96zM1840 1696q-7 4 -24 25q-67 76 -106 91q-74 34 -144 34
h-362l-4 -309q-5 -30 -20 -53l-246 -438l92 -280l136 237q24 33 62 33h226q34 0 58 -24t24 -58q0 -33 -22 -58q-20 -24 -54 -24l-170 -14l-192 -352l-14 -14q-21 -20 -48 -32q-29 -12 -68 -12q-63 0 -92 27q-29 28 -44 75l-394 1296h-308v202h1440q192 0 356 -164zM820 1268
l192 308l14 270h-414z" />
</svg>