<svg xmlns="http://www.w3.org/2000/svg" xmlns:xlink="http://www.w3.org/1999/xlink" version="1.1" viewBox="-10 0 2068 2048">
   <path fill="currentColor"
d="M1876 336h-222v220q-280 -124 -590 -124q-246 0 -472 76q-228 78 -416 220l-176 -236q227 -170 498 -264q267 -92 566 -92q429 0 812 200zM708 1440l356 472l356 -472q-158 -120 -356.5 -120t-355.5 120zM352 964l180 236q237 -176 531.5 -176t530.5 176l60 -80v-230
q-271 -162 -590 -162q-197 0 -378 62q-183 64 -334 174zM1854 1518h194v-198h-194v198zM1854 530v590h194v-590h-194z" />
</svg>