<svg xmlns="http://www.w3.org/2000/svg" xmlns:xlink="http://www.w3.org/1999/xlink" version="1.1" viewBox="-10 0 2058 2048">
   <path fill="currentColor"
d="M1116 188q180 0 330 87q151 88 238 237q86 150 86 325q0 190 -102 351q-102 159 -272 237v436h-650v-279h-90q-80 0 -134 -54q-54 -55 -54 -133v-279h-140q-29 0 -42.5 -26t4.5 -48l178 -236q9 -172 98 -311q90 -141 236 -224t314 -83zM1116 0q-208 0 -388 98
q-183 99 -299.5 266t-138.5 373l-148 196q-41 50 -46 113q-6 66 24 127q51 104 160 126v96q0 131 82 231q80 100 198 130v292h1022v-514q177 -119 274 -300q98 -184 98 -397q0 -226 -112 -418q-109 -190 -304 -305q-194 -114 -422 -114zM1404 785v-40q0 -22 -4 -34l82 -61
q10 -4 10 -27l-78 -126q-5 -9 -12 -11q-8 -2 -16 2l-90 40q-24 -27 -62 -40l-12 -95q-5 -18 -22 -18h-148q-18 0 -18 18l-12 95q-35 14 -62 40l-96 -40q-13 -9 -22 9l-74 126q-9 23 4 27l80 61l-6 34l6 40l-80 61q-12 4 -4 22l74 130q5 9 22 9l92 -39q25 19 66 35l12 100
q0 13 18 13h148q17 0 22 -13l12 -100q45 -18 62 -35l90 39q23 0 28 -9l78 -130q0 -18 -10 -22zM1126 881q-52 0 -92 -40t-40 -96q0 -55 40 -93q39 -37 94 -37t94 37q38 38 38 93q0 57 -38 96q-40 40 -96 40z" />
</svg>