<svg xmlns="http://www.w3.org/2000/svg" xmlns:xlink="http://www.w3.org/1999/xlink" version="1.1" viewBox="-10 0 2058 2048">
   <path fill="currentColor"
d="M1024 745q117 0 198 81t81 198q0 118 -81 199q-80 80 -198 80t-198 -80q-81 -81 -81 -199q0 -117 81 -198t198 -81zM1568 1704q-227 266 -544 344q-358 -87 -597 -407t-239 -708v-558l836 -375l836 375v558q0 332 -178 619l-270 -271q78 -117 78 -257q0 -126 -63 -233
t-170 -170t-233 -63t-233 63t-170 170t-63 233q0 127 63 233q63 107 170 170q108 64 233 64q138 0 257 -79z" />
</svg>