<svg xmlns="http://www.w3.org/2000/svg" xmlns:xlink="http://www.w3.org/1999/xlink" version="1.1" viewBox="-10 0 2058 2048">
   <path fill="currentColor"
d="M1842 2048h-1636v-202q0 -108 110 -205q108 -95 299 -151q187 -55 409 -55t409 55q191 56 299 151q110 97 110 205v202zM617 722h813v100q0 173 -119 292q-120 120 -287 120t-287 -120t-120 -292v-100zM1737 209q-43 0 -72 29t-29 77v100h-153l-143 -306q-20 -44 -39 -53
q-37 -37 -95 -45q-57 -7 -110 17l-72 19l-72 -29q-53 -24 -110 -17q-58 8 -96 46q-18 19 -38 62l-143 306h-154v-100q0 -49 -28 -77q-29 -29 -74 -29q-46 0 -75 29q-28 28 -28 77v100q0 87 59 146q60 60 146 60h1225q86 0 146 -60t60 -146v-100q0 -42 -29 -74t-76 -32z" />
</svg>