<svg xmlns="http://www.w3.org/2000/svg" xmlns:xlink="http://www.w3.org/1999/xlink" version="1.1" viewBox="-10 0 2068 2048">
   <path fill="currentColor"
d="M1316 1444q-154 222 -154 389q0 31 18 105l4 23q0 17 -10 27q-9 9 -16 5q-6 -4 -6 -14q-74 -98 -110 -187q-36 -94 -36 -192q0 -173 118 -352l-136 -138q-174 224 -174 430q0 29 14 105l4 23q0 19 -8 28q-9 8 -16 4q-8 -4 -8 -14q-74 -98 -110 -187q-36 -94 -36 -192
q0 -181 146 -389l-132 -128q-170 200 -170 352q0 50 24 87q0 10 -10 19q-8 9 -18 4l-4 -4q-106 -118 -106 -272q0 -153 138 -323l-522 -525l128 -128l1920 1924l-124 124zM892 516q54 -100 54 -201q0 -155 -104 -274q-10 -9 -28 -9q-9 0 -4 9l4 9q18 63 18 87q0 110 -78 233
zM1582 470q0 219 -242 494l192 197q214 -215 214 -448q0 -191 -146 -380q-9 -9 -18 -4q-10 5 -10 23q0 22 4 57q6 43 6 61zM1212 841q174 -219 174 -430q0 -190 -148 -379h-18q-8 9 -8 27q18 78 18 128q0 200 -216 466z" />
</svg>