<svg xmlns="http://www.w3.org/2000/svg" xmlns:xlink="http://www.w3.org/1999/xlink" version="1.1" viewBox="-10 0 2067 2048">
   <path fill="currentColor"
d="M835 1978q133 -55 137 -187q0 -115 -86 -227q-59 -90 -167 -177q-72 -60 -192 -142q-151 -96 -252 -222l-5 -5q-32 -40 -46 -66q-14 -34 21 -45q51 -10 191 55l41 21q168 71 283 141l111 -182q-139 -87 -283 -146q-165 -72 -303 -91q-97 -15 -167 10q-80 36 -106 121
q-44 132 81 298q57 72 146 152q56 40 167 121q164 114 237 187v5q83 79 101 126q16 37 11 43q-4 8 -46 8q-83 0 -212 -61q-82 -39 -197 -116l-106 187q181 111 308 156q202 81 333 36zM2032 296q15 -19 15 -42.5t-15 -43.5l-141 -142q-19 -15 -42.5 -15t-43.5 15l-111 111
l227 228zM972 907v222h222l661 -662l-222 -222z" />
</svg>