<svg xmlns="http://www.w3.org/2000/svg" xmlns:xlink="http://www.w3.org/1999/xlink" version="1.1" viewBox="-10 0 2068 2048">
   <path fill="currentColor"
d="M1400 1875h-752q-41 0 -70 -27q-28 -27 -28 -66v-754l-120 102q-31 27 -68 27q-38 0 -64 -27l-272 -266q-26 -30 -26 -68q0 -39 26 -69l560 -554h154q0 88 72 195q79 125 212 208q134 -84 212 -208q72 -107 72 -195h154l558 554q28 31 28 69q0 36 -28 68l-270 266
q-26 27 -64 27q-37 0 -68 -27l-120 -102v754q0 39 -28 66q-29 27 -70 27zM1822 793l-408 -403q-88 137 -164 213q-94 98 -226 159q-133 -61 -226 -159q-77 -76 -164 -213l-408 403l138 138l284 -191h92v944h568v-944h92l284 191z" />
</svg>