<svg xmlns="http://www.w3.org/2000/svg" xmlns:xlink="http://www.w3.org/1999/xlink" version="1.1" viewBox="-10 0 2058 2048">
   <path fill="currentColor"
d="M1024 202q138 0 257 70q120 71 188 187q69 119 69 257q0 204 -178 515q-130 237 -336 500q-206 -263 -336 -500q-178 -311 -178 -515q0 -137 70 -257q68 -117 187 -187t257 -70zM1024 0q-196 0 -360 96t-260 260t-96 360q0 183 111 433q93 206 245 433q118 172 250 336
l110 130l111 -130q132 -164 250 -336q152 -227 245 -433q110 -248 110 -433q0 -196 -96 -360q-97 -165 -259 -260q-163 -96 -361 -96zM952 1231l505 -515l-145 -144l-360 370l-163 -163l-144 144z" />
</svg>