<svg xmlns="http://www.w3.org/2000/svg" xmlns:xlink="http://www.w3.org/1999/xlink" version="1.1" viewBox="-10 0 2058 2048">
   <path fill="currentColor"
d="M1024 0l-836 375v558q0 254 109 488q111 238 300 401q191 164 427 226q236 -62 427 -226q189 -163 300 -401q109 -234 109 -488v-558zM1024 375q117 0 198 81t81 196q0 116 -81 198q-81 83 -198 83t-198 -83q-81 -82 -81 -198q0 -115 81 -196t198 -81zM1499 1491
q-83 126 -205 220q-122 93 -270 141q-148 -48 -270 -141q-122 -94 -205 -220q-52 -73 -83 -144q0 -74 77 -140q74 -64 202 -102q124 -37 279 -37t279 37q126 38 202 100q76 63 76 142q-32 75 -82 144z" />
</svg>