<svg xmlns="http://www.w3.org/2000/svg" xmlns:xlink="http://www.w3.org/1999/xlink" version="1.1" viewBox="-10 0 2068 2048">
   <path fill="currentColor"
d="M188 375v1486h1486v187h-1486q-78 0 -132 -54q-56 -55 -56 -133v-1486h188zM1860 0h-1302q-74 0 -128 55q-54 54 -54 133v1303q0 74 54 128q54 55 128 55h1302q78 0 134 -55q54 -54 54 -128v-1303q0 -79 -54 -133q-56 -55 -134 -55zM1860 1491h-1302v-1303h1302v1303z
M934 1212h-280v183h280v-183zM1304 1212h-280v183h280v-183zM934 933h-280v183h280v-183zM1304 933h-280v183h280v-183zM934 654h-280v183h280v-183zM1304 654h-280v183h280v-183z" />
</svg>