<svg xmlns="http://www.w3.org/2000/svg" xmlns:xlink="http://www.w3.org/1999/xlink" version="1.1" viewBox="-10 0 2068 2048">
   <path fill="currentColor"
d="M760 1803q-7 -12 -18 -32q-33 -62 -42 -96l-36 -69h-78v-484h484q198 -101 394 -101q269 0 484 156v-348q0 -128 -82 -210t-210 -82h-1362q-128 0 -210 82q-84 83 -84 210v585h390v389h370zM1656 729q46 0 73 27t27 71t-27 71t-71 27t-71 -27t-27 -71t27 -71t69 -27z
M1560 436h-1170v-388h1170v388zM1464 1510q40 0 68 28t28 71t-28 71q-28 27 -72 27q-42 0 -70 -27q-28 -28 -28 -71t28 -71t74 -28zM1464 1218q-197 0 -360 110q-161 109 -226 278q65 175 226 284q163 110 356 110q195 0 358 -110q160 -108 230 -284q-69 -169 -230 -278
q-163 -110 -354 -110zM1464 1853q-106 0 -177 -71t-71 -173q0 -103 71 -174t173 -71q104 0 175 71t71 174q0 102 -71 173t-171 71z" />
</svg>