<svg xmlns="http://www.w3.org/2000/svg" xmlns:xlink="http://www.w3.org/1999/xlink" version="1.1" viewBox="-10 0 2058 2048">
   <path fill="currentColor"
d="M636 1367q-82 0 -139 -57t-57 -137q0 -81 57 -138t137 -57t137 57t57 138q0 80 -57 137t-135 57zM878 1563l146 -292l146 292h-292zM1412 1367q-78 0 -135 -57t-57 -137q0 -81 57 -138t137 -57t138 57q58 58 58 138q0 79 -58 137q-58 57 -140 57zM1998 978
q0 -198 -74 -375q-73 -179 -210 -315q-137 -138 -317.5 -213t-372.5 -75t-372 75q-179 74 -318 213q-136 136 -210 315q-74 180 -74 375q0 197 78 380q79 174 216 311v379h1362v-379q135 -135 214 -311q78 -183 78 -380zM1514 1856h-198v-197h-196v197h-192v-197h-196v197
h-196v-274q-135 -116 -214 -270q-80 -157 -80 -334q0 -214 106 -393q104 -177 286 -283q180 -105 390 -105t390 105q182 106 286 283q106 179 106 393q0 177 -80 339q-79 159 -212 265v274z" />
</svg>