<svg xmlns="http://www.w3.org/2000/svg" xmlns:xlink="http://www.w3.org/1999/xlink" version="1.1" viewBox="-10 0 2068 2048">
   <path fill="currentColor"
d="M1740 1487q-200 0 -368 -63h-34q-38 0 -68 29l-224 226q-223 -117 -396 -290q-175 -175 -280 -387l224 -225q25 -20 30 -48q4 -30 -10 -53q-52 -186 -52 -369q0 -39 -31 -70t-71 -31h-360q-38 0 -69 31t-31 70q0 475 236 878q229 398 628 628q401 235 876 235
q40 0 71 -31t31 -70v-359q0 -39 -31 -70t-71 -31zM206 412h154q8 111 48 264l-120 125q-66 -199 -82 -389zM1636 1842q-187 -15 -390 -82l126 -120q163 39 264 39v163zM1534 1026l514 -513l-514 -513v307h-408v412h408v307z" />
</svg>