<svg xmlns="http://www.w3.org/2000/svg" xmlns:xlink="http://www.w3.org/1999/xlink" version="1.1" viewBox="-10 0 2068 2048">
   <path fill="currentColor"
d="M302 21v198h-174q-52 0 -90 40q-38 41 -38 92v1535q0 60 38 101q38 40 90 40h936q51 0 92 -38q40 -37 40 -89v-1549q5 -52 -32 -92q-38 -40 -90 -40h-170v-198h-602zM1704 624v381l-230 -230l-70 70l282 278l-282 282l70 71l230 -231v382h52l292 -292l-222 -212l212 -207
l-282 -292h-52zM500 624h202v603h-202v-603zM1808 812l90 90l-90 103v-193zM1808 1245l90 90l-90 99v-189zM500 1424h202v203h-202v-203z" />
</svg>