<svg xmlns="http://www.w3.org/2000/svg" xmlns:xlink="http://www.w3.org/1999/xlink" version="1.1" viewBox="-10 0 2068 2048">
   <path fill="currentColor"
d="M1070 242h-192v-192h-585v192h-197q-44 0 -70 28q-26 27 -26 72v1560q0 44 26 70q25 26 70 26h974q47 0 73 -26q27 -25 27 -70v-1560q0 -46 -27 -73t-73 -27zM681 1608h-196v-196h196v196zM681 1220h-196v-584h196v584zM1764 334l-137 132q147 154 199 352q53 202 0 402
q-51 199 -199 348l137 136q187 -181 251 -432q65 -248 0 -502q-65 -255 -251 -436zM1481 612l-137 138q119 118 119 278t-119 280l137 136q115 -114 155 -268q41 -152 0 -300q-40 -149 -155 -264z" />
</svg>