<svg xmlns="http://www.w3.org/2000/svg" xmlns:xlink="http://www.w3.org/1999/xlink" version="1.1" viewBox="-10 0 2068 2048">
   <path fill="currentColor"
d="M680 684q102 0 192 56q86 54 128 152q39 95 20 200q-20 104 -96 176q-78 73 -176 92q-102 20 -196 -20q-98 -41 -152 -124q-56 -85 -56 -188q0 -144 100 -244t236 -100zM680 340q-280 0 -480 200q-200 199 -200 484t200 484q200 200 484 200t484 -200t200 -484t-200 -484
t-488 -200zM1792 1028q103 0 180 72q76 72 76 180t-76 184t-180 76t-180 -76t-76 -184t76 -180t180 -72z" />
</svg>