<svg xmlns="http://www.w3.org/2000/svg" xmlns:xlink="http://www.w3.org/1999/xlink" version="1.1" viewBox="-10 0 2068 2048">
   <path fill="currentColor"
d="M1512 1138l-210 -205q149 -144 348 -243q96 -49 174 -68q-123 323 -312 516zM1060 28q-12 28 -32 68q-39 97 -64 178q-42 140 -60 261l326 320q36 -371 -170 -827zM1924 2048l124 -123l-1924 -1925l-124 124l732 731q-88 -75 -206 -137q-87 -45 -160 -73l-68 -23
q182 475 498 667q-124 -14 -256 9q-88 21 -188 60l-74 32q329 147 582 96q-88 69 -148 178q-27 57 -40 101q242 -92 338 -243v453h100v-453q96 151 338 243l-18 -51q-11 -23 -60 -109q-52 -71 -108 -119h18q19 3 49.5 7.5t40.5 6.5z" />
</svg>