<svg xmlns="http://www.w3.org/2000/svg" xmlns:xlink="http://www.w3.org/1999/xlink" version="1.1" viewBox="-10 0 2068 2048">
   <path fill="currentColor"
d="M1332 868q0 -38 30 -70q32 -32 72 -32t72 32t32 73t-31 72t-72 31t-72 -31t-31 -75zM2048 612v718l-290 96l-172 572h-562v-208h-206v208h-564l-66 -236q-79 -286 -126 -500q-62 -303 -62 -442q0 -155 74 -284q76 -130 204 -206q130 -78 284 -78h514q72 -90 178 -146
q105 -56 230 -56q65 0 110 44q44 43 44 110q0 31 -14 58q-24 58 -28 120l230 230h222zM1846 820h-106l-356 -360q0 -102 24 -198q-71 19 -129.5 72.5t-82.5 125.5h-634q-151 0 -254 104q-106 108 -106 256q0 221 206 970h208v-202h614v202h202l164 -528l250 -82v-360z" />
</svg>