<svg xmlns="http://www.w3.org/2000/svg" xmlns:xlink="http://www.w3.org/1999/xlink" version="1.1" viewBox="-10 0 2068 2048">
   <path fill="currentColor"
d="M409 1841v-308h-207v308h-202v-817q0 -42 29 -74t72 -32t72 32t29 74v308h307q44 0 75 28t31 73v408h-206zM1844 717v1124h-105v-1124q-96 -20 -154 -101q-57 -81 -48 -178q9 -94 82 -163q73 -68 173 -68t172 68q74 69 82 163q9 97 -48 178t-154 101zM1331 770v456h-101
v615h-154v-509h-106v509h-153v-615h-101v-461q0 -62 46 -108t108 -46h307q62 0 108 46t46 108v5zM1023 260q-47 0 -86 27t-55 69q-17 45 -8 89q9 45 44 80q33 32 79 40t89 -12q43 -19 67 -60t24 -84q0 -66 -46 -110q-45 -44 -108 -44v5z" />
</svg>