<svg xmlns="http://www.w3.org/2000/svg" xmlns:xlink="http://www.w3.org/1999/xlink" version="1.1" viewBox="-10 0 2068 2048">
   <path fill="currentColor"
d="M912 1136h224v-683h-224v683zM2048 112h-682v683l256 -251q90 90 144 216q52 124 52 264q0 221 -124 395q-126 175 -328 250v235q298 -75 490 -320q192 -246 192 -560q0 -187 -72 -352q-73 -167 -194 -288zM912 1595h224v-230h-224v230zM0 1024q0 187 72 352t196 288
l-268 272h684v-683l-256 251q-90 -90 -144 -216t-54 -264q0 -220 126 -395q125 -175 328 -250v-235q-301 75 -492 320q-192 246 -192 560z" />
</svg>