<svg xmlns="http://www.w3.org/2000/svg" xmlns:xlink="http://www.w3.org/1999/xlink" version="1.1" viewBox="-10 0 2068 2048">
   <path fill="currentColor"
d="M1554 272h-1460v-180h1460v180zM1102 820h-914l56 -274h1162l38 184q104 5 192 43l-82 -407h-1460l-94 454v184h94v549h776q-48 -112 -48 -227v43h-548v-365h548v322q0 -116 46 -225q44 -109 130 -195q47 -51 104 -86zM2048 1827l-130 129l-282 -283q-102 64 -218 64
q-172 0 -292 -120t-120 -291q0 -172 120 -292t292 -120t292 120t120 292q0 118 -66 218zM1644 1326q0 -94 -66 -163t-160 -69t-160 69q-68 70 -68 163t67 160t161 67t160 -67q66 -66 66 -160z" />
</svg>