<svg xmlns="http://www.w3.org/2000/svg" xmlns:xlink="http://www.w3.org/1999/xlink" version="1.1" viewBox="-10 0 2068 2048">
   <path fill="currentColor"
d="M0 744h188v-186h-188v186zM0 1116h188v-184h-188v184zM0 374h188v-186q-78 0 -132 54q-56 54 -56 132zM746 1860h188v-186h-188v186zM0 1490h188v-188h-188v188zM188 1860v-186h-188q0 78 56 132q54 54 132 54zM1860 188h-744v556h932v-370q0 -78 -54 -132t-134 -54z
M1860 1490h188v-188h-188v188zM746 374h188v-186h-188v186zM376 1860h182v-186h-182v186zM376 374h182v-186h-182v186zM1860 1860q80 0 134 -54t54 -132h-188v186zM1860 1116h188v-184h-188v184zM1116 1860h188v-186h-188v186zM1490 1860h184v-186h-184v186z" />
</svg>