<svg xmlns="http://www.w3.org/2000/svg" xmlns:xlink="http://www.w3.org/1999/xlink" version="1.1" viewBox="-10 0 2058 2048">
   <path fill="currentColor"
d="M1230 971q106 0 180 -74t74 -181q0 -106 -74 -180q-74 -75 -180 -75t-182 75q-78 75 -78 180q0 106 78 181q75 74 182 74zM1230 0q192 0 358 96q166 95 262 260q96 164 96 360q0 240 -188 587q-126 241 -346 519q-99 132 -182 226l-116 -130q-126 -157 -244 -332
q-157 -231 -246 -432q-114 -249 -114 -443q0 -193 98 -355q99 -165 262 -260q163 -96 360 -96zM308 716q0 284 254 712q139 225 346 485l14 15l-104 120l-112 -130q-126 -157 -244 -332q-158 -233 -250 -432q-110 -248 -110 -438q0 -240 144 -430q143 -189 370 -257
q-148 133 -226 307q-82 181 -82 380z" />
</svg>