<svg xmlns="http://www.w3.org/2000/svg" xmlns:xlink="http://www.w3.org/1999/xlink" version="1.1" viewBox="-10 0 2068 2048">
   <path fill="currentColor"
d="M1304 1120q0 118 -82 198q-80 80 -198 80t-198 -80t-80 -196q0 -115 80 -198q82 -82 198.5 -82t197.5 82q82 83 82 196zM746 92v92q0 78 54 132t134 54v380q48 -10 91 -10t91 10v-380q78 0 132 -54q56 -54 56 -132v-92h-558zM280 938q-115 0 -196 80q-84 81 -84 196
q0 116 84 198q82 82 198 82q115 0 196 -82q80 -82 80 -198t-80 -196t-198 -80zM1770 938q-118 0 -198 80q-82 80 -82 196t82 198q80 82 196 82t198 -82t82 -198t-82 -196t-196 -80zM1770 1586q-96 0 -180 -34q-74 34 -147.5 34t-140.5 -32q-71 -35 -112 -90q-74 30 -166 30
t-166 -30q-42 56 -110 90q-68 32 -141.5 32t-148.5 -34q-83 34 -178 34q-31 0 -74 -8q73 91 178 144q104 52 222 52q184 0 328 -118v210q0 38 26 64t65 26t65 -26t26 -64v-210q144 118 326 118q118 0 222 -52q106 -53 180 -144q-44 8 -74 8z" />
</svg>