<svg xmlns="http://www.w3.org/2000/svg" xmlns:xlink="http://www.w3.org/1999/xlink" version="1.1" viewBox="-10 0 2068 2048">
   <path fill="currentColor"
d="M950 808q0 -16 6 -42q4 -49 26 -96q32 -60 84 -92q63 -46 160 -46h822l-6 46q-8 50 -26 92q-32 60 -84 96q-64 42 -160 42h-822zM950 1162q0 -22 6 -42q4 -54 26 -96q32 -60 84 -96q62 -42 160 -42h414l-6 42q-8 52 -32 96q-27 60 -82 96q-63 42 -156 42h-414zM950 1516
q0 -22 6 -46q4 -50 26 -92q33 -62 84 -98q62 -40 160 -40h138l-4 40q-8 46 -34 98q-27 61 -82 92q-63 46 -156 46h-138zM868 1300v216h-868l560 -768h-482v-216h910l-560 768h440z" />
</svg>