<svg xmlns="http://www.w3.org/2000/svg" xmlns:xlink="http://www.w3.org/1999/xlink" version="1.1" viewBox="-10 0 2068 2048">
   <path fill="currentColor"
d="M1638 1202q168 0 288 120l122 -120v413h-410l184 -182q-78 -77 -184 -77q-104 0 -180 77q-74 75 -74 182q0 106 74 180q76 75 180 75q66 0 116 -26q52 -27 92 -75h172q-43 116 -146 185q-106 70 -234 70q-168 0 -288 -120t-120 -291t120 -291t288 -120zM202 24h1436
q88 0 148 60t60 147v735q-79 -19 -154 -19q-192 0 -356 101h-312v413h18q-18 75 -18 154v48h-822q-82 0 -142 -60t-60 -142v-1230q0 -87 60 -147t142 -60zM202 433v413h616v-413h-616zM1024 433v413h614v-413h-614zM202 1048v413h616v-413h-616z" />
</svg>