<svg xmlns="http://www.w3.org/2000/svg" xmlns:xlink="http://www.w3.org/1999/xlink" version="1.1" viewBox="-10 0 2068 2048">
   <path fill="currentColor"
d="M1754 1036v-62q0 -171 -40 -344q-40 -165 -112 -281q-69 -111 -142 -111q-46 0 -110 24q-32 15 -108 51q-35 17 -108 50q-62 24 -110 24t-110 -24q-48 -18 -112 -50q-75 -38 -110 -51q-56 -24 -110 -24q-68 0 -138 108q-69 109 -110 279q-40 173 -40 349v62
q368 82 734.5 82t725.5 -82zM150 1681q422 129 874 129t874 -129q67 -24 108 -82q42 -58 42 -125t-42 -128q-39 -59 -104 -79q-422 135 -878 135t-880 -135q-63 20 -104 77q-40 56 -40 130q0 72 40 127q41 56 110 80z" />
</svg>