<svg xmlns="http://www.w3.org/2000/svg" xmlns:xlink="http://www.w3.org/1999/xlink" version="1.1" viewBox="-10 0 2058 2048">
   <path fill="currentColor"
d="M283 0q48 0 80 32t32 80v101q242 -101 459 -101q121 0 213 43q58 29 133 90q62 51 96 70q52 26 123 26q214 0 357 -112q70 -59 101 -117v912l-26 37q-32 43 -75 75q-63 53 -139 80q-101 37 -221 37t-210 -42q-57 -28 -134 -91q-58 -48 -96 -69q-54 -27 -122 -27
q-118 0 -219 37q-72 26 -138 75q-45 41 -75 80l-27 37v795h-224v-1936q0 -48 32 -80t80 -32zM395 485v480l70 -42q90 -51 170 -80q117 -48 219 -48q75 0 149 37q44 19 133 77q92 59 134 78q74 37 149 37q101 0 160 -32q42 -16 58 -53l11 -27v-400l-69 27q-87 32 -160 32
t-149 -38q-47 -21 -134 -77q-89 -58 -133 -77q-76 -38 -149 -38q-142 0 -315 70q-90 40 -144 74z" />
</svg>