<svg xmlns="http://www.w3.org/2000/svg" xmlns:xlink="http://www.w3.org/1999/xlink" version="1.1" viewBox="-10 0 2058 2048">
   <path fill="currentColor"
d="M1538 423v-221q0 -82 -60 -142t-146 -60h-615q-87 0 -147 60t-60 142v221q-134 33 -221 144t-87 250v822q0 168 121 289q120 120 293 120h817q173 0 293 -120t120 -289v-822q0 -139 -87 -250t-221 -144zM717 202h615v207h-207q0 -44 -29 -73q-28 -28 -72 -28t-72 28
q-29 29 -29 73h-206v-207zM616 615h817q86 0 146 60t60 142v308h-1230v-308q0 -82 60 -142t147 -60zM1433 1846h-817q-87 0 -147 -60t-60 -147v-307h1230v307q0 87 -60 147t-146 60z" />
</svg>