<svg xmlns="http://www.w3.org/2000/svg" xmlns:xlink="http://www.w3.org/1999/xlink" version="1.1" viewBox="-10 0 2058 2048">
   <path fill="currentColor"
d="M1163 745q0 -39 29 -65t67 -26q40 0 66 26t26 65v414l113 14l457 204q41 19 59 50q20 34 20 77v405q0 57 -42 96t-98 43h-601q-57 0 -96 -43l-453 -388l70 -74q26 -26 65 -26h22l296 157v-929zM1259 375q95 0 183 50q86 49 135 133q78 135 39 283q-39 149 -174 227v-113
q96 -83 96 -210q0 -117 -83 -198q-81 -80 -198 -80q-116 0 -196 80t-80 198q0 128 91 210v113q-89 -54 -137 -137q-50 -86 -50 -186q0 -152 109 -261t265 -109zM327 745l279 279h-183v279h-187v-279h-188zM327 558l-279 -279h188v-279h187v279h183zM793 1212q101 0 188 48
v113q-84 -70 -194 -70q-111 0 -192 81t-81 198q0 69 31 129q30 59 83 98l196 144h-31q-152 0 -261 -109t-109 -262q0 -152 109 -261t261 -109z" />
</svg>