<svg xmlns="http://www.w3.org/2000/svg" xmlns:xlink="http://www.w3.org/1999/xlink" version="1.1" viewBox="-10 0 2058 2048">
   <path fill="currentColor"
d="M1673 1024q0 -96 -57 -170q-56 -72 -148 -95q22 -51 22 -105q0 -117 -83 -198t-196 -81q-57 0 -113 22q43 -244 148 -283l-74 -114q-104 47 -161 188q-43 92 -57 213q-58 -26 -117 -26q-113 0 -196 81t-83 198q0 54 22 105q-92 23 -148 95q-57 74 -57 170t57 170t148 96
q-22 51 -22 105q0 96 59 170q60 75 150 100q-22 51 -22 104q0 115 81 197t198 82t198 -82q81 -83 81 -197q0 -53 -22 -104q90 -25 150 -100q59 -74 59 -170q0 -54 -22 -105q91 -22 148 -96q57 -73 57 -170zM1425 828zM1211 515q56 0 98 39t42 98q0 58 -42 100
q-41 41 -100 41q-60 0 -98 -41q-39 -42 -39 -100q0 -59 39 -98t100 -39zM1163 1024q0 57 -41 98q-42 42 -98 42t-98 -42q-41 -41 -41 -98t41 -98t98 -41t98 41t41 98zM837 515q61 0 100 39t39 98q0 58 -39 100q-38 41 -98 41q-59 0 -100 -41q-42 -42 -42 -100q0 -59 42 -98
t98 -39zM514 1024q0 -55 40 -98q38 -41 98 -41q59 0 100 41t41 98t-41 98q-42 42 -100 42q-59 0 -98 -42q-40 -43 -40 -98zM697 1395q0 -56 42 -98t100 -42q59 0 98 42t39 100q0 59 -39 98t-98 39q-58 0 -100 -39t-42 -100zM1024 1909q-57 0 -98 -41t-41 -101t41 -98
q42 -39 98 -39t98 39q41 38 41 98t-41 101t-98 41zM1211 1534q-61 0 -100 -39t-39 -98q0 -58 39 -100t98 -42q58 0 100 42t42 100q0 59 -42 98t-98 39zM1394 1164q-56 0 -98 -42q-41 -41 -41 -98t41 -98t100 -41q60 0 98 41q40 43 40 98t-40 98q-39 42 -100 42z" />
</svg>