<svg xmlns="http://www.w3.org/2000/svg" xmlns:xlink="http://www.w3.org/1999/xlink" version="1.1" viewBox="-10 0 2068 2048">
   <path fill="currentColor"
d="M1560 1172h196v292h292v192h-292v294h-196v-294h-294v-192h294v-292zM974 98q266 0 490 106q224 105 354 282.5t130 393.5q0 78 -18 164q-128 -68 -274 -68q-156 0 -292 78q-134 77 -214 212q-80 136 -80 294l10 92l-106 4q-178 0 -342 -44q-98 80 -220 136
q-99 47 -206 74q-73 18 -150 26l-56 6q148 -149 216 -284q45 -88 50 -156q-125 -106 -194 -244q-72 -140 -72 -290q0 -214 132 -394q129 -177 354 -282q223 -106 488 -106z" />
</svg>