<svg xmlns="http://www.w3.org/2000/svg" xmlns:xlink="http://www.w3.org/1999/xlink" version="1.1" viewBox="-10 0 2058 2048">
   <path fill="currentColor"
d="M1510 1069q-85 0 -166 35t-142 96q-61 62 -96 141q-34 78 -34 167q0 184 130 311q132 128 312 128t308 -128t128 -311q0 -86 -32 -167q-31 -78 -94 -141q-62 -62 -144 -96q-84 -35 -170 -35zM1510 1216q125 0 208 86q86 88 86 206q0 81 -42 146l-398 -397q71 -37 146 -41
zM1260 1362l398 398q-66 41 -148 41q-116 0 -204 -85q-88 -84 -88 -208q5 -76 42 -146zM976 0q-82 0 -139 57t-57 135v32q-211 60 -348 240q-136 181 -136 413v585l-198 192v101h828q-46 -118 -46 -247q0 -168 84 -315q84 -146 232 -231q147 -85 314 -85q75 0 148 19v-19
q0 -231 -138 -413q-137 -180 -348 -240v-32q0 -78 -57 -135t-139 -57zM780 1851q0 82 56 139q58 58 136 58q77 0 132 -51q-73 -65 -124 -146h-200z" />
</svg>