<svg xmlns="http://www.w3.org/2000/svg" xmlns:xlink="http://www.w3.org/1999/xlink" version="1.1" viewBox="-10 0 2068 2048">
   <path fill="currentColor"
d="M1708 1774l208 128l-56 -240l188 -160l-248 -20l-92 -228l-96 228l-248 20l188 160l-60 240zM1200 1682h-1028q-68 0 -120 -52t-52 -120v-1192q0 -68 52 -120t120 -52h1704q68 0 120 52t52 120v896q-145 -128 -340 -128q-139 0 -258 68q-118 68 -186 186q-68 119 -68 258
q0 45 4 84zM684 1078q-97 0 -208 28q-132 36 -212 92q-92 65 -92 144v84h1024v-84q0 -80 -96 -144q-80 -56 -208 -92q-113 -28 -208 -28zM684 402q-109 0 -182 76q-74 77 -74 180t74 180q73 76 180 76q106 0 182 -76t76 -180t-76 -180t-180 -76zM1792 742h-596v88h596v-88z
M1876 574h-680v84h680v-84zM1876 402h-680v84h680v-84z" />
</svg>