<svg xmlns="http://www.w3.org/2000/svg" xmlns:xlink="http://www.w3.org/1999/xlink" version="1.1" viewBox="-10 0 2068 2048">
   <path fill="currentColor"
d="M1440 1464q-26 -90 -102 -144q-75 -52 -168 -52q-127 0 -210 84q-82 84 -82 208.5t82 207.5q84 86 210 86q92 0 168 -54q76 -53 102 -144h216v198h196v-198h196v-192h-608zM1170 1656q-46 0 -72 -28q-28 -31 -28 -68q0 -36 27 -66t71 -30t71 30t27 66q0 38 -26 68
q-27 28 -70 28zM682 1560h-490v-388h586v96q69 -91 172 -144q104 -52 220 -52q147 0 294 100h96v96h196v-878q0 -82 -57 -139t-139 -57h-1368q-76 0 -134 58t-58 138v1170q0 82 58 140t134 58h530q-40 -79 -40 -198zM974 588h586v388h-586v-388zM192 588h586v388h-586v-388z
" />
</svg>