<svg xmlns="http://www.w3.org/2000/svg" xmlns:xlink="http://www.w3.org/1999/xlink" version="1.1" viewBox="-10 0 2068 2048">
   <path fill="currentColor"
d="M1024 1846q-168 0 -318 -65q-149 -65 -264 -175l1164 -1164q109 114 174 265q66 150 66 317q0 220 -112 411q-110 190 -300 300q-190 111 -410 111zM408 615h208v-206h152v206h202v154h-202v202h-152v-202h-208v-154zM1024 0q-200 0 -392 77q-188 76 -333.5 221
t-220.5 334q-78 192 -78 392t78 392q75 189 220.5 334t333.5 221q192 77 392 77t392 -77q188 -76 333.5 -221t220.5 -334q78 -192 78 -392t-78 -392q-75 -189 -220.5 -334t-333.5 -221q-192 -77 -392 -77zM1024 1433h514v-154h-514v154z" />
</svg>