<svg xmlns="http://www.w3.org/2000/svg" xmlns:xlink="http://www.w3.org/1999/xlink" version="1.1" viewBox="-10 0 2068 2048">
   <path fill="currentColor"
d="M818 202v413h412v-413h-412zM1432 202v413h414v-413h-414zM1432 817v414h414v-414h-414zM1432 1433v413h414v-413h-414zM1230 1846v-413h-412v413h412zM616 1846v-413h-414v413h414zM616 1231v-414h-414v414h414zM616 615v-413h-414v413h414zM818 1231h412v-414h-412v414
zM202 0h1644q82 0 142 60t60 142v1644q0 82 -60 142t-142 60h-1644q-82 0 -142 -60t-60 -142v-1644q0 -82 60 -142t142 -60z" />
</svg>