<svg xmlns="http://www.w3.org/2000/svg" xmlns:xlink="http://www.w3.org/1999/xlink" version="1.1" viewBox="-10 0 2068 2048">
   <path fill="currentColor"
d="M1254 571q-48 0 -84 -35q-34 -34 -34 -80t34 -80q36 -35 81 -35t80 35t35 80t-35 80t-77 35zM1024 1024v795h-794v-795h794zM1114 795h-974q-59 0 -100 42q-40 41 -40 96v976q0 59 40 99t100 40h974q55 0 96 -40q44 -41 44 -99v-976q0 -53 -44 -96q-42 -42 -96 -42z
M1910 0h-976q-55 0 -96 40q-44 41 -44 99v432h230v-342h794v795h-340v229h432q57 0 98 -42q40 -41 40 -96v-976q0 -59 -40 -99t-98 -40zM1594 571q-48 0 -82 -35q-34 -34 -34 -80t34 -80q34 -35 79 -35t80 35t35 80t-35 80t-77 35zM1594 912q-48 0 -82 -35q-34 -34 -34 -80
t34 -80t80 -34t80 34q34 35 34 80t-35 80t-77 35zM454 1365q-44 0 -78 -34q-34 -35 -34 -80t35 -80t80 -35t80 35t35 80t-36 80q-34 34 -82 34zM794 1707q-42 0 -76 -35q-34 -34 -34 -80t34 -80q34 -35 79 -35t80 35t35 80t-35 80t-83 35z" />
</svg>