<svg xmlns="http://www.w3.org/2000/svg" xmlns:xlink="http://www.w3.org/1999/xlink" version="1.1" viewBox="-10 0 2058 2048">
   <path fill="currentColor"
d="M796 1209q-151 -133 -355 -137v292l-388 -388l388 -392v292q249 0 451 155q-60 83 -96 178zM1608 1364v-292q-126 0 -242 55q-214 105 -241 356q113 36 166 146t14 223q-39 114 -149 167q-108 52 -223 11q-113 -40 -166 -148q-53 -107 -12 -221q18 -64 66 -112t112 -66
q13 -173 107 -315q92 -140 244 -219q149 -78 324 -73v-292l387 392zM1120 1752q0 -42 -27 -69t-69 -27q-41 0 -68 27q-28 28 -28 69q0 40 28 71q26 29 68 29q43 0 69 -29q27 -30 27 -71zM928 985q85 -94 192 -164v-429h292l-388 -392l-387 392h291v593z" />
</svg>