<svg xmlns="http://www.w3.org/2000/svg" xmlns:xlink="http://www.w3.org/1999/xlink" version="1.1" viewBox="-10 0 2068 2048">
   <path fill="currentColor"
d="M1538 926q-15 -159 -84 -290q-68 -127 -182 -204q-112 -74 -248 -74t-248 74q-116 78 -182 204q-70 131 -84 290q-233 51 -372 146q-138 94 -138 206q0 114 138 208q137 93 372 148q233 56 513.5 56t514.5 -56q235 -55 372.5 -148.5t137.5 -207.5q0 -112 -138 -206
q-139 -94 -372 -146zM1326 1060q-302 29 -606 0q-4 -46 -4 -86q0 -174 92 -294q91 -120 215.5 -120t216.5 120q92 121 92 294q0 55 -6 86z" />
</svg>