<svg xmlns="http://www.w3.org/2000/svg" xmlns:xlink="http://www.w3.org/1999/xlink" version="1.1" viewBox="-10 0 2068 2048">
   <path fill="currentColor"
d="M1742 462q-82 0 -142 60t-60 146v693q-104 101 -104 228t88 215q88 89 220 89t218 -89t86 -218q0 -69 -26 -127q-27 -60 -74 -98v-693q0 -86 -60 -146t-146 -60zM1742 562q41 0 74 29q30 28 30 77v100h-204v-100q0 -49 30 -77q33 -29 70 -29zM1334 1921q-162 72 -276 72
q-72 0 -164 -33q-58 -15 -172 -67q-117 -53 -172 -72q-98 -34 -176 -34q-144 0 -374 72v-201q230 -72 388 -72q69 0 162 29q55 19 172 69q41 17 98 42.5t74 32.5q95 28 178 28q115 0 272 -72v206h-10zM1058 1586q114 0 276 -72v-205q-95 41 -204 72v-1020q0 -47 29 -76
t75 -29h282q-28 -91 -106.5 -146t-175.5 -55q-134 0 -220 86t-86 220v101h-512v-101q0 -47 29 -76t73 -29h286q-28 -90 -108 -146q-78 -55 -178 -55q-129 0 -218 86q-88 85 -88 220v838q-92 9 -202 57v206q197 -81 378 -81q72 0 168 33q59 20 166 69q114 52 168 70
q96 33 168 33zM416 668h512v201h-512v-201zM416 1074h512v287q-77 -26 -210 -81q-97 -46 -148 -67q-89 -29 -154 -38v-101z" />
</svg>