<svg xmlns="http://www.w3.org/2000/svg" xmlns:xlink="http://www.w3.org/1999/xlink" version="1.1" viewBox="-10 0 2068 2048">
   <path fill="currentColor"
d="M794 236q-220 0 -398 76q-182 77 -288 202q-108 127 -108 278q0 162 132 306q-62 88 -96 188q-36 101 -36 204v326q0 74 55 129t133 55h1206q78 0 134 -54q54 -54 54 -130v-326q0 -179 -92 -326l184 -184l-280 -278l-190 192q-204 -110 -438 -104q-231 6 -430 134
q-56 -58 -56 -136t70 -148q68 -68 186 -110t258 -42q95 0 186 24q92 24 166 68l184 -188q-242 -161 -536 -156zM794 980q156 0 300 78q134 73 218 194q82 121 82 238v326h-1206v-326q0 -118 86 -238q86 -121 220 -194q144 -78 300 -78zM838 1120q-213 0 -338 106
q-124 107 -124 312v92h182v-92q0 -130 36 -210q65 -152 244 -208zM2048 636q0 113 -70 214q-69 101 -174 126l-130 -126h70q65 0 114 -74q50 -75 50 -148q0 -76 -52 -134t-122 -58v-140q128 0 220 104q94 106 94 236zM1552 584q-96 -92 -96 -222t92 -222t222 -92v140
q-70 0 -122 52t-52 122t52 120q53 50 122 50v138q-114 0 -206 66l-100 -100q41 -31 88 -52z" />
</svg>