<svg xmlns="http://www.w3.org/2000/svg" xmlns:xlink="http://www.w3.org/1999/xlink" version="1.1" viewBox="-10 0 2058 2048">
   <path fill="currentColor"
d="M752 619zM510 503zM1943 685q-32 -74 -91 -149q-58 -75 -109 -103q77 148 102 303v4q-48 -115 -121 -214q-47 -72 -139 -177q-135 -154 -200 -251l-33 -56q-14 -30 -14 -42h-4q-154 85 -242 242q-73 124 -98 256q-99 4 -195 52q-18 9 -14 32q5 9 14 14q9 4 18 0
q83 -37 177 -46h28q69 0 144 18l28 9l51 24l42 23q113 71 172 177q-47 -29 -107 -47q-70 -18 -130 -9q125 64 179 196q54 130 21 267q-32 137 -139 221q-122 93 -298 89q-63 -5 -126 -28q-8 -2 -32 -10l-14 -9q-99 -52 -163 -135q-66 -86 -75 -191l14 -28q12 -24 47 -55
q41 -36 98 -61q74 -28 172 -28q22 0 69 -44q48 -44 52 -63q0 -4 -52 -28q-145 -76 -190 -116l-70 -65l-23 -19q-37 -122 -5 -242q-126 56 -237 181q-28 -33 -33 -130q-4 -53 -4 -116q-4 0 -33 18q-51 33 -98 80q-51 55 -93 111q-101 151 -130 303l-5 4q-10 52 -14 89l-9 79
v42q0 268 133 498t360 361q228 132 498 132q240 0 451 -107q210 -106 349 -295q140 -190 182 -422l4 -37q33 -269 -65 -502z" />
</svg>