<svg xmlns="http://www.w3.org/2000/svg" xmlns:xlink="http://www.w3.org/1999/xlink" version="1.1" viewBox="-10 0 2058 2048">
   <path fill="currentColor"
d="M1024 0q-247 0 -455.5 61t-332.5 166q-124 103 -124 229t124 229q124 105 332.5 166t455.5 61t456 -61t334 -166q122 -103 122 -229t-122 -229q-125 -105 -334 -166t-456 -61zM112 683v341q0 124 123 227t333 165q209 61 456 61t456 -61q211 -62 334 -165
q122 -103 122 -227v-341q0 123 -122 226q-125 105 -334 166t-456 61t-455.5 -61t-332.5 -166q-124 -103 -124 -226zM112 1253v342q0 123 124 226q124 105 332.5 166t455.5 61t456 -61t334 -166q122 -103 122 -226v-342q0 124 -122 227q-123 103 -334.5 165t-455.5 62
t-456 -62q-210 -61 -333 -165t-123 -227z" />
</svg>