<svg xmlns="http://www.w3.org/2000/svg" xmlns:xlink="http://www.w3.org/1999/xlink" version="1.1" viewBox="-10 0 2058 2048">
   <path fill="currentColor"
d="M312 2048q-92 0 -149 -130q-38 -93 -53 -206q-19 -142 34 -279q19 -62 72 -106q50 -41 120 -57q50 -9 105 5q34 5 101 33q76 32 106 39q66 19 120 -27q53 -45 38 -117q-28 -110 -216 -154q-105 -24 -278 -24q0 -130 120 -178q96 -39 233 -24q139 15 266 58q15 5 48 24
q74 38 115 33q63 -4 79 -55t-12 -103q-96 -163 -494 -163q0 -145 110 -197q92 -44 240 -20q127 28 255 82l33 14q44 25 68 29q37 15 72 5q66 -23 57 -77q-5 -43 -53 -96q-40 -49 -76 -67q-67 -36 -149 -62l-34 -5q-37 -8 -50 -22q-13 -12 12 -46q120 -105 278 -129
q187 -43 312 -15q168 44 197 207q24 198 -86 365q-288 495 -701 884q-216 225 -471 408l-4 5q-117 81 -173 110q-107 58 -192 58z" />
</svg>