<svg xmlns="http://www.w3.org/2000/svg" xmlns:xlink="http://www.w3.org/1999/xlink" version="1.1" viewBox="-10 0 2068 2048">
   <path fill="currentColor"
d="M1026 1214h274q-23 246 -99.5 405t-174.5 159q-75 0 -136 -93q-63 -94 -102 -253q-39 -163 -44 -355l-188 -105v52q0 258 64 472q64 217 170 341q108 125 236 125q112 0 210 -96q99 -98 164.5 -269t87.5 -383h292l-380 -379zM1026 86q-132 0 -242 132q-110 133 -166 353
l162 92q33 -173 102 -284q66 -108 148 -108q86 0 158 135q71 134 102 345l110 -114l66 66q-48 -273 -168 -445q-122 -172 -272 -172zM98 377l-92 167l-6 5l942 546l150 -150l-990 -572zM1956 1672l92 -168l-344 -198h-136l-26 128z" />
</svg>