<svg xmlns="http://www.w3.org/2000/svg" xmlns:xlink="http://www.w3.org/1999/xlink" version="1.1" viewBox="-10 0 2068 2048">
   <path fill="currentColor"
d="M314 102q-68 0 -124 43q-57 43 -72 111l-106 451q-39 163 58 288l38 34q96 96 223 96t228 -96q100 96 235 96t231 -96q100 96 232 96t233 -96q96 96 231 96q133 0 225 -96l29 -29q101 -125 62 -293l-105 -451q-20 -68 -75 -111t-122 -43h-1421zM1730 304l111 451
q14 66 -27 118q-40 50 -93 50q-54 0 -87 -36q-34 -37 -38 -84l-63 -494zM314 309h202l-62 494q-20 120 -120 120q-63 0 -96 -48q-44 -53 -29 -120zM722 309h202v480q0 54 -38 93q-40 41 -94 41q-56 0 -91 -43q-36 -44 -36 -96v-14zM1125 309h202l58 461q9 64 -29 108
q-39 45 -106 45q-47 0 -86 -41q-39 -40 -39 -93v-480zM103 1231v509q0 86 60 146t147 60h1430q86 0 146 -60t60 -146v-505q-87 92 -206 96q-145 5 -250 -96q-96 96 -230 96q-135 0 -235 -96q-96 96 -231 96t-235 -96q-96 96 -225 96q-127 0 -231 -100z" />
</svg>