<svg xmlns="http://www.w3.org/2000/svg" xmlns:xlink="http://www.w3.org/1999/xlink" version="1.1" viewBox="-10 0 2068 2048">
   <path fill="currentColor"
d="M1066 336q-87 -9 -150 46q-66 56 -70 142l-28 293h288v207h-308l-44 519q-14 168 -143.5 279t-298.5 96q-102 -9 -182 -60q-82 -51 -130 -132l154 -154q24 81 98 120q75 39 156 10q60 -16 100 -65q40 -51 44 -113l44 -500h-308v-207h328l24 -312q14 -168 143.5 -279
t302.5 -96q96 9 180 60t132 132l-154 154q-19 -58 -66 -96q-49 -40 -112 -44zM2048 1192l-146 -144l-288 288l-288 -288l-148 144l292 293l-292 289l148 144l288 -288l288 288l146 -144l-290 -289z" />
</svg>