<svg xmlns="http://www.w3.org/2000/svg" xmlns:xlink="http://www.w3.org/1999/xlink" version="1.1" viewBox="-10 0 2058 2048">
   <path fill="currentColor"
d="M1027 357q170 0 322 64q154 65 268 179q163 163 220 381q29 109 29 218t-29 218q-57 217 -220 376q-133 148 -327 213q-184 60 -376 35l49 -213q137 15 272 -32q134 -47 238 -146q119 -125 161 -285q42 -161 0 -327q-41 -165 -161 -290q-89 -84 -208 -131
q-120 -47 -238 -47v485l-529 -530l529 -525v357zM423 1793q-204 -204 -235 -487q-32 -286 112 -533l158 159q-88 174 -57 374q31 198 181 344q79 79 193 124l-64 213q-158 -64 -288 -194z" />
</svg>