<svg xmlns="http://www.w3.org/2000/svg" xmlns:xlink="http://www.w3.org/1999/xlink" version="1.1" viewBox="-10 0 2068 2048">
   <path fill="currentColor"
d="M408 0h1230q168 0 288 120q122 121 122 289v615h-202v-615q0 -87 -60 -147t-148 -60h-1230q-86 0 -146 60q-60 61 -60 147v1230q0 86 60 147q60 60 146 60h616v202h-616q-168 0 -288 -120t-120 -289v-1230q0 -169 120 -289t288 -120zM1024 615q166 0 287 121t121 288
t-121 288t-288 121t-287 -121q-120 -120 -120 -288t120 -288q120 -121 288 -121zM1638 1433q88 0 148 60t60 146q0 87 -60 147t-148 60q-86 0 -146 -60t-60 -147q0 -86 60 -146t146 -60z" />
</svg>