<svg xmlns="http://www.w3.org/2000/svg" xmlns:xlink="http://www.w3.org/1999/xlink" version="1.1" viewBox="-10 0 2068 2048">
   <path fill="currentColor"
d="M0 137l142 -137l1906 1907l-136 141l-162 -161h-216q0 -128 -20 -237l-1114 -1115q-110 -20 -238 -20v-217zM400 1418q94 0 162 68t68 164q0 95 -67.5 166t-162.5 71q-96 0 -168 -71q-70 -70 -70 -166q0 -97 70 -164q72 -68 168 -68zM162 818q295 0 538 143t388 389
q142 243 142 537h-306q0 -205 -102 -383q-101 -178 -276 -278q-178 -101 -384 -101v-307zM716 303q357 125 630.5 399t399.5 630z" />
</svg>