<svg xmlns="http://www.w3.org/2000/svg" xmlns:xlink="http://www.w3.org/1999/xlink" version="1.1" viewBox="-10 0 2058 2048">
   <path fill="currentColor"
d="M1367 845q91 70 150 173q60 104 76 219q21 109 0 216q-21 105 -80 198l-150 -88q58 -104 58 -225q-4 -144 -87 -259l-560 969l-155 -87l268 -464l-155 -88l-134 230l-154 -88l459 -794q-141 -153 -167 -360q-25 -202 84 -388l154 92q-46 78 -58 165t10 171q23 87 75 157
q53 70 132 117zM1380 360q-72 0 -124 52t-52 125q0 74 52 126t126 52q73 0 125 -52t52 -126q0 -73 -52 -125t-127 -52zM1158 0q-54 0 -94 40t-40 96t40 94t94.5 38t93.5 -38q40 -38 40 -94t-40 -96t-94 -40z" />
</svg>