<svg xmlns="http://www.w3.org/2000/svg" xmlns:xlink="http://www.w3.org/1999/xlink" version="1.1" viewBox="-10 0 2068 2048">
   <path fill="currentColor"
d="M1376 322l-526 528l526 526l-162 162l-526 -528l-526 528l-162 -162l526 -526l-526 -528l162 -160l526 526l526 -526zM2048 1886h-560v-118l102 -90q128 -107 194 -186q64 -79 64 -142q6 -47 -30 -82q-33 -32 -90 -32q-58 0 -106 22l-74 42l-48 -134q49 -38 112 -58
q74 -28 146 -28q139 7 206 76q68 71 68 172q0 99 -60 182q-57 79 -146 156l-74 60v4h296v156z" />
</svg>