<svg xmlns="http://www.w3.org/2000/svg" xmlns:xlink="http://www.w3.org/1999/xlink" version="1.1" viewBox="-10 0 2068 2048">
   <path fill="currentColor"
d="M922 1024h-226q122 77 226 173v-173zM510 923q15 -263 86 -471q72 -212 182 -332q112 -120 246 -120q135 0 248 123q114 125 182 336q68 215 84 474q251 -116 510 -116q-182 80 -304 279q-71 118 -168 385q-70 188 -116 279q-71 138 -168 206q-112 82 -264 82
q-154 0 -260 -77q-91 -67 -162 -202q-34 -74 -110 -274q-66 -172 -112 -264q-67 -145 -148 -241q-102 -117 -236 -173q256 0 510 106zM922 923v-207h-282l-24 207h306zM922 615v-206h-202q-34 92 -62 206h264zM922 308v-178q-81 53 -154 178h154zM1024 101v207h100v101h-100
v206h206v101h-206v207h308v101h-308v207h206v101h-182q92 112 146 223q57 114 66 209q83 -134 126 -331q46 -207 46 -438t-58 -442q-55 -203 -150 -329q-94 -123 -200 -123z" />
</svg>