<svg xmlns="http://www.w3.org/2000/svg" xmlns:xlink="http://www.w3.org/1999/xlink" version="1.1" viewBox="-10 0 2068 2048">
   <path fill="currentColor"
d="M2048 1280q0 157 -78 290q-79 135 -212 212q-133 78 -294 78h-880q-160 0 -294 -78q-132 -77 -210 -212q-80 -135 -80 -290q0 -146 70 -274q69 -125 184 -204q38 -173 152 -314q112 -138 274 -220q159 -80 344.5 -80t343.5 80q163 82 274 220q115 141 154 314
q116 77 184 204q68 126 68 274zM1456 1490q92 0 155 -65.5t63 -154.5t-61.5 -154.5t-148.5 -69.5v-44q0 -121 -58 -222q-58 -99 -162 -162q-101 -60 -220 -60q-96 0 -182 42q-87 41 -148 110q208 40 344 210l-244 244q-30 -52 -84 -86q-52 -32 -116 -32q-92 0 -155 66
t-63 154q0 89 61 154.5t147 69.5h872z" />
</svg>