<svg xmlns="http://www.w3.org/2000/svg" xmlns:xlink="http://www.w3.org/1999/xlink" version="1.1" viewBox="-10 0 2068 2048">
   <path fill="currentColor"
d="M2034 1216l-102 100l-214 -212l102 -102q20 -14 41.5 -14t40.5 14l132 132q14 18 14 40.5t-14 41.5zM1032 1792l624 -626l212 214l-624 624h-212v-212zM204 44h1446q88 0 148 60t60 142v432l-396 396h-430v432l-190 188h-638q-82 0 -142 -60q-62 -60 -62 -148v-1240
q0 -80 61 -141t143 -61zM204 456v410h620v-410h-620zM1032 456v410h618v-410h-618zM204 1074v412h620v-412h-620z" />
</svg>