<svg xmlns="http://www.w3.org/2000/svg" xmlns:xlink="http://www.w3.org/1999/xlink" version="1.1" viewBox="-10 0 2068 2048">
   <path fill="currentColor"
d="M1896 928h152v192h-152q-22 203 -129.5 371.5t-276 275.5t-370.5 130v151h-192v-151q-201 -23 -370 -130q-170 -108 -276 -276q-108 -168 -130 -371h-152v-192h152q22 -201 130 -370q107 -169 276 -277q169 -107 370 -130v-151h192v151q202 23 370 130t276 277
q108 169 130 370zM348 928h142v192h-142q31 224 194 387t386 194v-142h192v142q224 -31 386.5 -193.5t193.5 -387.5h-142v-192h142q-31 -223 -193.5 -385.5t-386.5 -194.5v141h-192v-141q-223 32 -386 194q-163 164 -194 386zM1412 1413h-776v-96q0 -85 146 -146
q119 -51 242.5 -51t241.5 51q146 60 146 146v96zM1024 636q82 0 139 57t57 137t-57 137t-139 57t-139 -57t-57 -137t57 -137t139 -57z" />
</svg>