<svg xmlns="http://www.w3.org/2000/svg" xmlns:xlink="http://www.w3.org/1999/xlink" version="1.1" viewBox="-10 0 2058 2048">
   <path fill="currentColor"
d="M228 1479q0 -136 78 -261q79 -127 309 -280q-118 -142 -172 -254q-53 -92 -53 -205q0 -225 134 -359q67 -67 156 -94q85 -26 212 -26q196 0 333 120q136 120 136 296q0 119 -62 225q-63 107 -215 216l-144 110l440 531q91 -181 91 -397h225q0 357 -163 583l287 335h-306
l-134 -153q-103 90 -234 134q-153 48 -278 48q-282 0 -468 -153q-172 -172 -172 -416zM868 1838q200 0 369 -154l-479 -583l-43 28q-224 167 -224 350q0 167 105 253q121 106 272 106zM644 479q0 133 162 325l168 -110q88 -59 122 -125q31 -61 31 -143q0 -96 -72 -153
q-62 -62 -177 -62t-175 74q-59 72 -59 194z" />
</svg>