<svg xmlns="http://www.w3.org/2000/svg" xmlns:xlink="http://www.w3.org/1999/xlink" version="1.1" viewBox="-10 0 2058 2048">
   <path fill="currentColor"
d="M1024 1755q45 104 128 192h-858q-84 0 -141 -57t-57 -135v-1563q0 -78 57 -135t141 -57h1170q82 0 139 57t57 135v685h-50q-64 0 -146 19v-704h-490v781l-242 -219l-242 219v-781h-196v1563h730zM1560 1755q-102 0 -172 -73q-72 -74 -72 -174q0 -52 28 -110l-110 -105
q-64 100 -64 215q0 165 114 279t276 114v147l218 -220l-218 -219v146zM1560 1120v-147l-220 220l220 219v-146q98 0 172 71q74 70 74 171q0 59 -28 110l106 105q68 -95 68 -215q0 -160 -114 -274t-278 -114z" />
</svg>