<svg xmlns="http://www.w3.org/2000/svg" xmlns:xlink="http://www.w3.org/1999/xlink" version="1.1" viewBox="-10 0 2068 2048">
   <path fill="currentColor"
d="M1024 0q-200 0 -392 77q-188 76 -333.5 221t-220.5 334q-78 192 -78 392t78 392q75 189 220.5 334t333.5 221q192 77 392 77t392 -77q188 -76 333.5 -221t220.5 -334q78 -192 78 -392h-202q0 220 -112 411q-110 190 -300 300q-190 111 -410.5 111t-411.5 -111
q-189 -110 -300 -300q-110 -191 -110 -411t110 -411q112 -191 300.5 -301t411.5 -110v-202zM1720 101q-29 0 -52 19l-126 125l260 255l124 -120q20 -25 20 -53t-20 -48l-158 -159q-23 -19 -48 -19zM1470 317l-754 760v255h254l760 -755z" />
</svg>