<svg xmlns="http://www.w3.org/2000/svg" xmlns:xlink="http://www.w3.org/1999/xlink" version="1.1" viewBox="-10 0 2068 2048">
   <path fill="currentColor"
d="M1868 536h-284l-162 -180h-534v180h454l172 180h354v1066h-1422v-800h-178v800q0 72 52 124t126 52h1422q74 0 128 -52q52 -52 52 -124v-1066q0 -76 -52 -128t-128 -52zM714 1250q0 142 78 254q70 104 194.5 153.5t247.5 28.5q139 -25 238 -124q100 -100 126 -238
q20 -124 -30 -246q-48 -119 -154 -196q-112 -80 -258 -80q-120 0 -224 62q-102 60 -160 162q-58 101 -58 224zM1156 982q112 0 189 77t77 187q0 112 -77 189t-188 77t-188 -77t-77 -189q0 -110 77 -187t187 -77zM446 536h268v-180h-268v-266h-178v266h-268v180h268v266h178
v-266z" />
</svg>