<svg xmlns="http://www.w3.org/2000/svg" xmlns:xlink="http://www.w3.org/1999/xlink" version="1.1" viewBox="-10 0 2068 2048">
   <path fill="currentColor"
d="M822 1885h-298q-144 0 -252 -109q-108 -108 -108 -252v-1000q0 -143 105.5 -252t254.5 -109h298v1722zM524 0q-143 0 -264 70q-121 69 -190 190q-70 120 -70 264v1000q0 144 70 264q69 121 190 190q121 70 264 70h466v-2048h-466zM318 615q0 78 56 135q58 58 138 58
q78 0 134 -58q56 -56 56 -137q0 -80 -55 -135t-135 -55q-81 0 -138 55q-56 56 -56 137zM1600 923q82 0 144 60q62 59 62 144q0 86 -62 145q-62 60 -146 60t-147 -60t-63 -145q0 -84 63 -144t149 -60zM1524 2048q142 0 264 -70q120 -69 190 -190q70 -122 70 -264v-1000
q0 -142 -70 -264q-70 -121 -190 -190q-122 -70 -264 -70h-332v2048h332z" />
</svg>