<svg xmlns="http://www.w3.org/2000/svg" xmlns:xlink="http://www.w3.org/1999/xlink" version="1.1" viewBox="-10 0 2058 2048">
   <path fill="currentColor"
d="M99 497v-197h201v-103q0 -79 59 -138t138 -59h600v698l252 -150l249 150v-698h98q76 0 138 61q64 62 64 136v979q-145 -79 -305 -79q-159 0 -295 82q-135 82 -218 220q-82 137 -82 297q0 158 80 300h-581q-80 0 -138 -61q-59 -62 -59 -135v-104h-201v-196h201v-403h-201
v-197h201v-403h-201zM300 300v197h197v-197h-197zM300 1696h197v-196h-197v196zM300 1097h197v-197h-197v197zM1809 1350l-211 206l-211 -206l-141 140l211 206l-211 211l141 141l211 -211l211 211l140 -141l-211 -211l211 -206z" />
</svg>