<svg xmlns="http://www.w3.org/2000/svg" xmlns:xlink="http://www.w3.org/1999/xlink" version="1.1" viewBox="-10 0 2068 2048">
   <path fill="currentColor"
d="M1442 279v397l266 157l-70 113l-334 -201v-466h138zM1394 1116q193 0 330 -135q136 -135 136 -327q0 -190 -136 -329q-136 -137 -330 -137q-191 0 -326 137q-134 138 -134 329q0 192 135 327t325 135zM1164 1674q62 0 101 -42t39 -98t-40 -98q-38 -41 -100 -41t-100 41
q-40 42 -40 98t39 98t101 42zM188 1116h754q-196 -187 -196 -462h-558v462zM328 1674q60 0 99 -42t39 -98t-38 -98q-39 -41 -100.5 -41t-99.5 41q-40 42 -40 98t39 98t101 42zM1394 0q274 0 464 190q190 189 190 464q0 243 -162 425q-160 181 -396 216v287q0 118 -96 205
v166q0 34 -26 65q-25 30 -64 30h-92q-40 0 -68 -28q-28 -29 -28 -67v-92h-740v92q0 39 -28 67t-68 28h-92q-40 0 -66 -30q-26 -31 -26 -65v-166q-96 -87 -96 -205v-928q0 -221 190 -298q191 -77 556 -77h56l56 5q197 -284 536 -284z" />
</svg>