<svg xmlns="http://www.w3.org/2000/svg" xmlns:xlink="http://www.w3.org/1999/xlink" version="1.1" viewBox="-10 0 2068 2048">
   <path fill="currentColor"
d="M2048 1030v188h-410q40 84 44 200q5 130 -48 244q-61 136 -192 209q-150 88 -382 88q-344 5 -536 -153q-140 -113 -188 -292q-26 -94 -22 -157l370 5q0 201 158 274q87 40 196 35h12q100 -9 162 -39q113 -53 122 -181q8 -127 -206 -233h-1128v-188h2048zM1712 647h-370
v-44q-9 -49 -30 -87q-31 -57 -92 -87q-69 -44 -182 -44q-192 0 -262 96q-35 54 -30 131v4q8 48 48 96q74 83 230 122h-584l-26 -65q-29 -82 -38 -161q-9 -112 26 -205q43 -109 152 -183q133 -88 352 -118q145 -22 266 -8q116 9 200 47q82 30 144 83q58 49 96 109
q39 58 62 113q16 43 26 101q9 42 10 72z" />
</svg>