<svg xmlns="http://www.w3.org/2000/svg" xmlns:xlink="http://www.w3.org/1999/xlink" version="1.1" viewBox="-10 0 2068 2048">
   <path fill="currentColor"
d="M1806 784l-32 -97l186 -72q-67 -164 -190 -291q-124 -129 -280 -209l-82 183l-96 -43l82 -183q-183 -72 -370 -72q-134 0 -312 48l72 192l-96 34l-72 -188q-165 68 -292 190q-128 124 -208 282l182 81l-44 97l-182 -82q-72 183 -72 370q0 134 48 312l192 -72l34 96
l-188 73q68 163 190 290q127 131 282 210l82 -183l96 43l-82 183q182 72 370 72q133 0 312 -48l-72 -192l96 -34l72 187q165 -68 290 -189q129 -124 210 -282l-182 -81l42 -97l184 82q72 -183 72 -370q0 -134 -48 -313zM1260 1591q-153 62 -318 41t-294 -120
q-129 -100 -192 -252q-62 -153 -40 -318q20 -162 120 -293q97 -129 252 -192q153 -62 318 -41q164 21 292 120q133 101 196 252q64 154 40 318q-25 164 -123 293t-251 192z" />
</svg>