<svg xmlns="http://www.w3.org/2000/svg" xmlns:xlink="http://www.w3.org/1999/xlink" version="1.1" viewBox="-10 0 2058 2048">
   <path fill="currentColor"
d="M1136 693v-464h118q42 0 76 -34q36 -35 36 -80t-35 -80t-77 -35h-460q-42 0 -76 35q-34 34 -34 80t34 80t76 34h118v464q-245 42 -408 232q-162 190 -162 440q0 185 90 344q91 158 248 248q160 91 344 91t344 -91q157 -90 248 -248q90 -159 90 -344q0 -250 -162.5 -440
t-407.5 -232zM1024 1819q-186 0 -320 -134q-132 -133 -132 -320q0 -154 96 -277q95 -123 244 -160v549h224v-549q150 37 246 160t96 277q0 187 -134 320q-134 134 -320 134z" />
</svg>