<svg xmlns="http://www.w3.org/2000/svg" xmlns:xlink="http://www.w3.org/1999/xlink" version="1.1" viewBox="-10 0 2068 2048">
   <path fill="currentColor"
d="M2048 1925l-124 123l-170 -169h-108v-110l-576 -571h-106v-110l-68 -68q-174 36 -316 146l132 132l-136 138l-132 -133q-133 170 -156 379h188v197h-390v-96q0 -311 180 -565q178 -253 470 -358l-470 -471l-180 -69v-110l-86 -86l124 -124zM2024 1655q-36 -311 -249 -539
t-519 -288v-197l778 -311v-196h-1540zM1060 1586q-44 0 -86 19l-376 178l376 174q40 18 86 18q82 0 139 -57t57 -137t-56 -137q-58 -58 -140 -58z" />
</svg>