<svg xmlns="http://www.w3.org/2000/svg" xmlns:xlink="http://www.w3.org/1999/xlink" version="1.1" viewBox="-10 0 2058 2048">
   <path fill="currentColor"
d="M1332 250q0 -137 -106 -245q21 -5 52 -5q106 0 180 74q76 75 76 181v976h104v120l-306 -308v-793zM918 255q0 -20 16 -36q18 -17 37 -17t36 17t17 36v481l202 206v-687q0 -107 -74 -181t-182 -74q-106 0 -180 74t-74 181v173l202 207v-380zM818 1947q0 44 30 72
q33 29 70 29h414q36 0 68 -29t32 -72v-101h-614v101zM1946 1918l-130 130l-412 -409h-688q-44 0 -75 -31t-31 -70v-307h106v-284l-614 -615l128 -130z" />
</svg>