<svg xmlns="http://www.w3.org/2000/svg" xmlns:xlink="http://www.w3.org/1999/xlink" version="1.1" viewBox="-10 0 2068 2048">
   <path fill="currentColor"
d="M906 1024l-502 504l-150 -144l260 -259h-514v-202h514l-260 -259l150 -143zM1228 103q-259 0 -468 72q-207 72 -294 192l48 43l104 111l-4 -10q0 -29 72 -72q83 -58 206 -91q154 -39 336 -39t336 39q123 33 206 91q72 43 72 74t-72 75q-82 53 -206 86q-152 43 -336 43
q-185 0 -340 -43q-119 -33 -202 -86l316 316q113 19 226 19q181 0 338 -38q163 -40 276 -101v288q-100 71 -264 115q-162 43 -350 43q-146 0 -284 -28l-166 167q211 63 450 63q353 0 614 -125v230q0 29 -72 72q-83 58 -206 91q-154 39 -336 39t-336 -39q-123 -33 -206 -91
q-72 -43 -72 -72v-4l-100 105l-48 43q91 120 296.5 192t465.5 72q222 0 410 -55t300 -149q110 -92 110 -204v-1026q0 -112 -110 -204q-112 -94 -300 -149t-410 -55z" />
</svg>