<svg xmlns="http://www.w3.org/2000/svg" xmlns:xlink="http://www.w3.org/1999/xlink" version="1.1" viewBox="-10 0 2068 2048">
   <path fill="currentColor"
d="M2048 654v740l-278 96l-288 -514q-18 -30 -54 -20q-38 11 -34 50l96 854l-932 -370l110 -750q22 -158 112 -282q91 -126 230 -198q136 -72 294 -72h744l-148 222q64 33 106 100q42 64 42 144zM280 374h336q67 -107 168 -186h-504q-36 0 -64 28t-28 64q0 38 28 66t64 28z
M454 932h-358q-37 0 -66.5 26t-29.5 66t29.5 66t66.5 26h328zM188 744h292l4 -30q9 -77 36 -156h-332q-40 0 -66 28q-26 29 -26 66q0 35 26 64q26 28 66 28z" />
</svg>