<svg xmlns="http://www.w3.org/2000/svg" xmlns:xlink="http://www.w3.org/1999/xlink" version="1.1" viewBox="-10 0 2058 2048">
   <path fill="currentColor"
d="M781 0q29 0 44 24l225 409l10 28l-10 29l-225 404q-15 29 -44 29h-461q-33 0 -48 -29l-226 -404l-9 -29l9 -28l226 -409q15 -24 48 -24h461zM781 1125q29 0 44 29l225 404l10 28l-10 29l-225 409q-15 24 -44 24h-461q-33 0 -48 -24l-226 -409l-9 -29l9 -28l226 -404
q15 -29 48 -29h461zM1728 562q28 0 43 29l231 404l9 29l-9 29l-231 404q-15 28 -43 28h-461q-29 0 -44 -28l-230 -404l-10 -29l10 -29l230 -404q15 -29 44 -29h461z" />
</svg>