<svg xmlns="http://www.w3.org/2000/svg" xmlns:xlink="http://www.w3.org/1999/xlink" version="1.1" viewBox="-10 0 2068 2048">
   <path fill="currentColor"
d="M2048 1502l-474 474l-336 -330l144 -144l192 188l330 -330zM1046 1690q0 -205 134 -370l-322 -202v-572h144v496l294 184q148 -108 322 -108q136 0 268 66l6 -22q12 -86 12 -138q0 -260 -126 -478q-128 -220 -348 -348q-218 -126 -477.5 -126t-478.5 126
q-217 127 -346 348q-128 219 -128 478t128 478t346 346q220 128 478 128q67 0 162 -18q-68 -132 -68 -268z" />
</svg>