<svg xmlns="http://www.w3.org/2000/svg" xmlns:xlink="http://www.w3.org/1999/xlink" version="1.1" viewBox="-10 0 2068 2048">
   <path fill="currentColor"
d="M970 716q-104 0 -180 75q-74 74 -74 180q0 108 74 183q76 77 180 77q106 0 183 -77t77 -183q0 -105 -76 -180q-77 -75 -184 -75zM1846 202h-1644q-82 0 -142 60t-60 147v1230q0 87 60 147t142 60h1644q82 0 142 -60t60 -147v-1230q0 -87 -60 -147t-142 -60zM1514 1659
l-298 -299q-113 73 -246 73q-190 0 -325 -135t-135 -327t134 -327q134 -134 326 -134q194 0 328 134q134 135 134 327q0 132 -72 245l298 298z" />
</svg>