<svg xmlns="http://www.w3.org/2000/svg" xmlns:xlink="http://www.w3.org/1999/xlink" version="1.1" viewBox="-10 0 2068 2048">
   <path fill="currentColor"
d="M2048 1639q-24 40 -32 48l-410 -411q152 34 268 131q116 96 174 232zM1020 335q164 0 306 35q111 29 188 83q66 39 66 66t-66 70q-73 45 -184 74q-133 40 -294 44l180 179q225 -30 364 -114v263q-48 29 -92 52q140 0 280 57v-625q0 -100 -102 -186q-99 -85 -272 -136
q-170 -50 -374 -50q-276 0 -460 83l154 149q124 -44 306 -44zM1960 1875l-118 118l-58 -52q-167 83 -296 83q-188 0 -344 -105q-155 -104 -216 -271q82 -197 270 -298l-140 -140q-62 37 -178 149q-248 -13 -430 -110v206q0 27 74 70q86 52 206 79l-8 35l74 170
q-229 -35 -376 -133q-148 -99 -148 -221v-936q0 -28 22 -84l-294 -288l122 -123zM1028 1175l-314 -319q-123 -23 -264 -92v262q86 65 236 103q147 37 324 37q6 5 14 5zM1654 1801l-102 -105q-13 39 -64 39q-46 0 -70 -26q-26 -28 -26 -72q0 -46 38 -73l-104 -100
q-74 74 -74 170q0 98 67 165t169 67q48 5 94 -13q47 -18 72 -52z" />
</svg>