<svg xmlns="http://www.w3.org/2000/svg" xmlns:xlink="http://www.w3.org/1999/xlink" version="1.1" viewBox="-10 0 2068 2048">
   <path fill="currentColor"
d="M712 343l-140 -142q108 -77 246 -77q152 0 274 96h164q160 0 274 114q116 115 116 279v192h196q36 0 66 29q30 30 30 71v663l-196 -196v-371h-192v174l-562 -558q20 -4 72 -4h388q0 -83 -57 -140t-135 -57h-246q-33 -46 -84 -71q-52 -25 -108 -25q-53 0 -106 23z
M2048 1925l-124 123l-270 -265h-104v192h-1074v-777q-160 0 -274 -114q-116 -115 -116 -279q0 -115 64 -213q65 -99 174 -144l-324 -324l124 -124zM726 855l-242 -242h-8q-84 0 -141 57t-57 137t57 137t141 57h46q53 -9 100 -32q64 -36 96 -100z" />
</svg>