<svg xmlns="http://www.w3.org/2000/svg" xmlns:xlink="http://www.w3.org/1999/xlink" version="1.1" viewBox="-10 0 2068 2048">
   <path fill="currentColor"
d="M1024 1846l356 -615q52 -101 52 -207q0 -92 -36 -171.5t-104 -136.5h490q64 149 64 308q0 220 -112 411q-110 190 -300 300q-190 111 -410 111zM202 1024q0 -222 110 -409l356 616q56 89 152 146q93 56 204 56q62 0 134 -24l-250 427q-197 -29 -358 -144
q-162 -117 -254 -291q-94 -177 -94 -377zM1332 1024q0 130 -89 219t-219 89t-220 -89q-88 -88 -88 -219t88 -219q90 -89 220 -89t219 89t89 219zM1024 202q224 0 412 113q187 112 298 300h-710q-149 0 -262.5 94t-141.5 233l-240 -423q111 -145 280 -231q170 -86 364 -86z
M1024 0q-200 0 -392 77q-188 76 -333.5 221t-220.5 334q-78 192 -78 392t78 392q75 189 220.5 334t333.5 221q192 77 392 77t392 -77q188 -76 333.5 -221t220.5 -334q78 -192 78 -392t-78 -392q-75 -189 -220.5 -334t-333.5 -221q-192 -77 -392 -77z" />
</svg>