<svg xmlns="http://www.w3.org/2000/svg" xmlns:xlink="http://www.w3.org/1999/xlink" version="1.1" viewBox="-10 0 2068 2048">
   <path fill="currentColor"
d="M1014 1024q-282 0 -506 168l-172 -226q145 -105 318 -164q175 -60 359.5 -60t358.5 60q174 59 320 164l-124 160q-63 14 -102 30q-204 -132 -452 -132zM1858 742l168 -224q-215 -163 -474 -252q-256 -88 -538.5 -88t-539.5 88q-260 90 -474 252l168 224
q182 -138 396 -210q216 -72 449 -72t449 72q215 72 396 210zM1014 1306q-188 0 -340 114l340 450l96 -132q-4 -20 -4 -58q0 -183 114 -334q-107 -40 -206 -40zM1296 1588v190h752v-190h-752z" />
</svg>