<svg xmlns="http://www.w3.org/2000/svg" xmlns:xlink="http://www.w3.org/1999/xlink" version="1.1" viewBox="-10 0 2058 2048">
   <path fill="currentColor"
d="M1125 202h-202l-105 -202h413zM1231 615v-206h101v-101h-615v101h101v206q-140 0 -258 68q-119 68 -185 185q-67 118 -67 257v923h1432v-923q0 -139 -67 -257q-66 -117 -185 -185q-118 -68 -257 -68zM1538 1846h-1028v-721q0 -125 91 -216q92 -92 217 -92h413
q124 0 216 92q91 91 91 216v721zM1024 923q-168 0 -288 120t-120 289q0 148 101 264v144h129v-154h116v154h125v-154h115v154h130v-144q101 -116 101 -264q0 -168 -121 -289q-120 -120 -288 -120zM870 1332q-43 0 -72 -32t-29 -72t29 -72q28 -31 72 -31t72 31q29 32 29 72
t-29 72t-72 32zM947 1461l77 -129l77 129h-154zM1178 1332q-43 0 -72 -32t-29 -72t29 -72q28 -31 72 -31t72 31q29 32 29 72t-29 72t-72 32z" />
</svg>