<svg xmlns="http://www.w3.org/2000/svg" xmlns:xlink="http://www.w3.org/1999/xlink" version="1.1" viewBox="-10 0 2068 2048">
   <path fill="currentColor"
d="M808 265q-36 61 -54 115l146 150q60 -159 160 -306q127 186 188 389h-266l198 192h108q10 62 14 123l192 192q4 -69 4 -119q0 -86 -12 -196h328q28 105 28 196q0 92 -28 197h-246l320 320q146 -238 146 -517q0 -266 -130 -489q-131 -224 -354 -354t-490 -130
q-281 0 -516 146l146 146q57 -35 118 -55zM1736 613h-288q-52 -191 -136 -348q132 44 244 135q105 86 180 213zM124 0l-124 124l288 288q-97 125 -148 274q-54 153 -54 315q0 265 132 489q131 225 353.5 355t488.5 130q328 0 590 -197l274 270l124 -123zM426 549l58 64h-100
q32 -48 42 -64zM306 1198q-28 -109 -28 -197q0 -87 28 -196h330q-14 118 -14 196q0 79 14 197h-330zM384 1390h288q55 198 136 347q-132 -44 -244 -135q-106 -87 -180 -212zM818 1001v-55l252 252h-238q-14 -101 -14 -197zM1060 1778q-128 -189 -188 -388h376
q-61 201 -188 388zM1312 1737q49 -89 90 -210l110 110q-94 63 -200 100z" />
</svg>