<svg xmlns="http://www.w3.org/2000/svg" xmlns:xlink="http://www.w3.org/1999/xlink" version="1.1" viewBox="-10 0 2058 2048">
   <path fill="currentColor"
d="M1204 327h5q30 -30 72 -27q43 3 72 36l230 279h313q37 0 69 29t32 72t-32 72t-69 29h-361q-53 0 -86 -43l-154 -183l-259 241l302 211q44 29 44 82v413q0 38 -32 70q-31 31 -72 31t-72 -31t-31 -70v-360l-332 -231q-71 -48 -76 -137t62 -151zM1535 308q63 0 109 -46
q45 -45 45 -111q0 -65 -45 -108q-44 -43 -109 -43q-64 0 -108 43q-45 43 -45 108q0 66 45 111q46 46 108 46zM459 1740h-101q-129 0 -218 92t-89 216h408v-154h923v-154h-923z" />
</svg>