<svg xmlns="http://www.w3.org/2000/svg" xmlns:xlink="http://www.w3.org/1999/xlink" version="1.1" viewBox="-10 0 2058 2048">
   <path fill="currentColor"
d="M1024 1620q-163 0 -300 -80q-136 -80 -216 -216q-80 -137 -80 -300t80 -300q80 -136 216 -216q137 -80 300 -80t300 80q136 80 216 216q80 137 80 300t-80 300q-80 136 -216 216q-137 80 -300 80zM1620 548l128 -120q-83 -87 -128 -120l-120 120q-208 -172 -476 -172
q-208 0 -386 102t-280 280t-102 386t102 386t280 280t386 102t386 -102t280 -280t102 -386q0 -134 -44 -260q-43 -124 -128 -216zM940 1108h168v-512h-168v512zM1280 0h-512v172h512v-172zM1108 1876h-168v172h168v-172zM1452 1876h-172v172h172v-172zM768 1876h-172v172
h172v-172z" />
</svg>