<svg xmlns="http://www.w3.org/2000/svg" xmlns:xlink="http://www.w3.org/1999/xlink" version="1.1" viewBox="-10 0 2058 2048">
   <path fill="currentColor"
d="M1538 0h-1028q-82 0 -142 60t-60 142v1644q0 82 60 142t142 60h1028q82 0 142 -60t60 -142v-1644q0 -82 -60 -142t-142 -60zM1538 1846h-1028v-1644h1028v1644zM1024 615q-86 0 -146 60t-60 142q0 58 33 106h-33q-82 0 -142 60t-60 144q0 85 60 145t142 60q81 0 153 -72
l-101 278h308l-101 -278q72 72 154 72q81 0 141 -60q61 -61 61 -145q0 -83 -61 -144q-60 -60 -141 -60h-34q34 -49 34 -106q0 -82 -60 -142t-147 -60z" />
</svg>