<svg xmlns="http://www.w3.org/2000/svg" xmlns:xlink="http://www.w3.org/1999/xlink" version="1.1" viewBox="-10 0 2068 2048">
   <path fill="currentColor"
d="M1024 769q-106 0 -181 75t-75 180t75 180t180 75t180 -75t75 -180t-75 -180t-179 -75zM1024 1125q-44 0 -73 -29t-29 -72t29 -72t72 -29t72 29t29 72t-29 72t-71 29zM1024 769q-106 0 -181 75t-75 180t75 180t180 75t180 -75t75 -180t-75 -180t-179 -75zM1024 1125
q-44 0 -73 -29t-29 -72t29 -72t72 -29t72 29t29 72t-29 72t-71 29zM1024 0q-200 0 -392 77q-188 76 -333.5 221t-220.5 334q-78 192 -78 392t78 392q75 189 220.5 334t333.5 221q192 77 392 77t392 -77q188 -76 333.5 -221t220.5 -334q78 -192 78 -392t-78 -392
q-75 -189 -220.5 -334t-333.5 -221q-192 -77 -392 -77zM1024 1433q-202 0 -370 -111q-169 -112 -246 -298q68 -168 210 -274q141 -106 320 -130q178 -24 340 43q122 51 216 147q91 92 144 214q-76 186 -244 298q-168 111 -370 111zM1024 769q-106 0 -181 75t-75 180t75 180
t180 75t180 -75t75 -180t-75 -180t-179 -75zM1024 1125q-44 0 -73 -29t-29 -72t29 -72t72 -29t72 29t29 72t-29 72t-71 29z" />
</svg>