<svg xmlns="http://www.w3.org/2000/svg" xmlns:xlink="http://www.w3.org/1999/xlink" version="1.1" viewBox="-10 0 2058 2048">
   <path fill="currentColor"
d="M1024 0q-130 0 -220 89q-88 88 -88 219q0 96 56 175q56 80 150 113v120h-306v207h306v913q-128 -25 -226 -67q-115 -48 -204 -120q-90 -74 -142 -159l160 -158l-408 -308v308q0 151 86 281q87 133 220 228q137 97 298 152q163 55 317.5 55t316.5 -55q165 -56 302 -152
q137 -97 220 -228q84 -132 84 -281v-308l-408 308l158 158q-51 85 -142 159q-88 72 -204 120q-97 42 -226 67v-913h308v-207h-308v-120q92 -33 150 -113q58 -81 58 -175q0 -130 -89 -219t-219 -89zM1024 202q43 0 72 31q28 32 28 75t-29 72t-72 29t-72 -29t-29 -72t30 -75
q28 -31 72 -31z" />
</svg>