<svg xmlns="http://www.w3.org/2000/svg" xmlns:xlink="http://www.w3.org/1999/xlink" version="1.1" viewBox="-10 0 2068 2048">
   <path fill="currentColor"
d="M812 952q81 -284 134 -394q73 -149 178 -149q107 0 184 149q52 107 128 394q67 245 116 370q77 197 182 298q130 120 314 120v-202q-107 0 -184 -81q-67 -72 -124 -222q-43 -104 -104 -334q-58 -223 -104 -334q-63 -174 -152 -259q-101 -106 -254 -106q-152 0 -256 106
q-85 85 -154 259q-35 98 -100 332q-88 337 -160 461q-95 178 -254 178v-1538h-202v2048h2048v-202h-1846v-106q188 0 318 -120q105 -101 182 -298q48 -121 110 -370z" />
</svg>