<svg xmlns="http://www.w3.org/2000/svg" xmlns:xlink="http://www.w3.org/1999/xlink" version="1.1" viewBox="-10 0 2068 2048">
   <path fill="currentColor"
d="M890 1077q0 19 -80 46q-77 26 -152 26q-72 0 -146 -39q-74 -38 -74 -55q0 -16 28 -48q28 -30 78 -55q55 -23 128 -31t138 36t80 120zM1374 923q-82 -9 -142 34q-58 43 -74 120q0 24 78 48q76 24 152 24q78 0 150 -36t72 -53t-28 -48q-28 -30 -78 -55q-59 -30 -130 -34z
M2048 1024q0 278 -138 514q-136 236 -372 373q-237 137 -514.5 137t-513.5 -137q-235 -136 -372 -373q-138 -236 -138 -514t138 -514q137 -237 372 -373q236 -137 513.5 -137t514.5 137q236 137 372 373q138 236 138 514zM1846 942q0 -159 -72 -219t-270 -60q-101 0 -192 24
q-46 13 -134 49q-100 43 -154 43q-55 0 -150 -43q-88 -36 -134 -49q-91 -24 -196 -24q-146 0 -214 24q-71 24 -100 85q-28 61 -28 170q0 254 104 399q103 144 266 144q58 0 116 -33q38 -19 110 -70q69 -49 110 -70q64 -33 116 -33t114 33q47 27 104 70q67 49 108 70
q68 33 126 33q162 0 266 -144q104 -145 104 -399z" />
</svg>