<svg xmlns="http://www.w3.org/2000/svg" xmlns:xlink="http://www.w3.org/1999/xlink" version="1.1" viewBox="-10 0 2068 2048">
   <path fill="currentColor"
d="M716 308q160 0 308 67q147 -67 308 -67q196 0 360 96q164 97 260 259q96 164 96 361.5t-96 360.5q-96 162 -260 259q-164 96 -360 96q-161 0 -308 -67q-148 67 -308 67q-197 0 -360 -96q-164 -96 -260 -259t-96 -360.5t96 -361.5q96 -163 260 -259q163 -96 360 -96z
M1332 510l-102 14q97 97 150 228q52 133 52 272t-52 272q-53 132 -150 233l102 9q140 0 256 -69q119 -70 188 -188q70 -120 70 -257t-70 -257q-69 -118 -188 -188q-116 -69 -256 -69zM664 1024q0 140 56 267q57 126 154 219l106 -44q-100 -81 -156 -197q-56 -117 -56 -245
t56 -245q56 -116 156 -197l-106 -44q-97 93 -154 219q-56 127 -56 267z" />
</svg>