<svg xmlns="http://www.w3.org/2000/svg" xmlns:xlink="http://www.w3.org/1999/xlink" version="1.1" viewBox="-10 0 2068 2048">
   <path fill="currentColor"
d="M1946 923v-514l-206 -101v615h-202v-514l-206 -101v615h-208v-822l-202 -101v923h-206v-514l-206 -101v615h-202v-514l-206 -101v615q-44 0 -74 29q-28 28 -28 72t28 72q30 29 74 29h128q67 180 218 317q193 169 474 193v211h-104q-82 0 -142 60t-60 142h816
q0 -81 -60 -142q-60 -60 -142 -60h-106v-211q283 -28 476 -198q154 -129 216 -312h130q44 0 73 -29t29 -72t-29 -72t-73 -29zM922 1428q-182 -20 -312 -120q-97 -73 -154 -183h466v303zM1124 1428v-303h466q-56 110 -154 183q-128 100 -312 120z" />
</svg>