<svg xmlns="http://www.w3.org/2000/svg" xmlns:xlink="http://www.w3.org/1999/xlink" version="1.1" viewBox="-10 0 2068 2048">
   <path fill="currentColor"
d="M1846 0h-1644q-82 0 -142 60t-60 142v1644q0 82 60 142t142 60h1644q82 0 142 -60t60 -142v-1644q0 -82 -60 -142t-142 -60zM922 202q170 0 290 120t120 293q0 111 -56 205q-57 94 -152 146v-125q106 -92 106 -223q0 -132 -92 -221t-218 -89t-215 89t-89 221
q0 131 100 223v125q-96 -53 -152 -146q-54 -92 -54 -205q0 -173 120 -293t292 -120zM1638 1692q0 62 -44.5 105.5t-109.5 48.5h-562q-61 0 -104 -48l-410 -428l78 -82q28 -28 76 -28h20l236 173v-818q0 -43 31 -74t72 -31t72 31t31 74v457l124 14l404 226q39 15 62 53
q24 39 24 82v245z" />
</svg>