<svg xmlns="http://www.w3.org/2000/svg" xmlns:xlink="http://www.w3.org/1999/xlink" version="1.1" viewBox="-10 0 2058 2048">
   <path fill="currentColor"
d="M1478 2048l-276 -305l115 -119l161 162l367 -367l119 143zM1507 200v610l-205 -200l-204 200v-610h-405v1629h314q15 104 72 200h-591q-76 0 -138 -62t-62 -138v-105h-204v-200h204v-409h-204v-200h204v-410h-204v-200h204v-105q0 -80 60 -140t140 -60h1219q81 0 143 62
t62 138v996q-94 -52 -205 -72v-924h-200zM288 1724h200v-200h-200v200zM288 1115h200v-200h-200v200zM288 505h200v-200h-200v200z" />
</svg>