<svg xmlns="http://www.w3.org/2000/svg" xmlns:xlink="http://www.w3.org/1999/xlink" version="1.1" viewBox="-10 0 2058 2048">
   <path fill="currentColor"
d="M1669 96q-18 -43 -53 -69q-37 -27 -82 -27h-1020q-45 0 -82 27q-35 26 -53 69l-191 558v741q0 39 28 67q29 29 63 29h96q34 0 63 -29q28 -28 28 -67v-92h1115v92q0 38 29 67t63 29h96q34 0 63 -29q28 -28 28 -67v-741zM514 1024q-62 0 -100 -41q-39 -42 -39 -98t39 -98
t98 -42q58 0 100 42t42 98t-42 98q-41 41 -98 41zM1534 1024q-57 0 -98 -41q-42 -42 -42 -98t42 -98t100 -42q59 0 98 42t39 98t-39 98q-38 41 -100 41zM375 558l139 -418h1020l139 418h-1298zM558 1769h375v-187l557 279h-375v187z" />
</svg>