<svg xmlns="http://www.w3.org/2000/svg" xmlns:xlink="http://www.w3.org/1999/xlink" version="1.1" viewBox="-10 0 2068 2048">
   <path fill="currentColor"
d="M268 356v-266h178v266h268v180h-268v266h-178v-266h-268v-180h268zM534 890v-266h266v-268h622l162 180h284q76 0 128 52t52 128v1066q0 72 -52 124q-54 52 -128 52h-1422q-74 0 -126 -52t-52 -124v-892h266zM1156 1692q146 0 254 -76q109 -76 158 -198q50 -125 30 -248
q-26 -135 -126 -236q-101 -102 -238 -128q-122 -20 -248 30q-124 50 -194 154q-78 112 -78 260q0 121 58 222q57 101 160 160q103 60 224 60zM872 1250q0 120 84 200q82 78 200 82q116 5 202 -82q84 -87 82 -204q-1 -114 -80 -200q-80 -84 -200 -84q-121 0 -204 84
q-84 86 -84 204z" />
</svg>