<svg xmlns="http://www.w3.org/2000/svg" xmlns:xlink="http://www.w3.org/1999/xlink" version="1.1" viewBox="-10 0 2068 2048">
   <path fill="currentColor"
d="M972 1562q0 -177 86 -326q85 -149 234 -235q150 -86 323.5 -86t326.5 86v-86l-222 -647q-20 -45 -62 -76q-40 -30 -96 -30h-1182q-55 0 -96 30q-41 31 -60 76l-224 647v865q0 40 33 73t75 33h110q40 0 73 -33t33 -73v-111h658q-10 -57 -10 -107zM380 323h1182l162 486
h-1506zM380 1345q-70 0 -116 -46q-46 -45 -46 -113q0 -69 45 -117t115 -48q68 0 116 48t48 117q0 68 -48 113q-50 46 -114 46zM1724 1886v-217h-430v-213h430v-217l324 323z" />
</svg>