<svg xmlns="http://www.w3.org/2000/svg" xmlns:xlink="http://www.w3.org/1999/xlink" version="1.1" viewBox="-10 0 2068 2048">
   <path fill="currentColor"
d="M1024 1332h206q0 81 92 144q90 62 216 62t216 -62q92 -63 92 -144t-82 -125q-67 -38 -250 -82q-157 -40 -226 -67q-118 -47 -188 -121q-76 -92 -76 -223q0 -132 100 -241q100 -107 260 -146v-226h308v226q158 39 256 146q100 108 100 243h-202q0 -81 -92 -144
q-90 -62 -216 -62t-216 62q-92 63 -92 144.5t82 124.5q62 38 250 82q153 40 220 67q126 48 188 120q78 92 78 224t-100 240q-99 108 -256 147v226h-308v-226q-159 -39 -260 -147q-100 -109 -100 -242zM0 101h356q116 0 218 43t182.5 123t123.5 182q42 102 42 214
q0 169 -88 306q-89 136 -234 204l386 774h-226l-366 -716h-192v716h-202v-1846zM356 1024q150 0 254 -106q106 -108 106 -255.5t-106 -251.5q-104 -103 -254 -103h-154v716h154z" />
</svg>