<svg xmlns="http://www.w3.org/2000/svg" xmlns:xlink="http://www.w3.org/1999/xlink" version="1.1" viewBox="-10 0 2068 2048">
   <path fill="currentColor"
d="M1846 409h-822l-206 -207h-616q-82 0 -142 60t-60 147v1230q0 87 60 147t142 60h1644q82 0 142 -60t60 -147v-1024q0 -86 -60 -146t-142 -60zM1514 1639h-154v-154h154v154zM1514 1413h-154q0 -89 44 -153q30 -41 90 -92q48 -38 62 -62q30 -40 30 -82q0 -63 -46 -108
q-46 -46 -106 -46q-58 0 -108 46q-48 45 -48 108h-154q0 -130 89 -219t221 -89t220 89q86 87 86 219q0 66 -34 120q-26 34 -80 84q-51 47 -78 80q-34 49 -34 105z" />
</svg>