<svg xmlns="http://www.w3.org/2000/svg" xmlns:xlink="http://www.w3.org/1999/xlink" version="1.1" viewBox="-10 0 2068 2048">
   <path fill="currentColor"
d="M636 1836q-211 -103 -348 -296q-136 -191 -160 -432h-128q20 260 162 476q143 216 368 340q226 124 490 124q39 0 56 -4l-324 -324zM1028 0q-39 0 -56 4l324 324l116 -116q211 103 348 296q136 191 160 432h128q-20 -260 -162 -476q-143 -216 -368 -340
q-226 -124 -490 -124zM1364 1196h172v-512q0 -72 -50 -122t-122 -50h-512v172h512v512zM684 1364v-1024h-172v172h-172v172h172v680q0 72 50 122t122 50h680v172h172v-172h172v-172h-1024z" />
</svg>