<svg xmlns="http://www.w3.org/2000/svg" xmlns:xlink="http://www.w3.org/1999/xlink" version="1.1" viewBox="-10 0 2068 2048">
   <path fill="currentColor"
d="M2048 1925l-1924 -1925l-124 124l580 585q-98 99 -154 242q-56 140 -46 293q8 95 26 146q18 77 70 169q79 125 208 208q132 85 276 103q162 22 314 -14q160 -36 276 -142l18 -18l356 352zM750 1202q-38 14 -64 -13q-10 -5 -14 -14q-72 -94 -94 -217q-20 -121 20 -236
l128 128q0 144 46 270q10 18 10 32q0 36 -32 50zM1302 1536q-53 48 -104 60q-78 27 -160 0q-67 -22 -124 -78q82 -22 134 -78q54 -57 72 -123q4 -30 4 -69l228 229q-27 41 -50 59zM1736 1362l-904 -900q73 -123 174 -210q127 -101 246 -128q-73 136 -50 294q22 157 132 263
q38 33 110 92q58 40 92 68l14 14q44 44 64 69l26 45q37 59 46 78l14 23q55 135 36 292z" />
</svg>