<svg xmlns="http://www.w3.org/2000/svg" xmlns:xlink="http://www.w3.org/1999/xlink" version="1.1" viewBox="-10 0 2068 2048">
   <path fill="currentColor"
d="M654 1303q34 0 64 29q28 28 28 65t-28 65q-30 29 -66 29t-66 -29q-28 -28 -28 -65t28 -65q30 -29 68 -29zM1308 345l134 130l-134 131l-132 -131zM1574 606l130 135l-130 131l-132 -131zM654 1116q-116 0 -198 83q-80 83 -80 198t81 196t195 81q116 0 198 -81
q84 -81 84 -196t-83 -198t-197 -83zM816 310l70 69l352 -348q26 -31 66 -31q38 0 64 31l658 658q22 21 22 61t-34 65l-344 349l68 70l-626 623q-88 91 -208 141q-121 50 -250 50q-179 0 -328.5 -87t-237.5 -237q-88 -152 -88 -329q0 -127 52 -251q49 -120 140 -207z
M1822 745l-518 -518l-284 288l514 518z" />
</svg>