<svg xmlns="http://www.w3.org/2000/svg" xmlns:xlink="http://www.w3.org/1999/xlink" version="1.1" viewBox="-10 0 2068 2048">
   <path fill="currentColor"
d="M2012 1266l-252 437q-38 67 -98.5 100t-133.5 28h-204v204l-251 -456l251 -455v199h285l-223 -389l436 -252l185 314q37 61 40 135q3 73 -35 135zM736 13h507q76 0 136 41q59 39 92 102l100 175l175 -99l-266 446l-521 9l175 -104l-142 -247l-223 389l-441 -251l180 -318
q33 -61 95.5 -102t132.5 -41zM318 1708l-256 -442q-34 -63 -31 -135q3 -73 41 -131l104 -175l-176 -100l518 5l270 451l-176 -105l-142 247h451v508h-366q-71 5 -135 -28t-102 -95z" />
</svg>