<svg xmlns="http://www.w3.org/2000/svg" xmlns:xlink="http://www.w3.org/1999/xlink" version="1.1" viewBox="-10 0 2068 2048">
   <path fill="currentColor"
d="M1024 586l-134 10q-113 -136 -238 -226q-188 -146 -346 -146l-30 54q-33 70 -48 150q-25 111 -10 226q16 143 82 280l-14 24q-43 62 -58 98q-25 49 -30 110l-198 34l26 102l178 -30l14 72l-160 98l50 92l148 -92q87 182 296 284q204 98 472.5 98t473.5 -98
q208 -102 294 -284l150 92l48 -92l-160 -98l16 -72l178 30l24 -102l-198 -34q-5 -64 -28 -110q-16 -36 -58 -98l-16 -24q67 -137 82 -280q16 -115 -8 -226q-16 -80 -50 -150l-28 -54q-159 0 -348 146q-124 90 -236 226zM716 896q42 0 71 29t29 73q0 42 -29 71t-72 29
t-72 -29t-29 -71q0 -44 29 -73t73 -29zM1334 896q42 0 71 29t29 73q0 42 -29 71t-71 29q-44 0 -74 -28q-28 -28 -28 -72q0 -46 28 -74q30 -28 74 -28zM924 1204h202l-72 140q20 55 58 86q38 30 92 30q67 0 110.5 -45.5t43.5 -108.5h52q0 88 -60 148t-146 60q-54 0 -102 -30
q-49 -28 -78 -76q-28 48 -76 76q-49 30 -102 30q-88 0 -148 -60t-60 -148h54q0 63 43 108.5t111 45.5q53 0 92 -30q37 -31 58 -86z" />
</svg>