<svg xmlns="http://www.w3.org/2000/svg" xmlns:xlink="http://www.w3.org/1999/xlink" version="1.1" viewBox="-10 0 2068 2048">
   <path fill="currentColor"
d="M1322 776l-330 -199v-216l162 -163l-134 -135l-128 122l-120 -122l-136 135l162 163v216l-238 140l-194 -108l-54 -226l-186 50l46 171l-172 45l50 185l226 -58l188 108v280l-188 108l-226 -59l-50 185l172 45l-46 172l186 49l58 -225l194 -108l234 139v217l-162 162
l136 136l120 -122l128 122l134 -136l-162 -162v-217l330 -193v-501zM654 884l238 -140l244 140v280l-244 140l-238 -140v-280zM1758 352q-76 0 -132 56t-56 133v654q-100 86 -100 212q0 122 86 206q84 83 204 83t204 -83q84 -84 84 -206q0 -131 -96 -212v-654
q0 -77 -56 -133t-138 -56zM1758 446q40 0 70 30q30 29 30 65v99h-194v-99q0 -35 30 -65t64 -30z" />
</svg>