<svg xmlns="http://www.w3.org/2000/svg" xmlns:xlink="http://www.w3.org/1999/xlink" version="1.1" viewBox="-10 0 2058 2048">
   <path fill="currentColor"
d="M1466 192v585l-198 -192l-196 192v-585h-388v1563h302q13 85 68 192h-566q-79 0 -136 -59q-56 -60 -56 -133v-101h-198v-192h198v-393h-198v-192h198v-393h-198v-192h198v-100q0 -78 57 -135t135 -57h1170q73 0 134 59q62 60 62 133v955q-79 -51 -196 -69v-886h-192z
M296 1654h192v-192h-192v192zM296 1069h192v-192h-192v192zM296 484h192v-192h-192v192zM1466 1266v292h-294v197h294v293h192v-293h292v-197h-292v-292h-192z" />
</svg>