<svg xmlns="http://www.w3.org/2000/svg" xmlns:xlink="http://www.w3.org/1999/xlink" version="1.1" viewBox="-10 0 2068 2048">
   <path fill="currentColor"
d="M0 1451l176 -427l-176 -426l426 -171l172 -427l426 177l426 -177l172 427l426 171l-176 426l176 427l-426 171l-172 426l-426 -176l-426 176l-172 -426zM274 711l128 313l-128 314l310 127l126 309l314 -127l314 127l126 -309l310 -127l-128 -314l128 -313l-310 -128
l-126 -308l-314 127l-314 -127l-126 308zM922 1338h206v211h-206v-211zM922 500h206v627h-206v-627z" />
</svg>