<svg xmlns="http://www.w3.org/2000/svg" xmlns:xlink="http://www.w3.org/1999/xlink" version="1.1" viewBox="-10 0 2058 2048">
   <path fill="currentColor"
d="M1657 505h-286q-71 -128 -181 -200l162 -162l-142 -143l-219 219q-70 -19 -143 -19t-143 19l-224 -219l-143 143l167 162q-115 73 -186 200h-285v205h214q-10 58 -10 100v105h-204v200h204v104q0 42 10 100h-214v205h285q109 190 317 267t412 0v-67q0 -192 112 -350
q113 -160 297 -221v-38h200v-200h-200v-105q0 -48 -9 -100h209v-205zM1048 1319h-405v-204h405v204zM1048 915h-405v-205h405v205zM1533 2048l-281 -305l119 -119l162 162l362 -367l119 143z" />
</svg>