<svg xmlns="http://www.w3.org/2000/svg" xmlns:xlink="http://www.w3.org/1999/xlink" version="1.1" viewBox="-10 0 2068 2048">
   <path fill="currentColor"
d="M1878 267l-172 -173l-168 173l-174 -173l-168 173l-172 -173l-174 173l-168 -173l-172 173l-168 -173l-174 173l-168 -173v1639q0 87 60 147t142 60h904q-82 -141 -82 -308q0 -186 100 -341v-173h174q155 -101 340 -101q232 0 410 154v-1077zM922 1733h-720v-615h720v615
zM1846 916h-1644v-308h1644v308zM1508 1954l-278 -307l116 -116l162 164l370 -370l122 144z" />
</svg>