<svg xmlns="http://www.w3.org/2000/svg" xmlns:xlink="http://www.w3.org/1999/xlink" version="1.1" viewBox="-10 0 2058 2048">
   <path fill="currentColor"
d="M962 0q-278 0 -514 144q-175 108 -298 274q-71 91 -97 149l82 58l-29 58q-28 76 -48 158q-24 115 -24 226q0 250 128 479q128 228 348 363q235 139 519 139q269 0 495 -132t358 -358q132 -227 132 -491q0 -336 -159 -591q-144 -231 -394 -361q-234 -115 -499 -115z
M971 173q240 0 442 118q204 119 320 317q118 201 118 435q0 237 -111 433q-104 182 -291 291q-185 108 -401 108q-158 0 -298 -75t-223 -206q-84 -132 -84 -291q0 -139 67 -245q53 -97 149 -154l14 19q-28 23 -67 111q-48 100 -48 197q0 193 132 317q133 125 329 125
q158 0 284 -82q125 -81 194 -221q70 -142 70 -303q0 -187 -101 -348q-102 -162 -269 -258q-168 -96 -370 -96q-147 0 -298 58q-126 48 -221 120l-14 -14q106 -170 283 -262q180 -94 394 -94zM818 534q198 0 362 117q166 118 214 296l-24 10q-92 -121 -221 -193
q-139 -81 -293 -81q-194 0 -336 105q-131 97 -195 253q-65 157 -50 310l-25 9l-19 -62q-24 -77 -24 -149q0 -167 82 -308q81 -139 223 -223t306 -84zM990 957q94 0 157 62q65 63 65 154q0 57 -34 111q-16 30 -29 43l72 53l-24 29q-32 32 -72 52q-58 29 -125 29
q-110 0 -190 -77q-79 -76 -79 -192q0 -114 82 -190q80 -74 177 -74z" />
</svg>