<svg xmlns="http://www.w3.org/2000/svg" xmlns:xlink="http://www.w3.org/1999/xlink" version="1.1" viewBox="-10 0 2058 2048">
   <path fill="currentColor"
d="M1946 1812l-1716 -1711l-128 135l326 326q-20 98 -20 154q0 183 112 433q92 206 244 433q119 172 250 336l110 130l112 -130q131 -162 240 -322l346 351zM1124 1711q-313 -425 -432 -677q-82 -170 -82 -289l698 697q-39 66 -120 183zM754 365l-144 -139q96 -111 228 -168
q135 -58 286 -58q198 0 362 96q162 95 258 260q96 164 96 360q0 231 -172 563l-154 -154q82 -163 106 -274q18 -61 18 -135q0 -138 -68 -257q-68 -116 -188 -187q-119 -70 -258 -70q-107 0 -202 43q-96 43 -168 120zM1124 461q106 0 181 75t75 183q0 106 -82 194l-356 -360
q29 -43 76 -67q50 -25 106 -25z" />
</svg>