<svg xmlns="http://www.w3.org/2000/svg" xmlns:xlink="http://www.w3.org/1999/xlink" version="1.1" viewBox="-10 0 2068 2048">
   <path fill="currentColor"
d="M454 0q192 0 324 133q134 134 134 320q0 160 -96 283q-95 123 -244 160v256q58 16 116 48l512 -512q-64 -106 -64 -235q0 -187 133 -320t323 -133t323 133t133 323t-133 323t-321 133q-127 0 -228 -64l-518 517q64 101 64 230q0 186 -134 320q-132 133 -322 133
t-323 -133t-133 -320q0 -160 96 -283t246 -160v-256q-150 -37 -246 -160t-96 -283q0 -187 133 -320t321 -133zM1594 1136q188 0 321 133t133 323t-133 323t-323 133t-323 -133t-133 -323t133 -323t325 -133zM1594 1365q-96 0 -162 67q-66 66 -66 160t66 160q66 67 159 67
t160 -67t67 -160t-67 -160t-157 -67z" />
</svg>