<svg xmlns="http://www.w3.org/2000/svg" xmlns:xlink="http://www.w3.org/1999/xlink" version="1.1" viewBox="-10 0 2068 2048">
   <path fill="currentColor"
d="M1564 318l58 132l134 60l-134 64l-58 132l-64 -132l-134 -64l134 -60zM1856 1196q78 0 135 -57t57 -141q0 -68 -96 -232q-46 -78 -96 -156l-50 78q-62 93 -96 160q-50 102 -50 150q0 84 57 141t139 57zM978 422v-204h192q82 0 150 44l142 -140q-131 -96 -292 -96h-534
v192h146v204q-129 32 -226 120q-99 88 -140 214h210q40 -67 108 -106q66 -40 144 -40q120 0 204 82q84 84 88 202l196 72v-64q0 -179 -112 -310q-113 -134 -276 -170zM2048 1680v100l-778 242l-684 -186v136h-586v-1070h778l602 224q81 27 132 102q52 73 52 160h192
q122 0 206 86q86 89 86 206zM394 1780v-686h-198v686h198zM1846 1638q-13 -22 -38 -38t-52 -16h-522q-84 0 -156 -22l-228 -78l60 -188l232 78q21 5 124 14h100q0 -28 -16 -48q-16 -22 -38 -30l-566 -216h-160v540l680 184z" />
</svg>