<svg xmlns="http://www.w3.org/2000/svg" xmlns:xlink="http://www.w3.org/1999/xlink" version="1.1" viewBox="-10 0 2063 2048">
   <path fill="currentColor"
d="M2043 1925l-1911 -1925l-127 127l641 642q-78 137 -57 300q21 164 137 280q117 117 279 139q166 23 301 -59l623 619zM860 1206q-60 -60 -78 -141q-17 -80 10 -159l368 368q-85 28 -161 12q-80 -17 -139 -80zM1337 446q-27 -90 -4 -182q22 -114 109 -196q133 133 146 282
q66 -40 136 -63q44 -11 59 -14q-13 113 -77 196q169 32 282 145q-83 83 -196 105q-95 22 -186 0q-18 -94 -93 -168q-75 -73 -176 -105zM1083 710l-173 -173q129 -46 261 -16q135 30 235 130q99 99 129 232q30 130 -16 264l-163 -164q-18 -127 -87 -187q-90 -73 -186 -86z
M792 1556q27 90 4 182q-22 114 -109 196q-133 -133 -146 -282q-70 42 -136 64q-24 6 -59 13v0q13 -111 77 -195q-167 -31 -282 -146q83 -83 196 -105q95 -22 186 0q18 95 93 169q73 72 176 104z" />
</svg>