<svg xmlns="http://www.w3.org/2000/svg" xmlns:xlink="http://www.w3.org/1999/xlink" version="1.1" viewBox="-10 0 2068 2048">
   <path fill="currentColor"
d="M1750 298l-144 144q109 114 174 265q66 150 66 317q0 220 -112 411q-110 190 -300 300q-190 111 -410.5 111t-411.5 -111q-189 -110 -300 -300q-110 -191 -110 -411q0 -205 96 -382q97 -176 260 -291q164 -116 364 -140v207q-220 39 -366 209q-148 171 -148 397
q0 166 82 310t224 224q142 81 309.5 81t310.5 -81q141 -80 222 -224q82 -144 82 -310q0 -126 -48 -238q-49 -117 -134 -195l-144 145q120 121 120 288t-121 288t-288 121t-287 -121q-120 -120 -120 -288q0 -140 86 -250q87 -111 220 -144v216q-47 28 -76 75q-28 44 -28 103
q0 87 60 147t146 60t146 -60t60 -147q0 -57 -28 -103q-30 -47 -78 -75v-846h-100q-200 0 -392 77q-188 76 -333.5 221t-220.5 334q-78 192 -78 392t78 392q75 189 220.5 334t333.5 221q192 77 392 77t392 -77q188 -76 333.5 -221t220.5 -334q78 -192 78 -394
q0 -203 -80 -392q-81 -190 -218 -332z" />
</svg>