<svg xmlns="http://www.w3.org/2000/svg" xmlns:xlink="http://www.w3.org/1999/xlink" version="1.1" viewBox="-10 0 2068 2048">
   <path fill="currentColor"
d="M510 1125h-408q-44 0 -74 -29q-28 -28 -28 -72t28 -72q30 -29 74 -29h408q41 0 73.5 29t32.5 72t-32.5 72t-73.5 29zM408 615q0 -43 -31 -74t-69 -31h-106q-38 0 -69 31t-31 72t31 72t69 31h106q38 0 69 -31t31 -70zM2048 1024q0 138 -68 257t-186 188q-116 69 -256 69
h-1336q-38 0 -69 -31t-31 -72t31 -72t69 -31h922q-66 -95 -90 -207h-216q-38 0 -70 -29q-32 -28 -32 -72t32 -72q32 -29 70 -29h216q24 -112 90 -207h-508q-44 0 -75 -31t-31 -72t31 -72t75 -31h922q140 0 256 69q118 69 186 188t68 257z" />
</svg>