<svg xmlns="http://www.w3.org/2000/svg" xmlns:xlink="http://www.w3.org/1999/xlink" version="1.1" viewBox="-10 0 2068 2048">
   <path fill="currentColor"
d="M1024 172q-185 0 -336 94q-153 96 -232 250q-129 12 -232 84q-105 73 -164 184q-60 112 -60 240q0 139 68 258q68 118 186 186q119 68 258 68v340h1024v-340h84q117 0 214 -58q98 -58 156 -156q58 -97 58 -214q0 -168 -114 -290q-115 -123 -282 -130q-44 -224 -220 -370
t-408 -146zM684 1108h680v600h-680v-600zM768 1196v84h512v-84h-512zM768 1364v88h512v-88h-512zM768 1536v84h512v-84h-512z" />
</svg>