<svg xmlns="http://www.w3.org/2000/svg" xmlns:xlink="http://www.w3.org/1999/xlink" version="1.1" viewBox="-10 0 2058 2048">
   <path fill="currentColor"
d="M819 1852q0 80 -58 138t-139 58q-82 0 -140 -58t-58 -140t58 -140t140 -58q81 0 139 58t58 142zM1615 1652q-84 0 -142 58t-58 140t58 140t139 58q82 0 140 -58t58 -140t-58 -140t-137 -58zM638 1331l4 -14l89 -163h740q56 0 102 -28q47 -29 70 -74l381 -694l-172 -98
l-381 699h-698l-424 -894h-325v195h200l358 754l-135 247q-23 40 -23 93q0 84 58 142t137 58h1191v-200h-1149q-9 0 -16 -7t-7 -16zM1712 139l-139 -139l-479 479l-261 -256l-139 140l400 395z" />
</svg>