<svg xmlns="http://www.w3.org/2000/svg" xmlns:xlink="http://www.w3.org/1999/xlink" version="1.1" viewBox="-10 0 2068 2048">
   <path fill="currentColor"
d="M280 46v279h-280v188h280v279h188v-279h278v-188h-278v-279h-188zM930 325v188h838v183h-558q-74 0 -130 55q-54 54 -54 133v559q0 79 54 133q56 55 130 55h558v183h-1300v-838h-188v838q0 78 55 133t133 55h1300q78 0 134 -55q54 -54 54 -133v-209q43 -26 68 -68
q24 -42 24 -94v-559q0 -52 -24 -94q-24 -41 -68 -67v-210q0 -79 -54 -133q-56 -55 -134 -55h-838zM1210 884h654v559h-654v-559zM1488 1024q-56 0 -97 41t-41 99q0 57 41 98t100.5 41t98.5 -41q38 -42 38 -98q0 -57 -38 -99q-39 -41 -102 -41z" />
</svg>