<svg xmlns="http://www.w3.org/2000/svg" xmlns:xlink="http://www.w3.org/1999/xlink" version="1.1" viewBox="-10 0 2058 2048">
   <path fill="currentColor"
d="M866 543l-164 -91q80 -129 212 -178q-9 -29 -36 -50q-28 -22 -60 -22v-202q118 0 206 77v125q32 0 60 22q27 21 36 50q-86 28 -151 101q-64 71 -103 168zM818 923q0 -122 62 -216l-135 -77q-64 24 -96 74q-33 51 -33 113v106q0 473 278 784q176 200 442 307
q-231 -178 -360 -423q-158 -297 -158 -668zM452 543l-158 -91q80 -129 211 -178q-9 -29 -36 -50q-28 -22 -60 -22v-202q119 0 207 77v125q32 0 60 22q27 21 36 50q-86 28 -154 101q-67 71 -106 168zM409 923q0 -120 63 -216l-140 -77q-59 25 -94 74q-36 51 -36 113v106
q0 472 279 784q180 200 442 307q-226 -178 -355 -423q-159 -299 -159 -668zM1740 644l-125 72l-182 -101l-178 101l-130 -72q-43 24 -72 72q-29 49 -29 101v106q0 255 87 471q72 178 201 322q103 114 245 202q91 60 202 101l87 29v-1231q0 -52 -29 -101q-28 -48 -77 -72z
M1101 471l154 91l178 -101l182 101l154 -91q-91 -154 -236 -202q-15 -117 -100 -192q-88 -77 -202 -77v202q32 0 57 22q24 21 39 50q-145 48 -226 197z" />
</svg>