<svg xmlns="http://www.w3.org/2000/svg" xmlns:xlink="http://www.w3.org/1999/xlink" version="1.1" viewBox="-10 0 2058 2048">
   <path fill="currentColor"
d="M1552 1961l-282 -307l120 -116l162 164l366 -370l120 144zM962 1639q0 -113 40 -221q40 -104 118 -187l-158 91l-256 -149v-298l256 -149l254 149v264q92 -63 202 -96v-168l206 -115l240 62l54 -197l-182 -48l48 -183l-202 -53l-62 241l-202 115l-256 -149v-231l178 -173
l-144 -144l-134 130l-134 -130l-146 144l178 173v231l-258 149l-202 -115l-64 -241l-196 53l48 183l-178 48l54 197l234 -62l208 115v298l-208 115l-234 -62l-54 197l178 48l-48 183l202 53l62 -241l202 -115l254 149v231l-178 173l146 144l134 -130l134 130l10 -10
q-144 -172 -144 -399z" />
</svg>