<svg xmlns="http://www.w3.org/2000/svg" xmlns:xlink="http://www.w3.org/1999/xlink" version="1.1" viewBox="-10 0 2058 2048">
   <path fill="currentColor"
d="M1738 206h-426q-33 -90 -114 -148q-80 -58 -174.5 -58t-175.5 58q-79 57 -112 148h-426q-86 0 -146 60t-60 146v1430q0 86 60 146t146 60h1428q86 0 146 -60t60 -146v-1430q0 -86 -60 -146t-146 -60zM1024 206q42 0 71 29t29 72q0 42 -28 74q-29 31 -72.5 31t-71.5 -31
t-28 -74q0 -44 28 -72q28 -29 72 -29zM310 1434h316l154 -292l76 589l378 -479l188 182h316v408h-1428v-408zM1738 1276h-250l-268 -264l-254 326l-96 -714l-340 652h-220v-864h200v101h1026v-101h202v864z" />
</svg>