<svg xmlns="http://www.w3.org/2000/svg" xmlns:xlink="http://www.w3.org/1999/xlink" version="1.1" viewBox="-10 0 2068 2048">
   <path fill="currentColor"
d="M1230 101q-225 0 -412 111q-188 111 -298 298q-112 188 -112 411t112 411q110 187 298 298q185 110 410 110t410 -110q188 -111 298 -298q112 -188 112 -411t-112 -411q-110 -187 -298 -298q-187 -111 -408 -111zM1230 303q163 0 306 84q142 84 226 226q84 143 84 308
t-84 307q-85 143 -224 224q-142 82 -307.5 82t-310.5 -82q-142 -81 -224 -224q-80 -143 -80 -307q0 -165 80 -308q81 -141 224 -226q143 -84 310 -84zM298 490q-139 115 -218 284q-80 167 -80 351q0 222 110 411t298 300t410 111q96 0 192 -24q-270 -63 -482 -255
q-149 -82 -238 -228q-88 -148 -88 -315q0 -33 10 -91q-10 -75 -10 -116q0 -219 96 -428z" />
</svg>