<svg xmlns="http://www.w3.org/2000/svg" xmlns:xlink="http://www.w3.org/1999/xlink" version="1.1" viewBox="-10 0 2068 2048">
   <path fill="currentColor"
d="M154 1690q62 0 108 46q46 44 46 110q0 65 -46 108q-44 44 -110 44t-109 -43t-43 -109t44 -110q44 -46 110 -46zM664 1382q104 0 181 77t77 183q0 104 -76 180q-77 74 -182 74q-106 0 -181 -75t-75 -179q0 -106 76 -182q75 -78 180 -78zM1278 1282q-91 0 -170.5 -36.5
t-137.5 -103.5q-52 67 -133 103.5t-173 36.5q-149 0 -262.5 -97.5t-141.5 -240.5q-115 -43 -188 -146q-72 -104 -72 -234q0 -172 120 -292t288 -120q30 0 78 8q123 -110 282 -110q92 0 172 36q80 37 136 104q52 -66 136 -104q80 -36 172 -36q149 0 262 96q113 98 142 240
q116 44 188 148q72 103 72 232q0 172 -121 293t-289 121l-76 -10q-125 112 -284 112z" />
</svg>