<svg xmlns="http://www.w3.org/2000/svg" xmlns:xlink="http://www.w3.org/1999/xlink" version="1.1" viewBox="-10 0 2068 2048">
   <path fill="currentColor"
d="M196 0q-82 0 -139 57t-57 140v1074q0 78 57 135t139 57h198v-192h-198v-1074h1074v196h192v-196q0 -83 -57 -140t-135 -57h-1074zM782 585q-82 0 -139 57t-57 140v196h196v-196h196v-197h-196zM1170 585v197h100v96h192v-293h-292zM1660 585v197h196v1074h-1074v-197
h-196v197q0 78 57 135t139 57h1074q78 0 135 -57t57 -135v-1074q0 -83 -57 -140t-135 -57h-196zM1270 1074v197h-196v192h196q78 0 135 -57t57 -135v-197h-192zM586 1170v293h292v-192h-96v-101h-196z" />
</svg>