<svg xmlns="http://www.w3.org/2000/svg" xmlns:xlink="http://www.w3.org/1999/xlink" version="1.1" viewBox="-10 0 2068 2048">
   <path fill="currentColor"
d="M196 0h198v197h-198v196h-196v-196q0 -83 57 -140t139 -57zM1270 0q78 0 135 57t57 140v196h-192v-196h-196v-197h196zM1856 585q78 0 135 57t57 140v196h-192v-196h-196v-197h196zM2048 1856q0 78 -57 135t-135 57h-196v-192h196v-197h192v197zM1856 1170h192v293h-192
v-293zM1170 782v-197h292v293h-192v-96h-100zM1170 2048v-192h292v192h-292zM782 2048q-82 0 -139 -57t-57 -135v-197h196v197h196v192h-196zM586 1463v-293h196v101h96v192h-292zM586 197v-197h292v197h-292zM196 1463q-82 0 -139 -57t-57 -135v-197h196v197h198v192h-198z
M0 585h196v293h-196v-293zM782 585h196v197h-196v196h-196v-196q0 -83 57 -140t139 -57zM1462 1271q0 78 -57 135t-135 57h-196v-192h196v-197h192v197z" />
</svg>