<svg xmlns="http://www.w3.org/2000/svg" xmlns:xlink="http://www.w3.org/1999/xlink" version="1.1" viewBox="-10 0 2068 2048">
   <path fill="currentColor"
d="M2048 1362v360q0 48 -42 84q-40 36 -92 36h-562q-48 0 -86 -39q-38 -38 -38 -91v-359q0 -49 38 -87t86 -38v-254q0 -106 86 -180q88 -75 198 -75q109 0 198 75q88 75 88 180v52h-134v-52q0 -57 -42 -96q-44 -39 -108 -39q-65 0 -110 39q-46 40 -46 96v254h440q47 0 86 41
q40 41 40 93zM0 921v-202h1228v202h-1228zM0 206h1842v206h-1842v-206zM0 1434v-206h614v206h-614z" />
</svg>