<svg xmlns="http://www.w3.org/2000/svg" xmlns:xlink="http://www.w3.org/1999/xlink" version="1.1" viewBox="-10 0 2058 2048">
   <path fill="currentColor"
d="M1246 623q79 -50 196 -69q80 -14 161 -5l70 9q-113 -148 -261 -183q-110 -25 -240 18v-18q49 -70 126 -104q59 -26 122 -35h61q-174 -153 -366 -48q-45 -117 -91 -188q-38 64 -91 196q-77 -52 -162 -52q-112 0 -213 92l61 4q70 14 131 39q76 43 126 114
q-130 -43 -240 -18q-148 35 -261 183l70 -9q81 -9 161 5q117 19 196 69q-148 87 -242 271q-94 185 -94 409q0 199 77 373q76 172 202 272q125 100 279 100t279 -100q126 -100 202 -272q76 -171 76 -373q0 -226 -93 -409q-94 -184 -242 -271zM1377 1469q-19 79 -35 113
l-131 -187l-139 187l148 196l-74 57l-122 -161l-122 161q-49 -18 -74 -57l148 -196l-139 -187l-140 178q-6 -22 -17 -54q-14 -39 -18 -59l131 -157l-122 -165q20 -81 35 -114l131 188l139 -188l-148 -196l74 -56l122 161l122 -161q50 19 74 56l-148 196l139 188l140 -179
q6 25 17 55q12 34 17 58l-130 157zM1024 1116l139 187l-139 188l-139 -188z" />
</svg>