<svg xmlns="http://www.w3.org/2000/svg" xmlns:xlink="http://www.w3.org/1999/xlink" version="1.1" viewBox="-10 0 2068 2048">
   <path fill="currentColor"
d="M1024 202q-200 0 -384 53q-147 47 -290 130q-104 67 -196 149q-70 65 -116 129l-38 53l716 717l38 -53q46 -59 106 -101l30 206q-31 26 -52 68q-20 43 -20 86q0 87 60 147t146 60t146 -60t60 -147q0 -67 -36 -120t-98 -77l-44 -211q115 9 212 110q44 49 68 92l716 -717
l-40 -53q-45 -64 -114 -129q-93 -82 -198 -149q-143 -83 -288 -130q-184 -53 -384 -53zM1340 1135q-148 -111 -316 -111l-102 -606q29 -9 102 -9q253 0 470 101q159 76 280 197zM706 1135l-432 -428q70 -79 178 -140q117 -70 264 -115l102 615q-83 40 -112 68z" />
</svg>