<svg xmlns="http://www.w3.org/2000/svg" xmlns:xlink="http://www.w3.org/1999/xlink" version="1.1" viewBox="-10 0 2068 2048">
   <path fill="currentColor"
d="M819 154q0 -66 45 -110t111 -44q64 0 108 44q43 44 43 108q0 66 -43 110q-45 46 -108 46q-65 0 -111 -46q-45 -44 -45 -108zM2048 616v356l-106 38q-9 91 -81 156q-73 64 -168 64h-10q-20 103 -96 184v634h-254v-510h-24q-20 0 -68 -10l-451 -72l-115 202l77 390h-260
l-81 -384q-5 -56 14 -88l106 -186q-80 -46 -123 -118q-46 -76 -50 -166q-5 28 0 72v34q9 102 7 150q-3 58 -26 108q-24 52 -58 92q-56 66 -144 110l-67 -66l4 -20q34 -83 34 -116q9 -50 -9 -96l-53 -114q-53 -121 -44 -216q0 -72 39 -148q38 -73 101 -116q128 -87 273 -54
q78 16 149 68q57 -24 130 -24h24v-144q0 -76 48 -139t120 -73q96 -19 168 44t72 158v154h154v-54q0 -168 120 -288t293 -120h355l-91 134q41 28 67 76q24 45 24 98zM1846 942l-110 -168q-10 -19 -27 -14q-16 4 -16 24v342q62 0 108 -44q45 -44 45 -110v-30z" />
</svg>