<svg xmlns="http://www.w3.org/2000/svg" xmlns:xlink="http://www.w3.org/1999/xlink" version="1.1" viewBox="-10 0 2068 2048">
   <path fill="currentColor"
d="M1398 796l-156 77l-146 -146l210 -105q23 -9 46 -9q47 0 76 34q30 34 20.5 80t-50.5 69zM982 613l416 -206q41 -22 48 -69q8 -44 -20 -82q-28 -36 -74 -36q-23 0 -46 9l-470 237zM1924 2048l-466 -462h-786q-40 0 -70 -27t-30 -69v-292h100v-197q0 -65 68 -96l28 -13
l-768 -768l124 -124l1924 1925zM1070 1198l-156 -160l-50 23v137h206zM768 1879q0 42 30 69t66 27h392q42 0 69 -27t27 -69v-96h-584v96zM768 320q18 0 46 -9l192 -101q44 -22 52 -68q7 -45 -20 -80q-27 -34 -74 -34q-28 0 -46 9l-196 96q-45 27 -52 71q-8 43 22 80
q30 36 76 36z" />
</svg>