<svg xmlns="http://www.w3.org/2000/svg" xmlns:xlink="http://www.w3.org/1999/xlink" version="1.1" viewBox="-10 0 2068 2048">
   <path fill="currentColor"
d="M2048 910q0 276 -138 514q-138 235 -374 374q-234 136 -512 136t-512 -136q-235 -138 -372 -374q-140 -239 -140 -514v-108q0 -48 36 -82q34 -34 82 -34h1818q44 0 78 34t34 78v112zM230 910q0 217 106 400q106 179 291.5 289.5t397 110.5t397.5 -110q183 -110 290 -290
q106 -183 106 -400h-1588zM1936 456v112h-1824v-112q0 -42 35 -77t83 -35h564v-230h460v230h564q48 0 84 34q34 34 34 78z" />
</svg>