<svg xmlns="http://www.w3.org/2000/svg" xmlns:xlink="http://www.w3.org/1999/xlink" version="1.1" viewBox="-10 0 2058 2048">
   <path fill="currentColor"
d="M972 1918q0 66 28 130h-744q-86 0 -146 -60q-62 -61 -62 -142v-1644q0 -81 62 -142q60 -60 146 -60h1230q86 0 146 60t60 142v630q-52 -15 -104 -15q-50 0 -102 15v-630h-514v822l-256 -231l-254 231v-822h-206v1644h716v72zM2000 1567v361q0 48 -42 84q-40 36 -92 36
h-562q-48 0 -88 -39q-38 -38 -38 -91v-360q0 -49 38 -87t88 -38v-154q0 -107 85.5 -181t196.5 -74q113 0 200 74q88 75 88 181v154q49 0 88 40q38 39 38 94zM1740 1279q0 -58 -42 -94q-44 -36 -110 -36q-65 0 -110 36q-46 37 -46 94v154h308v-154z" />
</svg>