<svg xmlns="http://www.w3.org/2000/svg" xmlns:xlink="http://www.w3.org/1999/xlink" version="1.1" viewBox="-10 0 2068 2048">
   <path fill="currentColor"
d="M1023 62q-94 0 -173 54q-79 55 -112 150h-627v200h200l-300 712q-38 148 60 226q97 78 293.5 78t297.5 -78q99 -78 57 -226l-299 -712h318q52 132 185 184v1136h-912v200h2024v-200h-912v-1136q137 -47 185 -184h318l-299 712q-33 148 62 226q94 78 292 78q196 0 297 -78
q99 -78 57 -226l-299 -712h199v-200h-627q-33 -95 -112 -150q-79 -54 -173 -54zM1023 266q42 0 71 29t29 71t-29 72q-28 28 -71 28t-71 -28q-29 -30 -29 -72t29 -71t71 -29zM363 798l152 380h-304zM1683 798l152 380h-304z" />
</svg>