<svg xmlns="http://www.w3.org/2000/svg" xmlns:xlink="http://www.w3.org/1999/xlink" version="1.1" viewBox="-10 0 2068 2048">
   <path fill="currentColor"
d="M1936 1136q42 0 78 -32q34 -31 34 -80t-34 -80q-36 -32 -78 -32h-118v-683h118q44 0 78 -34t34 -80t-34 -80q-36 -35 -78 -35h-1824q-42 0 -77 35t-35 80t36 80q34 34 76 34h118v683h-118q-41 0 -76.5 32t-35.5 80t35.5 80t76.5 32h118v683h-118q-42 0 -76 34
q-36 35 -36 80t35 80t77 35h1824q42 0 78 -35q34 -34 34 -80t-34 -80t-78 -34h-118v-683h118zM1024 1477q-144 0 -242 -98t-98 -238q0 -92 46 -160q32 -59 192 -240l102 -117l112 128q150 170 182 229q48 69 48 160q0 139 -100 238q-98 98 -242 98z" />
</svg>