<svg xmlns="http://www.w3.org/2000/svg" xmlns:xlink="http://www.w3.org/1999/xlink" version="1.1" viewBox="-10 0 2058 2048">
   <path fill="currentColor"
d="M1222 565q0 -63 24 -145l5 -10h63l91 -256h82v-154h-927v154h83l91 256h63q29 49 29 155q0 35 -34 106q-17 34 -92 169q-134 235 -193 367q-101 230 -101 396v208q0 107 179 172q180 65 439 65t439 -65q179 -65 179 -172v-208q0 -166 -101 -396q-56 -124 -194 -367
q-65 -117 -91 -169q-34 -71 -34 -106zM1024 1338q-86 0 -147 -61t-61 -145q0 -83 61 -144t147 -61t147 61t61 144q0 84 -61 145t-147 61z" />
</svg>