<svg xmlns="http://www.w3.org/2000/svg" xmlns:xlink="http://www.w3.org/1999/xlink" version="1.1" viewBox="-10 0 2066 2048">
   <path fill="currentColor"
d="M1511 1512h-324v213h324v323h212v-323h323v-213h-323v-323h-212v323zM970 1618q0 -177 86 -326t235 -235t326 -86q118 0 232 46q57 -171 76 -359q19 -157 15 -319q-5 -107 -20 -223l-10 -85l-106 -16q-132 -15 -273 -15q-389 0 -693 122q-423 166 -636 546
q-259 476 -182 1254q243 20 348 20q365 0 647 -91q-45 -111 -45 -233zM429 1512q1 -15 4.5 -54.5t5.5 -61.5q14 -133 61 -263q59 -180 162 -324q131 -172 323 -263q220 -116 526 -116l-71 30q-87 39 -187 101q-126 81 -258 198q-155 139 -288 308q-158 205 -278 445z" />
</svg>