<svg xmlns="http://www.w3.org/2000/svg" xmlns:xlink="http://www.w3.org/1999/xlink" version="1.1" viewBox="-10 0 2068 2048">
   <path fill="currentColor"
d="M308 1535v-513h512v513h-512zM408 1127v307h306v-307h-306zM1022 461h512v206h-512v-206zM206 1842q-86 0 -146 -60t-60 -146v-1430q0 -86 60 -146t146 -60h1430q86 0 146 60t60 146v629q-77 -15 -154 -15h-52v-614h-1430v1430h834q25 108 86 206h-920zM820 307v513h-512
v-513h512zM714 715v-307h-306v307h306zM1636 921v154q172 0 292 120t120 287q0 125 -72 226l-110 -111q28 -52 28 -115q0 -105 -76 -180q-76 -74 -182 -74v154l-232 -231zM1636 2048v-153q-168 0 -288 -120t-120 -293q0 -121 66 -225l116 110q-30 58 -30 115q0 106 76 183
q74 76 180 76v-153l230 230z" />
</svg>