<svg xmlns="http://www.w3.org/2000/svg" xmlns:xlink="http://www.w3.org/1999/xlink" version="1.1" viewBox="-10 0 2068 2048">
   <path fill="currentColor"
d="M1335 712v-412q5 -120 72 -226q-288 -115 -587 -52q-298 62 -517 280q-218 218 -281 518q-62 299 53 582q105 -66 225 -66h412v412q0 121 -67 226q284 115 583 52.5t517 -280.5q217 -217 280 -518t-52 -588q-105 68 -225 72h-413zM923 410h154v154h153v154h-307v-308z
M564 1230v-154h-154v-152h307v306h-153zM1422 1422q-125 125 -295 154q-170 28 -328 -40l738 -738q68 158 36 328q-31 172 -151 296zM295 1954q-81 0 -141 -60t-60 -146t60 -146t141 -60h206v206q0 82 -57 142t-144 60zM1748 98q81 0 141 60t60 144t-60 144t-141 60h-207
v-206q0 -82 60 -142t147 -60z" />
</svg>