<svg xmlns="http://www.w3.org/2000/svg" xmlns:xlink="http://www.w3.org/1999/xlink" version="1.1" viewBox="-10 0 2068 2048">
   <path fill="currentColor"
d="M510 1327l624 -625l212 211l-626 625h-210v-211zM1024 1846q220 0 410 -111q190 -110 300 -300q112 -191 112 -411t-112 -411q-111 -191 -299.5 -301t-411 -110t-411 110t-300.5 301q-110 191 -110 411t110 411q111 190 300 300q191 111 412 111zM1504 750l-100 106
l-212 -212l106 -101q14 -19 38 -19t38 19l130 130q20 15 20 38q0 24 -20 39zM1024 0q200 0 392 77q188 76 333.5 221t220.5 334q78 192 78 392t-78 392q-75 189 -220.5 334t-333.5 221q-192 77 -392 77t-392 -77q-188 -76 -333.5 -221t-220.5 -334q-78 -192 -78 -392
t78 -392q75 -189 220.5 -334t333.5 -221q192 -77 392 -77z" />
</svg>