<svg xmlns="http://www.w3.org/2000/svg" xmlns:xlink="http://www.w3.org/1999/xlink" version="1.1" viewBox="-10 0 2068 2048">
   <path fill="currentColor"
d="M2048 654q0 -179 -87 -329t-237 -237q-152 -88 -330 -88q-160 0 -297.5 74t-228.5 203q-91 127 -114 281h-426q-42 0 -80 26q-38 25 -52 70l-196 558v741q0 38 30 67q28 28 66 28h92q40 0 66 -28q26 -29 26 -67v-92h1114v92q0 39 28 67t68 28h92q40 0 66 -28
q26 -29 26 -67v-715q170 -79 272 -235q102 -157 102 -349zM328 698h422q10 123 58 228q50 106 134 190h-754zM328 1582q-58 0 -99 -41t-41 -98t42 -98q42 -42 98 -42t98 42q40 41 40 98t-41 98t-97 41zM1352 1582q-63 0 -102 -41q-38 -42 -38 -98t39 -98t98 -42t101 42
q40 41 40 98t-41 98t-97 41zM1394 1116q-190 0 -325 -135t-135 -327q0 -191 134 -329q135 -137 326 -137q194 0 330 137q136 139 136 329q0 192 -136 327q-137 135 -330 135zM1442 676l266 157l-70 113l-334 -201v-466h138v397z" />
</svg>