<svg xmlns="http://www.w3.org/2000/svg" xmlns:xlink="http://www.w3.org/1999/xlink" version="1.1" viewBox="-10 0 2068 2048">
   <path fill="currentColor"
d="M1744 413l102 97l202 -510l-510 202l96 101l-182 187q-235 -206 -562 -283q-251 -54 -516 -39q-137 9 -268 34l-106 29l48 197l82 -19l702 697l-328 327h-196l-308 307l202 106l106 202l308 -308v-197l326 -327l696 702l-18 82l196 48l30 -106q23 -124 32 -269
q15 -267 -38 -514q-76 -327 -284 -563zM254 385q247 -34 472 4q343 48 576 246l-398 403zM1662 1793l-652 -649l402 -399q198 232 246 577q38 228 4 471z" />
</svg>