<svg xmlns="http://www.w3.org/2000/svg" xmlns:xlink="http://www.w3.org/1999/xlink" version="1.1" viewBox="-10 0 2058 2048">
   <path fill="currentColor"
d="M1592 1301q152 0 261 109t109 264q0 156 -109 265t-262 109t-262 -109t-109 -265q0 -155 109 -264t263 -109zM1592 1489q-80 0 -134 54q-54 55 -54 131t55 131t133 55t132 -55q54 -54 54 -131t-54 -131t-132 -54zM478 1257q9 -11 18 -21.5t18 -21.5q37 -55 60 -131
q36 -107 36 -219q-26 -159 34 -325q62 -168 196 -301q134 -132 302 -194q165 -61 322 -37t264.5 131t131.5 264q23 156 -36 325q-57 166 -194 301q-134 133 -302 195q-165 60 -322 34q-116 0 -222 35q-55 20 -130 62l-44 34l-394 398l-130 -131zM1596 271q-72 -75 -180 -85
q-109 -11 -226 37q-118 48 -216.5 146t-145.5 216q-48 117 -38 227q11 108 84 181q71 71 180.5 84.5t227.5 -33.5q115 -47 216 -147q98 -98 146 -218q47 -119 36 -229q-10 -107 -84 -179z" />
</svg>