<svg xmlns="http://www.w3.org/2000/svg" xmlns:xlink="http://www.w3.org/1999/xlink" version="1.1" viewBox="-10 0 2058 2048">
   <path fill="currentColor"
d="M1148 933v-327l205 -205q58 -58 68 -135q11 -78 -29 -148q-34 -52 -87 -85t-113 -33q-36 0 -61 9q-76 23 -120 85q-45 63 -45 142v300l-292 292q-118 118 -151 281t33 321q53 131 161 217q109 86 249 109v57q0 21 -16 35q-14 13 -32 13h-140v187h140q96 0 163 -69
q67 -68 67 -166v-44q98 0 186 -56q87 -55 145 -159q57 -102 57 -229q0 -105 -52 -196q-53 -92 -142 -144t-194 -52zM1148 236q0 -36 33 -46q32 -10 50 24q9 13 7 28q-1 14 -16 29l-74 78v-113zM966 976q-65 43 -116 114q-48 67 -67 144l183 47v284q-85 -18 -146 -74
q-65 -58 -94 -135q-44 -102 -22 -207q23 -109 100 -186l162 -170v183zM1148 1582v-470q83 0 144 65t61 148q0 113 -70 192q-61 65 -135 65z" />
</svg>