<svg xmlns="http://www.w3.org/2000/svg" xmlns:xlink="http://www.w3.org/1999/xlink" version="1.1" viewBox="-10 0 2068 2048">
   <path fill="currentColor"
d="M238 1154l-64 -130h452l-52 -130h-420l-64 -128h670l-52 -130h-630l-78 -130h324q0 -72 50 -122t124 -50h1032v346h260l258 344v432h-174q0 105 -74 182q-76 76 -182 76q-108 0 -184 -76t-76 -182h-344q0 105 -74 182q-76 76 -184.5 76t-183.5 -76q-74 -76 -74 -182h-174
v-302h-86zM1616 1586q57 0 92 -38q36 -40 36 -94t-36 -90q-36 -38 -90 -38q-53 0 -94 38q-38 35 -38 90q0 56 38 94t92 38zM1744 810h-214v214h384zM756 1586q52 0 90 -38t38 -94q0 -55 -38 -90q-40 -38 -90.5 -38t-91.5 38q-38 35 -38 90q0 56 38 94t92 38z" />
</svg>