<svg xmlns="http://www.w3.org/2000/svg" xmlns:xlink="http://www.w3.org/1999/xlink" version="1.1" viewBox="-10 0 2058 2048">
   <path fill="currentColor"
d="M840 654h182v558h-182v-558zM1210 0h-558v188h558v-188zM930 1769q-178 0 -326 -87t-236 -237q-86 -150 -86 -327t86 -327q88 -150 236 -237t326 -87q160 0 300 74q141 74 232 202q91 129 114 286q105 5 190 43q-17 -269 -182 -475l130 -135q-67 -75 -130 -130l-130 135
q-114 -90 -244 -138q-137 -50 -280 -50q-226 0 -418 114q-193 115 -304 305q-114 193 -114 418q0 226 114 420q112 194 304 305q194 112 418 112q58 0 92 -5q-51 -80 -74 -179h-18zM1954 1630q0 175 -122 296q-122 122 -296 122t-296 -122t-122 -296t122 -296t296 -122
t296 122q122 121 122 296zM1676 1870l-380 -379q-38 61 -38 139q0 115 80 196q81 83 198 83q78 0 140 -39zM1814 1630q0 -117 -82 -198q-83 -81 -196 -81q-78 0 -140 39l380 379q38 -62 38 -139z" />
</svg>