<svg xmlns="http://www.w3.org/2000/svg" xmlns:xlink="http://www.w3.org/1999/xlink" version="1.1" viewBox="-10 0 2058 2048">
   <path fill="currentColor"
d="M1673 1316v593q0 58 -41 96q-42 39 -98 43h-601q-57 0 -96 -43l-453 -388l69 -74q26 -26 66 -26h22l296 157v-929q0 -40 28 -65q29 -26 68 -26t65 26t26 65v-187q0 -39 26 -65t65 -26t68 26q28 25 28 65v466l384 170q34 18 56 50t22 72zM1115 188q157 0 266 109t109 261
q0 104 -50 190q-49 84 -137 133v-114q91 -82 91 -202q0 -122 -80 -203q-81 -83 -199 -83q-91 0 -165 57q-75 58 -100 144q-87 26 -142 100q-54 74 -54 165q0 128 91 210v113q-88 -49 -137 -133q-50 -86 -50 -192q0 -107 61 -198t157 -139q48 -96 139 -157t200 -61zM1115 0
q151 0 281 77q131 78 203 204q74 130 74 277q0 146 -65 266q-67 123 -179 196l-100 -48q115 -58 183 -168q69 -111 69 -242q0 -130 -63 -237q-63 -106 -170 -168q-106 -61 -233 -61q-126 0 -237 66q-112 67 -168 174q-113 62 -178 170q-66 110 -66 239q0 139 77 255
q77 117 202 173v100q-167 -62 -268 -205q-102 -144 -102 -323q0 -148 72 -274t194 -200q75 -124 200 -197q127 -74 274 -74z" />
</svg>