<svg xmlns="http://www.w3.org/2000/svg" xmlns:xlink="http://www.w3.org/1999/xlink" version="1.1" viewBox="-10 0 2058 2048">
   <path fill="currentColor"
d="M444 946q118 230 300 412q183 184 412 301l238 -238q44 -45 110 -25q182 60 384 60q39 0 74 31q32 30 32 76v379q0 40 -33 73t-73 33q-501 0 -924 -253q-414 -243 -658 -657q-252 -426 -252 -926q0 -40 33 -73t73 -33h380q46 0 76 33t30 73q0 204 60 385q19 66 -26 111z
M1510 0q-202 0 -344 142q-142 141 -142 343q0 203 142 344q142 142 344 142t344 -142q140 -141 140 -344q0 -202 -140 -343q-142 -142 -344 -142zM1510 809q-138 0 -231 -96t-93 -228q0 -91 46 -161l440 440q-71 45 -162 45zM1788 647l-440 -440q70 -45 162 -45
q136 0 230 93q94 94 94 230q0 90 -46 162z" />
</svg>