<svg xmlns="http://www.w3.org/2000/svg" xmlns:xlink="http://www.w3.org/1999/xlink" version="1.1" viewBox="-10 0 2058 2048">
   <path fill="currentColor"
d="M1758 1836q0 88 -62 150t-146 62h-1052q-84 0 -146 -62q-60 -61 -60 -150v-733h-212v-212h1888v212h-210v733zM606 0q-148 0 -251 103t-103 249t103 249t251 103h158q63 0 112 30h212q-44 -84 -132 -133q-90 -50 -192 -50h-158q-79 0 -138 -64q-58 -65 -58 -145
q0 -83 56 -133q56 -51 140 -51v-158zM1112 54q0 80 -56 136t-136 56v158q149 0 262 93q113 94 148 237h156q-19 -142 -106 -256q-86 -113 -214 -178q104 -104 104 -246h-158z" />
</svg>