<svg xmlns="http://www.w3.org/2000/svg" xmlns:xlink="http://www.w3.org/1999/xlink" version="1.1" viewBox="-10 0 2068 2048">
   <path fill="currentColor"
d="M1946 1231v101q0 144 -74 264q-76 121 -200 188l68 264h-202l-54 -202h-922l-52 202h-202l66 -264q-123 -67 -198 -188q-74 -118 -74 -264v-101h-102v-207h1846v-716q0 -44 -31 -75t-71 -31q-38 0 -66 24q-31 25 -40 58q102 87 102 226h-616q0 -126 91 -217t217 -91h20
q32 -91 112 -147q79 -55 176 -55q130 0 219 89t89 219v923h-102zM1740 1231h-1432v101q0 129 89 218t219 89h816q130 0 219 -89t89 -218v-101z" />
</svg>