<svg xmlns="http://www.w3.org/2000/svg" xmlns:xlink="http://www.w3.org/1999/xlink" version="1.1" viewBox="-10 0 2068 2048">
   <path fill="currentColor"
d="M818 101q-170 0 -290 120t-120 291t120 291t291 120t291 -120t120 -291t-120 -291t-292 -120zM818 308q86 0 146 60t60 144t-60 144t-144 60t-144 -60t-60 -144t60 -144t142 -60zM818 1024q-150 0 -332 48q-203 51 -336 135q-150 101 -150 230v308h970q-38 -96 -48 -197
h-730v-111q0 -33 96 -86q98 -54 232 -92q154 -38 298 -38q77 0 152 14q44 -101 112 -177q-154 -34 -264 -34zM1586 1024q-192 0 -327 135t-135 326q0 192 135 327t327 135t327 -135t135 -327q0 -191 -135 -326t-327 -135zM1586 1178q130 0 218 91q90 92 90 216q0 87 -44 154
l-418 -418q67 -43 154 -43zM1322 1332l418 418q-67 43 -154 43q-124 0 -216 -89q-92 -88 -92 -219q0 -86 44 -153z" />
</svg>