<svg xmlns="http://www.w3.org/2000/svg" xmlns:xlink="http://www.w3.org/1999/xlink" version="1.1" viewBox="-10 0 2058 2048">
   <path fill="currentColor"
d="M971 2048v-476q-101 159 -355 255l19 -53q29 -58 62 -115q53 -72 116 -125q-266 53 -611 -101l77 -34q95 -39 197 -63q140 -24 269 -9q-331 -202 -523 -702l77 24q86 37 182 87q131 76 226 158q129 115 207 245q-96 -221 -63 -519q19 -210 96 -437q42 -111 77 -183
q168 375 183 702q9 240 -68 433q144 -240 428 -399q150 -79 260 -111q-192 499 -524 702q129 -15 269 9q102 24 197 63l77 34q-345 154 -610 101q89 70 153 187q29 58 44 106q-256 -96 -356 -255v476h-106z" />
</svg>