<svg xmlns="http://www.w3.org/2000/svg" xmlns:xlink="http://www.w3.org/1999/xlink" version="1.1" viewBox="-10 0 2068 2048">
   <path fill="currentColor"
d="M1024 1846h-1024v-207h586q-56 -215 -214 -375q-155 -158 -372 -211q107 -29 202 -29q226 0 414 111q187 111 298 298q110 186 110 413zM2048 1053q-107 -29 -202 -29q-221 0 -412 111q-192 112 -296 293q51 116 70 214q22 108 22 204h818v-207h-592q64 -217 218 -375
q156 -158 374 -211zM1398 923q57 -157 166 -291q108 -131 252 -223q-216 9 -398 120q-184 111 -288 295q-106 186 -106 407q149 -197 374 -308zM966 702q-68 -167 -192 -298q-124 -129 -294 -202q110 146 174 324q62 176 62 363l-4 63q56 33 124 86q34 -172 130 -336z" />
</svg>