<svg xmlns="http://www.w3.org/2000/svg" xmlns:xlink="http://www.w3.org/1999/xlink" version="1.1" viewBox="-10 0 2058 2048">
   <path fill="currentColor"
d="M564 58q95 -76 194 -50t172 127q74 103 98 250q56 0 103 28q88 -100 70 -196q-18 -95 36 -161t138 -54q101 16 188 135q76 96 52 194t-128 172t-252 98q0 57 -28 104q103 88 198 70q94 -18 160 36t54 138q-17 101 -136 192q-96 72 -194 48t-172 -128q-73 -103 -97 -248
q-51 0 -104 -32q-88 103 -70 198q18 94 -36 160t-138 54q-99 -12 -188 -132q-76 -95 -52 -196q24 -100 128 -172t252 -96q0 -56 28 -108q-104 -84 -198 -66t-160 -36t-54 -138q16 -100 136 -191zM428 1364h168q72 0 122 50t50 122v512h-172v-172h-168v172h-171v-512
q0 -72 50 -122t121 -50zM428 1536v172h168v-172h-168zM1103 1364h176l-251 684h-176zM1535 1364h256v172h-256v340h256v172h-256q-72 0 -122 -50t-50 -122v-340q0 -72 50 -122t122 -50z" />
</svg>