<svg xmlns="http://www.w3.org/2000/svg" xmlns:xlink="http://www.w3.org/1999/xlink" version="1.1" viewBox="-10 0 2058 2048">
   <path fill="currentColor"
d="M732 401l-122 -126q29 -117 128 -196t230 -79q152 0 261 109t109 266v632l-140 -139v-493q0 -97 -68 -165q-68 -70 -162 -70q-96 0 -166 70t-70 165v26zM1616 467h-140v679l140 140v-819zM2000 1905l-118 117l-300 -300q-57 143 -188 235q-130 91 -288 91
q-140 0 -256 -69q-117 -69 -188 -188q-70 -119 -70 -257v-797l-544 -549l118 -118zM1010 1351q0 35 28 63q30 29 66 29t66 -29q28 -28 28 -63v-13l-188 -183v196zM1468 1613l-156 -157q-30 55 -86 91q-54 35 -120 35q-97 0 -166 -67q-68 -68 -68 -164v-335l-140 -140v658
q0 157 109 266t265 109q132 0 234 -85q102 -86 128 -211zM872 541l138 139v-213h-138v74z" />
</svg>