<svg xmlns="http://www.w3.org/2000/svg" xmlns:xlink="http://www.w3.org/1999/xlink" version="1.1" viewBox="-10 0 2068 2048">
   <path fill="currentColor"
d="M578 854q0 40 5 66l24 44q5 10 5 20t-15 18l-43 30q-8 4 -17 4q-6 0 -21 -12q-15 -13 -24 -32l-19 -38q-81 96 -202 96q-86 0 -137 -50q-50 -50 -50 -132q0 -81 65 -136.5t165 -55.5q25 0 70 4q27 3 79 16v-48q0 -78 -31 -108q-32 -32 -108 -32q-34 0 -79 10
q-33 7 -70 18l-33 10q-15 0 -15 -18v-34q0 -14 5 -22t19 -12q33 -24 84 -36t108 -12q121 0 178 56q57 55 57 170v216zM300 960q34 0 70 -12q34 -12 64 -46q21 -21 29 -44l5 -86q-13 -4 -38 -4l-24 -6l-68 -4q-68 0 -100 26q-34 27 -34 76q0 52 24 76t72 24zM847 1032
q-14 0 -24 -10q-9 -10 -14 -20l-164 -532l-4 -24q0 -20 19 -20h62q24 0 31 8q8 7 12 30l116 448l105 -448q4 -21 15 -30q9 -8 24 -8h57q20 0 27 8q8 7 12 30l110 456l115 -456q5 -18 15 -28q9 -10 24 -10h67q14 0 14 20l-168 556q-7 17 -17 26q-7 8 -26 8h-58q-14 0 -26 -9
t-12 -25l-106 -442l-105 438q-4 16 -15 26q-9 8 -28 8h-58zM1725 1050q-57 0 -108 -12q-49 -11 -74 -26q-19 -9 -24 -20q-5 -10 -5 -18v-34q0 -20 15 -20h14l19 6q30 17 75 26q44 8 79 8q67 0 100 -24q34 -25 34 -64q0 -28 -19 -48q-17 -17 -67 -32l-101 -34
q-75 -24 -108 -70q-31 -45 -31 -98q0 -42 17 -74t50 -56t72 -36t81 -12h48l44 10l38 8l29 16q10 6 21 16q8 8 8 22v34q0 18 -12 18q-10 0 -32 -4q-56 -28 -129 -28q-59 0 -91 18q-34 21 -34 62q0 30 19 48q20 20 77 40l96 28q74 19 106 62q33 44 33 102q0 38 -19 76t-48 60
q-28 20 -74 36q-45 14 -99 14zM1850 1382q-164 120 -393 192q-216 62 -432 62q-291 0 -552 -100q-261 -102 -461 -284q-18 -14 -7 -28t26 -6q228 131 485 200q264 70 528 70q408 0 777 -160q28 -8 43 12q15 22 -14 42zM1946 1276q-29 -33 -254 -10h-10q-14 5 -17 -6
q-3 -13 12 -22q55 -42 144 -58q72 -8 139 0q68 10 80 24q12 15 4 82q-7 68 -40 134q-31 74 -92 124q-17 11 -24 8q-8 -2 -4 -16l4 -6q87 -214 58 -254z" />
</svg>