<svg xmlns="http://www.w3.org/2000/svg" xmlns:xlink="http://www.w3.org/1999/xlink" version="1.1" viewBox="-10 0 2068 2048">
   <path fill="currentColor"
d="M2048 1904l-146 144l-320 -322q-96 68 -184 96q-263 91 -524 10q-153 -43 -288 -154l-326 327q-44 43 -109 43t-108 -43t-43 -108q0 -66 44 -109l346 -346l274 -53q111 141 290 197q183 58 362 -4q51 -16 88 -34l-832 -832l-182 183l-288 -288l508 -510l432 144l-326 327
l850 851q22 -21 54 -58q114 -147 122 -358q7 -209 -94 -392q-187 -347 -624 -615q225 76 408 207q226 158 342 331q153 214 172 467q9 129 -26 259q-36 129 -108 236q-18 38 -58 82l-14 14z" />
</svg>