<svg xmlns="http://www.w3.org/2000/svg" xmlns:xlink="http://www.w3.org/1999/xlink" version="1.1" viewBox="-10 0 2068 2048">
   <path fill="currentColor"
d="M1588 564q-93 0 -176 34q-85 35 -148 98l-600 532q-84 84 -204 84t-204 -84t-84 -204t84 -204t204 -84t208 88l96 84l132 -112l-108 -96q-66 -63 -152 -100q-84 -36 -176 -36q-123 0 -230 62q-106 62 -168 168q-62 107 -62 230t62 230q62 106 168 168q107 62 230 62
q93 0 176 -34q85 -35 148 -98l600 -532q84 -84 204 -84t204 84t84 204t-84 204t-204 84t-208 -88l-100 -84l-128 112l108 96q136 136 328 136q123 0 230 -62q106 -62 168 -168q62 -107 62 -230t-62 -230q-62 -106 -168 -168q-107 -62 -230 -62z" />
</svg>