<svg xmlns="http://www.w3.org/2000/svg" xmlns:xlink="http://www.w3.org/1999/xlink" version="1.1" viewBox="-10 0 2058 2048">
   <path fill="currentColor"
d="M818 1332l514 -308l-514 -308v616zM1788 1125l216 168q34 24 10 67l-207 356q-20 34 -62 19l-255 -100q-98 70 -173 100l-38 270q-9 43 -48 43h-413q-40 0 -49 -43l-38 -270q-92 -41 -173 -100l-255 100q-42 15 -62 -19l-207 -356q-24 -43 10 -67l216 -168
q-5 -27 -5 -101t5 -101l-216 -168q-34 -25 -10 -68l207 -355q20 -34 62 -20l255 101q101 -73 173 -101l38 -269q9 -43 49 -43h413q39 0 48 43l38 269q88 39 173 101l255 -101q42 -14 62 20l207 355q24 43 -10 68l-216 168q5 27 5 101t-5 101z" />
</svg>