<svg xmlns="http://www.w3.org/2000/svg" xmlns:xlink="http://www.w3.org/1999/xlink" version="1.1" viewBox="-10 0 2068 2048">
   <path fill="currentColor"
d="M1856 1490q-18 118 -108 198q-91 80 -214 80h-140v-186h280v-118q4 -131 0 -196q-9 -103 -44 -156q-48 -104 -184 -170q-88 -38 -252 -80l-82 -22q-66 0 -124.5 -58t-71.5 -128h-262q-21 0 -34 -16q-14 -14 -14 -32.5t14 -33.5q13 -14 34 -14h232v-92h-232q-22 0 -35 -13
t-13 -33t13 -33t35 -13h232v-278h-790v1486h280v186h-376v184h1534q202 0 346 -132q145 -133 168 -330h-192zM1212 1768h-654v-186h654v186z" />
</svg>