<svg xmlns="http://www.w3.org/2000/svg" xmlns:xlink="http://www.w3.org/1999/xlink" version="1.1" viewBox="-10 0 2068 2048">
   <path fill="currentColor"
d="M1860 1212v-934h-1672v934h1672zM1860 96q78 0 134 54q54 54 54 128v1116q0 80 -54 134t-134 54h-648l182 278v92h-740v-92l184 -278h-650q-78 0 -132 -54q-56 -56 -56 -134v-1116q0 -72 55 -127t133 -55h1672zM280 374h1024v462h-1024v-462zM1394 374h376v184h-376v-184
zM1770 654v462h-376v-462h376zM280 932h466v184h-466v-184zM838 932h466v184h-466v-184z" />
</svg>