<svg xmlns="http://www.w3.org/2000/svg" xmlns:xlink="http://www.w3.org/1999/xlink" version="1.1" viewBox="-10 0 2068 2048">
   <path fill="currentColor"
d="M112 0q-48 0 -80 32t-32 80q0 528 262 976q256 442 698 699q449 261 976 261q48 0 80 -32t32 -80v-400q0 -53 -32 -83q-31 -29 -80 -29q-224 0 -410 -69q-59 -16 -112 21l-252 251q-234 -117 -429 -312t-321 -440l250 -251q26 -26 31.5 -56t-9.5 -56q-60 -210 -60 -400
q0 -50 -28 -80q-31 -32 -84 -32h-400zM1830 59l-236 234l-240 -234l-160 160l240 234l-240 240l160 160l240 -240l236 240l160 -160l-236 -240l236 -234z" />
</svg>