<svg xmlns="http://www.w3.org/2000/svg" xmlns:xlink="http://www.w3.org/1999/xlink" version="1.1" viewBox="-10 0 2068 2048">
   <path fill="currentColor"
d="M1760 772q10 -39 10 -72t-10 -72l288 70zM1272 1112l80 300l74 -300q-35 4 -78 4q-41 0 -76 -4zM998 920l-456 457l-66 -65l-476 471l266 265l472 -475l-66 -65l456 -457q-81 -47 -130 -131zM1420 288l-68 -288l-74 288q39 -9 70 -9q34 0 72 9zM654 698l284 74
q-4 -35 -4 -72t4 -72zM1638 841q36 -70 36 -143q0 -74 -36 -144l222 -366l-366 222q-70 -35 -142 -35q-74 0 -144 35l-370 -222l222 366q-36 70 -36 144q0 135 96 231q96 95 232 95q74 0 142 -34l366 222z" />
</svg>