<svg xmlns="http://www.w3.org/2000/svg" xmlns:xlink="http://www.w3.org/1999/xlink" version="1.1" viewBox="-10 0 2068 2048">
   <path fill="currentColor"
d="M0 130l134 -130l1914 1914l-130 134l-278 -283v77h-206v-206h76l-1098 -1099v77h-206v-206h78zM1946 0q44 0 73 29t29 72v105h-206v-206h104zM1434 206v-206h206v206h-206zM1026 206v-206h202v206h-202zM614 206v-206h206v206h-206zM1026 1842v-206h202v206h-202z
M614 1842v-206h206v206h-206zM306 1842q-42 0 -71 -29t-29 -72v-105h206v206h-106zM206 1228h206v206h-206v-206zM2048 1228v206h-206v-206h206zM206 820h206v202h-206v-202zM2048 820v202h-206v-202h206zM2048 408v206h-206v-206h206z" />
</svg>