<svg xmlns="http://www.w3.org/2000/svg" xmlns:xlink="http://www.w3.org/1999/xlink" version="1.1" viewBox="-10 0 2058 2048">
   <path fill="currentColor"
d="M1024 1170q-96 0 -184 -36q-90 -36 -158 -105q-67 -67 -108 -158q-38 -89 -38 -185h196q0 117 84 205q84 87 208 87t208 -87t84 -205h198q0 130 -68 244q-65 111 -178 176q-111 64 -244 64zM1024 197q124 0 208 84t84 208h-584q0 -123 84 -208q84 -84 208 -84zM1706 489
h-192q0 -130 -68 -244q-66 -114 -178 -179q-112 -66 -244 -66t-244 66q-112 65 -178 179q-66 113 -66 244h-192q-82 0 -140 57q-58 58 -58 140v1170q0 77 58 135q58 57 140 57h1362q82 0 139 -57t57 -135v-1170q0 -83 -57 -140t-139 -57z" />
</svg>