<svg xmlns="http://www.w3.org/2000/svg" xmlns:xlink="http://www.w3.org/1999/xlink" version="1.1" viewBox="-10 0 2068 2048">
   <path fill="currentColor"
d="M202 308q-82 0 -142 60t-60 142v1028q0 82 60 142t142 60h1644q82 0 142 -60t60 -142v-1028q0 -82 -60 -142t-142 -60h-1644zM254 510q44 0 72 31q30 32 30 74q0 43 -29 72t-72 29t-72 -29t-29 -72q0 -42 28 -74q29 -31 72 -31zM510 510h1336v1028h-1336v-1028zM616 615
v818h306v-818h-306zM1024 615v818h308v-818h-308zM1432 615v818h308v-818h-308zM716 716h102v101h-102v-101zM1124 716h106v101h-106v-101zM1538 716h100v101h-100v-101z" />
</svg>