<svg xmlns="http://www.w3.org/2000/svg" xmlns:xlink="http://www.w3.org/1999/xlink" version="1.1" viewBox="-10 0 2058 2048">
   <path fill="currentColor"
d="M830 686h192v585h-192v-585zM1022 1847q-50 9 -96 9q-187 0 -342 -91t-248 -250q-90 -157 -90 -342q0 -186 90 -343q92 -158 248 -249q156 -92 342 -92q174 0 324 82q151 82 248 224q57 -13 110 -13q51 0 108 13q-40 -90 -104 -169l136 -141q-72 -82 -136 -138l-138 142
q-113 -91 -256 -144q-139 -52 -292 -52q-238 0 -438 118q-202 119 -320 320q-120 202 -120 439q0 236 120 441q117 202 320 320q200 117 438 117q51 0 120 -9q-24 -61 -24 -114v-78zM1218 0h-584v197h584v-197zM1882 1463h-422v-242q0 -56 44 -92t106 -36t102 36
q42 36 42 92v50h128v-50q0 -101 -86 -172q-84 -71 -188 -71q-105 0 -188 71q-82 70 -82 172v242q-46 0 -82 36q-38 37 -38 83v343q0 49 37 86t83 37h534q51 0 90 -34q38 -34 38 -80v-343q0 -50 -36 -89t-82 -39z" />
</svg>