<svg xmlns="http://www.w3.org/2000/svg" xmlns:xlink="http://www.w3.org/1999/xlink" version="1.1" viewBox="-10 0 2068 2048">
   <path fill="currentColor"
d="M654 1116q114 0 197 83t83 198t-84 196q-82 81 -198 81q-114 0 -195 -81t-81 -196t80 -198q82 -83 198 -83zM654 1303q-38 0 -68 29q-28 28 -28 65t28 65q30 29 66 29t66 -29q28 -28 28 -65t-28 -65q-30 -29 -64 -29zM816 310l70 69l352 -348q26 -31 66 -31q38 0 64 31
l658 658q22 21 22 61t-34 65l-344 349l68 70l-626 623q-88 91 -208 141q-121 50 -250 50q-179 0 -328.5 -87t-237.5 -237q-88 -152 -88 -329q0 -127 52 -251q49 -120 140 -207zM980 1726l494 -492l-658 -658l-492 492q-67 66 -100 150q-36 87 -36 177q0 127 64 233
q63 107 170 170q106 63 232 63q90 0 176 -35q84 -34 150 -100zM1308 345l134 130l-134 131l-132 -131zM1574 606l130 135l-130 131l-132 -131zM1822 745l-518 -518l-284 288l514 518z" />
</svg>