<svg xmlns="http://www.w3.org/2000/svg" xmlns:xlink="http://www.w3.org/1999/xlink" version="1.1" viewBox="-10 0 2058 2048">
   <path fill="currentColor"
d="M75 276l127 -126l1771 1771l-127 127l-173 -173q-40 23 -99 23q0 42 -30 70q-29 28 -70 28q-42 0 -71 -28q-30 -28 -30 -70h-600q0 42 -30 70q-29 28 -70 28q-42 0 -71 -28q-30 -28 -30 -70q-85 0 -141 -59t-56 -143v-1120zM825 1598h-150v-722l-103 -103v923h923
l-99 -98h-75v-75l-173 -173v248h-150v-398l-173 -174v572zM1148 698v146l-145 -146h145zM1321 698h150v469l-150 -150v-319zM1574 398q85 0 141 59t56 143v867l-197 -197v-670h-669l-202 -202h70v-300q0 -41 31 -70q29 -28 68 -28h403q38 0 67 28q31 29 31 70v300h201z
M923 150v248h300v-248h-300z" />
</svg>