<svg xmlns="http://www.w3.org/2000/svg" xmlns:xlink="http://www.w3.org/1999/xlink" version="1.1" viewBox="-10 0 2066 2048">
   <path fill="currentColor"
d="M974 392h-292l388 -392l392 392h-292v429q-111 70 -196 164v-593zM818 1364h-186l-68 -196h-310l-70 196h-182l310 -876h196zM522 1040l-114 -356l-110 356h224zM2046 976l-392 -392v292q-175 -5 -324 73q-151 78 -246 217q-97 140 -110 312q-113 40 -166 151
q-53 109 -12 223q40 114 150 167q109 52 224 11q114 -41 166 -150q53 -109 12 -224q-22 -63 -72 -109q-51 -48 -106 -69q17 -172 132 -278q88 -79 214 -110q72 -22 132 -22v292z" />
</svg>