<svg xmlns="http://www.w3.org/2000/svg" xmlns:xlink="http://www.w3.org/1999/xlink" version="1.1" viewBox="-10 0 2068 2048">
   <path fill="currentColor"
d="M2048 1925l-1924 -1925l-124 124l554 557l-252 252q-114 114 -154 263q-38 148 0.5 299t153.5 265q113 114 262 153t299.5 0t264.5 -153l252 -251l544 539zM338 1445q-27 -96 0 -197q28 -101 100 -178l256 -252l138 138zM942 572l-138 -142l188 -188q113 -114 262 -153
t299.5 0t264.5 153t154 263q38 149 0 300q-39 151 -154 265l-186 192l-138 -142l188 -187q114 -114 114 -277q0 -162 -114 -276q-116 -115 -276 -115q-162 0 -278 115z" />
</svg>