<svg xmlns="http://www.w3.org/2000/svg" xmlns:xlink="http://www.w3.org/1999/xlink" version="1.1" viewBox="-10 0 2068 2048">
   <path fill="currentColor"
d="M204 1694h620v208h-620q-82 0 -143 -61t-61 -147v-1442q0 -88 62 -148q60 -60 142 -60h1238l416 410v224l-208 202v-338l-290 -290h-1156v1442zM1240 764v-410h-930v410h930zM1902 1002q-18 -14 -40.5 -14t-41.5 14l-102 106l214 208l102 -102q14 -14 14 -38t-14 -38z
M1032 1792v212h212l624 -624l-212 -214zM1240 1282q0 -129 -92 -220q-92 -90 -220 -90t-218 90t-90 220q0 132 89 221t221 89h10l300 -294v-16z" />
</svg>