<svg xmlns="http://www.w3.org/2000/svg" xmlns:xlink="http://www.w3.org/1999/xlink" version="1.1" viewBox="-10 0 2058 2048">
   <path fill="currentColor"
d="M1024 0q-43 0 -80 24l-746 429q-38 25 -58 61q-22 38 -22 76v868q0 38 22 76q20 36 58 61l194 108q68 34 108 43q27 5 66 5q105 0 163.5 -62t58.5 -170v-854q0 -9 -7 -16t-17 -7h-94q-24 0 -24 23v854q0 57 -48 85q-50 29 -126 -9l-208 -118q-8 -9 -8 -19v-868
q0 -14 8 -19l750 -434q10 -5 20 0l750 434q8 5 8 19v868q0 10 -8 19l-750 434q-10 5 -24 0l-188 -118q-15 -5 -20 0h-4q-65 39 -108 52q-34 9 4 33l250 146q37 24 80 24t80 -24l746 -429q38 -25 58 -61q22 -38 22 -76v-868q0 -38 -22 -76q-20 -36 -58 -61l-746 -429
q-37 -24 -80 -24zM1226 623q-159 0 -252 64q-92 63 -92 177q0 112 90 165q76 47 242 63q168 16 226 45q42 20 42 62q0 65 -54 94q-54 28 -172 28q-143 0 -200 -37q-46 -33 -56 -114q-4 -19 -24 -19h-98q-20 0 -20 24q0 117 76 184q100 90 322 90q178 0 274 -66
q98 -67 98 -184q0 -118 -86 -170q-71 -47 -254 -71q-112 -13 -170 -26q-53 -12 -68.5 -28t-15.5 -45q0 -47 32 -71q43 -38 158 -38q114 0 166 31q48 29 68 106q4 19 24 19h94q10 0 17 -7t7 -17q-14 -132 -104 -195q-92 -64 -270 -64z" />
</svg>