<svg xmlns="http://www.w3.org/2000/svg" xmlns:xlink="http://www.w3.org/1999/xlink" version="1.1" viewBox="-10 0 2068 2048">
   <path fill="currentColor"
d="M2004 1452l-200 196l200 200l-130 130l-200 -200l-196 200l-132 -130l196 -200l-196 -196l132 -132l196 196l200 -196zM2048 810l-4 32l-92 322q-126 -74 -276 -74q-151 0 -280 76q-127 75 -204 204q-76 130 -76 278q0 94 34 186h-730q-54 0 -96 -28q-46 -29 -70 -72
l-244 -880l-10 -44q0 -34 29 -63t67 -29h424l430 -610q26 -38 74 -38t78 38l428 610h422q38 0 68 30q28 28 28 62zM1212 1276q0 -78 -54 -132t-133 -54t-133 54t-54 133t54 133t132 54t134 -54q54 -54 54 -134zM1304 718l-280 -396l-278 396h558z" />
</svg>