<svg xmlns="http://www.w3.org/2000/svg" xmlns:xlink="http://www.w3.org/1999/xlink" version="1.1" viewBox="-10 0 2058 2048">
   <path fill="currentColor"
d="M134 0h252v2048h-252v-2048zM1469 1150h-84l-125 -126l125 -126h84q134 0 246.5 -77t163.5 -201q51 -123 27 -257q-24 -135 -120 -231t-230 -123t-260 27t-201 165t-75 248h258q0 -77 57 -134t134 -57q78 0 135 57t57 134q0 78 -57 135t-135 57h-185l-258 257h-125v-898
h-258v2048h258v-898h125l258 257h185q78 0 135 57t57 135t-57 135t-135 57q-77 0 -134 -57t-57 -135h-258q0 186 132 318q131 131 317 131t314 -131q129 -132 129 -318q0 -185 -129 -317t-314 -132z" />
</svg>