<svg xmlns="http://www.w3.org/2000/svg" xmlns:xlink="http://www.w3.org/1999/xlink" version="1.1" viewBox="-10 0 2058 2048">
   <path fill="currentColor"
d="M1740 1125v923h-1432v-923q0 -139 67 -257q66 -117 185 -185q118 -68 258 -68v-206h-101v-101h615v101h-101v206q139 0 257 68q119 68 185 185q67 118 67 257zM1125 202l106 -202h-413l105 202h202zM1024 923q-168 0 -288 120t-120 289q0 148 101 264v144h129v-154h116
v154h125v-154h115v154h130v-144q101 -116 101 -264q0 -168 -121 -289q-120 -120 -288 -120zM870 1332q-43 0 -72 -32t-29 -72t29 -72q28 -31 72 -31t72 31q29 32 29 72t-29 72t-72 32zM947 1461l77 -129l77 129h-154zM1178 1332q-43 0 -72 -32t-29 -72t29 -72q28 -31 72 -31
t72 31q29 32 29 72t-29 72t-72 32z" />
</svg>