<svg xmlns="http://www.w3.org/2000/svg" xmlns:xlink="http://www.w3.org/1999/xlink" version="1.1" viewBox="-10 0 2068 2048">
   <path fill="currentColor"
d="M1024 1764q-187 0 -351.5 -89t-264.5 -242q0 -92 116 -173q95 -67 250 -106q139 -39 249.5 -39t250.5 39q154 39 250 106q114 81 114 173q-99 153 -263.5 242t-350.5 89zM1024 308q130 0 219 89t89 216t-90 219q-88 91 -218.5 91t-219 -91t-88.5 -219t88 -216
q90 -89 220 -89zM1024 0q-200 0 -392 77q-188 76 -333.5 221t-220.5 334q-78 192 -78 392t78 392q75 189 220.5 334t333.5 221q192 77 392 77t392 -77q188 -76 333.5 -221t220.5 -334q78 -192 78 -392q0 -278 -138 -514q-136 -236 -372 -373q-237 -137 -514 -137z" />
</svg>