<svg xmlns="http://www.w3.org/2000/svg" xmlns:xlink="http://www.w3.org/1999/xlink" version="1.1" viewBox="-10 0 2068 2048">
   <path fill="currentColor"
d="M1024 1846q-250 0 -456 -139q-209 -140 -301.5 -371t-44.5 -473q48 -243 222 -418q177 -176 418 -224t474 46q230 93 370 300q140 208 140 457q0 220 -112 411q-110 190 -300 300q-190 111 -410 111zM1024 0q-278 0 -514 137q-235 136 -372 373q-138 236 -138 514
t138 514q137 237 372 373q236 137 513.5 137t514.5 -137q236 -137 372 -373q138 -236 138 -514q0 -200 -78 -392q-75 -189 -220.5 -334t-333.5 -221q-192 -77 -392 -77z" />
</svg>