<svg xmlns="http://www.w3.org/2000/svg" xmlns:xlink="http://www.w3.org/1999/xlink" version="1.1" viewBox="-10 0 2068 2048">
   <path fill="currentColor"
d="M0 1024q0 -126 78 -224q77 -99 188 -134q105 -212 308 -346q201 -132 450.5 -132t451.5 132q202 134 306 346q117 35 192 134q74 98 74 224t-74 224q-75 99 -192 134q-104 212 -306 346q-202 132 -451.5 132t-450.5 -132q-203 -134 -308 -346q-111 -35 -188 -134
q-78 -98 -78 -224zM1256 766q-48 0 -82 36q-32 33 -32 82.5t32 83.5q34 34 82 34t82 -34t34 -83t-34 -83q-34 -36 -82 -36zM794 766q-48 0 -84 36q-34 34 -34 83t34 83q36 34 84 34q47 0 80 -34q32 -34 32 -83.5t-32 -82.5q-33 -36 -80 -36zM606 1212q53 122 166 200
t252.5 78t253.5 -78q112 -78 164 -200h-836zM188 1024q0 56 30 102q29 44 84 68q-22 -81 -22 -170.5t22 -169.5q-55 23 -84 68q-30 46 -30 102zM1860 1024q0 -56 -30 -102q-28 -45 -82 -68q22 80 22 169.5t-22 170.5q54 -24 82 -68q30 -46 30 -102z" />
</svg>