<svg xmlns="http://www.w3.org/2000/svg" xmlns:xlink="http://www.w3.org/1999/xlink" version="1.1" viewBox="-10 0 2058 2048">
   <path fill="currentColor"
d="M1627 196l55 348l319 162l-161 318l161 319l-323 161l-55 349l-352 -55l-251 250l-251 -255l-348 60l-59 -353l-315 -161l162 -319l-162 -314l319 -162l55 -348l353 59l250 -255l251 251zM799 570q-61 0 -98 40q-38 41 -38 98t38 95t96 38q57 0 98 -38q40 -37 40 -95
t-40 -98t-96 -40zM1249 1207q-54 0 -95 38t-41 96q0 56 41 97t97 41q58 0 96 -41t38 -97q0 -58 -38 -96t-98 -38zM697 1479l782 -782l-128 -127l-781 781z" />
</svg>