<svg xmlns="http://www.w3.org/2000/svg" xmlns:xlink="http://www.w3.org/1999/xlink" version="1.1" viewBox="-10 0 2068 2048">
   <path fill="currentColor"
d="M1102 1190l96 -91q-4 -102 51 -216q55 -111 155 -212q102 -102 213 -153q116 -53 212 -53q98 0 157 61q58 59 61 159q3 98 -53 213q-55 113 -155 213t-213 152q-115 53 -210 53l-92 92q-29 25 -63 29t-67 -14q-72 24 -121 53q-58 39 -87 87q-30 51 -58 164
q-28 115 -58 165q-78 116 -295 116q-118 0 -193 -25q-113 -40 -184 -140l256 44q49 5 140 -39q94 -44 131 -101q30 -50 58 -167q29 -117 53 -162q36 -54 101 -92q51 -30 136 -58q0 -49 29 -78zM512 40q142 0 259 67t188 186q70 118 70 259t-70 259t-188 188q-119 71 -259 71
q-138 0 -258 -71q-120 -72 -187 -188q-67 -118 -67 -259t67 -259t187 -186q118 -67 258 -67zM512 243q-125 0 -217 92t-92 220q0 127 92 217t220 90q127 0 217 -90q89 -89 89 -217q0 -130 -89 -220q-90 -92 -220 -92z" />
</svg>