<svg xmlns="http://www.w3.org/2000/svg" xmlns:xlink="http://www.w3.org/1999/xlink" version="1.1" viewBox="-10 0 2068 2048">
   <path fill="currentColor"
d="M1024 101q280 0 514 110q236 111 372 299q138 188 138 411t-138 411q-135 186 -372 298q-234 110 -514 110q-188 0 -360 -48q-104 85 -232 144q-102 49 -216 77q-78 20 -158 29l-58 5q152 -152 226 -298q48 -93 52 -164q-129 -112 -203.5 -257t-74.5 -305
q0 -225 137.5 -413t372.5 -299q233 -110 514 -110zM1538 1024v-207h-206v207h206zM1124 1024v-207h-202v207h202zM716 1024v-207h-206v207h206z" />
</svg>