<svg xmlns="http://www.w3.org/2000/svg" xmlns:xlink="http://www.w3.org/1999/xlink" version="1.1" viewBox="-10 0 2068 2048">
   <path fill="currentColor"
d="M1051 1q-72 0 -122 55q-50 54 -50 127q4 40 19 72l29 67q5 10 0 20q-5 9 -17 14q-12 4 -26 -10l-44 -57q-53 -72 -139 -72q-78 0 -129 50q-52 50 -55 120q-3 71 40 123l44 52q14 23 -3 36q-17 11 -31 3l-58 -43q-53 -44 -122 -41q-70 3 -120 55q-50 51 -50 129
q0 87 72 140l57 43q10 10 10 19q0 10 -12 19t-26 5l-63 -29q-37 -15 -72 -19q-73 0 -127 50q-55 50 -55 127q0 52 29 101q28 47 77 67l1165 519l470 -471l-518 -1165q-20 -50 -67 -80q-47 -31 -106 -26zM1138 418q32 0 60 17q23 14 40 46l312 700l-408 -403l-91 -216
q-24 -48 5 -96q28 -48 82 -48zM802 701q43 0 72 29l494 494q28 27 31 70q3 40 -29 72q-31 31 -74 31t-72 -29l-494 -494q-29 -29 -29 -72t29 -72t72 -29zM524 1042q16 0 38 10l216 96l403 403l-700 -312q-49 -25 -58 -72q-9 -49 19 -89q28 -41 82 -36zM1871 1435l-436 437
l86 86q59 59 137 80q79 20 158 0q77 -21 138.5 -82.5t82.5 -138.5q21 -79 0 -158t-79 -137z" />
</svg>