<svg xmlns="http://www.w3.org/2000/svg" xmlns:xlink="http://www.w3.org/1999/xlink" version="1.1" viewBox="-10 0 2058 2048">
   <path fill="currentColor"
d="M1682 0q-150 0 -254 91q-92 81 -128 207q-36 123 -2 216q33 92 120 92t200 -92t185 -216t52 -207q-24 -91 -173 -91zM1024 72h-24q-81 15 -120 87q-39 62 -31 149q7 86 43 153t82 70q45 3 89 -67q41 -66 62 -164q19 -92 -5 -161q-24 -67 -96 -67zM606 240q-16 0 -38 10
q-92 33 -92 139q0 86 58 171q57 84 108 75q50 -9 70 -111q19 -100 -5 -188q-29 -101 -101 -96zM299 495q-25 0 -53 19q-73 48 -53 140q19 81 84 144q64 63 108 43q43 -19 43 -105q0 -87 -36 -162q-36 -74 -93 -79zM1159 692q-170 0 -341 58q-185 58 -308 163
q-134 119 -173 274q-39 176 67 380q104 201 289 342q202 139 408 139q104 0 214 -58q107 -57 187 -156q80 -100 104 -219q9 -62 -49 -91q-56 -28 -141 -19q-82 9 -149 43q-64 33 -55 77q9 72 -25 118q-33 45 -91 50t-120 -43q-95 -71 -86 -144q4 -63 91 -130
q49 -41 197 -130q200 -123 279 -202q129 -124 105 -255q-15 -95 -127 -146q-113 -51 -276 -51z" />
</svg>