<svg xmlns="http://www.w3.org/2000/svg" xmlns:xlink="http://www.w3.org/1999/xlink" version="1.1" viewBox="-10 0 2058 2048">
   <path fill="currentColor"
d="M818 614q0 -44 30 -72q33 -29 76 -29q42 0 71 29t29 72v456l124 14l504 226q44 20 64 55q22 38 22 84v446q0 61 -46 105q-44 44 -108 48h-660q-63 0 -106 -48l-498 -427l76 -81q28 -29 72 -29h24l326 173v-1022zM924 206q166 0 286 120t120 288q0 117 -54 209
q-57 94 -152 146v-125q106 -92 106 -225q0 -135 -92 -223q-92 -89 -218 -89t-216 89q-88 88 -88 223q0 134 100 225v125q-94 -52 -150 -146q-56 -92 -56 -209q0 -168 120 -288t294 -120zM924 0q161 0 304 82q140 80 224 223q84 141 84 309q0 132 -50 242q-50 112 -142 199
l-100 -43q85 -70 136 -175q52 -103 52 -223q0 -140 -68 -256q-68 -118 -184 -187q-119 -70 -256 -70q-139 0 -258 70q-117 69 -186 187q-70 117 -70 256q0 154 84 281q84 126 222 189v111q-181 -68 -294 -226q-112 -160 -112 -355q0 -168 80 -309q82 -142 224 -223
q142 -82 310 -82z" />
</svg>