<svg xmlns="http://www.w3.org/2000/svg" xmlns:xlink="http://www.w3.org/1999/xlink" version="1.1" viewBox="-10 0 2068 2048">
   <path fill="currentColor"
d="M2048 1178q0 134 -88 235q-88 102 -220 121v312q0 82 -60 142t-142 60h-390v-29q0 -115 -82 -197t-197 -82t-197 82q-80 81 -80 197v29h-390q-82 0 -142 -60t-60 -142v-389h28q116 0 198 -82t82 -197t-82 -197t-198 -82h-28v-389q0 -82 60 -142t142 -60h312
q20 -135 120 -222q100 -86 236 -86t236 86q100 87 120 222h312q82 0 142 60t60 142v312q133 19 220.5 119.5t87.5 236.5zM1538 1332h154q62 0 108 -46t46 -108t-46 -108t-108 -46h-154v-514h-514v-154q0 -62 -46 -108t-108 -46t-108 46q-46 45 -46 108v154h-514v221
q139 53 224 173q84 120 84 274t-84 274q-85 120 -224 173v221h220q53 -140 174 -224q120 -84 274 -84t274 84t172 224h222v-514z" />
</svg>