<svg xmlns="http://www.w3.org/2000/svg" xmlns:xlink="http://www.w3.org/1999/xlink" version="1.1" viewBox="-10 0 2058 2048">
   <path fill="currentColor"
d="M1658 193q82 0 139 57t57 140v815q-91 -36 -196 -36q-155 0 -290 80q-137 80 -216 215q-80 136 -80 291q0 103 36 197h-814q-84 0 -141 -57t-57 -140v-1365q0 -83 57 -140t141 -57h406q51 -134 180 -174q111 -42 220 9q110 51 150 165h408zM976 193q-42 0 -68 27
q-28 28 -28 69q0 40 28 71q27 30 68 30q42 0 69 -30t27 -71q0 -42 -27 -69t-69 -27zM880 1563v-197h-394v197h394zM1072 1169v-193h-586v193h586zM1466 779v-197h-980v197h980zM1466 1462l486 293l-486 293v-586z" />
</svg>