<svg xmlns="http://www.w3.org/2000/svg" xmlns:xlink="http://www.w3.org/1999/xlink" version="1.1" viewBox="-10 0 2065 2048">
   <path fill="currentColor"
d="M1125 1636h105q44 0 72 31q29 32 29 74h714v202h-714q0 42 -29 74q-28 31 -72 31h-412q-44 0 -72 -31q-29 -32 -29 -74h-714v-202h714q0 -42 29 -74q28 -31 72 -31h106v-168q-226 -96 -370 -314q-143 -216 -143 -473v-407l613 -274l614 274v407q0 255 -144 473t-369 314
v168zM1024 206l-407 173v336h407v-509zM1024 715v614q94 -24 192 -106q96 -81 156 -192t60 -211v-105h-408z" />
</svg>