<svg xmlns="http://www.w3.org/2000/svg" xmlns:xlink="http://www.w3.org/1999/xlink" version="1.1" viewBox="-10 0 2068 2048">
   <path fill="currentColor"
d="M186 86q-75 0 -130 55t-55 133v1126q0 80 55 135t130 55h751v-190h-751v-936h1502v374h185v-374q0 -80 -55 -135t-130 -55h-751l-189 -188h-562zM1500 1026q-23 0 -27 18l-17 124l-80 44l-114 -44q-23 0 -31 8l-92 162q-9 18 5 32l101 78q-5 25 -5 46.5t5 45.5l-101 76
q-14 13 -5 30l92 164q4 12 31 12l114 -48q38 27 80 44l17 128q4 16 27 16h188q17 0 22 -16l18 -128q39 -16 79 -44l114 48q26 0 31 -12l92 -164q9 -18 -4 -30l-101 -76l4 -48q0 -23 -4 -44l101 -78q13 -14 4 -32l-92 -162q-4 -8 -31 -8l-114 44q-45 -30 -79 -44l-18 -124
q-5 -18 -22 -18h-188zM1592 1352q62 0 101 42t39 100q0 60 -39 100q-40 40 -99 40q-58 0 -101 -40q-42 -40 -42 -100q0 -58 42 -100t99 -42z" />
</svg>