<svg xmlns="http://www.w3.org/2000/svg" xmlns:xlink="http://www.w3.org/1999/xlink" version="1.1" viewBox="-10 0 2068 2048">
   <path fill="currentColor"
d="M1846 1846q-218 0 -414 -139q-186 134 -408 134t-408 -134q-196 139 -414 139h-202v202h202q210 0 414 -101q192 101 408 101t408 -101q204 101 414 101h202v-202h-202zM1846 1433q-217 0 -414 -135q-186 130 -408 130t-408 -130q-197 135 -414 135h-202v206h202
q210 0 414 -101q194 97 408 97t408 -97q204 101 414 101h202v-206h-202zM2048 0h-2048v202h408v1231h1230v-1231h410v-202zM716 202h206v615h-206v-615zM1124 615h208v616h-208v-616z" />
</svg>