<svg xmlns="http://www.w3.org/2000/svg" xmlns:xlink="http://www.w3.org/1999/xlink" version="1.1" viewBox="-10 0 2068 2048">
   <path fill="currentColor"
d="M1958 331l90 -91q-118 -118 -264 -179t-304 -61t-304 61t-264 179l90 91q103 -97 224 -144q124 -48 252 -48q126 0 252 48q125 47 228 144zM1856 421q-80 -75 -176 -117q-99 -43 -200 -43t-202 43q-98 41 -174 117l90 91q112 -112 284 -112q171 0 288 112zM1818 1136
h-224v-453h-228v453h-1136q-96 0 -163 67t-67 162v454q0 95 67 162t163 67h1588q96 0 164 -67q66 -66 66 -162v-454q0 -96 -66 -162q-68 -67 -164 -67zM572 1707h-230v-230h230v230zM966 1707h-224v-230h224v230zM1366 1707h-230v-230h230v230z" />
</svg>