<svg xmlns="http://www.w3.org/2000/svg" xmlns:xlink="http://www.w3.org/1999/xlink" version="1.1" viewBox="-10 0 2068 2048">
   <path fill="currentColor"
d="M188 279q-78 0 -133 55t-55 133v1024h188q0 115 80 196q81 82 198 82q119 0 200 -82q80 -81 80 -196h558q0 115 80 196q80 82 198 82t198 -82q80 -81 80 -196h188v-279q0 -79 -54 -133q-56 -55 -134 -55h-186v-231h374v-326q0 -79 -54 -133q-56 -55 -134 -55h-1672z
M140 419h374v235h-374v-235zM654 419h370v235h-370v-235zM1164 419h370v235h-370v-235zM1674 419h234v235h-234v-235zM1164 793h370v231h-370v-231zM140 793h374v231h-374v-231zM654 793h370v231h-370v-231zM466 1351q56 0 98 39t42 98t-42 101q-40 41 -97 41t-98 -41
t-41 -101t40 -98q42 -39 98 -39zM1582 1351q56 0 98 39t42 98t-42 101q-42 41 -99 41t-98 -41t-41 -101t42 -98q41 -39 98 -39z" />
</svg>