<svg xmlns="http://www.w3.org/2000/svg" xmlns:xlink="http://www.w3.org/1999/xlink" version="1.1" viewBox="-10 0 2058 2048">
   <path fill="currentColor"
d="M1316 1074v782h-972v-782h972zM1412 878h-1170q-41 0 -68 29q-28 31 -28 71v974q0 41 28 69q28 27 68 27h1170q42 0 72 -27t30 -69v-343l388 393v-1074l-388 389v-339q0 -41 -30 -71q-30 -29 -72 -29zM146 279l138 137q146 -147 344 -199q100 -26 199.5 -26t198.5 26
q199 52 350 199l138 -137q-187 -182 -438 -247q-248 -64 -494 0q-249 65 -436 247zM422 549l136 137q110 -110 270 -110q159 0 274 110l136 -137q-111 -112 -260 -147q-150 -36 -298 0q-147 36 -258 147z" />
</svg>