<svg xmlns="http://www.w3.org/2000/svg" xmlns:xlink="http://www.w3.org/1999/xlink" version="1.1" viewBox="-10 0 2058 2048">
   <path fill="currentColor"
d="M904 686h192v585h-192v-585zM1000 1856q-188 0 -344 -91q-154 -91 -246 -250q-92 -157 -92 -342q0 -186 92 -343q91 -158 246 -249q157 -92 344 -92q185 0 342 92q155 91 246 249q92 158 92 340q93 0 196 37v-37q0 -153 -50 -290q-51 -142 -142 -254l138 -141
q-73 -82 -138 -138l-136 142q-114 -91 -256 -144q-140 -52 -292 -52q-239 0 -440 118q-201 119 -320 320q-118 202 -118 439q0 236 118 441q118 202 320 320q202 117 440 117q78 0 164 -14q-46 -93 -60 -187q-64 9 -104 9zM1292 0h-586v197h586v-197zM1438 1513v489h488
v-489h-488z" />
</svg>