<svg xmlns="http://www.w3.org/2000/svg" xmlns:xlink="http://www.w3.org/1999/xlink" version="1.1" viewBox="-10 0 2068 2048">
   <path fill="currentColor"
d="M768 202q-210 0 -386 84t-279 226t-103 305q0 146 74 269q77 126 210 212l-82 240l260 -153q144 48 298 48q-44 -99 -44 -202q0 -167 96 -310q97 -144 262 -224q169 -82 358 -82h58q-77 -182 -276 -298q-199 -115 -446 -115zM462 461q42 0 71 29t29 72q0 44 -28 73
q-28 28 -72.5 28t-75 -28t-30.5 -73q0 -44 30 -72q33 -29 76 -29zM970 461q43 0 76 29q30 28 30 72q0 45 -30.5 73t-75 28t-72.5 -28q-28 -29 -28 -73q0 -43 29 -72t71 -29zM1432 716q-161 0 -306 70q-140 68 -224 187t-84 258t84 257q83 118 224.5 185t305.5 67
q106 0 198 -24l216 130l-68 -192q125 -72 198 -185q72 -113 72 -246q0 -130 -82 -250q-81 -117 -224 -187q-145 -70 -310 -70zM1230 971q44 0 72 31q30 32 30 75t-29 72t-72 29t-75 -29q-32 -28 -32 -72t31 -75t75 -31zM1638 971q44 0 72 31q30 32 30 75t-29 72t-72 29
t-72 -29t-29 -72t28 -75q29 -31 72 -31z" />
</svg>