<svg xmlns="http://www.w3.org/2000/svg" xmlns:xlink="http://www.w3.org/1999/xlink" version="1.1" viewBox="-10 0 2068 2048">
   <path fill="currentColor"
d="M826 96q-220 0 -412 56q-194 57 -302 150q-112 94 -112 207.5t112 208.5q110 94 302 150q188 54 412 54q72 0 154 -8v-146h300l-106 -106l362 -358q-111 -96 -300 -152q-190 -56 -410 -56zM1540 516l-148 146l260 260h-516v204h516l-260 260l148 146l508 -508zM0 714v310
q0 111 112 206q110 94 302 150q188 54 412 54q168 0 334 -38l116 -116h-296v-160q-91 6 -154 6q-220 0 -412 -56q-194 -57 -302 -150q-112 -94 -112 -206zM0 1232v308q0 112 112 206q108 93 302 150q192 56 412 56t410 -56q189 -56 300 -152l-192 -194q-233 92 -518 92
q-220 0 -412 -56q-194 -56 -302 -148q-112 -95 -112 -206z" />
</svg>