<svg xmlns="http://www.w3.org/2000/svg" xmlns:xlink="http://www.w3.org/1999/xlink" version="1.1" viewBox="-10 0 2068 2048">
   <path fill="currentColor"
d="M1498 1888l-228 -395q83 -63 138 -154q53 -89 70 -203h458q-17 235 -134 432q-115 195 -304 320zM1136 459v-459q246 17 448 139q203 124 326 325q121 200 138 448h-458q-21 -181 -148 -307q-125 -125 -306 -146zM454 1083q0 104 42 202l-394 230q-102 -201 -102 -432
q0 -256 120 -472t332 -350q208 -132 460 -149v459q-197 21 -328 168q-130 148 -130 344zM966 2048q-252 0 -462 -117t-344 -315l396 -229q76 97 180 152q108 56 230 56q109 0 208 -43l228 395q-200 101 -436 101z" />
</svg>