<svg xmlns="http://www.w3.org/2000/svg" xmlns:xlink="http://www.w3.org/1999/xlink" version="1.1" viewBox="-10 0 2058 2048">
   <path fill="currentColor"
d="M944 1800q29 107 84 196h-702q-84 0 -142 -58q-60 -59 -60 -138v-1603q0 -79 59 -138t143 -59h1200q84 0 142 59q58 58 58 138v820q-88 -19 -150 -19q-30 0 -50 5v-806h-502v801l-248 -225l-248 225v-801h-202v1603h618zM1924 1650v-403l-118 117q-116 -117 -280 -117
t-281 117t-117 283q0 167 117 284t281 117q125 0 226.5 -68t143.5 -180h-170q-37 46 -88.5 72t-111.5 26q-104 0 -177 -73t-73 -175t74 -178q72 -75 176 -75q102 0 178 75l-178 178h398z" />
</svg>