<svg xmlns="http://www.w3.org/2000/svg" xmlns:xlink="http://www.w3.org/1999/xlink" version="1.1" viewBox="-10 0 2068 2048">
   <path fill="currentColor"
d="M716 308q-197 0 -360 96q-164 96 -260 259q-96 164 -96 361.5t96 360.5t260 259q163 96 360 96q160 0 308 -67q147 67 308 67q196 0 360 -96q164 -97 260 -259q96 -163 96 -360.5t-96 -361.5q-96 -162 -260 -259q-164 -96 -360 -96q-161 0 -308 67q-148 -67 -308 -67z
M1332 510q140 0 256 69q119 70 188 188q70 120 70 257t-70 257q-69 118 -188 188q-116 69 -256 69q-54 0 -102 -9q97 -101 150 -233q52 -133 52 -272t-52 -272q-53 -131 -150 -228q50 -14 102 -14zM1024 615q94 71 150 181q56 109 56 228t-56 228q-56 110 -150 181
q-95 -71 -152 -181q-54 -107 -54 -228t54 -228q57 -110 152 -181z" />
</svg>