<svg xmlns="http://www.w3.org/2000/svg" xmlns:xlink="http://www.w3.org/1999/xlink" version="1.1" viewBox="-10 0 2068 2048">
   <path fill="currentColor"
d="M922 0v211q-276 33 -478 234q-200 200 -232 478h-212v202h212q32 278 232.5 478t477.5 233v212h202v-212q278 -33 478.5 -233t233.5 -478h212v-202h-212q-33 -278 -234 -478q-201 -201 -478 -234v-211h-202zM922 418v197h202v-197q192 28 334.5 171t171.5 334h-198v202
h198q-29 191 -171.5 334t-334.5 171v-197h-202v197q-191 -28 -334 -171q-141 -141 -170 -334h198v-202h-198q29 -193 170 -334q143 -143 334 -171zM1024 923q-44 0 -73 29t-29 72t29 72t72 29t72 -29t29 -72t-29 -72t-71 -29z" />
</svg>