<svg xmlns="http://www.w3.org/2000/svg" xmlns:xlink="http://www.w3.org/1999/xlink" version="1.1" viewBox="-10 0 2058 2048">
   <path fill="currentColor"
d="M1394 745q155 0 275 40q97 30 165 91q54 49 83 109q20 42 30 92l5 39v187h-558v-187l-4 -44q-5 -59 -26 -113q-25 -76 -74 -139q-30 -34 -57 -61q86 -14 161 -14zM654 933q208 0 305 74q56 47 65 109h-745q9 -61 66 -109q101 -74 309 -74zM654 745q-248 0 -392 96
q-104 68 -148 179q-18 57 -18 96v187h1115v-187l-4 -39q-9 -43 -35 -92q-29 -60 -83 -109q-66 -61 -165 -91q-115 -40 -270 -40zM745 1491v183h558v-183l278 278l-278 279v-187h-558v187l-279 -279zM654 188q35 0 63 28t28 65q0 38 -28 66t-65 28q-38 0 -66 -28t-28 -66
q0 -37 28 -65t68 -28zM654 0q-117 0 -198 83t-81 198q0 116 81 197q80 80 196 80q117 0 198 -80q83 -81 83 -197q0 -115 -83 -198t-196 -83zM1394 0q-113 0 -196 83t-83 198q0 116 83 197q81 80 198 80q116 0 196 -80q81 -81 81 -197q0 -115 -81 -198t-198 -83z" />
</svg>