<svg xmlns="http://www.w3.org/2000/svg" xmlns:xlink="http://www.w3.org/1999/xlink" version="1.1" viewBox="-10 0 2058 2048">
   <path fill="currentColor"
d="M1024 0q-27 17 -48 34q-61 51 -106 105q-64 73 -106 164q-48 101 -48 202t28 206q16 70 64 193q59 160 76 240q38 140 38 289h-104v-58q-9 -75 -30 -154q-27 -104 -72 -197q-72 -145 -182 -202q-97 -48 -198 -17q-100 31 -168 120q-66 88 -66 198q0 108 32 180
q25 59 68 91q34 25 72 34l34 5q0 -105 52 -169q52 -62 125.5 -62t124.5 62q54 64 54 169h-154v206h360l-154 207l28 19q40 24 78 24q53 0 100 -43l102 202l100 -202q48 43 102 43q38 0 76 -24l30 -19l-154 -207h360v-206h-154q0 -107 52 -169t125.5 -62t124.5 62
q54 64 54 169l34 -5q36 -9 72 -34q42 -32 66 -91q34 -74 34 -180q0 -109 -68 -198q-67 -89 -168 -120q-100 -31 -196 17q-109 56 -182 202q-65 133 -92 284q-10 77 -10 125h-106q0 -149 38 -289q18 -80 78 -240q47 -123 62 -193q30 -108 30 -201q0 -193 -154 -371
q-75 -89 -154 -139z" />
</svg>