<svg xmlns="http://www.w3.org/2000/svg" xmlns:xlink="http://www.w3.org/1999/xlink" version="1.1" viewBox="-10 0 2058 2048">
   <path fill="currentColor"
d="M1385 1976l-87 -10q-57 -5 -106 -41q-47 -35 -67 -93q-81 -308 0 -616q183 -39 298 -178t115 -322q0 -90 -53 -279q-46 -154 -100 -298l-53 -139h-615l-53 139q-59 157 -101 298q-53 189 -53 279q0 183 115 325q114 141 298 180q81 307 0 615q-20 53 -65 89
q-46 36 -103 41l-101 15q-20 5 -29 21t-9 46h817q0 -44 -24 -63q-15 -9 -24 -9zM760 510l106 -308h317l105 308h-528z" />
</svg>