<svg xmlns="http://www.w3.org/2000/svg" xmlns:xlink="http://www.w3.org/1999/xlink" version="1.1" viewBox="-10 0 2068 2048">
   <path fill="currentColor"
d="M230 0q-96 0 -163 67t-67 162v1590q0 95 67 162t163 67h1588q96 0 164 -67q66 -66 66 -162v-1590q0 -96 -66 -162q-68 -67 -164 -67h-1588zM230 229h1588v1590h-1588v-1590zM1376 555q-59 -54 -126 -78q-66 -24 -194 -24h-484v1142h202v-411h282q124 0 192 -21
q69 -21 128 -75q102 -86 102 -261q0 -176 -102 -272zM1206 965q-60 59 -156 59h-276v-411h260q107 0 168 64q62 65 62 150q0 84 -58 138z" />
</svg>