<svg xmlns="http://www.w3.org/2000/svg" xmlns:xlink="http://www.w3.org/1999/xlink" version="1.1" viewBox="-10 0 2058 2048">
   <path fill="currentColor"
d="M1433 202h-101v-202h-207v202h-202v-202h-206v202h-101q-173 0 -293 120q-121 121 -121 293v1024q0 168 121 289q120 120 293 120h817q173 0 293 -120t120 -289v-1024q0 -173 -120 -293t-293 -120zM1024 1639q-106 0 -180 -74q-75 -75 -75 -176q0 -71 34 -125
q21 -34 135 -168l86 -96l87 96q111 130 134 168q34 59 34 125q0 101 -75 176q-74 74 -180 74zM1433 817h-817v-202h817v202z" />
</svg>