<svg xmlns="http://www.w3.org/2000/svg" xmlns:xlink="http://www.w3.org/1999/xlink" version="1.1" viewBox="-10 0 2058 2048">
   <path fill="currentColor"
d="M1022 1271h-192v-585h192v585zM1218 0h-584v197h584v-197zM246 1170q0 -183 90 -340q92 -158 248 -249q156 -92 342 -92q239 0 422 146q185 147 240 375l60 -59q47 -46 106 -64q-46 -141 -142 -261l136 -141q-72 -82 -136 -138l-138 142q-113 -91 -256 -144
q-139 -52 -292 -52q-238 0 -438 118q-202 119 -320 320q-120 202 -120 439q0 226 104 414q104 192 280 313q180 124 398 146v-196q-164 -22 -299.5 -119t-210.5 -242q-74 -147 -74 -316zM1022 1851v197h202l598 -594l-202 -201zM1982 1216l-128 -128q-14 -14 -34 -14t-34 14
l-96 96l200 201l92 -96q18 -13 18 -34t-18 -39z" />
</svg>