<svg xmlns="http://www.w3.org/2000/svg" xmlns:xlink="http://www.w3.org/1999/xlink" version="1.1" viewBox="-10 0 2068 2048">
   <path fill="currentColor"
d="M124 0l-124 124l402 406q-22 94 -22 206q4 182 104 338q101 156 256 238q103 54 164 149q60 93 60 203v18q0 124 84 208q86 85 208 85q234 0 348 -242l320 315l124 -123zM1256 1783q-40 0 -70 -30q-30 -29 -30 -71v-18q0 -164 -86 -304q-88 -140 -238 -222
q-117 -61 -186 -171q-70 -113 -74 -240v-27l114 109l8 32l14 -4l120 114l-52 23q45 51 102 78q98 52 174 128h4l118 118l-22 10q77 123 96 265l122 -46l10 -23l78 78q-41 113 -100 164q-42 37 -102 37zM1430 572l-356 132l-220 -219l370 -137q156 60 206 224zM726 357
l-136 -137q90 -91 210 -142q116 -50 246 -50q200 0 344 68q118 60 204 169q65 87 106 201q28 87 36 170l6 73q0 375 -32 631l-180 -179q20 -212 20 -452q0 -74 -28 -160q-41 -137 -138 -220q-122 -109 -338 -109q-178 0 -320 137zM1422 1052l-230 -229l256 -96q0 180 -4 315
z" />
</svg>