<svg xmlns="http://www.w3.org/2000/svg" xmlns:xlink="http://www.w3.org/1999/xlink" version="1.1" viewBox="-10 0 2068 2048">
   <path fill="currentColor"
d="M672 430q0 -147 104.5 -248t247.5 -101t247.5 101t104.5 248q0 36 22 58q22 23 56 23q31 0 58 -23q24 -22 24 -58v-81h162v81q0 101 -71 172t-171 71t-171 -71t-71 -172q0 -76 -56 -132q-56 -55 -135 -55t-134 55t-55 132h136v141q233 66 384 268q152 203 152 456
q0 201 -100 376q-102 176 -274 276q-173 101 -378.5 101t-379.5 -101q-171 -100 -272 -276q-102 -175 -102 -376q0 -254 152 -456q150 -202 384 -268v-141h136zM1830 430h218v106h-218v-106zM1506 212v-212h112v212h-112zM1714 253l152 -152l80 76l-156 157z" />
</svg>