<svg xmlns="http://www.w3.org/2000/svg" xmlns:xlink="http://www.w3.org/1999/xlink" version="1.1" viewBox="-10 0 2068 2048">
   <path fill="currentColor"
d="M1846 0h-1644q-82 0 -142 60t-60 142v1644q0 82 60 142t142 60h1644q82 0 142 -60t60 -142v-1644q0 -82 -60 -142t-142 -60zM1846 716q0 137 -70 257q-69 118 -188 188q-118 70 -256.5 70t-257.5 -70q-119 -71 -188 -188q-68 -119 -68 -257t68 -257q68 -116 188 -187
q119 -70 257.5 -70t256.5 70q119 70 188 187q70 120 70 257zM202 202h414v1029h-414v-1029zM202 1846v-413h414v413h-414zM1846 1846h-1028v-413h1028v413z" />
</svg>