<svg xmlns="http://www.w3.org/2000/svg" xmlns:xlink="http://www.w3.org/1999/xlink" version="1.1" viewBox="-10 0 2068 2048">
   <path fill="currentColor"
d="M1144 1933q-91 14 -170 14q-266 0 -488.5 -130t-353.5 -355q-132 -224 -132 -489t132 -489q130 -224 354 -354q222 -130 488.5 -130t489.5 130t354 354q130 223 130 489q0 79 -14 169q-127 -73 -278 -73q-178 0 -330 105l-302 -182v-508h-146v585l334 206
q-142 165 -142 379q0 152 74 279zM1560 1266v292h-294v197h294v293h196v-293h292v-197h-292v-292h-196z" />
</svg>