<svg xmlns="http://www.w3.org/2000/svg" xmlns:xlink="http://www.w3.org/1999/xlink" version="1.1" viewBox="-10 0 2068 2048">
   <path fill="currentColor"
d="M1522 1152q170 0 289 119t119 288t-119 288t-288 119t-288 -119t-119 -288t119 -288t287 -119zM1522 1288q-75 0 -136 38l370 368q38 -60 38 -136q0 -110 -78 -190t-194 -80zM1252 1558q0 116 80 194t190 78q75 0 136 -38l-368 -370q-38 61 -38 136zM1616 82q72 0 122 52
l258 254q52 56 52 129.5t-52 128.5l-342 340q-69 -12 -132 -12q-104 0 -212 38l-352 -352l526 -526q56 -52 132 -52zM874 744l322 326q-117 80 -188 210q-70 129 -70 278q0 63 12 132l-106 106q-51 56 -124 56q-75 0 -130 -52l-76 76h-514l336 -334q-56 -56 -56 -130
t56 -130z" />
</svg>