<svg xmlns="http://www.w3.org/2000/svg" xmlns:xlink="http://www.w3.org/1999/xlink" version="1.1" viewBox="-10 0 2058 2048">
   <path fill="currentColor"
d="M1612 1247q173 0 281 121l117 -121v403h-398l178 -183q-84 -70 -178 -70q-104 0 -176 72q-73 73 -73 178t73 178t176 73q117 0 201 -98h169q-47 113 -145 180q-100 68 -225 68q-164 0 -281 -117t-117 -284q0 -166 117 -283t281 -117zM984 1800h-42l-38 -263
q-169 -29 -299 -178l-244 98l-80 -131l211 -159q-62 -178 0 -361l-211 -136l80 -131l244 98q116 -136 299 -178l29 -262h149l38 262q87 13 169 64t131 114l243 -98l80 131l-211 150q28 87 28 178h52q45 0 150 19v-19l-10 -98l211 -160q22 -27 9 -60l-201 -352
q-5 -18 -19 -23q-15 -5 -42 -5l-248 98q-51 -42 -169 -98l-42 -272q9 -4 -7 -16q-17 -12 -30 -12h-403q-15 0 -31 12t-16 25l-42 272q-35 8 -103 52l-66 37l-239 -98q-27 0 -42 5t-28 23l-201 352q-14 24 18 60l211 160l-9 98l9 99l-211 173q-23 23 -9 56l201 352
q4 13 19 16q9 2 42 2l248 -98q51 42 169 98l42 272q0 14 14 26q13 12 33 12h253q-32 -40 -56 -103q-18 -44 -33 -103zM1410 1026v-28q0 -164 -117 -281t-281 -117t-281 117t-117 281t117 281q118 118 281 118q51 -126 159 -225q108 -100 239 -146zM811 998q0 -85 58 -143
t143 -58t143 58q59 59 59 143t-59 143t-143 59t-143 -59q-58 -58 -58 -143z" />
</svg>