<svg xmlns="http://www.w3.org/2000/svg" xmlns:xlink="http://www.w3.org/1999/xlink" version="1.1" viewBox="-10 0 2068 2048">
   <path fill="currentColor"
d="M1024 817h-298q24 -270 108 -442q84 -173 189.5 -173t190.5 173q83 172 108 442h206q-23 -230 -96 -418q-70 -184 -180 -293q-108 -106 -228.5 -106t-227.5 106q-109 107 -180 293q-73 188 -96 418h-318l414 414zM1024 1846q-96 0 -176 -147q-80 -149 -112 -377l-120 125
l-72 -72q52 296 184 485q133 188 296 188q120 0 228 -106q110 -109 180 -293q73 -188 96 -418h-206q-25 270 -108 442q-85 173 -190 173zM2048 923h-924l-202 202h1126v-202zM0 1125h308l-206 -202h-102v202z" />
</svg>