<svg xmlns="http://www.w3.org/2000/svg" xmlns:xlink="http://www.w3.org/1999/xlink" version="1.1" viewBox="-10 0 2060 2048">
   <path fill="currentColor"
d="M1438 1022q-20 0 -24 24l-19 134q-48 20 -87 48l-129 -53q-25 0 -29 15l-105 177q-10 21 4 34l111 81q-5 32 -5 53t5 53l-111 81q-14 13 -4 34l105 177q4 15 29 15l129 -53q43 33 87 48l19 134q4 24 24 24h206q19 0 24 -24l19 -134q32 -16 86 -48l125 53q28 0 33 -15
l106 -177q8 -19 -10 -34l-105 -81v-53v-53l105 -81q19 -15 5 -34l-101 -177q-5 -15 -33 -15l-125 53q-52 -32 -86 -48l-19 -134q0 -24 -24 -24h-206zM1543 1382q63 0 108 45q46 46 46 108t-46 108t-110 46t-108 -46q-43 -44 -43 -108t43 -108q43 -45 110 -45zM1438 825v-825
h-1429v1842h614v-360h206q19 -250 189 -434q168 -184 420 -223zM417 1636h-207v-202h207v202zM417 1228h-207v-206h207v206zM417 820h-207v-206h207v206zM417 408h-207v-202h207v202zM1030 206h206v202h-206v-202zM1030 614h206v206h-206v-206zM824 1228h-201v-206h201v206z
M824 820h-201v-206h201v206zM623 408v-202h201v202h-201z" />
</svg>