<svg xmlns="http://www.w3.org/2000/svg" xmlns:xlink="http://www.w3.org/1999/xlink" version="1.1" viewBox="-10 0 2068 2048">
   <path fill="currentColor"
d="M178 173l-164 120l236 322q92 -53 192 -77zM922 716v207h716v29l-514 144v289q0 187 -134 324q-136 137 -324 137q-190 0 -327 -137t-137 -327q0 -189 136 -324q137 -135 326 -135h52v-207h-52q-177 0 -332 89q-154 88 -243 243t-89 334t89 334t243 243q155 89 333.5 89
t334.5 -89q154 -89 242 -243q90 -155 90 -331v-164l716 -197v-308h-1126zM1456 173l-244 337h254l158 -217zM716 0v510h206v-510h-206z" />
</svg>