<svg xmlns="http://www.w3.org/2000/svg" xmlns:xlink="http://www.w3.org/1999/xlink" version="1.1" viewBox="-10 0 2068 2048">
   <path fill="currentColor"
d="M1024 0q-200 0 -392 77q-188 76 -333.5 221t-220.5 334q-78 192 -78 392t78 392q75 189 220.5 334t333.5 221q192 77 392 77t392 -77q188 -76 333.5 -221t220.5 -334q78 -192 78 -392t-78 -392q-75 -189 -220.5 -334t-333.5 -221q-192 -77 -392 -77zM538 923
q-28 -49 -28 -106q0 -82 60 -142t146 -60t146 60t60 142q0 57 -28 106q-29 -48 -74 -77q-46 -29 -104 -29t-104 29q-45 29 -74 77zM1432 1332h-100q0 147 -58 228q-57 79 -148 79q-89 0 -146 -79q-58 -81 -58 -228h-306v-207h816v207zM1508 923q-28 -48 -74 -77
q-45 -29 -102 -29q-59 0 -104 29q-46 29 -74 77q-30 -49 -30 -106q0 -82 60 -142t148 -60q86 0 146 60t60 142q0 57 -30 106z" />
</svg>