<svg xmlns="http://www.w3.org/2000/svg" xmlns:xlink="http://www.w3.org/1999/xlink" version="1.1" viewBox="-10 0 2068 2048">
   <path fill="currentColor"
d="M1528 1654q-100 0 -100 -260q4 -205 66 -562q47 -249 126 -563l62 -259h-298l-68 250q-82 305 -134 567h-254q9 -159 4 -265q-4 -325 -120 -456q-95 -110 -250 -82q-124 24 -236 125q-133 114 -230 310q-96 195 -96 358h134l20 -62q28 -80 68 -149q49 -94 114 -145
q81 -67 184 -67q100 0 96 260q0 199 -68 562q-49 258 -120 563l-68 259h298l44 -134q51 -160 96 -337q62 -262 92 -461h244q-19 178 -14 399q4 321 120 452q95 100 250 67q123 -28 236 -130q133 -114 230 -332q92 -204 92 -331h-140q0 11 -20 67q-25 86 -62 149
q-51 85 -120 139q-82 68 -178 68z" />
</svg>