<svg xmlns="http://www.w3.org/2000/svg" xmlns:xlink="http://www.w3.org/1999/xlink" version="1.1" viewBox="-10 0 2068 2048">
   <path fill="currentColor"
d="M202 0q-82 0 -142 60t-60 142v1231q0 86 60 146t142 60h414v308q0 43 29 72t71 29h52q40 0 74 -29l378 -380h626q82 0 142 -60t60 -146v-1231q0 -82 -60 -142t-142 -60h-1644zM202 202h1644v1231h-712l-316 317v-317h-616v-1231zM1042 356q-134 0 -220 57q-87 56 -78 169
h-470h672q0 -44 30 -65q29 -22 66 -22q54 0 80 27q26 26 26 69q0 44 -24 77q-26 36 -62 58q-79 45 -108 82q-32 38 -32 115h202q0 -45 14 -70q15 -26 54 -50q72 -33 118 -89q46 -57 46 -123q0 -105 -84 -170q-85 -65 -230 -65zM922 1024v207h202v-207h-202z" />
</svg>