<svg xmlns="http://www.w3.org/2000/svg" xmlns:xlink="http://www.w3.org/1999/xlink" version="1.1" viewBox="-10 0 2058 2048">
   <path fill="currentColor"
d="M1158 1744l304 304l134 -139l-304 -298zM1364 1004h-6l-334 334l-338 -334q-65 -69 -102 -154q-38 -88 -38 -181q0 -129 66 -239q64 -110 174 -174q108 -64 238 -64t238 64q110 64 174 174q66 110 66 239q0 93 -38 181q-38 87 -100 154zM1492 1142q95 -90 146 -212
q50 -123 50 -261q0 -183 -88 -335q-88 -151 -242 -243q-150 -91 -334 -91t-334 91q-154 92 -242 243q-88 152 -88 335q0 135 51 259.5t145 213.5l334 335l-436 432l134 139z" />
</svg>