<svg xmlns="http://www.w3.org/2000/svg" xmlns:xlink="http://www.w3.org/1999/xlink" version="1.1" viewBox="-10 0 2068 2048">
   <path fill="currentColor"
d="M1440 934q-15 -19 -69 -80l-16 -16q-48 -34 -106 -80q-108 -83 -134 -106q-122 -122 -149 -307q-27 -183 53 -344q-136 31 -282 150q-225 183 -301 463q-77 283 29 549q11 22 11 38q0 42 -40 58q-39 16 -77 -16q-11 -6 -16 -16q-96 -123 -112 -282q-17 -160 48 -304
q-139 117 -213 298q-75 180 -64 368q17 120 32 171q20 89 80 197q94 141 245 242q148 99 320 120q193 26 367 -16q191 -42 325 -165q154 -144 202 -349q48 -206 -31 -402l-11 -27q-28 -56 -91 -144zM1083 1648q-58 53 -127 70q-86 31 -182 0q-85 -27 -149 -91
q96 -27 160 -91q63 -63 80 -144q16 -62 -16 -181l-16 -74q-21 -128 21 -235q42 85 72 123q27 34 99 98q69 61 96 99q47 53 58 122q11 22 11 48q0 72 -29 142q-30 72 -78 114zM2048 1137h-229v-683h229v683zM2048 1595h-229v-229h229v229z" />
</svg>