<svg xmlns="http://www.w3.org/2000/svg" xmlns:xlink="http://www.w3.org/1999/xlink" version="1.1" viewBox="-10 0 2068 2048">
   <path fill="currentColor"
d="M944 65l-54 49q-104 -59 -220 -68q-123 -9 -230 24l-10 -5q-79 -68 -179 -65q-103 3 -175 75t-75 175q-3 99 66 179l5 10q-35 110 -25 230q8 117 68 220l-48 54q-49 44 -49 106q0 63 49 112l145 145q44 49 108.5 49t109.5 -49l39 -39l731 732q44 49 107 49q62 0 111 -49
l582 -581q48 -48 48 -112q0 -62 -48 -106l-732 -732l39 -39q48 -43 48 -108.5t-48 -109.5l-145 -146q-48 -48 -112 -48q-63 0 -106 48zM1200 317l-881 883l-146 -151l877 -877zM1307 977l-329 329l-112 -106l334 -335zM1525 1200l-325 324l-111 -106l329 -330z" />
</svg>