<svg xmlns="http://www.w3.org/2000/svg" xmlns:xlink="http://www.w3.org/1999/xlink" version="1.1" viewBox="-10 0 2068 2048">
   <path fill="currentColor"
d="M779 91q-161 0 -275 114t-114 278q0 163 114 277q115 115 277 115q163 0 278 -115q114 -114 114 -277q0 -164 -114 -278t-280 -114zM779 678q-77 0 -135 -58q-57 -57 -57 -137q0 -81 57 -138t137 -57q81 0 138 57t57 138q0 80 -57 137q-58 58 -140 58zM2044 1773
l-403 -399q31 -77 13 -162q-18 -86 -82 -147q-65 -63 -151 -76t-170 23l183 184l-137 137l-192 -192q-36 79 -23 167q14 88 80 158q66 69 146 87q82 18 159 -13l398 403q14 14 32 14q19 0 28 -14l96 -101q22 -18 25 -39q3 -20 -2 -30zM692 1168q-9 27 -9 96q0 111 27 198
h-517v-97q0 -28 61 -71t168 -75q123 -42 270 -51zM779 971q-208 0 -389 53q-180 53 -285 144t-105 197v294h1072q-86 -69 -139 -172q-53 -104 -53 -223q0 -166 87 -284q-34 0 -89 -4q-68 -5 -99 -5z" />
</svg>