<svg xmlns="http://www.w3.org/2000/svg" xmlns:xlink="http://www.w3.org/1999/xlink" version="1.1" viewBox="-10 0 2068 2048">
   <path fill="currentColor"
d="M940 852v172h-172v172h-172v-172h-100q-29 77 -92 124q-64 48 -148 48q-108 0 -182 -74t-74 -184t74 -182t182 -72q84 0 148 46t92 122h444zM256 852q-40 0 -62 24q-22 23 -22 62t22 62q23 24 62 24q40 0 62 -24q22 -23 22 -62t-22 -62q-22 -24 -62 -24zM1364 1196
q128 0 280 36q169 43 280 112q124 84 124 192v172h-1364v-172q0 -108 124 -192q111 -69 276 -112q152 -36 280 -36zM1364 1024q-140 0 -240 -100t-100 -242t100 -242t242 -100t242 100t100 242t-100 242t-244 100z" />
</svg>