<svg xmlns="http://www.w3.org/2000/svg" xmlns:xlink="http://www.w3.org/1999/xlink" version="1.1" viewBox="-10 0 2068 2048">
   <path fill="currentColor"
d="M452 512q109 -121 256 -188q150 -68 316 -68t316 68q147 67 256 188h-268q-140 -84 -304 -84q-165 0 -304 84h-268zM1228 820v-136h-272q-56 0 -96 40t-40 96v136q0 56 40 96t96 40h136v136h-272v136h272q56 0 96 -40t40 -96v-136q0 -56 -40 -96t-96 -40h-136v-136h272z
M1572 684h-276v680h136v-272h140q56 0 96 -40t40 -96v-136q0 -56 -40 -96t-96 -40zM1572 956h-140v-136h140v136zM752 820v-136h-412v680h412v-136h-276v-136h276v-136h-276v-136h276zM1328 1536q-140 84 -304 84q-165 0 -304 -84h-268q109 121 256 188q150 68 316 68
t316 -68q147 -67 256 -188h-268zM1748 300l-92 92q123 123 194 288q70 162 70 344t-70 344q-71 165 -194 288l92 92q143 -139 222 -328q78 -188 78 -396t-78 -396q-79 -189 -222 -328zM392 392l-92 -92q-143 139 -222 328q-78 188 -78 396t78 396q79 189 222 328l92 -92
q-123 -123 -194 -288q-70 -162 -70 -344t70 -344q71 -165 194 -288z" />
</svg>