<svg xmlns="http://www.w3.org/2000/svg" xmlns:xlink="http://www.w3.org/1999/xlink" version="1.1" viewBox="-10 0 2058 2048">
   <path fill="currentColor"
d="M235 1364q0 187 92 344q92 156 248 248q157 92 344 92q221 0 400 -124q181 -125 260 -324l220 -552q16 -38 14 -84q-2 -43 -26 -80q-32 -48 -82 -68q-51 -20 -106 -4l-64 20q-60 12 -104 56v-504q0 -89 -64 -150q-65 -62 -152 -62q-33 0 -44 4q-17 -78 -74 -126
q-59 -50 -138 -50q-63 0 -118 38q-54 37 -78 98q-30 -8 -60 -8q-88 0 -150 62t-62 150v48q-11 -4 -44 -4q-88 0 -150 62t-62 150v768zM407 596q0 -16 12 -28t30 -12t30 12t12 28v428h172v-684q0 -16 12 -28t30 -12t30 12t12 28v684h172v-812q0 -16 12 -28t30 -12t30 12
t12 28v812h172v-640q0 -16 12 -30t29.5 -14t30.5 14q12 14 12 30v896h172l84 -212q19 -63 84 -80l44 -12l-220 560q-65 157 -202 248q-139 92 -302 92q-139 0 -258 -68t-186 -186q-68 -119 -68 -258v-768z" />
</svg>