<svg xmlns="http://www.w3.org/2000/svg" xmlns:xlink="http://www.w3.org/1999/xlink" version="1.1" viewBox="-10 0 2068 2048">
   <path fill="currentColor"
d="M1014 366q-234 0 -450 72q-214 72 -396 209l-168 -224q214 -162 474 -251q257 -88 539.5 -88t538.5 88q259 89 474 251l-168 224q-181 -137 -396 -209q-216 -72 -448 -72zM1344 995q132 -66 282 -66h22l44 -57q-146 -105 -320 -165t-358.5 -60t-359.5 60
q-173 60 -318 165l172 225q224 -168 506 -168q170 0 330 66zM1014 1211q-188 0 -340 115l340 449l30 -44q-30 -96 -30 -189q0 -178 92 -322q-48 -9 -92 -9zM2048 1542q0 176 -123 299t-299 123t-300 -123q-124 -124 -124 -299q0 -176 124 -300q124 -123 300 -123t299 123
t123 300zM1766 1784l-382 -383q-40 63 -40 141q0 113 82 198q80 83 200 83q79 0 140 -39zM1908 1542q0 -120 -84 -201t-198 -81q-80 0 -142 39l384 384q40 -63 40 -141z" />
</svg>