<svg xmlns="http://www.w3.org/2000/svg" xmlns:xlink="http://www.w3.org/1999/xlink" version="1.1" viewBox="-10 0 2058 2048">
   <path fill="currentColor"
d="M1806 0q78 0 135 57t57 135v1563q0 78 -57 135t-135 57h-100v101h-390v-101h-584v101h-388v-101h-102q-76 0 -134 -57q-58 -58 -58 -135v-1563q0 -77 58 -135q58 -57 134 -57h1564zM1514 973q0 -147 -78 -274l146 -146l-138 -137l-146 146q-127 -78 -273.5 -78t-274.5 78
l-138 -146l-146 146l146 146q-76 108 -76 261t76 279l-146 146l146 137l148 -146q108 77 260 77q153 0 278 -77l146 146l138 -137l-146 -146q78 -127 78 -275zM1024 681q124 0 208 84t84 208t-84 208q-84 85 -207 85t-208 -85t-85 -208t84 -208q84 -84 208 -84zM1024 1170
q82 0 139 -57t57 -140q0 -82 -57 -139t-139 -57t-139 57t-57 139q0 83 57 140t139 57z" />
</svg>