<svg xmlns="http://www.w3.org/2000/svg" xmlns:xlink="http://www.w3.org/1999/xlink" version="1.1" viewBox="-10 0 2068 2048">
   <path fill="currentColor"
d="M1014 366q-234 0 -450 72q-214 72 -396 209l-168 -224q214 -162 474 -251q257 -88 539.5 -88t538.5 88q259 89 474 251l-168 224q-181 -137 -396 -209q-216 -72 -448 -72zM1014 1211q-188 0 -340 115l340 449l118 -159q-26 -88 -26 -171q0 -105 44 -216q-76 -18 -136 -18
zM1318 987q141 -124 324 -146q-287 -194 -628 -194q-185 0 -360 60q-173 60 -318 165l172 225q224 -168 506 -168q155 0 304 58zM1670 1683q-98 0 -166 -71t-68 -167q0 -55 26 -106l-106 -101q-60 97 -60 207q0 158 110 268t264 110v141l210 -211l-210 -211v141zM1670 1070
v-141l-212 212l212 211v-141q96 0 166 69q72 69 72 165q0 57 -28 105l102 102q66 -93 66 -207q0 -155 -110 -265t-268 -110z" />
</svg>