<svg xmlns="http://www.w3.org/2000/svg" xmlns:xlink="http://www.w3.org/1999/xlink" version="1.1" viewBox="-10 0 2068 2048">
   <path fill="currentColor"
d="M1094 1998v-28q0 -110 -78 -188t-188 -78t-188 78t-78 188v28h-370q-76 0 -134 -58t-58 -134v-370h28q110 0 188 -78t78 -188t-78 -188t-188 -78h-28v-370q0 -76 58 -134t134 -58h298q17 -126 114 -210q96 -82 224 -82t224 82q97 84 114 210h298q76 0 134 58t58 134v298
q126 17 210 114q82 96 82 224v28q-92 -52 -202 -70q-13 -44 -52 -74q-40 -30 -84 -30h-146v-490h-490v-146q0 -58 -44 -102q-42 -44 -102 -44t-102 44q-44 44 -44 102v146h-490v210q135 52 214 166q80 114 80 260t-80 260q-79 114 -214 166v210h212q52 -136 164 -214
q114 -80 256 -80q141 0 260 78q-14 54 -14 114q0 162 82 294h-58zM1266 1608v198h782v-198h-782z" />
</svg>