<svg xmlns="http://www.w3.org/2000/svg" xmlns:xlink="http://www.w3.org/1999/xlink" version="1.1" viewBox="-10 0 2058 2048">
   <path fill="currentColor"
d="M1834 342q-54 0 -90 36t-36 89v471h-86v-725q0 -54 -38 -92t-92 -38q-53 0 -88 38q-36 39 -36 92v725h-86v-812q0 -72 -66 -108q-32 -18 -64.5 -18t-65.5 18q-64 36 -64 108v812h-82v-596q0 -52 -38 -91q-38 -38 -91 -38t-91 38q-40 39 -40 91v1019l-364 -207
q-23 -14 -54 -14q-38 0 -66 24l-110 106l666 677q102 101 246 101h624q140 0 240 -99t100 -242v-1240q0 -54 -38 -89q-38 -36 -90 -36zM940 1332q-42 0 -74 -29q-32 -28 -32 -72q0 -43 32 -74q32 -32 75 -32t71 32q28 31 28 74q0 44 -28 72q-28 29 -72 29zM1142 1639
q-44 0 -72 -28q-30 -29 -30 -72t30 -75q28 -31 72 -31t75 31t31 75t-31 72t-75 28zM1656 1433q-44 0 -73 -29t-29 -72t29 -72t72 -29t72 29t29 72t-29 72t-71 29zM1554 1740q-43 0 -73.5 -28t-30.5 -73q0 -44 30.5 -72t73.5 -28q44 0 72 28q30 29 30 72q0 44 -30 73
q-28 28 -72 28zM1348 1332q-42 0 -71 -29t-29 -72q0 -42 28.5 -74t72 -32t72.5 32t29 74q0 43 -29 72t-73 29z" />
</svg>