<svg xmlns="http://www.w3.org/2000/svg" xmlns:xlink="http://www.w3.org/1999/xlink" version="1.1" viewBox="-10 0 2058 2048">
   <path fill="currentColor"
d="M1210 188h-558v-188h558v188zM930 1630q0 170 92 318q-34 5 -92 5q-224 0 -418 -112q-192 -111 -304 -305q-114 -194 -114 -420q0 -225 114 -418q111 -190 304 -305q192 -114 418 -114q143 0 280 50q130 48 244 138l130 -135q63 55 130 130l-130 135q165 206 182 475
q-112 -48 -230 -48q-166 0 -306 81q-137 80 -218 220q-82 139 -82 305zM1022 558h-182v654h182v-654zM1954 1630q0 175 -122 296q-122 122 -296 122t-296 -122t-122 -296t122 -296t296 -122t296 122q122 121 122 296zM1676 1870l-380 -379q-38 61 -38 139q0 115 80 196
q81 83 198 83q78 0 140 -39zM1814 1630q0 -117 -82 -198q-83 -81 -196 -81q-78 0 -140 39l380 379q38 -62 38 -139z" />
</svg>