<svg xmlns="http://www.w3.org/2000/svg" xmlns:xlink="http://www.w3.org/1999/xlink" version="1.1" viewBox="-10 0 2068 2048">
   <path fill="currentColor"
d="M1586 2048h158q56 0 99.5 -39t48.5 -100l156 -1530h-466v-379h-182v379h-462l26 218q120 30 226 87q105 57 170 122q114 111 166 210q60 125 60 283v749zM0 1953v-92h1400v92q0 38 -30 67q-28 28 -66 28h-1208q-38 0 -66 -28q-30 -29 -30 -67zM1400 1303
q0 -213 -144 -357q-131 -130 -342.5 -177t-423.5 0q-210 46 -340 177q-150 144 -150 357h1400zM0 1491h1394v183h-1394v-183z" />
</svg>