<svg xmlns="http://www.w3.org/2000/svg" xmlns:xlink="http://www.w3.org/1999/xlink" version="1.1" viewBox="-10 0 2058 2048">
   <path fill="currentColor"
d="M768 0q-108 0 -182 74t-74 182t74 182t182 74q84 0 148 -46q63 -46 92 -126h188v172h168v-172h172v-168h-528q-29 -80 -92 -126q-64 -46 -148 -46zM768 172q40 0 62 22t22 62t-22 62t-62 22t-62 -22t-22 -62t22 -62t62 -22zM556 684q-45 0 -76 22q-33 23 -44 62l-180 512
v684q0 36 24 60t60 24h88q36 0 60 -24t24 -60v-88h1024v88q0 36 24 60t60 24h88q36 0 60 -24t24 -60v-684l-180 -512q-12 -36 -46 -60t-74 -24h-936zM556 812h936l128 384h-1192zM556 1364q48 0 88 40t40 90q0 51 -40 88q-41 38 -90 38q-50 0 -88 -38t-38 -88q0 -49 38 -90
q37 -40 90 -40zM1492 1364q53 0 90 40q38 41 38 90q0 50 -38 88t-88 38q-49 0 -90 -38q-40 -37 -40 -88q0 -50 40 -90t88 -40z" />
</svg>