<svg xmlns="http://www.w3.org/2000/svg" xmlns:xlink="http://www.w3.org/1999/xlink" version="1.1" viewBox="-10 0 2058 2048">
   <path fill="currentColor"
d="M1766 942v-567q0 -79 -54 -133t-132 -54h-388q-30 -82 -102 -135q-73 -53 -159.5 -53t-158.5 53t-102 135h-388q-80 0 -134 54t-54 133v1299q0 79 54 133t134 54h566q92 88 206 137q117 50 246 50q180 0 330 -87t237 -237t87 -329q0 -129 -50 -246q-50 -115 -138 -207z
M930 188q40 0 66 28q26 29 26 65q0 37 -26 66q-26 28 -65.5 28t-64.5 -28q-26 -29 -26 -66q0 -36 26 -65q25 -28 64 -28zM282 1674v-1299h182v183h932v-183h184v436q-131 -66 -280 -66h-836v188h384q-78 73 -130 183h-254v187h196q-8 48 -8 92q0 149 66 279h-436zM1300 1861
q-126 0 -232 -63q-107 -63 -168 -170q-60 -104 -60 -233t60 -233q61 -106 168 -168q105 -61 232.5 -61t233.5 61q107 62 170 168q62 106 62 233t-62 233q-64 107 -170 170q-107 63 -234 63zM1348 1421l266 157l-70 113l-334 -200v-467h138v397z" />
</svg>