<svg xmlns="http://www.w3.org/2000/svg" xmlns:xlink="http://www.w3.org/1999/xlink" version="1.1" viewBox="-10 0 2068 2048">
   <path fill="currentColor"
d="M664 0q166 0 314 77q145 76 238 214q91 137 110 300l722 433v207l-202 -125v942h-208v-1067l-306 -183v1250h-208v-1332h-922v1332h-202v-1385q0 -176 89 -331t243 -243q155 -89 332 -89zM664 202q-152 0 -268 86q-118 88 -166 222h870q-48 -135 -168 -222
q-118 -86 -268 -86zM408 923h514v202h-514v-202zM408 1332h514v206h-514v-206zM408 1740h514v207h-514v-207z" />
</svg>