<svg xmlns="http://www.w3.org/2000/svg" xmlns:xlink="http://www.w3.org/1999/xlink" version="1.1" viewBox="-10 0 2068 2048">
   <path fill="currentColor"
d="M1430 1642l106 102q-111 96 -300 152q-190 56 -410 56t-412 -56q-194 -57 -302 -150q-112 -94 -112 -206v-1032q0 -112 112 -206q108 -93 302 -150q192 -56 412 -56t410 56q189 56 300 152l-106 102l-38 44q-75 -58 -208 -98q-160 -48 -358 -48q-183 0 -338 40
q-129 35 -208 90q-72 44 -72 75.5t72 74.5q83 53 208 88q153 42 344 42q188 0 346 -48l98 102h-296v146q-82 8 -154 8q-182 0 -340 -38q-162 -39 -278 -102v290q104 74 265.5 117t352.5 43q72 0 154 -10v58h296l-102 106l14 10q-173 38 -362 38q-359 0 -618 -124v230
q0 30 72 74q81 57 208 92q151 38 338 38q194 0 358 -48q134 -36 208 -92zM1540 516l-148 146l260 260h-516v204h516l-260 260l148 146l508 -508z" />
</svg>