<svg xmlns="http://www.w3.org/2000/svg" xmlns:xlink="http://www.w3.org/1999/xlink" version="1.1" viewBox="-10 0 2058 2048">
   <path fill="currentColor"
d="M987 1677h-39l-35 -244q-156 -25 -279 -166l-227 92l-75 -123l197 -148q-57 -166 0 -336l-197 -127l75 -122l227 91q111 -127 279 -166l26 -244h140l35 244q86 14 157 59q76 48 122 107l227 -91l74 122l-196 140q26 84 26 166h48q54 0 140 17v-17l-9 -92l196 -149
q23 -26 9 -56l-188 -328q-4 -18 -17 -22q-12 -4 -39 -4l-232 92q-50 -41 -157 -92l-39 -253q9 -5 -7 -16t-28 -11h-375q-13 0 -29 11q-15 11 -15 24l-39 254q-34 9 -96 48l-61 35l-223 -92q-27 0 -39 4q-13 4 -26 22l-188 328q-13 22 17 56l197 149l-9 92l9 91l-197 162
q-22 22 -8 52l187 328q5 14 18 15q18 2 39 2l231 -91q47 38 157 91l40 254q0 14 13 24t30 10h236q-29 -38 -52 -96q-12 -27 -31 -96zM1384 957v-26q0 -153 -109 -262q-110 -110 -262 -110t-262 110q-109 109 -109 262t109 262t262 109q48 -118 149 -210t222 -135zM826 931
q0 -80 54 -134t133 -54t133 54q55 55 55 134q0 78 -55 133q-54 54 -133 54t-133 -54t-54 -133zM1572 1162v-140l-205 206l205 205v-131q97 0 164 67t67 169q0 60 -26 100l101 105q86 -125 56 -280q-30 -152 -157 -235q-78 -66 -205 -66zM1572 1769q-96 0 -164 -68
q-67 -67 -67 -163q0 -61 26 -105l-101 -101q-86 125 -56 278q30 150 157 233q114 66 205 66v139l205 -205l-205 -214v140z" />
</svg>