<svg xmlns="http://www.w3.org/2000/svg" xmlns:xlink="http://www.w3.org/1999/xlink" version="1.1" viewBox="-10 0 2058 2048">
   <path fill="currentColor"
d="M1788 271q-82 -78 -185 -120q-100 -41 -208 -41q-107 0 -205 41q-100 42 -183 120l-74 -78q96 -96 216 -144q122 -49 249 -49q126 0 248 49q120 48 216 144zM1705 345l-74 75q-96 -96 -236 -96q-139 0 -231 96l-74 -75q60 -65 142 -98q81 -33 166 -33t163 33
q80 34 144 98zM1675 931q79 0 133 54t54 133v372q0 79 -54 133t-133 54h-1301q-79 0 -133 -54q-55 -55 -55 -133v-372q0 -78 55 -133q54 -54 133 -54h930v-372h187v372h184zM653 1398v-188h-187v188h187zM976 1398v-188h-183v188h183zM1304 1398v-188h-188v188h188z
M557 1861h188v187h-188v-187zM933 1861h183v187h-183v-187zM1304 1861h187v187h-187v-187z" />
</svg>