<svg xmlns="http://www.w3.org/2000/svg" xmlns:xlink="http://www.w3.org/1999/xlink" version="1.1" viewBox="-10 0 2068 2048">
   <path fill="currentColor"
d="M1024 1214l374 -380l380 380h-290q-23 209 -90 384q-66 172 -164 270q-99 96 -210 96q-131 0 -242 -132t-168 -354l162 -92q36 176 102 284t146 108q98 0 174.5 -159t99.5 -405h-274zM0 1506l1200 -694l10 76l-328 326h6l-794 458zM1954 376l94 166l-472 270
q-15 -117 -36 -198zM1024 84q158 0 284 192q127 192 170 496l-80 -78l-106 104q-27 -231 -100 -378q-76 -150 -168 -150q-76 0 -136 92q-64 96 -102 254q-40 162 -44 356l-190 106v-54q0 -258 64 -472q64 -217 172 -342q108 -126 236 -126z" />
</svg>