<svg xmlns="http://www.w3.org/2000/svg" xmlns:xlink="http://www.w3.org/1999/xlink" version="1.1" viewBox="-10 0 2058 2048">
   <path fill="currentColor"
d="M510 0q-82 0 -142 60t-60 144q0 85 60 145t144 60t144 -60t60 -145q0 -84 -60 -144t-146 -60zM308 510q-86 0 -146 60t-60 146v616h206v716h510v-1067l258 452h250l106 -135v750h414v-510h100v-307q0 -87 -60 -147t-146 -60h-256q-91 0 -148 70q-55 66 -106 137h-34
l-378 -654q-17 -26 -58 -46q-44 -21 -96 -21h-356zM1638 615q-62 0 -108 44t-46 108t46 110t108 46t108 -46t46 -110t-46 -108q-45 -44 -108 -44z" />
</svg>