<svg xmlns="http://www.w3.org/2000/svg" xmlns:xlink="http://www.w3.org/1999/xlink" version="1.1" viewBox="-10 0 2068 2048">
   <path fill="currentColor"
d="M1930 1414v-146q0 -100 -86 -174q-83 -73 -188 -73q-107 0 -188.5 73t-81.5 174v146q-46 0 -83 37t-37 78v343q0 49 38 89q36 39 82 39h534q49 0 90 -37q38 -35 38 -82v-343q0 -51 -36 -87q-38 -37 -82 -37zM1802 1414h-294v-146q0 -59 44 -94q43 -34 106 -34t102 34
q42 35 42 94v146zM1070 829h196v192h-196v-192zM682 1021h-196v-192h196v192zM1070 1606h-96v-1362h490v626q97 -41 192 -41v-585q0 -81 -58 -139q-58 -57 -134 -57h-1170q-82 0 -140 57q-58 58 -58 139v1362h-96v197h1070v-197zM778 1606h-484v-1362h484v1362z" />
</svg>