<svg xmlns="http://www.w3.org/2000/svg" xmlns:xlink="http://www.w3.org/1999/xlink" version="1.1" viewBox="-10 0 2058 2048">
   <path fill="currentColor"
d="M652 0q-74 0 -130 55q-54 54 -54 133v370h184v-279h932v1490h-932v-278h-184v370q0 79 54 133t130 54h932q74 0 128 -54q54 -55 54 -133v-1673q0 -78 -55 -133t-127 -55h-932zM560 745q-118 0 -198 81q-80 80 -80 198q0 119 80 199t198 80q92 0 162 -50t100 -137h204v187
h182v-187h188v-183h-574q-30 -87 -100 -137q-72 -51 -162 -51zM560 933q44 0 68 24t24 67q0 44 -24 68t-68 24t-68 -24t-24 -68q0 -43 24 -67t68 -24z" />
</svg>