<svg xmlns="http://www.w3.org/2000/svg" xmlns:xlink="http://www.w3.org/1999/xlink" version="1.1" viewBox="-10 0 2058 2048">
   <path fill="currentColor"
d="M1865 788q-72 -121 -197 -194q-124 -73 -265 -77q-143 -5 -276 64v-526h-207v526q-132 -68 -275 -64q-142 4 -266 77q-125 73 -197 194q-73 112 -34 330q34 190 143 418q101 216 218 362q120 150 202 150q84 0 136 -19q30 -13 78 -45q24 -15 49 -29q19 -10 50 -10t49 10
q26 14 49 29q46 31 79 45q53 19 135 19t202 -150q120 -149 219 -362q109 -228 143 -418q39 -217 -35 -330zM1678 1143q-99 395 -369 699q-34 0 -64 -30q-98 -79 -221 -79t-222 79q-30 30 -64 30q-275 -304 -369 -695q-45 -122 -10 -241q44 -78 123 -128q77 -49 173 -49
q94 0 172 39l93 45h207l94 -45q78 -39 172 -39q95 0 172 49q79 50 123 128q35 119 -10 237zM920 266q-171 90 -305 109q-113 20 -206 -15q-74 -30 -128 -84q-42 -48 -69 -93l-15 -45l30 -39q50 -43 93 -64q75 -35 153 -35q97 0 201 59q119 65 246 207z" />
</svg>