<svg xmlns="http://www.w3.org/2000/svg" xmlns:xlink="http://www.w3.org/1999/xlink" version="1.1" viewBox="-10 0 2068 2048">
   <path fill="currentColor"
d="M1540 1654q-31 -86 -104 -139q-75 -53 -170 -53q-123 0 -208 83q-84 82 -84 208t84 210q86 85 208 85q97 0 170 -55q73 -56 104 -142h116v197h196v-197h196v-197h-508zM1266 1878q-50 0 -89 -36t-39 -89t40 -89q40 -37 88.5 -37t89.5 37q38 36 38 89t-39 89t-89 36z
M682 777h488v196h-488v-196zM682 388h488v197h-488v-197zM486 292q0 -46 27 -73t73 -27h776v1083q115 32 198 87v-1070q0 -46 27 -73t71 -27t71 27t27 73v96h192v-96q0 -128 -82 -210t-210 -82h-1070q-128 0 -210 82t-82 210v1070h192v-1070zM778 1755q0 -118 40 -197h-818
v96q0 128 84 211q82 82 210 82h524q-40 -79 -40 -192zM682 1362h292q115 -74 196 -87v-105h-488v192z" />
</svg>