<svg xmlns="http://www.w3.org/2000/svg" xmlns:xlink="http://www.w3.org/1999/xlink" version="1.1" viewBox="-10 0 2068 2048">
   <path fill="currentColor"
d="M1024 0q-278 0 -514 137q-235 136 -372 373q-138 236 -138 514t138 514q137 237 372 373q236 137 513.5 137t514.5 -137q236 -137 372 -373q138 -236 138 -514t-138 -514q-136 -236 -372 -373q-237 -137 -514 -137zM1024 1846q-221 0 -412 -111q-189 -110 -300 -300
q-110 -191 -110 -411t110 -411q112 -191 300.5 -301t411 -110t411 110t299.5 301q112 191 112 411t-112 411q-110 190 -300 300q-190 111 -410 111zM1384 923q62 0 108 -46q46 -45 46 -110t-46 -108q-45 -44 -110 -44q-64 0 -108 44q-44 43 -44 108q0 66 44 110
q44 46 110 46zM664 923q65 0 110 -46q44 -46 44 -110t-44 -108t-108 -44q-65 0 -110 44q-46 44 -46 108t46 110t108 46zM1024 1178q-178 0 -320 98q-142 99 -204 262h1048q-64 -164 -204 -262q-142 -98 -320 -98z" />
</svg>