<svg xmlns="http://www.w3.org/2000/svg" xmlns:xlink="http://www.w3.org/1999/xlink" version="1.1" viewBox="-10 0 2068 2048">
   <path fill="currentColor"
d="M572 0h906q156 0 284 77q131 78 208 208q78 129 78 286v906q0 157 -78 286q-77 130 -208 208q-128 77 -284 77h-906q-158 0 -286 -77q-131 -78 -208 -208q-78 -129 -78 -286v-906q0 -157 78 -286q77 -130 208 -208q128 -77 286 -77zM572 229q-144 0 -243 99t-99 243v906
q0 144 99 243t243 99h906q142 0 241 -99t99 -243v-906q0 -144 -99 -243t-241 -99h-906z" />
</svg>