<svg xmlns="http://www.w3.org/2000/svg" xmlns:xlink="http://www.w3.org/1999/xlink" version="1.1" viewBox="-10 0 2068 2048">
   <path fill="currentColor"
d="M2048 1933l-1920 -1933l-128 128l352 352q-68 118 -68 233q0 168 136 320q-136 184 -136 411v343q0 78 57 135t139 57h1266q32 0 92 -18l86 87zM696 818l-60 32q-60 -59 -60 -137v-9zM480 1787v-343q0 -133 104 -267q104 -136 258 -213l118 119q-137 45 -210 149
q-74 103 -74 262v96h192v-96q0 -96 20 -169q31 -119 118 -192l654 654h-1180zM1544 818l202 -201l292 292l-192 192q96 156 96 343v128l-206 -206q-27 -133 -143.5 -251t-276.5 -169l-232 -233q232 -14 460 105zM824 448l-206 -202q231 -118 498 -118q330 0 562 164
l-192 197q-80 -46 -174 -71q-95 -25 -196 -25q-180 0 -292 55z" />
</svg>