<svg xmlns="http://www.w3.org/2000/svg" xmlns:xlink="http://www.w3.org/1999/xlink" version="1.1" viewBox="-10 0 2068 2048">
   <path fill="currentColor"
d="M2048 1925l-1924 -1925l-124 124l484 489q-74 167 -114 333q-40 172 -40 298q0 201 98 368q97 166 266 265q168 98 366 98q162 0 302 -64q142 -65 242 -178l320 315zM1060 1783q-147 0 -270 -73q-123 -74 -194 -197q-70 -124 -70 -269q0 -200 110 -485l830 832
q-77 91 -182 142q-102 50 -224 50zM804 430l-142 -137q192 -265 398 -265q187 0 370 224q155 194 260 498q102 285 102 494q0 77 -18 160l-180 -179q-4 -183 -92 -423q-87 -235 -208 -404q-128 -178 -234 -178q-60 0 -126 57q-64 56 -130 153z" />
</svg>