<svg xmlns="http://www.w3.org/2000/svg" xmlns:xlink="http://www.w3.org/1999/xlink" version="1.1" viewBox="-10 0 2068 2048">
   <path fill="currentColor"
d="M558 1166v-288q-103 -49 -182 -113v401h182zM376 1536h-188v-187h-188v-183h188v-654h188v135q126 114 294 177t355 63t355 -63t294 -177v-135h186v654h188v183h-188v187h-186v-187h-1298v187zM1490 878v288h184v-401q-80 64 -184 113zM1394 1166v-253q-80 34 -182 52
v201h182zM1116 1166v-192l-92 4l-90 -4v192h182zM838 1166v-201q-103 -18 -184 -52v253h184z" />
</svg>