<svg xmlns="http://www.w3.org/2000/svg" xmlns:xlink="http://www.w3.org/1999/xlink" version="1.1" viewBox="-10 0 2068 2048">
   <path fill="currentColor"
d="M2048 378l-162 162l162 162l-162 160l162 162l-162 162l162 160h-968q0 137 -96 230.5t-230 93.5t-227 -93t-93 -231h-434v-750q0 -92 63 -155t155 -63h1830zM1726 540h-380v268h380v-268zM1186 540h-428v268h428v-268zM596 540h-434v268h434v-268zM758 1186
q-72 0 -116 48q-46 49 -46 112q0 65 46 114q44 48 112 48t116 -48t48 -114q0 -64 -48 -112t-112 -48z" />
</svg>