<svg xmlns="http://www.w3.org/2000/svg" xmlns:xlink="http://www.w3.org/1999/xlink" version="1.1" viewBox="-10 0 2068 2048">
   <path fill="currentColor"
d="M930 882h654v140h-654v-140zM930 602h838v140h-838v-140zM1864 280h-1026q-78 0 -133 55t-55 127v1306l376 -370h838q74 0 129 -55t55 -133v-748q0 -72 -55 -127t-129 -55zM1864 1210h-912l-114 114v-862h1026v748zM280 462q-42 0 -68 28q-24 25 -24 66q0 43 24 68
q25 26 68 26h188v-188h-188zM188 838q-44 0 -70 24q-26 25 -26 68t26 68q26 24 70 24h280v-184h-280zM92 1210q-40 0 -66 26t-26 68t26 68t66 26h376v-188h-376z" />
</svg>