<svg xmlns="http://www.w3.org/2000/svg" xmlns:xlink="http://www.w3.org/1999/xlink" version="1.1" viewBox="-10 0 2058 2048">
   <path fill="currentColor"
d="M1074 1367q0 82 -57 139t-139 57t-139 -57t-57 -139q0 -83 57 -140t139 -57t139 57t57 140zM294 1856v-978h1170v301q60 -9 98 -9t98 9v-301q0 -78 -57 -135t-139 -57h-96v-197q0 -130 -68 -244q-66 -114 -178 -179q-112 -66 -244 -66t-244 66q-112 65 -178 179
q-66 113 -66 244h196q0 -123 84 -208q84 -84 208 -84t208 84t84 208v197h-876q-84 0 -141 57t-57 135v978q0 78 57 135t141 57h762q-54 -86 -72 -192h-690zM1170 1659v197h782v-197h-782z" />
</svg>