<svg xmlns="http://www.w3.org/2000/svg" xmlns:xlink="http://www.w3.org/1999/xlink" version="1.1" viewBox="-10 0 2068 2048">
   <path fill="currentColor"
d="M1024 0q277 0 514 137q236 137 372 373q138 236 138 514t-138 514q-136 236 -372 373q-237 137 -514.5 137t-513.5 -137q-235 -136 -372 -373q-138 -236 -138 -514t138 -514q137 -237 372 -373q236 -137 514 -137zM1322 1106q-83 0 -144 50q-63 50 -82 132
q-72 -33 -144 -4q-20 -78 -82 -128t-144 -50q-98 0 -166 67q-70 67 -70 163q0 97 70 166q70 70 164 70t158 -62q66 -65 74 -154q68 -43 134 4q9 85 76 150q63 62 158 62q94 0 164 -70q68 -69 68 -166q0 -96 -68 -163q-69 -67 -166 -67zM726 1173q68 0 116 48t48 118t-48 118
t-118 48t-118 -48t-48 -118t48 -118t120 -48zM1322 1173q72 0 120 48t48 118t-48 118t-118 48t-118 -48t-48 -118t48 -118t116 -48zM1620 971h-1192v72h1192v-72zM1244 500q-15 -25 -36 -34q-22 -9 -46 -5l-138 49l-140 -49h-4q-25 -5 -46 8q-23 13 -32 36l-154 399h750z
" />
</svg>