<svg xmlns="http://www.w3.org/2000/svg" xmlns:xlink="http://www.w3.org/1999/xlink" version="1.1" viewBox="-10 0 2068 2048">
   <path fill="currentColor"
d="M266 136v534h-174v-534h174zM92 1912v-534h174v534h-174zM358 1024q0 74 -52 126q-52 54 -126 54t-128 -54q-52 -52 -52 -127t52 -127t127 -52t127 52t52 128zM1334 310q196 0 358 96q164 97 260 262t96 356q0 192 -96 356q-95 163 -260 260q-162 96 -358 96
q-239 0 -424 -140q-185 -142 -256 -364l-208 -208l208 -208q71 -222 256.5 -364t423.5 -142zM1334 490q-141 0 -264 70q-122 70 -196 194q-74 123 -74 269.5t74 268.5q74 125 196 194q123 72 266.5 72t267.5 -72q121 -69 192 -194q72 -123 72 -268.5t-72 -269.5
q-71 -124 -192 -194q-124 -70 -270 -70zM1246 1112v-442h134v370l266 164l-70 112z" />
</svg>