<svg xmlns="http://www.w3.org/2000/svg" xmlns:xlink="http://www.w3.org/1999/xlink" version="1.1" viewBox="-10 0 2058 2048">
   <path fill="currentColor"
d="M1420 221q0 -64 46 -106q47 -44 108.5 -44t105.5 44t44 106v46h-304v-46zM1350 801h446q36 0 61 -25t25 -62v-359q0 -38 -25 -63t-61 -25v-46q0 -91 -65 -156t-157 -65t-158 65t-66 156v46q-38 0 -63 25t-25 63v359q0 37 25 62t63 25zM682 1823q-222 -106 -364 -306
q-144 -202 -170 -449h-132q25 272 169.5 494t382.5 355q233 131 510 131l58 -4l-338 -338zM1996 1135l-230 -225l-126 125l202 196l-506 505l-1008 -1010l504 -505l188 188l124 -125l-216 -217q-41 -37 -95.5 -37t-96.5 37l-562 567q-42 38 -42 94t42 94l1066 1068
q42 42 96 42q55 0 92 -42l568 -563q36 -41 36 -96t-36 -96z" />
</svg>