<svg xmlns="http://www.w3.org/2000/svg" xmlns:xlink="http://www.w3.org/1999/xlink" version="1.1" viewBox="-10 0 2065 2048">
   <path fill="currentColor"
d="M1282 1005q-138 73 -226 201l-166 -310l-364 362l36 232l-100 100l-162 -297l-296 -166l96 -100l230 35l362 -363l-688 -362l130 -131l856 196l362 -362q40 -40 98 -40q57 0 100 40q42 38 42 98q0 59 -44 98l-362 363zM2032 1712q6 0 6 7q0 6 -6 11l-96 161q-8 9 -26 9
l-112 -39l-76 48l-16 122q0 4 -8 11q-6 6 -10 6h-188q-8 0 -26 -17l-22 -122q-39 -14 -74 -48l-110 48q-16 0 -30 -9l-92 -157q-8 -13 10 -31l104 -74v-92l-104 -74q-10 -9 -10 -31l92 -157q12 -8 30 -8l110 48l74 -48l22 -123q0 -17 26 -17h188q4 0 10 6q8 7 8 11l16 123
q32 10 88 48l110 -48q30 0 30 8l92 157q8 9 -10 31l-104 74v92zM1722 1581q0 -54 -40 -96q-43 -44 -96 -44q-54 0 -98 44t-44 98t44 96q43 42 98 42q54 0 96 -42q40 -41 40 -98z" />
</svg>