<svg xmlns="http://www.w3.org/2000/svg" xmlns:xlink="http://www.w3.org/1999/xlink" version="1.1" viewBox="-10 0 2068 2048">
   <path fill="currentColor"
d="M1266 1664q335 -56 682 -56v390h-1654q0 -32 100 -88q96 -53 270 -110q186 -59 406 -104v-632q-122 36 -192 152q-44 -78 -124 -124q-79 -46 -168.5 -46t-169.5 46q-78 46 -122 124q0 -174 102.5 -320.5t281.5 -241.5q178 -96 392 -114v-6q0 -41 30 -68q31 -28 70 -28
q42 0 70 28q26 28 26 68v6q215 18 394 114q178 95 280 242q103 145 108 320q-46 -78 -124 -124q-79 -46 -168.5 -46t-169.5 46q-78 46 -122 124q-70 -115 -198 -156v604zM486 50q0 133 -64 244q-65 112 -176 176q-112 64 -246 64v-484h486z" />
</svg>