<svg xmlns="http://www.w3.org/2000/svg" xmlns:xlink="http://www.w3.org/1999/xlink" version="1.1" viewBox="-10 0 2068 2048">
   <path fill="currentColor"
d="M396 890q119 238 302.5 421.5t421.5 302.5l240 -240q47 -47 108 -26q189 60 396 60q46 0 76 32q30 30 30 76v386q0 46 -30 76q-30 32 -76 32q-370 0 -714 -142q-346 -142 -606 -402q-262 -265 -402 -606q-142 -344 -142 -714q0 -46 31 -77t77 -31h386q46 0 77 31t31 77
q0 202 60 390q22 67 -24 114zM2048 224l-154 -154l-580 580l-252 -252l-154 154l406 406z" />
</svg>