<svg xmlns="http://www.w3.org/2000/svg" xmlns:xlink="http://www.w3.org/1999/xlink" version="1.1" viewBox="-10 0 2058 2048">
   <path fill="currentColor"
d="M1006 1072l5 -4v-44l-5 -48l105 -74q8 -8 4 -30l-96 -161q-9 -13 -30 -9l-118 48q-34 -30 -83 -48l-17 -122q0 -22 -22 -22h-187q-26 0 -26 22l-22 122q-38 20 -78 43l-118 -47q-21 -4 -30 13l-96 161q-9 17 4 30l105 74q-5 28 -5 48l5 48l-105 74q-13 9 -4 31l96 161
q4 13 30 13l118 -48q42 27 82 44l18 122q0 22 26 22h187q21 0 26 -22l18 -122q27 -12 78 -44l122 48q17 4 26 -13l101 -161q4 -18 -9 -31zM653 1186q-70 0 -117 -46q-48 -46 -48 -116q0 -68 48 -115q47 -46 117 -46t118 46q48 47 48 115q0 70 -48 116t-118 46zM1677 0h-932
q-74 0 -129 55q-54 54 -54 133v279h183v-188h932v1490h-932v-187h-183v279q0 79 54 133t129 54h932q74 0 128 -54q55 -55 55 -133v-1673q0 -78 -55 -133t-128 -55z" />
</svg>