<svg xmlns="http://www.w3.org/2000/svg" xmlns:xlink="http://www.w3.org/1999/xlink" version="1.1" viewBox="-10 0 2068 2048">
   <path fill="currentColor"
d="M1024 0q208 0 358 150t150 362q0 213 -150 363q-148 149 -358 149t-359 -149t-149 -363q0 -213 148 -362q150 -150 360 -150zM1024 258q-108 0 -183 75t-75 179q0 105 75 180t183 75t183 -75t75 -180q0 -104 -75 -179t-183 -75zM1024 1150q190 0 418 60q257 66 414 168
q192 126 192 287v383h-2048v-383q0 -162 192 -287q156 -102 412 -168q228 -60 420 -60zM1024 1396q-184 0 -372 47q-165 47 -286 114q-120 66 -120 108v138h1556v-138q0 -43 -120 -108q-120 -66 -288 -114q-188 -47 -370 -47z" />
</svg>