<svg xmlns="http://www.w3.org/2000/svg" xmlns:xlink="http://www.w3.org/1999/xlink" version="1.1" viewBox="-10 0 2068 2048">
   <path fill="currentColor"
d="M1024 36q173 0 306 110q131 109 162 275l82 -5q128 0 238 65q109 64 172 174q64 109 64 240q0 129 -68 241q-65 110 -178 174q58 107 58 233q0 125 -66 235q-64 109 -174 172q-107 62 -238 62q-103 0 -198 -42q-92 -41 -160 -119q-69 78 -162 119q-94 42 -196 42
q-131 0 -238 -62q-112 -64 -176 -172q-64 -110 -64 -240q0 -121 58 -228q-112 -63 -178 -174q-68 -112 -68 -241q0 -132 62 -240q64 -110 172 -174q111 -65 240 -65l80 5q32 -166 164 -275q132 -110 306 -110zM524 1775l656 -308h322q36 0 65 -29t29 -69v-667q0 -40 -30 -67
q-28 -27 -64 -27h-956q-37 0 -66 27q-28 27 -28 67v667q0 40 29 69t65 29h76z" />
</svg>