<svg xmlns="http://www.w3.org/2000/svg" xmlns:xlink="http://www.w3.org/1999/xlink" version="1.1" viewBox="-10 0 2068 2048">
   <path fill="currentColor"
d="M1136 912h-224v-229h224v229zM1136 453h-224q-96 0 -162 67q-66 66 -66 163v229q0 91 66 157q66 67 162 67h224v229h-452v230h452q96 0 163 -67t67 -163v-682q0 -96 -67 -163t-163 -67zM1818 1819h-1588v-1590h1588v1590zM1818 0h-1588q-96 0 -163 67t-67 162v1590
q0 95 67 162t163 67h1588q96 0 164 -67q66 -66 66 -162v-1590q0 -96 -66 -162q-68 -67 -164 -67z" />
</svg>