<svg xmlns="http://www.w3.org/2000/svg" xmlns:xlink="http://www.w3.org/1999/xlink" version="1.1" viewBox="-10 0 2068 2048">
   <path fill="currentColor"
d="M510 358l-202 202v106h-206q-44 0 -74 28q-28 28 -28 72v822q0 44 28 72q30 30 74 30h1844q44 0 73 -29t29 -73v-822q0 -42 -29 -71t-73 -29h-206v-106l-202 -202h-1028zM510 560h1028v106h-1028v-106zM922 766h202q24 0 39 15t15 36t-16 37q-14 14 -38 14h-202
q-24 0 -38 -14q-14 -16 -14 -37t15 -36t37 -15zM562 920q130 0 219 89t89 219t-90 220q-88 88 -218 88t-218 -88q-90 -90 -90 -220t89 -219t219 -89zM1484 920q130 0 219 89t89 219t-88 220q-88 88 -220 88q-130 0 -218 -88q-88 -90 -88 -220t89 -219t217 -89zM562 1074
q-62 0 -108 46t-46 108t46 108t108 46t108 -46t46 -108t-46 -108t-108 -46zM1484 1074q-62 0 -108 46q-44 46 -44 109t44 107q46 46 108 46q64 0 110 -46q44 -44 44 -107t-44 -109q-46 -46 -110 -46z" />
</svg>