<svg xmlns="http://www.w3.org/2000/svg" xmlns:xlink="http://www.w3.org/1999/xlink" version="1.1" viewBox="-10 0 2067 2048">
   <path fill="currentColor"
d="M987 708l-833 480q-35 18 -78 8q-41 -9 -62 -44.5t-9 -76t49 -63.5l829 -478q38 -24 78 -12q41 12 62 48q21 35 9 74q-12 40 -45 64zM1034 1680q0 -155 76 -292q75 -135 206 -218q133 -83 286 -96l142 -706h100v-204h-1818v204h99l81 384l596 -346q63 -38 133 -38
q103 0 177 74t74 176q0 73 -33 132q-33 58 -95 92l-748 430l118 612h644q-38 -101 -38 -204zM1238 1580v204h809v-204h-809z" />
</svg>