<svg xmlns="http://www.w3.org/2000/svg" xmlns:xlink="http://www.w3.org/1999/xlink" version="1.1" viewBox="-10 0 2068 2048">
   <path fill="currentColor"
d="M0 1819h1824v229h-1824v-229zM1984 69q-70 -69 -160 -69h-1824v1136q0 181 139 320t321 139h682q179 0 316 -139q136 -137 136 -320v-341h230q90 0 157 -67t67 -157v-342q0 -92 -64 -160zM1366 229v342v565q0 90 -68 160q-66 69 -156 69h-682q-92 0 -160 -69
q-70 -70 -70 -160v-907h452v160l-202 155q-20 16 -20 48v491q0 21 16 37t36 16h458q22 0 38 -16t16 -37v-491q0 -20 -22 -48l-202 -155v-160h566zM1824 571h-230v-342h230v342z" />
</svg>