<svg xmlns="http://www.w3.org/2000/svg" xmlns:xlink="http://www.w3.org/1999/xlink" version="1.1" viewBox="-10 0 2058 2048">
   <path fill="currentColor"
d="M1882 2022l-188 -187q-22 57 -68 87q-46 31 -102 31h-196q-13 -202 -86 -371h200l-850 -845v196q-84 -38 -182 -61v-323l-362 -361l118 -118l1834 1835zM1524 375v815l184 187v-1189q0 -78 -55 -133t-129 -55h-932q-51 0 -94 29q-41 28 -66 72l274 274h818zM130 1769v279
h280q0 -117 -84 -198q-82 -81 -196 -81zM130 1395v187q127 0 234 63q106 63 168 170q60 106 60 233h188q0 -179 -87 -329t-237 -237t-326 -87zM130 1024v188q226 0 418 111q193 111 306 305q114 196 114 420h182q0 -278 -138 -514q-135 -233 -372 -372q-235 -138 -510 -138z
" />
</svg>