<svg xmlns="http://www.w3.org/2000/svg" xmlns:xlink="http://www.w3.org/1999/xlink" version="1.1" viewBox="-10 0 2068 2048">
   <path fill="currentColor"
d="M230 1707l394 -512l288 341l394 -512l512 683h-1588zM230 1024v-229q155 0 286 -75q130 -75 204 -205q74 -129 74 -286h230q0 213 -106 398q-107 184 -290 290q-186 107 -398 107zM230 229h342q0 138 -102 240t-240 102v-342zM1818 0h-1588q-96 0 -163 67t-67 162v1590
q0 95 67 162t163 67h1588q96 0 164 -67q66 -66 66 -162v-1590q0 -96 -66 -162q-68 -67 -164 -67z" />
</svg>