<svg xmlns="http://www.w3.org/2000/svg" xmlns:xlink="http://www.w3.org/1999/xlink" version="1.1" viewBox="-10 0 2068 2048">
   <path fill="currentColor"
d="M154 1690q62 0 108 46q46 44 46 110q0 65 -46 108q-44 44 -110 44t-109 -43t-43 -109t44 -110q44 -46 110 -46zM664 1382q104 0 181 77t77 183q0 104 -76 180q-77 74 -182 74q-106 0 -181 -75t-75 -179q0 -106 76 -182q75 -78 180 -78zM1278 1282q-91 0 -170.5 -36.5
t-137.5 -103.5q-52 67 -133 103.5t-173 36.5q-149 0 -262.5 -97.5t-141.5 -240.5q-115 -43 -188 -146q-72 -104 -72 -234q0 -172 120 -292t288 -120l78 8q123 -110 282 -110q92 0 172 36q80 37 136 104q52 -66 136 -104q80 -36 172 -36q149 0 262 96q113 98 142 240
q116 44 188 148q72 103 72 232q0 172 -121 293t-289 121l-76 -10q-125 112 -284 112zM408 358q-86 0 -146 60q-60 62 -60 145t60 143t146 60q50 0 96 -18q-42 51 -42 124q0 82 60 142t148 60q91 0 148 -66l152 -174l154 174q68 66 154 66q78 0 134.5 -47.5t71.5 -124.5
q58 72 154 72q88 0 148 -60t60 -144q0 -86 -60 -146t-148 -60q-46 0 -96 20q44 -51 44 -124q0 -82 -60 -142t-146 -60q-87 0 -150 66l-158 174l-150 -174q-62 -66 -154 -66q-76 0 -133 47.5t-73 124.5q-56 -72 -154 -72zM664 1536q-44 0 -73 32t-29 74t29 71t73 29
q41 0 74 -28q30 -29 30 -72q0 -44 -30 -74q-32 -32 -74 -32z" />
</svg>