<svg xmlns="http://www.w3.org/2000/svg" xmlns:xlink="http://www.w3.org/1999/xlink" version="1.1" viewBox="-10 0 2068 2048">
   <path fill="currentColor"
d="M1770 558q-4 -17 -10 -57q-13 -70 -52 -126q-48 -83 -134 -131q-108 -56 -270 -56q-201 0 -370 48q-112 -97 -232 -127q-230 -61 -422 131l240 240q-131 140 -196 344q-53 161 -66 362q-9 140 8 283l14 113l-44 4q-51 14 -96 44q-60 39 -96 109q-44 88 -44 214l376 -92
l370 92q0 -128 -44 -214q-35 -70 -96 -109q-44 -30 -96 -44l-44 -4l14 -57q20 -73 52 -139q45 -97 110 -174q81 -94 186 -161q136 -76 288 -101v262q127 0 196 -100q55 -67 74 -179h196q259 0 370 -61q96 -43 96 -127q0 -64 -102 -126q-102 -61 -176 -61zM1582 654
q-40 0 -66 -28q-26 -29 -26 -66q0 -36 26 -65q26 -28 66 -28t66 28q26 29 26 65q0 37 -26 66q-26 28 -66 28z" />
</svg>