<svg xmlns="http://www.w3.org/2000/svg" xmlns:xlink="http://www.w3.org/1999/xlink" version="1.1" viewBox="-10 0 2068 2048">
   <path fill="currentColor"
d="M1412 946q0 -60 -12 -165v-4h328q14 56 18 100q107 9 202 46q-14 -250 -146 -464q-132 -212 -352 -336q-220 -123 -480 -123q-262 0 -484 130q-224 130 -354 354q-132 224 -132 489t132 489q131 225 353.5 355t488.5 130q122 0 242 -32q-119 -149 -142 -338
q-56 107 -100 173q-128 -189 -188 -388h302q28 -102 82 -192h-424q-14 -101 -14 -197q0 -95 14 -196h456q14 118 14 196q0 65 -8 147q82 -110 204 -174zM220 1170q-28 -109 -28 -197q0 -87 28 -196h330q-14 118 -14 196q0 79 14 197h-330zM298 1362h288q55 198 136 347
q-132 -44 -244 -135q-106 -87 -180 -212zM586 585h-288q75 -127 180 -213q112 -91 244 -135q-80 148 -136 348zM786 585q60 -201 188 -389q127 186 188 389h-376zM1650 585h-288q-52 -191 -136 -348q132 44 244 135q105 86 180 213zM2048 1508q0 120 -68 215l-106 -105
q28 -51 28 -110q0 -101 -74 -171q-74 -71 -172 -71v146l-220 -219l220 -220v147q164 0 278 114t114 274zM1656 1609l218 219l-218 220v-147q-162 0 -276 -114t-114 -279q0 -115 64 -215l110 105q-28 58 -28 110q0 100 72 174q70 73 172 73v-146z" />
</svg>