<svg xmlns="http://www.w3.org/2000/svg" xmlns:xlink="http://www.w3.org/1999/xlink" version="1.1" viewBox="-10 0 2068 2048">
   <path fill="currentColor"
d="M2039 1642l-106 -78l5 -50q0 -25 -5 -50l106 -78q14 -14 4 -34l-101 -170q-4 -14 -27 -14l-125 52q-51 -36 -82 -46l-19 -130q0 -22 -23 -22h-193q-23 0 -28 22l-18 130q-41 15 -83 46l-124 -52q-23 0 -28 14l-96 170q-14 20 4 34l102 78v50v50l-102 78q-18 14 -4 34
l96 170q5 14 28 14l124 -52q51 35 83 46l18 130q5 22 28 22h193q23 0 23 -22l23 -130q26 -12 78 -46l125 52q23 0 32 -14l96 -170q10 -20 -4 -34zM1570 1662q-60 0 -104 -44t-44 -104t44 -104t104 -44q59 0 103 44t44 104t-44 104t-103 44zM1533 64q-27 -22 -60 -22h-1376
q-31 0 -62 22q-29 23 -34 64q-4 43 18 74l469 598v506q-4 48 33 80l391 394q15 15 36 24q-64 -137 -64 -290q0 -134 51 -260q53 -129 142 -224v-230l474 -598q24 -32 19 -74q-4 -40 -37 -64zM884 732v740l-198 -198v-538l-386 -496h971z" />
</svg>