<svg xmlns="http://www.w3.org/2000/svg" xmlns:xlink="http://www.w3.org/1999/xlink" version="1.1" viewBox="-10 0 2058 2048">
   <path fill="currentColor"
d="M923 0q-399 0 -581 67q-241 96 -241 342v1024q0 138 106 230v183q0 43 29 72t72 29h101q42 0 74 -29t32 -72v-106h615q-97 -170 -106 -355q4 -137 70 -262q65 -124 175 -200h-961v-514h1230v408h53q78 0 154 24v-432q0 -246 -240 -342q-182 -67 -582 -67zM462 1231
q64 0 108 43q46 44 46 108q0 65 -46 111q-45 45 -108 45t-108 -45q-46 -46 -46 -111q0 -64 46 -108q44 -43 108 -43zM1591 1024q-150 0 -255 106t-105 255q0 116 91 288q66 122 173 264l96 111l91 -111q107 -142 173 -264q92 -173 92 -288q0 -147 -106 -255
q-105 -106 -250 -106zM1591 1514q-53 0 -89 -36t-36 -86q0 -51 36 -87t87 -33q50 3 86 36t39 86t-36 89t-87 31z" />
</svg>