<svg xmlns="http://www.w3.org/2000/svg" xmlns:xlink="http://www.w3.org/1999/xlink" version="1.1" viewBox="-10 0 2068 2048">
   <path fill="currentColor"
d="M2000 716h-516l194 -192q-117 -150 -286 -236q-170 -86 -368 -86q-223 0 -411.5 110t-300.5 301q-110 191 -110 411q0 278 168 495q96 -111 266 -175q173 -65 387.5 -65t386.5 65t268 175q168 -216 168 -495h202q0 278 -138 514q-136 236 -372 373q-237 137 -514.5 137
t-513.5 -137q-235 -136 -372 -373q-138 -236 -138 -514t138 -514q137 -237 372 -373q236 -137 514 -137q235 0 444 101q210 101 354 279l178 -178v514zM1024 510q130 0 218 91q90 92 90 219t-89 216t-219 89t-220 -89q-88 -88 -88 -216t88.5 -219t219.5 -91z" />
</svg>