<svg xmlns="http://www.w3.org/2000/svg" xmlns:xlink="http://www.w3.org/1999/xlink" version="1.1" viewBox="-10 0 2058 2048">
   <path fill="currentColor"
d="M1125 716h567l-567 -562v562zM409 0h822l615 615v1231q0 82 -60 142t-147 60h-1230q-86 0 -146 -60q-61 -61 -61 -142v-1644q0 -81 61 -142q60 -60 146 -60zM1404 1332q-28 -129 -135 -219q-106 -89 -245 -89q-111 0 -202 55q-90 55 -139 152q-117 15 -195 101
q-79 86 -79 209q0 122 89 214q88 91 219 91h668q105 0 180 -77q74 -75 74 -180q0 -104 -69 -176t-166 -81z" />
</svg>