<svg xmlns="http://www.w3.org/2000/svg" xmlns:xlink="http://www.w3.org/1999/xlink" version="1.1" viewBox="-10 0 2058 2048">
   <path fill="currentColor"
d="M1860 933q0 254 -109 488q-111 238 -300 401q-191 164 -427 226q-236 -62 -427 -226q-189 -163 -300 -401q-109 -234 -109 -488v-558l836 -375l836 375v558zM1024 1861q171 -48 320 -187q150 -139 240 -332q89 -190 89 -392v-457l-649 -288l-649 288v457q0 202 89 392
q90 193 240 332q149 139 320 187zM745 1242q77 95 201 133q122 38 243 5q123 -33 205 -133q13 -17 7 -42q-6 -23 -33 -28q-94 -14 -170 -65q-78 -52 -126 -138q-49 -88 -55 -178q-6 -94 24 -181q9 -23 -6 -42t-37 -15q-151 30 -248 146t-101 266q-5 150 96 272z" />
</svg>