<svg xmlns="http://www.w3.org/2000/svg" xmlns:xlink="http://www.w3.org/1999/xlink" version="1.1" viewBox="-10 0 2058 2048">
   <path fill="currentColor"
d="M1600 1346l192 -1245h-408v-101h-412v101h-510q-86 0 -146 60t-60 147v408q0 87 60 147t146 60h226l66 423q-88 70 -140 176q-52 103 -52 218v106q0 82 60 142t148 60h816q86 0 146 -60t60 -142v-106q0 -117 -50 -218q-51 -105 -142 -176zM462 716v-408h134l62 408h-196z
M1552 308l-138 923h-472l-140 -923h750zM1586 1846h-816v-106q0 -124 88 -216q89 -91 218 -91h202q131 0 220 91q88 92 88 216v106zM1178 1538q42 0 71 29t29 72t-29 72t-72 29t-72 -29t-29 -72t29 -72t73 -29z" />
</svg>