<svg xmlns="http://www.w3.org/2000/svg" xmlns:xlink="http://www.w3.org/1999/xlink" version="1.1" viewBox="-10 0 2068 2048">
   <path fill="currentColor"
d="M1846 817v-307l-308 -308h-1028l-308 308v307q-82 0 -142 60t-60 147t60 147t142 60v408q0 86 60 147q60 60 146 60h1230q88 0 148 -60t60 -147v-408q82 0 142 -60t60 -147t-60 -147t-142 -60zM1024 1433q-168 0 -288 -121q-120 -120 -120 -288t120 -288
q120 -121 287 -121t288 121t121 288t-121 288t-287 121zM1230 1024q0 87 -60 147t-146 60t-146 -60t-60 -147t60 -147t146 -60t146 60t60 147z" />
</svg>