<svg xmlns="http://www.w3.org/2000/svg" xmlns:xlink="http://www.w3.org/1999/xlink" version="1.1" viewBox="-10 0 2058 2048">
   <path fill="currentColor"
d="M1137 0q-210 0 -387 101q-179 103 -288 275q-109 174 -120 381l-218 288q-22 28 -6 59q17 32 54 32h170v341q0 96 67 163t163 67h112v341h794v-533q207 -95 333 -291q125 -193 125 -429q0 -214 -106 -398q-105 -183 -290.5 -290t-402.5 -107zM1600 747l-224 58l166 166
q26 30 26 74q0 43 -29 72q-30 30 -72 30q-41 0 -69 -32l-165 -160l-59 218q-10 43 -48 64q-37 21 -77 11q-41 -11 -62 -48q-20 -37 -10 -75l58 -224l-224 59q-41 10 -77 -11q-34 -21 -45 -61q-10 -40 10 -77q21 -37 59 -48l224 -59l-165 -165q-27 -31 -27 -72q0 -42 29 -72
q31 -32 72 -32q43 0 70 32l165 165l64 -224q7 -43 43 -64q38 -21 77 -11q40 10 61 48q22 38 11 80l-59 224l224 -64q42 -10 80 11t48 64q11 42 -10.5 77t-64.5 46z" />
</svg>