<svg xmlns="http://www.w3.org/2000/svg" xmlns:xlink="http://www.w3.org/1999/xlink" version="1.1" viewBox="-10 0 2067 2048">
   <path fill="currentColor"
d="M1576 1043l-321 -327l-144 144l465 471l471 -471l-144 -144zM818 1125v-817q0 -130 -89 -219q-88 -88 -216 -88t-219 88t-91 219v817q-110 86 -162.5 210.5t-36 259t97.5 248.5q81 112 209 165q128 52 262 36q134 -17 247.5 -98.5t166 -209t35.5 -261.5
q-16 -132 -99 -245q-42 -63 -105 -105zM510 202q43 0 75 32q31 31 31 74v307h-206v-307q0 -43 31 -74q32 -32 69 -32z" />
</svg>