<svg xmlns="http://www.w3.org/2000/svg" xmlns:xlink="http://www.w3.org/1999/xlink" version="1.1" viewBox="-10 0 2068 2048">
   <path fill="currentColor"
d="M2032 853q-17 -38 -58 -48q-20 -10 -38 -10h-230v-112q0 -70 -58 -102q-26 -10 -54 -10h-228v-118q0 -69 -60 -96q-26 -16 -52 -16h-118v-229q0 -69 -54 -96q-30 -16 -58 -16q-276 0 -512 139q-234 138 -372 373q-140 236 -140 512t140 512q138 235 372 373
q236 139 512 139t512 -139t374 -373t138 -512q0 -94 -16 -171zM944 1813q57 -10 98 -56q40 -44 40 -112q0 -67 -50 -117q-50 -51 -122 -51t-120 51t-48 120q0 90 74 144q-222 -58 -384 -235q-160 -175 -192 -405q-10 -61 -10 -171q6 65 54 110t117 45t120 -48t51 -120
t-52 -123q-50 -50 -120 -50q-59 0 -103.5 34t-60.5 88q37 -260 224 -453q185 -191 452 -229v165q0 69 48 120t122 51h54v53q0 76 50 123q52 48 120 48h172v58q0 70 50 120q50 51 120 51h170q0 230 -116 419q-118 189 -320 293q-204 104 -438 77zM742 683q-74 0 -122 -51
t-48 -120t48 -120t118 -51q72 0 123 51t51 120t-51 120t-119 51zM1136 1083q0 69 -48 120q-47 50 -119.5 50t-122.5 -50q-52 -51 -52 -123t51 -120t123 -48t120 48t48 123zM1706 1307q0 74 -51 122t-120 48t-119 -48q-50 -47 -50 -120q0 -72 50 -122q50 -51 119 -51t120 51
t51 120z" />
</svg>