<svg xmlns="http://www.w3.org/2000/svg" xmlns:xlink="http://www.w3.org/1999/xlink" version="1.1" viewBox="-10 0 2058 2048">
   <path fill="currentColor"
d="M423 1846h615v101q0 44 -31 72q-32 29 -70 29h-413q-38 0 -70 -29q-31 -28 -31 -72v-101zM937 1322v111h-413v-246q-135 -63 -221 -189q-87 -128 -87 -282q0 -137 70 -257q68 -116 188 -187q119 -70 252 -70q134 0 254 72q81 -72 197 -120q-196 -154 -446 -154
q-197 0 -361 96q-162 95 -259 260q-96 164 -96 360q0 178 81 334q81 157 226 253v235q0 38 29 70q28 31 72 31h615q44 0 72 -31q29 -32 29 -70v-72q-122 -58 -202 -144zM1951 812l-48 -168l130 -110l-168 -5l-68 -164l-57 169l-173 9l139 106l-43 168l144 -96zM1769 1048
q-106 -15 -193 -75q-85 -58 -141 -156q-56 -97 -65 -204q-9 -111 29 -209q9 -24 -8 -46q-17 -21 -45 -17q-173 33 -279 166q-107 134 -111 303q-5 171 106 310q92 116 228 156q140 41 274 3q138 -39 233 -154q14 -18 5 -46q-9 -26 -33 -31z" />
</svg>