<svg xmlns="http://www.w3.org/2000/svg" xmlns:xlink="http://www.w3.org/1999/xlink" version="1.1" viewBox="-10 0 2068 2048">
   <path fill="currentColor"
d="M1624 1502h-192v-630h192v630zM1638 646q0 50 -33 83t-79 33t-80 -34t-34 -82t34 -82q34 -32 80 -32t79 33t33 81zM2028 1502h-192v-630h192v630zM2048 646q0 48 -34 82t-80 34t-79 -33t-33 -82t33 -82t79 -33t80 32q34 34 34 82zM1114 594h208l-232 802q-20 51 -42 78
q-44 42 -96 42q-77 0 -126 -82q-24 -40 -28 -76l-140 -500l-148 538q-20 49 -48 78q-39 42 -92 42q-76 0 -124 -82q-25 -40 -30 -76l-216 -764h202l178 678l144 -554q19 -87 82 -120q26 -14 52 -14l30 4q31 9 56 34q38 38 54 96l140 554z" />
</svg>