<svg xmlns="http://www.w3.org/2000/svg" xmlns:xlink="http://www.w3.org/1999/xlink" version="1.1" viewBox="-10 0 2068 2048">
   <path fill="currentColor"
d="M1638 1332h-206v206h206v-206zM1638 923h-206v202h206v-202zM1846 1740h-822v-202h206v-206h-206v-207h206v-202h-206v-207h822v1024zM818 510h-202v-202h202v202zM818 923h-202v-207h202v207zM818 1332h-202v-207h202v207zM818 1740h-202v-202h202v202zM408 510h-206
v-202h206v202zM408 923h-206v-207h206v207zM408 1332h-206v-207h206v207zM408 1740h-206v-202h206v202zM1024 510v-409h-1024v1846h2048v-1437h-1024z" />
</svg>