<svg xmlns="http://www.w3.org/2000/svg" xmlns:xlink="http://www.w3.org/1999/xlink" version="1.1" viewBox="-10 0 2068 2048">
   <path fill="currentColor"
d="M2048 1492v344q0 46 -38 80q-39 34 -90 34h-534q-46 0 -83 -37t-37 -87v-342q0 -46 38 -84q36 -36 82 -36v-242q0 -101 82 -172q83 -70 188 -70q104 0 188 70q86 72 86 172v50h-128v-50q0 -55 -42 -92q-40 -36 -102 -36t-106 36q-44 37 -44 92v242h422q46 0 82 39t36 89z
M1560 294h-1368v1362h878v198h-878q-76 0 -134 -58t-58 -140v-1362q0 -80 58 -138t134 -58h1368q82 0 139 57t57 139v398l-100 -8l-96 8v-398zM682 588l488 388l-488 388v-776z" />
</svg>