<svg xmlns="http://www.w3.org/2000/svg" xmlns:xlink="http://www.w3.org/1999/xlink" version="1.1" viewBox="-10 0 2068 2048">
   <path fill="currentColor"
d="M1142 1195q0 63 -32 106q-33 43 -86 43q-52 0 -94 -43q-40 -41 -40 -106v-80l16 -27q19 -23 46 -40q32 -19 66 -13q54 0 88 48q36 49 36 112zM2048 229v1590q0 96 -66 162q-68 67 -164 67h-1588q-96 0 -163 -67t-67 -162v-1590q0 -95 67 -162t163 -67h1588q96 0 164 67
q66 66 66 162zM1312 1184q0 -149 -86 -229q-65 -59 -144 -59q-52 0 -106 21q-31 10 -58 32l-22 22l6 -38q6 -44 32 -80q30 -47 84 -74q66 -38 166 -38v-133h-74q-82 10 -160 43q-102 48 -160 144q-69 117 -76 304q0 166 64 261q49 80 134 107q65 21 138 21l60 -11l58 -21
q60 -38 96 -91q54 -75 48 -181z" />
</svg>