<svg xmlns="http://www.w3.org/2000/svg" xmlns:xlink="http://www.w3.org/1999/xlink" version="1.1" viewBox="-10 0 2068 2048">
   <path fill="currentColor"
d="M1024 2048h-90v-610q-78 65 -176 105q-96 39 -200 39q-148 0 -276 -76q-128 -75 -204 -205q-78 -130 -78 -277v-91h610q-64 -76 -104 -174t-40 -201q0 -147 78 -277q75 -128 204 -204q129 -77 276 -77h92v610q74 -63 174 -104q96 -39 200 -39q149 0 278 76
q127 75 204 205q76 128 76 276v92h-610q65 76 104 174q40 96 40 201q0 148 -76 276q-77 130 -204 205q-129 76 -278 76zM1116 1129v719q122 -30 200 -130.5t78 -226.5q0 -127 -78 -227q-77 -100 -200 -135zM202 1116q30 123 130 200q101 79 226 79t226 -79q101 -78 136 -200
h-718zM1128 933h720q-31 -122 -134 -201q-102 -78 -226 -78q-123 0 -224 78q-101 79 -136 201zM934 201q-123 30 -202 133q-78 102 -78 226t78 225q78 100 202 135v-719z" />
</svg>