<svg xmlns="http://www.w3.org/2000/svg" xmlns:xlink="http://www.w3.org/1999/xlink" version="1.1" viewBox="-10 0 2068 2048">
   <path fill="currentColor"
d="M800 954q-55 96 -80 198q-123 8 -258 46q-117 40 -192 82q-80 46 -80 78v108h530q25 101 80 194h-800v-302q0 -126 146 -226q128 -79 330 -132q181 -46 324 -46zM800 50q170 0 288 118t118 286q0 132 -86 246q-125 45 -226 146l-94 8q-164 0 -282 -118t-118 -284
t118 -284t282 -118zM800 242q-84 0 -145 61t-61 149t61 149t149 61q86 0 147 -61t61 -149t-61 -149t-151 -61zM1356 854q188 0 320 132t132 320q0 133 -70 240l310 312l-142 140l-314 -310q-109 70 -236 70q-188 0 -320 -132t-132 -320t132 -320t320 -132zM1356 1058
q-105 0 -178 72q-76 74 -76 176.5t76 177.5q74 72 178 72t177 -73t73 -177t-74 -176q-72 -72 -176 -72z" />
</svg>