<svg xmlns="http://www.w3.org/2000/svg" xmlns:xlink="http://www.w3.org/1999/xlink" version="1.1" viewBox="-10 0 2068 2048">
   <path fill="currentColor"
d="M342 0h-342v341q146 0 244 -98t98 -243zM1254 0h-230q0 276 -138 512q-139 235 -374 373q-235 139 -512 139v229q343 0 630 -170q288 -171 456 -456t168 -627zM794 0h-222q0 154 -78 285q-78 130 -208 208q-131 78 -286 78v224q218 0 400 -107q182 -106 288 -288
q106 -181 106 -400zM794 2048h230q0 -278 138 -512q139 -235 374 -373q235 -139 512 -139v-229q-342 0 -630 168t-456 456t-168 629zM1706 2048h342v-341q-144 0 -242 98q-100 99 -100 243zM1254 2048h224q0 -156 76 -285q78 -130 208 -208q131 -78 286 -78v-224
q-218 0 -400 107q-180 106 -287 288t-107 400z" />
</svg>