<svg xmlns="http://www.w3.org/2000/svg" xmlns:xlink="http://www.w3.org/1999/xlink" version="1.1" viewBox="-10 0 2058 2048">
   <path fill="currentColor"
d="M1117 188q179 0 329 87q152 88 238 237q87 150 87 325q0 190 -103 351q-102 159 -272 237v436h-649v-279h-91q-79 0 -133 -54q-55 -55 -55 -133v-279h-139q-29 0 -42.5 -26t3.5 -48l178 -236q9 -172 98 -311q90 -141 236 -224q147 -83 315 -83zM869 597h179
q5 -43 28.5 -65t62.5 -22q40 0 66 26t26 70q0 42 -20 76q-19 32 -59 55q-71 49 -98 85q-28 37 -28 111h187q0 -47 11 -72q10 -22 46 -46q64 -33 104 -89q40 -55 40 -120q0 -105 -74 -168q-73 -63 -199 -63q-123 0 -198 55q-74 54 -74 163v4zM1026 1212h187v-188h-187v188z
M1117 0q-208 0 -389 98q-182 99 -298.5 266t-139.5 373l-148 196h-5q-38 52 -43 118q-4 64 26 126q52 100 161 122v96q0 131 81 231t198 130v292h1023v-514q177 -116 273 -298q98 -185 98 -399q0 -226 -111 -418q-110 -190 -305 -305q-193 -114 -421 -114z" />
</svg>