<svg xmlns="http://www.w3.org/2000/svg" xmlns:xlink="http://www.w3.org/1999/xlink" version="1.1" viewBox="-10 0 2065 2048">
   <path fill="currentColor"
d="M1331 1741q0 -42 -29 -74q-28 -31 -72 -31h-105v-202h412q82 0 142 -60t60 -146v-1022q0 -86 -60 -146t-142 -60h-1026q-81 0 -141 60t-60 146v1022q0 86 60 146t141 60h413v202h-106q-44 0 -72 31q-29 32 -29 74h-714v202h714q0 42 29 74q28 31 72 31h412q44 0 72 -31
q29 -32 29 -74h714v-202h-714zM511 1228v-1022h1026v1022h-1026zM1024 307l-407 408h307v412h201v-412h307z" />
</svg>