<svg xmlns="http://www.w3.org/2000/svg" xmlns:xlink="http://www.w3.org/1999/xlink" version="1.1" viewBox="-10 0 2068 2048">
   <path fill="currentColor"
d="M1972 1162q4 118 -45 223q-51 107 -143 176l75 146q37 74 7 146.5t-105 101.5l-80 24q-24 9 -56 9q-81 0 -132 -66l-211 -248q-136 -24 -244 -108q-73 19 -150 19q-136 0 -248 -75q-76 22 -164 18q-121 4 -228 -44q-110 -50 -176 -146t-70 -213q-9 -112 38 -211
q-47 -119 -10 -235q57 -147 197 -225q42 -126 153 -202q109 -75 246 -66q121 -112 286 -124q163 -12 295 87q64 -19 132 -19q102 0 194 42q90 41 157 122q149 41 251 165q101 122 106 281q9 173 -85 314q10 63 10 108zM1470 1022q46 4 75 35q28 29 28 72t-28 71t-70 28h-66
q-47 141 -159 230l75 23q313 -5 412 -154q51 -80 42 -169v-5q-5 -103 -84 -178q-80 -76 -188 -71q-39 0 -68 -28q-30 -29 -30 -70q0 -43 30 -71q29 -28 68 -28q191 4 338 127q5 -47 5 -89q-5 -103 -61 -164q-71 -71 -225 -90q-41 -98 -122 -140q-66 -38 -146 -24
q-70 13 -122 52q-51 37 -51 75q0 13 9 42q9 27 14 33q43 0 73 28q31 29 31 70q0 42 -31 73t-73 31q-77 -5 -140 -57q-73 48 -160 57q-42 0 -75 -26q-32 -25 -35 -66q-3 -40 23 -73q25 -33 68 -37q25 -4 52 -14q42 -24 42 -61q0 -104 66 -183q-151 -38 -291 131
q-138 -24 -206 12q-66 34 -108 181q-80 37 -108 70q-43 38 -56 108q166 -34 319 23q35 12 56 52q19 36 5 77q-14 40 -52 57q-37 16 -80 2q-113 -47 -229 -5q-20 20 -29 57v75q0 50 26 101q24 47 73 77q79 42 169 42q-15 -28 -35 -80q-17 -43 2 -82q20 -41 59 -54
q40 -14 79 5q41 19 54 61q28 84 98.5 141t164.5 66q101 -5 187 -64q87 -61 132 -152q13 -94 89 -127q49 -23 164 -23zM1672 1772l-61 -131l-71 14l99 127zM1207 909q0 -39 -25 -68q-26 -31 -68 -35q-110 -5 -193 65q-89 94 -84 221q0 41 30 70q29 28 73 28q42 0 70 -28
t28 -70t24 -75q20 -14 42 -14q42 0 73 -26q30 -26 30 -68z" />
</svg>