<svg xmlns="http://www.w3.org/2000/svg" xmlns:xlink="http://www.w3.org/1999/xlink" version="1.1" viewBox="-10 0 2058 2048">
   <path fill="currentColor"
d="M102 1125q0 250 124 464q122 211 336 336q212 123 462 123q0 -250 -126 -462q-124 -212 -336 -336q-212 -125 -460 -125zM350 1375q150 57 260 168q111 110 164 255q-149 -52 -260 -163q-111 -112 -164 -260zM1024 2048q249 0 460 -123q215 -125 338 -336
q124 -215 124 -464q-249 0 -462 125q-211 124 -336 336q-124 212 -124 462zM1274 1798q53 -146 162 -257q113 -114 260 -166q-52 148 -166 260q-111 110 -256 163zM1024 1231q120 0 236 -48q112 -47 200 -135q89 -88 134 -200q44 -112 44 -233v-514q-123 0 -220 38
q-87 39 -150 106l-244 -245l-246 245q-62 -67 -148 -106q-98 -38 -222 -38v514q0 118 46 233q46 113 132 200q88 87 202 135q116 48 236 48zM616 370l158 168l250 -250l250 250l158 -168v245q0 168 -120 289q-120 120 -288 120t-288 -120t-120 -289v-245z" />
</svg>