<svg xmlns="http://www.w3.org/2000/svg" xmlns:xlink="http://www.w3.org/1999/xlink" version="1.1" viewBox="-10 0 2058 2048">
   <path fill="currentColor"
d="M1740 202h-102v-202h-206v202h-816v-202h-208v202h-100q-86 0 -146 60t-60 147v1437q0 82 60 142t146 60h1432q86 0 146 -60t60 -142v-1437q0 -87 -60 -147t-146 -60zM1740 1846h-1432v-1029h1432v1029zM1740 615h-1432v-206h1432v206zM1024 923q101 0 166 67
q64 68 64 161q0 94 -70 164t-162 67q-95 -3 -162 -67q-68 -65 -68 -161t68 -164q68 -67 164 -67zM1484 1731v9h-922v-9q0 -97 134 -164t327 -67t327 67t134 164z" />
</svg>