<svg xmlns="http://www.w3.org/2000/svg" xmlns:xlink="http://www.w3.org/1999/xlink" version="1.1" viewBox="-10 0 2068 2048">
   <path fill="currentColor"
d="M510 101h106v207h-208v-101q0 -44 31 -75t71 -31zM1740 101q44 0 75 31t31 75v101h-208v-207h102zM1230 308v-207h202v207h-202zM818 308v-207h206v207h-206zM818 1538v-206h206v206h-206zM510 1538q-40 0 -71 -31t-31 -70v-105h208v206h-106zM408 923h208v207h-208v-207
zM408 514h208v202h-208v-202zM1846 514v202h-208v-202h208zM102 514h100v1231h1086l148 202h-1334q-44 0 -74 -29q-28 -28 -28 -72v-1231q0 -44 28 -72q30 -29 74 -29zM1692 923q145 0 250 106q106 108 106 255q0 164 -178 432q-93 137 -178 231l-96 -111
q-107 -142 -174 -264q-90 -172 -90 -288q0 -148 104 -255q105 -106 256 -106zM1692 1413q52 0 90 -38q39 -39 34.5 -84.5t-42.5 -83.5q-40 -39 -85 -39t-84 36t-39 87q0 50 36 86t90 36z" />
</svg>