<svg xmlns="http://www.w3.org/2000/svg" xmlns:xlink="http://www.w3.org/1999/xlink" version="1.1" viewBox="-10 0 2068 2048">
   <path fill="currentColor"
d="M370 642l56 -55q45 -51 114 -48q66 3 118 48v5q75 75 202 86q83 11 152 53q72 45 122 113q55 92 52.5 198t-58.5 192q-66 96 -166 139t-208 20t-188 -98q-86 -92 -101 -218t-95 -207q-46 -45 -46 -114t46 -114zM824 1507q-196 0 -332 -137q-118 -122 -138 -278
q-4 -64 -34 -116q-106 140 -106 319q0 126 60 240q57 110 162 189h1394v-106q0 -289 -169 -516t-437 -313q71 119 68 255q-2 139 -74 251q-66 102 -170 156q-108 56 -224 56zM1376 597h136q76 0 126 50t50 137v76h138v-107q0 -121 -92 -202q-91 -81 -222 -81h-136
q-66 0 -116 -55q-52 -55 -52 -124t52 -114q52 -46 116 -46v-131q-121 0 -210 86q-88 85 -88 212q0 128 88 213q89 86 210 86zM268 597q14 -20 26 -31l56 -55q12 -13 30 -26l-152 -156q11 -19 8 -46q-4 -26 -22 -48q-20 -23 -56 -23t-59 23t-23 53q-29 4 -52 28
q-24 23 -24 56q0 31 22 55q19 23 44 26q26 3 46 -8zM1764 258q92 -91 92 -212h-136q0 65 -48 113t-114 48v137q146 0 252 106t106 258v263h132v-263q0 -146 -78.5 -268t-205.5 -182zM324 2048h1506q92 0 155 -63t63 -154h-1942q0 90 64 154q64 63 154 63z" />
</svg>