<svg xmlns="http://www.w3.org/2000/svg" xmlns:xlink="http://www.w3.org/1999/xlink" version="1.1" viewBox="-11 0 2069 2048">
   <path fill="currentColor"
d="M865 1768q-73 107 -188 161q-116 54 -242 44q-128 -11 -232 -83q-104 -74 -159 -191q-54 -117 -42 -244q12 -126 86 -235q70 -94 166 -147q99 -55 206 -59l4 152q-64 4 -134 42q-65 36 -110 100q-78 113 -56 244q23 132 129 208q108 76 240.5 49t209.5 -139
q44 -63 54 -147v-108l587 -4l5 -10q44 -74 122 -96q77 -22 146 20q69 41 91 120q23 77 -19.5 151t-119.5 96t-147 -17q-68 -39 -88 -108h-426q-19 107 -83 201zM1623 1024q134 15 235 93q102 77 151 193q50 116 35 242q-15 127 -93 227.5t-196 152.5q-117 51 -244 36
q-118 -15 -210 -76q-94 -63 -152 -154l132 -78q40 63 103 103q62 38 137 49q136 15 244 -66q109 -82 125.5 -211.5t-69.5 -234.5q-84 -104 -222 -119q-84 -11 -157 19l-88 44l-269 -499h-24q-84 0 -139 -61q-57 -63 -54 -142q3 -82 63 -137.5t142 -50.5q82 4 140 63
q58 57 53 142q-4 67 -49 118l201 367q99 -35 205 -20zM636 740q-49 -124 -35 -247q16 -126 88 -227q75 -104 193 -154q120 -51 245 -34q125 16 227.5 94.5t156.5 196.5q44 108 36 220q-7 113 -61 205l-127 -73q34 -62 37 -140q3 -75 -27 -144q-53 -127 -178 -178
q-124 -51 -245 0q-119 50 -169 176q-49 123 5 247q44 102 137 161l39 20l-318 523l10 20q39 68 15 146q-24 79 -95 118q-69 38 -150 14q-78 -24 -117 -97q-39 -74 -15 -152t93 -117q64 -35 132 -20l240 -391q-77 -73 -117 -167z" />
</svg>