<svg xmlns="http://www.w3.org/2000/svg" xmlns:xlink="http://www.w3.org/1999/xlink" version="1.1" viewBox="-10 0 2068 2048">
   <path fill="currentColor"
d="M1738 102q-72 0 -137 33q-62 32 -108 92q-144 -29 -292 -24l14 206q115 -5 216 14q5 123 98 211q93 86 218.5 81.5t213.5 -95.5q89 -92 86 -216q-3 -125 -91 -213q-89 -89 -218 -89zM1738 509q-44 0 -72 -28q-29 -29 -29 -72t29 -72t72 -29q42 0 74 29q31 28 31 72
t-31 72t-74 28zM703 601l-120 -168q185 -136 398 -192l52 201q-181 43 -330 159zM1944 1636q0 101 -60 182q-60 82 -156 113q-94 31 -191 -2q-97 -34 -154 -120q-56 -86 -52 -187q5 -103 71 -178q-148 -144 -337 -213t-391 -60q-23 0 -67 10q-19 116 -110 187t-206 64
q-115 -8 -198.5 -88.5t-91.5 -196.5q-7 -114 62.5 -208t183.5 -113q68 -135 168 -245l149 139q-60 71 -101 139q72 43 115 120q16 -5 53 -9l33 -5q262 -9 499 86q241 96 417 283q32 -5 57 -5q129 0 218 89t89 218z" />
</svg>