<svg xmlns="http://www.w3.org/2000/svg" xmlns:xlink="http://www.w3.org/1999/xlink" version="1.1" viewBox="-10 0 2068 2048">
   <path fill="currentColor"
d="M230 0h1588q96 0 164 67q66 66 66 162v1590q0 96 -66 162q-68 67 -164 67h-1588q-96 0 -163 -67t-67 -162v-1590q0 -95 67 -162t163 -67zM454 453v230h230v-230h-230zM912 453v230h224v-230h-224zM1366 453v230h228v-230h-228zM454 912v224h230v-224h-230zM912 912v224
h224v-224h-224zM1366 912v224h228v-224h-228zM454 1365v230h230v-230h-230zM912 1365v230h224v-230h-224zM1366 1365v230h228v-230h-228z" />
</svg>