<svg xmlns="http://www.w3.org/2000/svg" xmlns:xlink="http://www.w3.org/1999/xlink" version="1.1" viewBox="-10 0 2068 2048">
   <path fill="currentColor"
d="M1724 429h-1724v-382h1724v382zM862 1004h-286v-144q0 -20 12 -34q14 -15 32 -15h436q133 -83 280 -93q150 -10 290 48v-243h-1532v1249h844q-148 -158 -168 -373q-19 -217 92 -395zM2048 1866l-136 135l-296 -297q-108 68 -228 68q-180 0 -306 -126t-126 -305
q0 -180 126 -306t305 -126t305 126t126 306q0 126 -66 229zM1626 1341q0 -98 -70 -171q-70 -72 -169 -72t-167 72q-70 73 -70 171t70 168t168 70t168 -70t70 -168z" />
</svg>