<svg xmlns="http://www.w3.org/2000/svg" xmlns:xlink="http://www.w3.org/1999/xlink" version="1.1" viewBox="-10 0 2058 2048">
   <path fill="currentColor"
d="M1778 971q0 181 -96 354l-132 -137q46 -106 46 -217h182zM1348 986l-648 -642v-20q0 -136 94 -230t230 -94t230 94q94 93 94 230v662zM190 106l1804 1805l-136 137l-450 -450q-125 76 -278 96v354h-212v-354q-177 -26 -326 -129q-150 -105 -234 -260q-86 -158 -86 -334
h182q0 156 78 281q76 123 212 194q134 71 280 71q126 0 248 -56l-176 -177l-72 11q-136 0 -230 -97t-94 -227v-81l-646 -647z" />
</svg>