<svg xmlns="http://www.w3.org/2000/svg" xmlns:xlink="http://www.w3.org/1999/xlink" version="1.1" viewBox="-10 0 2065 2048">
   <path fill="currentColor"
d="M919 386h320l351 -351q30 -35 75 -35t75 35l275 276q30 30 30 75t-30 75l-245 245h-851v215q0 47 -32 76q-33 30 -78 30t-75 -30t-30 -76v-320q0 -90 63 -153q62 -62 152 -62zM279 921v426l-246 245q-30 30 -30 76q0 45 30 75l276 275q30 30 75 30t75 -30l460 -456h426
q46 0 75 -32q30 -33 30 -78v-105h110q45 0 75 -30t30 -75v-110h105q45 0 78 -30q32 -29 32 -75v-106h-751v106q0 90 -62 152q-63 63 -148 63h-215q-90 0 -153 -63q-62 -62 -62 -152v-321z" />
</svg>