<svg xmlns="http://www.w3.org/2000/svg" xmlns:xlink="http://www.w3.org/1999/xlink" version="1.1" viewBox="-10 0 2068 2048">
   <path fill="currentColor"
d="M1024 846q76 0 127 51t51 125t-54 124q-55 52 -124.5 52t-125.5 -52q-54 -51 -54 -124q0 -74 52 -126q52 -50 128 -50zM582 1788q48 27 140 -16q96 -44 204 -148q-76 -84 -144 -180q-120 -13 -228 -36q-36 152 -26 254q8 99 54 126zM648 1238l-26 -48q-23 58 -28 84
l86 14zM1274 1168l76 -144l-76 -144l-90 -138q-54 -4 -160 -4t-162 4l-88 138l-76 144l76 144l88 138q55 4 161.5 4t160.5 -4zM1024 528q-35 38 -58 66h116q-24 -27 -58 -66zM1024 1520q34 -39 58 -66h-116q23 27 58 66zM1466 260q-49 -28 -140 14q-93 43 -204 150
q76 84 144 180q117 13 226 36q37 -152 28 -254q-10 -100 -54 -126zM1400 810l26 48q22 -58 26 -84l-84 -14zM1538 134q98 59 120 210q23 134 -26 326q192 59 298 144q118 95 118 210t-118 210q-106 85 -298 144q49 192 26 326q-22 151 -122 210q-101 58 -240 0
q-130 -51 -272 -188q-144 138 -272 188q-139 58 -240 0q-100 -58 -122 -210q-23 -137 26 -326q-193 -59 -300 -144q-116 -94 -116 -210t116 -210q107 -85 300 -144q-49 -189 -26 -326q22 -152 122 -210q101 -58 240 0q130 51 272 188q140 -137 272 -188q138 -58 242 0z
M1506 1024q54 111 86 214q149 -45 230 -102q82 -59 82 -112t-82 -112q-81 -57 -230 -102q-31 100 -86 214zM540 1024q-51 -108 -84 -214q-150 46 -230 102q-82 59 -82 112t82 112q80 56 230 102q34 -109 84 -214zM1400 1238l-32 50l84 -14q-4 -26 -26 -84zM1122 1624
q109 105 204 148q92 43 138 16q47 -27 56 -126q9 -102 -28 -254q-109 23 -226 36q-68 96 -144 180zM648 810q4 0 4 -6l28 -44l-86 14q5 26 28 84zM926 424q-110 -106 -204 -150q-92 -42 -138 -14q-48 27 -56 126q-10 102 26 254q108 -23 228 -36q68 -96 144 -180z" />
</svg>