<svg xmlns="http://www.w3.org/2000/svg" xmlns:xlink="http://www.w3.org/1999/xlink" version="1.1" viewBox="-10 0 2058 2048">
   <path fill="currentColor"
d="M965 1538q0 -136 66 -280h-18q-132 0 -229 -98q-98 -100 -98 -229q0 -130 98 -230q97 -98 229.5 -98t228.5 98q99 101 99 230q0 39 -9 48q122 -48 240 -48q54 0 140 17v-17q0 -67 -9 -92l196 -149q23 -26 9 -56l-188 -328q-4 -18 -17 -22q-12 -4 -39 -4l-232 92
q-50 -41 -157 -92l-39 -253q9 -5 -7 -16t-28 -11h-375q-13 0 -29 11q-15 11 -15 24l-39 254q-34 9 -96 48l-61 35l-223 -92q-27 0 -39 4q-13 4 -26 22l-188 328q-13 22 17 56l197 149q0 9 -5 46q-4 29 -4 46q0 65 9 91l-197 162q-22 22 -8 52l187 328q5 14 18 15q18 2 39 2
l231 -91q47 38 157 91l40 254q0 14 13 24t30 10h236q-105 -157 -105 -331zM1572 1162v-140l-205 206l205 205v-131q97 0 164 67t67 169q0 60 -26 100l101 105q86 -125 56 -280q-30 -152 -157 -235q-78 -66 -205 -66zM1572 1769q-96 0 -164 -68q-67 -67 -67 -163
q0 -61 26 -105l-101 -101q-86 125 -56 278q30 150 157 233q114 66 205 66v139l205 -205l-205 -214v140z" />
</svg>