<svg xmlns="http://www.w3.org/2000/svg" xmlns:xlink="http://www.w3.org/1999/xlink" version="1.1" viewBox="-10 0 2068 2048">
   <path fill="currentColor"
d="M2048 709h-212q-100 -281 -344 -456q-244 -174 -546 -174q-257 0 -474 128q-216 128 -344 344q-128 217 -128 473q0 255 128 475q127 217 344 344q216 126 474 126q300 0 546 -172q245 -172 348 -458h208v-630zM1840 920v207h-210v-207h210zM1610 1339q-90 193 -268 305
q-181 113 -396 113q-200 0 -368 -98q-169 -99 -268 -266q-98 -168 -98 -367q0 -200 98 -369q99 -169 268 -268q170 -99 368 -99q210 0 392 113t272 306h-192v630h192z" />
</svg>