<svg xmlns="http://www.w3.org/2000/svg" xmlns:xlink="http://www.w3.org/1999/xlink" version="1.1" viewBox="-10 0 2058 2048">
   <path fill="currentColor"
d="M1620 1101q-24 -52 -77 -67q-66 -15 -139 43q-93 73 -245 101q-71 14 -135 14l-67 -5q-81 -9 -149 -28q-97 -32 -168 -87q-68 -53 -135 -38q-53 15 -77 67q-39 72 0 125q26 40 135 110q131 82 365 106l-389 390q-39 33 -39 84t39 84l14 14q34 34 82 34q46 0 86 -34
l303 -303l308 303q34 34 84 34t84 -34l14 -14q34 -34 34 -84t-34 -84l-389 -390q226 -19 360 -106q109 -70 135 -110q39 -53 0 -125zM1024 260q105 0 180 76t75 183q0 105 -75 180t-180 75t-180 -75t-75 -180q0 -107 75 -183t180 -76zM1024 1038q140 0 260 -69
q119 -69 189 -190q70 -122 70 -262t-70 -260q-69 -118 -189 -187q-122 -70 -260 -70q-137 0 -259 70t-190 187q-70 120 -70 260t70 262q69 121 190 190q120 69 259 69z" />
</svg>