<svg xmlns="http://www.w3.org/2000/svg" xmlns:xlink="http://www.w3.org/1999/xlink" version="1.1" viewBox="-10 0 2068 2048">
   <path fill="currentColor"
d="M1818 795h230v-795h-230v795zM1936 1424q-215 0 -406 -64q-68 -21 -116 27l-252 250q-240 -123 -434 -317q-192 -193 -316 -435l250 -250q48 -48 26 -118q-64 -191 -64 -405q0 -48 -32 -80t-80 -32h-400q-48 0 -80 32t-32 80q0 384 148 741q148 360 418 630t628 418
q358 147 742 147q48 0 80 -32t32 -80v-400q0 -48 -32 -80t-80 -32zM1594 0h-228v795h228v-795z" />
</svg>