<svg xmlns="http://www.w3.org/2000/svg" xmlns:xlink="http://www.w3.org/1999/xlink" version="1.1" viewBox="-10 0 2068 2048">
   <path fill="currentColor"
d="M453 544v966h464l69 -108q97 -145 256 -224q144 -68 287 -68q93 0 155 26q123 58 133 198q11 102 -37 192q-48 91 -133 148q-86 60 -246 102q-190 42 -394 42q-420 0 -767 -192q80 -659 213 -1082zM453 0q-117 161 -213 470q-81 249 -139 576q-49 247 -80 490l-21 208
q233 159 506 234q245 70 501 70q237 0 458 -60q198 -48 315 -128q167 -113 232 -300q67 -190 8 -360q-58 -187 -240 -266q-112 -54 -251 -54q-202 0 -399 102q-213 112 -336 298h-112v-816h229l112 -352z" />
</svg>