<svg xmlns="http://www.w3.org/2000/svg" xmlns:xlink="http://www.w3.org/1999/xlink" version="1.1" viewBox="-10 0 2068 2048">
   <path fill="currentColor"
d="M1014 366q-234 0 -450 72q-214 72 -396 209l-168 -224q214 -162 474 -251q257 -88 539.5 -88t538.5 88q259 89 474 251l-168 224q-181 -137 -396 -209q-216 -72 -448 -72zM1014 1211q-188 0 -340 115l340 449l96 -132q-4 -20 -4 -57q0 -184 114 -335q-107 -40 -206 -40z
M1466 1062q39 -16 102 -31l124 -159q-146 -105 -320 -165t-358.5 -60t-359.5 60q-173 60 -318 165l172 225q224 -168 506 -168q248 0 452 133zM1766 1493v-282h-190v282h-280v190h280v281h190v-281h282v-190h-282z" />
</svg>