<svg xmlns="http://www.w3.org/2000/svg" xmlns:xlink="http://www.w3.org/1999/xlink" version="1.1" viewBox="-10 0 2058 2048">
   <path fill="currentColor"
d="M818 817v207h-202v-207h202zM1432 1024v-207h-202v207h202zM1946 1231v817h-1844v-817h100v-414q0 -221 110 -408q112 -188 300 -298q191 -111 411.5 -111t410.5 111q189 110 300 298q112 187 112 408v414h100zM510 1433h-202v413h202v-413zM922 1433h-206v413h206v-413z
M922 211q-219 39 -366.5 210t-147.5 396v414h514v-1020zM1124 1231h514v-414q0 -226 -146 -396q-146 -171 -368 -210v1020zM1332 1433h-208v413h208v-413zM1740 1433h-202v413h202v-413z" />
</svg>