<svg xmlns="http://www.w3.org/2000/svg" xmlns:xlink="http://www.w3.org/1999/xlink" version="1.1" viewBox="-10 0 2068 2048">
   <path fill="currentColor"
d="M682 488q100 0 172 72q70 70 70 172q0 100 -70 170q-72 72 -172 72t-171 -71t-71 -171q0 -102 71 -173t171 -71zM682 50q187 0 342 92q156 91 248 246q90 156 90 344q0 228 -174 556q-127 232 -328 494q-105 138 -178 216l-106 -124q-130 -164 -236 -316
q-148 -226 -234 -410q-106 -240 -106 -422q0 -181 92 -338q92 -155 248 -246q155 -92 342 -92zM682 242q-132 0 -244 66q-113 66 -178 178q-68 115 -68 246q0 72 20 140q31 123 128 294q119 216 342 512q226 -301 342 -512q97 -171 128 -294q18 -64 18 -140q0 -133 -66 -246
q-65 -112 -178 -178q-112 -66 -244 -66zM1560 1512l488 -488l-488 -490v978z" />
</svg>