<svg xmlns="http://www.w3.org/2000/svg" xmlns:xlink="http://www.w3.org/1999/xlink" version="1.1" viewBox="-10 0 2058 2048">
   <path fill="currentColor"
d="M1738 206h-426q-33 -90 -114 -148q-80 -58 -174.5 -58t-175.5 58q-79 57 -112 148h-426q-86 0 -146 60t-60 146v1430q0 86 60 146t146 60h1428q86 0 146 -60t60 -146v-1430q0 -86 -60 -146t-146 -60zM1024 206q43 0 72 31q28 32 28 72t-28 72q-29 31 -72.5 31t-71.5 -31
t-28 -72t28 -72t72 -31zM510 614h1026v-202h202v1430h-1428v-1430h200v202zM1024 1640v-206h512v206h-512zM1024 1026v-206h512v206h-512zM616 1127v-307h-106v-101h206v408h-100zM740 1333q34 0 56 22q22 21 22 53t-20 55l-172 177h192v101h-308v-96l206 -211h-206v-101
h230z" />
</svg>