<svg xmlns="http://www.w3.org/2000/svg" xmlns:xlink="http://www.w3.org/1999/xlink" version="1.1" viewBox="-10 0 2068 2048">
   <path fill="currentColor"
d="M1024 744q118 0 199 81t81 199t-82 198q-80 80 -198 80t-198 -80t-80 -198t81 -199t197 -81zM1024 326q344 0 624 194q278 193 400 504q-123 311 -400 504q-280 194 -623.5 194t-622.5 -194t-402 -504q122 -310 402 -504q279 -194 622 -194zM206 1024q111 233 336 372
q220 138 482.5 138t483.5 -138q224 -139 336 -372q-111 -233 -336 -372q-221 -138 -483.5 -138t-482.5 138q-226 139 -336 372z" />
</svg>