<svg xmlns="http://www.w3.org/2000/svg" xmlns:xlink="http://www.w3.org/1999/xlink" version="1.1" viewBox="-10 0 2068 2048">
   <path fill="currentColor"
d="M196 447q153 -153 190 -137q38 16 22 74q-27 50 -54 95l-20 37q-302 440 -302 677q0 221 154 339q62 47 142 61q79 13 156 -11q76 -24 166 -114q57 -51 176 -195v-6q157 -184 226 -254q138 -132 234 -132q116 0 158 64q27 31 38 121v16q-197 32 -344 148
q-128 96 -196 233q-64 121 -64 228q0 144 106 246q105 103 254 103q112 0 212 -58q125 -72 206 -212q96 -173 116 -423h276v-281h-282q-16 -182 -104 -307q-128 -164 -350 -164q-164 0 -338 117q-124 86 -218 201q-27 34 -142 174q-93 110 -116 133l-12 16q-73 79 -112 79
q-40 0 -56 -64q-17 -62 12 -148q27 -79 104 -222q61 -111 106 -180q78 -116 106 -175q42 -90 42 -195q0 -164 -106 -254q-80 -69 -178 -69t-198 58q-64 38 -110 85q-74 73 -96 106zM1244 1765q-28 0 -56 -24q-30 -24 -30 -61q0 -36 32 -95q39 -71 100 -122q81 -64 192 -95
q-21 204 -102 312q-63 85 -136 85z" />
</svg>