<svg xmlns="http://www.w3.org/2000/svg" xmlns:xlink="http://www.w3.org/1999/xlink" version="1.1" viewBox="-10 0 2058 2048">
   <path fill="currentColor"
d="M536 1606q-75 0 -127 -52q-51 -51 -51 -124t51 -124q52 -52 127 -52h178q0 -149 103 -252q104 -104 248 -104t248 104t104 252v174h265q37 0 64 27t27 62t-27 62t-64 27h-174l-25 4q-24 4 -41 21q-25 25 -25 62q0 58 45 79q21 12 46 12h174q111 0 188 -79t77 -188
t-77 -186t-188 -77q-42 0 -87 13v-13q0 -119 -50 -223q-49 -103 -132 -178q29 -166 -50 -315q-78 -149 -232 -215q-120 -54 -248 -39q-131 15 -234 89q-106 75 -159 194q-58 128 -37 265t107 244h-24q-145 0 -249 104q-103 103 -103 250q0 148 103 251t249 103l24 -4
q26 -9 42 -25q21 -21 21 -60t-21 -64q-16 -17 -42 -21zM1065 724q-119 0 -225 50q-104 49 -180 137q-33 -63 -35 -133q-2 -72 26 -136q50 -121 170 -166q121 -46 240 8q78 37 128 110q49 72 54 159q-89 -29 -178 -29zM1202 161q-66 -29 -149 -45l223 -116l79 257
q-71 -59 -153 -96zM544 232q-68 46 -116 103l12 -248l261 62q-84 26 -157 83zM1595 695q-12 -86 -37 -149l211 133l-182 199q17 -89 8 -183zM275 836q10 82 33 153l-207 -132l178 -199q-13 95 -4 178zM714 1821q9 26 31 38q23 12 47 4l141 -33l-37 136q-9 24 4 48
q12 22 39 31t50 -6t27 -40l37 -140l103 103q16 21 44 21q26 0 45 -19t19 -45q0 -27 -17 -48l-103 -103l141 -34q25 -9 37 -31t6 -47t-29 -37q-25 -13 -48 -9l-140 38l37 -137q9 -29 -6 -52t-40 -29t-47 6q-21 11 -31 42l-33 136l-104 -103q-17 -17 -45 -17q-29 0 -46 19
q-16 17 -16 46q0 27 16 43l104 103l-141 38q-26 9 -37 29q-12 21 -8 49z" />
</svg>