<svg xmlns="http://www.w3.org/2000/svg" xmlns:xlink="http://www.w3.org/1999/xlink" version="1.1" viewBox="-10 0 2068 2048">
   <path fill="currentColor"
d="M1847 1538q0 124 -92 216q-91 90 -215 86q-126 -5 -214 -92q-89 -87 -93 -210q24 -248 100 -486q81 -266 101 -542q0 -133 -70 -252q-70 -117 -187 -186q-119 -70 -254 -70t-252 70q-116 68 -185.5 186t-73.5 252q23 224 101 462l24 72q-164 -48 -314.5 28t-201.5 238
q-51 159 26 312q76 151 240 204q164 52 315 -26q151 -80 199 -244q19 -55 19 -124q-25 -286 -110 -518q-68 -203 -92 -404q4 -122 94 -210q88 -88 213 -96q125 9 212 96t96 210q-24 242 -106 486q-82 266 -101 542q4 132 75 252q70 119 184 186q117 70 255 70q139 0 256 -66
q117 -68 185 -186q67 -116 67 -256h-201zM412 1638q-86 0 -146 -60t-60 -144t60 -144t146 -60t146 60t60 144t-60 144t-146 60z" />
</svg>