<svg xmlns="http://www.w3.org/2000/svg" xmlns:xlink="http://www.w3.org/1999/xlink" version="1.1" viewBox="-10 0 2068 2048">
   <path fill="currentColor"
d="M534 0q-332 0 -376 5q-66 0 -109 43t-47 108q-2 43 -2 866q0 822 2 865q4 65 47 108t109 43q124 10 486 10q-109 -76 -148 -245q-36 -140 -44 -447q-4 -128 -4 -596q0 -397 4 -448l4 -216l822 827v255l-654 -654l-4 452q0 237 4 360q16 226 40 342q24 144 78.5 223
t161.5 118q93 29 230 29q664 0 754 -5q67 0 112 -46q41 -43 44 -108q4 -63 4 -860q0 -798 -4 -863q-3 -66 -44 -108q-44 -44 -112 -48q-208 -10 -484 -10q109 76 148 245q35 135 44 447q4 160 4 596q0 377 -4 452l-6 212l-822 -827v-255l654 654l6 -452q0 -238 -6 -361
q-15 -232 -38 -341q-23 -142 -80 -223q-54 -79 -160 -118q-89 -29 -230 -29h-380z" />
</svg>