<svg xmlns="http://www.w3.org/2000/svg" xmlns:xlink="http://www.w3.org/1999/xlink" version="1.1" viewBox="-10 0 2068 2048">
   <path fill="currentColor"
d="M1024 0q-200 0 -392 77q-188 76 -333.5 221t-220.5 334q-78 192 -78 392t78 392q75 189 220.5 334t333.5 221q192 77 392 77t392 -77q188 -76 333.5 -221t220.5 -334q78 -192 78 -392t-78 -392q-75 -189 -220.5 -334t-333.5 -221q-192 -77 -392 -77zM510 769
q0 -63 48 -108q49 -46 108 -46q60 0 106 46t46 106q0 59 -46 108q-46 48 -106 48t-108 -48t-48 -106zM1308 1562q-33 -56 -112 -93q-76 -36 -172.5 -36t-173.5 36t-110 93l-144 -149q66 -80 180 -132q111 -50 248 -50t248 50q112 51 180 132zM1384 923q-64 0 -109 -48
t-45 -108q0 -61 46 -106q46 -46 106 -46q58 0 108 46q48 45 48 106q0 60 -48 108t-106 48z" />
</svg>