<svg xmlns="http://www.w3.org/2000/svg" xmlns:xlink="http://www.w3.org/1999/xlink" version="1.1" viewBox="-10 0 2058 2048">
   <path fill="currentColor"
d="M1478 2048l-276 -305l115 -119l161 162l367 -367l119 143zM84 505v-200h204v-105q0 -80 60 -140t140 -60h610v710l257 -153l252 153v-710h100q81 0 143 62t62 138v996q-138 -81 -305 -81q-168 0 -307 83q-140 84 -221 224q-81 141 -81 305t81 302h-591q-76 0 -138 -62
t-62 -138v-105h-204v-200h204v-409h-204v-200h204v-410h-204zM288 305v200h200v-200h-200zM288 1724h200v-200h-200v200zM288 1115h200v-200h-200v200z" />
</svg>