<svg xmlns="http://www.w3.org/2000/svg" xmlns:xlink="http://www.w3.org/1999/xlink" version="1.1" viewBox="-10 0 2068 2048">
   <path fill="currentColor"
d="M1818 1819h230v229h-230v-229zM1818 1595h230v-230h-230v230zM0 1136h230v-224h-230v224zM0 1595h230v-230h-230v230zM0 683h230v-230h-230v230zM0 229h230v-229h-230v229zM454 229h230v-229h-230v229zM1366 2048h228v-229h-228v229zM912 2048h224v-229h-224v229z
M1366 2048h228v-229h-228v229zM454 2048h230v-229h-230v229zM0 2048h230v-229h-230v229zM2048 571q0 -157 -78 -286q-77 -130 -208 -208q-128 -77 -284 -77h-566v229h566q142 0 241 99t99 243v565h230v-565z" />
</svg>