<svg xmlns="http://www.w3.org/2000/svg" xmlns:xlink="http://www.w3.org/1999/xlink" version="1.1" viewBox="-10 0 2058 2048">
   <path fill="currentColor"
d="M1054 1799q14 98 56 182q-76 13 -160 13q-232 0 -426 -113q-197 -114 -312 -312q-116 -197 -116 -429t116 -428q114 -195 311.5 -311t426.5 -116q148 0 286 51q136 51 248 140l134 -138q69 61 134 134l-134 138q89 111 138 247q50 135 50 283v35q-95 -35 -192 -35
q0 -178 -90 -332q-89 -155 -240 -243q-152 -89 -333.5 -89t-334.5 89q-150 88 -240 243q-88 154 -88 334t88.5 334t239.5 242q155 90 334 90q40 0 104 -9zM858 1238h186v-570h-186v570zM1236 0h-570v191h570v-191zM1952 1509l-134 -133l-204 200l-200 -200l-134 133l200 201
l-200 204l134 134l200 -205l204 205l134 -134l-204 -204z" />
</svg>