<svg xmlns="http://www.w3.org/2000/svg" xmlns:xlink="http://www.w3.org/1999/xlink" version="1.1" viewBox="-10 0 2068 2048">
   <path fill="currentColor"
d="M1254 876q-19 76 -125 76q-59 0 -158 -28h-9l57 -226l34 10q95 23 139 48q81 48 62 120zM933 1039l-58 244l20 5q119 34 182 34q120 0 141 -84q21 -85 -79 -137q-60 -35 -177 -58zM2016 1274q-68 269 -256 462q-190 194 -451 271q-263 77 -532 10q-271 -68 -465 -257
q-195 -191 -271 -450q-77 -262 -9 -533q68 -272 256 -465q190 -195 451 -271q261 -77 532 -9q272 67 465 256q194 190 271 451t9 535zM1249 621l48 -187l-115 -24l-43 178l-91 -19l48 -183l-115 -28l-43 187l-226 -58l-33 120l43 10l38 9q57 15 53 67l-124 504
q-15 33 -53 29q-1 0 -82 -24l-52 129l225 58l-48 187l110 29l48 -188l91 24l-48 183l110 28l48 -187q159 33 245 5q109 -33 148 -153q72 -188 -100 -274q125 -33 144 -167q15 -91 -53 -159q-52 -57 -173 -96z" />
</svg>