<svg xmlns="http://www.w3.org/2000/svg" xmlns:xlink="http://www.w3.org/1999/xlink" version="1.1" viewBox="-10 0 2058 2048">
   <path fill="currentColor"
d="M616 409q0 -169 120 -289t288 -120t288 120q121 121 121 289q0 167 -121 288q-120 120 -288 120t-288 -120t-120 -288zM1538 2048h101q87 0 147 -60t60 -142v-490q0 -84 -46 -161q-44 -74 -120 -113q-76 -40 -142 -63v1029zM1058 1538l274 -581q-153 -34 -308 -34
q-341 0 -653 159q-80 41 -123 113q-46 77 -46 161v692h241q-34 -74 -34 -154q0 -148 106 -252t254 -104h289zM818 2048l144 -308h-193q-66 0 -110 46q-43 44 -43 111q0 65 43 108t110 43h49z" />
</svg>