<svg xmlns="http://www.w3.org/2000/svg" xmlns:xlink="http://www.w3.org/1999/xlink" version="1.1" viewBox="-10 0 2068 2048">
   <path fill="currentColor"
d="M1614 502q-59 0 -174 35l-4 4q-48 -88 -133 -137q-86 -50 -185 -50q-73 0 -141 30q-65 29 -120 79q-58 -70 -139 -113q-83 -44 -174 -44q-109 0 -199.5 52t-148.5 144q-56 90 -56 196q0 53 34 161l5 9q-80 45 -129 121q-50 79 -50 175q0 140 100 241q101 102 240 102
q54 0 74 -8q26 109 121 176q96 67 218 67t213 -63q92 -63 126 -163q92 39 140 39q91 0 169 -45t122 -120q23 4 83 4q118 0 219 -58q102 -58 161.5 -162t60.5 -224q2 -124 -54 -226q-56 -105 -157 -163q-101 -59 -222 -59z" />
</svg>