<svg xmlns="http://www.w3.org/2000/svg" xmlns:xlink="http://www.w3.org/1999/xlink" version="1.1" viewBox="-10 0 2058 2048">
   <path fill="currentColor"
d="M1328 0l-154 154l154 154l153 -154zM919 101q-39 220 58 365q81 130 245 171t334 -19t286 -209l-207 -154q-42 61 -125 110q-99 59 -197 63q-116 5 -211 -67q-111 -81 -183 -260zM713 510q-131 0 -308 76q-95 41 -154 77l154 260q79 -79 204 -111q129 -33 202 5
q75 39 70 89q-4 52 -66.5 92t-149.5 52q-88 12 -159 -26v361q145 -72 269 -53q105 24 149 101q43 76 -5 153q-112 165 -259 169q-129 5 -269 -111q-119 -100 -207 -250q-86 -147 -86 -269q-96 288 0 514q81 193 273 308q169 101 342 101q250 0 350 -163q115 -192 10 -553
h154q-57 169 5 327q52 153 182 230q129 77 264 24q153 -57 265 -274q44 -82 53 -221q9 -157 -29 -293q-43 -158 -140 -250q-115 -106 -293 -106q-133 0 -226 82q-53 48 -125 173q-51 86 -72 111q-43 52 -100 67q-58 15 -145 -24q169 -168 188 -332q19 -143 -82 -240
q-100 -96 -259 -96zM1736 1024q86 86 77 211q-9 106 -84 205q-74 98 -171 139q-95 40 -158 -12q-72 -63 -72 -235q0 -108 62 -207q65 -103 149 -135q100 -39 197 34z" />
</svg>