<svg xmlns="http://www.w3.org/2000/svg" xmlns:xlink="http://www.w3.org/1999/xlink" version="1.1" viewBox="-10 0 2068 2048">
   <path fill="currentColor"
d="M1304 928h138v262l228 134l-70 118l-296 -170v-344zM1596 588q-67 -179 -220 -290q-155 -110 -348 -110q-190 0 -341.5 102.5t-220.5 267.5q-124 0 -232 64q-106 62 -170 170t-64 232.5t64 233.5q64 106 169.5 167t232.5 61h346q78 171 234 272q158 102 348 102
q180 0 330 -87t237 -236.5t87 -328.5q0 -215 -126 -384q-126 -170 -326 -236zM466 1304q-116 0 -198 -84q-80 -81 -80 -198q0 -116 80 -196t198 -80q52 0 102 16q25 -170 154 -280q128 -112 302 -112q113 0 210 50q93 49 160 138q-172 0 -324 88q-151 87 -238 236
q-86 150 -86 326q0 43 8 96h-288zM1394 1674q-126 0 -232 -64q-107 -62 -168 -170q-60 -103 -60 -232.5t60 -233.5q61 -106 168 -168q105 -60 232.5 -60t233.5 60q107 62 170 168q62 107 62 233.5t-62 232.5q-64 107 -170 170q-107 64 -234 64z" />
</svg>