<svg xmlns="http://www.w3.org/2000/svg" xmlns:xlink="http://www.w3.org/1999/xlink" version="1.1" viewBox="-10 0 2068 2048">
   <path fill="currentColor"
d="M1740 330q-82 0 -142 60t-60 142v696q-106 92 -106 226q0 130 92 218q92 90 218 90q128 0 217 -89t89 -219q0 -138 -102 -226v-696q0 -82 -60 -142t-146 -60zM1740 430q44 0 75 31t31 71v104h-208v-104q0 -40 31 -71t71 -31zM616 180l-78 82l-82 100q-99 119 -182 242
q-126 190 -188 312q-86 185 -86 336q0 163 82 306q80 141 224 226q142 84 306 84q166 0 308 -84q143 -84 226 -226q84 -143 84 -306q0 -148 -92 -336q-55 -121 -186 -312q-80 -119 -178 -242l-82 -100zM616 498q1 4 14 24q89 100 158 202q96 138 164 282q72 160 72 246
q0 168 -120 288t-292 120q-170 0 -290 -120t-120 -288q0 -84 72 -246q67 -142 168 -282q71 -110 154 -202z" />
</svg>