<svg xmlns="http://www.w3.org/2000/svg" xmlns:xlink="http://www.w3.org/1999/xlink" version="1.1" viewBox="-10 0 2058 2048">
   <path fill="currentColor"
d="M1231 2048h-413v-101h413v101zM1125 817v-307h-202v307l-105 154v875h413v-875zM1024 0q-12 12 -29 34q-28 43 -48 101q-24 81 -24 173v101h202v-101v-58q-9 -66 -29 -125q-29 -82 -72 -125zM616 2048h-414v-101h414v101zM510 817v-307h-202v307l-106 154v875h414v-875z
M409 0q-12 12 -29 34q-28 43 -48 101q-24 81 -24 173v101h202v-101v-58q-9 -66 -29 -125q-29 -82 -72 -125zM1846 2048h-413v-101h413v101zM1740 817v-307h-202v307l-105 154v875h413v-875zM1639 0q-12 12 -29 34q-28 43 -48 101q-24 81 -24 173v101h202v-101v-58
q-9 -66 -29 -125q-29 -82 -72 -125z" />
</svg>