<svg xmlns="http://www.w3.org/2000/svg" xmlns:xlink="http://www.w3.org/1999/xlink" version="1.1" viewBox="-10 0 2068 2048">
   <path fill="currentColor"
d="M1024 1846q-221 0 -412 -111q-189 -110 -300 -300q-110 -191 -110 -411t110 -411q112 -191 300.5 -301t411 -110t411 110t299.5 301q112 191 112 411t-112 411q-110 190 -300 300q-190 111 -410 111zM1024 2048q277 0 514 -137q236 -137 372 -373q138 -236 138 -514
t-138 -514q-136 -236 -372 -373q-237 -137 -514.5 -137t-513.5 137q-235 136 -372 373q-138 236 -138 514t138 514q137 237 372 373q236 137 514 137zM1216 1072l216 -216v577h-576l216 -217l-510 -509l144 -145z" />
</svg>