<svg xmlns="http://www.w3.org/2000/svg" xmlns:xlink="http://www.w3.org/1999/xlink" version="1.1" viewBox="-10 0 2068 2048">
   <path fill="currentColor"
d="M746 792q0 54 -42 96q-42 44 -97.5 44t-98.5 -44q-42 -43 -42 -98q0 -54 42 -96q42 -40 99 -40t98 41t41 97zM1394 792q0 54 -40 96q-43 44 -96 44q-54 0 -98 -44t-44 -98q0 -53 44 -96q42 -40 98 -40q54 0 95 41t41 97zM1212 1220l-200 -196l-96 100l96 96l-96 100
l96 96l-96 100l96 100l200 -200l-100 -96zM1474 1116q-80 0 -134 56q-54 59 -54 136q0 78 56 134l322 326l328 -326q56 -56 56 -135t-56 -135q-58 -56 -136 -56t-134 56l-58 56l-56 -56q-52 -56 -134 -56zM1304 1668q-174 100 -376 100q-201 0 -370 -100
q-170 -101 -270 -272t-100 -372t100 -372q101 -173 270 -274q169 -100 368 -100q198 0 364 94q164 93 268 254q102 159 116 350q86 -44 182 -44q-22 -236 -152 -424q-132 -191 -334 -302q-202 -110 -436 -110q-187 0 -358 70q-169 68 -300.5 199.5t-203.5 302.5
q-72 173 -72 356t72 356q71 169 204 302t300 200q171 70 358 70q273 0 504 -148z" />
</svg>