<svg xmlns="http://www.w3.org/2000/svg" xmlns:xlink="http://www.w3.org/1999/xlink" version="1.1" viewBox="-10 0 2058 2048">
   <path fill="currentColor"
d="M1394 1769q267 -145 410 -331q148 -191 148 -414q0 -182 -98 -348t-281 -301h-9q174 197 174 462q0 198 -109 362q-92 135 -278 274l-236 148v-100l188 -126l-13 -39q-7 -25 -26 -105q144 -61 230 -185q87 -124 87 -273q0 -150 -84 -272t-225 -189l31 -144l-279 -188
l-279 188l31 144q-141 67 -225 189q-85 124 -85 272q0 147 88 273q86 124 230 185q-26 107 -39 144l188 126v100l-236 -148q-186 -139 -278 -274q-109 -164 -109 -362q0 -265 174 -462h-4q-183 135 -284 301q-100 164 -100 348q0 223 148 414q143 186 410 331l91 -139
l179 113l-331 210l61 95l279 -183v183h182v-183l279 183l61 -95l-331 -210l179 -113zM1464 793q0 110 -61 199q-60 88 -166 141q-26 -164 -26 -296q0 -152 39 -383q98 54 155 141q59 91 59 198zM584 793q0 -107 59 -198q57 -88 159 -141q35 239 35 383q0 132 -26 296
q-106 -53 -166 -141q-61 -89 -61 -199z" />
</svg>