<svg xmlns="http://www.w3.org/2000/svg" xmlns:xlink="http://www.w3.org/1999/xlink" version="1.1" viewBox="-10 0 2068 2048">
   <path fill="currentColor"
d="M2048 1933l-1920 -1933l-128 128l394 388h-302v197h192v781h196v-886l320 320q-54 13 -88 64q-36 52 -36 109v393h586v-109l662 663zM868 1298v-197h110l192 197h-302zM1262 886l-370 -370h174q82 0 139 57t57 140v173zM1846 713h-392v-197h392q78 0 135 57t57 140v146
q0 60 -43 103t-103 43q60 0 104 44q42 43 42 103v146q0 74 -50 130q-51 57 -124 66l-196 -196h178v-197h-196v-192h196v-196z" />
</svg>