<svg xmlns="http://www.w3.org/2000/svg" xmlns:xlink="http://www.w3.org/1999/xlink" version="1.1" viewBox="-10 0 2068 2048">
   <path fill="currentColor"
d="M408 0q-86 0 -146 60q-60 61 -60 142v822q0 86 60 147q60 60 146 60h1230q88 0 148 -60t60 -147v-822q0 -82 -60 -142t-148 -60h-1230zM408 202h1230v822h-1230v-822zM202 1332q-82 0 -142 60t-60 146v308q0 82 60 142t142 60h1644q82 0 142 -60t60 -142v-308
q0 -86 -60 -146t-142 -60h-1644zM616 1538h1230v308h-1230v-308zM716 1615v154h408v-154h-408zM1332 1615v154h408v-154h-408z" />
</svg>