<svg xmlns="http://www.w3.org/2000/svg" xmlns:xlink="http://www.w3.org/1999/xlink" version="1.1" viewBox="-10 0 2068 2048">
   <path fill="currentColor"
d="M1198 976q0 140 -70 254q-70 111 -192 176q-121 64 -254 64t-254 -64q-122 -65 -192 -176q-70 -114 -70 -254h-166q0 161 78 302q79 142 214 234q138 96 294 118v320h192v-320q157 -23 294 -118q133 -91 212 -234q78 -141 78 -302h-164zM562 382q0 -50 36 -86
q34 -34 84 -34t84 34t34 86l-4 602q0 45 -31.5 80.5t-82.5 35.5q-50 0 -85 -35t-35 -81v-602zM682 1268q124 0 208 -86q84 -89 84 -206v-586q0 -122 -84 -208q-84 -84 -208 -84t-208 84t-84 208v586q0 119 84 205.5t208 86.5zM1802 1314v146h-146v-146h146zM1610 830h-146
v-50q0 -124 84 -208q84 -86 206 -86q119 0 208 86q86 83 86 208q0 68 -34 132q-36 66 -94 100l-28 18q-90 65 -90 170v18h-146v-18q0 -86 40 -164q42 -80 114 -124l28 -18q64 -41 64 -114q0 -60 -44 -104t-104 -44q-63 0 -103.5 44.5t-40.5 103.5v50z" />
</svg>