<svg xmlns="http://www.w3.org/2000/svg" xmlns:xlink="http://www.w3.org/1999/xlink" version="1.1" viewBox="-10 0 2068 2048">
   <path fill="currentColor"
d="M1024 0q200 0 392 77q188 76 333.5 221t220.5 334q78 192 78 392t-78 392q-75 189 -220.5 334t-333.5 221q-192 77 -392 77t-392 -77q-188 -76 -333.5 -221t-220.5 -334q-78 -192 -78 -392q0 -278 138 -514q137 -237 372 -373q236 -137 514 -137zM1024 202
q-223 0 -411.5 110t-300.5 301q-110 191 -110 411t110 411q111 190 300 300q191 111 411.5 111t410.5 -111q190 -110 300 -300q112 -191 112 -411q0 -164 -64 -315q-64 -154 -176 -267q-115 -115 -268 -178q-149 -62 -314 -62zM1178 1231l210 288q-163 120 -364.5 120
t-365.5 -120l212 -288q72 48 154 48t154 -48zM1024 923q42 0 71 29t29 72t-29 72t-72 29t-72 -29t-29 -72t29 -72t73 -29zM750 471l158 322q-60 32 -100 94q-40 60 -40 137h-360q0 -176 94 -325q94 -147 248 -228zM1298 471q153 81 246 228q94 149 94 325h-360
q0 -77 -38 -137q-41 -62 -102 -94z" />
</svg>