<svg xmlns="http://www.w3.org/2000/svg" xmlns:xlink="http://www.w3.org/1999/xlink" version="1.1" viewBox="-10 0 2068 2048">
   <path fill="currentColor"
d="M2048 540h-4l-186 238q-90 -50 -182 -58l112 -140q-354 -214 -766.5 -214t-765.5 214l766 952l86 -110v284l-86 110l-1022 -1276q221 -172 482 -260q264 -90 540 -90t540 90q262 89 486 260zM1882 1330h-378v-218q0 -50 39 -83t95 -33q55 0 92 34q38 32 38 82v46h114v-46
q0 -90 -75.5 -154t-170.5 -64q-97 0 -170 64q-74 64 -74 154v218q-40 0 -73 33t-33 75v308q0 46 33 79t73 33h482q47 0 80 -30q36 -32 36 -72v-310q0 -46 -34 -80q-33 -36 -74 -36z" />
</svg>