<svg xmlns="http://www.w3.org/2000/svg" xmlns:xlink="http://www.w3.org/1999/xlink" version="1.1" viewBox="-10 0 2068 2048">
   <path fill="currentColor"
d="M2048 510l-48 -49h-6q-152 149 -236 217q-120 103 -230 158q-91 48 -182 63q-55 14 -184 19l-38 5l6 -38q4 -128 18 -183q16 -92 64 -183q51 -105 158 -231q68 -83 216 -235v-5l-48 -48q-259 187 -514.5 187t-513.5 -187l-48 48v5q147 152 216 235q108 129 158 231
q47 89 62 183q15 55 20 183l4 38l-38 -5q-128 -5 -182 -19q-91 -15 -182 -63q-114 -57 -236 -158q-49 -42 -236 -217l-48 49q188 259 188 514t-188 514l48 48h4q147 -142 236 -216q123 -105 232 -159q89 -47 182 -62q54 -14 182 -19l38 -5l-4 38q-5 128 -20 183
q-15 94 -62 183q-50 102 -158 231q-69 83 -216 235v5l48 48q260 -188 513.5 -188t514.5 188l48 -48v-5q-148 -152 -216 -235q-107 -126 -158 -231q-48 -91 -64 -183q-14 -55 -18 -183l-6 -38l38 5q129 5 184 19q94 15 182 62q107 53 230 159q90 74 236 216h6l48 -48
q-188 -260 -188 -514t188 -514z" />
</svg>