<svg xmlns="http://www.w3.org/2000/svg" xmlns:xlink="http://www.w3.org/1999/xlink" version="1.1" viewBox="-10 0 2065 2048">
   <path fill="currentColor"
d="M1331 1741q0 -42 -29 -74q-28 -31 -72 -31h-105v-202h412q82 0 142 -60t60 -146v-1022q0 -86 -60 -146t-142 -60h-1026q-81 0 -141 60t-60 146v1022q0 86 60 146t141 60h413v202h-106q-44 0 -72 31q-29 32 -29 74h-714v202h714q0 42 29 74q28 31 72 31h412q44 0 72 -31
q29 -32 29 -74h714v-202h-714zM511 1228v-1022h1026v1022h-1026zM1019 307q-114 0 -191 53q-72 57 -72 163h5h172q0 -39 24 -60q25 -22 65 -22q41 0 65 27t24 69t-22 72q-21 29 -55 58q-69 40 -96 77q-29 40 -29 110h182q0 -43 12 -70q11 -24 46 -45q65 -32 105 -86
q39 -53 39 -120q0 -106 -75 -166t-199 -60zM909 945v182h182v-182h-182z" />
</svg>