<svg xmlns="http://www.w3.org/2000/svg" xmlns:xlink="http://www.w3.org/1999/xlink" version="1.1" viewBox="-10 0 2068 2048">
   <path fill="currentColor"
d="M1678 62q124 0 216 92q90 91 90 219t-90 216q-93 89 -219.5 89t-215.5 -89t-89 -219q0 -42 14 -86q-174 -82 -360 -82q-223 0 -411.5 110t-300.5 301q-110 191 -110 411l4 86l-202 20l-4 -106q0 -200 78 -392q75 -189 220.5 -334t333.5 -221q192 -77 392 -77
q255 0 480 115q78 -53 174 -53zM1678 269q-43 0 -76 29q-30 28 -30 72t31 75t74.5 31t72.5 -31q28 -32 28 -75t-29 -72t-71 -29zM370 1370q130 0 219 89t89 219q0 45 -14 86q174 82 360 82q220 0 410 -111q190 -110 300 -300q112 -191 112 -411l-6 -87l202 -19l6 106
q0 200 -78 392q-75 189 -220.5 334t-333.5 221q-192 77 -392 77q-255 0 -480 -115q-76 52 -174 52q-126 0 -217 -91t-91 -219t92 -216q92 -89 216 -89zM370 1572q-43 0 -72 31q-28 32 -28 75t29 72t71 29t74 -29q32 -28 32 -72t-31 -75t-75 -31zM1024 615q166 0 287 121
t121 288t-121 288t-288 121t-287 -121q-120 -120 -120 -288t120 -288q120 -121 288 -121z" />
</svg>