<svg xmlns="http://www.w3.org/2000/svg" xmlns:xlink="http://www.w3.org/1999/xlink" version="1.1" viewBox="-10 0 2068 2048">
   <path fill="currentColor"
d="M1538 202h-1028q-139 0 -258 70q-118 70 -184 187q-68 118 -68 257v1130h1846q82 0 142 -60t60 -147v-923q0 -138 -68 -257q-67 -117 -186 -187q-118 -70 -256 -70zM818 1639h-616v-923q0 -129 92 -218t218 -89q128 0 217 89t89 218v923zM1846 1639h-822v-923
q0 -171 -102 -307h616q124 0 216 89q92 88 92 218v923zM1124 1125h208v-409h206v-206h-414v615zM716 923h-408v-207h408v207z" />
</svg>