<svg xmlns="http://www.w3.org/2000/svg" xmlns:xlink="http://www.w3.org/1999/xlink" version="1.1" viewBox="-10 0 2058 2048">
   <path fill="currentColor"
d="M1024 0q186 0 344 93q157 93 248 251q90 159 90 339q0 255 -162.5 445t-407.5 232v235h230v229h-230v224h-224v-224h-228v-229h228v-235q-245 -42 -408 -232q-162 -190 -162 -445q0 -180 90 -339q91 -158 248 -251q158 -93 344 -93zM1024 229q-186 0 -320 134
q-132 133 -132 322q0 190 133 323t320 133t320 -133t133 -323q0 -189 -134 -322q-134 -134 -320 -134z" />
</svg>