<svg xmlns="http://www.w3.org/2000/svg" xmlns:xlink="http://www.w3.org/1999/xlink" version="1.1" viewBox="-10 0 2068 2048">
   <path fill="currentColor"
d="M1846 202q82 0 142 60t60 147v1230q0 87 -60 147t-142 60h-1644q-82 0 -142 -60t-60 -147v-1230q0 -87 60 -147t142 -60h1644zM664 1332v-616h-126v361l-260 -361h-124v616h124v-361l266 361h120zM1178 846v-130h-410v616h410v-130h-256v-111h256v-130h-256v-115h256z
M1894 1231v-515h-126v462h-114v-361h-130v361h-116v-462h-130v515q0 44 32 72q32 29 74 29h408q44 0 73 -29t29 -72z" />
</svg>