<svg xmlns="http://www.w3.org/2000/svg" xmlns:xlink="http://www.w3.org/1999/xlink" version="1.1" viewBox="-10 0 2058 2048">
   <path fill="currentColor"
d="M1675 1864h-1301v-1493h183v279h934v-279h184v1493zM1024 187q39 0 66 27q26 26 26 65q0 40 -26 66t-66 26q-39 0 -65 -26t-26 -66q0 -39 26 -65q27 -27 65 -27zM1675 187h-389q-30 -83 -102 -135q-71 -52 -160 -52q-88 0 -159 52q-73 53 -103 135h-388q-78 0 -133 55
t-55 129v1493q0 74 55 129t133 55h1301q78 0 133 -55q54 -54 54 -129v-1493q0 -75 -54 -129q-55 -55 -133 -55z" />
</svg>