<svg xmlns="http://www.w3.org/2000/svg" xmlns:xlink="http://www.w3.org/1999/xlink" version="1.1" viewBox="-10 0 2068 2048">
   <path fill="currentColor"
d="M1818 1819h-452v229h452q96 0 164 -67q66 -66 66 -162v-454h-230v454zM1818 0h-452v229h452v454h230v-454q0 -96 -66 -162q-68 -67 -164 -67zM230 229h454v-229h-454q-96 0 -163 67t-67 162v454h230v-454zM230 1365h-230v454q0 95 67 162t163 67h454v-229h-454v-454z
M454 912h230v224h-230v-224zM912 912h224v224h-224v-224zM1366 912h228v224h-228v-224zM454 453h230v230h-230v-230zM912 453h224v230h-224v-230zM1366 453h228v230h-228v-230zM454 1365h230v230h-230v-230zM912 1365h224v230h-224v-230zM1366 1365h228v230h-228v-230z" />
</svg>