<svg xmlns="http://www.w3.org/2000/svg" xmlns:xlink="http://www.w3.org/1999/xlink" version="1.1" viewBox="-10 0 2068 2048">
   <path fill="currentColor"
d="M1168 1978q-91 14 -172 14q-272 0 -500 -133q-229 -133 -362 -362q-134 -229 -134 -501q0 -271 134 -500q133 -229 362 -362q230 -134 499.5 -134t500 134t362.5 362q134 229 134 500q0 81 -14 173q-131 -75 -286 -75q-182 0 -336 108l-308 -187v-519h-150v598l340 211
q-144 166 -144 388q0 156 74 285zM1908 1342l-216 211l-210 -211l-140 141l210 210l-210 215l140 140l210 -215l216 215l140 -140l-216 -215l216 -210z" />
</svg>