<svg xmlns="http://www.w3.org/2000/svg" xmlns:xlink="http://www.w3.org/1999/xlink" version="1.1" viewBox="-10 0 2068 2048">
   <path fill="currentColor"
d="M1674 1582h-1298q-158 0 -267 -109t-109 -261q0 -205 101.5 -375.5t272.5 -270.5t372 -100q145 0 278 52q134 -52 280 -52q200 0 372 100q170 100 272 270q100 169 100 376q0 152 -108 260q-110 110 -266 110zM188 1212q0 74 54 128q56 54 132 54t130 -54t54 -128
q0 -168 68 -310q66 -142 180 -244l-60 -4q-111 0 -214 40q-104 42 -182 120t-120 182q-42 99 -42 216zM1674 1394q78 0 132 -54t54 -128q0 -117 -40 -216q-43 -104 -120 -182q-78 -78 -184 -120q-102 -40 -212 -40q-112 0 -214 40q-106 42 -184 120q-75 76 -118 182
q-42 102 -42 216q0 101 -52 182h980z" />
</svg>