<svg xmlns="http://www.w3.org/2000/svg" xmlns:xlink="http://www.w3.org/1999/xlink" version="1.1" viewBox="-10 0 2068 2048">
   <path fill="currentColor"
d="M1024 2048q-39 0 -64 -28q-26 -29 -26 -67v-279h-376q-74 0 -128 -55q-54 -54 -54 -128v-933q0 -74 54 -128q54 -55 128 -55h1302q78 0 134 55q54 54 54 128v933q0 74 -54 128q-56 55 -134 55h-378l-344 344q-30 30 -66 30h-48zM1116 1491v283l288 -283h456v-933h-1302
v933h558zM188 1303h-188v-1115q0 -78 55 -133t133 -55h1486v188h-1486v1115zM746 745h928v188h-928v-188zM746 1116h744v187h-744v-187z" />
</svg>