<svg xmlns="http://www.w3.org/2000/svg" xmlns:xlink="http://www.w3.org/1999/xlink" version="1.1" viewBox="-10 0 2068 2048">
   <path fill="currentColor"
d="M1936 1424q-224 0 -410 -69h-38q-42 0 -74 32l-252 250q-246 -129 -440 -322q-192 -192 -310 -430l250 -250q25 -20 32 -54q6 -32 -10 -58q-60 -210 -60 -411q0 -42 -35 -77t-77 -35h-400q-42 0 -77 35t-35 77q0 528 262 976q256 442 698 699q449 261 976 261
q42 0 78 -35q34 -34 34 -77v-400q0 -43 -34 -77q-36 -35 -78 -35zM230 229h170q11 120 54 294l-134 138q-74 -227 -90 -432zM1818 1819q-204 -17 -432 -91l140 -133q181 42 292 42v182zM1366 1024h228q0 -156 -76 -285q-78 -130 -208 -208q-131 -78 -286 -78v230
q144 0 242 98q100 99 100 243zM1818 1024h230q0 -278 -138 -515q-137 -234 -374 -373q-234 -136 -512 -136v229q217 0 400 107q181 106 288 288q106 182 106 400z" />
</svg>