<svg xmlns="http://www.w3.org/2000/svg" xmlns:xlink="http://www.w3.org/1999/xlink" version="1.1" viewBox="-10 0 2068 2048">
   <path fill="currentColor"
d="M1024 1846q220 0 410 -111q190 -110 300 -300q112 -191 112 -411t-112 -411q-111 -191 -299.5 -301t-411 -110t-411 110t-300.5 301q-110 191 -110 411t110 411q111 190 300 300q191 111 412 111zM1024 2048q-278 0 -514 -137q-235 -136 -372 -373q-138 -236 -138 -514
t138 -514q137 -237 372 -373q236 -137 513.5 -137t514.5 137q236 137 372 373q138 236 138 514t-138 514q-136 236 -372 373q-237 137 -514 137zM832 1072l-216 -216v577h576l-216 -217l508 -509l-144 -145z" />
</svg>