<svg xmlns="http://www.w3.org/2000/svg" xmlns:xlink="http://www.w3.org/1999/xlink" version="1.1" viewBox="-10 0 2068 2048">
   <path fill="currentColor"
d="M1024 403q-178 0 -326 87q-148 86 -236 236q-86 149 -86 326h182q0 -126 64 -233q63 -107 170 -170q106 -63 232.5 -63t233.5 63q106 63 170 170q62 107 62 233h184q0 -177 -88 -326q-87 -150 -234 -236q-149 -87 -328 -87zM1116 1266q65 -30 102 -87q38 -56 38 -127
q0 -95 -68 -163t-163 -68t-163 68t-68 163q0 71 36 129q39 60 104 85v305l-318 318l130 131l278 -279l280 279l130 -131l-318 -318v-305zM1024 28q-278 0 -514 138q-236 139 -372 372q-138 238 -138 514h188q0 -225 114 -418q111 -190 304 -305q191 -113 418.5 -113
t417.5 113q194 115 306 305q112 193 112 418h188q0 -278 -138 -514q-135 -233 -372 -372q-235 -138 -514 -138z" />
</svg>