<svg xmlns="http://www.w3.org/2000/svg" xmlns:xlink="http://www.w3.org/1999/xlink" version="1.1" viewBox="-10 0 2068 2048">
   <path fill="currentColor"
d="M1640 1638q82 0 142 60t60 144t-60 144t-144 60t-144 -60t-60 -144t60 -144t146 -60zM0 2h336l96 202h1514q44 0 72 30q30 33 30 74q0 20 -16 48l-364 662q-24 49 -72 78q-48 28 -104 28h-764l-90 168l-6 14q0 10 8 18q8 6 16 6h1186v206h-1228q-82 0 -142 -60t-60 -146
q0 -52 24 -96l140 -254l-370 -776h-206v-202zM614 1638q86 0 146 60q60 58 60 143t-60 145t-144 60t-144 -60t-60 -144t60 -144t142 -60zM1534 922l288 -512h-1294l240 512h766z" />
</svg>