<svg xmlns="http://www.w3.org/2000/svg" xmlns:xlink="http://www.w3.org/1999/xlink" version="1.1" viewBox="-10 0 2068 2048">
   <path fill="currentColor"
d="M636 635l-160 -22q-60 305 -54 491q10 212 102 320q54 54 174 85q86 26 214 32l102 6l100 -6q128 -6 220 -32q128 -32 176 -85q94 -105 100 -320q11 -192 -48 -491l-164 22l32 160q26 184 10 314q-17 182 -112 219q-56 26 -198 37q-64 6 -116 6v0l-118 -6
q-128 -11 -192 -37q-128 -54 -112 -379q10 -152 44 -314zM1024 0q276 0 512 139t374 373t138 512t-138 512t-374 373t-512 139t-512 -139q-234 -138 -372 -373q-140 -236 -140 -512t140 -512q138 -235 372 -373q236 -139 512 -139z" />
</svg>