<svg xmlns="http://www.w3.org/2000/svg" xmlns:xlink="http://www.w3.org/1999/xlink" version="1.1" viewBox="-10 0 2068 2048">
   <path fill="currentColor"
d="M1894 648h-1796l10 -61q12 -76 46 -149q50 -101 136 -178q117 -96 266 -150q186 -61 440 -61t440 61q149 54 266 150q86 77 136 178q32 69 46 149zM1132 1448h-1034v98q0 125 87 212t213 87h734q-38 -96 -38 -199q0 -102 38 -198zM1978 1120q14 -39 14 -75
q0 -78 -59 -137t-137 -59h-898l-252 196l-248 -196h-202q-78 0 -138 59q-58 58 -58 140t58 140t138 58h1052q84 -93 201 -147t243 -54q155 0 286 75zM2048 1434l-140 -141l-216 211l-210 -211l-140 141l210 210l-210 215l140 140l210 -215l216 215l140 -140l-216 -215z" />
</svg>