<svg xmlns="http://www.w3.org/2000/svg" xmlns:xlink="http://www.w3.org/1999/xlink" version="1.1" viewBox="-10 0 2068 2048">
   <path fill="currentColor"
d="M1924 2048l-74 -73h-1668v-192h1472l-506 -512l8 23h-680l196 -389h104l-96 -100h-8q-82 0 -139 -57t-57 -135v-14l-476 -475l124 -124l1924 1925zM1156 613q53 0 98 -28q44 -27 72 -73h416v860l196 196v-1056q0 -78 -57 -135t-139 -57h-416q-28 -46 -71.5 -73t-98.5 -27
q0 -78 -57 -135t-135 -57h-292q-56 0 -100 27q-46 27 -74 73l612 608q46 -57 46 -123z" />
</svg>