<svg xmlns="http://www.w3.org/2000/svg" xmlns:xlink="http://www.w3.org/1999/xlink" version="1.1" viewBox="-10 0 2068 2048">
   <path fill="currentColor"
d="M1412 1024q0 -87 -12 -196h328q28 105 28 196q0 49 -10 104q101 14 188 64q14 -90 14 -168q0 -267 -130 -490q-131 -223 -354 -354q-223 -130 -489.5 -130t-488.5 130q-224 131 -354 354q-132 225 -132 489.5t132 488.5q131 226 353.5 356t488.5 130q79 0 170 -14
q-74 -127 -74 -280q0 -30 10 -82q-54 107 -106 178q-128 -189 -188 -388h366q87 -155 252 -232q8 -88 8 -156zM974 246q127 186 188 390h-376q60 -201 188 -390zM220 1220q-28 -108 -28 -196t28 -196h330q-14 118 -14 196t14 196h-330zM298 1412h288q55 199 136 348
q-132 -44 -244 -136q-106 -87 -180 -212zM586 636h-288q75 -127 180 -214q112 -91 244 -134q-80 147 -136 348zM1202 1220h-456q-14 -101 -14 -196t14 -196h456q14 118 14 196t-14 196zM1226 288q132 43 244 134q105 87 180 214h-288q-52 -192 -136 -348zM2048 1608v198
h-782v-198h782z" />
</svg>