<svg xmlns="http://www.w3.org/2000/svg" xmlns:xlink="http://www.w3.org/1999/xlink" version="1.1" viewBox="-10 0 2058 2048">
   <path fill="currentColor"
d="M1336 1048l-91 96q-45 45 -67 82q-27 46 -43 106h-207q15 -141 115 -241l125 -130q63 -57 63 -141q0 -85 -60 -145t-147 -60q-86 0 -146 60t-60 142h-202q0 -168 120 -288t288 -120t288 120q121 121 121 288q0 134 -97 231zM1125 1740h-202v-202h202v202zM1505 202h-173
v-202h-615v202h-173q-53 0 -94 41t-41 98v1572q0 57 41 96q40 39 94 39h961q53 0 93 -39q41 -39 41 -96v-1572q0 -57 -41 -98t-93 -41z" />
</svg>