<svg xmlns="http://www.w3.org/2000/svg" xmlns:xlink="http://www.w3.org/1999/xlink" version="1.1" viewBox="-10 0 2058 2048">
   <path fill="currentColor"
d="M921 0h205v205h54q63 0 109 46q47 47 47 110v366l-44 44l170 297q91 -92 137 -202q49 -116 49 -242h209q0 186 -78 349q-78 164 -209 280l326 566l10 229l-195 -127l-317 -551q-172 83 -370 83q-199 0 -371 -83l-317 551l-194 127l9 -229l605 -1048l-44 -44v-366
q0 -64 46 -110t110 -46h53v-205zM756 1190q125 58 268 58t268 -58l-156 -263q-49 44 -112 44t-112 -44zM1024 415q-45 0 -73 29q-30 32 -30 73q0 43 30 76q28 31 73 31t73 -31q29 -32 29 -76q0 -42 -29 -73q-28 -29 -73 -29z" />
</svg>