<svg xmlns="http://www.w3.org/2000/svg" xmlns:xlink="http://www.w3.org/1999/xlink" version="1.1" viewBox="-10 0 2068 2048">
   <path fill="currentColor"
d="M742 1682q-164 -11 -292 -54q-108 -34 -172 -79t-64 -69v-238q180 89 420 119q0 -125 24 -213q-288 -35 -444 -148v-297q111 63 274 101q160 38 338 42l10 -10q173 -173 414 -197q242 -24 442 103v-321q0 -115 -114 -210q-115 -98 -308 -154q-196 -57 -424 -57t-422 57
q-194 56 -310 154q-114 96 -114 210v1059q0 114 114 210t309 153t423 57q71 0 104 -5q-71 -47 -114 -89q-59 -60 -94 -124zM846 213q185 0 346 40q129 34 212 94q76 46 76 76q0 31 -76 77q-86 55 -212 89q-157 45 -345.5 45t-346.5 -45q-127 -34 -212 -89q-74 -45 -74 -77
q0 -31 74 -76q82 -59 212 -94q162 -40 346 -40zM1722 1574q74 -115 74 -253q0 -198 -138 -336q-140 -139 -338 -139q-196 0 -336 139q-138 138 -138 336q0 199 138 337t336 138q134 0 254 -74l326 326l148 -148zM1320 1583q-108 0 -184 -76q-78 -77 -78 -186q0 -108 78 -188
q76 -79 184 -79q110 0 186 79t76 188q0 110 -76 186t-186 76z" />
</svg>