<svg xmlns="http://www.w3.org/2000/svg" xmlns:xlink="http://www.w3.org/1999/xlink" version="1.1" viewBox="-10 0 2058 2048">
   <path fill="currentColor"
d="M668 1201l-401 401l134 133l312 -309h180zM1247 0q-75 0 -127 52t-52 127q0 76 52 128t127 52t127 -52t52 -128q0 -75 -52 -127t-127 -52zM1781 1781l-267 267l-267 -267v-133l-629 -630q-44 8 -84 8v-196q112 4 229 -48q119 -54 188 -131l125 -138q21 -29 63 -48
q41 -19 83 -19h4q83 0 142 59q58 58 58 141v514q0 112 -83 191l-317 -317v-204q-93 76 -204 125l559 559h133z" />
</svg>