<svg xmlns="http://www.w3.org/2000/svg" xmlns:xlink="http://www.w3.org/1999/xlink" version="1.1" viewBox="-10 0 2068 2048">
   <path fill="currentColor"
d="M0 484h390v197h-198v585h198v196h-390v-978zM778 484h1170v489q-88 -65 -192 -87v-205h-978v585h416q-52 0 -88 36t-36 87v73h-292v192q0 41 30 71t70 30h192v192h-242q-44 0 -95 -30t-51 -66q0 37 -50 66q-52 30 -96 30h-242v-192h192q40 0 70 -30q30 -29 30 -71v-1362
q0 -42 -29 -71t-71 -29h-192v-192h242q46 0 96 29t50 67q0 -37 50 -67q50 -29 96 -29h242v192h-192q-42 0 -70 29q-30 30 -30 71v192zM1930 1462q44 0 82 37q36 36 36 87v343q0 47 -38 82q-41 37 -90 37h-534q-46 0 -82 -39q-38 -40 -38 -89v-343q0 -41 37 -78t83 -37v-146
q0 -101 81.5 -174t188.5 -73q105 0 188 73q86 74 86 174v146zM1802 1462v-146q0 -59 -42 -94q-39 -34 -102 -34t-106 34q-44 35 -44 94v146h294z" />
</svg>