<svg xmlns="http://www.w3.org/2000/svg" xmlns:xlink="http://www.w3.org/1999/xlink" version="1.1" viewBox="-10 0 2068 2048">
   <path fill="currentColor"
d="M448 73q50 -45 124 -45h196q82 0 139 57t57 135v100h778q82 0 139 57t57 135v393q40 0 68 28q28 27 28 68q0 42 -27 69t-69 27h-388q-42 0 -72 -27t-30 -69q0 -41 30 -68q32 -28 72 -28v-196h-472zM1924 2048l124 -123l-1924 -1925l-124 124l246 246q-44 40 -56 101
q-12 59 8.5 114t71.5 89q51 35 110 35v877h-102q-76 0 -134 58t-58 139v192h1170v-192q0 -82 -56 -139q-58 -58 -140 -58h-96v-498z" />
</svg>