<svg xmlns="http://www.w3.org/2000/svg" xmlns:xlink="http://www.w3.org/1999/xlink" version="1.1" viewBox="-10 0 2068 2048">
   <path fill="currentColor"
d="M1414 1046q43 0 84 25q96 -25 176 -25q103 0 202 35q10 -66 10 -138q0 -83 -16 -157q-14 -33 -54 -44q-18 -10 -34 -10h-210v-103q0 -64 -54 -94q-21 -9 -50 -9h-210v-108q0 -65 -54 -89q-24 -15 -50 -15h-108v-211q0 -64 -48 -88q-30 -15 -54 -15q-256 0 -472 128
q-215 127 -344 344q-128 217 -128 471q0 255 128 472q128 216 344 343q216 128 472 128q71 0 136 -10q-34 -96 -34 -201q0 -140 56 -258q58 -120 156 -209v-5q0 -64 46 -110q46 -47 110 -47zM368 1046q-68 0 -112 -44t-44 -111q0 -65 43.5 -112t110.5 -47q66 0 114 47
q46 46 46 112q0 68 -46 111q-48 44 -112 44zM526 472q0 -63 44 -111q44 -47 110 -47t113 47t47 111q0 63 -47 110t-113 47t-110 -47q-44 -48 -44 -110zM840 1675q-68 0 -112 -44t-44 -111q0 -66 43.5 -113t110 -47t113.5 47t47 113q0 67 -47.5 111t-110.5 44zM890 1154
q-66 0 -112 -46t-46 -113q0 -68 46 -111q48 -44 114 -44t110 44t44 111q0 66 -44 113q-43 46 -112 46zM1822 1675l226 226l-148 147l-226 -226l-220 226l-148 -147l222 -226l-222 -221l148 -148l220 221l226 -221l148 148z" />
</svg>