<svg xmlns="http://www.w3.org/2000/svg" xmlns:xlink="http://www.w3.org/1999/xlink" version="1.1" viewBox="-10 0 2068 2048">
   <path fill="currentColor"
d="M794 0h-222q0 66 -16 123l180 181q58 -143 58 -304zM0 144l326 325q-150 102 -326 102v224q271 0 486 -166l166 166q-138 106 -304 168q-164 61 -348 61v229q223 0 432 -80q205 -78 378 -218l284 282q-142 175 -220 379q-80 210 -80 432h230q0 -183 62 -347
q61 -164 168 -298l164 160q-164 213 -164 485h224q0 -176 100 -325l326 325l144 -144l-1904 -1904zM1254 0h-230q0 247 -112 475l160 165q182 -293 182 -640zM1926 1493q56 -16 122 -16v-224q-154 0 -304 54zM1408 976l166 160q228 -112 474 -112v-229q-349 0 -640 181z" />
</svg>