<svg xmlns="http://www.w3.org/2000/svg" xmlns:xlink="http://www.w3.org/1999/xlink" version="1.1" viewBox="-10 0 2058 2048">
   <path fill="currentColor"
d="M1300 1423l144 -149l216 221l222 -216l144 144l-222 216l222 217l-144 149l-222 -221l-216 216l-144 -144l216 -217zM330 2048q-130 0 -220 -89q-88 -88 -88 -219q0 -92 52 -168l564 -976v-187q-44 0 -73 -32t-29 -69v-106q0 -82 60 -142t142 -60h414q80 0 140 60
q62 61 62 142v106q0 37 -29 69t-73 32v187l254 447q-197 53 -328.5 219t-131.5 377q0 237 158 409h-874z" />
</svg>