<svg xmlns="http://www.w3.org/2000/svg" xmlns:xlink="http://www.w3.org/1999/xlink" version="1.1" viewBox="-10 0 2068 2048">
   <path fill="currentColor"
d="M1018 704l-544 -544h1104q80 0 135 55t55 134v710q-137 -57 -282 -57q-68 0 -152 18l-110 -110h354v-377h-560v171zM1496 1177l486 492q38 -60 66 -119q-66 -162 -218 -265q-151 -104 -334 -108zM1964 1888l-118 118l-128 -127q-118 48 -232 48q-188 0 -342 -105
q-152 -105 -218 -272q61 -158 206 -259l-118 -118q-108 85 -184 202v-281h-562v377h508q-18 32 -38 92q20 60 38 92h-508q-76 0 -130 -54q-54 -55 -54 -130v-1122q0 -45 18 -84l-102 -105l120 -118zM746 910l-372 -377h-106v377h478zM1596 1756l-316 -315q-30 54 -30 109
q0 101 71 169t165 68q56 0 110 -31z" />
</svg>