<svg xmlns="http://www.w3.org/2000/svg" xmlns:xlink="http://www.w3.org/1999/xlink" version="1.1" viewBox="-10 0 2068 2048">
   <path fill="currentColor"
d="M1465 361q143 152 143 345q0 192 -143 331l-157 -157q61 -82 61 -181t-61 -181zM1774 47q179 188 242 423q63 236 0 469t-242 412l-152 -153q126 -144 172 -324q46 -181 0 -358q-47 -177 -172 -316zM1151 1238q150 49 235 117q105 83 105 183v463h-1490v-463
q0 -101 104 -183q84 -68 235 -117l79 161q-98 29 -170 70q-70 40 -70 69v288h392l83 -471l-87 -174q92 -13 179 -13q85 0 178 13l-87 174l83 471h392v-288q0 -29 -70 -69q-72 -41 -170 -70l22 -48zM746 514q-79 0 -133 54q-55 55 -55 131t55 131q54 54 133 54t133 -54
t54 -131t-54 -131t-133 -54zM746 1072q-153 0 -262 -109t-109 -264t109 -264t262 -109q152 0 261 109t109 264t-109 264t-261 109z" />
</svg>