<svg xmlns="http://www.w3.org/2000/svg" xmlns:xlink="http://www.w3.org/1999/xlink" version="1.1" viewBox="-10 0 2058 2048">
   <path fill="currentColor"
d="M1024 0q-192 0 -358 96t-262 262t-96 353q0 188 111 443q94 202 245 432q122 173 250 332l110 130l111 -130q128 -159 250 -332q151 -230 245 -432q110 -248 110 -440q0 -190 -96 -356t-262 -262q-167 -96 -358 -96zM1115 1409h-182v-178h182v178zM1115 1115h-182
q0 -109 53 -182q29 -44 105 -101q59 -49 77 -72q34 -45 34 -97q0 -72 -53 -125q-52 -52 -125 -52t-125 52q-53 53 -53 125h-182q0 -149 105 -252q104 -103 255 -103t255 103q106 104 106 252q0 76 -44 140q-26 36 -96 98q-64 57 -91 94q-39 53 -39 120z" />
</svg>