<svg xmlns="http://www.w3.org/2000/svg" xmlns:xlink="http://www.w3.org/1999/xlink" version="1.1" viewBox="-10 0 2068 2048">
   <path fill="currentColor"
d="M794 1166q24 29 21 66q-3 40 -28 64q-27 27 -64 32q-39 4 -71 -20q-73 -72 -112 -162q-40 -92 -40 -192.5t40 -191.5q39 -91 112 -164l355 -360q100 -100 229 -132q65 -17 130 -17t130 17q131 33 228 129.5t130 228.5q16 65 16 129.5t-16 130.5q-33 129 -133 230
l-151 150q4 -121 -38 -240l52 -52q81 -90 81 -216t-81 -220q-94 -80 -220 -80t-215 80l-355 364q-90 90 -90 216q0 125 90 210zM2048 1630v204h-809v-204h809zM1362 1194q23 -120 -15 -244q-38 -120 -127 -210q-33 -23 -71 -18q-38 4 -64 30q-26 27 -29 64t22 66
q90 86 90 210q0 126 -90 216l-355 366q-89 80 -216 80t-220 -80q-80 -94 -80 -222q0 -126 80 -214l52 -44q-43 -124 -38 -250l-151 152q-100 100 -133 230t0 260q32 128 131 226q97 98 227 130.5t260 -0.5q131 -33 230 -132l179 -180q23 -136 107 -252q83 -118 211 -184z
" />
</svg>