<svg xmlns="http://www.w3.org/2000/svg" xmlns:xlink="http://www.w3.org/1999/xlink" version="1.1" viewBox="-10 0 2058 2048">
   <path fill="currentColor"
d="M868 1363q39 0 74.5 20t59.5 54q58 -215 240 -354q182 -138 414 -138q133 0 260 54v-54q0 -89 -14 -158q-14 -33 -54 -44q-18 -10 -34 -10h-212v-103q0 -63 -54 -94q-23 -10 -50 -10h-210v-108q0 -65 -56 -89q-22 -14 -48 -14h-108v-212q0 -65 -50 -89q-28 -14 -54 -14
q-256 0 -472 128q-217 128 -344 344q-128 217 -128 473q0 255 128 472q128 218 344 345q216 128 472 128h54q-54 -127 -54 -251q-44 39 -108 39t-108 -44t-44 -111q0 -68 44 -113q45 -47 112 -47zM1076 999q0 66 -44 111q-45 46 -112 46q-66 0 -112 -46q-48 -47 -48 -114
q0 -65 48 -110q46 -45 112 -45t112 45q44 44 44 113zM396 1048q-68 0 -112 -44t-44 -111q0 -68 44 -113q45 -47 110 -47q66 0 114 47q46 46 46 113q0 66 -46 111q-46 44 -112 44zM554 472q0 -64 44 -111q45 -46 110 -46q68 0 114 46t46 111t-46 111q-46 47 -114 47
q-64 0 -110 -47q-44 -47 -44 -111zM1602 1629l188 -187q-78 -79 -188 -79q-108 0 -184 79t-76 187q0 109 76 185t184 76q64 0 118 -27q55 -27 94 -76h176q-44 118 -150 189q-106 72 -238 72q-172 0 -296 -124q-122 -123 -122 -297q0 -175 123 -298t295 -123t296 123
l122 -123v423h-418z" />
</svg>