<svg xmlns="http://www.w3.org/2000/svg" xmlns:xlink="http://www.w3.org/1999/xlink" version="1.1" viewBox="-10 0 2058 2048">
   <path fill="currentColor"
d="M1400 184h-467v747l-231 -210l-232 210v-747h-187v1493h567q14 97 57 184h-624q-78 0 -133 -55t-55 -129v-1493q0 -74 55 -129t133 -55h1117q78 0 133 55t55 129v755q-47 -8 -96 -8t-92 8v-755zM1941 1712q5 0 5 7q0 6 -5 11l-96 161q-9 9 -26 9l-113 -39l-75 48l-17 122
q0 4 -7 11q-6 6 -11 6h-187q-9 0 -26 -17l-22 -122q-40 -14 -74 -48l-110 48q-17 0 -30 -9l-92 -157q-9 -13 9 -31l105 -74v-92l-105 -74q-9 -9 -9 -31l92 -157q12 -8 30 -8l110 48l74 -48l22 -123q0 -17 26 -17h187q5 0 11 6q7 7 7 11l17 123q32 10 88 48l109 -48
q30 0 30 8l92 157q9 9 -9 31l-105 74v92zM1631 1581q0 -54 -41 -96q-42 -44 -96 -44t-98 44t-44 98t44 96t98 42t96 -42q41 -41 41 -98z" />
</svg>