<svg xmlns="http://www.w3.org/2000/svg" xmlns:xlink="http://www.w3.org/1999/xlink" version="1.1" viewBox="-10 0 2068 2048">
   <path fill="currentColor"
d="M408 101q-168 0 -288 120t-120 291t120 291t288 120t288 -120q122 -121 122 -291t-122 -291q-120 -120 -288 -120zM408 716q-86 0 -146 -60q-60 -61 -60 -144t60 -144q60 -60 146 -60q88 0 148 60t60 144t-60 144t-148 60zM408 1125q-168 0 -288 120t-120 291t120 291
t288 120t288 -120q122 -121 122 -291t-122 -291q-120 -120 -288 -120zM1024 308h1024v202h-1024v-202zM1024 1740v-202h1024v202h-1024zM1024 923h1024v202h-1024v-202z" />
</svg>