<svg xmlns="http://www.w3.org/2000/svg" xmlns:xlink="http://www.w3.org/1999/xlink" version="1.1" viewBox="-10 0 2068 2048">
   <path fill="currentColor"
d="M1316 4l-288 288q-62 63 -62 147q0 85 62 142l144 149l-72 72l150 149l76 -77l140 144q62 63 146 63t146 -63l290 -293zM1610 869l-438 -433l144 -144l438 433zM1894 1893l-144 144l-804 -798l-100 101l288 289l-134 144q-225 225 -452 264q-164 24 -308 -43
q-71 -32 -110 -77l-34 -38q-38 -55 -62 -121q-34 -87 -34 -182q5 -120 62 -241q68 -144 208 -288l148 -144l288 293l102 -106l-798 -793l144 -144z" />
</svg>