<svg xmlns="http://www.w3.org/2000/svg" xmlns:xlink="http://www.w3.org/1999/xlink" version="1.1" viewBox="-10 0 2068 2048">
   <path fill="currentColor"
d="M1874 1068q30 30 46 52q52 64 84 117q44 82 44 128q0 73 -50 123t-122 50q-70 0 -120 -50t-50 -123q0 -46 44 -128q30 -49 80 -117zM506 510h342q36 0 62 24t26 60q0 37 -26 63t-62 26h-84v168h172q44 0 84 24q40 23 64 65l554 -326l282 165q32 17 40 50q7 35 -10 66
q-20 34 -50 41q-35 8 -66 -8l-180 -105l-312 542q-25 41 -66 65q-40 24 -84 24h-770q-72 0 -122 -51q-50 -50 -50 -122v-257q0 -72 50 -122q50 -51 122 -51h168v-168h-84q-35 0 -60 -26q-24 -27 -24 -63q0 -35 24 -60q24 -24 60 -24zM422 1024v257h770l178 -305l-298 172
l-80 -124h-570zM24 783l150 -145q24 -24 58 -24t60 24t26 61q0 36 -24 60l-148 149q-24 24 -62 24q-35 0 -60 -26q-24 -26 -24 -61q0 -33 24 -62z" />
</svg>