<svg xmlns="http://www.w3.org/2000/svg" xmlns:xlink="http://www.w3.org/1999/xlink" version="1.1" viewBox="-10 0 2068 2048">
   <path fill="currentColor"
d="M1024 978q-287 0 -512 168l-174 -226q148 -108 324 -168q175 -60 362 -60t362 60q174 60 322 168l-124 160q-57 14 -102 32q-204 -134 -458 -134zM1878 692l170 -226q-219 -166 -480 -254q-262 -90 -544.5 -90t-545.5 90q-258 87 -478 254l170 226q182 -137 400 -210
q218 -74 453.5 -74t454.5 74t400 210zM1024 1262q-190 0 -342 116l342 454l98 -134q-4 -16 -4 -56q0 -189 114 -340q-105 -40 -208 -40zM1572 1686l-152 -152l-112 108l264 284l448 -450l-110 -134z" />
</svg>