<svg xmlns="http://www.w3.org/2000/svg" xmlns:xlink="http://www.w3.org/1999/xlink" version="1.1" viewBox="-10 0 2058 2048">
   <path fill="currentColor"
d="M1024 0q-28 34 -57 68t-58 69q-138 172 -251 338q-160 234 -252 429q-114 240 -114 412q0 194 97 363q96 168 266 269q167 100 369 100t369 -100q168 -101 265 -269q98 -170 98 -363q0 -308 -366 -841q-186 -273 -366 -475zM1327 824l126 125l-732 733l-126 -126z
M749 824q65 0 109 45q46 48 46 109t-46 109q-45 46 -109 46q-63 0 -108 -46q-46 -48 -46 -109t46 -109q44 -45 108 -45zM1298 1373q64 0 109 46q46 48 46 108q0 61 -46 109q-45 46 -109 46q-63 0 -108 -46q-46 -48 -46 -109q0 -60 46 -108q45 -46 108 -46z" />
</svg>