<svg xmlns="http://www.w3.org/2000/svg" xmlns:xlink="http://www.w3.org/1999/xlink" version="1.1" viewBox="-10 0 2058 2048">
   <path fill="currentColor"
d="M584 1608q-48 -71 -66 -172q-9 -62 -9 -189q153 92 224 145q118 82 168 154l31 53v-216q-135 -80 -199 -127q-100 -73 -149 -144q-48 -70 -66 -169q-9 -61 -9 -189q153 92 224 145q118 82 168 154l31 53v-216q-129 -76 -199 -128q-101 -75 -149 -143q-48 -70 -66 -169
q-9 -62 -9 -190q146 88 224 146q118 82 168 154q13 18 22 44q-27 -98 -27 -172q0 -90 40 -216q22 -70 84 -216q65 133 88 207q44 120 44 212q0 83 -27 180l22 -39q51 -73 167 -154q74 -55 225 -146q0 128 -9 190q-18 99 -66 169q-45 65 -150 143q-74 55 -198 128v216l31 -53
q51 -73 167 -154q67 -50 225 -145q0 128 -9 189q-18 99 -66 169q-46 67 -150 144q-67 50 -198 127v216l31 -53q51 -73 167 -154q67 -50 225 -145q0 127 -9 189q-18 101 -66 170q-45 65 -150 143q-74 55 -198 128v171h-184v-171q-129 -76 -199 -128q-100 -73 -149 -141z" />
</svg>