<svg xmlns="http://www.w3.org/2000/svg" xmlns:xlink="http://www.w3.org/1999/xlink" version="1.1" viewBox="-10 0 2058 2048">
   <path fill="currentColor"
d="M1072 0q-163 0 -312 50q-155 52 -282 151l138 137q152 -110 332 -137q186 -27 362 27q179 56 316 192l136 -137q-143 -143 -320 -213t-370 -70zM222 192l-124 123l558 562h-168q-84 0 -141 57t-57 135v782q0 82 58 139q58 58 140 58h1170q66 0 122 -46l46 46l124 -128z
M1072 388q-174 0 -316 92l142 141q113 -50 238 -32q124 18 210 105l138 -137q-82 -81 -190 -125q-110 -44 -222 -44zM1150 877l292 293h216v210l196 197v-508q0 -78 -57 -135t-139 -57h-508zM488 1170h460l294 292h-754v-292z" />
</svg>