<svg xmlns="http://www.w3.org/2000/svg" xmlns:xlink="http://www.w3.org/1999/xlink" version="1.1" viewBox="-10 0 2068 2048">
   <path fill="currentColor"
d="M230 0h1588q96 0 164 67q66 66 66 162v1590q0 96 -66 162q-68 67 -164 67h-1588q-96 0 -163 -67t-67 -162v-1590q0 -95 67 -162t163 -67zM230 229v1590h1588v-1590h-1588zM1184 741q-100 0 -166 38q-54 27 -84 74q-26 36 -32 80l-6 38l22 -22q27 -22 58 -32
q54 -21 106 -21q79 0 144 59q86 79 88 229q4 150 -98 235q-53 48 -106 58l-60 11q-73 0 -138 -21q-85 -27 -134 -107q-64 -95 -64 -261q7 -241 124 -368q86 -91 224 -118q70 -11 122 -5v133zM1018 1035q-34 -6 -66 13q-27 17 -46 40l-16 27v80q0 65 40 106q42 43 94 43
q53 0 86 -43q32 -43 32 -106t-36 -112q-34 -48 -88 -48z" />
</svg>