<svg xmlns="http://www.w3.org/2000/svg" xmlns:xlink="http://www.w3.org/1999/xlink" version="1.1" viewBox="-10 0 2058 2048">
   <path fill="currentColor"
d="M1555 672v-246q48 -24 79 -67q32 -44 32 -97v-9q0 -77 -53 -130t-130 -53h-10q-76 0 -132 53t-56 130v9q0 53 32 97q31 43 84 67v246q-145 20 -260 115l-673 -525q19 -85 -27 -163t-132 -94q-87 -17 -159 24q-73 41 -94 123t24 161q44 79 128 103q101 19 163 -19l660 515
q-92 140 -92 303t101 299l-207 207q-7 0 -24 -5t-24 -5q-72 0 -123 53q-50 51 -50 120t50 116q51 48 121 48q69 0 122 -53t53 -120q0 -29 -9 -53l192 -193q121 88 262 104q142 16 272 -36t217 -171q86 -118 103 -260q16 -142 -36 -272t-164 -219q-111 -88 -240 -103z
M1473 1475q-116 0 -197 -81q-82 -82 -82 -198t82 -195t197 -79q116 0 195 79t79 195t-79 198q-78 81 -195 81z" />
</svg>