<svg xmlns="http://www.w3.org/2000/svg" xmlns:xlink="http://www.w3.org/1999/xlink" version="1.1" viewBox="-10 0 2068 2048">
   <path fill="currentColor"
d="M313 102q-68 0 -124 43q-57 44 -72 110l-106 452q-39 168 62 293l29 29v710q0 87 65 147t142 60h1430q87 0 147 -65t60 -142v-710l28 -29q102 -126 63 -293l-106 -452q-19 -67 -74 -110t-123 -43h-1421zM1730 303l110 452q15 67 -26 118q-40 50 -94 50q-53 0 -86 -36
q-35 -38 -39 -84l-62 -495zM313 308h202l-62 495q-19 120 -120 120q-63 0 -96 -48q-44 -53 -29 -120zM721 308h202v481q0 54 -38 93q-39 41 -94 41t-91 -43q-36 -44 -36 -96v-15zM1125 308h201l58 461q9 64 -29 108q-40 46 -105 46q-47 0 -87 -41q-38 -39 -38 -93v-481z
M558 1029q101 96 240 96q130 0 226 -96q111 96 238 96q128 0 228 -96q87 96 230 96h24v614h-1435v-614h24q138 0 225 -96z" />
</svg>