<svg xmlns="http://www.w3.org/2000/svg" xmlns:xlink="http://www.w3.org/1999/xlink" version="1.1" viewBox="-10 0 2058 2048">
   <path fill="currentColor"
d="M1026 2048q-68 0 -131 -17q-155 -30 -276 -140q-121 -111 -170 -261q-49 -153 -15 -315q35 -164 152 -290q27 -27 27 -61q0 -32 -27 -56q-94 -115 -117 -266q-22 -148 30 -287q53 -141 172 -233t266 -115q146 -23 285 30q139 52 235 170q121 152 121 348q0 198 -121 353
q-21 24 -20 63q2 35 28 59q108 120 146 278q37 153 -9 311q-44 154 -167 264q-83 79 -189 122q-105 43 -220 43zM1026 189q-130 0 -231 83q-69 53 -104 129q-35 77 -35 158q0 130 78 235q71 79 66 183q-4 105 -81 183q-76 77 -100 186.5t9 216.5q34 108 115 185
q83 78 191 102q110 24 216 -9q107 -33 180 -115q114 -119 114 -283t-114 -287q-73 -74 -78 -181q-4 -106 65 -189q97 -123 79 -274q-18 -153 -140 -249q-67 -56 -147 -74h-83zM1026 468q0 40 28 65q29 26 65 26q37 0 66 -26q28 -25 28 -65t-28 -65q-29 -26 -66 -26
q-36 0 -65 26q-28 25 -28 65zM1213 1674q34 0 63 -26q28 -25 28 -66q0 -40 -28 -65q-29 -26 -65 -26q-37 0 -66 26q-28 25 -28 65q0 41 28 66q29 26 68 26zM1117 1395q39 0 68 -26q28 -25 28 -65t-28 -65q-30 -27 -66 -27q-34 0 -65 27q-28 25 -28 65t28 65q29 26 63 26z
M934 1582q36 0 64 -28t28 -65t-28 -65q-29 -29 -66 -29q-36 0 -65 29q-28 28 -28 65t28 65t67 28z" />
</svg>