<svg xmlns="http://www.w3.org/2000/svg" xmlns:xlink="http://www.w3.org/1999/xlink" version="1.1" viewBox="-10 0 2068 2048">
   <path fill="currentColor"
d="M202 202h1644q82 0 142 60t60 147v1230q0 87 -60 147t-142 60h-1644q-82 0 -142 -60t-60 -147v-1230q0 -87 60 -147t142 -60zM202 409v1230h1644v-1230h-1644zM1024 870q62 0 108 46t46 108t-46 108t-108 46t-108 -46t-46 -108t46 -108t108 -46zM1024 562q162 0 287 101
t165 260h-164q-29 -92 -108 -149q-81 -58 -180.5 -58t-179.5 58q-80 57 -108 149h-164q39 -159 164 -260t288 -101zM1024 1485q-165 0 -288 -100q-125 -101 -164 -260h164q28 92 108 149q80 58 179.5 58t180.5 -58q79 -57 108 -149h164q-40 159 -164 260q-124 100 -288 100z
" />
</svg>