<svg xmlns="http://www.w3.org/2000/svg" xmlns:xlink="http://www.w3.org/1999/xlink" version="1.1" viewBox="-10 0 2058 2048">
   <path fill="currentColor"
d="M1463 1069q-107 0 -190 73q-85 74 -85 174v146q-40 0 -77 37t-37 78v343q0 51 34 89q34 39 80 39h540q49 0 86 -37t37 -82v-343q0 -52 -34 -87q-35 -37 -80 -37v-146q0 -100 -85 -174q-83 -73 -189 -73zM1463 1188q59 0 102 34q44 35 44 94v146h-293v-146q0 -59 44 -94
q43 -34 103 -34zM576 0q-155 0 -267 114q-112 113 -112 274v1024q0 143 73 265q74 124 196 197t266 73q50 0 146 -18v-156q-76 28 -146 28q-160 0 -275 -115q-114 -114 -114 -274v-1024q0 -100 71 -171t171 -71q101 0 172 71q70 70 70 171v828q0 47 -25 73q-26 27 -70 27
q-46 0 -71 -27q-25 -26 -25 -73v-732h-147v732q0 105 71 176q70 70 172 70q101 0 171 -70q71 -71 71 -176v-828q0 -159 -115 -274q-114 -114 -283 -114h5h-5zM1120 484v530q73 -73 146 -100v-430h-146z" />
</svg>