<svg xmlns="http://www.w3.org/2000/svg" xmlns:xlink="http://www.w3.org/1999/xlink" version="1.1" viewBox="-10 0 2067 2048">
   <path fill="currentColor"
d="M798 1216q86 0 144 58t58 142t-58 142q-57 57 -142 57q-84 0 -141 -57q-58 -58 -58 -142t58 -142t139 -58zM1278 135h73q186 0 348 94q161 93 254 254q94 162 94 349l-5 86l-120 -38v-48q0 -153 -77 -286q-76 -132 -209 -209t-285 -77h-39zM1365 433q159 4 271 120
q113 116 113 274l-125 -38q-15 -87 -77 -149t-148 -77zM1 1375q-4 -93 38 -202q73 -184 264 -356q114 -105 221 -182q92 -60 159 -91q49 -20 86 -24h77q59 5 91 28q53 33 53 101q5 88 -62 217h5q121 -125 365 -149q143 -15 182 86q34 73 5 192q151 73 231 176q81 104 81 218
q0 145 -120 265q-122 122 -326 190q-207 69 -452 69h-29q-266 0 -480 -86q-216 -87 -317 -231q-72 -96 -72 -207v-14zM798 1015q-160 0 -298 55q-139 55 -218 146q-80 92 -80 200q0 107 80 199t218 147t300 55q163 0 301 -55t218 -147t80 -199q0 -108 -80 -200
q-78 -91 -218 -146q-138 -55 -303 -55z" />
</svg>