<svg xmlns="http://www.w3.org/2000/svg" xmlns:xlink="http://www.w3.org/1999/xlink" version="1.1" viewBox="-10 0 2068 2048">
   <path fill="currentColor"
d="M376 1024l182 -370v-96h-278v96h186l-186 370h96zM746 1024l188 -370v-96h-280v96h184l-184 370h92zM1116 1024l188 -370v-96h-280v96h188l-188 370h92zM1860 96q-78 0 -132 54t-54 128q0 52 26 96q24 42 70 66v1050h-280v-188q40 0 66 -26t26 -64v-838q0 -44 -26 -70
t-66 -26h-352q-59 -84 -150 -132q-94 -50 -196 -50t-194 50q-90 48 -148 132h-354q-42 0 -68 26q-28 28 -28 70v838q0 38 28 64q26 26 68 26v650h1394v-278h280q72 0 127 -55t55 -129v-1050q45 -23 70 -66q26 -44 26 -96q0 -74 -54 -128q-56 -54 -134 -54zM188 466h1206v650
h-1206v-650zM1304 1768h-1024v-466h1024v466zM1116 1674h-650v-184h650v184z" />
</svg>