<svg xmlns="http://www.w3.org/2000/svg" xmlns:xlink="http://www.w3.org/1999/xlink" version="1.1" viewBox="-10 0 2068 2048">
   <path fill="currentColor"
d="M818 870q172 0 292 -120t120 -291t-120 -291t-291 -120t-291 120t-120 291t120 291t290 120zM818 255q86 0 146 60t60 144t-60 144t-144 60t-144 -60t-60 -144t60 -144t142 -60zM1024 1692h-1024v-308q0 -129 150 -230q133 -84 336 -135q182 -48 333 -48t343 48
q-14 53 -14 106v91q-172 -48 -330 -48q-144 0 -298 38q-134 38 -232 92q-96 52 -96 86v111h832v197zM1926 1384h-442v-259q0 -57 46 -94q46 -36 109 -36t107 36q46 37 46 94v53h134v-53q0 -106 -88 -181q-87 -74 -200 -74q-111 0 -198 74q-90 75 -90 181v259q-42 0 -82 39
q-38 38 -38 82v360q0 53 36 94q37 41 84 41h568q52 0 91 -39t39 -86v-361q0 -52 -36 -91t-86 -39z" />
</svg>