<svg xmlns="http://www.w3.org/2000/svg" xmlns:xlink="http://www.w3.org/1999/xlink" version="1.1" viewBox="-10 0 2058 2048">
   <path fill="currentColor"
d="M2019 389v555h-166v-389h-622l269 269l-119 120l-466 -472l466 -472l119 119l-269 270h788zM671 674q47 -47 26 -109q-62 -198 -62 -399q0 -47 -31 -78t-78 -31h-389q-46 0 -77 31t-31 78q0 374 142 721q141 345 407 611q264 265 611 407q348 143 721 143q47 0 78 -31
t31 -78v-389q0 -47 -31 -78t-78 -31q-206 0 -394 -62q-67 -21 -114 26l-244 244q-232 -124 -419 -311q-189 -189 -306 -420z" />
</svg>