<svg xmlns="http://www.w3.org/2000/svg" xmlns:xlink="http://www.w3.org/1999/xlink" version="1.1" viewBox="-10 0 2058 2048">
   <path fill="currentColor"
d="M387 135q134 0 226 92t92 226q0 105 -60 187t-154 112v678q94 30 154 112q60 83 60 187q0 135 -92 227t-226 92q-135 0 -227 -92t-92 -227q0 -104 60 -187q60 -82 154 -112v-678q-94 -30 -154 -112t-60 -187q0 -134 92 -226t227 -92zM387 349q-45 0 -75 30t-30 74
q0 45 30 75t75 30q44 0 74 -30t30 -75q0 -44 -30 -74t-74 -30zM387 1624q-45 0 -75 30t-30 75t30 75t75 30q44 0 74 -30t30 -75t-30 -75t-74 -30zM1980 1729q0 135 -92 227t-226 92q-135 0 -227 -92t-92 -227q0 -104 60 -187q60 -82 154 -112v-872h-214v349l-453 -454
l453 -453v349h214q85 0 147 62t62 147v872q96 30 155 112q59 81 59 187zM1662 1624q-45 0 -75 30t-30 75t30 75t75 30q44 0 74 -30t30 -75t-30 -75t-74 -30z" />
</svg>