<svg xmlns="http://www.w3.org/2000/svg" xmlns:xlink="http://www.w3.org/1999/xlink" version="1.1" viewBox="-10 0 2058 2048">
   <path fill="currentColor"
d="M98 315l124 -123l1728 1728l-124 128l-142 -142q-56 41 -122 41h-978q-78 0 -135 -57t-57 -135v-1147zM1072 1558q-124 0 -208 -84q-84 -85 -84 -208q0 -111 72 -197l-136 -137q-132 141 -132 334q0 132 66 244q66 114 178 179q112 66 244 66q191 0 334 -133l-138 -137
q-86 73 -196 73zM1562 1266q0 -131 -68 -245q-65 -112 -178 -178q-112 -66 -244 -66h-18l-654 -654q23 -55 74 -89q50 -34 110 -34h978q76 0 134 57q58 58 58 135v1289l-192 -197v-18zM1072 192q-82 0 -139 57t-57 139q0 83 57 140t139 57t139 -57t57 -140q0 -82 -57 -139
t-139 -57z" />
</svg>