<svg xmlns="http://www.w3.org/2000/svg" xmlns:xlink="http://www.w3.org/1999/xlink" version="1.1" viewBox="-10 0 2068 2048">
   <path fill="currentColor"
d="M390 1106l-390 -390l72 -96q98 -117 206 -211q161 -136 328 -212q206 -96 417 -96t419 96q166 76 326 212q113 97 208 211l72 96l-390 390l-634 -635zM1178 1639h-308v207l154 101l154 -101v-207zM1514 1250l-264 264q-101 -81 -226.5 -81t-225.5 81l-264 -264l490 -490z
M1124 1231q0 -43 -28 -75q-29 -31 -72.5 -31t-71.5 31q-30 32 -30 72t29 72t72.5 32t72 -32t28.5 -69z" />
</svg>