<svg xmlns="http://www.w3.org/2000/svg" xmlns:xlink="http://www.w3.org/1999/xlink" version="1.1" viewBox="-10 0 2068 2048">
   <path fill="currentColor"
d="M1832 1594l216 216l-140 140l-216 -216l-210 216l-140 -140l210 -216l-210 -210l140 -140l210 210l216 -210l140 140zM1094 1594q0 42 10 104h-908q-78 0 -138 -60q-58 -58 -58 -142v-1196q0 -86 58 -144t138 -58h1600q78 0 136 58q60 60 60 144v780q-137 -84 -298 -84
t-298 82q-138 82 -220 220q-82 135 -82 296zM1796 500v-200l-800 500l-800 -500v200l800 496z" />
</svg>