<svg xmlns="http://www.w3.org/2000/svg" xmlns:xlink="http://www.w3.org/1999/xlink" version="1.1" viewBox="-10 0 2068 2048">
   <path fill="currentColor"
d="M188 1212l48 4l422 -424q-13 -47 0 -94q14 -49 48 -84q58 -56 134 -56q75 0 128 56q39 35 50 84q11 51 2 94l236 236l48 -4q28 0 48 4l330 -330q-8 -14 -8 -44q0 -80 54 -134t133 -54t133 54t54 131t-54 131t-134 54q-32 0 -48 -4l-330 332q8 13 8 48q0 74 -54 128
t-132 54t-133 -55t-55 -127l8 -48l-238 -240q-49 13 -92 0l-428 426l10 44q0 80 -54 134t-133 54t-133 -54q-56 -56 -56 -132t56 -130q54 -54 132 -54z" />
</svg>