<svg xmlns="http://www.w3.org/2000/svg" xmlns:xlink="http://www.w3.org/1999/xlink" version="1.1" viewBox="-10 0 2068 2048">
   <path fill="currentColor"
d="M1524 414v-204h-810v204h810zM610 1634q-80 0 -140 60t-60 142t60 142t143 60t143 -60q58 -58 58 -142t-58 -142q-60 -60 -146 -60zM1628 1634q-84 0 -144 60t-60 142t60 142t142 60t142 -60t60 -142t-60 -142t-140 -60zM628 1306l6 -16l90 -166h756q57 0 106 -28
q48 -29 72 -76l390 -710l-176 -100l-392 714h-714l-432 -914h-334v200h206l366 772l-138 252q-24 43 -24 94q0 86 60 146q58 60 140 60h1218v-206h-1176q-10 0 -17 -7t-7 -15z" />
</svg>