<svg xmlns="http://www.w3.org/2000/svg" xmlns:xlink="http://www.w3.org/1999/xlink" version="1.1" viewBox="-10 0 2058 2048">
   <path fill="currentColor"
d="M1563 857l72 -306q24 -66 24 -144q6 -125 -60 -227q-120 -180 -449 -180h-251q-329 0 -449 180q-96 144 -42 365l78 312q-109 109 -168 248q-60 141 -60 302q0 198 93 366q93 167 254 275h838q163 -109 255 -275t92 -366q0 -163 -59 -302t-168 -248zM719 707l-66 -222
l-6 -60q-6 -59 18 -89q42 -78 234 -78h251q179 0 245 66q24 30 18 89l-6 48l-66 246q-168 -66 -320 -66t-302 66z" />
</svg>