<svg xmlns="http://www.w3.org/2000/svg" xmlns:xlink="http://www.w3.org/1999/xlink" version="1.1" viewBox="-10 0 2068 2048">
   <path fill="currentColor"
d="M1846 308h-514q-88 0 -148 60t-60 142v514q0 87 60 147t148 60h514q82 0 142 -60t60 -147v-514q0 -82 -60 -142t-142 -60zM1586 1077q-124 0 -216 -92q-92 -91 -92 -218q0 -129 92 -217q92 -89 219 -89t216 89t89 217q0 126 -89 218t-219 92zM1586 923q-62 0 -108 -46
q-46 -45 -46 -110t46 -108q45 -44 110 -44q64 0 108 44q44 43 44 108q0 66 -44 110q-44 46 -110 46zM1024 1332v-1024h-822q-82 0 -142 60t-60 142v1028q0 82 60 142t142 60h1644q82 0 142 -60t60 -142v-206h-1024zM818 1024h-616v-514h616v514z" />
</svg>