<svg xmlns="http://www.w3.org/2000/svg" xmlns:xlink="http://www.w3.org/1999/xlink" version="1.1" viewBox="-10 0 2068 2048">
   <path fill="currentColor"
d="M1024 409q-410 0 -514 408q153 -202 360 -154q56 16 106 53q48 49 90 87v5q101 102 178 144q125 72 294 72q409 0 510 -409q-155 202 -356 154q-57 -16 -106 -53q-32 -27 -86 -81l-10 -10q-98 -103 -174 -144q-124 -72 -292 -72zM510 1024q-409 0 -510 409
q154 -202 356 -154q56 16 106 53q31 27 86 81l10 10q97 103 172 144q125 72 294 72q409 0 514 -408q-154 202 -360 154q-56 -16 -102 -53q-33 -24 -90 -82l-6 -10q-100 -102 -178 -144q-124 -72 -292 -72z" />
</svg>