<svg xmlns="http://www.w3.org/2000/svg" xmlns:xlink="http://www.w3.org/1999/xlink" version="1.1" viewBox="-10 0 2068 2048">
   <path fill="currentColor"
d="M1254 1115q-98 -91 -236 -91t-236 99q-98 98 -98 242q0 114 62 198q64 84 166 122q6 -181 96 -333q90 -151 246 -237zM922 1819h-692v-1590h1268l320 320v512q131 47 230 139v-747l-454 -453h-1364q-96 0 -163 67t-67 162v1590q0 95 67 162t163 67h772q-63 -105 -80 -229
zM342 795h1024v-454h-1024v454zM1450 2048l-314 -341l134 -134l180 182l412 -406l128 160z" />
</svg>