<svg xmlns="http://www.w3.org/2000/svg" xmlns:xlink="http://www.w3.org/1999/xlink" version="1.1" viewBox="-10 0 2058 2048">
   <path fill="currentColor"
d="M1671 971h-541v-541h541v541zM1509 1618q-66 0 -114 -48t-48 -116q0 -69 48 -114t114 -45t114 45t48 114q0 68 -48 116t-114 48zM918 971h-541v-541h541v541zM539 1618q-66 0 -114 -48t-48 -116q0 -69 48 -114t114 -45q65 0 113 45t48 114q0 68 -48 116t-113 48zM1024 0
q-419 0 -612 71q-252 101 -252 359v1026q0 158 111 266q112 109 268 109l-162 161v56h1294v-56l-162 -161q156 0 268 -109q111 -108 111 -266v-1026q0 -258 -253 -359q-193 -71 -611 -71z" />
</svg>