<svg xmlns="http://www.w3.org/2000/svg" xmlns:xlink="http://www.w3.org/1999/xlink" version="1.1" viewBox="-10 0 2068 2048">
   <path fill="currentColor"
d="M308 101q-96 0 -174 58q-61 47 -98 120q-36 72 -36 130v514q0 58 36 130q37 73 98 120q78 58 172 58q92 0 204 -77v692q0 39 31 70t75 31h100q44 0 72 -31q30 -32 30 -70v-1231q0 -99 -85 -223t-207 -207q-122 -84 -218 -84zM616 841l-218 140q-62 43 -90 43
q-50 0 -82 -48q-24 -39 -24 -53v-510q0 -24 24 -57q32 -48 80 -48q44 0 120 57q73 55 132 130q58 73 58 120v226zM1484 1332q104 0 208 -34v548q0 39 -31 70t-75 31h-202q-44 0 -75 -31t-31 -70v-548q104 34 206 34zM1484 101q-153 0 -282 77q-130 76 -205 204t-75 281
t75 284t205 207q129 77 282 77q155 0 284 -77q130 -76 205 -207t75 -284t-75 -281t-205 -204q-129 -77 -284 -77zM1484 1024q-149 0 -254 -106q-106 -108 -106 -255.5t106 -251.5q105 -103 254 -103q151 0 256 103q106 104 106 251.5t-106 255.5q-105 106 -256 106z" />
</svg>