<svg xmlns="http://www.w3.org/2000/svg" xmlns:xlink="http://www.w3.org/1999/xlink" version="1.1" viewBox="-10 0 2068 2048">
   <path fill="currentColor"
d="M96 305l118 -118l1556 1556l-118 118l-288 -284q-166 53 -340 53q-343 0 -622 -194q-279 -193 -402 -504q96 -247 298 -422zM1024 653q118 0 199 81t81 198q0 48 -18 92l-352 -353q43 -18 90 -18zM1024 235q344 0 624 194q278 193 400 503q-117 296 -374 484l-132 -135
q195 -134 302 -349q-111 -232 -336 -372q-221 -137 -484 -137q-149 0 -292 43l-144 -139q210 -92 436 -92zM206 932q111 233 336 373q220 137 482 137q105 0 188 -17l-214 -214q-101 -9 -172 -80q-72 -72 -80 -172l-318 -319q-139 121 -222 292z" />
</svg>