<svg xmlns="http://www.w3.org/2000/svg" xmlns:xlink="http://www.w3.org/1999/xlink" version="1.1" viewBox="-10 0 2068 2048">
   <path fill="currentColor"
d="M898 1250l-100 100l100 96l-100 100l-100 -100l-96 100l-100 -100l100 -96l-100 -100l100 -100l96 100l100 -100zM1446 1150l-94 100l-102 -100l-100 100l100 100l-100 96l100 100l102 -100l94 100l102 -100l-102 -96l102 -100zM2048 1302v280q0 39 -28 64q-31 28 -68 28
h-92v94q0 76 -54 130t-132 54h-1298q-78 0 -134 -54q-54 -54 -54 -130v-94h-92q-36 0 -66 -28q-30 -25 -30 -64v-280q0 -39 29.5 -64.5t66.5 -25.5h92q0 -180 88 -330q87 -151 236 -238q150 -86 326 -86h96v-118q-46 -24 -70 -66q-26 -44 -26 -96q0 -74 54 -128t132 -54
t134 54q54 54 54 128q0 52 -26 96q-25 42 -70 66v118h96q174 0 324 86q150 87 238 238q86 150 86 330h92q38 0 68 26q28 25 28 64zM1860 1394h-186v-182q0 -128 -62 -234q-61 -107 -168 -170q-108 -64 -232 -64h-374q-125 0 -234 64q-106 63 -168 170q-60 106 -60 234v182
h-188v96h188v278h1298v-278h186v-96z" />
</svg>