<svg xmlns="http://www.w3.org/2000/svg" xmlns:xlink="http://www.w3.org/1999/xlink" version="1.1" viewBox="-10 0 2058 2048">
   <path fill="currentColor"
d="M880 1508q0 -168 84 -315q84 -146 232 -231q147 -85 314 -85q113 0 248 46v-338l-586 -585h-780q-84 0 -141 57t-57 135v1563q0 78 57 135t141 57h662q-84 -88 -128 -201q-46 -114 -46 -238zM1072 146l540 535h-540v-535zM1466 973v147q160 0 274 114t114 274
q0 132 -70 215l-104 -105q28 -47 28 -110q0 -100 -71 -171t-171 -71v146l-216 -215zM1466 2048v-147q-166 0 -280 -114t-114 -279q0 -134 68 -215l110 110q-32 41 -32 105q0 105 71 176t177 71v-146l214 215z" />
</svg>