<svg xmlns="http://www.w3.org/2000/svg" xmlns:xlink="http://www.w3.org/1999/xlink" version="1.1" viewBox="-10 0 2068 2048">
   <path fill="currentColor"
d="M1024 188q-343 0 -622 194q-280 193 -402 502q123 311 402 504q279 194 622 194q62 0 100 -4q-8 -48 -8 -92q0 -43 8 -96q-58 4 -100 4q-262 0 -482 -136q-225 -140 -336 -374q110 -232 336 -372q220 -136 482.5 -136t483.5 136q225 140 336 372l-36 66q99 24 174 74
q41 -75 66 -140q-122 -310 -400 -502q-280 -194 -624 -194zM1024 606q-116 0 -197 81t-81 197q0 118 80 200q80 80 198 80t198 -80q82 -82 82 -200q0 -116 -81 -197t-199 -81zM1582 1116v278h-278v188h278v278h188v-278h278v-188h-278v-278h-188z" />
</svg>