<svg xmlns="http://www.w3.org/2000/svg" xmlns:xlink="http://www.w3.org/1999/xlink" version="1.1" viewBox="-10 0 2068 2048">
   <path fill="currentColor"
d="M1024 24q-200 0 -392 77q-188 75 -333.5 220.5t-220.5 334.5q-78 191 -78 392q0 337 194 603q195 266 508 373q34 4 50 -12t16 -41v-173q-177 38 -278 -48q-53 -40 -68 -91q-20 -55 -52 -92q-18 -28 -44 -43l-18 -15q-38 -28 -38 -43q0 -14 24 -14l24 -5q61 4 114 58
q31 25 40 48q63 101 162 110q63 4 140 -24q8 -90 62 -139q-211 -24 -316 -116q-150 -125 -150 -389q0 -159 106 -274q-20 -43 -20 -96q-9 -89 30 -178h28q40 0 92 19q70 26 162 87q124 -34 255.5 -34t254.5 34q126 -82 216 -101q49 -10 68 -5q38 89 28 178q0 53 -18 96
q106 116 106 274q0 268 -150 389q-111 92 -316 116q66 62 66 192v279q0 24 18 41q16 16 54 12q308 -107 502 -373q196 -267 196 -603q0 -201 -78 -392q-75 -189 -220.5 -334.5t-333.5 -220.5q-192 -77 -392 -77z" />
</svg>