<svg xmlns="http://www.w3.org/2000/svg" xmlns:xlink="http://www.w3.org/1999/xlink" version="1.1" viewBox="-10 0 2068 2048">
   <path fill="currentColor"
d="M986 699v759h810q125 -9 188 -79q64 -69 64 -172q0 -102 -69 -174t-175 -72q-50 0 -96 17q-17 -160 -142 -274q-124 -114 -292 -114t-288 109zM902 795q-49 -26 -90 -35v698h130v-715q-15 15 -40 52zM684 743v715h84v-711q-20 -4 -52 -4h-32zM514 804v654h84v-693
q-45 14 -84 39zM358 1039q-4 0 -8 -4l-10 -4v427h88v-571q-51 64 -70 152zM170 1013v436q26 9 66 9h18v-454h-18q-36 0 -66 9zM0 1231q0 104 84 170v-344q-84 69 -84 174z" />
</svg>