<svg xmlns="http://www.w3.org/2000/svg" xmlns:xlink="http://www.w3.org/1999/xlink" version="1.1" viewBox="-10 0 2068 2048">
   <path fill="currentColor"
d="M230 912l170 -512h1248l170 512h-1588zM1648 1477q-70 0 -120 -48q-50 -47 -50 -120q0 -72 50 -122q50 -51 122 -51t120 51t48 122q0 72 -48 120t-122 48zM400 1477q-74 0 -122 -48t-48 -120q0 -71 48 -122t120 -51t123 51t51 122q0 72 -51 120t-121 48zM1814 341
q-21 -48 -64 -80t-102 -32h-282v-229h-682v229h-284q-58 0 -100 32q-44 32 -64 80l-236 683v912q0 48 32 80t80 32h118q48 0 80 -32t32 -80v-117h1364v117q0 48 32 80t80 32h118q48 0 80 -32t32 -80v-912z" />
</svg>