<svg xmlns="http://www.w3.org/2000/svg" xmlns:xlink="http://www.w3.org/1999/xlink" version="1.1" viewBox="-10 0 2068 2048">
   <path fill="currentColor"
d="M1534 1230h206v306h308v202h-308v308h-206v-308h-306v-202h306v-306zM206 1738q0 42 30 74q28 32 72 32h752q38 114 120 202h-872q-130 0 -220 -90q-88 -88 -88 -218q0 -90 54 -168l560 -974v-186q-43 0 -72 -32q-28 -32 -28 -70v-104q0 -82 60 -142q58 -60 140 -60h412
q84 0 142 60q60 60 60 142v104q0 38 -28 70q-29 32 -72 32v186l254 446q-100 24 -182 82l-278 -474v-446h-202v446l-594 1030q-20 28 -20 58zM1022 1432l62 -58q-62 122 -62 264h-538l274 -470zM974 1024q18 0 34 14q14 14 14 36t-14 36q-16 14 -37 14t-36 -15t-15 -35
t15 -35t39 -15z" />
</svg>