<svg xmlns="http://www.w3.org/2000/svg" xmlns:xlink="http://www.w3.org/1999/xlink" version="1.1" viewBox="-10 0 2068 2048">
   <path fill="currentColor"
d="M648 215q-138 0 -231 93t-93 230v324q0 131 94 227q93 97 229.5 97t230.5 -97t94 -227v-324q0 -136 -94 -230q-94 -93 -230 -93zM754 862q0 45 -30 76q-30 30 -76 30t-76 -30q-30 -31 -30 -76v-324q0 -44 30 -78q30 -33 76 -33t76 33q30 34 30 78v324zM1402 1186
q135 0 228.5 -97t93.5 -227v-324q0 -136 -94 -230q-92 -93 -226 -93t-230 93t-96 230v324q0 131 96 227q96 97 228 97zM1294 538q0 -44 32 -78q30 -33 76 -33q44 0 77 33t33 78v324q0 46 -33 76t-77 30q-46 0 -76 -30q-32 -31 -32 -76v-324zM1724 1833v-218h-646v-217h646
v-212l324 323zM218 1074v324h-110l-108 -324q0 -45 32 -76q30 -30 76 -30q44 0 77 30t33 76z" />
</svg>