<svg xmlns="http://www.w3.org/2000/svg" xmlns:xlink="http://www.w3.org/1999/xlink" version="1.1" viewBox="-10 0 2068 2048">
   <path fill="currentColor"
d="M1024 833h126v383h-126v-383zM384 958h132v-125h-132v125zM2048 258v1533q0 107 -75 182t-183 75h-1532q-108 0 -183 -75t-75 -182v-1533q0 -108 75 -183t183 -75h1532q108 0 183 75t75 183zM706 833q0 -78 -57 -135t-133 -57h-324v766h192v-257h132q76 0 133 -54
t57 -138v-125zM1340 833q0 -79 -52 -135q-54 -57 -138 -57h-318v766h318q84 0 137 -56t53 -135v-383zM1856 641h-384v766h192v-257h192v-192h-192v-125h192v-192z" />
</svg>