<svg xmlns="http://www.w3.org/2000/svg" xmlns:xlink="http://www.w3.org/1999/xlink" version="1.1" viewBox="-10 0 2058 2048">
   <path fill="currentColor"
d="M1024 1221l-136 -127q-240 -218 -560 -280v692q382 51 696 285q313 -234 696 -285v-692q-320 62 -560 280zM1720 613q102 -14 202 -14v1094q-257 0 -486 93q-227 92 -412 262q-187 -171 -412 -262q-229 -93 -486 -93v-1094q100 0 202 14q399 62 696 336
q296 -274 696 -336zM1024 398q36 0 67 -31t31 -70t-30 -70q-30 -30 -68 -30t-68 32q-30 34 -30 71q0 36 31 67t67 31zM1234 510q-88 89 -210 89t-211 -89t-89 -213q0 -123 90 -210q88 -87 210 -87t210 87q90 87 90 210q0 124 -90 213z" />
</svg>