<svg xmlns="http://www.w3.org/2000/svg" xmlns:xlink="http://www.w3.org/1999/xlink" version="1.1" viewBox="-10 0 2068 2048">
   <path fill="currentColor"
d="M1178 817q0 67 -46 111q-45 43 -108.5 43t-107.5 -43q-46 -44 -46 -108q0 -65 46 -111t108 -46t108 46t46 108zM2048 202v1231q0 86 -60 146t-142 60h-1438l-408 409v-1846q0 -82 60 -142t142 -60h1644q82 0 142 60t60 142zM1514 952l-110 -82q0 -32 2 -50q2 -25 -2 -51
l110 -86q14 -14 4 -34l-106 -178q-4 -14 -28 -10l-130 49q-45 -35 -86 -49l-20 -134q0 -19 -24 -19h-202q-24 0 -28 19l-20 134q-35 16 -86 49l-130 -49q-20 -9 -28 10l-102 178q-14 19 6 34l106 86q-5 48 0 101l-106 82q-20 15 -6 33l102 178q9 20 28 15l130 -53
q47 35 86 53l20 134q4 20 28 20h202q25 0 30 -20l18 -139q39 -17 88 -48l124 53q29 0 34 -15l100 -178q9 -19 -4 -33z" />
</svg>