<svg xmlns="http://www.w3.org/2000/svg" xmlns:xlink="http://www.w3.org/1999/xlink" version="1.1" viewBox="-10 0 2068 2048">
   <path fill="currentColor"
d="M1860 188h-1672q-78 0 -132 54q-56 54 -56 132v1300q0 78 56 132q54 54 132 54h1672q80 0 134 -54t54 -132v-1300q0 -78 -54 -132t-134 -54zM1860 1674h-1672v-1300h1672v1300zM376 558h370q43 0 68 26q24 25 24 70v740q0 44 -24 70q-26 26 -68 26h-370q-44 0 -70 -26
t-26 -70v-740q0 -44 26 -70t70 -26zM466 744v558h188v-558h-188zM1304 558h370q44 0 70 26t26 70v740q0 44 -26 70q-28 26 -70 26h-370q-43 0 -68 -26q-24 -26 -24 -70v-740q0 -45 24 -70q24 -26 68 -26zM1394 744v558h188v-558h-188zM1024 932q43 0 68 -26q24 -25 24 -68
q0 -41 -24 -66q-26 -28 -68 -28t-68 28q-22 24 -22 66q0 44 22 68q25 26 68 26zM1024 1302q43 0 68 -26q24 -25 24 -66q0 -43 -24 -68q-25 -26 -68 -26t-68 26q-22 24 -22 68q0 42 22 66q25 26 68 26z" />
</svg>