<svg xmlns="http://www.w3.org/2000/svg" xmlns:xlink="http://www.w3.org/1999/xlink" version="1.1" viewBox="-10 0 2068 2048">
   <path fill="currentColor"
d="M1846 974h-1644v-102h206l102 -514h514l100 514h722v102zM1148 460l44 206h856v-206h-900zM2048 1382q0 130 -89 219t-219 89h-1432q-130 0 -219 -89t-89 -216t90 -219q88 -92 218 -92h1432q130 0 218 92q90 92 90 216zM408 1382q0 -44 -28 -72t-72 -28t-74 28
q-32 28 -32 72q0 42 32 74q30 32 74 32q43 0 72 -32q28 -32 28 -74zM1124 1382q0 -44 -28 -72t-72 -28t-72 28q-30 28 -30 72q0 42 30 74q28 32 71.5 32t72.5 -32q28 -32 28 -74zM1846 1382q0 -44 -31 -72t-75 -28t-72 28q-30 28 -30 72q0 42 30 74q28 32 72 32t75 -31
t31 -75z" />
</svg>