<svg xmlns="http://www.w3.org/2000/svg" xmlns:xlink="http://www.w3.org/1999/xlink" version="1.1" viewBox="-10 0 2068 2048">
   <path fill="currentColor"
d="M678 1184h-272q-38 -160 0 -320h272q-10 76 -10 160t10 160zM476 704h228q42 -142 112 -283q-223 79 -340 283zM1574 704q-118 -204 -342 -283q69 132 106 283h236zM1024 1659q99 -139 154 -315h-308q54 174 154 315zM1024 389q-100 141 -154 315h308q-55 -176 -154 -315
zM476 1344q117 204 340 283q-70 -141 -112 -283h-228zM2048 229v1590q0 96 -66 162q-68 67 -164 67h-1588q-96 0 -163 -67t-67 -162v-1590q0 -95 67 -162t163 -67h1588q96 0 164 67q66 66 66 162zM1818 1024q0 -241 -132 -443q-134 -203 -358 -293q-223 -90 -462 -45
q-235 45 -406 216q-172 171 -216 408q-46 237 44 461q90 223 293.5 357t442.5 134q217 0 400 -107q181 -106 288 -288q106 -182 106 -400zM1382 1024q0 77 -12 160h272q19 -80 19 -160t-19 -160h-272q12 83 12 160zM1232 1627q224 -79 342 -283h-236q-37 151 -106 283z
M838 864q-14 80 -14 160t14 160h372q12 -83 12 -160t-12 -160h-372z" />
</svg>