<svg xmlns="http://www.w3.org/2000/svg" xmlns:xlink="http://www.w3.org/1999/xlink" version="1.1" viewBox="-10 0 2068 2048">
   <path fill="currentColor"
d="M1024 1846q220 0 410 -111q190 -110 300 -300q112 -191 112 -411t-112 -411q-111 -191 -299.5 -301t-411 -110t-411 110t-300.5 301q-110 191 -110 411t110 411q111 190 300 300q191 111 412 111zM1024 0q200 0 392 77q188 76 333.5 221t220.5 334q78 192 78 392t-78 392
q-75 189 -220.5 334t-333.5 221q-192 77 -392 77q-278 0 -514 -137q-235 -136 -372 -373q-138 -236 -138 -514q0 -200 78 -392q75 -189 220.5 -334t333.5 -221q192 -77 392 -77zM1076 510v538l462 274l-78 130l-538 -327v-615h154z" />
</svg>