<svg xmlns="http://www.w3.org/2000/svg" xmlns:xlink="http://www.w3.org/1999/xlink" version="1.1" viewBox="-10 0 2067 2048">
   <path fill="currentColor"
d="M1693 1688q38 0 70 30q31 28 31 71.5t-31 72t-70 28.5h-1223q-44 0 -75 -28.5t-31 -72t31 -71.5q32 -30 75 -30h1223zM1693 1536h-1223q-104 0 -182 74q-77 74 -77 179.5t77 179t182 73.5h1223q106 0 180 -74t74 -179t-74 -179q-75 -74 -180 -74zM1947 924h-306v-412
h-512l-306 412v506h1224zM981 924l201 -258h253v258h-454zM799 148l-506 -142l-282 1000q-28 99 21 188q50 89 151 118l119 32l335 -292l-397 -110l191 -688l287 82q53 28 120 80q88 70 138 134l105 -138h43q-77 -102 -200 -186q-58 -42 -120 -78h-5z" />
</svg>