<svg xmlns="http://www.w3.org/2000/svg" xmlns:xlink="http://www.w3.org/1999/xlink" version="1.1" viewBox="-11 0 2070 2048">
   <path fill="currentColor"
d="M694 1368q-82 0 -154 48q-37 28 -124 115q-59 59 -96 91q-57 48 -115 77q-111 0 -168 -110q-63 -128 -19 -374q48 -282 240 -690h24l48 -86l76 -39q96 -43 178 -48q103 -15 167 43h546q85 -76 264 -23q88 25 158 67l48 86h24q190 405 239 690q44 246 -19 374
q-57 110 -168 110q-58 -29 -115 -77q-29 -25 -95 -91q-84 -84 -125 -115q-72 -48 -153 -48h-661zM1024 472q-44 0 -72 31t-28 75q0 43 28 71q29 29 72 29t72 -29t29 -71q0 -43 -29 -75q-28 -31 -72 -31z" />
</svg>