<svg xmlns="http://www.w3.org/2000/svg" xmlns:xlink="http://www.w3.org/1999/xlink" version="1.1" viewBox="-10 0 2058 2048">
   <path fill="currentColor"
d="M1591 817q73 0 154 24v-226l-615 -615h-822q-86 0 -146 60q-61 61 -61 142v1644q0 81 61 142q60 60 146 60h1014q-120 -159 -192 -303q-106 -209 -106 -360q0 -153 77 -284q76 -129 207 -207q130 -77 283 -77zM1024 154l567 562h-567v-562zM1591 1024q-150 0 -255 106
t-105 255q0 116 91 288q66 122 173 264l96 111l91 -111q107 -142 173 -264q92 -173 92 -288q0 -147 -106 -255q-105 -106 -250 -106zM1591 1514q-53 0 -89 -36t-36 -86q0 -51 39 -87t84 -36t84 39q38 38 43 84q5 45 -34 84q-38 38 -91 38z" />
</svg>