<svg xmlns="http://www.w3.org/2000/svg" xmlns:xlink="http://www.w3.org/1999/xlink" version="1.1" viewBox="-10 0 2068 2048">
   <path fill="currentColor"
d="M808 687l-500 871l-116 -198l134 -235h-268l-58 -101l58 -101h380l134 -236h236zM842 1385h994l-116 192h-264l130 235l-58 106h-116l-182 -341h-278zM1422 1005l-500 -875h226l130 235l134 -235h116l58 106l-192 326l144 236zM1206 663h-1004l116 -192h264l-130 -235
l58 -106h114l194 331h278zM1240 1360l500 -870l114 197l-134 236h270l58 101l-58 101h-380l-134 235h-236zM624 1043l500 861h-226l-130 -236l-114 236h-134l-58 -101l192 -327l-144 -226z" />
</svg>