<svg xmlns="http://www.w3.org/2000/svg" xmlns:xlink="http://www.w3.org/1999/xlink" version="1.1" viewBox="-10 0 2058 2048">
   <path fill="currentColor"
d="M1104 667q-66 0 -110 -46q-46 -48 -46 -111t46 -111q44 -46 110.5 -46t111.5 46q46 48 46 111t-46 111q-45 46 -112 46zM822 1761l-554 -109l32 -157l386 78l126 -636l-142 53v265h-158v-366l410 -174l60 -9q82 0 136 79l78 126q49 88 140 137q92 50 200 50v157
q-128 0 -240 -52q-115 -54 -192 -139l-48 235l166 157v592h-156v-475l-166 -156zM1814 2048h-186v-1860h-1208v1220l-186 -39v-1369h1580v2048zM420 2048h-186v-300l186 39v261z" />
</svg>