<svg xmlns="http://www.w3.org/2000/svg" xmlns:xlink="http://www.w3.org/1999/xlink" version="1.1" viewBox="-10 0 2068 2048">
   <path fill="currentColor"
d="M1538 2048v-202h308v-308h202v356q0 62 -46 108t-108 46h-356zM510 2048h-356q-62 0 -108 -46q-46 -45 -46 -108v-356h202v308h308v202zM1538 0h356q62 0 108 46t46 108v356h-202v-308h-308v-202zM510 0v202h-308v308h-202v-356q0 -63 46 -108q46 -46 108 -46h356z
M1124 1562l414 -235v-471l-414 235v471zM1024 913l408 -235l-408 -241l-408 241zM510 1327l412 235v-471l-412 -235v471zM1662 572q78 48 78 135v649q0 86 -78 134l-562 327q-38 24 -76.5 24t-77.5 -24l-562 -327q-76 -48 -76 -134v-649q0 -87 76 -135l562 -327
q38 -19 77 -19t77 19z" />
</svg>