<svg xmlns="http://www.w3.org/2000/svg" xmlns:xlink="http://www.w3.org/1999/xlink" version="1.1" viewBox="-10 0 2068 2048">
   <path fill="currentColor"
d="M2048 815l-4 31l-192 688l-810 -811h262l-280 -396l-156 222l-130 -135l212 -301q26 -39 74 -39t78 39l428 610h422q38 0 68 29q28 28 28 63zM1966 1883l-118 117l-170 -170q-26 9 -48 9h-1210q-54 0 -96 -28q-46 -30 -70 -72l-244 -880l-10 -44q0 -34 29 -63t67 -29h424
l22 -30l-528 -527l118 -118zM1194 1351l-240 -240q-51 18 -84 66q-32 47 -32 104q0 79 54 133q54 55 132 55q56 0 104 -33q49 -33 66 -85z" />
</svg>