<svg xmlns="http://www.w3.org/2000/svg" xmlns:xlink="http://www.w3.org/1999/xlink" version="1.1" viewBox="-10 0 2068 2048">
   <path fill="currentColor"
d="M1432 358q44 0 75 28.5t31 73.5q0 42 -31 73t-75 31t-72 -30.5t-28 -73.5q0 -46 28 -74t72 -28zM1432 50q206 0 374 114q170 113 242 296q-72 181 -242 298q-167 114 -374 114t-372 -114q-166 -115 -242 -298q77 -185 242 -296q167 -114 372 -114zM1432 204
q-106 0 -180 74t-74 182q0 106 74 182q75 76 180 76q106 0 183 -77t77 -181q0 -106 -78 -182q-75 -74 -182 -74zM1638 1050v332h-504l-316 318v-318h-616v-1024h438q52 -115 128 -206h-566q-82 0 -142 60t-60 146v1024q0 86 60 146t142 60h414v308q0 44 29 73t71 29h52
q40 0 74 -30l378 -380h418q88 0 148 -60t60 -146v-408q-98 53 -208 76z" />
</svg>