<svg xmlns="http://www.w3.org/2000/svg" xmlns:xlink="http://www.w3.org/1999/xlink" version="1.1" viewBox="-10 0 2068 2048">
   <path fill="currentColor"
d="M14 133l278 283h-104q-78 0 -132 54q-56 55 -56 133v183q0 39 30 68q28 28 66 28h662l96 92h-758v745q0 73 55 128t129 55h1490q4 0 8 -4l134 135l118 -118l-1898 -1900zM934 1052l182 188v479h-182v-667zM1952 974v627l-628 -627h628zM1860 416h-296q40 -110 0 -203
q-38 -92 -130 -139q-91 -46 -190 -28q-100 18 -168 113l-52 70l-52 -70q-82 -118 -222 -122q-64 0 -130 33q-68 34 -106 89l144 144q5 -31 28 -53q23 -21 62 -21q38 0 64 28q26 30 28 65q1 38 -26 63q-31 27 -50 27l190 191h162v162l118 117h718q40 0 68 -28t28 -68v-183
q0 -79 -54 -133t-134 -54zM1368 390q-26 26 -64 26q-40 0 -66 -26t-26 -66q0 -38 26 -67q25 -28 66 -28q39 0 64 28q27 30 28 65q2 38 -28 68z" />
</svg>