<svg xmlns="http://www.w3.org/2000/svg" xmlns:xlink="http://www.w3.org/1999/xlink" version="1.1" viewBox="-10 0 2068 2048">
   <path fill="currentColor"
d="M188 278v1116h1672v-1116h-1672zM188 96h1672q78 0 134 54q54 54 54 128v1116q0 80 -54 134t-134 54h-648v186h182v184h-740v-184h184v-186h-650q-78 0 -132 -54q-56 -56 -56 -134v-1116q0 -72 55 -127t133 -55zM916 740q47 -47 110 -46q63 2 108 46q42 44 42 106
q0 60 -43 106t-107 46t-108 -46q-46 -47 -46 -106q0 -62 44 -106zM846 1024q74 74 179 74t179 -74t74 -178q0 -106 -74 -180t-179 -74t-179 74t-74 180q0 104 74 178zM466 846q67 -172 218.5 -276t340 -104t339.5 104q151 103 218 276q-67 171 -218 276q-153 106 -339.5 106
t-340.5 -106q-151 -106 -218 -276z" />
</svg>