<svg xmlns="http://www.w3.org/2000/svg" xmlns:xlink="http://www.w3.org/1999/xlink" version="1.1" viewBox="-10 0 2058 2048">
   <path fill="currentColor"
d="M564 618l165 93l302 -520l213 369l-249 142l520 138l137 -516l-244 142l-213 -373q-41 -67 -116 -86q-77 -20 -146 20q-36 22 -62 57zM831 1764v-191h-600l213 -369l245 142l-138 -520l-519 138l248 142l-213 373q-40 65 -20 143q19 74 91 115q36 22 84 27h609zM1692 955
l-169 98l302 520h-426v-285l-377 378l377 382v-284h426q80 0 136 -56q55 -55 55 -135q0 -46 -22 -85z" />
</svg>