<svg xmlns="http://www.w3.org/2000/svg" xmlns:xlink="http://www.w3.org/1999/xlink" version="1.1" viewBox="-10 0 2068 2048">
   <path fill="currentColor"
d="M654 1024h184v188h-184v-188zM654 558h184v375h-184v-375zM1582 1630q55 0 98 -44q42 -44 42 -98q0 -53 -42 -95t-98 -42t-98 42q-42 41 -42 95q0 56 42 98q42 44 98 44zM1722 793h-232v231h418zM466 1630q56 0 98 -44t42 -98q0 -53 -42 -95t-98 -42t-98 42
q-40 41 -40 95q0 56 40 98q43 44 98 44zM1770 654l278 370v467h-188q0 118 -80 198t-198 80t-198 -80t-80 -198h-558q0 118 -80 198t-200 80q-118 0 -198 -80t-80 -198h-188v-1024q0 -78 55 -133t133 -55h1302v375h280zM188 467v836h74q35 -43 91.5 -67t112.5 -24
q58 0 114.5 24t91.5 67h632v-836h-1116z" />
</svg>