<svg xmlns="http://www.w3.org/2000/svg" xmlns:xlink="http://www.w3.org/1999/xlink" version="1.1" viewBox="-10 0 2058 2048">
   <path fill="currentColor"
d="M235 1364v-872q0 -44 32 -76t76 -32q43 0 74 32q30 32 30 76v532h88v-788q0 -44 30 -76t74 -32t76 32t32 76v788h84v-916q0 -44 32 -76t76 -32t76 32t32 76v916h84v-748q0 -44 32 -74q31 -30 76 -30q44 0 74 30t30 74v1004h64l120 -300q31 -76 108 -100l68 -24
q52 -16 88 24q35 40 16 92l-256 648q-80 191 -252 310q-172 118 -380 118q-188 0 -344 -92q-157 -92 -248 -248q-92 -157 -92 -344z" />
</svg>