<svg xmlns="http://www.w3.org/2000/svg" xmlns:xlink="http://www.w3.org/1999/xlink" version="1.1" viewBox="-10 0 2068 2048">
   <path fill="currentColor"
d="M1740 923h-202v-207h-206v207h-208v202h208v207h206v-207h202v-202zM818 510h-202q-88 0 -148 60t-60 146v207q0 82 60 142t148 60h202v207h-410v206h410q86 0 146 -60t60 -146v-616q0 -86 -60 -146t-146 -60zM616 716h202v207h-202v-207zM1024 0q200 0 392 77
q188 76 333.5 221t220.5 334q78 192 78 392t-78 392q-75 189 -220.5 334t-333.5 221q-192 77 -392 77t-392 -77q-188 -76 -333.5 -221t-220.5 -334q-78 -192 -78 -392t78 -392q75 -189 220.5 -334t333.5 -221q192 -77 392 -77z" />
</svg>