<svg xmlns="http://www.w3.org/2000/svg" xmlns:xlink="http://www.w3.org/1999/xlink" version="1.1" viewBox="-10 0 2068 2048">
   <path fill="currentColor"
d="M1364 928q-90 62 -150 156q-60 92 -80 204l-158 -303l-400 400l40 254l-112 111l-178 -327l-326 -183l106 -110l254 38l400 -399l-760 -399l144 -144l942 216l398 -399q44 -43 110 -43q65 0 110 43q46 44 46 108q0 65 -48 109l-400 399zM2048 1385q0 164 -178 432
q-93 137 -178 231l-96 -111q-107 -142 -174 -264q-90 -172 -90 -288q0 -149 104 -255q105 -106 254 -106q147 0 252 106q106 108 106 255zM1812 1394q0 -48 -38 -86q-40 -39 -85 -39t-84 36t-39 87q0 50 36 86t89 36t91.5 -38t29.5 -82z" />
</svg>