<svg xmlns="http://www.w3.org/2000/svg" xmlns:xlink="http://www.w3.org/1999/xlink" version="1.1" viewBox="-10 0 2068 2048">
   <path fill="currentColor"
d="M280 1302h186q78 0 133 55t55 133v184h92v-184q0 -78 55 -133t133 -55h182q78 0 133 55t55 133v184h90v-184q0 -78 55 -133t133 -55h188q72 0 127 55t55 133v184h96v278h-2048v-278h96v-184q0 -78 55 -133t129 -55zM934 558l370 278l-370 280v-558zM280 96h1490
q72 0 127 55t55 127v890q-81 -52 -182 -52v-838h-1490v838q-102 0 -184 52v-890q0 -72 55 -127t129 -55z" />
</svg>