<svg xmlns="http://www.w3.org/2000/svg" xmlns:xlink="http://www.w3.org/1999/xlink" version="1.1" viewBox="-10 0 2068 2048">
   <path fill="currentColor"
d="M2048 60q-128 127 -406 210q-127 -105 -286 -162q-158 -58 -332 -58t-331.5 57t-284.5 163q-280 -83 -408 -210q5 232 216 420q-166 242 -166 544q0 191 74 372q75 183 210 318q137 137 318 210q178 74 372 74t372 -74q183 -74 318.5 -209.5t209.5 -318.5
q74 -178 74 -372q0 -302 -166 -544q211 -188 216 -420zM586 680l292 148q0 58 -44 102q-42 44 -102 44t-103 -43t-43 -103v-148zM1024 1536q-123 0 -232 -48q-111 -49 -174 -130l136 -138q31 49 106 84q74 36 164 36t164 -36q75 -35 106 -84l136 138q-64 82 -172 130
q-110 48 -234 48zM1462 828q0 60 -43 103t-103 43t-103 -43t-43 -103l292 -148v148z" />
</svg>