<svg xmlns="http://www.w3.org/2000/svg" xmlns:xlink="http://www.w3.org/1999/xlink" version="1.1" viewBox="-10 0 2068 2048">
   <path fill="currentColor"
d="M922 1231h-206q0 -249 126 -464q124 -214 336 -337q209 -122 460 -122v202q-196 0 -360 96q-164 97 -260 262q-96 166 -96 363zM1638 923v-207q-138 0 -256 70q-119 70 -188 187q-70 120 -70 258h208q0 -130 89 -219t217 -89zM510 202q0 -82 -60 -142t-144 -60t-144 60
t-60 144q0 85 60 145t144 60t144 -60t60 -147zM966 255h-202q-19 110 -106 182q-88 73 -196 73h-308q-67 0 -110 45q-44 44 -44 108v260h616v-236q145 -44 240 -161t110 -271zM1740 1538q86 0 146 -60t60 -146q0 -87 -60 -147t-144 -60t-144 60t-60 147q0 86 60 146t142 60z
M1894 1639h-308q-110 0 -198 -72q-85 -71 -104 -182h-202q15 151 110 269q95 119 240 163v231h616v-255q0 -62 -44 -108q-45 -46 -110 -46z" />
</svg>