<svg xmlns="http://www.w3.org/2000/svg" xmlns:xlink="http://www.w3.org/1999/xlink" version="1.1" viewBox="-10 0 2068 2048">
   <path fill="currentColor"
d="M1356 754q-62 -127 -192 -210q-118 -78 -230 -78q52 165 -6 318q-153 36 -318 92l-144 56l-78 -96q-96 -114 -182 -182q-122 -96 -206 -96l188 558l-92 374q83 0 180 -74q66 -50 134 -136l56 -68l132 48q160 53 296 86q192 48 318 48v188q47 0 124 -58q77 -57 128 -152
q153 -25 292 -86q-23 -29 -56 -48q-75 -49 -210 -74q143 -27 240 -14q78 9 130 48l22 18q82 -55 122 -104q44 -52 44 -90q0 -37 -104 -94q-107 -57 -258 -104q-166 -52 -330 -70zM1582 1024q-40 0 -66 -28q-26 -30 -26 -62q0 -33 22 -62q34 9 162 42v18q0 34 -26 64
q-26 28 -66 28z" />
</svg>