<svg xmlns="http://www.w3.org/2000/svg" xmlns:xlink="http://www.w3.org/1999/xlink" version="1.1" viewBox="-10 0 2068 2048">
   <path fill="currentColor"
d="M2048 1925l-600 -599l-192 -197l-36 -32l-1096 -1097l-124 124l864 868v302q0 82 57 139t139 57h196q48 0 88 -22l580 580zM1060 1294v-110l110 110h-110zM1448 1079l-174 -174q69 4 119.5 55t54.5 119zM1860 1490l-214 -214v-179q0 -78 57 -135t139 -57h192v192h-192
v197h192v196h-174zM476 905h-198q-76 0 -134 57q-58 58 -58 135v197q0 81 58 139q58 57 134 57h394v-393q0 -78 -57 -135t-139 -57zM476 1294h-198v-197h198v197zM1060 690l-174 -178h174v178z" />
</svg>