<svg xmlns="http://www.w3.org/2000/svg" xmlns:xlink="http://www.w3.org/1999/xlink" version="1.1" viewBox="-10 0 2058 2048">
   <path fill="currentColor"
d="M1210 188h-558v-188h558v188zM1022 1534q0 218 140 388q-121 31 -232 31q-224 0 -418 -112q-192 -111 -304 -305q-114 -194 -114 -420q0 -225 114 -418q111 -190 304 -305q192 -114 418 -114q143 0 280 50q130 48 244 138l130 -135q63 55 130 130l-130 135
q122 155 166 345q-67 -9 -122 -9q-169 0 -304 80q-137 82 -220 221q-82 140 -82 300zM1022 558h-182v654h182v-654zM1580 1164v-140l-210 210l210 209v-140q95 0 164 68q70 68 70 163q0 56 -26 105l100 100q66 -90 66 -205q0 -153 -108 -261q-110 -109 -266 -109zM1580 1769
q-96 0 -164 -69q-68 -70 -68 -166q0 -50 26 -104l-104 -101q-60 95 -60 205q0 157 109 266t261 109v139l208 -209l-208 -209v139z" />
</svg>