<svg xmlns="http://www.w3.org/2000/svg" xmlns:xlink="http://www.w3.org/1999/xlink" version="1.1" viewBox="-10 0 2058 2048">
   <path fill="currentColor"
d="M1024 0l836 375v558q0 254 -109 488q-111 238 -300 401q-191 164 -427 226q-236 -62 -427 -226q-189 -163 -300 -401q-109 -234 -109 -488v-558zM1024 205l-649 288v457q0 202 89 392q90 193 240 332q149 139 320 187q171 -48 320 -187q150 -139 240 -332
q89 -190 89 -392v-457zM1394 1212v139v9q-5 31 -43 35h-654q-38 -4 -43 -35v-148h740zM1490 654l-96 462h-740l-96 -462l248 248l218 -218l218 218z" />
</svg>