<svg xmlns="http://www.w3.org/2000/svg" xmlns:xlink="http://www.w3.org/1999/xlink" version="1.1" viewBox="-10 0 2058 2048">
   <path fill="currentColor"
d="M1024 392q-74 0 -125 51t-51 121v90h-302q-44 0 -78 24q-31 23 -48 62l-180 523v699q0 32 27 59t59 27h90q32 0 59 -27t27 -59v-90h1046v90q0 32 27 59t59 27h90q32 0 58 -27q26 -26 26 -59v-699l-178 -523q-18 -39 -50 -62q-32 -24 -78 -24h-302v-90q0 -70 -51 -121
t-125 -51zM546 784h956l132 393h-1218zM546 1349q54 0 92 38q40 39 40 94t-40 92q-38 37 -94 37q-54 0 -91 -37t-37 -92q0 -56 36 -94q37 -38 94 -38zM1502 1349q58 0 94 38q38 38 38 94q0 55 -37 92t-93 37q-55 0 -94 -37q-38 -37 -38 -92t38 -94q38 -38 92 -38zM1392 253
q-79 -72 -176 -112q-94 -39 -191.5 -39t-192.5 39q-96 40 -176 112l-68 -74q88 -88 204 -134q114 -45 233 -45t233 45q115 46 204 134zM1310 323l-68 69q-86 -90 -217.5 -90t-216.5 90l-70 -69q58 -62 134 -92q77 -31 152.5 -31t153.5 31q75 30 132 92z" />
</svg>