<svg xmlns="http://www.w3.org/2000/svg" xmlns:xlink="http://www.w3.org/1999/xlink" version="1.1" viewBox="-10 0 2068 2048">
   <path fill="currentColor"
d="M1024 1846q-221 0 -412 -111q-189 -110 -300 -300q-110 -191 -110 -411t110 -411q112 -191 300.5 -301t411 -110t411 110t299.5 301q112 191 112 411t-112 411q-110 190 -300 300q-190 111 -410 111zM1024 0q-200 0 -392 77q-188 76 -333.5 221t-220.5 334
q-78 192 -78 392t78 392q75 189 220.5 334t333.5 221q192 77 392 77t392 -77q188 -76 333.5 -221t220.5 -334q78 -192 78 -392t-78 -392q-75 -189 -220.5 -334t-333.5 -221q-192 -77 -392 -77zM1024 1077q-62 0 -108 -46t-46 -110q0 -65 46 -109q44 -43 107.5 -43t108.5 43
q46 44 46 109q0 64 -46 110t-108 46zM1024 534q-164 0 -277 113t-113 276q0 108 62 231q45 99 130 216q70 90 136 159l62 57l62 -57q60 -63 134 -159q86 -117 130 -216q62 -123 62 -231q0 -163 -113 -276t-275 -113z" />
</svg>