<svg xmlns="http://www.w3.org/2000/svg" xmlns:xlink="http://www.w3.org/1999/xlink" version="1.1" viewBox="-10 0 2068 2048">
   <path fill="currentColor"
d="M860 1035q70 -155 206 -251q134 -95 301 -112q164 -16 316 54q153 71 249 206q95 134 112 301q16 164 -50 319q-80 168 -231 265q-152 98 -336 98q-185 0 -336.5 -96t-226.5 -259h-863v-179q9 -150 208 -250t505 -105q54 0 146 9zM714 133q149 4 250 105q100 100 100 252
q0 153 -100 253t-250 100t-250 -100q-101 -101 -101 -253q0 -151 101 -252q100 -101 250 -105zM1427 1736q120 0 223 -59t161 -160t58 -224q0 -122 -58 -223q-59 -103 -161 -163t-223 -60t-223 60q-103 60 -163 163q-60 102 -60 223q0 122 60 224q59 100 163 160
q103 59 223 59zM1335 1026h134v251l217 125l-67 117l-284 -167v-326z" />
</svg>