<svg xmlns="http://www.w3.org/2000/svg" xmlns:xlink="http://www.w3.org/1999/xlink" version="1.1" viewBox="-10 0 2068 2048">
   <path fill="currentColor"
d="M1074 1815q-26 -78 -92 -126t-154 -48q-108 0 -188 76q-78 75 -78 185v146h-370q-76 0 -134 -57q-58 -58 -58 -135v-370h148q110 0 185 -78t75 -187q0 -110 -75.5 -188t-184.5 -78h-148v-370q0 -77 58 -135q58 -57 134 -57h394v-146q0 -100 70 -174q71 -73 172 -73
t172 73q70 74 70 174v146h394q76 0 134 57q58 58 58 135v393h146q98 0 172 71q74 70 74 172q0 45 -18 86q-166 -137 -374 -137q-156 0 -292 80q-133 79 -214 215q-80 136 -80 290q0 44 4 60zM1266 1659v197h782v-197h-782z" />
</svg>