<svg xmlns="http://www.w3.org/2000/svg" xmlns:xlink="http://www.w3.org/1999/xlink" version="1.1" viewBox="-10 0 2058 2048">
   <path fill="currentColor"
d="M1007 510q-140 0 -257 69q-118 70 -187 188q-70 120 -70 257t70 257q69 118 187 188q117 69 257 69t257 -69q120 -71 188 -188q69 -119 69 -257t-69 -257q-68 -117 -188 -188q-117 -69 -257 -69zM1007 1332q-130 0 -219 -89q-88 -88 -88 -219t88 -219q89 -89 219 -89
t219 89t89 219t-89 219t-219 89zM1007 0l245 351q-119 -43 -245 -43t-245 43zM118 510l428 -34q-97 81 -159 187q-62 104 -86 236zM123 1538l178 -389q25 128 86 233q63 108 159 195zM1007 2048l-245 -351q119 43 243 43t247 -43zM1723 1125v-615h207v615h-207zM1723 1538
v-206h207v206h-207z" />
</svg>