<svg xmlns="http://www.w3.org/2000/svg" xmlns:xlink="http://www.w3.org/1999/xlink" version="1.1" viewBox="-10 0 2068 2048">
   <path fill="currentColor"
d="M1990 981l-924 -923q-64 -58 -144 -58h-720q-82 0 -142 60t-60 142v721q0 81 58 144l922 923q65 58 144.5 58t143.5 -58l722 -721q58 -64 58 -144t-58 -144zM1124 1846l-922 -923v-721h720l924 923zM462 308q58 0 106 45t48 106q0 60 -48 108t-108 48q-62 0 -106 -48
q-46 -49 -46 -108q0 -60 46 -106q44 -45 108 -45zM826 707l144 -145l568 563l-144 144zM572 961l144 -144l408 414l-144 144z" />
</svg>