<svg xmlns="http://www.w3.org/2000/svg" xmlns:xlink="http://www.w3.org/1999/xlink" version="1.1" viewBox="-10 0 2068 2048">
   <path fill="currentColor"
d="M1750 1381q92 -87 92 -183v270zM1842 709q0 109 -114 201q-113 91 -302 142l210 210q96 -51 150 -119q56 -68 56 -142v-292zM1842 512q0 -106 -106 -194q-106 -90 -286 -142q-178 -52 -390 -52q-266 0 -480 82l682 686q249 -36 416 -140q164 -103 164 -240zM124 0
l-124 124l302 301q-24 46 -24 87q0 119 128 215q130 97 338 142l224 228q-191 -13 -348 -66q-157 -52 -250 -137q-92 -84 -92 -185v292q0 107 106 195q104 88 285.5 141t390.5 53q92 0 196 -9l160 160q-164 45 -356 45q-212 0 -390 -52q-180 -52 -286 -142
q-106 -89 -106 -194v292q0 106 106 195q104 88 285.5 141t390.5 53q163 0 314 -32q149 -32 258 -91l292 292l124 -123z" />
</svg>