<svg xmlns="http://www.w3.org/2000/svg" xmlns:xlink="http://www.w3.org/1999/xlink" version="1.1" viewBox="-10 0 2068 2048">
   <path fill="currentColor"
d="M1024 0q-278 0 -514 137q-235 136 -372 373q-138 236 -138 514t138 514q137 237 372 373q236 137 513.5 137t514.5 -137q236 -137 372 -373q138 -236 138 -514t-138 -514q-136 -236 -372 -373q-237 -137 -514 -137zM1024 202q228 0 410 110q184 111 296 303h-1412
q111 -192 294 -303q183 -110 412 -110zM1024 1846q-227 0 -411.5 -111t-294.5 -302h1412q-111 191 -295.5 302t-410.5 111zM236 1231q-34 -99 -34 -207t34 -207h1586q32 96 32 207t-32 207h-1586z" />
</svg>