<svg xmlns="http://www.w3.org/2000/svg" xmlns:xlink="http://www.w3.org/1999/xlink" version="1.1" viewBox="-10 0 2068 2048">
   <path fill="currentColor"
d="M1860 1491v-1303h-1302v1303h1302zM1860 0q78 0 134 55q54 54 54 133v1303q0 74 -54 128q-56 55 -134 55h-1302q-74 0 -128 -55q-54 -54 -54 -128v-1303q0 -79 54 -133q54 -55 128 -55h1302zM188 375v1486h1486v187h-1486q-78 0 -132 -54q-56 -55 -56 -133v-1486h188z
M1116 375h188q78 0 132 55q54 54 54 128v558q0 79 -54 133t-132 54h-188q-74 0 -128 -54t-54 -133v-558q0 -74 54 -128q54 -55 128 -55zM1116 558v558h188v-558h-188z" />
</svg>