<svg xmlns="http://www.w3.org/2000/svg" xmlns:xlink="http://www.w3.org/1999/xlink" version="1.1" viewBox="-10 0 2068 2048">
   <path fill="currentColor"
d="M2048 1247l-124 86q-153 93 -294 153q-196 87 -326 87q-181 5 -244 -91q-28 -47 -18 -96l110 -44q140 -66 248 -134q167 -104 278 -220q139 -147 182 -307q49 -193 -32 -399q-95 -132 -216 -189q-118 -54 -288 -50q-189 0 -346 115q-191 139 -316 412q-53 126 -86 274
q-19 89 -38 230l-52 5q-66 5 -120 -5q-78 -9 -126 -48q-63 -53 -114 -34q-28 9 -44 34l-38 57q-39 71 -44 125q0 77 82 106q103 43 288 76l158 20q25 121 86 230q82 155 226 259q109 86 282 101q129 15 308 -15q122 -24 244 -67l100 -38zM988 1055q5 -176 62 -326
q48 -127 130 -216q75 -78 148 -99q78 -21 126 22q56 53 60 144q2 89 -52 187q-52 96 -152 165q-105 72 -182 99q-56 24 -106 28z" />
</svg>