<svg xmlns="http://www.w3.org/2000/svg" xmlns:xlink="http://www.w3.org/1999/xlink" version="1.1" viewBox="-10 0 2058 2048">
   <path fill="currentColor"
d="M1536 684h-1024v-344h1024v344zM1408 1196q-53 0 -90 -40q-38 -41 -38 -90q0 -50 38 -88t90 -38t90 38t38 88q0 49 -38 90q-37 40 -90 40zM640 1196q-53 0 -90 -40q-38 -41 -38 -90q0 -50 38 -88t90 -38t90 38t38 88q0 49 -38 90q-37 40 -90 40zM340 1108q0 56 24 106
q25 52 64 82v156q0 37 22 60q22 24 62 24h84q40 0 64 -24t24 -60v-88h680v88q0 36 24 60t64 24h84q40 0 62 -24q22 -23 22 -60v-156q39 -30 64 -82q24 -49 24 -106v-768q0 -203 -200 -280q-152 -60 -484 -60t-484 60q-200 77 -200 280v768zM596 1792h344v-172l512 256h-344
v172z" />
</svg>