<svg xmlns="http://www.w3.org/2000/svg" xmlns:xlink="http://www.w3.org/1999/xlink" version="1.1" viewBox="-10 0 2068 2048">
   <path fill="currentColor"
d="M52 924q-36 -23 -48 -62q-12 -38 12 -72l146 -256q13 -27 46 -40l763 -426q22 -18 54.5 -18t55.5 18l772 430q28 19 41 46l142 246q18 32 9 72q-9 38 -46 62l-96 54v484q0 61 -50 88l-772 430q-23 18 -55.5 18t-54.5 -18l-772 -430q-51 -28 -51 -88v-538q-51 26 -96 0z
M1026 260v650l580 -326zM345 1404l585 332v-658l-585 -328v654zM1707 1404v-312l-485 284q-50 22 -100 0v360zM1204 1156l612 -352l-55 -100l-612 352z" />
</svg>