<svg xmlns="http://www.w3.org/2000/svg" xmlns:xlink="http://www.w3.org/1999/xlink" version="1.1" viewBox="-10 0 2058 2048">
   <path fill="currentColor"
d="M1024 0q193 0 356 95t257 256q95 163 95 357q0 208 -114 384l-594 956l-594 -956q-114 -176 -114 -384q0 -194 95 -357q94 -161 257 -256t356 -95zM1024 152q-206 0 -359 128q-154 129 -187 328h261q29 -91 107 -148t178 -57t178 57t107 148h261q-33 -198 -188 -328
q-153 -128 -358 -128zM1024 1012q-100 0 -178 -57t-107 -148h-261q20 111 76 195v10q77 114 202 183q126 69 268 69t268 -69q125 -69 202 -183v-10q56 -84 76 -195h-261q-29 91 -107 148t-178 57zM1024 555q-61 0 -107 46q-45 45 -45 107q0 61 45 106q46 46 107 46t107 -46
q45 -45 45 -106q0 -62 -45 -107q-46 -46 -107 -46z" />
</svg>