<svg xmlns="http://www.w3.org/2000/svg" xmlns:xlink="http://www.w3.org/1999/xlink" version="1.1" viewBox="-10 0 2068 2048">
   <path fill="currentColor"
d="M1266 973h146v416l280 165l-74 119l-352 -211v-489zM2048 1362q0 187 -93 343t-249 249q-158 94 -344 94q-215 0 -390 -126q-176 -126 -250 -322l-136 -51l-522 201l-18 5q-18 0 -32 -16q-14 -17 -14 -34v-1477q0 -32 32 -46l554 -182l584 201l522 -201h14q18 0 34 13
t16 32v759q134 93 212 240q80 148 80 318zM682 1362q0 -228 136 -409q137 -180 352 -245v-311l-584 -205v1161l96 32v-23zM1362 877q-132 0 -244 64q-111 64 -176 176q-64 112 -64 245q0 132 64 244q66 114 176 179q113 66 244 66q133 0 246 -66q111 -65 178 -179
q66 -112 66 -244t-66 -245q-66 -111 -178 -176q-112 -64 -246 -64z" />
</svg>