<svg xmlns="http://www.w3.org/2000/svg" xmlns:xlink="http://www.w3.org/1999/xlink" version="1.1" viewBox="-10 0 2058 2048">
   <path fill="currentColor"
d="M1137 0q-210 0 -387 101q-179 103 -288 275q-109 174 -120 381l-218 288q-22 28 -6 59q17 32 54 32h170v341q0 96 67 163t163 67h112v341h794v-533q207 -95 333 -291q125 -193 125 -429q0 -214 -106 -398q-105 -183 -290.5 -290t-402.5 -107zM1254 1253h-229v-117h229
v117zM1435 741q-47 75 -128 123v160h-341v-160q-122 -75 -157 -211q-34 -137 34.5 -256t207.5 -157q138 -38 259 32q120 69 157 205q38 136 -32 264z" />
</svg>