<svg xmlns="http://www.w3.org/2000/svg" xmlns:xlink="http://www.w3.org/1999/xlink" version="1.1" viewBox="-10 0 2068 2048">
   <path fill="currentColor"
d="M202 0q-82 0 -142 60t-60 142v721q0 81 58 144l922 923q65 58 146 58q84 0 142 -58l722 -721q58 -58 58 -142q0 -82 -58 -146l-924 -923q-64 -58 -144 -58h-720zM922 202l924 923l-722 721l-922 -923v-721h720zM462 308q-68 0 -111 43t-43 108q0 67 42 111q44 45 110 45
q64 0 110 -45q46 -46 46 -111q0 -64 -46 -108q-45 -43 -108 -43zM918 870q-86 0 -150 63q-62 62 -62 149t62 149l356 355l360 -355q64 -63 64 -149t-63 -149t-149 -63t-150 63l-62 62l-58 -62q-62 -63 -148 -63z" />
</svg>