<svg xmlns="http://www.w3.org/2000/svg" xmlns:xlink="http://www.w3.org/1999/xlink" version="1.1" viewBox="-10 0 2058 2048">
   <path fill="currentColor"
d="M118 353l192 192q-52 138 -52 292v932q0 116 80 197q81 82 198 82h558v-187h-649v-92h370v-718l558 557v161h161l231 231l117 -117l-1646 -1647zM1094 0q-173 0 -329 68q-155 68 -272 185l131 135q91 -95 213 -148q120 -52 257 -52q178 0 327 87q148 87 235 237t87 325
v187h-370v109l509 510q48 -69 48 -152v-654q0 -225 -113 -418q-111 -190 -305 -305q-192 -114 -418 -114zM445 1024v-187q0 -73 13 -144l331 331h-344z" />
</svg>