<svg xmlns="http://www.w3.org/2000/svg" xmlns:xlink="http://www.w3.org/1999/xlink" version="1.1" viewBox="-10 0 2068 2048">
   <path fill="currentColor"
d="M818 0q-82 0 -142 60t-60 142v308q0 86 60 146t142 60h104v207h-922v202h408v207h-100q-86 0 -146 60t-60 146v308q0 82 60 142t146 60h408q86 0 146 -60t60 -142v-308q0 -86 -60 -146t-146 -60h-100v-207h816v207h-100q-88 0 -148 60t-60 146v308q0 82 60 142t148 60
h408q86 0 146 -60t60 -142v-308q0 -86 -60 -146t-146 -60h-102v-207h410v-202h-924v-207h106q82 0 142 -60q60 -61 60 -146v-308q0 -81 -60 -142q-60 -60 -142 -60h-412zM818 202h412v308h-412v-308zM308 1538h408v308h-408v-308zM1332 1538h408v308h-408v-308z" />
</svg>