<svg xmlns="http://www.w3.org/2000/svg" xmlns:xlink="http://www.w3.org/1999/xlink" version="1.1" viewBox="-10 0 2058 2048">
   <path fill="currentColor"
d="M512 1024q0 -139 68 -258q68 -118 186 -186q119 -68 258 -68t258 68q118 68 186 186q68 119 68 258t-68 258q-68 118 -186 186q-119 68 -258 68t-258 -68q-118 -68 -186 -186q-68 -119 -68 -258zM1708 1024q0 -161 -70 -300q-71 -141 -190 -236l-84 -488h-680l-84 488
q-119 95 -190 236q-70 139 -70 300t70 300q71 141 190 236l84 488h680l84 -488q119 -95 190 -236q70 -139 70 -300z" />
</svg>