<svg xmlns="http://www.w3.org/2000/svg" xmlns:xlink="http://www.w3.org/1999/xlink" version="1.1" viewBox="-10 0 2068 2048">
   <path fill="currentColor"
d="M862 1400q114 0 248 -20l312 -314q-109 57 -252 90q-142 32 -308 32q-196 0 -368 -46q-169 -44 -278 -120v-304q121 66 290 106q172 42 356 42t356 -42q169 -40 290 -106v268l150 -152q26 -25 66 -44v-358q0 -116 -116 -216q-112 -96 -314 -156q-198 -58 -431.5 -58
t-430.5 58q-203 60 -316 156q-116 100 -116 216v1078q0 107 100 200q102 93 274 154q172 60 382 70v-196l16 -20q-161 -5 -304 -50q-117 -37 -186 -86q-66 -46 -66 -72v-242q275 132 646 132zM862 220q194 0 354 40q130 36 216 96q76 45 76 77.5t-76 78.5q-85 54 -216 90
q-166 46 -353.5 46t-352.5 -46q-134 -36 -218 -90q-76 -46 -76 -78.5t76 -77.5q85 -60 218 -96q160 -40 352 -40zM1628 1168l222 222l-660 656h-222v-218zM2026 1208l-100 106l-222 -222l106 -106q16 -16 38 -16t38 16l140 142q22 20 22 42t-22 38z" />
</svg>