<svg xmlns="http://www.w3.org/2000/svg" xmlns:xlink="http://www.w3.org/1999/xlink" version="1.1" viewBox="-10 0 2068 2048">
   <path fill="currentColor"
d="M2030 1210l-102 102l-207 -204l106 -106q20 -20 39 -20t43 20l131 136q10 21 7 38q-3 21 -17 34zM1030 1790v214h217l628 -630l-203 -202zM846 1370l-203 -246l-280 366h681l261 -256l-174 -232zM827 1790v-92l4 -4h-623v-1442h1440v648l208 -198v-450q0 -86 -60 -146
q-61 -62 -148 -62h-1440q-86 0 -147 61t-61 147v1442q0 86 61 148q60 60 147 60h619v-112z" />
</svg>