<svg xmlns="http://www.w3.org/2000/svg" xmlns:xlink="http://www.w3.org/1999/xlink" version="1.1" viewBox="-10 0 2068 2048">
   <path fill="currentColor"
d="M1298 1250q4 17 4 29q0 54 -18 101q-20 49 -58 81q-41 35 -88 49q-62 24 -134 0q-53 -20 -100 -63q69 -20 112 -62q46 -44 60 -106q5 -46 -14 -120l-10 -53q-14 -91 14 -164q26 52 52 84q19 25 68 70q52 47 68 67q35 41 44 87zM2048 1024q0 278 -138 514
q-136 236 -372 373q-237 137 -514.5 137t-513.5 -137q-235 -136 -372 -373q-138 -236 -138 -514t138 -514q137 -237 372 -373q236 -137 513.5 -137t514.5 137q236 137 372 373q138 236 138 514zM1552 1082l-10 -20q-15 -40 -62 -101q-13 -17 -52 -57l-10 -10q-12 -9 -78 -58
q-57 -44 -90 -72q-87 -91 -106 -218q-20 -125 38 -238q-101 24 -202 105q-158 124 -212 323q-52 196 20 384q4 17 4 29q0 24 -28 36t-48 -7q-10 -5 -14 -15q-67 -80 -80 -194q-12 -113 36 -214q-101 82 -154 209q-52 126 -42 257v19q9 68 24 101q16 63 58 140
q64 102 170 170q108 69 228 84q135 20 260 -9q131 -32 226 -116q116 -101 148 -247q33 -146 -24 -281z" />
</svg>