<svg xmlns="http://www.w3.org/2000/svg" xmlns:xlink="http://www.w3.org/1999/xlink" version="1.1" viewBox="-10 0 2058 2048">
   <path fill="currentColor"
d="M768 707q-68 0 -112 46q-44 47 -44 109t44 109q44 46 110 46q64 0 110 -46t46 -109t-46 -109t-108 -46zM1280 707q-62 0 -108 46t-46 109t46 109t110 46q66 0 110 -46q44 -47 44 -109t-44 -109q-44 -46 -112 -46zM1024 189l72 5q66 -61 156 -109q82 -44 154 -65
q104 -24 230 -20q126 5 220 49q107 49 130 126q20 87 -46 188q-67 105 -190 175q98 130 150 273q52 149 52 307q0 251 -126 467q-126 217 -338 339q-214 124 -464 124t-464 -124q-214 -123 -340 -339q-124 -214 -124 -467q0 -158 52 -307q52 -143 150 -273
q-123 -70 -190 -175q-66 -101 -46 -188q24 -78 130 -126q93 -44 220 -49q126 -4 230 20q72 21 154 65q90 48 156 109zM816 1428q42 0 74 32t32 75t-32 72t-75 29t-72 -29t-29 -72t29 -75t73 -32zM1232 1428q44 0 73 32t29 75t-29 72t-73 29q-43 0 -76 -29q-30 -28 -30 -72
t30 -75q32 -32 76 -32zM1024 1118q-134 0 -262 73q-113 60 -184 157q-72 99 -72 184t70 155q71 71 190 114q117 43 258 43t258 -43q119 -43 190 -114q70 -70 70 -155q0 -83 -74 -184q-71 -98 -182 -157q-128 -73 -262 -73zM588 218q-28 -4 -184 0l-144 10l120 92
q128 93 150 101q56 10 150 5q116 -4 128.5 -40.5t-88.5 -99.5q-84 -53 -132 -68zM1460 218q-48 15 -132 68q-101 63 -88.5 99.5t128.5 40.5q94 5 150 -5q22 -8 150 -101l120 -92l-144 -10q-156 -4 -184 0z" />
</svg>