<svg xmlns="http://www.w3.org/2000/svg" xmlns:xlink="http://www.w3.org/1999/xlink" version="1.1" viewBox="-10 0 2068 2048">
   <path fill="currentColor"
d="M408 409l72 4q48 -182 200 -298q151 -115 344 -115q111 0 214 43t182 123q78 78 122 183q44 102 44 213l-4 97q72 -44 158 -44q130 0 219 89t89 217q0 126 -89 218t-219 92h-1332q-166 0 -288 -121q-120 -120 -120 -290q0 -171 120 -291t288 -120zM408 615q-86 0 -146 60
q-60 61 -60 145q0 83 60 144q60 60 146 60h1332q42 0 74 -29q32 -28 32 -72t-31 -75t-75 -31h-356v-255q0 -146 -106 -254q-104 -106 -254.5 -106t-255.5 106q-104 106 -104 254v53h-256zM1638 1639h-1436q-44 0 -72 -29q-28 -28 -28 -72q0 -43 28 -74t72 -31h1436
q131 0 220 91q88 92 88 219t-89 216t-215 89q-128 0 -220 -87q-28 -34 -28 -74t28 -72q29 -31 72.5 -31t72 31t72 31t71.5 -31q30 -32 30 -75t-29 -72t-73 -29z" />
</svg>