<svg xmlns="http://www.w3.org/2000/svg" xmlns:xlink="http://www.w3.org/1999/xlink" version="1.1" viewBox="-10 0 2068 2048">
   <path fill="currentColor"
d="M1178 1024q-62 0 -108 46t-46 108t46 108t108 46t108 -46t46 -108t-46 -108t-108 -46zM1178 101q236 0 436.5 109.5t317.5 299.5q116 188 116 413q0 150 -10 240q-20 136 -82 270q-146 0 -274 72q-81 41 -202 144q-124 104 -182 135q-104 62 -222 62q-163 0 -254 -120
q-82 -108 -102 -293h-80l-136 442q-8 37 -42 58q-32 18 -68 14h-292q-44 0 -74 -29q-28 -28 -28 -72t28 -74q29 -32 74 -32v-307q-44 0 -74 -29q-28 -28 -28 -72t28 -72q30 -29 74 -29h384l48 -169q-79 -38 -178 -38h-44l-4 -101q0 -227 114 -413q116 -189 318 -299
q201 -110 438 -110zM308 1433v307h24l90 -307h-114z" />
</svg>