<svg xmlns="http://www.w3.org/2000/svg" xmlns:xlink="http://www.w3.org/1999/xlink" version="1.1" viewBox="-10 0 2068 2048">
   <path fill="currentColor"
d="M1924 2048l-270 -265h-8v-14l-96 -96v110h-490v-123q45 -27 74 -74q36 -70 16 -146q-22 -79 -90 -119v-123h10l-1070 -1074l124 -124l1924 1925zM1302 777h146q78 -5 136 51q57 56 62 132v137h146v-160q-5 -132 -103.5 -221t-234.5 -85h-152q-73 -4 -126 -62
q-52 -56 -52 -130q0 -72 52 -123q53 -51 122 -51h4v-141q-132 0 -228 96t-96 230q0 135 96 231t228 96zM1888 873v9v215h146v-215q0 -161 -82 -292q-83 -132 -224 -201h-6q55 -50 80 -121q26 -69 16 -144h-140v32q0 77 -54 130q-52 52 -126 52v147q162 0 276 114t114 274z
M796 1390q28 -43 68 -69v-123h-484q-124 0 -208 84q-86 85 -86 206t87 208t207 87h484v-123q-68 -40 -90 -119q-20 -76 22 -151zM1646 1276l146 146v-224h-146v78zM1888 1518l146 146v-466h-146v320zM964 1390q-40 0 -70 30t-30 68q0 39 30 69q28 29 68 29t68 -29
q30 -30 30 -69q0 -38 -30 -68t-66 -30z" />
</svg>