<svg xmlns="http://www.w3.org/2000/svg" xmlns:xlink="http://www.w3.org/1999/xlink" version="1.1" viewBox="-10 0 2068 2048">
   <path fill="currentColor"
d="M1274 1444l148 -148l216 220l216 -220l150 148l-222 216l222 218l-150 148l-216 -220l-216 220l-148 -148l220 -218zM818 22h412q82 0 142 60t60 142v206h414q82 0 142 60t60 146v568q-173 -158 -410 -158q-165 0 -310 82q-142 80 -222 222q-82 145 -82 310q0 167 82 308
h-904q-82 0 -142 -60t-60 -146v-1126q0 -86 60 -146t142 -60h414v-206q0 -82 60 -142t142 -60zM1230 430v-206h-412v206h412z" />
</svg>