<svg xmlns="http://www.w3.org/2000/svg" xmlns:xlink="http://www.w3.org/1999/xlink" version="1.1" viewBox="-10 0 2058 2048">
   <path fill="currentColor"
d="M1312 937q121 121 121 291t-121 291q-120 120 -288 120t-288 -120zM409 0h1230q87 0 147 60t60 142v1644q0 82 -60 142t-147 60h-1230q-86 0 -146 -60q-61 -61 -61 -142v-1644q0 -81 61 -142q60 -60 146 -60zM510 202q-44 0 -72 31q-29 32 -29 75t29 72t72 29
q42 0 74 -29t32 -72t-32 -75q-31 -31 -74 -31zM818 202q-45 0 -73 31t-28 75t28 72q29 29 73 29q42 0 74 -29q31 -28 31 -72t-31 -75t-74 -31zM1024 615q-117 0 -235 46q-115 45 -202 132t-132 200q-46 115 -46 238q0 161 82 305q81 142 223 226t310 84t310 -84t223 -226
q82 -144 82 -305q0 -125 -45 -238q-45 -112 -133 -200t-201 -132q-118 -46 -236 -46z" />
</svg>