<svg xmlns="http://www.w3.org/2000/svg" xmlns:xlink="http://www.w3.org/1999/xlink" version="1.1" viewBox="-10 0 2068 2048">
   <path fill="currentColor"
d="M1818 2048h230v-229h-230v229zM1366 2048h228v-229h-228v229zM912 1595h224v-230h-224v230zM1818 683h230v-230h-230v230zM1818 229h230v-229h-230v229zM0 1136h2048v-224h-2048v224zM912 2048h224v-229h-224v229zM1818 1595h230v-230h-230v230zM1136 0h-224v229h224
v-229zM1136 453h-224v230h224v-230zM1594 0h-228v229h228v-229zM684 0h-230v229h230v-229zM230 0h-230v229h230v-229zM454 2048h230v-229h-230v229zM0 1595h230v-230h-230v230zM230 453h-230v230h230v-230zM0 2048h230v-229h-230v229z" />
</svg>