<svg xmlns="http://www.w3.org/2000/svg" xmlns:xlink="http://www.w3.org/1999/xlink" version="1.1" viewBox="-10 0 2068 2048">
   <path fill="currentColor"
d="M1770 1255v279h278v187h-278v279h-188v-279h-278v-187h278v-279h188zM1024 1068q-78 0 -132 54t-54 133t54 133q54 55 132 55t134 -55q54 -54 54 -133t-54 -133t-134 -54zM1150 1813h-730q-62 0 -112 -39q-50 -40 -68 -96l-234 -863q-6 -10 -6 -26q0 -34 29 -63t67 -29
h446l404 -610q30 -39 78 -39t78 39l406 610h444q38 0 68 29q28 28 28 63l-4 26l-92 331q-84 -51 -174 -65l56 -196h-1616l202 741h696q0 94 34 187zM764 697h522l-262 -392z" />
</svg>