<svg xmlns="http://www.w3.org/2000/svg" xmlns:xlink="http://www.w3.org/1999/xlink" version="1.1" viewBox="-10 0 2068 2048">
   <path fill="currentColor"
d="M1674 558q-74 0 -130 54q-54 54 -54 132v188q0 74 54 128q56 56 130 56h186v186h-370v188h370q78 0 134 -54q54 -54 54 -134v-186q0 -76 -54 -130t-134 -54h-186v-188h374v-186h-374zM746 558v932h370q78 0 133 -55t55 -133v-558q0 -76 -55 -131t-133 -55h-370zM934 744
h182v558h-182v-558zM188 558q-78 0 -133 55t-55 131v746h188v-374h188v374h182v-746q0 -78 -54 -132t-128 -54h-188zM188 744h188v188h-188v-188z" />
</svg>