<svg xmlns="http://www.w3.org/2000/svg" xmlns:xlink="http://www.w3.org/1999/xlink" version="1.1" viewBox="-10 0 2068 2048">
   <path fill="currentColor"
d="M1400 1727q-196 0 -364 -104q-165 -103 -256 -275h620l108 -218h-800q-10 -53 -10 -106t10 -106h692l108 -218h-728q91 -172 256 -275q168 -104 364 -104q260 0 456 172l192 -192q-131 -116 -298 -182t-350 -66q-312 0 -562 180q-251 180 -352 467h-380l-106 218h436
q-6 40 -6 106t6 106h-330l-106 218h486q101 287 352 467q250 180 562 180q183 0 350 -66t298 -182l-192 -192q-196 172 -456 172z" />
</svg>