<svg xmlns="http://www.w3.org/2000/svg" xmlns:xlink="http://www.w3.org/1999/xlink" version="1.1" viewBox="-10 0 2068 2048">
   <path fill="currentColor"
d="M0 1947v-615h154q-52 -147 -52 -308q0 -251 123.5 -462t336.5 -336t462 -125h1024v615h-154q52 150 52 308q0 249 -124 461q-125 212 -338 337q-212 125 -460 125h-1024zM308 1024q0 193 96 361l356 -207q-44 -71 -44 -154q0 -97 58 -178l-336 -240q-130 193 -130 418z
M1024 1740q196 0 362 -96q166 -95 258 -259l-356 -207q-40 74 -110 113q-73 41 -154 41h-30l-38 408h68zM1024 716q91 0 168 51q78 52 110 132l376 -173q-88 -188 -262.5 -303t-391.5 -115v408zM1024 923q-44 0 -73 29t-29 72t29 72t72 29t72 -29t29 -72t-29 -72t-71 -29z
" />
</svg>