<svg xmlns="http://www.w3.org/2000/svg" xmlns:xlink="http://www.w3.org/1999/xlink" version="1.1" viewBox="-10 0 2068 2048">
   <path fill="currentColor"
d="M1026 835h274q-23 -246 -99.5 -405t-174.5 -159q-75 0 -136 93q-63 94 -102 253q-39 163 -44 355l-188 105v-53q0 -257 64 -471q64 -217 170 -341q108 -126 236 -126q111 0 210 97q99 98 164.5 269t87.5 383h292l-380 379zM1026 1962q-132 0 -242 -132
q-110 -133 -166 -352l162 -92q33 173 102 284q66 108 148 108q86 0 158 -135q71 -134 102 -346l110 115l66 -66q-48 273 -168 445q-121 171 -272 171zM98 1672l-92 -168l-6 -4l942 -546l150 150l-990 572zM1956 377l92 167l-344 198h-136l-26 -127z" />
</svg>