<svg xmlns="http://www.w3.org/2000/svg" xmlns:xlink="http://www.w3.org/1999/xlink" version="1.1" viewBox="-10 0 2068 2048">
   <path fill="currentColor"
d="M1730 1106l-525 530h-212v-214l524 -528zM2046 1032q0 31 -56 82l-230 236l-87 -88l243 -238l-56 -56l-65 64l-213 -212l204 -196q13 -12 37 -12q25 0 45 12l130 130q13 14 13 40t-13 44q-34 38 -34 56t34 56q31 26 39 44q14 20 9 38zM186 1766v-1484h646v464h464v140
l186 -188v-42l-554 -556h-742q-78 0 -132 54t-54 128v1484q0 74 54 128t132 54h1110q78 0 132 -54t54 -128h-1296zM928 1496q-15 0 -31 4l-17 6l-48 -204h-138l-191 156l52 -248h-139l-91 460h139l269 -238l56 212h91l48 -8v-140z" />
</svg>