<svg xmlns="http://www.w3.org/2000/svg" xmlns:xlink="http://www.w3.org/1999/xlink" version="1.1" viewBox="-10 0 2058 2048">
   <path fill="currentColor"
d="M1116 883q0 61 -39 100t-98 39t-101 -39q-41 -38 -41 -98t41 -101t101 -41t98 41q39 42 39 99zM933 420q0 -62 -42 -101t-100 -39q-59 0 -98 39q-40 40 -40 98t40 101q38 41 98 41q59 0 100 -41q42 -42 42 -98zM1862 839q0 229 -113 419q-114 192 -306 306
q-190 113 -419 113t-419 -113t-305 -306q-114 -192 -114 -419t114 -422q114 -194 305 -305q194 -112 419 -112h27q25 9 43 27q22 25 22 65v188h96h22q30 9 43 26q27 27 27 66v91h187l22 5q32 9 44 26q26 23 26 65v92h188l30 4q34 13 48 44q13 64 13 140zM1675 839h-140
q-56 0 -98 -42t-42 -98v-48h-139q-58 0 -99 -41t-41 -99v-48h-44q-61 0 -100 -39t-39 -100v-131q-219 30 -371 187q-154 159 -184 372q14 -45 51 -73t85 -28q56 0 98 42q41 41 41 98t-41 98q-42 42 -98 42t-96 -38t-44 -89q0 92 9 140q25 182 157 327q130 144 314 192
q-61 -39 -61 -113q0 -56 39 -98t99 -42q58 0 100 42q41 41 41 93q0 54 -32 92q-33 39 -81 48q191 18 358 -65q165 -82 262 -238q96 -155 96 -343zM1443 931q-57 0 -98 41t-41 98q0 58 41 99t98 41q58 0 99 -41t41 -99q0 -57 -41 -98t-99 -41zM557 2048h188v-187h-188v187z
M1304 2048h187v-187h-187v187zM933 2048h183v-187h-183v187z" />
</svg>