<svg xmlns="http://www.w3.org/2000/svg" xmlns:xlink="http://www.w3.org/1999/xlink" version="1.1" viewBox="-10 0 2068 2048">
   <path fill="currentColor"
d="M2048 1586v343q0 47 -38 82q-41 37 -90 37h-534q-46 0 -82 -39q-38 -40 -38 -89v-343q0 -41 37 -78t83 -37v-146q0 -101 81.5 -174t188.5 -73q105 0 188 73q86 74 86 174v146q44 0 82 37q36 36 36 87zM1802 1316q0 -59 -42 -94q-39 -34 -102 -34t-106 34q-44 35 -44 94
v146h294v-146zM1756 192q78 0 135 57t57 139v585q-88 -65 -192 -87v-498h-398l-178 -196h-412l-178 196h-398v1170h878v197h-878q-76 0 -134 -57q-58 -58 -58 -140v-1170q0 -81 58 -139q58 -57 134 -57h312l178 -192h584l178 192h312zM974 484q188 0 324 126
q138 127 160 308q-123 56 -202 170q-81 115 -86 251q-49 44 -76 105q-56 18 -120 18q-132 0 -244 -66q-113 -66 -178 -178q-66 -112 -66 -245q0 -131 66 -244q66 -114 178 -179q112 -66 244 -66zM974 1266q118 0 205 -87t87 -206q0 -118 -87 -205t-205 -87t-205 87t-87 205
q0 119 87 206t205 87z" />
</svg>