<svg xmlns="http://www.w3.org/2000/svg" xmlns:xlink="http://www.w3.org/1999/xlink" version="1.1" viewBox="-10 0 2058 2048">
   <path fill="currentColor"
d="M1262 0l-54 119l-123 58l123 54l54 119l54 -119l123 -54l-123 -58zM867 177l-95 210l-214 95l214 99l95 210l94 -210l214 -99l-214 -95zM1604 453q-93 -8 -186 31q-93 38 -168 118q-108 104 -138 232q-32 129 14 229l-857 861l124 124l605 -606l606 606l123 -124
l-605 -605l128 -128q103 45 232 12q130 -33 233 -136q83 -83 122 -183q38 -99 26 -196q-13 -96 -78 -157q-74 -73 -181 -78zM286 482q-103 103 -103 249q0 147 103 250l371 366l247 -247z" />
</svg>