<svg xmlns="http://www.w3.org/2000/svg" xmlns:xlink="http://www.w3.org/1999/xlink" version="1.1" viewBox="-10 0 2068 2048">
   <path fill="currentColor"
d="M58 880l596 -596l172 177q-19 64 8 128q27 66 88 98v568q-48 29 -76 77q-28 47 -28 101q0 86 60 146t146 60t146 -60t60 -146q0 -52 -28 -101q-29 -48 -78 -77v-495l212 211q-4 17 -4 53q0 87 60 147t144 60t144 -60t60 -147t-60 -147t-142 -60q-37 0 -54 10l-264 -265
q20 -71 -14 -141q-33 -69 -104 -97q-68 -27 -132 -12l-172 -173l82 -81q58 -58 144 -58t144 58l822 822q58 58 58 144t-58 144l-822 822q-58 58 -144 58t-144 -58l-822 -822q-58 -57 -58 -144t58 -144z" />
</svg>