<svg xmlns="http://www.w3.org/2000/svg" xmlns:xlink="http://www.w3.org/1999/xlink" version="1.1" viewBox="-10 0 2058 2048">
   <path fill="currentColor"
d="M1196 852q-109 0 -182 76q-74 77 -74 182q0 106 74 180t180 74q105 0 182 -74q76 -73 76 -180q0 -106 -76 -182t-180 -76zM1196 1536q-117 0 -214 -58q-98 -58 -156 -156q-58 -97 -58 -214t58 -214q59 -99 156 -154q98 -56 214 -56t214 56t154 154t56 214t-56 214
q-55 97 -154 156q-97 58 -214 58zM1196 172q68 0 118 50t50 120t-50 120t-120 50t-120 -50t-50 -120t50 -120t122 -50zM1620 0h-852q-72 0 -122 50t-50 122v1364q0 72 50 122t122 50h852q72 0 122 -50t50 -122v-1364q0 -72 -50 -122t-122 -50zM428 1876h1024v172h-1024
q-72 0 -122 -50t-50 -122v-1536h172v1536z" />
</svg>