<svg xmlns="http://www.w3.org/2000/svg" xmlns:xlink="http://www.w3.org/1999/xlink" version="1.1" viewBox="-10 0 2068 2048">
   <path fill="currentColor"
d="M1356 723q104 0 177 -73t73 -177q0 -105 -74 -179q-73 -75 -178 -75q-106 0 -179 73t-73 179q0 105 76 179q74 73 178 73zM1738 713l310 311l-142 141l-314 -310q-112 70 -240 70q-190 0 -319 -132t-129 -320t132 -320t320 -132q187 0 320 130q132 128 132 322
q0 128 -70 240zM1454 1627h-1104l276 -353l198 235l274 -353zM1606 1123l202 202v504q0 81 -62 139q-62 59 -140 59h-1408q-74 0 -136 -61q-62 -62 -62 -137v-1408q0 -79 60 -141q58 -61 138 -61h556q-47 99 -52 202h-504v1408h1408v-706z" />
</svg>