<svg xmlns="http://www.w3.org/2000/svg" xmlns:xlink="http://www.w3.org/1999/xlink" version="1.1" viewBox="-10 0 2067 2048">
   <path fill="currentColor"
d="M1153 1319l165 -166l729 730l-165 165zM1643 664l324 -325q-223 -219 -518 -298q-295 -80 -590.5 -3.5t-514.5 301.5q336 -113 684 -24q351 89 615 349zM339 344q-225 220 -301 514q-76 295 3 591q79 294 298 519l325 -325q-260 -265 -349 -615q-88 -349 24 -684z
M339 339q-31 266 96 572q127 304 394 567l649 -649q-262 -267 -567 -394q-306 -128 -572 -96z" />
</svg>