<svg xmlns="http://www.w3.org/2000/svg" xmlns:xlink="http://www.w3.org/1999/xlink" version="1.1" viewBox="-10 0 2068 2048">
   <path fill="currentColor"
d="M1810 0l238 237l-1810 1811l-238 -238zM420 56q151 0 256 108q104 107 104 257q0 151 -104 255t-254 104q-151 0 -257.5 -104t-106.5 -255q0 -150 106 -257q108 -108 256 -108zM1630 1267q146 0 254 105t108 254q0 150 -108 258q-108 107 -258 107t-254 -107t-104 -258
q0 -150 104 -254q104 -105 258 -105zM420 300q-46 0 -82 36q-38 37 -38 85t37 85t85 37t85 -37t37 -85t-38 -85q-36 -36 -86 -36zM1630 1505q-52 0 -88 36q-38 37 -38 85t37 85t85 37t86 -37q36 -36 36 -85t-36 -85t-82 -36z" />
</svg>