<svg xmlns="http://www.w3.org/2000/svg" xmlns:xlink="http://www.w3.org/1999/xlink" version="1.1" viewBox="-10 0 2058 2048">
   <path fill="currentColor"
d="M870 0q107 0 181 74t74 181v976h106v-981q0 -137 -106 -245q22 -5 53 -5q106 0 180 74q75 75 75 181v976h105v307q0 39 -31 70t-74 31h-817q-44 0 -75 -31t-31 -70v-307h106v-976q0 -107 74 -181t180 -74zM870 202q-19 0 -36 17q-16 16 -16 36v976h105v-976
q0 -19 -17 -36t-36 -17zM717 1846h615v101q0 43 -32 72t-69 29h-413q-38 0 -70 -29q-31 -28 -31 -72v-101z" />
</svg>