<svg xmlns="http://www.w3.org/2000/svg" xmlns:xlink="http://www.w3.org/1999/xlink" version="1.1" viewBox="-10 0 2058 2048">
   <path fill="currentColor"
d="M1286 990l298 299q62 -63 62 -140q0 -52 -34 -106l-28 -43l-154 -159q28 -56 28 -124q0 -83 -38 -149q-39 -68 -100 -106l138 -452q-84 -24 -152 10q-50 25 -82 76l-20 49l-86 269q-91 9 -164 69q-71 60 -96 152l-456 144q38 124 154 139q61 10 106 -4l210 -73
q53 120 178 164v735l-52 10q-64 15 -102 53q-52 53 -52 144v101h614v-101l-8 -53q-16 -63 -54 -101q-52 -53 -144 -53v-735zM998 717q0 -63 46 -109q44 -45 107 -45t109 45q46 46 46 109q0 62 -46 108q-46 45 -109 45t-107 -45q-46 -46 -46 -108z" />
</svg>