<svg xmlns="http://www.w3.org/2000/svg" xmlns:xlink="http://www.w3.org/1999/xlink" version="1.1" viewBox="-10 0 2068 2048">
   <path fill="currentColor"
d="M2048 616v614h-274q-70 161 -216 285q-144 123 -330 180v250h-614v-250q-276 -88 -444 -297q-170 -212 -170 -475q0 -222 124 -410q125 -189 336 -300q210 -110 460 -110q289 0 518 141q231 142 336 372h274zM1434 1230v-614h106q-91 -138 -258 -223q-164 -84 -362 -84
q-193 0 -358 82q-162 80 -260 223q-96 141 -96 309q0 182 114 331q112 148 294 225v-148h614v148q200 -81 312 -249h-106zM1636 1024h206v-202h-206v202zM820 1743h202v-206h-202v206z" />
</svg>