<svg xmlns="http://www.w3.org/2000/svg" xmlns:xlink="http://www.w3.org/1999/xlink" version="1.1" viewBox="-10 0 2068 2048">
   <path fill="currentColor"
d="M1147 2048l-166 -386q226 -85 447 -233zM386 1067l-385 -166l618 -281q-148 220 -233 447zM2009 39q-15 -5 -29 -9.5t-28 -9.5q-70 -19 -157 -19q-115 -5 -233 24q-154 33 -296 114q-177 101 -333 262q-280 275 -442 681q-25 58 -10 114q15 58 57 100l215 214
q42 42 99 57t115 -9q387 -146 680 -443q161 -157 262 -333q81 -142 114 -296q28 -119 24 -233q0 -87 -19 -157zM1290 758q-57 -62 -57 -145t60 -143t142 -60q83 0 143 60t60 143q0 82 -60 142t-143 60q-84 0 -145 -57zM714 1477l-142 -143zM448 2029l371 -367
q-54 -16 -100 -47l-414 414h143zM20 2029h142l486 -481l-148 -143l-480 481v143zM20 1743l414 -414q-34 -49 -48 -100l-366 371v143z" />
</svg>