<svg xmlns="http://www.w3.org/2000/svg" xmlns:xlink="http://www.w3.org/1999/xlink" version="1.1" viewBox="-10 0 2068 2048">
   <path fill="currentColor"
d="M684 0v229h-230q-90 0 -157 67t-67 157v230h-230v229h230v224h-230v229h230v230q0 90 67 157t157 67h230v229h228v-229h224v229h230v-229h228q90 0 157 -67t67 -157v-230h230v-229h-230v-224h230v-229h-230v-230q0 -90 -67 -157t-157 -67h-228v-229h-230v229h-224v-229
h-228zM572 683h394v170h-342v86h230q48 0 80 32t32 80v202q0 48 -32 80t-80 32h-282q-48 0 -83 -32t-35 -80v-458q0 -48 35 -80t83 -32zM1082 683h172v229h170v-229h170v682h-170v-282h-342v-400zM624 1109v86h170v-86h-170z" />
</svg>