<svg xmlns="http://www.w3.org/2000/svg" xmlns:xlink="http://www.w3.org/1999/xlink" version="1.1" viewBox="-10 0 2068 2048">
   <path fill="currentColor"
d="M1338 1192q0 -100 -70 -170t-168 -70q-96 0 -166 70t-70 170q0 96 70 166q68 68 166 68q100 0 168 -68q70 -70 70 -166zM1500 1192q0 160 -118 278t-284 118q-109 0 -202 -58q-92 -58 -146 -156q-52 97 -146 156q-93 58 -202 58q-166 0 -282 -116q-115 -115 -120 -276
v-662q0 -30 24 -52t57.5 -22t56.5 22q24 22 24 52v340q106 -84 240 -84q109 0 202 60q94 58 146 154q54 -97 146 -154q93 -60 202 -60q166 0 284 118t118 284zM636 1192q0 -102 -68 -170q-70 -70 -168 -70t-168 70q-70 68 -70 170q0 96 69 165t168 69t168 -69t69 -165z
M2030 1462q18 21 18 48q0 38 -34 60q-23 18 -44 18q-38 0 -62 -30l-178 -236l-174 236q-27 30 -66 30q-20 0 -50 -20q-28 -19 -28 -62q0 -23 14 -44l204 -270l-204 -274q-14 -22 -14 -48q0 -36 28 -60q29 -24 62 -20q30 5 54 32l174 234l178 -234q19 -27 48 -32
q31 -4 61.5 18.5t30.5 65.5q0 26 -18 44l-200 274z" />
</svg>