<svg xmlns="http://www.w3.org/2000/svg" xmlns:xlink="http://www.w3.org/1999/xlink" version="1.1" viewBox="-10 0 2058 2048">
   <path fill="currentColor"
d="M1866 1472q-208 0 -380 -64h-34q-38 0 -68 30l-232 231q-226 -119 -406 -298q-180 -180 -288 -396l232 -232q25 -21 30 -49q4 -31 -10 -54q-54 -192 -54 -379q0 -39 -32 -71t-72 -32h-370q-38 0 -70 32t-32 71q0 488 240 901q235 407 646 645q413 241 900 241
q38 0 70 -32t32 -71v-370q0 -39 -32 -71t-70 -32zM292 369h156q11 117 50 271l-124 128q-67 -207 -82 -399zM1758 1836q-192 -15 -400 -83l128 -123q168 39 272 39v167zM1550 158v-158l-236 236l236 237v-158q110 0 186 76t76 185q0 64 -30 118l118 113q68 -102 68 -231
q0 -172 -123 -295t-295 -123zM1550 842q-109 0 -186 -79q-80 -81 -80 -187q0 -60 30 -118l-112 -113q-74 109 -74 231q0 177 123 300t299 123v158l236 -236l-236 -237v158z" />
</svg>