<svg xmlns="http://www.w3.org/2000/svg" xmlns:xlink="http://www.w3.org/1999/xlink" version="1.1" viewBox="-10 0 2068 2048">
   <path fill="currentColor"
d="M1278 1024q0 -105 -75 -180t-180 -75t-180 75t-75 180q0 77 40 137q40 62 106 94l-116 110q-82 -53 -132 -144q-50 -90 -50 -197q0 -168 120 -288q120 -121 287 -121t288 121t121 288q0 106 -51 197t-131 144l-116 -110q65 -31 106 -94q38 -60 38 -137zM1024 0
q-278 0 -514 137q-235 136 -372 373q-138 236 -138 514q0 231 96 435q97 206 264 349l112 -111q-152 -122 -234 -298q-84 -179 -84 -375q0 -235 116 -438q115 -202 316 -317q202 -115 437.5 -115t436.5 115q204 116 318 317q116 202 116 438q0 196 -84 375q-84 177 -234 298
l110 111q169 -145 266 -349q96 -204 96 -435q0 -278 -138 -514q-136 -236 -372 -373q-237 -137 -514 -137zM1740 1024q0 -197 -96 -361q-96 -163 -260 -259q-163 -96 -360 -96t-360 96q-165 97 -260 259q-96 164 -96 361q0 168 72 315q70 145 202 247l110 -105
q-110 -81 -170 -200q-60 -118 -60 -257q0 -155 74 -284q73 -127 204 -204q129 -75 284 -75q154 0 284 75q130 76 204 204q74 129 74 284q0 138 -60 257q-61 120 -170 200l110 105q131 -102 202 -247q72 -147 72 -315zM408 2048h1230l-614 -615z" />
</svg>