<svg xmlns="http://www.w3.org/2000/svg" xmlns:xlink="http://www.w3.org/1999/xlink" version="1.1" viewBox="-10 0 2068 2048">
   <path fill="currentColor"
d="M1740 101l-616 615l208 207l716 -721v-101h-308zM1024 1077q-20 0 -37 -17t-17 -36t17 -36t36 -17t36 17t17 36t-17 36t-35 17zM408 1846q-86 0 -146 -60q-60 -61 -60 -147q0 -85 60 -146q60 -60 146 -60q88 0 148 60t60 146q0 87 -60 147t-148 60zM408 615
q-86 0 -146 -60q-60 -61 -60 -146q0 -86 60 -147q60 -60 146 -60q88 0 148 60t60 147q0 86 -60 146t-148 60zM784 577q34 -83 34 -168q0 -168 -122 -289q-120 -120 -288 -120t-288 120t-120 289q0 168 120 288t288 120q88 0 168 -33l242 240l-242 240q-80 -33 -168 -33
q-168 0 -288 120t-120 288q0 169 120 289t288 120t288 -120q122 -121 122 -289q0 -85 -34 -168l240 -240l716 716h308v-101z" />
</svg>