<svg xmlns="http://www.w3.org/2000/svg" xmlns:xlink="http://www.w3.org/1999/xlink" version="1.1" viewBox="-10 0 2068 2048">
   <path fill="currentColor"
d="M1538 1180h202v308h308v202h-308v308h-202v-308h-308v-202h308v-308zM1846 872v-308h-1644v308h1644zM1124 1074v174q-100 155 -100 340q0 167 82 308h-904q-82 0 -142 -60t-60 -146v-1640l168 174l174 -174l168 174l172 -174l168 174l174 -174l172 174l168 -174l174 174
l168 -174l172 174l170 -174v1078q-178 -154 -410 -154q-185 0 -340 100h-174zM922 1690v-616h-720v616h720z" />
</svg>