<svg xmlns="http://www.w3.org/2000/svg" xmlns:xlink="http://www.w3.org/1999/xlink" version="1.1" viewBox="-10 0 2068 2048">
   <path fill="currentColor"
d="M818 615v1231q0 38 -30 70q-28 31 -72 31h-100q-44 0 -75 -31t-31 -70v-692q-112 77 -204 77q-94 0 -172 -58q-61 -47 -98 -120q-36 -72 -36 -130v-514q0 -58 36 -130q37 -73 98 -120q78 -58 174 -58t218 84q122 83 207 207t85 223zM1484 101q-153 0 -282 77
q-130 76 -205 204t-75 281t75 284t205 207q129 77 282 77q155 0 284 -77q130 -76 205 -207t75 -284t-75 -281t-205 -204q-129 -77 -284 -77zM1278 1298v548q0 39 31 70t75 31h202q44 0 75 -31t31 -70v-548q-104 34 -208 34q-102 0 -206 -34z" />
</svg>