<svg xmlns="http://www.w3.org/2000/svg" xmlns:xlink="http://www.w3.org/1999/xlink" version="1.1" viewBox="-10 0 2068 2048">
   <path fill="currentColor"
d="M1818 0h-1588q-96 0 -163 67t-67 162v1590q0 95 67 162t163 67h1588q96 0 164 -67q66 -66 66 -162v-1590q0 -96 -66 -162q-68 -67 -164 -67zM1466 443q-25 -7 -42 -16q-47 -16 -70 -16q-54 -11 -88 16q-33 26 -50 106l-192 1035q-37 144 -112 208q-66 43 -150 43
q-58 0 -148 -27l-80 -27l58 -160l48 16q53 16 64 16q39 11 80 -10q21 -10 48 -80l182 -1046q16 -116 112 -218q95 -64 240 -43q51 6 116 32l54 21z" />
</svg>