<svg xmlns="http://www.w3.org/2000/svg" xmlns:xlink="http://www.w3.org/1999/xlink" version="1.1" viewBox="-10 0 2068 2048">
   <path fill="currentColor"
d="M202 0h1644q82 0 142 60t60 142v1231q0 86 -60 146t-142 60h-414l-408 409l-408 -409h-414q-82 0 -142 -60t-60 -146v-1231q0 -82 60 -142t142 -60zM202 202v1231h494l328 327l326 -327h496v-1231h-1644zM562 409q64 0 108 45q46 46 46 108q0 63 -46 109q-44 45 -107 45
t-109 -45q-46 -46 -46 -109q0 -62 46 -108q46 -45 108 -45zM408 1231l514 -515l202 207l514 -514v822h-1230z" />
</svg>