<svg xmlns="http://www.w3.org/2000/svg" xmlns:xlink="http://www.w3.org/1999/xlink" version="1.1" viewBox="-10 0 2058 2048">
   <path fill="currentColor"
d="M1073 1767q-27 -76 -91 -122q-65 -47 -149 -47q-107 0 -183 74q-75 74 -75 180v142h-361q-76 0 -131 -55q-56 -56 -56 -131v-361h143q106 0 180 -76q73 -74 73 -182q0 -109 -73 -183q-74 -76 -180 -76h-143v-360q0 -76 56 -132q55 -55 131 -55h383v-143q0 -98 69 -169
t167 -71t167 71q69 70 69 169v143h382q77 0 132 55t55 132v383h143q99 0 169 69q71 69 71 167q0 43 -18 84q-160 -133 -365 -133q-150 0 -282 78q-131 78 -209 209q-78 132 -78 283q0 41 4 57zM1843 1376l-205 200l-200 -200l-134 133l201 201l-201 204l134 134l200 -205
l205 205l133 -134l-204 -204l204 -201z" />
</svg>