<svg xmlns="http://www.w3.org/2000/svg" xmlns:xlink="http://www.w3.org/1999/xlink" version="1.1" viewBox="-10 0 2058 2048">
   <path fill="currentColor"
d="M1629 1395q97 0 164 67t67 166q0 98 -67 165q-68 68 -166 68q-97 0 -165 -68t-68 -165q0 -98 68 -166q67 -67 167 -67zM885 0q-257 0 -401 48q-143 48 -209 148q-60 90 -74 258q-13 101 -13 366q0 149 91 318q82 147 211 272q128 124 255 181v457h279v-457
q127 -57 255 -181q129 -125 211 -272q91 -169 91 -318q0 -278 -8 -371q-18 -167 -79 -253q-65 -104 -209 -150q-142 -46 -400 -46zM1342 301q17 21 26 70q7 24 17 96h-82v-205q12 8 30 26zM1394 820v17h-91v-279h91v262zM1211 1212h-278v-279h278v279zM558 1212v-279h279
v279h-279zM375 820v-27v-235h91v279h-91v-17zM558 558h279v279h-279v-279zM933 188q109 0 256 26h22v253h-278v-279zM837 467h-279v-240q113 -39 279 -39v279zM933 837v-279h278v279h-278zM466 262v205h-82q10 -72 17 -96q9 -49 26 -70zM392 933h74v157l-21 -44
q-40 -75 -53 -113zM654 1303h183v122l-18 -8q-54 -21 -165 -114zM950 1425h-17v-122h182q-114 95 -165 122zM1303 1090v-157h74q-22 52 -74 157z" />
</svg>