<svg xmlns="http://www.w3.org/2000/svg" xmlns:xlink="http://www.w3.org/1999/xlink" version="1.1" viewBox="-10 0 2068 2048">
   <path fill="currentColor"
d="M2034 670q-99 112 -240 186q-164 82 -330 82q-137 0 -262 -41q-64 -20 -184 -83l-104 -41q-103 -44 -152 -62q-96 -27 -192 -27q-122 0 -246 62q-106 57 -180 130l-144 -220q116 -115 248 -185q165 -90 322 -90q107 0 220 28q62 21 166 69l178 75q99 45 144 62
q94 28 186 28q116 0 246 -69q98 -56 180 -138zM2048 1392q-116 115 -248 185q-164 90 -322 90q-137 0 -262 -35q-75 -29 -186 -82l-116 -55q-99 -45 -144 -62q-94 -28 -186 -28q-116 0 -246 69q-98 56 -180 138l-144 -234q118 -118 248 -192q164 -90 322 -90q137 0 262 41
q64 20 184 83l104 41q100 43 152 55q99 28 192 28q116 0 246 -69q96 -55 180 -131z" />
</svg>