<svg xmlns="http://www.w3.org/2000/svg" xmlns:xlink="http://www.w3.org/1999/xlink" version="1.1" viewBox="-10 0 2058 2048">
   <path fill="currentColor"
d="M1055 0h-767q-81 0 -137 56t-56 133v1536q0 76 56 132t137 56h668q-57 -35 -105 -83t-83 -105h-480v-1536h668v480h481v113q109 23 193 80v-287zM1657 1617q62 -98 67 -213t-49 -218q-54 -104 -153 -164q-100 -61 -213 -65q-115 -5 -218 49t-164 151t-65 213
q-4 117 50 218q55 103 154 166q101 65 225 65t231 -67l296 296l135 -135zM1293 1626q-98 0 -168 -70t-70 -168q0 -99 70 -169q69 -69 168 -69t168 69q70 70 70 169q0 98 -70 168t-168 70z" />
</svg>