<svg xmlns="http://www.w3.org/2000/svg" xmlns:xlink="http://www.w3.org/1999/xlink" version="1.1" viewBox="-10 0 2068 2048">
   <path fill="currentColor"
d="M1418 824q172 0 292 120t120 292q0 118 -66 218l284 283l-130 129l-282 -283q-102 64 -218 64q-172 0 -292 -120t-120 -291q0 -172 120 -292t292 -120zM1418 1004q-94 0 -160 69q-68 70 -68 163t67 160t161 67t160 -67q66 -66 66 -160t-66 -163t-160 -69zM870 1463h-686
v-913l698 433q70 -155 214.5 -249t321.5 -94q54 0 72 4l154 -94v137q100 39 186 120v-441q0 -77 -54 -131q-54 -53 -132 -53h-1460q-78 0 -131 53t-53 131v1097q0 77 54 130q54 54 130 54h806q-77 -81 -120 -184zM1644 366l-728 458l-732 -458h1460z" />
</svg>