<svg xmlns="http://www.w3.org/2000/svg" xmlns:xlink="http://www.w3.org/1999/xlink" version="1.1" viewBox="-10 0 2058 2048">
   <path fill="currentColor"
d="M279 558v1303h1302v187h-1302q-74 0 -128 -54q-55 -55 -55 -133v-1303h183zM1769 188q74 0 128 54q55 55 55 133v1116q0 73 -55 128t-128 55h-1115q-78 0 -133 -55t-55 -128v-1116q0 -78 55 -133q54 -54 133 -54h296q25 -82 98 -135t161 -53t161 53t98 135h301zM1211 188
q-44 0 -69 28q-27 30 -27 65q0 36 27 66q25 28 67 28t68 -26t26 -68q0 -41 -26 -67t-66 -26zM837 558v-183h-183v1116h1115v-1116h-188v183h-744zM1024 1303v-558l466 279z" />
</svg>