<svg xmlns="http://www.w3.org/2000/svg" xmlns:xlink="http://www.w3.org/1999/xlink" version="1.1" viewBox="-10 0 2058 2048">
   <path fill="currentColor"
d="M1024 192q160 0 274 114t114 279q0 143 -122 375q-107 194 -266 393q-162 -211 -264 -398q-124 -234 -124 -370q0 -164 114 -279q114 -114 274 -114zM1024 0q-162 0 -292 77q-133 78 -212 213q-80 136 -80 295q0 275 292 699q138 205 292 370l92 -105q107 -130 200 -269
q128 -188 202 -348q92 -202 92 -347q0 -159 -80 -295q-79 -134 -214 -213q-130 -77 -292 -77zM1024 388q-82 0 -139 57t-57 137q0 81 57 138t139 57t139 -57t57 -138q0 -80 -57 -137t-139 -57zM1806 1654q0 106 -106 197q-104 91 -286 144q-181 53 -390 53t-390 -53
q-182 -53 -286 -144q-106 -91 -106 -197q0 -91 80 -171q78 -78 222 -139l60 86q-164 82 -164 179q0 64 78 121q79 58 212 89q137 32 294 32t294 -32q134 -31 214 -89q78 -57 78 -121q0 -96 -174 -179l54 -86q151 60 234 139q82 79 82 171z" />
</svg>