<svg xmlns="http://www.w3.org/2000/svg" xmlns:xlink="http://www.w3.org/1999/xlink" version="1.1" viewBox="-10 0 2068 2048">
   <path fill="currentColor"
d="M1864 2005h-336l24 -284h-164l-24 284h-682l-24 -284h-162l24 284h-338l-182 -1212l466 -750h1116l466 750zM1490 418h-298l20 140h-376l20 -140h-298l-188 375l96 745h1116l96 -745zM1326 1288q-19 0 -34 -50q-14 -48 -14 -123q0 -74 14 -122q16 -51 34 -51t33 51
t15 122q0 72 -14 123q-15 50 -34 50zM740 1303q-18 0 -34 -51q-14 -48 -14 -122q0 -75 14 -123q15 -50 34.5 -50t31.5 50q12 51 12 123q0 71 -12 122t-32 51z" />
</svg>