<svg xmlns="http://www.w3.org/2000/svg" xmlns:xlink="http://www.w3.org/1999/xlink" version="1.1" viewBox="-10 0 2058 2048">
   <path fill="currentColor"
d="M616 0h817q-36 74 -44 115q-15 77 0 193q1 6 34 158q36 171 43 231q15 129 -5 197q-15 49 -57 91q-23 23 -82 65q-55 39 -86 70q-49 44 -77 96q-58 117 -65 310t41 310q34 83 101 111q39 20 110 24h29q38 4 53 29q5 17 5 48h-817q0 -35 4 -48q15 -25 53 -29h29
q72 -5 111 -24q67 -28 101 -111q48 -114 40 -310t-64 -310q-28 -52 -77 -96q-28 -28 -87 -70q-55 -39 -81 -65q-43 -43 -58 -91q-20 -68 -5 -197q7 -60 43 -231q33 -152 34 -158q15 -116 0 -193q-8 -44 -43 -115zM818 202q0 144 -34 308h471q-24 -164 -24 -308h-413z" />
</svg>