<svg xmlns="http://www.w3.org/2000/svg" xmlns:xlink="http://www.w3.org/1999/xlink" version="1.1" viewBox="-10 0 2068 2048">
   <path fill="currentColor"
d="M1936 1424q-224 0 -410 -69h-38q-42 0 -74 32l-252 250q-246 -129 -440 -322q-192 -192 -310 -430l250 -250q25 -20 32 -54q6 -32 -10 -58q-60 -210 -60 -411q0 -42 -35 -77t-77 -35h-400q-42 0 -77 35t-35 77q0 528 262 976q256 442 698 699q449 261 976 261
q42 0 78 -35q34 -34 34 -77v-400q0 -43 -34 -77q-36 -35 -78 -35zM230 229h170q11 120 54 294l-134 138q-74 -227 -90 -432zM1818 1819q-204 -17 -432 -91l140 -133q181 42 292 42v182zM1366 112q0 53 -32 85t-84 32q-50 0 -82 -32t-32 -82q0 -51 32 -83t82 -32q52 0 84 32
t32 80zM1706 112q0 53 -32 85t-82 32t-82 -32t-32 -82q0 -51 32 -83t82 -32t82 32t32 80zM2048 112q0 53 -32 85t-82 32q-52 0 -84 -32t-32 -82q0 -51 32 -83t84 -32q50 0 82 32t32 80zM1366 453q0 54 -32 86t-84 32q-50 0 -82 -32t-32 -83t32 -83t82 -32q52 0 84 32t32 80z
M1706 453q0 54 -32 86t-82 32t-82 -32t-32 -83t32 -83t82 -32t82 32t32 80zM2048 453q0 54 -32 86t-82 32q-52 0 -84 -32t-32 -83t32 -83t84 -32q50 0 82 32t32 80zM1366 795q0 53 -32 85t-84 32q-50 0 -82 -32t-32 -83q0 -50 32 -82t82 -32q52 0 84 32t32 80zM1706 795
q0 53 -32 85t-82 32t-82 -32t-32 -83q0 -50 32 -82t82 -32t82 32t32 80zM2048 795q0 53 -32 85t-82 32q-52 0 -84 -32t-32 -83q0 -50 32 -82t84 -32q50 0 82 32t32 80z" />
</svg>