<svg xmlns="http://www.w3.org/2000/svg" xmlns:xlink="http://www.w3.org/1999/xlink" version="1.1" viewBox="-10 0 2068 2048">
   <path fill="currentColor"
d="M716 770q44 0 73 29t29 72t-29 72t-72 29t-72 -29t-29 -72t29 -72t71 -29zM1332 770q42 0 71 29t29 72t-29 72t-72 29t-72 -29t-29 -72t29 -72t73 -29zM102 1586l100 -308h-100q-44 0 -74 -28q-28 -28 -28 -72v-616q0 -44 28 -72q30 -28 74 -28h1844q44 0 73 29t29 71
v616q0 42 -29 71t-73 29h-100l100 308h-206l-102 -308h-1230l-100 308h-206zM1124 664v412h722v-412h-722zM202 664v412h720v-412h-720z" />
</svg>