<svg xmlns="http://www.w3.org/2000/svg" xmlns:xlink="http://www.w3.org/1999/xlink" version="1.1" viewBox="-10 0 2058 2048">
   <path fill="currentColor"
d="M1304 2048h186v-187h-186v187zM1448 228l-136 135q126 74 198 201q72 126 72 275q0 147 -74 277q-72 128 -202 205t-282 77t-282 -77t-202 -205q-74 -130 -74 -277q0 -149 72 -275q72 -127 194 -205l-132 -131q-149 101 -236 262q-86 162 -86 349q0 201 100 371t272 271
q172 100 374 100t374 -100q171 -100 272 -271q100 -172 100 -371q0 -185 -88 -349q-86 -162 -234 -262zM1116 0h-184v931h184v-931zM932 2048h184v-187h-184v187zM556 2048h188v-187h-188v187z" />
</svg>