<svg xmlns="http://www.w3.org/2000/svg" xmlns:xlink="http://www.w3.org/1999/xlink" version="1.1" viewBox="-10 0 2068 2048">
   <path fill="currentColor"
d="M1218 1112v108q-51 44 -78 100q-30 59 -30 120v268l-86 110l-318 -396q-354 -444 -706 -884q217 -167 484 -260q262 -90 540 -90t540 90q267 93 484 260l-186 240q-87 -49 -186 -58l116 -140q-360 -214 -770 -214q-409 0 -766 214l170 210q285 -160 598 -160
q248 0 488 108q-131 42 -212 144q-82 104 -82 230zM1886 1332h-380v-220q0 -48 40 -82q40 -32 96 -32q54 0 92 32q38 34 38 82v46h114v-46q0 -89 -75.5 -153.5t-172.5 -64.5q-94 0 -168 64t-74 154v220q-42 0 -75 33t-33 75v308q0 46 33 79t75 33h482q47 0 80 -30
q36 -32 36 -74v-308q0 -47 -34 -82q-33 -34 -74 -34z" />
</svg>