<svg xmlns="http://www.w3.org/2000/svg" xmlns:xlink="http://www.w3.org/1999/xlink" version="1.1" viewBox="-10 0 2058 2048">
   <path fill="currentColor"
d="M1150 697q-42 0 -70 28t-28 70q0 44 28 73q28 30 70 30t70 -30q28 -29 28 -73q0 -42 -28 -70t-70 -28zM1150 697q-42 0 -70 28t-28 70q0 44 28 73q28 30 70 30t70 -30q28 -29 28 -73q0 -42 -28 -70t-70 -28zM1748 0h-1196q-84 0 -143 59t-59 138v907q57 -10 104 -10
q101 0 196 38q-88 -129 -100 -288q-13 -156 54 -299q66 -144 196 -236q132 -95 284 -108q156 -14 300 47q145 61 240 187q96 126 114 283q19 157 -36 302q-56 145 -182 243l-192 -239q-18 -37 -58 -49q-41 -12 -78 12l-84 51q-37 17 -50 59q-12 39 12 77l90 220
q-107 0 -212 -38q99 147 104 318q4 172 -84 318h780q84 0 142 -58q60 -59 60 -138v-1599q0 -79 -59 -138t-143 -59zM1406 1754l-246 -632l84 -51l420 533zM1150 898q42 0 70 -30q28 -29 28 -73q0 -42 -28 -70t-70 -28t-70 28t-28 70q0 44 28 73q28 30 70 30zM664 2048
l-210 -215l-216 215l-140 -140l216 -215l-216 -210l140 -141l216 211l210 -211l140 141l-210 210l210 215z" />
</svg>