<svg xmlns="http://www.w3.org/2000/svg" xmlns:xlink="http://www.w3.org/1999/xlink" version="1.1" viewBox="-10 0 2068 2048">
   <path fill="currentColor"
d="M1024 0q-278 0 -514 137q-235 136 -372 373q-138 236 -138 514v1024h2048v-1024q0 -278 -138 -514q-136 -236 -372 -373q-237 -137 -514 -137zM1380 524q-118 -82 -256 -106v-207q221 24 404 164zM668 524l-148 -149q183 -140 402 -164v207q-136 23 -254 106zM374 519
l150 149q-82 116 -106 255h-206q24 -222 162 -404zM408 1125v260h-206v-260h206zM202 1846v-260h206v260h-206zM1432 1846h-816v-822q0 -168 120 -288q120 -121 287 -121t288 121t121 288v822zM1524 668l148 -149q139 182 164 404h-206q-24 -138 -106 -255zM1638 1125h208
v260h-208v-260zM1638 1846v-260h208v260h-208z" />
</svg>