<svg xmlns="http://www.w3.org/2000/svg" xmlns:xlink="http://www.w3.org/1999/xlink" version="1.1" viewBox="-10 0 2058 2048">
   <path fill="currentColor"
d="M1544 976q106 -128 106 -291q0 -162 -96 -282q-97 -122 -244 -163v-240h-230v229h-224v-229h-228v229h-342v224h230v1142h-230v224h342v229h228v-229h224v229h230v-229q186 0 320 -134q132 -133 132 -320q0 -122 -58 -226q-60 -105 -160 -163zM738 453h460q90 0 157 67
t67 163q0 95 -67 162t-157 67h-460v-459zM1310 1595h-572v-459h572q94 0 161 67t67 162q0 96 -67 163t-161 67z" />
</svg>