<svg xmlns="http://www.w3.org/2000/svg" xmlns:xlink="http://www.w3.org/1999/xlink" version="1.1" viewBox="-10 0 2068 2048">
   <path fill="currentColor"
d="M1230 1024l-412 409l412 413v-317q231 -24 418 -96t294 -181q106 -109 106 -228t-106 -228q-107 -109 -294 -181t-418 -96v207q270 24 442 108q174 84 174 190t-174 190q-172 84 -442 108v-298zM202 1024q0 -106 172 -190q173 -84 444 -108v-207q-232 24 -420 96
q-186 72 -292 181q-106 108 -106 228q0 164 188 296q188 133 484 185l-72 -72l126 -121q-229 -33 -378 -113q-146 -80 -146 -175zM1124 0h-202v1125l202 -202v-923zM1124 2048v-101l-202 -207v308h202z" />
</svg>