<svg xmlns="http://www.w3.org/2000/svg" xmlns:xlink="http://www.w3.org/1999/xlink" version="1.1" viewBox="-10 0 2068 2048">
   <path fill="currentColor"
d="M876 36q233 0 438 59q201 58 318 159q118 101 118 220t-118 220q-117 101 -318 159t-438 58t-438 -58q-203 -59 -320 -159q-118 -101 -118 -220t118 -220q117 -100 320 -159q205 -59 438 -59zM0 691q0 117 118 218q117 100 320 159q201 58 438 58t438 -58t318 -159
q118 -101 118 -218v338l-112 -10q-210 0 -376 120q-166 119 -238 310l-148 5q-233 0 -438 -59t-320 -158q-118 -101 -118 -218v-328zM0 1239q0 117 118 218q115 99 320 158t438 59h108q0 172 80 318l-188 10q-233 0 -438 -59q-203 -59 -320 -159q-118 -101 -118 -217v-328z
M1530 2012l-302 -327l128 -128l174 174l394 -395l124 154z" />
</svg>