<svg xmlns="http://www.w3.org/2000/svg" xmlns:xlink="http://www.w3.org/1999/xlink" version="1.1" viewBox="-10 0 2068 2048">
   <path fill="currentColor"
d="M0 923h168q34 -92 114 -149q80 -58 180 -58q123 0 216 89q90 88 90 219q0 97 -56 178l114 163l312 -1163l366 524l82 -10q100 0 180 58q79 56 112 149h170v202h-170q-33 93 -112 149q-80 58 -180 58q-124 0 -216 -89q-92 -88 -92 -219q0 -97 58 -178l-116 -163l-312 1163
l-364 -524q-49 10 -82 10q-100 0 -180 -58q-80 -57 -114 -149h-168v-202zM1586 870q-62 0 -108 46q-46 45 -46 108t46 108q46 46 110 46t108 -46q44 -44 44 -108t-44 -108q-44 -46 -110 -46zM462 870q-67 0 -112 46q-42 44 -42 108t42 108q45 46 110 46q64 0 110 -46
t46 -108t-46 -108t-108 -46z" />
</svg>