<svg xmlns="http://www.w3.org/2000/svg" xmlns:xlink="http://www.w3.org/1999/xlink" version="1.1" viewBox="-10 0 2058 2048">
   <path fill="currentColor"
d="M1279 0q-43 0 -72 29t-29 72v308h-413q-82 0 -142 60t-60 146v1231q0 82 60 142t142 60h514q86 0 146 -60t60 -142v-1231q0 -57 -29 -103q-30 -48 -76 -75v-336q0 -43 -29 -72t-72 -29zM765 615h514v510h-514v-510zM765 1332h105v101h-105v-101zM971 1332h101v101h-101
v-101zM1178 1332h101v101h-101v-101zM765 1538h105v101h-105v-101zM971 1538h101v101h-101v-101zM1178 1538h101v101h-101v-101zM765 1740h105v106h-105v-106zM971 1740h101v106h-101v-106zM1178 1740h101v106h-101v-106z" />
</svg>