<svg xmlns="http://www.w3.org/2000/svg" xmlns:xlink="http://www.w3.org/1999/xlink" version="1.1" viewBox="-10 0 2058 2048">
   <path fill="currentColor"
d="M1466 1170v292h-294v192h294v293h192v-293h292v-192h-292v-292h-192zM976 0q-82 0 -139 57t-57 135v32q-211 60 -348 240q-136 181 -136 413v585l-198 192v101h910q-32 -98 -32 -197q0 -161 78 -294q78 -135 213 -213t295 -78q50 0 96 9v-105q0 -231 -138 -413
q-137 -180 -348 -240v-32q0 -78 -57 -135t-139 -57zM780 1851q0 82 56 139q58 58 140 58q50 0 92 -23q41 -23 68 -64q-53 -60 -82 -110h-274z" />
</svg>