<svg xmlns="http://www.w3.org/2000/svg" xmlns:xlink="http://www.w3.org/1999/xlink" version="1.1" viewBox="-10 0 2068 2048">
   <path fill="currentColor"
d="M1260 1238v-4q0 -66 46 -112q48 -46 112 -46q43 0 84 24q96 -24 176 -24q102 0 202 34q10 -59 10 -138q0 -89 -14 -158q-15 -33 -54 -44q-19 -10 -36 -10h-210v-102q0 -64 -56 -94q-22 -10 -48 -10h-212v-108q0 -65 -54 -90q-23 -14 -50 -14h-108v-212q0 -65 -48 -88
q-28 -14 -54 -14q-257 0 -474 128q-216 127 -344 344q-128 216 -128 472t128 472q129 218 344 346q217 128 474 128q71 0 136 -10q-34 -98 -34 -202q0 -138 58 -258q58 -123 154 -210zM370 1076q-70 0 -114 -44t-44 -112q0 -67 44 -112q46 -48 112 -48t112 48q46 46 46 112
q0 67 -46 112q-45 44 -110 44zM526 500q0 -65 46 -112q44 -46 110 -46q68 0 114 46t46 111t-46 111q-48 48 -114 48q-65 0 -110 -48q-46 -46 -46 -110zM842 1706q-70 0 -114 -44t-44 -112q0 -67 44 -112q46 -48 112 -48t113 47t47 113t-48 112q-45 44 -110 44zM892 1184
q-66 0 -112 -46q-46 -48 -46 -114q0 -65 46 -110q47 -46 114 -46q66 0 110 46q44 44 44 110q0 68 -44 114t-112 46zM2048 1524l-498 496l-290 -314l124 -118l166 168l374 -380z" />
</svg>