<svg xmlns="http://www.w3.org/2000/svg" xmlns:xlink="http://www.w3.org/1999/xlink" version="1.1" viewBox="-10 0 2058 2048">
   <path fill="currentColor"
d="M536 1851h196v197h-196v-197zM928 2048h192v-197h-192v197zM1316 2048h198v-197h-198v197zM1998 534q0 178 -106 357q-91 156 -288 357q-116 121 -438 411l-142 128l-142 -128q-322 -290 -438 -411q-195 -198 -288 -357q-106 -180 -106 -357q0 -145 72 -269
q71 -125 194 -195q122 -70 270 -70q131 0 242 54q114 56 196 147q83 -92 196 -147q111 -54 242 -54q148 0 270 70q123 70 194 195q72 124 72 269zM1806 534q0 -146 -98 -242t-246 -96q-115 0 -212 64q-99 66 -134 165h-184q-35 -100 -134 -165q-96 -64 -212 -64
q-147 0 -244 96q-100 97 -100 242q0 136 96 288q89 135 270 316q104 104 408 379l8 9l10 -9q303 -275 406 -379q179 -178 270 -316q96 -152 96 -288z" />
</svg>