<svg xmlns="http://www.w3.org/2000/svg" xmlns:xlink="http://www.w3.org/1999/xlink" version="1.1" viewBox="-10 0 2068 2048">
   <path fill="currentColor"
d="M684 0l-640 219q-44 11 -44 53v1717q0 27 16 43t44 16l16 -5l608 -235l682 240l640 -219q42 -11 42 -53v-1717q0 -27 -16 -43t-42 -16l-16 5l-608 235zM572 277v1334l-342 133v-1349zM794 283l460 160v1322l-460 -160v-1322zM1818 309v1344l-340 118v-1334zM508 373
l-214 80v246l214 -80v-246zM508 688l-214 75v245l214 -75v-245zM508 1003l-214 74v246l214 -75v-245zM508 1312l-214 80v245l214 -80v-245z" />
</svg>