<svg xmlns="http://www.w3.org/2000/svg" xmlns:xlink="http://www.w3.org/1999/xlink" version="1.1" viewBox="-10 0 2068 2048">
   <path fill="currentColor"
d="M1582 279h-466v837h-1116v375h188q0 114 82 196t196 82t196 -82q84 -83 84 -196h510q0 113 82 196q82 82 196 82t196 -82t82 -196h236v-654zM568 1586q-40 44 -102 44q-61 0 -100 -41q-38 -42 -38 -98t39 -98t99 -42q62 0 101 42t39 98t-38 95zM1634 1586q-44 44 -100 44
t-98 -41q-42 -42 -42 -98t42 -98t98 -42t98 42q42 41 42 98q0 56 -40 95zM1304 837v-370h190l310 370h-500z" />
</svg>