<svg xmlns="http://www.w3.org/2000/svg" xmlns:xlink="http://www.w3.org/1999/xlink" version="1.1" viewBox="-10 0 2068 2048">
   <path fill="currentColor"
d="M1860 745h-186v-187h-184v187h-186v188h186v183h184v-183h186v558h-1302v-1303h1302v557zM1860 0h-1302q-74 0 -128 55q-54 54 -54 133v1303q0 74 54 128q54 55 128 55h1302q78 0 134 -55q54 -54 54 -128v-1303q0 -79 -54 -133q-56 -55 -134 -55zM934 745v-91h90v91h-90z
M1212 1024v-370q0 -79 -54 -133t-134 -54h-90q-80 0 -134 54q-54 55 -54 133v91q0 78 55 133t133 55h90v91h-278v188h278q78 0 134 -55q54 -54 54 -133zM188 375h-188v1486q0 78 56 133q54 54 132 54h1486v-187h-1486v-1486z" />
</svg>