<svg xmlns="http://www.w3.org/2000/svg" xmlns:xlink="http://www.w3.org/1999/xlink" version="1.1" viewBox="-10 0 2068 2048">
   <path fill="currentColor"
d="M1046 24q-360 0 -648 212q-290 213 -398 548l246 84q84 -255 304 -420q217 -162 496 -162q307 0 542 198l-276 276h736v-736l-272 272q-150 -126 -338 -200q-184 -72 -392 -72zM1836 1184v632q0 84 -62 146t-146 62h-212q-88 0 -150 -62t-62 -146v-632q0 -88 62 -150
t150 -62h212q84 0 146 62t62 150zM1416 1184v632h212v-632h-212zM996 1816q0 84 -62 146t-150 62h-418v-208h418v-212h-212v-212h212v-208h-418v-212h418q88 0 150 62t62 150v158q0 64 -47 111t-111 47q66 0 112 44q46 46 46 114v158z" />
</svg>