<svg xmlns="http://www.w3.org/2000/svg" xmlns:xlink="http://www.w3.org/1999/xlink" version="1.1" viewBox="-10 0 2063 2048">
   <path fill="currentColor"
d="M2043 1925l-1911 -1925l-127 127l468 465q-342 443 -264 1265q215 18 314 18q605 0 960 -273l446 446zM523 1679h-127q-32 -620 214 -951l154 155q-82 127 -132 282q-32 114 -45 228l-9 95q131 -266 314 -478l445 446q-299 223 -814 223zM869 496l-146 -146
q331 -223 846 -223q200 0 342 28l13 113q14 146 9 292q-4 203 -50 382q-54 229 -168 401l-146 -146q119 -202 155 -473q23 -168 9 -392q-45 -9 -164 -9q-431 0 -700 173zM1142 769l-118 -118q200 -137 527 -137l-59 23q-60 28 -145 77q-108 71 -205 155z" />
</svg>