<svg xmlns="http://www.w3.org/2000/svg" xmlns:xlink="http://www.w3.org/1999/xlink" version="1.1" viewBox="-10 0 2068 2048">
   <path fill="currentColor"
d="M1508 1188h216v322h324v212h-324v324h-216v-324h-324v-212h324v-322zM862 2q234 0 432 58q202 60 314 156q116 100 116 217.5t-116 216.5q-114 99 -314 158q-198 58 -431.5 58t-430.5 -58q-201 -59 -316 -158q-116 -99 -116 -216.5t116 -217.5q113 -96 316 -156
q197 -58 430 -58zM0 648q0 115 116 214q113 97 316 156q197 58 430.5 58t431.5 -58q202 -59 314 -156q116 -99 116 -214v334l-110 -12q-207 0 -372 120q-163 118 -234 304l-146 6q-233 0 -430 -58q-203 -60 -316 -156q-116 -100 -116 -216v-322zM0 1188q0 115 116 214
q113 97 316 156q197 58 430 58h106q0 168 80 314l-186 10q-233 0 -430 -58q-203 -60 -316 -156q-116 -100 -116 -216v-322z" />
</svg>