<svg xmlns="http://www.w3.org/2000/svg" xmlns:xlink="http://www.w3.org/1999/xlink" version="1.1" viewBox="-10 0 2068 2048">
   <path fill="currentColor"
d="M1240 865q39 0 50 35q-89 74 -142 177h-500v-162q0 -19 16 -35q14 -15 40 -15h536zM1942 647h-1942v-647h1942v647zM1724 218h-1506v212h1506v-212zM324 1725v-971h-216v1188h1208q-76 -110 -128 -217h-864zM2048 1350q0 172 -188 455q-101 149 -186 243l-102 -116
q-114 -152 -182 -278q-96 -182 -96 -304q0 -156 112 -268q112 -111 266 -111t265 111t111 268zM1800 1360q0 -50 -40 -91q-40 -40 -88 -40t-90 38q-40 37 -40 91q0 53 38 91t93 38t97 -41q41 -41 30 -86z" />
</svg>