<svg xmlns="http://www.w3.org/2000/svg" xmlns:xlink="http://www.w3.org/1999/xlink" version="1.1" viewBox="-10 0 2058 2048">
   <path fill="currentColor"
d="M320 788v556q0 193 94 354q94 162 256 256q161 94 354 94t354 -94q162 -94 256 -256q94 -161 94 -354v-852q0 -44 -32 -76t-76 -32t-74 32t-30 76v532h-88v-788q0 -44 -30 -76t-74 -32t-76 32t-32 76v704h-84v-832q0 -44 -32 -76t-76 -32t-76 32t-32 76v832h-84v-664
q0 -44 -32 -74q-31 -30 -76 -30q-44 0 -74 30t-30 74v920q124 16 210 114t86 226h-84q0 -104 -76 -180t-180 -76h-44v-492q0 -44 -30 -74t-74 -30t-76 30t-32 74z" />
</svg>