<svg xmlns="http://www.w3.org/2000/svg" xmlns:xlink="http://www.w3.org/1999/xlink" version="1.1" viewBox="-10 0 2058 2048">
   <path fill="currentColor"
d="M1970 1216q-43 -86 -120 -125q-52 -32 -106 -48q39 -124 -62 -231q-48 -52 -111 -81q-46 -15 -48 -15q43 -87 24 -173q-24 -97 -110 -149q-62 -38 -188 -58l-5 -4q-168 -29 -221 -101q-28 -43 -48 -164q-5 -39 -9 -48q-9 -19 -29 -19q-27 0 -79 34q-49 32 -118 110
q-75 90 -106 173q-48 124 -19 241q-59 9 -115 33q-54 25 -106 87q-63 86 -67 187q-5 59 9 135v29q-56 16 -96 38h-5q-21 8 -57 34q-38 27 -44 38q-53 57 -74 142q-22 89 -15 176q7 91 51 163q51 105 115 168q101 101 279 164q131 44 322 77q126 19 255 19q258 0 478 -89
q218 -88 348 -248q79 -99 99 -187q22 -94 7 -192q-9 -76 -29 -116zM1417 957q43 0 72 33q30 35 27 75q-3 42 -34 70q-32 29 -77 26q-46 -3 -72 -34q-27 -31 -24 -72q3 -42 31 -70t68 -28h9zM1845 1490h-5q-15 62 -67 125q-102 126 -288 202q-189 77 -418 77q-119 0 -231 -19
q-379 -57 -519 -197q-42 -47 -87 -130q-23 -47 -31 -108t7 -123q15 -43 44 -77q14 -14 38 -29l24 -9q19 -11 43 -19q32 94 118 158q84 63 180 63h24q134 -9 219 -118q83 -107 74 -240q-9 -132 -98 -224q-89 -91 -214 -96l-33 5q-40 0 -87 19l19 -19q40 -15 82 -24l159 -29
l-34 -159q-15 -67 14 -149q21 -55 82 -130q16 50 43 82q87 125 313 164h4q102 20 140 43q28 15 36 48q8 34 -7 67l-58 92q-97 24 -166 105q-70 82 -79 188q-15 138 65 247t214 128h33q114 0 202 -77q62 -52 96 -135h14q24 5 58 29l10 10q34 9 53 48q10 26 14 77q9 71 0 134z
M557 1072q-5 -44 22 -77q28 -34 70 -43h9q44 0 72 26q29 28 34 68q5 41 -22 74q-29 35 -69 39q-45 5 -77 -22q-35 -28 -39 -65zM668 1452q18 -4 62 5l19 4q137 29 274 29t274 -29l19 -4q43 -5 58 -5q31 -5 53 9q33 24 14 99q-20 76 -76 132q-140 144 -342 144t-341 -144
q-58 -58 -77 -132t15 -99q24 -9 48 -9z" />
</svg>