<svg xmlns="http://www.w3.org/2000/svg" xmlns:xlink="http://www.w3.org/1999/xlink" version="1.1" viewBox="-10 0 2068 2048">
   <path fill="currentColor"
d="M452 173q14 -9 20 -14q250 -159 552 -159q288 0 528 144l4 5q38 23 54 43q-54 -58 -154 -43q-85 15 -196 72q-83 47 -164 106l-72 53q-240 -182 -394 -226q-55 -14 -110 -5q-40 5 -64 24h-4zM1778 327q-14 -9 -14 -15q-53 -53 -126 -48q-66 19 -148 68q-145 81 -284 211
l72 72q98 105 154 173q101 124 168 231q126 208 168 341q53 174 14 356q128 -148 196 -319q70 -178 70 -373q0 -194 -70 -377q-69 -179 -200 -320zM1408 1120q-150 -167 -298 -308l-86 -86l-110 110q-73 75 -236 246q-135 140 -236 283q-164 227 -172 351l-6 -29
q-10 -43 -10 -91q0 -71 20 -154q24 -105 72 -226q63 -154 236 -380q146 -199 254 -298l-72 -67q-88 -78 -168 -130l-4 -5q-115 -62 -202 -67q-43 0 -82 29q-17 8 -34 24q-130 141 -202 320q-72 180 -72 382q0 200 78 392q75 189 220.5 334t333.5 221q192 77 392 77
q220 0 418 -89q197 -89 340 -243l-8 -43q-21 -60 -48 -115q-40 -80 -102 -173q-63 -85 -216 -265z" />
</svg>