<svg xmlns="http://www.w3.org/2000/svg" xmlns:xlink="http://www.w3.org/1999/xlink" version="1.1" viewBox="-10 0 2068 2048">
   <path fill="currentColor"
d="M690 320l-196 -196h1248q82 0 139 57t57 139v1248l-196 -196v-1052h-1052zM1594 1225q52 -110 52 -224q0 -160 -78 -295q-78 -133 -214 -212q-134 -78 -294 -78q-116 0 -224 50l152 151q35 -4 72 -4q160 0 274 114t114 274q0 37 -4 73zM2048 1925l-124 123l-174 -169
h-1370q-82 0 -140 -57q-58 -58 -58 -140v-1371l-182 -187l124 -124zM672 1001q0 160 114 275q114 114 274 114q84 0 164 -37l-516 -516q-36 80 -36 164zM1558 1682l-188 -187q-140 91 -305.5 91t-298.5 -77q-134 -77 -212 -213q-78 -135 -78 -299q0 -167 90 -307l-186 -187
v1179h1178z" />
</svg>