<svg xmlns="http://www.w3.org/2000/svg" xmlns:xlink="http://www.w3.org/1999/xlink" version="1.1" viewBox="-10 0 2058 2048">
   <path fill="currentColor"
d="M1018 0q-186 0 -316 133t-136 318q-7 194 -22 285q-27 155 -84 240q193 118 394 149q107 21 170 11h80q101 -6 202 -32q148 -41 284 -128q-123 -197 -112 -523q0 -187 -133 -320t-321 -133h-6zM668 1173q-246 54 -400 168q-156 114 -156 254v453h912l-340 -453h-284z
M1024 2048l202 -816l-58 11q-71 10 -143.5 10t-144.5 -10l-58 -11zM1024 2048h912v-453q0 -140 -154.5 -254t-399.5 -168l266 422h-282z" />
</svg>