<svg xmlns="http://www.w3.org/2000/svg" xmlns:xlink="http://www.w3.org/1999/xlink" version="1.1" viewBox="-10 0 2058 2048">
   <path fill="currentColor"
d="M427 57q57 -57 131 -57h932q74 0 128 57q55 58 55 131v1673q0 73 -55 131q-53 56 -128 56h-932q-76 0 -129 -56q-54 -57 -54 -131v-1673q0 -75 52 -131zM654 188q-44 0 -70 26t-26 65v1490q0 40 26 66t70 26h740q44 0 70 -26t26 -66v-1490q0 -39 -26 -65t-70 -26h-740z
M654 1491q0 -45 24 -70q24 -26 67 -26h558q43 0 67 26q24 25 24 70v183q0 44 -24 69q-24 26 -67 26h-558q-43 0 -67 -26q-24 -25 -24 -69v-183z" />
</svg>