<svg xmlns="http://www.w3.org/2000/svg" xmlns:xlink="http://www.w3.org/1999/xlink" version="1.1" viewBox="-10 0 2068 2048">
   <path fill="currentColor"
d="M746 327h558l-280 279zM886 1225q-48 53 -48 126q0 75 54 129t133 54t133 -54t54 -133t-56 -131l130 -131q108 109 108 264t-108 264q-108 108 -261 108t-261 -108q-110 -109 -110 -262t100 -257v-4l658 -654q110 -109 264 -109t264 109q108 108 108 261q0 154 -108 262
q-110 109 -264 109t-264 -109l130 -131q53 57 132 57q78 0 132 -55q54 -54 54 -133q0 -78 -54 -132q-54 -55 -132 -55q-79 0 -132 57zM506 567q-52 -57 -130 -57t-134 55q-54 54 -54 132q0 79 54 133q56 55 134 55t130 -57l130 131q-108 109 -262 109q-156 0 -265 -109
t-109 -262q0 -152 109 -261t265 -109q154 0 262 109l258 257l-130 131z" />
</svg>