<svg xmlns="http://www.w3.org/2000/svg" xmlns:xlink="http://www.w3.org/1999/xlink" version="1.1" viewBox="-10 0 2068 2048">
   <path fill="currentColor"
d="M886 1367l-60 -170h-274l-60 170h-166l274 -774h174l274 774h-162zM1890 593l-100 544l-130 -544h-136l-130 544l-104 -544h-64q-96 -117 -238 -188q-140 -70 -298 -70q-191 0 -346 92q-157 93 -250 252q-94 159 -94 345t94 345q93 159 250 252q155 92 346 92
q199 0 362 -104q167 -106 250 -279l8 37h154l128 -524l130 524h148l178 -774h-158zM588 1080h198l-96 -314z" />
</svg>