<svg xmlns="http://www.w3.org/2000/svg" xmlns:xlink="http://www.w3.org/1999/xlink" version="1.1" viewBox="-10 0 2068 2048">
   <path fill="currentColor"
d="M920 94q54 0 106 35q51 35 68 89l492 1171q14 44 14 78q-5 54 -38 104q-32 49 -82 71l-724 298q-33 14 -78 14q-56 0 -104.5 -32t-71.5 -87l-486 -1171q-31 -74 0.5 -150t105.5 -108l720 -298q44 -14 78 -14zM1260 94h142q82 0 140 58q58 57 58 140v620zM1792 246l134 55
q74 32 106 105q31 74 0 147l-240 574v-881zM920 287l-724 303l486 1176l724 -303zM672 710l312 238l-40 391l-318 -235z" />
</svg>