<svg xmlns="http://www.w3.org/2000/svg" xmlns:xlink="http://www.w3.org/1999/xlink" version="1.1" viewBox="-10 0 2068 2048">
   <path fill="currentColor"
d="M708 12q194 0 356 95q164 95 258 256q94 163 94 357q0 176 -80 330q-82 155 -224 249v233q0 37 -28 69q-29 31 -72 31h-608q-42 0 -70 -31q-30 -32 -30 -69v-233q-141 -94 -222 -249q-82 -154 -82 -330q0 -194 96 -357q93 -161 256 -256t356 -95zM404 1936v-100h608v100
q0 43 -30 71q-33 29 -70 29h-408q-36 0 -68 -29q-32 -28 -32 -71zM708 211q-136 0 -254 69q-116 69 -184 185q-70 117 -70 255q0 153 85.5 278t218.5 187v243h408v-243q134 -62 219 -187t85 -278q0 -138 -68 -255q-69 -116 -186 -185t-254 -69zM1720 1123h-200l-328 913h196
l70 -200h324l70 200h196zM1502 1698l118 -370l120 370h-238z" />
</svg>