<svg xmlns="http://www.w3.org/2000/svg" xmlns:xlink="http://www.w3.org/1999/xlink" version="1.1" viewBox="-10 0 2058 2048">
   <path fill="currentColor"
d="M202 0q-44 0 -72 29q-28 28 -28 72t28 72q28 29 72 29q130 0 218 91q90 92 90 217v875q0 177 90 331q92 154 244 243t333.5 89t334.5 -89q151 -89 242 -243q92 -154 92 -331v-260q42 0 71 -29t29 -72t-29 -72t-71 -29h-616q-42 0 -74 29q-32 28 -32 72t32 72q32 29 74 29
v207q0 44 -30 72q-33 29 -75.5 29t-71.5 -29t-29 -72v-409q43 0 72 -31q28 -32 28 -75t-29 -72t-71 -29v-101q43 0 72 -31q28 -32 28 -74q0 -44 -28 -73q-28 -28 -72 -28v-53q0 -149 -106 -253q-105 -103 -254 -103h-462z" />
</svg>