<svg xmlns="http://www.w3.org/2000/svg" xmlns:xlink="http://www.w3.org/1999/xlink" version="1.1" viewBox="-10 0 2068 2048">
   <path fill="currentColor"
d="M1124 284q-144 0 -230 230q-76 210 -76 510t76 510q86 230 230 230q218 0 424 -91q219 -91 354 -255q146 -174 146 -394t-146 -394q-135 -164 -354 -255q-206 -91 -424 -91zM1134 1558q-39 -40 -68 -169q-42 -157 -42 -365t42 -365q29 -129 68 -169q157 4 318 68
q174 68 274 178q120 130 120 288t-120 288q-100 110 -274 178q-161 64 -318 68zM0 308h768l-18 28q-39 66 -44 116q-6 12 -10 29q-4 20 -8 29h-688v-202zM616 923h-616v-207h634q-6 47 -10 101q-4 66 -8 106zM688 1538q24 107 90 202h-768v-202h678zM634 1332h-634v-207h616
q4 40 8 106q4 54 10 101z" />
</svg>