<svg xmlns="http://www.w3.org/2000/svg" xmlns:xlink="http://www.w3.org/1999/xlink" version="1.1" viewBox="-10 0 2068 2048">
   <path fill="currentColor"
d="M2048 1933l-1920 -1933l-128 128l266 265q-78 91 -78 224v1362h1462v-201l274 270zM832 955l274 274q-55 69 -136 69q-84 0 -141 -57t-57 -140q0 -68 60 -146zM1454 1581v206h-1070v-1170q0 -32 18 -92l294 293q-56 56 -88 130q-32 76 -32 153q0 165 114 279t280 114
q76 0 152 -32t130 -86zM1554 1179q5 -57 54 -137q33 -54 92 -128l46 -55l50 59q60 74 96 138q50 85 50 146q0 74 -50 130q-51 58 -124 62zM792 420l-192 -196h662q160 0 274 114q114 115 114 279v96h-196v-96q0 -83 -57 -140t-135 -57h-470z" />
</svg>