<svg xmlns="http://www.w3.org/2000/svg" xmlns:xlink="http://www.w3.org/1999/xlink" version="1.1" viewBox="-10 0 2058 2048">
   <path fill="currentColor"
d="M1024 817q168 0 288 -120q121 -121 121 -288q0 -168 -121 -289q-120 -120 -288 -120t-288 120t-120 289q0 168 120 288t288 120zM1024 202q87 0 147 60t60 147q0 86 -60 146t-147 60q-86 0 -146 -60t-60 -146q0 -87 60 -147t146 -60zM1678 1082q-312 -159 -654 -159
q-341 0 -653 159q-80 41 -123 113q-46 77 -46 161v692h207v-692q0 -63 53 -92q268 -139 562 -139q116 0 216 24l-158 336h-289q-114 0 -199 82q-84 81 -84 200q0 118 84 199q85 82 199 82h846q87 0 147 -60t60 -142v-490q0 -84 -46 -161q-44 -73 -122 -113zM914 1846h-121
q-34 0 -55 -24t-21 -55q0 -32 21 -53q22 -22 55 -22h193zM1639 1846h-495l298 -644q72 27 144 62q53 29 53 92v490z" />
</svg>