<svg xmlns="http://www.w3.org/2000/svg" xmlns:xlink="http://www.w3.org/1999/xlink" version="1.1" viewBox="-10 0 2058 2048">
   <path fill="currentColor"
d="M1486 2048q115 0 204 -77t101 -195q12 -119 -55 -214t-182 -122t-217 31q-100 57 -139 168h-519l202 -312q91 9 182 0l101 158q70 -85 169 -125l-63 -91q192 -92 305 -267q113 -176 113 -387h-1432q0 211 113 387q112 175 310 267l-408 620q-19 38 -10 77q8 38 43 60
t75 15q41 -8 65 -36l100 -159h654q28 92 108 147q78 55 180 55zM1486 1639q43 0 72 29t29 72q0 44 -31 75t-72 31t-72 -31t-31 -75t31 -72q32 -29 74 -29zM501 817h942q-64 141 -190 224q-128 84 -281.5 84t-280.5 -84q-127 -83 -190 -224zM708 510h101v-5q14 -94 5 -140
q-19 -64 -97 -158l-4 -5q-37 -48 -44 -72q-16 -48 0 -130h-101q-20 81 5 163q24 84 87 140l5 5q34 34 43 62q19 58 0 140zM963 510h100v-5q14 -94 5 -140q-19 -66 -96 -158h-5q-35 -50 -43 -77q-15 -43 0 -130h-101q-20 81 5 163q25 85 86 140l5 5q35 36 44 62q19 58 0 140z
M1217 510h106v-5q15 -96 0 -140q-15 -66 -96 -158l-5 -5q-35 -46 -43 -72q-10 -51 5 -130h-101q-20 82 4 163q24 84 87 140l5 5q26 31 43 62q19 57 -5 140z" />
</svg>