<svg xmlns="http://www.w3.org/2000/svg" xmlns:xlink="http://www.w3.org/1999/xlink" version="1.1" viewBox="-10 0 2058 2048">
   <path fill="currentColor"
d="M1876 1207q-103 -37 -196 -37q0 -182 -92 -340q-91 -158 -246 -249q-157 -92 -342 -92q-187 0 -344 92q-155 91 -246 249q-92 157 -92 343q0 185 92 342q92 159 246 250q156 91 344 91q40 0 104 -9q14 94 60 187q-86 14 -164 14q-238 0 -440 -117q-202 -118 -320 -320
q-118 -205 -118 -441q0 -237 118 -439q119 -201 320 -320q201 -118 440 -118q152 0 292 52q142 53 256 144l136 -142q65 56 138 138l-138 141q91 112 142 254q50 137 50 290v37zM904 1271h192v-585h-192v585zM1292 0h-586v197h586v-197zM1744 1513v489h182v-489h-182z
M1438 2002h182v-489h-182v489z" />
</svg>