<svg xmlns="http://www.w3.org/2000/svg" xmlns:xlink="http://www.w3.org/1999/xlink" version="1.1" viewBox="-10 0 2068 2048">
   <path fill="currentColor"
d="M764 0q205 0 378 101q176 102 278 277q100 174 100 385q0 280 -180 494l32 33h94l582 582l-176 176l-582 -582v-94l-32 -33q-216 182 -494 182q-209 0 -384 -102q-176 -102 -278 -277q-102 -176 -102 -382t102 -382q102 -175 278 -277q173 -101 384 -101zM764 236
q-220 0 -374 153q-154 154 -154 374q0 219 154 373t373 154t373 -154t154 -373q0 -220 -154 -374q-152 -153 -372 -153z" />
</svg>