<svg xmlns="http://www.w3.org/2000/svg" xmlns:xlink="http://www.w3.org/1999/xlink" version="1.1" viewBox="-10 0 2068 2048">
   <path fill="currentColor"
d="M1228 978q-26 35 -54 96h-560v-154q0 -18 15 -33t37 -15h508q24 0 40 16q14 14 14 32v58zM1842 666h-1842v-614h1842v614zM1636 258h-1430v202h1430v-202zM1022 1688h-714v-920h-208v1126h926q-4 -10 -4 -28v-178zM2048 1516v360q0 47 -42 84q-40 36 -92 36h-562
q-48 0 -86 -40q-38 -38 -38 -90v-360q0 -48 38 -86t86 -38v-154q0 -106 86 -180t198 -74q110 0 198 74q88 75 88 180v154q47 0 86 40q40 41 40 94zM1788 1228q0 -58 -42 -94q-44 -36 -108 -36q-66 0 -110 36q-46 37 -46 94v154h306v-154z" />
</svg>