<svg xmlns="http://www.w3.org/2000/svg" xmlns:xlink="http://www.w3.org/1999/xlink" version="1.1" viewBox="-10 0 2058 2048">
   <path fill="currentColor"
d="M1946 2048h-1844v-202h1844v202zM1740 1740h-1432l624 -1682q30 -58 92 -58l614 308h-418zM818 562l110 49l42 105l48 -105l106 -49l-106 -48l-48 -105l-42 105zM1124 1332l-210 -97l-96 -211l-98 211l-210 97l210 96l98 211l96 -211zM1226 1019l106 -48l-106 -48
l-48 -106l-48 106l-106 48l106 48l48 106zM1432 1433l106 -48l-106 -49l-48 -105l-48 105l-106 49l106 48l48 105z" />
</svg>