<svg xmlns="http://www.w3.org/2000/svg" xmlns:xlink="http://www.w3.org/1999/xlink" version="1.1" viewBox="-10 0 2068 2048">
   <path fill="currentColor"
d="M2000 716h-516l194 -192q-117 -150 -286 -236q-170 -86 -368 -86q-223 0 -411.5 110t-300.5 301q-110 191 -110 411q0 278 168 495q96 -111 266 -175q173 -65 387.5 -65t386.5 65t268 175q168 -216 168 -495h202q0 278 -138 514q-136 236 -372 373q-237 137 -514.5 137
t-513.5 -137q-235 -136 -372 -373q-138 -236 -138 -514t138 -514q137 -237 372 -373q236 -137 514 -137q235 0 444 101q210 101 354 279l178 -178v514zM1024 1846q287 0 514 -183q-53 -76 -192 -127q-140 -51 -322.5 -51t-321.5 51q-140 51 -192 127q226 183 514 183z
M1024 409q151 0 254 105q106 108 106 255q0 149 -106 253q-104 103 -254.5 103t-255.5 -103q-104 -103 -104 -253q0 -149 104 -255q104 -105 256 -105zM1024 615q-63 0 -108 44q-46 44 -46 108t46 110t108 46t108 -46t46 -110t-46 -108t-108 -44z" />
</svg>