<svg xmlns="http://www.w3.org/2000/svg" xmlns:xlink="http://www.w3.org/1999/xlink" version="1.1" viewBox="-10 0 2058 2048">
   <path fill="currentColor"
d="M1513 1462h-197v586h-196v-586h-206l-151 188l233 228l-137 138l-233 -229q-50 -50 -55 -126q-4 -74 41 -135l51 -64h-128l196 -393v-292q-92 74 -144 173q-52 100 -52 220h-192q0 -139 50 -263q52 -128 146 -222q95 -95 222 -148t263 -53q96 0 185 -36q86 -35 157 -106
q69 -69 108 -157q39 -89 39 -185h192q0 195 -106 363q-105 167 -283 249v457zM1220 192q0 59 -34 109q-34 51 -89 73q-58 23 -112 12q-58 -12 -98 -55q-41 -44 -53 -101t9 -112t71 -86q52 -32 110 -32q82 0 139 57t57 135z" />
</svg>