<svg xmlns="http://www.w3.org/2000/svg" xmlns:xlink="http://www.w3.org/1999/xlink" version="1.1" viewBox="-10 0 2058 2048">
   <path fill="currentColor"
d="M1612 1247q173 0 281 121l117 -121v403h-398l178 -183q-84 -70 -178 -70q-104 0 -176 72q-73 73 -73 178t73 178t176 73q117 0 201 -98h169q-47 113 -145 180q-100 68 -225 68q-164 0 -281 -117t-117 -284q0 -166 117 -283t281 -117zM961 1650q0 -147 70 -300h-19
q-140 0 -246 -106q-105 -105 -105 -246t105 -246t246 -105t246 105t105 246q0 43 -9 52q133 -52 258 -52q45 0 150 19v-19q0 -66 -10 -98l211 -160q22 -27 9 -60l-201 -352q-5 -18 -19 -23q-15 -5 -42 -5l-248 98q-51 -42 -169 -98l-42 -272q9 -4 -7 -16q-17 -12 -30 -12
h-403q-15 0 -31 12t-16 25l-42 272q-35 8 -103 52l-66 37l-239 -98q-27 0 -42 5t-28 23l-201 352q-14 24 18 60l211 160q0 11 -5 49q-4 31 -4 49q0 70 9 99l-211 173q-23 23 -9 56l201 352q4 13 19 16q9 2 42 2l248 -98q51 42 169 98l42 272q0 14 14 26q13 12 33 12h253
q-112 -167 -112 -356z" />
</svg>