<svg xmlns="http://www.w3.org/2000/svg" xmlns:xlink="http://www.w3.org/1999/xlink" version="1.1" viewBox="-10 0 2068 2048">
   <path fill="currentColor"
d="M912 571q188 0 321 133t133 323q0 189 -134 322q-134 134 -322 134t-322 -134t-134 -322q0 -189 134 -323q132 -133 324 -133zM912 800q-96 0 -162 67q-66 66 -66 160t66 160t160 66t160 -66q66 -67 66 -160t-67 -160t-157 -67zM454 0h800q186 0 319 133t133 326v112
h-228v-112q0 -96 -67 -163t-157 -67h-800q-90 0 -157 67t-67 163v1365h1248v-229h228v453h-1706v-1589q0 -193 133 -326t321 -133zM1478 800q96 0 170 -37q39 -20 114 -78q72 -55 116 -77q74 -37 170 -37v229q-94 0 -170 32q-44 21 -116 79.5t-114 80.5q-77 32 -170 32v-224
zM1478 1253q96 0 170 -37q42 -22 114 -77q76 -58 116 -78q74 -37 170 -37v229q-94 0 -170 38q-44 22 -116 77.5t-114 76.5q-76 38 -170 38v-230z" />
</svg>