<svg xmlns="http://www.w3.org/2000/svg" xmlns:xlink="http://www.w3.org/1999/xlink" version="1.1" viewBox="-10 0 2068 2048">
   <path fill="currentColor"
d="M966 125l58 77l58 -77q44 -59 108 -91q66 -34 142 -34q128 0 217 89t89 219q0 54 -18 101h226q82 0 142 60t60 146v1231q0 82 -60 142t-142 60h-1644q-82 0 -142 -60t-60 -142v-1231q0 -86 60 -146t142 -60h226q-20 -47 -20 -101q0 -130 89 -219t219 -89q75 0 142 34
q63 32 108 91zM202 615v1231h720q0 -42 29 -74t72.5 -32t72 32t28.5 74h722v-1231h-524l216 298l-164 121l-308 -419h-86l-308 419l-162 -121l216 -298h-524zM716 202q-43 0 -72 31q-28 32 -28 75t29 72t72 29t72 -29t29 -72t-30 -75q-28 -31 -72 -31zM1332 202
q-44 0 -72 31q-30 32 -30 75t29 72t72 29t72 -29t29 -72t-28 -75q-29 -31 -72 -31zM1024 1433q43 0 72 31q28 32 28 74q0 43 -29 72t-72 29t-72 -29t-29 -72q0 -42 30 -74q28 -31 72 -31zM1024 1125q43 0 72 31q28 32 28 75t-29 72t-72 29t-72 -29t-29 -72t30 -75
q28 -31 72 -31zM1024 817q43 0 72 31q28 32 28 75t-29 72t-72 29t-72 -29t-29 -72t30 -75q28 -31 72 -31z" />
</svg>