<svg xmlns="http://www.w3.org/2000/svg" xmlns:xlink="http://www.w3.org/1999/xlink" version="1.1" viewBox="-10 0 2068 2048">
   <path fill="currentColor"
d="M207 1638q44 117 110 192q92 101 244 153q181 63 465 63q238 0 374 -29q211 -43 341 -173q80 -80 124 -148q82 -122 125 -283q58 -215 58 -490q0 -417 -125 -590q-96 -129 -283 -129q-147 0 -220 29q-120 44 -187 177v5q-27 46 -82 74q-51 26 -110 17q-77 -9 -101 -38
q-14 -18 -14 -58v-408h-206v408q-5 130 85.5 221t220.5 86q67 0 91 106q10 70 10 201q0 154 -43 249q-49 108 -158 159q-181 91 -338 76q-158 -15 -214 -129q-29 -81 -110 -101q-81 -19 -146 41t-96 144q-32 85 -17 175v408h202v-408z" />
</svg>