<svg xmlns="http://www.w3.org/2000/svg" xmlns:xlink="http://www.w3.org/1999/xlink" version="1.1" viewBox="-10 0 2058 2048">
   <path fill="currentColor"
d="M1922 873l-896 1175l-900 -1175l10 -9q29 -30 68 -51l698 910l-210 -654l64 -114l270 837l266 -837l68 114l-210 654l694 -910h4q46 27 64 46zM1026 192q177 0 338 80q158 78 270 217q-147 18 -270 105q-152 -110 -338 -110t-342 114q-118 -91 -270 -109
q110 -138 270 -217q161 -80 342 -80zM1026 0q-236 0 -438 102q-208 105 -344 286q-137 185 -178 407q114 -114 280 -114q104 0 196 57q91 57 142 148q50 -94 142 -150q90 -55 200.5 -55t197.5 55q90 56 144 150q44 -93 138 -150q90 -55 202 -55q164 0 274 109
q-40 -221 -180 -404q-137 -181 -340 -284q-201 -102 -436 -102z" />
</svg>