<svg xmlns="http://www.w3.org/2000/svg" xmlns:xlink="http://www.w3.org/1999/xlink" version="1.1" viewBox="-10 0 2068 2048">
   <path fill="currentColor"
d="M780 1964q122 -52 127 -175q0 -108 -80 -212q-59 -87 -155 -165q-66 -56 -179 -132q-145 -92 -236 -207l-5 -5q-34 -43 -42 -61q-14 -34 19 -43q47 -9 179 52l38 19q145 61 264 132l103 -170q-125 -78 -264 -136q-151 -66 -282 -85q-93 -14 -156 9q-75 33 -99 113
q-43 124 75 278q58 72 137 142q52 38 156 113q149 103 221 175v4q73 69 94 118q13 34 10 40q-5 7 -43 7q-82 0 -198 -56q-66 -31 -183 -109l-99 175q172 105 287 146q188 75 311 33zM1704 601l-566 571h-231v-231l571 -571zM2048 526q0 27 -66 89l-250 255l-89 -85l263 -259
l-61 -61l-66 66l-231 -231l217 -213q12 -18 40 -18q27 0 45 18l141 142q19 19 19 45q0 27 -19 40q-37 41 -40 66q-3 22 40 56l5 5q52 56 52 85z" />
</svg>