<svg xmlns="http://www.w3.org/2000/svg" xmlns:xlink="http://www.w3.org/1999/xlink" version="1.1" viewBox="-10 0 2068 2048">
   <path fill="currentColor"
d="M2048 1936q0 43 -34 77q-36 35 -78 35h-118v-229h230v117zM1366 2048v-229h228v229h-228zM912 2048v-229h224v229h-224zM454 2048v-229h230v229h-230zM112 2048q-42 0 -77 -35t-35 -77v-117h230v229h-118zM0 1365h230v230h-230v-230zM2048 1365v230h-230v-230h230z
M1318 571l-294 293l-294 -293l-158 160l292 293l-292 293l158 160l294 -293l294 293l160 -160l-294 -293l294 -293zM0 912h230v224h-230v-224zM2048 912v224h-230v-224h230zM0 453h230v230h-230v-230zM2048 453v230h-230v-230h230zM112 0h118v229h-230v-117q0 -42 35 -77
t77 -35zM1936 0q42 0 78 35q34 34 34 77v117h-230v-229h118zM1366 229v-229h228v229h-228zM912 229v-229h224v229h-224zM454 229v-229h230v229h-230z" />
</svg>