<svg xmlns="http://www.w3.org/2000/svg" xmlns:xlink="http://www.w3.org/1999/xlink" version="1.1" viewBox="-10 0 2058 2048">
   <path fill="currentColor"
d="M821 1740h307v308h-307v-308zM1027 0q264 9 437 173q159 155 171 385t-147 432q-49 59 -153 135q-105 85 -135 120q-46 55 -62 140q-10 53 -10 153h-307q0 -168 9 -235q15 -115 63 -183q28 -47 86 -96q38 -27 103 -70q86 -56 99 -65q120 -116 144 -247q24 -133 -55 -229
t-243 -105q-130 0 -219 89q-88 88 -88 218h-308q0 -166 82 -310q81 -142 223 -223q144 -82 310 -82z" />
</svg>