<svg xmlns="http://www.w3.org/2000/svg" xmlns:xlink="http://www.w3.org/1999/xlink" version="1.1" viewBox="-10 0 2058 2048">
   <path fill="currentColor"
d="M799 570q56 0 96 40t40 98t-40 95q-41 38 -98 38q-58 0 -96 -38t-38 -95t38 -98q37 -40 98 -40zM1249 1207q60 0 98 38t38 96q0 56 -38 97t-96 41q-56 0 -97 -41t-41 -97q0 -58 41 -96t95 -38zM697 1479l-127 -128l781 -781l128 127zM1627 196l55 348l319 162l-161 318
l161 319l-323 161l-55 349l-352 -55l-251 250l-251 -255l-348 60l-59 -353l-315 -161l162 -319l-162 -314l319 -162l55 -348l353 59l250 -255l251 251zM1759 786l-238 -123l-42 -263l-264 38l-191 -183l-191 183l-263 -38l-43 263l-238 123l119 238l-119 238l238 123l43 264
l263 -38l191 182l191 -182l264 38l42 -264l238 -123l-119 -238z" />
</svg>