<svg xmlns="http://www.w3.org/2000/svg" xmlns:xlink="http://www.w3.org/1999/xlink" version="1.1" viewBox="-10 0 2068 2048">
   <path fill="currentColor"
d="M230 0q-96 0 -163 67t-67 162v1590q0 95 67 162t163 67h1588q96 0 164 -67q66 -66 66 -162v-1590q0 -96 -66 -162q-68 -67 -164 -67h-1588zM938 256h172v128q68 0 119 51t51 120v282l-16 16l122 214q64 -106 64 -230h172q0 219 -144 390l228 394v171l-148 -85l-208 -368
q-150 96 -326 96t-326 -96l-206 368l-150 85v-171l442 -768l-16 -16v-282q0 -70 50 -120q52 -51 120 -51v-128zM1024 555q-47 0 -78 32q-28 30 -28 74q0 43 32 78t74 32q44 -3 74 -32q32 -30 32 -75t-32 -77t-74 -32zM912 976l-128 219q112 74 241 74t239 -74l-128 -219
q-48 48 -112 48t-112 -48z" />
</svg>