<svg xmlns="http://www.w3.org/2000/svg" xmlns:xlink="http://www.w3.org/1999/xlink" version="1.1" viewBox="-10 0 2068 2048">
   <path fill="currentColor"
d="M1364 148q-64 0 -108 44t-44 108t44 108t108 44q63 0 110 -44q46 -43 46 -108t-46 -108q-47 -44 -110 -44zM1060 392q-63 0 -104 44l-316 316q-44 44 -44 104q0 80 72 124l288 172v428h152v-556l-192 -140l200 -200l148 212h356v-152h-272l-164 -280q-20 -33 -54 -52
q-35 -20 -70 -20zM852 300h-596q-36 0 -60 -26t-24 -60t24 -60t60 -26h836q-33 50 -40 96q-112 4 -200 76zM428 1068q-117 0 -214 58q-98 58 -156 156q-58 97 -58 214t58 214q59 99 156 154q98 56 214 56t214 -56t154 -154t56 -214t-56 -214q-55 -97 -154 -156
q-97 -58 -214 -58zM428 1792q-123 0 -212 -86q-88 -85 -88 -210q0 -124 88 -212t212 -88q125 0 210 88q86 89 86 212q0 124 -86 210t-210 86zM1620 1068q-117 0 -214 58q-99 59 -154 156q-56 98 -56 214t56 214t154 154t214 56t214 -56q97 -55 156 -154q58 -97 58 -214
t-58 -214q-58 -98 -156 -156q-97 -58 -214 -58zM1620 1792q-124 0 -210 -86t-86 -210q0 -123 86 -212q85 -88 210 -88q124 0 212 88t88 212q0 125 -88 210q-89 86 -212 86zM452 984h-368q-32 0 -58 -26t-26 -60t26 -60t58 -26h348l-4 44q0 63 24 128zM512 640h-340
q-36 0 -62 -24t-26 -60t26 -60q25 -24 62 -24h508l-160 160q-8 5 -8 8z" />
</svg>