<svg xmlns="http://www.w3.org/2000/svg" xmlns:xlink="http://www.w3.org/1999/xlink" version="1.1" viewBox="-10 0 2068 2048">
   <path fill="currentColor"
d="M124 0l-124 124l288 288q-202 262 -202 589q0 265 132 489q131 225 353.5 355t488.5 130q328 0 590 -201l274 274l124 -123zM426 553l104 105q-114 22 -196 55q34 -79 92 -160zM278 1001q0 -55 118 -100q121 -47 308 -73l366 370h-10q-204 0 -390 -28q-184 -28 -286 -70
q-106 -44 -106 -99zM1060 1783q-241 0 -438 -137q-196 -136 -288 -357q253 101 726 101q120 0 202 -5l250 252q-199 146 -452 146zM690 320l-146 -146q235 -146 516 -146q267 0 490 130t354 354q130 223 130 489q0 279 -146 517l-146 -146q21 -31 44 -83q-42 19 -96 32
l-164 -164q143 -27 232 -69q84 -40 84 -87q0 -72 -190 -128q-188 -55 -472 -64l-198 -196h78q476 0 726 100q-91 -220 -288 -356q-197 -137 -438 -137q-201 0 -370 100z" />
</svg>