<svg xmlns="http://www.w3.org/2000/svg" xmlns:xlink="http://www.w3.org/1999/xlink" version="1.1" viewBox="-10 0 2058 2048">
   <path fill="currentColor"
d="M1608 1170q92 0 196 37v-37q0 -153 -50 -290q-52 -142 -142 -254l136 -141q-72 -82 -136 -138l-138 142q-113 -91 -256 -144q-139 -52 -292 -52q-238 0 -438 118q-202 119 -320 320q-120 202 -120 439q0 236 120 441q117 202 320 320q200 117 438 117q79 0 164 -14
q-68 -126 -68 -279q0 -154 80 -290q81 -136 214 -215q136 -80 292 -80zM1022 1271h-192v-686h192v686zM1218 197h-584v-197h584v197zM2000 1659v197h-782v-197h782z" />
</svg>