<svg xmlns="http://www.w3.org/2000/svg" xmlns:xlink="http://www.w3.org/1999/xlink" version="1.1" viewBox="-10 0 2068 2048">
   <path fill="currentColor"
d="M1024 0q-146 0 -258 91q-113 92 -142 231q-110 -120 -268 -120q-149 0 -252.5 106t-103.5 254q0 149 103.5 255t252.5 106h124v101h414v-101h260v101h412v-101h126q148 0 252 -106q104 -107 104 -255q0 -147 -104 -254q-104 -106 -252 -106q-158 0 -270 120
q-28 -139 -142 -231q-111 -91 -256 -91zM534 1231l-82 817h470l-80 -817h-308zM1206 1231l-82 817h472l-82 -817h-308z" />
</svg>