<svg xmlns="http://www.w3.org/2000/svg" xmlns:xlink="http://www.w3.org/1999/xlink" version="1.1" viewBox="-10 0 2058 2048">
   <path fill="currentColor"
d="M1137 0q-210 0 -387 101q-179 103 -288 275q-109 174 -120 381l-218 288q-22 28 -6 59q17 32 54 32h170v341q0 96 67 163t163 67h112v341h794v-533q207 -95 333 -291q125 -193 125 -429q0 -214 -106 -398q-105 -183 -290.5 -290t-402.5 -107zM795 912q-42 0 -77 -35
q-34 -34 -34 -80t34 -80t80 -34t80 34q35 35 35 80t-35 80t-83 35zM1137 912q-43 0 -78 -35q-34 -34 -34 -80t34 -80t80 -34t80 34q35 35 35 80t-35 80t-82 35zM1478 912q-43 0 -78 -35q-34 -34 -34 -80t34 -80t80 -34t80 34q35 35 35 80t-35 80t-82 35z" />
</svg>