<svg xmlns="http://www.w3.org/2000/svg" xmlns:xlink="http://www.w3.org/1999/xlink" version="1.1" viewBox="-10 0 2068 2048">
   <path fill="currentColor"
d="M2028 724q-38 -104 -131 -143q-83 -35 -174 -11q-90 23 -169 98q3 -7 26 -83q18 -94 2 -185q-14 -88 -59 -150q-61 -91 -165 -106q-105 -15 -200 65t-139 215q-48 -140 -145 -217q-98 -79 -200 -61t-163 104q-47 63 -61 153q-12 82 9 182q5 42 17 65q-77 -64 -163 -84
q-84 -20 -163 15q-91 39 -130 143q-26 77 -18 159q9 84 48 167q59 116 152 179q97 65 191 65q55 0 100 -17q97 -44 131 -148q48 -117 -5 -266q85 66 170 66q15 0 30 -5q101 -14 161 -104q20 -29 39 -65q15 41 31 65q64 90 165 104q15 5 30 5q99 0 191 -83q-65 153 -13 283
q35 104 131 148q46 17 100 17q95 0 191 -65q93 -63 152 -179q40 -83 48.5 -167.5t-17.5 -158.5zM454 1068q-13 29 -35 39q-39 18 -102 -24q-63 -43 -102 -115q-26 -55 -28 -100q-1 -48 9 -78q11 -31 32 -44l26 -4q40 0 92 39q52 38 82 104q28 51 33 98q7 51 -7 85zM828 716
q-18 22 -35 26q-38 4 -87 -50q-47 -54 -69 -146q-8 -58 -2 -111q6 -49 26 -78q20 -28 37 -28q39 -5 89 50q49 53 67 145q14 60 4 111q-9 51 -30 81zM1393 546q-18 93 -65 146q-48 54 -87 50q-20 -5 -39 -31q-16 -24 -26 -76q-9 -51 4 -111q18 -87 63 -141t85 -54h9
q17 0 36 30q22 32 27 83q6 53 -7 104zM1832 968q-38 72 -102 115q-63 42 -102 24q-22 -10 -32.5 -44.5t-6.5 -81.5q5 -47 26 -96q34 -61 87 -100t95 -39h26q17 12 31 44q13 28 8 78q-4 47 -30 100zM1423 1303q-35 -35 -104 -131q-85 -120 -135 -169q-83 -74 -169 -74
t-165 74q-49 45 -131 156q-73 105 -117 144q-17 17 -100 91q-83 62 -117 100q-28 30 -43 60.5t-18 61.5q-9 79 32 156q43 78 111 113q46 22 100 22q71 0 218 -52q84 -27 117 -35q59 -17 111 -17q55 0 115 17q37 8 113 35q149 48 217 48q57 0 105 -18q60 -29 102 -93
q41 -61 39 -133q-1 -70 -63 -139q-30 -44 -122 -122q-75 -68 -96 -95zM1484 1716q-8 4 -26 4q-34 0 -156 -39l-5 -4q-94 -33 -134 -40q-78 -21 -148 -21q-69 0 -152 21q-40 11 -135 44l-17 4q-109 35 -144 35q-13 0 -17 -4q-17 -9 -31 -33q-11 -21 -10 -43q2 -21 84 -90
l22 -13q87 -65 122 -104q45 -45 130 -161l9 -13q105 -148 139 -148q35 0 148 157l4 9q67 96 117 152q11 10 22.5 21.5t26 25.5t38.5 40l22 21q122 100 126 131q0 13 -13 28q-14 16 -22 20z" />
</svg>