<svg xmlns="http://www.w3.org/2000/svg" xmlns:xlink="http://www.w3.org/1999/xlink" version="1.1" viewBox="-10 0 2058 2048">
   <path fill="currentColor"
d="M75 276l127 -126l1771 1771l-127 127l-173 -173q-40 23 -99 23q0 42 -30 70q-29 28 -70 28q-42 0 -71 -28q-30 -28 -30 -70h-600q0 42 -30 70q-29 28 -70 28q-42 0 -71 -28q-30 -28 -30 -70q-85 0 -141 -59t-56 -143v-1120zM1574 398q85 0 141 59t56 143v867l-300 -300
v-469h-150v319l-173 -173v-146h-145l-300 -300h70v-300q0 -41 31 -70q29 -28 68 -28h403q38 0 67 28q31 29 31 70v300h201zM675 1598h150v-572l-150 -150v722zM998 1598h150v-248l-150 -150v398zM1321 1598h75l-75 -75v75zM1223 398v-248h-300v248h300z" />
</svg>