<svg xmlns="http://www.w3.org/2000/svg" xmlns:xlink="http://www.w3.org/1999/xlink" version="1.1" viewBox="-10 0 2058 2048">
   <path fill="currentColor"
d="M1024 0q-250 0 -462 123q-214 125 -336 336q-124 214 -124 464q0 232 110 433q109 200 298 331v361h206v-308h206v308h202v-308h208v308h206v-361q187 -130 298 -334q110 -204 110 -430q0 -249 -124 -464q-123 -211 -338 -336q-211 -123 -460 -123zM616 923q80 0 140 60
q62 61 62 144q0 84 -62 145q-60 60 -144 60t-144 -60t-60 -145q0 -84 60 -144t148 -60zM1432 923q86 0 146 60t60 144q0 85 -60 145t-144 60t-144 -60t-60 -145q0 -84 60 -144t142 -60zM1024 1231l154 307h-308z" />
</svg>