<svg xmlns="http://www.w3.org/2000/svg" xmlns:xlink="http://www.w3.org/1999/xlink" version="1.1" viewBox="-10 0 2068 2048">
   <path fill="currentColor"
d="M1332 0q196 0 360 96q163 96 260 260q96 163 96 365q0 200 -106 373q-104 169 -280 262q-103 200 -306 307q-92 173 -262.5 279t-373.5 106q-201 0 -364 -96q-163 -95 -260 -260q-96 -163 -96 -365t106 -373q103 -169 278 -262q104 -199 308 -307q93 -174 262 -279
q170 -106 378 -106zM1024 1740q-197 0 -360 -96q-165 -97 -260 -259q-96 -163 -96 -361q-106 136 -106 308q0 137 70 257q67 116 188 187q118 70 256 70q173 0 308 -106zM1332 1433q-196 0 -362 -97q-163 -96 -258 -259q-96 -163 -96 -361q-106 136 -106 308q0 137 70 257
q68 118 186 188q118 69 258 69q174 0 308 -105zM1332 202q-174 0 -308 106q197 0 360 96q164 96 260 259q96 164 96 361q106 -136 106 -308q0 -137 -70 -257q-69 -117 -188 -187q-118 -70 -256 -70zM818 716q0 138 68 257q69 117 188 188q119 70 258 70q89 0 172 -34
q34 -81 34 -173q0 -138 -70 -257q-68 -117 -188 -188q-117 -69 -256 -69q-92 0 -174 33q-32 81 -32 173z" />
</svg>