<svg xmlns="http://www.w3.org/2000/svg" xmlns:xlink="http://www.w3.org/1999/xlink" version="1.1" viewBox="-10 0 2068 2048">
   <path fill="currentColor"
d="M1022 922q-44 0 -72 30q-28 28 -28 72t28 72t71 28t72 -29t29 -72t-29 -72t-71 -29zM1074 2q164 0 264 58q86 51 110 136q24 84 -16 166q-42 82 -128 124q-129 64 -168 254q78 29 126 92q187 -101 370 -108q185 -8 300 84q116 91 116 268q0 164 -58 264q-51 86 -136 110
q-84 24 -165.5 -16.5t-124.5 -131.5q-68 -125 -254 -164q-34 73 -96 126q100 187 108 368q7 183 -84 298q-92 116 -268 116q-162 0 -264 -58q-86 -52 -110 -138q-25 -84 16 -164q40 -82 132 -126q124 -62 162 -248q-75 -33 -124 -96q-187 100 -370 108q-181 7 -296 -84
q-116 -92 -116 -270q0 -160 58 -262q53 -88 136 -112q84 -23 164 18q78 40 126 132q63 124 254 162q29 -77 92 -124q-100 -186 -108 -370q-7 -181 84 -296q92 -116 268 -116z" />
</svg>