<svg xmlns="http://www.w3.org/2000/svg" xmlns:xlink="http://www.w3.org/1999/xlink" version="1.1" viewBox="-10 0 2058 2048">
   <path fill="currentColor"
d="M500 1756h781v292h-781v-292zM1468 1q-37 -5 -71 18q-34 22 -43 59l-96 562l-73 -9l-46 5l-110 -558q-9 -37 -43 -59q-36 -23 -73 -16q-41 8 -62 41q-23 34 -13 76l118 575l-374 165q-38 14 -60 50q-22 35 -22 82v425q0 56 45 101q46 46 101 46h635q54 0 96 -46l50 -37
l23 -23q27 -32 27 -54v-233l-5 -28q-5 -42 -22 -68q-23 -46 -60 -69l156 -886q9 -41 -14 -76q-22 -34 -64 -43z" />
</svg>