<svg xmlns="http://www.w3.org/2000/svg" xmlns:xlink="http://www.w3.org/1999/xlink" version="1.1" viewBox="-10 0 2058 2048">
   <path fill="currentColor"
d="M510 0q-82 0 -142 60t-60 142v1644q0 82 60 142t142 60h1028q82 0 142 -60t60 -142v-1644q0 -82 -60 -142t-142 -60h-1028zM510 202h1028v615h-1028v-615zM1024 1024q168 0 288 120q121 121 121 291t-121 291q-120 120 -288 120t-288 -120t-120 -291t120 -291t288 -120z
M1024 1231q-86 0 -146 60t-60 144t60 144t146 60q87 0 147 -60t60 -144t-60 -144t-147 -60z" />
</svg>