<svg xmlns="http://www.w3.org/2000/svg" xmlns:xlink="http://www.w3.org/1999/xlink" version="1.1" viewBox="-10 0 2058 2048">
   <path fill="currentColor"
d="M1673 279h96v-279h-375v279l48 114q59 139 92 274q47 188 47 357q0 294 -139 467q-148 183 -418 183t-418 -183q-140 -175 -140 -467q0 -165 48 -357q33 -135 92 -274l48 -114v-279h-375v279h96l-44 70q-50 82 -95 187q-62 145 -96 292q-44 194 -44 384q0 221 135 422
q130 186 347 301q214 113 446 113t446 -113q217 -115 347 -301q135 -201 135 -422q0 -348 -140 -676q-68 -158 -139 -257zM279 1116q-39 0 -65 -24t-26 -68q0 -43 26 -67q25 -24 67 -24q43 0 68 24q26 24 26 67q0 44 -26 68q-25 24 -70 24zM466 1674q-43 0 -67 -24t-24 -68
q0 -43 24 -67t67 -24q44 0 68 24t24 67q0 44 -24 68t-68 24zM1024 1953q-44 0 -68 -24q-23 -23 -23 -68t23 -68q24 -24 68 -24q43 0 67 24t24 68t-24 68t-67 24zM1581 1674q-43 0 -67 -24t-24 -68q0 -43 24 -67t67 -24q44 0 68 24t24 67q0 44 -24 68t-68 24zM1769 1116
q-45 0 -70 -24q-26 -24 -26 -68q0 -43 26 -67q25 -24 68 -24q41 0 67 24t26 67q0 44 -26 68t-65 24z" />
</svg>