<svg xmlns="http://www.w3.org/2000/svg" xmlns:xlink="http://www.w3.org/1999/xlink" version="1.1" viewBox="-10 0 2068 2048">
   <path fill="currentColor"
d="M122 1748l134 54v-882l-240 574q-31 74 0 150q32 76 106 104zM2032 1384l-486 -1170q-23 -56 -71.5 -88t-104.5 -32q-45 0 -78 14l-724 298q-52 23 -84 72q-31 48 -36 102q0 39 14 80l492 1170q18 61 68 92q51 32 106 32q43 0 78 -14l720 -298q74 -32 106 -108
q31 -76 0 -150zM646 682q-42 0 -69 -30t-27 -72q0 -40 26 -68q28 -28 70 -28t69 30t27 69t-27 69t-69 30zM448 1756q0 84 57 141t141 57h142l-340 -818v620z" />
</svg>