<svg xmlns="http://www.w3.org/2000/svg" xmlns:xlink="http://www.w3.org/1999/xlink" version="1.1" viewBox="-10 0 2068 2048">
   <path fill="currentColor"
d="M1024 257q-343 0 -622 194q-280 194 -402 503q123 311 402 504q279 194 622 194h100q-8 -25 -8 -92q0 -52 18 -139l4 -22q-72 22 -114 22q-124 0 -232 -64q-107 -63 -170 -170q-64 -107 -64 -233t64 -233q63 -107 170 -170q106 -63 232.5 -63t233.5 63q106 63 170 170
q62 106 62 233q0 58 -8 83q127 -35 192 -35q173 0 308 92q27 -51 66 -140q-122 -310 -400 -503q-280 -194 -624 -194zM1024 675q-116 0 -197 81t-81 198q0 118 80 199q80 80 198 80t198 -80q82 -81 82 -199q0 -117 -81 -198t-199 -81zM1674 1791v-187h-370v-183h370v-188
l278 279z" />
</svg>