<svg xmlns="http://www.w3.org/2000/svg" xmlns:xlink="http://www.w3.org/1999/xlink" version="1.1" viewBox="-10 0 2068 2048">
   <path fill="currentColor"
d="M1846 562h202v202h-202v-202zM202 255h1644q82 0 142 60t60 142h-308v206h-1432v409h308v308h1124v105h308q0 82 -60 142t-142 60h-414v106h-202v-106h-308v106h-412v-106h-308q-82 0 -142 -60t-60 -142v-1028q0 -82 60 -142t142 -60zM1740 1279h-1024v-515h1024v106h308
v202h-308v207zM1124 971v207h208v-207h-208zM308 356v206h100v-206h-100zM510 356v206h106v-206h-106zM716 356v206h102v-206h-102zM922 356v206h102v-206h-102zM1124 356v206h106v-206h-106zM1332 356v206h100v-206h-100zM1846 1178h202v202h-202v-202z" />
</svg>