<svg xmlns="http://www.w3.org/2000/svg" xmlns:xlink="http://www.w3.org/1999/xlink" version="1.1" viewBox="-10 0 2068 2048">
   <path fill="currentColor"
d="M1024 308q197 0 360 96q164 96 260 259q96 164 96 361.5t-96 360.5t-260 259q-163 96 -360 96t-360 -96q-165 -97 -260 -259q-96 -163 -96 -360.5t96 -361.5q95 -162 260 -259q163 -96 360 -96zM1024 0q277 0 514 137q236 137 372 373q138 236 138 514t-138 514
q-136 236 -372 373q-237 137 -514.5 137t-513.5 -137q-235 -136 -372 -373q-138 -236 -138 -514t138 -514q137 -237 372 -373q236 -137 514 -137zM1024 202q-223 0 -411.5 110t-300.5 301q-110 191 -110 411t110 411q111 190 300 300q191 111 411.5 111t410.5 -111
q190 -110 300 -300q112 -191 112 -411t-112 -411q-111 -191 -299.5 -301t-410.5 -110z" />
</svg>