<svg xmlns="http://www.w3.org/2000/svg" xmlns:xlink="http://www.w3.org/1999/xlink" version="1.1" viewBox="-10 0 2066 2048">
   <path fill="currentColor"
d="M462 624q-70 0 -118 -48t-48 -118q0 -69 48 -117t117 -48t117 48t48 120q0 67 -48 115t-116 48zM462 0q-192 0 -326 135t-134 326q0 215 230 556q122 177 230 298l72 -87q84 -100 160 -211q101 -150 158 -278q72 -164 72 -278q0 -190 -136 -326q-133 -135 -326 -135z
M1584 624q-66 0 -114 -48t-48 -118q0 -69 48 -117t118 -48q68 0 116 48t48 117q0 70 -48 118t-120 48zM1584 0q-192 0 -326 135t-134 326q0 215 230 556q122 177 230 298l72 -87q78 -93 158 -211q105 -154 160 -278q72 -164 72 -278q0 -190 -136 -326q-133 -135 -326 -135z
M1584 1430q-95 0 -174 57q-79 56 -112 149h-548q-43 -120 -158 -175t-234 -12q-120 43 -176 158q-55 115 -12 235q44 121 158 173q116 53 236 14q62 -24 112 -74t74 -113h548q43 120 158 175t234 12q120 -44 176 -158q55 -115 12 -235q-34 -92 -114 -149q-79 -57 -180 -57z
M1584 1890q-63 0 -108 -43q-44 -44 -44 -108q0 -65 44 -110q46 -46 112 -46q63 0 108 46q42 44 42 110q0 65 -43 108t-111 43z" />
</svg>