<svg xmlns="http://www.w3.org/2000/svg" xmlns:xlink="http://www.w3.org/1999/xlink" version="1.1" viewBox="-10 0 2058 2048">
   <path fill="currentColor"
d="M408 2048q-130 0 -218 -89q-88 -88 -88 -219q0 -92 52 -163l562 -981v-187q-42 0 -71 -29t-29 -72v-106q0 -82 60 -142t142 -60h412q82 0 142 60q60 61 60 142v106q0 43 -29 72t-71 29v187l562 981q52 73 52 163q0 130 -89 219t-219 89h-1230zM308 1740q0 43 28 75
q29 31 72 31h1230q44 0 72 -31q30 -32 30 -75q0 -29 -20 -57l-230 -404l-260 259l-518 -519l-386 664q-18 28 -18 57zM1124 817q-43 0 -72 31q-28 32 -28 75t29 72t71.5 29t75.5 -29q30 -28 30 -72t-31 -75t-75 -31z" />
</svg>