<svg xmlns="http://www.w3.org/2000/svg" xmlns:xlink="http://www.w3.org/1999/xlink" version="1.1" viewBox="-10 0 2068 2048">
   <path fill="currentColor"
d="M1868 310h-1068q-70 0 -122 52t-52 128v354l-180 180l180 180v354q0 74 52 126t122 52h1068q74 0 126 -52q54 -52 54 -126v-1068q0 -74 -54 -128q-52 -52 -126 -52zM1868 1558h-1068v-1068h1068v1068zM266 670h-174v-534h174v534zM92 1378h174v534h-174v-534zM358 1024
q0 74 -52 126q-52 54 -126 54t-128 -54q-52 -52 -52 -127t52 -127t127 -52t127 52t52 128zM1246 1298l-246 -266l104 -104l142 142l322 -322l100 126z" />
</svg>