<svg xmlns="http://www.w3.org/2000/svg" xmlns:xlink="http://www.w3.org/1999/xlink" version="1.1" viewBox="-10 0 2058 2048">
   <path fill="currentColor"
d="M52 388q0 -106 104 -194q107 -90 286 -142t392 -52q211 0 390 52t286 142q104 88 104 196t-104 197q-107 90 -286 142t-390 52q-213 0 -392 -52t-286 -142q-104 -89 -104 -199zM842 1462h-8q-213 0 -392 -52t-286 -142q-104 -89 -104 -194v292q0 106 104 195
q105 88 286.5 141t391.5 53h26q-26 -100 -26 -197q0 -45 8 -96zM1614 886v-9v-292q0 105 -104 194q-107 90 -286 142t-390 52q-213 0 -392 -52t-286 -142q-104 -89 -104 -194v292q0 107 104 195q105 88 286.5 141t391.5 53h68q81 -173 248 -281t364 -108q45 0 100 9z
M1984 1696q6 0 6 6q0 7 -6 12l-100 169q-8 9 -28 9l-118 -41l-78 50l-18 128q0 6 -6 12q-8 7 -12 7h-196q-10 0 -28 -19l-24 -128q-40 -13 -76 -50l-114 50q-19 0 -32 -9l-96 -164q-10 -14 8 -32l110 -78v-96l-110 -78q-8 -9 -8 -32l96 -164q14 -10 32 -10l114 51l76 -51
l24 -128q0 -18 28 -18h196q4 0 12 7q6 6 6 11l18 128q27 8 92 51l114 -51q32 0 32 10l96 164q9 9 -10 32l-110 78v96zM1660 1558q0 -54 -44 -100t-100 -46t-102 46t-46 103q0 56 46 100q45 44 102 44q56 0 100 -44t44 -103z" />
</svg>