<svg xmlns="http://www.w3.org/2000/svg" xmlns:xlink="http://www.w3.org/1999/xlink" version="1.1" viewBox="-10 0 2068 2048">
   <path fill="currentColor"
d="M1514 1680v320h-978v-320q0 -100 144 -171q145 -71 344.5 -71t345.5 71q144 71 144 171zM1024 437q174 0 318 87t231 231t87 322q0 177 -96 329l-152 -133q50 -94 50 -201q0 -183 -128 -311t-310 -128t-310 128t-128 311q0 107 50 201l-150 133q-96 -152 -96 -329
q0 -180 86 -322q86 -144 230 -231t318 -87zM1024 48q278 0 514 137q235 136 372 373q138 236 138 514q0 330 -192 595l-146 -128q142 -211 142 -467q0 -163 -62 -317t-178.5 -270t-269.5 -178q-155 -62 -318 -62t-318 62q-152 61 -268 178q-118 118 -180 270
q-60 152 -60 317q0 257 140 467l-146 128q-192 -265 -192 -595q0 -278 138 -514q136 -236 372 -373q237 -137 514 -137zM1024 830q100 0 171 71t71 171q0 101 -71 172t-171 71t-172 -71q-70 -70 -70 -172q0 -101 70 -171q72 -71 172 -71z" />
</svg>