<svg xmlns="http://www.w3.org/2000/svg" xmlns:xlink="http://www.w3.org/1999/xlink" version="1.1" viewBox="-10 0 2068 2048">
   <path fill="currentColor"
d="M974 98q266 0 490 106q224 105 354 282.5t130 393.5q0 78 -18 164q-91 -50 -188 -64q14 -52 14 -100q0 -160 -106 -296q-103 -132 -286 -212q-180 -78 -390 -78t-390 78q-183 80 -286 212q-106 136 -106 294t106 292q103 134 286 214q181 80 390 80l106 -4l-10 100l10 92
l-106 4q-173 0 -342 -44q-137 109 -300 170q-163 63 -332 72q149 -155 220 -284q46 -91 46 -156q-124 -96 -195 -238t-71 -296q0 -214 132 -394q129 -177 354 -282q223 -106 488 -106zM1560 1172h196v292h292v192h-292v294h-196v-294h-294v-192h294v-292z" />
</svg>