<svg xmlns="http://www.w3.org/2000/svg" xmlns:xlink="http://www.w3.org/1999/xlink" version="1.1" viewBox="-10 0 2068 2048">
   <path fill="currentColor"
d="M1482 1945q-144 0 -254 -129q-90 -109 -168 -327q-48 -137 -134 -436q-101 -348 -158 -499q-106 -245 -206 -245q-154 0 -250 183q-62 134 -90 345q-20 118 -20 187h-202q0 -118 20 -254q43 -268 148 -437q145 -230 394 -230q142 0 254 130q92 112 172 331
q44 124 134 431v10q96 339 154 484q105 250 206 250q158 0 250 -182q67 -135 96 -346q14 -104 14 -187h206q0 115 -24 254q-44 270 -148 437q-145 230 -394 230z" />
</svg>