<svg xmlns="http://www.w3.org/2000/svg" xmlns:xlink="http://www.w3.org/1999/xlink" version="1.1" viewBox="-10 0 2058 2048">
   <path fill="currentColor"
d="M2034 1899l-1898 -1899l-122 122l451 455q-77 149 -77 316v578l-193 189v99h1451l266 262zM578 1565v-672q0 -90 36 -171l843 843h-879zM866 1854h388q0 82 -56 138t-138 56q-81 0 -137 -56q-57 -57 -57 -138zM704 325q69 -46 162 -77v-31q0 -77 57 -134q56 -56 137 -56
q82 0 138 56t56 134v31q212 63 345 241t133 404v460l-189 -194v-266q0 -130 -66 -241q-66 -110 -176 -176q-111 -66 -241 -66q-111 0 -216 55z" />
</svg>