<svg xmlns="http://www.w3.org/2000/svg" xmlns:xlink="http://www.w3.org/1999/xlink" version="1.1" viewBox="-10 0 2068 2048">
   <path fill="currentColor"
d="M1916 1024q0 275 -130 512q-129 238 -346.5 375t-479.5 137q-260 0 -480 -137q-222 -138 -352 -375q-128 -235 -128 -512t128 -512q129 -235 352 -374q221 -138 478 -138h1090v258h-456q150 143 237 344t87 422zM958 258q-192 0 -350 102q-159 102 -254 278
q-96 177 -96 386t96 386q96 178 254 279q158 102 350 102t354 -102q160 -101 256 -279q96 -177 96 -386t-96 -386q-95 -176 -256 -278q-162 -102 -354 -102z" />
</svg>