<svg xmlns="http://www.w3.org/2000/svg" xmlns:xlink="http://www.w3.org/1999/xlink" version="1.1" viewBox="-10 0 2058 2048">
   <path fill="currentColor"
d="M1616 1024q0 -137 -66 -261l136 -135q118 185 118 396q0 188 -96 353l-140 -139q48 -103 48 -214zM166 70l-118 118l406 405q-140 193 -140 431q0 212 118 397l134 -135q-66 -122 -66 -262q0 -159 88 -296l766 767q-134 87 -296 87v-279l-370 371l370 374v-279
q240 0 432 -139l392 392l118 -117zM1058 467v261l10 9l360 -362l-370 -375v279q-188 0 -352 96l140 140q105 -48 212 -48z" />
</svg>