<svg xmlns="http://www.w3.org/2000/svg" xmlns:xlink="http://www.w3.org/1999/xlink" version="1.1" viewBox="-10 0 2058 2048">
   <path fill="currentColor"
d="M1024 308q249 0 460 81q213 81 338 224q124 143 124 310q0 125 -74 238q-75 112 -204 199q178 -139 178 -322q0 -144 -112 -264q-111 -121 -300 -192q-190 -72 -410 -72v307l-408 -408l408 -409v308zM1024 1740q-250 0 -462 -81t-336 -224q-124 -142 -124 -310
q0 -127 74 -238q75 -113 204 -200q-178 139 -178 323q0 144 110 264q112 121 300 192q191 72 412 72v-307l408 408l-408 409v-308z" />
</svg>