<svg xmlns="http://www.w3.org/2000/svg" xmlns:xlink="http://www.w3.org/1999/xlink" version="1.1" viewBox="-10 0 2068 2048">
   <path fill="currentColor"
d="M1024 0q-278 0 -514 137q-235 136 -372 373q-138 236 -138 514t138 514q137 237 372 373q236 137 513.5 137t514.5 -137q236 -137 372 -373q138 -236 138 -514q0 -200 -78 -392q-75 -189 -220.5 -334t-333.5 -221q-192 -77 -392 -77zM1638 923h-514l188 -187
q-122 -121 -284 -121q-164 0 -280 106q-118 107 -132 267q-16 161 84 286q100 126 254 154q156 29 290 -58q135 -86 174 -245h212q-24 157 -126 281q-98 121 -244 185t-306 44q-161 -19 -288 -111q-130 -93 -198 -233q-68 -143 -60 -303q9 -159 94 -293q85 -133 224 -209
q140 -77 298 -77q120 0 232 48q116 49 200 134l182 -182v514z" />
</svg>