<svg xmlns="http://www.w3.org/2000/svg" xmlns:xlink="http://www.w3.org/1999/xlink" version="1.1" viewBox="-10 0 2068 2048">
   <path fill="currentColor"
d="M202 409h-202v1437q0 82 60 142t142 60h1436v-202h-1436v-1437zM1692 1255q0 -74 -86 -130q-73 -49 -188 -77q-106 -24 -190 -24q-85 0 -186 24q-118 28 -192 77q-82 58 -82 130v77h924v-77zM1230 846q96 0 163 -67t67 -164q0 -96 -67 -163t-163 -67t-163 67t-67 163
q0 97 67 164t163 67zM1846 0h-1230q-88 0 -148 60t-60 142v1231q0 86 60 146t148 60h1230q82 0 142 -60t60 -146v-1231q0 -82 -60 -142t-142 -60zM1846 1433h-1230v-1231h1230v1231z" />
</svg>