<svg xmlns="http://www.w3.org/2000/svg" xmlns:xlink="http://www.w3.org/1999/xlink" version="1.1" viewBox="-10 0 2068 2048">
   <path fill="currentColor"
d="M1928 438q46 0 82 36q38 36 38 88v344q0 46 -40 84q-38 36 -90 36h-538q-45 0 -82 -38q-38 -39 -38 -90v-346q0 -42 38 -78q36 -36 82 -36v-148q0 -102 82 -175t190 -73q106 0 191 73t85 175v148zM1798 438v-148q0 -61 -40 -94q-43 -36 -104 -36t-105.5 35t-44.5 95v148
h294zM768 142l396 392h-294v768l920 534l-98 170l-924 -534l-666 388l-102 -172l672 -386v-768h-294z" />
</svg>