<svg xmlns="http://www.w3.org/2000/svg" xmlns:xlink="http://www.w3.org/1999/xlink" version="1.1" viewBox="-10 0 2058 2048">
   <path fill="currentColor"
d="M1303 1769q0 -38 -29 -67q-28 -28 -63 -28h-96v-183h558q78 0 133 -55q54 -54 54 -133v-1115q0 -79 -54 -133q-55 -55 -133 -55h-1298q-78 0 -133 55q-54 54 -54 133v1115q0 79 54 133q55 55 133 55h558v183h-96q-35 0 -63 28q-29 29 -29 67h-649v184h649q0 38 29 67
q28 28 63 28h374q35 0 63 -28q29 -29 29 -67h649v-184h-649zM1115 375h558v370h-558v-370zM1115 933h558v370h-558v-370zM375 375h558v370h-558v-370zM375 1303v-370h558v370h-558z" />
</svg>