<svg xmlns="http://www.w3.org/2000/svg" xmlns:xlink="http://www.w3.org/1999/xlink" version="1.1" viewBox="-10 0 2068 2048">
   <path fill="currentColor"
d="M202 308q-82 0 -142 60t-60 142v1028q0 82 60 142t142 60h1644q82 0 142 -60t60 -142v-1028q0 -82 -60 -142t-142 -60h-1644zM202 510h1230v1028h-1230v-1028zM1740 510q44 0 75 31t31 74q0 44 -32 72q-32 29 -75 29t-72 -29t-29 -72q0 -42 30 -74q28 -31 72 -31z
M1124 716v616h208v-616h-208zM1740 923q42 0 74 29q32 28 32 72t-32 72q-32 29 -75 29t-72 -29t-29 -72t29 -72t73 -29z" />
</svg>