<svg xmlns="http://www.w3.org/2000/svg" xmlns:xlink="http://www.w3.org/1999/xlink" version="1.1" viewBox="-10 0 2068 2048">
   <path fill="currentColor"
d="M808 772q49 0 84 34q36 34 36 84t-36 86t-86 36t-86 -36t-36 -86t36 -84q35 -34 88 -34zM1240 1448q-48 0 -84 -36t-36 -86t36 -86t86 -36t86 36t36 86t-36 86t-88 36zM784 1452l-100 -104l580 -580l100 104zM1652 856q-44 -224 -220 -370t-408 -146q-180 0 -334 94
q-155 95 -234 250q-131 17 -232 86q-105 72 -164 182q-60 112 -60 244q0 135 68 254q67 117 186 188q118 70 258 70h1108q117 0 214 -58q98 -58 156 -156q58 -97 58 -214q0 -168 -114 -290q-115 -122 -282 -134zM1620 1536h-1108q-140 0 -240 -100t-100 -242t100 -242
t240 -100h60q43 -148 168 -244q124 -96 284 -96q129 0 236 64q110 65 170 170q62 107 62 234v44h128q108 0 182 74t74 182t-74 182t-182 74z" />
</svg>