<svg xmlns="http://www.w3.org/2000/svg" xmlns:xlink="http://www.w3.org/1999/xlink" version="1.1" viewBox="-10 0 2068 2048">
   <path fill="currentColor"
d="M1024 745q-89 0 -160 51q-71 50 -100 137h-222q-26 -87 -98 -137q-75 -51 -164 -51q-118 0 -199 81t-81 198q0 118 82 199q80 80 198 80q91 0 164 -50q72 -50 98 -137h222q29 87 100 137q69 50 160.5 50t161.5 -50t100 -137h222q25 87 98 137q72 50 164 50q118 0 198 -80
t80 -199q0 -118 -80 -198q-82 -81 -198 -81q-90 0 -164 51q-73 50 -98 137h-222q-30 -87 -100 -137q-72 -51 -162 -51zM188 1024q0 -43 26 -67t68 -24t68 24t26 67q0 44 -26 68t-68 24t-68 -24t-26 -68zM1860 1024q0 44 -26 68q-25 24 -66 24q-43 0 -68 -24q-26 -24 -26 -68
q0 -43 26 -67q25 -24 68 -24q41 0 66 24q26 24 26 67z" />
</svg>