<svg xmlns="http://www.w3.org/2000/svg" xmlns:xlink="http://www.w3.org/1999/xlink" version="1.1" viewBox="-10 0 2068 2048">
   <path fill="currentColor"
d="M1918 358h-1798q-48 0 -84 38q-36 40 -36 92v1072q0 52 36 92q36 38 90 38h490q38 0 72 -22q34 -21 42 -60l144 -356q20 -43 60 -72q42 -28 89.5 -28t88.5 28q41 29 60 72l144 356q16 40 46 60q32 22 66 22h490q58 0 94 -38q36 -39 36 -92v-1072q0 -52 -36 -92
q-36 -38 -94 -38zM534 1238q-92 0 -160 -70q-66 -68 -66 -166q0 -96 64 -166q66 -70 161.5 -70t160.5 70q66 70 66 166.5t-66 165.5q-64 70 -160 70zM1514 1238q-97 0 -162 -70q-64 -69 -64 -165.5t64 -166.5q66 -70 160 -70q92 0 160 70q68 69 68 166.5t-68 165.5
q-67 70 -158 70z" />
</svg>