<svg xmlns="http://www.w3.org/2000/svg" xmlns:xlink="http://www.w3.org/1999/xlink" version="1.1" viewBox="-10 0 2058 2048">
   <path fill="currentColor"
d="M98 484v-192h198v-100q0 -78 57 -135t135 -57h584v681l246 -147l244 147v-681h96q73 0 134 59q62 60 62 133v955q-142 -78 -298 -78q-155 0 -288 80q-132 80 -212 215q-80 136 -80 290q0 158 78 293h-566q-79 0 -136 -59q-56 -60 -56 -133v-101h-198v-192h198v-393h-198
v-192h198v-393h-198zM296 292v192h192v-192h-192zM296 1654h192v-192h-192v192zM296 1069h192v-192h-192v192zM1466 1266v292h-294v197h294v293h192v-293h292v-197h-292v-292h-192z" />
</svg>