<svg xmlns="http://www.w3.org/2000/svg" xmlns:xlink="http://www.w3.org/1999/xlink" version="1.1" viewBox="-10 0 2068 2048">
   <path fill="currentColor"
d="M308 409q-86 0 -146 60t-60 144t60 144t144 60t144 -60t60 -144t-60 -144t-142 -60zM1024 202q-86 0 -146 60t-60 147q0 86 60 146t146 60t146 -60t60 -146q0 -87 -60 -147t-146 -60zM1740 0q-82 0 -142 60t-60 144q0 85 60 145t144 60t144 -60t60 -145q0 -84 -60 -144
t-146 -60zM154 923q-68 0 -111 43t-43 111v461h102v510h408v-510h106v-461q0 -67 -46 -111q-45 -43 -108 -43h-308zM870 716q-62 0 -108 46q-46 45 -46 108v462h102v514h412v-514h102v-462q0 -62 -46 -108t-108 -46h-308zM1586 510q-64 0 -109 45t-45 108v462h106v514h408
v-514h102v-462q0 -62 -44 -108q-44 -45 -110 -45h-308z" />
</svg>