<svg xmlns="http://www.w3.org/2000/svg" xmlns:xlink="http://www.w3.org/1999/xlink" version="1.1" viewBox="-10 0 2068 2048">
   <path fill="currentColor"
d="M1136 1595q48 0 83 -35t35 -83t-35.5 -80t-82.5 -32q-48 0 -80 32t-32 80t32 83t80 35zM1136 1136q47 0 82.5 -32t35.5 -80t-35.5 -80t-82.5 -32q-48 0 -80 32t-32 80t32 80t80 32zM1136 683q47 0 82.5 -32t35.5 -80t-35 -83t-83 -35t-80 35t-32 83t32 80t80 32z
M1594 1083q20 0 38 -19q16 -17 16 -40t-16 -40q-18 -19 -40.5 -19t-39.5 19q-16 17 -16 40t16 40q17 19 42 19zM1594 624q22 0 38 -16t16 -40t-16 -40t-40 -16t-40 16t-16 40t16 40t42 16zM0 0v229h2048v-229h-2048zM1594 1536q22 0 38 -16t16 -40t-16 -40t-40 -16t-40 16
t-16 40t16 40t42 16zM684 1595q47 0 78.5 -35t31.5 -83t-32 -80t-78 -32q-48 0 -80 32t-32 80t31.5 83t80.5 35zM230 1195q68 0 119 -51t51 -120t-51 -120t-121 -51q-72 0 -120 51t-48 120t48 120t122 51zM230 741q70 0 120 -50q50 -51 50 -123t-50.5 -120t-121.5 -48
q-72 0 -120 48t-48 120t48 123q47 50 122 50zM0 2048h2048v-229h-2048v229zM684 683q46 0 78 -32t32 -80t-31.5 -83t-78.5 -35q-49 0 -80.5 35t-31.5 83t32 80t80 32zM684 1136q46 0 78 -32t32 -80t-32 -80t-78 -32q-48 0 -80 32t-32 80t32 80t80 32zM230 1648q68 0 119 -48
t51 -120t-50 -123q-50 -50 -122 -50q-73 0 -120 50q-48 51 -48 123t48 120t122 48z" />
</svg>