<svg xmlns="http://www.w3.org/2000/svg" xmlns:xlink="http://www.w3.org/1999/xlink" version="1.1" viewBox="-10 0 2068 2048">
   <path fill="currentColor"
d="M1464 1456q40 0 68 27q28 28 28 69q0 40 -28 71q-27 29 -68.5 29t-71.5 -29q-30 -30 -30 -69t30 -69q30 -29 72 -29zM1464 1163q196 0 354 108q156 107 230 281q-74 174 -230 283q-159 110 -354.5 110t-357.5 -110q-158 -108 -228 -283q70 -174 228 -281
q161 -108 358 -108zM1464 1309q-100 0 -174 71q-74 70 -74 174t74 174q74 71 174 71t171 -71t71 -174t-71 -174t-171 -71zM1560 103h-1368q-76 0 -134 57q-58 58 -58 139v1170q0 77 58 135q58 57 134 57h530q-23 -43 -40 -96q17 -53 40 -96h-530v-393h586v293
q82 -123 196 -215v-78h114q174 -96 376 -96q150 0 292 60v-741q0 -82 -57 -139t-139 -57zM778 884h-586v-393h586v393zM1560 884h-586v-393h586v393z" />
</svg>