<svg xmlns="http://www.w3.org/2000/svg" xmlns:xlink="http://www.w3.org/1999/xlink" version="1.1" viewBox="-10 0 2064 2048">
   <path fill="currentColor"
d="M1024 0l-56 4l324 324l116 -116q211 103 348 296q136 191 160 432h128q-20 -260 -162 -476q-143 -216 -368 -340q-226 -124 -490 -124zM1024 340q-124 0 -212 88t-88 212t88 212t212 88t212 -88t88 -212t-88 -212t-212 -88zM4 1108q20 260 162 476q143 216 368 340
q226 124 490 124l56 -4l-324 -324l-116 116q-211 -103 -348 -296q-136 -191 -160 -432h-128zM1024 1108q-165 0 -300 40q-138 41 -216 110q-80 71 -80 150v128h1192v-128q0 -79 -80 -150q-78 -69 -216 -110q-135 -40 -300 -40z" />
</svg>