<svg xmlns="http://www.w3.org/2000/svg" xmlns:xlink="http://www.w3.org/1999/xlink" version="1.1" viewBox="-10 0 2068 2048">
   <path fill="currentColor"
d="M1596 1986l-264 -286l112 -112l152 152l344 -344l108 134zM1046 1108v-572h-188v572h188zM1046 1494v-192h-188v192h188zM952 62q260 0 478 128q220 127 348 346q126 219 126 478l-8 126q-87 -32 -180 -32q-154 0 -288 80q-131 77 -208 210q-76 131 -76 284q0 136 58 254
q-118 32 -250 32q-258 0 -478 -128q-218 -128 -346 -346q-128 -220 -128 -480q0 -258 128 -478q129 -220 346 -346q219 -128 478 -128z" />
</svg>