<svg xmlns="http://www.w3.org/2000/svg" xmlns:xlink="http://www.w3.org/1999/xlink" version="1.1" viewBox="-10 0 2058 2048">
   <path fill="currentColor"
d="M1024 1563q-82 0 -139 -57t-57 -139q0 -83 57 -140t139 -57t139 57t57 140q0 82 -57 139t-139 57zM1610 1856v-978h-1170v978h1170zM1610 686q82 0 139 57t57 135v978q0 78 -57 135t-139 57h-1170q-84 0 -141 -57t-57 -135v-978q0 -78 57 -135t141 -57h96v-197
q0 -131 66 -244q66 -114 178 -179q112 -66 244 -66t244 66q112 65 178 179q68 114 68 244v197h96zM1024 197q-124 0 -208 84q-84 85 -84 208v197h584v-197q0 -124 -84 -208t-208 -84z" />
</svg>