<svg xmlns="http://www.w3.org/2000/svg" xmlns:xlink="http://www.w3.org/1999/xlink" version="1.1" viewBox="-10 0 2068 2048">
   <path fill="currentColor"
d="M1024 0q200 0 392 77q188 76 333.5 221t220.5 334q78 192 78 392t-78 392q-75 189 -220.5 334t-333.5 221q-192 77 -392 77t-392 -77q-188 -76 -333.5 -221t-220.5 -334q-78 -192 -78 -392t78 -392q75 -189 220.5 -334t333.5 -221q192 -77 392 -77zM1024 202
q-223 0 -411.5 110t-300.5 301q-110 191 -110 411q0 182 74 341q75 158 204 274h236v-615h822l220 370q88 -178 88 -370q0 -220 -112 -411q-111 -191 -299.5 -301t-410.5 -110z" />
</svg>