<svg xmlns="http://www.w3.org/2000/svg" xmlns:xlink="http://www.w3.org/1999/xlink" version="1.1" viewBox="-10 0 2068 2048">
   <path fill="currentColor"
d="M558 933h-558v183h558v-183zM764 632l-202 -200l-130 130l200 201zM1116 0h-182v558h182v-558zM1616 562l-130 -130l-200 200l130 131zM1490 933v183h558v-183h-558zM1024 745q-116 0 -197 81t-81 198q0 118 80 199q80 80 198 80t198 -80q82 -81 82 -199q0 -117 -81 -198
t-199 -81zM1286 1417l200 200l130 -131l-200 -200zM432 1486l130 131l202 -200l-132 -131zM934 2048h182v-557h-182v557z" />
</svg>