<svg xmlns="http://www.w3.org/2000/svg" xmlns:xlink="http://www.w3.org/1999/xlink" version="1.1" viewBox="-10 0 2068 2048">
   <path fill="currentColor"
d="M934 1906h-376v-187h376v187zM1352 1719h138v187h-374v-187h22l-130 -567l-236 57q-10 50 -44 122q-66 105 -180 131q-116 25 -220 -37q-106 -64 -131.5 -179.5t37 -220t178.5 -132.5q116 -29 220 37q45 23 88 83l230 -57l-56 -231q-37 -10 -110 -48q-99 -61 -128 -178
q-28 -119 33.5 -221.5t178.5 -127.5q117 -26 222 37t130 179q26 117 -38 220q-23 43 -84 82zM558 1052q-48 -35 -106 -20q-58 14 -94 64q-34 48 -20 108q16 62 64 92t108 17q62 -14 92 -65q31 -55 18 -111q-14 -60 -62 -85zM1064 512q29 -48 14 -109q-14 -62 -62 -96
q-49 -35 -110 -20q-58 14 -92 66q-34 49 -18 111q14 60 68 91t110 18q60 -14 90 -61zM1098 1004q-34 -18 -47.5 13t15.5 46q28 15 42 -11q12 -13 10 -26q-1 -13 -20 -22zM1860 743l-604 139l48 205l696 -166l48 -65zM2048 1719h-374v187h374v-187zM376 1719h-376v187h376
v-187z" />
</svg>