<svg xmlns="http://www.w3.org/2000/svg" xmlns:xlink="http://www.w3.org/1999/xlink" version="1.1" viewBox="-10 0 2058 2048">
   <path fill="currentColor"
d="M1231 0h-822q-86 0 -146 60q-61 61 -61 142v1644q0 81 61 142q60 60 146 60h1230q87 0 147 -60t60 -142v-1231zM1024 1639q-154 0 -281 -84t-190 -223h178q48 72 125 113q76 40 168 40q151 0 255 -105q106 -108 106 -255q0 -148 -106 -252t-255 -104q-100 0 -185 53
q-84 53 -132 139l163 164h-408v-409l130 135q71 -109 185 -173q113 -63 250 -63q136 0 254 68q121 70 188 185q69 118 69 257t-69 257q-68 117 -188 188q-117 69 -257 69z" />
</svg>