<svg xmlns="http://www.w3.org/2000/svg" xmlns:xlink="http://www.w3.org/1999/xlink" version="1.1" viewBox="-10 0 2068 2048">
   <path fill="currentColor"
d="M866 1831q171 0 320 -86q147 -84 238 -236q88 -149 88 -326h212q0 240 -116 435q-114 195 -314 314q-194 116 -431.5 116t-432.5 -116t-312 -314q-118 -199 -118 -432q0 -234 118 -433q116 -196 312 -313q195 -116 436 -116v212q-177 0 -326 89q-151 89 -236 237
q-86 149 -86 324q0 174 86 323q87 151 236 236q149 86 326 86zM1724 324h324v212h-324v324h-212v-324h-324v-212h324v-324h212v324z" />
</svg>