<svg xmlns="http://www.w3.org/2000/svg" xmlns:xlink="http://www.w3.org/1999/xlink" version="1.1" viewBox="-10 0 2068 2048">
   <path fill="currentColor"
d="M1674 654l-370 370h278q0 151 -74 281q-75 130 -202 203q-130 74 -282 74q-141 0 -260 -65l-136 135q184 117 396 117q201 0 372 -100q174 -101 274 -272q100 -172 100 -373h278zM466 1024q0 -149 76 -281q73 -129 202 -202q129 -74 280 -74q142 0 262 65l134 -135
q-184 -118 -396 -118q-200 0 -372 100q-172 101 -272 273t-100 372h-280l376 371l370 -371h-280z" />
</svg>