<svg xmlns="http://www.w3.org/2000/svg" xmlns:xlink="http://www.w3.org/1999/xlink" version="1.1" viewBox="-10 0 2067 2048">
   <path fill="currentColor"
d="M1613 229q136 0 192 11q27 279 -16 533q-65 376 -266 614q-346 432 -1136 432h-149q-37 -805 320 -1195q191 -217 512 -320q245 -75 543 -75zM1613 0q-409 0 -730 128q-448 176 -672 576q-271 501 -192 1323q251 21 368 21q365 0 651 -85q261 -79 458 -230
q176 -134 299 -320q107 -165 165 -373q54 -172 75 -368q16 -157 10 -325q-7 -132 -21 -224l-11 -91l-112 -16q-134 -16 -288 -16zM1592 453q-320 0 -554 123q-205 97 -342 277q-104 147 -170 342q-47 132 -64 277l-11 123q127 -256 293 -470q144 -181 304 -325
q137 -120 272 -208q107 -68 197 -107z" />
</svg>