<svg xmlns="http://www.w3.org/2000/svg" xmlns:xlink="http://www.w3.org/1999/xlink" version="1.1" viewBox="-10 0 2068 2048">
   <path fill="currentColor"
d="M1124 908q43 0 76 30q30 28 30 71.5t-30 72.5q-33 28 -75.5 28t-71.5 -29t-29 -72t29 -72t71 -29zM600 418q100 -105 236 -168q133 -62 288 -62q176 0 332 82q154 80 254 222q102 144 126 310h212v208h-616q0 -130 -89 -219t-217 -89q-125 0 -218 88q-90 89 -90 220h-818
v-208h4q29 -345 250 -614zM486 586l-174 -114q-85 156 -100 330h202q19 -115 72 -216zM552 1360l-144 -144h596q16 30 48 50q35 22 72.5 22t71.5 -22q34 -21 54 -50h596v144q-77 -48 -116 -38q-29 9 -38 38l-6 34v202l-202 202q-32 -115 -90 -110q-29 4 -54 28l-144 144
h-282q63 -100 18 -140q-23 -18 -58 -18h-202l-200 -202q114 -29 110 -86q-5 -34 -30 -54z" />
</svg>