<svg xmlns="http://www.w3.org/2000/svg" xmlns:xlink="http://www.w3.org/1999/xlink" version="1.1" viewBox="-10 0 2068 2048">
   <path fill="currentColor"
d="M0 1953q0 38 30 67q28 28 66 28h1208q39 0 64 -28q26 -29 26 -67v-92h-1394v92zM698 745q-179 0 -336 61q-160 66 -256 188q-106 130 -106 309h1394q0 -179 -100 -309q-96 -122 -260 -188q-152 -61 -336 -61zM244 1116q69 -96 218 -144q113 -39 236 -39q122 0 240 39
q144 48 212 144h-906zM0 1491h1394v183h-1394v-183zM1582 375v-375h-188v375h-460l20 183h890l-132 1303h-130v187h162q56 0 99.5 -39t48.5 -100l156 -1534h-466z" />
</svg>