<svg xmlns="http://www.w3.org/2000/svg" xmlns:xlink="http://www.w3.org/1999/xlink" version="1.1" viewBox="-10 0 2068 2048">
   <path fill="currentColor"
d="M230 0q-96 0 -163 67t-67 162h230v-229zM454 0v229h230v-229h-230zM912 0v229h224v-229h-224zM1366 0v229h228v-229h-228zM1818 0v229h230q0 -96 -66 -162q-68 -67 -164 -67zM0 453v230h230v-230h-230zM454 453v459h458v-459h-458zM1136 453v459h458v-459h-458zM1818 453
v230h230v-230h-230zM0 912v224h230v-224h-230zM1818 912v224h230v-224h-230zM454 1136v459h458v-459h-458zM1136 1136v459h458v-459h-458zM0 1365v230h230v-230h-230zM1818 1365v230h230v-230h-230zM0 1819q0 95 67 162t163 67v-229h-230zM454 1819v229h230v-229h-230z
M912 1819v229h224v-229h-224zM1366 1819v229h228v-229h-228zM1818 1819v229q96 0 164 -67q66 -66 66 -162h-230z" />
</svg>