<svg xmlns="http://www.w3.org/2000/svg" xmlns:xlink="http://www.w3.org/1999/xlink" version="1.1" viewBox="-10 0 2068 2048">
   <path fill="currentColor"
d="M746 558h188v374h182v-374h188v932h-188v-374h-182v374h-188v-932zM1490 558h280q112 0 196 82q82 82 82 196v376q0 114 -82 196q-84 82 -196 82h-280v-932zM1770 1302q38 0 64 -26t26 -64v-376q0 -38 -26 -64q-26 -28 -64 -28h-96v558h96zM558 1212q0 113 -80 196
q-82 82 -196 82q-116 0 -199 -83t-83 -195v-654h188v654q0 38 26 64t65 26t69 -26q28 -25 28 -64v-654h182v654z" />
</svg>