<svg xmlns="http://www.w3.org/2000/svg" xmlns:xlink="http://www.w3.org/1999/xlink" version="1.1" viewBox="-10 0 2068 2048">
   <path fill="currentColor"
d="M954 636l676 676q81 -27 126 -48q-23 -28 -56 -48q-75 -49 -210 -74q143 -26 240 -13q78 9 130 48l22 17q82 -55 122 -104q44 -52 44 -90q0 -37 -104 -93q-107 -58 -258 -105q-166 -52 -330 -70q-62 -127 -192 -209q-118 -78 -230 -78q29 96 20 191zM1512 850
q34 9 162 43v18q0 34 -26 63q-26 28 -66 28t-66 -28q-26 -29 -26 -61q0 -34 22 -63zM1966 1883l-118 117l-506 -505q-76 65 -130 65v-187q-173 0 -480 -92q-162 -53 -266 -91l-56 69q-68 85 -134 136q-97 74 -180 74l92 -375l-188 -558q118 0 306 187q91 92 160 188l62 -26
q148 -52 152 -53l-666 -666l118 -118z" />
</svg>