<svg xmlns="http://www.w3.org/2000/svg" xmlns:xlink="http://www.w3.org/1999/xlink" version="1.1" viewBox="-10 0 2058 2048">
   <path fill="currentColor"
d="M872 1238l674 389l144 -249l144 525l-528 145l144 -254l-678 -388l-654 379l-100 -167l660 -380v-1044h194v1044zM1912 388q44 0 82 37q36 36 36 85v339q0 46 -39 82t-89 36h-528q-46 0 -82 -38q-36 -39 -36 -89v-339q0 -40 36 -76q38 -37 82 -37v-144q0 -99 82 -172
q80 -72 184 -72t188 72q84 71 84 172v144zM1786 388v-144q0 -58 -42 -93q-39 -34 -102 -34q-61 0 -103.5 34t-42.5 93v144h290z" />
</svg>