<svg xmlns="http://www.w3.org/2000/svg" xmlns:xlink="http://www.w3.org/1999/xlink" version="1.1" viewBox="-10 0 2068 2048">
   <path fill="currentColor"
d="M1550 805v146h-224l-146 -146h370zM1646 658q100 0 171 74t71 173q0 101 -71 172t-171 71h-128l146 146q155 -9 262 -121q108 -111 108 -272t-114 -275t-274 -114h-760l146 146h614zM2048 1925l-124 123l-462 -462h-840q-148 0 -270 -73q-125 -74 -194 -194
q-72 -122 -72 -267q0 -168 94 -304q93 -134 246 -199l-426 -425l124 -124zM718 1052q0 36 30 66t70 30h206l-196 -197h-10q-40 0 -70 30t-30 71zM1316 1440l-146 -146h-352q-99 0 -174 -71q-72 -70 -72 -171q0 -74 36 -131t100 -89l-164 -164q-137 27 -224 134
q-86 108 -86 250q0 160 114 274t274 114h694z" />
</svg>