<svg xmlns="http://www.w3.org/2000/svg" xmlns:xlink="http://www.w3.org/1999/xlink" version="1.1" viewBox="-10 0 2058 2048">
   <path fill="currentColor"
d="M1125 1231q-224 0 -360 77q-97 58 -130 149q81 39 132 115t51 168q0 130 -89 219t-217 89q-126 0 -218 -89t-92 -219q0 -94 58 -175q57 -80 149 -113v-856q-92 -33 -149 -113q-58 -81 -58 -175q0 -130 92 -219t218 -89q128 0 217 89t89 219q0 95 -56 175q-56 81 -146 113
v543q154 -115 408 -115q182 0 288 -82q78 -58 106 -149q-81 -33 -134 -110t-53 -173q0 -125 89 -217q88 -91 216 -91t219 91t91 217q0 106 -60 187q-61 82 -156 106q-28 161 -121 269q-135 159 -384 159zM510 1639q-43 0 -72 29t-29 72t29 75q28 31 72 31q43 0 74 -31
q32 -32 32 -75t-32 -72t-74 -29zM510 202q-44 0 -72 31q-29 32 -29 75t29 72t72 29q42 0 74 -29t32 -72t-32 -75q-31 -31 -74 -31zM1538 409q-43 0 -74 28t-31 73q0 43 31 74t74 31q44 0 72 -31q29 -32 29 -74q0 -44 -29 -73q-28 -28 -72 -28z" />
</svg>