<svg xmlns="http://www.w3.org/2000/svg" xmlns:xlink="http://www.w3.org/1999/xlink" version="1.1" viewBox="-10 0 2058 2048">
   <path fill="currentColor"
d="M279 0h1490q39 0 65 29t26 67v371q0 39 -26 65t-65 26h-1490q-39 0 -65 -26t-26 -65v-371q0 -38 26 -67t65 -29zM279 745h1490q38 0 65 27q26 26 26 65v375q0 39 -26 65t-65 26h-1490q-39 0 -65 -26t-26 -65v-375q0 -39 26 -65q27 -27 65 -27zM279 1491h1490q39 0 65 26
t26 65v371q0 38 -26 67q-25 28 -65 28h-1490q-40 0 -65 -28q-26 -29 -26 -67v-371q0 -39 26 -65t65 -26zM745 375h92v-187h-92v187zM745 1116h92v-183h-92v183zM745 1861h92v-187h-92v187zM375 188v187h183v-187h-183zM375 933v183h183v-183h-183zM375 1674v187h183v-187
h-183z" />
</svg>