<svg xmlns="http://www.w3.org/2000/svg" xmlns:xlink="http://www.w3.org/1999/xlink" version="1.1" viewBox="-10 0 2068 2048">
   <path fill="currentColor"
d="M1060 613q160 0 274 114t114 274q0 37 -4 73l-456 -457q35 -4 72 -4zM1060 416q160 0 294 78q136 79 214 212q78 135 78 295q0 115 -52 224l344 343v-1248q0 -82 -57 -139t-139 -57h-1248l342 342q108 -50 224 -50zM2048 1925l-124 123l-174 -169h-1370q-82 0 -140 -57
q-58 -58 -58 -140v-1371l-182 -187l124 -124zM1370 1495l-146 -142q-80 37 -164 37q-160 0 -274 -114q-114 -115 -114 -275q0 -84 36 -164l-142 -147q-90 140 -90 307q0 164 78 299q78 136 212 213q133 77 298.5 77t305.5 -91z" />
</svg>