<svg xmlns="http://www.w3.org/2000/svg" xmlns:xlink="http://www.w3.org/1999/xlink" version="1.1" viewBox="-10 0 2068 2048">
   <path fill="currentColor"
d="M1024 1674q80 0 134 54t54 133t-54 133t-133 54t-133 -54t-54 -133t54 -133t132 -54zM1024 0q78 0 134 55q54 54 54 133t-54 133t-133 54t-133 -54t-54 -133t54 -133q54 -55 132 -55zM466 1395q80 0 134 54q54 55 54 133t-54 133q-54 54 -134 54q-78 0 -132 -54
q-54 -55 -54 -133t54 -133q54 -54 132 -54zM188 837q80 0 134 54t54 133t-54 133q-56 55 -134 55t-133 -55t-55 -133t56 -133q54 -54 132 -54zM466 279q78 0 133 55t55 133t-54 133q-54 54 -134 54q-78 0 -132 -54q-54 -55 -54 -133t55 -133t131 -55zM1582 1395q78 0 132 54
q56 55 56 133t-56 133q-54 54 -132 54t-132 -54q-56 -55 -56 -133t56 -133q54 -54 132 -54zM1860 837q80 0 134 54t54 133t-54 133q-56 55 -134 55t-132 -55q-54 -54 -54 -133t54 -133t132 -54zM1582 279q78 0 133 55t55 133t-56 133q-54 54 -132 54t-132 -54
q-56 -55 -56 -133t55 -133t133 -55z" />
</svg>