<svg xmlns="http://www.w3.org/2000/svg" xmlns:xlink="http://www.w3.org/1999/xlink" version="1.1" viewBox="-10 0 2058 2048">
   <path fill="currentColor"
d="M1639 0h-615v716l-255 -154l-259 154v-716h-101q-86 0 -146 60q-61 61 -61 142v1644q0 81 61 142q60 60 146 60h1230q87 0 147 -60t60 -142v-1644q0 -82 -60 -142t-147 -60zM1606 1683q-13 6 -73 48l-96 62q-64 44 -115 53q-41 2 -57.5 -25.5t-9.5 -85.5q22 -121 77 -326
q38 -136 33 -174q0 -43 -67 0l-77 44q-9 9 -12 9q-4 0 -12 -14l-5 -10q-5 -10 -5 -12t10 -12l125 -91q135 -92 185 -96q51 -5 60 43q4 28 -5 87l-53 197q-77 288 -69 315q7 26 55 2q1 -1 28.5 -18t48.5 -30l14 -10q5 -5 15 5l5 10q9 9 9 14q0 6 -9 15zM1533 928
q-43 0 -74 -31t-31 -75q0 -43 31 -74q32 -32 74 -32q43 0 75 32q31 31 31 74q0 44 -31 75t-75 31z" />
</svg>