<svg xmlns="http://www.w3.org/2000/svg" xmlns:xlink="http://www.w3.org/1999/xlink" version="1.1" viewBox="-10 0 2058 2048">
   <path fill="currentColor"
d="M51 1231q0 96 55 175q56 80 151 108v332h-206v202h615v-202h-207v-332q95 -28 151 -108t56 -175v-822h-615v822zM257 615h202v308h-202v-308zM1852 663l-100 -28q-24 -9 -44 -37q-19 -26 -19 -55v-442q0 -39 -31 -70t-70 -31h-307q-44 0 -72 31q-29 32 -29 70v442
q0 28 -22 58q-20 27 -50 43l-92 29q-65 23 -105 77q-39 52 -39 120v976q0 82 60 142t142 60h721q82 0 142 -60t60 -142v-985q0 -63 -39 -118q-40 -56 -106 -80zM1382 202h105v106h-105v-106zM1074 861l96 -34q96 -29 154 -106q58 -78 58 -178v-33h105v33q0 96 56 176
t146 108l106 34v163h-721v-163zM1795 1846h-721v-207h721v207z" />
</svg>