<svg xmlns="http://www.w3.org/2000/svg" xmlns:xlink="http://www.w3.org/1999/xlink" version="1.1" viewBox="-10 0 2068 2048">
   <path fill="currentColor"
d="M1818 1819h-1588v-1590h1588v1590zM1818 0h-1588q-96 0 -163 67t-67 162v1590q0 95 67 162t163 67h1588q96 0 164 -67q66 -66 66 -162v-1590q0 -96 -66 -162q-68 -67 -164 -67zM1536 1509q0 -79 -96 -144q-79 -53 -208 -85q-112 -27 -207.5 -27t-208.5 27
q-130 32 -208 85q-96 65 -96 144v86h1024v-86zM1024 1051q106 0 181 -75t75 -181q0 -107 -74 -182q-74 -74 -182 -74t-182 74t-74 182q0 107 74 181q76 75 182 75z" />
</svg>