<svg xmlns="http://www.w3.org/2000/svg" xmlns:xlink="http://www.w3.org/1999/xlink" version="1.1" viewBox="-10 0 2068 2048">
   <path fill="currentColor"
d="M1304 837h500l-310 -370h-190v370zM1534 1630q58 0 99 -41t41 -98t-42 -98q-42 -42 -98 -42t-98 42t-42 98t42 98q42 41 98 41zM466 1630q63 0 102 -41q38 -42 38 -98t-39 -98t-101 -42q-60 0 -99 42t-39 98t38 98q39 41 100 41zM1582 279l466 558v654h-236
q0 114 -82 196t-196 82t-196 -82q-82 -83 -82 -196h-510q0 113 -84 196q-82 82 -196 82t-196 -82t-82 -196h-188v-375h764l-576 -453v270h-188v-558h96l1020 562v-658h466z" />
</svg>