<svg xmlns="http://www.w3.org/2000/svg" xmlns:xlink="http://www.w3.org/1999/xlink" version="1.1" viewBox="-10 0 2062 2048">
   <path fill="currentColor"
d="M1127 0v202q220 28 396 161q177 133 260 334q84 203 60 423q-39 279 -235 478q-198 201 -481 234v206q277 -33 497 -194q219 -160 330 -411q110 -248 81 -529q-24 -236 -149 -433q-126 -198 -324 -322q-200 -125 -435 -149zM925 0q-307 28 -548 226l145 154
q180 -141 403 -169v-206v-5zM233 375q-198 237 -226 548h202q33 -225 168 -404zM7 1125q28 307 226 548l144 -144q-139 -182 -163 -404h-207zM522 1678l-145 139q242 198 548 231v-202q-220 -28 -403 -168zM675 1514l96 -399l-307 -264l404 -39l158 -370l159 375l403 34
l-307 264l96 399l-351 -211z" />
</svg>