<svg xmlns="http://www.w3.org/2000/svg" xmlns:xlink="http://www.w3.org/1999/xlink" version="1.1" viewBox="-10 0 2068 2048">
   <path fill="currentColor"
d="M717 1227q0 67 -46 111q-45 43 -108.5 43t-107.5 -43q-45 -43 -45 -108q0 -66 45 -111t108 -45t108 45q46 46 46 108zM1485 1074q-63 0 -108 45q-46 46 -46 111q0 64 46 108q44 43 107.5 43t108.5 -43q46 -44 46 -108q0 -65 -46 -111q-45 -45 -108 -45zM2008 684
q-38 -23 -79 -16q-42 8 -65 40l-14 20q-28 38 -82 38h-1488q-54 0 -82 -38l-14 -20q-24 -32 -65.5 -39.5t-76.5 15.5q-37 25 -41 68q-5 44 20 77l9 19q45 59 111 91q70 34 139 34h1488q70 0 140 -34q65 -31 110 -91l10 -19q24 -32 19 -77q-4 -42 -39 -68z" />
</svg>