<svg xmlns="http://www.w3.org/2000/svg" xmlns:xlink="http://www.w3.org/1999/xlink" version="1.1" viewBox="-10 0 2058 2048">
   <path fill="currentColor"
d="M1532 562v-186h186v1017l190 190v-1207q0 -80 -55 -135t-135 -55h-394q-41 -113 -146 -160q-106 -48 -212 -8q-125 41 -172 168h-282l380 376h640zM1060 186q39 0 66 28q26 29 26 67t-26 66q-28 29 -66 29q-40 0 -68 -29q-26 -27 -26 -66t26 -67q27 -28 68 -28zM1266 942
l-190 -190h456v190h-266zM152 66l-118 120l176 181v1327q0 80 55 135t135 55h1326l168 164l120 -120zM400 1694v-1141l200 199h-14v190h200l190 186h-390v190h580l376 376h-1142z" />
</svg>