<svg xmlns="http://www.w3.org/2000/svg" xmlns:xlink="http://www.w3.org/1999/xlink" version="1.1" viewBox="-10 0 2058 2048">
   <path fill="currentColor"
d="M1737 209q-43 0 -72 29t-29 77v100h-153l-143 -306q-20 -44 -39 -53q-37 -37 -95 -45q-57 -7 -110 17l-72 19l-72 -29q-53 -24 -110 -17q-58 8 -96 46q-18 19 -38 62l-143 306h-154v-100q0 -49 -28 -77q-29 -29 -74 -29q-46 0 -75 29q-28 28 -28 77v100q0 87 59 146
q60 60 146 60h1225q86 0 146 -60t60 -146v-100q0 -42 -29 -74t-76 -32zM206 2048v-307q0 -124 153 -225q127 -87 330 -139q179 -43 335 -43t335 43q203 52 330 139q153 101 153 225v307h-1636zM1646 1856v-115q0 -33 -96 -84q-87 -46 -230 -88q-149 -38 -296 -38
q-148 0 -297 38q-141 41 -229 88q-96 51 -96 84v115h1244zM1430 722v100q0 173 -119 292q-120 120 -287 120t-287 -120t-120 -292v-100h201v100q0 86 60 146t146 60t146 -60t60 -146v-100h200z" />
</svg>