<svg xmlns="http://www.w3.org/2000/svg" xmlns:xlink="http://www.w3.org/1999/xlink" version="1.1" viewBox="-10 0 2068 2048">
   <path fill="currentColor"
d="M2048 1925l-1924 -1925l-124 124l288 288q-97 125 -148 274q-54 153 -54 315q0 265 132 489q131 225 353.5 355t488.5 130q328 0 590 -201l274 274zM1060 1783q-210 0 -390 -105q-181 -105 -286 -286q-106 -180 -106 -391q0 -244 148 -452l1086 1088q-199 146 -452 146z
M686 316l-142 -142q235 -146 516 -146q267 0 490 130t354 354q130 223 130 489q0 279 -146 517l-142 -142q96 -174 96 -375q0 -211 -106 -391q-104 -179 -286 -285q-180 -105 -390 -105q-200 0 -374 96z" />
</svg>