<svg xmlns="http://www.w3.org/2000/svg" xmlns:xlink="http://www.w3.org/1999/xlink" version="1.1" viewBox="-10 0 2068 2048">
   <path fill="currentColor"
d="M96 932l188 10q19 -159 96 -290q77 -133 204 -226l-104 -160q-21 -34 -10 -72q10 -37 44.5 -56.5t69.5 -9.5q34 11 58 46l86 166q143 -62 296.5 -62t295.5 62l88 -166q23 -35 56 -46q36 -10 70.5 9.5t45.5 56.5q10 38 -12 72l-104 160q128 93 206 226q76 131 94 290
l188 -10q38 0 68 26q28 26 28 66t-28 66q-30 26 -68 26l-188 -10q-18 159 -94 290q-77 131 -206 224l104 162q22 34 12 72q-11 37 -46 56q-34 20 -70 10q-33 -11 -56 -46l-88 -166q-142 60 -295.5 60t-296.5 -60l-86 166q-24 35 -58 46q-35 10 -70 -10q-34 -19 -44 -56
q-11 -38 10 -72l104 -162q-128 -93 -204 -224q-77 -131 -96 -290l-188 10q-37 0 -66.5 -26t-29.5 -66t29.5 -66t66.5 -26zM750 962q23 -83 88 -142l-154 -236q-87 66 -140 160q-55 97 -72 206zM1024 744q43 0 84 14l130 -248q-104 -44 -213.5 -44t-212.5 44l130 248
q40 -14 82 -14zM1298 962l280 -12q-18 -109 -72 -206q-54 -94 -142 -160l-152 236q64 59 86 142zM1298 1084q-23 85 -86 144l152 236q88 -67 142 -162q54 -96 72 -204zM1024 1302q-45 0 -82 -12l-130 248q103 44 212.5 44t213.5 -44l-130 -248q-38 12 -84 12zM750 1084
l-278 14q17 108 72 204q53 95 140 162l154 -236q-64 -59 -88 -144z" />
</svg>