<svg xmlns="http://www.w3.org/2000/svg" xmlns:xlink="http://www.w3.org/1999/xlink" version="1.1" viewBox="-10 0 2068 2048">
   <path fill="currentColor"
d="M1068 936q113 0 189.5 -80t76.5 -188q0 -112 -77 -189t-187 -77t-190 78q-80 76 -80 188q0 110 80 188q80 80 188 80zM1068 578q28 0 52 16q22 17 32 40q11 21 4 50q-6 26 -24 46q-20 19 -46 24q-28 7 -52 -4q-24 -9 -40 -32q-14 -23 -14 -48q0 -39 24 -66q26 -26 64 -26
zM1434 924q80 -117 80 -256q0 -142 -80 -254q38 -12 80 -12q112 0 189 77t77 189q0 108 -76.5 188t-189.5 80q-39 0 -80 -12zM1068 1112q-153 0 -260 36q-92 32 -158 88q-52 50 -78 108q-25 42 -34 88l-4 38v176h1066v-176l-4 -38q-9 -48 -28 -88q-27 -58 -80 -108
q-67 -54 -158 -88q-112 -36 -262 -36zM712 1470q0 -30 22 -58q28 -50 96 -80q91 -42 238 -42q200 0 296 76q53 41 62 104h-714zM2048 1470v176h-268v-176q-4 -101 -46 -192q-42 -93 -112 -158q144 11 246 70q78 46 124 122q35 51 46 108zM568 748l100 126l-422 424
l-246 -266l104 -104l142 142z" />
</svg>