<svg xmlns="http://www.w3.org/2000/svg" xmlns:xlink="http://www.w3.org/1999/xlink" version="1.1" viewBox="-10 0 2068 2048">
   <path fill="currentColor"
d="M2048 0v202q-116 0 -232 274q-65 160 -178 558l-4 19q-94 332 -150 485q-88 248 -186 366q-120 144 -274 144t-274 -144q-99 -118 -188 -366q-55 -153 -148 -485l-6 -19q-112 -398 -178 -558q-115 -274 -230 -274v-202q154 0 274 144q99 118 188 366q55 153 148 485l6 19
q114 406 176 558q116 274 231.5 274t230.5 -274q66 -160 178 -558l4 -19q94 -332 150 -485q87 -246 188 -366q120 -144 274 -144z" />
</svg>