<svg xmlns="http://www.w3.org/2000/svg" xmlns:xlink="http://www.w3.org/1999/xlink" version="1.1" viewBox="-10 0 2058 2048">
   <path fill="currentColor"
d="M1024 0l-836 375v558q0 254 109 488q111 238 300 401q191 164 427 226q236 -62 427 -226q189 -163 300 -401q109 -234 109 -488v-558zM1237 1216l-187 187q-88 88 -205 88t-202 -85t-85 -203t87 -205l113 -113v52q0 66 22 122l4 13l-34 35q-44 39 -44 96q0 58 41 96
q42 39 98 39q57 0 96 -39l187 -187q44 -39 44 -96t-39 -96q-26 -26 -26 -55t21 -50q22 -22 55 -22q32 0 54 22q83 83 83 201q0 117 -83 200zM1499 955l-118 117v-52q0 -68 -17 -122l-5 -13l31 -35q43 -39 43 -96q0 -56 -39 -98q-38 -41 -98 -41q-59 0 -98 43l-187 183
q-39 43 -39 101q0 56 39 95q22 22 22 53q0 30 -22 52t-52 22q-31 0 -53 -22q-87 -82 -87 -203q0 -119 87 -202l188 -188q82 -82 202 -82q121 0 203 85t82 202q0 119 -82 201z" />
</svg>