<svg xmlns="http://www.w3.org/2000/svg" xmlns:xlink="http://www.w3.org/1999/xlink" version="1.1" viewBox="-10 0 2064 2048">
   <path fill="currentColor"
d="M640 1836q-211 -103 -348 -296q-136 -191 -160 -432h-128q20 260 162 476q143 216 368 340q226 124 490 124l56 -4l-324 -324zM1264 1808l-1024 -1024l544 -544l1024 1024zM872 148q-36 -36 -90 -36t-90 36l-544 544q-36 36 -36 90t36 90l1028 1028q36 36 90 36t90 -36
l544 -544q36 -36 36 -90t-36 -90zM1408 212q211 103 348 296q136 191 160 432h128q-20 -260 -162 -476q-143 -216 -368 -340q-226 -124 -490 -124l-56 4l324 324z" />
</svg>