<svg xmlns="http://www.w3.org/2000/svg" xmlns:xlink="http://www.w3.org/1999/xlink" version="1.1" viewBox="-10 0 2068 2048">
   <path fill="currentColor"
d="M1846 0h-1644q-82 0 -142 60t-60 142v1644q0 82 60 142t142 60h1644q82 0 142 -60t60 -142v-1644q0 -82 -60 -142t-142 -60zM1846 1846h-1644v-1644h1644v1644zM696 846l-152 -159l-136 130v-408h410l-130 134l158 154zM1202 697l158 -154l-130 -134h408v408l-134 -130
l-154 159zM1350 1202l154 158l134 -129v408h-408l130 -134l-158 -154zM846 1351l-158 154l130 134h-410v-408l136 129l152 -158z" />
</svg>