<svg xmlns="http://www.w3.org/2000/svg" xmlns:xlink="http://www.w3.org/1999/xlink" version="1.1" viewBox="-10 0 2068 2048">
   <path fill="currentColor"
d="M1024 0q-278 0 -514 137q-235 136 -372 373q-138 236 -138 514q0 200 78 392q75 189 220.5 334t333.5 221q192 77 392 77t392 -77q188 -76 333.5 -221t220.5 -334q78 -192 78 -392t-78 -392q-75 -189 -220.5 -334t-333.5 -221q-192 -77 -392 -77zM792 596q67 0 128 29
q59 28 104 77q44 -49 102 -77q62 -29 128 -29q120 0 202 82q82 81 82 197q0 135 -120 279q-76 94 -318 312l-76 72l-78 -72q-241 -218 -316 -312q-120 -144 -120 -279q0 -115 82 -197t200 -82z" />
</svg>