<svg xmlns="http://www.w3.org/2000/svg" xmlns:xlink="http://www.w3.org/1999/xlink" version="1.1" viewBox="-10 0 2068 2048">
   <path fill="currentColor"
d="M184 182h1460q78 0 132 53q54 54 54 131v441q-142 -137 -340 -163l154 -94v-184l-728 458l-732 -458v184l698 433q-60 120 -60 253q0 116 44 220q44 107 124 191h-806q-76 0 -130 -54q-54 -53 -54 -130v-1097q0 -78 53 -131t131 -53zM1418 824q172 0 292 120t120 292
q0 118 -66 218l284 283l-130 129l-282 -283q-102 64 -218 64q-172 0 -292 -120t-120 -291q0 -172 120 -292t292 -120zM1418 1004q-94 0 -160 69q-68 70 -68 163t67 160t161 67t160 -67q66 -66 66 -160t-66 -163t-160 -69z" />
</svg>