<svg xmlns="http://www.w3.org/2000/svg" xmlns:xlink="http://www.w3.org/1999/xlink" version="1.1" viewBox="-10 0 2068 2048">
   <path fill="currentColor"
d="M1104 0l-168 95l114 206l-56 210l-274 72l-158 -155l4 -232h-192v178h-178v191h234l158 160l-72 269l-214 59l-206 -118l-96 168l156 87l-92 155l170 96l118 -201l214 -59l50 50l136 -137l-54 -50l72 -269l274 -77l50 54l138 -137l-50 -54l54 -210l206 -119l-96 -168
l-156 86zM1860 232l-1626 1629l122 123l478 -475q73 52 152 69q128 36 252 2q126 -34 216 -125q92 -91 124 -219q32 -108 12 -210q-22 -107 -80 -192l474 -479zM1670 720q63 94 94 212q32 118 24 235l260 -310zM1724 1395q-46 101 -132 197q-87 82 -196 136l400 69z
M720 1664l138 384l310 -260q-128 4 -232 -19q-120 -32 -216 -105z" />
</svg>