<svg xmlns="http://www.w3.org/2000/svg" xmlns:xlink="http://www.w3.org/1999/xlink" version="1.1" viewBox="-10 0 2058 2048">
   <path fill="currentColor"
d="M724 621l222 98l226 -98l-103 221l103 222l-226 -99l-222 99l103 -222zM1472 0l113 306l305 118l-305 113l-113 305l-113 -305l-305 -113l305 -118zM370 1733h103v-103q0 -44 32 -74q30 -29 76 -29h25q-181 -103 -288 -286q-106 -181 -106 -396q0 -216 106 -397
q106 -182 288 -288q179 -105 394 -105q164 0 310 64l-40 103l-147 54q-56 -10 -123 -10q-112 0 -219 45t-187 125q-81 81 -126 187q-44 104 -44 219q0 158 76 291t209 209t288 76q157 0 283 -71q130 -73 207 -195t88 -270l99 -261l74 -25q39 118 39 246q0 218 -106 399
q-107 183 -288 286h25q46 0 76 29q32 30 32 74v103h104q88 0 150 62q61 61 61 150v103h-1683v-103q0 -88 62 -150t150 -62z" />
</svg>