<svg xmlns="http://www.w3.org/2000/svg" xmlns:xlink="http://www.w3.org/1999/xlink" version="1.1" viewBox="-10 0 2068 2048">
   <path fill="currentColor"
d="M1438 1242l-140 138l236 236l-236 236l140 138l234 -236l242 236l134 -138l-236 -236l236 -236l-134 -138l-242 234zM688 482q102 0 174 72t72 174t-72 174t-173 72t-173 -72t-72 -174t72 -174t172 -72zM688 40q192 0 347.5 91.5t248.5 250.5q94 157 94 346
q0 226 -176 560q-130 240 -334 504q-105 138 -180 216l-106 -124q-133 -169 -240 -324q-144 -216 -236 -416q-106 -238 -106 -416q0 -191 92 -346q93 -158 250 -250q156 -92 346 -92zM688 234q-135 0 -246 66q-114 69 -180 180q-68 114 -68 248q0 79 18 144q34 126 130 290
q122 225 346 522q229 -302 348 -522q94 -161 128 -290q20 -69 20 -144q0 -134 -68 -248q-65 -110 -180 -180q-112 -66 -248 -66z" />
</svg>