<svg xmlns="http://www.w3.org/2000/svg" xmlns:xlink="http://www.w3.org/1999/xlink" version="1.1" viewBox="-10 0 2068 2048">
   <path fill="currentColor"
d="M1860 1626v95h-1672v-95l188 -183v-558q0 -217 128 -390q129 -171 334 -233v-31q0 -74 54 -128q54 -55 132 -55t134 55q54 54 54 128v31q204 62 332 233q130 173 130 390v558zM1212 1813q0 79 -54 133t-133 54t-133 -54t-54 -133h374zM1744 157l-132 131q117 117 184 272
q64 152 64 325h188q0 -205 -78 -394q-80 -191 -226 -334zM0 885h188q0 -173 66 -325q66 -155 182 -272l-130 -131q-147 143 -226.5 334t-79.5 394z" />
</svg>