<svg xmlns="http://www.w3.org/2000/svg" xmlns:xlink="http://www.w3.org/1999/xlink" version="1.1" viewBox="-10 0 2068 2048">
   <path fill="currentColor"
d="M1334 1160h134v246l216 125l-74 117l-276 -159v-329zM1780 918q-9 -146 -108 -219q-102 -74 -256 -65q-158 9 -320 96q-41 -53 -108 -79q38 -172 142 -221q79 -42 116.5 -113t17.5 -144q-21 -73 -100 -119q-88 -54 -230 -54q-155 0 -234 104q-74 100 -68.5 258.5
t90.5 325.5q-54 37 -80 104q-172 -38 -220 -141q-38 -78 -108 -115q-69 -36 -140 -17q-74 19 -120 98q-54 87 -54 230q0 153 104 233q102 75 258 71q158 -4 326 -92q28 42 104 80q-37 170 -142 225q-78 33 -114 104q-36 70 -16 144q19 73 98 119q87 50 228 50q48 0 62 -8
q86 127 224 202q134 73 294 73q173 0 312 -83q142 -84 226 -226q84 -143 84 -313q0 -159 -74 -292q-72 -132 -194 -216zM892 801q38 0 63 25t25 64q0 40 -25 65t-65 25t-65 -25t-25 -65q0 -39 25 -64t67 -25zM1426 1869q-125 0 -228 -59q-101 -58 -160 -160
q-58 -103 -58 -226q0 -122 58 -225q59 -102 160 -160q103 -59 225.5 -59t224.5 59q104 59 162 160t58 225q0 125 -58 226t-162 160q-102 59 -222 59z" />
</svg>