<svg xmlns="http://www.w3.org/2000/svg" xmlns:xlink="http://www.w3.org/1999/xlink" version="1.1" viewBox="-10 0 2067 2048">
   <path fill="currentColor"
d="M1653 1505q-63 106 -154 106q-60 -5 -168 -63l-33 -24q-98 -59 -140 -67q-66 -20 -110 38q-38 43 -34 120q4 39 34 145l14 57q25 101 5 149q-32 66 -154 82q-100 -9 -120 -91q-14 -52 5 -173l10 -34q19 -113 19 -163q-4 -82 -58 -106q-47 -33 -91 0q-31 21 -82 91l-19 24
q-65 83 -110 106q-72 43 -154 0q-76 -63 -72 -115q5 -38 57 -101q67 -72 87 -130q38 -90 9 -197q-15 -40 -57 -48q-31 -5 -96 -5h-48q-85 -5 -125 -29q-58 -34 -67 -125q-4 -60 33 -91q24 -24 82 -48l19 -10q59 -21 77 -34q33 -29 36 -62q3 -34 -12 -67q-8 -24 -34 -58
l-19 -34q-25 -41 -22 -77q3 -39 46 -86q73 -58 149 -29q50 20 130 96l9 5q82 81 125 101q76 38 144 -5q49 -34 34 -96q-15 -39 -67 -125l-19 -29q-57 -88 -53 -134q0 -68 105 -96q93 -25 149 28q37 31 82 135l14 29q38 98 68 139q52 61 120 77q97 19 192 -67
q59 -54 158 -192l39 -49q100 -135 168 -163q96 -39 197 88.5t34 223.5q-44 64 -202 140l-53 19q-156 68 -207 111q-90 66 -62 153q15 48 67 48q32 0 111 -28l33 -15q91 -29 140 -19q77 19 110 120q34 101 -38 149q-48 32 -173 48l-87 10q-107 4 -149 14q-67 19 -72 58
q-4 38 34 67q22 21 86 53l44 24q73 39 96 82q33 63 -10 149zM1893 1740q-66 0 -105 -45t-39 -108q0 -64 39 -109t108 -45q70 0 110 45q41 45 41 109q0 62 -41 108q-40 45 -113 45z" />
</svg>