<svg xmlns="http://www.w3.org/2000/svg" xmlns:xlink="http://www.w3.org/1999/xlink" version="1.1" viewBox="-10 0 2058 2048">
   <path fill="currentColor"
d="M1487 202v615l-206 -202l-207 202v-615h-408v1644h317q15 86 72 202h-596q-82 0 -142 -63t-60 -139v-106h-206v-202h206v-413h-206v-202h206v-413h-206v-202h206v-106q0 -82 60 -142t142 -60h1230q79 0 142 62q65 63 65 140v1005q-81 -52 -207 -72v-933h-202zM257 1740
h202v-202h-202v202zM257 1125h202v-202h-202v202zM257 510h202v-202h-202v202zM1180 1639v207h817v-207h-817z" />
</svg>