<svg xmlns="http://www.w3.org/2000/svg" xmlns:xlink="http://www.w3.org/1999/xlink" version="1.1" viewBox="-10 0 2068 2048">
   <path fill="currentColor"
d="M1464 1558q40 0 68 28t28 71t-28 71q-28 27 -72 27q-42 0 -70 -27q-28 -28 -28 -71t28 -71t74 -28zM1464 1266q-197 0 -360 110q-161 109 -226 278q65 175 226 284q163 110 356 110q195 0 358 -110q160 -108 230 -284q-69 -169 -230 -278q-163 -110 -354 -110zM1464 1901
q-106 0 -177 -71t-71 -173q0 -103 71 -174t173 -71q104 0 175 71t71 174q0 102 -71 173t-171 71zM690 1723l-26 -69h-472v-1069h1564v544q140 62 192 109v-653q0 -77 -57 -137t-135 -60h-394v-196q0 -78 -57 -135t-135 -57h-392q-78 0 -135 57t-57 135v196h-394
q-76 0 -134 60q-58 61 -58 137v1069q0 77 58 138q57 59 134 59h568q-41 -57 -70 -128zM778 192h392v196h-392v-196z" />
</svg>