<svg xmlns="http://www.w3.org/2000/svg" xmlns:xlink="http://www.w3.org/1999/xlink" version="1.1" viewBox="-10 0 2068 2048">
   <path fill="currentColor"
d="M0 202q152 307 204 567q52 255 0 510q-52 260 -204 567h308q325 0 624 -173q276 -155 562 -476q44 63 108.5 99t137.5 36q130 0 219 -89t89 -219t-89 -219t-219 -89q-73 0 -137.5 36t-108.5 99q-286 -321 -562 -476q-299 -173 -624 -173h-308zM308 409q285 0 548 158
q242 147 504 457q-262 310 -504 457q-263 158 -548 158q230 -615 0 -1230zM1740 923q39 0 72 31q34 32 34 70t-34 70q-33 31 -74 31q-42 0 -71 -29t-29 -70t31 -72t71 -31z" />
</svg>