<svg xmlns="http://www.w3.org/2000/svg" xmlns:xlink="http://www.w3.org/1999/xlink" version="1.1" viewBox="-10 0 2068 2048">
   <path fill="currentColor"
d="M308 1846h1124v202h-1124v-202zM923 308h-106q-81 0 -141 60t-60 142h509q0 -82 -60 -142t-142 -60zM1432 615h615q0 82 -60 142t-141 60h-106q-167 0 -288 121t-121 293v101q0 168 -120 288t-288 120h-106q-168 0 -288 -120t-120 -288h-207q-81 0 -141 -60t-60 -147
v-308q0 -81 60 -141q61 -61 141 -61h1230zM409 817h-207v308h207v-308zM1740 308q86 0 146 60t60 142h101q4 -130 -86 -221q-92 -92 -221 -87q-82 0 -142 -60t-60 -142h-106q-5 130 86.5 221.5t221.5 86.5z" />
</svg>