<svg xmlns="http://www.w3.org/2000/svg" xmlns:xlink="http://www.w3.org/1999/xlink" version="1.1" viewBox="-10 0 2068 2048">
   <path fill="currentColor"
d="M0 255v207h202v-207h-202zM1846 255v207h202v-207h-202zM0 563v206h202v-206h-202zM308 563v206h202v-206h-202zM1230 563v206h202v-206h-202zM1538 563v206h202v-206h-202zM1846 563v206h202v-206h-202zM0 870v207h202v-207h-202zM308 870v207h202v-207h-202zM616 870
v207h202v-207h-202zM922 870v207h202v-207h-202zM1230 870v207h202v-207h-202zM1538 870v207h202v-207h-202zM1846 870v207h202v-207h-202zM0 1178v207h202v-207h-202zM308 1178v207h202v-207h-202zM616 1178v207h202v-207h-202zM922 1178v207h202v-207h-202zM1230 1178v207
h202v-207h-202zM1538 1178v207h202v-207h-202zM1846 1178v207h202v-207h-202zM308 1591v202h202v-202h-202zM616 1591v202h202v-202h-202zM922 1591v202h202v-202h-202zM1230 1591v202h202v-202h-202zM1538 1591v202h202v-202h-202z" />
</svg>