<svg xmlns="http://www.w3.org/2000/svg" xmlns:xlink="http://www.w3.org/1999/xlink" version="1.1" viewBox="-10 0 2058 2048">
   <path fill="currentColor"
d="M1024 1401q-234 0 -432 58q-202 59 -316 157q-116 98 -116 215v217h1728v-217q0 -116 -116 -215q-116 -98 -316 -157q-198 -58 -432 -58zM594 753q0 177 127 304q126 126 303 126t303 -126q127 -127 127 -304h-860zM968 0q-20 0 -35 15t-15 36v323h-111v-268l-36 20
q-46 26 -86 66q-51 55 -81 122q-40 90 -40 197l-20 10q-27 11 -41 35q-20 37 -20 91h1082q-4 -74 -46 -116q-20 -16 -35 -20q0 -198 -121 -319q-59 -59 -122 -86v268h-111v-323q0 -20 -13 -36q-12 -15 -37 -15h-112z" />
</svg>