<svg xmlns="http://www.w3.org/2000/svg" xmlns:xlink="http://www.w3.org/1999/xlink" version="1.1" viewBox="-10 0 2068 2048">
   <path fill="currentColor"
d="M408 460l72 8q48 -180 200 -300q151 -118 344 -118q111 0 214 44q103 43 182 122t122 182q44 103 44 214l-4 102q72 -48 158 -48q130 0 219 89t89 219t-89 219t-219 89h-1332q-166 0 -288 -122q-120 -120 -120 -290t120 -290t288 -120zM408 666q-86 0 -146 60t-60 144
t60 144t146 60h1332q42 0 74 -28q32 -29 32 -72.5t-32 -71.5q-32 -30 -74 -30h-356v-260q0 -147 -106 -252q-104 -102 -254.5 -102t-255.5 102q-104 104 -104 252v54h-256zM2048 1690l-308 308v-202h-1740v-208h1740v-206z" />
</svg>