<svg xmlns="http://www.w3.org/2000/svg" xmlns:xlink="http://www.w3.org/1999/xlink" version="1.1" viewBox="-10 0 2068 2048">
   <path fill="currentColor"
d="M2048 1933l-1920 -1933l-128 128l294 292q-97 120 -150 270q-52 153 -52 315q0 265 130 489q132 225 354.5 355t489.5 130q162 0 314 -53q153 -53 270 -148l274 270zM1066 1787q-212 0 -392 -105t-286 -286q-104 -180 -104 -391q0 -236 146 -448l352 352h-206v192h402
l534 540q-208 146 -446 146zM696 324l-148 -146q260 -146 522 -146t484 130q224 130 354 354q130 223 130 485q0 259 -146 521l-146 -146q100 -178 100 -371q0 -211 -104 -391q-105 -179 -286 -285q-180 -105 -390 -105q-193 0 -370 100zM1476 1101l-196 -192h274v192h-78z
" />
</svg>