<svg xmlns="http://www.w3.org/2000/svg" xmlns:xlink="http://www.w3.org/1999/xlink" version="1.1" viewBox="-10 0 2058 2048">
   <path fill="currentColor"
d="M1806 1856q-205 0 -394 -133q-179 128 -388 128t-388 -128q-189 133 -394 133h-192v192h192q202 0 394 -96q182 96 388 96t388 -96q192 96 394 96h192v-192h-192zM1806 293v-96q0 -42 -30.5 -69t-69.5 -27h-974v-101h-292v101h-96v192h96v877h-96v-192h-198v192h-96v197
h96v388h96q52 0 102 -4v-384h484v356q99 28 196 28v-384h96v-197h-96v-192h-196v192h-96v-877h782v452q-38 14 -60 44q-24 31 -24 66q0 69 60 105v114h64q22 0 42 19q18 18 18 43q0 24 -18 41q-18 16 -48 16t-48 -27q-14 -22 -38 -30q-21 -7 -42 7q-20 12 -28 36q-7 22 2 46
q27 40 68.5 66t91.5 26q72 0 125 -53t53 -130q0 -56 -34 -103q-34 -48 -84 -66v-5q60 -36 60 -105q0 -70 -64 -101v-461h196zM636 1042l-100 96v-137l100 -100v141zM636 754l-100 96v-137l100 -96v137zM536 558v-137l100 -96v137z" />
</svg>