<svg xmlns="http://www.w3.org/2000/svg" xmlns:xlink="http://www.w3.org/1999/xlink" version="1.1" viewBox="-10 0 2068 2048">
   <path fill="currentColor"
d="M1208 1364l622 621l218 -223l-622 -621zM1592 825q-70 0 -116 -19l-1180 1174l-218 -218l766 -767l-184 -184l-72 72l-150 -145v296l-74 73l-364 -369l74 -73h290l-144 -146l368 -368q92 -88 218 -88t218 88l-218 223l146 145l-74 73l186 185l188 -194q-20 -49 -20 -117
q0 -150 106 -257q105 -107 254 -107q90 0 164 44l-276 276l156 156l276 -277q44 74 44 165q0 150 -108 255q-105 104 -256 104z" />
</svg>