<svg xmlns="http://www.w3.org/2000/svg" xmlns:xlink="http://www.w3.org/1999/xlink" version="1.1" viewBox="-10 0 2068 2048">
   <path fill="currentColor"
d="M1924 2048l-270 -265h-104q-84 0 -141 -57t-57 -140v-109l-228 -229l-82 50q-70 41 -146 19q-79 -23 -120 -92l-146 -251q-31 -51 -26.5 -108t36.5 -102l-640 -640l124 -124l1924 1925zM1696 1097q0 -82 -56 -146l192 -110q77 -44 98 -128q21 -81 -20 -155l-136 -233
q-41 -73 -124 -96q-82 -22 -156 18l-552 320l690 695q64 -68 64 -165zM86 1061l340 594l246 -311l-192 -338z" />
</svg>