<svg xmlns="http://www.w3.org/2000/svg" xmlns:xlink="http://www.w3.org/1999/xlink" version="1.1" viewBox="-10 0 2058 2048">
   <path fill="currentColor"
d="M380 1123l138 -415h1012l138 415h-1288zM1530 1585q-56 0 -97 -41t-41 -97t41 -97t99 -41q57 0 96 41q40 41 40 97t-40 97q-39 41 -98 41zM518 1585q-59 0 -98 -41q-40 -41 -40 -97.5t40 -96.5q39 -41 96 -41q58 0 99 41t41 97t-41 97t-97 41zM1664 665q-19 -44 -52 -69
q-36 -26 -82 -26h-1012q-46 0 -82 26q-33 25 -52 69l-190 553v735q0 38 26 67q26 28 66 28h94q40 0 66 -28q26 -29 26 -67v-91h1104v91q0 38 26 67q26 28 66 28h94q40 0 66 -28q26 -29 26 -67v-735zM562 389q60 0 100 -41q38 -40 38 -100q0 -58 -68 -157q-31 -46 -70 -91
l-34 43q-43 60 -66 99q-38 64 -38 108q0 57 41 98t97 41zM1024 389q56 0 97 -41t41 -98q0 -43 -34 -108q-26 -44 -70 -99l-34 -43l-34 43q-44 55 -70 99q-34 65 -34 108q0 57 41 98t97 41zM1486 389q56 0 97 -41t41 -100q0 -58 -68 -157q-34 -51 -70 -91l-38 43
q-43 60 -66 99q-34 65 -34 108q0 58 38 98q40 41 100 41z" />
</svg>