<svg xmlns="http://www.w3.org/2000/svg" xmlns:xlink="http://www.w3.org/1999/xlink" version="1.1" viewBox="-10 0 2068 2048">
   <path fill="currentColor"
d="M1024 1212q-78 0 -132 -56q-54 -54 -54 -133t54 -133t133 -54t133 54t54 133t-54 133q-56 56 -134 56zM2048 1674h-2048v-184h280v-188h-280v-186h280v-184h-280v-188h280v-186h-280v-184h2048v184h-278v186h278v188h-278v184h278v186h-278v188h278v184zM1024 1390
q45 48 110 58q66 11 124 -22t80 -94q23 -63 4 -126q62 -13 104 -64q44 -54 44 -118t-44 -118q-43 -52 -104 -66q19 -61 -4 -124q-22 -62 -80 -96q-57 -31 -124 -20q-66 10 -110 58q-43 -48 -108 -58q-68 -11 -124 20q-59 34 -82 96q-22 63 0 124q-65 14 -108 66
q-44 52 -44 118t44 118q42 51 108 64q-22 62 0 126q23 61 82 94q57 33 124 22q64 -10 108 -58z" />
</svg>