<svg xmlns="http://www.w3.org/2000/svg" xmlns:xlink="http://www.w3.org/1999/xlink" version="1.1" viewBox="-10 0 2058 2048">
   <path fill="currentColor"
d="M1024 0q130 0 219 89t89 216t-89 219q-88 91 -219 91t-219 -91t-88 -219t88 -216q89 -89 219 -89zM1846 1639l-207 -557q-33 -96 -62 -145q-48 -67 -144 -120q-112 -53 -200 -77t-208.5 -24t-209.5 24q-84 23 -199 77q-96 53 -144 120q-31 53 -63 145l-207 557
q-19 87 125 183q85 55 279 135l19 9v-226q0 -143 265 -206l43 -10q-53 -77 -77 -164l178 -62v5q20 48 48 96q57 95 130 144q35 9 62 24q120 52 144 135q-209 82 -394 82l-101 -10v269l101 5q205 0 399 -82q182 -76 288 -149q150 -102 135 -178zM1385 1538q-67 0 -111 -45
q-43 -44 -43 -111q0 -65 43 -108t108 -43q67 0 111 43q45 44 45 108q0 66 -45 111t-108 45z" />
</svg>