<svg xmlns="http://www.w3.org/2000/svg" xmlns:xlink="http://www.w3.org/1999/xlink" version="1.1" viewBox="-10 0 2065 2048">
   <path fill="currentColor"
d="M1537 0q82 0 142 60t60 146v1022q0 86 -60 146t-142 60h-412v202h105q44 0 72 31q29 32 29 74h714v202h-714q0 42 -29 74q-28 31 -72 31h-412q-44 0 -72 -31q-29 -32 -29 -74h-714v-202h714q0 -42 29 -74q28 -31 72 -31h106v-202h-413q-81 0 -141 -60t-60 -146v-1022
q0 -86 60 -146t141 -60h1026zM1043 206q-134 0 -215 60t-77 180v5h197q0 -48 28 -72t72 -24q43 0 72 29t29 77t-24 84q-25 37 -62 60q-84 54 -111 93q-28 40 -28 122h201q0 -54 14 -79q15 -26 53 -50q72 -39 115 -98t43 -132q0 -116 -81 -185q-82 -70 -226 -70zM924 921v206
h201v-206h-201z" />
</svg>