<svg xmlns="http://www.w3.org/2000/svg" xmlns:xlink="http://www.w3.org/1999/xlink" version="1.1" viewBox="-10 0 2068 2048">
   <path fill="currentColor"
d="M202 308q-82 0 -142 60t-60 142v1028q0 82 60 142t142 60h1644q82 0 142 -60t60 -142v-1028q0 -82 -60 -142t-142 -60h-1644zM616 716q168 0 288 120t120 291t-120 291t-292 120q-170 0 -290 -120q-120 -121 -120 -291t120 -291q120 -120 294 -120zM1124 716h722v822
h-722v-822zM616 923q-88 0 -148 60t-60 144q0 85 60 145t144 60t144 -60q62 -61 62 -145q0 -83 -62 -144q-60 -60 -140 -60z" />
</svg>