<svg xmlns="http://www.w3.org/2000/svg" xmlns:xlink="http://www.w3.org/1999/xlink" version="1.1" viewBox="-10 0 2068 2048">
   <path fill="currentColor"
d="M562 371l-326 327q-153 153 -206.5 355t0 407t206.5 355q155 152 356 205q202 54 404 0t356 -207l556 -558q70 -67 70 -163t-70 -163q-13 -18 -34 -31l34 -35q70 -70 70 -165q0 -96 -70 -166q-12 -12 -48 -39q27 -68 14 -135q-14 -71 -66 -122q-57 -57 -142 -66
q-83 -9 -154 40q-13 -22 -30 -40q-68 -65 -166 -65t-166 65l-230 236q-15 -20 -30 -35q-67 -70 -164 -70t-164 70zM694 501q12 -13 32 -13t33 13t13 33t-14 33l-296 296q84 83 84 198q0 116 -84 194l132 131q99 -95 127.5 -233t-23.5 -264l588 -584q12 -17 32 -17t34 15
q12 14 12 35q0 20 -12 33l-428 427l130 131l558 -558q14 -13 34 -13q18 0 31 13t13 32q0 20 -12 33l-558 558l130 131l462 -458q13 -17 34 -17q18 0 32 15q12 14 12 35q0 19 -12 32l-528 523l132 135l330 -331q14 -13 34 -13q18 0 31 13t13 33t-12 33l-558 557
q-116 117 -272 159q-154 42 -312 0t-272 -156q-114 -115 -156 -273q-42 -157 0 -311q42 -157 158 -273zM2048 1491q0 148 -76 276q-77 130 -204 205q-129 76 -278 76v-139q174 0 296 -122t122 -296h140zM0 558q0 -147 78 -277q75 -128 204 -204q129 -77 276 -77v140
q-174 0 -296 122t-122 296h-140z" />
</svg>