<svg xmlns="http://www.w3.org/2000/svg" xmlns:xlink="http://www.w3.org/1999/xlink" version="1.1" viewBox="-10 0 2068 2048">
   <path fill="currentColor"
d="M1846 1024q0 -220 -112 -411q-111 -191 -299.5 -301t-411 -110t-411 110t-300.5 301q-110 191 -110 411t110 411q111 190 300 300q191 111 411.5 111t410.5 -111q190 -110 300 -300q112 -191 112 -411zM2048 1024q0 278 -138 514q-136 236 -372 373q-237 137 -514.5 137
t-513.5 -137q-235 -136 -372 -373q-138 -236 -138 -514t138 -514q137 -237 372 -373q236 -137 513.5 -137t514.5 137q236 137 372 373q138 236 138 514zM1182 1125v308l404 -409l-404 -409v308h-720v202h720z" />
</svg>