<svg xmlns="http://www.w3.org/2000/svg" xmlns:xlink="http://www.w3.org/1999/xlink" version="1.1" viewBox="-10 0 2068 2048">
   <path fill="currentColor"
d="M10 188l336 327q-158 109 -158 278q0 79 48 157q-103 25 -170 111q-66 85 -66 194q0 168 162 279q-66 66 -66 188q0 130 96 228q97 98 228 98h1210q97 0 192 -65l64 65l122 -122l-1876 -1860zM764 933h-250q-55 0 -98 -44q-40 -42 -40 -93q0 -50 30 -90q30 -38 78 -52z
M746 1861h-326q-54 0 -96 -41q-44 -42 -44 -98t44 -98q43 -42 96 -42h326v279zM764 1395h-436q-56 0 -98 -42q-42 -41 -42 -96q0 -56 42 -98q41 -43 98 -43h622l92 96h-18q-91 0 -160.5 50t-99.5 133zM1630 1861h-326v-279h112l266 270q-18 9 -52 9zM568 271l-128 -131
q38 -60 110 -100q70 -40 148 -40h654q129 0 226 98q96 98 96 229q0 78 -44 157q104 30 168 113q62 83 62 196q0 79 -48 157q101 34 168 120q68 85 68 185q0 169 -162 279q44 57 58 113l-248 -252h26q56 0 98 -42q40 -41 40 -96q0 -56 -40 -98q-42 -43 -98 -43h-306
l-186 -183h304q56 0 98 -44q42 -42 42 -98q0 -55 -41 -96t-99 -41h-584l-186 -187h588q51 0 94 -42q44 -42 44 -98t-44 -98q-42 -41 -94 -41h-654q-39 0 -76 24q-35 22 -54 59z" />
</svg>