<svg xmlns="http://www.w3.org/2000/svg" xmlns:xlink="http://www.w3.org/1999/xlink" version="1.1" viewBox="-10 0 2068 2048">
   <path fill="currentColor"
d="M1946 1125l-206 207h-20q-33 -73 -96 -113q-63 -41 -140 -41q-75 0 -138 41q-63 40 -96 113h-126v-822h-508v-202h-208v202h-100v-202h-206v202h-102v206h102v207h206v-207h100v207h208v-207h306v822h328q32 68 96 111q62 43 138 43q78 0 140 -43q64 -43 96 -111h20
l206 202h102v-615h-102zM1484 1538q-43 0 -71.5 -31t-28.5 -74q0 -45 28 -73t72 -28t72 28q30 29 30 73q0 42 -30 74q-28 31 -72 31z" />
</svg>