<svg xmlns="http://www.w3.org/2000/svg" xmlns:xlink="http://www.w3.org/1999/xlink" version="1.1" viewBox="-10 0 2058 2048">
   <path fill="currentColor"
d="M1024 510q140 0 257 69q120 71 188 188q69 119 69 257t-69 257q-68 117 -188 188q-117 69 -257 69t-257 -69q-118 -70 -187 -188q-70 -120 -70 -257t70 -257q69 -118 187 -188q117 -69 257 -69zM1024 716q-130 0 -219 89q-88 88 -88 219t88 219q89 89 219 89t219 -89
t89 -219t-89 -219t-219 -89zM1024 0l245 351q-119 -43 -245 -43t-245 43zM135 510l428 -34q-97 81 -159 187q-62 104 -86 236zM140 1538l178 -389q25 128 86 233q63 108 159 195zM1913 510l-183 389q-25 -128 -86 -236q-62 -110 -159 -187zM1908 1538l-423 34
q95 -80 159 -190q61 -105 86 -233zM1024 2048l-245 -351q119 43 243 43t247 -43z" />
</svg>