<svg xmlns="http://www.w3.org/2000/svg" xmlns:xlink="http://www.w3.org/1999/xlink" version="1.1" viewBox="-10 0 2058 2048">
   <path fill="currentColor"
d="M1364 1876h-340v172h-512v-912q-156 -72 -248 -218t-92 -322q0 -159 80 -298q80 -138 218 -218q139 -80 298 -80t298 80q138 80 218 218q80 139 80 298q0 176 -92 322t-248 218v228h340v512zM1196 1536h-344v-516l60 -20q124 -48 204 -158t80 -246q0 -117 -58 -214
q-59 -99 -156 -154q-98 -56 -214 -56t-214 56q-97 55 -156 154q-58 97 -58 214q0 136 80 246t204 158l60 20v856h168v-168h344v-172zM1024 596q0 108 -74 182t-182 74t-182 -74t-74 -180q0 -105 74 -182q73 -76 182 -76t182 76q74 77 74 180zM768 684q36 0 60 -26t24 -60
t-24 -60t-60 -26t-60 26t-24 60t24 60t60 26zM1708 596h168v512h-168v-512zM1708 1452h168v-172h-168v172z" />
</svg>