<svg xmlns="http://www.w3.org/2000/svg" xmlns:xlink="http://www.w3.org/1999/xlink" version="1.1" viewBox="-10 0 2068 2048">
   <path fill="currentColor"
d="M1842 1844q0 82 -60 142t-144 60t-144 -60t-60 -144t60 -144t144 -60t144 60t60 146zM614 1638q-82 0 -142 60t-60 144t60 144t144 60t144 -60t60 -145t-60 -143q-60 -60 -146 -60zM638 1292l-6 14q0 10 8 18q8 6 16 6h1186v206h-1228q-82 0 -142 -60t-60 -146
q0 -52 24 -96l140 -254l-370 -776h-206v-202h336l96 202h1514q40 0 71 31t31 73q0 20 -16 48l-364 662q-24 49 -72 78q-48 28 -104 28h-764zM768 922h152v-206h-248zM1026 716v206h306v-206h-306zM1332 616v-206h-306v206h306zM1650 716h-216v206h100zM1822 410h-388v206
h272zM528 410l96 206h296v-206h-392z" />
</svg>