<svg xmlns="http://www.w3.org/2000/svg" xmlns:xlink="http://www.w3.org/1999/xlink" version="1.1" viewBox="-10 0 2068 2048">
   <path fill="currentColor"
d="M1219 1174h-23q-13 9 -18 24q-4 14 0 27l83 210q131 -84 177 -223zM875 1202q-9 -28 -37 -28l-228 38q51 138 177 218l83 -205q5 -5 5 -23zM1057 1281q-9 -9 -24 -14q-14 -5 -28 0v5q-10 5 -14 9l-111 196q122 42 242 14q17 -3 46 -14zM1401 830l-168 144v5q-14 9 -14 25
t10 26t18 14l219 60q9 -154 -65 -274zM1089 844q0 19 12 28t25 9q14 0 24 -5l181 -130q-103 -103 -251 -121zM898 876q15 10 28 7q14 -3 21 -14q7 -12 12 -21l9 -223l-42 5q-127 29 -214 116zM801 1044q13 -4 21 -19q7 -13 4 -25q-3 -13 -11 -21l-168 -154q-78 133 -60 279z
M964 1109l60 33l60 -33l14 -65l-41 -51h-66l-46 51zM2043 1239l-177 -758q-13 -64 -70 -93l-712 -345q-60 -24 -120 0l-712 345q-57 29 -70 93l-177 758q-9 33 0 61l5 19q4 13 14 23l498 628q4 0 4 5l28 23q20 10 42 14q10 5 33 5h804h14l47 -19q12 -8 32 -28l489 -614
q13 -18 23 -37l5 -19q9 -28 0 -61zM1308 1537q0 15 4 19q-4 12 -4 23q23 45 42 70l23 33l5 14q5 14 2 30t-19 25q-17 9 -32 5q-16 -4 -26 -19l-9 -18l-14 -47q-4 -10 -10.5 -24.5t-10.5 -24t-7 -16.5q-10 -9 -23 -14l-5 -14q-200 75 -395 0l-10 14q-13 5 -18 9
q-21 38 -33 80l-14 37l-5 9q-5 19 -20 26t-33 2q-17 -5 -26 -21q-9 -17 0 -35v-4q5 -5 5 -14l23 -33q25 -34 42 -70q0 -15 -4 -23l9 -19q-182 -107 -247 -307l-18 5q-15 -10 -24 -10q-18 3 -79 19q-18 12 -37 19h-9q-18 5 -35 -3t-21 -23q-5 -17 2 -32q7 -16 26 -21l18 -5
q15 -5 42 -5q26 0 79 -14q10 -5 19 -18l19 -5q-33 -206 83 -382l-14 -14q0 -14 -9 -23q-29 -29 -60 -46l-38 -19l-9 -9q-13 -9 -18 -28q-5 -18 9 -35t32 -14q22 4 33 11l33 38q36 36 60 51q10 5 23 5l19 9q110 -120 274 -158q42 -10 79 -14v-19q9 -5 14 -19q0 -42 -4 -79
q-5 -20 -5 -42v-9q0 -19 9 -32q9 -14 28 -17q18 -3 33 10q14 12 14 30v18q0 22 -5 42q-4 37 -4 79q0 14 14 19v19q208 18 353 172l14 -14q14 5 28 0q34 -24 56 -51l28 -33l9 -5q13 -13 33 -13q18 0 30 13q11 12 11 31q0 16 -14 30l-4 5l-9 9q-16 11 -38 19q-39 25 -60 46
q-9 9 -9 23l-14 14q116 171 83 382l19 5q9 13 19 18q36 10 79 14h41q0 5 10 5q17 4 30 19q12 13 7 30q-5 16 -16 28q-12 12 -31 7l-23 -5q-18 -4 -32 -14q-47 -15 -79 -19q-14 0 -24 5h-18q-29 95 -93 175t-149 132z" />
</svg>