<svg xmlns="http://www.w3.org/2000/svg" xmlns:xlink="http://www.w3.org/1999/xlink" version="1.1" viewBox="-10 0 2068 2048">
   <path fill="currentColor"
d="M1432 101h-1230q-82 0 -142 60t-60 147v509q0 87 60 147t142 60h326q28 0 56 17q25 16 40 45q25 82 102 121q75 39 158 14q97 -33 130 -135q10 -28 36 -45q28 -17 60 -17h322q86 0 146 -60t60 -147v-509q0 -87 -60 -147t-146 -60zM1432 817h-476q-19 -39 -54 -67
q-38 -30 -84 -34q-43 4 -80 34q-36 28 -56 67h-480v-509h1230v509zM2048 0v1385q0 176 -90 331q-88 154 -242 243q-156 89 -332 89q-134 0 -254 -51q-123 -52 -216 -141q-152 38 -298 -20q-145 -57 -236 -182l196 -87q68 72 162 92q92 19 184 -20q43 -22 58 -33
q63 -47 96 -121q34 -73 30 -153l192 -87q33 146 -18 284q-51 140 -166 231q119 86 270 86q192 0 327 -135t135 -326v-1385h202z" />
</svg>