<svg xmlns="http://www.w3.org/2000/svg" xmlns:xlink="http://www.w3.org/1999/xlink" version="1.1" viewBox="-10 0 2058 2048">
   <path fill="currentColor"
d="M902 597l-141 -141q137 -75 287 -75q152 0 279 75q126 74 205 206q78 130 78 285v358l-190 -190v-168q0 -159 -111 -270t-265 -111q-73 0 -142 31zM1809 359l-133 -129l-199 195l133 133zM1751 898v190h283v-190h-283zM336 898h-283v190h283v-190zM137 67l1857 1862
l-119 119l-66 -66h-1521q0 -76 55 -131t135 -55h1141l-93 -97h-1048v-752q0 -137 57 -239l-521 -518zM668 1513h668l-659 -663q0 13 -5 48q-4 28 -4 49v566zM1137 0h-186v283h186v-283z" />
</svg>