<svg xmlns="http://www.w3.org/2000/svg" xmlns:xlink="http://www.w3.org/1999/xlink" version="1.1" viewBox="-10 0 2058 2048">
   <path fill="currentColor"
d="M837 1000q342 -68 654 -161v-655l-170 -48q-200 -53 -362 -87q-236 -49 -354 -49q-191 0 -336 127q-144 126 -170 319t83 351q110 160 297 208l78 576h96q4 68 40 127q34 56 98 94q63 38 100 102q37 66 42 144h91q0 -96 -48 -183t-131 -140q-53 -43 -74 -65
q-26 -35 -26 -79h92v-581zM278 511q0 -135 96 -231t231 -96q356 34 699 140v375q-343 106 -699 140q-135 0 -231 -96t-96 -232zM1954 651q-110 5 -205 -52q-80 -44 -166 -40v-96q108 0 205 53q77 43 166 43v92zM1954 372q-87 5 -166 -44q-96 -52 -205 -48v92q89 -5 166 43
q96 52 205 48v-91zM1954 743q-88 5 -166 -39q-97 -57 -205 -53v92q89 0 166 43q97 53 205 53v-96zM745 511q0 58 -41 99t-99 41q-57 0 -98 -41t-41 -99q0 -57 41 -98t98 -41q58 0 99 41t41 98z" />
</svg>