<svg xmlns="http://www.w3.org/2000/svg" xmlns:xlink="http://www.w3.org/1999/xlink" version="1.1" viewBox="-10 0 2068 2048">
   <path fill="currentColor"
d="M230 0h1588q96 0 164 67q66 66 66 162v1590q0 96 -66 162q-68 67 -164 67h-1588q-96 0 -163 -67t-67 -162v-1590q0 -95 67 -162t163 -67zM1366 229v1590h452v-1590h-452zM230 229v454h906v-454h-906zM230 912v224h224v-224h-224zM572 912v224h222v-224h-222zM912 912v224
h224v-224h-224zM230 1253v224h224v-224h-224zM572 1253v224h222v-224h-222zM912 1253v224h224v-224h-224zM912 1595v224h224v-224h-224zM572 1595v224h222v-224h-222zM230 1595v224h224v-224h-224z" />
</svg>