<svg xmlns="http://www.w3.org/2000/svg" xmlns:xlink="http://www.w3.org/1999/xlink" version="1.1" viewBox="-10 0 2058 2048">
   <path fill="currentColor"
d="M476 460q-62 0 -110 37q-50 38 -68 94l-174 473v984h398v-913l146 -389l224 103h334v-197h-286l-384 -183q-43 -14 -80 -9zM724 1552h1200v196h-1200v-196zM822 202q0 79 -59 138t-139 59q-82 0 -142 -59q-58 -58 -58 -140q0 -83 58 -141q60 -59 142 -59q80 0 139 59
t59 143zM1924 1299q0 65 -46 107q-46 43 -104 43q-60 0 -106 -43q-44 -41 -44 -105t44 -108t106 -44q60 0 104 44q46 45 46 106zM724 952v197h202v103q0 80 58 138q58 59 138 59h202q84 0 142 -59q58 -58 58 -138v-300h-200v197h-202v-99q0 -41 -28 -70q-28 -28 -70 -28
h-300z" />
</svg>