<svg xmlns="http://www.w3.org/2000/svg" xmlns:xlink="http://www.w3.org/1999/xlink" version="1.1" viewBox="-10 0 2068 2048">
   <path fill="currentColor"
d="M1740 817q0 102 -126 183q-116 77 -228 77t-200 -77q-86 -76 -86 -183h-154q0 107 -86 183q-87 77 -200 77q-111 0 -228 -77q-124 -81 -124 -183h-78q-28 108 -28 207q0 220 110 411q111 190 300 300q191 111 411.5 111t410.5 -111q190 -110 300 -300q112 -191 112 -411
q0 -99 -30 -207h-76zM1024 202q-225 0 -414 113q-186 112 -298 300h1422q-111 -188 -298 -300q-188 -113 -412 -113zM2048 1024q0 200 -78 392q-75 189 -220.5 334t-333.5 221q-192 77 -392 77t-392 -77q-188 -76 -333.5 -221t-220.5 -334q-78 -192 -78 -392t78 -392
q75 -189 220.5 -334t333.5 -221q192 -77 392 -77t392 77q188 76 333.5 221t220.5 334q78 192 78 392zM1024 1562q-132 0 -246 -50q-116 -52 -182 -137l144 -144q34 53 110 89q77 36 173.5 36t172.5 -36q79 -37 112 -89l144 144q-67 85 -184 137q-113 50 -244 50z" />
</svg>