<svg xmlns="http://www.w3.org/2000/svg" xmlns:xlink="http://www.w3.org/1999/xlink" version="1.1" viewBox="-10 0 2068 2048">
   <path fill="currentColor"
d="M754 106q-44 0 -75 31t-31 81v106h540v-106q0 -51 -30 -81q-30 -31 -80 -31h-324zM0 430l118 769q19 127 110 212q61 81 202 101q0 46 30 76t82 30h860q50 0 80 -30q30 -31 30 -76l-218 -647h218l354 536l182 -106l-354 -541l142 -86l-112 -182l-278 161h-152v-217h-752
v435l-86 536q-99 -15 -152 -61q-60 -61 -76 -162l-120 -748h-108zM108 1725v217h1728v-217h-1728z" />
</svg>