<svg xmlns="http://www.w3.org/2000/svg" xmlns:xlink="http://www.w3.org/1999/xlink" version="1.1" viewBox="-10 0 2068 2048">
   <path fill="currentColor"
d="M0 1124h206q25 -82 97.5 -135t160.5 -53q90 0 164 54l622 -436l106 152l-618 436q8 30 8 74q0 118 -80 198t-200 80q-91 0 -162 -52q-73 -52 -98 -134h-206v-184zM2048 1124v184h-204q-26 82 -98 134t-164 52q-118 0 -198 -80t-80 -198t80 -198q80 -82 198 -82
q91 0 163.5 53t98.5 135h204zM466 1124q-38 0 -64 26t-26 66t26 66t64 26q40 0 66 -26t26 -66t-26 -66t-66 -26zM1582 1124q-40 0 -66 26t-26 66t26 66t66 26t66 -26t26 -66t-26 -66t-66 -26z" />
</svg>