<svg xmlns="http://www.w3.org/2000/svg" xmlns:xlink="http://www.w3.org/1999/xlink" version="1.1" viewBox="-10 0 2068 2048">
   <path fill="currentColor"
d="M1304 2048h-188v-187h188v187zM1674 1861h-184v187h184v-187zM1304 1491h-188v183h188v-183zM558 1861h-182v187h182v-187zM558 1491h-182v183h182v-183zM1674 1491h-184v183h184v-183zM1304 1116h-188v187h188v-187zM1674 1116h-184v187h184v-187zM1860 745q78 0 134 55
q54 54 54 133v1115h-188v-1115h-926v1115h-188v-745h-558v745h-188v-745q0 -78 56 -133q54 -54 132 -54h558v-183q0 -78 55 -133t133 -55v-187q0 -74 54 -128q54 -55 128 -55h188v-375h186v375h184q78 0 132 55q54 54 54 128v187zM1674 745v-187h-558v187h558z" />
</svg>