<svg xmlns="http://www.w3.org/2000/svg" xmlns:xlink="http://www.w3.org/1999/xlink" version="1.1" viewBox="-10 0 2068 2048">
   <path fill="currentColor"
d="M1024 536q-116 0 -197 81t-81 197q0 118 80 200q80 80 198 80t198 -80q82 -82 82 -200q0 -116 -81 -197t-199 -81zM1024 1282q-124 0 -232 -64q-107 -64 -170 -170q-64 -107 -64 -233.5t64 -232.5q63 -107 170 -170q106 -64 232.5 -64t233.5 64q106 63 170 170
q62 106 62 232.5t-62 233.5q-64 106 -170 170q-109 64 -234 64zM1024 118q-338 0 -618 192q-280 193 -406 504q110 279 340 460t522 224q291 44 564 -64q212 -83 374 -244q160 -161 248 -376q-126 -312 -406 -504q-278 -192 -618 -192zM558 1744h188v186h-188v-186z
M934 1744h182v186h-182v-186zM1304 1744h186v186h-186v-186z" />
</svg>