<svg xmlns="http://www.w3.org/2000/svg" xmlns:xlink="http://www.w3.org/1999/xlink" version="1.1" viewBox="-10 0 2068 2048">
   <path fill="currentColor"
d="M2048 1368q0 196 -84 367q-83 169 -234 277l-264 -265l144 -144l120 125q86 -124 106 -259h-198v-202h198q-33 -142 -106 -260l-120 125l-144 -144l120 -125q-119 -86 -254 -101v197h-208v-197q-138 33 -254 101l308 308q7 0 25.5 -5t26.5 -5q82 0 142 60q60 61 60 147
q0 85 -60 146q-60 60 -144 60t-144 -60t-60 -146q0 -26 10 -53l-308 -308q-86 123 -102 260h194v202h-194q29 142 102 259l124 -125l144 144l-268 265q-150 -107 -234 -277q-84 -171 -84 -367q0 -220 112 -411q110 -190 298 -301q185 -110 410 -110t410 110q188 111 298 301
q112 191 112 411zM480 372l-336 -336l-144 144l336 337l-134 134h414v-413z" />
</svg>