<svg xmlns="http://www.w3.org/2000/svg" xmlns:xlink="http://www.w3.org/1999/xlink" version="1.1" viewBox="-10 0 2058 2048">
   <path fill="currentColor"
d="M1514 1865l-270 -293l114 -110l156 156l346 -352l114 137zM754 1851h274q30 50 84 110q-56 87 -160 87q-82 0 -140 -58q-58 -57 -58 -139zM74 1755v-101l196 -192v-585q0 -229 136 -409q134 -180 348 -244v-32q0 -78 57 -135t141 -57q82 0 139 57t57 135v32
q215 65 350 244q134 180 134 409v105l-96 -9l-96 9v-105q0 -130 -66 -244q-67 -114 -178 -179q-113 -66 -244 -66q-133 0 -246 66q-111 65 -178 179q-66 113 -66 244v681h490q0 99 32 197h-910z" />
</svg>