<svg xmlns="http://www.w3.org/2000/svg" xmlns:xlink="http://www.w3.org/1999/xlink" version="1.1" viewBox="-10 0 2068 2048">
   <path fill="currentColor"
d="M822 236q114 0 222 44t188 125l-296 296h702v-701l-242 241q-108 -114 -260 -178q-150 -63 -314 -63q-202 0 -377.5 93t-290.5 255q-116 161 -142 353h236q43 -198 202 -331q159 -134 372 -134zM1478 1304q122 -167 148 -367h-236q-39 204 -198 334q-161 131 -370 131
q-120 0 -228 -44q-106 -44 -188 -126l296 -295h-702v701l242 -241q115 115 262 178q149 63 318 63q273 0 482 -159l568 569l176 -175z" />
</svg>