<svg xmlns="http://www.w3.org/2000/svg" xmlns:xlink="http://www.w3.org/1999/xlink" version="1.1" viewBox="-10 0 2058 2048">
   <path fill="currentColor"
d="M1869 1319q0 51 -18 121q-17 66 -49 124q-31 55 -59 73t-79 18q-20 0 -61 -32l-70 -70q-64 -64 -89 -85q-50 -41 -86 -44t-92 30q-30 11 -116 66q-111 67 -178 98q-103 51 -178 51q-126 0 -191 -46q-84 -55 -84 -192q0 -117 98 -206t229 -89q89 0 187 47q58 32 149 94
q67 47 94 60q47 24 79 24q34 0 89 -33q33 -14 105 -63q76 -52 105 -68q55 -28 84 -28q66 -13 103 42q28 41 28 108zM1486 384q-51 -30 -156 -82q-120 -59 -152 -77q-72 -49 -225 -225q-25 106 -44 152q-21 49 -63 82q-140 96 -253 150q-147 78 -261 215q-206 244 -206 570
q0 248 131 454q123 198 329 311q209 114 444.5 114t441.5 -110q207 -110 323 -301q126 -205 126 -459q14 -318 -178 -565q-100 -129 -252 -225z" />
</svg>