<svg xmlns="http://www.w3.org/2000/svg" xmlns:xlink="http://www.w3.org/1999/xlink" version="1.1" viewBox="-10 0 2058 2048">
   <path fill="currentColor"
d="M1844 1487q-202 0 -370 -63h-34q-38 0 -66 29l-226 226q-222 -117 -396 -290q-174 -175 -280 -387l226 -225q24 -20 28 -48q5 -30 -10 -53q-52 -186 -52 -369q0 -39 -31 -70t-69 -31h-360q-38 0 -69 31t-31 70q0 475 234 878q230 398 628 628q402 235 878 235
q38 0 69 -31t31 -70v-359q0 -39 -31 -70t-69 -31zM310 412h152q10 111 48 264l-120 125q-65 -199 -80 -389zM1738 1842q-186 -15 -388 -82l124 -120q164 39 264 39v163zM1638 638l96 96l-96 96v-192zM1638 197l96 96l-96 95v-191zM1302 873l234 -235v388h48l294 -292
l-222 -221l222 -220l-294 -293h-48v388l-234 -235l-72 72l282 288l-282 288z" />
</svg>