<svg xmlns="http://www.w3.org/2000/svg" xmlns:xlink="http://www.w3.org/1999/xlink" version="1.1" viewBox="-10 0 2068 2048">
   <path fill="currentColor"
d="M1364 684h-168v256h-256v168h256v256h168v-256h256v-168h-256v-256zM172 1024q0 -177 94 -322q95 -146 246 -218v-184q-227 79 -370 278q-142 197 -142 446t142 446q143 199 370 278v-184q-151 -72 -246 -218q-94 -145 -94 -322zM1280 256q-208 0 -384 104t-280 280
t-104 384t104 384t280 280t384 104t384 -104t280 -280t104 -384t-104 -384t-280 -280t-384 -104zM1280 1620q-159 0 -298 -80q-138 -80 -218 -218q-80 -139 -80 -298t80 -298q80 -138 218 -218q139 -80 298 -80t298 80q138 80 218 218q80 139 80 298t-80 298
q-80 138 -218 218q-139 80 -298 80z" />
</svg>