<svg xmlns="http://www.w3.org/2000/svg" xmlns:xlink="http://www.w3.org/1999/xlink" version="1.1" viewBox="-10 0 2068 2048">
   <path fill="currentColor"
d="M912 1707h224v-230h-224v230zM1024 341q-186 0 -320 134q-132 133 -132 320h222q0 -91 68 -158q66 -66 162 -66t162 66q68 67 68 158q0 67 -44 122q-29 35 -100 86q-96 75 -134 133q-64 89 -64 229h224q0 -86 54 -154q33 -45 116 -118q88 -76 118 -122q54 -75 54 -176
q0 -187 -134 -320q-134 -134 -320 -134zM230 0h1588q96 0 164 67q66 66 66 162v1590q0 96 -66 162q-68 67 -164 67h-1588q-96 0 -163 -67t-67 -162v-1590q0 -95 67 -162t163 -67z" />
</svg>