<svg xmlns="http://www.w3.org/2000/svg" xmlns:xlink="http://www.w3.org/1999/xlink" version="1.1" viewBox="-10 0 2068 2048">
   <path fill="currentColor"
d="M340 98q-102 0 -172 70q-72 72 -72 172v50q-40 0 -68 28t-28 68v390q0 39 28 70q27 30 68 30h490q42 0 68 -30q28 -30 28 -70v-390q0 -40 -28 -68t-68 -28v-50q0 -101 -73 -171.5t-173 -70.5zM340 194q64 0 104 44q42 44 42 102v50h-294v-50q0 -58 44 -102t104 -44z
M1718 194q-36 0 -62 28l-184 178l366 366l182 -178q28 -28 28 -70q0 -40 -28 -68l-228 -228q-31 -28 -74 -28zM1372 504l-1078 1080v366h364l1080 -1080z" />
</svg>