<svg xmlns="http://www.w3.org/2000/svg" xmlns:xlink="http://www.w3.org/1999/xlink" version="1.1" viewBox="-10 0 2068 2048">
   <path fill="currentColor"
d="M1846 74h-1644q-82 0 -142 60t-60 148v1230q0 86 60 146t142 60h788q-20 -84 -20 -154q0 -31 6 -52h-774v-616h1644v34q109 33 202 110v-758q0 -88 -60 -148t-142 -60zM1846 488h-1644v-206h1644v206zM1926 1272l122 -120v412h-410l184 -182q-78 -76 -184 -76
q-104 0 -180 76q-74 76 -74 182t74 180q76 76 180 76q66 0 116 -26q52 -27 92 -76h172q-43 117 -146 186q-106 70 -234 70q-168 0 -288 -120t-120 -291t120 -291t288 -120t288 120z" />
</svg>