<svg xmlns="http://www.w3.org/2000/svg" xmlns:xlink="http://www.w3.org/1999/xlink" version="1.1" viewBox="-10 0 2058 2048">
   <path fill="currentColor"
d="M1595 971q0 156 -78 281q-76 122 -213 194q-134 71 -280 71q-147 0 -281 -71q-135 -71 -212 -194q-78 -125 -78 -281h-182q0 176 86 334q84 155 235 260q148 103 326 129v354h212v-354q178 -26 326 -129q151 -105 235 -260q86 -158 86 -334h-182zM892 314q0 -56 38 -94
t94 -38q55 0 93 38t38 94l-5 667q0 53 -35 89q-36 37 -91 37q-57 0 -94 -37q-38 -38 -38 -89v-667zM1024 1295q136 0 230 -97q93 -96 93 -227v-647q0 -137 -93 -230q-94 -94 -230 -94t-230 94t-94 230v647q0 130 94 227t230 97z" />
</svg>