<svg xmlns="http://www.w3.org/2000/svg" xmlns:xlink="http://www.w3.org/1999/xlink" version="1.1" viewBox="-10 0 2068 2048">
   <path fill="currentColor"
d="M1860 96q74 0 126 48q52 47 62 122v1128q0 74 -50 128.5t-124 59.5h-662v186h182v184h-740v-184h184v-186h-650q-73 0 -126 -50q-52 -49 -62 -120v-1134q0 -71 52 -126q49 -52 124 -56h1684zM1860 278h-1672v1116h1672v-1116zM1024 932q152 0 262 54q108 54 108 130v96
h-740v-96q0 -76 110 -130q109 -54 260 -54zM1024 466q80 0 134 54t54 131t-54 131t-133 54t-133 -54t-54 -131t54 -131t132 -54z" />
</svg>