<svg xmlns="http://www.w3.org/2000/svg" xmlns:xlink="http://www.w3.org/1999/xlink" version="1.1" viewBox="-10 0 2068 2048">
   <path fill="currentColor"
d="M1130 287q-145 0 -230 230q-76 209 -76 507t76 507q85 230 230 230q216 0 420 -91q222 -92 354 -253q144 -171 144 -393q0 -221 -144 -392q-134 -163 -354 -254q-204 -91 -420 -91zM1138 1555q-38 -39 -66 -167q-44 -156 -44 -364q0 -207 44 -363q28 -130 66 -168
q156 4 316 67q173 68 274 177q118 128 118 287t-118 287q-105 109 -278 177q-161 63 -312 67zM622 871q0 19 -5 77t-5 76v62l-564 144l-48 -196zM10 512l756 -191q-36 52 -52 119q-1 3 -34 115l-622 153zM642 1383q15 104 52 192l-646 162l-48 -191z" />
</svg>