<svg xmlns="http://www.w3.org/2000/svg" xmlns:xlink="http://www.w3.org/1999/xlink" version="1.1" viewBox="-10 0 2068 2048">
   <path fill="currentColor"
d="M1372 780l92 86l-888 886h-90v-86zM1724 194q-37 0 -68 28l-174 178l360 370l174 -188q32 -27 32 -66q0 -38 -32 -70l-224 -224q-26 -28 -68 -28zM1372 504l-1078 1076v370h370l1068 -1084zM586 390v-50q0 -102 -70 -172t-174 -70t-174 70q-72 72 -72 172v50
q-44 0 -70 26t-26 70v390q0 45 26 72q26 28 70 28h490q42 0 69 -27t27 -73v-390q0 -45 -28 -70q-26 -26 -68 -26zM486 390h-294v-50q0 -58 46 -102q45 -44 104 -44q56 0 100 44t44 102v50z" />
</svg>