<svg xmlns="http://www.w3.org/2000/svg" xmlns:xlink="http://www.w3.org/1999/xlink" version="1.1" viewBox="-10 0 2058 2048">
   <path fill="currentColor"
d="M840 654h182v558h-182v-558zM1210 0h-558v188h558v-188zM930 1769q-178 0 -326 -87t-236 -237q-86 -150 -86 -327t86 -327q88 -150 236 -237t326.5 -87t327.5 87q147 87 234 237q88 150 88 325q89 0 186 35v-35q0 -144 -48 -277q-47 -132 -134 -242l130 -135
q-67 -75 -130 -130l-130 135q-114 -90 -244 -138q-137 -50 -280 -50q-226 0 -418 114q-193 115 -304 305q-114 193 -114 418q0 226 114 420q112 194 304 305q194 112 418 112q77 0 158 -14q-44 -87 -58 -178q-54 8 -100 8zM1676 1582v-279h-188v279h-278v187h278v279h188
v-279h278v-187h-278z" />
</svg>