<svg xmlns="http://www.w3.org/2000/svg" xmlns:xlink="http://www.w3.org/1999/xlink" version="1.1" viewBox="-10 0 2068 2048">
   <path fill="currentColor"
d="M96 213l118 -118l1739 1740l-118 118l-370 -371q26 49 26 92v187h-1490v-187q0 -114 139 -205q115 -79 301 -122q167 -44 302 -44q138 0 303 39q186 48 305 127l-409 -410q-86 56 -196 56q-153 0 -262 -109t-109 -261q0 -109 57 -196zM746 374q152 0 261 109t109 262v17
l-388 -388h18zM1469 405q139 157 139 346q0 191 -139 330l-157 -157q57 -78 57 -179t-57 -183zM1774 95q179 184 242 419q63 236 0 469t-242 412l-152 -149q130 -148 173.5 -327t0 -357t-173.5 -318z" />
</svg>