<svg xmlns="http://www.w3.org/2000/svg" xmlns:xlink="http://www.w3.org/1999/xlink" version="1.1" viewBox="-10 0 2058 2048">
   <path fill="currentColor"
d="M1373 900l-98 197h-150l98 -197h-150v-300h300v300zM975 900l-103 197h-150l103 -197h-150v-300h300v300zM1022 0q-170 0 -324 63t-274 183q-119 119 -185 277q-65 155 -65 325q0 171 65 326q66 157 185 276q120 120 274 183t324 63h51v352q239 -113 422 -314
q177 -190 278 -426q101 -235 101 -462q0 -228 -115 -424q-117 -199 -309 -310q-194 -112 -428 -112z" />
</svg>