<svg xmlns="http://www.w3.org/2000/svg" xmlns:xlink="http://www.w3.org/1999/xlink" version="1.1" viewBox="-10 0 2068 2048">
   <path fill="currentColor"
d="M1178 44q78 0 136 58t58 134v198h394q78 0 136 58t58 140l-1094 1078v198h-672q-78 0 -136 -58t-58 -140v-1078q0 -82 58 -140t136 -58h396v-198q0 -78 56 -134q58 -58 136 -58h396zM1178 434v-198h-396v198h396zM1868 1038q-22 0 -36 14l-102 100l202 198l96 -96
q20 -15 20 -36q0 -23 -20 -38l-124 -128q-18 -14 -36 -14zM1674 1208l-598 594v202h204l598 -594z" />
</svg>