<svg xmlns="http://www.w3.org/2000/svg" xmlns:xlink="http://www.w3.org/1999/xlink" version="1.1" viewBox="-10 0 2068 2048">
   <path fill="currentColor"
d="M922 1332h202v206h-202v-206zM922 510h202v615h-202v-615zM1024 0q-278 0 -514 137q-235 136 -372 373q-138 236 -138 514q0 200 78 392q75 189 220.5 334t333.5 221q192 77 392 77t392 -77q188 -76 333.5 -221t220.5 -334q78 -192 78 -392t-78 -392
q-75 -189 -220.5 -334t-333.5 -221q-192 -77 -392 -77zM1024 1846q-221 0 -412 -111q-189 -110 -300 -300q-110 -191 -110 -411t110 -411q112 -191 300.5 -301t411 -110t411 110t299.5 301q112 191 112 411t-112 411q-110 190 -300 300q-190 111 -410 111z" />
</svg>