<svg xmlns="http://www.w3.org/2000/svg" xmlns:xlink="http://www.w3.org/1999/xlink" version="1.1" viewBox="-10 0 2068 2048">
   <path fill="currentColor"
d="M1024 0q200 0 392 77q188 76 333.5 221t220.5 334q78 192 78 392q0 87 -60 147t-142 60h-1644q-82 0 -142 -60t-60 -147q0 -200 78 -392q75 -189 220.5 -334t333.5 -221q192 -77 392 -77zM1024 615q86 0 146 -60t60 -146q0 -87 -60 -147t-146 -60t-146 60t-60 147
q0 86 60 146t146 60zM1538 1024q82 0 142 -60t60 -144q0 -85 -60 -145t-144 -60t-144 60t-60 145q0 84 60 144t146 60zM510 1024q86 0 146 -60t60 -144q0 -85 -60 -145t-144 -60t-144 60t-60 145q0 84 60 144t142 60zM1332 1332l128 456l10 58q0 82 -60 142t-146 60h-480
q-88 0 -148 -60t-60 -142l10 -58l130 -456h616z" />
</svg>