<svg xmlns="http://www.w3.org/2000/svg" xmlns:xlink="http://www.w3.org/1999/xlink" version="1.1" viewBox="-10 0 2058 2048">
   <path fill="currentColor"
d="M1645 2048l-54 -49l-45 -41q-150 -146 -207 -212q-76 -98 -76 -186t63 -151t148 -63q53 0 97 20q48 22 74 56q30 -34 77 -56q43 -20 99 -20q86 0 148 58q63 58 63 151q0 92 -81 191q-53 67 -202 212l-45 41zM1789 963h-144v-387q0 -75 -56 -133q-55 -56 -133 -56h-387
v-144q0 -98 -70 -171q-69 -72 -168 -72q-100 0 -169 72q-70 73 -70 171v144h-387q-77 0 -132 56q-57 59 -57 133v365h144q110 0 183 76q74 77 74 185q0 107 -74 184t-183 77h-144v364q0 74 57 133q55 57 132 57h365v-145q0 -107 76 -182q75 -74 185 -74q69 0 123 29
q59 32 93 83h31q-9 -54 -9 -94q0 -155 79 -290q77 -133 211 -210q131 -76 286 -76q221 0 387 148v-4q0 -98 -72 -169q-71 -70 -171 -70z" />
</svg>