<svg xmlns="http://www.w3.org/2000/svg" xmlns:xlink="http://www.w3.org/1999/xlink" version="1.1" viewBox="-10 0 2058 2048">
   <path fill="currentColor"
d="M1124 1022h154v288l250 148l-78 130l-326 -187v-379zM1944 1329q0 197 -96 362t-261 261t-361 96q-147 0 -274 -55q-130 -56 -226 -151h-316q-86 0 -146 -60t-60 -146v-1228h1228v235q224 67 368 257q144 189 144 429zM510 1329q0 -193 96 -358q96 -164 262 -261
q166 -96 358 -96h-816v1022h168q-68 -145 -68 -307zM1226 820q-140 0 -258 68q-116 67 -184 184q-66 116 -66 257q0 140 66 256q69 119 184 187q119 70 258 70q137 0 256 -70q117 -69 186 -187q70 -119 70 -256q0 -138 -70 -257q-68 -115 -186 -184q-118 -68 -256 -68z
M1178 101h354v206h-1428v-206h354l106 -101h508z" />
</svg>