<svg xmlns="http://www.w3.org/2000/svg" xmlns:xlink="http://www.w3.org/1999/xlink" version="1.1" viewBox="-10 0 2068 2048">
   <path fill="currentColor"
d="M1244 466h448v-450h-676v518l228 228v-296zM1016 857l-858 -857l-158 159l1016 1016v32q-85 -49 -182 -59q-96 -10 -194 22q-165 59 -248 214q-85 157 -40 325q44 168 190 265q144 95 318 66q170 -28 278 -161q106 -131 106 -302v-175l644 646l160 -159zM788 1820
q-90 0 -156 -66q-66 -67 -66 -158q0 -92 66 -159q66 -66 158 -66q94 0 160 66t66 159q0 92 -66 158t-162 66z" />
</svg>