<svg xmlns="http://www.w3.org/2000/svg" xmlns:xlink="http://www.w3.org/1999/xlink" version="1.1" viewBox="-10 0 2068 2048">
   <path fill="currentColor"
d="M510 1639h-202v-206h202v206zM510 1231h-202v-207h202v207zM922 1639h-206v-206h206v206zM922 1231h-206v-207h206v207zM1332 1639h-208v-206h208v206zM1332 1231h-208v-207h208v207zM1740 1639h-202v-206h202v206zM1740 1231h-202v-207h202v207zM1432 615q-38 0 -69 -31
t-31 -74v-308q0 -39 31 -70t72 -31t72 31t31 70v308q0 43 -31 74t-75 31zM616 615q-44 0 -75 -31t-31 -74v-308q0 -39 31 -70t72 -31t71 31q32 32 32 70v308q0 42 -32 74q-30 31 -68 31zM1830 308h-138v202q0 105 -77 182t-183 77q-105 0 -180 -77q-74 -75 -74 -182v-178
q0 -10 -7 -17t-17 -7h-260q-10 0 -16 7q-8 8 -8 17v178q0 107 -74 182q-76 77 -180 77q-106 0 -183 -77t-77 -182v-202h-140q-87 -5 -151.5 55t-64.5 147v1230q0 87 64 147q65 60 152 60h1614q88 0 152 -60q66 -60 66 -147v-1230q0 -87 -66 -147q-64 -60 -152 -55z
M1846 1740h-1644v-817h1644v817z" />
</svg>