<svg xmlns="http://www.w3.org/2000/svg" xmlns:xlink="http://www.w3.org/1999/xlink" version="1.1" viewBox="-10 0 2058 2048">
   <path fill="currentColor"
d="M1495 760l-356 -212v-231l178 -173l-144 -144l-135 130l-134 -130l-145 144l178 173v231l-259 149l-202 -115l-63 -241l-197 53l48 183l-177 48l53 197l235 -62l207 115v298l-207 115l-235 -62l-53 197l177 48l-48 183l202 53l63 -241l202 -115l254 149v231l-178 173
l145 144l134 -130l135 130l144 -144l-178 -173v-231l356 -207v-533zM783 875l255 -149l255 149v298l-255 149l-255 -149v-298zM1754 1125v-615h207v615h-207zM1754 1538v-206h207v206h-207z" />
</svg>