<svg xmlns="http://www.w3.org/2000/svg" xmlns:xlink="http://www.w3.org/1999/xlink" version="1.1" viewBox="-10 0 2058 2048">
   <path fill="currentColor"
d="M789 454q0 -48 35 -80t83 -32t80 32t32 80v506l138 16l560 251q48 21 72 61t24 94v496q0 69 -51 117q-50 47 -120 53h-735q-71 0 -118 -53l-554 -475l85 -90q32 -32 80 -32h27l362 192v-1136zM678 843v-389q0 -97 66 -163q67 -67 160 -67t160 67t67 163v389
q106 -58 168 -163q61 -103 61 -226q0 -187 -133 -320q-134 -134 -323 -134q-188 0 -322 134t-134 320q0 123 64 226q66 106 166 163z" />
</svg>