<svg xmlns="http://www.w3.org/2000/svg" xmlns:xlink="http://www.w3.org/1999/xlink" version="1.1" viewBox="-10 0 2068 2048">
   <path fill="currentColor"
d="M838 484q0 -130 -78 -240q-76 -110 -202 -148v344h-278v-344q-123 39 -200 148q-80 110 -80 242t80 240q77 106 200 150v1024q0 52 48 52h186q18 0 32 -14q12 -12 12 -30v-1024q126 -43 202 -152q78 -111 78 -248zM1394 654v0q-178 4 -326 90q-148 88 -236 236
q-86 149 -86 324q0 177 86 326q87 147 236 234q151 88 326 88q178 0 330 -88q150 -87 236 -234q88 -149 88 -327.5t-88 -326.5q-86 -148 -236 -236q-150 -86 -330 -86zM1394 1768q-126 0 -232 -62q-107 -63 -168 -170q-60 -104 -60 -233.5t60 -232.5q61 -108 168 -170
q106 -64 234 -64q130 0 236 64q105 61 168 170q60 105 60 232.5t-60 233.5q-63 108 -168 170q-106 62 -238 62zM1304 932v462l334 206l74 -110l-270 -162v-396h-138z" />
</svg>