<svg xmlns="http://www.w3.org/2000/svg" xmlns:xlink="http://www.w3.org/1999/xlink" version="1.1" viewBox="-10 0 2058 2048">
   <path fill="currentColor"
d="M1894 923q0 38 -29 70q-28 31 -72 31h-53v207q0 82 -60 142t-142 60h-413v413h106q81 0 141 60q61 61 61 142h-817q0 -82 60 -142t142 -60h105v-413h-413q-82 0 -142 -60t-60 -142v-207h-53q-44 0 -72 -31q-29 -32 -29 -72q0 -41 29 -73q28 -31 72 -31h53v-615l202 106
v509h53q44 0 72 31q29 32 29 73q0 40 -29 72q-28 31 -72 31h-53v207h413v-207h-53q-44 0 -72 -31q-29 -32 -29 -72q0 -41 29 -73q28 -31 72 -31h53v-817l202 101v716h53q44 0 72 31q29 32 29 73q0 40 -29 72q-28 31 -72 31h-53v207h413v-207h-53q-44 0 -72 -31t-28 -72
q0 -42 28 -73t72 -31h53v-615l202 106v509h53q44 0 72 31q29 32 29 75z" />
</svg>