<svg xmlns="http://www.w3.org/2000/svg" xmlns:xlink="http://www.w3.org/1999/xlink" version="1.1" viewBox="-10 0 2068 2048">
   <path fill="currentColor"
d="M98 428h-98l384 -379l378 379h-92v286h-192v-286h-192v286h-188v-286zM1142 897l124 102h162v-285h192v285h284v-379h94l-472 -477l-478 477h94v277zM1218 1950q-76 -133 -76 -286q0 -110 42 -214q43 -103 122 -174l-544 -469l-664 572h188v571h284v-473h384v473h264z
M1914 1334l-202 196l-196 -196l-134 134l196 196l-196 201l134 134l196 -201l202 201l134 -134l-202 -201l202 -196z" />
</svg>