<svg xmlns="http://www.w3.org/2000/svg" xmlns:xlink="http://www.w3.org/1999/xlink" version="1.1" viewBox="-10 0 2068 2048">
   <path fill="currentColor"
d="M1024 0q200 0 392 77q188 76 333.5 221t220.5 334q78 192 78 392t-78 392q-75 189 -220.5 334t-333.5 221q-192 77 -392 77t-392 -77q-188 -76 -333.5 -221t-220.5 -334q-78 -192 -78 -392t78 -392q75 -189 220.5 -334t333.5 -221q192 -77 392 -77zM1024 870
q-62 0 -108 46t-46 108t46 108t108 46t108 -46t46 -108t-46 -108t-108 -46zM462 870q-67 0 -112 46q-42 44 -42 108t42 108q45 46 110 46q64 0 110 -46t46 -108t-46 -108t-108 -46zM1586 870q-62 0 -108 46q-46 45 -46 108t46 108q46 46 110 46t108 -46q44 -44 44 -108
t-44 -108q-44 -46 -110 -46z" />
</svg>