<svg xmlns="http://www.w3.org/2000/svg" xmlns:xlink="http://www.w3.org/1999/xlink" version="1.1" viewBox="-10 0 2068 2048">
   <path fill="currentColor"
d="M1024 0q-278 0 -514 137q-235 136 -372 373q-138 236 -138 514t138 514q137 237 372 373q236 137 514 137q200 0 392 -77q188 -76 333.5 -221t220.5 -334q78 -192 78 -392q0 -278 -138 -514q-136 -236 -372 -373q-237 -137 -514 -137zM702 596l220 216l-110 111
l-110 -111l-106 111l-110 -111zM1024 1586q-178 0 -320 -98q-142 -99 -204 -257h1048q-64 159 -205 257t-319 98zM1452 923l-106 -111l-110 111l-112 -111l222 -216l216 216z" />
</svg>