<svg xmlns="http://www.w3.org/2000/svg" xmlns:xlink="http://www.w3.org/1999/xlink" version="1.1" viewBox="-10 0 2065 2048">
   <path fill="currentColor"
d="M1331 614h-206v-206h206v206zM2045 1741v202h-714q0 42 -29 74q-28 31 -72 31h-412q-44 0 -72 -31q-29 -32 -29 -74h-714v-202h714q0 -42 29 -74q28 -31 72 -31h106v-202h-413q-81 0 -141 -60t-60 -146v-1022q0 -86 60 -146t141 -60h1026q82 0 142 60t60 146v1022
q0 86 -60 146t-142 60h-412v202h105q44 0 72 31q29 32 29 74h714zM717 206h-206v1022h206v-1022zM924 1228h201v-408h206q86 0 146 -60t60 -146v-206q0 -82 -60 -142t-146 -60h-407v1022z" />
</svg>