<svg xmlns="http://www.w3.org/2000/svg" xmlns:xlink="http://www.w3.org/1999/xlink" version="1.1" viewBox="-10 0 2058 2048">
   <path fill="currentColor"
d="M1578 328q79 96 116 194q35 92 35 199q0 133 -57 256q-57 122 -184 260q-167 178 -251 313q-113 178 -113 331q0 39 18 109l5 23q0 20 -9 29q-10 9 -17 5q-7 -5 -7 -15q-76 -100 -113 -194q-38 -96 -38 -198q0 -132 59 -256q57 -120 182 -260q168 -173 255 -313
q109 -180 109 -331q0 -32 -14 -109l-5 -24q0 -18 10 -23t19 4zM792 25q100 128 100 284q0 184 -180 384q-125 129 -189 237q-85 137 -85 246q0 54 23 90q0 10 -9 19t-19 4l-5 -4q-109 -138 -109 -289q0 -191 180 -384q124 -140 189 -241q85 -132 85 -246q0 -54 -23 -90v-19
q33 0 42 9zM830 811q172 -177 256 -312q108 -178 108 -332q0 -31 -14 -108l-4 -24q0 -20 9 -29t14 -4t5 14q79 96 116 194q35 92 35 199q0 134 -56 255q-56 122 -185 261q-169 180 -251 312q-113 178 -113 332q0 35 19 108l4 24q0 19 -9 28q-10 9 -17 5q-7 -5 -7 -14
q-76 -100 -113 -194q-38 -96 -38 -199q0 -131 59 -255q58 -122 182 -261z" />
</svg>