<svg xmlns="http://www.w3.org/2000/svg" xmlns:xlink="http://www.w3.org/1999/xlink" version="1.1" viewBox="-10 0 2068 2048">
   <path fill="currentColor"
d="M1544 132q-67 0 -122 38q-55 39 -74 106l-82 259q-58 0 -110 24l-186 -202l-136 -148q-62 52 -66 139q-5 85 52 148l188 202q-15 23 -22 50q-8 28 -12 55l-470 106q19 82 92 127q72 45 152 26l268 -57q29 47 78 81l-144 456q82 24 155.5 -14t98.5 -120l86 -259
q58 0 110 -24l322 350q61 -56 64 -142q3 -82 -54 -146l-182 -201q12 -20 20 -51q8 -28 12 -55l466 -106q-20 -82 -89.5 -127t-154.5 -26l-264 58q-34 -49 -78 -82l144 -456q-28 -9 -62 -9zM1286 688q16 0 38 5q62 19 90 77q30 58 10 117q-19 60 -76 89q-58 28 -118 12
q-60 -17 -88 -74q-29 -57 -10 -120q16 -50 58 -77q44 -29 90 -29h6zM614 1168q-195 134 -412 134h-202v206h202q211 0 412 -105q109 62 244 86l64 -201q-163 -19 -308 -120zM1884 1302q10 116 -52 206h210v-206h-158zM614 1575q-196 135 -412 135h-202v206h202
q210 0 412 -101q192 96 408 96t408 -96q202 101 412 101h200v-206h-200q-216 0 -412 -135q-189 130 -408 130t-408 -130z" />
</svg>