<svg xmlns="http://www.w3.org/2000/svg" xmlns:xlink="http://www.w3.org/1999/xlink" version="1.1" viewBox="-10 0 2068 2048">
   <path fill="currentColor"
d="M2048 932h-188v-188h-186v188h-184v184h184v186h186v-186h188v-184zM654 932v222h370q-22 101 -96 174q-104 106 -274 106t-286 -120q-114 -120 -114 -290t114 -290q116 -120 280 -120t264 104l178 -170q-179 -174 -436 -174q-179 0 -328 88q-150 86 -238 236t-88 326
t88 326q87 148 238 236t330.5 88t321.5 -80q143 -78 220 -222q80 -145 80 -330q0 -76 -14 -110h-610z" />
</svg>