<svg xmlns="http://www.w3.org/2000/svg" xmlns:xlink="http://www.w3.org/1999/xlink" version="1.1" viewBox="-10 0 2068 2048">
   <path fill="currentColor"
d="M1024 0q-278 0 -514 137q-235 136 -372 373q-138 236 -138 514q0 200 78 392q75 189 220.5 334t333.5 221q192 77 392 77t392 -77q188 -76 333.5 -221t220.5 -334q78 -192 78 -392t-78 -392q-75 -189 -220.5 -334t-333.5 -221q-192 -77 -392 -77zM1384 615q63 0 108 44
q46 43 46 108t-46 110q-46 46 -110 46t-108 -46q-44 -44 -44 -110q0 -65 44 -108q44 -44 110 -44zM664 615q66 0 110 44t44 108t-44 110q-45 46 -108 46q-64 0 -110 -46t-46 -110t46 -108q45 -44 108 -44zM1024 1586q-178 0 -320 -98q-142 -99 -204 -257h1048
q-64 159 -205 257t-319 98z" />
</svg>