<svg xmlns="http://www.w3.org/2000/svg" xmlns:xlink="http://www.w3.org/1999/xlink" version="1.1" viewBox="-10 0 2068 2048">
   <path fill="currentColor"
d="M1090 806l-484 -484q68 -30 140 -30q152 0 261 109t109 265q0 69 -26 140zM1465 1002q143 -138 143 -330q0 -194 -143 -346l-157 158q61 81 61 180.5t-61 181.5zM1774 1316q179 -178 242 -411t0 -469q-63 -235 -242 -424l-152 154q125 138 172 316q46 176 0 358
q-46 180 -172 324zM131 82l-117 118l370 370q-9 53 -9 96q0 154 109 263t262 109q40 0 91 -14l279 280q-5 112 -44 230q-54 173 -161 324l-74 -450l87 -174q-101 -10 -181 -10t-180 10l91 174l-78 450q-118 -167 -166 -350q-35 -127 -35 -236q-172 52 -274 136
q-100 83 -100 188v370h1490v-288l357 358l118 -118z" />
</svg>