<svg xmlns="http://www.w3.org/2000/svg" xmlns:xlink="http://www.w3.org/1999/xlink" version="1.1" viewBox="-10 0 2068 2048">
   <path fill="currentColor"
d="M202 202h1644q82 0 142 60t60 147v1230q0 87 -60 147t-142 60h-1644q-82 0 -142 -60t-60 -147v-1230q0 -87 60 -147t142 -60zM202 409v1230h720v-1230h-720zM1846 1639v-1230h-130q23 47 18 115q-4 72 -72 168l-240 260h342v125l-528 -5l-6 -101l158 -173
q160 -173 168 -187q26 -55 26 -111q-5 -91 -98 -91q-58 0 -86 38q-19 24 -24 63v33h-158l4 -43q9 -44 34 -91h-130v1230h264v-86l102 -5l24 -5q29 -16 42 -33q26 -30 26 -68q4 -67 -40 -91q-26 -10 -58 -10q-30 0 -56 10q-54 24 -54 77h-154l6 -34q8 -38 28 -72
q29 -43 78 -72q64 -34 152 -34q90 0 154 34q48 24 72 72q20 33 24 72v29v38q-9 39 -28 73q-29 47 -82 67l54 38h168zM706 1433h-154v-592l-182 58v-130l322 -115h14v779z" />
</svg>