<svg xmlns="http://www.w3.org/2000/svg" xmlns:xlink="http://www.w3.org/1999/xlink" version="1.1" viewBox="-10 0 2068 2048">
   <path fill="currentColor"
d="M202 1024h1644q0 -284 -176 -505t-440 -288q-14 76 -71 127t-135 51t-135 -51t-71 -127q-265 68 -440 288q-176 221 -176 505zM1024 0q200 0 392 77q188 76 333.5 221t220.5 334q78 192 78 392q0 87 -60 147t-142 60h-1644q-82 0 -142 -60t-60 -147q0 -200 78 -392
q75 -189 220.5 -334t333.5 -221q192 -77 392 -77zM1178 1538h-308l-86 308h480zM1332 1332l100 360l28 96l10 58q0 82 -60 142t-146 60h-480l-48 -5q-87 -19 -130.5 -93.5t-19.5 -156.5l130 -461h616zM1432 510q86 0 146 60t60 146q0 87 -60 147t-144 60t-144 -60t-60 -147
q0 -86 60 -146t142 -60zM616 510q80 0 140 60q62 61 62 146q0 86 -62 147q-60 60 -144 60t-144 -60t-60 -147q0 -86 60 -146t148 -60z" />
</svg>