<svg xmlns="http://www.w3.org/2000/svg" xmlns:xlink="http://www.w3.org/1999/xlink" version="1.1" viewBox="-10 0 2058 2048">
   <path fill="currentColor"
d="M500 447q111 -206 236 -317q145 -130 288 -130t288 130q125 111 236 317q-140 33 -216 144q-93 -130 -248 -154q-156 -24 -286 72q-48 33 -82 82q-76 -111 -216 -144zM1332 1643l-308 -307l-308 307l-306 -307l-130 130q51 204 194 350q143 145 338 202q198 57 401.5 5
t352.5 -202q151 -150 202 -355l-130 -130zM716 1427l308 -307l308 307l306 -307l154 153q-19 -358 -172 -682q-91 5 -151.5 72.5t-60.5 153.5h-154q0 -96 -66 -163q-68 -68 -164 -68t-164 68q-66 67 -66 163h-154q0 -86 -60.5 -153.5t-151.5 -72.5q-153 324 -172 682
l154 -153z" />
</svg>