<svg xmlns="http://www.w3.org/2000/svg" xmlns:xlink="http://www.w3.org/1999/xlink" version="1.1" viewBox="-10 0 2058 2048">
   <path fill="currentColor"
d="M1514 1865l-270 -293l114 -110l156 156l346 -352l114 137zM74 1755v-101l196 -192v-585q0 -229 136 -409q134 -180 348 -244v-32q0 -78 57 -135t141 -57q82 0 139 57t57 135v32q215 65 350 244q134 180 134 409v105l-96 -9q-160 0 -295 78t-213 213q-76 133 -76 294
q0 99 32 197h-910zM952 2048q-82 0 -140 -58q-58 -57 -58 -139h274q30 50 84 110q-56 87 -160 87z" />
</svg>