<svg xmlns="http://www.w3.org/2000/svg" xmlns:xlink="http://www.w3.org/1999/xlink" version="1.1" viewBox="-10 0 2058 2048">
   <path fill="currentColor"
d="M1419 817l-20 106h-235q-20 0 -36 14q-17 15 -17 36q0 22 17 37q16 14 36 14h216l-106 514h-211q-23 0 -38 15t-15 36t15 36q14 14 38 14h192l-38 207q0 82 -60 142t-147 60q-86 0 -146 -60t-60 -142l-101 -514h153q20 0 36 -15q17 -15 17 -36t-17 -36q-15 -14 -36 -14
h-173l-81 -414q0 -92 62 -166q64 -75 173 -108l-144 -207q-24 -40 -17 -79q8 -41 43 -65q37 -24 77 -17q41 8 65 41l48 68v-183q0 -43 29 -72t72 -29t72 29t29 72v235l154 -177q30 -35 69 -39q42 -5 75 24q33 28 36 70q3 40 -26 74l-217 260q103 40 159 111q58 73 58 158z
" />
</svg>