<svg xmlns="http://www.w3.org/2000/svg" xmlns:xlink="http://www.w3.org/1999/xlink" version="1.1" viewBox="-10 0 2068 2048">
   <path fill="currentColor"
d="M820 1844q0 82 -60 142t-144 60t-144 -60t-60 -144t60 -144t144 -60t144 60q60 58 60 146zM1640 1638q-86 0 -146 60t-60 144t60 144t144 60t144 -60t60 -144t-60 -144t-142 -60zM638 1292q-6 6 -2 14q4 13 8 18q8 6 18 6h1180v206h-1228q-82 0 -142 -60t-60 -146
q0 -57 24 -100l140 -250l-370 -776h-206v-202h336l96 202h1514q44 0 72 30q30 33 30 74q0 20 -16 48l-364 668q-27 46 -76 74q-48 26 -100 26h-764zM820 770h408v200l306 -306l-306 -308v208h-408v206z" />
</svg>