<svg xmlns="http://www.w3.org/2000/svg" xmlns:xlink="http://www.w3.org/1999/xlink" version="1.1" viewBox="-10 0 2068 2048">
   <path fill="currentColor"
d="M512 768h172v172h168v168h-168v172h-172v-172h-172v-168h172v-172zM1580 768q52 0 90 38t38 90t-38 90t-92 38t-90 -38t-36 -90t36 -90t92 -38zM1324 1024q52 0 90 38t38 90t-38 90t-92 38t-90 -38t-36 -90t36 -90t92 -38zM1452 428q159 0 298 80t218 216q80 137 80 300
t-80 300q-79 136 -218 216t-298 80q-126 0 -234 -46q-111 -47 -194 -130q-83 83 -194 130q-108 46 -234 46q-159 0 -298 -80t-218 -216q-80 -137 -80 -300t80 -300q79 -136 218 -216t298 -80h856zM596 596q-117 0 -214 58q-99 59 -154 156q-56 98 -56 214t56 214
q55 97 154 156q97 58 214 58q105 0 194 -46q90 -46 150 -126h168q60 80 150 126q89 46 194 46q117 0 214 -58q99 -59 154 -156q56 -98 56 -214t-56 -214q-55 -97 -154 -156q-97 -58 -214 -58h-856z" />
</svg>