<svg xmlns="http://www.w3.org/2000/svg" xmlns:xlink="http://www.w3.org/1999/xlink" version="1.1" viewBox="-10 0 2058 2048">
   <path fill="currentColor"
d="M1268 197h-584v-197h584v197zM1072 1417q0 238 238 567q-160 64 -334 64q-238 0 -438 -117q-203 -118 -320 -320q-120 -205 -120 -441q0 -237 120 -439q118 -201 320 -320q200 -118 438 -118q153 0 292 52q143 53 256 144l138 -142q64 56 136 138l-136 141
q103 130 154 297q-100 -45 -204 -45q-148 0 -270 73q-123 73 -196 196q-74 122 -74 270zM1072 1271v-686h-192v686h192zM1950 1417q0 156 -170 412q-88 130 -168 219l-92 -105q-95 -124 -164 -252q-88 -165 -88 -274q0 -141 101 -242t241 -101q138 0 239 101t101 242z
M1726 1426q0 -46 -36 -82q-38 -37 -80 -37q-44 0 -80 35q-38 35 -38 82q0 48 34 82q36 35 86 35t86 -37q37 -36 28 -78z" />
</svg>