<svg xmlns="http://www.w3.org/2000/svg" xmlns:xlink="http://www.w3.org/1999/xlink" version="1.1" viewBox="-10 0 2058 2048">
   <path fill="currentColor"
d="M1630 0h-932q-74 0 -130 55q-54 54 -54 133v279h184v-188h932v1490h-932v-187h-184v279q0 79 54 133t130 54h932q74 0 128 -54q54 -55 54 -133v-1673q0 -78 -55 -133t-127 -55zM868 933v-140q0 -96 -82 -165q-82 -70 -180 -70t-180 70q-82 69 -82 165v140q-38 0 -73 35
t-35 74v327q0 48 32 85q33 37 76 37h514q48 0 83 -35t35 -79v-326q0 -49 -32 -83q-34 -35 -76 -35zM746 933h-280v-140q0 -57 42 -89q42 -33 98 -33t98 33t42 89v140z" />
</svg>