<svg xmlns="http://www.w3.org/2000/svg" xmlns:xlink="http://www.w3.org/1999/xlink" version="1.1" viewBox="-10 0 2058 2048">
   <path fill="currentColor"
d="M1304 1462v-292h293v-197l388 343l-388 338v-192h-293zM1501 1558v293h-293v197l-393 -343l393 -343v196h293zM1012 585q-160 0 -274 114q-115 115 -115 274q0 137 87 247t224 137l466 -397q-5 -158 -116 -266q-112 -109 -272 -109zM1012 1170q-83 0 -140 -57t-57 -140
q0 -82 57 -139t140 -57q82 0 139 57t57 139q0 83 -57 140t-139 57zM1953 653l-197 -338q-5 -14 -22 -21t-37 3l-242 96q-74 -60 -165 -96l-36 -256q0 -18 -14 -30q-12 -11 -32 -11h-393q-20 0 -32 11q-13 12 -13 30l-37 256q-85 35 -164 96l-238 -96q-20 -10 -37 -3
q-18 7 -22 21l-197 338q-10 20 -7 35q3 16 16 29l201 160l-4 96l4 96l-205 160q-13 9 -16 28q-3 18 6 36l197 339q4 17 23 25q16 7 41 -3l242 -96q43 32 73 51l160 -137q-112 -44 -192 -138l-237 96l-74 -128l202 -155q-60 -173 0 -347l-206 -151l73 -128l233 96
q120 -138 292 -174l42 -251h146l36 256q174 36 293 173l233 -96l73 124l-201 151q13 36 18 77h197l205 -160q15 -10 19 -27q4 -18 -5 -37zM1012 585q-160 0 -274 114q-115 115 -115 274q0 137 87 247t224 137l466 -397q-5 -158 -116 -266q-112 -109 -272 -109zM1012 1170
q-83 0 -140 -57t-57 -140q0 -82 57 -139t140 -57q82 0 139 57t57 139q0 83 -57 140t-139 57zM1012 585q-160 0 -274 114q-115 115 -115 274q0 137 87 247t224 137l466 -397q-5 -158 -116 -266q-112 -109 -272 -109zM1012 1170q-83 0 -140 -57t-57 -140q0 -82 57 -139
t140 -57q82 0 139 57t57 139q0 83 -57 140t-139 57z" />
</svg>