<svg xmlns="http://www.w3.org/2000/svg" xmlns:xlink="http://www.w3.org/1999/xlink" version="1.1" viewBox="-10 0 2068 2048">
   <path fill="currentColor"
d="M1720 92q96 0 166 67t70 164v48q38 0 64 26q28 27 28 66v375q0 39 -28 66q-26 26 -64 26h-468q-38 0 -64 -26q-28 -27 -28 -66v-375q0 -39 28 -66q26 -26 64 -26v-48q0 -96 68 -164q68 -67 164 -67zM930 1118l-746 -467v187l746 463l388 -240q78 57 170 57h372v651
q0 78 -56 133q-54 54 -128 54h-1492q-76 0 -130 -54t-54 -133v-1118q0 -80 54 -134t130 -54h1026v375q0 51 16 92zM1720 183q-56 0 -98 42q-42 41 -42 98v48h280v-48q0 -56 -39 -98t-101 -42z" />
</svg>