<svg xmlns="http://www.w3.org/2000/svg" xmlns:xlink="http://www.w3.org/1999/xlink" version="1.1" viewBox="-10 0 2058 2048">
   <path fill="currentColor"
d="M1300 1423l144 -149l216 221l222 -216l144 144l-222 216l222 217l-144 149l-222 -221l-216 216l-144 -144l216 -217zM228 1740q0 43 30 75q28 31 72 31h754q38 113 120 202h-874q-130 0 -220 -89q-88 -88 -88 -219q0 -92 52 -168l564 -976v-187q-44 0 -73 -32t-29 -69
v-106q0 -82 60 -142t142 -60h414q80 0 140 60q62 61 62 142v106q0 37 -29 69t-73 32v187l254 447q-99 24 -182 82l-278 -476v-447h-202v447l-596 1034q-20 28 -20 57zM1046 1433l62 -58q-62 123 -62 264h-538l274 -471zM998 1024q20 0 34 14t14 36t-14 36q-16 15 -37 15
t-36 -15t-15 -36t16 -36q14 -14 38 -14z" />
</svg>