<svg xmlns="http://www.w3.org/2000/svg" xmlns:xlink="http://www.w3.org/1999/xlink" version="1.1" viewBox="-10 0 2068 2048">
   <path fill="currentColor"
d="M1024 582h-466l-278 235h-92q-78 0 -132 54q-56 55 -56 129v279h206q29 87 102 137t158 50q87 0 160 -50t102 -137h592q31 88 102 137q73 50 159.5 50t158.5 -50q74 -50 104 -137h204v-92q0 -62 -48 -100q-24 -25 -104 -65zM398 908l208 -187h370l376 187h-954zM466 1048
q58 0 98 41q42 42 42 98t-42 98t-98 42t-98 -42q-40 -41 -40 -98t41 -98t97 -41zM1582 1048q56 0 98 41q42 42 42 98t-42 98t-98 42t-98 -42q-42 -41 -42 -98t41 -98t99 -41z" />
</svg>