<svg xmlns="http://www.w3.org/2000/svg" xmlns:xlink="http://www.w3.org/1999/xlink" version="1.1" viewBox="-10 0 2068 2048">
   <path fill="currentColor"
d="M1818 1365v454h-1588v-454h1588zM1936 1136h-1824q-48 0 -80 35t-32 82v683q0 48 32 80t80 32h1824q48 0 80 -32t32 -80v-683q0 -47 -32 -82t-80 -35zM454 1765q-70 0 -120 -50t-50 -123t50 -120q50 -48 122 -48t120 48t48 120t-48 123q-47 50 -122 50zM1818 229v454
h-1588v-454h1588zM1936 0h-1824q-48 0 -80 32t-32 80v683q0 47 32 82t80 35h1824q48 0 80 -35t32 -82v-683q0 -48 -32 -80t-80 -32zM454 624q-70 0 -120 -48q-50 -47 -50 -120t50 -123t122.5 -50t119.5 50q48 51 48 123t-48 120t-122 48z" />
</svg>