<svg xmlns="http://www.w3.org/2000/svg" xmlns:xlink="http://www.w3.org/1999/xlink" version="1.1" viewBox="-10 0 2068 2048">
   <path fill="currentColor"
d="M1740 1279q31 37 52 62q60 72 102 144q52 92 52 154q0 87 -60 147t-144 60t-144 -60t-60 -147q0 -85 100 -230q55 -75 102 -130zM308 1639v-923q-86 0 -146 -60t-60 -144t60 -144t146 -60v-106q0 -82 60 -142t142 -60h206q86 0 146 60t60 142v106h818q86 0 146 60t60 142
v413q44 0 73 29t29 72t-29 72t-73 29h-408q-42 0 -74 -29q-32 -28 -32 -72t32 -72q32 -29 74 -29v-207h-616v923h102q86 0 146 60t60 147v202h-1230v-202q0 -87 60 -147t142 -60h106z" />
</svg>