<svg xmlns="http://www.w3.org/2000/svg" xmlns:xlink="http://www.w3.org/1999/xlink" version="1.1" viewBox="-10 0 2058 2048">
   <path fill="currentColor"
d="M1024 0q-196 0 -364 98q-168 97 -266 267q-100 171 -100 365q0 226 168 542q119 226 310 477q100 133 184 227l68 72l68 -72q79 -88 184 -227q194 -255 312 -477q166 -314 166 -542q0 -196 -98.5 -365t-267 -267t-364.5 -98zM1024 1775q-198 -240 -346 -491
q-200 -340 -200 -554q0 -149 72 -275q73 -127 200 -199q125 -72 274.5 -72t275.5 72q125 72 198 199q72 128 72 275q0 224 -214 580q-139 231 -332 465zM944 1186h162v158h-162v-158zM1024 367q-130 0 -226 92q-94 91 -94 224h162q0 -64 47 -111t111 -47t111 47t47 111
q0 46 -30 85q-15 20 -68 64q-68 51 -94 90q-46 65 -46 162h162q0 -61 34 -107q19 -27 80.5 -83t85.5 -87q38 -55 38 -124q0 -133 -94 -224q-95 -92 -226 -92z" />
</svg>