<svg xmlns="http://www.w3.org/2000/svg" xmlns:xlink="http://www.w3.org/1999/xlink" version="1.1" viewBox="-10 0 2068 2048">
   <path fill="currentColor"
d="M1756 388h-1756v-388h1756v388zM1412 973h-146v489l352 211l74 -119l-280 -165v-416zM2048 1362q0 188 -92 345q-91 157 -248 249q-159 92 -346 92q-168 0 -314 -80q-145 -79 -242 -213h-710v-1271h1560v265q176 82 284 247q108 163 108 366zM586 973h220
q86 -122 210 -196h-384q-19 0 -32 16q-14 17 -14 34v146zM1852 1362q0 -132 -66 -245q-66 -111 -178 -176q-112 -64 -246 -64q-132 0 -244 64q-111 64 -176 176q-64 112 -64 245q0 132 64 244q66 114 176 179q113 66 244 66q133 0 246 -66q111 -65 178 -179q66 -112 66 -244
z" />
</svg>