<svg xmlns="http://www.w3.org/2000/svg" xmlns:xlink="http://www.w3.org/1999/xlink" version="1.1" viewBox="-10 0 2068 2048">
   <path fill="currentColor"
d="M684 1108h216v-256h248v256h216l-340 344zM1652 856q167 12 282 134q114 122 114 290q0 117 -58 214q-58 98 -156 156q-97 58 -214 58h-1108q-140 0 -258 -70q-119 -71 -186 -188q-68 -119 -68 -254q0 -132 60 -244q59 -110 164 -182q102 -70 232 -82q78 -158 232 -254
q151 -94 336 -94q233 0 408 148q177 150 220 368zM1620 1536q108 0 182 -74t74 -178t-68 -178t-168 -78l-132 -8l-24 -128q-31 -167 -162 -274q-130 -106 -298 -106q-131 0 -244 68q-111 67 -172 184l-44 84l-88 8q-132 12 -218 110t-86 230q0 140 100 240t240 100h1108z
" />
</svg>