<svg xmlns="http://www.w3.org/2000/svg" xmlns:xlink="http://www.w3.org/1999/xlink" version="1.1" viewBox="-10 0 2058 2048">
   <path fill="currentColor"
d="M1024 1385q-150 0 -255 -106q-105 -107 -105 -255t105 -255q105 -106 255 -106t255 106q106 108 106 255t-106 255q-105 106 -255 106zM1788 1125q5 -63 5 -101t-5 -101l216 -168q14 -14 17 -32q3 -15 -7 -36l-207 -355q-4 -14 -24 -22q-18 -7 -38 2l-255 101
q-89 -69 -173 -101l-38 -269q0 -19 -15 -31t-33 -12h-413q-19 0 -34 12t-15 31l-38 269q-84 32 -173 101l-255 -101q-20 -9 -38 -2q-20 8 -24 22l-207 355q-10 21 -7 36q3 18 17 32l216 168q-5 63 -5 101t5 101l-216 168q-14 14 -17 31q-3 15 7 36l207 356q4 14 24 22
q17 7 38 -3l255 -100q87 67 173 100l38 270q0 19 15 31t34 12h413q18 0 33 -12t15 -31l38 -270q98 -42 173 -100l255 100q21 10 38 3q20 -8 24 -22l207 -356q10 -21 7 -36q-3 -17 -17 -31z" />
</svg>