<svg xmlns="http://www.w3.org/2000/svg" xmlns:xlink="http://www.w3.org/1999/xlink" version="1.1" viewBox="-10 0 2068 2048">
   <path fill="currentColor"
d="M1498 1071q-132 43 -240 137v-5q0 -64 46 -110q46 -47 110 -47q43 0 84 25zM1360 732v54q0 63 47 110t111 47h156q0 43 -4 103h4q103 0 202 35q10 -66 10 -138q0 -83 -16 -157q-14 -33 -54 -44q-18 -10 -34 -10h-210v-103q0 -64 -54 -94q-21 -9 -50 -9h-210v-108
q0 -65 -54 -89q-24 -15 -50 -15h-108v-211q0 -64 -48 -88q-30 -15 -54 -15q-256 0 -472 128q-215 127 -344 344q-128 217 -128 471q0 255 128 472q128 216 344 343q216 128 472 128q71 0 136 -10q-34 -96 -34 -201v-5q-73 10 -176 0q53 -10 90.5 -51.5t37.5 -103.5
q0 -61 -47 -108t-113.5 -47t-110 47t-43.5 111q0 83 68 132q-207 -54 -354 -216t-176 -373q-10 -51 -10 -157q4 57 48 100q44 42 108 42t112 -44q46 -43 46 -111q0 -66 -46 -112q-48 -47 -112 -47q-52 0 -94 32t-58 81q35 -242 206 -418q173 -177 418 -211v152q0 64 44 111
t114 47h48v49q0 70 46 113q48 44 112 44h156zM840 472q0 -64 -47 -111t-113 -47t-110 47q-44 48 -44 111q0 62 44 110q44 47 110 47t113 -47t47 -110zM890 1154q69 0 112 -46q44 -47 44 -113q0 -67 -44 -111t-110 -44t-114 44q-46 43 -46 111q0 67 46 113t112 46zM2048 1454
l-148 -148l-226 221l-220 -221l-148 148l222 221l-222 226l148 147l220 -226l226 226l148 -147l-226 -226z" />
</svg>