<svg xmlns="http://www.w3.org/2000/svg" xmlns:xlink="http://www.w3.org/1999/xlink" version="1.1" viewBox="-10 0 2068 2048">
   <path fill="currentColor"
d="M1024 229v-229h454v229h-454zM454 571h230v453h-230v-453zM454 229q0 -95 67 -162t163 -67h112v229h-112v112h-230v-112zM684 1595q-96 0 -163 -67t-67 -163v-112h230v112h112v230h-112zM1818 0q96 0 164 67q66 66 66 162v112h-230v-112h-112v-229h112zM1478 1365v230
h-454v-230h454zM2048 1024h-230v-453h230v453zM2048 1365q0 97 -66 163q-68 67 -164 67h-112v-230h112v-112h230v112zM112 459h112v1365h1366v112q0 48 -32 80t-76 32h-1370q-48 0 -80 -32t-32 -80v-1365q0 -48 32 -80t80 -32z" />
</svg>