<svg xmlns="http://www.w3.org/2000/svg" xmlns:xlink="http://www.w3.org/1999/xlink" version="1.1" viewBox="-10 0 2068 2048">
   <path fill="currentColor"
d="M616 1231q0 124 -92 216q-92 91 -218 91q-128 0 -216 -91q-90 -92 -90 -214q0 -121 78 -209q-78 -88 -78 -209q0 -122 90 -214q88 -91 216 -91q126 0 218 91q92 92 92 216l38 5q228 14 369.5 14t370.5 -14l38 -5q0 -125 91 -216t219 -91t216 91q90 92 90 214
q0 121 -78 209q78 88 78 209q0 122 -90 214q-88 91 -216 91t-219 -91t-91 -216l-38 -5q-245 -15 -370.5 -15t-369.5 15z" />
</svg>