<svg xmlns="http://www.w3.org/2000/svg" xmlns:xlink="http://www.w3.org/1999/xlink" version="1.1" viewBox="-10 0 2068 2048">
   <path fill="currentColor"
d="M2048 1933l-1920 -1933l-128 128l326 320q-143 171 -156 384q-56 36 -74 91q-17 55 6 112q22 57 72 91q52 35 110 35q82 96 208 153q127 58 280 71q14 -182 128 -361l146 146q-76 126 -76 272q0 145 72 267q75 124 196 197q123 73 268 73t272 -78l146 147zM1162 1444
q0 -62 32 -137l164 165l-164 118q-32 -75 -32 -146zM1252 1668l174 -119l28 32v206q-132 -36 -202 -119zM1554 1778v-101l78 78l-18 9q-38 14 -60 14zM1846 1472v-28q0 -71 -32 -146l-86 59l-68 -68l96 -69q-70 -83 -202 -119v78l-238 -233q122 -37 188 -37q142 0 264 73
q124 74 198 197q72 122 72 265q0 103 -36 188zM1162 790l-576 -576q112 -68 256 -114q298 -106 576 -55q277 51 428 220q60 0 110 34q51 34 74 91q22 56 4 112q-19 57 -74 92q0 121 -58 238q-198 -119 -398 -119q-171 0 -342 77z" />
</svg>