<svg xmlns="http://www.w3.org/2000/svg" xmlns:xlink="http://www.w3.org/1999/xlink" version="1.1" viewBox="-10 0 2058 2048">
   <path fill="currentColor"
d="M1266 914q78 0 130 -52q54 -53 54 -128t-54 -131q-51 -54 -128 -54q-76 0 -130 54q-54 55 -54 131t54.5 128t127.5 52zM1266 0q204 0 368 98q169 100 266 268q98 170 98 365q0 154 -62 295q-62 140 -172 245h-992q-107 -103 -172 -245q-64 -138 -64 -295q0 -195 98 -365
q97 -169 266 -268q168 -98 366 -98zM440 1952v96h-198v-96h-192v-585h1948v585h-192v96h-196v-96h-1170zM242 1659v96h878v-96h-878zM1316 1563v192h198v-192h-198zM1706 1563q-42 0 -70 28q-26 27 -26 68q0 42 27 69t69 27q40 0 70 -27t30 -69q0 -41 -30 -68
q-32 -28 -70 -28z" />
</svg>