<svg xmlns="http://www.w3.org/2000/svg" xmlns:xlink="http://www.w3.org/1999/xlink" version="1.1" viewBox="-10 0 2058 2048">
   <path fill="currentColor"
d="M1024 1527q-86 0 -146 -59q-60 -60 -60 -146t60 -146q60 -59 146 -59t146 59q60 60 60 146t-60 146q-60 59 -146 59zM1024 811q136 0 292 43q182 44 290 115q128 89 128 200v521q0 123 -166 224v-759q0 -30 -84 -74q-86 -46 -202 -74q-136 -38 -258 -38t-258 38
q-116 28 -202 74q-84 44 -84 74v549q0 18 46 50q44 31 122 60q49 -59 176 -96q104 -33 200 -33q129 0 252 52q154 57 154 153v81q-101 37 -210 57q-113 20 -196 20t-196 -20q-109 -20 -210 -57q-141 -49 -214 -114q-90 -76 -90 -167v-521q0 -111 128 -200q108 -71 290 -115
q156 -43 292 -43zM1024 176q-77 0 -126.5 53t-49.5 126q0 74 50 127q49 52 126 52t126 -52q50 -53 50 -127q0 -73 -49.5 -126t-126.5 -53zM1024 711q-148 0 -253 -105t-105 -253q0 -149 105 -251t253 -102t253 102t105 251q0 148 -105 253t-253 105z" />
</svg>