<svg xmlns="http://www.w3.org/2000/svg" xmlns:xlink="http://www.w3.org/1999/xlink" version="1.1" viewBox="-10 0 2068 2048">
   <path fill="currentColor"
d="M1294 648q-74 46 -106 67l-96 58q-57 44 -115 -5q-54 -32 -115 -67l-86 -53q-35 -25 -32 -50q3 -27 41 -46q244 -100 504 5q38 15 38 41t-33 50zM2032 1392q-144 -327 -393 -576q-77 -82 -110 -192q-9 -33 -24 -105l-15 -68q-24 -133 -57 -201q-112 -241 -394 -250
q-283 4 -403 245q-27 59 -47 134l-48 240q-24 101 -101 173q-246 241 -398 552q-30 60 -34 86q-20 53 12 82q31 28 89 19q95 -21 129 -33q35 -10 48 -3q15 7 24 41q100 332 432 461q207 77 425 38t381 -175t216 -334q4 -23 14 -28q9 -5 34 0q29 11 115 28l29 10q38 4 62 -12
q24 -17 29 -50q4 -34 -15 -82z" />
</svg>