<svg xmlns="http://www.w3.org/2000/svg" xmlns:xlink="http://www.w3.org/1999/xlink" version="1.1" viewBox="-10 0 2058 2048">
   <path fill="currentColor"
d="M1207 1200h-417q-14 -112 -14 -202q0 -89 14 -201h468q14 121 14 201q0 70 -9 145q91 -74 211 -112v-33q0 -80 -14 -201h337q28 106 28 201v19q98 24 192 80q5 -32 5 -99q0 -271 -134 -501q-134 -229 -363 -363q-230 -134 -501 -134t-501 134q-229 134 -363 363
q-134 230 -134 501q0 272 134 502t363 363t501 133q74 0 99 -4q-61 -102 -85 -221l-14 24q-130 -192 -192 -398h244q42 -108 131 -197zM1717 600h-295q-51 -191 -140 -356q140 46 250 138t185 218zM1024 201q130 191 192 399h-384q62 -208 192 -399zM251 1200
q-28 -106 -28 -202q0 -95 28 -201h338q-15 130 -15 201q0 72 15 202h-338zM331 1397h295q54 196 141 356q-140 -46 -251 -139t-185 -217zM626 600h-295q75 -126 185 -218q109 -91 251 -138q-87 160 -141 356zM1905 1364l117 -117v403h-398l178 -178q-75 -75 -178 -75
q-104 0 -176 75q-73 76 -73 178t73 175t176 73q60 0 112 -26t89 -72h169q-42 112 -143 180t-227 68q-164 0 -281 -117t-117 -284q0 -166 117 -283t281 -117t281 117z" />
</svg>