<svg xmlns="http://www.w3.org/2000/svg" xmlns:xlink="http://www.w3.org/1999/xlink" version="1.1" viewBox="-10 0 2063 2048">
   <path fill="currentColor"
d="M2043 1925l-1911 -1925l-127 127l468 465q-342 443 -264 1265q215 18 314 18q605 0 960 -273l446 446zM578 1488q5 -55 9 -95q13 -114 45 -228q50 -155 132 -282l128 127q-183 212 -314 478zM1024 651l-301 -301q331 -223 846 -223q200 0 342 28l13 113q14 146 9 292
q-4 203 -50 382q-54 229 -168 401l-573 -574q97 -84 205 -155q85 -49 145 -77l59 -23q-327 0 -527 137z" />
</svg>