<svg xmlns="http://www.w3.org/2000/svg" xmlns:xlink="http://www.w3.org/1999/xlink" version="1.1" viewBox="-10 0 2058 2048">
   <path fill="currentColor"
d="M769 1639v-923h-153v923h153zM1101 1639v-923h-154v923h154zM1433 1639v-923h-154v923h154zM1538 409q87 0 144 60q58 61 58 146v1125q0 86 -58 147q-57 60 -144 60q0 44 -31 72q-32 29 -72 29t-72 -29q-31 -28 -31 -72h-615q0 43 -32 72t-72 29t-72 -29q-31 -28 -31 -72
q-87 0 -144 -60q-58 -61 -58 -147v-1125q0 -85 58 -146q57 -60 144 -60h207v-308q0 -44 31 -72q32 -29 70 -29h413q37 0 69 29t32 72v308h206zM870 154v255h308v-255h-308zM1538 1740v-1125h-1028v1125h1028z" />
</svg>