<svg xmlns="http://www.w3.org/2000/svg" xmlns:xlink="http://www.w3.org/1999/xlink" version="1.1" viewBox="-10 0 2068 2048">
   <path fill="currentColor"
d="M1726 462l-259 -340l375 -71l72 371zM1444 516l-259 -336l-188 36l264 336zM250 364l-94 18q-76 18 -121 83q-45 64 -31 145l40 183l465 -89zM979 610l-264 -340l-188 40l264 336zM232 1751v-765h1530v103q100 18 188 71v-367h-1906v958q0 76 56 132t132 56h939
q-53 -84 -71 -188h-868zM2048 1550l-277 -27l-108 -251l-107 251l-273 27l210 179l-67 268l237 -143l237 143l-62 -268z" />
</svg>