<svg xmlns="http://www.w3.org/2000/svg" xmlns:xlink="http://www.w3.org/1999/xlink" version="1.1" viewBox="-10 0 2068 2048">
   <path fill="currentColor"
d="M586 1125q0 -52 44 -91q116 24 216 91q0 53 -38 91q-40 39 -92 39t-92 -39q-38 -38 -38 -91zM1202 1125q99 -67 216 -91q42 39 42 93q0 57 -38 92q-38 36 -90 36q-54 0 -92 -36q-38 -35 -38 -94zM1024 716q-433 -5 -812 207l-10 101q0 192 86 365q365 -57 735.5 -57
t734.5 57q88 -173 88 -365l-10 -101q-380 -212 -812 -207zM1024 0q200 0 392 77q188 76 333.5 221t220.5 334q78 192 78 392t-78 392q-75 189 -220.5 334t-333.5 221q-192 77 -392 77t-392 -77q-188 -76 -333.5 -221t-220.5 -334q-78 -192 -78 -392t78 -392
q75 -189 220.5 -334t333.5 -221q192 -77 392 -77z" />
</svg>