<svg xmlns="http://www.w3.org/2000/svg" xmlns:xlink="http://www.w3.org/1999/xlink" version="1.1" viewBox="-10 0 2068 2048">
   <path fill="currentColor"
d="M1846 0h-1644q-82 0 -142 60t-60 142v1644q0 82 60 142t142 60h1644q82 0 142 -60t60 -142v-1644q0 -82 -60 -142t-142 -60zM716 1740h-408v-408l130 134l158 -158l144 144l-158 158zM596 740l-158 -158l-130 134v-408h408l-134 129l158 159zM1740 1740h-408l134 -130
l-158 -158l144 -144l158 158l130 -134v408zM1740 716l-130 -134l-158 158l-144 -144l158 -159l-134 -129h408v408z" />
</svg>