<svg xmlns="http://www.w3.org/2000/svg" xmlns:xlink="http://www.w3.org/1999/xlink" version="1.1" viewBox="-10 0 2058 2048">
   <path fill="currentColor"
d="M1490 1116q-134 0 -230 98t-96 229q0 151 160 392q83 121 166 213l82 -104q94 -122 158 -236q82 -158 82 -265q0 -131 -96 -229t-226 -98zM1490 1565q-47 0 -80 -35q-34 -35 -34 -79q0 -43 36 -76q34 -33 76 -33q40 0 76 35q35 36 40 77q4 41 -32 76q-34 35 -82 35z
M1246 2048h-828q-74 0 -128 -54t-54 -133v-1673q0 -79 54 -133q54 -55 128 -55h932q74 0 129 55t55 133v745h-44q-74 0 -140 17v-575h-932v1299h610q69 178 218 374z" />
</svg>