<svg xmlns="http://www.w3.org/2000/svg" xmlns:xlink="http://www.w3.org/1999/xlink" version="1.1" viewBox="-10 0 2058 2048">
   <path fill="currentColor"
d="M102 1125q0 250 124 464q122 211 336 336q212 123 462 123q0 -250 -126 -462q-124 -212 -336 -336q-212 -125 -460 -125zM1024 2048q249 0 460 -123q215 -125 338 -336q124 -215 124 -464q-249 0 -462 125q-211 124 -336 336q-124 212 -124 462zM1638 101v514
q0 121 -44 233q-45 112 -134 200q-88 88 -200 135q-116 48 -236 48t-236 -48q-114 -48 -202 -135q-86 -87 -132 -200q-46 -115 -46 -233v-514q124 0 222 38q86 39 148 106l246 -245l244 245q63 -67 150 -106q97 -38 220 -38z" />
</svg>