<svg xmlns="http://www.w3.org/2000/svg" xmlns:xlink="http://www.w3.org/1999/xlink" version="1.1" viewBox="-10 0 2058 2048">
   <path fill="currentColor"
d="M1129 2048q-208 0 -380 -118q-172 -119 -252 -310l-256 -648q-19 -52 16 -92q36 -40 88 -24l68 24q77 24 108 100l120 300h64v-1004q0 -44 30 -74t74 -30q45 0 76 30q32 30 32 74v748h84v-916q0 -44 32 -76t76 -32t76 32t32 76v916h84v-788q0 -44 32 -76t76 -32t74 32
q30 31 30 76v788h88v-532q0 -44 30 -76q31 -32 74 -32q44 0 76 32t32 76v872q0 187 -92 344q-91 156 -248 248q-156 92 -344 92z" />
</svg>