<svg xmlns="http://www.w3.org/2000/svg" xmlns:xlink="http://www.w3.org/1999/xlink" version="1.1" viewBox="-10 0 2068 2048">
   <path fill="currentColor"
d="M1024 0q-28 67 -54 135q-110 266 -196 451q132 132 264 231q-190 -78 -294 -168q-219 455 -744 1399q267 -151 438 -226q202 -87 374 -120q-20 -74 -20 -140v-9q5 -158 78 -262q72 -104 169 -96t161 125q64 118 60 271q0 58 -10 111q161 33 364 120q174 77 434 226
l-174 -317l-44 -39q-161 -132 -312 -207q174 44 284 111q-347 -651 -490 -947q-93 -195 -236 -524z" />
</svg>