<svg xmlns="http://www.w3.org/2000/svg" xmlns:xlink="http://www.w3.org/1999/xlink" version="1.1" viewBox="-10 0 2068 2048">
   <path fill="currentColor"
d="M1038 0l552 553l-210 210l-206 -210l-136 142l228 224l-114 114l42 46q75 -33 148 -21q75 12 130 71l-342 343q-59 -55 -72 -130q-11 -75 20 -149l-44 -41l-116 114l-224 -228l-140 137l210 206l-210 210l-554 -553l210 -206l206 206l138 -137l-274 -279
q-60 -56 -60 -135q0 -80 60 -140l68 -68q60 -60 140 -60q78 0 134 60l278 274l138 -137l-206 -206zM1660 1271q0 159 -116 274q-114 114 -274 114v-196q78 0 135 -57t57 -135h198zM2048 1271q0 210 -106 388q-105 180 -282 284q-179 105 -390 105v-192q155 0 290 -80
q136 -80 216 -215q80 -136 80 -290h192z" />
</svg>