<svg xmlns="http://www.w3.org/2000/svg" xmlns:xlink="http://www.w3.org/1999/xlink" version="1.1" viewBox="-10 0 2068 2048">
   <path fill="currentColor"
d="M188 558q-78 0 -133 55t-55 131v746h188v-374h188v374h182v-746q0 -78 -54 -132t-128 -54h-188zM188 744h188v188h-188v-188zM1304 884v-140q0 -76 -55 -131t-133 -55h-370v932h370q78 0 133 -55t55 -133v-138q0 -56 -42 -98t-98 -42q56 0 98 -42t42 -98zM1116 1302h-182
v-186h182v186zM1116 932h-182v-188h182v188zM1674 558q-74 0 -130 54q-54 54 -54 132v558q0 80 54 134q56 54 130 54h186q78 0 134 -54q54 -54 54 -134v-90h-188v90h-186v-558h186v92h188v-92q0 -78 -54 -132q-56 -54 -134 -54h-186z" />
</svg>