<svg xmlns="http://www.w3.org/2000/svg" xmlns:xlink="http://www.w3.org/1999/xlink" version="1.1" viewBox="-10 0 2058 2048">
   <path fill="currentColor"
d="M1538 684q-33 0 -44 4v-304q0 -88 -62 -150t-150 -62q-33 0 -48 4q-12 -76 -72 -126q-61 -50 -136 -50q-67 0 -122 38q-54 37 -78 98q-30 -8 -56 -8q-87 0 -152 62q-64 61 -64 150v48q-11 -4 -40 -4q-87 0 -152 62q-64 61 -64 150v728q0 195 98 362q98 166 264 264
q167 98 364 98t364 -98q166 -98 264 -264q98 -167 98 -362v-428q0 -88 -62 -150t-150 -62zM1578 1324q0 148 -74 276t-202 202t-278 74t-278 -74t-202 -202t-74 -276v-728q0 -16 12 -28t30 -12t30 12t12 28v428h172v-684q0 -16 12 -28t30 -12t30 12t12 28v600h172v-728
q0 -16 12 -28t30 -12t30 12t12 28v728h172v-556q0 -16 12 -30t30 -14t30 14t12 30v760q-113 53 -184 158q-72 106 -72 234h172q0 -108 74 -182t182 -74v-384q0 -16 12 -30t30 -14t30 14t12 30v428z" />
</svg>