<svg xmlns="http://www.w3.org/2000/svg" xmlns:xlink="http://www.w3.org/1999/xlink" version="1.1" viewBox="-10 0 2068 2048">
   <path fill="currentColor"
d="M1930 449q46 0 82 36t36 86v338q0 46 -38 81q-39 36 -88 36h-528q-46 0 -82 -38q-36 -39 -36 -88v-338q0 -41 36 -77t82 -36v-145q0 -99 81 -171t185 -72q102 0 186 72t84 171v145zM1804 449v-145q0 -58 -40 -92t-98 -34q-56 0 -94 27q-39 26 -52 68q-4 8 -4 31v145h288z
M0 1820l140 -528l144 244l416 -239v-1042h194v1042l900 523l-94 167l-906 -523l-414 239l148 257z" />
</svg>