<svg xmlns="http://www.w3.org/2000/svg" xmlns:xlink="http://www.w3.org/1999/xlink" version="1.1" viewBox="-10 0 2068 2048">
   <path fill="currentColor"
d="M1638 510q0 117 -110 209q-112 94 -297.5 149t-411 55t-411 -55t-298.5 -149q-110 -92 -110 -207t110 -207q113 -94 298.5 -149t411 -55t411 55t297.5 149q110 92 110 205zM818 1639q-224 0 -409.5 -55t-298.5 -149q-110 -92 -110 -204v307q0 113 110 205
q113 94 298.5 149t411 55t411 -55t297.5 -149q110 -92 110 -205v-307q0 112 -110 204q-112 94 -297.5 149t-412.5 55zM818 1125q-224 0 -409.5 -55t-298.5 -149q-110 -92 -110 -205v308q0 112 110 204q113 94 298 149q190 56 411.5 56t410.5 -56q186 -55 298 -149
q110 -92 110 -204v-308q0 113 -110 205q-112 94 -297.5 149t-412.5 55zM1846 1538h202v-206h-202v206zM1846 510v615h202v-615h-202z" />
</svg>