<svg xmlns="http://www.w3.org/2000/svg" xmlns:xlink="http://www.w3.org/1999/xlink" version="1.1" viewBox="-10 0 2068 2048">
   <path fill="currentColor"
d="M1818 229v1590h-1588v-1590h1588zM1818 0h-1588q-96 0 -163 67t-67 162v1590q0 95 67 162t163 67h1588q96 0 164 -67q66 -66 66 -162v-1590q0 -96 -66 -162q-68 -67 -164 -67zM1024 341q49 0 80.5 35t31.5 77v118h362q15 28 48 101l6 11h-416v112h458q15 55 22 117h-480
v112h480l-10 112h-470v117h458l-10 86q-11 100 -42 165q-49 91 -118 91q-52 0 -90 -32q-22 -17 -52 -67q-31 -53 -50 -72q-38 -43 -96 -59v230q0 42 -31.5 77t-80 35t-80.5 -35t-32 -77v-230q-57 16 -96 59q-20 21 -50 72q-30 50 -52 67q-38 32 -90 32q-102 0 -144 -171
q-20 -86 -26 -171h458v-117h-468l-12 -112h480v-112h-480q8 -61 22 -117h458v-112h-416l6 -11q33 -73 48 -101h362v-118q0 -42 32 -77t80 -35z" />
</svg>