<svg xmlns="http://www.w3.org/2000/svg" xmlns:xlink="http://www.w3.org/1999/xlink" version="1.1" viewBox="-10 0 2058 2048">
   <path fill="currentColor"
d="M1083 0l-301 298h-425v425l-297 301l297 302v425h425l301 297l89 -89v-408l293 293l132 -127l-425 -421v-183h183l420 425l128 -131l-293 -294h378v-178h-378l293 -293l-128 -132l-420 425h-183v-183l425 -420l-132 -128l-293 293v-408zM994 489v183q-123 34 -197 131
q-75 97 -75 221t75 221q75 98 197 132v183q-197 -35 -325 -185q-129 -151 -129 -351q0 -199 127 -350q127 -150 327 -185z" />
</svg>