<svg xmlns="http://www.w3.org/2000/svg" xmlns:xlink="http://www.w3.org/1999/xlink" version="1.1" viewBox="-10 0 2058 2048">
   <path fill="currentColor"
d="M1072 1730q-24 -72 -90 -120q-60 -45 -144 -45q-106 0 -180 72t-74 176v140h-352q-74 0 -129 -55t-55 -129v-352h140q103 0 176 -75q72 -74 72 -178q0 -106 -72 -179q-72 -74 -176 -74h-140v-353q0 -73 55 -128t129 -55h374v-139q0 -98 68 -166q68 -70 164 -70
q94 0 162 70q68 68 68 166v139h374q74 0 129 55t55 128v375h138q98 0 166 67q70 67 70 164q0 46 -18 83q-158 -131 -356 -131q-149 0 -278 76q-127 75 -204 205q-76 130 -76 277q0 36 4 56zM1534 1303v279h-278v187h278v279h188v-279h278v-187h-278v-279h-188z" />
</svg>