<svg xmlns="http://www.w3.org/2000/svg" xmlns:xlink="http://www.w3.org/1999/xlink" version="1.1" viewBox="-10 0 2068 2048">
   <path fill="currentColor"
d="M230 0q-96 0 -163 67t-67 162v1590q0 95 67 162t163 67h1588q96 0 164 -67q66 -66 66 -162v-1590q0 -96 -66 -162q-68 -67 -164 -67h-1588zM1024 229q261 0 474 158q214 157 288 408h-308q-49 0 -80 34q-32 35 -32 83v224q0 48 32 83q31 34 80 34h308q-74 251 -288 408
q-213 158 -474 158q-217 0 -400 -107q-181 -106 -288 -288q-106 -182 -106 -400t106 -400q107 -182 288 -288q183 -107 400 -107zM1024 795q-96 0 -162 66q-68 67 -68 163t68 163q66 66 162 66t162 -66q68 -67 68 -163t-68 -163q-66 -66 -162 -66z" />
</svg>