<svg xmlns="http://www.w3.org/2000/svg" xmlns:xlink="http://www.w3.org/1999/xlink" version="1.1" viewBox="-10 0 2068 2048">
   <path fill="currentColor"
d="M558 96q-147 0 -276 74q-127 71 -204 202q-78 130 -78 282q0 107 44 210t122.5 181.5t181.5 122.5t212 44q111 0 214 -44q102 -44 180 -122t120 -182q42 -99 42 -210q0 -152 -74 -282q-75 -130 -202 -202q-130 -74 -282 -74zM1908 466q-61 0 -100 42q-38 42 -38 98t38 98
q39 40 98 40q60 0 101 -41t41 -98t-41 -98t-99 -41zM1490 654q-116 0 -197 81t-81 195q0 116 80 198q82 84 196 84q116 0 199 -83t83 -199q0 -114 -84 -196q-82 -80 -196 -80zM1490 1302q-134 0 -230 96t-96 232q0 135 96 228q97 94 230 94q136 0 230 -94q92 -92 92 -228
t-93 -232t-229 -96z" />
</svg>