<svg xmlns="http://www.w3.org/2000/svg" xmlns:xlink="http://www.w3.org/1999/xlink" version="1.1" viewBox="-10 0 2068 2048">
   <path fill="currentColor"
d="M0 0v615h230l136 818h-164v615h616v-197h514v197h614v-615h-188l88 -717h202v-615h-616v360l-120 154h-534l-162 -226v-389h-616zM202 202h206v207h-206v-207zM1638 308h208v202h-208v-202zM442 615h82l192 265v351h616v-318l158 -197h148l-86 717h-220v211h-514v-211
h-246zM922 817h202v207h-202v-207zM408 1639h208v207h-208v-207zM1538 1639h202v207h-202v-207z" />
</svg>