<svg xmlns="http://www.w3.org/2000/svg" xmlns:xlink="http://www.w3.org/1999/xlink" version="1.1" viewBox="-10 0 2068 2048">
   <path fill="currentColor"
d="M0 288h880v296h-590v296h438v288h-438v592h-290v-1472zM1464 1168v296h294v-296h-294zM1464 584v296h294v-296h-294zM1464 1760q-124 0 -210 -86t-86 -210v-220q0 -90 66 -154q66 -66 154 -66q-90 0 -155 -65t-65 -155v-220q0 -124 86 -210t210 -86h294q118 0 204 86
t86 210v220q0 88 -62 154q-61 66 -158 66q96 0 158 66t62 154v220q0 124 -86 210t-204 86h-294z" />
</svg>