<svg xmlns="http://www.w3.org/2000/svg" xmlns:xlink="http://www.w3.org/1999/xlink" version="1.1" viewBox="-10 0 2068 2048">
   <path fill="currentColor"
d="M1236 1024h-418v-101h-462q-149 0 -252.5 -106t-103.5 -255q0 -148 103.5 -254t252.5 -106q158 0 268 120q29 -139 142 -231q112 -91 257.5 -91t256.5 91q114 92 142 231q112 -120 270 -120q148 0 252 106q104 107 104 254q0 148 -104 255q-104 106 -252 106h-456v101z
M818 1529v-120h-510v-202h1432v202h-504v120l610 221q43 15 72 55q28 41 28 89q0 67 -46 111q-44 43 -108 43h-1538q-63 0 -108 -43q-44 -43 -44 -111q0 -49 28 -89t72 -55z" />
</svg>