<svg xmlns="http://www.w3.org/2000/svg" xmlns:xlink="http://www.w3.org/1999/xlink" version="1.1" viewBox="-10 0 2068 2048">
   <path fill="currentColor"
d="M1582 836h-188v-92q0 -56 -42 -82q-26 -8 -48 -8h-188v-96q0 -56 -44 -78q-24 -14 -48 -14h-90v-188q0 -55 -48 -78q-22 -12 -48 -12q-226 0 -418 110q-193 112 -306 306q-114 196 -114 420t114 420q113 194 306 306q192 110 420 110t420 -110q191 -111 302 -306
q112 -193 112 -420q0 -92 -10 -140q-18 -30 -52 -38q-18 -10 -30 -10v0zM328 1116q-56 0 -98 -42t-42 -96q0 -55 42 -98q42 -44 97.5 -44t98.5 44q40 43 40 98q0 54 -40 96q-42 42 -98 42zM466 606q0 -56 42 -98t99 -42t98 41t41 98t-41 98t-98 41t-99 -40q-42 -42 -42 -98z
M746 1674q-56 0 -98 -42t-42 -96q0 -56 42 -98q41 -44 97.5 -44t98.5 44q42 43 42 98q0 54 -42 96t-98 42zM794 1212q-56 0 -98 -44q-42 -43 -42 -98q0 -56 41 -97t97 -41q55 0 98 42q44 42 44 96t-44 98t-96 44zM1256 1394q-53 0 -96 -42q-44 -42 -44 -96t44 -98
q42 -42 98 -42q54 0 96 42q40 43 40 98q0 56 -40 96q-42 42 -98 42zM1860 1302h188v188h-188v-188zM2048 558v558h-188v-558h188z" />
</svg>