<svg xmlns="http://www.w3.org/2000/svg" xmlns:xlink="http://www.w3.org/1999/xlink" version="1.1" viewBox="-10 0 2058 2048">
   <path fill="currentColor"
d="M1538 0h-1028q-82 0 -142 60t-60 142v1644q0 82 60 142t142 60h1028q82 0 142 -60t60 -142v-1644q0 -82 -60 -142t-142 -60zM1231 1332q-82 0 -154 -72l101 278h-308l101 -278q-72 72 -153 72q-82 0 -142 -60t-60 -145q0 -84 60 -144t142 -60h33q-33 -48 -33 -106
q0 -82 60 -142t146 -60q87 0 147 60t60 142q0 57 -34 106h34q81 0 141 60q61 61 61 144q0 84 -61 145q-60 60 -141 60z" />
</svg>