<svg xmlns="http://www.w3.org/2000/svg" xmlns:xlink="http://www.w3.org/1999/xlink" version="1.1" viewBox="-10 0 2068 2048">
   <path fill="currentColor"
d="M1484 1385q126 0 258 45t152 84v72h-818v-72q20 -39 152 -84t256 -45zM1484 1231q-103 0 -230 29q-139 39 -230 96q-102 68 -102 154v230h1126v-230q0 -86 -102 -154q-91 -57 -230 -96q-127 -29 -232 -29zM716 1125q-136 0 -294 43q-176 43 -292 120q-130 87 -130 197
v255h716v-154h-562v-101q0 -33 92 -86q96 -55 226 -87q157 -38 326 -33q67 -77 164 -125q-123 -25 -246 -29zM716 461q63 0 108 44q46 43 46 108t-46 110q-46 46 -108 46t-108 -46q-46 -45 -46 -110t46 -108q45 -44 108 -44zM716 308q-130 0 -219 89t-89 216t90 219
q88 91 218 91t218 -91q90 -92 90 -219t-89 -216t-219 -89zM1484 663q44 0 73 32t29 74q0 43 -29 72t-72 29t-73 -29q-28 -28 -28 -72q0 -43 28 -74q29 -32 72 -32zM1484 510q-105 0 -180 76q-74 75 -74 183q0 106 74 180q76 75 180 75q106 0 182 -75q74 -74 74 -180
q0 -108 -74 -183q-75 -76 -182 -76z" />
</svg>