<svg xmlns="http://www.w3.org/2000/svg" xmlns:xlink="http://www.w3.org/1999/xlink" version="1.1" viewBox="-10 0 2068 2048">
   <path fill="currentColor"
d="M376 96q0 -39 -28 -67q-30 -29 -69 -29t-65 29t-26 67v371h-188v557h558v-557h-182v-371zM746 1395q0 92 52 163q52 72 136 98v392h182v-392q82 -25 135 -98t53 -163v-183h-558v183zM0 1395q0 90 53 163t135 98v392h188v-392q83 -26 132 -98q50 -73 50 -163v-183h-558
v183zM1860 467v-371q0 -38 -25.5 -67t-65 -29t-67.5 29q-28 28 -28 67v371h-184v557h558v-557h-188zM1116 96q0 -38 -26 -67t-65.5 -29t-65 29t-25.5 67v371h-188v557h558v-557h-188v-371zM1490 1395q0 90 50 163q50 72 134 98v392h186v-392q83 -25 136 -98q52 -71 52 -163
v-183h-558v183z" />
</svg>