<svg xmlns="http://www.w3.org/2000/svg" xmlns:xlink="http://www.w3.org/1999/xlink" version="1.1" viewBox="-10 0 2058 2048">
   <path fill="currentColor"
d="M933 2048q-79 0 -133 -54q-55 -55 -55 -133v-187h558v187q0 78 -55 133q-54 54 -133 54h-182zM1024 0q90 0 192 27q82 109 130 300q48 192 48 418q0 153 -22 314q-26 156 -69 336q0 78 -55 133q-54 54 -133 54h-182q-79 0 -133 -54q-55 -55 -55 -133q-43 -180 -69 -336
q-22 -161 -22 -314q0 -226 48 -418q48 -191 130 -300q102 -27 192 -27zM1769 654q0 145 -55 327q-54 179 -150 318q-99 151 -218 209q66 -121 105 -344q39 -213 39 -419q0 -195 -39 -368t-105 -303q203 100 305 223q118 150 118 357zM279 654q0 -207 118 -357
q102 -123 305 -223q-66 130 -105 303t-39 368q0 206 39 419q39 223 105 344q-119 -58 -218 -209q-96 -139 -150 -318q-55 -182 -55 -327z" />
</svg>