<svg xmlns="http://www.w3.org/2000/svg" xmlns:xlink="http://www.w3.org/1999/xlink" version="1.1" viewBox="-10 0 2068 2048">
   <path fill="currentColor"
d="M940 556q0 -36 12 -76q17 -70 56 -112l-156 -120l-152 128q40 40 56 104q12 40 12 76q-183 12 -348 80q-126 55 -236 148q-82 67 -140 136l-44 64l596 596l20 -32q27 -34 60 -64q42 -39 92 -56v176q-39 19 -62 60q-22 40 -22 88q0 68 50 118t120 50t120 -50t50 -118
q0 -48 -24 -88t-60 -60v-176q50 17 92 56q34 30 56 64l20 32l600 -596l-44 -64q-58 -69 -140 -136q-108 -88 -240 -144q-161 -68 -344 -84zM768 1248q-108 28 -180 84l-356 -356q216 -220 536 -240v512zM1116 1332q-96 -64 -176 -84v-512q187 17 336 92q111 59 200 148z
M1364 156l-60 160q-45 -20 -106 -20q-60 0 -114 20l-60 -160q75 -28 170 -28t170 28zM1620 556h-168l-4 -32q-5 -38 -16 -72q-20 -45 -48 -76l128 -112q68 77 96 188q12 55 12 104zM188 264l128 112q-26 29 -44 76q-8 36 -12 72l-4 32h-172q0 -50 16 -104q24 -112 88 -188z
M684 156l-60 160q-45 -20 -108 -20q-62 0 -116 20l-60 -160q78 -28 172 -28t172 28zM1876 1068v-428h172v512h-172v-84zM1876 1496h172v-172h-172v172z" />
</svg>