<svg xmlns="http://www.w3.org/2000/svg" xmlns:xlink="http://www.w3.org/1999/xlink" version="1.1" viewBox="-10 0 2058 2048">
   <path fill="currentColor"
d="M1024 0l-836 375v558q0 254 109 488q111 238 300 401q191 164 427 226q236 -62 427 -226q189 -163 300 -401q109 -234 109 -488v-558zM1024 205l649 288v457q0 235 -122 462q-106 -79 -279 -122q-142 -35 -248 -35t-248 35q-173 43 -279 122q-122 -227 -122 -462v-457z
M1024 467q-136 0 -231 95q-96 96 -96 231q0 136 96 229q97 94 231 94t231 -94q96 -93 96 -229q0 -135 -96 -231q-95 -95 -231 -95zM1024 654q56 0 98 39q41 38 41 98q0 59 -41 100q-42 42 -98 42t-98 -42q-41 -41 -41 -100q0 -60 41 -98q42 -39 98 -39zM1024 1443
q110 0 233 37q124 37 189 89q-89 107 -198 185q-107 77 -224 107q-117 -30 -224 -107q-111 -80 -199 -185q64 -51 190 -89q123 -37 233 -37z" />
</svg>