<svg xmlns="http://www.w3.org/2000/svg" xmlns:xlink="http://www.w3.org/1999/xlink" version="1.1" viewBox="-10 0 2068 2048">
   <path fill="currentColor"
d="M188 279q-78 0 -133 55t-55 133v1024h188q0 115 80 196q81 82 198 82q119 0 200 -82q80 -81 80 -196h558q0 115 80 196q80 82 198 82t198 -82q80 -81 80 -196h188v-467l-278 -370h-280v-375h-1302zM838 467l374 370l-374 375v-279h-558v-188h558v-278zM1490 793h232
l182 231h-414v-231zM466 1351q56 0 98 39t42 98t-42 101q-40 41 -97 41t-98 -41t-41 -101t40 -98q42 -39 98 -39zM1582 1351q56 0 98 39t42 98t-42 101q-42 41 -99 41t-98 -41t-41 -101t42 -98q41 -39 98 -39z" />
</svg>