<svg xmlns="http://www.w3.org/2000/svg" xmlns:xlink="http://www.w3.org/1999/xlink" version="1.1" viewBox="-10 0 2058 2048">
   <path fill="currentColor"
d="M1364 1389l280 165l-74 119l-352 -211v-489h146v416zM2000 1362q0 188 -92 345q-91 157 -248 249q-159 92 -346 92q-167 0 -316 -80q-147 -79 -240 -213q-198 -14 -360 -66q-162 -53 -256 -140q-94 -88 -94 -187v-974q0 -105 106 -194q108 -90 284 -142t390 -52t390 52
t284 142q106 89 106 194v361q176 82 284 247q108 163 108 366zM1416 690v-46q-38 24 -78 37q26 0 78 9zM246 388q0 29 68 73q78 52 196 83q148 41 317.5 41t322.5 -41q117 -31 196 -83q70 -45 70 -73t-70 -73q-77 -50 -196 -82q-153 -41 -322.5 -41t-317.5 41
q-120 32 -196 82q-68 44 -68 73zM246 918q78 60 196 96q125 38 260 51q92 -188 280 -293q-92 5 -152 5q-171 0 -324 -35t-260 -98v274zM662 1545q-28 -100 -28 -183q0 -50 8 -110q-231 -27 -396 -105v215q0 24 50 59q56 40 136 69q104 42 230 55zM1804 1362q0 -132 -66 -245
q-66 -111 -178 -176q-112 -64 -246 -64q-132 0 -244 64q-111 64 -176 176q-64 112 -64 245q0 132 64 244q66 114 176 179q113 66 244 66q133 0 246 -66q111 -65 178 -179q66 -112 66 -244z" />
</svg>