<svg xmlns="http://www.w3.org/2000/svg" xmlns:xlink="http://www.w3.org/1999/xlink" version="1.1" viewBox="-10 0 2058 2048">
   <path fill="currentColor"
d="M1603 375h-462v-187h462q79 0 133 54t54 133v780q-113 -39 -187 -39v-741zM767 0h187v2048h-187v-187h-462q-79 0 -133 -54t-54 -133v-1299q0 -79 54 -133t133 -54h462v-188zM767 1024l-462 558h462v-558zM1298 1212l-157 -188v345q44 -79 157 -157zM1799 1351l-196 192
l-192 -192l-130 131l191 192l-191 196l130 130l192 -196l196 196l131 -130l-196 -196l196 -192z" />
</svg>