<svg xmlns="http://www.w3.org/2000/svg" xmlns:xlink="http://www.w3.org/1999/xlink" version="1.1" viewBox="-10 0 2068 2048">
   <path fill="currentColor"
d="M1002 24q360 0 648 212q290 213 398 548l-248 84q-84 -256 -302 -420q-217 -162 -496 -162q-308 0 -544 198l278 276h-736v-736l272 272q148 -125 338 -200q184 -72 392 -72zM736 972v1052h-208v-840h-212v-212h420zM1578 1184v632q0 84 -62 146t-150 62h-206
q-90 0 -152 -62q-60 -62 -60 -146v-632q0 -90 60 -150q62 -62 152 -62h206q88 0 150 62t62 150zM1160 1184v632h206v-632h-206z" />
</svg>