<svg xmlns="http://www.w3.org/2000/svg" xmlns:xlink="http://www.w3.org/1999/xlink" version="1.1" viewBox="-10 0 2058 2048">
   <path fill="currentColor"
d="M818 0h412q44 0 73 29t29 72h614v1846h-206q0 43 -29 72t-72 29t-72 -29t-29 -72h-1028q0 43 -29 72t-72 29t-72 -29t-29 -72h-206v-1846h614q0 -44 28 -72q30 -29 74 -29zM308 308v408h1432v-408h-1432zM510 409q43 0 74 28q32 29 32 73q0 42 -32 74q-32 31 -74 31
q-44 0 -72 -31q-30 -32 -30 -74q0 -44 30 -73q28 -28 72 -28zM1024 409h206v101h-206v-101zM1332 409h100v206h-100v-206zM1538 409h100v206h-100v-206zM1024 923q-168 0 -288 120t-120 289q0 168 120 288t288 120t288 -120q120 -121 120 -288q0 -168 -120 -289
q-120 -120 -288 -120zM818 409q43 0 73.5 28t30.5 73q0 43 -31 74t-73 31q-45 0 -73.5 -31t-28.5 -74q0 -45 28 -73t74 -28z" />
</svg>