<svg xmlns="http://www.w3.org/2000/svg" xmlns:xlink="http://www.w3.org/1999/xlink" version="1.1" viewBox="-10 0 2068 2048">
   <path fill="currentColor"
d="M1124 284q-144 0 -230 230q-76 210 -76 510t76 510q86 230 230 230q218 0 424 -91q219 -91 354 -255q146 -174 146 -394t-146 -394q-135 -164 -354 -255q-206 -91 -424 -91zM1134 1558q-39 -40 -68 -169q-42 -157 -42 -365t42 -365q29 -129 68 -169q157 4 318 68
q174 68 274 178q120 130 120 288t-120 288q-100 110 -274 178q-161 64 -318 68zM408 615v308h208v202h-208v308h246q30 102 62 206h-308v308h-206v-308h-202v-206h202v-308h-202v-202h202v-308h-202v-206h202v-308h206v308h308l-4 14q-6 17 -6 29q-44 102 -52 163h-246z" />
</svg>