<svg xmlns="http://www.w3.org/2000/svg" xmlns:xlink="http://www.w3.org/1999/xlink" version="1.1" viewBox="-10 0 2068 2048">
   <path fill="currentColor"
d="M0 60q128 127 408 210q127 -106 284.5 -163t331.5 -57t332 58q159 57 286 162q278 -83 406 -210q-5 232 -216 420q166 242 166 544q0 194 -74 372q-74 183 -209.5 318.5t-318.5 209.5q-178 74 -372 74t-372 -74q-181 -73 -318 -210q-135 -135 -210 -318
q-74 -181 -74 -372q0 -302 166 -544q-211 -188 -216 -420zM1806 1024q0 -212 -106 -392q-104 -179 -286 -284q-180 -106 -390 -106t-390 106q-182 105 -286 284q-106 180 -106 391t106 391q105 181 286 286q180 106 390 106t390 -106q181 -105 286 -286q106 -180 106 -390z
M878 828q0 58 -44 102q-42 44 -102 44t-103 -43t-43 -103v-148zM1462 828q0 60 -43 103t-103 43t-103 -43t-43 -103l292 -148v148zM1024 1536q-123 0 -232 -48q-111 -49 -174 -130l136 -138q31 49 106 84q74 36 164 36t164 -36q75 -35 106 -84l136 138q-64 82 -172 130
q-110 48 -234 48z" />
</svg>