<svg xmlns="http://www.w3.org/2000/svg" xmlns:xlink="http://www.w3.org/1999/xlink" version="1.1" viewBox="-10 0 2058 2048">
   <path fill="currentColor"
d="M1598 458h-180q0 -121 -62 -229q-62 -105 -168 -167q-105 -62 -228.5 -62t-229.5 62q-105 62 -166 167q-62 106 -62 229h-180q-76 0 -130 54t-54 130v1097q0 72 54 126t130 54h642q-129 -81 -204 -214q-74 -133 -74 -287q0 -192 116 -347q-139 -52 -219.5 -170.5
t-80.5 -258.5h184q0 113 78 193q80 81 196 81h4q87 -56 184 -77q86 -81 86 -197h184q0 100 -42 189q125 21 230 94q108 74 176 180v-463q0 -76 -54 -130t-130 -54zM686 458q0 -116 79 -195t195 -79t195 79t79 195h-548zM1628 1636q81 -134 55.5 -287t-147.5 -253
q-122 -99 -278 -90q-158 9 -268.5 120t-119.5 268q-10 156 88 279q95 121 250 150q153 28 288 -58l286 283l128 -129zM1280 1645q-91 0 -162 -67q-68 -66 -68 -160q0 -95 69 -161t161 -66q96 0 162 66t66 161q0 94 -66 160q-68 67 -162 67z" />
</svg>