<svg xmlns="http://www.w3.org/2000/svg" xmlns:xlink="http://www.w3.org/1999/xlink" version="1.1" viewBox="-10 0 2058 2048">
   <path fill="currentColor"
d="M1541 2048h-1151q-133 0 -225 -94q-91 -92 -91 -223v-580q0 -135 93 -228l536 -526l98 103q26 26 26 62q0 27 -13 49l-169 245h1012q49 0 85 36q35 35 35 85t-35 85t-85 35h-553v76h754q49 0 82 36q34 37 34 85q0 47 -34 84q-33 36 -82 36h-754v81h673q49 0 85 33t36 83
q0 48 -36 84t-85 36h-673v80h437q49 0 83 34q33 33 33 82t-33 85t-83 36zM1166 361q-9 11 -17.5 22.5t-17.5 22.5q-49 64 -72 102q-35 66 -35 112q0 90 71 125q71 36 143 0q71 -35 71 -125q0 -44 -36 -112q-26 -44 -71 -102zM1644 0q-28 36 -63 76q-70 86 -116 169
q-62 109 -62 183q0 112 76 179q66 62 162 62q97 0 163 -62q76 -67 76 -174q0 -108 -120 -282q-56 -81 -116 -151z" />
</svg>