<svg xmlns="http://www.w3.org/2000/svg" xmlns:xlink="http://www.w3.org/1999/xlink" version="1.1" viewBox="-10 0 2068 2048">
   <path fill="currentColor"
d="M1024 0q-200 0 -392 77q-188 76 -333.5 221t-220.5 334q-78 192 -78 392t78 392q75 189 220.5 334t333.5 221q192 77 392 77t392 -77q188 -76 333.5 -221t220.5 -334q78 -192 78 -392t-78 -392q-75 -189 -220.5 -334t-333.5 -221q-192 -77 -392 -77zM520 1668
q33 -68 194 -125q163 -58 309.5 -58t310.5 58q162 58 194 125q-219 178 -504 178t-504 -178zM1678 1519q-100 -119 -328 -187q-180 -53 -326.5 -53t-327.5 53q-225 67 -326 187q-168 -222 -168 -495q0 -220 110 -411q112 -191 300.5 -301t411 -110t411 110t299.5 301
q112 191 112 411q0 274 -168 495zM1024 409q-152 0 -256 105q-104 106 -104 255t104 253q105 103 255.5 103t254.5 -103q106 -104 106 -253q0 -147 -106 -255q-103 -105 -254 -105zM1024 923q-62 0 -108 -46t-46 -110t46 -108q45 -44 107.5 -44t108.5 44t46 108t-46 110
t-108 46z" />
</svg>