<svg xmlns="http://www.w3.org/2000/svg" xmlns:xlink="http://www.w3.org/1999/xlink" version="1.1" viewBox="-10 0 2058 2048">
   <path fill="currentColor"
d="M908 1896q24 63 74 122q-82 30 -165 30q-140 0 -257 -69t-187 -188t-70 -257v-1159q0 -157 109 -266t263 -109q155 0 264 109t109 266v885q-145 127 -179 313q-25 9 -52 9q-98 0 -166 -67q-69 -68 -69 -164v-884h139v884q0 35 28 63q29 29 66 29q36 0 65 -29
q28 -28 28 -63v-976q0 -97 -67 -165q-68 -70 -163 -70q-96 0 -166 70t-70 165v1159q0 157 109 266t266 109q40 0 91 -13zM1326 467h-139v701q66 -29 139 -43v-658zM1636 1382l-331 335l-148 -148l-109 105l257 279l440 -441z" />
</svg>