<svg xmlns="http://www.w3.org/2000/svg" xmlns:xlink="http://www.w3.org/1999/xlink" version="1.1" viewBox="-10 0 2058 2048">
   <path fill="currentColor"
d="M410 0v206h-100q-86 0 -146 60t-60 146v1430q0 86 60 146t146 60h1428q86 0 146 -60t60 -146v-1430q0 -86 -60 -146t-146 -60h-100v-206h-206v206h-816v-206h-206zM310 719h1428v1123h-1428v-1123zM1042 820q-134 0 -214 63q-82 63 -78 177v5h198q0 -48 28 -72t72 -24
q42 0 71 29t29 79q0 51 -24 84q-24 34 -62 57q-82 53 -110 94q-28 40 -28 122h200q0 -50 14 -77q16 -29 54 -52q71 -39 114 -99q44 -59 44 -132q0 -115 -82 -184q-82 -70 -226 -70zM924 1535v206h200v-206h-200z" />
</svg>