<svg xmlns="http://www.w3.org/2000/svg" xmlns:xlink="http://www.w3.org/1999/xlink" version="1.1" viewBox="-10 0 2058 2048">
   <path fill="currentColor"
d="M1087 1053h-207v332h216q43 0 70 -15q29 -16 55 -38q39 -44 39 -113t-39 -113q-53 -53 -134 -53zM1231 0h-822q-86 0 -146 60q-61 61 -61 142v1644q0 81 61 142q60 60 146 60h1230q87 0 147 -60t60 -142v-1231zM1351 1433q-46 41 -99 57q-51 15 -146 15h-226v341h-163
v-923h389q97 0 151 19q55 20 99 63q44 44 60 93q17 53 17 123q0 144 -82 212zM1125 716v-562l567 562h-567z" />
</svg>