<svg xmlns="http://www.w3.org/2000/svg" xmlns:xlink="http://www.w3.org/1999/xlink" version="1.1" viewBox="-10 0 2064 2048">
   <path fill="currentColor"
d="M632 547l-628 624l628 624l624 -624zM280 1171l352 -353l353 353l-353 353zM1789 570q-123 -128 -282 -193q-158 -65 -332 -65v-312l-407 411l407 407v-312q134 0 257 50t222 149q131 126 176 301q45 174 0 348t-176 305q-98 93 -222 147q-120 52 -260 52
q-137 0 -268 -59l-145 140q197 109 416 109q171 0 332 -63q159 -62 282 -190q168 -170 226 -391q29 -112 29 -224t-29 -224q-58 -221 -226 -386z" />
</svg>