<svg xmlns="http://www.w3.org/2000/svg" xmlns:xlink="http://www.w3.org/1999/xlink" version="1.1" viewBox="-10 0 2058 2048">
   <path fill="currentColor"
d="M1236 629q0 141 -72 262q-69 119 -192 189q-119 69 -262 69q-102 0 -198 -39t-170 -113q-73 -72 -116 -170q-42 -96 -42 -198q0 -142 71.5 -263t192 -192t262.5 -71t262.5 71t192 192t71.5 263zM862 1419l266 261h-206l-370 368l-156 -152zM1550 0q84 0 145 61t61 148
q0 86 -61 147t-149 61q-86 0 -147 -61t-61 -147q0 -87 61 -148t151 -61zM1274 1360h-294l598 600l148 -148zM1354 1287l446 452l24 19q40 -64 40 -137v-835q0 -109 -78 -187t-188 -78q-107 0 -184 78q-76 77 -76 187v486z" />
</svg>