<svg xmlns="http://www.w3.org/2000/svg" xmlns:xlink="http://www.w3.org/1999/xlink" version="1.1" viewBox="-10 0 2068 2048">
   <path fill="currentColor"
d="M1512 1597l166 170l130 -135l-166 -166zM1770 1074h278v-187h-278v187zM1304 499v-449h-558v449q-124 72 -202 201q-78 127 -78 278q0 149 76 281q74 130 202 203q129 74 280.5 74t281.5 -74q127 -73 202 -203q74 -130 74 -281q0 -153 -76 -278q-79 -129 -202 -201z
M280 887h-280v187h280v-187zM934 1998h182v-274h-182v274zM240 1632l132 135l164 -170l-130 -131z" />
</svg>