<svg xmlns="http://www.w3.org/2000/svg" xmlns:xlink="http://www.w3.org/1999/xlink" version="1.1" viewBox="-10 0 2058 2048">
   <path fill="currentColor"
d="M230 0v2048h682v-400h224v400h682v-2048h-1588zM454 229h230v224h-230v-224zM912 229h224v224h-224v-224zM1366 229h228v224h-228v-224zM454 683h230v229h-230v-229zM912 683h224v229h-224v-229zM1366 683h228v229h-228v-229zM454 1136h230v229h-230v-229zM912 1136h224
v229h-224v-229zM1366 1136h228v229h-228v-229zM454 1595h230v224h-230v-224zM1366 1595h228v224h-228v-224z" />
</svg>