<svg xmlns="http://www.w3.org/2000/svg" xmlns:xlink="http://www.w3.org/1999/xlink" version="1.1" viewBox="-10 0 2058 2048">
   <path fill="currentColor"
d="M1510 1316v-246h200q46 146 46 246h-246zM1458 583q-80 -132 -165 -246h-23v246h188zM1510 1070v-246h-240v246h240zM1510 663v161h91zM1024 1556v-240h246v-246h-246v-246h246v-241h-246v-246h246v-34q-123 -160 -246 -303l-115 137q-138 172 -251 338
q-160 234 -252 429q-114 240 -114 412q0 194 97 363q96 168 266 269q167 100 369 100v-246h246v-246h-246zM1270 2002q138 -47 240 -143v-57h-240v200zM1270 1556h240v-240h-240v240zM1510 1802h57q98 -104 149 -246h-206v246z" />
</svg>