<svg xmlns="http://www.w3.org/2000/svg" xmlns:xlink="http://www.w3.org/1999/xlink" version="1.1" viewBox="-10 0 2068 2048">
   <path fill="currentColor"
d="M1124 1639h106q44 0 73 29t29 72h716v207h-716q0 43 -29 72t-73 29h-412q-44 0 -74 -29q-28 -28 -28 -72h-716v-207h716q0 -44 28 -72q30 -29 74 -29h104v-206h-306q-43 0 -76 -29q-30 -28 -30 -72v-1231q0 -44 30 -72q33 -29 76 -29h816q42 0 74 29q32 28 32 72v1231
q0 44 -32 72q-32 29 -74 29h-308v206zM1124 409h106v-207h-106v207zM716 202v207h206v-207h-206zM716 615v202h206v-202h-206zM716 1024v207h206v-207h-206z" />
</svg>