<svg xmlns="http://www.w3.org/2000/svg" xmlns:xlink="http://www.w3.org/1999/xlink" version="1.1" viewBox="-10 0 2058 2048">
   <path fill="currentColor"
d="M556 615q0 -43 31 -74t74.5 -31t72.5 31q28 32 28 74v457l126 14l504 226q44 15 64 53q22 41 22 82v447q0 62 -46 108t-108 46h-662q-64 0 -106 -43l-500 -428l76 -82q30 -34 72 -34h24l328 178v-1024zM1838 0q-63 0 -108 43q-46 44 -46 108q0 65 46 111t108 46t108 -46
t46 -111q0 -64 -46 -108q-44 -43 -108 -43zM1838 510q-62 0 -108 45q-46 46 -46 111q0 64 46 108q45 43 108.5 43t107.5 -43q46 -44 46 -108q0 -65 -46 -111q-44 -45 -108 -45zM1324 510q-62 0 -108 45q-46 46 -46 111q0 64 46 108q45 43 110 43q66 0 108 -43
q44 -44 44 -108q0 -65 -44 -111q-43 -45 -110 -45zM1838 1024q-62 0 -108 46t-46 108t46 108t108 46t108 -46t46 -108t-46 -108t-108 -46z" />
</svg>