<svg xmlns="http://www.w3.org/2000/svg" xmlns:xlink="http://www.w3.org/1999/xlink" version="1.1" viewBox="-10 0 2068 2048">
   <path fill="currentColor"
d="M1332 1707v341h-1024v-341q234 139 511.5 139t512.5 -139zM2048 202q0 -82 -60 -142t-142 -60q-47 0 -94 22t-74 64q-53 68 -36 152q16 84 84 132q52 39 120 39h24q128 342 38 694q-92 354 -370 589q-67 51 -106 72v183h106v-130q239 -172 374 -437q136 -264 136 -563
q0 -233 -82 -447q82 -64 82 -168zM1638 817q0 228 -110 414q-110 187 -298 298q-185 110 -410.5 110t-411.5 -110q-187 -111 -298 -298q-110 -186 -110 -411t110 -411q111 -187 298 -298q188 -111 411.5 -111t410.5 111q188 111 298 298q110 186 110 408z" />
</svg>