<svg xmlns="http://www.w3.org/2000/svg" xmlns:xlink="http://www.w3.org/1999/xlink" version="1.1" viewBox="-10 0 2065 2048">
   <path fill="currentColor"
d="M1103 1019q-56 -376 -164 -639q-154 -380 -376.5 -380t-377.5 380q-103 257 -159 639q-38 241 -14 452q24 208 96 356q48 105 120 173q57 48 135 48h399q77 0 134 -48q173 -164 216 -529q24 -207 -9 -452zM565 202q30 -9 77 55q47 62 100 185l-480 409q41 -199 101 -356
q56 -141 113 -223q56 -79 89 -70zM790 1125h-456q-29 0 -53 -19l534 -457q52 176 76 356q10 49 -21 84q-31 36 -80 36zM2025 1019q-56 -380 -163 -639q-154 -380 -375 -380q-207 0 -351 312q59 158 101 342l534 452q-27 19 -58 19h-394q20 197 0 370q-39 310 -163 505
q57 48 129 48h399q78 0 135 -48q173 -164 216 -529q24 -203 -10 -452zM1309 442q53 -120 101 -185q48 -64 77 -55q30 -9 87 70q59 81 110 223q62 160 106 356z" />
</svg>