<svg xmlns="http://www.w3.org/2000/svg" xmlns:xlink="http://www.w3.org/1999/xlink" version="1.1" viewBox="-10 0 2068 2048">
   <path fill="currentColor"
d="M2048 1925l-1924 -1925l-124 124l142 146l-56 233l394 101l296 297l-278 109l516 133l138 133l-810 -202l-90 380l1438 361l234 233zM648 1454l-186 -46l46 -192l192 46zM1028 1550l-188 -50l46 -188l188 46zM1402 1641l-186 -45l46 -192l22 9l142 137zM1814 1445l220 55
l-32 132zM1434 1065l-160 -160l348 87zM904 407l-22 101l256 260l640 160l90 -379l-1264 -320l132 132zM1472 549l186 45l-44 192l-192 -45zM1092 453l188 50l-46 187l-188 -45z" />
</svg>