<svg xmlns="http://www.w3.org/2000/svg" xmlns:xlink="http://www.w3.org/1999/xlink" version="1.1" viewBox="-10 0 2068 2048">
   <path fill="currentColor"
d="M1760 1714l-136 -138q108 -108 168 -250q60 -139 60 -302t-60 -302q-61 -144 -168 -252l136 -136q138 137 212 314q76 179 76 375.5t-76 374.5q-75 180 -212 316zM1486 1436l-138 -138q116 -114 116 -274t-116 -274l138 -138q83 79 126 186q44 109 44 226t-44 226
q-43 107 -126 186zM192 146h782q82 0 139 57t57 139v1362q0 84 -57 141t-139 57h-782q-76 0 -134 -58t-58 -140v-1362q0 -80 58 -138t134 -58zM586 342q-82 0 -139 57t-57 137q0 82 57 139t137 57t137 -57t57 -139q0 -80 -57 -137t-135 -57zM586 928q-164 0 -279 115
t-115 274t116 273q114 114 276 114t276 -114t114 -273t-115 -274t-273 -115zM586 1120q78 0 135 57t57 139t-57 139t-137 57t-137 -57t-57 -139t57 -139t139 -57z" />
</svg>