<svg xmlns="http://www.w3.org/2000/svg" xmlns:xlink="http://www.w3.org/1999/xlink" version="1.1" viewBox="-10 0 2068 2048">
   <path fill="currentColor"
d="M716 202v413h-308v-413h308zM202 1433v-308h-202v308h202zM0 1024h202v-308h-202v308zM1638 615h410q0 -86 -60 -146t-142 -60h-208v206zM2048 1125h-202v308h202v-308zM1846 716v308h202v-308h-202zM716 1846v-207h-308v207h308zM308 1639h-106v-101h-202v101
q0 87 60 147t142 60h106v-207zM1846 1538v101h-208v207h208q82 0 142 -60t60 -147v-101h-202zM202 615h106v-413h-106q-82 0 -142 60t-60 147v206h202zM1538 1639h-308v207h308v-207zM1124 1639h-306v207h306v-207zM1538 409h-308v206h308v-206zM818 615h306v-206h-100
l-206 -207v413z" />
</svg>