<svg xmlns="http://www.w3.org/2000/svg" xmlns:xlink="http://www.w3.org/1999/xlink" version="1.1" viewBox="-10 0 2058 2048">
   <path fill="currentColor"
d="M1022 1686v-653l586 -334v370q117 0 196 41v-576q0 -55 -50 -86l-768 -430q-41 -18 -60 -18t-60 18l-766 430q-52 32 -52 86v878q0 56 52 87l766 430q41 18 60 18t60 -18l86 -51q-27 -57 -50 -192zM926 214l586 320l-198 106l-576 -330zM830 1686l-584 -333v-654l584 334
v653zM926 854l-584 -320l196 -118l584 342zM1708 1266v292h292v197h-292v293h-196v-293h-294v-197h294v-292h196z" />
</svg>