<svg xmlns="http://www.w3.org/2000/svg" xmlns:xlink="http://www.w3.org/1999/xlink" version="1.1" viewBox="-10 0 2068 2048">
   <path fill="currentColor"
d="M1230 651l308 308v1024h-206v-615h-716l-208 307v308h-206v-615l106 -101v-308l-308 -308l102 -105l206 206h202v308q0 44 30 72q33 29 76 29h408q42 0 71 -29t29 -72v-308zM1740 344v-207l-408 409l306 307l102 -101l106 101l202 -202zM970 805l-716 -721
q-18 -19 -50 -19t-50 19q-24 24 -24 53t24 53l716 716q18 19 50 19t50 -19q24 -20 24 -50q0 -32 -24 -51z" />
</svg>