<svg xmlns="http://www.w3.org/2000/svg" xmlns:xlink="http://www.w3.org/1999/xlink" version="1.1" viewBox="-10 0 2068 2048">
   <path fill="currentColor"
d="M1120 54v492q-45 -10 -96 -10q-50 0 -96 10v-492h192zM1502 1314q-5 14 -9.5 28t-8.5 28l318 182v442h-196v-334l-218 -122q-68 77 -164 120q-94 44 -200 44t-200 -44q-96 -43 -164 -120l-218 122v334h-196v-442l318 -182q-4 -14 -8.5 -28t-9.5 -28h-172l-268 178
l-106 -158l314 -214h232q10 -43 28 -82l-150 -100l-346 86l-46 -196l428 -104l222 150q96 -92 220 -124q122 -31 244 0q124 32 220 124l218 -150l432 104l-46 196l-346 -86l-150 94q18 44 28 88h232l314 208l-106 164l-268 -178h-172zM928 1220q0 -42 -30 -72
q-28 -28 -70 -28q-41 0 -68 28q-28 32 -28 72t28 68q28 26 68 26t70 -27t30 -67zM1316 1220q0 -40 -28 -72q-27 -28 -68 -28q-42 0 -70 28q-30 30 -30 71t30 68t70 27t68 -26q28 -28 28 -68z" />
</svg>