<svg xmlns="http://www.w3.org/2000/svg" xmlns:xlink="http://www.w3.org/1999/xlink" version="1.1" viewBox="-10 0 2068 2048">
   <path fill="currentColor"
d="M0 332l130 -130l1716 1716l-130 130l-154 -154q-240 154 -538 154q-418 0 -722 -303q-302 -302 -302 -721q0 -300 154 -538zM1124 1836q154 -19 288 -91l-234 -231l-54 15v307zM212 923h298l38 -38l-246 -246q-71 130 -90 284zM1836 1125h-308q-19 86 -62 154l-658 -654
l10 -10h412l308 308h298q-40 -304 -272 -512q-233 -209 -540 -209q-270 0 -476 154l-150 -145q274 -211 626 -211q418 0 721 303t303 721q0 350 -212 625l-144 -144q119 -168 144 -380zM922 1836v-307q-152 -33 -262 -142q-108 -108 -140 -262h-308q32 273 232 473
q199 199 478 238z" />
</svg>