<svg xmlns="http://www.w3.org/2000/svg" xmlns:xlink="http://www.w3.org/1999/xlink" version="1.1" viewBox="-10 0 2068 2048">
   <path fill="currentColor"
d="M1782 262h-1678v-210h1678v210zM1330 1102h-176v178q-108 157 -108 344q0 46 10 108h-952v-630h-104v-210l104 -526h1678l104 526v142q-104 -40 -212 -40q-186 0 -344 108zM944 1102h-630v418h630v-418zM1670 892l-60 -314h-1334l-60 314h1454zM2048 1402l-148 -148
l-226 222l-220 -222l-148 148l222 222l-222 226l148 146l220 -226l226 226l148 -146l-226 -226z" />
</svg>