<svg xmlns="http://www.w3.org/2000/svg" xmlns:xlink="http://www.w3.org/1999/xlink" version="1.1" viewBox="-10 0 2068 2048">
   <path fill="currentColor"
d="M1740 1538q114 0 202 -72q106 -82 106 -235t-106 -241q-87 -67 -202 -67h-202v-207h202q154 0 240 -105q68 -88 68 -202q0 -153 -106 -241q-87 -67 -202 -67h-202v-101h-106v101h-816v-101h-106v101h-510v207h510v202h-202q-115 0 -202 72q-106 81 -106 235t106 241
q86 67 202 67h202v207h-202q-116 0 -202 67q-106 87 -106 240q0 154 106 241q86 67 202 67h202v101h106v-101h816v101h106v-101h510v-207h-510v-202h202zM1740 1125q43 0 74 24q32 24 32 79q0 56 -32 80q-31 24 -74 24h-202v-207h202zM1432 923h-816v-207h816v207zM1740 308
q43 0 74 21q32 21 32 80q0 43 -24 72q-25 29 -82 29h-202v-202h202zM616 308h816v202h-816v-202zM308 923q-43 0 -74 -24q-32 -24 -32 -79q0 -56 32 -80q31 -24 74 -24h202v207h-202zM616 1125h816v207h-816v-207zM308 1740q-43 0 -74 -21q-32 -21 -32 -80q0 -58 32 -79
q32 -22 74 -22h202v202h-202zM1432 1740h-816v-202h816v202z" />
</svg>