<svg xmlns="http://www.w3.org/2000/svg" xmlns:xlink="http://www.w3.org/1999/xlink" version="1.1" viewBox="-10 0 2063 2048">
   <path fill="currentColor"
d="M2043 1925l-1911 -1925l-127 127l596 592q-23 121 -23 187q-243 -101 -482 -101q176 82 300 274q70 118 164 368q65 170 109 260q68 129 154 191q100 73 242 73q168 0 282 -96q89 -76 163 -241l419 414zM687 805l95 101h-104zM755 1001h123l91 87v77q-141 -117 -214 -164
zM1287 1702q-13 -95 -63 -200q-54 -114 -141 -210h86l205 205q-26 109 -87 205zM969 419v173l114 118h177v-96h-195v-195h95v-96h-95v-196q99 0 186 116q86 115 141 312t59 428v96l196 195q68 -169 145 -273q102 -134 241 -196q-253 0 -482 110q-9 -251 -75 -453
q-66 -203 -175 -316q-110 -114 -236 -114q-106 0 -198 79q-95 81 -162 221l87 87h177zM969 155v168h-146q78 -127 146 -168zM1356 983l-78 -77h78v77z" />
</svg>