<svg xmlns="http://www.w3.org/2000/svg" xmlns:xlink="http://www.w3.org/1999/xlink" version="1.1" viewBox="-10 0 2068 2048">
   <path fill="currentColor"
d="M0 1538h2048v409h-2048v-409zM432 510h284v-101h-308v-308h822v308h-308v101h698q72 0 139 64t87 142l48 717h-1740l52 -717q0 -77 68 -142q67 -64 158 -64zM1124 716v207h514v-207h-514zM408 716v101h208v-101h-208zM716 716v101h206v-101h-206zM408 923v101h208v-101
h-208zM716 923v101h206v-101h-206zM408 1125v106h208v-106h-208zM716 1125v106h206v-106h-206zM510 202v106h614v-106h-614z" />
</svg>