<svg xmlns="http://www.w3.org/2000/svg" xmlns:xlink="http://www.w3.org/1999/xlink" version="1.1" viewBox="-10 0 2068 2048">
   <path fill="currentColor"
d="M846 1125q0 53 -38 91q-40 39 -92 39t-92 -39q-38 -38 -38 -91q0 -54 38 -89q40 -36 92 -36t92 36q38 35 38 89zM1332 1000q-54 0 -92 36q-38 35 -38 89q0 53 38 91q38 39 92 39q52 0 90 -39q38 -38 38 -91q0 -54 -38 -89q-38 -36 -90 -36zM2048 1024q0 200 -78 392
q-75 189 -220.5 334t-333.5 221q-192 77 -392 77t-392 -77q-188 -76 -333.5 -221t-220.5 -334q-78 -192 -78 -392t78 -392q75 -189 220.5 -334t333.5 -221q192 -77 392 -77t392 77q188 76 333.5 221t220.5 334q78 192 78 392zM884 216q112 183 298 291q188 108 404 108
q68 0 140 -14q-111 -183 -296 -291t-406 -108q-68 0 -140 14zM246 764q134 -76 230 -194q96 -119 144 -262q-131 77 -228 194q-98 117 -146 262zM1846 1024q0 -112 -34 -231q-116 24 -226 24q-234 0 -442 -101q-206 -100 -352 -274q-81 198 -234 344q-157 148 -356 224v14
q0 220 110 411q111 190 300 300q191 111 411.5 111t410.5 -111q190 -110 300 -300q112 -191 112 -411z" />
</svg>