<svg xmlns="http://www.w3.org/2000/svg" xmlns:xlink="http://www.w3.org/1999/xlink" version="1.1" viewBox="-10 0 2068 2048">
   <path fill="currentColor"
d="M0 125v365h154q77 0 106 53q24 39 24 125v649q0 163 88 303q89 139 238 221q151 82 332 82h894q86 0 149 -51t63 -132v-1004q0 -164 -88 -303q-88 -142 -238 -222q-151 -81 -328 -81zM472 351h182v923q0 91 52.5 156t129.5 65h610q98 0 162 -55q64 -56 64 -137v-491
q0 -44 -30 -76q-33 -34 -80 -34t-80 34q-30 32 -30 76v423h-192v-423q0 -42 -32 -76q-33 -34 -78 -34q-44 0 -78 34q-34 33 -34 76v423h-188v-423q0 -126 88 -214q86 -88 208 -88q124 0 210 86q86 -86 208.5 -86t211.5 91q88 92 88 211v524q-15 136 -110 231
q-116 116 -270 116h-682q-118 -9 -220 -111q-110 -110 -110 -260v-961z" />
</svg>