<svg xmlns="http://www.w3.org/2000/svg" xmlns:xlink="http://www.w3.org/1999/xlink" version="1.1" viewBox="-10 0 2058 2048">
   <path fill="currentColor"
d="M835 666h187v569h-187v-569zM1213 0h-568v191h568v-191zM929 1804q-181 0 -333 -89q-151 -88 -240 -242t-89 -333q0 -180 89 -334t240 -242q152 -89 333 -89t333 89q151 88 240 242q88 152 88 331q94 0 191 36v-36q0 -148 -49 -282q-50 -137 -137 -246l133 -138
q-60 -69 -133 -133l-133 137q-112 -89 -249 -140q-138 -51 -284 -51q-231 0 -427 116q-194 115 -310 311t-116 426t116 429q115 197 310 311q193 113 427 113q83 0 160 -13q-44 -87 -58 -182q-61 9 -102 9zM1972 1604l-275 -27l-107 -249l-106 249l-271 27l209 177l-67 267
l235 -142l236 142l-62 -267z" />
</svg>