<svg xmlns="http://www.w3.org/2000/svg" xmlns:xlink="http://www.w3.org/1999/xlink" version="1.1" viewBox="-10 0 2068 2048">
   <path fill="currentColor"
d="M1174 820q24 0 40 15q14 14 14 33v154h-614v-154q0 -18 15 -33t37 -15h508zM1588 921q68 0 152 19v-225h-206v211q22 -5 54 -5zM308 1636v-921h-208v1127h874q-40 -92 -48 -206h-618zM1842 614h-1842v-614h1842v614zM1636 206h-1430v202h1430v-202zM2048 1588
q0 190 -134 326q-133 134 -326.5 134t-325.5 -134q-136 -137 -136 -326t136 -326q133 -135 325.5 -135t326.5 135q134 136 134 326zM1740 1852l-416 -418q-44 67 -44 154q0 125 88.5 216t219.5 91q86 0 152 -43zM1894 1588q0 -130 -92 -218q-92 -89 -214 -89q-88 0 -154 43
l416 417q44 -67 44 -153z" />
</svg>