<svg xmlns="http://www.w3.org/2000/svg" xmlns:xlink="http://www.w3.org/1999/xlink" version="1.1" viewBox="-10 0 2068 2048">
   <path fill="currentColor"
d="M1542 1176q-144 0 -252 91q-109 93 -142 226q-124 -52 -250 0q-32 -134 -144 -226q-110 -91 -250 -91q-168 0 -285 120t-117 291t117 291t281 120q163 0 278 -108q116 -108 126 -272q43 -28 90 -33q79 -9 150 38q14 159 128 267q112 108 276 108t280 -120
q118 -121 118 -291t-118 -291q-116 -120 -286 -120zM504 1883q-120 0 -204 -87t-84 -209q0 -123 84 -207t204 -84t204 84t84 207q0 122 -84 209t-204 87zM1542 1883q-120 0 -204 -87t-84 -209q0 -123 84 -207t204 -84t204 84t84 207q0 122 -84 209t-204 87zM2048 921h-2048
v154h2048v-154zM1384 113q-14 -38 -52 -55q-40 -16 -82 -2l-226 77l-236 -77q-37 -14 -76 5q-39 20 -54 57l-250 649h1230z" />
</svg>