<svg xmlns="http://www.w3.org/2000/svg" xmlns:xlink="http://www.w3.org/1999/xlink" version="1.1" viewBox="-10 0 2068 2048">
   <path fill="currentColor"
d="M1464 1558q40 0 68 28t28 71t-28 71q-28 27 -72 27q-42 0 -70 -27q-28 -28 -28 -71t28 -71t74 -28zM690 1723l-26 -69l26 -68q97 -234 308 -375q211 -142 466 -142q269 0 484 156v-640q0 -83 -57 -140t-135 -57h-394v-196q0 -78 -57 -135t-135 -57h-392q-78 0 -135 57
t-57 135v196h-394q-76 0 -134 57q-58 58 -58 140v1069q0 82 58 140q58 57 134 57h568q-41 -57 -70 -128zM778 192h392v196h-392v-196zM1464 1266q-197 0 -360 110q-161 109 -226 278q65 175 226 284q163 110 356 110q195 0 358 -110q160 -108 230 -284q-69 -169 -230 -278
q-163 -110 -354 -110zM1464 1901q-106 0 -177 -71t-71 -173q0 -103 71 -174t173 -71q104 0 175 71t71 174q0 102 -71 173t-171 71z" />
</svg>