<svg xmlns="http://www.w3.org/2000/svg" xmlns:xlink="http://www.w3.org/1999/xlink" version="1.1" viewBox="-10 0 2068 2048">
   <path fill="currentColor"
d="M420 0q174 0 296 122t122 297q0 122 -62 226l8 9h480l8 -9q-60 -104 -60 -226q0 -175 122 -297t296 -122t296 122q122 121 122 297q0 175 -122 296q-122 122 -296 122q-122 0 -226 -61l-100 100v297l100 100q104 -61 226 -61q174 0 296 122q122 121 122 296t-122 296
q-122 122 -296 122t-296 -122t-122 -296q0 -123 60 -227l-8 -8h-480l-8 8q62 104 62 227q0 174 -122 296t-296 122q-176 0 -298 -122t-122 -296t122 -296t298 -122q121 0 226 61l100 -100v-297l-100 -100q-105 61 -226 61q-176 0 -298 -122t-122 -296q0 -175 122 -297
t298 -122zM420 188q-98 0 -165 67t-67 164t68 165q68 70 164 70q94 0 164 -70t70 -165q0 -96 -70 -164q-68 -67 -164 -67zM420 1395q-97 0 -164 69q-68 68 -68 166q0 96 68 163q68 68 164 68q95 0 164 -68q70 -68 70 -163q0 -96 -70 -166q-68 -69 -164 -69zM1630 188
q-97 0 -166 67q-70 68 -70 164q0 95 70 165t166 70q95 0 164 -70q66 -68 66 -165t-67 -164t-163 -67zM1630 1395q-96 0 -166 69q-70 70 -70 166q0 95 70 163t166 68t164 -68q66 -67 66 -163q0 -98 -66 -166q-68 -69 -164 -69zM270 1512l110 61q17 -13 44 -13q26 0 46 20
q18 19 18 50v9l106 61l-26 43l-106 -61q-18 18 -42 18q-26 0 -48 -22t-22 -48l4 -9l-110 -61zM244 488l110 -61l-4 -8q0 -26 22 -48t48 -22t42 17l106 -61l26 44l-106 61v9q0 31 -19 50t-45 19q-27 0 -44 -13l-110 61zM1482 305l104 61q18 -17 44 -17t48 22t22 48l-4 8
l108 61l-26 48l-108 -61q-18 13 -44 13q-28 0 -47 -19t-19 -50v-9l-104 -61zM1456 1700l104 -70q0 -31 20 -50q20 -20 46 -20t44 13l108 -61l26 48l-104 70q0 26 -22 48t-48 22t-44 -18l-104 61z" />
</svg>