<svg xmlns="http://www.w3.org/2000/svg" xmlns:xlink="http://www.w3.org/1999/xlink" version="1.1" viewBox="-10 0 2068 2048">
   <path fill="currentColor"
d="M0 0h408v101h716v-101h414v409h-106v307h206v-101h410v409h-102v615h102v409h-410v-101h-614v101h-408v-409h100v-206h-308v105h-408v-413h102v-716h-102v-409zM1638 1024v-101h-206v202h106v413h-414v-105h-202v206h102v101h614v-101h102v-615h-102zM1124 409v-101h-716
v101h-100v716h100v106h308v-207h-100v-409h408v101h206v-307h-106zM1024 1024h-102v207h202v-106h106v-202h-206v101z" />
</svg>