<svg xmlns="http://www.w3.org/2000/svg" xmlns:xlink="http://www.w3.org/1999/xlink" version="1.1" viewBox="-10 0 2068 2048">
   <path fill="currentColor"
d="M1108 1366v168h88q36 0 60 26q24 25 24 62h596v168h-596q0 36 -24 62t-60 26h-344q-36 0 -60 -26t-24 -62h-596v-168h596q0 -36 24 -62t60 -26h88v-168h168zM2024 570q24 24 24 60t-24 60l-212 212q-24 24 -60 24t-60 -24q-111 -99 -228 -160q-21 -8 -34 -30
q-14 -23 -14 -46v-264q-188 -60 -392 -60t-392 60v264q0 56 -48 80q-128 64 -228 156q-24 24 -60 24t-60 -24l-212 -212q-24 -24 -24 -60t24 -60q198 -191 452 -292q264 -108 548 -108t548 108q254 101 452 292zM940 766v428h-88v-428h88zM1024 766h256v256h-172v172h-84
v-428zM1196 938v-84h-88v84h88z" />
</svg>