<svg xmlns="http://www.w3.org/2000/svg" xmlns:xlink="http://www.w3.org/1999/xlink" version="1.1" viewBox="-10 0 2068 2048">
   <path fill="currentColor"
d="M822 736l-78 187h564l-78 -187l568 288l-568 288l78 -187h-564l78 187l-568 -288zM1926 2048h-1806q-52 0 -86 -34q-34 -33 -34 -86v-1808q0 -53 34 -86q34 -34 86 -34h1806q54 0 88 34t34 86v1808q0 52 -34 86t-88 34zM1018 178q-229 4 -422 118q-194 113 -306 307
q-112 196 -112 421q0 226 110 421q111 194 304 307q193 114 418 118h14q229 -4 422 -118q193 -113 306 -305q113 -194 118 -421q4 -229 -106 -420q-112 -193 -298 -308q-188 -116 -414 -120h-34z" />
</svg>