<svg xmlns="http://www.w3.org/2000/svg" xmlns:xlink="http://www.w3.org/1999/xlink" version="1.1" viewBox="-10 0 2058 2048">
   <path fill="currentColor"
d="M1714 1793q-79 117 -136 173q-88 78 -176 82q-67 0 -164.5 -41t-173.5 -41q-56 0 -104 15q-45 14 -82 28q-88 39 -150 39q-87 4 -178 -82q-55 -51 -144 -178q-92 -137 -148 -307q-68 -191 -68 -375q5 -202 86 -351q68 -115 182 -185t242 -70q75 0 212 53q94 34 124 34
q31 0 120 -34q95 -36 130 -43q76 -20 144 -15q83 4 164 39q131 49 206 163q-70 45 -120 106q-102 131 -102 284q5 137 74 245q52 77 134 134q47 31 72 39l-6 5q-51 152 -138 283zM1128 154q56 -67 142 -111q83 -43 160 -43q9 85 -20 173q-27 85 -86 154q-56 67 -138 108
q-82 40 -164 36q-10 -81 24 -173q27 -79 82 -144z" />
</svg>