<svg xmlns="http://www.w3.org/2000/svg" xmlns:xlink="http://www.w3.org/1999/xlink" version="1.1" viewBox="-10 0 2068 2048">
   <path fill="currentColor"
d="M1946 409q0 224 -240 360q-169 96 -442 135q-136 19 -240 19h-716q-67 0 -144 -53q-37 -22 -62 -53h-102v414h102l28 -29q41 -30 76 -48q54 -29 102 -29h130q-130 88 -130 207q0 139 156 223t406 84t406 -84q156 -85 156 -223q0 -91 -82 -173q251 48 400 144
q196 131 196 336h102v-1230h-102zM870 1505q-172 0 -295 -51t-123 -122q0 -72 122 -123q121 -50 296 -50t296 50q122 51 122 123q0 71 -122 122q-124 51 -296 51z" />
</svg>