<svg xmlns="http://www.w3.org/2000/svg" xmlns:xlink="http://www.w3.org/1999/xlink" version="1.1" viewBox="-10 0 2068 2048">
   <path fill="currentColor"
d="M818 923l-98 212l-210 96l210 96l98 211l96 -211l210 -96l-210 -96zM1638 202l208 413h-308l-206 -413h-208l208 413h-308l-206 -413h-202l202 413h-308l-202 -413h-106q-82 0 -142 60t-60 147v1230q0 87 60 147t142 60h1644q82 0 142 -60t60 -147v-1437h-410zM1846 1639
h-1644v-1182l182 360h1048l-62 144l-140 63l140 62l62 145l68 -145l138 -62l-138 -63l-68 -144h414v822z" />
</svg>