<svg xmlns="http://www.w3.org/2000/svg" xmlns:xlink="http://www.w3.org/1999/xlink" version="1.1" viewBox="-10 0 2068 2048">
   <path fill="currentColor"
d="M1522 836q-78 -79 -187 -79t-188 79t-79 188t79 188t188 79t188 -79t79 -188t-80 -188zM622 490v1068h1426v-1068h-1426zM1868 1204q-74 0 -126 52q-54 53 -54 123h-708q0 -71 -52 -123t-128 -52v-359q76 0 128 -52t52 -123h708q0 70 54 123q52 52 126 52v359zM446 670
h-178q-37 0 -64 -28q-24 -26 -24 -62q0 -37 24 -63q26 -27 64 -27h178v180zM446 1112h-266q-38 0 -64 -25q-28 -25 -28 -63q0 -36 28 -62q26 -25 64 -25h266v175zM446 1558h-358q-34 0 -61 -27t-27 -63q0 -35 27 -62t61 -27h358v179z" />
</svg>