<svg xmlns="http://www.w3.org/2000/svg" xmlns:xlink="http://www.w3.org/1999/xlink" version="1.1" viewBox="-10 0 2068 2048">
   <path fill="currentColor"
d="M1364 1022q0 -89 64 -150q65 -62 152 -62q88 0 150 62t62 150q0 87 -62 152q-61 64 -150 64q-88 0 -152 -64t-64 -152zM1108 298v1452h940v-1452h-940zM1876 1406q-68 0 -118 50t-50 122h-256q0 -72 -50 -122t-122 -50v-768q72 0 122 -50t50 -118h256q0 68 50 118t118 50
v768zM596 554q72 0 122 50t50 120t-50 120t-120 50t-120 -50t-50 -120t50 -120t118 -50zM596 382q-140 0 -240 100t-100 242t100 242t242 100t242 -100t100 -242t-100 -242t-244 -100zM596 1238q-161 0 -298 46q-140 47 -218 124q-80 78 -80 170v172h940v-172h-768
q0 -28 48 -68q53 -39 144 -68q104 -36 232 -36q207 0 344 84v-192q-156 -60 -344 -60z" />
</svg>