<svg xmlns="http://www.w3.org/2000/svg" xmlns:xlink="http://www.w3.org/1999/xlink" version="1.1" viewBox="-10 0 2068 2048">
   <path fill="currentColor"
d="M1180 1147l156 219q5 -84 28 -158q23 -76 70 -141zM1574 1693q-5 -199 62 -396q66 -198 184 -356l-192 63q-123 78 -174 233q-51 157 -2 286zM1716 1885q-71 67 -156 116l-32 -44q-225 -121 -504.5 -121t-505.5 121l-30 44q-87 -50 -158 -116l28 -31q49 -247 -42 -526
q-92 -279 -276 -449l-40 -14q23 -98 58 -183l40 14q248 -27 486 -199q237 -172 346 -401v-44l94 -5l94 5v40q103 232 342 405q236 171 484 203l46 -18q35 85 58 183l-50 18q-182 165 -272 443q-90 277 -40 519zM930 968v-277q-55 68 -116 112q-76 53 -148 80zM930 284
q-114 169 -284 291q-173 125 -368 179l186 62q72 4 148 -18q78 -23 144 -71q133 -99 174 -237v-206zM1118 968l264 -85q-75 -30 -144 -78q-66 -46 -120 -114v277zM1766 754q-187 -54 -360 -179q-171 -123 -288 -291v197q36 147 172 246q135 98 284 89zM868 1147l-260 -85
q44 65 72 148q26 81 26 161zM220 937q119 155 186 360q68 204 64 405l112 -161q57 -137 6 -300q-51 -159 -172 -241zM1024 1259l-156 219q74 -22 156 -22t156 22zM626 1809q186 -67 397.5 -67t398.5 67l-126 -170q-106 -89 -272 -89t-272 89z" />
</svg>