<svg xmlns="http://www.w3.org/2000/svg" xmlns:xlink="http://www.w3.org/1999/xlink" version="1.1" viewBox="-10 0 2068 2048">
   <path fill="currentColor"
d="M0 700h430v-430h-430v430zM0 1242h430v-436h-430v436zM542 1242h430v-436h-430v436zM1078 1242h434v-436h-434v436zM542 700h430v-430h-430v430zM1078 270v430h434v-430h-434zM1618 1242h430v-436h-430v436zM0 1778h430v-430h-430v430zM542 1778h430v-430h-430v430z
M1078 1778h434v-430h-434v430zM1618 1778h430v-430h-430v430zM1618 270v430h430v-430h-430z" />
</svg>