<svg xmlns="http://www.w3.org/2000/svg" xmlns:xlink="http://www.w3.org/1999/xlink" version="1.1" viewBox="-10 0 2068 2048">
   <path fill="currentColor"
d="M1740 1332q44 0 75 31t31 72t-31 72t-73 31t-73 -31t-31 -72t31 -72t71 -31zM1740 1125q-126 0 -217 91t-91 219t92 216q92 89 218 89q128 0 217 -89t89 -216t-90 -219q-88 -91 -218 -91zM818 409h-510v206h510v-206zM1538 308h-308v202h308v274l-360 447h-360v-515h-410
q-168 0 -288 120t-120 289v308h202q0 129 92 218t218 89q128 0 217 -89t89 -218h460l462 -577v-346q0 -82 -60 -142t-142 -60zM510 1538q-40 0 -71 -31t-31 -74h208q0 42 -32 74q-32 31 -74 31z" />
</svg>