<svg xmlns="http://www.w3.org/2000/svg" xmlns:xlink="http://www.w3.org/1999/xlink" version="1.1" viewBox="-10 0 2068 2048">
   <path fill="currentColor"
d="M0 610h896l70 138h-896zM90 886h898l68 138h-896zM1586 1623q58 0 98 -40q40 -41 40 -100q0 -58 -40 -97q-40 -38 -97.5 -38t-96.5 38q-42 39 -42 97q0 59 42 100q40 40 96 40zM1724 796h-228v228h410zM668 1623q58 0 98 -40q40 -41 40 -100q0 -58 -40 -97
q-40 -38 -100 -38q-58 0 -96 38q-40 39 -40 97q0 59 40 100q38 40 98 40zM1772 658l276 366v462h-186q0 111 -80 194q-78 81 -195.5 81t-196.5 -81q-80 -83 -80 -194h-366q0 112 -82 194q-80 81 -196 81q-115 0 -194 -81q-80 -83 -80 -194h-184v-324h184v138h70
q82 -90 204 -90t204 90h440v-828h-1102q0 -77 54 -131t130 -54h1104v371h276z" />
</svg>