<svg xmlns="http://www.w3.org/2000/svg" xmlns:xlink="http://www.w3.org/1999/xlink" version="1.1" viewBox="-10 0 2068 2048">
   <path fill="currentColor"
d="M1304 279q-154 0 -262 109q-108 108 -108 264q0 155 108 263q108 109 262 109q152 0 261 -109t109 -263q0 -155 -109 -264t-261 -109zM1304 458q82 0 139 57t57 137t-57 137t-139 57q-84 0 -140 -57q-56 -56 -56 -137t56 -137q56 -57 140 -57zM280 558v279h-280v187h280
v279h186v-279h280v-187h-280v-279h-186zM1304 1116q-142 0 -306 43q-187 48 -300 122q-140 91 -140 210v278h1490v-278q0 -119 -140 -210q-113 -74 -300 -122q-163 -43 -304 -43zM1304 1295q132 0 270 34q120 34 208 83q88 48 88 79v100h-1132v-100q0 -31 86 -79
q89 -49 210 -83q137 -34 270 -34z" />
</svg>