<svg xmlns="http://www.w3.org/2000/svg" xmlns:xlink="http://www.w3.org/1999/xlink" version="1.1" viewBox="-10 0 2068 2048">
   <path fill="currentColor"
d="M818 101q-224 0 -409.5 55t-298.5 149q-110 92 -110 205v1028q0 113 110 205q113 94 298.5 149t411 55t411 -55t297.5 -149q110 -92 110 -205v-1028q0 -113 -110 -205q-112 -94 -297.5 -149t-412.5 -55zM1432 1538q0 28 -72 72q-86 60 -206 92q-151 38 -334 38
q-185 0 -340 -38q-120 -32 -206 -92q-72 -44 -72 -72v-230q260 125 616 125q354 0 614 -125v230zM1432 1072q-98 71 -264 115t-348.5 44t-351.5 -44q-167 -44 -266 -115v-288q111 61 276 101q157 38 342 38q184 0 338 -38q162 -40 274 -101v288zM818 716q-180 0 -338 -43
q-121 -32 -206 -87q-72 -44 -72 -74q0 -31 72 -75q83 -58 206 -91q155 -38 340 -38q183 0 334 38q123 33 206 91q72 44 72 75q0 30 -72 74q-85 55 -206 87q-153 43 -336 43zM2048 510v615h-202v-615h202zM1846 1332h202v206h-202v-206z" />
</svg>