<svg xmlns="http://www.w3.org/2000/svg" xmlns:xlink="http://www.w3.org/1999/xlink" version="1.1" viewBox="-10 0 2068 2048">
   <path fill="currentColor"
d="M430 918h-430v-218h430v-106h-212q-90 0 -154 -63q-64 -64 -64 -154v-106q0 -91 64 -155q64 -63 154 -63h212q92 0 155 63t63 155v429q0 92 -63 155t-155 63zM430 271h-212v106h212v-106zM218 1130h212q92 0 155 63t63 155v430q0 91 -63 154t-155 63h-212q-90 0 -154 -63
q-64 -64 -64 -154v-430q0 -91 64 -155q64 -63 154 -63zM218 1778h212v-430h-212v430zM972 271h1076v212h-1076v-212zM972 1778v-213h1076v213h-1076zM972 918h1076v212h-1076v-212z" />
</svg>