<svg xmlns="http://www.w3.org/2000/svg" xmlns:xlink="http://www.w3.org/1999/xlink" version="1.1" viewBox="-10 0 2058 2048">
   <path fill="currentColor"
d="M1083 1769q-180 0 -327 -89q-149 -90 -235 -237q-87 -149 -87 -327q0 -179 87 -323l889 885q-148 91 -327 91zM247 279l-118 118l257 257q-139 208 -139 462q0 226 113 420t305 305q194 112 418 112q252 0 466 -140l231 235l117 -117l-718 -719zM992 785l182 187v-318
h-182v131zM1362 0h-558v188h558v-188zM1736 332l-130 130q-110 -87 -244 -135q-135 -48 -279 -48q-253 0 -462 140l135 135q153 -87 329 -87q177 0 325 87t235 237t87 325q0 174 -87 327l135 135q139 -208 139 -462q0 -144 -48 -277q-47 -132 -135 -242l131 -135z" />
</svg>