<svg xmlns="http://www.w3.org/2000/svg" xmlns:xlink="http://www.w3.org/1999/xlink" version="1.1" viewBox="-10 0 2058 2048">
   <path fill="currentColor"
d="M1284 461q0 -39 38 -105q31 -53 72 -106l43 -48l39 48q41 53 72 106q43 67 43 105q0 63 -46 109q-45 45 -110 45t-108 -45q-43 -44 -43 -109zM1692 1332q105 0 180 -75t75 -180q0 -77 -63 -197q-47 -85 -125 -183l-67 -82l-67 82q-78 98 -125 183q-63 120 -63 197
q0 105 75 180t180 75zM1024 1231h-202v-207h-206v207h-207v202h207v206h206v-206h202v-202zM1332 1024v1024h-1231v-1024q0 -226 147 -397q146 -170 368 -209v-216h-207v-202h615q168 0 308 101l-145 149q-76 -48 -163 -48h-202v216q217 39 363 209q147 171 147 397z" />
</svg>