<svg xmlns="http://www.w3.org/2000/svg" xmlns:xlink="http://www.w3.org/1999/xlink" version="1.1" viewBox="-10 0 2068 2048">
   <path fill="currentColor"
d="M172 256h1704q73 5 120 52t52 120v1192q-5 73 -52 120t-120 52h-1704q-73 -5 -120 -52t-52 -120v-1192q5 -73 52 -120t120 -52zM684 1188q-97 0 -208 28q-132 36 -212 92q-92 65 -92 144v84h1024v-84q0 -80 -96 -144q-80 -56 -208 -92q-113 -28 -208 -28zM684 512
q-108 0 -182 74t-74 182t74 182t180 74q105 0 182 -74q76 -73 76 -182t-76 -182q-77 -74 -180 -74zM1452 852v256h340v-256h-340z" />
</svg>