<svg xmlns="http://www.w3.org/2000/svg" xmlns:xlink="http://www.w3.org/1999/xlink" version="1.1" viewBox="-10 0 2068 2048">
   <path fill="currentColor"
d="M1024 744q-116 0 -197 81t-81 199t80 198t198 80t198 -80q82 -80 82 -198t-81 -199t-199 -81zM1024 1490q-124 0 -232 -64q-107 -63 -170 -170q-64 -106 -64 -232.5t64 -233.5q63 -106 170 -170q106 -62 232.5 -62t233.5 62q106 64 170 170q62 107 62 233.5t-62 232.5
q-64 107 -170 170q-109 64 -234 64zM1024 326q-343 0 -622 194q-280 194 -402 504q123 310 402 504t622.5 194t623.5 -194q277 -193 400 -504q-122 -311 -400 -504q-280 -194 -624 -194z" />
</svg>