<svg xmlns="http://www.w3.org/2000/svg" xmlns:xlink="http://www.w3.org/1999/xlink" version="1.1" viewBox="-10 0 2058 2048">
   <path fill="currentColor"
d="M594 1669q0 71 -48 116q-49 46 -116 46q-68 0 -114 -46q-45 -45 -45 -114q0 -68 45 -116t114 -48q68 0 116 48t48 114zM1671 384q-15 -167 -132 -275q-118 -109 -272 -109h-582q-150 0 -268 109q-116 109 -131 270l-15 117q-11 61 29.5 106t96.5 45q57 0 94 -35
q38 -37 43 -86l15 -116q4 -62 45 -102q40 -40 91 -40h582q50 0 90 40q41 41 46 102l106 1193q4 73 -35 124q-41 53 -101 53l-561 -76q-15 156 -132 258l662 86h31q86 0 161 -35q74 -35 134 -99q59 -64 89 -152q30 -89 20 -184zM989 637q-51 -30 -104 -18t-83 64l-385 612h16
q136 0 247 91l349 -562q30 -45 18 -101q-12 -55 -58 -86z" />
</svg>