<svg xmlns="http://www.w3.org/2000/svg" xmlns:xlink="http://www.w3.org/1999/xlink" version="1.1" viewBox="-10 0 2058 2048">
   <path fill="currentColor"
d="M483 0q0 127 58 240t159 190q-101 77 -159 190t-58 245q0 193 121 341q122 149 314 185v227h-218v218h218v212h212v-212h217v-218h-217v-227q191 -36 313 -185t122 -341q0 -132 -58 -245q-57 -112 -160 -190q103 -78 160 -190q58 -113 58 -240h-218q0 137 -93 230
q-94 94 -230 94t-230 -94t-94 -230h-217zM1024 541q136 0 230 94q93 93 93 227t-93 230q-94 97 -230 97t-230 -97t-94 -230t94 -227t230 -94z" />
</svg>