<svg xmlns="http://www.w3.org/2000/svg" xmlns:xlink="http://www.w3.org/1999/xlink" version="1.1" viewBox="-10 0 2068 2048">
   <path fill="currentColor"
d="M1024 96q78 0 134 54q54 54 54 128q0 52 -26 96q-25 42 -70 66v118h96q176 0 324 88q151 91 238 238q86 149 86 328h92q38 0 68 26q28 25 28 64v280q0 39 -28 64q-31 28 -68 28h-92v94q0 76 -54 130t-132 54h-1298q-78 0 -134 -54q-54 -54 -54 -130v-94h-92
q-36 0 -66 -28q-30 -25 -30 -64v-280q0 -39 29.5 -64.5t66.5 -25.5h92q0 -179 88 -328q86 -147 236 -238q149 -88 326 -88h96v-118q-46 -24 -70 -66q-26 -44 -26 -96q0 -74 54 -128t132 -54zM606 1116q-94 0 -162 70q-68 69 -68 164q0 96 68 164q66 68 162 68t164 -68
t68 -164q0 -95 -68 -164q-69 -70 -164 -70zM1442 1116q-94 0 -162 70q-68 69 -68 164q0 96 68 164q66 68 162 68t164 -68t68 -164q0 -95 -68 -164q-69 -70 -164 -70z" />
</svg>