<svg xmlns="http://www.w3.org/2000/svg" xmlns:xlink="http://www.w3.org/1999/xlink" version="1.1" viewBox="-10 0 2058 2048">
   <path fill="currentColor"
d="M146 1170q0 236 120 441q117 202 320 320q200 117 438 117q0 -237 -118 -439q-119 -201 -320 -320q-202 -119 -440 -119zM1024 439q101 0 172 73q70 74 70 174t-71 171t-171 71t-172 -71q-70 -70 -70 -171t70.5 -174t171.5 -73zM398 905q0 102 73 172t173 70
q73 0 138 -41v19q0 101 70 171q72 71 172 71t171 -71t71 -171v-19q66 41 138 41q101 0 173.5 -70t72.5 -172q0 -72 -38 -132q-40 -60 -104 -87q64 -31 104 -92q38 -60 38 -128q0 -100 -72 -173q-74 -74 -174 -74q-76 0 -138 46v-18q0 -100 -70 -174q-71 -73 -172 -73
t-171.5 73t-70.5 174v18q-61 -46 -138 -46q-98 0 -172 74q-74 73 -74 173q0 68 40 128q40 62 102 92q-63 26 -102 87q-40 60 -40 132zM1024 2048q238 0 438 -117q203 -118 320 -320q120 -205 120 -441q-237 0 -442 119q-202 117 -320 320q-116 199 -116 439z" />
</svg>