<svg xmlns="http://www.w3.org/2000/svg" xmlns:xlink="http://www.w3.org/1999/xlink" version="1.1" viewBox="-10 0 2068 2048">
   <path fill="currentColor"
d="M1867 436q-138 -139 -331 -170q-191 -32 -369 50l-96 -96q-29 -30 -72 -30t-72 30l-10 10q-9 -77 -67 -128q-56 -50 -139 -50q-82 0 -142 60t-60 146q0 20 5 24q-49 30 -77 76q-29 49 -29 102q0 67 44 124q-44 34 -44 82v140q-183 63 -295 220q-113 160 -113 356
q0 167 82 310q81 141 223 222q143 82 307 82t307 -82q142 -81 226 -222t84 -310q0 -197 -115 -356q-115 -157 -298 -220v-140q0 -49 -43 -82q43 -56 43 -124v-24q13 -8 43 -38h5q72 39 115 110q44 72 44 158v10l38 24q32 -71 82 -120q120 -120 290 -120t290 120t120 290
t-120 290t-297 120q5 37 5 102q0 36 -5 106q122 0 237 -46q112 -45 204 -138q116 -116 159 -272q43 -159 0 -318q-43 -158 -159 -278zM716 152q44 0 72 31t28 77q0 47 -43 80q-57 -82 -158 -82q0 -42 29 -74q28 -32 72 -32zM552 378q63 82 164 82q0 42 -32 74q-31 32 -72 32
t-72 -31t-31 -77q0 -47 43 -80zM1023 1382q0 172 -120 292t-291 120q-170 0 -290 -120t-120 -290t120 -290t290 -120q171 0 291 120t120 288z" />
</svg>