<svg xmlns="http://www.w3.org/2000/svg" xmlns:xlink="http://www.w3.org/1999/xlink" version="1.1" viewBox="-10 0 2068 2048">
   <path fill="currentColor"
d="M408 101q-86 0 -146 60q-60 61 -60 142v822q0 85 60 146q60 60 146 60h514v202h-104q-44 0 -74 29q-28 28 -28 77h-716v202h716q0 49 28 77q30 29 74 29h412q44 0 73 -29t29 -77h716v-202h-716q0 -48 -29 -77t-73 -29h-106v-202h514q88 0 148 -60t60 -146v-616
q0 -86 -60 -146t-148 -60h-614l-206 -202h-410zM716 509q100 0 178 56q78 57 110 151h634v202h-206v207h-202v-207h-226q-32 94 -110 151q-78 56 -178 56q-130 0 -219 -89t-89 -219t89 -219t219 -89zM716 716q-48 0 -74 26t-26 75q0 48 26 74q26 27 74 27t75 -27t27 -74
q0 -48 -28 -75q-26 -26 -74 -26z" />
</svg>