<svg xmlns="http://www.w3.org/2000/svg" xmlns:xlink="http://www.w3.org/1999/xlink" version="1.1" viewBox="-10 0 2068 2048">
   <path fill="currentColor"
d="M814 1838q0 82 -58 140q-60 60 -143 60t-143 -60t-60 -142t60 -142t143 -60t143 60q58 58 58 144zM1628 1634q-84 0 -144 60t-60 142t60 142t142 60t142 -60t60 -142t-60 -142t-140 -60zM628 1306l6 -16l90 -166h756q57 0 106 -28q48 -29 72 -76l390 -710l-176 -100
l-392 714h-714l-432 -914h-334v200h206l366 772l-138 252q-24 43 -24 94q0 86 60 146q58 60 140 60h1218v-206h-1176q-10 0 -17 -7t-7 -15zM1120 748l-62 -48l-44 -42q-164 -156 -218 -224q-82 -106 -82 -200q0 -96 64 -160t160 -64q51 0 102 22q51 21 80 58q29 -38 78 -58
q51 -22 102 -22q94 0 160 62q64 61 64 160q0 96 -82 202q-54 68 -218 224l-42 42z" />
</svg>