<svg xmlns="http://www.w3.org/2000/svg" xmlns:xlink="http://www.w3.org/1999/xlink" version="1.1" viewBox="-10 0 2067 2048">
   <path fill="currentColor"
d="M870 1592q20 0 36 14q16 15 16 36t-16 36q-16 14 -36.5 14t-35.5 -14q-18 -15 -18 -36t18 -36q15 -14 36 -14zM1178 1592q21 0 36 14q18 15 18 36t-18 36q-15 14 -35.5 14t-36.5 -14q-16 -15 -16 -36t16 -36q16 -14 36 -14zM816 872q43 0 76 30q30 28 30 71.5t-30 72.5
q-33 28 -75.5 28t-71.5 -29t-29 -72t29 -72t71 -29zM1232 872q42 0 71 29t29 72t-29 72t-71.5 29t-75.5 -28q-30 -29 -30 -72.5t30 -71.5q33 -30 76 -30zM1642 1592q0 111 -82 204q-84 96 -224 150q-142 56 -312 56t-312 -56q-140 -54 -224 -150q-82 -93 -82 -204
q0 -136 126 -246q-126 -163 -126 -372l14 -126q-91 23 -178 0q-88 -25 -172 -100q-83 -74 -66 -132q16 -58 124 -74q110 -17 202 12q40 8 88 40q47 32 70 66l62 -82q-37 -61 -28 -164q10 -116 78 -208q76 -111 216 -160l-10 14q-32 55 -48 132q-23 110 24 212
q116 -48 242 -48t242 48q47 -102 24 -212q-16 -77 -48 -132l-10 -14q140 49 216 160q68 92 78 208q9 102 -30 164l64 82q23 -34 70 -66q48 -32 88 -40q92 -29 202 -12q108 16 124 74q17 58 -66 132q-84 75 -172 100q-87 23 -178 0l14 126q0 209 -126 372q126 110 126 246z
M1024 1384q-168 0 -290 60q-120 61 -120 147.5t120 146.5q122 62 290 62t290 -62q120 -60 120 -146.5t-120 -147.5q-122 -60 -290 -60zM1024 1182q169 0 314 58q96 -117 96 -266q0 -170 -120 -290t-290 -120t-290 120t-120 290q0 149 96 266q145 -58 314 -58zM1242 60z" />
</svg>