<svg xmlns="http://www.w3.org/2000/svg" xmlns:xlink="http://www.w3.org/1999/xlink" version="1.1" viewBox="-10 0 2068 2048">
   <path fill="currentColor"
d="M1342 1384l140 -145l210 215l216 -215l140 145l-216 211l216 210l-140 145l-216 -215l-210 215l-140 -145l210 -210zM196 98h1398q84 0 143 59t59 143v706q-123 -19 -228 4q-113 25 -202 84h-370v403h108q-14 98 0 196h-908q-78 0 -138 -59q-58 -58 -58 -137v-1197
q0 -85 58 -143q60 -59 138 -59zM196 496v402h598v-402h-598zM996 496v402h598v-402h-598zM196 1094v403h598v-403h-598z" />
</svg>