<svg xmlns="http://www.w3.org/2000/svg" xmlns:xlink="http://www.w3.org/1999/xlink" version="1.1" viewBox="-10 0 2068 2048">
   <path fill="currentColor"
d="M1352 640q45 22 72 69q24 44 24 96v274l-438 -439l50 -27l170 96zM1060 466l170 96l150 -86q-86 -147 -224 -192q-13 -110 -96 -183q-81 -73 -196 -73v192q32 0 56 20q27 22 36 48q-95 31 -170 124l132 137zM2048 1925l-124 123l-476 -471v398l-78 -27q-99 -36 -196 -96
q-129 -84 -228 -192q-126 -135 -196 -307q-78 -205 -78 -448v-109l-672 -672l124 -124zM1256 1381l-384 -384q18 244 142 429q92 147 242 247v-292z" />
</svg>