<svg xmlns="http://www.w3.org/2000/svg" xmlns:xlink="http://www.w3.org/1999/xlink" version="1.1" viewBox="-10 0 2067 2048">
   <path fill="currentColor"
d="M2047 1883l-165 165l-730 -731l165 -165zM1152 0q-226 0 -435 85q-211 86 -376 251h-5q-217 222 -296 520q-78 296 0 592q79 298 296 515l1626 -1627q-165 -165 -376 -251q-209 -85 -434 -85zM357 1621q-128 -214 -128 -469q0 -154 48 -304q38 337 240 619zM683 1301
q-118 -178 -160 -378q-42 -202 0 -400q123 -22 197 -22q313 0 581 182zM848 277q150 -48 304 -48q255 0 469 128l-155 160q-282 -203 -618 -240z" />
</svg>