<svg xmlns="http://www.w3.org/2000/svg" xmlns:xlink="http://www.w3.org/1999/xlink" version="1.1" viewBox="-10 0 2068 2048">
   <path fill="currentColor"
d="M1024 0q-278 0 -514 137q-235 136 -372 373q-138 236 -138 514t138 514q137 237 372 373q236 137 513.5 137t514.5 -137q236 -137 372 -373q138 -236 138 -514t-138 -514q-136 -236 -372 -373q-237 -137 -514 -137zM1024 1740q-141 0 -258 -67q-119 -69 -186 -185
q-70 -120 -70 -257q0 -119 82 -289q65 -145 176 -303q73 -109 174 -235l82 -92l82 92q100 126 172 235q115 162 178 303q82 168 82 289q0 139 -70 257q-67 115 -188 185q-116 67 -256 67z" />
</svg>