<svg xmlns="http://www.w3.org/2000/svg" xmlns:xlink="http://www.w3.org/1999/xlink" version="1.1" viewBox="-10 0 2068 2048">
   <path fill="currentColor"
d="M1024 340q233 0 408 148q177 150 220 368q167 12 282 134q114 122 114 290q0 117 -58 214q-58 98 -156 156q-97 58 -214 58h-1108q-140 0 -258 -70q-119 -71 -186 -188q-68 -119 -68 -254q0 -132 60 -244q59 -110 164 -182q102 -70 232 -82q78 -158 232 -254
q151 -94 336 -94zM1452 1108v-340l-88 84q-59 -75 -148 -122q-88 -46 -192 -46q-116 0 -214 56q-97 55 -156 154q-58 97 -58 214t58 214q58 98 156 156q97 58 214 58q128 0 234 -70q105 -70 158 -186h-200q-76 84 -188 84t-186 -74t-74 -180q0 -105 74 -182q73 -76 182 -76
q68 0 126 34t94 90l-136 132h344z" />
</svg>