<svg xmlns="http://www.w3.org/2000/svg" xmlns:xlink="http://www.w3.org/1999/xlink" version="1.1" viewBox="-10 0 2058 2048">
   <path fill="currentColor"
d="M1183 2048h-365q-19 0 -34 -12t-15 -31l-38 -270q-86 -33 -173 -100l-255 100q-21 10 -38 3q-20 -8 -24 -22l-207 -356q-10 -21 -7 -36q3 -17 17 -31l216 -168l-5 -101l5 -101l-216 -168q-14 -14 -17 -32q-3 -15 7 -36l207 -355q4 -14 24 -22q18 -7 38 2l255 101
q89 -69 173 -101l38 -269q0 -19 15 -31t34 -12h413q18 0 33 12t15 31l38 269q84 32 173 101l255 -101q20 -9 38 -2q20 8 24 22l207 355q10 21 7 36q-3 18 -17 32l-216 168l5 120q-79 -19 -154 -19q-31 0 -53 5q0 -99 -29 -188l217 -158l-77 -135l-245 106
q-124 -144 -313 -183l-38 -269h-154l-38 269q-189 39 -313 183l-245 -106l-76 135l216 158q-63 183 0 366l-216 163l76 130l250 -106q124 144 308 183l38 269h111q43 114 125 202zM1063 1428q-17 5 -39 5q-167 0 -288 -121q-120 -120 -120 -288t120 -288q121 -121 288 -121
t288 121t121 288q0 21 -5 38q-126 44 -224 142q-96 96 -141 224zM1231 1024q0 -87 -60 -147t-147 -60q-86 0 -146 60t-60 147t60 147t146 60q87 0 147 -60t60 -147zM1740 1332h207v615h-207v-615zM1332 1332h206v615h-206v-615z" />
</svg>