<svg xmlns="http://www.w3.org/2000/svg" xmlns:xlink="http://www.w3.org/1999/xlink" version="1.1" viewBox="-10 0 2068 2048">
   <path fill="currentColor"
d="M510 1790h206v208h-206v-208zM922 1790h202v208h-202v-208zM1332 1790h206v208h-206v-208zM202 50q-82 0 -142 60t-60 142v1028q0 82 60 142t142 60h1644q82 0 142 -60t60 -142v-1028q0 -82 -60 -142t-142 -60h-1644zM202 252h1644v1028h-1644v-1028zM308 358v202h202
v-202h-202zM616 358v202h202v-202h-202zM922 358v202h202v-202h-202zM1230 358v202h202v-202h-202zM1538 358v202h202v-202h-202zM308 666v202h202v-202h-202zM616 666v202h202v-202h-202zM922 666v202h202v-202h-202zM1230 666v202h202v-202h-202zM1538 666v202h202v-202
h-202zM616 974v202h816v-202h-816z" />
</svg>