<svg xmlns="http://www.w3.org/2000/svg" xmlns:xlink="http://www.w3.org/1999/xlink" version="1.1" viewBox="-10 0 2068 2048">
   <path fill="currentColor"
d="M2048 1933l-1920 -1933l-128 128l490 489h-70l-126 242l178 87l68 -137h146l96 100l-284 1070h206l18 -87l344 -507l342 507l18 87h206l-78 -311l380 380zM800 1600l120 -439l86 128zM1330 1600l-206 -302l18 -28l128 124zM1280 909h68l18 87zM1270 617h440l128 251
l-178 87l-70 -146h-406l-292 -293l46 -192h256zM714 342l-146 -146l86 -164h832l122 242l-172 87l-78 -137h-586z" />
</svg>