<svg xmlns="http://www.w3.org/2000/svg" xmlns:xlink="http://www.w3.org/1999/xlink" version="1.1" viewBox="-10 0 2068 2048">
   <path fill="currentColor"
d="M0 1370q0 -43 4 -82q16 -93 54 -144q53 -82 144 -82q123 0 236 -18q154 120 380 120h28l-174 -174q39 -13 106 -38l192 192q58 -9 112 -28l-208 -212q62 -36 92 -58l212 216q44 -29 76 -72l-206 -206q38 -34 72 -72l192 192q20 -59 20 -96q0 -125 -120 -232l18 -28
l154 -76q68 71 198 120q132 49 288 58l4 4h72l30 38q28 58 48 144q24 116 24 280q0 100 -6 154h-302q-105 0 -356 48h-24q-234 52 -336 52h-1024zM1946 1576q10 -4 14 -8q25 -16 40 -54q24 -52 32 -144h-292q-107 0 -358 50q-257 52 -358 52h-996q24 47 74 76q47 28 100 28
h1744z" />
</svg>