<svg xmlns="http://www.w3.org/2000/svg" xmlns:xlink="http://www.w3.org/1999/xlink" version="1.1" viewBox="-10 0 2058 2048">
   <path fill="currentColor"
d="M1024 1512q178 0 326 -88q149 -89 235 -238t86 -321v-865h-268v865q0 157 -111 265q-112 109 -268 109t-268 -109q-111 -108 -111 -265v-865h-268v865q0 172 86 321t235 238q148 88 326 88zM1888 2048q-176 0 -293 -136q-47 -47 -71 -61q-26 -15 -70 -15q-46 0 -69 15
q-21 14 -68 61q-121 136 -293 136t-293 -136q-47 -47 -68 -61q-23 -15 -69 -15q-44 0 -70 15q-24 14 -71 61q-117 136 -293 136v-212q45 0 70 -15q24 -14 71 -61q116 -142 291 -142q172 0 290 142q47 47 71 61q25 15 71 15t71 -15q22 -13 70 -61q116 -142 291 -142
q173 0 291 142q48 48 70 61q25 15 71 15v212z" />
</svg>