<svg xmlns="http://www.w3.org/2000/svg" xmlns:xlink="http://www.w3.org/1999/xlink" version="1.1" viewBox="-10 0 2065 2048">
   <path fill="currentColor"
d="M865 0q-182 0 -308 126t-126 305t126 305t305 126t305 -126t126 -305t-126 -305t-302 -126zM865 217q86 0 149 63t63 151q0 89 -63 152t-152 63q-88 0 -151 -63t-63 -152q0 -88 63 -151t154 -63zM865 968q-161 0 -353 51q-219 51 -353 141q-156 107 -156 242v323h1023
q-35 -69 -55 -207h-762v-116q0 -35 101 -91q95 -53 237 -90q170 -46 318 -46q20 0 78 5t83 5q59 -129 116 -181q-162 -36 -277 -36zM1616 1725q-111 0 -189 -78t-78 -194q0 -71 30 -116l-116 -121q-75 116 -75 237q0 181 126 307t302 126v162l237 -237l-237 -247v161z
M1616 1024v-162l-237 238l237 237v-152q110 0 189 79q78 78 78 189q0 70 -30 121l116 116q76 -112 76 -237q0 -177 -126 -303t-303 -126z" />
</svg>