<svg xmlns="http://www.w3.org/2000/svg" xmlns:xlink="http://www.w3.org/1999/xlink" version="1.1" viewBox="-10 0 2068 2048">
   <path fill="currentColor"
d="M1304 1212q-140 0 -306 39q-189 48 -300 126q-140 91 -140 205v187h1490v-187q0 -114 -140 -205q-112 -78 -300 -126q-164 -39 -304 -39zM1304 1024q152 0 261 -109t109 -263q0 -155 -109 -264t-261 -109q-154 0 -262 109q-108 108 -108 264q0 155 108 263
q108 109 262 109zM376 1142l226 139l-60 -261l204 -174l-270 -22l-100 -248l-106 248l-270 22l206 174l-66 261z" />
</svg>