<svg xmlns="http://www.w3.org/2000/svg" xmlns:xlink="http://www.w3.org/1999/xlink" version="1.1" viewBox="-10 0 2068 2048">
   <path fill="currentColor"
d="M2048 1281v279q0 37 -22 59q-22 24 -56 33l-296 -301v-22q0 -95 -68 -165q-69 -70 -164 -70q-18 0 -26 4l-558 -562h76v-118q-46 -24 -70 -65q-26 -44 -26 -96q0 -74 54 -128q54 -55 132 -55t134 55q54 54 54 128q0 52 -26 96q-25 41 -70 65v118h96q174 0 324 87
q150 86 238 238q86 150 86 329h92q38 0 68 26q28 25 28 65zM1966 1883l-118 117l-92 -87q-39 18 -82 18h-1298q-78 0 -134 -55q-54 -54 -54 -129v-95h-92q-36 0 -66 -27q-30 -26 -30 -65v-279q0 -39 29.5 -65t66.5 -26h92q0 -172 80 -316q82 -147 220 -233l-474 -475
l118 -118zM838 1329q0 -95 -68 -165q-69 -70 -163.5 -70t-162.5 70t-68 165q0 96 68 164q66 67 162 67t164 -67q68 -68 68 -164zM1404 1556l-188 -188q14 70 63.5 122t124.5 66z" />
</svg>