<svg xmlns="http://www.w3.org/2000/svg" xmlns:xlink="http://www.w3.org/1999/xlink" version="1.1" viewBox="-10 0 2068 2048">
   <path fill="currentColor"
d="M496 852q-28 -76 -92 -122t-148 -46q-108 0 -182 72t-74 182t74 184t182 74q84 0 148 -48q63 -47 92 -124h100v172h172v-172h172v-172h-444zM256 1024q-40 0 -62 -24q-22 -23 -22 -62t22 -62q23 -24 62 -24q40 0 62 24q22 23 22 62t-22 62q-22 24 -62 24zM1364 340
q-140 0 -240 100t-100 242t100 242t242 100t242 -100t100 -242t-100 -242t-244 -100zM1364 860q-76 0 -126 -50t-50 -128t50 -128t128 -50t128 50t50 128t-50 128t-130 50zM1364 1108q-130 0 -280 40q-169 41 -276 112q-124 84 -124 192v256h1364v-256q0 -108 -124 -192
q-107 -71 -280 -112q-150 -40 -280 -40zM1884 1544h-1040v-92q0 -28 80 -72t192 -72q132 -36 250 -36t250 36q109 29 188 72q80 44 80 72v92z" />
</svg>