<svg xmlns="http://www.w3.org/2000/svg" xmlns:xlink="http://www.w3.org/1999/xlink" version="1.1" viewBox="-10 0 2068 2048">
   <path fill="currentColor"
d="M1042 723l-184 -187h258q78 0 133 55t55 132v140q0 47 -36 87l-152 -152v-75h-74zM2048 815v-92q0 -78 -54 -132q-56 -55 -134 -55h-186q-74 0 -130 55q-54 54 -54 132v445l296 301h74q78 0 134 -55q54 -54 54 -133v-91h-188v91h-186v-558h186v92h188zM1304 1220l662 663
l-118 117l-598 -592q-52 61 -134 61h-370v-571l-188 -183v754h-182v-375h-188v375h-188v-746q0 -77 55 -132t133 -55h196l-370 -370l118 -118zM376 723h-188v188h188v-188zM1116 1273l-174 -179h-8v187h182v-8z" />
</svg>