<svg xmlns="http://www.w3.org/2000/svg" xmlns:xlink="http://www.w3.org/1999/xlink" version="1.1" viewBox="-10 0 2068 2048">
   <path fill="currentColor"
d="M1620 830q-64 0 -136 24l-252 -492h-292v128h216l76 148l-208 460l-152 -356q20 -8 32 -24t12 -40t-18 -42t-46 -18h-168q-28 0 -48 18t-20 46t20 46t48 18h52l192 448h-80q-24 -157 -144 -260q-121 -104 -276 -104q-117 0 -214 58q-98 58 -156 156q-58 97 -58 214
t58 214q58 98 156 156q97 58 214 58q155 0 276 -104q120 -103 144 -260h220l236 -540l68 132q-83 59 -130 150q-46 89 -46 194q0 116 56 214q55 97 154 156q97 58 214 58t214 -58q98 -58 156 -156q58 -97 58 -214t-58 -214q-58 -98 -156 -156q-97 -58 -214 -58zM428 1558
q-124 0 -212 -88t-88 -212t88 -212t212 -88q103 0 186 68q82 68 102 168h-376v128h376q-20 100 -102 168q-83 68 -186 68zM1620 1558q-125 0 -210 -88q-86 -89 -86 -212q0 -69 28 -126q29 -60 80 -102l152 300l112 -60l-152 -300q48 -12 76 -12q124 0 212 88t88 212t-88 212
t-212 88z" />
</svg>