<svg xmlns="http://www.w3.org/2000/svg" xmlns:xlink="http://www.w3.org/1999/xlink" version="1.1" viewBox="-10 0 2068 2048">
   <path fill="currentColor"
d="M1266 1512h294v-292h196v292h292v192h-292v294h-196v-294h-294v-192zM682 488q100 0 172 72q70 70 70 172q0 100 -70 170q-72 72 -172 72t-171 -71t-71 -171q0 -102 71 -173t171 -71zM682 50q187 0 342 92q156 91 248 246q90 156 90 344q0 224 -174 552
q-126 235 -328 498q-105 138 -178 216l-106 -124q-132 -166 -236 -320q-146 -219 -234 -412q-106 -239 -106 -410q0 -187 92 -344q92 -155 248 -246q155 -92 342 -92zM682 242q-132 0 -244 66q-113 66 -178 178q-68 115 -68 246q0 72 20 140q31 122 128 288q120 223 342 518
q225 -300 342 -518q97 -166 128 -288q18 -64 18 -140q0 -133 -66 -246q-65 -112 -178 -178q-112 -66 -244 -66z" />
</svg>