<svg xmlns="http://www.w3.org/2000/svg" xmlns:xlink="http://www.w3.org/1999/xlink" version="1.1" viewBox="-10 0 2068 2048">
   <path fill="currentColor"
d="M2048 1064zM2048 1072q0 26 -62 88q-73 76 -170 140q-123 79 -252 118q-185 65 -394 56q-229 -10 -362 -104q-162 -109 -162 -320q0 -153 110 -264q110 -112 266 -112t266 112q110 111 110 268q0 73 -30 144q-29 73 -80 124q89 0 192 -32q171 -48 306 -162q35 -30 44 -52
l4 -4v-8q0 -23 -44 -84q-56 -72 -140 -144q-104 -91 -230 -152q-163 -81 -332 -114q213 8 406 74q165 57 300 144q114 73 188 158q66 72 66 118v8zM1022 836q-88 0 -150 64q-64 64 -64 152q0 89 64 152q62 60 150 60t150 -60q64 -62 64 -152t-63 -153t-151 -63zM214 1054v10
q5 38 58 100q76 85 196 158q164 95 392 156q-267 -22 -480 -108q-168 -73 -284 -176q-91 -82 -96 -130v-10q0 -30 66 -100q76 -81 188 -152q136 -93 288 -150q182 -64 380 -78q-150 34 -298 110q-121 66 -222 152q-86 75 -140 140q-48 62 -48 78z" />
</svg>