<svg xmlns="http://www.w3.org/2000/svg" xmlns:xlink="http://www.w3.org/1999/xlink" version="1.1" viewBox="-10 0 2068 2048">
   <path fill="currentColor"
d="M1846 875v-135q0 -77 -48 -134l-404 -481q-64 -77 -158 -77h-1034q-82 0 -142 60t-60 147v716q0 87 60 147t142 60h4q20 85 90 146q69 60 164 60q94 0 162 -60q70 -61 90 -146h830q15 86 88 146q72 60 162 60q105 0 180 -77q76 -77 76 -182q0 -91 -58 -161t-144 -89z
M154 255q0 -19 14 -36q16 -17 34 -17h308v461h-356v-408zM462 1231q-44 0 -76 -32q-30 -31 -30 -72t31 -72t73 -31q40 0 71 31t31 72t-30 72q-32 32 -70 32zM1124 1024h-408v-154h206v-207h-206v-461h408v822zM1332 288l312 375h-312v-375zM1792 1231q-43 0 -71.5 -32
t-28.5 -72t28 -72q29 -31 72.5 -31t71.5 31q30 32 30 72t-29 72t-73 32zM922 1692h-412l614 308v-207h414l-616 -308v207z" />
</svg>