<svg xmlns="http://www.w3.org/2000/svg" xmlns:xlink="http://www.w3.org/1999/xlink" version="1.1" viewBox="-10 0 2058 2048">
   <path fill="currentColor"
d="M1413 0l173 178l-388 389l137 137l388 -389l178 174v-489h-488zM828 686q-188 0 -343 91q-156 91 -247 247q-91 155 -91 343t91 343q91 156 247 247q155 91 343 91q187 0 342 -91q156 -91 247 -247q92 -157 92 -343t-92 -343q-91 -156 -247 -247q-155 -91 -342 -91z
M828 896q127 0 237 62q111 62 172 171t61 238q0 97 -34 183q-35 88 -100 153t-154 100q-88 35 -182 35q-128 0 -238 -62t-171 -171q-62 -110 -62 -238q0 -97 34 -183t101 -153t153 -101t183 -34zM732 1074v361l310 179l74 -128l-238 -137v-275h-146z" />
</svg>