<svg xmlns="http://www.w3.org/2000/svg" xmlns:xlink="http://www.w3.org/1999/xlink" version="1.1" viewBox="-10 0 2068 2048">
   <path fill="currentColor"
d="M1024 0q-278 0 -514 137q-235 136 -372 373q-138 236 -138 514t138 514q137 237 372 373q236 137 513.5 137t514.5 -137q236 -137 372 -373q138 -236 138 -514q0 -200 -78 -392q-75 -189 -220.5 -334t-333.5 -221q-192 -77 -392 -77zM664 615q66 0 110 44t44 108t-44 110
q-45 46 -108 46q-64 0 -110 -46q-47 -47 -44 -108q3 -64 46 -108q44 -46 106 -46zM1538 1433h-414q-111 0 -204 55q-96 58 -152 151l-176 -101q88 -147 228 -226q142 -81 304 -81h414v202zM1384 923q-66 0 -110 -46q-44 -44 -44 -110q0 -65 44 -108q44 -44 108 -44
q65 0 110 44q46 44 44 108q-4 65 -46 108q-44 44 -106 48z" />
</svg>