<svg xmlns="http://www.w3.org/2000/svg" xmlns:xlink="http://www.w3.org/1999/xlink" version="1.1" viewBox="-10 0 2068 2048">
   <path fill="currentColor"
d="M1952 420q-29 160 -140 270q-87 88 -216 136q-95 38 -206 52l-86 8h-1024q-58 0 -126 -48q-35 -22 -58 -48h-96v376h96l26 -26q35 -26 70 -44q49 -26 88 -26h30q-30 44 -30 96v182q0 78 54 134q54 54 132 54h92v92h188v-92h92v92h186v-92h92v92h188v-92h90q80 0 134 -54
t54 -134v-182q0 -32 -8 -40q313 110 378 410h96v-1116h-96zM466 1396q-20 0 -33 -13t-13 -35v-182q0 -22 13 -35t33 -13h92v278h-92zM746 1396v-278h92v278h-92zM1024 1396v-278h92v278h-92zM1442 1348q0 22 -13 35t-35 13h-90v-278h90q22 0 35 13t13 35v182zM746 790h-188
v-92h188v92zM1024 790h-186v-92h186v92zM1304 790h-188v-92h188v92z" />
</svg>