<svg xmlns="http://www.w3.org/2000/svg" xmlns:xlink="http://www.w3.org/1999/xlink" version="1.1" viewBox="-10 0 2066 2048">
   <path fill="currentColor"
d="M1122 0v207q220 28 396 161q177 133 260 334q84 202 60 423q-39 279 -238 478q-200 200 -478 233v207q278 -28 500 -190t334 -408q113 -247 84 -522q-19 -239 -147 -442q-128 -204 -329 -330q-202 -127 -442 -151zM920 5q-311 28 -548 226l145 149q181 -141 403 -169
v-206zM228 375q-197 237 -226 548h202q33 -225 168 -404zM2 1125q29 307 226 548l144 -144q-139 -182 -163 -404h-207zM517 1678l-145 139q242 198 548 231v-202q-220 -28 -403 -168zM1122 1639h-202v-206h202v206zM1122 1332h-202q0 -125 58 -207q33 -53 120 -120
q65 -46 91 -77q39 -48 39 -111q0 -82 -60 -142t-147 -60q-86 0 -146 60t-60 142h-202q0 -168 120 -288t288 -120t288 120q121 121 121 288q0 91 -48 159q-25 39 -105.5 110t-106.5 106q-48 63 -48 140z" />
</svg>