<svg xmlns="http://www.w3.org/2000/svg" xmlns:xlink="http://www.w3.org/1999/xlink" version="1.1" viewBox="-10 0 2068 2048">
   <path fill="currentColor"
d="M1688 890v134q153 0 256 104q104 106 104 250q0 110 -64 196l-94 -96q24 -45 24 -100q0 -90 -66 -156q-67 -64 -160 -64v134l-200 -206q19 -14 200 -196zM1688 1870v-132q-147 0 -250 -104q-104 -106 -104 -256q0 -105 58 -196l102 96q-26 49 -26 100q0 94 64 160
q65 66 156 66v-134l206 200q-24 19 -206 200zM1156 1378q0 -155 78 -288q80 -133 212 -210q132 -76 290 -76q162 0 312 86q-64 -75 -146 -120q-81 -45 -180 -54q-46 -236 -228 -386q-184 -152 -426 -152q-187 0 -348 98q-159 96 -244 260q-136 17 -242 90q-107 72 -170 190
q-64 116 -64 254q0 141 72 264q69 122 194 196q122 74 268 74h668q-46 -107 -46 -226z" />
</svg>