<svg xmlns="http://www.w3.org/2000/svg" xmlns:xlink="http://www.w3.org/1999/xlink" version="1.1" viewBox="-10 0 2068 2048">
   <path fill="currentColor"
d="M408 409q88 0 148 -60t60 -145q0 -84 -60 -144t-148 -60q-86 0 -146 60q-60 61 -60 144q0 84 60 145q60 60 146 60zM818 760q0 -60 -34 -113q-33 -50 -92 -75q-132 -62 -284 -62q-150 0 -282 62q-60 25 -92 75q-34 51 -34 113v57h818v-57zM1638 409q88 0 148 -60t60 -145
q0 -84 -60 -144t-148 -60q-86 0 -146 60t-60 144q0 85 60 145t146 60zM2048 760q0 -60 -34 -113q-33 -50 -92 -75q-132 -62 -284 -62q-150 0 -282 62q-60 25 -92 75q-34 51 -34 113v57h818v-57zM1740 1538v-206h-1432v206l-308 -307l308 -308v202h1432v-202l308 308z
M716 1894v53h206v101h-306v-154q0 -38 28 -70q29 -31 72 -31h102v-53h-202v-101h202q42 0 74 32q30 31 30 69v53q0 44 -30 72q-33 29 -74 29h-102zM1432 1740v308h-100v-308h-54v207h-100v-207h-54v308h-100v-308q0 -38 30 -69q32 -32 70 -32h208q43 0 71.5 32t28.5 69z" />
</svg>