<svg xmlns="http://www.w3.org/2000/svg" xmlns:xlink="http://www.w3.org/1999/xlink" version="1.1" viewBox="-10 0 2068 2048">
   <path fill="currentColor"
d="M1380 1022q44 0 82 24q-132 45 -234 134v-5q0 -62 46 -108q44 -45 106 -45zM1328 715v53q0 63 45 108t109 45h154q0 43 -6 101h6q100 0 196 33q10 -75 10 -134q0 -81 -16 -153q-16 -36 -52 -44q-19 -9 -34 -9h-206v-101q0 -62 -52 -91q-27 -10 -48 -10h-206v-105
q0 -62 -54 -86q-24 -15 -48 -15h-104v-206q0 -62 -48 -86q-29 -15 -54 -15q-247 0 -460 125q-211 125 -336 336q-124 211 -124 460q0 250 124 461q124 210 336.5 335t459.5 125q60 0 134 -10q-32 -96 -32 -196v-5q-73 9 -174 0q53 -9 90 -50q36 -40 36 -101q0 -60 -46 -106
q-46 -45 -110 -45q-65 0 -108 45q-44 44 -44 108q0 82 68 130q-202 -53 -345.5 -211t-172.5 -365q-10 -58 -10 -153q5 58 48 98q45 41 106 41q63 0 108 -43q46 -44 46 -108q0 -65 -46 -111q-46 -45 -108 -45q-54 0 -94 31t-54 79q32 -234 200 -407q170 -174 408 -207v149
q0 64 44 108q43 45 110 45h48v48q0 67 44 111q45 43 108 43h154zM868 1127q67 0 110 -45q44 -44 44 -111q0 -64 -44 -107q-44 -44 -108 -44t-110 44t-46 107q0 65 46 111q46 45 108 45zM820 461q0 -62 -46 -108t-110 -46q-63 0 -108 46q-42 44 -42 108t42 108q44 45 108 45
q66 0 110 -45q46 -46 46 -108zM1740 1535v-307h-206v307h-306v206h306v307h206v-307h308v-206h-308z" />
</svg>