<svg xmlns="http://www.w3.org/2000/svg" xmlns:xlink="http://www.w3.org/1999/xlink" version="1.1" viewBox="-10 0 2058 2048">
   <path fill="currentColor"
d="M1894 0h-1840v614h1840v-614zM1688 408h-1428v-202h1428v202zM1588 820v-105h206v105h-206zM1228 820q24 0 38 15q14 14 14 33v154h-614v-154q0 -18 15 -33t39 -15h508zM1104 1636q-30 78 -30 153q0 36 6 53h-926v-1127h206v921h744zM1994 1022v206h-200v561
q0 105 -77 182t-183 77q-104 0 -180 -77q-74 -75 -74 -182q0 -106 74 -180t180 -74q60 0 106 19v-532h354z" />
</svg>