<svg xmlns="http://www.w3.org/2000/svg" xmlns:xlink="http://www.w3.org/1999/xlink" version="1.1" viewBox="-10 0 2058 2048">
   <path fill="currentColor"
d="M914 274q-9 -29 -36 -50q-28 -22 -60 -22v-202q118 0 206 77v125q32 0 60 22q27 21 36 50q-86 28 -151 101q-64 71 -103 168l-164 -91q80 -129 212 -178zM818 923q0 -122 62 -216l-135 -77q-64 24 -96 74q-33 51 -33 113v106q0 473 278 784q176 200 442 307
q-231 -178 -360 -423q-158 -297 -158 -668zM712 274q-9 -29 -36 -50q-28 -22 -60 -22v-125q-88 -77 -207 -77v202q32 0 60 22q27 21 36 50q-131 49 -211 178l158 91q39 -97 106 -168q68 -73 154 -101zM409 923q0 -120 63 -216l-140 -77q-59 25 -94 74q-36 51 -36 113v106
q0 472 279 784q180 200 442 307q-226 -178 -355 -423q-159 -299 -159 -668zM1846 817v1231l-87 -29q-111 -41 -202 -101q-142 -88 -245 -202q-129 -144 -201 -322q-87 -216 -87 -471v-106q0 -52 29 -101q29 -48 72 -72l130 72l178 -101l182 101l125 -72q49 24 77 72
q29 49 29 101zM1639 1731v-765l-206 -115l-202 115q9 280 144 491q100 163 264 274zM1101 471l154 91l178 -101l182 101l154 -91q-91 -154 -236 -202q-15 -117 -100 -192q-88 -77 -202 -77v202q32 0 57 22q24 21 39 50q-145 48 -226 197z" />
</svg>