<svg xmlns="http://www.w3.org/2000/svg" xmlns:xlink="http://www.w3.org/1999/xlink" version="1.1" viewBox="-10 0 2068 2048">
   <path fill="currentColor"
d="M356 0q-150 0 -253 103t-103 253v1336q0 150 103 253t253 103h1076l616 -615v-1077q0 -149 -104 -253q-104 -103 -252 -103h-1336zM384 202h1278q78 0 131 53t53 130v947h-154q-152 0 -256 105q-104 107 -104 255v154h-948q-76 0 -129 -53t-53 -130v-1278q0 -77 53 -130
t129 -53zM1274 486q-24 0 -48 9q-72 19 -108 84q-37 65 -18 137q5 26 20 44l332 -87q0 -26 -6 -53q-15 -58 -61.5 -96t-110.5 -38zM630 663q-32 0 -48 5q-72 24 -108 87q-37 63 -18 134q6 18 20 44l4 4l328 -91q0 -21 -6 -48q-15 -64 -62 -99q-48 -36 -110 -36zM1508 947
l-936 260q100 116 250 161q149 45 298 5q149 -41 254.5 -157t133.5 -269z" />
</svg>