<svg xmlns="http://www.w3.org/2000/svg" xmlns:xlink="http://www.w3.org/1999/xlink" version="1.1" viewBox="-10 0 2068 2048">
   <path fill="currentColor"
d="M1818 0h-1588q-96 0 -163 67t-67 162v1590q0 95 67 162t163 67h1588q96 0 164 -67q66 -66 66 -162v-1590q0 -96 -66 -162q-68 -67 -164 -67zM502 1707q-128 -128 -200 -307q-72 -178 -72 -376t72 -376q72 -179 200 -307l182 80q-107 102 -168 262q-62 162 -62 341t62 341
q61 160 168 262zM1104 1365l-90 -229l-160 229h-170l260 -352l-150 -330h150l90 229l160 -229h172l-252 341l150 341h-160zM1546 1707l-180 -80q110 -111 170 -267q58 -156 58 -336q0 -182 -60 -341q-62 -160 -168 -262l180 -80q128 128 200 307t72 376.5t-72 375.5
q-72 179 -200 307z" />
</svg>