<svg xmlns="http://www.w3.org/2000/svg" xmlns:xlink="http://www.w3.org/1999/xlink" version="1.1" viewBox="-10 0 2065 2048">
   <path fill="currentColor"
d="M1024 2048l408 -412h-815zM1739 513h-202v-206h202v206zM1739 820h-202v-206h202v206zM1432 513h-202v-206h202v206zM1432 820h-202v-206h202v206zM1432 1228h-815v-206h815v206zM511 513h-201v-206h201v206zM511 820h-201v-206h201v206zM617 614h201v206h-201v-206z
M617 307h201v206h-201v-206zM924 614h201v206h-201v-206zM924 307h201v206h-201v-206zM1844 0h-1640q-81 0 -141 60t-60 146v1022q0 86 60 146t141 60h1640q81 0 141 -60t60 -146v-1022q0 -86 -60 -146t-141 -60z" />
</svg>