<svg xmlns="http://www.w3.org/2000/svg" xmlns:xlink="http://www.w3.org/1999/xlink" version="1.1" viewBox="-10 0 2066 2048">
   <path fill="currentColor"
d="M1024 0q-282 0 -518 129q-232 128 -369 355q-135 225 -135 509q0 216 84 405t238 329q24 20 24 58l4 182q4 43 41 67q36 24 79 5l202 -91q30 -9 53 -5q138 43 297 43q282 0 518 -129q232 -127 369 -358q135 -228 135 -509t-135 -506q-137 -227 -369 -355
q-235 -129 -518 -129zM1638 763l-302 475q-33 57 -101 69t-120 -31l-240 -178q-15 -9 -36 -9t-36 9l-321 250q-34 25 -65 -2q-31 -26 -7 -65l302 -475q34 -58 101 -70t120 27l240 182q39 24 72 0l321 -250q33 -24 65 3q31 27 7 65z" />
</svg>