<svg xmlns="http://www.w3.org/2000/svg" xmlns:xlink="http://www.w3.org/1999/xlink" version="1.1" viewBox="-10 0 2058 2048">
   <path fill="currentColor"
d="M1932 1502l-546 546l-318 -346l134 -135l184 184l410 -411zM350 1243q0 -147 140 -405q126 -230 318 -476q137 173 248 357q119 200 174 346q104 -45 226 -55q-97 -280 -384 -675q-143 -199 -264 -335l-108 130q-131 165 -238 319q-149 220 -238 405q-108 226 -108 389
q0 183 92 343q92 159 252 254q159 95 348 95h38q-38 -112 -38 -233q-188 0 -323 -135t-135 -324z" />
</svg>