<svg xmlns="http://www.w3.org/2000/svg" xmlns:xlink="http://www.w3.org/1999/xlink" version="1.1" viewBox="-10 0 2068 2048">
   <path fill="currentColor"
d="M510 1688q0 55 20 106h-120q-44 0 -72 -31q-30 -32 -30 -75v-101h202v101zM818 1688q0 44 31 75t75 31h200q44 0 75 -31t31 -75v-101h-412v101zM202 1381q0 43 32 74q32 32 74 32h202v-221q-96 -96 -148 -226q-54 -130 -54 -274q-4 -160 68 -308q-136 15 -236 101
q-101 88 -130 219q-28 132 24 255q52 121 168 189v159zM1538 1688q0 55 -20 106h120q44 0 72 -31q30 -32 30 -75v-101h-202v101zM1538 766q0 126 -56 233q-55 109 -150 180v202q0 42 -29 74t-73 32h-412q-44 0 -73 -32t-29 -74v-202q-145 -112 -190 -286q-44 -175 32.5 -339
t237.5 -245q162 -82 336 -43q175 39 290 180q116 141 116 320zM1332 766q0 -115 -77 -204t-195 -101t-214 55q-96 68 -122 183q-27 113 32 216q56 100 168 139v226h200v-226q93 -28 150 -108q58 -81 58 -180zM1672 458q72 148 68 308q0 144 -54 274q-52 130 -148 226v221
h202q42 0 74 -32t32 -74v-159q116 -68 168 -189q52 -123 24 -255q-29 -131 -130 -219q-100 -86 -236 -101z" />
</svg>