<svg xmlns="http://www.w3.org/2000/svg" xmlns:xlink="http://www.w3.org/1999/xlink" version="1.1" viewBox="-10 0 2058 2048">
   <path fill="currentColor"
d="M977 0q36 15 87 109q49 91 49 162t-36 105q-35 34 -100 34q-64 0 -94 -21q-43 -26 -43 -94q0 -36 22 -77q12 -27 38 -72q61 -86 77 -146zM1617 773q171 0 290 119t119 290q0 108 -49 197q-50 90 -134 145v524h-1638v-524q-84 -55 -134 -145q-49 -89 -49 -197
q0 -171 119 -290t290 -119h409v-273h273v273h504zM1024 1408q94 0 160 -66t66 -160h136q0 94 68 160t163 66q93 0 159 -66q67 -67 67 -160t-67 -160q-66 -66 -159 -66h-1186q-94 0 -160 66t-66 160t66 160t160 66q95 0 162 -66q68 -66 68 -160h137q0 94 66 160t160 66z" />
</svg>