<svg xmlns="http://www.w3.org/2000/svg" xmlns:xlink="http://www.w3.org/1999/xlink" version="1.1" viewBox="-10 0 2068 2048">
   <path fill="currentColor"
d="M1864 1408q-202 0 -390 -60q-66 -22 -114 26l-240 240q-233 -119 -416 -302q-182 -182 -302 -422l240 -240q47 -47 26 -108q-66 -191 -66 -396q0 -46 -31 -77t-77 -31h-386q-46 0 -77 31t-31 77q0 370 142 714q140 341 402 606q260 260 606 402q344 142 714 142
q46 0 76 -32q30 -30 30 -76v-386q0 -46 -30 -76q-30 -32 -76 -32zM222 260h168q11 146 46 282l-128 132q-72 -205 -86 -414zM1750 1788q-212 -10 -416 -82l134 -132q136 35 282 46v168zM1314 962l-406 -406l154 -154l252 248l580 -580l154 154z" />
</svg>