<svg xmlns="http://www.w3.org/2000/svg" xmlns:xlink="http://www.w3.org/1999/xlink" version="1.1" viewBox="-10 0 2068 2048">
   <path fill="currentColor"
d="M0 1639h716v-1216q-133 33 -220 144q-88 111 -88 250v106h208v615h-208q-86 0 -146 -60q-60 -61 -60 -146v-515q0 -161 84 -305q85 -143 226 -226q142 -84 306 -84h104q163 0 306 84q142 84 226 226t84 305v207h100v-308h208v308q0 87 -60 147t-148 60h-100v101
q0 86 -60 146t-146 60h-208v-615h208v-106q0 -139 -88 -250q-87 -111 -220 -144v1216h1024v207h-2048v-207z" />
</svg>