<svg xmlns="http://www.w3.org/2000/svg" xmlns:xlink="http://www.w3.org/1999/xlink" version="1.1" viewBox="-10 0 2058 2048">
   <path fill="currentColor"
d="M811 1648q0 -69 48 -120t122 -51q43 0 91 27l848 -485q-65 -118 -155 -235q-22 11 -48 11q-42 0 -77 -32t-35 -80q0 -27 21 -64q-298 -315 -703 -475q-10 84 -78 141q-67 56 -154 56q-89 0 -155 -66t-66 -163q0 -44 16 -91q-160 -21 -304 -21q-40 0 -54 5v683
q95 21 160 99q64 77 64 181t-64 181q-65 78 -160 99v800l683 -395v-5zM1152 683q91 0 157 66q67 67 67 160t-67 160t-160 67t-160 -67q-66 -66 -66 -160t66 -160t163 -66zM582 1477q-48 0 -80 -32t-32 -80t32 -80t80 -32q47 0 79 32t32 80t-32 80t-79 32zM582 795
q-48 0 -80 -32t-32 -80t32 -80t80 -32q47 0 79 32t32 80t-32 80t-79 32z" />
</svg>