<svg xmlns="http://www.w3.org/2000/svg" xmlns:xlink="http://www.w3.org/1999/xlink" version="1.1" viewBox="-10 0 2058 2048">
   <path fill="currentColor"
d="M1125 620v-620h-202v620q-172 28 -315 128q-142 99 -221 252q-79 154 -79 332q0 196 96 360t260 260t360 96q198 0 361 -96q162 -95 259 -260q96 -164 96 -360q0 -178 -79 -332q-79 -153 -221 -252q-143 -100 -315 -128zM1024 1846q-138 0 -257 -70t-187 -187
q-70 -120 -70 -257q0 -167 106 -308h817q105 140 105 308q0 138 -69 257q-68 116 -188 187q-119 70 -257 70z" />
</svg>