<svg xmlns="http://www.w3.org/2000/svg" xmlns:xlink="http://www.w3.org/1999/xlink" version="1.1" viewBox="-10 0 2058 2048">
   <path fill="currentColor"
d="M1608 880h-1168q-82 0 -139 57t-57 135v780q0 82 57 139t139 57h1168q82 0 139 -57t57 -139v-780q0 -78 -57 -135t-139 -57zM1608 1852h-1168v-388h1168v388zM1608 1268h-1168v-196h1168v196zM335 287l137 137q152 -152 351 -204q201 -52 401 0t352 204l137 -137
q-188 -188 -438 -254q-251 -66 -502 0q-250 66 -438 254zM613 560l137 137q114 -114 274 -114q159 0 273 114l137 -137q-109 -109 -260 -148q-150 -39 -301 0t-260 148z" />
</svg>