<svg xmlns="http://www.w3.org/2000/svg" xmlns:xlink="http://www.w3.org/1999/xlink" version="1.1" viewBox="-10 0 2068 2048">
   <path fill="currentColor"
d="M1948 1014v-822q0 -78 -57 -135t-135 -57h-1564q-76 0 -134 57q-58 58 -58 135v1755l390 -389h320q65 216 244 352q181 138 408 138q187 0 344 -92q156 -92 249 -249t93 -345t-100 -348zM390 388h1170v197h-1170v-197zM1362 681q-134 0 -256 52q-122 53 -218 144h-498
v-196h972zM390 973h416q-65 91 -96 197h-320v-197zM1362 1837q-127 0 -234 -64q-109 -65 -172 -173q-64 -109 -64 -238t64 -236q63 -106 172 -171q107 -64 234 -64q130 0 238 64q110 64 174 171t64 236t-64 238q-65 109 -174 173q-108 64 -238 64zM1412 1344l238 141
l-72 124l-312 -179v-361h146v275z" />
</svg>