<svg xmlns="http://www.w3.org/2000/svg" xmlns:xlink="http://www.w3.org/1999/xlink" version="1.1" viewBox="-10 0 2058 2048">
   <path fill="currentColor"
d="M1125 1452q78 24 129 86h77v409h-81q-54 58 -125 82q-87 33 -176 9q-88 -24 -151 -91h-82v-409h77q51 -61 130 -86v-428h202v428zM1024 1846q44 0 72 -31q29 -32 29 -75t-29 -72t-72 -29t-72 29t-29 72t29 75q28 31 72 31zM1538 202h-207v106h207v615h-1028v-615h206
v-106h-206v-202h1028v202zM1024 717q43 0 72 -29t29 -72t-29 -75q-28 -31 -72 -31t-72 31q-29 32 -29 75t29 72t72 29z" />
</svg>