<svg xmlns="http://www.w3.org/2000/svg" xmlns:xlink="http://www.w3.org/1999/xlink" version="1.1" viewBox="-10 0 2068 2048">
   <path fill="currentColor"
d="M372 1821q243 199 552 227v-208q-223 -24 -406 -164zM1126 1840v208q308 -28 550 -227l-150 -145q-179 136 -400 164zM1676 1531l146 145q197 -241 226 -551h-208q-24 222 -164 406zM1334 1024q0 -131 -90 -220q-90 -90 -220 -90t-220 90q-88 89 -88 220q0 130 88 219
q90 90 220 90t220 -90q90 -89 90 -219zM208 1125h-208q29 309 228 551l144 -150q-135 -179 -164 -401zM372 516l-144 -144q-199 242 -228 550h208q25 -222 164 -406zM1840 922h208q-29 -309 -226 -550l-146 144q140 184 164 406zM1676 227q-242 -199 -550 -227v207
q220 24 406 165zM924 207v-207q-309 28 -552 227l146 145q185 -141 406 -165z" />
</svg>