<svg xmlns="http://www.w3.org/2000/svg" xmlns:xlink="http://www.w3.org/1999/xlink" version="1.1" viewBox="-10 0 2068 2048">
   <path fill="currentColor"
d="M1550 1001q0 70 -28 151l-170 -174q-8 -104 -86.5 -182t-181.5 -87l-174 -169q80 -28 150 -28q132 0 244 66q112 65 178 179q68 114 68 244zM854 220h412l178 196h398v1052l182 187q10 -31 10 -69v-1170q0 -82 -57 -139t-135 -57h-312l-178 -192h-584l-178 192l136 137z
M2048 1925l-124 123l-270 -265h-1376q-76 0 -134 -57q-58 -58 -58 -140v-1170q0 -87 64 -142l-150 -150l124 -124zM768 1001q0 123 85 208t207 85q46 0 92 -18l-366 -366q-18 54 -18 91zM1462 1586l-164 -160q-114 64 -242 64t-240 -66q-113 -66 -178 -178
q-66 -112 -66 -240q0 -129 64 -242l-344 -348h-14v1170h1184z" />
</svg>