<svg xmlns="http://www.w3.org/2000/svg" xmlns:xlink="http://www.w3.org/1999/xlink" version="1.1" viewBox="-10 0 2068 2048">
   <path fill="currentColor"
d="M2048 1125q0 86 -58 144l-44 43q-4 -215 -146 -379q-143 -164 -354 -207l-524 -524h-720v721l524 524q43 210 206 353q164 143 380 147l-44 43q-58 58 -142 58q-81 0 -146 -58l-922 -923q-58 -63 -58 -144v-721q0 -82 60 -142t142 -60h720q80 0 144 58l924 923
q58 64 58 144zM308 461q0 65 42 109q44 45 110 45q64 0 110 -45q46 -46 46 -111q0 -64 -46 -108q-45 -43 -110 -43q-66 0 -109 43t-43 110zM1340 880q-192 0 -326 134q-134 135 -134 327t135 327t325 135q134 0 246 -68l322 313l140 -139l-314 -323q68 -107 68 -245
q0 -192 -134 -327q-134 -134 -328 -134zM1340 1086q110 0 185 75t75 180q0 107 -74 183q-76 77 -182 77q-108 0 -184 -75q-74 -74 -74 -182q0 -109 74 -183q76 -75 180 -75z" />
</svg>