<svg xmlns="http://www.w3.org/2000/svg" xmlns:xlink="http://www.w3.org/1999/xlink" version="1.1" viewBox="-10 0 2068 2048">
   <path fill="currentColor"
d="M1216 1275l-338 -206v-585h146v512l298 178q-59 44 -106 101zM1080 1746q-56 9 -106 9q-210 0 -390 -105q-181 -105 -286 -286q-106 -180 -106 -391t106 -391q104 -179 286 -285q180 -105 390 -105t390 105q182 106 286 285q106 180 106 391q0 49 -10 105q101 14 188 64
q14 -90 14 -169q0 -266 -130 -489q-131 -224 -354 -354t-489.5 -130t-488.5 130q-224 130 -354 354q-132 224 -132 489t132 489q131 225 353.5 355t488.5 130q79 0 170 -14q-51 -86 -64 -187zM1560 1266v292h-294v197h294v293h196v-293h292v-197h-292v-292h-196z" />
</svg>