<svg xmlns="http://www.w3.org/2000/svg" xmlns:xlink="http://www.w3.org/1999/xlink" version="1.1" viewBox="-10 0 2068 2048">
   <path fill="currentColor"
d="M2048 2038h-2048v-202h2048v202zM428 1558l-72 72l-144 -144l-140 144l-72 -72l144 -144l-144 -144l72 -72l140 144l144 -144l72 72l-144 144zM1456 1264q0 -90 -220 -202q-277 -140 -378 -226q-104 -86 -104 -192q0 -274 282 -454q280 -180 454 -180q115 0 168 38
q52 40 52 134q0 45 -38 76q-38 30 -58 30q-18 0 -66 -28l-58 -30q-70 0 -290 104t-220 234q0 77 78 142q75 63 274 156q164 72 256 156q94 83 94 200q0 205 -290 324q-290 118 -556 118q-220 0 -220 -150q0 -53 50 -76q50 -24 102 -24l150 24q157 0 326 -50
q174 -52 212 -124z" />
</svg>