<svg xmlns="http://www.w3.org/2000/svg" xmlns:xlink="http://www.w3.org/1999/xlink" version="1.1" viewBox="-10 0 2068 2048">
   <path fill="currentColor"
d="M1024 0q200 0 392 77q188 76 333.5 221t220.5 334q78 192 78 392t-78 392q-75 189 -220.5 334t-333.5 221q-192 77 -392 77t-392 -77q-188 -76 -333.5 -221t-220.5 -334q-78 -192 -78 -392t78 -392q75 -189 220.5 -334t333.5 -221q192 -77 392 -77zM1024 202
q-206 0 -384 96t-292 260q-113 165 -136 365h412q39 -134 148 -221q108 -87 252 -87t252 87t146 221h414q-24 -200 -138 -365q-113 -165 -290 -260q-178 -96 -384 -96zM1024 1846q206 0 384 -96q177 -95 290 -260q114 -165 138 -365h-414q-38 134 -146 221t-252 87t-252 -87
q-109 -87 -148 -221h-412q23 200 136 365q114 164 292 260t384 96zM1024 817q-86 0 -146 60t-60 147t60 147t146 60t146 -60t60 -147t-60 -147t-146 -60z" />
</svg>