<svg xmlns="http://www.w3.org/2000/svg" xmlns:xlink="http://www.w3.org/1999/xlink" version="1.1" viewBox="-10 0 2067 2048">
   <path fill="currentColor"
d="M1138 140l105 5q213 -94 385 -102q173 -7 268 88q76 78 85 201q9 128 -43 287q109 199 109 431l-4 99h-1298q29 175 140.5 291t252.5 116q100 0 185 -54q84 -53 142 -149h535q-99 269 -334 438q-234 168 -528 168q-189 0 -359 -76q-225 109 -410 121q-182 12 -282 -88
q-117 -122 -75 -357q42 -236 217 -509q147 -228 360 -441l85 -76q-231 137 -426 332q41 -201 171 -370q126 -164 317 -260q190 -95 402 -95zM1138 543q-132 0 -239 99q-106 99 -144 256h772q-37 -156 -145 -256q-106 -99 -244 -99zM1853 249q-98 -98 -336 -28
q232 109 369 312q52 -199 -33 -284zM220 1860q62 62 182 54q121 -7 277 -78q-141 -85 -244 -213q-100 -125 -158 -284q-91 177 -107 312q-16 138 50 209z" />
</svg>