<svg xmlns="http://www.w3.org/2000/svg" xmlns:xlink="http://www.w3.org/1999/xlink" version="1.1" viewBox="-10 0 2068 2048">
   <path fill="currentColor"
d="M1860 188h-1672q-78 0 -132 54q-56 54 -56 132v280h188v-280h1672v1300h-648v186h648q80 0 134 -54t54 -132v-1300q0 -78 -54 -132t-134 -54zM0 1582v278h280q0 -118 -80 -198q-82 -80 -200 -80zM0 1212v182q127 0 234 64q106 63 170 170q62 106 62 232h188
q0 -129 -50 -250q-48 -118 -142 -212q-90 -90 -210 -138t-252 -48zM0 836v188q228 0 422 114q195 114 304 304q112 192 112 418h186q0 -277 -136 -514q-136 -233 -374 -372q-233 -138 -514 -138zM934 942v182l322 178l326 -178v-182l-326 174zM1256 466l-510 278l510 280
l514 -280z" />
</svg>