<svg xmlns="http://www.w3.org/2000/svg" xmlns:xlink="http://www.w3.org/1999/xlink" version="1.1" viewBox="-10 0 2058 2048">
   <path fill="currentColor"
d="M96 323l137 -131l993 993l726 722l-136 141l-323 -323h-1265v-323q0 -142 176 -252q141 -89 373 -141zM1952 1402v232l-207 -202v-30q0 -26 -38 -53q-42 -30 -103 -58l-297 -302q251 45 428 141q217 115 217 272zM434 1402v116h852l-332 -333q-130 15 -258 56
q-114 40 -189 86q-73 45 -73 75zM1090 0q176 0 302 126t126 308q0 158 -98 275q-99 118 -250 148l-504 -504q30 -151 149 -252t275 -101zM1090 217q-91 0 -154 63t-63 151q0 89 63 152t154 63q90 0 153 -63q64 -64 64 -152q0 -87 -64 -151q-63 -63 -153 -63z" />
</svg>