<svg xmlns="http://www.w3.org/2000/svg" xmlns:xlink="http://www.w3.org/1999/xlink" version="1.1" viewBox="-10 0 2068 2048">
   <path fill="currentColor"
d="M2048 388q-107 50 -238 68q131 -81 182 -234q-126 75 -266 102q-124 -134 -312 -134q-170 0 -294 124t-124 300q0 43 14 96q-256 -14 -484 -132q-228 -117 -382 -310q-56 96 -56 210t50 204q52 92 134 146q-99 0 -188 -50v4q0 152 95.5 267.5t238.5 146.5q-52 14 -110 14
q-31 0 -78 -10q42 129 150 210q107 80 240 84q-225 180 -518 180q-56 0 -102 -4q293 188 644 188q368 0 652 -188q260 -166 408 -450q138 -272 138 -556l-6 -56q125 -86 212 -220z" />
</svg>