<svg xmlns="http://www.w3.org/2000/svg" xmlns:xlink="http://www.w3.org/1999/xlink" version="1.1" viewBox="-10 0 2058 2048">
   <path fill="currentColor"
d="M1726 1740q102 -97 142 -283q20 -109 20 -268q0 -183 -126 -309t-308 -126q-112 0 -212 60v-490q0 -137 -96 -230q-98 -94 -228 -94q-121 0 -218 86q-92 -86 -214 -86t-214 86q-97 -86 -218 -86v218q46 0 76 30q30 31 30 76v1077h218v-1077q0 -46 30 -76t76 -30
q44 0 77 30t33 76v1077h214v-1077q0 -47 32 -76q32 -30 78 -30t76 30t30 76v865q0 159 20 268q36 187 142 283q-132 71 -268 96v212q153 0 536 -202q384 202 540 202v-212q-142 -26 -268 -96zM1454 971q92 0 155 63t63 155q0 232 -48 331q-48 98 -167.5 98t-166.5 -98
q-48 -99 -48 -331q0 -92 63 -155t149 -63z" />
</svg>