<svg xmlns="http://www.w3.org/2000/svg" xmlns:xlink="http://www.w3.org/1999/xlink" version="1.1" viewBox="-10 0 2068 2048">
   <path fill="currentColor"
d="M1900 1054l148 148l-684 688l-364 -364l146 -148l218 216zM842 158q172 0 295 123t123 298t-123 298t-298 123t-298 -123t-123 -298t123 -298t301 -123zM842 370q-90 0 -151 61t-61 148t61 148t148 61t148 -61t61 -148t-61 -148t-145 -61zM842 1102q104 0 250 30
l-176 178l-74 -6q-148 0 -306 40q-132 37 -236 94q-98 53 -98 88v114h650l196 202h-1048v-316q0 -133 158 -236q126 -84 340 -138q185 -50 344 -50z" />
</svg>