<svg xmlns="http://www.w3.org/2000/svg" xmlns:xlink="http://www.w3.org/1999/xlink" version="1.1" viewBox="-10 0 2068 2048">
   <path fill="currentColor"
d="M1042 1688q0 -197 124 -352q-22 -58 -40 -89q59 -49 86 -116q80 14 142 53q121 -66 264 -66q140 0 270 71q8 -63 8 -116q0 -165 -106 -249q-107 -84 -276 -78q-166 6 -342 100q-48 -56 -116 -84q35 -178 150 -236q86 -41 124 -116q37 -75 14 -154q-22 -77 -102 -127
q-91 -53 -244 -53q-165 0 -250 107q-84 107 -78 276q6 167 100 343q-57 44 -88 115q-173 -36 -232 -151q-45 -85 -118 -122q-74 -38 -150 -16q-78 22 -128 102q-54 93 -54 245q0 166 108 250q105 83 274 77q164 -6 344 -100q45 57 116 89q-36 174 -152 232q-84 41 -122 116
q-38 76 -15.5 153t103.5 127q91 53 244 53q118 0 192 -53q-50 -114 -50 -231zM948 1118q-40 0 -66 -27q-26 -26 -26 -67t26 -67t67 -26t67 26q26 27 26 67t-27 67t-67 27zM1612 1705l302 -302l134 133l-436 436l-436 -436l138 -133z" />
</svg>