<svg xmlns="http://www.w3.org/2000/svg" xmlns:xlink="http://www.w3.org/1999/xlink" version="1.1" viewBox="-10 0 2058 2048">
   <path fill="currentColor"
d="M1851 1031q-19 0 -43 24l-101 101l216 216l100 -101q15 -20 15 -43t-15 -43l-129 -130q-24 -24 -43 -24zM1654 1218l-623 614v216h216l623 -623zM1851 0h-820v614h820v-614zM1645 408h-408v-202h408v202zM1031 1540v-720h820v10q-52 0 -103 24q-49 23 -84 58l-115 110
h-312v316zM830 0h-820v1022h820v-1022zM623 820h-407v-614h407v614zM830 1746v-518h-820v614h820v-96zM623 1636h-407v-202h407v202z" />
</svg>