<svg xmlns="http://www.w3.org/2000/svg" xmlns:xlink="http://www.w3.org/1999/xlink" version="1.1" viewBox="-10 0 2068 2048">
   <path fill="currentColor"
d="M0 1494v310h824v-198h-630v-112q0 -34 96 -88q94 -51 234 -92q154 -38 304 -38q149 0 290 38l156 -154q-217 -78 -450 -82q-146 0 -334 48q-213 56 -340 136q-150 102 -150 232zM824 148q-170 0 -292 122q-120 120 -120 292t121 293t293 121t293 -121t121 -293t-122 -292
q-122 -122 -294 -122zM824 768q-84 0 -144 -60t-60 -146t60 -146t145 -60t145 60q62 62 62 146t-62 146q-60 60 -146 60zM2034 1116l-102 102l-214 -208l102 -102q20 -14 41.5 -14t40.5 14l132 130q14 19 14 44q0 26 -14 40v-6zM1032 1692l624 -624l212 204l-618 628h-218
v-208z" />
</svg>