<svg xmlns="http://www.w3.org/2000/svg" xmlns:xlink="http://www.w3.org/1999/xlink" version="1.1" viewBox="-10 0 2068 2048">
   <path fill="currentColor"
d="M0 510v721h202v-721h-202zM408 510v206h410v207h-202v308h202v-106q86 0 146 -60t60 -142v-207q0 -86 -60 -146t-146 -60h-410zM1412 510l-18 206h-164v207h144l-24 202h-120v207h102l-20 206h202l24 -206h144l-24 206h206l20 -206h164v-207h-146l24 -202h122v-207h-102
l20 -206h-202l-24 206h-144l24 -206h-208zM1576 923h144l-18 202h-146zM0 1332v206h202v-206h-202zM616 1332v206h202v-206h-202z" />
</svg>