<svg xmlns="http://www.w3.org/2000/svg" xmlns:xlink="http://www.w3.org/1999/xlink" version="1.1" viewBox="-10 0 2058 2048">
   <path fill="currentColor"
d="M1408 1385q0 105 -74 180q-74 74 -180 74q-108 0 -184 -74q-76 -75 -76 -180v-183q0 -29 24 -53t56 -24t53 24t21 53v183q0 44 30.5 72t75 28t72.5 -28q28 -29 28 -72v-371q-66 -24 -110 -77q-44 -52 -44 -120q0 -82 68 -142q67 -60 164 -60q95 0 162 60q68 60 68 142
q0 68 -44 120q-44 54 -110 77v371zM716 615q96 0 164 60q66 60 66 142q0 68 -42 120q-45 54 -110 77v548q0 141 98 236q98 96 236 96q136 0 235 -96t99 -236v-360q0 -29 21 -53t53 -24q30 0 54 24t24 53v360q0 99 -38 185q-40 92 -106 159q-69 71 -158 106q-91 36 -187.5 36
t-184.5 -36t-158 -106t-106 -159t-36 -185v-548q-67 -24 -112 -77q-42 -52 -42 -120q0 -82 66 -142q68 -60 164 -60zM904 423l-48 149q-65 -34 -134 -34q-74 0 -134 27q-59 27 -98 74l-124 -91q100 -130 274 -159v-4q0 -159 113 -272t271 -113t271 113t113 272v4
q174 29 274 159l-124 91q-38 -46 -100 -74q-60 -27 -132 -27q-70 0 -134 34l-48 -149q70 -30 110 -34v-4q0 -97 -67 -164t-163 -67t-163 67t-67 164v4q39 4 110 34zM1332 740q-44 0 -72 24q-30 24 -30 56t30 53q28 21 71.5 21t72.5 -21q28 -21 28 -53t-28 -56
q-29 -24 -72 -24zM716 740q-43 0 -72 24q-28 24 -28 56t28 53q29 21 72.5 21t71.5 -21q30 -21 30 -53t-30 -56q-28 -24 -72 -24z" />
</svg>