<svg xmlns="http://www.w3.org/2000/svg" xmlns:xlink="http://www.w3.org/1999/xlink" version="1.1" viewBox="-10 0 2058 2048">
   <path fill="currentColor"
d="M1531 1310q-27 -17 -84 -84q130 -180 202 -369q108 -271 108 -542q0 -153 -54 -234t-153 -81q-88 0 -189 74q-102 75 -190 207q-94 154 -147 344q-53 -187 -148 -344q-88 -133 -189 -207t-190 -74q-98 0 -152 81t-54 234q0 271 108 542q72 189 202 369q-57 67 -84 84
l-5 5q-67 57 -103 113q-69 93 -69 197q0 177 123 300t300 123q102 0 192 -29q45 -15 69 -30v0l29 15q17 6 94 29q69 15 137 15q178 0 301 -123t123 -300q0 -104 -69 -197q-35 -54 -104 -113zM743 1068q-96 -142 -162 -315q-84 -222 -84 -438q0 -69 15 -103q60 20 133 108
q89 109 143 261q74 197 78 433q-69 20 -123 54zM866 1546q-21 0 -37 -22q-17 -23 -17 -54q0 -32 17 -57t37 -25t37 25t17 57q0 31 -17 54q-16 22 -37 22zM1024 1836q-40 0 -72 -39q-32 -40 -32 -64t30 -39t74 -15t74 15q29 14 29 39q0 24 -32 64q-31 39 -71 39zM1181 1546
q-21 0 -37 -22q-17 -23 -17 -54q0 -32 17 -57t37 -25t37 25t17 57q0 31 -17 54q-16 22 -37 22zM1181 1014q4 -234 79 -433q54 -152 143 -261q73 -88 132 -108q15 34 15 103q0 219 -83 438q-65 170 -163 315q-54 -34 -123 -54z" />
</svg>