<svg xmlns="http://www.w3.org/2000/svg" xmlns:xlink="http://www.w3.org/1999/xlink" version="1.1" viewBox="-10 0 2068 2048">
   <path fill="currentColor"
d="M1876 1920v-172q-100 4 -176 -12q-92 -20 -164 -72q-113 80 -256 80t-256 -80q-113 80 -256 80t-256 -80q-72 52 -164 72q-76 16 -176 12v172q216 7 340 -64q115 64 256 64t256 -64q115 64 256 64t256 -64q124 71 340 64zM1996 1424q-304 -125 -660 -168l316 -712
l112 -40l112 -256l-272 -120l-112 252l44 112l-144 316l-240 128l-212 -108q-8 -8 -24 -12q-55 -24 -114 8q-58 31 -78 92l-116 356q-28 -12 -272 60q-215 65 -256 84l-80 32q176 72 336 120q92 -29 176 -120q65 80 160 110q96 30 192 0q95 -30 160 -110q65 80 160 110
q96 30 192 0q95 -30 160 -110q84 91 176 120l248 -84l88 -36zM1200 1244q-90 -8 -256 -8l60 -184l148 80l128 -72zM1196 596q0 72 -50 122t-122 50t-122 -50t-50 -122t50 -122t122 -50t122 50t50 122z" />
</svg>