<svg xmlns="http://www.w3.org/2000/svg" xmlns:xlink="http://www.w3.org/1999/xlink" version="1.1" viewBox="-10 0 2068 2048">
   <path fill="currentColor"
d="M1956 279v-48q0 -96 -68 -164q-68 -67 -166 -67t-166 67q-68 68 -68 164v48q-34 0 -63 29t-29 63v375q0 35 30 64q28 28 62 28h468q34 0 62 -28q30 -29 30 -64v-375q0 -34 -29 -63t-63 -29zM1860 279h-280v-48q0 -53 44 -96q44 -44 98 -44t96 44q42 42 42 96v48z
M1860 1026v463q0 78 -55 133t-129 55h-1304l-372 371v-1677q0 -75 54 -129q56 -55 130 -55h1026v184h-1026v1231l112 -113h1380v-463h184z" />
</svg>