<svg xmlns="http://www.w3.org/2000/svg" xmlns:xlink="http://www.w3.org/1999/xlink" version="1.1" viewBox="-11 0 2069 2048">
   <path fill="currentColor"
d="M1123 1844v-1146q91 -39 134 -91l360 129l-297 696q-39 148 60 228q99 79 297 79q201 0 300 -79q101 -80 57 -228l-264 -643l91 29l72 -192l-604 -216q0 -97 -55 -177q-55 -82 -146 -120q-91 -39 -185 -10q-92 28 -156 101l-594 -202l-72 183l163 62l-273 676
q-39 149 60 228t297 79q201 0 300 -79q101 -79 57 -228l-254 -604l245 91q0 97 55 177q56 81 151 120v1137h-921v202h2043v-202h-921zM1833 1432h-307l153 -389zM519 923h-307l154 -388zM931 381q16 -44 55 -60q42 -17 80.5 -2t54.5 55q17 41 2 79q-15 39 -53 55
q-40 17 -79 3q-41 -15 -57 -53q-17 -40 -3 -77z" />
</svg>