<svg xmlns="http://www.w3.org/2000/svg" xmlns:xlink="http://www.w3.org/1999/xlink" version="1.1" viewBox="-10 0 2068 2048">
   <path fill="currentColor"
d="M746 0h-558q-78 0 -133 55t-55 133v1207q0 78 56 133q54 54 132 54h92v-279h-92v-1115h558v745h188v-745q0 -78 -55 -133t-133 -55zM2048 1861v-558q0 -79 -54 -133t-134 -54h-1206q-78 0 -132 54q-56 55 -56 133v558q0 78 56 133q54 54 132 54h1206q80 0 134 -54
t54 -133zM746 1861v-558h1114v558h-1114zM2048 837h-140q0 -208 -118 -383q-118 -176 -308 -258l-88 179l-182 -375q226 0 418 114q193 115 304 305q114 193 114 418z" />
</svg>