<svg xmlns="http://www.w3.org/2000/svg" xmlns:xlink="http://www.w3.org/1999/xlink" version="1.1" viewBox="-10 0 2068 2048">
   <path fill="currentColor"
d="M604 420q-164 0 -304 80q-139 79 -220 220q-80 140 -80 304v481q0 53 35 88t83 35h284v-401h-204v-203q0 -165 118 -283t286 -118t286 118q116 117 116 283v203h-202v401h284q52 0 87 -35t35 -88v-481q0 -165 -82 -304q-84 -141 -222 -220q-141 -80 -300 -80zM1708 519
v382l-232 -231l-70 71l282 283l-282 283l70 71l232 -231v382h52l288 -288l-218 -217l218 -217l-288 -288h-52zM1812 713l94 94l-94 94v-188zM1812 1147l94 94l-94 94v-188z" />
</svg>