<svg xmlns="http://www.w3.org/2000/svg" xmlns:xlink="http://www.w3.org/1999/xlink" version="1.1" viewBox="-10 0 2058 2048">
   <path fill="currentColor"
d="M1120 489q0 -44 14 -87q21 -74 64 -128l-174 -137l-174 146q42 46 64 119q14 47 14 87q-213 13 -398 92q-148 66 -274 169q-86 73 -154 155l-52 73l682 681l22 -36q28 -41 64 -73q54 -47 110 -64v201q-45 23 -72 68q-28 47 -28 101q0 78 57 135t139 57t139 -57t57 -135
q0 -56 -27 -101t-73 -68v-201q56 17 110 64q36 32 64 73l22 36l682 -681l-50 -73q-67 -79 -156 -155q-127 -99 -274 -165q-184 -78 -398 -96zM928 1280q-128 32 -206 96l-410 -407q251 -252 616 -274v585zM1326 1376q-110 -74 -206 -96v-585q214 18 384 105q136 71 234 169z
M1610 32l-70 183q-52 -23 -122 -23q-72 0 -128 23l-70 -183q89 -32 194 -32q107 0 196 32zM1902 489h-196v-36q-10 -42 -24 -83q-17 -49 -54 -87l146 -128q82 87 114 215q14 67 14 119zM266 155l146 128q-46 52 -60 133q-8 40 -8 73h-198q0 -52 14 -119q32 -128 106 -215z
M828 32l-68 183q-53 -23 -122 -23t-130 23l-68 -183q88 -32 193.5 -32t194.5 32z" />
</svg>