<svg xmlns="http://www.w3.org/2000/svg" xmlns:xlink="http://www.w3.org/1999/xlink" version="1.1" viewBox="-10 0 2068 2048">
   <path fill="currentColor"
d="M2048 1491q0 148 -76 276q-77 129 -204 205q-129 76 -278 76v-139q174 0 296 -122t122 -296h140zM0 558q0 -147 78 -277q75 -128 204 -204q129 -77 276 -77v140q-174 0 -296 122t-122 296h-140zM654 310l-426 427q-148 147 -200 346q-53 198 0 395q52 196 199.5 343.5
t344.5 200.5q196 52 394 0q198 -53 346 -200l658 -658q30 -36 30 -81.5t-32 -79.5q-34 -35 -82 -35q-46 0 -82 35l-414 409l-66 -65l610 -610q36 -35 36 -83t-36 -81q-33 -32 -82 -32q-48 0 -82 35l-540 540l-66 -65l640 -641q30 -35 30 -83.5t-32 -82.5q-33 -34 -80 -34
q-50 0 -84 34l-640 641l-64 -65l508 -510q36 -35 36 -83t-36 -81q-33 -32 -82 -32q-48 0 -82 30l-706 710q82 109 75.5 251t-105.5 242l-70 -70q82 -79 82 -194t-82 -198l-32 -31l380 -379q34 -35 34 -82q0 -48 -35 -83t-81 -35q-48 0 -84 35z" />
</svg>