<svg xmlns="http://www.w3.org/2000/svg" xmlns:xlink="http://www.w3.org/1999/xlink" version="1.1" viewBox="-10 0 2068 2048">
   <path fill="currentColor"
d="M1448 1024q0 -80 -14 -201h338q28 106 28 201q0 52 -10 108q101 13 192 66q14 -92 14 -174q0 -271 -134 -501q-133 -229 -362 -363q-231 -134 -501.5 -134t-500.5 134t-364 363q-134 230 -134 501q0 272 134 502t364 363q228 133 500 133q82 0 174 -14q-74 -129 -74 -286
q0 -33 8 -84q-47 96 -108 183q-130 -192 -192 -398h376q88 -159 256 -239q10 -98 10 -160zM998 227q130 191 192 399h-384q63 -208 192 -399zM226 1226q-28 -106 -28 -202q0 -95 28 -201h338q-16 130 -16 201q0 72 16 202h-338zM306 1423h294q55 196 142 356
q-140 -46 -251.5 -139t-184.5 -217zM600 626h-294q75 -126 184 -218q110 -91 252 -138q-87 160 -142 356zM1232 1226h-468q-14 -112 -14 -202q0 -89 14 -201h468q14 121 14 201q0 81 -14 202zM1256 270q141 46 250.5 138t185.5 218h-296q-50 -191 -140 -356zM2048 1549
l-474 473l-276 -300l118 -112l158 159l356 -361z" />
</svg>