<svg xmlns="http://www.w3.org/2000/svg" xmlns:xlink="http://www.w3.org/1999/xlink" version="1.1" viewBox="-10 0 2058 2048">
   <path fill="currentColor"
d="M1540 585q-145 0 -296 96v-681h-296v674q-108 -89 -288 -89q-144 0 -296 96v-681h-294v2048q632 -351 878 -673v673q524 -289 784 -556q246 -254 246 -468q0 -178 -96 -295q-116 -144 -342 -144zM364 1519v-453q76 -83 156 -134q81 -52 140 -52q75 0 110 24q34 24 34 120
q0 54 -62 145q-110 158 -378 350zM1244 1519v-453q75 -83 154 -134q82 -52 142 -52q75 0 110 24q34 24 34 120q0 54 -62 145q-111 158 -378 350z" />
</svg>