<svg xmlns="http://www.w3.org/2000/svg" xmlns:xlink="http://www.w3.org/1999/xlink" version="1.1" viewBox="-10 0 2068 2048">
   <path fill="currentColor"
d="M1670 1081v263l98 92v-166h280v-189h-378zM120 29l-120 118l176 175l-92 79l118 141l106 -88l74 75q-149 177 -190 394q-42 217 30 432q73 214 244 362q114 101 256 153q143 53 296 53q65 0 92 -4v-189q-30 9 -92 9q-181 0 -330 -90q-148 -90 -236 -239
q-88 -150 -88 -329q0 -236 150 -421l446 452l-364 215l70 114l392 -233l368 369q-85 44 -114 133q-31 92 10 178q43 89 134 118q93 31 180 -13q74 -34 104 -105l106 105l118 -118zM1018 428q219 0 392 129q173 130 234 340h194q-39 -192 -160 -342q-120 -148 -294 -233
q-171 -83 -366 -83q-192 0 -364 88l140 140q110 -39 224 -39zM970 643l140 140v-167h-140v27zM632 182l-118 -140l-80 66l132 131zM1522 42l-118 140l428 364l120 -145z" />
</svg>