<svg xmlns="http://www.w3.org/2000/svg" xmlns:xlink="http://www.w3.org/1999/xlink" version="1.1" viewBox="-10 0 2068 2048">
   <path fill="currentColor"
d="M810 0q-158 0 -284 91t-176 243q-151 25 -250.5 146.5t-99.5 273.5q0 181 127 308t303 127v859h1188v-212h324q40 0 73 -33t33 -78v-860q0 -45 -33 -78t-73 -33h-218v-213q0 -182 -126 -308q-126 -127 -304 -127h-182q-135 -106 -302 -106zM810 218q63 0 118 27
q57 28 94 79h272q86 0 150 63q64 64 64 154h-430q-147 0 -238 81q-61 51 -142 202q-56 102 -166 132q-56 20 -102 15q-90 0 -153 -63t-63 -152t63 -152t153 -63h106v-55q0 -112 81 -190t193 -78zM1618 971h212v647h-212v-647z" />
</svg>