<svg xmlns="http://www.w3.org/2000/svg" xmlns:xlink="http://www.w3.org/1999/xlink" version="1.1" viewBox="-10 0 2068 2048">
   <path fill="currentColor"
d="M682 98q124 0 208 84q84 86 84 208v586q0 117 -84 206q-84 86 -208 86t-208 -86.5t-84 -205.5v-586q0 -124 84 -208t208 -84zM1362 976q0 164 -74 310q-74 145 -208 242q-134 98 -302 124v298h-192v-298q-168 -26 -302 -124q-134 -97 -208 -242q-76 -148 -76 -310h192
q0 130 68 244q65 112 178 176q111 64 244 64t244 -64q113 -64 178 -176q66 -112 66 -244h192zM1266 390h782v192h-782v-192z" />
</svg>