<svg xmlns="http://www.w3.org/2000/svg" xmlns:xlink="http://www.w3.org/1999/xlink" version="1.1" viewBox="-10 0 2058 2048">
   <path fill="currentColor"
d="M1024 654q39 0 65 26t26 65q0 40 -26 66t-65 26t-65 -26t-26 -66q0 -39 26 -65t65 -26zM1860 933q0 254 -109 488q-111 238 -300 401q-191 164 -427 226q-236 -62 -427 -226q-189 -163 -300 -401q-109 -234 -109 -488v-558l836 -375l836 375v558zM1024 467
q-118 0 -198 80q-81 81 -81 198q0 93 52 164q53 72 136 98v575h182v-187h188v-183h-188v-205q82 -25 135 -98t53 -164q0 -117 -81 -198q-80 -80 -198 -80z" />
</svg>