<svg xmlns="http://www.w3.org/2000/svg" xmlns:xlink="http://www.w3.org/1999/xlink" version="1.1" viewBox="-10 0 2058 2048">
   <path fill="currentColor"
d="M1210 1116h138v261l228 135l-70 118l-296 -170v-344zM1580 654h-1298v1020h430q-60 -129 -60 -279q0 -175 86 -325q87 -149 238 -237q152 -88 324 -88q150 0 280 61v-152zM282 1861q-80 0 -134 -54t-54 -133v-1299q0 -79 54 -133t134 -54h90v-188h188v188h740v-188h188
v188h92q78 0 132 54t54 133v567q88 88 138 204q50 118 50 249q0 180 -90 327q-89 148 -236 237t-328 89q-129 0 -248 -50q-117 -50 -204 -137h-566zM1300 946q-122 0 -224 61q-101 61 -162 163q-62 101 -62 225q0 122 62 226q61 105 162 166q102 61 224 61q91 0 174 -35
q83 -34 146.5 -98t97.5 -146q36 -84 36 -174q0 -124 -62 -225q-61 -103 -164 -163q-105 -61 -228 -61z" />
</svg>