<svg xmlns="http://www.w3.org/2000/svg" xmlns:xlink="http://www.w3.org/1999/xlink" version="1.1" viewBox="-10 0 2068 2048">
   <path fill="currentColor"
d="M1930 1218q46 0 82 39.5t36 88.5v344q0 46 -38 80q-39 34 -90 34h-534q-46 0 -83 -37t-37 -87v-342q0 -46 38 -84q36 -36 82 -36v-242q0 -101 82 -172q83 -70 188 -70q104 0 188 70q86 72 86 172v50h-128v-50q0 -55 -42 -92q-40 -36 -102 -36t-106 36q-44 37 -44 92v242
h422zM0 244h1756v302l-100 -8q-116 0 -220 54q-74 -59 -74 -150h-972q0 78 -57 135t-141 57v392q84 0 141 57t57 135h684l-4 50v146h-1070v-1170zM878 538q118 0 205 84t87 208t-86 208q-89 84 -208.5 84t-204.5 -85t-85 -208t84 -207t208 -84z" />
</svg>