<svg xmlns="http://www.w3.org/2000/svg" xmlns:xlink="http://www.w3.org/1999/xlink" version="1.1" viewBox="-10 0 2068 2048">
   <path fill="currentColor"
d="M204 128l-108 108l12 12q-47 19 -78 64q-30 44 -30 96v1192q5 73 52 120t120 52h1460l148 148l108 -108zM1196 1516h-1024v-84q0 -79 92 -144q80 -56 212 -92q111 -28 206 -28q97 0 210 28q128 36 208 92q96 64 96 144v84zM684 1004q-108 0 -182 -74t-74 -182
q0 -76 40 -140l352 352q-61 44 -136 44zM1876 236h-1348l316 316q20 16 36 36l1124 1124q44 -53 44 -112v-1192q-5 -73 -52 -120t-120 -52zM1792 1088h-340v-256h340v256z" />
</svg>