<svg xmlns="http://www.w3.org/2000/svg" xmlns:xlink="http://www.w3.org/1999/xlink" version="1.1" viewBox="-10 0 2058 2048">
   <path fill="currentColor"
d="M1946 1125q0 249 -124 464q-123 211 -338 336q-211 123 -460.5 123t-461.5 -123q-214 -125 -336 -336q-124 -214 -124 -464l4 -875q422 -250 918 -250q495 0 922 240v885zM1124 1836q172 -24 316 -125q141 -100 220 -254q80 -154 80 -332v-760q-335 -163 -716 -163
q-378 0 -726 173l10 750q0 176 82 332q79 152 220 254q141 101 312 125v-197h202v197zM922 1433h-306l-208 -308l308 106h102l104 -106h202l106 106h102l306 -106l-206 308h-308l-100 -101zM408 721q102 -101 256 -101q153 0 258 101q-104 96 -258 96q-155 0 -256 -96z
M1124 721q106 -101 257.5 -101t256.5 101q-105 96 -256.5 96t-257.5 -96z" />
</svg>