<svg xmlns="http://www.w3.org/2000/svg" xmlns:xlink="http://www.w3.org/1999/xlink" version="1.1" viewBox="-10 0 2068 2048">
   <path fill="currentColor"
d="M1024 42q-92 0 -156 66q-66 69 -66 160q0 66 36 120q37 55 98 84v104h-360q-70 0 -122 54q-52 52 -52 126v64q-63 29 -98 82q-36 54 -36 122t36 122q35 53 98 82v64h-92q-72 0 -124 52t-52 128v104q-62 30 -98 84q-36 52 -36 120q0 91 66 160q64 66 156 66t156 -66
q66 -69 66 -160q0 -66 -36 -120q-37 -55 -98 -84v-104h358v104q-61 29 -98 84q-34 52 -34 120q0 93 64 159.5t156.5 66.5t157.5 -66q64 -69 64 -160q0 -66 -36 -120q-36 -55 -98 -84v-104q0 -76 -52 -128t-124 -52h-92v-64q64 -30 99 -82.5t35 -121.5t-35 -121.5t-99 -82.5
v-64h894v64q-62 29 -98 82q-34 53 -34 122t34 122q36 53 98 82v64h-90q-72 0 -124 52t-52 128v104q-62 29 -98 84q-36 53 -36 120q0 91 64 160q65 66 158 66q91 0 156 -66q64 -69 64 -160q0 -68 -34 -120q-37 -55 -98 -84v-104h358v104q-61 29 -98 84q-36 53 -36 120
q0 91 66 160q64 66 156 66t156 -66q66 -69 66 -160q0 -66 -36 -120q-37 -55 -98 -84v-104q0 -76 -52 -128t-124 -52h-92v-64q63 -29 98 -82q36 -54 36 -122t-36 -122q-35 -53 -98 -82v-64q0 -74 -52 -126q-52 -54 -124 -54h-358v-104q61 -29 98 -84q36 -54 36 -120
q0 -91 -66 -160q-64 -66 -156 -66zM1024 176q37 0 62 26q26 27 26 66q0 38 -25 63t-63 25t-63 -25t-25 -63q0 -39 26 -66q25 -26 62 -26zM490 936q36 0 61 25t25 63t-25 63t-61 25q-38 0 -63 -25t-25 -63t25 -63t63 -25zM1558 936q38 0 63 25t25 63t-25 63t-63 25
q-36 0 -62 -26t-26 -62t26 -62t62 -26zM222 1692q38 0 63 25t25 63q0 39 -26 66q-25 26 -62 26t-62 -26q-26 -27 -26 -66q0 -38 25 -63t63 -25zM756 1692q38 0 63 25t25 63q0 39 -24 66q-26 26 -63.5 26t-62.5 -26q-26 -27 -26 -66q0 -38 25 -63t63 -25zM1292 1692
q36 0 62 26t26 62q0 38 -26 66q-26 26 -62 26q-38 0 -64 -26q-24 -27 -24 -66q0 -38 25 -63t63 -25zM1826 1692q38 0 63 25t25 63q0 39 -26 66q-25 26 -62 26t-62 -26q-26 -27 -26 -66q0 -38 25 -63t63 -25z" />
</svg>