<svg xmlns="http://www.w3.org/2000/svg" xmlns:xlink="http://www.w3.org/1999/xlink" version="1.1" viewBox="-10 0 2068 2048">
   <path fill="currentColor"
d="M620 1471v-5q65 -166 120 -259q82 -144 198 -236q139 -106 340 -154l-82 10q-104 16 -192 53q-131 49 -226 139q-121 113 -178 274l-24 -29q-18 -25 -42 -67q-24 -53 -24 -96q0 -60 38 -130q43 -86 116 -144q87 -72 206 -96t236 -39q192 -24 278 -48q129 -33 154 -82
l-24 92q-29 111 -68 216q-55 141 -130 260q-96 140 -206 211q-135 92 -292 92q-25 0 -68 -15l-48 120l-96 -33zM1024 202q222 0 410.5 110t299.5 301q112 191 112 411t-112 411q-110 190 -300 300q-190 111 -410.5 111t-411.5 -111q-189 -110 -300 -300q-110 -191 -110 -411
t110 -411q112 -191 300.5 -301t411.5 -110zM1024 0q-278 0 -514 137q-235 136 -372 373q-138 236 -138 514t138 514q137 237 372 373q236 137 513.5 137t514.5 -137q236 -137 372 -373q138 -236 138 -514t-138 -514q-136 -236 -372 -373q-237 -137 -514 -137z" />
</svg>