<svg xmlns="http://www.w3.org/2000/svg" xmlns:xlink="http://www.w3.org/1999/xlink" version="1.1" viewBox="-10 0 2058 2048">
   <path fill="currentColor"
d="M1628 1636q60 -95 64 -203q5 -106 -48 -208q-50 -99 -144 -157q-93 -57 -204 -62q-107 -4 -206 48q-96 51 -156 145q-60 95 -64 204q-5 109 44 205q51 99 148 159q100 62 216 62q119 0 218 -64l286 283l128 -129zM1280 1645q-91 0 -162 -67q-68 -66 -68 -160
q0 -95 69 -161t161 -66q96 0 162 66t66 161q0 94 -66 160q-68 67 -162 67zM780 1739h-458v-1097h1276v274q115 74 184 185v-459q0 -76 -54 -130t-130 -54h-180q0 -121 -62 -229q-62 -105 -168 -167q-105 -62 -228.5 -62t-229.5 62q-105 62 -166 167q-62 106 -62 229h-180
q-76 0 -130 54t-54 130v1097q0 72 54 126t130 54h642q-111 -70 -184 -180zM960 184q116 0 195 79t79 195h-548q0 -116 79 -195t195 -79zM1234 732h184q0 54 -12 107q-62 -17 -126 -17q-45 0 -64 4q18 -48 18 -94zM754 1139q-114 -55 -184 -165q-68 -109 -68 -242h184
q0 89 52 161q50 71 132 96q-70 65 -116 150z" />
</svg>