<svg xmlns="http://www.w3.org/2000/svg" xmlns:xlink="http://www.w3.org/1999/xlink" version="1.1" viewBox="-10 0 2058 2048">
   <path fill="currentColor"
d="M1262 192h-570v-192h570v192zM978 1669q0 173 92 325q-34 5 -92 5q-232 0 -428 -114q-199 -115 -314 -312q-116 -199 -116 -431q0 -231 116 -428t314 -313q197 -116 428 -116q144 0 284 52q139 51 250 140l134 -138q63 54 134 134l-134 138q169 209 188 486
q-115 -49 -236 -49q-170 0 -314 83q-142 83 -224 225t-82 313zM1070 571h-186v669h186v-669zM1928 1669v-384l-112 111q-112 -111 -268 -111t-268 111q-112 112 -112 270t112 270t268 112q120 0 216 -65q95 -64 136 -172h-160q-37 46 -84 69q-52 25 -108 25q-98 0 -167 -69
t-69 -167t68 -170q69 -71 168 -71q98 0 170 71l-170 170h380z" />
</svg>