<svg xmlns="http://www.w3.org/2000/svg" xmlns:xlink="http://www.w3.org/1999/xlink" version="1.1" viewBox="-10 0 2068 2048">
   <path fill="currentColor"
d="M328 1172q35 19 44 56q8 39 -12 72q-18 32 -54 42q-36 9 -70 -8q-108 -62 -172 -168q-64 -109 -64 -233.5t64 -232.5t170 -170q106 -64 232 -64q70 -165 220 -268q152 -102 338 -102q157 0 292 74q136 73 218 202q82 128 96 282h44q156 0 266 108q108 108 108 262
t-108 262q-110 108 -266 108q-40 0 -66 -26t-26 -66q0 -38 26 -64t66 -26q78 0 132 -56q54 -54 54 -133t-54 -133t-132 -54h-184v-92q0 -126 -62 -232q-64 -107 -170 -170q-107 -64 -234 -64q-174 0 -302 112q-129 110 -154 280q-50 -16 -102 -16q-116 0 -198 80
q-80 80 -80 198q0 74 38 140q38 67 102 100zM794 932h278l-186 370h186l-348 650l70 -462h-236zM1534 1642q0 93 -60 156q-62 62 -150 62q-86 0 -148 -62q-60 -63 -60 -154q0 -89 104 -250q58 -85 104 -140l58 70q57 78 100 158q52 101 52 160z" />
</svg>