<svg xmlns="http://www.w3.org/2000/svg" xmlns:xlink="http://www.w3.org/1999/xlink" version="1.1" viewBox="-10 0 2058 2048">
   <path fill="currentColor"
d="M1024 375q-78 0 -133 55q-54 54 -54 130q0 77 54 131t133 54t133 -54t54 -131q0 -76 -54 -130q-55 -55 -133 -55zM1952 0v467h-183v-188h-1490v188h-183v-467h183v188h1490v-188h183zM1303 955v1093h-188v-466h-182v466h-188v-1093q-145 -76 -237 -220q-89 -139 -89 -316
v-44h187v44q0 174 122 296t296 122t296 -122t122 -296v-44h187v44q0 177 -89 316q-92 144 -237 220z" />
</svg>