<svg xmlns="http://www.w3.org/2000/svg" xmlns:xlink="http://www.w3.org/1999/xlink" version="1.1" viewBox="-10 0 2058 2048">
   <path fill="currentColor"
d="M1024 0q-132 0 -244 66q-112 65 -178 179q-66 113 -66 244v197h-96q-84 0 -141 57t-57 135v978q0 78 57 135t141 57h1170q82 0 139 -57t57 -135v-978q0 -78 -57 -135t-139 -57h-96v-197q0 -130 -68 -244q-66 -114 -178 -179q-112 -66 -244 -66zM1024 187q122 0 212 90
q90 89 90 212v197h-604v-197q0 -123 90 -212q90 -90 212 -90zM1042 928q137 0 217.5 62t80.5 162q0 65 -44 117q-43 53 -112 84q-38 24 -50 48q-14 25 -14 62h-192q0 -70 30 -105q33 -41 102 -83q38 -19 60 -50q24 -32 24 -73q0 -40 -26 -66q-26 -25 -76 -25q-38 0 -64 20
q-26 21 -26 62h-192q-9 -105 72 -160q82 -55 210 -55zM928 1563h192v192h-192v-192z" />
</svg>