<svg xmlns="http://www.w3.org/2000/svg" xmlns:xlink="http://www.w3.org/1999/xlink" version="1.1" viewBox="-10 0 2068 2048">
   <path fill="currentColor"
d="M634 1024l-134 91v-182zM970 798v-250l-426 284l186 125zM1504 832l-428 -284v250l240 159zM544 1216l426 284v-250l-240 -159zM1076 1250v250l428 -284l-188 -125zM1024 894l-192 130l192 130l192 -130zM2048 1024q0 278 -138 514q-136 236 -372 373
q-237 137 -514.5 137t-513.5 -137q-235 -136 -372 -373q-138 -236 -138 -514t138 -514q137 -237 372 -373q236 -137 513.5 -137t514.5 137q236 137 372 373q138 236 138 514zM1658 832v-10l-4 -10l-16 -24l-586 -389q-29 -20 -58 0l-586 389l-10 15l-8 29v394l4 9l14 25
l586 389q10 10 28 10q14 0 30 -10l582 -385l10 -9l14 -39v-384zM1548 1115v-182l-136 91z" />
</svg>