<svg xmlns="http://www.w3.org/2000/svg" xmlns:xlink="http://www.w3.org/1999/xlink" version="1.1" viewBox="-10 0 2058 2048">
   <path fill="currentColor"
d="M372 0v188h-90q-80 0 -134 54t-54 133v1299q0 79 54 133t134 54h566q87 87 204 137q119 50 248 50q180 0 330 -87t237 -237t87 -329q0 -131 -50 -249q-50 -116 -138 -204v-567q0 -79 -54 -133t-132 -54h-92v-188h-188v188h-740v-188h-188zM282 375h1298v183h-1298v-183z
M282 745h1298v61q-130 -61 -280 -61q-172 0 -324 88q-151 88 -238 237q-86 150 -86 325q0 150 60 279h-430v-929zM1300 946q123 0 228 61q103 60 164 163q62 101 62 225q0 122 -62 226q-61 106 -164 166q-105 61 -227.5 61t-224.5 -61q-101 -61 -162 -166q-62 -104 -62 -226
q0 -124 62 -225q61 -102 162 -163q102 -61 224 -61zM1210 1116v344l296 170l70 -118l-228 -135v-261h-138z" />
</svg>