<svg xmlns="http://www.w3.org/2000/svg" xmlns:xlink="http://www.w3.org/1999/xlink" version="1.1" viewBox="-10 0 2058 2048">
   <path fill="currentColor"
d="M1412 686q82 0 140 57q58 58 58 135v978q0 77 -58 135q-58 57 -140 57h-1170q-76 0 -134 -57q-58 -58 -58 -135v-978q0 -77 58 -135q58 -57 134 -57h878v-197q0 -123 -82 -208q-83 -84 -208 -84q-126 0 -210 84t-84 208h-192q0 -132 64 -244q65 -114 176 -179
q112 -66 246 -66t246 66q111 65 176 179q64 112 64 244v197h96zM828 1563q82 0 139 -57t57 -139q0 -83 -57 -140t-137 -57t-137 57t-57 140q0 82 57 139t135 57zM1998 1170h-192v-585h192v585zM1998 1563h-192v-196h192v196z" />
</svg>