<svg xmlns="http://www.w3.org/2000/svg" xmlns:xlink="http://www.w3.org/1999/xlink" version="1.1" viewBox="-10 0 2058 2048">
   <path fill="currentColor"
d="M1552 2048l-54 -50l-46 -40q-153 -145 -208 -208q-76 -103 -76 -191q0 -89 63 -152t149 -63q50 0 98 21q47 21 74 56q29 -34 76 -56q46 -21 100 -21q86 0 148 61q64 62 64 151q0 91 -82 194q-51 65 -202 208l-46 40zM302 1922q-80 0 -137 -57t-57 -133v-1542
q0 -77 58 -134q56 -56 136 -56h96v672l242 -144l240 144v-672h576q82 0 138 56t56 134v875l-98 -9q-154 0 -286 79q-133 79 -212 212q-80 133 -80 288q0 156 78 287h-750z" />
</svg>