<svg xmlns="http://www.w3.org/2000/svg" xmlns:xlink="http://www.w3.org/1999/xlink" version="1.1" viewBox="-10 0 2068 2048">
   <path fill="currentColor"
d="M630 869q-172 0 -292 120t-120 292q0 120 64 218l-282 283l128 129l284 -283q102 64 218 64q170 0 290 -120t120 -291q0 -172 -120 -292t-290 -120zM630 1508q-94 0 -161 -67t-67 -160t68 -163q65 -69 160 -69q94 0 160 69t66 163t-66 160q-66 67 -160 67zM2048 321v1277
q0 76 -54 130t-130 54h-918q111 -69 184 -184h734v-913h-734v-364h-912v531q-84 80 -134 193q-50 110 -50 236v-960q0 -78 53 -131t131 -53h1646q76 0 130 53q54 54 54 131z" />
</svg>