<svg xmlns="http://www.w3.org/2000/svg" xmlns:xlink="http://www.w3.org/1999/xlink" version="1.1" viewBox="-10 0 2058 2048">
   <path fill="currentColor"
d="M1124 478h-394v-478q169 31 282 168q112 134 112 310zM142 478q0 -174 114 -310q113 -137 282 -168v478h-396zM1124 969q0 176 -112 310q-114 137 -282 173v105q0 124 88 209q86 85 208 85t207 -85t85 -209v-491q0 -159 114 -276q114 -115 280 -115h194l-98 97l98 101
h-194q-82 0 -140 57q-58 58 -58 136v491q0 133 -66 246t-178 179q-113 66 -246 66t-246 -66q-112 -66 -176 -179q-64 -112 -64 -246v-105q-168 -36 -282 -173q-114 -136 -114 -310v-294h982v294z" />
</svg>