<svg xmlns="http://www.w3.org/2000/svg" xmlns:xlink="http://www.w3.org/1999/xlink" version="1.1" viewBox="-10 0 2068 2048">
   <path fill="currentColor"
d="M188 96h1672q78 0 134 54q54 54 54 128v1490q0 76 -54 130q-56 54 -134 54h-1672q-78 0 -133 -55t-55 -129v-1490q0 -72 55 -127t133 -55zM1116 278v1490h744v-1490h-744zM188 278v1490h746v-1490h-746zM376 1116h182v374h-182v-374zM376 466h370v140h-370v-140zM376 744
h370v140h-370v-140zM1304 1116h186v374h-186v-374zM1304 466h370v140h-370v-140zM1304 744h370v140h-370v-140z" />
</svg>