<svg xmlns="http://www.w3.org/2000/svg" xmlns:xlink="http://www.w3.org/1999/xlink" version="1.1" viewBox="-10 0 2058 2048">
   <path fill="currentColor"
d="M1300 1423l144 -149l216 221l222 -216l144 144l-222 216l222 217l-144 149l-222 -221l-216 216l-144 -144l216 -217zM330 2048q-130 0 -220 -89q-88 -88 -88 -219q0 -92 52 -168l564 -976v-187q-44 0 -73 -32t-29 -69v-106q0 -82 60 -142t142 -60h414q80 0 140 60
q62 61 62 142v106q0 37 -29 69t-73 32v187l254 447q-153 39 -271 152.5t-161 265.5l-442 -442l-384 664q-20 28 -20 57q0 43 30 75q28 31 72 31h754q38 113 120 202h-874zM1046 817q-40 0 -71 31t-31 73q0 41 31 72t73 31t73 -31t31 -72q0 -42 -31 -73t-75 -31z" />
</svg>