<svg xmlns="http://www.w3.org/2000/svg" xmlns:xlink="http://www.w3.org/1999/xlink" version="1.1" viewBox="-10 0 2058 2048">
   <path fill="currentColor"
d="M516 1739v-203h1034v203h-208q-82 0 -145 63t-63 145v101h-202v-101q0 -82 -63 -145t-145 -63h-208zM932 401q0 -43 29 -72t72 -29t72 29t29 72q0 44 -29 73t-72 29t-72 -29t-29 -73zM1134 609q0 -43 32 -75q32 -31 72 -31q42 0 73 31t31 73q0 41 -31 72t-73 31
q-40 0 -72 -31q-32 -32 -32 -70zM724 609q0 -44 31 -75t73 -31t72 31q32 32 32 73q0 40 -32 72q-30 31 -72 31t-73 -31t-31 -70zM1540 203q-207 -203 -506.5 -203t-507.5 203q-100 105 -156 235q-56 126 -56 272q0 300 206 505q206 206 504 206t504 -206q206 -205 206 -505
q0 -324 -194 -507zM1396 1073q-154 154 -362 154q-101 0 -198 -41t-164 -113q-156 -175 -156 -363q0 -222 156 -362q173 -154 362 -154q222 0 362 154q154 175 154 362q0 223 -154 363z" />
</svg>