<svg xmlns="http://www.w3.org/2000/svg" xmlns:xlink="http://www.w3.org/1999/xlink" version="1.1" viewBox="-10 0 2058 2048">
   <path fill="currentColor"
d="M1024 0q-74 126 -192 264q-85 96 -214 226q-131 132 -204 221q-101 121 -149 236q-63 135 -63 284q0 99 61 194t156 154q96 60 197 60q104 0 153 -14q82 -20 154 -87v34q0 53 -14 106q-20 78 -58 163q-51 98 -134 207h615q-131 -195 -178 -370q-29 -93 -29 -140
q72 67 154 87q49 14 154 14q101 0 197 -60q95 -59 156 -154q60 -93 60 -194q0 -149 -63 -284q-48 -115 -149 -236q-73 -89 -204 -221q-129 -130 -214 -226q-118 -138 -192 -264z" />
</svg>