<svg xmlns="http://www.w3.org/2000/svg" xmlns:xlink="http://www.w3.org/1999/xlink" version="1.1" viewBox="-10 0 2068 2048">
   <path fill="currentColor"
d="M1582 766l-414 -408h-452v206h370l202 202h-826q-192 0 -328 136q-134 134 -134 327t134 327t328 134q167 0 294 -108q129 -109 158 -272l216 -130q-6 17 -6 48q0 192 136 328q134 134 326 134t326 -134q136 -136 136 -328t-135 -327t-327 -135h-4zM702 1310
q-29 76 -94 128q-64 50 -152 50q-104 0 -180 -78q-74 -76 -74 -182t74 -180t180 -74q88 0 152 50q65 51 94 128h-294v154zM1586 1488q-106 0 -183 -77t-77 -183q0 -105 78 -180q75 -74 182 -74q106 0 180 74t74 180q0 107 -74 182q-75 78 -180 78z" />
</svg>