<svg xmlns="http://www.w3.org/2000/svg" xmlns:xlink="http://www.w3.org/1999/xlink" version="1.1" viewBox="-10 0 2068 2048">
   <path fill="currentColor"
d="M1094 1998v-28q0 -110 -78 -188t-188 -78t-188 78t-78 188v28h-370q-76 0 -134 -58t-58 -134v-370h28q110 0 188 -78t78 -188t-78 -188t-188 -78h-28v-370q0 -76 58 -134t134 -58h298q17 -126 114 -210q96 -82 224 -82t224 82q97 84 114 210h298q76 0 134 58t58 134v298
q108 17 186 88t96 176q-131 -72 -282 -72h-192v-490h-490v-146q0 -58 -44 -102q-42 -44 -102 -44t-102 44q-44 44 -44 102v146h-490v210q135 52 214 166q80 114 80 260t-80 260q-79 114 -214 166v210h212q52 -136 164 -214q114 -80 260 -80q133 0 242 70v26q0 226 150 390
h-126zM1656 1814l-244 142l70 -274l-216 -182l280 -24l110 -256l108 256l284 24l-214 182l64 274z" />
</svg>