<svg xmlns="http://www.w3.org/2000/svg" xmlns:xlink="http://www.w3.org/1999/xlink" version="1.1" viewBox="-10 0 2058 2048">
   <path fill="currentColor"
d="M1076 999q0 66 -44 111q-45 46 -112 46q-66 0 -112 -46q-48 -47 -48 -114q0 -65 48 -110q46 -45 112 -45t112 45q44 44 44 113zM868 472q0 -65 -46 -111t-114 -46q-65 0 -110 46q-44 47 -44 111t44 111q46 47 110 47q68 0 114 -47q46 -46 46 -111zM1288 733h102v54
q0 64 47 111t111 47h158v5q113 11 210 49v-54q0 -89 -14 -158q-14 -33 -54 -44q-18 -10 -34 -10h-212v-103q0 -63 -54 -94q-23 -10 -50 -10h-210v-108q0 -65 -56 -89q-22 -14 -48 -14h-108v-212q0 -65 -50 -89q-28 -14 -54 -14q-256 0 -472 128q-217 128 -344 344
q-128 217 -128 473q0 255 128 472q128 218 344 345q216 128 472 128h54q-38 -97 -48 -212q-46 0 -80 -5q40 -5 74 -39v-5q0 -96 30 -192q-24 -34 -59.5 -54t-74.5 -20q-67 0 -112 47q-44 45 -44 111q0 83 68 133q-207 -54 -354 -217q-147 -162 -178 -374q-8 -46 -8 -158
q4 60 48 101q46 42 108 42q66 0 112 -44q46 -45 46 -111q0 -67 -46 -113q-48 -47 -112 -47q-53 0 -96 32q-42 31 -56 81q34 -241 206 -418q174 -178 418 -212v153q0 65 46 111q44 46 112 46h50v50q0 68 46 113q46 44 110 44h56zM2020 1629v-423l-122 123
q-124 -123 -296 -123t-295 123t-123 298q0 174 122 297q124 124 296 124q132 0 238 -72q106 -71 150 -189h-176q-39 49 -94 76q-54 27 -118 27q-108 0 -184 -76t-76 -185q0 -108 76 -187t184 -79q110 0 188 79l-188 187h418z" />
</svg>