<svg xmlns="http://www.w3.org/2000/svg" xmlns:xlink="http://www.w3.org/1999/xlink" version="1.1" viewBox="-10 0 2068 2048">
   <path fill="currentColor"
d="M112 0h118v229h-230v-117q0 -42 35 -77t77 -35zM1936 0q42 0 78 35q34 34 34 77v117h-230v-229h118zM1366 229v-229h228v229h-228zM912 229v-229h224v229h-224zM454 229v-229h230v229h-230zM2048 1024q0 43 -34 77q-36 35 -78 35h-118v-224h230v112zM1366 1136v-224h228
v224h-228zM912 1136v-224h224v224h-224zM454 1136v-224h230v224h-230zM112 1136q-42 0 -77 -35t-35 -77v-112h230v224h-118zM0 453h230v230h-230v-230zM2048 453v230h-230v-230h230zM454 1477l570 571l570 -571h-1140z" />
</svg>