<svg xmlns="http://www.w3.org/2000/svg" xmlns:xlink="http://www.w3.org/1999/xlink" version="1.1" viewBox="-10 0 2068 2048">
   <path fill="currentColor"
d="M1094 1947v-27q0 -110 -78 -188t-188 -78t-188 78t-78 188v27h-370q-76 0 -134 -57q-58 -58 -58 -135v-370h28q110 0 188 -78t78 -187q0 -110 -78 -188t-188 -78h-28v-370q0 -77 58 -135q58 -57 134 -57h298q17 -127 114 -210q96 -82 224 -82t224 82q97 83 114 210h298
q76 0 134 57q58 58 58 135v297q126 18 210 115q82 95 82 224v27q-92 -51 -202 -69q-13 -44 -52 -75q-40 -30 -84 -30h-146v-489h-490v-146q0 -59 -44 -103q-42 -43 -102 -43t-102 43q-44 44 -44 103v146h-490v210q135 52 214 165q80 115 80 261q0 145 -80 260
q-79 113 -214 165v210h212q52 -135 164 -213q114 -80 256 -80q141 0 260 78q-14 53 -14 114q0 162 82 293h-58zM1560 1266v292h-294v197h294v293h196v-293h292v-197h-292v-292h-196z" />
</svg>