<svg xmlns="http://www.w3.org/2000/svg" xmlns:xlink="http://www.w3.org/1999/xlink" version="1.1" viewBox="-10 0 2068 2048">
   <path fill="currentColor"
d="M664 358q-64 0 -108 44q-46 44 -46 108t46 110q44 46 110 46q64 0 108 -46q44 -45 44 -110q0 -64 -44 -108t-110 -44zM818 50q140 0 256 68q120 68 188 184q70 121 70 258q0 130 -60 240q-60 111 -162 184q297 28 528 144q194 96 322 28q63 -28 88 -82l-16 96
q-24 120 -56 232q-52 150 -126 268q-93 152 -206 232q-140 96 -312 96h-616l-82 -10q-102 -16 -172 -52q-114 -57 -178 -154q-82 -122 -82 -298q0 -96 44 -194q28 -52 92 -144q66 -92 80 -134q24 -71 -10 -144q-138 0 -234 -54q-77 -48 -126 -124q-29 -59 -44 -126l-4 -52
q76 34 158 38q87 5 150 -24q15 -203 160 -338q148 -138 350 -138z" />
</svg>