<svg xmlns="http://www.w3.org/2000/svg" xmlns:xlink="http://www.w3.org/1999/xlink" version="1.1" viewBox="-10 0 2068 2048">
   <path fill="currentColor"
d="M188 467h278v-279h-278v279zM654 188v279h280v-279h-280zM1116 188v279h278v-279h-278zM1582 188v279h278v-279h-278zM1860 654h-278v279h278v-279zM1860 1116h-278v279h278v-279zM1394 1395v-279h-278v279h278zM934 1395v-279h-280v279h280zM466 1395v-279h-278v279h278
zM188 933h278v-279h-278v279zM1116 654v279h278v-279h-278zM654 654v279h280v-279h-280zM188 0h1672q78 0 134 55q54 54 54 133v1207q0 79 -54 133t-134 54h-556v279h278v187h-466v-466h-182v466h-468v-187h280v-279h-558q-78 0 -132 -54q-56 -55 -56 -133v-1207
q0 -78 55 -133t133 -55z" />
</svg>