<svg xmlns="http://www.w3.org/2000/svg" xmlns:xlink="http://www.w3.org/1999/xlink" version="1.1" viewBox="-10 0 2068 2048">
   <path fill="currentColor"
d="M188 188h1302v186h-1302v-186zM2048 466v418l-766 158q22 60 22 122q0 95 -50 174q-50 78 -138 118v218h278v186h-1114q-114 0 -196 -80q-84 -82 -84 -198v-92h188v92q0 38 26 64q28 28 66 28h96v-210q-127 -44 -204 -150q-76 -106 -76 -242q0 -174 122 -296t296 -122
h232v-188h188v188h926v-188h188zM934 1674v-184h-376v184h376zM606 836q-95 0 -162 54q-68 55 -68 133.5t68 132.5q68 56 162.5 56t163.5 -56q68 -54 68 -132.5t-68 -133.5q-68 -54 -164 -54z" />
</svg>