<svg xmlns="http://www.w3.org/2000/svg" xmlns:xlink="http://www.w3.org/1999/xlink" version="1.1" viewBox="-10 0 2058 2048">
   <path fill="currentColor"
d="M1584 1170q40 0 100 9v-301q0 -78 -57 -135t-139 -57h-96v-197q0 -130 -66 -244q-67 -114 -178 -179q-113 -66 -244 -66q-133 0 -246 66q-111 65 -178 179q-66 113 -66 244v197h-96q-82 0 -139 57t-57 135v978q0 78 57 135t139 57h764q-82 -131 -82 -290q0 -157 80 -293
t214 -215q135 -80 290 -80zM610 489q0 -123 86 -208q84 -84 208 -84t208 84t84 208v197h-586v-197zM904 1563q-84 0 -141 -57t-57 -139q0 -83 57 -140t141 -57q82 0 139 57t57 140q0 82 -57 139t-139 57zM1926 1586l-460 462l-270 -293l114 -109l156 155l346 -352z" />
</svg>