<svg xmlns="http://www.w3.org/2000/svg" xmlns:xlink="http://www.w3.org/1999/xlink" version="1.1" viewBox="-10 0 2068 2048">
   <path fill="currentColor"
d="M1433 841h-154q-76 -9 -132 -67q-55 -56 -55 -137q0 -80 55 -132q55 -53 132 -48v-149q-139 0 -240 101q-100 100 -100 243q0 142 100 242q101 101 240 101h154q86 -4 149 55q61 59 57 147v134h154v-168q-5 -145 -110 -238t-250 -84zM1721 587q78 -74 99 -176
q21 -105 -17 -199q-40 -98 -125 -154q-87 -57 -192 -57v153q76 0 132 56q55 55 55 132q0 78 -55 134q-57 58 -132 58v154q174 0 293 122q119 123 115 291v230h154v-230q0 -163 -87 -303q-87 -139 -235 -211h-5zM1639 1432v615h154v-615h-154zM1894 1432v615h154v-615h-154z
M1025 1432v130q46 27 74 77q27 48 27 103t-27 103q-28 49 -74 72v130h514v-615h-514zM89 1523q-62 67 -82 159q-19 90 17 178q35 84 113 136q76 51 173 51h509v-130q-48 -24 -75 -72q-26 -46 -26 -103t26 -103q27 -49 75 -77v-130h-509q-130 0 -221 91zM1025 1739
q0 33 -17 61q-16 26 -45 38t-60 5q-32 -7 -53.5 -28.5t-28.5 -53.5q-7 -31 5 -60q13 -31 38 -46q26 -16 60 -16q44 0 72 28q29 29 29 72z" />
</svg>