<svg xmlns="http://www.w3.org/2000/svg" xmlns:xlink="http://www.w3.org/1999/xlink" version="1.1" viewBox="-10 0 2068 2048">
   <path fill="currentColor"
d="M1756 0h-1756v585h1756v-585zM1560 388h-1368v-196h1368v196zM1362 681q-186 0 -346 96h-384q-19 0 -32 16q-14 17 -14 34v146h220q-124 175 -124 389q0 92 28 196h-416v-877h-198v1074h710q97 134 242 213q146 80 314 80q187 0 346 -92q157 -92 248 -249
q92 -157 92 -343t-92 -343q-91 -157 -248 -249q-157 -91 -346 -91zM1362 1851q-131 0 -244 -66q-110 -65 -176 -179q-64 -112 -64 -244q0 -133 64 -245q65 -112 176 -176q112 -64 244 -64q134 0 246 64q112 65 178 176q66 113 66 245t-66 244q-67 114 -178 179
q-113 66 -246 66zM1412 1389l280 165l-74 119l-352 -211v-489h146v416z" />
</svg>