<svg xmlns="http://www.w3.org/2000/svg" xmlns:xlink="http://www.w3.org/1999/xlink" version="1.1" viewBox="-10 0 2068 2048">
   <path fill="currentColor"
d="M1818 0q96 0 164 67q66 66 66 162v683h-230v224h-224v229h-228v230h-230v224h-224v229h-682q-96 0 -163 -67t-67 -162v-1590q0 -95 67 -162t163 -67h1588zM2048 1365v454q0 96 -66 162q-68 67 -164 67h-452v-229h228v-224h224v-230h230zM1818 624q0 -21 -16 -37t-36 -16
h-1482q-22 0 -38 16t-16 37v800q0 21 16 37t38 16h628v-112h224v-229h230v-224h228v-229h224v-59z" />
</svg>