<svg xmlns="http://www.w3.org/2000/svg" xmlns:xlink="http://www.w3.org/1999/xlink" version="1.1" viewBox="-10 0 2068 2048">
   <path fill="currentColor"
d="M1024 188q-343 0 -622 194q-280 193 -402 502q123 311 402 504q279 194 622 194q62 0 100 -4q-8 -48 -8 -88q0 -80 22 -156q-62 18 -114 18q-124 0 -232 -64q-107 -64 -170 -170q-64 -107 -64 -233.5t64 -232.5q63 -107 170 -170q106 -64 232.5 -64t233.5 64
q106 63 170 170q62 106 62 232q0 40 -8 84q92 -36 192 -36q168 0 308 92q41 -75 66 -140q-122 -310 -400 -502q-280 -194 -624 -194zM1024 606q-116 0 -197 81t-81 197q0 118 80 200q80 80 198 80t198 -80q82 -82 82 -200q0 -116 -81 -197t-199 -81zM1582 1116v278h-278v188
h278v278h188v-278h278v-188h-278v-278h-188z" />
</svg>