<svg xmlns="http://www.w3.org/2000/svg" xmlns:xlink="http://www.w3.org/1999/xlink" version="1.1" viewBox="-10 0 2058 2048">
   <path fill="currentColor"
d="M1589 1432v207q0 44 -31 72q-32 29 -75 29h-409q-43 0 -72 -29t-29 -72v-207q-115 -82 -168 -207q-52 -125 -36 -262q17 -136 101 -248q84 -110 209 -163q128 -54 260 -39q135 15 247 99q114 85 166 209q53 125 36 262q-16 139 -98 248q-48 57 -101 101zM1483 1846h-409
v101q0 43 29 72t72 29h207q43 0 72 -29t29 -72v-101zM627 1331h-67v101q0 44 28.5 75t76.5 31h101v-14q-82 -82 -139 -193zM1238 306q-55 -128 -169 -209q-110 -79 -245 -94q-133 -15 -262 41q-128 56 -207 166q-79 111 -96 245q-16 137 38 263q56 128 162 204v202
q0 44 28.5 75t72.5 31h28q-32 -105 -28 -207q0 -188 89 -349t245 -260t344 -108z" />
</svg>