<svg xmlns="http://www.w3.org/2000/svg" xmlns:xlink="http://www.w3.org/1999/xlink" version="1.1" viewBox="-10 0 2058 2048">
   <path fill="currentColor"
d="M1772 1433v-154q0 -106 -88 -181q-85 -74 -196 -74q-112 0 -200 74q-88 75 -88 181v154q-50 0 -88 38t-38 87v360q0 53 38 91q40 39 88 39h562q53 0 94 -36q40 -36 40 -84v-361q0 -53 -38 -94q-39 -40 -86 -40zM1642 1433h-308v-154q0 -58 44 -94q43 -36 108 -36
q64 0 110 36q46 37 46 94v154zM896 2048h-604q-59 0 -100 -39q-40 -39 -40 -96v-1572q0 -57 41 -98t99 -41h168v-202h614v202h174q56 0 96 41q38 41 38 98v491q-164 33 -276 161q-114 128 -114 286v24q-53 49 -86 115q-34 70 -34 140v360q0 67 24 130z" />
</svg>