<svg xmlns="http://www.w3.org/2000/svg" xmlns:xlink="http://www.w3.org/1999/xlink" version="1.1" viewBox="-10 0 2058 2048">
   <path fill="currentColor"
d="M978 1861q-175 -44 -325 -185q-149 -140 -237 -336q-87 -194 -87 -390v-457l649 -288l649 288v540q91 13 178 57q9 -57 9 -157v-558l-836 -375l-836 375v558q0 255 109 486q110 234 298 401q187 166 429 228q45 -10 91 -30q-68 -85 -91 -157zM1535 1255q161 0 262 114
l109 -114v375h-371l166 -170q-77 -65 -166 -65q-96 0 -163 67t-67 166q0 98 67 165q68 68 163 68q110 0 188 -92h157q-43 104 -136 168q-92 63 -209 63q-153 0 -261 -108q-109 -109 -109 -264t109 -264t261 -109z" />
</svg>