<svg xmlns="http://www.w3.org/2000/svg" xmlns:xlink="http://www.w3.org/1999/xlink" version="1.1" viewBox="-10 0 2068 2048">
   <path fill="currentColor"
d="M1024 257q-343 0 -622 194q-280 194 -402 503q123 311 402 504q279 194 622 194q62 0 100 -5q-8 -48 -8 -91q0 -44 8 -96q-58 4 -100 4q-262 0 -482 -137q-225 -140 -336 -373q110 -232 336 -372q220 -137 482.5 -137t483.5 137q225 140 336 372l-36 66q99 23 174 74
q41 -76 66 -140q-122 -310 -400 -503q-280 -194 -624 -194zM1024 675q-116 0 -197 81t-81 198q0 118 80 199q80 80 198 80t198 -80q82 -81 82 -199q0 -117 -81 -198t-199 -81zM1582 1233v188h370v183h-370v187l-278 -279z" />
</svg>