<svg xmlns="http://www.w3.org/2000/svg" xmlns:xlink="http://www.w3.org/1999/xlink" version="1.1" viewBox="-10 0 2068 2048">
   <path fill="currentColor"
d="M196 0q-82 0 -139 57t-57 140v196h196v-196h198v-197h-198zM586 0v197h292v-197h-292zM1074 0v197h196v196h192v-196q0 -83 -57 -140t-135 -57h-196zM0 585v293h196v-293h-196zM1270 585v686h-684v585q0 78 57 135t139 57h1074q78 0 135 -57t57 -135v-1074
q0 -83 -57 -140t-135 -57h-586zM1462 782h394v1074h-1074v-393h488q78 0 135 -57t57 -135v-489zM0 1074v197q0 78 57 135t139 57h198v-192h-198v-197h-196z" />
</svg>