<svg xmlns="http://www.w3.org/2000/svg" xmlns:xlink="http://www.w3.org/1999/xlink" version="1.1" viewBox="-10 0 2068 2048">
   <path fill="currentColor"
d="M0 222l128 -124l1728 1728l-124 124l-292 -294h-1148q-76 0 -134 -56q-58 -58 -58 -136v-978q0 -65 42 -122zM1756 780v-192h-192v192h192zM1756 1072v-192h-192v192h192zM1462 780v-192h-192v192h192zM1462 1072v-192h-192v114l-214 -214h114v-192h-192v114l-410 -408
h1288q78 0 135 57t57 135v978q0 60 -34 110q-35 51 -90 74l-576 -576h114zM686 1268v196h558l-198 -196h-360zM394 780h168l-168 -170v170zM586 1072v-192h-192v192h192zM686 1072h168l-168 -170v170z" />
</svg>