<svg xmlns="http://www.w3.org/2000/svg" xmlns:xlink="http://www.w3.org/1999/xlink" version="1.1" viewBox="-10 0 2068 2048">
   <path fill="currentColor"
d="M616 1125q-147 0 -253.5 86t-146.5 222h-216v206h216q39 135 146 221q108 87 250 87t254 -87q111 -87 144 -221h1038v-206h-1038q-34 -135 -144 -222q-110 -86 -250 -86zM616 1740q-88 0 -148 -60t-60 -144t60 -144t144 -60t144 60q62 61 62 144t-62 144q-60 60 -140 60z
M1830 409q-39 -136 -145.5 -222t-250.5 -86q-142 0 -252 86q-110 87 -144 222h-1038v206h1038q33 134 144 221t252 87q143 0 250 -87q108 -86 146 -221h218v-206h-218zM1432 716q-82 0 -142 -60t-60 -144t60 -144t144 -60t144 60t60 144t-60 144t-146 60z" />
</svg>