<svg xmlns="http://www.w3.org/2000/svg" xmlns:xlink="http://www.w3.org/1999/xlink" version="1.1" viewBox="-10 0 2068 2048">
   <path fill="currentColor"
d="M1534 1180h206v306h308v202h-308v308h-206v-308h-306v-202h306v-306zM0 52h1842v206q-88 0 -148 60q-58 60 -58 142v514q-163 0 -306 82q-140 80 -224 222t-84 310q0 167 80 306h-694q-82 0 -142 -60t-60 -146v-1228q0 -82 -60 -142t-146 -60v-206zM408 666v102h306v-102
h-306zM408 872v102h306v-102h-306zM714 1382v-102h-306v102h306zM920 1180v-106h-512v106h512zM920 566v-106h-512v106h512z" />
</svg>