<svg xmlns="http://www.w3.org/2000/svg" xmlns:xlink="http://www.w3.org/1999/xlink" version="1.1" viewBox="-10 0 2058 2048">
   <path fill="currentColor"
d="M1565 1109q-90 145 -234 230q-143 85 -310 85q-175 0 -325 -96q-147 -94 -237 -259q-88 -161 -88 -357t88 -357q90 -165 237 -259q150 -96 325 -96q165 0 310 83q144 83 234 226v-309h112v1392q0 294 -117 448q-90 128 -277 176q-125 32 -347 32q-202 0 -336 -128
q-123 -122 -160 -325h118q32 154 122 245q96 96 256 96h11q182 0 272 -21q154 -37 239 -139q107 -134 107 -384v-283zM1021 112q-142 0 -269 80q-123 78 -197 219q-72 138 -72 301q0 162 72 299t197 216q127 80 272 80t269 -80q121 -78 197 -216q75 -136 75 -299t-75 -301
q-77 -141 -197 -219q-124 -80 -272 -80z" />
</svg>