<svg xmlns="http://www.w3.org/2000/svg" xmlns:xlink="http://www.w3.org/1999/xlink" version="1.1" viewBox="-10 0 2058 2048">
   <path fill="currentColor"
d="M1602 950v-217h212v231q-87 -19 -158 -19q-32 0 -54 5zM712 841q-24 0 -39 15t-15 35v157h630v-157q0 -20 -15 -35t-41 -15h-520zM342 1678v-945h-212v1157h896q-38 -91 -48 -212h-636zM1916 630h-1888v-630h1888v630zM1706 211h-1466v207h1466v-207zM2020 1629v-423
l-122 123q-124 -123 -296 -123t-295 123t-123 298q0 174 122 297q124 124 296 124q132 0 238 -72q106 -71 150 -189h-176q-39 49 -94 76q-54 27 -118 27q-108 0 -184 -76t-76 -185q0 -108 76 -187t184 -79q110 0 188 79l-188 187h418z" />
</svg>