<svg xmlns="http://www.w3.org/2000/svg" xmlns:xlink="http://www.w3.org/1999/xlink" version="1.1" viewBox="-10 0 2068 2048">
   <path fill="currentColor"
d="M129 272h-102v-208h1861v208h-102l-145 723q-121 15 -223 63l155 -786h-1231l49 228l-194 112zM1045 481q-20 -39 -61 -51t-80 12l-848 490q-39 24 -51 65q-13 42 10 78q23 37 63 46q41 9 80 -10l853 -489q33 -23 46 -66q12 -40 -12 -75zM1059 1616h-450l-92 -471
l-189 112l111 567h659q-39 -102 -39 -208zM1903 1252l-223 218l-218 -218l-146 145l218 219l-218 223l146 145l218 -223l223 223l145 -145l-223 -223l223 -219z" />
</svg>