<svg xmlns="http://www.w3.org/2000/svg" xmlns:xlink="http://www.w3.org/1999/xlink" version="1.1" viewBox="-10 0 2068 2048">
   <path fill="currentColor"
d="M0 343v1362h1170v-192h-196q-82 0 -139 -57t-57 -139v-585q0 -83 57 -140t139 -57h196v-192h-1170zM1170 535v197h192v-197h-192zM1170 732h-196v585h196v-585zM1170 1317v196h192v-196h-192zM294 535h192q82 0 139 57t57 140v585q0 82 -57 139t-139 57h-192
q-82 0 -140 -57q-58 -58 -58 -139v-585q0 -82 58 -140q58 -57 140 -57zM1464 535v978h192v-393h100v101h96v292h196v-292h-100v-197h100v-388h-100v-101h-484zM294 732v585h192v-585h-192zM1656 732h196v196h-196v-196z" />
</svg>