<svg xmlns="http://www.w3.org/2000/svg" xmlns:xlink="http://www.w3.org/1999/xlink" version="1.1" viewBox="-10 0 2068 2048">
   <path fill="currentColor"
d="M1846 1639h-1644v-1024h1644v1024zM1846 409h-822l-206 -207h-616q-82 0 -142 60t-60 147v1230q0 87 60 147t142 60h1644q82 0 142 -60t60 -147v-1024q0 -86 -60 -146t-142 -60zM1740 1024v-101h-154l52 -207h-100l-54 207h-206l54 -207h-102l-52 207h-154v101h130
l-54 207h-178v101h154l-52 206h100l54 -206h206l-52 206h100l52 -206h154v-101h-130l54 -207h178zM1408 1231h-206l52 -207h206z" />
</svg>