<svg xmlns="http://www.w3.org/2000/svg" xmlns:xlink="http://www.w3.org/1999/xlink" version="1.1" viewBox="-10 0 2068 2048">
   <path fill="currentColor"
d="M188 467h1672v-188h-1672q-78 0 -133 55t-55 133v1115q0 78 56 133q54 54 132 54h370v-187h-370v-1115zM1116 1024h-370v166q-92 82 -92 205q0 122 92 209v165h370v-165q96 -87 96 -209t-96 -205v-166zM934 1534q-62 0 -101 -39t-39 -98q0 -58 39 -100t97 -42t100 42
t42 100q0 59 -42 98t-96 39zM1952 654h-558q-34 0 -62 28t-28 63v929q0 36 28 65q28 30 62 30h558q36 0 66 -30t30 -65v-929q0 -35 -30 -63t-66 -28zM1860 1582h-370v-745h370v745z" />
</svg>