<svg xmlns="http://www.w3.org/2000/svg" xmlns:xlink="http://www.w3.org/1999/xlink" version="1.1" viewBox="-10 0 2066 2048">
   <path fill="currentColor"
d="M36 1292q92 -32 192 -32q207 0 360 128l-322 322q-162 -181 -230 -418zM1388 798q304 227 654 112q4 38 4 114q0 154 -72 350q-73 198 -178 318l-648 -648zM694 1500q162 234 66 512q-226 -63 -384 -196zM1044 1148l646 648q-336 293 -780 246q32 -101 32 -222
q0 -96 -42 -222q-44 -128 -102 -210zM698 1278q-140 -125 -328 -160q-188 -36 -362 22q-6 -49 -6 -116q0 -154 72 -350q71 -194 178 -316l682 686zM1388 588q-206 -257 -96 -552q101 23 220 94q118 69 198 136zM2012 756q-94 34 -192 34q-167 0 -320 -102l316 -312
q133 167 196 380zM1044 934l-686 -682q336 -293 782 -246q-34 104 -34 216q0 115 52 258q53 141 120 218z" />
</svg>