<svg xmlns="http://www.w3.org/2000/svg" xmlns:xlink="http://www.w3.org/1999/xlink" version="1.1" viewBox="-10 0 2058 2048">
   <path fill="currentColor"
d="M1836 365v1313q0 74 -38 125q-39 53 -106 72l-591 168l-24 5h-24q-31 0 -63 -10q-28 -9 -57 -24l-385 -216q-18 -8 -31 -31q-12 -21 -12 -46q0 -33 27 -60q26 -26 60 -26h499v-1212l-374 135q-44 15 -72 55q-29 41 -29 89v687q0 43 -20 80q-20 36 -57 55l-178 96
q-24 15 -48 15q-43 0 -72 -29t-29 -72v-976q0 -55 26 -101q27 -49 75 -77l629 -356q23 -14 48 -19q27 -5 46 -5h36l29 10l591 163q32 9 60 26q25 16 46 44q21 29 29 57q9 32 9 65zM1702 1678v-1313q0 -25 -15 -41q-15 -17 -33 -21l-423 -120v1682l423 -125q18 -4 33 -21
q15 -16 15 -41z" />
</svg>