<svg xmlns="http://www.w3.org/2000/svg" xmlns:xlink="http://www.w3.org/1999/xlink" version="1.1" viewBox="-10 0 2058 2048">
   <path fill="currentColor"
d="M1813 596q0 -88 -62 -150t-150 -62q-33 0 -44 4v-48q0 -88 -62 -150t-150 -62q-30 0 -60 8q-24 -61 -78 -98q-55 -38 -118 -38q-79 0 -138 50q-57 48 -74 126q-11 -4 -44 -4q-87 0 -152 62q-64 61 -64 150v504q-44 -44 -104 -56l-64 -20q-55 -16 -106 4q-50 20 -82 68
q-24 37 -26 80q-2 46 14 84l220 552q79 199 260 324q179 124 400 124q187 0 344 -92q156 -92 248 -248q92 -157 92 -344v-768zM1641 1364q0 139 -68 258q-67 118 -186 186t-258 68q-163 0 -302 -92q-137 -91 -202 -248l-220 -560l44 12q65 17 84 80l84 212h172v-896
q0 -16 12 -30q13 -14 30.5 -14t29.5 14t12 30v640h172v-812q0 -16 12 -28t30 -12t30 12t12 28v812h172v-684q0 -16 12 -28t30 -12t30 12t12 28v684h172v-428q0 -16 12 -28t30 -12t30 12t12 28v768z" />
</svg>