<svg xmlns="http://www.w3.org/2000/svg" xmlns:xlink="http://www.w3.org/1999/xlink" version="1.1" viewBox="-10 0 2068 2048">
   <path fill="currentColor"
d="M408 461q0 -173 120 -293t291 -120t291 120t120 291t-120 291t-291 120t-291 -120t-120 -289zM1024 1505q0 -71 34 -137q32 -64 90 -113v-145q-158 -33 -330 -33q-224 0 -409.5 55t-298.5 149q-110 92 -110 204v207h1024v-187zM2048 1514v361q0 47 -39 86t-91 39h-568
q-47 0 -84 -41q-36 -41 -36 -94v-360q0 -44 38 -82q40 -39 82 -39v-259q0 -106 90 -181q87 -74 198 -74q113 0 200 74q88 75 88 181v53h-134v-53q0 -57 -46 -94q-44 -36 -107 -36t-109 36q-46 37 -46 94v259h442q50 0 86 39t36 91z" />
</svg>