<svg xmlns="http://www.w3.org/2000/svg" xmlns:xlink="http://www.w3.org/1999/xlink" version="1.1" viewBox="-10 0 2058 2048">
   <path fill="currentColor"
d="M1671 594q-25 -34 -64 -43q-41 -9 -77 15t-43 64q-8 41 12 80q39 52 36 117q-4 67 -41 118q-40 53 -103 72q-62 19 -127 -3q-62 -20 -101 -74q-38 -51 -38 -120v-221q107 -40 163 -134q57 -96 38 -206q-20 -111 -105 -185q-86 -74 -197 -74t-196 74q-87 75 -106 185
q-19 108 39 206q55 94 163 134v221q0 68 -39 120q-41 54 -100 74q-66 22 -127 3q-66 -20 -104 -72q-37 -50 -40 -118q-3 -65 36 -117q19 -39 12 -80q-8 -40 -44 -64t-76.5 -15t-64.5 43q-82 120 -69 262q12 142 110 244q99 104 240 125q142 21 266 -50v671q-87 0 -147 60
t-60 142h614q0 -82 -60 -142t-146 -60v-671q123 71 266 50q140 -21 240 -125q97 -102 110 -244q11 -141 -70 -262zM1024 206q28 0 55 19q27 20 39 46q11 26 7 57q-5 32 -26.5 53t-52.5 29q-31 7 -60 -5q-31 -13 -46 -38q-16 -26 -16 -56q0 -43 28 -74t72 -31z" />
</svg>