<svg xmlns="http://www.w3.org/2000/svg" xmlns:xlink="http://www.w3.org/1999/xlink" version="1.1" viewBox="-10 0 2058 2048">
   <path fill="currentColor"
d="M918 1725q-190 0 -354 -41q-131 -36 -217 -96q-76 -45 -76 -76v-243q273 132 647 132l111 -5q-5 -17 -5 -46q0 -88 25 -172q-42 11 -131 11q-193 0 -369 -46q-172 -45 -278 -121v-304q120 65 291 106q172 41 356 41t356 -41q171 -41 291 -106v41q22 -5 55 -5q78 0 162 25
v-349q0 -116 -116 -215q-116 -98 -316 -157q-198 -58 -432 -58t-432 58q-202 59 -316 157q-116 98 -116 215v1082q0 117 116 215q114 98 316 157q198 58 432 58q161 0 323 -30q-62 -90 -116 -203q-114 16 -207 16zM918 218q194 0 354 40q131 36 217 96q76 45 76 79
q0 33 -76 78q-85 55 -217 91q-162 45 -354 45t-354 -45q-132 -36 -217 -91q-76 -45 -76 -78q0 -34 76 -79q86 -60 217 -96q160 -40 354 -40zM1620 971q-156 0 -267 111q-112 112 -112 268q0 122 96 304q67 126 182 278l101 116l96 -116q115 -152 182 -278q96 -182 96 -304
q0 -157 -111 -268t-263 -111zM1620 1487q-55 0 -93 -38t-38 -91q0 -54 40 -91q41 -38 89 -38t88 40q42 42 46 89q4 48 -36 88q-41 41 -96 41z" />
</svg>