<svg xmlns="http://www.w3.org/2000/svg" xmlns:xlink="http://www.w3.org/1999/xlink" version="1.1" viewBox="-10 0 2068 2048">
   <path fill="currentColor"
d="M1406 643q100 105 134.5 243t-0.5 276q-34 137 -137.5 241t-240.5 138q-138 35 -276 0q-136 -34 -240 -138t-138 -241q-35 -138 0 -276q34 -137 138 -241t240 -138q138 -35 275.5 -0.5t244.5 136.5zM1822 226q-30 10 -66 15q-81 26 -150 70q-26 -181 -160 -311
q-96 89 -122 211q-25 105 0 206q117 30 196.5 110t109.5 196q101 26 206 0q124 -26 212 -120q-132 -131 -306 -161q69 -103 80 -216zM226 1822q30 -10 66 -15q79 -25 150 -70q25 180 160 311q94 -88 120 -211q26 -105 0 -205q-113 -29 -194 -111q-82 -81 -112 -196
q-100 -25 -204 0q-122 26 -212 121q132 131 306 161q-69 103 -80 215z" />
</svg>