<svg xmlns="http://www.w3.org/2000/svg" xmlns:xlink="http://www.w3.org/1999/xlink" version="1.1" viewBox="-10 0 2068 2048">
   <path fill="currentColor"
d="M2004 1336l-200 196l200 200l-130 131l-200 -201l-196 201l-132 -131l196 -200l-196 -196l132 -131l196 196l200 -196zM1024 603q-116 0 -197 81t-81 198q0 118 80 199q80 80 198 80t198 -80q82 -81 82 -199q0 -117 -81 -198t-199 -81zM1024 1392q-262 0 -482 -137
q-225 -140 -336 -373q110 -232 336 -372q220 -137 482.5 -137t483.5 137q225 140 336 372q-23 47 -62 105q103 18 178 65q48 -77 88 -170q-122 -310 -400 -503q-280 -194 -623.5 -194t-622.5 194q-280 194 -402 503q123 311 402 504q279 194 622 194q63 0 96 -5
q-4 -15 -4 -43q0 -73 22 -149q-66 9 -114 9z" />
</svg>