<svg xmlns="http://www.w3.org/2000/svg" xmlns:xlink="http://www.w3.org/1999/xlink" version="1.1" viewBox="-10 0 2068 2048">
   <path fill="currentColor"
d="M1466 880q-158 0 -294 77q-134 76 -214 211q-78 134 -78 293q0 160 78 294q80 135 214 214q135 79 293.5 79t292.5 -79q137 -80 212 -214q78 -136 78 -294q0 -157 -78 -293q-75 -134 -212 -211q-135 -77 -292 -77zM1638 1750h-494l268 -418h-254l110 -183h490l-258 418
h258zM1466 197v-197q-399 0 -740 197q-331 196 -528 529q-198 343 -198 740h198q0 -348 170 -637t462 -461q290 -171 636 -171zM1466 586v-197q-291 0 -540 145t-392 391q-144 247 -144 541h196q0 -238 118 -442q117 -201 320 -320q201 -118 442 -118z" />
</svg>