<svg xmlns="http://www.w3.org/2000/svg" xmlns:xlink="http://www.w3.org/1999/xlink" version="1.1" viewBox="-10 0 2058 2048">
   <path fill="currentColor"
d="M1846 308q-49 0 -78 31q-28 32 -28 79v1015q0 48 28 77q29 28 74 33q46 5 75 -29t29 -81v-1015q0 -47 -28 -79q-29 -31 -72 -31zM1476 0h-1212q-65 0 -114 46q-48 45 -48 117v1414q0 73 48 118t114 45h144v207q0 48 30 75q27 26 72 26h614q50 0 78 -26q28 -27 28 -75
v-207h246q66 0 114 -45t48 -118v-1414q0 -72 -48 -117q-49 -46 -114 -46zM308 615h308v202h-308v-202zM1024 923v202h-308v-202h308zM716 817v-202h308v202h-308zM1024 1231v202h-308v-202h308zM308 923h308v202h-308v-202zM308 1433v-202h308v202h-308zM616 1947h-106v-207
h106v207zM1124 1947h-306v-207h306v207zM1432 1433h-308v-202h308v202zM1432 1125h-308v-202h308v202zM1432 817h-308v-202h308v202zM1432 409h-1124v-207h1124v207z" />
</svg>