<svg xmlns="http://www.w3.org/2000/svg" xmlns:xlink="http://www.w3.org/1999/xlink" version="1.1" viewBox="-10 0 2058 2048">
   <path fill="currentColor"
d="M1422 1692l616 164l-38 192l-966 -255l-966 255l-48 -192l614 -164l-624 -163l48 -197l966 254l962 -254l52 197zM1648 615q0 132 -55 246.5t-151 205.5v265h-202v-207h-106v207h-202v-207h-104v207h-202v-265q-98 -93 -152 -206q-56 -114 -56 -246q0 -166 82 -310
q81 -142 224 -223q144 -82 309.5 -82t310.5 82q142 81 222 223q82 144 82 310zM932 562q0 -63 -48 -108t-108 -45t-105 45t-45 108q0 64 45 109t105 45t108 -45t48 -109zM1134 923l-100 -207l-102 207h202zM1442 562q0 -62 -46 -108q-44 -45 -106 -45q-60 0 -108 45t-48 108
q0 64 48 109t108 45q62 0 106 -45q46 -46 46 -109z" />
</svg>