<svg xmlns="http://www.w3.org/2000/svg" xmlns:xlink="http://www.w3.org/1999/xlink" version="1.1" viewBox="-10 0 2068 2048">
   <path fill="currentColor"
d="M240 803q-32 0 -50.5 23t-14.5 55l41 257q8 45 41 74q33 28 69 28h261q45 0 84 -30q40 -30 47 -72l94 -278q5 -20 -8 -38q-12 -19 -41 -19h-523zM587 1416h-261q-106 0 -188 -74q-82 -75 -94 -175l-41 -262q-16 -114 56 -194q72 -79 181 -79h523q113 0 179 81
q19 23 25 45q57 -12 114 0q7 -22 25 -45q66 -81 179 -81h523q110 0 181.5 79t54.5 190l-40 270q-11 101 -95.5 173t-186.5 72h-261q-100 0 -190 -70q-87 -68 -112 -167l-78 -237q-23 -16 -56.5 -16t-57.5 16l-78 245q-23 94 -112 161q-89 68 -190 68zM1285 803
q-28 0 -40.5 19t-8.5 43l90 265q12 45 51 78q38 32 84 32h261q37 0 69.5 -28t36.5 -70l45 -265q5 -28 -13.5 -51t-51.5 -23h-523z" />
</svg>