<svg xmlns="http://www.w3.org/2000/svg" xmlns:xlink="http://www.w3.org/1999/xlink" version="1.1" viewBox="-10 0 2058 2048">
   <path fill="currentColor"
d="M1596 1277l-146 146l132 137h-166q-82 0 -143 -61t-61 -149v-1038q0 -133 -92 -222q-94 -90 -220 -90q-117 0 -210 82q-86 -82 -206 -82q-122 0 -208 82q-93 -82 -210 -82v209q46 0 74 29q28 31 28 74v1038h210v-1038q0 -43 30 -74q27 -29 72.5 -29t75.5 29q32 30 32 74
v1038h204v-1038q0 -44 32 -74q31 -29 76 -29t72 29q30 32 30 74v1038q0 176 122 298t292 122h166l-132 131l146 147l386 -386z" />
</svg>