<svg xmlns="http://www.w3.org/2000/svg" xmlns:xlink="http://www.w3.org/1999/xlink" version="1.1" viewBox="-10 0 2068 2048">
   <path fill="currentColor"
d="M108 271v-218q351 0 648 175q296 174 470 473q176 300 176 647h-214q0 -215 -82 -412q-86 -202 -235.5 -352t-348.5 -232q-197 -81 -414 -81zM108 701v-213q172 0 330.5 66t279.5 187q122 121 188 278t66 329h-218q0 -172 -86 -321q-85 -149 -234 -238q-148 -88 -326 -88
zM108 918q180 0 308 127q126 126 126 303h-434v-430zM0 1565h1724v-217l324 324l-324 323v-212h-1724v-218z" />
</svg>