<svg xmlns="http://www.w3.org/2000/svg" xmlns:xlink="http://www.w3.org/1999/xlink" version="1.1" viewBox="-10 0 2068 2048">
   <path fill="currentColor"
d="M974 1513q0 63 18 146h-800q-76 0 -134 -57q-58 -58 -58 -140v-1170q0 -81 58 -139q58 -57 134 -57h586l196 196h782q78 0 135 57t57 140v489q-86 -55 -192 -82v-407h-1564v973h786q-4 16 -4 51zM2048 1513q0 184 -128 311q-128 128 -311 128t-311 -128t-128 -311
t128 -311t311 -128t311 128q128 127 128 311zM1756 1764l-398 -398q-42 67 -42 147q0 117 86 205q84 87 208 87q80 0 146 -41zM1902 1513q0 -124 -88 -208q-88 -85 -204 -85q-81 0 -146 41l396 398q42 -65 42 -146z" />
</svg>