<svg xmlns="http://www.w3.org/2000/svg" xmlns:xlink="http://www.w3.org/1999/xlink" version="1.1" viewBox="-10 0 2058 2048">
   <path fill="currentColor"
d="M1394 745q155 0 275 40q97 30 165 91q54 49 83 109q20 42 30 92l5 39v187h-558v-187l-4 -44q-5 -59 -26 -113q-25 -76 -74 -139q-30 -34 -57 -61q86 -14 161 -14zM96 1116q0 -14 5 -39q10 -50 30 -92q29 -60 83 -109q68 -61 165 -91q120 -40 275 -40t270 40q99 30 165 91
q54 49 83 109q26 49 35 92l4 39v187h-1115v-187zM745 1491v183h558v-183l278 278l-278 279v-187h-558v187l-279 -279zM654 0q-117 0 -198 83t-81 198q0 116 81 197q80 80 196 80q117 0 198 -80q83 -81 83 -197q0 -115 -83 -198t-196 -83zM1394 0q-113 0 -196 83t-83 198
q0 116 83 197q81 80 198 80q116 0 196 -80q81 -81 81 -197q0 -115 -81 -198t-198 -83z" />
</svg>