<svg xmlns="http://www.w3.org/2000/svg" xmlns:xlink="http://www.w3.org/1999/xlink" version="1.1" viewBox="-10 0 2068 2048">
   <path fill="currentColor"
d="M1396 218q0 -79 59 -138t143 -59t144 59q58 58 58 140q0 83 -58 141t-143 58t-143 -58q-60 -59 -60 -143zM1800 2017v-599h248l-248 -760q-23 -59 -76 -100q-50 -40 -116 -40h-10q-66 0 -116 40q-53 41 -76 100l-88 263q83 42 132 124q50 82 50 185v797h300v-10z
M1050 968q57 0 104 -45q46 -45 46 -103t-47 -105t-105 -47t-104 47q-44 45 -44 105q0 59 44 103q46 45 106 45zM348 419q84 0 142 -58t58 -141q0 -82 -58 -140q-58 -59 -140 -59t-141 59t-59 140q0 82 60 141q58 58 138 58zM548 2017v-698h150v-600q0 -85 -58 -143t-142 -58
h-300q-80 0 -138 58q-60 59 -60 143v600h150v698h398zM1200 2017v-398h98v-398q0 -61 -44 -106q-44 -44 -106 -44h-200q-58 0 -104 44q-46 45 -46 106v398h102v398h300z" />
</svg>