<svg xmlns="http://www.w3.org/2000/svg" xmlns:xlink="http://www.w3.org/1999/xlink" version="1.1" viewBox="-10 0 2068 2048">
   <path fill="currentColor"
d="M1402 1564h-1184v-1082h1184l384 542zM1578 362q-32 -48 -76 -70t-100 -22h-1184q-90 0 -154 64t-64 148v1082q0 86 64 150t154 64h1184q54 0 100 -24q45 -22 76 -68l470 -662zM1164 594l130 126l-732 734l-132 -126zM588 594q64 0 110 46q46 44 46 108t-46 108
q-46 46 -108 46t-108 -46t-46 -108t46 -108t106 -46zM1138 1144q64 0 108 46q44 45 44 110q0 63 -44 108q-44 46 -106 46t-108 -46t-46 -108q0 -64 46 -110t106 -46z" />
</svg>