<svg xmlns="http://www.w3.org/2000/svg" xmlns:xlink="http://www.w3.org/1999/xlink" version="1.1" viewBox="-10 0 2068 2048">
   <path fill="currentColor"
d="M1366 488q100 0 171 71t71 173q0 100 -71 171t-171 71t-171 -71t-71 -171q0 -102 71 -173t171 -71zM1366 50q188 0 344 92q155 91 246 246q92 156 92 344q0 228 -174 556q-128 232 -330 494q-104 138 -178 216l-104 -124q-140 -175 -238 -316q-148 -226 -234 -410
q-104 -238 -104 -422q0 -181 92 -338q91 -156 246 -246q155 -92 342 -92zM878 732q0 72 18 140q33 126 128 294q116 211 342 512q227 -301 344 -512q96 -171 128 -294q18 -64 18 -140q0 -133 -66 -246q-66 -112 -178 -178q-113 -66 -246 -66q-131 0 -244 66
q-113 67 -178 178q-66 113 -66 246zM490 534l-490 490l490 488v-978z" />
</svg>