<svg xmlns="http://www.w3.org/2000/svg" xmlns:xlink="http://www.w3.org/1999/xlink" version="1.1" viewBox="-10 0 2068 2048">
   <path fill="currentColor"
d="M1014 386q-238 0 -452 72q-213 72 -394 208l-168 -224q210 -161 472 -250q258 -88 542 -88q282 0 540 88q262 89 472 250l-168 224q-180 -136 -394 -208q-213 -72 -450 -72zM1106 1606q0 -193 114 -336q-135 -40 -206 -40q-89 0 -176 32q-88 31 -164 84l340 448l92 -132
v-56zM1462 1082q56 -16 106 -32l124 -158q-146 -106 -320 -166t-358.5 -60t-359.5 60q-173 60 -318 166l172 224q107 -81 236 -124q134 -44 270 -44q244 0 448 134zM1436 1944l66 -264l-206 -176l272 -18l102 -256l106 242l272 24l-206 176l66 264l-238 -132z" />
</svg>