<svg xmlns="http://www.w3.org/2000/svg" xmlns:xlink="http://www.w3.org/1999/xlink" version="1.1" viewBox="-10 0 2058 2048">
   <path fill="currentColor"
d="M565 1632q-57 -170 -77 -225q-89 -266 -148 -503q-81 -317 -81 -497q0 -183 52 -287q40 -78 101 -106q27 -14 52 -14h101h28q28 9 48 29q29 29 29 72q0 25 -10 47t-28 48q-34 45 -43 77q-24 53 -24 134q0 63 43 139q24 47 91 143q81 129 114 201q58 122 58 227
q0 108 -48 213q-42 88 -105 163q-43 47 -106 100zM1076 1531q-62 0 -244 125q-86 68 -162 129q-39 24 0 81l33 48q42 51 101 91q80 43 172 43h612q81 0 141 -60t60 -141v-105q0 -81 -60 -141t-141 -60h-512v-10z" />
</svg>