<svg xmlns="http://www.w3.org/2000/svg" xmlns:xlink="http://www.w3.org/1999/xlink" version="1.1" viewBox="-10 0 2068 2048">
   <path fill="currentColor"
d="M1538 1433h-1028v-101l106 -101v-270q0 -169 78 -293q80 -125 228 -158v-49q0 -42 30 -74q28 -31 71.5 -31t72.5 31q28 32 28 74v49q149 33 228 158q80 125 80 293v270l106 101v101zM1178 1538q0 63 -46 109q-46 45 -109 45t-107 -45q-46 -46 -46 -109h308zM1024 0
q200 0 392 77q188 76 333.5 221t220.5 334q78 192 78 392t-78 392q-75 189 -220.5 334t-333.5 221q-192 77 -392 77t-392 -77q-188 -76 -333.5 -221t-220.5 -334q-78 -192 -78 -392t78 -392q75 -189 220.5 -334t333.5 -221q192 -77 392 -77zM1024 202q-223 0 -411.5 110
t-300.5 301q-110 191 -110 411t110 411q111 190 300 300q191 111 411.5 111t410.5 -111q190 -110 300 -300q112 -191 112 -411t-112 -411q-111 -191 -299.5 -301t-410.5 -110z" />
</svg>