<svg xmlns="http://www.w3.org/2000/svg" xmlns:xlink="http://www.w3.org/1999/xlink" version="1.1" viewBox="-10 0 2068 2048">
   <path fill="currentColor"
d="M1846 0h-1644q-82 0 -142 60t-60 142v1231q0 86 60 146t142 60h414l408 409l408 -409h414q82 0 142 -60t60 -146v-1231q0 -82 -60 -142t-142 -60zM1024 236q116 0 196 79q82 80 82 195t-82 197q-80 81 -196 81t-198 -81q-82 -82 -82 -197t82 -195q81 -79 198 -79z
M1638 1332h-1230v-92q0 -97 116 -173q93 -66 250 -110q143 -34 249.5 -34t250.5 34q156 44 250 110q114 76 114 173v92z" />
</svg>