<svg xmlns="http://www.w3.org/2000/svg" xmlns:xlink="http://www.w3.org/1999/xlink" version="1.1" viewBox="-10 0 2058 2048">
   <path fill="currentColor"
d="M1902 1586v343q0 45 -37 82t-87 37h-540q-45 0 -80 -39q-34 -38 -34 -89v-343q0 -41 37 -78t77 -37v-246q0 -101 86 -172q84 -71 190 -71q104 0 188 71q86 71 86 172v50h-128v-50q0 -55 -44 -90q-43 -34 -102 -34q-61 0 -104 34q-44 35 -44 90v246h422q44 0 80 37
q34 35 34 87zM344 0q-84 0 -141 57t-57 135v1563q0 78 57 135t141 57h584v-370q0 -132 96 -215l14 -5q10 -10 10 -13v-128q0 -124 66 -224q67 -102 172 -158q108 -57 228 -57q76 0 196 41v-233l-586 -585h-780zM1024 146l540 535h-540v-535z" />
</svg>