<svg xmlns="http://www.w3.org/2000/svg" xmlns:xlink="http://www.w3.org/1999/xlink" version="1.1" viewBox="-10 0 2068 2048">
   <path fill="currentColor"
d="M684 1141q0 140 98 238t242 98t242 -98q100 -99 100 -238q0 -91 -48 -160q-32 -59 -182 -229l-112 -128l-102 117q-160 181 -192 240q-46 68 -46 160zM1936 1136q42 0 78 -32q34 -31 34 -80t-34 -80q-36 -32 -78 -32h-118v-683h118q44 0 78 -34t34 -80t-34 -80
q-36 -35 -78 -35h-1824q-42 0 -77 35t-35 80t36 80q34 34 76 34h118v683h-118q-41 0 -76.5 32t-35.5 80t35.5 80t76.5 32h118v683h-118q-42 0 -76 34q-36 35 -36 80t35 80t77 35h1824q42 0 78 -35q34 -34 34 -80t-34 -80t-78 -34h-118v-683h118zM1594 1819h-1140v-683
q47 0 82.5 -32t35.5 -80t-35.5 -80t-82.5 -32v-683h1140v683q-47 0 -82 32q-34 31 -34 80t34 80q35 32 82 32v683z" />
</svg>