<svg xmlns="http://www.w3.org/2000/svg" xmlns:xlink="http://www.w3.org/1999/xlink" version="1.1" viewBox="-10 0 2068 2048">
   <path fill="currentColor"
d="M1582 1630q56 0 98 -41q42 -42 42 -101t-42 -98t-98.5 -39t-97.5 39q-42 38 -42 98t41 101t99 41zM1722 793h-232v231h414zM466 1630q58 0 98 -41q42 -42 42 -101t-42 -98t-98 -39t-98 39q-40 38 -40 98t41 101t97 41zM1770 654l278 370v467h-188q0 115 -80 196
q-80 82 -198 82t-198 -82q-80 -81 -80 -196h-558q0 115 -80 196q-81 82 -200 82q-117 0 -198 -82q-80 -81 -80 -196h-188v-1024q0 -78 55 -133t133 -55h1302v375h280zM654 467v278h-278v188h278v279h184v-279h278v-188h-278v-278h-184z" />
</svg>