<svg xmlns="http://www.w3.org/2000/svg" xmlns:xlink="http://www.w3.org/1999/xlink" version="1.1" viewBox="-10 0 2058 2048">
   <path fill="currentColor"
d="M1656 1617q68 -104 68 -229q0 -180 -126 -306q-124 -125 -304 -125t-306 125q-126 126 -126 306q0 179 126 305t306 126q121 0 224 -67l300 296l136 -135zM1294 1626q-98 0 -172 -70q-72 -69 -72 -168q0 -100 72 -169t171 -69t169 69q70 70 70 169q0 98 -70 168t-168 70z
M728 1648l-634 -494l158 -121l418 328v27q0 135 58 260zM718 1154l-624 -485l862 -669l862 669l-224 175q-101 -57 -220 -71l130 -104l-548 -426l-546 426l408 319q-68 77 -100 166z" />
</svg>