<svg xmlns="http://www.w3.org/2000/svg" xmlns:xlink="http://www.w3.org/1999/xlink" version="1.1" viewBox="-10 0 2068 2048">
   <path fill="currentColor"
d="M1024 50l-294 1096q-29 84 -10 166q20 85 82 152q92 86 220 86q126 0 218 -86q60 -67 80 -142q21 -81 2 -162zM1288 252l68 240q216 97 352 300q138 205 138 450q0 168 -66 318q-65 151 -174 264q-34 30 -34 72q0 44 30 72q33 30 75.5 30t72.5 -30q137 -137 218 -326
q80 -189 80 -400q0 -230 -96 -434t-270 -350q-171 -142 -394 -206zM760 256q-220 57 -392 202q-169 142 -270 350q-98 201 -98 434q0 213 80 400q79 187 218 326q30 30 73 30t72 -29t29 -72t-30 -73q-111 -115 -176 -264q-64 -150 -64 -318q0 -254 134 -456
q135 -202 360 -294z" />
</svg>