<svg xmlns="http://www.w3.org/2000/svg" xmlns:xlink="http://www.w3.org/1999/xlink" version="1.1" viewBox="-10 0 2068 2048">
   <path fill="currentColor"
d="M1648 1024q-70 0 -120 -51q-50 -50 -50 -120t50 -120t122.5 -50t119.5 50q48 51 48 120t-48 120t-122 51zM1306 571q-68 0 -120 -51q-50 -50 -50 -123t50 -120q52 -48 124 -48t120 48t48 120t-48 123t-124 51zM742 571q-74 0 -122 -51t-48 -123t48 -120t118 -48
q72 0 123 48t51 120t-51 123t-119 51zM400 1024q-74 0 -122 -51t-48 -120t48 -120q47 -50 119.5 -50t122.5 50q52 51 52 120t-51 120t-121 51zM1024 0q-276 0 -512 139q-234 138 -372 373q-140 236 -140 512t140 512q138 235 372 373q236 139 512 139q70 0 120 -51
q50 -50 50 -117q0 -66 -42 -117q-42 -52 -42 -118t48 -117t122 -51h198q156 0 284 -74q130 -74 208 -206q78 -129 78 -285q0 -250 -138 -459q-136 -205 -374 -330q-234 -123 -512 -123z" />
</svg>