<svg xmlns="http://www.w3.org/2000/svg" xmlns:xlink="http://www.w3.org/1999/xlink" version="1.1" viewBox="-10 0 2068 2048">
   <path fill="currentColor"
d="M1682 1184v632q0 84 -62 146t-144 62h-214q-88 0 -150 -62t-62 -146v-632q0 -88 62 -150t150 -62h214q82 0 144 62t62 150zM1262 1184v632h214v-632h-214zM844 1816q0 84 -62 146t-150 62h-420v-208h420v-212h-212v-212h212v-208h-420v-212h420q88 0 150 62t62 150v158
q0 64 -47 111t-111 47q65 0 110 44q48 46 48 114v158zM1002 24q360 0 648 212q290 213 398 548l-248 84q-84 -256 -302 -420q-217 -162 -496 -162q-308 0 -544 198l278 276h-736v-736l272 272q148 -125 338 -200q184 -72 392 -72z" />
</svg>