<svg xmlns="http://www.w3.org/2000/svg" xmlns:xlink="http://www.w3.org/1999/xlink" version="1.1" viewBox="-10 0 2068 2048">
   <path fill="currentColor"
d="M376 1488q0 22 -16 35q-14 13 -32 13h-92q-22 0 -35 -13t-13 -35v-43h-92q-38 0 -67 -29t-29 -67v-279q0 -39 30 -65q30 -27 66 -27h1578v-187h-1116l-92 96v-188q0 -38 28 -65q26 -26 64 -26h1116v-96h186v96q40 0 66 26t26 65v92h-92v187h92q37 0 68 27q28 25 28 65
v279q0 39 -28 67q-30 29 -68 29h-92v43q0 22 -13 35t-35 13h-90q-19 0 -34 -13q-14 -14 -14 -35v-43h-1298v43zM188 1166v91h188v-91h-188zM466 1166v91h188v-91h-188zM1812 1118q-38 0 -64 26t-26 65t26 68q25 28 64.5 28t67.5 -28t28 -68t-28 -65q-29 -26 -68 -26z" />
</svg>