<svg xmlns="http://www.w3.org/2000/svg" xmlns:xlink="http://www.w3.org/1999/xlink" version="1.1" viewBox="-10 0 2068 2048">
   <path fill="currentColor"
d="M1538 564q-413 92 -692 308q-231 183 -394 466q-100 172 -240 524l-30 68l198 68l96 -236q89 34 140 34q384 0 696 -274q250 -216 442 -602q133 -263 230 -596q44 -164 64 -274q-48 96 -308 164q-165 41 -558 96q-320 44 -466 72q-235 48 -414 192q-148 125 -230 294
q-72 144 -72 260q0 131 86 268q48 73 92 116q91 -265 270 -462q150 -170 350 -284q163 -91 356 -144q133 -37 274 -52z" />
</svg>