<svg xmlns="http://www.w3.org/2000/svg" xmlns:xlink="http://www.w3.org/1999/xlink" version="1.1" viewBox="-10 0 2058 2048">
   <path fill="currentColor"
d="M1738 206h-426q-33 -90 -114 -148q-80 -58 -174.5 -58t-175.5 58q-79 57 -112 148h-426q-86 0 -146 60t-60 146v1430q0 86 60 146t146 60h1428q86 0 146 -60t60 -146v-1430q0 -86 -60 -146t-146 -60zM1024 206q43 0 72 31q28 32 28 72t-28 72q-29 31 -72.5 31t-71.5 -31
t-28 -72t28 -72t72 -31zM1388 1448l-148 144l-216 -220l-216 220l-144 -144l216 -220l-216 -216l144 -144l216 216l216 -216l148 144l-220 216z" />
</svg>