<svg xmlns="http://www.w3.org/2000/svg" xmlns:xlink="http://www.w3.org/1999/xlink" version="1.1" viewBox="-10 0 2068 2048">
   <path fill="currentColor"
d="M2048 1925l-1924 -1925l-124 124l278 283v1376q0 78 57 135t141 57h1170q85 0 140 -64l138 137zM1646 1783h-1170v-1170h8l430 425q-32 55 -50 91q-54 88 -62 197q-7 105 70 183q78 77 188 77t188 -77q32 -33 54 -83l344 343v14zM982 613h664v663l196 192v-1248
q0 -78 -57 -135t-139 -57h-1170q-33 0 -64 9zM864 220q42 0 70 29q30 30 30 69q0 38 -30 68t-68 30t-68 -30t-30 -68q0 -39 30 -69q28 -29 66 -29z" />
</svg>