<svg xmlns="http://www.w3.org/2000/svg" xmlns:xlink="http://www.w3.org/1999/xlink" version="1.1" viewBox="-10 0 2068 2048">
   <path fill="currentColor"
d="M1924 2048l-114 -110q-81 37 -164 37h-198q-148 0 -246 -23q-106 -23 -206 -91q-100 -69 -238 -211l-370 -370q-86 -82 -206 -82h-96v-197h96q95 0 186 37q89 36 158 105l370 370q46 47 118 60q54 13 142 13h100v-205l-1256 -1257l124 -124l1924 1925zM2028 1660
q6 -45 6 -74v-292q0 -83 -57 -140t-135 -57h-370zM1696 777v5v219h146v-219q0 -156 -84 -288q-84 -131 -228 -201q56 -56 78 -124q23 -69 18 -141h-146q6 15 6 32q0 73 -56 128q-54 54 -128 54v147q166 0 280 114t114 274zM1042 672q31 9 68 9h146q78 -5 135 48t57 131v141
h146v-160q-4 -133 -102 -224q-97 -91 -230 -82h-152q-77 -9 -130 -64q-53 -57 -50 -130q3 -76 52 -126q51 -50 124 -46h4v-141q-136 0 -232 96t-96 228q0 37 8 64z" />
</svg>