<svg xmlns="http://www.w3.org/2000/svg" xmlns:xlink="http://www.w3.org/1999/xlink" version="1.1" viewBox="-10 0 2058 2048">
   <path fill="currentColor"
d="M1183 2048h-365q-19 0 -34 -12t-15 -31l-38 -270q-86 -33 -173 -100l-255 100q-21 10 -38 3q-20 -8 -24 -22l-207 -356q-10 -21 -7 -36q3 -17 17 -31l216 -168q-5 -63 -5 -101t5 -101l-216 -168q-14 -14 -17 -32q-3 -15 7 -36l207 -355q4 -14 24 -22q18 -7 38 2l255 101
q89 -69 173 -101l38 -269q0 -19 15 -31t34 -12h413q18 0 33 12t15 31l38 269q84 32 173 101l255 -101q20 -9 38 -2q20 8 24 22l207 355q10 21 7 36q-3 18 -17 32l-216 168q5 63 5 101v19q-79 -19 -154 -19q-137 0 -264 58q10 -43 10 -58q0 -147 -106 -255
q-105 -106 -255 -106t-255 106q-105 107 -105 255t105 255q105 106 255 106q15 0 58 -10q-58 127 -58 264q0 237 159 409zM1947 1332h-615v615h615v-615z" />
</svg>