<svg xmlns="http://www.w3.org/2000/svg" xmlns:xlink="http://www.w3.org/1999/xlink" version="1.1" viewBox="-10 0 2058 2048">
   <path fill="currentColor"
d="M1324 1125q-73 14 -139 43v-701h139v658zM676 0q-157 0 -266 109t-109 266v1159q0 138 70 257t187 188t257 69q83 0 165 -30q-50 -59 -74 -122q-51 13 -91 13q-157 0 -266 -109t-109 -266v-1159q0 -95 70 -165t166 -70q95 0 163 70q67 68 67 165v976q0 35 -28 63
q-29 29 -65 29q-37 0 -66 -29q-28 -28 -28 -63v-884h-139v884q0 97 69 164q68 67 166 67q27 0 52 -9q34 -186 179 -313v-885q0 -157 -109 -266t-261 -109zM1747 1478l-131 -131l-200 196l-196 -196l-131 131l196 196l-196 200l131 131l196 -201l200 201l131 -131l-200 -200z
" />
</svg>