<svg xmlns="http://www.w3.org/2000/svg" xmlns:xlink="http://www.w3.org/1999/xlink" version="1.1" viewBox="-10 0 2058 2048">
   <path fill="currentColor"
d="M933 1116h182v96h-182v-96zM1860 375v558q0 255 -109 486q-110 234 -298 401q-187 166 -429 228q-242 -62 -429 -228q-188 -167 -298 -401q-109 -231 -109 -486v-558l836 -375zM1490 837h-205q-25 -77 -104 -139l113 -109l-65 -66l-131 131h-74q-47 0 -65 9l-131 -140
l-74 74l113 109q-74 48 -104 131h-205v96h187v91h-187v92h187v96h-187v91h205q30 81 100 135q70 53 161 53t161 -53q70 -54 100 -135h205v-91h-187v-96h187v-92h-187v-91h187v-96zM933 1024h182v-91h-182v91z" />
</svg>