<svg xmlns="http://www.w3.org/2000/svg" xmlns:xlink="http://www.w3.org/1999/xlink" version="1.1" viewBox="-10 0 2068 2048">
   <path fill="currentColor"
d="M0 0h2048v2048h-2048v-2048zM540 1712q38 83 100 123q79 53 186 53q134 0 212 -72q76 -71 76 -216v-661h-192v656q0 70 -26 96t-74 26t-80 -32q-19 -19 -48 -69zM1216 1691q49 90 136 144q87 53 216 53q143 0 232 -72q88 -72 88 -195q0 -118 -64 -186q-61 -60 -192 -118
l-48 -21q-62 -26 -90 -51q-28 -24 -28 -61t24 -61t68 -24q79 0 128 80l144 -96q-42 -79 -110 -118q-66 -37 -162 -37q-128 0 -206 72t-78 184q0 113 64 181q55 59 172 107l48 21q69 35 100 54q38 31 38 74t-34 70q-34 26 -94 26q-124 0 -192 -117z" />
</svg>