<svg xmlns="http://www.w3.org/2000/svg" xmlns:xlink="http://www.w3.org/1999/xlink" version="1.1" viewBox="-10 0 2068 2048">
   <path fill="currentColor"
d="M1024 567q103 0 180 73q74 72 74 182q0 164 -154 236v894h-202v-894q-154 -72 -154 -236q0 -110 76 -182q76 -73 180 -73zM1504 341q191 191 206 481q0 280 -206 486l-120 -125q154 -138 154 -361q0 -203 -154 -356zM418 216q-244 245 -244 606t244 606l-120 125
q-298 -317 -298 -728q0 -412 298 -729zM1750 96q298 317 298 726q0 429 -298 731l-120 -125q244 -245 244 -606t-244 -606zM544 341l120 125q-154 139 -154 356q0 207 154 361l-120 125q-208 -207 -208 -483q0 -277 208 -484z" />
</svg>