<svg xmlns="http://www.w3.org/2000/svg" xmlns:xlink="http://www.w3.org/1999/xlink" version="1.1" viewBox="-10 0 2068 2048">
   <path fill="currentColor"
d="M1446 50h-1002q-86 0 -145 59t-59 143v584q126 -122 292 -162q165 -41 332 2q166 41 292 166q124 125 166 296q42 169 0 336q-42 168 -168 294q-47 47 -118 90h810q84 0 143 -59t59 -143v-1004zM1346 752v-552l552 552h-552zM692 854q-188 0 -320 132t-132 320
q0 132 72 240l-312 312l142 140l310 -310q112 70 240 70q188 0 320 -132t132 -320t-132 -320t-320 -132zM692 1556q-104 0 -176 -72t-72 -178q0 -105 72 -178q73 -76 176 -76t176 76q74 74 74 178t-73 177t-177 73z" />
</svg>