<svg xmlns="http://www.w3.org/2000/svg" xmlns:xlink="http://www.w3.org/1999/xlink" version="1.1" viewBox="-10 0 2058 2048">
   <path fill="currentColor"
d="M1639 0q87 0 147 60t60 142v1644q0 82 -60 142t-147 60h-1230q-86 0 -146 -60q-61 -61 -61 -142v-1644q0 -81 61 -142q60 -60 146 -60h1230zM1639 202h-514v514l-255 -235l-254 235v-514h-207v1644h1230v-1644zM1125 923q61 0 115 34q53 33 77 91q24 57 12 118t-57 106
t-106 57t-118 -12q-58 -24 -91 -77q-34 -54 -34 -115q0 -82 60 -142t142 -60zM1538 1740h-821v-101q0 -92 153 -154q128 -52 257 -52q130 0 258 52q153 62 153 154v101z" />
</svg>