<svg xmlns="http://www.w3.org/2000/svg" xmlns:xlink="http://www.w3.org/1999/xlink" version="1.1" viewBox="-10 0 2058 2048">
   <path fill="currentColor"
d="M1622 615q-42 -161 -160 -281q-116 -117 -282 -161v-173h-308v173q-165 44 -280 161q-119 120 -162 281h-226v308h226q44 158 162 279q115 119 280 158v688h308v-688q166 -39 282 -158q117 -121 160 -279h222v-308h-222zM1032 769l250 154h130q-29 77 -90 137
q-60 61 -142 94v-130l-148 -250l-6 -5l-4 5l-150 250v130q-162 -67 -230 -231h130l254 -154h-4l-250 -154h-130q29 -82 90 -142q60 -60 140 -93v130l150 250l4 9l6 -9l148 -250v-130q83 34 142 93q61 60 90 142h-130l-250 154h-6h6z" />
</svg>