<svg xmlns="http://www.w3.org/2000/svg" xmlns:xlink="http://www.w3.org/1999/xlink" version="1.1" viewBox="-10 0 2068 2048">
   <path fill="currentColor"
d="M1818 0h-1588q-96 0 -163 67t-67 162v1590q0 95 67 162t163 67h1588q96 0 164 -67q66 -66 66 -162v-1590q0 -96 -66 -162q-68 -67 -164 -67zM1818 1819h-1588v-1590h1588v1590zM1024 1707q184 0 344 -91q157 -90 248 -248q90 -159 90 -344t-90 -344q-91 -158 -248 -248
q-160 -91 -344 -91t-344 91q-157 90 -248 248q-90 159 -90 344t90 344q91 158 248 248q160 91 344 91zM938 1472q-90 -17 -170 -75l170 -170v245zM1110 1472v-240l170 171q-75 52 -170 69zM1402 1280l-170 -171h240q-18 95 -70 171zM1472 939h-240l170 -171q52 76 70 171z
M1110 576q91 17 170 75l-170 170v-245zM1024 912q48 0 80 32t32 80t-32 80t-80 32t-80 -32t-32 -80t32 -80t80 -32zM938 576v240l-170 -171q77 -52 170 -69zM646 768l170 171h-240q18 -95 70 -171zM816 1109l-170 171q-48 -75 -70 -171h240z" />
</svg>