<svg xmlns="http://www.w3.org/2000/svg" xmlns:xlink="http://www.w3.org/1999/xlink" version="1.1" viewBox="-10 0 2058 2048">
   <path fill="currentColor"
d="M664 0q168 0 288 120t120 288h-815q0 -168 120 -288t287 -120zM957 696l-86 839h-106v101q0 86 60 146t146 60t146 -60t60 -146v-509q0 -172 120 -292t288 -120h206l-105 105l105 101h-206q-86 0 -146 60t-60 146v509q0 172 -120 292t-288 120q-167 0 -287 -120
t-120 -292v-101h-106l-86 -839q-76 -76 -105 -183h795q-29 107 -105 183zM664 820q-42 0 -71 29t-29 72t29 72t71 29q43 0 72 -29t29 -72t-29 -72t-72 -29z" />
</svg>