<svg xmlns="http://www.w3.org/2000/svg" xmlns:xlink="http://www.w3.org/1999/xlink" version="1.1" viewBox="-10 0 2058 2048">
   <path fill="currentColor"
d="M1242 0q-77 0 -134 57t-57 137q0 81 57 135t134 54q78 0 135 -54t57 -135q0 -80 -57 -137t-135 -57zM1194 611q-67 6 -215 95q-93 60 -233 162l-114 84q-18 12 -18 18t6 24l18 24q12 18 15 21t21 -9l137 -90q84 -54 111 -33t9 111q-6 52 -54 233q-93 346 -137 593
q-15 108 14.5 158.5t104.5 44.5q90 -12 216 -90l299 -209q18 -6 15 -18t-15 -30l-12 -18q-18 -18 -30 -6l-36 24q-90 60 -132 84q-77 30 -89 -6t30 -210q29 -125 95 -371l96 -347q18 -108 6 -156q-12 -89 -108 -83z" />
</svg>