<svg xmlns="http://www.w3.org/2000/svg" xmlns:xlink="http://www.w3.org/1999/xlink" version="1.1" viewBox="-10 0 2068 2048">
   <path fill="currentColor"
d="M0 558h188v1303h1302v187h-1302q-78 0 -132 -54q-56 -55 -56 -133v-1303zM1674 0h-1116q-74 0 -128 55q-54 54 -54 133v1303q0 74 54 128q54 55 128 55h1302q78 0 134 -55q54 -54 54 -128v-1116zM1860 1491h-1302v-1303h1042l260 261v1042zM1212 837q-117 0 -198 83
q-80 81 -80 198q0 116 80 196q80 81 196 81q115 0 198 -81q82 -81 82 -196t-83 -198t-195 -83zM654 279h836v375h-836v-375z" />
</svg>