<svg xmlns="http://www.w3.org/2000/svg" xmlns:xlink="http://www.w3.org/1999/xlink" version="1.1" viewBox="-10 0 2068 2048">
   <path fill="currentColor"
d="M0 558h558v186h-370v188h370v184h-370v186h370v188h-558v-932zM934 558h370v186h-370v188h182q78 0 132 54q56 56 56 130v186q0 78 -55 133t-133 55h-370v-188h370v-186h-182q-78 0 -133 -55t-55 -129v-188q0 -76 55 -131t133 -55zM1674 558h186q78 0 134 54
q54 54 54 132v92h-188v-92h-186v558h186v-90h188v90q0 80 -54 134q-56 54 -134 54h-186q-74 0 -130 -54q-54 -54 -54 -134v-558q0 -78 54 -132q56 -54 130 -54z" />
</svg>