<svg xmlns="http://www.w3.org/2000/svg" xmlns:xlink="http://www.w3.org/1999/xlink" version="1.1" viewBox="-10 0 2068 2048">
   <path fill="currentColor"
d="M592 0h864q160 0 295.5 79t216.5 217q80 137 80 295v866q0 158 -80 295q-81 138 -216.5 217t-295.5 79h-864q-161 0 -296.5 -79t-215.5 -217q-80 -136 -80 -295v-866q0 -159 80 -295q80 -138 215.5 -217t296.5 -79zM572 202q-154 0 -262 108q-108 109 -108 262v904
q0 153 108 262q108 108 262 108h904q154 0 262 -108t108 -262v-904q0 -154 -108 -262t-262 -108h-904zM1562 356q54 0 92 38t38 92q0 53 -38 91t-92 38t-92 -38t-38 -91q0 -54 38 -92t92 -38zM1024 510q140 0 256 69q120 71 188 188q70 119 70 257t-70 257q-68 117 -188 188
q-116 69 -256 69t-258 -69q-118 -70 -186 -188q-70 -120 -70 -257t70 -257q68 -118 186 -188q118 -69 258 -69zM1024 716q-130 0 -220 89q-88 88 -88 219t88 219q90 89 220 89t219 -89t89 -219t-89 -219t-219 -89z" />
</svg>