<svg xmlns="http://www.w3.org/2000/svg" xmlns:xlink="http://www.w3.org/1999/xlink" version="1.1" viewBox="-10 0 2058 2048">
   <path fill="currentColor"
d="M923 1433q0 48 -29 77q-28 28 -74 28q-47 0 -75 -28t-28 -75t28 -75t75 -28q46 0 74 28q29 29 29 73zM1846 615v1231q0 82 -60 142t-147 60h-1230q-86 0 -146 -60q-61 -61 -61 -142v-1644q0 -81 61 -142q60 -60 146 -60h822zM1639 1332h-533q-48 -125 -161 -178
q-112 -52 -233 -7q-120 45 -173 161q-52 114 -7 230t161 173t230 10q131 -44 183 -183h125v202h202v-202h206v-206zM1692 716l-567 -562v562h567z" />
</svg>