<svg xmlns="http://www.w3.org/2000/svg" xmlns:xlink="http://www.w3.org/1999/xlink" version="1.1" viewBox="-10 0 2058 2048">
   <path fill="currentColor"
d="M1787 842l-187 182l187 182q95 96 126.5 223t0 254.5t-126.5 220.5q-98 95 -223 127q-127 33 -254 0t-223 -129l-67 -67q-68 101 -175 156t-237 55q-129 0 -242 -65t-180 -177t-67 -247v-1065q0 -135 67 -247q68 -114 179.5 -178t242.5 -64t235 55q105 56 177 156l67 -68
q96 -96 223 -129t254 0q125 32 223 127q95 92 127 221q31 127 0 254q-32 127 -127 223z" />
</svg>