<svg xmlns="http://www.w3.org/2000/svg" xmlns:xlink="http://www.w3.org/1999/xlink" version="1.1" viewBox="-10 0 2068 2048">
   <path fill="currentColor"
d="M1956 1444v-49q0 -96 -70 -163q-72 -68 -167 -68t-163 68t-68 163v49q-39 0 -64 28q-28 30 -28 63v376q0 33 28 63q25 28 64 28h468q34 0 62 -28q30 -29 30 -63v-376q0 -34 -30 -63q-28 -28 -62 -28zM1860 1444h-280v-49q0 -57 41 -98t101 -41t98 41q40 42 40 98v49z
M184 330l698 297l-698 -92v-205zM882 1142l-698 297v-205zM0 46v651l1396 188l-1396 187v651l1956 -838z" />
</svg>