<svg xmlns="http://www.w3.org/2000/svg" xmlns:xlink="http://www.w3.org/1999/xlink" version="1.1" viewBox="-10 0 2068 2048">
   <path fill="currentColor"
d="M1846 1024q0 220 -112 411q-110 190 -300 300q-190 111 -410.5 111t-411.5 -111q-189 -110 -300 -300q-110 -191 -110 -411t110 -411q112 -191 300.5 -301t411.5 -110q111 0 226 34l158 -164q-183 -72 -384 -72q-200 0 -392 77q-188 76 -333.5 221t-220.5 334
q-78 192 -78 392t78 392q75 189 220.5 334t333.5 221q192 77 392 77t392 -77q188 -76 333.5 -221t220.5 -334q78 -192 78 -392h-202zM606 827l-144 144l460 462l1024 -1024l-144 -145l-880 880z" />
</svg>