<svg xmlns="http://www.w3.org/2000/svg" xmlns:xlink="http://www.w3.org/1999/xlink" version="1.1" viewBox="-10 0 2068 2048">
   <path fill="currentColor"
d="M1846 1021q-384 -192 -948 -279l-110 -346q-20 -54 -72 -75t-104 0q-48 20 -68 75l-106 317q-182 29 -310 176t-128 339q0 140 68 257q66 117 184 185q117 67 258 67l124 -5q153 -9 312 -33q210 -30 428 -92q267 -74 472 -177l52 -29q61 -41 96 -77q54 -53 54 -99
q0 -45 -54 -98q-35 -36 -96 -77zM308 1228q-48 0 -77 -29t-29 -75q0 -45 29 -74t75 -29q44 0 73 29t29 72q0 42 -28.5 74t-71.5 32zM510 1535q-44 0 -72 -28q-30 -29 -30 -75t30 -75q28 -28 74 -28t74 28q30 29 30 73q0 42 -30 74q-28 31 -76 31zM716 1228q-47 0 -74 -29
q-26 -27 -26 -75q0 -46 26 -74q27 -29 74 -29t74 29q28 29 28 72q0 42 -29 74t-73 32zM922 1535q-48 0 -76 -28t-28 -75t28 -75t74 -28t74 28q30 29 30 73q0 42 -30 74q-28 31 -72 31zM1432 1228q-44 0 -72 -29q-28 -28 -28 -75q0 -46 28 -74q28 -29 74 -29t75 29t29 72
q0 42 -29 74t-77 32zM1740 1329q-44 0 -73 -29t-29 -75q0 -45 29 -74t75 -29t75 29t29 72q0 42 -29 74t-77 32z" />
</svg>