<svg xmlns="http://www.w3.org/2000/svg" xmlns:xlink="http://www.w3.org/1999/xlink" version="1.1" viewBox="-10 0 2068 2048">
   <path fill="currentColor"
d="M2048 817h-410v-307q0 -125 -88 -217q-89 -91 -218 -91q-131 0 -220 91q-88 92 -88 217h206q0 -38 30 -70q28 -31 71.5 -31t72.5 31q28 32 28 70v307h-816q80 0 140 -60q62 -61 62 -142v-413h-616v413q0 81 60 142q60 60 146 60h-408v207h202v822h1644v-822h202v-207z
M408 409h208v206h-208v-206zM408 1639v-615h514v615h-514zM1638 1639h-514v-615h514v615z" />
</svg>