<svg xmlns="http://www.w3.org/2000/svg" xmlns:xlink="http://www.w3.org/1999/xlink" version="1.1" viewBox="-10 0 2068 2048">
   <path fill="currentColor"
d="M1722 1573l326 327l-148 148l-332 -326q-114 74 -246 74q-198 0 -338 -139q-138 -138 -138 -336t138 -336q140 -139 338 -139q196 0 336 139q138 138 138 336q0 137 -74 252zM1322 1583q108 0 184 -76q78 -77 78 -186q0 -108 -77 -185t-185 -77t-188 77q-80 76 -80 185
q0 110 79 186t189 76zM1900 0v213h-1900v-213h1900zM0 1267v-208h634v208h-634zM0 742v-212h1900v212h-214q-171 -109 -368 -109q-195 0 -362 109h-956z" />
</svg>