<svg xmlns="http://www.w3.org/2000/svg" xmlns:xlink="http://www.w3.org/1999/xlink" version="1.1" viewBox="-10 0 2058 2048">
   <path fill="currentColor"
d="M1912 2021l-184 -181q-9 85 -77 147q-67 61 -158 61q-99 0 -169 -72q-70 -71 -70 -167q0 -95 59 -163q58 -67 144 -76l-99 -99h-1163v-1164l-181 -185l122 -122l1898 1899zM772 316h239v-289h-605l316 316q18 -27 50 -27zM1114 735q-58 -58 -72 -131h-58zM1782 1078
q-50 -108 -190 -176q-86 -36 -261 -81l-86 -23q-64 0 -126 -58l712 708v-32q0 -130 -9 -189q-9 -101 -40 -149zM790 410l99 95h122v-95h-221zM533 1565q-104 0 -174 70t-70 169q0 101 70 172q71 72 171 72q102 0 172 -72q70 -71 70 -172q0 -99 -70 -169t-169 -70z" />
</svg>