<svg xmlns="http://www.w3.org/2000/svg" xmlns:xlink="http://www.w3.org/1999/xlink" version="1.1" viewBox="-10 0 2058 2048">
   <path fill="currentColor"
d="M777 455l-154 -155q52 -131 172 -216q119 -84 264 -84q129 0 236 64q108 64 172 172q64 107 64 237v189h93q79 0 135 56q55 55 55 130v640l-830 -826h358v-189q0 -119 -82 -201t-196 -82q-115 0 -197 77q-81 76 -90 188zM2012 1929l-119 119l-132 -132q-53 62 -137 62
h-1129q-80 0 -135 -55t-55 -131v-944q0 -75 55 -130q56 -56 135 -56h9l-468 -472l119 -119zM1231 1391l-242 -243q-53 18 -86 66t-33 106q0 80 55 135t134 55q58 0 106 -33t66 -86z" />
</svg>