<svg xmlns="http://www.w3.org/2000/svg" xmlns:xlink="http://www.w3.org/1999/xlink" version="1.1" viewBox="-10 0 2068 2048">
   <path fill="currentColor"
d="M280 46v279h-280v188h280v279h188v-279h278v-188h-278v-279h-188zM838 325v280h-278v279h-280v930q0 78 55 133t133 55h1300q78 0 134 -55q54 -54 54 -133v-91h-838q-78 0 -134 -55q-54 -54 -54 -133v-743q0 -79 54 -133t134 -54h838v-92q0 -79 -54 -133
q-56 -55 -134 -55h-930zM1118 792v743h930v-743h-930zM1488 1024q63 0 102 41q38 42 38 99q0 56 -38 98q-39 41 -98.5 41t-100.5 -41t-41 -98q0 -58 41 -99t97 -41z" />
</svg>