<svg xmlns="http://www.w3.org/2000/svg" xmlns:xlink="http://www.w3.org/1999/xlink" version="1.1" viewBox="-10 0 2068 2048">
   <path fill="currentColor"
d="M1638 923h-326q-34 -93 -112 -149q-81 -58 -176 -58t-176 58q-79 57 -112 149h-328q-61 0 -114 -29q-92 -53 -92 -178v-101q0 -121 86 -173q53 -33 120 -33h1044q33 92 112 149q80 57 176 57q130 0 218 -91q90 -92 90 -219t-89 -216t-219 -89q-97 0 -176 55
q-80 56 -112 147h-1044q-92 0 -178 43q-106 44 -162 130q-68 95 -68 240v101q0 141 68 241q55 84 162 129q87 39 178 39h328q33 92 112 149q81 58 176 58t176 -58q78 -56 112 -149h326q63 0 116 29q92 52 92 178v101q0 121 -88 173q-52 33 -120 33h-1042q-34 -93 -112 -149
q-80 -57 -176 -57q-130 0 -218 91q-90 92 -90 219t89 216t219 89q97 0 175.5 -55t112.5 -147h1042q92 0 178 -43q101 -43 164 -130q68 -101 68 -240v-101q0 -140 -68 -241q-63 -87 -164 -130q-84 -38 -178 -38zM1740 202q44 0 75 31t31 75t-32 72q-32 29 -75 29t-72 -29
t-29 -72t30 -75q28 -31 72 -31zM308 1846q-44 0 -74 -31q-32 -32 -32 -75t32 -72t74 -29t71 29t29 72t-28 75q-29 31 -72 31z" />
</svg>