<svg xmlns="http://www.w3.org/2000/svg" xmlns:xlink="http://www.w3.org/1999/xlink" version="1.1" viewBox="-10 0 2058 2048">
   <path fill="currentColor"
d="M398 0q144 0 242 99q98 98 98 242q0 107 -60 195q-61 87 -158 125q38 373 336 555q197 117 474 144q38 -96 126 -160q87 -64 194 -64q145 0 243.5 101t98.5 243t-98 240q-100 99 -244 99q-112 0 -200 -64q-87 -64 -124 -160q-225 -11 -390 -75q-140 -49 -246 -144
q-68 -59 -174 -192v203q100 31 162 120q60 88 60 200q0 144 -98 242q-98 99 -239 99t-243 -99q-102 -98 -102 -242q0 -112 64 -200q65 -89 166 -120v-726q-101 -31 -166 -120q-64 -88 -64 -200q0 -144 102 -242q102 -99 240 -99zM398 229q-48 0 -80 32t-32 80t32 80t79.5 32
t83 -32t35.5 -80t-35.5 -80t-82.5 -32zM398 1595q-48 0 -80 32t-32 80t32 80t79.5 32t83 -32t35.5 -80t-35.5 -80t-82.5 -32zM1650 1365q-48 0 -80 32t-32 80t32 83t80.5 35t80 -35t31.5 -83t-32 -80t-80 -32z" />
</svg>