<svg xmlns="http://www.w3.org/2000/svg" xmlns:xlink="http://www.w3.org/1999/xlink" version="1.1" viewBox="-10 0 2058 2048">
   <path fill="currentColor"
d="M645 1905q-136 -115 -179 -284q-44 -170 18 -331l196 -555q18 -44 61 -48q44 -5 70 35l26 53q34 57 13 122l-92 253l44 35l554 -628q24 -28 59 -29q37 -2 65 22t30 61q1 39 -19 63l-414 472l52 43l506 -571q26 -32 63 -33q37 -2 65 22q29 24 31 61q1 37 -24 67l-506 572
l52 48l436 -493q26 -32 64 -33q37 -2 63 24t28 61q1 37 -19 61l-436 498l52 48l292 -332q26 -32 63 -33q38 -2 66 22t30 61q1 38 -24 64l-484 549q-101 118 -244 166q-145 48 -294 20q-151 -29 -264 -133zM985 766l266 -301q34 -39 78 -57l40 -74q13 -34 2 -70
q-11 -35 -44 -50q-32 -15 -69 -4.5t-51 46.5l-235 479zM933 653v4l257 -528q18 -35 4 -70q-14 -36 -45 -50q-33 -15 -68 -4q-34 10 -52 46l-245 501q96 18 149 101zM353 1242l196 -555q18 -54 59 -87q41 -34 94 -43l200 -410q18 -36 5 -70q-14 -36 -46 -50q-34 -16 -68 -5
q-34 10 -52 46l-366 755l-48 -22l17 -271q8 -65 -39 -117l-44 -40q-35 -30 -76 -15q-42 14 -46 59l-44 589q-9 139 48 268t171 216q-5 -130 39 -248z" />
</svg>