<svg xmlns="http://www.w3.org/2000/svg" xmlns:xlink="http://www.w3.org/1999/xlink" version="1.1" viewBox="-10 0 2068 2048">
   <path fill="currentColor"
d="M922 510h202q88 0 148 60t60 146v822h-208v-413h-202v413h-206v-822q0 -86 60 -146t146 -60zM922 716v207h202v-207h-202zM1024 1846q220 0 410 -111q190 -110 300 -300q112 -191 112 -411t-112 -411q-111 -191 -299.5 -301t-411 -110t-411 110t-300.5 301
q-110 191 -110 411t110 411q111 190 300 300q191 111 412 111zM1024 0q200 0 392 77q188 76 333.5 221t220.5 334q78 192 78 392t-78 392q-75 189 -220.5 334t-333.5 221q-192 77 -392 77t-392 -77q-188 -76 -333.5 -221t-220.5 -334q-78 -192 -78 -392t78 -392
q75 -189 220.5 -334t333.5 -221q192 -77 392 -77z" />
</svg>