<svg xmlns="http://www.w3.org/2000/svg" xmlns:xlink="http://www.w3.org/1999/xlink" version="1.1" viewBox="-10 0 2068 2048">
   <path fill="currentColor"
d="M408 1231h208l306 307h-206zM202 202h106v-101q0 -43 29 -72t71 -29h410q41 0 74 29q30 28 30 72v101h202v-101q0 -44 32 -72q32 -29 74 -29h408q44 0 73 29t29 72v101h106q82 0 142 60t60 147v1331q0 87 -60 147t-142 60v101h-308v-101h-1028v101h-308v-101
q-82 0 -142 -60t-60 -147v-1331q0 -87 60 -147t142 -60zM1638 510q44 0 72 31q30 32 30 74q0 43 -29 72t-72 29t-72 -29t-29 -72q0 -42 28 -74q29 -31 72 -31zM1230 510q44 0 72 31q30 32 30 74q0 43 -29 72t-72 29t-75 -29q-32 -28 -32 -72q0 -43 31 -74t75 -31zM1846 409
h-1644v408h1644v-408zM202 1740h1644v-716h-1644v716zM408 510q44 0 72 31q30 32 30 74q0 43 -29 72t-72 29t-72 -29t-29 -72q0 -42 28 -74q29 -31 72 -31zM1124 1231h208l306 307h-206z" />
</svg>