<svg xmlns="http://www.w3.org/2000/svg" xmlns:xlink="http://www.w3.org/1999/xlink" version="1.1" viewBox="-10 0 2068 2048">
   <path fill="currentColor"
d="M2032 1258l-97 102l-207 -208l97 -100q18 -14 41 -14t42 14l124 128q31 33 0 78zM1079 1802l598 -604l208 208l-599 600h-207v-204zM885 1802v-82l106 -106h-401v-198h-198v-784h198v-198h783v198h198v402l129 -130q30 -31 79 -46v-226h193v-590h-589v194h-793v-194h-589
v590h193v784h-193v590h589v-194zM1571 236h198v198h-198v-198zM194 236h198v198h-198v-198zM392 1812h-198v-198h198v198z" />
</svg>