<svg xmlns="http://www.w3.org/2000/svg" xmlns:xlink="http://www.w3.org/1999/xlink" version="1.1" viewBox="-10 0 2058 2048">
   <path fill="currentColor"
d="M1451 1188h-50q-47 -83 -101 -237q-26 -74 -85 -267l100 96q182 142 382 176q103 20 161 10l11 -70q4 -80 -6 -161q-15 -118 -60 -207q-55 -116 -156 -186q-160 -126 -337 -171q-119 -25 -201 -10l-10 -80q-4 -56 -10 -81l-151 10q0 222 -156 639q-103 270 -231 539
q-163 20 -274 140q-113 122 -113 295q0 174 125 299q126 126 302 126t292 -116q-76 -173 -76 -314t76 -310q-50 -55 -161 -95q189 -410 291 -730q29 179 94 390q64 208 143 370q-101 60 -164 158q-62 96 -62 219q0 177 125 302q126 126 305 126q178 0 304 -126t126 -304
q0 -179 -126 -305q-125 -125 -307 -125zM596 1459q-65 0 -113 48t-48 113h-111q0 -115 78 -193t194 -78v110zM1451 1459q-60 0 -111 48q-50 47 -50 113h-106q0 -115 78 -193t189 -78v110z" />
</svg>