<svg xmlns="http://www.w3.org/2000/svg" xmlns:xlink="http://www.w3.org/1999/xlink" version="1.1" viewBox="-10 0 2068 2048">
   <path fill="currentColor"
d="M636 1253q-49 -87 -60 -170h896q-7 82 -54 170h-782zM1024 1477q-166 0 -298 -112h596q-132 112 -298 112zM1024 571q166 0 298 112h-596q132 -112 298 -112zM636 795h778q47 85 58 170h-896q11 -83 60 -170zM0 0v2048h2048v-2048h-2048zM1024 1707q-184 0 -344 -91
q-157 -90 -248 -248q-90 -159 -90 -344t90 -344q91 -158 248 -248q160 -91 344 -91t344 91q157 90 248 248q90 159 90 344t-90 344q-91 158 -248 248q-160 91 -344 91z" />
</svg>