<svg xmlns="http://www.w3.org/2000/svg" xmlns:xlink="http://www.w3.org/1999/xlink" version="1.1" viewBox="-10 0 2058 2048">
   <path fill="currentColor"
d="M409 0q-86 0 -146 60q-61 61 -61 142v1644q0 81 61 142q60 60 146 60h1230q87 0 147 -60t60 -142v-1644q0 -82 -60 -142t-147 -60h-1230zM1024 308q141 0 257 67q121 70 188 185q69 118 69 257t-69 257q-68 117 -188 188q-119 70 -257 70q-101 0 -194 -39
q-96 -40 -166 -110q-72 -72 -113 -166t-41 -197t41 -197t113 -166q71 -71 166 -111q91 -38 194 -38zM1024 409q-68 107 -96 206h192q-28 -105 -96 -206zM890 433q-150 48 -221 182h149q32 -104 72 -182zM1159 433q44 77 72 182h149q-71 -129 -221 -182zM625 716
q-9 53 -9 104t9 103h173q-5 -70 -5 -106q0 -38 5 -101h-173zM904 716q-10 58 -10 101t10 106h240q10 -75 10 -103q0 -29 -10 -104h-240zM1250 716q5 63 5 101q0 36 -5 106h173q10 -58 10 -103q0 -46 -10 -104h-173zM669 1024q72 130 221 183q-39 -77 -72 -183h-149z
M928 1024q28 100 96 207q68 -101 96 -207h-192zM1231 1024q-29 104 -72 183q149 -53 221 -183h-149zM510 1538h1028v202h-1028v-202z" />
</svg>