<svg xmlns="http://www.w3.org/2000/svg" xmlns:xlink="http://www.w3.org/1999/xlink" version="1.1" viewBox="-10 0 2068 2048">
   <path fill="currentColor"
d="M0 130l134 -130l1914 1914l-130 134l-206 -206q-90 -9 -154 -74q-63 -65 -72 -151l-154 -159v384h-1026v-1405zM1922 432q72 76 72 182v988l-152 -148v-605q-47 19 -102 19q-106 0 -180 -74t-74 -180q0 -82 46 -146q45 -65 118 -94l-216 -215l110 -106zM1108 715h18v-509
h-532l-176 -182q48 -24 96 -24h612q86 0 146 60t60 146v715h102q86 0 146 60t60 146v120zM514 715h76l-76 -72v72zM514 921v715h612v-379l-334 -336h-278zM1740 715q44 0 73 -29t29 -72t-29 -72t-72 -29t-72 29t-29 72t29 72t71 29z" />
</svg>