<svg xmlns="http://www.w3.org/2000/svg" xmlns:xlink="http://www.w3.org/1999/xlink" version="1.1" viewBox="-10 0 2058 2048">
   <path fill="currentColor"
d="M308 1332v-101h-106v-207h106v-101h202v409h-202zM1740 1024v-101h-202v409h202v-101h106v-207h-106zM1639 409h-221q-24 -106 -103 -185q-81 -81 -190 -109v-115h-202v115q-109 28 -190 109q-79 79 -103 185h-221v206h1230v-206zM1639 2048h-1230q0 -82 60 -142t147 -60
v-1130h817v1130q86 0 146 60t60 142zM818 1125q0 87 60 147t146 60q87 0 147 -60t60 -145q0 -84 -60 -144t-147 -60q-86 0 -146 60t-60 142z" />
</svg>