<svg xmlns="http://www.w3.org/2000/svg" xmlns:xlink="http://www.w3.org/1999/xlink" version="1.1" viewBox="-10 0 2068 2048">
   <path fill="currentColor"
d="M1846 988h202v207h-202q-212 0 -414 -106q-192 101 -408 101t-408 -101q-202 106 -414 106h-202v-207h202q217 0 414 -135q186 130 408 130t408 -130q197 135 414 135zM1846 373h202v206h-202q-214 0 -414 -105q-192 101 -408 101t-408 -101q-200 105 -414 105h-202v-206
h202q217 0 414 -135q186 130 408 130t408 -130q197 135 414 135zM1846 1603h202v207h-202q-212 0 -414 -106q-192 101 -408 101t-408 -101q-202 106 -414 106h-202v-207h202q218 0 414 -134q186 130 408 130t408 -130q196 134 414 134z" />
</svg>