<svg xmlns="http://www.w3.org/2000/svg" xmlns:xlink="http://www.w3.org/1999/xlink" version="1.1" viewBox="-10 0 2058 2048">
   <path fill="currentColor"
d="M38 301l128 -125l1748 1747l-126 125l-576 -573q-66 56 -88 83q-43 47 -60 106q-49 138 -110 218q-64 84 -164 134q-71 32 -162 32q-162 0 -277 -115t-115 -278h198q0 83 58 141t136 58q40 0 80 -19q53 -26 92 -78q35 -48 74 -153q26 -91 88 -162q40 -50 110 -106
l-632 -638q-6 25 -6 70h-198q0 -122 38 -232zM1340 1059q80 -146 80 -291q0 -133 -66 -248q-62 -111 -178 -180q-111 -67 -252 -67q-172 0 -304 106l-144 -143q193 -157 448 -157q194 0 352 90q156 90 250 249q92 157 92 352q0 193 -106 381l-46 74l-144 -143zM1554 139
l138 -139q154 150 236 347q82 201 82 421q0 201 -74 390q-72 185 -202 335l-140 -138q101 -118 160 -271q58 -146 58 -316q0 -182 -68 -343q-67 -163 -190 -286zM1174 768q0 70 -36 129l-342 -338q59 -37 128 -37q103 0 176 72q74 72 74 174z" />
</svg>