<svg xmlns="http://www.w3.org/2000/svg" xmlns:xlink="http://www.w3.org/1999/xlink" version="1.1" viewBox="-10 0 2058 2048">
   <path fill="currentColor"
d="M659 543l-163 -91q81 -130 216 -178q-9 -29 -36 -50q-28 -22 -60 -22v-202q114 0 202 77v125q32 0 60 22q27 21 36 50q-81 29 -149 101q-67 71 -106 168zM616 923q0 -120 57 -216l-134 -77q-59 25 -94 74q-36 51 -36 113v106q0 472 279 784q176 200 442 307
q-226 -178 -361 -423q-153 -296 -153 -668zM1639 817v1231l-86 -29q-111 -41 -202 -101q-142 -88 -245 -202q-131 -146 -202 -322q-86 -214 -86 -471v-106q0 -54 28 -101q28 -48 77 -72l125 72l183 -101l178 101l129 -72q44 24 72 72q29 49 29 101zM1433 1731v-765
l-202 -115l-207 115q9 280 144 491q99 161 265 274zM894 471l154 91l183 -101l178 101l153 -91q-87 -154 -235 -202q-15 -116 -101 -192q-88 -77 -202 -77v202q32 0 60 22q27 21 36 50q-139 48 -226 197z" />
</svg>