<svg xmlns="http://www.w3.org/2000/svg" xmlns:xlink="http://www.w3.org/1999/xlink" version="1.1" viewBox="-10 0 2068 2048">
   <path fill="currentColor"
d="M819 379v-346l-509 509l509 514v-470q119 0 235 45q113 44 197 128q116 120 156 278q20 80 20 159t-20 158q-41 158 -156 274q-98 103 -228 147q-135 46 -262 31l-53 202q190 24 365 -34q185 -56 322 -202q153 -153 208.5 -364.5t0.5 -423.5q-55 -209 -209 -369
q-117 -116 -264 -176q-149 -60 -312 -60zM238 1772q123 124 273 187l63 -206q-107 -49 -183 -125q-145 -135 -177 -329q-34 -196 53 -367l-154 -154q-139 239 -106 519q32 277 231 475zM1846 1297h202v-615h-202v615zM1846 1710h202v-207h-202v207z" />
</svg>