<svg xmlns="http://www.w3.org/2000/svg" xmlns:xlink="http://www.w3.org/1999/xlink" version="1.1" viewBox="-10 0 2068 2048">
   <path fill="currentColor"
d="M798 798q90 -95 226 -95t228 93q92 92 92 228q0 137 -92 229t-228 92t-228 -92q-94 -93 -94 -229t96 -226zM642 643q-100 105 -134.5 243t0.5 276q34 137 138 241t240 138q138 35 276 0q137 -34 240.5 -138t137.5 -241q35 -138 0 -276q-34 -137 -137.5 -241t-240.5 -138
q-138 -35 -276 0q-137 34 -244 136zM1822 226q-30 10 -66 15q-80 25 -150 75q-26 -186 -160 -316q-96 89 -122 211q-25 105 0 206q117 30 196.5 110t109.5 196q101 26 206 0q124 -26 212 -120q-132 -131 -306 -161q69 -103 80 -216zM226 1822q30 -10 66 -15q79 -25 150 -70
q25 180 160 311q94 -88 120 -211q26 -105 0 -205q-113 -29 -194 -111q-82 -81 -112 -196q-100 -25 -204 0q-122 26 -212 121q132 131 306 161q-69 103 -80 215z" />
</svg>