<svg xmlns="http://www.w3.org/2000/svg" xmlns:xlink="http://www.w3.org/1999/xlink" version="1.1" viewBox="-10 0 2068 2048">
   <path fill="currentColor"
d="M1024 0q-200 0 -392 77q-188 76 -333.5 221t-220.5 334q-78 192 -78 392t78 392q75 189 220.5 334t333.5 221q192 77 392 77t392 -77q188 -76 333.5 -221t220.5 -334q78 -192 78 -392t-78 -392q-75 -189 -220.5 -334t-333.5 -221q-192 -77 -392 -77zM1024 202
q222 0 410.5 110t299.5 301q112 191 112 411t-112 411q-110 190 -300 300q-190 111 -410.5 111t-411.5 -111q-189 -110 -300 -300q-110 -191 -110 -411t110 -411q112 -191 300.5 -301t411.5 -110zM1024 409q-168 0 -310 81q-142 80 -224 224t-82 310t82 310t224 224
q142 81 309.5 81t310.5 -81q141 -80 222 -224q82 -144 82 -310t-82 -310q-81 -144 -222 -224q-143 -81 -310 -81zM1024 615q166 0 287 121t121 288t-121 288t-288 121t-287 -121q-120 -120 -120 -288t120 -288q120 -121 288 -121zM1024 817q-86 0 -146 60t-60 147t60 147
t146 60t146 -60t60 -147t-60 -147t-146 -60z" />
</svg>