<svg xmlns="http://www.w3.org/2000/svg" xmlns:xlink="http://www.w3.org/1999/xlink" version="1.1" viewBox="-10 0 2068 2048">
   <path fill="currentColor"
d="M1846 555h-112l-1230 1231h-302q-82 0 -142 -60t-60 -147q0 -86 60 -146t142 -60h134l174 -173v-443q0 -38 30 -69q32 -32 76 -32h100q44 0 73 32t29 69v135l748 -750h280q82 0 142 60t60 147q0 86 -60 146t-142 60zM664 248q66 0 110 43q44 44 44 108q0 65 -44 111
q-44 45 -108 45q-66 0 -110 -45q-46 -46 -46 -111q0 -64 46 -108q44 -43 108 -43zM1860 1339l-562 567l-188 -187l562 -568l-188 -187h564v562z" />
</svg>