<svg xmlns="http://www.w3.org/2000/svg" xmlns:xlink="http://www.w3.org/1999/xlink" version="1.1" viewBox="-10 0 2058 2048">
   <path fill="currentColor"
d="M795 0q-213 0 -362 149q-150 150 -150 363q0 99 43 203q-74 68 -115 165q-40 95 -40 203q0 212 150 362t362 150q73 0 171 -32v485h224v-597q92 26 170 26q129 0 243 -48t202 -136t136 -202t48 -238q0 -123 -48 -237q-49 -116 -136 -203q-88 -88 -202 -136t-243 -48h-26
q-75 -107 -187 -168t-240 -61zM795 229q113 0 195 78t88 189q81 -43 170 -43q165 0 283 118q117 117 117 282q0 166 -117 283t-285 117q-169 0 -286 -128q-17 108 -96 174q-80 66 -181 66q-117 0 -202 -82q-86 -83 -86 -195q0 -113 64 -187q40 -51 166 -128
q-63 -84 -88 -144q-24 -59 -24 -117q0 -118 82 -200q83 -83 200 -83z" />
</svg>