<svg xmlns="http://www.w3.org/2000/svg" xmlns:xlink="http://www.w3.org/1999/xlink" version="1.1" viewBox="-10 0 2068 2048">
   <path fill="currentColor"
d="M1312 1380q-35 -55 -86 -149l-6 -10q-104 -183 -192 -255q-114 -105 -312 -134v-476q0 -149 -106 -253q-104 -103 -254 -103t-253 103t-103 253v1692h202v-202h308v202h206v-1010q124 24 198 97q48 49 128 187q51 92 102 168q189 286 370 409q221 149 534 149v-202
q-251 0 -424 -120q-144 -101 -312 -346zM356 202q66 0 110 46q44 44 44 108v461h-308v-461q0 -62 46 -108t108 -46zM202 1639v-206h308v206h-308zM510 1231h-308v-207h308v207z" />
</svg>