<svg xmlns="http://www.w3.org/2000/svg" xmlns:xlink="http://www.w3.org/1999/xlink" version="1.1" viewBox="-10 0 2068 2048">
   <path fill="currentColor"
d="M1024 606q118 0 199 81t81 197q0 118 -82 200q-80 80 -198 80t-198 -80q-80 -82 -80 -200q0 -116 81 -197t197 -81zM1582 1490l166 -170q-77 -64 -166 -64q-96 0 -163 67t-67 165t66 166q68 68 164 68q109 0 188 -92h156q-43 104 -136 168q-91 62 -208 62
q-154 0 -262 -108t-108 -263t109 -264t265 -109q157 0 258 114l108 -114v374h-370zM1024 1490q0 -66 10 -96h-10q-267 0 -486 -136q-220 -139 -332 -374q111 -233 332 -372q219 -136 486.5 -136t485.5 136q222 139 334 372q-9 5 -14 18l-8 22q89 27 170 82l56 -122
q-122 -310 -400 -502q-280 -194 -623.5 -194t-622.5 194q-280 193 -402 502q123 311 402 504q279 194 622 194h10q-10 -25 -10 -92z" />
</svg>