<svg xmlns="http://www.w3.org/2000/svg" xmlns:xlink="http://www.w3.org/1999/xlink" version="1.1" viewBox="-10 0 2068 2048">
   <path fill="currentColor"
d="M1852 633h-1756l10 -60q14 -76 46 -146q51 -101 132 -174q109 -90 260 -146q180 -59 430 -59t430 59q153 56 260 146q80 71 132 174q34 73 46 146zM1106 1414h-1010v96q0 123 85 208t209 85h716q-36 -96 -36 -194q0 -99 36 -195zM1934 1094q14 -37 14 -73q0 -78 -57 -135
t-135 -57h-878l-246 192l-242 -192h-198q-76 0 -134 57q-58 58 -58 138q0 79 58 137q58 57 134 57h1028q83 -91 198 -144t238 -53q151 0 278 73zM1756 1510v-292h-196v292h-294v197h294v293h196v-293h292v-197h-292z" />
</svg>