<svg xmlns="http://www.w3.org/2000/svg" xmlns:xlink="http://www.w3.org/1999/xlink" version="1.1" viewBox="-10 0 2058 2048">
   <path fill="currentColor"
d="M1622 301l-246 192l86 297l-255 -178l-256 178l87 -297l-246 -192l310 -9l105 -292l105 292zM1959 977l-159 119l59 196l-164 -114l-169 114l59 -196l-159 -119l200 -5l69 -191l64 191zM1740 1456q37 -5 76 27q37 30 50 76q12 42 -12 80q-49 72 -104 123
q-187 187 -438 253t-502 0t-438 -253q-186 -186 -251 -438q-65 -251 0 -502q65 -252 251 -438q64 -63 123 -105q36 -23 82 -9t76 50t25 77q-18 212 52 416t228 362q158 157 363 231q203 73 419 50zM1581 1652q-212 -9 -408 -95q-200 -88 -354 -242q-154 -155 -242 -352
q-87 -197 -96 -406q-136 150 -180 345q-43 190 12 385q54 192 198 336q142 142 335 198q192 55 388 12t347 -181z" />
</svg>