<svg xmlns="http://www.w3.org/2000/svg" xmlns:xlink="http://www.w3.org/1999/xlink" version="1.1" viewBox="-10 0 2068 2048">
   <path fill="currentColor"
d="M1211 884v-166q151 -10 254 -26l39 162q-69 99 -39 222l26 92l384 384q152 -39 170 -249q13 -145 -40 -358q-14 -59 -50 -105q-38 -49 -89 -78l-39 -157q65 -21 126 -48v-205q-154 83 -375 131q-253 56 -554 56q-73 0 -170 -4zM1835 1421q-41 11 -83.5 -33t-86.5 -142
q-41 -106 -65 -200l-5 -35q0 -46 22 -75q25 -43 87 -61q83 -18 136 40q20 27 30 65l22 105q18 119 13 205q-9 113 -70 131zM1299 1216l-136 -135l-366 -363h4l-672 -672l-117 118l257 262q-94 -35 -174 -74v205q61 27 126 48l-39 157q-52 30 -90 78q-36 46 -50 105
q-52 214 -39 358q18 214 174 253q106 26 197 -52q132 -115 209 -428q30 -123 -39 -222l31 -127l218 218q-48 71 -48 149q0 218 48 358q70 200 231 200q70 0 126 -43q75 -58 114 -188l584 581l118 -118zM448 1046q-17 50 -31 104q-39 118 -82 188q-62 96 -123 83
q-82 -22 -69 -236q9 -107 34 -205l14 -35q23 -39 52 -57q45 -26 100 -13q87 23 105 96q9 40 0 75zM1024 1513q-61 0 -100 -109q-21 -68 -35 -201l-5 -109v-13q4 -16 9 -31l253 249q-34 214 -122 214z" />
</svg>