<svg xmlns="http://www.w3.org/2000/svg" xmlns:xlink="http://www.w3.org/1999/xlink" version="1.1" viewBox="-10 0 2068 2048">
   <path fill="currentColor"
d="M1075 1660h-882q-78 0 -135 -57t-57 -140v-1171q0 -83 57 -140t135 -57h585l197 197h782q78 0 135 57t57 140v924l-101 -101l5 -46q0 -132 -66 -244t-179 -177q-112 -64 -244 -64q-134 0 -245 64t-176 177q-64 112 -64 244q0 119 52 222t144 172zM2036 1774l-403 -402
q32 -74 14 -158q-19 -85 -80 -147q-61 -60 -153 -77q-91 -16 -174 20l192 192l-132 133l-193 -192q-41 84 -25 171q17 91 80 154q64 64 147 82q81 18 160 -14l398 403q14 14 32 14t32 -14l100 -101q13 -13 16 -34t-11 -30z" />
</svg>