<svg xmlns="http://www.w3.org/2000/svg" xmlns:xlink="http://www.w3.org/1999/xlink" version="1.1" viewBox="-10 0 2058 2048">
   <path fill="currentColor"
d="M1024 1118q-206 0 -327 70q-88 53 -118 136q74 35 120 104q46 70 46 153q0 118 -81 199t-196 81q-116 0 -199 -81t-83 -199q0 -88 52 -159q53 -73 136 -103v-777q-83 -30 -136 -103q-52 -71 -52 -159q0 -118 83 -199q82 -81 199 -81q115 0 196 81t81 199q0 85 -51 159
q-50 73 -133 103v493q138 -104 371 -104q164 0 262 -75q70 -52 96 -135q-75 -30 -122 -100q-48 -71 -48 -158q0 -113 81 -196t196 -83q116 0 199 83t83 196q0 96 -55 171q-54 73 -142 96q-25 146 -109 244q-121 144 -349 144zM465 1490q-35 0 -63 28t-28 65q0 38 28 66
t66 28q37 0 65 -28t28 -66q0 -37 -28 -65t-68 -28zM465 184q-35 0 -63 28t-28 66q0 37 28 65q29 29 66 29q36 0 65 -29q28 -28 28 -65q0 -38 -28 -66t-68 -28zM1399 372q-39 0 -67 28q-29 29 -29 66q0 36 29 65q28 28 65 28q38 0 66 -28t28 -65q0 -38 -28 -66t-64 -28z
M1491 1022v140q153 0 262 109t109 267q0 110 -61 205l-100 -101q21 -49 21 -104q0 -96 -67 -166t-164 -70v139l-209 -209q2 -2 15.5 -16t61 -61.5zM1491 2048v-139q-153 0 -262 -109t-109 -262q0 -115 61 -206l101 101q-22 47 -22 105q0 96 67 163q68 68 164 68v-140
l210 214q-5 5 -28 27.5t-77 75t-105 102.5z" />
</svg>