<svg xmlns="http://www.w3.org/2000/svg" xmlns:xlink="http://www.w3.org/1999/xlink" version="1.1" viewBox="-10 0 2058 2048">
   <path fill="currentColor"
d="M834 1074q-177 0 -334 -41q-154 -40 -252 -110v-274q110 60 264 96q153 36 321.5 36t322.5 -36q153 -36 262 -96v237q52 -9 96 -9q45 0 100 9v-498q0 -106 -104 -194q-107 -90 -286 -142t-390 -52q-213 0 -392 52t-286 142q-104 88 -104 194v978q0 106 104 195
q105 88 286.5 141t391.5 53h26q-26 -100 -26 -197q-175 0 -320 -36q-120 -32 -198 -87q-68 -40 -68 -69v-219q248 119 586 119h68q60 -123 156 -210q-114 18 -224 18zM834 196q170 0 320 37q117 31 196 87q68 41 68 70q0 30 -68 71q-80 52 -196 83q-148 41 -320.5 41
t-319.5 -41q-119 -31 -198 -83q-68 -40 -68 -71q0 -30 68 -70q78 -55 198 -87q149 -37 320 -37zM1874 1618v-96l110 -78q19 -23 10 -32l-96 -164q0 -10 -32 -10l-114 51q-65 -43 -92 -51l-18 -128q0 -5 -6 -11q-8 -7 -12 -7h-196q-28 0 -28 18l-24 128l-76 51l-114 -51
q-18 0 -32 10l-96 164q0 23 8 32l110 78v96l-110 78q-18 18 -8 32l96 164q13 9 32 9l114 -50q36 37 76 50l24 128q18 19 28 19h196q4 0 12 -7q6 -6 6 -12l18 -128l78 -50l118 41q20 0 28 -9l100 -169q6 -5 6 -12q0 -6 -6 -6zM1514 1705q-55 0 -100 -44q-46 -44 -46 -100
q0 -57 46 -103t102 -46t100 46t44 103q0 56 -44 100t-102 44z" />
</svg>