<svg xmlns="http://www.w3.org/2000/svg" xmlns:xlink="http://www.w3.org/1999/xlink" version="1.1" viewBox="-10 0 2058 2048">
   <path fill="currentColor"
d="M1024 1024q-130 0 -219 89q-88 88 -88 219q0 130 88 218q89 89 219 89t219 -89t89 -218q0 -130 -89 -219t-219 -89zM1024 1846q-138 0 -257 -70t-187 -187q-70 -120 -70 -257q0 -101 41 -195t113 -166t166 -113t194 -41q138 0 257 70q120 71 188 187q69 118 69 258
q0 138 -69 257q-68 116 -188 187q-119 70 -257 70zM1024 202q87 0 147 60t60 147q0 86 -60 146t-147 60q-86 0 -146 -60t-60 -146q0 -87 60 -147t146 -60zM1538 0h-1028q-82 0 -142 60t-60 142v1644q0 82 60 142t142 60h1028q82 0 142 -60t60 -142v-1644q0 -82 -60 -142
t-142 -60z" />
</svg>