<svg xmlns="http://www.w3.org/2000/svg" xmlns:xlink="http://www.w3.org/1999/xlink" version="1.1" viewBox="-10 0 2068 2048">
   <path fill="currentColor"
d="M1024 112l-240 240l240 240v-480zM144 0l-144 144l540 539h-540v682h454l570 571v-768l486 485q-128 96 -256 134v234q231 -54 416 -208l234 235l144 -144l-1024 -1024zM1818 1024q0 154 -58 299l170 176q118 -224 118 -470q0 -243 -104 -453q-104 -208 -286 -352
q-179 -143 -404 -197v234q243 75 404 286q160 209 160 477zM1536 1024q0 -151 -78 -272q-77 -123 -204 -187v251l276 277q6 -18 6 -69z" />
</svg>