<svg xmlns="http://www.w3.org/2000/svg" xmlns:xlink="http://www.w3.org/1999/xlink" version="1.1" viewBox="-10 0 2058 2048">
   <path fill="currentColor"
d="M1645 801h-150q0 129 -64 233q-64 105 -175 163q-110 58 -232 58q-121 0 -231 -58q-111 -58 -175 -163q-65 -106 -65 -233h-150q0 149 71 279q70 128 194 213q120 82 269 108v292h175v-292q149 -26 269 -108q124 -85 194 -213t70 -279zM1291 2048h179v-179h-179v179z
M937 2048h175v-179h-175v179zM1024 1068q113 0 190 -77t77 -190v-534q0 -108 -77 -188q-76 -79 -190 -79q-113 0 -189 79q-78 81 -78 188v534q0 112 78 190q77 77 189 77zM578 2048h179v-179h-179v179z" />
</svg>