<svg xmlns="http://www.w3.org/2000/svg" xmlns:xlink="http://www.w3.org/1999/xlink" version="1.1" viewBox="-10 0 2068 2048">
   <path fill="currentColor"
d="M1652 856q-44 -224 -220 -370t-408 -146q-180 0 -334 94q-155 95 -234 250q-131 17 -232 86q-105 72 -164 182q-60 112 -60 244q0 135 68 254q67 117 186 188q118 70 258 70h1108q117 0 214 -58q98 -58 156 -156q58 -97 58 -214q0 -168 -114 -290q-115 -122 -282 -134z
M1108 1452h-168v-172h168v172zM1264 1008q-37 49 -96 80q-35 19 -48 46q-12 25 -12 62h-168q0 -67 26 -104q25 -35 90 -76q33 -20 52 -50q20 -31 20 -70q0 -41 -22 -64q-22 -24 -66 -24q-31 0 -56 20q-24 20 -24 60h-168q-7 -100 64 -152t188 -52q116 0 186 58t70 154
q0 60 -36 112z" />
</svg>