<svg xmlns="http://www.w3.org/2000/svg" xmlns:xlink="http://www.w3.org/1999/xlink" version="1.1" viewBox="-10 0 2068 2048">
   <path fill="currentColor"
d="M0 432q0 -116 116 -216q113 -96 316 -156q197 -58 430.5 -58t431.5 58q202 60 314 156q116 100 116 217.5t-116 216.5q-114 99 -314 158q-198 58 -431.5 58t-430.5 -58q-201 -59 -316 -158q-116 -99 -116 -218zM1694 1082q30 -56 30 -112v-322q0 115 -116 214
q-112 97 -314 156q-198 58 -431.5 58t-430.5 -58q-203 -59 -316 -156q-116 -99 -116 -214v322q0 116 116 216q113 96 316 156q197 58 430 58q106 0 202 -10q85 -141 232 -228q146 -86 318 -86q52 0 80 6zM978 1612q-40 4 -116 4q-233 0 -430 -58q-203 -59 -316 -156
q-116 -99 -116 -214v322q0 116 116 216q113 96 316 156q197 58 430 58q92 0 142 -6q-36 -103 -36 -212q0 -53 10 -110zM2048 1722l-324 -322v216h-434v218h434v212z" />
</svg>