<svg xmlns="http://www.w3.org/2000/svg" xmlns:xlink="http://www.w3.org/1999/xlink" version="1.1" viewBox="-10 0 2058 2048">
   <path fill="currentColor"
d="M846 562l-158 -91q87 -149 226 -197q-10 -29 -36 -50q-29 -22 -60 -22v-202q118 0 206 77q85 76 100 192q144 48 236 202l-158 91l-178 -101zM1432 817v1231l-82 -29q-112 -42 -206 -101q-137 -88 -240 -202q-136 -144 -208 -322q-80 -216 -80 -471v-106q0 -55 26 -101
q26 -48 74 -72l130 72l178 -101l178 101l130 -72q46 23 74 72q26 48 26 101zM1230 966l-206 -115l-206 115q15 280 144 491q99 162 268 274v-765z" />
</svg>