<svg xmlns="http://www.w3.org/2000/svg" xmlns:xlink="http://www.w3.org/1999/xlink" version="1.1" viewBox="-10 0 2058 2048">
   <path fill="currentColor"
d="M2004 933h-938v278h668q-23 274 -230 428q-182 130 -438 130q-196 0 -364 -96q-169 -96 -270 -267q-100 -172 -100 -380t98 -379q100 -172 266.5 -270t367.5 -98q199 0 372 101q87 47 136 101l192 -202l-44 -43q-65 -55 -140 -97q-100 -63 -220 -96q-143 -43 -302 -43
q-284 0 -524 144q-231 139 -370 378q-140 238 -140 500q0 263 134 500q135 238 366 377q251 149 548 149q274 0 490 -115t339 -329.5t123 -488.5q0 -113 -20 -182z" />
</svg>