<svg xmlns="http://www.w3.org/2000/svg" xmlns:xlink="http://www.w3.org/1999/xlink" version="1.1" viewBox="-10 0 2068 2048">
   <path fill="currentColor"
d="M1724 1088v-656q0 -116 -116 -216q-112 -96 -314 -156q-198 -58 -431.5 -58t-430.5 58q-203 60 -316 156q-116 100 -116 216v1078q0 116 116 216q113 96 316 156q197 58 430 58q92 0 142 -6q-36 -103 -36 -212v-4q-33 4 -106 4q-192 0 -352 -40q-133 -36 -218 -96
q-76 -45 -76 -76v-242q275 132 646 132q106 0 202 -10q85 -141 232 -228q146 -86 318 -86q41 0 110 12zM1508 1022q-110 76 -278 120q-170 46 -367 46t-369 -46q-169 -44 -278 -120v-304q121 66 290 106q172 42 356 42t356 -42q169 -40 290 -106v304zM862 648
q-187 0 -352 -46q-134 -36 -218 -90q-76 -46 -76 -78.5t76 -77.5q85 -60 218 -96q160 -40 353 -40t353 40q130 36 216 96q76 45 76 77.5t-76 78.5q-85 54 -216 90q-166 46 -354 46zM1724 2046v-212h-434v-218h434v-216l324 322z" />
</svg>