<svg xmlns="http://www.w3.org/2000/svg" xmlns:xlink="http://www.w3.org/1999/xlink" version="1.1" viewBox="-10 0 2058 2048">
   <path fill="currentColor"
d="M1860 933q0 254 -109 488q-111 238 -300 401q-191 164 -427 226q-236 -62 -427 -226q-189 -163 -300 -401q-109 -234 -109 -488v-558l836 -375l836 375v558zM1024 1861q171 -48 320 -187q150 -139 240 -332q89 -190 89 -392v-457l-649 -288l-649 288v457q0 202 89 392
q90 193 240 332q149 139 320 187zM1024 467q118 0 198 80q81 81 81 198q0 91 -53 164t-135 98v205h188v183h-188v187h-182v-575q-83 -26 -136 -98q-52 -71 -52 -164q0 -117 81 -198q80 -80 198 -80zM1024 654q-39 0 -65 26t-26 65q0 40 26 66t65 26t65 -26t26 -66
q0 -39 -26 -65t-65 -26z" />
</svg>