<svg xmlns="http://www.w3.org/2000/svg" xmlns:xlink="http://www.w3.org/1999/xlink" version="1.1" viewBox="-10 0 2058 2048">
   <path fill="currentColor"
d="M968 0q-18 0 -32 14q-16 15 -16 34v462q-20 0 -24 4q-124 33 -206 193q-76 145 -76 317v615v308q0 43 29 72t71 29h616q42 0 71 -29t29 -72q4 -184 4 -615l-4 -308q0 -176 -72 -322q-82 -159 -206 -188q-8 -4 -30 -4v-462q0 -20 -14 -34t-34 -14h-106zM1022 702
q59 0 82 14q8 4 24 20q27 28 48 62q52 108 52 226v822h-412v-822q0 -121 52 -226q20 -34 48 -62q16 -16 24 -20q22 -14 82 -14z" />
</svg>