<svg xmlns="http://www.w3.org/2000/svg" xmlns:xlink="http://www.w3.org/1999/xlink" version="1.1" viewBox="-10 0 2068 2048">
   <path fill="currentColor"
d="M1532 258q-154 0 -268 114t-114 268v766q0 156 114 270t268 114h132q156 0 270 -114t114 -270v-382q0 -156 -114 -270t-270 -114h-258q0 -54 36 -90t90 -36h258q102 0 180 -78t78 -178h-516zM132 640v258h384q52 0 88 36t36 90h-256q-156 0 -270 114q-114 112 -114 268
q0 158 114 270q114 114 270 114h514v-766q0 -156 -114 -270t-268 -114h-384zM1406 898h258q54 0 90 36t36 90v382q0 54 -36 90t-90 36h-132q-54 0 -90 -36t-36 -90v-508zM384 1282h256v250h-256q-54 0 -90 -36t-36 -90q0 -52 36 -88t90 -36z" />
</svg>