<svg xmlns="http://www.w3.org/2000/svg" xmlns:xlink="http://www.w3.org/1999/xlink" version="1.1" viewBox="-10 0 2068 2048">
   <path fill="currentColor"
d="M1750 800q0 -28 -8 -69q-19 -33 -54 -46l-32 -4h-192v-96q0 -65 -52 -87q-23 -14 -50 -14h-192v-96q0 -61 -50 -87q-22 -9 -50 -9h-96v-196q0 -41 -28 -69q-13 -18 -44 -27h-24q-238 0 -440 116q-204 117 -320 320q-118 204 -118 441q0 222 106 419q104 192 290 315
q184 121 404 139q98 139 246 218q149 80 316 80q187 0 346 -92q157 -92 248 -249q92 -157 92 -345q0 -170 -80 -318q-77 -145 -218 -244zM938 832q-114 91 -178 219q-36 -18 -58 -53q-20 -34 -20 -75q0 -59 44 -103q42 -43 104 -43q63 0 108 55zM340 973q-60 0 -104 -43
q-44 -44 -44 -103t44 -103q44 -43 106 -43t102 43q42 44 42 103t-42 103q-40 43 -104 43zM486 438q0 -65 42 -105q45 -41 106 -41q62 0 103 41t41 103q0 61 -41 105t-103 44t-106 -44q-42 -43 -42 -103zM632 1412q0 -65 54 -110q-4 20 -4 60q0 84 22 178q-72 -51 -72 -128z
M1362 1851q-131 0 -244 -66q-110 -65 -176 -179q-64 -112 -64 -244q0 -133 64 -245q65 -112 176 -176q112 -64 244 -64q134 0 246 64q112 65 178 176q66 113 66 245t-66 244q-67 114 -178 179q-113 66 -246 66zM1412 1389l280 165l-74 119l-352 -211v-489h146v416z" />
</svg>