<svg xmlns="http://www.w3.org/2000/svg" xmlns:xlink="http://www.w3.org/1999/xlink" version="1.1" viewBox="-10 0 2068 2048">
   <path fill="currentColor"
d="M2048 418q0 -136 -94 -230t-230 -94q-135 0 -230 94q-96 94 -96 230v48q0 116 -81 197t-199 81q-56 0 -114 -34q-39 -26 -104 -84q-96 -81 -148 -108q-91 -52 -192 -52q-154 0 -263 109t-109 261v96h184v-96q0 -74 55 -129t133 -55q54 0 104 32q43 25 110 82
q72 76 158 116q88 41 186 50q127 0 234 -62q105 -63 170 -172q62 -106 62 -232v-48q0 -56 40 -100q39 -40 98 -40q60 0 100 40q42 42 42 100q-22 122 -78 226q-91 178 -110 380q14 198 114 362q56 92 74 198q0 78 -54 132t-133 54t-133 -54q-56 -54 -56 -132
q0 -146 -102 -248t-246 -102t-247 103t-103 247v48q0 56 -38 98q-39 40 -102 40q-112 0 -195 -83t-83 -195v-188h188v-188h-560v188h188v188q0 127 62 232q62 109 167.5 169.5t238.5 60.5q131 0 226 -94q96 -94 96 -228v-48q0 -66 48 -114t116 -48t116 48t48 114
q0 152 109 261t262 109t262 -109t109 -261q0 -65 -32 -146q-24 -59 -64 -144q-42 -82 -62 -134q-26 -75 -26 -136q0 -60 26 -148q23 -61 66 -154q48 -106 66 -156q26 -85 26 -148z" />
</svg>