<svg xmlns="http://www.w3.org/2000/svg" xmlns:xlink="http://www.w3.org/1999/xlink" version="1.1" viewBox="-10 0 2058 2048">
   <path fill="currentColor"
d="M1218 197h-584v-197h584v197zM1140 1317v22q-53 43 -86 110q-32 66 -32 133v343q0 53 24 114q-70 9 -120 9q-238 0 -438 -117q-203 -118 -320 -320q-120 -205 -120 -441q0 -237 120 -439q118 -201 320 -320q200 -118 438 -118q153 0 292 52q143 53 256 144l138 -142
q64 56 136 138l-136 141q99 122 150 279q-82 -27 -154 -27q-124 0 -232 61q-106 60 -172 163q-64 100 -64 215zM1022 585h-192v686h192v-686zM2000 1591v343q0 46 -38 80q-39 34 -90 34h-534q-46 0 -83 -37t-37 -86v-343q0 -46 38 -83q36 -36 82 -36v-146q0 -102 82 -172
q83 -71 188 -71q104 0 188 71q86 71 86 172v146q46 0 82 39t36 89zM1754 1317q0 -55 -42 -90q-39 -34 -102 -34t-106 34q-44 35 -44 90v146h294v-146z" />
</svg>