<svg xmlns="http://www.w3.org/2000/svg" xmlns:xlink="http://www.w3.org/1999/xlink" version="1.1" viewBox="-10 0 2068 2048">
   <path fill="currentColor"
d="M1170 146q-238 0 -438 118q-202 119 -320 320q-120 202 -120 440h-292l388 388l394 -388h-292q0 -188 90 -344q91 -154 248 -246q156 -92 342 -92t342 92q157 92 248 246q92 157 92 343.5t-92 342.5t-248 248q-155 90 -342 90q-214 0 -398 -122l-136 136q237 184 534 184
q237 0 438 -120q202 -118 320 -320q120 -201 120 -438.5t-120 -439.5q-118 -201 -320 -320q-200 -118 -438 -118zM1366 1024q0 -82 -57 -139t-139 -57t-139 57t-57 139t57 139t139 57t139 -57t57 -139z" />
</svg>