<svg xmlns="http://www.w3.org/2000/svg" xmlns:xlink="http://www.w3.org/1999/xlink" version="1.1" viewBox="-10 0 2058 2048">
   <path fill="currentColor"
d="M409 0q-86 0 -146 60q-61 61 -61 142v1644q0 81 61 142q60 60 146 60h1230q87 0 147 -60t60 -142v-1231l-615 -615h-822zM1125 154l567 562h-567v-562zM1024 923q130 0 219 89t89 219q0 63 -39 120q-22 26 -81 79q-57 51 -77 80q-34 49 -34 105h-154q0 -96 43 -158
q28 -38 92 -87q48 -39 67 -58q29 -40 29 -81q0 -67 -46 -111q-44 -43 -108 -43t-108 43q-46 44 -46 111h-153q0 -131 88 -219q89 -89 219 -89zM947 1692h154v154h-154v-154z" />
</svg>