<svg xmlns="http://www.w3.org/2000/svg" xmlns:xlink="http://www.w3.org/1999/xlink" version="1.1" viewBox="-10 0 2058 2048">
   <path fill="currentColor"
d="M268 1939l126 -181q-158 -136 -246 -325.5t-88 -408.5q0 -190 72 -369q71 -178 208 -315q139 -138 314 -209q179 -72 370 -72q255 0 470 122l128 -181l158 109l-126 181q158 136 246 325.5t88 408.5q0 190 -72 369q-71 178 -208.5 315t-315.5 209t-368 72
q-256 0 -472 -122l-126 181zM1024 249q-208 0 -388 104q-178 103 -282 284q-104 179 -104 387q0 166 68 317q66 148 186 258l882 -1259q-169 -91 -362 -91zM1024 1799q208 0 388 -104q178 -103 282 -284q104 -179 104 -387q0 -166 -68 -317q-66 -148 -186 -258l-882 1259
q169 91 362 91z" />
</svg>