<svg xmlns="http://www.w3.org/2000/svg" xmlns:xlink="http://www.w3.org/1999/xlink" version="1.1" viewBox="-10 0 2058 2048">
   <path fill="currentColor"
d="M1946 1485q0 63 -52 92l-812 452q-24 19 -58.5 19t-57.5 -19l-812 -452q-52 -28 -52 -92v-923q0 -63 52 -91l812 -452q23 -19 57.5 -19t58.5 19l812 452q52 29 52 91v923zM1024 510q-140 0 -258 69q-118 70 -186 188q-70 120 -70 257t70 257q68 118 186 188
q118 69 258 69t256 -69q120 -71 188 -188q70 -119 70 -257t-70 -257q-68 -117 -188 -188q-117 -69 -256 -69z" />
</svg>