<svg xmlns="http://www.w3.org/2000/svg" xmlns:xlink="http://www.w3.org/1999/xlink" version="1.1" viewBox="-10 0 2068 2048">
   <path fill="currentColor"
d="M1818 1024q0 155 -109 267t-267 112q-156 0 -268 -112l-70 -64l122 -123l70 69q60 59 144 59q86 0 147 -61t61 -147t-61 -147t-147 -61q-84 0 -144 59l-422 416q-106 112 -265.5 112t-268.5 -112q-110 -113 -110 -267t110 -267q109 -112 268.5 -112t265.5 112l70 64
l-122 123l-64 -69q-66 -59 -150 -59q-86 0 -147 61t-61 147t61 147t147 61q84 0 150 -59l416 -416q112 -112 268 -112q158 0 267 112t109 267zM2048 229v1590q0 96 -66 162q-68 67 -164 67h-1588q-96 0 -163 -67t-67 -162v-1590q0 -95 67 -162t163 -67h1588q96 0 164 67
q66 66 66 162zM1818 229h-1588v1590h1588v-1590z" />
</svg>