<svg xmlns="http://www.w3.org/2000/svg" xmlns:xlink="http://www.w3.org/1999/xlink" version="1.1" viewBox="-10 0 2068 2048">
   <path fill="currentColor"
d="M230 0q-96 0 -163 67t-67 162v1590q0 95 67 162t163 67h1588q96 0 164 -67q66 -66 66 -162v-1590q0 -96 -66 -162q-68 -67 -164 -67h-1588zM1226 341h182l128 294l122 -294h188l-112 283q-128 308 -204 437q-30 47 -90 78q-57 29 -134 29v-171q70 0 118 -74
q10 -11 26 -48v-6zM390 752l314 315l320 -315l160 160l-314 315l314 320l-160 160l-320 -320l-314 320l-160 -160l314 -320l-314 -315z" />
</svg>