<svg xmlns="http://www.w3.org/2000/svg" xmlns:xlink="http://www.w3.org/1999/xlink" version="1.1" viewBox="-10 0 2068 2048">
   <path fill="currentColor"
d="M230 112q-96 0 -163 67t-67 162v1366q0 95 67 162t163 67h1588q97 0 163.5 -69t66.5 -160v-1366q0 -91 -66.5 -160t-163.5 -69h-1588zM172 283h1706v1482h-1706v-1482zM454 683q-48 0 -80 32t-32 80v458q0 48 32 80t80 32h340q48 0 83 -32t35 -80v-117h-170v59h-230v-342
h230v59h170v-117q0 -48 -35 -80t-83 -32h-340zM1254 683q-48 0 -84 32q-34 31 -34 80v458q0 49 34 80q36 32 84 32h340q48 0 80 -32t32 -80v-117h-170v59h-230v-342h230v59h170v-117q0 -48 -32 -80t-80 -32h-340z" />
</svg>