<svg xmlns="http://www.w3.org/2000/svg" xmlns:xlink="http://www.w3.org/1999/xlink" version="1.1" viewBox="-10 0 2058 2048">
   <path fill="currentColor"
d="M1920 1832l-1684 -1684l-108 108l500 504v128q-44 -44 -104 -56l-64 -20q-55 -16 -106 4q-50 20 -82 68q-25 37 -26 80q-2 46 14 84l220 552q79 199 260 324q179 124 400 124q160 0 296 -66t232 -186l144 144zM1140 1876q-163 0 -302 -92q-137 -91 -202 -248l-220 -560
l44 12q65 17 84 80l84 212h172v-352l748 748q-73 93 -178 146q-106 54 -230 54zM800 496l-164 -164q19 -72 76 -116q56 -44 132 -44q33 0 44 4q17 -78 74 -126q59 -50 138 -50q63 0 118 38q54 37 78 98q30 -8 60 -8q88 0 150 62t62 150v48q11 -4 44 -4q88 0 150 62t62 150
v768q0 75 -16 140l-156 -156v-752q0 -16 -12 -28t-30 -12t-30 12t-12 28v428h-172v-684q0 -16 -12 -28t-30 -12t-30 12t-12 28v668l-172 -172v-624q0 -16 -12 -28t-30 -12t-30 12t-12 28v540l-172 -172v-196q0 -16 -12 -30t-30 -14t-30 14t-12 30v112z" />
</svg>