<svg xmlns="http://www.w3.org/2000/svg" xmlns:xlink="http://www.w3.org/1999/xlink" version="1.1" viewBox="-10 0 2068 2048">
   <path fill="currentColor"
d="M1654 329l384 384q10 9 10 23t-9.5 23t-22.5 9h-288v864q0 40 -28.5 68t-68 28t-67.5 -28t-28 -68v-864h-288q-14 0 -23 -9t-9 -23q0 -13 10 -23l384 -384q8 -9 22 -9t22 9zM0 1568q0 -40 28.5 -68t67.5 -28h960q39 0 67.5 28t28.5 68t-28.5 68t-67.5 28h-960
q-39 0 -67.5 -28t-28.5 -68zM0 1056q0 -40 28.5 -68t67.5 -28h576q40 0 68 28t28 68t-28 68t-68 28h-576q-39 0 -67.5 -28t-28.5 -68zM0 544q0 -40 28.5 -68t67.5 -28h320q40 0 68 28t28 68t-28 68t-68 28h-320q-39 0 -67.5 -28t-28.5 -68z" />
</svg>