<svg xmlns="http://www.w3.org/2000/svg" xmlns:xlink="http://www.w3.org/1999/xlink" version="1.1" viewBox="-10 0 2068 2048">
   <path fill="currentColor"
d="M0 1024q0 -26 19 -45t45 -19h427q26 0 45 19t19 45t-19 45t-45 19h-427q-26 0 -45 -19t-19 -45zM1493 1024q0 -26 19 -45t45 -19h427q26 0 45 19t19 45t-19 45t-45 19h-427q-26 0 -45 -19t-19 -45zM1024 1536q-212 0 -362 -150t-150 -362t150 -362t362 -150t362 150
t150 362t-150 362t-362 150zM1024 1408q159 0 271.5 -112.5t112.5 -271.5t-112.5 -271.5t-271.5 -112.5t-271.5 112.5t-112.5 271.5t112.5 271.5t271.5 112.5z" />
</svg>