<svg xmlns="http://www.w3.org/2000/svg" xmlns:xlink="http://www.w3.org/1999/xlink" version="1.1" viewBox="-10 0 2068 2048">
   <path fill="currentColor"
d="M256 352q0 -146 103 -249t249 -103q194 0 329 158q55 66 87 133q33 -69 87 -134q134 -157 329 -157q146 0 249 103t103 249q0 84 -38 160h70q93 0 158.5 65.5t65.5 158.5v256q0 66 -35 120.5t-93 81.5v630q0 93 -65.5 158.5t-158.5 65.5h-1344q-93 0 -158.5 -65.5
t-65.5 -158.5v-630q-58 -27 -93 -81.5t-35 -120.5v-256q0 -93 65.5 -158.5t158.5 -65.5h70q-38 -73 -38 -160zM928 1216h-608v608q0 14 9 23t23 9h576v-640zM1120 1216v640h576q14 0 23 -9t9 -23v-608h-608zM1120 704v320h704q14 0 23 -9t9 -23v-256q0 -14 -9 -23t-23 -9
h-704zM224 704q-14 0 -23 9t-9 23v256q0 14 9 23t23 9h704v-320h-704zM608 192q-66 0 -113 47t-47 113t47 113t113 47h296q-42 -148 -113 -230q-77 -90 -183 -90zM1144 512h296q66 0 113 -47t47 -113t-47 -113t-113 -47q-106 0 -183 90q-71 82 -113 230z" />
</svg>