<svg xmlns="http://www.w3.org/2000/svg" xmlns:xlink="http://www.w3.org/1999/xlink" version="1.1" viewBox="-10 0 2068 2048">
   <path fill="currentColor"
d="M2048 1376v320q0 93 -65.5 158.5t-158.5 65.5h-1600q-93 0 -158.5 -65.5t-65.5 -158.5v-320q0 -93 65.5 -158.5t158.5 -65.5h1600q93 0 158.5 65.5t65.5 158.5zM2048 352v320q0 93 -65.5 158.5t-158.5 65.5h-1600q-93 0 -158.5 -65.5t-65.5 -158.5v-320
q0 -93 65.5 -158.5t158.5 -65.5h1600q93 0 158.5 65.5t65.5 158.5zM1824 320h-1600q-14 0 -23 9t-9 23v320q0 14 9 23t23 9h1600q14 0 23 -9t9 -23v-320q0 -14 -9 -23t-23 -9zM1824 1344h-1600q-14 0 -23 9t-9 23v320q0 14 9 23t23 9h1600q14 0 23 -9t9 -23v-320
q0 -14 -9 -23t-23 -9z" />
</svg>