<svg xmlns="http://www.w3.org/2000/svg" xmlns:xlink="http://www.w3.org/1999/xlink" version="1.1" viewBox="-10 0 2068 2048">
   <path fill="currentColor"
d="M537 552l2 2l1290 934l1 2l176 126q42 29 42 80q0 40 -28 68t-68 28q-31 0 -58 -20l-152 -110h-1418q-80 0 -137 -56.5t-57 -137.5q0 -58 33 -106l218 -328q5 -8 5 -16v-338l-343 -250q-42 -28 -42 -78q0 -40 27.5 -68t67.5 -28q32 0 59 20zM1478 1470l-901 -652v200
q0 68 -37 122l-217 328h-1l1 2h1h1154zM1024 194q-94 0 -177 36.5t-146 101.5q-28 30 -70 30q-40 0 -67.5 -28t-27.5 -68q0 -38 26 -66q89 -93 208.5 -145.5t253.5 -52.5q130 0 248 50.5t203.5 136t136 204t50.5 247.5v304q0 39 -27.5 67.5t-67.5 28.5t-68 -28.5t-28 -67.5
v-304q0 -90 -35.5 -173t-95 -143t-142.5 -95t-174 -35zM1024 2046q-97 0 -169 -64t-84 -160q-2 -12 7.5 -22t22.5 -10h447q13 0 22.5 10t7.5 22q-12 95 -84.5 159.5t-169.5 64.5z" />
</svg>