<svg xmlns="http://www.w3.org/2000/svg" xmlns:xlink="http://www.w3.org/1999/xlink" version="1.1" viewBox="-10 0 2068 2048">
   <path fill="currentColor"
d="M786 4q39 6 65.5 36.5t26.5 71.5q0 11 -2 17l-60 385h582l66 -419q8 -38 38 -63t70 -25q45 0 77.5 31.5t32.5 77.5q0 9 -2 13l-60 385h318q46 0 78 32t32 78t-32 78t-78 32h-354l-94 585h374q46 0 78 32t32 78t-32 77.5t-78 31.5h-408l-68 420q-7 38 -37.5 63t-70.5 25
q-45 0 -76.5 -32t-31.5 -78v-13l62 -385h-582l-68 420q-7 38 -37.5 63t-70.5 25q-45 0 -77.5 -32t-32.5 -78q0 -9 2 -13l62 -385h-320q-45 0 -77.5 -31.5t-32.5 -77.5t32.5 -78t77.5 -32h354l94 -585h-374q-46 0 -78 -32t-32 -78t32 -78t78 -32h408l68 -419q7 -39 37.5 -66
t70.5 -27q6 0 18 2zM1268 1319l94 -585h-582l-94 585h582z" />
</svg>