<svg xmlns="http://www.w3.org/2000/svg" xmlns:xlink="http://www.w3.org/1999/xlink" version="1.1" viewBox="-10 0 2058 2048">
   <path fill="currentColor"
d="M128 224q0 -93 65.5 -158.5t158.5 -65.5h971q92 0 158 66l373 373q66 66 66 158v1227q0 93 -65.5 158.5t-158.5 65.5h-1344q-93 0 -158.5 -65.5t-65.5 -158.5v-1600zM352 192q-14 0 -23 9t-9 23v1600q0 14 9 23t23 9h1344q14 0 23 -9t9 -23v-1227q0 -14 -9 -23l-373 -373
q-9 -9 -23 -9h-971zM1024 416q40 0 68 28t28 68v192h192q40 0 68 28t28 68t-28 68t-68 28h-192v192q0 40 -28 68t-68 28t-68 -28t-28 -68v-192h-192q-40 0 -68 -28t-28 -68t28 -68t68 -28h192v-192q0 -40 28 -68t68 -28zM640 1440q0 -40 28 -68t68 -28h576q40 0 68 28t28 68
t-28 68t-68 28h-576q-40 0 -68 -28t-28 -68z" />
</svg>