<svg xmlns="http://www.w3.org/2000/svg" xmlns:xlink="http://www.w3.org/1999/xlink" version="1.1" viewBox="-10 0 2066 2048">
   <path fill="currentColor"
d="M1344 0q143 0 273 56t224 150.5t149.5 224.5t55.5 273t-55.5 273.5t-150 224.5t-225 150t-273.5 56q-86 0 -162 -19l-120 119q-28 28 -68 28h-96v96q0 40 -28 68l-64 64q-28 28 -66 28h-96v96q0 39 -30 68l-64 64q-28 28 -66 28h-256q-94 0 -159 -65.5t-65 -158.5v-256
q0 -40 28 -68l630 -631q-18 -77 -18 -165q0 -143 55.5 -273.5t149.5 -224.5t224.5 -150t272.5 -56zM832 704q0 80 28 163q4 17 4 30q0 40 -28 68l-642 643v216q0 14 9 23t23 9h216l8 -8v-152q0 -40 28 -68t68 -28h152l8 -8v-152q0 -40 27.5 -68t66.5 -28h154l130 -131
q28 -28 68 -28q14 0 30 5q78 26 162 26q104 0 199 -40.5t163.5 -109t109 -163.5t40.5 -199t-40.5 -199t-109 -163.5t-163.5 -109t-198.5 -40.5t-198.5 40.5t-163.5 109.5t-109.5 163.5t-41 198.5zM1408.5 768q-53.5 0 -91 -37.5t-37.5 -90.5t37.5 -90.5t91 -37.5t90.5 37.5
t37 90.5t-37 90.5t-90.5 37.5z" />
</svg>