<svg xmlns="http://www.w3.org/2000/svg" xmlns:xlink="http://www.w3.org/1999/xlink" version="1.1" viewBox="-10 0 2068 2048">
   <path fill="currentColor"
d="M1792 0q105 0 180.5 75t75.5 181v1536q0 106 -75.5 181t-180.5 75h-1536q-105 0 -180.5 -75t-75.5 -181v-1536q0 -106 75.5 -181t180.5 -75h1536zM256 220q-14 0 -25 10.5t-11 25.5v1536q0 15 11 26t25 11h1536q14 0 25 -11t11 -26v-1536q0 -15 -10.5 -25.5t-25.5 -10.5
h-1536zM1576 1102l-474 475q-32 35 -80 35q-38 0 -67.5 -23t-38.5 -59q-4 -18 -4 -28q0 -47 34 -80l288 -288h-684q-46 0 -78 -32t-32 -78t32 -77.5t78 -31.5h684l-288 -289q-28 -32 -28 -74q0 -46 32 -78t76 -32q43 0 76 29l474 476q32 32 32 77q0 46 -32 78z" />
</svg>