<svg xmlns="http://www.w3.org/2000/svg" xmlns:xlink="http://www.w3.org/1999/xlink" version="1.1" viewBox="-10 0 2068 2048">
   <path fill="currentColor"
d="M1022 353v1342q0 40 -28 68t-68 28q-34 0 -62 -23l-420 -361h-220q-92 0 -158 -65.5t-66 -157.5v-320q0 -92 66 -158t158 -66h220l420 -360q28 -23 62 -23q40 0 68 28t28 68zM1442 668l220 220l220 -220q26 -25 64 -25q40 0 68 28t28 67q0 38 -26 66l-218 220l218 220
q32 28 32 70q0 33 -20.5 59t-51.5 34q-12 3 -24 3q-43 0 -70 -31l-220 -220l-220 220q-28 31 -70 31q-34 0 -60 -21t-34 -52q-2 -12 -2 -23q0 -42 30 -70l220 -220l-220 -220q-30 -28 -30 -70q0 -33 20.5 -59t51.5 -34q12 -3 24 -3q43 0 70 30zM542 809q-27 23 -62 23h-256
q-13 0 -22.5 9t-9.5 23v320q0 14 9.5 23t22.5 9h256q36 0 62 23l290 248v-926z" />
</svg>