<svg xmlns="http://www.w3.org/2000/svg" xmlns:xlink="http://www.w3.org/1999/xlink" version="1.1" viewBox="-10 0 2058 2048">
   <path fill="currentColor"
d="M1270 679q16 16 22 25h500q39 0 67.5 28t28.5 68t-28.5 68t-67.5 28h-422l74 661l46 383v6v6q0 40 -28 68t-68 28q-36 0 -63.5 -24.5t-32.5 -60.5l-36 -299h-478l-36 299q-4 36 -31 60.5t-63 24.5q-40 0 -68 -28t-28 -68v-6v-6l46 -383l74 -661h-422q-39 0 -67.5 -28
t-28.5 -68t28.5 -68t67.5 -28h500q10 -14 22 -25q-65 -54 -101.5 -131t-36.5 -164q0 -104 51 -192.5t139.5 -140t193 -51.5t193 51.5t140 140t51.5 192.5q0 87 -37 164t-101 131zM1178 905q-7 -58 -51 -97.5t-103.5 -39.5t-103 39.5t-50.5 97.5l-62 567h432zM1216 384
q0 -80 -56.5 -136t-136 -56t-135.5 56t-56 136t56 136t135.5 56t136 -56t56.5 -136z" />
</svg>