<svg xmlns="http://www.w3.org/2000/svg" xmlns:xlink="http://www.w3.org/1999/xlink" version="1.1" viewBox="-10 0 2068 2048">
   <path fill="currentColor"
d="M968 265q26 11 41 34.5t15 52.5v1344q0 40 -28.5 68t-67.5 28q-35 0 -62 -23l-422 -361h-220q-92 0 -158 -65.5t-66 -158.5v-320q0 -93 66 -158.5t158 -65.5h220l422 -361q27 -23 62 -23q22 0 40 9zM832 561l-290 248q-27 23 -62 23h-256q-13 0 -22.5 9t-9.5 23v320
q0 14 9.5 23t22.5 9h256q36 0 62 23l290 248v-926zM1612 300q28 -28 68 -28t68 28q141 142 220.5 329t79.5 395t-79.5 395t-220.5 329q-28 26 -66 26q-40 0 -68 -28t-28 -68q0 -39 26 -66q115 -116 179.5 -267.5t64.5 -320.5t-64.5 -320.5t-179.5 -267.5q-28 -28 -28 -68
t28 -68zM1476 571q89 89 138.5 205.5t49.5 247t-49.5 247t-138.5 205.5q-29 31 -70 31q-34 0 -59 -20t-33 -52q-4 -12 -4 -24q0 -42 30 -70q62 -62 97 -144t35 -173t-35 -173t-97 -144q-28 -28 -28 -68t28.5 -68t67.5 -28q40 0 68 28z" />
</svg>