<svg xmlns="http://www.w3.org/2000/svg" xmlns:xlink="http://www.w3.org/1999/xlink" version="1.1" viewBox="-10 0 2068 2048">
   <path fill="currentColor"
d="M0 352q0 -93 65.5 -158.5t158.5 -65.5h1600q93 0 158.5 65.5t65.5 158.5v1344q0 93 -65.5 158.5t-158.5 65.5h-1600q-93 0 -158.5 -65.5t-65.5 -158.5v-1344zM224 320q-14 0 -23 9t-9 23v1344q0 14 9 23t23 9h1600q14 0 23 -9t9 -23v-1344q0 -14 -9 -23t-23 -9h-1600z
M928 1024q0 40 -28 68l-288 288q-29 31 -70 31q-33 0 -59 -20.5t-34 -52.5q-3 -12 -3 -24q0 -42 30 -70l220 -220l-220 -220q-31 -29 -31 -70q0 -33 20.5 -59t52.5 -34q12 -3 24 -3q42 0 70 30l288 288q28 28 28 68zM1120 1216h384q40 0 68 28t28 68t-28 68t-68 28h-384
q-40 0 -68 -28t-28 -68t28 -68t68 -28z" />
</svg>