<svg xmlns="http://www.w3.org/2000/svg" xmlns:xlink="http://www.w3.org/1999/xlink" version="1.1" viewBox="-10 0 2068 2048">
   <path fill="currentColor"
d="M594 930q-14 -14 -6.5 -33t28.5 -19h816q21 0 28.5 19t-6.5 33l-408 415q-10 9 -22 9t-20 -9zM0 256q0 -106 75.5 -181t180.5 -75h1536q105 0 180.5 75t75.5 181v1536q0 106 -75.5 181t-180.5 75h-1536q-105 0 -180.5 -75t-75.5 -181v-1536zM256 220q-14 0 -25 10.5
t-11 25.5v1536q0 15 11 26t25 11h1536q14 0 25 -11t11 -26v-1536q0 -15 -10.5 -25.5t-25.5 -10.5h-1536z" />
</svg>