<svg xmlns="http://www.w3.org/2000/svg" xmlns:xlink="http://www.w3.org/1999/xlink" version="1.1" viewBox="-10 0 2066 2048">
   <path fill="currentColor"
d="M604 30q28 -28 68 -28t68 28l128 128q76 -28 155.5 -28t156.5 28l128 -128q28 -30 68 -30q34 0 59.5 20.5t34.5 51.5q2 12 2 24q0 42 -28 69l-100 100q61 62 94.5 142t33.5 170v42q0 13 -4 37q78 27 132 93l252 -101q14 -6 32 -6q39 0 67.5 28t28.5 68q0 29 -16 53
t-42 35l-260 104v223h288q40 0 68 27.5t28 67.5t-28 68t-68 28h-288v64q0 78 -18 152l278 111q26 11 42 35t16 53q0 40 -28.5 68t-67.5 28q-18 0 -32 -6l-280 -112q-86 142 -231.5 226.5t-316.5 84.5v0q-172 0 -317.5 -84.5t-230.5 -226.5l-15.5 6t-40 16t-54.5 22l-60 24
t-54.5 22t-39.5 16l-16 6q-16 6 -32 6q-40 0 -68 -28t-28 -68q0 -29 15.5 -52.5t42.5 -35.5l276 -111q-18 -73 -18 -152v-64h-286q-40 0 -68 -28t-28 -68t28 -67.5t68 -27.5h286v-223l-258 -104q-27 -12 -42.5 -35.5t-15.5 -52.5q0 -40 28 -68t68 -28q16 0 32 6l252 101
q54 -66 132 -93q-4 -18 -4 -37v-42q0 -90 33.5 -170t94.5 -142l-100 -100q-28 -28 -28 -67q0 -40 28 -68zM672 833q-39 0 -67.5 28t-28.5 68v479q0 91 35.5 174t95.5 143t143 95.5t173.5 35.5t173.5 -35.5t143 -95.5t96 -143t36 -174v-479q0 -40 -28.5 -68t-67.5 -28h-704z
M790 641h468q8 0 15 -6.5t7 -15.5v-42q0 -106 -75.5 -181t-181 -75t-180.5 75t-75 181v42q0 9 7 15.5t15 6.5z" />
</svg>