<svg xmlns="http://www.w3.org/2000/svg" xmlns:xlink="http://www.w3.org/1999/xlink" version="1.1" viewBox="-10 0 2058 2048">
   <path fill="currentColor"
d="M1706 1040q40 0 69 29t29 69v585q0 40 -28.5 68.5t-69.5 28.5h-325q-41 0 -69 -28t-28 -69t28.5 -69.5t68.5 -28.5h228v-260h-98q-41 0 -69 -28.5t-28 -68.5q0 -41 28.5 -69.5t68.5 -28.5h98v-32q0 -41 28.5 -69.5t68.5 -28.5zM634 1593q0 -14 9.5 -23.5t22.5 -9.5h455
q13 0 23 10t10 23v422q0 13 -10 23t-23 10q-10 0 -19 -7l-189 -141q-7 -6 -19 -6t-20 6l-188 141q-9 7 -20 7q-13 0 -22.5 -9.5t-9.5 -23.5v-422zM341 1040q41 0 69.5 29t28.5 69v35q16 -3 32 -3h65q40 0 69 29t29 69t-28.5 68.5t-69.5 28.5h-65q-13 0 -22.5 9.5t-9.5 23.5
v97q0 54 39 93q29 29 29 70q0 40 -28.5 68.5t-68.5 28.5t-69 -27q-97 -95 -97 -232v-1v-357q0 -41 28.5 -69.5t68.5 -28.5zM1414 98q0 -41 28.5 -69.5t68.5 -28.5h195q40 0 69 29t29 69v195q0 40 -28.5 68.5t-69.5 28.5q-40 0 -68.5 -28t-28.5 -69v-98h-98q-41 0 -69 -28.5
t-28 -68.5zM764 98q0 -41 28.5 -69.5t68.5 -28.5h325q40 0 69 29t29 69t-28.5 68.5t-69.5 28.5h-325q-41 0 -69 -28.5t-28 -68.5zM764 1268q0 -41 28.5 -69.5t68.5 -28.5h325q40 0 69 29t29 69t-28.5 68.5t-69.5 28.5h-325q-41 0 -69 -28.5t-28 -68.5zM633 86q1 5 1 14
q0 36 -24 63.5t-60 32.5q-43 6 -73.5 36.5t-36.5 73.5q-7 34 -34 56.5t-62 22.5q-40 0 -68.5 -28.5t-28.5 -68.5v-9q15 -107 92 -184t184 -92q5 -1 13 -1q36 0 64 24t33 60zM341 520q41 0 69.5 29t28.5 69v195q0 40 -28.5 68.5t-69.5 28.5t-69 -28t-28 -69v-195
q0 -41 28.5 -69.5t68.5 -28.5zM1706 520q40 0 69 29t29 69v195q0 40 -28.5 68.5t-69.5 28.5q-40 0 -68.5 -28t-28.5 -69v-195q0 -41 28.5 -69.5t68.5 -28.5z" />
</svg>