<svg xmlns="http://www.w3.org/2000/svg" xmlns:xlink="http://www.w3.org/1999/xlink" version="1.1" viewBox="-10 0 2068 2048">
   <path fill="currentColor"
d="M1344 448h-1120q-13 0 -22.5 9t-9.5 23v41l832 488l386 -227q23 -13 48 -13q40 0 68 28t28 68q0 26 -12.5 48t-33.5 35l-436 255q-22 13 -48 13t-48 -13l-784 -459v824q0 14 9.5 23t22.5 9h1600q13 0 22.5 -9t9.5 -23v-576q0 -40 28 -68t67.5 -28t68 28t28.5 68v576
q0 93 -66 158.5t-158 65.5h-1600q-92 0 -158 -65.5t-66 -158.5v-990v-2v-2v-94q0 -93 66 -158.5t158 -65.5h1120q39 0 67.5 28t28.5 68t-28.5 68t-67.5 28zM1791.5 768q-105.5 0 -180.5 -75t-75 -181t75 -181t180.5 -75t181 75t75.5 181t-75.5 181t-181 75z" />
</svg>