<svg xmlns="http://www.w3.org/2000/svg" xmlns:xlink="http://www.w3.org/1999/xlink" version="1.1" viewBox="-10 0 2068 2048">
   <path fill="currentColor"
d="M1092 37l670 214q68 22 112 80.5t44 132.5v450q0 58 -4 103q-2 38 -30 64.5t-66 26.5q-40 0 -68 -27.5t-28 -67.5v-11q4 -43 4 -88v-450q0 -23 -22 -30l-670 -215q-4 -1 -11 -1t-9 1l-266 86q-12 3 -28 3q-39 0 -67.5 -27.5t-28.5 -67.5q0 -31 18 -56t46 -35l268 -85
q32 -11 67 -11t69 11zM130 385l-88 -64q-42 -28 -42 -79q0 -39 28 -67.5t68 -28.5q32 0 58 20l1852 1341q42 29 42 79q0 40 -28.5 68t-67.5 28q-32 0 -58 -20l-164 -119q-201 282 -622 461q-40 18 -84.5 18t-85.5 -18q-443 -189 -642 -492q-166 -255 -166 -598v-529z
M322 523v391q0 288 134 493q169 256 558 421q10 5 20 0q372 -158 540 -397z" />
</svg>