<svg xmlns="http://www.w3.org/2000/svg" xmlns:xlink="http://www.w3.org/1999/xlink" version="1.1" viewBox="-10 0 2068 2048">
   <path fill="currentColor"
d="M1024 894q141 -127 234 -191q185 -127 342 -127q120 0 223.5 60.5t164 164t60.5 223.5t-60.5 223.5t-164 164t-223.5 60.5q-157 0 -342 -127q-93 -64 -234 -191q-141 127 -234 191q-185 127 -342 127q-120 0 -223.5 -60.5t-164 -164t-60.5 -223.5t60.5 -223.5t164 -164
t223.5 -60.5q157 0 342 127q93 64 234 191zM1167 1024q122 110 199 163q135 93 234 93q104 0 180 -76t76 -180t-76 -180t-180 -76q-99 0 -234 93q-77 53 -199 163zM448 768q-104 0 -180 76t-76 180t76 180t180 76q99 0 234 -93q77 -53 199 -163q-122 -110 -199 -163
q-135 -93 -234 -93z" />
</svg>