<svg xmlns="http://www.w3.org/2000/svg" xmlns:xlink="http://www.w3.org/1999/xlink" version="1.1" viewBox="-10 0 2068 2048">
   <path fill="currentColor"
d="M1120 192v160h126q57 0 110 30l166 94q6 4 16 4h286q39 0 67.5 28t28.5 68t-28.5 68t-67.5 28h-54l270 601q8 19 8 39q0 40 -28 68l-68 -68l68 68h-2v1v1l-2 1l-6 5q-37 32 -88 58q-116 58 -258 58h-8q-132 0 -252 -58q-40 -20 -86 -58l-6 -5l-2 -2l-2 -1v0
q-28 -29 -28 -68q0 -17 8 -39l270 -601h-20q-58 0 -112 -30l-164 -94q-7 -4 -16 -4h-126v1216h320q39 0 67.5 28t28.5 68t-28.5 68t-67.5 28h-832q-39 0 -67.5 -28t-28.5 -68t28.5 -68t67.5 -28h320v-1216h-126q-9 0 -16 4l-164 95q-52 29 -112 29h-20l270 601q8 22 8 39
q0 40 -28 68l-68 -68l68 68v0l-2 1l-2 2l-6 5q-39 33 -86 58q-116 58 -260 58h-6q-133 0 -252 -58q-44 -22 -88 -58l-6 -5l-2 -2v-1h-2q-28 -28 -28 -68q0 -20 8 -39l272 -601h-56q-39 0 -67.5 -28t-28.5 -68t28.5 -68t67.5 -28h286q10 0 16 -4l164 -95q52 -29 112 -29h126
v-160q0 -40 28.5 -68t68 -28t67.5 28t28 68zM1496 1277q75 35 167.5 35t166.5 -35l-166 -371zM218 1277q74 35 166.5 35t167.5 -35l-168 -371z" />
</svg>