<svg xmlns="http://www.w3.org/2000/svg" xmlns:xlink="http://www.w3.org/1999/xlink" version="1.1" viewBox="-10 0 2058 2048">
   <path fill="currentColor"
d="M1056 608q0 -40 28 -68t68 -28h512q40 0 67.5 28t27.5 68t-28 68l-241 242q64 16 111 41q159 84 159 257q0 122 -81 208q-68 72 -180 99q-96 24 -205 6.5t-194 -73.5q-39 -29 -39 -77q0 -40 28 -68t68 -28q27 0 48 12q51 34 120 45t129 -3q56 -13 86 -45q28 -30 28 -76
q0 -56 -57 -87q-79 -41 -231 -41q-40 0 -68 -28t-28 -68t28 -68l220 -220h-280q-40 0 -68 -28t-28 -68zM597 1346q-37 -5 -71.5 13t-53.5 60q-11 26 -35 41.5t-53 15.5q-40 0 -68 -28t-28 -68q0 -20 10 -42q47 -101 138.5 -148.5t188.5 -33.5q101 15 170 91t69 193
q0 52 -16.5 100.5t-37 80.5t-57.5 67.5t-58.5 51.5t-59.5 43q-82 59 -98 73h263q40 0 68 28t28 68t-28 68t-68 28h-415q-40 0 -68 -28t-28 -68q0 -114 85 -206q42 -44 147 -117q84 -59 117.5 -98.5t33.5 -90.5q0 -83 -75 -94zM622 12q50 27 50 84v611h91q40 0 68 28t28 68
t-28 68t-68 28h-377q-40 0 -68 -28t-28 -68t28 -68t68 -28h95v-431l-43 28q-24 16 -52 16q-40 0 -68 -28t-28 -68q0 -52 41 -80l192 -128q24 -16 53 -16q24 0 46 12z" />
</svg>