<svg xmlns="http://www.w3.org/2000/svg" xmlns:xlink="http://www.w3.org/1999/xlink" version="1.1" viewBox="-10 0 2068 2048">
   <path fill="currentColor"
d="M224 64h1600q93 0 158.5 65.5t65.5 158.5v1088q0 93 -65.5 158.5t-158.5 65.5h-792l-330 329q-55 55 -131 55q-77 0 -132 -54.5t-55 -131.5v-198h-160q-93 0 -158.5 -65.5t-65.5 -158.5v-1088q0 -93 65.5 -158.5t158.5 -65.5zM192 288v1088q0 14 9 23t23 9h256
q40 0 68 28t28 68v280l348 -348q28 -28 68 -28h832q14 0 23 -9t9 -23v-1088q0 -14 -9 -23t-23 -9h-1600q-14 0 -23 9t-9 23zM868 508q28 28 28 68t-28 68l-188 188l188 188q26 28 26 66q0 40 -28 68t-68 28q-38 0 -66 -26l-256 -256q-28 -28 -28 -68t28 -68l256 -256
q28 -28 68 -28t68 28zM1180 508q28 -28 68 -28t68 28l256 256q28 28 28 68t-28 68l-256 256q-28 26 -66 26q-40 0 -68 -28t-28 -68q0 -38 26 -66l188 -188l-188 -188q-28 -28 -28 -68t28 -68z" />
</svg>