<svg xmlns="http://www.w3.org/2000/svg" xmlns:xlink="http://www.w3.org/1999/xlink" version="1.1" viewBox="-10 0 2068 2048">
   <path fill="currentColor"
d="M992 1792q-93 0 -158.5 -65.5t-65.5 -158.5v-1088q0 -93 65.5 -158.5t158.5 -65.5h832q92 0 158 65.5t66 158.5v1088q0 93 -66 158.5t-158 65.5h-832zM960 1568q0 14 9 23t23 9h832q13 0 22.5 -9t9.5 -23v-1088q0 -14 -9.5 -23t-22.5 -9h-832q-14 0 -23 9t-9 23v1088z
M628 449q12 23 12 48q0 55 -48 83q-16 8 -16 28v832q0 18 16 28q23 13 35.5 35t12.5 48q0 40 -28 68t-68 28q-25 0 -48 -13q-51 -30 -81.5 -81.5t-30.5 -112.5v-832q0 -61 30.5 -112.5t81.5 -81.5q23 -13 48 -13q55 0 84 48zM208 708q-16 8 -16 28v576q0 18 16 28
q23 13 35.5 35t12.5 48q0 40 -28 68t-68 28q-25 0 -48 -13q-51 -30 -81.5 -81.5t-30.5 -112.5v-576q0 -61 30.5 -112.5t81.5 -81.5q23 -13 48 -13q40 0 68 28t28 68q0 55 -48 83z" />
</svg>