<svg xmlns="http://www.w3.org/2000/svg" xmlns:xlink="http://www.w3.org/1999/xlink" version="1.1" viewBox="-10 0 2058 2048">
   <path fill="currentColor"
d="M96 320q0 -133 94 -226.5t226 -93.5h1120q40 0 68 28t28 68v448q0 40 -28 68t-67.5 28t-68 -28t-28.5 -68v-352h-1024q-53 0 -90.5 37.5t-37.5 90.5v859q62 -27 128 -27h416q40 0 68 28t28 68t-28 68t-68 28h-416q-53 0 -90.5 37.5t-37.5 90.5t37.5 90.5t90.5 37.5h736
q40 0 68 28t28 68t-28 68t-68 28h-736q-132 0 -226 -93.5t-94 -226.5v-1152zM1790 1317l-156 -157v792q0 40 -28.5 68t-68 28t-67.5 -28t-28 -68v-792l-158 157q-26 27 -66 27t-68 -28t-28 -68t26 -67l322 -320q28 -28 68 -28q38 0 66 28l322 320q26 28 26 66q0 40 -28 68
t-68 28q-39 0 -66 -26z" />
</svg>