<svg xmlns="http://www.w3.org/2000/svg" xmlns:xlink="http://www.w3.org/1999/xlink" version="1.1" viewBox="-10 0 2058 2048">
   <path fill="currentColor"
d="M872 53q67 -53 152 -53t152 53l730 584q44 34 68 84t24 106v977q0 101 -71.5 172.5t-172.5 71.5h-486q-44 0 -74 -30.5t-30 -74.5v-730h-280v730q0 44 -30 74.5t-74 30.5h-486q-101 0 -172.5 -71.5t-71.5 -172.5v-977q0 -56 24 -106t68 -84zM1046 216q-10 -8 -22 -8
t-22 8l-730 584q-12 10 -12 27v977q0 14 9.5 24.5t24.5 10.5h382v-731q0 -44 30.5 -74t73.5 -30h488q43 0 73.5 30t30.5 74v731h382q15 0 24.5 -10.5t9.5 -24.5v-977q0 -17 -12 -27z" />
</svg>