<svg xmlns="http://www.w3.org/2000/svg" xmlns:xlink="http://www.w3.org/1999/xlink" version="1.1" viewBox="-10 0 2068 2048">
   <path fill="currentColor"
d="M416.5 1152q39.5 0 67.5 28t28 68q0 311 94 596q2 5 6 8q6 4 14 4h2h166q20 0 34 -19q12 -17 12 -34q0 -5 -2 -13q-70 -265 -70 -542q0 -40 28.5 -68t68 -28t67.5 28t28 68q0 253 64 493q18 71 -5.5 142t-84 118t-138.5 47h-168q-68 0 -124.5 -38t-79.5 -105
q-104 -318 -104 -652v-5q0 -40 28.5 -68t68 -28zM0 768q0 -104 41 -199t109.5 -163.5t163.5 -109t198 -40.5h352q40 0 68 28t28 68v832q0 40 -28 68t-68 28h-352q-103 0 -198 -40.5t-163.5 -109t-109.5 -163.5t-41 -199zM512 448q-132 0 -226 93.5t-94 226.5t94 226.5
t226 93.5h256v-640h-256zM1996 11q23 12 37.5 35t14.5 50v1344q0 40 -28.5 68t-67.5 28q-30 0 -56 -18v0l-2 -2q-37 -22 -54 -32q-81 -43 -188 -81q-343 -123 -788 -123q-39 0 -67.5 -28t-28.5 -68t28.5 -68t67.5 -28q472 0 852 134q78 28 140 56v-1020q-71 33 -140 57
q-378 133 -852 133q-39 0 -67.5 -28t-28.5 -68t28.5 -68t67.5 -28q448 0 788 -122q108 -38 188 -82q18 -10 54 -32l2 -2q26 -18 56 -18q23 0 44 11z" />
</svg>