<svg xmlns="http://www.w3.org/2000/svg" xmlns:xlink="http://www.w3.org/1999/xlink" version="1.1" viewBox="-10 0 2058 2048">
   <path fill="currentColor"
d="M1024 0q50 0 90 4q69 6 119 51t67 110l38 142q4 17 26 28q40 20 86 50q21 13 38 9l142 -39q63 -18 127 3t105 78q55 77 90 156q29 66 15 130.5t-61 111.5l-104 103q-13 12 -12 38q3 49 0 98q-1 26 12 38l104 103q47 47 61 111.5t-15 130.5q-32 72 -90 156q-41 57 -105 78
t-127 3l-142 -39q-18 -4 -38 9q-46 30 -86 50q-22 11 -26 28l-38 142q-16 64 -66.5 109.5t-119.5 51.5q-40 4 -92 4q-48 0 -88 -4q-69 -6 -119 -51t-67 -110l-38 -142q-4 -17 -26 -28q-40 -20 -86 -50q-21 -13 -38 -9l-142 39q-63 18 -127 -3t-105 -78q-54 -78 -90 -156
q-29 -66 -15 -130.5t61 -111.5l104 -103q13 -12 12 -38q-2 -17 -2 -50q0 -31 2 -48q1 -26 -12 -38l-104 -103q-47 -47 -61 -111.5t15 -130.5q32 -72 90 -156q41 -57 105 -78t127 -3l142 39q18 4 38 -9q46 -30 86 -50q22 -11 26 -28l38 -142q16 -64 66.5 -109.5t119.5 -51.5
q41 -4 90 -4zM950 195q-11 0 -16 19l-38 141q-13 52 -47.5 91.5t-80.5 61.5q-38 20 -64 37q-92 63 -194 34l-142 -39q-16 -5 -24 6q-43 60 -74 127q-6 11 8 24l104 103q37 37 54 86.5t14 100.5q-2 12 -2 37t2 37q3 51 -14 100.5t-54 86.5l-104 103q-14 13 -8 24
q31 67 74 127q8 11 24 6l142 -39q102 -29 194 34q30 20 64 37q46 22 80.5 61.5t47.5 91.5l38 141q5 19 16 19q36 3 74 3t74 -3q11 0 16 -19l38 -141q13 -52 47.5 -91.5t80.5 -61.5q38 -20 64 -37q92 -63 194 -34l142 39q16 5 24 -6q43 -60 74 -127q6 -11 -8 -24l-104 -103
q-37 -37 -54 -86.5t-14 -100.5q2 -12 2 -37t-2 -37q-3 -51 14 -100.5t54 -86.5l104 -103q14 -13 8 -24q-31 -67 -74 -127q-8 -11 -24 -6l-142 39q-102 29 -194 -34q-26 -17 -64 -37q-46 -22 -80.5 -61.5t-47.5 -91.5l-38 -141q-5 -19 -16 -19q-37 -3 -74 -3q-38 0 -74 3z
M1408 1024q0 104 -51.5 192.5t-139.5 140t-192.5 51.5t-193 -51.5t-140 -140t-51.5 -192.5t51.5 -192.5t140 -140t193 -51.5t192.5 51.5t139.5 140t51.5 192.5zM1216 1024q0 -80 -56.5 -136t-136 -56t-135.5 56t-56 136t56 136t135.5 56t136 -56t56.5 -136z" />
</svg>