<svg xmlns="http://www.w3.org/2000/svg" xmlns:xlink="http://www.w3.org/1999/xlink" version="1.1" viewBox="-10 0 2068 2048">
   <path fill="currentColor"
d="M1800 0h24q92 0 158 65.5t66 158.5v24q0 228 -86.5 432.5t-241.5 359.5l-60 58q-60 60 -124 116v411q0 58 -29 108.5t-79 81.5l-354 219q-23 14 -50 14q-32 0 -57 -19t-35 -49l-122 -397q-8 -5 -18 -16l-312 -311q-10 -11 -16 -18l-396 -122q-29 -9 -48.5 -34.5
t-19.5 -57.5q0 -27 14 -50l220 -355q29 -49 79.5 -78t110.5 -29h410q55 -64 116 -125l58 -59q156 -155 360 -241.5t432 -86.5zM1144 464l-58 58q-145 145 -260 320l-192 297l274 274l298 -192q175 -114 318 -258l60 -59q128 -128 200 -297.5t72 -358.5v-24q0 -14 -9.5 -23
t-22.5 -9h-24q-189 0 -358.5 72t-297.5 200zM456 1864q-33 33 -86 60t-111.5 44.5t-102 27t-84.5 15.5h-6q-12 0 -20 -9q-8 -8 -8 -21v-4q6 -42 15.5 -85.5t26.5 -102.5t44.5 -111.5t59.5 -85.5q57 -65 144 -65q80 0 136 56.5t56 135.5q0 42 -17 80t-47 65zM1344 1360
q-4 3 -34 22l-300 195l70 228l248 -153q16 -10 16 -28v-264zM470 1039l196 -301q7 -12 22 -34h-264q-18 0 -28 15l-152 250zM1536 640q0 53 -37.5 90.5t-91 37.5t-90.5 -37.5t-37 -90.5t37 -90.5t90.5 -37.5t91 37.5t37.5 90.5z" />
</svg>