<svg xmlns="http://www.w3.org/2000/svg" xmlns:xlink="http://www.w3.org/1999/xlink" version="1.1" viewBox="-10 0 2058 2048">
   <path fill="currentColor"
d="M256 0h1536q45 0 77.5 32t32.5 78t-32.5 78t-77.5 32h-110v183q0 167 -74 312.5t-204 242.5l-48 37q-14 11 -14 29q0 19 14 30l48 36q130 97 204 243t74 313v183h110q45 0 77.5 32t32.5 78t-32.5 77.5t-77.5 31.5h-1536q-45 0 -77.5 -31.5t-32.5 -77.5t32.5 -78t77.5 -32
h110v-183q0 -167 74.5 -313t203.5 -243l48 -36q16 -12 16 -30q0 -17 -16 -29l-48 -37q-129 -97 -203.5 -242.5t-74.5 -312.5v-183h-110q-45 0 -77.5 -32t-32.5 -78t32.5 -78t77.5 -32zM1462 220h-876v183q0 113 50 212.5t140 167.5l48 36q51 37 77.5 92.5t26.5 112.5
t-26.5 112.5t-77.5 92.5l-48 37q-89 66 -139.5 165.5t-50.5 214.5v183h876v-183q0 -115 -50.5 -214.5t-139.5 -165.5l-48 -37q-47 -36 -74.5 -89.5t-27.5 -115.5t27.5 -115.5t74.5 -89.5l48 -36q89 -66 139.5 -165.5t50.5 -214.5v-183z" />
</svg>