<svg xmlns="http://www.w3.org/2000/svg" xmlns:xlink="http://www.w3.org/1999/xlink" version="1.1" viewBox="-10 0 2068 2048">
   <path fill="currentColor"
d="M256 1956q-105 0 -180.5 -75t-75.5 -181v-366q0 -45 32.5 -76.5t78 -31.5t77.5 31.5t32 76.5v366q0 16 11 27t25 11h1536q14 0 25 -11t11 -27v-366q0 -45 32.5 -76.5t78 -31.5t77.5 31.5t32 76.5v366q0 106 -75.5 181t-180.5 75h-1536zM914 1034v-832q0 -46 32.5 -78
t78 -32t77.5 32t32 78v832l288 -288q32 -32 78 -32q45 0 76.5 31.5t31.5 76.5q0 46 -32 78l-474 476q-32 32 -78 32t-78 -32l-474 -476q-32 -32 -32 -78q0 -45 32 -76.5t78 -31.5q44 0 76 32z" />
</svg>