<svg xmlns="http://www.w3.org/2000/svg" xmlns:xlink="http://www.w3.org/1999/xlink" version="1.1" viewBox="-10 0 2058 2048">
   <path fill="currentColor"
d="M242 858.5q0 132.5 51.5 253.5t138.5 208.5t208 139.5t254 52h652v-295q0 -14 10 -24t24 -10q16 0 26 10l398 398q10 10 10 25q0 14 -10 24l-398 398q-17 16 -38.5 7.5t-21.5 -31.5v-295h-652q-117 0 -228.5 -31t-205.5 -86.5t-173.5 -135t-135 -174t-86.5 -206t-31 -228
t31 -228t86.5 -205.5t135 -173.5t173.5 -134.5t205.5 -86t228 -31t228 31t205.5 86t173.5 134.5t135 173.5t86 205.5t30.5 228.5q0 43 -30 73.5t-72.5 30.5t-73 -30.5t-30.5 -73.5q0 -133 -51.5 -254t-139 -208.5t-208.5 -139t-253.5 -51.5t-253.5 51.5t-208 139
t-138.5 208.5t-51.5 253.5z" />
</svg>