<svg xmlns="http://www.w3.org/2000/svg" xmlns:xlink="http://www.w3.org/1999/xlink" version="1.1" viewBox="-10 0 2058 2048">
   <path fill="currentColor"
d="M1094 11l688 220q70 23 115 83.5t45 135.5v461q0 353 -172 614q-204 311 -660 505q-44 18 -86.5 18t-87.5 -18q-454 -194 -658 -505q-172 -261 -172 -614v-461q0 -75 45 -135.5t115 -83.5l688 -220q34 -11 69.5 -11t70.5 11zM1014 198l-688 220q-22 7 -22 32v461
q0 295 138 506q171 262 572 432q6 2 10 2t10 -2q400 -170 572 -432q138 -214 138 -506v-461q0 -11 -6.5 -20t-15.5 -12l-688 -220q-4 -1 -11 -1t-9 1zM1220 845q0 53 -26 99t-72 72v321q0 40 -29 69t-69.5 29t-69 -28.5t-28.5 -69.5v-321q-45 -26 -71.5 -71.5t-26.5 -99.5
q0 -82 57 -139t138.5 -57t139 57.5t57.5 138.5z" />
</svg>