<svg xmlns="http://www.w3.org/2000/svg" xmlns:xlink="http://www.w3.org/1999/xlink" version="1.1" viewBox="-10 0 2068 2048">
   <path fill="currentColor"
d="M256 1956q-105 0 -180.5 -75t-75.5 -181v-366q0 -45 32.5 -76.5t78 -31.5t77.5 31.5t32 76.5v366q0 16 11 27t25 11h1536q14 0 25 -11t11 -27v-366q0 -45 32.5 -76.5t78 -31.5t77.5 31.5t32 76.5v366q0 106 -75.5 181t-180.5 75h-1536zM1576 598q34 34 34 78
q0 46 -32.5 78t-77.5 32q-46 0 -78 -32l-288 -288v832q0 46 -32 78t-77.5 32t-78 -32t-32.5 -78v-832l-288 288q-32 32 -77 32t-77 -32t-32 -78t32 -78l474 -474q32 -32 78 -32t78 32z" />
</svg>