<svg xmlns="http://www.w3.org/2000/svg" xmlns:xlink="http://www.w3.org/1999/xlink" version="1.1" viewBox="-10 0 2068 2048">
   <path fill="currentColor"
d="M224 128h1088q93 0 158.5 65.5t65.5 158.5v704q0 93 -65.5 158.5t-158.5 65.5h-408l-330 329q-55 55 -131 55q-77 0 -132 -54.5t-55 -131.5v-198h-32q-93 0 -158.5 -65.5t-65.5 -158.5v-704q0 -93 65.5 -158.5t158.5 -65.5zM192 352v704q0 14 9 23t23 9h128q40 0 68 28
t28 68v280l348 -348q28 -28 68 -28h448q14 0 23 -9t9 -23v-704q0 -14 -9 -23t-23 -9h-1088q-14 0 -23 9t-9 23zM1856 608q0 -14 -9 -23t-23 -9h-64q-40 0 -68 -28t-28 -68t28 -68t68 -28h64q93 0 158.5 65.5t65.5 158.5v704q0 93 -65.5 158.5t-158.5 65.5h-32v198
q0 77 -55 131.5t-132 54.5q-76 0 -131 -55l-294 -293q-31 -29 -31 -70q0 -33 20.5 -59t52.5 -34q12 -3 24 -3q42 0 70 30l284 284v-280q0 -40 28 -68t68 -28h128q14 0 23 -9t9 -23v-704z" />
</svg>