<svg xmlns="http://www.w3.org/2000/svg" xmlns:xlink="http://www.w3.org/1999/xlink" version="1.1" viewBox="-10 0 2068 2048">
   <path fill="currentColor"
d="M1024 0q208 0 397.5 81t327 218.5t218.5 327t81 397.5t-81 397.5t-218.5 327t-327 218.5t-397.5 81t-397.5 -81t-327 -218.5t-218.5 -327t-81 -397.5t81 -397.5t218.5 -327t327 -218.5t397.5 -81zM508 1676q228 180 515 180q169 0 323 -66t265.5 -177.5t177.5 -265.5
t66 -323q0 -289 -179 -516zM192 1024v1q0 288 180 515l1168 -1168q-228 -180 -516 -180q-169 0 -323 66t-265 177.5t-177 265.5t-66 323h-1z" />
</svg>