<svg xmlns="http://www.w3.org/2000/svg" xmlns:xlink="http://www.w3.org/1999/xlink" version="1.1" viewBox="-10 0 2068 2048">
   <path fill="currentColor"
d="M587 700v-478h-37q-45 0 -77 -32t-32 -77t32 -77t77 -32h948q45 0 77 32t32 77t-32 77t-77 32h-37v478l535 840q34 54 45.5 113.5t2 114.5t-37 106t-69 88.5t-98.5 59.5t-120 22h-1390q-63 0 -120 -22t-98.5 -59.5t-69 -88.5t-37 -106t2 -114.5t45.5 -113.5zM237 1658
q-17 26 -17 58q0 46 32 78t77 32h1390q45 0 77 -32t32 -78q0 -32 -17 -58l-171 -270h-1232zM1243 222h-437v510q0 30 -18 60l-241 378h954l-241 -378q-17 -27 -17 -60v-510z" />
</svg>