<svg xmlns="http://www.w3.org/2000/svg" xmlns:xlink="http://www.w3.org/1999/xlink" version="1.1" viewBox="-10 0 2068 2048">
   <path fill="currentColor"
d="M1332 42l602 354q53 31 83.5 83t30.5 113v640q0 62 -31 114.5t-83 81.5l-992 580q-52 30 -112 30q-62 0 -114 -30l-604 -352q-51 -30 -81.5 -82t-30.5 -114v-644q0 -58 28 -110h2v-2q29 -52 82 -82l994 -580q53 -32 112.5 -32t113.5 32v0zM1202 208l-916 534l526 306
q8 4 18 4q8 0 16 -4l916 -530l-528 -310q-8 -6 -15.5 -6t-16.5 6zM208 1490l526 306v-572l-18 -10l-524 -304v550q0 20 16 30zM1310 1572l194 -114v-570l-194 114v570zM942 1214q-2 2 -7.5 5t-8.5 5v572l192 -112v-572zM1696 1346l142 -84q18 -10 18 -28v-550l-160 94v568z
" />
</svg>