<svg xmlns="http://www.w3.org/2000/svg" xmlns:xlink="http://www.w3.org/1999/xlink" version="1.1" viewBox="-10 0 2068 2048">
   <path fill="currentColor"
d="M192 224v200q0 40 -28 68t-68 28t-68 -28t-28 -68v-200q0 -93 65.5 -158.5t158.5 -65.5h200q40 0 68 28t28 68t-28 68t-68 28h-200q-14 0 -23 9t-9 23zM824 0h400q40 0 68 28t28 68t-28 68t-68 28h-400q-40 0 -68 -28t-28 -68t28 -68t68 -28zM1624 0h200q93 0 158.5 65.5
t65.5 158.5v200q0 40 -28 68t-68 28t-68 -28t-28 -68v-200q0 -14 -9 -23t-23 -9h-200q-40 0 -68 -28t-28 -68t28 -68t68 -28zM192 824v400q0 40 -28 68t-68 28t-68 -28t-28 -68v-400q0 -40 28 -68t68 -28t68 28t28 68zM2048 824v400q0 40 -28 68t-68 28t-68 -28t-28 -68
v-400q0 -40 28 -68t68 -28t68 28t28 68zM192 1624v200q0 14 9 23t23 9h200q40 0 68 28t28 68t-28 68t-68 28h-200q-93 0 -158.5 -65.5t-65.5 -158.5v-200q0 -40 28 -68t68 -28t68 28t28 68zM2048 1624v200q0 93 -65.5 158.5t-158.5 65.5h-200q-40 0 -68 -28t-28 -68t28 -68
t68 -28h200q14 0 23 -9t9 -23v-200q0 -40 28 -68t68 -28t68 28t28 68zM824 1856h400q40 0 68 28t28 68t-28 68t-68 28h-400q-40 0 -68 -28t-28 -68t28 -68t68 -28zM832 384v128q0 40 -28 68t-68 28t-68 -28t-28 -68v-128q0 -40 28 -68t68 -28t68 28t28 68zM288 736
q0 -40 28 -68t68 -28h128q40 0 68 28t28 68t-28 68t-68 28h-128q-40 0 -68 -28t-28 -68zM864 736q0 -40 28 -68t68 -28h128q40 0 68 28t28 68t-28 68t-68 28h-128q-40 0 -68 -28t-28 -68zM736 864q40 0 68 28t28 68v128q0 40 -28 68t-68 28t-68 -28t-28 -68v-128
q0 -40 28 -68t68 -28zM832 1376v320q0 40 -28 68t-68 28t-68 -28t-28 -68v-320q0 -40 28 -68t68 -28t68 28t28 68zM1280 736q0 -40 28 -68t68 -28h320q40 0 68 28t28 68t-28 68t-68 28h-320q-40 0 -68 -28t-28 -68z" />
</svg>