<svg xmlns="http://www.w3.org/2000/svg" xmlns:xlink="http://www.w3.org/1999/xlink" version="1.1" viewBox="-10 0 2058 2048">
   <path fill="currentColor"
d="M448 224v1472q0 18 16 28q48 28 48 83q0 40 -28 68t-68 28q-25 0 -48 -13q-51 -30 -81.5 -81.5t-30.5 -112.5v-1472q0 -93 65.5 -158.5t158.5 -65.5h715q92 0 158 66l373 373q66 66 66 158v1099q0 93 -65.5 158.5t-158.5 65.5h-64q-40 0 -68 -28t-28 -68t28 -68t68 -28
h64q14 0 23 -9t9 -23v-1099q0 -14 -9 -23l-373 -373q-9 -9 -23 -9h-267q40 0 68 28t28 68t-28 68t-68 28h-64q-40 0 -68 -28t-28 -68t28 -68t68 -28h-384q-14 0 -23 9t-9 23zM928 1344h64q93 0 158.5 65.5t65.5 158.5v384q0 40 -28 68t-68 28h-320q-40 0 -68 -28t-28 -68
v-384q0 -93 65.5 -158.5t158.5 -65.5zM768 672q0 -40 28 -68t68 -28h64q40 0 68 28t28 68t-28 68t-68 28h-64q-40 0 -68 -28t-28 -68zM864 960h64q40 0 68 28t28 68t-28 68t-68 28h-64q-40 0 -68 -28t-28 -68t28 -68t68 -28zM1024 864q0 -40 28 -68t68 -28h64q40 0 68 28
t28 68t-28 68t-68 28h-64q-40 0 -68 -28t-28 -68zM1120 384h64q40 0 68 28t28 68t-28 68t-68 28h-64q-40 0 -68 -28t-28 -68t28 -68t68 -28zM1024 1248q0 -40 28 -68t68 -28h64q40 0 68 28t28 68t-28 68t-68 28h-64q-40 0 -68 -28t-28 -68zM896 1568v288h128v-288
q0 -14 -9 -23t-23 -9h-64q-14 0 -23 9t-9 23z" />
</svg>