<svg xmlns="http://www.w3.org/2000/svg" xmlns:xlink="http://www.w3.org/1999/xlink" version="1.1" viewBox="-10 0 2065 2048">
   <path fill="currentColor"
d="M1830 114l185 320q30 52 30 114q0 67 -35.5 122.5t-93.5 83.5l-1528 736q-47 22 -99 22q-62 0 -114.5 -30.5t-82.5 -82.5l-58 -101q-31 -54 -31 -114q0 -57 27 -107t73 -81l1401 -956q59 -40 128 -40q62 0 115 31t83 83zM1217 1327l344 503q17 25 17 55q0 41 -29 69.5
t-69 28.5q-50 0 -80 -43l-245 -358v368q0 40 -28.5 69t-69.5 29q-40 0 -68.5 -28.5t-28.5 -69.5v-368l-245 358q-30 43 -81 43q-40 0 -68.5 -28.5t-28.5 -69.5q0 -30 17 -55l267 -389q16 -23 38 -33l235 -114q20 -9 42 -9q52 0 81 42zM1212 475l-647 442l123 212l705 -340z
M1614 201l-241 164l196 339l263 -126q12 -6 17 -20q1 -3 1 -10q0 -9 -4 -16l-185 -321q-6 -12 -21 -15q-2 -1 -7 -1q-11 0 -19 6zM212 1157q-14 9 -14 27q0 8 5 16l58 101q10 16 28 16q8 0 14 -3l208 -100l-108 -187z" />
</svg>