<svg xmlns="http://www.w3.org/2000/svg" xmlns:xlink="http://www.w3.org/1999/xlink" version="1.1" viewBox="-10 0 2058 2048">
   <path fill="currentColor"
d="M736 97q0 -40 28.5 -68.5t67.5 -28.5h384q40 0 68 28.5t28 68.5t-28 68t-68 28h-96v128v5q246 27 444 184v-1l96 -96q30 -31 70 -31q34 0 59.5 20.5t34.5 52.5q2 12 2 23q0 42 -30 70l-96 97q90 113 139 250.5t49 288.5q0 117 -31.5 229t-87 207t-135.5 174.5
t-174.5 135.5t-206.5 87t-229.5 31t-229.5 -31t-206.5 -87t-174 -135.5t-135.5 -174.5t-87 -207t-31 -229q0 -150 49.5 -288t140.5 -251h-2l-96 -97q-26 -28 -26 -65q0 -40 28 -68t68 -28q39 0 66 26l96 96l2 1q197 -157 442 -184v-133h-96q-39 0 -67.5 -28t-28.5 -68z
M1024.5 1857q136.5 0 261 -53t214.5 -143t143 -214.5t53 -261.5t-53 -261.5t-143 -214.5t-214.5 -143t-261 -53t-261 53t-214.5 143t-143.5 214.5t-53.5 261.5t53.5 261.5t143.5 214.5t214.5 143t261 53zM1074 999l170 -170q28 -29 70 -29q39 0 67.5 28t28.5 68q0 42 -30 69
l-170 170q6 28 6 50q0 79 -56 135.5t-136 56.5q-78 -1 -134 -57t-56 -135t56.5 -135.5t135.5 -56.5q26 0 48 6z" />
</svg>