<svg xmlns="http://www.w3.org/2000/svg" xmlns:xlink="http://www.w3.org/1999/xlink" version="1.1" viewBox="-10 0 2068 2048">
   <path fill="currentColor"
d="M0 224q0 -93 66 -158.5t158 -65.5h1600q92 0 158 65.5t66 158.5v1600q0 93 -66 158.5t-158 65.5h-1088q-39 0 -67.5 -28t-28.5 -68t28.5 -68t67.5 -28h1088q13 0 22.5 -9t9.5 -23v-992h-1664v224q0 40 -28 68t-67.5 28t-68 -28t-28.5 -68v-832zM832 640h1024v-416
q0 -14 -9.5 -23t-22.5 -9h-992v448zM192 640h448v-448h-416q-13 0 -22.5 9t-9.5 23v416zM192 1758v130q0 40 -28 68t-67.5 28t-68 -28t-28.5 -68v-130q0 -98 38.5 -186.5t102.5 -152.5t153 -102t186 -38h2h30v-246q0 -13 9.5 -22.5t22.5 -9.5q11 0 22 9l368 343q12 11 12 23
q0 13 -12 24l-368 342q-16 14 -35 6t-19 -29v-248l-30 -1h-2q-119 0 -203.5 84.5t-84.5 203.5z" />
</svg>