<svg xmlns="http://www.w3.org/2000/svg" xmlns:xlink="http://www.w3.org/1999/xlink" version="1.1" viewBox="-10 0 2068 2048">
   <path fill="currentColor"
d="M1024 1536q-212 0 -362 -150t-150 -362t150 -362t362 -150t362 150t150 362t-150 362t-362 150zM1024 1344q133 0 226.5 -93.5t93.5 -226.5t-93.5 -226.5t-226.5 -93.5t-226.5 93.5t-93.5 226.5t93.5 226.5t226.5 93.5zM1748 300q28 28 28 68t-28 68l-136 135
q-29 31 -70 31q-33 0 -59 -20t-34 -52q-3 -12 -3 -24q0 -41 31 -70l135 -136q28 -28 68 -28t68 28zM571 1477q28 28 28 67q0 40 -28 68l-135 136q-27 29 -69 29q-40 0 -68 -28t-28 -68q0 -42 29 -69l136 -135q29 -29 67 -29q39 0 68 29zM1024 0q40 0 68 28t28 68v192
q0 40 -28 68t-68 28t-68 -28t-28 -68v-192q0 -40 28 -68t68 -28zM384 1024q0 40 -28 68t-68 28h-192q-40 0 -68 -28t-28 -68t28 -68t68 -28h192q40 0 68 28t28 68zM2048 1024q0 40 -28 68t-68 28h-192q-40 0 -68 -28t-28 -68t28 -68t68 -28h192q40 0 68 28t28 68zM1024 1664
q40 0 68 28t28 68v192q0 40 -28 68t-68 28t-68 -28t-28 -68v-192q0 -40 28 -68t68 -28zM1477 1477q28 -28 67 -28q40 0 68 28l136 135q27 27 27 67t-28 68t-68 28t-67 -27l-135 -136q-29 -29 -29 -67q0 -39 29 -68zM300 300q28 -28 68 -28t68 28l135 136q26 28 26 65
q0 40 -28 68t-68 28q-37 0 -65 -26l-136 -135q-28 -28 -28 -68t28 -68z" />
</svg>