<svg xmlns="http://www.w3.org/2000/svg" xmlns:xlink="http://www.w3.org/1999/xlink" version="1.1" viewBox="-10 0 2068 2048">
   <path fill="currentColor"
d="M224 160h1600q93 0 158.5 65.5t65.5 158.5v512q0 70 -40 128q40 58 40 128v512q0 93 -65.5 158.5t-158.5 65.5h-1600q-93 0 -158.5 -65.5t-65.5 -158.5v-512q0 -70 40 -128q-40 -58 -40 -127v-1v-512q0 -93 65.5 -158.5t158.5 -65.5zM192 384v512q0 14 9 23t23 9h1600
q14 0 23 -9t9 -23v-512q0 -14 -9 -23t-23 -9h-1600q-14 0 -23 9t-9 23zM224 1120q-14 0 -23 9t-9 23v512q0 14 9 23t23 9h1600q14 0 23 -9t9 -23v-512q0 -14 -9 -23t-23 -9h-1600zM896 640q0 -40 28 -68t68 -28h576q40 0 68 28t28 68t-28 68t-68 28h-576q-40 0 -68 -28
t-28 -68zM992 1312h576q40 0 68 28t28 68t-28 68t-68 28h-576q-40 0 -68 -28t-28 -68t28 -68t68 -28zM384 640q0 -40 28 -68t68 -28h64q40 0 68 28t28 68t-28 68t-68 28h-64q-40 0 -68 -28t-28 -68zM480 1312h64q40 0 68 28t28 68t-28 68t-68 28h-64q-40 0 -68 -28t-28 -68
t28 -68t68 -28z" />
</svg>