<svg xmlns="http://www.w3.org/2000/svg" xmlns:xlink="http://www.w3.org/1999/xlink" version="1.1" viewBox="-10 0 2068 2048">
   <path fill="currentColor"
d="M984 136q20 -8 40 -8t40 8l926 416q26 11 42 35t16 53t-16 53t-42 35l-326 146v358q0 91 -60 161.5t-152 116.5q-180 90 -428 90q-48 0 -104 -5q-37 -4 -61.5 -31t-24.5 -64q0 -40 28 -68t68 -28h6q38 4 88 4q200 0 342 -70q58 -29 82 -57.5t24 -48.5v-272l-408 184
q-20 8 -40 8t-40 -8l-472 -212v213q60 20 104 65q88 88 88 230v384q0 40 -28 68t-68 28h-384q-39 0 -67.5 -28t-28.5 -68v-384q0 -142 88 -230q45 -45 104 -65v-299l-262 -118q-26 -11 -42 -35t-16 -53t16 -53t42 -35zM330 640l694 311l692 -311l-692 -311zM320 1440v288
h192v-288q0 -62 -32 -94q-26 -26 -62 -26h-2q-38 0 -64 26q-32 32 -32 94z" />
</svg>