<svg xmlns="http://www.w3.org/2000/svg" xmlns:xlink="http://www.w3.org/1999/xlink" version="1.1" viewBox="-10 0 2068 2048">
   <path fill="currentColor"
d="M192 1024q0 169 66 323t177.5 265.5t265.5 177.5t323 66q40 0 68 28t28 68t-28 68t-68 28q-208 0 -397.5 -81t-327 -218.5t-218.5 -327t-81 -397.5t81 -397.5t218.5 -327t327 -218.5t397.5 -81t397.5 81t327 218.5t218.5 327t81 397.5q0 40 -28 68t-68 28t-68 -28
t-28 -68q0 -169 -66 -323t-177.5 -265.5t-265.5 -177.5t-323 -66t-323 66t-265.5 177.5t-177.5 265.5t-66 323zM1024 1216q-80 0 -136 -56t-56 -136t56 -136t136 -56t136 56t56 136t-56 136t-136 56zM1216 1440q0 -40 28 -68t68 -28h640q40 0 68 28t28 68t-28 68t-68 28
h-640q-40 0 -68 -28t-28 -68zM1568 1728h384q40 0 68 28t28 68t-28 68t-68 28h-384q-40 0 -68 -28t-28 -68t28 -68t68 -28z" />
</svg>