<svg xmlns="http://www.w3.org/2000/svg" xmlns:xlink="http://www.w3.org/1999/xlink" version="1.1" viewBox="-10 0 2068 2048">
   <path fill="currentColor"
d="M110.5 1317q45.5 0 77.5 32t32 78v365q0 15 11 26t25 11h366q46 0 78 32t32 78t-32 77.5t-78 31.5h-366q-105 0 -180.5 -75t-75.5 -181v-365q0 -46 32.5 -78t78 -32zM1938.5 1317q45.5 0 77.5 32t32 78v365q0 106 -75.5 181t-180.5 75h-366q-45 0 -77.5 -31.5
t-32.5 -77.5t32.5 -78t77.5 -32h366q14 0 25 -11t11 -26v-365q0 -46 32.5 -78t78 -32zM256 220q-14 0 -25 10.5t-11 25.5v366q0 46 -32 78t-77.5 32t-78 -32t-32.5 -78v-366q0 -106 75.5 -181t180.5 -75h366q46 0 78 32t32 78t-32 78t-78 32h-366zM1316 110q0 -46 32.5 -78
t77.5 -32h366q105 0 180.5 75t75.5 181v366q0 46 -32 78t-77.5 32t-78 -32t-32.5 -78v-366q0 -15 -10.5 -25.5t-25.5 -10.5h-366q-45 0 -77.5 -32t-32.5 -78z" />
</svg>