<svg xmlns="http://www.w3.org/2000/svg" xmlns:xlink="http://www.w3.org/1999/xlink" version="1.1" viewBox="-10 0 2068 2048">
   <path fill="currentColor"
d="M224 2048q-93 0 -158.5 -65.5t-65.5 -158.5v-1600q0 -93 65.5 -158.5t158.5 -65.5h1088q93 0 158.5 65.5t65.5 158.5v1600q0 22 -2 32h290q14 0 23 -9t9 -23v-764q0 -17 -14 -26l-135 -90q-43 -28 -43 -80q0 -40 28 -68t68 -28q29 0 53 16l135 90q47 32 73.5 81t26.5 105
v764q0 93 -65.5 158.5t-158.5 65.5h-448q-13 0 -25 -3q-19 3 -39 3h-384q-40 0 -68 -28t-28 -68v-160h-128v160q0 40 -28 68t-68 28h-384zM192 1824q0 14 9 23t23 9h288v-160q0 -40 28 -68t68 -28h320q40 0 68 28t28 68v160h288q14 0 23 -9t9 -23v-1600q0 -14 -9 -23t-23 -9
h-1088q-14 0 -23 9t-9 23v1600zM480 768h64q40 0 68 28t28 68t-28 68t-68 28h-64q-40 0 -68 -28t-28 -68t28 -68t68 -28zM384 480q0 -40 28 -68t68 -28h64q40 0 68 28t28 68t-28 68t-68 28h-64q-40 0 -68 -28t-28 -68zM896 864q0 -40 28 -68t68 -28h64q40 0 68 28t28 68
t-28 68t-68 28h-64q-40 0 -68 -28t-28 -68zM992 384h64q40 0 68 28t28 68t-28 68t-68 28h-64q-40 0 -68 -28t-28 -68t28 -68t68 -28zM384 1248q0 -40 28 -68t68 -28h64q40 0 68 28t28 68t-28 68t-68 28h-64q-40 0 -68 -28t-28 -68zM992 1152h64q40 0 68 28t28 68t-28 68
t-68 28h-64q-40 0 -68 -28t-28 -68t28 -68t68 -28z" />
</svg>