<svg xmlns="http://www.w3.org/2000/svg" xmlns:xlink="http://www.w3.org/1999/xlink" version="1.1" viewBox="-10 0 2068 2048">
   <path fill="currentColor"
d="M1023.5 26q139.5 0 272 36.5t245 102.5t207 160.5t160.5 207t103 245t37 272.5q0 166 -52.5 322t-144.5 281.5t-221 220.5t-280 147q-35 6 -52.5 -9.5t-17.5 -38.5q0 -5 1 -103t1 -179q0 -129 -70 -189q53 -7 97.5 -16t94 -27.5t88 -43.5t74.5 -64t60 -88t38 -117
t14 -150q0 -160 -104 -275q7 -16 11 -35.5t8.5 -55.5t-3 -83.5t-26.5 -96.5q-4 -2 -11 -3t-32 1.5t-54.5 11.5t-79.5 33t-105 62q-124 -35 -255.5 -35t-256.5 35q-54 -37 -103.5 -61.5t-80 -33t-54 -11.5t-33.5 -1l-9 2q-20 49 -27.5 96.5t-3 83.5t8.5 55.5t10 35.5
q-104 115 -104 275q0 81 14.5 149.5t38 117.5t59.5 88t74.5 64t87.5 43.5t93.5 27.5t98.5 16q-53 47 -66 137q-21 9 -44.5 16t-58.5 9.5t-67 -5.5t-66.5 -34.5t-61.5 -70.5q-9 -15 -21.5 -30.5t-32.5 -34t-47 -30t-55 -10.5q-31 0 -41.5 8t-4 19t19 22t26.5 19
q29 15 60.5 63.5t45.5 81.5q5 17 14 32t26 34.5t43 32.5t61 23t86.5 9.5t113.5 -11.5v118v73q0 23 -17 38.5t-53 9.5q-151 -51 -280 -146t-222 -220.5t-145.5 -282t-52.5 -322.5q0 -140 37 -272.5t103 -245t160.5 -207t206.5 -160.5t244.5 -102.5t272 -36.5z" />
</svg>