<svg xmlns="http://www.w3.org/2000/svg" xmlns:xlink="http://www.w3.org/1999/xlink" version="1.1" viewBox="-10 0 2068 2048">
   <path fill="currentColor"
d="M631 695q-10 -10 -10 -23q0 -14 9.5 -23t22.5 -9h275v-544q0 -40 28 -68t68 -28t68 28t28 68v544h275q13 0 22.5 9t9.5 23q0 13 -10 23l-370 370q-10 10 -23 10t-23 -10zM201 329q-9 9 -9 23v960q0 14 9 23t23 9h1600q14 0 23 -9t9 -23v-960q0 -14 -9 -23t-23 -9h-384
q-40 0 -68 -28t-28 -68t28 -68t68 -28h384q93 0 158.5 65.5t65.5 158.5v960q0 93 -65.5 158.5t-158.5 65.5h-477q10 98 50 182.5t115 170.5q24 27 24 63q0 40 -28 68t-68 28h-832q-40 0 -68 -28t-28 -68q0 -36 24 -63q75 -86 115 -170.5t50 -182.5h-477q-93 0 -158.5 -65.5
t-65.5 -158.5v-960q0 -93 65.5 -158.5t158.5 -65.5h384q40 0 68 28t28 68t-28 68t-68 28h-384q-14 0 -23 9zM894 1536q-12 171 -98 320h456q-86 -149 -98 -320h-260z" />
</svg>