<svg xmlns="http://www.w3.org/2000/svg" xmlns:xlink="http://www.w3.org/1999/xlink" version="1.1" viewBox="-10 0 2068 2048">
   <path fill="currentColor"
d="M329.5 0q89.5 0 165 44t119.5 120t44 166q0 106 -61 191t-159 119v768q98 35 159 120t61 190q0 90 -43.5 166t-119.5 120t-165.5 44t-165.5 -44t-120 -120t-44 -166q0 -106 61 -190.5t159 -119.5v-768q-97 -34 -158.5 -119.5t-61.5 -190.5q0 -90 44.5 -165.5t120 -120
t165 -44.5zM1717.5 804q45.5 0 78 32.5t32.5 77.5v494q97 35 157.5 119.5t60.5 190.5q0 90 -43.5 166t-119.5 120t-165.5 44t-165.5 -44t-120 -120t-44 -166q0 -106 61 -190.5t159 -119.5v-494q0 -45 32 -77.5t77.5 -32.5zM1420 34q32 -32 78 -32t78 32l142 142l142 -142
q32 -34 78 -34q38 0 67.5 23.5t38.5 58.5q4 14 4 28q0 48 -34 80l-142 142l142 140q30 33 30 76q0 46 -32 78t-78 32q-41 0 -74 -30l-142 -142l-142 142q-32 34 -80 34q-38 0 -67.5 -23t-38.5 -59q-4 -13 -4 -28q0 -47 34 -80l142 -140l-142 -142q-32 -32 -32 -78t32 -78z
M220 329.5q0 45.5 32 78t77.5 32.5t77 -32.5t31.5 -78t-31.5 -77.5t-77 -32t-77.5 32t-32 77.5zM329.5 1610q-45.5 0 -77.5 31.5t-32 77t32 77.5t77.5 32t77 -32t31.5 -77.5t-31.5 -77t-77 -31.5zM1717.5 1610q-45.5 0 -77.5 31.5t-32 77t32 77.5t77.5 32t78 -32t32.5 -77.5
t-32.5 -77t-78 -31.5z" />
</svg>