<svg xmlns="http://www.w3.org/2000/svg" xmlns:xlink="http://www.w3.org/1999/xlink" version="1.1" viewBox="-10 0 2068 2048">
   <path fill="currentColor"
d="M1892 1870h-1736q-64 0 -110 -46t-46 -110v-1380q0 -64 46 -110t110 -46h1736q64 0 110 46t46 110v1380q0 64 -46 110t-110 46zM156 312q-9 0 -15.5 6.5t-6.5 15.5v1380q0 9 6.5 16t15.5 7h283l763 -804q45 -48 113 -48q65 0 110 45l489 490v-1086q0 -9 -6.5 -15.5
t-15.5 -6.5h-1736zM1914 1714v-106l-583 -583q-7 -7 -16 -7t-16 7l-676 712h1269q9 0 15.5 -7t6.5 -16zM891 779q0 120 -85 205t-205 85t-204.5 -85t-84.5 -205t84.5 -204.5t204.5 -84.5t205 84.5t85 204.5zM757 779q0 -64 -45.5 -109.5t-110.5 -45.5t-110.5 45.5
t-45.5 109.5v1q0 64 45.5 109.5t110.5 45.5t110.5 -45.5t45.5 -110.5z" />
</svg>