<svg xmlns="http://www.w3.org/2000/svg" xmlns:xlink="http://www.w3.org/1999/xlink" version="1.1" viewBox="-10 0 2068 2048">
   <path fill="currentColor"
d="M0 480q0 -93 65.5 -158.5t158.5 -65.5h1600q93 0 158.5 65.5t65.5 158.5v1088q0 93 -65.5 158.5t-158.5 65.5h-1600q-93 0 -158.5 -65.5t-65.5 -158.5v-1088zM224 448q-14 0 -23 9t-9 23v1088q0 14 9 23t23 9h1600q14 0 23 -9t9 -23v-1088q0 -14 -9 -23t-23 -9h-1600z
M768 1352v-655v-1q0 -14 9 -23t23 -9q9 0 17 5l545 328q16 11 16 27t-16 27l-545 328q-8 5 -17 5q-14 0 -23 -9t-9 -23z" />
</svg>