<svg xmlns="http://www.w3.org/2000/svg" xmlns:xlink="http://www.w3.org/1999/xlink" version="1.1" viewBox="-10 0 2058 2048">
   <path fill="currentColor"
d="M264 733v291q0 29 34.5 68.5t115.5 79.5q186 91 463 106q38 2 64.5 29.5t26.5 65.5q0 40 -28 68t-68 28h-5q-323 -17 -538 -124q-36 -18 -65 -36v291q0 34 36 71q46 48 141 90q217 95 527 95q65 0 151 -7q4 -1 14 -1q40 0 68 28.5t28 68.5q0 39 -27 66.5t-65 29.5
q-77 7 -169 7q-352 0 -604 -111q-128 -56 -202 -133q-90 -93 -90 -204v-1152q0 -109 90 -204q74 -77 202 -133q252 -111 604 -111t604 111q128 56 202 133q90 93 90 204q0 109 -90 204q-74 77 -202 133q-254 111 -604 111q-352 0 -604 -111q-53 -23 -100 -52zM264 448
q0 34 36 71q46 48 141 90q217 95 527 95t527 -95q93 -42 141 -91q36 -37 36 -70q0 -34 -36 -71q-46 -48 -141 -90q-217 -95 -527 -95t-527 95q-93 42 -141 91q-36 37 -36 70zM1799 970l-99 438h228q20 0 34 14t14 34q0 16 -10 29l-400 528q-14 19 -38 19q-20 0 -34 -14
t-14 -34q0 -7 1 -10l79 -374h-272q-20 0 -34 -14t-14 -34q0 -17 10 -30l464 -592q15 -18 38 -18q20 0 34 14t14 34q0 7 -1 10z" />
</svg>