<svg xmlns="http://www.w3.org/2000/svg" xmlns:xlink="http://www.w3.org/1999/xlink" version="1.1" viewBox="-10 0 2068 2048">
   <path fill="currentColor"
d="M873 1001q10 10 10 23t-10 23l-306 306q-10 10 -23 10q-14 0 -23 -9.5t-9 -22.5v-614q0 -13 9 -22.5t23 -9.5q13 0 23 10zM224 0h1600q93 0 158.5 65.5t65.5 158.5v1600q0 93 -65.5 158.5t-158.5 65.5h-1600q-93 0 -158.5 -65.5t-65.5 -158.5v-1600q0 -93 65.5 -158.5
t158.5 -65.5zM192 224v1600q0 14 9 23t23 9h992v-1664h-992q-14 0 -23 9t-9 23zM1408 1856h416q14 0 23 -9t9 -23v-1600q0 -14 -9 -23t-23 -9h-416v1664z" />
</svg>