<svg xmlns="http://www.w3.org/2000/svg" xmlns:xlink="http://www.w3.org/1999/xlink" version="1.1" viewBox="-10 0 2068 2048">
   <path fill="currentColor"
d="M1030 256q215 -159 426 -159h2q120 0 228 46t190 127q87 88 128 183q44 108 44 252q0 349 -394 750q-88 90 -201 186.5t-182 149.5t-161 121l-28 20q-26 19 -58 19t-58 -19l-28 -20q-92 -68 -161 -121t-182 -149.5t-201 -186.5q-392 -400 -394 -749v-18q0 -120 46 -228
t128 -190q83 -83 196 -127.5t229 -46.5t230.5 39t200.5 121zM882 382q-78 -65 -184.5 -85t-211 8.5t-176.5 100.5q-56 56 -87 129t-31 153v17q0 270 340 616q78 80 176.5 165t162.5 134.5t153 115.5q127 -95 152 -116l-170 -156q-30 -29 -30 -71q0 -39 28 -67.5t68 -28.5
q38 0 66 26l188 174q74 -63 126 -113l-174 -160q-30 -29 -30 -71q0 -39 28 -67.5t68 -28.5q39 0 66 25l176 164q57 -62 104 -127l-36 -36l-150 -150q-64 -64 -157 -63t-159 67l-102 102q-87 85 -206 83t-202 -87l-134 -134q-28 -28 -28 -68q0 -34 24 -62q10 -12 32 -39
t34 -41q168 -204 276 -309zM1792 950q64 -130 64 -245q0 -107 -30 -178q-25 -60 -86 -121q-55 -55 -128 -86t-154 -31h-2q-189 0 -412 205q-49 46 -104 105t-90 100t-92 109l-16 19l72 73q30 29 70 29t66 -27l102 -101q80 -79 186 -108.5t213.5 -2.5t188.5 107
q22 23 47.5 48t55.5 55.5t47 46.5z" />
</svg>