<svg xmlns="http://www.w3.org/2000/svg" xmlns:xlink="http://www.w3.org/1999/xlink" version="1.1" viewBox="-10 0 2068 2048">
   <path fill="currentColor"
d="M1920 384q52 0 90 38t38 90v1152q0 52 -38 90t-90 38h-1792q-52 0 -90 -38t-38 -90v-1152q0 -52 38 -90t90 -38q0 -52 38 -90t90 -38h512q52 0 90 38t38 90h1024zM1344 1536q186 0 317 -131t131 -317t-131 -317t-317 -131t-317 131t-131 317t131 317t317 131zM1664 1088
q0 132 -94 226t-226 94q-131 0 -225.5 -94.5t-94.5 -225.5t94.5 -225.5t225.5 -94.5t225.5 94.5t94.5 225.5zM768 640v-128h-512v128h512z" />
</svg>