<svg xmlns="http://www.w3.org/2000/svg" xmlns:xlink="http://www.w3.org/1999/xlink" version="1.1" viewBox="-10 0 2068 2048">
   <path fill="currentColor"
d="M256 0h1536q105 0 180.5 75t75.5 181v1536q0 106 -75.5 181t-180.5 75h-1536q-105 0 -180.5 -75t-75.5 -181v-1536q0 -106 75.5 -181t180.5 -75zM1792 220h-1536q-14 0 -25 10.5t-11 25.5v1536q0 15 11 26t25 11h1536q14 0 25 -11t11 -26v-1536q0 -15 -10.5 -25.5
t-25.5 -10.5zM1024.5 439q45.5 0 77.5 32t32 78v366h366q45 0 77.5 31.5t32.5 77.5t-32.5 78t-77.5 32h-366v366q0 46 -32 77.5t-77.5 31.5t-78 -31.5t-32.5 -77.5v-366h-364q-46 0 -78 -32t-32 -78t32 -77.5t78 -31.5h364v-366q0 -46 32.5 -78t78 -32z" />
</svg>