<svg xmlns="http://www.w3.org/2000/svg" xmlns:xlink="http://www.w3.org/1999/xlink" version="1.1" viewBox="-10 0 2068 2048">
   <path fill="currentColor"
d="M1990 392q26 12 42 35.5t16 52.5v1088q0 40 -28.5 68t-67.5 28t-66 -26l-576 -544q-30 -28 -30 -70t30 -70l576 -544q27 -26 66 -26q18 0 38 8zM0 1568v-1088q0 -40 28.5 -68t67.5 -28t66 26l576 544q30 28 30 70t-30 70l-576 544q-27 26 -66 26t-67.5 -28t-28.5 -68z
M192 703v642l340 -321zM1516 1024l340 321v-642zM1023.5 512q39.5 0 68 28t28.5 68v64q0 40 -28.5 68t-68 28t-67.5 -28t-28 -68v-64q0 -40 28 -68t67.5 -28zM1120 224v64q0 40 -28.5 68t-68 28t-67.5 -28t-28 -68v-64q0 -40 28 -68t67.5 -28t68 28t28.5 68zM1120 992v64
q0 40 -28.5 68t-68 28t-67.5 -28t-28 -68v-64q0 -40 28 -68t67.5 -28t68 28t28.5 68zM1023.5 1280q39.5 0 68 28t28.5 68v64q0 40 -28.5 68t-68 28t-67.5 -28t-28 -68v-64q0 -40 28 -68t67.5 -28zM1023.5 1664q39.5 0 68 28t28.5 68v64q0 40 -28.5 68t-68 28t-67.5 -28
t-28 -68v-64q0 -40 28 -68t67.5 -28z" />
</svg>