<svg xmlns="http://www.w3.org/2000/svg" xmlns:xlink="http://www.w3.org/1999/xlink" version="1.1" viewBox="-10 0 2068 2048">
   <path fill="currentColor"
d="M1528 36q48 -34 108 -34q54 0 98 26.5t70 71.5l218 378q26 43 26 96q0 57 -30 104t-80 70l-1572 758q-40 18 -84 18q-53 0 -97.5 -25.5t-70.5 -70.5l-88 -152q-26 -45 -26 -96q0 -50 23 -92t63 -68zM1092 1298q20 -8 42 -8q53 0 80 42l342 498q14 23 14 50q0 40 -29 69
t-69 29q-47 0 -76 -38l-244 -356v364q0 40 -28 69t-67.5 29t-68 -29t-28.5 -69v-364l-244 356q-28 42 -78 42q-40 0 -69 -29t-29 -69q0 -30 18 -54l264 -386q15 -22 38 -32zM1412 788l174 -86l-196 -338l-160 108zM416 1030l106 186l176 -84l-122 -212z" />
</svg>