<svg xmlns="http://www.w3.org/2000/svg" xmlns:xlink="http://www.w3.org/1999/xlink" version="1.1" viewBox="-10 0 2068 2048">
   <path fill="currentColor"
d="M1082 636q28 -28 68 -28t68 28l256 255q28 28 28 68t-28 68l-256 255q-27 31 -70 31q-40 0 -68 -28t-28 -68q0 -42 30 -70l188 -188l-188 -188q-28 -28 -28 -68q0 -39 28 -67zM834 771l-188 188l188 188q32 29 32 70q0 40 -28.5 68t-67.5 28q-43 0 -70 -31l-256 -255
q-28 -28 -28 -68t28 -68l256 -255q27 -26 64 -26q40 0 68 28t28 68q0 37 -26 65zM1566 1701q-127 103 -282 159.5t-324 56.5q-131 0 -255 -34.5t-229.5 -96t-194 -150t-150 -193.5t-96.5 -229.5t-35 -254.5t35 -254.5t96.5 -229.5t150 -193.5t194 -150.5t229.5 -96.5
t254.5 -34.5t254.5 34.5t229 96.5t193.5 150.5t150.5 193.5t96.5 229.5t34.5 254.5q0 169 -57 325t-161 282l316 316q32 28 32 70q0 33 -21 59t-53 34q-12 3 -22 3q-43 0 -70 -31zM192 959q0 233 127.5 423t334.5 280q145 64 304 64q149 0 284 -54t240 -152q13 -24 38 -38
q97 -105 151.5 -239.5t54.5 -283.5q0 -156 -61 -298t-164 -244.5t-245 -163.5t-297.5 -61t-297.5 61t-244.5 163.5t-163.5 244.5t-61 298z" />
</svg>