<svg xmlns="http://www.w3.org/2000/svg" xmlns:xlink="http://www.w3.org/1999/xlink" version="1.1" viewBox="-10 0 2068 2048">
   <path fill="currentColor"
d="M1228 66l118 87q31 22 66 28l146 22q110 17 189.5 97t96.5 190l22 146q6 34 28 66l88 119q66 90 66 203t-66 203l-22 29.5t-44 59.5l-22 30q-21 30 -28 66l-22 146q-17 110 -96.5 190t-189.5 97l-146 22q-38 6 -66 27l-120 88q-89 66 -202 66t-202 -66l-30 -22l-60 -44
l-30 -22q-28 -21 -66 -27l-146 -22q-110 -17 -189.5 -97t-96.5 -190l-22 -146q-7 -38 -28 -66l-86 -119q-68 -91 -68 -203t68 -203l21.5 -29.5t43.5 -59.5l21 -30q22 -30 28 -66l22 -146q17 -110 96.5 -190t189.5 -97l146 -22q35 -6 66 -28l120 -87q89 -66 202 -66
q114 0 204 66zM936 221l-120 87q-68 51 -150 63l-36.5 5.5t-73.5 11.5l-36 5q-49 7 -84 42t-42 84l-22 146q-14 85 -64 151l-21.5 29.5t-43.5 59.5l-21 30q-30 40 -30 89t30 89l86 119q52 70 64 151l22 145q7 49 42 84.5t84 42.5l146 22q82 12 150 63l30 21.5t60 43.5l30 22
q39 29 88.5 29t89.5 -29l118 -87q69 -51 152 -63q-1 0 35.5 -5.5t72.5 -11.5l36 -5q49 -7 84 -42.5t42 -84.5l24 -145q11 -84 62 -151l21.5 -29.5t43.5 -59.5l21 -30q30 -40 30 -89t-30 -89l-86 -119q-49 -67 -62 -151l-6 -36.5t-12 -72.5l-6 -37q-7 -49 -42 -84t-84 -42
l-144 -22q-85 -14 -152 -63q1 0 -29 -22t-60 -43l-29 -22q-41 -29 -89.5 -29t-88.5 29zM1444 868l-480 480q-28 28 -68 28t-68 -28l-224 -224q-26 -28 -26 -66q0 -40 28 -68t68 -28q39 0 66 26l156 156l412 -412q28 -26 66 -26q40 0 68 28t28 68q0 38 -26 66z" />
</svg>