<svg xmlns="http://www.w3.org/2000/svg" xmlns:xlink="http://www.w3.org/1999/xlink" version="1.1" viewBox="-10 0 2058 2048">
   <path fill="currentColor"
d="M1138 114v493h493q47 0 80 33.5t33 80.5t-33 80.5t-80 33.5h-493v493q0 47 -33.5 80.5t-80.5 33.5t-80.5 -33.5t-33.5 -80.5v-493h-492q-47 0 -80.5 -33.5t-33.5 -80.5t33.5 -80.5t80.5 -33.5h492v-493q0 -47 33.5 -80.5t80.5 -33.5t80.5 33.5t33.5 80.5zM418 1821h1213
q47 0 80 33.5t33 80.5t-33 80t-80 33h-1213q-47 0 -80.5 -33t-33.5 -80t33.5 -80.5t80.5 -33.5z" />
</svg>