<svg xmlns="http://www.w3.org/2000/svg" xmlns:xlink="http://www.w3.org/1999/xlink" version="1.1" viewBox="-10 0 2068 2048">
   <path fill="currentColor"
d="M1792 0q105 0 180.5 75t75.5 181v1536q0 106 -75.5 181t-180.5 75h-1536q-105 0 -180.5 -75t-75.5 -181v-1536q0 -106 75.5 -181t180.5 -75h1536zM256 220q-14 0 -25 10.5t-11 25.5v1536q0 15 11 26t25 11h1536q14 0 25 -11t11 -26v-1536q0 -15 -10.5 -25.5t-25.5 -10.5
h-1536zM1024 1317h-6q-121 0 -206.5 -86t-85.5 -207t85.5 -206.5t206.5 -85.5h6q119 3 202.5 88t83.5 204t-83.5 204.5t-202.5 88.5z" />
</svg>