<svg xmlns="http://www.w3.org/2000/svg" xmlns:xlink="http://www.w3.org/1999/xlink" version="1.1" viewBox="-10 0 2068 2048">
   <path fill="currentColor"
d="M1024 2048q-208 0 -397.5 -81t-327 -218.5t-218.5 -327t-81 -397.5t81 -397.5t218.5 -327t327 -218.5t397.5 -81t397.5 81t327 218.5t218.5 327t81 397.5t-81 397.5t-218.5 327t-327 218.5t-397.5 81zM1056 393q-15 -10 -32 -10q-38 0 -55 35l-154 311l-343 50
q-23 3 -38 20t-15 40q0 27 19 44l249 243l-59 342q-1 3 -1 10q0 26 17.5 43.5t43.5 17.5q15 0 29 -7l307 -161l307 161q16 7 29 7q26 0 43.5 -17.5t17.5 -43.5q0 -7 -1 -10l-59 -342l249 -243q18 -18 18 -43q0 -23 -15 -40.5t-37 -20.5l-344 -50l-153 -311q-8 -16 -23 -25z
" />
</svg>