<svg xmlns="http://www.w3.org/2000/svg" xmlns:xlink="http://www.w3.org/1999/xlink" version="1.1" viewBox="-10 0 2068 2048">
   <path fill="currentColor"
d="M0 256q0 -106 75.5 -181t180.5 -75h1536q105 0 180.5 75t75.5 181v1097q0 106 -75.5 181t-180.5 75h-612l-378 377q-63 62 -150 62q-88 0 -150 -62t-62 -151v-226h-184q-105 0 -180.5 -75t-75.5 -181v-1097zM256 220q-14 0 -25 10.5t-11 25.5v1097q0 15 11 26t25 11h294
q45 0 76.5 32t31.5 78v320l398 -398q32 -32 78 -32h658q14 0 25 -11t11 -26v-1097q0 -15 -10.5 -25.5t-25.5 -10.5h-1536z" />
</svg>