<svg xmlns="http://www.w3.org/2000/svg" xmlns:xlink="http://www.w3.org/1999/xlink" version="1.1" viewBox="-10 0 2068 2048">
   <path fill="currentColor"
d="M370 118q0 -43 29 -72.5t71 -29.5t71 30t29 72v134q57 72 123.5 140.5t113.5 109.5t121 102l32 28q-8 -159 58 -290q79 -158 236.5 -239.5t339.5 -50.5q91 15 172 57.5t144.5 108.5t100.5 161.5t37 208.5q0 86 -40 165.5t-116 135t-172 65.5l20 70l8 28q54 190 64 300
q14 169 -37.5 302t-162.5 222q-194 156 -538 156h-806q-42 0 -71 -30t-29 -72t29 -71t71 -29h186q-53 -80 -76 -160q-22 -71 -22 -150q0 -62 16 -128q-32 2 -50 2q-118 0 -222 -40q-29 -11 -47.5 -37t-18.5 -57q0 -42 29 -72t71 -30q19 0 36 6q64 24 126 28.5t108 -8
t77.5 -28t50.5 -34.5l2 -2q28 -28 70 -28t72 28q30 30 30 72t-32 72q-159 162 -104 348q22 71 67 129t95 89h342q273 0 412 -112q144 -116 126 -350q-9 -92 -58 -258l-8 -30q-34 -116 -48 -174q-36 -23 -68 -60q-62 -75 -84 -166q-4 -11 -4 -24q0 -42 30 -71t72 -29
q34 0 61 21t35 53q12 48 42 84q36 42 96 42q72 0 120 -51t48 -117q0 -142 -80.5 -229.5t-205.5 -108.5q-115 -19 -214.5 32t-147.5 150q-19 36 -27.5 75t-10.5 71t5 83t13.5 82.5t21.5 98.5l6 26q2 4 2 6q71 90 126 210q10 18 10 44q0 42 -29.5 71t-70.5 29q-31 0 -56.5 -17
t-37.5 -45q-50 -112 -121.5 -193.5t-186.5 -178.5l-44 -34q-72 -61 -117 -100t-115 -109.5t-128 -142.5q-82 47 -138 118q-84 103 -96 202q26 27 78 32q37 4 75 -4t65 -22q20 -10 44 -10q42 0 71 29t29 71q0 27 -12.5 50t-35.5 36q-52 30 -120 43.5t-136 6.5q-49 -4 -94 -20
t-88.5 -52t-69.5 -88l-10 -20v-24q0 -94 40 -187t104 -171q101 -122 226 -182v-98z" />
</svg>