<svg xmlns="http://www.w3.org/2000/svg" xmlns:xlink="http://www.w3.org/1999/xlink" version="1.1" viewBox="-10 0 2058 2048">
   <path fill="currentColor"
d="M1648 1508l-480 480q-60 60 -144 60q-85 0 -145 -60l-480 -480q-122 -122 -190 -283.5t-68 -341.5q0 -179 70 -342.5t188 -282t281.5 -188.5t342.5 -70q180 0 341.5 68.5t283.5 190.5t190.5 283t68.5 341t-68.5 341.5t-190.5 283.5zM1504 403q-94 -94 -218 -146.5
t-262 -52.5q-184 0 -341 91t-248 247.5t-91 340.5q0 139 52.5 263t146.5 218l481 480l480 -480q94 -94 146.5 -218t52.5 -263q0 -138 -52.5 -262t-146.5 -218zM1024 1155h-7q-112 0 -191.5 -79.5t-79.5 -192.5t79 -192t192 -79h6q110 2 188 81t78 190t-77.5 190.5
t-187.5 81.5z" />
</svg>