<svg xmlns="http://www.w3.org/2000/svg" xmlns:xlink="http://www.w3.org/1999/xlink" version="1.1" viewBox="-10 0 2068 2048">
   <path fill="currentColor"
d="M330 0q89 0 165 44t119.5 119.5t43.5 165.5q0 106 -60.5 191t-157.5 119v769q97 34 157.5 119t60.5 191q0 90 -43.5 166t-119.5 120t-165.5 44t-165.5 -44t-120 -120t-44 -166q0 -106 61 -191t159 -119v-769q-98 -34 -158 -119t-60 -191q0 -89 43.5 -165t119 -120
t165.5 -44zM1718.5 2047q-89.5 0 -165.5 -44t-119.5 -119.5t-43.5 -165.5t43.5 -165.5t119.5 -119.5t165.5 -44t165.5 44t120 119.5t44 165.5t-44 165.5t-120 119.5t-165.5 44zM220 329q0 46 32 77.5t77.5 31.5t78 -31.5t32.5 -77.5t-32.5 -78t-78 -32t-77.5 32t-32 78z
M329.5 1608q-45.5 0 -77.5 32t-32 78t32 78t77.5 32t78 -32t32.5 -78t-32.5 -78t-78 -32zM1718.5 1608q-45.5 0 -78 32t-32.5 78t32.5 78t78 32t77.5 -32t32 -78t-32 -78t-77.5 -32zM1902 950q0 76 -54 129.5t-129.5 53.5t-129 -53.5t-53.5 -129.5t53.5 -129.5t129 -53.5
t129.5 53.5t54 129.5zM1902 329q0 76 -54 129t-129.5 53t-129 -53t-53.5 -129t53.5 -129.5t129 -53.5t129.5 53.5t54 129.5z" />
</svg>