<svg xmlns="http://www.w3.org/2000/svg" xmlns:xlink="http://www.w3.org/1999/xlink" version="1.1" viewBox="-10 0 2058 2048">
   <path fill="currentColor"
d="M954 11q34 -11 69.5 -11t70.5 11l688 220q70 23 115 83.5t45 135.5v461q0 353 -172 614q-204 311 -660 505q-44 18 -86.5 18t-87.5 -18q-454 -194 -658 -505q-172 -261 -172 -614v-461q0 -75 45 -135.5t115 -83.5zM1034 198q-4 -1 -11 -1t-9 1l-688 220q-22 7 -22 32v461
q0 294 138 506q171 262 572 432q6 2 10 2t10 -2q400 -170 572 -432q138 -213 138 -506v-461q0 -11 -6.5 -20t-15.5 -12zM1122 616v393q0 41 -29 70t-69.5 29t-69 -29t-28.5 -70v-393q0 -40 28.5 -69t69 -29t69.5 29t29 69zM1154 1370q0 54 -38 92.5t-92 38.5t-93 -38.5
t-39 -92.5t39 -92.5t93 -38.5t92 38.5t38 92.5z" />
</svg>