<svg xmlns="http://www.w3.org/2000/svg" xmlns:xlink="http://www.w3.org/1999/xlink" version="1.1" viewBox="-10 0 2058 2048">
   <path fill="currentColor"
d="M1433 2048q-85 0 -145 -60t-60 -145t60 -145t145 -60t145 60t60 145t-60 145t-145 60zM1433 1228q-85 0 -145 -59.5t-60 -144.5t60 -145t145 -60t145 60t60 145t-60 144.5t-145 59.5zM614 2048q-85 0 -144.5 -60t-59.5 -145t59.5 -145t144.5 -60t145 60t60 145t-60 145
t-145 60zM1638 204q0 85 -60 145t-145 60t-145 -60t-60 -145t60 -144.5t145 -59.5t145 59.5t60 144.5zM819 1024q0 85 -60 144.5t-145 59.5t-144.5 -59.5t-59.5 -144.5t59.5 -145t144.5 -60t145 60t60 145zM614 409q-85 0 -144.5 -60t-59.5 -145t59.5 -144.5t144.5 -59.5
t145 59.5t60 144.5t-60 145t-145 60z" />
</svg>