<svg xmlns="http://www.w3.org/2000/svg" xmlns:xlink="http://www.w3.org/1999/xlink" version="1.1" viewBox="-10 0 2068 2048">
   <path fill="currentColor"
d="M256 128v1152h1280v384q0 52 -38 90t-90 38h-640v256l-192 -192l-192 192v-256h-256q-52 0 -90 -38t-38 -90v-1536q0 -52 38 -90t90 -38h896v128h-768zM1920 0q52 0 90 38t38 90v768q0 52 -38 90t-90 38h-384v128h-128v-128h-128q-52 0 -90 -38t-38 -90v-896h768z
M1408 1408h-1280v256h256v-128h384v128h640v-256zM1920 640v-512h-512v512h512zM1920 896v-128h-384v128h384zM512 384h-128v-128h128v128zM512 640h-128v-128h128v128zM512 896h-128v-128h128v128zM1408 896v-128h-128v128h128zM384 1024h128v128h-128v-128z" />
</svg>