<svg xmlns="http://www.w3.org/2000/svg" xmlns:xlink="http://www.w3.org/1999/xlink" version="1.1" viewBox="-10 0 2058 2048">
   <path fill="currentColor"
d="M254 224v1477q0 13 9 22.5t23 9.5h407q40 0 68 28.5t28 68.5t-28 68t-68 28h-407q-93 0 -159 -66t-66 -159v-1477q0 -93 66 -158.5t159 -65.5h1091q93 0 159 65.5t66 158.5v994q0 40 -28.5 68t-68.5 28t-68 -28t-28 -68v-994q0 -14 -9.5 -23t-22.5 -9h-1091q-14 0 -23 9
t-9 23zM1958 1449l-585 571q-28 28 -67 28q-42 0 -69 -29l-249 -250q-26 -28 -26 -66q0 -40 28 -68t68 -28q38 0 66 26l182 183l517 -505q27 -27 67 -27t68.5 28t28.5 68t-29 69zM543 513h577q40 0 68 28.5t28 68.5t-28 68t-68 28h-577q-40 0 -68.5 -28t-28.5 -68
t28.5 -68.5t68.5 -28.5zM446 995q0 -40 28.5 -68t68.5 -28h256q40 0 68.5 28t28.5 68t-28.5 68t-68.5 28h-256q-40 0 -68.5 -28t-28.5 -68z" />
</svg>