<svg xmlns="http://www.w3.org/2000/svg" xmlns:xlink="http://www.w3.org/1999/xlink" version="1.1" viewBox="-10 0 2068 2048">
   <path fill="currentColor"
d="M644 284q-180 93 -296 256l173 173q10 10 10 23q0 14 -9.5 23t-22.5 9h-467q-14 0 -23 -9t-9 -23v-467q0 -13 9 -22.5t23 -9.5q13 0 23 10l26 26t50 50.5t56.5 57t22.5 21.5q143 -187 356 -294t458 -107q195 0 374.5 71.5t314 193.5t222.5 292t108 360v11q0 40 -28 68
t-68 28q-37 0 -64 -25t-31 -62q-21 -207 -136.5 -378t-298.5 -269.5t-394 -98.5q-201 0 -379 92zM162 1046q29 25 34 64q16 155 88 293t181 237.5t255 158t304 58.5q205 0 382.5 -94t293.5 -255l-173 -173q-10 -10 -10 -23q0 -14 9.5 -23t22.5 -9h467q14 0 23 9t9 23v467
q0 13 -9 22.5t-23 9.5q-13 0 -23 -10l-26 -26t-50 -50.5t-56.5 -57t-22.5 -21.5q-143 187 -356 294t-458 107q-195 0 -374.5 -71.5t-314 -193.5t-222.5 -292t-108 -360v-10q0 -40 28 -68t68 -28q32 0 61 22zM1160 1160q-56 61 -141 61q-79 0 -135.5 -56.5t-56.5 -135.5
q0 -85 61 -141q54 -51 131 -51q79 0 135.5 56.5t56.5 135.5q0 77 -51 131z" />
</svg>