<svg xmlns="http://www.w3.org/2000/svg" xmlns:xlink="http://www.w3.org/1999/xlink" version="1.1" viewBox="-10 0 2068 2048">
   <path fill="currentColor"
d="M588 72q70 -72 170 -72q73 0 132.5 39t87.5 103l86 182q40 89 116 151.5t172 86.5l340 80q66 16 113 63.5t63.5 106t1.5 124t-64 114.5l-304 304l514 516q32 29 32 74q0 36 -22 64t-56 36q-12 4 -26 4q-45 0 -74 -32l-516 -514l-304 304q-49 49 -114 64t-124 -1.5
t-106 -63.5t-64 -113l-80 -340q-24 -96 -86.5 -172.5t-149.5 -117.5l-184 -84q-64 -29 -103 -88.5t-39 -131.5q0 -100 72 -172zM790 228q-8 -16 -26 -20h-2h-4q-14 0 -24 10l-516 516q-10 10 -10 24l1 2t1 4q3 18 18 26l184 84q132 62 225 174.5t127 253.5l80 340
q4 12 13.5 20t20.5 8q14 0 24 -10l758 -758q10 -10 10 -24q0 -12 -8 -21.5t-20 -12.5l-338 -82q-143 -34 -256 -126.5t-174 -223.5z" />
</svg>