<svg xmlns="http://www.w3.org/2000/svg" xmlns:xlink="http://www.w3.org/1999/xlink" version="1.1" viewBox="-10 0 2068 2048">
   <path fill="currentColor"
d="M155 150l382 276l2 2l1083 784l2 2l382 276q42 29 42 80q0 39 -28 67.5t-68 28.5q-31 0 -58 -20l-232 -168v346q0 39 -27.5 66.5t-67.5 27.5q-33 0 -58 -18l-485 -372l-484 372q-25 18 -58 18q-40 0 -68 -27.5t-28 -66.5v-1272l-343 -248q-42 -28 -42 -78q0 -40 27.5 -68
t67.5 -28q32 0 59 20zM577 692v938l389 -298q25 -20 58 -20t58 20l389 298v-290zM752 130h687q92 0 157.5 66t65.5 158v464q0 39 -27.5 66.5t-67.5 27.5t-68 -27.5t-28 -66.5v-464q0 -13 -9.5 -22.5t-22.5 -9.5h-687q-40 0 -68 -28t-28 -67.5t28 -68t68 -28.5z" />
</svg>