<svg xmlns="http://www.w3.org/2000/svg" xmlns:xlink="http://www.w3.org/1999/xlink" version="1.1" viewBox="-10 0 2068 2048">
   <path fill="currentColor"
d="M992 333l182 -183q71 -71 164 -110.5t197 -39.5t199 40.5t163.5 109t109.5 163.5t41 199t-39.5 197.5t-110.5 164.5l-366 366q-71 71 -164 110.5t-197.5 39.5t-197.5 -39.5t-165 -110.5q-28 -32 -28 -75q0 -45 32 -77t76 -32q43 0 76 29q86 86 207 86t207 -86l364 -366
q80 -85 80 -200q0 -121 -85.5 -207t-206.5 -86q-118 0 -202 79l-182 183q-33 30 -74 30q-46 0 -78 -32t-32 -78q0 -42 30 -75zM306 1743q86 86 207 86t207 -86l182 -183q33 -29 74 -29q46 0 78 32t32 78q0 41 -30 74l-182 183q-71 71 -164 110.5t-197 39.5t-199 -40.5
t-163.5 -109t-109.5 -163.5t-41 -199t39.5 -197.5t110.5 -164.5l366 -365q72 -71 165 -110.5t197 -39.5t197 39.5t165 110.5q30 33 30 74q0 46 -32 78t-78 32q-43 0 -76 -29q-86 -86 -206 -86t-206 86l-366 365q-86 86 -86 207t86 207z" />
</svg>