<svg xmlns="http://www.w3.org/2000/svg" xmlns:xlink="http://www.w3.org/1999/xlink" version="1.1" viewBox="-10 0 2068 2048">
   <path fill="currentColor"
d="M535 1001l306 -306q10 -10 23 -10q14 0 23 9.5t9 22.5v614q0 13 -9 22.5t-23 9.5q-13 0 -23 -10l-306 -306q-10 -10 -10 -23t10 -23zM0 224q0 -93 65.5 -158.5t158.5 -65.5h1600q93 0 158.5 65.5t65.5 158.5v1600q0 93 -65.5 158.5t-158.5 65.5h-1600q-93 0 -158.5 -65.5
t-65.5 -158.5v-1600zM224 192q-14 0 -23 9t-9 23v1600q0 14 9 23t23 9h992v-1664h-992zM1824 1856q14 0 23 -9t9 -23v-1600q0 -14 -9 -23t-23 -9h-416v1664h416z" />
</svg>