<svg xmlns="http://www.w3.org/2000/svg" xmlns:xlink="http://www.w3.org/1999/xlink" version="1.1" viewBox="-10 0 2058 2048">
   <path fill="currentColor"
d="M1049 10l400 401q10 10 10 25q0 14 -10 24t-24 10h-297v173q0 43 -30.5 73.5t-73.5 30.5t-73.5 -30.5t-30.5 -73.5v-173h-297q-14 0 -24 -10t-10 -24q0 -15 10 -25l401 -401q10 -10 24 -10q15 0 25 10zM920 1405q0 -43 30.5 -73.5t73.5 -30.5t73.5 30.5t30.5 73.5v173
h297q14 0 24 10t10 24q0 15 -10 25l-400 401q-10 10 -25 10q-14 0 -24 -10l-401 -401q-10 -10 -10 -25q0 -14 10 -24t24 -10h297v-173zM228 1128h-69q-43 0 -73.5 -30.5t-30.5 -73.5t30.5 -73.5t73.5 -30.5h69q43 0 73.5 30.5t30.5 73.5t-30.5 73.5t-73.5 30.5zM747 1024
q0 43 -30.5 73.5t-73.5 30.5h-69q-43 0 -73 -30.5t-30 -73.5t30 -73.5t73 -30.5h69q43 0 73.5 30.5t30.5 73.5zM1059 1128h-70q-43 0 -73 -30.5t-30 -73.5t30 -73.5t73 -30.5h70q43 0 73 30.5t30 73.5t-30 73.5t-73 30.5zM1578 1024q0 43 -30.5 73.5t-73.5 30.5h-69
q-43 0 -73.5 -30.5t-30.5 -73.5t30.5 -73.5t73.5 -30.5h69q43 0 73.5 30.5t30.5 73.5zM1889 1128h-69q-43 0 -73.5 -30.5t-30.5 -73.5t30.5 -73.5t73.5 -30.5h69q43 0 73.5 30.5t30.5 73.5t-30.5 73.5t-73.5 30.5z" />
</svg>