<svg xmlns="http://www.w3.org/2000/svg" xmlns:xlink="http://www.w3.org/1999/xlink" version="1.1" viewBox="-10 0 2068 2048">
   <path fill="currentColor"
d="M1426.5 0q45.5 0 77.5 32t32 78v366q0 15 10.5 25.5t25.5 10.5h366q46 0 78 32t32 78t-32 78t-78 32h-366q-105 0 -180.5 -75t-75.5 -181v-366q0 -46 32.5 -78t78 -32zM622.5 0q45.5 0 77.5 32t32 78v366q0 106 -75.5 181t-180.5 75h-366q-45 0 -77.5 -32t-32.5 -78
t32.5 -78t77.5 -32h366q15 0 25.5 -10.5t10.5 -25.5v-366q0 -46 32.5 -78t78 -32zM0 1427q0 -46 32.5 -78t77.5 -32h366q105 0 180.5 75t75.5 181v366q0 46 -32 77.5t-77.5 31.5t-78 -31.5t-32.5 -77.5v-366q0 -15 -11 -26t-25 -11h-366q-45 0 -77.5 -31.5t-32.5 -77.5z
M1316 1573q0 -106 75.5 -181t180.5 -75h366q46 0 78 32t32 78t-32 77.5t-78 31.5h-366q-14 0 -25 11t-11 26v366q0 46 -32 77.5t-77.5 31.5t-78 -31.5t-32.5 -77.5v-366z" />
</svg>