<svg xmlns="http://www.w3.org/2000/svg" xmlns:xlink="http://www.w3.org/1999/xlink" version="1.1" viewBox="-10 0 2068 2048">
   <path fill="currentColor"
d="M1314 803l-448 447q-28 28 -66 28q-40 0 -68 -28l-192 -191q-26 -27 -26 -66q0 -40 28 -68t68 -28q38 0 66 26l124 124l378 -380q29 -30 70 -30q40 0 68 28t28 68q0 42 -30 70zM958 1918q-130 0 -254 -34.5t-229 -96.5t-193.5 -150.5t-150.5 -193.5t-96.5 -229.5
t-34.5 -254.5t34.5 -254.5t96.5 -229.5t150.5 -193.5t193.5 -150.5t229 -96.5t254.5 -34.5t254.5 34.5t229.5 96.5t194 150.5t150 193.5t96.5 229.5t35 254.5q0 169 -57 325t-161 282l79 79t159 158l78 79q32 28 32 70q0 33 -20.5 59t-51.5 34q-12 3 -24 3q-43 0 -70 -31
l-316 -316q-127 103 -282 159.5t-324 56.5zM958 192q-155 0 -297 61t-244.5 163.5t-163.5 244.5t-61 298t61 298t163.5 244.5t244.5 163.5t297 61q149 0 284 -54t240 -152q13 -24 38 -38q97 -105 151.5 -239.5t54.5 -283.5q0 -162 -64 -306q-89 -207 -279.5 -334
t-424.5 -127z" />
</svg>