<svg xmlns="http://www.w3.org/2000/svg" xmlns:xlink="http://www.w3.org/1999/xlink" version="1.1" viewBox="-10 0 2068 2048">
   <path fill="currentColor"
d="M1012 1222q170 83 277 242t119 354v6q0 40 -28.5 68t-67.5 28t-66 -26t-30 -64q-5 -100 -47.5 -189.5t-110.5 -155t-160.5 -103.5t-193 -38t-193 38t-160.5 103.5t-110.5 155t-48.5 189.5q-2 38 -29.5 64t-66.5 26t-67.5 -28t-28.5 -68v-5q12 -195 119.5 -354.5
t278.5 -242.5q-67 -63 -104.5 -147.5t-37.5 -178.5q0 -91 36 -174t96 -143t143 -95.5t173.5 -35.5t173.5 35.5t143 95.5t95.5 143t35.5 174q0 95 -37 179.5t-103 146.5zM1695.5 128q39.5 0 68 28t28.5 68v160h160q39 0 67.5 28t28.5 68t-28.5 68t-67.5 28h-160v160
q0 40 -28.5 68t-68 28t-67.5 -28t-28 -68v-160h-160q-40 0 -68 -28t-28 -68t28 -68t68 -28h160v-160q0 -40 28 -68t67.5 -28zM704 640h-6q-105 0 -180.5 75t-75.5 181t75.5 181t180.5 75h6q105 -2 177.5 -77t72.5 -179t-72.5 -179t-177.5 -77z" />
</svg>