<svg xmlns="http://www.w3.org/2000/svg" xmlns:xlink="http://www.w3.org/1999/xlink" version="1.1" viewBox="-10 0 2067 2048">
   <path fill="currentColor"
d="M607 305q-187 111 -298.5 301.5t-111.5 415.5q0 113 30 221t83.5 199t130.5 168t168.5 130.5t199 83.5t220.5 30q217 0 409 -108q23 -12 45 -12q40 0 68 28t28 68q0 25 -12 47t-33 35q-234 136 -510 136q-139 0 -271.5 -37t-244.5 -102.5t-206.5 -160t-160.5 -207
t-103 -245t-37 -271.5q0 -264 125 -492q133 -242 373 -387.5t525 -145.5q137 0 267 35.5t241 99.5t204.5 155.5t160.5 200.5t106 237.5t43 264.5q1 -1 1 47t-1 97v48q0 95 -47 176.5t-128 128.5t-177 47q-92 0 -170.5 -44t-126.5 -119q-71 77 -168 120.5t-206 43.5
q-104 0 -198.5 -40.5t-163 -109.5t-109.5 -163.5t-41 -198.5q0 -97 36 -188q57 -145 187 -235t289 -90q104 0 198.5 40.5t163 109.5t109 163.5t40.5 198.5v160q0 66 47 113t113 47t113 -47t47 -113v-177q-3 -166 -70 -317t-178 -260t-263.5 -173t-319.5 -64q-225 0 -416 111
zM1343 1025q0 -87 -43 -160.5t-116.5 -116t-160 -42.5t-160.5 42.5t-117 116t-43 160.5t43 161t117 116.5t160.5 42.5t160 -42.5t116.5 -116.5t43 -161z" />
</svg>