<svg xmlns="http://www.w3.org/2000/svg" xmlns:xlink="http://www.w3.org/1999/xlink" version="1.1" viewBox="-10 0 2058 2048">
   <path fill="currentColor"
d="M1433 239v170h307q42 0 72.5 30t30.5 73q0 42 -30.5 72t-72.5 30h-1433q-42 0 -72 -29.5t-30 -72.5t30 -73t72 -30h307v-170q0 -99 70 -169t169 -70h341q99 0 169 70t70 169zM546 911l90 901q2 13 11.5 22t22.5 9h708q13 0 22.5 -9t11.5 -22l90 -901q5 -38 33.5 -63.5
t67.5 -25.5q42 0 72.5 30t30.5 72v8l-91 901q-9 91 -76.5 153t-160.5 62h-708q-93 0 -161 -62t-77 -153l-90 -901q-1 -4 -1 -13q0 -43 30 -73t72 -30q40 0 70 27.5t33 67.5zM819 239v170h409v-170q0 -14 -10 -24t-24 -10h-341q-14 0 -24 10t-10 24z" />
</svg>