<svg xmlns="http://www.w3.org/2000/svg" xmlns:xlink="http://www.w3.org/1999/xlink" version="1.1" viewBox="-10 0 2068 2048">
   <path fill="currentColor"
d="M0 512q0 -40 28.5 -68t67.5 -28h960q39 0 67.5 28t28.5 68t-28.5 68t-67.5 28h-960q-39 0 -67.5 -28t-28.5 -68zM0 1024q0 -40 28.5 -68t67.5 -28h576q40 0 68 28t28 68t-28 68t-68 28h-576q-39 0 -67.5 -28t-28.5 -68zM0 1536q0 -40 28.5 -68t67.5 -28h320q40 0 68 28
t28 68t-28 68t-68 28h-320q-39 0 -67.5 -28t-28.5 -68zM1728 1248h288q13 0 22.5 9t9.5 23t-10 23l-384 384q-8 9 -22 9t-22 -9l-384 -384q-10 -10 -10 -23q0 -14 9 -23t23 -9h288v-800q0 -40 28 -68t67.5 -28t68 28t28.5 68v800z" />
</svg>