<svg xmlns="http://www.w3.org/2000/svg" xmlns:xlink="http://www.w3.org/1999/xlink" version="1.1" viewBox="-10 0 2068 2048">
   <path fill="currentColor"
d="M512 288q0 -93 66 -158.5t158 -65.5h714q94 0 160 66l372 373q66 66 66 158v1099q0 93 -66 158.5t-158 65.5h-1152q-39 0 -67.5 -28t-28.5 -68t28.5 -68t67.5 -28h1152q13 0 22.5 -9t9.5 -23v-928h-352q-94 0 -159 -65.5t-65 -158.5v-352h-544q-13 0 -22.5 9t-9.5 23v320
q0 40 -28 68t-67.5 28t-68 -28t-28.5 -68v-320zM732 924q28 -28 68 -28t68 28l256 256q28 28 28 68t-28 68l-256 256q-30 31 -70 31q-34 0 -59.5 -20.5t-34.5 -52.5q-2 -12 -2 -24q0 -41 30 -70l188 -188l-188 -188q-28 -28 -28 -68t28 -68zM420 1060l-188 188l188 188
q26 27 26 66q0 40 -28 68t-68 28q-38 0 -66 -26l-256 -256q-28 -28 -28 -68t28 -68l256 -256q28 -26 66 -26q40 0 68 28t28 68q0 39 -26 66zM1472 264v344q0 14 9 23t23 9h344l-2 -2l-372 -373z" />
</svg>