<svg xmlns="http://www.w3.org/2000/svg" xmlns:xlink="http://www.w3.org/1999/xlink" version="1.1" viewBox="-10 0 2058 2048">
   <path fill="currentColor"
d="M667 209q-125 86 -197.5 222t-72.5 293h1q0 164 78.5 304t212.5 225q58 37 93 97t32 131v1l-22 465q-1 42 -32 71.5t-73 29.5q-43 0 -73.5 -30t-30.5 -74v-7l23 -464q0 -26 -29 -44q-178 -113 -283.5 -299.5t-105.5 -405.5h1v-1q0 -209 96 -388.5t261 -295.5
q55 -39 121 -39q62 0 112 33q49 31 77.5 84t28.5 114v393q0 20 15 29l105 71q9 6 19 6q11 0 20 -6l104 -71q15 -10 15 -29v-393q0 -61 28.5 -114t77.5 -84q50 -33 112 -33q66 0 121 39q165 116 261.5 296t96.5 389h-1q0 219 -105 405.5t-283 299.5q-28 18 -28 44l22 464v6
q0 44 -30.5 74.5t-73.5 30.5q-24 0 -48 -12q-54 -29 -56 -89l-23 -466q-3 -71 32 -131t93 -97q134 -85 213 -225t79 -304h-1v-1q0 -157 -72.5 -292.5t-196.5 -221.5q-9 6 -9 23v392q0 62 -28.5 114.5t-78.5 86.5l-104 71q-63 42 -137 42t-137 -42l-104 -71
q-50 -34 -78.5 -86.5t-28.5 -114.5v-393q0 -16 -9 -22z" />
</svg>