<svg xmlns="http://www.w3.org/2000/svg" xmlns:xlink="http://www.w3.org/1999/xlink" version="1.1" viewBox="-10 0 2058 2048">
   <path fill="currentColor"
d="M74 256q0 -106 75 -181t181 -75h366q45 0 77.5 32t32.5 78t-32.5 78t-77.5 32h-366q-16 0 -26 10.5t-10 25.5v1536q0 15 10.5 26t25.5 11h366q45 0 77.5 32t32.5 78t-32.5 77.5t-77.5 31.5h-366q-106 0 -181 -75t-75 -181v-1536zM1600 915l-288 -289q-34 -32 -34 -80
q0 -38 23.5 -67.5t58.5 -38.5q18 -4 28 -4q46 0 80 35l474 476q32 32 32 77q0 46 -32 78l-474 475q-32 35 -80 35q-38 0 -68 -23t-40 -59q-2 -14 -2 -28q0 -47 34 -80l288 -288h-832q-45 0 -77.5 -32t-32.5 -78t32.5 -77.5t77.5 -31.5h832z" />
</svg>