<svg xmlns="http://www.w3.org/2000/svg" xmlns:xlink="http://www.w3.org/1999/xlink" version="1.1" viewBox="-10 0 2068 2048">
   <path fill="currentColor"
d="M1344 384q40 0 68 28t28 68v128h128q40 0 68 28t28 68t-28 68t-68 28h-128v128q0 40 -28 68t-68 28t-68 -28t-28 -68v-128h-128q-40 0 -68 -28t-28 -68t28 -68t68 -28h128v-128q0 -40 28 -68t68 -28zM864 0h960q93 0 158.5 65.5t65.5 158.5v960q0 93 -65.5 158.5
t-158.5 65.5h-960q-93 0 -158.5 -65.5t-65.5 -158.5v-960q0 -93 65.5 -158.5t158.5 -65.5zM832 224v960q0 14 9 23t23 9h960q14 0 23 -9t9 -23v-960q0 -14 -9 -23t-23 -9h-960q-14 0 -23 9t-9 23zM224 640h192q40 0 68 28t28 68t-28 68t-68 28h-192q-14 0 -23 9t-9 23v960
q0 14 9 23t23 9h960q14 0 23 -9t9 -23v-192q0 -40 28 -68t68 -28t68 28t28 68v192q0 93 -65.5 158.5t-158.5 65.5h-960q-93 0 -158.5 -65.5t-65.5 -158.5v-960q0 -93 65.5 -158.5t158.5 -65.5z" />
</svg>