<svg xmlns="http://www.w3.org/2000/svg" xmlns:xlink="http://www.w3.org/1999/xlink" version="1.1" viewBox="-10 0 2058 2048">
   <path fill="currentColor"
d="M1140 30l684 398q53 31 83.5 84t30.5 114v796q0 62 -31 114t-83 83l-684 398q-53 31 -115.5 31t-114.5 -31l-686 -398q-52 -31 -83 -83t-31 -114v-796q0 -61 31 -114t83 -84l686 -398q50 -30 114 -30t116 30zM1008 200l-604 350l620 361l620 -361l-604 -350
q-8 -5 -15.5 -5t-16.5 5zM306 720v702q0 18 18 28l602 350v-720zM1122 1800l604 -350q16 -10 16 -28v-702l-620 360v720z" />
</svg>