<svg xmlns="http://www.w3.org/2000/svg" xmlns:xlink="http://www.w3.org/1999/xlink" version="1.1" viewBox="-10 0 2058 2048">
   <path fill="currentColor"
d="M1984 384q0 104 -51.5 192.5t-139.5 140t-193 51.5q-80 0 -152.5 -32t-125.5 -88l-502 279q12 46 12 96.5t-12 97.5l502 279q53 -56 125.5 -88t152.5 -32q104 0 192.5 51.5t140 140t51.5 192.5t-51.5 192.5t-140 140t-193 51.5t-193 -51.5t-139.5 -140t-51 -192.5
q0 -47 12 -97l-502 -279q-53 57 -125 88.5t-153 31.5q-104 0 -192.5 -51.5t-140 -140t-51.5 -192.5t51.5 -192.5t140 -140t192.5 -51.5q81 0 153 31.5t125 87.5l502 -279q-12 -46 -12 -96q0 -104 51.5 -192.5t140 -140t193 -51.5t192.5 51.5t139.5 140t51.5 192.5z
M1792 1664q0 -80 -56.5 -136t-136 -56t-135.5 56t-56 136t56 136t135.5 56t136 -56t56.5 -136zM640 1024q0 -80 -56 -136t-135.5 -56t-136 56t-56.5 136t56.5 136t136 56t135.5 -56t56 -136zM1792 384q0 -80 -56.5 -136t-136 -56t-135.5 56t-56 136t56 136t135.5 56t136 -56
t56.5 -136z" />
</svg>