<svg xmlns="http://www.w3.org/2000/svg" xmlns:xlink="http://www.w3.org/1999/xlink" version="1.1" viewBox="-10 0 2068 2048">
   <path fill="currentColor"
d="M256 0h1536q105 0 180.5 75t75.5 181v1536q0 106 -75.5 181t-180.5 75h-1536q-105 0 -180.5 -75t-75.5 -181v-1536q0 -106 75.5 -181t180.5 -75zM220 256v1536q0 15 11 26t25 11h1536q14 0 25 -11t11 -26v-1536q0 -15 -10.5 -25.5t-25.5 -10.5h-1536q-14 0 -25 10.5
t-11 25.5zM1576 773l-658 658q-32 32 -76 32q-46 0 -78 -32l-292 -293q-30 -32 -30 -74q0 -46 32 -78t78 -32q42 0 74 29l216 215l580 -580q33 -30 74 -30q46 0 78 32t32 78q0 42 -30 75z" />
</svg>