<svg xmlns="http://www.w3.org/2000/svg" xmlns:xlink="http://www.w3.org/1999/xlink" version="1.1" viewBox="-10 0 2058 2048">
   <path fill="currentColor"
d="M1216 55q57 -55 136 -55q80 0 137 57t57 137q0 43 -18 80l-194 430h270q49 0 91.5 19t71 49.5t45 71t17.5 82.5t-16.5 85t-52.5 77l-938 915q-47 45 -112 45h-38q-66 0 -113 -47t-47 -113q0 -32 12 -61l198 -483h-278q-49 0 -91.5 -19t-71 -49.5t-45 -71.5t-17.5 -83
t16.5 -85t52.5 -77zM1350 192l-930 905q-8 9 -8 23t9 23t23 9h420q40 0 68 28t28 68q0 18 -8 36l-218 536l894 -869q8 -9 8 -23t-9 -23t-23 -9h-420q-39 0 -67.5 -28t-28.5 -68q0 -21 8 -40l258 -565v-1v-1l-2 -1h-2z" />
</svg>