<svg xmlns="http://www.w3.org/2000/svg" xmlns:xlink="http://www.w3.org/1999/xlink" version="1.1" viewBox="-10 0 2068 2048">
   <path fill="currentColor"
d="M0 224q0 -93 65.5 -158.5t158.5 -65.5h1600q93 0 158.5 65.5t65.5 158.5v1216q0 93 -65.5 158.5t-158.5 65.5h-792l-330 329q-55 55 -131 55q-77 0 -132 -54.5t-55 -131.5v-198h-160q-93 0 -158.5 -65.5t-65.5 -158.5v-1216zM224 192q-14 0 -23 9t-9 23v1216q0 14 9 23
t23 9h256q40 0 68 28t28 68v280l348 -348q28 -28 68 -28h832q14 0 23 -9t9 -23v-1216q0 -14 -9 -23t-23 -9h-1600zM1120 480v320q0 40 -28 68t-68 28t-68 -28t-28 -68v-320q0 -40 28 -68t68 -28t68 28t28 68zM1152 1152q0 53 -37.5 90.5t-90.5 37.5t-90.5 -37.5t-37.5 -90.5
t37.5 -90.5t90.5 -37.5t90.5 37.5t37.5 90.5z" />
</svg>