<svg xmlns="http://www.w3.org/2000/svg" xmlns:xlink="http://www.w3.org/1999/xlink" version="1.1" viewBox="-10 0 2068 2048">
   <path fill="currentColor"
d="M640 1056q0 -40 28 -68t68 -28h512q39 0 67.5 28t28.5 68t-28.5 68t-67.5 28h-512q-40 0 -68 -28t-28 -68zM512 1344h512q39 0 67.5 28t28.5 68t-28.5 68t-67.5 28h-512q-39 0 -67.5 -28t-28.5 -68t28.5 -68t67.5 -28zM1664 0q104 0 192 51t139 139.5t51 193.5
q0 162 -100 360q-64 127 -202 332l-2 2q-137 206 -192 313q-78 156 -78 273q0 80 56 136t135.5 56t135 -56t55.5 -136q0 -50 -22.5 -92t-61.5 -68q-40 -28 -40 -78q0 -40 28 -68t68 -28q25 0 50 15q79 53 125.5 137t46.5 182q0 104 -51.5 192.5t-140 140t-192.5 51.5h-1280
q-104 0 -192.5 -51.5t-140 -140t-51.5 -192.5q0 -72 18.5 -148t54 -152.5t70.5 -138.5t85 -138q8 -14 36.5 -56t43.5 -65q124 -189 164 -262h-150q-164 0 -244 -100q-78 -95 -78 -216v-4q0 -104 51.5 -192.5t140 -140t192.5 -51.5h1280zM1663.5 192q-79.5 0 -135.5 56
t-56 136q0 88 84 145q44 28 44 79q0 40 -28.5 68t-67.5 28h-816q-29 60 -70.5 131.5t-73.5 121t-84 126.5q-13 20 -72 109q-96 150 -146 262.5t-50 209.5q0 80 56.5 136t135.5 56h946q-50 -89 -50 -191v-1q0 -162 100 -360q26 -52 64.5 -116t62.5 -100.5t75 -112.5l2 -4
q137 -206 192 -313q78 -156 78 -274q0 -80 -55.5 -136t-135 -56zM384 192q-79 0 -135.5 56t-56.5 136q0 57 34 99q24 29 96 29h980q-22 -60 -22 -126v-2q0 -105 50 -192h-946z" />
</svg>