<svg xmlns="http://www.w3.org/2000/svg" xmlns:xlink="http://www.w3.org/1999/xlink" version="1.1" viewBox="-10 0 2058 2048">
   <path fill="currentColor"
d="M907 31q53 -31 117 -31t116 31l664 385q54 31 73.5 87.5t0 112.5t-73.5 87l-664 385q-52 31 -116 31t-117 -31l-663 -385q-37 -22 -60 -60t-23 -83t23 -83.5t60 -60.5zM1040 203q-6 -4 -16 -4t-17 4l-614 357l614 356q7 4 17 4t16 -4l614 -356zM175 1013q13 -23 36 -36.5
t50 -13.5q26 0 50 13l696 404q9 5 17 5t16 -5l697 -404q25 -13 49 -13q42 0 71 29.5t29 70.5q0 27 -13.5 50t-36.5 36l-696 403q-54 32 -116 32t-117 -32l-695 -403q-23 -13 -36.5 -36.5t-13.5 -50.5q0 -25 13 -49zM175 1477q13 -23 36 -36.5t50 -13.5q24 0 50 14l696 404
q7 4 17 4t16 -4l697 -404q27 -14 49 -14q42 0 71 29.5t29 70.5q0 27 -13.5 50t-36.5 36l-696 404q-52 31 -116 31t-117 -31l-695 -404q-23 -13 -36.5 -36t-13.5 -50q0 -26 13 -50z" />
</svg>