<svg xmlns="http://www.w3.org/2000/svg" xmlns:xlink="http://www.w3.org/1999/xlink" version="1.1" viewBox="-10 0 2068 2048">
   <path fill="currentColor"
d="M1626 739q76 -80 76 -189q0 -113 -79.5 -193t-192.5 -80q-111 0 -190 76l-114 114q-32 32 -74 32t-72 -30t-30 -73q0 -42 30 -73l116 -115q65 -66 152 -103t184 -37q98 0 186.5 38t152.5 102t101.5 152.5t37.5 185.5t-37 184.5t-103 153.5l-26 27q-29 27 -70 27
q-42 0 -72 -30t-30 -72q0 -40 28 -70zM1370 1215q-2 4 -8 10q-67 66 -150 112t-170 61q-97 18 -190.5 -6.5t-165.5 -97.5q-32 -30 -32 -75q0 -43 29.5 -73t72.5 -30t74 33q66 66 176 47q108 -19 196 -102l-170 -123v-1l-42 -29q-96 -61 -194.5 -52.5t-169.5 79.5l-342 341
q-82 81 -82 196q0 113 79.5 193t192.5 80q115 0 196 -83l114 -114q30 -28 70 -28q43 0 72.5 30t29.5 73q0 41 -26 70l-114 114q-66 66 -153.5 103t-185 37t-185.5 -38t-152 -102t-102 -152.5t-38 -185.5t37 -184.5t103 -153.5l340 -341q79 -80 186 -116l-488 -351
q-42 -31 -42 -83q0 -43 30 -72.5t72 -29.5q34 0 60 19l810 583q21 14 46 33l850 613q44 31 44 83q0 42 -30.5 72t-73.5 30q-33 0 -60 -19z" />
</svg>