<svg xmlns="http://www.w3.org/2000/svg" xmlns:xlink="http://www.w3.org/1999/xlink" version="1.1" viewBox="-10 0 2068 2048">
   <path fill="currentColor"
d="M704 544q0 81 41.5 149t110.5 105q23 12 37.5 35t14.5 50q0 25 -12 45l-330 621q-13 23 -35.5 37t-50.5 14q-39 0 -67.5 -28t-28.5 -68q0 -25 12 -45l290 -545q-81 -67 -127.5 -163.5t-46.5 -206.5q0 -98 38.5 -186.5t102.5 -153t153 -102.5t186.5 -38t186.5 38
t153 102.5t102 153t38 186.5q0 40 -28.5 68t-68 28t-67.5 -28t-28 -68q0 -119 -84 -203.5t-203.5 -84.5t-204 84.5t-84.5 203.5zM942 462q22 -14 50 -14q55 0 82 46l334 557q76 -27 160 -27q97 0 186 38t153 102.5t102.5 153t38.5 186.5t-38.5 186.5t-102.5 153t-153 102.5
t-186 38q-131 0 -240 -64q-48 -28 -48 -83q0 -40 28 -68.5t68 -28.5q26 0 48 13q69 39 144 39q119 0 203.5 -84.5t84.5 -203.5t-84.5 -203.5t-203.5 -84.5q-81 0 -148 41q-22 14 -50 14q-53 0 -82 -47l-378 -631q-14 -20 -14 -49q0 -26 12.5 -48t33.5 -35v1zM372 1123
q12 23 12 48q0 55 -48 83q-65 38 -104.5 104.5t-39.5 145.5q0 119 84.5 203.5t204 84.5t203.5 -84.5t84 -203.5q0 -40 28.5 -68t67.5 -28h704q39 0 67.5 28t28.5 68t-28.5 68t-67.5 28h-618q-34 166 -165.5 275t-304.5 109q-97 0 -186 -38t-153 -102.5t-102.5 -153
t-38.5 -186.5q0 -131 65.5 -242t174.5 -174q23 -13 48 -13q55 0 84 48z" />
</svg>