<svg xmlns="http://www.w3.org/2000/svg" xmlns:xlink="http://www.w3.org/1999/xlink" version="1.1" viewBox="-10 0 2068 2048">
   <path fill="currentColor"
d="M300 656q0 -103 40.5 -196.5t108 -161.5t161 -108t196 -40t196 40t161 108t107.5 161.5t40 196.5q0 129 -60 239t-164 179q165 62 290 186q34 34 34 86v242v144v98q0 27 -20 47.5t-48 20.5h-1246q-39 -2 -67.5 -31.5t-28.5 -70.5v-4q12 -245 156.5 -439.5t367.5 -278.5
q-103 -69 -163.5 -179.5t-60.5 -238.5zM2048 940q0 86 -41 160.5t-111 119.5q-16 11 -16 30v80q0 14 -10 24l-48 48q-4 4 -4 12q0 6 4 10l48 48q10 10 10 24v32q0 14 -10 24l-48 48q-4 4 -4 10q0 8 4 12l48 48q10 10 10 24v38v2q0 11 -10 22l-106 118q-22 22 -52 22t-52 -22
l-108 -118q-8 -11 -8 -22v-2v-482q0 -20 -16 -30q-70 -45 -111 -119.5t-41 -160.5q0 -91 45 -168.5t122.5 -122.5t168 -45t168 45t123 122.5t45.5 168.5zM1812 890q0 -42 -29 -72t-71 -30t-71 29.5t-29 72t29 71.5t71 29t71 -29t29 -71z" />
</svg>