<svg xmlns="http://www.w3.org/2000/svg" xmlns:xlink="http://www.w3.org/1999/xlink" version="1.1" viewBox="-10 0 2058 2048">
   <path fill="currentColor"
d="M1222 82q5 64 20 124t32 106t47 96t51.5 82t62 77t62.5 68t67 67q43 43 65 65.5t59.5 65t57.5 72.5t45.5 75.5t38.5 87t22.5 95t9.5 111.5q0 111 -31 214t-86 187.5t-133 154.5t-170 118t-199 74t-219 26q-134 0 -260 -36.5t-230 -106t-182 -163t-122 -214.5t-44 -254
q0 -126 49.5 -239.5t134.5 -183.5q37 -28 76.5 -8.5t57.5 66.5q22 60 59.5 95.5t75.5 43t72 -1t55 -29.5q29 -28 30.5 -77t-30.5 -117q-44 -88 -59 -175.5t-3 -160.5t42.5 -141t74.5 -121.5t96.5 -98.5t104.5 -75t102 -47q36 -13 65 12t33 66zM1024.5 1855
q134.5 0 254 -45.5t205 -123t135 -185t49.5 -227.5q0 -47 -6 -86.5t-22.5 -77t-33 -66.5t-49 -67t-58.5 -65.5t-73 -73.5l-4 -5q-38 -37 -59 -58.5t-58 -62.5t-61 -72t-55.5 -77.5t-53 -90t-43 -98.5t-36.5 -112q-68 55 -110 123q-101 162 -6 352q24 49 37 100.5t13.5 107
t-21.5 110t-65 98.5q-59 59 -143 80.5t-167 1.5q-111 -27 -186 -113q-28 73 -28 151v1q0 120 50 228t135.5 185.5t205 122.5t254 45z" />
</svg>