<svg xmlns="http://www.w3.org/2000/svg" xmlns:xlink="http://www.w3.org/1999/xlink" version="1.1" viewBox="-10 0 2068 2048">
   <path fill="currentColor"
d="M832 96v160h384v-160q0 -40 28 -68t68 -28t68 28t28 68v160h160q93 0 158.5 65.5t65.5 158.5v160h160q40 0 68 28t28 68t-28 68t-68 28h-160v384h160q40 0 68 28t28 68t-28 68t-68 28h-160v160q0 93 -65.5 158.5t-158.5 65.5h-160v160q0 40 -28 68t-68 28t-68 -28
t-28 -68v-160h-384v160q0 40 -28 68t-68 28t-68 -28t-28 -68v-160h-160q-93 0 -158.5 -65.5t-65.5 -158.5v-160h-160q-40 0 -68 -28t-28 -68t28 -68t68 -28h160v-384h-160q-40 0 -68 -28t-28 -68t28 -68t68 -28h160v-160q0 -93 65.5 -158.5t158.5 -65.5h160v-160
q0 -40 28 -68t68 -28t68 28t28 68zM1568 1600q14 0 23 -9t9 -23v-1088q0 -14 -9 -23t-23 -9h-1088q-14 0 -23 9t-9 23v1088q0 14 9 23t23 9h1088zM736 640h576q40 0 68 28t28 68v576q0 40 -28 68t-68 28h-576q-40 0 -68 -28t-28 -68v-576q0 -40 28 -68t68 -28zM832 1216h384
v-384h-384v384z" />
</svg>