<svg xmlns="http://www.w3.org/2000/svg" xmlns:xlink="http://www.w3.org/1999/xlink" version="1.1" viewBox="-10 0 2068 2048">
   <path fill="currentColor"
d="M416 480q-14 0 -23 9t-9 23v1152q0 40 -28 68t-68 28h-192q-40 0 -68 -28t-28 -68t28 -68t68 -28h96v-1056q0 -93 65.5 -158.5t158.5 -65.5h1216q93 0 158.5 65.5t65.5 158.5v1056h96q40 0 68 28t28 68t-28 68t-68 28h-192q-40 0 -68 -28t-28 -68v-1152q0 -14 -9 -23
t-23 -9h-1216zM1020 988l-197 -197q-10 -10 -10 -23q0 -14 9.5 -23t22.5 -9h531q14 0 23 9t9 23v531q0 13 -9 22.5t-23 9.5q-13 0 -23 -10l-197 -197l-352 352q-28 30 -70 30q-40 0 -68 -28t-28 -68q0 -42 30 -70z" />
</svg>