<svg xmlns="http://www.w3.org/2000/svg" xmlns:xlink="http://www.w3.org/1999/xlink" version="1.1" viewBox="-10 0 2058 2048">
   <path fill="currentColor"
d="M1024 192q-223 0 -367.5 139.5t-144.5 340.5q0 87 31.5 153t94.5 142l27 32q53 63 86 109q67 98 80 191v10q0 40 -28 68t-68 28q-35 0 -61.5 -22.5t-32.5 -56.5q-7 -51 -47 -109q-35 -48 -70 -87q-22 -26 -34 -41q-36 -44 -61.5 -80.5t-52.5 -89.5t-41.5 -115.5
t-14.5 -131.5q0 -139 54 -263.5t147 -214t224 -142t279 -52.5t279 52.5t224 142t147 214t54 263.5q0 69 -14.5 131.5t-41.5 115.5t-52.5 89.5t-61.5 80.5q-12 15 -34 41q-56 67 -70 87q-40 56 -47 109q-7 33 -33 55t-61 22q-40 0 -68 -28t-28 -68v-9q13 -92 80 -190
q33 -46 86 -109q12 -13 27 -32q63 -76 94.5 -142t31.5 -153q0 -201 -144.5 -340.5t-367.5 -139.5zM736 1536h576q40 0 68 28t28 68t-28 68t-68 28h-576q-40 0 -68 -28t-28 -68t28 -68t68 -28zM768 1952q0 -40 28 -68t68 -28h320q40 0 68 28t28 68t-28 68t-68 28h-320
q-40 0 -68 -28t-28 -68z" />
</svg>