<svg xmlns="http://www.w3.org/2000/svg" xmlns:xlink="http://www.w3.org/1999/xlink" version="1.1" viewBox="-10 0 2068 2048">
   <path fill="currentColor"
d="M1280 1088q-53 0 -90.5 -37.5t-37.5 -90.5t37.5 -90.5t90.5 -37.5t90.5 37.5t37.5 90.5t-37.5 90.5t-90.5 37.5zM512 1248h-96q-40 0 -68 -28t-28 -68t28 -68t68 -28h96v-192h-96q-40 0 -68 -28t-28 -68t28 -68t68 -28h96v-160q0 -53 37.5 -90.5t90.5 -37.5h960
q53 0 90.5 37.5t37.5 90.5v896q0 53 -37.5 90.5t-90.5 37.5h-960q-53 0 -90.5 -37.5t-37.5 -90.5v-160zM704 576v102q28 10 46 34.5t18 55.5t-18 55.5t-46 34.5v204q28 10 46 34.5t18 55.5t-18 55.5t-46 34.5v102h832v-768h-832zM1632 1888v-32h-1216v32q0 40 -28 68t-68 28
t-68 -28t-28 -68v-32q-93 0 -158.5 -65.5t-65.5 -158.5v-1344q0 -93 65.5 -158.5t158.5 -65.5h1600q93 0 158.5 65.5t65.5 158.5v1344q0 93 -65.5 158.5t-158.5 65.5v32q0 40 -28 68t-68 28t-68 -28t-28 -68zM224 256q-14 0 -23 9t-9 23v1344q0 14 9 23t23 9h1600
q14 0 23 -9t9 -23v-1344q0 -14 -9 -23t-23 -9h-1600z" />
</svg>