<svg xmlns="http://www.w3.org/2000/svg" xmlns:xlink="http://www.w3.org/1999/xlink" version="1.1" viewBox="-10 0 2068 2048">
   <path fill="currentColor"
d="M1831 1492q40 28 40 78q0 30 -19 56q-98 132 -226 227q-24 18 -56 18q-40 0 -68 -28.5t-28 -67.5q0 -51 39 -78q106 -78 184 -184q28 -40 78 -40q30 0 56 19zM1492 217q28 -40 78 -40q30 0 56 19q130 95 226 226q19 25 19 57q0 39 -28.5 67.5t-67.5 28.5q-50 0 -78 -40
q-78 -107 -184 -184q-39 -28 -39 -78q0 -30 18 -56zM864 13q84 -13 161 -13q74 0 159 13q34 5 57.5 31.5t23.5 62.5q0 39 -28.5 67.5t-67.5 28.5q-9 0 -14 -1q-62 -10 -131 -10t-130 10q-2 0 -5 0.5t-5 0.5q-40 0 -68 -28.5t-28 -67.5q0 -35 21.5 -61.5t54.5 -32.5zM123 784
q34 5 57.5 32t23.5 63q0 10 -1 15q-10 61 -10 131q0 67 10 129q1 5 1 15q0 39 -28.5 67.5t-67.5 28.5q-36 0 -63 -23.5t-32 -57.5q-12 -80 -12 -161q0 -80 12 -159q5 -35 32 -58t63 -23q10 0 15 1zM1926 784q5 -1 15 -1q35 0 61.5 23t32.5 58q25 160 0 320q-6 34 -32.5 57.5
t-61.5 23.5q-40 0 -68 -28.5t-28 -67.5q0 -10 1 -15q10 -62 10 -131q0 -68 -10 -129q-1 -5 -1 -15q0 -36 23 -63t58 -32zM785 1926q5 -35 31.5 -58t62.5 -23q10 0 15 1q61 10 131 10q68 0 130 -10q5 -1 15 -1q39 0 67.5 28t28.5 68q0 35 -24 62t-58 33q-80 12 -160.5 12
t-159.5 -12q-35 -6 -58 -33t-23 -62q0 -5 2 -15zM218 1492q24 -18 56 -18q50 0 78 39q77 106 184 184q35 30 35 75q0 39 -28.5 67.5t-67.5 28.5q-28 0 -52 -16q-133 -98 -227 -226q-18 -24 -18 -56q0 -50 40 -78zM557 217q18 26 18 56q0 50 -39 78q-107 77 -184 184
q-29 35 -75 35q-40 0 -68 -28.5t-28 -67.5q0 -30 15 -52q94 -129 227 -226q25 -19 56 -19q49 0 78 40z" />
</svg>