<svg xmlns="http://www.w3.org/2000/svg" xmlns:xlink="http://www.w3.org/1999/xlink" version="1.1" viewBox="-10 0 2068 2048">
   <path fill="currentColor"
d="M1024 2048q-208 0 -397.5 -81t-327 -218.5t-218.5 -327t-81 -397.5t81 -397.5t218.5 -327t327 -218.5t397.5 -81t397.5 81t327 218.5t218.5 327t81 397.5t-81 397.5t-218.5 327t-327 218.5t-397.5 81zM704 512q-80 0 -136 56t-56 136v640q0 78 39.5 135t88.5 57v-128
q0 -53 37.5 -90.5t90.5 -37.5h640v128h-128v128h192q26 0 45 -19t19 -45v-896q0 -26 -19 -45t-45 -19h-768zM768 1440v322q0 14 9 23t23 9t23 -9l114 -114q9 -9 23 -9t23 9l114 114q9 9 23 9t23 -9t9 -23v-354h-352q-14 0 -23 9t-9 23z" />
</svg>