<svg xmlns="http://www.w3.org/2000/svg" xmlns:xlink="http://www.w3.org/1999/xlink" version="1.1" viewBox="-10 0 2068 2048">
   <path fill="currentColor"
d="M18 296q28 -40 78 -40q30 0 56 18l1854 1342q42 29 42 80q0 40 -28.5 68t-67.5 28q-33 0 -58 -20l-288 -208q-287 226 -584 226q-321 0 -630 -266q-186 -159 -336 -386q-36 -52 -36 -114.5t36 -115.5q107 -162 238 -294l-254 -184q-40 -29 -40 -78q0 -30 18 -56z
M216 1014q-4 4 -4 10q0 3 4 8q139 208 302 348q254 218 504 218q210 0 422 -152l-286 -206q-60 38 -134 38q-106 0 -181 -74.5t-75 -179.5q0 -34 6 -62l-322 -234q-133 131 -236 286zM1022 448q-96 0 -190 32q-16 6 -34 6q-39 0 -66.5 -28.5t-27.5 -67.5q0 -32 18.5 -57
t47.5 -35q123 -42 252 -42q325 0 632 266q184 158 336 386q34 51 34 114q0 66 -34 116q-25 40 -52 76q-28 38 -78 38q-39 0 -67.5 -28t-28.5 -68q0 -31 20 -56q18 -25 46 -68q4 -2 4 -8t-4 -10q-138 -205 -302 -346q-255 -220 -506 -220z" />
</svg>