<svg xmlns="http://www.w3.org/2000/svg" xmlns:xlink="http://www.w3.org/1999/xlink" version="1.1" viewBox="-10 0 2058 2048">
   <path fill="currentColor"
d="M244 325q0 -134 95.5 -229.5t229.5 -95.5h1137q40 0 69 29t29 69v1625q0 40 -28.5 68.5t-69.5 28.5h-325q-41 0 -69 -28t-28 -69t28.5 -69.5t68.5 -28.5h228v-260h-1040q-54 0 -92 38t-38 92t37 91q28 30 28 69q0 40 -28.5 68.5t-69.5 28.5q-40 0 -69 -29
q-93 -96 -93 -227v-1v-1170zM1609 195h-1040q-54 0 -92 38t-38 92v872q64 -27 129 -27h1h1040v-975zM634 1593q0 -14 9.5 -23.5t22.5 -9.5h455q13 0 23 10t10 23v422q0 13 -10 23t-23 10q-10 0 -19 -7l-189 -141q-7 -6 -19 -6t-20 6l-188 141q-9 7 -20 7q-13 0 -22.5 -9.5
t-9.5 -23.5v-422z" />
</svg>