<svg xmlns="http://www.w3.org/2000/svg" xmlns:xlink="http://www.w3.org/1999/xlink" version="1.1" viewBox="-10 0 2068 2048">
   <path fill="currentColor"
d="M1235 33q33 -33 81 -33q16 0 38 7q150 55 278 153t220 225.5t144 285t52 325.5q0 143 -38 279.5t-106 252t-165 212.5t-212 164.5t-251.5 105.5t-279.5 38q-167 0 -324.5 -51.5t-285 -143.5t-226 -220t-152.5 -279q-8 -21 -8 -38q0 -46 33.5 -79.5t80.5 -33.5q16 0 38 7
q134 49 280 49q113 0 220 -29.5t197.5 -83t167 -129.5t129.5 -167t82.5 -198t29.5 -219q0 -147 -48 -282q-8 -21 -8 -38q0 -47 33 -80zM1478 326q6 54 6 108q0 143 -37.5 279t-105.5 251.5t-165 212.5t-212.5 165t-252 106t-279.5 38q-44 0 -106 -7q114 159 290 251t380 92
q112 0 219 -29.5t197.5 -83t167 -129.5t129.5 -167t83 -198t30 -219q0 -203 -92.5 -379t-251.5 -291z" />
</svg>