<svg xmlns="http://www.w3.org/2000/svg" xmlns:xlink="http://www.w3.org/1999/xlink" version="1.1" viewBox="-10 0 2068 2048">
   <path fill="currentColor"
d="M0 276q0 -114 81 -195t195 -81h394q114 0 195 81t81 195v394q0 114 -81 195t-195 81h-394q-114 0 -195 -81t-81 -195v-394zM1102 276q0 -114 81 -195t195 -81h394q114 0 195 81t81 195v394q0 114 -81 195t-195 81h-394q-114 0 -195 -81t-81 -195v-394zM0 1379
q0 -114 81 -195t195 -81h394q114 0 195 81t81 195v394q0 114 -81 194.5t-195 80.5h-394q-114 0 -195 -80.5t-81 -194.5v-394zM1102 1379q0 -114 81 -195t195 -81h394q114 0 195 81t81 195v394q0 114 -81 194.5t-195 80.5h-394q-114 0 -195 -80.5t-81 -194.5v-394zM276 237
q-16 0 -28 11.5t-12 27.5v394q0 16 12 27.5t28 11.5h394q16 0 28 -11.5t12 -27.5v-394q0 -16 -12 -27.5t-28 -11.5h-394zM1378 237q-16 0 -27 11.5t-11 27.5v394q0 16 11 27.5t27 11.5h394q17 0 28.5 -11.5t11.5 -27.5v-394q0 -16 -11.5 -27.5t-28.5 -11.5h-394zM276 1339
q-16 0 -28 11.5t-12 28.5v394q0 16 12 27.5t28 11.5h394q16 0 28 -11.5t12 -27.5v-394q0 -17 -12 -28.5t-28 -11.5h-394zM1378 1339q-16 0 -27 11.5t-11 28.5v394q0 17 11 28t27 11h394q17 0 28.5 -11t11.5 -28v-394q0 -17 -11.5 -28.5t-28.5 -11.5h-394z" />
</svg>