<svg xmlns="http://www.w3.org/2000/svg" xmlns:xlink="http://www.w3.org/1999/xlink" version="1.1" viewBox="-10 0 2068 2048">
   <path fill="currentColor"
d="M648 956h1024q43 0 72.5 30t29.5 72.5t-29.5 72t-72.5 29.5h-1024q-42 0 -72 -29.5t-30 -72t30 -72.5t72 -30zM648 1638h1024q43 0 72.5 30.5t29.5 73t-29.5 72.5t-72.5 30h-1024q-42 0 -72 -30t-30 -72.5t30 -73t72 -30.5zM102 274h888q42 0 72 29.5t30 72t-30 72.5
t-72 30h-888q-42 0 -72 -30t-30 -72.5t30 -72t72 -29.5zM136.5 1844q-56.5 0 -96.5 -40t-40 -96.5t40 -97t96.5 -40.5t97 40.5t40.5 97t-40.5 96.5t-97 40zM274 1024.5q0 56.5 -40.5 96t-97 39.5t-96.5 -39.5t-40 -96t40 -96.5t96.5 -40t97 40t40.5 96.5zM1682 604
l-308 -342q-8 -10 -8 -24t10 -24t24 -10h612q15 0 25.5 10t10.5 24q0 13 -10 24l-306 342q-10 10 -25.5 10t-24.5 -10z" />
</svg>