<svg xmlns="http://www.w3.org/2000/svg" xmlns:xlink="http://www.w3.org/1999/xlink" version="1.1" viewBox="-10 0 2058 2048">
   <path fill="currentColor"
d="M64 376q0 -133 93.5 -226.5t226.5 -93.5t226.5 93.5t93.5 226.5q0 103 -59.5 186t-153.5 116v748q94 33 153.5 115.5t59.5 185.5q0 133 -93.5 227t-226.5 94t-226.5 -94t-93.5 -227q0 -103 60 -185t154 -116v-748q-94 -33 -154 -116t-60 -186zM871 351l341 -341
q10 -10 25 -10t25.5 10t10.5 25v234h142q147 0 251 104.5t104 251.5v801q94 34 154 116t60 185q0 133 -93.5 227t-226.5 94t-226.5 -94t-93.5 -227q0 -103 59.5 -185.5t153.5 -115.5v-801q0 -59 -41.5 -100.5t-100.5 -41.5h-142v234q0 15 -10.5 25.5t-25.5 10.5
q-14 0 -25 -11l-341 -341q-10 -10 -10 -25t10 -25zM384 269q-44 0 -75 31.5t-31 75.5t31 75.5t75 31.5t75.5 -31.5t31.5 -75.5t-31.5 -75.5t-75.5 -31.5zM384 1621q-44 0 -75 31t-31 75t31 75.5t75 31.5t75.5 -31.5t31.5 -75.5t-31.5 -75t-75.5 -31zM1557 1727
q0 44 31.5 75.5t75.5 31.5t75 -31.5t31 -75.5t-31 -75t-75 -31t-75.5 31t-31.5 75z" />
</svg>