<svg xmlns="http://www.w3.org/2000/svg" xmlns:xlink="http://www.w3.org/1999/xlink" version="1.1" viewBox="-10 0 2068 2048">
   <path fill="currentColor"
d="M608 896h576q40 0 68 28t28 68t-28 68t-68 28h-576q-40 0 -68 -28t-28 -68t28 -68t68 -28zM640 608q0 -40 28 -68t68 -28h704q40 0 68 28t28 68t-28 68t-68 28h-704q-40 0 -68 -28t-28 -68zM864 1280h576q40 0 68 28t28 68t-28 68t-68 28h-576q-40 0 -68 -28t-28 -68
t28 -68t68 -28zM0 224q0 -93 65.5 -158.5t158.5 -65.5h1600q93 0 158.5 65.5t65.5 158.5v1600q0 93 -65.5 158.5t-158.5 65.5h-1600q-93 0 -158.5 -65.5t-65.5 -158.5v-1600zM224 192q-14 0 -23 9t-9 23v1600q0 14 9 23t23 9h1600q14 0 23 -9t9 -23v-1600q0 -14 -9 -23
t-23 -9h-1600z" />
</svg>