<svg xmlns="http://www.w3.org/2000/svg" xmlns:xlink="http://www.w3.org/1999/xlink" version="1.1" viewBox="-10 0 2068 2048">
   <path fill="currentColor"
d="M0 224q0 -93 65.5 -158.5t158.5 -65.5h1600q93 0 158.5 65.5t65.5 158.5v1600q0 93 -65.5 158.5t-158.5 65.5h-1600q-93 0 -158.5 -65.5t-65.5 -158.5v-1600zM224 192q-14 0 -23 9t-9 23v1600q0 14 9 23t23 9h1600q14 0 23 -9t9 -23v-1600q0 -14 -9 -23t-23 -9h-1600z
M1180 700q28 -28 68 -28t68 28l256 256q28 28 28 68t-28 68l-256 256q-29 31 -70 31q-33 0 -59 -20.5t-34 -52.5q-3 -12 -3 -24q0 -42 30 -70l188 -188l-188 -188q-28 -28 -28 -68t28 -68zM868 836l-188 188l188 188q31 29 31 70q0 33 -20.5 59t-52.5 34q-12 3 -24 3
q-42 0 -70 -30l-256 -256q-28 -28 -28 -68t28 -68l256 -256q28 -26 66 -26q40 0 68 28t28 68q0 38 -26 66z" />
</svg>