<svg xmlns="http://www.w3.org/2000/svg" xmlns:xlink="http://www.w3.org/1999/xlink" version="1.1" viewBox="-10 0 2068 2048">
   <path fill="currentColor"
d="M858 1376h-560l-112 320q-10 28 -34.5 45t-55.5 17q-39 0 -67.5 -28.5t-28.5 -67.5q0 -14 6 -30l432 -1240q16 -46 56.5 -75t91.5 -29t91.5 29.5t56.5 76.5l412 1240q6 15 6 30q0 39 -28.5 67.5t-67.5 28.5q-32 0 -57 -18.5t-35 -47.5zM1258 818q32 -58 79.5 -100.5
t103 -65.5t110.5 -33.5t113 -10.5q72 0 140.5 22.5t123 63.5t87.5 105.5t33 142.5v722q0 40 -28.5 68t-67.5 28q-31 0 -55 -16.5t-35 -43.5q-113 60 -262 60q-159 0 -266 -90q-57 -48 -87.5 -115t-30.5 -147q0 -70 27.5 -135t84.5 -113q120 -104 336 -104h192v-114
q0 -57 -51 -99.5t-141 -42.5q-178 0 -236 110q-13 22 -35.5 36t-48.5 14q-40 0 -68 -28t-28 -68q0 -24 10 -46zM794 1184l-210 -628l-218 628h428zM1856 1248h-192q-144 0 -210 58q-46 40 -46 102q0 74 50 116q53 44 142 44q124 0 202 -58q21 -14 34 -30.5t16.5 -25
t3.5 -14.5v-192z" />
</svg>