<svg xmlns="http://www.w3.org/2000/svg" xmlns:xlink="http://www.w3.org/1999/xlink" version="1.1" viewBox="-10 0 2068 2048">
   <path fill="currentColor"
d="M0 352q0 -146 103 -249t249 -103h1344q146 0 249 103t103 249v1344q0 146 -103 249t-249 103h-1344q-146 0 -249 -103t-103 -249v-1344zM352 192q-66 0 -113 47t-47 113v1344q0 66 47 113t113 47h1344q66 0 113 -47t47 -113v-1344q0 -66 -47 -113t-113 -47h-1344z
M1024 512q40 0 68 28t28 68v250l216 -125q23 -13 48 -13q40 0 68 28t28 68q0 55 -48 83l-216 125l216 125q46 29 46 81q0 40 -28 68t-68 28q-26 0 -46 -11l-216 -125v250q0 40 -28 68t-68 28t-68 -28t-28 -68v-250l-216 125q-23 13 -48 13q-40 0 -68 -28t-28 -68
q0 -55 48 -83l216 -125l-216 -125q-48 -28 -48 -83q0 -40 28 -68t68 -28q25 0 48 13l216 125v-250q0 -40 28 -68t68 -28z" />
</svg>