<svg xmlns="http://www.w3.org/2000/svg" xmlns:xlink="http://www.w3.org/1999/xlink" version="1.1" viewBox="-10 0 2069 2048">
   <path fill="currentColor"
d="M1445 169q155 -112 270 -150q169 -54 268 44q99 100 48 269q-34 114 -146 272q-160 226 -490 552q-202 201 -394 298q5 30 5 74q0 99 -37.5 188t-104.5 156q-71 71 -215 112q-104 30 -248 46q-152 17 -297 17h-7l1 -98l-1 98q-40 0 -68 -28.5t-28 -68.5l96 -1l-96 1v-7
q0 -144 17 -296q14 -131 46 -249q41 -144 112 -215q67 -67 156 -104.5t188 -37.5q37 0 75 6q95 -185 300 -388q345 -341 550 -490zM211 1669q-10 84 -13 181q85 -2 181 -14q114 -12 216 -40q97 -28 131 -62q86 -86 86 -206t-86 -206t-206 -86q-121 0 -206 85q-35 35 -63 131
q-28 102 -40 217zM1560 327q-190 139 -496 439l223 223q290 -288 439 -497q93 -131 119 -216q17 -58 1 -75v0q-15 -14 -71 4q-83 27 -215 122zM933 1270q109 -60 211 -148l-215 -215q-87 97 -150 208q94 59 154 155z" />
</svg>