<svg xmlns="http://www.w3.org/2000/svg" xmlns:xlink="http://www.w3.org/1999/xlink" version="1.1" viewBox="-10 0 2058 2048">
   <path fill="currentColor"
d="M478 546q0 -111 43.5 -212t116.5 -174t174 -116.5t212 -43.5t212 43.5t174 116.5t116.5 174t43.5 212v273h34q99 0 169 70t70 169v751q0 99 -70 169t-169 70h-1160q-99 0 -169 -70t-70 -169v-751q0 -99 70 -169t169 -70h34v-273zM1604 1024h-1160q-14 0 -24 10t-10 24
v751q0 14 10 24t24 10h1160q14 0 24 -10t10 -24v-751q0 -14 -10 -24t-24 -10zM1365 819v-273q0 -141 -100 -241t-241 -100t-241 100t-100 241v273h682z" />
</svg>