<svg xmlns="http://www.w3.org/2000/svg" xmlns:xlink="http://www.w3.org/1999/xlink" version="1.1" viewBox="-10 0 2068 2048">
   <path fill="currentColor"
d="M822 66q89 -66 202 -66q114 0 204 66q-1 0 28.5 22t59.5 43l30 22q31 22 66 28l146 22q110 17 189.5 97t96.5 190l22 146q6 34 28 66l88 119q66 90 66 202q0 114 -66 204l-22 29.5t-44 58.5l-22 30q-21 30 -28 67l-22 145q-17 110 -96.5 190t-189.5 97l-146 23
q-39 7 -66 27l-118 87q-91 67 -203.5 67t-202.5 -67l-30 -21.5t-60 -43.5l-30 -22q-28 -21 -66 -27l-146 -22q-110 -17 -189.5 -97t-96.5 -190l-22 -146q-7 -38 -28 -66l-86 -119q-68 -91 -68 -203t68 -203l21.5 -29.5t43.5 -59.5l21 -30q21 -28 28 -66l22 -146
q17 -110 96.5 -190t189.5 -97l146 -22q35 -6 66 -28zM1114 221q-41 -29 -89.5 -29t-88.5 29l-120 87q-68 51 -150 63l-36.5 5.5t-73.5 11.5l-36 5q-49 7 -84 42t-42 84l-22 146q-12 82 -64 151l-21.5 29.5t-43.5 59.5l-21 30q-30 40 -30 89t30 89l86 119q52 70 64 151
l22 145q7 49 42 84.5t84 42.5l146 22q81 12 150 63l120 87q39 29 88.5 29t89.5 -29l118 -87q69 -51 152 -63q-1 0 35.5 -5.5t72.5 -11.5l36 -5q49 -7 84 -42.5t42 -84.5l24 -145q12 -83 62 -151l86 -119q30 -40 30 -89t-30 -89l-86 -119q-51 -67 -62 -151l-6 -36.5
t-12 -72.5l-6 -37q-7 -49 -42 -84t-84 -42l-144 -22q-83 -12 -152 -63q1 0 -29 -22t-60 -43zM886 779q-12 24 -35 38t-51 14q-39 0 -67.5 -28t-28.5 -68q0 -20 10 -42q41 -80 110 -125q82 -56 200 -56h2q115 0 208 67q50 38 80 94.5t30 126.5q0 83 -42 147q-29 45 -88 85
q-29 18 -40 25h-2l-32 21q-20 11 -36 31q-28 42 -80 42q-39 0 -67.5 -28t-28.5 -68q0 -28 16 -52q38 -53 88 -85q28 -18 40 -25h2q24 -15 32 -21q22 -12 36 -31q10 -14 10 -41v-3q0 -40 -34 -64q-41 -29 -92 -29h-2q-57 0 -94 24q-28 19 -44 51zM1152 1408q0 53 -37 90.5
t-90.5 37.5t-91 -37.5t-37.5 -90.5t37.5 -90.5t91 -37.5t90.5 37.5t37 90.5z" />
</svg>