<svg xmlns="http://www.w3.org/2000/svg" xmlns:xlink="http://www.w3.org/1999/xlink" version="1.1" viewBox="-10 0 2058 2048">
   <path fill="currentColor"
d="M1426 1113q234 110 381 327t159 482v8q0 49 -34.5 83.5t-83.5 34.5q-47 0 -81.5 -33.5t-36.5 -81.5q-6 -138 -64.5 -263t-152.5 -215t-222 -143t-267.5 -53t-267.5 53t-222 143t-152.5 215t-65.5 263q-3 46 -36.5 78t-79.5 32q-49 0 -83.5 -34.5t-34.5 -83.5v-3
q12 -265 158.5 -482t379.5 -327q-105 -88 -165.5 -214.5t-60.5 -269.5q0 -128 50 -244.5t134.5 -200.5t201 -134t244 -50t244 50t201 134t134 200.5t49.5 244.5q0 143 -60 269.5t-166 214.5zM1416 629q0 -107 -52.5 -197.5t-143 -143t-197 -52.5t-197 52.5t-143.5 143
t-53 197.5t53 197.5t143.5 143.5t197 53t197 -53t143 -143.5t52.5 -197.5z" />
</svg>