<svg xmlns="http://www.w3.org/2000/svg" xmlns:xlink="http://www.w3.org/1999/xlink" version="1.1" viewBox="-10 0 2068 2048">
   <path fill="currentColor"
d="M1024 2048q-208 0 -397.5 -81t-327 -218.5t-218.5 -327t-81 -397.5t81 -397.5t218.5 -327t327 -218.5t397.5 -81t397.5 81t327 218.5t218.5 327t81 397.5t-81 397.5t-218.5 327t-327 218.5t-397.5 81zM1322 576q-108 0 -175.5 37.5t-121.5 107.5q-54 -70 -122 -107.5
t-176 -37.5q-51 0 -99 19.5t-88.5 57.5t-65 101t-24.5 142q0 141 121.5 306t293.5 272q99 61 160 62q62 -1 160 -62q172 -107 293.5 -272t121.5 -306q0 -79 -24.5 -142t-65 -101t-89 -57.5t-99.5 -19.5z" />
</svg>