<svg xmlns="http://www.w3.org/2000/svg" xmlns:xlink="http://www.w3.org/1999/xlink" version="1.1" viewBox="-10 0 2058 2048">
   <path fill="currentColor"
d="M192 224q0 -93 65.5 -158.5t158.5 -65.5h843q92 0 158 66l373 373q66 66 66 158v1227q0 93 -65.5 158.5t-158.5 65.5h-1216q-93 0 -158.5 -65.5t-65.5 -158.5v-1600zM416 192q-14 0 -23 9t-9 23v1600q0 14 9 23t23 9h1216q14 0 23 -9t9 -23v-1227q0 -14 -9 -23l-373 -373
q-9 -9 -23 -9h-843zM989 673h1q40 0 68 27.5t28 67.5l1 192h192q40 0 68 28t28 68t-28 68t-68 28h-191v193q0 40 -28 68t-68 28t-68 -28t-28 -68v-192l-192 1h-1q-40 0 -68 -28t-28 -68t27.5 -68t67.5 -28l193 -1l-1 -191v-1q0 -40 27.5 -68t67.5 -28z" />
</svg>