<svg xmlns="http://www.w3.org/2000/svg" xmlns:xlink="http://www.w3.org/1999/xlink" version="1.1" viewBox="-10 0 2058 2048">
   <path fill="currentColor"
d="M480 0h1088q93 0 158.5 65.5t65.5 158.5v1600q0 93 -65.5 158.5t-158.5 65.5h-1088q-93 0 -158.5 -65.5t-65.5 -158.5v-1600q0 -93 65.5 -158.5t158.5 -65.5zM448 224v1600q0 14 9 23t23 9h1088q14 0 23 -9t9 -23v-1600q0 -14 -9 -23t-23 -9h-1088q-14 0 -23 9t-9 23z
M1024 1664q-53 0 -90.5 -37.5t-37.5 -90.5t37.5 -90.5t90.5 -37.5t90.5 37.5t37.5 90.5t-37.5 90.5t-90.5 37.5z" />
</svg>