<svg xmlns="http://www.w3.org/2000/svg" xmlns:xlink="http://www.w3.org/1999/xlink" version="1.1" viewBox="-10 0 2068 2048">
   <path fill="currentColor"
d="M956 48q8 -21 26.5 -34.5t42 -13.5t42 13.5t25.5 34.5l70 190q83 226 253 396t395 252l190 70q21 8 34.5 26.5t13.5 41.5t-13.5 41.5t-34.5 26.5l-190 70q-225 82 -395 252t-253 396l-70 190q-7 21 -25.5 34.5t-42 13.5t-42 -13.5t-26.5 -34.5l-70 -190
q-82 -226 -252 -396t-396 -252l-190 -70q-21 -8 -34.5 -26.5t-13.5 -41.5t13.5 -41.5t34.5 -26.5l190 -70q226 -82 396 -252t252 -396z" />
</svg>