<svg xmlns="http://www.w3.org/2000/svg" xmlns:xlink="http://www.w3.org/1999/xlink" version="1.1" viewBox="-10 0 2068 2048">
   <path fill="currentColor"
d="M928 159q1 0 2 -0.5t2 -0.5q198 0 361.5 107t244.5 282q105 11 199.5 60.5t162.5 124.5t108 175t40 209v3v3q0 207 -132 365q-29 33 -72 33q-39 0 -67.5 -28t-28.5 -68q0 -34 20 -59q88 -106 88 -244v-2q0 -106 -51.5 -194t-139.5 -139t-193 -51q-32 0 -56.5 -17.5
t-33.5 -46.5q-50 -141 -173.5 -230.5t-276.5 -89.5h-4q-94 0 -180 34q-19 7 -34 7q-40 0 -68 -28t-28 -68q0 -30 16.5 -54t43.5 -35q120 -48 250 -48zM92 123q28 -28 68 -28t68 28l296 296q8 6 10 10l1092 1092l4 5l262 261q30 28 30 70q0 33 -20.5 59t-51.5 34q-12 3 -24 3
q-44 0 -70 -30l-230 -230q-18 2 -54 2h-1024h-4q-90 0 -172 -35.5t-141.5 -95t-95 -142t-35.5 -172.5v-3q0 -133 70.5 -242.5t185.5 -163.5v-13q0 -170 84 -322l-248 -247q-28 -28 -28 -68t28 -68zM448 831q2 42 6 62v13q0 33 -20 59t-52 34q-83 21 -136.5 89.5t-53.5 158.5
q0 108 74 182t182 74h888l-854 -853q-34 87 -34 179v2z" />
</svg>