<svg xmlns="http://www.w3.org/2000/svg" xmlns:xlink="http://www.w3.org/1999/xlink" version="1.1" viewBox="-10 0 2068 2048">
   <path fill="currentColor"
d="M138 171h546q56 0 96 40t40 96v547q0 56 -40 96t-96 40h-546q-57 0 -97.5 -40t-40.5 -96v-547q0 -56 40.5 -96t97.5 -40zM772 1344q30 30 30 73q0 42 -30 72l-358 358q-30 30 -72 30t-72 -30l-204 -204q-34 -31 -34 -75q0 -36 22 -63.5t56 -35.5q16 -4 26 -4q42 0 74 33
l132 132l286 -286q30 -30 72 -30t72 30zM1196 239h750q42 0 72 30t30 73t-30 72.5t-72 29.5h-750q-43 0 -73.5 -30t-30.5 -72.5t30.5 -72.5t73.5 -30zM1196 922h750q42 0 72 29.5t30 72.5t-30 73t-72 30h-750q-43 0 -73.5 -30t-30.5 -72.5t30.5 -72.5t73.5 -30zM1196 1604
h750q42 0 72 30t30 73t-30 72.5t-72 29.5h-750q-43 0 -73.5 -30t-30.5 -72.5t30.5 -72.5t73.5 -30zM206 376v409h410v-409h-410z" />
</svg>