<svg xmlns="http://www.w3.org/2000/svg" xmlns:xlink="http://www.w3.org/1999/xlink" version="1.1" viewBox="-10 0 2068 2048">
   <path fill="currentColor"
d="M0 352q0 -93 65.5 -158.5t158.5 -65.5h416q52 0 99.5 24t79.5 66l115 153q10 13 26 13h864q93 0 158.5 65.5t65.5 158.5v1088q0 93 -65.5 158.5t-158.5 65.5h-1600q-93 0 -158.5 -65.5t-65.5 -158.5v-1344zM1206 1550l369 -343q10 -10 10 -23t-10 -23l-369 -343
q-11 -9 -22 -9q-14 0 -23 9.5t-9 22.5v247h-544q-40 0 -68 28t-28 68t28 68t68 28h544v247q0 21 19.5 29t34.5 -6z" />
</svg>