<svg xmlns="http://www.w3.org/2000/svg" xmlns:xlink="http://www.w3.org/1999/xlink" version="1.1" viewBox="-10 0 2068 2048">
   <path fill="currentColor"
d="M1024 2048q-208 0 -397.5 -81t-327 -218.5t-218.5 -327t-81 -397.5t81 -397.5t218.5 -327t327 -218.5t397.5 -81t397.5 81t327 218.5t218.5 327t81 397.5t-81 397.5t-218.5 327t-327 218.5t-397.5 81zM768 887q70 -21 115 -80.5t45 -134.5q0 -93 -65.5 -158.5
t-158.5 -65.5t-158.5 65.5t-65.5 158.5q0 75 45 134.5t115 80.5v73q0 80 56 136t136 56h128v137q-70 21 -115 80.5t-45 134.5q0 93 65.5 158.5t158.5 65.5t158.5 -65.5t65.5 -158.5q0 -75 -45 -134.5t-115 -80.5v-137h128q80 0 136 -56t56 -136v-73q70 -21 115 -80.5
t45 -134.5q0 -93 -65.5 -158.5t-158.5 -65.5t-158.5 65.5t-65.5 158.5q0 75 45 134.5t115 80.5v73q0 26 -19 45t-45 19h-384q-26 0 -45 -19t-19 -45v-73z" />
</svg>