<svg xmlns="http://www.w3.org/2000/svg" xmlns:xlink="http://www.w3.org/1999/xlink" version="1.1" viewBox="-10 0 2068 2048">
   <path fill="currentColor"
d="M1376 1152h192q40 0 68 28t28 68t-28 68t-68 28h-192q-40 0 -68 -28t-28 -68t28 -68t68 -28zM0 480q0 -93 65.5 -158.5t158.5 -65.5h1600q93 0 158.5 65.5t65.5 158.5v1088q0 93 -65.5 158.5t-158.5 65.5h-1600q-93 0 -158.5 -65.5t-65.5 -158.5v-1088zM1856 832h-1664
v736q0 14 9 23t23 9h1600q14 0 23 -9t9 -23v-736zM1856 480q0 -14 -9 -23t-23 -9h-1600q-14 0 -23 9t-9 23v160h1664v-160z" />
</svg>