<svg xmlns="http://www.w3.org/2000/svg" xmlns:xlink="http://www.w3.org/1999/xlink" version="1.1" viewBox="-10 0 2068 2048">
   <path fill="currentColor"
d="M2048 1696q0 93 -65.5 158.5t-158.5 65.5h-1600q-93 0 -158.5 -65.5t-65.5 -158.5v-1344q0 -93 65.5 -158.5t158.5 -65.5h1600q93 0 158.5 65.5t65.5 158.5v1344zM224 320q-14 0 -23 9t-9 23v1344q0 14 9 23t23 9h120l4 -4l778 -778q65 -65 158 -65q88 0 151 57l421 382
v-968q0 -14 -9 -23t-23 -9h-1600zM1824 1728q14 0 23 -9t9 -23v-117l-550 -498q-10 -8 -22 -8q-13 0 -22 9l-646 646h1208zM896 768v6q0 106 -75 181t-181 75t-181 -75t-75 -181v-6q2 -104 77 -177t179 -73t179 73t77 177zM704 768q0 -26 -19 -45t-45 -19t-45 19t-19 45
t19 45t45 19t45 -19t19 -45z" />
</svg>