<svg xmlns="http://www.w3.org/2000/svg" xmlns:xlink="http://www.w3.org/1999/xlink" version="1.1" viewBox="-10 0 2068 2048">
   <path fill="currentColor"
d="M1120 1083v725q0 40 -28.5 68t-68 28t-67.5 -28t-28 -68v-725q-57 -27 -92.5 -82t-35.5 -121q0 -93 65 -158.5t158 -65.5t159 65.5t66 158.5q0 66 -35.5 121t-92.5 82zM1630 171q28 -27 66 -27q41 0 70 30q133 140 207.5 322t74.5 383v1q0 202 -74.5 383.5t-207.5 322.5
q-31 32 -72 32q-40 0 -68 -28t-28 -68q0 -39 28 -68q109 -114 169.5 -261t60.5 -311v-2v-1q0 -164 -60.5 -311.5t-169.5 -261.5q-26 -29 -26 -66q0 -41 30 -69zM418 171q29 28 30 67t-26 68q-109 114 -169.5 261t-60.5 311v2v2q0 164 60.5 311t169.5 261q24 28 24 64
q0 40 -28 68t-68 28t-68 -28q-133 -140 -207.5 -321.5t-74.5 -382.5v-2q0 -202 74.5 -383.5t207.5 -322.5q29 -30 70 -30q38 0 66 27zM1514 468q71 85 110.5 190t39.5 221v1v1q0 116 -39.5 221t-110.5 190q-31 37 -76 37q-39 0 -67.5 -28t-28.5 -68q0 -37 24 -64
q106 -124 106 -288v-1q0 -165 -106 -289q-20 -26 -20 -59q0 -40 28 -68t68 -28q43 0 72 32zM682 590q-106 125 -106 289v1v1q0 164 106 288q20 26 20 60q0 40 -28 68t-68 28q-42 0 -72 -33q-71 -85 -110.5 -190t-39.5 -221v-1v-1q0 -116 40 -222t112 -191q30 -34 74 -34
q39 0 67.5 28t28.5 68q0 34 -24 62z" />
</svg>