<svg xmlns="http://www.w3.org/2000/svg" xmlns:xlink="http://www.w3.org/1999/xlink" version="1.1" viewBox="-10 0 2068 2048">
   <path fill="currentColor"
d="M1824 64q93 0 158.5 65.5t65.5 158.5v960q0 93 -65.5 158.5t-158.5 65.5h-477q10 98 50 182.5t115 170.5q24 27 24 63q0 40 -28 68t-68 28h-832q-40 0 -68 -28t-28 -68q0 -36 24 -63q75 -86 115 -170.5t50 -182.5h-477q-93 0 -158.5 -65.5t-65.5 -158.5v-960
q0 -93 65.5 -158.5t158.5 -65.5h1600zM224 256q-14 0 -23 9t-9 23v960q0 14 9 23t23 9h1600q14 0 23 -9t9 -23v-960q0 -14 -9 -23t-23 -9h-1600zM1154 1472h-260q-12 171 -98 320h456q-86 -149 -98 -320z" />
</svg>