<svg xmlns="http://www.w3.org/2000/svg" xmlns:xlink="http://www.w3.org/1999/xlink" version="1.1" viewBox="-10 0 2058 2048">
   <path fill="currentColor"
d="M74 256q0 -106 75 -181t181 -75h366q45 0 77.5 32t32.5 78t-32.5 78t-77.5 32h-366q-16 0 -26 10.5t-10 25.5v1536q0 15 10.5 26t25.5 11h366q45 0 77.5 32t32.5 78t-32.5 77.5t-77.5 31.5h-366q-106 0 -181 -75t-75 -181v-1536zM1034 915h832q45 0 76.5 31.5t31.5 77.5
t-31.5 78t-76.5 32h-832l288 288q34 32 34 80q0 38 -23.5 68t-58.5 39q-14 3 -28 3q-46 0 -80 -35l-476 -475q-32 -32 -32 -78q0 -45 32 -77l476 -476q32 -35 80 -35q38 0 67.5 23.5t38.5 59.5q4 13 4 27q0 48 -34 80z" />
</svg>