<svg xmlns="http://www.w3.org/2000/svg" xmlns:xlink="http://www.w3.org/1999/xlink" version="1.1" viewBox="-10 0 2068 2048">
   <path fill="currentColor"
d="M56 248l154 156q143 -188 356.5 -296t457.5 -108q140 0 272.5 37t244.5 103t206.5 160.5t160.5 206.5t103 244.5t37 272t-37 272t-103 245t-160.5 207t-206.5 160.5t-244.5 103t-272.5 37q-130 0 -255 -32.5t-232 -91t-200 -142.5t-161 -184.5t-112.5 -220t-57.5 -247.5
v-10q0 -39 28 -67.5t68 -28.5q37 0 64 25t30 61q17 155 88.5 293t180.5 237.5t254.5 157.5t304.5 58q112 0 220 -30t199 -84t168 -130.5t130.5 -168t83 -199t29.5 -221t-29.5 -221t-83 -198.5t-130.5 -168t-168 -130.5t-198.5 -83.5t-220.5 -30q-206 0 -383.5 93.5
t-292.5 254.5l174 174q8 10 8 22q0 14 -9 23t-23 9h-466q-13 0 -22.5 -9t-9.5 -23v-466q0 -13 9.5 -22.5t22.5 -9.5q14 0 24 10zM991.5 512q39.5 0 68 28.5t28.5 67.5v384l258 104q26 11 42 35t16 53q0 39 -28 67.5t-68 28.5q-18 0 -32 -6l-320 -128q-27 -11 -43.5 -35.5
t-16.5 -54.5v-448q0 -39 28 -67.5t67.5 -28.5z" />
</svg>