<svg xmlns="http://www.w3.org/2000/svg" xmlns:xlink="http://www.w3.org/1999/xlink" version="1.1" viewBox="-10 0 2058 2048">
   <path fill="currentColor"
d="M684 546v273h954q85 0 144.5 60t59.5 145v819q0 85 -59.5 145t-144.5 60h-1228q-84 0 -144 -60t-60 -145v-819q0 -85 59.5 -145t144.5 -60h68v-273q0 -111 43.5 -212t116.5 -174t174.5 -116.5t211.5 -43.5q143 0 265 68t195 184q16 26 16 55q0 42 -30 72t-72 30
q-27 0 -50 -13t-36 -34q-47 -73 -123 -115.5t-165 -42.5q-93 0 -171.5 46t-124.5 125t-46 171h2zM410 1024v819h1228v-819h-1228z" />
</svg>