<svg xmlns="http://www.w3.org/2000/svg" xmlns:xlink="http://www.w3.org/1999/xlink" version="1.1" viewBox="-10 0 2068 2048">
   <path fill="currentColor"
d="M104 1025q4 -1 12 -1q42 0 73.5 28t36.5 69q17 147 87 278t175.5 225t245 149t290.5 55q178 0 335 -72.5t269 -200.5l-176 -176q-10 -11 -10 -26t10 -25.5t26 -10.5h534q14 0 25 10.5t11 25.5v534q0 15 -11 25.5t-25 10.5q-16 0 -26 -10l-202 -202q-143 158 -340.5 247.5
t-419.5 89.5q-192 0 -369.5 -70t-311.5 -190t-223 -286.5t-112 -354.5v-13q0 -42 27.5 -73t68.5 -36zM1024 220q-178 0 -334.5 72.5t-269.5 200.5l176 176q10 10 10 26q0 15 -10.5 26t-25.5 11h-532q-16 0 -27 -11t-11 -26v-533q0 -15 11 -26t26 -11t27 11l200 202
q144 -158 341.5 -248t418.5 -90q193 0 370.5 70t311.5 190t223 286.5t111 354.5q2 4 2 14q0 46 -32.5 77.5t-77.5 31.5q-42 0 -73.5 -28t-36.5 -69q-17 -147 -87 -278t-175 -225t-244.5 -149t-291.5 -55z" />
</svg>