<svg xmlns="http://www.w3.org/2000/svg" xmlns:xlink="http://www.w3.org/1999/xlink" version="1.1" viewBox="-10 0 2068 2048">
   <path fill="currentColor"
d="M1024 2048q-208 0 -397.5 -81t-327 -218.5t-218.5 -327t-81 -397.5t81 -397.5t218.5 -327t327 -218.5t397.5 -81t397.5 81t327 218.5t218.5 327t81 397.5t-81 397.5t-218.5 327t-327 218.5t-397.5 81zM1412 512q-114 0 -216.5 43.5t-179.5 120.5l-30 30q-40 40 -58 62
h-205q-61 0 -95 54l-110 177q-7 12 -7 25q0 36 34 46l199 62l172 172l62 199q10 34 46 34q15 0 25 -7l177 -109q54 -34 54 -96v-205q22 -18 62 -58l30 -30q77 -77 120.5 -179.5t43.5 -216.5v-12q0 -46 -33 -79t-79 -33h-12zM758 1426q9 -19 9 -41q0 -43 -30.5 -73.5
t-73.5 -30.5q-44 0 -75 33q-56 55 -79 207q0 1 -1 3q0 6 5 11t11 5h1q1 -1 2 -1q151 -23 207 -79q14 -13 24 -34z" />
</svg>