<svg xmlns="http://www.w3.org/2000/svg" xmlns:xlink="http://www.w3.org/1999/xlink" version="1.1" viewBox="-10 0 2068 2048">
   <path fill="currentColor"
d="M696 220h1242q46 0 78 31.5t32 77t-32 77.5t-78 32h-1242q-46 0 -78 -32t-32 -77.5t32 -77t78 -31.5zM696 950h1242q46 0 78 32.5t32 78t-32 77.5t-78 32h-1242q-46 0 -78 -32t-32 -77.5t32 -78t78 -32.5zM696 1682h1242q46 0 78 32t32 77.5t-32 78t-78 32.5h-1242
q-46 0 -78 -32.5t-32 -78t32 -77.5t78 -32zM146.5 1902q-60.5 0 -103.5 -43t-43 -103.5t43 -104t103.5 -43.5t104 43.5t43.5 104t-43.5 103.5t-104 43zM294 1023.5q0 60.5 -43.5 103.5t-104 43t-103.5 -43t-43 -103.5t43 -103t103.5 -42.5t104 42.5t43.5 103zM146.5 438
q-60.5 0 -103.5 -42.5t-43 -103t43 -103.5t103.5 -43t104 43t43.5 103.5t-43.5 103t-104 42.5z" />
</svg>