<svg xmlns="http://www.w3.org/2000/svg" xmlns:xlink="http://www.w3.org/1999/xlink" version="1.1" viewBox="-10 0 2068 2048">
   <path fill="currentColor"
d="M1408 896h128v768q0 52 -38 90t-90 38h-640v256l-192 -192l-192 192v-256h-256q-52 0 -90 -38t-38 -90v-1536q0 -52 38 -90t90 -38h1280q52 0 90 38t38 90v256h-128v-256h-1152v1152h1152v-384zM1664 1024v-256h-768v-256h768v-256l384 384zM1408 1408h-1280v256h256
v-128h384v128h640v-256zM512 256v128h-128v-128h128zM512 512v128h-128v-128h128zM512 768v128h-128v-128h128zM384 1152v-128h128v128h-128z" />
</svg>