<svg xmlns="http://www.w3.org/2000/svg" xmlns:xlink="http://www.w3.org/1999/xlink" version="1.1" viewBox="-10 0 2068 2048">
   <path fill="currentColor"
d="M300.5 1748q-141.5 -142 -221 -329t-79.5 -395q0 -139 37 -272t103 -245t160.5 -206.5t206.5 -160.5t244.5 -103t272.5 -37q207 0 394.5 79.5t329 221t221 328.5t79.5 395q0 139 -37 272t-103 245t-160.5 206.5t-207 160.5t-245 103t-271.5 37q-208 0 -395 -79
t-328.5 -221zM772 636q-27 -25 -66 -25q-40 0 -68 28t-28 68q0 37 26 65l252 252l-252 252q-30 29 -30 70q0 33 20 59t52 34q12 3 24 3q43 0 70 -30l252 -252l252 252q29 31 70 31q33 0 58.5 -20.5t33.5 -52.5q4 -12 4 -24q0 -42 -30 -70l-252 -252l252 -252q30 -29 30 -70
q0 -33 -20.5 -59t-51.5 -34q-12 -3 -24 -3q-44 0 -70 30l-252 252z" />
</svg>