<svg xmlns="http://www.w3.org/2000/svg" xmlns:xlink="http://www.w3.org/1999/xlink" version="1.1" viewBox="-10 0 2068 2048">
   <path fill="currentColor"
d="M1024 2048q-208 0 -397.5 -81t-327 -218.5t-218.5 -327t-81 -397.5t81 -397.5t218.5 -327t327 -218.5t397.5 -81t397.5 81t327 218.5t218.5 327t81 397.5t-81 397.5t-218.5 327t-327 218.5t-397.5 81zM1508 804q26 -28 26 -66q0 -40 -28 -68t-68 -28q-38 0 -66 26
l-508 508l-188 -188q-28 -26 -66 -26q-40 0 -68 28t-28 68q0 38 26 66l256 256q28 28 68 28t68 -28z" />
</svg>