<svg xmlns="http://www.w3.org/2000/svg" xmlns:xlink="http://www.w3.org/1999/xlink" version="1.1" viewBox="-10 0 2068 2048">
   <path fill="currentColor"
d="M784 40q52 -30 112 -30t112 30l672 390q52 30 82 82t30 112v294q0 40 -28.5 68t-68 28t-67.5 -28t-28 -68v-201l-608 352v817q0 53 -37 90.5t-91 37.5q-35 0 -64 -17l-688 -399q-51 -30 -81.5 -81.5t-30.5 -112.5v-780q0 -60 30.5 -112t81.5 -82zM912 206q-6 -4 -15.5 -4
t-16.5 4l-592 344l608 353l608 -353zM192 1404q0 18 16 28l592 343v-706l-608 -352v687zM1578 1876l150 -158h-416q-40 0 -68 -28t-28 -68t28 -68t68 -28h416l-150 -158q-26 -28 -26 -66q0 -40 28 -68t68 -28t68 30l304 320q28 29 28 66t-28 66l-304 320q-28 30 -68 30
t-68 -28t-28 -68q0 -38 26 -66z" />
</svg>