<svg xmlns="http://www.w3.org/2000/svg" xmlns:xlink="http://www.w3.org/1999/xlink" version="1.1" viewBox="-10 0 2068 2048">
   <path fill="currentColor"
d="M354.5 394q-81.5 0 -139 -57.5t-57.5 -139.5t57.5 -139.5t139 -57.5t139.5 57.5t58 139.5t-58 139.5t-139.5 57.5zM236 906q0 -49 35 -83.5t83.5 -34.5t83 34.5t34.5 83.5v453q105 37 171.5 129t66.5 206q0 96 -48 177.5t-129.5 129t-178 47.5t-178 -47.5t-129 -129
t-47.5 -177.5q0 -114 66 -206t170 -129v-453zM354.5 1812q48.5 0 83 -34.5t34.5 -83.5t-34.5 -84t-83 -35t-83.5 35t-35 84t35 83.5t83.5 34.5zM1142 591q0 82 -57.5 139.5t-139 57.5t-139.5 -57.5t-58 -139.5t58 -139.5t139.5 -57.5t139 57.5t57.5 139.5zM2048 985
q0 96 -47.5 177.5t-129 129t-178 47.5t-178 -47.5t-129.5 -129t-48 -177.5t48 -178t129.5 -129.5t178 -47.5t178 47.5t129 129.5t47.5 178zM1812 985q0 -49 -35 -83.5t-83.5 -34.5t-83 34.5t-34.5 83.5t34.5 83.5t83 34.5t83.5 -34.5t35 -83.5z" />
</svg>