<svg xmlns="http://www.w3.org/2000/svg" xmlns:xlink="http://www.w3.org/1999/xlink" version="1.1" viewBox="-10 0 2068 2048">
   <path fill="currentColor"
d="M224 0h1600q93 0 158.5 65.5t65.5 158.5v1600q0 93 -65.5 158.5t-158.5 65.5h-1600q-93 0 -158.5 -65.5t-65.5 -158.5v-1600q0 -93 65.5 -158.5t158.5 -65.5zM192 224v1600q0 14 9 23t23 9h1600q14 0 23 -9t9 -23v-1600q0 -14 -9 -23t-23 -9h-1600q-14 0 -23 9t-9 23z
M1504 384q40 0 68 28t28 68v960q0 40 -28 68t-68 28t-68 -28t-28 -68v-960q0 -40 28 -68t68 -28zM448 480q0 -40 28 -68t68 -28t68 28t28 68v704q0 40 -28 68t-68 28t-68 -28t-28 -68v-704zM1024 384q40 0 68 28t28 68v448q0 40 -28 68t-68 28t-68 -28t-28 -68v-448
q0 -40 28 -68t68 -28z" />
</svg>