<svg xmlns="http://www.w3.org/2000/svg" xmlns:xlink="http://www.w3.org/1999/xlink" version="1.1" viewBox="-10 0 2068 2048">
   <path fill="currentColor"
d="M0 120q4 -50 41 -85t87 -35h8q253 17 492.5 94t444 203t378 299.5t299.5 378t203.5 444t94.5 492.5v9q0 53 -37.5 90.5t-90.5 37.5q-51 0 -88 -35t-40 -85q-15 -221 -83 -430t-178.5 -387.5t-262 -331t-330.5 -262.5t-388 -178t-430 -83q-50 -3 -85 -39.5t-35 -87.5v-9z
M144 859q201 24 383 114.5t319 228t227.5 319t114.5 383.5q2 5 2 16q0 53 -37.5 90.5t-90.5 37.5q-50 0 -86 -32.5t-42 -80.5q-20 -158 -91 -301t-178.5 -251t-250 -179t-300.5 -90q-47 -7 -78.5 -43t-31.5 -84q0 -53 37 -90.5t91 -37.5h12zM0 1877q0 -71 50.5 -121t121 -50
t120.5 50t50 121t-50 121t-120.5 50t-121 -50t-50.5 -121z" />
</svg>