<svg xmlns="http://www.w3.org/2000/svg" xmlns:xlink="http://www.w3.org/1999/xlink" version="1.1" viewBox="-10 0 2068 2048">
   <path fill="currentColor"
d="M252 764q0 -92 36.5 -176.5t97.5 -145.5t145 -97t176.5 -36t176.5 36t145 97t97 145.5t36 176.5q0 96 -38 181.5t-106 149.5q156 76 261.5 216.5t132.5 314.5q2 10 2 15q0 41 -28.5 69.5t-69.5 28.5q-36 0 -63 -23.5t-33 -59.5q-19 -123 -91.5 -222.5t-183 -157
t-238 -57.5t-238.5 57.5t-183.5 157t-91.5 222.5q-6 35 -33 58.5t-63 23.5q-41 0 -69.5 -28t-28.5 -69q0 -10 2 -15q28 -174 133 -314.5t261 -216.5q-68 -63 -106 -149t-38 -182zM1422 569q105 0 195 52.5t142.5 142t52.5 195.5q0 151 -102 262q120 59 206.5 160.5
t125.5 230.5q6 15 6 30q0 40 -29 68.5t-69 28.5q-12 0 -22 -3q-26 -6 -45 -23.5t-27 -42.5q-35 -114 -123 -197.5t-205 -111.5q-32 -8 -53 -34.5t-21 -60.5v-45v-1q0 -28 15 -51.5t39 -35.5q49 -24 78.5 -71t29.5 -104q0 -81 -56.5 -137.5t-137.5 -56.5q-41 0 -69.5 -28.5
t-28.5 -69t28.5 -69t69.5 -28.5zM708 504q-2 0 -4 -0.5l-2 -0.5q-108 0 -184 76.5t-76 183.5t76 183.5t184 76.5h4q106 -2 180 -78t74 -182t-73.5 -181.5t-178.5 -77.5z" />
</svg>