<svg xmlns="http://www.w3.org/2000/svg" xmlns:xlink="http://www.w3.org/1999/xlink" version="1.1" viewBox="-10 0 2068 2048">
   <path fill="currentColor"
d="M1024 1824l44 85q-20 11 -44 11t-44 -11h-1l-2 -2q-3 -2 -17.5 -9t-22.5 -12q-237 -134 -440 -309q-497 -428 -497 -873q0 -124 46 -233t122 -183.5t174 -117t202 -42.5q145 0 271 69.5t209 189.5q83 -120 209 -189.5t271 -69.5q104 0 202 42.5t174 117t122 183.5t46 233
q0 445 -497 873q-222 189 -480 330l-2 2h-1zM544 320q-64 0 -127 27.5t-113 76t-81 122t-31 158.5q0 355 431 727q188 161 401 283q213 -122 401 -283q431 -372 431 -727q0 -85 -31 -158.5t-81 -122t-113 -76t-127 -27.5q-132 0 -240 86.5t-148 227.5q-8 30 -33.5 50
t-58.5 20t-58.5 -20t-33.5 -50q-40 -141 -148 -227.5t-240 -86.5z" />
</svg>