<svg xmlns="http://www.w3.org/2000/svg" xmlns:xlink="http://www.w3.org/1999/xlink" version="1.1" viewBox="-10 0 2067 2048">
   <path fill="currentColor"
d="M1414 1569q-236 183 -537 183q-178 0 -340.5 -69.5t-279.5 -186.5t-186.5 -279.5t-69.5 -340.5q0 -179 67.5 -339t188.5 -281t280.5 -188.5t338.5 -67.5q178 0 340.5 69.5t279.5 186.5t186.5 279.5t69.5 340.5q0 301 -184 538l111 111l222 222l111 111q35 32 35 80
q0 38 -23 67.5t-59 38.5q-18 4 -28 4q-47 0 -80 -35zM1533 876v-10q0 -179 -88 -330t-239 -239t-330 -88t-330 88t-239 239t-88 330v10q2 176 91 325t239 235.5t327 86.5t327 -86.5t239 -235.5t91 -325z" />
</svg>