<svg xmlns="http://www.w3.org/2000/svg" xmlns:xlink="http://www.w3.org/1999/xlink" version="1.1" viewBox="-10 0 2068 2048">
   <path fill="currentColor"
d="M1458 393l560 561q30 29 30 70t-30 70l-560 562q-30 31 -74 31q-34 0 -60.5 -21t-35.5 -53q-2 -12 -2 -25q0 -42 32 -72l490 -492l-490 -491q-32 -30 -32 -73q0 -34 21 -61t53 -35q12 -3 24 -3q43 0 74 32zM590 393q31 -27 68 -27q42 0 71 29t29 70q0 38 -28 68l-490 491
l490 492q32 30 32 72q0 34 -21 61t-53 35q-12 3 -24 3q-44 0 -74 -31l-560 -562q-30 -29 -30 -70t30 -70z" />
</svg>