<svg xmlns="http://www.w3.org/2000/svg" xmlns:xlink="http://www.w3.org/1999/xlink" version="1.1" viewBox="-10 0 2068 2048">
   <path fill="currentColor"
d="M358 264q26 -61 82 -98.5t124 -37.5h920q67 0 123.5 37t82.5 99l350 818q8 19 8 38v576q0 93 -65.5 158.5t-158.5 65.5h-1600q-93 0 -158.5 -65.5t-65.5 -158.5v-576q0 -19 8 -38zM564 320q-20 0 -29 19l-293 685h366q47 0 77 38l163 218h352l163 -218q30 -38 77 -38h366
l-293 -685q-9 -19 -29 -19h-920zM1856 1216h-368l-163 218q-30 38 -77 38h-448q-47 0 -77 -38l-163 -218h-368v480q0 14 9 23t23 9h1600q14 0 23 -9t9 -23v-480z" />
</svg>