<svg xmlns="http://www.w3.org/2000/svg" xmlns:xlink="http://www.w3.org/1999/xlink" version="1.1" viewBox="-10 0 2068 2048">
   <path fill="currentColor"
d="M1023.5 240q329.5 0 644.5 272q189 162 344 394q36 56 36 118t-36 118q-155 232 -344 394q-315 272 -644.5 272t-643.5 -272q-192 -164 -344 -394q-36 -55 -36 -118t36 -118q158 -236 344 -394q314 -272 643.5 -272zM198 1016q-2 4 -2 8t2 8q141 211 310 356
q261 224 516 224q256 0 516 -224q168 -145 308 -356q4 -4 4 -8t-4 -8q-140 -211 -308 -356q-262 -224 -516 -224q-257 0 -516 224q-169 145 -310 356zM1024 1286h-6q-108 0 -185 -77t-77 -185t77 -185t185 -77l2 1t4 1q105 2 179.5 78t74.5 182.5t-74.5 182.5t-179.5 79z
" />
</svg>