<svg xmlns="http://www.w3.org/2000/svg" xmlns:xlink="http://www.w3.org/1999/xlink" version="1.1" viewBox="-10 0 2058 2048">
   <path fill="currentColor"
d="M384 371q-18 10 -18 32v1389q0 15 11 26t25 11h1244q14 0 25 -11t11 -26v-1389v-1q0 -21 -18 -31q-26 -15 -41 -40t-15 -55q0 -46 32.5 -78t77.5 -32q29 0 56 15q59 34 93.5 94t34.5 128v1389q0 106 -75.5 181t-180.5 75h-1244q-105 0 -180.5 -75t-75.5 -181v-1389
q0 -68 34.5 -128t93.5 -94q27 -15 56 -15q45 0 77.5 32t32.5 78q0 30 -15 55t-41 40zM696 0h658q45 0 76.5 32t31.5 78v439q0 46 -31.5 78t-76.5 32h-658q-46 0 -78 -32t-32 -78v-439q0 -46 32 -78t78 -32zM804 439h440v-219h-440v219z" />
</svg>