<svg xmlns="http://www.w3.org/2000/svg" xmlns:xlink="http://www.w3.org/1999/xlink" version="1.1" viewBox="-10 0 2068 2048">
   <path fill="currentColor"
d="M276 157h552q48 0 83 34.5t35 83.5t-35 83.5t-83 34.5h-552q-17 0 -28.5 11.5t-11.5 28.5v1339q0 16 11.5 27.5t28.5 11.5h1338q17 0 28.5 -11.5t11.5 -27.5v-552q0 -49 34.5 -83.5t83 -34.5t83.5 34.5t35 83.5v552q0 114 -81 195t-195 81h-1338q-114 0 -195 -81
t-81 -195v-1339q0 -114 81 -195t195 -81zM1356 0h652q17 0 28.5 11t11.5 28v653q0 17 -11.5 28.5t-28.5 11.5q-16 0 -28 -12l-242 -243l-592 591q-32 31 -80 31q-50 0 -84 -34t-34 -84q0 -47 32 -80l590 -591l-242 -243q-12 -12 -12 -28t11.5 -27.5t28.5 -11.5z" />
</svg>