<svg xmlns="http://www.w3.org/2000/svg" xmlns:xlink="http://www.w3.org/1999/xlink" version="1.1" viewBox="-10 0 2068 2048">
   <path fill="currentColor"
d="M512 288q0 -93 65.5 -158.5t158.5 -65.5h715q92 0 158 66l373 373q66 66 66 158v1099q0 93 -65.5 158.5t-158.5 65.5h-1152q-40 0 -68 -28t-28 -68t28 -68t68 -28h1152q14 0 23 -9t9 -23v-928h-352q-93 0 -158.5 -65.5t-65.5 -158.5v-352h-544q-14 0 -23 9t-9 23v256
q0 40 -28 68t-68 28t-68 -28t-28 -68v-256zM0 1056q0 -93 65.5 -158.5t158.5 -65.5h192q93 0 158.5 65.5t65.5 158.5v320q0 93 -65.5 158.5t-158.5 65.5h-192q-93 0 -158.5 -65.5t-65.5 -158.5v-320zM864 832h192q40 0 68 28t28 68v480h96q40 0 68 28t28 68t-28 68t-68 28
h-384q-40 0 -68 -28t-28 -68t28 -68t68 -28h96v-384h-96q-40 0 -68 -28t-28 -68t28 -68t68 -28zM224 1024q-14 0 -23 9t-9 23v320q0 14 9 23t23 9h192q14 0 23 -9t9 -23v-320q0 -14 -9 -23t-23 -9h-192zM1472 264v344q0 14 9 23t23 9h344l-1 -2l-373 -373z" />
</svg>