<svg xmlns="http://www.w3.org/2000/svg" xmlns:xlink="http://www.w3.org/1999/xlink" version="1.1" viewBox="-10 0 2068 2048">
   <path fill="currentColor"
d="M1470 1115q58 59 89 135.5t31 158.5v1q0 104 -44 195.5t-120 155.5q-187 159 -534 159q-178 0 -328 -56t-242 -145q-30 -33 -30 -75q0 -46 32 -78t78 -32q41 0 72 27q59 58 169 99t249 41q267 0 392 -107q86 -73 86 -185q0 -101 -94 -175q-102 -78 -286 -119h-880
q-45 0 -77.5 -31.5t-32.5 -77.5t32.5 -78t77.5 -32h1828q46 0 78 32t32 78t-32 77.5t-78 31.5h-468zM962 347q-85 0 -155.5 17.5t-116 45t-76.5 63t-44.5 69.5t-13.5 67q0 16 2 23v8q0 46 -32 78t-78 32q-43 0 -74.5 -29.5t-35.5 -72.5v-39q0 -100 46 -188.5t127 -153
t198.5 -102t252.5 -37.5q142 0 277 47t237 113q52 34 52 92q0 46 -32.5 78t-77.5 32q-33 0 -60 -18q-81 -52 -185.5 -88.5t-210.5 -36.5z" />
</svg>