<svg xmlns="http://www.w3.org/2000/svg" xmlns:xlink="http://www.w3.org/1999/xlink" version="1.1" viewBox="-10 0 2068 2048">
   <path fill="currentColor"
d="M398 1083v-84h296v480q-114 54 -302 54q-87 0 -155 -26t-112 -71.5t-72.5 -111t-40.5 -139t-12 -161.5t12.5 -161.5t41 -139t72.5 -111t111.5 -71.5t154.5 -26q168 0 276 56v88q-83 -34 -141 -47.5t-135 -13.5q-64 0 -114 21.5t-83.5 59t-55.5 92t-31.5 117.5t-9.5 137
t9.5 137t31 117t55 91.5t83.5 59t113 21.5q156 0 214 -29v-339h-206zM1324 1141h2q69 6 115 21t71.5 40t35.5 55t10 73q0 41 -13.5 75.5t-42.5 64t-82.5 46.5t-125.5 17q-47 0 -106.5 -10t-91.5 -23v-79q86 30 198 30q172 0 172 -120q0 -25 -5 -42t-20 -32.5t-45.5 -25
t-77.5 -13.5q-70 -6 -116.5 -21.5t-71 -39.5t-33.5 -51t-9 -64t12.5 -70.5t39.5 -62t77 -45.5t117 -17q113 0 190 33v80q-94 -31 -192 -31q-48 0 -80 8t-48.5 24.5t-23 35.5t-6.5 45q0 31 10.5 49.5t43.5 31.5t96 18zM2048 860v72h-204v411q0 59 31.5 86t94.5 27q41 0 52 -2
v75q-19 4 -58 4q-44 0 -80.5 -10.5t-66.5 -31t-47.5 -56t-17.5 -82.5v-422h-132v-40l132 -38v-178l92 -26v211h204zM936 858v541q0 34 12.5 46.5t43.5 12.5v75q-73 0 -108.5 -33.5t-35.5 -111.5v-530h88zM958 661q0 28 -19.5 47t-46.5 19h-2q-26 0 -45 -19t-19 -45v-2
q0 -28 18.5 -47t47 -19t47.5 19t19 47z" />
</svg>