<svg xmlns="http://www.w3.org/2000/svg" xmlns:xlink="http://www.w3.org/1999/xlink" version="1.1" viewBox="-10 0 2066 2048">
   <path fill="currentColor"
d="M912 2047q-177 -20 -258 -114q-84 -97 -84 -295q0 -63 20 -211l2 -14h-182q-129 0 -215 -43q-102 -52 -146 -154q-42 -92 -46 -235.5t22 -318.5l5 -40q26 -192 41 -261q29 -142 85 -214q35 -47 83 -77t111.5 -45t128 -20t155.5 -5q159 0 290.5 22.5t272.5 61.5l61 17
q145 41 222 53q22 -68 80.5 -111t132.5 -43h128q93 0 159 66t66 159v963q0 93 -66 159t-159 66h-128q-62 0 -113.5 -30.5t-80.5 -81.5q-65 25 -118 65q-169 123 -169 336v64q0 57 -23 111t-62.5 94.5t-96 61.5t-118.5 14zM1469 347q-90 -11 -266 -61l-57 -16
q-132 -37 -250.5 -57t-261.5 -20q-111 0 -179.5 9t-98 23t-46.5 38q-31 40 -51 138q-14 67 -38 248l-5 38q-44 333 9 449q17 42 57 62q45 22 128 22h224q68 0 115.5 50.5t39.5 121.5q-2 12 -5.5 37t-4.5 38q-16 126 -16 171q0 127 36 169q32 35 135 48q31 3 58 -22t27 -67
v-64q0 -89 20.5 -167.5t58 -138.5t78.5 -104.5t91 -80.5q94 -69 202 -104v-760zM1693 1220h128q13 0 23 -9.5t10 -22.5v-963q0 -14 -10 -23t-23 -9h-128q-14 0 -23 9t-9 23v963q0 13 9 22.5t23 9.5z" />
</svg>