<svg xmlns="http://www.w3.org/2000/svg" xmlns:xlink="http://www.w3.org/1999/xlink" version="1.1" viewBox="-10 0 2067 2048">
   <path fill="currentColor"
d="M480 960q0 -40 28 -68t68 -28h288v-288q0 -40 28 -68t68 -28t68 28t28 68v288h287q40 0 68 28t28 68t-28 68t-68 28h-287v288q0 40 -28 68t-68 28t-68 -28t-28 -68v-288h-288q-40 0 -68 -28t-28 -68zM960 0q195 0 372.5 76t306 204.5t204.5 306.5t76 373q0 170 -56.5 326
t-159.5 282l79 79l158 158l79 79q28 28 28 68t-28 68t-68 28t-68 -28l-316 -317q-126 103 -282 160t-325 57q-195 0 -372.5 -76t-306 -204.5t-204.5 -306.5t-76 -373t76 -373t204.5 -306.5t306 -204.5t372.5 -76zM192 960q0 209 103 385.5t279.5 279.5t385.5 103
q156 0 298 -61t245 -163.5t163.5 -245t60.5 -298.5t-60.5 -298.5t-163.5 -245t-245 -163.5t-298 -61q-209 0 -385.5 103t-279.5 279.5t-103 385.5z" />
</svg>