<svg xmlns="http://www.w3.org/2000/svg" xmlns:xlink="http://www.w3.org/1999/xlink" version="1.1" viewBox="-10 0 2068 2048">
   <path fill="currentColor"
d="M240 342q-15 0 -24.5 10t-9.5 24v1024q0 14 9.5 24t24.5 10h272q43 0 73.5 30t30.5 72v299l370 -371q29 -30 72 -30h614q15 0 24.5 -10t9.5 -24v-342q0 -42 30.5 -72t73 -30t72.5 29.5t30 72.5v342q0 99 -70 169t-170 70h-572l-350 351q-58 58 -140 58q-83 0 -141.5 -58
t-58.5 -141v-210h-170q-100 0 -170 -70t-70 -169v-1024q0 -99 70 -169t170 -70h750q43 0 72.5 29.5t29.5 72.5t-29.5 73t-72.5 30h-750zM2048 34v567q0 14 -10 24t-24 10t-24 -10l-210 -211l-512 512q-32 33 -76 33q-35 0 -62.5 -22t-35.5 -55q-4 -12 -4 -26q0 -45 32 -75
l512 -512l-210 -210q-10 -10 -10 -25q0 -14 9.5 -24t24.5 -10h566q14 0 24 10t10 24z" />
</svg>