<svg xmlns="http://www.w3.org/2000/svg" xmlns:xlink="http://www.w3.org/1999/xlink" version="1.1" viewBox="-10 0 2068 2048">
   <path fill="currentColor"
d="M476 476q28 -26 66 -26q40 0 68 28t28 68q0 39 -26 66l-284 284h1392l-284 -284q-26 -28 -26 -66q0 -40 28 -68t68 -28q38 0 66 26l448 448q28 28 28 68t-28 68l-448 448q-30 31 -70 31q-34 0 -59.5 -20.5t-34.5 -52.5q-2 -12 -2 -24q0 -41 30 -70l284 -284h-1392
l284 284q30 28 30 70q0 33 -20 59t-52 34q-12 3 -24 3q-41 0 -70 -30l-448 -448q-28 -28 -28 -68t28 -68z" />
</svg>