<svg xmlns="http://www.w3.org/2000/svg" xmlns:xlink="http://www.w3.org/1999/xlink" version="1.1" viewBox="-10 0 2066 2048">
   <path fill="currentColor"
d="M1136 2q178 20 258 114q84 97 84 295q0 61 -20 210l-2 15h183q130 0 214 43q102 52 146 154q42 91 46 234.5t-22 319.5l-5 39q-21 168 -41 261q-30 143 -85 215q-35 46 -83 76t-111.5 45t-128 20t-155.5 5q-159 0 -290.5 -22.5t-272.5 -61.5q-8 -2 -28.5 -8t-32.5 -9
q-145 -42 -222 -53q-22 68 -80.5 111t-132.5 43h-128q-93 0 -159 -65.5t-66 -158.5v-964q0 -93 66 -158.5t159 -65.5h128q62 0 113.5 30.5t80.5 81.5q62 -24 118 -66q169 -124 169 -335v-64q0 -58 23 -112t62.5 -94t96 -61t118.5 -14zM580 1702q90 11 266 61l56 16
q132 36 250.5 56.5t261.5 20.5q111 0 179.5 -9.5t98 -24t46.5 -37.5q32 -41 51 -137q14 -67 38 -248l5 -38q45 -334 -9 -450q-16 -41 -57 -61q-45 -22 -127 -22h-225q-67 0 -115 -50.5t-40 -121.5q2 -13 5.5 -38t4.5 -37q17 -134 17 -171q0 -126 -37 -169q-32 -36 -135 -48
q-31 -4 -58 21.5t-27 67.5v64q0 89 -20.5 167t-57.5 138t-78.5 104.5t-91.5 81.5q-95 69 -201 104v760zM355 828h-128q-13 0 -22.5 9t-9.5 23v964q0 13 9.5 22.5t22.5 9.5h128q14 0 23 -9.5t9 -22.5v-964q0 -14 -9 -23t-23 -9z" />
</svg>