<svg xmlns="http://www.w3.org/2000/svg" xmlns:xlink="http://www.w3.org/1999/xlink" version="1.1" viewBox="-10 0 2058 2048">
   <path fill="currentColor"
d="M278 188l1574 1320q23 20 23 50q0 26 -19 44t-45 18q-23 0 -41 -14l-150 -126v332q0 27 -19 45.5t-45 18.5q-23 0 -40 -14l-492 -394l-492 394q-17 14 -40 14q-26 0 -44.5 -18.5t-18.5 -45.5l-5 -1334l-228 -192q-23 -19 -23 -48q0 -27 19 -45.5t45 -18.5q23 0 41 14z
M635 174h836q61 0 105 43.5t44 104.5v688q0 26 -19 45t-45 19q-23 0 -41 -16l-921 -772q-23 -19 -23 -48q0 -27 19 -45.5t45 -18.5z" />
</svg>