<svg xmlns="http://www.w3.org/2000/svg" xmlns:xlink="http://www.w3.org/1999/xlink" version="1.1" viewBox="-10 0 2068 2048">
   <path fill="currentColor"
d="M1024 193q-169 0 -323 66t-265.5 177.5t-177.5 265.5t-66 323t66 323t177.5 265.5t265.5 177.5t323 66t323 -66t265.5 -177.5t177.5 -265.5t66 -323q0 -166 -62 -316q-7 -15 -7 -36q0 -40 28 -68t68 -28q30 0 54 16.5t35 43.5q76 186 76 387q0 208 -81 397.5t-218.5 327
t-327 218.5t-397.5 81t-397.5 -81t-327 -218.5t-218.5 -327t-81 -397.5t81 -397.5t218.5 -327t327 -218.5t397.5 -81q199 0 388 77q27 11 43.5 35t16.5 54q0 40 -28 68t-68 28q-21 0 -36 -7q-150 -62 -314 -62h-2zM1828 221q28 28 28 68t-28 68l-520 520q36 69 36 148
q0 133 -93.5 226.5t-226.5 93.5t-226.5 -93.5t-93.5 -226.5t93.5 -226.5t226.5 -93.5q79 0 148 36l520 -520q28 -28 68 -28t68 28zM896 1025q0 53 37.5 90.5t90.5 37.5t90.5 -37.5t37.5 -90.5t-37.5 -90.5t-90.5 -37.5t-90.5 37.5t-37.5 90.5z" />
</svg>