<svg xmlns="http://www.w3.org/2000/svg" xmlns:xlink="http://www.w3.org/1999/xlink" version="1.1" viewBox="-10 0 2058 2048">
   <path fill="currentColor"
d="M320 224q0 -93 65.5 -158.5t158.5 -65.5h843q92 0 158 66l373 373q66 66 66 158v1227q0 93 -65.5 158.5t-158.5 65.5h-448q-40 0 -68 -28t-28 -68t28 -68t68 -28h448q14 0 23 -9t9 -23v-1227q0 -14 -9 -23l-373 -373q-9 -9 -23 -9h-843q-14 0 -23 9t-9 23v832
q0 40 -28 68t-68 28t-68 -28t-28 -68v-832zM759 1993q-15 15 -35 7.5t-20 -29.5v-307h-544q-40 0 -68 -28t-28 -68t28 -68t68 -28h544v-307q0 -13 9 -22.5t23 -9.5q13 0 23 10l402 402q10 10 10 23t-10 23z" />
</svg>