<svg xmlns="http://www.w3.org/2000/svg" xmlns:xlink="http://www.w3.org/1999/xlink" version="1.1" viewBox="-10 0 2068 2048">
   <path fill="currentColor"
d="M1024 2048q-208 0 -397.5 -81t-327 -218.5t-218.5 -327t-81 -397.5t81 -397.5t218.5 -327t327 -218.5t397.5 -81t397.5 81t327 218.5t218.5 327t81 397.5t-81 397.5t-218.5 327t-327 218.5t-397.5 81zM1132 1005q94 -33 153 -115.5t59 -185.5q0 -133 -93.5 -226.5
t-226.5 -93.5t-226.5 93.5t-93.5 226.5q0 103 59 185.5t153 115.5q-160 39 -282 161.5t-122 241.5q0 17 2.5 33t11 33.5t22 30.5t37.5 21.5t55 8.5h768q31 0 55 -8.5t37.5 -21.5t22 -30.5t11 -33.5t2.5 -33q0 -119 -122 -241.5t-282 -161.5z" />
</svg>