<svg xmlns="http://www.w3.org/2000/svg" xmlns:xlink="http://www.w3.org/1999/xlink" version="1.1" viewBox="-10 0 2058 2048">
   <path fill="currentColor"
d="M128 448q0 -111 90 -204q74 -77 202 -133q252 -111 604 -111q350 0 604 111q128 56 202 133q90 95 90 204v1152q0 111 -90 204q-74 77 -202 133q-252 111 -604 111t-604 -111q-128 -56 -202 -133q-90 -95 -90 -204v-1152zM320 448q0 34 36 71q46 48 141 90q217 95 527 95
t527 -95q93 -42 141 -91q36 -37 36 -70q0 -34 -36 -71q-46 -48 -141 -90q-217 -95 -527 -95t-527 95q-93 42 -141 91q-36 37 -36 70zM320 1024q0 34 36 71q46 48 141 90q217 95 527 95t527 -95q93 -42 141 -91q36 -37 36 -70v-291q-50 30 -100 52q-254 111 -604 111
q-352 0 -604 -111q-53 -23 -100 -52v291zM320 1309v291q0 33 36 70q48 49 141 91q217 95 527 95t527 -95q95 -42 141 -90q36 -37 36 -71v-291q-50 30 -100 52q-254 111 -604 111q-352 0 -604 -111q-48 -21 -100 -52z" />
</svg>