<svg xmlns="http://www.w3.org/2000/svg" xmlns:xlink="http://www.w3.org/1999/xlink" version="1.1" viewBox="-10 0 2058 2048">
   <path fill="currentColor"
d="M64 320q0 -87 43 -160.5t116.5 -116.5t160.5 -43h1118q39 0 67.5 28t28.5 68v959q0 40 -28.5 68t-68 28t-67.5 -28t-28 -68v-863h-1022q-54 0 -91 37.5t-37 90.5v857q59 -26 128 -26h606q40 0 68 27.5t28 67.5t-28 68t-68 28h-606q-54 0 -91 37.5t-37 90.5t37 90.5
t91 37.5h606q40 0 68 28t28 68t-28 68t-68 28h-606q-87 0 -160.5 -43t-116.5 -116.5t-43 -160.5v-1150zM1378 1307l220 219l220 -219q29 -31 70 -31q39 0 67.5 28t28.5 68q0 41 -32 70l-218 220l218 220q32 29 32 70q0 40 -28.5 68t-67.5 28q-41 0 -70 -31l-220 -220
l-220 220q-30 31 -70 31t-68 -28t-28 -68q0 -41 30 -70l220 -220l-220 -220q-30 -29 -30 -70q0 -40 28 -68t68 -28t70 31z" />
</svg>