<svg xmlns="http://www.w3.org/2000/svg" xmlns:xlink="http://www.w3.org/1999/xlink" version="1.1" viewBox="-10 0 2068 2048">
   <path fill="currentColor"
d="M0 939v-697q0 -100 71 -171t171 -71h696q103 0 172 71l866 866q72 71 72 172q0 100 -72 171l-696 697q-72 71 -172 71t-172 -71l-864 -866q-72 -71 -72 -172zM208 939q0 14 10 24l866 867q10 10 24 10t24 -10l698 -697q10 -10 10 -24q0 -15 -10 -25l-866 -866
q-10 -10 -26 -10h-696q-14 0 -24 10t-10 24v697zM692.5 554q57.5 0 98.5 40.5t41 98.5t-41 98.5t-98.5 40.5t-98 -40.5t-40.5 -98.5t40.5 -98.5t98 -40.5z" />
</svg>