<svg xmlns="http://www.w3.org/2000/svg" xmlns:xlink="http://www.w3.org/1999/xlink" version="1.1" viewBox="-10 0 2058 2048">
   <path fill="currentColor"
d="M401 335v261q0 4 -3 6q-6 4 -18 11t-51 18t-81 11q-38 0 -69.5 -5t-66 -22.5t-58 -45.5t-39 -78.5t-15.5 -117.5q0 -68 13.5 -119t35 -81.5t52.5 -49.5t62.5 -25.5t68.5 -6.5q107 0 146 26q2 2 2 7l-19 81q0 3 -2.5 6t-6.5 2q-48 -15 -99 -15q-29 0 -50.5 5.5t-43 22
t-33 52t-11.5 89.5t11 90t30 52t36.5 21.5t39.5 5.5q19 0 33 -1t19 -3l5 -1v-105h-67q-9 0 -9 -8v-83q0 -8 9 -8h170q9 0 9 8zM2033 441q0 112 -34.5 156t-104.5 44q-33 0 -62 -9.5t-41 -19.5l-12 -9q-2 21 -4 24q-1 4 -6 4h-68q-8 0 -8 -8v-506q0 -7 8 -7h97q8 0 8 7v172
q37 -24 92 -24l-1 -1q136 0 136 177zM1260 111q7 0 7 7v506q0 8 -7 8h-97q-8 0 -8 -8l1 -216h-151v216q0 8 -7 8h-97q-8 0 -8 -8v-506q0 -7 8 -7h97q7 0 7 7v186h151v-186q0 -7 8 -7h96zM1636 276q8 0 8 8l-1 340q0 8 -7 8h-61q-6 0 -8 -4l-3 -21q-52 35 -115 35
q-64 0 -98.5 -27.5t-34.5 -97.5v-233q0 -7 8 -7h97q8 0 8 7v217q0 26 9.5 37.5t34.5 11.5q15 0 30 -4.5t22 -9.5l7 -4v-247q0 -9 8 -9h96zM844 548q6 2 6 8v68q0 7 -4 8q-25 10 -58 10q-130 0 -130 -123v-149h-50q-8 0 -8 -9v-62q0 -5 6 -7l53 -13v-99q0 -6 6 -6h98q7 0 7 6
v96h72q7 0 7 8v77q0 9 -7 9h-72v143q0 37 47 37q6 0 16 -1t11 -1zM557 276q8 0 8 8v335q0 12 -12 12h-87q-14 0 -14 -12v-334q0 -9 8 -9h97zM1922 448q0 -56 -18.5 -75t-49.5 -15q-12 1 -24 5t-18 7l-7 4v160q22 15 55 16q36 1 49 -18.5t13 -83.5zM509 122q26 0 44 18.5
t18 44.5t-18 44.5t-44 18.5t-44.5 -18.5t-18.5 -44.5t18.5 -44.5t44.5 -18.5zM843 547l1 1v0l-2 -1h1z" />
</svg>