<svg xmlns="http://www.w3.org/2000/svg" xmlns:xlink="http://www.w3.org/1999/xlink" version="1.1" viewBox="-10 0 2068 2048">
   <path fill="currentColor"
d="M822 172q26 -47 67 -77t88 -38.5t94 0t88 38.5t67 77l794 1487q28 51 28 108q0 95 -67.5 162t-162.5 67h-1588q-95 0 -162.5 -67t-67.5 -162q0 -57 28 -108zM1052 264q-10 -17 -28 -17t-28 17l-796 1488q-4 10 -4 15q0 14 10 23.5t24 9.5h1588q14 0 24 -9.5t10 -23.5
q0 -5 -4 -15zM1122 787v326q0 41 -28.5 70t-69 29t-69.5 -29t-29 -70v-326q0 -40 29 -69.5t69.5 -29.5t69 29.5t28.5 69.5zM1154 1473q0 54 -38 92.5t-92 38.5t-92 -38.5t-38 -92.5t38 -92.5t92 -38.5t92 38.5t38 92.5z" />
</svg>