<svg xmlns="http://www.w3.org/2000/svg" xmlns:xlink="http://www.w3.org/1999/xlink" version="1.1" viewBox="-10 0 2058 2048">
   <path fill="currentColor"
d="M931 0q40 0 68 28t28 68v288h465q83 0 145 53l265 224q79 66 79 171t-79 171l-265 224q-63 53 -145 53h-465v672q0 40 -28 68t-68 28t-68 -28t-28 -68v-672h-544q-93 0 -158.5 -65.5t-65.5 -158.5v-448q0 -93 65.5 -158.5t158.5 -65.5h544v-288q0 -40 28 -68t68 -28z
M1492 1088q11 0 21 -8l265 -224q11 -9 11 -24t-11 -24l-265 -224q-10 -8 -21 -8h-1201q-13 0 -22.5 9t-9.5 23v448q0 14 9.5 23t22.5 9h1201z" />
</svg>