<svg xmlns="http://www.w3.org/2000/svg" xmlns:xlink="http://www.w3.org/1999/xlink" version="1.1" viewBox="-10 0 2058 2048">
   <path fill="currentColor"
d="M586 639v128q0 46 32 78t78 32h656q46 0 78 -32t32 -78v-128q-97 -34 -157.5 -119t-60.5 -191q0 -90 43.5 -165.5t119.5 -119.5t165.5 -44t165.5 44t120 119.5t44 165.5q0 106 -61.5 191t-158.5 119v128q0 90 -44 166t-120 120t-166 44h-218v311q97 34 158.5 119
t61.5 191q0 90 -44 166t-120 120t-165.5 44t-165.5 -44t-119.5 -120t-43.5 -166q0 -106 60.5 -191t157.5 -119v-311h-218q-90 0 -166 -44t-120 -120t-44 -166v-128q-97 -34 -158.5 -119t-61.5 -191q0 -90 44 -165.5t120 -119.5t165.5 -44t165.5 44t119.5 119.5t43.5 165.5
q0 106 -60.5 191t-157.5 119zM586 329q0 -46 -32.5 -78t-78 -32t-77.5 32t-32 78t32 77.5t77.5 31.5t78 -31.5t32.5 -77.5zM1572.5 438q45.5 0 77.5 -31.5t32 -77.5t-32 -78t-77.5 -32t-78 32t-32.5 78t32.5 77.5t78 31.5zM1134 1718q0 -46 -32 -78t-77.5 -32t-78 32
t-32.5 78t32.5 78t78 32t77.5 -32t32 -78z" />
</svg>