<svg xmlns="http://www.w3.org/2000/svg" xmlns:xlink="http://www.w3.org/1999/xlink" version="1.1" viewBox="-10 0 2058 2048">
   <path fill="currentColor"
d="M1094 11l688 220q70 23 115 83.5t45 135.5v461q0 353 -172 614q-204 311 -660 505q-44 18 -86.5 18t-87.5 -18q-454 -194 -658 -505q-172 -261 -172 -614v-461q0 -75 45 -135.5t115 -83.5l688 -220q34 -11 69.5 -11t70.5 11zM1014 198l-688 220q-22 7 -22 32v461
q0 295 138 506q171 262 572 432q6 2 10 2t10 -2q400 -170 572 -432q138 -214 138 -506v-461q0 -11 -6.5 -20t-15.5 -12l-688 -220q-4 -1 -11 -1t-9 1zM864 678l160 160l160 -160q30 -32 72 -32q34 0 60 20.5t34 53.5q4 12 4 25q0 43 -32 72l-160 160l160 160q32 29 32 71
q0 34 -21 61t-53 35q-12 3 -24 3q-42 0 -72 -32l-160 -159l-160 159q-31 27 -68 27q-40 0 -69 -29t-29 -69q0 -37 28 -67l158 -160l-158 -160q-32 -30 -32 -72q0 -34 20.5 -61t53.5 -35q12 -3 24 -3q41 0 72 32z" />
</svg>