<svg xmlns="http://www.w3.org/2000/svg" xmlns:xlink="http://www.w3.org/1999/xlink" version="1.1" viewBox="-10 0 2068 2048">
   <path fill="currentColor"
d="M1792 256l228 46q20 3 26 24q2 3 2 10q0 15 -10 24l-188 187q-34 35 -84 35h-154l-390 390q6 30 6 53q0 85 -60 145t-144.5 60t-145 -59.5t-60.5 -144.5t60.5 -145t145.5 -60q29 0 52 7l390 -391v-155q0 -49 36 -84l186 -188q10 -10 26 -10q2 0 8 2q21 7 24 26zM206 1026
q0 166 65 317.5t174.5 261t260.5 174t318 64.5q166 0 317.5 -64.5t261 -174.5t174.5 -261t65 -318q0 -113 -32 -225q-6 -15 -6 -34q0 -43 30.5 -72.5t73.5 -29.5q36 0 63.5 22.5t34.5 56.5q40 137 40 282q0 139 -36.5 271.5t-102.5 245t-160.5 207t-206.5 160t-244.5 102.5
t-271.5 37q-208 0 -395 -79t-329 -220q-141 -142 -220.5 -328.5t-79.5 -394.5q0 -139 37 -272t103 -245t160.5 -206.5t206.5 -160.5t244.5 -103t272.5 -37q143 0 282 40q32 9 53 36t21 62q0 42 -30.5 72t-73.5 30q-8 0 -26 -4q-107 -31 -226 -31q-167 0 -318.5 65
t-261 174.5t-174 261t-64.5 318.5zM614 1026q0 111 55 205.5t149 149t206 54.5q126 0 232 -72q81 -57 128.5 -145.5t47.5 -191.5q0 -24 -2 -48q-2 -4 -2 -14q0 -42 30 -72t72 -30q23 0 42 9q25 10 41 32.5t19 50.5q6 40 6 72q0 125 -49 238.5t-131 196t-196 131t-238.5 48.5
t-238.5 -48.5t-196 -131t-130.5 -196t-48.5 -238.5t48.5 -238.5t130.5 -196t196 -131t239 -48.5q39 0 70 4q39 4 65.5 33t26.5 69q0 42 -30 72t-72 30q-8 0 -14 -1q-24 -3 -46 -3q-112 0 -206 55t-149 149.5t-55 205.5z" />
</svg>