<svg xmlns="http://www.w3.org/2000/svg" xmlns:xlink="http://www.w3.org/1999/xlink" version="1.1" viewBox="-10 0 2058 2048">
   <path fill="currentColor"
d="M1244 329q0 -90 43.5 -165.5t119.5 -119.5t165.5 -44t165.5 44t120 119.5t44 165.5q0 106 -61.5 191t-158.5 119v92q0 99 -49 183.5t-133 133.5t-184 49h-584q-61 0 -103.5 42.5t-42.5 103.5v165q97 34 157.5 119t60.5 191q0 90 -43.5 166t-119.5 120t-165.5 44
t-165.5 -44t-120 -120t-44 -166q0 -106 61.5 -191t158.5 -119v-769q-97 -34 -158.5 -119t-61.5 -191q0 -90 44 -165.5t120 -119.5t165.5 -44t165.5 44t119.5 119.5t43.5 165.5q0 106 -60.5 191t-157.5 119v269q73 -31 144 -31h2h584q61 0 103.5 -42.5t42.5 -103.5v-92
q-97 -34 -157.5 -119t-60.5 -191zM366 329q0 46 32 77.5t77.5 31.5t78 -31.5t32.5 -77.5t-32.5 -78t-78 -32t-77.5 32t-32 78zM1572.5 219q-45.5 0 -78 32t-32.5 78t32.5 77.5t78 31.5t77.5 -31.5t32 -77.5t-32 -78t-77.5 -32zM475.5 1608q-45.5 0 -77.5 32t-32 78t32 78
t77.5 32t78 -32t32.5 -78t-32.5 -78t-78 -32z" />
</svg>