<svg xmlns="http://www.w3.org/2000/svg" xmlns:xlink="http://www.w3.org/1999/xlink" version="1.1" viewBox="-10 0 2068 2048">
   <path fill="currentColor"
d="M0 1024q0 -208 81 -397.5t218.5 -327t327 -218.5t397.5 -81t397.5 81t327 218.5t218.5 327t81 397.5t-81 397.5t-218.5 327t-327 218.5t-397.5 81t-397.5 -81t-327 -218.5t-218.5 -327t-81 -397.5zM1024 192q-169 0 -323 66t-265.5 177.5t-177.5 265.5t-66 323t66 323
t177.5 265.5t265.5 177.5t323 66t323 -66t265.5 -177.5t177.5 -265.5t66 -323t-66 -323t-177.5 -265.5t-265.5 -177.5t-323 -66zM886 779q-26 53 -86 53q-40 0 -68 -28t-28 -68q0 -21 10 -43q41 -80 109 -125q82 -56 201 -56h2q115 0 208 67q110 83 110 221q0 83 -42 147
q-30 45 -89 85q-28 18 -40 25h-1l-33 21q-20 11 -35 31q-29 42 -79 42q-40 0 -68 -28t-28 -68q0 -29 15 -52q37 -52 89 -85q18 -12 40 -25h1q25 -15 33 -21q20 -11 35 -31q10 -14 10 -41v-3q0 -40 -34 -64q-42 -29 -92 -29h-2q-57 0 -95 24q-28 19 -43 51zM1152 1408
q0 53 -37.5 90.5t-90.5 37.5t-90.5 -37.5t-37.5 -90.5t37.5 -90.5t90.5 -37.5t90.5 37.5t37.5 90.5z" />
</svg>