<svg xmlns="http://www.w3.org/2000/svg" xmlns:xlink="http://www.w3.org/1999/xlink" version="1.1" viewBox="-10 0 2068 2048">
   <path fill="currentColor"
d="M911 184q52 -30 113 -30t113 30l800 470q52 29 81.5 81t29.5 111v824q0 92 -65.5 158t-158.5 66h-1600q-93 0 -158.5 -66t-65.5 -158v-824q0 -59 30 -110.5t81 -81.5zM1040 350q-8 -4 -16 -4t-16 4l-732 430l552 314q87 -58 196 -58t196 58l138 -78.5t276 -157.5l138 -78
zM1683 1702l-560 -440q-44 -34 -99 -34t-99 34l-560 440h1318zM1856 952l-472 270l472 372v-642zM664 1222l-472 -270v642z" />
</svg>