<svg xmlns="http://www.w3.org/2000/svg" xmlns:xlink="http://www.w3.org/1999/xlink" version="1.1" viewBox="-10 0 2058 2048">
   <path fill="currentColor"
d="M1242 10q10 -10 24 -10t24.5 10.5t10.5 24.5v227h138q143 0 244.5 102t101.5 245v779q92 33 150 113t58 181q0 129 -91.5 220t-220.5 91t-220 -91t-91 -220q0 -101 58 -181t150 -113v-779q0 -57 -41 -98t-98 -41h-138v228q0 14 -10.5 24.5t-24.5 10.5t-24 -10l-332 -332
q-10 -10 -10 -25q0 -14 10 -24zM747 1578v-228q0 -14 10.5 -24.5t24.5 -10.5t24 10l332 332q10 10 10 25q0 14 -10 24l-332 332q-10 10 -24 10t-24.5 -10.5t-10.5 -24.5v-228h-138q-143 0 -244.5 -101.5t-101.5 -244.5v-779q-92 -33 -150 -113t-58 -181q0 -129 91.5 -220
t220.5 -91t220 91t91 220q0 101 -57.5 181t-149.5 113v779q0 57 40.5 98t97.5 41h138zM471 366q0 -43 -30.5 -73.5t-73.5 -30.5t-73.5 30.5t-30.5 73.5t30.5 73.5t73.5 30.5t73.5 -30.5t30.5 -73.5zM1681 1578q-43 0 -73 30.5t-30 73.5t30 73t73 30t73.5 -30t30.5 -73
t-30.5 -73.5t-73.5 -30.5z" />
</svg>