<svg xmlns="http://www.w3.org/2000/svg" xmlns:xlink="http://www.w3.org/1999/xlink" version="1.1" viewBox="-10 0 2058 2048">
   <path fill="currentColor"
d="M342 239q0 -99 70 -169t168 -70h762q100 0 170 70l398 398q70 70 70 169v1172q0 99 -70 169t-170 70h-956q-42 0 -72 -30t-30 -73t30 -72.5t72 -29.5h956q15 0 24.5 -10t9.5 -24v-990h-374q-100 0 -170 -70t-70 -169v-375h-580q-14 0 -24 10t-10 24v375q0 43 -30 73
t-72.5 30t-72 -30t-29.5 -73v-375zM274 1671v138q0 42 -30.5 72t-73 30t-72.5 -29.5t-30 -72.5v-138q0 -104 41 -198.5t109 -163.5t163 -109.5t199 -40.5h2h32v-262q0 -14 10 -24t24 -10t24 9l394 366q10 9 10 25t-10 25l-394 365q-10 9 -24 9t-24 -10t-10 -24v-264l-32 -1
h-2q-126 0 -216 90.5t-90 217.5zM1364 213v367q0 14 10.5 24t25.5 10h366l-2 -2l-398 -397z" />
</svg>