<svg xmlns="http://www.w3.org/2000/svg" xmlns:xlink="http://www.w3.org/1999/xlink" version="1.1" viewBox="-10 0 2068 2048">
   <path fill="currentColor"
d="M0 352q0 -93 65.5 -158.5t158.5 -65.5h1088q93 0 158.5 65.5t65.5 158.5v704q0 93 -65.5 158.5t-158.5 65.5h-408l-330 329q-55 55 -131 55q-77 0 -132 -54.5t-55 -131.5v-198h-32q-93 0 -158.5 -65.5t-65.5 -158.5v-704zM224 320q-14 0 -23 9t-9 23v704q0 14 9 23t23 9
h128q40 0 68 28t28 68v280l348 -348q28 -28 68 -28h448q14 0 23 -9t9 -23v-704q0 -14 -9 -23t-23 -9h-1088zM1824 576h-64q-40 0 -68 -28t-28 -68t28 -68t68 -28h64q93 0 158.5 65.5t65.5 158.5v704q0 93 -65.5 158.5t-158.5 65.5h-32v198q0 77 -54.5 131.5t-131.5 54.5
t-132 -55l-294 -293q-28 -28 -28 -68t28 -68t68 -28t68 28l284 284v-280q0 -40 28 -68t68 -28h128q14 0 23 -9t9 -23v-704q0 -14 -9 -23t-23 -9zM1020 580l-376 376q-28 28 -68 28t-68 -28t-28 -68t28 -68l376 -376q27 -27 67 -27t68 28t28 68t-27 67z" />
</svg>