<svg xmlns="http://www.w3.org/2000/svg" xmlns:xlink="http://www.w3.org/1999/xlink" version="1.1" viewBox="-10 0 2068 2048">
   <path fill="currentColor"
d="M2048 480v1088q0 40 -28 68t-68 28q-27 0 -49 -14l-495 -296v86q0 93 -65.5 158.5t-158.5 65.5h-960q-93 0 -158.5 -65.5t-65.5 -158.5v-832q0 -93 65.5 -158.5t158.5 -65.5h960q93 0 158.5 65.5t65.5 158.5v86l495 -296q22 -14 49 -14q40 0 68 28t28 68zM1216 608
q0 -14 -9 -23t-23 -9h-960q-14 0 -23 9t-9 23v832q0 14 9 23t23 9h960q14 0 23 -9t9 -23v-832zM1408 1130l448 268v-748l-448 268v212z" />
</svg>