<svg xmlns="http://www.w3.org/2000/svg" xmlns:xlink="http://www.w3.org/1999/xlink" version="1.1" viewBox="-10 0 2058 2048">
   <path fill="currentColor"
d="M578 608q78 155 226.5 249t328.5 94h202q34 -97 119 -158.5t191 -61.5q137 0 233.5 96.5t96.5 233.5q0 136 -96.5 232.5t-233.5 96.5q-106 0 -191 -61t-119 -158h-202h-1q-181 0 -342 -73t-278 -202v513q97 34 158 119t61 191q0 137 -96 233t-232 96q-137 0 -233 -96
t-96 -233q0 -106 61 -191t158 -119v-769q-97 -34 -158.5 -119.5t-61.5 -191.5q0 -137 96.5 -233t232.5 -96t232.5 96t96.5 233q0 86 -41.5 160.5t-111.5 118.5zM402 1829q46 0 78 -32t32 -78t-32 -78t-78 -32t-77.5 32t-31.5 78t31.5 78t77.5 32zM1645 1171q46 0 78 -32
t32 -78t-32 -78t-78 -32t-77.5 32t-31.5 78t31.5 78t77.5 32zM512 329q0 -45 -32.5 -77t-77.5 -32q-46 0 -77.5 32t-31.5 78t31.5 78t77.5 32q45 0 77.5 -32.5t32.5 -77.5v-1z" />
</svg>