<svg xmlns="http://www.w3.org/2000/svg" xmlns:xlink="http://www.w3.org/1999/xlink" version="1.1" viewBox="-10 0 2068 2048">
   <path fill="currentColor"
d="M0 224q0 -93 65.5 -158.5t158.5 -65.5h448q93 0 158.5 65.5t65.5 158.5v448q0 93 -65.5 158.5t-158.5 65.5h-160v512q0 53 37.5 90.5t90.5 37.5h512v-160q0 -93 65.5 -158.5t158.5 -65.5h448q93 0 158.5 65.5t65.5 158.5v448q0 93 -65.5 158.5t-158.5 65.5h-448
q-93 0 -158.5 -65.5t-65.5 -158.5v-96h-512q-133 0 -226.5 -93.5t-93.5 -226.5v-512h-96q-93 0 -158.5 -65.5t-65.5 -158.5v-448zM224 192q-14 0 -23 9t-9 23v448q0 14 9 23t23 9h448q14 0 23 -9t9 -23v-448q0 -14 -9 -23t-23 -9h-448zM1376 1344q-14 0 -23 9t-9 23v448
q0 14 9 23t23 9h448q14 0 23 -9t9 -23v-448q0 -14 -9 -23t-23 -9h-448z" />
</svg>