<svg xmlns="http://www.w3.org/2000/svg" xmlns:xlink="http://www.w3.org/1999/xlink" version="1.1" viewBox="-10 0 2068 2048">
   <path fill="currentColor"
d="M512 992h-192q-53 0 -90.5 37.5t-37.5 90.5v672q0 40 -28 68t-68 28t-68 -28t-28 -68v-672q0 -133 93.5 -226.5t226.5 -93.5h192v-175q0 -85 56.5 -148t139.5 -74l363 -45l97 -117q67 -81 172 -81h100q93 0 158.5 65.5t65.5 158.5v96h288q40 0 68 28t28 68t-28 68t-68 28
h-288v512h288q40 0 68 28t28 68t-28 68t-68 28h-288v96q0 93 -65.5 158.5t-158.5 65.5h-100q-105 0 -172 -81l-98 -116l-362 -46q-83 -11 -139.5 -74t-56.5 -148v-239zM1315 364l-121 145q-25 30 -62 34l-400 50q-12 1 -20 10.5t-8 21.5v606q0 12 8 21.5t20 10.5l400 50
q37 4 62 34l121 145q10 12 25 12h100q14 0 23 -9t9 -23v-1088q0 -14 -9 -23t-23 -9h-100q-15 0 -25 12z" />
</svg>