<svg xmlns="http://www.w3.org/2000/svg" xmlns:xlink="http://www.w3.org/1999/xlink" version="1.1" viewBox="-10 0 2068 2048">
   <path fill="currentColor"
d="M0 1440q0 -93 65.5 -158.5t158.5 -65.5h1600q93 0 158.5 65.5t65.5 158.5v384q0 93 -65.5 158.5t-158.5 65.5h-1600q-93 0 -158.5 -65.5t-65.5 -158.5v-384zM256 224q0 -93 65.5 -158.5t158.5 -65.5h1088q93 0 158.5 65.5t65.5 158.5v640q0 93 -65.5 158.5t-158.5 65.5
h-1088q-93 0 -158.5 -65.5t-65.5 -158.5v-640zM480 192q-14 0 -23 9t-9 23v640q0 14 9 23t23 9h1088q14 0 23 -9t9 -23v-640q0 -14 -9 -23t-23 -9h-1088zM224 1408q-14 0 -23 9t-9 23v384q0 14 9 23t23 9h1600q14 0 23 -9t9 -23v-384q0 -14 -9 -23t-23 -9h-1600zM896 1632
q0 -40 28 -68t68 -28h576q40 0 68 28t28 68t-28 68t-68 28h-576q-40 0 -68 -28t-28 -68zM384 1632q0 -40 28 -68t68 -28h64q40 0 68 28t28 68t-28 68t-68 28h-64q-40 0 -68 -28t-28 -68z" />
</svg>