<svg xmlns="http://www.w3.org/2000/svg" xmlns:xlink="http://www.w3.org/1999/xlink" version="1.1" viewBox="-10 0 2058 2048">
   <path fill="currentColor"
d="M1590 285q-72 -72 -176 -72q-102 0 -174 73l-824 824q-59 59 -92.5 137t-33.5 164q0 84 32.5 161.5t93 137.5t138.5 93t161.5 33t161.5 -33t139 -93l774 -775q31 -30 74 -30q44 0 75 31.5t31 75.5q0 41 -30 73l-774 775q-88 88 -204.5 137.5t-245.5 50.5q-127 0 -244 -49
t-206 -139q-89 -88 -138.5 -204t-49.5 -245q0 -126 49 -243.5t139 -207.5l824 -824q63 -64 147.5 -100t178 -36t178.5 36.5t146.5 98t97.5 146.5t36 179v1q0 91 -35 175.5t-99 149.5l-824 824q-40 40 -92.5 62t-109.5 22q-116 0 -198 -84q-84 -83 -84 -199q0 -58 22.5 -110
t61.5 -91l774 -775q30 -28 72 -28q44 0 75 31t31 75q0 41 -28 72l-774 775q-22 22 -22 50t22 50t48 22q30 0 52 -22l824 -824q72 -73 72 -175q0 -103 -72 -176z" />
</svg>