<svg xmlns="http://www.w3.org/2000/svg" xmlns:xlink="http://www.w3.org/1999/xlink" version="1.1" viewBox="-10 0 2068 2048">
   <path fill="currentColor"
d="M864 64h320q93 0 158.5 65.5t65.5 158.5v160h416q93 0 158.5 65.5t65.5 158.5v1088q0 93 -65.5 158.5t-158.5 65.5h-1600q-93 0 -158.5 -65.5t-65.5 -158.5v-1088q0 -93 65.5 -158.5t158.5 -65.5h416v-160q0 -93 65.5 -158.5t158.5 -65.5zM448 1280h-1q-140 0 -255 -80
v560q0 14 9 23t23 9h1600q14 0 23 -9t9 -23v-560q-115 80 -255 80h-1h-1152zM224 640q-14 0 -23 9t-9 23v160q0 106 75 181t181 75h1152q106 0 181 -75t75 -181v-160q0 -14 -9 -23t-23 -9h-1600zM1216 448v-160q0 -14 -9 -23t-23 -9h-320q-14 0 -23 9t-9 23v160h384z" />
</svg>