<svg xmlns="http://www.w3.org/2000/svg" xmlns:xlink="http://www.w3.org/1999/xlink" version="1.1" viewBox="-10 0 2068 2048">
   <path fill="currentColor"
d="M572 28q28 -28 68 -28h768q40 0 68 28l544 544q28 28 28 68v768q0 40 -28 68l-544 544q-28 28 -68 28h-768q-40 0 -68 -28l-544 -544q-28 -28 -28 -68v-768q0 -40 28 -68zM680 192l-488 488v688l488 488h688l488 -488v-688l-488 -488h-688zM1023.5 512q39.5 0 68 28
t28.5 68v448q0 40 -28.5 68t-68 28t-67.5 -28t-28 -68v-448q0 -40 28 -68t67.5 -28zM1023.5 1536q-53.5 0 -90.5 -37.5t-37 -90.5t37 -90.5t90.5 -37.5t91 37.5t37.5 90.5t-37.5 90.5t-91 37.5z" />
</svg>