<svg xmlns="http://www.w3.org/2000/svg" xmlns:xlink="http://www.w3.org/1999/xlink" version="1.1" viewBox="-10 0 2068 2048">
   <path fill="currentColor"
d="M224 128h416q53 0 100.5 24t79.5 66l114 153q10 13 26 13h864q92 0 158 65.5t66 158.5v1088q0 93 -66 158.5t-158 65.5h-1152q-45 0 -70.5 -30t-25.5 -66t25.5 -66t70.5 -30h1152q13 0 22.5 -9t9.5 -23v-1088q0 -14 -9.5 -23t-22.5 -9h-864q-53 0 -100.5 -24t-79.5 -66
l-114 -153q-10 -13 -26 -13h-416q-13 0 -22.5 9t-9.5 23v224q0 36 -19.5 61t-48 31t-56.5 0t-48 -31t-20 -61v-224q0 -93 66 -158.5t158 -65.5zM542 809q14 0 24 9l368 343q10 10 10 23.5t-10 23.5l-368 343q-16 14 -35 5.5t-19 -29.5v-248h-30q-120 -1 -205 83.5t-85 204.5
v129q0 36 -19.5 61t-48 31t-56.5 0t-48 -31t-20 -61v-129q0 -98 38.5 -187t103 -153.5t154 -102.5t186.5 -37h30v-246q0 -13 9 -22t21 -10z" />
</svg>