<svg xmlns="http://www.w3.org/2000/svg" xmlns:xlink="http://www.w3.org/1999/xlink" version="1.1" viewBox="-10 0 2068 2048">
   <path fill="currentColor"
d="M1024 0q208 0 397.5 81t327 218.5t218.5 327t81 397.5t-81 397.5t-218.5 327t-327 218.5t-397.5 81t-397.5 -81t-327 -218.5t-218.5 -327t-81 -397.5t81 -397.5t218.5 -327t327 -218.5t397.5 -81zM740 1120q25 291 174 535q46 76 110 155q64 -79 110 -155
q149 -244 174 -535h-568zM1308 928q-25 -291 -174 -535q-46 -76 -110 -155q-64 79 -110 155q-149 244 -174 535h568zM547 1120h-349q29 251 193 443t404 261q-22 -32 -45 -71q-180 -300 -203 -633zM198 928h349q22 -329 203 -633q25 -42 45 -71q-240 69 -404 261t-193 443z
M1501 1120q-22 329 -203 633q-25 42 -45 71q240 -69 404 -261t193 -443h-349zM1850 928q-29 -251 -193 -443t-404 -261q22 32 45 71q181 304 203 633h349z" />
</svg>