<svg xmlns="http://www.w3.org/2000/svg" xmlns:xlink="http://www.w3.org/1999/xlink" version="1.1" viewBox="-10 0 2068 2048">
   <path fill="currentColor"
d="M1656 136l26 146h366q-4 102 -72 240h-252l38 266q51 5 134.5 16t101.5 12v180q-99 -28 -224 -28q63 458 84 964h-222q0 -477 -60.5 -998.5t-145.5 -817.5zM1528 948q-217 -12 -478 -12q-223 0 -386 10q-2 34 -12 143t-13 150.5t-10.5 134t-10.5 146t-7 131t-5.5 145
t-1.5 136.5h-218q15 -529 59.5 -961.5t142.5 -834.5l226 -20q-1 4 -19.5 66.5t-24.5 99.5h646l52 234h-740q-18 83 -42 240q0 4 -1 10t-1 10q72 -8 302 -8v-164h208v162q180 0 310 10q4 30 11.5 86t12.5 86zM502 282l-44 240h-380q-65 -120 -78 -240h502zM392 962
q-78 4 -192 18q-68 10 -110 14v-168q27 -7 127.5 -19.5t198.5 -18.5q-24 119 -24 174z" />
</svg>