<svg xmlns="http://www.w3.org/2000/svg" xmlns:xlink="http://www.w3.org/1999/xlink" version="1.1" viewBox="-112 0 2169 2048">
   <path fill="currentColor"
d="M-100 2054l-2 -2059q0 -5 4 -5q30 -4 60 5q8 3 79.5 1.5t98.5 7.5q23 9 46.5 14t38 10.5t29.5 6t25 3.5q6 3 48 5.5t59 6.5q10 2 11 2q3 0 10.5 -2.5t16.5 -2.5q4 0 18 2q16 4 30 9t35 8q56 10 69 17l2 0.5t4 0.5h5q52 0 52 18t-57 18h-11h-5q-2 1 -4.5 4.5t-11 7.5
t-22.5 5q-8 1 -20 1q-9 0 -19.5 -1.5t-17.5 -1.5q-16 0 -51.5 5.5t-49.5 9.5t-79.5 5.5t-68.5 2.5t-11 1q-5 0 -19.5 -1t-22.5 -1q-20 0 -36 4q-6 2 -7 3q4 4 20.5 8t23.5 4t63.5 11.5t63.5 11.5q36 0 73 8q8 2 11 2q6 0 21.5 -3t27.5 -5q1 0 6 -0.5t9 -0.5q35 0 83 7.5
t64 16.5q8 5 14 5q4 0 29 -5.5t54 -8.5q34 -2 35 -2q10 0 14 1.5t9 6.5t11 8q12 7 17 7l14 -2.5t34 -3.5h7q24 0 43 7.5t27 8.5q50 5 97 5q53 0 113 20q13 5 23 5q4 0 11 -3.5t18 -3.5q10 0 22.5 3t30.5 3q43 0 81 13q21 8 34 8q9 0 21 -3q3 -1 7 -1q11 0 19 8t8 17
q0 8 -6 14q-7 8 -22 11.5t-41.5 5t-28.5 1.5q-5 1 -15 1q-6 0 -18.5 -0.5t-19.5 -0.5q-28 0 -50 6q-39 10 -115 10q-57 0 -73 -3q-1 0 -2.5 -0.5t-2.5 -0.5q-9 0 -26 6.5t-26 7.5q-4 1 -20.5 2.5t-30 2.5t-29.5 4t-23 6q-12 5 -19 5q-9 0 -21 -5t-15 -5q-4 0 -5 1
q-12 9 -46 9q-47 0 -73 -11q-4 -2 -14 -2q-14 0 -48.5 9.5t-47.5 10.5q-12 2 -48.5 4t-64 4t-31.5 3q-6 3 -37 3t-70 4.5t-64 16.5q-21 10 -21 19t18 14.5t38 5.5q11 0 163 19q7 1 23.5 4t29 4.5t21.5 1.5h5h4q20 0 54.5 10.5t45.5 21.5q4 4 8 4q2 0 12.5 -3t18.5 -3
q6 0 17 3q12 5 82 12q11 2 17.5 6.5t10.5 4.5q3 0 6 -1q12 -2 29 -2q73 0 112 15q21 8 40 8q5 0 18 -1t23 -1q29 0 47.5 5t28.5 21q2 4 2 6q0 7 -8 11t-20.5 6.5t-24 3.5t-23 1.5t-13.5 0.5q-7 1 -36.5 4t-55.5 6.5t-37 5.5q-88 22 -119 22q-15 0 -25 -3q-17 -6 -30 -6
q-21 0 -39 10q-9 5 -22 5q-7 0 -20.5 -1.5t-19 -1.5t-8.5 1q-10 2 -51.5 5.5t-48.5 6.5q-11 5 -45 9.5t-42 7.5q-4 2 -22 8.5t-31.5 12t-29 15.5t-22.5 21q-10 16 -10 22q0 4 3.5 8t13 13t19 21.5t15 25t9.5 16t18.5 8t51.5 9.5q11 2 33 2h31q25 0 35 3q18 5 52 5h25
q21 0 56.5 7.5t48.5 14.5q6 5 6 7q0 8 -27 13t-49 6q-54 4 -81 13q-14 4 -45 4q-8 0 -25.5 -0.5t-25.5 -0.5q-35 0 -50 3q-16 3 -19 6q5 5 11 5q28 4 74 4q2 0 6.5 -0.5t5.5 -0.5l2.5 -0.5t4.5 -0.5q10 0 26.5 3t40 8.5t24.5 5.5q9 3 88 8q8 1 22 1q10 0 26 -1t23 -1
q11 0 16 1q1 1 30.5 7.5t59.5 7.5q39 2 55 6.5t21 17.5q1 2 1 5q0 5 -5.5 8t-14.5 4.5t-17.5 1.5h-19.5h-14q-9 1 -28.5 5.5t-37.5 4.5h-15q-3 0 -6.5 -0.5t-4.5 -0.5q-21 0 -46 9.5t-32 10.5q-12 3 -62 11.5t-63 12.5q-31 10 -147 20q-37 4 -43 7q5 6 8 7q8 5 20 5
q4 0 15.5 -1t18.5 -1q11 0 16 1q34 4 136 4q9 0 20.5 -0.5t13.5 -0.5h6q6 0 17 2t19 2q13 0 22 -2q18 -2 21 -2q10 0 19.5 4.5t14.5 5.5q9 3 13 3.5t12 0.5t19 1q9 1 23 1.5t25.5 1.5t23.5 5q5 2 23 2q8 0 28 -0.5t31 -0.5q34 0 46 6q10 5 25 5q7 0 24 -1.5t27 -2.5h7
q12 0 43 5t61 5q40 0 52.5 2.5t31.5 11.5q6 3 19 3q3 0 10.5 -0.5t12.5 -0.5q60 0 112 25q7 3 16 3q6 0 22 -2.5t25 -2.5q10 0 41.5 -1t41.5 -1q25 0 95 11l2 0.5t4 0.5q8 0 35.5 -4t41.5 -5h8q14 0 32.5 2.5t38.5 5.5t29 4q10 1 51 1h79h41q50 2 50 21q0 3 -2 11
q-5 15 -63 15h-37q-8 0 -31 4t-39 4h-8q-3 0 -8 -0.5t-8 -0.5q-27 0 -80 5q-79 7 -165 17q-11 1 -28 1q-11 0 -22 -1t-13 -1h-5q-6 2 -13 2t-25 -1.5t-26 -1.5q-13 0 -22 3q-11 4 -42.5 6.5t-70.5 4.5t-49 2q-3 0 -7.5 0.5t-5.5 0.5q-17 0 -34.5 -4.5t-21.5 -4.5
q-5 0 -12.5 5t-21.5 5q-12 0 -108 16q-17 3 -27 3q-7 0 -20.5 -1.5t-23.5 -1.5h-9q-34 2 -80 11q-22 5 -138.5 11.5l-116.5 6.5q-8 1 -63 5.5t-68 5.5q-7 1 -27.5 11.5t-44.5 10.5q-28 0 -72.5 17t-58.5 31q-2 2 -2 5q0 5 10.5 9t28 8t26.5 7q8 4 15.5 6t17.5 3.5t14 1.5
q1 1 15.5 4.5t27 5t25.5 1.5q14 0 46 1.5t43 1.5h9h9q5 0 57 7h13q5 0 17 -1t23 -1h11q19 2 53 8t45 7q22 3 22 11q0 7 -12.5 15.5t-21.5 9.5q-11 2 -36.5 4.5t-31 3t-16 1t-19.5 1.5t-17 4q-8 4 -19 4q-8 0 -17 -1.5t-16.5 -3.5t-9.5 -3h-2q-5 0 -30 5t-34 5q-11 0 -39.5 7
t-38.5 11q-19 9 -48 12q-9 1 -53 3.5t-61 3.5q-6 1 -12 1.5t-9 0.5h-6t-4.5 1t-3 1t-2 1.5t-1 2.5l-1.5 3l-1 2q0 3 4 3.5t14 2t20 4.5q15 5 55 5q18 0 66 -2h10q21 0 35.5 2.5t31 8.5t18.5 6q7 2 53.5 3.5t60.5 8.5q6 4 14 4q1 0 9.5 -2t18.5 -2q47 0 67 11q6 3 19 3
q14 0 42 -4h10q22 0 62 15q8 2 11 2q2 0 11 -1t17 -1q11 0 32 3q6 1 16 2.5t15 2t12 2t11 3t7.5 3.5t5 5.5t1.5 7.5q0 10 -13.5 14t-34.5 4.5l-21 0.5q-9 2 -33 3t-40 3q-17 3 -57 3h-26h-15q-22 2 -51.5 2.5t-49.5 1.5t-26 1q-56 7 -84 7q-36 0 -44 5q0 1 4 4.5t7.5 9
t3.5 10.5q0 4 -1 6q-4 12 -45 12q-19 0 -33 -2q-1 0 -3 -0.5t-3 -0.5q-8 0 -21.5 6.5t-19.5 7.5q-16 4 -97 11q-5 1 -28 7t-49 6q-35 0 -71.5 7t-36.5 13v1q0 8 36 12l2.5 0.5t4.5 0.5q1 0 6 -0.5t8 -0.5q29 0 37 8q2 3 7 4.5t15.5 2.5t18.5 2q11 2 34 8t37 8q19 5 34.5 13
t17.5 8q5 2 22 2h39q19 0 30 1q9 1 15 6t6 11q0 7 -6.5 12.5t-16.5 5.5q-81 4 -100 8q-18 4 -25 4q-14 0 -29 -1h-10q-16 0 -26.5 2.5t-28 8.5t-30.5 10q-26 8 -79 8h-14q-15 0 -29 2q-13 3 -51 12.5t-52 11.5q-13 3 -43.5 4t-55.5 1h-24q-5 0 -5 -4z" />
</svg>