<svg xmlns="http://www.w3.org/2000/svg" xmlns:xlink="http://www.w3.org/1999/xlink" version="1.1" viewBox="-10 0 2058 2048">
   <path fill="currentColor"
d="M0 1577q0 -163 115.5 -278.5t278.5 -115.5t278 115l78 78q115 115 115 278t-115 278.5t-278 115.5q-164 0 -279 -115l-78 -78q-115 -115 -115 -278zM1041 1577q0 -163 115 -278.5t278 -115.5q164 0 279 115l78 78q115 115 115 278t-115.5 278.5t-278.5 115.5t-278 -115
l-78 -78q-115 -115 -115 -278zM0 394q0 -163 115.5 -278.5t278.5 -115.5q162 0 278 116l78 78q115 115 115 278t-115 278.5t-278 115.5q-164 0 -279 -115l-78 -78q-115 -115 -115 -279zM1041 394q0 -163 115 -278.5t278 -115.5t279 116l78 78q115 115 115 278t-115.5 278.5
t-278.5 115.5t-278 -115l-78 -78q-115 -115 -115 -279zM629 1311q1 0 1 0.5t1 0.5l-3.5 -3.5t-4.5 -3.5l1 1zM1670 1312h2l-3.5 -3.5t-4.5 -3.5l1 1zM629 129q1 0 1 0.5t1 0.5l-3.5 -3.5t-4.5 -3.5l1 1zM1670 129l1 1h1q-5 -5 -8 -7l1 1zM1485 843l-55 -55q-89 -2 -165 -38
q93 84 220 93zM1517 844q151 -2 258 -109t109 -258l-57 -57q-10 148 -114.5 253t-252.5 115zM1883 445q-9 -127 -93 -220q36 76 38 165zM444 843l-55 -55q-88 -1 -164 -38q94 84 219 93zM476 844q152 -2 259 -109t108 -258l-56 -57q-10 148 -115 253t-253 115zM842 445
q-9 -127 -93 -220q38 78 39 165zM1485 2025l-55 -54q-87 -1 -165 -39q93 84 220 93zM1517 2026q151 -2 258 -109t109 -258l-57 -57q-10 148 -114.5 253t-252.5 115zM1883 1627q-9 -127 -93 -220q36 76 38 165zM444 2025l-55 -54q-86 -1 -164 -39q94 84 219 93zM476 2026
q151 -2 258.5 -109t108.5 -258l-56 -57q-10 148 -115 253t-253 115zM842 1627q-9 -127 -93 -220q38 78 39 165zM608 1321q-47 -47 -104.5 -73.5t-109.5 -26.5q-71 0 -144.5 44t-126 128t-52.5 184q0 147 108 255q47 47 104.5 73.5t110.5 26.5q52 0 108.5 -26.5t104 -71.5
t78.5 -113.5t31 -143.5q0 -148 -108 -256zM49 1583v-6q0 -156 114 -270q-58 49 -91 118t-34 147zM51 1616l-12 -12q9 118 91 210q-1 -3 -3 -6.5t-3 -6.5q-63 -84 -73 -185zM737 1602q-10 143 -112 245q108 -92 122 -235zM738 1572l11 11v-6q0 -69 -27 -136q-15 -19 -20 -25
q35 72 36 156zM1649 1322q-47 -47 -105 -74t-110 -27t-108.5 26.5t-104 72t-78.5 114t-31 143.5q0 147 108 255q47 47 104.5 73.5t109.5 26.5t108.5 -26.5t104.5 -71.5t79 -113.5t31 -143.5q0 -147 -108 -255zM1090 1583v-6q0 -157 113 -270q-122 105 -124 265zM1092 1616
l-12 -12q9 119 90 210q-1 -3 -3 -7l-3 -6q-62 -83 -72 -185zM1778 1602q-10 142 -113 245q109 -93 123 -235zM1779 1572l11 11v-6q0 -69 -27 -136q-15 -19 -20 -25q35 72 36 156zM608 139q-47 -47 -104.5 -73.5t-109.5 -26.5t-108.5 26.5t-104.5 71.5t-79 113.5t-31 143.5
q0 148 108 256q47 47 104.5 73.5t110.5 26.5q52 0 108.5 -26.5t104 -72t78.5 -114t31 -143.5q0 -147 -108 -255zM49 401v-7q0 -156 114 -270q-57 49 -90.5 118.5t-34.5 147.5zM51 434l-12 -12q9 118 91 210l-3 -6t-3 -7q-63 -85 -73 -185zM737 420q-10 143 -112 245
q108 -92 122 -235zM738 390l11 11v-7q0 -68 -27 -135q-15 -19 -20 -25q35 72 36 156zM1649 139q-47 -47 -104.5 -73.5t-110.5 -26.5q-52 0 -108.5 26.5t-104 71.5t-78.5 113.5t-31 143.5q0 148 108 256q47 47 104.5 73.5t109.5 26.5q71 0 144.5 -44t126 -128t52.5 -184
q0 -147 -108 -255zM1090 401v-7q0 -156 114 -270q-57 49 -90.5 118.5t-34.5 147.5zM1092 434l-12 -12q9 119 90 210q-1 -2 -3 -6.5t-3 -6.5q-62 -83 -72 -185zM1778 420q-10 142 -113 245q109 -93 123 -235zM1779 390l11 11v-7q0 -68 -27 -135q-15 -19 -20 -25q35 72 36 156
z" />
</svg>