<svg xmlns="http://www.w3.org/2000/svg" xmlns:xlink="http://www.w3.org/1999/xlink" version="1.1" viewBox="-10 0 2058 2048">
   <path fill="currentColor"
d="M977 67v186h-186v-186h186zM995 31h-221q-8 0 -13 5.5t-5 12.5v222q0 8 5.5 13t12.5 5h221q7 0 12.5 -5.5t5.5 -12.5v-222q0 -8 -6 -13t-12 -5zM977 67v186h-186v-186h186zM995 31h-221q-8 0 -13 5.5t-5 12.5v222q0 8 5.5 13t12.5 5h221q7 0 12.5 -5.5t5.5 -12.5v-222
q0 -8 -6 -13t-12 -5zM977 67v186h-186v-186h186zM995 31h-221q-8 0 -13 5.5t-5 12.5v222q0 8 5.5 13t12.5 5h221q7 0 12.5 -5.5t5.5 -12.5v-222q0 -8 -6 -13t-12 -5zM1317 59v202h-201v-202h201zM1327 39h-221q-5 0 -7.5 3.5t-2.5 6.5v222q0 4 3 7t7 3h221q4 0 7 -3.5
t3 -6.5v-222q0 -4 -3.5 -7t-6.5 -3zM1317 59v202h-201v-202h201zM1327 39h-221q-5 0 -7.5 3.5t-2.5 6.5v222q0 4 3 7t7 3h221q4 0 7 -3.5t3 -6.5v-222q0 -4 -3.5 -7t-6.5 -3zM1317 59v202h-201v-202h201zM1327 39h-221q-5 0 -7.5 3.5t-2.5 6.5v222q0 4 3 7t7 3h221
q4 0 7 -3.5t3 -6.5v-222q0 -4 -3.5 -7t-6.5 -3zM1650 49h-221v222h221v-222zM1650 49h-221v222h221v-222zM1650 49h-221v222h221v-222zM1987 49h-221v222h221v-222zM1987 49h-221v222h221v-222zM1987 49h-221v222h221v-222zM660 670v174h-173v-174h173zM684 622h-221
q-10 0 -17 8t-7 16v222q0 10 7.5 17t16.5 7h221q9 0 16.5 -8t7.5 -16v-222q0 -10 -8 -17t-16 -7zM660 1795v174h-173v-174h173zM684 1747h-221q-10 0 -17 8t-7 16v222q0 10 7.5 17t16.5 7h221q9 0 16.5 -8t7.5 -16v-222q0 -10 -8 -17t-16 -7zM980 366v202h-201v-202h201z
M990 346h-221q-5 0 -7.5 3.5t-2.5 6.5v222q0 4 3 7t7 3h221q4 0 7 -3.5t3 -6.5v-222q0 -4 -3.5 -7t-6.5 -3zM960 1231v162h-161v-162h161zM990 1171h-221q-13 0 -21.5 9.5t-8.5 20.5v222q0 13 9.5 21.5t20.5 8.5h221q12 0 21 -9.5t9 -20.5v-222q0 -13 -10 -21.5t-20 -8.5z
M1327 356h-221v222h221v-222zM1317 656v202h-201v-202h201zM1327 636h-221q-5 0 -7.5 3.5t-2.5 6.5v222q0 4 3 7t7 3h221q4 0 7 -3.5t3 -6.5v-222q0 -4 -3.5 -7t-6.5 -3zM1327 920h-221v222h221v-222zM1307 1502v183h-181v-183h181zM1327 1462h-221q-9 0 -14.5 6.5
t-5.5 13.5v223q0 9 6 14.5t14 5.5h221q8 0 14 -6.5t6 -13.5v-223q0 -9 -6.5 -14.5t-13.5 -5.5zM1650 356h-221v222h221v-222zM1650 646h-221v222h221v-222zM1650 1201h-221v222h221v-222zM1650 1482h-221v223h221v-223zM1650 1771h-221v222h221v-222zM1987 356h-221v222h221
v-222zM1987 646h-221v222h221v-222zM1987 920h-221v222h221v-222zM1987 1201h-221v222h221v-222zM1987 1482h-221v223h221v-223zM1987 1771h-221v222h221v-222z" />
</svg>