<svg xmlns="http://www.w3.org/2000/svg" xmlns:xlink="http://www.w3.org/1999/xlink" version="1.1" viewBox="-10 0 2058 2048">
   <path fill="currentColor"
d="M1998 350l-16 13q-41 -27 -114 -47.5t-166 -20.5q-40 0 -152 15q92 31 184 101q188 144 188 359q0 120 -56 257h-28q-49 -124 -100 -202q-51 -86 -124 -151.5t-150 -74.5q50 50 96 110q94 135 94 282q0 131 -82 258h-20q-28 -89 -73 -175t-97 -156t-96.5 -120t-91.5 -94
q0 1 -12 48.5t-16 65.5t-17.5 73.5t-20 88.5t-18.5 94t-18.5 105.5t-15.5 107.5t-13.5 116t-7.5 114.5t-3 119.5q0 20 1 52.5t1 52.5l34 -3l94 -255q258 38 410 171q62 53 114 129q-64 71 -178 133q-250 131 -647.5 131t-654.5 -131q-115 -61 -176 -133q54 -85 142 -150
q204 -151 510 -167q61 -430 268 -830q-71 6 -146 20.5t-170.5 43.5t-197.5 82.5t-192 125.5h-22q0 -23 8.5 -59.5t29 -88.5t51.5 -105.5t81.5 -108t112 -99t150 -76t189.5 -40.5q-35 -23 -78 -42q-108 -45 -212 -45q-137 0 -292 82l-12 -19q61 -91 132 -152q40 -32 78 -57
t87.5 -49t108.5 -37t122 -13q215 0 442 152q61 -26 96 -36q123 -37 226 -37q303 0 436 271z" />
</svg>