<svg xmlns="http://www.w3.org/2000/svg" xmlns:xlink="http://www.w3.org/1999/xlink" version="1.1" viewBox="-10 0 2058 2048">
   <path fill="currentColor"
d="M1284 56v128h-128v-128h128zM1297 30h-154q-6 0 -9 4.5t-3 9.5v154q0 5 3.5 8.5t8.5 3.5h154q5 0 8.5 -4t3.5 -8v-154q0 -6 -4 -10t-8 -4zM1284 56v128h-128v-128h128zM1297 30h-154q-6 0 -9 4.5t-3 9.5v154q0 5 3.5 8.5t8.5 3.5h154q5 0 8.5 -4t3.5 -8v-154q0 -6 -4 -10
t-8 -4zM1284 56v128h-128v-128h128zM1297 30h-154q-6 0 -9 4.5t-3 9.5v154q0 5 3.5 8.5t8.5 3.5h154q5 0 8.5 -4t3.5 -8v-154q0 -6 -4 -10t-8 -4zM434 48v146h-146v-146h146zM438 40h-154q-4 0 -4 4v154q0 4 4 4h154q4 0 4 -4v-154q0 -4 -4 -4zM434 48v146h-146v-146h146z
M438 40h-154q-4 0 -4 4v154q0 4 4 4h154q4 0 4 -4v-154q0 -4 -4 -4zM434 48v146h-146v-146h146zM438 40h-154q-4 0 -4 4v154q0 4 4 4h154q4 0 4 -4v-154q0 -4 -4 -4zM860 44h-154v154h154v-154zM860 44h-154v154h154v-154zM860 44h-154v154h154v-154zM1081 44h-154v154h154
v-154zM1081 44h-154v154h154v-154zM1081 44h-154v154h154v-154zM1528 44h-154v154h154v-154zM1528 44h-154v154h154v-154zM1528 44h-154v154h154v-154zM1753 44h-154v154h154v-154zM1753 44h-154v154h154v-154zM1753 44h-154v154h154v-154zM1987 44h-154v154h154v-154z
M1987 44h-154v154h154v-154zM1987 44h-154v154h154v-154zM1289 1864v146h-145v-146h145zM1294 1856h-154q-4 0 -4 4v154q0 4 4 4h154q4 0 4 -4v-154q0 -4 -4 -4zM1289 1864v146h-145v-146h145zM1294 1856h-154q-4 0 -4 4v154q0 4 4 4h154q4 0 4 -4v-154q0 -4 -4 -4z
M1289 1864v146h-145v-146h145zM1294 1856h-154q-4 0 -4 4v154q0 4 4 4h154q4 0 4 -4v-154q0 -4 -4 -4zM1753 1860h-154v154h154v-154zM1753 1860h-154v154h154v-154zM1753 1860h-154v154h154v-154zM1987 1860h-154v154h154v-154zM1987 1860h-154v154h154v-154zM1987 1860
h-154v154h154v-154zM434 260v146h-146v-146h146zM438 252h-154q-4 0 -4 4v154q0 4 4 4h154q4 0 4 -4v-154q0 -4 -4 -4zM646 1240v146h-145v-146h145zM651 1232h-154q-4 0 -4 4v154q0 4 4 4h154q4 0 4 -4v-154q0 -4 -4 -4zM860 256h-154v154h154v-154zM856 846v146h-145v-146
h145zM860 838h-154q-4 0 -4 4v154q0 4 4 4h154q4 0 4 -4v-154q0 -4 -4 -4zM856 1448v146h-145v-146h145zM860 1440h-154q-4 0 -4 4v154q0 4 4 4h154q4 0 4 -4v-154q0 -4 -4 -4zM1064 474v120h-121v-120h121zM1081 440h-154q-7 0 -12 6t-5 12v154q0 6 5.5 11t11.5 5h154
q7 0 11.5 -5.5t4.5 -10.5v-154q0 -8 -5.5 -13t-10.5 -5zM1064 664v120h-121v-120h121zM1081 630h-154q-8 0 -12.5 5.5t-4.5 10.5v154q0 8 5.5 13t11.5 5h154q7 0 11.5 -6t4.5 -12v-154q0 -7 -5.5 -11.5t-10.5 -4.5zM1081 842h-154v154h154v-154zM1081 1036h-154v154h154
v-154zM1064 1252v122h-121v-122h121zM1081 1220h-154q-8 0 -12.5 5t-4.5 11v154q0 7 5.5 11.5t11.5 4.5h154q7 0 11.5 -5.5t4.5 -10.5v-154q0 -8 -5.5 -12t-10.5 -4zM1294 256h-154v154h154v-154zM1294 458h-154v154h154v-154zM1273 862v112h-112v-112h112zM1294 820h-154
q-10 0 -15.5 7t-5.5 15v154q0 9 6.5 14.5t14.5 5.5h154q9 0 14.5 -6.5t5.5 -13.5v-154q0 -10 -6.5 -16t-13.5 -6zM1294 1036h-154v154h154v-154zM1289 1448v146h-145v-146h145zM1294 1440h-154q-4 0 -4 4v154q0 4 4 4h154q4 0 4 -4v-154q0 -4 -4 -4zM1528 256h-154v154h154
v-154zM1528 458h-154v154h154v-154zM1528 1650h-154v154h154v-154zM1528 646h-154v154h154v-154zM1528 1650h-154v154h154v-154zM1528 842h-154v154h154v-154zM1528 1036h-154v154h154v-154zM1528 1444h-154v154h154v-154zM1528 1650h-154v154h154v-154zM1753 256h-154v154
h154v-154zM1753 458h-154v154h154v-154zM1753 1650h-154v154h154v-154zM1753 646h-154v154h154v-154zM1753 1650h-154v154h154v-154zM1753 842h-154v154h154v-154zM1753 1036h-154v154h154v-154zM1753 1236h-154v154h154v-154zM1753 1444h-154v154h154v-154zM1753 1650h-154
v154h154v-154zM1987 256h-154v154h154v-154zM1987 458h-154v154h154v-154zM1987 1650h-154v154h154v-154zM1987 646h-154v154h154v-154zM1987 1650h-154v154h154v-154zM1987 842h-154v154h154v-154zM1987 1036h-154v154h154v-154zM1987 1236h-154v154h154v-154zM1987 1444
h-154v154h154v-154zM1987 1650h-154v154h154v-154z" />
</svg>