<svg xmlns="http://www.w3.org/2000/svg" xmlns:xlink="http://www.w3.org/1999/xlink" version="1.1" viewBox="-10 0 2068 2048">
   <path fill="currentColor"
d="M738 99q-23 35 -30 76q-17 101 62 191q35 45 50 87.5t11.5 75.5t-18 63t-37 51.5t-46.5 40t-45.5 30t-35 20t-13.5 11.5q25 -49 35.5 -85t10.5 -60t-12 -49t-26 -43t-38.5 -51.5t-43.5 -66.5q-56 -100 56 -205q49 -49 120 -86zM958 10q-17 26 -26 68q-16 84 52 165
q36 44 49 85.5t5.5 72.5t-25 58t-42.5 46.5t-47 33.5t-37 23.5t-15 12.5q20 -43 29 -75t8.5 -52.5t-11 -42.5t-22.5 -37.5t-33 -44t-37 -56.5q-49 -85 46 -181q41 -41 106 -76zM1588 1261q0 48 38 83t88 35q48 0 81 -34.5t33 -83.5q0 -48 -33 -82.5t-81 -34.5q-50 0 -88 35
t-38 82zM1438 872v200q46 -70 118 -109t158 -39q89 0 166.5 45t122.5 122.5t45 167.5t-45.5 166.5t-122 121t-166.5 44.5q-88 0 -162.5 -41.5t-119.5 -113.5q-21 127 -84.5 238t-156 191.5t-214.5 126.5t-255 46q-143 0 -276 -54t-231 -146t-156.5 -220.5t-58.5 -270.5v-475
q0 -58 66 -58h1308q33 0 48.5 14t15.5 44z" />
</svg>