<svg xmlns="http://www.w3.org/2000/svg" xmlns:xlink="http://www.w3.org/1999/xlink" version="1.1" viewBox="-10 0 2058 2048">
   <path fill="currentColor"
d="M764 56v128h129v-128h-129zM751 30h154q6 0 9.5 4.5t3.5 9.5v154q0 5 -4 8.5t-9 3.5h-154q-5 0 -8.5 -4t-3.5 -8v-154q0 -6 4 -10t8 -4zM764 56v128h129v-128h-129zM751 30h154q6 0 9.5 4.5t3.5 9.5v154q0 5 -4 8.5t-9 3.5h-154q-5 0 -8.5 -4t-3.5 -8v-154q0 -6 4 -10
t8 -4zM764 56v128h129v-128h-129zM751 30h154q6 0 9.5 4.5t3.5 9.5v154q0 5 -4 8.5t-9 3.5h-154q-5 0 -8.5 -4t-3.5 -8v-154q0 -6 4 -10t8 -4zM1615 48v146h145v-146h-145zM1610 40h154q5 0 5 4v154q0 4 -5 4h-154q-4 0 -4 -4v-154q0 -4 4 -4zM1615 48v146h145v-146h-145z
M1610 40h154q5 0 5 4v154q0 4 -5 4h-154q-4 0 -4 -4v-154q0 -4 4 -4zM1615 48v146h145v-146h-145zM1610 40h154q5 0 5 4v154q0 4 -5 4h-154q-4 0 -4 -4v-154q0 -4 4 -4zM1188 44h154v154h-154v-154zM1188 44h154v154h-154v-154zM1188 44h154v154h-154v-154zM968 44h153v154
h-153v-154zM968 44h153v154h-153v-154zM968 44h153v154h-153v-154zM520 44h154v154h-154v-154zM520 44h154v154h-154v-154zM520 44h154v154h-154v-154zM295 44h154v154h-154v-154zM295 44h154v154h-154v-154zM295 44h154v154h-154v-154zM61 44h154v154h-154v-154zM61 44h154
v154h-154v-154zM61 44h154v154h-154v-154zM759 1864v146h145v-146h-145zM755 1856h153q5 0 5 4v154q0 4 -5 4h-153q-5 0 -5 -4v-154q0 -4 5 -4zM759 1864v146h145v-146h-145zM755 1856h153q5 0 5 4v154q0 4 -5 4h-153q-5 0 -5 -4v-154q0 -4 5 -4zM759 1864v146h145v-146
h-145zM755 1856h153q5 0 5 4v154q0 4 -5 4h-153q-5 0 -5 -4v-154q0 -4 5 -4zM295 1860h154v154h-154v-154zM295 1860h154v154h-154v-154zM295 1860h154v154h-154v-154zM61 1860h154v154h-154v-154zM61 1860h154v154h-154v-154zM61 1860h154v154h-154v-154zM1615 260v146h145
v-146h-145zM1610 252h154q5 0 5 4v154q0 4 -5 4h-154q-4 0 -4 -4v-154q0 -4 4 -4zM1402 1240v146h145v-146h-145zM1398 1232h153q5 0 5 4v154q0 4 -5 4h-153q-5 0 -5 -4v-154q0 -4 5 -4zM1188 256h154v154h-154v-154zM1192 846v146h146v-146h-146zM1188 838h154q4 0 4 4v154
q0 4 -4 4h-154q-4 0 -4 -4v-154q0 -4 4 -4zM1192 1448v146h146v-146h-146zM1188 1440h154q4 0 4 4v154q0 4 -4 4h-154q-4 0 -4 -4v-154q0 -4 4 -4zM984 474v120h121v-120h-121zM968 440h153q7 0 12 6t5 12v154q0 6 -5.5 11t-11.5 5h-153q-7 0 -12 -5.5t-5 -10.5v-154
q0 -8 6 -13t11 -5zM984 664v120h121v-120h-121zM968 630h153q8 0 12.5 5.5t4.5 10.5v154q0 8 -5.5 13t-11.5 5h-153q-7 0 -12 -6t-5 -12v-154q0 -6 6 -11t11 -5zM968 842h153v154h-153v-154zM968 1036h153v154h-153v-154zM984 1252v122h121v-122h-121zM968 1220h153
q8 0 12.5 5t4.5 11v154q0 7 -5.5 11.5t-11.5 4.5h-153q-7 0 -12 -5.5t-5 -10.5v-154q0 -7 6 -11.5t11 -4.5zM755 256h153v154h-153v-154zM755 458h153v154h-153v-154zM775 862v112h113v-112h-113zM755 820h153q10 0 15.5 7t5.5 15v154q0 9 -6.5 14.5t-14.5 5.5h-153
q-9 0 -15 -6.5t-6 -13.5v-154q0 -10 7 -16t14 -6zM755 1036h153v154h-153v-154zM759 1448v146h145v-146h-145zM755 1440h153q5 0 5 4v154q0 4 -5 4h-153q-5 0 -5 -4v-154q0 -4 5 -4zM520 256h154v154h-154v-154zM520 458h154v154h-154v-154zM520 1650h154v154h-154v-154z
M520 646h154v154h-154v-154zM520 1650h154v154h-154v-154zM520 842h154v154h-154v-154zM520 1036h154v154h-154v-154zM520 1444h154v154h-154v-154zM520 1650h154v154h-154v-154zM295 256h154v154h-154v-154zM295 458h154v154h-154v-154zM295 1650h154v154h-154v-154z
M295 646h154v154h-154v-154zM295 1650h154v154h-154v-154zM295 842h154v154h-154v-154zM295 1036h154v154h-154v-154zM295 1236h154v154h-154v-154zM295 1444h154v154h-154v-154zM295 1650h154v154h-154v-154zM61 256h154v154h-154v-154zM61 458h154v154h-154v-154zM61 1650
h154v154h-154v-154zM61 646h154v154h-154v-154zM61 1650h154v154h-154v-154zM61 842h154v154h-154v-154zM61 1036h154v154h-154v-154zM61 1236h154v154h-154v-154zM61 1444h154v154h-154v-154zM61 1650h154v154h-154v-154z" />
</svg>