<svg xmlns="http://www.w3.org/2000/svg" xmlns:xlink="http://www.w3.org/1999/xlink" version="1.1" viewBox="-10 0 2058 2048">
   <path fill="currentColor"
d="M1089 1681v365q-14 0 -39.5 1t-39.5 1q-217 0 -394.5 -66.5t-298 -185.5t-186 -286.5t-65.5 -366.5q0 -144 45 -268t122 -209t181.5 -133.5t221.5 -48.5q6 0 89 5q-144 -160 -271 -160l-299 82q15 -61 63 -106q119 -109 345 -109q215 0 367 169l-99 -329l207 -36
q15 49 25 104q26 137 26 225v519q0 89 -56 89q-35 0 -103.5 -37.5t-111.5 -37.5q-83 0 -151 56t-103 141t-35 177q0 59 18.5 123.5t52 122t89 94.5t121.5 37q48 0 85.5 -19t69.5 -38t66 -19q58 0 58 144zM1377 474h48q116 0 218 42t177 118.5t118.5 191t43.5 251.5
q0 167 -59 324t-161 279t-239 211t-291 130v-429q0 -95 -45.5 -148t-133.5 -53q-53 0 -95 11.5t-62 26t-43 26t-43 11.5q-63 0 -98.5 -72t-35.5 -158q0 -88 39 -155.5t108 -67.5q22 0 43.5 11t39.5 24.5t56.5 24.5t90.5 11q82 0 130.5 -57t48.5 -145v-600q125 -86 272 -86
q223 0 321 111q46 49 56 109l-405 -76q-68 76 -99 134z" />
</svg>