<svg xmlns="http://www.w3.org/2000/svg" xmlns:xlink="http://www.w3.org/1999/xlink" version="1.1" viewBox="-11 0 2069 2048">
   <path fill="currentColor"
d="M16 58q13 -19 28.5 -32t24.5 -13q12 1 19.5 2.5t15 8t10.5 9.5t13 18t16 23q20 27 43.5 38.5t43.5 11.5t46 -11.5t42.5 -22.5t41.5 -31q128 -98 240 -31l-65 92h-7q-22 0 -32 1t-20.5 9t-14.5 14t-19 30t-29 44q-17 25 -38 44t-35 27.5t-31 16.5t-20 9q0 2 2 4l2 2
q10 17 23.5 27t29 10.5t30.5 -1.5t33 -11.5t32.5 -18t32.5 -23t29 -24t26.5 -23t20.5 -18.5q86 -73 151 -87t144 27q45 25 85.5 27t69.5 -10t67 -39q1 0 3 -1.5t3 -2.5h16q24 6 -21 58q-29 33 -57 57.5t-57.5 41t-51.5 26.5t-55.5 23t-52.5 21q-19 9 -29 16q-1 3 -3 11
q-6 39 25.5 77.5t86.5 51.5q45 11 92.5 -3.5t82.5 -39.5t86.5 -57.5t94.5 -48.5q216 -80 440 63q55 35 98.5 56.5t90 34t88.5 6.5t80 -31l14 3q21 10 -25 60q-49 53 -106 83t-111 37t-109.5 4.5t-108 -9t-100.5 -9.5t-94 7.5t-80 38.5q-73 61 -103 81q21 12 48 19.5t59.5 13
t45.5 8.5q43 11 95 0q1 0 2.5 -0.5t2.5 -0.5l-5 20t-14.5 36t-25.5 32q-117 68 -212 74q-12 1 -44.5 2.5t-45.5 3t-35.5 4.5t-37.5 8t-28 13q22 6 51 26.5t70 54t64 49.5q22 16 44.5 26t51 18.5t30.5 8.5q33 12 130.5 -5.5t205.5 -49.5l-45 89l-6 3q-16 9 -56.5 32
t-61.5 34.5t-57.5 31t-59.5 30t-51 22t-48.5 16.5t-35.5 5q-2 0 -34.5 3t-62 0t-58.5 -15q-30 -12 -88 -42.5t-96.5 -47t-57.5 -11.5q-42 42 -52 51q9 13 26.5 39t27.5 38.5t31 26.5t47 19q73 15 171 -19v16t-9 32.5t-28 35.5q-8 6 -12 8q-123 80 -303 78q-38 0 -90 -21.5
t-91.5 -43.5t-89 -34t-81.5 5q-18 8 -33 23q-29 29 -27 87q38 -21 69.5 -24t56.5 7t61 34q22 16 49.5 24.5t64 15.5t55.5 12l-60 92q-5 0 -7 1q-22 5 -54 16t-55.5 19.5t-57 16.5t-57.5 8t-58 -8q-24 -7 -55.5 10t-63 46t-64.5 57.5t-71 45t-72 8.5q-5 -1 -5.5 -8t4.5 -18
t14 -24q14 -19 29 -31t23 -11q22 6 52.5 -13t62.5 -48t66 -57t72.5 -43.5t72.5 -5.5q37 11 82 4q-23 -9 -36 -19q-53 -36 -89.5 -38.5t-80.5 25.5q-10 7 -16.5 6t-6.5 -9v-15q-2 -50 24 -108.5t76 -108.5q37 -36 79 -57q32 -15 66.5 -16t63.5 8.5t60.5 24t57.5 29.5t55 27.5
t52 14.5q-19 -17 -46 -57t-45 -58l-11 -11q-9 -9 5.5 -31.5t34.5 -40.5l19 -18q21 -8 29 -11t17.5 -9.5t12.5 -10t16.5 -18t27.5 -28.5q11 -11 26 -21q19 -11 42.5 -12t45 6t47 20t47.5 27t48.5 29t46.5 23q27 12 53.5 14.5t58 -0.5t36.5 -3q25 0 89 -28q-96 16 -130 4
q-5 -1 -23.5 -6.5t-32.5 -10.5t-34.5 -15t-38.5 -23q-22 -15 -74 -55.5t-80 -58t-41 -15.5l-22 5q-24 5 -11 -21q8 -16 23 -35l15 -20q22 -28 44 -50.5t39.5 -36.5t39.5 -24.5t35.5 -15.5t35.5 -8t31.5 -4t32.5 -2q-63 -16 -94 -50l-11 -11q-9 -9 6.5 -31.5t34.5 -40.5
l20 -18q18 -6 34.5 -13t27.5 -12.5t27.5 -18t24 -18.5t29 -23.5t31.5 -26.5q36 -29 74.5 -47.5t68 -26.5t70.5 -8.5t63.5 2t65.5 7.5q15 2 22 3q-45 -24 -86 -51q-216 -138 -419 -63q-29 11 -79 43.5t-91 59.5t-97 43.5t-106 4.5q-63 -14 -96.5 -55.5t-24.5 -99.5
q6 -45 40 -91q17 -22 45 -49q28 -24 61 -40q-31 -8 -57 -23q-50 -27 -91.5 -29t-74 13.5t-74.5 51.5q-4 3 -13 11q-17 16 -28.5 25t-35 28.5t-42 30.5t-43.5 25t-45.5 18.5t-41.5 5.5t-38.5 -10t-29.5 -32q-28 -45 34 -118q17 -18 23 -24q19 -17 39 -30t40 -24.5t26 -15.5
q50 -74 76 -102q-61 -5 -119 39q-37 29 -68 47t-68 29t-71 -0.5t-61 -47.5q-8 -11 -17 -24t-11 -16.5t-8 -8t-11 -5t-17 -1.5q-16 -1 0 -33q4 -7 9 -15z" />
</svg>