<svg xmlns="http://www.w3.org/2000/svg" xmlns:xlink="http://www.w3.org/1999/xlink" version="1.1" viewBox="-10 0 2068 2048">
   <path fill="currentColor"
d="M2031 58q-13 -19 -28 -32t-24 -13q-12 1 -19.5 2.5t-15 8t-10 9.5t-13 18t-16.5 23q-20 27 -43.5 38.5t-43.5 11.5t-45.5 -11.5t-42.5 -22.5t-42 -31q-128 -98 -240 -31l65 92h7q22 0 32 1t20.5 9t14.5 14t19.5 30t28.5 44q17 25 38 44t35 27t31 16.5l19 9.5q0 2 -2 5
q0 1 -1 1q-10 17 -23 27t-28.5 10.5t-30.5 -1.5t-33.5 -11.5t-32.5 -18t-32.5 -23t-29 -24t-26 -23t-21.5 -18.5q-85 -73 -151 -87t-145 27q-34 19 -64 25.5t-57.5 0.5t-49.5 -17t-50 -31q-1 0 -3 -1.5t-3 -2.5h-16q-24 6 21 58q29 33 57.5 57.5t58 41t51 26.5t55.5 23
t52 21q20 9 29 16q1 2 1.5 6t0.5 5q6 39 -24.5 77.5t-86.5 51.5q-45 11 -92.5 -3.5t-82.5 -39.5t-87 -57.5t-95 -48.5q-215 -80 -439 63q-54 35 -98 56.5t-90 34t-88 6.5t-81 -31l-14 3q-21 10 25 60q50 53 106.5 83t110.5 37t109.5 4.5t108.5 -9t100.5 -9.5t93.5 7.5
t80 38.5q74 61 103 81q-20 12 -47 19.5t-60 13t-46 8.5q-43 11 -95 0q-1 0 -2.5 -0.5t-2.5 -0.5l5 20t15 36t25 32q58 34 107 52.5t104 21.5q13 1 45.5 2.5t45.5 3t35.5 4.5t37.5 8t28 13q-21 6 -50.5 26.5t-71 54t-64.5 49.5q-22 16 -44 26t-51 18.5t-31 8.5
q-32 12 -129 -5.5t-206 -49.5l45 89q1 1 2.5 2t2.5 1q14 8 56.5 32t62.5 34.5t57.5 30.5t60 30t50.5 22t48.5 17t35.5 5q2 0 35 3t62 0t58 -15q30 -12 88.5 -42.5t97 -47t56.5 -11.5q42 42 52 51q-9 13 -26.5 39t-27.5 38.5t-30.5 26.5t-47.5 19q-72 15 -171 -19q0 6 0.5 16
t9.5 32.5t27 35.5q10 8 11 8q123 80 303 78q38 0 90.5 -21.5t92 -43.5t88.5 -34t81 5q18 8 33 23q30 30 28 87q-37 -21 -69 -24t-57.5 7t-61.5 34q-22 16 -49 24.5t-63.5 15.5t-55.5 12l60 92q5 0 7 1q23 5 55 16t55.5 19.5t56.5 16.5t57.5 8t57.5 -8q25 -7 56 10t63 46
t65 57.5t71 45t71 8.5q6 -1 6 -8t-5 -18t-14 -24q-13 -19 -28 -31t-24 -11q-22 6 -52.5 -13t-62.5 -48t-65.5 -57t-72 -43.5t-73.5 -5.5q-37 11 -82 4q21 -8 35 -19q54 -36 90.5 -38.5t80.5 25.5q10 7 16 6t6 -9l1 -15q3 -50 -23.5 -108.5t-76.5 -108.5q-36 -36 -79 -57
q-32 -15 -66 -16t-63.5 8.5t-61 24t-57.5 29.5t-55.5 27.5t-52.5 14.5q19 -17 46.5 -57t44.5 -58l12 -11q10 -9 -5 -31.5t-35 -40.5l-20 -18q-20 -8 -28.5 -11t-18 -9.5t-12.5 -10t-16.5 -18t-27.5 -28.5q-13 -13 -25 -21q-19 -11 -42 -12t-44.5 6t-47.5 20t-47.5 27
t-48.5 29t-47 23q-27 12 -53.5 14.5t-57.5 -0.5t-37 -3q-25 0 -90 -28q96 16 130 4q5 -1 24 -6.5t33 -10.5t35 -15t38 -23q24 -16 75 -56t78.5 -57.5t40.5 -15.5l22 5q24 5 12 -21q-8 -16 -23 -35l-16 -20q-21 -28 -43 -50.5t-40 -36.5t-40 -24.5t-35 -15.5t-35.5 -8t-32 -4
t-32.5 -2q64 -16 95 -50l11 -11q9 -9 -6 -31.5t-35 -40.5l-20 -18q-18 -6 -34.5 -13t-27 -12.5t-27 -18t-24 -18.5t-29 -23.5t-32.5 -26.5q-36 -29 -74.5 -47.5t-68 -26.5t-70 -8.5t-63.5 2t-66 7.5q-14 2 -22 3q40 -21 85 -51q216 -138 419 -63q30 11 80 43.5t91 59.5
t97 43.5t105 4.5q63 -14 97 -55.5t25 -99.5q-5 -43 -41 -91q-19 -25 -44 -49q-27 -23 -62 -40q31 -8 57 -23q50 -27 91.5 -29t74.5 13.5t75 51.5q2 2 21 18.5t30.5 25.5t35 27.5t41 29t41.5 23.5t43 16.5t39 3.5t36.5 -11t28.5 -31q28 -46 -33 -118q-16 -18 -23 -24
q-18 -17 -38.5 -30t-41 -24.5t-26.5 -15.5q-3 -5 -14 -21.5t-17.5 -26t-18.5 -25t-25 -29.5q60 -5 118 39q37 29 68.5 47t68.5 29t71 -0.5t61 -47.5q9 -11 17.5 -24t10.5 -16.5t8 -8t11 -5t16 -1.5q16 -1 0 -33q-3 -7 -9 -15z" />
</svg>