<svg xmlns="http://www.w3.org/2000/svg" xmlns:xlink="http://www.w3.org/1999/xlink" version="1.1" viewBox="-10 0 2058 2048">
   <path fill="currentColor"
d="M1581 1413l110 -33q0 -5 7.5 -28.5t14.5 -73t7 -117.5q0 -196 -100.5 -327t-255.5 -131l-60 154q93 49 153 137t88 192q32 111 36 227zM996 0l89 630h27l18 -269q28 -45 75 -79q97 -78 227 -78q240 0 360 110q55 52 73 107l-419 -78q-62 62 -117 159l35 -11
q25 -10 79 -10q115 0 216.5 43.5t177 121.5t119 193t43.5 250q0 191 -54 350.5t-146.5 270.5t-217.5 188.5t-266 113.5t-292 36q-222 0 -406.5 -73t-308 -199t-191.5 -296.5t-68 -365.5q0 -141 43.5 -262t118.5 -204t177 -130t217 -47q29 0 86 5q-144 -154 -264 -154
l-291 79q12 -57 59 -105q107 -107 337 -107q68 0 126.5 15.5t102.5 43t72.5 52t56.5 56.5l-97 -321z" />
</svg>