<svg xmlns="http://www.w3.org/2000/svg" xmlns:xlink="http://www.w3.org/1999/xlink" version="1.1" viewBox="-10 0 2058 2048">
   <path fill="currentColor"
d="M1768 923q89 0 137 36t48 91q0 51 -30.5 86.5t-73.5 54.5t-86 34.5t-73.5 37.5t-30.5 52q0 27 29.5 79.5t29.5 89.5q0 72 -69 109t-172 37q-94 0 -152 27.5t-58 73.5q0 21 13 64.5t13 70.5q0 80 -50.5 131t-139.5 51q-131 0 -263 -68t-241 -179.5t-204 -257t-160 -300
t-102.5 -308t-37.5 -280.5q0 -144 38 -268.5t101.5 -208t146.5 -131t172 -47.5q246 0 407 343q63 136 139.5 239.5t153.5 167.5t166.5 103.5t172.5 54.5t176 15zM368 878q46 0 77.5 -55.5t31.5 -138.5q0 -84 -32 -142t-77 -58t-74 57.5t-29 142.5q0 84 29 139t74 55z
M756 762q47 0 79 -47t32 -115t-32.5 -115.5t-78.5 -47.5q-47 0 -79.5 47.5t-32.5 115.5t32.5 115t79.5 47z" />
</svg>