<svg xmlns="http://www.w3.org/2000/svg" xmlns:xlink="http://www.w3.org/1999/xlink" version="1.1" viewBox="-10 0 2058 2048">
   <path fill="currentColor"
d="M683 2048q-177 0 -177 -180v-880q0 -194 154 -194v-390q0 -174 108 -294q102 -110 255 -110q155 0 257 110q107 119 107 294v390q155 0 155 194v880q0 180 -180 180h-679zM1023 165q-85 0 -138 66q-50 62 -50 173v390h377v-390q0 -109 -52 -173q-53 -66 -137 -66z
M1095 1746v-413q85 -43 85 -142q0 -68 -44 -112q-47 -47 -113 -47q-65 0 -112 47q-46 46 -46 112q0 99 85 142v413h145z" />
</svg>