<svg xmlns="http://www.w3.org/2000/svg" xmlns:xlink="http://www.w3.org/1999/xlink" version="1.1" viewBox="-10 0 2170 2048">
   <path fill="currentColor"
d="M404 1231q17 9 61 34t65.5 36.5t60.5 32.5t62.5 32t52 23.5t49 17.5t34.5 5q4 0 38 3.5t63 0.5t59 -16q23 -9 54 -25t55.5 -30t53 -27.5t49.5 -20.5t40.5 -6t31.5 13q9 9 23.5 24t20.5 20.5t17 15.5t20 15t23 12t31 14l-12 12q-18 18 -37.5 46t-32.5 48t-38 38t-58 25
q-80 17 -189 -21q63 45 148.5 64.5t165.5 18.5q32 0 72.5 -16t75 -36t77.5 -37.5t78.5 -20.5t77.5 13q50 23 90 79.5t37 124.5l-1 16q-39 -26 -71 -32t-60.5 4t-68.5 37q-24 17 -53.5 26t-68 17t-58.5 13q27 6 62 17t60 20.5t59 18t59.5 8.5t59.5 -8q31 -9 65.5 6t67 43
t65 57t71.5 50.5t75 21.5h64v-2055h-64q-12 1 -19 2t-13.5 6.5t-9.5 9.5t-12.5 18t-17.5 25q-22 29 -49 42t-51.5 12t-54 -13.5t-51.5 -27t-51 -36.5q-117 -90 -228 -23q20 -1 36 1.5t31 11.5t24.5 15.5t23.5 24t20.5 26.5t23.5 34t24 36q11 15 60.5 44t66.5 44q39 35 17 71
q-12 20 -27.5 30.5t-34.5 11t-37 -2.5t-40.5 -15t-39.5 -22t-39 -27t-34 -27t-30 -26t-22 -19q-53 -45 -95 -65.5t-88 -18t-100 31.5q-49 27 -96 28.5t-83.5 -14t-83.5 -48.5q22 25 45 44t50.5 34.5t47.5 24.5t57 24.5t58 24.5q85 39 96 111q8 51 -26 93.5t-97 56.5
q-50 12 -104.5 -4.5t-95 -44t-94 -61.5t-92.5 -49q-220 -82 -454 67q-48 31 -82.5 50.5t-78 36t-79 19.5t-76.5 -6t-81 -35q44 48 96 71.5t103.5 26t106 -3.5t110 -13t108.5 -7.5t109 17.5t104 57q7 6 33 27.5t33.5 27.5t29 21.5t34 22t32.5 16t40 15.5l-12 12
q-17 19 -45.5 33t-51.5 19t-57 11.5t-47 9.5q-49 14 -111 -1q60 35 107.5 53t103.5 21q17 1 48 2.5t46.5 2.5t41 4.5t42.5 10.5t38 18.5t40.5 30.5t38.5 44l16 21l-23 -4q-20 -4 -51 15t-84.5 62.5t-77.5 59.5q-23 17 -47.5 28t-55.5 20t-32 9q-71 26 -362 -58z" />
</svg>