<svg xmlns="http://www.w3.org/2000/svg" xmlns:xlink="http://www.w3.org/1999/xlink" version="1.1" viewBox="-10 0 2058 2048">
   <path fill="currentColor"
d="M1071 67v186h186v-186h-186zM1053 31h222q8 0 13 5.5t5 12.5v222q0 8 -5.5 13t-12.5 5h-222q-7 0 -12.5 -5.5t-5.5 -12.5v-222q0 -8 6 -13t12 -5zM1071 67v186h186v-186h-186zM1053 31h222q8 0 13 5.5t5 12.5v222q0 8 -5.5 13t-12.5 5h-222q-7 0 -12.5 -5.5t-5.5 -12.5
v-222q0 -8 6 -13t12 -5zM1071 67v186h186v-186h-186zM1053 31h222q8 0 13 5.5t5 12.5v222q0 8 -5.5 13t-12.5 5h-222q-7 0 -12.5 -5.5t-5.5 -12.5v-222q0 -8 6 -13t12 -5zM731 59v202h201v-202h-201zM721 39h221q5 0 7.5 3.5t2.5 6.5v222q0 4 -3 7t-7 3h-221q-4 0 -7 -3.5
t-3 -6.5v-222q0 -4 3.5 -7t6.5 -3zM731 59v202h201v-202h-201zM721 39h221q5 0 7.5 3.5t2.5 6.5v222q0 4 -3 7t-7 3h-221q-4 0 -7 -3.5t-3 -6.5v-222q0 -4 3.5 -7t6.5 -3zM731 59v202h201v-202h-201zM721 39h221q5 0 7.5 3.5t2.5 6.5v222q0 4 -3 7t-7 3h-221q-4 0 -7 -3.5
t-3 -6.5v-222q0 -4 3.5 -7t6.5 -3zM398 49h221v222h-221v-222zM398 49h221v222h-221v-222zM398 49h221v222h-221v-222zM61 49h221v222h-221v-222zM61 49h221v222h-221v-222zM61 49h221v222h-221v-222zM1388 670v174h174v-174h-174zM1364 622h222q10 0 16.5 8t6.5 16v222
q0 11 -7 17.5t-16 6.5h-222q-9 0 -16.5 -8t-7.5 -16v-222q0 -10 8 -17t16 -7zM1388 1795v174h174v-174h-174zM1364 1747h222q10 0 16.5 8t6.5 16v222q0 11 -7 17.5t-16 6.5h-222q-9 0 -16.5 -8t-7.5 -16v-222q0 -10 8 -17t16 -7zM1068 366v202h201v-202h-201zM1058 346h221
q5 0 7.5 3.5t2.5 6.5v222q0 4 -3 7t-7 3h-221q-4 0 -7 -3.5t-3 -6.5v-222q0 -4 3.5 -7t6.5 -3zM1088 1231v162h161v-162h-161zM1058 1171h221q13 0 21.5 9.5t8.5 20.5v222q0 13 -9.5 21.5t-20.5 8.5h-221q-12 0 -21 -9.5t-9 -20.5v-222q0 -13 10 -21.5t20 -8.5zM721 356h221
v222h-221v-222zM731 656v202h201v-202h-201zM721 636h221q5 0 7.5 3.5t2.5 6.5v222q0 4 -3 7t-7 3h-221q-4 0 -7 -3.5t-3 -6.5v-222q0 -4 3.5 -7t6.5 -3zM721 920h221v222h-221v-222zM741 1502v183h181v-183h-181zM721 1462h221q9 0 14.5 6.5t5.5 13.5v223q0 9 -6 14.5
t-14 5.5h-221q-8 0 -14 -6.5t-6 -13.5v-223q0 -9 6.5 -14.5t13.5 -5.5zM398 356h221v222h-221v-222zM398 646h221v222h-221v-222zM398 1201h221v222h-221v-222zM398 1482h221v223h-221v-223zM398 1771h221v222h-221v-222zM61 356h221v222h-221v-222zM61 646h221v222h-221
v-222zM61 920h221v222h-221v-222zM61 1201h221v222h-221v-222zM61 1482h221v223h-221v-223zM61 1771h221v222h-221v-222z" />
</svg>