<svg xmlns="http://www.w3.org/2000/svg" xmlns:xlink="http://www.w3.org/1999/xlink" version="1.1" viewBox="-112 0 2169 2048">
   <path fill="currentColor"
d="M1644 1231q-17 9 -61 34t-65.5 36.5t-60.5 32.5t-62.5 32t-52 23.5t-49 17.5t-34.5 5q-4 0 -38 3.5t-63.5 0.5t-59.5 -16q-23 -9 -54 -25t-55.5 -30t-53 -27.5t-49.5 -20.5t-40.5 -6t-31.5 13q-9 9 -27 28t-24 24t-20 16t-28 18t-35 15l11 12q18 18 37.5 46t32.5 48
t38.5 38t58.5 25q80 17 189 -21q-63 45 -148.5 64.5t-165.5 18.5q-32 0 -73 -16t-75.5 -36t-77.5 -37.5t-78.5 -20.5t-77.5 13q-50 23 -89.5 79.5t-36.5 124.5v16q39 -26 71 -32t61 4t69 37q24 17 53.5 26t68 17t58.5 13q-27 6 -62 17t-60 20.5t-59 18t-59.5 8.5t-59.5 -8
q-31 -9 -65 6t-66.5 42.5t-65 57t-71.5 51t-76 21.5h-64v-2055h64q12 1 19 2t13.5 6.5t9.5 9.5t12.5 18t17.5 25q22 29 49 42t51.5 12t54 -13.5t51.5 -27t51 -36.5q117 -90 228 -23q-20 -1 -36 1.5t-31 11.5t-24.5 15.5t-23.5 24t-20.5 26.5t-23.5 34t-24 36
q-11 15 -60.5 44t-66.5 44q-39 35 -17 71q12 20 27.5 30.5t34.5 11t37 -2.5t40.5 -15t39.5 -22t39 -27t34 -27t30 -26t22 -19q53 -45 95 -65.5t88 -18t100 31.5q49 27 96 28.5t83 -14t83 -48.5q-22 25 -44.5 44t-50.5 34.5t-47 24.5t-57 24.5t-58 24.5q-85 39 -96 111
q-8 51 26 93.5t97 56.5q50 12 104.5 -4.5t95 -44t94 -61.5t92.5 -49q220 -82 454 67q48 31 82.5 50.5t77.5 36t78.5 19.5t76.5 -6t81 -35q-44 48 -96 71.5t-103.5 26t-105.5 -3.5t-109.5 -13t-108.5 -7.5t-109 17.5t-104 57q-7 6 -33 27.5t-33.5 27.5t-29 21.5t-34 22
t-32.5 16t-40 15.5l12 12q17 19 45.5 33t51 19t57 11.5t46.5 9.5q50 14 112 -1q-60 35 -107.5 53t-103.5 21q-17 1 -48 2.5t-46.5 2.5t-41 4.5t-42.5 10.5t-38 18.5t-40.5 30.5t-38.5 44l-17 21l24 -4q20 -4 51 15t84.5 62.5t77.5 59.5q23 17 47.5 28t55.5 20t32 9
q71 26 362 -58z" />
</svg>