<svg xmlns="http://www.w3.org/2000/svg" xmlns:xlink="http://www.w3.org/1999/xlink" version="1.1" viewBox="-10 0 2058 2048">
   <path fill="currentColor"
d="M1154 405h295v-109h-295v109zM1146 223h323q18 0 29.5 13t11.5 28v519q0 18 -13 29.5t-28 11.5h-323q-18 0 -30 -13t-12 -28v-519q0 -18 13.5 -29.5t28.5 -11.5zM1154 1347h295v-109h-295v109zM1104 1710v-513q0 -18 13.5 -30t28.5 -12h320q18 0 29.5 13.5t11.5 28.5v513
q0 18 -13 29.5t-28 11.5h-320q-18 0 -30 -13t-12 -28zM0 2048v-2048h1149v2048h-1149z" />
</svg>