<svg xmlns="http://www.w3.org/2000/svg" xmlns:xlink="http://www.w3.org/1999/xlink" version="1.1" viewBox="-10 0 2170 2048">
   <path fill="currentColor"
d="M2148 2054q0 4 -6 4q-94 0 -122 -5q-14 -2 -52 -11.5t-51 -12.5q-14 -2 -29 -2h-15q-52 0 -78 -8q-13 -3 -30.5 -9.5t-28.5 -9t-27 -2.5h-9q-15 1 -29 1q-7 0 -25 -4q-8 -1 -33 -3t-46 -3l-21 -2h-1q-10 0 -16 -5.5t-6 -12.5q0 -6 5.5 -11t14.5 -6q11 -1 31 -1h38
q18 0 23 -2q3 0 17.5 -8t33.5 -13q14 -2 37 -8t34 -8q7 -1 15 -2l12 -1.5t8 -1.5t6 -4q8 -8 38 -8q3 0 7.5 0.5t5.5 0.5q2 0 5 -0.5l3 -0.5q35 -4 35 -12v-1q0 -6 -36 -13t-71 -7q-26 0 -49.5 -6t-28.5 -7q-79 -6 -96 -11q-6 -1 -20 -7.5t-22 -6.5q-1 0 -3 0.5t-3 0.5
q-14 2 -32 2q-41 0 -45 -12q-1 -2 -1 -6q0 -5 3.5 -10.5t7.5 -9t4 -4.5q-8 -5 -45 -5q-27 0 -83 -7q-6 0 -26 -1t-50 -1.5t-52 -2.5h-15h-26q-39 0 -56 -3q-16 -2 -40 -3t-33 -3l-21 -0.5t-34.5 -4.5t-13.5 -14q0 -4 1.5 -7.5t5 -5.5t7 -3.5t10.5 -3t12 -2t15 -2t16 -2.5
q21 -3 33 -3q8 0 17 1t11 1q3 0 11 -2q40 -15 62 -15h10q28 4 41 4t19 -3q20 -11 68 -11q10 0 18.5 2t9.5 2q7 0 13 -4q14 -7 61 -8.5t54 -3.5q2 0 18.5 -6t31 -8.5t35.5 -2.5h10q48 2 66 2q40 0 55 -5q10 -3 20 -4.5t13.5 -2t3.5 -3.5v-2l-1.5 -3t-1.5 -2.5t-2 -1.5
t-2.5 -1t-5 -1h-6.5t-9 -0.5t-12 -1.5q-17 -1 -60.5 -3.5t-52.5 -3.5q-31 -3 -49 -12q-10 -4 -38.5 -11t-39.5 -7q-9 0 -34 -5t-30 -5h-1q-2 1 -9.5 3t-16.5 3.5t-17 1.5q-12 0 -20 -4q-8 -3 -16.5 -4t-19 -1.5t-16 -1t-31 -3t-36.5 -4.5q-9 -1 -21.5 -9.5t-12.5 -15.5
q0 -8 22 -11q12 -1 45 -7t52 -8h11q11 0 23.5 1t17.5 1h12q52 -7 58 -7h9h9q11 0 43 -1.5t46 -1.5q13 0 25.5 -1.5t26 -5t15.5 -4.5q4 0 14 -1.5t18 -3.5t16 -6q9 -3 26.5 -7t28 -8t10.5 -9q0 -2 -3 -5q-14 -14 -58.5 -31t-72.5 -17q-24 0 -44 -10.5t-27 -11.5
q-13 -1 -68 -5.5t-63 -5.5l-117 -6.5t-139 -11.5q-46 -9 -79 -11h-10q-10 0 -23 1.5t-20 1.5q-10 0 -27 -3q-96 -16 -108 -16q-14 0 -21.5 -5t-12.5 -5q-4 0 -21.5 4.5t-34.5 4.5q-1 0 -6 -0.5t-8 -0.5q-10 0 -49 -2t-69.5 -4.5t-42.5 -6.5q-9 -3 -22 -3q-8 0 -26.5 1.5
t-25.5 1.5q-6 0 -12 -2h-5q-2 0 -13.5 1t-22.5 1q-16 0 -27 -1q-84 -10 -166 -17q-53 -5 -79 -5q-3 0 -8.5 0.5t-8.5 0.5h-8q-16 0 -38.5 -4t-30.5 -4h-37q-59 0 -64 -15q-1 -4 -1 -11q0 -19 49 -21h41h79q41 0 51 -1q9 0 29.5 -3.5t39 -6t32.5 -2.5h8q14 1 41 5t35 4
q2 0 4.5 -0.5l2.5 -0.5q70 -11 94 -11q10 0 41.5 1t41.5 1q9 0 25.5 2.5t22.5 2.5q9 0 16 -3q52 -25 111 -25q5 0 13 0.5t11 0.5q12 0 18 -3q14 -6 20 -8.5t21 -4t43 -1.5q30 0 61.5 -5t43.5 -5h7q10 1 27 2.5t24 1.5q14 0 24 -5q12 -6 46 -6q11 0 31 0.5t28 0.5q18 0 23 -2
q12 -4 23.5 -5t25.5 -1.5t23 -1.5q10 0 16.5 -0.5t9 -0.5t7 -1t11.5 -3q5 -1 14.5 -5.5t19.5 -4.5q3 0 21 2q9 2 22 2q8 0 19 -2t17 -2h6q2 0 13.5 0.5t20.5 0.5q103 0 137 -4q5 -1 16 -1q7 0 18.5 1t15.5 1q12 0 20 -5q3 -1 8 -7q-6 -3 -43 -7q-116 -10 -147 -20
q-13 -4 -63 -12.5t-62 -11.5q-7 -1 -32 -10.5t-46 -9.5q-1 0 -4.5 0.5t-6.5 0.5h-16q-18 0 -37.5 -4.5t-28.5 -5.5h-14h-19.5t-17.5 -1.5t-14.5 -4.5t-5.5 -8q0 -3 1 -5q5 -13 21 -17.5t55 -6.5q30 -1 59.5 -7.5t30.5 -7.5q5 -1 16 -1q7 0 23.5 1t26.5 1q14 0 22 -1
q79 -5 88 -8q2 0 24.5 -5.5t39 -8.5t26.5 -3q2 0 5 0.5l3 0.5q1 0 5 0.5t6 0.5q47 0 75 -4q5 0 10 -5q-3 -3 -18 -6t-51 -3q-8 0 -25.5 0.5t-25.5 0.5q-31 0 -45 -4q-27 -9 -81 -13q-22 -1 -48.5 -6t-26.5 -13q0 -2 6 -7q13 -7 48.5 -14.5t55.5 -7.5h25q34 0 52 -5
q10 -3 36 -3h31q22 0 33 -2q37 -5 51.5 -9.5t18 -8t9 -16t15 -25t19 -21.5t13 -13t3.5 -8q0 -6 -10 -22q-7 -11 -22.5 -21.5t-28.5 -15.5t-31 -11.5t-22 -8.5q-8 -3 -42.5 -7.5t-45.5 -9.5q-7 -3 -48 -6.5t-51 -5.5q-3 -1 -8.5 -1t-19 1.5t-20.5 1.5q-14 0 -23 -5
q-18 -10 -39 -10q-13 0 -30 6q-10 3 -25 3q-30 0 -118 -22q-11 -2 -37 -5.5t-55.5 -6.5t-36.5 -4q-2 0 -13.5 -0.5t-23 -1.5t-24 -3.5t-20.5 -6.5t-8 -11q0 -2 2 -6q10 -16 28.5 -21t47.5 -5q10 0 23 1t18 1q18 0 39 -8q39 -15 113 -15q17 0 29 2q3 1 6 1q4 0 10.5 -4.5
t17.5 -6.5q69 -7 81 -12q11 -3 18 -3q8 0 18.5 3t12.5 3q3 0 7 -4q11 -11 46 -21.5t55 -10.5h4h4q9 0 22 -1.5t29.5 -4.5t23.5 -4q152 -19 163 -19q20 0 38 -5.5t18 -14.5t-21 -19q-25 -12 -64 -16.5t-70 -4.5t-37 -3q-4 -1 -31.5 -3t-64 -4t-48.5 -4q-13 -1 -47.5 -10.5
t-48.5 -9.5q-10 0 -14 2q-26 11 -74 11q-34 0 -46 -9q-1 -1 -4 -1t-15 5t-21 5q-7 0 -19 -5q-7 -3 -23 -6t-29.5 -4t-30 -2.5t-20.5 -2.5q-9 -1 -26 -7.5t-26 -6.5q-1 0 -2.5 0.5t-2.5 0.5q-16 3 -74 3q-76 0 -115 -10q-22 -6 -49 -6q-7 0 -19.5 0.5t-18.5 0.5q-10 0 -15 -1
q-2 0 -28.5 -1.5t-42 -5t-22.5 -11.5q-5 -5 -5 -14t7.5 -17t18.5 -8q5 0 8 1q12 3 20 3q14 0 35 -8q38 -13 81 -13q18 0 30 -3t22 -3q11 0 18.5 3.5t11.5 3.5q10 0 23 -5q60 -20 113 -20q46 0 96 -5q8 -1 27 -8.5t43 -7.5h8q20 1 34 3.5l14 2.5q5 0 17 -7q6 -3 11 -8
t8.5 -6.5t13.5 -1.5q2 0 36 2q29 3 53.5 8.5t28.5 5.5q7 0 15 -5q16 -9 63.5 -16.5t82.5 -7.5q4 0 9.5 0.5t6.5 0.5q12 2 27.5 5t21.5 3q3 0 11 -2q37 -8 72 -8q7 0 64 -11.5t64 -11.5t23.5 -4t20.5 -8q-1 -1 -8 -3q-16 -4 -36 -4q-8 0 -22.5 1t-19.5 1q-8 0 -11 -1
t-68.5 -2.5t-79.5 -5.5t-49.5 -9.5t-51.5 -5.5q-7 0 -17.5 1.5t-19.5 1.5q-12 0 -20 -1q-11 -1 -18.5 -3.5t-10 -5.5t-4.5 -5t-4 -3h-5h-11q-57 0 -57 -18t52 -18h4q2 0 4.5 -0.5l2.5 -0.5q13 -7 69 -17q21 -3 34.5 -8t29.5 -9q14 -2 18 -2q9 0 17 2.5t11 2.5l10 -2
q17 -4 59 -6.5t48 -5.5q10 -3 25 -3.5t29.5 -6t38.5 -10.5t47 -14q28 -9 98 -7.5t80 -1.5q14 -4 28.5 -5t22.5 0h8q2 0 3.5 2t1.5 3z" />
</svg>