<svg xmlns="http://www.w3.org/2000/svg" xmlns:xlink="http://www.w3.org/1999/xlink" version="1.1" viewBox="-10 0 2067 2048">
   <path fill="currentColor"
d="M2047 1023q0 109 -34 187t-82 79l-2 1q-15 0 -29 -8h5q-50 -34 -75 -127.5t-9.5 -204t73.5 -181.5q16 -12 35 -12q49 0 83.5 78t34.5 188zM1890 1281l-94 165q3 26 3 53q0 109 -34 187t-82 79h-2q-11 0 -25 -7h-1q-50 -37 -74 -133.5t-6 -208.5t81 -181l-135 -4
q-65 63 -86 171t3.5 207.5t80.5 146.5l101 2l-123 218l-546 -945l543 -945l119 204l-98 -2q-65 63 -86 171t3.5 207t81.5 146l138 3q-49 -34 -74 -125t-11.5 -200t68.5 -181q22 -19 44 -19q49 0 83 78t34 188q0 15 -2 43l93 158l-118 -3q-65 63 -86 171t3.5 207t80.5 146z
M1383 1293q-51 -36 -76 -132.5t-7 -209.5t81 -182l-134 -3q-65 63 -86 171t3.5 207t80.5 146zM1322 57l-522 880h-793l496 -885zM1341 1996h-845l-496 -885h793z" />
</svg>