<svg xmlns="http://www.w3.org/2000/svg" xmlns:xlink="http://www.w3.org/1999/xlink" version="1.1" viewBox="-10 0 2058 2048">
   <path fill="currentColor"
d="M762 2048h-154q4 -12 7 -31.5t5.5 -33t7.5 -17.5q24 -10 40.5 -24.5t23.5 -28.5t10 -35t2 -36t-2.5 -40.5t-1.5 -40.5v-635q-36 -7 -96 -12t-104 -13t-76 -26q-111 -71 -170.5 -171t-61.5 -214t48 -239q52 -121 -72 -134q-20 0 -82 -20v-21q30 -16 86.5 -51.5t87.5 -50.5
q7 -4 38.5 -6.5t43.5 -13.5q44 -22 71.5 -33.5t54.5 -15t44 2t37 24t37 44.5t42 70q37 79 33.5 148.5t-43.5 148.5q-10 17 -16 27.5t-13.5 27.5t-8 29.5t2 26t14 24.5t31.5 18q22 -30 60.5 -85.5t61 -87t60 -82t63.5 -82.5t65.5 -75.5t72 -73t75.5 -64t84.5 -59t91.5 -47.5
t103 -40h72q17 25 78.5 91.5t85.5 113.5q52 85 149.5 273t157.5 280q40 60 51 151t-11 175t-71 124v-358h-41q-32 47 -45 105.5t-10.5 104t8.5 117.5t6 113q0 129 -5 382.5t-5 375.5h-72q0 -11 -2.5 -27t-2.5 -28.5t5 -26.5q61 -472 -112 -942q-127 113 -143 307
q-5 43 -17.5 95t-23.5 87t-31 95q-7 18 -22.5 47t-24 48.5t-13 44t8 48.5t41.5 47q4 10 1.5 22t-7.5 41t-5 50q-16 -20 -33.5 -43t-28 -37t-19.5 -23v31q-36 10 -113 25.5t-113 25.5q0 -5 -5 -20.5t-5 -20.5q42 -21 62 -41q76 -46 83.5 -93t-53.5 -101q-201 -154 -112 -379
q9 -18 11.5 -42t3.5 -62.5t5 -69.5q-21 12 -50.5 27t-45.5 23.5t-30 19.5t-17 22q-19 72 -35.5 162t-25 147t-21.5 162q-14 63 -24.5 127.5t-20 137t-16.5 114.5zM1232 1659q106 -137 122.5 -282t-60.5 -251q-135 273 -184 379z" />
</svg>