<svg xmlns="http://www.w3.org/2000/svg" xmlns:xlink="http://www.w3.org/1999/xlink" version="1.1" viewBox="-10 0 2068 2048">
   <path fill="currentColor"
d="M1024.5 234q166.5 0 323 34.5t282 98t220 148t146.5 189t52 216.5q0 143 -82 269.5t-230 222.5l238 401h-396l-140 -265q-121 36 -244 49v217h-348v-218q-178 -21 -334.5 -82.5t-269 -150t-177.5 -203.5t-65 -240q0 -112 52 -216.5t146.5 -189t220.5 -148t282.5 -98
t323 -34.5zM1182 502q-159 0 -303 37t-248.5 99.5t-166.5 149.5t-62 182q0 138 122 251.5t322 171.5v-734h702q6 0 17.5 1t44.5 7.5t63 17.5t67 34.5t63 54.5t44.5 82t18.5 113q0 49 -10.5 91.5t-28 73t-40.5 56t-48.5 42t-50.5 29t-48 19t-40.5 11t-27.5 5.5l-10 1h-2
q63 18 98 36q12 7 22 14q120 -59 184 -153t64 -223q0 -96 -36.5 -174t-102 -132.5t-159 -91t-206 -54t-242.5 -17.5zM1198 910v1v194h212q3 0 10 -0.5t23.5 -5.5t29.5 -14.5t23 -30t10 -48.5q0 -29 -9.5 -49t-24 -29t-29 -13.5t-24.5 -4.5h-9h-212zM1194 1361v79
q98 0 178 -10q-31 -44 -38 -49q-14 -12 -23 -16t-23 -4h-94z" />
</svg>