<svg xmlns="http://www.w3.org/2000/svg" xmlns:xlink="http://www.w3.org/1999/xlink" version="1.1" viewBox="-10 0 2058 2048">
   <path fill="currentColor"
d="M1868 597q56 55 68 139t-22 174t-106 164q-56 58 -124.5 92.5t-138.5 42.5q0 1 -0.5 3.5t-0.5 3.5q-9 41 -50.5 100t-106.5 125.5t-147 138t-175.5 139t-190 128.5t-192.5 105.5t-180 71t-155.5 25t-117.5 -33.5q-66 -48 -95.5 -164.5t-24 -262.5t36.5 -312t79 -312.5
t109.5 -262.5t121.5 -164q-14 -117 30 -241q37 -102 101 -176.5t140 -104t144 -4.5q67 24 107 93.5t43 161.5t-29 197q84 18 155 46t110 57q61 43 120 121q12 -14 17 -19q111 -114 249.5 -135t224.5 64z" />
</svg>