<svg xmlns="http://www.w3.org/2000/svg" xmlns:xlink="http://www.w3.org/1999/xlink" version="1.1" viewBox="-11 0 2069 2048">
   <path fill="currentColor"
d="M2048 753v33q-6 6 -12 17t-11 17q-17 23 -57 68t-57 68q-67 67 -67 136q0 5 -3 8t-9.5 7t-10.5 8q-360 85 -713 101q-119 0 -177 -1t-156.5 -8.5t-176.5 -23.5q-63 -12 -182 -34.5t-181 -33.5q-5 0 -11 -3t-9 -6l-3 -3q0 -89 -79 -147q-17 -17 -51 -45.5t-51 -45.5
q-43 -51 -27 -103.5t83 -77.5q17 -7 110 -41t140 -61q60 -30 128.5 -70t150.5 -90.5t129 -77.5q71 -54 135 -87t137 -49h33q116 30 261 114q107 54 193 124q25 14 84.5 46t91.5 49t81.5 41.5t94 43.5t90.5 35q44 9 69 30t33 62zM1039 616q-102 0 -193 91q-11 12 -11 23
q16 134 102 238q5 11 15 20t18 13.5t24 11.5q79 32 136 -45q85 -104 102 -238q0 -8 -1.5 -11.5t-9.5 -11.5q-42 -42 -85 -66.5t-97 -24.5zM1006 1840q-28 -5 -80 -10.5t-80 -11.5q-131 -25 -237 -89.5t-204 -171.5q-104 -121 -170 -250q0 -5 -5.5 -11t-5.5 -11v-11
q810 202 1620 0v22q-171 342 -465 465q-131 67 -294 67h-23q-25 12 -56 12z" />
</svg>