<svg xmlns="http://www.w3.org/2000/svg" xmlns:xlink="http://www.w3.org/1999/xlink" version="1.1" viewBox="-10 0 2067 2048">
   <path fill="currentColor"
d="M1070 139v772q14 -9 32.5 -30.5l18.5 -21.5q7 -7 8.5 -10t1.5 -10v-628q0 -31 31 -31h62q24 0 27.5 3.5t3.5 27.5v514l21 -20l20 -21v-20v-391h114v288q5 0 10 -5t10 -5l114 -113q10 0 10 -21v-155q10 -5 20 -5t22.5 2.5t20 2.5t22.5 -2.5t25 -2.5t14.5 4.5t4.5 14.5
t-2.5 25t-2.5 23v52q0 7 1.5 9.5t8.5 10.5h91q7 0 10.5 0.5t7 5.5t3.5 15v93h-143q-7 0 -8.5 1t-1.5 9q-13 13 -41 38.5t-51 48.5t-42 47q0 10 20 10h246q17 0 19 2t2 18v72q0 9 -0.5 13.5t-3 9t-9 6.5t-18.5 2h-370q-10 0 -20 10l-124 124h545v93q0 14 -6 17t-25 3h-648
q-14 7 -26 20t-25 29t-21 24h21h771q8 0 9.5 1t1.5 9v72q0 23 -3.5 27t-27.5 4h-915q-24 28 -52 62h31h1018h11t6.5 5t3.5 15v102h-1173q-20 0 -31 11l-113 113q0 4 5.5 6.5t10.5 2.5l5 1h1399q16 0 18 2t2 19v196q0 23 -3.5 27t-27.5 4h-1512v20v238h-236q-9 0 -14 -4
t-5.5 -7t-0.5 -10v-237h-21h-206q-15 0 -18 -3t-3 -18v-206q0 -10 4 -15t7.5 -5.5t9.5 -0.5h227h-227h237v-20v-1493q0 -16 2.5 -18t18.5 -2h194q24 0 27.5 3.5t3.5 27.5v1420q10 -5 17.5 -12.5t14.5 -17t9 -11.5q11 -11 27.5 -29.5t29.5 -31t26 -21.5q10 0 10 -20v-1174
q10 -5 22.5 -5t28 2.5t21.5 2.5q8 0 20 -2.5t20 -2.5t12.5 4.5t4.5 12t-2.5 19.5t-2.5 20v999q87 -87 134 -124q5 -5 7.5 -10t2.5 -8v-2v-906h113h51z" />
</svg>