<svg xmlns="http://www.w3.org/2000/svg" xmlns:xlink="http://www.w3.org/1999/xlink" version="1.1" viewBox="-10 0 2058 2048">
   <path fill="currentColor"
d="M1004 1q99 -7 192 29.5t158 110.5q46 50 72 113.5t31.5 134.5t2 133.5t-15.5 136.5q-2 38 -14.5 78t-31.5 86t-28 73q8 23 32 44.5t46.5 35.5t42 38t20.5 52q-14 66 -57 190.5t-47 137.5q14 10 32.5 4.5t44.5 -13.5t50 -14.5t48.5 0.5t38.5 31q33 51 45.5 109.5
t-1.5 117.5q-6 30 -26.5 50t-48 27t-57.5 5.5t-56 -11.5q-30 -22 -62.5 -20t-62 23t-40.5 51q2 13 6.5 37.5t7.5 41t3 38t-5.5 35.5t-20 26t-38.5 16q0 21 -7.5 37t-17 26.5t-27 18t-31 11t-36 5.5t-35 2h-34.5h-9h-26t-30.5 -0.5t-27.5 -1.5t-30.5 -2.5t-26.5 -4.5
t-28.5 -7t-23.5 -9.5t-23 -13.5q-10 -18 -18.5 -49t-15 -57.5t-17 -51.5t-31 -37.5t-52.5 -8.5q-22 -11 -64 -25t-72.5 -24.5t-59.5 -33.5t-39 -55q2 -222 -57 -381q-4 -17 -16 -45t-21 -50t-13 -46t8 -43t41 -32q21 -15 60.5 -35t69.5 -35.5t56.5 -40.5t32.5 -54
q-4 -37 -24 -68.5t-43.5 -51t-50.5 -48.5t-41 -57q-16 -36 -14.5 -79t11.5 -78.5t15.5 -79.5t-2.5 -81q1 -27 14.5 -54t30 -46t37 -44.5t30.5 -46.5q78 -72 182 -115t215 -55zM1028 45q-19 -2 -37.5 0.5t-40 12t-32.5 14.5t-37.5 21t-32.5 19q-66 32 -102 90.5t-19 126.5
q-9 53 -12.5 78t-2 68t12.5 78q-11 33 -24 38t-26 -10.5t-27 -34.5t-32.5 -32.5t-37.5 -7.5q-46 10 -64 49.5t-7 84.5t43 72q3 9 8.5 14.5t13 7.5t14 2.5t16.5 -1.5t15.5 -3.5t15.5 -5.5q13 -4 19 -5t11.5 0t4 8t-8.5 20q-34 89 76 233q29 19 63.5 23t86.5 -2t66 -6
q-13 -16 -38 -40t-42.5 -41t-34 -43t-21.5 -54q9 2 30 29t47.5 59t47.5 43q69 57 164.5 54t160.5 -63q95 -104 136.5 -242.5t22.5 -281.5q-1 -35 -16 -72t-45 -61t-66 -11q-20 -15 -10 -24.5t31.5 -13t32.5 -11.5t-8 -22q-47 -76 -132.5 -115t-182.5 -42zM959 244
q14 -1 27 5.5t17 18.5q-7 9 -27 15.5t-40 11.5t-38.5 19.5t-23.5 36.5q-26 2 -11 -34q17 -40 53 -63q24 -16 43 -10zM1322 373q14 13 28 50q41 34 9 66q-25 25 -57 22q-32 -4 -25 -40q16 4 26 5t15.5 -6t7.5 -14t1.5 -19.5t-1.5 -22t-2.5 -22t-1.5 -19.5zM996 377
q36 26 59 71q26 46 -21 73q-37 22 -71 11q-33 -10 -14 -45q29 10 42.5 6.5t14 -16.5t-2.5 -30.5t-7 -36.5t0 -33zM1157 401l2 1l5 3q7 17 15 32.5t20 32.5t19.5 28t23 30t21.5 26t25.5 29t22.5 26q4 30 -11 53.5t-43 37.5t-55.5 22t-56.5 11q-31 16 -51 -23q-14 -25 -8 -34
q3 -5 12 4q14 15 38.5 20.5t50 0t47.5 -17t31.5 -31t0.5 -41.5q-11 -17 -35.5 -47t-40.5 -50t-27 -51t-6 -62zM1329 743q-12 35 -42 62t-66 33q-43 -29 14 -55q12 -5 40 -16q44 -15 54 -24zM983 774q25 14 65 14.5t76 2.5t56 21q-8 32 -50 33t-86.5 -21t-60.5 -50z
M1173 1171q-30 -2 -43.5 9t-10.5 30t12 37.5t22 37.5q14 7 35 68q14 39 22 39q6 0 13 -22q1 -14 5.5 -43.5t6 -51.5t-1 -46t-17.5 -39t-43 -19zM1291 1194q-11 -1 -16.5 4t-6.5 10.5t-1.5 16.5t-1.5 15q2 12 -10 92q-8 51 3 51q2 0 3 -1q6 -14 24.5 -39.5t32.5 -47
t22.5 -43.5t-3 -37.5t-46.5 -20.5zM1064 1219q-2 2 -19 15.5t-23 19t-17.5 17t-18 22.5t-10.5 23q12 23 43 39t79 30.5t64 21.5q7 -24 -27 -84t-71 -104zM1553 1425q-23 5 -39 10t-37 13t-32.5 18.5t-20.5 25t-7 35t13 44.5q-20 51 49 54q10 1 31 1q31 -1 31 4q0 2 -3 5
q-42 5 -38 12q4 9 42 7q25 -1 36 -10q34 -22 38.5 -67.5t-14.5 -88t-49 -63.5zM1032 1516q-110 2 -230 25q31 256 89 425q140 48 307 8q-10 -72 -16.5 -210t-8.5 -159q9 -34 -2 -55t-34 -27t-51 -8t-54 1zM1263 1743q-26 0 -34 16.5t-2.5 40t7 48.5t-5.5 40q45 41 60 -8
q12 -45 -7 -103q-7 -23 -18 -34z" />
</svg>