<svg xmlns="http://www.w3.org/2000/svg" xmlns:xlink="http://www.w3.org/1999/xlink" version="1.1" viewBox="-10 0 2058 2048">
   <path fill="currentColor"
d="M844 262q67 -19 83 -54q6 -28 4.5 -85.5t3.5 -85.5q5 -13 13.5 -21.5t22 -11.5t22.5 -4t27.5 -0.5t23.5 0.5h33.5t35 1t31 9.5t22.5 26.5q4 19 5 44t0 44.5t0 45.5q1 25 15.5 44t32 28t43.5 21.5t39 22.5q78 37 133 109.5t86 163.5q2 10 10 35t11.5 41.5t5 38t-6.5 37.5
t-26 27q-18 4 -39.5 4.5t-46.5 -0.5t-40 0q-11 -1 -39 0.5t-47 -1.5t-34 -16q-12 -22 -20 -62t-20.5 -73t-40.5 -52q-63 -67 -202 -49q-51 0 -90 33.5t-51 84.5q-17 65 9.5 127.5t84.5 99.5q52 30 157.5 69t149.5 61q56 31 101.5 62.5t89.5 73t74 93t42 109.5
q32 195 -51 307q-45 71 -112 124.5t-146 80.5q-43 6 -72.5 34t-22.5 70q-1 9 0 26t1 29.5t-2.5 26t-10.5 24t-22 17.5q-18 4 -42.5 5t-43.5 0t-43 0q-33 7 -58 -16.5t-19 -57.5q-1 -10 0 -28t1 -31t-2.5 -28t-11 -26.5t-22.5 -18.5q-143 -48 -215 -104q-105 -67 -146 -199
q-2 -12 -11 -45.5t-12.5 -53t1 -46t21.5 -43.5q17 -8 37 -10t46 -0.5t39 0.5q14 1 40.5 -0.5t47 0.5t37.5 10q23 22 42 82.5t40 84.5q34 49 92 71.5t120 15.5q57 2 106.5 -25.5t73.5 -77.5q25 -47 20.5 -98.5t-31.5 -97.5t-73 -74t-114 -53q-121 -43 -210.5 -87t-161.5 -108
q-47 -40 -78.5 -95t-45 -115.5t-9.5 -124t25 -120.5q37 -92 114.5 -160.5t175.5 -105.5z" />
</svg>