<svg xmlns="http://www.w3.org/2000/svg" xmlns:xlink="http://www.w3.org/1999/xlink" version="1.1" viewBox="-10 0 2068 2048">
   <path fill="currentColor"
d="M308 6h716h648q136 0 237.5 83t126.5 212q12 23 12 69v1297q0 139 -86 243t-220 121q-12 0 -35 5.5t-35 5.5h-1284q-171 0 -279.5 -106t-108.5 -269v-1285q0 -145 85 -247.5t223 -128.5zM376 313q-42 0 -61 18.5t-19 61.5q12 205 12 637v648q0 35 18.5 52t61.5 17h1272
q35 0 58.5 -23t23.5 -57v-1274q-9 -43 -29.5 -61.5t-62.5 -18.5h-1274zM1480 618q20 -1 32 17t12 42q-4 9 -10 19t-9 16t-3 11q-37 46 -72 95t-85 121t-71 102q-190 264 -262 353q-43 66 -102 62t-102 -73q-46 -68 -131.5 -194t-130.5 -194q-22 -22 -22 -34q-8 -35 7.5 -57
t50.5 -22q11 6 27.5 11.5t28.5 11.5q39 17 118.5 56.5t119.5 56.5q18 8 22.5 8t13.5 -8q54 -40 157 -117.5t184.5 -137t158.5 -109.5q12 -13 32 -21.5t24 -12.5q10 -2 12 -2z" />
</svg>