<svg xmlns="http://www.w3.org/2000/svg" xmlns:xlink="http://www.w3.org/1999/xlink" version="1.1" viewBox="-10 0 2068 2048">
   <path fill="currentColor"
d="M712 256h68l412 964l310 -696h12l366 844q49 115 90 156q46 24 78 24v32h-500v-32h44q21 0 39.5 -4.5t25.5 -7.5t23 -12q24 -22 24 -34v-32q-13 -24 -24 -56l-78 -122h-366l-10 20l54 124q24 60 49 111.5t47.5 93t27.5 51.5q15 31 45 43.5t75 12.5v56h-722v-56
q98 0 144 -22q34 -17 34 -68q0 -13 -18 -66h-4v-12q-22 -42 -34 -78l-56 -132h-500q-16 46 -39 103.5t-29 74.5q-32 84 -32 122q0 50 68 66q24 12 110 12v56h-446v-56q77 0 134 -78q51 -76 88 -188zM602 756l-200 512h434l-212 -512h-22zM1426 856l-156 356h310z" />
</svg>