<svg xmlns="http://www.w3.org/2000/svg" xmlns:xlink="http://www.w3.org/1999/xlink" version="1.1" viewBox="-10 0 2068 2048">
   <path fill="currentColor"
d="M816 58q56 94 102 198q45 -8 106 -8h2q59 0 104 8q42 -94 102 -198q164 37 274 92q-2 97 -18 226q8 5 45 28t55 38q68 51 94 76q89 -59 182 -106q112 119 184 240q-68 110 -124 180v498v44h-2h-2l-332 32q-13 2 -22.5 11.5t-9.5 22.5l-10 146l-290 20l-20 -134
q-2 -13 -12.5 -22.5t-23.5 -9.5h-350q-14 0 -24.5 9.5t-11.5 22.5l-20 134l-290 -20l-10 -146q-1 -13 -10.5 -23t-21.5 -11l-332 -32h-4v-542q-48 -58 -126 -180q71 -118 184 -240q94 47 182 106q30 -28 94 -76q18 -15 55 -37.5t45 -28.5q-13 -102 -16 -224q114 -58 272 -94
zM554 852q-84 0 -142 58t-58 141.5t58 142t140 58.5q84 0 143 -58.5t59 -141.5t-59 -141.5t-141 -58.5zM1494 852q-83 0 -140.5 58.5t-57.5 141.5q0 84 58.5 142t142 58t141.5 -58t58 -141.5t-58 -142t-142 -58.5h-2zM1454 934q-47 8 -78.5 44.5t-31.5 85.5v4q0 55 39 94.5
t93.5 39.5t94 -39.5t39.5 -94.5v-4q0 -55 -39.5 -94.5t-94.5 -39.5q-3 0 -7 1t-8.5 1.5t-6.5 1.5zM550 936q-46 8 -77.5 44t-32.5 84q0 55 39 94.5t93.5 39.5t93 -39.5t38.5 -94.5q-1 -54 -39.5 -92t-92.5 -38q-8 0 -22 2zM1024.5 968q26.5 0 45 17.5t18.5 42.5v184
q0 23 -18.5 40.5t-45 17.5t-45.5 -17.5t-19 -40.5v-184q0 -25 19 -42.5t45.5 -17.5zM126 1446l298 28l10 148q1 13 10.5 22.5t23.5 9.5l354 26h2q14 0 24 -8.5t12 -21.5l20 -138h288l22 138q1 13 11 21.5t23 8.5h2l354 -26q14 0 23.5 -9.5t10.5 -22.5l10 -148l300 -28v74
q0 92 -46 169t-127.5 132t-194.5 93t-246.5 56.5t-283.5 19.5h-2q-151 -1 -284.5 -19.5t-246.5 -56.5t-194.5 -92.5t-127 -132t-45.5 -169.5v-74z" />
</svg>