<svg xmlns="http://www.w3.org/2000/svg" xmlns:xlink="http://www.w3.org/1999/xlink" version="1.1" viewBox="-10 0 2058 2048">
   <path fill="currentColor"
d="M1329 0q77 2 121.5 5t110 17.5t114.5 40.5q151 65 183 169q11 75 -7 152.5t-60 144.5l-174 157l-13 7q-4 3 -21.5 14t-27 19t-19 19t-7.5 23t16 23q9 10 30 31t33.5 35t27 34t20.5 41t5 42q-7 58 -32.5 112.5t-67 103t-80 84.5t-92.5 79q-39 27 -94.5 73t-96 80t-97.5 67
t-111 48q-31 -2 -41 11q-6 7 4 7q9 0 26 -9q-22 33 -85.5 56t-118.5 22q-196 95 -388 150q-11 25 -28 53.5t-28.5 44t-38.5 49.5t-34 43q-16 -3 -18 -15.5t7 -30t19.5 -35.5t20.5 -37t11 -29q12 -23 1.5 -32t-31.5 3q-2 -14 -14.5 -11.5t-27 11.5t-26.5 9.5t-14 -16.5
l192 -372l175 -380q25 -84 67 -185t80.5 -180t81 -180t67.5 -185q-11 -13 -7.5 -25t11.5 -19t17 -19.5t9 -25.5q-100 36 -208 101q-13 4 -29 16t-29 23t-27 19.5t-28.5 7t-27.5 -16.5q-33 16 -60 46q-6 4 -11 9.5t-12 15t-10.5 13t-8.5 6t-9 -2.5t-7 -18q24 -16 17 -21
q-8 -6 -28 12q-8 8 -14 18q-5 -39 34.5 -68t75.5 -17q-26 -22 9 -29l5 -2q-1 0 -4 -1q0 -14 19 -31t53.5 -38.5t42.5 -27.5q43 -27 4 -26q-14 0 -32 4q27 -31 104 -76t103 -67q236 -101 528 -143zM1156 240q-20 45 -42.5 97t-50.5 114t-43 97q-5 15 -28.5 51.5t-25.5 63.5
q1 15 -9 41t-20 46t-13 42.5t12 31.5q30 5 85 -24.5t75 -34.5q23 -9 67.5 -25t72 -27.5t63.5 -29.5t64.5 -41.5t51.5 -53.5q17 -19 49 -45t57.5 -51.5t40.5 -54.5q17 -4 20 -48q2 -21 6 -21q3 -1 9 6q21 14 37 -21q18 -40 3 -72q-4 -11 -13 -16q-21 -29 -37.5 -22t-8.5 39
q-7 3 -15 -7.5t-15 -24.5t-20 -24.5t-30 -7.5q-27 -5 -56.5 -6.5t-61 1t-55.5 6t-59 9.5q0 -20 -20 -22q-18 -1 -46.5 11t-43.5 23zM1252 939q-52 1 -115 20t-112.5 42t-113 41t-116.5 17q-27 56 -130.5 262.5t-154.5 320.5q34 -8 69.5 -20.5t63.5 -23t67.5 -30t60.5 -30
t65 -35.5t58.5 -33.5t63.5 -38t59 -35.5q47 -26 91.5 -58t112.5 -87t85 -68q17 -10 31 -24t26 -34.5t18 -33.5t16 -39q14 -22 12.5 -39.5t-16.5 -31.5t-34 -23t-39 -13q-23 -6 -68 -6z" />
</svg>