<svg xmlns="http://www.w3.org/2000/svg" xmlns:xlink="http://www.w3.org/1999/xlink" version="1.1" viewBox="-10 0 2068 2048">
   <path fill="currentColor"
d="M580 896q8 0 10 -1t-2 -7q27 0 68 -1q77 -3 90 13t12 115v51q0 39 -14.5 54t-53.5 15q-26 2 -116.5 4.5t-139.5 12.5q-71 19 -108 63t-37 108q0 59 32.5 100t95.5 53q256 53 487 18q112 -25 196 -121q20 -23 39 -50.5t33.5 -50t31 -56.5t26 -54t25.5 -60.5t22 -57t23 -63
t22 -59.5q59 -147 118.5 -262.5t136.5 -215.5q71 -89 175.5 -131.5t242.5 -56.5q24 0 38 12t14 31v77q0 9 0.5 31t0 33.5t-2 28.5t-5.5 29.5t-11 22.5q-8 23 -29.5 31.5t-53 10.5t-45.5 8q-177 58 -264 257q-11 25 -6.5 38.5t15.5 17.5t34 4h43q14 3 43.5 -2t51 -0.5
t32.5 27.5q9 17 14.5 35t5.5 41.5t-1 36t-5 44t-5 39.5q0 12 -5.5 19.5t-16 10.5t-18 3.5t-20.5 0.5q-24 0 -63 2t-71.5 2t-62.5 -4q-52 0 -80.5 21t-46.5 73q-53 159 -153 282q-196 261 -512 273h-341q-297 -13 -418 -256q-63 -130 -47.5 -254t106.5 -241q19 -27 42 -48
t52 -35t52.5 -23.5t61 -16.5t59.5 -10.5t65 -8.5l27 -3q15 -4 34 -4t42.5 2t34.5 2z" />
</svg>