<svg xmlns="http://www.w3.org/2000/svg" xmlns:xlink="http://www.w3.org/1999/xlink" version="1.1" viewBox="-10 0 2068 2048">
   <path fill="currentColor"
d="M0 876v-81q0 -89 32 -163q45 -171 158 -309t271 -220.5t335 -92.5h102q88 0 162 31q168 46 302.5 153.5t216.5 264t93 336.5q0 127 -12 194q-32 160 -100 285q-2 10 -12 10q12 0 12 10l468 469l20 21v29q0 5 -5 15.5t-5 15.5q-20 40 -40 61l-82 82q-7 4 -21.5 14.5
t-22 15.5t-21 11t-27.5 10h-20q-10 0 -30 -21l-458 -458l-12 -10h-10q-221 149 -508 133q-58 0 -144 -21q-177 -46 -320 -162.5t-220 -276.5q-80 -165 -80 -315q-16 -16 -19 -19.5t-3 -11.5zM276 845q0 113 43 216.5t117.5 179.5t178.5 121t221 45q113 0 216 -44t179 -118.5
t120.5 -179t44.5 -220.5q0 -113 -43.5 -216.5t-117.5 -179t-178.5 -120t-220.5 -44.5q-114 0 -217 43.5t-178.5 117.5t-120 178.5t-44.5 220.5z" />
</svg>