<svg xmlns="http://www.w3.org/2000/svg" xmlns:xlink="http://www.w3.org/1999/xlink" version="1.1" viewBox="-10 0 2058 2048">
   <path fill="currentColor"
d="M283 0h819q328 0 545 273v11l-11 -11l-11 -11q-97 -97 -239 -114q-74 -12 -193 11q-78 31 -148 103q-57 73 -137 193q-46 67 -89.5 140.5t-101 178.5t-82.5 148q-105 187 -170 318q-157 290 -216 444v-1638q0 -25 8 -35.5t26 -10.5zM1360 215q42 -1 128 13
q62 21 101 40.5t70 50.5q5 5 11 16.5t12 17.5q62 110 79 250q17 144 -24 277.5t-135 245.5q-67 85 -171 137q-16 8 -18 18t7 27l307 615q7 14 12.5 23t20 21.5t35.5 23.5q8 26 -0.5 41.5t-33.5 15.5h-1319q5 -7 18.5 -26.5t22 -32t20 -31.5t19.5 -35q22 -34 62 -102.5
t63 -102.5q16 -25 50 -81.5t58.5 -94.5t50.5 -74q167 -238 250 -342q87 -103 205 -204q28 -23 84.5 -74t85.5 -74l23 -23q16 -24 18 -57t-7 -57q-7 -14 -24 -46t-31 -60t-24 -53q0 20 23 68q22 68 22 114q0 34 -11 45q-5 16 -15 24t-18.5 9.5t-23.5 1.5q-18 -6 -79 -35
q-61 -51 -96.5 -96.5t-51.5 -107.5q-35 -122 45 -217q16 -23 39.5 -34.5t63.5 -21.5q31 -11 76 -13z" />
</svg>