<svg xmlns="http://www.w3.org/2000/svg" xmlns:xlink="http://www.w3.org/1999/xlink" version="1.1" viewBox="-10 0 2068 2048">
   <path fill="currentColor"
d="M1256 463h320v125h-26l116 142l106 -151l10 -8h-46v-108h276v116h-44q-22 0 -40 6.5t-25 12t-19.5 19.5t-13.5 15l-142 205l214 312q6 13 13 15t49 2h44v108h-320v-99h26l-134 -196l-134 196h46v108h-286v-108h46q44 0 70 -26l28 -26l160 -241l-188 -276
q-6 -14 -13.5 -16t-48.5 -2h-44v-125zM28 472h694l18 205h-108q-13 -59 -37 -74t-105 -15h-36v578h116v117h-392v-117h126v-578h-36q-38 0 -58 1t-39.5 7.5t-27 14.5t-16 29t-11.5 43t-8 65v45h-108zM606 784h624l26 285h-106q-3 -36 -5.5 -55.5t-8.5 -41t-15 -31.5
t-25.5 -19t-39.5 -11.5t-58 -2.5h-144v215h54q47 0 54.5 -10.5t7.5 -70.5v-44h108v364h-108v-44q0 -60 -7.5 -70t-54.5 -10h-54v249h154q86 0 118 -29t32 -104h116l-36 231h-632v-115h88v-571h-88v-115z" />
</svg>