<svg xmlns="http://www.w3.org/2000/svg" xmlns:xlink="http://www.w3.org/1999/xlink" version="1.1" viewBox="-10 0 2068 2048">
   <path fill="currentColor"
d="M1002 32q13 0 21 14q9 12 11 57.5t2 192.5v231q-86 86 -249 188q-3 0 -37 -43.5t-49 -67.5q-48 -78 -69 -148q0 -3 -2.5 -12.5t-2.5 -12t-1.5 -10t-1.5 -11v-10.5t1 -12t3 -12.5t4 -16.5q11 -31 31 -61.5t51.5 -60.5t58.5 -53.5t70.5 -52.5t67.5 -44.5t68 -42.5
q10 -7 15 -10q4 -2 7 -2h1zM599 422q6 0 17 42q14 61 42 109.5t130 189.5q3 4 8 10q119 163 136 195.5t-1 64.5q-2 3 -3 4q-13 24 -34 24.5t-88 -20.5q-305 -95 -318 -115q-7 -12 -2.5 -54.5t16.5 -89.5q17 -56 45 -168t36 -153q10 -39 16 -39zM1533 479q17 0 19 4
q2 8 -35 30q-53 31 -90.5 73t-140.5 184q-3 5 -9 14q-115 160 -140.5 185.5t-60.5 17.5q-4 0 -6 -1q-18 -4 -26.5 -12.5t-12 -30.5t-4.5 -70q-3 -321 12 -340q10 -11 52 -20t89 -11q59 -1 174.5 -9t155.5 -13q7 -1 21 -1h2zM1623 496l-1 -1q40 1 86 17t82.5 36t87 57
t78 59.5t74.5 63.5q9 8 13 11q2 1 2.5 4l0.5 3q4 15 -5 24q-8 12 -51 28.5t-183 61.5l-221 71q-105 -55 -254 -178q0 -4 31 -50.5t48 -66.5q59 -70 119 -110q4 -2 13 -7t12 -6.5t10.5 -5t12 -5t12 -3.5t16 -2.5t17.5 -0.5zM31 787q33 0 232 66l219 71q56 110 102 296
q-1 4 -53.5 22.5t-79.5 24.5q-80 21 -161 19q-2 0 -11 -0.5t-11 -1t-9.5 -1t-10 -1.5t-8.5 -2.5t-10 -3.5t-9.5 -4.5t-11 -6t-12.5 -8.5q-18 -13 -35.5 -33t-30.5 -38.5t-27.5 -49.5t-23.5 -49.5t-21 -57t-17 -54t-16 -59t-13 -52t-13 -52.5q0 -4 2 -8q4 -14 19 -16
q3 -1 10 -1zM1581 938v-1h4q14 6 35.5 43t37.5 82q22 58 65 165.5t59 143.5q7 14 10 26.5t0.5 14t-15 -5.5t-25.5 -19q-47 -42 -98.5 -65t-215.5 -76q-5 -2 -17 -5q-188 -60 -220 -76t-36 -53q0 -3 -1 -5q-3 -26 13.5 -39t82.5 -36q282 -94 321 -94zM889 1158l-1 1
q5 0 9 0.5t7.5 2.5t5.5 3t5.5 4t5 4.5t6 6.5t5.5 6q19 19 13.5 39t-46.5 77q-186 264 -208 268q-13 4 -52.5 -13t-79.5 -44q-47 -32 -145 -94t-135 -83q-33 -18 -32 -27q2 -7 45 -4q64 6 120 -5.5t218 -65.5q17 -5 48 -15q110 -37 151 -49t60 -12zM1099 1226q14 0 30.5 15.5
t48.5 58.5q86 113 139 191.5t52 89.5q-1 15 -29.5 46.5t-66.5 60.5q-45 35 -134 110t-121 104q-11 11 -21.5 17t-13.5 4q-6 -4 10 -44q26 -59 32 -116t5 -227q0 -226 7 -260q5 -27 26 -38q3 -1 15 -7q14 -5 21 -5zM1468 1285l-1 -1q7 0 59 15t76 25q84 34 142 79q3 2 9 7.5
t8 7.5t7 6.5t6.5 7t5.5 7t6 8.5t5 9.5t5.5 12t4.5 13.5q12 37 11.5 84.5t-8 87.5t-26.5 97.5t-31.5 90t-35.5 88.5q-8 19 -12 28q-1 4 -5 5q-10 8 -24 2q-13 -4 -41.5 -39t-116.5 -155l-137 -188q20 -116 92 -298h1zM845 1570v0q72 0 158 5q3 3 4.5 59t-0.5 83
q-8 97 -31 159q-1 3 -6 15t-6.5 14.5t-6.5 11.5t-9.5 13t-11.5 11t-17 13q-31 23 -78 37t-88.5 19.5t-103.5 5t-97 -2.5t-97 -6q-13 -1 -20 -2l-8 -4q-10 -7 -9 -23q0 -15 26.5 -55.5t109.5 -155.5l137 -186q77 -11 154 -11z" />
</svg>