<svg xmlns="http://www.w3.org/2000/svg" xmlns:xlink="http://www.w3.org/1999/xlink" version="1.1" viewBox="-10 0 2058 2048">
   <path fill="currentColor"
d="M1482 910q32 13 54.5 23t59.5 28.5t63.5 35t57.5 41t50 49t32 56t13 63.5t-13 60.5t-31.5 45.5t-37 30t-31.5 18l-12 5q0 22 -12 34q-32 48 -78 75t-88.5 31.5t-80.5 2.5t-61 -10l-22 -7q-11 -34 -11 -80q-27 0 -62 -6t-85 -21.5t-108.5 -50t-109.5 -82.5
q-16 74 -38.5 187t-60.5 325.5t-38 262.5q-6 2 -16.5 5t-42 8.5t-64 7.5t-77.5 -2t-86 -16t-86.5 -38.5t-82.5 -66.5q239 -900 239 -957l-307 -684q-2 2 -5.5 3.5t-12.5 3t-17.5 -1.5t-18 -15.5t-15.5 -35.5q-5 -27 -2.5 -42.5t7.5 -20.5l6 -5q-1 -2 -2.5 -7t-5 -17.5
t-5 -22.5t-2 -20t3.5 -13q1 -2 4.5 -6.5t15.5 -16.5t26.5 -22.5t38.5 -21.5t50 -16.5t62.5 -5t76.5 9.5l2 1t9 6.5t15 15t22.5 30.5t30.5 49q1 0 3.5 0.5t8.5 2t10.5 5t8.5 10.5t4 16q4 18 1.5 30.5t-8.5 19.5l-5 7l239 548l468 -388q-3 -5 -6 -13t-4 -23.5t9.5 -20.5
t24.5 -8t23 -3l9 -1l103 -79q1 -2 5 -5t19.5 -7.5t34 -2.5t51.5 17t72 43q118 89 104 112l-2 2l-91 102q0 3 0.5 7t0 15t-3 20.5t-11 20.5t-20.5 17q-16 11 -33 13.5t-26 0.5l-9 -3l-125 115q-2 4 -4.5 10.5t-9 26.5t-10 39t-4 43.5t4.5 44t19 37.5t38 27zM1709 1320
q22 -10 37.5 -37t8.5 -66q0 -38 -27 -75.5t-65.5 -63.5t-77 -46.5t-65.5 -31.5l-27 -10q-8 -2 -20 -7t-42 -23.5t-52 -41t-37 -61.5t-8 -84l-342 251q-1 4 -2.5 9t-5.5 21.5t-5 29t-2 30t3 24.5q1 2 3 5q13 20 24 34.5t42.5 44.5t67 51.5t96.5 45t132 35.5q10 -20 21.5 -40
t17.5 -30l7 -10q1 3 4 6.5t15.5 11.5t29 12.5t46 3.5t64.5 -10.5t62 -23.5t40.5 -27.5t22 -25.5t10.5 -19l2 -8q1 2 4 5.5t9.5 16t10.5 26t4 35t-6 43.5z" />
</svg>