<svg xmlns="http://www.w3.org/2000/svg" xmlns:xlink="http://www.w3.org/1999/xlink" version="1.1" viewBox="-10 0 2068 2048">
   <path fill="currentColor"
d="M668 467h2q241 -41 356 -41q39 0 82.5 3t72 6t76.5 8.5t69 7.5q33 0 63 20t49 45t44.5 58.5t44.5 50.5q23 29 41 65t28.5 63t20 75t13 68.5t10.5 78t8 70.5q9 22 10 45t-2.5 41t-14 43t-18.5 39t-23 39q-20 20 -34.5 54t-22 63t-26 59t-48.5 46q-43 34 -43 7
q0 -11 20 -81q10 -37 7 -50q16 -95 -23 -187.5t-119 -148.5q-26 -21 -90.5 -53t-93.5 -58q-55 -29 -121 -19t-110 55q-66 32 -113 61.5t-82 70.5q-50 54 -69 130.5t-11 149t33 145.5q-43 1 -83 -39.5t-52 -88.5q-4 -31 -24 -66t-40 -60.5t-35 -61t-12 -70.5q6 -207 45 -339
q10 -35 26.5 -68t42.5 -67t44 -55.5t53 -59.5t49 -54zM549 463l1 -1q-9 35 -27.5 62.5t-37.5 42.5t-42.5 39.5t-39.5 50.5q-29 52 -48 118t-26.5 120.5t-19.5 125t-27 119.5q-18 13 -33.5 7.5t-25.5 -19t-20 -36t-17.5 -43.5t-17.5 -42t-21 -31q-9 -23 -32.5 -43.5t-46 -33
t-42.5 -34t-26 -47.5q26 -39 65 -82.5t61 -65t75 -72.5q114 -131 348 -135zM1506 463v1q74 4 127 14q77 10 142 54.5t134 116.5q10 15 28.5 33.5t37 34t36.5 34.5t28 37t8.5 39.5t-18.5 42.5q-120 61 -181 230q-28 80 -62 37q-28 -35 -36 -103q0 -8 -1 -15
q-5 -225 -117 -393q-12 -18 -33.5 -39.5t-38.5 -37t-32.5 -38.5t-21.5 -48zM655 734v-1q-44 -1 -80 29t-46 73q-9 34 0.5 65.5t34 52.5t54 32.5t63 6.5t58.5 -28q35 -25 43.5 -66t-5 -77.5t-47 -62.5t-75.5 -24zM1435 734v-1q-44 -1 -80 29t-46 73q-9 34 0.5 65.5t33.5 52.5
t54 32.5t63 6.5t58 -28q35 -25 43.5 -66t-4.5 -77.5t-46.5 -62.5t-75.5 -24zM828 1103q25 -12 56.5 -35.5t54.5 -43t53.5 -34t58.5 -14.5q28 1 50.5 11.5t36 23t31.5 27.5t34 22q87 43 134 132t39 188q-3 16 -5.5 66t-13.5 81.5t-40 49.5q-215 64 -434 36q-62 -8 -104.5 -45
t-52.5 -100q-15 -107 8.5 -204.5t93.5 -160.5z" />
</svg>