<svg xmlns="http://www.w3.org/2000/svg" xmlns:xlink="http://www.w3.org/1999/xlink" version="1.1" viewBox="-10 0 2058 2048">
   <path fill="currentColor"
d="M1070 795q-233 0 -423.5 -14.5t-372.5 -53.5q-40 -7 -109 -35t-83 -33q-46 -15 -46 -69v-397q0 -19 9 -32t25 -13q15 -6 46 -19.5t47.5 -20.5t41.5 -16.5t47.5 -15t45.5 -8.5q101 -24 204 -39t222 -21t196 -7t218 -1q381 0 680 79q69 17 148 57q46 15 46 69v397
q0 22 -36 57q-89 46 -136 57q-51 7 -149.5 24t-177.5 28t-149 16q-52 5 -150.5 5t-143.5 6zM2012 817v409q0 17 -20 37t-38 20q-11 4 -64 23t-86.5 29t-63.5 15q-421 76 -978 57q-99 -6 -143 -9.5t-128 -12t-151.5 -22.5t-131.5 -34q-49 -12 -138 -57q-34 -16 -34 -57v-398
q119 41 243 67.5t255.5 38t238 15.5t251.5 4q272 9 514.5 -18t473.5 -107zM2012 1453v398q0 16 -19 37t-39 30q-67 25 -95 35t-81 25t-96 20q-700 105 -1374 -11q-36 -5 -72 -15.5t-89 -30t-65 -23.5q-25 -8 -35.5 -25.5t-10.5 -52.5v-387q115 41 236.5 67.5t253 38
t240.5 15.5t258 4q144 0 251 -4t238.5 -15.5t255.5 -38t243 -67.5z" />
</svg>