<svg xmlns="http://www.w3.org/2000/svg" xmlns:xlink="http://www.w3.org/1999/xlink" version="1.1" viewBox="-10 0 2058 2048">
   <path fill="currentColor"
d="M566 1853q-17 -8 -26.5 -18t-18.5 -27q-8 -8 -11 -8t-12 8q-5 12 -11 34.5t-12 33.5q-25 85 -72.5 114t-133.5 12q-22 0 -68 -22q-68 -35 -34 -104q0 -5 5.5 -16.5t5.5 -17.5q-60 0 -79 -57q-45 -109 -30 -201t98 -175q3 -7 10.5 -18.5t10 -20t2.5 -18.5
q0 -124 27.5 -224t98.5 -187q60 -80 136 -126q17 -8 19 -18.5t-7 -27.5q-63 -81 -80 -182q-4 -11 -1.5 -29t4 -28.5t8 -28.5t11 -28.5t12.5 -28.5t12 -29q23 -23 34 -23q21 -5 39 -15.5t42.5 -29t31.5 -23.5q114 -114 286 -114q16 0 25 -7t9 -16q16 -64 69 -137l35 -34
q17 -18 38.5 -16t29.5 27q21 34 49.5 96t29.5 64q15 31 34 12q19 -8 27 -11.5t20 -6.5t15.5 -4t10.5 2.5t9 6.5t7 13.5t7 18.5t7 27q87 365 -114 685q-5 12 -22 34.5t-23 33.5q-9 17 -7 29t18 28q77 68 127 159.5t67 194.5q18 126 0 251q-7 33 1 38.5t34 -4.5
q133 -38 227 -102q9 -5 38.5 -22.5t40.5 -23.5t36 -18.5t41.5 -18.5t39 -12t44.5 -9q12 0 29.5 -2.5t32 -2.5t29.5 5q25 8 41.5 31.5t16.5 49.5q0 49 -58 68q-150 30 -308 148q-161 113 -377 172q-8 0 -22 7.5t-23 15.5q-16 12 -35.5 20t-32 11t-40.5 7.5t-40 6.5
q-12 1 -60 5.5t-64 5.5t-56.5 4.5t-64 4.5t-57 2t-63.5 1q-70 0 -115 -11q-27 -9 -49.5 -27t-30.5 -42q-16 -68 35 -103q13 0 27 -6t18 -6z" />
</svg>