<svg xmlns="http://www.w3.org/2000/svg" xmlns:xlink="http://www.w3.org/1999/xlink" version="1.1" viewBox="-10 0 2058 2048">
   <path fill="currentColor"
d="M2038 385q0 8 -2 18.5t-4.5 17t-8.5 23.5t-9 25q-99 -78 -218 -96q-67 -10 -130 3.5t-134 44.5q-165 83 -273 203.5t-161 290.5q-49 95 -49 242v193q28 202 49 289q11 62 33 137t38.5 124t48.5 138h-1000v-61q0 -124 24 -325q42 -252 107 -447q64 -178 170 -386
q12 -22 33.5 -60.5t34 -61t30.5 -52.5t35 -55q102 -170 289 -302q150 -117 386 -156q205 -35 410 60q193 84 301 193zM24 1519q61 0 194 24q-6 30 -18 95.5t-19 96.5q-30 -7 -90 -12.5t-91 -11.5q6 -35 11.5 -98t12.5 -94zM386 952q-6 11 -11 24t-8.5 23t-8.5 25.5t-7 22.5
t-6.5 25t-6.5 24q-30 -12 -90 -29.5t-91 -29.5q12 -24 30.5 -78.5t30.5 -78.5q56 27 168 72zM1314 1711q43 66 61 133v13h-12q-22 0 -79.5 -6.5t-89.5 -6.5q-12 1 -12 -11q-6 -19 -17.5 -61.5t-18.5 -60.5v-11h12q2 0 23 -0.5t26.5 0t23 1t27.5 1.5t25.5 3t30.5 6zM676 469
q-18 24 -54 66.5t-55 66.5q-21 -22 -69 -54t-64 -43q37 -48 109 -120q24 12 66.5 42t66.5 42zM1098 1362v-10q0 -79 -12 -123h12q24 12 66 36t66 36q6 0 9 3t3 6v4q12 34 12 109v11h-12q-60 -39 -144 -72zM1061 168q-24 12 -66 36t-66 36q-3 -6 -33.5 -46.5t-38.5 -61.5
q19 -12 54.5 -30.5t53.5 -30.5h12q12 18 42 48t42 49zM1110 988q1 -3 3 -8q8 -23 13 -35t16.5 -30.5t27.5 -34.5q12 12 42 36t42 36l12 12v12q0 51 -24 120q-24 -19 -66 -54.5t-66 -53.5zM1460 107q-98 0 -146 13q-6 -19 -11.5 -55t-12.5 -54h145q10 0 11 1t1 11t6.5 36.5
t6.5 47.5zM1375 699q-1 2 -6 11t-7 12.5t-6.5 11.5t-8 13t-9 11.5t-11.5 12.5q-18 -19 -54 -61t-55 -60q37 -24 85 -72v12q28 27 72 96v13zM1567 433q0 3 6.5 26.5t6.5 45.5q-50 27 -72 49q-6 -19 -23.5 -49t-24.5 -48q19 -7 54 -12.5t53 -11.5zM1809 192v-60q19 12 60.5 42
t59.5 42q-6 6 -11.5 17.5t-12.5 18.5q-14 -14 -50 -34t-46 -26zM1881 433q10 9 10 21t-10 40q-10 0 -43 -6.5t-53 -6.5v-60h24q12 0 36 6t36 6z" />
</svg>