<svg xmlns="http://www.w3.org/2000/svg" xmlns:xlink="http://www.w3.org/1999/xlink" version="1.1" viewBox="-10 0 2068 2048">
   <path fill="currentColor"
d="M296 12h1446q6 0 12 5t12 5q148 50 236 192q17 51 46 80v1448q0 5 -6 11t-6 11q-36 126 -146 204q-73 54 -148 68h-1446q-6 0 -12 -6t-12 -6q-148 -49 -236 -192q-14 -13 -36 -78v-1448q0 -6 6 -12t6 -12q42 -143 146 -204zM982 258q-190 5 -363.5 82.5t-300.5 225.5
q35 43 93 117.5t106.5 134t94.5 110.5q8 8 22 15t22 7h724q6 0 23.5 -6t22.5 -6q19 -23 126 -159t168 -203q-133 -159 -329.5 -242t-408.5 -76zM1278 396q-22 73 -55 231.5t-57 232.5h-214q56 -71 110 -147t122 -177.5t94 -139.5z" />
</svg>