<svg xmlns="http://www.w3.org/2000/svg" xmlns:xlink="http://www.w3.org/1999/xlink" version="1.1" viewBox="-10 0 2058 2048">
   <path fill="currentColor"
d="M453 394q54 -33 234.5 -149t280.5 -177q95 -52 206.5 -64t215.5 12.5t199 84t159 145.5q114 142 125.5 330.5t-89.5 340.5q66 120 67 261.5t-63.5 268.5t-182.5 199q-407 260 -513 326q-123 73 -272.5 76.5t-285 -59t-225.5 -175.5q-79 -92 -113.5 -213t-17 -245.5
t84.5 -224.5q-52 -92 -62.5 -202t17 -211t92.5 -189.5t157 -141.5q78 -49 231.5 -147.5t230.5 -148.5q-79 51 -237.5 152t-238.5 151zM1571 396q-54 -84 -148.5 -127t-197 -34t-182.5 67q-75 49 -225.5 145t-226.5 144q-64 38 -102 98t-46 125.5t7.5 135t52 127t95 99
t128.5 53.5q57 17 115 11.5t109.5 -26.5t98.5 -56q13 -7 73 -47t94 -55q36 -11 72.5 5t56.5 50t12 71q-6 31 -27 51.5t-59 42t-51 31.5q-64 41 -192.5 122.5t-192.5 122.5q-38 24 -69 19.5t-54.5 -29t-37 -55t-16.5 -59.5q-112 -30 -221 -113q-21 48 -25.5 99t6 98
t33.5 92.5t56.5 81.5t74.5 66t88 45.5t97.5 19.5t101.5 -12q44 -10 85.5 -31t95 -57.5t75.5 -49.5q55 -35 166 -105t166 -106q81 -47 121.5 -134.5t31.5 -182.5t-64 -169q-54 -84 -148.5 -126.5t-197 -33.5t-182.5 67q-21 13 -58 37.5t-68 43t-61 32.5q-36 11 -61.5 2
t-44.5 -28t-25 -46t-3.5 -53t20 -49t45.5 -34q75 -48 225 -143t225 -143q29 -20 61 -16.5t59 19t42 45.5t8 62q11 18 61.5 32.5t65.5 28.5q46 24 101 65q34 -82 24 -173t-63 -163z" />
</svg>