<svg xmlns="http://www.w3.org/2000/svg" xmlns:xlink="http://www.w3.org/1999/xlink" version="1.1" viewBox="-10 0 2068 2048">
   <path fill="currentColor"
d="M214 127h1496q72 -9 141 20t115.5 88.5t50.5 132.5q4 137 3.5 686.5t-0.5 686.5q-8 23 -3.5 48.5t13.5 43.5t14.5 41t-0.5 41q-25 7 -52.5 8t-56 -2.5t-52 -8.5t-55.5 -12.5t-53 -10.5q-59 -16 -120 -20t-157.5 -0.5t-122.5 3.5q-23 -7 -51.5 -4.5t-56.5 13.5t-55 18
t-49.5 8.5t-40 -15t-25.5 -51.5q-10 -32 -17 -88.5t-19.5 -102.5t-40.5 -80q-1 -17 -10 -55.5t-14.5 -69.5t-5.5 -62t18 -46t55 -9q126 11 240 -29t179 -135q20 -22 47 -62.5t45.5 -67t53.5 -49.5t78 -26q22 7 40 4t29 -17.5t15.5 -31t-1 -36t-21.5 -33.5q-30 -16 -69 -28
t-68 -17t-76.5 -12.5t-71.5 -11.5q-36 -1 -59.5 15t-36 43t-20.5 55.5t-20 60.5t-29 51q-19 46 -60.5 68.5t-88.5 17t-86 -36.5q-138 -105 -264 -225q-25 -15 -51 -42t-44.5 -50.5t-45.5 -48t-55 -36.5q-26 -14 -46.5 -11t-32.5 16.5t-25 32t-24 35.5t-29.5 27.5t-41.5 7.5
q-26 4 -56.5 -9.5t-52 -29.5t-52 -23.5t-57.5 8.5q-14 16 -38.5 50t-41.5 55.5t-46.5 39t-64.5 16.5q-13 -21 -14 -56t2 -78.5t0 -67.5q3 -62 1 -111t-1.5 -111.5t7.5 -110.5q8 -37 28 -68.5t50 -56t59.5 -42t66.5 -34.5zM157 1259q9 0 18 4.5t14.5 9t15 13t12.5 11.5
q140 79 318 76q10 15 -4.5 43.5t-33.5 63t-19 58.5q-21 21 -32.5 57t-16.5 71t-12.5 69t-27 58t-54.5 31q-4 -1 -32.5 -9t-35 -10t-33 -9.5t-36 -10.5t-33 -10.5t-35 -12t-31.5 -11.5t-33.5 -13t-30 -13.5t-30.5 -14.5q0 -16 -1.5 -57t-2 -63.5t1 -56t5.5 -60.5
q20 -20 38 -53.5t29.5 -62t32.5 -57t49 -41.5zM730 1336q67 7 127 95q27 33 43.5 79.5t30 98t30.5 83.5q6 12 16.5 31.5t21 36.5t21 37.5t16 37t5 31.5t-9.5 25q-34 -8 -72.5 -30.5t-67 -45t-67.5 -42t-77 -23.5q-28 -10 -61 -5.5t-60.5 17t-59.5 24.5t-57 16.5t-54 -6.5
q6 -13 56.5 -110t67.5 -153q15 -19 33 -52.5t30.5 -59t35.5 -50t52 -35.5z" />
</svg>