<svg xmlns="http://www.w3.org/2000/svg" xmlns:xlink="http://www.w3.org/1999/xlink" version="1.1" viewBox="-10 0 2069 2048">
   <path fill="currentColor"
d="M1582 446l53 -52l200 199q198 198 206 214q14 30 1 61q-10 18 -207 215l-200 199l-53 -53l-53 -52l170 -170l169 -169l-169 -170l-170 -169zM625 604l-30 -28h349h111q175 0 209 1t39 5q4 5 129 121l21 21h-351l-349 2l-26 -26q-41 -37 -49 -45q-13 -11 -53 -51zM211 970
q203 -201 204 -201t53 52l52 52l-170 170l-169 169l169 170l170 169l-52 51q-48 51 -52 51q-4 2 -203 -198q-13 -13 -37 -36q-131 -132 -154 -159t-21 -48v-1q1 -24 27.5 -54t182.5 -187zM754 951h341h353q7 0 -6 12q-96 90 -123 115l-22 21h-350h-352l20 -18q15 -15 67 -65
q11 -10 25 -22.5t23 -20.5t12 -11q2 -2 5 -4.5t4.5 -4zM625 1353l-30 -28h351h350l24 21q26 26 31 29q26 26 50 48l53 50h-350q-50 0 -130 1q-222 0 -226 -5q-2 -2 -50 -46q-36 -33 -73 -70z" />
</svg>