<svg xmlns="http://www.w3.org/2000/svg" xmlns:xlink="http://www.w3.org/1999/xlink" version="1.1" viewBox="-10 0 2068 2048">
   <path fill="currentColor"
d="M2048 558q0 8 -1.5 8t-8.5 -8v1188q0 10 -5 25t-5 26q0 31 -32 31q-10 11 -40 11h-748q-7 0 -8.5 1.5t-1.5 8.5v174h-92q-72 0 -102 -10q-156 -40 -256 -52q-41 -5 -122.5 -20.5t-123 -20.5t-128.5 -20.5t-128 -20.5t-123 -20t-123 -20v-1629h12q33 0 142 -21
q152 -21 226 -30q83 -21 224 -41q63 -21 206 -41q35 -5 106.5 -20.5t107.5 -20.5q11 0 26 -5.5t26 -5.5h142v185h748q37 0 59.5 24.5t22.5 57.5v266zM922 711q0 -9 8 -19t22 -10h-10q-47 9 -132 9q-5 0 -7.5 2.5t-3.5 4.5l-1 3q-5 36 -20 113t-20 113q-4 41 -20 123t-20 123
v-10q-38 -184 -94 -441q-7 -16 -10 -18.5t-18 -2.5h-104q-8 0 -9 1.5t-1 8.5q-16 61 -41 189.5t-41 190.5q0 11 -5 31t-5 30q-11 -82 -37 -229.5t-35 -211.5h-122v11q4 15 10 51t10 52q31 131 102 502q0 7 1.5 8.5t8.5 1.5q21 0 61.5 5t60.5 5q8 0 10 -1.5t2 -8.5
q0 -11 5 -36t5 -36l62 -307q0 -10 5 -31t5 -31q10 41 25.5 123t26.5 123q5 31 20 97.5t20 97.5q0 7 1 8.5t9 1.5h62q7 0 19 2t21.5 2t19.5 -4q10 0 10 -10q10 -36 25 -111.5t27 -114.5zM1976 292l-1 -6q-2 0 -9 17h-748q-7 0 -8.5 1.5t-1.5 8.5v153h604q8 0 9 1.5t1 9.5v71
q0 8 -1 9t-9 1h-594v124h604v91h-582q-8 0 -9 1.5t-1 9.5v91q0 8 1 9.5t9 1.5h582v92h-604v102q0 8 2 9.5t10 1.5h582q8 0 9 1.5t1 8.5v72q0 7 -1 8.5t-9 1.5h-594v113h604v91h-592q-8 0 -10 1.5t-2 9.5v92q0 8 2 9.5t10 1.5h582v91h-604v185h768v-1485z" />
</svg>