<svg xmlns="http://www.w3.org/2000/svg" xmlns:xlink="http://www.w3.org/1999/xlink" version="1.1" viewBox="-10 0 2058 2048">
   <path fill="currentColor"
d="M1045 65q4 -3 24.5 -14.5t33 -22.5t25.5 -28q266 253 334 547q1 6 6 25t6.5 27t3.5 22.5t2 27.5q31 244 -148 389q-38 25 -71.5 57t-80 82t-70.5 75q24 -4 89 -36.5t117 -63.5l53 -30q-195 186 -241 213q-34 27 -44 55t-2 65v9q151 275 111 584q-59 -370 -278 -686
q-46 -45 -133.5 -158.5t-152.5 -204.5l-65 -91q20 12 52 30.5t95 49.5t84 31q-66 -50 -105 -140t-46 -183.5t8 -180t50 -135.5q27 -38 50.5 -66.5t58.5 -60t57 -49.5t81 -63.5t96 -75.5z" />
</svg>