<svg xmlns="http://www.w3.org/2000/svg" xmlns:xlink="http://www.w3.org/1999/xlink" version="1.1" viewBox="-10 0 2058 2048">
   <path fill="currentColor"
d="M576.5 0q51.5 0 87.5 35t36 84q0 31 -15 58t-41 44l60 218q76 -20 156 -31t121 -12l41 -1q17 0 46 0.5t113 10.5t161 29l60 -211q-28 -15 -44 -42.5t-16 -59.5q0 -50 36 -85t86.5 -35t87 35t36.5 85q0 47 -32 80t-80 38l-62 215q76 24 141 56t130.5 83.5t111 115
t74.5 153.5t29 196q-1 93 -32 189.5t-83 181.5t-120.5 167t-143 149t-150 124t-143 96t-121.5 60.5t-85 21.5q-30 0 -83.5 -21.5t-120.5 -60t-142.5 -95t-149.5 -123t-141.5 -148.5t-120 -167t-83.5 -182.5t-33 -191.5q0 -104 29 -193.5t75.5 -152.5t112.5 -114.5
t131.5 -83.5t141.5 -56l-62 -220q-50 0 -86 -35t-36 -84.5t35.5 -84.5t87 -35zM508 717q-73 2 -135.5 52.5t-84.5 138.5q-44 143 86 325q94 133 229 223q128 85 196 68q18 -5 29 -18q35 -53 52.5 -128t17 -156t-23 -163.5t-63.5 -151.5t-110 -120t-157 -68q-20 -3 -36 -2z
M1564 717q-26 0 -38 2q-88 17 -157 68t-109.5 120t-63 151.5t-22.5 163.5t17.5 156t52.5 128q39 48 156 -10q124 -61 236 -186q146 -162 157 -309q4 -49 -9 -93q-23 -88 -85.5 -138.5t-134.5 -52.5zM1462 1046q-46 0 -80 32t-34 77t33 77t80.5 32t80 -32t32.5 -77t-32.5 -77
t-79.5 -32zM602 1049q-45 0 -78.5 32t-33.5 77t32.5 77t80 32t80.5 -32t33 -77t-33 -77t-81 -32zM1494.5 1091q11.5 0 19.5 8t8 19t-8 19.5t-20 8.5q-11 0 -19.5 -8.5t-8.5 -19.5t8.5 -19t20 -8zM569 1095q12 0 20.5 8t8.5 19t-9 19.5t-21 8.5v-1q-11 0 -19.5 -8t-8.5 -19
t8.5 -19t20.5 -8z" />
</svg>