<svg xmlns="http://www.w3.org/2000/svg" xmlns:xlink="http://www.w3.org/1999/xlink" version="1.1" viewBox="-10 0 2058 2048">
   <path fill="currentColor"
d="M1015 1366h-195q-21 0 -29 -0.5t-19.5 -2.5t-15.5 -5.5t-9 -11t-7 -18t-4 -27.5q-42 -207 -140 -392q-48 -81 -94 -206q-56 -148 -28 -317q13 -110 77.5 -192t165.5 -125q317 -143 625 9q138 62 200 196.5t33 298.5q-9 66 -32 135t-45.5 115.5t-62.5 122.5
q-98 196 -120 345q-6 24 -8.5 35.5t-9 23t-10 15t-17 7t-24 3.5h-35.5q-75 -9 -196 -9zM1006 2048h-224q-31 0 -43.5 -11.5t-12.5 -44.5q0 -16 -1 -41q-1 -54 9.5 -63t75.5 -8h28h402q33 0 44 12.5t11 43.5q0 77 -13 90t-89 13q-56 9 -187 9zM1015 1712h-233q-29 0 -37.5 -9
t-8.5 -37v-26q-1 -27 -1 -37.5t3.5 -23.5t6 -16t15 -7t22 -3.5t34.5 0.5h22h402q55 0 55 56v23v34.5t-3.5 21.5t-6 14.5t-14.5 6t-21.5 3.5h-33.5h-23h-178z" />
</svg>