<svg xmlns="http://www.w3.org/2000/svg" xmlns:xlink="http://www.w3.org/1999/xlink" version="1.1" viewBox="-10 0 2068 2048">
   <path fill="currentColor"
d="M2048 324v1400q0 4 -5 15t-5 15q-35 52 -82 52h-794v206q-15 -5 -51 -10.5t-51 -9.5q-36 -5 -113 -20.5t-113 -21.5q-40 -4 -122.5 -20t-123.5 -21t-124.5 -21t-123.5 -20q-36 -5 -112.5 -20.5t-113.5 -21.5q-20 -5 -56.5 -10.5t-57.5 -9.5v-1514q6 0 22 -5t20 -5
q89 -63 238 -82q39 -5 108 -21t96 -21q143 -23 196 -40q36 -6 113 -21.5t113 -20.5q42 -5 119 -20t117 -20h10v196h804q30 0 57 20.5t35 51.5v20zM1966 314h-814v124h278v174h-278v62h278v174h-278v62h278v176h-278v72h290v174h-290v62h278v174h-278v124h814v-1378z
M886 1496q-1 -10 -10 -10q-37 -71 -114.5 -215t-113.5 -217v-20q92 -184 228 -422v-10h-10q-52 0 -72 10q-62 0 -104 10q-7 0 -8.5 2t-1.5 10q-16 30 -41.5 86t-40.5 88q-11 26 -31.5 72t-30.5 72q-5 -11 -10.5 -36.5t-11.5 -35.5q-15 -36 -45.5 -113t-46.5 -113
q-7 -16 -10.5 -18t-19.5 -2q-21 0 -62 5t-62 5h-40v10q5 10 15.5 35t14.5 35l154 310v10q-32 62 -98 185t-96 185q0 6 -6 11t-6 9h62q21 0 56.5 6t55.5 6q8 0 10 -2t2 -10q60 -122 92 -194q5 -15 20.5 -46t21.5 -46q0 -22 10 -32v10q3 9 9 28t11 24q19 37 37 78t40.5 94
t36.5 84q2 3 6.5 10t9.5 9.5t14 2.5q26 0 77 5t77 5q5 14 11 21t10 8t11 1zM1832 438v174h-318v-174h318zM1514 1590v-176h318v176h-318zM1514 1106v-176h318v176h-318zM1832 684v174h-318v-174h318zM1832 1178v176h-318v-176h318z" />
</svg>