<svg xmlns="http://www.w3.org/2000/svg" xmlns:xlink="http://www.w3.org/1999/xlink" version="1.1" viewBox="-10 0 2068 2048">
   <path fill="currentColor"
d="M17 0q211 -3 418 40.5t389 124t348.5 197.5t302.5 258t246 308t183.5 345.5t111 372t31.5 386.5h-416q-13 -339 -125.5 -618.5t-337.5 -517.5q-222 -234 -512 -349t-623 -115q-16 -144 -16 -432zM1392 2048h-415q-8 -40 -24 -128t-24 -128q-97 -291 -283.5 -459.5
t-483.5 -228.5q-16 -7 -35 -11t-33.5 -4.5t-44.5 -0.5q-12 0 -19 -2.5t-9.5 -8t-3 -9.5t-0.5 -12v-399q489 0 880 319q238 214 360.5 480.5t134.5 591.5zM577 1760q0 120 -84 204t-204 84q-118 0 -197 -82.5t-91 -205.5q0 -120 84 -204t204 -84t204 84t84 204z" />
</svg>