<svg xmlns="http://www.w3.org/2000/svg" xmlns:xlink="http://www.w3.org/1999/xlink" version="1.1" viewBox="-10 0 2068 2048">
   <path fill="currentColor"
d="M891.5 2048q-120.5 0 -236 -32t-213.5 -89.5t-180 -140t-139.5 -180t-90 -213t-32.5 -236.5t32.5 -237t90.5 -214.5t141.5 -181.5t183.5 -140.5t219.5 -88.5t244.5 -29q119 2 231.5 35.5t208.5 91t176 139t136 178.5t87 211.5t31 235.5t-32 236.5t-89.5 213t-139.5 180
t-180 140t-213.5 89.5t-236 32zM1260 522q-107 0 -186.5 79.5t-79.5 186.5q0 109 76.5 188t189.5 79q109 0 187.5 -77t78.5 -190q0 -109 -76.5 -187.5t-189.5 -78.5zM1782 522q-71 0 -131.5 -34t-95 -95.5t-29.5 -135.5q0 -108 76 -182.5t190 -74.5q106 0 181 79t75 187
q0 106 -78.5 181t-187.5 75z" />
</svg>