<svg xmlns="http://www.w3.org/2000/svg" xmlns:xlink="http://www.w3.org/1999/xlink" version="1.1" viewBox="-10 0 2068 2048">
   <path fill="currentColor"
d="M858 103q172 0 310 69t228 160l-252 286q-11 -9 -31.5 -25t-32 -25t-28.5 -18t-34 -13q-11 -3 -42.5 -12.5t-59 -15t-58.5 -5.5q-82 0 -148 33q-80 40 -126 103q-47 62 -80 161q-34 105 -34 217q0 264 114 378q60 70 132 104t166 34q88 0 160 -36q80 -40 126 -102
l252 286q-105 120 -252 194q-138 69 -310 69q-159 0 -332 -57q-152 -50 -274 -172q-37 -37 -70.5 -93t-52.5 -98t-49 -117q-80 -145 -80 -390q0 -216 70 -389q68 -170 182 -285q112 -111 274 -184q128 -57 332 -57zM1556 447h136l-44 274h114l46 -274h136l-44 274h148v126
h-184l-22 183h148v126h-182l-46 275h-138q0 5 14.5 -64t28.5 -140l15 -71h-114l-46 275h-138l46 -275h-136v-126h172l22 -183h-148v-126h170zM1612 858l-22 183h114l24 -183h-116z" />
</svg>