<svg xmlns="http://www.w3.org/2000/svg" xmlns:xlink="http://www.w3.org/1999/xlink" version="1.1" viewBox="-10 0 2068 2048">
   <path fill="currentColor"
d="M1024.5 48q94.5 0 180.5 36.5t148 98.5t98.5 148t36.5 181t-36.5 181t-98.5 148t-148 98.5t-180.5 36.5t-180.5 -36.5t-148 -98.5t-99 -148t-37 -181t37 -181t99 -148t148 -98.5t180.5 -36.5zM464.5 1072q94.5 0 180.5 36.5t148.5 98.5t99.5 148t37 181t-37 181
t-99.5 148t-148.5 98.5t-180.5 36.5t-180.5 -36.5t-148 -98.5t-99 -148t-37 -181t37 -181t99 -148t148 -98.5t180.5 -36.5zM1584.5 1072q94.5 0 180 36.5t147.5 98.5t99 148t37 181t-37 181t-99 148t-147.5 98.5t-180 36.5t-180.5 -36.5t-148.5 -98.5t-99 -148t-36.5 -181
t36.5 -181t99 -148t148.5 -98.5t180.5 -36.5z" />
</svg>