<svg xmlns="http://www.w3.org/2000/svg" xmlns:xlink="http://www.w3.org/1999/xlink" version="1.1" viewBox="-10 0 2068 2048">
   <path fill="currentColor"
d="M1650 1252q106 0 197.5 54t146 146t54.5 198t-54.5 198t-146 146t-197.5 54q-76 0 -417.5 -28t-644.5 -57l-304 -28q-119 -17 -201.5 -115.5t-82.5 -226.5q0 -59 22.5 -121.5t57.5 -106.5l684 -853l-104 -171l252 -341h374l80 171h-342l-112 170l112 171h342l-80 171
h-374l-228 569h966zM342.5 1764q67.5 0 118.5 -51.5t51 -119t-51 -119t-118.5 -51.5t-119 51.5t-51.5 118.5t51.5 119t119 52zM1649.5 1877q93.5 0 161 -66.5t67.5 -160.5t-67.5 -160.5t-161 -66.5t-160.5 66.5t-67 160.5t67 160.5t160.5 66.5z" />
</svg>