<svg xmlns="http://www.w3.org/2000/svg" xmlns:xlink="http://www.w3.org/1999/xlink" version="1.1" viewBox="-11 0 2069 2048">
   <path fill="currentColor"
d="M1024 2048q-137 0 -269.5 -37.5t-246 -105t-209 -164t-162.5 -211t-103 -251t-34 -279.5q3 -134 41 -263t104 -239t160 -202.5t206.5 -157.5t247 -101.5t276.5 -36.5q138 0 269.5 38t243.5 105t206.5 163.5t159.5 211t100.5 250.5t32.5 278q-2 135 -40.5 264t-105 239
t-161 202.5t-205.5 158t-242.5 102t-268.5 36.5zM660 388v1262h11l922 -614q9 -9 9 -10.5t-9 -1.5q-499 -334 -933 -614q9 -8 9 -15t-9 -7z" />
</svg>