<svg xmlns="http://www.w3.org/2000/svg" xmlns:xlink="http://www.w3.org/1999/xlink" version="1.1" viewBox="-10 0 2068 2048">
   <path fill="currentColor"
d="M1020 866v316h-122q-109 -6 -175 -11.5t-157 -21t-168 -38.5q-91 -24 -224 -82q-42 -10 -102 -51q-38 -31 -55 -64.5t-17 -78.5v-264q0 -62 52 -113q63 -64 192 -102q216 -75 440 -91q300 -21 418 -21q360 0 682 102q27 9 57.5 24.5t67.5 37t57 31.5q82 50 82 152v254
q0 100 -72 144q-18 14 -39.5 26t-51.5 26t-41 19q-4 4 -11.5 4t-16.5 -2t-12 -2q-516 -129 -744 -184q-21 -10 -40 -10zM1020 1804h-204q-298 -17 -510 -82q-31 -9 -66.5 -24t-80 -36.5t-67.5 -31.5q-92 -62 -92 -173v-235q23 30 48.5 54.5t57 44.5t56.5 33.5t65 28t62.5 22
t66.5 21.5q294 72 622 72q24 0 33 8.5t9 31.5v266zM2038 1213v285q0 56 -62 102q-88 55 -152 82q-5 4 -12.5 4t-19 -2t-18.5 -2l-612 -154l-122 -30q-5 0 -10 -5t-8 -10l-2 -5v-285q35 10 101 24.5t101 25.5q97 25 286 71.5t286 71.5h40q10 -7 45 -27.5t48.5 -30t38 -28.5
t41 -40t31.5 -47z" />
</svg>