<svg xmlns="http://www.w3.org/2000/svg" xmlns:xlink="http://www.w3.org/1999/xlink" version="1.1" viewBox="-10 0 2058 2048">
   <path fill="currentColor"
d="M1030 0q70 119 210 351t210 350q103 154 172 280v11q-185 98 -592 345h-11l-388 -227q-18 -12 -62.5 -38t-73 -46.5t-47.5 -44.5v-10q55 -82 194 -313q26 -49 85.5 -146.5t86.5 -145.5q24 -49 51.5 -96.5t72.5 -120t59 -96.5q5 -11 16.5 -26.5t16.5 -26.5zM426 1219
q7 3 14.5 6t11.5 4t9 4t8 6q49 27 146 87t145 86q43 26 129.5 75t129.5 76q11 -5 38 -21.5t38 -21.5q230 -144 527 -301q-33 43 -97 134t-97 134q-65 91 -199 280.5t-199 280.5q-4 0 -7 -2.5t-3 -5.5l-1 -2q-43 -65 -135 -189t-135 -189q-99 -125 -237 -323
q-16 -22 -43 -59.5t-43 -58.5z" />
</svg>