<svg xmlns="http://www.w3.org/2000/svg" xmlns:xlink="http://www.w3.org/1999/xlink" version="1.1" viewBox="-10 0 2058 2048">
   <path fill="currentColor"
d="M1265 742q14 118 -23 214t-128 162q-74 38 -99 63q-18 18 -18 35q0 14 -4 41t-4 40t-6.5 20.5t-20.5 14.5q-17 0 -36 19q-21 14 -25 41t16 48q10 20 26 36q12 14 8.5 25.5t-17.5 18.5q-14 9 -44.5 23t-43.5 23q-14 7 -18 27.5t9 34.5q12 8 23 19t24.5 27t23.5 25
q12 14 8.5 30.5t-17.5 23.5q-5 5 -18 9t-17 8q-58 30 -18 81q0 9 18 27q30 59 -9 98q-56 72 -108 72q-22 0 -62.5 -4.5t-62.5 -4.5q-9 -9 -9 -18q13 -94 44 -282t45 -282q35 -156 45 -259q0 -10 -0.5 -13.5t-1.5 -10t-5 -9t-10 -2.5q-28 0 -28 26q-9 45 -22 139t-22 139
q-14 76 -36.5 223.5t-35.5 223.5q-5 17 -9.5 53t-8.5 54q-57 -23 -71 -80q-7 -33 -7 -71.5t7 -71.5q13 -76 35 -223.5t36 -223.5q22 -90 37 -206q3 -6 3.5 -11.5t-2 -10.5t-4.5 -7l-7 -7q-177 -163 -125 -402q12 -61 45 -110t90 -105q4 14 17 40t18 40q69 141 206 179
q54 13 91.5 -6t51.5 -66q13 -66 -27 -107q-20 -20 -50 -27t-57 0v9q18 18 26 18q62 13 62 72q0 28 -24 47t-55 6l-15 -7.5t-15.5 -8t-14.5 -7.5t-15.5 -9t-13 -9t-14 -10t-11.5 -11q-64 -61 -94 -140t-25 -153.5t33.5 -141t76.5 -110.5q50 -51 114 -70.5t145 -19.5
q128 7 222 78.5t127 190.5q28 128 -9 241l-81 -81q-9 -9 -9 -35q0 -131 -71 -215q-86 -86 -214 -72q-54 5 -96 26.5t-67 52t-40 69t-19.5 75t-1.5 73.5h134q155 7 258 99.5t117 239.5zM1587 1761q13 73 -29 142.5t-122 109.5q-8 0 -12.5 -2t-8.5 -8t-6 -8
q-36 -85 -107.5 -250.5t-107.5 -250.5q-18 -45 -49.5 -130t-48.5 -130q-7 -14 -1.5 -26t19.5 -19q197 -144 197 -375q0 -205 -171 -349q-5 -5 -13.5 -18t-12.5 -18l8 -9q167 42 233 188q87 211 -27 439q-13 27 0 53q8 8 14 18t13.5 26.5t8.5 18.5q14 29 -9 53q0 10 -18 28
q-14 26 -11 41.5t29 28.5q4 4 17 13t18 14q20 13 21.5 23.5t-11.5 30.5q-13 13 -18.5 19t-11.5 18t-6 25q0 9 4.5 27t4.5 27q0 27 27 27q14 0 34 4.5t28 4.5q32 7 41 26.5t-5 45.5q-14 40 0 80q3 10 9 15.5t15 8t14.5 3t15.5 0.5q35 0 35 35zM1052 1234q209 489 312 751
l-9 10q-12 -12 -44 -28q-58 -46 -90 -125q-32 -76 -94.5 -232.5t-93.5 -232.5q-4 -8 -4 -17t2 -20t2 -17q5 -15 10 -44.5t9 -44.5z" />
</svg>