<svg xmlns="http://www.w3.org/2000/svg" xmlns:xlink="http://www.w3.org/1999/xlink" version="1.1" viewBox="-10 0 2068 2048">
   <path fill="currentColor"
d="M1048 1577l474 -473v440q-80 79 -237.5 237.5t-236.5 237.5v-442zM526 1544v-442l472 473q0 74 -1 221.5t-1 221.5q-468 -471 -470 -474zM536 1041l488 -488q82 81 244.5 243t243.5 244q-324 325 -488 488zM0 1021v-445l474 474v444q-82 -83 -240.5 -241t-233.5 -232z
M1572 1053l476 -476v444q-317 316 -476 473v-441zM14 517l486 -488l488 488l-488 489zM1060 517l488 -487l488 488q-242 243 -488 486z" />
</svg>