<svg xmlns="http://www.w3.org/2000/svg" xmlns:xlink="http://www.w3.org/1999/xlink" version="1.1" viewBox="-10 0 2068 2048">
   <path fill="currentColor"
d="M860 366h179v178h-179v-178zM439 572h180v180h-180v-180zM654 572h179v180h-179v-180zM860 572h179v180h-179v-180zM1633 596q33 -1 68 38q55 41 81 108q14 34 35 47t54 7q51 0 117 16q54 14 59 49t-42 69q-27 26 -36 44q-30 25 -66.5 35.5t-94.5 18.5q-55 15 -80 64
q-65 141 -179 268q-142 149 -300 232.5t-344 89.5h-403q-161 -12 -278.5 -107.5t-187.5 -250.5q-17 -42 -26.5 -118.5t-9.5 -123.5q0 -36 7 -63t20 -27q18 1 48 1t124 0.5t185.5 0.5t217.5 -0.5t236 -1t225.5 -2t200 -3.5t145.5 -5t77 -8q60 -13 72.5 -35t-1.5 -81
q-16 -111 9 -198q11 -29 29 -46t38 -18zM233 786h179v180h-179v-180zM439 786h180v180h-180v-180zM654 786h179v180h-179v-180zM860 786h179v180h-179v-180zM1074 786h180v180h-180v-180zM654 1270q-28 0 -50 20t-22 52.5t22 52t50 19.5q34 0 52.5 -19t18.5 -53
q0 -32 -21.5 -52t-49.5 -20zM491 1446q-33 0 -71 12q-35 9 -98.5 7t-105.5 1q101 101 250 150t296 30q-11 -7 -36.5 -20.5t-38 -21.5t-30.5 -20.5t-29 -25.5t-19 -28q-42 -84 -118 -84z" />
</svg>