<svg xmlns="http://www.w3.org/2000/svg" xmlns:xlink="http://www.w3.org/1999/xlink" version="1.1" viewBox="-10 0 2068 2048">
   <path fill="currentColor"
d="M918 4h162q100 0 204 32q184 45 333.5 151t256.5 267q150 232 164 468q0 30 10 52v110q-6 25 -11 72t-9 72q-63 297 -276 510q-259 273 -630 306h-164q-147 -14 -336 -82q-134 -53 -248 -147.5t-200 -220.5q-139 -194 -174 -478v-164q0 -58 22 -162q71 -335 356 -572
q243 -183 540 -214zM1040 148q-121 0 -235 31t-210 86.5t-176.5 135.5t-136.5 175t-87 207t-31 230.5t30 230.5t84.5 207t133.5 175t172.5 135.5t205.5 87t229.5 31.5t230 -31.5t208 -87t176 -135.5t137 -175t89.5 -207t36 -230q0 -118 -31.5 -230t-87 -206t-134.5 -173
t-173 -135t-204.5 -88t-225.5 -34zM1000 392q68 0 120 52t52 122t-49 121t-123 51q-70 0 -122 -52t-52 -120q0 -71 49.5 -122.5t124.5 -51.5zM1182 860v664q4 3 8 11.5t9 13.5t15 5q23 10 50 10h60v82h-610v-82h92q60 0 60 -62v-468q0 -33 -15.5 -52.5t-44.5 -19.5h-102v-82
q81 -4 239 -9t239 -11z" />
</svg>