<svg xmlns="http://www.w3.org/2000/svg" xmlns:xlink="http://www.w3.org/1999/xlink" version="1.1" viewBox="-10 0 2058 2048">
   <path fill="currentColor"
d="M42 914q50 0 86.5 -10.5t57 -26.5t32.5 -40.5t15 -46t3 -49.5q0 -35 -5 -99t-5 -98q0 -36 -6 -102.5t-6 -94.5q0 -177 102.5 -262t291.5 -85h92v220h-46q-83 0 -117.5 46.5t-34.5 138.5q0 22 7 71t7 79q0 21 5 79t5 95q0 73 -14 125t-44 86.5t-68 55t-94 34.5
q56 14 94 34.5t68 54.5t44 86.5t14 124.5q0 37 -5 95t-5 79q0 25 -7 74t-7 65q0 92 34.5 138.5t117.5 46.5h46v220h-92q-90 0 -158 -18.5t-119.5 -59t-78 -108t-26.5 -161.5q0 -128 10 -197q14 -82 14 -197q0 -173 -198 -173zM2006 1110q-196 0 -196 175q0 35 6 98t6 98
q12 69 12 197q0 93 -29 161.5t-82.5 108.5t-123.5 58.5t-159 18.5h-92v-197h46q83 0 116.5 -46.5t33.5 -138.5q0 -88 -12 -139q0 -29 -6 -87t-6 -87q0 -72 14.5 -124.5t44.5 -86.5t68.5 -54.5t94.5 -34.5q-56 -14 -94.5 -34.5t-68.5 -55t-44.5 -87t-14.5 -124.5q0 -37 6 -95
t6 -79q12 -63 12 -150t-36 -132t-114 -53h-46v-220h92q188 0 291 85t103 262q0 35 -6 99t-6 98q-12 75 -12 197q0 28 3.5 49.5t16 46t33 40.5t57 26.5t86.5 10.5v196z" />
</svg>