<svg xmlns="http://www.w3.org/2000/svg" xmlns:xlink="http://www.w3.org/1999/xlink" version="1.1" viewBox="-10 0 2068 2048">
   <path fill="currentColor"
d="M1773 6q121 0 201.5 83.5t72.5 202.5v1464q0 121 -82.5 203.5t-202.5 82.5h-1475q-120 0 -203.5 -83t-83.5 -203v-1464q0 -120 83.5 -203t203.5 -83h1486zM560 1814q84 0 153 -41.5t107 -109.5t38 -147t-40.5 -147.5t-109.5 -108.5t-147.5 -40t-147 40t-109 108.5
t-40.5 147t40.5 147.5t109 110t146.5 41zM1007 1070h-12v-194h-720v194h732zM1007 784h-12v-194h-720v194h732zM1007 498h-12v-182h-720v182h732zM1784 1334v-196h-720v196h720zM1784 1058v-194h-720v194h720zM1784 772v-194h-720v194h720zM1784 498v-194h-720v194h720z" />
</svg>