<svg xmlns="http://www.w3.org/2000/svg" xmlns:xlink="http://www.w3.org/1999/xlink" version="1.1" viewBox="-11 0 2070 2048">
   <path fill="currentColor"
d="M978 641q117 -3 205 63q122 101 96 151q-20 3 -87 23t-102 19q-40 -55 -112 -63.5t-124 32.5q-55 31 -83 92.5t-16 127t66 102.5q46 29 96.5 27.5t96.5 -30.5t70 -75h-176q-80 0 23 -144q5 -7 7 -9q34 -2 152.5 -1.5t152.5 0.5q17 2 28.5 -11t16 -30.5t13 -37.5t20.5 -29
q59 -96 165.5 -148t224.5 -50q85 -1 162.5 41.5t125.5 117t48 160.5q6 78 -22 152.5t-79.5 131.5t-121.5 96t-145 51q-86 17 -172.5 -6.5t-153 -84.5t-88.5 -145q-56 117 -172.5 185.5t-243.5 55.5q-83 -5 -155.5 -51t-114.5 -121t-39 -159q-2 -85 34.5 -165t97 -138.5
t141.5 -94t165 -35.5zM1675 833q-38 1 -84 21q-45 17 -78 58t-45.5 88t0 96.5t52.5 81.5q40 34 92.5 38t98.5 -16.5t82 -60.5t47 -89q16 -51 -2.5 -103.5t-63.5 -85t-99 -28.5zM180 837h322q29 -7 33.5 5t-17.5 30q-28 3 -168.5 2t-168.5 -1q-31 9 -30 -7q2 -15 25 -27z
M29 928h412q16 -3 28.5 -1t17 10.5t-9.5 25.5q-87 2 -248.5 2h-198.5q-32 9 -30 -8q3 -16 25 -28q2 0 4 -1zM262 1020h156q26 -5 42 3t4 33q-11 3 -94 2.5t-93 -0.5q-30 8 -35 -8t20 -30z" />
</svg>