<svg xmlns="http://www.w3.org/2000/svg" xmlns:xlink="http://www.w3.org/1999/xlink" version="1.1" viewBox="-10 0 2068 2048">
   <path fill="currentColor"
d="M298 26l-2 5h168l86 305l4 325l80 -46l374 1408l-952 -1397l130 -155l-186 -171zM1586 32v-7h166l296 275l-186 171l130 155l-950 1396l372 -1408l80 47l6 -325zM590 80l274 154q5 179 -4 189l-276 169zM1456 86l4 511l-270 -168q-5 -4 -6.5 -51.5t-0.5 -92.5l1 -45z
M1460 597v1v-1v0zM896 259v157h258v-157h-258zM1018.5 575q-28.5 0 -48.5 20.5t-20 49.5v1q0 28 20 48.5t48.5 20.5t48 -20t19.5 -49v-1q0 -29 -19.5 -49.5t-48 -20.5zM1018.5 1004q-28.5 0 -48.5 20t-20 49v2q0 28 20 48t48.5 20t48 -19.5t19.5 -48.5v-2q0 -29 -19.5 -49
t-48 -20zM1018.5 1432q-28.5 0 -48.5 20.5t-20 49.5v1q0 29 20 49t48.5 20t48 -20t19.5 -49v-1q0 -29 -19.5 -49.5t-48 -20.5z" />
</svg>