<svg xmlns="http://www.w3.org/2000/svg" xmlns:xlink="http://www.w3.org/1999/xlink" version="1.1" viewBox="-10 0 2068 2048">
   <path fill="currentColor"
d="M0 0h2048v46v1945q0 35 -11.5 46t-46.5 11h-1990v-2048zM512 433q-47 0 -108.5 7t-61.5 15v1081q0 18 7.5 37.5t14.5 19.5h206v-410q29 -3 75.5 -6.5t71 -6t59.5 -8t66 -13.5q137 -34 209.5 -137.5t64.5 -249.5q-9 -132 -88 -217t-220 -102q-82 -10 -296 -10zM570 604
q39 4 86 8t72.5 6.5t57.5 7.5q52 18 83 59t31 100q0 30 -3.5 53.5t-12.5 49.5t-28.5 46.5t-47.5 32.5q-58 24 -107 28t-131 -5v-386zM1468 739q-50 0 -114 13q-94 26 -151 82.5t-65 132.5q-9 93 33 156t137 106q5 1 26.5 8t32 10.5t27.5 11t28 15.5q44 26 60.5 53t7.5 61
q-7 41 -36.5 59.5t-65.5 9.5q-29 -5 -106.5 -22.5t-121.5 -23.5q-15 49 -34 125q0 9 8 21.5t16 12.5q219 92 410 12q68 -26 109 -78t49 -127q0 -85 -34.5 -144t-101.5 -84q-18 -9 -61.5 -26t-62.5 -30q-15 -10 -42 -21.5t-40 -24.5q-34 -25 -26.5 -66.5t50.5 -58.5
q22 -11 78 -11q72 17 160 34q5 -23 17 -63t17 -63q8 -8 -2.5 -26.5t-19.5 -18.5q-87 -34 -182 -35z" />
</svg>