<svg xmlns="http://www.w3.org/2000/svg" xmlns:xlink="http://www.w3.org/1999/xlink" version="1.1" viewBox="-10 0 2068 2048">
   <path fill="currentColor"
d="M968 0h136q28 6 79.5 12t80.5 11q204 51 374 171q71 55 123.5 108.5t92.5 117.5q148 196 182 456q0 10 6 35.5t6 43.5v148q-5 21 -11.5 64.5t-12.5 61.5q-56 226 -170 386q-114 162 -306 285q-109 60 -202.5 94.5t-195.5 42.5q-12 0 -34.5 5.5t-33.5 5.5h-150
q-20 -5 -63 -11t-61 -12q-226 -56 -386 -170q-161 -113 -284 -307q-60 -108 -95 -202.5t-43 -196.5q5 -5 5 -14t-2.5 -25t-2.5 -29v-136q6 -29 12 -80t12 -80q51 -206 170 -375q108 -152 308 -274q176 -108 374 -124q18 0 46.5 -6t45.5 -6zM1002 171q-113 3 -220.5 35
t-200 88t-170 136t-131 175t-82.5 208.5t-26 233.5q2 115 35 224t89.5 201.5t136.5 170t174 132t204 84.5t225 30q117 0 229 -32t206.5 -89.5t173.5 -139.5t133.5 -179.5t83.5 -212.5t26 -235q-2 -112 -35 -220t-90.5 -200t-138.5 -169.5t-177.5 -131.5t-210.5 -83t-234 -26
zM1026 349q17 0 30.5 15t13.5 35v625q12 -12 40 -29t40 -28q16 -11 72.5 -49t82 -55.5t67 -47t72.5 -53.5q5 -4 11 -7.5t9.5 -6.5t3.5 -8q18 -16 39.5 -11.5t40.5 23.5q15 19 11 39.5t-23 39.5q-17 12 -57 40t-57 40q-20 15 -76 53t-97 68t-77 61q-22 17 -62 45t-62 45
q-26 17 -53 4.5t-27 -38.5v-739q0 -57 44 -57q10 -4 14 -4z" />
</svg>