<svg xmlns="http://www.w3.org/2000/svg" xmlns:xlink="http://www.w3.org/1999/xlink" version="1.1" viewBox="-10 0 2058 2048">
   <path fill="currentColor"
d="M1842 1285q64 43 86 115t-12 136q-42 63 -115.5 81.5t-136.5 -16.5q-37 -18 -46 -37l-419 242q9 18 9 55q0 77 -54.5 132t-130.5 55t-131 -55t-55 -132q0 -8 4.5 -24t4.5 -31l-419 -242q-12 25 -37 37q-71 40 -143.5 20t-108.5 -85q-40 -71 -19.5 -143t85.5 -108
q19 -19 47 -19v-484q-8 0 -14.5 -2t-17.5 -8.5t-15 -8.5q-63 -42 -82 -115t16 -136q36 -65 108.5 -85t143.5 20q3 3 11 9t15 13t11 15l419 -242q-9 -18 -9 -55q0 -77 55 -132t131 -55t130.5 55t54.5 132q0 8 -4.5 24t-4.5 31l419 242q12 -25 37 -37q71 -40 143.5 -20
t108.5 85q40 71 20 143t-85 108q-19 19 -47 19v484q8 0 14.5 2t17.5 8.5t15 8.5zM474 1405h1097q0 -8 2.5 -14.5t8.5 -15.5t9 -15q0 -11 27 -38l-548 -959q-9 9 -47 9q-3 0 -20 -4.5t-27 -4.5l-549 959q20 20 29 38q18 18 18 45zM1571 550l-409 -243l-9 9l540 941h9v-484
q-68 -13 -111 -85q-35 -59 -20 -138zM892 307l-427 252q15 81 -20 140q-42 70 -111 83v484h9zM1153 1741l418 -243v-9h-1097v9l418 243q41 -56 131 -56q74 0 130 56z" />
</svg>