<svg xmlns="http://www.w3.org/2000/svg" xmlns:xlink="http://www.w3.org/1999/xlink" version="1.1" viewBox="-10 0 2058 2048">
   <path fill="currentColor"
d="M1050 0q67 -1 129 7t124.5 27t116 55.5t89.5 88.5q27 37 47 76.5t32 86t20 82.5t12.5 93t6 87t3 94t1.5 87q1 89 4 186t7.5 224.5t5.5 185.5q-1 276 -110 427q-15 24 -41 46.5t-43 34t-56 34.5t-50 29q-204 82 -503 53q-144 -10 -259 -115q-46 -11 -83.5 -49.5t-58.5 -83
t-32 -95.5q-10 -91 -10 -189.5t5.5 -233t5.5 -190.5q5 -22 2.5 -60t-5 -60t-7.5 -60t-8 -61q-8 -91 -8.5 -166.5t9 -162t38.5 -165t76 -143.5q39 -43 91 -75t102 -49.5t115 -27.5t115 -13.5t117 -4.5zM1225 80q-44 2 -85.5 26.5t-66.5 62.5q-31 42 -31.5 95.5t23.5 98
t68.5 74.5t95.5 28q77 6 140.5 -41t64.5 -123q9 -44 -6 -86.5t-45.5 -72t-72.5 -47t-85 -15.5zM1546 81q44 -1 83 16.5t55 54.5q30 31 3 96q-22 52 -54 66q-30 15 -42 -29q-12 -14 -10 -28t11 -25t12.5 -25.5t-5.5 -28.5q-35 6 -77 -28q-40 -31 -26 -52q10 -16 50 -17z
M1254 102q31 2 65 20q54 24 80 80t14 115.5t-62 92.5q-36 28 -82.5 33t-88 -9t-74 -47t-43.5 -78q-10 -41 3 -81t41 -68.5t67.5 -44.5t79.5 -13zM752 104q-68 -4 -128 43.5t-65 115.5q-11 64 19.5 123t90.5 82q41 22 87 19t86 -21.5t69.5 -55t37.5 -81.5q13 -56 -12.5 -110
t-76.5 -86t-108 -29zM428 112q31 1 48 4.5t25 11.5t0 22t-32 36q-17 2 -35 9.5t-31.5 18.5t-12.5 27.5t21 33.5q8 21 0 40t-23 28.5t-34 3t-33 -32.5q-24 -29 -25.5 -66t15.5 -67.5t49 -50.5t68 -18zM760 127q31 2 46 7q59 9 93.5 59t31.5 111.5t-44 102.5q-32 38 -82 51
t-96.5 2.5t-83.5 -45t-46 -84.5q-13 -52 10.5 -102.5t71 -79t99.5 -22.5zM1139 225q-33 6 -50.5 35.5t3.5 58.5q37 51 80 25q32 -19 37 -57q7 -45 -37 -58q-14 -4 -33 -4zM643 240q-25 7 -37.5 28.5t-10.5 43.5t19 38.5t44 14.5q49 3 61 -39q10 -38 -16 -68q-23 -26 -60 -18
zM998 405q-18 2 -34 6q-7 7 -31.5 28t-40 37t-30 37.5t-12 43t22.5 40.5q22 -3 34 0.5t14.5 13.5t2 21t-3 28.5t-2.5 28.5q1 30 14 38.5t28.5 1.5t33 -13t23.5 -1q22 17 38.5 17.5t25.5 -11.5t13.5 -30t4 -38.5t-4.5 -37.5q5 -3 16 -7.5t21 -9t20 -11.5t15.5 -15.5t4.5 -21
t-11 -28.5q-18 -12 -38.5 -34.5t-34.5 -40t-37.5 -30.5t-51.5 -12zM1074 478q36 8 59 46q26 40 0 58q-14 10 -43 8q-22 -19 -54.5 -20t-59 7.5t-56 7.5t-48.5 -21q0 -39 14.5 -55t38.5 -14.5t50.5 6.5t54.5 1t44 -24zM997 588q4 0 3 10.5t-1 11.5q9 37 -9 79q-19 46 -47 15
q-4 -5 -9 -12q-3 -26 -2 -50t18 -40t47 -14zM1026 590q37 1 51 28.5t7 64.5q-20 50 -46 25q-24 -22 -25 -70q0 -31 13 -48zM1671 998q25 6 36.5 9t30 12.5t29.5 21.5q10 16 12 25.5t-2.5 13t-13 3t-18 -3t-20.5 -7.5q39 16 26 33q-12 15 -41 9q-20 -4 -32 -19
q-26 -9 -25 -46t18 -51zM376 1015q20 11 21.5 32t-10 41.5t-31 36.5t-38.5 19q-24 2 -30.5 -5.5t1 -18t13.5 -19.5t6.5 -11t-20.5 7q-36 -4 -10 -34q27 -32 70 -45q17 -5 28 -3zM1500 1883q60 6 92 95q3 36 -10 31q-10 -3 -34 -35q-9 -12 -11 -13l3 11q2 6 6 16q30 41 3 47
q-25 5 -55 -19q-17 -13 -22 -30q-30 -9 -40.5 -27t-3 -34.5t27.5 -29t44 -12.5zM555 1891q20 -4 61 29q44 35 27 48q-3 3 -8 4q-9 5 -37 24q-83 58 -105 51q-17 -5 -9 -45q30 -36 19 -34q-11 3 -29 28q-10 13 -13 26q-20 -15 -15 -36.5t22.5 -41.5t42.5 -35t44 -18z" />
</svg>