<svg xmlns="http://www.w3.org/2000/svg" xmlns:xlink="http://www.w3.org/1999/xlink" version="1.1" viewBox="-10 0 2068 2048">
   <path fill="currentColor"
d="M376 1884h-186q-41 -81 -78 -182q-36 -95 -60 -200q-23 -98 -38 -224q-14 -126 -14 -254q0 -140 14 -261q13 -107 38 -214q23 -104 58 -200q42 -108 80 -185h186v25q-38 58 -78 146q-34 71 -70 189q-30 101 -50 230q-18 124 -18 270q0 154 18 272q21 128 50 229
q35 112 68 188q37 81 80 146v25zM2048 1024q0 137 -14 254q-14 126 -36 224q-24 98 -62 200q-37 101 -78 182h-184v-25q42 -65 78 -146q44 -97 68 -188q30 -101 50 -229q18 -112 18 -272q0 -146 -18 -270q-21 -136 -50 -230q-35 -118 -68 -189q-41 -88 -78 -146v-25h184
q45 90 80 185q35 92 60 200q24 107 36 214q14 113 14 261zM522 855q-67 0 -114 -49q-46 -47 -46 -120t46 -120q49 -47 118 -47q70 0 116 48q46 46 46 119q0 75 -47 122t-119 47zM522 1598q-67 0 -114 -49q-46 -47 -46 -119q0 -74 46 -121q49 -47 118 -47q70 0 116 48
q46 46 46 120q0 72 -48 121q-46 47 -118 47zM1636 1573h-264v-150h-4q-91 175 -266 175q-134 0 -208 -85q-74 -86 -74 -230q0 -303 310 -349l244 -38q0 -171 -160 -171t-306 111v-243q59 -34 158 -60q108 -27 186 -27q384 0 384 445v622zM1374 1150v-71l-164 25
q-134 21 -134 141q0 56 32 91q32 34 90 34q78 0 128 -62q48 -62 48 -158z" />
</svg>