<svg xmlns="http://www.w3.org/2000/svg" xmlns:xlink="http://www.w3.org/1999/xlink" version="1.1" viewBox="-10 0 2058 2048">
   <path fill="currentColor"
d="M1233 1311q0 25 -4.5 82t-4.5 82q-21 344 -21 491v72q0 10 -10 10l-308 -61q-25 -5 -71 -10.5t-72 -10.5q-102 -20 -132 -20q-66 -10 -199.5 -36t-200.5 -36q-45 -18 -164 -41q-9 0 -9 -21q18 -104 40 -348q0 -10 5 -35.5t5 -35.5q5 -5 6 -18t6 -23q5 -27 10 -81t10 -83
q20 -102 20 -164q40 -268 51 -410q0 -41 40 -61l185 -61q8 0 14 -8.5t6 -22.5q25 -143 134 -307q68 -101 153 -144q20 0 56 -5t57 -5q84 0 123 51q10 10 21 10q85 0 132 62q34 45 72 123q0 10 20 10q10 -5 25.5 -10t25.5 -10q15 0 17.5 2.5t2.5 17.5q0 46 -4.5 133t-4.5 133
q-5 57 -10 174.5t-10 173.5q-5 71 -10.5 209.5t-10.5 210.5q9 9 9 21zM476 1260q39 39 73 61q56 36 70 92q8 39 -8 67.5t-53 35.5h-50q-76 -13 -155 -72q-7 -8 -10 -6.5t-10 16.5q-19 78 -41 123q-14 44 20 61q139 109 298 93q84 -7 144 -52.5t91 -122.5q31 -79 31 -153
t-52 -143q0 -5 -4.5 -10.5t-4.5 -10.5q-14 -24 -39 -46.5t-42.5 -34t-52.5 -32.5q-22 -11 -62 -51q-25 -38 -7.5 -88.5t69.5 -64.5q94 -13 195 20q8 7 14 2.5t6 -12.5l62 -184q8 -23 5.5 -28.5t-25.5 -12.5q-98 -27 -216 -11q-131 25 -220 110.5t-96 217.5q-30 136 70 236z
M885 82q-10 -10 -20 -10q-9 -4 -19.5 -4t-26 2t-26.5 2q-81 27 -142 102q-85 97 -143 287v2q0 6 1 7t8 1q25 -5 71 -20.5t72 -20.5q4 0 7 -2.5t4 -5.5l1 -2q0 -10 4.5 -31t4.5 -31q36 -100 81.5 -167t122.5 -109zM958 297q0 -51 -20 -133q-7 -15 -10.5 -16.5t-10.5 6.5
q-47 24 -61 51q-61 76 -93 174v10h11q29 -6 78.5 -21.5t64.5 -19.5q31 -7 36 -13.5t5 -37.5zM1040 317q20 -10 82 -30v-11q-16 -67 -61 -112q-21 -21 -41 -31h-12v10q0 5 6 20.5t6 20.5q9 28 9 113q0 20 11 20zM1982 1679l29 215q0 12 -9 21q-62 10 -180 36t-179 36
q-163 40 -255 51q-3 0 -9.5 2t-5 -0.5t3.5 -11.5q0 -69 11 -103q5 -72 9.5 -210.5t9.5 -209.5v-102q0 -69 11 -103v-71q5 -92 16 -271.5t16 -271.5v-102q9 -74 9 -236v-102h6t3.5 1t1.5 3v6l40 41q7 7 19 16.5t20 17.5t12 17q11 21 51 21q20 0 66 5t67 5q8 0 14.5 6.5
t6.5 13.5q5 21 10 62t10 61q5 36 15.5 102.5t15.5 102.5q10 51 25.5 158.5t25.5 158.5q15 87 40.5 261.5t41.5 261.5q5 20 16 56t16 56z" />
</svg>