<svg xmlns="http://www.w3.org/2000/svg" xmlns:xlink="http://www.w3.org/1999/xlink" version="1.1" viewBox="-10 0 2068 2048">
   <path fill="currentColor"
d="M0 1396l268 -744h142l268 744h-148l-72 -199h-280l-72 199h-106zM208 1104h214l-104 -300zM714 1390v-126q153 52 244 52q71 0 116 -26q22 -14 32 -31t10 -42q0 -41 -24 -60q-33 -35 -98 -60l-62 -26q-100 -51 -170 -113q-48 -51 -48 -119q0 -100 80 -147q82 -60 218 -60
q117 0 238 27v119q-142 -40 -220 -40q-63 0 -98 20q-36 28 -36 60q0 35 26 54q30 24 96 59l62 27q125 59 176 113q48 52 48 126q0 51 -23 93t-67 66q-83 60 -250 60q-117 0 -250 -26zM1360 1396v-737h188l164 524l170 -524h166v737h-134v-564l-164 512h-116l-166 -519v571
h-108z" />
</svg>