<svg xmlns="http://www.w3.org/2000/svg" xmlns:xlink="http://www.w3.org/1999/xlink" version="1.1" viewBox="-10 0 2068 2048">
   <path fill="currentColor"
d="M535 23q94 0 162 61.5t77 155.5v226q-9 94 -77 155.5t-162 61.5t-162 -62t-77 -155v-226q9 -93 77 -155t162 -62zM0 319q0 -34 23 -56.5t57 -22.5h148v226h-148q-34 0 -57 -22.5t-23 -56.5v-68zM1968 240q34 0 57 22.5t23 56.5v68q0 34 -23 56.5t-57 22.5h-1114v-226
h1114zM1514 694q94 0 162 62t76 155v227q-8 93 -76 154.5t-162.5 61.5t-162 -61.5t-75.5 -154.5v-227q8 -94 76 -155.5t162 -61.5zM0 990q0 -34 23 -56.5t57 -22.5h1114v227h-1114q-34 0 -57 -23t-23 -57v-68zM1968 911q34 0 57 22.5t23 56.5v68q0 34 -23 57t-57 23h-148
v-227h148zM912 1365q93 0 161 61.5t77 155.5v227q-9 93 -76.5 154.5t-161.5 61.5q-95 0 -163.5 -61.5t-76.5 -154.5v-227q8 -93 76.5 -155t163.5 -62zM1968 1582q34 0 57 22.5t23 56.5v69q0 34 -23 56.5t-57 22.5h-750v-227h750zM0 1661q0 -34 23 -56.5t57 -22.5h524v227
h-524q-34 0 -57 -22.5t-23 -56.5v-69z" />
</svg>