<svg xmlns="http://www.w3.org/2000/svg" xmlns:xlink="http://www.w3.org/1999/xlink" version="1.1" viewBox="-10 0 2068 2048">
   <path fill="currentColor"
d="M844 95q153 -6 296.5 50.5t263.5 179.5l-252 288q-274 -182 -457 -80q-130 73 -183 266q-51 186 -9 384q43 202 160 297q152 124 370 11q69 -36 141 -96l252 288q-96 111 -212.5 177.5t-233 84.5t-237 -2.5t-228.5 -75t-203 -141.5t-163.5 -194.5t-108.5 -241t-40 -274.5
q0 -126 33 -245.5t90.5 -218.5t137.5 -182.5t173.5 -142.5t198.5 -93.5t211 -38.5zM1794 786h92l162 495h-92l-34 -116h-162l-34 116h-92zM858 787h82v268q0 55 4 81q5 34 26 51t54 17h2q22 0 44 -13q16 -12 24 -34q6 -18 6 -96v-274h82v260q0 100 -10 143t-50 72
q-38 28 -96 28q-62 0 -98 -23q-38 -23 -54 -65q-16 -43 -16 -152v-263zM1268 787h148q56 0 86 13q27 12 52 42q25 29 38 78q14 46 14 119q0 66 -14 111q-16 49 -38 75q-24 29 -54 42q-32 14 -80 14h-152v-494zM1348 871v325h62q39 0 58 -7q18 -8 28 -22q11 -13 18 -47
q8 -31 8 -84q0 -59 -8 -87q-5 -29 -24 -50q-15 -16 -40 -24q-14 -4 -68 -4h-34zM1840 900l-56 185h116z" />
</svg>