<svg xmlns="http://www.w3.org/2000/svg" xmlns:xlink="http://www.w3.org/1999/xlink" version="1.1" viewBox="-10 0 2068 2048">
   <path fill="currentColor"
d="M450 275h338v948q0 157 -36 269t-107 178.5t-168 97t-227 30.5q-61 0 -133 -9.5t-117 -27.5l38 -275q76 38 174 38q55 0 96 -14t74 -47t50.5 -93.5t17.5 -146.5v-948zM1088 1424q71 41 174 70.5t200 29.5q119 0 177.5 -43t58.5 -120q0 -72 -55.5 -117.5t-192.5 -94.5
q-199 -69 -306.5 -178t-107.5 -271q0 -98 39.5 -181t112 -142.5t181 -93t241.5 -33.5q218 0 388 74l-74 275q-2 0 -34 -13.5t-43.5 -17.5t-45.5 -15t-58 -15t-60.5 -8.5t-72.5 -4.5q-108 0 -166 41t-58 109q0 21 6 39.5t15 33t28.5 29.5t37.5 26.5t51.5 27t61 26.5t74.5 30
q199 76 293.5 184t94.5 266q0 95 -38.5 177.5t-112 146.5t-192 100.5t-269.5 36.5q-119 0 -232.5 -26t-191.5 -61z" />
</svg>