<svg xmlns="http://www.w3.org/2000/svg" xmlns:xlink="http://www.w3.org/1999/xlink" version="1.1" viewBox="-10 0 2062 2048">
   <path fill="currentColor"
d="M2042 1123q0 15 -0.5 28.5t-3.5 31t-4 24.5t-6 31.5t-6 27.5h-1346q-67 0 -100 35t-33 98q0 54 37 83t106 29h1244q-122 230 -319 365t-457 165q-133 16 -264.5 -3t-248 -67t-220.5 -124t-183.5 -171.5t-135.5 -213t-79 -246.5q-19 -116 -16.5 -228.5t31.5 -219.5
t76 -203.5t116.5 -181.5t152.5 -153.5t183.5 -119.5t210.5 -79q131 -31 260 -31t256 36t238.5 97.5t207 153.5t161.5 203q-23 11 -82 11h-664q-53 0 -87 34.5t-34 88.5t29 83t82 29h857q31 76 31 152h-1111q-69 0 -106.5 31t-37.5 92q0 54 37.5 83t106.5 29h1029
q46 -14 92 0z" />
</svg>