<svg xmlns="http://www.w3.org/2000/svg" xmlns:xlink="http://www.w3.org/1999/xlink" version="1.1" viewBox="-10 0 2068 2048">
   <path fill="currentColor"
d="M234 996q0 -38 -9 -47q-14 -14 -36.5 -12t-28.5 22q-20 35 -3.5 66.5t59.5 45.5q27 8 49.5 3.5t42.5 -23.5q6 -6 26.5 -22t30 -24t26 -21.5t30 -26.5t27.5 -26q8 -7 31 -27t33 -28.5t30.5 -24.5t35 -25t34.5 -19t41 -16q193 -66 317 46l56 56l19 19q9 -18 28 -37
q88 -103 224 -103q152 0 270 103q28 23 79 69.5t79 70.5q44 44 94 56q34 6 65.5 -10.5t45.5 -45.5q12 -36 -18 -66q-25 -25 -56 -9q-14 7 -20 20t1 27v9q-36 -24 -36 -74q0 -47 55 -65q64 -21 118 10.5t68 100.5q17 105 -18 177q-34 81 -149 113q-48 14 -96 17t-95.5 -4.5
t-90 -19.5t-91.5 -31l-252 -113q-165 -75 -327 -36q-81 22 -205 74q-17 7 -59.5 27t-63.5 29t-55 22.5t-63 23.5q-169 62 -308 11q-179 -66 -167 -253q8 -57 27.5 -92t64.5 -47q28 -14 60.5 -14t61.5 14q31 13 43.5 37t5 49t-30.5 44z" />
</svg>