<svg xmlns="http://www.w3.org/2000/svg" xmlns:xlink="http://www.w3.org/1999/xlink" version="1.1" viewBox="-10 0 2058 2048">
   <path fill="currentColor"
d="M2009 1411q0 87 -10 127q-23 89 -95.5 129t-160.5 10q-11 -3 -29 -8q-23 -7 -32 -9.5t-23 -2.5t-18.5 2t-16.5 13.5t-19 21.5t-24 36q-3 4 -5 6q-76 113 -99 207l-30 59q-13 39 -69 39q-235 14 -482 -78q-25 -5 -70 -15t-69 -15q0 5 -4.5 9.5t-4.5 9.5q19 10 59 50
l-177 30q-121 26 -287 9q-61 0 -89 -59q-92 -259 -196 -512q-20 -38 -20 -80v-49q4 -8 11.5 -15.5t16 -14t11.5 -9.5q0 19 20 39q9 9 20 30q26 -95 59 -197q27 -74 60.5 -135t78 -116t104 -97t131.5 -67q66 -23 136 -34t133.5 -10t135.5 5q15 0 49 4.5t49 4.5q96 14 177 80
q84 84 188 59q8 -8 10 -9t9 -1q31 -16 43 -28.5t9.5 -31t-22.5 -48.5q-70 -93 -98 -139q-45 -79 -129 -241t-128 -241q-9 -13 -13.5 -28t-9 -33t-7.5 -28q0 -16 9.5 -28t30.5 -12q83 0 139.5 24.5t97.5 93.5q31 53 58.5 113t66.5 155.5t52 126.5q46 105 118 207
q14 18 29.5 32t42.5 32.5t36 24.5q9 9 40 9v-39q-5 -34 -20 -98.5t-20 -99.5q-5 -44 -19 -137t-19 -138q0 -59 59 -59q34 0 53 17t35 51q23 60 41 134.5t27 126t21 134.5q20 118 39 177q9 32 10.5 67.5t-1.5 59.5t-9 61q-17 183 10 336zM1901 1293q0 -10 -30 -40
q-10 -11 -20 -11q-121 -62 -246 -48q-14 7 -79 29q7 7 25 27t29 29.5t25 13.5q92 48 256 29q11 0 40 -29z" />
</svg>