<svg xmlns="http://www.w3.org/2000/svg" xmlns:xlink="http://www.w3.org/1999/xlink" version="1.1" viewBox="-10 0 2068 2048">
   <path fill="currentColor"
d="M982 574h-358v1078h-264v-1078h-360v-190h972v190h10zM1794 1324q0 -37 -12.5 -63t-39.5 -53q-6 -6 -14.5 -12t-20.5 -12.5t-21.5 -11t-27 -11.5t-28 -11t-33.5 -12.5t-35 -13.5q-216 -61 -348 -158q-116 -99 -116 -244q0 -162 138 -252q128 -96 336 -96q204 0 338 118
q128 110 128 272h-244q0 -45 -15 -79.5t-47 -66.5q-70 -54 -170 -54q-102 0 -158 42q-52 41 -52 116q0 58 62 106q30 22 75.5 39.5t136.5 44.5q205 63 316 158q106 90 106 254q0 82 -32.5 149t-95.5 105q-128 96 -336 96q-223 0 -360 -106q-160 -125 -146 -308h252
q0 112 74 170q32 24 83.5 38t106.5 14q116 0 158 -42q42 -64 42 -116z" />
</svg>