<svg xmlns="http://www.w3.org/2000/svg" xmlns:xlink="http://www.w3.org/1999/xlink" version="1.1" viewBox="-10 0 2067 2048">
   <path fill="currentColor"
d="M1955 970q44 22 64 59t28 96q0 76 -37.5 112t-116.5 43v10q0 15 -6.5 29t-13.5 21.5t-21 21.5q-71 56 -164 41h-21q-47 55 -121 68t-136 -26q-5 0 -10.5 -5.5t-10.5 -5.5q-28 29 -67 34.5t-76 -4.5q-41 -10 -103 -30l10 11q18 23 36 53.5t37.5 67t29.5 53.5q14 59 0 103
q0 15 -12 29t-29 22q-4 0 -6.5 3t-3.5 6v2q0 49 -28 71.5t-75 31.5q-7 0 -19.5 -2t-23 -2t-19.5 4q-12 0 -28.5 14t-23.5 17q-61 32 -123 0q-15 -15 -31 0q-38 16 -82.5 -2t-60.5 -50q-11 -16 -27 -65.5t-25 -68.5q0 -5 -5 -10t-5 -10q-5 5 -15.5 20.5t-15.5 20.5
q-30 30 -70 42t-80 5.5t-77 -27.5q-11 -11 -40.5 -39t-46.5 -45.5t-39.5 -43t-36.5 -47.5q-191 -286 -206 -607q-8 -157 39 -305.5t146 -270.5q205 -252 524 -298q77 -8 153.5 4t134.5 48q163 104 226 277q0 8 6.5 14t14.5 6q11 5 36 10.5t35 10.5q25 -52 63 -97.5
t81.5 -76.5t92.5 -55.5t95.5 -34.5t91.5 -12.5t80 9.5l-21 21q-85 85 -102 225q-13 41 -31 114q-39 92 -101 141t-156 65h-72q-7 7 -14 3t-7 -13q-5 -5 -10.5 -21t-10.5 -21q-53 8 -73.5 25.5t-28.5 57.5q22 0 55 5t47 5q42 7 170.5 26.5t215.5 36t170 39.5q23 6 57.5 22
t45.5 19zM1502 693l7 -1q-2 -1 -17 -9q-10 -5 -30.5 -10.5t-31.5 -10.5q-23 -7 -29 -4.5t-22 25.5q0 -28 -7.5 -34.5t-33.5 -6.5q-8 0 -9.5 1.5t-1.5 8.5q5 11 10.5 31.5t10.5 30.5q0 5 2.5 7.5t5.5 2.5h2q84 0 144 -31zM1368 477q0 5 -5 15.5t-5 15.5q11 5 26.5 15.5
t25.5 15.5q20 -36 31 -54t30 -45.5t36 -43t42.5 -33t55.5 -29.5q-15 11 -28.5 23t-27 29.5t-21.5 26.5t-22.5 33t-18 29t-19.5 34t-17 30v20q7 6 27.5 21t29 21.5t22 18t24.5 22.5q0 -3 10.5 -16.5t10.5 -25.5q22 -53 41 -154q3 -10 7.5 -42.5t12 -57t21.5 -43.5
q10 -21 31 -42q-78 0 -165 52q-33 27 -55.5 46t-51.5 52t-48 66zM1091 652q0 59 11 93h10q9 -3 39 -14.5t44.5 -18t36 -17.5t35.5 -22q9 -11 9 -21q-8 3 -21 7.5t-20.5 7t-18.5 4.5t-22 2q-29 9 -55 5t-48 -26q93 18 145 -21q69 -28 163 -10q11 5 37 10.5t36 10.5
q-10 -5 -25.5 -21t-26.5 -21q-117 -88 -267 -103q-20 1 -20 11q-42 56 -42 144zM782 406q-79 0 -131.5 50.5t-52.5 133.5q0 78 53.5 132t130.5 54t131.5 -54t54.5 -132q0 -75 -57 -129.5t-129 -54.5zM1256 1032q62 2 100 3t100.5 -2.5t100 -6t98.5 -7t95 -7.5q0 -4 -2.5 -7
t-5.5 -3l-3 -1q-72 -12 -340 -62q-154 -16 -256 -29h-21q-40 40 -61 71q-42 82 -73 113q-65 74 -130.5 117t-146.5 58q-111 14 -226 -20h-21q-34 25 -72 36.5t-72 10.5t-72 -6q-44 -14 -113 -31q0 5 5.5 10.5t5.5 10.5q85 185 246 287q186 140 411 124q117 -7 200 -84
t99 -193v-31q-7 -28 -31 -103q35 25 79.5 29t78 -12.5t38.5 -47.5q11 0 36 5t35 5q62 0 103 -41q16 -7 22 -26.5t-2 -35.5h21q30 8 63.5 -4.5t49.5 -36.5q14 -15 10.5 -23t-20.5 -8q-42 -5 -106 -16.5t-80 -14.5q-57 0 -143 -21zM782 693q-51 0 -81.5 -30.5t-30.5 -72.5
q0 -40 33 -71.5t79 -31.5q48 0 81 29t33 74.5t-33 74t-81 28.5zM722 508q-29 14 -11 51q31 16 64 16t49 -15.5t16 -29.5t-16 -22q-10 -5 -25.5 -10.5t-26.5 -10.5q-8 4 -26 10t-24 11z" />
</svg>