<svg xmlns="http://www.w3.org/2000/svg" xmlns:xlink="http://www.w3.org/1999/xlink" version="1.1" viewBox="-10 0 2068 2048">
   <path fill="currentColor"
d="M1064 226q20 1 38.5 17t23.5 36q2 160 1.5 721t-0.5 721q6 24 -3.5 48t-27.5 38.5t-42 14.5t-44 -20q-78 -63 -243.5 -204.5t-253.5 -212.5q-40 -2 -178 -1.5t-178 0.5q-11 -1 -34.5 0t-39 0.5t-34 -4t-31 -15.5t-17.5 -32v-511q0 -6 -0.5 -25t-0.5 -28.5t1.5 -26.5
t6 -27t11 -21t18.5 -17.5t28 -8.5q83 -3 231.5 -2t231.5 0q48 -46 143.5 -129t112.5 -98q29 -21 67 -56.5t66.5 -63.5t68 -55t78.5 -38zM1707 238q34 0 65 31q114 139 180.5 312t83.5 361q0 9 0.5 27.5t1 29t3 24t7.5 24.5q-22 276 -118 487q-8 15 -26 51t-28.5 55.5
t-29.5 51t-35.5 50.5t-40.5 39t-50 32q-51 1 -70 -29t-6 -69t45 -65q126 -171 172 -386t6.5 -431t-159.5 -391q-24 -23 -42.5 -53t-28 -62t7 -57t62.5 -32zM1518 407q27 0 47 20q85 107 136 233.5t59 259.5q25 158 -13.5 322.5t-128.5 305.5q-11 55 -64 66q-48 10 -82 -21
q-42 -36 -9 -88q2 -2 3 -4q93 -124 133.5 -277t21 -312t-99.5 -291q-17 -21 -31.5 -44t-26.5 -52t-13.5 -52.5t15 -42t53.5 -23.5zM1321 636q42 2 62 31q93 151 101.5 331.5t-76.5 336.5q-8 54 -60 71q-46 15 -79 -11q-34 -26 -18 -77q72 -109 84.5 -243.5t-39.5 -254.5
q-17 -23 -28 -52t-14.5 -58.5t13.5 -50.5t54 -23z" />
</svg>