<svg xmlns="http://www.w3.org/2000/svg" xmlns:xlink="http://www.w3.org/1999/xlink" version="1.1" viewBox="-10 0 2068 2048">
   <path fill="currentColor"
d="M862 97q172 0 312 70q136 68 230 161l-252 287q-11 -8 -32.5 -24.5t-32.5 -25t-28.5 -17.5t-34.5 -13q-11 -3 -43 -13t-60 -15.5t-59 -5.5q-80 0 -148 34q-80 40 -126 103q-50 67 -82 162q-34 102 -34 218q0 266 116 381q60 70 132 103.5t166 33.5t162 -34
q80 -40 126 -103l252 287q-106 122 -252 195q-140 70 -312 70q-154 0 -332 -59q-157 -52 -276 -171q-38 -37 -72 -94t-52.5 -99.5t-49.5 -117.5q-80 -161 -80 -392q0 -218 70 -391q69 -173 184 -288q107 -108 276 -183q132 -59 332 -59zM1634 674h196v230h218v195h-218v241
h-196v-241h-220v-195h220v-230zM978 719h160v196h186v161h-186v207h-160v-207h-184v-161h184v-196z" />
</svg>