<svg xmlns="http://www.w3.org/2000/svg" xmlns:xlink="http://www.w3.org/1999/xlink" version="1.1" viewBox="-10 0 2062 2048">
   <path fill="currentColor"
d="M1583 238v61l10 10h11q16 -5 46 -9.5t45 -9.5q15 -8 26 3t3 26q-5 15 -10 45t-10 46v11l10 9q0 10 20 10h92q29 0 29 31v20q-4 14 -11.5 28.5t-16.5 30t-12 21.5v10q11 11 11 21h10q16 5 45 10t45 10q15 0 21.5 17.5t-1.5 32.5q-9 14 -27 37t-23 34v20q0 4 2.5 6.5t7.5 6
t9 7.5q15 5 40 15t41 15q16 8 20.5 21.5t-9.5 29.5q-40 40 -71 60v31q10 10 20 10q4 2 28.5 18t42.5 22q15 7 15 24.5t-15 25.5q-15 10 -40 25.5t-41 25.5v9q0 15 1.5 19t8.5 12q39 39 61 50q14 15 10 28.5t-20 21.5q-54 17 -81 31q-11 0 -11 10q-4 4 -4 9t2 11t2 10
q19 19 52 70q8 7 5.5 20.5t-16.5 20.5q-9 0 -18 8q-1 2 -2 3q-16 0 -41 4.5t-40 4.5h-10q0 5 -4.5 10t-4.5 10v2q0 10 9 19q5 10 15.5 35t15.5 35q6 9 2 20t-13 20h-120q-11 11 -11 31q5 15 10.5 40t10.5 41q8 15 -5 27.5t-36 12.5q-16 -5 -45 -10.5t-45 -10.5h-10l-10 10
q-10 11 0 11v91q0 29 -31 29h-19q-38 -12 -81 -40h-11q-7 0 -13.5 6.5t-6.5 14.5q0 15 -5 39.5t-5 40.5q0 14 -17.5 21t-32.5 -1q-29 -29 -71 -50h-10q-8 0 -14 5.5t-6 13.5q-5 15 -15 40t-15 41q-11 21 -30 21q-4 0 -6.5 -2.5t-3.5 -5.5v-2q-40 -40 -60 -71h-21q-8 0 -14 6
t-6 14q-5 10 -20 35.5t-20 35.5q-8 15 -25 15t-25 -15q-10 -16 -26 -41t-26 -40h-19q-7 0 -10 1t-10 9l-61 61q-10 10 -41 10q-9 0 -9 -18v-2l-31 -92q0 -9 -10 -9h-29q-7 7 -16 13.5t-15 10.5t-19.5 12.5t-20.5 13.5q-7 -4 -22 -11t-21 -10t-14 -8.5t-11 -10t-3 -10.5
q-10 -31 -10 -91q0 -10 -10 -10q-5 0 -10 -5t-10 -5q-8 0 -10 1t-10 9q-10 5 -35 15.5t-35 15.5q-15 7 -28 0.5t-13 -21.5v-110l-11 -10h-10q-16 5 -45.5 9.5t-44.5 9.5q-15 7 -26.5 -4t-4.5 -26q5 -16 10.5 -46t10.5 -45v-10l-10 -9h-100q-31 0 -31 -31v-20q4 -14 11.5 -29
t16.5 -31t12 -21v-9q1 -11 -9 -11q0 -5 -3 -7.5t-5 -2.5h-3q-15 0 -45 -5t-46 -5q-15 0 -21.5 -17.5t1.5 -32.5q31 -31 51 -71v-10q0 -8 -1.5 -11t-8.5 -10q-11 -10 -21 -10q-10 -5 -35 -14.5t-35 -14.5q-16 -8 -20.5 -22t9.5 -29q18 -6 44 -29.5t37 -30.5v-20
q0 -21 -10 -21q-10 -5 -35.5 -20t-35.5 -20q-15 -8 -15 -26t15 -25q15 -10 40 -25t41 -25v-21l-10 -9l-60 -60q-8 -8 -8 -21t8 -20q10 0 10 -10l91 -30v-10q4 -5 4 -10t-2 -11.5t-2 -9.5q-10 -10 -25.5 -30t-25.5 -30q-8 -15 -1.5 -32.5t21.5 -17.5q15 -5 45 -10.5t46 -10.5
h11q0 -5 4.5 -9.5t4.5 -9.5v-3q0 -9 -9 -18q-5 -10 -15.5 -35t-15.5 -35q-8 -15 -1.5 -28t21.5 -13h111q0 -9 10 -9v-11q-21 -65 -21 -91q-7 -15 4.5 -26t26.5 -3q31 0 90 19h10l11 -10q10 -9 0 -9v-92q0 -30 30 -30h20q14 4 29 12t30.5 17t21.5 12h10q10 -1 10 -11
q4 0 6.5 -2.5t3.5 -5.5v-2q0 -16 5 -46t5 -45t18 -21t33 2q30 30 70 50h10q7 0 10 -1.5t10 -8.5q0 -11 10 -21q5 -10 15.5 -35t15.5 -35q7 -14 15 -17t25 -3l10 10q6 17 29.5 43t30.5 37h10q4 0 9.5 -2.5t8.5 -4.5l3 -2q5 -10 20 -35.5t20 -35.5q14 -14 28.5 -16.5t21.5 6.5
l10 10q10 15 25.5 39.5t25.5 40.5h30q4 0 6.5 -2.5t3.5 -4.5v-2q39 -39 50 -61q8 -8 21 -8t20 8v10q19 59 30 81l10 10h20q46 -15 81 -50q15 -8 32.5 -2t17.5 21t5.5 45t5.5 46q-1 10 9 10h10q8 7 14 7t6 -7q22 -11 81 -30q15 -9 27.5 -0.5t12.5 30.5v40zM465 511h765
q60 0 91 10q95 31 141 91q51 51 51 121q0 60 -30 120q-32 49 -81 81q-21 21 -31 21q5 5 15.5 9.5t15.5 9.5q5 4 16 14.5t18 17t15 17.5t11 22q31 48 31 101q0 10 20 30q13 13 31 16.5t49 3.5q30 0 50 -20q9 -9 14 -19.5t9.5 -23t7.5 -18.5v-50q0 -8 1 -9t9 -1h71v-131
q-15 -5 -45 -20t-46 -20q-5 -5 -20 -10t-20 -10q-23 -8 -31 -29.5t0 -51.5q42 -106 71 -152v-9q-27 -41 -42 -62.5t-43 -54t-56 -55.5q-149 -134 -363 -181h-9q-49 48 -102 90q-15 15 -40.5 15t-40.5 -15l-89 -90h-11q-36 9 -101 30q-157 57 -282 182q-20 20 -20 30z
M1604 1439h-303q-29 0 -40 -11q-52 -26 -71 -101q-2 -7 -6 -22.5t-5.5 -23t-4 -19.5t-3.5 -23t-1 -22q0 -23 -19 -61q-15 -38 -45 -59.5t-67 -21.5h-181v131h181q7 0 8.5 1.5t1.5 9.5v201q0 7 -1.5 8.5t-8.5 1.5h-604q20 31 60 71h10q84 -21 121 -21q23 -8 42.5 4t27.5 36
q5 20 15.5 65.5t15.5 65.5v11q51 19 82.5 30t76 20.5t82.5 9.5q74 10 212 -9q49 -10 152 -51v-11q5 -20 15 -65.5t15 -65.5q17 -53 70 -40l122 31h10q0 -14 12 -34t28 -36zM405 733l30 60q0 3 2 9.5t2 11.5t-4 10q0 9 -4.5 16t-14.5 15t-11 9q-78 39 -122 50q-9 0 -9 10v50
q0 100 30 222q0 10 10 10h212v-473h-121zM838 874h232q40 0 60 -10q3 -4 9.5 -7.5t11.5 -8.5t9 -14q8 -14 6.5 -35.5t-15.5 -35.5t-34.5 -22t-36.5 -8h-253q11 55 11 141zM233 772q0 23 18.5 42.5t41.5 19.5t42 -19.5t19 -42.5t-19 -41.5t-42 -18.5t-41.5 18.5t-18.5 41.5z
M1513 1620q0 -23 -19 -42t-42 -19t-41.5 18.5t-18.5 42t18.5 42t41.5 18.5q25 0 43 -16t18 -44zM566 1559q-23 0 -42 19t-19 42t19 41.5t42 18.5t41.5 -18.5t18.5 -42t-18.5 -42t-41.5 -18.5zM1070 238q0 -25 -16 -42.5t-45 -17.5q-25 0 -42.5 15.5t-17.5 44.5q0 25 16 43
t44 18q22 0 37.5 -17.5t23.5 -43.5zM1724 843q23 0 42 -18.5t19 -41.5t-19 -42t-42 -19t-41.5 18.5t-18.5 42.5q0 25 16 42.5t44 17.5z" />
</svg>