<svg xmlns="http://www.w3.org/2000/svg" xmlns:xlink="http://www.w3.org/1999/xlink" version="1.1" viewBox="-10 0 2068 2048">
   <path fill="currentColor"
d="M982 1608h-26q-8 -8 -34 -8q-12 -4 -42.5 -12.5t-43.5 -12.5q-39 -27 -16 -61q18 -27 34 -76q38 -86 54.5 -154.5t5.5 -143.5q-14 -139 -136 -188q-121 -44 -188 -111q-100 -93 -151 -187.5t-45 -213.5h1262q0 131 -60 230q-105 185 -324 282q-134 66 -146 204
q-5 80 20.5 159t73.5 174q18 39 12 53t-46 33q-8 4 -21 8t-21 8q-13 4 -43 8.5t-43 8.5h-34q-13 -14 -42 0zM2048 849q-11 10 -18 33.5t-8 25.5q-67 151 -204 188q-49 12 -67.5 45t-18.5 84q-2 10 -2 21v19t2.5 20t3.5 18t5.5 19.5t5.5 17t7 19t6.5 17t7.5 19t8 17.5
q18 39 9 55t-53 22q-97 13 -170 -8q-20 -6 -25 -19t7 -32q30 -52 43.5 -97.5t8.5 -98.5q-7 -65 -24 -90t-62 -31q-31 0 -42 -25q4 0 8 -4.5t8 -4.5q188 -72 300 -264q5 -11 14.5 -14t27.5 -3h222v51zM0 789h214q10 0 15 0.5t10.5 4.5t8.5 12q107 177 324 273q-4 4 -13 8.5
t-13 8.5q-50 18 -71 52.5t-21 93.5q0 66 42 153q16 34 24 43q7 13 5.5 23.5t-13.5 10.5q-114 51 -230 0q-17 0 -20.5 -11.5t4.5 -30.5q22 -46 33 -71t20 -65.5t5 -76.5q-5 -51 -21.5 -71t-62.5 -33q-149 -46 -222 -221q-2 -2 -5 -14t-13 -12v-77z" />
</svg>