<svg xmlns="http://www.w3.org/2000/svg" xmlns:xlink="http://www.w3.org/1999/xlink" version="1.1" viewBox="-10 0 2068 2048">
   <path fill="currentColor"
d="M1032 322q76 67 148 128q16 -1 34 -1t32.5 0.5t36 2.5t33.5 3t37 4.5t34 5l36 6t32.5 5.5t35 6.5t31.5 5.5l146 -105q59 96 98 168q33 20 77.5 54t66.5 57q46 -17 138 -49q-3 5 -7 16q-16 43 -24.5 65.5t-25.5 62.5t-30 63.5t-33.5 56t-41 54.5t-47.5 44t-57 38
q-55 -78 -175.5 -136t-267.5 -86.5t-312.5 -30.5t-312 23.5t-266.5 85.5t-174 146q-35 -23 -65 -53.5t-51.5 -58.5t-45 -70t-37.5 -70.5t-37.5 -78.5t-37.5 -77l130 53q61 -55 162 -109l100 -165q72 56 152 108q61 -23 162 -36.5t168 -11.5zM1982 938l-200 463
q-88 109 -215 184.5t-266.5 109t-290 31t-286.5 -40t-256.5 -112.5t-199.5 -180l-188 -452q77 93 153.5 159.5t174.5 118.5q31 14 85 28t93 21l40 7l402 -203l400 208q16 -2 43 -7t85.5 -20.5t87.5 -31.5q234 -131 338 -283z" />
</svg>