<svg xmlns="http://www.w3.org/2000/svg" xmlns:xlink="http://www.w3.org/1999/xlink" version="1.1" viewBox="-10 0 2068 2048">
   <path fill="currentColor"
d="M0 1818q6 -32 23.5 -63t32.5 -48t46 -47q16 -17 32.5 -30.5t42.5 -30t36 -22.5t48 -27.5t43 -25.5q93 -52 238 -112q8 0 14 -7t6 -15q136 -271 192 -406q17 -39 45.5 -118t44.5 -118v-12q-67 -160 -78 -258q-30 -116 -12 -270q14 -70 90 -146q12 -12 56 -12h92
q39 0 56 34q15 11 30.5 28t22.5 27t25 35q10 20 15.5 42t10 50t8.5 42q0 64 -7.5 135.5t-15.5 120.5t-23 128q-5 22 -16.5 61.5t-17.5 62.5v10q87 159 248 338q8 9 12.5 10.5t21.5 1.5q58 -11 129 -16.5t109.5 -5.5h121.5q123 0 214 44q66 45 88 78q24 49 24 68v80
q0 40 -34 56q-3 3 -13 14t-15.5 16t-16 12t-21.5 10.5t-24 3.5q-11 0 -39 6t-39 6q-130 7 -243 -30t-229 -118q-12 -11 -40 -33.5t-40 -34.5q-5 0 -11 -5t-11 -5q-127 20 -202 46q-46 11 -136 38.5t-134 39.5q-6 0 -11.5 5t-10.5 5q-81 147 -192 294q-89 107 -192 192
q-57 39 -122 56h-92q-30 0 -56 -12q-43 -18 -73 -50.5t-39 -73.5q-12 0 -12 -44zM992 1030q-17 45 -57.5 135t-56.5 135l270 -68q-31 -37 -84.5 -108t-71.5 -94zM1474 1322q100 65 224 102q12 3 22.5 4t22 -2.5t17 -5.5t18.5 -8q18 -9 23 -28.5t-11 -27.5q0 -12 -24 -12
q-12 -5 -43.5 -11.5t-46.5 -10.5q-101 -17 -202 0zM416 1636q-92 45 -190 124q-6 4 -11 8t-10 9.5t-9 9t-9.5 10t-8 10t-8 11.5t-7.5 10.5t-8 11.5t-7 10v24q8 8 10.5 9t11.5 1q10 -7 37.5 -28.5t40.5 -27.5q31 -26 56.5 -54t63.5 -76.5t48 -61.5zM900 500q34 -97 34 -192
q0 -70 -10 -100q0 -12 -24 -12q-5 0 -11 6t-11 6q-4 5 -6.5 10.5t-5 10t-4 10.5l-2.5 10t-1.5 11.5t-1 10.5t-0.5 12t-0.5 11.5t-0.5 13v12.5q0 60 10 90q11 11 16.5 25t10 35t7.5 30z" />
</svg>