<svg xmlns="http://www.w3.org/2000/svg" xmlns:xlink="http://www.w3.org/1999/xlink" version="1.1" viewBox="-10 0 2058 2048">
   <path fill="currentColor"
d="M976 964h-236q-125 0 -199.5 75t-74.5 199v212q0 36 -34 36h-108q-163 0 -236 -143q-60 -121 -60 -212q-6 -75 -6.5 -132t9.5 -127.5t33 -132.5q27 -84 83.5 -140t142.5 -74h686q36 0 36 -11v-59q-25 -12 -36 -12h-402q-27 0 -37.5 -10.5t-10.5 -37.5v-154
q0 -129 106 -165q122 -49 178 -60q225 -38 428 12q92 18 164 70q42 42 61 79.5t11 86.5v427q0 125 -67.5 193t-192.5 68q-90 12 -238 12zM646 253q0 38 25.5 66.5t68.5 28.5q36 0 65 -29.5t29 -65.5q0 -34 -28 -59.5t-66 -34.5q-43 0 -68.5 28t-25.5 66zM1072 1083h236
q125 0 199.5 -74t74.5 -199v-213q0 -35 34 -35h108q164 0 236 142q60 122 60 213q6 75 6.5 132t-9.5 127t-33 132q-27 85 -83 141t-141 73h-688q-36 0 -36 12v59q25 11 36 11h402q27 0 37.5 11t10.5 37v155q0 130 -106 165q-118 48 -178 59q-227 39 -428 -11
q-90 -17 -164 -71q-42 -42 -61 -79t-11 -87v-427q0 -124 68 -192.5t192 -68.5q91 -12 238 -12zM1402 1794q0 -38 -25.5 -66t-68.5 -28q-36 0 -65 29t-29 65q0 35 28 60.5t66 34.5q43 0 68.5 -28.5t25.5 -66.5z" />
</svg>