<svg xmlns="http://www.w3.org/2000/svg" xmlns:xlink="http://www.w3.org/1999/xlink" version="1.1" viewBox="-10 0 2068 2048">
   <path fill="currentColor"
d="M652 62h1390v517h-1390v-517zM211.5 96q87.5 0 150 66t62.5 158t-62.5 157.5t-150 65.5t-149.5 -65.5t-62 -157.5t62 -158t149.5 -66zM658 766h1390v516h-1390v-516zM218 801q88 0 150 65.5t62 157.5t-62 157.5t-150 65.5t-150 -65.5t-62 -157.5t62 -157.5t150 -65.5z
M658 1470h1390v516h-1390v-516zM218 1505q88 0 150 66t62 158t-62 157.5t-150 65.5t-150 -65.5t-62 -157.5t62 -158t150 -66z" />
</svg>