<svg xmlns="http://www.w3.org/2000/svg" xmlns:xlink="http://www.w3.org/1999/xlink" version="1.1" viewBox="-10 0 2068 2048">
   <path fill="currentColor"
d="M692 1413q-17 -104 -103 -133q-11 -5 -37 -20.5t-36 -20.5q-53 -17 -82 -31q-28 -13 -61 20q-6 18 -2 30.5t13 21.5q5 10 11 19t10 13t19 18q23 34 72 83q2 3 9.5 14.5t10 15t7 12.5t5.5 15.5t1 15.5t-2 19q-17 120 -93 196q-5 5 -10 7.5t-8 3.5h-3q-22 0 -48.5 -12.5
t-42.5 -29.5q-22 -24 -18.5 -44.5t28.5 -37.5q7 0 14 -6.5t7 -14.5q32 -32 20 -72q-5 -5 -10 -15.5t-10 -15.5q-45 -44 -144 -123q-192 -147 -207 -370q-15 -237 114 -463q56 -94 134 -133q41 -21 123 -41q207 -57 360 -31q173 36 215 174q33 115 21 206q-8 106 -81 191.5
t-176 116.5q-47 16 -73.5 7t-49.5 -48q-4 -5 -22 -30t-30 -44t-21 -38v-10q0 -5 -5 -10.5t-5 -10.5q19 119 52 174q17 26 35 38.5t47 12.5q101 8 179 -24t139 -109q116 -160 83 -391q0 -11 -2 -22t-4.5 -18.5t-7.5 -20.5t-7 -21q0 -13 0.5 -18.5t5.5 -12t15 -11.5h2
q18 0 18 -9q169 -34 318 -20q203 17 340 112q236 148 319 442q10 31 10 82q0 15 -8 17t-23 -6q-10 -4 -17.5 -12t-14 -17.5t-9.5 -12.5q-5 -5 -15.5 -20.5t-15.5 -20.5q-8 -7 -14.5 -7t-6.5 7q0 5 -5 15.5t-5 15.5q-54 179 -143 268q-8 8 -14.5 21t-6.5 20q0 14 -2.5 39
t-2.5 45.5t5 38.5q5 41 15.5 128.5t15.5 128.5q7 37 -5.5 56.5t-45.5 36.5q-65 21 -103 21h-165q0 -25 -0.5 -37.5t-3 -34t-8 -34t-15.5 -26.5t-25 -23q24 -101 31 -134q13 -54 -20 -103q-26 -38 -82 -20q-59 38 -124.5 41.5t-132.5 -21.5q-30 -9 -54.5 -3t-38.5 34
q-31 61 -31 124q0 56 21 165q0 19 -1.5 26t-8 13.5t-21.5 11.5q-98 29 -205 11h-10q0 -25 -0.5 -37.5t-4.5 -34t-11 -34t-21 -26.5t-35 -23q51 -51 31 -175zM270 1177q21 -21 21 -41q7 -23 -11 -54t-41 -39q-9 -6 -18 -4t-13 5t-10 9q-16 16 -41.5 47t-40.5 46q0 5 -5.5 10
t-5.5 10q-8 16 -1.5 29t22.5 13q31 0 41 10q62 0 103 -41zM270 838q0 -16 -13 -28.5t-28 -12.5q-19 0 -33.5 14.5t-7.5 35.5q0 17 14 29t37 12q31 -31 31 -50z" />
</svg>