<svg xmlns="http://www.w3.org/2000/svg" xmlns:xlink="http://www.w3.org/1999/xlink" version="1.1" viewBox="-10 0 2068 2048">
   <path fill="currentColor"
d="M1443 110q43 -1 82 18.5t64 54.5q33 52 49 112.5t14 128.5t-9 121.5t-22 125.5q29 21 131 60t145 74q37 23 68 53.5t54.5 70t27 80.5t-14.5 86q-27 53 -70.5 96.5t-99.5 75t-105.5 52.5t-114.5 43q-11 24 -8.5 64t11 78.5t12.5 83.5t-4 78q-2 45 -13 88t-32 83.5
t-56.5 67.5t-81.5 32q-60 4 -119.5 -12t-115.5 -50t-98.5 -66.5t-94.5 -79.5q-26 4 -59 26.5t-61.5 48.5t-66 51.5t-69.5 35.5q-40 21 -83 33t-88.5 14t-87 -16t-68.5 -55q-33 -50 -49 -109t-14.5 -125.5t8.5 -118.5t22 -123q-21 -25 -72 -45.5t-108.5 -43.5t-87.5 -52
q-30 -19 -56.5 -42.5t-50 -53.5t-36 -62t-15 -67.5t14.5 -70.5q21 -43 55.5 -81t71.5 -64.5t87 -50.5t90 -39.5t93 -32.5q9 -28 5.5 -73.5t-12 -87.5t-11 -92.5t7.5 -88.5q3 -55 25 -106.5t66 -88t100 -37.5q60 1 120 19.5t116.5 53.5t100.5 70t96 82q51 -47 92.5 -81
t95.5 -69t112 -54.5t117 -22.5zM1439 198q-73 6 -138.5 42t-143.5 98q-39 18 -50 38.5t1.5 43.5t31 44t43 47.5t34.5 46.5q19 37 57 55t76 19t87.5 6t80.5 18q12 -11 20.5 -31t13 -39t7 -49t3 -48t1 -51.5t0.5 -44.5q-13 -197 -124 -195zM606 199q-52 0 -75 32
q-24 36 -35.5 78.5t-11.5 93.5t3.5 84t11.5 90q-2 41 12.5 59t42.5 16.5t58 -9.5t66 -16t58 -5q37 -4 69.5 -31t53 -59.5t49.5 -72t56 -59.5q-47 -42 -80.5 -69.5t-81 -59.5t-97 -50t-99.5 -22zM1026 463q-71 78 -114 136q14 9 56.5 9.5t83.5 -2.5t79 2q6 -11 -12.5 -36.5
t-51 -60.5t-41.5 -48zM1025 694q-100 0 -187 7q-103 151 -186 324q85 179 187 326q183 12 374 -2q98 -147 185 -325q-81 -163 -167 -294q-14 -21 -40 -29.5t-53.5 -6.5t-58.5 2.5t-54 -2.5zM726 711q-63 8 -141 23q-26 2 -34 15t-1.5 34t17 43t21.5 46.5t13 38.5
q20 -13 62.5 -94.5t62.5 -105.5zM1324 713q65 106 92 155q22 70 45 18q7 -15 19 -55q13 -42 20 -54q5 -20 -6 -31.5t-33.5 -15t-46.5 -5t-50.5 -4t-39.5 -8.5zM456 765q-124 36 -208 84q-1 0 -2 1q-29 18 -46 28.5t-44 32t-40 40t-21 45.5t-2 54q18 37 47.5 69.5t60 54.5
t74.5 44t75.5 34t79.5 29q22 -2 37 -27t21.5 -56t18 -67.5t26.5 -54.5q12 -34 10.5 -61t-14.5 -61.5t-28 -62t-28.5 -62.5t-16.5 -64zM1595 766q-24 83 -70 192q-18 29 -19 60.5t11.5 62.5t27.5 60.5t30 64t19 62.5q11 7 30.5 5t36 -6.5t39 -15.5t39.5 -19.5t38.5 -20
t35.5 -17.5q18 -11 32 -20.5t33 -24.5t32 -28t25.5 -30.5t18 -34.5t5 -37t-9.5 -40q-28 -43 -68 -77t-91.5 -59.5t-93 -41.5t-101.5 -35zM1025 840q52 -2 95 26.5t65.5 71t21.5 94.5t-31 94q-34 55 -97.5 73t-125 -6.5t-88.5 -82.5q-20 -33 -23 -72.5t11 -74t38 -63.5
t59.5 -45.5t74.5 -14.5zM1445 1125q-57 107 -89 161q-45 49 -2 49q12 0 93 -17q22 -4 34 -5q20 -5 24 -20.5t-4 -37.5t-19.5 -44t-23 -46.5t-13.5 -39.5zM606 1128q-29 67 -53 138q-8 18 -7.5 29.5t12 18t25.5 9.5t33.5 4.5t37 2t35 3t27.5 6.5q-1 -24 -50 -102.5
t-60 -108.5zM1538 1391q-95 23 -204 35q-34 -2 -62 13t-48.5 41.5t-38.5 54t-40.5 58t-44.5 47.5q3 21 24 45t43.5 39.5t58.5 38.5t50 33q27 15 47.5 25t52 20.5t55.5 11t49.5 -9.5t43.5 -34q25 -45 36 -97.5t8 -110.5t-10 -103.5t-20 -106.5zM515 1394q-29 120 -30 219
q0 25 0.5 38t2.5 39t5.5 41.5t10.5 37t17 35t25.5 26t35.5 18.5q41 3 83.5 -7t76.5 -25t74.5 -42.5t67 -48.5t64.5 -54q9 -20 -5 -45.5t-37 -47t-49 -50t-34 -49.5q-23 -30 -63 -44.5t-78.5 -15.5t-87 -6.5t-79.5 -18.5zM1149 1441q-103 3 -185 2q-49 -10 -48 8q1 14 53 70
q28 31 36 43q10 11 21.5 12t22 -7t20.5 -20.5t20.5 -28.5t20 -30.5t20 -28t19.5 -20.5z" />
</svg>