<svg xmlns="http://www.w3.org/2000/svg" xmlns:xlink="http://www.w3.org/1999/xlink" version="1.1" viewBox="-10 0 2062 2048">
   <path fill="currentColor"
d="M1018 0q139 0 270.5 36t243 101t205 158t160 204t104.5 242.5t41 270.5q0 16 -6 58t-6 67q-30 150 -134 235q-116 102 -326 102h-90q89 -98 139.5 -215t50.5 -247q0 -129 -49.5 -247t-135 -204.5t-204.5 -138t-251 -51.5q-128 0 -258 56q-6 -5 -17.5 -11t-16.5 -11
q-44 -22 -113.5 -39.5t-146.5 -17.5q-154 0 -280 79q136 -197 353.5 -312t466.5 -115zM490 528q75 0 112 12q-98 98 -156 222.5t-58 261.5q0 129 50 247t135.5 204.5t204.5 138t252 51.5q149 0 280 -67q46 11 180 33q16 0 24.5 1t24 6t31.5 16q136 0 280 -33
q-145 198 -364 312.5t-468 114.5q-138 0 -269.5 -36t-242.5 -101t-204 -158.5t-158 -204.5t-101.5 -242.5t-36.5 -270.5q0 -67 12 -113q26 -86 65 -153.5t84.5 -112t100 -74t109 -42t113.5 -12.5zM714 574q40 40 90 56q64 78 124 237q6 12 12 34t12 33q-40 83 -103.5 206.5
t-91 186t-43.5 124.5q-103 -78 -163.5 -192.5t-60.5 -246.5t60.5 -246t163.5 -192zM974 1035q53 180 90.5 285t77.5 177l34 34q-107 21 -170 21q-98 0 -178 -33v-45q0 -67 10 -90q8 -56 36.5 -133t65.5 -149z" />
</svg>