<svg xmlns="http://www.w3.org/2000/svg" xmlns:xlink="http://www.w3.org/1999/xlink" version="1.1" viewBox="-10 0 2058 2048">
   <path fill="currentColor"
d="M1376 0q5 7 19 9t19 5q14 101 -25.5 200.5t-120 171t-179.5 95.5q-22 10 -38.5 12.5t-26.5 -3.5t-17 -14.5t-8.5 -24.5t-2.5 -29.5t2 -33.5t5 -33t6 -31q40 -118 141 -206t226 -118zM673 489h51q40 -6 85.5 4.5t81 27t81.5 32.5t84 18q44 -6 103.5 -27t116 -38t106.5 -16
q130 -14 254.5 37t207.5 153q-12 24 -41.5 56t-58.5 59t-56 65.5t-35 75.5q-33 90 -22.5 192.5t62.5 183.5q19 36 51 67t76 65t65 53q-43 165 -189 354q-5 4 -23.5 24t-24.5 26.5t-23.5 24t-26.5 25t-25.5 21.5t-28.5 21t-28 16.5t-32 15t-32 9.5q-40 10 -91 0.5
t-86.5 -23.5t-85.5 -31.5t-87 -23.5q-42 -5 -88 3.5t-87 24.5t-81.5 32t-86.5 25.5t-87 5.5q-57 -14 -107.5 -50t-103.5 -91q-116 -142 -190.5 -304.5t-94.5 -331.5q-43 -288 60 -500q58 -125 178.5 -203t258.5 -78z" />
</svg>