<svg xmlns="http://www.w3.org/2000/svg" xmlns:xlink="http://www.w3.org/1999/xlink" version="1.1" viewBox="-10 0 2058 2048">
   <path fill="currentColor"
d="M1434 1q64 -2 119.5 33.5t86 94.5t23.5 123v1564q2 56 -23 103.5t-66.5 76.5t-93.5 42.5t-104 8.5h-1016q-57 2 -104 -23t-75.5 -67t-42.5 -94t-8 -104l-1 -770q0 -769 1 -769q1 -62 37.5 -115t94 -82t119.5 -22h1053zM1766 1331q10 0 30.5 -0.5t34 -0.5t30 3t29 12.5
t20.5 25.5q8 21 9.5 46t0 56t-0.5 48q5 43 -12 78.5t-58 37.5h-83v-306h76h-76zM1766 922q10 0 30.5 -1t34 -0.5t30 3.5t29 12t20.5 25q8 21 9.5 46.5t0 57t-0.5 48.5q5 43 -12 78t-58 37q-27 1 -83 1v-307h76h-76zM1766 513q10 0 30.5 -0.5t34 -0.5t30 3t29 12.5t20.5 25.5
q8 21 9.5 46t0 56t-0.5 48q5 43 -12 78.5t-58 37.5h-83v-306h76h-76zM1229 359h-664q-26 -1 -44 11.5t-25 31t-10 41t1 42.5q1 26 -0.5 48t1 48.5t11.5 47.5q15 25 39 32.5t64.5 5.5t52.5 -1h574q26 0 43.5 -12.5t24 -32t9.5 -42.5t0 -43q-3 -29 -0.5 -54t-2 -53.5
t-20.5 -47.5q-21 -22 -54 -22z" />
</svg>