<svg xmlns="http://www.w3.org/2000/svg" xmlns:xlink="http://www.w3.org/1999/xlink" version="1.1" viewBox="-10 0 2068 2048">
   <path fill="currentColor"
d="M1017 24q140 1 274 41.5t247 117.5q-34 -9 -108.5 -32t-131 -38.5t-110.5 -25.5q-191 -41 -386 1t-350 159q-12 4 -26.5 15.5t-26 25t-25 26.5t-25 21t-24.5 6t-25 -17q135 -145 324.5 -223t392.5 -77zM1383 166q152 43 238 107q122 98 233 240q-46 -92 -140 -188
q-21 -5 -44 -48q-22 -40 -7 -41q7 0 22 11q16 5 39.5 31t40.5 41.5t25 2.5q86 73 136.5 175.5t54.5 215.5q3 9 0 87q-2 34 3 35t15 -24l2 -4q14 -50 22 -18q2 8 5 28q2 13 3 19q20 78 16 181q-23 130 -78 241q-14 20 -17 46.5t0.5 49t4 49.5t-7.5 49q-31 86 -94.5 159
t-146.5 127q-25 11 -48.5 33.5t-39 44.5t-38 46t-46.5 36q-65 33 -140 51.5t-173 33.5q-15 7 -101 7q-61 -1 -61 12q1 8 18 21q-25 2 -50 0.5t-54.5 -8t-47.5 -10.5t-53 -14.5t-48 -13.5q-19 -6 -20 -4q-1 1 7 6q2 2 6 5q26 17 14 17q-5 0 -14 -2q-98 -19 -190 -69
t-203 -128q-157 -111 -258.5 -281.5t-131.5 -366.5q-2 -56 -18 -10q-3 9 -10 32q-6 -99 19 -280q6 -23 4 -24q-1 -1 -5 5q-20 27 -26 30q7 -22 18.5 -64.5t19.5 -69t21 -62t27 -64.5q56 -118 163.5 -192.5t230.5 -63.5q13 -4 21.5 -2t15 3t10.5 7t6.5 10t2.5 13v15t-2 16
t-3.5 17t-4.5 17q28 -38 55 -67.5t61.5 -59t74.5 -47.5t82 -22q22 -2 32 -0.5t7.5 9t-10 16t-21.5 20.5q-53 58 -84.5 131t-30 155.5t43.5 149.5q31 39 41.5 83.5t-7.5 91.5q-30 -45 -81 -67.5t-107 -15.5t-97 42q-60 49 -77.5 127.5t8 154.5t83.5 125q-48 -58 -70.5 -125
t-5.5 -133q6 -40 32.5 -76.5t62.5 -57.5t78 -25.5t80 20.5q-2 10 -15.5 33t-25 49.5t-9.5 47.5q-18 90 8 178t94 145q10 12 23 22.5t23 18t28 15t26.5 11.5t31 10t28.5 7.5t32 7t29 6.5q66 18 -9 18q-9 -1 -19 -1q72 67 229 36q14 3 73 -17q49 -16 50 1q1 6 -3 15
q8 -1 16 -6t17 -13.5t14.5 -14.5t15.5 -17l13.5 -15t12 -12t12 -8.5t10.5 -2t10.5 5t7.5 15.5q97 -45 134 -199q6 -13 13 -47.5t14 -58t15 -20.5q6 18 11 25t8.5 3.5t5.5 -13t4 -25.5q11 -35 14 -77t1 -69.5t-7.5 -79.5t-7.5 -73q-15 -63 29 -19q13 12 36 40l15 16
q12 -133 -40 -260.5t-154 -216.5q23 -11 78.5 15.5t88.5 58.5q-16 -35 -38.5 -67t-55 -63.5t-55 -51.5t-65.5 -54t-60 -49zM229 220q5 88 67 146q-10 14 -43.5 36t-70 48t-53.5 51q9 -184 100 -281zM744 540q20 21 52.5 28t61.5 4t60 2q27 -8 46.5 0t26.5 25t3 39.5
t-20 40.5q-29 26 -93 60t-84 47q-45 -46 -60 -115.5t7 -130.5zM663 1086l39 24q41 29 85.5 46t94.5 15.5t91 -28.5q56 -36 131 -27.5t117 59.5q13 29 10 40t-21 16.5t-37.5 6t-39.5 8.5t-29 24q-65 57 -148 82t-165 9q-70 -40 -106 -118t-22 -157z" />
</svg>