<svg xmlns="http://www.w3.org/2000/svg" xmlns:xlink="http://www.w3.org/1999/xlink" version="1.1" viewBox="-10 0 2058 2048">
   <path fill="currentColor"
d="M242 0h920q0 5 5 10t5 10l480 482q10 10 10 30v308q-18 -9 -38 -17t-48 -18t-46 -17v-153h-378q-62 0 -97 -35.5t-35 -97.5v-369h-768v1792h520q22 0 32 10q76 75 112 103l10 10h-696q-64 -14 -88 -53.5t-24 -100.5v-1761q0 -45 21.5 -76.5t60.5 -46.5q12 0 25 -5t17 -5z
M1162 133v379h378zM1334 907q110 -3 214 34.5t185 105t134 165.5t63 211v113q-15 170 -128.5 308.5t-281.5 183.5q-82 20 -114 20h-102q-20 -5 -55.5 -10t-56.5 -10q-167 -45 -280.5 -183.5t-129.5 -308.5q-11 -113 21.5 -221t98.5 -191.5t163 -140.5t211 -72q38 -4 58 -4z
M1346 1024q-91 0 -174.5 36t-143.5 97t-96 144t-36 174t36 174t96 142.5t143.5 93.5t174.5 30q90 0 173.5 -36t143.5 -97t96.5 -144t36.5 -174q0 -121 -61 -222.5t-164.5 -159.5t-224.5 -58zM1345.5 1219q23.5 0 42 19t18.5 42v51q12 24 12 82h122q30 0 51 19t21 43
q0 30 -19.5 45.5t-52.5 15.5h-122v143q-7 23 -28 37.5t-44 14.5q-24 0 -43 -19.5t-19 -42.5v-133h-132q-24 0 -43 -19t-19 -42t19 -42.5t43 -19.5h132v-133q0 -23 19 -42t42.5 -19z" />
</svg>