<svg xmlns="http://www.w3.org/2000/svg" xmlns:xlink="http://www.w3.org/1999/xlink" version="1.1" viewBox="-11 0 2069 2048">
   <path fill="currentColor"
d="M130 2h1801q57 4 90 52.5t25 105.5q0 1180 -1 1771q-4 56 -52 89t-105 26h-1758q-38 0 -66 -17.5t-42 -47t-19 -62.5t-2 -66q0 -579 2 -1737q5 -48 42 -81.5t85 -32.5zM1152 1071v-175h-703v175h251v784h199v-784h253zM1219 1863q106 48 226 54.5t230 -28.5
q84 -27 134.5 -103t44.5 -163q4 -54 -16 -104.5t-56.5 -89.5t-82.5 -67.5t-97 -44.5q-28 -10 -58 -26.5t-56 -39.5t-40.5 -47.5t-8 -52.5t38.5 -52q22 -14 46.5 -21.5t53.5 -6.5t51.5 3t54.5 11.5t47.5 14.5t46.5 17t35 14v-197q-83 -27 -164 -36t-169 6.5t-156 61.5
q-55 37 -83 101t-26 129.5t33.5 127.5t87.5 98q29 22 73 43.5t80 36t74 40.5t60 60q22 39 1 80t-65 50q-32 15 -70.5 16t-81.5 -12.5t-70.5 -24.5t-69.5 -32.5t-48 -23.5v208z" />
</svg>