<svg xmlns="http://www.w3.org/2000/svg" xmlns:xlink="http://www.w3.org/1999/xlink" version="1.1" viewBox="-10 0 2058 2048">
   <path fill="currentColor"
d="M316 0q5 6 15 17t45.5 43t75 60.5t103 64t130.5 60.5t156.5 42.5t182.5 17.5t182.5 -17t158 -43.5t129.5 -59.5t104 -65.5t74 -59t46 -43.5l15 -17q5 8 14.5 23.5t36 65t50 101t51.5 127.5t47 149t30 160.5t6 167.5q-6 90 -19.5 170t-43.5 173t-75 177.5t-117.5 179.5
t-167.5 183.5t-227 184t-294 186.5q-403 -228 -626 -479q-86 -97 -147.5 -197.5t-96 -199.5t-51.5 -188.5t-23 -189.5q-7 -109 15 -231.5t58 -218.5t73 -176t63 -124zM353 215q-64 132 -99 258q94 -119 239 -168q-68 -36 -140 -90zM1695 215q-72 54 -140 90q146 50 239 168
q-35 -126 -99 -258zM689 413q-77 -6 -147.5 17.5t-122.5 67.5t-88 105t-48 127.5t2 140t57 137.5t104.5 106t128 56.5t136.5 5.5t130 -40t109 -87.5t74 -129.5q40 117 140 189t224 72q76 0 144 -27.5t117 -73.5t80.5 -108t40.5 -128.5t-8.5 -137.5t-61.5 -133t-106 -101
t-128 -52t-135 -2.5t-128 42t-107 87.5t-72 128q-37 -110 -128.5 -181.5t-206.5 -79.5zM660 604q80 0 136.5 56.5t56.5 136t-57 136t-136 56.5t-135.5 -56.5t-56.5 -136.5t56 -136t136 -56zM1387.5 604q79.5 0 136 56t56.5 136t-56.5 136.5t-135.5 56.5t-135.5 -56.5
t-56.5 -136.5t56 -136t135.5 -56zM942 1231l82 82l82 -82q-44 -28 -82 -66q-38 38 -82 66zM498 1479q55 61 130 130v-122h135v232q92 69 194 132v-197h134v197q110 -68 195 -132v-232h134v123q147 -131 244 -279q49 -75 87 -165q-102 100 -240 134.5t-275 -7.5l-212 211
l-211 -211q-137 42 -275 7.5t-240 -134.5q70 167 200 313z" />
</svg>