<svg xmlns="http://www.w3.org/2000/svg" xmlns:xlink="http://www.w3.org/1999/xlink" version="1.1" viewBox="-10 0 2068 2048">
   <path fill="currentColor"
d="M0 57h2048v1934h-2048v-1934zM1444 420q-40 0 -65 27.5t-25 64.5q0 34 27.5 56.5t62.5 22.5q43 0 67.5 -23.5t24.5 -66.5q0 -34 -28 -57.5t-64 -23.5zM704 440q-3 0 -5 1t-3.5 2t-3 4t-2.5 4.5t-3 6.5t-3 8q-24 85 -74.5 261.5t-73.5 262.5q-24 74 -63.5 222t-62.5 222
q0 7 1 11t6.5 8t16.5 4h124q9 0 16.5 -7.5t7.5 -15.5q11 -40 33 -125.5t33 -125.5q3 -2 8.5 -10t11 -10.5t16.5 -2.5h238q17 0 25.5 7t8.5 16q11 40 39.5 125.5t40.5 125.5q8 17 12.5 20t21.5 3h114q25 0 28 -3t-6 -20l-136 -444q-28 -86 -79 -262t-79 -262q0 -11 -4 -16
t-8 -6t-12 -1h-170q-9 -3 -14 -3zM812 652q8 0 8 8q52 156 68 330q10 8 7.5 15.5t-19.5 7.5h-158q-12 0 -12 -23q7 -16 13 -35.5t10.5 -33.5t11 -38.5t9.5 -35t9.5 -40t8 -36t9.5 -40.5t9 -37q0 -6 5 -17t5 -17q8 -8 16 -8zM1380 667q-6 0 -10 7.5t-4 19.5v740q0 17 2.5 20
t19.5 3h80q42 0 49 -7t7 -50q0 -467 -10 -706q0 -7 -1 -11t-6.5 -8t-16.5 -4h-102q-4 -4 -8 -4z" />
</svg>