<svg xmlns="http://www.w3.org/2000/svg" xmlns:xlink="http://www.w3.org/1999/xlink" version="1.1" viewBox="-10 0 2068 2048">
   <path fill="currentColor"
d="M1024 0q161 0 304.5 44.5t259.5 129.5q80 -41 142 -41q113 0 189.5 79t76.5 188q0 113 -60 174q112 207 112 450q0 139 -37 271.5t-103 245t-161 207t-207 160.5t-244.5 103t-271 37t-271 -37t-245 -103t-207 -160.5t-161 -207t-103.5 -245t-37 -271.5t37 -271.5
t103.5 -245t161 -207t207 -160.5t245 -103t270.5 -37zM1024 164q-115 0 -226.5 31t-205.5 87t-174 135.5t-135.5 174t-87 205.5t-31.5 227t30.5 227t85.5 205.5t134 174t173.5 135.5t206.5 87t230 31q119 0 231 -30.5t206.5 -85.5t173.5 -134t134 -173t85 -206t30 -231
q0 -190 -82 -369q-24 11 -60 11q-114 0 -191 -78.5t-77 -187.5q0 -31 20 -93q-206 -143 -470 -143zM1024 604q116 0 213 58t152 157t55 215q-4 117 -61.5 213t-154.5 151.5t-214 55.5q-116 -5 -212 -62.5t-151 -154.5t-55 -213q4 -117 61.5 -213t154.5 -151.5t212 -55.5z
" />
</svg>