<svg xmlns="http://www.w3.org/2000/svg" xmlns:xlink="http://www.w3.org/1999/xlink" version="1.1" viewBox="-10 0 2067 2048">
   <path fill="currentColor"
d="M567 297q85 12 159.5 51t123.5 103q21 -9 77 -50t94 -48q7 -2 22 -6t22 -5.5t22 -4.5t22 -2.5t23 1.5q105 -9 190 60q18 6 36.5 26t31.5 40t27.5 36.5t24.5 16.5q19 -10 40 -15.5t46.5 -7.5t40.5 -2.5t47 0t42 0.5q125 14 244 109q107 114 138 223q10 63 4 205
q-19 86 -65 163t-113 134q-25 20 -55.5 33t-75.5 27t-61 20h-167q-39 71 -125 129q-88 46 -168 39q-15 6 -31.5 1.5t-34.5 -11t-33.5 -12.5t-27.5 -1t-17 24q-1 1 -12 17.5t-13 20t-12 18t-14 18.5t-13.5 16.5t-15.5 17t-16 13.5t-18.5 13.5t-19 10t-21.5 8.5
q-112 58 -239.5 30t-206.5 -125q-17 -10 -31.5 -37t-26.5 -49.5t-24 -24.5q-89 2 -153 -8t-116 -48q-29 -25 -48.5 -43.5t-39.5 -47.5t-26 -56q8 -30 6.5 -47t-5.5 -47t-3 -47q-6 -67 19.5 -131t75.5 -111q4 -15 17 -28t25.5 -22t22.5 -19t7.5 -23.5t-19.5 -31.5
q-6 -24 -7.5 -51t-0.5 -62t0 -52q11 -97 68 -181t145.5 -133.5t186.5 -46.5q12 12 25 13z" />
</svg>