<svg xmlns="http://www.w3.org/2000/svg" xmlns:xlink="http://www.w3.org/1999/xlink" version="1.1" viewBox="-10 0 2062 2048">
   <path fill="currentColor"
d="M2042 462q0 90 -35 173t-95 144t-144 97.5t-177 36.5q-126 0 -229 -59t-162 -162.5t-59 -229.5t59 -229.5t162 -162.5t229 -59q89 0 172 35t144 94.5t98 143.5t37 178zM793 0v1655q0 98 -4.5 144.5t-19.5 86.5q-18 44 -56 83t-81 56q-33 16 -78 19.5t-155 3.5
q-102 0 -147 -3.5t-84 -19.5q-44 -17 -83 -56t-56 -83q-12 -23 -16.5 -57t-5 -63t-0.5 -111v-1251q0 -91 0.5 -125t5.5 -76t16 -64q17 -35 49 -67t68 -49q39 -16 91.5 -19.5t174.5 -3.5h381z" />
</svg>