<svg xmlns="http://www.w3.org/2000/svg" xmlns:xlink="http://www.w3.org/1999/xlink" version="1.1" viewBox="-10 0 2058 2048">
   <path fill="currentColor"
d="M12 1044v-35q5 -26 16 -44.5t33 -43.5t31 -37l548 -547l23 -23q11 0 11 11l205 205q17 17 0 34q-9 53 9 100t59 72q16 8 19.5 17t3.5 29v501q0 23 -23 46q-44 26 -64.5 74t-3.5 98q17 51 57.5 82.5t91.5 31.5q49 0 89 -29.5t58 -73.5q17 -51 2 -99.5t-58 -83.5
q-16 -8 -19.5 -17t-3.5 -29v-513h11l182 182q5 5 8 10.5t3 9.5l1 3v69q8 68 61 106.5t122 30.5t111 -67.5t25 -127.5q-8 -59 -64.5 -96t-117.5 -29q-23 0 -46 -11l-194 -194q-11 -11 -11 -34q17 -76 -45 -138t-138 -45q-34 0 -34 -11q-137 -137 -205 -194q-17 -18 0 -35
q26 -21 50.5 -45.5t55 -57t42.5 -45.5q103 -103 206 0l866 867q103 103 0 206l-832 833q-5 5 -20 20.5t-23 23.5t-22 19.5t-29 18t-31 9.5h-24q-4 -2 -18.5 -8.5t-22.5 -10.5t-19.5 -11.5t-19.5 -15.5q-21 -21 -66.5 -64.5t-82.5 -80t-67 -72.5l-628 -627
q-5 -14 -33.5 -51.5t-34.5 -62.5z" />
</svg>