<svg xmlns="http://www.w3.org/2000/svg" xmlns:xlink="http://www.w3.org/1999/xlink" version="1.1" viewBox="-10 0 2058 2048">
   <path fill="currentColor"
d="M1335 732q22 23 68 71.5t71.5 76t63.5 74.5t60.5 83.5t44 85.5t31.5 98q21 122 3.5 237.5t-67.5 228.5q-67 152 -209.5 249.5t-309.5 109.5q-173 14 -335.5 -55t-257.5 -207q-64 -93 -98.5 -206t-37 -225t18.5 -227q83 -433 378 -835q42 -54 70.5 -87t70.5 -76.5t86 -75
t91 -52.5q-14 247 74 467q-127 -14 -244.5 27t-186.5 137q-49 71 -60 158t23 166q12 21 30.5 40t34.5 31.5t43 26.5t42.5 21.5t47.5 20.5t44 19q3 1 8 3q26 10 40 16t36.5 19t34.5 25t23 31t14 41q12 59 -25 110t-96 63q-100 26 -206.5 -6.5t-190.5 -105.5
q-7 37 -21.5 112.5t-22.5 113.5q102 44 203.5 64.5t214 9.5t201.5 -63q82 -48 127 -135.5t39 -183.5q1 -77 -42.5 -143t-114.5 -102q-30 -17 -88 -41t-102.5 -49t-74.5 -61q-28 -46 0 -98t79 -71q77 -25 154 -17.5t149 42.5q13 4 38.5 23.5t32.5 20.5zM891 1871q17 3 45 9
t47.5 9.5t44 6.5t48 2t44.5 -6q54 -34 -3 -76q-36 -27 -78 -34q-61 -19 -140.5 -33.5t-122.5 -20t-144 -17.5q125 122 259 160z" />
</svg>