<svg xmlns="http://www.w3.org/2000/svg" xmlns:xlink="http://www.w3.org/1999/xlink" version="1.1" viewBox="-10 0 2068 2048">
   <path fill="currentColor"
d="M359 2042q-216 -27 -304 -194q-26 -52 -38 -103l-2 -11l75 -127q48 -82 73 -126l4 -7q46 126 100 281q98 280 100 285q1 3 0.5 3h-2.5q-3 -1 -6 -1zM526 2036l90 -362l92 -360q1 -1 342.5 131t346.5 135q2 0 -16.5 17t-49.5 43.5t-60 49.5q-352 283 -722 344q-23 3 -23 2
zM916 2017q11 -4 22 -10q204 -93 419 -272q77 -62 135 -119l6 -4l184 164q184 162 191 167q8 5 11 5l6 2q-215 15 -478 33q-482 33 -488 33h-8v1zM340 1694l-103 -295q1 -1 188.5 -43t188.5 -42t-8.5 37.5t-24.5 97t-33 131.5t-36 144.5t-33 132t-24.5 97t-10.5 37.5
q-47 -134 -104 -297zM1935 1888q-2 -6 -13 -17q-2 -2 -26.5 -24t-69.5 -62.5t-87 -77.5q-174 -155 -176 -156q-1 -2 26 -32q181 -198 281 -350q67 -101 122 -212q3 -5 5 -9.5t4 -8.5t4 -7.5t3.5 -6t2.5 -4.5t1.5 -2.5l0.5 -0.5l-15.5 204.5t-34.5 449t-25 318.5v5zM0 1322
l1 -261q123 293 126 301q0 1 -63 111l-64 110v-261zM1103 1370q-337 -130 -341 -132l-5 -2l223 -207q51 -48 111 -103.5t89 -82.5t30 -28l6 -5l98 301q54 166 114 346q4 11 7 21.5t4.5 16.5t1 6t-43 -17t-129 -50.5t-165.5 -63.5zM1523 1460q-1 -2 -112.5 -343t-111 -342
t323.5 -8t342 -7l16 1l-12 27q-95 247 -292 493q-69 86 -118 140q-15 16 -28 32l-8 7v0zM127 1131l-76 -183l112 -194q102 -176 118 -200q5 -5 206.5 -192.5t206.5 -191.5t180.5 -68.5t176.5 -63.5q2 0 147 102q36 25 60.5 42.5t40.5 29t25 18t13 10t5 4.5t0 2q-3 6 -73 232
q-71 229 -74 229l-132.5 123.5t-267 248.5t-138.5 129l-7 5l-218 50q-222 50 -223 50l-5 1zM1297 683q1 -4 31.5 -99.5t60.5 -190l30 -94.5q116 83 256 185l255 185l-8 1l-41.5 1.5t-117 3.5t-148.5 3q-72 1 -148.5 3t-117.5 3t-43 1q-8 -1 -9 -3v1zM1746 425l-273 -197
q75 -43 166 -93l166 -92l11 3q22 9 59 31q121 76 157 220q14 55 15 118q2 47 -6 96q-3 22 -8 49t-9.5 45.5t-5.5 18.5l-32.5 -24t-107.5 -79t-132 -96zM1278 88l-117 -82l132 -1h264l132 1l-147 82l-148 81q-52 -36 -116 -81z" />
</svg>