<svg xmlns="http://www.w3.org/2000/svg" xmlns:xlink="http://www.w3.org/1999/xlink" version="1.1" viewBox="-10 0 2068 2048">
   <path fill="currentColor"
d="M358 1q108 4 195 69t119 187h704q18 -67 57.5 -120t91 -84.5t113 -44.5t121.5 -4t117 42t99.5 87.5t59.5 118.5t10.5 124t-34 116.5t-71 98t-104.5 67t-130 25.5q-92 0 -170 -48l-902 902q26 41 38 85h694v-256h680v682h-680v-256h-694q-18 66 -57.5 119t-91 85
t-113 44.5t-121.5 3.5t-117 -42t-99.5 -87.5t-59.5 -118.5t-10.5 -124t34 -116.5t71 -98.5t104.5 -67t130 -24q94 0 172 48l900 -900q-25 -41 -38 -86h-704q-19 70 -58.5 123.5t-89.5 83t-109 41.5t-116.5 5t-111.5 -33.5t-95 -68t-65.5 -103t-24.5 -133.5q0 -82 30.5 -149
t81 -109.5t114 -64.5t130.5 -19zM1714 168q-71 0 -121.5 50t-50.5 120.5t50.5 121t121.5 50.5t121.5 -50.5t50.5 -121t-50.5 -120.5t-121.5 -50zM343.5 177q-70.5 0 -121 50.5t-50.5 121t50.5 121.5t121 51t120.5 -51t50 -121.5t-50 -121t-120.5 -50.5zM1534 1537v340h342
v-340h-342zM335.5 1541q-70.5 0 -121 50t-50.5 121v1q0 70 50.5 120.5t121 50.5t120.5 -50.5t50 -120.5v-1q0 -71 -50 -121t-120.5 -50z" />
</svg>