<svg xmlns="http://www.w3.org/2000/svg" xmlns:xlink="http://www.w3.org/1999/xlink" version="1.1" viewBox="-10 0 2068 2048">
   <path fill="currentColor"
d="M1460 1123l588 -71v658l-416 52q-122 -467 -172 -639zM750 1194l132 658l-882 113v-690zM1380 525q68 -165 30 -295q115 34 242 113q63 40 125.5 97t107.5 110.5t80.5 101t53.5 76.5l19 29l-670 82q-10 -36 -29.5 -102t-30.5 -101q7 -6 13 -13t12 -16t9.5 -14.5t10 -17
t9 -16t9.5 -18t9 -16.5zM648 849q5 10 11 30t11 31l-670 81l366 -284q113 128 282 142zM1126 646q10 33 87.5 323.5t145 533t81.5 269.5q15 77 -40 132q-18 17 -37.5 29.5t-46 19.5t-40 10t-48 7t-42.5 5q-36 7 -64.5 -23.5t-35.5 -78.5q-10 -59 -66.5 -305.5t-121.5 -521
t-66 -278.5q-4 -14 -13.5 -21t-16 -8t-20.5 -1q-138 0 -214 -122q-28 -44 -32 -104.5t11 -114t41 -96.5q5 -9 15 -11.5t18 -0.5l9 2q29 20 50 41q68 89 102 122q14 15 30 0q68 -42 172 -111q10 0 12 -2.5t0 -9t-2 -9.5l-90 -182q-16 -23 -10.5 -42.5t28.5 -19.5
q177 -34 264 112q81 122 10 284q-25 49 -60 101q-15 15 -16.5 32t6.5 39z" />
</svg>