<svg xmlns="http://www.w3.org/2000/svg" xmlns:xlink="http://www.w3.org/1999/xlink" version="1.1" viewBox="-10 0 2058 2048">
   <path fill="currentColor"
d="M1676 1048q-39 15 -63 48t-38 93q0 171 10 262q44 -37 69.5 -77.5t41.5 -94.5q40 40 61 74t29 77q8 58 -3.5 120t-46.5 112q-42 67 -141 100l-29 31q-95 143 -263 171q-5 5 -20 10t-20 10q-34 27 -75.5 39.5t-105.5 21.5q-101 8 -183 -6.5t-159 -64.5q0 -10 -21 -10
q-182 -30 -271 -181q-21 -21 -31 -21q-78 -29 -125.5 -81t-62 -112.5t-3.5 -128.5q0 -85 91 -161q7 50 34 91t76 81q0 -17 5 -45t5 -36q11 -66 11 -172q0 -79 -81 -121q-84 -34 -131 -70q-41 -32 -56 -71.5t6 -79.5q4 -14 13 -25.5t26 -26.5t21 -18q40 -40 40 -61v-100
q0 -5 -5 -15.5t-5 -15.5q-5 -16 -20 -45.5t-20 -44.5q-8 -46 15.5 -81t75.5 -50q10 0 30 -5t30 -5q22 -61 7.5 -93.5t-67.5 -47.5q-20 -10 -61 -20.5t-61 -20.5l81 -80q89 -46 176 -44.5t177 53.5q20 15 60 50.5t60 51.5q5 5 15.5 10t15.5 10q0 -5 5 -15.5t5 -15.5
q16 -82 90 -141q5 0 10.5 -5t10.5 -5h10q0 7 -1.5 28.5t-1 32t6 25.5t16.5 26q14 -65 55 -101t116 -61q-16 36 -14.5 70.5t24.5 70.5q2 -2 15.5 -10.5t16.5 -10t15 -8.5t16.5 -9t15.5 -7t17.5 -6.5t16 -4.5t19 -3.5t19.5 -0.5l-30 60q0 10 -5.5 30t-5.5 30q0 20 21 31
q36 18 50 -10q60 -69 119.5 -106.5t143.5 -44.5q165 -18 261 91q10 -1 10 9q-31 0 -51 10q-48 15 -79 31q-18 11 -28.5 24.5t-15 23.5t-4.5 26.5t1.5 25.5t5.5 30l10 11h10q99 7 130.5 61t-20.5 130q-44 71 -29 161q15 49 40 61q44 19 60.5 58t0 81.5t-60.5 71.5
q-18 14 -39 25.5t-54 27t-38 18.5z" />
</svg>