<svg xmlns="http://www.w3.org/2000/svg" xmlns:xlink="http://www.w3.org/1999/xlink" version="1.1" viewBox="-10 0 2058 2048">
   <path fill="currentColor"
d="M1569 2q85 20 142 108q-4 -1 -22 -17.5t-39 -34.5t-49.5 -30t-50.5 -6q-23 4 -43.5 15.5t-34.5 23.5t-30 34.5t-24 36.5t-23 41.5l-21 38.5q-143 297 -207 679q-34 212 -40 336q-1 12 -3.5 38t-4 43t-1 38.5t4.5 36.5q1 -5 9.5 -30t11 -32.5t10 -29.5t11 -32t11 -30
t13 -32t12.5 -29t14.5 -31t15.5 -28q20 -35 34 -56.5t36 -50t47.5 -47.5t54.5 -30q-101 104 -154 281q-11 34 -19 69.5t-17.5 90.5t-11.5 69q-1 20 -5 80.5t-5.5 91.5t-1.5 79.5t4 88.5q2 10 1 44q0 80 16 89q11 6 29 -7q14 -37 19 -35q7 4 -7 47q-20 59 -46 55h-3
q-17 -12 -63.5 -10t-90.5 7.5t-85 -2.5q-15 3 -45 1t-58 -16.5t-24 -32.5q-2 -3 -4 -9l-6 -15l3 2q21 22 37 19q24 5 36.5 -3.5t13.5 -24.5t0.5 -33.5t-2.5 -29.5t5 -13q10 55 15 42q9 -19 4 -95q0 -50 -0.5 -69.5t-3.5 -57t-10 -63.5q-10 -77 -40 -146t-84 -126.5
t-124 -82.5q-50 -10 -45 -15q7 -8 69 -1q43 6 59 17q38 12 70.5 36.5t58.5 58t44.5 65.5t37.5 73q0 -42 3 -88t8 -103t7 -88q12 -126 46 -328q20 -107 41.5 -191.5t55 -180t82.5 -180t112 -153.5q49 -63 112 -101t132 -29zM438 1081q10 37 20 83.5t15.5 78.5t15 88.5
t13.5 81.5q24 148 45 370q8 -17 68 -32q58 -13 57 5q-29 -2 -50 13t-32 41.5t-16 52t-6 53.5q-16 34 3 71q16 31 36 19q11 -6 20 -27q6 -30 10 -29q6 2 -1 42q-8 47 -27 44q-2 -1 -3 -1q-6 0 -34 3.5t-35.5 4.5t-32.5 3t-36 2t-32 -1t-34.5 -4t-31 -8t-32.5 -12
q8 -4 12.5 -11.5t5 -13t2.5 -8.5t6 1t14 18q51 20 35 -62q-1 -3 -2 -8l-1 -10l11 22q13 50 18 37q7 -20 -5 -101q-2 -11 -3 -16q-8 -87 -28.5 -156.5t-64.5 -122.5q-3 -9 10 1q34 25 65 69q15 20 18 33q24 60 26 21q0 -13 -2 -49q-2 -40 -1 -52q1 -38 -1.5 -107t-1.5 -104
q-3 -33 -3 -87t-2 -86q-1 -19 -4.5 -70.5t-3.5 -79.5z" />
</svg>