<svg xmlns="http://www.w3.org/2000/svg" xmlns:xlink="http://www.w3.org/1999/xlink" version="1.1" viewBox="-10 0 2068 2048">
   <path fill="currentColor"
d="M1358 1353q-29 29 -102 98.5t-112 107.5q-4 4 -8 5.5t-6 2.5t-6 -1.5t-5.5 -3t-6 -5t-4.5 -5.5q-66 -62 -196 -186.5t-196 -187.5q-3 -3 -13.5 -14t-18.5 -17q-28 28 -83.5 80.5t-82.5 78.5q-49 46 -136.5 131.5t-115.5 112.5q-14 14 -25.5 14t-26.5 -14
q-36 -36 -108.5 -105t-105.5 -101q3 -2 23.5 -15t28.5 -22q416 -397 610 -584q13 -12 22.5 -12.5t23.5 11.5q93 91 198.5 192.5t234.5 225.5t199 191q4 4 10 12t8 10zM1372 481q69 67 307 296.5t369 353.5q-121 114 -232 222l-222 -213l-222 -213q-22 20 -74.5 71t-83.5 79
q-38 -37 -114.5 -111t-115.5 -111q40 -39 176 -170.5t212 -203.5z" />
</svg>