<svg xmlns="http://www.w3.org/2000/svg" xmlns:xlink="http://www.w3.org/1999/xlink" version="1.1" viewBox="-11 0 2068 2048">
   <path fill="currentColor"
d="M2047 843v849h-356v356h-861l-718 -718q-43 -38 -71.5 -84t-38 -101t16.5 -106q108 -230 328 -688q121 -63 356 -180.5l265 -132.5q67 -43 151 -37.5t143 58.5q150 149 424 423zM1009 68q-92 46 -275.5 137.5t-274.5 137.5h435q66 0 186.5 -0.5t219.5 0t187 3.5
l-223 -223q-47 -56 -118.5 -73t-136.5 18zM1646 2003v-324q-210 -210 -629.5 -630t-629.5 -630v923q1 17 -1 74.5t5.5 94t31.5 65.5q82 84 235.5 237.5l189.5 189.5h798z" />
</svg>