<svg xmlns="http://www.w3.org/2000/svg" xmlns:xlink="http://www.w3.org/1999/xlink" version="1.1" viewBox="-10 0 2058 2048">
   <path fill="currentColor"
d="M1854 132q33 91 58.5 169t50 166t39.5 170t24 168t8.5 175t-11.5 177q-51 387 -349 653q-156 121 -330.5 183t-356.5 54q-440 -17 -721 -349q-283 -333 -248 -755q16 -327 236 -563q217 -295 653 -372q392 -49 733 202l1 1q24 19 34 27.5t26.5 19.5t22 15.5t18 6.5
t15.5 1t13 -8.5t13.5 -14t13.5 -23.5t15.5 -30t18.5 -40q3 0 5 -1t4 -4t3.5 -6t4.5 -10t6 -12zM1764 785q-77 334 -417 620q-31 26 -63.5 48.5t-72.5 44t-67.5 35.5t-77.5 34t-71 28.5t-80 30t-75 27.5q-23 5 -68 22t-67 23q0 23 11 34q63 -3 232 -6t290 -11t233 -29
q223 -34 342.5 -159.5t163.5 -358.5q46 -276 -44 -597q-20 -57 -49.5 -165.5t-41.5 -149.5q-18 25 -27 34.5t-17 9.5q-72 112 -176.5 192.5t-241.5 145.5q-36 16 -78.5 28.5t-75.5 19.5t-86 13t-78.5 8t-86.5 6t-78 5q-121 9 -218.5 39.5t-176.5 94.5q-66 50 -113 125
t-66.5 156.5t-12 165.5t45.5 150q41 83 94.5 107t141.5 6q28 -6 84.5 -22.5t85.5 -21.5q171 -44 312.5 -104.5t271 -147.5t234.5 -207.5t184 -273.5zM401 1608q-34 0 -57 27.5t-23 62.5q0 33 27.5 56t63.5 23q32 0 55.5 -28t23.5 -63q0 -43 -20 -60.5t-70 -17.5z" />
</svg>