<svg xmlns="http://www.w3.org/2000/svg" xmlns:xlink="http://www.w3.org/1999/xlink" version="1.1" viewBox="-10 0 2058 2048">
   <path fill="currentColor"
d="M1073 0q1 62 1.5 79.5t4.5 81.5t10.5 96t20.5 92.5t33 103t49.5 96.5t69.5 101q44 54 114.5 124.5t118 121t95.5 118t72.5 151t24.5 184.5q0 134 -38.5 250t-102.5 197t-148 139t-175.5 85.5t-183.5 27.5q-67 0 -133 -12.5t-133.5 -40t-127.5 -68t-112.5 -101t-90 -135.5
t-59.5 -174t-22 -213q0 -233 108.5 -505.5t307.5 -523.5q171 -215 296 -275zM653 1825q128 107 321 148q117 25 119 -9q1 -26 -56 -60q-29 -17 -63 -29q-123 -43 -321 -50z" />
</svg>