<svg xmlns="http://www.w3.org/2000/svg" xmlns:xlink="http://www.w3.org/1999/xlink" version="1.1" viewBox="-11 0 2070 2048">
   <path fill="currentColor"
d="M1936 366q28 28 51 64t40 88t20.5 108.5t-14.5 127t-58 141.5t-117 154t-185 164q-54 41 -95 103t-64 134.5t-35 146.5t-13 151q0 13 -9 22t-22 9h-139q-11 0 -20 -8t-11 -20q-10 -79 -68.5 -131.5t-139.5 -52.5q-79 0 -139 52.5t-71 131.5q-1 12 -9.5 20t-20.5 8h-141
q-11 0 -19.5 -8t-10.5 -20q-10 -79 -69.5 -131.5t-140.5 -52.5q-79 0 -138.5 52.5t-70.5 131.5q-1 12 -10 20t-21 8h-143q-11 0 -20 -7t-11 -18q-40 -209 -8.5 -387.5t113.5 -313.5t206 -223l126 219q36 60 103 78.5t127 -15.5l60 -33l1 -1q103 -64 199 -149
q11 -10 10.5 -24t-12.5 -22v-1q-9 -7 -21 -6.5t-21 8.5q-38 35 -85 70t-75 52l-28 18l-58 33l2 -2l-4 2q-37 22 -79 10t-64 -50l-135 -231q-23 -41 -9 -85.5t56 -64.5q95 -45 188.5 -70.5t167.5 -35t156.5 0t137 21t128.5 41t111 47t104 52.5q63 32 94.5 46.5t81 32
t80.5 16.5t67.5 -14t67.5 -44q55 -57 55 -132q0 -77 -54 -132t-131 -55q-61 0 -111 37q-9 7 -21.5 6.5t-20.5 -8.5l-41 -42q-9 -10 -9 -23t10 -21q97 -89 227 -87l-1 -3q128 1 223 97zM1371 844q-25 0 -44 18.5t-19 43.5v1l99 50q23 -17 25.5 -44.5t-15 -48t-46.5 -20.5z
" />
</svg>