<svg xmlns="http://www.w3.org/2000/svg" xmlns:xlink="http://www.w3.org/1999/xlink" version="1.1" viewBox="-10 0 2058 2048">
   <path fill="currentColor"
d="M1247 1180q-63 40 -199.5 124.5t-198.5 124.5q65 148 12 307q-42 134 -137 211.5t-226 95.5q-52 13 -125 -11q-59 -14 -80 -80q-68 -153 34 -273q8 -9 32.5 -34.5t38 -39t35.5 -32t42 -30.5q31 -25 104 -65.5t101 -59.5q5 -5 10.5 -8t16 -7t18.5 -8q-13 -8 -27 -21
t-22.5 -19t-18.5 -6q-158 -99 -262 -203q-3 -2 -13.5 -13t-14 -14.5t-13 -13.5t-13.5 -14.5t-12.5 -14t-13 -15t-12 -14.5t-12.5 -16t-10.5 -15.5t-10.5 -17.5q-50 -39 -73 -89.5t-18 -102.5t34 -104q30 -78 81.5 -145.5t123.5 -139.5q259 -226 613 -351q250 -90 478 -57
q22 12 79 29t80 28q129 51 176.5 151t5.5 235q-35 113 -104 203t-169 149q-140 87 -280.5 118.5t-299.5 6.5q-95 -15 -181 -102q-21 -44 -34 -57q0 -12 11 -23q12 1 23 12q118 119 295 79q156 -27 278 -86t211 -164q86 -110 114 -205q31 -125 -103 -203q-44 -22 -91.5 -32
t-91 -9t-90.5 6q-307 46 -613 238q-171 96 -261 216q-36 48 -80 137q-27 67 -15.5 133.5t61.5 116.5q87 89 136 126q34 29 108 91.5t108 90.5q3 0 10 2.5t13 2.5t11 -5q47 -32 90 -46q169 -95 319 -125q0 13 1 22t3.5 15t4.5 8.5t6.5 6t6.5 5.5zM759 1463q-152 85 -261 194
q-65 66 -80 147q-9 50 21 75.5t82 16.5q127 -32 204 -148q40 -65 46.5 -134t-12.5 -151z" />
</svg>