<svg xmlns="http://www.w3.org/2000/svg" xmlns:xlink="http://www.w3.org/1999/xlink" version="1.1" viewBox="-10 0 2068 2048">
   <path fill="currentColor"
d="M482 297h358q62 87 179.5 266t178.5 266q45 66 149 222t161 241t141 213t153 236h-358l-10 -10q-46 -72 -143.5 -215.5t-144.5 -215.5l-4 -8l-6 8q-46 72 -143 216t-143 215l-10 10h-358v-10q76 -118 235 -353.5t235 -353.5v-10q-76 -118 -235 -353.5t-235 -353.5v-10z
M0 307h360l10 10q40 56 116.5 174.5t117.5 174.5q24 36 76.5 112.5t90 133.5t69.5 112v10q-88 136 -259.5 389.5t-220.5 327.5h-360v-10q10 -15 38 -59.5t50 -76t46 -59.5q55 -87 168 -256t170 -256v-10q-233 -374 -472 -717zM1250 717h798v245h-644q-26 -41 -77 -117.5
t-77 -117.5v-10zM1484 1086h564v245h-410q-26 -41 -76.5 -117.5t-77.5 -117.5v-10z" />
</svg>