<svg xmlns="http://www.w3.org/2000/svg" xmlns:xlink="http://www.w3.org/1999/xlink" version="1.1" viewBox="-10 0 2058 2048">
   <path fill="currentColor"
d="M1291 0v1q164 0 310 76q144 74 241 211q126 183 126 398q0 117 -37 223q-52 155 -172 272q-117 114 -275 162q-95 28 -193 28q-65 0 -126 -12q-107 -21 -200 -73l-670 762l-77 -68l-3 2l-91 -83l1 -1l-45 -39l671 -763q-100 -134 -128 -309q-8 -54 -8 -103
q0 -151 59 -280q80 -183 250 -295q165 -109 367 -109zM1294 225q-93 0 -178 36t-148 100q-134 136 -134 326q0 91 36 177q54 131 169 208q113 77 255 77q93 0 176.5 -35.5t147.5 -99.5q134 -136 134 -327q0 -141 -77 -257q-75 -115 -206 -169q-83 -36 -175 -36z" />
</svg>