<svg xmlns="http://www.w3.org/2000/svg" xmlns:xlink="http://www.w3.org/1999/xlink" version="1.1" viewBox="-10 0 2058 2048">
   <path fill="currentColor"
d="M959 0v581q0 19 -9 28l-590 590q0 9 -9 9v-590q0 -7 1 -8t8 -1q101 -102 299.5 -304.5t299.5 -304.5zM1697 849v590q0 7 -1 8t-8 1l-599 600h-9v-591q0 -7 1 -8t8 -1q101 -96 301.5 -296.5t306.5 -302.5zM1670 710l-590 590v-581q0 -7 1 -8t8 -1h581zM968 738v581
q0 7 -1 8.5t-8 1.5h-581q283 -298 590 -591zM351 2030v-582q0 -7 1 -8t8 -1h581q-66 66 -183.5 185.5t-217 219.5t-189.5 186z" />
</svg>