<svg xmlns="http://www.w3.org/2000/svg" xmlns:xlink="http://www.w3.org/1999/xlink" version="1.1" viewBox="-10 0 2058 2048">
   <path fill="currentColor"
d="M1151 698q130 0 257 31q10 5 25.5 10t25.5 10q45 22 72.5 54.5t36 68t4.5 72.5t-20 72q-6 18 -14.5 34t-22.5 32.5t-23 26t-28 28t-25 23.5q-37 33 -77.5 61.5t-105 69.5t-84.5 54q-23 17 -70 46.5t-83 55t-63 52.5q-10 10 -25.5 30.5t-25.5 30.5q-14 22 -16.5 52t5.5 52
q24 47 68 82.5t97 50.5q61 15 103.5 -17.5t50.5 -95.5v-41q0 -43 30 -73q58 -37 114 -51q108 -21 164 -10q21 0 31 10q37 15 48 39t3 64q-43 173 -184 298q-124 109 -278 124q-125 15 -247 -31q-200 -76 -337 -221.5t-206 -354.5q-45 -155 -2.5 -288.5t166.5 -234.5
q143 -129 400 -185q86 -21 124 -21q51 -10 112 -10zM1284 400q8 -114 61 -207.5t155 -152.5q121 -60 247 -30q68 15 94.5 54t18.5 109q-12 77 -72 155q-29 39 -48 63t-47 55t-58 55t-63 42q-66 50 -133 63q-47 8 -83 -10t-51 -63q-21 -65 -21 -133zM1141 226q0 145 -72 246
q-13 27 -40 40q-23 23 -52 23t-52 -23q-14 -14 -24.5 -31.5t-15 -29t-11.5 -31.5q-34 -124 -10 -225q15 -55 54 -84.5t100 -29.5q40 0 68 16t35 46q10 10 10 30q0 33 10 53zM720 441q0 36 -0.5 53t-7.5 44.5t-22 46.5q-15 39 -45 45t-69 -24q-86 -72 -102 -186v-71
q8 -47 42.5 -80t79.5 -33q57 0 83 41q41 54 41 133v31zM433 739q0 29 -21 71q-15 46 -61 31q-8 0 -11 -1t-10 -9q-59 -22 -101.5 -91.5t-42.5 -133.5q0 -36 24.5 -66.5t58.5 -47.5q46 -15 92 31q19 19 32.5 49.5t18 49t11.5 55.5q10 31 10 62z" />
</svg>