<svg xmlns="http://www.w3.org/2000/svg" xmlns:xlink="http://www.w3.org/1999/xlink" version="1.1" viewBox="-10 0 2068 2048">
   <path fill="currentColor"
d="M1682 556l366 1288l-488 150l-394 -1275l204 -68q-13 -48 -35 -105t-54.5 -121t-68.5 -115.5t-80.5 -85.5t-87 -34t-88 33.5t-83.5 85.5t-72.5 115.5t-57.5 121.5t-37 105l176 55l-394 1275l-488 -149l394 -1276l190 55q11 -34 24.5 -70t39.5 -93.5t54.5 -108
t68.5 -104.5t82 -92.5t96 -63.5t109.5 -25t108.5 24.5t94 62t79.5 91t65 103t51 107.5t37.5 95t24 74z" />
</svg>