<svg xmlns="http://www.w3.org/2000/svg" xmlns:xlink="http://www.w3.org/1999/xlink" version="1.1" viewBox="-10 0 2068 2048">
   <path fill="currentColor"
d="M370 620q0 -5 -5 -10.5t-5 -10.5q-11 -15 -36.5 -45t-35.5 -46q-69 -69 -92 -114q43 43 102 83q10 5 25 20t25 20q21 15 57 46t57 46q18 18 41 35.5t51.5 37t41.5 29.5q9 7 36.5 29.5t41 32.5t35 25.5t39.5 26.5q42 31 123.5 87t122.5 87v-10q-131 -151 -196 -216
q-78 -99 -122 -143q-15 -21 -50.5 -66.5t-51.5 -66.5q0 -5 -5 -10t-5 -10l-92 -124q-4 -6 -20 -29.5t-22 -41.5q26 20 72.5 66.5t71.5 66.5q26 26 82 76.5t82 76.5q21 16 61.5 51.5t60.5 51.5l124 92q15 10 40.5 31t41.5 31q184 135 348 245q7 9 13.5 7t6.5 -17
q50 -124 50 -318q0 -144 -50 -276q0 -17 -20 -82q-5 -9 -19.5 -40t-27 -53t-25.5 -40q-14 -54 -72 -112q0 -5 -5 -10.5t-5 -10.5q50 25 102 61q220 161 380 400q6 13 23 46.5t26.5 52t21.5 46t19 49.5q72 179 72 328v10q0 92 -10 133q-4 21 -10 62t-10 61q0 20 10 31
q122 151 154 337q10 31 10 104q0 50 -10 81q0 8 -1.5 9t-8.5 1q-5 0 -7.5 -2.5t-3.5 -5.5l-1 -2q-70 -141 -194 -154q-29 -8 -58.5 -8.5t-58 5t-53.5 13.5t-54 21q-21 8 -66.5 32t-67.5 30q-215 93 -450 61q-172 -17 -306 -71h-12q-30 -15 -91 -41t-93 -42
q-298 -163 -500 -460l-12 -10q8 0 11 1.5t11 8.5q52 36 102 61q12 6 38 21.5t46 25.5t38 14q78 46 176 62q4 5 9 5.5t9 5.5q132 40 328 40q213 -16 368 -102q16 -8 16 -10.5t-16 -10.5q-32 -23 -64.5 -51t-74.5 -65.5t-65 -57.5q-26 -21 -72 -67t-72 -66q-19 -14 -38.5 -35
t-30.5 -35l-33 -42q-10 -16 -35.5 -42t-36.5 -41q-20 -20 -61 -65.5t-61 -66.5q-16 -20 -46 -56.5t-46 -56.5q0 -20 -30 -51z" />
</svg>