<svg xmlns="http://www.w3.org/2000/svg" xmlns:xlink="http://www.w3.org/1999/xlink" version="1.1" viewBox="-10 0 2069 2048">
   <path fill="currentColor"
d="M1219 1485q44 43 56.5 95.5t4.5 119.5v245q0 46 21.5 61.5t60.5 -0.5q104 -35 197.5 -91.5t170 -130t138 -161t102 -186.5t61 -203t17 -215t-31.5 -219q-30 -111 -82.5 -211t-122 -183t-155 -151.5t-181.5 -115t-202 -74.5t-216.5 -30t-225.5 18q-171 34 -320.5 120
t-259 208t-175.5 281t-74 333q-16 279 100 501.5t350 386.5q111 71 246 123q30 7 50.5 -5t20.5 -35v-195q-52 10 -143 10q-79 -8 -131.5 -42t-82.5 -101q-32 -95 -113 -143l-20 -21q-9 -8 -7 -19.5t17 -11.5h51q88 12 143 104q34 54 83 79.5t99.5 24t103.5 -22.5
q11 0 11 -10q20 -81 62 -123q-28 -6 -133 -31q-117 -32 -193 -96.5t-114 -169.5q-5 -21 -10.5 -56.5t-10.5 -55.5q-17 -98 4.5 -191.5t87.5 -166.5v-20q-16 -53 -16 -107.5t16 -107.5q7 -39 15 -44t47 3q17 2 33 5.5t33.5 10t28.5 11t31 15.5t28 15t31 17.5t29 17.5
q11 11 31 11q240 -60 480 0q19 0 30 -11q50 -34 103 -61q28 -15 42.5 -21.5t40.5 -13.5t50 -7q15 0 22.5 6t7.5 15q42 111 10 236q0 20 10 30q28 35 39.5 51t25 44.5t18.5 57.5q47 203 -41 379q-70 152 -276 204q-21 5 -62 10.5t-61 10.5z" />
</svg>