<svg xmlns="http://www.w3.org/2000/svg" xmlns:xlink="http://www.w3.org/1999/xlink" version="1.1" viewBox="-10 0 2068 2048">
   <path fill="currentColor"
d="M2047 80q1 75 -1 228v23q-11 4 -34 11.5t-35 11.5q-16 6 -43 13.5l-45 12.5t-41 16t-38.5 23.5t-29 33.5t-21.5 49q-1 6 -15 12t-28 8q-31 5 -111.5 17t-123.5 20q-17 3 -36 29q-7 11 -25 52q6 4 21 14.5t22.5 15t21.5 11.5t24.5 9t25.5 2t30 -5q54 -16 157 -22
q10 -1 24.5 11t14.5 19q0 18 -3 37.5t-8 45.5t-8 40q-191 16 -334 28q5 32 22 163t27 200q1 6 11 13t17 7q20 1 115 1q5 -27 0.5 -42.5t-18.5 -28t-28.5 -20.5t-29 -20t-20.5 -26q148 -60 307 -2q-5 5 -41 36t-56 49q2 20 5 52q2 10 7.5 34.5t6.5 35.5t-1 34q-8 46 -11 64
t-7 58.5t-1.5 64.5t10.5 57.5t24 62.5q2 6 1.5 9.5t-2.5 11t-3 11.5q-1 11 -6 50.5t-7 65t-1 49.5q2 29 3 40t-0.5 28.5t-2.5 22t-8.5 12.5t-13.5 8.5t-22.5 1.5t-29.5 -0.5t-41 -4.5q-4 -1 -11.5 -4.5t-11.5 -4.5v-180h-102q3 20 11.5 91.5t12.5 113.5h-229v-191h-112
q4 47 21 222h-160q-1 -4 -7.5 -16.5t-9 -20.5t-1.5 -15q8 -34 8 -74t-3 -64t-12 -73.5t-12 -64.5q33 -46 34 -78q3 -41 3 -204q0 -3 1 -14.5t0 -17.5t-4 -7q-18 -11 -25 -28t-5 -32t1.5 -31t-8.5 -24q6 -8 17 -20.5t16 -21t5 -15.5q0 -4 -1.5 -8.5t-5.5 -10t-7.5 -9l-9 -9
l-8.5 -8.5q-26 -30 -62 -69q171 -68 330 7q-18 14 -52 40t-52 39v73h111q4 -58 11.5 -180t10.5 -187q-95 5 -319 17.5t-346 19.5v355h121q3 -3 6.5 -8t5.5 -7q-15 -19 -44.5 -54.5t-43.5 -52.5q138 -58 278 0q-8 7 -24.5 20t-27.5 23t-19 21q-8 12 -10.5 35t3.5 28
q47 30 17 90q-14 29 -19 64.5t-4.5 57t6 67.5t6.5 59q2 16 9 53.5t7 57.5q0 31 -5 89.5t-6 73.5v16.5v19v15.5h-127v-186q-17 1 -54 4.5t-59 5.5v188h-213q10 -72 24 -171h-168q17 139 23 193h-97q-28 2 -39.5 -10t-8.5 -40q3 -22 1 -50q0 -9 1.5 -37.5t-3.5 -47.5t-22 -37
q-4 -4 -5 -11t0.5 -18t3 -19t5 -22.5t4.5 -19.5q2 -8 14.5 -27t12.5 -29q7 -106 -2 -185.5t-48 -150.5q49 -24 52.5 -44.5t-36.5 -48.5q-9 -6 -19 -14t-22.5 -18.5t-21.5 -17.5q95 -38 176.5 -36t133.5 42q-14 11 -99 73q1 15 5 53q31 1 94.5 4.5t97.5 5.5q4 -57 10 -170.5
t9 -172.5h-246q-1 -10 -3 -27t-4.5 -30.5t-6.5 -25.5q-10 -30 0 -40t40 -8q13 1 33.5 3t34.5 3.5t31.5 1t30.5 -5.5q32 -11 62.5 -33.5t33.5 -44.5q4 -28 -24 -41.5t-67 -11.5q-40 0 -48.5 0.5t-48.5 -2.5t-49 -4q-32 -2 -35 -13q-10 -31 -27.5 -53.5t-48.5 -44.5
q-12 -9 -26 -16t-22 -9.5t-27.5 -8t-25.5 -7.5q-10 -3 -21.5 -8.5t-25 -13t-20.5 -11.5v-10q111 -47 58 -159q55 26 117 43t111 24.5t120 8.5t112 -0.5t119 -5.5q20 -1 30 -2q125 -7 352 -23q460 -29 816 -181q36 -15 103 -46t76 -35h11q3 3 9 7.5t9.5 8t3.5 7.5zM471 1614
v-259q-20 -1 -80 -4.5t-94 -5.5v279q34 -2 91 -5.5t83 -4.5zM760 1355h-129v72v83v69q0 11 3.5 18.5t6.5 11.5t12 5t12 1t15 -1t13 -1q6 0 20 1t22.5 1t16.5 -8t8 -24q3 0 1.5 -113.5t-1.5 -114.5zM691 738q22 5 47 5t56.5 -2.5t48.5 -2.5q-4 -23 -10 -66t-9 -62
q-21 2 -74 6.5t-79 6.5q-13 21 -19.5 36.5t-8 32.5t10.5 28.5t37 17.5zM1275 1639v-296h-104v296h104zM1601 1345q-48 2 -122 4q3 50 8 143.5t8 140.5q22 -1 57.5 -3.5t48.5 -3.5v-281zM1073 719q77 8 132.5 -8.5t93.5 -75.5q-9 -13 -25.5 -33t-21.5 -26q-36 3 -58.5 5
t-44.5 6t-33 8t-21.5 12.5t-14 16.5t-6.5 23.5t-2.5 31t1.5 40.5z" />
</svg>