<svg xmlns="http://www.w3.org/2000/svg" xmlns:xlink="http://www.w3.org/1999/xlink" version="1.1" viewBox="-10 0 2067 2048">
   <path fill="currentColor"
d="M1806 375l-11 12l-1406 1405q-34 34 -90 34q-61 -15 -79 -69q-15 -64 23 -102q21 -25 46.5 -50.5t59 -57t52.5 -50.5q6 0 12 -5.5t11 -5.5q-136 -92 -204 -148q-105 -87 -192 -192q-25 -25 -27.5 -52.5t15.5 -61.5q247 -380 600 -532q195 -85 385.5 -87t384.5 75
q14 0 20.5 -0.5t13.5 -3t12 -7.5l227 -227q56 -38 102 -23q52 17 67 79q0 23 -22 69zM583 1327l79 -79q-189 -274 -23 -556q-224 119 -419 375q133 147 340 260h23zM1092 704q9 -36 -14.5 -63.5t-64.5 -27.5q-88 0 -164 47t-120 125t-44 168q0 36 17 57.5t50 21.5
q28 0 48.5 -17.5t20.5 -49.5v-35q8 -76 61.5 -123t130.5 -47q61 0 79 -56zM2022 1021q50 68 0 102q-332 387 -771 465q-215 46 -487 -12h-12l69 -67q25 -37 68 -80q12 -12 45 -12q401 48 759 -237q34 -23 102 -91q11 0 33 -22q-113 -162 -271 -284l136 -137q23 28 79 80
t79 80q28 34 85.5 107.5t85.5 107.5z" />
</svg>