<svg xmlns="http://www.w3.org/2000/svg" xmlns:xlink="http://www.w3.org/1999/xlink" version="1.1" viewBox="-10 0 2066 2048">
   <path fill="currentColor"
d="M2043 950q18 269 -91 488q-119 255 -321.5 406.5t-483.5 194.5q-207 32 -454 -45q-107 -28 -237 -114q-159 -101 -295 -295q-123 -202 -159 -465v-125q0 -140 40 -262.5t119 -246.5q147 -230 385 -364q422 -219 873 -46q140 53 249 148q136 119 239 272q99 179 136 398
v56zM1272 1494q69 -32 108 -92.5t43 -123.5t-14.5 -122t-57.5 -93l-11 -10q0 -5 -3 -8t-9.5 -7t-10.5 -8q0 -5 -2.5 -8t-5.5 -4h-3q0 -5 -2.5 -8t-5.5 -3h-3q-11 -6 -39.5 -17.5t-40.5 -16.5q12 -12 45 -12q-33 0 -45 12q-32 -10 -104.5 -28t-110.5 -30q-53 0 -102 -33
q-46 -31 -46 -91q0 -32 14 -51t43 -39q12 0 34.5 -6t33.5 -6q81 -8 152 13t143 67q7 0 13.5 1.5t8.5 1.5t5 -3t7 -11q12 -23 34 -63t33 -63q0 -22 -11 -33q-196 -124 -419 -92q-57 9 -105 30.5t-87.5 56.5t-63.5 88.5t-28 119.5q0 125 57 182q11 12 24 23.5t23.5 19.5
t29.5 17t27.5 13t32 12t29 9.5t32.5 9.5t29 9q129 43 204 80q57 28 57 91q-20 64 -80 78q-37 12 -101 12q-183 -18 -307 -113q-8 0 -11.5 1.5t-11.5 9.5l-67 136q-19 19 11 34q91 55 178.5 84.5t184.5 29.5q60 0 93.5 -1.5t85 -12.5t93.5 -32z" />
</svg>