<svg xmlns="http://www.w3.org/2000/svg" xmlns:xlink="http://www.w3.org/1999/xlink" version="1.1" viewBox="-10 0 2068 2048">
   <path fill="currentColor"
d="M1114 240q42 -11 110.5 -12.5t125 2.5t96.5 10q61 21 94.5 57t33.5 71.5t-33.5 67t-94.5 43.5q-78 15 -149 9.5t-121 -28t-50 -50.5q0 -32 34.5 -36.5t69.5 14.5q37 33 102 30.5t102 -30.5q52 -30 20 -56q-22 -17 -78 -24q-69 -8 -172 16t-202 75q-66 42 -112.5 55
t-115.5 13q-90 8 -136 -7.5t-92 -60.5q-16 -24 -17.5 -39t7.5 -40q12 -21 45 -37.5t71.5 -24t79 -4t64.5 19.5q41 28 -32 33q-19 1 -46 1q-130 0 -125 45q1 11 11 24q25 26 103.5 18.5t146.5 -41.5q48 -23 102 -49t73.5 -35t42 -17.5t42.5 -12.5zM148 388q85 -57 83 -23
q0 5 -3 12q-10 11 -10 56q5 28 68.5 60.5t160.5 57.5t191 30q32 0 91.5 5.5t66.5 5.5q52 8 264 8t306 -8q167 -11 305 -42.5t212 -74.5t63 -87q-13 -37 9 -34q26 3 60 45q13 16 21 34q18 26 -5 63.5t-73 62.5q-33 24 -153.5 58.5t-188.5 43.5q-12 6 -64.5 12t-73.5 11
q-84 8 -398.5 8t-407.5 -8q-136 -16 -198.5 -28.5t-165.5 -40.5q-102 -34 -163.5 -79t-52.5 -80q0 -9 16.5 -30.5t39.5 -37.5zM114 695q-10 -66 4 -62q3 0 8 5q32 22 131.5 64.5t152.5 49.5q19 0 50 5.5t42 5.5q117 25 488.5 33t523.5 -10q184 -17 320 -54.5t180 -81.5
q25 -25 29.5 -25t4.5 25q0 43 -47 190t-89 241q-25 75 -160 263q-122 172 -136 228q-35 93 -97 146t-169.5 78t-279.5 25q-173 0 -276 -22t-163 -72.5t-95 -143.5q-9 -36 -47.5 -105t-88.5 -134q-92 -144 -148 -228l-46 -68q-24 22 -34 45q-27 45 -32 122.5t20 139.5
q25 68 96.5 132.5t131.5 72.5q60 7 55 21q-7 18 -97 23q-18 1 -38 1q-75 0 -102.5 -6.5t-67.5 -38.5q-84 -59 -111 -114.5t-27 -159.5q0 -71 9 -102.5t37 -90.5q24 -34 92 -102l44 -34l-34 -91q-3 -20 -12.5 -56.5t-15.5 -65.5t-6 -49z" />
</svg>