<svg xmlns="http://www.w3.org/2000/svg" xmlns:xlink="http://www.w3.org/1999/xlink" version="1.1" viewBox="-10 0 2058 2048">
   <path fill="currentColor"
d="M1354 1571q-14 21 -32 57q-16 34 -16 57q-5 41 -12.5 125.5t-11.5 124.5q0 43 -40 56q-28 8 -89 28.5t-89 28.5h-90q-4 0 -15.5 -4t-14.5 -4q-95 -31 -138 -57q-24 -24 -24 -40q-8 -65 -8 -185q0 -32 -1 -49.5t-5.5 -44t-15 -47t-28.5 -38.5v-8q303 86 630 0zM1476 546
q-5 57 -17 170t-15 169l-32 331q-21 204 -26 258q0 76 -80 89q-102 20 -234 33q-177 13 -338 -33q-19 -4 -31.5 -16.5t-16.5 -24t-10 -32.5q0 -52 -14 -112q-1 -6 -11 -92.5t-15 -134.5l-8 -72q0 -4 -4 -12t-4 -12q-4 -77 -24.5 -218.5t-23.5 -160.5q-8 -45 -8 -122
q470 100 912 -8zM564 497q32 -16 48 -16q37 -4 113.5 -12t112.5 -12q4 0 12 -4t14 -8l6 -4q-6 -19 -17 -67t-24.5 -78.5t-38.5 -56.5q-33 -32 -93 -100.5t-93 -101.5l21 -21t15 -11t11.5 -5.5t11 4t13 8.5t16.5 17q11 11 29 30.5t32 34t29 24.5q138 113 162 282q11 35 29 46
t51 11q69 4 202 12t202 12q5 0 12 1.5t12.5 3.5t16 5.5t15.5 5.5q-49 38 -190 57.5t-291.5 19t-280 -21t-158.5 -55.5z" />
</svg>