<svg xmlns="http://www.w3.org/2000/svg" xmlns:xlink="http://www.w3.org/1999/xlink" version="1.1" viewBox="-10 0 2058 2048">
   <path fill="currentColor"
d="M228 951q0 -120 76 -215q73 -93 190 -120q34 -144 148 -235q114 -92 260 -92t258 89q112 90 146 230h24q94 0 174 45q79 45 126 125q46 79 46 173q0 14 -2 42q68 55 106 133q40 80 40 170q0 81 -32 152q-32 75 -82 124q-55 53 -124 82q-72 30 -152 30q-78 0 -150 -30
q-69 -29 -124 -83q-51 -51 -82 -124q-32 -71 -32 -150h-480q-138 -6 -236 -107q-98 -100 -98 -239zM348 951q0 89 63 157t151 72h780q90 -4 153 -72t63 -157q0 -91 -68 -159q-66 -67 -160 -67h-114q-12 0 -12 -11l-4 -41q-13 -113 -98 -189q-86 -77 -200 -77q-113 0 -198 77
q-85 78 -96 189l-4 41q0 11 -14 11h-36q-89 11 -148 75q-58 65 -58 151zM1132 1307q5 116 96 197q89 80 202 80q61 0 118 -25q55 -24 94 -65q39 -42 58 -92q22 -55 22 -106q0 -52 -20 -103q-23 -55 -60 -94q-41 87 -120 140q-83 55 -180 58h-200v8z" />
</svg>