<svg xmlns="http://www.w3.org/2000/svg" xmlns:xlink="http://www.w3.org/1999/xlink" version="1.1" viewBox="-10 0 2058 2048">
   <path fill="currentColor"
d="M263 1191q0 139 97 239q98 101 237 107q13 0 13 -11v-94q0 -12 -13 -12q-88 -4 -152 -71q-63 -66 -63 -158q0 -86 59 -151q58 -64 147 -75l37 -3q13 0 13 -11l5 -38q11 -114 96 -190q86 -77 199 -77t199 77t98 190l5 40q0 12 12 12h113q94 0 161 67q68 68 68 159
q0 92 -63 158q-64 67 -152 71q-14 0 -14 12v94q0 11 14 11q140 -5 236 -105q96 -101 96 -241q0 -93 -47 -171q85 -77 110 -182l10 -51q1 0 1 -4q0 -8 -11 -11l-39 -13q-59 -16 -102 -58q-44 -42 -61 -85q-17 -42 -17 -90q-2 -26 5 -57l10 -43q5 -11 -10 -17l-54 -17
q-44 -10 -89 -10q-39 0 -79 9q-43 9 -84 28q-40 18 -83 56q-40 36 -70 85q-84 -31 -163 -31q-149 0 -262 91q-114 91 -147 235q-117 27 -191 121q-75 94 -75 215zM650 1667q0 19 12 35q13 17 34 23q24 7 45 -3q19 -10 27 -39l100 -409q6 -26 -6 -47q-12 -20 -36 -25
q-23 -8 -44 4q-22 13 -29 35l-100 411q0 4 -1 7q-2 6 -2 8zM832 1882q0 18 10 32t32 21q12 3 16 3q46 0 57 -41l157 -623q6 -27 -5 -45q-12 -20 -35 -27q-24 -8 -46 4t-27 35l-157 622q0 3 -1 8t-1 11zM1122 1673q0 37 43 52q13 4 21 4t24 -6q22 -10 28 -40l100 -409
q6 -26 -5 -45t-36 -27t-45 4q-23 13 -27 35l-100 411q-3 18 -3 21zM1204 625q33 -62 91 -93t122 -30q5 0 11 0.5t8 0.5v20q-2 102 54 192q56 91 154 137q-24 47 -55 74q-95 -79 -224 -79h-22q-29 -132 -139 -222z" />
</svg>