<svg xmlns="http://www.w3.org/2000/svg" xmlns:xlink="http://www.w3.org/1999/xlink" version="1.1" viewBox="-10 0 2058 2048">
   <path fill="currentColor"
d="M279 1190q0 92 46 173q45 80 124 126t173 46h753q93 0 172 -46q79 -47 126 -126q46 -79 46 -173q0 -69 -29 -139q79 -95 79 -230q0 -99 -48 -183q-47 -82 -133 -133q-83 -49 -183 -49q-155 0 -269 122q-79 -45 -188 -45q-148 0 -259 90q-114 92 -145 234
q-117 26 -191 119q-74 94 -74 214zM398 1190q0 -88 58 -150q59 -64 146 -74l48 -2l4 -50q15 -114 98 -189q83 -76 196 -76q114 0 199 76q85 77 96 189l8 52h124q91 0 158 67t67 157q0 94 -66 162q-66 67 -159 67h-753q-92 0 -158 -68t-66 -161zM1236 644q72 -69 169 -69
q104 0 176 72t72 174q0 65 -36 128q-100 -100 -242 -100h-22q-28 -116 -117 -205z" />
</svg>