<svg xmlns="http://www.w3.org/2000/svg" xmlns:xlink="http://www.w3.org/1999/xlink" version="1.1" viewBox="-10 0 2058 2048">
   <path fill="currentColor"
d="M231 1477q0 -26 18 -44q19 -17 41 -17h378q77 0 131 56q55 57 55 132q0 78 -54 132q-55 55 -132 55q-78 0 -133 -55q-16 -16 -16 -42t16 -42q17 -17 42 -17q24 0 43 17q21 21 48 21t47 -20q21 -21 21 -49q0 -26 -21 -47q-20 -20 -47 -20h-378q-23 0 -41 -18t-18 -42z
M231 1266q0 -26 18 -44q19 -17 41 -17h735q29 0 48 -20q20 -22 20 -48q0 -28 -20 -48t-48 -20t-48 20q-19 15 -44 15q-26 0 -42 -16t-16 -41t16 -43q53 -53 134 -53q77 0 132 55t55 131t-55 131t-132 55h-735q-23 0 -42 -17q-17 -16 -17 -40zM381 1101q0 8 11 8h100
q9 0 15 -10q24 -57 73 -94q50 -37 111 -42l37 -5q14 0 14 -12l5 -36q11 -113 95 -190q83 -76 200 -76q115 0 200 76t97 190l5 41q0 12 12 12h113q93 0 162 67q68 66 68 160t-68 160q-67 66 -162 66h-481q-13 0 -13 12v97q0 12 13 12h481q95 0 175 -47q80 -46 126 -126
q47 -80 47 -174q0 -95 -47 -175q-46 -79 -126 -126q-79 -46 -175 -46h-22q-33 -141 -145 -228q-115 -89 -260 -89q-146 0 -261 92t-145 235q-88 21 -158 86q-69 65 -96 153v3q-1 2 -1 6z" />
</svg>