<svg xmlns="http://www.w3.org/2000/svg" xmlns:xlink="http://www.w3.org/1999/xlink" version="1.1" viewBox="-10 0 2058 2048">
   <path fill="currentColor"
d="M132 1258q90 -5 152 -70t62 -156q0 90 64 156q62 65 152 70q-90 4 -152 70q-64 66 -64 156q0 -92 -62 -156q-62 -66 -152 -70zM346 590q178 -9 298 -136q122 -128 122 -304q0 178 122 304q123 128 298 136q-113 5 -212 66q-96 61 -152 160t-56 216q0 -177 -122 -306
q-120 -126 -298 -136zM654 1588q133 -6 224 -102q92 -96 92 -228q0 132 92 228q92 97 224 102q-132 6 -224 102q-92 97 -92 230q0 -133 -92 -230q-91 -95 -224 -102zM1286 1150q131 -6 222 -102q92 -97 92 -230q0 133 92 230q92 95 224 102q-133 6 -224 100q-92 97 -92 230
q0 -133 -92 -230q-90 -94 -222 -100z" />
</svg>