<svg xmlns="http://www.w3.org/2000/svg" xmlns:xlink="http://www.w3.org/1999/xlink" version="1.1" viewBox="-10 0 2058 2048">
   <path fill="currentColor"
d="M302 1194q0 -120 74 -214q75 -95 191 -123q33 -143 147 -234q113 -91 261 -91q143 0 256 89q112 88 147 229h22q94 0 173 46t126 126t47 172q0 137 -97 239q-95 99 -235 104q-14 0 -14 -11v-93q0 -13 14 -13q89 -5 152 -71t63 -155q0 -93 -67 -160t-162 -67h-112
q-12 0 -12 -12l-6 -40q-12 -114 -97 -190t-198 -76q-114 0 -199 77q-86 78 -96 191l-4 35q0 13 -14 13l-36 5q-88 8 -146 72q-59 65 -59 152q0 89 63 155t152 71q11 0 11 13v93q0 11 -11 11q-141 -5 -237 -104q-97 -100 -97 -239zM685 1731q0 -24 18 -42q18 -16 40 -16
q24 0 41 17q16 16 16 41t-16 41t-41 16t-41 -16q-17 -17 -17 -41zM745 1478q0 -24 17 -41t41 -17t41 17q16 16 16 41t-16 42t-41 17t-41 -17q-17 -19 -17 -42zM878 1867q0 -23 18 -42q17 -17 39 -17q26 0 43 17t17 42t-17 41q-19 17 -43 17q-23 0 -40 -17t-17 -41zM938 1612
q0 -24 17 -43q17 -17 40 -17q24 0 42 18t18 42q0 25 -17 42t-43 17q-24 0 -40 -17q-17 -19 -17 -42zM967 1360q0 -24 18 -42q19 -17 40 -17q24 0 42 18t18 41q0 25 -18 41q-19 17 -42 17q-24 0 -41 -17t-17 -41zM1133 1731q0 -23 17 -42q18 -16 41 -16q24 0 41 17t17 41
t-17 41q-16 16 -41 16t-41 -16q-17 -17 -17 -41zM1192 1478q0 -22 18 -40t41 -18q24 0 41 17t17 41q0 23 -17 42q-16 17 -41 17t-42 -17t-17 -42z" />
</svg>