<svg xmlns="http://www.w3.org/2000/svg" xmlns:xlink="http://www.w3.org/1999/xlink" version="1.1" viewBox="-10 0 2058 2048">
   <path fill="currentColor"
d="M88 1191q0 95 46 174q47 80 125 126q79 46 172 46h755q94 0 173 -46q79 -47 126 -126q46 -79 46 -174q0 -71 -29 -139q79 -97 79 -231q0 -76 -28 -142t-78 -116q-49 -49 -117 -78q-69 -29 -142 -29q-154 0 -270 122q-83 -46 -188 -46q-148 0 -260 91q-114 92 -145 234
q-118 27 -191 120q-74 94 -74 214zM207 1191q0 -89 58 -151q59 -64 147 -74l34 -2q14 0 14 -12l4 -38q15 -114 98 -189q83 -76 196 -76q115 0 200 76q86 77 96 189l5 41q3 11 14 11h113q91 0 158 67t67 158q0 95 -66 162t-159 67h-755q-92 0 -158 -68q-66 -67 -66 -161z
M674 336q0 25 17 44l45 44q26 20 45 18q21 0 38 -18q17 -19 17 -44q0 -26 -18 -41l-41 -46q-20 -17 -43 -17q-25 0 -43 18q-17 17 -17 42zM1046 644q71 -70 170 -70q104 0 176 72t72 175q0 67 -35 128q-100 -100 -243 -100h-23q-25 -113 -117 -205zM1159 276q0 28 16 44
t41 16q27 0 43 -16q17 -17 17 -44v-142q0 -24 -17 -41q-16 -16 -43 -16q-25 0 -41 16t-16 41v142zM1543 437q0 25 16 43q23 17 43 17q18 0 41 -17l100 -100q17 -20 17 -45t-17 -42t-41 -17q-25 0 -40 17l-103 100q-16 21 -16 44zM1599 1261q0 25 18 44l45 44q15 16 40 16
q26 0 42 -17t16 -43q0 -24 -17 -41l-45 -45q-17 -17 -40 -17t-42 17q-17 16 -17 42zM1701 821q0 25 18 41q17 17 43 17h142q23 0 40 -17q16 -16 16 -41t-16 -42t-40 -17h-142q-25 0 -43 18t-18 41z" />
</svg>