<svg xmlns="http://www.w3.org/2000/svg" xmlns:xlink="http://www.w3.org/1999/xlink" version="1.1" viewBox="-10 0 2058 2048">
   <path fill="currentColor"
d="M284 1102q0 -25 18 -43q20 -18 41 -18h143q24 0 40 18q16 17 16 43q0 25 -16 42t-40 17h-143q-23 0 -41 -18t-18 -41zM483 620q0 -25 16 -42q21 -18 45 -18q22 0 41 18l99 102q17 15 17 41q0 25 -16 41q-17 17 -42 17q-26 0 -41 -17l-103 -99q-16 -17 -16 -43zM494 1269
q0 -24 17 -39t44 -15h398q27 0 44 15t17 39q0 29 -16 45t-45 16h-398q-28 0 -44 -16q-17 -17 -17 -45zM563 1475q0 -23 19 -42t42 -19q28 0 44 18q17 19 17 43q0 29 -16 45t-45 16q-24 0 -43 -17q-18 -16 -18 -44zM661 1122v-5q3 -131 91 -228t216 -118h2h2q17 -4 52 -4
q36 0 53 4h2h1q128 21 216 118t91 228v5q0 17 -16 17h-79q-12 0 -17 -7q-6 -8 -6 -12q-5 -98 -75 -165q-71 -68 -170 -68q-98 0 -169 68q-71 67 -75 165q0 6 -6 12q-7 7 -18 7h-79q-16 0 -16 -17zM731 1475q0 -24 17 -43q16 -18 44 -18h267q23 0 42 19t19 42q0 27 -18 44
q-19 17 -43 17h-267q-28 0 -44 -16q-17 -17 -17 -45zM964 563v-141q0 -25 18 -43t42 -18t42 18q17 17 17 43v141q0 25 -17 41t-42 16t-42 -16q-18 -16 -18 -41zM1059 1269q0 -23 19 -38q21 -16 42 -16q22 0 43 16q19 15 19 38q0 27 -19 44t-43 17q-23 0 -42 -17t-19 -44z
M1166 1475q0 -24 17 -43q17 -18 45 -18h129q27 0 44 18q17 19 17 43q0 29 -16 45t-45 16h-129q-29 0 -45 -16q-17 -17 -17 -45zM1228 1269q0 -23 18 -38q19 -16 42 -16h214q22 0 38 16q15 15 15 38q0 29 -15 45t-38 16h-214q-23 0 -42 -17q-18 -17 -18 -44zM1349 721
q0 -25 16 -41l99 -102q20 -18 41 -18q24 0 42 18q17 17 17 42q0 26 -17 43l-101 99q-20 17 -42 17q-24 0 -39 -17q-16 -18 -16 -41zM1506 1102q0 -24 17 -43q18 -18 40 -18h141q24 0 42 18t18 43q0 23 -18 41t-42 18h-141q-24 0 -40 -17q-17 -19 -17 -42z" />
</svg>