<svg xmlns="http://www.w3.org/2000/svg" xmlns:xlink="http://www.w3.org/1999/xlink" version="1.1" viewBox="-10 0 2058 2048">
   <path fill="currentColor"
d="M417 1101q0 -123 48 -236q47 -109 130 -194q82 -83 194.5 -131t235.5 -48h98q21 6 21 23l4 75q4 86 33 154q31 70 84 125q52 53 123 86q73 33 150 36l72 5q20 0 20 20v85q2 124 -49 243h-172q65 -96 81 -211q-210 -44 -337 -181q-126 -137 -146 -320q-121 6 -222 75
q-99 68 -155 173q-56 106 -56 221q0 132 70 243h-177q-50 -117 -50 -243zM438 1604q0 -33 25 -58q22 -22 57 -22h268q14 0 24 6l196 186l200 -186q9 -6 24 -6h276q34 0 57 23q24 24 24 57q0 34 -24 58t-57 24h-224l-262 237q-15 11 -28 0l-257 -237h-217q-34 0 -58 -24
t-24 -58z" />
</svg>