<svg xmlns="http://www.w3.org/2000/svg" xmlns:xlink="http://www.w3.org/1999/xlink" version="1.1" viewBox="-10 0 2058 2048">
   <path fill="currentColor"
d="M274 1190q0 116 70 209q71 94 179 123l-45 118q-4 15 10 15h148l-100 293h21l303 -394q5 -5 2 -10t-10 -5h-153l174 -324q7 -15 -10 -15h-206q-11 0 -17 11l-74 200q-75 -20 -124 -80q-49 -61 -49 -141q0 -87 59 -152q58 -64 147 -75l35 -2q12 0 15 -10l6 -41
q11 -113 95 -190q83 -76 200 -76q114 0 199 76q86 77 98 190l5 41q0 12 13 12h112q93 0 160 67q68 68 68 160q0 90 -63 158q-62 67 -151 71q-14 0 -14 12v94q0 12 14 12q93 -3 168 -50q76 -48 121 -126t45 -171q0 -76 -30 -141q79 -100 79 -229q0 -101 -49 -184
q-50 -84 -134 -134q-83 -49 -183 -49q-77 0 -146 31q-73 33 -123 87q-84 -45 -189 -45q-148 0 -263 92q-116 93 -147 235q-117 27 -191 121q-75 94 -75 216zM823 1902q0 17 11 34t34 23q12 2 17 2q45 0 56 -42l9 -41q6 -27 -6 -48t-37 -26q-22 -7 -43 5q-22 12 -29 36l-9 41
q-3 12 -3 16zM878 1699q0 24 17 41t40 17q25 0 42 -17q16 -16 16 -41q0 -24 -16 -40q-17 -17 -42 -17q-24 0 -41 17q-16 16 -16 40zM921 1541q-1 15 10 33q11 17 31 21q26 6 45 -4t28 -39l19 -63q7 -22 -5 -44q-12 -21 -37 -28q-22 -7 -45 6q-20 11 -28 37l-16 62
q-2 12 -2 19zM1114 1691q0 17 10 33q11 17 32 23q6 0 10 1q8 2 10 2q42 0 53 -46l9 -42q8 -23 -4 -44q-12 -20 -36 -28q-27 -6 -47 5q-22 12 -29 37l-6 41q0 4 -1 8t-1 10zM1165 1485q0 25 17 40q15 17 41 17q25 0 41 -16t16 -41t-16 -41t-41 -16t-41 16q-17 17 -17 41z
M1237 642q71 -68 171 -68q102 0 174 72t72 174q0 71 -32 126q-101 -101 -245 -101h-22q-29 -122 -118 -203z" />
</svg>