<svg xmlns="http://www.w3.org/2000/svg" xmlns:xlink="http://www.w3.org/1999/xlink" version="1.1" viewBox="-10 0 2068 2048">
   <path fill="currentColor"
d="M0 1021.5q0 -278.5 138 -513.5q138 -234 374 -371t513.5 -137t514.5 137q234 136 370 371q138 236 138 514t-138 514q-137 237 -370 374q-236 138 -514.5 138t-513.5 -138q-235 -137 -374 -374q-138 -236 -138 -514.5zM110 1022q0 187 72 355q75 171 196 293
q120 120 294 195q170 74 354 74q116 0 208 -26q114 -61 196 -142q85 -83 134 -169q48 -86 78 -190q31 -110 40 -195q8 -90 8 -195q0 -126 -26 -249q-27 -119 -86 -243q-58 -123 -156 -228t-230 -181q-54 -12 -166 -12q-185 0 -354 72q-171 72 -294 195q-124 125 -196 291
q-72 170 -72 355z" />
</svg>