<svg xmlns="http://www.w3.org/2000/svg" xmlns:xlink="http://www.w3.org/1999/xlink" version="1.1" viewBox="-10 0 2058 2048">
   <path fill="currentColor"
d="M662 1104q-1 -12 0 -34q2 -23 9 -76q7 -49 23 -106q13 -47 48 -126q33 -71 75 -134q43 -61 116 -128q70 -64 161 -116q22 -12 46 -4q23 7 35 28q13 22 6 46q-5 23 -29 36q-183 101 -280 282q74 -34 151 -34q150 0 256 106q107 108 107 256q0 5 -0.5 12t-0.5 10
q0 11 -3 48q-2 33 -11 72q-9 42 -22 86q-17 58 -35 98q-23 50 -54 102q-34 58 -74 104q-42 48 -101 98q-55 47 -128 88q-14 8 -29 8q-35 0 -54 -32q-12 -22 -5 -46q7 -23 29 -36q188 -106 283 -286q-75 36 -158 36q-96 0 -179 -48q-82 -47 -132 -130q-48 -81 -50 -180z
M819 1100q0 86 60 146t144 60q80 0 138 -52t67 -132l1 -20q0 -4 1 -4q-1 -83 -62 -142q-58 -58 -145 -58q-77 0 -135 50q-58 51 -67 126l-2 24v2z" />
</svg>