<svg xmlns="http://www.w3.org/2000/svg" xmlns:xlink="http://www.w3.org/1999/xlink" version="1.1" viewBox="-10 0 2060 2048">
   <path fill="currentColor"
d="M8 880q0 22 14 34q14 14 36 14h890q22 0 38 16q18 18 18 41t-17 40t-39 17q-25 0 -42 -18q-17 -14 -34 -14q-20 0 -34 14t-14 34t14 34q46 46 110 46q62 0 107 -45t45 -109t-45 -109t-107 -45h-890q-20 0 -35 15t-15 35zM8 706q0 22 14 34q16 14 36 14h1180q64 0 109 -45
t45 -109q0 -62 -45 -107t-109 -45q-63 0 -108 44q-14 17 -14 36.5t14 33.5t36 14q17 0 34 -14q16 -16 38 -16q23 0 40 16q16 15 16 38q0 26 -16 42t-40 16h-1180q-20 0 -35 15t-15 33zM1104 1590h210l140 -680h-210zM1462 1340q0 68 20 118q22 53 56.5 81.5t77.5 44.5
q42 14 90 14q77 0 140 -32q61 -31 96 -78q37 -50 60 -108q24 -65 30 -108q8 -52 8 -90q0 -124 -68 -192q-68 -70 -182 -70q-133 0 -230 118q-98 117 -98 302zM1638 1348q0 -20 2 -50q3 -26 14 -72q11 -40 26 -76q16 -35 44 -60q29 -24 64 -24t56 24q20 24 20 66
q0 126 -42 210q-44 86 -106 86q-78 0 -78 -104z" />
</svg>