<svg xmlns="http://www.w3.org/2000/svg" xmlns:xlink="http://www.w3.org/1999/xlink" version="1.1" viewBox="-10 0 2058 2048">
   <path fill="currentColor"
d="M86 1194q0 139 96 237q97 100 234 106q14 0 14 -12v-93q0 -12 -14 -12q-87 -4 -150 -70q-62 -65 -62 -156q0 -88 60 -153q57 -63 146 -71l36 -6q12 0 12 -9l4 -39q14 -115 96 -189q86 -76 198 -76q113 0 199.5 76t96.5 187l4 41q3 11 16 11h112q93 0 158 67q68 69 68 161
t-62 156q-62 66 -150 70q-14 0 -14 12v93q0 12 14 12q137 -4 234 -104q94 -98 94 -239q0 -73 -26 -139q82 -101 82 -234q0 -72 -30 -141q-28 -68 -78 -117q-50 -50 -116 -78q-68 -29 -142 -29q-160 0 -268 122q-96 -46 -192 -46q-148 0 -260 91q-113 92 -144 236
q-118 27 -192 120q-74 94 -74 215zM460 1684q0 20 10 36q12 18 34 24q24 8 44.5 -2.5t27.5 -39.5l10 -43q5 -24 -6 -44q-11 -19 -38 -27q-22 -7 -43.5 5t-26.5 37l-10 41q-2 8 -2 13zM512 1482q0 23 18 40q16 18 39.5 18t42.5 -17q16 -16 16 -41q0 -24 -16 -40
q-19 -17 -42 -17q-26 0 -42 16t-16 41zM556 1324q-2 16 8 31q11 16 34 23q22 6 43.5 -5t28.5 -36l20 -62q7 -26 -6 -46q-11 -19 -38 -27q-22 -7 -44 5q-20 12 -28 34l-16 64zM636 1902q0 17 10 34q11 17 34 23q12 2 18 2q45 0 56 -42l8 -41q6 -27 -6 -48t-36 -26
q-22 -7 -44 5q-21 12 -28 36l-10 41q-2 12 -2 16zM674 338q0 25 18 42l46 44q14 16 38 18q23 2 42 -18q18 -17 18 -41q0 -25 -18 -42l-44 -45q-16 -17 -40 -18q-24 0 -42 17q-18 18 -18 43zM690 1699q0 24 17 41t41 17t42 -17q16 -16 16 -41q0 -24 -16 -40q-18 -17 -42 -17
t-42 17q-16 16 -16 40zM734 1541q-2 15 10 33q10 17 30 21q26 6 46 -4q18 -10 28 -39l18 -63q8 -22 -4 -44q-12 -21 -38 -28q-21 -7 -44 6q-21 11 -28 37l-16 62q-2 12 -2 19zM926 1691q0 17 10 33q11 17 32 23q6 0 10 1q8 2 10 2q43 0 54 -46l8 -42q8 -23 -4 -44
q-11 -20 -36 -28q-27 -6 -46 5q-22 12 -30 37l-6 41q0 4 -1 8t-1 10zM978 1485q0 25 16 40q16 17 42 17q24 0 40 -16t16 -41t-16 -41t-41 -16t-41 16q-16 17 -16 41zM1020 1324q0 16 12 33q10 17 34 23q4 0 8 1t10 1q10 0 26 -6q21 -11 28 -37l16 -62q7 -25 -4 -44
q-12 -21 -36 -28q-22 -7 -44 4q-21 10 -28 35l-20 63q0 4 -1 8t-1 9zM1044 647q70 -69 172 -69q103 0 176 71q72 71 72 172q0 70 -36 131q-104 -103 -244 -103h-22q-31 -115 -118 -202zM1160 280q0 24 16 40t40 16q26 0 44 -16q16 -16 16 -40v-144q0 -24 -18 -42
q-16 -17 -42 -17q-25 0 -40 17q-16 17 -16 42v144zM1544 438q0 26 16 42q37 38 84 0l100 -100q18 -18 18 -44q0 -25 -18 -42q-18 -18 -42 -18t-42 17l-100 104q-16 16 -16 41zM1598 1264q0 25 20 41l42 44q20 16 41.5 16t42.5 -16q18 -17 18 -42q0 -23 -18 -43l-46 -42
q-14 -18 -40 -18q-22 0 -40 18q-20 18 -20 42zM1702 821q0 25 18 41q18 19 42 19h142q25 0 40 -17q18 -19 18 -43q0 -23 -18 -42q-15 -17 -40 -17h-142q-24 0 -42 18t-18 41z" />
</svg>