<svg xmlns="http://www.w3.org/2000/svg" xmlns:xlink="http://www.w3.org/1999/xlink" version="1.1" viewBox="-10 0 2058 2048">
   <path fill="currentColor"
d="M284 1032q0 -25 18 -43q19 -17 41 -17h143q24 0 40 18q16 17 16 42t-16 42q-16 18 -40 18h-143q-23 0 -41 -18t-18 -42zM483 1515q0 -25 16 -42l103 -100q15 -16 41 -16q24 0 42 16q16 15 16 40q0 24 -17 44l-99 99q-42 33 -86 0q-16 -17 -16 -41zM483 550q0 -25 16 -42
q20 -17 45 -17q22 0 41 17l99 102q17 15 17 41t-16 42q-17 17 -42 17q-26 0 -41 -17l-103 -100q-16 -17 -16 -43zM661 1032q0 -98 49 -181q49 -84 133 -133q83 -49 181 -49q71 0 140 29q66 28 116 78q48 48 77 116q29 69 29 140q0 98 -48 182q-48 83 -133 132
q-86 49 -181 49q-96 0 -182 -49q-82 -47 -132 -132q-49 -83 -49 -182zM779 1032q0 103 71 174q73 73 174 73t174 -73q72 -72 72 -174q0 -100 -72 -171q-74 -72 -174 -72q-99 0 -173 72q-72 71 -72 171zM964 1574q0 -26 18 -42q19 -17 42 -17q25 0 42 17t17 42v138
q0 26 -17 43q-18 18 -42 18t-42 -18t-18 -43v-138zM964 494v-142q0 -24 18 -42t42 -18t42 18q17 17 17 42v142q0 24 -17 40t-42 16t-42 -16q-18 -16 -18 -40zM1349 1413q0 -24 16 -40q15 -16 39 -16q26 0 42 16l101 100q17 19 17 42q0 24 -17 41q-41 33 -83 0l-99 -99
q-16 -19 -16 -44zM1349 651q0 -25 16 -41l99 -102q19 -17 41 -17q25 0 42 17t17 42q0 26 -17 43l-101 100q-20 17 -42 17q-24 0 -39 -17q-16 -18 -16 -42zM1506 1032q0 -24 17 -43q17 -17 40 -17h141q24 0 42 18t18 42t-18 42t-42 18h-141q-23 0 -40 -18q-17 -19 -17 -42z
" />
</svg>