<svg xmlns="http://www.w3.org/2000/svg" xmlns:xlink="http://www.w3.org/1999/xlink" version="1.1" viewBox="-10 0 2064 2048">
   <path fill="currentColor"
d="M4 1030q0 -279 138 -512q139 -239 372 -374q234 -136 510 -136q208 0 397 81t325 217q135 136 216 326q82 189 82 398q0 208 -81 396.5t-217 325.5q-135 134 -326 216q-188 80 -396 80t-396.5 -81t-325.5 -217q-135 -135 -218 -326q-80 -185 -80 -394zM228 1030
q0 324 236 560q234 236 560 236q215 0 398 -108q183 -106 292 -290q106 -181 106 -398q0 -216 -106 -398q-108 -185 -292 -292q-183 -106 -397.5 -106t-398.5 106q-181 106 -290 292q-108 184 -108 398zM672 1372l340 -796q2 -14 12 -14t14 14l338 796q6 15 -2 24
q-7 7 -22 0l-314 -118q-14 -6 -26 0l-318 118q-13 7 -20 0q-8 -9 -2 -24z" />
</svg>