<svg xmlns="http://www.w3.org/2000/svg" xmlns:xlink="http://www.w3.org/1999/xlink" version="1.1" viewBox="-10 0 2058 2048">
   <path fill="currentColor"
d="M82 1190q0 140 97 240q98 101 237 107q13 0 13 -12v-94q0 -12 -13 -12q-90 -4 -152 -71q-63 -68 -63 -158q0 -86 59 -151q58 -64 147 -75l37 -2q13 0 13 -13l5 -38q10 -111 96 -189q83 -76 199 -76q115 0 200 76t97 189l5 40q0 13 12 13h113q95 0 162 67q68 68 68 159
q0 90 -63 158q-62 66 -153 71q-14 0 -14 12v94q0 12 14 12q139 -4 236 -106t97 -241q0 -77 -29 -140q82 -100 82 -232q0 -100 -49 -183q-50 -84 -134 -134q-85 -50 -184 -50q-163 0 -271 122q-86 -46 -189 -46q-147 0 -262 92q-114 91 -147 234q-116 27 -191 122t-75 215z
M454 1682q10 22 32 31q22 11 44 2q24 -10 31 -31q10 -22 1 -45q-9 -22 -31 -31q-21 -11 -43 -2t-33 33q-10 17 -1 43zM499 1484q0 15 6 27q20 32 62 32q33 0 48 -46l73 -224q9 -25 -5 -46q-14 -22 -38 -26q-23 -8 -44 4q-22 13 -29 35l-71 225q-2 14 -2 19zM629 1875
q0 14 3 20q9 23 31 32q12 5 24 5q8 0 21 -4q22 -9 33 -32t0 -46q-10 -22 -32 -31q-21 -9 -43 0q-20 8 -29 24q-8 15 -8 32zM671 332q0 27 17 42l45 45q18 18 38 19q22 3 43 -16q21 -20 21 -45t-17 -42l-45 -44q-20 -18 -43 -18q-25 0 -42 17t-17 42zM679 1688q0 14 12 33
q11 17 33 23q8 2 17 2q15 0 27 -5q21 -9 30 -40l125 -428q7 -23 -4 -45q-10 -21 -35 -27q-24 -7 -46 4q-20 10 -28 35l-128 431q-3 14 -3 17zM920 1661q0 13 4 21q9 22 32 31q12 5 24 5q8 0 21 -4q23 -9 32 -30q9 -23 0 -44q-9 -22 -30 -32q-24 -10 -45 -2q-24 9 -34 33
q-4 8 -4 22zM970 1482q0 15 11 31t32 22q12 2 18 2q40 0 55 -42l71 -222q8 -25 -4 -45q-12 -21 -36 -27q-24 -7 -45 4t-28 35l-71 223q-3 15 -3 19zM1044 640q70 -67 173 -67t175 72t72 173q0 66 -36 129q-101 -101 -244 -101h-21q-29 -118 -119 -206zM1157 273q0 25 18 43
q17 17 42 17t41 -17q17 -19 17 -43v-143q0 -24 -17 -43q-17 -18 -41 -18t-42 18t-18 43v143zM1544 433q0 25 18 41q15 18 40 18q24 0 42 -18l100 -100q19 -15 19 -42q0 -24 -18 -42t-42 -18t-40 19l-101 100q-18 17 -18 42zM1600 1262q0 23 17 42l46 44q15 19 42 19
q24 0 39 -19q19 -16 19 -42q0 -24 -19 -42l-45 -44q-17 -18 -40 -18q-24 0 -42 18q-17 17 -17 42zM1702 818q0 26 18 42q18 18 43 18h142q26 0 43 -17q18 -18 18 -43q0 -24 -18 -41q-17 -16 -43 -16h-142q-26 0 -43 16q-18 17 -18 41z" />
</svg>