<svg xmlns="http://www.w3.org/2000/svg" xmlns:xlink="http://www.w3.org/1999/xlink" version="1.1" viewBox="-10 0 2058 2048">
   <path fill="currentColor"
d="M250 1239q0 -102 65 -184t165 -104q27 -123 126 -201q97 -78 224 -78q123 0 220 76t126 195h18q122 0 209 87t87 209q0 123 -86 210q-88 88 -210 88h-646q-60 0 -116 -24t-94.5 -63t-63.5 -95q-24 -55 -24 -116zM352 1239q0 79 58 137q56 57 138 57h646q82 0 139 -57
t57 -137q0 -79 -57 -136t-139 -57h-96q-12 0 -12 -10l-4 -34q-10 -99 -82.5 -164t-169.5 -65q-100 0 -172 65q-73 65 -82 164l-4 29q0 10 -12 10l-32 5q-74 6 -126 62q-50 56 -50 131zM968 632q-9 10 6 14q44 20 74 39q12 3 16 -2q64 -60 148 -60q85 0 146 56q61 57 68 140
l6 44h100q66 0 116 49q50 48 50 116q0 63 -44 109q-42 45 -106 53q-10 0 -10 12v79q0 11 10 11q105 -6 178 -83q72 -77 72 -181q0 -111 -78 -189t-188 -78h-10q-27 -103 -116 -172q-87 -68 -194 -68q-148 0 -244 111z" />
</svg>