<svg xmlns="http://www.w3.org/2000/svg" xmlns:xlink="http://www.w3.org/1999/xlink" version="1.1" viewBox="-10 0 2058 2048">
   <path fill="currentColor"
d="M302 1190q0 139 97 239t237 106q11 0 11 -11v-93q0 -13 -11 -13q-88 -4 -152 -71q-63 -66 -63 -157q0 -85 59 -150q58 -64 146 -75h36q14 0 14 -12l4 -40q11 -114 96 -190t199 -76q113 0 198 76t97 190l6 40q0 12 12 12h112q94 0 161 67q68 68 68 158q0 91 -63 157
t-152 71q-14 0 -14 13v93q0 11 14 11q91 -3 167 -49q77 -47 121 -126t44 -170q0 -69 -28 -134q-27 -64 -74 -109q-47 -46 -110 -72q-67 -28 -134 -28h-22q-35 -141 -147 -229q-113 -89 -256 -89q-147 0 -262 92t-146 234q-114 27 -190 121q-75 93 -75 214zM786 1234
q0 25 17 44q16 16 42 16q24 0 43 -16l77 -80v277q0 24 17 43q16 17 41 17t42 -17t17 -43v-274l79 77q42 31 85 0q16 -15 16 -43q0 -26 -16 -43l-181 -179q-17 -17 -41 -17q-27 0 -42 17l-179 179q-17 17 -17 42z" />
</svg>