<svg xmlns="http://www.w3.org/2000/svg" xmlns:xlink="http://www.w3.org/1999/xlink" version="1.1" viewBox="-10 0 2058 2048">
   <path fill="currentColor"
d="M162 880q0 22 16 34q14 14 36 14h888q24 0 40 16q16 18 16 41t-17 40t-39 17q-24 0 -40 -18q-18 -14 -34 -14q-22 0 -36 14t-14 34t16 34q46 46 108 46t107 -45t45 -109t-45 -109t-107 -45h-888q-22 0 -37 15t-15 35zM162 706q0 22 16 34q15 14 36 14h1180q62 0 107 -45
t45 -109q0 -62 -45 -107t-107 -45q-64 0 -108 44q-14 17 -14 36.5t14 33.5q12 14 34 14q18 0 36 -14q14 -16 38 -16q22 0 40 16q16 15 16 38q0 26 -16 42t-40 16h-1180q-22 0 -37 15t-15 33zM1280 1382q-3 40 10 78q15 41 42 70q31 32 83.5 51t126.5 19q73 0 132 -20
q59 -21 90 -48q30 -28 52 -68q20 -38 28 -70q6 -26 6 -64q0 -85 -55 -137.5t-141 -52.5q-89 0 -124 38h-2l30 -88h294l34 -162h-448l-124 382h170q21 -42 94 -42q41 0 66 20q26 21 26 64q0 44 -30 70q-29 26 -86 26q-42 0 -62 -14q-28 -15 -30 -52h-182z" />
</svg>