<svg xmlns="http://www.w3.org/2000/svg" xmlns:xlink="http://www.w3.org/1999/xlink" version="1.1" viewBox="-10 0 2068 2048">
   <path fill="currentColor"
d="M0 1598q0 -39 30 -62q21 -24 62 -24h1864q39 0 64 24q28 26 28 62q0 37 -27 64t-65 27h-1864q-38 0 -65 -27t-27 -64zM200 756q0 -40 24 -64q26 -27 66 -27q36 0 62 27l152 153q28 28 28 63t-28 63q-24 28 -62 28t-66 -28l-152 -152q-24 -23 -24 -63zM498 1324
q-6 24 16 24h152q10 0 22 -17q46 -98 136 -155t198 -57q111 0 202 57q92 57 138 155q12 17 22 17h152q19 0 14 -24q-50 -170 -198 -280q-145 -108 -330 -108q-182 0 -328 108q-145 108 -196 280zM936 667v-217q0 -39 24 -65q25 -26 62 -26q38 0 64 26t26 65v217q0 39 -26 65
t-64 26q-36 0 -62 -26q-24 -25 -24 -65zM1516 908q0 -35 26 -63l156 -153q24 -27 64 -27q36 0 60 26t24 65q0 40 -24 63l-150 152q-26 26 -56 29q-35 4 -68 -25q-32 -29 -32 -67z" />
</svg>