<svg xmlns="http://www.w3.org/2000/svg" xmlns:xlink="http://www.w3.org/1999/xlink" version="1.1" viewBox="-10 0 2058 2048">
   <path fill="currentColor"
d="M263 1193q0 139 97 239q98 100 237 105q13 0 13 -11v-94q0 -12 -13 -12q-90 -5 -152 -71q-63 -67 -63 -156q0 -88 59 -153q58 -64 147 -72l37 -6q13 0 13 -11l5 -36q11 -114 96 -192q85 -77 199 -77q113 0 199 77t98 190l5 40q0 12 12 12h113q95 0 162 67t67 161
q0 89 -63 156q-62 66 -152 71q-14 0 -14 12v94q0 11 14 11q92 -3 168 -49q75 -46 120 -126q44 -79 44 -169q0 -95 -45 -173q78 -70 106 -180l12 -50q1 -1 1 -5q0 -8 -11 -11l-43 -12q-43 -13 -81 -40q-35 -25 -56 -58q-20 -31 -31 -66q-10 -31 -10 -67q0 -31 7 -60l8 -43
q3 -10 -10 -16l-55 -17q-47 -11 -87 -11q-38 0 -78 9q-39 9 -83 29q-40 18 -82 56q-38 34 -69 85q-83 -34 -166 -34q-149 0 -262 91q-114 91 -147 235q-119 30 -192 123q-74 94 -74 215zM648 1731q0 24 17 41t41 17t41 -17t17 -41t-17 -41q-16 -16 -41 -16t-41 16
q-17 17 -17 41zM678 1478q0 25 16 42t41 17q26 0 42 -17q17 -19 17 -42q0 -24 -17 -41t-42 -17q-24 0 -41 17q-16 16 -16 41zM842 1869q0 24 16 40q18 18 41 18t42 -17q18 -16 18 -41t-18 -43t-42 -18q-22 0 -40 18q-17 17 -17 43zM886 1613q0 24 18 41q17 17 39 17
q24 0 43 -17q18 -16 18 -41t-18 -43t-43 -18q-22 0 -40 18q-17 17 -17 43zM931 1360q0 25 17 40q17 17 40 17q26 0 43 -16q18 -16 18 -41q0 -24 -18 -42q-17 -17 -43 -17q-24 0 -40 17q-17 19 -17 42zM1097 1731q0 24 17 41t42 17q23 0 40 -17t17 -41q0 -25 -16 -41t-41 -16
q-26 0 -42 16q-17 17 -17 41zM1126 1478q0 24 18 42q17 17 42 17q24 0 40 -17q17 -19 17 -42q0 -24 -17 -41t-40 -17q-24 0 -42 18t-18 40zM1204 625q33 -57 90 -88q59 -32 119 -33q13 0 23 2v21q0 99 55 191q54 90 151 137q-17 39 -53 75q-94 -83 -224 -83h-22
q-28 -128 -139 -222z" />
</svg>