<svg xmlns="http://www.w3.org/2000/svg" xmlns:xlink="http://www.w3.org/1999/xlink" version="1.1" viewBox="-10 0 2058 2048">
   <path fill="currentColor"
d="M271 1192q0 93 44 169q45 78 122 126q75 47 169 50q13 0 13 -12v-94q0 -12 -13 -12q-91 -5 -153 -71q-63 -68 -63 -156q0 -91 59 -154q60 -64 147 -72l37 -6q13 0 13 -11l6 -36q10 -115 96 -193q84 -77 200 -77q113 0 199 77t98 190l5 41q0 11 12 11h113q94 0 162 68
q67 67 67 162q0 88 -63 156q-62 66 -152 71q-14 0 -14 12v94q0 12 14 12q94 -3 169 -50q76 -48 120 -126q45 -81 45 -169q0 -76 -30 -141q84 -103 84 -234q0 -102 -49 -185q-50 -84 -134 -134q-83 -49 -184 -49q-79 0 -149 32q-73 33 -124 89q-91 -45 -189 -45
q-147 0 -263 92q-115 91 -148 235q-117 30 -192 124q-74 93 -74 216zM643 1684q0 20 11 36q12 18 33 24q24 8 44 -3q21 -11 28 -39l10 -43q4 -24 -7 -44q-11 -19 -36 -27q-23 -7 -45 5q-21 12 -27 37l-10 41q-1 3 -1 13zM695 1482q0 22 18 40q17 18 39 18q25 0 42 -17
t17 -41q0 -23 -17 -40t-42 -17q-24 0 -40 16q-17 17 -17 41zM738 1324q-1 16 9 31q11 15 34 23q23 7 43 -5q22 -12 29 -36l19 -62q8 -27 -4 -46t-38 -27q-22 -7 -44 5t-29 34l-17 64q0 5 -1 9t-1 10zM819 1902q0 17 11 34t33 23q12 2 18 2q45 0 55 -42l9 -41q6 -28 -5 -48
q-12 -21 -37 -26q-22 -7 -44 5q-20 12 -28 36l-10 41q-2 12 -2 16zM873 1699q0 23 18 41q17 17 39 17q25 0 42 -17q16 -16 16 -41q0 -24 -16 -40q-17 -17 -42 -17q-24 0 -41 17q-16 16 -16 40zM917 1541q-2 16 9 33t31 21q26 6 45 -4t28 -39l19 -63q7 -22 -5 -44
q-12 -21 -36 -28q-22 -7 -45 6q-21 12 -29 37l-15 62q-2 12 -2 19zM1109 1691q0 16 11 33t32 23q5 0 9 1q8 2 10 2q42 0 53 -46l9 -42q8 -23 -4 -44t-35 -28q-28 -7 -48 5q-21 12 -28 37l-7 41q0 5 -1 9t-1 9zM1160 1485q0 23 18 40q15 17 40 17t41 -16t16 -41t-16 -41
t-41 -16t-41 16q-17 17 -17 41zM1203 1324q0 18 11 33q13 17 34 23q5 0 9 1t10 1q10 0 25 -6q22 -12 28 -37l17 -62q6 -25 -5 -44q-12 -21 -35 -28q-24 -7 -45 4q-19 10 -27 35l-20 63q0 5 -1 9t-1 8zM1235 641q72 -72 175 -72q104 0 175 72q72 74 72 176q0 71 -35 128
q-100 -100 -247 -100h-22q-31 -124 -118 -204z" />
</svg>