<svg xmlns="http://www.w3.org/2000/svg" xmlns:xlink="http://www.w3.org/1999/xlink" version="1.1" viewBox="-10 0 2058 2048">
   <path fill="currentColor"
d="M160 880q0 22 14 34q14 14 36 14h890q22 0 38 16q18 18 18 41t-17 40t-39 17q-25 0 -42 -18q-17 -14 -34 -14q-20 0 -34 14t-14 34t14 34q46 46 110 46q62 0 107 -45t45 -109t-45 -109t-107 -45h-890q-20 0 -35 15t-15 35zM160 706q0 22 14 34q16 14 36 14h1180
q64 0 109 -45t45 -109q0 -62 -45 -107t-109 -45q-63 0 -108 44q-14 17 -14 36.5t14 33.5t36 14q17 0 34 -14q16 -16 38 -16q23 0 40 16q16 15 16 38q0 26 -16 42t-40 16h-1180q-20 0 -35 15t-15 33zM1248 1594h566l34 -162h-314v-2q30 -14 74 -32q48 -19 80 -32
q38 -16 74 -38q42 -24 66 -48t42 -64t18 -86q0 -72 -36 -120q-38 -48 -92 -68q-56 -22 -124 -22q-125 0 -204 68q-80 67 -94 198h178q0 -46 28 -80t78 -34q40 0 58 20q20 21 20 48q0 14 -4 26q-3 13 -12 24q-7 8 -18 20q-6 5 -30 18q-20 12 -34 20q-12 6 -46 20
q-115 57 -140 72q-103 63 -142 152q-19 46 -26 102z" />
</svg>