<svg xmlns="http://www.w3.org/2000/svg" xmlns:xlink="http://www.w3.org/1999/xlink" version="1.1" viewBox="-10 0 2058 2048">
   <path fill="currentColor"
d="M264 1190q0 116 69 207q69 92 180 125l-45 118q-4 14 10 14h147l-90 292h20l294 -392q5 -5 1 -10q-3 -5 -9 -5h-152l172 -323q7 -15 -9 -15h-206q-10 0 -16 10l-74 201q-76 -20 -124 -81q-49 -62 -49 -141q0 -85 59 -150q58 -64 147 -75l36 -5q14 0 14 -13l5 -35
q10 -111 96 -189q85 -77 198 -77q114 0 200 77q85 76 97 189l5 40q0 13 12 13h113q95 0 162 66t67 159q0 89 -63 155q-62 65 -153 71q-13 0 -13 14v94q0 13 13 13q137 -4 236 -106q97 -100 97 -241q0 -89 -46 -170q79 -76 105 -183l13 -48q1 -1 1 -4q0 -8 -10 -11l-43 -12
q-59 -18 -102 -59q-40 -38 -59 -85q-17 -41 -17 -87q0 -32 7 -60l8 -42q3 -11 -10 -17l-55 -17q-42 -9 -87 -9q-42 0 -78 8q-44 10 -83 28q-45 21 -82 55q-39 36 -69 84q-90 -32 -166 -32q-148 0 -261 91q-114 91 -147 235q-115 27 -191 121q-75 93 -75 214zM813 1902
q0 17 11 34t34 23q12 2 17 2q45 0 56 -42l9 -41q6 -27 -6 -48t-37 -26q-22 -7 -43 5q-22 12 -29 36l-9 41q-3 12 -3 16zM868 1699q0 24 17 41t40 17q25 0 42 -17q16 -16 16 -41q0 -24 -16 -40q-17 -17 -42 -17q-24 0 -41 17q-16 16 -16 40zM911 1541q-1 15 10 33
q11 17 31 21q26 6 45 -4t28 -39l19 -63q7 -22 -5 -44q-12 -21 -37 -28q-22 -7 -45 6q-20 11 -28 37l-16 62q-2 12 -2 19zM1104 1691q0 17 10 33q11 17 32 23q6 0 10 1q8 2 10 2q42 0 53 -46l9 -42q8 -23 -4 -44q-12 -20 -36 -28q-27 -6 -47 5q-22 12 -29 37l-6 41q0 4 -1 8
t-1 10zM1155 1485q0 25 17 40q15 17 41 17q25 0 41 -16t16 -41t-16 -41t-41 -16t-41 16q-17 17 -17 41zM1204 625q34 -58 94 -90q59 -32 122 -32h15v22q0 67 24 130q24 64 71 115q50 55 112 85q-18 39 -53 71q-96 -81 -224 -81h-23q-30 -131 -138 -220z" />
</svg>