<svg xmlns="http://www.w3.org/2000/svg" xmlns:xlink="http://www.w3.org/1999/xlink" version="1.1" viewBox="-10 0 2058 2048">
   <path fill="currentColor"
d="M194 949q0 28 20 46t50 18h117q29 0 48 -18q20 -18 20 -46q0 -31 -19 -50q-20 -20 -49 -20h-117q-30 0 -50 20t-20 50zM317 1380q0 101 74 175t175 74h478q102 0 174 -73t72 -176q0 -50 -15 -86q87 -56 138 -148q50 -91 50 -197q0 -85 -33 -163q-32 -76 -89 -133
t-133 -89q-78 -33 -162 -33q-113 0 -210 56q-96 56 -152 152q-55 95 -55 210v23q-105 60 -138 174q-78 25 -126 88t-48 146zM426 393q0 29 18 47l112 117q49 37 98 0q20 -20 20 -49q0 -27 -20 -49l-115 -114q-21 -20 -48 -20q-29 0 -47 19q-18 20 -18 49zM455 1380
q0 -44 28 -75q29 -32 71 -36l44 -5q13 0 13 -16l7 -39q8 -61 51 -101t103 -40q61 0 105 40t52 101l6 45q6 15 17 15h92q45 0 78 33t33 78q0 47 -33 80q-34 34 -78 34h-478q-47 0 -79 -34t-32 -80zM763 934q7 -113 89 -192q80 -77 194 -77q117 0 198 83q82 84 82 201
q0 72 -36 135q-35 61 -96 101q-62 -51 -142 -51q-30 -90 -107 -145q-78 -55 -173 -55h-9zM978 325q0 29 20 49q19 19 48 19q30 0 49 -19q20 -20 20 -49v-163q0 -29 -20 -47q-19 -18 -49 -18q-28 0 -48 18t-20 47v163zM1418 1386q0 29 19 49l114 113q44 45 98 0
q19 -19 19 -47t-19 -47l-117 -117q-18 -17 -48 -17q-29 0 -47 19q-19 21 -19 47zM1418 507q0 30 19 50q19 19 47 19q29 0 48 -19l117 -117q19 -19 19 -47q0 -29 -20 -49q-19 -19 -49 -19q-29 0 -48 20l-114 114q-19 19 -19 48zM1598 949q0 28 20 46t50 18h118q28 0 48 -18
t20 -46q0 -30 -20 -50t-48 -20h-118q-30 0 -50 20t-20 50z" />
</svg>