<svg xmlns="http://www.w3.org/2000/svg" xmlns:xlink="http://www.w3.org/1999/xlink" version="1.1" viewBox="-10 0 2058 2048">
   <path fill="currentColor"
d="M88 1191q0 139 96 239q99 101 238 107q10 0 10 -12v-95q0 -13 -10 -13q-92 -7 -154 -72t-62 -154q0 -87 60 -152q59 -66 146 -73l36 -5q14 0 14 -12l4 -35q10 -111 96 -189q83 -76 198 -76t198 76q86 78 98 189l4 41q0 11 14 11h112q93 0 160 66q68 66 68 159
q0 89 -62 154t-154 72q-12 0 -12 13v95q0 12 12 12q140 -4 236 -106q96 -101 96 -240q0 -71 -32 -144q82 -100 82 -228q0 -73 -28 -142q-29 -67 -78 -117q-51 -50 -116 -78q-67 -28 -142 -28q-162 0 -270 120q-89 -43 -186 -43q-148 0 -262 91q-114 92 -146 235
q-114 27 -189 120t-75 214zM610 1976h20l370 -546q6 -5 2.5 -10t-8.5 -5h-152l158 -293q8 -15 -8 -15h-206q-9 0 -14 10l-152 398q-2 14 10 14h152zM672 333q0 26 16 43l46 46q44 33 84 0q18 -20 18 -45q0 -24 -18 -41l-44 -45q-20 -18 -44 -18t-42 18q-16 17 -16 42z
M1044 642q72 -72 172 -72t174 73q72 72 72 176q0 65 -36 126q-102 -98 -240 -98h-22q-29 -120 -120 -205zM1156 273q0 26 17 43t42 17t41 -16q18 -17 18 -44v-142q0 -24 -17 -41t-41 -17t-42 17q-18 16 -18 41v142zM1540 434.5q0 23.5 20 41.5q19 18 38 18q17 0 42 -18
l102 -100q18 -20 18 -43q0 -27 -18 -43q-19 -17 -42 -17q-22 0 -40 18l-100 100q-20 20 -20 43.5zM1598 1258q0 24 16 43l46 46q16 17 40 17t42 -18t18 -44q0 -24 -18 -40l-44 -45q-20 -17 -42 -17q-24 0 -41 17t-17 41zM1698 819q0 23 18 40t42 17h142q26 0 44 -16
q16 -16 16 -41t-18 -43q-16 -17 -42 -17h-142q-24 0 -42 17q-18 18 -18 43z" />
</svg>