<svg xmlns="http://www.w3.org/2000/svg" xmlns:xlink="http://www.w3.org/1999/xlink" version="1.1" viewBox="-10 0 2058 2048">
   <path fill="currentColor"
d="M86 1191q0 115 69 207t177 124l-44 118q-4 14 10 14h148l-86 275h20l290 -375q4 -5 0 -10q-3 -5 -10 -5h-150l172 -322q7 -15 -10 -15h-206q-10 0 -16 9l-74 201q-74 -19 -124 -81q-48 -61 -48 -140q0 -86 58 -151q58 -63 148 -74l36 -5q14 0 14 -12l4 -36
q10 -113 96 -189q84 -76 198.5 -76t199.5 76q86 77 98 189l4 41q0 12 12 12h112q94 0 162 66q66 66 66 159q0 89 -62 154q-61 65 -152 72q-14 0 -14 13v95q0 12 14 12q137 -4 236 -106q96 -100 96 -240q0 -77 -30 -140q82 -100 82 -231q0 -99 -48 -182q-50 -84 -134 -134
q-84 -49 -182 -49q-162 0 -272 121q-84 -45 -188 -45q-148 0 -262 91q-114 92 -146 234q-114 27 -189 120t-75 215zM648 1859q-1 14 10 30q11 15 32 23q10 2 16 2q17 0 34 -10t24 -33l160 -597q5 -23 -6 -45q-9 -19 -34 -27q-24 -8 -44 4q-23 13 -28 35l-162 599
q-2 12 -2 19zM672 336q0 24 18 41l44 46q18 18 43 18t39 -18q20 -15 20 -42q0 -25 -18 -41l-44 -46q-18 -17 -42 -17q-26 0 -43 17t-17 42zM938 1646q0 12 8 26q14 21 34 30q8 3 22 3q16 0 22 -4q22 -9 30 -40l102 -387q7 -26 -4 -45q-12 -20 -36 -27q-24 -8 -44 4
q-22 12 -28 35l-104 389q0 5 -1 8t-1 8zM1044 643q70 -67 174 -67q101 0 174 71q72 71 72 173q0 66 -36 129q-105 -103 -244 -103h-22q-30 -120 -118 -203zM1156 277q0 24 18 42t44 18q25 0 40 -17q16 -17 16 -43v-143q0 -25 -16 -42q-16 -18 -40 -18q-26 0 -44 18t-18 42
v143zM1542 437q0 25 18 41q16 18 40 18t42 -18l100 -101q18 -17 18 -41q0 -26 -17 -43t-43 -17q-22 0 -38 18l-102 101q-18 17 -18 42zM1598 1263q0 23 18 42l46 44q13 15 36 16l2 1h2q1 0 2.5 0.5l1.5 0.5q20 0 36 -18q18 -17 18 -42t-18 -43l-44 -42q-17 -19 -40 -19
q-26 0 -43 17t-17 43zM1700 820q0 24 18 42q20 19 42 19h142q24 0 42 -18t18 -43t-16 -41q-18 -16 -44 -16h-142q-25 0 -42 16q-18 17 -18 41z" />
</svg>