<svg xmlns="http://www.w3.org/2000/svg" xmlns:xlink="http://www.w3.org/1999/xlink" version="1.1" viewBox="-10 0 2058 2048">
   <path fill="currentColor"
d="M302 1192q0 67 26 131q24 60 70.5 106.5t105.5 74.5q61 28 132 31q10 0 10 -11v-93q0 -13 -10 -13q-92 -6 -154 -72q-62 -67 -62 -154q0 -88 60 -153q58 -64 146 -72l36 -5q14 0 14 -12l4 -36q8 -73 48 -135q40 -61 106 -96q64 -34 140 -34q115 0 200 75q85 74 98 188
l4 40q0 12 12 12h112q94 0 162 68q66 67 66 160q0 87 -62 154q-61 66 -152 72q-14 0 -14 13v93q0 11 14 11q141 -6 236.5 -105t95.5 -238q0 -93 -46 -173q-47 -79 -126 -126q-79 -46 -174 -46h-22q-34 -138 -148 -229q-111 -89 -256 -89q-148 0 -260 92q-114 93 -148 236
q-113 27 -190 121q-74 93 -74 214zM736 1280q0 80 38 144q38 65 105.5 105t142.5 40q120 0 206 -86q86 -85 86 -203q0 -24 -18 -42t-42 -18q-26 0 -44 18t-18 42q0 68 -50 120q-48 50 -120 50q-70 0 -118 -50q-50 -52 -50 -120q0 -63 36 -112q37 -48 92 -53l-28 27
q-16 16 -16 40q0 25 16 46q16 16 36 16q24 0 48 -16l128 -130q16 -17 16 -41q0 -26 -16 -42l-128 -128q-19 -18 -42 -18q-25 0 -42 18q-16 19 -16 42q0 25 16 41l24 24q-105 18 -174 98q-68 78 -68 188z" />
</svg>