<svg xmlns="http://www.w3.org/2000/svg" xmlns:xlink="http://www.w3.org/1999/xlink" version="1.1" viewBox="-10 0 2058 2048">
   <path fill="currentColor"
d="M275 1192q0 67 26 131q25 62 71 108q45 45 107 74q63 29 130 32q13 0 13 -12v-94q0 -11 -13 -11q-89 -5 -152 -72q-63 -68 -63 -156t59 -153q58 -64 147 -72l37 -5q10 0 10 -10l5 -37q12 -114 98 -191q85 -76 200 -76q112 0 199 76q86 75 98 188l4 40q0 13 13 13h113
q92 0 159 67q66 66 66 160q0 88 -62 156t-150 72q-13 0 -13 11v94q0 12 13 12q139 -6 236 -106t97 -239q0 -66 -29 -139q79 -103 79 -229q0 -100 -49 -183q-50 -84 -134 -134q-85 -50 -183 -50q-159 0 -269 117q-92 -45 -188 -45q-147 0 -262 92q-116 93 -147 236
q-119 27 -192 119q-74 94 -74 216zM650 1663q0 16 11 33t33 24q13 6 26 5q14 -2 28 -14q15 -13 19 -33l20 -71q6 -26 -6 -47t-37 -25q-22 -7 -43 5t-29 35l-20 72q-2 12 -2 16zM742 1330q0 17 12 36q11 17 33 20q18 3 21 3q39 0 53 -46l19 -70q6 -25 -5 -46t-37 -29
q-24 -6 -45 6q-20 12 -28 36l-21 73q-2 9 -2 17zM828 1881q0 18 11 35q10 16 33 22q4 1 8.5 2t7.5 1.5t4 0.5q8 0 26 -8q18 -9 27 -38l21 -71q6 -26 -6 -47t-37 -26q-21 -7 -44 5q-21 11 -29 36l-20 72q-2 12 -2 16zM921 1546q0 18 11 35t34 23q23 7 44 -3q20 -10 28 -40
l20 -70q7 -25 -5 -46t-37 -25q-23 -8 -44 4q-22 12 -29 36l-20 72q-2 6 -2 14zM1119 1668q-1 14 10 32q10 15 32 23l18 2q13 0 26 -5q22 -9 29 -38l20 -73q7 -23 -5 -45q-11 -19 -36 -27q-25 -6 -46 6q-22 12 -26 37l-20 70zM1213 1333q0 19 12 35q12 17 33 21l18 2
q46 0 56 -43l20 -72q6 -26 -6 -47q-12 -22 -37 -26q-23 -7 -45 5q-21 12 -27 37l-21 72q-3 12 -3 16zM1237 644q71 -68 170 -68q102 0 174 73q72 74 72 175q0 64 -34 123q-100 -100 -242 -100h-23q-26 -115 -117 -203z" />
</svg>