<svg xmlns="http://www.w3.org/2000/svg" xmlns:xlink="http://www.w3.org/1999/xlink" version="1.1" viewBox="-10 0 2058 2048">
   <path fill="currentColor"
d="M116 1092q0 -30 24 -51q20 -21 50 -21h174q28 0 49 21t21 51q0 31 -20 52q-22 22 -50 22h-174q-30 0 -52 -22t-22 -52zM360 506q0 -30 22 -52q24 -21 54 -21q27 0 50 21l120 124q22 20 22 50q0 31 -20 51t-50 20q-32 0 -52 -21l-124 -120q-22 -22 -22 -52zM578 1092
q0 -88 36 -170q38 -86 96 -142q59 -58 141.5 -94t172.5 -36q120 0 222 60t162 162t60 220q0 18 -4 35q-34 -21 -80 -21q-27 0 -60 13v-27q0 -122 -88 -209q-87 -86 -212 -86t-212 86q-88 87 -88 209v15q-42 3 -72 21l-1 1t-2.5 2l-4.5 3q-2 2 -7.5 6t-8.5 6l-7 5.5t-11 9.5
q-16 14 -22 20q-10 -40 -10 -89zM580 1397v-12q-1 -10 2 -27q6 -45 36 -86q10 -14 22 -26l4 -4q1 -1 1.5 -2.5l0.5 -1.5q4 -2 10 -8q4 -4 7 -6t7 -5q6 -6 12 -9l14 -9q18 -12 40 -12h4q14 0 20 2q3 1 12 6v1q18 8 28 24q12 17 12 34q0 22 -12 36q-6 7 -20 19q0 1 -2 2l-2 1
q-2 1 -4 1l-4 3q-2 2 -5 4t-3 3l-10 9q-4 4 -10 12q-3 5 -6 13q-5 11 -6 14v11v2q3 12 10 29q11 20 28 37q2 2 20 21q109 98 102 210q-4 40 -18 72q-15 35 -36 59q-20 24 -32 36q-9 9 -22 17q0 1 -1.5 1.5t-2.5 1.5l-6 4q-7 3 -18 5q-15 2 -16 2q-38 0 -60 -25
q-19 -23 -16 -50t28 -44l2 -2q2 -2 4 -3t6 -5q0 -1 1.5 -2t3 -2.5t2 -3t3 -4.5t3.5 -4.5t3.5 -4.5t3.5 -5q6 -9 7 -11t3 -6.5t4 -6.5q2 -5 4 -13q2 -10 2 -15q2 -23 -14 -50q-5 -13 -18 -28q-10 -12 -12 -13q-4 -4 -7 -7.5t-4.5 -5.5t-2.5 -2q-4 -2 -6 -4l-2.5 -2.5
l-1.5 -1.5q-16 -13 -28 -30q-18 -22 -20 -27q-24 -33 -34 -65q-3 -10 -6 -26q0 -1 -2 -7t-2 -8zM906 1369q0 -2 -0.5 -4.5t-0.5 -4t1 -2.5q3 -28 16 -54q16 -29 30 -44q21 -23 30 -32q10 -8 28 -21l10 -6q19 -12 40 -12q18 0 26 2l4 2q2 1 6 4l2 1l6 4q26 15 32 45v6v2v1
q0 2 -2 10l-2 8q-8 28 -34 41q-41 26 -44 58q-2 11 0 18q2 14 14 33q10 17 20 27q20 20 24 22q11 10 38 43q68 82 62 167q-3 40 -16 73q-15 35 -36 58q-32 34 -34 36q-16 14 -22 17l-10 7q-5 2 -10.5 3.5l-5.5 1.5q-4 0 -8 0.5t-6.5 1t-3.5 0.5h-2q-8 0 -16 -2q-2 0 -5 -1
t-7 -1l-2 -1l-1.5 -1t-2.5 -1q0 -1 -2 -1q-19 -14 -22 -17q-20 -24 -16 -50q5 -27 30 -44l2 -3l6 -7l10 -10q8 -8 12 -13q1 -2 4.5 -7.5t5.5 -8.5q2 -5 6 -19q3 -8 4 -20q2 -51 -58 -106q-21 -19 -36 -36q-70 -84 -64 -163zM950 437v-173q0 -30 22 -52q22 -21 52 -21t51 21
t21 52v173q0 29 -20 49q-22 20 -52 20t-52 -20t-22 -49zM1230 1358q4 -28 18 -54q15 -29 28 -44q22 -23 32 -32q13 -12 26 -21l10 -6q2 -1 5 -3t5 -3q13 -6 30 -6q42 0 64 32q7 9 10 19v7v9q0 40 -36 59q-40 26 -44 58q-5 42 56 100q111 98 104 210q-4 37 -18 72
q-16 35 -36 59q-22 24 -34 36q-9 9 -20 17q-21 11 -34 13q-4 1 -14 1q-37 0 -58 -25q-18 -21 -14 -50q3 -28 26 -44q4 -2 14 -12q12 -12 24 -32q14 -23 16 -44q3 -50 -60 -106q-51 -46 -78 -97q-29 -55 -22 -113zM1422 628q0 -31 18 -50l122 -124q23 -21 52 -21q30 0 52 22
q20 21 20 51q0 31 -22 52l-124 120q-22 21 -50 21q-30 0 -48 -20q-20 -22 -20 -51zM1614 1092q0 -28 22 -51q20 -21 50 -21h172q29 0 52 21q22 21 22 51q0 31 -22 52q-24 22 -52 22h-172q-31 0 -52 -22q-20 -22 -20 -52z" />
</svg>