<svg xmlns="http://www.w3.org/2000/svg" xmlns:xlink="http://www.w3.org/1999/xlink" version="1.1" viewBox="-10 0 2058 2048">
   <path fill="currentColor"
d="M346 982q0 -138 54 -264q54 -127 145 -216q94 -93 216 -146q126 -54 263 -54q138 0 264 54q124 54 216 145.5t145 216.5q53 123 53 264q0 225 -133 402q-134 177 -343 242v304h-393v-302q-215 -63 -351 -240.5t-136 -405.5zM495 982q0 214 157 370q154 156 372 156
q143 0 265 -72q125 -72 194 -190q71 -123 71 -264q0 -108 -42 -206q-41 -94 -114 -168q-71 -70 -169 -112t-205 -42q-106 0 -204 42t-169 112q-73 74 -114 168q-42 98 -42 206zM549 1014v-66h201v66h-201zM650 686l48 -46l141 140l-48 48zM884 1144q0 -58 41 -100
q42 -44 98 -46l253 -416l61 32l-187 448q24 35 24 82q0 60 -42 102q-43 44 -104 44q-59 0 -102 -44q-42 -42 -42 -102zM1006 712v-202h64v202h-64zM1278 1014v-68h200v68h-200z" />
</svg>