<svg xmlns="http://www.w3.org/2000/svg" xmlns:xlink="http://www.w3.org/1999/xlink" version="1.1" viewBox="-10 0 2058 2048">
   <path fill="currentColor"
d="M278 1193q0 67 26 131q25 62 70 108q45 44 106 73q63 29 130 32q12 0 12 -12v-94q0 -11 -12 -11q-91 -6 -152 -72q-62 -67 -62 -155q0 -87 58 -152q60 -66 146 -73l38 -4q12 0 12 -12l6 -36q7 -73 48 -135q38 -59 106 -95q65 -35 140 -35q113 0 198.5 76t97.5 187l4 41
q0 11 12 11h112q94 0 161 67t67 160q0 88 -62 155q-61 66 -152 72q-14 0 -14 11v94q0 12 14 12q138 -6 236 -106q96 -99 96 -238q0 -70 -32 -144q82 -104 82 -228q0 -98 -50 -183t-132 -134q-84 -49 -182 -49q-167 0 -270 121q-84 -44 -186 -44q-147 0 -262 92
q-114 92 -146 235q-117 27 -190 120q-74 94 -74 214zM810 1515q-2 14 10 14h150l-92 291h22l290 -389q5 -4 2 -9q-4 -5 -10 -5h-152l160 -295q8 -15 -10 -15h-204q-9 0 -14 10zM1232 644q72 -70 174 -70t174 72q70 71 70 175q0 63 -36 126q-101 -98 -240 -98h-22
q-29 -124 -120 -205z" />
</svg>