<svg xmlns="http://www.w3.org/2000/svg" xmlns:xlink="http://www.w3.org/1999/xlink" version="1.1" viewBox="-10 0 2068 2048">
   <path fill="currentColor"
d="M0 1257q0 -37 26 -58q22 -22 58 -22h196q34 0 56 23q22 22 22 57q0 32 -22 57q-23 24 -56 24h-196q-34 0 -58 -24q-26 -25 -26 -57zM88 1734q0 -32 24 -57q22 -22 58 -22h1710q33 0 58 23q24 23 24 56q0 34 -24 58t-58 24h-1710q-34 0 -58 -24t-24 -58zM280 591
q0 -37 22 -56q23 -25 58 -25q33 0 56 25l136 138q26 23 26 56q0 35 -24 58q-22 22 -56 22q-30 0 -56 -23l-140 -138q-22 -19 -22 -57zM524 1257q0 121 50 219q4 13 22 13h158q11 0 12 -6q2 -6 -6 -15q-76 -92 -76 -211q0 -140 100 -239q101 -99 240 -99q140 0 239 99t99 239
q0 121 -74 211q-6 8 -6 12q0 3 4 7q2 2 8 2h160q12 0 20 -13q52 -100 52 -219q0 -135 -68 -251q-67 -116 -184 -184q-114 -67 -250 -67t-250.5 67t-183.5 184q-66 115 -66 251zM944 511v-196q0 -34 24 -58q24 -25 56 -25q34 0 59 25t25 58v196q0 34 -26 59q-24 24 -58 24
q-32 0 -56 -24t-24 -59zM1472 729q0 -33 22 -56l136 -138q24 -25 58 -25q36 0 58 23q24 24 24 58q0 36 -20 57l-142 138q-23 21 -56 21q-35 1 -58 -21q-22 -23 -22 -57zM1690 1257q0 -37 22 -58q22 -22 56 -22h196q35 0 60 23q24 22 24 57q0 32 -26 57q-24 24 -58 24h-196
q-33 0 -56 -24q-22 -23 -22 -57z" />
</svg>