<svg xmlns="http://www.w3.org/2000/svg" xmlns:xlink="http://www.w3.org/1999/xlink" version="1.1" viewBox="-10 0 2058 2048">
   <path fill="currentColor"
d="M143 1480q0 24 18 41q17 16 43 16h655q25 0 41 -16q17 -17 17 -41q0 -26 -17 -43t-41 -17h-655q-24 0 -43 17q-18 17 -18 43zM326 1268q0 24 19 41q17 18 42 18h656q25 0 41 -17t16 -42t-16 -41q-17 -17 -41 -17h-656q-24 0 -43 17q-18 17 -18 41zM399 1104q0 10 12 10
h100q9 0 15 -10q24 -57 73 -94q50 -38 109 -42l39 -5q12 0 12 -12l5 -36q10 -112 96 -189q85 -76 200 -76q114 0 198 75q83 74 98 188l5 41q0 12 13 12h112q95 0 161 66q67 67 67 161q0 92 -68 160q-67 67 -160 67h-481q-12 0 -12 12v94q0 11 12 11h481q94 0 174 -45
q78 -44 126 -126q46 -79 46 -173t-45 -172q75 -67 105 -180l13 -48v-4q0 -8 -10 -11l-43 -15q-43 -13 -81 -40q-34 -24 -56 -59q-21 -32 -31 -65q-10 -31 -10 -66q0 -23 8 -61l9 -43q4 -9 -9 -15l-57 -17q-47 -11 -87 -11q-38 0 -79 9q-44 10 -83 28q-43 20 -82 56
q-37 35 -68 85q-81 -33 -166 -33q-148 0 -261 91q-115 92 -145 236q-92 21 -159 85q-68 65 -95 154v2q-1 1 -1 5zM449 1696q0 26 18 42q16 17 42 17h657q25 0 42 -17q18 -18 18 -42t-18 -41q-17 -16 -42 -16h-657q-25 0 -42 16q-18 17 -18 41zM1325 625q37 -58 94 -89
q59 -32 119 -30h17v17q0 101 56 195q56 93 151 138q-17 39 -53 74q-91 -82 -223 -82h-22q-26 -126 -139 -223z" />
</svg>