<svg xmlns="http://www.w3.org/2000/svg" xmlns:xlink="http://www.w3.org/1999/xlink" version="1.1" viewBox="-10 0 2058 2048">
   <path fill="currentColor"
d="M302 1191q0 139 98 239q98 101 236 107q12 0 12 -12v-94q0 -11 -12 -11q-88 -4 -152 -71q-62 -66 -62 -158q0 -85 58 -150q59 -65 146 -75l36 -2q14 0 14 -13l4 -37q11 -111 96 -189q84 -76 200 -76q113 0 197.5 76t96.5 189l6 41q0 11 12 11h112q92 0 160 67
q68 66 68 158t-62 158q-64 66 -152 71q-14 0 -14 11v94q0 12 14 12q89 -3 166 -50t122 -126q44 -79 44 -170q0 -95 -46 -172q-48 -80 -126 -124q-82 -46 -174 -46h-22q-35 -140 -146 -228q-114 -89 -256 -89q-149 0 -262 91q-115 92 -146 234q-115 27 -190.5 120t-75.5 214z
M682 1693q10 22 32 32q20 10 44 1q22 -9 30 -31q11 -22 2 -45q-9 -21 -32 -30q-21 -11 -42.5 -2t-31.5 32q-12 17 -2 43zM726 1496q0 16 10 32q10 14 32 22q20 12 43.5 1t30.5 -41l64 -236q6 -26 -6 -47t-38 -25q-12 -2 -16 -2q-16 0 -34 11q-16 10 -22 30l-62 237
q-2 15 -2 18zM856 1884.5q0 14.5 4 21.5q8 22 30 31q12 5 24 5q7 0 20 -4q23 -9 34 -31q5 -11 5 -23t-5 -23q-11 -23 -32 -32t-44 0q-19 9 -28 25q-8 16 -8 30.5zM906 1704q0 39 44 51q8 2 18 2q14 0 26 -5q22 -10 30 -40l116 -438q5 -25 -4 -45q-11 -21 -34 -27
q-13 -2 -20 -2q-16 0 -34 11q-16 11 -20 30l-118 442q-4 15 -4 21zM1146 1672q0 10 4 22q9 21 32 31q10 4 24 4q7 0 20 -4q23 -9 32 -30q8 -23 0 -44q-10 -21 -30 -31q-23 -10 -44 -2q-24 9 -34 32q-4 12 -4 22zM1196 1493q0 14 10 31q11 16 32 23q17 3 20 3q10 0 24 -7
q21 -10 28 -36l64 -233l2 -18q0 -16 -12 -32q-11 -16 -32 -22q-12 -2 -18 -2q-18 0 -32 10q-16 11 -22 31l-62 234z" />
</svg>