<svg xmlns="http://www.w3.org/2000/svg" xmlns:xlink="http://www.w3.org/1999/xlink" version="1.1" viewBox="-10 0 2068 2048">
   <path fill="currentColor"
d="M0 1895q0 -25 18 -43q20 -19 42 -19h42q-34 -104 -54 -213q-34 -170 -34 -309q0 -262 94 -495q94 -225 266 -388q170 -163 402 -249q234 -89 506 -89q161 0 310 29q148 35 280 106l176 94l-194 40q-89 21 -124 81q-23 50 4 114l42 97l-106 5q-62 4 -120 28q-52 25 -60 51
q-17 35 36 104l82 98l-128 19q-240 36 -393.5 99t-242.5 164q-87 96 -128 244q-42 147 -46 370h542v-287l-40 24q-21 14 -46 8q-26 -6 -38 -29q-14 -22 -8 -47q6 -27 26 -39l394 -245l2 -2v-1h2q2 0 4 -1q6 -3 22 -7h4h2q2 2 4 2h2h2h2q0 1 2 1h2l2 1h2q2 2 2 3h2q2 0 2 1
q2 0 2 1q2 0 4 1l2 1l392 242q22 13 28 40q6 24 -8 47q-12 21 -38 27q-27 6 -48 -7l-32 -20v286h100q23 0 40 19q18 19 18 43q1 27 -16 45q-18 18 -42 18h-1902q-24 0 -42 -18q-18 -17 -18 -45zM160 1311q0 114 30 282q22 121 56 218h278q8 -227 46 -370q55 -198 166 -319
q113 -127 298 -202q132 -55 320 -90l-8 -26q-16 -73 8 -127q34 -78 134 -124q17 -7 18 -8q-133 -31 -268 -15q-153 20 -286 88q-170 90 -310 256q-16 18 -40 18q-17 0 -32 -11q-14 -13 -18 -35q-2 -21 12 -38q154 -183 344 -281q152 -77 324 -98q84 -11 172 -2q78 8 118 17
q26 6 46 13l8 3q8 -50 26 -87q25 -48 64 -82q-36 -12 -106 -29q-124 -27 -278 -27q-244 0 -454 79q-209 80 -354 220q-151 141 -230 337q-84 207 -84 440zM1338 1833h400v-363l-204 -125l-196 123v365z" />
</svg>