<svg xmlns="http://www.w3.org/2000/svg" xmlns:xlink="http://www.w3.org/1999/xlink" version="1.1" viewBox="-10 0 2058 2048">
   <path fill="currentColor"
d="M89 1190q0 93 44 169q46 79 121 125q77 47 167 51q13 0 13 -11v-93q0 -13 -13 -13q-87 -4 -151 -71q-63 -66 -63 -157q0 -86 59 -150q59 -63 146 -74l36 -2q13 0 13 -12l5 -38q10 -112 95 -189q82 -75 199 -75q112 0 197 76q86 77 98 188l4 41q0 11 12 11h113
q91 0 160 67q67 66 67 157q0 92 -62 157q-64 67 -153 71q-12 0 -12 13v93q0 11 12 11q93 -3 168 -50q77 -49 120 -125q43 -77 43 -170q0 -79 -28 -139q81 -99 81 -230q0 -99 -49 -182q-51 -86 -133 -133q-86 -49 -181 -49q-162 0 -270 121q-85 -45 -187 -45q-148 0 -261 91
q-115 92 -146 233q-114 27 -189 120t-75 213zM500 1252q0 40 30 68q29 28 70 28q42 0 70 -28t28 -68q0 -25 -24 -70q-20 -37 -46 -69q-6 -6 -12.5 -13.5t-10 -11l-5.5 -5.5l-25 28q-25 26 -51 72q-24 42 -24 69zM673 338q0 27 17 42l45 46q44 33 85 0q17 -22 17 -44
q0 -24 -17 -41l-45 -46q-18 -17 -42 -17q-27 0 -43 17q-17 19 -17 43zM707 1528q0 68 48 115q49 47 114 47q68 0 116 -48t48 -114q0 -55 -57 -138q-51 -67 -88 -104q-12 -8 -19 -15l-16 15q-40 37 -89 103q-57 80 -57 139zM810 1066q0 25 20 45q19 19 48 19q26 0 45 -19
t19 -45q0 -43 -64 -111l-17 17q-18 19 -35 49q-16 28 -16 45zM1045 644q69 -69 172 -69q101 0 173 72t72 174q0 62 -36 128q-100 -100 -242 -100h-23q-30 -120 -116 -205zM1157 278q0 24 18 42t42 18q23 0 40 -18q16 -17 16 -42v-142q0 -25 -16 -41t-40 -16q-26 0 -43 16
t-17 41v142zM1541 439q0 27 17 41q19 17 39 17q18 0 43 -17l100 -100q19 -19 19 -43q0 -25 -18 -42q-19 -17 -42 -17q-24 0 -41 17l-100 100q-17 17 -17 44zM1597 1260q0 27 16 44l45 41q15 19 41 19t41 -19q19 -16 19 -41q0 -22 -19 -40l-43 -45q-19 -17 -42 -17
q-25 0 -42 17q-16 16 -16 41zM1697 821q0 25 18 41q19 17 44 17h141q23 0 42 -17q17 -16 17 -41q0 -24 -18 -42q-17 -17 -41 -17h-141q-26 0 -44 18t-18 41z" />
</svg>