<svg xmlns="http://www.w3.org/2000/svg" xmlns:xlink="http://www.w3.org/1999/xlink" version="1.1" viewBox="-10 0 2068 2048">
   <path fill="currentColor"
d="M0 1142q0 -32 26 -58q28 -24 58 -24h194q34 0 56 24q24 25 24 58q0 35 -24 60q-23 25 -56 25h-194q-32 0 -58 -26q-26 -25 -26 -59zM278 475q0 -34 22 -57q29 -24 60 -24q32 0 56 24l138 138q22 26 22 58q0 36 -22 59q-21 23 -54 23q-31 0 -60 -24l-140 -136
q-22 -26 -22 -61zM446 1604q0 -36 24 -58q22 -22 56 -22h220l260 -244q13 -11 28 0l264 244h232q33 0 58 23q24 23 24 57q0 33 -24 57q-26 25 -58 25h-282q-14 0 -26 -6l-200 -190l-200 190q-11 6 -24 6h-272q-32 0 -56 -25q-24 -24 -24 -57zM522 1142q0 120 52 221
q4 15 22 15h158q9 0 12 -7q3 -8 -2 -16q-80 -97 -80 -213q0 -141 100 -240q100 -98 242 -98q140 0 238 98q100 99 100 240q0 118 -80 213q-5 8 -2 16q3 7 12 7h160q16 0 20 -15q52 -98 52 -221q0 -102 -40 -194q-41 -94 -108 -160q-66 -67 -160 -106q-95 -40 -192 -40
q-100 0 -196 40q-92 39 -160 106q-67 68 -108 160q-40 92 -40 194zM942 394v-192q0 -36 24 -59q25 -23 60 -23q36 0 58 23q24 26 24 59v192q0 35 -24 59q-24 23 -58 23q-35 0 -60 -23q-24 -23 -24 -59zM1472 614q0 -30 24 -58l134 -138q24 -24 60 -24q34 0 58 24t24 57
q0 36 -22 61l-142 136q-26 24 -58 24q-34 0 -56 -23q-22 -24 -22 -59zM1692 1142q0 -35 22 -58q22 -24 54 -24h198q34 0 58 24t24 58t-24 60q-24 25 -58 25h-198q-31 0 -54 -25q-22 -23 -22 -60z" />
</svg>