<svg xmlns="http://www.w3.org/2000/svg" xmlns:xlink="http://www.w3.org/1999/xlink" version="1.1" viewBox="-10 0 2058 2048">
   <path fill="currentColor"
d="M192 1475q0 26 19 42q19 19 42 19h410q26 0 48 20q20 19 20 47q0 27 -21 48q-20 20 -47 20q-26 0 -47 -21q-20 -18 -43 -18q-25 0 -41 18q-17 19 -17 42q0 25 17 42q54 54 131 54q78 0 132 -54t54 -131q0 -75 -55 -132q-54 -55 -131 -55h-410q-26 0 -43 17q-18 18 -18 42
zM192 1266q0 24 19 40q15 17 42 17h766q77 0 131 -54q55 -55 55 -131t-55 -131q-54 -54 -131 -54q-80 0 -132 52q-16 19 -16 44q0 22 16 40q15 16 42 16q25 0 42 -15q20 -20 48 -20q27 0 47 20t20 48q0 26 -20 48q-19 20 -47 20h-766q-25 0 -43 18t-18 42zM377 1102
q0 9 12 9h99q9 0 15 -10q24 -57 73 -94q50 -37 111 -42l37 -5q13 0 13 -13l4 -34q11 -113 96 -189t199 -76q115 0 199 75t96 190l5 40q0 12 12 12h114q95 0 161 66t66 159t-66 159q-67 67 -161 67h-481q-12 0 -12 12v96q0 12 12 12h481q94 0 173 -46q78 -46 125 -126
q46 -79 46 -174q0 -80 -29 -141q79 -104 79 -232q0 -73 -29 -142q-30 -70 -78 -117q-51 -50 -116 -77q-69 -29 -142 -29q-161 0 -270 121q-81 -42 -185 -42q-148 0 -261 91q-114 92 -144 233q-87 21 -157 86q-67 63 -95 152v3zM1319 640q76 -71 172 -71q102 0 175 73t73 175
q0 64 -35 128q-100 -100 -242 -100h-23q-24 -112 -120 -205z" />
</svg>