<svg xmlns="http://www.w3.org/2000/svg" xmlns:xlink="http://www.w3.org/1999/xlink" version="1.1" viewBox="-10 0 2058 2048">
   <path fill="currentColor"
d="M88 855q0 -156 97 -277q98 -122 247 -155q42 -187 190 -305t339 -118q184 0 332 116q147 115 190 295h29q185 0 317 130q131 129 131 314q0 97 -41 187q-40 87 -113 151v3q0 99 -61 175t-154 97q-24 105 -100 175q-77 71 -180 87q48 57 48 125q0 78 -56 136
q-55 57 -136 57q-79 0 -135 -57q-57 -59 -57 -136q0 -31 12 -63h-12q-95 0 -164 -69q-70 -70 -70 -165q0 -66 33 -117q-86 -48 -123 -138h-129h-2h-9v-1q-178 -12 -300 -140q-123 -129 -123 -307zM242 828q0 133 92 225q93 93 224 93q80 0 150 -38q20 123 115 205
q95 81 223 81q143 0 244 -101q68 78 169 78q94 0 160 -66q67 -67 67 -160q67 -46 104 -114q38 -70 38 -151q0 -132 -94 -223t-226 -91q-90 0 -168 49q10 -45 10 -87q0 -159 -114 -270q-115 -112 -274 -112q-153 0 -267 108q-112 106 -117 260h-10q-2 0 -5.5 -0.5t-4.5 -0.5
q-130 0 -223 93t-93 222z" />
</svg>