<svg xmlns="http://www.w3.org/2000/svg" xmlns:xlink="http://www.w3.org/1999/xlink" version="1.1" viewBox="-10 0 2058 2048">
   <path fill="currentColor"
d="M162 1480q0 -26 18 -43q19 -17 43 -17h1300q26 0 43 17t17 43q0 24 -17 40q-19 17 -43 17h-1300q-24 0 -43 -17q-18 -17 -18 -40zM344 1261q0 -25 18 -42q16 -16 42 -16h1300q24 0 41 17q16 16 16 41t-16 42t-41 17h-1300q-26 0 -43 -17t-17 -42zM353 1095q0 9 11 9h100
q5 0 13 -11q26 -56 74 -89q49 -34 109 -39l38 -5q12 0 12 -13l4 -34q11 -113 96 -189q84 -75 198 -75t197 74q84 75 96 187l5 40q0 12 14 12h111q67 0 122 36t82 95q8 11 14 11h100q13 0 10 -15q-31 -109 -121 -176q-92 -68 -207 -68h-23q-34 -139 -145 -227
q-112 -89 -255 -89q-145 0 -260 92q-113 91 -145 234q-87 21 -156 85q-68 63 -93 151v-2l-0.5 2t-0.5 4zM466 1693q0 -24 18 -41q15 -15 42 -15h1301q25 0 42 16t17 40q0 26 -17 43q-18 18 -42 18h-1301q-24 0 -42 -18t-18 -43z" />
</svg>