<svg xmlns="http://www.w3.org/2000/svg" xmlns:xlink="http://www.w3.org/1999/xlink" version="1.1" viewBox="-10 0 2058 2048">
   <path fill="currentColor"
d="M303 1195q0 138 97 238q96 99 236 104q12 0 12 -11v-93q0 -13 -12 -13q-87 -4 -151 -71t-64 -154q0 -88 59 -153q58 -64 146 -72l37 -5q13 0 13 -12l5 -35q11 -114 95 -191q85 -77 200 -77q112 0 197 76q86 77 98 189l4 40q0 13 13 13h112q94 0 161 67t67 160
q0 88 -63 154q-64 67 -151 71q-14 0 -14 13v93q0 11 14 11q138 -4 235 -104q96 -99 96 -238q0 -94 -46 -173q-46 -78 -126 -125q-79 -46 -173 -46h-22q-35 -141 -147 -229q-113 -89 -255 -89q-149 0 -262 91q-115 92 -146 233q-118 30 -191 123q-74 94 -74 215zM680 1684
q0 20 11 36q12 18 33 24q25 8 45 -3t27 -39l10 -43q4 -24 -7 -44q-11 -19 -36 -27q-23 -7 -44 5q-22 13 -28 37l-10 41q-1 3 -1 13zM733 1482q0 23 17 40q16 18 39 18q25 0 42 -17t17 -41q0 -23 -17 -40t-42 -17q-24 0 -40 16t-16 41zM775 1324q-1 15 10 31t33 23
q23 7 43 -5q22 -12 29 -36l20 -62q8 -26 -5 -46q-12 -19 -38 -27q-22 -7 -44 5q-21 12 -28 34l-17 64q0 1 -2 9q-1 4 -1 10zM856 1902q0 17 11 34t33 23q12 2 18 2q44 0 55 -42l10 -41q6 -27 -6 -48t-37 -26q-22 -7 -43 5q-22 12 -29 36l-10 41q-2 12 -2 16zM910 1699
q0 23 18 41q17 17 40 17q24 0 41 -17q16 -16 16 -41q0 -24 -16 -40q-17 -17 -41 -17t-41 17t-17 40zM954 1541q-2 16 9 33t31 21q26 6 45 -4q20 -11 29 -39l19 -63q7 -22 -5 -44q-12 -21 -37 -28q-22 -7 -45 6q-20 11 -28 37l-16 62q-2 12 -2 19zM1146 1691q0 16 11 33
t32 23q6 0 10 1q8 2 9 2q42 0 53 -46l10 -42q7 -22 -5 -44q-12 -21 -35 -28q-27 -6 -47 5q-22 12 -29 37l-6 41q0 1 -2 9q-1 4 -1 9zM1198 1485q0 24 17 40q15 17 40 17t41 -16t16 -41t-16 -41t-41 -16t-41 16t-16 41zM1240 1324q0 18 11 33q12 17 35 23q4 0 8 1t10 1
q10 0 25 -6q23 -12 29 -37l16 -62q6 -25 -5 -44q-12 -21 -35 -28t-44 4t-28 35l-19 63q0 1 -2 9q-1 4 -1 8z" />
</svg>