<svg xmlns="http://www.w3.org/2000/svg" xmlns:xlink="http://www.w3.org/1999/xlink" version="1.1" viewBox="-10 0 2058 2048">
   <path fill="currentColor"
d="M12 1151q0 -34 25 -56q22 -22 57 -22h193q33 0 55 22t22 56q0 37 -22 60q-22 24 -55 24h-193q-33 0 -58 -25q-24 -24 -24 -59zM287 495q0 -36 21 -57q25 -25 59 -25q35 0 56 25l136 137q58 55 0 113q-23 23 -54 23q-30 0 -57 -23l-140 -137q-21 -23 -21 -56zM451 1604
q0 -33 25 -58q22 -22 57 -22h268q13 0 24 6l196 186l200 -186q9 -6 24 -6h276q35 0 58 23t23 57q0 35 -23 58q-24 24 -58 24h-224l-262 237q-16 11 -28 0l-257 -237h-217q-34 0 -58 -24t-24 -58zM530 1151q0 125 48 220q7 13 23 13h156q9 0 12 -6t-6 -15q-74 -92 -74 -212
q0 -137 98 -234t238 -97q138 0 236 97q99 97 99 234q0 119 -75 212q-9 9 -6 15t13 6h157q16 0 20 -13q52 -99 52 -220q0 -97 -40 -191q-39 -92 -106 -159t-158 -106t-192 -39t-192 39t-158 106t-106 159t-39 191zM944 415v-194q0 -34 24 -58t57 -24q34 0 58 24t24 58v194
q0 34 -24 58q-23 23 -58 23q-34 0 -57 -23q-24 -24 -24 -58zM1468 631q0 -35 22 -56l136 -137q21 -25 56 -25q34 0 57 24q23 25 23 58q0 35 -21 56l-139 137q-27 23 -57 23q-32 0 -55 -23q-22 -22 -22 -57zM1684 1151q0 -34 22 -56t55 -22h194q32 0 57 23q24 23 24 55
q0 35 -24 59q-25 25 -57 25h-194q-33 0 -55 -24q-22 -23 -22 -60z" />
</svg>