<svg xmlns="http://www.w3.org/2000/svg" xmlns:xlink="http://www.w3.org/1999/xlink" version="1.1" viewBox="-10 0 2068 2048">
   <path fill="currentColor"
d="M0 1023q0 -208 82 -397q80 -187 218.5 -326t325.5 -219q190 -81 398 -81q206 0 396 81q188 80 328 219q138 139 218 326q82 189 82 397t-82 398q-79 188 -218.5 327t-327.5 219q-190 81 -396 81q-208 0 -398 -81q-187 -80 -326 -219t-218 -327q-82 -190 -82 -398z
M1056 109q143 172 234 404q88 228 88 510q0 601 -310 916q178 -7 338 -84q162 -77 278 -198q115 -119 186 -287q68 -165 68 -347q0 -243 -118 -449q-118 -208 -320 -332q-205 -126 -444 -133z" />
</svg>