<svg xmlns="http://www.w3.org/2000/svg" xmlns:xlink="http://www.w3.org/1999/xlink" version="1.1" viewBox="-10 0 2058 2048">
   <path fill="currentColor"
d="M379 1160q0 61 64 104q118 84 355 84q106 0 198 -18q95 -21 157 -66q61 -45 61 -104q0 -20 -7 -36q120 -30 193 -82q71 -52 71 -120q0 -10 -6 -36q204 -72 204 -194q0 -77 -89 -138q-175 -116 -509 -116q-159 0 -286 28q-141 29 -224 88q-86 62 -86 138q0 46 29 84
q-105 60 -105 146q0 66 65 118q-85 49 -85 120zM415 1426q0 65 80 102.5t202 37.5q124 0 204 -38q81 -37 81 -102q0 -23 -16 -40q-15 -16 -40 -16q-21 0 -35 12q-15 14 -20 34q-19 15 -66 26q-48 12 -108 12q-99 0 -159 -28q13 -13 15 -36q1 -20 -9 -36q-14 -19 -36 -24
q-21 -4 -41 8q-52 35 -52 88zM490 1160q0 -2 11 -10q8 -8 34 -20q25 -12 57 -22l7 -4q144 48 336 48q84 0 153 -8l15 14q-8 14 -37 28q-35 20 -110 35t-158 15q-84 0 -159 -16q-76 -15 -111 -34q-31 -13 -38 -26zM497 1660q0 57 64 86q65 30 158 30q97 0 162 -30t65 -86
q0 -23 -16 -40q-16 -18 -39 -18q-41 0 -55 42q-36 22 -117 22q-69 0 -113 -22q-14 -42 -55 -42q-23 0 -38 16q-16 18 -16 42zM509 922q0 -8 9 -16q20 -27 84 -52q172 92 469 92q155 0 286 -28v4q0 14 -17 28q-38 32 -135 60q-110 32 -270 32q-161 0 -271 -32
q-102 -28 -138 -60q-17 -14 -17 -28zM587 692q0 -16 20 -34q41 -38 159 -72q129 -38 305 -38q177 0 308 38q120 34 159 72q20 20 20 34q0 15 -20 34q-38 36 -159 72q-127 38 -308 38q-179 0 -305 -38q-119 -34 -159 -72q-20 -18 -20 -34z" />
</svg>