<svg xmlns="http://www.w3.org/2000/svg" xmlns:xlink="http://www.w3.org/1999/xlink" version="1.1" viewBox="-10 0 2068 2048">
   <path fill="currentColor"
d="M0 1214q0 -45 32 -75q30 -29 84 -29h762q55 0 86 29q30 30 30 75q0 55 -30 86q-30 30 -86 30h-762q-53 0 -84 -30q-32 -30 -32 -86zM0 424q0 -45 32 -73q32 -29 84 -29h396q53 0 85.5 29t32.5 73q0 54 -32 86t-86 32h-396q-54 0 -85 -31t-31 -87zM132 1608q0 -44 37 -81
t81 -37q51 0 82 36q32 37 32 82q0 53 -30 86q-31 32 -84 32q-46 0 -82 -33t-36 -85zM322 817q0 -46 30 -82q29 -35 72 -35q52 0 84 35t32 82q0 56 -31 87t-85 31q-45 0 -73.5 -32t-28.5 -86zM454 1608q0 -47 32 -82q32 -36 84 -36h512l118 118q0 53 -36 85q-36 33 -82 33
h-512q-54 0 -86 -32q-30 -31 -30 -86zM630 817q0 -43 37 -80t81 -37h510q54 0 84 35q32 37 32 82q0 56 -31 87t-85 31h-510q-46 0 -82 -33t-36 -85zM730 424q0 -44 32.5 -73t85.5 -29h762q46 0 82 30t36 72q0 53 -36 86q-35 32 -82 32h-762q-54 0 -86 -32t-32 -86z
M1082 1214q0 -43 36 -73q38 -31 81.5 -31t81 31t37.5 73q0 52 -36 84q-37 32 -82.5 32t-81.5 -32q-36 -31 -36 -84zM1288 1608q0 -45 32 -82q31 -36 84 -36h248q53 0 84.5 35t31.5 83q0 54 -30 86t-86 32h-248q-54 0 -86 -32q-30 -31 -30 -86zM1404 1214q0 -43 36 -73
q37 -31 82 -31h408q44 0 72 30q30 31 30 74q0 54 -28.5 85t-73.5 31h-408q-46 0 -82 -32t-36 -84zM1462 817q0 -43 37 -80t81 -37h262q42 0 72 36t30 81q0 54 -29 86t-73 32h-262q-46 0 -82 -33q-36 -32 -36 -85zM1828 424q0 -44 29 -73t73 -29q53 0 85.5 29t32.5 73
q0 54 -32 86t-86 32q-45 0 -73.5 -32t-28.5 -86z" />
</svg>