<svg xmlns="http://www.w3.org/2000/svg" xmlns:xlink="http://www.w3.org/1999/xlink" version="1.1" viewBox="-10 0 2068 2048">
   <path fill="currentColor"
d="M0 1023q0 -208 82 -397q80 -187 218.5 -326t325.5 -219q190 -81 398 -81q206 0 396 81q188 80 328 219q138 139 218 326q82 189 82 397t-82 398q-79 188 -218.5 327t-327.5 219q-190 81 -396 81q-208 0 -398 -81q-187 -80 -326 -219t-218 -327q-82 -190 -82 -398z
M110 1023q0 185 70 350q70 167 188 290q117 121 286 196q166 74 346 80q-234 -317 -234 -916q0 -258 62 -491q63 -237 178 -423q-247 5 -450 128q-207 125 -326 333q-120 208 -120 453z" />
</svg>