<svg xmlns="http://www.w3.org/2000/svg" xmlns:xlink="http://www.w3.org/1999/xlink" version="1.1" viewBox="-10 0 2058 2048">
   <path fill="currentColor"
d="M434 1198q-156 -333 48 -628q142 -206 439 -252q25 -7 50 -8h58q405 12 594 360q89 164 44 362q-37 160 -119 294q-178 277 -371 452q-12 12 -28 24q-67 49 -118 50q-54 2 -121 -42q-42 -24 -69 -54q-274 -279 -407 -558zM445 994q3 18 9 40q2 10 4.5 22t3.5 16
q39 174 161 272q119 95 302 114q40 4 48 -4q6 -6 8 -48q0 -2 -2 -14t-3 -22q-4 -30 -5 -36q-34 -186 -176 -272q-35 -20 -58 -30q-7 -4 -27 -13.5t-29 -12.5q-5 -2 -17 -6.5t-23.5 -9t-23.5 -8.5q-25 -10 -58 -24q-22 -9 -74 -10q-48 0 -40 46zM1075 1402q-3 42 5 50
q8 9 51 4q48 -5 111 -20q149 -37 243 -158q47 -57 72 -124q23 -61 44 -158q7 -32 -3 -44q-10 -11 -41 -6q-84 13 -147 36q-158 59 -243 162q-83 99 -92 258z" />
</svg>