<svg xmlns="http://www.w3.org/2000/svg" xmlns:xlink="http://www.w3.org/1999/xlink" version="1.1" viewBox="-10 0 2058 2048">
   <path fill="currentColor"
d="M168 880q0 22 15 34q14 14 36 14h889q23 0 39 16q17 18 17 41t-17 40t-39 17q-24 0 -41 -18q-17 -14 -34 -14q-21 0 -35 14t-14 34t15 34q46 46 109 46q62 0 107 -45t45 -109t-45 -109t-107 -45h-889q-21 0 -36 15t-15 35zM168 706q0 22 15 34q16 14 36 14h1180
q63 0 108 -45t45 -109q0 -62 -45 -107t-108 -45q-64 0 -108 44q-14 17 -14 36.5t14 33.5q13 14 35 14q18 0 35 -14q15 -16 38 -16q22 0 40 16q16 15 16 38q0 26 -16 42t-40 16h-1180q-21 0 -36 15t-15 33zM1302 1342q0 69 20 118q21 50 56 80q36 30 78 44q39 14 90 14
q67 0 120 -22q58 -24 90 -58q33 -36 60 -82q25 -44 39 -92q12 -42 19 -90q6 -38 6 -72q0 -126 -68 -192q-71 -70 -182 -70q-64 0 -122 30t-105 84q-48 56 -74 134q-27 79 -27 174zM1477 1346q0 -8 4 -48q3 -26 14 -72q10 -38 26 -76q15 -34 44 -58q30 -26 64 -26
q35 0 55 23.5t20 66.5q0 123 -43 210q-42 86 -105 86q-79 0 -79 -106z" />
</svg>