<svg xmlns="http://www.w3.org/2000/svg" xmlns:xlink="http://www.w3.org/1999/xlink" version="1.1" viewBox="-10 0 2058 2048">
   <path fill="currentColor"
d="M300 1193q0 -119 76 -215q74 -94 194 -121q30 -143 144 -236q113 -92 261 -92q144 0 259 89q114 88 148 229h23q93 0 173 47q81 47 125 125q45 79 45 174q0 141 -95 240t-235 104q-13 0 -13 -11v-94q0 -12 13 -12q90 -8 151 -72q62 -65 62 -155q0 -93 -66 -161
q-66 -67 -160 -67h-113q-12 0 -15 -12l-5 -40q-8 -76 -49 -135q-43 -62 -107 -95q-65 -34 -141 -34q-116 0 -199 76q-86 78 -96 190l-5 38q0 9 -11 9l-36 6q-88 8 -147 72q-60 66 -60 153q0 89 62 156t151 71q13 0 13 12v94q0 11 -13 11q-70 -3 -130 -31q-62 -28 -107 -74
q-46 -46 -71 -108q-26 -64 -26 -131zM677 1665q0 -1 2 -9q1 -4 1 -8l19 -72q8 -24 28 -36q21 -12 44 -5q24 8 36 28q13 23 6 45l-17 70q-14 46 -53 46h-7q-1 0 -3 -0.5t-4 -0.5t-4 -0.5t-3 -0.5q-22 -6 -33 -24q-12 -21 -12 -33zM769 1329q0 -5 1 -8t1 -6l21 -74
q5 -19 23 -31q14 -10 32 -10h6q1 0 3 0.5t3 0.5t3 1h3q24 7 35 27q12 22 5 45l-17 70q-8 29 -28 41q-21 12 -45 1q-21 -6 -34 -23q-12 -17 -12 -34zM855 1883q0 -5 1 -9l2 -8l20 -69q6 -25 28 -38q22 -12 45 -5t35 28q12 22 5 45l-18 73q-11 42 -55 42q-9 0 -17 -2
q-23 -5 -35 -22q-11 -17 -11 -35zM948 1550q0 -5 3 -17l19 -72q8 -24 28 -36q22 -13 46 -5q23 6 35 27q12 20 4 46l-17 69q-14 47 -50 47q-7 0 -22 -4q-23 -5 -34 -20q-12 -16 -12 -35zM1145 1667q0 -3 2 -17l19 -69q7 -25 29 -37q22 -13 44 -7q25 8 37 29t6 44l-20 74
q-10 42 -55 42q-6 0 -18 -2q-23 -5 -32 -21q-12 -21 -12 -36zM1241 1335q0 -3 3 -18l21 -72q5 -23 20 -33q16 -10 34 -9q9 0 17 2q21 4 36 27q12 19 5 45l-17 72q-13 45 -52 45q-9 0 -24 -4q-21 -6 -32 -22t-11 -33z" />
</svg>