<svg xmlns="http://www.w3.org/2000/svg" xmlns:xlink="http://www.w3.org/1999/xlink" version="1.1" viewBox="-10 0 2058 2048">
   <path fill="currentColor"
d="M158 880q0 22 16 34q14 14 36 14h888q24 0 40 16q16 18 16 41t-17 40t-39 17q-24 0 -40 -18q-18 -14 -34 -14q-22 0 -36 14t-14 34t16 34q46 46 108 46t107 -45t45 -109t-45 -109t-107 -45h-888q-22 0 -37 15t-15 35zM158 706q0 22 16 34q15 14 36 14h1180q62 0 107 -45
t45 -109q0 -62 -45 -107t-107 -45q-64 0 -108 44q-14 17 -14 36.5t14 33.5q12 14 34 14q18 0 36 -14q14 -16 38 -16q22 0 40 16q16 15 16 38q0 26 -16 42t-40 16h-1180q-22 0 -37 15t-15 33zM1304 1326q0 123 64 198q65 74 196 74q121 0 202 -74q78 -73 78 -194
q0 -84 -57 -135t-141 -51q-94 0 -146 64h-2q42 -150 142 -150q30 0 48 12q16 10 20 36h182q-2 -40 -18 -72q-15 -34 -36 -54q-24 -21 -54 -34t-64 -20q-34 -6 -68 -6q-82 0 -144 32q-65 32 -100 76q-36 45 -60 104q-23 52 -32 104q-10 48 -10 90zM1480 1366q0 -49 32 -72
q32 -26 70 -26q24 0 42 8q18 9 26 16q8 9 12 24q2 5 6 20v18q0 40 -27 67t-73 27q-39 0 -64 -24q-24 -22 -24 -58z" />
</svg>