<svg xmlns="http://www.w3.org/2000/svg" xmlns:xlink="http://www.w3.org/1999/xlink" version="1.1" viewBox="-10 0 2058 2048">
   <path fill="currentColor"
d="M417 1101q0 -121 49 -236q48 -111 129 -194q82 -83 194.5 -131t236.5 -48h98q20 6 20 23l3 75q5 162 118 279q113 116 274 122l71 5q20 0 20 20v85q2 125 -49 243h-171q64 -94 80 -211q-208 -43 -336 -181q-126 -137 -146 -320q-121 6 -222 75q-101 70 -156 173
q-55 104 -55 221q0 132 70 243h-177q-51 -119 -51 -243zM441 1603q0 -37 23 -57q22 -22 58 -22h220l260 -245q13 -11 29 0l264 245h231q33 0 57 23t24 56q0 34 -24 58t-57 24h-283q-12 0 -24 -6l-202 -190l-199 190q-10 6 -24 6h-272q-33 0 -57 -24t-24 -58z" />
</svg>