<svg xmlns="http://www.w3.org/2000/svg" xmlns:xlink="http://www.w3.org/1999/xlink" version="1.1" viewBox="-10 0 2058 2048">
   <path fill="currentColor"
d="M40 668q0 -138 99 -237t237 -99q136 0 234 99q98 100 98 237q0 138 -98 238q-99 100 -234 100q-138 0 -238 -100q-98 -99 -98 -238zM202 668q0 73 50 123q52 52 123 52t123 -52q52 -51 52 -123t-52 -122q-52 -51 -122 -51q-74 0 -124 50t-50 123zM1018 1940q0 41 28 69
t68 28t68 -28t28 -69v-699h528q42 0 70 -29t28 -70t-28 -69t-70 -28h-528v-503h706q40 0 66 -28t26 -69q0 -42 -26 -70q-25 -27 -66 -27h-880q-18 0 -18 21v1571z" />
</svg>