<svg xmlns="http://www.w3.org/2000/svg" xmlns:xlink="http://www.w3.org/1999/xlink" version="1.1" viewBox="-10 0 2058 2048">
   <path fill="currentColor"
d="M172 880q0 22 16 34q14 14 36 14h888q24 0 40 16q16 18 16 41t-17 40t-39 17q-24 0 -40 -18q-18 -14 -34 -14q-22 0 -36 14t-14 34t16 34q46 46 108 46t107 -45t45 -109t-45 -109t-107 -45h-888q-22 0 -37 15t-15 35zM172 706q0 22 16 34q15 14 36 14h1180q62 0 107 -45
t45 -109q0 -62 -45 -107t-107 -45q-64 0 -108 44q-14 17 -14 36.5t14 33.5q12 14 34 14q18 0 36 -14q14 -16 38 -16q22 0 40 16q16 15 16 38q0 26 -16 42t-40 16h-1180q-22 0 -37 15t-15 33zM1292 1416q3 50 24.5 87.5t57.5 56.5q37 21 76 30q41 8 90 8q72 0 132 -26
q57 -26 96 -70q36 -40 62 -96q24 -50 36 -106q10 -49 10 -98q0 -136 -70 -208q-69 -74 -184 -74q-121 0 -202 74q-84 73 -84 192q0 84 54 138t140 54q45 0 88 -18q45 -19 62 -46h2q-14 60 -48.5 103t-91.5 43q-37 0 -50 -8q-16 -13 -20 -36h-180zM1512 1170q0 -40 24 -70
q26 -30 74 -30q44 0 66 22q24 24 24 66q0 10 -6 26q-4 15 -14 32q-10 15 -32 26q-22 10 -48 10q-24 0 -46 -10q-18 -8 -28 -24q-7 -12 -10 -26q-4 -16 -4 -22z" />
</svg>