<svg xmlns="http://www.w3.org/2000/svg" xmlns:xlink="http://www.w3.org/1999/xlink" version="1.1" viewBox="-10 0 2058 2048">
   <path fill="currentColor"
d="M264 1192q0 139 97 239t237 106q12 0 12 -11v-94q0 -12 -12 -12q-88 -4 -152 -71q-62 -66 -62 -157q0 -86 58 -151q59 -64 146 -75l36 -2q14 0 14 -12l6 -38q10 -111 96 -189q84 -77 198 -77q112 0 198.5 77t97.5 189l6 41q0 11 12 11h112q94 0 161 67t67 159t-62 157
q-64 67 -152 71q-14 0 -14 12v94q0 11 14 11q138 -4 234 -105q98 -102 98 -240q0 -90 -46 -168q83 -78 108 -182l10 -48q2 -2 2 -5q0 -8 -12 -11l-40 -12q-60 -18 -100 -59q-42 -42 -60 -87q-18 -42 -18 -91q0 -30 6 -55l10 -41q3 -9 -10 -15l-56 -17q-42 -13 -92 -13
q-41 0 -76 8q-41 9 -80.5 27.5t-81.5 56.5q-41 36 -70 85q-77 -34 -166 -34q-147 0 -261.5 92t-146.5 234q-116 27 -191 120t-75 215zM646 1682q8 22 32 31q20 11 42 2q24 -9 32 -31q11 -22 2 -45q-9 -22 -32 -31q-20 -10 -42 -1q-21 8 -32 32q-11 17 -2 43zM690 1484
q0 16 10 32q12 16 32 22q28 11 48 0t28 -40l60 -223q8 -24 -6 -47q-12 -22 -36 -26q-23 -7 -44 5t-28 35l-62 224q0 1 -2 9v9zM820 1873.5q0 14.5 4 21.5q8 22 30 31q12 5 24 5q7 0 20 -4q24 -9 34.5 -31t-0.5 -46q-11 -23 -31.5 -32t-42.5 0q-21 10 -30 25q-8 16 -8 30.5z
M872 1690q0 39 44 54q10 3 16 3q12 0 24 -6q24 -9 32 -40l116 -426q6 -26 -6 -45q-11 -21 -34 -28q-24 -7 -46 5q-22 13 -28 35l-116 430q-2 8 -2 18zM1110 1661q0 11 6 21q9 21 30 31q13 5 24 5q8 0 22 -4q21 -9 30 -30t0 -44q-7 -21 -28 -32q-24 -11 -46 -2t-32 33
q-6 10 -6 22zM1162 1482q0 18 10 32q11 16 32 22q5 0 9.5 0.5t6.5 1l2 0.5q43 0 54 -43l60 -220q7 -26 -4 -45q-12 -21 -36 -28q-22 -7 -44 5q-20 12 -28 35l-62 221v19zM1206 629q35 -62 90 -92q58 -31 122 -31q10 0 18 2v21q0 100 56 192q54 91 150 136q-18 43 -52 74
q-93 -82 -226 -82h-22q-27 -130 -136 -220z" />
</svg>