<svg xmlns="http://www.w3.org/2000/svg" xmlns:xlink="http://www.w3.org/1999/xlink" version="1.1" viewBox="-10 0 2068 2048">
   <path fill="currentColor"
d="M0 1025q0 -210 82 -399q81 -191 217.5 -327t326.5 -218q190 -81 398 -81t398 81q190 82 326.5 218t217.5 327q82 189 82 399q0 208 -82 397q-81 191 -217.5 327t-326.5 218q-190 81 -398 81t-398 -81q-190 -82 -326.5 -218t-217.5 -327q-82 -189 -82 -397zM490 1023
q0 639 404 907q60 9 130 9q183 0 354 -73q169 -72 292.5 -195t195.5 -292q72 -172 72 -354q0 -247 -122 -459q-123 -211 -334 -334q-212 -123 -458 -123q-70 0 -108 5q-191 146 -308 382q-118 238 -118 527z" />
</svg>