<svg xmlns="http://www.w3.org/2000/svg" xmlns:xlink="http://www.w3.org/1999/xlink" version="1.1" viewBox="-10 0 2058 2048">
   <path fill="currentColor"
d="M300 1189q0 140 97 240t237 106q12 0 12 -11v-94q0 -12 -12 -12q-88 -4 -152 -71q-62 -66 -62 -158q0 -86 58 -151q59 -64 148 -75l36 -2q14 0 14 -12l4 -38q11 -112 96 -189q83 -76 198 -76q116 0 200.5 76t97.5 189l4 40q0 12 12 12h114q94 0 160 67q68 68 68 159
q0 92 -62 158q-64 67 -154 71q-12 0 -12 12v94q0 11 12 11q94 -3 168 -50q79 -50 122 -125q44 -79 44 -171q0 -94 -46.5 -173t-125.5 -124q-82 -46 -174 -46h-24q-34 -139 -146.5 -229t-257.5 -90q-146 0 -260 92q-114 91 -148 234q-115 27 -190 122q-76 95 -76 214z
M786 1296q0 24 16 41l180 182q14 16 40 16q30 0 44 -16l180 -182q16 -19 16 -41q0 -24 -16 -41q-16 -16 -42 -16q-25 0 -42 16l-80 77v-277q0 -26 -16 -42q-18 -16 -44 -16q-24 0 -40 16t-16 42v277l-78 -77q-17 -16 -42 -16q-28 0 -44 16q-16 17 -16 41z" />
</svg>