<svg xmlns="http://www.w3.org/2000/svg" xmlns:xlink="http://www.w3.org/1999/xlink" version="1.1" viewBox="-10 0 2067 2048">
   <path fill="currentColor"
d="M1 1024q0 -205 82 -398q81 -189 218 -326q136 -137 327 -218q189 -82 396 -82q208 0 397 82q192 82 326 218q138 140 218 326q82 193 82 398q0 207 -82 400q-80 187 -219 324q-138 137 -326 218q-189 80 -396 80q-209 0 -398 -80q-193 -83 -327 -218q-136 -138 -217 -326
q-81 -190 -81 -398zM227 1024q0 326 237 564q235 234 560 234q217 0 400 -106q184 -108 292 -292q108 -185 108 -399.5t-108 -398.5q-107 -183 -292 -292q-183 -106 -400 -106q-218 0 -399 106q-184 109 -291 292q-107 182 -107 398zM556 1024q0 -11 15 -12l798 -342
q15 -7 22 2q6 7 0 20l-118 320q-9 13 0 26l118 316q7 15 0 22q-7 6 -22 0l-798 -338q-15 -1 -15 -14z" />
</svg>