<svg xmlns="http://www.w3.org/2000/svg" xmlns:xlink="http://www.w3.org/1999/xlink" version="1.1" viewBox="-10 0 2058 2048">
   <path fill="currentColor"
d="M303 1093q0 -24 16 -39q18 -16 40 -16h842q22 0 38 16q15 15 15 39q0 23 -15 38t-38 15h-842q-23 0 -40 -15q-16 -15 -16 -38zM471 891q0 -23 17 -38q16 -16 39 -16h842q22 0 38 16q15 15 15 38t-15 39t-38 16h-842q-23 0 -39 -16q-17 -17 -17 -39zM584 1291
q0 -23 17 -38q15 -15 38 -15h843q24 0 39 15t15 38t-16 39q-17 17 -38 17h-843q-22 0 -39 -17q-16 -16 -16 -39zM1321 1093q0 -24 15 -39q16 -16 40 -16h315q23 0 39 16q15 15 15 39q0 23 -15 38t-39 15h-315q-25 0 -40 -15t-15 -38z" />
</svg>