<svg xmlns="http://www.w3.org/2000/svg" xmlns:xlink="http://www.w3.org/1999/xlink" version="1.1" viewBox="-10 0 2058 2048">
   <path fill="currentColor"
d="M284 825q0 -72 70 -188q69 -115 134 -193q4 -5 19.5 -22.5t24.5 -28.5q23 -27 30 -34l68 80q76 85 140 198q66 113 66 188q0 115 -79.5 197t-194 82t-196.5 -82t-82 -197zM864 1597q0 -80 44 -187q47 -110 112 -198q130 -174 244 -284q16 -12 48 -45l48 45
q104 99 244 282q70 93 116 201q44 103 44 186q0 192 -130 321q-131 130 -322 130q-188 0 -318 -132q-130 -131 -130 -319zM1146 315q0 -120 186 -315l46 52q53 62 94 137q42 77 42 126q0 77 -52 128q-54 52 -130 52q-80 0 -134 -52q-52 -51 -52 -128z" />
</svg>