<svg xmlns="http://www.w3.org/2000/svg" xmlns:xlink="http://www.w3.org/1999/xlink" version="1.1" viewBox="-10 0 2068 2048">
   <path fill="currentColor"
d="M0 982v-30q0 -15 10 -24q11 -9 24 -9h722q14 0 24 9q10 8 10 24v30q0 16 -10 24q-10 9 -24 9h-42v157h202q2 -39 33.5 -67t70.5 -28t70 28q31 27 34 67h126v-323q-23 -2 -34 -15q-14 -16 -14 -35v-30q0 -20 16 -36q14 -15 36 -15h190q20 0 35 15t15 36v30q0 21 -12 35
q-13 13 -32 15v323h148q38 0 66 29q28 28 28 68v278l356 463h-452v-289h-68q16 38 16 80q0 87 -61 148t-148 61t-148 -61t-61 -148q0 -43 14 -80h-96q18 40 18 80q0 86 -62 148q-62 61 -150 61q-86 0 -147 -61t-61 -148q0 -43 14 -80h-112q18 43 18 80q0 86 -62 148
q-62 61 -148 61q-88 0 -149 -61t-61 -148q0 -43 16 -81q-37 -6 -58 -32q-24 -28 -24 -62v-82h-2v-529h-40q-13 0 -24 -9q-10 -9 -10 -24zM196 1358q0 29 22 51q20 21 50 21h138q30 0 52 -21q20 -20 20 -51v-219q0 -29 -21 -50t-51 -21h-138q-30 0 -50 21q-22 22 -22 50v219z
M1098 293q0 59 44 99q0 29 26 64q25 36 52 42q6 30 30 54q22 21 56 29q-14 15 -14 37q0 27 17 44t43 17t44 -18t18 -43q0 -1 -2 -9q-2 -4 -2 -9h4q31 0 52 -22q20 -22 20 -53q0 -14 -12 -35q25 -13 40 -45h42q57 -5 96 -44q40 -40 40 -96q0 -49 -30.5 -86t-79.5 -49
q-13 -58 -58 -94q-49 -38 -108 -38q-58 0 -102 36q-44 35 -60 93h-10q-60 0 -102 37q-44 38 -44 89z" />
</svg>