<svg xmlns="http://www.w3.org/2000/svg" xmlns:xlink="http://www.w3.org/1999/xlink" version="1.1" viewBox="-10 0 2058 2048">
   <path fill="currentColor"
d="M326 1094q0 -27 18 -46q17 -20 44.5 -20t45.5 20q18 19 18 46q0 24 -19 43t-45 19t-44 -18t-18 -44zM508 1094q0 -27 18 -46q18 -20 46 -20h298l-212 -210q-18 -18 -18 -44q0 -28 19 -47t45 -19t46 20l210 210v-298q0 -26 19 -45t45 -19q27 0 44 18q20 21 20 46v300
l212 -212q18 -20 44 -20t46 20q16 18 16 46q0 26 -16 44l-212 210h300q25 0 42 20q20 20 20 46q0 24 -19 43t-43 19h-300l212 212q16 18 16 44t-16 44q-20 20 -46 20t-44 -20l-212 -212v300q0 28 -20 46q-18 18 -44 18t-46 -18q-18 -17 -18 -46v-298l-210 210q-20 20 -46 20
t-45 -19t-19 -45t18 -44l214 -212h-300q-26 0 -46 -18q-18 -18 -18 -44zM510 1542q0 -26 20 -44q17 -20 44 -20q26 0 45 19t19 45t-19 45t-45 19q-27 0 -44 -18q-20 -20 -20 -46zM510 642q0 -26 20 -44q17 -20 44 -20q26 0 45 19t19 45t-19 45t-45 19q-27 0 -44 -18
q-20 -20 -20 -46zM960 1728q0 -26 18 -44q21 -18 46 -18q26 0 45 19t19 43q0 26 -19 45t-45 19q-25 0 -46 -18q-18 -18 -18 -46zM960 456q0 -27 18 -44q21 -20 46 -20q26 0 45 19t19 45t-19 45t-45 19q-25 0 -46 -20q-18 -17 -18 -44zM1410 1542q0 -26 20 -44q17 -20 44 -20
q26 0 45 19t19 45t-19 45t-45 19q-27 0 -44 -18q-20 -20 -20 -46zM1410 642q0 -26 20 -44q17 -20 44 -20q26 0 45 19t19 45t-19 45t-45 19q-27 0 -44 -18q-20 -20 -20 -46zM1596 1094q0 -27 18 -46q18 -20 46 -20q27 0 44 20q18 19 18 46q0 26 -18 44t-44 18t-46 -18
q-18 -18 -18 -44z" />
</svg>