<svg xmlns="http://www.w3.org/2000/svg" xmlns:xlink="http://www.w3.org/1999/xlink" version="1.1" viewBox="-10 0 2058 2048">
   <path fill="currentColor"
d="M195 1196q0 25 20 43q16 19 43 19h1024q29 0 50 21t21 52t-20 50q-22 20 -51 20q-32 0 -51 -20q-17 -19 -42 -19q-27 0 -45 18q-19 19 -19 43q0 26 20 44q59 57 137 57q80 0 139 -56q58 -55 58 -137t-58 -140t-139 -58h-1024q-26 0 -44 18q-19 19 -19 45zM195 967
q0 24 20 42q19 19 43 19h1396q82 0 140 -57q59 -57 59 -137q0 -82 -59 -139q-58 -57 -140 -57q-80 0 -135 55q-19 16 -19 47q0 26 18 43q19 17 44 17q24 0 43 -17q19 -21 49 -21t51 21t21 51q0 29 -21 50q-20 20 -51 20h-1396q-25 0 -44 19t-19 44zM305 1449q0 26 17 41
q17 17 40 17q24 0 43 -17q18 -16 18 -41q0 -23 -18 -41t-43 -18q-24 0 -40 18q-17 19 -17 41zM371 757q0 26 17 41q17 17 40 17q24 0 43 -17q17 -16 17 -41q0 -24 -17 -41t-43 -17q-24 0 -40 17q-17 19 -17 41zM582 597q0 25 17 40q17 17 40 17q26 0 43 -16q18 -16 18 -41
q0 -24 -18 -42q-17 -17 -43 -17q-24 0 -40 17q-17 19 -17 42zM588 1405q0 23 18 40q17 17 40 17q26 0 43 -16t17 -41q0 -24 -18 -42q-17 -17 -42 -17t-41 17q-17 19 -17 42zM879 720q0 26 17 41q17 17 41 17t43 -17q17 -16 17 -41q0 -24 -17 -41q-18 -18 -43 -18t-41 18
q-17 19 -17 41zM901 1486q0 23 18 40q17 17 40 17q26 0 43 -16q18 -17 18 -41t-18 -42q-17 -17 -43 -17q-25 0 -41 17q-17 19 -17 42zM1214 709q0 25 17 40q17 17 40 17q26 0 43 -16q18 -16 18 -41q0 -24 -18 -42q-17 -17 -43 -17q-23 0 -40 17t-17 42zM1568 1201
q0 25 17 40q17 17 41 17q25 0 42 -16q18 -17 18 -41t-18 -42q-17 -17 -42 -17t-41 17q-17 19 -17 42z" />
</svg>