<svg xmlns="http://www.w3.org/2000/svg" xmlns:xlink="http://www.w3.org/1999/xlink" version="1.1" viewBox="-10 0 2058 2048">
   <path fill="currentColor"
d="M60 663q0 -138 99 -237t237 -99q137 0 234 99q98 100 98 237t-98 237q-97 99 -234 99q-138 0 -237 -99t-99 -237zM223 663q0 73 50 123q52 52 123 52t123 -52q51 -51 51 -123t-51 -123q-52 -52 -123 -52q-73 0 -123 51q-50 52 -50 124zM941 1480q0 213 117 379
q64 87 172 138q110 51 247 51q405 0 507 -308q11 -40 -11 -76q-20 -34 -62 -42q-39 -10 -73.5 12t-43.5 62q0 3 -3 10q-1 4 -2 7.5t-2 5.5q-31 52 -83 83q-86 52 -227 52q-86 0 -154 -30q-110 -46 -157 -164q-31 -75 -31 -180v-596q0 -36 5 -83q11 -104 83 -192
q81 -97 254 -97q144 0 227 50q55 33 83 84q1 1 2 6t2 8q3 9 3 11q11 40 43 57q33 18 74 9q42 -9 62 -42q21 -35 11 -74v-1l-15 -44q-13 -30 -51 -79q-39 -50 -84 -82q-56 -42 -152 -69q-98 -28 -205 -28q-139 0 -248 50q-110 51 -169 134q-119 164 -119 382v596z" />
</svg>