<svg xmlns="http://www.w3.org/2000/svg" xmlns:xlink="http://www.w3.org/1999/xlink" version="1.1" viewBox="-10 0 2058 2048">
   <path fill="currentColor"
d="M263 1192q0 139 97 239t237 106q11 0 11 -11v-96q0 -12 -11 -12q-91 -8 -153 -72q-62 -65 -62 -154q0 -86 59 -151q57 -63 146 -74l36 -5q14 0 14 -12l5 -36q10 -111 96 -189q83 -76 198 -76q114 0 199 76q84 75 96 189l6 41q0 12 12 12h112q95 0 162 66t67 159
q0 89 -62 154q-62 64 -153 72q-14 0 -14 12v96q0 11 14 11q139 -4 235 -105q97 -102 97 -240q0 -91 -45 -169q84 -75 110 -183v-9l13 -55l-53 -14q-85 -25 -132 -95t-47 -141q0 -27 6 -54l14 -56l-60 -17l-9 -3q-47 -10 -87 -10q-39 0 -79 9q-38 9 -84 29q-42 19 -84 56
q-37 33 -69 86q-77 -34 -165 -34q-148 0 -261 91q-114 91 -144 234q-118 27 -193 120t-75 215zM639 1663q0 15 11 31q12 17 31 24q23 8 44 -4q22 -12 29 -36l20 -73q8 -22 -5 -44q-12 -20 -36 -28q-24 -6 -45 6q-22 12 -29 37l-17 69q-3 17 -3 18zM729 1333q0 12 7 25
q7 18 38 27q26 6 45 -4q21 -11 28 -36l20 -72q7 -23 -5 -45q-12 -21 -36 -27q-26 -6 -46 5q-21 12 -28 36l-19 71q-4 13 -4 20zM817 1881q0 18 10 34q11 17 32 23q14 4 16 4q8 0 26 -8q21 -9 30 -38l21 -73q7 -22 -5 -44t-36 -29q-25 -6 -46 6q-22 12 -29 37l-17 70
q-2 12 -2 18zM909 1548q0 15 11 31q12 17 32 24q22 7 44 -4q20 -10 28 -37l19 -72q8 -23 -4 -44t-34 -28q-25 -6 -48 6q-21 11 -29 37l-17 70zM1105 1671q0 39 44 52q12 2 17 2q16 0 25 -4q22 -9 31 -40l19 -71q6 -27 -5 -47q-12 -22 -37 -26q-23 -7 -45 5q-20 12 -28 36
l-19 72q0 5 -1 10t-1 11zM1201 1335q0 16 11 32q12 17 32 23q15 3 17 3q11 0 26 -7q22 -9 31 -39l19 -72q6 -23 -6 -44t-37 -28q-22 -7 -44 5q-20 12 -28 36l-18 74q-3 12 -3 17zM1204 627q32 -57 92 -91q58 -33 127 -33h14q0 2 -0.5 11t-0.5 15q0 97 55 189q54 90 151 137
q-22 44 -54 76q-98 -84 -227 -84h-22q-26 -124 -135 -220z" />
</svg>