<svg xmlns="http://www.w3.org/2000/svg" xmlns:xlink="http://www.w3.org/1999/xlink" version="1.1" viewBox="-10 0 2068 2048">
   <path fill="currentColor"
d="M0 1166q0 30 24 53q22 24 54 24h1264q36 0 62 26t26 64q0 37 -24 61q-27 25 -64 25q-38 0 -62 -25q-22 -23 -52 -23q-32 0 -55 23t-23 52q0 32 24 54q72 71 168 71q100 0 172 -69t72 -169t-72 -172q-72 -73 -172 -73h-1264q-32 0 -55 23t-23 55zM0 883q0 31 24 53
q22 22 54 22h1724q102 0 174 -70q72 -71 72 -169q0 -101 -72 -171q-73 -71 -174 -71q-100 0 -168 68q-22 20 -22 58q0 33 22 54t53.5 21t54.5 -21q24 -27 60 -27t62 26t26 63q0 36 -26 62q-24 25 -62 25h-1724q-32 0 -55 23t-23 54z" />
</svg>