<svg xmlns="http://www.w3.org/2000/svg" xmlns:xlink="http://www.w3.org/1999/xlink" version="1.1" viewBox="-10 0 2058 2048">
   <path fill="currentColor"
d="M89 1193q0 92 44 168q45 78 122 125q76 46 167 49q12 0 12 -11v-93q0 -13 -12 -13q-89 -5 -152 -71t-63 -154q0 -85 59 -150q58 -64 146 -75l37 -4q12 0 12 -13l5 -35q10 -113 95 -190q83 -76 199 -76q113 0 198 76q87 78 97 188l5 41q0 11 12 11h112q95 0 161 67t66 160
q0 88 -63 154q-64 67 -151 71q-13 0 -13 13v93q0 11 13 11q140 -5 235 -104q97 -102 97 -238q0 -79 -30 -142q82 -98 82 -230q0 -99 -49 -182q-49 -84 -133 -133q-83 -49 -182 -49q-161 0 -270 121q-85 -45 -187 -45q-148 0 -261 91q-115 92 -146 233q-116 28 -190 122
t-74 214zM531 1475q0 24 17 43q16 17 41 17q24 0 40 -17q17 -19 17 -43q0 -23 -17 -40t-40 -17q-24 0 -41 17t-17 40zM531 1728q0 21 17 40q19 17 41 17q25 0 41 -16t16 -41q0 -24 -17 -41q-16 -16 -40 -16q-25 0 -41 16q-17 17 -17 41zM673 339q0 26 17 41l46 46
q18 18 37 18q21 3 43 -16q21 -18 21 -44q0 -24 -17 -44l-45 -43q-14 -17 -40 -17q-27 0 -44 17q-18 18 -18 42zM752 1609q0 23 17 42q17 17 41 17q23 0 42 -17q17 -16 17 -42q0 -24 -17 -41q-18 -18 -42 -18t-41 18q-17 19 -17 41zM752 1358q0 24 17 41t41 17q23 0 42 -17
q17 -16 17 -41t-17 -41q-19 -17 -42 -17q-24 0 -41 17t-17 41zM752 1864q0 23 17 40t41 17q25 0 42 -16t17 -41t-17 -42q-18 -18 -42 -18q-22 0 -40 18t-18 42zM977 1475q0 24 17 43q16 17 41 17t41 -17q17 -19 17 -43q0 -23 -17 -40t-41 -17t-41 17t-17 40zM977 1728
q0 23 16 40q19 17 42 17q25 0 41 -16q17 -17 17 -41t-17 -41q-16 -16 -41 -16t-41 16q-17 17 -17 41zM1045 644q72 -69 172 -69t173 73q72 72 72 173q0 65 -36 128q-100 -100 -242 -100h-22q-30 -121 -117 -205zM1157 281q0 25 17 41t43 16q25 0 41 -16t16 -41v-142
q0 -24 -17 -43q-16 -17 -40 -17t-42 18t-18 42v142zM1541 439q0 25 17 41q15 16 39 18q23 2 43 -18l100 -100q19 -19 19 -42q0 -25 -18 -43q-17 -17 -42 -17q-24 0 -41 17l-100 102q-17 16 -17 42zM1597 1261q0 26 17 43l44 44q26 17 44 17q21 0 39 -18t18 -43
q0 -23 -19 -40l-43 -45q-19 -17 -42 -17q-25 0 -41 17q-17 19 -17 42zM1697 821q0 25 18 41q18 19 44 19h141q24 0 41 -17q18 -18 18 -43q0 -24 -18 -42q-17 -17 -41 -17h-141q-26 0 -44 18t-18 41z" />
</svg>