<svg xmlns="http://www.w3.org/2000/svg" xmlns:xlink="http://www.w3.org/1999/xlink" version="1.1" viewBox="-10 0 2058 2048">
   <path fill="currentColor"
d="M552 1576q0 -116 56 -220q53 -100 152 -170v-920q0 -111 76 -188q76 -78 188.5 -78t187.5 78q78 78 78 188v920q98 69 152 170q54 103 54 220q0 130 -64 238q-63 109 -170 172q-108 62 -237 62t-237 -62q-109 -64 -172 -172q-64 -108 -64 -238zM714 1576q0 130 92 222
t218 92q130 0 222 -94q94 -94 94 -220q0 -86 -44 -160q-46 -74 -122 -114l-26 -12q-14 -7 -14 -28v-996q0 -45 -32 -74q-30 -30 -78 -30q-46 0 -76 30q-32 30 -32 74v996q0 22 -14 28l-24 12q-78 41 -120 114q-44 72 -44 160zM786 1576q0 100 68 170q68 68 164 68t166 -70
t70 -168q0 -86 -60 -154q-60 -67 -146 -80v-680q0 -8 -9 -17t-21 -9t-20 8q-6 6 -6 18v680q-86 12 -146 80q-60 67 -60 154z" />
</svg>