<svg xmlns="http://www.w3.org/2000/svg" xmlns:xlink="http://www.w3.org/1999/xlink" version="1.1" viewBox="-10 0 2062 2048">
   <path fill="currentColor"
d="M6 1024q0 -209 80 -396q82 -189 218 -324q139 -137 322 -216q188 -82 396 -82t396.5 81t324.5 217t217.5 325t81.5 395t-82 396q-81 190 -216 326q-136 136 -326 216q-186 80 -396 80q-207 0 -394 -80q-188 -80 -324 -216t-217 -325t-81 -397zM230 1024q0 215 106 398
q107 183 290 288q184 106 396 106q162 0 308 -64q149 -63 254 -168q108 -108 170 -254q64 -146 64 -306q0 -323 -236 -560q-236 -234 -560 -234q-158 0 -308 64q-145 62 -252 170q-107 105 -169.5 252.5t-62.5 307.5zM504 1014q0 -12 14 -18l306 -138q13 -7 20 -20l136 -304
q12 -16 22 -16t14 16l330 802q2 15 -3.5 20.5t-20.5 3.5l-804 -330q-14 -4 -14 -16z" />
</svg>