<svg xmlns="http://www.w3.org/2000/svg" xmlns:xlink="http://www.w3.org/1999/xlink" version="1.1" viewBox="-10 0 2068 2048">
   <path fill="currentColor"
d="M0 1025q0 -210 82 -399q81 -191 217.5 -327t326.5 -218q190 -81 398 -81t398 81q190 82 326.5 218t217.5 327q82 189 82 399q0 208 -82 397q-81 191 -217.5 327t-326.5 218q-190 81 -398 81t-398 -81q-190 -82 -326.5 -218t-217.5 -327q-82 -189 -82 -397zM244 1025
q0 103 14 195t52 190q40 103 102 184q65 85 170 169q106 85 252 156q93 20 190 20q183 0 354 -73q169 -72 292.5 -195t195.5 -292q72 -172 72 -354q0 -247 -122 -459q-123 -211 -334 -334q-212 -123 -458 -123q-116 0 -210 24q-122 58 -214 124q-95 69 -154 141
q-60 74 -102 147q-41 73 -62 158q-20 76 -30 159q-8 75 -8 163z" />
</svg>