<svg xmlns="http://www.w3.org/2000/svg" xmlns:xlink="http://www.w3.org/1999/xlink" version="1.1" viewBox="-10 0 2058 2048">
   <path fill="currentColor"
d="M274 1188q0 113 70 207q68 92 180 125l-46 116q-4 14 10 14h148l-80 285h20l284 -383q5 -4 2 -9q-4 -6 -10 -6h-152l172 -325q7 -15 -10 -15h-206q-10 0 -12 10l-78 204q-74 -19 -123 -81.5t-49 -141.5q0 -88 58 -153q60 -65 148 -73l36 -4q14 0 14 -12l4 -36
q11 -112 96 -190q84 -76 200 -76q114 0 198 76q87 77 98 190l4 41q0 11 14 11h112q93 0 162 67q68 66 68 159q0 89 -63.5 155t-152.5 72q-14 0 -14 13v96q0 11 14 11q139 -5 236 -105q96 -101 96 -242q0 -75 -28 -139q80 -106 80 -230q0 -75 -30 -142q-31 -68 -78 -116
q-50 -49 -118 -78t-142 -29q-77 0 -146 31q-72 32 -122 87q-86 -45 -188 -45q-149 0 -262 91q-115 92 -148 235q-116 27 -190 121q-76 94 -76 214zM844 1876q0 16 10 35q11 17 32 22h6q2 0 4 0.5t4 0.5h4q46 -3 56 -42l20 -74q7 -23 -6 -44q-11 -20 -36 -28q-23 -6 -44 6
q-22 12 -30 37l-16 70zM938 1543q0 16 10 32q11 15 32 23q24 8 44 -4q21 -12 28 -36l22 -73q6 -26 -6 -47t-38 -25q-24 -8 -44 4q-22 12 -30 37l-16 72l-1 2t-1 3v3.5v3.5v5zM1134 1656q0 19 12 36q10 17 32 23q17 3 20 3q40 0 52 -42l18 -73q7 -22 -4 -44t-34 -29
q-27 -6 -48.5 6t-25.5 37l-20 69q-2 3 -2 14zM1230 1326q0 16 10 33q10 15 34 23l18 2q15 0 26 -5q20 -10 28 -37l20 -73q7 -23 -6 -44q-11 -20 -36 -28q-24 -7 -46 5q-20 12 -28 37l-18 71q-2 12 -2 16zM1236 639q71 -67 170 -67q102 0 176 73q70 71 70 174q0 66 -34 124
q-102 -100 -242 -100h-22q-32 -121 -118 -204z" />
</svg>