<svg xmlns="http://www.w3.org/2000/svg" xmlns:xlink="http://www.w3.org/1999/xlink" version="1.1" viewBox="-10 0 2058 2048">
   <path fill="currentColor"
d="M301 1192q0 116 69 207q69 92 180 125l-46 117q-3 15 10 15h148l-68 299h19l273 -400q5 -5 1 -10q-3 -4 -10 -4h-152l173 -324q8 -15 -10 -15h-205q-10 0 -16 11l-75 200q-73 -19 -123 -81q-49 -61 -49 -140q0 -86 59 -151q58 -64 147 -75l36 -4q14 0 14 -13l4 -35
q10 -111 96 -189q85 -77 199 -77q113 0 199 77q85 76 97 189l5 41q0 11 12 11h112q93 0 162 67q67 66 67 159q0 89 -62 154q-61 64 -153 72q-14 0 -14 12v96q0 11 14 11q138 -4 236 -105q97 -100 97 -240q0 -94 -47 -174q-46 -78 -126 -125q-79 -46 -174 -46h-22
q-34 -139 -147 -228q-112 -88 -256 -88q-147 0 -262 92t-146 234q-116 27 -191 120t-75 215zM868 1869q0 41 41 53q4 0 8 1t10 1q18 0 34 -10t22 -34l157 -605q6 -24 -5 -45q-10 -21 -34 -28l-18 -2q-16 0 -33 11q-16 10 -22 31l-158 608q-2 12 -2 19zM1158 1655q0 15 7 26
q16 24 35 31q10 3 21 3q9 0 22 -5q22 -10 30 -40l100 -395q3 -15 3 -19q0 -16 -11 -32t-32 -22l-18 -2q-19 0 -33 10q-15 10 -21 32l-101 397q0 4 -1 8t-1 8z" />
</svg>