<svg xmlns="http://www.w3.org/2000/svg" xmlns:xlink="http://www.w3.org/1999/xlink" version="1.1" viewBox="-10 0 2058 2048">
   <path fill="currentColor"
d="M274 1197v-1q0 -122 75 -216q74 -94 191 -121q31 -142 147 -235q115 -92 263 -92q102 0 189 46q54 -57 123 -88t146 -31q100 0 183 49q84 50 134 134q49 83 49 184q0 129 -79 229q30 65 30 141q0 92 -45 170q-46 80 -121 127t-168 50q-14 0 -14 -12v-94q0 -12 14 -12
q88 -4 151 -72q63 -67 63 -157q0 -94 -68 -160q-67 -66 -160 -66h-112q-13 0 -13 -13l-5 -41q-12 -113 -98 -190q-85 -76 -199 -76q-117 0 -200 76q-84 77 -95 190l-6 41q-3 10 -15 10l-35 3q-88 10 -147 74t-59 152v2l2 2q0 87 62 154q34 34 64 47v1q39 21 87 24
q11 0 11 11v94q0 12 -11 12q-50 -3 -100 -21q-77 -25 -137 -86q-58 -59 -82 -139q-15 -50 -15 -100zM657 1697q0 -1 2 -9q1 -4 1 -9l6 -40q8 -26 29 -38t47 -6q22 7 35 29q12 22 5 44l-10 42q-10 45 -53 45h-10q-5 -1 -9 -1q-21 -6 -32 -23t-11 -34zM709 1491q0 -25 16 -41
q17 -17 41 -17t41 17t17 41q0 23 -17 40t-41 17q-25 0 -40 -17q-17 -16 -17 -40zM823 1908q0 -4 3 -16l9 -41q7 -22 29 -35q21 -12 43 -5q25 5 37 26t6 47l-9 41q-10 43 -56 43q-5 0 -17 -3q-23 -6 -34 -23t-11 -34zM878 1705q0 -24 16 -40t41 -16q26 0 42 16t16 40
q0 25 -16 41q-17 17 -42 17q-23 0 -40 -17t-17 -41zM921 1547q0 -6 2 -18l16 -63q7 -25 28 -37t45 -6q25 7 37 28q12 22 5 44l-19 63q-9 29 -28 39t-45 4q-20 -4 -31 -21q-11 -18 -10 -33zM1114 1697q0 -6 1 -10t1 -8l6 -40q8 -26 29 -38t47 -6q24 7 36 29q12 21 4 44l-9 42
q-11 45 -53 45h-11q-5 -1 -9 -1q-21 -6 -32 -23q-10 -16 -10 -34zM1165 1491q0 -24 17 -41t41 -17t41 17q16 16 16 41q0 24 -16 40q-17 17 -41 17q-26 0 -41 -17q-17 -15 -17 -40zM1237 648q89 81 118 203h22q144 0 245 101q32 -55 32 -126q0 -102 -72 -174t-174 -72
q-100 0 -171 68z" />
</svg>