<svg xmlns="http://www.w3.org/2000/svg" xmlns:xlink="http://www.w3.org/1999/xlink" version="1.1" viewBox="-10 0 2058 2048">
   <path fill="currentColor"
d="M264 1189q0 117 68 208q69 91 180 124l-46 118q-2 14 12 14h146l-68 244h20l274 -344q4 -5 0 -10q-3 -5 -10 -5h-152l172 -323q8 -15 -8 -15h-206q-11 0 -16 10l-74 201q-75 -19 -124.5 -81.5t-49.5 -140.5q0 -86 60 -151q58 -64 146 -75l36 -5q14 0 14 -12l6 -36
q10 -111 96 -189q84 -77 198 -77q112 0 198 77q88 78 100 189l4 41q0 12 12 12h114q93 0 160 66q68 66 68 160q0 88 -62 154q-63 66 -154 73q-12 0 -12 12v96q0 12 12 12q91 -3 168 -50t122 -126q44 -79 44 -171q0 -89 -46 -170q82 -79 108 -183l10 -51v-5q0 -7 -10 -10
l-40 -13q-60 -17 -102 -57q-41 -40 -60 -86q-18 -45 -18 -92q0 -26 6 -55l10 -43q5 -10 -10 -16q-22 -9 -62 -18q-45 -10 -80 -10q-34 0 -78 10q-41 9 -84 28q-42 19 -82 55q-39 34 -70 86q-87 -32 -166 -32q-147 0 -262 92q-114 91 -146 234q-117 27 -192 121
q-74 94 -74 215zM828 1874q0 18 10 32q10 15 30 21q14 2 22 2q42 0 52 -44l162 -612q6 -26 -6 -46q-12 -22 -34 -27q-25 -8 -46 4q-22 13 -28 35l-160 616q-2 12 -2 19zM1118 1663q0 18 10 32q12 17 32 22q6 0 11 1t11 1q41 0 52 -44l104 -402q6 -26 -6 -46q-12 -21 -34 -27
q-23 -7 -46 4q-22 11 -28 35l-104 405q-2 14 -2 19zM1204 623q35 -60 92.5 -91t123.5 -31h18v22q0 101 54 191q53 88 152 137q-21 45 -56 74q-95 -82 -222 -82h-24q-30 -131 -138 -220z" />
</svg>