<svg xmlns="http://www.w3.org/2000/svg" xmlns:xlink="http://www.w3.org/1999/xlink" version="1.1" viewBox="-10 0 2058 2048">
   <path fill="currentColor"
d="M298 1194q0 -120 76 -215q75 -95 190 -122q32 -142 148 -235q113 -91 262 -91q86 0 154 28v1q89 35 154 108h2q70 75 96 182h22q112 0 196 60q57 38 94 92q37 55 50 122q3 11 6 36v4q0 4 1 11t1 17v1v1q0 93 -46 171q-45 78 -120 126q-75 47 -168 50q-14 0 -14 -12v-93
q0 -13 14 -13q87 -4 150 -71q64 -66 64 -158q0 -91 -68 -159q-68 -67 -160 -67h-112q-14 0 -14 -12l-4 -41q-11 -105 -88 -181l-2 -2l-2 -1l-2 -2q0 -2 -2 -2q-74 -69 -178 -78q-2 0 -9.5 -0.5t-14.5 -0.5q-115 0 -199.5 77t-94.5 190l-6 41q-3 10 -16 10l-34 2
q-90 11 -148 74q-58 65 -58 152v3h2q0 49 20 94q22 46 56 76q18 16 52 33v1q40 20 84 22q12 0 12 12v94q0 12 -12 12q-54 -3 -104 -21q-87 -30 -146 -100q-62 -72 -78 -160v-2v-3q-6 -30 -6 -61zM682 1694q0 -1 2 -9v-8l6 -41q8 -25 30 -37q21 -12 46 -6q23 7 36 29
q12 22 4 44l-10 42q-10 46 -52 46q-2 0 -10 -2q-4 -1 -10 -1q-21 -6 -32 -23q-10 -17 -10 -34zM734 1489q0 -25 16 -41q16 -17 40 -17t41 17t17 41q0 23 -17 40t-41 17t-40 -17q-16 -16 -16 -40zM848 1906q0 -3 2 -15l10 -41q7 -24 28 -36q22 -12 44 -5q24 5 36 26t6 47
l-8 41q-11 43 -56 43q-6 0 -18 -2q-23 -6 -34 -23q-10 -17 -10 -35zM902 1704q0 -25 16 -41t42 -16t42 16t16 41t-16 41t-42 16q-24 0 -41 -17t-17 -40zM946 1546q0 -7 2 -19l16 -63q7 -26 28 -37q22 -13 44 -5q26 7 38 28q12 22 4 44l-18 62q-10 29 -28 39q-20 10 -46 4
q-20 -4 -30 -21q-12 -18 -10 -32zM1138 1695q0 -5 1 -9t1 -8l6 -41q8 -25 30 -37q21 -12 46 -6q24 7 36 29q12 21 4 44l-8 41q-11 46 -54 46q-6 0 -10 -1t-10 -1q-21 -6 -32 -23q-10 -16 -10 -34zM1190 1490q0 -25 16 -42q16 -16 41 -16t41 16t16 42q0 24 -16 40t-40 16
q-26 0 -42 -17q-16 -15 -16 -39z" />
</svg>