<svg xmlns="http://www.w3.org/2000/svg" xmlns:xlink="http://www.w3.org/1999/xlink" version="1.1" viewBox="-10 0 2068 2048">
   <path fill="currentColor"
d="M0 1023q0 -208 82 -397q80 -187 218.5 -326t325.5 -219q190 -81 398 -81q206 0 396 81q188 80 328 219q138 139 218 326q82 189 82 397t-82 398q-79 188 -218.5 327t-327.5 219q-190 81 -396 81q-208 0 -398 -81q-187 -80 -326 -219t-218 -327q-82 -190 -82 -398z
M110 1023q0 184 72 356q72 169 195.5 292t292.5 195q171 73 354 73q38 0 108 -7q132 -81 214 -184q90 -111 130 -233q44 -129 60 -241q16 -119 16 -251q0 -171 -42 -331q-41 -158 -144 -318q-101 -155 -256 -262q-56 -3 -86 -3q-183 0 -354 73q-169 72 -292.5 195
t-195.5 292q-72 172 -72 354z" />
</svg>