<svg xmlns="http://www.w3.org/2000/svg" xmlns:xlink="http://www.w3.org/1999/xlink" version="1.1" viewBox="-10 0 2058 2048">
   <path fill="currentColor"
d="M274 1190q0 116 70 209q71 94 179 123l-45 118q-4 15 10 15h148l-100 293h21l303 -394q5 -5 2 -10t-10 -5h-153l174 -324q7 -15 -10 -15h-206q-11 0 -17 11l-74 200q-75 -20 -124 -80q-49 -61 -49 -141q0 -87 59 -152q58 -64 147 -75l35 -2q12 0 15 -10l6 -41
q11 -113 95 -190q83 -76 200 -76q114 0 199 76q86 77 98 190l5 41q0 12 13 12h112q93 0 160 67q68 68 68 160q0 90 -63 158q-62 67 -151 71q-14 0 -14 12v94q0 12 14 12q93 -3 168 -50q76 -48 121 -126t45 -171q0 -76 -30 -141q79 -100 79 -229q0 -101 -49 -184
q-50 -84 -134 -134q-83 -49 -183 -49q-77 0 -146 31q-73 33 -123 87q-84 -45 -189 -45q-148 0 -263 92q-116 93 -147 235q-117 27 -191 121q-75 94 -75 216zM942 1613q0 26 17 41q17 17 40 17q24 0 43 -17q18 -16 18 -41t-18 -43t-43 -18q-22 0 -40 18q-17 17 -17 43z
M942 1360q0 25 17 40q17 17 40 17q26 0 43 -16q18 -16 18 -41q0 -24 -18 -42q-17 -17 -43 -17q-24 0 -40 17q-17 19 -17 42zM942 1869q0 23 17 40q18 18 40 18q24 0 43 -17q18 -16 18 -41t-18 -43t-43 -18q-22 0 -40 18q-17 17 -17 43zM1167 1478q0 24 18 42q17 17 41 17
q25 0 41 -17t16 -42t-16 -41q-17 -17 -41 -17q-22 0 -41 17q-18 17 -18 41zM1167 1731q0 24 17 41t42 17q24 0 41 -17q16 -16 16 -41t-16 -41t-41 -16q-26 0 -42 16q-17 17 -17 41zM1237 642q71 -68 171 -68q102 0 174 72t72 174q0 71 -32 126q-101 -101 -245 -101h-22
q-29 -122 -118 -203z" />
</svg>