<svg xmlns="http://www.w3.org/2000/svg" xmlns:xlink="http://www.w3.org/1999/xlink" version="1.1" viewBox="-10 0 2068 2048">
   <path fill="currentColor"
d="M0 880q0 22 16 34q14 14 36 14h888q24 0 40 16q16 18 16 41t-17 40t-39 17q-24 0 -40 -18q-18 -14 -34 -14q-22 0 -36 14t-14 34t16 34q46 46 108 46t107 -45t45 -109t-45 -109t-107 -45h-888q-22 0 -37 15t-15 35zM0 706q0 22 16 34q15 14 36 14h1180q62 0 107 -45
t45 -109q0 -62 -45 -107t-107 -45q-64 0 -108 44q-14 17 -14 36.5t14 33.5q12 14 34 14q18 0 36 -14q14 -16 38 -16q22 0 40 16q16 15 16 38q0 26 -16 42t-40 16h-1180q-22 0 -37 15t-15 33zM1102 1598h212l140 -682h-210zM1406 1598h566l34 -162h-312v-2q30 -14 74 -32
q48 -19 80 -32q35 -14 74 -38q39 -23 66 -50q24 -24 42 -64q18 -36 18 -84q0 -73 -38 -120q-38 -50 -92 -68q-56 -20 -124 -20q-125 0 -202 66q-80 69 -94 198h178q0 -48 28 -80q28 -34 78 -34q39 0 58 20q18 21 18 48q0 41 -28 64q-24 21 -106 62l-8 4q-110 52 -140 70
q-103 62 -142 150q-20 44 -28 104z" />
</svg>