<svg xmlns="http://www.w3.org/2000/svg" xmlns:xlink="http://www.w3.org/1999/xlink" version="1.1" viewBox="-10 0 2058 2048">
   <path fill="currentColor"
d="M449 1382q0 -83 47 -145q48 -63 127 -88q33 -114 138 -174v-24q0 -153 96 -268q97 -117 244 -144q37 -6 75 -6h2q22 0 49 3q24 1 51 8l64 19q14 8 11 19l-9 49q-8 35 -8 67q0 41 11 75q11 36 35 75q22 37 63 67q43 32 92 46l50 14q12 3 12 13q0 2 -1 4v1l-12 48
q-6 25 -15 51q-14 43 -49 95h-1q-44 65 -114 109q14 34 14 86q0 104 -72 177q-71 72 -173 72h-478q-102 0 -175 -73q-74 -74 -74 -176zM587 1382q0 49 32 81t79 32h478q45 0 78 -33t33 -80q0 -45 -33 -78t-78 -33h-92q-11 0 -17 -15l-6 -45q-7 -60 -52 -100
q-46 -41 -106 -41q-58 0 -102 41t-51 100l-7 39q0 16 -13 16l-44 5q-42 4 -71 36q-28 31 -28 75zM895 936h8q96 0 174 55q77 54 107 146q83 0 142 50q71 -44 106 -122q-108 -55 -169 -157q-61 -101 -61 -217v-23q-1 0 -4 -0.5t-5 -0.5h-8q-62 0 -124 28q-59 27 -100 78
l-2 -1q-57 70 -64 164z" />
</svg>