<svg xmlns="http://www.w3.org/2000/svg" xmlns:xlink="http://www.w3.org/1999/xlink" version="1.1" viewBox="-10 0 2068 2048">
   <path fill="currentColor"
d="M0 1290q0 29 22 48q18 20 48 20h760q26 0 46 -20q20 -18 20 -48q0 -28 -19 -47t-47 -19h-760q-29 0 -50 18q-20 19 -20 48zM28 1786q0 30 20 48q18 20 48 20h760q30 0 50 -20t20 -48q0 -29 -20 -48q-21 -18 -50 -18h-760q-30 0 -48 18q-20 20 -20 48zM138 1536
q0 28 20 48q20 18 50 18h758q30 0 48 -18q20 -20 20 -48q0 -32 -19 -51t-49 -19h-758q-28 0 -50 20q-20 20 -20 50zM334 1023q0 -29 20 -49q21 -20 50 -20h162q29 0 48 20q18 21 18 50q0 30 -18 48q-20 20 -48 20h-162q-30 0 -50 -20t-20 -49zM564 466q0 -26 20 -50
q24 -20 50 -20t48 20l114 120q20 18 20 46q0 30 -18 48q-20 20 -48 20q-30 0 -48 -20l-118 -114q-20 -22 -20 -50zM770 1014v-6q2 -110 59 -203t153 -147t208 -54q84 0 162 32q77 33 134 90q56 56 90 136q32 78 32 162q0 114 -54 210q-56 95 -152 152q-94 56 -210 58h-16
q-8 0 -14 -6t-6 -16v-98q0 -16 16 -16h20q118 -1 200 -84q82 -84 82 -200.5t-84 -199.5q-83 -82 -200 -82q-113 0 -196 80q-83 77 -88 190q0 7 -6 14q-5 8 -20 8h-92q-18 0 -18 -20zM1122 1810v-160q0 -28 20 -48q18 -20 48 -20t48 20q20 20 20 48v160q0 29 -20 50
q-18 20 -48 20q-28 0 -48 -20t-20 -50zM1122 400v-164q0 -28 20 -48t48 -20t48 20t20 48v164q0 29 -20 48q-19 18 -48 18t-48 -18q-20 -19 -20 -48zM1566 1464q0 -26 18 -46q18 -18 46 -18q30 0 48 18l118 116q20 21 20 48q0 28 -20 48q-49 37 -98 0l-114 -114
q-18 -23 -18 -52zM1566 582q0 -28 18 -46l114 -120q22 -20 48 -20q30 0 50 22q20 21 20 48q0 30 -20 50l-118 114q-23 20 -48 20q-27 0 -46 -20q-18 -20 -18 -48zM1748 1024q0 -29 20 -50q20 -20 46 -20h162q30 0 50 20q22 22 22 50t-22 48q-20 20 -50 20h-162
q-28 0 -48 -20q-18 -18 -18 -48z" />
</svg>