<svg xmlns="http://www.w3.org/2000/svg" xmlns:xlink="http://www.w3.org/1999/xlink" version="1.1" viewBox="-10 0 2068 2048">
   <path fill="currentColor"
d="M0 1023q0 -208 82 -397q80 -187 218.5 -326t325.5 -219q190 -81 398 -81q206 0 396 81q188 80 328 219q138 139 218 326q82 189 82 397t-82 398q-79 188 -218.5 327t-327.5 219q-190 81 -396 81q-208 0 -398 -81q-187 -80 -326 -219t-218 -327q-82 -190 -82 -398z
M110 1023q0 173 62 333q62 158 172 280q107 118 260 199q151 80 320 98q-239 -141 -336 -370q-98 -231 -98 -540q0 -282 120 -525q120 -244 332 -386q-172 15 -326.5 93t-265.5 199q-109 120 -176 282q-64 158 -64 337z" />
</svg>