<svg xmlns="http://www.w3.org/2000/svg" xmlns:xlink="http://www.w3.org/1999/xlink" version="1.1" viewBox="-10 0 2058 2048">
   <path fill="currentColor"
d="M302 1192q0 116 68 207q70 92 178 125l-44 117q-4 15 10 15h148l-72 263h20l276 -364q4 -5 0 -10q-2 -4 -10 -4h-150l172 -324q5 -14 -10 -14h-206q-9 0 -14 10l-76 200q-76 -20 -124 -81q-48 -62 -48 -140q0 -87 59 -150.5t147 -74.5l36 -5q14 0 14 -12l4 -36
q11 -112 95.5 -189t198.5 -77q113 0 199.5 77t98.5 189l4 41q0 12 12 12h112q95 0 162 66q66 65 66 159q0 89 -62 154t-152 71q-14 0 -14 13v96q0 11 14 11q68 -1 130 -30q60 -28 106 -75q46 -48 70 -109q26 -64 26 -131q0 -94 -46 -174q-46 -78 -126 -125q-79 -46 -174 -46
h-22q-34 -139 -146 -228q-112 -88 -258 -88q-147 0 -261.5 92t-146.5 234q-114 27 -189 120t-75 215zM870 1879q0 15 10 32q11 17 32 23q16 3 18 3q11 0 26 -7q22 -10 30 -37l20 -73q6 -23 -6 -44t-38 -28q-22 -6 -44 6q-20 12 -28 37l-18 70zM962 1546q0 15 12 31
q10 15 32 23q23 7 44 -3q20 -10 28 -37l20 -72q7 -23 -6 -44q-12 -22 -36 -29q-24 -6 -46 6q-21 12 -28 36l-18 71q0 5 -0.5 9.5t-1 6.5zM1160 1661q0 19 10 36q12 18 34 24q4 0 8 1t8 1q13 0 26 -5q21 -8 30 -40l16 -70q8 -24 -3.5 -46t-34.5 -29q-26 -6 -48 6
q-21 12 -26 37l-18 72q-2 8 -2 13zM1254 1328q0 16 10 32q10 14 34 26q7 4 18 4q12 0 24 -6q23 -11 32 -39l20 -72q0 -4 0.5 -7.5t1 -5.5l0.5 -2q0 -18 -12 -35q-13 -17 -34 -23q-6 0 -9 -1t-7 -1q-19 0 -34.5 10t-21.5 34l-20 71q-2 10 -2 15z" />
</svg>