<svg xmlns="http://www.w3.org/2000/svg" xmlns:xlink="http://www.w3.org/1999/xlink" version="1.1" viewBox="-10 0 2058 2048">
   <path fill="currentColor"
d="M301 1193q0 116 68 208t178 125q9 2 17 -6l81 -100q-93 0 -159 -66t-66 -161q0 -88 59 -153q58 -64 147 -72l36 -5q11 0 11 -9l5 -39q13 -115 97 -190t199 -75t200 76t95 189l6 41q3 12 15 12h113q94 0 160 66q65 65 65 159q0 88 -58 152t-145 75q-15 0 -34 4
q-18 1 -28 16l-165 195q-14 18 -11 43q3 24 22 40q10 13 39 13q27 0 42 -24l148 -170q129 -13 219 -112t90 -232q0 -71 -27 -135q-26 -62 -74 -110q-46 -46 -109 -73q-65 -28 -134 -28h-23q-35 -139 -148 -227t-258 -88q-101 0 -184 41q-85 42 -144 116q-60 75 -79 169
q-117 26 -192 120q-74 94 -74 215zM537 1752q0 7 4 20q9 22 30 31q22 10 47 1q23 -9 32 -31q10 -22 1 -45q-9 -22 -32 -30q-25 -11 -45 -2q-22 9 -32 33q-5 12 -5 23zM665 1582v7q1 24 21 39q23 13 43 13q23 0 43 -23l162 -192q15 -18 13 -46q-3 -22 -19 -37t-36 -15h-10
q-24 4 -39 23l-165 193q-13 14 -13 38zM719 1910q0 11 5 23q9 22 31 32q12 5 23 5t21 -5q25 -11 33 -29q10 -22 1 -46q-9 -23 -31 -32q-22 -10 -46 -1q-25 9 -32 31q-5 12 -5 22zM835 1747v8q3 23 22 38t38 15q25 0 44 -22l303 -366q12 -14 12 -36v-8q-3 -24 -19 -37
q-17 -14 -37 -14h-9q-24 2 -39 22l-302 362q-13 20 -13 38zM1080 1827q0 10 4 21q9 22 32 33q13 4 21 4q14 0 24 -5q23 -9 32 -30q10 -17 1 -46q-10 -23 -30 -31l-25 -6q-3 1 -11 2.5t-11 2.5q-23 9 -32 31q-5 13 -5 24z" />
</svg>