<svg xmlns="http://www.w3.org/2000/svg" xmlns:xlink="http://www.w3.org/1999/xlink" version="1.1" viewBox="-10 0 2058 2048">
   <path fill="currentColor"
d="M262 1193q0 139 98 239q97 100 236 105q14 0 14 -11v-94q0 -12 -14 -12q-90 -5 -152 -71q-62 -67 -62 -156t58 -154q59 -64 148 -72l36 -5q14 0 14 -12l4 -35q11 -114 96 -192q85 -77 200 -77q113 0 200 77q84 76 96 189l6 40q0 13 12 13h112q96 0 162 67q68 68 68 161
q0 57 -28.5 109t-77.5 83q-51 32 -110 35q-14 0 -14 12v94q0 11 14 11q93 -3 168 -49q78 -47 122 -125q44 -79 44 -170q0 -93 -48 -175q86 -78 110 -183l10 -48q2 -2 2 -5q0 -7 -12 -11l-38 -12q-60 -18 -102 -60q-45 -44 -62 -86q-18 -45 -18 -90q-1 -24 8 -58l8 -40
q5 -11 -8 -17l-56 -17q-39 -11 -90 -11q-38 0 -78 9q-37 8 -84 29q-43 20 -82 56q-41 38 -70 86q-87 -32 -164 -32q-148 0 -262 92q-114 91 -148 235q-118 30 -192 123q-74 94 -74 215zM640 1684q0 20 10 36q12 18 34 24q24 8 44 -3t28 -39l10 -43q4 -24 -8 -44
q-10 -19 -36 -27q-22 -7 -44 5q-22 13 -28 37l-10 41v13zM692 1482q0 23 18 40q16 18 38 18q26 0 43 -17t17 -41q0 -23 -17 -40t-43 -17q-24 0 -40 16t-16 41zM734 1324q-1 15 10 31t34 23q22 7 42 -5q22 -12 30 -36l20 -62q7 -26 -6 -46q-11 -19 -38 -27q-22 -7 -44 5
q-20 12 -28 34l-16 64q0 1 -2 9q-2 4 -2 10zM816 1902q0 17 10.5 34t33.5 23q12 2 18 2q44 0 54 -42l10 -41q6 -27 -6 -48t-36 -26q-22 -7 -44 5q-21 12 -28 36l-10 41q-2 12 -2 16zM870 1699q0 23 18 41q16 17 40 17t40 -17q16 -16 16 -41q0 -24 -16 -40q-16 -17 -40 -17
t-41 17t-17 40zM914 1541q-2 16 8.5 33t31.5 21q25 6 44 -4q21 -11 30 -39l18 -63q8 -22 -4 -44q-12 -21 -38 -28q-21 -7 -44 6q-21 11 -28 37l-16 62q-2 12 -2 19zM1106 1691q0 16 10 33q11 17 32 23q6 0 10 1q8 2 10 2q42 0 52 -46l10 -42q8 -22 -4 -44q-12 -21 -36 -28
q-27 -6 -46 5q-22 12 -30 37l-6 41q0 1 -2 9v9zM1158 1485q0 24 16 40q16 17 40 17q26 0 42 -16t16 -41t-16 -41t-41 -16t-41 16t-16 41zM1200 1324q0 18 10 33q13 17 36 23q4 0 8 1t10 1q9 0 24 -6q24 -12 30 -37l16 -62q6 -25 -6 -44q-11 -21 -34.5 -28t-43.5 4
q-21 11 -28 35l-20 63q0 1 -2 9v8zM1204 623q34 -60 92 -93q56 -32 120 -32q6 0 20 2v22q-1 103 54 193q55 89 154 134q-20 44 -54 77q-96 -79 -226 -79h-20q-34 -138 -140 -224z" />
</svg>