<svg xmlns="http://www.w3.org/2000/svg" xmlns:xlink="http://www.w3.org/1999/xlink" version="1.1" viewBox="-10 0 2058 2048">
   <path fill="currentColor"
d="M162 880q0 22 14 34q14 14 36 14h890q22 0 38 16q18 18 18 41t-17 40t-39 17q-25 0 -42 -18q-17 -14 -34 -14q-20 0 -34 14t-14 34t14 34q46 46 110 46q62 0 107 -45t45 -109t-45 -109t-107 -45h-890q-20 0 -35 15t-15 35zM162 706q0 22 14 34q16 14 36 14h1180
q64 0 109 -45t45 -109q0 -62 -45 -107t-109 -45q-63 0 -108 44q-14 17 -14 36.5t14 33.5t36 14q17 0 34 -14q16 -16 38 -16q23 0 40 16q16 15 16 38q0 26 -16 42t-40 16h-1180q-20 0 -35 15t-15 33zM1272 1466h306l-28 132h190l30 -132h86l30 -162h-86l78 -372h-190
l-378 356zM1464 1304l192 -190h2l-40 190h-154z" />
</svg>