<svg xmlns="http://www.w3.org/2000/svg" xmlns:xlink="http://www.w3.org/1999/xlink" version="1.1" viewBox="-10 0 2058 2048">
   <path fill="currentColor"
d="M255 1681q0 -3 2 -19v-440q36 67 107 110q67 40 149 40q84 0 150 -40q70 -44 106 -110q36 65 107 110q66 40 149 40t149 -40q71 -45 107 -110q38 66 107 110q66 40 148 40t149 -40q71 -43 107 -110v446l0.5 2.5t0.5 3.5v8v6q0 2 -0.5 4.5t-0.5 3.5q-5 32 -28.5 55.5
t-54.5 28.5h-7h-8h-6h-8h-1312h-7h-7h-7h-7q-31 -5 -54 -26q-21 -20 -29 -54q-2 -16 -2 -19zM766 654q0 -22 15 -38l205 -206l3 -2h1q1 0 1 -2h1q1 0 1 -1t1 -3h2h1h1h1l1 -2h1h2h1q0 -2 1 -2h2l4 -2q1 0 1 -2h2h1h3h1h2h1h5h2h2h1h2h1h3v2h1h1q2 2 3 2h1h1h1l1 2h1h1
q1 0 1 2h1h1h1h2q0 2 1 2l1 2h1h1l1 2h1l2 2l206 206q16 16 16 38q0 24 -16 38q-15 16 -38 16t-38 -16l-114 -112v638q0 24 -15 39t-39 15q-21 0 -38 -16q-16 -14 -16 -38v-638l-113 112q-16 16 -39 16t-38 -16q-15 -14 -15 -38z" />
</svg>