<svg xmlns="http://www.w3.org/2000/svg" xmlns:xlink="http://www.w3.org/1999/xlink" version="1.1" viewBox="-10 0 2058 2048">
   <path fill="currentColor"
d="M83 1192q0 -120 75 -215t191 -122q31 -142 147 -235q115 -92 263 -92q102 0 189 46q52 -56 123 -87q72 -32 146 -32q100 0 183 49q84 50 134 134q49 83 49 184q0 129 -79 229q30 65 30 141q0 93 -45 171t-121 126q-75 47 -168 50q-14 0 -14 -12v-94q0 -12 14 -12
q88 -4 151 -72q63 -67 63 -157q0 -94 -68 -160t-160 -66h-112q-13 0 -13 -12l-5 -41q-12 -113 -98 -190t-199 -77q-115 0 -200 77q-84 77 -95 190l-6 41q-3 9 -15 9l-35 3q-88 10 -147 74t-59 152v3h2q1 101 77 169q21 20 51 34v1q46 21 85 22q11 0 11 12v93q0 12 -11 12
q-55 -3 -104 -21v1q-88 -30 -147 -100q-61 -72 -77 -160v-3q-1 -1 -1 -2q-5 -28 -5 -61zM466 1692q0 -1 2 -9q1 -4 1 -8l6 -41q7 -25 29 -37q20 -11 47 -5q23 7 35 28t5 43l-10 42q-11 46 -53 46q-5 0 -10 -1t-9 -1q-21 -6 -32 -23t-11 -34zM518 1487q0 -25 16 -41t41 -16
t41 16q17 17 17 41q0 23 -17 40q-16 16 -41 16t-40 -17q-17 -16 -17 -39zM632 1904q0 -4 3 -16l9 -40q7 -24 29 -36q21 -12 43 -5q25 5 37 26t6 47l-9 41q-11 43 -56 43q-5 0 -17 -3q-23 -6 -34 -23t-11 -34zM669 335q0 -25 18 -42q19 -17 44 -17t42 17l43 46q18 18 18 42
q0 25 -21 45q-21 19 -42 16q-22 -2 -39 -19l-45 -46q-18 -18 -18 -42zM687 1702q0 -25 16 -41t41 -16q26 0 42 16t16 41t-16 41t-42 16q-23 0 -40 -17t-17 -40zM730 1543q0 -6 2 -18l16 -63q8 -26 28 -37q22 -13 45 -5q26 8 37 27q12 22 5 44l-19 63q-9 29 -28 39t-45 4
q-21 -5 -31 -21q-11 -19 -10 -33zM923 1693q0 -5 1 -9t1 -8l6 -41q7 -25 29 -37q21 -12 47 -6q24 7 36 29q12 21 4 44l-9 42q-10 45 -53 45q-6 0 -11 -1t-9 -1q-21 -6 -32 -23q-10 -16 -10 -34zM974 1488q0 -24 17 -41t41 -17t41 17q16 16 16 41q0 24 -16 40t-41 16t-41 -17
q-17 -15 -17 -39zM1046 644q89 81 118 203h22q144 0 245 102q32 -55 32 -127q0 -102 -72 -174t-174 -72q-100 0 -171 68zM1157 276v-143q0 -24 18 -42t42 -18q25 0 41 17q17 19 17 43v143q0 25 -17 44q-16 17 -41 17q-24 0 -42 -18t-18 -43zM1546 437q0 -26 16 -42l100 -102
q14 -17 41 -17q26 0 42 17q18 17 18 42t-18 42l-101 101q-20 20 -44 18q-23 -1 -38 -18q-16 -16 -16 -41zM1600 1266q0 -25 17 -42q18 -18 42 -18q25 0 43 18l43 44q18 18 18 43t-18 41q-16 19 -38 19l-1 -2q-25 0 -44 -17l-45 -44q-17 -17 -17 -42zM1702 822q0 -26 17 -42
t43 -16h143q26 0 43 16t17 42q0 25 -17 42q-18 18 -43 18h-143q-26 0 -42 -19q-18 -15 -18 -41z" />
</svg>