<svg xmlns="http://www.w3.org/2000/svg" xmlns:xlink="http://www.w3.org/1999/xlink" version="1.1" viewBox="-10 0 2058 2048">
   <path fill="currentColor"
d="M254 923q0 -97 60 -174q59 -75 153 -97q27 -116 118 -189t210 -73q116 0 206 72t117 184h18q115 0 196 81q82 82 82 196q-1 1 -1 2v4q78 84 78 199q0 78 -39 146t-107 107q-67 39 -145 39q-99 0 -178 -62q-78 -61 -103 -157h-398q-112 -5 -189 -85q-78 -81 -78 -193z
M349 923q0 74 50 127q51 54 122 57h395q4 -3 8 -3h68q3 0 6 3h149q71 -3 122 -57t51 -127q0 -74 -55 -128t-129 -54h-90q-10 0 -10 -10l-4 -32q-9 -91 -78 -153q-70 -62 -159 -62q-92 0 -160 62t-77 153l-4 32q0 10 -11 10h-28q-71 8 -119 59q-47 50 -47 123zM780 1550
q-25 -34 0 -68l79 -80q15 -12 36 -12q20 0 32 12q13 13 13 33t-13 33l-79 82q-13 13 -34 13t-34 -13zM1017 1201q23 57 72 91t111 34q81 0 138 -58q56 -57 56 -140q0 -41 -13 -73q-33 62 -97 103q-62 40 -137 43h-130zM1152 1562q0 -19 14 -33q13 -13 34 -13q20 0 35 15
q13 13 13 31v114q0 18 -14 34q-14 15 -34 15t-34 -15q-14 -16 -14 -34v-114zM1459 1435q0 -18 14 -32q13 -13 33 -13t32 12l83 80q13 14 13 34q0 19 -14 33t-34 14q-22 0 -35 -13l-79 -82q-13 -14 -13 -33zM1459 821q0 -21 13 -33l79 -82q14 -13 35 -13t35 13q13 14 13 35
q0 19 -13 33l-83 81q-13 13 -32 13t-33 -14t-14 -33zM1586 1128q0 -21 13 -34t33 -13h113q20 0 34 13q15 14 15 34t-15 34q-16 14 -34 14h-113q-19 0 -33 -14q-13 -13 -13 -34z" />
</svg>