<svg xmlns="http://www.w3.org/2000/svg" xmlns:xlink="http://www.w3.org/1999/xlink" version="1.1" viewBox="-10 0 2058 2048">
   <path fill="currentColor"
d="M230 949q0 -119 76 -215q74 -94 190 -121q33 -144 146 -235q114 -91 262 -91q146 0 257.5 89t146.5 230h22q95 0 174 45q80 45 126 125q46 79 46 173q0 121 -72 215q67 57 156 60l46 4q12 0 12 13v54q0 105 -50 195q-50 88 -142 142q-87 52 -194 52q-77 0 -152 -31
q-72 -30 -124 -83q-53 -55 -82 -124q-30 -72 -30 -151h-480q-138 -6 -236 -107t-98 -239zM348 949q0 91 64 157q63 67 152 71h780q89 -4 152 -71q64 -66 64 -157t-68 -159q-68 -67 -162 -67h-112q-12 0 -12 -12l-6 -41q-12 -113 -96.5 -189t-199.5 -76q-116 0 -200 76
q-84 77 -94 189l-6 41q0 12 -14 12h-36q-89 11 -146 74q-60 65 -60 152zM1144 1295q0 82 42 151q43 70 108 105q67 37 138 37q64 0 128 -32q60 -30 110 -95q47 -63 60 -146q-112 -22 -190 -91q-89 68 -196 71h-200z" />
</svg>