<svg xmlns="http://www.w3.org/2000/svg" xmlns:xlink="http://www.w3.org/1999/xlink" version="1.1" viewBox="-10 0 2058 2048">
   <path fill="currentColor"
d="M277 1190q0 116 69 208q70 92 178 122l-44 117q-4 15 10 15h147l-72 292h20l276 -392q4 -4 1 -9q-4 -6 -10 -6h-152l172 -321q8 -15 -9 -15h-205q-10 0 -16 10l-74 200q-76 -18 -124 -80q-48 -61 -48 -141q0 -88 58 -150q59 -63 146 -74l37 -3q13 0 13 -12l5 -38
q7 -72 48 -134q40 -61 106 -96q65 -35 141 -35q111 0 197 77q85 76 97 188l5 40q0 13 12 13h113q92 0 160 66t68 158q0 91 -63 157q-64 67 -151 71q-14 0 -14 12v94q0 11 14 11q92 -3 167 -50q77 -49 120 -125q44 -79 44 -170q0 -76 -30 -139q82 -97 82 -231q0 -72 -29 -141
q-28 -66 -78 -116t-116 -78q-71 -30 -141 -30q-161 0 -269 121q-84 -45 -188 -45q-149 0 -262 91q-115 92 -146 234q-115 27 -190 120t-75 214zM829 1879q0 16 11 32q12 16 31 22l18 1q43 0 55 -41l169 -620q6 -24 -4 -44t-34 -28q-25 -8 -45 4q-22 13 -28 35l-171 620
q0 5 -0.5 9.5t-0.5 6.5zM1118 1667q0 43 43 56l18 2q12 0 25 -5q20 -9 29 -39l114 -408q6 -25 -5 -44q-12 -21 -35 -28q-25 -8 -45 4q-22 13 -28 35l-113 410q-3 15 -3 17zM1234 643q72 -67 173 -67q99 0 173 72q71 70 71 172q0 68 -35 129q-101 -101 -242 -101h-22
q-30 -120 -118 -205z" />
</svg>