<svg xmlns="http://www.w3.org/2000/svg" xmlns:xlink="http://www.w3.org/1999/xlink" version="1.1" viewBox="-10 0 2068 2048">
   <path fill="currentColor"
d="M0 1511q0 28 22 47q21 20 50 20h1544q29 0 50 -20q22 -19 22 -47q0 -29 -20 -51q-20 -21 -52 -21h-1544q-30 0 -51 21t-21 51zM216 1253q0 30 22 49q17 22 50 22h1544q28 0 48 -21q18 -20 18 -50t-19 -49t-47 -19h-1544q-30 0 -50 19q-22 20 -22 49zM230 1052v-4
q-7 19 10 19h120q5 0 14 -13q31 -66 88 -106q58 -40 130 -46l44 -7q16 0 16 -14l4 -42q14 -134 114 -223q100 -90 234 -90q133 0 234 89t114 221l6 48q0 15 18 15h130q83 0 146 42q66 44 98 113q9 13 18 13h116q17 0 14 -19q-28 -69 -38 -88q89 -80 124 -213l14 -55
q3 -7 -2 -13q-3 -5 -10 -5l-50 -18q-110 -31 -170 -132q-58 -98 -30 -212l10 -48q7 -12 -10 -20l-70 -19q-138 -33 -268 22q-130 56 -204 175q-100 -38 -190 -38q-173 0 -308 109q-134 109 -172 278q-106 26 -184 100t-110 181zM360 1764q0 30 22 49q21 22 50 22h1546
q30 0 50 -21t20 -50q0 -28 -20 -48t-50 -20h-1546q-29 0 -50 20q-22 20 -22 48zM1314 496q43 -70 118 -110q72 -38 156 -31q-10 131 58 243q68 115 184 168q-18 42 -62 88q-114 -94 -262 -94h-26q-38 -162 -166 -264z" />
</svg>