<svg xmlns="http://www.w3.org/2000/svg" xmlns:xlink="http://www.w3.org/1999/xlink" version="1.1" viewBox="-10 0 2058 2048">
   <path fill="currentColor"
d="M274 1190q0 140 97 240q98 101 237 107q13 0 13 -12v-94q0 -11 -13 -11q-87 -4 -152 -72q-63 -66 -63 -158q0 -85 59 -150q58 -64 147 -75l36 -3q14 0 14 -12l5 -38q10 -111 96 -189q85 -77 198 -77q114 0 200 77q85 76 97 189l5 40q0 13 12 13h113q95 0 162 66t67 159
q0 90 -63 158t-153 72q-13 0 -13 11v94q0 12 13 12q138 -4 237 -106q97 -100 97 -241q0 -73 -30 -139q82 -100 82 -232q0 -101 -49 -184t-134 -133q-83 -49 -183 -49q-162 0 -271 121q-84 -45 -189 -45q-148 0 -261 91q-114 91 -147 235q-115 27 -191 121q-75 93 -75 214z
M656 1728q0 21 17 40q19 17 40 17q26 0 42 -16t16 -41q0 -24 -17 -41q-16 -16 -41 -16q-24 0 -40 16q-17 17 -17 41zM716 1475q0 24 17 43q16 17 41 17q24 0 40 -17q17 -19 17 -43q0 -23 -17 -40t-40 -17q-24 0 -41 17t-17 40zM848 1864q0 23 17 40t40 17q26 0 43 -16
t17 -41q0 -24 -18 -42t-42 -18q-22 0 -40 18q-17 17 -17 42zM907 1609q0 23 18 42q17 17 40 17t42 -17q18 -17 18 -42q0 -23 -18 -41t-42 -18t-41 18q-17 19 -17 41zM937 1358q0 24 17 41t41 17q23 0 42 -17q17 -16 17 -41t-17 -41q-19 -17 -42 -17q-24 0 -41 17t-17 41z
M1103 1728q0 23 16 40q19 17 42 17q25 0 41 -16t16 -41t-16 -41t-41 -16q-26 0 -42 16t-16 41zM1162 1475q0 24 17 43q16 17 41 17t41 -17q17 -19 17 -43q0 -23 -17 -40t-41 -17t-41 17t-17 40zM1235 642q71 -71 173 -71q101 0 174 73q72 72 72 175q0 62 -36 128
q-100 -100 -243 -100h-22q-30 -120 -118 -205z" />
</svg>