<svg xmlns="http://www.w3.org/2000/svg" xmlns:xlink="http://www.w3.org/1999/xlink" version="1.1" viewBox="-10 0 2067 2048">
   <path fill="currentColor"
d="M1 987q2 -46 49 -155q46 -105 131 -228q277 -386 778 -407v-43q0 -30 21 -50q21 -19 47 -19q29 0 49 19q22 20 22 50v43q139 6 271 45q123 37 218 98q92 59 159 125q69 67 119 139q61 88 105 188q43 98 60 158q5 16 9 32t6 22.5l2 6.5v8v10q0 27 -21 43q-21 17 -48 17
q-45 0 -59 -26q-115 -129 -252 -129q-52 3 -102 22q-46 18 -81 42q-17 12 -57 43q-27 21 -28 22q-27 26 -53 26q-34 0 -51 -17q-109 -109 -197 -131v727v8v13q0 2 -0.5 7t-0.5 9q0 15 -1 21q-2 16 -4 22q-2 9 -6 25q-2 9 -9 26q-8 22 -12 27q-3 5 -9 13.5t-8 11.5
q-8 12 -21 25q-75 87 -215 87q-150 0 -225 -87q-18 -18 -31 -38q-10 -16 -20 -41q-8 -20 -12 -37q-4 -18 -6 -36q-2 -24 -2 -29q0 -15 1 -23t1 -13q0 -26 23 -46t54 -14q26 0 44 23q17 21 17 55q-9 60 25 103q31 44 131 44q77 0 112 -35q19 -19 28 -48q10 -30 8 -46l-1 -18
v-727q-108 26 -191 113q-6 12 -23 23t-29 11q-26 0 -60 -34q-118 -132 -251 -129q-60 2 -111 19q-51 18 -78 38q-34 26 -53 44q-8 7 -15.5 14t-11.5 10t-5 4q-31 22 -50 22q-20 0 -48 -17q-24 -15 -29 -32q-4 -16 -3 -49zM207 847q102 -53 190 -53h8q171 0 311 131
q59 -51 136 -87q83 -38 175 -44h9q170 0 310 131q58 -50 137 -87q83 -38 175 -44h9q82 0 173 44q-59 -114 -87 -164q-265 -346 -733 -346q-232 0 -418 89q-183 88 -301 257q-37 52 -94 173z" />
</svg>