<svg xmlns="http://www.w3.org/2000/svg" xmlns:xlink="http://www.w3.org/1999/xlink" version="1.1" viewBox="-10 0 2068 2048">
   <path fill="currentColor"
d="M0 1023q0 -208 82 -397q80 -187 218.5 -326t325.5 -219q190 -81 398 -81q206 0 396 81q188 80 328 219q138 139 218 326q82 189 82 397t-82 398q-79 188 -218.5 327t-327.5 219q-190 81 -396 81q-208 0 -398 -81q-187 -80 -326 -219t-218 -327q-82 -190 -82 -398z
M1076 111q174 150 286 383q110 233 110 529q0 633 -378 914q178 -14 330 -90q158 -79 270 -199q114 -123 178 -284q66 -164 66 -341q0 -237 -114 -444q-114 -204 -314 -331q-196 -125 -434 -137z" />
</svg>