<svg xmlns="http://www.w3.org/2000/svg" xmlns:xlink="http://www.w3.org/1999/xlink" version="1.1" viewBox="-10 0 2058 2048">
   <path fill="currentColor"
d="M264 1207v-4v-1v-4v-3v-1v-1v-6v-4v-2q5 -118 79 -207q76 -91 187 -116q33 -142 147 -234q113 -91 261 -91q76 0 166 32q30 -48 69 -84q37 -34 82 -55q39 -18 83 -28q36 -8 78 -8t87 9l55 17q13 6 10 17l-8 42q-7 28 -7 59q0 33 10 66t31 66t56 59q37 28 81 41l43 12
q10 3 10 11l-1 4l-13 48q-26 107 -105 183q46 81 46 170q0 141 -97 241q-99 102 -236 106q-13 0 -13 -13v-95q0 -13 13 -13q91 -6 153 -71q63 -66 63 -155q0 -93 -67 -159q-69 -67 -162 -67h-113q-12 0 -12 -12l-5 -41q-12 -113 -97 -189t-200 -76t-198 76q-86 78 -96 189
l-5 36q0 12 -14 12l-36 5q-89 11 -147 75q-59 65 -59 151v2h2q0 57 25 104q26 48 68 79h1v1l1 1q21 16 43 24q37 16 75 17q11 0 11 11v94q0 12 -11 12q-97 -4 -178 -57h-1q-66 -43 -110 -118q-42 -72 -45 -157zM647 1693q0 -1 2 -9q1 -4 1 -8l6 -41q7 -25 29 -37
q21 -12 47 -6q22 7 35 29q12 22 5 44l-10 42q-10 45 -53 45q-5 0 -10 -1t-9 -1q-21 -6 -32 -23t-11 -34zM699 1488q0 -25 16 -41q17 -17 41 -17t41 17t17 41q0 23 -17 40q-16 16 -41 16q-24 0 -40 -17q-17 -16 -17 -39zM813 1906q0 -4 3 -16l9 -41q7 -24 29 -36
q21 -12 43 -5q25 5 37 26t6 48l-9 41q-11 42 -56 42q-5 0 -17 -2q-23 -6 -34 -23t-11 -34zM868 1703q0 -24 16 -40q17 -17 41 -17q25 0 42 17q16 16 16 40q0 25 -16 41q-17 17 -42 17q-23 0 -40 -17t-17 -41zM911 1545q0 -7 2 -19l16 -63q8 -24 28 -36q23 -13 45 -6
q25 7 37 28q12 22 5 44l-19 63q-9 29 -28 39t-45 4q-20 -4 -31 -21q-11 -18 -10 -33zM1104 1694q0 -5 1 -9t1 -8l6 -41q7 -25 29 -37q21 -12 47 -6q24 7 36 29q12 21 4 44l-9 42q-11 46 -53 46q-2 0 -10 -2q-4 -1 -10 -1q-21 -6 -32 -23q-10 -16 -10 -34zM1155 1489
q0 -24 17 -41t41 -17t41 17q16 16 16 41q0 24 -16 40q-17 17 -41 17q-26 0 -41 -17q-17 -15 -17 -40zM1204 628q108 89 138 220h23q129 0 224 82q34 -30 53 -72q-64 -31 -112 -84q-46 -50 -71 -116q-24 -63 -24 -129v-22h-15q-65 0 -123 31q-59 32 -93 90z" />
</svg>