<svg xmlns="http://www.w3.org/2000/svg" xmlns:xlink="http://www.w3.org/1999/xlink" version="1.1" viewBox="-10 0 2058 2048">
   <path fill="currentColor"
d="M274 1190q0 140 98 240q98 101 236 107q12 0 12 -12v-95q0 -14 -12 -14q-91 -6 -153.5 -71t-62.5 -155t60 -153q60 -65 146 -72l38 -5q12 0 12 -13l4 -34q11 -114 96 -190t200 -76t200 76q86 77 98 190l4 40q0 12 12 12h112q94 0 162 66q66 66 66 159q0 88 -62 155
q-60 65 -152 71q-14 0 -14 14v95q0 12 14 12q138 -4 236 -106q98 -100 98 -241q0 -76 -30 -139q82 -100 82 -234q0 -100 -50 -183q-49 -84 -134 -134q-84 -50 -182 -50q-159 0 -274 122q-84 -43 -186 -43q-148 0 -262 91q-115 93 -146 235q-114 27 -190 121q-76 93 -76 214z
M688 1252q0 40 30 68q30 29 70 29t69 -29t29 -68q0 -24 -24 -71q-22 -40 -46 -70l-2.5 -2.5l-5 -5l-6.5 -6.5l-7.5 -10t-6.5 -7l-24 28q-27 29 -52 74q-24 42 -24 70zM896 1529q0 67 48 115t115 48t115 -48q48 -49 48 -115q0 -27 -16 -67q-17 -39 -40 -72q-49 -64 -90 -104
q-4 -3 -18 -17l-40 40q-48 46 -84 109q-38 65 -38 111zM998 1062q0 29 20 47q20 19 50 19q25 0 46 -19q18 -18 18 -47q0 -41 -64 -112l-18 18q-18 19 -36 49q-16 28 -16 45zM1234 642q72 -70 174 -70q100 0 174 72q72 71 72 173q0 65 -36 128q-105 -100 -244 -100h-22
q-29 -122 -118 -203z" />
</svg>