<svg xmlns="http://www.w3.org/2000/svg" xmlns:xlink="http://www.w3.org/1999/xlink" version="1.1" viewBox="-10 0 2058 2048">
   <path fill="currentColor"
d="M451 1380q0 101 74 175t175 74h478q101 0 173 -73t72 -176q0 -52 -14 -86q86 -55 137 -148t51 -197q0 -85 -33 -163q-32 -76 -89 -133q-56 -56 -133 -89q-76 -33 -162 -33q-113 0 -210 56q-96 56 -152 152q-55 95 -55 210v23q-105 60 -138 174q-79 25 -127 88
q-47 62 -47 146zM589 1380q0 -44 28 -75q29 -32 71 -36l44 -5q13 0 13 -16l7 -39q8 -61 51 -101t102 -40q62 0 106 40t52 101l6 45q6 15 17 15h92q45 0 78 33t33 78q0 47 -33 80q-34 34 -78 34h-478q-45 0 -79 -34q-32 -32 -32 -80zM897 934q8 -115 88 -192t195 -77
q117 0 198 83q81 82 81 201q0 74 -35 135t-96 101q-62 -51 -142 -51q-30 -90 -107 -145q-78 -55 -174 -55h-8z" />
</svg>