<svg xmlns="http://www.w3.org/2000/svg" xmlns:xlink="http://www.w3.org/1999/xlink" version="1.1" viewBox="-10 0 2058 2048">
   <path fill="currentColor"
d="M262 1193q0 115 70 209t179 124q9 2 17 -6l78 -98q-90 0 -158 -68q-67 -67 -67 -161q0 -87 59 -151q60 -65 147 -72l34 -4q13 0 13 -13l5 -38q14 -114 98 -190q85 -76 199 -76t200 77t98 189l4 41q0 12 13 12h113q92 0 159 66q66 65 66 159q0 90 -58 155q-57 64 -145 72
q-46 6 -60 20l-162 202q-16 18 -13 44q3 25 22 41q20 17 39 17q23 0 44 -26l143 -181q63 -6 122 -36t99 -75q41 -46 65 -107q25 -64 25 -126q0 -91 -48 -170q84 -75 110 -183v-6l14 -54l-53 -18q-61 -18 -102 -58q-42 -40 -60 -86q-18 -45 -18 -91q0 -27 6 -56l13 -54
l-58 -16q-1 0 -2 -1q-2 -2 -3 -2h-1l-2 -1l-2 -1q-47 -11 -87 -11q-35 0 -80 10q-41 9 -83 28q-40 18 -84 57q-39 34 -70 86q-77 -34 -164 -34q-148 0 -261 91q-114 91 -147 234q-118 28 -192 122t-74 214zM520 1750q0 14 4 21q9 23 31 32q23 11 46 2t32 -31q10 -22 1 -46
t-32 -32q-24 -11 -46 -2q-23 9 -32 32q-4 9 -4 24zM649 1579v8q1 23 22 38q14 16 38 16q23 0 46 -23l162 -203q15 -18 12 -43t-21 -40q-19 -16 -44 -13t-40 24l-162 199q-13 14 -13 37zM688 1942q9 23 32 32q12 5 23 5q8 0 21 -4q21 -9 31 -31q8 -20 0 -45q-7 -23 -30 -33
q-23 -9 -44 0q-20 8 -31 31q-12 22 -2 45zM799 1757v6q3 23 23 40t39 17q23 0 42 -24l300 -374q15 -17 13 -43q-1 -25 -20 -40q-22 -16 -46 -13q-25 3 -40 21l-298 373q-13 16 -13 37zM1044 1834q0 11 5 23q9 23 32 32q24 9 43 2q23 -9 32 -32q10 -21 2 -45q-7 -21 -31 -32
q-23 -9 -45 0q-23 9 -33 29q-5 13 -5 23zM1203 627q33 -60 90 -91q60 -32 123 -31q4 0 10 0.5t8 0.5v21q0 100 56 191q56 90 152 137q-24 47 -55 78q-92 -82 -223 -82h-23q-32 -134 -138 -224z" />
</svg>