<svg xmlns="http://www.w3.org/2000/svg" xmlns:xlink="http://www.w3.org/1999/xlink" version="1.1" viewBox="-10 0 2068 2048">
   <path fill="currentColor"
d="M0 1026q0 -278 138 -515q139 -238 374 -374q236 -137 512 -137q208 0 398 81q187 80 326 219t218 327q82 191 82 399t-82 398q-79 186 -218 326q-136 135 -326 217q-190 81 -398 81t-398 -81q-188 -80 -328 -219q-135 -135 -216 -326q-82 -189 -82 -396zM226 1026
q0 323 236 562q236 236 562 236q218 0 400 -107q184 -107 292 -291t108 -400t-108 -400q-109 -185 -291.5 -292t-400.5 -107q-216 0 -398 107q-185 108 -292 292q-108 184 -108 400zM946 1026q0 31 22 53q24 23 54 23t54 -23q22 -22 22 -53v-606q0 -32 -22 -54t-54 -22
t-54 22t-22 54v606z" />
</svg>