<svg xmlns="http://www.w3.org/2000/svg" xmlns:xlink="http://www.w3.org/1999/xlink" version="1.1" viewBox="-10 0 2065 2048">
   <path fill="currentColor"
d="M3 1477q0 26 19 42q18 18 42 18h410q27 0 47 19q21 20 21 48q0 27 -21 48t-47 21q-27 0 -48 -21q-20 -17 -42 -17q-26 0 -42 16q-17 17 -17 42t17 42q55 55 132 55t131 -54t54 -132q0 -76 -54 -132q-54 -55 -131 -55h-410q-25 0 -43 18t-18 42zM3 1268q0 23 19 39
q18 18 42 18h764q77 0 132 -55q54 -54 54 -131t-54 -131q-53 -53 -132 -53q-78 0 -131 53q-16 16 -16 42q0 25 16 41t41 16q26 0 43 -16q19 -19 47 -19q29 0 48 19q20 20 20 48q0 26 -20 48q-19 20 -48 20h-764q-25 0 -43 18t-18 43zM188 1104q0 8 12 8h99q8 0 14 -10
q24 -57 73 -94q48 -36 111 -41l37 -5q13 0 13 -12l4 -36q10 -111 96 -189q82 -75 198 -75t200 75t96 189l5 41q0 12 12 12h114q94 0 160 66t66 158q0 94 -66 160t-160 66h-481q-13 0 -13 13v95q0 12 13 12h481q92 0 172 -47q80 -46 126 -126q46 -79 46 -173q0 -77 -30 -141
q79 -103 79 -231q0 -99 -49 -182q-49 -84 -133 -133q-85 -50 -183 -50q-161 0 -269 121q-84 -42 -186 -42q-148 0 -260 91q-113 92 -143 233q-91 21 -157 85q-68 65 -95 153v3q-2 4 -2 6zM757 335q0 24 19 42l43 45q17 17 42 17q27 0 43 -16t16 -42q0 -25 -15 -42l-46 -45
q-17 -18 -41 -18q-26 0 -43 17q-18 18 -18 42zM1128 642q76 -71 172 -71q102 0 175 73q74 74 74 175q0 68 -36 128q-100 -100 -241 -100h-24q-26 -116 -120 -205zM1241 277q0 25 17 41q19 17 42 17q24 0 43 -17q17 -16 17 -41v-142q0 -26 -17 -43t-43 -17q-25 0 -42 17
t-17 43v142zM1628 435q0 25 15 42q18 18 43 18q24 0 39 -18l102 -100q18 -18 18 -42t-18 -42t-42 -18q-25 0 -42 17l-100 103q-15 17 -15 40zM1681 1260q0 23 18 41l44 46q22 17 43 17q19 0 41 -17q18 -18 18 -42q0 -23 -18 -43l-44 -45q-17 -17 -41 -17q-25 0 -43 18
t-18 42zM1786 819q0 25 18 42q15 18 40 18h141q24 0 42 -18t18 -42t-18 -42t-42 -18h-141q-24 0 -41 18q-17 19 -17 42z" />
</svg>