<svg xmlns="http://www.w3.org/2000/svg" xmlns:xlink="http://www.w3.org/1999/xlink" version="1.1" viewBox="-10 0 2058 2048">
   <path fill="currentColor"
d="M569 836q-53 -113 15 -210q49 -70 147 -86l18 -2h19q135 5 198 122q29 52 14 120q-10 54 -39 98q-58 93 -124 152q-3 5 -10 8q-39 31 -79 2q-20 -13 -23 -16q-91 -96 -136 -188zM573 768q1 2 2 10.5t2 15.5q14 61 55 92q44 32 101 36q14 2 16 0t2 -16l-2 -24
q-12 -63 -60 -92q-9 -6 -79 -34q-10 -4 -25 -4t-12 16zM782 904q-1 12 3 16t17 2q4 0 9 -1t13.5 -2.5t14.5 -2.5q49 -13 81 -52q25 -30 39 -96q2 -10 -1.5 -13.5t-12.5 -2.5q-32 4 -51 12q-104 38 -112 140zM807 1412q-52 -111 16 -210q48 -69 147 -84l16 -4h20
q135 5 198 122q30 53 15 120q-11 53 -40 98q-52 86 -124 152q-2 1 -4 3.5t-3 3.5t-2 1q-39 31 -80 2q-15 -10 -23 -18q-92 -94 -136 -186zM811 1344q1 3 3 14q1 3 1.5 5.5t0.5 4v2.5q14 57 54 90q41 34 101 38q12 2 16 0q3 -2 3 -18l-4 -22q-12 -64 -59 -92q-8 -4 -79 -34
q-12 -4 -24 -4q-16 0 -13 16zM1020 1480q-1 12 3 16t17 2q4 0 9 -1t13.5 -2.5t14.5 -2.5q47 -12 81 -54q26 -31 39 -94q1 -8 -2 -14q-3 -4 -12 -2q-26 3 -51 12q-104 38 -112 140zM1085 836q-52 -111 16 -210q49 -70 147 -86l16 -2h20q135 5 198 122q30 53 15 120
q-11 53 -40 98q-58 93 -124 152q-1 2 -10 8q-40 30 -79 2q-20 -13 -23 -16q-91 -96 -136 -188zM1089 768l5 26q14 60 54 92q42 32 101 36q14 2 16 0q3 -4 3 -16l-4 -24q-12 -64 -59 -92q-8 -4 -79 -34q-10 -4 -24 -4q-16 0 -13 16zM1298 904q-1 12 3 16t17 2q4 0 9 -1
t13.5 -2.5t14.5 -2.5q49 -13 81 -52q25 -30 39 -96q2 -10 -1.5 -13.5t-12.5 -2.5q-32 4 -51 12q-104 38 -112 140z" />
</svg>