<svg xmlns="http://www.w3.org/2000/svg" xmlns:xlink="http://www.w3.org/1999/xlink" version="1.1" viewBox="-10 0 2058 2048">
   <path fill="currentColor"
d="M338 1352q0 -124 66 -282q68 -159 172 -306q222 -292 376 -434l70 -66q39 40 76 66q63 64 176 194q115 133 200 246q99 141 168 300q68 161 68 282q0 140 -54 265.5t-146 218.5q-94 94 -218 146q-128 54 -270 54q-138 0 -266 -52q-128 -54 -218 -144q-93 -93 -146 -218
q-54 -129 -54 -270zM548 1080q0 115 48 183.5t148 68.5q99 0 148 -68q49 -66 50 -184q-1 -118 -50 -186t-148 -68q-100 0 -148 69t-48 185zM694 1080v-32q0 -4 2 -30q1 -22 4 -30q2 -7 8 -24q4 -11 14 -16q10 -6 22 -6q18 0 30 12q11 11 16 36q4 24 6 42v48v48q-2 19 -6 42
q-5 23 -16 34q-12 12 -30 12q-10 0 -22 -6q-10 -5 -14 -16q-8 -20 -8 -22q-3 -9 -4 -30q-2 -27 -2 -30v-32zM746 1798h124l462 -996h-126zM1146 1522q1 115 50 184q49 68 148 68q100 0 148 -68q48 -66 50 -184q-2 -119 -50 -186q-48 -68 -148 -68q-98 0 -148 68
q-49 68 -50 186zM1292 1522v-50q3 -27 6 -40q4 -25 16 -36q10 -12 30 -12q12 0 22 6q8 4 16 18q6 12 8 22q3 8 4 30q1 9 1.5 16.5t0.5 13.5v32v32q0 4 -0.5 11.5t-1.5 18.5q-1 21 -4 30q-2 9 -8 22q-8 14 -16 18q-10 4 -22 4q-20 0 -30 -10q-12 -12 -16 -36q-3 -15 -6 -42
v-48z" />
</svg>