<svg xmlns="http://www.w3.org/2000/svg" xmlns:xlink="http://www.w3.org/1999/xlink" version="1.1" viewBox="-10 0 2068 2048">
   <path fill="currentColor"
d="M0 1024q0 -36 24 -60q26 -24 58 -24h198q32 0 56 26q22 23 22 58t-22 58q-23 24 -56 24h-198q-32 0 -58 -24q-24 -24 -24 -58zM276 1692q0 -33 22 -60l142 -136q22 -24 58 -24q33 0 56 22q24 22 24 56q0 37 -24 62l-138 136q-58 47 -118 0q-22 -24 -22 -56zM276 358
q0 -33 22 -60q28 -22 62 -22q32 0 56 22l138 142q24 21 24 58q0 34 -23 57t-57 23q-37 0 -58 -24l-142 -138q-22 -24 -22 -58zM522 1024q0 -134 68 -250q68 -118 182 -184q117 -68 252 -68q102 0 194 40t160 108t106 160q40 95 40 194q0 137 -66 252q-68 115 -184 182
q-114 68 -250.5 68t-251.5 -68q-115 -67 -182 -182q-68 -117 -68 -252zM942 1772q0 -32 24 -56t58 -24t58 24q24 22 24 56v192q0 36 -24 60t-58 24t-58 -24t-24 -60v-192zM942 280v-198q0 -34 24 -58t58 -24t58 24t24 58v198q0 33 -24 56q-24 22 -58.5 22t-57.5 -22
q-24 -23 -24 -56zM952 696q125 15 210 112q86 95 86 224q0 120 -75 211.5t-191 116.5q38 4 42 4q140 0 240 -100q100 -98 100 -240q0 -140 -100 -238t-240 -98q-31 0 -72 8zM1474 1550q0 -34 20 -54q22 -24 56 -24t56 24l142 136q24 26 24 60q0 32 -24 56q-58 45 -116 0
l-138 -136q-20 -24 -20 -62zM1474 498q0 -36 20 -58l138 -142q25 -22 58 -22q34 0 58 24t24 58t-24 58l-142 138q-24 24 -56 24q-34 0 -56 -24q-20 -22 -20 -56zM1690 1024q0 -34 24 -60q24 -24 56 -24h194q34 0 59 25t25 59t-26 58t-58 24h-194q-34 0 -56 -24
q-24 -24 -24 -58z" />
</svg>