<svg xmlns="http://www.w3.org/2000/svg" xmlns:xlink="http://www.w3.org/1999/xlink" version="1.1" viewBox="-10 0 2058 2048">
   <path fill="currentColor"
d="M266 1192q0 139 97 239t237 106q12 0 12 -11v-96q0 -12 -12 -12q-91 -8 -152 -72q-62 -65 -62 -154q0 -88 58 -153q59 -64 146 -72l36 -5q14 0 14 -12l6 -36q10 -111 96 -189q83 -76 198 -76q114 0 198 76q85 75 96 189l6 41q0 12 12 12h112q95 0 162 66q68 66 68 159
q0 89 -62 154q-62 64 -154 72q-14 0 -14 12v96q0 11 14 11q139 -4 236 -105q96 -102 96 -240q0 -94 -48 -173q85 -77 108 -179l10 -51q2 -1 2 -4q0 -8 -12 -11l-40 -12q-58 -16 -102 -58q-40 -39 -58 -86q-18 -45 -18 -91q0 -20 6 -55l10 -43q3 -11 -10 -16l-54 -17
q-48 -11 -88 -11q-37 0 -78 9q-36 8 -82 29q-43 19 -84 55q-40 36 -70 85q-72 -31 -162 -31q-148 0 -262 91t-146 234q-114 27 -190 121q-76 93 -76 214zM800 1516q-4 15 10 15h150l-90 289h20l290 -390q4 -4 2 -9q-1 -5 -8 -5h-154l160 -294q8 -15 -10 -15h-204
q-10 0 -16 10zM1204 627q35 -59 94 -91q57 -31 118 -31q16 0 20 1v22q0 98 54 190q55 91 150 137q-16 38 -52 74q-95 -82 -224 -82h-22q-30 -132 -138 -220z" />
</svg>