<svg xmlns="http://www.w3.org/2000/svg" xmlns:xlink="http://www.w3.org/1999/xlink" version="1.1" viewBox="-10 0 2067 2048">
   <path fill="currentColor"
d="M1 1480q0 24 18 41q19 17 43 17h1304q23 0 42 -17q18 -16 18 -41q0 -24 -18 -42q-17 -17 -42 -17h-1304q-26 0 -43 17q-18 18 -18 42zM184 1262q0 25 17 41q18 19 42 19h1304q25 0 41 -18q17 -19 17 -42q0 -24 -17 -41q-16 -16 -41 -16h-1304q-25 0 -42 16t-17 41z
M192 1095q0 9 11 9h100q7 0 15 -11q26 -56 74 -89q50 -35 109 -39l37 -5q12 0 12 -13l5 -35q10 -112 95 -189q82 -75 199 -75q114 0 198 75t96 187l5 40q0 12 13 12h113q66 0 122 36q55 36 82 95q8 11 14 11h100q14 0 9 -15l-13 -39q79 -97 79 -231q0 -72 -29 -141
q-27 -65 -77 -116q-48 -49 -116 -78q-69 -29 -143 -29q-161 0 -266 117q-87 -43 -187 -43q-147 0 -260 91q-114 92 -146 235q-186 49 -249 234q-2 2 -2 6zM305 1695q0 26 19 42q16 18 41 18h1306q23 0 41 -18t18 -42t-17 -40t-42 -16h-1306q-25 0 -42 16q-18 17 -18 40z
M763 338q0 25 16 41l45 44q18 19 41 19q24 0 41 -17q18 -18 18 -43t-17 -43l-45 -43q-16 -18 -42 -18q-25 0 -41 17t-16 43zM1133 643q71 -71 169 -71q102 0 175 73q72 72 72 174q0 70 -34 126q-100 -100 -241 -100h-24q-30 -122 -117 -202zM1245 278q0 24 17 41t40 17
q25 0 44 -17q18 -17 18 -41v-142q0 -23 -19 -42q-17 -17 -43 -17q-24 0 -40 17q-17 19 -17 42v142zM1627 437q0 23 17 42q39 38 86 0l99 -100q17 -19 17 -44t-17 -42t-41 -17q-25 0 -42 17l-102 103q-17 19 -17 41zM1684 1259q0 25 18 42l44 45q17 17 41 17q20 0 42 -17
q17 -19 17 -45q0 -24 -17 -39l-45 -45q-19 -17 -42 -17q-25 0 -41 17q-17 19 -17 42zM1787 819q0 25 18 42q15 18 41 18h143q25 0 41 -18q17 -19 17 -42q0 -24 -17 -41t-41 -17h-143q-25 0 -42 17t-17 41z" />
</svg>