<svg xmlns="http://www.w3.org/2000/svg" xmlns:xlink="http://www.w3.org/1999/xlink" version="1.1" viewBox="-10 0 2058 2048">
   <path fill="currentColor"
d="M266 1190q0 140 96 240q97 99 238 107q12 0 12 -13v-93q0 -12 -12 -12q-89 -4 -152 -71q-64 -66 -64 -158q0 -85 60 -150q58 -64 146 -75l36 -3q14 0 14 -12l4 -38q11 -111 96 -189q84 -76 200 -76q114 0 198.5 76t97.5 189l4 40q0 13 12 13h114q94 0 161 67t67 158
q0 92 -64 158q-63 67 -152 71q-12 0 -12 12v93q0 13 12 13q89 -3 168 -51q78 -47 122 -125q44 -79 44 -171t-48 -170q82 -79 108 -180l8 -51q2 0 2 -4q0 -8 -10 -11l-40 -12q-60 -16 -102 -57q-43 -41 -60 -85q-18 -45 -18 -89q0 -32 6 -60l10 -42q4 -11 -10 -17l-54 -17
q-45 -10 -88 -10q-38 0 -78 9q-39 9 -82 28q-45 20 -84.5 55t-69.5 84q-87 -32 -162 -32q-149 0 -262 91q-114 91 -148 235q-113 27 -190 121q-74 93 -74 214zM678 1252q0 39 30 68q28 28 70 28t70 -28t28 -68q0 -26 -24 -71t-44 -69l-30 -30l-24 29q-27 29 -52 72
q-24 42 -24 69zM888 1529q0 70 46 116q49 47 116 47q68 0 116 -48q46 -47 46 -115q0 -59 -54 -139q-44 -57 -90 -104q-9 -6 -18 -15l-16 15q-41 38 -90 104q-23 31 -40 72q-16 36 -16 67zM990 1065q0 26 20 46q18 19 48 19q26 0 45 -19t19 -46q0 -45 -64 -113l-18 19
q-17 19 -34 49q-16 28 -16 45zM1202 625q36 -60 94 -90q58 -31 120 -31q10 0 18 2v21q0 101 56 190q57 93 152 138q-17 38 -52 71q-96 -79 -224 -79h-24q-31 -136 -140 -222z" />
</svg>