<svg xmlns="http://www.w3.org/2000/svg" xmlns:xlink="http://www.w3.org/1999/xlink" version="1.1" viewBox="-10 0 2058 2048">
   <path fill="currentColor"
d="M276 1193q0 67 26 131q25 62 71 108q44 44 106 73q63 29 131 32q11 0 11 -12v-94q0 -11 -11 -11q-92 -6 -153 -72q-62 -67 -62 -155t59 -153q58 -64 146 -72l36 -4q14 0 14 -13l4 -35q10 -113 96 -189q85 -76 199 -76q115 0 199 75t96 187l5 41q0 12 13 12h112
q94 0 161 67t67 160q0 88 -62 155q-62 66 -153 72q-13 0 -13 11v94q0 12 13 12q139 -6 236 -106t97 -238q0 -75 -30 -138q82 -100 82 -234q0 -100 -49 -183q-49 -84 -133 -133q-85 -50 -182 -50q-163 0 -271 121q-91 -45 -188 -45q-146 0 -261 92q-114 91 -147 236
q-115 27 -190 120t-75 214zM658 1658q0 42 45 54q22 8 44 -4q23 -12 29 -35l104 -399q6 -23 -6 -44q-12 -20 -38 -28q-22 -7 -44 5q-21 12 -27 36l-104 398q-3 12 -3 17zM839 1871q0 13 6 26q11 21 35 30h7q2 0 4.5 0.5t3.5 0.5t3 0.5t3 0.5q45 0 53 -46l160 -609
q7 -22 -5 -44q-12 -21 -34 -28q-25 -7 -47 5q-23 13 -27 36l-160 610q-2 14 -2 18zM1128 1658q0 15 11 32q10 15 32 22q8 2 15 2q18 0 34 -9t22 -32l105 -399q8 -21 -5 -43q-12 -22 -36 -29q-25 -7 -46 5q-20 12 -25 36l-104 398q-3 12 -3 17zM1235 646q70 -70 173 -70
q99 0 173 72q72 71 72 173q0 65 -36 128q-100 -100 -243 -100h-22q-30 -122 -117 -203z" />
</svg>