<svg xmlns="http://www.w3.org/2000/svg" xmlns:xlink="http://www.w3.org/1999/xlink" version="1.1" viewBox="-10 0 2068 2048">
   <path fill="currentColor"
d="M0 1129q0 26 18 42q19 17 42 17h314q21 0 38 -14q17 -13 22 -35l94 -554l170 1385q5 23 20 37q17 15 38 15q24 0 40.5 -15t21.5 -37l130 -1017l110 295q5 17 20 28q16 11 34 11h6q20 -2 34 -14q15 -14 20 -32l160 -721l74 1385q2 23 16 39q16 17 38 18q24 2 40 -11
q18 -13 22 -35l174 -728h292q23 0 42 -17q18 -16 18 -42q0 -25 -18 -43q-18 -17 -42 -17h-340q-21 0 -36 12q-17 15 -22 33l-86 372l-76 -1404q-2 -22 -18 -39q-13 -15 -36 -17q-25 -2 -42 11q-18 14 -22 36l-210 943l-122 -332q-9 -20 -26 -30q-18 -10 -38 -9q-19 1 -34 17
q-14 13 -18 35l-104 789l-160 -1318q-5 -22 -20 -37q-13 -13 -38 -15q-23 -1 -40 12q-16 13 -20 37l-156 904h-264q-24 0 -42 17q-18 18 -18 43z" />
</svg>