<svg xmlns="http://www.w3.org/2000/svg" xmlns:xlink="http://www.w3.org/1999/xlink" version="1.1" viewBox="-10 0 2058 2048">
   <path fill="currentColor"
d="M84 1190q0 140 98 240q98 101 236 107q12 0 12 -12v-94q0 -11 -12 -11q-88 -4 -151 -72t-63 -158q0 -85 58 -150q58 -63 148 -74l36 -4q14 0 14 -11l4 -38q10 -112 96 -190q83 -76 198 -76t199.5 76t96.5 190l6 40q0 13 12 13h112q94 0 162 66q66 66 66 158q0 90 -63 158
t-151 72q-14 0 -14 11v94q0 12 14 12q137 -4 236 -106q96 -100 96 -241q0 -77 -28 -139q82 -103 82 -231q0 -99 -50 -184q-50 -84 -134 -133q-83 -49 -182 -49q-163 0 -270 121q-88 -46 -190 -46q-147 0 -261.5 92t-146.5 234q-115 27 -190 121q-76 93 -76 214zM460 1668
q0 18 12 34q13 17 34 23q12 3 20 3q41 0 52 -44l112 -410q6 -23 -6 -46q-13 -21 -38 -26q-23 -8 -43.5 4t-28.5 35l-110 412q-4 13 -4 15zM642 1883q0 20 10 36q11 17 36 21q8 2 18 2q18 0 32 -12q15 -12 20 -33l166 -623q7 -25 -4 -45q-12 -20 -36 -27q-25 -8 -46 4t-26 35
l-168 623q0 5 -0.5 9.5t-1 7zM672 334q0 24 18 42l44 46q21 16 44 16q22 0 40 -16q18 -17 18 -42q0 -24 -16 -44l-46 -45q-19 -18 -42 -18q-24 0 -42 18t-18 43zM932 1670q0 16 10 33q11 16 32 22q12 3 18 3q19 0 34 -10q16 -10 20 -34l112 -410q6 -25 -6 -45
q-11 -20 -34 -27q-26 -7 -46 4q-22 13 -28 35l-110 412q-2 15 -2 17zM1044 642q73 -70 174 -70q100 0 174 73q72 72 72 175q0 66 -36 129q-101 -102 -244 -102h-22q-30 -121 -118 -205zM1158 276q0 25 16 41q19 17 44 17q24 0 40 -16t16 -42v-143q0 -27 -16 -43
q-16 -17 -40 -17q-28 0 -44 17q-16 19 -16 43v143zM1542 435q0 26 20 41q15 17 38 18q24 2 44 -18l100 -100q18 -18 18 -43q0 -27 -18 -43q-18 -17 -42 -17q-21 0 -40 18l-100 100q-20 18 -20 44zM1600 1261q0 24 16 44l46 44q16 14 42 14v1q24 0 41 -17t17 -42
q0 -26 -18 -41l-44 -45q-20 -17 -42 -17q-26 0 -42 17q-16 19 -16 42zM1700 820q0 24 18 41q18 18 44 18h142q26 0 43 -17t17 -42q0 -26 -18 -43q-18 -18 -42 -18h-142q-26 0 -44 18t-18 43z" />
</svg>