<svg xmlns="http://www.w3.org/2000/svg" xmlns:xlink="http://www.w3.org/1999/xlink" version="1.1" viewBox="-10 0 2058 2048">
   <path fill="currentColor"
d="M302 1192q0 -121 75 -214q76 -94 190 -121q33 -143 147 -234q113 -91 261 -91q143 0 256 89q112 88 147 229h22q94 0 173 45q78 44 126 125q47 79 47 172q0 91 -44 170t-121 126q-76 46 -167 49q-14 0 -14 -11v-93q0 -13 14 -13q89 -5 152 -71t63 -157q0 -90 -68 -158
q-67 -67 -161 -67h-112q-12 0 -12 -12l-6 -40q-12 -113 -97 -189t-198 -76q-116 0 -199 76q-85 77 -95 189l-5 37q0 13 -14 13l-36 2q-89 11 -146 74q-59 65 -59 151q0 91 63 157q64 67 152 71q11 0 11 13v93q0 11 -11 11q-140 -6 -237 -106t-97 -239zM675 1658q0 -8 2 -14
l114 -402q6 -20 23 -31q16 -10 32 -10q3 0 17 2q25 4 37 25q13 23 6 47l-114 399q-13 44 -57 44q-5 0 -8 -1q-2 -1 -5 -1l-2 -1q-23 -6 -34 -23t-11 -34zM858 1853l169 -611q4 -20 21 -31q16 -10 34 -10q5 0 19 2q24 6 34 27q11 22 5 45l-169 612q-5 18 -21 30
q-17 12 -35 12q-11 0 -18 -3q-20 -4 -35 -27q-12 -18 -4 -46zM1145 1659q0 -3 3 -15l113 -402q6 -20 21 -31q14 -10 33 -10q4 0 18 2q22 6 32 21q11 16 11 33q0 6 -1 10l-2 8l-113 399q-4 19 -20 32q-15 12 -35 12l-17 -3q-21 -6 -32 -23t-11 -33z" />
</svg>