<svg xmlns="http://www.w3.org/2000/svg" xmlns:xlink="http://www.w3.org/1999/xlink" version="1.1" viewBox="-10 0 2058 2048">
   <path fill="currentColor"
d="M297 880q0 22 15 34q14 14 36 14h889q23 0 39 16q17 18 17 41t-17 40t-39 17q-25 0 -41 -18q-17 -14 -34 -14q-21 0 -35 14t-14 34t15 34q46 46 109 46q62 0 107 -45t45 -109t-45 -109t-107 -45h-889q-21 0 -36 15t-15 35zM297 706q0 22 15 34q16 14 36 14h1180
q63 0 108 -45t45 -109q0 -62 -45 -107t-108 -45q-64 0 -108 44q-14 17 -14 36.5t14 33.5q13 14 35 14q18 0 35 -14q15 -16 38 -16q22 0 40 16q16 15 16 38q0 26 -16 42t-40 16h-1180q-21 0 -36 15t-15 33zM1399 1594h211l141 -682h-211z" />
</svg>