<svg xmlns="http://www.w3.org/2000/svg" xmlns:xlink="http://www.w3.org/1999/xlink" version="1.1" viewBox="-10 0 2058 2048">
   <path fill="currentColor"
d="M274 1190q0 140 98 240q96 99 236 107q12 0 12 -13v-93q0 -12 -12 -12q-88 -4 -152 -71q-62 -66 -62 -158q0 -85 58 -150q59 -64 146 -75l36 -5q14 0 14 -13l6 -35q10 -111 96 -189q83 -76 198 -76t199.5 76t96.5 189l6 41q0 12 12 12h112q96 0 162 66t66 159
q0 92 -62 158q-64 67 -152 71q-14 0 -14 12v93q0 13 14 13q88 -3 168 -51q77 -47 120 -125q44 -79 44 -171q0 -76 -30 -139q84 -101 84 -232q0 -98 -50 -183q-50 -84 -134 -133q-83 -49 -182 -49q-164 0 -270 120q-86 -45 -190 -45q-148 0 -262 91q-113 91 -146 235
q-114 27 -190 121q-76 93 -76 214zM648 1676q10 23 32 32q22 11 44.5 2t31.5 -31q8 -23 0 -45q-10 -23 -30 -33q-21 -9 -44 0q-22 9 -32 30q-11 17 -2 45zM692 1479q0 16 12 32q11 16 32 22q22 7 44 -4q21 -10 30 -39l70 -217q7 -25 -6 -46q-14 -22 -38 -26q-24 -8 -44 4
q-20 11 -28 35l-70 222zM822 1870q0 8 4 20q11 24 32 31q12 6 24 6q6 0 20 -4q22 -9 32.5 -32t-0.5 -46q-10 -23 -30 -32q-22 -9 -44 -1q-20 9 -28 25q-10 16 -10 33zM874 1684q0 17 10.5 33t33.5 20q4 0 8 1t8 1q46 -3 56 -43l124 -423q7 -26 -4 -45q-13 -20 -36 -27
q-24 -8 -44 4q-21 12 -28 35l-126 423v7q0 2 -1 4t-1 3v3.5v3.5zM1114 1656q0 10 2 22q9 21 32 30q12 5 25.5 5t20.5 -4q22 -9 32 -30q8 -22 0 -45q-7 -22 -28 -33q-24 -9 -46 0q-23 9 -34 30q-4 12 -4 25zM1164 1479q0 37 42 52q14 4 22 4q12 0 22 -6q18 -9 28 -39l70 -217
q7 -24 -4 -44q-12 -20 -36 -28q-25 -8 -44 4q-23 14 -30 35l-68 218q-2 18 -2 21zM1234 642q74 -70 174 -70t174 73q72 72 72 174q0 65 -36 128q-102 -102 -244 -102h-22q-32 -120 -118 -203z" />
</svg>