<svg xmlns="http://www.w3.org/2000/svg" xmlns:xlink="http://www.w3.org/1999/xlink" version="1.1" viewBox="-10 0 2058 2048">
   <path fill="currentColor"
d="M222 912q0 -130 84 -232t214 -132q31 -154 158 -254q125 -100 288 -100q158 0 279 95.5t159 250.5h26q104 0 196 46q91 44 146 124q54 77 54 170q0 156 -120 264q0 50 -30 112q-31 65 -80 114q-51 52 -102 64q-19 87 -80 144q-65 60 -151 80q42 42 42 98q0 68 -49 116
q-48 48 -117 48q-68 0 -116 -48q-49 -48 -49 -116q0 -10 4 -24.5t4 -25.5h-8q-81 0 -140 -58q-58 -58 -58 -140q0 -33 34 -98q-69 -37 -109 -118h-115q-153 -13 -258 -120q-106 -107 -106 -260z" />
</svg>