<svg xmlns="http://www.w3.org/2000/svg" xmlns:xlink="http://www.w3.org/1999/xlink" version="1.1" viewBox="-10 0 2058 2048">
   <path fill="currentColor"
d="M82 1484q0 26 19 42q17 17 42 17h410q25 0 47 20q21 20 21 47q0 28 -21 49q-20 20 -47 20t-48 -21q-20 -17 -42 -17q-25 0 -42 17t-17 41q0 25 17 42q56 56 132 56t131 -55q54 -54 54 -132q0 -77 -54 -131q-55 -55 -131 -55h-410q-25 0 -43 18t-18 42zM82 1274
q0 25 19 41q17 17 42 17h764q77 0 132 -55q54 -54 54 -132q0 -76 -54 -130t-132 -54t-131 53q-16 16 -16 42t16 42t41 16q26 0 43 -16q20 -20 47 -20q28 0 48 20t20 47t-20 49q-19 20 -48 20h-764q-25 0 -43 18t-18 42zM485 818q0 -25 18 -43q19 -17 42 -17h142q23 0 40 18
q16 17 16 42t-16 42q-17 18 -40 18h-142q-25 0 -43 -18q-17 -17 -17 -42zM684 336q0 -26 16 -43q20 -17 45 -17q22 0 41 17l99 103q17 15 17 41q0 25 -17 42q-16 16 -41 16q-26 0 -41 -17l-103 -99q-16 -17 -16 -43zM862 810v-5q1 -95 51 -176q49 -79 133 -127
q83 -47 179 -47q71 0 140 29q66 28 116 78q48 48 77 116q29 69 29 140q0 97 -48 181q-47 83 -132 132q-86 50 -180 50h-15q-6 0 -12 -6q-5 -5 -5 -12v-85q0 -14 15 -14h17q100 0 172 -72t72 -174t-72 -172q-73 -71 -174 -71q-99 0 -170 68q-71 67 -75 165q0 6 -6 12
q-7 7 -18 7h-79q-15 0 -15 -17zM1165 1498v-138q0 -26 18 -42q19 -17 42 -17q25 0 42 17t17 42v138q0 26 -17 43q-18 18 -42 18t-42 -18t-18 -43zM1165 280v-143q0 -23 18 -41t42 -18t42 18q17 17 17 41v143q0 24 -17 40t-42 16t-42 -16q-18 -17 -18 -40zM1550 1198
q0 -23 16 -39q15 -16 39 -16q26 0 42 16l101 99q17 19 17 43t-17 41q-42 33 -83 0l-99 -99q-16 -19 -16 -45zM1550 437q0 -25 16 -41l99 -103q19 -17 41 -17q24 0 42 18q17 17 17 42q0 26 -17 43l-101 99q-20 17 -42 17q-23 0 -39 -16t-16 -42zM1707 818q0 -24 17 -43
q17 -17 40 -17h141q24 0 42 18q19 19 19 42t-19 42q-18 18 -42 18h-141q-24 0 -40 -18q-17 -19 -17 -42z" />
</svg>