<svg xmlns="http://www.w3.org/2000/svg" xmlns:xlink="http://www.w3.org/1999/xlink" version="1.1" viewBox="-10 0 2058 2048">
   <path fill="currentColor"
d="M128 1919q0 -53 34 -90t83 -37v-2l1548 4q4 -1 9 -2h3q47 1 82 39q35 37 33 90q0 54 -34 89q-35 37 -82 37v1l-1534 -3q-24 2 -26 2q-49 -2 -83 -38q-35 -37 -33 -90zM225 1276q-2 -78 19 -179q11 -56 52 -161q4 -9 15 -33q2 4 4 6l1 1q2 1 2 2q18 78 57 141q37 58 96 82
q51 20 129 21h9q2 0 5.5 0.5t4.5 0.5q-59 -59 -93 -118q-52 -90 -67 -213q-11 -99 11 -231q5 -28 34 -119q27 -82 75 -151q56 -84 164 -177q65 -56 183 -126q4 -3 41 -22q0 1 -0.5 3t-0.5 3v4v3q-41 97 -57 204q-11 94 28 174q30 64 108 136q34 34 70 68t82 80l30 30
q46 -67 52 -159q7 -96 -17 -212q0 -5 1 -13q8 5 36 28q100 90 151 158q85 110 124 205q34 83 44 165q10 75 9 123q-1 133 -30 231q-13 41 -22 60q44 -12 77 -31q42 -26 70 -77t45 -116q0 -1 4 -5q0 1 1 2.5t2 3.5l2 4l6 12q21 51 32 114q13 62 8 133q-3 52 -18 95
q-13 37 -27 68q-31 63 -73 115q-10 14 -16 19h-1291q-4 -4 -8 -7q-2 -1 -3.5 -2.5t-2.5 -3t-2 -2.5q-48 -45 -97 -133q-17 -30 -35 -82q-21 -56 -24 -122z" />
</svg>