<svg xmlns="http://www.w3.org/2000/svg" xmlns:xlink="http://www.w3.org/1999/xlink" version="1.1" viewBox="-10 0 2058 2048">
   <path fill="currentColor"
d="M264 1190q0 116 69 207q69 92 180 125l-45 118q-4 14 10 14h147l-90 292h20l294 -392q5 -5 1 -10q-3 -5 -9 -5h-152l172 -323q7 -15 -9 -15h-206q-10 0 -16 10l-74 201q-76 -20 -124 -81q-49 -62 -49 -141q0 -85 59 -150q58 -64 147 -75l36 -5q14 0 14 -13l5 -35
q10 -111 96 -189q85 -77 198 -77q114 0 200 77q85 76 97 189l5 40q0 13 12 13h113q95 0 162 66t67 159q0 89 -63 155q-62 65 -153 71q-13 0 -13 14v94q0 13 13 13q137 -4 236 -106q97 -100 97 -241q0 -89 -46 -170q79 -76 105 -183l13 -48q1 -1 1 -4q0 -8 -10 -11l-43 -12
q-59 -18 -102 -59q-40 -38 -59 -85q-17 -41 -17 -87q0 -32 7 -60l8 -42q3 -11 -10 -17l-55 -17q-42 -9 -87 -9q-42 0 -78 8q-44 10 -83 28q-45 21 -82 55q-39 36 -69 84q-90 -32 -166 -32q-148 0 -261 91q-114 91 -147 235q-115 27 -191 121q-75 93 -75 214zM833 1878
q0 15 11 32t32 23q16 3 19 3q11 0 25 -7q23 -11 30 -36l19 -73q7 -25 -5 -45q-12 -21 -37 -28q-23 -6 -44 6q-22 12 -29 37l-19 70zM927 1546q0 46 42 53q15 3 19 3q39 0 54 -44l21 -71q6 -23 -6 -44t-38 -29q-23 -7 -44 5q-22 12 -29 37l-17 71q-2 12 -2 19zM1122 1663
q1 16 12 33q10 16 34 24q15 4 23 4q35 0 49 -47l17 -71q8 -25 -4 -46q-13 -22 -35 -29q-26 -6 -47 6t-26 38l-20 71q0 1 -2 9q-1 4 -1 8zM1204 625q34 -58 94 -90q59 -32 122 -32h15v22q0 67 24 130q24 64 71 115q50 55 112 85q-18 39 -53 71q-96 -81 -224 -81h-23
q-30 -131 -138 -220zM1218 1328q0 46 45 58q10 2 21 2q38 0 51 -45l20 -72q0 -1 0.5 -6t0.5 -9q1 -17 -10 -35q-11 -17 -34 -23q-3 0 -7 -1t-9 -1q-16 0 -33 11t-23 33l-20 71q0 3 -1 7t-1 10z" />
</svg>