<svg xmlns="http://www.w3.org/2000/svg" xmlns:xlink="http://www.w3.org/1999/xlink" version="1.1" viewBox="-10 0 2058 2048">
   <path fill="currentColor"
d="M164 880q0 22 16 34q14 14 36 14h888q24 0 40 16q16 18 16 41t-17 40t-39 17q-24 0 -40 -18q-18 -14 -34 -14q-22 0 -36 14t-14 34t16 34q46 46 108 46t107 -45t45 -109t-45 -109t-107 -45h-888q-22 0 -37 15t-15 35zM164 706q0 22 16 34q15 14 36 14h1180q62 0 107 -45
t45 -109q0 -62 -45 -107t-107 -45q-64 0 -108 44q-14 17 -14 36.5t14 33.5q12 14 34 14q18 0 36 -14q14 -16 38 -16q22 0 40 16q16 15 16 38q0 26 -16 42t-40 16h-1180q-22 0 -37 15t-15 33zM1276 1408q0 94 72 142q76 48 198 48q77 0 136 -14q56 -15 90 -38q33 -23 54 -54
q20 -31 26 -56q8 -30 8 -52q0 -53 -32 -92q-29 -37 -80 -48l2 -2q58 -7 96 -50q38 -45 38 -102q0 -48 -24 -84q-23 -35 -60 -52q-39 -18 -78 -26q-44 -8 -88 -8q-60 0 -110 12q-47 12 -78.5 32.5t-51.5 45.5q-20 28 -28 52q-8 28 -8 52q0 42 24 78q22 31 64 46v2
q-73 8 -121.5 52.5t-48.5 115.5zM1456 1388q0 -44 36 -65t88 -21t76 24q22 22 22 50v12q0 37 -32 54q-32 18 -82 18h2q-24 0 -34 -2q-20 -4 -36 -10q-19 -9 -28 -22q-12 -16 -12 -38zM1522 1126q0 -41 32 -60q33 -18 76 -18q38 0 66 16q26 17 26 54q0 10 -5 21.5t-13 22.5
q-12 13 -34 20q-24 8 -56 8q-50 0 -72 -20q-20 -19 -20 -44z" />
</svg>