<svg xmlns="http://www.w3.org/2000/svg" xmlns:xlink="http://www.w3.org/1999/xlink" version="1.1" viewBox="-10 0 2058 2048">
   <path fill="currentColor"
d="M168 880q0 22 15 34q14 14 36 14h889q23 0 39 16q17 18 17 41t-17 40t-39 17q-24 0 -41 -18q-17 -14 -34 -14q-21 0 -35 14t-14 34t15 34q46 46 109 46q62 0 107 -45t45 -109t-45 -109t-107 -45h-889q-21 0 -36 15t-15 35zM168 706q0 22 15 34q16 14 36 14h1180
q63 0 108 -45t45 -109q0 -62 -45 -107t-108 -45q-64 0 -108 44q-14 17 -14 36.5t14 33.5q13 14 35 14q18 0 35 -14q15 -16 38 -16q22 0 40 16q16 15 16 38q0 26 -16 42t-40 16h-1180q-21 0 -36 15t-15 33zM1287 1394.5q0 33.5 14 67.5q12 31 42 64q27 30 82 50q53 18 125 18
q154 0 225 -61.5t71 -166.5q0 -46 -26 -86q-25 -38 -68 -42v-2q56 -9 92 -50q36 -40 36 -96q0 -42 -14 -70q-15 -30 -38 -50q-24 -20 -54 -32q-33 -12 -65 -16q-37 -6 -68 -6q-117 0 -195 58q-76 57 -94 172h174q6 -40 32 -62t67 -22q36 0 58 16t22 44q0 60 -109 60h-40
l-24 120h37q88 0 88 60q0 39 -29 60q-30 22 -71 22q-48 0 -71 -28q-22 -29 -18 -76h-177q-4 21 -4 54.5z" />
</svg>