<svg xmlns="http://www.w3.org/2000/svg" xmlns:xlink="http://www.w3.org/1999/xlink" version="1.1" viewBox="-10 0 2058 2048">
   <path fill="currentColor"
d="M82 1192q0 118 70 210q71 93 179 123q9 1 17 -5l82 -98q-94 0 -160 -68q-67 -69 -67 -162q0 -85 60 -151q59 -65 147 -75l34 -2q13 0 13 -13l6 -38q11 -113 96 -189t199 -76q115 0 200 76q87 77 97 189l4 42q4 11 15 11h115q91 0 158 67t67 159q0 87 -59 154
q-58 65 -144 73q-51 6 -63 20l-153 196q-14 18 -11 44q3 23 22 39q15 18 41 15t42 -25l134 -171q85 -9 156 -57q72 -49 112 -125q41 -77 41 -163q0 -78 -29 -140q82 -100 82 -232q0 -77 -29 -142q-30 -68 -79 -117q-47 -47 -117 -78q-65 -29 -143 -29q-156 0 -270 121
q-84 -46 -189 -46q-146 0 -261 92t-145 235q-118 27 -194 121t-76 215zM354 1766q7 22 32 33q23 11 46 1t32 -33q10 -19 0 -43q-9 -22 -31 -33q-22 -10 -46 -1q-22 9 -31 32q-9 26 -2 44zM480 1575v7q2 24 21 39t43 14t40 -21l152 -196q14 -19 13 -44t-20 -40
q-20 -16 -44 -13q-26 3 -42 22l-150 195q-13 16 -13 37zM516 1914q0 10 3 20q10 24 32 33q11 4 25 4q10 0 22 -3q22 -9 31 -31q10 -22 1 -46q-9 -23 -31 -32q-22 -10 -47 -1q-24 9 -31 31q-5 12 -5 25zM632 1748v7q2 24 23 41q15 17 41 14q27 -3 42 -24l289 -364
q15 -21 12 -45q-3 -25 -22 -41q-19 -15 -43 -12t-39 22l-290 366q-13 14 -13 36zM672 335q0 26 19 41l43 46q16 16 38 18q21 3 42 -16q22 -20 22 -44q0 -23 -17 -42l-46 -45q-15 -17 -40 -17q-24 0 -43 17q-18 17 -18 42zM877 1828q0 12 5 22q9 23 31 32q12 5 24 5
q8 0 21 -4q23 -8 32 -32q11 -24 2 -46q-9 -23 -31 -32q-22 -10 -47 -1q-23 9 -32 31q-5 13 -5 25zM1045 642q73 -67 172 -67q103 0 177 72q73 72 73 173q0 69 -36 129q-100 -101 -242 -101h-24q-29 -121 -120 -206zM1158 276q0 25 17 41t42 16q27 0 44 -16t17 -41v-145
q0 -23 -18 -41t-43 -18q-24 0 -41 17q-18 18 -18 42v145zM1547 435q0 25 15 41q18 18 43 18t40 -18l103 -100q17 -17 17 -43q0 -24 -18 -42t-42 -18t-42 17l-101 103q-15 17 -15 42zM1601 1264q0 25 17 42l45 44q18 18 38 19h4q18 0 43 -19q17 -17 17 -41q0 -23 -17 -43
l-45 -44q-16 -17 -42 -17t-43 17t-17 42zM1705 820q0 25 17 42q16 19 42 19h142q25 0 43 -18q17 -17 17 -43q0 -25 -17 -41t-43 -16h-142q-26 0 -42 16q-17 17 -17 41z" />
</svg>