<svg xmlns="http://www.w3.org/2000/svg" xmlns:xlink="http://www.w3.org/1999/xlink" version="1.1" viewBox="-10 0 2058 2048">
   <path fill="currentColor"
d="M306 1576q0 -22 1 -28v-6v-6q0 -2 0.5 -3l0.5 -1v-4q0 -2 0.5 -3l0.5 -1v-2q0 -6 1 -10q2 -8 2 -10v-2l0.5 -1.5t0.5 -2.5v-4l8 -34l1 -2l3 -14q1 0 1 -2q1 0 1 -2v-2q4 -16 9 -26q0 -2 2 -4q1 0 4 -14q24 -53 59 -100l5 -6l2 -4t3 -4l6 -4q1 -2 4 -6q1 0 3 -4q4 -3 6 -8
l6 -6l6 -6l705 -772l-36 204l631 -676l-387 754l387 -292l-350 704l251 -174l-434 774l-2 4l-2 4l-2 4l-2 4q-1 0 -1.5 2l-0.5 2l-2 4q-60 117 -172 188q-112 70 -247 70q-129 0 -237 -64q-109 -63 -172 -172q-63 -107 -63 -236zM417 1576q0 148 106 254t255 106
q114 0 205 -66q95 -68 131 -170q23 -56 23 -124q0 -150 -105 -255t-254 -105q-139 0 -241 94q-56 48 -88 118q-32 71 -32 148z" />
</svg>