<svg xmlns="http://www.w3.org/2000/svg" xmlns:xlink="http://www.w3.org/1999/xlink" version="1.1" viewBox="-10 0 2058 2048">
   <path fill="currentColor"
d="M195 1479q0 -25 18 -42q19 -17 43 -17h625q25 0 41 16q17 17 17 43q0 25 -17 42q-16 16 -41 16h-625q-26 0 -43 -16q-18 -17 -18 -42zM378 1266q0 -26 19 -42q15 -15 42 -15h626q25 0 41 16t16 41q0 26 -16 43t-41 17h-626q-25 0 -43 -18t-18 -42zM422 1104q0 9 11 9h100
q11 0 16 -9q25 -59 72 -95q48 -36 110 -41l38 -5q12 0 12 -12l4 -36q12 -114 97 -190q84 -75 200 -75q115 0 198 74q82 73 97 189l6 41q0 11 12 11h112q92 0 161 67q67 66 67 161q0 91 -68 159t-160 68h-480q-13 0 -13 11v94q0 12 13 12h480q71 0 135 -27t110 -73
q45 -45 73 -110t28 -134q0 -94 -46 -173q-47 -80 -126 -126t-174 -46h-22q-35 -143 -146 -230q-113 -89 -257 -89q-148 0 -262 93t-144 236q-91 21 -158 85q-68 65 -95 154v1q-1 2 -1 6zM501 1695q0 -25 19 -42q15 -16 41 -16h626q26 0 43 16t17 42q0 24 -18 42t-42 18h-626
q-24 0 -42 -18t-18 -42z" />
</svg>