<svg xmlns="http://www.w3.org/2000/svg" xmlns:xlink="http://www.w3.org/1999/xlink" version="1.1" viewBox="-10 0 2058 2048">
   <path fill="currentColor"
d="M216 1994q-20 -44 10 -86l148 -284q1 -5 12 -16q8 -8 41 -31l7.5 -5.5t26.5 -19.5t39 -28q138 -97 178 -126l192 -318q26 -43 76 -43h75q-30 35 -48 63q-19 29 -40 91q-19 56 -19 114q0 61 29 133q30 75 94 148q44 50 53 99q8 47 -11 88q-20 40 -63 79q-42 37 -93 66
q-55 31 -114 56q-60 26 -112 43q-66 22 -99 31h-300q-27 0 -49 -15q-24 -16 -33 -39zM509 412q0 -74 48 -132q47 -58 123 -76q18 -89 91 -147q71 -57 165 -57q90 0 160 55q69 55 92 144h15q91 0 159 57t68 138q0 89 -69 152q0 45 -38 99q-39 55 -84 66q-11 50 -45 83
q-36 34 -87 45q24 25 24 58q0 40 -28 67q-29 27 -68 27q-38 0 -67 -28q-28 -27 -28 -66q0 -5 3 -15q2 -7 2 -14h-5q-45 0 -79 -34t-34 -80q0 -19 19 -56q-39 -20 -61 -67h-67q-86 -7 -148 -70q-61 -61 -61 -149zM1000 1235q0 -29 8 -57q10 -37 17 -51q10 -22 22 -47
q18 -38 20 -43h40q45 0 70 33l7 11l139 265l494 556l4 3q34 43 9 94q-24 49 -79 49h-598q7 -7 46 -42q16 -15 48 -53q31 -38 45 -65q14 -29 25 -73q10 -42 1 -84q-9 -40 -40 -89q-34 -52 -85 -97q-54 -46 -94 -93q-36 -41 -59 -81q-23 -39 -31 -73q-9 -38 -9 -63z" />
</svg>